<?xml version="1.0" encoding="UTF-8" standalone="no"?>
<!DOCTYPE svg PUBLIC "-//W3C//DTD SVG 1.1//EN"
 "http://www.w3.org/Graphics/SVG/1.1/DTD/svg11.dtd">
<!-- Generated by graphviz version 7.1.0 (20230121.1956)
 -->
<!-- Title: AbstractSyntaxTree Pages: 1 -->
<svg width="362pt" height="320pt"
 viewBox="0.00 0.00 362.34 320.00" xmlns="http://www.w3.org/2000/svg" xmlns:xlink="http://www.w3.org/1999/xlink">
<g id="graph0" class="graph" transform="scale(1 1) rotate(0) translate(4 316)">
<title>AbstractSyntaxTree</title>
<polygon fill="white" stroke="none" points="-4,4 -4,-316 358.34,-316 358.34,4 -4,4"/>
<!-- filename -->
<g id="node1" class="node">
<title>filename</title>
<polygon fill="none" stroke="black" points="0,-265.5 0,-301.5 88.67,-301.5 88.67,-265.5 0,-265.5"/>
<text text-anchor="middle" x="44.34" y="-279.9" font-family="Times,serif" font-size="12.00">REC_DRYPIT</text>
</g>
<!-- ast_node -->
<g id="node2" class="node">
<title>ast_node</title>
<polygon fill="none" stroke="black" points="106.34,-263.5 106.34,-303.5 160.34,-303.5 160.34,-263.5 106.34,-263.5"/>
<text text-anchor="middle" x="132.95" y="-290.5" font-family="Times,serif" font-size="10.00">STMTS</text>
<polyline fill="none" stroke="black" points="106.34,-283.5 159.57,-283.5"/>
<text text-anchor="middle" x="119.39" y="-270.5" font-family="Times,serif" font-size="10.00">L</text>
<polyline fill="none" stroke="black" points="132.45,-263.5 132.45,-283.5"/>
<text text-anchor="middle" x="145.78" y="-270.5" font-family="Times,serif" font-size="10.00">R</text>
</g>
<!-- ast_nodeL -->
<g id="node3" class="node">
<title>ast_nodeL</title>
<polygon fill="none" stroke="black" points="62.34,-178.5 62.34,-218.5 116.34,-218.5 116.34,-178.5 62.34,-178.5"/>
<text text-anchor="middle" x="89.23" y="-205.5" font-family="Times,serif" font-size="10.00">CALL</text>
<polyline fill="none" stroke="black" points="62.34,-198.5 116.12,-198.5"/>
<text text-anchor="middle" x="75.39" y="-185.5" font-family="Times,serif" font-size="10.00">L</text>
<polyline fill="none" stroke="black" points="88.45,-178.5 88.45,-198.5"/>
<text text-anchor="middle" x="102.28" y="-185.5" font-family="Times,serif" font-size="10.00">R</text>
</g>
<!-- ast_node&#45;&gt;ast_nodeL -->
<g id="edge4" class="edge">
<title>ast_node:L&#45;&gt;ast_nodeL:A</title>
<path fill="none" stroke="black" d="M119.34,-262.5C119.34,-244.3 131.98,-222.67 127.65,-213.27"/>
<polygon fill="black" stroke="black" points="129.26,-210.15 118.71,-209.13 126.32,-216.51 129.26,-210.15"/>
</g>
<!-- ast_nodeR -->
<g id="node7" class="node">
<title>ast_nodeR</title>
<polygon fill="none" stroke="black" points="147.34,-178.5 147.34,-218.5 201.34,-218.5 201.34,-178.5 147.34,-178.5"/>
<text text-anchor="middle" x="173.95" y="-205.5" font-family="Times,serif" font-size="10.00">STMTS</text>
<polyline fill="none" stroke="black" points="147.34,-198.5 200.57,-198.5"/>
<text text-anchor="middle" x="160.39" y="-185.5" font-family="Times,serif" font-size="10.00">L</text>
<polyline fill="none" stroke="black" points="173.45,-178.5 173.45,-198.5"/>
<text text-anchor="middle" x="186.78" y="-185.5" font-family="Times,serif" font-size="10.00">R</text>
</g>
<!-- ast_node&#45;&gt;ast_nodeR -->
<g id="edge7" class="edge">
<title>ast_node:R&#45;&gt;ast_nodeR:A</title>
<path fill="none" stroke="black" d="M145.34,-262.5C145.34,-244.5 132.4,-223.12 136.05,-213.56"/>
<polygon fill="black" stroke="black" points="137.55,-216.73 144.98,-209.17 134.46,-210.44 137.55,-216.73"/>
</g>
<!-- ast_nodeLL -->
<g id="node4" class="node">
<title>ast_nodeLL</title>
<polygon fill="none" stroke="black" points="3.34,-89.5 3.34,-141.5 57.34,-141.5 57.34,-89.5 3.34,-89.5"/>
<text text-anchor="middle" x="30.23" y="-128.5" font-family="Times,serif" font-size="10.00">ID</text>
<text text-anchor="middle" x="30.23" y="-116.5" font-family="Times,serif" font-size="10.00">CLEAR</text>
<polyline fill="none" stroke="black" points="3.34,-109.5 57.12,-109.5"/>
<text text-anchor="middle" x="16.39" y="-96.5" font-family="Times,serif" font-size="10.00">L</text>
<polyline fill="none" stroke="black" points="29.45,-89.5 29.45,-109.5"/>
<text text-anchor="middle" x="43.28" y="-96.5" font-family="Times,serif" font-size="10.00">R</text>
</g>
<!-- ast_nodeL&#45;&gt;ast_nodeLL -->
<g id="edge1" class="edge">
<title>ast_nodeL:L&#45;&gt;ast_nodeLL:A</title>
<path fill="none" stroke="black" d="M75.34,-178C75.34,-175.82 68.29,-150.2 63.12,-135.58"/>
<polygon fill="black" stroke="black" points="66.44,-134.4 58.99,-126.87 60.11,-137.4 66.44,-134.4"/>
</g>
<!-- ast_nodeLR -->
<g id="node5" class="node">
<title>ast_nodeLR</title>
<polygon fill="none" stroke="black" points="75.34,-95.5 75.34,-135.5 129.34,-135.5 129.34,-95.5 75.34,-95.5"/>
<text text-anchor="middle" x="102.29" y="-122.5" font-family="Times,serif" font-size="10.00">PARMS</text>
<polyline fill="none" stroke="black" points="75.34,-115.5 129.24,-115.5"/>
<text text-anchor="middle" x="88.39" y="-102.5" font-family="Times,serif" font-size="10.00">L</text>
<polyline fill="none" stroke="black" points="101.45,-95.5 101.45,-115.5"/>
<text text-anchor="middle" x="115.28" y="-102.5" font-family="Times,serif" font-size="10.00">R</text>
</g>
<!-- ast_nodeL&#45;&gt;ast_nodeLR -->
<g id="edge3" class="edge">
<title>ast_nodeL:R&#45;&gt;ast_nodeLR:A</title>
<path fill="none" stroke="black" d="M102.34,-178C102.34,-164.02 102.34,-157.99 102.34,-147.86"/>
<polygon fill="black" stroke="black" points="105.84,-148.01 102.34,-138.01 98.84,-148.01 105.84,-148.01"/>
</g>
<!-- ast_nodeLRL -->
<g id="node6" class="node">
<title>ast_nodeLRL</title>
<polygon fill="none" stroke="black" points="57.95,-0.5 57.95,-52.5 116.73,-52.5 116.73,-0.5 57.95,-0.5"/>
<text text-anchor="middle" x="87.34" y="-39.5" font-family="Times,serif" font-size="10.00">ID</text>
<text text-anchor="middle" x="87.34" y="-27.5" font-family="Times,serif" font-size="10.00">WSPRITE</text>
<polyline fill="none" stroke="black" points="57.95,-20.5 116.73,-20.5"/>
<text text-anchor="middle" x="72.5" y="-7.5" font-family="Times,serif" font-size="10.00">L</text>
<polyline fill="none" stroke="black" points="87.06,-0.5 87.06,-20.5"/>
<text text-anchor="middle" x="101.89" y="-7.5" font-family="Times,serif" font-size="10.00">R</text>
</g>
<!-- ast_nodeLR&#45;&gt;ast_nodeLRL -->
<g id="edge2" class="edge">
<title>ast_nodeLR:L&#45;&gt;ast_nodeLRL:A</title>
<path fill="none" stroke="black" d="M88.34,-94.5C88.34,-80.52 87.76,-74.49 87.48,-64.36"/>
<polygon fill="black" stroke="black" points="90.99,-64.47 87.36,-54.51 83.99,-64.56 90.99,-64.47"/>
</g>
<!-- ast_nodeRL -->
<g id="node8" class="node">
<title>ast_nodeRL</title>
<polygon fill="none" stroke="black" points="147.34,-95.5 147.34,-135.5 201.34,-135.5 201.34,-95.5 147.34,-95.5"/>
<text text-anchor="middle" x="174.23" y="-122.5" font-family="Times,serif" font-size="10.00">CALL</text>
<polyline fill="none" stroke="black" points="147.34,-115.5 201.12,-115.5"/>
<text text-anchor="middle" x="160.39" y="-102.5" font-family="Times,serif" font-size="10.00">L</text>
<polyline fill="none" stroke="black" points="173.45,-95.5 173.45,-115.5"/>
<text text-anchor="middle" x="187.28" y="-102.5" font-family="Times,serif" font-size="10.00">R</text>
</g>
<!-- ast_nodeR&#45;&gt;ast_nodeRL -->
<g id="edge6" class="edge">
<title>ast_nodeR:L&#45;&gt;ast_nodeRL:A</title>
<path fill="none" stroke="black" d="M160.34,-178C160.34,-163.1 168.54,-158.1 172.39,-147.84"/>
<polygon fill="black" stroke="black" points="175.84,-148.44 174.08,-137.99 168.94,-147.26 175.84,-148.44"/>
</g>
<!-- ast_nodeRLL -->
<g id="node9" class="node">
<title>ast_nodeRLL</title>
<polygon fill="none" stroke="black" points="134.34,-0.5 134.34,-52.5 188.34,-52.5 188.34,-0.5 134.34,-0.5"/>
<text text-anchor="middle" x="161.06" y="-39.5" font-family="Times,serif" font-size="10.00">ID</text>
<text text-anchor="middle" x="161.06" y="-27.5" font-family="Times,serif" font-size="10.00">SHOW</text>
<polyline fill="none" stroke="black" points="134.34,-20.5 187.78,-20.5"/>
<text text-anchor="middle" x="147.39" y="-7.5" font-family="Times,serif" font-size="10.00">L</text>
<polyline fill="none" stroke="black" points="160.45,-0.5 160.45,-20.5"/>
<text text-anchor="middle" x="173.78" y="-7.5" font-family="Times,serif" font-size="10.00">R</text>
</g>
<!-- ast_nodeRL&#45;&gt;ast_nodeRLL -->
<g id="edge5" class="edge">
<title>ast_nodeRL:L&#45;&gt;ast_nodeRLL:A</title>
<path fill="none" stroke="black" d="M160.34,-94.5C160.34,-80.52 160.91,-74.49 161.19,-64.36"/>
<polygon fill="black" stroke="black" points="164.69,-64.56 161.32,-54.51 157.69,-64.47 164.69,-64.56"/>
</g>
<!-- code -->
<g id="node10" class="node">
<title>code</title>
<polygon fill="none" stroke="black" points="178.34,-255.5 178.34,-311.5 354.34,-311.5 354.34,-255.5 178.34,-255.5"/>
<polygon fill="none" stroke="black" points="189.34,-284.5 189.34,-304.5 343.34,-304.5 343.34,-284.5 189.34,-284.5"/>
<text text-anchor="start" x="251.93" y="-291.7" font-family="Courier New" font-weight="bold" font-size="12.00">code</text>
<polygon fill="none" stroke="black" points="189.34,-262.5 189.34,-282.5 343.34,-282.5 343.34,-262.5 189.34,-262.5"/>
<text text-anchor="start" x="192.34" y="-268.7" font-family="Times,serif" font-size="12.00" fill="blue">CLEAR(WSPRITE);SHOW();</text>
<polygon fill="none" stroke="black" points="186.34,-259.5 186.34,-307.5 346.34,-307.5 346.34,-259.5 186.34,-259.5"/>
</g>
</g>
</svg>
