<?xml version="1.0" encoding="UTF-8" standalone="no"?>
<!DOCTYPE svg PUBLIC "-//W3C//DTD SVG 1.1//EN"
 "http://www.w3.org/Graphics/SVG/1.1/DTD/svg11.dtd">
<!-- Generated by graphviz version 7.1.0 (20230121.1956)
 -->
<!-- Title: AbstractSyntaxTree Pages: 1 -->
<svg width="461pt" height="672pt"
 viewBox="0.00 0.00 460.50 672.00" xmlns="http://www.w3.org/2000/svg" xmlns:xlink="http://www.w3.org/1999/xlink">
<g id="graph0" class="graph" transform="scale(1 1) rotate(0) translate(4 668)">
<title>AbstractSyntaxTree</title>
<polygon fill="white" stroke="none" points="-4,4 -4,-668 456.5,-668 456.5,4 -4,4"/>
<!-- filename -->
<g id="node1" class="node">
<title>filename</title>
<polygon fill="none" stroke="black" points="121,-613.5 121,-649.5 175,-649.5 175,-613.5 121,-613.5"/>
<text text-anchor="middle" x="147.83" y="-627.9" font-family="Times,serif" font-size="12.00">rule</text>
</g>
<!-- ast_node -->
<g id="node2" class="node">
<title>ast_node</title>
<polygon fill="none" stroke="black" points="193,-611.5 193,-651.5 247,-651.5 247,-611.5 193,-611.5"/>
<text text-anchor="middle" x="219.62" y="-638.5" font-family="Times,serif" font-size="10.00">STMTS</text>
<polyline fill="none" stroke="black" points="193,-631.5 246.23,-631.5"/>
<text text-anchor="middle" x="206.05" y="-618.5" font-family="Times,serif" font-size="10.00">L</text>
<polyline fill="none" stroke="black" points="219.11,-611.5 219.11,-631.5"/>
<text text-anchor="middle" x="232.44" y="-618.5" font-family="Times,serif" font-size="10.00">R</text>
</g>
<!-- ast_nodeL -->
<g id="node3" class="node">
<title>ast_nodeL</title>
<polygon fill="none" stroke="black" points="148,-522.5 148,-562.5 202,-562.5 202,-522.5 148,-522.5"/>
<text text-anchor="middle" x="174.89" y="-549.5" font-family="Times,serif" font-size="10.00">RULE</text>
<polyline fill="none" stroke="black" points="148,-542.5 201.78,-542.5"/>
<text text-anchor="middle" x="161.05" y="-529.5" font-family="Times,serif" font-size="10.00">L</text>
<polyline fill="none" stroke="black" points="174.11,-522.5 174.11,-542.5"/>
<text text-anchor="middle" x="187.94" y="-529.5" font-family="Times,serif" font-size="10.00">R</text>
</g>
<!-- ast_node&#45;&gt;ast_nodeL -->
<g id="edge14" class="edge">
<title>ast_node:L&#45;&gt;ast_nodeL:A</title>
<path fill="none" stroke="black" d="M206,-610.5C206,-590.33 219.92,-566.28 213.71,-556.72"/>
<polygon fill="black" stroke="black" points="215,-553.46 204.41,-553.05 212.43,-559.98 215,-553.46"/>
</g>
<!-- ast_nodeR -->
<g id="node17" class="node">
<title>ast_nodeR</title>
<polygon fill="none" stroke="black" points="236,-522.5 236,-562.5 290,-562.5 290,-522.5 236,-522.5"/>
<text text-anchor="middle" x="262.62" y="-549.5" font-family="Times,serif" font-size="10.00">STMTS</text>
<polyline fill="none" stroke="black" points="236,-542.5 289.23,-542.5"/>
<text text-anchor="middle" x="249.05" y="-529.5" font-family="Times,serif" font-size="10.00">L</text>
<polyline fill="none" stroke="black" points="262.11,-522.5 262.11,-542.5"/>
<text text-anchor="middle" x="275.44" y="-529.5" font-family="Times,serif" font-size="10.00">R</text>
</g>
<!-- ast_node&#45;&gt;ast_nodeR -->
<g id="edge19" class="edge">
<title>ast_node:R&#45;&gt;ast_nodeR:A</title>
<path fill="none" stroke="black" d="M232,-610.5C232,-590.33 218.08,-566.28 224.29,-556.72"/>
<polygon fill="black" stroke="black" points="225.57,-559.98 233.59,-553.05 223,-553.46 225.57,-559.98"/>
</g>
<!-- ast_nodeLL -->
<g id="node4" class="node">
<title>ast_nodeLL</title>
<polygon fill="none" stroke="black" points="46.5,-445.5 46.5,-485.5 117.5,-485.5 117.5,-445.5 46.5,-445.5"/>
<text text-anchor="middle" x="82" y="-472.5" font-family="Times,serif" font-size="10.00">PREDICATE</text>
<polyline fill="none" stroke="black" points="46.5,-465.5 117.5,-465.5"/>
<text text-anchor="middle" x="64.05" y="-452.5" font-family="Times,serif" font-size="10.00">L</text>
<polyline fill="none" stroke="black" points="81.61,-445.5 81.61,-465.5"/>
<text text-anchor="middle" x="99.44" y="-452.5" font-family="Times,serif" font-size="10.00">R</text>
</g>
<!-- ast_nodeL&#45;&gt;ast_nodeLL -->
<g id="edge4" class="edge">
<title>ast_nodeL:L&#45;&gt;ast_nodeLL:A</title>
<path fill="none" stroke="black" d="M147,-532.5C123.85,-532.5 138.83,-494.14 129.38,-480.36"/>
<polygon fill="black" stroke="black" points="130.91,-477.21 120.37,-476.14 127.94,-483.55 130.91,-477.21"/>
</g>
<!-- ast_nodeLR -->
<g id="node8" class="node">
<title>ast_nodeLR</title>
<polygon fill="none" stroke="black" points="161,-445.5 161,-485.5 215,-485.5 215,-445.5 161,-445.5"/>
<text text-anchor="middle" x="187.95" y="-472.5" font-family="Times,serif" font-size="10.00">PARMS</text>
<polyline fill="none" stroke="black" points="161,-465.5 214.91,-465.5"/>
<text text-anchor="middle" x="174.05" y="-452.5" font-family="Times,serif" font-size="10.00">L</text>
<polyline fill="none" stroke="black" points="187.11,-445.5 187.11,-465.5"/>
<text text-anchor="middle" x="200.94" y="-452.5" font-family="Times,serif" font-size="10.00">R</text>
</g>
<!-- ast_nodeL&#45;&gt;ast_nodeLR -->
<g id="edge13" class="edge">
<title>ast_nodeL:R&#45;&gt;ast_nodeLR:A</title>
<path fill="none" stroke="black" d="M188,-522C188,-510.62 188,-505.32 188,-497.45"/>
<polygon fill="black" stroke="black" points="191.5,-497.51 188,-487.51 184.5,-497.51 191.5,-497.51"/>
</g>
<!-- ast_nodeLLL -->
<g id="node5" class="node">
<title>ast_nodeLLL</title>
<polygon fill="none" stroke="black" points="0,-356.5 0,-408.5 54,-408.5 54,-356.5 0,-356.5"/>
<text text-anchor="middle" x="26.89" y="-395.5" font-family="Times,serif" font-size="10.00">ID</text>
<text text-anchor="middle" x="26.89" y="-383.5" font-family="Times,serif" font-size="10.00">rule</text>
<polyline fill="none" stroke="black" points="0,-376.5 53.78,-376.5"/>
<text text-anchor="middle" x="13.05" y="-363.5" font-family="Times,serif" font-size="10.00">L</text>
<polyline fill="none" stroke="black" points="26.11,-356.5 26.11,-376.5"/>
<text text-anchor="middle" x="39.94" y="-363.5" font-family="Times,serif" font-size="10.00">R</text>
</g>
<!-- ast_nodeLL&#45;&gt;ast_nodeLLL -->
<g id="edge1" class="edge">
<title>ast_nodeLL:L&#45;&gt;ast_nodeLLL:A</title>
<path fill="none" stroke="black" d="M64,-445C64,-440.88 62.51,-417.11 59.61,-403.01"/>
<polygon fill="black" stroke="black" points="62.83,-401.63 55.61,-393.89 56.42,-404.45 62.83,-401.63"/>
</g>
<!-- ast_nodeLLR -->
<g id="node6" class="node">
<title>ast_nodeLLR</title>
<polygon fill="none" stroke="black" points="72,-362.5 72,-402.5 126,-402.5 126,-362.5 72,-362.5"/>
<text text-anchor="middle" x="98.95" y="-389.5" font-family="Times,serif" font-size="10.00">PARMS</text>
<polyline fill="none" stroke="black" points="72,-382.5 125.91,-382.5"/>
<text text-anchor="middle" x="85.05" y="-369.5" font-family="Times,serif" font-size="10.00">L</text>
<polyline fill="none" stroke="black" points="98.11,-362.5 98.11,-382.5"/>
<text text-anchor="middle" x="111.94" y="-369.5" font-family="Times,serif" font-size="10.00">R</text>
</g>
<!-- ast_nodeLL&#45;&gt;ast_nodeLLR -->
<g id="edge3" class="edge">
<title>ast_nodeLL:R&#45;&gt;ast_nodeLLR:A</title>
<path fill="none" stroke="black" d="M99,-445C99,-431.02 99,-424.99 99,-414.86"/>
<polygon fill="black" stroke="black" points="102.5,-415.01 99,-405.01 95.5,-415.01 102.5,-415.01"/>
</g>
<!-- ast_nodeLLRL -->
<g id="node7" class="node">
<title>ast_nodeLLRL</title>
<polygon fill="none" stroke="black" points="57,-267.5 57,-319.5 111,-319.5 111,-267.5 57,-267.5"/>
<text text-anchor="middle" x="83.89" y="-306.5" font-family="Times,serif" font-size="10.00">ID</text>
<text text-anchor="middle" x="83.89" y="-294.5" font-family="Times,serif" font-size="10.00">x</text>
<polyline fill="none" stroke="black" points="57,-287.5 110.78,-287.5"/>
<text text-anchor="middle" x="70.05" y="-274.5" font-family="Times,serif" font-size="10.00">L</text>
<polyline fill="none" stroke="black" points="83.11,-267.5 83.11,-287.5"/>
<text text-anchor="middle" x="96.94" y="-274.5" font-family="Times,serif" font-size="10.00">R</text>
</g>
<!-- ast_nodeLLR&#45;&gt;ast_nodeLLRL -->
<g id="edge2" class="edge">
<title>ast_nodeLLR:L&#45;&gt;ast_nodeLLRL:A</title>
<path fill="none" stroke="black" d="M85,-361.5C85,-347.52 84.43,-341.49 84.15,-331.36"/>
<polygon fill="black" stroke="black" points="87.65,-331.47 84.02,-321.51 80.65,-331.56 87.65,-331.47"/>
</g>
<!-- ast_nodeLRL -->
<g id="node9" class="node">
<title>ast_nodeLRL</title>
<polygon fill="none" stroke="black" points="147,-362.5 147,-402.5 201,-402.5 201,-362.5 147,-362.5"/>
<text text-anchor="middle" x="173.89" y="-389.5" font-family="Times,serif" font-size="10.00">CALL</text>
<polyline fill="none" stroke="black" points="147,-382.5 200.78,-382.5"/>
<text text-anchor="middle" x="160.05" y="-369.5" font-family="Times,serif" font-size="10.00">L</text>
<polyline fill="none" stroke="black" points="173.11,-362.5 173.11,-382.5"/>
<text text-anchor="middle" x="186.94" y="-369.5" font-family="Times,serif" font-size="10.00">R</text>
</g>
<!-- ast_nodeLR&#45;&gt;ast_nodeLRL -->
<g id="edge12" class="edge">
<title>ast_nodeLR:L&#45;&gt;ast_nodeLRL:A</title>
<path fill="none" stroke="black" d="M174,-445C174,-431.02 174,-424.99 174,-414.86"/>
<polygon fill="black" stroke="black" points="177.5,-415.01 174,-405.01 170.5,-415.01 177.5,-415.01"/>
</g>
<!-- ast_nodeLRLL -->
<g id="node10" class="node">
<title>ast_nodeLRLL</title>
<polygon fill="none" stroke="black" points="129,-267.5 129,-319.5 183,-319.5 183,-267.5 129,-267.5"/>
<text text-anchor="middle" x="155.89" y="-306.5" font-family="Times,serif" font-size="10.00">ID</text>
<text text-anchor="middle" x="155.89" y="-294.5" font-family="Times,serif" font-size="10.00">write</text>
<polyline fill="none" stroke="black" points="129,-287.5 182.78,-287.5"/>
<text text-anchor="middle" x="142.05" y="-274.5" font-family="Times,serif" font-size="10.00">L</text>
<polyline fill="none" stroke="black" points="155.11,-267.5 155.11,-287.5"/>
<text text-anchor="middle" x="168.94" y="-274.5" font-family="Times,serif" font-size="10.00">R</text>
</g>
<!-- ast_nodeLRL&#45;&gt;ast_nodeLRLL -->
<g id="edge5" class="edge">
<title>ast_nodeLRL:L&#45;&gt;ast_nodeLRLL:A</title>
<path fill="none" stroke="black" d="M160,-361.5C160,-347.46 157.7,-341.51 156.59,-331.38"/>
<polygon fill="black" stroke="black" points="160.09,-331.32 156.08,-321.51 153.1,-331.68 160.09,-331.32"/>
</g>
<!-- ast_nodeLRLR -->
<g id="node11" class="node">
<title>ast_nodeLRLR</title>
<polygon fill="none" stroke="black" points="201,-273.5 201,-313.5 255,-313.5 255,-273.5 201,-273.5"/>
<text text-anchor="middle" x="227.95" y="-300.5" font-family="Times,serif" font-size="10.00">PARMS</text>
<polyline fill="none" stroke="black" points="201,-293.5 254.91,-293.5"/>
<text text-anchor="middle" x="214.05" y="-280.5" font-family="Times,serif" font-size="10.00">L</text>
<polyline fill="none" stroke="black" points="227.11,-273.5 227.11,-293.5"/>
<text text-anchor="middle" x="240.94" y="-280.5" font-family="Times,serif" font-size="10.00">R</text>
</g>
<!-- ast_nodeLRL&#45;&gt;ast_nodeLRLR -->
<g id="edge11" class="edge">
<title>ast_nodeLRL:R&#45;&gt;ast_nodeLRLR:A</title>
<path fill="none" stroke="black" d="M187,-361.5C187,-356.75 190.3,-328.87 194.61,-313.56"/>
<polygon fill="black" stroke="black" points="197.65,-315.3 199.29,-304.83 191.48,-312 197.65,-315.3"/>
</g>
<!-- ast_nodeLRLRL -->
<g id="node12" class="node">
<title>ast_nodeLRLRL</title>
<polygon fill="none" stroke="black" points="187,-178.5 187,-230.5 241,-230.5 241,-178.5 187,-178.5"/>
<text text-anchor="middle" x="213.89" y="-217.5" font-family="Times,serif" font-size="10.00">OP</text>
<text text-anchor="middle" x="213.89" y="-205.5" font-family="Times,serif" font-size="10.00">+</text>
<polyline fill="none" stroke="black" points="187,-198.5 240.78,-198.5"/>
<text text-anchor="middle" x="200.05" y="-185.5" font-family="Times,serif" font-size="10.00">L</text>
<polyline fill="none" stroke="black" points="213.11,-178.5 213.11,-198.5"/>
<text text-anchor="middle" x="226.94" y="-185.5" font-family="Times,serif" font-size="10.00">R</text>
</g>
<!-- ast_nodeLRLR&#45;&gt;ast_nodeLRLRL -->
<g id="edge10" class="edge">
<title>ast_nodeLRLR:L&#45;&gt;ast_nodeLRLRL:A</title>
<path fill="none" stroke="black" d="M214,-272.5C214,-258.52 214,-252.49 214,-242.36"/>
<polygon fill="black" stroke="black" points="217.5,-242.51 214,-232.51 210.5,-242.51 217.5,-242.51"/>
</g>
<!-- ast_nodeLRLRLL -->
<g id="node13" class="node">
<title>ast_nodeLRLRLL</title>
<polygon fill="none" stroke="black" points="151,-89.5 151,-141.5 205,-141.5 205,-89.5 151,-89.5"/>
<text text-anchor="middle" x="177.89" y="-128.5" font-family="Times,serif" font-size="10.00">OP</text>
<text text-anchor="middle" x="177.89" y="-116.5" font-family="Times,serif" font-size="10.00">+</text>
<polyline fill="none" stroke="black" points="151,-109.5 204.78,-109.5"/>
<text text-anchor="middle" x="164.05" y="-96.5" font-family="Times,serif" font-size="10.00">L</text>
<polyline fill="none" stroke="black" points="177.11,-89.5 177.11,-109.5"/>
<text text-anchor="middle" x="190.94" y="-96.5" font-family="Times,serif" font-size="10.00">R</text>
</g>
<!-- ast_nodeLRLRL&#45;&gt;ast_nodeLRLRLL -->
<g id="edge8" class="edge">
<title>ast_nodeLRLRL:L&#45;&gt;ast_nodeLRLRLL:A</title>
<path fill="none" stroke="black" d="M200,-178C200,-163.94 187.62,-161.27 181.44,-152.9"/>
<polygon fill="black" stroke="black" points="184.8,-151.93 178.46,-143.44 178.13,-154.03 184.8,-151.93"/>
</g>
<!-- ast_nodeLRLRLR -->
<g id="node16" class="node">
<title>ast_nodeLRLRLR</title>
<polygon fill="none" stroke="black" points="223,-89.5 223,-141.5 277,-141.5 277,-89.5 223,-89.5"/>
<text text-anchor="middle" x="249.89" y="-128.5" font-family="Times,serif" font-size="10.00">TEXT</text>
<text text-anchor="middle" x="249.89" y="-116.5" font-family="Times,serif" font-size="10.00">).</text>
<polyline fill="none" stroke="black" points="223,-109.5 276.78,-109.5"/>
<text text-anchor="middle" x="236.05" y="-96.5" font-family="Times,serif" font-size="10.00">L</text>
<polyline fill="none" stroke="black" points="249.11,-89.5 249.11,-109.5"/>
<text text-anchor="middle" x="262.94" y="-96.5" font-family="Times,serif" font-size="10.00">R</text>
</g>
<!-- ast_nodeLRLRL&#45;&gt;ast_nodeLRLRLR -->
<g id="edge9" class="edge">
<title>ast_nodeLRLRL:R&#45;&gt;ast_nodeLRLRLR:A</title>
<path fill="none" stroke="black" d="M227,-178C227,-163.61 240.21,-161.26 246.61,-152.7"/>
<polygon fill="black" stroke="black" points="249.86,-154.03 249.54,-143.44 243.18,-151.92 249.86,-154.03"/>
</g>
<!-- ast_nodeLRLRLLL -->
<g id="node14" class="node">
<title>ast_nodeLRLRLLL</title>
<polygon fill="none" stroke="black" points="103.76,-0.5 103.76,-52.5 172.24,-52.5 172.24,-0.5 103.76,-0.5"/>
<text text-anchor="middle" x="138" y="-39.5" font-family="Times,serif" font-size="10.00">TEXT</text>
<text text-anchor="middle" x="138" y="-27.5" font-family="Times,serif" font-size="10.00">running rule(</text>
<polyline fill="none" stroke="black" points="103.76,-20.5 172.24,-20.5"/>
<text text-anchor="middle" x="120.31" y="-7.5" font-family="Times,serif" font-size="10.00">L</text>
<polyline fill="none" stroke="black" points="136.87,-0.5 136.87,-20.5"/>
<text text-anchor="middle" x="154.2" y="-7.5" font-family="Times,serif" font-size="10.00">R</text>
</g>
<!-- ast_nodeLRLRLL&#45;&gt;ast_nodeLRLRLLL -->
<g id="edge6" class="edge">
<title>ast_nodeLRLRLL:L&#45;&gt;ast_nodeLRLRLLL:A</title>
<path fill="none" stroke="black" d="M164,-89C164,-73.89 148.76,-72.38 141.62,-63.65"/>
<polygon fill="black" stroke="black" points="145.02,-62.78 138.49,-54.43 138.39,-65.03 145.02,-62.78"/>
</g>
<!-- ast_nodeLRLRLLR -->
<g id="node15" class="node">
<title>ast_nodeLRLRLLR</title>
<polygon fill="none" stroke="black" points="190,-0.5 190,-52.5 244,-52.5 244,-0.5 190,-0.5"/>
<text text-anchor="middle" x="216.89" y="-39.5" font-family="Times,serif" font-size="10.00">ID</text>
<text text-anchor="middle" x="216.89" y="-27.5" font-family="Times,serif" font-size="10.00">x</text>
<polyline fill="none" stroke="black" points="190,-20.5 243.78,-20.5"/>
<text text-anchor="middle" x="203.05" y="-7.5" font-family="Times,serif" font-size="10.00">L</text>
<polyline fill="none" stroke="black" points="216.11,-0.5 216.11,-20.5"/>
<text text-anchor="middle" x="229.94" y="-7.5" font-family="Times,serif" font-size="10.00">R</text>
</g>
<!-- ast_nodeLRLRLL&#45;&gt;ast_nodeLRLRLLR -->
<g id="edge7" class="edge">
<title>ast_nodeLRLRLL:R&#45;&gt;ast_nodeLRLRLLR:A</title>
<path fill="none" stroke="black" d="M191,-89C191,-73.89 206.24,-72.38 213.38,-63.65"/>
<polygon fill="black" stroke="black" points="216.61,-65.03 216.51,-54.43 209.98,-62.78 216.61,-65.03"/>
</g>
<!-- ast_nodeRL -->
<g id="node18" class="node">
<title>ast_nodeRL</title>
<polygon fill="none" stroke="black" points="238,-445.5 238,-485.5 292,-485.5 292,-445.5 238,-445.5"/>
<text text-anchor="middle" x="264.89" y="-472.5" font-family="Times,serif" font-size="10.00">CALL</text>
<polyline fill="none" stroke="black" points="238,-465.5 291.78,-465.5"/>
<text text-anchor="middle" x="251.05" y="-452.5" font-family="Times,serif" font-size="10.00">L</text>
<polyline fill="none" stroke="black" points="264.11,-445.5 264.11,-465.5"/>
<text text-anchor="middle" x="277.94" y="-452.5" font-family="Times,serif" font-size="10.00">R</text>
</g>
<!-- ast_nodeR&#45;&gt;ast_nodeRL -->
<g id="edge18" class="edge">
<title>ast_nodeR:L&#45;&gt;ast_nodeRL:A</title>
<path fill="none" stroke="black" d="M249,-522C249,-509.14 257.63,-505.2 262.21,-497.07"/>
<polygon fill="black" stroke="black" points="265.58,-498.02 264.63,-487.47 258.8,-496.31 265.58,-498.02"/>
</g>
<!-- ast_nodeRLL -->
<g id="node19" class="node">
<title>ast_nodeRLL</title>
<polygon fill="none" stroke="black" points="224,-356.5 224,-408.5 278,-408.5 278,-356.5 224,-356.5"/>
<text text-anchor="middle" x="250.89" y="-395.5" font-family="Times,serif" font-size="10.00">ID</text>
<text text-anchor="middle" x="250.89" y="-383.5" font-family="Times,serif" font-size="10.00">rule</text>
<polyline fill="none" stroke="black" points="224,-376.5 277.78,-376.5"/>
<text text-anchor="middle" x="237.05" y="-363.5" font-family="Times,serif" font-size="10.00">L</text>
<polyline fill="none" stroke="black" points="250.11,-356.5 250.11,-376.5"/>
<text text-anchor="middle" x="263.94" y="-363.5" font-family="Times,serif" font-size="10.00">R</text>
</g>
<!-- ast_nodeRL&#45;&gt;ast_nodeRLL -->
<g id="edge15" class="edge">
<title>ast_nodeRL:L&#45;&gt;ast_nodeRLL:A</title>
<path fill="none" stroke="black" d="M251,-445C251,-433.62 251,-428.32 251,-420.45"/>
<polygon fill="black" stroke="black" points="254.5,-420.51 251,-410.51 247.5,-420.51 254.5,-420.51"/>
</g>
<!-- ast_nodeRLR -->
<g id="node20" class="node">
<title>ast_nodeRLR</title>
<polygon fill="none" stroke="black" points="297,-362.5 297,-402.5 351,-402.5 351,-362.5 297,-362.5"/>
<text text-anchor="middle" x="323.95" y="-389.5" font-family="Times,serif" font-size="10.00">PARMS</text>
<polyline fill="none" stroke="black" points="297,-382.5 350.91,-382.5"/>
<text text-anchor="middle" x="310.05" y="-369.5" font-family="Times,serif" font-size="10.00">L</text>
<polyline fill="none" stroke="black" points="323.11,-362.5 323.11,-382.5"/>
<text text-anchor="middle" x="336.94" y="-369.5" font-family="Times,serif" font-size="10.00">R</text>
</g>
<!-- ast_nodeRL&#45;&gt;ast_nodeRLR -->
<g id="edge17" class="edge">
<title>ast_nodeRL:R&#45;&gt;ast_nodeRLR:A</title>
<path fill="none" stroke="black" d="M278,-445C278,-440.62 283.98,-415.93 289.65,-402.03"/>
<polygon fill="black" stroke="black" points="292.53,-404.02 295.16,-393.76 286.7,-400.14 292.53,-404.02"/>
</g>
<!-- ast_nodeRLRL -->
<g id="node21" class="node">
<title>ast_nodeRLRL</title>
<polygon fill="none" stroke="black" points="273.15,-267.5 273.15,-319.5 348.85,-319.5 348.85,-267.5 273.15,-267.5"/>
<text text-anchor="middle" x="311" y="-306.5" font-family="Times,serif" font-size="10.00">TEXT</text>
<text text-anchor="middle" x="311" y="-294.5" font-family="Times,serif" font-size="10.00">calling rule(x);</text>
<polyline fill="none" stroke="black" points="273.15,-287.5 348.85,-287.5"/>
<text text-anchor="middle" x="291.71" y="-274.5" font-family="Times,serif" font-size="10.00">L</text>
<polyline fill="none" stroke="black" points="310.26,-267.5 310.26,-287.5"/>
<text text-anchor="middle" x="329.09" y="-274.5" font-family="Times,serif" font-size="10.00">R</text>
</g>
<!-- ast_nodeRLR&#45;&gt;ast_nodeRLRL -->
<g id="edge16" class="edge">
<title>ast_nodeRLR:L&#45;&gt;ast_nodeRLRL:A</title>
<path fill="none" stroke="black" d="M310,-361.5C310,-347.52 310.57,-341.49 310.85,-331.36"/>
<polygon fill="black" stroke="black" points="314.35,-331.56 310.98,-321.51 307.35,-331.47 314.35,-331.56"/>
</g>
<!-- code -->
<g id="node22" class="node">
<title>code</title>
<polygon fill="none" stroke="black" points="265.5,-599.5 265.5,-663.5 452.5,-663.5 452.5,-599.5 265.5,-599.5"/>
<polygon fill="none" stroke="black" points="277,-638.5 277,-656.5 442,-656.5 442,-638.5 277,-638.5"/>
<text text-anchor="start" x="349.78" y="-645.5" font-family="Times,serif" font-weight="bold" font-size="10.00">code</text>
<polygon fill="none" stroke="black" points="277,-606.5 277,-636.5 442,-636.5 442,-606.5 277,-606.5"/>
<text text-anchor="start" x="280" y="-624.5" font-family="Times,serif" font-size="10.00" fill="blue">rule(x) :&#45; write(&#39;running rule(&#39; + x + &#39;).&#39;).</text>
<text text-anchor="start" x="280" y="-612.5" font-family="Times,serif" font-size="10.00" fill="blue">rule(&#39;calling rule(x);&#39;);</text>
<polygon fill="none" stroke="black" points="273.5,-603.5 273.5,-659.5 444.5,-659.5 444.5,-603.5 273.5,-603.5"/>
</g>
</g>
</svg>
