<?xml version="1.0" encoding="UTF-8" standalone="no"?>
<!DOCTYPE svg PUBLIC "-//W3C//DTD SVG 1.1//EN"
 "http://www.w3.org/Graphics/SVG/1.1/DTD/svg11.dtd">
<!-- Generated by graphviz version 7.1.0 (20230121.1956)
 -->
<!-- Title: AbstractSyntaxTree Pages: 1 -->
<svg width="373pt" height="405pt"
 viewBox="0.00 0.00 373.50 405.00" xmlns="http://www.w3.org/2000/svg" xmlns:xlink="http://www.w3.org/1999/xlink">
<g id="graph0" class="graph" transform="scale(1 1) rotate(0) translate(4 401)">
<title>AbstractSyntaxTree</title>
<polygon fill="white" stroke="none" points="-4,4 -4,-401 369.5,-401 369.5,4 -4,4"/>
<!-- filename -->
<g id="node1" class="node">
<title>filename</title>
<polygon fill="none" stroke="black" points="0,-352.5 0,-388.5 117.99,-388.5 117.99,-352.5 0,-352.5"/>
<text text-anchor="middle" x="59" y="-366.9" font-family="Times,serif" font-size="12.00">S00_HIDEBUTTON</text>
</g>
<!-- ast_node -->
<g id="node2" class="node">
<title>ast_node</title>
<polygon fill="none" stroke="black" points="136,-350.5 136,-390.5 190,-390.5 190,-350.5 136,-350.5"/>
<text text-anchor="middle" x="162.61" y="-377.5" font-family="Times,serif" font-size="10.00">STMTS</text>
<polyline fill="none" stroke="black" points="136,-370.5 189.23,-370.5"/>
<text text-anchor="middle" x="149.05" y="-357.5" font-family="Times,serif" font-size="10.00">L</text>
<polyline fill="none" stroke="black" points="162.11,-350.5 162.11,-370.5"/>
<text text-anchor="middle" x="175.44" y="-357.5" font-family="Times,serif" font-size="10.00">R</text>
</g>
<!-- ast_nodeL -->
<g id="node3" class="node">
<title>ast_nodeL</title>
<polygon fill="none" stroke="black" points="122,-267.5 122,-307.5 176,-307.5 176,-267.5 122,-267.5"/>
<text text-anchor="middle" x="148.89" y="-294.5" font-family="Times,serif" font-size="10.00">CALL</text>
<polyline fill="none" stroke="black" points="122,-287.5 175.78,-287.5"/>
<text text-anchor="middle" x="135.05" y="-274.5" font-family="Times,serif" font-size="10.00">L</text>
<polyline fill="none" stroke="black" points="148.11,-267.5 148.11,-287.5"/>
<text text-anchor="middle" x="161.94" y="-274.5" font-family="Times,serif" font-size="10.00">R</text>
</g>
<!-- ast_node&#45;&gt;ast_nodeL -->
<g id="edge6" class="edge">
<title>ast_node:L&#45;&gt;ast_nodeL:A</title>
<path fill="none" stroke="black" d="M149,-349.5C149,-335.52 149,-329.49 149,-319.36"/>
<polygon fill="black" stroke="black" points="152.5,-319.51 149,-309.51 145.5,-319.51 152.5,-319.51"/>
</g>
<!-- ast_nodeLL -->
<g id="node4" class="node">
<title>ast_nodeLL</title>
<polygon fill="none" stroke="black" points="86,-178.5 86,-230.5 140,-230.5 140,-178.5 86,-178.5"/>
<text text-anchor="middle" x="112.83" y="-217.5" font-family="Times,serif" font-size="10.00">ID</text>
<text text-anchor="middle" x="112.83" y="-205.5" font-family="Times,serif" font-size="10.00">SIGNAL</text>
<polyline fill="none" stroke="black" points="86,-198.5 139.66,-198.5"/>
<text text-anchor="middle" x="99.05" y="-185.5" font-family="Times,serif" font-size="10.00">L</text>
<polyline fill="none" stroke="black" points="112.11,-178.5 112.11,-198.5"/>
<text text-anchor="middle" x="125.44" y="-185.5" font-family="Times,serif" font-size="10.00">R</text>
</g>
<!-- ast_nodeL&#45;&gt;ast_nodeLL -->
<g id="edge1" class="edge">
<title>ast_nodeL:L&#45;&gt;ast_nodeLL:A</title>
<path fill="none" stroke="black" d="M135,-267C135,-252.94 122.62,-250.27 116.43,-241.9"/>
<polygon fill="black" stroke="black" points="119.8,-240.93 113.45,-232.44 113.12,-243.03 119.8,-240.93"/>
</g>
<!-- ast_nodeLR -->
<g id="node5" class="node">
<title>ast_nodeLR</title>
<polygon fill="none" stroke="black" points="158,-184.5 158,-224.5 212,-224.5 212,-184.5 158,-184.5"/>
<text text-anchor="middle" x="184.95" y="-211.5" font-family="Times,serif" font-size="10.00">PARMS</text>
<polyline fill="none" stroke="black" points="158,-204.5 211.9,-204.5"/>
<text text-anchor="middle" x="171.05" y="-191.5" font-family="Times,serif" font-size="10.00">L</text>
<polyline fill="none" stroke="black" points="184.11,-184.5 184.11,-204.5"/>
<text text-anchor="middle" x="197.94" y="-191.5" font-family="Times,serif" font-size="10.00">R</text>
</g>
<!-- ast_nodeL&#45;&gt;ast_nodeLR -->
<g id="edge5" class="edge">
<title>ast_nodeL:R&#45;&gt;ast_nodeLR:A</title>
<path fill="none" stroke="black" d="M162,-267C162,-250.36 176.32,-247.27 182.36,-236.35"/>
<polygon fill="black" stroke="black" points="185.68,-237.51 184.64,-226.97 178.88,-235.86 185.68,-237.51"/>
</g>
<!-- ast_nodeLRL -->
<g id="node6" class="node">
<title>ast_nodeLRL</title>
<polygon fill="none" stroke="black" points="114.38,-89.5 114.38,-141.5 177.61,-141.5 177.61,-89.5 114.38,-89.5"/>
<text text-anchor="middle" x="146" y="-128.5" font-family="Times,serif" font-size="10.00">ID</text>
<text text-anchor="middle" x="146" y="-116.5" font-family="Times,serif" font-size="10.00">SIG_OPEN</text>
<polyline fill="none" stroke="black" points="114.38,-109.5 177.61,-109.5"/>
<text text-anchor="middle" x="129.94" y="-96.5" font-family="Times,serif" font-size="10.00">L</text>
<polyline fill="none" stroke="black" points="145.49,-89.5 145.49,-109.5"/>
<text text-anchor="middle" x="161.33" y="-96.5" font-family="Times,serif" font-size="10.00">R</text>
</g>
<!-- ast_nodeLR&#45;&gt;ast_nodeLRL -->
<g id="edge2" class="edge">
<title>ast_nodeLR:L&#45;&gt;ast_nodeLRL:A</title>
<path fill="none" stroke="black" d="M171,-183.5C171,-166.51 155.43,-163.9 148.86,-152.98"/>
<polygon fill="black" stroke="black" points="152.29,-152.25 146.38,-143.46 145.52,-154.02 152.29,-152.25"/>
</g>
<!-- ast_nodeLRR -->
<g id="node7" class="node">
<title>ast_nodeLRR</title>
<polygon fill="none" stroke="black" points="196,-95.5 196,-135.5 250,-135.5 250,-95.5 196,-95.5"/>
<text text-anchor="middle" x="222.95" y="-122.5" font-family="Times,serif" font-size="10.00">PARMS</text>
<polyline fill="none" stroke="black" points="196,-115.5 249.9,-115.5"/>
<text text-anchor="middle" x="209.05" y="-102.5" font-family="Times,serif" font-size="10.00">L</text>
<polyline fill="none" stroke="black" points="222.11,-95.5 222.11,-115.5"/>
<text text-anchor="middle" x="235.94" y="-102.5" font-family="Times,serif" font-size="10.00">R</text>
</g>
<!-- ast_nodeLR&#45;&gt;ast_nodeLRR -->
<g id="edge4" class="edge">
<title>ast_nodeLR:R&#45;&gt;ast_nodeLRR:A</title>
<path fill="none" stroke="black" d="M198,-183.5C198,-164.28 214.5,-160.88 220.69,-147.6"/>
<polygon fill="black" stroke="black" points="224.08,-148.48 222.69,-137.98 217.23,-147.06 224.08,-148.48"/>
</g>
<!-- ast_nodeLRRL -->
<g id="node8" class="node">
<title>ast_nodeLRRL</title>
<polygon fill="none" stroke="black" points="182,-0.5 182,-52.5 236,-52.5 236,-0.5 182,-0.5"/>
<text text-anchor="middle" x="208.89" y="-39.5" font-family="Times,serif" font-size="10.00">ID</text>
<text text-anchor="middle" x="208.89" y="-27.5" font-family="Times,serif" font-size="10.00">WIP1</text>
<polyline fill="none" stroke="black" points="182,-20.5 235.78,-20.5"/>
<text text-anchor="middle" x="195.05" y="-7.5" font-family="Times,serif" font-size="10.00">L</text>
<polyline fill="none" stroke="black" points="208.11,-0.5 208.11,-20.5"/>
<text text-anchor="middle" x="221.94" y="-7.5" font-family="Times,serif" font-size="10.00">R</text>
</g>
<!-- ast_nodeLRR&#45;&gt;ast_nodeLRRL -->
<g id="edge3" class="edge">
<title>ast_nodeLRR:L&#45;&gt;ast_nodeLRRL:A</title>
<path fill="none" stroke="black" d="M209,-94.5C209,-80.52 209,-74.49 209,-64.36"/>
<polygon fill="black" stroke="black" points="212.5,-64.51 209,-54.51 205.5,-64.51 212.5,-64.51"/>
</g>
<!-- code -->
<g id="node9" class="node">
<title>code</title>
<polygon fill="none" stroke="black" points="208.5,-344.5 208.5,-396.5 365.5,-396.5 365.5,-344.5 208.5,-344.5"/>
<polygon fill="none" stroke="black" points="220,-371.5 220,-389.5 355,-389.5 355,-371.5 220,-371.5"/>
<text text-anchor="start" x="277.78" y="-378.5" font-family="Times,serif" font-weight="bold" font-size="10.00">code</text>
<polygon fill="none" stroke="black" points="220,-351.5 220,-369.5 355,-369.5 355,-351.5 220,-351.5"/>
<text text-anchor="start" x="223" y="-357.5" font-family="Times,serif" font-size="10.00" fill="blue"> &#160;&#160;&#160;SIGNAL(WIP1,SIG_OPEN);</text>
<polygon fill="none" stroke="black" points="216.5,-348.5 216.5,-392.5 357.5,-392.5 357.5,-348.5 216.5,-348.5"/>
</g>
</g>
</svg>
