<?xml version="1.0" encoding="UTF-8" standalone="no"?>
<!DOCTYPE svg PUBLIC "-//W3C//DTD SVG 1.1//EN"
 "http://www.w3.org/Graphics/SVG/1.1/DTD/svg11.dtd">
<!-- Generated by graphviz version 7.1.0 (20230121.1956)
 -->
<!-- Title: AbstractSyntaxTree Pages: 1 -->
<svg width="358pt" height="409pt"
 viewBox="0.00 0.00 357.84 409.00" xmlns="http://www.w3.org/2000/svg" xmlns:xlink="http://www.w3.org/1999/xlink">
<g id="graph0" class="graph" transform="scale(1 1) rotate(0) translate(4 405)">
<title>AbstractSyntaxTree</title>
<polygon fill="white" stroke="none" points="-4,4 -4,-405 353.84,-405 353.84,4 -4,4"/>
<!-- filename -->
<g id="node1" class="node">
<title>filename</title>
<polygon fill="none" stroke="black" points="0,-354.5 0,-390.5 118.67,-390.5 118.67,-354.5 0,-354.5"/>
<text text-anchor="middle" x="59.34" y="-368.9" font-family="Times,serif" font-size="12.00">S04_BLUSLIDER_2</text>
</g>
<!-- ast_node -->
<g id="node2" class="node">
<title>ast_node</title>
<polygon fill="none" stroke="black" points="136.34,-352.5 136.34,-392.5 190.34,-392.5 190.34,-352.5 136.34,-352.5"/>
<text text-anchor="middle" x="162.95" y="-379.5" font-family="Times,serif" font-size="10.00">STMTS</text>
<polyline fill="none" stroke="black" points="136.34,-372.5 189.57,-372.5"/>
<text text-anchor="middle" x="149.39" y="-359.5" font-family="Times,serif" font-size="10.00">L</text>
<polyline fill="none" stroke="black" points="162.45,-352.5 162.45,-372.5"/>
<text text-anchor="middle" x="175.78" y="-359.5" font-family="Times,serif" font-size="10.00">R</text>
</g>
<!-- ast_nodeL -->
<g id="node3" class="node">
<title>ast_nodeL</title>
<polygon fill="none" stroke="black" points="122.34,-267.5 122.34,-307.5 176.34,-307.5 176.34,-267.5 122.34,-267.5"/>
<text text-anchor="middle" x="149.23" y="-294.5" font-family="Times,serif" font-size="10.00">CALL</text>
<polyline fill="none" stroke="black" points="122.34,-287.5 176.12,-287.5"/>
<text text-anchor="middle" x="135.39" y="-274.5" font-family="Times,serif" font-size="10.00">L</text>
<polyline fill="none" stroke="black" points="148.45,-267.5 148.45,-287.5"/>
<text text-anchor="middle" x="162.28" y="-274.5" font-family="Times,serif" font-size="10.00">R</text>
</g>
<!-- ast_node&#45;&gt;ast_nodeL -->
<g id="edge6" class="edge">
<title>ast_node:L&#45;&gt;ast_nodeL:A</title>
<path fill="none" stroke="black" d="M149.34,-351.5C149.34,-336.55 149.34,-330.27 149.34,-319.25"/>
<polygon fill="black" stroke="black" points="152.84,-319.51 149.34,-309.51 145.84,-319.51 152.84,-319.51"/>
</g>
<!-- ast_nodeLL -->
<g id="node4" class="node">
<title>ast_nodeLL</title>
<polygon fill="none" stroke="black" points="86.34,-178.5 86.34,-230.5 140.34,-230.5 140.34,-178.5 86.34,-178.5"/>
<text text-anchor="middle" x="112.9" y="-217.5" font-family="Times,serif" font-size="10.00">ID</text>
<text text-anchor="middle" x="112.9" y="-205.5" font-family="Times,serif" font-size="10.00">ASSIGN</text>
<polyline fill="none" stroke="black" points="86.34,-198.5 139.46,-198.5"/>
<text text-anchor="middle" x="99.39" y="-185.5" font-family="Times,serif" font-size="10.00">L</text>
<polyline fill="none" stroke="black" points="112.45,-178.5 112.45,-198.5"/>
<text text-anchor="middle" x="125.78" y="-185.5" font-family="Times,serif" font-size="10.00">R</text>
</g>
<!-- ast_nodeL&#45;&gt;ast_nodeLL -->
<g id="edge1" class="edge">
<title>ast_nodeL:L&#45;&gt;ast_nodeLL:A</title>
<path fill="none" stroke="black" d="M135.34,-267C135.34,-252.94 122.96,-250.27 116.77,-241.9"/>
<polygon fill="black" stroke="black" points="120.14,-240.93 113.79,-232.44 113.46,-243.03 120.14,-240.93"/>
</g>
<!-- ast_nodeLR -->
<g id="node5" class="node">
<title>ast_nodeLR</title>
<polygon fill="none" stroke="black" points="158.34,-184.5 158.34,-224.5 212.34,-224.5 212.34,-184.5 158.34,-184.5"/>
<text text-anchor="middle" x="185.29" y="-211.5" font-family="Times,serif" font-size="10.00">PARMS</text>
<polyline fill="none" stroke="black" points="158.34,-204.5 212.24,-204.5"/>
<text text-anchor="middle" x="171.39" y="-191.5" font-family="Times,serif" font-size="10.00">L</text>
<polyline fill="none" stroke="black" points="184.45,-184.5 184.45,-204.5"/>
<text text-anchor="middle" x="198.28" y="-191.5" font-family="Times,serif" font-size="10.00">R</text>
</g>
<!-- ast_nodeL&#45;&gt;ast_nodeLR -->
<g id="edge5" class="edge">
<title>ast_nodeL:R&#45;&gt;ast_nodeLR:A</title>
<path fill="none" stroke="black" d="M162.34,-267C162.34,-250.36 176.66,-247.27 182.7,-236.35"/>
<polygon fill="black" stroke="black" points="186.02,-237.51 184.98,-226.97 179.22,-235.86 186.02,-237.51"/>
</g>
<!-- ast_nodeLRL -->
<g id="node6" class="node">
<title>ast_nodeLRL</title>
<polygon fill="none" stroke="black" points="122.34,-89.5 122.34,-141.5 176.34,-141.5 176.34,-89.5 122.34,-89.5"/>
<text text-anchor="middle" x="149.23" y="-128.5" font-family="Times,serif" font-size="10.00">INT</text>
<text text-anchor="middle" x="149.23" y="-116.5" font-family="Times,serif" font-size="10.00">0</text>
<polyline fill="none" stroke="black" points="122.34,-109.5 176.12,-109.5"/>
<text text-anchor="middle" x="135.39" y="-96.5" font-family="Times,serif" font-size="10.00">L</text>
<polyline fill="none" stroke="black" points="148.45,-89.5 148.45,-109.5"/>
<text text-anchor="middle" x="162.28" y="-96.5" font-family="Times,serif" font-size="10.00">R</text>
</g>
<!-- ast_nodeLR&#45;&gt;ast_nodeLRL -->
<g id="edge2" class="edge">
<title>ast_nodeLR:L&#45;&gt;ast_nodeLRL:A</title>
<path fill="none" stroke="black" d="M171.34,-183.5C171.34,-167.19 157.91,-163.78 152.03,-153.11"/>
<polygon fill="black" stroke="black" points="155.46,-152.36 149.69,-143.47 148.65,-154.01 155.46,-152.36"/>
</g>
<!-- ast_nodeLRR -->
<g id="node7" class="node">
<title>ast_nodeLRR</title>
<polygon fill="none" stroke="black" points="194.34,-95.5 194.34,-135.5 248.34,-135.5 248.34,-95.5 194.34,-95.5"/>
<text text-anchor="middle" x="221.29" y="-122.5" font-family="Times,serif" font-size="10.00">PARMS</text>
<polyline fill="none" stroke="black" points="194.34,-115.5 248.24,-115.5"/>
<text text-anchor="middle" x="207.39" y="-102.5" font-family="Times,serif" font-size="10.00">L</text>
<polyline fill="none" stroke="black" points="220.45,-95.5 220.45,-115.5"/>
<text text-anchor="middle" x="234.28" y="-102.5" font-family="Times,serif" font-size="10.00">R</text>
</g>
<!-- ast_nodeLR&#45;&gt;ast_nodeLRR -->
<g id="edge4" class="edge">
<title>ast_nodeLR:R&#45;&gt;ast_nodeLRR:A</title>
<path fill="none" stroke="black" d="M198.34,-183.5C198.34,-164.6 213.52,-160.74 219.21,-147.48"/>
<polygon fill="black" stroke="black" points="222.59,-148.47 221.05,-137.99 215.72,-147.14 222.59,-148.47"/>
</g>
<!-- ast_nodeLRRL -->
<g id="node8" class="node">
<title>ast_nodeLRRL</title>
<polygon fill="none" stroke="black" points="178.78,-0.5 178.78,-52.5 235.9,-52.5 235.9,-0.5 178.78,-0.5"/>
<text text-anchor="middle" x="207.34" y="-39.5" font-family="Times,serif" font-size="10.00">ID</text>
<text text-anchor="middle" x="207.34" y="-27.5" font-family="Times,serif" font-size="10.00">BFRAME</text>
<polyline fill="none" stroke="black" points="178.78,-20.5 235.9,-20.5"/>
<text text-anchor="middle" x="192.83" y="-7.5" font-family="Times,serif" font-size="10.00">L</text>
<polyline fill="none" stroke="black" points="206.88,-0.5 206.88,-20.5"/>
<text text-anchor="middle" x="221.22" y="-7.5" font-family="Times,serif" font-size="10.00">R</text>
</g>
<!-- ast_nodeLRR&#45;&gt;ast_nodeLRRL -->
<g id="edge3" class="edge">
<title>ast_nodeLRR:L&#45;&gt;ast_nodeLRRL:A</title>
<path fill="none" stroke="black" d="M207.34,-94.5C207.34,-80.52 207.34,-74.49 207.34,-64.36"/>
<polygon fill="black" stroke="black" points="210.84,-64.51 207.34,-54.51 203.84,-64.51 210.84,-64.51"/>
</g>
<!-- code -->
<g id="node9" class="node">
<title>code</title>
<polygon fill="none" stroke="black" points="208.84,-344.5 208.84,-400.5 349.84,-400.5 349.84,-344.5 208.84,-344.5"/>
<polygon fill="none" stroke="black" points="220.34,-373.5 220.34,-393.5 339.34,-393.5 339.34,-373.5 220.34,-373.5"/>
<text text-anchor="start" x="265.43" y="-380.7" font-family="Courier New" font-weight="bold" font-size="12.00">code</text>
<polygon fill="none" stroke="black" points="220.34,-351.5 220.34,-371.5 339.34,-371.5 339.34,-351.5 220.34,-351.5"/>
<text text-anchor="start" x="223.34" y="-357.7" font-family="Times,serif" font-size="12.00" fill="blue">ASSIGN(BFRAME,0);</text>
<polygon fill="none" stroke="black" points="216.84,-348.5 216.84,-396.5 341.84,-396.5 341.84,-348.5 216.84,-348.5"/>
</g>
</g>
</svg>
