<?xml version="1.0" encoding="UTF-8" standalone="no"?>
<!DOCTYPE svg PUBLIC "-//W3C//DTD SVG 1.1//EN"
 "http://www.w3.org/Graphics/SVG/1.1/DTD/svg11.dtd">
<!-- Generated by graphviz version 7.1.0 (20230121.1956)
 -->
<!-- Title: AbstractSyntaxTree Pages: 1 -->
<svg width="894pt" height="761pt"
 viewBox="0.00 0.00 893.56 761.00" xmlns="http://www.w3.org/2000/svg" xmlns:xlink="http://www.w3.org/1999/xlink">
<g id="graph0" class="graph" transform="scale(1 1) rotate(0) translate(4 757)">
<title>AbstractSyntaxTree</title>
<polygon fill="white" stroke="none" points="-4,4 -4,-757 889.56,-757 889.56,4 -4,4"/>
<!-- filename -->
<g id="node1" class="node">
<title>filename</title>
<polygon fill="none" stroke="black" points="1.23,-708.5 1.23,-744.5 145.89,-744.5 145.89,-708.5 1.23,-708.5"/>
<text text-anchor="middle" x="73.56" y="-722.9" font-family="Times,serif" font-size="12.00">S06_CYCLE_VIEWER_4</text>
</g>
<!-- ast_node -->
<g id="node2" class="node">
<title>ast_node</title>
<polygon fill="none" stroke="black" points="163.56,-706.5 163.56,-746.5 217.56,-746.5 217.56,-706.5 163.56,-706.5"/>
<text text-anchor="middle" x="190.18" y="-733.5" font-family="Times,serif" font-size="10.00">STMTS</text>
<polyline fill="none" stroke="black" points="163.56,-726.5 216.8,-726.5"/>
<text text-anchor="middle" x="176.62" y="-713.5" font-family="Times,serif" font-size="10.00">L</text>
<polyline fill="none" stroke="black" points="189.67,-706.5 189.67,-726.5"/>
<text text-anchor="middle" x="203.01" y="-713.5" font-family="Times,serif" font-size="10.00">R</text>
</g>
<!-- ast_nodeL -->
<g id="node3" class="node">
<title>ast_nodeL</title>
<polygon fill="none" stroke="black" points="99.56,-623.5 99.56,-663.5 153.56,-663.5 153.56,-623.5 99.56,-623.5"/>
<text text-anchor="middle" x="126.45" y="-650.5" font-family="Times,serif" font-size="10.00">CALL</text>
<polyline fill="none" stroke="black" points="99.56,-643.5 153.34,-643.5"/>
<text text-anchor="middle" x="112.62" y="-630.5" font-family="Times,serif" font-size="10.00">L</text>
<polyline fill="none" stroke="black" points="125.67,-623.5 125.67,-643.5"/>
<text text-anchor="middle" x="139.51" y="-630.5" font-family="Times,serif" font-size="10.00">R</text>
</g>
<!-- ast_node&#45;&gt;ast_nodeL -->
<g id="edge6" class="edge">
<title>ast_node:L&#45;&gt;ast_nodeL:A</title>
<path fill="none" stroke="black" d="M176.56,-705.5C176.56,-684.91 178.65,-663.11 165.54,-655.94"/>
<polygon fill="black" stroke="black" points="166.56,-652.58 156.04,-653.83 165.04,-659.41 166.56,-652.58"/>
</g>
<!-- ast_nodeR -->
<g id="node9" class="node">
<title>ast_nodeR</title>
<polygon fill="none" stroke="black" points="247.56,-623.5 247.56,-663.5 301.56,-663.5 301.56,-623.5 247.56,-623.5"/>
<text text-anchor="middle" x="274.18" y="-650.5" font-family="Times,serif" font-size="10.00">STMTS</text>
<polyline fill="none" stroke="black" points="247.56,-643.5 300.8,-643.5"/>
<text text-anchor="middle" x="260.62" y="-630.5" font-family="Times,serif" font-size="10.00">L</text>
<polyline fill="none" stroke="black" points="273.67,-623.5 273.67,-643.5"/>
<text text-anchor="middle" x="287.01" y="-630.5" font-family="Times,serif" font-size="10.00">R</text>
</g>
<!-- ast_node&#45;&gt;ast_nodeR -->
<g id="edge32" class="edge">
<title>ast_node:R&#45;&gt;ast_nodeR:A</title>
<path fill="none" stroke="black" d="M217.56,-716.5C220.45,-716.5 233.15,-681.06 240.95,-663.34"/>
<polygon fill="black" stroke="black" points="243.9,-665.24 245.81,-654.81 237.82,-661.77 243.9,-665.24"/>
</g>
<!-- ast_nodeLL -->
<g id="node4" class="node">
<title>ast_nodeLL</title>
<polygon fill="none" stroke="black" points="40.56,-534.5 40.56,-586.5 94.56,-586.5 94.56,-534.5 40.56,-534.5"/>
<text text-anchor="middle" x="67.45" y="-573.5" font-family="Times,serif" font-size="10.00">ID</text>
<text text-anchor="middle" x="67.45" y="-561.5" font-family="Times,serif" font-size="10.00">MAPi</text>
<polyline fill="none" stroke="black" points="40.56,-554.5 94.34,-554.5"/>
<text text-anchor="middle" x="53.62" y="-541.5" font-family="Times,serif" font-size="10.00">L</text>
<polyline fill="none" stroke="black" points="66.67,-534.5 66.67,-554.5"/>
<text text-anchor="middle" x="80.51" y="-541.5" font-family="Times,serif" font-size="10.00">R</text>
</g>
<!-- ast_nodeL&#45;&gt;ast_nodeLL -->
<g id="edge1" class="edge">
<title>ast_nodeL:L&#45;&gt;ast_nodeLL:A</title>
<path fill="none" stroke="black" d="M112.56,-623C112.56,-620.82 105.52,-595.2 100.35,-580.58"/>
<polygon fill="black" stroke="black" points="103.66,-579.4 96.21,-571.87 97.34,-582.4 103.66,-579.4"/>
</g>
<!-- ast_nodeLR -->
<g id="node5" class="node">
<title>ast_nodeLR</title>
<polygon fill="none" stroke="black" points="112.56,-540.5 112.56,-580.5 166.56,-580.5 166.56,-540.5 112.56,-540.5"/>
<text text-anchor="middle" x="139.52" y="-567.5" font-family="Times,serif" font-size="10.00">PARMS</text>
<polyline fill="none" stroke="black" points="112.56,-560.5 166.47,-560.5"/>
<text text-anchor="middle" x="125.62" y="-547.5" font-family="Times,serif" font-size="10.00">L</text>
<polyline fill="none" stroke="black" points="138.67,-540.5 138.67,-560.5"/>
<text text-anchor="middle" x="152.51" y="-547.5" font-family="Times,serif" font-size="10.00">R</text>
</g>
<!-- ast_nodeL&#45;&gt;ast_nodeLR -->
<g id="edge5" class="edge">
<title>ast_nodeL:R&#45;&gt;ast_nodeLR:A</title>
<path fill="none" stroke="black" d="M139.56,-623C139.56,-609.02 139.56,-602.99 139.56,-592.86"/>
<polygon fill="black" stroke="black" points="143.06,-593.01 139.56,-583.01 136.06,-593.01 143.06,-593.01"/>
</g>
<!-- ast_nodeLRL -->
<g id="node6" class="node">
<title>ast_nodeLRL</title>
<polygon fill="none" stroke="black" points="0,-445.5 0,-497.5 107.13,-497.5 107.13,-445.5 0,-445.5"/>
<text text-anchor="middle" x="53.56" y="-484.5" font-family="Times,serif" font-size="10.00">ID</text>
<text text-anchor="middle" x="53.56" y="-472.5" font-family="Times,serif" font-size="10.00">S06_MAN_OBJECTS</text>
<polyline fill="none" stroke="black" points="0,-465.5 107.13,-465.5"/>
<text text-anchor="middle" x="26.55" y="-452.5" font-family="Times,serif" font-size="10.00">L</text>
<polyline fill="none" stroke="black" points="53.11,-445.5 53.11,-465.5"/>
<text text-anchor="middle" x="79.94" y="-452.5" font-family="Times,serif" font-size="10.00">R</text>
</g>
<!-- ast_nodeLR&#45;&gt;ast_nodeLRL -->
<g id="edge2" class="edge">
<title>ast_nodeLR:L&#45;&gt;ast_nodeLRL:A</title>
<path fill="none" stroke="black" d="M111.56,-550.5C99.93,-550.5 113.02,-510.87 113.36,-491.68"/>
<polygon fill="black" stroke="black" points="116.64,-490.42 109.21,-482.87 110.31,-493.41 116.64,-490.42"/>
</g>
<!-- ast_nodeLRR -->
<g id="node7" class="node">
<title>ast_nodeLRR</title>
<polygon fill="none" stroke="black" points="125.56,-451.5 125.56,-491.5 179.56,-491.5 179.56,-451.5 125.56,-451.5"/>
<text text-anchor="middle" x="152.52" y="-478.5" font-family="Times,serif" font-size="10.00">PARMS</text>
<polyline fill="none" stroke="black" points="125.56,-471.5 179.47,-471.5"/>
<text text-anchor="middle" x="138.62" y="-458.5" font-family="Times,serif" font-size="10.00">L</text>
<polyline fill="none" stroke="black" points="151.67,-451.5 151.67,-471.5"/>
<text text-anchor="middle" x="165.51" y="-458.5" font-family="Times,serif" font-size="10.00">R</text>
</g>
<!-- ast_nodeLR&#45;&gt;ast_nodeLRR -->
<g id="edge4" class="edge">
<title>ast_nodeLR:R&#45;&gt;ast_nodeLRR:A</title>
<path fill="none" stroke="black" d="M152.56,-539.5C152.56,-523.02 152.56,-516.29 152.56,-503.92"/>
<polygon fill="black" stroke="black" points="156.06,-504.01 152.56,-494.01 149.06,-504.01 156.06,-504.01"/>
</g>
<!-- ast_nodeLRRL -->
<g id="node8" class="node">
<title>ast_nodeLRRL</title>
<polygon fill="none" stroke="black" points="107.51,-356.5 107.51,-408.5 169.62,-408.5 169.62,-356.5 107.51,-356.5"/>
<text text-anchor="middle" x="138.56" y="-395.5" font-family="Times,serif" font-size="10.00">ID</text>
<text text-anchor="middle" x="138.56" y="-383.5" font-family="Times,serif" font-size="10.00">WOBJECT</text>
<polyline fill="none" stroke="black" points="107.51,-376.5 169.62,-376.5"/>
<text text-anchor="middle" x="122.56" y="-363.5" font-family="Times,serif" font-size="10.00">L</text>
<polyline fill="none" stroke="black" points="137.62,-356.5 137.62,-376.5"/>
<text text-anchor="middle" x="153.45" y="-363.5" font-family="Times,serif" font-size="10.00">R</text>
</g>
<!-- ast_nodeLRR&#45;&gt;ast_nodeLRRL -->
<g id="edge3" class="edge">
<title>ast_nodeLRR:L&#45;&gt;ast_nodeLRRL:A</title>
<path fill="none" stroke="black" d="M138.56,-450.5C138.56,-436.52 138.56,-430.49 138.56,-420.36"/>
<polygon fill="black" stroke="black" points="142.06,-420.51 138.56,-410.51 135.06,-420.51 142.06,-420.51"/>
</g>
<!-- ast_nodeRL -->
<g id="node10" class="node">
<title>ast_nodeRL</title>
<polygon fill="none" stroke="black" points="233.56,-540.5 233.56,-580.5 287.56,-580.5 287.56,-540.5 233.56,-540.5"/>
<text text-anchor="middle" x="260.45" y="-567.5" font-family="Times,serif" font-size="10.00">CALL</text>
<polyline fill="none" stroke="black" points="233.56,-560.5 287.34,-560.5"/>
<text text-anchor="middle" x="246.62" y="-547.5" font-family="Times,serif" font-size="10.00">L</text>
<polyline fill="none" stroke="black" points="259.67,-540.5 259.67,-560.5"/>
<text text-anchor="middle" x="273.51" y="-547.5" font-family="Times,serif" font-size="10.00">R</text>
</g>
<!-- ast_nodeR&#45;&gt;ast_nodeRL -->
<g id="edge10" class="edge">
<title>ast_nodeR:L&#45;&gt;ast_nodeRL:A</title>
<path fill="none" stroke="black" d="M260.56,-623C260.56,-609.02 260.56,-602.99 260.56,-592.86"/>
<polygon fill="black" stroke="black" points="264.06,-593.01 260.56,-583.01 257.06,-593.01 264.06,-593.01"/>
</g>
<!-- ast_nodeRR -->
<g id="node14" class="node">
<title>ast_nodeRR</title>
<polygon fill="none" stroke="black" points="379.56,-540.5 379.56,-580.5 433.56,-580.5 433.56,-540.5 379.56,-540.5"/>
<text text-anchor="middle" x="406.18" y="-567.5" font-family="Times,serif" font-size="10.00">STMTS</text>
<polyline fill="none" stroke="black" points="379.56,-560.5 432.8,-560.5"/>
<text text-anchor="middle" x="392.62" y="-547.5" font-family="Times,serif" font-size="10.00">L</text>
<polyline fill="none" stroke="black" points="405.67,-540.5 405.67,-560.5"/>
<text text-anchor="middle" x="419.01" y="-547.5" font-family="Times,serif" font-size="10.00">R</text>
</g>
<!-- ast_nodeR&#45;&gt;ast_nodeRR -->
<g id="edge31" class="edge">
<title>ast_nodeR:R&#45;&gt;ast_nodeRR:A</title>
<path fill="none" stroke="black" d="M301.56,-633.5C341.64,-633.5 336,-581.76 367.5,-572.06"/>
<polygon fill="black" stroke="black" points="367.65,-575.57 377.07,-570.71 366.67,-568.64 367.65,-575.57"/>
</g>
<!-- ast_nodeRLL -->
<g id="node11" class="node">
<title>ast_nodeRLL</title>
<polygon fill="none" stroke="black" points="197.56,-445.5 197.56,-497.5 251.56,-497.5 251.56,-445.5 197.56,-445.5"/>
<text text-anchor="middle" x="224.4" y="-484.5" font-family="Times,serif" font-size="10.00">ID</text>
<text text-anchor="middle" x="224.4" y="-472.5" font-family="Times,serif" font-size="10.00">ASHOW</text>
<polyline fill="none" stroke="black" points="197.56,-465.5 251.23,-465.5"/>
<text text-anchor="middle" x="210.62" y="-452.5" font-family="Times,serif" font-size="10.00">L</text>
<polyline fill="none" stroke="black" points="223.67,-445.5 223.67,-465.5"/>
<text text-anchor="middle" x="237.01" y="-452.5" font-family="Times,serif" font-size="10.00">R</text>
</g>
<!-- ast_nodeRL&#45;&gt;ast_nodeRLL -->
<g id="edge7" class="edge">
<title>ast_nodeRL:L&#45;&gt;ast_nodeRLL:A</title>
<path fill="none" stroke="black" d="M246.56,-539.5C246.56,-523.19 233.14,-519.78 227.26,-509.11"/>
<polygon fill="black" stroke="black" points="230.68,-508.36 224.92,-499.47 223.88,-510.01 230.68,-508.36"/>
</g>
<!-- ast_nodeRLR -->
<g id="node12" class="node">
<title>ast_nodeRLR</title>
<polygon fill="none" stroke="black" points="269.56,-451.5 269.56,-491.5 323.56,-491.5 323.56,-451.5 269.56,-451.5"/>
<text text-anchor="middle" x="296.52" y="-478.5" font-family="Times,serif" font-size="10.00">PARMS</text>
<polyline fill="none" stroke="black" points="269.56,-471.5 323.47,-471.5"/>
<text text-anchor="middle" x="282.62" y="-458.5" font-family="Times,serif" font-size="10.00">L</text>
<polyline fill="none" stroke="black" points="295.67,-451.5 295.67,-471.5"/>
<text text-anchor="middle" x="309.51" y="-458.5" font-family="Times,serif" font-size="10.00">R</text>
</g>
<!-- ast_nodeRL&#45;&gt;ast_nodeRLR -->
<g id="edge9" class="edge">
<title>ast_nodeRL:R&#45;&gt;ast_nodeRLR:A</title>
<path fill="none" stroke="black" d="M273.56,-539.5C273.56,-520.6 288.75,-516.74 294.44,-503.48"/>
<polygon fill="black" stroke="black" points="297.82,-504.47 296.28,-493.99 290.94,-503.14 297.82,-504.47"/>
</g>
<!-- ast_nodeRLRL -->
<g id="node13" class="node">
<title>ast_nodeRLRL</title>
<polygon fill="none" stroke="black" points="238.51,-356.5 238.51,-408.5 300.62,-408.5 300.62,-356.5 238.51,-356.5"/>
<text text-anchor="middle" x="269.56" y="-395.5" font-family="Times,serif" font-size="10.00">ID</text>
<text text-anchor="middle" x="269.56" y="-383.5" font-family="Times,serif" font-size="10.00">WOBJECT</text>
<polyline fill="none" stroke="black" points="238.51,-376.5 300.62,-376.5"/>
<text text-anchor="middle" x="253.56" y="-363.5" font-family="Times,serif" font-size="10.00">L</text>
<polyline fill="none" stroke="black" points="268.62,-356.5 268.62,-376.5"/>
<text text-anchor="middle" x="284.45" y="-363.5" font-family="Times,serif" font-size="10.00">R</text>
</g>
<!-- ast_nodeRLR&#45;&gt;ast_nodeRLRL -->
<g id="edge8" class="edge">
<title>ast_nodeRLR:L&#45;&gt;ast_nodeRLRL:A</title>
<path fill="none" stroke="black" d="M282.56,-450.5C282.56,-435.7 274.94,-430.57 271.37,-420.3"/>
<polygon fill="black" stroke="black" points="274.84,-419.82 269.8,-410.49 267.93,-420.92 274.84,-419.82"/>
</g>
<!-- ast_nodeRRL -->
<g id="node15" class="node">
<title>ast_nodeRRL</title>
<polygon fill="none" stroke="black" points="365.56,-451.5 365.56,-491.5 419.56,-491.5 419.56,-451.5 365.56,-451.5"/>
<text text-anchor="middle" x="392.45" y="-478.5" font-family="Times,serif" font-size="10.00">CALL</text>
<polyline fill="none" stroke="black" points="365.56,-471.5 419.34,-471.5"/>
<text text-anchor="middle" x="378.62" y="-458.5" font-family="Times,serif" font-size="10.00">L</text>
<polyline fill="none" stroke="black" points="391.67,-451.5 391.67,-471.5"/>
<text text-anchor="middle" x="405.51" y="-458.5" font-family="Times,serif" font-size="10.00">R</text>
</g>
<!-- ast_nodeRR&#45;&gt;ast_nodeRRL -->
<g id="edge16" class="edge">
<title>ast_nodeRR:L&#45;&gt;ast_nodeRRL:A</title>
<path fill="none" stroke="black" d="M392.56,-539.5C392.56,-523.02 392.56,-516.29 392.56,-503.92"/>
<polygon fill="black" stroke="black" points="396.06,-504.01 392.56,-494.01 389.06,-504.01 396.06,-504.01"/>
</g>
<!-- ast_nodeRRR -->
<g id="node21" class="node">
<title>ast_nodeRRR</title>
<polygon fill="none" stroke="black" points="525.56,-451.5 525.56,-491.5 579.56,-491.5 579.56,-451.5 525.56,-451.5"/>
<text text-anchor="middle" x="552.18" y="-478.5" font-family="Times,serif" font-size="10.00">STMTS</text>
<polyline fill="none" stroke="black" points="525.56,-471.5 578.8,-471.5"/>
<text text-anchor="middle" x="538.62" y="-458.5" font-family="Times,serif" font-size="10.00">L</text>
<polyline fill="none" stroke="black" points="551.67,-451.5 551.67,-471.5"/>
<text text-anchor="middle" x="565.01" y="-458.5" font-family="Times,serif" font-size="10.00">R</text>
</g>
<!-- ast_nodeRR&#45;&gt;ast_nodeRRR -->
<g id="edge30" class="edge">
<title>ast_nodeRR:R&#45;&gt;ast_nodeRRR:A</title>
<path fill="none" stroke="black" d="M433.56,-550.5C480.16,-550.5 475.12,-492.36 513.24,-482.82"/>
<polygon fill="black" stroke="black" points="513.53,-486.31 523.06,-481.67 512.72,-479.35 513.53,-486.31"/>
</g>
<!-- ast_nodeRRLL -->
<g id="node16" class="node">
<title>ast_nodeRRLL</title>
<polygon fill="none" stroke="black" points="318.56,-356.5 318.56,-408.5 372.56,-408.5 372.56,-356.5 318.56,-356.5"/>
<text text-anchor="middle" x="345.4" y="-395.5" font-family="Times,serif" font-size="10.00">ID</text>
<text text-anchor="middle" x="345.4" y="-383.5" font-family="Times,serif" font-size="10.00">SIGNAL</text>
<polyline fill="none" stroke="black" points="318.56,-376.5 372.23,-376.5"/>
<text text-anchor="middle" x="331.62" y="-363.5" font-family="Times,serif" font-size="10.00">L</text>
<polyline fill="none" stroke="black" points="344.67,-356.5 344.67,-376.5"/>
<text text-anchor="middle" x="358.01" y="-363.5" font-family="Times,serif" font-size="10.00">R</text>
</g>
<!-- ast_nodeRRL&#45;&gt;ast_nodeRRLL -->
<g id="edge11" class="edge">
<title>ast_nodeRRL:L&#45;&gt;ast_nodeRRLL:A</title>
<path fill="none" stroke="black" d="M378.56,-450.5C378.56,-431.54 357.2,-431.48 348.85,-419.9"/>
<polygon fill="black" stroke="black" points="352.24,-419.01 346,-410.45 345.53,-421.03 352.24,-419.01"/>
</g>
<!-- ast_nodeRRLR -->
<g id="node17" class="node">
<title>ast_nodeRRLR</title>
<polygon fill="none" stroke="black" points="390.56,-362.5 390.56,-402.5 444.56,-402.5 444.56,-362.5 390.56,-362.5"/>
<text text-anchor="middle" x="417.52" y="-389.5" font-family="Times,serif" font-size="10.00">PARMS</text>
<polyline fill="none" stroke="black" points="390.56,-382.5 444.47,-382.5"/>
<text text-anchor="middle" x="403.62" y="-369.5" font-family="Times,serif" font-size="10.00">L</text>
<polyline fill="none" stroke="black" points="416.67,-362.5 416.67,-382.5"/>
<text text-anchor="middle" x="430.51" y="-369.5" font-family="Times,serif" font-size="10.00">R</text>
</g>
<!-- ast_nodeRRL&#45;&gt;ast_nodeRRLR -->
<g id="edge15" class="edge">
<title>ast_nodeRRL:R&#45;&gt;ast_nodeRRLR:A</title>
<path fill="none" stroke="black" d="M405.56,-450.5C405.56,-433.32 413.18,-427.37 416.28,-414.75"/>
<polygon fill="black" stroke="black" points="419.73,-415.34 417.39,-405 412.78,-414.54 419.73,-415.34"/>
</g>
<!-- ast_nodeRRLRL -->
<g id="node18" class="node">
<title>ast_nodeRRLRL</title>
<polygon fill="none" stroke="black" points="323.51,-267.5 323.51,-319.5 385.62,-319.5 385.62,-267.5 323.51,-267.5"/>
<text text-anchor="middle" x="354.56" y="-306.5" font-family="Times,serif" font-size="10.00">ID</text>
<text text-anchor="middle" x="354.56" y="-294.5" font-family="Times,serif" font-size="10.00">SIG_DEC1</text>
<polyline fill="none" stroke="black" points="323.51,-287.5 385.62,-287.5"/>
<text text-anchor="middle" x="338.56" y="-274.5" font-family="Times,serif" font-size="10.00">L</text>
<polyline fill="none" stroke="black" points="353.62,-267.5 353.62,-287.5"/>
<text text-anchor="middle" x="369.45" y="-274.5" font-family="Times,serif" font-size="10.00">R</text>
</g>
<!-- ast_nodeRRLR&#45;&gt;ast_nodeRRLRL -->
<g id="edge12" class="edge">
<title>ast_nodeRRLR:L&#45;&gt;ast_nodeRRLRL:A</title>
<path fill="none" stroke="black" d="M403.56,-361.5C403.56,-359.07 396.44,-329.86 391.22,-313.85"/>
<polygon fill="black" stroke="black" points="394.48,-312.56 387.19,-304.88 388.1,-315.44 394.48,-312.56"/>
</g>
<!-- ast_nodeRRLRR -->
<g id="node19" class="node">
<title>ast_nodeRRLRR</title>
<polygon fill="none" stroke="black" points="403.56,-273.5 403.56,-313.5 457.56,-313.5 457.56,-273.5 403.56,-273.5"/>
<text text-anchor="middle" x="430.52" y="-300.5" font-family="Times,serif" font-size="10.00">PARMS</text>
<polyline fill="none" stroke="black" points="403.56,-293.5 457.47,-293.5"/>
<text text-anchor="middle" x="416.62" y="-280.5" font-family="Times,serif" font-size="10.00">L</text>
<polyline fill="none" stroke="black" points="429.67,-273.5 429.67,-293.5"/>
<text text-anchor="middle" x="443.51" y="-280.5" font-family="Times,serif" font-size="10.00">R</text>
</g>
<!-- ast_nodeRRLR&#45;&gt;ast_nodeRRLRR -->
<g id="edge14" class="edge">
<title>ast_nodeRRLR:R&#45;&gt;ast_nodeRRLRR:A</title>
<path fill="none" stroke="black" d="M430.56,-361.5C430.56,-345.02 430.56,-338.29 430.56,-325.92"/>
<polygon fill="black" stroke="black" points="434.06,-326.01 430.56,-316.01 427.06,-326.01 434.06,-326.01"/>
</g>
<!-- ast_nodeRRLRRL -->
<g id="node20" class="node">
<title>ast_nodeRRLRRL</title>
<polygon fill="none" stroke="black" points="389.56,-178.5 389.56,-230.5 443.56,-230.5 443.56,-178.5 389.56,-178.5"/>
<text text-anchor="middle" x="416.45" y="-217.5" font-family="Times,serif" font-size="10.00">ID</text>
<text text-anchor="middle" x="416.45" y="-205.5" font-family="Times,serif" font-size="10.00">WIP1</text>
<polyline fill="none" stroke="black" points="389.56,-198.5 443.34,-198.5"/>
<text text-anchor="middle" x="402.62" y="-185.5" font-family="Times,serif" font-size="10.00">L</text>
<polyline fill="none" stroke="black" points="415.67,-178.5 415.67,-198.5"/>
<text text-anchor="middle" x="429.51" y="-185.5" font-family="Times,serif" font-size="10.00">R</text>
</g>
<!-- ast_nodeRRLRR&#45;&gt;ast_nodeRRLRRL -->
<g id="edge13" class="edge">
<title>ast_nodeRRLRR:L&#45;&gt;ast_nodeRRLRRL:A</title>
<path fill="none" stroke="black" d="M416.56,-272.5C416.56,-258.52 416.56,-252.49 416.56,-242.36"/>
<polygon fill="black" stroke="black" points="420.06,-242.51 416.56,-232.51 413.06,-242.51 420.06,-242.51"/>
</g>
<!-- ast_nodeRRRL -->
<g id="node22" class="node">
<title>ast_nodeRRRL</title>
<polygon fill="none" stroke="black" points="511.56,-362.5 511.56,-402.5 565.56,-402.5 565.56,-362.5 511.56,-362.5"/>
<text text-anchor="middle" x="538.45" y="-389.5" font-family="Times,serif" font-size="10.00">CALL</text>
<polyline fill="none" stroke="black" points="511.56,-382.5 565.34,-382.5"/>
<text text-anchor="middle" x="524.62" y="-369.5" font-family="Times,serif" font-size="10.00">L</text>
<polyline fill="none" stroke="black" points="537.67,-362.5 537.67,-382.5"/>
<text text-anchor="middle" x="551.51" y="-369.5" font-family="Times,serif" font-size="10.00">R</text>
</g>
<!-- ast_nodeRRR&#45;&gt;ast_nodeRRRL -->
<g id="edge22" class="edge">
<title>ast_nodeRRR:L&#45;&gt;ast_nodeRRRL:A</title>
<path fill="none" stroke="black" d="M538.56,-450.5C538.56,-434.02 538.56,-427.29 538.56,-414.92"/>
<polygon fill="black" stroke="black" points="542.06,-415.01 538.56,-405.01 535.06,-415.01 542.06,-415.01"/>
</g>
<!-- ast_nodeRRRR -->
<g id="node28" class="node">
<title>ast_nodeRRRR</title>
<polygon fill="none" stroke="black" points="632.56,-362.5 632.56,-402.5 686.56,-402.5 686.56,-362.5 632.56,-362.5"/>
<text text-anchor="middle" x="659.18" y="-389.5" font-family="Times,serif" font-size="10.00">STMTS</text>
<polyline fill="none" stroke="black" points="632.56,-382.5 685.8,-382.5"/>
<text text-anchor="middle" x="645.62" y="-369.5" font-family="Times,serif" font-size="10.00">L</text>
<polyline fill="none" stroke="black" points="658.67,-362.5 658.67,-382.5"/>
<text text-anchor="middle" x="672.01" y="-369.5" font-family="Times,serif" font-size="10.00">R</text>
</g>
<!-- ast_nodeRRR&#45;&gt;ast_nodeRRRR -->
<g id="edge29" class="edge">
<title>ast_nodeRRR:R&#45;&gt;ast_nodeRRRR:A</title>
<path fill="none" stroke="black" d="M579.56,-461.5C613.46,-461.5 598.11,-407.72 620.46,-395.12"/>
<polygon fill="black" stroke="black" points="621.16,-398.55 630.09,-392.85 619.55,-391.74 621.16,-398.55"/>
</g>
<!-- ast_nodeRRRLL -->
<g id="node23" class="node">
<title>ast_nodeRRRLL</title>
<polygon fill="none" stroke="black" points="475.56,-267.5 475.56,-319.5 529.56,-319.5 529.56,-267.5 475.56,-267.5"/>
<text text-anchor="middle" x="502.4" y="-306.5" font-family="Times,serif" font-size="10.00">ID</text>
<text text-anchor="middle" x="502.4" y="-294.5" font-family="Times,serif" font-size="10.00">SIGNAL</text>
<polyline fill="none" stroke="black" points="475.56,-287.5 529.23,-287.5"/>
<text text-anchor="middle" x="488.62" y="-274.5" font-family="Times,serif" font-size="10.00">L</text>
<polyline fill="none" stroke="black" points="501.67,-267.5 501.67,-287.5"/>
<text text-anchor="middle" x="515.01" y="-274.5" font-family="Times,serif" font-size="10.00">R</text>
</g>
<!-- ast_nodeRRRL&#45;&gt;ast_nodeRRRLL -->
<g id="edge17" class="edge">
<title>ast_nodeRRRL:L&#45;&gt;ast_nodeRRRLL:A</title>
<path fill="none" stroke="black" d="M524.56,-361.5C524.56,-345.19 511.14,-341.78 505.26,-331.11"/>
<polygon fill="black" stroke="black" points="508.68,-330.36 502.92,-321.47 501.88,-332.01 508.68,-330.36"/>
</g>
<!-- ast_nodeRRRLR -->
<g id="node24" class="node">
<title>ast_nodeRRRLR</title>
<polygon fill="none" stroke="black" points="547.56,-273.5 547.56,-313.5 601.56,-313.5 601.56,-273.5 547.56,-273.5"/>
<text text-anchor="middle" x="574.52" y="-300.5" font-family="Times,serif" font-size="10.00">PARMS</text>
<polyline fill="none" stroke="black" points="547.56,-293.5 601.47,-293.5"/>
<text text-anchor="middle" x="560.62" y="-280.5" font-family="Times,serif" font-size="10.00">L</text>
<polyline fill="none" stroke="black" points="573.67,-273.5 573.67,-293.5"/>
<text text-anchor="middle" x="587.51" y="-280.5" font-family="Times,serif" font-size="10.00">R</text>
</g>
<!-- ast_nodeRRRL&#45;&gt;ast_nodeRRRLR -->
<g id="edge21" class="edge">
<title>ast_nodeRRRL:R&#45;&gt;ast_nodeRRRLR:A</title>
<path fill="none" stroke="black" d="M551.56,-361.5C551.56,-342.6 566.75,-338.74 572.44,-325.48"/>
<polygon fill="black" stroke="black" points="575.82,-326.47 574.28,-315.99 568.94,-325.14 575.82,-326.47"/>
</g>
<!-- ast_nodeRRRLRL -->
<g id="node25" class="node">
<title>ast_nodeRRRLRL</title>
<polygon fill="none" stroke="black" points="480.51,-178.5 480.51,-230.5 542.62,-230.5 542.62,-178.5 480.51,-178.5"/>
<text text-anchor="middle" x="511.56" y="-217.5" font-family="Times,serif" font-size="10.00">ID</text>
<text text-anchor="middle" x="511.56" y="-205.5" font-family="Times,serif" font-size="10.00">SIG_DEC1</text>
<polyline fill="none" stroke="black" points="480.51,-198.5 542.62,-198.5"/>
<text text-anchor="middle" x="495.56" y="-185.5" font-family="Times,serif" font-size="10.00">L</text>
<polyline fill="none" stroke="black" points="510.62,-178.5 510.62,-198.5"/>
<text text-anchor="middle" x="526.45" y="-185.5" font-family="Times,serif" font-size="10.00">R</text>
</g>
<!-- ast_nodeRRRLR&#45;&gt;ast_nodeRRRLRL -->
<g id="edge18" class="edge">
<title>ast_nodeRRRLR:L&#45;&gt;ast_nodeRRRLRL:A</title>
<path fill="none" stroke="black" d="M560.56,-272.5C560.56,-270.07 553.44,-240.86 548.22,-224.85"/>
<polygon fill="black" stroke="black" points="551.48,-223.56 544.19,-215.88 545.1,-226.44 551.48,-223.56"/>
</g>
<!-- ast_nodeRRRLRR -->
<g id="node26" class="node">
<title>ast_nodeRRRLRR</title>
<polygon fill="none" stroke="black" points="560.56,-184.5 560.56,-224.5 614.56,-224.5 614.56,-184.5 560.56,-184.5"/>
<text text-anchor="middle" x="587.52" y="-211.5" font-family="Times,serif" font-size="10.00">PARMS</text>
<polyline fill="none" stroke="black" points="560.56,-204.5 614.47,-204.5"/>
<text text-anchor="middle" x="573.62" y="-191.5" font-family="Times,serif" font-size="10.00">L</text>
<polyline fill="none" stroke="black" points="586.67,-184.5 586.67,-204.5"/>
<text text-anchor="middle" x="600.51" y="-191.5" font-family="Times,serif" font-size="10.00">R</text>
</g>
<!-- ast_nodeRRRLR&#45;&gt;ast_nodeRRRLRR -->
<g id="edge20" class="edge">
<title>ast_nodeRRRLR:R&#45;&gt;ast_nodeRRRLRR:A</title>
<path fill="none" stroke="black" d="M587.56,-272.5C587.56,-256.02 587.56,-249.29 587.56,-236.92"/>
<polygon fill="black" stroke="black" points="591.06,-237.01 587.56,-227.01 584.06,-237.01 591.06,-237.01"/>
</g>
<!-- ast_nodeRRRLRRL -->
<g id="node27" class="node">
<title>ast_nodeRRRLRRL</title>
<polygon fill="none" stroke="black" points="546.56,-89.5 546.56,-141.5 600.56,-141.5 600.56,-89.5 546.56,-89.5"/>
<text text-anchor="middle" x="573.45" y="-128.5" font-family="Times,serif" font-size="10.00">ID</text>
<text text-anchor="middle" x="573.45" y="-116.5" font-family="Times,serif" font-size="10.00">WIP2</text>
<polyline fill="none" stroke="black" points="546.56,-109.5 600.34,-109.5"/>
<text text-anchor="middle" x="559.62" y="-96.5" font-family="Times,serif" font-size="10.00">L</text>
<polyline fill="none" stroke="black" points="572.67,-89.5 572.67,-109.5"/>
<text text-anchor="middle" x="586.51" y="-96.5" font-family="Times,serif" font-size="10.00">R</text>
</g>
<!-- ast_nodeRRRLRR&#45;&gt;ast_nodeRRRLRRL -->
<g id="edge19" class="edge">
<title>ast_nodeRRRLRR:L&#45;&gt;ast_nodeRRRLRRL:A</title>
<path fill="none" stroke="black" d="M573.56,-183.5C573.56,-169.52 573.56,-163.49 573.56,-153.36"/>
<polygon fill="black" stroke="black" points="577.06,-153.51 573.56,-143.51 570.06,-153.51 577.06,-153.51"/>
</g>
<!-- ast_nodeRRRRL -->
<g id="node29" class="node">
<title>ast_nodeRRRRL</title>
<polygon fill="none" stroke="black" points="646.56,-273.5 646.56,-313.5 700.56,-313.5 700.56,-273.5 646.56,-273.5"/>
<text text-anchor="middle" x="673.45" y="-300.5" font-family="Times,serif" font-size="10.00">CALL</text>
<polyline fill="none" stroke="black" points="646.56,-293.5 700.34,-293.5"/>
<text text-anchor="middle" x="659.62" y="-280.5" font-family="Times,serif" font-size="10.00">L</text>
<polyline fill="none" stroke="black" points="672.67,-273.5 672.67,-293.5"/>
<text text-anchor="middle" x="686.51" y="-280.5" font-family="Times,serif" font-size="10.00">R</text>
</g>
<!-- ast_nodeRRRR&#45;&gt;ast_nodeRRRRL -->
<g id="edge28" class="edge">
<title>ast_nodeRRRR:L&#45;&gt;ast_nodeRRRRL:A</title>
<path fill="none" stroke="black" d="M645.56,-361.5C645.56,-341.55 664.41,-339.07 671.18,-325.4"/>
<polygon fill="black" stroke="black" points="674.52,-326.5 673.24,-315.98 667.68,-325 674.52,-326.5"/>
</g>
<!-- ast_nodeRRRRLL -->
<g id="node30" class="node">
<title>ast_nodeRRRRLL</title>
<polygon fill="none" stroke="black" points="632.56,-178.5 632.56,-230.5 686.56,-230.5 686.56,-178.5 632.56,-178.5"/>
<text text-anchor="middle" x="659.4" y="-217.5" font-family="Times,serif" font-size="10.00">ID</text>
<text text-anchor="middle" x="659.4" y="-205.5" font-family="Times,serif" font-size="10.00">SIGNAL</text>
<polyline fill="none" stroke="black" points="632.56,-198.5 686.23,-198.5"/>
<text text-anchor="middle" x="645.62" y="-185.5" font-family="Times,serif" font-size="10.00">L</text>
<polyline fill="none" stroke="black" points="658.67,-178.5 658.67,-198.5"/>
<text text-anchor="middle" x="672.01" y="-185.5" font-family="Times,serif" font-size="10.00">R</text>
</g>
<!-- ast_nodeRRRRL&#45;&gt;ast_nodeRRRRLL -->
<g id="edge23" class="edge">
<title>ast_nodeRRRRL:L&#45;&gt;ast_nodeRRRRLL:A</title>
<path fill="none" stroke="black" d="M659.56,-272.5C659.56,-258.52 659.56,-252.49 659.56,-242.36"/>
<polygon fill="black" stroke="black" points="663.06,-242.51 659.56,-232.51 656.06,-242.51 663.06,-242.51"/>
</g>
<!-- ast_nodeRRRRLR -->
<g id="node31" class="node">
<title>ast_nodeRRRRLR</title>
<polygon fill="none" stroke="black" points="704.56,-184.5 704.56,-224.5 758.56,-224.5 758.56,-184.5 704.56,-184.5"/>
<text text-anchor="middle" x="731.52" y="-211.5" font-family="Times,serif" font-size="10.00">PARMS</text>
<polyline fill="none" stroke="black" points="704.56,-204.5 758.47,-204.5"/>
<text text-anchor="middle" x="717.62" y="-191.5" font-family="Times,serif" font-size="10.00">L</text>
<polyline fill="none" stroke="black" points="730.67,-184.5 730.67,-204.5"/>
<text text-anchor="middle" x="744.51" y="-191.5" font-family="Times,serif" font-size="10.00">R</text>
</g>
<!-- ast_nodeRRRRL&#45;&gt;ast_nodeRRRRLR -->
<g id="edge27" class="edge">
<title>ast_nodeRRRRL:R&#45;&gt;ast_nodeRRRRLR:A</title>
<path fill="none" stroke="black" d="M686.56,-272.5C686.56,-270.07 693.69,-240.86 698.91,-224.85"/>
<polygon fill="black" stroke="black" points="702.03,-226.44 702.94,-215.88 695.65,-223.56 702.03,-226.44"/>
</g>
<!-- ast_nodeRRRRLRL -->
<g id="node32" class="node">
<title>ast_nodeRRRRLRL</title>
<polygon fill="none" stroke="black" points="661.51,-89.5 661.51,-141.5 723.62,-141.5 723.62,-89.5 661.51,-89.5"/>
<text text-anchor="middle" x="692.56" y="-128.5" font-family="Times,serif" font-size="10.00">ID</text>
<text text-anchor="middle" x="692.56" y="-116.5" font-family="Times,serif" font-size="10.00">SIG_DEC1</text>
<polyline fill="none" stroke="black" points="661.51,-109.5 723.62,-109.5"/>
<text text-anchor="middle" x="676.56" y="-96.5" font-family="Times,serif" font-size="10.00">L</text>
<polyline fill="none" stroke="black" points="691.62,-89.5 691.62,-109.5"/>
<text text-anchor="middle" x="707.45" y="-96.5" font-family="Times,serif" font-size="10.00">R</text>
</g>
<!-- ast_nodeRRRRLR&#45;&gt;ast_nodeRRRRLRL -->
<g id="edge24" class="edge">
<title>ast_nodeRRRRLR:L&#45;&gt;ast_nodeRRRRLRL:A</title>
<path fill="none" stroke="black" d="M717.56,-183.5C717.56,-166.51 702,-163.9 695.43,-152.98"/>
<polygon fill="black" stroke="black" points="698.86,-152.25 692.95,-143.46 692.09,-154.02 698.86,-152.25"/>
</g>
<!-- ast_nodeRRRRLRR -->
<g id="node33" class="node">
<title>ast_nodeRRRRLRR</title>
<polygon fill="none" stroke="black" points="741.56,-95.5 741.56,-135.5 795.56,-135.5 795.56,-95.5 741.56,-95.5"/>
<text text-anchor="middle" x="768.52" y="-122.5" font-family="Times,serif" font-size="10.00">PARMS</text>
<polyline fill="none" stroke="black" points="741.56,-115.5 795.47,-115.5"/>
<text text-anchor="middle" x="754.62" y="-102.5" font-family="Times,serif" font-size="10.00">L</text>
<polyline fill="none" stroke="black" points="767.67,-95.5 767.67,-115.5"/>
<text text-anchor="middle" x="781.51" y="-102.5" font-family="Times,serif" font-size="10.00">R</text>
</g>
<!-- ast_nodeRRRRLR&#45;&gt;ast_nodeRRRRLRR -->
<g id="edge26" class="edge">
<title>ast_nodeRRRRLR:R&#45;&gt;ast_nodeRRRRLRR:A</title>
<path fill="none" stroke="black" d="M744.56,-183.5C744.56,-164.44 760.41,-160.81 766.35,-147.54"/>
<polygon fill="black" stroke="black" points="769.73,-148.48 768.27,-137.98 762.87,-147.1 769.73,-148.48"/>
</g>
<!-- ast_nodeRRRRLRRL -->
<g id="node34" class="node">
<title>ast_nodeRRRRLRRL</title>
<polygon fill="none" stroke="black" points="727.56,-0.5 727.56,-52.5 781.56,-52.5 781.56,-0.5 727.56,-0.5"/>
<text text-anchor="middle" x="754.45" y="-39.5" font-family="Times,serif" font-size="10.00">ID</text>
<text text-anchor="middle" x="754.45" y="-27.5" font-family="Times,serif" font-size="10.00">WIP3</text>
<polyline fill="none" stroke="black" points="727.56,-20.5 781.34,-20.5"/>
<text text-anchor="middle" x="740.62" y="-7.5" font-family="Times,serif" font-size="10.00">L</text>
<polyline fill="none" stroke="black" points="753.67,-0.5 753.67,-20.5"/>
<text text-anchor="middle" x="767.51" y="-7.5" font-family="Times,serif" font-size="10.00">R</text>
</g>
<!-- ast_nodeRRRRLRR&#45;&gt;ast_nodeRRRRLRRL -->
<g id="edge25" class="edge">
<title>ast_nodeRRRRLRR:L&#45;&gt;ast_nodeRRRRLRRL:A</title>
<path fill="none" stroke="black" d="M754.56,-94.5C754.56,-80.52 754.56,-74.49 754.56,-64.36"/>
<polygon fill="black" stroke="black" points="758.06,-64.51 754.56,-54.51 751.06,-64.51 758.06,-64.51"/>
</g>
<!-- code -->
<g id="node35" class="node">
<title>code</title>
<polygon fill="none" stroke="black" points="235.56,-700.5 235.56,-752.5 885.56,-752.5 885.56,-700.5 235.56,-700.5"/>
<polygon fill="none" stroke="black" points="246.56,-727.5 246.56,-745.5 874.56,-745.5 874.56,-727.5 246.56,-727.5"/>
<text text-anchor="start" x="550.84" y="-734.5" font-family="Times,serif" font-weight="bold" font-size="10.00">code</text>
<polygon fill="none" stroke="black" points="246.56,-707.5 246.56,-725.5 874.56,-725.5 874.56,-707.5 246.56,-707.5"/>
<text text-anchor="start" x="249.56" y="-713.5" font-family="Times,serif" font-size="10.00" fill="blue">MAPi(WOBJECT,S06_MAN_OBJECTS);ASHOW(WOBJECT); SIGNAL(WIP1,SIG_DEC1);SIGNAL(WIP2,SIG_DEC1);SIGNAL(WIP3,SIG_DEC1);</text>
<polygon fill="none" stroke="black" points="243.56,-704.5 243.56,-748.5 877.56,-748.5 877.56,-704.5 243.56,-704.5"/>
</g>
</g>
</svg>
