<?xml version="1.0" encoding="UTF-8" standalone="no"?>
<!DOCTYPE svg PUBLIC "-//W3C//DTD SVG 1.1//EN"
 "http://www.w3.org/Graphics/SVG/1.1/DTD/svg11.dtd">
<!-- Generated by graphviz version 7.1.0 (20230121.1956)
 -->
<!-- Title: AbstractSyntaxTree Pages: 1 -->
<svg width="919pt" height="837pt"
 viewBox="0.00 0.00 919.00 837.00" xmlns="http://www.w3.org/2000/svg" xmlns:xlink="http://www.w3.org/1999/xlink">
<g id="graph0" class="graph" transform="scale(1 1) rotate(0) translate(4 833)">
<title>AbstractSyntaxTree</title>
<polygon fill="white" stroke="none" points="-4,4 -4,-833 915,-833 915,4 -4,4"/>
<!-- filename -->
<g id="node1" class="node">
<title>filename</title>
<polygon fill="none" stroke="black" points="21,-746.5 21,-782.5 105,-782.5 105,-746.5 21,-746.5"/>
<text text-anchor="middle" x="63" y="-760.9" font-family="Times,serif" font-size="12.00">S10_DRYPIT</text>
</g>
<!-- ast_node -->
<g id="node2" class="node">
<title>ast_node</title>
<polygon fill="none" stroke="black" points="123,-744.5 123,-784.5 177,-784.5 177,-744.5 123,-744.5"/>
<text text-anchor="middle" x="149.62" y="-771.5" font-family="Times,serif" font-size="10.00">STMTS</text>
<polyline fill="none" stroke="black" points="123,-764.5 176.23,-764.5"/>
<text text-anchor="middle" x="136.05" y="-751.5" font-family="Times,serif" font-size="10.00">L</text>
<polyline fill="none" stroke="black" points="149.11,-744.5 149.11,-764.5"/>
<text text-anchor="middle" x="162.44" y="-751.5" font-family="Times,serif" font-size="10.00">R</text>
</g>
<!-- ast_nodeL -->
<g id="node3" class="node">
<title>ast_nodeL</title>
<polygon fill="none" stroke="black" points="59,-623.5 59,-663.5 113,-663.5 113,-623.5 59,-623.5"/>
<text text-anchor="middle" x="85.89" y="-650.5" font-family="Times,serif" font-size="10.00">CALL</text>
<polyline fill="none" stroke="black" points="59,-643.5 112.78,-643.5"/>
<text text-anchor="middle" x="72.05" y="-630.5" font-family="Times,serif" font-size="10.00">L</text>
<polyline fill="none" stroke="black" points="85.11,-623.5 85.11,-643.5"/>
<text text-anchor="middle" x="98.94" y="-630.5" font-family="Times,serif" font-size="10.00">R</text>
</g>
<!-- ast_node&#45;&gt;ast_nodeL -->
<g id="edge6" class="edge">
<title>ast_node:L&#45;&gt;ast_nodeL:A</title>
<path fill="none" stroke="black" d="M136,-743.5C136,-706.67 151.35,-663.71 125.11,-655.06"/>
<polygon fill="black" stroke="black" points="125.89,-651.64 115.5,-653.71 124.91,-658.57 125.89,-651.64"/>
</g>
<!-- ast_nodeR -->
<g id="node9" class="node">
<title>ast_nodeR</title>
<polygon fill="none" stroke="black" points="207,-623.5 207,-663.5 261,-663.5 261,-623.5 207,-623.5"/>
<text text-anchor="middle" x="233.62" y="-650.5" font-family="Times,serif" font-size="10.00">STMTS</text>
<polyline fill="none" stroke="black" points="207,-643.5 260.23,-643.5"/>
<text text-anchor="middle" x="220.05" y="-630.5" font-family="Times,serif" font-size="10.00">L</text>
<polyline fill="none" stroke="black" points="233.11,-623.5 233.11,-643.5"/>
<text text-anchor="middle" x="246.44" y="-630.5" font-family="Times,serif" font-size="10.00">R</text>
</g>
<!-- ast_node&#45;&gt;ast_nodeR -->
<g id="edge39" class="edge">
<title>ast_node:R&#45;&gt;ast_nodeR:A</title>
<path fill="none" stroke="black" d="M162,-743.5C162,-703.15 161.57,-662.02 194.63,-654.66"/>
<polygon fill="black" stroke="black" points="194.9,-658.15 204.49,-653.65 194.19,-651.19 194.9,-658.15"/>
</g>
<!-- ast_nodeLL -->
<g id="node4" class="node">
<title>ast_nodeLL</title>
<polygon fill="none" stroke="black" points="0,-534.5 0,-586.5 54,-586.5 54,-534.5 0,-534.5"/>
<text text-anchor="middle" x="26.56" y="-573.5" font-family="Times,serif" font-size="10.00">ID</text>
<text text-anchor="middle" x="26.56" y="-561.5" font-family="Times,serif" font-size="10.00">ASSIGN</text>
<polyline fill="none" stroke="black" points="0,-554.5 53.12,-554.5"/>
<text text-anchor="middle" x="13.05" y="-541.5" font-family="Times,serif" font-size="10.00">L</text>
<polyline fill="none" stroke="black" points="26.11,-534.5 26.11,-554.5"/>
<text text-anchor="middle" x="39.44" y="-541.5" font-family="Times,serif" font-size="10.00">R</text>
</g>
<!-- ast_nodeL&#45;&gt;ast_nodeLL -->
<g id="edge1" class="edge">
<title>ast_nodeL:L&#45;&gt;ast_nodeLL:A</title>
<path fill="none" stroke="black" d="M72,-623C72,-618.62 66.02,-593.93 60.35,-580.03"/>
<polygon fill="black" stroke="black" points="63.3,-578.14 54.84,-571.76 57.47,-582.02 63.3,-578.14"/>
</g>
<!-- ast_nodeLR -->
<g id="node5" class="node">
<title>ast_nodeLR</title>
<polygon fill="none" stroke="black" points="72,-540.5 72,-580.5 126,-580.5 126,-540.5 72,-540.5"/>
<text text-anchor="middle" x="98.95" y="-567.5" font-family="Times,serif" font-size="10.00">PARMS</text>
<polyline fill="none" stroke="black" points="72,-560.5 125.91,-560.5"/>
<text text-anchor="middle" x="85.05" y="-547.5" font-family="Times,serif" font-size="10.00">L</text>
<polyline fill="none" stroke="black" points="98.11,-540.5 98.11,-560.5"/>
<text text-anchor="middle" x="111.94" y="-547.5" font-family="Times,serif" font-size="10.00">R</text>
</g>
<!-- ast_nodeL&#45;&gt;ast_nodeLR -->
<g id="edge5" class="edge">
<title>ast_nodeL:R&#45;&gt;ast_nodeLR:A</title>
<path fill="none" stroke="black" d="M99,-623C99,-609.02 99,-602.99 99,-592.86"/>
<polygon fill="black" stroke="black" points="102.5,-593.01 99,-583.01 95.5,-593.01 102.5,-593.01"/>
</g>
<!-- ast_nodeLRL -->
<g id="node6" class="node">
<title>ast_nodeLRL</title>
<polygon fill="none" stroke="black" points="13,-445.5 13,-497.5 67,-497.5 67,-445.5 13,-445.5"/>
<text text-anchor="middle" x="39.89" y="-484.5" font-family="Times,serif" font-size="10.00">INT</text>
<text text-anchor="middle" x="39.89" y="-472.5" font-family="Times,serif" font-size="10.00">9</text>
<polyline fill="none" stroke="black" points="13,-465.5 66.78,-465.5"/>
<text text-anchor="middle" x="26.05" y="-452.5" font-family="Times,serif" font-size="10.00">L</text>
<polyline fill="none" stroke="black" points="39.11,-445.5 39.11,-465.5"/>
<text text-anchor="middle" x="52.94" y="-452.5" font-family="Times,serif" font-size="10.00">R</text>
</g>
<!-- ast_nodeLR&#45;&gt;ast_nodeLRL -->
<g id="edge2" class="edge">
<title>ast_nodeLR:L&#45;&gt;ast_nodeLRL:A</title>
<path fill="none" stroke="black" d="M85,-539.5C85,-537.07 77.88,-507.86 72.66,-491.85"/>
<polygon fill="black" stroke="black" points="75.92,-490.56 68.62,-482.88 69.53,-493.44 75.92,-490.56"/>
</g>
<!-- ast_nodeLRR -->
<g id="node7" class="node">
<title>ast_nodeLRR</title>
<polygon fill="none" stroke="black" points="85,-451.5 85,-491.5 139,-491.5 139,-451.5 85,-451.5"/>
<text text-anchor="middle" x="111.95" y="-478.5" font-family="Times,serif" font-size="10.00">PARMS</text>
<polyline fill="none" stroke="black" points="85,-471.5 138.91,-471.5"/>
<text text-anchor="middle" x="98.05" y="-458.5" font-family="Times,serif" font-size="10.00">L</text>
<polyline fill="none" stroke="black" points="111.11,-451.5 111.11,-471.5"/>
<text text-anchor="middle" x="124.94" y="-458.5" font-family="Times,serif" font-size="10.00">R</text>
</g>
<!-- ast_nodeLR&#45;&gt;ast_nodeLRR -->
<g id="edge4" class="edge">
<title>ast_nodeLR:R&#45;&gt;ast_nodeLRR:A</title>
<path fill="none" stroke="black" d="M112,-539.5C112,-523.02 112,-516.29 112,-503.92"/>
<polygon fill="black" stroke="black" points="115.5,-504.01 112,-494.01 108.5,-504.01 115.5,-504.01"/>
</g>
<!-- ast_nodeLRRL -->
<g id="node8" class="node">
<title>ast_nodeLRRL</title>
<polygon fill="none" stroke="black" points="69.44,-356.5 69.44,-408.5 126.56,-408.5 126.56,-356.5 69.44,-356.5"/>
<text text-anchor="middle" x="98" y="-395.5" font-family="Times,serif" font-size="10.00">ID</text>
<text text-anchor="middle" x="98" y="-383.5" font-family="Times,serif" font-size="10.00">BFRAME</text>
<polyline fill="none" stroke="black" points="69.44,-376.5 126.56,-376.5"/>
<text text-anchor="middle" x="83.49" y="-363.5" font-family="Times,serif" font-size="10.00">L</text>
<polyline fill="none" stroke="black" points="97.55,-356.5 97.55,-376.5"/>
<text text-anchor="middle" x="111.88" y="-363.5" font-family="Times,serif" font-size="10.00">R</text>
</g>
<!-- ast_nodeLRR&#45;&gt;ast_nodeLRRL -->
<g id="edge3" class="edge">
<title>ast_nodeLRR:L&#45;&gt;ast_nodeLRRL:A</title>
<path fill="none" stroke="black" d="M98,-450.5C98,-436.52 98,-430.49 98,-420.36"/>
<polygon fill="black" stroke="black" points="101.5,-420.51 98,-410.51 94.5,-420.51 101.5,-420.51"/>
</g>
<!-- ast_nodeRL -->
<g id="node10" class="node">
<title>ast_nodeRL</title>
<polygon fill="none" stroke="black" points="193,-540.5 193,-580.5 247,-580.5 247,-540.5 193,-540.5"/>
<text text-anchor="middle" x="219.89" y="-567.5" font-family="Times,serif" font-size="10.00">CALL</text>
<polyline fill="none" stroke="black" points="193,-560.5 246.78,-560.5"/>
<text text-anchor="middle" x="206.05" y="-547.5" font-family="Times,serif" font-size="10.00">L</text>
<polyline fill="none" stroke="black" points="219.11,-540.5 219.11,-560.5"/>
<text text-anchor="middle" x="232.94" y="-547.5" font-family="Times,serif" font-size="10.00">R</text>
</g>
<!-- ast_nodeR&#45;&gt;ast_nodeRL -->
<g id="edge12" class="edge">
<title>ast_nodeR:L&#45;&gt;ast_nodeRL:A</title>
<path fill="none" stroke="black" d="M220,-623C220,-609.02 220,-602.99 220,-592.86"/>
<polygon fill="black" stroke="black" points="223.5,-593.01 220,-583.01 216.5,-593.01 223.5,-593.01"/>
</g>
<!-- ast_nodeRR -->
<g id="node16" class="node">
<title>ast_nodeRR</title>
<polygon fill="none" stroke="black" points="364,-540.5 364,-580.5 418,-580.5 418,-540.5 364,-540.5"/>
<text text-anchor="middle" x="390.62" y="-567.5" font-family="Times,serif" font-size="10.00">STMTS</text>
<polyline fill="none" stroke="black" points="364,-560.5 417.23,-560.5"/>
<text text-anchor="middle" x="377.05" y="-547.5" font-family="Times,serif" font-size="10.00">L</text>
<polyline fill="none" stroke="black" points="390.11,-540.5 390.11,-560.5"/>
<text text-anchor="middle" x="403.44" y="-547.5" font-family="Times,serif" font-size="10.00">R</text>
</g>
<!-- ast_nodeR&#45;&gt;ast_nodeRR -->
<g id="edge38" class="edge">
<title>ast_nodeR:R&#45;&gt;ast_nodeRR:A</title>
<path fill="none" stroke="black" d="M261,-633.5C310.22,-633.5 310.08,-579.73 351.78,-571.54"/>
<polygon fill="black" stroke="black" points="351.86,-575.05 361.49,-570.64 351.21,-568.08 351.86,-575.05"/>
</g>
<!-- ast_nodeRLL -->
<g id="node11" class="node">
<title>ast_nodeRLL</title>
<polygon fill="none" stroke="black" points="157,-445.5 157,-497.5 211,-497.5 211,-445.5 157,-445.5"/>
<text text-anchor="middle" x="183.89" y="-484.5" font-family="Times,serif" font-size="10.00">ID</text>
<text text-anchor="middle" x="183.89" y="-472.5" font-family="Times,serif" font-size="10.00">MUL</text>
<polyline fill="none" stroke="black" points="157,-465.5 210.78,-465.5"/>
<text text-anchor="middle" x="170.05" y="-452.5" font-family="Times,serif" font-size="10.00">L</text>
<polyline fill="none" stroke="black" points="183.11,-445.5 183.11,-465.5"/>
<text text-anchor="middle" x="196.94" y="-452.5" font-family="Times,serif" font-size="10.00">R</text>
</g>
<!-- ast_nodeRL&#45;&gt;ast_nodeRLL -->
<g id="edge7" class="edge">
<title>ast_nodeRL:L&#45;&gt;ast_nodeRLL:A</title>
<path fill="none" stroke="black" d="M206,-539.5C206,-523.19 192.57,-519.78 186.7,-509.11"/>
<polygon fill="black" stroke="black" points="190.12,-508.36 184.36,-499.47 183.32,-510.01 190.12,-508.36"/>
</g>
<!-- ast_nodeRLR -->
<g id="node12" class="node">
<title>ast_nodeRLR</title>
<polygon fill="none" stroke="black" points="229,-451.5 229,-491.5 283,-491.5 283,-451.5 229,-451.5"/>
<text text-anchor="middle" x="255.95" y="-478.5" font-family="Times,serif" font-size="10.00">PARMS</text>
<polyline fill="none" stroke="black" points="229,-471.5 282.91,-471.5"/>
<text text-anchor="middle" x="242.05" y="-458.5" font-family="Times,serif" font-size="10.00">L</text>
<polyline fill="none" stroke="black" points="255.11,-451.5 255.11,-471.5"/>
<text text-anchor="middle" x="268.94" y="-458.5" font-family="Times,serif" font-size="10.00">R</text>
</g>
<!-- ast_nodeRL&#45;&gt;ast_nodeRLR -->
<g id="edge11" class="edge">
<title>ast_nodeRL:R&#45;&gt;ast_nodeRLR:A</title>
<path fill="none" stroke="black" d="M233,-539.5C233,-520.6 248.18,-516.74 253.88,-503.48"/>
<polygon fill="black" stroke="black" points="257.25,-504.47 255.71,-493.99 250.38,-503.14 257.25,-504.47"/>
</g>
<!-- ast_nodeRLRL -->
<g id="node13" class="node">
<title>ast_nodeRLRL</title>
<polygon fill="none" stroke="black" points="170,-356.5 170,-408.5 224,-408.5 224,-356.5 170,-356.5"/>
<text text-anchor="middle" x="196.51" y="-395.5" font-family="Times,serif" font-size="10.00">ID</text>
<text text-anchor="middle" x="196.51" y="-383.5" font-family="Times,serif" font-size="10.00">BPARM</text>
<polyline fill="none" stroke="black" points="170,-376.5 223.01,-376.5"/>
<text text-anchor="middle" x="183.05" y="-363.5" font-family="Times,serif" font-size="10.00">L</text>
<polyline fill="none" stroke="black" points="196.11,-356.5 196.11,-376.5"/>
<text text-anchor="middle" x="209.44" y="-363.5" font-family="Times,serif" font-size="10.00">R</text>
</g>
<!-- ast_nodeRLR&#45;&gt;ast_nodeRLRL -->
<g id="edge8" class="edge">
<title>ast_nodeRLR:L&#45;&gt;ast_nodeRLRL:A</title>
<path fill="none" stroke="black" d="M242,-450.5C242,-445.6 236.06,-417.2 230.22,-402.04"/>
<polygon fill="black" stroke="black" points="233.22,-400.23 224.83,-393.77 227.36,-404.06 233.22,-400.23"/>
</g>
<!-- ast_nodeRLRR -->
<g id="node14" class="node">
<title>ast_nodeRLRR</title>
<polygon fill="none" stroke="black" points="242,-362.5 242,-402.5 296,-402.5 296,-362.5 242,-362.5"/>
<text text-anchor="middle" x="268.95" y="-389.5" font-family="Times,serif" font-size="10.00">PARMS</text>
<polyline fill="none" stroke="black" points="242,-382.5 295.91,-382.5"/>
<text text-anchor="middle" x="255.05" y="-369.5" font-family="Times,serif" font-size="10.00">L</text>
<polyline fill="none" stroke="black" points="268.11,-362.5 268.11,-382.5"/>
<text text-anchor="middle" x="281.94" y="-369.5" font-family="Times,serif" font-size="10.00">R</text>
</g>
<!-- ast_nodeRLR&#45;&gt;ast_nodeRLRR -->
<g id="edge10" class="edge">
<title>ast_nodeRLR:R&#45;&gt;ast_nodeRLRR:A</title>
<path fill="none" stroke="black" d="M269,-450.5C269,-434.02 269,-427.29 269,-414.92"/>
<polygon fill="black" stroke="black" points="272.5,-415.01 269,-405.01 265.5,-415.01 272.5,-415.01"/>
</g>
<!-- ast_nodeRLRRL -->
<g id="node15" class="node">
<title>ast_nodeRLRRL</title>
<polygon fill="none" stroke="black" points="225.44,-267.5 225.44,-319.5 282.56,-319.5 282.56,-267.5 225.44,-267.5"/>
<text text-anchor="middle" x="254" y="-306.5" font-family="Times,serif" font-size="10.00">ID</text>
<text text-anchor="middle" x="254" y="-294.5" font-family="Times,serif" font-size="10.00">BFRAME</text>
<polyline fill="none" stroke="black" points="225.44,-287.5 282.56,-287.5"/>
<text text-anchor="middle" x="239.49" y="-274.5" font-family="Times,serif" font-size="10.00">L</text>
<polyline fill="none" stroke="black" points="253.55,-267.5 253.55,-287.5"/>
<text text-anchor="middle" x="267.88" y="-274.5" font-family="Times,serif" font-size="10.00">R</text>
</g>
<!-- ast_nodeRLRR&#45;&gt;ast_nodeRLRRL -->
<g id="edge9" class="edge">
<title>ast_nodeRLRR:L&#45;&gt;ast_nodeRLRRL:A</title>
<path fill="none" stroke="black" d="M255,-361.5C255,-347.52 254.43,-341.49 254.15,-331.36"/>
<polygon fill="black" stroke="black" points="257.65,-331.47 254.02,-321.51 250.65,-331.56 257.65,-331.47"/>
</g>
<!-- ast_nodeRRL -->
<g id="node17" class="node">
<title>ast_nodeRRL</title>
<polygon fill="none" stroke="black" points="350,-451.5 350,-491.5 404,-491.5 404,-451.5 350,-451.5"/>
<text text-anchor="middle" x="376.89" y="-478.5" font-family="Times,serif" font-size="10.00">CALL</text>
<polyline fill="none" stroke="black" points="350,-471.5 403.78,-471.5"/>
<text text-anchor="middle" x="363.05" y="-458.5" font-family="Times,serif" font-size="10.00">L</text>
<polyline fill="none" stroke="black" points="376.11,-451.5 376.11,-471.5"/>
<text text-anchor="middle" x="389.94" y="-458.5" font-family="Times,serif" font-size="10.00">R</text>
</g>
<!-- ast_nodeRR&#45;&gt;ast_nodeRRL -->
<g id="edge18" class="edge">
<title>ast_nodeRR:L&#45;&gt;ast_nodeRRL:A</title>
<path fill="none" stroke="black" d="M377,-539.5C377,-523.02 377,-516.29 377,-503.92"/>
<polygon fill="black" stroke="black" points="380.5,-504.01 377,-494.01 373.5,-504.01 380.5,-504.01"/>
</g>
<!-- ast_nodeRRR -->
<g id="node23" class="node">
<title>ast_nodeRRR</title>
<polygon fill="none" stroke="black" points="521,-451.5 521,-491.5 575,-491.5 575,-451.5 521,-451.5"/>
<text text-anchor="middle" x="547.62" y="-478.5" font-family="Times,serif" font-size="10.00">STMTS</text>
<polyline fill="none" stroke="black" points="521,-471.5 574.23,-471.5"/>
<text text-anchor="middle" x="534.05" y="-458.5" font-family="Times,serif" font-size="10.00">L</text>
<polyline fill="none" stroke="black" points="547.11,-451.5 547.11,-471.5"/>
<text text-anchor="middle" x="560.44" y="-458.5" font-family="Times,serif" font-size="10.00">R</text>
</g>
<!-- ast_nodeRR&#45;&gt;ast_nodeRRR -->
<g id="edge37" class="edge">
<title>ast_nodeRR:R&#45;&gt;ast_nodeRRR:A</title>
<path fill="none" stroke="black" d="M418,-550.5C468.67,-550.5 466.03,-491.36 508.79,-482.58"/>
<polygon fill="black" stroke="black" points="508.88,-486.09 518.49,-481.65 508.2,-479.12 508.88,-486.09"/>
</g>
<!-- ast_nodeRRLL -->
<g id="node18" class="node">
<title>ast_nodeRRLL</title>
<polygon fill="none" stroke="black" points="314,-356.5 314,-408.5 368,-408.5 368,-356.5 314,-356.5"/>
<text text-anchor="middle" x="340.56" y="-395.5" font-family="Times,serif" font-size="10.00">ID</text>
<text text-anchor="middle" x="340.56" y="-383.5" font-family="Times,serif" font-size="10.00">ASSIGN</text>
<polyline fill="none" stroke="black" points="314,-376.5 367.12,-376.5"/>
<text text-anchor="middle" x="327.05" y="-363.5" font-family="Times,serif" font-size="10.00">L</text>
<polyline fill="none" stroke="black" points="340.11,-356.5 340.11,-376.5"/>
<text text-anchor="middle" x="353.44" y="-363.5" font-family="Times,serif" font-size="10.00">R</text>
</g>
<!-- ast_nodeRRL&#45;&gt;ast_nodeRRLL -->
<g id="edge13" class="edge">
<title>ast_nodeRRL:L&#45;&gt;ast_nodeRRLL:A</title>
<path fill="none" stroke="black" d="M363,-450.5C363,-434.19 349.57,-430.78 343.7,-420.11"/>
<polygon fill="black" stroke="black" points="347.12,-419.36 341.36,-410.47 340.32,-421.01 347.12,-419.36"/>
</g>
<!-- ast_nodeRRLR -->
<g id="node19" class="node">
<title>ast_nodeRRLR</title>
<polygon fill="none" stroke="black" points="386,-362.5 386,-402.5 440,-402.5 440,-362.5 386,-362.5"/>
<text text-anchor="middle" x="412.95" y="-389.5" font-family="Times,serif" font-size="10.00">PARMS</text>
<polyline fill="none" stroke="black" points="386,-382.5 439.91,-382.5"/>
<text text-anchor="middle" x="399.05" y="-369.5" font-family="Times,serif" font-size="10.00">L</text>
<polyline fill="none" stroke="black" points="412.11,-362.5 412.11,-382.5"/>
<text text-anchor="middle" x="425.94" y="-369.5" font-family="Times,serif" font-size="10.00">R</text>
</g>
<!-- ast_nodeRRL&#45;&gt;ast_nodeRRLR -->
<g id="edge17" class="edge">
<title>ast_nodeRRL:R&#45;&gt;ast_nodeRRLR:A</title>
<path fill="none" stroke="black" d="M390,-450.5C390,-431.6 405.18,-427.74 410.88,-414.48"/>
<polygon fill="black" stroke="black" points="414.25,-415.47 412.71,-404.99 407.38,-414.14 414.25,-415.47"/>
</g>
<!-- ast_nodeRRLRL -->
<g id="node20" class="node">
<title>ast_nodeRRLRL</title>
<polygon fill="none" stroke="black" points="300.78,-267.5 300.78,-319.5 381.22,-319.5 381.22,-267.5 300.78,-267.5"/>
<text text-anchor="middle" x="341" y="-306.5" font-family="Times,serif" font-size="10.00">ID</text>
<text text-anchor="middle" x="341" y="-294.5" font-family="Times,serif" font-size="10.00">MAX_DRYPIT</text>
<polyline fill="none" stroke="black" points="300.78,-287.5 381.22,-287.5"/>
<text text-anchor="middle" x="320.33" y="-274.5" font-family="Times,serif" font-size="10.00">L</text>
<polyline fill="none" stroke="black" points="339.88,-267.5 339.88,-287.5"/>
<text text-anchor="middle" x="360.22" y="-274.5" font-family="Times,serif" font-size="10.00">R</text>
</g>
<!-- ast_nodeRRLR&#45;&gt;ast_nodeRRLRL -->
<g id="edge14" class="edge">
<title>ast_nodeRRLR:L&#45;&gt;ast_nodeRRLRL:A</title>
<path fill="none" stroke="black" d="M399,-361.5C399,-359.07 391.88,-329.86 386.66,-313.85"/>
<polygon fill="black" stroke="black" points="389.92,-312.56 382.62,-304.88 383.53,-315.44 389.92,-312.56"/>
</g>
<!-- ast_nodeRRLRR -->
<g id="node21" class="node">
<title>ast_nodeRRLRR</title>
<polygon fill="none" stroke="black" points="399,-273.5 399,-313.5 453,-313.5 453,-273.5 399,-273.5"/>
<text text-anchor="middle" x="425.95" y="-300.5" font-family="Times,serif" font-size="10.00">PARMS</text>
<polyline fill="none" stroke="black" points="399,-293.5 452.91,-293.5"/>
<text text-anchor="middle" x="412.05" y="-280.5" font-family="Times,serif" font-size="10.00">L</text>
<polyline fill="none" stroke="black" points="425.11,-273.5 425.11,-293.5"/>
<text text-anchor="middle" x="438.94" y="-280.5" font-family="Times,serif" font-size="10.00">R</text>
</g>
<!-- ast_nodeRRLR&#45;&gt;ast_nodeRRLRR -->
<g id="edge16" class="edge">
<title>ast_nodeRRLR:R&#45;&gt;ast_nodeRRLRR:A</title>
<path fill="none" stroke="black" d="M426,-361.5C426,-345.02 426,-338.29 426,-325.92"/>
<polygon fill="black" stroke="black" points="429.5,-326.01 426,-316.01 422.5,-326.01 429.5,-326.01"/>
</g>
<!-- ast_nodeRRLRRL -->
<g id="node22" class="node">
<title>ast_nodeRRLRRL</title>
<polygon fill="none" stroke="black" points="385,-178.5 385,-230.5 439,-230.5 439,-178.5 385,-178.5"/>
<text text-anchor="middle" x="411.89" y="-217.5" font-family="Times,serif" font-size="10.00">ID</text>
<text text-anchor="middle" x="411.89" y="-205.5" font-family="Times,serif" font-size="10.00">WPARM</text>
<polyline fill="none" stroke="black" points="385,-198.5 438.78,-198.5"/>
<text text-anchor="middle" x="398.05" y="-185.5" font-family="Times,serif" font-size="10.00">L</text>
<polyline fill="none" stroke="black" points="411.11,-178.5 411.11,-198.5"/>
<text text-anchor="middle" x="424.94" y="-185.5" font-family="Times,serif" font-size="10.00">R</text>
</g>
<!-- ast_nodeRRLRR&#45;&gt;ast_nodeRRLRRL -->
<g id="edge15" class="edge">
<title>ast_nodeRRLRR:L&#45;&gt;ast_nodeRRLRRL:A</title>
<path fill="none" stroke="black" d="M412,-272.5C412,-258.52 412,-252.49 412,-242.36"/>
<polygon fill="black" stroke="black" points="415.5,-242.51 412,-232.51 408.5,-242.51 415.5,-242.51"/>
</g>
<!-- ast_nodeRRRL -->
<g id="node24" class="node">
<title>ast_nodeRRRL</title>
<polygon fill="none" stroke="black" points="507,-362.5 507,-402.5 561,-402.5 561,-362.5 507,-362.5"/>
<text text-anchor="middle" x="533.89" y="-389.5" font-family="Times,serif" font-size="10.00">CALL</text>
<polyline fill="none" stroke="black" points="507,-382.5 560.78,-382.5"/>
<text text-anchor="middle" x="520.05" y="-369.5" font-family="Times,serif" font-size="10.00">L</text>
<polyline fill="none" stroke="black" points="533.11,-362.5 533.11,-382.5"/>
<text text-anchor="middle" x="546.94" y="-369.5" font-family="Times,serif" font-size="10.00">R</text>
</g>
<!-- ast_nodeRRR&#45;&gt;ast_nodeRRRL -->
<g id="edge24" class="edge">
<title>ast_nodeRRR:L&#45;&gt;ast_nodeRRRL:A</title>
<path fill="none" stroke="black" d="M534,-450.5C534,-434.02 534,-427.29 534,-414.92"/>
<polygon fill="black" stroke="black" points="537.5,-415.01 534,-405.01 530.5,-415.01 537.5,-415.01"/>
</g>
<!-- ast_nodeRRRR -->
<g id="node30" class="node">
<title>ast_nodeRRRR</title>
<polygon fill="none" stroke="black" points="678,-362.5 678,-402.5 732,-402.5 732,-362.5 678,-362.5"/>
<text text-anchor="middle" x="704.62" y="-389.5" font-family="Times,serif" font-size="10.00">STMTS</text>
<polyline fill="none" stroke="black" points="678,-382.5 731.23,-382.5"/>
<text text-anchor="middle" x="691.05" y="-369.5" font-family="Times,serif" font-size="10.00">L</text>
<polyline fill="none" stroke="black" points="704.11,-362.5 704.11,-382.5"/>
<text text-anchor="middle" x="717.44" y="-369.5" font-family="Times,serif" font-size="10.00">R</text>
</g>
<!-- ast_nodeRRR&#45;&gt;ast_nodeRRRR -->
<g id="edge36" class="edge">
<title>ast_nodeRRR:R&#45;&gt;ast_nodeRRRR:A</title>
<path fill="none" stroke="black" d="M575,-461.5C625.67,-461.5 623.03,-402.36 665.79,-393.58"/>
<polygon fill="black" stroke="black" points="665.88,-397.09 675.49,-392.65 665.2,-390.12 665.88,-397.09"/>
</g>
<!-- ast_nodeRRRLL -->
<g id="node25" class="node">
<title>ast_nodeRRRLL</title>
<polygon fill="none" stroke="black" points="471,-267.5 471,-319.5 525,-319.5 525,-267.5 471,-267.5"/>
<text text-anchor="middle" x="497.89" y="-306.5" font-family="Times,serif" font-size="10.00">ID</text>
<text text-anchor="middle" x="497.89" y="-294.5" font-family="Times,serif" font-size="10.00">DIV</text>
<polyline fill="none" stroke="black" points="471,-287.5 524.78,-287.5"/>
<text text-anchor="middle" x="484.05" y="-274.5" font-family="Times,serif" font-size="10.00">L</text>
<polyline fill="none" stroke="black" points="497.11,-267.5 497.11,-287.5"/>
<text text-anchor="middle" x="510.94" y="-274.5" font-family="Times,serif" font-size="10.00">R</text>
</g>
<!-- ast_nodeRRRL&#45;&gt;ast_nodeRRRLL -->
<g id="edge19" class="edge">
<title>ast_nodeRRRL:L&#45;&gt;ast_nodeRRRLL:A</title>
<path fill="none" stroke="black" d="M520,-361.5C520,-345.19 506.57,-341.78 500.7,-331.11"/>
<polygon fill="black" stroke="black" points="504.12,-330.36 498.36,-321.47 497.32,-332.01 504.12,-330.36"/>
</g>
<!-- ast_nodeRRRLR -->
<g id="node26" class="node">
<title>ast_nodeRRRLR</title>
<polygon fill="none" stroke="black" points="543,-273.5 543,-313.5 597,-313.5 597,-273.5 543,-273.5"/>
<text text-anchor="middle" x="569.95" y="-300.5" font-family="Times,serif" font-size="10.00">PARMS</text>
<polyline fill="none" stroke="black" points="543,-293.5 596.91,-293.5"/>
<text text-anchor="middle" x="556.05" y="-280.5" font-family="Times,serif" font-size="10.00">L</text>
<polyline fill="none" stroke="black" points="569.11,-273.5 569.11,-293.5"/>
<text text-anchor="middle" x="582.94" y="-280.5" font-family="Times,serif" font-size="10.00">R</text>
</g>
<!-- ast_nodeRRRL&#45;&gt;ast_nodeRRRLR -->
<g id="edge23" class="edge">
<title>ast_nodeRRRL:R&#45;&gt;ast_nodeRRRLR:A</title>
<path fill="none" stroke="black" d="M547,-361.5C547,-342.6 562.18,-338.74 567.88,-325.48"/>
<polygon fill="black" stroke="black" points="571.25,-326.47 569.71,-315.99 564.38,-325.14 571.25,-326.47"/>
</g>
<!-- ast_nodeRRRLRL -->
<g id="node27" class="node">
<title>ast_nodeRRRLRL</title>
<polygon fill="none" stroke="black" points="484,-178.5 484,-230.5 538,-230.5 538,-178.5 484,-178.5"/>
<text text-anchor="middle" x="510.89" y="-217.5" font-family="Times,serif" font-size="10.00">ID</text>
<text text-anchor="middle" x="510.89" y="-205.5" font-family="Times,serif" font-size="10.00">WPARM</text>
<polyline fill="none" stroke="black" points="484,-198.5 537.78,-198.5"/>
<text text-anchor="middle" x="497.05" y="-185.5" font-family="Times,serif" font-size="10.00">L</text>
<polyline fill="none" stroke="black" points="510.11,-178.5 510.11,-198.5"/>
<text text-anchor="middle" x="523.94" y="-185.5" font-family="Times,serif" font-size="10.00">R</text>
</g>
<!-- ast_nodeRRRLR&#45;&gt;ast_nodeRRRLRL -->
<g id="edge20" class="edge">
<title>ast_nodeRRRLR:L&#45;&gt;ast_nodeRRRLRL:A</title>
<path fill="none" stroke="black" d="M556,-272.5C556,-270.07 548.88,-240.86 543.66,-224.85"/>
<polygon fill="black" stroke="black" points="546.92,-223.56 539.62,-215.88 540.53,-226.44 546.92,-223.56"/>
</g>
<!-- ast_nodeRRRLRR -->
<g id="node28" class="node">
<title>ast_nodeRRRLRR</title>
<polygon fill="none" stroke="black" points="556,-184.5 556,-224.5 610,-224.5 610,-184.5 556,-184.5"/>
<text text-anchor="middle" x="582.95" y="-211.5" font-family="Times,serif" font-size="10.00">PARMS</text>
<polyline fill="none" stroke="black" points="556,-204.5 609.91,-204.5"/>
<text text-anchor="middle" x="569.05" y="-191.5" font-family="Times,serif" font-size="10.00">L</text>
<polyline fill="none" stroke="black" points="582.11,-184.5 582.11,-204.5"/>
<text text-anchor="middle" x="595.94" y="-191.5" font-family="Times,serif" font-size="10.00">R</text>
</g>
<!-- ast_nodeRRRLR&#45;&gt;ast_nodeRRRLRR -->
<g id="edge22" class="edge">
<title>ast_nodeRRRLR:R&#45;&gt;ast_nodeRRRLRR:A</title>
<path fill="none" stroke="black" d="M583,-272.5C583,-256.02 583,-249.29 583,-236.92"/>
<polygon fill="black" stroke="black" points="586.5,-237.01 583,-227.01 579.5,-237.01 586.5,-237.01"/>
</g>
<!-- ast_nodeRRRLRRL -->
<g id="node29" class="node">
<title>ast_nodeRRRLRRL</title>
<polygon fill="none" stroke="black" points="540.44,-89.5 540.44,-141.5 597.56,-141.5 597.56,-89.5 540.44,-89.5"/>
<text text-anchor="middle" x="569" y="-128.5" font-family="Times,serif" font-size="10.00">ID</text>
<text text-anchor="middle" x="569" y="-116.5" font-family="Times,serif" font-size="10.00">BFRAME</text>
<polyline fill="none" stroke="black" points="540.44,-109.5 597.56,-109.5"/>
<text text-anchor="middle" x="554.49" y="-96.5" font-family="Times,serif" font-size="10.00">L</text>
<polyline fill="none" stroke="black" points="568.55,-89.5 568.55,-109.5"/>
<text text-anchor="middle" x="582.88" y="-96.5" font-family="Times,serif" font-size="10.00">R</text>
</g>
<!-- ast_nodeRRRLRR&#45;&gt;ast_nodeRRRLRRL -->
<g id="edge21" class="edge">
<title>ast_nodeRRRLRR:L&#45;&gt;ast_nodeRRRLRRL:A</title>
<path fill="none" stroke="black" d="M569,-183.5C569,-169.52 569,-163.49 569,-153.36"/>
<polygon fill="black" stroke="black" points="572.5,-153.51 569,-143.51 565.5,-153.51 572.5,-153.51"/>
</g>
<!-- ast_nodeRRRRL -->
<g id="node31" class="node">
<title>ast_nodeRRRRL</title>
<polygon fill="none" stroke="black" points="664,-273.5 664,-313.5 718,-313.5 718,-273.5 664,-273.5"/>
<text text-anchor="middle" x="690.89" y="-300.5" font-family="Times,serif" font-size="10.00">CALL</text>
<polyline fill="none" stroke="black" points="664,-293.5 717.78,-293.5"/>
<text text-anchor="middle" x="677.05" y="-280.5" font-family="Times,serif" font-size="10.00">L</text>
<polyline fill="none" stroke="black" points="690.11,-273.5 690.11,-293.5"/>
<text text-anchor="middle" x="703.94" y="-280.5" font-family="Times,serif" font-size="10.00">R</text>
</g>
<!-- ast_nodeRRRR&#45;&gt;ast_nodeRRRRL -->
<g id="edge30" class="edge">
<title>ast_nodeRRRR:L&#45;&gt;ast_nodeRRRRL:A</title>
<path fill="none" stroke="black" d="M691,-361.5C691,-345.02 691,-338.29 691,-325.92"/>
<polygon fill="black" stroke="black" points="694.5,-326.01 691,-316.01 687.5,-326.01 694.5,-326.01"/>
</g>
<!-- ast_nodeRRRRR -->
<g id="node37" class="node">
<title>ast_nodeRRRRR</title>
<polygon fill="none" stroke="black" points="785,-273.5 785,-313.5 839,-313.5 839,-273.5 785,-273.5"/>
<text text-anchor="middle" x="811.62" y="-300.5" font-family="Times,serif" font-size="10.00">STMTS</text>
<polyline fill="none" stroke="black" points="785,-293.5 838.23,-293.5"/>
<text text-anchor="middle" x="798.05" y="-280.5" font-family="Times,serif" font-size="10.00">L</text>
<polyline fill="none" stroke="black" points="811.11,-273.5 811.11,-293.5"/>
<text text-anchor="middle" x="824.44" y="-280.5" font-family="Times,serif" font-size="10.00">R</text>
</g>
<!-- ast_nodeRRRR&#45;&gt;ast_nodeRRRRR -->
<g id="edge35" class="edge">
<title>ast_nodeRRRR:R&#45;&gt;ast_nodeRRRRR:A</title>
<path fill="none" stroke="black" d="M732,-372.5C765.9,-372.5 750.54,-318.72 772.9,-306.12"/>
<polygon fill="black" stroke="black" points="773.6,-309.55 782.53,-303.85 771.99,-302.74 773.6,-309.55"/>
</g>
<!-- ast_nodeRRRRLL -->
<g id="node32" class="node">
<title>ast_nodeRRRRLL</title>
<polygon fill="none" stroke="black" points="628,-178.5 628,-230.5 682,-230.5 682,-178.5 628,-178.5"/>
<text text-anchor="middle" x="654.56" y="-217.5" font-family="Times,serif" font-size="10.00">ID</text>
<text text-anchor="middle" x="654.56" y="-205.5" font-family="Times,serif" font-size="10.00">ASSIGN</text>
<polyline fill="none" stroke="black" points="628,-198.5 681.12,-198.5"/>
<text text-anchor="middle" x="641.05" y="-185.5" font-family="Times,serif" font-size="10.00">L</text>
<polyline fill="none" stroke="black" points="654.11,-178.5 654.11,-198.5"/>
<text text-anchor="middle" x="667.44" y="-185.5" font-family="Times,serif" font-size="10.00">R</text>
</g>
<!-- ast_nodeRRRRL&#45;&gt;ast_nodeRRRRLL -->
<g id="edge25" class="edge">
<title>ast_nodeRRRRL:L&#45;&gt;ast_nodeRRRRLL:A</title>
<path fill="none" stroke="black" d="M677,-272.5C677,-256.19 663.57,-252.78 657.7,-242.11"/>
<polygon fill="black" stroke="black" points="661.12,-241.36 655.36,-232.47 654.32,-243.01 661.12,-241.36"/>
</g>
<!-- ast_nodeRRRRLR -->
<g id="node33" class="node">
<title>ast_nodeRRRRLR</title>
<polygon fill="none" stroke="black" points="700,-184.5 700,-224.5 754,-224.5 754,-184.5 700,-184.5"/>
<text text-anchor="middle" x="726.95" y="-211.5" font-family="Times,serif" font-size="10.00">PARMS</text>
<polyline fill="none" stroke="black" points="700,-204.5 753.91,-204.5"/>
<text text-anchor="middle" x="713.05" y="-191.5" font-family="Times,serif" font-size="10.00">L</text>
<polyline fill="none" stroke="black" points="726.11,-184.5 726.11,-204.5"/>
<text text-anchor="middle" x="739.94" y="-191.5" font-family="Times,serif" font-size="10.00">R</text>
</g>
<!-- ast_nodeRRRRL&#45;&gt;ast_nodeRRRRLR -->
<g id="edge29" class="edge">
<title>ast_nodeRRRRL:R&#45;&gt;ast_nodeRRRRLR:A</title>
<path fill="none" stroke="black" d="M704,-272.5C704,-253.6 719.18,-249.74 724.88,-236.48"/>
<polygon fill="black" stroke="black" points="728.25,-237.47 726.71,-226.99 721.38,-236.14 728.25,-237.47"/>
</g>
<!-- ast_nodeRRRRLRL -->
<g id="node34" class="node">
<title>ast_nodeRRRRLRL</title>
<polygon fill="none" stroke="black" points="623.5,-89.5 623.5,-141.5 694.5,-141.5 694.5,-89.5 623.5,-89.5"/>
<text text-anchor="middle" x="659" y="-128.5" font-family="Times,serif" font-size="10.00">ID</text>
<text text-anchor="middle" x="659" y="-116.5" font-family="Times,serif" font-size="10.00">IDS_PITFUL</text>
<polyline fill="none" stroke="black" points="623.5,-109.5 694.5,-109.5"/>
<text text-anchor="middle" x="641.05" y="-96.5" font-family="Times,serif" font-size="10.00">L</text>
<polyline fill="none" stroke="black" points="658.61,-89.5 658.61,-109.5"/>
<text text-anchor="middle" x="676.44" y="-96.5" font-family="Times,serif" font-size="10.00">R</text>
</g>
<!-- ast_nodeRRRRLR&#45;&gt;ast_nodeRRRRLRL -->
<g id="edge26" class="edge">
<title>ast_nodeRRRRLR:L&#45;&gt;ast_nodeRRRRLRL:A</title>
<path fill="none" stroke="black" d="M713,-183.5C713,-181.07 705.88,-151.86 700.66,-135.85"/>
<polygon fill="black" stroke="black" points="703.92,-134.56 696.62,-126.88 697.53,-137.44 703.92,-134.56"/>
</g>
<!-- ast_nodeRRRRLRR -->
<g id="node35" class="node">
<title>ast_nodeRRRRLRR</title>
<polygon fill="none" stroke="black" points="713,-95.5 713,-135.5 767,-135.5 767,-95.5 713,-95.5"/>
<text text-anchor="middle" x="739.95" y="-122.5" font-family="Times,serif" font-size="10.00">PARMS</text>
<polyline fill="none" stroke="black" points="713,-115.5 766.91,-115.5"/>
<text text-anchor="middle" x="726.05" y="-102.5" font-family="Times,serif" font-size="10.00">L</text>
<polyline fill="none" stroke="black" points="739.11,-95.5 739.11,-115.5"/>
<text text-anchor="middle" x="752.94" y="-102.5" font-family="Times,serif" font-size="10.00">R</text>
</g>
<!-- ast_nodeRRRRLR&#45;&gt;ast_nodeRRRRLRR -->
<g id="edge28" class="edge">
<title>ast_nodeRRRRLR:R&#45;&gt;ast_nodeRRRRLRR:A</title>
<path fill="none" stroke="black" d="M740,-183.5C740,-167.02 740,-160.29 740,-147.92"/>
<polygon fill="black" stroke="black" points="743.5,-148.01 740,-138.01 736.5,-148.01 743.5,-148.01"/>
</g>
<!-- ast_nodeRRRRLRRL -->
<g id="node36" class="node">
<title>ast_nodeRRRRLRRL</title>
<polygon fill="none" stroke="black" points="696.61,-0.5 696.61,-52.5 755.39,-52.5 755.39,-0.5 696.61,-0.5"/>
<text text-anchor="middle" x="726" y="-39.5" font-family="Times,serif" font-size="10.00">ID</text>
<text text-anchor="middle" x="726" y="-27.5" font-family="Times,serif" font-size="10.00">WSPRITE</text>
<polyline fill="none" stroke="black" points="696.61,-20.5 755.39,-20.5"/>
<text text-anchor="middle" x="711.17" y="-7.5" font-family="Times,serif" font-size="10.00">L</text>
<polyline fill="none" stroke="black" points="725.72,-0.5 725.72,-20.5"/>
<text text-anchor="middle" x="740.55" y="-7.5" font-family="Times,serif" font-size="10.00">R</text>
</g>
<!-- ast_nodeRRRRLRR&#45;&gt;ast_nodeRRRRLRRL -->
<g id="edge27" class="edge">
<title>ast_nodeRRRRLRR:L&#45;&gt;ast_nodeRRRRLRRL:A</title>
<path fill="none" stroke="black" d="M726,-94.5C726,-80.52 726,-74.49 726,-64.36"/>
<polygon fill="black" stroke="black" points="729.5,-64.51 726,-54.51 722.5,-64.51 729.5,-64.51"/>
</g>
<!-- ast_nodeRRRRRL -->
<g id="node38" class="node">
<title>ast_nodeRRRRRL</title>
<polygon fill="none" stroke="black" points="799,-184.5 799,-224.5 853,-224.5 853,-184.5 799,-184.5"/>
<text text-anchor="middle" x="825.89" y="-211.5" font-family="Times,serif" font-size="10.00">CALL</text>
<polyline fill="none" stroke="black" points="799,-204.5 852.78,-204.5"/>
<text text-anchor="middle" x="812.05" y="-191.5" font-family="Times,serif" font-size="10.00">L</text>
<polyline fill="none" stroke="black" points="825.11,-184.5 825.11,-204.5"/>
<text text-anchor="middle" x="838.94" y="-191.5" font-family="Times,serif" font-size="10.00">R</text>
</g>
<!-- ast_nodeRRRRR&#45;&gt;ast_nodeRRRRRL -->
<g id="edge34" class="edge">
<title>ast_nodeRRRRR:L&#45;&gt;ast_nodeRRRRRL:A</title>
<path fill="none" stroke="black" d="M798,-272.5C798,-252.55 816.84,-250.07 823.61,-236.4"/>
<polygon fill="black" stroke="black" points="826.95,-237.5 825.68,-226.98 820.12,-236 826.95,-237.5"/>
</g>
<!-- ast_nodeRRRRRLL -->
<g id="node39" class="node">
<title>ast_nodeRRRRRLL</title>
<polygon fill="none" stroke="black" points="785,-89.5 785,-141.5 839,-141.5 839,-89.5 785,-89.5"/>
<text text-anchor="middle" x="811.72" y="-128.5" font-family="Times,serif" font-size="10.00">ID</text>
<text text-anchor="middle" x="811.72" y="-116.5" font-family="Times,serif" font-size="10.00">SHOW</text>
<polyline fill="none" stroke="black" points="785,-109.5 838.44,-109.5"/>
<text text-anchor="middle" x="798.05" y="-96.5" font-family="Times,serif" font-size="10.00">L</text>
<polyline fill="none" stroke="black" points="811.11,-89.5 811.11,-109.5"/>
<text text-anchor="middle" x="824.44" y="-96.5" font-family="Times,serif" font-size="10.00">R</text>
</g>
<!-- ast_nodeRRRRRL&#45;&gt;ast_nodeRRRRRLL -->
<g id="edge31" class="edge">
<title>ast_nodeRRRRRL:L&#45;&gt;ast_nodeRRRRRLL:A</title>
<path fill="none" stroke="black" d="M812,-183.5C812,-169.52 812,-163.49 812,-153.36"/>
<polygon fill="black" stroke="black" points="815.5,-153.51 812,-143.51 808.5,-153.51 815.5,-153.51"/>
</g>
<!-- ast_nodeRRRRRLR -->
<g id="node40" class="node">
<title>ast_nodeRRRRRLR</title>
<polygon fill="none" stroke="black" points="857,-95.5 857,-135.5 911,-135.5 911,-95.5 857,-95.5"/>
<text text-anchor="middle" x="883.95" y="-122.5" font-family="Times,serif" font-size="10.00">PARMS</text>
<polyline fill="none" stroke="black" points="857,-115.5 910.91,-115.5"/>
<text text-anchor="middle" x="870.05" y="-102.5" font-family="Times,serif" font-size="10.00">L</text>
<polyline fill="none" stroke="black" points="883.11,-95.5 883.11,-115.5"/>
<text text-anchor="middle" x="896.94" y="-102.5" font-family="Times,serif" font-size="10.00">R</text>
</g>
<!-- ast_nodeRRRRRL&#45;&gt;ast_nodeRRRRRLR -->
<g id="edge33" class="edge">
<title>ast_nodeRRRRRL:R&#45;&gt;ast_nodeRRRRRLR:A</title>
<path fill="none" stroke="black" d="M839,-183.5C839,-181.07 846.12,-151.86 851.34,-135.85"/>
<polygon fill="black" stroke="black" points="854.47,-137.44 855.38,-126.88 848.08,-134.56 854.47,-137.44"/>
</g>
<!-- ast_nodeRRRRRLRL -->
<g id="node41" class="node">
<title>ast_nodeRRRRRLRL</title>
<polygon fill="none" stroke="black" points="840.61,-0.5 840.61,-52.5 899.39,-52.5 899.39,-0.5 840.61,-0.5"/>
<text text-anchor="middle" x="870" y="-39.5" font-family="Times,serif" font-size="10.00">ID</text>
<text text-anchor="middle" x="870" y="-27.5" font-family="Times,serif" font-size="10.00">WSPRITE</text>
<polyline fill="none" stroke="black" points="840.61,-20.5 899.39,-20.5"/>
<text text-anchor="middle" x="855.17" y="-7.5" font-family="Times,serif" font-size="10.00">L</text>
<polyline fill="none" stroke="black" points="869.72,-0.5 869.72,-20.5"/>
<text text-anchor="middle" x="884.55" y="-7.5" font-family="Times,serif" font-size="10.00">R</text>
</g>
<!-- ast_nodeRRRRRLR&#45;&gt;ast_nodeRRRRRLRL -->
<g id="edge32" class="edge">
<title>ast_nodeRRRRRLR:L&#45;&gt;ast_nodeRRRRRLRL:A</title>
<path fill="none" stroke="black" d="M870,-94.5C870,-80.52 870,-74.49 870,-64.36"/>
<polygon fill="black" stroke="black" points="873.5,-64.51 870,-54.51 866.5,-64.51 873.5,-64.51"/>
</g>
<!-- code -->
<g id="node42" class="node">
<title>code</title>
<polygon fill="none" stroke="black" points="195,-700.5 195,-828.5 415,-828.5 415,-700.5 195,-700.5"/>
<polygon fill="none" stroke="black" points="206,-801.5 206,-821.5 404,-821.5 404,-801.5 206,-801.5"/>
<text text-anchor="start" x="290.6" y="-808.7" font-family="Courier New" font-weight="bold" font-size="12.00">code</text>
<polygon fill="none" stroke="black" points="206,-707.5 206,-799.5 404,-799.5 404,-707.5 206,-707.5"/>
<text text-anchor="start" x="209" y="-785.7" font-family="Times,serif" font-size="12.00" fill="blue"> &#160;&#160;&#160;ASSIGN(BFRAME,9);</text>
<text text-anchor="start" x="209" y="-771.3" font-family="Times,serif" font-size="12.00" fill="blue"> &#160;&#160;&#160;MUL(BFRAME,BPARM);</text>
<text text-anchor="start" x="209" y="-756.9" font-family="Times,serif" font-size="12.00" fill="blue"> &#160;&#160;&#160;ASSIGN(WPARM,MAX_DRYPIT);</text>
<text text-anchor="start" x="209" y="-742.5" font-family="Times,serif" font-size="12.00" fill="blue"> &#160;&#160;&#160;DIV(BFRAME,WPARM);</text>
<text text-anchor="start" x="209" y="-728.1" font-family="Times,serif" font-size="12.00" fill="blue"> &#160;&#160;&#160;ASSIGN(WSPRITE,IDS_PITFUL);</text>
<text text-anchor="start" x="209" y="-713.7" font-family="Times,serif" font-size="12.00" fill="blue"> &#160;&#160;&#160;SHOW(WSPRITE);</text>
<polygon fill="none" stroke="black" points="203,-704.5 203,-824.5 407,-824.5 407,-704.5 203,-704.5"/>
</g>
</g>
</svg>
