<?xml version="1.0" encoding="UTF-8" standalone="no"?>
<!DOCTYPE svg PUBLIC "-//W3C//DTD SVG 1.1//EN"
 "http://www.w3.org/Graphics/SVG/1.1/DTD/svg11.dtd">
<!-- Generated by graphviz version 7.1.0 (20230121.1956)
 -->
<!-- Title: AbstractSyntaxTree Pages: 1 -->
<svg width="637pt" height="719pt"
 viewBox="0.00 0.00 637.05 719.00" xmlns="http://www.w3.org/2000/svg" xmlns:xlink="http://www.w3.org/1999/xlink">
<g id="graph0" class="graph" transform="scale(1 1) rotate(0) translate(4 715)">
<title>AbstractSyntaxTree</title>
<polygon fill="white" stroke="none" points="-4,4 -4,-715 633.05,-715 633.05,4 -4,4"/>
<!-- filename -->
<g id="node1" class="node">
<title>filename</title>
<polygon fill="none" stroke="black" points="26.05,-643 26.05,-679 116.05,-679 116.05,-643 26.05,-643"/>
<text text-anchor="middle" x="71.05" y="-657.4" font-family="Times,serif" font-size="12.00">S10_FLOWER</text>
</g>
<!-- ast_node -->
<g id="node2" class="node">
<title>ast_node</title>
<polygon fill="none" stroke="black" points="134.05,-641 134.05,-681 188.05,-681 188.05,-641 134.05,-641"/>
<text text-anchor="middle" x="160.67" y="-668" font-family="Times,serif" font-size="10.00">STMTS</text>
<polyline fill="none" stroke="black" points="134.05,-661 187.28,-661"/>
<text text-anchor="middle" x="147.11" y="-648" font-family="Times,serif" font-size="10.00">L</text>
<polyline fill="none" stroke="black" points="160.16,-641 160.16,-661"/>
<text text-anchor="middle" x="173.5" y="-648" font-family="Times,serif" font-size="10.00">R</text>
</g>
<!-- ast_nodeL -->
<g id="node3" class="node">
<title>ast_nodeL</title>
<polygon fill="none" stroke="black" points="77.05,-534.5 77.05,-574.5 131.05,-574.5 131.05,-534.5 77.05,-534.5"/>
<text text-anchor="middle" x="103.94" y="-561.5" font-family="Times,serif" font-size="10.00">CALL</text>
<polyline fill="none" stroke="black" points="77.05,-554.5 130.83,-554.5"/>
<text text-anchor="middle" x="90.11" y="-541.5" font-family="Times,serif" font-size="10.00">L</text>
<polyline fill="none" stroke="black" points="103.16,-534.5 103.16,-554.5"/>
<text text-anchor="middle" x="117" y="-541.5" font-family="Times,serif" font-size="10.00">R</text>
</g>
<!-- ast_node&#45;&gt;ast_nodeL -->
<g id="edge4" class="edge">
<title>ast_node:L&#45;&gt;ast_nodeL:A</title>
<path fill="none" stroke="black" d="M147.05,-640C147.05,-610.33 161.5,-575.34 143.03,-566.57"/>
<polygon fill="black" stroke="black" points="144.01,-563.2 133.54,-564.78 142.72,-570.08 144.01,-563.2"/>
</g>
<!-- ast_nodeR -->
<g id="node7" class="node">
<title>ast_nodeR</title>
<polygon fill="none" stroke="black" points="189.05,-534.5 189.05,-574.5 243.05,-574.5 243.05,-534.5 189.05,-534.5"/>
<text text-anchor="middle" x="215.67" y="-561.5" font-family="Times,serif" font-size="10.00">STMTS</text>
<polyline fill="none" stroke="black" points="189.05,-554.5 242.28,-554.5"/>
<text text-anchor="middle" x="202.11" y="-541.5" font-family="Times,serif" font-size="10.00">L</text>
<polyline fill="none" stroke="black" points="215.16,-534.5 215.16,-554.5"/>
<text text-anchor="middle" x="228.5" y="-541.5" font-family="Times,serif" font-size="10.00">R</text>
</g>
<!-- ast_node&#45;&gt;ast_nodeR -->
<g id="edge25" class="edge">
<title>ast_node:R&#45;&gt;ast_nodeR:A</title>
<path fill="none" stroke="black" d="M173.05,-640C173.05,-610.33 158.6,-575.34 177.08,-566.57"/>
<polygon fill="black" stroke="black" points="177.39,-570.08 186.56,-564.78 176.09,-563.2 177.39,-570.08"/>
</g>
<!-- ast_nodeLL -->
<g id="node4" class="node">
<title>ast_nodeLL</title>
<polygon fill="none" stroke="black" points="0,-445.5 0,-497.5 72.1,-497.5 72.1,-445.5 0,-445.5"/>
<text text-anchor="middle" x="36.05" y="-484.5" font-family="Times,serif" font-size="10.00">ID</text>
<text text-anchor="middle" x="36.05" y="-472.5" font-family="Times,serif" font-size="10.00">PLAYWAVE</text>
<polyline fill="none" stroke="black" points="0,-465.5 72.1,-465.5"/>
<text text-anchor="middle" x="17.55" y="-452.5" font-family="Times,serif" font-size="10.00">L</text>
<polyline fill="none" stroke="black" points="35.11,-445.5 35.11,-465.5"/>
<text text-anchor="middle" x="53.44" y="-452.5" font-family="Times,serif" font-size="10.00">R</text>
</g>
<!-- ast_nodeL&#45;&gt;ast_nodeLL -->
<g id="edge1" class="edge">
<title>ast_nodeL:L&#45;&gt;ast_nodeLL:A</title>
<path fill="none" stroke="black" d="M90.05,-534C90.05,-531.82 83.01,-506.2 77.84,-491.58"/>
<polygon fill="black" stroke="black" points="81.15,-490.4 73.7,-482.87 74.83,-493.4 81.15,-490.4"/>
</g>
<!-- ast_nodeLR -->
<g id="node5" class="node">
<title>ast_nodeLR</title>
<polygon fill="none" stroke="black" points="90.05,-451.5 90.05,-491.5 144.05,-491.5 144.05,-451.5 90.05,-451.5"/>
<text text-anchor="middle" x="117" y="-478.5" font-family="Times,serif" font-size="10.00">PARMS</text>
<polyline fill="none" stroke="black" points="90.05,-471.5 143.96,-471.5"/>
<text text-anchor="middle" x="103.11" y="-458.5" font-family="Times,serif" font-size="10.00">L</text>
<polyline fill="none" stroke="black" points="116.16,-451.5 116.16,-471.5"/>
<text text-anchor="middle" x="130" y="-458.5" font-family="Times,serif" font-size="10.00">R</text>
</g>
<!-- ast_nodeL&#45;&gt;ast_nodeLR -->
<g id="edge3" class="edge">
<title>ast_nodeL:R&#45;&gt;ast_nodeLR:A</title>
<path fill="none" stroke="black" d="M117.05,-534C117.05,-520.02 117.05,-513.99 117.05,-503.86"/>
<polygon fill="black" stroke="black" points="120.55,-504.01 117.05,-494.01 113.55,-504.01 120.55,-504.01"/>
</g>
<!-- ast_nodeLRL -->
<g id="node6" class="node">
<title>ast_nodeLRL</title>
<polygon fill="none" stroke="black" points="14.77,-356.5 14.77,-408.5 121.33,-408.5 121.33,-356.5 14.77,-356.5"/>
<text text-anchor="middle" x="68.05" y="-395.5" font-family="Times,serif" font-size="10.00">ID</text>
<text text-anchor="middle" x="68.05" y="-383.5" font-family="Times,serif" font-size="10.00">SOUND_BUZZFUZZ</text>
<polyline fill="none" stroke="black" points="14.77,-376.5 121.33,-376.5"/>
<text text-anchor="middle" x="40.83" y="-363.5" font-family="Times,serif" font-size="10.00">L</text>
<polyline fill="none" stroke="black" points="66.88,-356.5 66.88,-376.5"/>
<text text-anchor="middle" x="93.72" y="-363.5" font-family="Times,serif" font-size="10.00">R</text>
</g>
<!-- ast_nodeLR&#45;&gt;ast_nodeLRL -->
<g id="edge2" class="edge">
<title>ast_nodeLR:L&#45;&gt;ast_nodeLRL:A</title>
<path fill="none" stroke="black" d="M103.05,-450.5C103.05,-441.28 118.09,-417.8 123.47,-403.7"/>
<polygon fill="black" stroke="black" points="126.97,-403.48 122.24,-394 120.03,-404.36 126.97,-403.48"/>
</g>
<!-- ast_nodeRL -->
<g id="node8" class="node">
<title>ast_nodeRL</title>
<polygon fill="none" stroke="black" points="175.05,-451.5 175.05,-491.5 229.05,-491.5 229.05,-451.5 175.05,-451.5"/>
<text text-anchor="middle" x="201.94" y="-478.5" font-family="Times,serif" font-size="10.00">CALL</text>
<polyline fill="none" stroke="black" points="175.05,-471.5 228.83,-471.5"/>
<text text-anchor="middle" x="188.11" y="-458.5" font-family="Times,serif" font-size="10.00">L</text>
<polyline fill="none" stroke="black" points="201.16,-451.5 201.16,-471.5"/>
<text text-anchor="middle" x="215" y="-458.5" font-family="Times,serif" font-size="10.00">R</text>
</g>
<!-- ast_nodeR&#45;&gt;ast_nodeRL -->
<g id="edge10" class="edge">
<title>ast_nodeR:L&#45;&gt;ast_nodeRL:A</title>
<path fill="none" stroke="black" d="M202.05,-534C202.05,-520.02 202.05,-513.99 202.05,-503.86"/>
<polygon fill="black" stroke="black" points="205.55,-504.01 202.05,-494.01 198.55,-504.01 205.55,-504.01"/>
</g>
<!-- ast_nodeRR -->
<g id="node14" class="node">
<title>ast_nodeRR</title>
<polygon fill="none" stroke="black" points="352.05,-451.5 352.05,-491.5 406.05,-491.5 406.05,-451.5 352.05,-451.5"/>
<text text-anchor="middle" x="378.67" y="-478.5" font-family="Times,serif" font-size="10.00">STMTS</text>
<polyline fill="none" stroke="black" points="352.05,-471.5 405.28,-471.5"/>
<text text-anchor="middle" x="365.11" y="-458.5" font-family="Times,serif" font-size="10.00">L</text>
<polyline fill="none" stroke="black" points="378.16,-451.5 378.16,-471.5"/>
<text text-anchor="middle" x="391.5" y="-458.5" font-family="Times,serif" font-size="10.00">R</text>
</g>
<!-- ast_nodeR&#45;&gt;ast_nodeRR -->
<g id="edge24" class="edge">
<title>ast_nodeR:R&#45;&gt;ast_nodeRR:A</title>
<path fill="none" stroke="black" d="M243.05,-544.5C294.5,-544.5 295.62,-490.5 339.6,-482.49"/>
<polygon fill="black" stroke="black" points="339.88,-485.98 349.54,-481.63 339.28,-479 339.88,-485.98"/>
</g>
<!-- ast_nodeRLL -->
<g id="node9" class="node">
<title>ast_nodeRLL</title>
<polygon fill="none" stroke="black" points="139.05,-356.5 139.05,-408.5 193.05,-408.5 193.05,-356.5 139.05,-356.5"/>
<text text-anchor="middle" x="165.77" y="-395.5" font-family="Times,serif" font-size="10.00">ID</text>
<text text-anchor="middle" x="165.77" y="-383.5" font-family="Times,serif" font-size="10.00">SHOW</text>
<polyline fill="none" stroke="black" points="139.05,-376.5 192.5,-376.5"/>
<text text-anchor="middle" x="152.11" y="-363.5" font-family="Times,serif" font-size="10.00">L</text>
<polyline fill="none" stroke="black" points="165.16,-356.5 165.16,-376.5"/>
<text text-anchor="middle" x="178.5" y="-363.5" font-family="Times,serif" font-size="10.00">R</text>
</g>
<!-- ast_nodeRL&#45;&gt;ast_nodeRLL -->
<g id="edge5" class="edge">
<title>ast_nodeRL:L&#45;&gt;ast_nodeRLL:A</title>
<path fill="none" stroke="black" d="M188.05,-450.5C188.05,-434.19 174.62,-430.78 168.75,-420.11"/>
<polygon fill="black" stroke="black" points="172.17,-419.36 166.41,-410.47 165.37,-421.01 172.17,-419.36"/>
</g>
<!-- ast_nodeRLR -->
<g id="node10" class="node">
<title>ast_nodeRLR</title>
<polygon fill="none" stroke="black" points="211.05,-362.5 211.05,-402.5 265.05,-402.5 265.05,-362.5 211.05,-362.5"/>
<text text-anchor="middle" x="238" y="-389.5" font-family="Times,serif" font-size="10.00">PARMS</text>
<polyline fill="none" stroke="black" points="211.05,-382.5 264.96,-382.5"/>
<text text-anchor="middle" x="224.11" y="-369.5" font-family="Times,serif" font-size="10.00">L</text>
<polyline fill="none" stroke="black" points="237.16,-362.5 237.16,-382.5"/>
<text text-anchor="middle" x="251" y="-369.5" font-family="Times,serif" font-size="10.00">R</text>
</g>
<!-- ast_nodeRL&#45;&gt;ast_nodeRLR -->
<g id="edge9" class="edge">
<title>ast_nodeRL:R&#45;&gt;ast_nodeRLR:A</title>
<path fill="none" stroke="black" d="M215.05,-450.5C215.05,-431.6 230.24,-427.74 235.93,-414.48"/>
<polygon fill="black" stroke="black" points="239.3,-415.47 237.76,-404.99 232.43,-414.14 239.3,-415.47"/>
</g>
<!-- ast_nodeRLRL -->
<g id="node11" class="node">
<title>ast_nodeRLRL</title>
<polygon fill="none" stroke="black" points="132.16,-267.5 132.16,-319.5 205.95,-319.5 205.95,-267.5 132.16,-267.5"/>
<text text-anchor="middle" x="169.05" y="-306.5" font-family="Times,serif" font-size="10.00">ID</text>
<text text-anchor="middle" x="169.05" y="-294.5" font-family="Times,serif" font-size="10.00">IDS_FLOPN1</text>
<polyline fill="none" stroke="black" points="132.16,-287.5 205.95,-287.5"/>
<text text-anchor="middle" x="150.21" y="-274.5" font-family="Times,serif" font-size="10.00">L</text>
<polyline fill="none" stroke="black" points="168.27,-267.5 168.27,-287.5"/>
<text text-anchor="middle" x="187.1" y="-274.5" font-family="Times,serif" font-size="10.00">R</text>
</g>
<!-- ast_nodeRLR&#45;&gt;ast_nodeRLRL -->
<g id="edge6" class="edge">
<title>ast_nodeRLR:L&#45;&gt;ast_nodeRLRL:A</title>
<path fill="none" stroke="black" d="M224.05,-361.5C224.05,-359.07 216.93,-329.86 211.71,-313.85"/>
<polygon fill="black" stroke="black" points="214.97,-312.56 207.67,-304.88 208.58,-315.44 214.97,-312.56"/>
</g>
<!-- ast_nodeRLRR -->
<g id="node12" class="node">
<title>ast_nodeRLRR</title>
<polygon fill="none" stroke="black" points="224.05,-273.5 224.05,-313.5 278.05,-313.5 278.05,-273.5 224.05,-273.5"/>
<text text-anchor="middle" x="251" y="-300.5" font-family="Times,serif" font-size="10.00">PARMS</text>
<polyline fill="none" stroke="black" points="224.05,-293.5 277.96,-293.5"/>
<text text-anchor="middle" x="237.11" y="-280.5" font-family="Times,serif" font-size="10.00">L</text>
<polyline fill="none" stroke="black" points="250.16,-273.5 250.16,-293.5"/>
<text text-anchor="middle" x="264" y="-280.5" font-family="Times,serif" font-size="10.00">R</text>
</g>
<!-- ast_nodeRLR&#45;&gt;ast_nodeRLRR -->
<g id="edge8" class="edge">
<title>ast_nodeRLR:R&#45;&gt;ast_nodeRLRR:A</title>
<path fill="none" stroke="black" d="M251.05,-361.5C251.05,-345.02 251.05,-338.29 251.05,-325.92"/>
<polygon fill="black" stroke="black" points="254.55,-326.01 251.05,-316.01 247.55,-326.01 254.55,-326.01"/>
</g>
<!-- ast_nodeRLRRL -->
<g id="node13" class="node">
<title>ast_nodeRLRRL</title>
<polygon fill="none" stroke="black" points="210.05,-178.5 210.05,-230.5 264.05,-230.5 264.05,-178.5 210.05,-178.5"/>
<text text-anchor="middle" x="236.94" y="-217.5" font-family="Times,serif" font-size="10.00">INT</text>
<text text-anchor="middle" x="236.94" y="-205.5" font-family="Times,serif" font-size="10.00">0</text>
<polyline fill="none" stroke="black" points="210.05,-198.5 263.83,-198.5"/>
<text text-anchor="middle" x="223.11" y="-185.5" font-family="Times,serif" font-size="10.00">L</text>
<polyline fill="none" stroke="black" points="236.16,-178.5 236.16,-198.5"/>
<text text-anchor="middle" x="250" y="-185.5" font-family="Times,serif" font-size="10.00">R</text>
</g>
<!-- ast_nodeRLRR&#45;&gt;ast_nodeRLRRL -->
<g id="edge7" class="edge">
<title>ast_nodeRLRR:L&#45;&gt;ast_nodeRLRRL:A</title>
<path fill="none" stroke="black" d="M237.05,-272.5C237.05,-258.52 237.05,-252.49 237.05,-242.36"/>
<polygon fill="black" stroke="black" points="240.55,-242.51 237.05,-232.51 233.55,-242.51 240.55,-242.51"/>
</g>
<!-- ast_nodeRRL -->
<g id="node15" class="node">
<title>ast_nodeRRL</title>
<polygon fill="none" stroke="black" points="338.05,-362.5 338.05,-402.5 392.05,-402.5 392.05,-362.5 338.05,-362.5"/>
<text text-anchor="middle" x="364.94" y="-389.5" font-family="Times,serif" font-size="10.00">CALL</text>
<polyline fill="none" stroke="black" points="338.05,-382.5 391.83,-382.5"/>
<text text-anchor="middle" x="351.11" y="-369.5" font-family="Times,serif" font-size="10.00">L</text>
<polyline fill="none" stroke="black" points="364.16,-362.5 364.16,-382.5"/>
<text text-anchor="middle" x="378" y="-369.5" font-family="Times,serif" font-size="10.00">R</text>
</g>
<!-- ast_nodeRR&#45;&gt;ast_nodeRRL -->
<g id="edge16" class="edge">
<title>ast_nodeRR:L&#45;&gt;ast_nodeRRL:A</title>
<path fill="none" stroke="black" d="M365.05,-450.5C365.05,-434.02 365.05,-427.29 365.05,-414.92"/>
<polygon fill="black" stroke="black" points="368.55,-415.01 365.05,-405.01 361.55,-415.01 368.55,-415.01"/>
</g>
<!-- ast_nodeRRR -->
<g id="node21" class="node">
<title>ast_nodeRRR</title>
<polygon fill="none" stroke="black" points="462.05,-362.5 462.05,-402.5 516.05,-402.5 516.05,-362.5 462.05,-362.5"/>
<text text-anchor="middle" x="488.67" y="-389.5" font-family="Times,serif" font-size="10.00">STMTS</text>
<polyline fill="none" stroke="black" points="462.05,-382.5 515.28,-382.5"/>
<text text-anchor="middle" x="475.11" y="-369.5" font-family="Times,serif" font-size="10.00">L</text>
<polyline fill="none" stroke="black" points="488.16,-362.5 488.16,-382.5"/>
<text text-anchor="middle" x="501.5" y="-369.5" font-family="Times,serif" font-size="10.00">R</text>
</g>
<!-- ast_nodeRR&#45;&gt;ast_nodeRRR -->
<g id="edge23" class="edge">
<title>ast_nodeRR:R&#45;&gt;ast_nodeRRR:A</title>
<path fill="none" stroke="black" d="M406.05,-461.5C440.83,-461.5 426.34,-407.25 449.95,-394.96"/>
<polygon fill="black" stroke="black" points="450.57,-398.4 459.57,-392.83 449.05,-391.57 450.57,-398.4"/>
</g>
<!-- ast_nodeRRLL -->
<g id="node16" class="node">
<title>ast_nodeRRLL</title>
<polygon fill="none" stroke="black" points="296,-267.5 296,-319.5 358.1,-319.5 358.1,-267.5 296,-267.5"/>
<text text-anchor="middle" x="327.05" y="-306.5" font-family="Times,serif" font-size="10.00">ID</text>
<text text-anchor="middle" x="327.05" y="-294.5" font-family="Times,serif" font-size="10.00">ANIMATE</text>
<polyline fill="none" stroke="black" points="296,-287.5 358.1,-287.5"/>
<text text-anchor="middle" x="311.05" y="-274.5" font-family="Times,serif" font-size="10.00">L</text>
<polyline fill="none" stroke="black" points="326.11,-267.5 326.11,-287.5"/>
<text text-anchor="middle" x="341.94" y="-274.5" font-family="Times,serif" font-size="10.00">R</text>
</g>
<!-- ast_nodeRRL&#45;&gt;ast_nodeRRLL -->
<g id="edge11" class="edge">
<title>ast_nodeRRL:L&#45;&gt;ast_nodeRRLL:A</title>
<path fill="none" stroke="black" d="M351.05,-361.5C351.05,-344.69 336.11,-341.83 329.8,-330.91"/>
<polygon fill="black" stroke="black" points="333.26,-330.31 327.42,-321.47 326.47,-332.02 333.26,-330.31"/>
</g>
<!-- ast_nodeRRLR -->
<g id="node17" class="node">
<title>ast_nodeRRLR</title>
<polygon fill="none" stroke="black" points="376.05,-273.5 376.05,-313.5 430.05,-313.5 430.05,-273.5 376.05,-273.5"/>
<text text-anchor="middle" x="403" y="-300.5" font-family="Times,serif" font-size="10.00">PARMS</text>
<polyline fill="none" stroke="black" points="376.05,-293.5 429.96,-293.5"/>
<text text-anchor="middle" x="389.11" y="-280.5" font-family="Times,serif" font-size="10.00">L</text>
<polyline fill="none" stroke="black" points="402.16,-273.5 402.16,-293.5"/>
<text text-anchor="middle" x="416" y="-280.5" font-family="Times,serif" font-size="10.00">R</text>
</g>
<!-- ast_nodeRRL&#45;&gt;ast_nodeRRLR -->
<g id="edge15" class="edge">
<title>ast_nodeRRL:R&#45;&gt;ast_nodeRRLR:A</title>
<path fill="none" stroke="black" d="M378.05,-361.5C378.05,-342.28 394.56,-338.88 400.74,-325.6"/>
<polygon fill="black" stroke="black" points="404.13,-326.48 402.74,-315.98 397.28,-325.06 404.13,-326.48"/>
</g>
<!-- ast_nodeRRLRL -->
<g id="node18" class="node">
<title>ast_nodeRRLRL</title>
<polygon fill="none" stroke="black" points="298.72,-178.5 298.72,-230.5 371.39,-230.5 371.39,-178.5 298.72,-178.5"/>
<text text-anchor="middle" x="335.05" y="-217.5" font-family="Times,serif" font-size="10.00">ID</text>
<text text-anchor="middle" x="335.05" y="-205.5" font-family="Times,serif" font-size="10.00">V_REVERSE</text>
<polyline fill="none" stroke="black" points="298.72,-198.5 371.39,-198.5"/>
<text text-anchor="middle" x="316.27" y="-185.5" font-family="Times,serif" font-size="10.00">L</text>
<polyline fill="none" stroke="black" points="333.83,-178.5 333.83,-198.5"/>
<text text-anchor="middle" x="352.16" y="-185.5" font-family="Times,serif" font-size="10.00">R</text>
</g>
<!-- ast_nodeRRLR&#45;&gt;ast_nodeRRLRL -->
<g id="edge12" class="edge">
<title>ast_nodeRRLR:L&#45;&gt;ast_nodeRRLRL:A</title>
<path fill="none" stroke="black" d="M389.05,-272.5C389.05,-270.07 381.93,-240.86 376.71,-224.85"/>
<polygon fill="black" stroke="black" points="379.97,-223.56 372.67,-215.88 373.58,-226.44 379.97,-223.56"/>
</g>
<!-- ast_nodeRRLRR -->
<g id="node19" class="node">
<title>ast_nodeRRLRR</title>
<polygon fill="none" stroke="black" points="389.05,-184.5 389.05,-224.5 443.05,-224.5 443.05,-184.5 389.05,-184.5"/>
<text text-anchor="middle" x="416" y="-211.5" font-family="Times,serif" font-size="10.00">PARMS</text>
<polyline fill="none" stroke="black" points="389.05,-204.5 442.96,-204.5"/>
<text text-anchor="middle" x="402.11" y="-191.5" font-family="Times,serif" font-size="10.00">L</text>
<polyline fill="none" stroke="black" points="415.16,-184.5 415.16,-204.5"/>
<text text-anchor="middle" x="429" y="-191.5" font-family="Times,serif" font-size="10.00">R</text>
</g>
<!-- ast_nodeRRLR&#45;&gt;ast_nodeRRLRR -->
<g id="edge14" class="edge">
<title>ast_nodeRRLR:R&#45;&gt;ast_nodeRRLRR:A</title>
<path fill="none" stroke="black" d="M416.05,-272.5C416.05,-256.02 416.05,-249.29 416.05,-236.92"/>
<polygon fill="black" stroke="black" points="419.55,-237.01 416.05,-227.01 412.55,-237.01 419.55,-237.01"/>
</g>
<!-- ast_nodeRRLRRL -->
<g id="node20" class="node">
<title>ast_nodeRRLRRL</title>
<polygon fill="none" stroke="black" points="375.05,-89.5 375.05,-141.5 429.05,-141.5 429.05,-89.5 375.05,-89.5"/>
<text text-anchor="middle" x="401.94" y="-128.5" font-family="Times,serif" font-size="10.00">INT</text>
<text text-anchor="middle" x="401.94" y="-116.5" font-family="Times,serif" font-size="10.00">0</text>
<polyline fill="none" stroke="black" points="375.05,-109.5 428.83,-109.5"/>
<text text-anchor="middle" x="388.11" y="-96.5" font-family="Times,serif" font-size="10.00">L</text>
<polyline fill="none" stroke="black" points="401.16,-89.5 401.16,-109.5"/>
<text text-anchor="middle" x="415" y="-96.5" font-family="Times,serif" font-size="10.00">R</text>
</g>
<!-- ast_nodeRRLRR&#45;&gt;ast_nodeRRLRRL -->
<g id="edge13" class="edge">
<title>ast_nodeRRLRR:L&#45;&gt;ast_nodeRRLRRL:A</title>
<path fill="none" stroke="black" d="M402.05,-183.5C402.05,-169.52 402.05,-163.49 402.05,-153.36"/>
<polygon fill="black" stroke="black" points="405.55,-153.51 402.05,-143.51 398.55,-153.51 405.55,-153.51"/>
</g>
<!-- ast_nodeRRRL -->
<g id="node22" class="node">
<title>ast_nodeRRRL</title>
<polygon fill="none" stroke="black" points="476.05,-273.5 476.05,-313.5 530.05,-313.5 530.05,-273.5 476.05,-273.5"/>
<text text-anchor="middle" x="502.94" y="-300.5" font-family="Times,serif" font-size="10.00">CALL</text>
<polyline fill="none" stroke="black" points="476.05,-293.5 529.83,-293.5"/>
<text text-anchor="middle" x="489.11" y="-280.5" font-family="Times,serif" font-size="10.00">L</text>
<polyline fill="none" stroke="black" points="502.16,-273.5 502.16,-293.5"/>
<text text-anchor="middle" x="516" y="-280.5" font-family="Times,serif" font-size="10.00">R</text>
</g>
<!-- ast_nodeRRR&#45;&gt;ast_nodeRRRL -->
<g id="edge22" class="edge">
<title>ast_nodeRRR:L&#45;&gt;ast_nodeRRRL:A</title>
<path fill="none" stroke="black" d="M475.05,-361.5C475.05,-341.55 493.89,-339.07 500.66,-325.4"/>
<polygon fill="black" stroke="black" points="504.01,-326.5 502.73,-315.98 497.17,-325 504.01,-326.5"/>
</g>
<!-- ast_nodeRRRLL -->
<g id="node23" class="node">
<title>ast_nodeRRRLL</title>
<polygon fill="none" stroke="black" points="461.33,-178.5 461.33,-230.5 516.77,-230.5 516.77,-178.5 461.33,-178.5"/>
<text text-anchor="middle" x="489.05" y="-217.5" font-family="Times,serif" font-size="10.00">ID</text>
<text text-anchor="middle" x="489.05" y="-205.5" font-family="Times,serif" font-size="10.00">SIGNALi</text>
<polyline fill="none" stroke="black" points="461.33,-198.5 516.77,-198.5"/>
<text text-anchor="middle" x="474.88" y="-185.5" font-family="Times,serif" font-size="10.00">L</text>
<polyline fill="none" stroke="black" points="488.44,-178.5 488.44,-198.5"/>
<text text-anchor="middle" x="502.27" y="-185.5" font-family="Times,serif" font-size="10.00">R</text>
</g>
<!-- ast_nodeRRRL&#45;&gt;ast_nodeRRRLL -->
<g id="edge17" class="edge">
<title>ast_nodeRRRL:L&#45;&gt;ast_nodeRRRLL:A</title>
<path fill="none" stroke="black" d="M489.05,-272.5C489.05,-258.52 489.05,-252.49 489.05,-242.36"/>
<polygon fill="black" stroke="black" points="492.55,-242.51 489.05,-232.51 485.55,-242.51 492.55,-242.51"/>
</g>
<!-- ast_nodeRRRLR -->
<g id="node24" class="node">
<title>ast_nodeRRRLR</title>
<polygon fill="none" stroke="black" points="535.05,-184.5 535.05,-224.5 589.05,-224.5 589.05,-184.5 535.05,-184.5"/>
<text text-anchor="middle" x="562" y="-211.5" font-family="Times,serif" font-size="10.00">PARMS</text>
<polyline fill="none" stroke="black" points="535.05,-204.5 588.96,-204.5"/>
<text text-anchor="middle" x="548.11" y="-191.5" font-family="Times,serif" font-size="10.00">L</text>
<polyline fill="none" stroke="black" points="561.16,-184.5 561.16,-204.5"/>
<text text-anchor="middle" x="575" y="-191.5" font-family="Times,serif" font-size="10.00">R</text>
</g>
<!-- ast_nodeRRRL&#45;&gt;ast_nodeRRRLR -->
<g id="edge21" class="edge">
<title>ast_nodeRRRL:R&#45;&gt;ast_nodeRRRLR:A</title>
<path fill="none" stroke="black" d="M516.05,-272.5C516.05,-270.06 523.69,-240.86 529.2,-224.85"/>
<polygon fill="black" stroke="black" points="532.33,-226.41 533.41,-215.87 525.99,-223.44 532.33,-226.41"/>
</g>
<!-- ast_nodeRRRLRL -->
<g id="node25" class="node">
<title>ast_nodeRRRLRL</title>
<polygon fill="none" stroke="black" points="484.71,-89.5 484.71,-141.5 557.39,-141.5 557.39,-89.5 484.71,-89.5"/>
<text text-anchor="middle" x="521.05" y="-128.5" font-family="Times,serif" font-size="10.00">ID</text>
<text text-anchor="middle" x="521.05" y="-116.5" font-family="Times,serif" font-size="10.00">S10_DRYPIT</text>
<polyline fill="none" stroke="black" points="484.71,-109.5 557.39,-109.5"/>
<text text-anchor="middle" x="502.27" y="-96.5" font-family="Times,serif" font-size="10.00">L</text>
<polyline fill="none" stroke="black" points="519.82,-89.5 519.82,-109.5"/>
<text text-anchor="middle" x="538.16" y="-96.5" font-family="Times,serif" font-size="10.00">R</text>
</g>
<!-- ast_nodeRRRLR&#45;&gt;ast_nodeRRRLRL -->
<g id="edge18" class="edge">
<title>ast_nodeRRRLR:L&#45;&gt;ast_nodeRRRLRL:A</title>
<path fill="none" stroke="black" d="M548.05,-183.5C548.05,-165.97 530.91,-164 523.94,-152.79"/>
<polygon fill="black" stroke="black" points="527.41,-152.22 521.44,-143.46 520.65,-154.03 527.41,-152.22"/>
</g>
<!-- ast_nodeRRRLRR -->
<g id="node26" class="node">
<title>ast_nodeRRRLRR</title>
<polygon fill="none" stroke="black" points="575.05,-95.5 575.05,-135.5 629.05,-135.5 629.05,-95.5 575.05,-95.5"/>
<text text-anchor="middle" x="602" y="-122.5" font-family="Times,serif" font-size="10.00">PARMS</text>
<polyline fill="none" stroke="black" points="575.05,-115.5 628.96,-115.5"/>
<text text-anchor="middle" x="588.11" y="-102.5" font-family="Times,serif" font-size="10.00">L</text>
<polyline fill="none" stroke="black" points="601.16,-95.5 601.16,-115.5"/>
<text text-anchor="middle" x="615" y="-102.5" font-family="Times,serif" font-size="10.00">R</text>
</g>
<!-- ast_nodeRRRLR&#45;&gt;ast_nodeRRRLRR -->
<g id="edge20" class="edge">
<title>ast_nodeRRRLR:R&#45;&gt;ast_nodeRRRLRR:A</title>
<path fill="none" stroke="black" d="M575.05,-183.5C575.05,-163.93 592.88,-161.04 599.56,-147.72"/>
<polygon fill="black" stroke="black" points="602.97,-148.5 601.72,-137.98 596.14,-146.98 602.97,-148.5"/>
</g>
<!-- ast_nodeRRRLRRL -->
<g id="node27" class="node">
<title>ast_nodeRRRLRRL</title>
<polygon fill="none" stroke="black" points="553.66,-0.5 553.66,-52.5 622.44,-52.5 622.44,-0.5 553.66,-0.5"/>
<text text-anchor="middle" x="588.05" y="-39.5" font-family="Times,serif" font-size="10.00">ID</text>
<text text-anchor="middle" x="588.05" y="-27.5" font-family="Times,serif" font-size="10.00">SIG_CLOSE</text>
<polyline fill="none" stroke="black" points="553.66,-20.5 622.44,-20.5"/>
<text text-anchor="middle" x="570.71" y="-7.5" font-family="Times,serif" font-size="10.00">L</text>
<polyline fill="none" stroke="black" points="587.77,-0.5 587.77,-20.5"/>
<text text-anchor="middle" x="605.1" y="-7.5" font-family="Times,serif" font-size="10.00">R</text>
</g>
<!-- ast_nodeRRRLRR&#45;&gt;ast_nodeRRRLRRL -->
<g id="edge19" class="edge">
<title>ast_nodeRRRLRR:L&#45;&gt;ast_nodeRRRLRRL:A</title>
<path fill="none" stroke="black" d="M588.05,-94.5C588.05,-80.52 588.05,-74.49 588.05,-64.36"/>
<polygon fill="black" stroke="black" points="591.55,-64.51 588.05,-54.51 584.55,-64.51 591.55,-64.51"/>
</g>
<!-- code -->
<g id="node28" class="node">
<title>code</title>
<polygon fill="none" stroke="black" points="206.55,-611.5 206.55,-710.5 439.55,-710.5 439.55,-611.5 206.55,-611.5"/>
<polygon fill="none" stroke="black" points="218.05,-683 218.05,-703 429.05,-703 429.05,-683 218.05,-683"/>
<text text-anchor="start" x="309.15" y="-690.2" font-family="Courier New" font-weight="bold" font-size="12.00">code</text>
<polygon fill="none" stroke="black" points="218.05,-618 218.05,-681 429.05,-681 429.05,-618 218.05,-618"/>
<text text-anchor="start" x="221.05" y="-667.2" font-family="Times,serif" font-size="12.00" fill="blue"> &#160;&#160;&#160;PLAYWAVE(SOUND_BUZZFUZZ);</text>
<text text-anchor="start" x="221.05" y="-652.8" font-family="Times,serif" font-size="12.00" fill="blue"> &#160;&#160;&#160;SHOW(0,IDS_FLOPN1);</text>
<text text-anchor="start" x="221.05" y="-638.4" font-family="Times,serif" font-size="12.00" fill="blue"> &#160;&#160;&#160;ANIMATE(0,V_REVERSE);</text>
<text text-anchor="start" x="221.05" y="-624" font-family="Times,serif" font-size="12.00" fill="blue"> &#160;&#160;&#160;SIGNALi(SIG_CLOSE,S10_DRYPIT);</text>
<polygon fill="none" stroke="black" points="214.55,-615.5 214.55,-706.5 431.55,-706.5 431.55,-615.5 214.55,-615.5"/>
</g>
</g>
</svg>
