<?xml version="1.0" encoding="UTF-8" standalone="no"?>
<!DOCTYPE svg PUBLIC "-//W3C//DTD SVG 1.1//EN"
 "http://www.w3.org/Graphics/SVG/1.1/DTD/svg11.dtd">
<!-- Generated by graphviz version 7.1.0 (20230121.1956)
 -->
<!-- Title: AbstractSyntaxTree Pages: 1 -->
<svg width="296pt" height="231pt"
 viewBox="0.00 0.00 295.67 231.00" xmlns="http://www.w3.org/2000/svg" xmlns:xlink="http://www.w3.org/1999/xlink">
<g id="graph0" class="graph" transform="scale(1 1) rotate(0) translate(4 227)">
<title>AbstractSyntaxTree</title>
<polygon fill="white" stroke="none" points="-4,4 -4,-227 291.67,-227 291.67,4 -4,4"/>
<!-- filename -->
<g id="node1" class="node">
<title>filename</title>
<polygon fill="none" stroke="black" points="0,-176.5 0,-212.5 123.34,-212.5 123.34,-176.5 0,-176.5"/>
<text text-anchor="middle" x="61.67" y="-190.9" font-family="Times,serif" font-size="12.00">S11_FISHSTATIONc</text>
</g>
<!-- ast_node -->
<g id="node2" class="node">
<title>ast_node</title>
<polygon fill="none" stroke="black" points="141.67,-174.5 141.67,-214.5 195.67,-214.5 195.67,-174.5 141.67,-174.5"/>
<text text-anchor="middle" x="168.28" y="-201.5" font-family="Times,serif" font-size="10.00">STMTS</text>
<polyline fill="none" stroke="black" points="141.67,-194.5 194.9,-194.5"/>
<text text-anchor="middle" x="154.72" y="-181.5" font-family="Times,serif" font-size="10.00">L</text>
<polyline fill="none" stroke="black" points="167.78,-174.5 167.78,-194.5"/>
<text text-anchor="middle" x="181.11" y="-181.5" font-family="Times,serif" font-size="10.00">R</text>
</g>
<!-- ast_nodeL -->
<g id="node3" class="node">
<title>ast_nodeL</title>
<polygon fill="none" stroke="black" points="127.67,-89.5 127.67,-129.5 181.67,-129.5 181.67,-89.5 127.67,-89.5"/>
<text text-anchor="middle" x="154.56" y="-116.5" font-family="Times,serif" font-size="10.00">CALL</text>
<polyline fill="none" stroke="black" points="127.67,-109.5 181.45,-109.5"/>
<text text-anchor="middle" x="140.72" y="-96.5" font-family="Times,serif" font-size="10.00">L</text>
<polyline fill="none" stroke="black" points="153.78,-89.5 153.78,-109.5"/>
<text text-anchor="middle" x="167.61" y="-96.5" font-family="Times,serif" font-size="10.00">R</text>
</g>
<!-- ast_node&#45;&gt;ast_nodeL -->
<g id="edge2" class="edge">
<title>ast_node:L&#45;&gt;ast_nodeL:A</title>
<path fill="none" stroke="black" d="M154.67,-173.5C154.67,-158.55 154.67,-152.27 154.67,-141.25"/>
<polygon fill="black" stroke="black" points="158.17,-141.51 154.67,-131.51 151.17,-141.51 158.17,-141.51"/>
</g>
<!-- ast_nodeLL -->
<g id="node4" class="node">
<title>ast_nodeLL</title>
<polygon fill="none" stroke="black" points="113.67,-0.5 113.67,-52.5 167.67,-52.5 167.67,-0.5 113.67,-0.5"/>
<text text-anchor="middle" x="140.39" y="-39.5" font-family="Times,serif" font-size="10.00">ID</text>
<text text-anchor="middle" x="140.39" y="-27.5" font-family="Times,serif" font-size="10.00">SHOW</text>
<polyline fill="none" stroke="black" points="113.67,-20.5 167.11,-20.5"/>
<text text-anchor="middle" x="126.72" y="-7.5" font-family="Times,serif" font-size="10.00">L</text>
<polyline fill="none" stroke="black" points="139.78,-0.5 139.78,-20.5"/>
<text text-anchor="middle" x="153.11" y="-7.5" font-family="Times,serif" font-size="10.00">R</text>
</g>
<!-- ast_nodeL&#45;&gt;ast_nodeLL -->
<g id="edge1" class="edge">
<title>ast_nodeL:L&#45;&gt;ast_nodeLL:A</title>
<path fill="none" stroke="black" d="M140.67,-89C140.67,-77.62 140.67,-72.32 140.67,-64.45"/>
<polygon fill="black" stroke="black" points="144.17,-64.51 140.67,-54.51 137.17,-64.51 144.17,-64.51"/>
</g>
<!-- code -->
<g id="node5" class="node">
<title>code</title>
<polygon fill="none" stroke="black" points="213.67,-166.5 213.67,-222.5 287.67,-222.5 287.67,-166.5 213.67,-166.5"/>
<polygon fill="none" stroke="black" points="224.67,-195.5 224.67,-215.5 276.67,-215.5 276.67,-195.5 224.67,-195.5"/>
<text text-anchor="start" x="236.27" y="-202.7" font-family="Courier New" font-weight="bold" font-size="12.00">code</text>
<polygon fill="none" stroke="black" points="224.67,-173.5 224.67,-193.5 276.67,-193.5 276.67,-173.5 224.67,-173.5"/>
<text text-anchor="start" x="227.67" y="-179.7" font-family="Times,serif" font-size="12.00" fill="blue">SHOW();</text>
<polygon fill="none" stroke="black" points="221.67,-170.5 221.67,-218.5 279.67,-218.5 279.67,-170.5 221.67,-170.5"/>
</g>
</g>
</svg>
