<?xml version="1.0" encoding="UTF-8" standalone="no"?>
<!DOCTYPE svg PUBLIC "-//W3C//DTD SVG 1.1//EN"
 "http://www.w3.org/Graphics/SVG/1.1/DTD/svg11.dtd">
<!-- Generated by graphviz version 7.1.0 (20230121.1956)
 -->
<!-- Title: AbstractSyntaxTree Pages: 1 -->
<svg width="296pt" height="231pt"
 viewBox="0.00 0.00 296.01 231.00" xmlns="http://www.w3.org/2000/svg" xmlns:xlink="http://www.w3.org/1999/xlink">
<g id="graph0" class="graph" transform="scale(1 1) rotate(0) translate(4 227)">
<title>AbstractSyntaxTree</title>
<polygon fill="white" stroke="none" points="-4,4 -4,-227 292.01,-227 292.01,4 -4,4"/>
<!-- filename -->
<g id="node1" class="node">
<title>filename</title>
<polygon fill="none" stroke="black" points="0,-176.5 0,-212.5 124.01,-212.5 124.01,-176.5 0,-176.5"/>
<text text-anchor="middle" x="62.01" y="-190.9" font-family="Times,serif" font-size="12.00">S11_FISHSTATIONd</text>
</g>
<!-- ast_node -->
<g id="node2" class="node">
<title>ast_node</title>
<polygon fill="none" stroke="black" points="142.01,-174.5 142.01,-214.5 196.01,-214.5 196.01,-174.5 142.01,-174.5"/>
<text text-anchor="middle" x="168.62" y="-201.5" font-family="Times,serif" font-size="10.00">STMTS</text>
<polyline fill="none" stroke="black" points="142.01,-194.5 195.24,-194.5"/>
<text text-anchor="middle" x="155.06" y="-181.5" font-family="Times,serif" font-size="10.00">L</text>
<polyline fill="none" stroke="black" points="168.11,-174.5 168.11,-194.5"/>
<text text-anchor="middle" x="181.45" y="-181.5" font-family="Times,serif" font-size="10.00">R</text>
</g>
<!-- ast_nodeL -->
<g id="node3" class="node">
<title>ast_nodeL</title>
<polygon fill="none" stroke="black" points="128.01,-89.5 128.01,-129.5 182.01,-129.5 182.01,-89.5 128.01,-89.5"/>
<text text-anchor="middle" x="154.9" y="-116.5" font-family="Times,serif" font-size="10.00">CALL</text>
<polyline fill="none" stroke="black" points="128.01,-109.5 181.78,-109.5"/>
<text text-anchor="middle" x="141.06" y="-96.5" font-family="Times,serif" font-size="10.00">L</text>
<polyline fill="none" stroke="black" points="154.11,-89.5 154.11,-109.5"/>
<text text-anchor="middle" x="167.95" y="-96.5" font-family="Times,serif" font-size="10.00">R</text>
</g>
<!-- ast_node&#45;&gt;ast_nodeL -->
<g id="edge2" class="edge">
<title>ast_node:L&#45;&gt;ast_nodeL:A</title>
<path fill="none" stroke="black" d="M155.01,-173.5C155.01,-158.55 155.01,-152.27 155.01,-141.25"/>
<polygon fill="black" stroke="black" points="158.51,-141.51 155.01,-131.51 151.51,-141.51 158.51,-141.51"/>
</g>
<!-- ast_nodeLL -->
<g id="node4" class="node">
<title>ast_nodeLL</title>
<polygon fill="none" stroke="black" points="114.01,-0.5 114.01,-52.5 168.01,-52.5 168.01,-0.5 114.01,-0.5"/>
<text text-anchor="middle" x="140.73" y="-39.5" font-family="Times,serif" font-size="10.00">ID</text>
<text text-anchor="middle" x="140.73" y="-27.5" font-family="Times,serif" font-size="10.00">SHOW</text>
<polyline fill="none" stroke="black" points="114.01,-20.5 167.45,-20.5"/>
<text text-anchor="middle" x="127.06" y="-7.5" font-family="Times,serif" font-size="10.00">L</text>
<polyline fill="none" stroke="black" points="140.11,-0.5 140.11,-20.5"/>
<text text-anchor="middle" x="153.45" y="-7.5" font-family="Times,serif" font-size="10.00">R</text>
</g>
<!-- ast_nodeL&#45;&gt;ast_nodeLL -->
<g id="edge1" class="edge">
<title>ast_nodeL:L&#45;&gt;ast_nodeLL:A</title>
<path fill="none" stroke="black" d="M141.01,-89C141.01,-77.62 141.01,-72.32 141.01,-64.45"/>
<polygon fill="black" stroke="black" points="144.51,-64.51 141.01,-54.51 137.51,-64.51 144.51,-64.51"/>
</g>
<!-- code -->
<g id="node5" class="node">
<title>code</title>
<polygon fill="none" stroke="black" points="214.01,-166.5 214.01,-222.5 288.01,-222.5 288.01,-166.5 214.01,-166.5"/>
<polygon fill="none" stroke="black" points="225.01,-195.5 225.01,-215.5 277.01,-215.5 277.01,-195.5 225.01,-195.5"/>
<text text-anchor="start" x="236.6" y="-202.7" font-family="Courier New" font-weight="bold" font-size="12.00">code</text>
<polygon fill="none" stroke="black" points="225.01,-173.5 225.01,-193.5 277.01,-193.5 277.01,-173.5 225.01,-173.5"/>
<text text-anchor="start" x="228.01" y="-179.7" font-family="Times,serif" font-size="12.00" fill="blue">SHOW();</text>
<polygon fill="none" stroke="black" points="222.01,-170.5 222.01,-218.5 280.01,-218.5 280.01,-170.5 222.01,-170.5"/>
</g>
</g>
</svg>
