<?xml version="1.0" encoding="UTF-8" standalone="no"?>
<!DOCTYPE svg PUBLIC "-//W3C//DTD SVG 1.1//EN"
 "http://www.w3.org/Graphics/SVG/1.1/DTD/svg11.dtd">
<!-- Generated by graphviz version 7.1.0 (20230121.1956)
 -->
<!-- Title: AbstractSyntaxTree Pages: 1 -->
<svg width="286pt" height="227pt"
 viewBox="0.00 0.00 286.00 227.00" xmlns="http://www.w3.org/2000/svg" xmlns:xlink="http://www.w3.org/1999/xlink">
<g id="graph0" class="graph" transform="scale(1 1) rotate(0) translate(4 223)">
<title>AbstractSyntaxTree</title>
<polygon fill="white" stroke="none" points="-4,4 -4,-223 282,-223 282,4 -4,4"/>
<!-- filename -->
<g id="node1" class="node">
<title>filename</title>
<polygon fill="none" stroke="black" points="0,-174.5 0,-210.5 122.01,-210.5 122.01,-174.5 0,-174.5"/>
<text text-anchor="middle" x="61" y="-188.9" font-family="Times,serif" font-size="12.00">S11_FISHSTATIONf</text>
</g>
<!-- ast_node -->
<g id="node2" class="node">
<title>ast_node</title>
<polygon fill="none" stroke="black" points="140,-172.5 140,-212.5 194,-212.5 194,-172.5 140,-172.5"/>
<text text-anchor="middle" x="166.62" y="-199.5" font-family="Times,serif" font-size="10.00">STMTS</text>
<polyline fill="none" stroke="black" points="140,-192.5 193.24,-192.5"/>
<text text-anchor="middle" x="153.06" y="-179.5" font-family="Times,serif" font-size="10.00">L</text>
<polyline fill="none" stroke="black" points="166.11,-172.5 166.11,-192.5"/>
<text text-anchor="middle" x="179.45" y="-179.5" font-family="Times,serif" font-size="10.00">R</text>
</g>
<!-- ast_nodeL -->
<g id="node3" class="node">
<title>ast_nodeL</title>
<polygon fill="none" stroke="black" points="126,-89.5 126,-129.5 180,-129.5 180,-89.5 126,-89.5"/>
<text text-anchor="middle" x="152.89" y="-116.5" font-family="Times,serif" font-size="10.00">CALL</text>
<polyline fill="none" stroke="black" points="126,-109.5 179.78,-109.5"/>
<text text-anchor="middle" x="139.06" y="-96.5" font-family="Times,serif" font-size="10.00">L</text>
<polyline fill="none" stroke="black" points="152.11,-89.5 152.11,-109.5"/>
<text text-anchor="middle" x="165.95" y="-96.5" font-family="Times,serif" font-size="10.00">R</text>
</g>
<!-- ast_node&#45;&gt;ast_nodeL -->
<g id="edge2" class="edge">
<title>ast_node:L&#45;&gt;ast_nodeL:A</title>
<path fill="none" stroke="black" d="M153,-171.5C153,-157.52 153,-151.49 153,-141.36"/>
<polygon fill="black" stroke="black" points="156.5,-141.51 153,-131.51 149.5,-141.51 156.5,-141.51"/>
</g>
<!-- ast_nodeLL -->
<g id="node4" class="node">
<title>ast_nodeLL</title>
<polygon fill="none" stroke="black" points="112,-0.5 112,-52.5 166,-52.5 166,-0.5 112,-0.5"/>
<text text-anchor="middle" x="138.73" y="-39.5" font-family="Times,serif" font-size="10.00">ID</text>
<text text-anchor="middle" x="138.73" y="-27.5" font-family="Times,serif" font-size="10.00">SHOW</text>
<polyline fill="none" stroke="black" points="112,-20.5 165.45,-20.5"/>
<text text-anchor="middle" x="125.06" y="-7.5" font-family="Times,serif" font-size="10.00">L</text>
<polyline fill="none" stroke="black" points="138.11,-0.5 138.11,-20.5"/>
<text text-anchor="middle" x="151.45" y="-7.5" font-family="Times,serif" font-size="10.00">R</text>
</g>
<!-- ast_nodeL&#45;&gt;ast_nodeLL -->
<g id="edge1" class="edge">
<title>ast_nodeL:L&#45;&gt;ast_nodeLL:A</title>
<path fill="none" stroke="black" d="M139,-89C139,-77.62 139,-72.32 139,-64.45"/>
<polygon fill="black" stroke="black" points="142.5,-64.51 139,-54.51 135.5,-64.51 142.5,-64.51"/>
</g>
<!-- code -->
<g id="node5" class="node">
<title>code</title>
<polygon fill="none" stroke="black" points="212,-166.5 212,-218.5 278,-218.5 278,-166.5 212,-166.5"/>
<polygon fill="none" stroke="black" points="223,-193.5 223,-211.5 267,-211.5 267,-193.5 223,-193.5"/>
<text text-anchor="start" x="235.28" y="-200.5" font-family="Times,serif" font-weight="bold" font-size="10.00">code</text>
<polygon fill="none" stroke="black" points="223,-173.5 223,-191.5 267,-191.5 267,-173.5 223,-173.5"/>
<text text-anchor="start" x="226" y="-179.5" font-family="Times,serif" font-size="10.00" fill="blue">SHOW();</text>
<polygon fill="none" stroke="black" points="220,-170.5 220,-214.5 270,-214.5 270,-170.5 220,-170.5"/>
</g>
</g>
</svg>
