<?xml version="1.0" encoding="UTF-8" standalone="no"?>
<!DOCTYPE svg PUBLIC "-//W3C//DTD SVG 1.1//EN"
 "http://www.w3.org/Graphics/SVG/1.1/DTD/svg11.dtd">
<!-- Generated by graphviz version 7.1.0 (20230121.1956)
 -->
<!-- Title: AbstractSyntaxTree Pages: 1 -->
<svg width="338pt" height="150pt"
 viewBox="0.00 0.00 337.68 150.00" xmlns="http://www.w3.org/2000/svg" xmlns:xlink="http://www.w3.org/1999/xlink">
<g id="graph0" class="graph" transform="scale(1 1) rotate(0) translate(4 146)">
<title>AbstractSyntaxTree</title>
<polygon fill="white" stroke="none" points="-4,4 -4,-146 333.68,-146 333.68,4 -4,4"/>
<!-- filename -->
<g id="node1" class="node">
<title>filename</title>
<polygon fill="none" stroke="black" points="0,-97.5 0,-133.5 141.36,-133.5 141.36,-97.5 0,-97.5"/>
<text text-anchor="middle" x="70.68" y="-111.9" font-family="Times,serif" font-size="12.00">S12_SHELF_1_SCROLL</text>
</g>
<!-- ast_node -->
<g id="node2" class="node">
<title>ast_node</title>
<polygon fill="none" stroke="black" points="159.68,-89.5 159.68,-141.5 213.68,-141.5 213.68,-89.5 159.68,-89.5"/>
<text text-anchor="middle" x="186.57" y="-128.5" font-family="Times,serif" font-size="10.00">OP</text>
<text text-anchor="middle" x="186.57" y="-116.5" font-family="Times,serif" font-size="10.00">==</text>
<polyline fill="none" stroke="black" points="159.68,-109.5 213.46,-109.5"/>
<text text-anchor="middle" x="172.73" y="-96.5" font-family="Times,serif" font-size="10.00">L</text>
<polyline fill="none" stroke="black" points="185.79,-89.5 185.79,-109.5"/>
<text text-anchor="middle" x="199.62" y="-96.5" font-family="Times,serif" font-size="10.00">R</text>
</g>
<!-- ast_nodeL -->
<g id="node3" class="node">
<title>ast_nodeL</title>
<polygon fill="none" stroke="black" points="113.95,-0.5 113.95,-52.5 179.4,-52.5 179.4,-0.5 113.95,-0.5"/>
<text text-anchor="middle" x="146.68" y="-39.5" font-family="Times,serif" font-size="10.00">ID</text>
<text text-anchor="middle" x="146.68" y="-27.5" font-family="Times,serif" font-size="10.00">R_WPARM</text>
<polyline fill="none" stroke="black" points="113.95,-20.5 179.4,-20.5"/>
<text text-anchor="middle" x="130.01" y="-7.5" font-family="Times,serif" font-size="10.00">L</text>
<polyline fill="none" stroke="black" points="146.06,-0.5 146.06,-20.5"/>
<text text-anchor="middle" x="162.39" y="-7.5" font-family="Times,serif" font-size="10.00">R</text>
</g>
<!-- ast_node&#45;&gt;ast_nodeL -->
<g id="edge1" class="edge">
<title>ast_node:L&#45;&gt;ast_nodeL:A</title>
<path fill="none" stroke="black" d="M172.68,-89C172.68,-73.89 157.44,-72.38 150.29,-63.65"/>
<polygon fill="black" stroke="black" points="153.69,-62.78 147.16,-54.43 147.06,-65.03 153.69,-62.78"/>
</g>
<!-- ast_nodeR -->
<g id="node4" class="node">
<title>ast_nodeR</title>
<polygon fill="none" stroke="black" points="197.68,-0.5 197.68,-52.5 251.68,-52.5 251.68,-0.5 197.68,-0.5"/>
<text text-anchor="middle" x="224.57" y="-39.5" font-family="Times,serif" font-size="10.00">INT</text>
<text text-anchor="middle" x="224.57" y="-27.5" font-family="Times,serif" font-size="10.00">0</text>
<polyline fill="none" stroke="black" points="197.68,-20.5 251.46,-20.5"/>
<text text-anchor="middle" x="210.73" y="-7.5" font-family="Times,serif" font-size="10.00">L</text>
<polyline fill="none" stroke="black" points="223.79,-0.5 223.79,-20.5"/>
<text text-anchor="middle" x="237.62" y="-7.5" font-family="Times,serif" font-size="10.00">R</text>
</g>
<!-- ast_node&#45;&gt;ast_nodeR -->
<g id="edge2" class="edge">
<title>ast_node:R&#45;&gt;ast_nodeR:A</title>
<path fill="none" stroke="black" d="M199.68,-89C199.68,-74.24 214.03,-72.36 220.99,-63.84"/>
<polygon fill="black" stroke="black" points="224.28,-65.03 224.19,-54.43 217.66,-62.77 224.28,-65.03"/>
</g>
<!-- code -->
<g id="node5" class="node">
<title>code</title>
<polygon fill="none" stroke="black" points="231.68,-89.5 231.68,-141.5 329.68,-141.5 329.68,-89.5 231.68,-89.5"/>
<polygon fill="none" stroke="black" points="242.68,-116.5 242.68,-134.5 318.68,-134.5 318.68,-116.5 242.68,-116.5"/>
<text text-anchor="start" x="270.96" y="-123.5" font-family="Times,serif" font-weight="bold" font-size="10.00">code</text>
<polygon fill="none" stroke="black" points="242.68,-96.5 242.68,-114.5 318.68,-114.5 318.68,-96.5 242.68,-96.5"/>
<text text-anchor="start" x="245.68" y="-102.5" font-family="Times,serif" font-size="10.00" fill="blue">R_WPARM == 0</text>
<polygon fill="none" stroke="black" points="239.68,-93.5 239.68,-137.5 321.68,-137.5 321.68,-93.5 239.68,-93.5"/>
</g>
</g>
</svg>
