<?xml version="1.0" encoding="UTF-8" standalone="no"?>
<!DOCTYPE svg PUBLIC "-//W3C//DTD SVG 1.1//EN"
 "http://www.w3.org/Graphics/SVG/1.1/DTD/svg11.dtd">
<!-- Generated by graphviz version 7.1.0 (20230121.1956)
 -->
<!-- Title: AbstractSyntaxTree Pages: 1 -->
<svg width="358pt" height="409pt"
 viewBox="0.00 0.00 357.84 409.00" xmlns="http://www.w3.org/2000/svg" xmlns:xlink="http://www.w3.org/1999/xlink">
<g id="graph0" class="graph" transform="scale(1 1) rotate(0) translate(4 405)">
<title>AbstractSyntaxTree</title>
<polygon fill="white" stroke="none" points="-4,4 -4,-405 353.84,-405 353.84,4 -4,4"/>
<!-- filename -->
<g id="node1" class="node">
<title>filename</title>
<polygon fill="none" stroke="black" points="0,-354.5 0,-390.5 122.68,-390.5 122.68,-354.5 0,-354.5"/>
<text text-anchor="middle" x="61.34" y="-368.9" font-family="Times,serif" font-size="12.00">S12_SHELF_1_ING4</text>
</g>
<!-- ast_node -->
<g id="node2" class="node">
<title>ast_node</title>
<polygon fill="none" stroke="black" points="140.34,-352.5 140.34,-392.5 194.34,-392.5 194.34,-352.5 140.34,-352.5"/>
<text text-anchor="middle" x="166.95" y="-379.5" font-family="Times,serif" font-size="10.00">STMTS</text>
<polyline fill="none" stroke="black" points="140.34,-372.5 193.57,-372.5"/>
<text text-anchor="middle" x="153.39" y="-359.5" font-family="Times,serif" font-size="10.00">L</text>
<polyline fill="none" stroke="black" points="166.45,-352.5 166.45,-372.5"/>
<text text-anchor="middle" x="179.78" y="-359.5" font-family="Times,serif" font-size="10.00">R</text>
</g>
<!-- ast_nodeL -->
<g id="node3" class="node">
<title>ast_nodeL</title>
<polygon fill="none" stroke="black" points="126.34,-267.5 126.34,-307.5 180.34,-307.5 180.34,-267.5 126.34,-267.5"/>
<text text-anchor="middle" x="153.23" y="-294.5" font-family="Times,serif" font-size="10.00">CALL</text>
<polyline fill="none" stroke="black" points="126.34,-287.5 180.12,-287.5"/>
<text text-anchor="middle" x="139.39" y="-274.5" font-family="Times,serif" font-size="10.00">L</text>
<polyline fill="none" stroke="black" points="152.45,-267.5 152.45,-287.5"/>
<text text-anchor="middle" x="166.28" y="-274.5" font-family="Times,serif" font-size="10.00">R</text>
</g>
<!-- ast_node&#45;&gt;ast_nodeL -->
<g id="edge6" class="edge">
<title>ast_node:L&#45;&gt;ast_nodeL:A</title>
<path fill="none" stroke="black" d="M153.34,-351.5C153.34,-336.55 153.34,-330.27 153.34,-319.25"/>
<polygon fill="black" stroke="black" points="156.84,-319.51 153.34,-309.51 149.84,-319.51 156.84,-319.51"/>
</g>
<!-- ast_nodeLL -->
<g id="node4" class="node">
<title>ast_nodeLL</title>
<polygon fill="none" stroke="black" points="90.34,-178.5 90.34,-230.5 144.34,-230.5 144.34,-178.5 90.34,-178.5"/>
<text text-anchor="middle" x="116.9" y="-217.5" font-family="Times,serif" font-size="10.00">ID</text>
<text text-anchor="middle" x="116.9" y="-205.5" font-family="Times,serif" font-size="10.00">ASSIGN</text>
<polyline fill="none" stroke="black" points="90.34,-198.5 143.46,-198.5"/>
<text text-anchor="middle" x="103.39" y="-185.5" font-family="Times,serif" font-size="10.00">L</text>
<polyline fill="none" stroke="black" points="116.45,-178.5 116.45,-198.5"/>
<text text-anchor="middle" x="129.78" y="-185.5" font-family="Times,serif" font-size="10.00">R</text>
</g>
<!-- ast_nodeL&#45;&gt;ast_nodeLL -->
<g id="edge1" class="edge">
<title>ast_nodeL:L&#45;&gt;ast_nodeLL:A</title>
<path fill="none" stroke="black" d="M139.34,-267C139.34,-252.94 126.96,-250.27 120.78,-241.9"/>
<polygon fill="black" stroke="black" points="124.14,-240.93 117.79,-232.44 117.46,-243.03 124.14,-240.93"/>
</g>
<!-- ast_nodeLR -->
<g id="node5" class="node">
<title>ast_nodeLR</title>
<polygon fill="none" stroke="black" points="162.34,-184.5 162.34,-224.5 216.34,-224.5 216.34,-184.5 162.34,-184.5"/>
<text text-anchor="middle" x="189.29" y="-211.5" font-family="Times,serif" font-size="10.00">PARMS</text>
<polyline fill="none" stroke="black" points="162.34,-204.5 216.24,-204.5"/>
<text text-anchor="middle" x="175.39" y="-191.5" font-family="Times,serif" font-size="10.00">L</text>
<polyline fill="none" stroke="black" points="188.45,-184.5 188.45,-204.5"/>
<text text-anchor="middle" x="202.28" y="-191.5" font-family="Times,serif" font-size="10.00">R</text>
</g>
<!-- ast_nodeL&#45;&gt;ast_nodeLR -->
<g id="edge5" class="edge">
<title>ast_nodeL:R&#45;&gt;ast_nodeLR:A</title>
<path fill="none" stroke="black" d="M166.34,-267C166.34,-250.36 180.66,-247.27 186.7,-236.35"/>
<polygon fill="black" stroke="black" points="190.02,-237.51 188.98,-226.97 183.22,-235.86 190.02,-237.51"/>
</g>
<!-- ast_nodeLRL -->
<g id="node6" class="node">
<title>ast_nodeLRL</title>
<polygon fill="none" stroke="black" points="126.34,-89.5 126.34,-141.5 180.34,-141.5 180.34,-89.5 126.34,-89.5"/>
<text text-anchor="middle" x="153.23" y="-128.5" font-family="Times,serif" font-size="10.00">INT</text>
<text text-anchor="middle" x="153.23" y="-116.5" font-family="Times,serif" font-size="10.00">1</text>
<polyline fill="none" stroke="black" points="126.34,-109.5 180.12,-109.5"/>
<text text-anchor="middle" x="139.39" y="-96.5" font-family="Times,serif" font-size="10.00">L</text>
<polyline fill="none" stroke="black" points="152.45,-89.5 152.45,-109.5"/>
<text text-anchor="middle" x="166.28" y="-96.5" font-family="Times,serif" font-size="10.00">R</text>
</g>
<!-- ast_nodeLR&#45;&gt;ast_nodeLRL -->
<g id="edge2" class="edge">
<title>ast_nodeLR:L&#45;&gt;ast_nodeLRL:A</title>
<path fill="none" stroke="black" d="M175.34,-183.5C175.34,-167.19 161.91,-163.78 156.04,-153.11"/>
<polygon fill="black" stroke="black" points="159.46,-152.36 153.7,-143.47 152.65,-154.01 159.46,-152.36"/>
</g>
<!-- ast_nodeLRR -->
<g id="node7" class="node">
<title>ast_nodeLRR</title>
<polygon fill="none" stroke="black" points="198.34,-95.5 198.34,-135.5 252.34,-135.5 252.34,-95.5 198.34,-95.5"/>
<text text-anchor="middle" x="225.29" y="-122.5" font-family="Times,serif" font-size="10.00">PARMS</text>
<polyline fill="none" stroke="black" points="198.34,-115.5 252.24,-115.5"/>
<text text-anchor="middle" x="211.39" y="-102.5" font-family="Times,serif" font-size="10.00">L</text>
<polyline fill="none" stroke="black" points="224.45,-95.5 224.45,-115.5"/>
<text text-anchor="middle" x="238.28" y="-102.5" font-family="Times,serif" font-size="10.00">R</text>
</g>
<!-- ast_nodeLR&#45;&gt;ast_nodeLRR -->
<g id="edge4" class="edge">
<title>ast_nodeLR:R&#45;&gt;ast_nodeLRR:A</title>
<path fill="none" stroke="black" d="M202.34,-183.5C202.34,-164.6 217.52,-160.74 223.22,-147.48"/>
<polygon fill="black" stroke="black" points="226.59,-148.47 225.05,-137.99 219.72,-147.14 226.59,-148.47"/>
</g>
<!-- ast_nodeLRRL -->
<g id="node8" class="node">
<title>ast_nodeLRRL</title>
<polygon fill="none" stroke="black" points="184.34,-0.5 184.34,-52.5 238.34,-52.5 238.34,-0.5 184.34,-0.5"/>
<text text-anchor="middle" x="211.23" y="-39.5" font-family="Times,serif" font-size="10.00">ID</text>
<text text-anchor="middle" x="211.23" y="-27.5" font-family="Times,serif" font-size="10.00">WPARM</text>
<polyline fill="none" stroke="black" points="184.34,-20.5 238.12,-20.5"/>
<text text-anchor="middle" x="197.39" y="-7.5" font-family="Times,serif" font-size="10.00">L</text>
<polyline fill="none" stroke="black" points="210.45,-0.5 210.45,-20.5"/>
<text text-anchor="middle" x="224.28" y="-7.5" font-family="Times,serif" font-size="10.00">R</text>
</g>
<!-- ast_nodeLRR&#45;&gt;ast_nodeLRRL -->
<g id="edge3" class="edge">
<title>ast_nodeLRR:L&#45;&gt;ast_nodeLRRL:A</title>
<path fill="none" stroke="black" d="M211.34,-94.5C211.34,-80.52 211.34,-74.49 211.34,-64.36"/>
<polygon fill="black" stroke="black" points="214.84,-64.51 211.34,-54.51 207.84,-64.51 214.84,-64.51"/>
</g>
<!-- code -->
<g id="node9" class="node">
<title>code</title>
<polygon fill="none" stroke="black" points="212.84,-344.5 212.84,-400.5 349.84,-400.5 349.84,-344.5 212.84,-344.5"/>
<polygon fill="none" stroke="black" points="224.34,-373.5 224.34,-393.5 339.34,-393.5 339.34,-373.5 224.34,-373.5"/>
<text text-anchor="start" x="267.44" y="-380.7" font-family="Courier New" font-weight="bold" font-size="12.00">code</text>
<polygon fill="none" stroke="black" points="224.34,-351.5 224.34,-371.5 339.34,-371.5 339.34,-351.5 224.34,-351.5"/>
<text text-anchor="start" x="227.34" y="-357.7" font-family="Times,serif" font-size="12.00" fill="blue">ASSIGN(WPARM,1);</text>
<polygon fill="none" stroke="black" points="220.84,-348.5 220.84,-396.5 341.84,-396.5 341.84,-348.5 220.84,-348.5"/>
</g>
</g>
</svg>
