<?xml version="1.0" encoding="UTF-8" standalone="no"?>
<!DOCTYPE svg PUBLIC "-//W3C//DTD SVG 1.1//EN"
 "http://www.w3.org/Graphics/SVG/1.1/DTD/svg11.dtd">
<!-- Generated by graphviz version 7.1.0 (20230121.1956)
 -->
<!-- Title: AbstractSyntaxTree Pages: 1 -->
<svg width="404pt" height="423pt"
 viewBox="0.00 0.00 403.55 423.00" xmlns="http://www.w3.org/2000/svg" xmlns:xlink="http://www.w3.org/1999/xlink">
<g id="graph0" class="graph" transform="scale(1 1) rotate(0) translate(4 419)">
<title>AbstractSyntaxTree</title>
<polygon fill="white" stroke="none" points="-4,4 -4,-419 399.55,-419 399.55,4 -4,4"/>
<!-- filename -->
<g id="node1" class="node">
<title>filename</title>
<polygon fill="none" stroke="black" points="1.55,-361.5 1.55,-397.5 91.56,-397.5 91.56,-361.5 1.55,-361.5"/>
<text text-anchor="middle" x="46.55" y="-375.9" font-family="Times,serif" font-size="12.00">S3002_PATH1</text>
</g>
<!-- ast_node -->
<g id="node2" class="node">
<title>ast_node</title>
<polygon fill="none" stroke="black" points="109.55,-359.5 109.55,-399.5 163.55,-399.5 163.55,-359.5 109.55,-359.5"/>
<text text-anchor="middle" x="136.17" y="-386.5" font-family="Times,serif" font-size="10.00">STMTS</text>
<polyline fill="none" stroke="black" points="109.55,-379.5 162.78,-379.5"/>
<text text-anchor="middle" x="122.61" y="-366.5" font-family="Times,serif" font-size="10.00">L</text>
<polyline fill="none" stroke="black" points="135.66,-359.5 135.66,-379.5"/>
<text text-anchor="middle" x="149" y="-366.5" font-family="Times,serif" font-size="10.00">R</text>
</g>
<!-- ast_nodeL -->
<g id="node3" class="node">
<title>ast_nodeL</title>
<polygon fill="none" stroke="black" points="59.55,-267.5 59.55,-307.5 113.55,-307.5 113.55,-267.5 59.55,-267.5"/>
<text text-anchor="middle" x="86.44" y="-294.5" font-family="Times,serif" font-size="10.00">CALL</text>
<polyline fill="none" stroke="black" points="59.55,-287.5 113.33,-287.5"/>
<text text-anchor="middle" x="72.61" y="-274.5" font-family="Times,serif" font-size="10.00">L</text>
<polyline fill="none" stroke="black" points="85.66,-267.5 85.66,-287.5"/>
<text text-anchor="middle" x="99.5" y="-274.5" font-family="Times,serif" font-size="10.00">R</text>
</g>
<!-- ast_node&#45;&gt;ast_nodeL -->
<g id="edge6" class="edge">
<title>ast_node:L&#45;&gt;ast_nodeL:A</title>
<path fill="none" stroke="black" d="M122.55,-358.5C122.55,-336.28 135.32,-309.9 125.44,-300.79"/>
<polygon fill="black" stroke="black" points="126.59,-297.48 116,-297.94 124.56,-304.18 126.59,-297.48"/>
</g>
<!-- ast_nodeR -->
<g id="node9" class="node">
<title>ast_nodeR</title>
<polygon fill="none" stroke="black" points="158.55,-267.5 158.55,-307.5 212.55,-307.5 212.55,-267.5 158.55,-267.5"/>
<text text-anchor="middle" x="185.17" y="-294.5" font-family="Times,serif" font-size="10.00">STMTS</text>
<polyline fill="none" stroke="black" points="158.55,-287.5 211.78,-287.5"/>
<text text-anchor="middle" x="171.61" y="-274.5" font-family="Times,serif" font-size="10.00">L</text>
<polyline fill="none" stroke="black" points="184.66,-267.5 184.66,-287.5"/>
<text text-anchor="middle" x="198" y="-274.5" font-family="Times,serif" font-size="10.00">R</text>
</g>
<!-- ast_node&#45;&gt;ast_nodeR -->
<g id="edge11" class="edge">
<title>ast_node:R&#45;&gt;ast_nodeR:A</title>
<path fill="none" stroke="black" d="M148.55,-358.5C148.55,-336.23 136.4,-309.88 146.54,-300.78"/>
<polygon fill="black" stroke="black" points="147.52,-304.14 156.1,-297.93 145.52,-297.43 147.52,-304.14"/>
</g>
<!-- ast_nodeLL -->
<g id="node4" class="node">
<title>ast_nodeLL</title>
<polygon fill="none" stroke="black" points="0.55,-178.5 0.55,-230.5 54.55,-230.5 54.55,-178.5 0.55,-178.5"/>
<text text-anchor="middle" x="27.11" y="-217.5" font-family="Times,serif" font-size="10.00">ID</text>
<text text-anchor="middle" x="27.11" y="-205.5" font-family="Times,serif" font-size="10.00">ASSIGN</text>
<polyline fill="none" stroke="black" points="0.55,-198.5 53.67,-198.5"/>
<text text-anchor="middle" x="13.61" y="-185.5" font-family="Times,serif" font-size="10.00">L</text>
<polyline fill="none" stroke="black" points="26.66,-178.5 26.66,-198.5"/>
<text text-anchor="middle" x="40" y="-185.5" font-family="Times,serif" font-size="10.00">R</text>
</g>
<!-- ast_nodeL&#45;&gt;ast_nodeLL -->
<g id="edge1" class="edge">
<title>ast_nodeL:L&#45;&gt;ast_nodeLL:A</title>
<path fill="none" stroke="black" d="M72.55,-267C72.55,-262.62 66.57,-237.93 60.9,-224.03"/>
<polygon fill="black" stroke="black" points="63.85,-222.14 55.39,-215.76 58.02,-226.02 63.85,-222.14"/>
</g>
<!-- ast_nodeLR -->
<g id="node5" class="node">
<title>ast_nodeLR</title>
<polygon fill="none" stroke="black" points="72.55,-184.5 72.55,-224.5 126.55,-224.5 126.55,-184.5 72.55,-184.5"/>
<text text-anchor="middle" x="99.5" y="-211.5" font-family="Times,serif" font-size="10.00">PARMS</text>
<polyline fill="none" stroke="black" points="72.55,-204.5 126.46,-204.5"/>
<text text-anchor="middle" x="85.61" y="-191.5" font-family="Times,serif" font-size="10.00">L</text>
<polyline fill="none" stroke="black" points="98.66,-184.5 98.66,-204.5"/>
<text text-anchor="middle" x="112.5" y="-191.5" font-family="Times,serif" font-size="10.00">R</text>
</g>
<!-- ast_nodeL&#45;&gt;ast_nodeLR -->
<g id="edge5" class="edge">
<title>ast_nodeL:R&#45;&gt;ast_nodeLR:A</title>
<path fill="none" stroke="black" d="M99.55,-267C99.55,-253.02 99.55,-246.99 99.55,-236.86"/>
<polygon fill="black" stroke="black" points="103.05,-237.01 99.55,-227.01 96.05,-237.01 103.05,-237.01"/>
</g>
<!-- ast_nodeLRL -->
<g id="node6" class="node">
<title>ast_nodeLRL</title>
<polygon fill="none" stroke="black" points="0,-89.5 0,-141.5 67.1,-141.5 67.1,-89.5 0,-89.5"/>
<text text-anchor="middle" x="33.55" y="-128.5" font-family="Times,serif" font-size="10.00">ID</text>
<text text-anchor="middle" x="33.55" y="-116.5" font-family="Times,serif" font-size="10.00">IDD_BAIT0</text>
<polyline fill="none" stroke="black" points="0,-109.5 67.1,-109.5"/>
<text text-anchor="middle" x="16.55" y="-96.5" font-family="Times,serif" font-size="10.00">L</text>
<polyline fill="none" stroke="black" points="33.11,-89.5 33.11,-109.5"/>
<text text-anchor="middle" x="49.94" y="-96.5" font-family="Times,serif" font-size="10.00">R</text>
</g>
<!-- ast_nodeLR&#45;&gt;ast_nodeLRL -->
<g id="edge2" class="edge">
<title>ast_nodeLR:L&#45;&gt;ast_nodeLRL:A</title>
<path fill="none" stroke="black" d="M85.55,-183.5C85.55,-181.07 78.43,-151.86 73.21,-135.85"/>
<polygon fill="black" stroke="black" points="76.47,-134.56 69.17,-126.88 70.08,-137.44 76.47,-134.56"/>
</g>
<!-- ast_nodeLRR -->
<g id="node7" class="node">
<title>ast_nodeLRR</title>
<polygon fill="none" stroke="black" points="85.55,-95.5 85.55,-135.5 139.55,-135.5 139.55,-95.5 85.55,-95.5"/>
<text text-anchor="middle" x="112.5" y="-122.5" font-family="Times,serif" font-size="10.00">PARMS</text>
<polyline fill="none" stroke="black" points="85.55,-115.5 139.46,-115.5"/>
<text text-anchor="middle" x="98.61" y="-102.5" font-family="Times,serif" font-size="10.00">L</text>
<polyline fill="none" stroke="black" points="111.66,-95.5 111.66,-115.5"/>
<text text-anchor="middle" x="125.5" y="-102.5" font-family="Times,serif" font-size="10.00">R</text>
</g>
<!-- ast_nodeLR&#45;&gt;ast_nodeLRR -->
<g id="edge4" class="edge">
<title>ast_nodeLR:R&#45;&gt;ast_nodeLRR:A</title>
<path fill="none" stroke="black" d="M112.55,-183.5C112.55,-167.02 112.55,-160.29 112.55,-147.92"/>
<polygon fill="black" stroke="black" points="116.05,-148.01 112.55,-138.01 109.05,-148.01 116.05,-148.01"/>
</g>
<!-- ast_nodeLRRL -->
<g id="node8" class="node">
<title>ast_nodeLRRL</title>
<polygon fill="none" stroke="black" points="67.5,-0.5 67.5,-52.5 129.61,-52.5 129.61,-0.5 67.5,-0.5"/>
<text text-anchor="middle" x="98.55" y="-39.5" font-family="Times,serif" font-size="10.00">ID</text>
<text text-anchor="middle" x="98.55" y="-27.5" font-family="Times,serif" font-size="10.00">WOBJECT</text>
<polyline fill="none" stroke="black" points="67.5,-20.5 129.61,-20.5"/>
<text text-anchor="middle" x="82.55" y="-7.5" font-family="Times,serif" font-size="10.00">L</text>
<polyline fill="none" stroke="black" points="97.61,-0.5 97.61,-20.5"/>
<text text-anchor="middle" x="113.44" y="-7.5" font-family="Times,serif" font-size="10.00">R</text>
</g>
<!-- ast_nodeLRR&#45;&gt;ast_nodeLRRL -->
<g id="edge3" class="edge">
<title>ast_nodeLRR:L&#45;&gt;ast_nodeLRRL:A</title>
<path fill="none" stroke="black" d="M98.55,-94.5C98.55,-80.52 98.55,-74.49 98.55,-64.36"/>
<polygon fill="black" stroke="black" points="102.05,-64.51 98.55,-54.51 95.05,-64.51 102.05,-64.51"/>
</g>
<!-- ast_nodeRL -->
<g id="node10" class="node">
<title>ast_nodeRL</title>
<polygon fill="none" stroke="black" points="171.55,-184.5 171.55,-224.5 225.55,-224.5 225.55,-184.5 171.55,-184.5"/>
<text text-anchor="middle" x="198.44" y="-211.5" font-family="Times,serif" font-size="10.00">CALL</text>
<polyline fill="none" stroke="black" points="171.55,-204.5 225.33,-204.5"/>
<text text-anchor="middle" x="184.61" y="-191.5" font-family="Times,serif" font-size="10.00">L</text>
<polyline fill="none" stroke="black" points="197.66,-184.5 197.66,-204.5"/>
<text text-anchor="middle" x="211.5" y="-191.5" font-family="Times,serif" font-size="10.00">R</text>
</g>
<!-- ast_nodeR&#45;&gt;ast_nodeRL -->
<g id="edge10" class="edge">
<title>ast_nodeR:L&#45;&gt;ast_nodeRL:A</title>
<path fill="none" stroke="black" d="M171.55,-267C171.55,-249.47 188.7,-247.5 195.66,-236.29"/>
<polygon fill="black" stroke="black" points="198.95,-237.53 198.16,-226.96 192.19,-235.72 198.95,-237.53"/>
</g>
<!-- ast_nodeRLL -->
<g id="node11" class="node">
<title>ast_nodeRLL</title>
<polygon fill="none" stroke="black" points="157.55,-89.5 157.55,-141.5 211.55,-141.5 211.55,-89.5 157.55,-89.5"/>
<text text-anchor="middle" x="184.27" y="-128.5" font-family="Times,serif" font-size="10.00">ID</text>
<text text-anchor="middle" x="184.27" y="-116.5" font-family="Times,serif" font-size="10.00">SHOW</text>
<polyline fill="none" stroke="black" points="157.55,-109.5 211,-109.5"/>
<text text-anchor="middle" x="170.61" y="-96.5" font-family="Times,serif" font-size="10.00">L</text>
<polyline fill="none" stroke="black" points="183.66,-89.5 183.66,-109.5"/>
<text text-anchor="middle" x="197" y="-96.5" font-family="Times,serif" font-size="10.00">R</text>
</g>
<!-- ast_nodeRL&#45;&gt;ast_nodeRLL -->
<g id="edge7" class="edge">
<title>ast_nodeRL:L&#45;&gt;ast_nodeRLL:A</title>
<path fill="none" stroke="black" d="M184.55,-183.5C184.55,-169.52 184.55,-163.49 184.55,-153.36"/>
<polygon fill="black" stroke="black" points="188.05,-153.51 184.55,-143.51 181.05,-153.51 188.05,-153.51"/>
</g>
<!-- ast_nodeRLR -->
<g id="node12" class="node">
<title>ast_nodeRLR</title>
<polygon fill="none" stroke="black" points="229.55,-95.5 229.55,-135.5 283.55,-135.5 283.55,-95.5 229.55,-95.5"/>
<text text-anchor="middle" x="256.5" y="-122.5" font-family="Times,serif" font-size="10.00">PARMS</text>
<polyline fill="none" stroke="black" points="229.55,-115.5 283.46,-115.5"/>
<text text-anchor="middle" x="242.61" y="-102.5" font-family="Times,serif" font-size="10.00">L</text>
<polyline fill="none" stroke="black" points="255.66,-95.5 255.66,-115.5"/>
<text text-anchor="middle" x="269.5" y="-102.5" font-family="Times,serif" font-size="10.00">R</text>
</g>
<!-- ast_nodeRL&#45;&gt;ast_nodeRLR -->
<g id="edge9" class="edge">
<title>ast_nodeRL:R&#45;&gt;ast_nodeRLR:A</title>
<path fill="none" stroke="black" d="M211.55,-183.5C211.55,-181.07 218.68,-151.86 223.9,-135.85"/>
<polygon fill="black" stroke="black" points="227.02,-137.44 227.93,-126.88 220.64,-134.56 227.02,-137.44"/>
</g>
<!-- ast_nodeRLRL -->
<g id="node13" class="node">
<title>ast_nodeRLRL</title>
<polygon fill="none" stroke="black" points="211.5,-0.5 211.5,-52.5 273.61,-52.5 273.61,-0.5 211.5,-0.5"/>
<text text-anchor="middle" x="242.55" y="-39.5" font-family="Times,serif" font-size="10.00">ID</text>
<text text-anchor="middle" x="242.55" y="-27.5" font-family="Times,serif" font-size="10.00">WOBJECT</text>
<polyline fill="none" stroke="black" points="211.5,-20.5 273.61,-20.5"/>
<text text-anchor="middle" x="226.55" y="-7.5" font-family="Times,serif" font-size="10.00">L</text>
<polyline fill="none" stroke="black" points="241.61,-0.5 241.61,-20.5"/>
<text text-anchor="middle" x="257.44" y="-7.5" font-family="Times,serif" font-size="10.00">R</text>
</g>
<!-- ast_nodeRLR&#45;&gt;ast_nodeRLRL -->
<g id="edge8" class="edge">
<title>ast_nodeRLR:L&#45;&gt;ast_nodeRLRL:A</title>
<path fill="none" stroke="black" d="M242.55,-94.5C242.55,-80.52 242.55,-74.49 242.55,-64.36"/>
<polygon fill="black" stroke="black" points="246.05,-64.51 242.55,-54.51 239.05,-64.51 246.05,-64.51"/>
</g>
<!-- code -->
<g id="node14" class="node">
<title>code</title>
<polygon fill="none" stroke="black" points="181.55,-344.5 181.55,-414.5 395.55,-414.5 395.55,-344.5 181.55,-344.5"/>
<polygon fill="none" stroke="black" points="192.55,-387.5 192.55,-407.5 384.55,-407.5 384.55,-387.5 192.55,-387.5"/>
<text text-anchor="start" x="274.15" y="-394.7" font-family="Courier New" font-weight="bold" font-size="12.00">code</text>
<polygon fill="none" stroke="black" points="192.55,-351.5 192.55,-385.5 384.55,-385.5 384.55,-351.5 192.55,-351.5"/>
<text text-anchor="start" x="195.55" y="-371.7" font-family="Times,serif" font-size="12.00" fill="blue"> &#160;&#160;&#160;ASSIGN(WOBJECT,IDD_BAIT0);</text>
<text text-anchor="start" x="195.55" y="-357.3" font-family="Times,serif" font-size="12.00" fill="blue"> &#160;&#160;&#160;SHOW(WOBJECT);</text>
<polygon fill="none" stroke="black" points="189.55,-348.5 189.55,-410.5 387.55,-410.5 387.55,-348.5 189.55,-348.5"/>
</g>
</g>
</svg>
