<?xml version="1.0" encoding="UTF-8" standalone="no"?>
<!DOCTYPE svg PUBLIC "-//W3C//DTD SVG 1.1//EN"
 "http://www.w3.org/Graphics/SVG/1.1/DTD/svg11.dtd">
<!-- Generated by graphviz version 7.1.0 (20230121.1956)
 -->
<!-- Title: AbstractSyntaxTree Pages: 1 -->
<svg width="371pt" height="506pt"
 viewBox="0.00 0.00 371.00 506.00" xmlns="http://www.w3.org/2000/svg" xmlns:xlink="http://www.w3.org/1999/xlink">
<g id="graph0" class="graph" transform="scale(1 1) rotate(0) translate(4 502)">
<title>AbstractSyntaxTree</title>
<polygon fill="white" stroke="none" points="-4,4 -4,-502 367,-502 367,4 -4,4"/>
<!-- filename -->
<g id="node1" class="node">
<title>filename</title>
<polygon fill="none" stroke="black" points="7.33,-447.5 7.33,-483.5 90.67,-483.5 90.67,-447.5 7.33,-447.5"/>
<text text-anchor="middle" x="49" y="-461.9" font-family="Times,serif" font-size="12.00">S30_PATH2a</text>
</g>
<!-- ast_node -->
<g id="node2" class="node">
<title>ast_node</title>
<polygon fill="none" stroke="black" points="109,-445.5 109,-485.5 163,-485.5 163,-445.5 109,-445.5"/>
<text text-anchor="middle" x="135.62" y="-472.5" font-family="Times,serif" font-size="10.00">STMTS</text>
<polyline fill="none" stroke="black" points="109,-465.5 162.23,-465.5"/>
<text text-anchor="middle" x="122.05" y="-452.5" font-family="Times,serif" font-size="10.00">L</text>
<polyline fill="none" stroke="black" points="135.11,-445.5 135.11,-465.5"/>
<text text-anchor="middle" x="148.44" y="-452.5" font-family="Times,serif" font-size="10.00">R</text>
</g>
<!-- ast_nodeL -->
<g id="node3" class="node">
<title>ast_nodeL</title>
<polygon fill="none" stroke="black" points="59,-356.5 59,-396.5 113,-396.5 113,-356.5 59,-356.5"/>
<text text-anchor="middle" x="85.89" y="-383.5" font-family="Times,serif" font-size="10.00">CALL</text>
<polyline fill="none" stroke="black" points="59,-376.5 112.78,-376.5"/>
<text text-anchor="middle" x="72.05" y="-363.5" font-family="Times,serif" font-size="10.00">L</text>
<polyline fill="none" stroke="black" points="85.11,-356.5 85.11,-376.5"/>
<text text-anchor="middle" x="98.94" y="-363.5" font-family="Times,serif" font-size="10.00">R</text>
</g>
<!-- ast_node&#45;&gt;ast_nodeL -->
<g id="edge6" class="edge">
<title>ast_node:L&#45;&gt;ast_nodeL:A</title>
<path fill="none" stroke="black" d="M122,-444.5C122,-423.56 133.67,-398.76 124.67,-389.88"/>
<polygon fill="black" stroke="black" points="126.03,-386.64 115.44,-386.96 123.92,-393.31 126.03,-386.64"/>
</g>
<!-- ast_nodeR -->
<g id="node9" class="node">
<title>ast_nodeR</title>
<polygon fill="none" stroke="black" points="158,-356.5 158,-396.5 212,-396.5 212,-356.5 158,-356.5"/>
<text text-anchor="middle" x="184.62" y="-383.5" font-family="Times,serif" font-size="10.00">STMTS</text>
<polyline fill="none" stroke="black" points="158,-376.5 211.23,-376.5"/>
<text text-anchor="middle" x="171.05" y="-363.5" font-family="Times,serif" font-size="10.00">L</text>
<polyline fill="none" stroke="black" points="184.11,-356.5 184.11,-376.5"/>
<text text-anchor="middle" x="197.44" y="-363.5" font-family="Times,serif" font-size="10.00">R</text>
</g>
<!-- ast_node&#45;&gt;ast_nodeR -->
<g id="edge13" class="edge">
<title>ast_node:R&#45;&gt;ast_nodeR:A</title>
<path fill="none" stroke="black" d="M148,-444.5C148,-423.51 136.94,-398.74 146.21,-389.87"/>
<polygon fill="black" stroke="black" points="147.05,-393.27 155.56,-386.95 144.97,-386.59 147.05,-393.27"/>
</g>
<!-- ast_nodeLL -->
<g id="node4" class="node">
<title>ast_nodeLL</title>
<polygon fill="none" stroke="black" points="0,-267.5 0,-319.5 54,-319.5 54,-267.5 0,-267.5"/>
<text text-anchor="middle" x="26.89" y="-306.5" font-family="Times,serif" font-size="10.00">ID</text>
<text text-anchor="middle" x="26.89" y="-294.5" font-family="Times,serif" font-size="10.00">MOV</text>
<polyline fill="none" stroke="black" points="0,-287.5 53.78,-287.5"/>
<text text-anchor="middle" x="13.05" y="-274.5" font-family="Times,serif" font-size="10.00">L</text>
<polyline fill="none" stroke="black" points="26.11,-267.5 26.11,-287.5"/>
<text text-anchor="middle" x="39.94" y="-274.5" font-family="Times,serif" font-size="10.00">R</text>
</g>
<!-- ast_nodeL&#45;&gt;ast_nodeLL -->
<g id="edge1" class="edge">
<title>ast_nodeL:L&#45;&gt;ast_nodeLL:A</title>
<path fill="none" stroke="black" d="M72,-356C72,-353.82 64.96,-328.2 59.78,-313.58"/>
<polygon fill="black" stroke="black" points="63.1,-312.4 55.65,-304.87 56.78,-315.4 63.1,-312.4"/>
</g>
<!-- ast_nodeLR -->
<g id="node5" class="node">
<title>ast_nodeLR</title>
<polygon fill="none" stroke="black" points="72,-273.5 72,-313.5 126,-313.5 126,-273.5 72,-273.5"/>
<text text-anchor="middle" x="98.95" y="-300.5" font-family="Times,serif" font-size="10.00">PARMS</text>
<polyline fill="none" stroke="black" points="72,-293.5 125.91,-293.5"/>
<text text-anchor="middle" x="85.05" y="-280.5" font-family="Times,serif" font-size="10.00">L</text>
<polyline fill="none" stroke="black" points="98.11,-273.5 98.11,-293.5"/>
<text text-anchor="middle" x="111.94" y="-280.5" font-family="Times,serif" font-size="10.00">R</text>
</g>
<!-- ast_nodeL&#45;&gt;ast_nodeLR -->
<g id="edge5" class="edge">
<title>ast_nodeL:R&#45;&gt;ast_nodeLR:A</title>
<path fill="none" stroke="black" d="M99,-356C99,-342.02 99,-335.99 99,-325.86"/>
<polygon fill="black" stroke="black" points="102.5,-326.01 99,-316.01 95.5,-326.01 102.5,-326.01"/>
</g>
<!-- ast_nodeLRL -->
<g id="node6" class="node">
<title>ast_nodeLRL</title>
<polygon fill="none" stroke="black" points="13,-178.5 13,-230.5 67,-230.5 67,-178.5 13,-178.5"/>
<text text-anchor="middle" x="39.89" y="-217.5" font-family="Times,serif" font-size="10.00">ID</text>
<text text-anchor="middle" x="39.89" y="-205.5" font-family="Times,serif" font-size="10.00">WIP1</text>
<polyline fill="none" stroke="black" points="13,-198.5 66.78,-198.5"/>
<text text-anchor="middle" x="26.05" y="-185.5" font-family="Times,serif" font-size="10.00">L</text>
<polyline fill="none" stroke="black" points="39.11,-178.5 39.11,-198.5"/>
<text text-anchor="middle" x="52.94" y="-185.5" font-family="Times,serif" font-size="10.00">R</text>
</g>
<!-- ast_nodeLR&#45;&gt;ast_nodeLRL -->
<g id="edge2" class="edge">
<title>ast_nodeLR:L&#45;&gt;ast_nodeLRL:A</title>
<path fill="none" stroke="black" d="M85,-272.5C85,-270.07 77.88,-240.86 72.66,-224.85"/>
<polygon fill="black" stroke="black" points="75.92,-223.56 68.62,-215.88 69.53,-226.44 75.92,-223.56"/>
</g>
<!-- ast_nodeLRR -->
<g id="node7" class="node">
<title>ast_nodeLRR</title>
<polygon fill="none" stroke="black" points="85,-184.5 85,-224.5 139,-224.5 139,-184.5 85,-184.5"/>
<text text-anchor="middle" x="111.95" y="-211.5" font-family="Times,serif" font-size="10.00">PARMS</text>
<polyline fill="none" stroke="black" points="85,-204.5 138.91,-204.5"/>
<text text-anchor="middle" x="98.05" y="-191.5" font-family="Times,serif" font-size="10.00">L</text>
<polyline fill="none" stroke="black" points="111.11,-184.5 111.11,-204.5"/>
<text text-anchor="middle" x="124.94" y="-191.5" font-family="Times,serif" font-size="10.00">R</text>
</g>
<!-- ast_nodeLR&#45;&gt;ast_nodeLRR -->
<g id="edge4" class="edge">
<title>ast_nodeLR:R&#45;&gt;ast_nodeLRR:A</title>
<path fill="none" stroke="black" d="M112,-272.5C112,-256.02 112,-249.29 112,-236.92"/>
<polygon fill="black" stroke="black" points="115.5,-237.01 112,-227.01 108.5,-237.01 115.5,-237.01"/>
</g>
<!-- ast_nodeLRRL -->
<g id="node8" class="node">
<title>ast_nodeLRRL</title>
<polygon fill="none" stroke="black" points="68.61,-89.5 68.61,-141.5 127.39,-141.5 127.39,-89.5 68.61,-89.5"/>
<text text-anchor="middle" x="98" y="-128.5" font-family="Times,serif" font-size="10.00">ID</text>
<text text-anchor="middle" x="98" y="-116.5" font-family="Times,serif" font-size="10.00">WSPRITE</text>
<polyline fill="none" stroke="black" points="68.61,-109.5 127.39,-109.5"/>
<text text-anchor="middle" x="83.17" y="-96.5" font-family="Times,serif" font-size="10.00">L</text>
<polyline fill="none" stroke="black" points="97.72,-89.5 97.72,-109.5"/>
<text text-anchor="middle" x="112.55" y="-96.5" font-family="Times,serif" font-size="10.00">R</text>
</g>
<!-- ast_nodeLRR&#45;&gt;ast_nodeLRRL -->
<g id="edge3" class="edge">
<title>ast_nodeLRR:L&#45;&gt;ast_nodeLRRL:A</title>
<path fill="none" stroke="black" d="M98,-183.5C98,-169.52 98,-163.49 98,-153.36"/>
<polygon fill="black" stroke="black" points="101.5,-153.51 98,-143.51 94.5,-153.51 101.5,-153.51"/>
</g>
<!-- ast_nodeRL -->
<g id="node10" class="node">
<title>ast_nodeRL</title>
<polygon fill="none" stroke="black" points="171,-273.5 171,-313.5 225,-313.5 225,-273.5 171,-273.5"/>
<text text-anchor="middle" x="197.89" y="-300.5" font-family="Times,serif" font-size="10.00">CALL</text>
<polyline fill="none" stroke="black" points="171,-293.5 224.78,-293.5"/>
<text text-anchor="middle" x="184.05" y="-280.5" font-family="Times,serif" font-size="10.00">L</text>
<polyline fill="none" stroke="black" points="197.11,-273.5 197.11,-293.5"/>
<text text-anchor="middle" x="210.94" y="-280.5" font-family="Times,serif" font-size="10.00">R</text>
</g>
<!-- ast_nodeR&#45;&gt;ast_nodeRL -->
<g id="edge12" class="edge">
<title>ast_nodeR:L&#45;&gt;ast_nodeRL:A</title>
<path fill="none" stroke="black" d="M171,-356C171,-338.47 188.15,-336.5 195.11,-325.29"/>
<polygon fill="black" stroke="black" points="198.4,-326.53 197.61,-315.96 191.64,-324.72 198.4,-326.53"/>
</g>
<!-- ast_nodeRLL -->
<g id="node11" class="node">
<title>ast_nodeRLL</title>
<polygon fill="none" stroke="black" points="157,-178.5 157,-230.5 211,-230.5 211,-178.5 157,-178.5"/>
<text text-anchor="middle" x="183.83" y="-217.5" font-family="Times,serif" font-size="10.00">ID</text>
<text text-anchor="middle" x="183.83" y="-205.5" font-family="Times,serif" font-size="10.00">ASHOW</text>
<polyline fill="none" stroke="black" points="157,-198.5 210.67,-198.5"/>
<text text-anchor="middle" x="170.05" y="-185.5" font-family="Times,serif" font-size="10.00">L</text>
<polyline fill="none" stroke="black" points="183.11,-178.5 183.11,-198.5"/>
<text text-anchor="middle" x="196.44" y="-185.5" font-family="Times,serif" font-size="10.00">R</text>
</g>
<!-- ast_nodeRL&#45;&gt;ast_nodeRLL -->
<g id="edge7" class="edge">
<title>ast_nodeRL:L&#45;&gt;ast_nodeRLL:A</title>
<path fill="none" stroke="black" d="M184,-272.5C184,-258.52 184,-252.49 184,-242.36"/>
<polygon fill="black" stroke="black" points="187.5,-242.51 184,-232.51 180.5,-242.51 187.5,-242.51"/>
</g>
<!-- ast_nodeRLR -->
<g id="node12" class="node">
<title>ast_nodeRLR</title>
<polygon fill="none" stroke="black" points="229,-184.5 229,-224.5 283,-224.5 283,-184.5 229,-184.5"/>
<text text-anchor="middle" x="255.95" y="-211.5" font-family="Times,serif" font-size="10.00">PARMS</text>
<polyline fill="none" stroke="black" points="229,-204.5 282.91,-204.5"/>
<text text-anchor="middle" x="242.05" y="-191.5" font-family="Times,serif" font-size="10.00">L</text>
<polyline fill="none" stroke="black" points="255.11,-184.5 255.11,-204.5"/>
<text text-anchor="middle" x="268.94" y="-191.5" font-family="Times,serif" font-size="10.00">R</text>
</g>
<!-- ast_nodeRL&#45;&gt;ast_nodeRLR -->
<g id="edge11" class="edge">
<title>ast_nodeRL:R&#45;&gt;ast_nodeRLR:A</title>
<path fill="none" stroke="black" d="M211,-272.5C211,-270.07 218.12,-240.86 223.34,-224.85"/>
<polygon fill="black" stroke="black" points="226.47,-226.44 227.38,-215.88 220.08,-223.56 226.47,-226.44"/>
</g>
<!-- ast_nodeRLRL -->
<g id="node13" class="node">
<title>ast_nodeRLRL</title>
<polygon fill="none" stroke="black" points="191.83,-89.5 191.83,-141.5 246.17,-141.5 246.17,-89.5 191.83,-89.5"/>
<text text-anchor="middle" x="219" y="-128.5" font-family="Times,serif" font-size="10.00">ID</text>
<text text-anchor="middle" x="219" y="-116.5" font-family="Times,serif" font-size="10.00">V_LOOP</text>
<polyline fill="none" stroke="black" points="191.83,-109.5 246.17,-109.5"/>
<text text-anchor="middle" x="204.89" y="-96.5" font-family="Times,serif" font-size="10.00">L</text>
<polyline fill="none" stroke="black" points="217.94,-89.5 217.94,-109.5"/>
<text text-anchor="middle" x="231.78" y="-96.5" font-family="Times,serif" font-size="10.00">R</text>
</g>
<!-- ast_nodeRLR&#45;&gt;ast_nodeRLRL -->
<g id="edge8" class="edge">
<title>ast_nodeRLR:L&#45;&gt;ast_nodeRLRL:A</title>
<path fill="none" stroke="black" d="M242,-183.5C242,-166.86 227.68,-163.77 221.64,-152.85"/>
<polygon fill="black" stroke="black" points="225.12,-152.36 219.36,-143.47 218.32,-154.01 225.12,-152.36"/>
</g>
<!-- ast_nodeRLRR -->
<g id="node14" class="node">
<title>ast_nodeRLRR</title>
<polygon fill="none" stroke="black" points="264,-95.5 264,-135.5 318,-135.5 318,-95.5 264,-95.5"/>
<text text-anchor="middle" x="290.95" y="-122.5" font-family="Times,serif" font-size="10.00">PARMS</text>
<polyline fill="none" stroke="black" points="264,-115.5 317.91,-115.5"/>
<text text-anchor="middle" x="277.05" y="-102.5" font-family="Times,serif" font-size="10.00">L</text>
<polyline fill="none" stroke="black" points="290.11,-95.5 290.11,-115.5"/>
<text text-anchor="middle" x="303.94" y="-102.5" font-family="Times,serif" font-size="10.00">R</text>
</g>
<!-- ast_nodeRLR&#45;&gt;ast_nodeRLRR -->
<g id="edge10" class="edge">
<title>ast_nodeRLR:R&#45;&gt;ast_nodeRLRR:A</title>
<path fill="none" stroke="black" d="M269,-183.5C269,-164.76 283.52,-160.67 288.97,-147.43"/>
<polygon fill="black" stroke="black" points="292.34,-148.46 290.72,-137.99 285.46,-147.18 292.34,-148.46"/>
</g>
<!-- ast_nodeRLRRL -->
<g id="node15" class="node">
<title>ast_nodeRLRRL</title>
<polygon fill="none" stroke="black" points="247.61,-0.5 247.61,-52.5 306.39,-52.5 306.39,-0.5 247.61,-0.5"/>
<text text-anchor="middle" x="277" y="-39.5" font-family="Times,serif" font-size="10.00">ID</text>
<text text-anchor="middle" x="277" y="-27.5" font-family="Times,serif" font-size="10.00">WSPRITE</text>
<polyline fill="none" stroke="black" points="247.61,-20.5 306.39,-20.5"/>
<text text-anchor="middle" x="262.17" y="-7.5" font-family="Times,serif" font-size="10.00">L</text>
<polyline fill="none" stroke="black" points="276.72,-0.5 276.72,-20.5"/>
<text text-anchor="middle" x="291.55" y="-7.5" font-family="Times,serif" font-size="10.00">R</text>
</g>
<!-- ast_nodeRLRR&#45;&gt;ast_nodeRLRRL -->
<g id="edge9" class="edge">
<title>ast_nodeRLRR:L&#45;&gt;ast_nodeRLRRL:A</title>
<path fill="none" stroke="black" d="M277,-94.5C277,-80.52 277,-74.49 277,-64.36"/>
<polygon fill="black" stroke="black" points="280.5,-64.51 277,-54.51 273.5,-64.51 280.5,-64.51"/>
</g>
<!-- code -->
<g id="node16" class="node">
<title>code</title>
<polygon fill="none" stroke="black" points="181,-433.5 181,-497.5 363,-497.5 363,-433.5 181,-433.5"/>
<polygon fill="none" stroke="black" points="192,-472.5 192,-490.5 352,-490.5 352,-472.5 192,-472.5"/>
<text text-anchor="start" x="262.28" y="-479.5" font-family="Times,serif" font-weight="bold" font-size="10.00">code</text>
<polygon fill="none" stroke="black" points="192,-440.5 192,-470.5 352,-470.5 352,-440.5 192,-440.5"/>
<text text-anchor="start" x="195" y="-458.5" font-family="Times,serif" font-size="10.00" fill="blue">MOV(WSPRITE,WIP1);</text>
<text text-anchor="start" x="195" y="-446.5" font-family="Times,serif" font-size="10.00" fill="blue"> &#160;&#160;&#160;&#160;&#160;&#160;&#160;&#160;ASHOW(WSPRITE, V_LOOP);</text>
<polygon fill="none" stroke="black" points="189,-437.5 189,-493.5 355,-493.5 355,-437.5 189,-437.5"/>
</g>
</g>
</svg>
