<?xml version="1.0" encoding="UTF-8" standalone="no"?>
<!DOCTYPE svg PUBLIC "-//W3C//DTD SVG 1.1//EN"
 "http://www.w3.org/Graphics/SVG/1.1/DTD/svg11.dtd">
<!-- Generated by graphviz version 7.1.0 (20230121.1956)
 -->
<!-- Title: AbstractSyntaxTree Pages: 1 -->
<svg width="827pt" height="676pt"
 viewBox="0.00 0.00 827.00 676.00" xmlns="http://www.w3.org/2000/svg" xmlns:xlink="http://www.w3.org/1999/xlink">
<g id="graph0" class="graph" transform="scale(1 1) rotate(0) translate(4 672)">
<title>AbstractSyntaxTree</title>
<polygon fill="white" stroke="none" points="-4,4 -4,-672 823,-672 823,4 -4,4"/>
<!-- filename -->
<g id="node1" class="node">
<title>filename</title>
<polygon fill="none" stroke="black" points="7.33,-621.5 7.33,-657.5 122.67,-657.5 122.67,-621.5 7.33,-621.5"/>
<text text-anchor="middle" x="65" y="-635.9" font-family="Times,serif" font-size="12.00">SMP_VIALMETER</text>
</g>
<!-- ast_node -->
<g id="node2" class="node">
<title>ast_node</title>
<polygon fill="none" stroke="black" points="141,-619.5 141,-659.5 195,-659.5 195,-619.5 141,-619.5"/>
<text text-anchor="middle" x="167.62" y="-646.5" font-family="Times,serif" font-size="10.00">STMTS</text>
<polyline fill="none" stroke="black" points="141,-639.5 194.23,-639.5"/>
<text text-anchor="middle" x="154.06" y="-626.5" font-family="Times,serif" font-size="10.00">L</text>
<polyline fill="none" stroke="black" points="167.11,-619.5 167.11,-639.5"/>
<text text-anchor="middle" x="180.45" y="-626.5" font-family="Times,serif" font-size="10.00">R</text>
</g>
<!-- ast_nodeL -->
<g id="node3" class="node">
<title>ast_nodeL</title>
<polygon fill="none" stroke="black" points="91,-534.5 91,-574.5 145,-574.5 145,-534.5 91,-534.5"/>
<text text-anchor="middle" x="117.89" y="-561.5" font-family="Times,serif" font-size="10.00">CALL</text>
<polyline fill="none" stroke="black" points="91,-554.5 144.78,-554.5"/>
<text text-anchor="middle" x="104.06" y="-541.5" font-family="Times,serif" font-size="10.00">L</text>
<polyline fill="none" stroke="black" points="117.11,-534.5 117.11,-554.5"/>
<text text-anchor="middle" x="130.95" y="-541.5" font-family="Times,serif" font-size="10.00">R</text>
</g>
<!-- ast_node&#45;&gt;ast_nodeL -->
<g id="edge4" class="edge">
<title>ast_node:L&#45;&gt;ast_nodeL:A</title>
<path fill="none" stroke="black" d="M154,-618.5C154,-599.55 163.93,-577.25 156.7,-568.4"/>
<polygon fill="black" stroke="black" points="158.02,-565.16 147.42,-565.02 155.62,-571.73 158.02,-565.16"/>
</g>
<!-- ast_nodeR -->
<g id="node7" class="node">
<title>ast_nodeR</title>
<polygon fill="none" stroke="black" points="190,-534.5 190,-574.5 244,-574.5 244,-534.5 190,-534.5"/>
<text text-anchor="middle" x="216.62" y="-561.5" font-family="Times,serif" font-size="10.00">STMTS</text>
<polyline fill="none" stroke="black" points="190,-554.5 243.23,-554.5"/>
<text text-anchor="middle" x="203.06" y="-541.5" font-family="Times,serif" font-size="10.00">L</text>
<polyline fill="none" stroke="black" points="216.11,-534.5 216.11,-554.5"/>
<text text-anchor="middle" x="229.45" y="-541.5" font-family="Times,serif" font-size="10.00">R</text>
</g>
<!-- ast_node&#45;&gt;ast_nodeR -->
<g id="edge30" class="edge">
<title>ast_node:R&#45;&gt;ast_nodeR:A</title>
<path fill="none" stroke="black" d="M180,-618.5C180,-599.3 170.46,-576.78 178.38,-568.13"/>
<polygon fill="black" stroke="black" points="179.24,-571.54 187.57,-564.99 176.98,-564.91 179.24,-571.54"/>
</g>
<!-- ast_nodeLL -->
<g id="node4" class="node">
<title>ast_nodeLL</title>
<polygon fill="none" stroke="black" points="0,-445.5 0,-497.5 86,-497.5 86,-445.5 0,-445.5"/>
<text text-anchor="middle" x="43" y="-484.5" font-family="Times,serif" font-size="10.00">ID</text>
<text text-anchor="middle" x="43" y="-472.5" font-family="Times,serif" font-size="10.00">REF_MACHINE</text>
<polyline fill="none" stroke="black" points="0,-465.5 86,-465.5"/>
<text text-anchor="middle" x="21.05" y="-452.5" font-family="Times,serif" font-size="10.00">L</text>
<polyline fill="none" stroke="black" points="42.11,-445.5 42.11,-465.5"/>
<text text-anchor="middle" x="63.94" y="-452.5" font-family="Times,serif" font-size="10.00">R</text>
</g>
<!-- ast_nodeL&#45;&gt;ast_nodeLL -->
<g id="edge1" class="edge">
<title>ast_nodeL:L&#45;&gt;ast_nodeLL:A</title>
<path fill="none" stroke="black" d="M90,-544.5C79.6,-544.5 90.71,-509.8 91.39,-491.9"/>
<polygon fill="black" stroke="black" points="94.71,-490.75 87.59,-482.89 88.26,-493.47 94.71,-490.75"/>
</g>
<!-- ast_nodeLR -->
<g id="node5" class="node">
<title>ast_nodeLR</title>
<polygon fill="none" stroke="black" points="104,-451.5 104,-491.5 158,-491.5 158,-451.5 104,-451.5"/>
<text text-anchor="middle" x="130.96" y="-478.5" font-family="Times,serif" font-size="10.00">PARMS</text>
<polyline fill="none" stroke="black" points="104,-471.5 157.91,-471.5"/>
<text text-anchor="middle" x="117.06" y="-458.5" font-family="Times,serif" font-size="10.00">L</text>
<polyline fill="none" stroke="black" points="130.11,-451.5 130.11,-471.5"/>
<text text-anchor="middle" x="143.95" y="-458.5" font-family="Times,serif" font-size="10.00">R</text>
</g>
<!-- ast_nodeL&#45;&gt;ast_nodeLR -->
<g id="edge3" class="edge">
<title>ast_nodeL:R&#45;&gt;ast_nodeLR:A</title>
<path fill="none" stroke="black" d="M131,-534C131,-520.02 131,-513.99 131,-503.86"/>
<polygon fill="black" stroke="black" points="134.5,-504.01 131,-494.01 127.5,-504.01 134.5,-504.01"/>
</g>
<!-- ast_nodeLRL -->
<g id="node6" class="node">
<title>ast_nodeLRL</title>
<polygon fill="none" stroke="black" points="68,-356.5 68,-408.5 122,-408.5 122,-356.5 68,-356.5"/>
<text text-anchor="middle" x="94.89" y="-395.5" font-family="Times,serif" font-size="10.00">ID</text>
<text text-anchor="middle" x="94.89" y="-383.5" font-family="Times,serif" font-size="10.00">WIP1</text>
<polyline fill="none" stroke="black" points="68,-376.5 121.78,-376.5"/>
<text text-anchor="middle" x="81.06" y="-363.5" font-family="Times,serif" font-size="10.00">L</text>
<polyline fill="none" stroke="black" points="94.11,-356.5 94.11,-376.5"/>
<text text-anchor="middle" x="107.95" y="-363.5" font-family="Times,serif" font-size="10.00">R</text>
</g>
<!-- ast_nodeLR&#45;&gt;ast_nodeLRL -->
<g id="edge2" class="edge">
<title>ast_nodeLR:L&#45;&gt;ast_nodeLRL:A</title>
<path fill="none" stroke="black" d="M117,-450.5C117,-434.19 103.57,-430.78 97.7,-420.11"/>
<polygon fill="black" stroke="black" points="101.12,-419.36 95.36,-410.47 94.32,-421.01 101.12,-419.36"/>
</g>
<!-- ast_nodeRL -->
<g id="node8" class="node">
<title>ast_nodeRL</title>
<polygon fill="none" stroke="black" points="176,-451.5 176,-491.5 230,-491.5 230,-451.5 176,-451.5"/>
<text text-anchor="middle" x="202.89" y="-478.5" font-family="Times,serif" font-size="10.00">CALL</text>
<polyline fill="none" stroke="black" points="176,-471.5 229.78,-471.5"/>
<text text-anchor="middle" x="189.06" y="-458.5" font-family="Times,serif" font-size="10.00">L</text>
<polyline fill="none" stroke="black" points="202.11,-451.5 202.11,-471.5"/>
<text text-anchor="middle" x="215.95" y="-458.5" font-family="Times,serif" font-size="10.00">R</text>
</g>
<!-- ast_nodeR&#45;&gt;ast_nodeRL -->
<g id="edge10" class="edge">
<title>ast_nodeR:L&#45;&gt;ast_nodeRL:A</title>
<path fill="none" stroke="black" d="M203,-534C203,-520.02 203,-513.99 203,-503.86"/>
<polygon fill="black" stroke="black" points="206.5,-504.01 203,-494.01 199.5,-504.01 206.5,-504.01"/>
</g>
<!-- ast_nodeRR -->
<g id="node14" class="node">
<title>ast_nodeRR</title>
<polygon fill="none" stroke="black" points="347,-451.5 347,-491.5 401,-491.5 401,-451.5 347,-451.5"/>
<text text-anchor="middle" x="373.62" y="-478.5" font-family="Times,serif" font-size="10.00">STMTS</text>
<polyline fill="none" stroke="black" points="347,-471.5 400.23,-471.5"/>
<text text-anchor="middle" x="360.06" y="-458.5" font-family="Times,serif" font-size="10.00">L</text>
<polyline fill="none" stroke="black" points="373.11,-451.5 373.11,-471.5"/>
<text text-anchor="middle" x="386.45" y="-458.5" font-family="Times,serif" font-size="10.00">R</text>
</g>
<!-- ast_nodeR&#45;&gt;ast_nodeRR -->
<g id="edge29" class="edge">
<title>ast_nodeR:R&#45;&gt;ast_nodeRR:A</title>
<path fill="none" stroke="black" d="M244,-544.5C293.23,-544.5 293.08,-490.73 334.78,-482.54"/>
<polygon fill="black" stroke="black" points="334.86,-486.05 344.5,-481.64 334.21,-479.08 334.86,-486.05"/>
</g>
<!-- ast_nodeRLL -->
<g id="node9" class="node">
<title>ast_nodeRLL</title>
<polygon fill="none" stroke="black" points="140,-356.5 140,-408.5 194,-408.5 194,-356.5 140,-356.5"/>
<text text-anchor="middle" x="166.89" y="-395.5" font-family="Times,serif" font-size="10.00">ID</text>
<text text-anchor="middle" x="166.89" y="-383.5" font-family="Times,serif" font-size="10.00">MOV</text>
<polyline fill="none" stroke="black" points="140,-376.5 193.78,-376.5"/>
<text text-anchor="middle" x="153.06" y="-363.5" font-family="Times,serif" font-size="10.00">L</text>
<polyline fill="none" stroke="black" points="166.11,-356.5 166.11,-376.5"/>
<text text-anchor="middle" x="179.95" y="-363.5" font-family="Times,serif" font-size="10.00">R</text>
</g>
<!-- ast_nodeRL&#45;&gt;ast_nodeRLL -->
<g id="edge5" class="edge">
<title>ast_nodeRL:L&#45;&gt;ast_nodeRLL:A</title>
<path fill="none" stroke="black" d="M189,-450.5C189,-434.19 175.57,-430.78 169.7,-420.11"/>
<polygon fill="black" stroke="black" points="173.12,-419.36 167.36,-410.47 166.32,-421.01 173.12,-419.36"/>
</g>
<!-- ast_nodeRLR -->
<g id="node10" class="node">
<title>ast_nodeRLR</title>
<polygon fill="none" stroke="black" points="212,-362.5 212,-402.5 266,-402.5 266,-362.5 212,-362.5"/>
<text text-anchor="middle" x="238.96" y="-389.5" font-family="Times,serif" font-size="10.00">PARMS</text>
<polyline fill="none" stroke="black" points="212,-382.5 265.91,-382.5"/>
<text text-anchor="middle" x="225.06" y="-369.5" font-family="Times,serif" font-size="10.00">L</text>
<polyline fill="none" stroke="black" points="238.11,-362.5 238.11,-382.5"/>
<text text-anchor="middle" x="251.95" y="-369.5" font-family="Times,serif" font-size="10.00">R</text>
</g>
<!-- ast_nodeRL&#45;&gt;ast_nodeRLR -->
<g id="edge9" class="edge">
<title>ast_nodeRL:R&#45;&gt;ast_nodeRLR:A</title>
<path fill="none" stroke="black" d="M216,-450.5C216,-431.6 231.19,-427.74 236.88,-414.48"/>
<polygon fill="black" stroke="black" points="240.25,-415.47 238.72,-404.99 233.38,-414.14 240.25,-415.47"/>
</g>
<!-- ast_nodeRLRL -->
<g id="node11" class="node">
<title>ast_nodeRLRL</title>
<polygon fill="none" stroke="black" points="144.66,-267.5 144.66,-319.5 207.34,-319.5 207.34,-267.5 144.66,-267.5"/>
<text text-anchor="middle" x="176" y="-306.5" font-family="Times,serif" font-size="10.00">ID</text>
<text text-anchor="middle" x="176" y="-294.5" font-family="Times,serif" font-size="10.00">R_BPARM</text>
<polyline fill="none" stroke="black" points="144.66,-287.5 207.34,-287.5"/>
<text text-anchor="middle" x="159.71" y="-274.5" font-family="Times,serif" font-size="10.00">L</text>
<polyline fill="none" stroke="black" points="174.77,-267.5 174.77,-287.5"/>
<text text-anchor="middle" x="190.6" y="-274.5" font-family="Times,serif" font-size="10.00">R</text>
</g>
<!-- ast_nodeRLR&#45;&gt;ast_nodeRLRL -->
<g id="edge6" class="edge">
<title>ast_nodeRLR:L&#45;&gt;ast_nodeRLRL:A</title>
<path fill="none" stroke="black" d="M225,-361.5C225,-359.07 217.88,-329.86 212.66,-313.85"/>
<polygon fill="black" stroke="black" points="215.92,-312.56 208.62,-304.88 209.53,-315.44 215.92,-312.56"/>
</g>
<!-- ast_nodeRLRR -->
<g id="node12" class="node">
<title>ast_nodeRLRR</title>
<polygon fill="none" stroke="black" points="225,-273.5 225,-313.5 279,-313.5 279,-273.5 225,-273.5"/>
<text text-anchor="middle" x="251.96" y="-300.5" font-family="Times,serif" font-size="10.00">PARMS</text>
<polyline fill="none" stroke="black" points="225,-293.5 278.91,-293.5"/>
<text text-anchor="middle" x="238.06" y="-280.5" font-family="Times,serif" font-size="10.00">L</text>
<polyline fill="none" stroke="black" points="251.11,-273.5 251.11,-293.5"/>
<text text-anchor="middle" x="264.95" y="-280.5" font-family="Times,serif" font-size="10.00">R</text>
</g>
<!-- ast_nodeRLR&#45;&gt;ast_nodeRLRR -->
<g id="edge8" class="edge">
<title>ast_nodeRLR:R&#45;&gt;ast_nodeRLRR:A</title>
<path fill="none" stroke="black" d="M252,-361.5C252,-345.02 252,-338.29 252,-325.92"/>
<polygon fill="black" stroke="black" points="255.5,-326.01 252,-316.01 248.5,-326.01 255.5,-326.01"/>
</g>
<!-- ast_nodeRLRRL -->
<g id="node13" class="node">
<title>ast_nodeRLRRL</title>
<polygon fill="none" stroke="black" points="211,-178.5 211,-230.5 265,-230.5 265,-178.5 211,-178.5"/>
<text text-anchor="middle" x="237.89" y="-217.5" font-family="Times,serif" font-size="10.00">ID</text>
<text text-anchor="middle" x="237.89" y="-205.5" font-family="Times,serif" font-size="10.00">WPARM</text>
<polyline fill="none" stroke="black" points="211,-198.5 264.79,-198.5"/>
<text text-anchor="middle" x="224.06" y="-185.5" font-family="Times,serif" font-size="10.00">L</text>
<polyline fill="none" stroke="black" points="237.11,-178.5 237.11,-198.5"/>
<text text-anchor="middle" x="250.95" y="-185.5" font-family="Times,serif" font-size="10.00">R</text>
</g>
<!-- ast_nodeRLRR&#45;&gt;ast_nodeRLRRL -->
<g id="edge7" class="edge">
<title>ast_nodeRLRR:L&#45;&gt;ast_nodeRLRRL:A</title>
<path fill="none" stroke="black" d="M238,-272.5C238,-258.52 238,-252.49 238,-242.36"/>
<polygon fill="black" stroke="black" points="241.5,-242.51 238,-232.51 234.5,-242.51 241.5,-242.51"/>
</g>
<!-- ast_nodeRRL -->
<g id="node15" class="node">
<title>ast_nodeRRL</title>
<polygon fill="none" stroke="black" points="333,-362.5 333,-402.5 387,-402.5 387,-362.5 333,-362.5"/>
<text text-anchor="middle" x="359.89" y="-389.5" font-family="Times,serif" font-size="10.00">CALL</text>
<polyline fill="none" stroke="black" points="333,-382.5 386.78,-382.5"/>
<text text-anchor="middle" x="346.06" y="-369.5" font-family="Times,serif" font-size="10.00">L</text>
<polyline fill="none" stroke="black" points="359.11,-362.5 359.11,-382.5"/>
<text text-anchor="middle" x="372.95" y="-369.5" font-family="Times,serif" font-size="10.00">R</text>
</g>
<!-- ast_nodeRR&#45;&gt;ast_nodeRRL -->
<g id="edge16" class="edge">
<title>ast_nodeRR:L&#45;&gt;ast_nodeRRL:A</title>
<path fill="none" stroke="black" d="M360,-450.5C360,-434.02 360,-427.29 360,-414.92"/>
<polygon fill="black" stroke="black" points="363.5,-415.01 360,-405.01 356.5,-415.01 363.5,-415.01"/>
</g>
<!-- ast_nodeRRR -->
<g id="node21" class="node">
<title>ast_nodeRRR</title>
<polygon fill="none" stroke="black" points="504,-362.5 504,-402.5 558,-402.5 558,-362.5 504,-362.5"/>
<text text-anchor="middle" x="530.62" y="-389.5" font-family="Times,serif" font-size="10.00">STMTS</text>
<polyline fill="none" stroke="black" points="504,-382.5 557.23,-382.5"/>
<text text-anchor="middle" x="517.06" y="-369.5" font-family="Times,serif" font-size="10.00">L</text>
<polyline fill="none" stroke="black" points="530.11,-362.5 530.11,-382.5"/>
<text text-anchor="middle" x="543.45" y="-369.5" font-family="Times,serif" font-size="10.00">R</text>
</g>
<!-- ast_nodeRR&#45;&gt;ast_nodeRRR -->
<g id="edge28" class="edge">
<title>ast_nodeRR:R&#45;&gt;ast_nodeRRR:A</title>
<path fill="none" stroke="black" d="M401,-461.5C451.67,-461.5 449.04,-402.36 491.79,-393.58"/>
<polygon fill="black" stroke="black" points="491.88,-397.09 501.5,-392.65 491.21,-390.12 491.88,-397.09"/>
</g>
<!-- ast_nodeRRLL -->
<g id="node16" class="node">
<title>ast_nodeRRLL</title>
<polygon fill="none" stroke="black" points="297,-267.5 297,-319.5 351,-319.5 351,-267.5 297,-267.5"/>
<text text-anchor="middle" x="323.89" y="-306.5" font-family="Times,serif" font-size="10.00">ID</text>
<text text-anchor="middle" x="323.89" y="-294.5" font-family="Times,serif" font-size="10.00">MULI</text>
<polyline fill="none" stroke="black" points="297,-287.5 350.78,-287.5"/>
<text text-anchor="middle" x="310.06" y="-274.5" font-family="Times,serif" font-size="10.00">L</text>
<polyline fill="none" stroke="black" points="323.11,-267.5 323.11,-287.5"/>
<text text-anchor="middle" x="336.95" y="-274.5" font-family="Times,serif" font-size="10.00">R</text>
</g>
<!-- ast_nodeRRL&#45;&gt;ast_nodeRRLL -->
<g id="edge11" class="edge">
<title>ast_nodeRRL:L&#45;&gt;ast_nodeRRLL:A</title>
<path fill="none" stroke="black" d="M346,-361.5C346,-345.19 332.57,-341.78 326.7,-331.11"/>
<polygon fill="black" stroke="black" points="330.12,-330.36 324.36,-321.47 323.32,-332.01 330.12,-330.36"/>
</g>
<!-- ast_nodeRRLR -->
<g id="node17" class="node">
<title>ast_nodeRRLR</title>
<polygon fill="none" stroke="black" points="369,-273.5 369,-313.5 423,-313.5 423,-273.5 369,-273.5"/>
<text text-anchor="middle" x="395.96" y="-300.5" font-family="Times,serif" font-size="10.00">PARMS</text>
<polyline fill="none" stroke="black" points="369,-293.5 422.91,-293.5"/>
<text text-anchor="middle" x="382.06" y="-280.5" font-family="Times,serif" font-size="10.00">L</text>
<polyline fill="none" stroke="black" points="395.11,-273.5 395.11,-293.5"/>
<text text-anchor="middle" x="408.95" y="-280.5" font-family="Times,serif" font-size="10.00">R</text>
</g>
<!-- ast_nodeRRL&#45;&gt;ast_nodeRRLR -->
<g id="edge15" class="edge">
<title>ast_nodeRRL:R&#45;&gt;ast_nodeRRLR:A</title>
<path fill="none" stroke="black" d="M373,-361.5C373,-342.6 388.19,-338.74 393.88,-325.48"/>
<polygon fill="black" stroke="black" points="397.25,-326.47 395.72,-315.99 390.38,-325.14 397.25,-326.47"/>
</g>
<!-- ast_nodeRRLRL -->
<g id="node18" class="node">
<title>ast_nodeRRLRL</title>
<polygon fill="none" stroke="black" points="310,-178.5 310,-230.5 364,-230.5 364,-178.5 310,-178.5"/>
<text text-anchor="middle" x="336.89" y="-217.5" font-family="Times,serif" font-size="10.00">INT</text>
<text text-anchor="middle" x="336.89" y="-205.5" font-family="Times,serif" font-size="10.00">2</text>
<polyline fill="none" stroke="black" points="310,-198.5 363.78,-198.5"/>
<text text-anchor="middle" x="323.06" y="-185.5" font-family="Times,serif" font-size="10.00">L</text>
<polyline fill="none" stroke="black" points="336.11,-178.5 336.11,-198.5"/>
<text text-anchor="middle" x="349.95" y="-185.5" font-family="Times,serif" font-size="10.00">R</text>
</g>
<!-- ast_nodeRRLR&#45;&gt;ast_nodeRRLRL -->
<g id="edge12" class="edge">
<title>ast_nodeRRLR:L&#45;&gt;ast_nodeRRLRL:A</title>
<path fill="none" stroke="black" d="M382,-272.5C382,-270.07 374.88,-240.86 369.66,-224.85"/>
<polygon fill="black" stroke="black" points="372.92,-223.56 365.62,-215.88 366.53,-226.44 372.92,-223.56"/>
</g>
<!-- ast_nodeRRLRR -->
<g id="node19" class="node">
<title>ast_nodeRRLRR</title>
<polygon fill="none" stroke="black" points="382,-184.5 382,-224.5 436,-224.5 436,-184.5 382,-184.5"/>
<text text-anchor="middle" x="408.96" y="-211.5" font-family="Times,serif" font-size="10.00">PARMS</text>
<polyline fill="none" stroke="black" points="382,-204.5 435.91,-204.5"/>
<text text-anchor="middle" x="395.06" y="-191.5" font-family="Times,serif" font-size="10.00">L</text>
<polyline fill="none" stroke="black" points="408.11,-184.5 408.11,-204.5"/>
<text text-anchor="middle" x="421.95" y="-191.5" font-family="Times,serif" font-size="10.00">R</text>
</g>
<!-- ast_nodeRRLR&#45;&gt;ast_nodeRRLRR -->
<g id="edge14" class="edge">
<title>ast_nodeRRLR:R&#45;&gt;ast_nodeRRLRR:A</title>
<path fill="none" stroke="black" d="M409,-272.5C409,-256.02 409,-249.29 409,-236.92"/>
<polygon fill="black" stroke="black" points="412.5,-237.01 409,-227.01 405.5,-237.01 412.5,-237.01"/>
</g>
<!-- ast_nodeRRLRRL -->
<g id="node20" class="node">
<title>ast_nodeRRLRRL</title>
<polygon fill="none" stroke="black" points="368,-89.5 368,-141.5 422,-141.5 422,-89.5 368,-89.5"/>
<text text-anchor="middle" x="394.89" y="-128.5" font-family="Times,serif" font-size="10.00">ID</text>
<text text-anchor="middle" x="394.89" y="-116.5" font-family="Times,serif" font-size="10.00">WPARM</text>
<polyline fill="none" stroke="black" points="368,-109.5 421.79,-109.5"/>
<text text-anchor="middle" x="381.06" y="-96.5" font-family="Times,serif" font-size="10.00">L</text>
<polyline fill="none" stroke="black" points="394.11,-89.5 394.11,-109.5"/>
<text text-anchor="middle" x="407.95" y="-96.5" font-family="Times,serif" font-size="10.00">R</text>
</g>
<!-- ast_nodeRRLRR&#45;&gt;ast_nodeRRLRRL -->
<g id="edge13" class="edge">
<title>ast_nodeRRLRR:L&#45;&gt;ast_nodeRRLRRL:A</title>
<path fill="none" stroke="black" d="M395,-183.5C395,-169.52 395,-163.49 395,-153.36"/>
<polygon fill="black" stroke="black" points="398.5,-153.51 395,-143.51 391.5,-153.51 398.5,-153.51"/>
</g>
<!-- ast_nodeRRRL -->
<g id="node22" class="node">
<title>ast_nodeRRRL</title>
<polygon fill="none" stroke="black" points="490,-273.5 490,-313.5 544,-313.5 544,-273.5 490,-273.5"/>
<text text-anchor="middle" x="516.89" y="-300.5" font-family="Times,serif" font-size="10.00">CALL</text>
<polyline fill="none" stroke="black" points="490,-293.5 543.78,-293.5"/>
<text text-anchor="middle" x="503.06" y="-280.5" font-family="Times,serif" font-size="10.00">L</text>
<polyline fill="none" stroke="black" points="516.11,-273.5 516.11,-293.5"/>
<text text-anchor="middle" x="529.95" y="-280.5" font-family="Times,serif" font-size="10.00">R</text>
</g>
<!-- ast_nodeRRR&#45;&gt;ast_nodeRRRL -->
<g id="edge22" class="edge">
<title>ast_nodeRRR:L&#45;&gt;ast_nodeRRRL:A</title>
<path fill="none" stroke="black" d="M517,-361.5C517,-345.02 517,-338.29 517,-325.92"/>
<polygon fill="black" stroke="black" points="520.5,-326.01 517,-316.01 513.5,-326.01 520.5,-326.01"/>
</g>
<!-- ast_nodeRRRR -->
<g id="node28" class="node">
<title>ast_nodeRRRR</title>
<polygon fill="none" stroke="black" points="611,-273.5 611,-313.5 665,-313.5 665,-273.5 611,-273.5"/>
<text text-anchor="middle" x="637.62" y="-300.5" font-family="Times,serif" font-size="10.00">STMTS</text>
<polyline fill="none" stroke="black" points="611,-293.5 664.23,-293.5"/>
<text text-anchor="middle" x="624.06" y="-280.5" font-family="Times,serif" font-size="10.00">L</text>
<polyline fill="none" stroke="black" points="637.11,-273.5 637.11,-293.5"/>
<text text-anchor="middle" x="650.45" y="-280.5" font-family="Times,serif" font-size="10.00">R</text>
</g>
<!-- ast_nodeRRR&#45;&gt;ast_nodeRRRR -->
<g id="edge27" class="edge">
<title>ast_nodeRRR:R&#45;&gt;ast_nodeRRRR:A</title>
<path fill="none" stroke="black" d="M558,-372.5C591.9,-372.5 576.55,-318.72 598.9,-306.12"/>
<polygon fill="black" stroke="black" points="599.6,-309.55 608.53,-303.85 597.99,-302.74 599.6,-309.55"/>
</g>
<!-- ast_nodeRRRLL -->
<g id="node23" class="node">
<title>ast_nodeRRRLL</title>
<polygon fill="none" stroke="black" points="454,-178.5 454,-230.5 508,-230.5 508,-178.5 454,-178.5"/>
<text text-anchor="middle" x="480.89" y="-217.5" font-family="Times,serif" font-size="10.00">ID</text>
<text text-anchor="middle" x="480.89" y="-205.5" font-family="Times,serif" font-size="10.00">MOV</text>
<polyline fill="none" stroke="black" points="454,-198.5 507.78,-198.5"/>
<text text-anchor="middle" x="467.06" y="-185.5" font-family="Times,serif" font-size="10.00">L</text>
<polyline fill="none" stroke="black" points="480.11,-178.5 480.11,-198.5"/>
<text text-anchor="middle" x="493.95" y="-185.5" font-family="Times,serif" font-size="10.00">R</text>
</g>
<!-- ast_nodeRRRL&#45;&gt;ast_nodeRRRLL -->
<g id="edge17" class="edge">
<title>ast_nodeRRRL:L&#45;&gt;ast_nodeRRRLL:A</title>
<path fill="none" stroke="black" d="M503,-272.5C503,-256.19 489.57,-252.78 483.7,-242.11"/>
<polygon fill="black" stroke="black" points="487.12,-241.36 481.36,-232.47 480.32,-243.01 487.12,-241.36"/>
</g>
<!-- ast_nodeRRRLR -->
<g id="node24" class="node">
<title>ast_nodeRRRLR</title>
<polygon fill="none" stroke="black" points="526,-184.5 526,-224.5 580,-224.5 580,-184.5 526,-184.5"/>
<text text-anchor="middle" x="552.96" y="-211.5" font-family="Times,serif" font-size="10.00">PARMS</text>
<polyline fill="none" stroke="black" points="526,-204.5 579.91,-204.5"/>
<text text-anchor="middle" x="539.06" y="-191.5" font-family="Times,serif" font-size="10.00">L</text>
<polyline fill="none" stroke="black" points="552.11,-184.5 552.11,-204.5"/>
<text text-anchor="middle" x="565.95" y="-191.5" font-family="Times,serif" font-size="10.00">R</text>
</g>
<!-- ast_nodeRRRL&#45;&gt;ast_nodeRRRLR -->
<g id="edge21" class="edge">
<title>ast_nodeRRRL:R&#45;&gt;ast_nodeRRRLR:A</title>
<path fill="none" stroke="black" d="M530,-272.5C530,-253.6 545.19,-249.74 550.88,-236.48"/>
<polygon fill="black" stroke="black" points="554.25,-237.47 552.72,-226.99 547.38,-236.14 554.25,-237.47"/>
</g>
<!-- ast_nodeRRRLRL -->
<g id="node25" class="node">
<title>ast_nodeRRRLRL</title>
<polygon fill="none" stroke="black" points="467,-89.5 467,-141.5 521,-141.5 521,-89.5 467,-89.5"/>
<text text-anchor="middle" x="493.89" y="-128.5" font-family="Times,serif" font-size="10.00">ID</text>
<text text-anchor="middle" x="493.89" y="-116.5" font-family="Times,serif" font-size="10.00">WPARM</text>
<polyline fill="none" stroke="black" points="467,-109.5 520.79,-109.5"/>
<text text-anchor="middle" x="480.06" y="-96.5" font-family="Times,serif" font-size="10.00">L</text>
<polyline fill="none" stroke="black" points="493.11,-89.5 493.11,-109.5"/>
<text text-anchor="middle" x="506.95" y="-96.5" font-family="Times,serif" font-size="10.00">R</text>
</g>
<!-- ast_nodeRRRLR&#45;&gt;ast_nodeRRRLRL -->
<g id="edge18" class="edge">
<title>ast_nodeRRRLR:L&#45;&gt;ast_nodeRRRLRL:A</title>
<path fill="none" stroke="black" d="M539,-183.5C539,-181.07 531.88,-151.86 526.66,-135.85"/>
<polygon fill="black" stroke="black" points="529.92,-134.56 522.62,-126.88 523.53,-137.44 529.92,-134.56"/>
</g>
<!-- ast_nodeRRRLRR -->
<g id="node26" class="node">
<title>ast_nodeRRRLRR</title>
<polygon fill="none" stroke="black" points="539,-95.5 539,-135.5 593,-135.5 593,-95.5 539,-95.5"/>
<text text-anchor="middle" x="565.96" y="-122.5" font-family="Times,serif" font-size="10.00">PARMS</text>
<polyline fill="none" stroke="black" points="539,-115.5 592.91,-115.5"/>
<text text-anchor="middle" x="552.06" y="-102.5" font-family="Times,serif" font-size="10.00">L</text>
<polyline fill="none" stroke="black" points="565.11,-95.5 565.11,-115.5"/>
<text text-anchor="middle" x="578.95" y="-102.5" font-family="Times,serif" font-size="10.00">R</text>
</g>
<!-- ast_nodeRRRLR&#45;&gt;ast_nodeRRRLRR -->
<g id="edge20" class="edge">
<title>ast_nodeRRRLR:R&#45;&gt;ast_nodeRRRLRR:A</title>
<path fill="none" stroke="black" d="M566,-183.5C566,-167.02 566,-160.29 566,-147.92"/>
<polygon fill="black" stroke="black" points="569.5,-148.01 566,-138.01 562.5,-148.01 569.5,-148.01"/>
</g>
<!-- ast_nodeRRRLRRL -->
<g id="node27" class="node">
<title>ast_nodeRRRLRRL</title>
<polygon fill="none" stroke="black" points="522.06,-0.5 522.06,-52.5 581.95,-52.5 581.95,-0.5 522.06,-0.5"/>
<text text-anchor="middle" x="552" y="-39.5" font-family="Times,serif" font-size="10.00">ID</text>
<text text-anchor="middle" x="552" y="-27.5" font-family="Times,serif" font-size="10.00">WFRAME</text>
<polyline fill="none" stroke="black" points="522.06,-20.5 581.95,-20.5"/>
<text text-anchor="middle" x="536.61" y="-7.5" font-family="Times,serif" font-size="10.00">L</text>
<polyline fill="none" stroke="black" points="551.17,-0.5 551.17,-20.5"/>
<text text-anchor="middle" x="566.5" y="-7.5" font-family="Times,serif" font-size="10.00">R</text>
</g>
<!-- ast_nodeRRRLRR&#45;&gt;ast_nodeRRRLRRL -->
<g id="edge19" class="edge">
<title>ast_nodeRRRLRR:L&#45;&gt;ast_nodeRRRLRRL:A</title>
<path fill="none" stroke="black" d="M552,-94.5C552,-80.52 552,-74.49 552,-64.36"/>
<polygon fill="black" stroke="black" points="555.5,-64.51 552,-54.51 548.5,-64.51 555.5,-64.51"/>
</g>
<!-- ast_nodeRRRRL -->
<g id="node29" class="node">
<title>ast_nodeRRRRL</title>
<polygon fill="none" stroke="black" points="625,-184.5 625,-224.5 679,-224.5 679,-184.5 625,-184.5"/>
<text text-anchor="middle" x="651.89" y="-211.5" font-family="Times,serif" font-size="10.00">CALL</text>
<polyline fill="none" stroke="black" points="625,-204.5 678.78,-204.5"/>
<text text-anchor="middle" x="638.06" y="-191.5" font-family="Times,serif" font-size="10.00">L</text>
<polyline fill="none" stroke="black" points="651.11,-184.5 651.11,-204.5"/>
<text text-anchor="middle" x="664.95" y="-191.5" font-family="Times,serif" font-size="10.00">R</text>
</g>
<!-- ast_nodeRRRR&#45;&gt;ast_nodeRRRRL -->
<g id="edge26" class="edge">
<title>ast_nodeRRRR:L&#45;&gt;ast_nodeRRRRL:A</title>
<path fill="none" stroke="black" d="M624,-272.5C624,-252.55 642.84,-250.07 649.62,-236.4"/>
<polygon fill="black" stroke="black" points="652.96,-237.5 651.68,-226.98 646.12,-236 652.96,-237.5"/>
</g>
<!-- ast_nodeRRRRLL -->
<g id="node30" class="node">
<title>ast_nodeRRRRLL</title>
<polygon fill="none" stroke="black" points="611,-89.5 611,-141.5 665,-141.5 665,-89.5 611,-89.5"/>
<text text-anchor="middle" x="637.72" y="-128.5" font-family="Times,serif" font-size="10.00">ID</text>
<text text-anchor="middle" x="637.72" y="-116.5" font-family="Times,serif" font-size="10.00">SHOW</text>
<polyline fill="none" stroke="black" points="611,-109.5 664.45,-109.5"/>
<text text-anchor="middle" x="624.06" y="-96.5" font-family="Times,serif" font-size="10.00">L</text>
<polyline fill="none" stroke="black" points="637.11,-89.5 637.11,-109.5"/>
<text text-anchor="middle" x="650.45" y="-96.5" font-family="Times,serif" font-size="10.00">R</text>
</g>
<!-- ast_nodeRRRRL&#45;&gt;ast_nodeRRRRLL -->
<g id="edge23" class="edge">
<title>ast_nodeRRRRL:L&#45;&gt;ast_nodeRRRRLL:A</title>
<path fill="none" stroke="black" d="M638,-183.5C638,-169.52 638,-163.49 638,-153.36"/>
<polygon fill="black" stroke="black" points="641.5,-153.51 638,-143.51 634.5,-153.51 641.5,-153.51"/>
</g>
<!-- ast_nodeRRRRLR -->
<g id="node31" class="node">
<title>ast_nodeRRRRLR</title>
<polygon fill="none" stroke="black" points="683,-95.5 683,-135.5 737,-135.5 737,-95.5 683,-95.5"/>
<text text-anchor="middle" x="709.96" y="-122.5" font-family="Times,serif" font-size="10.00">PARMS</text>
<polyline fill="none" stroke="black" points="683,-115.5 736.91,-115.5"/>
<text text-anchor="middle" x="696.06" y="-102.5" font-family="Times,serif" font-size="10.00">L</text>
<polyline fill="none" stroke="black" points="709.11,-95.5 709.11,-115.5"/>
<text text-anchor="middle" x="722.95" y="-102.5" font-family="Times,serif" font-size="10.00">R</text>
</g>
<!-- ast_nodeRRRRL&#45;&gt;ast_nodeRRRRLR -->
<g id="edge25" class="edge">
<title>ast_nodeRRRRL:R&#45;&gt;ast_nodeRRRRLR:A</title>
<path fill="none" stroke="black" d="M665,-183.5C665,-181.07 672.13,-151.86 677.35,-135.85"/>
<polygon fill="black" stroke="black" points="680.47,-137.44 681.38,-126.88 674.09,-134.56 680.47,-137.44"/>
</g>
<!-- ast_nodeRRRRLRL -->
<g id="node32" class="node">
<title>ast_nodeRRRRLRL</title>
<polygon fill="none" stroke="black" points="669,-0.5 669,-52.5 723,-52.5 723,-0.5 669,-0.5"/>
<text text-anchor="middle" x="695.89" y="-39.5" font-family="Times,serif" font-size="10.00">ID</text>
<text text-anchor="middle" x="695.89" y="-27.5" font-family="Times,serif" font-size="10.00">WIP2</text>
<polyline fill="none" stroke="black" points="669,-20.5 722.78,-20.5"/>
<text text-anchor="middle" x="682.06" y="-7.5" font-family="Times,serif" font-size="10.00">L</text>
<polyline fill="none" stroke="black" points="695.11,-0.5 695.11,-20.5"/>
<text text-anchor="middle" x="708.95" y="-7.5" font-family="Times,serif" font-size="10.00">R</text>
</g>
<!-- ast_nodeRRRRLR&#45;&gt;ast_nodeRRRRLRL -->
<g id="edge24" class="edge">
<title>ast_nodeRRRRLR:L&#45;&gt;ast_nodeRRRRLRL:A</title>
<path fill="none" stroke="black" d="M696,-94.5C696,-80.52 696,-74.49 696,-64.36"/>
<polygon fill="black" stroke="black" points="699.5,-64.51 696,-54.51 692.5,-64.51 699.5,-64.51"/>
</g>
<!-- code -->
<g id="node33" class="node">
<title>code</title>
<polygon fill="none" stroke="black" points="213,-611.5 213,-667.5 819,-667.5 819,-611.5 213,-611.5"/>
<polygon fill="none" stroke="black" points="224,-640.5 224,-660.5 808,-660.5 808,-640.5 224,-640.5"/>
<text text-anchor="start" x="501.6" y="-647.7" font-family="Courier New" font-weight="bold" font-size="12.00">code</text>
<polygon fill="none" stroke="black" points="224,-618.5 224,-638.5 808,-638.5 808,-618.5 224,-618.5"/>
<text text-anchor="start" x="227" y="-624.7" font-family="Times,serif" font-size="12.00" fill="blue">REF_MACHINE(WIP1);MOV(WPARM,R_BPARM);MULI(WPARM,2);MOV(WFRAME,WPARM);SHOW(WIP2);</text>
<polygon fill="none" stroke="black" points="221,-615.5 221,-663.5 811,-663.5 811,-615.5 221,-615.5"/>
</g>
</g>
</svg>
