<?xml version="1.0" encoding="UTF-8" standalone="no"?>
<!DOCTYPE svg PUBLIC "-//W3C//DTD SVG 1.1//EN"
 "http://www.w3.org/Graphics/SVG/1.1/DTD/svg11.dtd">
<!-- Generated by graphviz version 8.0.1 (20230327.1645)
 -->
<!-- Title: AbstractSyntaxTree Pages: 1 -->
<svg width="368pt" height="489pt"
 viewBox="0.00 0.00 368.00 489.00" xmlns="http://www.w3.org/2000/svg" xmlns:xlink="http://www.w3.org/1999/xlink">
<g id="graph0" class="graph" transform="scale(1 1) rotate(0) translate(4 485)">
<title>AbstractSyntaxTree</title>
<polygon fill="white" stroke="none" points="-4,4 -4,-485 364,-485 364,4 -4,4"/>
<!-- filename -->
<g id="node1" class="node">
<title>filename</title>
<polygon fill="none" stroke="black" points="6.5,-432 6.5,-468 89.5,-468 89.5,-432 6.5,-432"/>
<text text-anchor="middle" x="48" y="-446.9" font-family="Times,serif" font-size="12.00">S30_PATH2b</text>
</g>
<!-- ast_node -->
<g id="node2" class="node">
<title>ast_node</title>
<polygon fill="none" stroke="black" points="108,-431 108,-469 162,-469 162,-431 108,-431"/>
<text text-anchor="middle" x="135" y="-457" font-family="Times,serif" font-size="10.00">STMTS</text>
<polyline fill="none" stroke="black" points="108,-450 162,-450"/>
<text text-anchor="middle" x="121.5" y="-438" font-family="Times,serif" font-size="10.00">L</text>
<polyline fill="none" stroke="black" points="135,-431 135,-450"/>
<text text-anchor="middle" x="148.5" y="-438" font-family="Times,serif" font-size="10.00">R</text>
</g>
<!-- ast_nodeL -->
<g id="node3" class="node">
<title>ast_nodeL</title>
<polygon fill="none" stroke="black" points="58,-344.5 58,-382.5 112,-382.5 112,-344.5 58,-344.5"/>
<text text-anchor="middle" x="85" y="-370.5" font-family="Times,serif" font-size="10.00">CALL</text>
<polyline fill="none" stroke="black" points="58,-363.5 112,-363.5"/>
<text text-anchor="middle" x="71.5" y="-351.5" font-family="Times,serif" font-size="10.00">L</text>
<polyline fill="none" stroke="black" points="85,-344.5 85,-363.5"/>
<text text-anchor="middle" x="98.5" y="-351.5" font-family="Times,serif" font-size="10.00">R</text>
</g>
<!-- ast_node&#45;&gt;ast_nodeL -->
<g id="edge6" class="edge">
<title>ast_node:L&#45;&gt;ast_nodeL:A</title>
<path fill="none" stroke="black" d="M121,-430C121,-409.59 132.24,-385.44 123.42,-376.79"/>
<polygon fill="black" stroke="black" points="124.59,-373.17 114,-373.5 122.48,-379.85 124.59,-373.17"/>
</g>
<!-- ast_nodeR -->
<g id="node9" class="node">
<title>ast_nodeR</title>
<polygon fill="none" stroke="black" points="158,-344.5 158,-382.5 212,-382.5 212,-344.5 158,-344.5"/>
<text text-anchor="middle" x="185" y="-370.5" font-family="Times,serif" font-size="10.00">STMTS</text>
<polyline fill="none" stroke="black" points="158,-363.5 212,-363.5"/>
<text text-anchor="middle" x="171.5" y="-351.5" font-family="Times,serif" font-size="10.00">L</text>
<polyline fill="none" stroke="black" points="185,-344.5 185,-363.5"/>
<text text-anchor="middle" x="198.5" y="-351.5" font-family="Times,serif" font-size="10.00">R</text>
</g>
<!-- ast_node&#45;&gt;ast_nodeR -->
<g id="edge13" class="edge">
<title>ast_node:R&#45;&gt;ast_nodeR:A</title>
<path fill="none" stroke="black" d="M149,-430C149,-409.59 137.76,-385.44 146.58,-376.79"/>
<polygon fill="black" stroke="black" points="147.52,-379.85 156,-373.5 145.41,-373.17 147.52,-379.85"/>
</g>
<!-- ast_nodeLL -->
<g id="node4" class="node">
<title>ast_nodeLL</title>
<polygon fill="none" stroke="black" points="0,-258.5 0,-307.5 54,-307.5 54,-258.5 0,-258.5"/>
<text text-anchor="middle" x="27" y="-295.5" font-family="Times,serif" font-size="10.00">ID</text>
<text text-anchor="middle" x="27" y="-284.5" font-family="Times,serif" font-size="10.00">MOV</text>
<polyline fill="none" stroke="black" points="0,-277.5 54,-277.5"/>
<text text-anchor="middle" x="13.5" y="-265.5" font-family="Times,serif" font-size="10.00">L</text>
<polyline fill="none" stroke="black" points="27,-258.5 27,-277.5"/>
<text text-anchor="middle" x="40.5" y="-265.5" font-family="Times,serif" font-size="10.00">R</text>
</g>
<!-- ast_nodeL&#45;&gt;ast_nodeLL -->
<g id="edge1" class="edge">
<title>ast_nodeL:L&#45;&gt;ast_nodeLL:A</title>
<path fill="none" stroke="black" d="M71,-344C71,-339.78 65.91,-315.78 60.84,-302.26"/>
<polygon fill="black" stroke="black" points="63.29,-300.59 55,-294 57.37,-304.33 63.29,-300.59"/>
</g>
<!-- ast_nodeLR -->
<g id="node5" class="node">
<title>ast_nodeLR</title>
<polygon fill="none" stroke="black" points="72,-264 72,-302 126,-302 126,-264 72,-264"/>
<text text-anchor="middle" x="99" y="-290" font-family="Times,serif" font-size="10.00">PARMS</text>
<polyline fill="none" stroke="black" points="72,-283 126,-283"/>
<text text-anchor="middle" x="85.5" y="-271" font-family="Times,serif" font-size="10.00">L</text>
<polyline fill="none" stroke="black" points="99,-264 99,-283"/>
<text text-anchor="middle" x="112.5" y="-271" font-family="Times,serif" font-size="10.00">R</text>
</g>
<!-- ast_nodeL&#45;&gt;ast_nodeLR -->
<g id="edge5" class="edge">
<title>ast_nodeL:R&#45;&gt;ast_nodeLR:A</title>
<path fill="none" stroke="black" d="M99,-344C99,-330.05 99,-324.11 99,-313.91"/>
<polygon fill="black" stroke="black" points="102.5,-314 99,-304 95.5,-314 102.5,-314"/>
</g>
<!-- ast_nodeLRL -->
<g id="node6" class="node">
<title>ast_nodeLRL</title>
<polygon fill="none" stroke="black" points="14,-172.5 14,-221.5 68,-221.5 68,-172.5 14,-172.5"/>
<text text-anchor="middle" x="41" y="-209.5" font-family="Times,serif" font-size="10.00">ID</text>
<text text-anchor="middle" x="41" y="-198.5" font-family="Times,serif" font-size="10.00">WIP1</text>
<polyline fill="none" stroke="black" points="14,-191.5 68,-191.5"/>
<text text-anchor="middle" x="27.5" y="-179.5" font-family="Times,serif" font-size="10.00">L</text>
<polyline fill="none" stroke="black" points="41,-172.5 41,-191.5"/>
<text text-anchor="middle" x="54.5" y="-179.5" font-family="Times,serif" font-size="10.00">R</text>
</g>
<!-- ast_nodeLR&#45;&gt;ast_nodeLRL -->
<g id="edge2" class="edge">
<title>ast_nodeLR:L&#45;&gt;ast_nodeLRL:A</title>
<path fill="none" stroke="black" d="M85,-263C85,-258.3 79.97,-230.87 74.74,-216.22"/>
<polygon fill="black" stroke="black" points="77.26,-214.64 69,-208 71.31,-218.34 77.26,-214.64"/>
</g>
<!-- ast_nodeLRR -->
<g id="node7" class="node">
<title>ast_nodeLRR</title>
<polygon fill="none" stroke="black" points="86,-178 86,-216 140,-216 140,-178 86,-178"/>
<text text-anchor="middle" x="113" y="-204" font-family="Times,serif" font-size="10.00">PARMS</text>
<polyline fill="none" stroke="black" points="86,-197 140,-197"/>
<text text-anchor="middle" x="99.5" y="-185" font-family="Times,serif" font-size="10.00">L</text>
<polyline fill="none" stroke="black" points="113,-178 113,-197"/>
<text text-anchor="middle" x="126.5" y="-185" font-family="Times,serif" font-size="10.00">R</text>
</g>
<!-- ast_nodeLR&#45;&gt;ast_nodeLRR -->
<g id="edge4" class="edge">
<title>ast_nodeLR:R&#45;&gt;ast_nodeLRR:A</title>
<path fill="none" stroke="black" d="M113,-263C113,-246.71 113,-240.15 113,-227.82"/>
<polygon fill="black" stroke="black" points="116.5,-228 113,-218 109.5,-228 116.5,-228"/>
</g>
<!-- ast_nodeLRRL -->
<g id="node8" class="node">
<title>ast_nodeLRRL</title>
<polygon fill="none" stroke="black" points="69.5,-86.5 69.5,-135.5 128.5,-135.5 128.5,-86.5 69.5,-86.5"/>
<text text-anchor="middle" x="99" y="-123.5" font-family="Times,serif" font-size="10.00">ID</text>
<text text-anchor="middle" x="99" y="-112.5" font-family="Times,serif" font-size="10.00">WSPRITE</text>
<polyline fill="none" stroke="black" points="69.5,-105.5 128.5,-105.5"/>
<text text-anchor="middle" x="84" y="-93.5" font-family="Times,serif" font-size="10.00">L</text>
<polyline fill="none" stroke="black" points="98.5,-86.5 98.5,-105.5"/>
<text text-anchor="middle" x="113.5" y="-93.5" font-family="Times,serif" font-size="10.00">R</text>
</g>
<!-- ast_nodeLRR&#45;&gt;ast_nodeLRRL -->
<g id="edge3" class="edge">
<title>ast_nodeLRR:L&#45;&gt;ast_nodeLRRL:A</title>
<path fill="none" stroke="black" d="M99,-177C99,-163.05 99,-157.11 99,-146.91"/>
<polygon fill="black" stroke="black" points="102.5,-147 99,-137 95.5,-147 102.5,-147"/>
</g>
<!-- ast_nodeRL -->
<g id="node10" class="node">
<title>ast_nodeRL</title>
<polygon fill="none" stroke="black" points="172,-264 172,-302 226,-302 226,-264 172,-264"/>
<text text-anchor="middle" x="199" y="-290" font-family="Times,serif" font-size="10.00">CALL</text>
<polyline fill="none" stroke="black" points="172,-283 226,-283"/>
<text text-anchor="middle" x="185.5" y="-271" font-family="Times,serif" font-size="10.00">L</text>
<polyline fill="none" stroke="black" points="199,-264 199,-283"/>
<text text-anchor="middle" x="212.5" y="-271" font-family="Times,serif" font-size="10.00">R</text>
</g>
<!-- ast_nodeR&#45;&gt;ast_nodeRL -->
<g id="edge12" class="edge">
<title>ast_nodeR:L&#45;&gt;ast_nodeRL:A</title>
<path fill="none" stroke="black" d="M171,-344C171,-326.24 189.13,-324.8 196.21,-313.42"/>
<polygon fill="black" stroke="black" points="199.8,-314.56 199,-304 193.04,-312.76 199.8,-314.56"/>
</g>
<!-- ast_nodeRLL -->
<g id="node11" class="node">
<title>ast_nodeRLL</title>
<polygon fill="none" stroke="black" points="158,-172.5 158,-221.5 212,-221.5 212,-172.5 158,-172.5"/>
<text text-anchor="middle" x="185" y="-209.5" font-family="Times,serif" font-size="10.00">ID</text>
<text text-anchor="middle" x="185" y="-198.5" font-family="Times,serif" font-size="10.00">ASHOW</text>
<polyline fill="none" stroke="black" points="158,-191.5 212,-191.5"/>
<text text-anchor="middle" x="171.5" y="-179.5" font-family="Times,serif" font-size="10.00">L</text>
<polyline fill="none" stroke="black" points="185,-172.5 185,-191.5"/>
<text text-anchor="middle" x="198.5" y="-179.5" font-family="Times,serif" font-size="10.00">R</text>
</g>
<!-- ast_nodeRL&#45;&gt;ast_nodeRLL -->
<g id="edge7" class="edge">
<title>ast_nodeRL:L&#45;&gt;ast_nodeRLL:A</title>
<path fill="none" stroke="black" d="M185,-263C185,-249.05 185,-243.11 185,-232.91"/>
<polygon fill="black" stroke="black" points="188.5,-233 185,-223 181.5,-233 188.5,-233"/>
</g>
<!-- ast_nodeRLR -->
<g id="node12" class="node">
<title>ast_nodeRLR</title>
<polygon fill="none" stroke="black" points="230,-178 230,-216 284,-216 284,-178 230,-178"/>
<text text-anchor="middle" x="257" y="-204" font-family="Times,serif" font-size="10.00">PARMS</text>
<polyline fill="none" stroke="black" points="230,-197 284,-197"/>
<text text-anchor="middle" x="243.5" y="-185" font-family="Times,serif" font-size="10.00">L</text>
<polyline fill="none" stroke="black" points="257,-178 257,-197"/>
<text text-anchor="middle" x="270.5" y="-185" font-family="Times,serif" font-size="10.00">R</text>
</g>
<!-- ast_nodeRL&#45;&gt;ast_nodeRLR -->
<g id="edge11" class="edge">
<title>ast_nodeRL:R&#45;&gt;ast_nodeRLR:A</title>
<path fill="none" stroke="black" d="M213,-263C213,-258.3 218.03,-230.87 223.26,-216.22"/>
<polygon fill="black" stroke="black" points="226.69,-218.34 229,-208 220.74,-214.64 226.69,-218.34"/>
</g>
<!-- ast_nodeRLRL -->
<g id="node13" class="node">
<title>ast_nodeRLRL</title>
<polygon fill="none" stroke="black" points="192,-86.5 192,-135.5 248,-135.5 248,-86.5 192,-86.5"/>
<text text-anchor="middle" x="220" y="-123.5" font-family="Times,serif" font-size="10.00">ID</text>
<text text-anchor="middle" x="220" y="-112.5" font-family="Times,serif" font-size="10.00">V_LOOP</text>
<polyline fill="none" stroke="black" points="192,-105.5 248,-105.5"/>
<text text-anchor="middle" x="206" y="-93.5" font-family="Times,serif" font-size="10.00">L</text>
<polyline fill="none" stroke="black" points="220,-86.5 220,-105.5"/>
<text text-anchor="middle" x="234" y="-93.5" font-family="Times,serif" font-size="10.00">R</text>
</g>
<!-- ast_nodeRLR&#45;&gt;ast_nodeRLRL -->
<g id="edge8" class="edge">
<title>ast_nodeRLR:L&#45;&gt;ast_nodeRLRL:A</title>
<path fill="none" stroke="black" d="M243,-177C243,-160.35 228.39,-157.47 222.46,-146.41"/>
<polygon fill="black" stroke="black" points="225.71,-145.93 220,-137 218.89,-147.54 225.71,-145.93"/>
</g>
<!-- ast_nodeRLRR -->
<g id="node14" class="node">
<title>ast_nodeRLRR</title>
<polygon fill="none" stroke="black" points="266,-92 266,-130 320,-130 320,-92 266,-92"/>
<text text-anchor="middle" x="293" y="-118" font-family="Times,serif" font-size="10.00">PARMS</text>
<polyline fill="none" stroke="black" points="266,-111 320,-111"/>
<text text-anchor="middle" x="279.5" y="-99" font-family="Times,serif" font-size="10.00">L</text>
<polyline fill="none" stroke="black" points="293,-92 293,-111"/>
<text text-anchor="middle" x="306.5" y="-99" font-family="Times,serif" font-size="10.00">R</text>
</g>
<!-- ast_nodeRLR&#45;&gt;ast_nodeRLRR -->
<g id="edge10" class="edge">
<title>ast_nodeRLR:R&#45;&gt;ast_nodeRLRR:A</title>
<path fill="none" stroke="black" d="M271,-177C271,-158.59 285.52,-154.69 290.97,-141.72"/>
<polygon fill="black" stroke="black" points="294.58,-142.48 293,-132 287.7,-141.17 294.58,-142.48"/>
</g>
<!-- ast_nodeRLRRL -->
<g id="node15" class="node">
<title>ast_nodeRLRRL</title>
<polygon fill="none" stroke="black" points="249.5,-0.5 249.5,-49.5 308.5,-49.5 308.5,-0.5 249.5,-0.5"/>
<text text-anchor="middle" x="279" y="-37.5" font-family="Times,serif" font-size="10.00">ID</text>
<text text-anchor="middle" x="279" y="-26.5" font-family="Times,serif" font-size="10.00">WSPRITE</text>
<polyline fill="none" stroke="black" points="249.5,-19.5 308.5,-19.5"/>
<text text-anchor="middle" x="264" y="-7.5" font-family="Times,serif" font-size="10.00">L</text>
<polyline fill="none" stroke="black" points="278.5,-0.5 278.5,-19.5"/>
<text text-anchor="middle" x="293.5" y="-7.5" font-family="Times,serif" font-size="10.00">R</text>
</g>
<!-- ast_nodeRLRR&#45;&gt;ast_nodeRLRRL -->
<g id="edge9" class="edge">
<title>ast_nodeRLRR:L&#45;&gt;ast_nodeRLRRL:A</title>
<path fill="none" stroke="black" d="M279,-91C279,-77.05 279,-71.11 279,-60.91"/>
<polygon fill="black" stroke="black" points="282.5,-61 279,-51 275.5,-61 282.5,-61"/>
</g>
<!-- code -->
<g id="node16" class="node">
<title>code</title>
<polygon fill="none" stroke="black" points="180,-419.5 180,-480.5 360,-480.5 360,-419.5 180,-419.5"/>
<polygon fill="none" stroke="black" points="191,-456.5 191,-473.5 349,-473.5 349,-456.5 191,-456.5"/>
<text text-anchor="start" x="260" y="-463.5" font-family="Times,serif" font-weight="bold" font-size="10.00">code</text>
<polygon fill="none" stroke="black" points="191,-426.5 191,-454.5 349,-454.5 349,-426.5 191,-426.5"/>
<text text-anchor="start" x="194" y="-443.5" font-family="Times,serif" font-size="10.00" fill="blue">MOV(WSPRITE,WIP1);</text>
<text text-anchor="start" x="194" y="-432.5" font-family="Times,serif" font-size="10.00" fill="blue"> &#160;&#160;&#160;&#160;&#160;&#160;&#160;&#160;ASHOW(WSPRITE, V_LOOP);</text>
<polygon fill="none" stroke="black" points="188,-423.5 188,-476.5 352,-476.5 352,-423.5 188,-423.5"/>
</g>
</g>
</svg>
