<?xml version="1.0" encoding="UTF-8" standalone="no"?>
<!DOCTYPE svg PUBLIC "-//W3C//DTD SVG 1.1//EN"
 "http://www.w3.org/Graphics/SVG/1.1/DTD/svg11.dtd">
<!-- Generated by graphviz version 10.0.1 (20240210.2158)
 -->
<!-- Title: Automaton Pages: 1 -->
<svg width="714pt" height="219pt"
 viewBox="0.00 0.00 714.13 218.75" xmlns="http://www.w3.org/2000/svg" xmlns:xlink="http://www.w3.org/1999/xlink">
<g id="graph0" class="graph" transform="scale(1 1) rotate(0) translate(4 214.75)">
<title>Automaton</title>
<polygon fill="white" stroke="none" points="-4,4 -4,-214.75 710.13,-214.75 710.13,4 -4,4"/>
<!-- filename -->
<g id="node1" class="node">
<title>filename</title>
<polygon fill="none" stroke="black" points="70.13,-144 70.13,-197.5 278.13,-197.5 278.13,-144 70.13,-144"/>
<polygon fill="none" stroke="black" points="81.13,-171.75 81.13,-190.5 267.13,-190.5 267.13,-171.75 81.13,-171.75"/>
<text text-anchor="start" x="84.13" y="-179" font-family="Courier New" font-weight="bold" font-size="10.00">QL_2RECORDER::M_QUEST_RECORDER</text>
<polygon fill="none" stroke="black" points="81.13,-151 81.13,-169.75 267.13,-169.75 267.13,-151 81.13,-151"/>
<text text-anchor="start" x="129.13" y="-157.25" font-family="Courier New" font-size="10.00" fill="brown">start state = 0</text>
<polygon fill="none" stroke="black" points="78.13,-148 78.13,-193.5 270.13,-193.5 270.13,-148 78.13,-148"/>
</g>
<!-- 0 -->
<g id="node2" class="node">
<title>0</title>
<polyline fill="none" stroke="darkred" stroke-width="3" points="315.5,-159 330.75,-159"/>
<text text-anchor="start" x="319" y="-166.7" font-family="Courier New" font-weight="bold" font-size="14.00">0</text>
<path fill="none" stroke="darkred" stroke-width="3" d="M318.92,-154C318.92,-154 327.34,-154 327.34,-154 331.55,-154 335.75,-158.21 335.75,-162.42 335.75,-162.42 335.75,-179.08 335.75,-179.08 335.75,-183.29 331.55,-187.5 327.34,-187.5 327.34,-187.5 318.92,-187.5 318.92,-187.5 314.71,-187.5 310.5,-183.29 310.5,-179.08 310.5,-179.08 310.5,-162.42 310.5,-162.42 310.5,-158.21 314.71,-154 318.92,-154"/>
</g>
<!-- posrecorded -->
<g id="node3" class="node">
<title>posrecorded</title>
<polyline fill="none" stroke="darkred" points="274.75,-7 371.5,-7"/>
<text text-anchor="start" x="277.75" y="-14.2" font-family="Courier New" font-weight="bold" font-size="14.00">posrecorded</text>
<path fill="none" stroke="darkred" d="M281.25,-4C281.25,-4 365,-4 365,-4 369.75,-4 374.5,-8.75 374.5,-13.5 374.5,-13.5 374.5,-23 374.5,-23 374.5,-27.75 369.75,-32.5 365,-32.5 365,-32.5 281.25,-32.5 281.25,-32.5 276.5,-32.5 271.75,-27.75 271.75,-23 271.75,-23 271.75,-13.5 271.75,-13.5 271.75,-8.75 276.5,-4 281.25,-4"/>
</g>
<!-- 0&#45;&gt;posrecorded -->
<g id="edge1" class="edge">
<title>0&#45;&gt;posrecorded</title>
<path fill="none" stroke="black" d="M308.93,-148.79C303.05,-141.81 295.61,-134.8 287.13,-130.75 259.6,-117.6 33.98,-135.02 13.13,-112.75 -4.57,-93.85 -4.11,-73.81 13.13,-54.5 28.79,-36.95 165.92,-26.99 252.47,-22.4"/>
<polygon fill="black" stroke="black" points="252.49,-25.9 262.3,-21.89 252.13,-18.91 252.49,-25.9"/>
<polygon fill="none" stroke="black" points="16.13,-91 16.13,-109.75 610.13,-109.75 610.13,-91 16.13,-91"/>
<text text-anchor="start" x="235.13" y="-98.25" font-family="Courier New" font-weight="bold" font-size="10.00" fill="orange">WAIT(,SIG_RECORD_POSITION)</text>
<polygon fill="none" stroke="black" points="16.13,-57.5 16.13,-89 610.13,-89 610.13,-57.5 16.13,-57.5"/>
<text text-anchor="start" x="19.13" y="-76.5" font-family="Courier New" font-size="10.00" fill="blue"> &#160;&#160;&#160;&#160;&#160;&#160;&#160;REF_MACHINE(QL_MANAGER);</text>
<text text-anchor="start" x="19.13" y="-63.75" font-family="Courier New" font-size="10.00" fill="blue"> &#160;&#160;&#160;&#160;&#160;&#160;&#160;ASSIGN(WPARM,R_WPARM); //Each individual quest recorder now knows its position ie. QL_POS1</text>
<polygon fill="none" stroke="black" points="13.13,-54.5 13.13,-112.75 613.13,-112.75 613.13,-54.5 13.13,-54.5"/>
</g>
<!-- posrecorded&#45;&gt;0 -->
<g id="edge2" class="edge">
<title>posrecorded&#45;&gt;0</title>
<path fill="none" stroke="black" d="M382.31,-22.31C462.67,-27.08 598.1,-37.53 613.13,-54.5 630.3,-73.88 630.78,-93.81 613.13,-112.75 574.56,-154.15 410.13,-106.24 359.13,-130.75 354.1,-133.17 349.44,-136.62 345.24,-140.49"/>
<polygon fill="black" stroke="black" points="342.73,-138.05 338.38,-147.71 347.81,-142.87 342.73,-138.05"/>
<text text-anchor="start" x="630.13" y="-81.5" font-family="Courier New" font-weight="bold" font-size="10.00" fill="blue">Z_EPSILON(,)</text>
</g>
<!-- status -->
<g id="node4" class="node">
<title>status</title>
<polygon fill="none" stroke="black" points="368.13,-131.25 368.13,-210.25 654.13,-210.25 654.13,-131.25 368.13,-131.25"/>
<polygon fill="none" stroke="black" points="379.13,-184.5 379.13,-203.25 643.13,-203.25 643.13,-184.5 379.13,-184.5"/>
<text text-anchor="start" x="475.13" y="-191.75" font-family="Courier New" font-weight="bold" font-size="10.00">QL_2RECORDER</text>
<polygon fill="none" stroke="black" points="379.13,-138.25 379.13,-182.5 643.13,-182.5 643.13,-138.25 379.13,-138.25"/>
<text text-anchor="start" x="382.13" y="-170" font-family="Courier New" font-size="10.00" fill="green">VIEW::IDV_QUESTPAN @pos(left:20, top:10)</text>
<text text-anchor="start" x="382.13" y="-157.25" font-family="Courier New" font-size="10.00" fill="green">QL_2RECORDER::M_QUEST_RECORDER(&#39;&#39;,&#39;&#39;,&#39;&#39;,&#39;&#39;)</text>
<text text-anchor="start" x="382.13" y="-144.5" font-family="Courier New" font-size="10.00" fill="green">{state:&#39;0&#39;: wParm:QL_POS3</text>
<polygon fill="none" stroke="black" points="376.13,-135.25 376.13,-206.25 646.13,-206.25 646.13,-135.25 376.13,-135.25"/>
</g>
</g>
</svg>
