<?xml version="1.0" encoding="UTF-8" standalone="no"?>
<!DOCTYPE svg PUBLIC "-//W3C//DTD SVG 1.1//EN"
 "http://www.w3.org/Graphics/SVG/1.1/DTD/svg11.dtd">
<!-- Generated by graphviz version 10.0.1 (20240210.2158)
 -->
<!-- Title: Automaton Pages: 1 -->
<svg width="1116pt" height="464pt"
 viewBox="0.00 0.00 1115.81 464.25" xmlns="http://www.w3.org/2000/svg" xmlns:xlink="http://www.w3.org/1999/xlink">
<g id="graph0" class="graph" transform="scale(1 1) rotate(0) translate(4 460.25)">
<title>Automaton</title>
<polygon fill="white" stroke="none" points="-4,4 -4,-460.25 1111.81,-460.25 1111.81,4 -4,4"/>
<!-- filename -->
<g id="node1" class="node">
<title>filename</title>
<polygon fill="none" stroke="black" points="445.81,-389.5 445.81,-443 611.81,-443 611.81,-389.5 445.81,-389.5"/>
<polygon fill="none" stroke="black" points="456.81,-417.25 456.81,-436 600.81,-436 600.81,-417.25 456.81,-417.25"/>
<text text-anchor="start" x="459.81" y="-424.5" font-family="Courier New" font-weight="bold" font-size="10.00">QL_POS3::M_QUEST_WAITER</text>
<polygon fill="none" stroke="black" points="456.81,-396.5 456.81,-415.25 600.81,-415.25 600.81,-396.5 456.81,-396.5"/>
<text text-anchor="start" x="483.81" y="-402.75" font-family="Courier New" font-size="10.00" fill="brown">start state = 0</text>
<polygon fill="none" stroke="black" points="453.81,-393.5 453.81,-439 603.81,-439 603.81,-393.5 453.81,-393.5"/>
</g>
<!-- 0 -->
<g id="node2" class="node">
<title>0</title>
<polyline fill="none" stroke="darkred" points="649.69,-405 663.94,-405"/>
<text text-anchor="start" x="652.69" y="-412.2" font-family="Courier New" font-weight="bold" font-size="14.00">0</text>
<path fill="none" stroke="darkred" d="M653.44,-402C653.44,-402 660.19,-402 660.19,-402 663.56,-402 666.94,-405.38 666.94,-408.75 666.94,-408.75 666.94,-423.75 666.94,-423.75 666.94,-427.12 663.56,-430.5 660.19,-430.5 660.19,-430.5 653.44,-430.5 653.44,-430.5 650.06,-430.5 646.69,-427.12 646.69,-423.75 646.69,-423.75 646.69,-408.75 646.69,-408.75 646.69,-405.38 650.06,-402 653.44,-402"/>
</g>
<!-- waiting -->
<g id="node3" class="node">
<title>waiting</title>
<polyline fill="none" stroke="darkred" points="433.94,-290 497.69,-290"/>
<text text-anchor="start" x="436.94" y="-297.2" font-family="Courier New" font-weight="bold" font-size="14.00">waiting</text>
<path fill="none" stroke="darkred" d="M440.44,-287C440.44,-287 491.19,-287 491.19,-287 495.94,-287 500.69,-291.75 500.69,-296.5 500.69,-296.5 500.69,-306 500.69,-306 500.69,-310.75 495.94,-315.5 491.19,-315.5 491.19,-315.5 440.44,-315.5 440.44,-315.5 435.69,-315.5 430.94,-310.75 430.94,-306 430.94,-306 430.94,-296.5 430.94,-296.5 430.94,-291.75 435.69,-287 440.44,-287"/>
</g>
<!-- 0&#45;&gt;waiting -->
<g id="edge1" class="edge">
<title>0&#45;&gt;waiting</title>
<path fill="none" stroke="black" d="M643.67,-398.32C637.33,-390.9 629.27,-382.48 620.81,-376.25 589.65,-353.27 550.24,-334.57 518.95,-321.71"/>
<polygon fill="black" stroke="black" points="520.66,-318.63 510.08,-318.15 518.05,-325.13 520.66,-318.63"/>
<text text-anchor="start" x="596.81" y="-345.75" font-family="Courier New" font-weight="bold" font-size="10.00" fill="blue">Z_EPSILON(,)</text>
</g>
<!-- dimText -->
<g id="node4" class="node">
<title>dimText</title>
<polyline fill="none" stroke="darkred" points="148.94,-108.25 212.69,-108.25"/>
<text text-anchor="start" x="151.94" y="-115.45" font-family="Courier New" font-weight="bold" font-size="14.00">dimText</text>
<path fill="none" stroke="darkred" d="M155.44,-105.25C155.44,-105.25 206.19,-105.25 206.19,-105.25 210.94,-105.25 215.69,-110 215.69,-114.75 215.69,-114.75 215.69,-124.25 215.69,-124.25 215.69,-129 210.94,-133.75 206.19,-133.75 206.19,-133.75 155.44,-133.75 155.44,-133.75 150.69,-133.75 145.94,-129 145.94,-124.25 145.94,-124.25 145.94,-114.75 145.94,-114.75 145.94,-110 150.69,-105.25 155.44,-105.25"/>
</g>
<!-- waiting&#45;&gt;dimText -->
<g id="edge6" class="edge">
<title>waiting&#45;&gt;dimText</title>
<path fill="none" stroke="black" d="M422.98,-300.06C317.26,-299.14 50.54,-293.95 23.81,-265 -9.13,-229.33 -6.53,-193.66 23.81,-155.75 36.67,-139.69 86.71,-130.44 126.89,-125.48"/>
<polygon fill="black" stroke="black" points="127.16,-128.97 136.68,-124.34 126.35,-122.02 127.16,-128.97"/>
<polygon fill="none" stroke="black" points="26.81,-236.88 26.81,-255.62 458.81,-255.62 458.81,-236.88 26.81,-236.88"/>
<text text-anchor="start" x="182.81" y="-244.12" font-family="Courier New" font-weight="bold" font-size="10.00" fill="orange">WAIT(0,SIG_DIM_TEXT)</text>
<polygon fill="none" stroke="black" points="26.81,-165.12 26.81,-234.88 458.81,-234.88 458.81,-165.12 26.81,-165.12"/>
<text text-anchor="start" x="29.81" y="-222.38" font-family="Courier New" font-size="10.00" fill="blue"> &#160;&#160;&#160;&#160;&#160;&#160;&#160;&#160;REF_MACHINE(QL_MANAGER);</text>
<text text-anchor="start" x="29.81" y="-209.62" font-family="Courier New" font-size="10.00" fill="blue"> &#160;&#160;&#160;&#160;&#160;&#160;&#160;&#160;ASSIGN(WPARM,R_BPARM);</text>
<text text-anchor="start" x="29.81" y="-196.88" font-family="Courier New" font-size="10.00" fill="blue"> &#160;&#160;&#160;&#160;&#160;&#160;&#160;&#160;WTEMP1 = &quot;&#45;&#45;&#45;&#45;&#45;&#45;&#45;&#45;&#45;&#45;&#45;&#45;&#45;&#45;&#45;&#45;&#45;&#45;&#45;&#45;&#45;&#45;&#45;&#45;&#45;&#45;&#45;&#45;&#45;&#45;&#45;&#45;&#45;&#45;&#45;&#45;&#45;&#45;&#45;&#45;&#45;&#45;&#45;&#45;&#45;&#45;&#45;&#45;&#45;&quot;; </text>
<text text-anchor="start" x="29.81" y="-184.12" font-family="Courier New" font-size="10.00" fill="blue"> &#160;&#160;&#160;&#160;&#160;&#160;&#160;&#160;WTEMP2 = WTEMP1 + WPARM;</text>
<text text-anchor="start" x="29.81" y="-171.38" font-family="Courier New" font-size="10.00" fill="blue"> &#160;&#160;&#160;&#160;&#160;&#160;&#160;&#160;SETTEXT(WIP1,WTEMP1); &#160;&#160;&#160;&#160;&#160;</text>
<polygon fill="none" stroke="black" points="23.81,-162.12 23.81,-258.62 461.81,-258.62 461.81,-162.12 23.81,-162.12"/>
</g>
<!-- showText -->
<g id="node6" class="node">
<title>showText</title>
<polyline fill="none" stroke="darkred" points="429.81,-108.25 501.81,-108.25"/>
<text text-anchor="start" x="432.81" y="-115.45" font-family="Courier New" font-weight="bold" font-size="14.00">showText</text>
<path fill="none" stroke="darkred" d="M436.31,-105.25C436.31,-105.25 495.31,-105.25 495.31,-105.25 500.06,-105.25 504.81,-110 504.81,-114.75 504.81,-114.75 504.81,-124.25 504.81,-124.25 504.81,-129 500.06,-133.75 495.31,-133.75 495.31,-133.75 436.31,-133.75 436.31,-133.75 431.56,-133.75 426.81,-129 426.81,-124.25 426.81,-124.25 426.81,-114.75 426.81,-114.75 426.81,-110 431.56,-105.25 436.31,-105.25"/>
</g>
<!-- waiting&#45;&gt;showText -->
<g id="edge5" class="edge">
<title>waiting&#45;&gt;showText</title>
<path fill="none" stroke="black" d="M465.81,-283.01C465.81,-252.01 465.81,-186.57 465.81,-148.87"/>
<polygon fill="black" stroke="black" points="469.31,-149.2 465.81,-139.2 462.31,-149.2 469.31,-149.2"/>
<polygon fill="none" stroke="black" points="468.81,-243.25 468.81,-262 726.81,-262 726.81,-243.25 468.81,-243.25"/>
<text text-anchor="start" x="531.81" y="-250.5" font-family="Courier New" font-weight="bold" font-size="10.00" fill="orange">WAIT(0,SIG_WRITE_TEXT)</text>
<polygon fill="none" stroke="black" points="468.81,-158.75 468.81,-241.25 726.81,-241.25 726.81,-158.75 468.81,-158.75"/>
<text text-anchor="start" x="471.81" y="-228.75" font-family="Courier New" font-size="10.00" fill="blue"> &#160;&#160;&#160;&#160;&#160;&#160;&#160;&#160;//blink QL_glow here &amp; play sound</text>
<text text-anchor="start" x="471.81" y="-216" font-family="Courier New" font-size="10.00" fill="blue"> &#160;&#160;&#160;&#160;&#160;&#160;&#160;&#160;REF_MACHINE(QL_MANAGER);</text>
<text text-anchor="start" x="471.81" y="-203.25" font-family="Courier New" font-size="10.00" fill="blue"> &#160;&#160;&#160;&#160;&#160;&#160;&#160;&#160;ASSIGN(WPARM,R_BPARM);</text>
<text text-anchor="start" x="471.81" y="-190.5" font-family="Courier New" font-size="10.00" fill="blue"> &#160;&#160;&#160;&#160;&#160;&#160;&#160;&#160;WTEMP1 = &quot;[ ]&quot;;</text>
<text text-anchor="start" x="471.81" y="-177.75" font-family="Courier New" font-size="10.00" fill="blue"> &#160;&#160;&#160;&#160;&#160;&#160;&#160;&#160;WTEMP2 = WTEMP1 + WPARM;</text>
<text text-anchor="start" x="471.81" y="-165" font-family="Courier New" font-size="10.00" fill="blue"> &#160;&#160;&#160;&#160;&#160;&#160;&#160;&#160;SETTEXT(WIP1,WTEMP2); &#160;&#160;&#160;&#160;&#160;</text>
<polygon fill="none" stroke="black" points="465.81,-155.75 465.81,-265 729.81,-265 729.81,-155.75 465.81,-155.75"/>
</g>
<!-- textDisplayed -->
<g id="node5" class="node">
<title>textDisplayed</title>
<polyline fill="none" stroke="darkred" stroke-width="3" points="408.69,-10.5 522.94,-10.5"/>
<text text-anchor="start" x="412.19" y="-18.2" font-family="Courier New" font-weight="bold" font-size="14.00">textDisplayed</text>
<path fill="none" stroke="darkred" stroke-width="3" d="M414.85,-5.5C414.85,-5.5 516.77,-5.5 516.77,-5.5 522.35,-5.5 527.94,-11.08 527.94,-16.67 527.94,-16.67 527.94,-27.83 527.94,-27.83 527.94,-33.42 522.35,-39 516.77,-39 516.77,-39 414.85,-39 414.85,-39 409.27,-39 403.69,-33.42 403.69,-27.83 403.69,-27.83 403.69,-16.67 403.69,-16.67 403.69,-11.08 409.27,-5.5 414.85,-5.5"/>
</g>
<!-- dimText&#45;&gt;textDisplayed -->
<g id="edge2" class="edge">
<title>dimText&#45;&gt;textDisplayed</title>
<path fill="none" stroke="black" d="M223.48,-104.24C267.79,-89.43 337.98,-65.97 391.44,-48.11"/>
<polygon fill="black" stroke="black" points="392.42,-51.47 400.8,-44.98 390.2,-44.83 392.42,-51.47"/>
<text text-anchor="start" x="344.81" y="-70.75" font-family="Courier New" font-weight="bold" font-size="10.00" fill="blue">Z_EPSILON(0,)</text>
</g>
<!-- textDisplayed&#45;&gt;0 -->
<g id="edge4" class="edge">
<title>textDisplayed&#45;&gt;0</title>
<path fill="none" stroke="black" d="M537.24,-36.77C600.72,-53.02 689.65,-87.17 730.81,-155.75 777.05,-232.79 712.48,-340.04 677.17,-389"/>
<polygon fill="black" stroke="black" points="674.36,-386.92 671.24,-397.04 679.99,-391.08 674.36,-386.92"/>
<text text-anchor="start" x="750.81" y="-208.25" font-family="Courier New" font-weight="bold" font-size="10.00" fill="orange">WAIT(0,SIG_RESET_TEXT)</text>
</g>
<!-- showText&#45;&gt;textDisplayed -->
<g id="edge3" class="edge">
<title>showText&#45;&gt;textDisplayed</title>
<path fill="none" stroke="black" d="M465.81,-101.47C465.81,-88.76 465.81,-71.02 465.81,-55.64"/>
<polygon fill="black" stroke="black" points="469.31,-55.98 465.81,-45.98 462.31,-55.98 469.31,-55.98"/>
<text text-anchor="start" x="469.81" y="-70.75" font-family="Courier New" font-weight="bold" font-size="10.00" fill="blue">Z_EPSILON(0,)</text>
</g>
<!-- status -->
<g id="node7" class="node">
<title>status</title>
<polygon fill="none" stroke="black" points="701.81,-376.75 701.81,-455.75 1107.81,-455.75 1107.81,-376.75 701.81,-376.75"/>
<polygon fill="none" stroke="black" points="712.81,-430 712.81,-448.75 1096.81,-448.75 1096.81,-430 712.81,-430"/>
<text text-anchor="start" x="883.81" y="-437.25" font-family="Courier New" font-weight="bold" font-size="10.00">QL_POS3</text>
<polygon fill="none" stroke="black" points="712.81,-383.75 712.81,-428 1096.81,-428 1096.81,-383.75 712.81,-383.75"/>
<text text-anchor="start" x="715.81" y="-415.5" font-family="Courier New" font-size="10.00" fill="green">VIEW::IDV_QUESTPAN @pos(left:120, top:220)</text>
<text text-anchor="start" x="715.81" y="-402.75" font-family="Courier New" font-size="10.00" fill="green">QL_POS3::M_QUEST_WAITER(&#39;ID_QLPOS3&#39;,&#39;&#39;,&#39;&#39;,&#39;&#39;)</text>
<text text-anchor="start" x="715.81" y="-390" font-family="Courier New" font-size="10.00" fill="green">{state:&#39;textDisplayed&#39;: wParm: Restore the pyramid of the eyes.</text>
<polygon fill="none" stroke="black" points="709.81,-380.75 709.81,-451.75 1099.81,-451.75 1099.81,-380.75 709.81,-380.75"/>
</g>
</g>
</svg>
