<?xml version="1.0" encoding="UTF-8" standalone="no"?>
<!DOCTYPE svg PUBLIC "-//W3C//DTD SVG 1.1//EN"
 "http://www.w3.org/Graphics/SVG/1.1/DTD/svg11.dtd">
<!-- Generated by graphviz version 10.0.1 (20240210.2158)
 -->
<!-- Title: Automaton Pages: 1 -->
<svg width="514pt" height="337pt"
 viewBox="0.00 0.00 514.00 336.75" xmlns="http://www.w3.org/2000/svg" xmlns:xlink="http://www.w3.org/1999/xlink">
<g id="graph0" class="graph" transform="scale(1 1) rotate(0) translate(4 332.75)">
<title>Automaton</title>
<polygon fill="white" stroke="none" points="-4,4 -4,-332.75 510,-332.75 510,4 -4,4"/>
<!-- filename -->
<g id="node1" class="node">
<title>filename</title>
<polygon fill="none" stroke="black" points="0,-262 0,-315.5 136,-315.5 136,-262 0,-262"/>
<polygon fill="none" stroke="black" points="11,-289.75 11,-308.5 125,-308.5 125,-289.75 11,-289.75"/>
<text text-anchor="start" x="14" y="-297" font-family="Courier New" font-weight="bold" font-size="10.00">S0_QL_BTN::M_QLBTN</text>
<polygon fill="none" stroke="black" points="11,-269 11,-287.75 125,-287.75 125,-269 11,-269"/>
<text text-anchor="start" x="23" y="-275.25" font-family="Courier New" font-size="10.00" fill="brown">start state = 0</text>
<polygon fill="none" stroke="black" points="8,-266 8,-311.5 128,-311.5 128,-266 8,-266"/>
</g>
<!-- 0 -->
<g id="node2" class="node">
<title>0</title>
<polyline fill="none" stroke="darkred" stroke-width="3" points="173.38,-277 188.62,-277"/>
<text text-anchor="start" x="176.88" y="-284.7" font-family="Courier New" font-weight="bold" font-size="14.00">0</text>
<path fill="none" stroke="darkred" stroke-width="3" d="M176.79,-272C176.79,-272 185.21,-272 185.21,-272 189.42,-272 193.62,-276.21 193.62,-280.42 193.62,-280.42 193.62,-297.08 193.62,-297.08 193.62,-301.29 189.42,-305.5 185.21,-305.5 185.21,-305.5 176.79,-305.5 176.79,-305.5 172.58,-305.5 168.38,-301.29 168.38,-297.08 168.38,-297.08 168.38,-280.42 168.38,-280.42 168.38,-276.21 172.58,-272 176.79,-272"/>
</g>
<!-- open -->
<g id="node3" class="node">
<title>open</title>
<polyline fill="none" stroke="darkred" points="88.5,-125 127.5,-125"/>
<text text-anchor="start" x="91.5" y="-132.2" font-family="Courier New" font-weight="bold" font-size="14.00">open</text>
<path fill="none" stroke="darkred" d="M95,-122C95,-122 121,-122 121,-122 125.75,-122 130.5,-126.75 130.5,-131.5 130.5,-131.5 130.5,-141 130.5,-141 130.5,-145.75 125.75,-150.5 121,-150.5 121,-150.5 95,-150.5 95,-150.5 90.25,-150.5 85.5,-145.75 85.5,-141 85.5,-141 85.5,-131.5 85.5,-131.5 85.5,-126.75 90.25,-122 95,-122"/>
</g>
<!-- 0&#45;&gt;open -->
<g id="edge1" class="edge">
<title>0&#45;&gt;open</title>
<path fill="none" stroke="black" d="M165.14,-266.65C159.4,-260.16 152.47,-253.49 145,-248.75 122.57,-234.51 103.7,-252.18 88,-230.75 73.94,-211.57 81.88,-184.58 91.6,-164.52"/>
<polygon fill="black" stroke="black" points="94.63,-166.28 96.19,-155.81 88.43,-163.02 94.63,-166.28"/>
<polygon fill="none" stroke="black" points="91,-209 91,-227.75 259,-227.75 259,-209 91,-209"/>
<text text-anchor="start" x="151" y="-216.25" font-family="Courier New" font-weight="bold" font-size="10.00" fill="orange">CLICK(,)</text>
<polygon fill="none" stroke="black" points="91,-175.5 91,-207 259,-207 259,-175.5 91,-175.5"/>
<text text-anchor="start" x="94" y="-194.5" font-family="Courier New" font-size="10.00" fill="blue"> &#160;&#160;&#160;MOV(WPARM,LVIEW);</text>
<text text-anchor="start" x="94" y="-181.75" font-family="Courier New" font-size="10.00" fill="blue"> &#160;&#160;&#160;LOADVIEW(IDV_QUESTPAN);</text>
<polygon fill="none" stroke="black" points="88,-172.5 88,-230.75 262,-230.75 262,-172.5 88,-172.5"/>
</g>
<!-- closed -->
<g id="node4" class="node">
<title>closed</title>
<polyline fill="none" stroke="darkred" points="164.25,-7 219.75,-7"/>
<text text-anchor="start" x="167.25" y="-14.2" font-family="Courier New" font-weight="bold" font-size="14.00">closed</text>
<path fill="none" stroke="darkred" d="M170.75,-4C170.75,-4 213.25,-4 213.25,-4 218,-4 222.75,-8.75 222.75,-13.5 222.75,-13.5 222.75,-23 222.75,-23 222.75,-27.75 218,-32.5 213.25,-32.5 213.25,-32.5 170.75,-32.5 170.75,-32.5 166,-32.5 161.25,-27.75 161.25,-23 161.25,-23 161.25,-13.5 161.25,-13.5 161.25,-8.75 166,-4 170.75,-4"/>
</g>
<!-- open&#45;&gt;closed -->
<g id="edge3" class="edge">
<title>open&#45;&gt;closed</title>
<path fill="none" stroke="black" d="M108.88,-118.11C110.59,-100.49 115.57,-73.1 130,-54.5 133.84,-49.55 138.59,-45.18 143.73,-41.35"/>
<polygon fill="black" stroke="black" points="145.62,-44.29 152.05,-35.87 141.77,-38.45 145.62,-44.29"/>
<polygon fill="none" stroke="black" points="133,-78.25 133,-97 259,-97 259,-78.25 133,-78.25"/>
<text text-anchor="start" x="172" y="-85.5" font-family="Courier New" font-weight="bold" font-size="10.00" fill="orange">CLICK(,)</text>
<polygon fill="none" stroke="black" points="133,-57.5 133,-76.25 259,-76.25 259,-57.5 133,-57.5"/>
<text text-anchor="start" x="136" y="-63.75" font-family="Courier New" font-size="10.00" fill="blue"> &#160;&#160;&#160;LOADVIEW(WPARM);</text>
<polygon fill="none" stroke="black" points="130,-54.5 130,-100 262,-100 262,-54.5 130,-54.5"/>
</g>
<!-- closed&#45;&gt;0 -->
<g id="edge2" class="edge">
<title>closed&#45;&gt;0</title>
<path fill="none" stroke="black" d="M230.72,-29.82C242.87,-35.16 254.93,-43.03 262,-54.5 303.09,-121.19 305.92,-165.88 262,-230.75 249.92,-248.59 234.74,-236.53 217,-248.75 212.88,-251.59 208.88,-254.98 205.14,-258.56"/>
<polygon fill="black" stroke="black" points="202.9,-255.84 198.48,-265.47 207.94,-260.7 202.9,-255.84"/>
<polygon fill="none" stroke="black" points="296,-126.88 296,-145.62 374,-145.62 374,-126.88 296,-126.88"/>
<text text-anchor="start" x="299" y="-134.12" font-family="Courier New" font-weight="bold" font-size="10.00" fill="blue">Z_EPSILON(,)</text>
<polygon fill="none" stroke="black" points="293,-123.88 293,-148.62 377,-148.62 377,-123.88 293,-123.88"/>
</g>
<!-- status -->
<g id="node5" class="node">
<title>status</title>
<polygon fill="none" stroke="black" points="226,-249.25 226,-328.25 506,-328.25 506,-249.25 226,-249.25"/>
<polygon fill="none" stroke="black" points="237,-302.5 237,-321.25 495,-321.25 495,-302.5 237,-302.5"/>
<text text-anchor="start" x="339" y="-309.75" font-family="Courier New" font-weight="bold" font-size="10.00">S0_QL_BTN</text>
<polygon fill="none" stroke="black" points="237,-256.25 237,-300.5 495,-300.5 495,-256.25 237,-256.25"/>
<text text-anchor="start" x="240" y="-288" font-family="Courier New" font-size="10.00" fill="green">VIEW::IDV_MAIN_PANEL @pos(left:423, top:9)</text>
<text text-anchor="start" x="240" y="-275.25" font-family="Courier New" font-size="10.00" fill="green">S0_QL_BTN::M_QLBTN(&#39;&#39;,&#39;&#39;,&#39;&#39;,&#39;&#39;)</text>
<text text-anchor="start" x="240" y="-262.5" font-family="Courier New" font-size="10.00" fill="green">{state:&#39;0&#39;: wParm:IDV_WR3</text>
<polygon fill="none" stroke="black" points="234,-253.25 234,-324.25 498,-324.25 498,-253.25 234,-253.25"/>
</g>
</g>
</svg>
