<?xml version="1.0" encoding="UTF-8" standalone="no"?>
<!DOCTYPE svg PUBLIC "-//W3C//DTD SVG 1.1//EN"
 "http://www.w3.org/Graphics/SVG/1.1/DTD/svg11.dtd">
<!-- Generated by graphviz version 10.0.1 (20240210.2158)
 -->
<!-- Title: Automaton Pages: 1 -->
<svg width="748pt" height="333pt"
 viewBox="0.00 0.00 748.00 333.00" xmlns="http://www.w3.org/2000/svg" xmlns:xlink="http://www.w3.org/1999/xlink">
<g id="graph0" class="graph" transform="scale(1 1) rotate(0) translate(4 329)">
<title>Automaton</title>
<polygon fill="white" stroke="none" points="-4,4 -4,-329 744,-329 744,4 -4,4"/>
<!-- filename -->
<g id="node1" class="node">
<title>filename</title>
<polygon fill="none" stroke="black" points="0,-258.25 0,-311.75 196,-311.75 196,-258.25 0,-258.25"/>
<polygon fill="none" stroke="black" points="11,-286 11,-304.75 185,-304.75 185,-286 11,-286"/>
<text text-anchor="start" x="14" y="-293.25" font-family="Courier New" font-weight="bold" font-size="10.00">S16_DICEDROP_R::M16_DICEDROP</text>
<polygon fill="none" stroke="black" points="11,-265.25 11,-284 185,-284 185,-265.25 11,-265.25"/>
<text text-anchor="start" x="53" y="-271.5" font-family="Courier New" font-size="10.00" fill="brown">start state = 0</text>
<polygon fill="none" stroke="black" points="8,-262.25 8,-307.75 188,-307.75 188,-262.25 8,-262.25"/>
</g>
<!-- 0 -->
<g id="node2" class="node">
<title>0</title>
<polyline fill="none" stroke="darkred" points="233.88,-273.75 248.12,-273.75"/>
<text text-anchor="start" x="236.88" y="-280.95" font-family="Courier New" font-weight="bold" font-size="14.00">0</text>
<path fill="none" stroke="darkred" d="M237.62,-270.75C237.62,-270.75 244.38,-270.75 244.38,-270.75 247.75,-270.75 251.12,-274.12 251.12,-277.5 251.12,-277.5 251.12,-292.5 251.12,-292.5 251.12,-295.88 247.75,-299.25 244.38,-299.25 244.38,-299.25 237.62,-299.25 237.62,-299.25 234.25,-299.25 230.88,-295.88 230.88,-292.5 230.88,-292.5 230.88,-277.5 230.88,-277.5 230.88,-274.12 234.25,-270.75 237.62,-270.75"/>
</g>
<!-- 2 -->
<g id="node3" class="node">
<title>2</title>
<polyline fill="none" stroke="darkred" stroke-width="3" points="233.38,-129 248.62,-129"/>
<text text-anchor="start" x="236.88" y="-136.7" font-family="Courier New" font-weight="bold" font-size="14.00">2</text>
<path fill="none" stroke="darkred" stroke-width="3" d="M236.79,-124C236.79,-124 245.21,-124 245.21,-124 249.42,-124 253.62,-128.21 253.62,-132.42 253.62,-132.42 253.62,-149.08 253.62,-149.08 253.62,-153.29 249.42,-157.5 245.21,-157.5 245.21,-157.5 236.79,-157.5 236.79,-157.5 232.58,-157.5 228.38,-153.29 228.38,-149.08 228.38,-149.08 228.38,-132.42 228.38,-132.42 228.38,-128.21 232.58,-124 236.79,-124"/>
</g>
<!-- 0&#45;&gt;2 -->
<g id="edge1" class="edge">
<title>0&#45;&gt;2</title>
<path fill="none" stroke="black" d="M229,-267.14C222.67,-259.37 214.29,-250.64 205,-245 179.01,-229.22 157.46,-251.16 139,-227 126.73,-210.93 127.59,-198.19 139,-181.5 153.31,-160.56 180.42,-150.65 203.1,-145.96"/>
<polygon fill="black" stroke="black" points="203.4,-149.46 212.64,-144.27 202.18,-142.57 203.4,-149.46"/>
<text text-anchor="start" x="143" y="-202.12" font-family="Courier New" font-weight="bold" font-size="10.00" fill="blue">Z_EPSILON(,)</text>
</g>
<!-- 2&#45;&gt;0 -->
<g id="edge2" class="edge">
<title>2&#45;&gt;0</title>
<path fill="none" stroke="black" d="M241,-162.66C241,-187.26 241,-228.21 241,-255.64"/>
<polygon fill="black" stroke="black" points="237.5,-255.33 241,-265.33 244.5,-255.33 237.5,-255.33"/>
<polygon fill="none" stroke="black" points="244,-205.25 244,-224 406,-224 406,-205.25 244,-205.25"/>
<text text-anchor="start" x="277" y="-212.5" font-family="Courier New" font-weight="bold" font-size="10.00" fill="orange">DRAG(IDD_SHAKE,)</text>
<polygon fill="none" stroke="black" points="244,-184.5 244,-203.25 406,-203.25 406,-184.5 244,-184.5"/>
<text text-anchor="start" x="247" y="-190.75" font-family="Courier New" font-size="10.00" fill="blue">PLAYWAVE(SOUND_DICESHAKE);</text>
<polygon fill="none" stroke="black" points="241,-181.5 241,-227 409,-227 409,-181.5 241,-181.5"/>
</g>
<!-- 3 -->
<g id="node4" class="node">
<title>3</title>
<polyline fill="none" stroke="darkred" points="324.88,-7 339.12,-7"/>
<text text-anchor="start" x="327.88" y="-14.2" font-family="Courier New" font-weight="bold" font-size="14.00">3</text>
<path fill="none" stroke="darkred" d="M328.62,-4C328.62,-4 335.38,-4 335.38,-4 338.75,-4 342.12,-7.38 342.12,-10.75 342.12,-10.75 342.12,-25.75 342.12,-25.75 342.12,-29.12 338.75,-32.5 335.38,-32.5 335.38,-32.5 328.62,-32.5 328.62,-32.5 325.25,-32.5 321.88,-29.12 321.88,-25.75 321.88,-25.75 321.88,-10.75 321.88,-10.75 321.88,-7.38 325.25,-4 328.62,-4"/>
</g>
<!-- 2&#45;&gt;3 -->
<g id="edge3" class="edge">
<title>2&#45;&gt;3</title>
<path fill="none" stroke="black" d="M242.61,-118.71C245.01,-100.03 251.01,-72.93 266,-54.5 273.56,-45.2 284.24,-38.03 294.81,-32.66"/>
<polygon fill="black" stroke="black" points="296.23,-35.86 303.86,-28.5 293.31,-29.5 296.23,-35.86"/>
<polygon fill="none" stroke="black" points="269,-78.25 269,-97 407,-97 407,-78.25 269,-78.25"/>
<text text-anchor="start" x="290" y="-85.5" font-family="Courier New" font-weight="bold" font-size="10.00" fill="orange">DROP(IDD_SHAKE,)</text>
<polygon fill="none" stroke="black" points="269,-57.5 269,-76.25 407,-76.25 407,-57.5 269,-57.5"/>
<text text-anchor="start" x="272" y="-63.75" font-family="Courier New" font-size="10.00" fill="blue">SIGNAL(WIP1,SIG_SHOW);</text>
<polygon fill="none" stroke="black" points="266,-54.5 266,-100 410,-100 410,-54.5 266,-54.5"/>
</g>
<!-- 3&#45;&gt;0 -->
<g id="edge4" class="edge">
<title>3&#45;&gt;0</title>
<path fill="none" stroke="black" d="M358.97,-23.73C376.77,-28.24 398.8,-37.15 410,-54.5 451.58,-118.91 460.45,-169.27 410,-227 390.38,-249.46 303.46,-231.23 277,-245 270.56,-248.35 264.68,-253.33 259.62,-258.62"/>
<polygon fill="black" stroke="black" points="257.26,-256 253.37,-265.85 262.56,-260.57 257.26,-256"/>
<polygon fill="none" stroke="black" points="447,-141.75 447,-160.5 585,-160.5 585,-141.75 447,-141.75"/>
<text text-anchor="start" x="486" y="-149" font-family="Courier New" font-weight="bold" font-size="10.00" fill="blue">ESTIME(,1)</text>
<polygon fill="none" stroke="black" points="447,-121 447,-139.75 585,-139.75 585,-121 447,-121"/>
<text text-anchor="start" x="450" y="-127.25" font-family="Courier New" font-size="10.00" fill="blue">SIGNAL(WIP2,SIG_SHOW);</text>
<polygon fill="none" stroke="black" points="444,-118 444,-163.5 588,-163.5 588,-118 444,-118"/>
</g>
<!-- status -->
<g id="node5" class="node">
<title>status</title>
<polygon fill="none" stroke="black" points="286,-245.5 286,-324.5 740,-324.5 740,-245.5 286,-245.5"/>
<polygon fill="none" stroke="black" points="297,-298.75 297,-317.5 729,-317.5 729,-298.75 297,-298.75"/>
<text text-anchor="start" x="471" y="-306" font-family="Courier New" font-weight="bold" font-size="10.00">S16_DICEDROP_R</text>
<polygon fill="none" stroke="black" points="297,-252.5 297,-296.75 729,-296.75 729,-252.5 297,-252.5"/>
<text text-anchor="start" x="300" y="-284.25" font-family="Courier New" font-size="10.00" fill="green">VIEW::IDV_TRAYL @pos(left:218, top:133)</text>
<text text-anchor="start" x="300" y="-271.5" font-family="Courier New" font-size="10.00" fill="green">S16_DICEDROP_R::M16_DICEDROP(&#39;S16_DICEROLL_R1&#39;,&#39;S16_DICEROLL_R2&#39;,&#39;&#39;,&#39;&#39;)</text>
<text text-anchor="start" x="300" y="-258.75" font-family="Courier New" font-size="10.00" fill="green">{state:&#39;2&#39;: wObject:IDD_SHAKE</text>
<polygon fill="none" stroke="black" points="294,-249.5 294,-320.5 732,-320.5 732,-249.5 294,-249.5"/>
</g>
</g>
</svg>
