<?xml version="1.0" encoding="UTF-8" standalone="no"?>
<!DOCTYPE svg PUBLIC "-//W3C//DTD SVG 1.1//EN"
 "http://www.w3.org/Graphics/SVG/1.1/DTD/svg11.dtd">
<!-- Generated by graphviz version 10.0.1 (20240210.2158)
 -->
<!-- Title: Automaton Pages: 1 -->
<svg width="544pt" height="181pt"
 viewBox="0.00 0.00 544.00 181.25" xmlns="http://www.w3.org/2000/svg" xmlns:xlink="http://www.w3.org/1999/xlink">
<g id="graph0" class="graph" transform="scale(1 1) rotate(0) translate(4 177.25)">
<title>Automaton</title>
<polygon fill="white" stroke="none" points="-4,4 -4,-177.25 540,-177.25 540,4 -4,4"/>
<!-- filename -->
<g id="node1" class="node">
<title>filename</title>
<polygon fill="none" stroke="black" points="0,-106.5 0,-160 160,-160 160,-106.5 0,-106.5"/>
<polygon fill="none" stroke="black" points="11,-134.25 11,-153 149,-153 149,-134.25 11,-134.25"/>
<text text-anchor="start" x="14" y="-141.5" font-family="Courier New" font-weight="bold" font-size="10.00">SMP_RECYCLE::M_RECYCLE</text>
<polygon fill="none" stroke="black" points="11,-113.5 11,-132.25 149,-132.25 149,-113.5 11,-113.5"/>
<text text-anchor="start" x="35" y="-119.75" font-family="Courier New" font-size="10.00" fill="brown">start state = 0</text>
<polygon fill="none" stroke="black" points="8,-110.5 8,-156 152,-156 152,-110.5 8,-110.5"/>
</g>
<!-- 0 -->
<g id="node2" class="node">
<title>0</title>
<polyline fill="none" stroke="darkred" stroke-width="3" points="197.38,-121.5 212.62,-121.5"/>
<text text-anchor="start" x="200.88" y="-129.2" font-family="Courier New" font-weight="bold" font-size="14.00">0</text>
<path fill="none" stroke="darkred" stroke-width="3" d="M200.79,-116.5C200.79,-116.5 209.21,-116.5 209.21,-116.5 213.42,-116.5 217.62,-120.71 217.62,-124.92 217.62,-124.92 217.62,-141.58 217.62,-141.58 217.62,-145.79 213.42,-150 209.21,-150 209.21,-150 200.79,-150 200.79,-150 196.58,-150 192.38,-145.79 192.38,-141.58 192.38,-141.58 192.38,-124.92 192.38,-124.92 192.38,-120.71 196.58,-116.5 200.79,-116.5"/>
</g>
<!-- 1 -->
<g id="node3" class="node">
<title>1</title>
<polyline fill="none" stroke="darkred" points="196.88,-7 211.12,-7"/>
<text text-anchor="start" x="199.88" y="-14.2" font-family="Courier New" font-weight="bold" font-size="14.00">1</text>
<path fill="none" stroke="darkred" d="M200.62,-4C200.62,-4 207.38,-4 207.38,-4 210.75,-4 214.12,-7.38 214.12,-10.75 214.12,-10.75 214.12,-25.75 214.12,-25.75 214.12,-29.12 210.75,-32.5 207.38,-32.5 207.38,-32.5 200.62,-32.5 200.62,-32.5 197.25,-32.5 193.88,-29.12 193.88,-25.75 193.88,-25.75 193.88,-10.75 193.88,-10.75 193.88,-7.38 197.25,-4 200.62,-4"/>
</g>
<!-- 0&#45;&gt;1 -->
<g id="edge1" class="edge">
<title>0&#45;&gt;1</title>
<path fill="none" stroke="black" d="M184.38,-111.12C176.03,-101.1 167.34,-88.45 163,-75.25 160.12,-66.49 159.15,-62.88 163,-54.5 164.66,-50.89 166.88,-47.52 169.45,-44.39"/>
<polygon fill="black" stroke="black" points="171.84,-46.95 176.32,-37.35 166.83,-42.06 171.84,-46.95"/>
<text text-anchor="start" x="167" y="-62.75" font-family="Courier New" font-weight="bold" font-size="10.00" fill="orange">DROP(0,0)</text>
</g>
<!-- 1&#45;&gt;0 -->
<g id="edge2" class="edge">
<title>1&#45;&gt;0</title>
<path fill="none" stroke="black" d="M216.67,-36.34C220.06,-41.85 223.26,-48.18 225,-54.5 229.15,-69.56 225.83,-86.33 220.79,-100.43"/>
<polygon fill="black" stroke="black" points="217.56,-99.09 217.06,-109.68 224.05,-101.71 217.56,-99.09"/>
<text text-anchor="start" x="230" y="-62.75" font-family="Courier New" font-weight="bold" font-size="10.00" fill="blue">VIDEO(0,IDS_SMBURST)</text>
</g>
<!-- status -->
<g id="node4" class="node">
<title>status</title>
<polygon fill="none" stroke="black" points="250,-93.75 250,-172.75 536,-172.75 536,-93.75 250,-93.75"/>
<polygon fill="none" stroke="black" points="261,-147 261,-165.75 525,-165.75 525,-147 261,-147"/>
<text text-anchor="start" x="360" y="-154.25" font-family="Courier New" font-weight="bold" font-size="10.00">SMP_RECYCLE</text>
<polygon fill="none" stroke="black" points="261,-100.75 261,-145 525,-145 525,-100.75 261,-100.75"/>
<text text-anchor="start" x="264" y="-132.5" font-family="Courier New" font-size="10.00" fill="green">VIEW::IDV_MAIN_PANEL @pos(left:353, top:12)</text>
<text text-anchor="start" x="264" y="-119.75" font-family="Courier New" font-size="10.00" fill="green">SMP_RECYCLE::M_RECYCLE(&#39;&#39;,&#39;&#39;,&#39;&#39;,&#39;&#39;)</text>
<text text-anchor="start" x="264" y="-107" font-family="Courier New" font-size="10.00" fill="green">{state:&#39;0&#39;: wObject:IDD_SCOOPE</text>
<polygon fill="none" stroke="black" points="258,-97.75 258,-168.75 528,-168.75 528,-97.75 258,-97.75"/>
</g>
</g>
</svg>
