<?xml version="1.0" encoding="UTF-8" standalone="no"?>
<!DOCTYPE svg PUBLIC "-//W3C//DTD SVG 1.1//EN"
 "http://www.w3.org/Graphics/SVG/1.1/DTD/svg11.dtd">
<!-- Generated by graphviz version 7.1.0 (20230121.1956)
 -->
<!-- Pages: 1 -->
<svg width="445pt" height="412pt"
 viewBox="0.00 0.00 445.49 412.00" xmlns="http://www.w3.org/2000/svg" xmlns:xlink="http://www.w3.org/1999/xlink">
<g id="graph0" class="graph" transform="scale(1 1) rotate(0) translate(4 408)">
<polygon fill="white" stroke="none" points="-4,4 -4,-408 441.49,-408 441.49,4 -4,4"/>
<!-- 0 -->
<g id="node1" class="node">
<title>0</title>
<ellipse fill="none" stroke="black" cx="141.49" cy="-386" rx="27" ry="18"/>
<text text-anchor="middle" x="141.49" y="-381.8" font-family="Times,serif" font-size="14.00">0</text>
</g>
<!-- 1 -->
<g id="node2" class="node">
<title>1</title>
<ellipse fill="none" stroke="black" cx="99.49" cy="-294" rx="27" ry="18"/>
<text text-anchor="middle" x="99.49" y="-289.8" font-family="Times,serif" font-size="14.00">1</text>
</g>
<!-- 0&#45;&gt;1 -->
<g id="edge1" class="edge">
<title>0&#45;&gt;1</title>
<path fill="none" stroke="black" d="M114.95,-381.41C81.66,-376.3 27.47,-365.77 15.49,-350 -0.88,-328.47 33.46,-312.83 63.04,-303.85"/>
<polygon fill="black" stroke="black" points="63.91,-307.25 72.58,-301.15 62,-300.51 63.91,-307.25"/>
<text text-anchor="start" x="19.49" y="-338" font-family="Courier New" font-weight="bold" font-size="10.00" fill="orange">WAIT(0,0)</text>
</g>
<!-- 0&#45;&gt;1 -->
<g id="edge2" class="edge">
<title>0&#45;&gt;1</title>
<path fill="none" stroke="black" d="M121.84,-373.55C113.67,-367.64 105.04,-359.65 100.49,-350 96.67,-341.93 95.51,-332.41 95.57,-323.59"/>
<polygon fill="black" stroke="black" points="99.06,-323.89 96.19,-313.69 92.07,-323.46 99.06,-323.89"/>
<text text-anchor="start" x="104.49" y="-338" font-family="Courier New" font-weight="bold" font-size="10.00" fill="orange">WAIT(0,0)</text>
</g>
<!-- 1&#45;&gt;0 -->
<g id="edge3" class="edge">
<title>1&#45;&gt;0</title>
<path fill="none" stroke="black" d="M124.25,-301.9C138.12,-307.17 154.24,-315.98 162.49,-330 168.02,-339.41 165.28,-350.55 160.2,-360.34"/>
<polygon fill="black" stroke="black" points="157.36,-358.27 155.11,-368.62 163.32,-361.94 157.36,-358.27"/>
<text text-anchor="start" x="169.49" y="-338" font-family="Courier New" font-weight="bold" font-size="10.00" fill="blue">LTEi(0x72,0)</text>
</g>
<!-- 2 -->
<g id="node3" class="node">
<title>2</title>
<ellipse fill="none" stroke="black" cx="99.49" cy="-202" rx="27" ry="18"/>
<text text-anchor="middle" x="99.49" y="-197.8" font-family="Times,serif" font-size="14.00">2</text>
</g>
<!-- 1&#45;&gt;2 -->
<g id="edge4" class="edge">
<title>1&#45;&gt;2</title>
<path fill="none" stroke="black" d="M99.49,-275.65C99.49,-263.2 99.49,-246.14 99.49,-231.68"/>
<polygon fill="black" stroke="black" points="102.99,-231.81 99.49,-221.81 95.99,-231.81 102.99,-231.81"/>
<text text-anchor="start" x="103.49" y="-246" font-family="Courier New" font-weight="bold" font-size="10.00" fill="blue">SUBI(0x72,1)</text>
</g>
<!-- 3 -->
<g id="node4" class="node">
<title>3</title>
<ellipse fill="none" stroke="black" cx="99.49" cy="-110" rx="27" ry="18"/>
<text text-anchor="middle" x="99.49" y="-105.8" font-family="Times,serif" font-size="14.00">3</text>
</g>
<!-- 2&#45;&gt;3 -->
<g id="edge5" class="edge">
<title>2&#45;&gt;3</title>
<path fill="none" stroke="black" d="M99.49,-183.65C99.49,-171.2 99.49,-154.14 99.49,-139.68"/>
<polygon fill="black" stroke="black" points="102.99,-139.81 99.49,-129.81 95.99,-139.81 102.99,-139.81"/>
<text text-anchor="start" x="103.49" y="-154" font-family="Courier New" font-weight="bold" font-size="10.00" fill="blue">PLAYWAVE(0,SOUND_HURT)</text>
</g>
<!-- 4 -->
<g id="node5" class="node">
<title>4</title>
<ellipse fill="none" stroke="black" cx="106.49" cy="-18" rx="27" ry="18"/>
<text text-anchor="middle" x="106.49" y="-13.8" font-family="Times,serif" font-size="14.00">4</text>
</g>
<!-- 3&#45;&gt;4 -->
<g id="edge6" class="edge">
<title>3&#45;&gt;4</title>
<path fill="none" stroke="black" d="M73.49,-104.6C39.01,-97.59 -15.34,-81.76 4.49,-54 18.85,-33.89 45.51,-25.21 67.98,-21.53"/>
<polygon fill="black" stroke="black" points="68.31,-25.01 77.76,-20.22 67.38,-18.07 68.31,-25.01"/>
<text text-anchor="start" x="8.49" y="-62" font-family="Courier New" font-weight="bold" font-size="10.00" fill="blue">GTEi(0x72,1)</text>
</g>
<!-- 3&#45;&gt;4 -->
<g id="edge7" class="edge">
<title>3&#45;&gt;4</title>
<path fill="none" stroke="black" d="M100.83,-91.65C101.8,-79.2 103.13,-62.14 104.25,-47.68"/>
<polygon fill="black" stroke="black" points="107.74,-48.05 105.02,-37.81 100.76,-47.51 107.74,-48.05"/>
<text text-anchor="start" x="107.49" y="-62" font-family="Courier New" font-weight="bold" font-size="10.00" fill="blue">PLAYWAVE(0,SOUND_THUNDER)</text>
</g>
<!-- 4&#45;&gt;0 -->
<g id="edge8" class="edge">
<title>4&#45;&gt;0</title>
<path fill="none" stroke="black" d="M133.37,-21.53C173.64,-25.86 246.9,-36.01 265.49,-54 283.61,-71.54 279.49,-83.78 279.49,-109 279.49,-295 279.49,-295 279.49,-295 279.49,-322.84 270.92,-332.22 249.49,-350 229.59,-366.5 201.74,-375.28 179.3,-379.92"/>
<polygon fill="black" stroke="black" points="178.82,-376.45 169.62,-381.71 180.09,-383.33 178.82,-376.45"/>
<text text-anchor="start" x="283.49" y="-200" font-family="Courier New" font-weight="bold" font-size="10.00" fill="blue">SIGNALi(SIG_SUB,SID_AURA)</text>
</g>
</g>
</svg>
