<?xml version="1.0" encoding="UTF-8" standalone="no"?>
<!DOCTYPE svg PUBLIC "-//W3C//DTD SVG 1.1//EN"
 "http://www.w3.org/Graphics/SVG/1.1/DTD/svg11.dtd">
<!-- Generated by graphviz version 7.1.0 (20230121.1956)
 -->
<!-- Pages: 1 -->
<svg width="150pt" height="225pt"
 viewBox="0.00 0.00 150.19 224.60" xmlns="http://www.w3.org/2000/svg" xmlns:xlink="http://www.w3.org/1999/xlink">
<g id="graph0" class="graph" transform="scale(1 1) rotate(0) translate(4 220.6)">
<polygon fill="white" stroke="none" points="-4,4 -4,-220.6 146.19,-220.6 146.19,4 -4,4"/>
<!-- 0x0035_0 -->
<g id="node1" class="node">
<title>0x0035_0</title>
<polygon fill="none" stroke="black" points="4.68,-180.1 4.68,-216.1 76.68,-216.1 76.68,-180.1 4.68,-180.1"/>
<text text-anchor="middle" x="40.68" y="-193.9" font-family="Times,serif" font-size="14.00">0x0035_0</text>
</g>
<!-- 0x0035_1 -->
<g id="node2" class="node">
<title>0x0035_1</title>
<polygon fill="none" stroke="black" points="4.68,-90.3 4.68,-126.3 76.68,-126.3 76.68,-90.3 4.68,-90.3"/>
<text text-anchor="middle" x="40.68" y="-104.1" font-family="Times,serif" font-size="14.00">0x0035_1</text>
</g>
<!-- 0x0035_0&#45;&gt;0x0035_1 -->
<g id="edge1" class="edge">
<title>0x0035_0&#45;&gt;0x0035_1</title>
<path fill="none" stroke="red" d="M16.44,-180.4C10.69,-175.12 5.31,-168.76 2.17,-161.6 -1.98,-152.12 1.79,-142.71 8.35,-134.55"/>
<polygon fill="red" stroke="red" points="10.88,-136.97 15.26,-127.32 5.82,-132.13 10.88,-136.97"/>
<text text-anchor="start" x="2.68" y="-150" font-family="Times,serif" font-size="14.00" fill="red"> </text>
<text text-anchor="start" x="6.18" y="-150" font-family="Courier New" font-size="10.00" fill="red">WAIT(0,0)</text>
</g>
<!-- 0x0035_1&#45;&gt;0x0035_0 -->
<g id="edge3" class="edge">
<title>0x0035_1&#45;&gt;0x0035_0</title>
<path fill="none" stroke="green" d="M51.96,-126.3C55.1,-131.95 58.08,-138.43 59.68,-144.8 61.5,-152.04 61.5,-154.36 59.68,-161.6 58.98,-164.39 58.02,-167.2 56.89,-169.95"/>
<polygon fill="green" stroke="green" points="53.84,-168.22 52.62,-178.74 60.14,-171.27 53.84,-168.22"/>
<text text-anchor="start" x="60.68" y="-150" font-family="Times,serif" font-size="14.00" fill="green"> </text>
<text text-anchor="start" x="64.18" y="-150" font-family="Courier New" font-size="10.00" fill="green">GTEi(0x73,23)</text>
</g>
<!-- 0x0035_2 -->
<g id="node3" class="node">
<title>0x0035_2</title>
<polygon fill="none" stroke="black" points="4.68,-0.5 4.68,-36.5 76.68,-36.5 76.68,-0.5 4.68,-0.5"/>
<text text-anchor="middle" x="40.68" y="-14.3" font-family="Times,serif" font-size="14.00">0x0035_2</text>
</g>
<!-- 0x0035_1&#45;&gt;0x0035_2 -->
<g id="edge2" class="edge">
<title>0x0035_1&#45;&gt;0x0035_2</title>
<path fill="none" stroke="green" d="M40.68,-90.37C40.68,-78.22 40.68,-61.58 40.68,-47.47"/>
<polygon fill="green" stroke="green" points="44.18,-47.89 40.68,-37.89 37.18,-47.89 44.18,-47.89"/>
<text text-anchor="start" x="40.68" y="-60.2" font-family="Times,serif" font-size="14.00" fill="green"> </text>
<text text-anchor="start" x="44.18" y="-60.2" font-family="Courier New" font-size="10.00" fill="green">ADDI(0x73,1)</text>
</g>
</g>
</svg>
