<?xml version="1.0" encoding="UTF-8" standalone="no"?>
<!DOCTYPE svg PUBLIC "-//W3C//DTD SVG 1.1//EN"
 "http://www.w3.org/Graphics/SVG/1.1/DTD/svg11.dtd">
<!-- Generated by graphviz version 7.1.0 (20230121.1956)
 -->
<!-- Pages: 1 -->
<svg width="520pt" height="420pt"
 viewBox="0.00 0.00 520.31 420.00" xmlns="http://www.w3.org/2000/svg" xmlns:xlink="http://www.w3.org/1999/xlink">
<g id="graph0" class="graph" transform="scale(1 1) rotate(0) translate(4 416)">
<polygon fill="white" stroke="none" points="-4,4 -4,-416 516.31,-416 516.31,4 -4,4"/>
<!-- 0 -->
<g id="node1" class="node">
<title>0</title>
<ellipse fill="none" stroke="black" cx="167.31" cy="-394" rx="27" ry="18"/>
<text text-anchor="middle" x="167.31" y="-389.8" font-family="Times,serif" font-size="14.00">0</text>
</g>
<!-- 1 -->
<g id="node2" class="node">
<title>1</title>
<ellipse fill="none" stroke="black" cx="120.31" cy="-300" rx="27" ry="18"/>
<text text-anchor="middle" x="120.31" y="-295.8" font-family="Times,serif" font-size="14.00">1</text>
</g>
<!-- 0&#45;&gt;1 -->
<g id="edge1" class="edge">
<title>0&#45;&gt;1</title>
<path fill="none" stroke="black" d="M140.49,-390.23C103.61,-385.81 40.21,-375.78 26.31,-358 7.34,-333.76 49.58,-317.44 83.43,-308.68"/>
<polygon fill="black" stroke="black" points="84.12,-312.11 93.02,-306.36 82.47,-305.31 84.12,-312.11"/>
<text text-anchor="start" x="30.31" y="-344.2" font-family="Courier New" font-weight="bold" font-size="12.00" fill="orange">WAIT(0,0)</text>
</g>
<!-- 0&#45;&gt;1 -->
<g id="edge2" class="edge">
<title>0&#45;&gt;1</title>
<path fill="none" stroke="black" d="M146.28,-382.66C136.85,-376.82 126.66,-368.56 121.31,-358 116.93,-349.37 115.75,-339.02 115.97,-329.53"/>
<polygon fill="black" stroke="black" points="119.45,-329.89 116.73,-319.65 112.47,-329.36 119.45,-329.89"/>
<text text-anchor="start" x="125.31" y="-344.2" font-family="Courier New" font-weight="bold" font-size="12.00" fill="orange">WAIT(0,0)</text>
</g>
<!-- 1&#45;&gt;0 -->
<g id="edge3" class="edge">
<title>1&#45;&gt;0</title>
<path fill="none" stroke="black" d="M145.95,-305.99C162.57,-310.7 182.97,-319.59 193.31,-336 199.87,-346.43 195.53,-358.79 188.65,-369.34"/>
<polygon fill="black" stroke="black" points="185.97,-367.09 182.77,-377.19 191.57,-371.28 185.97,-367.09"/>
<text text-anchor="start" x="200.31" y="-344.2" font-family="Courier New" font-weight="bold" font-size="12.00" fill="blue">LTEi(0x72,0)</text>
</g>
<!-- 2 -->
<g id="node3" class="node">
<title>2</title>
<ellipse fill="none" stroke="black" cx="120.31" cy="-206" rx="27" ry="18"/>
<text text-anchor="middle" x="120.31" y="-201.8" font-family="Times,serif" font-size="14.00">2</text>
</g>
<!-- 1&#45;&gt;2 -->
<g id="edge4" class="edge">
<title>1&#45;&gt;2</title>
<path fill="none" stroke="black" d="M120.31,-281.7C120.31,-268.72 120.31,-250.66 120.31,-235.56"/>
<polygon fill="black" stroke="black" points="123.81,-235.74 120.31,-225.74 116.81,-235.74 123.81,-235.74"/>
<text text-anchor="start" x="124.31" y="-250.2" font-family="Courier New" font-weight="bold" font-size="12.00" fill="blue">SUBI(0x72,1)</text>
</g>
<!-- 3 -->
<g id="node4" class="node">
<title>3</title>
<ellipse fill="none" stroke="black" cx="120.31" cy="-112" rx="27" ry="18"/>
<text text-anchor="middle" x="120.31" y="-107.8" font-family="Times,serif" font-size="14.00">3</text>
</g>
<!-- 2&#45;&gt;3 -->
<g id="edge5" class="edge">
<title>2&#45;&gt;3</title>
<path fill="none" stroke="black" d="M120.31,-187.7C120.31,-174.72 120.31,-156.66 120.31,-141.56"/>
<polygon fill="black" stroke="black" points="123.81,-141.74 120.31,-131.74 116.81,-141.74 123.81,-141.74"/>
<text text-anchor="start" x="124.31" y="-156.2" font-family="Courier New" font-weight="bold" font-size="12.00" fill="blue">PLAYWAVE(0,SOUND_HURT)</text>
</g>
<!-- 4 -->
<g id="node5" class="node">
<title>4</title>
<ellipse fill="none" stroke="black" cx="121.31" cy="-18" rx="27" ry="18"/>
<text text-anchor="middle" x="121.31" y="-13.8" font-family="Times,serif" font-size="14.00">4</text>
</g>
<!-- 3&#45;&gt;4 -->
<g id="edge6" class="edge">
<title>3&#45;&gt;4</title>
<path fill="none" stroke="black" d="M93.67,-108.01C52.5,-102.29 -19.41,-87.27 5.31,-54 22.95,-30.24 56.24,-22.03 82.64,-19.45"/>
<polygon fill="black" stroke="black" points="82.61,-22.96 92.33,-18.75 82.1,-15.98 82.61,-22.96"/>
<text text-anchor="start" x="9.31" y="-62.2" font-family="Courier New" font-weight="bold" font-size="12.00" fill="blue">GTEi(0x72,1)</text>
</g>
<!-- 3&#45;&gt;4 -->
<g id="edge7" class="edge">
<title>3&#45;&gt;4</title>
<path fill="none" stroke="black" d="M120.49,-93.7C120.64,-80.72 120.83,-62.66 121,-47.56"/>
<polygon fill="black" stroke="black" points="124.49,-47.78 121.1,-37.74 117.49,-47.7 124.49,-47.78"/>
<text text-anchor="start" x="124.31" y="-62.2" font-family="Courier New" font-weight="bold" font-size="12.00" fill="blue">PLAYWAVE(0,SOUND_THUNDER)</text>
</g>
<!-- 4&#45;&gt;0 -->
<g id="edge8" class="edge">
<title>4&#45;&gt;0</title>
<path fill="none" stroke="black" d="M148.29,-20.46C194.8,-23.55 287.31,-32.3 310.31,-54 329.28,-71.91 324.31,-84.91 324.31,-111 324.31,-301 324.31,-301 324.31,-301 324.31,-329.63 316.61,-340.05 294.31,-358 269.05,-378.32 232.82,-386.87 205.52,-390.45"/>
<polygon fill="black" stroke="black" points="205.47,-386.94 195.93,-391.53 206.26,-393.89 205.47,-386.94"/>
<text text-anchor="start" x="328.31" y="-203.2" font-family="Courier New" font-weight="bold" font-size="12.00" fill="blue">SIGNALi(SIG_SUB,SID_AURA)</text>
</g>
</g>
</svg>
