<?xml version="1.0" encoding="UTF-8" standalone="no"?>
<!DOCTYPE svg PUBLIC "-//W3C//DTD SVG 1.1//EN"
 "http://www.w3.org/Graphics/SVG/1.1/DTD/svg11.dtd">
<!-- Generated by graphviz version 7.1.0 (20230121.1956)
 -->
<!-- Pages: 1 -->
<svg width="497pt" height="420pt"
 viewBox="0.00 0.00 497.08 420.00" xmlns="http://www.w3.org/2000/svg" xmlns:xlink="http://www.w3.org/1999/xlink">
<g id="graph0" class="graph" transform="scale(1 1) rotate(0) translate(4 416)">
<polygon fill="white" stroke="none" points="-4,4 -4,-416 493.08,-416 493.08,4 -4,4"/>
<!-- 0 -->
<g id="node1" class="node">
<title>0</title>
<ellipse fill="none" stroke="black" cx="206.08" cy="-394" rx="27" ry="18"/>
<text text-anchor="middle" x="206.08" y="-389.8" font-family="Times,serif" font-size="14.00">0</text>
</g>
<!-- 1 -->
<g id="node2" class="node">
<title>1</title>
<ellipse fill="none" stroke="black" cx="118.08" cy="-300" rx="27" ry="18"/>
<text text-anchor="middle" x="118.08" y="-295.8" font-family="Times,serif" font-size="14.00">1</text>
</g>
<!-- 0&#45;&gt;1 -->
<g id="edge1" class="edge">
<title>0&#45;&gt;1</title>
<path fill="none" stroke="black" d="M179.58,-390.09C159.32,-386.33 132.65,-377.71 119.08,-358 113.46,-349.83 112.08,-339.32 112.49,-329.55"/>
<polygon fill="black" stroke="black" points="115.96,-330.04 113.55,-319.72 109,-329.29 115.96,-330.04"/>
<text text-anchor="start" x="123.58" y="-344.2" font-family="Courier New" font-weight="bold" font-size="12.00" fill="orange">WAIT(00)</text>
</g>
<!-- 1&#45;&gt;0 -->
<g id="edge2" class="edge">
<title>1&#45;&gt;0</title>
<path fill="none" stroke="black" d="M141.86,-308.79C155.79,-314.42 172.8,-323.29 184.08,-336 191.35,-344.19 196.33,-355.03 199.69,-365.06"/>
<polygon fill="black" stroke="black" points="196.25,-365.78 202.4,-374.41 202.97,-363.83 196.25,-365.78"/>
<text text-anchor="start" x="200.58" y="-344.2" font-family="Courier New" font-weight="bold" font-size="12.00" fill="blue">LTEi(0x700)</text>
</g>
<!-- 2 -->
<g id="node3" class="node">
<title>2</title>
<ellipse fill="none" stroke="black" cx="115.08" cy="-206" rx="27" ry="18"/>
<text text-anchor="middle" x="115.08" y="-201.8" font-family="Times,serif" font-size="14.00">2</text>
</g>
<!-- 1&#45;&gt;2 -->
<g id="edge3" class="edge">
<title>1&#45;&gt;2</title>
<path fill="none" stroke="black" d="M117.52,-281.7C117.09,-268.72 116.51,-250.66 116.01,-235.56"/>
<polygon fill="black" stroke="black" points="119.52,-235.62 115.69,-225.74 112.52,-235.85 119.52,-235.62"/>
<text text-anchor="start" x="121.58" y="-250.2" font-family="Courier New" font-weight="bold" font-size="12.00" fill="blue">SUBI(0x701)</text>
</g>
<!-- 3 -->
<g id="node4" class="node">
<title>3</title>
<ellipse fill="none" stroke="black" cx="114.08" cy="-112" rx="27" ry="18"/>
<text text-anchor="middle" x="114.08" y="-107.8" font-family="Times,serif" font-size="14.00">3</text>
</g>
<!-- 2&#45;&gt;3 -->
<g id="edge4" class="edge">
<title>2&#45;&gt;3</title>
<path fill="none" stroke="black" d="M114.89,-187.7C114.75,-174.72 114.56,-156.66 114.39,-141.56"/>
<polygon fill="black" stroke="black" points="117.89,-141.7 114.29,-131.74 110.89,-141.78 117.89,-141.7"/>
<text text-anchor="start" x="119.58" y="-156.2" font-family="Courier New" font-weight="bold" font-size="12.00" fill="blue">PLAYWAVE(0SOUND_HURT)</text>
</g>
<!-- 4 -->
<g id="node5" class="node">
<title>4</title>
<ellipse fill="none" stroke="black" cx="114.08" cy="-18" rx="27" ry="18"/>
<text text-anchor="middle" x="114.08" y="-13.8" font-family="Times,serif" font-size="14.00">4</text>
</g>
<!-- 3&#45;&gt;4 -->
<g id="edge5" class="edge">
<title>3&#45;&gt;4</title>
<path fill="none" stroke="black" d="M87.01,-110.73C61.24,-108.85 23.7,-101.53 5.08,-76 -15.99,-47.1 37.15,-31.62 76.43,-24.37"/>
<polygon fill="black" stroke="black" points="76.82,-27.85 86.08,-22.71 75.63,-20.95 76.82,-27.85"/>
<text text-anchor="start" x="9.58" y="-62.2" font-family="Courier New" font-weight="bold" font-size="12.00" fill="blue">GTEi(0x701)</text>
</g>
<!-- 3&#45;&gt;4 -->
<g id="edge6" class="edge">
<title>3&#45;&gt;4</title>
<path fill="none" stroke="black" d="M114.08,-93.7C114.08,-80.72 114.08,-62.66 114.08,-47.56"/>
<polygon fill="black" stroke="black" points="117.58,-47.74 114.08,-37.74 110.58,-47.74 117.58,-47.74"/>
<text text-anchor="start" x="118.08" y="-62.2" font-family="Courier New" font-weight="bold" font-size="12.00" fill="blue">PLAYWAVE(0SOUND_THUNDER)</text>
</g>
<!-- 4&#45;&gt;0 -->
<g id="edge7" class="edge">
<title>4&#45;&gt;0</title>
<path fill="none" stroke="black" d="M141,-20.71C185.89,-24.11 273.28,-33.26 295.08,-54 313.98,-71.98 309.08,-84.91 309.08,-111 309.08,-301 309.08,-301 309.08,-301 309.08,-328.15 305.9,-338.42 287.08,-358 275.12,-370.44 258,-378.71 242.58,-384.07"/>
<polygon fill="black" stroke="black" points="241.68,-380.68 233.19,-387.02 243.78,-387.36 241.68,-380.68"/>
<text text-anchor="start" x="313.08" y="-203.2" font-family="Courier New" font-weight="bold" font-size="12.00" fill="blue">SIGNALi(SIG_SUBSID_AURA)</text>
</g>
</g>
</svg>
