<?xml version="1.0" encoding="UTF-8" standalone="no"?>
<!DOCTYPE svg PUBLIC "-//W3C//DTD SVG 1.1//EN"
 "http://www.w3.org/Graphics/SVG/1.1/DTD/svg11.dtd">
<!-- Generated by graphviz version 7.1.0 (20230121.1956)
 -->
<!-- Pages: 1 -->
<svg width="432pt" height="404pt"
 viewBox="0.00 0.00 432.34 404.20" xmlns="http://www.w3.org/2000/svg" xmlns:xlink="http://www.w3.org/1999/xlink">
<g id="graph0" class="graph" transform="scale(1 1) rotate(0) translate(4 400.2)">
<polygon fill="white" stroke="none" points="-4,4 -4,-400.2 428.34,-400.2 428.34,4 -4,4"/>
<!-- 0x0030_0 -->
<g id="node1" class="node">
<title>0x0030_0</title>
<polygon fill="none" stroke="black" points="102.81,-359.7 102.81,-395.7 174.81,-395.7 174.81,-359.7 102.81,-359.7"/>
<text text-anchor="middle" x="138.81" y="-373.5" font-family="Times,serif" font-size="14.00">0x0030_0</text>
</g>
<!-- 0x0030_1 -->
<g id="node2" class="node">
<title>0x0030_1</title>
<polygon fill="none" stroke="black" points="62.81,-269.9 62.81,-305.9 134.81,-305.9 134.81,-269.9 62.81,-269.9"/>
<text text-anchor="middle" x="98.81" y="-283.7" font-family="Times,serif" font-size="14.00">0x0030_1</text>
</g>
<!-- 0x0030_0&#45;&gt;0x0030_1 -->
<g id="edge1" class="edge">
<title>0x0030_0&#45;&gt;0x0030_1</title>
<path fill="none" stroke="red" d="M102.9,-376.76C75.16,-374.67 38.4,-366.79 19.3,-341.2 6.18,-323.61 28.08,-310.19 52.2,-301.35"/>
<polygon fill="red" stroke="red" points="53.15,-304.73 61.51,-298.21 50.92,-298.09 53.15,-304.73"/>
<text text-anchor="start" x="19.81" y="-329.6" font-family="Times,serif" font-size="14.00" fill="red"> </text>
<text text-anchor="start" x="23.31" y="-329.6" font-family="Courier New" font-size="10.00" fill="red">WAIT(0,0)</text>
</g>
<!-- 0x0030_0&#45;&gt;0x0030_1 -->
<g id="edge2" class="edge">
<title>0x0030_0&#45;&gt;0x0030_1</title>
<path fill="none" stroke="red" d="M114.71,-359.94C108.95,-354.66 103.54,-348.32 100.3,-341.2 96.92,-333.76 95.73,-325.08 95.61,-316.96"/>
<polygon fill="red" stroke="red" points="99.1,-317.31 96.01,-307.18 92.1,-317.03 99.1,-317.31"/>
<text text-anchor="start" x="100.81" y="-329.6" font-family="Times,serif" font-size="14.00" fill="red"> </text>
<text text-anchor="start" x="104.31" y="-329.6" font-family="Courier New" font-size="10.00" fill="red">WAIT(0,0)</text>
</g>
<!-- 0x0030_1&#45;&gt;0x0030_0 -->
<g id="edge3" class="edge">
<title>0x0030_1&#45;&gt;0x0030_0</title>
<path fill="none" stroke="green" d="M134.69,-302.69C143.85,-308.03 152.58,-315.14 157.81,-324.4 162.29,-332.32 160.9,-341.5 157.35,-349.93"/>
<polygon fill="green" stroke="green" points="154.28,-348.25 152.69,-358.73 160.47,-351.53 154.28,-348.25"/>
<text text-anchor="start" x="160.81" y="-329.6" font-family="Times,serif" font-size="14.00" fill="green"> </text>
<text text-anchor="start" x="164.31" y="-329.6" font-family="Courier New" font-size="10.00" fill="green">LTEi(0x72,0)</text>
</g>
<!-- 0x0030_2 -->
<g id="node3" class="node">
<title>0x0030_2</title>
<polygon fill="none" stroke="black" points="62.81,-180.1 62.81,-216.1 134.81,-216.1 134.81,-180.1 62.81,-180.1"/>
<text text-anchor="middle" x="98.81" y="-193.9" font-family="Times,serif" font-size="14.00">0x0030_2</text>
</g>
<!-- 0x0030_1&#45;&gt;0x0030_2 -->
<g id="edge4" class="edge">
<title>0x0030_1&#45;&gt;0x0030_2</title>
<path fill="none" stroke="green" d="M98.81,-269.97C98.81,-257.82 98.81,-241.18 98.81,-227.07"/>
<polygon fill="green" stroke="green" points="102.31,-227.49 98.81,-217.49 95.31,-227.49 102.31,-227.49"/>
<text text-anchor="start" x="98.81" y="-239.8" font-family="Times,serif" font-size="14.00" fill="green"> </text>
<text text-anchor="start" x="102.31" y="-239.8" font-family="Courier New" font-size="10.00" fill="green">SUBI(0x72,1)</text>
</g>
<!-- 0x0030_3 -->
<g id="node4" class="node">
<title>0x0030_3</title>
<polygon fill="none" stroke="black" points="62.81,-90.3 62.81,-126.3 134.81,-126.3 134.81,-90.3 62.81,-90.3"/>
<text text-anchor="middle" x="98.81" y="-104.1" font-family="Times,serif" font-size="14.00">0x0030_3</text>
</g>
<!-- 0x0030_2&#45;&gt;0x0030_3 -->
<g id="edge5" class="edge">
<title>0x0030_2&#45;&gt;0x0030_3</title>
<path fill="none" stroke="green" d="M98.81,-180.17C98.81,-168.02 98.81,-151.38 98.81,-137.27"/>
<polygon fill="green" stroke="green" points="102.31,-137.69 98.81,-127.69 95.31,-137.69 102.31,-137.69"/>
<text text-anchor="start" x="98.81" y="-150" font-family="Times,serif" font-size="14.00" fill="green"> </text>
<text text-anchor="start" x="102.31" y="-150" font-family="Courier New" font-size="10.00" fill="green">PLAYWAVE(0,SOUND_HURT)</text>
</g>
<!-- 0x0030_4 -->
<g id="node5" class="node">
<title>0x0030_4</title>
<polygon fill="none" stroke="black" points="65.81,-0.5 65.81,-36.5 137.81,-36.5 137.81,-0.5 65.81,-0.5"/>
<text text-anchor="middle" x="101.81" y="-14.3" font-family="Times,serif" font-size="14.00">0x0030_4</text>
</g>
<!-- 0x0030_3&#45;&gt;0x0030_4 -->
<g id="edge6" class="edge">
<title>0x0030_3&#45;&gt;0x0030_4</title>
<path fill="none" stroke="green" d="M62.9,-101.39C29.35,-94.22 -13.12,-79.89 4.3,-55 15.82,-38.55 35.8,-29.69 54.69,-24.94"/>
<polygon fill="green" stroke="green" points="55.39,-28.36 64.44,-22.85 53.93,-21.52 55.39,-28.36"/>
<text text-anchor="start" x="4.81" y="-60.2" font-family="Times,serif" font-size="14.00" fill="green"> </text>
<text text-anchor="start" x="8.31" y="-60.2" font-family="Courier New" font-size="10.00" fill="green">GTEi(0x72,1)</text>
</g>
<!-- 0x0030_3&#45;&gt;0x0030_4 -->
<g id="edge7" class="edge">
<title>0x0030_3&#45;&gt;0x0030_4</title>
<path fill="none" stroke="green" d="M99.39,-90.37C99.81,-78.22 100.38,-61.58 100.86,-47.47"/>
<polygon fill="green" stroke="green" points="104.34,-48 101.18,-37.89 97.35,-47.76 104.34,-48"/>
<text text-anchor="start" x="100.81" y="-60.2" font-family="Times,serif" font-size="14.00" fill="green"> </text>
<text text-anchor="start" x="104.31" y="-60.2" font-family="Courier New" font-size="10.00" fill="green">PLAYWAVE(0,SOUND_THUNDER)</text>
</g>
<!-- 0x0030_4&#45;&gt;0x0030_0 -->
<g id="edge8" class="edge">
<title>0x0030_4&#45;&gt;0x0030_0</title>
<path fill="none" stroke="green" d="M137.53,-23.4C177.85,-28.52 240.02,-38.81 256.81,-55 274.13,-71.7 270.81,-83.24 270.81,-107.3 270.81,-288.9 270.81,-288.9 270.81,-288.9 270.81,-315.7 261.44,-324.09 240.81,-341.2 225.08,-354.25 204.26,-362.62 185.53,-367.93"/>
<polygon fill="green" stroke="green" points="184.77,-364.51 175.96,-370.41 186.52,-371.29 184.77,-364.51"/>
<text text-anchor="start" x="270.81" y="-194.9" font-family="Times,serif" font-size="14.00" fill="green"> </text>
<text text-anchor="start" x="274.31" y="-194.9" font-family="Courier New" font-size="10.00" fill="green">SIGNALi(SIG_SUB,SID_AURA)</text>
</g>
</g>
</svg>
