<?xml version="1.0" encoding="UTF-8" standalone="no"?>
<!DOCTYPE svg PUBLIC "-//W3C//DTD SVG 1.1//EN"
 "http://www.w3.org/Graphics/SVG/1.1/DTD/svg11.dtd">
<!-- Generated by graphviz version 7.1.0 (20230121.1956)
 -->
<!-- Pages: 1 -->
<svg width="168pt" height="674pt"
 viewBox="0.00 0.00 167.52 673.60" xmlns="http://www.w3.org/2000/svg" xmlns:xlink="http://www.w3.org/1999/xlink">
<g id="graph0" class="graph" transform="scale(1 1) rotate(0) translate(4 669.6)">
<polygon fill="white" stroke="none" points="-4,4 -4,-669.6 163.52,-669.6 163.52,4 -4,4"/>
<!-- 0x0049_1 -->
<g id="node1" class="node">
<title>0x0049_1</title>
<polygon fill="none" stroke="black" points="0,-629.1 0,-665.1 72,-665.1 72,-629.1 0,-629.1"/>
<text text-anchor="middle" x="36" y="-642.9" font-family="Times,serif" font-size="14.00">0x0049_1</text>
</g>
<!-- 0x0049_2 -->
<g id="node2" class="node">
<title>0x0049_2</title>
<polygon fill="none" stroke="black" points="0,-539.3 0,-575.3 72,-575.3 72,-539.3 0,-539.3"/>
<text text-anchor="middle" x="36" y="-553.1" font-family="Times,serif" font-size="14.00">0x0049_2</text>
</g>
<!-- 0x0049_1&#45;&gt;0x0049_2 -->
<g id="edge1" class="edge">
<title>0x0049_1&#45;&gt;0x0049_2</title>
<path fill="none" stroke="green" d="M36,-629.17C36,-617.02 36,-600.38 36,-586.27"/>
<polygon fill="green" stroke="green" points="39.5,-586.69 36,-576.69 32.5,-586.69 39.5,-586.69"/>
<text text-anchor="start" x="36" y="-599" font-family="Times,serif" font-size="14.00" fill="green"> </text>
<text text-anchor="start" x="39.5" y="-599" font-family="Courier New" font-size="10.00" fill="green">ASSIGN(WSPRITE,10)</text>
</g>
<!-- 0x0049_3 -->
<g id="node3" class="node">
<title>0x0049_3</title>
<polygon fill="none" stroke="black" points="0,-449.5 0,-485.5 72,-485.5 72,-449.5 0,-449.5"/>
<text text-anchor="middle" x="36" y="-463.3" font-family="Times,serif" font-size="14.00">0x0049_3</text>
</g>
<!-- 0x0049_2&#45;&gt;0x0049_3 -->
<g id="edge2" class="edge">
<title>0x0049_2&#45;&gt;0x0049_3</title>
<path fill="none" stroke="green" d="M36,-539.37C36,-527.22 36,-510.58 36,-496.47"/>
<polygon fill="green" stroke="green" points="39.5,-496.89 36,-486.89 32.5,-496.89 39.5,-496.89"/>
<text text-anchor="start" x="36" y="-509.2" font-family="Times,serif" font-size="14.00" fill="green"> </text>
<text text-anchor="start" x="39.5" y="-509.2" font-family="Courier New" font-size="10.00" fill="green">MUL(WSPRITE,0x77)</text>
</g>
<!-- 0x0049_4 -->
<g id="node4" class="node">
<title>0x0049_4</title>
<polygon fill="none" stroke="black" points="0,-359.7 0,-395.7 72,-395.7 72,-359.7 0,-359.7"/>
<text text-anchor="middle" x="36" y="-373.5" font-family="Times,serif" font-size="14.00">0x0049_4</text>
</g>
<!-- 0x0049_3&#45;&gt;0x0049_4 -->
<g id="edge3" class="edge">
<title>0x0049_3&#45;&gt;0x0049_4</title>
<path fill="none" stroke="green" d="M36,-449.57C36,-437.42 36,-420.78 36,-406.67"/>
<polygon fill="green" stroke="green" points="39.5,-407.09 36,-397.09 32.5,-407.09 39.5,-407.09"/>
<text text-anchor="start" x="36" y="-419.4" font-family="Times,serif" font-size="14.00" fill="green"> </text>
<text text-anchor="start" x="39.5" y="-419.4" font-family="Courier New" font-size="10.00" fill="green">ASSIGN(WPARM,10)</text>
</g>
<!-- 0x0049_5 -->
<g id="node5" class="node">
<title>0x0049_5</title>
<polygon fill="none" stroke="black" points="0,-269.9 0,-305.9 72,-305.9 72,-269.9 0,-269.9"/>
<text text-anchor="middle" x="36" y="-283.7" font-family="Times,serif" font-size="14.00">0x0049_5</text>
</g>
<!-- 0x0049_4&#45;&gt;0x0049_5 -->
<g id="edge4" class="edge">
<title>0x0049_4&#45;&gt;0x0049_5</title>
<path fill="none" stroke="green" d="M36,-359.77C36,-347.62 36,-330.98 36,-316.87"/>
<polygon fill="green" stroke="green" points="39.5,-317.29 36,-307.29 32.5,-317.29 39.5,-317.29"/>
<text text-anchor="start" x="36" y="-329.6" font-family="Times,serif" font-size="14.00" fill="green"> </text>
<text text-anchor="start" x="39.5" y="-329.6" font-family="Courier New" font-size="10.00" fill="green">DIV(WSPRITE,WPARM)</text>
</g>
<!-- 0x0049_6 -->
<g id="node6" class="node">
<title>0x0049_6</title>
<polygon fill="none" stroke="black" points="0,-180.1 0,-216.1 72,-216.1 72,-180.1 0,-180.1"/>
<text text-anchor="middle" x="36" y="-193.9" font-family="Times,serif" font-size="14.00">0x0049_6</text>
</g>
<!-- 0x0049_5&#45;&gt;0x0049_6 -->
<g id="edge5" class="edge">
<title>0x0049_5&#45;&gt;0x0049_6</title>
<path fill="none" stroke="green" d="M36,-269.97C36,-257.82 36,-241.18 36,-227.07"/>
<polygon fill="green" stroke="green" points="39.5,-227.49 36,-217.49 32.5,-227.49 39.5,-227.49"/>
<text text-anchor="start" x="36" y="-239.8" font-family="Times,serif" font-size="14.00" fill="green"> </text>
<text text-anchor="start" x="39.5" y="-239.8" font-family="Courier New" font-size="10.00" fill="green">ASSIGN(WPARM,0x01c0)</text>
</g>
<!-- 0x0049_7 -->
<g id="node7" class="node">
<title>0x0049_7</title>
<polygon fill="none" stroke="black" points="0,-90.3 0,-126.3 72,-126.3 72,-90.3 0,-90.3"/>
<text text-anchor="middle" x="36" y="-104.1" font-family="Times,serif" font-size="14.00">0x0049_7</text>
</g>
<!-- 0x0049_6&#45;&gt;0x0049_7 -->
<g id="edge6" class="edge">
<title>0x0049_6&#45;&gt;0x0049_7</title>
<path fill="none" stroke="green" d="M36,-180.17C36,-168.02 36,-151.38 36,-137.27"/>
<polygon fill="green" stroke="green" points="39.5,-137.69 36,-127.69 32.5,-137.69 39.5,-137.69"/>
<text text-anchor="start" x="36" y="-150" font-family="Times,serif" font-size="14.00" fill="green"> </text>
<text text-anchor="start" x="39.5" y="-150" font-family="Courier New" font-size="10.00" fill="green">ADD(WSPRITE,WPARM)</text>
</g>
<!-- 0x0049_0 -->
<g id="node8" class="node">
<title>0x0049_0</title>
<polygon fill="none" stroke="black" points="0,-0.5 0,-36.5 72,-36.5 72,-0.5 0,-0.5"/>
<text text-anchor="middle" x="36" y="-14.3" font-family="Times,serif" font-size="14.00">0x0049_0</text>
</g>
<!-- 0x0049_7&#45;&gt;0x0049_0 -->
<g id="edge7" class="edge">
<title>0x0049_7&#45;&gt;0x0049_0</title>
<path fill="none" stroke="green" d="M36,-90.37C36,-78.22 36,-61.58 36,-47.47"/>
<polygon fill="green" stroke="green" points="39.5,-47.89 36,-37.89 32.5,-47.89 39.5,-47.89"/>
<text text-anchor="start" x="36" y="-60.2" font-family="Times,serif" font-size="14.00" fill="green"> </text>
<text text-anchor="start" x="39.5" y="-60.2" font-family="Courier New" font-size="10.00" fill="green">SHOW(WSPRITE,0)</text>
</g>
</g>
</svg>
