<?xml version="1.0" encoding="UTF-8" standalone="no"?>
<!DOCTYPE svg PUBLIC "-//W3C//DTD SVG 1.1//EN"
 "http://www.w3.org/Graphics/SVG/1.1/DTD/svg11.dtd">
<!-- Generated by graphviz version 7.1.0 (20230121.1956)
 -->
<!-- Title: Automaton Pages: 1 -->
<svg width="299pt" height="705pt"
 viewBox="0.00 0.00 299.00 705.00" xmlns="http://www.w3.org/2000/svg" xmlns:xlink="http://www.w3.org/1999/xlink">
<g id="graph0" class="graph" transform="scale(1 1) rotate(0) translate(4 701)">
<title>Automaton</title>
<polygon fill="white" stroke="none" points="-4,4 -4,-701 295,-701 295,4 -4,4"/>
<!-- filename -->
<g id="node1" class="node">
<title>filename</title>
<polygon fill="none" stroke="black" points="0,-644.5 0,-696.5 118,-696.5 118,-644.5 0,-644.5"/>
<polygon fill="none" stroke="black" points="11,-671.5 11,-689.5 107,-689.5 107,-671.5 11,-671.5"/>
<text text-anchor="start" x="41" y="-678.5" font-family="Courier New" font-weight="bold" font-size="10.00">0x0049</text>
<polygon fill="none" stroke="black" points="11,-651.5 11,-669.5 107,-669.5 107,-651.5 11,-651.5"/>
<text text-anchor="start" x="14" y="-657.5" font-family="Courier New" font-size="10.00" fill="brown">start state = 0</text>
<polygon fill="none" stroke="black" points="8,-648.5 8,-692.5 110,-692.5 110,-648.5 8,-648.5"/>
</g>
<!-- 1 -->
<g id="node2" class="node">
<title>1</title>
<polyline fill="none" stroke="darkred" points="156,-659.5 170,-659.5"/>
<text text-anchor="start" x="159" y="-666.9" font-family="Courier New" font-weight="bold" font-size="14.00">1</text>
<path fill="none" stroke="darkred" d="M159.67,-656.5C159.67,-656.5 166.33,-656.5 166.33,-656.5 169.67,-656.5 173,-659.83 173,-663.17 173,-663.17 173,-677.83 173,-677.83 173,-681.17 169.67,-684.5 166.33,-684.5 166.33,-684.5 159.67,-684.5 159.67,-684.5 156.33,-684.5 153,-681.17 153,-677.83 153,-677.83 153,-663.17 153,-663.17 153,-659.83 156.33,-656.5 159.67,-656.5"/>
</g>
<!-- 2 -->
<g id="node3" class="node">
<title>2</title>
<polyline fill="none" stroke="darkred" points="156,-559 170,-559"/>
<text text-anchor="start" x="159" y="-566.4" font-family="Courier New" font-weight="bold" font-size="14.00">2</text>
<path fill="none" stroke="darkred" d="M159.67,-556C159.67,-556 166.33,-556 166.33,-556 169.67,-556 173,-559.33 173,-562.67 173,-562.67 173,-577.33 173,-577.33 173,-580.67 169.67,-584 166.33,-584 166.33,-584 159.67,-584 159.67,-584 156.33,-584 153,-580.67 153,-577.33 153,-577.33 153,-562.67 153,-562.67 153,-559.33 156.33,-556 159.67,-556"/>
</g>
<!-- 1&#45;&gt;2 -->
<g id="edge1" class="edge">
<title>1&#45;&gt;2</title>
<path fill="none" stroke="black" d="M163,-652.79C163,-638.14 163,-616.55 163,-599.23"/>
<polygon fill="black" stroke="black" points="166.5,-599.3 163,-589.3 159.5,-599.3 166.5,-599.3"/>
<text text-anchor="start" x="167" y="-614" font-family="Courier New" font-weight="bold" font-size="10.00" fill="blue">ASSIGN(WSPRITE,10)</text>
</g>
<!-- 3 -->
<g id="node4" class="node">
<title>3</title>
<polyline fill="none" stroke="darkred" points="156,-467 170,-467"/>
<text text-anchor="start" x="159" y="-474.4" font-family="Courier New" font-weight="bold" font-size="14.00">3</text>
<path fill="none" stroke="darkred" d="M159.67,-464C159.67,-464 166.33,-464 166.33,-464 169.67,-464 173,-467.33 173,-470.67 173,-470.67 173,-485.33 173,-485.33 173,-488.67 169.67,-492 166.33,-492 166.33,-492 159.67,-492 159.67,-492 156.33,-492 153,-488.67 153,-485.33 153,-485.33 153,-470.67 153,-470.67 153,-467.33 156.33,-464 159.67,-464"/>
</g>
<!-- 2&#45;&gt;3 -->
<g id="edge2" class="edge">
<title>2&#45;&gt;3</title>
<path fill="none" stroke="black" d="M163,-552.07C163,-539.38 163,-521.71 163,-506.94"/>
<polygon fill="black" stroke="black" points="166.5,-507.37 163,-497.37 159.5,-507.37 166.5,-507.37"/>
<text text-anchor="start" x="167" y="-522" font-family="Courier New" font-weight="bold" font-size="10.00" fill="blue">MUL(WSPRITE,0x77)</text>
</g>
<!-- 4 -->
<g id="node5" class="node">
<title>4</title>
<polyline fill="none" stroke="darkred" points="156,-375 170,-375"/>
<text text-anchor="start" x="159" y="-382.4" font-family="Courier New" font-weight="bold" font-size="14.00">4</text>
<path fill="none" stroke="darkred" d="M159.67,-372C159.67,-372 166.33,-372 166.33,-372 169.67,-372 173,-375.33 173,-378.67 173,-378.67 173,-393.33 173,-393.33 173,-396.67 169.67,-400 166.33,-400 166.33,-400 159.67,-400 159.67,-400 156.33,-400 153,-396.67 153,-393.33 153,-393.33 153,-378.67 153,-378.67 153,-375.33 156.33,-372 159.67,-372"/>
</g>
<!-- 3&#45;&gt;4 -->
<g id="edge3" class="edge">
<title>3&#45;&gt;4</title>
<path fill="none" stroke="black" d="M163,-460.07C163,-447.38 163,-429.71 163,-414.94"/>
<polygon fill="black" stroke="black" points="166.5,-415.37 163,-405.37 159.5,-415.37 166.5,-415.37"/>
<text text-anchor="start" x="167" y="-430" font-family="Courier New" font-weight="bold" font-size="10.00" fill="blue">ASSIGN(WPARM,10)</text>
</g>
<!-- 5 -->
<g id="node6" class="node">
<title>5</title>
<polyline fill="none" stroke="darkred" points="156,-283 170,-283"/>
<text text-anchor="start" x="159" y="-290.4" font-family="Courier New" font-weight="bold" font-size="14.00">5</text>
<path fill="none" stroke="darkred" d="M159.67,-280C159.67,-280 166.33,-280 166.33,-280 169.67,-280 173,-283.33 173,-286.67 173,-286.67 173,-301.33 173,-301.33 173,-304.67 169.67,-308 166.33,-308 166.33,-308 159.67,-308 159.67,-308 156.33,-308 153,-304.67 153,-301.33 153,-301.33 153,-286.67 153,-286.67 153,-283.33 156.33,-280 159.67,-280"/>
</g>
<!-- 4&#45;&gt;5 -->
<g id="edge4" class="edge">
<title>4&#45;&gt;5</title>
<path fill="none" stroke="black" d="M163,-368.07C163,-355.38 163,-337.71 163,-322.94"/>
<polygon fill="black" stroke="black" points="166.5,-323.37 163,-313.37 159.5,-323.37 166.5,-323.37"/>
<text text-anchor="start" x="167" y="-338" font-family="Courier New" font-weight="bold" font-size="10.00" fill="blue">DIV(WSPRITE,WPARM)</text>
</g>
<!-- 6 -->
<g id="node7" class="node">
<title>6</title>
<polyline fill="none" stroke="darkred" points="156,-191 170,-191"/>
<text text-anchor="start" x="159" y="-198.4" font-family="Courier New" font-weight="bold" font-size="14.00">6</text>
<path fill="none" stroke="darkred" d="M159.67,-188C159.67,-188 166.33,-188 166.33,-188 169.67,-188 173,-191.33 173,-194.67 173,-194.67 173,-209.33 173,-209.33 173,-212.67 169.67,-216 166.33,-216 166.33,-216 159.67,-216 159.67,-216 156.33,-216 153,-212.67 153,-209.33 153,-209.33 153,-194.67 153,-194.67 153,-191.33 156.33,-188 159.67,-188"/>
</g>
<!-- 5&#45;&gt;6 -->
<g id="edge5" class="edge">
<title>5&#45;&gt;6</title>
<path fill="none" stroke="black" d="M163,-276.07C163,-263.38 163,-245.71 163,-230.94"/>
<polygon fill="black" stroke="black" points="166.5,-231.37 163,-221.37 159.5,-231.37 166.5,-231.37"/>
<text text-anchor="start" x="167" y="-246" font-family="Courier New" font-weight="bold" font-size="10.00" fill="blue">ASSIGN(WPARM,0x01c0)</text>
</g>
<!-- 7 -->
<g id="node8" class="node">
<title>7</title>
<polyline fill="none" stroke="darkred" points="156,-99 170,-99"/>
<text text-anchor="start" x="159" y="-106.4" font-family="Courier New" font-weight="bold" font-size="14.00">7</text>
<path fill="none" stroke="darkred" d="M159.67,-96C159.67,-96 166.33,-96 166.33,-96 169.67,-96 173,-99.33 173,-102.67 173,-102.67 173,-117.33 173,-117.33 173,-120.67 169.67,-124 166.33,-124 166.33,-124 159.67,-124 159.67,-124 156.33,-124 153,-120.67 153,-117.33 153,-117.33 153,-102.67 153,-102.67 153,-99.33 156.33,-96 159.67,-96"/>
</g>
<!-- 6&#45;&gt;7 -->
<g id="edge6" class="edge">
<title>6&#45;&gt;7</title>
<path fill="none" stroke="black" d="M163,-184.07C163,-171.38 163,-153.71 163,-138.94"/>
<polygon fill="black" stroke="black" points="166.5,-139.37 163,-129.37 159.5,-139.37 166.5,-139.37"/>
<text text-anchor="start" x="167" y="-154" font-family="Courier New" font-weight="bold" font-size="10.00" fill="blue">ADD(WSPRITE,WPARM)</text>
</g>
<!-- 0 -->
<g id="node9" class="node">
<title>0</title>
<ellipse fill="none" stroke="black" cx="163" cy="-18" rx="27" ry="18"/>
<text text-anchor="middle" x="163" y="-13.8" font-family="Courier New" font-size="14.00">0</text>
</g>
<!-- 7&#45;&gt;0 -->
<g id="edge7" class="edge">
<title>7&#45;&gt;0</title>
<path fill="none" stroke="black" d="M163,-92.07C163,-79.66 163,-62.5 163,-47.94"/>
<polygon fill="black" stroke="black" points="166.5,-47.98 163,-37.98 159.5,-47.98 166.5,-47.98"/>
<text text-anchor="start" x="167" y="-62" font-family="Courier New" font-weight="bold" font-size="10.00" fill="blue">SHOW(WSPRITE,0)</text>
</g>
</g>
</svg>
