<?xml version="1.0" encoding="UTF-8" standalone="no"?>
<!DOCTYPE svg PUBLIC "-//W3C//DTD SVG 1.1//EN"
 "http://www.w3.org/Graphics/SVG/1.1/DTD/svg11.dtd">
<!-- Generated by graphviz version 7.1.0 (20230121.1956)
 -->
<!-- Title: Automaton Pages: 1 -->
<svg width="278pt" height="245pt"
 viewBox="0.00 0.00 278.00 245.00" xmlns="http://www.w3.org/2000/svg" xmlns:xlink="http://www.w3.org/1999/xlink">
<g id="graph0" class="graph" transform="scale(1 1) rotate(0) translate(4 241)">
<title>Automaton</title>
<polygon fill="white" stroke="none" points="-4,4 -4,-241 274,-241 274,4 -4,4"/>
<!-- filename -->
<g id="node1" class="node">
<title>filename</title>
<polygon fill="none" stroke="black" points="0,-184.5 0,-236.5 118,-236.5 118,-184.5 0,-184.5"/>
<polygon fill="none" stroke="black" points="11,-211.5 11,-229.5 107,-229.5 107,-211.5 11,-211.5"/>
<text text-anchor="start" x="41" y="-218.5" font-family="Courier New" font-weight="bold" font-size="10.00">0x0037</text>
<polygon fill="none" stroke="black" points="11,-191.5 11,-209.5 107,-209.5 107,-191.5 11,-191.5"/>
<text text-anchor="start" x="14" y="-197.5" font-family="Courier New" font-size="10.00" fill="brown">start state = 0</text>
<polygon fill="none" stroke="black" points="8,-188.5 8,-232.5 110,-232.5 110,-188.5 8,-188.5"/>
</g>
<!-- 0 -->
<g id="node2" class="node">
<title>0</title>
<polyline fill="none" stroke="darkred" points="156,-199.5 170,-199.5"/>
<text text-anchor="start" x="159" y="-206.9" font-family="Courier New" font-weight="bold" font-size="14.00">0</text>
<path fill="none" stroke="darkred" d="M159.67,-196.5C159.67,-196.5 166.33,-196.5 166.33,-196.5 169.67,-196.5 173,-199.83 173,-203.17 173,-203.17 173,-217.83 173,-217.83 173,-221.17 169.67,-224.5 166.33,-224.5 166.33,-224.5 159.67,-224.5 159.67,-224.5 156.33,-224.5 153,-221.17 153,-217.83 153,-217.83 153,-203.17 153,-203.17 153,-199.83 156.33,-196.5 159.67,-196.5"/>
</g>
<!-- 1 -->
<g id="node3" class="node">
<title>1</title>
<polyline fill="none" stroke="darkred" points="155,-99 169,-99"/>
<text text-anchor="start" x="158" y="-106.4" font-family="Courier New" font-weight="bold" font-size="14.00">1</text>
<path fill="none" stroke="darkred" d="M158.67,-96C158.67,-96 165.33,-96 165.33,-96 168.67,-96 172,-99.33 172,-102.67 172,-102.67 172,-117.33 172,-117.33 172,-120.67 168.67,-124 165.33,-124 165.33,-124 158.67,-124 158.67,-124 155.33,-124 152,-120.67 152,-117.33 152,-117.33 152,-102.67 152,-102.67 152,-99.33 155.33,-96 158.67,-96"/>
</g>
<!-- 0&#45;&gt;1 -->
<g id="edge1" class="edge">
<title>0&#45;&gt;1</title>
<path fill="none" stroke="black" d="M140.93,-192.82C133.09,-185.55 125.17,-176.32 121,-166 117.67,-157.76 117.28,-154.07 121,-146 122.66,-142.41 124.89,-139.05 127.45,-135.94"/>
<polygon fill="black" stroke="black" points="129.81,-138.53 134.32,-128.95 124.81,-133.63 129.81,-138.53"/>
<text text-anchor="start" x="125" y="-154" font-family="Courier New" font-weight="bold" font-size="10.00" fill="orange">WAIT(0,0)</text>
</g>
<!-- 1&#45;&gt;0 -->
<g id="edge3" class="edge">
<title>1&#45;&gt;0</title>
<path fill="none" stroke="black" d="M174.67,-127.95C178.06,-133.43 181.26,-139.72 183,-146 186.34,-158.07 183.27,-171.3 178.62,-182.55"/>
<polygon fill="black" stroke="black" points="175.61,-180.72 174.48,-191.25 181.93,-183.72 175.61,-180.72"/>
<text text-anchor="start" x="188" y="-154" font-family="Courier New" font-weight="bold" font-size="10.00" fill="blue">GTEi(0x70,10)</text>
</g>
<!-- 2 -->
<g id="node4" class="node">
<title>2</title>
<ellipse fill="none" stroke="black" cx="162" cy="-18" rx="27" ry="18"/>
<text text-anchor="middle" x="162" y="-13.8" font-family="Courier New" font-size="14.00">2</text>
</g>
<!-- 1&#45;&gt;2 -->
<g id="edge2" class="edge">
<title>1&#45;&gt;2</title>
<path fill="none" stroke="black" d="M162,-92.07C162,-79.66 162,-62.5 162,-47.94"/>
<polygon fill="black" stroke="black" points="165.5,-47.98 162,-37.98 158.5,-47.98 165.5,-47.98"/>
<text text-anchor="start" x="166" y="-62" font-family="Courier New" font-weight="bold" font-size="10.00" fill="blue">ADDI(0x70,1)</text>
</g>
</g>
</svg>
