<?xml version="1.0" encoding="UTF-8" standalone="no"?>
<!DOCTYPE svg PUBLIC "-//W3C//DTD SVG 1.1//EN"
 "http://www.w3.org/Graphics/SVG/1.1/DTD/svg11.dtd">
<!-- Generated by graphviz version 7.1.0 (20230121.1956)
 -->
<!-- Title: Automaton Pages: 1 -->
<svg width="695pt" height="361pt"
 viewBox="0.00 0.00 695.26 361.00" xmlns="http://www.w3.org/2000/svg" xmlns:xlink="http://www.w3.org/1999/xlink">
<g id="graph0" class="graph" transform="scale(1 1) rotate(0) translate(4 357)">
<title>Automaton</title>
<polygon fill="white" stroke="none" points="-4,4 -4,-357 691.26,-357 691.26,4 -4,4"/>
<!-- filename -->
<g id="node1" class="node">
<title>filename</title>
<polygon fill="none" stroke="black" points="36.26,-288.5 36.26,-340.5 184.26,-340.5 184.26,-288.5 36.26,-288.5"/>
<polygon fill="none" stroke="black" points="47.26,-315.5 47.26,-333.5 173.26,-333.5 173.26,-315.5 47.26,-315.5"/>
<text text-anchor="start" x="50.26" y="-322.5" font-family="Courier New" font-weight="bold" font-size="10.00">0x0024::M_BTN_1phase</text>
<polygon fill="none" stroke="black" points="47.26,-295.5 47.26,-313.5 173.26,-313.5 173.26,-295.5 47.26,-295.5"/>
<text text-anchor="start" x="65.25" y="-301.5" font-family="Courier New" font-size="10.00" fill="brown">start state = 0</text>
<polygon fill="none" stroke="black" points="44.26,-292.5 44.26,-336.5 176.26,-336.5 176.26,-292.5 44.26,-292.5"/>
</g>
<!-- 0 -->
<g id="node2" class="node">
<title>0</title>
<polyline fill="none" stroke="darkred" stroke-width="3" points="221.76,-303 236.76,-303"/>
<text text-anchor="start" x="225.26" y="-310.9" font-family="Courier New" font-weight="bold" font-size="14.00">0</text>
<path fill="none" stroke="darkred" stroke-width="3" d="M225.09,-298C225.09,-298 233.43,-298 233.43,-298 237.59,-298 241.76,-302.17 241.76,-306.33 241.76,-306.33 241.76,-322.67 241.76,-322.67 241.76,-326.83 237.59,-331 233.43,-331 233.43,-331 225.09,-331 225.09,-331 220.93,-331 216.76,-326.83 216.76,-322.67 216.76,-322.67 216.76,-306.33 216.76,-306.33 216.76,-302.17 220.93,-298 225.09,-298"/>
</g>
<!-- 1 -->
<g id="node3" class="node">
<title>1</title>
<polyline fill="none" stroke="darkred" points="222.26,-191 236.26,-191"/>
<text text-anchor="start" x="225.26" y="-198.4" font-family="Courier New" font-weight="bold" font-size="14.00">1</text>
<path fill="none" stroke="darkred" d="M225.93,-188C225.93,-188 232.59,-188 232.59,-188 235.93,-188 239.26,-191.33 239.26,-194.67 239.26,-194.67 239.26,-209.33 239.26,-209.33 239.26,-212.67 235.93,-216 232.59,-216 232.59,-216 225.93,-216 225.93,-216 222.59,-216 219.26,-212.67 219.26,-209.33 219.26,-209.33 219.26,-194.67 219.26,-194.67 219.26,-191.33 222.59,-188 225.93,-188"/>
</g>
<!-- 0&#45;&gt;1 -->
<g id="edge1" class="edge">
<title>0&#45;&gt;1</title>
<path fill="none" stroke="black" d="M229.26,-292.72C229.26,-275.3 229.26,-250.27 229.26,-231.08"/>
<polygon fill="black" stroke="black" points="232.76,-231.23 229.26,-221.23 225.76,-231.23 232.76,-231.23"/>
<text text-anchor="start" x="233.26" y="-246" font-family="Courier New" font-weight="bold" font-size="10.00" fill="orange">CLICK(0,0)</text>
</g>
<!-- 10 -->
<g id="node4" class="node">
<title>10</title>
<polyline fill="none" stroke="darkred" points="523.26,-191 545.26,-191"/>
<text text-anchor="start" x="526.26" y="-198.4" font-family="Courier New" font-weight="bold" font-size="14.00">10</text>
<path fill="none" stroke="darkred" d="M529.59,-188C529.59,-188 538.93,-188 538.93,-188 543.59,-188 548.26,-192.67 548.26,-197.33 548.26,-197.33 548.26,-206.67 548.26,-206.67 548.26,-211.33 543.59,-216 538.93,-216 538.93,-216 529.59,-216 529.59,-216 524.93,-216 520.26,-211.33 520.26,-206.67 520.26,-206.67 520.26,-197.33 520.26,-197.33 520.26,-192.67 524.93,-188 529.59,-188"/>
</g>
<!-- 0&#45;&gt;10 -->
<g id="edge2" class="edge">
<title>0&#45;&gt;10</title>
<path fill="none" stroke="black" d="M244.4,-292.74C250.19,-286.32 257.32,-279.9 265.26,-276 331.45,-243.43 359.73,-279.63 430.26,-258 454.54,-250.55 479.76,-237.37 499.29,-225.77"/>
<polygon fill="black" stroke="black" points="500.93,-228.87 507.66,-220.68 497.29,-222.89 500.93,-228.87"/>
<text text-anchor="start" x="478.26" y="-246" font-family="Courier New" font-weight="bold" font-size="10.00" fill="orange">DRAGFOCUS(0,TRUE)</text>
</g>
<!-- 20 -->
<g id="node5" class="node">
<title>20</title>
<polyline fill="none" stroke="darkred" points="133.26,-7 155.26,-7"/>
<text text-anchor="start" x="136.26" y="-14.4" font-family="Courier New" font-weight="bold" font-size="14.00">20</text>
<path fill="none" stroke="darkred" d="M139.59,-4C139.59,-4 148.93,-4 148.93,-4 153.59,-4 158.26,-8.67 158.26,-13.33 158.26,-13.33 158.26,-22.67 158.26,-22.67 158.26,-27.33 153.59,-32 148.93,-32 148.93,-32 139.59,-32 139.59,-32 134.93,-32 130.26,-27.33 130.26,-22.67 130.26,-22.67 130.26,-13.33 130.26,-13.33 130.26,-8.67 134.93,-4 139.59,-4"/>
</g>
<!-- 0&#45;&gt;20 -->
<g id="edge3" class="edge">
<title>0&#45;&gt;20</title>
<path fill="none" stroke="black" d="M212.99,-292.71C207.31,-286.6 200.53,-280.38 193.26,-276 168.31,-260.98 156.38,-270.88 130.26,-258 68.72,-227.64 37.11,-227.3 6.26,-166 -22.02,-109.81 57.42,-60.06 107.27,-35.41"/>
<polygon fill="black" stroke="black" points="108.55,-38.68 116.05,-31.19 105.52,-32.37 108.55,-38.68"/>
<text text-anchor="start" x="10.26" y="-154" font-family="Courier New" font-weight="bold" font-size="10.00" fill="orange">DRAGFOCUS(0,FALSE)</text>
</g>
<!-- 2 -->
<g id="node6" class="node">
<title>2</title>
<polyline fill="none" stroke="darkred" points="207.26,-99 221.26,-99"/>
<text text-anchor="start" x="210.26" y="-106.4" font-family="Courier New" font-weight="bold" font-size="14.00">2</text>
<path fill="none" stroke="darkred" d="M210.93,-96C210.93,-96 217.59,-96 217.59,-96 220.93,-96 224.26,-99.33 224.26,-102.67 224.26,-102.67 224.26,-117.33 224.26,-117.33 224.26,-120.67 220.93,-124 217.59,-124 217.59,-124 210.93,-124 210.93,-124 207.59,-124 204.26,-120.67 204.26,-117.33 204.26,-117.33 204.26,-102.67 204.26,-102.67 204.26,-99.33 207.59,-96 210.93,-96"/>
</g>
<!-- 1&#45;&gt;2 -->
<g id="edge4" class="edge">
<title>1&#45;&gt;2</title>
<path fill="none" stroke="black" d="M226.44,-184.07C224.32,-171.38 221.38,-153.71 218.92,-138.94"/>
<polygon fill="black" stroke="black" points="222.41,-138.63 217.32,-129.35 215.51,-139.78 222.41,-138.63"/>
<text text-anchor="start" x="227.26" y="-154" font-family="Courier New" font-weight="bold" font-size="10.00" fill="blue">PLAYWAVE(0,SOUND_BTNPRESS)</text>
</g>
<!-- 11 -->
<g id="node7" class="node">
<title>11</title>
<polyline fill="none" stroke="darkred" points="523.26,-99 545.26,-99"/>
<text text-anchor="start" x="526.26" y="-106.4" font-family="Courier New" font-weight="bold" font-size="14.00">11</text>
<path fill="none" stroke="darkred" d="M529.59,-96C529.59,-96 538.93,-96 538.93,-96 543.59,-96 548.26,-100.67 548.26,-105.33 548.26,-105.33 548.26,-114.67 548.26,-114.67 548.26,-119.33 543.59,-124 538.93,-124 538.93,-124 529.59,-124 529.59,-124 524.93,-124 520.26,-119.33 520.26,-114.67 520.26,-114.67 520.26,-105.33 520.26,-105.33 520.26,-100.67 524.93,-96 529.59,-96"/>
</g>
<!-- 10&#45;&gt;11 -->
<g id="edge5" class="edge">
<title>10&#45;&gt;11</title>
<path fill="none" stroke="black" d="M560.88,-184.13C566.69,-179.06 572.05,-172.97 575.26,-166 578.98,-157.93 578.98,-154.07 575.26,-146 573.6,-142.41 571.38,-139.05 568.81,-135.94"/>
<polygon fill="black" stroke="black" points="571.45,-133.63 561.94,-128.95 566.45,-138.53 571.45,-133.63"/>
<text text-anchor="start" x="581.26" y="-154" font-family="Courier New" font-weight="bold" font-size="10.00" fill="blue">MOV(WSPRITE,WIP2)</text>
</g>
<!-- 20&#45;&gt;0 -->
<g id="edge9" class="edge">
<title>20&#45;&gt;0</title>
<path fill="none" stroke="black" d="M143.43,-35.67C142.51,-63.31 142.57,-120.12 155.26,-166 167.15,-208.98 191.94,-254.22 209.54,-283.09"/>
<polygon fill="black" stroke="black" points="206.39,-284.65 214.64,-291.3 212.34,-280.96 206.39,-284.65"/>
<text text-anchor="start" x="159.26" y="-154" font-family="Courier New" font-weight="bold" font-size="10.00" fill="blue">SHOW(0,0)</text>
</g>
<!-- 2&#45;&gt;20 -->
<g id="edge8" class="edge">
<title>2&#45;&gt;20</title>
<path fill="none" stroke="black" d="M201.09,-92.07C190.73,-78.75 176.11,-59.95 164.3,-44.76"/>
<polygon fill="black" stroke="black" points="167.2,-42.79 158.3,-37.05 161.67,-47.09 167.2,-42.79"/>
<text text-anchor="start" x="190.26" y="-62" font-family="Courier New" font-weight="bold" font-size="10.00" fill="blue">LOADVIEW(WIP1,)</text>
</g>
<!-- 12 -->
<g id="node8" class="node">
<title>12</title>
<polyline fill="none" stroke="darkred" points="432.26,-7 454.26,-7"/>
<text text-anchor="start" x="435.26" y="-14.4" font-family="Courier New" font-weight="bold" font-size="14.00">12</text>
<path fill="none" stroke="darkred" d="M438.59,-4C438.59,-4 447.93,-4 447.93,-4 452.59,-4 457.26,-8.67 457.26,-13.33 457.26,-13.33 457.26,-22.67 457.26,-22.67 457.26,-27.33 452.59,-32 447.93,-32 447.93,-32 438.59,-32 438.59,-32 433.93,-32 429.26,-27.33 429.26,-22.67 429.26,-22.67 429.26,-13.33 429.26,-13.33 429.26,-8.67 433.93,-4 438.59,-4"/>
</g>
<!-- 11&#45;&gt;12 -->
<g id="edge6" class="edge">
<title>11&#45;&gt;12</title>
<path fill="none" stroke="black" d="M517.14,-92.07C503.42,-78.5 483.95,-59.24 468.45,-43.91"/>
<polygon fill="black" stroke="black" points="470.95,-41.46 461.38,-36.92 466.03,-46.44 470.95,-41.46"/>
<text text-anchor="start" x="500.26" y="-62" font-family="Courier New" font-weight="bold" font-size="10.00" fill="blue">SHOW(WSPRITE,)</text>
</g>
<!-- 12&#45;&gt;0 -->
<g id="edge7" class="edge">
<title>12&#45;&gt;0</title>
<path fill="none" stroke="black" d="M439.8,-35.92C433.44,-64.4 418.03,-123.04 391.26,-166 361.01,-214.55 347.48,-224.3 301.26,-258 286.81,-268.54 279.67,-265.39 265.26,-276 261.68,-278.63 258.15,-281.64 254.78,-284.78"/>
<polygon fill="black" stroke="black" points="252.49,-282.12 247.86,-291.65 257.42,-287.09 252.49,-282.12"/>
<text text-anchor="start" x="406.26" y="-154" font-family="Courier New" font-weight="bold" font-size="10.00" fill="blue">PLAYWAVE(0,SOUND_BTNDRAG)</text>
</g>
<!-- status -->
<g id="node9" class="node">
<title>status</title>
<polygon fill="none" stroke="black" points="274.26,-276.5 274.26,-352.5 572.26,-352.5 572.26,-276.5 274.26,-276.5"/>
<polygon fill="none" stroke="black" points="285.26,-327.5 285.26,-345.5 561.26,-345.5 561.26,-327.5 285.26,-327.5"/>
<text text-anchor="start" x="405.26" y="-334.5" font-family="Courier New" font-weight="bold" font-size="10.00">0x0024</text>
<polygon fill="none" stroke="black" points="285.26,-283.5 285.26,-325.5 561.26,-325.5 561.26,-283.5 285.26,-283.5"/>
<text text-anchor="start" x="288.26" y="-313.5" font-family="Courier New" font-size="10.00" fill="green">VIEW::IDV_TOPMENU @pos(left:2216, top:219)</text>
<text text-anchor="start" x="288.26" y="-301.5" font-family="Courier New" font-size="10.00" fill="green">0x0024::M_BTN_1phase(&#39;0x0026&#39;,&#39;0x0024&#39;,&#39;&#39;,&#39;&#39;)</text>
<text text-anchor="start" x="288.26" y="-289.5" font-family="Courier New" font-size="10.00" fill="green">{state:&#39;0&#39;:</text>
<polygon fill="none" stroke="black" points="282.26,-280.5 282.26,-348.5 564.26,-348.5 564.26,-280.5 282.26,-280.5"/>
</g>
</g>
</svg>
