<?xml version="1.0" encoding="UTF-8" standalone="no"?>
<!DOCTYPE svg PUBLIC "-//W3C//DTD SVG 1.1//EN"
 "http://www.w3.org/Graphics/SVG/1.1/DTD/svg11.dtd">
<!-- Generated by graphviz version 7.1.0 (20230121.1956)
 -->
<!-- Pages: 1 -->
<svg width="160pt" height="228pt"
 viewBox="0.00 0.00 159.79 228.00" xmlns="http://www.w3.org/2000/svg" xmlns:xlink="http://www.w3.org/1999/xlink">
<g id="graph0" class="graph" transform="scale(1 1) rotate(0) translate(4 224)">
<polygon fill="white" stroke="none" points="-4,4 -4,-224 155.79,-224 155.79,4 -4,4"/>
<!-- 0 -->
<g id="node1" class="node">
<title>0</title>
<ellipse fill="none" stroke="black" cx="43.79" cy="-202" rx="27" ry="18"/>
<text text-anchor="middle" x="43.79" y="-197.8" font-family="Times,serif" font-size="14.00">0</text>
</g>
<!-- 1 -->
<g id="node2" class="node">
<title>1</title>
<ellipse fill="none" stroke="black" cx="43.79" cy="-110" rx="27" ry="18"/>
<text text-anchor="middle" x="43.79" y="-105.8" font-family="Times,serif" font-size="14.00">1</text>
</g>
<!-- 0&#45;&gt;1 -->
<g id="edge1" class="edge">
<title>0&#45;&gt;1</title>
<path fill="none" stroke="black" d="M24.07,-189.58C15.88,-183.69 7.26,-175.69 2.79,-166 -0.93,-157.93 -0.93,-154.07 2.79,-146 5.65,-139.79 10.22,-134.28 15.28,-129.57"/>
<polygon fill="black" stroke="black" points="17.35,-132.4 22.89,-123.37 12.93,-126.97 17.35,-132.4"/>
<text text-anchor="start" x="6.79" y="-154" font-family="Courier New" font-weight="bold" font-size="10.00" fill="orange">WAIT(0,0)</text>
</g>
<!-- 1&#45;&gt;0 -->
<g id="edge3" class="edge">
<title>1&#45;&gt;0</title>
<path fill="none" stroke="black" d="M55.57,-126.54C59.28,-132.34 62.9,-139.17 64.79,-146 67.16,-154.57 67.16,-157.43 64.79,-166 63.91,-169.2 62.64,-172.4 61.16,-175.5"/>
<polygon fill="black" stroke="black" points="58.16,-173.7 56.32,-184.14 64.26,-177.13 58.16,-173.7"/>
<text text-anchor="start" x="69.79" y="-154" font-family="Courier New" font-weight="bold" font-size="10.00" fill="blue">GTEi(0x73,23)</text>
</g>
<!-- 2 -->
<g id="node3" class="node">
<title>2</title>
<ellipse fill="none" stroke="black" cx="43.79" cy="-18" rx="27" ry="18"/>
<text text-anchor="middle" x="43.79" y="-13.8" font-family="Times,serif" font-size="14.00">2</text>
</g>
<!-- 1&#45;&gt;2 -->
<g id="edge2" class="edge">
<title>1&#45;&gt;2</title>
<path fill="none" stroke="black" d="M43.79,-91.65C43.79,-79.2 43.79,-62.14 43.79,-47.68"/>
<polygon fill="black" stroke="black" points="47.29,-47.81 43.79,-37.81 40.29,-47.81 47.29,-47.81"/>
<text text-anchor="start" x="47.79" y="-62" font-family="Courier New" font-weight="bold" font-size="10.00" fill="blue">ADDI(0x73,1)</text>
</g>
</g>
</svg>
