<?xml version="1.0" encoding="UTF-8" standalone="no"?>
<!DOCTYPE svg PUBLIC "-//W3C//DTD SVG 1.1//EN"
 "http://www.w3.org/Graphics/SVG/1.1/DTD/svg11.dtd">
<!-- Generated by graphviz version 7.1.0 (20230121.1956)
 -->
<!-- Title: Automaton Pages: 1 -->
<svg width="609pt" height="429pt"
 viewBox="0.00 0.00 608.62 429.00" xmlns="http://www.w3.org/2000/svg" xmlns:xlink="http://www.w3.org/1999/xlink">
<g id="graph0" class="graph" transform="scale(1 1) rotate(0) translate(4 425)">
<title>Automaton</title>
<polygon fill="white" stroke="none" points="-4,4 -4,-425 604.62,-425 604.62,4 -4,4"/>
<!-- filename -->
<g id="node1" class="node">
<title>filename</title>
<polygon fill="none" stroke="black" points="56.62,-368.5 56.62,-420.5 174.62,-420.5 174.62,-368.5 56.62,-368.5"/>
<polygon fill="none" stroke="black" points="67.62,-395.5 67.62,-413.5 163.62,-413.5 163.62,-395.5 67.62,-395.5"/>
<text text-anchor="start" x="97.62" y="-402.5" font-family="Courier New" font-weight="bold" font-size="10.00">0x0030</text>
<polygon fill="none" stroke="black" points="67.62,-375.5 67.62,-393.5 163.62,-393.5 163.62,-375.5 67.62,-375.5"/>
<text text-anchor="start" x="70.62" y="-381.5" font-family="Courier New" font-size="10.00" fill="brown">start state = 0</text>
<polygon fill="none" stroke="black" points="64.62,-372.5 64.62,-416.5 166.62,-416.5 166.62,-372.5 64.62,-372.5"/>
</g>
<!-- 0 -->
<g id="node2" class="node">
<title>0</title>
<polyline fill="none" stroke="darkred" points="212.62,-383.5 226.62,-383.5"/>
<text text-anchor="start" x="215.62" y="-390.9" font-family="Courier New" font-weight="bold" font-size="14.00">0</text>
<path fill="none" stroke="darkred" d="M216.29,-380.5C216.29,-380.5 222.96,-380.5 222.96,-380.5 226.29,-380.5 229.62,-383.83 229.62,-387.17 229.62,-387.17 229.62,-401.83 229.62,-401.83 229.62,-405.17 226.29,-408.5 222.96,-408.5 222.96,-408.5 216.29,-408.5 216.29,-408.5 212.96,-408.5 209.62,-405.17 209.62,-401.83 209.62,-401.83 209.62,-387.17 209.62,-387.17 209.62,-383.83 212.96,-380.5 216.29,-380.5"/>
</g>
<!-- 1 -->
<g id="node3" class="node">
<title>1</title>
<polyline fill="none" stroke="darkred" points="170.62,-283 184.62,-283"/>
<text text-anchor="start" x="173.62" y="-290.4" font-family="Courier New" font-weight="bold" font-size="14.00">1</text>
<path fill="none" stroke="darkred" d="M174.29,-280C174.29,-280 180.96,-280 180.96,-280 184.29,-280 187.62,-283.33 187.62,-286.67 187.62,-286.67 187.62,-301.33 187.62,-301.33 187.62,-304.67 184.29,-308 180.96,-308 180.96,-308 174.29,-308 174.29,-308 170.96,-308 167.62,-304.67 167.62,-301.33 167.62,-301.33 167.62,-286.67 167.62,-286.67 167.62,-283.33 170.96,-280 174.29,-280"/>
</g>
<!-- 0&#45;&gt;1 -->
<g id="edge1" class="edge">
<title>0&#45;&gt;1</title>
<path fill="none" stroke="black" d="M199.72,-376.71C194.74,-373.29 189.22,-370.1 183.62,-368 147.03,-354.25 34.81,-379.02 8.62,-350 -30.14,-307.05 78.54,-297.51 139.47,-295.48"/>
<polygon fill="black" stroke="black" points="139.55,-298.98 149.45,-295.21 139.36,-291.98 139.55,-298.98"/>
<text text-anchor="start" x="12.62" y="-338" font-family="Courier New" font-weight="bold" font-size="10.00" fill="orange">WAIT(0,0)</text>
</g>
<!-- 0&#45;&gt;1 -->
<g id="edge2" class="edge">
<title>0&#45;&gt;1</title>
<path fill="none" stroke="black" d="M198.8,-376.56C194.03,-373.32 188.83,-370.24 183.62,-368 146.16,-351.86 119.49,-381.55 93.62,-350 76.67,-329.32 110.2,-313.68 139.79,-304.46"/>
<polygon fill="black" stroke="black" points="140.76,-307.82 149.38,-301.66 138.8,-301.1 140.76,-307.82"/>
<text text-anchor="start" x="97.62" y="-338" font-family="Courier New" font-weight="bold" font-size="10.00" fill="orange">WAIT(0,0)</text>
</g>
<!-- 0&#45;&gt;1 -->
<g id="edge3" class="edge">
<title>0&#45;&gt;1</title>
<path fill="none" stroke="black" d="M198.17,-376.69C190.52,-369.4 182.78,-360.19 178.62,-350 175.25,-341.73 174.21,-332.17 174.25,-323.35"/>
<polygon fill="black" stroke="black" points="177.73,-323.68 174.77,-313.51 170.74,-323.31 177.73,-323.68"/>
<text text-anchor="start" x="182.62" y="-338" font-family="Courier New" font-weight="bold" font-size="10.00" fill="orange">WAIT(0,0)</text>
</g>
<!-- 0&#45;&gt;1 -->
<g id="edge4" class="edge">
<title>0&#45;&gt;1</title>
<path fill="none" stroke="black" d="M232.51,-376.77C241.07,-363.47 249.28,-344.71 240.62,-330 234.72,-319.97 224.79,-312.61 214.54,-307.3"/>
<polygon fill="black" stroke="black" points="216.25,-304.23 205.7,-303.28 213.36,-310.61 216.25,-304.23"/>
<text text-anchor="start" x="247.62" y="-338" font-family="Courier New" font-weight="bold" font-size="10.00" fill="orange">WAIT(0,0)</text>
</g>
<!-- 1&#45;&gt;0 -->
<g id="edge5" class="edge">
<title>1&#45;&gt;0</title>
<path fill="none" stroke="black" d="M204.51,-298.27C239.28,-303.12 296.9,-313.46 309.62,-330 328.06,-353.97 289.39,-372.55 257.12,-383.26"/>
<polygon fill="black" stroke="black" points="256.45,-379.8 247.95,-386.13 258.54,-386.48 256.45,-379.8"/>
<text text-anchor="start" x="317.62" y="-338" font-family="Courier New" font-weight="bold" font-size="10.00" fill="blue">LTEi(0x72,0)</text>
</g>
<!-- 2 -->
<g id="node4" class="node">
<title>2</title>
<polyline fill="none" stroke="darkred" points="170.62,-191 184.62,-191"/>
<text text-anchor="start" x="173.62" y="-198.4" font-family="Courier New" font-weight="bold" font-size="14.00">2</text>
<path fill="none" stroke="darkred" d="M174.29,-188C174.29,-188 180.96,-188 180.96,-188 184.29,-188 187.62,-191.33 187.62,-194.67 187.62,-194.67 187.62,-209.33 187.62,-209.33 187.62,-212.67 184.29,-216 180.96,-216 180.96,-216 174.29,-216 174.29,-216 170.96,-216 167.62,-212.67 167.62,-209.33 167.62,-209.33 167.62,-194.67 167.62,-194.67 167.62,-191.33 170.96,-188 174.29,-188"/>
</g>
<!-- 1&#45;&gt;2 -->
<g id="edge6" class="edge">
<title>1&#45;&gt;2</title>
<path fill="none" stroke="black" d="M177.62,-276.07C177.62,-263.38 177.62,-245.71 177.62,-230.94"/>
<polygon fill="black" stroke="black" points="181.12,-231.37 177.62,-221.37 174.12,-231.37 181.12,-231.37"/>
<text text-anchor="start" x="181.62" y="-246" font-family="Courier New" font-weight="bold" font-size="10.00" fill="blue">SUBI(0x72,1)</text>
</g>
<!-- 3 -->
<g id="node5" class="node">
<title>3</title>
<polyline fill="none" stroke="darkred" points="170.62,-99 184.62,-99"/>
<text text-anchor="start" x="173.62" y="-106.4" font-family="Courier New" font-weight="bold" font-size="14.00">3</text>
<path fill="none" stroke="darkred" d="M174.29,-96C174.29,-96 180.96,-96 180.96,-96 184.29,-96 187.62,-99.33 187.62,-102.67 187.62,-102.67 187.62,-117.33 187.62,-117.33 187.62,-120.67 184.29,-124 180.96,-124 180.96,-124 174.29,-124 174.29,-124 170.96,-124 167.62,-120.67 167.62,-117.33 167.62,-117.33 167.62,-102.67 167.62,-102.67 167.62,-99.33 170.96,-96 174.29,-96"/>
</g>
<!-- 2&#45;&gt;3 -->
<g id="edge7" class="edge">
<title>2&#45;&gt;3</title>
<path fill="none" stroke="black" d="M177.62,-184.07C177.62,-171.38 177.62,-153.71 177.62,-138.94"/>
<polygon fill="black" stroke="black" points="181.12,-139.37 177.62,-129.37 174.12,-139.37 181.12,-139.37"/>
<text text-anchor="start" x="181.62" y="-154" font-family="Courier New" font-weight="bold" font-size="10.00" fill="blue">PLAYWAVE(0,SOUND_HURT)</text>
</g>
<!-- 4 -->
<g id="node6" class="node">
<title>4</title>
<polyline fill="none" stroke="darkred" points="262.62,-7 276.62,-7"/>
<text text-anchor="start" x="265.62" y="-14.4" font-family="Courier New" font-weight="bold" font-size="14.00">4</text>
<path fill="none" stroke="darkred" d="M266.29,-4C266.29,-4 272.96,-4 272.96,-4 276.29,-4 279.62,-7.33 279.62,-10.67 279.62,-10.67 279.62,-25.33 279.62,-25.33 279.62,-28.67 276.29,-32 272.96,-32 272.96,-32 266.29,-32 266.29,-32 262.96,-32 259.62,-28.67 259.62,-25.33 259.62,-25.33 259.62,-10.67 259.62,-10.67 259.62,-7.33 262.96,-4 266.29,-4"/>
</g>
<!-- 3&#45;&gt;4 -->
<g id="edge8" class="edge">
<title>3&#45;&gt;4</title>
<path fill="none" stroke="black" d="M168.46,-92.17C163.46,-80.47 159.73,-65.06 167.62,-54 182.08,-33.76 209,-25.1 231.55,-21.45"/>
<polygon fill="black" stroke="black" points="231.9,-24.94 241.36,-20.17 230.99,-18 231.9,-24.94"/>
<text text-anchor="start" x="171.62" y="-62" font-family="Courier New" font-weight="bold" font-size="10.00" fill="blue">GTEi(0x72,1)</text>
</g>
<!-- 3&#45;&gt;4 -->
<g id="edge9" class="edge">
<title>3&#45;&gt;4</title>
<path fill="none" stroke="black" d="M204.48,-100.84C218.89,-95.27 236.03,-86.6 247.62,-74 254.68,-66.33 259.6,-56.11 262.96,-46.57"/>
<polygon fill="black" stroke="black" points="266.22,-47.9 265.79,-37.31 259.52,-45.85 266.22,-47.9"/>
<text text-anchor="start" x="262.62" y="-62" font-family="Courier New" font-weight="bold" font-size="10.00" fill="blue">PLAYWAVE(0,SOUND_THUNDER)</text>
</g>
<!-- 4&#45;&gt;0 -->
<g id="edge10" class="edge">
<title>4&#45;&gt;0</title>
<path fill="none" stroke="black" d="M296.38,-18.1C329.41,-18.42 385.49,-23.86 420.62,-54 440.61,-71.14 442.62,-82.67 442.62,-109 442.62,-295 442.62,-295 442.62,-295 442.62,-374.89 321.39,-390.52 257.7,-393.22"/>
<polygon fill="black" stroke="black" points="257.92,-389.71 248.04,-393.53 258.14,-396.71 257.92,-389.71"/>
<text text-anchor="start" x="446.62" y="-200" font-family="Courier New" font-weight="bold" font-size="10.00" fill="blue">SIGNALi(SIG_SUB,SID_AURA)</text>
</g>
</g>
</svg>
