<?xml version="1.0" encoding="UTF-8" standalone="no"?>
<!DOCTYPE svg PUBLIC "-//W3C//DTD SVG 1.1//EN"
 "http://www.w3.org/Graphics/SVG/1.1/DTD/svg11.dtd">
<!-- Generated by graphviz version 7.1.0 (20230121.1956)
 -->
<!-- Title: Automaton Pages: 1 -->
<svg width="446pt" height="429pt"
 viewBox="0.00 0.00 445.57 429.00" xmlns="http://www.w3.org/2000/svg" xmlns:xlink="http://www.w3.org/1999/xlink">
<g id="graph0" class="graph" transform="scale(1 1) rotate(0) translate(4 425)">
<title>Automaton</title>
<polygon fill="white" stroke="none" points="-4,4 -4,-425 441.57,-425 441.57,4 -4,4"/>
<!-- filename -->
<g id="node1" class="node">
<title>filename</title>
<polygon fill="none" stroke="black" points="21.57,-368.5 21.57,-420.5 139.57,-420.5 139.57,-368.5 21.57,-368.5"/>
<polygon fill="none" stroke="black" points="32.57,-395.5 32.57,-413.5 128.57,-413.5 128.57,-395.5 32.57,-395.5"/>
<text text-anchor="start" x="62.56" y="-402.5" font-family="Courier New" font-weight="bold" font-size="10.00">0x0034</text>
<polygon fill="none" stroke="black" points="32.57,-375.5 32.57,-393.5 128.57,-393.5 128.57,-375.5 32.57,-375.5"/>
<text text-anchor="start" x="35.57" y="-381.5" font-family="Courier New" font-size="10.00" fill="brown">start state = 0</text>
<polygon fill="none" stroke="black" points="29.57,-372.5 29.57,-416.5 131.57,-416.5 131.57,-372.5 29.57,-372.5"/>
</g>
<!-- 0 -->
<g id="node2" class="node">
<title>0</title>
<polyline fill="none" stroke="darkred" points="177.57,-383.5 191.57,-383.5"/>
<text text-anchor="start" x="180.57" y="-390.9" font-family="Courier New" font-weight="bold" font-size="14.00">0</text>
<path fill="none" stroke="darkred" d="M181.23,-380.5C181.23,-380.5 187.9,-380.5 187.9,-380.5 191.23,-380.5 194.57,-383.83 194.57,-387.17 194.57,-387.17 194.57,-401.83 194.57,-401.83 194.57,-405.17 191.23,-408.5 187.9,-408.5 187.9,-408.5 181.23,-408.5 181.23,-408.5 177.9,-408.5 174.57,-405.17 174.57,-401.83 174.57,-401.83 174.57,-387.17 174.57,-387.17 174.57,-383.83 177.9,-380.5 181.23,-380.5"/>
</g>
<!-- 1 -->
<g id="node3" class="node">
<title>1</title>
<polyline fill="none" stroke="darkred" points="95.57,-283 109.57,-283"/>
<text text-anchor="start" x="98.57" y="-290.4" font-family="Courier New" font-weight="bold" font-size="14.00">1</text>
<path fill="none" stroke="darkred" d="M99.23,-280C99.23,-280 105.9,-280 105.9,-280 109.23,-280 112.57,-283.33 112.57,-286.67 112.57,-286.67 112.57,-301.33 112.57,-301.33 112.57,-304.67 109.23,-308 105.9,-308 105.9,-308 99.23,-308 99.23,-308 95.9,-308 92.57,-304.67 92.57,-301.33 92.57,-301.33 92.57,-286.67 92.57,-286.67 92.57,-283.33 95.9,-280 99.23,-280"/>
</g>
<!-- 0&#45;&gt;1 -->
<g id="edge1" class="edge">
<title>0&#45;&gt;1</title>
<path fill="none" stroke="black" d="M162.67,-376.65C158.14,-373.56 153.3,-370.51 148.57,-368 128.44,-357.33 113.54,-368.73 100.57,-350 95.21,-342.27 94.27,-332.35 95.14,-323.07"/>
<polygon fill="black" stroke="black" points="98.56,-323.81 96.76,-313.36 91.66,-322.65 98.56,-323.81"/>
<text text-anchor="start" x="104.57" y="-338" font-family="Courier New" font-weight="bold" font-size="10.00" fill="orange">WAIT(0,0)</text>
</g>
<!-- 1&#45;&gt;0 -->
<g id="edge2" class="edge">
<title>1&#45;&gt;0</title>
<path fill="none" stroke="black" d="M129.41,-305.56C140.98,-311.28 153.83,-319.38 162.57,-330 170.93,-340.18 176.2,-353.73 179.47,-365.7"/>
<polygon fill="black" stroke="black" points="175.98,-366.13 181.69,-375.06 182.79,-364.52 175.98,-366.13"/>
<text text-anchor="start" x="177.57" y="-338" font-family="Courier New" font-weight="bold" font-size="10.00" fill="blue">LTEi(0x73,0)</text>
</g>
<!-- 2 -->
<g id="node4" class="node">
<title>2</title>
<polyline fill="none" stroke="darkred" points="95.57,-191 109.57,-191"/>
<text text-anchor="start" x="98.57" y="-198.4" font-family="Courier New" font-weight="bold" font-size="14.00">2</text>
<path fill="none" stroke="darkred" d="M99.23,-188C99.23,-188 105.9,-188 105.9,-188 109.23,-188 112.57,-191.33 112.57,-194.67 112.57,-194.67 112.57,-209.33 112.57,-209.33 112.57,-212.67 109.23,-216 105.9,-216 105.9,-216 99.23,-216 99.23,-216 95.9,-216 92.57,-212.67 92.57,-209.33 92.57,-209.33 92.57,-194.67 92.57,-194.67 92.57,-191.33 95.9,-188 99.23,-188"/>
</g>
<!-- 1&#45;&gt;2 -->
<g id="edge3" class="edge">
<title>1&#45;&gt;2</title>
<path fill="none" stroke="black" d="M102.57,-276.07C102.57,-263.38 102.57,-245.71 102.57,-230.94"/>
<polygon fill="black" stroke="black" points="106.07,-231.37 102.57,-221.37 99.07,-231.37 106.07,-231.37"/>
<text text-anchor="start" x="106.57" y="-246" font-family="Courier New" font-weight="bold" font-size="10.00" fill="blue">SUBI(0x73,1)</text>
</g>
<!-- 3 -->
<g id="node5" class="node">
<title>3</title>
<polyline fill="none" stroke="darkred" points="95.57,-99 109.57,-99"/>
<text text-anchor="start" x="98.57" y="-106.4" font-family="Courier New" font-weight="bold" font-size="14.00">3</text>
<path fill="none" stroke="darkred" d="M99.23,-96C99.23,-96 105.9,-96 105.9,-96 109.23,-96 112.57,-99.33 112.57,-102.67 112.57,-102.67 112.57,-117.33 112.57,-117.33 112.57,-120.67 109.23,-124 105.9,-124 105.9,-124 99.23,-124 99.23,-124 95.9,-124 92.57,-120.67 92.57,-117.33 92.57,-117.33 92.57,-102.67 92.57,-102.67 92.57,-99.33 95.9,-96 99.23,-96"/>
</g>
<!-- 2&#45;&gt;3 -->
<g id="edge4" class="edge">
<title>2&#45;&gt;3</title>
<path fill="none" stroke="black" d="M102.57,-184.07C102.57,-171.38 102.57,-153.71 102.57,-138.94"/>
<polygon fill="black" stroke="black" points="106.07,-139.37 102.57,-129.37 99.07,-139.37 106.07,-139.37"/>
<text text-anchor="start" x="106.57" y="-154" font-family="Courier New" font-weight="bold" font-size="10.00" fill="blue">PLAYWAVE(0,SOUND_HURT)</text>
</g>
<!-- 4 -->
<g id="node6" class="node">
<title>4</title>
<polyline fill="none" stroke="darkred" points="99.57,-7 113.57,-7"/>
<text text-anchor="start" x="102.57" y="-14.4" font-family="Courier New" font-weight="bold" font-size="14.00">4</text>
<path fill="none" stroke="darkred" d="M103.23,-4C103.23,-4 109.9,-4 109.9,-4 113.23,-4 116.57,-7.33 116.57,-10.67 116.57,-10.67 116.57,-25.33 116.57,-25.33 116.57,-28.67 113.23,-32 109.9,-32 109.9,-32 103.23,-32 103.23,-32 99.9,-32 96.57,-28.67 96.57,-25.33 96.57,-25.33 96.57,-10.67 96.57,-10.67 96.57,-7.33 99.9,-4 103.23,-4"/>
</g>
<!-- 3&#45;&gt;4 -->
<g id="edge5" class="edge">
<title>3&#45;&gt;4</title>
<path fill="none" stroke="black" d="M75.79,-104.78C40.27,-97.99 -15.73,-82.42 4.57,-54 19.02,-33.76 45.94,-25.1 68.49,-21.45"/>
<polygon fill="black" stroke="black" points="68.84,-24.94 78.3,-20.17 67.93,-18 68.84,-24.94"/>
<text text-anchor="start" x="8.57" y="-62" font-family="Courier New" font-weight="bold" font-size="10.00" fill="blue">GTEi(0x73,1)</text>
</g>
<!-- 3&#45;&gt;4 -->
<g id="edge6" class="edge">
<title>3&#45;&gt;4</title>
<path fill="none" stroke="black" d="M103.32,-92.07C103.88,-79.38 104.67,-61.71 105.32,-46.94"/>
<polygon fill="black" stroke="black" points="108.8,-47.51 105.75,-37.36 101.81,-47.2 108.8,-47.51"/>
<text text-anchor="start" x="108.57" y="-62" font-family="Courier New" font-weight="bold" font-size="10.00" fill="blue">PLAYWAVE(0,SOUND_THUNDER)</text>
</g>
<!-- 4&#45;&gt;0 -->
<g id="edge7" class="edge">
<title>4&#45;&gt;0</title>
<path fill="none" stroke="black" d="M133.45,-21.53C173.72,-25.86 246.98,-36.01 265.57,-54 283.69,-71.54 279.57,-83.78 279.57,-109 279.57,-295 279.57,-295 279.57,-295 279.57,-321.33 274.67,-329.98 257.57,-350 247.81,-361.42 234.27,-370.63 221.5,-377.59"/>
<polygon fill="black" stroke="black" points="220.18,-374.34 212.86,-382 223.36,-380.57 220.18,-374.34"/>
<text text-anchor="start" x="283.57" y="-200" font-family="Courier New" font-weight="bold" font-size="10.00" fill="blue">SIGNALi(SIG_SUB,SID_AURA)</text>
</g>
</g>
</svg>
