<?xml version="1.0" encoding="UTF-8" standalone="no"?>
<!DOCTYPE svg PUBLIC "-//W3C//DTD SVG 1.1//EN"
 "http://www.w3.org/Graphics/SVG/1.1/DTD/svg11.dtd">
<!-- Generated by graphviz version 7.1.0 (20230121.1956)
 -->
<!-- Pages: 1 -->
<svg width="652pt" height="494pt"
 viewBox="0.00 0.00 652.01 494.00" xmlns="http://www.w3.org/2000/svg" xmlns:xlink="http://www.w3.org/1999/xlink">
<g id="graph0" class="graph" transform="scale(1 1) rotate(0) translate(4 490)">
<polygon fill="white" stroke="none" points="-4,4 -4,-490 648.01,-490 648.01,4 -4,4"/>
<!-- 0x1001_3 -->
<g id="node1" class="node">
<title>0x1001_3</title>
<polygon fill="none" stroke="black" points="108.5,-449.5 108.5,-485.5 180.5,-485.5 180.5,-449.5 108.5,-449.5"/>
<text text-anchor="middle" x="144.5" y="-463.3" font-family="Times,serif" font-size="14.00">0x1001_3</text>
</g>
<!-- 0x1001_4 -->
<g id="node2" class="node">
<title>0x1001_4</title>
<polygon fill="none" stroke="black" points="108.5,-359.7 108.5,-395.7 180.5,-395.7 180.5,-359.7 108.5,-359.7"/>
<text text-anchor="middle" x="144.5" y="-373.5" font-family="Times,serif" font-size="14.00">0x1001_4</text>
</g>
<!-- 0x1001_3&#45;&gt;0x1001_4 -->
<g id="edge1" class="edge">
<title>0x1001_3&#45;&gt;0x1001_4</title>
<path fill="none" stroke="green" d="M144.5,-449.57C144.5,-437.42 144.5,-420.78 144.5,-406.67"/>
<polygon fill="green" stroke="green" points="148,-407.09 144.5,-397.09 141,-407.09 148,-407.09"/>
<text text-anchor="start" x="144.5" y="-419.4" font-family="Times,serif" font-size="14.00" fill="green"> </text>
<text text-anchor="start" x="148" y="-419.4" font-family="Courier New" font-size="10.00" fill="green">ASSIGN(WSPRITE,0x0270)</text>
</g>
<!-- 0x1001_5 -->
<g id="node3" class="node">
<title>0x1001_5</title>
<polygon fill="none" stroke="black" points="108.5,-269.9 108.5,-305.9 180.5,-305.9 180.5,-269.9 108.5,-269.9"/>
<text text-anchor="middle" x="144.5" y="-283.7" font-family="Times,serif" font-size="14.00">0x1001_5</text>
</g>
<!-- 0x1001_4&#45;&gt;0x1001_5 -->
<g id="edge2" class="edge">
<title>0x1001_4&#45;&gt;0x1001_5</title>
<path fill="none" stroke="green" d="M144.5,-359.77C144.5,-347.62 144.5,-330.98 144.5,-316.87"/>
<polygon fill="green" stroke="green" points="148,-317.29 144.5,-307.29 141,-317.29 148,-317.29"/>
<text text-anchor="start" x="144.5" y="-329.6" font-family="Times,serif" font-size="14.00" fill="green"> </text>
<text text-anchor="start" x="148" y="-329.6" font-family="Courier New" font-size="10.00" fill="green">ASSIGN(WPARM,10)</text>
</g>
<!-- 0x1001_20 -->
<g id="node4" class="node">
<title>0x1001_20</title>
<polygon fill="none" stroke="black" points="0,-180.1 0,-216.1 79,-216.1 79,-180.1 0,-180.1"/>
<text text-anchor="middle" x="39.5" y="-193.9" font-family="Times,serif" font-size="14.00">0x1001_20</text>
</g>
<!-- 0x1001_5&#45;&gt;0x1001_20 -->
<g id="edge3" class="edge">
<title>0x1001_5&#45;&gt;0x1001_20</title>
<path fill="none" stroke="green" d="M108.86,-280.21C90.8,-275.12 69.83,-266.34 55.99,-251.4 49.78,-244.7 45.91,-235.67 43.49,-227.01"/>
<polygon fill="green" stroke="green" points="46.98,-226.54 41.41,-217.53 40.14,-228.05 46.98,-226.54"/>
<text text-anchor="start" x="56.5" y="-239.8" font-family="Times,serif" font-size="14.00" fill="green"> </text>
<text text-anchor="start" x="60" y="-239.8" font-family="Courier New" font-size="10.00" fill="green">LTEi(WPARM,0)</text>
</g>
<!-- 0x1001_6 -->
<g id="node5" class="node">
<title>0x1001_6</title>
<polygon fill="none" stroke="black" points="102.5,-180.1 102.5,-216.1 174.5,-216.1 174.5,-180.1 102.5,-180.1"/>
<text text-anchor="middle" x="138.5" y="-193.9" font-family="Times,serif" font-size="14.00">0x1001_6</text>
</g>
<!-- 0x1001_5&#45;&gt;0x1001_6 -->
<g id="edge4" class="edge">
<title>0x1001_5&#45;&gt;0x1001_6</title>
<path fill="none" stroke="green" d="M143.34,-269.97C142.51,-257.82 141.38,-241.18 140.41,-227.07"/>
<polygon fill="green" stroke="green" points="143.93,-227.22 139.76,-217.49 136.95,-227.7 143.93,-227.22"/>
<text text-anchor="start" x="142.5" y="-239.8" font-family="Times,serif" font-size="14.00" fill="green"> </text>
<text text-anchor="start" x="146" y="-239.8" font-family="Courier New" font-size="10.00" fill="green">SHOW(WSPRITE,0)</text>
</g>
<!-- 0x1001_7 -->
<g id="node6" class="node">
<title>0x1001_7</title>
<polygon fill="none" stroke="black" points="105.5,-90.3 105.5,-126.3 177.5,-126.3 177.5,-90.3 105.5,-90.3"/>
<text text-anchor="middle" x="141.5" y="-104.1" font-family="Times,serif" font-size="14.00">0x1001_7</text>
</g>
<!-- 0x1001_6&#45;&gt;0x1001_7 -->
<g id="edge5" class="edge">
<title>0x1001_6&#45;&gt;0x1001_7</title>
<path fill="none" stroke="green" d="M136.61,-180.13C135.74,-169.89 135.07,-156.58 135.98,-144.8 136.17,-142.42 136.42,-139.96 136.72,-137.49"/>
<polygon fill="green" stroke="green" points="140.16,-138.1 138.11,-127.71 133.23,-137.11 140.16,-138.1"/>
<text text-anchor="start" x="136.5" y="-150" font-family="Times,serif" font-size="14.00" fill="green"> </text>
<text text-anchor="start" x="140" y="-150" font-family="Courier New" font-size="10.00" fill="green">EMTIME(0,1000/1)</text>
</g>
<!-- 0x1001_8 -->
<g id="node7" class="node">
<title>0x1001_8</title>
<polygon fill="none" stroke="black" points="167.5,-0.5 167.5,-36.5 239.5,-36.5 239.5,-0.5 167.5,-0.5"/>
<text text-anchor="middle" x="203.5" y="-14.3" font-family="Times,serif" font-size="14.00">0x1001_8</text>
</g>
<!-- 0x1001_7&#45;&gt;0x1001_8 -->
<g id="edge6" class="edge">
<title>0x1001_7&#45;&gt;0x1001_8</title>
<path fill="none" stroke="green" d="M140.87,-90.53C141.23,-79.62 143.2,-65.51 149.99,-55 152.75,-50.72 156.22,-46.84 160.08,-43.35"/>
<polygon fill="green" stroke="green" points="162.1,-46.21 167.79,-37.27 157.77,-40.71 162.1,-46.21"/>
<text text-anchor="start" x="150.5" y="-60.2" font-family="Times,serif" font-size="14.00" fill="green"> </text>
<text text-anchor="start" x="154" y="-60.2" font-family="Courier New" font-size="10.00" fill="green">ADDI(WSPRITE,1)</text>
</g>
<!-- 0x1001_8&#45;&gt;0x1001_5 -->
<g id="edge7" class="edge">
<title>0x1001_8&#45;&gt;0x1001_5</title>
<path fill="none" stroke="green" d="M229.08,-36.41C234.9,-41.62 240.3,-47.89 243.5,-55 279.29,-134.62 290.99,-180.18 240.5,-251.4 229.13,-267.44 209.65,-276.25 191.2,-281.08"/>
<polygon fill="green" stroke="green" points="190.69,-277.6 181.7,-283.21 192.22,-284.43 190.69,-277.6"/>
<text text-anchor="start" x="274.5" y="-150" font-family="Times,serif" font-size="14.00" fill="green"> </text>
<text text-anchor="start" x="278" y="-150" font-family="Courier New" font-size="10.00" fill="green">SUBI(WPARM,1)</text>
</g>
<!-- 0x1001_32 -->
<g id="node8" class="node">
<title>0x1001_32</title>
<polygon fill="none" stroke="black" points="391,-449.5 391,-485.5 470,-485.5 470,-449.5 391,-449.5"/>
<text text-anchor="middle" x="430.5" y="-463.3" font-family="Times,serif" font-size="14.00">0x1001_32</text>
</g>
<!-- 0x1001_33 -->
<g id="node9" class="node">
<title>0x1001_33</title>
<polygon fill="none" stroke="black" points="391,-359.7 391,-395.7 470,-395.7 470,-359.7 391,-359.7"/>
<text text-anchor="middle" x="430.5" y="-373.5" font-family="Times,serif" font-size="14.00">0x1001_33</text>
</g>
<!-- 0x1001_32&#45;&gt;0x1001_33 -->
<g id="edge8" class="edge">
<title>0x1001_32&#45;&gt;0x1001_33</title>
<path fill="none" stroke="green" d="M430.5,-449.57C430.5,-437.42 430.5,-420.78 430.5,-406.67"/>
<polygon fill="green" stroke="green" points="434,-407.09 430.5,-397.09 427,-407.09 434,-407.09"/>
<text text-anchor="start" x="430.5" y="-419.4" font-family="Times,serif" font-size="14.00" fill="green"> </text>
<text text-anchor="start" x="434" y="-419.4" font-family="Courier New" font-size="10.00" fill="green">ASSIGN(WSPRITE,0x0279)</text>
</g>
<!-- 0x1001_34 -->
<g id="node10" class="node">
<title>0x1001_34</title>
<polygon fill="none" stroke="black" points="391,-269.9 391,-305.9 470,-305.9 470,-269.9 391,-269.9"/>
<text text-anchor="middle" x="430.5" y="-283.7" font-family="Times,serif" font-size="14.00">0x1001_34</text>
</g>
<!-- 0x1001_33&#45;&gt;0x1001_34 -->
<g id="edge9" class="edge">
<title>0x1001_33&#45;&gt;0x1001_34</title>
<path fill="none" stroke="green" d="M430.5,-359.77C430.5,-347.62 430.5,-330.98 430.5,-316.87"/>
<polygon fill="green" stroke="green" points="434,-317.29 430.5,-307.29 427,-317.29 434,-317.29"/>
<text text-anchor="start" x="430.5" y="-329.6" font-family="Times,serif" font-size="14.00" fill="green"> </text>
<text text-anchor="start" x="434" y="-329.6" font-family="Courier New" font-size="10.00" fill="green">ASSIGN(WPARM,10)</text>
</g>
<!-- 0x1001_40 -->
<g id="node11" class="node">
<title>0x1001_40</title>
<polygon fill="none" stroke="black" points="286,-180.1 286,-216.1 365,-216.1 365,-180.1 286,-180.1"/>
<text text-anchor="middle" x="325.5" y="-193.9" font-family="Times,serif" font-size="14.00">0x1001_40</text>
</g>
<!-- 0x1001_34&#45;&gt;0x1001_40 -->
<g id="edge10" class="edge">
<title>0x1001_34&#45;&gt;0x1001_40</title>
<path fill="none" stroke="green" d="M391.07,-278.34C374.65,-273.01 356.52,-264.57 343.99,-251.4 337.62,-244.71 333.43,-235.68 330.67,-227.02"/>
<polygon fill="green" stroke="green" points="334.11,-226.32 328.2,-217.52 327.33,-228.08 334.11,-226.32"/>
<text text-anchor="start" x="344.5" y="-239.8" font-family="Times,serif" font-size="14.00" fill="green"> </text>
<text text-anchor="start" x="348" y="-239.8" font-family="Courier New" font-size="10.00" fill="green">LTEi(WPARM,0)</text>
</g>
<!-- 0x1001_35 -->
<g id="node12" class="node">
<title>0x1001_35</title>
<polygon fill="none" stroke="black" points="388,-180.1 388,-216.1 467,-216.1 467,-180.1 388,-180.1"/>
<text text-anchor="middle" x="427.5" y="-193.9" font-family="Times,serif" font-size="14.00">0x1001_35</text>
</g>
<!-- 0x1001_34&#45;&gt;0x1001_35 -->
<g id="edge11" class="edge">
<title>0x1001_34&#45;&gt;0x1001_35</title>
<path fill="none" stroke="green" d="M429.92,-269.97C429.51,-257.82 428.94,-241.18 428.46,-227.07"/>
<polygon fill="green" stroke="green" points="431.97,-227.36 428.13,-217.49 424.97,-227.6 431.97,-227.36"/>
<text text-anchor="start" x="429.5" y="-239.8" font-family="Times,serif" font-size="14.00" fill="green"> </text>
<text text-anchor="start" x="433" y="-239.8" font-family="Courier New" font-size="10.00" fill="green">SHOW(WSPRITE,0)</text>
</g>
<!-- 0x1001_36 -->
<g id="node13" class="node">
<title>0x1001_36</title>
<polygon fill="none" stroke="black" points="387,-90.3 387,-126.3 466,-126.3 466,-90.3 387,-90.3"/>
<text text-anchor="middle" x="426.5" y="-104.1" font-family="Times,serif" font-size="14.00">0x1001_36</text>
</g>
<!-- 0x1001_35&#45;&gt;0x1001_36 -->
<g id="edge12" class="edge">
<title>0x1001_35&#45;&gt;0x1001_36</title>
<path fill="none" stroke="green" d="M426.05,-180.14C425.62,-174.27 425.2,-167.65 424.98,-161.6 424.71,-153.86 424.79,-145.46 425.01,-137.72"/>
<polygon fill="green" stroke="green" points="428.51,-137.9 425.4,-127.77 421.51,-137.63 428.51,-137.9"/>
<text text-anchor="start" x="425.5" y="-150" font-family="Times,serif" font-size="14.00" fill="green"> </text>
<text text-anchor="start" x="429" y="-150" font-family="Courier New" font-size="10.00" fill="green">EMTIME(0,1000/1)</text>
</g>
<!-- 0x1001_37 -->
<g id="node14" class="node">
<title>0x1001_37</title>
<polygon fill="none" stroke="black" points="452,-0.5 452,-36.5 531,-36.5 531,-0.5 452,-0.5"/>
<text text-anchor="middle" x="491.5" y="-14.3" font-family="Times,serif" font-size="14.00">0x1001_37</text>
</g>
<!-- 0x1001_36&#45;&gt;0x1001_37 -->
<g id="edge13" class="edge">
<title>0x1001_36&#45;&gt;0x1001_37</title>
<path fill="none" stroke="green" d="M427.4,-90.48C428.69,-79.55 431.76,-65.44 438.99,-55 441.92,-50.76 445.53,-46.89 449.49,-43.38"/>
<polygon fill="green" stroke="green" points="451.62,-46.16 457.35,-37.24 447.31,-40.64 451.62,-46.16"/>
<text text-anchor="start" x="439.5" y="-60.2" font-family="Times,serif" font-size="14.00" fill="green"> </text>
<text text-anchor="start" x="443" y="-60.2" font-family="Courier New" font-size="10.00" fill="green">SUBI(WSPRITE,1)</text>
</g>
<!-- 0x1001_37&#45;&gt;0x1001_34 -->
<g id="edge14" class="edge">
<title>0x1001_37&#45;&gt;0x1001_34</title>
<path fill="none" stroke="green" d="M517.7,-36.3C523.67,-41.51 529.21,-47.81 532.5,-55 568.79,-134.42 578.51,-180.53 527.5,-251.4 516.57,-266.59 498.43,-275.29 480.78,-280.27"/>
<polygon fill="green" stroke="green" points="480.28,-276.79 471.4,-282.56 481.94,-283.59 480.28,-276.79"/>
<text text-anchor="start" x="562.5" y="-150" font-family="Times,serif" font-size="14.00" fill="green"> </text>
<text text-anchor="start" x="566" y="-150" font-family="Courier New" font-size="10.00" fill="green">SUBI(WPARM,1)</text>
</g>
</g>
</svg>
