<?xml version="1.0" encoding="UTF-8" standalone="no"?>
<!DOCTYPE svg PUBLIC "-//W3C//DTD SVG 1.1//EN"
 "http://www.w3.org/Graphics/SVG/1.1/DTD/svg11.dtd">
<!-- Generated by graphviz version 7.1.0 (20230121.1956)
 -->
<!-- Title: Automaton Pages: 1 -->
<svg width="674pt" height="521pt"
 viewBox="0.00 0.00 674.00 521.00" xmlns="http://www.w3.org/2000/svg" xmlns:xlink="http://www.w3.org/1999/xlink">
<g id="graph0" class="graph" transform="scale(1 1) rotate(0) translate(4 517)">
<title>Automaton</title>
<polygon fill="white" stroke="none" points="-4,4 -4,-517 670,-517 670,4 -4,4"/>
<!-- filename -->
<g id="node1" class="node">
<title>filename</title>
<polygon fill="none" stroke="black" points="0,-460.5 0,-512.5 118,-512.5 118,-460.5 0,-460.5"/>
<polygon fill="none" stroke="black" points="11,-487.5 11,-505.5 107,-505.5 107,-487.5 11,-487.5"/>
<text text-anchor="start" x="41" y="-494.5" font-family="Courier New" font-weight="bold" font-size="10.00">0x1001</text>
<polygon fill="none" stroke="black" points="11,-467.5 11,-485.5 107,-485.5 107,-467.5 11,-467.5"/>
<text text-anchor="start" x="14" y="-473.5" font-family="Courier New" font-size="10.00" fill="brown">start state = 0</text>
<polygon fill="none" stroke="black" points="8,-464.5 8,-508.5 110,-508.5 110,-464.5 8,-464.5"/>
</g>
<!-- 3 -->
<g id="node2" class="node">
<title>3</title>
<polyline fill="none" stroke="darkred" points="156,-475.5 170,-475.5"/>
<text text-anchor="start" x="159" y="-482.9" font-family="Courier New" font-weight="bold" font-size="14.00">3</text>
<path fill="none" stroke="darkred" d="M159.67,-472.5C159.67,-472.5 166.33,-472.5 166.33,-472.5 169.67,-472.5 173,-475.83 173,-479.17 173,-479.17 173,-493.83 173,-493.83 173,-497.17 169.67,-500.5 166.33,-500.5 166.33,-500.5 159.67,-500.5 159.67,-500.5 156.33,-500.5 153,-497.17 153,-493.83 153,-493.83 153,-479.17 153,-479.17 153,-475.83 156.33,-472.5 159.67,-472.5"/>
</g>
<!-- 4 -->
<g id="node3" class="node">
<title>4</title>
<polyline fill="none" stroke="darkred" points="156,-375 170,-375"/>
<text text-anchor="start" x="159" y="-382.4" font-family="Courier New" font-weight="bold" font-size="14.00">4</text>
<path fill="none" stroke="darkred" d="M159.67,-372C159.67,-372 166.33,-372 166.33,-372 169.67,-372 173,-375.33 173,-378.67 173,-378.67 173,-393.33 173,-393.33 173,-396.67 169.67,-400 166.33,-400 166.33,-400 159.67,-400 159.67,-400 156.33,-400 153,-396.67 153,-393.33 153,-393.33 153,-378.67 153,-378.67 153,-375.33 156.33,-372 159.67,-372"/>
</g>
<!-- 3&#45;&gt;4 -->
<g id="edge1" class="edge">
<title>3&#45;&gt;4</title>
<path fill="none" stroke="black" d="M163,-468.79C163,-454.14 163,-432.55 163,-415.23"/>
<polygon fill="black" stroke="black" points="166.5,-415.3 163,-405.3 159.5,-415.3 166.5,-415.3"/>
<text text-anchor="start" x="167" y="-430" font-family="Courier New" font-weight="bold" font-size="10.00" fill="blue">ASSIGN(WSPRITE,0x0270)</text>
</g>
<!-- 5 -->
<g id="node11" class="node">
<title>5</title>
<polyline fill="none" stroke="darkred" points="156,-283 170,-283"/>
<text text-anchor="start" x="159" y="-290.4" font-family="Courier New" font-weight="bold" font-size="14.00">5</text>
<path fill="none" stroke="darkred" d="M159.67,-280C159.67,-280 166.33,-280 166.33,-280 169.67,-280 173,-283.33 173,-286.67 173,-286.67 173,-301.33 173,-301.33 173,-304.67 169.67,-308 166.33,-308 166.33,-308 159.67,-308 159.67,-308 156.33,-308 153,-304.67 153,-301.33 153,-301.33 153,-286.67 153,-286.67 153,-283.33 156.33,-280 159.67,-280"/>
</g>
<!-- 4&#45;&gt;5 -->
<g id="edge9" class="edge">
<title>4&#45;&gt;5</title>
<path fill="none" stroke="black" d="M163,-368.07C163,-355.38 163,-337.71 163,-322.94"/>
<polygon fill="black" stroke="black" points="166.5,-323.37 163,-313.37 159.5,-323.37 166.5,-323.37"/>
<text text-anchor="start" x="167" y="-338" font-family="Courier New" font-weight="bold" font-size="10.00" fill="blue">ASSIGN(WPARM,10)</text>
</g>
<!-- 32 -->
<g id="node4" class="node">
<title>32</title>
<polyline fill="none" stroke="darkred" points="432,-475.5 454,-475.5"/>
<text text-anchor="start" x="435" y="-482.9" font-family="Courier New" font-weight="bold" font-size="14.00">32</text>
<path fill="none" stroke="darkred" d="M438.33,-472.5C438.33,-472.5 447.67,-472.5 447.67,-472.5 452.33,-472.5 457,-477.17 457,-481.83 457,-481.83 457,-491.17 457,-491.17 457,-495.83 452.33,-500.5 447.67,-500.5 447.67,-500.5 438.33,-500.5 438.33,-500.5 433.67,-500.5 429,-495.83 429,-491.17 429,-491.17 429,-481.83 429,-481.83 429,-477.17 433.67,-472.5 438.33,-472.5"/>
</g>
<!-- 33 -->
<g id="node5" class="node">
<title>33</title>
<polyline fill="none" stroke="darkred" points="432,-375 454,-375"/>
<text text-anchor="start" x="435" y="-382.4" font-family="Courier New" font-weight="bold" font-size="14.00">33</text>
<path fill="none" stroke="darkred" d="M438.33,-372C438.33,-372 447.67,-372 447.67,-372 452.33,-372 457,-376.67 457,-381.33 457,-381.33 457,-390.67 457,-390.67 457,-395.33 452.33,-400 447.67,-400 447.67,-400 438.33,-400 438.33,-400 433.67,-400 429,-395.33 429,-390.67 429,-390.67 429,-381.33 429,-381.33 429,-376.67 433.67,-372 438.33,-372"/>
</g>
<!-- 32&#45;&gt;33 -->
<g id="edge2" class="edge">
<title>32&#45;&gt;33</title>
<path fill="none" stroke="black" d="M443,-468.79C443,-454.14 443,-432.55 443,-415.23"/>
<polygon fill="black" stroke="black" points="446.5,-415.3 443,-405.3 439.5,-415.3 446.5,-415.3"/>
<text text-anchor="start" x="447" y="-430" font-family="Courier New" font-weight="bold" font-size="10.00" fill="blue">ASSIGN(WSPRITE,0x0279)</text>
</g>
<!-- 34 -->
<g id="node6" class="node">
<title>34</title>
<polyline fill="none" stroke="darkred" points="432,-283 454,-283"/>
<text text-anchor="start" x="435" y="-290.4" font-family="Courier New" font-weight="bold" font-size="14.00">34</text>
<path fill="none" stroke="darkred" d="M438.33,-280C438.33,-280 447.67,-280 447.67,-280 452.33,-280 457,-284.67 457,-289.33 457,-289.33 457,-298.67 457,-298.67 457,-303.33 452.33,-308 447.67,-308 447.67,-308 438.33,-308 438.33,-308 433.67,-308 429,-303.33 429,-298.67 429,-298.67 429,-289.33 429,-289.33 429,-284.67 433.67,-280 438.33,-280"/>
</g>
<!-- 33&#45;&gt;34 -->
<g id="edge3" class="edge">
<title>33&#45;&gt;34</title>
<path fill="none" stroke="black" d="M443,-368.07C443,-355.38 443,-337.71 443,-322.94"/>
<polygon fill="black" stroke="black" points="446.5,-323.37 443,-313.37 439.5,-323.37 446.5,-323.37"/>
<text text-anchor="start" x="447" y="-338" font-family="Courier New" font-weight="bold" font-size="10.00" fill="blue">ASSIGN(WPARM,10)</text>
</g>
<!-- 40 -->
<g id="node7" class="node">
<title>40</title>
<ellipse fill="none" stroke="black" cx="334" cy="-202" rx="27" ry="18"/>
<text text-anchor="middle" x="334" y="-197.8" font-family="Courier New" font-size="14.00">40</text>
</g>
<!-- 34&#45;&gt;40 -->
<g id="edge4" class="edge">
<title>34&#45;&gt;40</title>
<path fill="none" stroke="black" d="M416.15,-289.49C395.34,-285.39 367.23,-276.61 350,-258 343.28,-250.74 339.36,-240.81 337.09,-231.38"/>
<polygon fill="black" stroke="black" points="340.58,-231.04 335.33,-221.84 333.7,-232.31 340.58,-231.04"/>
<text text-anchor="start" x="354" y="-246" font-family="Courier New" font-weight="bold" font-size="10.00" fill="blue">LTEi(WPARM,0)</text>
</g>
<!-- 35 -->
<g id="node8" class="node">
<title>35</title>
<polyline fill="none" stroke="darkred" points="428,-191 450,-191"/>
<text text-anchor="start" x="431" y="-198.4" font-family="Courier New" font-weight="bold" font-size="14.00">35</text>
<path fill="none" stroke="darkred" d="M434.33,-188C434.33,-188 443.67,-188 443.67,-188 448.33,-188 453,-192.67 453,-197.33 453,-197.33 453,-206.67 453,-206.67 453,-211.33 448.33,-216 443.67,-216 443.67,-216 434.33,-216 434.33,-216 429.67,-216 425,-211.33 425,-206.67 425,-206.67 425,-197.33 425,-197.33 425,-192.67 429.67,-188 434.33,-188"/>
</g>
<!-- 34&#45;&gt;35 -->
<g id="edge5" class="edge">
<title>34&#45;&gt;35</title>
<path fill="none" stroke="black" d="M442.25,-276.07C441.68,-263.38 440.9,-245.71 440.24,-230.94"/>
<polygon fill="black" stroke="black" points="443.76,-231.2 439.82,-221.36 436.76,-231.51 443.76,-231.2"/>
<text text-anchor="start" x="445" y="-246" font-family="Courier New" font-weight="bold" font-size="10.00" fill="blue">SHOW(WSPRITE,0)</text>
</g>
<!-- 36 -->
<g id="node9" class="node">
<title>36</title>
<polyline fill="none" stroke="darkred" points="428,-99 450,-99"/>
<text text-anchor="start" x="431" y="-106.4" font-family="Courier New" font-weight="bold" font-size="14.00">36</text>
<path fill="none" stroke="darkred" d="M434.33,-96C434.33,-96 443.67,-96 443.67,-96 448.33,-96 453,-100.67 453,-105.33 453,-105.33 453,-114.67 453,-114.67 453,-119.33 448.33,-124 443.67,-124 443.67,-124 434.33,-124 434.33,-124 429.67,-124 425,-119.33 425,-114.67 425,-114.67 425,-105.33 425,-105.33 425,-100.67 429.67,-96 434.33,-96"/>
</g>
<!-- 35&#45;&gt;36 -->
<g id="edge6" class="edge">
<title>35&#45;&gt;36</title>
<path fill="none" stroke="black" d="M437.85,-184.27C437.5,-178.49 437.17,-171.96 437,-166 436.75,-157.11 436.75,-154.89 437,-146 437.06,-143.76 437.15,-141.45 437.25,-139.12"/>
<polygon fill="black" stroke="black" points="440.74,-139.41 437.77,-129.24 433.75,-139.04 440.74,-139.41"/>
<text text-anchor="start" x="441" y="-154" font-family="Courier New" font-weight="bold" font-size="10.00" fill="blue">EMTIME(0,1000/1)</text>
</g>
<!-- 37 -->
<g id="node10" class="node">
<title>37</title>
<polyline fill="none" stroke="darkred" points="498,-7 520,-7"/>
<text text-anchor="start" x="501" y="-14.4" font-family="Courier New" font-weight="bold" font-size="14.00">37</text>
<path fill="none" stroke="darkred" d="M504.33,-4C504.33,-4 513.67,-4 513.67,-4 518.33,-4 523,-8.67 523,-13.33 523,-13.33 523,-22.67 523,-22.67 523,-27.33 518.33,-32 513.67,-32 513.67,-32 504.33,-32 504.33,-32 499.67,-32 495,-27.33 495,-22.67 495,-22.67 495,-13.33 495,-13.33 495,-8.67 499.67,-4 504.33,-4"/>
</g>
<!-- 36&#45;&gt;37 -->
<g id="edge7" class="edge">
<title>36&#45;&gt;37</title>
<path fill="none" stroke="black" d="M439.25,-92.21C440.19,-80.53 443.04,-65.13 451,-54 456.5,-46.32 464.26,-40.01 472.32,-34.97"/>
<polygon fill="black" stroke="black" points="473.84,-38.13 480.85,-30.19 470.41,-32.03 473.84,-38.13"/>
<text text-anchor="start" x="455" y="-62" font-family="Courier New" font-weight="bold" font-size="10.00" fill="blue">SUBI(WSPRITE,1)</text>
</g>
<!-- 37&#45;&gt;34 -->
<g id="edge8" class="edge">
<title>37&#45;&gt;34</title>
<path fill="none" stroke="black" d="M534.98,-35.98C540.65,-41.04 545.87,-47.11 549,-54 586.48,-136.6 596.68,-184.89 543,-258 528.79,-277.35 503.07,-286.07 481.27,-289.97"/>
<polygon fill="black" stroke="black" points="480.87,-286.49 471.49,-291.41 481.89,-293.41 480.87,-286.49"/>
<text text-anchor="start" x="584" y="-154" font-family="Courier New" font-weight="bold" font-size="10.00" fill="blue">SUBI(WPARM,1)</text>
</g>
<!-- 20 -->
<g id="node12" class="node">
<title>20</title>
<ellipse fill="none" stroke="black" cx="54" cy="-202" rx="27" ry="18"/>
<text text-anchor="middle" x="54" y="-197.8" font-family="Courier New" font-size="14.00">20</text>
</g>
<!-- 5&#45;&gt;20 -->
<g id="edge10" class="edge">
<title>5&#45;&gt;20</title>
<path fill="none" stroke="black" d="M136.09,-289.25C115.59,-285.02 88.07,-276.2 71,-258 64.19,-250.75 60.11,-240.82 57.66,-231.39"/>
<polygon fill="black" stroke="black" points="61.14,-230.94 55.71,-221.84 54.28,-232.34 61.14,-230.94"/>
<text text-anchor="start" x="75" y="-246" font-family="Courier New" font-weight="bold" font-size="10.00" fill="blue">LTEi(WPARM,0)</text>
</g>
<!-- 6 -->
<g id="node13" class="node">
<title>6</title>
<polyline fill="none" stroke="darkred" points="152,-191 166,-191"/>
<text text-anchor="start" x="155" y="-198.4" font-family="Courier New" font-weight="bold" font-size="14.00">6</text>
<path fill="none" stroke="darkred" d="M155.67,-188C155.67,-188 162.33,-188 162.33,-188 165.67,-188 169,-191.33 169,-194.67 169,-194.67 169,-209.33 169,-209.33 169,-212.67 165.67,-216 162.33,-216 162.33,-216 155.67,-216 155.67,-216 152.33,-216 149,-212.67 149,-209.33 149,-209.33 149,-194.67 149,-194.67 149,-191.33 152.33,-188 155.67,-188"/>
</g>
<!-- 5&#45;&gt;6 -->
<g id="edge11" class="edge">
<title>5&#45;&gt;6</title>
<path fill="none" stroke="black" d="M162.25,-276.07C161.68,-263.38 160.9,-245.71 160.24,-230.94"/>
<polygon fill="black" stroke="black" points="163.76,-231.2 159.82,-221.36 156.76,-231.51 163.76,-231.2"/>
<text text-anchor="start" x="166" y="-246" font-family="Courier New" font-weight="bold" font-size="10.00" fill="blue">SHOW(WSPRITE,0)</text>
</g>
<!-- 7 -->
<g id="node14" class="node">
<title>7</title>
<polyline fill="none" stroke="darkred" points="149,-99 163,-99"/>
<text text-anchor="start" x="152" y="-106.4" font-family="Courier New" font-weight="bold" font-size="14.00">7</text>
<path fill="none" stroke="darkred" d="M152.67,-96C152.67,-96 159.33,-96 159.33,-96 162.67,-96 166,-99.33 166,-102.67 166,-102.67 166,-117.33 166,-117.33 166,-120.67 162.67,-124 159.33,-124 159.33,-124 152.67,-124 152.67,-124 149.33,-124 146,-120.67 146,-117.33 146,-117.33 146,-102.67 146,-102.67 146,-99.33 149.33,-96 152.67,-96"/>
</g>
<!-- 6&#45;&gt;7 -->
<g id="edge12" class="edge">
<title>6&#45;&gt;7</title>
<path fill="none" stroke="black" d="M155.55,-184.34C154.51,-178.56 153.51,-172.02 153,-166 152.26,-157.32 152.43,-147.86 152.95,-139.26"/>
<polygon fill="black" stroke="black" points="156.43,-139.63 153.74,-129.38 149.45,-139.06 156.43,-139.63"/>
<text text-anchor="start" x="157" y="-154" font-family="Courier New" font-weight="bold" font-size="10.00" fill="blue">EMTIME(0,1000/1)</text>
</g>
<!-- 8 -->
<g id="node15" class="node">
<title>8</title>
<polyline fill="none" stroke="darkred" points="216,-7 230,-7"/>
<text text-anchor="start" x="219" y="-14.4" font-family="Courier New" font-weight="bold" font-size="14.00">8</text>
<path fill="none" stroke="darkred" d="M219.67,-4C219.67,-4 226.33,-4 226.33,-4 229.67,-4 233,-7.33 233,-10.67 233,-10.67 233,-25.33 233,-25.33 233,-28.67 229.67,-32 226.33,-32 226.33,-32 219.67,-32 219.67,-32 216.33,-32 213,-28.67 213,-25.33 213,-25.33 213,-10.67 213,-10.67 213,-7.33 216.33,-4 219.67,-4"/>
</g>
<!-- 7&#45;&gt;8 -->
<g id="edge13" class="edge">
<title>7&#45;&gt;8</title>
<path fill="none" stroke="black" d="M155.97,-92.01C156.72,-80.39 159.3,-65.13 167,-54 172.04,-46.71 179.15,-40.62 186.61,-35.69"/>
<polygon fill="black" stroke="black" points="188.01,-38.93 194.83,-30.82 184.44,-32.91 188.01,-38.93"/>
<text text-anchor="start" x="171" y="-62" font-family="Courier New" font-weight="bold" font-size="10.00" fill="blue">ADDI(WSPRITE,1)</text>
</g>
<!-- 8&#45;&gt;5 -->
<g id="edge14" class="edge">
<title>8&#45;&gt;5</title>
<path fill="none" stroke="black" d="M249.82,-35.39C255.93,-40.53 261.62,-46.78 265,-54 303.46,-136.11 316.78,-184.28 264,-258 249.74,-277.92 223.34,-286.6 201.1,-290.34"/>
<polygon fill="black" stroke="black" points="200.87,-286.84 191.44,-291.67 201.82,-293.77 200.87,-286.84"/>
<text text-anchor="start" x="302" y="-154" font-family="Courier New" font-weight="bold" font-size="10.00" fill="blue">SUBI(WPARM,1)</text>
</g>
</g>
</svg>
