<?xml version="1.0" encoding="UTF-8" standalone="no"?>
<!DOCTYPE svg PUBLIC "-//W3C//DTD SVG 1.1//EN"
 "http://www.w3.org/Graphics/SVG/1.1/DTD/svg11.dtd">
<!-- Generated by graphviz version 7.1.0 (20230121.1956)
 -->
<!-- Title: Automaton Pages: 1 -->
<svg width="588pt" height="85pt"
 viewBox="0.00 0.00 588.00 85.00" xmlns="http://www.w3.org/2000/svg" xmlns:xlink="http://www.w3.org/1999/xlink">
<g id="graph0" class="graph" transform="scale(1 1) rotate(0) translate(4 81)">
<title>Automaton</title>
<polygon fill="white" stroke="none" points="-4,4 -4,-81 584,-81 584,4 -4,4"/>
<!-- filename -->
<g id="node1" class="node">
<title>filename</title>
<polygon fill="none" stroke="black" points="0,-12.5 0,-64.5 142,-64.5 142,-12.5 0,-12.5"/>
<polygon fill="none" stroke="black" points="11,-39.5 11,-57.5 131,-57.5 131,-39.5 11,-39.5"/>
<text text-anchor="start" x="14" y="-46.5" font-family="Courier New" font-weight="bold" font-size="10.00">0x1201::M_OBJECTBIN</text>
<polygon fill="none" stroke="black" points="11,-19.5 11,-37.5 131,-37.5 131,-19.5 11,-19.5"/>
<text text-anchor="start" x="25.99" y="-25.5" font-family="Courier New" font-size="10.00" fill="brown">start state = 0</text>
<polygon fill="none" stroke="black" points="8,-16.5 8,-60.5 134,-60.5 134,-16.5 8,-16.5"/>
</g>
<!-- 0 -->
<g id="node2" class="node">
<title>0</title>
<polyline fill="none" stroke="darkred" stroke-width="3" points="179.5,-27 194.5,-27"/>
<text text-anchor="start" x="183" y="-34.9" font-family="Courier New" font-weight="bold" font-size="14.00">0</text>
<path fill="none" stroke="darkred" stroke-width="3" d="M182.83,-22C182.83,-22 191.17,-22 191.17,-22 195.33,-22 199.5,-26.17 199.5,-30.33 199.5,-30.33 199.5,-46.67 199.5,-46.67 199.5,-50.83 195.33,-55 191.17,-55 191.17,-55 182.83,-55 182.83,-55 178.67,-55 174.5,-50.83 174.5,-46.67 174.5,-46.67 174.5,-30.33 174.5,-30.33 174.5,-26.17 178.67,-22 182.83,-22"/>
</g>
<!-- 0&#45;&gt;0 -->
<g id="edge1" class="edge">
<title>0&#45;&gt;0</title>
<path fill="none" stroke="black" d="M213.79,-46.73C223.78,-47 232,-44.26 232,-38.5 232,-35.17 229.25,-32.85 225.01,-31.54"/>
<polygon fill="black" stroke="black" points="225.63,-28.08 215.3,-30.44 224.84,-35.04 225.63,-28.08"/>
<text text-anchor="start" x="236" y="-36.5" font-family="Courier New" font-weight="bold" font-size="10.00" fill="orange">GRAB(WIP1,)</text>
</g>
<!-- status -->
<g id="node3" class="node">
<title>status</title>
<polygon fill="none" stroke="black" points="324,-0.5 324,-76.5 580,-76.5 580,-0.5 324,-0.5"/>
<polygon fill="none" stroke="black" points="335,-51.5 335,-69.5 569,-69.5 569,-51.5 335,-51.5"/>
<text text-anchor="start" x="434" y="-58.5" font-family="Courier New" font-weight="bold" font-size="10.00">0x1201</text>
<polygon fill="none" stroke="black" points="335,-7.5 335,-49.5 569,-49.5 569,-7.5 335,-7.5"/>
<text text-anchor="start" x="338" y="-37.5" font-family="Courier New" font-size="10.00" fill="green">VIEW::IDV_TMCUT</text>
<text text-anchor="start" x="338" y="-25.5" font-family="Courier New" font-size="10.00" fill="green">0x1201::M_OBJECTBIN(&#39;0x2201&#39;,&#39;&#39;,&#39;&#39;,&#39;&#39;)</text>
<text text-anchor="start" x="338" y="-13.5" font-family="Courier New" font-size="10.00" fill="green">{&#39;0&#39;:</text>
<polygon fill="none" stroke="black" points="332,-4.5 332,-72.5 572,-72.5 572,-4.5 332,-4.5"/>
</g>
</g>
</svg>
