<?xml version="1.0" encoding="UTF-8" standalone="no"?>
<!DOCTYPE svg PUBLIC "-//W3C//DTD SVG 1.1//EN"
 "http://www.w3.org/Graphics/SVG/1.1/DTD/svg11.dtd">
<!-- Generated by graphviz version 7.1.0 (20230121.1956)
 -->
<!-- Title: Automaton Pages: 1 -->
<svg width="743pt" height="317pt"
 viewBox="0.00 0.00 743.00 317.00" xmlns="http://www.w3.org/2000/svg" xmlns:xlink="http://www.w3.org/1999/xlink">
<g id="graph0" class="graph" transform="scale(1 1) rotate(0) translate(4 313)">
<title>Automaton</title>
<polygon fill="white" stroke="none" points="-4,4 -4,-313 739,-313 739,4 -4,4"/>
<!-- filename -->
<g id="node1" class="node">
<title>filename</title>
<polygon fill="none" stroke="black" points="127,-244.5 127,-296.5 281,-296.5 281,-244.5 127,-244.5"/>
<polygon fill="none" stroke="black" points="138,-271.5 138,-289.5 270,-289.5 270,-271.5 138,-271.5"/>
<text text-anchor="start" x="141" y="-278.5" font-family="Courier New" font-weight="bold" font-size="10.00">clickbait::m_mefltext</text>
<polygon fill="none" stroke="black" points="138,-251.5 138,-269.5 270,-269.5 270,-251.5 138,-251.5"/>
<text text-anchor="start" x="158.99" y="-257.5" font-family="Courier New" font-size="10.00" fill="brown">start state = 0</text>
<polygon fill="none" stroke="black" points="135,-248.5 135,-292.5 273,-292.5 273,-248.5 135,-248.5"/>
</g>
<!-- 0 -->
<g id="node2" class="node">
<title>0</title>
<polyline fill="none" stroke="darkred" points="319,-259.5 333,-259.5"/>
<text text-anchor="start" x="322" y="-266.9" font-family="Courier New" font-weight="bold" font-size="14.00">0</text>
<path fill="none" stroke="darkred" d="M322.67,-256.5C322.67,-256.5 329.33,-256.5 329.33,-256.5 332.67,-256.5 336,-259.83 336,-263.17 336,-263.17 336,-277.83 336,-277.83 336,-281.17 332.67,-284.5 329.33,-284.5 329.33,-284.5 322.67,-284.5 322.67,-284.5 319.33,-284.5 316,-281.17 316,-277.83 316,-277.83 316,-263.17 316,-263.17 316,-259.83 319.33,-256.5 322.67,-256.5"/>
</g>
<!-- B0 -->
<g id="node3" class="node">
<title>B0</title>
<ellipse fill="none" stroke="black" cx="27" cy="-134" rx="27" ry="18"/>
<text text-anchor="middle" x="27" y="-129.8" font-family="Courier New" font-size="14.00">B0</text>
</g>
<!-- 0&#45;&gt;B0 -->
<g id="edge1" class="edge">
<title>0&#45;&gt;B0</title>
<path fill="none" stroke="black" d="M314.62,-252.89C308.33,-245.12 299.81,-236.6 290,-232 238.97,-208.07 77.93,-252.75 37,-214 23.62,-201.34 21.46,-180.45 22.46,-163.34"/>
<polygon fill="black" stroke="black" points="25.91,-164.04 23.42,-153.74 18.95,-163.35 25.91,-164.04"/>
<polygon fill="none" stroke="black" points="40,-193 40,-211 310,-211 310,-193 40,-193"/>
<text text-anchor="start" x="151" y="-200" font-family="Courier New" font-weight="bold" font-size="10.00" fill="orange">CLICK(,)</text>
<polygon fill="none" stroke="black" points="40,-173 40,-191 310,-191 310,-173 40,-173"/>
<text text-anchor="start" x="43" y="-179" font-family="Courier New" font-size="10.00" fill="blue">SETTEXT(ID_MYLABEL,&quot;This Is Some New Text&quot;);</text>
<polygon fill="none" stroke="black" points="37,-170 37,-214 313,-214 313,-170 37,-170"/>
</g>
<!-- A -->
<g id="node4" class="node">
<title>A</title>
<polyline fill="none" stroke="darkred" points="387,-123 401,-123"/>
<text text-anchor="start" x="390" y="-130.4" font-family="Courier New" font-weight="bold" font-size="14.00">A</text>
<path fill="none" stroke="darkred" d="M390.67,-120C390.67,-120 397.33,-120 397.33,-120 400.67,-120 404,-123.33 404,-126.67 404,-126.67 404,-141.33 404,-141.33 404,-144.67 400.67,-148 397.33,-148 397.33,-148 390.67,-148 390.67,-148 387.33,-148 384,-144.67 384,-141.33 384,-141.33 384,-126.67 384,-126.67 384,-123.33 387.33,-120 390.67,-120"/>
</g>
<!-- 0&#45;&gt;A -->
<g id="edge2" class="edge">
<title>0&#45;&gt;A</title>
<path fill="none" stroke="black" d="M321.24,-252.58C316.36,-231.54 311.48,-195.34 327,-170 333.72,-159.03 345.11,-151.33 356.62,-146.01"/>
<polygon fill="black" stroke="black" points="357.73,-149.33 365.68,-142.33 355.1,-142.85 357.73,-149.33"/>
<polygon fill="none" stroke="black" points="330,-193 330,-211 438,-211 438,-193 330,-193"/>
<text text-anchor="start" x="347.99" y="-200" font-family="Courier New" font-weight="bold" font-size="10.00" fill="blue">Z_EPSILON(,)</text>
<polygon fill="none" stroke="black" points="330,-173 330,-191 438,-191 438,-173 330,-173"/>
<text text-anchor="start" x="333" y="-179" font-family="Courier New" font-size="10.00" fill="blue">SHOW(IDS_BTN_OK);</text>
<polygon fill="none" stroke="black" points="327,-170 327,-214 441,-214 441,-170 327,-170"/>
</g>
<!-- 0&#45;&gt;A -->
<g id="edge3" class="edge">
<title>0&#45;&gt;A</title>
<path fill="none" stroke="black" d="M338.35,-252.75C344.64,-245.34 352.89,-237.16 362,-232 393.34,-214.27 418.54,-242.15 441,-214 453.2,-198.71 449.78,-187.48 441,-170 438.33,-164.68 434.42,-159.97 429.99,-155.86"/>
<polygon fill="black" stroke="black" points="432.18,-153.13 422.18,-149.64 427.82,-158.6 432.18,-153.13"/>
<polygon fill="none" stroke="black" points="451,-193 451,-211 559,-211 559,-193 451,-193"/>
<text text-anchor="start" x="468.99" y="-200" font-family="Courier New" font-weight="bold" font-size="10.00" fill="blue">Z_EPSILON(,)</text>
<polygon fill="none" stroke="black" points="451,-173 451,-191 559,-191 559,-173 451,-173"/>
<text text-anchor="start" x="454" y="-179" font-family="Courier New" font-size="10.00" fill="blue">SHOW(IDS_BTN_OK);</text>
<polygon fill="none" stroke="black" points="448,-170 448,-214 562,-214 562,-170 448,-170"/>
</g>
<!-- B -->
<g id="node5" class="node">
<title>B</title>
<ellipse fill="none" stroke="black" cx="394" cy="-18" rx="27" ry="18"/>
<text text-anchor="middle" x="394" y="-13.8" font-family="Courier New" font-size="14.00">B</text>
</g>
<!-- A&#45;&gt;B -->
<g id="edge4" class="edge">
<title>A&#45;&gt;B</title>
<path fill="none" stroke="black" d="M394,-116.18C394,-98.18 394,-69.31 394,-47.71"/>
<polygon fill="black" stroke="black" points="397.5,-47.78 394,-37.78 390.5,-47.78 397.5,-47.78"/>
<polygon fill="none" stroke="black" points="397,-77 397,-95 667,-95 667,-77 397,-77"/>
<text text-anchor="start" x="508" y="-84" font-family="Courier New" font-weight="bold" font-size="10.00" fill="orange">CLICK(,)</text>
<polygon fill="none" stroke="black" points="397,-57 397,-75 667,-75 667,-57 397,-57"/>
<text text-anchor="start" x="400" y="-63" font-family="Courier New" font-size="10.00" fill="blue">SETTEXT(ID_MYLABEL,&quot;This Is Some New Text&quot;);</text>
<polygon fill="none" stroke="black" points="394,-54 394,-98 670,-98 670,-54 394,-54"/>
</g>
<!-- status -->
<g id="node6" class="node">
<title>status</title>
<polygon fill="none" stroke="black" points="371,-232.5 371,-308.5 735,-308.5 735,-232.5 371,-232.5"/>
<polygon fill="none" stroke="black" points="382,-283.5 382,-301.5 724,-301.5 724,-283.5 382,-283.5"/>
<text text-anchor="start" x="526" y="-290.5" font-family="Courier New" font-weight="bold" font-size="10.00">clickbait</text>
<polygon fill="none" stroke="black" points="382,-239.5 382,-281.5 724,-281.5 724,-239.5 382,-239.5"/>
<text text-anchor="start" x="385" y="-269.5" font-family="Courier New" font-size="10.00" fill="green">VIEW::IDV_MEFLINTEXT @pos(left:300, top:120)</text>
<text text-anchor="start" x="385" y="-257.5" font-family="Courier New" font-size="10.00" fill="green">clickbait::m_mefltext(&#39;IDS_BTN_OK&#39;,&#39;3&#39;,&#39;&#39;,&#39;SOUND_LEVER&#39;)</text>
<text text-anchor="start" x="385" y="-245.5" font-family="Courier New" font-size="10.00" fill="green">{state:&#39;B&#39;: wSprite:IDS_BTN_OK</text>
<polygon fill="none" stroke="black" points="379,-236.5 379,-304.5 727,-304.5 727,-236.5 379,-236.5"/>
</g>
</g>
</svg>
