<?xml version="1.0" encoding="UTF-8" standalone="no"?>
<!DOCTYPE svg PUBLIC "-//W3C//DTD SVG 1.1//EN"
 "http://www.w3.org/Graphics/SVG/1.1/DTD/svg11.dtd">
<!-- Generated by graphviz version 7.1.0 (20230121.1956)
 -->
<!-- Pages: 1 -->
<svg width="444pt" height="606pt"
 viewBox="0.00 0.00 443.81 605.60" xmlns="http://www.w3.org/2000/svg" xmlns:xlink="http://www.w3.org/1999/xlink">
<g id="graph0" class="graph" transform="scale(1 1) rotate(0) translate(4 601.6)">
<polygon fill="white" stroke="none" points="-4,4 -4,-601.6 439.81,-601.6 439.81,4 -4,4"/>
<!-- M02_LOCK_0 -->
<g id="node1" class="node">
<title>M02_LOCK_0</title>
<polygon fill="none" stroke="black" points="140.5,-561.1 140.5,-597.1 242.06,-597.1 242.06,-561.1 140.5,-561.1"/>
<text text-anchor="middle" x="191.28" y="-574.9" font-family="Times,serif" font-size="14.00">M02_LOCK_0</text>
</g>
<!-- M02_LOCK_1 -->
<g id="node2" class="node">
<title>M02_LOCK_1</title>
<polygon fill="none" stroke="black" points="72.5,-471.3 72.5,-507.3 174.06,-507.3 174.06,-471.3 72.5,-471.3"/>
<text text-anchor="middle" x="123.28" y="-485.1" font-family="Times,serif" font-size="14.00">M02_LOCK_1</text>
</g>
<!-- M02_LOCK_0&#45;&gt;M02_LOCK_1 -->
<g id="edge1" class="edge">
<title>M02_LOCK_0&#45;&gt;M02_LOCK_1</title>
<path fill="none" stroke="green" d="M152.76,-561.16C145.12,-556.19 137.88,-550.04 132.76,-542.6 127.93,-535.57 125.35,-526.8 124.03,-518.46"/>
<polygon fill="green" stroke="green" points="127.53,-518.29 123.04,-508.69 120.56,-518.99 127.53,-518.29"/>
<text text-anchor="start" x="133.28" y="-531" font-family="Times,serif" font-size="14.00" fill="green"> </text>
<text text-anchor="start" x="136.78" y="-531" font-family="Courier New" font-size="10.00" fill="green">C_ACCEPT(,IDC_KEY)</text>
</g>
<!-- M02_LOCK_2 -->
<g id="node3" class="node">
<title>M02_LOCK_2</title>
<polygon fill="none" stroke="black" points="58.5,-381.5 58.5,-417.5 160.06,-417.5 160.06,-381.5 58.5,-381.5"/>
<text text-anchor="middle" x="109.28" y="-395.3" font-family="Times,serif" font-size="14.00">M02_LOCK_2</text>
</g>
<!-- M02_LOCK_1&#45;&gt;M02_LOCK_2 -->
<g id="edge2" class="edge">
<title>M02_LOCK_1&#45;&gt;M02_LOCK_2</title>
<path fill="none" stroke="red" d="M120.58,-471.37C118.64,-459.22 115.99,-442.58 113.74,-428.47"/>
<polygon fill="red" stroke="red" points="117.24,-428.2 112.21,-418.87 110.33,-429.3 117.24,-428.2"/>
<text text-anchor="start" x="118.28" y="-441.2" font-family="Times,serif" font-size="14.00" fill="red"> </text>
<text text-anchor="start" x="121.78" y="-441.2" font-family="Courier New" font-size="10.00" fill="red">DROP(,)</text>
</g>
<!-- M02_LOCK_9 -->
<g id="node4" class="node">
<title>M02_LOCK_9</title>
<polygon fill="none" stroke="black" points="76.5,-238.5 76.5,-274.5 178.06,-274.5 178.06,-238.5 76.5,-238.5"/>
<text text-anchor="middle" x="127.28" y="-252.3" font-family="Times,serif" font-size="14.00">M02_LOCK_9</text>
</g>
<!-- M02_LOCK_2&#45;&gt;M02_LOCK_9 -->
<g id="edge3" class="edge">
<title>M02_LOCK_2&#45;&gt;M02_LOCK_9</title>
<path fill="none" stroke="green" d="M107.1,-381.78C104.87,-360.75 102.65,-323.67 109.86,-293 110.52,-290.19 111.43,-287.35 112.49,-284.56"/>
<polygon fill="green" stroke="green" points="115.6,-286.18 116.52,-275.63 109.22,-283.31 115.6,-286.18"/>
<text text-anchor="start" x="139.73" y="-351.4" font-family="Times,serif" font-size="14.00" fill="green"> </text>
<text text-anchor="start" x="143.23" y="-351.4" font-family="Courier New" font-size="10.00" fill="green">Z_EPSILON(,)</text>
<text text-anchor="start" x="110.28" y="-334.8" font-family="Courier New" font-size="8.00" fill="green"> &#160;&#160;&#160;PLAYWAVE(SOUND_LEVER);</text>
<text text-anchor="start" x="110.28" y="-326.8" font-family="Courier New" font-size="8.00" fill="green"> &#160;&#160;&#160;MOV(WTEMP1,WTHIS);</text>
<text text-anchor="start" x="110.28" y="-318.8" font-family="Courier New" font-size="8.00" fill="green"> &#160;&#160;&#160;ADDI(WTEMP1,1);</text>
<text text-anchor="start" x="110.28" y="-310.8" font-family="Courier New" font-size="8.00" fill="green"> &#160;&#160;&#160;SIGNAL(WTEMP1,SIG_OPEN);</text>
<text text-anchor="start" x="110.28" y="-302.8" font-family="Courier New" font-size="8.00" fill="green"> &#160;&#160;&#160;O_ACCEPT(WOBJECT);</text>
<text text-anchor="start" x="110.28" y="-294.8" font-family="Courier New" font-size="8.00" fill="green"> &#160;&#160;&#160;SHOW(0,IDS_LOCKWKEY);</text>
</g>
<!-- M02_LOCK_10 -->
<g id="node5" class="node">
<title>M02_LOCK_10</title>
<polygon fill="none" stroke="black" points="83,-111.5 83,-147.5 191.56,-147.5 191.56,-111.5 83,-111.5"/>
<text text-anchor="middle" x="137.28" y="-125.3" font-family="Times,serif" font-size="14.00">M02_LOCK_10</text>
</g>
<!-- M02_LOCK_9&#45;&gt;M02_LOCK_10 -->
<g id="edge4" class="edge">
<title>M02_LOCK_9&#45;&gt;M02_LOCK_10</title>
<path fill="none" stroke="red" d="M128.63,-238.64C130.26,-218.23 133.04,-183.55 135,-158.97"/>
<polygon fill="red" stroke="red" points="138.49,-159.25 135.8,-149 131.51,-158.69 138.49,-159.25"/>
<text text-anchor="start" x="165.33" y="-208.4" font-family="Times,serif" font-size="14.00" fill="red"> </text>
<text text-anchor="start" x="168.83" y="-208.4" font-family="Courier New" font-size="10.00" fill="red">GRAB(,)</text>
<text text-anchor="start" x="135.28" y="-191.8" font-family="Courier New" font-size="8.00" fill="red"> &#160;&#160;&#160;CLEAR(WOBJECT);</text>
<text text-anchor="start" x="135.28" y="-183.8" font-family="Courier New" font-size="8.00" fill="red"> &#160;&#160;&#160;SHOW();</text>
<text text-anchor="start" x="135.28" y="-175.8" font-family="Courier New" font-size="8.00" fill="red"> &#160;&#160;&#160;MOV(WTEMP1,WTHIS);</text>
<text text-anchor="start" x="135.28" y="-167.8" font-family="Courier New" font-size="8.00" fill="red"> &#160;&#160;&#160;ADDI(WTEMP1,1);</text>
</g>
<!-- M02_LOCK_10&#45;&gt;M02_LOCK_0 -->
<g id="edge5" class="edge">
<title>M02_LOCK_10&#45;&gt;M02_LOCK_0</title>
<path fill="none" stroke="green" d="M191.46,-136.69C210.8,-141.61 231.06,-150.39 244.28,-166 270.3,-196.72 258.28,-215.24 258.28,-255.5 258.28,-490.3 258.28,-490.3 258.28,-490.3 258.28,-514.36 258.28,-523.03 244.28,-542.6 241.18,-546.93 237.37,-550.89 233.24,-554.46"/>
<polygon fill="green" stroke="green" points="231.4,-551.45 225.6,-560.32 235.67,-557.01 231.4,-551.45"/>
<text text-anchor="start" x="258.28" y="-396.3" font-family="Times,serif" font-size="14.00" fill="green"> </text>
<text text-anchor="start" x="261.78" y="-396.3" font-family="Courier New" font-size="10.00" fill="green">IFSTATE(M02_OPENEMPTY,WTEMP1)</text>
</g>
<!-- M02_LOCK_15 -->
<g id="node6" class="node">
<title>M02_LOCK_15</title>
<polygon fill="none" stroke="black" points="0,-0.5 0,-36.5 108.56,-36.5 108.56,-0.5 0,-0.5"/>
<text text-anchor="middle" x="54.28" y="-14.3" font-family="Times,serif" font-size="14.00">M02_LOCK_15</text>
</g>
<!-- M02_LOCK_10&#45;&gt;M02_LOCK_15 -->
<g id="edge6" class="edge">
<title>M02_LOCK_10&#45;&gt;M02_LOCK_15</title>
<path fill="none" stroke="green" d="M124.67,-111.95C111.21,-94.26 89.68,-65.99 73.97,-45.36"/>
<polygon fill="green" stroke="green" points="76.76,-43.25 67.92,-37.41 71.19,-47.49 76.76,-43.25"/>
<text text-anchor="start" x="140.13" y="-81.4" font-family="Times,serif" font-size="14.00" fill="green"> </text>
<text text-anchor="start" x="143.63" y="-81.4" font-family="Courier New" font-size="10.00" fill="green">Z_EPSILON(,)</text>
<text text-anchor="start" x="108.28" y="-64.8" font-family="Courier New" font-size="8.00" fill="green"> &#160;&#160;&#160;PLAYWAVE(SOUND_LEVER);</text>
<text text-anchor="start" x="108.28" y="-56.8" font-family="Courier New" font-size="8.00" fill="green"> &#160;&#160;&#160;SIGNAL(WTEMP1,SIG_CLOSE);</text>
</g>
<!-- M02_LOCK_15&#45;&gt;M02_LOCK_2 -->
<g id="edge7" class="edge">
<title>M02_LOCK_15&#45;&gt;M02_LOCK_2</title>
<path fill="none" stroke="red" d="M52.16,-36.25C48.18,-70.82 40.85,-152.49 50.77,-220 54.48,-245.25 59.5,-250.69 67.28,-275 77.89,-308.14 90.89,-346 99.6,-370.96"/>
<polygon fill="red" stroke="red" points="96.28,-372.07 102.88,-380.36 102.88,-369.76 96.28,-372.07"/>
<text text-anchor="start" x="51.28" y="-189.8" font-family="Times,serif" font-size="14.00" fill="red"> </text>
<text text-anchor="start" x="54.78" y="-189.8" font-family="Courier New" font-size="10.00" fill="red">DROP(WPARM,)</text>
</g>
</g>
</svg>
