<?xml version="1.0" encoding="UTF-8" standalone="no"?>
<!DOCTYPE svg PUBLIC "-//W3C//DTD SVG 1.1//EN"
 "http://www.w3.org/Graphics/SVG/1.1/DTD/svg11.dtd">
<!-- Generated by graphviz version 7.1.0 (20230121.1956)
 -->
<!-- Pages: 1 -->
<svg width="280pt" height="70pt"
 viewBox="0.00 0.00 280.14 70.00" xmlns="http://www.w3.org/2000/svg" xmlns:xlink="http://www.w3.org/1999/xlink">
<g id="graph0" class="graph" transform="scale(1 1) rotate(0) translate(4 66)">
<polygon fill="white" stroke="none" points="-4,4 -4,-66 276.14,-66 276.14,4 -4,4"/>
<!-- M02_NUM10_0 -->
<g id="node1" class="node">
<title>M02_NUM10_0</title>
<polygon fill="none" stroke="black" points="0,-13 0,-49 110.12,-49 110.12,-13 0,-13"/>
<text text-anchor="middle" x="55.06" y="-26.8" font-family="Times,serif" font-size="14.00">M02_NUM10_0</text>
</g>
<!-- M02_NUM10_0&#45;&gt;M02_NUM10_0 -->
<g id="edge1" class="edge">
<title>M02_NUM10_0&#45;&gt;M02_NUM10_0</title>
<path fill="none" stroke="red" d="M109.86,-37.63C120.54,-36.86 128.12,-34.65 128.12,-31 128.12,-28.83 125.44,-27.17 121.04,-26.02"/>
<polygon fill="red" stroke="red" points="121.76,-22.59 111.36,-24.59 120.74,-29.52 121.76,-22.59"/>
<text text-anchor="start" x="177.38" y="-50.4" font-family="Times,serif" font-size="14.00" fill="red"> </text>
<text text-anchor="start" x="180.88" y="-50.4" font-family="Courier New" font-size="10.00" fill="red">WAIT(,)</text>
<text text-anchor="start" x="128.12" y="-33.8" font-family="Courier New" font-size="8.00" fill="red"> &#160;&#160;&#160;REF_MACHINE(WIP_S02_VIAL);</text>
<text text-anchor="start" x="128.12" y="-25.8" font-family="Courier New" font-size="8.00" fill="red"> &#160;&#160;&#160;MOV(BFRAME,R_WPARM);</text>
<text text-anchor="start" x="128.12" y="-17.8" font-family="Courier New" font-size="8.00" fill="red"> &#160;&#160;&#160;SUB(BFRAME,R_BPARM);</text>
<text text-anchor="start" x="128.12" y="-9.8" font-family="Courier New" font-size="8.00" fill="red"> &#160;&#160;&#160;DIVI(BFRAME,10);</text>
<text text-anchor="start" x="128.12" y="-1.8" font-family="Courier New" font-size="8.00" fill="red"> &#160;&#160;&#160;SHOW(0,IDS_CITYNUM);</text>
</g>
</g>
</svg>
