<?xml version="1.0" encoding="UTF-8" standalone="no"?>
<!DOCTYPE svg PUBLIC "-//W3C//DTD SVG 1.1//EN"
 "http://www.w3.org/Graphics/SVG/1.1/DTD/svg11.dtd">
<!-- Generated by graphviz version 7.1.0 (20230121.1956)
 -->
<!-- Title: Automaton Pages: 1 -->
<svg width="463pt" height="701pt"
 viewBox="0.00 0.00 463.00 701.00" xmlns="http://www.w3.org/2000/svg" xmlns:xlink="http://www.w3.org/1999/xlink">
<g id="graph0" class="graph" transform="scale(1 1) rotate(0) translate(4 697)">
<title>Automaton</title>
<polygon fill="white" stroke="none" points="-4,4 -4,-697 459,-697 459,4 -4,4"/>
<!-- filename -->
<g id="node1" class="node">
<title>filename</title>
<polygon fill="none" stroke="black" points="29,-640.5 29,-692.5 147,-692.5 147,-640.5 29,-640.5"/>
<polygon fill="none" stroke="black" points="40,-667.5 40,-685.5 136,-685.5 136,-667.5 40,-667.5"/>
<text text-anchor="start" x="64" y="-674.5" font-family="Courier New" font-weight="bold" font-size="10.00">M02_LOCK</text>
<polygon fill="none" stroke="black" points="40,-647.5 40,-665.5 136,-665.5 136,-647.5 40,-647.5"/>
<text text-anchor="start" x="43" y="-653.5" font-family="Courier New" font-size="10.00" fill="brown">start state = 0</text>
<polygon fill="none" stroke="black" points="37,-644.5 37,-688.5 139,-688.5 139,-644.5 37,-644.5"/>
</g>
<!-- 0 -->
<g id="node2" class="node">
<title>0</title>
<polyline fill="none" stroke="darkred" points="185,-655.5 199,-655.5"/>
<text text-anchor="start" x="188" y="-662.9" font-family="Courier New" font-weight="bold" font-size="14.00">0</text>
<path fill="none" stroke="darkred" d="M188.67,-652.5C188.67,-652.5 195.33,-652.5 195.33,-652.5 198.67,-652.5 202,-655.83 202,-659.17 202,-659.17 202,-673.83 202,-673.83 202,-677.17 198.67,-680.5 195.33,-680.5 195.33,-680.5 188.67,-680.5 188.67,-680.5 185.33,-680.5 182,-677.17 182,-673.83 182,-673.83 182,-659.17 182,-659.17 182,-655.83 185.33,-652.5 188.67,-652.5"/>
</g>
<!-- 1 -->
<g id="node3" class="node">
<title>1</title>
<polyline fill="none" stroke="darkred" points="95,-555 109,-555"/>
<text text-anchor="start" x="98" y="-562.4" font-family="Courier New" font-weight="bold" font-size="14.00">1</text>
<path fill="none" stroke="darkred" d="M98.67,-552C98.67,-552 105.33,-552 105.33,-552 108.67,-552 112,-555.33 112,-558.67 112,-558.67 112,-573.33 112,-573.33 112,-576.67 108.67,-580 105.33,-580 105.33,-580 98.67,-580 98.67,-580 95.33,-580 92,-576.67 92,-573.33 92,-573.33 92,-558.67 92,-558.67 92,-555.33 95.33,-552 98.67,-552"/>
</g>
<!-- 0&#45;&gt;1 -->
<g id="edge1" class="edge">
<title>0&#45;&gt;1</title>
<path fill="none" stroke="black" d="M171.11,-648.6C162.07,-640.88 151.62,-631.39 143,-622 134.75,-613.01 126.54,-602.41 119.66,-592.93"/>
<polygon fill="black" stroke="black" points="122.53,-590.94 113.89,-584.8 116.82,-594.98 122.53,-590.94"/>
<text text-anchor="start" x="147" y="-610" font-family="Courier New" font-weight="bold" font-size="10.00" fill="blue">C_ACCEPT(,IDC_KEY)</text>
</g>
<!-- 2 -->
<g id="node4" class="node">
<title>2</title>
<polyline fill="none" stroke="darkred" points="71,-463 85,-463"/>
<text text-anchor="start" x="74" y="-470.4" font-family="Courier New" font-weight="bold" font-size="14.00">2</text>
<path fill="none" stroke="darkred" d="M74.67,-460C74.67,-460 81.33,-460 81.33,-460 84.67,-460 88,-463.33 88,-466.67 88,-466.67 88,-481.33 88,-481.33 88,-484.67 84.67,-488 81.33,-488 81.33,-488 74.67,-488 74.67,-488 71.33,-488 68,-484.67 68,-481.33 68,-481.33 68,-466.67 68,-466.67 68,-463.33 71.33,-460 74.67,-460"/>
</g>
<!-- 1&#45;&gt;2 -->
<g id="edge2" class="edge">
<title>1&#45;&gt;2</title>
<path fill="none" stroke="black" d="M97.49,-548.07C94.1,-535.38 89.39,-517.71 85.45,-502.94"/>
<polygon fill="black" stroke="black" points="88.84,-502.08 82.88,-493.31 82.08,-503.88 88.84,-502.08"/>
<text text-anchor="start" x="97" y="-518" font-family="Courier New" font-weight="bold" font-size="10.00" fill="orange">DROP(,)</text>
</g>
<!-- 9 -->
<g id="node7" class="node">
<title>9</title>
<polyline fill="none" stroke="darkred" points="89,-287 103,-287"/>
<text text-anchor="start" x="92" y="-294.4" font-family="Courier New" font-weight="bold" font-size="14.00">9</text>
<path fill="none" stroke="darkred" d="M92.67,-284C92.67,-284 99.33,-284 99.33,-284 102.67,-284 106,-287.33 106,-290.67 106,-290.67 106,-305.33 106,-305.33 106,-308.67 102.67,-312 99.33,-312 99.33,-312 92.67,-312 92.67,-312 89.33,-312 86,-308.67 86,-305.33 86,-305.33 86,-290.67 86,-290.67 86,-287.33 89.33,-284 92.67,-284"/>
</g>
<!-- 2&#45;&gt;9 -->
<g id="edge6" class="edge">
<title>2&#45;&gt;9</title>
<path fill="none" stroke="black" d="M75.74,-456.03C72.76,-429.55 68.95,-377 79,-334 79.61,-331.39 80.44,-328.75 81.4,-326.15"/>
<polygon fill="black" stroke="black" points="84.49,-327.83 85.32,-317.27 78.08,-325.01 84.49,-327.83"/>
<polygon fill="none" stroke="black" points="82,-417 82,-435 256,-435 256,-417 82,-417"/>
<text text-anchor="start" x="132.99" y="-424" font-family="Courier New" font-weight="bold" font-size="10.00" fill="blue">Z_EPSILON(,)</text>
<polygon fill="none" stroke="black" points="82,-337 82,-415 256,-415 256,-337 82,-337"/>
<text text-anchor="start" x="85" y="-403" font-family="Courier New" font-size="10.00" fill="blue"> &#160;&#160;&#160;PLAYWAVE(SOUND_LEVER);</text>
<text text-anchor="start" x="85" y="-391" font-family="Courier New" font-size="10.00" fill="blue"> &#160;&#160;&#160;MOV(WTEMP1,WTHIS);</text>
<text text-anchor="start" x="85" y="-379" font-family="Courier New" font-size="10.00" fill="blue"> &#160;&#160;&#160;ADDI(WTEMP1,1);</text>
<text text-anchor="start" x="85" y="-367" font-family="Courier New" font-size="10.00" fill="blue"> &#160;&#160;&#160;SIGNAL(WTEMP1,SIG_OPEN);</text>
<text text-anchor="start" x="85" y="-355" font-family="Courier New" font-size="10.00" fill="blue"> &#160;&#160;&#160;O_ACCEPT(WOBJECT);</text>
<text text-anchor="start" x="85" y="-343" font-family="Courier New" font-size="10.00" fill="blue"> &#160;&#160;&#160;SHOW(0,IDS_LOCKWKEY);</text>
<polygon fill="none" stroke="black" points="79,-334 79,-438 259,-438 259,-334 79,-334"/>
</g>
<!-- 10 -->
<g id="node5" class="node">
<title>10</title>
<polyline fill="none" stroke="darkred" points="103,-135 125,-135"/>
<text text-anchor="start" x="106" y="-142.4" font-family="Courier New" font-weight="bold" font-size="14.00">10</text>
<path fill="none" stroke="darkred" d="M109.33,-132C109.33,-132 118.67,-132 118.67,-132 123.33,-132 128,-136.67 128,-141.33 128,-141.33 128,-150.67 128,-150.67 128,-155.33 123.33,-160 118.67,-160 118.67,-160 109.33,-160 109.33,-160 104.67,-160 100,-155.33 100,-150.67 100,-150.67 100,-141.33 100,-141.33 100,-136.67 104.67,-132 109.33,-132"/>
</g>
<!-- 10&#45;&gt;0 -->
<g id="edge3" class="edge">
<title>10&#45;&gt;0</title>
<path fill="none" stroke="black" d="M140.76,-149.9C177.99,-154.52 242.58,-164.81 258,-182 292.41,-220.37 273,-245.46 273,-297 273,-567 273,-567 273,-567 273,-592.22 273.7,-601.5 259,-622 251.19,-632.9 239.72,-641.77 228.47,-648.59"/>
<polygon fill="black" stroke="black" points="227.07,-645.36 220.06,-653.31 230.49,-651.47 227.07,-645.36"/>
<text text-anchor="start" x="277" y="-472" font-family="Courier New" font-weight="bold" font-size="10.00" fill="blue">IFSTATE(M02_OPENEMPTY,WTEMP1)</text>
</g>
<!-- 15 -->
<g id="node6" class="node">
<title>15</title>
<polyline fill="none" stroke="darkred" points="16,-7 38,-7"/>
<text text-anchor="start" x="19" y="-14.4" font-family="Courier New" font-weight="bold" font-size="14.00">15</text>
<path fill="none" stroke="darkred" d="M22.33,-4C22.33,-4 31.67,-4 31.67,-4 36.33,-4 41,-8.67 41,-13.33 41,-13.33 41,-22.67 41,-22.67 41,-27.33 36.33,-32 31.67,-32 31.67,-32 22.33,-32 22.33,-32 17.67,-32 13,-27.33 13,-22.67 13,-22.67 13,-13.33 13,-13.33 13,-8.67 17.67,-4 22.33,-4"/>
</g>
<!-- 10&#45;&gt;15 -->
<g id="edge4" class="edge">
<title>10&#45;&gt;15</title>
<path fill="none" stroke="black" d="M102.27,-128.01C87.53,-106.66 62.08,-69.81 44.91,-44.93"/>
<polygon fill="black" stroke="black" points="47.97,-43.21 39.41,-36.97 42.21,-47.19 47.97,-43.21"/>
<polygon fill="none" stroke="black" points="92,-89 92,-107 272,-107 272,-89 92,-89"/>
<text text-anchor="start" x="145.99" y="-96" font-family="Courier New" font-weight="bold" font-size="10.00" fill="blue">Z_EPSILON(,)</text>
<polygon fill="none" stroke="black" points="92,-57 92,-87 272,-87 272,-57 92,-57"/>
<text text-anchor="start" x="95" y="-75" font-family="Courier New" font-size="10.00" fill="blue"> &#160;&#160;&#160;PLAYWAVE(SOUND_LEVER);</text>
<text text-anchor="start" x="95" y="-63" font-family="Courier New" font-size="10.00" fill="blue"> &#160;&#160;&#160;SIGNAL(WTEMP1,SIG_CLOSE);</text>
<polygon fill="none" stroke="black" points="89,-54 89,-110 275,-110 275,-54 89,-54"/>
</g>
<!-- 15&#45;&gt;2 -->
<g id="edge5" class="edge">
<title>15&#45;&gt;2</title>
<path fill="none" stroke="black" d="M25.64,-35.64C23.31,-65.12 18.64,-128.44 17,-182 15.91,-217.54 12.01,-226.8 17,-262 26.56,-329.52 52.54,-405.68 67.32,-445.46"/>
<polygon fill="black" stroke="black" points="64.01,-446.59 70.81,-454.71 70.56,-444.12 64.01,-446.59"/>
<text text-anchor="start" x="21" y="-220" font-family="Courier New" font-weight="bold" font-size="10.00" fill="orange">DROP(WPARM,)</text>
</g>
<!-- 9&#45;&gt;10 -->
<g id="edge7" class="edge">
<title>9&#45;&gt;10</title>
<path fill="none" stroke="black" d="M98.03,-280.08C101.1,-254.52 106.95,-205.74 110.66,-174.87"/>
<polygon fill="black" stroke="black" points="114.11,-175.47 111.82,-165.13 107.16,-174.64 114.11,-175.47"/>
<polygon fill="none" stroke="black" points="113,-241 113,-259 251,-259 251,-241 113,-241"/>
<text text-anchor="start" x="161" y="-248" font-family="Courier New" font-weight="bold" font-size="10.00" fill="orange">GRAB(,)</text>
<polygon fill="none" stroke="black" points="113,-185 113,-239 251,-239 251,-185 113,-185"/>
<text text-anchor="start" x="116" y="-227" font-family="Courier New" font-size="10.00" fill="blue"> &#160;&#160;&#160;CLEAR(WOBJECT);</text>
<text text-anchor="start" x="116" y="-215" font-family="Courier New" font-size="10.00" fill="blue"> &#160;&#160;&#160;SHOW();</text>
<text text-anchor="start" x="116" y="-203" font-family="Courier New" font-size="10.00" fill="blue"> &#160;&#160;&#160;MOV(WTEMP1,WTHIS);</text>
<text text-anchor="start" x="116" y="-191" font-family="Courier New" font-size="10.00" fill="blue"> &#160;&#160;&#160;ADDI(WTEMP1,1);</text>
<polygon fill="none" stroke="black" points="110,-182 110,-262 254,-262 254,-182 110,-182"/>
</g>
</g>
</svg>
