<?xml version="1.0" encoding="UTF-8" standalone="no"?>
<!DOCTYPE svg PUBLIC "-//W3C//DTD SVG 1.1//EN"
 "http://www.w3.org/Graphics/SVG/1.1/DTD/svg11.dtd">
<!-- Generated by graphviz version 7.1.0 (20230121.1956)
 -->
<!-- Pages: 1 -->
<svg width="506pt" height="721pt"
 viewBox="0.00 0.00 506.00 721.00" xmlns="http://www.w3.org/2000/svg" xmlns:xlink="http://www.w3.org/1999/xlink">
<g id="graph0" class="graph" transform="scale(1 1) rotate(0) translate(4 717)">
<polygon fill="white" stroke="none" points="-4,4 -4,-717 502,-717 502,4 -4,4"/>
<!-- 0 -->
<g id="node1" class="node">
<title>0</title>
<ellipse fill="none" stroke="black" cx="187" cy="-695" rx="27" ry="18"/>
<text text-anchor="middle" x="187" y="-690.8" font-family="Times,serif" font-size="14.00">0</text>
</g>
<!-- 1 -->
<g id="node2" class="node">
<title>1</title>
<ellipse fill="none" stroke="black" cx="107" cy="-601" rx="27" ry="18"/>
<text text-anchor="middle" x="107" y="-596.8" font-family="Times,serif" font-size="14.00">1</text>
</g>
<!-- 0&#45;&gt;1 -->
<g id="edge1" class="edge">
<title>0&#45;&gt;1</title>
<path fill="none" stroke="black" d="M169.24,-681.07C161.35,-674.87 152.23,-667.05 145,-659 136.53,-649.58 128.54,-638.13 122.08,-627.97"/>
<polygon fill="black" stroke="black" points="125.19,-626.35 116.97,-619.66 119.22,-630.01 125.19,-626.35"/>
<text text-anchor="start" x="149" y="-645.2" font-family="Courier New" font-weight="bold" font-size="12.00" fill="blue">C_ACCEPT(IDC_KEY)</text>
</g>
<!-- 2 -->
<g id="node3" class="node">
<title>2</title>
<ellipse fill="none" stroke="black" cx="86" cy="-507" rx="27" ry="18"/>
<text text-anchor="middle" x="86" y="-502.8" font-family="Times,serif" font-size="14.00">2</text>
</g>
<!-- 1&#45;&gt;2 -->
<g id="edge2" class="edge">
<title>1&#45;&gt;2</title>
<path fill="none" stroke="black" d="M103.05,-582.7C100.06,-569.59 95.89,-551.31 92.42,-536.11"/>
<polygon fill="black" stroke="black" points="95.91,-535.67 90.27,-526.7 89.08,-537.23 95.91,-535.67"/>
<text text-anchor="start" x="103.5" y="-551.2" font-family="Courier New" font-weight="bold" font-size="12.00" fill="orange">DROP()</text>
</g>
<!-- 9 -->
<g id="node6" class="node">
<title>9</title>
<ellipse fill="none" stroke="black" cx="104" cy="-315" rx="27" ry="18"/>
<text text-anchor="middle" x="104" y="-310.8" font-family="Times,serif" font-size="14.00">9</text>
</g>
<!-- 2&#45;&gt;9 -->
<g id="edge6" class="edge">
<title>2&#45;&gt;9</title>
<path fill="none" stroke="black" d="M83.69,-488.97C80.3,-460.12 75.56,-400.01 87,-351 87.66,-348.18 88.57,-345.32 89.64,-342.52"/>
<polygon fill="black" stroke="black" points="92.76,-344.11 93.67,-333.55 86.38,-341.24 92.76,-344.11"/>
<polygon fill="none" stroke="black" points="90,-448 90,-468 272,-468 272,-448 90,-448"/>
<text text-anchor="start" x="141.39" y="-455.2" font-family="Courier New" font-weight="bold" font-size="12.00" fill="blue">Z_EPSILON()</text>
<polygon fill="none" stroke="black" points="90,-354 90,-446 272,-446 272,-354 90,-354"/>
<text text-anchor="start" x="93" y="-432.2" font-family="Times,serif" font-size="12.00" fill="blue"> &#160;&#160;&#160;PLAYWAVE(SOUND_LEVER);</text>
<text text-anchor="start" x="93" y="-417.8" font-family="Times,serif" font-size="12.00" fill="blue"> &#160;&#160;&#160;MOV(WTEMP1,WTHIS);</text>
<text text-anchor="start" x="93" y="-403.4" font-family="Times,serif" font-size="12.00" fill="blue"> &#160;&#160;&#160;ADDI(WTEMP1,1);</text>
<text text-anchor="start" x="93" y="-389" font-family="Times,serif" font-size="12.00" fill="blue"> &#160;&#160;&#160;SIGNAL(WTEMP1,SIG_OPEN);</text>
<text text-anchor="start" x="93" y="-374.6" font-family="Times,serif" font-size="12.00" fill="blue"> &#160;&#160;&#160;O_ACCEPT(WOBJECT);</text>
<text text-anchor="start" x="93" y="-360.2" font-family="Times,serif" font-size="12.00" fill="blue"> &#160;&#160;&#160;SHOW(0,IDS_LOCKWKEY);</text>
<polygon fill="none" stroke="black" points="87,-351 87,-471 275,-471 275,-351 87,-351"/>
</g>
<!-- 10 -->
<g id="node4" class="node">
<title>10</title>
<ellipse fill="none" stroke="black" cx="121" cy="-152" rx="27" ry="18"/>
<text text-anchor="middle" x="121" y="-147.8" font-family="Times,serif" font-size="14.00">10</text>
</g>
<!-- 10&#45;&gt;0 -->
<g id="edge3" class="edge">
<title>10&#45;&gt;0</title>
<path fill="none" stroke="black" d="M147.81,-155.46C187.09,-159.65 257.42,-169.56 274,-188 311.7,-229.94 289,-257.6 289,-314 289,-602 289,-602 289,-602 289,-628.09 292.13,-639.33 275,-659 262.16,-673.75 242.25,-682.35 224.62,-687.33"/>
<polygon fill="black" stroke="black" points="223.78,-683.93 214.92,-689.74 225.47,-690.72 223.78,-683.93"/>
<text text-anchor="start" x="293.5" y="-504.2" font-family="Courier New" font-weight="bold" font-size="12.00" fill="blue">IFSTATE(M02_OPENEMPTYWTEMP1)</text>
</g>
<!-- 15 -->
<g id="node5" class="node">
<title>15</title>
<ellipse fill="none" stroke="black" cx="27" cy="-18" rx="27" ry="18"/>
<text text-anchor="middle" x="27" y="-13.8" font-family="Times,serif" font-size="14.00">15</text>
</g>
<!-- 10&#45;&gt;15 -->
<g id="edge4" class="edge">
<title>10&#45;&gt;15</title>
<path fill="none" stroke="black" d="M109.85,-135.34C93.74,-112.71 63.78,-70.65 44.65,-43.79"/>
<polygon fill="black" stroke="black" points="47.67,-41.99 39.02,-35.87 41.97,-46.05 47.67,-41.99"/>
<polygon fill="none" stroke="black" points="99,-93 99,-113 287,-113 287,-93 99,-93"/>
<text text-anchor="start" x="153.39" y="-100.2" font-family="Courier New" font-weight="bold" font-size="12.00" fill="blue">Z_EPSILON()</text>
<polygon fill="none" stroke="black" points="99,-57 99,-91 287,-91 287,-57 99,-57"/>
<text text-anchor="start" x="102" y="-77.2" font-family="Times,serif" font-size="12.00" fill="blue"> &#160;&#160;&#160;PLAYWAVE(SOUND_LEVER);</text>
<text text-anchor="start" x="102" y="-62.8" font-family="Times,serif" font-size="12.00" fill="blue"> &#160;&#160;&#160;SIGNAL(WTEMP1,SIG_CLOSE);</text>
<polygon fill="none" stroke="black" points="96,-54 96,-116 290,-116 290,-54 96,-54"/>
</g>
<!-- 15&#45;&gt;2 -->
<g id="edge5" class="edge">
<title>15&#45;&gt;2</title>
<path fill="none" stroke="black" d="M25.78,-36.26C23.68,-66.83 19.48,-132.49 18,-188 16.92,-228.43 12.14,-238.98 18,-279 28.87,-353.2 58.74,-436.83 75.04,-478.83"/>
<polygon fill="black" stroke="black" points="71.68,-479.86 78.6,-487.89 78.2,-477.3 71.68,-479.86"/>
<text text-anchor="start" x="22.5" y="-230.7" font-family="Courier New" font-weight="bold" font-size="12.00" fill="orange">DROP(WPARM)</text>
</g>
<!-- 9&#45;&gt;10 -->
<g id="edge7" class="edge">
<title>9&#45;&gt;10</title>
<path fill="none" stroke="black" d="M105.82,-296.77C108.73,-269.17 114.48,-214.77 118,-181.37"/>
<polygon fill="black" stroke="black" points="121.47,-181.92 119.03,-171.61 114.5,-181.19 121.47,-181.92"/>
<polygon fill="none" stroke="black" points="120.5,-255.5 120.5,-275.5 267.5,-275.5 267.5,-255.5 120.5,-255.5"/>
<text text-anchor="start" x="172.4" y="-262.7" font-family="Courier New" font-weight="bold" font-size="12.00" fill="orange">GRAB()</text>
<polygon fill="none" stroke="black" points="120.5,-190.5 120.5,-253.5 267.5,-253.5 267.5,-190.5 120.5,-190.5"/>
<text text-anchor="start" x="123.5" y="-239.7" font-family="Times,serif" font-size="12.00" fill="blue"> &#160;&#160;&#160;CLEAR(WOBJECT);</text>
<text text-anchor="start" x="123.5" y="-225.3" font-family="Times,serif" font-size="12.00" fill="blue"> &#160;&#160;&#160;SHOW();</text>
<text text-anchor="start" x="123.5" y="-210.9" font-family="Times,serif" font-size="12.00" fill="blue"> &#160;&#160;&#160;MOV(WTEMP1,WTHIS);</text>
<text text-anchor="start" x="123.5" y="-196.5" font-family="Times,serif" font-size="12.00" fill="blue"> &#160;&#160;&#160;ADDI(WTEMP1,1);</text>
<polygon fill="none" stroke="black" points="117,-188 117,-279 270,-279 270,-188 117,-188"/>
</g>
</g>
</svg>
