<?xml version="1.0" encoding="UTF-8" standalone="no"?>
<!DOCTYPE svg PUBLIC "-//W3C//DTD SVG 1.1//EN"
 "http://www.w3.org/Graphics/SVG/1.1/DTD/svg11.dtd">
<!-- Generated by graphviz version 7.1.0 (20230121.1956)
 -->
<!-- Pages: 1 -->
<svg width="500pt" height="140pt"
 viewBox="0.00 0.00 500.11 140.00" xmlns="http://www.w3.org/2000/svg" xmlns:xlink="http://www.w3.org/1999/xlink">
<g id="graph0" class="graph" transform="scale(1 1) rotate(0) translate(4 136)">
<polygon fill="white" stroke="none" points="-4,4 -4,-136 496.11,-136 496.11,4 -4,4"/>
<!-- M02_DN10_0 -->
<g id="node1" class="node">
<title>M02_DN10_0</title>
<polygon fill="none" stroke="black" points="84.65,-95.5 84.65,-131.5 182.32,-131.5 182.32,-95.5 84.65,-95.5"/>
<text text-anchor="middle" x="133.48" y="-109.3" font-family="Times,serif" font-size="14.00">M02_DN10_0</text>
</g>
<!-- M02_DN10_1 -->
<g id="node2" class="node">
<title>M02_DN10_1</title>
<polygon fill="none" stroke="black" points="84.65,-0.5 84.65,-36.5 182.32,-36.5 182.32,-0.5 84.65,-0.5"/>
<text text-anchor="middle" x="133.48" y="-14.3" font-family="Times,serif" font-size="14.00">M02_DN10_1</text>
</g>
<!-- M02_DN10_0&#45;&gt;M02_DN10_1 -->
<g id="edge1" class="edge">
<title>M02_DN10_0&#45;&gt;M02_DN10_1</title>
<path fill="none" stroke="red" d="M84.96,-105.2C53.12,-99.3 15.64,-89.86 5.86,-77 -16,-48.23 30.6,-33.48 73.5,-26.17"/>
<polygon fill="red" stroke="red" points="74.04,-29.63 83.37,-24.62 72.95,-22.72 74.04,-29.63"/>
<text text-anchor="start" x="33.54" y="-65.4" font-family="Times,serif" font-size="14.00" fill="red"> </text>
<text text-anchor="start" x="37.04" y="-65.4" font-family="Courier New" font-size="10.00" fill="red">CLICK(,)</text>
<text text-anchor="start" x="6.48" y="-56.8" font-family="Courier New" font-size="8.00" fill="red">PLAYWAVE(SOUND_CLICK);</text>
</g>
<!-- M02_DN10_1&#45;&gt;M02_DN10_0 -->
<g id="edge2" class="edge">
<title>M02_DN10_1&#45;&gt;M02_DN10_0</title>
<path fill="none" stroke="green" d="M133.48,-36.3C133.48,-49.75 133.48,-68.91 133.48,-84.65"/>
<polygon fill="green" stroke="green" points="129.98,-84.36 133.48,-94.36 136.98,-84.36 129.98,-84.36"/>
<text text-anchor="start" x="133.48" y="-62.8" font-family="Times,serif" font-size="14.00" fill="green"> </text>
<text text-anchor="start" x="136.98" y="-62.8" font-family="Courier New" font-size="10.00" fill="green">IFSTATE(M02_LOCKED,WIP_S02_LOCK)</text>
</g>
<!-- M02_DN10_1&#45;&gt;M02_DN10_0 -->
<g id="edge3" class="edge">
<title>M02_DN10_1&#45;&gt;M02_DN10_0</title>
<path fill="none" stroke="green" d="M182.31,-18.66C253.34,-19.07 372.35,-26.91 330.48,-77 313.23,-97.64 244.82,-106.3 193.42,-109.92"/>
<polygon fill="green" stroke="green" points="193.34,-106.42 183.59,-110.56 193.79,-113.4 193.34,-106.42"/>
<text text-anchor="start" x="377.54" y="-65.4" font-family="Times,serif" font-size="14.00" fill="green"> </text>
<text text-anchor="start" x="381.04" y="-65.4" font-family="Courier New" font-size="10.00" fill="green">Z_EPSILON(,)</text>
<text text-anchor="start" x="338.48" y="-56.8" font-family="Courier New" font-size="8.00" fill="green">SIGNAL(WIP_S02_VIAL, SIG_DEC10);</text>
</g>
</g>
</svg>
