<?xml version="1.0" encoding="UTF-8" standalone="no"?>
<!DOCTYPE svg PUBLIC "-//W3C//DTD SVG 1.1//EN"
 "http://www.w3.org/Graphics/SVG/1.1/DTD/svg11.dtd">
<!-- Generated by graphviz version 7.1.0 (20230121.1956)
 -->
<!-- Pages: 1 -->
<svg width="491pt" height="140pt"
 viewBox="0.00 0.00 490.54 140.00" xmlns="http://www.w3.org/2000/svg" xmlns:xlink="http://www.w3.org/1999/xlink">
<g id="graph0" class="graph" transform="scale(1 1) rotate(0) translate(4 136)">
<polygon fill="white" stroke="none" points="-4,4 -4,-136 486.54,-136 486.54,4 -4,4"/>
<!-- M02_UP1_0 -->
<g id="node1" class="node">
<title>M02_UP1_0</title>
<polygon fill="none" stroke="black" points="89.34,-95.5 89.34,-131.5 177.69,-131.5 177.69,-95.5 89.34,-95.5"/>
<text text-anchor="middle" x="133.51" y="-109.3" font-family="Times,serif" font-size="14.00">M02_UP1_0</text>
</g>
<!-- M02_UP1_1 -->
<g id="node2" class="node">
<title>M02_UP1_1</title>
<polygon fill="none" stroke="black" points="89.34,-0.5 89.34,-36.5 177.69,-36.5 177.69,-0.5 89.34,-0.5"/>
<text text-anchor="middle" x="133.51" y="-14.3" font-family="Times,serif" font-size="14.00">M02_UP1_1</text>
</g>
<!-- M02_UP1_0&#45;&gt;M02_UP1_1 -->
<g id="edge1" class="edge">
<title>M02_UP1_0&#45;&gt;M02_UP1_1</title>
<path fill="none" stroke="red" d="M89.37,-105.99C56.68,-100.17 16.12,-90.46 5.9,-77 -16.76,-47.19 34.1,-32.43 78.17,-25.41"/>
<polygon fill="red" stroke="red" points="78.59,-28.88 87.98,-23.96 77.58,-21.96 78.59,-28.88"/>
<text text-anchor="start" x="33.57" y="-65.4" font-family="Times,serif" font-size="14.00" fill="red"> </text>
<text text-anchor="start" x="37.07" y="-65.4" font-family="Courier New" font-size="10.00" fill="red">CLICK(,)</text>
<text text-anchor="start" x="6.51" y="-56.8" font-family="Courier New" font-size="8.00" fill="red">PLAYWAVE(SOUND_CLICK);</text>
</g>
<!-- M02_UP1_1&#45;&gt;M02_UP1_0 -->
<g id="edge2" class="edge">
<title>M02_UP1_1&#45;&gt;M02_UP1_0</title>
<path fill="none" stroke="green" d="M133.51,-36.3C133.51,-49.75 133.51,-68.91 133.51,-84.65"/>
<polygon fill="green" stroke="green" points="130.01,-84.36 133.51,-94.36 137.01,-84.36 130.01,-84.36"/>
<text text-anchor="start" x="133.51" y="-62.8" font-family="Times,serif" font-size="14.00" fill="green"> </text>
<text text-anchor="start" x="137.01" y="-62.8" font-family="Courier New" font-size="10.00" fill="green">IFSTATE(M02_LOCKED,WIP_S02_LOCK)</text>
</g>
<!-- M02_UP1_1&#45;&gt;M02_UP1_0 -->
<g id="edge3" class="edge">
<title>M02_UP1_1&#45;&gt;M02_UP1_0</title>
<path fill="none" stroke="green" d="M177.48,-18.64C247.76,-18.73 373.36,-25.75 330.51,-77 312.75,-98.26 240.69,-106.81 188.87,-110.23"/>
<polygon fill="green" stroke="green" points="188.77,-106.73 179,-110.83 189.19,-113.72 188.77,-106.73"/>
<text text-anchor="start" x="372.77" y="-65.4" font-family="Times,serif" font-size="14.00" fill="green"> </text>
<text text-anchor="start" x="376.27" y="-65.4" font-family="Courier New" font-size="10.00" fill="green">Z_EPSILON(,)</text>
<text text-anchor="start" x="338.51" y="-56.8" font-family="Courier New" font-size="8.00" fill="green">SIGNAL(WIP_S02_VIAL,SIG_INC1);</text>
</g>
</g>
</svg>
