<?xml version="1.0" encoding="UTF-8" standalone="no"?>
<!DOCTYPE svg PUBLIC "-//W3C//DTD SVG 1.1//EN"
 "http://www.w3.org/Graphics/SVG/1.1/DTD/svg11.dtd">
<!-- Generated by graphviz version 7.1.0 (20230121.1956)
 -->
<!-- Pages: 1 -->
<svg width="217pt" height="88pt"
 viewBox="0.00 0.00 217.00 88.00" xmlns="http://www.w3.org/2000/svg" xmlns:xlink="http://www.w3.org/1999/xlink">
<g id="graph0" class="graph" transform="scale(1 1) rotate(0) translate(4 84)">
<polygon fill="white" stroke="none" points="-4,4 -4,-84 213,-84 213,4 -4,4"/>
<!-- 0 -->
<g id="node1" class="node">
<title>0</title>
<ellipse fill="none" stroke="black" cx="27" cy="-40" rx="27" ry="18"/>
<text text-anchor="middle" x="27" y="-35.8" font-family="Times,serif" font-size="14.00">0</text>
</g>
<!-- 0&#45;&gt;0 -->
<g id="edge1" class="edge">
<title>0&#45;&gt;0</title>
<path fill="none" stroke="black" d="M52.44,-46.69C63.03,-47.15 72,-44.92 72,-40 72,-37 68.67,-35 63.67,-34"/>
<polygon fill="black" stroke="black" points="64.15,-30.52 53.95,-33.4 63.72,-37.51 64.15,-30.52"/>
<polygon fill="none" stroke="black" points="75.5,-59 75.5,-77 206.5,-77 206.5,-59 75.5,-59"/>
<text text-anchor="start" x="120" y="-66" font-family="Courier New" font-weight="bold" font-size="10.00" fill="orange">WAIT(,)</text>
<polygon fill="none" stroke="black" points="75.5,-3 75.5,-57 206.5,-57 206.5,-3 75.5,-3"/>
<text text-anchor="start" x="78.5" y="-46.8" font-family="Times,serif" font-size="8.00" fill="blue"> &#160;&#160;&#160;REF_MACHINE(WIP_S02_VIAL);</text>
<text text-anchor="start" x="78.5" y="-37.2" font-family="Times,serif" font-size="8.00" fill="blue"> &#160;&#160;&#160;MOV(BFRAME,R_WPARM);</text>
<text text-anchor="start" x="78.5" y="-27.6" font-family="Times,serif" font-size="8.00" fill="blue"> &#160;&#160;&#160;SUB(BFRAME,R_BPARM);</text>
<text text-anchor="start" x="78.5" y="-18" font-family="Times,serif" font-size="8.00" fill="blue"> &#160;&#160;&#160;MODI(BFRAME,10);</text>
<text text-anchor="start" x="78.5" y="-8.4" font-family="Times,serif" font-size="8.00" fill="blue"> &#160;&#160;&#160;SHOW(0,IDS_CITYNUM);</text>
<polygon fill="none" stroke="black" points="72,0 72,-80 209,-80 209,0 72,0"/>
</g>
</g>
</svg>
