<?xml version="1.0" encoding="UTF-8" standalone="no"?>
<!DOCTYPE svg PUBLIC "-//W3C//DTD SVG 1.1//EN"
 "http://www.w3.org/Graphics/SVG/1.1/DTD/svg11.dtd">
<!-- Generated by graphviz version 7.1.0 (20230121.1956)
 -->
<!-- Pages: 1 -->
<svg width="236pt" height="167pt"
 viewBox="0.00 0.00 235.54 167.00" xmlns="http://www.w3.org/2000/svg" xmlns:xlink="http://www.w3.org/1999/xlink">
<g id="graph0" class="graph" transform="scale(1 1) rotate(0) translate(4 163)">
<polygon fill="white" stroke="none" points="-4,4 -4,-163 231.54,-163 231.54,4 -4,4"/>
<!-- 0 -->
<g id="node1" class="node">
<title>0</title>
<ellipse fill="none" stroke="black" cx="97.54" cy="-141" rx="27" ry="18"/>
<text text-anchor="middle" x="97.54" y="-136.8" font-family="Times,serif" font-size="14.00">0</text>
</g>
<!-- 1 -->
<g id="node2" class="node">
<title>1</title>
<ellipse fill="none" stroke="black" cx="97.54" cy="-18" rx="27" ry="18"/>
<text text-anchor="middle" x="97.54" y="-13.8" font-family="Times,serif" font-size="14.00">1</text>
</g>
<!-- 0&#45;&gt;1 -->
<g id="edge1" class="edge">
<title>0&#45;&gt;1</title>
<path fill="none" stroke="black" d="M70.65,-137.25C50.12,-133.57 23.11,-125 9.54,-105 -3.18,-86.24 -3.18,-72.76 9.54,-54 20.78,-37.44 41.23,-28.71 59.59,-24.12"/>
<polygon fill="black" stroke="black" points="60.12,-27.58 69.17,-22.07 58.66,-20.74 60.12,-27.58"/>
<polygon fill="none" stroke="black" points="12.54,-83.5 12.54,-101.5 162.54,-101.5 162.54,-83.5 12.54,-83.5"/>
<text text-anchor="start" x="66.54" y="-90.5" font-family="Courier New" font-weight="bold" font-size="10.00" fill="orange">WAIT(,)</text>
<polygon fill="none" stroke="black" points="12.54,-56.5 12.54,-81.5 162.54,-81.5 162.54,-56.5 12.54,-56.5"/>
<text text-anchor="start" x="15.54" y="-71.3" font-family="Times,serif" font-size="8.00" fill="blue"> &#160;&#160;&#160;ASSIGN(WOBJECT,IDD_CITY_KEY1);</text>
<text text-anchor="start" x="15.54" y="-61.7" font-family="Times,serif" font-size="8.00" fill="blue"> &#160;&#160;&#160;SHOW(0,IDS_KEY_IN_BIN);</text>
<polygon fill="none" stroke="black" points="9.54,-54 9.54,-105 165.54,-105 165.54,-54 9.54,-54"/>
</g>
<!-- 1&#45;&gt;0 -->
<g id="edge2" class="edge">
<title>1&#45;&gt;0</title>
<path fill="none" stroke="black" d="M122.84,-24.92C138.08,-29.93 156.28,-38.81 165.54,-54 177.35,-73.35 177.35,-85.65 165.54,-105 158.38,-116.75 145.87,-124.72 133.52,-130.05"/>
<polygon fill="black" stroke="black" points="132.38,-126.74 124.26,-133.54 134.85,-133.29 132.38,-126.74"/>
<polygon fill="none" stroke="black" points="176.54,-78.5 176.54,-96.5 224.54,-96.5 224.54,-78.5 176.54,-78.5"/>
<text text-anchor="start" x="179.54" y="-85.5" font-family="Courier New" font-weight="bold" font-size="10.00" fill="orange">GRAB(,)</text>
<polygon fill="none" stroke="black" points="176.54,-61.5 176.54,-76.5 224.54,-76.5 224.54,-61.5 176.54,-61.5"/>
<text text-anchor="start" x="179.99" y="-66.3" font-family="Times,serif" font-size="8.00" fill="blue">SHOW(0,0);</text>
<polygon fill="none" stroke="black" points="173.54,-59 173.54,-100 227.54,-100 227.54,-59 173.54,-59"/>
</g>
</g>
</svg>
