<?xml version="1.0" encoding="UTF-8" standalone="no"?>
<!DOCTYPE svg PUBLIC "-//W3C//DTD SVG 1.1//EN"
 "http://www.w3.org/Graphics/SVG/1.1/DTD/svg11.dtd">
<!-- Generated by graphviz version 7.1.0 (20230121.1956)
 -->
<!-- Pages: 1 -->
<svg width="358pt" height="374pt"
 viewBox="0.00 0.00 357.60 374.00" xmlns="http://www.w3.org/2000/svg" xmlns:xlink="http://www.w3.org/1999/xlink">
<g id="graph0" class="graph" transform="scale(1 1) rotate(0) translate(4 370)">
<polygon fill="white" stroke="none" points="-4,4 -4,-370 353.6,-370 353.6,4 -4,4"/>
<!-- 0 -->
<g id="node1" class="node">
<title>0</title>
<ellipse fill="none" stroke="black" cx="113.6" cy="-348" rx="27" ry="18"/>
<text text-anchor="middle" x="113.6" y="-343.8" font-family="Times,serif" font-size="14.00">0</text>
</g>
<!-- 1 -->
<g id="node2" class="node">
<title>1</title>
<ellipse fill="none" stroke="black" cx="113.6" cy="-256" rx="27" ry="18"/>
<text text-anchor="middle" x="113.6" y="-251.8" font-family="Times,serif" font-size="14.00">1</text>
</g>
<!-- 0&#45;&gt;1 -->
<g id="edge1" class="edge">
<title>0&#45;&gt;1</title>
<path fill="none" stroke="black" d="M113.6,-329.65C113.6,-317.2 113.6,-300.14 113.6,-285.68"/>
<polygon fill="black" stroke="black" points="117.1,-285.81 113.6,-275.81 110.1,-285.81 117.1,-285.81"/>
<text text-anchor="start" x="117.6" y="-300" font-family="Courier New" font-weight="bold" font-size="10.00" fill="blue">C_ACCEPT(0,IDC_KEY)</text>
</g>
<!-- 2 -->
<g id="node3" class="node">
<title>2</title>
<ellipse fill="none" stroke="black" cx="113.6" cy="-18" rx="27" ry="18"/>
<text text-anchor="middle" x="113.6" y="-13.8" font-family="Times,serif" font-size="14.00">2</text>
</g>
<!-- 1&#45;&gt;2 -->
<g id="edge2" class="edge">
<title>1&#45;&gt;2</title>
<path fill="none" stroke="black" d="M86.99,-251.54C67.75,-247.49 43.05,-238.76 30.6,-220 -10.2,-158.53 -10.2,-115.47 30.6,-54 40.81,-38.61 59.27,-29.97 76.19,-25.13"/>
<polygon fill="black" stroke="black" points="76.65,-28.62 85.52,-22.82 74.97,-21.82 76.65,-28.62"/>
<polygon fill="none" stroke="black" points="34.1,-194 34.1,-212 173.1,-212 173.1,-194 34.1,-194"/>
<text text-anchor="start" x="76.59" y="-201" font-family="Courier New" font-weight="bold" font-size="10.00" fill="orange">DROP(0,0)</text>
<polygon fill="none" stroke="black" points="34.1,-62 34.1,-192 173.1,-192 173.1,-62 34.1,-62"/>
<text text-anchor="start" x="37.1" y="-181.8" font-family="Times,serif" font-size="8.00" fill="blue"> &#160;&#160;&#160;SUBI(WOBJECT,IDD_CITY_KEY1);</text>
<text text-anchor="start" x="37.1" y="-172.2" font-family="Times,serif" font-size="8.00" fill="blue"> &#160;&#160;&#160;REF_MACHINE(WIP3);</text>
<text text-anchor="start" x="37.1" y="-162.6" font-family="Times,serif" font-size="8.00" fill="blue"> &#160;&#160;&#160;MOV(R_BFRAME,WOBJECT);</text>
<text text-anchor="start" x="37.1" y="-153" font-family="Times,serif" font-size="8.00" fill="blue"> &#160;&#160;&#160;MODI(R_BFRAME,4);</text>
<text text-anchor="start" x="37.1" y="-143.4" font-family="Times,serif" font-size="8.00" fill="blue"> &#160;&#160;&#160;DIVI(WOBJECT,4);</text>
<text text-anchor="start" x="37.1" y="-133.8" font-family="Times,serif" font-size="8.00" fill="blue"> &#160;&#160;&#160;REF_MACHINE(WIP2);</text>
<text text-anchor="start" x="37.1" y="-124.2" font-family="Times,serif" font-size="8.00" fill="blue"> &#160;&#160;&#160;MOV(R_BFRAME,WOBJECT);</text>
<text text-anchor="start" x="37.1" y="-114.6" font-family="Times,serif" font-size="8.00" fill="blue"> &#160;&#160;&#160;MODI(R_BFRAME,4);</text>
<text text-anchor="start" x="37.1" y="-105" font-family="Times,serif" font-size="8.00" fill="blue"> &#160;&#160;&#160;DIVI(WOBJECT,4);</text>
<text text-anchor="start" x="37.1" y="-95.4" font-family="Times,serif" font-size="8.00" fill="blue"> &#160;&#160;&#160;REF_MACHINE(WIP1);</text>
<text text-anchor="start" x="37.1" y="-85.8" font-family="Times,serif" font-size="8.00" fill="blue"> &#160;&#160;&#160;MOV(R_BFRAME,WOBJECT);</text>
<text text-anchor="start" x="37.1" y="-76.2" font-family="Times,serif" font-size="8.00" fill="blue"> &#160;&#160;&#160;SHOW(0,IDS_KEY_CFGWKEY);</text>
<text text-anchor="start" x="37.1" y="-66.6" font-family="Times,serif" font-size="8.00" fill="blue"> &#160;&#160;&#160;CLEAR(WOBJECT);</text>
<polygon fill="none" stroke="black" points="30.6,-59 30.6,-215 175.6,-215 175.6,-59 30.6,-59"/>
</g>
<!-- 2&#45;&gt;1 -->
<g id="edge3" class="edge">
<title>2&#45;&gt;1</title>
<path fill="none" stroke="black" d="M138.3,-26.13C151.88,-31.45 167.56,-40.23 175.6,-54 212.79,-117.71 212.79,-156.29 175.6,-220 169.57,-230.33 159.24,-237.85 148.72,-243.21"/>
<polygon fill="black" stroke="black" points="147.38,-239.98 139.68,-247.25 150.24,-246.37 147.38,-239.98"/>
<polygon fill="none" stroke="black" points="206.1,-199 206.1,-217 347.1,-217 347.1,-199 206.1,-199"/>
<text text-anchor="start" x="252.59" y="-206" font-family="Courier New" font-weight="bold" font-size="10.00" fill="orange">GRAB(,0)</text>
<polygon fill="none" stroke="black" points="206.1,-57 206.1,-197 347.1,-197 347.1,-57 206.1,-57"/>
<text text-anchor="start" x="209.1" y="-186.8" font-family="Times,serif" font-size="8.00" fill="blue"> &#160;&#160;&#160;REF_MACHINE(WIP1);</text>
<text text-anchor="start" x="209.1" y="-177.2" font-family="Times,serif" font-size="8.00" fill="blue"> &#160;&#160;&#160;MOV(WOBJECT,R_BFRAME);</text>
<text text-anchor="start" x="209.1" y="-167.6" font-family="Times,serif" font-size="8.00" fill="blue"> &#160;&#160;&#160;CLEAR(R_BFRAME);</text>
<text text-anchor="start" x="209.1" y="-158" font-family="Times,serif" font-size="8.00" fill="blue"> &#160;&#160;&#160;MULI(WOBJECT,4);</text>
<text text-anchor="start" x="209.1" y="-148.4" font-family="Times,serif" font-size="8.00" fill="blue"> &#160;&#160;&#160;REF_MACHINE(WIP2);</text>
<text text-anchor="start" x="209.1" y="-138.8" font-family="Times,serif" font-size="8.00" fill="blue"> &#160;&#160;&#160;ADD(WOBJECT,R_BFRAME);</text>
<text text-anchor="start" x="209.1" y="-129.2" font-family="Times,serif" font-size="8.00" fill="blue"> &#160;&#160;&#160;CLEAR(R_BFRAME);</text>
<text text-anchor="start" x="209.1" y="-119.6" font-family="Times,serif" font-size="8.00" fill="blue"> &#160;&#160;&#160;MULI(WOBJECT,4);</text>
<text text-anchor="start" x="209.1" y="-110" font-family="Times,serif" font-size="8.00" fill="blue"> &#160;&#160;&#160;REF_MACHINE(WIP3);</text>
<text text-anchor="start" x="209.1" y="-100.4" font-family="Times,serif" font-size="8.00" fill="blue"> &#160;&#160;&#160;ADD(WOBJECT,R_BFRAME);</text>
<text text-anchor="start" x="209.1" y="-90.8" font-family="Times,serif" font-size="8.00" fill="blue"> &#160;&#160;&#160;CLEAR(R_BFRAME);</text>
<text text-anchor="start" x="209.1" y="-81.2" font-family="Times,serif" font-size="8.00" fill="blue"> &#160;&#160;&#160;ADDI(WOBJECT,IDD_CITY_KEY1);</text>
<text text-anchor="start" x="209.1" y="-71.6" font-family="Times,serif" font-size="8.00" fill="blue"> &#160;&#160;&#160;HANDOFF(WOBJECT);</text>
<text text-anchor="start" x="209.1" y="-62" font-family="Times,serif" font-size="8.00" fill="blue"> &#160;&#160;&#160;SHOW();</text>
<polygon fill="none" stroke="black" points="202.6,-54 202.6,-220 349.6,-220 349.6,-54 202.6,-54"/>
</g>
</g>
</svg>
