<?xml version="1.0" encoding="UTF-8" standalone="no"?>
<!DOCTYPE svg PUBLIC "-//W3C//DTD SVG 1.1//EN"
 "http://www.w3.org/Graphics/SVG/1.1/DTD/svg11.dtd">
<!-- Generated by graphviz version 7.1.0 (20230121.1956)
 -->
<!-- Pages: 1 -->
<svg width="273pt" height="164pt"
 viewBox="0.00 0.00 272.77 164.00" xmlns="http://www.w3.org/2000/svg" xmlns:xlink="http://www.w3.org/1999/xlink">
<g id="graph0" class="graph" transform="scale(1 1) rotate(0) translate(4 160)">
<polygon fill="white" stroke="none" points="-4,4 -4,-160 268.77,-160 268.77,4 -4,4"/>
<!-- M04_VIAL_0 -->
<g id="node1" class="node">
<title>M04_VIAL_0</title>
<polygon fill="none" stroke="black" points="32.51,-119.5 32.51,-155.5 129.39,-155.5 129.39,-119.5 32.51,-119.5"/>
<text text-anchor="middle" x="80.95" y="-133.3" font-family="Times,serif" font-size="14.00">M04_VIAL_0</text>
</g>
<!-- M04_VIAL_1 -->
<g id="node2" class="node">
<title>M04_VIAL_1</title>
<polygon fill="none" stroke="black" points="32.51,-0.5 32.51,-36.5 129.39,-36.5 129.39,-0.5 32.51,-0.5"/>
<text text-anchor="middle" x="80.95" y="-14.3" font-family="Times,serif" font-size="14.00">M04_VIAL_1</text>
</g>
<!-- M04_VIAL_0&#45;&gt;M04_VIAL_1 -->
<g id="edge1" class="edge">
<title>M04_VIAL_0&#45;&gt;M04_VIAL_1</title>
<path fill="none" stroke="red" d="M32.72,-122.37C22.97,-117.23 13.94,-110.3 8.13,-101 -2.71,-83.66 -2.71,-72.34 8.13,-55 11.94,-48.89 17.14,-43.81 23.02,-39.59"/>
<polygon fill="red" stroke="red" points="24.74,-42.64 31.43,-34.42 21.08,-36.67 24.74,-42.64"/>
<text text-anchor="start" x="15.6" y="-85.4" font-family="Times,serif" font-size="14.00" fill="red"> </text>
<text text-anchor="start" x="19.1" y="-85.4" font-family="Courier New" font-size="10.00" fill="red">DRAG(0,IDD_SCOOPF)</text>
<text text-anchor="start" x="8.95" y="-68.8" font-family="Courier New" font-size="8.00" fill="red"> &#160;&#160;&#160;PLAYWAVE(SOUND_SLURP);</text>
<text text-anchor="start" x="8.95" y="-60.8" font-family="Courier New" font-size="8.00" fill="red"> &#160;&#160;&#160;HANDOFF(0,IDD_SCOOPE);</text>
</g>
<!-- M04_VIAL_1&#45;&gt;M04_VIAL_0 -->
<g id="edge2" class="edge">
<title>M04_VIAL_1&#45;&gt;M04_VIAL_0</title>
<path fill="none" stroke="red" d="M115.9,-36.38C122.75,-41.38 129.02,-47.56 132.95,-55 142.49,-73.08 142.49,-82.92 132.95,-101 130.74,-105.19 127.78,-108.97 124.41,-112.37"/>
<polygon fill="red" stroke="red" points="122.4,-109.49 117.05,-118.64 126.93,-114.82 122.4,-109.49"/>
<text text-anchor="start" x="146.6" y="-89.4" font-family="Times,serif" font-size="14.00" fill="red"> </text>
<text text-anchor="start" x="150.1" y="-89.4" font-family="Courier New" font-size="10.00" fill="red">DRAG(0,IDD_SCOOPF)</text>
<text text-anchor="start" x="139.95" y="-72.8" font-family="Courier New" font-size="8.00" fill="red"> &#160;&#160;&#160;PLAYWAVE(SOUND_SLURP);</text>
<text text-anchor="start" x="139.95" y="-64.8" font-family="Courier New" font-size="8.00" fill="red"> &#160;&#160;&#160;HANDOFF(0,IDD_SCOOPE);</text>
<text text-anchor="start" x="139.95" y="-56.8" font-family="Courier New" font-size="8.00" fill="red"> &#160;&#160;&#160;SIGNALi(0,S04_BIN);</text>
</g>
</g>
</svg>
