<?xml version="1.0" encoding="UTF-8" standalone="no"?>
<!DOCTYPE svg PUBLIC "-//W3C//DTD SVG 1.1//EN"
 "http://www.w3.org/Graphics/SVG/1.1/DTD/svg11.dtd">
<!-- Generated by graphviz version 7.1.0 (20230121.1956)
 -->
<!-- Title: Automaton Pages: 1 -->
<svg width="507pt" height="437pt"
 viewBox="0.00 0.00 507.00 437.00" xmlns="http://www.w3.org/2000/svg" xmlns:xlink="http://www.w3.org/1999/xlink">
<g id="graph0" class="graph" transform="scale(1 1) rotate(0) translate(4 433)">
<title>Automaton</title>
<polygon fill="white" stroke="none" points="-4,4 -4,-433 503,-433 503,4 -4,4"/>
<!-- filename -->
<g id="node1" class="node">
<title>filename</title>
<polygon fill="none" stroke="black" points="0,-376.5 0,-428.5 118,-428.5 118,-376.5 0,-376.5"/>
<polygon fill="none" stroke="black" points="11,-403.5 11,-421.5 107,-421.5 107,-403.5 11,-403.5"/>
<text text-anchor="start" x="22.99" y="-410.5" font-family="Courier New" font-weight="bold" font-size="10.00">M04_KEYCLAMP</text>
<polygon fill="none" stroke="black" points="11,-383.5 11,-401.5 107,-401.5 107,-383.5 11,-383.5"/>
<text text-anchor="start" x="14" y="-389.5" font-family="Courier New" font-size="10.00" fill="brown">start state = 0</text>
<polygon fill="none" stroke="black" points="8,-380.5 8,-424.5 110,-424.5 110,-380.5 8,-380.5"/>
</g>
<!-- 0 -->
<g id="node2" class="node">
<title>0</title>
<polyline fill="none" stroke="darkred" points="156,-391.5 170,-391.5"/>
<text text-anchor="start" x="159" y="-398.9" font-family="Courier New" font-weight="bold" font-size="14.00">0</text>
<path fill="none" stroke="darkred" d="M159.67,-388.5C159.67,-388.5 166.33,-388.5 166.33,-388.5 169.67,-388.5 173,-391.83 173,-395.17 173,-395.17 173,-409.83 173,-409.83 173,-413.17 169.67,-416.5 166.33,-416.5 166.33,-416.5 159.67,-416.5 159.67,-416.5 156.33,-416.5 153,-413.17 153,-409.83 153,-409.83 153,-395.17 153,-395.17 153,-391.83 156.33,-388.5 159.67,-388.5"/>
</g>
<!-- 1 -->
<g id="node3" class="node">
<title>1</title>
<polyline fill="none" stroke="darkred" points="156,-291 170,-291"/>
<text text-anchor="start" x="159" y="-298.4" font-family="Courier New" font-weight="bold" font-size="14.00">1</text>
<path fill="none" stroke="darkred" d="M159.67,-288C159.67,-288 166.33,-288 166.33,-288 169.67,-288 173,-291.33 173,-294.67 173,-294.67 173,-309.33 173,-309.33 173,-312.67 169.67,-316 166.33,-316 166.33,-316 159.67,-316 159.67,-316 156.33,-316 153,-312.67 153,-309.33 153,-309.33 153,-294.67 153,-294.67 153,-291.33 156.33,-288 159.67,-288"/>
</g>
<!-- 0&#45;&gt;1 -->
<g id="edge1" class="edge">
<title>0&#45;&gt;1</title>
<path fill="none" stroke="black" d="M163,-384.79C163,-370.14 163,-348.55 163,-331.23"/>
<polygon fill="black" stroke="black" points="166.5,-331.3 163,-321.3 159.5,-331.3 166.5,-331.3"/>
<text text-anchor="start" x="167" y="-346" font-family="Courier New" font-weight="bold" font-size="10.00" fill="blue">C_ACCEPT(0,IDC_KEY)</text>
</g>
<!-- 2 -->
<g id="node4" class="node">
<title>2</title>
<polyline fill="none" stroke="darkred" points="156,-7 170,-7"/>
<text text-anchor="start" x="159" y="-14.4" font-family="Courier New" font-weight="bold" font-size="14.00">2</text>
<path fill="none" stroke="darkred" d="M159.67,-4C159.67,-4 166.33,-4 166.33,-4 169.67,-4 173,-7.33 173,-10.67 173,-10.67 173,-25.33 173,-25.33 173,-28.67 169.67,-32 166.33,-32 166.33,-32 159.67,-32 159.67,-32 156.33,-32 153,-28.67 153,-25.33 153,-25.33 153,-10.67 153,-10.67 153,-7.33 156.33,-4 159.67,-4"/>
</g>
<!-- 1&#45;&gt;2 -->
<g id="edge2" class="edge">
<title>1&#45;&gt;2</title>
<path fill="none" stroke="black" d="M136.2,-301.03C109.72,-299.46 70.43,-292.43 51,-266 -4.81,-190.09 -4.81,-129.91 51,-54 67.85,-31.08 99.63,-22.75 125.05,-19.92"/>
<polygon fill="black" stroke="black" points="125.03,-23.43 134.69,-19.09 124.43,-16.46 125.03,-23.43"/>
<polygon fill="none" stroke="black" points="54,-191 54,-209 252,-209 252,-191 54,-191"/>
<text text-anchor="start" x="126" y="-198" font-family="Courier New" font-weight="bold" font-size="10.00" fill="orange">DROP(0,0)</text>
<polygon fill="none" stroke="black" points="54,-111 54,-189 252,-189 252,-111 54,-111"/>
<text text-anchor="start" x="57" y="-177" font-family="Courier New" font-size="10.00" fill="blue">WPARM = WOBJECT &#45; IDD_CITY_KEY1;</text>
<text text-anchor="start" x="57" y="-165" font-family="Courier New" font-size="10.00" fill="blue">SIGNAL(WIP1, SIG_SHOW);</text>
<text text-anchor="start" x="57" y="-153" font-family="Courier New" font-size="10.00" fill="blue">SIGNAL(WIP2, SIG_SHOW);</text>
<text text-anchor="start" x="57" y="-141" font-family="Courier New" font-size="10.00" fill="blue">SIGNAL(WIP3, SIG_SHOW);</text>
<text text-anchor="start" x="57" y="-129" font-family="Courier New" font-size="10.00" fill="blue">SHOW(0,IDS_KEY_CFGWKEY);</text>
<text text-anchor="start" x="57" y="-117" font-family="Courier New" font-size="10.00" fill="blue">WOBJECT=0;</text>
<polygon fill="none" stroke="black" points="51,-108 51,-212 255,-212 255,-108 51,-108"/>
</g>
<!-- 2&#45;&gt;1 -->
<g id="edge3" class="edge">
<title>2&#45;&gt;1</title>
<path fill="none" stroke="black" d="M189.77,-21.18C211.36,-24.51 240.45,-32.9 255,-54 308.48,-131.57 308.48,-188.43 255,-266 242.84,-283.64 220.52,-292.4 200.91,-296.74"/>
<polygon fill="black" stroke="black" points="200.45,-293.27 191.26,-298.54 201.73,-300.15 200.45,-293.27"/>
<polygon fill="none" stroke="black" points="298,-245 298,-263 496,-263 496,-245 298,-245"/>
<text text-anchor="start" x="373" y="-252" font-family="Courier New" font-weight="bold" font-size="10.00" fill="orange">GRAB(,0)</text>
<polygon fill="none" stroke="black" points="298,-57 298,-243 496,-243 496,-57 298,-57"/>
<text text-anchor="start" x="301" y="-231" font-family="Courier New" font-size="10.00" fill="blue"> &#160;&#160;&#160;REF_MACHINE(WIP1);</text>
<text text-anchor="start" x="301" y="-219" font-family="Courier New" font-size="10.00" fill="blue"> &#160;&#160;&#160;MOV(WOBJECT,R_BFRAME);</text>
<text text-anchor="start" x="301" y="-207" font-family="Courier New" font-size="10.00" fill="blue"> &#160;&#160;&#160;MULI(WOBJECT,4);</text>
<text text-anchor="start" x="301" y="-195" font-family="Courier New" font-size="10.00" fill="blue"> &#160;&#160;&#160;REF_MACHINE(WIP2);</text>
<text text-anchor="start" x="301" y="-183" font-family="Courier New" font-size="10.00" fill="blue"> &#160;&#160;&#160;ADD(WOBJECT,R_BFRAME);</text>
<text text-anchor="start" x="301" y="-171" font-family="Courier New" font-size="10.00" fill="blue"> &#160;&#160;&#160;MULI(WOBJECT,4);</text>
<text text-anchor="start" x="301" y="-159" font-family="Courier New" font-size="10.00" fill="blue"> &#160;&#160;&#160;REF_MACHINE(WIP3);</text>
<text text-anchor="start" x="301" y="-147" font-family="Courier New" font-size="10.00" fill="blue"> &#160;&#160;&#160;ADD(WOBJECT,R_BFRAME);</text>
<text text-anchor="start" x="301" y="-135" font-family="Courier New" font-size="10.00" fill="blue"> &#160;&#160;&#160;ADDI(WOBJECT,IDD_CITY_KEY1);</text>
<text text-anchor="start" x="301" y="-123" font-family="Courier New" font-size="10.00" fill="blue"> &#160;&#160;&#160;HANDOFF(WOBJECT);</text>
<text text-anchor="start" x="301" y="-111" font-family="Courier New" font-size="10.00" fill="blue"> &#160;&#160;&#160;SHOW();</text>
<text text-anchor="start" x="301" y="-99" font-family="Courier New" font-size="10.00" fill="blue"> &#160;&#160;&#160;SIGNAL(WIP1, SIG_HIDE);</text>
<text text-anchor="start" x="301" y="-87" font-family="Courier New" font-size="10.00" fill="blue"> &#160;&#160;&#160;SIGNAL(WIP2, SIG_HIDE);</text>
<text text-anchor="start" x="301" y="-75" font-family="Courier New" font-size="10.00" fill="blue"> &#160;&#160;&#160;SIGNAL(WIP3, SIG_HIDE);</text>
<text text-anchor="start" x="301" y="-63" font-family="Courier New" font-size="10.00" fill="blue"> &#160;&#160;&#160;</text>
<polygon fill="none" stroke="black" points="295,-54 295,-266 499,-266 499,-54 295,-54"/>
</g>
</g>
</svg>
