<?xml version="1.0" encoding="UTF-8" standalone="no"?>
<!DOCTYPE svg PUBLIC "-//W3C//DTD SVG 1.1//EN"
 "http://www.w3.org/Graphics/SVG/1.1/DTD/svg11.dtd">
<!-- Generated by graphviz version 7.1.0 (20230121.1956)
 -->
<!-- Title: Automaton Pages: 1 -->
<svg width="593pt" height="293pt"
 viewBox="0.00 0.00 592.62 293.00" xmlns="http://www.w3.org/2000/svg" xmlns:xlink="http://www.w3.org/1999/xlink">
<g id="graph0" class="graph" transform="scale(1 1) rotate(0) translate(4 289)">
<title>Automaton</title>
<polygon fill="white" stroke="none" points="-4,4 -4,-289 588.62,-289 588.62,4 -4,4"/>
<!-- filename -->
<g id="node1" class="node">
<title>filename</title>
<polygon fill="none" stroke="black" points="57.62,-232.5 57.62,-284.5 175.62,-284.5 175.62,-232.5 57.62,-232.5"/>
<polygon fill="none" stroke="black" points="68.62,-259.5 68.62,-277.5 164.62,-277.5 164.62,-259.5 68.62,-259.5"/>
<text text-anchor="start" x="86.62" y="-266.5" font-family="Courier New" font-weight="bold" font-size="10.00">M04_SLIDER</text>
<polygon fill="none" stroke="black" points="68.62,-239.5 68.62,-257.5 164.62,-257.5 164.62,-239.5 68.62,-239.5"/>
<text text-anchor="start" x="71.62" y="-245.5" font-family="Courier New" font-size="10.00" fill="brown">start state = 0</text>
<polygon fill="none" stroke="black" points="65.62,-236.5 65.62,-280.5 167.62,-280.5 167.62,-236.5 65.62,-236.5"/>
</g>
<!-- 0 -->
<g id="node2" class="node">
<title>0</title>
<polyline fill="none" stroke="darkred" points="213.62,-247.5 227.62,-247.5"/>
<text text-anchor="start" x="216.62" y="-254.9" font-family="Courier New" font-weight="bold" font-size="14.00">0</text>
<path fill="none" stroke="darkred" d="M217.29,-244.5C217.29,-244.5 223.96,-244.5 223.96,-244.5 227.29,-244.5 230.62,-247.83 230.62,-251.17 230.62,-251.17 230.62,-265.83 230.62,-265.83 230.62,-269.17 227.29,-272.5 223.96,-272.5 223.96,-272.5 217.29,-272.5 217.29,-272.5 213.96,-272.5 210.62,-269.17 210.62,-265.83 210.62,-265.83 210.62,-251.17 210.62,-251.17 210.62,-247.83 213.96,-244.5 217.29,-244.5"/>
</g>
<!-- 1 -->
<g id="node3" class="node">
<title>1</title>
<polyline fill="none" stroke="darkred" points="213.62,-147 227.62,-147"/>
<text text-anchor="start" x="216.62" y="-154.4" font-family="Courier New" font-weight="bold" font-size="14.00">1</text>
<path fill="none" stroke="darkred" d="M217.29,-144C217.29,-144 223.96,-144 223.96,-144 227.29,-144 230.62,-147.33 230.62,-150.67 230.62,-150.67 230.62,-165.33 230.62,-165.33 230.62,-168.67 227.29,-172 223.96,-172 223.96,-172 217.29,-172 217.29,-172 213.96,-172 210.62,-168.67 210.62,-165.33 210.62,-165.33 210.62,-150.67 210.62,-150.67 210.62,-147.33 213.96,-144 217.29,-144"/>
</g>
<!-- 0&#45;&gt;1 -->
<g id="edge1" class="edge">
<title>0&#45;&gt;1</title>
<path fill="none" stroke="black" d="M220.62,-240.79C220.62,-226.14 220.62,-204.55 220.62,-187.23"/>
<polygon fill="black" stroke="black" points="224.12,-187.3 220.62,-177.3 217.12,-187.3 224.12,-187.3"/>
<text text-anchor="start" x="224.62" y="-202" font-family="Courier New" font-weight="bold" font-size="10.00" fill="blue">MOV(WSPRITE,WIP1)</text>
</g>
<!-- idle -->
<g id="node4" class="node">
<title>idle</title>
<polyline fill="none" stroke="darkred" points="201.62,-7 240.62,-7"/>
<text text-anchor="start" x="204.62" y="-14.4" font-family="Courier New" font-weight="bold" font-size="14.00">idle</text>
<path fill="none" stroke="darkred" d="M207.46,-4C207.46,-4 233.79,-4 233.79,-4 238.46,-4 243.12,-8.67 243.12,-13.33 243.12,-13.33 243.12,-22.67 243.12,-22.67 243.12,-27.33 238.46,-32 233.79,-32 233.79,-32 207.46,-32 207.46,-32 202.79,-32 198.12,-27.33 198.12,-22.67 198.12,-22.67 198.12,-13.33 198.12,-13.33 198.12,-8.67 202.79,-4 207.46,-4"/>
</g>
<!-- 1&#45;&gt;idle -->
<g id="edge2" class="edge">
<title>1&#45;&gt;idle</title>
<path fill="none" stroke="black" d="M193.83,-156.56C143.37,-155.09 37.27,-148.82 14.62,-122 -4.87,-98.91 -4.87,-77.09 14.62,-54 35.23,-29.6 124.95,-22.21 178.95,-19.97"/>
<polygon fill="black" stroke="black" points="178.85,-23.48 188.71,-19.61 178.59,-16.48 178.85,-23.48"/>
<text text-anchor="start" x="18.62" y="-86" font-family="Courier New" font-weight="bold" font-size="10.00" fill="blue">SHOW(WSPRITE,)</text>
</g>
<!-- idle&#45;&gt;1 -->
<g id="edge3" class="edge">
<title>idle&#45;&gt;1</title>
<path fill="none" stroke="black" d="M190.21,-21.93C169.37,-25.71 143.14,-34.33 129.62,-54 112.51,-78.91 112.51,-97.09 129.62,-122 141.5,-139.3 163.22,-148.05 182.46,-152.48"/>
<polygon fill="black" stroke="black" points="181.73,-155.9 192.22,-154.38 183.07,-149.03 181.73,-155.9"/>
<polygon fill="none" stroke="black" points="132.62,-95 132.62,-113 288.62,-113 288.62,-95 132.62,-95"/>
<text text-anchor="start" x="186.62" y="-102" font-family="Courier New" font-weight="bold" font-size="10.00" fill="orange">CLICK(,)</text>
<polygon fill="none" stroke="black" points="132.62,-63 132.62,-93 288.62,-93 288.62,-63 132.62,-63"/>
<text text-anchor="start" x="135.62" y="-81" font-family="Courier New" font-size="10.00" fill="blue">BFRAME = BFRAME + 1;</text>
<text text-anchor="start" x="135.62" y="-69" font-family="Courier New" font-size="10.00" fill="blue">if (BFRAME &gt; 3) BFRAME=0;</text>
<polygon fill="none" stroke="black" points="129.62,-60 129.62,-116 291.62,-116 291.62,-60 129.62,-60"/>
</g>
<!-- idle&#45;&gt;1 -->
<g id="edge4" class="edge">
<title>idle&#45;&gt;1</title>
<path fill="none" stroke="black" d="M250.97,-25.9C265.96,-31.01 282.7,-39.65 291.62,-54 307.59,-79.66 307.59,-96.34 291.62,-122 284.08,-134.13 270.97,-142.17 258.04,-147.46"/>
<polygon fill="black" stroke="black" points="257.02,-144.1 248.78,-150.76 259.38,-150.7 257.02,-144.1"/>
<polygon fill="none" stroke="black" points="305.62,-101 305.62,-119 461.62,-119 461.62,-101 305.62,-101"/>
<text text-anchor="start" x="338.62" y="-108" font-family="Courier New" font-weight="bold" font-size="10.00" fill="orange">WAIT(,SIG_SHOW)</text>
<polygon fill="none" stroke="black" points="305.62,-57 305.62,-99 461.62,-99 461.62,-57 305.62,-57"/>
<text text-anchor="start" x="308.62" y="-87" font-family="Courier New" font-size="10.00" fill="blue">REF_MACHINE(WIP2);</text>
<text text-anchor="start" x="308.62" y="-75" font-family="Courier New" font-size="10.00" fill="blue">BFRAME= (R_WPARM / WIP3);</text>
<text text-anchor="start" x="308.62" y="-63" font-family="Courier New" font-size="10.00" fill="blue">MOD(BFRAME,4);</text>
<polygon fill="none" stroke="black" points="302.62,-54 302.62,-122 464.62,-122 464.62,-54 302.62,-54"/>
</g>
<!-- idle&#45;&gt;1 -->
<g id="edge5" class="edge">
<title>idle&#45;&gt;1</title>
<path fill="none" stroke="black" d="M250.96,-18.56C310.82,-18.42 440.75,-21.91 468.62,-54 488.44,-76.81 488.44,-99.19 468.62,-122 441.9,-152.76 321.38,-157.24 258.73,-157.43"/>
<polygon fill="black" stroke="black" points="258.89,-153.93 248.89,-157.42 258.89,-160.93 258.89,-153.93"/>
<polygon fill="none" stroke="black" points="485.62,-89 485.62,-107 581.62,-107 581.62,-89 485.62,-89"/>
<text text-anchor="start" x="488.62" y="-96" font-family="Courier New" font-weight="bold" font-size="10.00" fill="orange">WAIT(,SIG_HIDE)</text>
<polygon fill="none" stroke="black" points="485.62,-69 485.62,-87 581.62,-87 581.62,-69 485.62,-69"/>
<text text-anchor="start" x="506.62" y="-75" font-family="Courier New" font-size="10.00" fill="blue">BFRAME=0;</text>
<polygon fill="none" stroke="black" points="482.62,-66 482.62,-110 584.62,-110 584.62,-66 482.62,-66"/>
</g>
</g>
</svg>
