<?xml version="1.0" encoding="UTF-8" standalone="no"?>
<!DOCTYPE svg PUBLIC "-//W3C//DTD SVG 1.1//EN"
 "http://www.w3.org/Graphics/SVG/1.1/DTD/svg11.dtd">
<!-- Generated by graphviz version 7.1.0 (20230121.1956)
 -->
<!-- Title: Automaton Pages: 1 -->
<svg width="504pt" height="425pt"
 viewBox="0.00 0.00 504.00 425.00" xmlns="http://www.w3.org/2000/svg" xmlns:xlink="http://www.w3.org/1999/xlink">
<g id="graph0" class="graph" transform="scale(1 1) rotate(0) translate(4 421)">
<title>Automaton</title>
<polygon fill="white" stroke="none" points="-4,4 -4,-421 500,-421 500,4 -4,4"/>
<!-- filename -->
<g id="node1" class="node">
<title>filename</title>
<polygon fill="none" stroke="black" points="0,-364.5 0,-416.5 118,-416.5 118,-364.5 0,-364.5"/>
<polygon fill="none" stroke="black" points="11,-391.5 11,-409.5 107,-409.5 107,-391.5 11,-391.5"/>
<text text-anchor="start" x="22.99" y="-398.5" font-family="Courier New" font-weight="bold" font-size="10.00">M04_KEYCLAMP</text>
<polygon fill="none" stroke="black" points="11,-371.5 11,-389.5 107,-389.5 107,-371.5 11,-371.5"/>
<text text-anchor="start" x="14" y="-377.5" font-family="Courier New" font-size="10.00" fill="brown">start state = 0</text>
<polygon fill="none" stroke="black" points="8,-368.5 8,-412.5 110,-412.5 110,-368.5 8,-368.5"/>
</g>
<!-- 0 -->
<g id="node2" class="node">
<title>0</title>
<polyline fill="none" stroke="darkred" points="156,-379.5 170,-379.5"/>
<text text-anchor="start" x="159" y="-386.9" font-family="Courier New" font-weight="bold" font-size="14.00">0</text>
<path fill="none" stroke="darkred" d="M159.67,-376.5C159.67,-376.5 166.33,-376.5 166.33,-376.5 169.67,-376.5 173,-379.83 173,-383.17 173,-383.17 173,-397.83 173,-397.83 173,-401.17 169.67,-404.5 166.33,-404.5 166.33,-404.5 159.67,-404.5 159.67,-404.5 156.33,-404.5 153,-401.17 153,-397.83 153,-397.83 153,-383.17 153,-383.17 153,-379.83 156.33,-376.5 159.67,-376.5"/>
</g>
<!-- 1 -->
<g id="node3" class="node">
<title>1</title>
<polyline fill="none" stroke="darkred" points="156,-279 170,-279"/>
<text text-anchor="start" x="159" y="-286.4" font-family="Courier New" font-weight="bold" font-size="14.00">1</text>
<path fill="none" stroke="darkred" d="M159.67,-276C159.67,-276 166.33,-276 166.33,-276 169.67,-276 173,-279.33 173,-282.67 173,-282.67 173,-297.33 173,-297.33 173,-300.67 169.67,-304 166.33,-304 166.33,-304 159.67,-304 159.67,-304 156.33,-304 153,-300.67 153,-297.33 153,-297.33 153,-282.67 153,-282.67 153,-279.33 156.33,-276 159.67,-276"/>
</g>
<!-- 0&#45;&gt;1 -->
<g id="edge1" class="edge">
<title>0&#45;&gt;1</title>
<path fill="none" stroke="black" d="M163,-372.79C163,-358.14 163,-336.55 163,-319.23"/>
<polygon fill="black" stroke="black" points="166.5,-319.3 163,-309.3 159.5,-319.3 166.5,-319.3"/>
<text text-anchor="start" x="167" y="-334" font-family="Courier New" font-weight="bold" font-size="10.00" fill="blue">C_ACCEPT(0,IDC_KEY)</text>
</g>
<!-- 2 -->
<g id="node4" class="node">
<title>2</title>
<polyline fill="none" stroke="darkred" points="156,-7 170,-7"/>
<text text-anchor="start" x="159" y="-14.4" font-family="Courier New" font-weight="bold" font-size="14.00">2</text>
<path fill="none" stroke="darkred" d="M159.67,-4C159.67,-4 166.33,-4 166.33,-4 169.67,-4 173,-7.33 173,-10.67 173,-10.67 173,-25.33 173,-25.33 173,-28.67 169.67,-32 166.33,-32 166.33,-32 159.67,-32 159.67,-32 156.33,-32 153,-28.67 153,-25.33 153,-25.33 153,-10.67 153,-10.67 153,-7.33 156.33,-4 159.67,-4"/>
</g>
<!-- 1&#45;&gt;2 -->
<g id="edge2" class="edge">
<title>1&#45;&gt;2</title>
<path fill="none" stroke="black" d="M136.2,-289.03C109.72,-287.46 70.43,-280.43 51,-254 -1.65,-182.38 -1.65,-125.62 51,-54 67.85,-31.08 99.63,-22.75 125.05,-19.92"/>
<polygon fill="black" stroke="black" points="125.03,-23.43 134.69,-19.09 124.43,-16.46 125.03,-23.43"/>
<polygon fill="none" stroke="black" points="54,-227 54,-245 252,-245 252,-227 54,-227"/>
<text text-anchor="start" x="126" y="-234" font-family="Courier New" font-weight="bold" font-size="10.00" fill="orange">DROP(0,0)</text>
<polygon fill="none" stroke="black" points="54,-63 54,-225 252,-225 252,-63 54,-63"/>
<text text-anchor="start" x="57" y="-213" font-family="Courier New" font-size="10.00" fill="blue"> &#160;&#160;&#160;SUBI(WOBJECT,IDD_CITY_KEY1);</text>
<text text-anchor="start" x="57" y="-201" font-family="Courier New" font-size="10.00" fill="blue"> &#160;&#160;&#160;REF_MACHINE(WIP3);</text>
<text text-anchor="start" x="57" y="-189" font-family="Courier New" font-size="10.00" fill="blue"> &#160;&#160;&#160;MOV(R_BFRAME,WOBJECT);</text>
<text text-anchor="start" x="57" y="-177" font-family="Courier New" font-size="10.00" fill="blue"> &#160;&#160;&#160;MODI(R_BFRAME,4);</text>
<text text-anchor="start" x="57" y="-165" font-family="Courier New" font-size="10.00" fill="blue"> &#160;&#160;&#160;DIVI(WOBJECT,4);</text>
<text text-anchor="start" x="57" y="-153" font-family="Courier New" font-size="10.00" fill="blue"> &#160;&#160;&#160;REF_MACHINE(WIP2);</text>
<text text-anchor="start" x="57" y="-141" font-family="Courier New" font-size="10.00" fill="blue"> &#160;&#160;&#160;MOV(R_BFRAME,WOBJECT);</text>
<text text-anchor="start" x="57" y="-129" font-family="Courier New" font-size="10.00" fill="blue"> &#160;&#160;&#160;MODI(R_BFRAME,4);</text>
<text text-anchor="start" x="57" y="-117" font-family="Courier New" font-size="10.00" fill="blue"> &#160;&#160;&#160;DIVI(WOBJECT,4);</text>
<text text-anchor="start" x="57" y="-105" font-family="Courier New" font-size="10.00" fill="blue"> &#160;&#160;&#160;REF_MACHINE(WIP1);</text>
<text text-anchor="start" x="57" y="-93" font-family="Courier New" font-size="10.00" fill="blue"> &#160;&#160;&#160;MOV(R_BFRAME,WOBJECT);</text>
<text text-anchor="start" x="57" y="-81" font-family="Courier New" font-size="10.00" fill="blue"> &#160;&#160;&#160;SHOW(0,IDS_KEY_CFGWKEY);</text>
<text text-anchor="start" x="57" y="-69" font-family="Courier New" font-size="10.00" fill="blue"> &#160;&#160;&#160;CLEAR(WOBJECT);</text>
<polygon fill="none" stroke="black" points="51,-60 51,-248 255,-248 255,-60 51,-60"/>
</g>
<!-- 2&#45;&gt;1 -->
<g id="edge3" class="edge">
<title>2&#45;&gt;1</title>
<path fill="none" stroke="black" d="M189.77,-21.18C211.36,-24.51 240.45,-32.9 255,-54 305.46,-127.18 305.46,-180.82 255,-254 242.84,-271.64 220.52,-280.4 200.91,-284.74"/>
<polygon fill="black" stroke="black" points="200.45,-281.27 191.26,-286.54 201.73,-288.15 200.45,-281.27"/>
<polygon fill="none" stroke="black" points="295,-233 295,-251 493,-251 493,-233 295,-233"/>
<text text-anchor="start" x="370" y="-240" font-family="Courier New" font-weight="bold" font-size="10.00" fill="orange">GRAB(,0)</text>
<polygon fill="none" stroke="black" points="295,-57 295,-231 493,-231 493,-57 295,-57"/>
<text text-anchor="start" x="298" y="-219" font-family="Courier New" font-size="10.00" fill="blue"> &#160;&#160;&#160;REF_MACHINE(WIP1);</text>
<text text-anchor="start" x="298" y="-207" font-family="Courier New" font-size="10.00" fill="blue"> &#160;&#160;&#160;MOV(WOBJECT,R_BFRAME);</text>
<text text-anchor="start" x="298" y="-195" font-family="Courier New" font-size="10.00" fill="blue"> &#160;&#160;&#160;CLEAR(R_BFRAME);</text>
<text text-anchor="start" x="298" y="-183" font-family="Courier New" font-size="10.00" fill="blue"> &#160;&#160;&#160;MULI(WOBJECT,4);</text>
<text text-anchor="start" x="298" y="-171" font-family="Courier New" font-size="10.00" fill="blue"> &#160;&#160;&#160;REF_MACHINE(WIP2);</text>
<text text-anchor="start" x="298" y="-159" font-family="Courier New" font-size="10.00" fill="blue"> &#160;&#160;&#160;ADD(WOBJECT,R_BFRAME);</text>
<text text-anchor="start" x="298" y="-147" font-family="Courier New" font-size="10.00" fill="blue"> &#160;&#160;&#160;CLEAR(R_BFRAME);</text>
<text text-anchor="start" x="298" y="-135" font-family="Courier New" font-size="10.00" fill="blue"> &#160;&#160;&#160;MULI(WOBJECT,4);</text>
<text text-anchor="start" x="298" y="-123" font-family="Courier New" font-size="10.00" fill="blue"> &#160;&#160;&#160;REF_MACHINE(WIP3);</text>
<text text-anchor="start" x="298" y="-111" font-family="Courier New" font-size="10.00" fill="blue"> &#160;&#160;&#160;ADD(WOBJECT,R_BFRAME);</text>
<text text-anchor="start" x="298" y="-99" font-family="Courier New" font-size="10.00" fill="blue"> &#160;&#160;&#160;CLEAR(R_BFRAME);</text>
<text text-anchor="start" x="298" y="-87" font-family="Courier New" font-size="10.00" fill="blue"> &#160;&#160;&#160;ADDI(WOBJECT,IDD_CITY_KEY1);</text>
<text text-anchor="start" x="298" y="-75" font-family="Courier New" font-size="10.00" fill="blue"> &#160;&#160;&#160;HANDOFF(WOBJECT);</text>
<text text-anchor="start" x="298" y="-63" font-family="Courier New" font-size="10.00" fill="blue"> &#160;&#160;&#160;SHOW();</text>
<polygon fill="none" stroke="black" points="292,-54 292,-254 496,-254 496,-54 292,-54"/>
</g>
</g>
</svg>
