<?xml version="1.0" encoding="UTF-8" standalone="no"?>
<!DOCTYPE svg PUBLIC "-//W3C//DTD SVG 1.1//EN"
 "http://www.w3.org/Graphics/SVG/1.1/DTD/svg11.dtd">
<!-- Generated by graphviz version 7.1.0 (20230121.1956)
 -->
<!-- Title: Automaton Pages: 1 -->
<svg width="381pt" height="453pt"
 viewBox="0.00 0.00 381.00 453.00" xmlns="http://www.w3.org/2000/svg" xmlns:xlink="http://www.w3.org/1999/xlink">
<g id="graph0" class="graph" transform="scale(1 1) rotate(0) translate(4 449)">
<title>Automaton</title>
<polygon fill="white" stroke="none" points="-4,4 -4,-449 377,-449 377,4 -4,4"/>
<!-- filename -->
<g id="node1" class="node">
<title>filename</title>
<polygon fill="none" stroke="black" points="0,-392.5 0,-444.5 118,-444.5 118,-392.5 0,-392.5"/>
<polygon fill="none" stroke="black" points="11,-419.5 11,-437.5 107,-437.5 107,-419.5 11,-419.5"/>
<text text-anchor="start" x="29" y="-426.5" font-family="Courier New" font-weight="bold" font-size="10.00">M04_SLIDER</text>
<polygon fill="none" stroke="black" points="11,-399.5 11,-417.5 107,-417.5 107,-399.5 11,-399.5"/>
<text text-anchor="start" x="14" y="-405.5" font-family="Courier New" font-size="10.00" fill="brown">start state = 0</text>
<polygon fill="none" stroke="black" points="8,-396.5 8,-440.5 110,-440.5 110,-396.5 8,-396.5"/>
</g>
<!-- 0 -->
<g id="node2" class="node">
<title>0</title>
<polyline fill="none" stroke="darkred" points="156,-407.5 170,-407.5"/>
<text text-anchor="start" x="159" y="-414.9" font-family="Courier New" font-weight="bold" font-size="14.00">0</text>
<path fill="none" stroke="darkred" d="M159.67,-404.5C159.67,-404.5 166.33,-404.5 166.33,-404.5 169.67,-404.5 173,-407.83 173,-411.17 173,-411.17 173,-425.83 173,-425.83 173,-429.17 169.67,-432.5 166.33,-432.5 166.33,-432.5 159.67,-432.5 159.67,-432.5 156.33,-432.5 153,-429.17 153,-425.83 153,-425.83 153,-411.17 153,-411.17 153,-407.83 156.33,-404.5 159.67,-404.5"/>
</g>
<!-- 1 -->
<g id="node3" class="node">
<title>1</title>
<polyline fill="none" stroke="darkred" points="156,-307 170,-307"/>
<text text-anchor="start" x="159" y="-314.4" font-family="Courier New" font-weight="bold" font-size="14.00">1</text>
<path fill="none" stroke="darkred" d="M159.67,-304C159.67,-304 166.33,-304 166.33,-304 169.67,-304 173,-307.33 173,-310.67 173,-310.67 173,-325.33 173,-325.33 173,-328.67 169.67,-332 166.33,-332 166.33,-332 159.67,-332 159.67,-332 156.33,-332 153,-328.67 153,-325.33 153,-325.33 153,-310.67 153,-310.67 153,-307.33 156.33,-304 159.67,-304"/>
</g>
<!-- 0&#45;&gt;1 -->
<g id="edge1" class="edge">
<title>0&#45;&gt;1</title>
<path fill="none" stroke="black" d="M163,-400.79C163,-386.14 163,-364.55 163,-347.23"/>
<polygon fill="black" stroke="black" points="166.5,-347.3 163,-337.3 159.5,-347.3 166.5,-347.3"/>
<text text-anchor="start" x="167" y="-362" font-family="Courier New" font-weight="bold" font-size="10.00" fill="blue">MOV(WSPRITE,WIP1)</text>
</g>
<!-- 5 -->
<g id="node4" class="node">
<title>5</title>
<polyline fill="none" stroke="darkred" points="49,-215 63,-215"/>
<text text-anchor="start" x="52" y="-222.4" font-family="Courier New" font-weight="bold" font-size="14.00">5</text>
<path fill="none" stroke="darkred" d="M52.67,-212C52.67,-212 59.33,-212 59.33,-212 62.67,-212 66,-215.33 66,-218.67 66,-218.67 66,-233.33 66,-233.33 66,-236.67 62.67,-240 59.33,-240 59.33,-240 52.67,-240 52.67,-240 49.33,-240 46,-236.67 46,-233.33 46,-233.33 46,-218.67 46,-218.67 46,-215.33 49.33,-212 52.67,-212"/>
</g>
<!-- 1&#45;&gt;5 -->
<g id="edge2" class="edge">
<title>1&#45;&gt;5</title>
<path fill="none" stroke="black" d="M136.28,-316.38C111.28,-314.21 75.16,-306.65 57,-282 51.38,-274.38 49.97,-264.41 50.34,-255.06"/>
<polygon fill="black" stroke="black" points="53.8,-255.59 51.42,-245.27 46.84,-254.82 53.8,-255.59"/>
<text text-anchor="start" x="61" y="-270" font-family="Courier New" font-weight="bold" font-size="10.00" fill="blue">SHOW(WSPRITE,)</text>
</g>
<!-- 10 -->
<g id="node5" class="node">
<title>10</title>
<polyline fill="none" stroke="darkred" points="45,-99 67,-99"/>
<text text-anchor="start" x="48" y="-106.4" font-family="Courier New" font-weight="bold" font-size="14.00">10</text>
<path fill="none" stroke="darkred" d="M51.33,-96C51.33,-96 60.67,-96 60.67,-96 65.33,-96 70,-100.67 70,-105.33 70,-105.33 70,-114.67 70,-114.67 70,-119.33 65.33,-124 60.67,-124 60.67,-124 51.33,-124 51.33,-124 46.67,-124 42,-119.33 42,-114.67 42,-114.67 42,-105.33 42,-105.33 42,-100.67 46.67,-96 51.33,-96"/>
</g>
<!-- 5&#45;&gt;10 -->
<g id="edge6" class="edge">
<title>5&#45;&gt;10</title>
<path fill="none" stroke="black" d="M56,-208.18C56,-190.08 56,-160.98 56,-139.33"/>
<polygon fill="black" stroke="black" points="59.5,-139.4 56,-129.4 52.5,-139.4 59.5,-139.4"/>
<text text-anchor="start" x="60" y="-166" font-family="Courier New" font-weight="bold" font-size="10.00" fill="orange">CLICK(,)</text>
</g>
<!-- 20 -->
<g id="node6" class="node">
<title>20</title>
<polyline fill="none" stroke="darkred" points="152,-7 174,-7"/>
<text text-anchor="start" x="155" y="-14.4" font-family="Courier New" font-weight="bold" font-size="14.00">20</text>
<path fill="none" stroke="darkred" d="M158.33,-4C158.33,-4 167.67,-4 167.67,-4 172.33,-4 177,-8.67 177,-13.33 177,-13.33 177,-22.67 177,-22.67 177,-27.33 172.33,-32 167.67,-32 167.67,-32 158.33,-32 158.33,-32 153.67,-32 149,-27.33 149,-22.67 149,-22.67 149,-13.33 149,-13.33 149,-8.67 153.67,-4 158.33,-4"/>
</g>
<!-- 10&#45;&gt;20 -->
<g id="edge3" class="edge">
<title>10&#45;&gt;20</title>
<path fill="none" stroke="black" d="M51.59,-92.24C49.52,-80.42 49.01,-64.84 57,-54 72.61,-32.82 101.48,-24.26 125.15,-20.89"/>
<polygon fill="black" stroke="black" points="125.23,-24.4 134.77,-19.79 124.44,-17.45 125.23,-24.4"/>
<text text-anchor="start" x="61" y="-62" font-family="Courier New" font-weight="bold" font-size="10.00" fill="blue">ADDI(BFRAME,1)</text>
</g>
<!-- 20&#45;&gt;1 -->
<g id="edge4" class="edge">
<title>20&#45;&gt;1</title>
<path fill="none" stroke="black" d="M163,-35.69C163,-84.52 163,-227.52 163,-288.7"/>
<polygon fill="black" stroke="black" points="159.5,-288.61 163,-298.61 166.5,-288.61 159.5,-288.61"/>
<text text-anchor="start" x="167" y="-166" font-family="Courier New" font-weight="bold" font-size="10.00" fill="blue">LTEi(BFRAME,3)</text>
</g>
<!-- 20&#45;&gt;1 -->
<g id="edge5" class="edge">
<title>20&#45;&gt;1</title>
<path fill="none" stroke="black" d="M183.12,-35.77C216.02,-65.36 275.8,-129.45 256,-190 242.84,-230.25 211.53,-268.31 188.87,-292.08"/>
<polygon fill="black" stroke="black" points="186.51,-289.49 182.02,-299.09 191.52,-294.38 186.51,-289.49"/>
<polygon fill="none" stroke="black" points="262,-169 262,-187 370,-187 370,-169 262,-169"/>
<text text-anchor="start" x="279.99" y="-176" font-family="Courier New" font-weight="bold" font-size="10.00" fill="blue">Z_EPSILON(,)</text>
<polygon fill="none" stroke="black" points="262,-149 262,-167 370,-167 370,-149 262,-149"/>
<text text-anchor="start" x="265" y="-155" font-family="Courier New" font-size="10.00" fill="blue">ASSIGN(BFRAME,0);</text>
<polygon fill="none" stroke="black" points="259,-146 259,-190 373,-190 373,-146 259,-146"/>
</g>
</g>
</svg>
