<?xml version="1.0" encoding="UTF-8" standalone="no"?>
<!DOCTYPE svg PUBLIC "-//W3C//DTD SVG 1.1//EN"
 "http://www.w3.org/Graphics/SVG/1.1/DTD/svg11.dtd">
<!-- Generated by graphviz version 7.1.0 (20230121.1956)
 -->
<!-- Pages: 1 -->
<svg width="633pt" height="369pt"
 viewBox="0.00 0.00 633.39 369.00" xmlns="http://www.w3.org/2000/svg" xmlns:xlink="http://www.w3.org/1999/xlink">
<g id="graph0" class="graph" transform="scale(1 1) rotate(0) translate(4 365)">
<polygon fill="white" stroke="none" points="-4,4 -4,-365 629.39,-365 629.39,4 -4,4"/>
<!-- 0 -->
<g id="node1" class="node">
<title>0</title>
<ellipse fill="none" stroke="black" cx="283.39" cy="-322.5" rx="27" ry="18"/>
<text text-anchor="middle" x="283.39" y="-318.3" font-family="Times,serif" font-size="14.00">0</text>
</g>
<!-- 0&#45;&gt;0 -->
<g id="edge3" class="edge">
<title>0&#45;&gt;0</title>
<path fill="none" stroke="black" d="M304.22,-334.37C316.67,-337 328.39,-333.05 328.39,-322.5 328.39,-315.33 322.97,-311.21 315.6,-310.13"/>
<polygon fill="black" stroke="black" points="315.56,-306.63 305.73,-310.57 315.87,-313.62 315.56,-306.63"/>
<polygon fill="none" stroke="black" points="331.89,-337.5 331.89,-357.5 500.89,-357.5 500.89,-337.5 331.89,-337.5"/>
<text text-anchor="start" x="383.98" y="-344.7" font-family="Courier New" font-weight="bold" font-size="12.00" fill="orange">WAIT(0,0)</text>
<polygon fill="none" stroke="black" points="331.89,-286.5 331.89,-335.5 500.89,-335.5 500.89,-286.5 331.89,-286.5"/>
<text text-anchor="start" x="334.89" y="-321.7" font-family="Times,serif" font-size="12.00" fill="blue"> &#160;&#160;&#160;REF_MACHINE(WIP3);</text>
<text text-anchor="start" x="334.89" y="-307.3" font-family="Times,serif" font-size="12.00" fill="blue"> &#160;&#160;&#160;MOV(BPARM,R_BFRAME);</text>
<text text-anchor="start" x="334.89" y="-292.9" font-family="Times,serif" font-size="12.00" fill="blue"> &#160;&#160;&#160;MAPi(BPARM,CHEMCOST);</text>
<polygon fill="none" stroke="black" points="328.39,-284 328.39,-361 503.39,-361 503.39,-284 328.39,-284"/>
</g>
<!-- 7 -->
<g id="node2" class="node">
<title>7</title>
<ellipse fill="none" stroke="black" cx="250.39" cy="-18" rx="27" ry="18"/>
<text text-anchor="middle" x="250.39" y="-13.8" font-family="Times,serif" font-size="14.00">7</text>
</g>
<!-- 0&#45;&gt;7 -->
<g id="edge1" class="edge">
<title>0&#45;&gt;7</title>
<path fill="none" stroke="black" d="M258.94,-314.62C200.14,-296.46 52.73,-240.92 13.39,-131 1.85,-98.78 -8.97,-79.91 13.39,-54 38.55,-24.85 151.29,-19.56 211.76,-18.86"/>
<polygon fill="black" stroke="black" points="211.63,-22.36 221.61,-18.79 211.58,-15.36 211.63,-22.36"/>
<text text-anchor="start" x="86.39" y="-184.7" font-family="Courier New" font-weight="bold" font-size="12.00" fill="orange">CLICK(0,0)</text>
</g>
<!-- 1 -->
<g id="node3" class="node">
<title>1</title>
<ellipse fill="none" stroke="black" cx="207.39" cy="-187.5" rx="27" ry="18"/>
<text text-anchor="middle" x="207.39" y="-183.3" font-family="Times,serif" font-size="14.00">1</text>
</g>
<!-- 0&#45;&gt;1 -->
<g id="edge2" class="edge">
<title>0&#45;&gt;1</title>
<path fill="none" stroke="black" d="M261.16,-311.96C243.31,-302.96 219.46,-287.63 208.39,-266 200.66,-250.92 200.3,-231.93 201.92,-216.52"/>
<polygon fill="black" stroke="black" points="205.32,-217.45 203.24,-207.06 198.39,-216.47 205.32,-217.45"/>
<text text-anchor="start" x="212.89" y="-252.2" font-family="Courier New" font-weight="bold" font-size="12.00" fill="orange">DRAG(0,IDD_SCOOPF)</text>
</g>
<!-- 7&#45;&gt;0 -->
<g id="edge6" class="edge">
<title>7&#45;&gt;0</title>
<path fill="none" stroke="black" d="M277.08,-21.24C298.61,-24.6 327.67,-33.01 342.39,-54 390.87,-123.14 351.12,-253.17 345.39,-266 338.58,-281.24 325.28,-294.03 312.75,-303.47"/>
<polygon fill="black" stroke="black" points="310.83,-300.54 304.66,-309.16 314.86,-306.27 310.83,-300.54"/>
<polygon fill="none" stroke="black" points="368.89,-202.5 368.89,-222.5 511.89,-222.5 511.89,-202.5 368.89,-202.5"/>
<text text-anchor="start" x="382.78" y="-209.7" font-family="Courier New" font-weight="bold" font-size="12.00" fill="blue">GTE(WPARM,BPARM)</text>
<polygon fill="none" stroke="black" points="368.89,-151.5 368.89,-200.5 511.89,-200.5 511.89,-151.5 368.89,-151.5"/>
<text text-anchor="start" x="371.89" y="-186.7" font-family="Times,serif" font-size="12.00" fill="blue"> &#160;&#160;&#160;SIGNAL(WIP1);</text>
<text text-anchor="start" x="371.89" y="-172.3" font-family="Times,serif" font-size="12.00" fill="blue"> &#160;&#160;&#160;SIGNAL(WIP2);</text>
<text text-anchor="start" x="371.89" y="-157.9" font-family="Times,serif" font-size="12.00" fill="blue"> &#160;&#160;&#160;SUB(WPARM,BPARM);</text>
<polygon fill="none" stroke="black" points="365.39,-149 365.39,-226 514.39,-226 514.39,-149 365.39,-149"/>
</g>
<!-- 7&#45;&gt;0 -->
<g id="edge7" class="edge">
<title>7&#45;&gt;0</title>
<path fill="none" stroke="black" d="M276.93,-22.07C334.29,-30.33 468.63,-58.92 518.39,-149 534.93,-178.96 537.5,-197.61 518.39,-226 474.17,-291.69 376.14,-312.22 321.7,-318.61"/>
<polygon fill="black" stroke="black" points="321.54,-315.11 311.96,-319.65 322.27,-322.07 321.54,-315.11"/>
<text text-anchor="start" x="535.39" y="-184.7" font-family="Courier New" font-weight="bold" font-size="12.00" fill="blue">Z_EPSILON(,)</text>
</g>
<!-- 1&#45;&gt;7 -->
<g id="edge4" class="edge">
<title>1&#45;&gt;7</title>
<path fill="none" stroke="black" d="M183.07,-179.19C135.53,-164.85 34.69,-134.14 32.39,-131 12.17,-103.38 10.19,-80.05 32.39,-54 55.02,-27.44 155.71,-20.96 211.99,-19.43"/>
<polygon fill="black" stroke="black" points="211.85,-22.93 221.77,-19.2 211.69,-15.93 211.85,-22.93"/>
<polygon fill="none" stroke="black" points="35.39,-107.5 35.39,-127.5 225.39,-127.5 225.39,-107.5 35.39,-107.5"/>
<text text-anchor="start" x="76.38" y="-114.7" font-family="Courier New" font-weight="bold" font-size="12.00" fill="blue">LT(WPARM,BPARM)</text>
<polygon fill="none" stroke="black" points="35.39,-56.5 35.39,-105.5 225.39,-105.5 225.39,-56.5 35.39,-56.5"/>
<text text-anchor="start" x="38.39" y="-91.7" font-family="Times,serif" font-size="12.00" fill="blue"> &#160;&#160;&#160;ADDI(WPARM,1);</text>
<text text-anchor="start" x="38.39" y="-77.3" font-family="Times,serif" font-size="12.00" fill="blue"> &#160;&#160;&#160;HANDOFF(0,IDD_SCOOPE);</text>
<text text-anchor="start" x="38.39" y="-62.9" font-family="Times,serif" font-size="12.00" fill="blue"> &#160;&#160;&#160;PLAYWAVE(0,SOUND_SLURP);</text>
<polygon fill="none" stroke="black" points="32.39,-54 32.39,-131 228.39,-131 228.39,-54 32.39,-54"/>
</g>
<!-- 1&#45;&gt;7 -->
<g id="edge5" class="edge">
<title>1&#45;&gt;7</title>
<path fill="none" stroke="black" d="M214.57,-169.74C219.02,-158.86 224.6,-144.28 228.39,-131 236.36,-103.06 242.42,-70.37 246.14,-47.55"/>
<polygon fill="black" stroke="black" points="249.58,-48.21 247.68,-37.78 242.66,-47.12 249.58,-48.21"/>
<text text-anchor="start" x="248.39" y="-89.7" font-family="Courier New" font-weight="bold" font-size="12.00" fill="blue">Z_EPSILON(,)</text>
</g>
</g>
</svg>
