<?xml version="1.0" encoding="UTF-8" standalone="no"?>
<!DOCTYPE svg PUBLIC "-//W3C//DTD SVG 1.1//EN"
 "http://www.w3.org/Graphics/SVG/1.1/DTD/svg11.dtd">
<!-- Generated by graphviz version 7.1.0 (20230121.1956)
 -->
<!-- Title: Automaton Pages: 1 -->
<svg width="689pt" height="349pt"
 viewBox="0.00 0.00 689.43 349.00" xmlns="http://www.w3.org/2000/svg" xmlns:xlink="http://www.w3.org/1999/xlink">
<g id="graph0" class="graph" transform="scale(1 1) rotate(0) translate(4 345)">
<title>Automaton</title>
<polygon fill="white" stroke="none" points="-4,4 -4,-345 685.43,-345 685.43,4 -4,4"/>
<!-- filename -->
<g id="node1" class="node">
<title>filename</title>
<polygon fill="none" stroke="black" points="207.43,-288.5 207.43,-340.5 325.43,-340.5 325.43,-288.5 207.43,-288.5"/>
<polygon fill="none" stroke="black" points="218.43,-315.5 218.43,-333.5 314.43,-333.5 314.43,-315.5 218.43,-315.5"/>
<text text-anchor="start" x="242.42" y="-322.5" font-family="Courier New" font-weight="bold" font-size="10.00">M05_ICON</text>
<polygon fill="none" stroke="black" points="218.43,-295.5 218.43,-313.5 314.43,-313.5 314.43,-295.5 218.43,-295.5"/>
<text text-anchor="start" x="221.43" y="-301.5" font-family="Courier New" font-size="10.00" fill="brown">start state = 0</text>
<polygon fill="none" stroke="black" points="215.43,-292.5 215.43,-336.5 317.43,-336.5 317.43,-292.5 215.43,-292.5"/>
</g>
<!-- 0 -->
<g id="node2" class="node">
<title>0</title>
<polyline fill="none" stroke="darkred" points="363.43,-303.5 377.43,-303.5"/>
<text text-anchor="start" x="366.43" y="-310.9" font-family="Courier New" font-weight="bold" font-size="14.00">0</text>
<path fill="none" stroke="darkred" d="M367.09,-300.5C367.09,-300.5 373.76,-300.5 373.76,-300.5 377.09,-300.5 380.43,-303.83 380.43,-307.17 380.43,-307.17 380.43,-321.83 380.43,-321.83 380.43,-325.17 377.09,-328.5 373.76,-328.5 373.76,-328.5 367.09,-328.5 367.09,-328.5 363.76,-328.5 360.43,-325.17 360.43,-321.83 360.43,-321.83 360.43,-307.17 360.43,-307.17 360.43,-303.83 363.76,-300.5 367.09,-300.5"/>
</g>
<!-- 2 -->
<g id="node3" class="node">
<title>2</title>
<polyline fill="none" stroke="darkred" points="140.43,-157 154.43,-157"/>
<text text-anchor="start" x="143.43" y="-164.4" font-family="Courier New" font-weight="bold" font-size="14.00">2</text>
<path fill="none" stroke="darkred" d="M144.09,-154C144.09,-154 150.76,-154 150.76,-154 154.09,-154 157.43,-157.33 157.43,-160.67 157.43,-160.67 157.43,-175.33 157.43,-175.33 157.43,-178.67 154.09,-182 150.76,-182 150.76,-182 144.09,-182 144.09,-182 140.76,-182 137.43,-178.67 137.43,-175.33 137.43,-175.33 137.43,-160.67 137.43,-160.67 137.43,-157.33 140.76,-154 144.09,-154"/>
</g>
<!-- 0&#45;&gt;2 -->
<g id="edge1" class="edge">
<title>0&#45;&gt;2</title>
<path fill="none" stroke="black" d="M349.54,-296.7C344.78,-293.45 339.59,-290.33 334.43,-288 302.8,-273.71 289.13,-286.2 258.43,-270 222.42,-251 189.01,-217.57 168.45,-194.4"/>
<polygon fill="black" stroke="black" points="171.15,-192.17 161.95,-186.91 165.87,-196.76 171.15,-192.17"/>
<polygon fill="none" stroke="black" points="261.43,-249 261.43,-267 363.43,-267 363.43,-249 261.43,-249"/>
<text text-anchor="start" x="264.43" y="-256" font-family="Courier New" font-weight="bold" font-size="10.00" fill="orange">WAIT(0,SIG_INC1)</text>
<polygon fill="none" stroke="black" points="261.43,-229 261.43,-247 363.43,-247 363.43,-229 261.43,-229"/>
<text text-anchor="start" x="267.42" y="-235" font-family="Courier New" font-size="10.00" fill="blue">ADDI(BFRAME,1);</text>
<polygon fill="none" stroke="black" points="258.43,-226 258.43,-270 366.43,-270 366.43,-226 258.43,-226"/>
</g>
<!-- 7 -->
<g id="node4" class="node">
<title>7</title>
<polyline fill="none" stroke="darkred" points="363.43,-157 377.43,-157"/>
<text text-anchor="start" x="366.43" y="-164.4" font-family="Courier New" font-weight="bold" font-size="14.00">7</text>
<path fill="none" stroke="darkred" d="M367.09,-154C367.09,-154 373.76,-154 373.76,-154 377.09,-154 380.43,-157.33 380.43,-160.67 380.43,-160.67 380.43,-175.33 380.43,-175.33 380.43,-178.67 377.09,-182 373.76,-182 373.76,-182 367.09,-182 367.09,-182 363.76,-182 360.43,-178.67 360.43,-175.33 360.43,-175.33 360.43,-160.67 360.43,-160.67 360.43,-157.33 363.76,-154 367.09,-154"/>
</g>
<!-- 0&#45;&gt;7 -->
<g id="edge2" class="edge">
<title>0&#45;&gt;7</title>
<path fill="none" stroke="black" d="M370.43,-296.64C370.43,-272.17 370.43,-226.51 370.43,-196.95"/>
<polygon fill="black" stroke="black" points="373.93,-197.26 370.43,-187.26 366.93,-197.26 373.93,-197.26"/>
<polygon fill="none" stroke="black" points="373.43,-249 373.43,-267 475.43,-267 475.43,-249 373.43,-249"/>
<text text-anchor="start" x="376.43" y="-256" font-family="Courier New" font-weight="bold" font-size="10.00" fill="orange">WAIT(0,SIG_DEC1)</text>
<polygon fill="none" stroke="black" points="373.43,-229 373.43,-247 475.43,-247 475.43,-229 373.43,-229"/>
<text text-anchor="start" x="379.42" y="-235" font-family="Courier New" font-size="10.00" fill="blue">SUBI(BFRAME,1);</text>
<polygon fill="none" stroke="black" points="370.43,-226 370.43,-270 478.43,-270 478.43,-226 370.43,-226"/>
</g>
<!-- 20 -->
<g id="node5" class="node">
<title>20</title>
<polyline fill="none" stroke="darkred" points="239.43,-7 261.43,-7"/>
<text text-anchor="start" x="242.43" y="-14.4" font-family="Courier New" font-weight="bold" font-size="14.00">20</text>
<path fill="none" stroke="darkred" d="M245.76,-4C245.76,-4 255.09,-4 255.09,-4 259.76,-4 264.43,-8.67 264.43,-13.33 264.43,-13.33 264.43,-22.67 264.43,-22.67 264.43,-27.33 259.76,-32 255.09,-32 255.09,-32 245.76,-32 245.76,-32 241.09,-32 236.43,-27.33 236.43,-22.67 236.43,-22.67 236.43,-13.33 236.43,-13.33 236.43,-8.67 241.09,-4 245.76,-4"/>
</g>
<!-- 2&#45;&gt;20 -->
<g id="edge3" class="edge">
<title>2&#45;&gt;20</title>
<path fill="none" stroke="black" d="M120.71,-164.42C88.52,-159.71 35.74,-146.56 11.43,-110 -2.36,-89.28 -4.85,-72.83 11.43,-54 36.94,-24.48 151.66,-19.38 212.4,-18.8"/>
<polygon fill="black" stroke="black" points="212.3,-22.3 222.28,-18.75 212.26,-15.3 212.3,-22.3"/>
<polygon fill="none" stroke="black" points="14.43,-83 14.43,-101 122.43,-101 122.43,-83 14.43,-83"/>
<text text-anchor="start" x="17.43" y="-90" font-family="Courier New" font-weight="bold" font-size="10.00" fill="blue">GTEi(BFRAME,WIP4)</text>
<polygon fill="none" stroke="black" points="14.43,-63 14.43,-81 122.43,-81 122.43,-63 14.43,-63"/>
<text text-anchor="start" x="17.43" y="-69" font-family="Courier New" font-size="10.00" fill="blue">ASSIGN(BFRAME,0);</text>
<polygon fill="none" stroke="black" points="11.43,-60 11.43,-104 125.43,-104 125.43,-60 11.43,-60"/>
</g>
<!-- 2&#45;&gt;20 -->
<g id="edge4" class="edge">
<title>2&#45;&gt;20</title>
<path fill="none" stroke="black" d="M142.07,-150.21C135.59,-126.38 127.89,-82.49 148.43,-54 162.97,-33.82 189.89,-25.16 212.42,-21.5"/>
<polygon fill="black" stroke="black" points="212.76,-24.98 222.21,-20.2 211.84,-18.04 212.76,-24.98"/>
<text text-anchor="start" x="152.43" y="-80" font-family="Courier New" font-weight="bold" font-size="10.00" fill="blue">Z_EPSILON(,)</text>
</g>
<!-- 7&#45;&gt;20 -->
<g id="edge6" class="edge">
<title>7&#45;&gt;20</title>
<path fill="none" stroke="black" d="M343.45,-162.54C315.04,-156.25 271.68,-141.78 251.43,-110 239.61,-91.46 240.34,-66.2 243.47,-46.99"/>
<polygon fill="black" stroke="black" points="246.86,-47.9 245.35,-37.42 239.99,-46.56 246.86,-47.9"/>
<polygon fill="none" stroke="black" points="254.43,-89 254.43,-107 404.43,-107 404.43,-89 254.43,-89"/>
<text text-anchor="start" x="290.42" y="-96" font-family="Courier New" font-weight="bold" font-size="10.00" fill="blue">LTi(BFRAME,0)</text>
<polygon fill="none" stroke="black" points="254.43,-57 254.43,-87 404.43,-87 404.43,-57 254.43,-57"/>
<text text-anchor="start" x="257.43" y="-75" font-family="Courier New" font-size="10.00" fill="blue"> &#160;&#160;&#160;ASSIGN(BFRAME,WIP4);</text>
<text text-anchor="start" x="257.43" y="-63" font-family="Courier New" font-size="10.00" fill="blue"> &#160;&#160;&#160;SUBI &#160;(BFRAME,1);</text>
<polygon fill="none" stroke="black" points="251.43,-54 251.43,-110 407.43,-110 407.43,-54 251.43,-54"/>
</g>
<!-- 7&#45;&gt;20 -->
<g id="edge7" class="edge">
<title>7&#45;&gt;20</title>
<path fill="none" stroke="black" d="M384.73,-150.31C403.24,-126.59 430.54,-82.83 407.43,-54 392.81,-35.77 330.2,-26.41 288.59,-22.12"/>
<polygon fill="black" stroke="black" points="289.01,-18.65 278.72,-21.17 288.34,-25.62 289.01,-18.65"/>
<text text-anchor="start" x="420.43" y="-80" font-family="Courier New" font-weight="bold" font-size="10.00" fill="blue">Z_EPSILON(,)</text>
</g>
<!-- 20&#45;&gt;0 -->
<g id="edge5" class="edge">
<title>20&#45;&gt;0</title>
<path fill="none" stroke="black" d="M277.39,-18.54C335.94,-18.18 471.74,-21.01 500.43,-54 563.65,-126.69 541.2,-193.67 482.43,-270 464.77,-292.93 433.35,-303.78 408.28,-308.91"/>
<polygon fill="black" stroke="black" points="407.99,-305.41 398.76,-310.62 409.23,-312.3 407.99,-305.41"/>
<polygon fill="none" stroke="black" points="540.43,-187 540.43,-205 678.43,-205 678.43,-187 540.43,-187"/>
<text text-anchor="start" x="573.42" y="-194" font-family="Courier New" font-weight="bold" font-size="10.00" fill="blue">Z_EPSILON(,)</text>
<polygon fill="none" stroke="black" points="540.43,-131 540.43,-185 678.43,-185 678.43,-131 540.43,-131"/>
<text text-anchor="start" x="543.43" y="-173" font-family="Courier New" font-size="10.00" fill="blue"> &#160;&#160;&#160;SHOW(0,IDS_CHEMS);</text>
<text text-anchor="start" x="543.43" y="-161" font-family="Courier New" font-size="10.00" fill="blue"> &#160;&#160;&#160;SIGNAL(WIP1,);</text>
<text text-anchor="start" x="543.43" y="-149" font-family="Courier New" font-size="10.00" fill="blue"> &#160;&#160;&#160;SIGNAL(WIP2,);</text>
<text text-anchor="start" x="543.43" y="-137" font-family="Courier New" font-size="10.00" fill="blue"> &#160;&#160;&#160;SIGNAL(WIP3,);</text>
<polygon fill="none" stroke="black" points="537.43,-128 537.43,-208 681.43,-208 681.43,-128 537.43,-128"/>
</g>
</g>
</svg>
