<?xml version="1.0" encoding="UTF-8" standalone="no"?>
<!DOCTYPE svg PUBLIC "-//W3C//DTD SVG 1.1//EN"
 "http://www.w3.org/Graphics/SVG/1.1/DTD/svg11.dtd">
<!-- Generated by graphviz version 7.1.0 (20230121.1956)
 -->
<!-- Pages: 1 -->
<svg width="620pt" height="369pt"
 viewBox="0.00 0.00 619.63 369.00" xmlns="http://www.w3.org/2000/svg" xmlns:xlink="http://www.w3.org/1999/xlink">
<g id="graph0" class="graph" transform="scale(1 1) rotate(0) translate(4 365)">
<polygon fill="white" stroke="none" points="-4,4 -4,-365 615.63,-365 615.63,4 -4,4"/>
<!-- 0 -->
<g id="node1" class="node">
<title>0</title>
<ellipse fill="none" stroke="black" cx="279.63" cy="-322.5" rx="27" ry="18"/>
<text text-anchor="middle" x="279.63" y="-318.3" font-family="Times,serif" font-size="14.00">0</text>
</g>
<!-- 0&#45;&gt;0 -->
<g id="edge3" class="edge">
<title>0&#45;&gt;0</title>
<path fill="none" stroke="black" d="M300.46,-334.37C312.91,-337 324.63,-333.05 324.63,-322.5 324.63,-315.33 319.22,-311.21 311.84,-310.13"/>
<polygon fill="black" stroke="black" points="311.81,-306.63 301.97,-310.57 312.12,-313.62 311.81,-306.63"/>
<polygon fill="none" stroke="black" points="328.13,-337.5 328.13,-357.5 497.13,-357.5 497.13,-337.5 328.13,-337.5"/>
<text text-anchor="start" x="383.82" y="-344.7" font-family="Courier New" font-weight="bold" font-size="12.00" fill="orange">WAIT(00)</text>
<polygon fill="none" stroke="black" points="328.13,-286.5 328.13,-335.5 497.13,-335.5 497.13,-286.5 328.13,-286.5"/>
<text text-anchor="start" x="331.13" y="-321.7" font-family="Times,serif" font-size="12.00" fill="blue"> &#160;&#160;&#160;REF_MACHINE(WIP3);</text>
<text text-anchor="start" x="331.13" y="-307.3" font-family="Times,serif" font-size="12.00" fill="blue"> &#160;&#160;&#160;MOV(BPARM,R_BFRAME);</text>
<text text-anchor="start" x="331.13" y="-292.9" font-family="Times,serif" font-size="12.00" fill="blue"> &#160;&#160;&#160;MAPi(BPARM,CHEMCOST);</text>
<polygon fill="none" stroke="black" points="324.63,-284 324.63,-361 499.63,-361 499.63,-284 324.63,-284"/>
</g>
<!-- 7 -->
<g id="node2" class="node">
<title>7</title>
<ellipse fill="none" stroke="black" cx="250.63" cy="-18" rx="27" ry="18"/>
<text text-anchor="middle" x="250.63" y="-13.8" font-family="Times,serif" font-size="14.00">7</text>
</g>
<!-- 0&#45;&gt;7 -->
<g id="edge1" class="edge">
<title>0&#45;&gt;7</title>
<path fill="none" stroke="black" d="M255.48,-314.22C198.06,-295.34 55.1,-238.59 13.63,-131 1.32,-99.07 -8.73,-79.91 13.63,-54 38.79,-24.85 151.53,-19.56 212.01,-18.86"/>
<polygon fill="black" stroke="black" points="211.87,-22.36 221.85,-18.79 211.82,-15.36 211.87,-22.36"/>
<text text-anchor="start" x="90.63" y="-184.7" font-family="Courier New" font-weight="bold" font-size="12.00" fill="orange">CLICK(00)</text>
</g>
<!-- 1 -->
<g id="node3" class="node">
<title>1</title>
<ellipse fill="none" stroke="black" cx="207.63" cy="-187.5" rx="27" ry="18"/>
<text text-anchor="middle" x="207.63" y="-183.3" font-family="Times,serif" font-size="14.00">1</text>
</g>
<!-- 0&#45;&gt;1 -->
<g id="edge2" class="edge">
<title>0&#45;&gt;1</title>
<path fill="none" stroke="black" d="M257.87,-311.28C241.03,-302.06 218.91,-286.75 208.63,-266 201.23,-251.06 200.75,-232.43 202.24,-217.18"/>
<polygon fill="black" stroke="black" points="205.7,-217.69 203.55,-207.31 198.76,-216.76 205.7,-217.69"/>
<text text-anchor="start" x="212.63" y="-252.2" font-family="Courier New" font-weight="bold" font-size="12.00" fill="orange">DRAG(0IDD_SCOOPF)</text>
</g>
<!-- 7&#45;&gt;0 -->
<g id="edge6" class="edge">
<title>7&#45;&gt;0</title>
<path fill="none" stroke="black" d="M277.36,-22.25C297.06,-26.19 322.6,-34.88 335.63,-54 382.57,-122.92 344.18,-253.15 338.63,-266 332.29,-280.67 319.95,-293.25 308.19,-302.71"/>
<polygon fill="black" stroke="black" points="306.12,-299.89 300.22,-308.69 310.32,-305.49 306.12,-299.89"/>
<polygon fill="none" stroke="black" points="362.13,-202.5 362.13,-222.5 505.13,-222.5 505.13,-202.5 362.13,-202.5"/>
<text text-anchor="start" x="379.62" y="-209.7" font-family="Courier New" font-weight="bold" font-size="12.00" fill="blue">GTE(WPARMBPARM)</text>
<polygon fill="none" stroke="black" points="362.13,-151.5 362.13,-200.5 505.13,-200.5 505.13,-151.5 362.13,-151.5"/>
<text text-anchor="start" x="365.13" y="-186.7" font-family="Times,serif" font-size="12.00" fill="blue"> &#160;&#160;&#160;SIGNAL(WIP1);</text>
<text text-anchor="start" x="365.13" y="-172.3" font-family="Times,serif" font-size="12.00" fill="blue"> &#160;&#160;&#160;SIGNAL(WIP2);</text>
<text text-anchor="start" x="365.13" y="-157.9" font-family="Times,serif" font-size="12.00" fill="blue"> &#160;&#160;&#160;SUB(WPARM,BPARM);</text>
<polygon fill="none" stroke="black" points="358.63,-149 358.63,-226 507.63,-226 507.63,-149 358.63,-149"/>
</g>
<!-- 7&#45;&gt;0 -->
<g id="edge7" class="edge">
<title>7&#45;&gt;0</title>
<path fill="none" stroke="black" d="M277.29,-22.48C333.54,-31.48 463.17,-61.26 511.63,-149 528.17,-178.96 530.67,-197.57 511.63,-226 468.16,-290.9 371.74,-311.74 317.89,-318.4"/>
<polygon fill="black" stroke="black" points="317.81,-314.88 308.26,-319.48 318.59,-321.84 317.81,-314.88"/>
<text text-anchor="start" x="529.13" y="-184.7" font-family="Courier New" font-weight="bold" font-size="12.00" fill="blue">Z_EPSILON()</text>
</g>
<!-- 1&#45;&gt;7 -->
<g id="edge4" class="edge">
<title>1&#45;&gt;7</title>
<path fill="none" stroke="black" d="M182.97,-179.51C135.85,-166.04 37.21,-137.25 32.63,-131 12.42,-103.38 10.43,-80.05 32.63,-54 55.26,-27.44 155.95,-20.96 212.23,-19.43"/>
<polygon fill="black" stroke="black" points="212.09,-22.93 222.01,-19.2 211.93,-15.93 212.09,-22.93"/>
<polygon fill="none" stroke="black" points="35.63,-107.5 35.63,-127.5 225.63,-127.5 225.63,-107.5 35.63,-107.5"/>
<text text-anchor="start" x="80.22" y="-114.7" font-family="Courier New" font-weight="bold" font-size="12.00" fill="blue">LT(WPARMBPARM)</text>
<polygon fill="none" stroke="black" points="35.63,-56.5 35.63,-105.5 225.63,-105.5 225.63,-56.5 35.63,-56.5"/>
<text text-anchor="start" x="38.63" y="-91.7" font-family="Times,serif" font-size="12.00" fill="blue"> &#160;&#160;&#160;ADDI(WPARM,1);</text>
<text text-anchor="start" x="38.63" y="-77.3" font-family="Times,serif" font-size="12.00" fill="blue"> &#160;&#160;&#160;HANDOFF(0,IDD_SCOOPE);</text>
<text text-anchor="start" x="38.63" y="-62.9" font-family="Times,serif" font-size="12.00" fill="blue"> &#160;&#160;&#160;PLAYWAVE(0,SOUND_SLURP);</text>
<polygon fill="none" stroke="black" points="32.63,-54 32.63,-131 228.63,-131 228.63,-54 32.63,-54"/>
</g>
<!-- 1&#45;&gt;7 -->
<g id="edge5" class="edge">
<title>1&#45;&gt;7</title>
<path fill="none" stroke="black" d="M214.81,-169.74C219.27,-158.86 224.84,-144.28 228.63,-131 236.6,-103.06 242.66,-70.37 246.38,-47.55"/>
<polygon fill="black" stroke="black" points="249.82,-48.21 247.92,-37.78 242.9,-47.12 249.82,-48.21"/>
<text text-anchor="start" x="249.13" y="-89.7" font-family="Courier New" font-weight="bold" font-size="12.00" fill="blue">Z_EPSILON()</text>
</g>
</g>
</svg>
