<?xml version="1.0" encoding="UTF-8" standalone="no"?>
<!DOCTYPE svg PUBLIC "-//W3C//DTD SVG 1.1//EN"
 "http://www.w3.org/Graphics/SVG/1.1/DTD/svg11.dtd">
<!-- Generated by graphviz version 7.1.0 (20230121.1956)
 -->
<!-- Pages: 1 -->
<svg width="576pt" height="694pt"
 viewBox="0.00 0.00 576.27 693.80" xmlns="http://www.w3.org/2000/svg" xmlns:xlink="http://www.w3.org/1999/xlink">
<g id="graph0" class="graph" transform="scale(1 1) rotate(0) translate(4 689.8)">
<polygon fill="white" stroke="none" points="-4,4 -4,-689.8 572.27,-689.8 572.27,4 -4,4"/>
<!-- M05_ICON_0 -->
<g id="node1" class="node">
<title>M05_ICON_0</title>
<polygon fill="none" stroke="black" points="247.92,-649.3 247.92,-685.3 345.59,-685.3 345.59,-649.3 247.92,-649.3"/>
<text text-anchor="middle" x="296.75" y="-663.1" font-family="Times,serif" font-size="14.00">M05_ICON_0</text>
</g>
<!-- M05_ICON_1 -->
<g id="node2" class="node">
<title>M05_ICON_1</title>
<polygon fill="none" stroke="black" points="105.92,-504.5 105.92,-540.5 203.59,-540.5 203.59,-504.5 105.92,-504.5"/>
<text text-anchor="middle" x="154.75" y="-518.3" font-family="Times,serif" font-size="14.00">M05_ICON_1</text>
</g>
<!-- M05_ICON_0&#45;&gt;M05_ICON_1 -->
<g id="edge1" class="edge">
<title>M05_ICON_0&#45;&gt;M05_ICON_1</title>
<path fill="none" stroke="red" d="M248.14,-659.01C228.94,-653.93 207.98,-645.34 193.24,-630.8 171.78,-609.64 162.23,-575.69 158.02,-551.65"/>
<polygon fill="red" stroke="red" points="161.5,-551.28 156.54,-541.92 154.58,-552.33 161.5,-551.28"/>
<text text-anchor="start" x="193.75" y="-619.2" font-family="Times,serif" font-size="14.00" fill="red"> </text>
<text text-anchor="start" x="197.25" y="-619.2" font-family="Courier New" font-size="10.00" fill="red">WAIT(0,SIG_INC1)</text>
</g>
<!-- M05_ICON_7 -->
<g id="node3" class="node">
<title>M05_ICON_7</title>
<polygon fill="none" stroke="black" points="247.92,-559.5 247.92,-595.5 345.59,-595.5 345.59,-559.5 247.92,-559.5"/>
<text text-anchor="middle" x="296.75" y="-573.3" font-family="Times,serif" font-size="14.00">M05_ICON_7</text>
</g>
<!-- M05_ICON_0&#45;&gt;M05_ICON_7 -->
<g id="edge2" class="edge">
<title>M05_ICON_0&#45;&gt;M05_ICON_7</title>
<path fill="none" stroke="red" d="M296.75,-649.37C296.75,-637.22 296.75,-620.58 296.75,-606.47"/>
<polygon fill="red" stroke="red" points="300.25,-606.89 296.75,-596.89 293.25,-606.89 300.25,-606.89"/>
<text text-anchor="start" x="296.75" y="-619.2" font-family="Times,serif" font-size="14.00" fill="red"> </text>
<text text-anchor="start" x="300.25" y="-619.2" font-family="Courier New" font-size="10.00" fill="red">WAIT(0,SIG_DEC1)</text>
</g>
<!-- M05_ICON_2 -->
<g id="node4" class="node">
<title>M05_ICON_2</title>
<polygon fill="none" stroke="black" points="77.92,-359.7 77.92,-395.7 175.59,-395.7 175.59,-359.7 77.92,-359.7"/>
<text text-anchor="middle" x="126.75" y="-373.5" font-family="Times,serif" font-size="14.00">M05_ICON_2</text>
</g>
<!-- M05_ICON_1&#45;&gt;M05_ICON_2 -->
<g id="edge3" class="edge">
<title>M05_ICON_1&#45;&gt;M05_ICON_2</title>
<path fill="none" stroke="green" d="M147.49,-504.78C145.19,-498.93 142.83,-492.26 141.24,-486 134.55,-459.68 130.8,-428.9 128.8,-407.07"/>
<polygon fill="green" stroke="green" points="132.29,-406.83 127.96,-397.16 125.32,-407.42 132.29,-406.83"/>
<text text-anchor="start" x="141.75" y="-464.3" font-family="Times,serif" font-size="14.00" fill="green"> </text>
<text text-anchor="start" x="145.25" y="-464.3" font-family="Courier New" font-size="10.00" fill="green">ADDI(BFRAME,1)</text>
</g>
<!-- M05_ICON_20 -->
<g id="node5" class="node">
<title>M05_ICON_20</title>
<polygon fill="none" stroke="black" points="190.42,-269.9 190.42,-305.9 295.09,-305.9 295.09,-269.9 190.42,-269.9"/>
<text text-anchor="middle" x="242.75" y="-283.7" font-family="Times,serif" font-size="14.00">M05_ICON_20</text>
</g>
<!-- M05_ICON_7&#45;&gt;M05_ICON_20 -->
<g id="edge7" class="edge">
<title>M05_ICON_7&#45;&gt;M05_ICON_20</title>
<path fill="none" stroke="green" d="M288.71,-559.53C276.54,-532.87 253.97,-479.26 245.24,-431 238.17,-391.91 239.01,-345.78 240.61,-316.93"/>
<polygon fill="green" stroke="green" points="244.08,-317.41 241.22,-307.21 237.1,-316.97 244.08,-317.41"/>
<text text-anchor="start" x="244.75" y="-419.4" font-family="Times,serif" font-size="14.00" fill="green"> </text>
<text text-anchor="start" x="248.25" y="-419.4" font-family="Courier New" font-size="10.00" fill="green">SUBI(BFRAME,1)</text>
</g>
<!-- M05_ICON_8 -->
<g id="node6" class="node">
<title>M05_ICON_8</title>
<polygon fill="none" stroke="black" points="287.92,-449.5 287.92,-485.5 385.59,-485.5 385.59,-449.5 287.92,-449.5"/>
<text text-anchor="middle" x="336.75" y="-463.3" font-family="Times,serif" font-size="14.00">M05_ICON_8</text>
</g>
<!-- M05_ICON_7&#45;&gt;M05_ICON_8 -->
<g id="edge6" class="edge">
<title>M05_ICON_7&#45;&gt;M05_ICON_8</title>
<path fill="none" stroke="green" d="M303,-559.62C309.32,-542.58 319.17,-515.99 326.6,-495.91"/>
<polygon fill="green" stroke="green" points="329.83,-497.27 330.02,-486.68 323.27,-494.84 329.83,-497.27"/>
<text text-anchor="start" x="321.75" y="-519.3" font-family="Times,serif" font-size="14.00" fill="green"> </text>
<text text-anchor="start" x="325.25" y="-519.3" font-family="Courier New" font-size="10.00" fill="green">EQUALi(BFRAME,0)</text>
</g>
<!-- M05_ICON_2&#45;&gt;M05_ICON_20 -->
<g id="edge4" class="edge">
<title>M05_ICON_2&#45;&gt;M05_ICON_20</title>
<path fill="none" stroke="green" d="M78.17,-371.76C35.13,-365.49 -17.5,-351.97 6.24,-324.4 28.17,-298.93 116.98,-291.48 179.29,-289.44"/>
<polygon fill="green" stroke="green" points="179.19,-292.94 189.08,-289.16 178.99,-285.95 179.19,-292.94"/>
<text text-anchor="start" x="6.75" y="-329.6" font-family="Times,serif" font-size="14.00" fill="green"> </text>
<text text-anchor="start" x="10.25" y="-329.6" font-family="Courier New" font-size="10.00" fill="green">ASSIGN(BFRAME,0)</text>
</g>
<!-- M05_ICON_2&#45;&gt;M05_ICON_20 -->
<g id="edge5" class="edge">
<title>M05_ICON_2&#45;&gt;M05_ICON_20</title>
<path fill="none" stroke="green" d="M122.96,-359.94C121.45,-348.75 121.57,-334.33 129.24,-324.4 141.37,-308.69 160.4,-299.77 179.43,-294.76"/>
<polygon fill="green" stroke="green" points="180.13,-298.19 189.11,-292.57 178.59,-291.36 180.13,-298.19"/>
<text text-anchor="start" x="129.75" y="-329.6" font-family="Times,serif" font-size="14.00" fill="green"> </text>
<text text-anchor="start" x="133.25" y="-329.6" font-family="Courier New" font-size="10.00" fill="green">LTi(BFRAME,WIP4)</text>
</g>
<!-- M05_ICON_21 -->
<g id="node8" class="node">
<title>M05_ICON_21</title>
<polygon fill="none" stroke="black" points="319.42,-180.1 319.42,-216.1 424.09,-216.1 424.09,-180.1 319.42,-180.1"/>
<text text-anchor="middle" x="371.75" y="-193.9" font-family="Times,serif" font-size="14.00">M05_ICON_21</text>
</g>
<!-- M05_ICON_20&#45;&gt;M05_ICON_21 -->
<g id="edge10" class="edge">
<title>M05_ICON_20&#45;&gt;M05_ICON_21</title>
<path fill="none" stroke="green" d="M267.63,-269.97C287.53,-256.43 315.64,-237.29 337.64,-222.32"/>
<polygon fill="green" stroke="green" points="339.41,-225.35 345.71,-216.83 335.47,-219.56 339.41,-225.35"/>
<text text-anchor="start" x="318.75" y="-239.8" font-family="Times,serif" font-size="14.00" fill="green"> </text>
<text text-anchor="start" x="322.25" y="-239.8" font-family="Courier New" font-size="10.00" fill="green">SHOW(0,IDS_CHEMS)</text>
</g>
<!-- M05_ICON_9 -->
<g id="node7" class="node">
<title>M05_ICON_9</title>
<polygon fill="none" stroke="black" points="287.92,-359.7 287.92,-395.7 385.59,-395.7 385.59,-359.7 287.92,-359.7"/>
<text text-anchor="middle" x="336.75" y="-373.5" font-family="Times,serif" font-size="14.00">M05_ICON_9</text>
</g>
<!-- M05_ICON_8&#45;&gt;M05_ICON_9 -->
<g id="edge8" class="edge">
<title>M05_ICON_8&#45;&gt;M05_ICON_9</title>
<path fill="none" stroke="green" d="M336.75,-449.57C336.75,-437.42 336.75,-420.78 336.75,-406.67"/>
<polygon fill="green" stroke="green" points="340.25,-407.09 336.75,-397.09 333.25,-407.09 340.25,-407.09"/>
<text text-anchor="start" x="336.75" y="-419.4" font-family="Times,serif" font-size="14.00" fill="green"> </text>
<text text-anchor="start" x="340.25" y="-419.4" font-family="Courier New" font-size="10.00" fill="green">ASSIGN(BFRAME,WIP4)</text>
</g>
<!-- M05_ICON_9&#45;&gt;M05_ICON_20 -->
<g id="edge9" class="edge">
<title>M05_ICON_9&#45;&gt;M05_ICON_20</title>
<path fill="none" stroke="green" d="M318.63,-359.77C304.59,-346.65 284.93,-328.29 269.14,-313.54"/>
<polygon fill="green" stroke="green" points="271.63,-311.08 261.93,-306.81 266.85,-316.19 271.63,-311.08"/>
<text text-anchor="start" x="297.75" y="-329.6" font-family="Times,serif" font-size="14.00" fill="green"> </text>
<text text-anchor="start" x="301.25" y="-329.6" font-family="Courier New" font-size="10.00" fill="green">SUBI(BFRAME,1)</text>
</g>
<!-- M05_ICON_22 -->
<g id="node9" class="node">
<title>M05_ICON_22</title>
<polygon fill="none" stroke="black" points="337.42,-90.3 337.42,-126.3 442.09,-126.3 442.09,-90.3 337.42,-90.3"/>
<text text-anchor="middle" x="389.75" y="-104.1" font-family="Times,serif" font-size="14.00">M05_ICON_22</text>
</g>
<!-- M05_ICON_21&#45;&gt;M05_ICON_22 -->
<g id="edge11" class="edge">
<title>M05_ICON_21&#45;&gt;M05_ICON_22</title>
<path fill="none" stroke="green" d="M375.23,-180.17C377.72,-168.02 381.13,-151.38 384.02,-137.27"/>
<polygon fill="green" stroke="green" points="387.41,-138.16 385.99,-127.66 380.55,-136.75 387.41,-138.16"/>
<text text-anchor="start" x="381.75" y="-150" font-family="Times,serif" font-size="14.00" fill="green"> </text>
<text text-anchor="start" x="385.25" y="-150" font-family="Courier New" font-size="10.00" fill="green">SIGNAL(WIP1,)</text>
</g>
<!-- M05_ICON_23 -->
<g id="node10" class="node">
<title>M05_ICON_23</title>
<polygon fill="none" stroke="black" points="385.42,-0.5 385.42,-36.5 490.09,-36.5 490.09,-0.5 385.42,-0.5"/>
<text text-anchor="middle" x="437.75" y="-14.3" font-family="Times,serif" font-size="14.00">M05_ICON_23</text>
</g>
<!-- M05_ICON_22&#45;&gt;M05_ICON_23 -->
<g id="edge12" class="edge">
<title>M05_ICON_22&#45;&gt;M05_ICON_23</title>
<path fill="none" stroke="green" d="M386.66,-90.37C385.54,-79.65 385.69,-65.83 391.24,-55 393.32,-50.95 396.1,-47.22 399.26,-43.84"/>
<polygon fill="green" stroke="green" points="401.59,-46.46 406.65,-37.15 396.89,-41.27 401.59,-46.46"/>
<text text-anchor="start" x="390.75" y="-60.2" font-family="Times,serif" font-size="14.00" fill="green"> </text>
<text text-anchor="start" x="394.25" y="-60.2" font-family="Courier New" font-size="10.00" fill="green">SIGNAL(WIP2,)</text>
</g>
<!-- M05_ICON_23&#45;&gt;M05_ICON_0 -->
<g id="edge13" class="edge">
<title>M05_ICON_23&#45;&gt;M05_ICON_0</title>
<path fill="none" stroke="green" d="M457.94,-36.39C463.41,-41.85 468.88,-48.24 472.75,-55 484.71,-75.88 486.75,-83.24 486.75,-107.3 486.75,-578.5 486.75,-578.5 486.75,-578.5 486.75,-636.8 412.12,-656.51 356.41,-663.1"/>
<polygon fill="green" stroke="green" points="356.27,-659.6 346.7,-664.13 357.01,-666.56 356.27,-659.6"/>
<text text-anchor="start" x="486.75" y="-329.6" font-family="Times,serif" font-size="14.00" fill="green"> </text>
<text text-anchor="start" x="490.25" y="-329.6" font-family="Courier New" font-size="10.00" fill="green">SIGNAL(WIP3,)</text>
</g>
</g>
</svg>
