<?xml version="1.0" encoding="UTF-8" standalone="no"?>
<!DOCTYPE svg PUBLIC "-//W3C//DTD SVG 1.1//EN"
 "http://www.w3.org/Graphics/SVG/1.1/DTD/svg11.dtd">
<!-- Generated by graphviz version 7.1.0 (20230121.1956)
 -->
<!-- Title: Automaton Pages: 1 -->
<svg width="396pt" height="64pt"
 viewBox="0.00 0.00 396.00 64.00" xmlns="http://www.w3.org/2000/svg" xmlns:xlink="http://www.w3.org/1999/xlink">
<g id="graph0" class="graph" transform="scale(1 1) rotate(0) translate(4 60)">
<title>Automaton</title>
<polygon fill="white" stroke="none" points="-4,4 -4,-60 392,-60 392,4 -4,4"/>
<!-- filename -->
<g id="node1" class="node">
<title>filename</title>
<polygon fill="none" stroke="black" points="0,-2 0,-54 118,-54 118,-2 0,-2"/>
<polygon fill="none" stroke="black" points="11,-29 11,-47 107,-47 107,-29 11,-29"/>
<text text-anchor="start" x="35" y="-36" font-family="Courier New" font-weight="bold" font-size="10.00">M05_DOWN</text>
<polygon fill="none" stroke="black" points="11,-9 11,-27 107,-27 107,-9 11,-9"/>
<text text-anchor="start" x="14" y="-15" font-family="Courier New" font-size="10.00" fill="brown">start state = 0</text>
<polygon fill="none" stroke="black" points="8,-6 8,-50 110,-50 110,-6 8,-6"/>
</g>
<!-- 0 -->
<g id="node2" class="node">
<title>0</title>
<polyline fill="none" stroke="darkred" points="156,-17 170,-17"/>
<text text-anchor="start" x="159" y="-24.4" font-family="Courier New" font-weight="bold" font-size="14.00">0</text>
<path fill="none" stroke="darkred" d="M159.67,-14C159.67,-14 166.33,-14 166.33,-14 169.67,-14 173,-17.33 173,-20.67 173,-20.67 173,-35.33 173,-35.33 173,-38.67 169.67,-42 166.33,-42 166.33,-42 159.67,-42 159.67,-42 156.33,-42 153,-38.67 153,-35.33 153,-35.33 153,-20.67 153,-20.67 153,-17.33 156.33,-14 159.67,-14"/>
</g>
<!-- 0&#45;&gt;0 -->
<g id="edge1" class="edge">
<title>0&#45;&gt;0</title>
<path fill="none" stroke="black" d="M189.79,-34.74C199.78,-34.96 208,-32.71 208,-28 208,-25.28 205.25,-23.38 201.01,-22.3"/>
<polygon fill="black" stroke="black" points="201.58,-18.84 191.3,-21.4 200.94,-25.81 201.58,-18.84"/>
<polygon fill="none" stroke="black" points="211,-35 211,-53 385,-53 385,-35 211,-35"/>
<text text-anchor="start" x="274" y="-42" font-family="Courier New" font-weight="bold" font-size="10.00" fill="orange">CLICK(,)</text>
<polygon fill="none" stroke="black" points="211,-3 211,-33 385,-33 385,-3 211,-3"/>
<text text-anchor="start" x="214" y="-21" font-family="Courier New" font-size="10.00" fill="blue"> &#160;&#160;&#160;PLAYWAVE(0,SOUND_CLICK);</text>
<text text-anchor="start" x="214" y="-9" font-family="Courier New" font-size="10.00" fill="blue"> &#160;&#160;&#160;SIGNAL(WIP1,SIG_DEC1);</text>
<polygon fill="none" stroke="black" points="208,0 208,-56 388,-56 388,0 208,0"/>
</g>
</g>
</svg>
