<?xml version="1.0" encoding="UTF-8" standalone="no"?>
<!DOCTYPE svg PUBLIC "-//W3C//DTD SVG 1.1//EN"
 "http://www.w3.org/Graphics/SVG/1.1/DTD/svg11.dtd">
<!-- Generated by graphviz version 7.1.0 (20230121.1956)
 -->
<!-- Pages: 1 -->
<svg width="335pt" height="420pt"
 viewBox="0.00 0.00 335.00 420.00" xmlns="http://www.w3.org/2000/svg" xmlns:xlink="http://www.w3.org/1999/xlink">
<g id="graph0" class="graph" transform="scale(1 1) rotate(0) translate(4 416)">
<polygon fill="white" stroke="none" points="-4,4 -4,-416 331,-416 331,4 -4,4"/>
<!-- 0 -->
<g id="node1" class="node">
<title>0</title>
<ellipse fill="none" stroke="black" cx="107" cy="-394" rx="27" ry="18"/>
<text text-anchor="middle" x="107" y="-389.8" font-family="Times,serif" font-size="14.00">0</text>
</g>
<!-- 1 -->
<g id="node2" class="node">
<title>1</title>
<ellipse fill="none" stroke="black" cx="45" cy="-300" rx="27" ry="18"/>
<text text-anchor="middle" x="45" y="-295.8" font-family="Times,serif" font-size="14.00">1</text>
</g>
<!-- 0&#45;&gt;1 -->
<g id="edge1" class="edge">
<title>0&#45;&gt;1</title>
<path fill="none" stroke="black" d="M96.48,-377.39C87.1,-363.47 73.18,-342.82 62.18,-326.5"/>
<polygon fill="black" stroke="black" points="65.11,-324.58 56.62,-318.25 59.31,-328.5 65.11,-324.58"/>
<text text-anchor="start" x="88" y="-344.2" font-family="Courier New" font-weight="bold" font-size="12.00" fill="orange">WAIT(0,0)</text>
</g>
<!-- 2 -->
<g id="node3" class="node">
<title>2</title>
<ellipse fill="none" stroke="black" cx="27" cy="-206" rx="27" ry="18"/>
<text text-anchor="middle" x="27" y="-201.8" font-family="Times,serif" font-size="14.00">2</text>
</g>
<!-- 1&#45;&gt;2 -->
<g id="edge2" class="edge">
<title>1&#45;&gt;2</title>
<path fill="none" stroke="black" d="M37.72,-282.19C35.54,-276.51 33.37,-270.07 32,-264 29.95,-254.9 28.73,-244.81 28.01,-235.68"/>
<polygon fill="black" stroke="black" points="31.52,-235.67 27.41,-225.91 24.53,-236.1 31.52,-235.67"/>
<text text-anchor="start" x="36.5" y="-250.2" font-family="Courier New" font-weight="bold" font-size="12.00" fill="blue">REF_MACHINE(WIP1,)</text>
</g>
<!-- 3 -->
<g id="node4" class="node">
<title>3</title>
<ellipse fill="none" stroke="black" cx="31" cy="-112" rx="27" ry="18"/>
<text text-anchor="middle" x="31" y="-107.8" font-family="Times,serif" font-size="14.00">3</text>
</g>
<!-- 2&#45;&gt;3 -->
<g id="edge3" class="edge">
<title>2&#45;&gt;3</title>
<path fill="none" stroke="black" d="M25.32,-187.76C24.48,-176.44 23.87,-161.32 25,-148 25.19,-145.79 25.44,-143.51 25.74,-141.22"/>
<polygon fill="black" stroke="black" points="29.17,-141.93 27.25,-131.51 22.25,-140.85 29.17,-141.93"/>
<text text-anchor="start" x="29" y="-156.2" font-family="Courier New" font-weight="bold" font-size="12.00" fill="blue">MOV(BFRAME,R_BPARM)</text>
</g>
<!-- 4 -->
<g id="node5" class="node">
<title>4</title>
<ellipse fill="none" stroke="black" cx="110" cy="-18" rx="27" ry="18"/>
<text text-anchor="middle" x="110" y="-13.8" font-family="Times,serif" font-size="14.00">4</text>
</g>
<!-- 3&#45;&gt;4 -->
<g id="edge4" class="edge">
<title>3&#45;&gt;4</title>
<path fill="none" stroke="black" d="M34.54,-93.79C37.73,-81.62 43.43,-65.49 53,-54 59.69,-45.96 68.74,-39.24 77.64,-33.92"/>
<polygon fill="black" stroke="black" points="79.11,-37.1 86.19,-29.22 75.74,-30.97 79.11,-37.1"/>
<text text-anchor="start" x="57" y="-62.2" font-family="Courier New" font-weight="bold" font-size="12.00" fill="blue">DIVI(BFRAME,10)</text>
</g>
<!-- 4&#45;&gt;0 -->
<g id="edge5" class="edge">
<title>4&#45;&gt;0</title>
<path fill="none" stroke="black" d="M133.28,-27.59C145.63,-33.28 160.06,-41.95 169,-54 184.54,-74.95 183,-84.91 183,-111 183,-301 183,-301 183,-301 183,-328.32 177.29,-336.85 160,-358 154.06,-365.26 146.22,-371.56 138.39,-376.74"/>
<polygon fill="black" stroke="black" points="136.64,-373.71 129.92,-381.9 140.28,-379.69 136.64,-373.71"/>
<text text-anchor="start" x="187" y="-203.2" font-family="Courier New" font-weight="bold" font-size="12.00" fill="blue">SHOW(0,IDS_CITYNUM)</text>
</g>
</g>
</svg>
