<?xml version="1.0" encoding="UTF-8" standalone="no"?>
<!DOCTYPE svg PUBLIC "-//W3C//DTD SVG 1.1//EN"
 "http://www.w3.org/Graphics/SVG/1.1/DTD/svg11.dtd">
<!-- Generated by graphviz version 7.1.0 (20230121.1956)
 -->
<!-- Title: Automaton Pages: 1 -->
<svg width="372pt" height="88pt"
 viewBox="0.00 0.00 372.00 88.00" xmlns="http://www.w3.org/2000/svg" xmlns:xlink="http://www.w3.org/1999/xlink">
<g id="graph0" class="graph" transform="scale(1 1) rotate(0) translate(4 84)">
<title>Automaton</title>
<polygon fill="white" stroke="none" points="-4,4 -4,-84 368,-84 368,4 -4,4"/>
<!-- filename -->
<g id="node1" class="node">
<title>filename</title>
<polygon fill="none" stroke="black" points="0,-14 0,-66 118,-66 118,-14 0,-14"/>
<polygon fill="none" stroke="black" points="11,-41 11,-59 107,-59 107,-41 11,-41"/>
<text text-anchor="start" x="35" y="-48" font-family="Courier New" font-weight="bold" font-size="10.00">M05_NUM1</text>
<polygon fill="none" stroke="black" points="11,-21 11,-39 107,-39 107,-21 11,-21"/>
<text text-anchor="start" x="14" y="-27" font-family="Courier New" font-size="10.00" fill="brown">start state = 0</text>
<polygon fill="none" stroke="black" points="8,-18 8,-62 110,-62 110,-18 8,-18"/>
</g>
<!-- 0 -->
<g id="node2" class="node">
<title>0</title>
<polyline fill="none" stroke="darkred" points="156,-29 170,-29"/>
<text text-anchor="start" x="159" y="-36.4" font-family="Courier New" font-weight="bold" font-size="14.00">0</text>
<path fill="none" stroke="darkred" d="M159.67,-26C159.67,-26 166.33,-26 166.33,-26 169.67,-26 173,-29.33 173,-32.67 173,-32.67 173,-47.33 173,-47.33 173,-50.67 169.67,-54 166.33,-54 166.33,-54 159.67,-54 159.67,-54 156.33,-54 153,-50.67 153,-47.33 153,-47.33 153,-32.67 153,-32.67 153,-29.33 156.33,-26 159.67,-26"/>
</g>
<!-- 0&#45;&gt;0 -->
<g id="edge1" class="edge">
<title>0&#45;&gt;0</title>
<path fill="none" stroke="black" d="M189.79,-46.74C199.78,-46.96 208,-44.71 208,-40 208,-37.28 205.25,-35.38 201.01,-34.3"/>
<polygon fill="black" stroke="black" points="201.58,-30.84 191.3,-33.4 200.94,-37.81 201.58,-30.84"/>
<polygon fill="none" stroke="black" points="211,-59 211,-77 361,-77 361,-59 211,-59"/>
<text text-anchor="start" x="234.99" y="-66" font-family="Courier New" font-weight="bold" font-size="10.00" fill="orange">WAIT(SIG_UPDATE,)</text>
<polygon fill="none" stroke="black" points="211,-3 211,-57 361,-57 361,-3 211,-3"/>
<text text-anchor="start" x="214" y="-45" font-family="Courier New" font-size="10.00" fill="blue"> &#160;&#160;&#160;REF_MACHINE(WIP1);</text>
<text text-anchor="start" x="214" y="-33" font-family="Courier New" font-size="10.00" fill="blue"> &#160;&#160;&#160;MOV(BFRAME,R_BPARM);</text>
<text text-anchor="start" x="214" y="-21" font-family="Courier New" font-size="10.00" fill="blue"> &#160;&#160;&#160;MODI(BFRAME,10);</text>
<text text-anchor="start" x="214" y="-9" font-family="Courier New" font-size="10.00" fill="blue"> &#160;&#160;&#160;SHOW(0,IDS_CITYNUM);</text>
<polygon fill="none" stroke="black" points="208,0 208,-80 364,-80 364,0 208,0"/>
</g>
</g>
</svg>
