<?xml version="1.0" encoding="UTF-8" standalone="no"?>
<!DOCTYPE svg PUBLIC "-//W3C//DTD SVG 1.1//EN"
 "http://www.w3.org/Graphics/SVG/1.1/DTD/svg11.dtd">
<!-- Generated by graphviz version 7.1.0 (20230121.1956)
 -->
<!-- Pages: 1 -->
<svg width="312pt" height="964pt"
 viewBox="0.00 0.00 312.00 964.00" xmlns="http://www.w3.org/2000/svg" xmlns:xlink="http://www.w3.org/1999/xlink">
<g id="graph0" class="graph" transform="scale(1 1) rotate(0) translate(4 960)">
<polygon fill="white" stroke="none" points="-4,4 -4,-960 308,-960 308,4 -4,4"/>
<!-- 0 -->
<g id="node1" class="node">
<title>0</title>
<ellipse fill="none" stroke="black" cx="152" cy="-938" rx="27" ry="18"/>
<text text-anchor="middle" x="152" y="-933.8" font-family="Times,serif" font-size="14.00">0</text>
</g>
<!-- 10 -->
<g id="node2" class="node">
<title>10</title>
<ellipse fill="none" stroke="black" cx="152" cy="-846" rx="27" ry="18"/>
<text text-anchor="middle" x="152" y="-841.8" font-family="Times,serif" font-size="14.00">10</text>
</g>
<!-- 0&#45;&gt;10 -->
<g id="edge1" class="edge">
<title>0&#45;&gt;10</title>
<path fill="none" stroke="black" d="M152,-919.65C152,-907.2 152,-890.14 152,-875.68"/>
<polygon fill="black" stroke="black" points="155.5,-875.81 152,-865.81 148.5,-875.81 155.5,-875.81"/>
<text text-anchor="start" x="156" y="-890" font-family="Courier New" font-weight="bold" font-size="10.00" fill="blue">C_ACCEPT(0,IDC_TEMPLATE)</text>
</g>
<!-- 11 -->
<g id="node3" class="node">
<title>11</title>
<ellipse fill="none" stroke="black" cx="88" cy="-754" rx="27" ry="18"/>
<text text-anchor="middle" x="88" y="-749.8" font-family="Times,serif" font-size="14.00">11</text>
</g>
<!-- 10&#45;&gt;11 -->
<g id="edge2" class="edge">
<title>10&#45;&gt;11</title>
<path fill="none" stroke="black" d="M140.85,-829.32C131.18,-815.73 117.02,-795.8 105.78,-780.01"/>
<polygon fill="black" stroke="black" points="108.76,-778.15 100.11,-772.03 103.05,-782.21 108.76,-778.15"/>
<text text-anchor="start" x="130" y="-798" font-family="Courier New" font-weight="bold" font-size="10.00" fill="orange">DROP(0,0)</text>
</g>
<!-- 12 -->
<g id="node4" class="node">
<title>12</title>
<ellipse fill="none" stroke="black" cx="62" cy="-662" rx="27" ry="18"/>
<text text-anchor="middle" x="62" y="-657.8" font-family="Times,serif" font-size="14.00">12</text>
</g>
<!-- 11&#45;&gt;12 -->
<g id="edge3" class="edge">
<title>11&#45;&gt;12</title>
<path fill="none" stroke="black" d="M83.11,-736.07C79.46,-723.46 74.4,-705.94 70.15,-691.22"/>
<polygon fill="black" stroke="black" points="73.51,-690.25 67.38,-681.61 66.79,-692.19 73.51,-690.25"/>
<text text-anchor="start" x="82" y="-706" font-family="Courier New" font-weight="bold" font-size="10.00" fill="blue">SHOW(0,IDS_TMORPH)</text>
</g>
<!-- 13 -->
<g id="node5" class="node">
<title>13</title>
<ellipse fill="none" stroke="black" cx="37" cy="-570" rx="27" ry="18"/>
<text text-anchor="middle" x="37" y="-565.8" font-family="Times,serif" font-size="14.00">13</text>
</g>
<!-- 12&#45;&gt;13 -->
<g id="edge4" class="edge">
<title>12&#45;&gt;13</title>
<path fill="none" stroke="black" d="M49.87,-645.47C46.01,-639.68 42.17,-632.84 40,-626 37.36,-617.7 36.22,-608.34 35.85,-599.73"/>
<polygon fill="black" stroke="black" points="39.35,-599.73 35.76,-589.76 32.35,-599.79 39.35,-599.73"/>
<text text-anchor="start" x="44" y="-614" font-family="Courier New" font-weight="bold" font-size="10.00" fill="blue">ANIMATE(0,V_LOOP|V_REWIND)</text>
</g>
<!-- 14 -->
<g id="node6" class="node">
<title>14</title>
<ellipse fill="none" stroke="black" cx="27" cy="-478" rx="27" ry="18"/>
<text text-anchor="middle" x="27" y="-473.8" font-family="Times,serif" font-size="14.00">14</text>
</g>
<!-- 13&#45;&gt;14 -->
<g id="edge5" class="edge">
<title>13&#45;&gt;14</title>
<path fill="none" stroke="black" d="M35.07,-551.65C33.69,-539.2 31.79,-522.14 30.19,-507.68"/>
<polygon fill="black" stroke="black" points="33.67,-507.36 29.09,-497.8 26.72,-508.13 33.67,-507.36"/>
<text text-anchor="start" x="37" y="-522" font-family="Courier New" font-weight="bold" font-size="10.00" fill="blue">MOV(WTEMP1,WOBJECT)</text>
</g>
<!-- 15 -->
<g id="node7" class="node">
<title>15</title>
<ellipse fill="none" stroke="black" cx="27" cy="-386" rx="27" ry="18"/>
<text text-anchor="middle" x="27" y="-381.8" font-family="Times,serif" font-size="14.00">15</text>
</g>
<!-- 14&#45;&gt;15 -->
<g id="edge6" class="edge">
<title>14&#45;&gt;15</title>
<path fill="none" stroke="black" d="M26.4,-459.56C26.24,-453.95 26.08,-447.71 26,-442 25.87,-433.11 25.87,-430.89 26,-422 26.03,-419.95 26.07,-417.83 26.11,-415.69"/>
<polygon fill="black" stroke="black" points="29.61,-416.04 26.36,-405.96 22.61,-415.86 29.61,-416.04"/>
<text text-anchor="start" x="30" y="-430" font-family="Courier New" font-weight="bold" font-size="10.00" fill="blue">SUBI(WTEMP1,IDD_TEMPLATE01)</text>
</g>
<!-- 16 -->
<g id="node8" class="node">
<title>16</title>
<ellipse fill="none" stroke="black" cx="87" cy="-294" rx="27" ry="18"/>
<text text-anchor="middle" x="87" y="-289.8" font-family="Times,serif" font-size="14.00">16</text>
</g>
<!-- 15&#45;&gt;16 -->
<g id="edge7" class="edge">
<title>15&#45;&gt;16</title>
<path fill="none" stroke="black" d="M37.45,-369.32C46.52,-355.73 59.8,-335.8 70.33,-320.01"/>
<polygon fill="black" stroke="black" points="72.99,-322.32 75.63,-312.06 67.17,-318.44 72.99,-322.32"/>
<text text-anchor="start" x="67" y="-338" font-family="Courier New" font-weight="bold" font-size="10.00" fill="blue">SIGNAL(WIP1,)</text>
</g>
<!-- 17 -->
<g id="node9" class="node">
<title>17</title>
<ellipse fill="none" stroke="black" cx="102" cy="-202" rx="27" ry="18"/>
<text text-anchor="middle" x="102" y="-197.8" font-family="Times,serif" font-size="14.00">17</text>
</g>
<!-- 16&#45;&gt;17 -->
<g id="edge8" class="edge">
<title>16&#45;&gt;17</title>
<path fill="none" stroke="black" d="M89.89,-275.65C91.99,-263.07 94.87,-245.79 97.29,-231.24"/>
<polygon fill="black" stroke="black" points="100.68,-232.23 98.87,-221.79 93.77,-231.08 100.68,-232.23"/>
<text text-anchor="start" x="100" y="-246" font-family="Courier New" font-weight="bold" font-size="10.00" fill="orange">GRAB(0,0)</text>
</g>
<!-- 18 -->
<g id="node10" class="node">
<title>18</title>
<ellipse fill="none" stroke="black" cx="108" cy="-110" rx="27" ry="18"/>
<text text-anchor="middle" x="108" y="-105.8" font-family="Times,serif" font-size="14.00">18</text>
</g>
<!-- 17&#45;&gt;18 -->
<g id="edge9" class="edge">
<title>17&#45;&gt;18</title>
<path fill="none" stroke="black" d="M103.16,-183.65C103.99,-171.2 105.12,-154.14 106.09,-139.68"/>
<polygon fill="black" stroke="black" points="109.57,-140.02 106.75,-129.81 102.59,-139.55 109.57,-140.02"/>
<text text-anchor="start" x="110" y="-154" font-family="Courier New" font-weight="bold" font-size="10.00" fill="blue">CLEAR(WOBJECT,)</text>
</g>
<!-- 19 -->
<g id="node11" class="node">
<title>19</title>
<ellipse fill="none" stroke="black" cx="164" cy="-18" rx="27" ry="18"/>
<text text-anchor="middle" x="164" y="-13.8" font-family="Times,serif" font-size="14.00">19</text>
</g>
<!-- 18&#45;&gt;19 -->
<g id="edge10" class="edge">
<title>18&#45;&gt;19</title>
<path fill="none" stroke="black" d="M107.95,-91.99C108.64,-80.51 111,-65.42 118,-54 122.09,-47.33 127.95,-41.48 134.13,-36.57"/>
<polygon fill="black" stroke="black" points="135.91,-39.6 142,-30.93 131.84,-33.9 135.91,-39.6"/>
<text text-anchor="start" x="122" y="-62" font-family="Courier New" font-weight="bold" font-size="10.00" fill="blue">SIGNAL(WIP1,)</text>
</g>
<!-- 19&#45;&gt;10 -->
<g id="edge11" class="edge">
<title>19&#45;&gt;10</title>
<path fill="none" stroke="black" d="M182.6,-31.4C190.26,-37.39 198.59,-45.19 204,-54 217.2,-75.5 218,-83.78 218,-109 218,-755 218,-755 218,-755 218,-783.14 196.76,-808.32 178.38,-824.84"/>
<polygon fill="black" stroke="black" points="176.19,-822.1 170.84,-831.25 180.72,-827.43 176.19,-822.1"/>
<text text-anchor="start" x="222" y="-430" font-family="Courier New" font-weight="bold" font-size="10.00" fill="blue">SHOW(0,0)</text>
</g>
</g>
</svg>
