<?xml version="1.0" encoding="UTF-8" standalone="no"?>
<!DOCTYPE svg PUBLIC "-//W3C//DTD SVG 1.1//EN"
 "http://www.w3.org/Graphics/SVG/1.1/DTD/svg11.dtd">
<!-- Generated by graphviz version 7.1.0 (20230121.1956)
 -->
<!-- Title: Automaton Pages: 1 -->
<svg width="323pt" height="981pt"
 viewBox="0.00 0.00 323.00 981.00" xmlns="http://www.w3.org/2000/svg" xmlns:xlink="http://www.w3.org/1999/xlink">
<g id="graph0" class="graph" transform="scale(1 1) rotate(0) translate(4 977)">
<title>Automaton</title>
<polygon fill="white" stroke="none" points="-4,4 -4,-977 319,-977 319,4 -4,4"/>
<!-- filename -->
<g id="node1" class="node">
<title>filename</title>
<polygon fill="none" stroke="black" points="0,-920.5 0,-972.5 118,-972.5 118,-920.5 0,-920.5"/>
<polygon fill="none" stroke="black" points="11,-947.5 11,-965.5 107,-965.5 107,-947.5 11,-947.5"/>
<text text-anchor="start" x="22.99" y="-954.5" font-family="Courier New" font-weight="bold" font-size="10.00">M06_TEMPHOLD</text>
<polygon fill="none" stroke="black" points="11,-927.5 11,-945.5 107,-945.5 107,-927.5 11,-927.5"/>
<text text-anchor="start" x="14" y="-933.5" font-family="Courier New" font-size="10.00" fill="brown">start state = 0</text>
<polygon fill="none" stroke="black" points="8,-924.5 8,-968.5 110,-968.5 110,-924.5 8,-924.5"/>
</g>
<!-- 0 -->
<g id="node2" class="node">
<title>0</title>
<polyline fill="none" stroke="darkred" points="156,-935.5 170,-935.5"/>
<text text-anchor="start" x="159" y="-942.9" font-family="Courier New" font-weight="bold" font-size="14.00">0</text>
<path fill="none" stroke="darkred" d="M159.67,-932.5C159.67,-932.5 166.33,-932.5 166.33,-932.5 169.67,-932.5 173,-935.83 173,-939.17 173,-939.17 173,-953.83 173,-953.83 173,-957.17 169.67,-960.5 166.33,-960.5 166.33,-960.5 159.67,-960.5 159.67,-960.5 156.33,-960.5 153,-957.17 153,-953.83 153,-953.83 153,-939.17 153,-939.17 153,-935.83 156.33,-932.5 159.67,-932.5"/>
</g>
<!-- 10 -->
<g id="node3" class="node">
<title>10</title>
<polyline fill="none" stroke="darkred" points="152,-835 174,-835"/>
<text text-anchor="start" x="155" y="-842.4" font-family="Courier New" font-weight="bold" font-size="14.00">10</text>
<path fill="none" stroke="darkred" d="M158.33,-832C158.33,-832 167.67,-832 167.67,-832 172.33,-832 177,-836.67 177,-841.33 177,-841.33 177,-850.67 177,-850.67 177,-855.33 172.33,-860 167.67,-860 167.67,-860 158.33,-860 158.33,-860 153.67,-860 149,-855.33 149,-850.67 149,-850.67 149,-841.33 149,-841.33 149,-836.67 153.67,-832 158.33,-832"/>
</g>
<!-- 0&#45;&gt;10 -->
<g id="edge1" class="edge">
<title>0&#45;&gt;10</title>
<path fill="none" stroke="black" d="M163,-928.79C163,-914.14 163,-892.55 163,-875.23"/>
<polygon fill="black" stroke="black" points="166.5,-875.3 163,-865.3 159.5,-875.3 166.5,-875.3"/>
<text text-anchor="start" x="167" y="-890" font-family="Courier New" font-weight="bold" font-size="10.00" fill="blue">C_ACCEPT(0,IDC_TEMPLATE)</text>
</g>
<!-- 11 -->
<g id="node4" class="node">
<title>11</title>
<polyline fill="none" stroke="darkred" points="88,-743 110,-743"/>
<text text-anchor="start" x="91" y="-750.4" font-family="Courier New" font-weight="bold" font-size="14.00">11</text>
<path fill="none" stroke="darkred" d="M94.33,-740C94.33,-740 103.67,-740 103.67,-740 108.33,-740 113,-744.67 113,-749.33 113,-749.33 113,-758.67 113,-758.67 113,-763.33 108.33,-768 103.67,-768 103.67,-768 94.33,-768 94.33,-768 89.67,-768 85,-763.33 85,-758.67 85,-758.67 85,-749.33 85,-749.33 85,-744.67 89.67,-740 94.33,-740"/>
</g>
<!-- 10&#45;&gt;11 -->
<g id="edge2" class="edge">
<title>10&#45;&gt;11</title>
<path fill="none" stroke="black" d="M150.96,-828.07C141.58,-814.87 128.37,-796.31 117.63,-781.19"/>
<polygon fill="black" stroke="black" points="120.51,-779.21 111.86,-773.09 114.8,-783.26 120.51,-779.21"/>
<text text-anchor="start" x="140" y="-798" font-family="Courier New" font-weight="bold" font-size="10.00" fill="orange">DROP(0,0)</text>
</g>
<!-- 12 -->
<g id="node5" class="node">
<title>12</title>
<polyline fill="none" stroke="darkred" points="62,-651 84,-651"/>
<text text-anchor="start" x="65" y="-658.4" font-family="Courier New" font-weight="bold" font-size="14.00">12</text>
<path fill="none" stroke="darkred" d="M68.33,-648C68.33,-648 77.67,-648 77.67,-648 82.33,-648 87,-652.67 87,-657.33 87,-657.33 87,-666.67 87,-666.67 87,-671.33 82.33,-676 77.67,-676 77.67,-676 68.33,-676 68.33,-676 63.67,-676 59,-671.33 59,-666.67 59,-666.67 59,-657.33 59,-657.33 59,-652.67 63.67,-648 68.33,-648"/>
</g>
<!-- 11&#45;&gt;12 -->
<g id="edge3" class="edge">
<title>11&#45;&gt;12</title>
<path fill="none" stroke="black" d="M94.11,-736.07C90.41,-723.25 85.24,-705.36 80.94,-690.5"/>
<polygon fill="black" stroke="black" points="84.43,-689.94 78.29,-681.31 77.7,-691.89 84.43,-689.94"/>
<text text-anchor="start" x="92" y="-706" font-family="Courier New" font-weight="bold" font-size="10.00" fill="blue">SHOW(0,IDS_TMORPH)</text>
</g>
<!-- 13 -->
<g id="node6" class="node">
<title>13</title>
<polyline fill="none" stroke="darkred" points="37,-559 59,-559"/>
<text text-anchor="start" x="40" y="-566.4" font-family="Courier New" font-weight="bold" font-size="14.00">13</text>
<path fill="none" stroke="darkred" d="M43.33,-556C43.33,-556 52.67,-556 52.67,-556 57.33,-556 62,-560.67 62,-565.33 62,-565.33 62,-574.67 62,-574.67 62,-579.33 57.33,-584 52.67,-584 52.67,-584 43.33,-584 43.33,-584 38.67,-584 34,-579.33 34,-574.67 34,-574.67 34,-565.33 34,-565.33 34,-560.67 38.67,-556 43.33,-556"/>
</g>
<!-- 12&#45;&gt;13 -->
<g id="edge4" class="edge">
<title>12&#45;&gt;13</title>
<path fill="none" stroke="black" d="M59.94,-644.06C56.4,-638.58 53,-632.29 51,-626 48.29,-617.48 47.16,-607.85 46.82,-599.05"/>
<polygon fill="black" stroke="black" points="50.32,-599.25 46.77,-589.27 43.32,-599.29 50.32,-599.25"/>
<text text-anchor="start" x="55" y="-614" font-family="Courier New" font-weight="bold" font-size="10.00" fill="blue">ANIMATE(0,V_LOOP|V_REWIND)</text>
</g>
<!-- 14 -->
<g id="node7" class="node">
<title>14</title>
<polyline fill="none" stroke="darkred" points="27,-467 49,-467"/>
<text text-anchor="start" x="30" y="-474.4" font-family="Courier New" font-weight="bold" font-size="14.00">14</text>
<path fill="none" stroke="darkred" d="M33.33,-464C33.33,-464 42.67,-464 42.67,-464 47.33,-464 52,-468.67 52,-473.33 52,-473.33 52,-482.67 52,-482.67 52,-487.33 47.33,-492 42.67,-492 42.67,-492 33.33,-492 33.33,-492 28.67,-492 24,-487.33 24,-482.67 24,-482.67 24,-473.33 24,-473.33 24,-468.67 28.67,-464 33.33,-464"/>
</g>
<!-- 13&#45;&gt;14 -->
<g id="edge5" class="edge">
<title>13&#45;&gt;14</title>
<path fill="none" stroke="black" d="M46.12,-552.07C44.71,-539.38 42.75,-521.71 41.1,-506.94"/>
<polygon fill="black" stroke="black" points="44.62,-506.91 40.04,-497.36 37.67,-507.68 44.62,-506.91"/>
<text text-anchor="start" x="48" y="-522" font-family="Courier New" font-weight="bold" font-size="10.00" fill="blue">MOV(WTEMP1,WOBJECT)</text>
</g>
<!-- 15 -->
<g id="node8" class="node">
<title>15</title>
<polyline fill="none" stroke="darkred" points="27,-375 49,-375"/>
<text text-anchor="start" x="30" y="-382.4" font-family="Courier New" font-weight="bold" font-size="14.00">15</text>
<path fill="none" stroke="darkred" d="M33.33,-372C33.33,-372 42.67,-372 42.67,-372 47.33,-372 52,-376.67 52,-381.33 52,-381.33 52,-390.67 52,-390.67 52,-395.33 47.33,-400 42.67,-400 42.67,-400 33.33,-400 33.33,-400 28.67,-400 24,-395.33 24,-390.67 24,-390.67 24,-381.33 24,-381.33 24,-376.67 28.67,-372 33.33,-372"/>
</g>
<!-- 14&#45;&gt;15 -->
<g id="edge6" class="edge">
<title>14&#45;&gt;15</title>
<path fill="none" stroke="black" d="M37.42,-460.27C37.25,-454.48 37.09,-447.96 37,-442 36.87,-433.11 36.87,-430.89 37,-422 37.03,-419.77 37.08,-417.45 37.13,-415.13"/>
<polygon fill="black" stroke="black" points="40.62,-415.33 37.39,-405.25 33.62,-415.15 40.62,-415.33"/>
<text text-anchor="start" x="41" y="-430" font-family="Courier New" font-weight="bold" font-size="10.00" fill="blue">SUBI(WTEMP1,IDD_TEMPLATE01)</text>
</g>
<!-- 16 -->
<g id="node9" class="node">
<title>16</title>
<polyline fill="none" stroke="darkred" points="87,-283 109,-283"/>
<text text-anchor="start" x="90" y="-290.4" font-family="Courier New" font-weight="bold" font-size="14.00">16</text>
<path fill="none" stroke="darkred" d="M93.33,-280C93.33,-280 102.67,-280 102.67,-280 107.33,-280 112,-284.67 112,-289.33 112,-289.33 112,-298.67 112,-298.67 112,-303.33 107.33,-308 102.67,-308 102.67,-308 93.33,-308 93.33,-308 88.67,-308 84,-303.33 84,-298.67 84,-298.67 84,-289.33 84,-289.33 84,-284.67 88.67,-280 93.33,-280"/>
</g>
<!-- 15&#45;&gt;16 -->
<g id="edge7" class="edge">
<title>15&#45;&gt;16</title>
<path fill="none" stroke="black" d="M49.29,-368.07C58.09,-354.87 70.46,-336.31 80.54,-321.19"/>
<polygon fill="black" stroke="black" points="83.29,-323.37 85.93,-313.11 77.47,-319.49 83.29,-323.37"/>
<text text-anchor="start" x="77" y="-338" font-family="Courier New" font-weight="bold" font-size="10.00" fill="blue">SIGNAL(WIP1,)</text>
</g>
<!-- 17 -->
<g id="node10" class="node">
<title>17</title>
<polyline fill="none" stroke="darkred" points="102,-191 124,-191"/>
<text text-anchor="start" x="105" y="-198.4" font-family="Courier New" font-weight="bold" font-size="14.00">17</text>
<path fill="none" stroke="darkred" d="M108.33,-188C108.33,-188 117.67,-188 117.67,-188 122.33,-188 127,-192.67 127,-197.33 127,-197.33 127,-206.67 127,-206.67 127,-211.33 122.33,-216 117.67,-216 117.67,-216 108.33,-216 108.33,-216 103.67,-216 99,-211.33 99,-206.67 99,-206.67 99,-197.33 99,-197.33 99,-192.67 103.67,-188 108.33,-188"/>
</g>
<!-- 16&#45;&gt;17 -->
<g id="edge8" class="edge">
<title>16&#45;&gt;17</title>
<path fill="none" stroke="black" d="M100.82,-276.07C102.94,-263.38 105.88,-245.71 108.34,-230.94"/>
<polygon fill="black" stroke="black" points="111.75,-231.78 109.94,-221.35 104.85,-230.63 111.75,-231.78"/>
<text text-anchor="start" x="110" y="-246" font-family="Courier New" font-weight="bold" font-size="10.00" fill="orange">GRAB(0,0)</text>
</g>
<!-- 18 -->
<g id="node11" class="node">
<title>18</title>
<polyline fill="none" stroke="darkred" points="108,-99 130,-99"/>
<text text-anchor="start" x="111" y="-106.4" font-family="Courier New" font-weight="bold" font-size="14.00">18</text>
<path fill="none" stroke="darkred" d="M114.33,-96C114.33,-96 123.67,-96 123.67,-96 128.33,-96 133,-100.67 133,-105.33 133,-105.33 133,-114.67 133,-114.67 133,-119.33 128.33,-124 123.67,-124 123.67,-124 114.33,-124 114.33,-124 109.67,-124 105,-119.33 105,-114.67 105,-114.67 105,-105.33 105,-105.33 105,-100.67 109.67,-96 114.33,-96"/>
</g>
<!-- 17&#45;&gt;18 -->
<g id="edge9" class="edge">
<title>17&#45;&gt;18</title>
<path fill="none" stroke="black" d="M114.13,-184.07C114.97,-171.38 116.15,-153.71 117.14,-138.94"/>
<polygon fill="black" stroke="black" points="120.6,-139.57 117.78,-129.36 113.62,-139.11 120.6,-139.57"/>
<text text-anchor="start" x="120" y="-154" font-family="Courier New" font-weight="bold" font-size="10.00" fill="blue">CLEAR(WOBJECT,)</text>
</g>
<!-- 19 -->
<g id="node12" class="node">
<title>19</title>
<polyline fill="none" stroke="darkred" points="164,-7 186,-7"/>
<text text-anchor="start" x="167" y="-14.4" font-family="Courier New" font-weight="bold" font-size="14.00">19</text>
<path fill="none" stroke="darkred" d="M170.33,-4C170.33,-4 179.67,-4 179.67,-4 184.33,-4 189,-8.67 189,-13.33 189,-13.33 189,-22.67 189,-22.67 189,-27.33 184.33,-32 179.67,-32 179.67,-32 170.33,-32 170.33,-32 165.67,-32 161,-27.33 161,-22.67 161,-22.67 161,-13.33 161,-13.33 161,-8.67 165.67,-4 170.33,-4"/>
</g>
<!-- 18&#45;&gt;19 -->
<g id="edge10" class="edge">
<title>18&#45;&gt;19</title>
<path fill="none" stroke="black" d="M118.92,-92.49C119.57,-80.95 121.9,-65.58 129,-54 131.8,-49.43 135.44,-45.24 139.44,-41.48"/>
<polygon fill="black" stroke="black" points="141.4,-44.4 146.85,-35.32 136.92,-39.02 141.4,-44.4"/>
<text text-anchor="start" x="133" y="-62" font-family="Courier New" font-weight="bold" font-size="10.00" fill="blue">SIGNAL(WIP1,)</text>
</g>
<!-- 19&#45;&gt;10 -->
<g id="edge11" class="edge">
<title>19&#45;&gt;10</title>
<path fill="none" stroke="black" d="M199,-35.86C204.97,-41.07 210.85,-47.24 215,-54 228.2,-75.5 229,-83.78 229,-109 229,-755 229,-755 229,-755 229,-780.81 211.13,-804.13 193.99,-820.56"/>
<polygon fill="black" stroke="black" points="191.9,-817.73 186.84,-827.04 196.6,-822.92 191.9,-817.73"/>
<text text-anchor="start" x="233" y="-430" font-family="Courier New" font-weight="bold" font-size="10.00" fill="blue">SHOW(0,0)</text>
</g>
</g>
</svg>
