<?xml version="1.0" encoding="UTF-8" standalone="no"?>
<!DOCTYPE svg PUBLIC "-//W3C//DTD SVG 1.1//EN"
 "http://www.w3.org/Graphics/SVG/1.1/DTD/svg11.dtd">
<!-- Generated by graphviz version 7.1.0 (20230121.1956)
 -->
<!-- Pages: 1 -->
<svg width="624pt" height="275pt"
 viewBox="0.00 0.00 623.83 275.00" xmlns="http://www.w3.org/2000/svg" xmlns:xlink="http://www.w3.org/1999/xlink">
<g id="graph0" class="graph" transform="scale(1 1) rotate(0) translate(4 271)">
<polygon fill="white" stroke="none" points="-4,4 -4,-271 619.83,-271 619.83,4 -4,4"/>
<!-- 0 -->
<g id="node1" class="node">
<title>0</title>
<ellipse fill="none" stroke="black" cx="224.83" cy="-249" rx="27" ry="18"/>
<text text-anchor="middle" x="224.83" y="-244.8" font-family="Times,serif" font-size="14.00">0</text>
</g>
<!-- 10 -->
<g id="node2" class="node">
<title>10</title>
<ellipse fill="none" stroke="black" cx="224.83" cy="-133.5" rx="27" ry="18"/>
<text text-anchor="middle" x="224.83" y="-129.3" font-family="Times,serif" font-size="14.00">10</text>
</g>
<!-- 0&#45;&gt;10 -->
<g id="edge1" class="edge">
<title>0&#45;&gt;10</title>
<path fill="none" stroke="black" d="M197.57,-247.78C145.02,-246.72 32.78,-241.14 8.83,-213 -2.98,-199.12 -2.9,-185.94 8.83,-172 31.08,-145.56 130.44,-137.76 186.33,-135.46"/>
<polygon fill="black" stroke="black" points="186.17,-138.97 196.04,-135.1 185.92,-131.97 186.17,-138.97"/>
<polygon fill="none" stroke="black" points="11.83,-191.5 11.83,-209.5 199.83,-209.5 199.83,-191.5 11.83,-191.5"/>
<text text-anchor="start" x="60.83" y="-198.5" font-family="Courier New" font-weight="bold" font-size="10.00" fill="orange">WAIT(,SIG_INC1)</text>
<polygon fill="none" stroke="black" points="11.83,-174.5 11.83,-189.5 199.83,-189.5 199.83,-174.5 11.83,-174.5"/>
<text text-anchor="start" x="14.83" y="-179.3" font-family="Times,serif" font-size="8.00" fill="blue">REF_MACHINE(WIP1);MOV(BFRAME,R_WPARM);</text>
<polygon fill="none" stroke="black" points="8.83,-172 8.83,-213 202.83,-213 202.83,-172 8.83,-172"/>
</g>
<!-- 0&#45;&gt;10 -->
<g id="edge2" class="edge">
<title>0&#45;&gt;10</title>
<path fill="none" stroke="black" d="M224.83,-230.76C224.83,-212.85 224.83,-184.5 224.83,-163.2"/>
<polygon fill="black" stroke="black" points="228.33,-163.41 224.83,-153.41 221.33,-163.41 228.33,-163.41"/>
<polygon fill="none" stroke="black" points="227.83,-191.5 227.83,-209.5 415.83,-209.5 415.83,-191.5 227.83,-191.5"/>
<text text-anchor="start" x="276.83" y="-198.5" font-family="Courier New" font-weight="bold" font-size="10.00" fill="orange">WAIT(,SIG_DEC1)</text>
<polygon fill="none" stroke="black" points="227.83,-174.5 227.83,-189.5 415.83,-189.5 415.83,-174.5 227.83,-174.5"/>
<text text-anchor="start" x="230.83" y="-179.3" font-family="Times,serif" font-size="8.00" fill="blue">REF_MACHINE(WIP1);MOV(BFRAME,R_WPARM);</text>
<polygon fill="none" stroke="black" points="224.83,-172 224.83,-213 418.83,-213 418.83,-172 224.83,-172"/>
</g>
<!-- 11 -->
<g id="node3" class="node">
<title>11</title>
<ellipse fill="none" stroke="black" cx="329.83" cy="-18" rx="27" ry="18"/>
<text text-anchor="middle" x="329.83" y="-13.8" font-family="Times,serif" font-size="14.00">11</text>
</g>
<!-- 10&#45;&gt;11 -->
<g id="edge3" class="edge">
<title>10&#45;&gt;11</title>
<path fill="none" stroke="black" d="M232.1,-115.93C240.19,-98.89 254.55,-72.32 272.83,-54 280.22,-46.6 289.47,-40.07 298.36,-34.72"/>
<polygon fill="black" stroke="black" points="299.82,-37.91 306.79,-29.94 296.37,-31.82 299.82,-37.91"/>
<polygon fill="none" stroke="black" points="276.33,-73.5 276.33,-91.5 417.33,-91.5 417.33,-73.5 276.33,-73.5"/>
<text text-anchor="start" x="292.82" y="-80.5" font-family="Courier New" font-weight="bold" font-size="10.00" fill="blue">MOV(WTEMP1,BFRAME)</text>
<polygon fill="none" stroke="black" points="276.33,-56.5 276.33,-71.5 417.33,-71.5 417.33,-56.5 276.33,-56.5"/>
<text text-anchor="start" x="279.33" y="-61.3" font-family="Times,serif" font-size="8.00" fill="blue"> MAPi(WTEMP1,S06_COMPONENTC);</text>
<polygon fill="none" stroke="black" points="272.83,-54 272.83,-95 419.83,-95 419.83,-54 272.83,-54"/>
</g>
<!-- 11&#45;&gt;0 -->
<g id="edge4" class="edge">
<title>11&#45;&gt;0</title>
<path fill="none" stroke="black" d="M356.47,-21.43C377.55,-24.91 405.73,-33.38 419.83,-54 459.73,-112.33 465.17,-158.8 419.83,-213 400.28,-236.37 314.37,-244.16 263.33,-246.74"/>
<polygon fill="black" stroke="black" points="263.43,-243.23 253.6,-247.18 263.75,-250.22 263.43,-243.23"/>
<polygon fill="none" stroke="black" points="454.33,-132.5 454.33,-150.5 613.33,-150.5 613.33,-132.5 454.33,-132.5"/>
<text text-anchor="start" x="479.82" y="-139.5" font-family="Courier New" font-weight="bold" font-size="10.00" fill="blue">MOV(BFRAME,WTEMP1)</text>
<polygon fill="none" stroke="black" points="454.33,-115.5 454.33,-130.5 613.33,-130.5 613.33,-115.5 454.33,-115.5"/>
<text text-anchor="start" x="457.33" y="-120.3" font-family="Times,serif" font-size="8.00" fill="blue">SUBI(BFRAME,1);SHOW(0,IDS_VIALCNT);</text>
<polygon fill="none" stroke="black" points="450.83,-113 450.83,-154 615.83,-154 615.83,-113 450.83,-113"/>
</g>
</g>
</svg>
