<?xml version="1.0" encoding="UTF-8" standalone="no"?>
<!DOCTYPE svg PUBLIC "-//W3C//DTD SVG 1.1//EN"
 "http://www.w3.org/Graphics/SVG/1.1/DTD/svg11.dtd">
<!-- Generated by graphviz version 7.1.0 (20230121.1956)
 -->
<!-- Pages: 1 -->
<svg width="366pt" height="943pt"
 viewBox="0.00 0.00 365.86 943.00" xmlns="http://www.w3.org/2000/svg" xmlns:xlink="http://www.w3.org/1999/xlink">
<g id="graph0" class="graph" transform="scale(1 1) rotate(0) translate(4 939)">
<polygon fill="white" stroke="none" points="-4,4 -4,-939 361.86,-939 361.86,4 -4,4"/>
<!-- M06_TEMPHOLD_0 -->
<g id="node1" class="node">
<title>M06_TEMPHOLD_0</title>
<polygon fill="none" stroke="black" points="140.5,-898.5 140.5,-934.5 280.17,-934.5 280.17,-898.5 140.5,-898.5"/>
<text text-anchor="middle" x="210.33" y="-912.3" font-family="Times,serif" font-size="14.00">M06_TEMPHOLD_0</text>
</g>
<!-- M06_TEMPHOLD_10 -->
<g id="node2" class="node">
<title>M06_TEMPHOLD_10</title>
<polygon fill="none" stroke="black" points="137,-808.7 137,-844.7 283.67,-844.7 283.67,-808.7 137,-808.7"/>
<text text-anchor="middle" x="210.33" y="-822.5" font-family="Times,serif" font-size="14.00">M06_TEMPHOLD_10</text>
</g>
<!-- M06_TEMPHOLD_0&#45;&gt;M06_TEMPHOLD_10 -->
<g id="edge1" class="edge">
<title>M06_TEMPHOLD_0&#45;&gt;M06_TEMPHOLD_10</title>
<path fill="none" stroke="green" d="M210.33,-898.57C210.33,-886.42 210.33,-869.78 210.33,-855.67"/>
<polygon fill="green" stroke="green" points="213.83,-856.09 210.33,-846.09 206.83,-856.09 213.83,-856.09"/>
<text text-anchor="start" x="210.33" y="-868.4" font-family="Times,serif" font-size="14.00" fill="green"> </text>
<text text-anchor="start" x="213.83" y="-868.4" font-family="Courier New" font-size="10.00" fill="green">C_ACCEPT(0,IDC_TEMPLATE)</text>
</g>
<!-- M06_TEMPHOLD_11 -->
<g id="node3" class="node">
<title>M06_TEMPHOLD_11</title>
<polygon fill="none" stroke="black" points="74,-718.9 74,-754.9 220.67,-754.9 220.67,-718.9 74,-718.9"/>
<text text-anchor="middle" x="147.33" y="-732.7" font-family="Times,serif" font-size="14.00">M06_TEMPHOLD_11</text>
</g>
<!-- M06_TEMPHOLD_10&#45;&gt;M06_TEMPHOLD_11 -->
<g id="edge2" class="edge">
<title>M06_TEMPHOLD_10&#45;&gt;M06_TEMPHOLD_11</title>
<path fill="none" stroke="red" d="M198.19,-808.77C189.04,-796.02 176.33,-778.31 165.9,-763.78"/>
<polygon fill="red" stroke="red" points="169,-762.09 160.33,-756.01 163.31,-766.17 169,-762.09"/>
<text text-anchor="start" x="185.33" y="-778.6" font-family="Times,serif" font-size="14.00" fill="red"> </text>
<text text-anchor="start" x="188.83" y="-778.6" font-family="Courier New" font-size="10.00" fill="red">DROP(0,0)</text>
</g>
<!-- M06_TEMPHOLD_12 -->
<g id="node4" class="node">
<title>M06_TEMPHOLD_12</title>
<polygon fill="none" stroke="black" points="25,-629.1 25,-665.1 171.67,-665.1 171.67,-629.1 25,-629.1"/>
<text text-anchor="middle" x="98.33" y="-642.9" font-family="Times,serif" font-size="14.00">M06_TEMPHOLD_12</text>
</g>
<!-- M06_TEMPHOLD_11&#45;&gt;M06_TEMPHOLD_12 -->
<g id="edge3" class="edge">
<title>M06_TEMPHOLD_11&#45;&gt;M06_TEMPHOLD_12</title>
<path fill="none" stroke="green" d="M137.89,-718.97C130.9,-706.46 121.26,-689.18 113.24,-674.81"/>
<polygon fill="green" stroke="green" points="116.42,-673.32 108.49,-666.3 110.31,-676.74 116.42,-673.32"/>
<text text-anchor="start" x="127.33" y="-688.8" font-family="Times,serif" font-size="14.00" fill="green"> </text>
<text text-anchor="start" x="130.83" y="-688.8" font-family="Courier New" font-size="10.00" fill="green">SHOW(0,IDS_TMORPH)</text>
</g>
<!-- M06_TEMPHOLD_13 -->
<g id="node5" class="node">
<title>M06_TEMPHOLD_13</title>
<polygon fill="none" stroke="black" points="10,-539.3 10,-575.3 156.67,-575.3 156.67,-539.3 10,-539.3"/>
<text text-anchor="middle" x="83.33" y="-553.1" font-family="Times,serif" font-size="14.00">M06_TEMPHOLD_13</text>
</g>
<!-- M06_TEMPHOLD_12&#45;&gt;M06_TEMPHOLD_13 -->
<g id="edge4" class="edge">
<title>M06_TEMPHOLD_12&#45;&gt;M06_TEMPHOLD_13</title>
<path fill="none" stroke="green" d="M92.59,-629.3C90.8,-623.44 88.98,-616.79 87.81,-610.6 86.33,-602.75 85.33,-594.15 84.67,-586.22"/>
<polygon fill="green" stroke="green" points="88.17,-586.15 84,-576.42 81.19,-586.63 88.17,-586.15"/>
<text text-anchor="start" x="88.33" y="-599" font-family="Times,serif" font-size="14.00" fill="green"> </text>
<text text-anchor="start" x="91.83" y="-599" font-family="Courier New" font-size="10.00" fill="green">ANIMATE(0,V_LOOP|V_REWIND)</text>
</g>
<!-- M06_TEMPHOLD_14 -->
<g id="node6" class="node">
<title>M06_TEMPHOLD_14</title>
<polygon fill="none" stroke="black" points="0,-449.5 0,-485.5 146.67,-485.5 146.67,-449.5 0,-449.5"/>
<text text-anchor="middle" x="73.33" y="-463.3" font-family="Times,serif" font-size="14.00">M06_TEMPHOLD_14</text>
</g>
<!-- M06_TEMPHOLD_13&#45;&gt;M06_TEMPHOLD_14 -->
<g id="edge5" class="edge">
<title>M06_TEMPHOLD_13&#45;&gt;M06_TEMPHOLD_14</title>
<path fill="none" stroke="green" d="M81.41,-539.37C80.02,-527.22 78.13,-510.58 76.52,-496.47"/>
<polygon fill="green" stroke="green" points="80.04,-496.42 75.43,-486.88 73.08,-497.21 80.04,-496.42"/>
<text text-anchor="start" x="79.33" y="-509.2" font-family="Times,serif" font-size="14.00" fill="green"> </text>
<text text-anchor="start" x="82.83" y="-509.2" font-family="Courier New" font-size="10.00" fill="green">MOV(WTEMP1,WOBJECT)</text>
</g>
<!-- M06_TEMPHOLD_15 -->
<g id="node7" class="node">
<title>M06_TEMPHOLD_15</title>
<polygon fill="none" stroke="black" points="1,-359.7 1,-395.7 147.67,-395.7 147.67,-359.7 1,-359.7"/>
<text text-anchor="middle" x="74.33" y="-373.5" font-family="Times,serif" font-size="14.00">M06_TEMPHOLD_15</text>
</g>
<!-- M06_TEMPHOLD_14&#45;&gt;M06_TEMPHOLD_15 -->
<g id="edge6" class="edge">
<title>M06_TEMPHOLD_14&#45;&gt;M06_TEMPHOLD_15</title>
<path fill="none" stroke="green" d="M73.46,-449.54C73.55,-439.31 73.67,-426 73.81,-414.2 73.84,-411.84 73.87,-409.39 73.9,-406.94"/>
<polygon fill="green" stroke="green" points="77.4,-407.24 74.04,-397.19 70.4,-407.14 77.4,-407.24"/>
<text text-anchor="start" x="74.33" y="-419.4" font-family="Times,serif" font-size="14.00" fill="green"> </text>
<text text-anchor="start" x="77.83" y="-419.4" font-family="Courier New" font-size="10.00" fill="green">SUBI(WTEMP1,IDD_TEMPLATE01)</text>
</g>
<!-- M06_TEMPHOLD_16 -->
<g id="node8" class="node">
<title>M06_TEMPHOLD_16</title>
<polygon fill="none" stroke="black" points="16,-269.9 16,-305.9 162.67,-305.9 162.67,-269.9 16,-269.9"/>
<text text-anchor="middle" x="89.33" y="-283.7" font-family="Times,serif" font-size="14.00">M06_TEMPHOLD_16</text>
</g>
<!-- M06_TEMPHOLD_15&#45;&gt;M06_TEMPHOLD_16 -->
<g id="edge7" class="edge">
<title>M06_TEMPHOLD_15&#45;&gt;M06_TEMPHOLD_16</title>
<path fill="none" stroke="green" d="M77.23,-359.77C79.3,-347.62 82.15,-330.98 84.56,-316.87"/>
<polygon fill="green" stroke="green" points="87.96,-317.72 86.2,-307.27 81.06,-316.54 87.96,-317.72"/>
<text text-anchor="start" x="83.33" y="-329.6" font-family="Times,serif" font-size="14.00" fill="green"> </text>
<text text-anchor="start" x="86.83" y="-329.6" font-family="Courier New" font-size="10.00" fill="green">SIGNAL(WIP1,)</text>
</g>
<!-- M06_TEMPHOLD_17 -->
<g id="node9" class="node">
<title>M06_TEMPHOLD_17</title>
<polygon fill="none" stroke="black" points="76,-180.1 76,-216.1 222.67,-216.1 222.67,-180.1 76,-180.1"/>
<text text-anchor="middle" x="149.33" y="-193.9" font-family="Times,serif" font-size="14.00">M06_TEMPHOLD_17</text>
</g>
<!-- M06_TEMPHOLD_16&#45;&gt;M06_TEMPHOLD_17 -->
<g id="edge8" class="edge">
<title>M06_TEMPHOLD_16&#45;&gt;M06_TEMPHOLD_17</title>
<path fill="none" stroke="red" d="M100.9,-269.97C109.54,-257.34 121.49,-239.84 131.37,-225.39"/>
<polygon fill="red" stroke="red" points="134.19,-227.46 136.95,-217.23 128.42,-223.51 134.19,-227.46"/>
<text text-anchor="start" x="125.33" y="-239.8" font-family="Times,serif" font-size="14.00" fill="red"> </text>
<text text-anchor="start" x="128.83" y="-239.8" font-family="Courier New" font-size="10.00" fill="red">GRAB(0,0)</text>
</g>
<!-- M06_TEMPHOLD_18 -->
<g id="node10" class="node">
<title>M06_TEMPHOLD_18</title>
<polygon fill="none" stroke="black" points="83,-90.3 83,-126.3 229.67,-126.3 229.67,-90.3 83,-90.3"/>
<text text-anchor="middle" x="156.33" y="-104.1" font-family="Times,serif" font-size="14.00">M06_TEMPHOLD_18</text>
</g>
<!-- M06_TEMPHOLD_17&#45;&gt;M06_TEMPHOLD_18 -->
<g id="edge9" class="edge">
<title>M06_TEMPHOLD_17&#45;&gt;M06_TEMPHOLD_18</title>
<path fill="none" stroke="green" d="M150.68,-180.17C151.65,-168.02 152.98,-151.38 154.1,-137.27"/>
<polygon fill="green" stroke="green" points="157.56,-137.93 154.87,-127.69 150.58,-137.38 157.56,-137.93"/>
<text text-anchor="start" x="154.33" y="-150" font-family="Times,serif" font-size="14.00" fill="green"> </text>
<text text-anchor="start" x="157.83" y="-150" font-family="Courier New" font-size="10.00" fill="green">CLEAR(WOBJECT,)</text>
</g>
<!-- M06_TEMPHOLD_19 -->
<g id="node11" class="node">
<title>M06_TEMPHOLD_19</title>
<polygon fill="none" stroke="black" points="135,-0.5 135,-36.5 281.67,-36.5 281.67,-0.5 135,-0.5"/>
<text text-anchor="middle" x="208.33" y="-14.3" font-family="Times,serif" font-size="14.00">M06_TEMPHOLD_19</text>
</g>
<!-- M06_TEMPHOLD_18&#45;&gt;M06_TEMPHOLD_19 -->
<g id="edge10" class="edge">
<title>M06_TEMPHOLD_18&#45;&gt;M06_TEMPHOLD_19</title>
<path fill="none" stroke="green" d="M156.47,-90.75C157.22,-79.93 159.51,-65.85 165.82,-55 168.1,-51.09 170.97,-47.42 174.15,-44.03"/>
<polygon fill="green" stroke="green" points="176.48,-46.64 181.39,-37.25 171.7,-41.53 176.48,-46.64"/>
<text text-anchor="start" x="166.33" y="-60.2" font-family="Times,serif" font-size="14.00" fill="green"> </text>
<text text-anchor="start" x="169.83" y="-60.2" font-family="Courier New" font-size="10.00" fill="green">SIGNAL(WIP1,)</text>
</g>
<!-- M06_TEMPHOLD_19&#45;&gt;M06_TEMPHOLD_10 -->
<g id="edge11" class="edge">
<title>M06_TEMPHOLD_19&#45;&gt;M06_TEMPHOLD_10</title>
<path fill="none" stroke="green" d="M231.26,-36.41C237.23,-41.77 243.14,-48.12 247.33,-55 259.85,-75.55 261.33,-83.24 261.33,-107.3 261.33,-737.9 261.33,-737.9 261.33,-737.9 261.33,-761.96 259.58,-769.49 247.33,-790.2 245.17,-793.86 242.52,-797.4 239.65,-800.72"/>
<polygon fill="green" stroke="green" points="237.16,-798.26 232.74,-807.89 242.2,-803.12 237.16,-798.26"/>
<text text-anchor="start" x="261.33" y="-419.4" font-family="Times,serif" font-size="14.00" fill="green"> </text>
<text text-anchor="start" x="264.83" y="-419.4" font-family="Courier New" font-size="10.00" fill="green">SHOW(0,0)</text>
</g>
</g>
</svg>
