<?xml version="1.0" encoding="UTF-8" standalone="no"?>
<!DOCTYPE svg PUBLIC "-//W3C//DTD SVG 1.1//EN"
 "http://www.w3.org/Graphics/SVG/1.1/DTD/svg11.dtd">
<!-- Generated by graphviz version 7.1.0 (20230121.1956)
 -->
<!-- Pages: 1 -->
<svg width="388pt" height="608pt"
 viewBox="0.00 0.00 388.00 608.00" xmlns="http://www.w3.org/2000/svg" xmlns:xlink="http://www.w3.org/1999/xlink">
<g id="graph0" class="graph" transform="scale(1 1) rotate(0) translate(4 604)">
<polygon fill="white" stroke="none" points="-4,4 -4,-604 384,-604 384,4 -4,4"/>
<!-- 0 -->
<g id="node1" class="node">
<title>0</title>
<ellipse fill="none" stroke="black" cx="102" cy="-582" rx="27" ry="18"/>
<text text-anchor="middle" x="102" y="-577.8" font-family="Times,serif" font-size="14.00">0</text>
</g>
<!-- 1 -->
<g id="node2" class="node">
<title>1</title>
<ellipse fill="none" stroke="black" cx="40" cy="-488" rx="27" ry="18"/>
<text text-anchor="middle" x="40" y="-483.8" font-family="Times,serif" font-size="14.00">1</text>
</g>
<!-- 0&#45;&gt;1 -->
<g id="edge1" class="edge">
<title>0&#45;&gt;1</title>
<path fill="none" stroke="black" d="M91.48,-565.39C82.1,-551.47 68.18,-530.82 57.18,-514.5"/>
<polygon fill="black" stroke="black" points="60.11,-512.58 51.62,-506.25 54.31,-516.5 60.11,-512.58"/>
<text text-anchor="start" x="83" y="-532.2" font-family="Courier New" font-weight="bold" font-size="12.00" fill="orange">CLICK(0,0)</text>
</g>
<!-- 2 -->
<g id="node3" class="node">
<title>2</title>
<ellipse fill="none" stroke="black" cx="27" cy="-394" rx="27" ry="18"/>
<text text-anchor="middle" x="27" y="-389.8" font-family="Times,serif" font-size="14.00">2</text>
</g>
<!-- 1&#45;&gt;2 -->
<g id="edge2" class="edge">
<title>1&#45;&gt;2</title>
<path fill="none" stroke="black" d="M32.4,-470.25C30.2,-464.58 28.1,-458.12 27,-452 25.36,-442.86 24.92,-432.76 25.02,-423.63"/>
<polygon fill="black" stroke="black" points="28.51,-423.98 25.36,-413.86 21.52,-423.74 28.51,-423.98"/>
<text text-anchor="start" x="31.5" y="-438.2" font-family="Courier New" font-weight="bold" font-size="12.00" fill="blue">SHOW(0,IDS_PEZPOP)</text>
</g>
<!-- 3 -->
<g id="node4" class="node">
<title>3</title>
<ellipse fill="none" stroke="black" cx="42" cy="-300" rx="27" ry="18"/>
<text text-anchor="middle" x="42" y="-295.8" font-family="Times,serif" font-size="14.00">3</text>
</g>
<!-- 2&#45;&gt;3 -->
<g id="edge3" class="edge">
<title>2&#45;&gt;3</title>
<path fill="none" stroke="black" d="M29.82,-375.7C31.94,-362.72 34.88,-344.66 37.34,-329.56"/>
<polygon fill="black" stroke="black" points="40.79,-330.15 38.95,-319.72 33.88,-329.03 40.79,-330.15"/>
<text text-anchor="start" x="41" y="-344.2" font-family="Courier New" font-weight="bold" font-size="12.00" fill="blue">ANIMATE(0,0)</text>
</g>
<!-- 4 -->
<g id="node5" class="node">
<title>4</title>
<ellipse fill="none" stroke="black" cx="46" cy="-206" rx="27" ry="18"/>
<text text-anchor="middle" x="46" y="-201.8" font-family="Times,serif" font-size="14.00">4</text>
</g>
<!-- 3&#45;&gt;4 -->
<g id="edge4" class="edge">
<title>3&#45;&gt;4</title>
<path fill="none" stroke="black" d="M42.75,-281.7C43.32,-268.72 44.1,-250.66 44.76,-235.56"/>
<polygon fill="black" stroke="black" points="48.25,-235.88 45.19,-225.74 41.25,-235.58 48.25,-235.88"/>
<text text-anchor="start" x="49.5" y="-250.2" font-family="Courier New" font-weight="bold" font-size="12.00" fill="orange">GRAB(WIP1,)</text>
</g>
<!-- 5 -->
<g id="node6" class="node">
<title>5</title>
<ellipse fill="none" stroke="black" cx="47" cy="-112" rx="27" ry="18"/>
<text text-anchor="middle" x="47" y="-107.8" font-family="Times,serif" font-size="14.00">5</text>
</g>
<!-- 4&#45;&gt;5 -->
<g id="edge5" class="edge">
<title>4&#45;&gt;5</title>
<path fill="none" stroke="black" d="M46.19,-187.7C46.33,-174.72 46.53,-156.66 46.69,-141.56"/>
<polygon fill="black" stroke="black" points="50.19,-141.78 46.8,-131.74 43.19,-141.7 50.19,-141.78"/>
<text text-anchor="start" x="51" y="-156.2" font-family="Courier New" font-weight="bold" font-size="12.00" fill="blue">SHOW(0,0)</text>
</g>
<!-- 6 -->
<g id="node7" class="node">
<title>6</title>
<ellipse fill="none" stroke="black" cx="112" cy="-18" rx="27" ry="18"/>
<text text-anchor="middle" x="112" y="-13.8" font-family="Times,serif" font-size="14.00">6</text>
</g>
<!-- 5&#45;&gt;6 -->
<g id="edge6" class="edge">
<title>5&#45;&gt;6</title>
<path fill="none" stroke="black" d="M43.01,-93.8C41.2,-81.79 40.83,-65.86 48,-54 54.51,-43.24 65.59,-35.56 76.72,-30.2"/>
<polygon fill="black" stroke="black" points="78.03,-33.44 85.87,-26.32 75.3,-27 78.03,-33.44"/>
<text text-anchor="start" x="52" y="-62.2" font-family="Courier New" font-weight="bold" font-size="12.00" fill="blue">CLEAR(WSPRITE,)</text>
</g>
<!-- 6&#45;&gt;0 -->
<g id="edge7" class="edge">
<title>6&#45;&gt;0</title>
<path fill="none" stroke="black" d="M133.84,-28.93C144.43,-34.79 156.46,-43.2 164,-54 178.94,-75.39 178,-84.91 178,-111 178,-489 178,-489 178,-489 178,-515.2 178.93,-525.2 163,-546 156,-555.14 145.89,-562.29 135.9,-567.68"/>
<polygon fill="black" stroke="black" points="134.49,-564.48 127.04,-572.01 137.56,-570.77 134.49,-564.48"/>
<text text-anchor="start" x="182" y="-297.2" font-family="Courier New" font-weight="bold" font-size="12.00" fill="blue">VIDEO(V_REVERSE,IDS_PEZPOP)</text>
</g>
</g>
</svg>
