<?xml version="1.0" encoding="UTF-8" standalone="no"?>
<!DOCTYPE svg PUBLIC "-//W3C//DTD SVG 1.1//EN"
 "http://www.w3.org/Graphics/SVG/1.1/DTD/svg11.dtd">
<!-- Generated by graphviz version 7.1.0 (20230121.1956)
 -->
<!-- Title: Automaton Pages: 1 -->
<svg width="522pt" height="61pt"
 viewBox="0.00 0.00 522.00 61.00" xmlns="http://www.w3.org/2000/svg" xmlns:xlink="http://www.w3.org/1999/xlink">
<g id="graph0" class="graph" transform="scale(1 1) rotate(0) translate(4 57)">
<title>Automaton</title>
<polygon fill="white" stroke="none" points="-4,4 -4,-57 518,-57 518,4 -4,4"/>
<!-- filename -->
<g id="node1" class="node">
<title>filename</title>
<polygon fill="none" stroke="black" points="0,-0.5 0,-52.5 136,-52.5 136,-0.5 0,-0.5"/>
<polygon fill="none" stroke="black" points="11,-27.5 11,-45.5 125,-45.5 125,-27.5 11,-27.5"/>
<text text-anchor="start" x="14" y="-34.5" font-family="Courier New" font-weight="bold" font-size="10.00">M06_EJECT_CARD_BTN</text>
<polygon fill="none" stroke="black" points="11,-7.5 11,-25.5 125,-25.5 125,-7.5 11,-7.5"/>
<text text-anchor="start" x="22.99" y="-13.5" font-family="Courier New" font-size="10.00" fill="brown">start state = 0</text>
<polygon fill="none" stroke="black" points="8,-4.5 8,-48.5 128,-48.5 128,-4.5 8,-4.5"/>
</g>
<!-- 0 -->
<g id="node2" class="node">
<title>0</title>
<polyline fill="none" stroke="darkred" points="174,-15.5 188,-15.5"/>
<text text-anchor="start" x="177" y="-22.9" font-family="Courier New" font-weight="bold" font-size="14.00">0</text>
<path fill="none" stroke="darkred" d="M177.67,-12.5C177.67,-12.5 184.33,-12.5 184.33,-12.5 187.67,-12.5 191,-15.83 191,-19.17 191,-19.17 191,-33.83 191,-33.83 191,-37.17 187.67,-40.5 184.33,-40.5 184.33,-40.5 177.67,-40.5 177.67,-40.5 174.33,-40.5 171,-37.17 171,-33.83 171,-33.83 171,-19.17 171,-19.17 171,-15.83 174.33,-12.5 177.67,-12.5"/>
</g>
<!-- 0&#45;&gt;0 -->
<g id="edge1" class="edge">
<title>0&#45;&gt;0</title>
<path fill="none" stroke="black" d="M207.79,-33.24C217.78,-33.46 226,-31.21 226,-26.5 226,-23.78 223.25,-21.88 219.01,-20.8"/>
<polygon fill="black" stroke="black" points="219.58,-17.34 209.3,-19.9 218.94,-24.31 219.58,-17.34"/>
<polygon fill="none" stroke="black" points="229,-27.5 229,-45.5 511,-45.5 511,-27.5 229,-27.5"/>
<text text-anchor="start" x="346" y="-34.5" font-family="Courier New" font-weight="bold" font-size="10.00" fill="orange">CLICK(,)</text>
<polygon fill="none" stroke="black" points="229,-7.5 229,-25.5 511,-25.5 511,-7.5 229,-7.5"/>
<text text-anchor="start" x="232" y="-13.5" font-family="Courier New" font-size="10.00" fill="blue">PLAYWAVE(SOUND_CLICK);SIGNAL(WIP1, SIG_EJECT);</text>
<polygon fill="none" stroke="black" points="226,-4.5 226,-48.5 514,-48.5 514,-4.5 226,-4.5"/>
</g>
</g>
</svg>
