<?xml version="1.0" encoding="UTF-8" standalone="no"?>
<!DOCTYPE svg PUBLIC "-//W3C//DTD SVG 1.1//EN"
 "http://www.w3.org/Graphics/SVG/1.1/DTD/svg11.dtd">
<!-- Generated by graphviz version 7.1.0 (20230121.1956)
 -->
<!-- Pages: 1 -->
<svg width="279pt" height="584pt"
 viewBox="0.00 0.00 279.01 583.80" xmlns="http://www.w3.org/2000/svg" xmlns:xlink="http://www.w3.org/1999/xlink">
<g id="graph0" class="graph" transform="scale(1 1) rotate(0) translate(4 579.8)">
<polygon fill="white" stroke="none" points="-4,4 -4,-579.8 275.01,-579.8 275.01,4 -4,4"/>
<!-- M06_TRI4_0 -->
<g id="node1" class="node">
<title>M06_TRI4_0</title>
<polygon fill="none" stroke="black" points="129,-539.3 129,-575.3 222,-575.3 222,-539.3 129,-539.3"/>
<text text-anchor="middle" x="175.5" y="-553.1" font-family="Times,serif" font-size="14.00">M06_TRI4_0</text>
</g>
<!-- M06_TRI4_1 -->
<g id="node2" class="node">
<title>M06_TRI4_1</title>
<polygon fill="none" stroke="black" points="66,-449.5 66,-485.5 159,-485.5 159,-449.5 66,-449.5"/>
<text text-anchor="middle" x="112.5" y="-463.3" font-family="Times,serif" font-size="14.00">M06_TRI4_1</text>
</g>
<!-- M06_TRI4_0&#45;&gt;M06_TRI4_1 -->
<g id="edge1" class="edge">
<title>M06_TRI4_0&#45;&gt;M06_TRI4_1</title>
<path fill="none" stroke="red" d="M157.9,-539.35C152.49,-533.7 146.72,-527.21 141.99,-520.8 136.17,-512.89 130.63,-503.72 125.97,-495.29"/>
<polygon fill="red" stroke="red" points="129.07,-493.67 121.28,-486.49 122.89,-496.96 129.07,-493.67"/>
<text text-anchor="start" x="142.5" y="-509.2" font-family="Times,serif" font-size="14.00" fill="red"> </text>
<text text-anchor="start" x="146" y="-509.2" font-family="Courier New" font-size="10.00" fill="red">WAIT(0,0)</text>
</g>
<!-- M06_TRI4_2 -->
<g id="node3" class="node">
<title>M06_TRI4_2</title>
<polygon fill="none" stroke="black" points="0,-359.7 0,-395.7 93,-395.7 93,-359.7 0,-359.7"/>
<text text-anchor="middle" x="46.5" y="-373.5" font-family="Times,serif" font-size="14.00">M06_TRI4_2</text>
</g>
<!-- M06_TRI4_1&#45;&gt;M06_TRI4_2 -->
<g id="edge2" class="edge">
<title>M06_TRI4_1&#45;&gt;M06_TRI4_2</title>
<path fill="none" stroke="green" d="M99.77,-449.57C90.19,-436.82 76.87,-419.11 65.95,-404.58"/>
<polygon fill="green" stroke="green" points="68.9,-402.68 60.1,-396.79 63.31,-406.88 68.9,-402.68"/>
<text text-anchor="start" x="85.5" y="-419.4" font-family="Times,serif" font-size="14.00" fill="green"> </text>
<text text-anchor="start" x="89" y="-419.4" font-family="Courier New" font-size="10.00" fill="green">MOV(BFRAME,WTEMP1)</text>
</g>
<!-- M06_TRI4_3 -->
<g id="node4" class="node">
<title>M06_TRI4_3</title>
<polygon fill="none" stroke="black" points="16,-269.9 16,-305.9 109,-305.9 109,-269.9 16,-269.9"/>
<text text-anchor="middle" x="62.5" y="-283.7" font-family="Times,serif" font-size="14.00">M06_TRI4_3</text>
</g>
<!-- M06_TRI4_2&#45;&gt;M06_TRI4_3 -->
<g id="edge3" class="edge">
<title>M06_TRI4_2&#45;&gt;M06_TRI4_3</title>
<path fill="none" stroke="green" d="M37.65,-359.96C33.34,-349.57 29.88,-336.03 33.97,-324.4 35.12,-321.15 36.7,-317.98 38.54,-314.95"/>
<polygon fill="green" stroke="green" points="41.19,-317.25 44.17,-307.09 35.5,-313.18 41.19,-317.25"/>
<text text-anchor="start" x="34.5" y="-329.6" font-family="Times,serif" font-size="14.00" fill="green"> </text>
<text text-anchor="start" x="38" y="-329.6" font-family="Courier New" font-size="10.00" fill="green">MAPi(BFRAME,TEMPLATE_CHEM2)</text>
</g>
<!-- M06_TRI4_4 -->
<g id="node5" class="node">
<title>M06_TRI4_4</title>
<polygon fill="none" stroke="black" points="33,-180.1 33,-216.1 126,-216.1 126,-180.1 33,-180.1"/>
<text text-anchor="middle" x="79.5" y="-193.9" font-family="Times,serif" font-size="14.00">M06_TRI4_4</text>
</g>
<!-- M06_TRI4_3&#45;&gt;M06_TRI4_4 -->
<g id="edge4" class="edge">
<title>M06_TRI4_3&#45;&gt;M06_TRI4_4</title>
<path fill="none" stroke="green" d="M65.78,-269.97C68.13,-257.82 71.35,-241.18 74.08,-227.07"/>
<polygon fill="green" stroke="green" points="77.48,-227.95 75.94,-217.46 70.61,-226.62 77.48,-227.95"/>
<text text-anchor="start" x="73.5" y="-239.8" font-family="Times,serif" font-size="14.00" fill="green"> </text>
<text text-anchor="start" x="77" y="-239.8" font-family="Courier New" font-size="10.00" fill="green">SHOW(0,IDS_CHEMS)</text>
</g>
<!-- M06_TRI4_5 -->
<g id="node6" class="node">
<title>M06_TRI4_5</title>
<polygon fill="none" stroke="black" points="46,-90.3 46,-126.3 139,-126.3 139,-90.3 46,-90.3"/>
<text text-anchor="middle" x="92.5" y="-104.1" font-family="Times,serif" font-size="14.00">M06_TRI4_5</text>
</g>
<!-- M06_TRI4_4&#45;&gt;M06_TRI4_5 -->
<g id="edge5" class="edge">
<title>M06_TRI4_4&#45;&gt;M06_TRI4_5</title>
<path fill="none" stroke="red" d="M82.01,-180.17C83.8,-168.02 86.27,-151.38 88.36,-137.27"/>
<polygon fill="red" stroke="red" points="91.78,-138.08 89.78,-127.67 84.85,-137.05 91.78,-138.08"/>
<text text-anchor="start" x="87.5" y="-150" font-family="Times,serif" font-size="14.00" fill="red"> </text>
<text text-anchor="start" x="91" y="-150" font-family="Courier New" font-size="10.00" fill="red">WAIT(0,0)</text>
</g>
<!-- M06_TRI4_6 -->
<g id="node7" class="node">
<title>M06_TRI4_6</title>
<polygon fill="none" stroke="black" points="106,-0.5 106,-36.5 199,-36.5 199,-0.5 106,-0.5"/>
<text text-anchor="middle" x="152.5" y="-14.3" font-family="Times,serif" font-size="14.00">M06_TRI4_6</text>
</g>
<!-- M06_TRI4_5&#45;&gt;M06_TRI4_6 -->
<g id="edge6" class="edge">
<title>M06_TRI4_5&#45;&gt;M06_TRI4_6</title>
<path fill="none" stroke="green" d="M96.4,-90.75C99.47,-79.93 104.5,-65.85 111.99,-55 114.67,-51.1 117.88,-47.36 121.3,-43.86"/>
<polygon fill="green" stroke="green" points="123.5,-46.6 128.41,-37.22 118.72,-41.49 123.5,-46.6"/>
<text text-anchor="start" x="112.5" y="-60.2" font-family="Times,serif" font-size="14.00" fill="green"> </text>
<text text-anchor="start" x="116" y="-60.2" font-family="Courier New" font-size="10.00" fill="green">CLEAR(BFRAME,)</text>
</g>
<!-- M06_TRI4_6&#45;&gt;M06_TRI4_0 -->
<g id="edge7" class="edge">
<title>M06_TRI4_6&#45;&gt;M06_TRI4_0</title>
<path fill="none" stroke="green" d="M181.14,-36.39C187.99,-41.6 194.7,-47.88 199.5,-55 212.94,-74.96 213.5,-83.24 213.5,-107.3 213.5,-468.5 213.5,-468.5 213.5,-468.5 213.5,-492.56 209.49,-498.91 199.5,-520.8 198.06,-523.95 196.36,-527.12 194.53,-530.21"/>
<polygon fill="green" stroke="green" points="191.74,-528.08 189.25,-538.38 197.62,-531.87 191.74,-528.08"/>
<text text-anchor="start" x="213.5" y="-284.7" font-family="Times,serif" font-size="14.00" fill="green"> </text>
<text text-anchor="start" x="217" y="-284.7" font-family="Courier New" font-size="10.00" fill="green">SHOW(0,0)</text>
</g>
</g>
</svg>
