<?xml version="1.0" encoding="UTF-8" standalone="no"?>
<!DOCTYPE svg PUBLIC "-//W3C//DTD SVG 1.1//EN"
 "http://www.w3.org/Graphics/SVG/1.1/DTD/svg11.dtd">
<!-- Generated by graphviz version 7.1.0 (20230121.1956)
 -->
<!-- Pages: 1 -->
<svg width="289pt" height="780pt"
 viewBox="0.00 0.00 289.00 780.00" xmlns="http://www.w3.org/2000/svg" xmlns:xlink="http://www.w3.org/1999/xlink">
<g id="graph0" class="graph" transform="scale(1 1) rotate(0) translate(4 776)">
<polygon fill="white" stroke="none" points="-4,4 -4,-776 285,-776 285,4 -4,4"/>
<!-- 0 -->
<g id="node1" class="node">
<title>0</title>
<ellipse fill="none" stroke="black" cx="129" cy="-754" rx="27" ry="18"/>
<text text-anchor="middle" x="129" y="-749.8" font-family="Times,serif" font-size="14.00">0</text>
</g>
<!-- 1 -->
<g id="node2" class="node">
<title>1</title>
<ellipse fill="none" stroke="black" cx="65" cy="-662" rx="27" ry="18"/>
<text text-anchor="middle" x="65" y="-657.8" font-family="Times,serif" font-size="14.00">1</text>
</g>
<!-- 0&#45;&gt;1 -->
<g id="edge1" class="edge">
<title>0&#45;&gt;1</title>
<path fill="none" stroke="black" d="M117.85,-737.32C108.18,-723.73 94.02,-703.8 82.78,-688.01"/>
<polygon fill="black" stroke="black" points="85.76,-686.15 77.11,-680.03 80.05,-690.21 85.76,-686.15"/>
<text text-anchor="start" x="107" y="-706" font-family="Courier New" font-weight="bold" font-size="10.00" fill="orange">WAIT(0,0)</text>
</g>
<!-- 2 -->
<g id="node3" class="node">
<title>2</title>
<ellipse fill="none" stroke="black" cx="40" cy="-570" rx="27" ry="18"/>
<text text-anchor="middle" x="40" y="-565.8" font-family="Times,serif" font-size="14.00">2</text>
</g>
<!-- 1&#45;&gt;2 -->
<g id="edge2" class="edge">
<title>1&#45;&gt;2</title>
<path fill="none" stroke="black" d="M60.3,-644.07C56.79,-631.46 51.93,-613.94 47.84,-599.22"/>
<polygon fill="black" stroke="black" points="51.22,-598.32 45.17,-589.62 44.48,-600.19 51.22,-598.32"/>
<text text-anchor="start" x="59" y="-614" font-family="Courier New" font-weight="bold" font-size="10.00" fill="blue">MOV(BFRAME,WTEMP1)</text>
</g>
<!-- 3 -->
<g id="node4" class="node">
<title>3</title>
<ellipse fill="none" stroke="black" cx="27" cy="-478" rx="27" ry="18"/>
<text text-anchor="middle" x="27" y="-473.8" font-family="Times,serif" font-size="14.00">3</text>
</g>
<!-- 2&#45;&gt;3 -->
<g id="edge3" class="edge">
<title>2&#45;&gt;3</title>
<path fill="none" stroke="black" d="M27.35,-553.95C23.21,-548.1 19.13,-541.11 17,-534 14.37,-525.21 15.05,-515.41 16.95,-506.54"/>
<polygon fill="black" stroke="black" points="20.28,-507.62 19.57,-497.05 13.53,-505.75 20.28,-507.62"/>
<text text-anchor="start" x="21" y="-522" font-family="Courier New" font-weight="bold" font-size="10.00" fill="blue">MAPi(BFRAME,TEMPLATE_COST)</text>
</g>
<!-- 4 -->
<g id="node5" class="node">
<title>4</title>
<ellipse fill="none" stroke="black" cx="59" cy="-386" rx="27" ry="18"/>
<text text-anchor="middle" x="59" y="-381.8" font-family="Times,serif" font-size="14.00">4</text>
</g>
<!-- 3&#45;&gt;4 -->
<g id="edge4" class="edge">
<title>3&#45;&gt;4</title>
<path fill="none" stroke="black" d="M33.02,-460.07C37.58,-447.25 43.94,-429.36 49.22,-414.5"/>
<polygon fill="black" stroke="black" points="52.45,-415.87 52.5,-405.28 45.85,-413.53 52.45,-415.87"/>
<text text-anchor="start" x="50" y="-430" font-family="Courier New" font-weight="bold" font-size="10.00" fill="blue">SHOW(0,IDS_VIALCNT)</text>
</g>
<!-- 5 -->
<g id="node6" class="node">
<title>5</title>
<ellipse fill="none" stroke="black" cx="81" cy="-294" rx="27" ry="18"/>
<text text-anchor="middle" x="81" y="-289.8" font-family="Times,serif" font-size="14.00">5</text>
</g>
<!-- 4&#45;&gt;5 -->
<g id="edge5" class="edge">
<title>4&#45;&gt;5</title>
<path fill="none" stroke="black" d="M63.14,-368.07C66.22,-355.46 70.5,-337.94 74.1,-323.22"/>
<polygon fill="black" stroke="black" points="77.47,-324.17 76.45,-313.63 70.67,-322.51 77.47,-324.17"/>
<text text-anchor="start" x="76" y="-338" font-family="Courier New" font-weight="bold" font-size="10.00" fill="blue">SIGNAL(WIP1,)</text>
</g>
<!-- 6 -->
<g id="node7" class="node">
<title>6</title>
<ellipse fill="none" stroke="black" cx="87" cy="-202" rx="27" ry="18"/>
<text text-anchor="middle" x="87" y="-197.8" font-family="Times,serif" font-size="14.00">6</text>
</g>
<!-- 5&#45;&gt;6 -->
<g id="edge6" class="edge">
<title>5&#45;&gt;6</title>
<path fill="none" stroke="black" d="M82.16,-275.65C82.99,-263.2 84.12,-246.14 85.09,-231.68"/>
<polygon fill="black" stroke="black" points="88.57,-232.02 85.75,-221.81 81.59,-231.55 88.57,-232.02"/>
<text text-anchor="start" x="89" y="-246" font-family="Courier New" font-weight="bold" font-size="10.00" fill="orange">WAIT(0,0)</text>
</g>
<!-- 7 -->
<g id="node8" class="node">
<title>7</title>
<ellipse fill="none" stroke="black" cx="96" cy="-110" rx="27" ry="18"/>
<text text-anchor="middle" x="96" y="-105.8" font-family="Times,serif" font-size="14.00">7</text>
</g>
<!-- 6&#45;&gt;7 -->
<g id="edge7" class="edge">
<title>6&#45;&gt;7</title>
<path fill="none" stroke="black" d="M86.92,-183.61C87.04,-172.76 87.53,-158.53 89,-146 89.26,-143.78 89.59,-141.5 89.95,-139.21"/>
<polygon fill="black" stroke="black" points="93.37,-139.96 91.75,-129.49 86.49,-138.69 93.37,-139.96"/>
<text text-anchor="start" x="93" y="-154" font-family="Courier New" font-weight="bold" font-size="10.00" fill="blue">CLEAR(BFRAME,)</text>
</g>
<!-- 8 -->
<g id="node9" class="node">
<title>8</title>
<ellipse fill="none" stroke="black" cx="149" cy="-18" rx="27" ry="18"/>
<text text-anchor="middle" x="149" y="-13.8" font-family="Times,serif" font-size="14.00">8</text>
</g>
<!-- 7&#45;&gt;8 -->
<g id="edge8" class="edge">
<title>7&#45;&gt;8</title>
<path fill="none" stroke="black" d="M101.55,-91.97C105.58,-80.76 111.61,-65.98 119,-54 121.5,-49.94 124.47,-45.87 127.54,-42.02"/>
<polygon fill="black" stroke="black" points="129.97,-44.57 133.78,-34.68 124.63,-40.04 129.97,-44.57"/>
<text text-anchor="start" x="123" y="-62" font-family="Courier New" font-weight="bold" font-size="10.00" fill="blue">SHOW(0,0)</text>
</g>
<!-- 8&#45;&gt;0 -->
<g id="edge9" class="edge">
<title>8&#45;&gt;0</title>
<path fill="none" stroke="black" d="M164.81,-33.06C170.66,-39 176.85,-46.32 181,-54 192.98,-76.2 195,-83.78 195,-109 195,-663 195,-663 195,-663 195,-691.14 173.76,-716.32 155.38,-732.84"/>
<polygon fill="black" stroke="black" points="153.19,-730.1 147.84,-739.25 157.72,-735.43 153.19,-730.1"/>
<text text-anchor="start" x="199" y="-384" font-family="Courier New" font-weight="bold" font-size="10.00" fill="blue">SIGNAL(WIP1,)</text>
</g>
</g>
</svg>
