<?xml version="1.0" encoding="UTF-8" standalone="no"?>
<!DOCTYPE svg PUBLIC "-//W3C//DTD SVG 1.1//EN"
 "http://www.w3.org/Graphics/SVG/1.1/DTD/svg11.dtd">
<!-- Generated by graphviz version 7.1.0 (20230121.1956)
 -->
<!-- Pages: 1 -->
<svg width="600pt" height="383pt"
 viewBox="0.00 0.00 599.86 383.00" xmlns="http://www.w3.org/2000/svg" xmlns:xlink="http://www.w3.org/1999/xlink">
<g id="graph0" class="graph" transform="scale(1 1) rotate(0) translate(4 379)">
<polygon fill="white" stroke="none" points="-4,4 -4,-379 595.86,-379 595.86,4 -4,4"/>
<!-- 0 -->
<g id="node1" class="node">
<title>0</title>
<ellipse fill="none" stroke="black" cx="224.86" cy="-357" rx="27" ry="18"/>
<text text-anchor="middle" x="224.86" y="-352.8" font-family="Times,serif" font-size="14.00">0</text>
</g>
<!-- 10 -->
<g id="node2" class="node">
<title>10</title>
<ellipse fill="none" stroke="black" cx="224.86" cy="-244" rx="27" ry="18"/>
<text text-anchor="middle" x="224.86" y="-239.8" font-family="Times,serif" font-size="14.00">10</text>
</g>
<!-- 0&#45;&gt;10 -->
<g id="edge1" class="edge">
<title>0&#45;&gt;10</title>
<path fill="none" stroke="black" d="M197.59,-355.78C145.05,-354.72 32.8,-349.14 8.86,-321 -2.95,-307.12 -2.95,-293.88 8.86,-280 31.21,-253.73 130.53,-247.12 186.38,-245.49"/>
<polygon fill="black" stroke="black" points="186.17,-249 196.08,-245.26 186,-242 186.17,-249"/>
<polygon fill="none" stroke="black" points="11.86,-299.5 11.86,-317.5 199.86,-317.5 199.86,-299.5 11.86,-299.5"/>
<text text-anchor="start" x="60.85" y="-306.5" font-family="Courier New" font-weight="bold" font-size="10.00" fill="orange">WAIT(,SIG_INC1)</text>
<polygon fill="none" stroke="black" points="11.86,-282.5 11.86,-297.5 199.86,-297.5 199.86,-282.5 11.86,-282.5"/>
<text text-anchor="start" x="14.86" y="-287.3" font-family="Times,serif" font-size="8.00" fill="blue">REF_MACHINE(WIP1);MOV(BFRAME,R_WPARM);</text>
<polygon fill="none" stroke="black" points="8.86,-280 8.86,-321 202.86,-321 202.86,-280 8.86,-280"/>
</g>
<!-- 0&#45;&gt;10 -->
<g id="edge2" class="edge">
<title>0&#45;&gt;10</title>
<path fill="none" stroke="black" d="M224.86,-338.66C224.86,-321.22 224.86,-294.06 224.86,-273.46"/>
<polygon fill="black" stroke="black" points="228.36,-273.74 224.86,-263.74 221.36,-273.74 228.36,-273.74"/>
<polygon fill="none" stroke="black" points="227.86,-299.5 227.86,-317.5 415.86,-317.5 415.86,-299.5 227.86,-299.5"/>
<text text-anchor="start" x="276.85" y="-306.5" font-family="Courier New" font-weight="bold" font-size="10.00" fill="orange">WAIT(,SIG_DEC1)</text>
<polygon fill="none" stroke="black" points="227.86,-282.5 227.86,-297.5 415.86,-297.5 415.86,-282.5 227.86,-282.5"/>
<text text-anchor="start" x="230.86" y="-287.3" font-family="Times,serif" font-size="8.00" fill="blue">REF_MACHINE(WIP1);MOV(BFRAME,R_WPARM);</text>
<polygon fill="none" stroke="black" points="224.86,-280 224.86,-321 418.86,-321 418.86,-280 224.86,-280"/>
</g>
<!-- 11 -->
<g id="node3" class="node">
<title>11</title>
<ellipse fill="none" stroke="black" cx="264.86" cy="-131" rx="27" ry="18"/>
<text text-anchor="middle" x="264.86" y="-126.8" font-family="Times,serif" font-size="14.00">11</text>
</g>
<!-- 10&#45;&gt;11 -->
<g id="edge3" class="edge">
<title>10&#45;&gt;11</title>
<path fill="none" stroke="black" d="M230.93,-226.14C237.28,-208.54 247.33,-180.64 254.85,-159.77"/>
<polygon fill="black" stroke="black" points="258.11,-161.04 258.21,-150.44 251.53,-158.66 258.11,-161.04"/>
<polygon fill="none" stroke="black" points="255.36,-186.5 255.36,-204.5 396.36,-204.5 396.36,-186.5 255.36,-186.5"/>
<text text-anchor="start" x="271.85" y="-193.5" font-family="Courier New" font-weight="bold" font-size="10.00" fill="blue">MOV(WTEMP1,BFRAME)</text>
<polygon fill="none" stroke="black" points="255.36,-169.5 255.36,-184.5 396.36,-184.5 396.36,-169.5 255.36,-169.5"/>
<text text-anchor="start" x="258.36" y="-174.3" font-family="Times,serif" font-size="8.00" fill="blue"> MAPi(WTEMP1,S06_COMPONENTB);</text>
<polygon fill="none" stroke="black" points="251.86,-167 251.86,-208 398.86,-208 398.86,-167 251.86,-167"/>
</g>
<!-- 12 -->
<g id="node4" class="node">
<title>12</title>
<ellipse fill="none" stroke="black" cx="348.86" cy="-18" rx="27" ry="18"/>
<text text-anchor="middle" x="348.86" y="-13.8" font-family="Times,serif" font-size="14.00">12</text>
</g>
<!-- 11&#45;&gt;12 -->
<g id="edge4" class="edge">
<title>11&#45;&gt;12</title>
<path fill="none" stroke="black" d="M260.13,-113.03C256.59,-96.51 254.14,-71.41 265.86,-54 276.17,-38.68 294.64,-30.04 311.54,-25.19"/>
<polygon fill="black" stroke="black" points="311.99,-28.68 320.85,-22.87 310.3,-21.89 311.99,-28.68"/>
<polygon fill="none" stroke="black" points="268.86,-73.5 268.86,-91.5 416.86,-91.5 416.86,-73.5 268.86,-73.5"/>
<text text-anchor="start" x="288.85" y="-80.5" font-family="Courier New" font-weight="bold" font-size="10.00" fill="blue">MOV(WTEMP2,WTEMP1)</text>
<polygon fill="none" stroke="black" points="268.86,-56.5 268.86,-71.5 416.86,-71.5 416.86,-56.5 268.86,-56.5"/>
<text text-anchor="start" x="271.86" y="-61.3" font-family="Times,serif" font-size="8.00" fill="blue">MAPi(WTEMP2,S06_CHEMFILMSTRIP);</text>
<polygon fill="none" stroke="black" points="265.86,-54 265.86,-95 419.86,-95 419.86,-54 265.86,-54"/>
</g>
<!-- 12&#45;&gt;0 -->
<g id="edge5" class="edge">
<title>12&#45;&gt;0</title>
<path fill="none" stroke="black" d="M374.53,-24.4C390.57,-29.24 409.99,-38.13 419.86,-54 482.53,-154.77 496,-229.98 419.86,-321 400.3,-344.37 314.39,-352.16 263.36,-354.74"/>
<polygon fill="black" stroke="black" points="263.45,-351.23 253.62,-355.18 263.77,-358.22 263.45,-351.23"/>
<polygon fill="none" stroke="black" points="474.86,-186.5 474.86,-204.5 588.86,-204.5 588.86,-186.5 474.86,-186.5"/>
<text text-anchor="start" x="477.86" y="-193.5" font-family="Courier New" font-weight="bold" font-size="10.00" fill="blue">MOV(BFRAME,WTEMP2)</text>
<polygon fill="none" stroke="black" points="474.86,-169.5 474.86,-184.5 588.86,-184.5 588.86,-169.5 474.86,-169.5"/>
<text text-anchor="start" x="491.08" y="-174.3" font-family="Times,serif" font-size="8.00" fill="blue">SHOW(0,IDS_CHEMS);</text>
<polygon fill="none" stroke="black" points="471.86,-167 471.86,-208 591.86,-208 591.86,-167 471.86,-167"/>
</g>
</g>
</svg>
