<?xml version="1.0" encoding="UTF-8" standalone="no"?>
<!DOCTYPE svg PUBLIC "-//W3C//DTD SVG 1.1//EN"
 "http://www.w3.org/Graphics/SVG/1.1/DTD/svg11.dtd">
<!-- Generated by graphviz version 7.1.0 (20230121.1956)
 -->
<!-- Pages: 1 -->
<svg width="404pt" height="341pt"
 viewBox="0.00 0.00 404.00 341.00" xmlns="http://www.w3.org/2000/svg" xmlns:xlink="http://www.w3.org/1999/xlink">
<g id="graph0" class="graph" transform="scale(1 1) rotate(0) translate(4 337)">
<polygon fill="white" stroke="none" points="-4,4 -4,-337 400,-337 400,4 -4,4"/>
<!-- 0 -->
<g id="node1" class="node">
<title>0</title>
<ellipse fill="none" stroke="black" cx="120" cy="-315" rx="27" ry="18"/>
<text text-anchor="middle" x="120" y="-310.8" font-family="Times,serif" font-size="14.00">0</text>
</g>
<!-- 5 -->
<g id="node2" class="node">
<title>5</title>
<ellipse fill="none" stroke="black" cx="37" cy="-223" rx="27" ry="18"/>
<text text-anchor="middle" x="37" y="-218.8" font-family="Times,serif" font-size="14.00">5</text>
</g>
<!-- 0&#45;&gt;5 -->
<g id="edge1" class="edge">
<title>0&#45;&gt;5</title>
<path fill="none" stroke="black" d="M106.29,-299.14C93.2,-284.94 73.27,-263.33 58.14,-246.92"/>
<polygon fill="black" stroke="black" points="61.1,-244.97 51.75,-240 55.96,-249.72 61.1,-244.97"/>
<text text-anchor="start" x="90" y="-267" font-family="Courier New" font-weight="bold" font-size="10.00" fill="orange">WAIT(,SIG_EJECT)</text>
</g>
<!-- 7 -->
<g id="node3" class="node">
<title>7</title>
<ellipse fill="none" stroke="black" cx="27" cy="-110" rx="27" ry="18"/>
<text text-anchor="middle" x="27" y="-105.8" font-family="Times,serif" font-size="14.00">7</text>
</g>
<!-- 5&#45;&gt;7 -->
<g id="edge2" class="edge">
<title>5&#45;&gt;7</title>
<path fill="none" stroke="black" d="M24.66,-206.53C20.78,-200.75 16.99,-193.9 15,-187 9.95,-169.49 12,-163.97 15,-146 15.4,-143.62 15.93,-141.19 16.56,-138.77"/>
<polygon fill="black" stroke="black" points="19.9,-139.83 19.53,-129.24 13.22,-137.75 19.9,-139.83"/>
<polygon fill="none" stroke="black" points="18.5,-165.5 18.5,-183.5 201.5,-183.5 201.5,-165.5 18.5,-165.5"/>
<text text-anchor="start" x="52.99" y="-172.5" font-family="Courier New" font-weight="bold" font-size="10.00" fill="blue">SHOW(0,IDS_CARDANI)</text>
<polygon fill="none" stroke="black" points="18.5,-148.5 18.5,-163.5 201.5,-163.5 201.5,-148.5 18.5,-148.5"/>
<text text-anchor="start" x="21.5" y="-153.3" font-family="Times,serif" font-size="8.00" fill="blue">ANIMATE(0);PLAYWAVE(SOUND_CARDEJECT);</text>
<polygon fill="none" stroke="black" points="15,-146 15,-187 204,-187 204,-146 15,-146"/>
</g>
<!-- 20 -->
<g id="node4" class="node">
<title>20</title>
<ellipse fill="none" stroke="black" cx="132" cy="-18" rx="27" ry="18"/>
<text text-anchor="middle" x="132" y="-13.8" font-family="Times,serif" font-size="14.00">20</text>
</g>
<!-- 7&#45;&gt;20 -->
<g id="edge3" class="edge">
<title>7&#45;&gt;20</title>
<path fill="none" stroke="black" d="M35.88,-92.52C42.88,-80.69 53.51,-64.97 66,-54 75.6,-45.57 87.58,-38.44 98.7,-32.87"/>
<polygon fill="black" stroke="black" points="100.07,-36.09 107.61,-28.65 97.07,-29.76 100.07,-36.09"/>
<text text-anchor="start" x="70" y="-62" font-family="Courier New" font-weight="bold" font-size="10.00" fill="blue">MOV(WOBJECT,IDD_CARD01)</text>
</g>
<!-- 20&#45;&gt;0 -->
<g id="edge4" class="edge">
<title>20&#45;&gt;0</title>
<path fill="none" stroke="black" d="M158.45,-22.92C176.89,-27.19 200.22,-35.98 212,-54 216.87,-61.44 212.31,-65.12 212,-74 211.76,-80.86 201.49,-268.48 194,-279 185.09,-291.52 170.51,-299.7 156.64,-304.98"/>
<polygon fill="black" stroke="black" points="155.59,-301.64 147.22,-308.14 157.81,-308.28 155.59,-301.64"/>
<polygon fill="none" stroke="black" points="210.5,-165.5 210.5,-183.5 393.5,-183.5 393.5,-165.5 210.5,-165.5"/>
<text text-anchor="start" x="275" y="-172.5" font-family="Courier New" font-weight="bold" font-size="10.00" fill="orange">GRAB(0,0)</text>
<polygon fill="none" stroke="black" points="210.5,-148.5 210.5,-163.5 393.5,-163.5 393.5,-148.5 210.5,-148.5"/>
<text text-anchor="start" x="213.5" y="-153.3" font-family="Times,serif" font-size="8.00" fill="blue">CLEAR(WOBJECT); CLEAR(WSPRITE); SHOW(0);</text>
<polygon fill="none" stroke="black" points="207,-146 207,-187 396,-187 396,-146 207,-146"/>
</g>
</g>
</svg>
