<?xml version="1.0" encoding="UTF-8" standalone="no"?>
<!DOCTYPE svg PUBLIC "-//W3C//DTD SVG 1.1//EN"
 "http://www.w3.org/Graphics/SVG/1.1/DTD/svg11.dtd">
<!-- Generated by graphviz version 7.1.0 (20230121.1956)
 -->
<!-- Title: Automaton Pages: 1 -->
<svg width="576pt" height="88pt"
 viewBox="0.00 0.00 576.00 88.00" xmlns="http://www.w3.org/2000/svg" xmlns:xlink="http://www.w3.org/1999/xlink">
<g id="graph0" class="graph" transform="scale(1 1) rotate(0) translate(4 84)">
<title>Automaton</title>
<polygon fill="white" stroke="none" points="-4,4 -4,-84 572,-84 572,4 -4,4"/>
<!-- filename -->
<g id="node1" class="node">
<title>filename</title>
<polygon fill="none" stroke="black" points="0,-14 0,-66 148,-66 148,-14 0,-14"/>
<polygon fill="none" stroke="black" points="11,-41 11,-59 137,-59 137,-41 11,-41"/>
<text text-anchor="start" x="14" y="-48" font-family="Courier New" font-weight="bold" font-size="10.00">M06_CYCLE_TEMPL_ANIM</text>
<polygon fill="none" stroke="black" points="11,-21 11,-39 137,-39 137,-21 11,-21"/>
<text text-anchor="start" x="28.99" y="-27" font-family="Courier New" font-size="10.00" fill="brown">start state = 0</text>
<polygon fill="none" stroke="black" points="8,-18 8,-62 140,-62 140,-18 8,-18"/>
</g>
<!-- 0 -->
<g id="node2" class="node">
<title>0</title>
<polyline fill="none" stroke="darkred" points="186,-29 200,-29"/>
<text text-anchor="start" x="189" y="-36.4" font-family="Courier New" font-weight="bold" font-size="14.00">0</text>
<path fill="none" stroke="darkred" d="M189.67,-26C189.67,-26 196.33,-26 196.33,-26 199.67,-26 203,-29.33 203,-32.67 203,-32.67 203,-47.33 203,-47.33 203,-50.67 199.67,-54 196.33,-54 196.33,-54 189.67,-54 189.67,-54 186.33,-54 183,-50.67 183,-47.33 183,-47.33 183,-32.67 183,-32.67 183,-29.33 186.33,-26 189.67,-26"/>
</g>
<!-- 0&#45;&gt;0 -->
<g id="edge1" class="edge">
<title>0&#45;&gt;0</title>
<path fill="none" stroke="black" d="M219.79,-43.37C229.78,-43.48 238,-42.36 238,-40 238,-38.64 235.25,-37.69 231.01,-37.15"/>
<polygon fill="black" stroke="black" points="231.46,-33.67 221.31,-36.7 231.13,-40.66 231.46,-33.67"/>
<polygon fill="none" stroke="black" points="241,-59 241,-77 391,-77 391,-59 241,-59"/>
<text text-anchor="start" x="270.99" y="-66" font-family="Courier New" font-weight="bold" font-size="10.00" fill="orange">WAIT(,SIG_INC1)</text>
<polygon fill="none" stroke="black" points="241,-3 241,-57 391,-57 391,-3 241,-3"/>
<text text-anchor="start" x="244" y="-45" font-family="Courier New" font-size="10.00" fill="blue">SHOW(0,IDS_MACHANI);</text>
<text text-anchor="start" x="244" y="-33" font-family="Courier New" font-size="10.00" fill="blue">ANIMATE();</text>
<text text-anchor="start" x="244" y="-21" font-family="Courier New" font-size="10.00" fill="blue">PLAYWAVE(SOUND_RATCHET);</text>
<text text-anchor="start" x="244" y="-9" font-family="Courier New" font-size="10.00" fill="blue">SIGNAL(WIP1,SIG_INC1);</text>
<polygon fill="none" stroke="black" points="238,0 238,-80 394,-80 394,0 238,0"/>
</g>
<!-- 0&#45;&gt;0 -->
<g id="edge2" class="edge">
<title>0&#45;&gt;0</title>
<path fill="none" stroke="black" d="M219.75,-44.15C275.74,-48.68 394,-47.29 394,-40 394,-33.16 290.06,-31.52 230.94,-35.07"/>
<polygon fill="black" stroke="black" points="230.99,-31.56 221.26,-35.75 231.48,-38.54 230.99,-31.56"/>
<polygon fill="none" stroke="black" points="397,-59 397,-77 547,-77 547,-59 397,-59"/>
<text text-anchor="start" x="426.99" y="-66" font-family="Courier New" font-weight="bold" font-size="10.00" fill="orange">WAIT(,SIG_DEC1)</text>
<polygon fill="none" stroke="black" points="397,-3 397,-57 547,-57 547,-3 397,-3"/>
<text text-anchor="start" x="400" y="-45" font-family="Courier New" font-size="10.00" fill="blue">SHOW(0,IDS_MACHANI);</text>
<text text-anchor="start" x="400" y="-33" font-family="Courier New" font-size="10.00" fill="blue">ANIMATE(0,V_REVERSE);</text>
<text text-anchor="start" x="400" y="-21" font-family="Courier New" font-size="10.00" fill="blue">PLAYWAVE(SOUND_RATCHET);</text>
<text text-anchor="start" x="400" y="-9" font-family="Courier New" font-size="10.00" fill="blue">SIGNAL(WIP1,SIG_DEC1);</text>
<polygon fill="none" stroke="black" points="394,0 394,-80 550,-80 550,0 394,0"/>
</g>
</g>
</svg>
