<?xml version="1.0" encoding="UTF-8" standalone="no"?>
<!DOCTYPE svg PUBLIC "-//W3C//DTD SVG 1.1//EN"
 "http://www.w3.org/Graphics/SVG/1.1/DTD/svg11.dtd">
<!-- Generated by graphviz version 7.1.0 (20230121.1956)
 -->
<!-- Pages: 1 -->
<svg width="2164pt" height="510pt"
 viewBox="0.00 0.00 2163.81 510.00" xmlns="http://www.w3.org/2000/svg" xmlns:xlink="http://www.w3.org/1999/xlink">
<g id="graph0" class="graph" transform="scale(1 1) rotate(0) translate(4 506)">
<polygon fill="white" stroke="none" points="-4,4 -4,-506 2159.81,-506 2159.81,4 -4,4"/>
<!-- 0 -->
<g id="node1" class="node">
<title>0</title>
<ellipse fill="none" stroke="black" cx="908.81" cy="-484" rx="27" ry="18"/>
<text text-anchor="middle" x="908.81" y="-479.8" font-family="Times,serif" font-size="14.00">0</text>
</g>
<!-- 1 -->
<g id="node2" class="node">
<title>1</title>
<ellipse fill="none" stroke="black" cx="908.81" cy="-390" rx="27" ry="18"/>
<text text-anchor="middle" x="908.81" y="-385.8" font-family="Times,serif" font-size="14.00">1</text>
</g>
<!-- 0&#45;&gt;1 -->
<g id="edge1" class="edge">
<title>0&#45;&gt;1</title>
<path fill="none" stroke="black" d="M908.81,-465.7C908.81,-452.72 908.81,-434.66 908.81,-419.56"/>
<polygon fill="black" stroke="black" points="912.31,-419.74 908.81,-409.74 905.31,-419.74 912.31,-419.74"/>
<text text-anchor="start" x="912.81" y="-434.2" font-family="Courier New" font-weight="bold" font-size="12.00" fill="blue">ASSIGN(WPARM0)</text>
</g>
<!-- 2 -->
<g id="node3" class="node">
<title>2</title>
<ellipse fill="none" stroke="black" cx="908.81" cy="-270" rx="27" ry="18"/>
<text text-anchor="middle" x="908.81" y="-265.8" font-family="Times,serif" font-size="14.00">2</text>
</g>
<!-- 1&#45;&gt;2 -->
<g id="edge2" class="edge">
<title>1&#45;&gt;2</title>
<path fill="none" stroke="black" d="M908.81,-371.59C908.81,-352.68 908.81,-322.17 908.81,-299.7"/>
<polygon fill="black" stroke="black" points="912.31,-300 908.81,-290 905.31,-300 912.31,-300"/>
<polygon fill="none" stroke="black" points="911.81,-331 911.81,-351 1663.81,-351 1663.81,-331 911.81,-331"/>
<text text-anchor="start" x="1226.6" y="-338.2" font-family="Courier New" font-weight="bold" font-size="12.00" fill="blue">MOV(WOBJECTWPARM)</text>
<polygon fill="none" stroke="black" points="911.81,-309 911.81,-329 1663.81,-329 1663.81,-309 911.81,-309"/>
<text text-anchor="start" x="914.81" y="-315.2" font-family="Times,serif" font-size="12.00" fill="blue">MAPi(WOBJECT,S06_MAN_OBJECTS);ASHOW(WOBJECT); SIGNAL(WIP1,SIG_DEC1);SIGNAL(WIP2,SIG_DEC1);SIGNAL(WIP3,SIG_DEC1);</text>
<polygon fill="none" stroke="black" points="908.81,-306 908.81,-354 1666.81,-354 1666.81,-306 908.81,-306"/>
</g>
<!-- 10 -->
<g id="node4" class="node">
<title>10</title>
<ellipse fill="none" stroke="black" cx="492.81" cy="-144" rx="27" ry="18"/>
<text text-anchor="middle" x="492.81" y="-139.8" font-family="Times,serif" font-size="14.00">10</text>
</g>
<!-- 2&#45;&gt;10 -->
<g id="edge6" class="edge">
<title>2&#45;&gt;10</title>
<path fill="none" stroke="black" d="M881.43,-268.81C792.56,-267.91 516.31,-262.81 489.81,-234 475,-217.91 477.47,-192.43 482.65,-172.85"/>
<polygon fill="black" stroke="black" points="485.99,-173.87 485.55,-163.28 479.3,-171.83 485.99,-173.87"/>
<polygon fill="none" stroke="black" points="492.81,-211 492.81,-231 598.81,-231 598.81,-211 492.81,-211"/>
<text text-anchor="start" x="495.81" y="-218.2" font-family="Courier New" font-weight="bold" font-size="12.00" fill="orange">WAIT(SIG_INC1)</text>
<polygon fill="none" stroke="black" points="492.81,-189 492.81,-209 598.81,-209 598.81,-189 492.81,-189"/>
<text text-anchor="start" x="496.48" y="-195.2" font-family="Times,serif" font-size="12.00" fill="blue"> ADDI(WPARM,1);</text>
<polygon fill="none" stroke="black" points="489.81,-186 489.81,-234 601.81,-234 601.81,-186 489.81,-186"/>
</g>
<!-- 20 -->
<g id="node6" class="node">
<title>20</title>
<ellipse fill="none" stroke="black" cx="1024.81" cy="-144" rx="27" ry="18"/>
<text text-anchor="middle" x="1024.81" y="-139.8" font-family="Times,serif" font-size="14.00">20</text>
</g>
<!-- 2&#45;&gt;20 -->
<g id="edge7" class="edge">
<title>2&#45;&gt;20</title>
<path fill="none" stroke="black" d="M907.8,-251.81C907.68,-233.26 910.41,-203.98 926.81,-186 944.7,-166.37 959.43,-178.55 983.81,-168 987.71,-166.31 991.71,-164.36 995.63,-162.32"/>
<polygon fill="black" stroke="black" points="997.21,-165.44 1004.29,-157.57 993.84,-159.31 997.21,-165.44"/>
<polygon fill="none" stroke="black" points="929.81,-211 929.81,-231 1035.81,-231 1035.81,-211 929.81,-211"/>
<text text-anchor="start" x="932.81" y="-218.2" font-family="Courier New" font-weight="bold" font-size="12.00" fill="orange">WAIT(SIG_DEC1)</text>
<polygon fill="none" stroke="black" points="929.81,-189 929.81,-209 1035.81,-209 1035.81,-189 929.81,-189"/>
<text text-anchor="start" x="934.8" y="-195.2" font-family="Times,serif" font-size="12.00" fill="blue"> SUBI(WPARM,1);</text>
<polygon fill="none" stroke="black" points="926.81,-186 926.81,-234 1038.81,-234 1038.81,-186 926.81,-186"/>
</g>
<!-- 30 -->
<g id="node7" class="node">
<title>30</title>
<ellipse fill="none" stroke="black" cx="1579.81" cy="-144" rx="27" ry="18"/>
<text text-anchor="middle" x="1579.81" y="-139.8" font-family="Times,serif" font-size="14.00">30</text>
</g>
<!-- 2&#45;&gt;30 -->
<g id="edge8" class="edge">
<title>2&#45;&gt;30</title>
<path fill="none" stroke="black" d="M935.52,-266.2C983.31,-261.04 1086.51,-249.13 1172.81,-234 1310.81,-209.81 1473.01,-171.27 1543.76,-153.94"/>
<polygon fill="black" stroke="black" points="1544.36,-157.4 1553.24,-151.62 1542.69,-150.6 1544.36,-157.4"/>
<polygon fill="none" stroke="black" points="1408.31,-211 1408.31,-231 1537.31,-231 1537.31,-211 1408.31,-211"/>
<text text-anchor="start" x="1422.4" y="-218.2" font-family="Courier New" font-weight="bold" font-size="12.00" fill="orange">WAIT(SIG_SHOW)</text>
<polygon fill="none" stroke="black" points="1408.31,-189 1408.31,-209 1537.31,-209 1537.31,-189 1408.31,-189"/>
<text text-anchor="start" x="1411.31" y="-195.2" font-family="Times,serif" font-size="12.00" fill="blue">REF_MACHINE(WIP4);</text>
<polygon fill="none" stroke="black" points="1404.81,-186 1404.81,-234 1539.81,-234 1539.81,-186 1404.81,-186"/>
</g>
<!-- 10&#45;&gt;2 -->
<g id="edge3" class="edge">
<title>10&#45;&gt;2</title>
<path fill="none" stroke="black" d="M519.06,-148.69C544.05,-153.43 581.37,-163.86 605.81,-186 623.34,-201.88 609.61,-220.18 628.81,-234 666.59,-261.21 802.64,-267.31 870.19,-268.65"/>
<polygon fill="black" stroke="black" points="870.01,-272.14 880.07,-268.81 870.13,-265.14 870.01,-272.14"/>
<polygon fill="none" stroke="black" points="632.31,-211 632.31,-231 753.31,-231 753.31,-211 632.31,-211"/>
<text text-anchor="start" x="646" y="-218.2" font-family="Courier New" font-weight="bold" font-size="12.00" fill="blue">GTEi(WPARM24)</text>
<polygon fill="none" stroke="black" points="632.31,-189 632.31,-209 753.31,-209 753.31,-189 632.31,-189"/>
<text text-anchor="start" x="635.31" y="-195.2" font-family="Times,serif" font-size="12.00" fill="blue">ASSIGN(WPARM,24);</text>
<polygon fill="none" stroke="black" points="628.81,-186 628.81,-234 755.81,-234 755.81,-186 628.81,-186"/>
</g>
<!-- 11 -->
<g id="node5" class="node">
<title>11</title>
<ellipse fill="none" stroke="black" cx="389.81" cy="-18" rx="27" ry="18"/>
<text text-anchor="middle" x="389.81" y="-13.8" font-family="Times,serif" font-size="14.00">11</text>
</g>
<!-- 10&#45;&gt;11 -->
<g id="edge4" class="edge">
<title>10&#45;&gt;11</title>
<path fill="none" stroke="black" d="M465.48,-142.78C368.02,-141.71 41.7,-135.63 10.81,-102 -3.63,-86.29 -3.57,-69.76 10.81,-54 33.44,-29.18 259.23,-21.71 351.16,-19.68"/>
<polygon fill="black" stroke="black" points="351.01,-23.19 360.94,-19.48 350.87,-16.19 351.01,-23.19"/>
<polygon fill="none" stroke="black" points="14.31,-79 14.31,-99 753.31,-99 753.31,-79 14.31,-79"/>
<text text-anchor="start" x="322.6" y="-86.2" font-family="Courier New" font-weight="bold" font-size="12.00" fill="blue">MOV(WOBJECTWPARM)</text>
<polygon fill="none" stroke="black" points="14.31,-57 14.31,-77 753.31,-77 753.31,-57 14.31,-57"/>
<text text-anchor="start" x="17.31" y="-63.2" font-family="Times,serif" font-size="12.00" fill="blue">MAPi(WOBJECT,S06_MAN_OBJECTS);ASHOW(WOBJECT);SIGNAL(WIP1,SIG_INC1);SIGNAL(WIP2,SIG_INC1);SIGNAL(WIP3,SIG_INC1);</text>
<polygon fill="none" stroke="black" points="10.81,-54 10.81,-102 755.81,-102 755.81,-54 10.81,-54"/>
</g>
<!-- 11&#45;&gt;2 -->
<g id="edge5" class="edge">
<title>11&#45;&gt;2</title>
<path fill="none" stroke="black" d="M416.91,-20.07C496.91,-23.43 728.14,-34.73 755.81,-54 801.97,-86.15 778.58,-121.89 810.81,-168 832.11,-198.49 862.74,-228.44 884.06,-247.7"/>
<polygon fill="black" stroke="black" points="881.65,-250.24 891.45,-254.27 886.3,-245.01 881.65,-250.24"/>
<text text-anchor="start" x="815.31" y="-141.2" font-family="Courier New" font-weight="bold" font-size="12.00" fill="blue">Z_EPSILON()</text>
</g>
<!-- 20&#45;&gt;2 -->
<g id="edge9" class="edge">
<title>20&#45;&gt;2</title>
<path fill="none" stroke="black" d="M1033.96,-161.24C1043.5,-180.57 1054.98,-212.89 1038.81,-234 1027.57,-248.67 980.61,-258.57 946.35,-264"/>
<polygon fill="black" stroke="black" points="946.15,-260.49 936.79,-265.44 947.2,-267.41 946.15,-260.49"/>
<polygon fill="none" stroke="black" points="1051.31,-211 1051.31,-231 1166.31,-231 1166.31,-211 1051.31,-211"/>
<text text-anchor="start" x="1069.2" y="-218.2" font-family="Courier New" font-weight="bold" font-size="12.00" fill="blue">LTi(WPARM0)</text>
<polygon fill="none" stroke="black" points="1051.31,-189 1051.31,-209 1166.31,-209 1166.31,-189 1051.31,-189"/>
<text text-anchor="start" x="1054.31" y="-195.2" font-family="Times,serif" font-size="12.00" fill="blue">ASSIGN(WPARM,0);</text>
<polygon fill="none" stroke="black" points="1047.81,-186 1047.81,-234 1168.81,-234 1168.81,-186 1047.81,-186"/>
</g>
<!-- 21 -->
<g id="node8" class="node">
<title>21</title>
<ellipse fill="none" stroke="black" cx="909.81" cy="-18" rx="27" ry="18"/>
<text text-anchor="middle" x="909.81" y="-13.8" font-family="Times,serif" font-size="14.00">21</text>
</g>
<!-- 20&#45;&gt;21 -->
<g id="edge10" class="edge">
<title>20&#45;&gt;21</title>
<path fill="none" stroke="black" d="M1005.62,-131.16C998.87,-127.29 991.15,-123.18 983.81,-120 959.43,-109.45 944.59,-121.74 926.81,-102 913.6,-87.35 909.57,-65.28 908.72,-47.58"/>
<polygon fill="black" stroke="black" points="912.22,-47.64 908.58,-37.69 905.22,-47.73 912.22,-47.64"/>
<polygon fill="none" stroke="black" points="929.81,-79 929.81,-99 1681.81,-99 1681.81,-79 929.81,-79"/>
<text text-anchor="start" x="1244.6" y="-86.2" font-family="Courier New" font-weight="bold" font-size="12.00" fill="blue">MOV(WOBJECTWPARM)</text>
<polygon fill="none" stroke="black" points="929.81,-57 929.81,-77 1681.81,-77 1681.81,-57 929.81,-57"/>
<text text-anchor="start" x="932.81" y="-63.2" font-family="Times,serif" font-size="12.00" fill="blue">MAPi(WOBJECT,S06_MAN_OBJECTS);ASHOW(WOBJECT); SIGNAL(WIP1,SIG_DEC1);SIGNAL(WIP2,SIG_DEC1);SIGNAL(WIP3,SIG_DEC1);</text>
<polygon fill="none" stroke="black" points="926.81,-54 926.81,-102 1684.81,-102 1684.81,-54 926.81,-54"/>
</g>
<!-- 31 -->
<g id="node9" class="node">
<title>31</title>
<ellipse fill="none" stroke="black" cx="1778.81" cy="-18" rx="27" ry="18"/>
<text text-anchor="middle" x="1778.81" y="-13.8" font-family="Times,serif" font-size="14.00">31</text>
</g>
<!-- 30&#45;&gt;31 -->
<g id="edge12" class="edge">
<title>30&#45;&gt;31</title>
<path fill="none" stroke="black" d="M1606.01,-138.42C1629.21,-133.17 1662.72,-122.5 1684.81,-102 1702.15,-85.91 1691.17,-70.82 1707.81,-54 1717.92,-43.77 1731.64,-36.05 1744.32,-30.51"/>
<polygon fill="black" stroke="black" points="1745.25,-33.9 1753.22,-26.92 1742.64,-27.41 1745.25,-33.9"/>
<text text-anchor="start" x="1711.81" y="-75.2" font-family="Courier New" font-weight="bold" font-size="12.00" fill="blue">MOV(WPARMR_WPARM)</text>
</g>
<!-- 21&#45;&gt;2 -->
<g id="edge11" class="edge">
<title>21&#45;&gt;2</title>
<path fill="none" stroke="black" d="M908.28,-36.44C907.79,-42.05 907.27,-48.29 906.81,-54 902.72,-104.55 900.05,-117.31 901.81,-168 902.66,-192.55 904.66,-220.41 906.31,-240.63"/>
<polygon fill="black" stroke="black" points="902.8,-240.68 907.13,-250.35 909.78,-240.1 902.8,-240.68"/>
<text text-anchor="start" x="906.31" y="-141.2" font-family="Courier New" font-weight="bold" font-size="12.00" fill="blue">Z_EPSILON()</text>
</g>
<!-- 31&#45;&gt;2 -->
<g id="edge13" class="edge">
<title>31&#45;&gt;2</title>
<path fill="none" stroke="black" d="M1802.95,-26.69C1815.74,-32.14 1830.32,-40.86 1837.81,-54 1848.36,-72.54 1849.4,-84.09 1837.81,-102 1759.98,-222.25 1682.98,-200.16 1543.81,-234 1429.71,-261.74 1066.87,-267.55 947.38,-268.72"/>
<polygon fill="black" stroke="black" points="947.43,-265.22 937.46,-268.81 947.49,-272.21 947.43,-265.22"/>
<polygon fill="none" stroke="black" points="1828.31,-145 1828.31,-165 2153.31,-165 2153.31,-145 1828.31,-145"/>
<text text-anchor="start" x="1922.39" y="-152.2" font-family="Courier New" font-weight="bold" font-size="12.00" fill="blue">MOV(WOBJECTR_WPARM)</text>
<polygon fill="none" stroke="black" points="1828.31,-123 1828.31,-143 2153.31,-143 2153.31,-123 1828.31,-123"/>
<text text-anchor="start" x="1831.31" y="-129.2" font-family="Times,serif" font-size="12.00" fill="blue">MAPi(WOBJECT,S06_MAN_OBJECTS);ASHOW(WOBJECT);</text>
<polygon fill="none" stroke="black" points="1824.81,-120 1824.81,-168 2155.81,-168 2155.81,-120 1824.81,-120"/>
</g>
</g>
</svg>
