<?xml version="1.0" encoding="UTF-8" standalone="no"?>
<!DOCTYPE svg PUBLIC "-//W3C//DTD SVG 1.1//EN"
 "http://www.w3.org/Graphics/SVG/1.1/DTD/svg11.dtd">
<!-- Generated by graphviz version 7.1.0 (20230121.1956)
 -->
<!-- Title: Automaton Pages: 1 -->
<svg width="576pt" height="225pt"
 viewBox="0.00 0.00 575.97 225.00" xmlns="http://www.w3.org/2000/svg" xmlns:xlink="http://www.w3.org/1999/xlink">
<g id="graph0" class="graph" transform="scale(1 1) rotate(0) translate(4 221)">
<title>Automaton</title>
<polygon fill="white" stroke="none" points="-4,4 -4,-221 571.97,-221 571.97,4 -4,4"/>
<!-- filename -->
<g id="node1" class="node">
<title>filename</title>
<polygon fill="none" stroke="black" points="36.97,-164.5 36.97,-216.5 154.97,-216.5 154.97,-164.5 36.97,-164.5"/>
<polygon fill="none" stroke="black" points="47.97,-191.5 47.97,-209.5 143.97,-209.5 143.97,-191.5 47.97,-191.5"/>
<text text-anchor="start" x="50.97" y="-198.5" font-family="Courier New" font-weight="bold" font-size="10.00">M06_CYCLE_COMP2</text>
<polygon fill="none" stroke="black" points="47.97,-171.5 47.97,-189.5 143.97,-189.5 143.97,-171.5 47.97,-171.5"/>
<text text-anchor="start" x="50.97" y="-177.5" font-family="Courier New" font-size="10.00" fill="brown">start state = 0</text>
<polygon fill="none" stroke="black" points="44.97,-168.5 44.97,-212.5 146.97,-212.5 146.97,-168.5 44.97,-168.5"/>
</g>
<!-- 0 -->
<g id="node2" class="node">
<title>0</title>
<polyline fill="none" stroke="darkred" points="192.97,-179.5 206.97,-179.5"/>
<text text-anchor="start" x="195.97" y="-186.9" font-family="Courier New" font-weight="bold" font-size="14.00">0</text>
<path fill="none" stroke="darkred" d="M196.63,-176.5C196.63,-176.5 203.3,-176.5 203.3,-176.5 206.63,-176.5 209.97,-179.83 209.97,-183.17 209.97,-183.17 209.97,-197.83 209.97,-197.83 209.97,-201.17 206.63,-204.5 203.3,-204.5 203.3,-204.5 196.63,-204.5 196.63,-204.5 193.3,-204.5 189.97,-201.17 189.97,-197.83 189.97,-197.83 189.97,-183.17 189.97,-183.17 189.97,-179.83 193.3,-176.5 196.63,-176.5"/>
</g>
<!-- 10 -->
<g id="node3" class="node">
<title>10</title>
<polyline fill="none" stroke="darkred" points="188.97,-7 210.97,-7"/>
<text text-anchor="start" x="191.97" y="-14.4" font-family="Courier New" font-weight="bold" font-size="14.00">10</text>
<path fill="none" stroke="darkred" d="M195.3,-4C195.3,-4 204.63,-4 204.63,-4 209.3,-4 213.97,-8.67 213.97,-13.33 213.97,-13.33 213.97,-22.67 213.97,-22.67 213.97,-27.33 209.3,-32 204.63,-32 204.63,-32 195.3,-32 195.3,-32 190.63,-32 185.97,-27.33 185.97,-22.67 185.97,-22.67 185.97,-13.33 185.97,-13.33 185.97,-8.67 190.63,-4 195.3,-4"/>
</g>
<!-- 0&#45;&gt;10 -->
<g id="edge1" class="edge">
<title>0&#45;&gt;10</title>
<path fill="none" stroke="black" d="M179.65,-172.53C174.77,-169.21 169.39,-166.11 163.97,-164 133.9,-152.33 41.31,-170.18 19.97,-146 -7.09,-115.35 -6.04,-85.55 19.97,-54 37.56,-32.66 114.21,-24.16 161.63,-20.91"/>
<polygon fill="black" stroke="black" points="161.73,-24.41 171.49,-20.28 161.29,-17.42 161.73,-24.41"/>
<text text-anchor="start" x="23.97" y="-98" font-family="Courier New" font-weight="bold" font-size="10.00" fill="orange">WAIT(,SIG_INC1)</text>
</g>
<!-- 0&#45;&gt;10 -->
<g id="edge2" class="edge">
<title>0&#45;&gt;10</title>
<path fill="none" stroke="black" d="M175.89,-172.5C160.03,-161.18 141.98,-148.02 140.97,-146 122.53,-109.5 120.73,-89.53 140.97,-54 146.02,-45.13 154.31,-38.27 163.09,-33.08"/>
<polygon fill="black" stroke="black" points="164.47,-36.31 171.74,-28.6 161.25,-30.09 164.47,-36.31"/>
<text text-anchor="start" x="144.97" y="-98" font-family="Courier New" font-weight="bold" font-size="10.00" fill="orange">WAIT(,SIG_DEC1)</text>
</g>
<!-- 0&#45;&gt;10 -->
<g id="edge3" class="edge">
<title>0&#45;&gt;10</title>
<path fill="none" stroke="black" d="M220.49,-172.54C227.78,-165.23 235.12,-156.04 238.97,-146 253.58,-107.81 255.63,-91.34 238.97,-54 237.36,-50.4 235.18,-47.02 232.67,-43.88"/>
<polygon fill="black" stroke="black" points="235.38,-41.65 225.95,-36.81 230.3,-46.47 235.38,-41.65"/>
<text text-anchor="start" x="253.97" y="-98" font-family="Courier New" font-weight="bold" font-size="10.00" fill="orange">WAIT(,SIG_SHOW)</text>
</g>
<!-- 10&#45;&gt;0 -->
<g id="edge4" class="edge">
<title>10&#45;&gt;0</title>
<path fill="none" stroke="black" d="M226.88,-21.25C266.27,-25.16 336.62,-34.72 351.97,-54 377.43,-85.99 376.58,-113.35 351.97,-146 338.28,-164.15 278.66,-177.03 238.29,-183.85"/>
<polygon fill="black" stroke="black" points="237.76,-180.39 228.45,-185.45 238.88,-187.3 237.76,-180.39"/>
<polygon fill="none" stroke="black" points="372.97,-125 372.97,-143 564.97,-143 564.97,-125 372.97,-125"/>
<text text-anchor="start" x="432.96" y="-132" font-family="Courier New" font-weight="bold" font-size="10.00" fill="blue">Z_EPSILON(,)</text>
<polygon fill="none" stroke="black" points="372.97,-57 372.97,-123 564.97,-123 564.97,-57 372.97,-57"/>
<text text-anchor="start" x="375.97" y="-111" font-family="Courier New" font-size="10.00" fill="blue">REF_MACHINE(WIP1);</text>
<text text-anchor="start" x="375.97" y="-99" font-family="Courier New" font-size="10.00" fill="blue">BFRAME = R_WPARM;</text>
<text text-anchor="start" x="375.97" y="-87" font-family="Courier New" font-size="10.00" fill="blue">MAPi(BFRAME,S06_COMPONENTB);</text>
<text text-anchor="start" x="375.97" y="-75" font-family="Courier New" font-size="10.00" fill="blue">MAPi(BFRAME,S06_CHEMFILMSTRIP);</text>
<text text-anchor="start" x="375.97" y="-63" font-family="Courier New" font-size="10.00" fill="blue">SHOW(0,IDS_CHEMS);</text>
<polygon fill="none" stroke="black" points="369.97,-54 369.97,-146 567.97,-146 567.97,-54 369.97,-54"/>
</g>
</g>
</svg>
