<?xml version="1.0" encoding="UTF-8" standalone="no"?>
<!DOCTYPE svg PUBLIC "-//W3C//DTD SVG 1.1//EN"
 "http://www.w3.org/Graphics/SVG/1.1/DTD/svg11.dtd">
<!-- Generated by graphviz version 7.1.0 (20230121.1956)
 -->
<!-- Pages: 1 -->
<svg width="319pt" height="796pt"
 viewBox="0.00 0.00 319.00 796.00" xmlns="http://www.w3.org/2000/svg" xmlns:xlink="http://www.w3.org/1999/xlink">
<g id="graph0" class="graph" transform="scale(1 1) rotate(0) translate(4 792)">
<polygon fill="white" stroke="none" points="-4,4 -4,-792 315,-792 315,4 -4,4"/>
<!-- 0 -->
<g id="node1" class="node">
<title>0</title>
<ellipse fill="none" stroke="black" cx="145" cy="-770" rx="27" ry="18"/>
<text text-anchor="middle" x="145" y="-765.8" font-family="Times,serif" font-size="14.00">0</text>
</g>
<!-- 1 -->
<g id="node2" class="node">
<title>1</title>
<ellipse fill="none" stroke="black" cx="74" cy="-676" rx="27" ry="18"/>
<text text-anchor="middle" x="74" y="-671.8" font-family="Times,serif" font-size="14.00">1</text>
</g>
<!-- 0&#45;&gt;1 -->
<g id="edge1" class="edge">
<title>0&#45;&gt;1</title>
<path fill="none" stroke="black" d="M132.96,-753.39C121.98,-739.17 105.58,-717.92 92.86,-701.44"/>
<polygon fill="black" stroke="black" points="95.67,-699.35 86.79,-693.57 90.13,-703.63 95.67,-699.35"/>
<text text-anchor="start" x="122.5" y="-720.2" font-family="Courier New" font-weight="bold" font-size="12.00" fill="orange">WAIT(00)</text>
</g>
<!-- 2 -->
<g id="node3" class="node">
<title>2</title>
<ellipse fill="none" stroke="black" cx="43" cy="-582" rx="27" ry="18"/>
<text text-anchor="middle" x="43" y="-577.8" font-family="Times,serif" font-size="14.00">2</text>
</g>
<!-- 1&#45;&gt;2 -->
<g id="edge2" class="edge">
<title>1&#45;&gt;2</title>
<path fill="none" stroke="black" d="M68.31,-658.13C63.84,-644.85 57.52,-626.08 52.31,-610.62"/>
<polygon fill="black" stroke="black" points="55.75,-609.87 49.24,-601.51 49.11,-612.11 55.75,-609.87"/>
<text text-anchor="start" x="67" y="-626.2" font-family="Courier New" font-weight="bold" font-size="12.00" fill="blue">MOV(BFRAMEWTEMP1)</text>
</g>
<!-- 3 -->
<g id="node4" class="node">
<title>3</title>
<ellipse fill="none" stroke="black" cx="27" cy="-488" rx="27" ry="18"/>
<text text-anchor="middle" x="27" y="-483.8" font-family="Times,serif" font-size="14.00">3</text>
</g>
<!-- 2&#45;&gt;3 -->
<g id="edge3" class="edge">
<title>2&#45;&gt;3</title>
<path fill="none" stroke="black" d="M27.94,-566.71C22.8,-560.84 17.68,-553.64 15,-546 11.63,-536.4 12.77,-525.54 15.38,-515.89"/>
<polygon fill="black" stroke="black" points="18.6,-517.3 18.47,-506.71 11.97,-515.07 18.6,-517.3"/>
<text text-anchor="start" x="19" y="-532.2" font-family="Courier New" font-weight="bold" font-size="12.00" fill="blue">MAPi(BFRAMETEMPLATE_COST)</text>
</g>
<!-- 4 -->
<g id="node5" class="node">
<title>4</title>
<ellipse fill="none" stroke="black" cx="66" cy="-394" rx="27" ry="18"/>
<text text-anchor="middle" x="66" y="-389.8" font-family="Times,serif" font-size="14.00">4</text>
</g>
<!-- 3&#45;&gt;4 -->
<g id="edge4" class="edge">
<title>3&#45;&gt;4</title>
<path fill="none" stroke="black" d="M33.97,-470.55C39.7,-457.03 47.94,-437.6 54.63,-421.83"/>
<polygon fill="black" stroke="black" points="57.69,-423.58 58.37,-413.01 51.24,-420.85 57.69,-423.58"/>
<text text-anchor="start" x="56.5" y="-438.2" font-family="Courier New" font-weight="bold" font-size="12.00" fill="blue">SHOW(0IDS_VIALCNT)</text>
</g>
<!-- 5 -->
<g id="node6" class="node">
<title>5</title>
<ellipse fill="none" stroke="black" cx="93" cy="-300" rx="27" ry="18"/>
<text text-anchor="middle" x="93" y="-295.8" font-family="Times,serif" font-size="14.00">5</text>
</g>
<!-- 4&#45;&gt;5 -->
<g id="edge5" class="edge">
<title>4&#45;&gt;5</title>
<path fill="none" stroke="black" d="M70.95,-376.13C74.81,-362.98 80.25,-344.44 84.76,-329.07"/>
<polygon fill="black" stroke="black" points="88.1,-330.11 87.56,-319.53 81.39,-328.14 88.1,-330.11"/>
<text text-anchor="start" x="87" y="-344.2" font-family="Courier New" font-weight="bold" font-size="12.00" fill="blue">SIGNAL(WIP1)</text>
</g>
<!-- 6 -->
<g id="node7" class="node">
<title>6</title>
<ellipse fill="none" stroke="black" cx="99" cy="-206" rx="27" ry="18"/>
<text text-anchor="middle" x="99" y="-201.8" font-family="Times,serif" font-size="14.00">6</text>
</g>
<!-- 5&#45;&gt;6 -->
<g id="edge6" class="edge">
<title>5&#45;&gt;6</title>
<path fill="none" stroke="black" d="M94.13,-281.7C94.97,-268.72 96.15,-250.66 97.14,-235.56"/>
<polygon fill="black" stroke="black" points="100.62,-235.94 97.78,-225.74 93.63,-235.49 100.62,-235.94"/>
<text text-anchor="start" x="101.5" y="-250.2" font-family="Courier New" font-weight="bold" font-size="12.00" fill="orange">WAIT(00)</text>
</g>
<!-- 7 -->
<g id="node8" class="node">
<title>7</title>
<ellipse fill="none" stroke="black" cx="110" cy="-112" rx="27" ry="18"/>
<text text-anchor="middle" x="110" y="-107.8" font-family="Times,serif" font-size="14.00">7</text>
</g>
<!-- 6&#45;&gt;7 -->
<g id="edge7" class="edge">
<title>6&#45;&gt;7</title>
<path fill="none" stroke="black" d="M99.14,-187.72C99.42,-176.38 100.15,-161.25 102,-148 102.31,-145.78 102.69,-143.49 103.12,-141.19"/>
<polygon fill="black" stroke="black" points="106.53,-141.97 105.19,-131.46 99.68,-140.52 106.53,-141.97"/>
<text text-anchor="start" x="106.5" y="-156.2" font-family="Courier New" font-weight="bold" font-size="12.00" fill="blue">CLEAR(BFRAME)</text>
</g>
<!-- 8 -->
<g id="node9" class="node">
<title>8</title>
<ellipse fill="none" stroke="black" cx="168" cy="-18" rx="27" ry="18"/>
<text text-anchor="middle" x="168" y="-13.8" font-family="Times,serif" font-size="14.00">8</text>
</g>
<!-- 7&#45;&gt;8 -->
<g id="edge8" class="edge">
<title>7&#45;&gt;8</title>
<path fill="none" stroke="black" d="M116.92,-94.18C122.04,-82.5 129.57,-66.8 138,-54 140.63,-50.02 143.66,-45.99 146.76,-42.15"/>
<polygon fill="black" stroke="black" points="149.18,-44.71 153,-34.82 143.85,-40.17 149.18,-44.71"/>
<text text-anchor="start" x="142.5" y="-62.2" font-family="Courier New" font-weight="bold" font-size="12.00" fill="blue">SHOW(00)</text>
</g>
<!-- 8&#45;&gt;0 -->
<g id="edge9" class="edge">
<title>8&#45;&gt;0</title>
<path fill="none" stroke="black" d="M185,-32.46C191.5,-38.42 198.44,-45.91 203,-54 215.81,-76.73 217,-84.91 217,-111 217,-677 217,-677 217,-677 217,-707.08 192.84,-733.18 172.51,-749.82"/>
<polygon fill="black" stroke="black" points="170.49,-746.96 164.74,-755.85 174.78,-752.49 170.49,-746.96"/>
<text text-anchor="start" x="221" y="-391.2" font-family="Courier New" font-weight="bold" font-size="12.00" fill="blue">SIGNAL(WIP1)</text>
</g>
</g>
</svg>
