<?xml version="1.0" encoding="UTF-8" standalone="no"?>
<!DOCTYPE svg PUBLIC "-//W3C//DTD SVG 1.1//EN"
 "http://www.w3.org/Graphics/SVG/1.1/DTD/svg11.dtd">
<!-- Generated by graphviz version 7.1.0 (20230121.1956)
 -->
<!-- Title: Automaton Pages: 1 -->
<svg width="1950pt" height="509pt"
 viewBox="0.00 0.00 1949.87 509.00" xmlns="http://www.w3.org/2000/svg" xmlns:xlink="http://www.w3.org/1999/xlink">
<g id="graph0" class="graph" transform="scale(1 1) rotate(0) translate(4 505)">
<title>Automaton</title>
<polygon fill="white" stroke="none" points="-4,4 -4,-505 1945.87,-505 1945.87,4 -4,4"/>
<!-- filename -->
<g id="node1" class="node">
<title>filename</title>
<polygon fill="none" stroke="black" points="670.87,-448.5 670.87,-500.5 788.87,-500.5 788.87,-448.5 670.87,-448.5"/>
<polygon fill="none" stroke="black" points="681.87,-475.5 681.87,-493.5 777.87,-493.5 777.87,-475.5 681.87,-475.5"/>
<text text-anchor="start" x="687.87" y="-482.5" font-family="Courier New" font-weight="bold" font-size="10.00">M06_CYCLE_VIEW</text>
<polygon fill="none" stroke="black" points="681.87,-455.5 681.87,-473.5 777.87,-473.5 777.87,-455.5 681.87,-455.5"/>
<text text-anchor="start" x="684.87" y="-461.5" font-family="Courier New" font-size="10.00" fill="brown">start state = 0</text>
<polygon fill="none" stroke="black" points="678.87,-452.5 678.87,-496.5 780.87,-496.5 780.87,-452.5 678.87,-452.5"/>
</g>
<!-- 0 -->
<g id="node2" class="node">
<title>0</title>
<polyline fill="none" stroke="darkred" points="826.87,-463.5 840.87,-463.5"/>
<text text-anchor="start" x="829.87" y="-470.9" font-family="Courier New" font-weight="bold" font-size="14.00">0</text>
<path fill="none" stroke="darkred" d="M830.54,-460.5C830.54,-460.5 837.21,-460.5 837.21,-460.5 840.54,-460.5 843.87,-463.83 843.87,-467.17 843.87,-467.17 843.87,-481.83 843.87,-481.83 843.87,-485.17 840.54,-488.5 837.21,-488.5 837.21,-488.5 830.54,-488.5 830.54,-488.5 827.21,-488.5 823.87,-485.17 823.87,-481.83 823.87,-481.83 823.87,-467.17 823.87,-467.17 823.87,-463.83 827.21,-460.5 830.54,-460.5"/>
</g>
<!-- 1 -->
<g id="node3" class="node">
<title>1</title>
<polyline fill="none" stroke="darkred" points="826.87,-363 840.87,-363"/>
<text text-anchor="start" x="829.87" y="-370.4" font-family="Courier New" font-weight="bold" font-size="14.00">1</text>
<path fill="none" stroke="darkred" d="M830.54,-360C830.54,-360 837.21,-360 837.21,-360 840.54,-360 843.87,-363.33 843.87,-366.67 843.87,-366.67 843.87,-381.33 843.87,-381.33 843.87,-384.67 840.54,-388 837.21,-388 837.21,-388 830.54,-388 830.54,-388 827.21,-388 823.87,-384.67 823.87,-381.33 823.87,-381.33 823.87,-366.67 823.87,-366.67 823.87,-363.33 827.21,-360 830.54,-360"/>
</g>
<!-- 0&#45;&gt;1 -->
<g id="edge1" class="edge">
<title>0&#45;&gt;1</title>
<path fill="none" stroke="black" d="M833.87,-456.79C833.87,-442.14 833.87,-420.55 833.87,-403.23"/>
<polygon fill="black" stroke="black" points="837.37,-403.3 833.87,-393.3 830.37,-403.3 837.37,-403.3"/>
<text text-anchor="start" x="837.87" y="-418" font-family="Courier New" font-weight="bold" font-size="10.00" fill="blue">ASSIGN(WPARM,0)</text>
</g>
<!-- 2 -->
<g id="node4" class="node">
<title>2</title>
<polyline fill="none" stroke="darkred" points="826.87,-247 840.87,-247"/>
<text text-anchor="start" x="829.87" y="-254.4" font-family="Courier New" font-weight="bold" font-size="14.00">2</text>
<path fill="none" stroke="darkred" d="M830.54,-244C830.54,-244 837.21,-244 837.21,-244 840.54,-244 843.87,-247.33 843.87,-250.67 843.87,-250.67 843.87,-265.33 843.87,-265.33 843.87,-268.67 840.54,-272 837.21,-272 837.21,-272 830.54,-272 830.54,-272 827.21,-272 823.87,-268.67 823.87,-265.33 823.87,-265.33 823.87,-250.67 823.87,-250.67 823.87,-247.33 827.21,-244 830.54,-244"/>
</g>
<!-- 1&#45;&gt;2 -->
<g id="edge2" class="edge">
<title>1&#45;&gt;2</title>
<path fill="none" stroke="black" d="M833.87,-356.18C833.87,-338.08 833.87,-308.98 833.87,-287.33"/>
<polygon fill="black" stroke="black" points="837.37,-287.4 833.87,-277.4 830.37,-287.4 837.37,-287.4"/>
<polygon fill="none" stroke="black" points="836.87,-317 836.87,-335 1514.87,-335 1514.87,-317 836.87,-317"/>
<text text-anchor="start" x="1121.86" y="-324" font-family="Courier New" font-weight="bold" font-size="10.00" fill="blue">MOV(WOBJECT,WPARM)</text>
<polygon fill="none" stroke="black" points="836.87,-297 836.87,-315 1514.87,-315 1514.87,-297 836.87,-297"/>
<text text-anchor="start" x="839.87" y="-303" font-family="Courier New" font-size="10.00" fill="blue">MAPi(WOBJECT,S06_MAN_OBJECTS);ASHOW(WOBJECT); SIGNAL(WIP1,SIG_DEC1);SIGNAL(WIP2,SIG_DEC1);SIGNAL(WIP3,SIG_DEC1);</text>
<polygon fill="none" stroke="black" points="833.87,-294 833.87,-338 1517.87,-338 1517.87,-294 833.87,-294"/>
</g>
<!-- 10 -->
<g id="node5" class="node">
<title>10</title>
<polyline fill="none" stroke="darkred" points="436.87,-127 458.87,-127"/>
<text text-anchor="start" x="439.87" y="-134.4" font-family="Courier New" font-weight="bold" font-size="14.00">10</text>
<path fill="none" stroke="darkred" d="M443.21,-124C443.21,-124 452.54,-124 452.54,-124 457.21,-124 461.87,-128.67 461.87,-133.33 461.87,-133.33 461.87,-142.67 461.87,-142.67 461.87,-147.33 457.21,-152 452.54,-152 452.54,-152 443.21,-152 443.21,-152 438.54,-152 433.87,-147.33 433.87,-142.67 433.87,-142.67 433.87,-133.33 433.87,-133.33 433.87,-128.67 438.54,-124 443.21,-124"/>
</g>
<!-- 2&#45;&gt;10 -->
<g id="edge6" class="edge">
<title>2&#45;&gt;10</title>
<path fill="none" stroke="black" d="M806.99,-256.63C722.95,-255.2 469.26,-248.68 444.87,-222 431.55,-207.42 433.34,-184.68 437.89,-166.68"/>
<polygon fill="black" stroke="black" points="441.24,-167.71 440.72,-157.13 434.52,-165.72 441.24,-167.71"/>
<polygon fill="none" stroke="black" points="447.87,-201 447.87,-219 543.87,-219 543.87,-201 447.87,-201"/>
<text text-anchor="start" x="450.87" y="-208" font-family="Courier New" font-weight="bold" font-size="10.00" fill="orange">WAIT(,SIG_INC1)</text>
<polygon fill="none" stroke="black" points="447.87,-181 447.87,-199 543.87,-199 543.87,-181 447.87,-181"/>
<text text-anchor="start" x="450.87" y="-187" font-family="Courier New" font-size="10.00" fill="blue"> ADDI(WPARM,1);</text>
<polygon fill="none" stroke="black" points="444.87,-178 444.87,-222 546.87,-222 546.87,-178 444.87,-178"/>
</g>
<!-- 20 -->
<g id="node7" class="node">
<title>20</title>
<polyline fill="none" stroke="darkred" points="931.87,-127 953.87,-127"/>
<text text-anchor="start" x="934.87" y="-134.4" font-family="Courier New" font-weight="bold" font-size="14.00">20</text>
<path fill="none" stroke="darkred" d="M938.21,-124C938.21,-124 947.54,-124 947.54,-124 952.21,-124 956.87,-128.67 956.87,-133.33 956.87,-133.33 956.87,-142.67 956.87,-142.67 956.87,-147.33 952.21,-152 947.54,-152 947.54,-152 938.21,-152 938.21,-152 933.54,-152 928.87,-147.33 928.87,-142.67 928.87,-142.67 928.87,-133.33 928.87,-133.33 928.87,-128.67 933.54,-124 938.21,-124"/>
</g>
<!-- 2&#45;&gt;20 -->
<g id="edge7" class="edge">
<title>2&#45;&gt;20</title>
<path fill="none" stroke="black" d="M833.26,-240.09C833.53,-222.5 836.67,-195.17 851.87,-178 867.53,-160.32 880.21,-169.4 901.87,-160 903.19,-159.43 904.53,-158.83 905.88,-158.22"/>
<polygon fill="black" stroke="black" points="907.33,-161.4 914.84,-153.93 904.31,-155.09 907.33,-161.4"/>
<polygon fill="none" stroke="black" points="854.87,-201 854.87,-219 950.87,-219 950.87,-201 854.87,-201"/>
<text text-anchor="start" x="857.87" y="-208" font-family="Courier New" font-weight="bold" font-size="10.00" fill="orange">WAIT(,SIG_DEC1)</text>
<polygon fill="none" stroke="black" points="854.87,-181 854.87,-199 950.87,-199 950.87,-181 854.87,-181"/>
<text text-anchor="start" x="857.87" y="-187" font-family="Courier New" font-size="10.00" fill="blue"> SUBI(WPARM,1);</text>
<polygon fill="none" stroke="black" points="851.87,-178 851.87,-222 953.87,-222 953.87,-178 851.87,-178"/>
</g>
<!-- 30 -->
<g id="node8" class="node">
<title>30</title>
<polyline fill="none" stroke="darkred" points="1432.87,-127 1454.87,-127"/>
<text text-anchor="start" x="1435.87" y="-134.4" font-family="Courier New" font-weight="bold" font-size="14.00">30</text>
<path fill="none" stroke="darkred" d="M1439.21,-124C1439.21,-124 1448.54,-124 1448.54,-124 1453.21,-124 1457.87,-128.67 1457.87,-133.33 1457.87,-133.33 1457.87,-142.67 1457.87,-142.67 1457.87,-147.33 1453.21,-152 1448.54,-152 1448.54,-152 1439.21,-152 1439.21,-152 1434.54,-152 1429.87,-147.33 1429.87,-142.67 1429.87,-142.67 1429.87,-133.33 1429.87,-133.33 1429.87,-128.67 1434.54,-124 1439.21,-124"/>
</g>
<!-- 2&#45;&gt;30 -->
<g id="edge8" class="edge">
<title>2&#45;&gt;30</title>
<path fill="none" stroke="black" d="M860.62,-253.77C905.06,-248.26 996.86,-236.23 1073.87,-222 1196.27,-199.38 1339.68,-164.9 1406.32,-148.42"/>
<polygon fill="black" stroke="black" points="1406.76,-151.91 1415.62,-146.11 1405.07,-145.12 1406.76,-151.91"/>
<polygon fill="none" stroke="black" points="1277.87,-201 1277.87,-219 1391.87,-219 1391.87,-201 1277.87,-201"/>
<text text-anchor="start" x="1289.87" y="-208" font-family="Courier New" font-weight="bold" font-size="10.00" fill="orange">WAIT(,SIG_SHOW)</text>
<polygon fill="none" stroke="black" points="1277.87,-181 1277.87,-199 1391.87,-199 1391.87,-181 1277.87,-181"/>
<text text-anchor="start" x="1280.87" y="-187" font-family="Courier New" font-size="10.00" fill="blue">REF_MACHINE(WIP4);</text>
<polygon fill="none" stroke="black" points="1274.87,-178 1274.87,-222 1394.87,-222 1394.87,-178 1274.87,-178"/>
</g>
<!-- 10&#45;&gt;2 -->
<g id="edge3" class="edge">
<title>10&#45;&gt;2</title>
<path fill="none" stroke="black" d="M474.74,-143.63C497.32,-148.72 529.27,-158.84 550.87,-178 567.38,-192.64 555.81,-209.33 573.87,-222 608.82,-246.5 731.95,-253.89 795.42,-256.09"/>
<polygon fill="black" stroke="black" points="795.29,-259.58 805.39,-256.4 795.51,-252.59 795.29,-259.58"/>
<polygon fill="none" stroke="black" points="576.87,-201 576.87,-219 684.87,-219 684.87,-201 576.87,-201"/>
<text text-anchor="start" x="588.87" y="-208" font-family="Courier New" font-weight="bold" font-size="10.00" fill="blue">GTEi(WPARM,24)</text>
<polygon fill="none" stroke="black" points="576.87,-181 576.87,-199 684.87,-199 684.87,-181 576.87,-181"/>
<text text-anchor="start" x="579.87" y="-187" font-family="Courier New" font-size="10.00" fill="blue">ASSIGN(WPARM,24);</text>
<polygon fill="none" stroke="black" points="573.87,-178 573.87,-222 687.87,-222 687.87,-178 573.87,-178"/>
</g>
<!-- 11 -->
<g id="node6" class="node">
<title>11</title>
<polyline fill="none" stroke="darkred" points="344.87,-7 366.87,-7"/>
<text text-anchor="start" x="347.87" y="-14.4" font-family="Courier New" font-weight="bold" font-size="14.00">11</text>
<path fill="none" stroke="darkred" d="M351.21,-4C351.21,-4 360.54,-4 360.54,-4 365.21,-4 369.87,-8.67 369.87,-13.33 369.87,-13.33 369.87,-22.67 369.87,-22.67 369.87,-27.33 365.21,-32 360.54,-32 360.54,-32 351.21,-32 351.21,-32 346.54,-32 341.87,-27.33 341.87,-22.67 341.87,-22.67 341.87,-13.33 341.87,-13.33 341.87,-8.67 346.54,-4 351.21,-4"/>
</g>
<!-- 10&#45;&gt;11 -->
<g id="edge4" class="edge">
<title>10&#45;&gt;11</title>
<path fill="none" stroke="black" d="M421.17,-136.67C330.39,-135.27 37.7,-128.42 9.87,-98 -3.33,-83.57 -3.24,-68.51 9.87,-54 30.22,-31.49 232,-22.75 317.7,-20.03"/>
<polygon fill="black" stroke="black" points="317.59,-23.54 327.47,-19.74 317.37,-16.54 317.59,-23.54"/>
<polygon fill="none" stroke="black" points="12.87,-77 12.87,-95 684.87,-95 684.87,-77 12.87,-77"/>
<text text-anchor="start" x="294.86" y="-84" font-family="Courier New" font-weight="bold" font-size="10.00" fill="blue">MOV(WOBJECT,WPARM)</text>
<polygon fill="none" stroke="black" points="12.87,-57 12.87,-75 684.87,-75 684.87,-57 12.87,-57"/>
<text text-anchor="start" x="15.87" y="-63" font-family="Courier New" font-size="10.00" fill="blue">MAPi(WOBJECT,S06_MAN_OBJECTS);ASHOW(WOBJECT);SIGNAL(WIP1,SIG_INC1);SIGNAL(WIP2,SIG_INC1);SIGNAL(WIP3,SIG_INC1);</text>
<polygon fill="none" stroke="black" points="9.87,-54 9.87,-98 687.87,-98 687.87,-54 9.87,-54"/>
</g>
<!-- 11&#45;&gt;2 -->
<g id="edge5" class="edge">
<title>11&#45;&gt;2</title>
<path fill="none" stroke="black" d="M382.77,-18.64C452.73,-18.19 638.44,-20.28 687.87,-54 731.72,-83.91 712.2,-116.68 742.87,-160 761.82,-186.76 787.74,-213.67 807.07,-232.34"/>
<polygon fill="black" stroke="black" points="804.43,-234.65 814.08,-239.02 809.26,-229.58 804.43,-234.65"/>
<text text-anchor="start" x="746.87" y="-136" font-family="Courier New" font-weight="bold" font-size="10.00" fill="blue">Z_EPSILON(,)</text>
</g>
<!-- 20&#45;&gt;2 -->
<g id="edge9" class="edge">
<title>20&#45;&gt;2</title>
<path fill="none" stroke="black" d="M951.51,-155.73C959.53,-173.88 968.26,-202.81 953.87,-222 935.13,-246.99 899.53,-254.94 871.95,-257.12"/>
<polygon fill="black" stroke="black" points="872,-253.61 862.21,-257.65 872.38,-260.6 872,-253.61"/>
<polygon fill="none" stroke="black" points="964.87,-201 964.87,-219 1066.87,-219 1066.87,-201 964.87,-201"/>
<text text-anchor="start" x="979.87" y="-208" font-family="Courier New" font-weight="bold" font-size="10.00" fill="blue">LTi(WPARM,0)</text>
<polygon fill="none" stroke="black" points="964.87,-181 964.87,-199 1066.87,-199 1066.87,-181 964.87,-181"/>
<text text-anchor="start" x="967.87" y="-187" font-family="Courier New" font-size="10.00" fill="blue">ASSIGN(WPARM,0);</text>
<polygon fill="none" stroke="black" points="961.87,-178 961.87,-222 1069.87,-222 1069.87,-178 961.87,-178"/>
</g>
<!-- 21 -->
<g id="node9" class="node">
<title>21</title>
<polyline fill="none" stroke="darkred" points="823.87,-7 845.87,-7"/>
<text text-anchor="start" x="826.87" y="-14.4" font-family="Courier New" font-weight="bold" font-size="14.00">21</text>
<path fill="none" stroke="darkred" d="M830.21,-4C830.21,-4 839.54,-4 839.54,-4 844.21,-4 848.87,-8.67 848.87,-13.33 848.87,-13.33 848.87,-22.67 848.87,-22.67 848.87,-27.33 844.21,-32 839.54,-32 839.54,-32 830.21,-32 830.21,-32 825.54,-32 820.87,-27.33 820.87,-22.67 820.87,-22.67 820.87,-13.33 820.87,-13.33 820.87,-8.67 825.54,-4 830.21,-4"/>
</g>
<!-- 20&#45;&gt;21 -->
<g id="edge10" class="edge">
<title>20&#45;&gt;21</title>
<path fill="none" stroke="black" d="M916.2,-122.72C911.48,-120.37 906.57,-118.04 901.87,-116 880.21,-106.6 867.42,-115.78 851.87,-98 839.76,-84.15 835.6,-63.75 834.42,-47.15"/>
<polygon fill="black" stroke="black" points="837.92,-47.27 834.07,-37.4 830.93,-47.52 837.92,-47.27"/>
<polygon fill="none" stroke="black" points="854.87,-77 854.87,-95 1532.87,-95 1532.87,-77 854.87,-77"/>
<text text-anchor="start" x="1139.86" y="-84" font-family="Courier New" font-weight="bold" font-size="10.00" fill="blue">MOV(WOBJECT,WPARM)</text>
<polygon fill="none" stroke="black" points="854.87,-57 854.87,-75 1532.87,-75 1532.87,-57 854.87,-57"/>
<text text-anchor="start" x="857.87" y="-63" font-family="Courier New" font-size="10.00" fill="blue">MAPi(WOBJECT,S06_MAN_OBJECTS);ASHOW(WOBJECT); SIGNAL(WIP1,SIG_DEC1);SIGNAL(WIP2,SIG_DEC1);SIGNAL(WIP3,SIG_DEC1);</text>
<polygon fill="none" stroke="black" points="851.87,-54 851.87,-98 1535.87,-98 1535.87,-54 851.87,-54"/>
</g>
<!-- 31 -->
<g id="node10" class="node">
<title>31</title>
<polyline fill="none" stroke="darkred" points="1611.87,-7 1633.87,-7"/>
<text text-anchor="start" x="1614.87" y="-14.4" font-family="Courier New" font-weight="bold" font-size="14.00">31</text>
<path fill="none" stroke="darkred" d="M1618.21,-4C1618.21,-4 1627.54,-4 1627.54,-4 1632.21,-4 1636.87,-8.67 1636.87,-13.33 1636.87,-13.33 1636.87,-22.67 1636.87,-22.67 1636.87,-27.33 1632.21,-32 1627.54,-32 1627.54,-32 1618.21,-32 1618.21,-32 1613.54,-32 1608.87,-27.33 1608.87,-22.67 1608.87,-22.67 1608.87,-13.33 1608.87,-13.33 1608.87,-8.67 1613.54,-4 1618.21,-4"/>
</g>
<!-- 30&#45;&gt;31 -->
<g id="edge12" class="edge">
<title>30&#45;&gt;31</title>
<path fill="none" stroke="black" d="M1470.75,-130.86C1490.7,-125.16 1517.51,-114.94 1535.87,-98 1552.09,-83.04 1543.42,-69.75 1558.87,-54 1566.49,-46.23 1576.21,-39.74 1585.75,-34.53"/>
<polygon fill="black" stroke="black" points="1587.23,-37.71 1594.59,-30.08 1584.08,-31.46 1587.23,-37.71"/>
<text text-anchor="start" x="1562.87" y="-74" font-family="Courier New" font-weight="bold" font-size="10.00" fill="blue">MOV(WPARM,R_WPARM)</text>
</g>
<!-- 21&#45;&gt;2 -->
<g id="edge11" class="edge">
<title>21&#45;&gt;2</title>
<path fill="none" stroke="black" d="M833.42,-35.73C832.92,-41.52 832.37,-48.04 831.87,-54 827.96,-101 825.17,-112.87 826.87,-160 827.71,-183.22 829.67,-209.52 831.3,-228.86"/>
<polygon fill="black" stroke="black" points="827.81,-229.03 832.16,-238.69 834.78,-228.42 827.81,-229.03"/>
<text text-anchor="start" x="830.87" y="-136" font-family="Courier New" font-weight="bold" font-size="10.00" fill="blue">Z_EPSILON(,)</text>
</g>
<!-- 31&#45;&gt;2 -->
<g id="edge13" class="edge">
<title>31&#45;&gt;2</title>
<path fill="none" stroke="black" d="M1649.65,-30.32C1659.42,-35.92 1669.4,-43.72 1674.87,-54 1684.06,-71.26 1685.5,-81.58 1674.87,-98 1601.82,-210.91 1529.43,-189.77 1398.87,-222 1298.63,-246.75 982.3,-254.45 872.15,-256.42"/>
<polygon fill="black" stroke="black" points="872.1,-252.92 862.16,-256.59 872.22,-259.91 872.1,-252.92"/>
<polygon fill="none" stroke="black" points="1662.87,-139 1662.87,-157 1938.87,-157 1938.87,-139 1662.87,-139"/>
<text text-anchor="start" x="1740.86" y="-146" font-family="Courier New" font-weight="bold" font-size="10.00" fill="blue">MOV(WOBJECT,R_WPARM)</text>
<polygon fill="none" stroke="black" points="1662.87,-119 1662.87,-137 1938.87,-137 1938.87,-119 1662.87,-119"/>
<text text-anchor="start" x="1665.87" y="-125" font-family="Courier New" font-size="10.00" fill="blue">MAPi(WOBJECT,S06_MAN_OBJECTS);ASHOW(WOBJECT);</text>
<polygon fill="none" stroke="black" points="1659.87,-116 1659.87,-160 1941.87,-160 1941.87,-116 1659.87,-116"/>
</g>
</g>
</svg>
