<?xml version="1.0" encoding="UTF-8" standalone="no"?>
<!DOCTYPE svg PUBLIC "-//W3C//DTD SVG 1.1//EN"
 "http://www.w3.org/Graphics/SVG/1.1/DTD/svg11.dtd">
<!-- Generated by graphviz version 7.1.0 (20230121.1956)
 -->
<!-- Pages: 1 -->
<svg width="276pt" height="135pt"
 viewBox="0.00 0.00 275.81 134.80" xmlns="http://www.w3.org/2000/svg" xmlns:xlink="http://www.w3.org/1999/xlink">
<g id="graph0" class="graph" transform="scale(1 1) rotate(0) translate(4 130.8)">
<polygon fill="white" stroke="none" points="-4,4 -4,-130.8 271.81,-130.8 271.81,4 -4,4"/>
<!-- M08_BEEM_0 -->
<g id="node1" class="node">
<title>M08_BEEM_0</title>
<polygon fill="none" stroke="black" points="38.12,-90.3 38.12,-126.3 140.46,-126.3 140.46,-90.3 38.12,-90.3"/>
<text text-anchor="middle" x="89.29" y="-104.1" font-family="Times,serif" font-size="14.00">M08_BEEM_0</text>
</g>
<!-- M08_BEEM_1 -->
<g id="node2" class="node">
<title>M08_BEEM_1</title>
<polygon fill="none" stroke="black" points="38.12,-0.5 38.12,-36.5 140.46,-36.5 140.46,-0.5 38.12,-0.5"/>
<text text-anchor="middle" x="89.29" y="-14.3" font-family="Times,serif" font-size="14.00">M08_BEEM_1</text>
</g>
<!-- M08_BEEM_0&#45;&gt;M08_BEEM_1 -->
<g id="edge1" class="edge">
<title>M08_BEEM_0&#45;&gt;M08_BEEM_1</title>
<path fill="none" stroke="red" d="M38.19,-97.05C24.77,-91.79 11.81,-83.83 3.78,-71.8 -6.96,-55.7 7.76,-43.72 27.86,-35.32"/>
<polygon fill="red" stroke="red" points="28.86,-38.68 36.99,-31.89 26.4,-32.13 28.86,-38.68"/>
<text text-anchor="start" x="4.29" y="-60.2" font-family="Times,serif" font-size="14.00" fill="red"> </text>
<text text-anchor="start" x="7.79" y="-60.2" font-family="Courier New" font-size="10.00" fill="red">CLICK(0,0)</text>
</g>
<!-- M08_BEEM_0&#45;&gt;M08_BEEM_1 -->
<g id="edge2" class="edge">
<title>M08_BEEM_0&#45;&gt;M08_BEEM_1</title>
<path fill="none" stroke="red" d="M89.29,-90.37C89.29,-78.22 89.29,-61.58 89.29,-47.47"/>
<polygon fill="red" stroke="red" points="92.79,-47.89 89.29,-37.89 85.79,-47.89 92.79,-47.89"/>
<text text-anchor="start" x="89.29" y="-60.2" font-family="Times,serif" font-size="14.00" fill="red"> </text>
<text text-anchor="start" x="92.79" y="-60.2" font-family="Courier New" font-size="10.00" fill="red">WAIT(0,0)</text>
</g>
<!-- M08_BEEM_1&#45;&gt;M08_BEEM_0 -->
<g id="edge3" class="edge">
<title>M08_BEEM_1&#45;&gt;M08_BEEM_0</title>
<path fill="none" stroke="green" d="M129.17,-36.45C144.33,-45.53 156.24,-57.74 148.29,-71.8 145.81,-76.19 142.54,-80.1 138.81,-83.57"/>
<polygon fill="green" stroke="green" points="136.94,-80.59 131.24,-89.52 141.26,-86.09 136.94,-80.59"/>
<text text-anchor="start" x="150.29" y="-60.2" font-family="Times,serif" font-size="14.00" fill="green"> </text>
<text text-anchor="start" x="153.79" y="-60.2" font-family="Courier New" font-size="10.00" fill="green">VIDEO(0,IDS_BEAMER)</text>
</g>
</g>
</svg>
