<?xml version="1.0" encoding="UTF-8" standalone="no"?>
<!DOCTYPE svg PUBLIC "-//W3C//DTD SVG 1.1//EN"
 "http://www.w3.org/Graphics/SVG/1.1/DTD/svg11.dtd">
<!-- Generated by graphviz version 7.1.0 (20230121.1956)
 -->
<!-- Pages: 1 -->
<svg width="290pt" height="136pt"
 viewBox="0.00 0.00 290.15 136.00" xmlns="http://www.w3.org/2000/svg" xmlns:xlink="http://www.w3.org/1999/xlink">
<g id="graph0" class="graph" transform="scale(1 1) rotate(0) translate(4 132)">
<polygon fill="white" stroke="none" points="-4,4 -4,-132 286.15,-132 286.15,4 -4,4"/>
<!-- 0 -->
<g id="node1" class="node">
<title>0</title>
<ellipse fill="none" stroke="black" cx="94.15" cy="-110" rx="27" ry="18"/>
<text text-anchor="middle" x="94.15" y="-105.8" font-family="Times,serif" font-size="14.00">0</text>
</g>
<!-- 1 -->
<g id="node2" class="node">
<title>1</title>
<ellipse fill="none" stroke="black" cx="94.15" cy="-18" rx="27" ry="18"/>
<text text-anchor="middle" x="94.15" y="-13.8" font-family="Times,serif" font-size="14.00">1</text>
</g>
<!-- 0&#45;&gt;1 -->
<g id="edge1" class="edge">
<title>0&#45;&gt;1</title>
<path fill="none" stroke="black" d="M67.52,-106.57C46.43,-103.09 18.26,-94.62 4.15,-74 -12.17,-50.14 25.87,-34.79 57.43,-26.53"/>
<polygon fill="black" stroke="black" points="57.87,-30.03 66.75,-24.26 56.21,-23.22 57.87,-30.03"/>
<text text-anchor="start" x="8.15" y="-62" font-family="Courier New" font-weight="bold" font-size="10.00" fill="orange">CLICK(0,0)</text>
</g>
<!-- 0&#45;&gt;1 -->
<g id="edge2" class="edge">
<title>0&#45;&gt;1</title>
<path fill="none" stroke="black" d="M94.15,-91.65C94.15,-79.2 94.15,-62.14 94.15,-47.68"/>
<polygon fill="black" stroke="black" points="97.65,-47.81 94.15,-37.81 90.65,-47.81 97.65,-47.81"/>
<text text-anchor="start" x="98.15" y="-62" font-family="Courier New" font-weight="bold" font-size="10.00" fill="orange">WAIT(0,0)</text>
</g>
<!-- 1&#45;&gt;0 -->
<g id="edge3" class="edge">
<title>1&#45;&gt;0</title>
<path fill="none" stroke="black" d="M118.92,-25.9C132.79,-31.17 148.9,-39.98 157.15,-54 161.66,-61.66 161.66,-66.34 157.15,-74 150.9,-84.62 140.13,-92.25 129.25,-97.62"/>
<polygon fill="black" stroke="black" points="128.09,-94.31 120.31,-101.5 130.87,-100.73 128.09,-94.31"/>
<text text-anchor="start" x="164.15" y="-62" font-family="Courier New" font-weight="bold" font-size="10.00" fill="blue">VIDEO(0,IDS_BEAMER)</text>
</g>
</g>
</svg>
