<?xml version="1.0" encoding="UTF-8" standalone="no"?>
<!DOCTYPE svg PUBLIC "-//W3C//DTD SVG 1.1//EN"
 "http://www.w3.org/Graphics/SVG/1.1/DTD/svg11.dtd">
<!-- Generated by graphviz version 7.1.0 (20230121.1956)
 -->
<!-- Pages: 1 -->
<svg width="834pt" height="811pt"
 viewBox="0.00 0.00 834.00 811.00" xmlns="http://www.w3.org/2000/svg" xmlns:xlink="http://www.w3.org/1999/xlink">
<g id="graph0" class="graph" transform="scale(1 1) rotate(0) translate(4 807)">
<polygon fill="white" stroke="none" points="-4,4 -4,-807 830,-807 830,4 -4,4"/>
<!-- 0 -->
<g id="node1" class="node">
<title>0</title>
<ellipse fill="none" stroke="black" cx="294" cy="-785" rx="27" ry="18"/>
<text text-anchor="middle" x="294" y="-780.8" font-family="Times,serif" font-size="14.00">0</text>
</g>
<!-- 100 -->
<g id="node2" class="node">
<title>100</title>
<ellipse fill="none" stroke="black" cx="27" cy="-693" rx="27" ry="18"/>
<text text-anchor="middle" x="27" y="-688.8" font-family="Times,serif" font-size="14.00">100</text>
</g>
<!-- 0&#45;&gt;100 -->
<g id="edge1" class="edge">
<title>0&#45;&gt;100</title>
<path fill="none" stroke="black" d="M267.17,-782.49C202.26,-778.56 40.85,-767.05 25,-749 18.63,-741.75 17.6,-731.67 18.68,-722.11"/>
<polygon fill="black" stroke="black" points="22.09,-722.91 20.55,-712.43 15.22,-721.58 22.09,-722.91"/>
<text text-anchor="start" x="29" y="-737" font-family="Courier New" font-weight="bold" font-size="10.00" fill="orange">CLICK(,)</text>
</g>
<!-- 0&#45;&gt;100 -->
<g id="edge2" class="edge">
<title>0&#45;&gt;100</title>
<path fill="none" stroke="black" d="M266.81,-783.45C228.63,-781.71 157.79,-774.91 104,-749 91.8,-743.12 91.82,-737.15 81,-729 73.2,-723.12 64.42,-717.18 56.25,-711.9"/>
<polygon fill="black" stroke="black" points="58.29,-709.04 47.97,-706.64 54.54,-714.95 58.29,-709.04"/>
<text text-anchor="start" x="108" y="-737" font-family="Courier New" font-weight="bold" font-size="10.00" fill="orange">WAIT(,)</text>
</g>
<!-- 101 -->
<g id="node3" class="node">
<title>101</title>
<ellipse fill="none" stroke="black" cx="144" cy="-580" rx="27" ry="18"/>
<text text-anchor="middle" x="144" y="-575.8" font-family="Times,serif" font-size="14.00">101</text>
</g>
<!-- 100&#45;&gt;101 -->
<g id="edge3" class="edge">
<title>100&#45;&gt;101</title>
<path fill="none" stroke="black" d="M21.96,-675.07C18.08,-658.34 15.3,-632.87 28,-616 45.8,-592.36 79.07,-584.13 105.43,-581.52"/>
<polygon fill="black" stroke="black" points="105.38,-585.03 115.09,-580.8 104.86,-578.05 105.38,-585.03"/>
<polygon fill="none" stroke="black" points="31,-635.5 31,-653.5 151,-653.5 151,-635.5 31,-635.5"/>
<text text-anchor="start" x="36.99" y="-642.5" font-family="Courier New" font-weight="bold" font-size="10.00" fill="blue">REF_MACHINE(WIP1,)</text>
<polygon fill="none" stroke="black" points="31,-618.5 31,-633.5 151,-633.5 151,-618.5 31,-618.5"/>
<text text-anchor="start" x="34" y="-623.3" font-family="Times,serif" font-size="8.00" fill="blue"> &#160;&#160;&#160;MOV (WPARM,R_WOBJECT);</text>
<polygon fill="none" stroke="black" points="28,-616 28,-657 154,-657 154,-616 28,-616"/>
</g>
<!-- 101&#45;&gt;0 -->
<g id="edge4" class="edge">
<title>101&#45;&gt;0</title>
<path fill="none" stroke="black" d="M148.91,-598.08C158.99,-633.09 181.13,-709.83 182,-711 202.22,-738.23 235.85,-758.16 260.99,-770.25"/>
<polygon fill="black" stroke="black" points="259.26,-773.3 269.81,-774.31 262.19,-766.95 259.26,-773.3"/>
<text text-anchor="start" x="186" y="-691" font-family="Courier New" font-weight="bold" font-size="10.00" fill="blue">EQUALi(WPARM,0)</text>
</g>
<!-- 102 -->
<g id="node4" class="node">
<title>102</title>
<ellipse fill="none" stroke="black" cx="294" cy="-445.5" rx="27" ry="18"/>
<text text-anchor="middle" x="294" y="-441.3" font-family="Times,serif" font-size="14.00">102</text>
</g>
<!-- 101&#45;&gt;102 -->
<g id="edge5" class="edge">
<title>101&#45;&gt;102</title>
<path fill="none" stroke="black" d="M138.58,-562.22C133.03,-541.51 127.44,-506.28 145,-484 158.61,-466.73 216.47,-456.15 255.95,-450.81"/>
<polygon fill="black" stroke="black" points="256.32,-454.29 265.79,-449.54 255.43,-447.35 256.32,-454.29"/>
<polygon fill="none" stroke="black" points="148.5,-523 148.5,-541 277.5,-541 277.5,-523 148.5,-523"/>
<text text-anchor="start" x="176.99" y="-530" font-family="Courier New" font-weight="bold" font-size="10.00" fill="blue">Z_EPSILON(,)</text>
<polygon fill="none" stroke="black" points="148.5,-487 148.5,-521 277.5,-521 277.5,-487 148.5,-487"/>
<text text-anchor="start" x="151.5" y="-510.8" font-family="Times,serif" font-size="8.00" fill="blue"> &#160;&#160;&#160;MOV(WTEMP1,WPARM);</text>
<text text-anchor="start" x="151.5" y="-501.2" font-family="Times,serif" font-size="8.00" fill="blue"> &#160;&#160;&#160;MAPi(WTEMP1,CARD_CHEM1);</text>
<text text-anchor="start" x="151.5" y="-491.6" font-family="Times,serif" font-size="8.00" fill="blue"> &#160;&#160;&#160;REF_MACHINE(WIP2);</text>
<polygon fill="none" stroke="black" points="145,-484 145,-544 280,-544 280,-484 145,-484"/>
</g>
<!-- 102&#45;&gt;0 -->
<g id="edge6" class="edge">
<title>102&#45;&gt;0</title>
<path fill="none" stroke="black" d="M294,-463.67C294,-518.12 294,-687.39 294,-755.34"/>
<polygon fill="black" stroke="black" points="290.5,-755.29 294,-765.29 297.5,-755.29 290.5,-755.29"/>
<text text-anchor="start" x="298" y="-634.5" font-family="Courier New" font-weight="bold" font-size="10.00" fill="blue">NEQUAL(WTEMP1,R_WOBJECT)</text>
</g>
<!-- 103 -->
<g id="node5" class="node">
<title>103</title>
<ellipse fill="none" stroke="black" cx="461" cy="-311" rx="27" ry="18"/>
<text text-anchor="middle" x="461" y="-306.8" font-family="Times,serif" font-size="14.00">103</text>
</g>
<!-- 102&#45;&gt;103 -->
<g id="edge7" class="edge">
<title>102&#45;&gt;103</title>
<path fill="none" stroke="black" d="M291.97,-427.2C290.46,-405.51 291.46,-368.56 312,-347 327.07,-331.19 384.22,-321.25 423.2,-316.16"/>
<polygon fill="black" stroke="black" points="423.41,-319.67 432.9,-314.96 422.54,-312.72 423.41,-319.67"/>
<polygon fill="none" stroke="black" points="315.5,-386 315.5,-404 444.5,-404 444.5,-386 315.5,-386"/>
<text text-anchor="start" x="343.99" y="-393" font-family="Courier New" font-weight="bold" font-size="10.00" fill="blue">Z_EPSILON(,)</text>
<polygon fill="none" stroke="black" points="315.5,-350 315.5,-384 444.5,-384 444.5,-350 315.5,-350"/>
<text text-anchor="start" x="318.5" y="-373.8" font-family="Times,serif" font-size="8.00" fill="blue"> &#160;&#160;&#160;MOV(WTEMP1,WPARM);</text>
<text text-anchor="start" x="318.5" y="-364.2" font-family="Times,serif" font-size="8.00" fill="blue"> &#160;&#160;&#160;MAPi(WTEMP1,CARD_CHEM2);</text>
<text text-anchor="start" x="318.5" y="-354.6" font-family="Times,serif" font-size="8.00" fill="blue"> &#160;&#160;&#160;REF_MACHINE(WIP3);</text>
<polygon fill="none" stroke="black" points="312,-347 312,-407 447,-407 447,-347 312,-347"/>
</g>
<!-- 103&#45;&gt;0 -->
<g id="edge8" class="edge">
<title>103&#45;&gt;0</title>
<path fill="none" stroke="black" d="M461,-329.15C461,-354.41 461,-403.09 461,-444.5 461,-694 461,-694 461,-694 461,-752.24 381.33,-772.96 332.04,-780.21"/>
<polygon fill="black" stroke="black" points="331.78,-776.71 322.33,-781.51 332.71,-783.65 331.78,-776.71"/>
<text text-anchor="start" x="465" y="-578" font-family="Courier New" font-weight="bold" font-size="10.00" fill="blue">NEQUAL(WTEMP1,R_WOBJECT)</text>
</g>
<!-- 104 -->
<g id="node6" class="node">
<title>104</title>
<ellipse fill="none" stroke="black" cx="611" cy="-179" rx="27" ry="18"/>
<text text-anchor="middle" x="611" y="-174.8" font-family="Times,serif" font-size="14.00">104</text>
</g>
<!-- 103&#45;&gt;104 -->
<g id="edge9" class="edge">
<title>103&#45;&gt;104</title>
<path fill="none" stroke="black" d="M463.35,-292.73C467.13,-271.5 476.57,-235.75 499,-215 519.17,-196.33 549.19,-187.62 573.08,-183.56"/>
<polygon fill="black" stroke="black" points="573.36,-187.05 582.74,-182.13 572.34,-180.13 573.36,-187.05"/>
<polygon fill="none" stroke="black" points="502,-254 502,-272 624,-272 624,-254 502,-254"/>
<text text-anchor="start" x="526.99" y="-261" font-family="Courier New" font-weight="bold" font-size="10.00" fill="blue">Z_EPSILON(,)</text>
<polygon fill="none" stroke="black" points="502,-218 502,-252 624,-252 624,-218 502,-218"/>
<text text-anchor="start" x="505" y="-241.8" font-family="Times,serif" font-size="8.00" fill="blue"> &#160;&#160;&#160;MOV(WTEMP1,WPARM);</text>
<text text-anchor="start" x="505" y="-232.2" font-family="Times,serif" font-size="8.00" fill="blue"> &#160;&#160;&#160;MAPi(WTEMP1,CARD_COST);</text>
<text text-anchor="start" x="505" y="-222.6" font-family="Times,serif" font-size="8.00" fill="blue"> &#160;&#160;&#160;REF_MACHINE(WIP4);</text>
<polygon fill="none" stroke="black" points="499,-215 499,-275 627,-275 627,-215 499,-215"/>
</g>
<!-- 104&#45;&gt;0 -->
<g id="edge10" class="edge">
<title>104&#45;&gt;0</title>
<path fill="none" stroke="black" d="M619.64,-196.36C622.36,-202.12 625.14,-208.72 627,-215 639.1,-255.93 641,-267.32 641,-310 641,-694 641,-694 641,-694 641,-757.14 423.04,-776.73 332.61,-782.14"/>
<polygon fill="black" stroke="black" points="332.53,-778.64 322.74,-782.7 332.92,-785.63 332.53,-778.64"/>
<text text-anchor="start" x="645" y="-512" font-family="Courier New" font-weight="bold" font-size="10.00" fill="blue">LT(R_BPARM,WTEMP1)</text>
</g>
<!-- 105 -->
<g id="node7" class="node">
<title>105</title>
<ellipse fill="none" stroke="black" cx="691" cy="-18" rx="27" ry="18"/>
<text text-anchor="middle" x="691" y="-13.8" font-family="Times,serif" font-size="14.00">105</text>
</g>
<!-- 104&#45;&gt;105 -->
<g id="edge11" class="edge">
<title>104&#45;&gt;105</title>
<path fill="none" stroke="black" d="M605.81,-161.12C599.06,-135.61 590.5,-86.75 612,-54 621.41,-39.67 638.16,-31.16 653.82,-26.13"/>
<polygon fill="black" stroke="black" points="654.75,-29.5 663.45,-23.45 652.88,-22.76 654.75,-29.5"/>
<polygon fill="none" stroke="black" points="615,-121.5 615,-139.5 755,-139.5 755,-121.5 615,-121.5"/>
<text text-anchor="start" x="648.99" y="-128.5" font-family="Courier New" font-weight="bold" font-size="10.00" fill="blue">Z_EPSILON(,)</text>
<polygon fill="none" stroke="black" points="615,-56.5 615,-119.5 755,-119.5 755,-56.5 615,-56.5"/>
<text text-anchor="start" x="618" y="-109.3" font-family="Times,serif" font-size="8.00" fill="blue"> &#160;&#160;&#160;SIGNAL(WIP2, SIG_CLEAR);</text>
<text text-anchor="start" x="618" y="-99.7" font-family="Times,serif" font-size="8.00" fill="blue"> &#160;&#160;&#160;SIGNAL(WIP3, SIG_CLEAR);</text>
<text text-anchor="start" x="618" y="-90.1" font-family="Times,serif" font-size="8.00" fill="blue"> &#160;&#160;&#160;SIGNAL(WIP4, SIG_CLEAR);</text>
<text text-anchor="start" x="618" y="-80.5" font-family="Times,serif" font-size="8.00" fill="blue"> &#160;&#160;&#160;MOV(WOBJECT,WPARM);</text>
<text text-anchor="start" x="618" y="-70.9" font-family="Times,serif" font-size="8.00" fill="blue"> &#160;&#160;&#160;MAPi(WOBJECT,CARD_OBJECTS);</text>
<text text-anchor="start" x="618" y="-61.3" font-family="Times,serif" font-size="8.00" fill="blue"> &#160;&#160;&#160;ASHOW(WOBJECT);</text>
<polygon fill="none" stroke="black" points="612,-54 612,-143 758,-143 758,-54 612,-54"/>
</g>
<!-- 105&#45;&gt;0 -->
<g id="edge12" class="edge">
<title>105&#45;&gt;0</title>
<path fill="none" stroke="black" d="M716.04,-25.62C730.7,-30.85 748.21,-39.71 758,-54 789.36,-99.75 772,-122.54 772,-178 772,-694 772,-694 772,-694 772,-738.65 445.69,-770.96 332.29,-780.84"/>
<polygon fill="black" stroke="black" points="332.24,-777.33 322.58,-781.67 332.84,-784.3 332.24,-777.33"/>
<polygon fill="none" stroke="black" points="775,-444.5 775,-462.5 823,-462.5 823,-444.5 775,-444.5"/>
<text text-anchor="start" x="778" y="-451.5" font-family="Courier New" font-weight="bold" font-size="10.00" fill="orange">GRAB(,)</text>
<polygon fill="none" stroke="black" points="775,-427.5 775,-442.5 823,-442.5 823,-427.5 775,-427.5"/>
<text text-anchor="start" x="783.45" y="-432.3" font-family="Times,serif" font-size="8.00" fill="blue">SHOW();</text>
<polygon fill="none" stroke="black" points="772,-425 772,-466 826,-466 826,-425 772,-425"/>
</g>
</g>
</svg>
