<?xml version="1.0" encoding="UTF-8" standalone="no"?>
<!DOCTYPE svg PUBLIC "-//W3C//DTD SVG 1.1//EN"
 "http://www.w3.org/Graphics/SVG/1.1/DTD/svg11.dtd">
<!-- Generated by graphviz version 7.1.0 (20230121.1956)
 -->
<!-- Title: Automaton Pages: 1 -->
<svg width="473pt" height="561pt"
 viewBox="0.00 0.00 473.00 561.00" xmlns="http://www.w3.org/2000/svg" xmlns:xlink="http://www.w3.org/1999/xlink">
<g id="graph0" class="graph" transform="scale(1 1) rotate(0) translate(4 557)">
<title>Automaton</title>
<polygon fill="white" stroke="none" points="-4,4 -4,-557 469,-557 469,4 -4,4"/>
<!-- filename -->
<g id="node1" class="node">
<title>filename</title>
<polygon fill="none" stroke="black" points="0,-500.5 0,-552.5 118,-552.5 118,-500.5 0,-500.5"/>
<polygon fill="none" stroke="black" points="11,-527.5 11,-545.5 107,-545.5 107,-527.5 11,-527.5"/>
<text text-anchor="start" x="22.99" y="-534.5" font-family="Courier New" font-weight="bold" font-size="10.00">M08_CARDHOLD</text>
<polygon fill="none" stroke="black" points="11,-507.5 11,-525.5 107,-525.5 107,-507.5 11,-507.5"/>
<text text-anchor="start" x="14" y="-513.5" font-family="Courier New" font-size="10.00" fill="brown">start state = 0</text>
<polygon fill="none" stroke="black" points="8,-504.5 8,-548.5 110,-548.5 110,-504.5 8,-504.5"/>
</g>
<!-- 0 -->
<g id="node2" class="node">
<title>0</title>
<polyline fill="none" stroke="darkred" points="156,-515.5 170,-515.5"/>
<text text-anchor="start" x="159" y="-522.9" font-family="Courier New" font-weight="bold" font-size="14.00">0</text>
<path fill="none" stroke="darkred" d="M159.67,-512.5C159.67,-512.5 166.33,-512.5 166.33,-512.5 169.67,-512.5 173,-515.83 173,-519.17 173,-519.17 173,-533.83 173,-533.83 173,-537.17 169.67,-540.5 166.33,-540.5 166.33,-540.5 159.67,-540.5 159.67,-540.5 156.33,-540.5 153,-537.17 153,-533.83 153,-533.83 153,-519.17 153,-519.17 153,-515.83 156.33,-512.5 159.67,-512.5"/>
</g>
<!-- 10 -->
<g id="node3" class="node">
<title>10</title>
<polyline fill="none" stroke="darkred" points="152,-415 174,-415"/>
<text text-anchor="start" x="155" y="-422.4" font-family="Courier New" font-weight="bold" font-size="14.00">10</text>
<path fill="none" stroke="darkred" d="M158.33,-412C158.33,-412 167.67,-412 167.67,-412 172.33,-412 177,-416.67 177,-421.33 177,-421.33 177,-430.67 177,-430.67 177,-435.33 172.33,-440 167.67,-440 167.67,-440 158.33,-440 158.33,-440 153.67,-440 149,-435.33 149,-430.67 149,-430.67 149,-421.33 149,-421.33 149,-416.67 153.67,-412 158.33,-412"/>
</g>
<!-- 0&#45;&gt;10 -->
<g id="edge1" class="edge">
<title>0&#45;&gt;10</title>
<path fill="none" stroke="black" d="M163,-508.79C163,-494.14 163,-472.55 163,-455.23"/>
<polygon fill="black" stroke="black" points="166.5,-455.3 163,-445.3 159.5,-455.3 166.5,-455.3"/>
<text text-anchor="start" x="167" y="-470" font-family="Courier New" font-weight="bold" font-size="10.00" fill="blue">C_ACCEPT(0,IDC_CARD)</text>
</g>
<!-- 20 -->
<g id="node4" class="node">
<title>20</title>
<polyline fill="none" stroke="darkred" points="43,-175 65,-175"/>
<text text-anchor="start" x="46" y="-182.4" font-family="Courier New" font-weight="bold" font-size="14.00">20</text>
<path fill="none" stroke="darkred" d="M49.33,-172C49.33,-172 58.67,-172 58.67,-172 63.33,-172 68,-176.67 68,-181.33 68,-181.33 68,-190.67 68,-190.67 68,-195.33 63.33,-200 58.67,-200 58.67,-200 49.33,-200 49.33,-200 44.67,-200 40,-195.33 40,-190.67 40,-190.67 40,-181.33 40,-181.33 40,-176.67 44.67,-172 49.33,-172"/>
</g>
<!-- 10&#45;&gt;20 -->
<g id="edge2" class="edge">
<title>10&#45;&gt;20</title>
<path fill="none" stroke="black" d="M136.2,-424.63C110.68,-422.68 73.49,-415.3 55,-390 16.98,-337.98 32.75,-256.74 44.88,-214.53"/>
<polygon fill="black" stroke="black" points="48.16,-215.76 47.71,-205.17 41.46,-213.73 48.16,-215.76"/>
<polygon fill="none" stroke="black" points="58,-369 58,-387 256,-387 256,-369 58,-369"/>
<text text-anchor="start" x="130" y="-376" font-family="Courier New" font-weight="bold" font-size="10.00" fill="orange">DROP(0,0)</text>
<polygon fill="none" stroke="black" points="58,-253 58,-367 256,-367 256,-253 58,-253"/>
<text text-anchor="start" x="61" y="-355" font-family="Courier New" font-size="10.00" fill="blue"> &#160;&#160;&#160;SHOW(0,IDS_CARDANI);</text>
<text text-anchor="start" x="61" y="-343" font-family="Courier New" font-size="10.00" fill="blue"> &#160;&#160;&#160;ANIMATE(0,V_REVERSE);</text>
<text text-anchor="start" x="61" y="-331" font-family="Courier New" font-size="10.00" fill="blue"> &#160;&#160;&#160;PLAYWAVE(0,SOUND_CARDEJECT);</text>
<text text-anchor="start" x="61" y="-319" font-family="Courier New" font-size="10.00" fill="blue"> &#160;&#160;&#160;MOV(WPARM,WOBJECT);</text>
<text text-anchor="start" x="61" y="-307" font-family="Courier New" font-size="10.00" fill="blue"> &#160;&#160;&#160;SUBI(WPARM,IDD_TEMPLATE01);</text>
<text text-anchor="start" x="61" y="-295" font-family="Courier New" font-size="10.00" fill="blue"> &#160;&#160;&#160;SIGNAL(WIP1);</text>
<text text-anchor="start" x="61" y="-283" font-family="Courier New" font-size="10.00" fill="blue"> &#160;&#160;&#160;SIGNAL(WIP2, SIG_SET);</text>
<text text-anchor="start" x="61" y="-271" font-family="Courier New" font-size="10.00" fill="blue"> &#160;&#160;&#160;SIGNAL(WIP3, SIG_SET);</text>
<text text-anchor="start" x="61" y="-259" font-family="Courier New" font-size="10.00" fill="blue"> &#160;&#160;&#160;</text>
<polygon fill="none" stroke="black" points="55,-250 55,-390 259,-390 259,-250 55,-250"/>
</g>
<!-- 30 -->
<g id="node5" class="node">
<title>30</title>
<polyline fill="none" stroke="darkred" points="152,-7 174,-7"/>
<text text-anchor="start" x="155" y="-14.4" font-family="Courier New" font-weight="bold" font-size="14.00">30</text>
<path fill="none" stroke="darkred" d="M158.33,-4C158.33,-4 167.67,-4 167.67,-4 172.33,-4 177,-8.67 177,-13.33 177,-13.33 177,-22.67 177,-22.67 177,-27.33 172.33,-32 167.67,-32 167.67,-32 158.33,-32 158.33,-32 153.67,-32 149,-27.33 149,-22.67 149,-22.67 149,-13.33 149,-13.33 149,-8.67 153.67,-4 158.33,-4"/>
</g>
<!-- 20&#45;&gt;30 -->
<g id="edge3" class="edge">
<title>20&#45;&gt;30</title>
<path fill="none" stroke="black" d="M48.45,-168.19C40.68,-141.24 30.13,-87.94 55,-54 70.92,-32.28 100.62,-23.77 124.84,-20.56"/>
<polygon fill="black" stroke="black" points="125.12,-24.05 134.71,-19.54 124.4,-17.09 125.12,-24.05"/>
<polygon fill="none" stroke="black" points="58,-101 58,-119 256,-119 256,-101 58,-101"/>
<text text-anchor="start" x="133" y="-108" font-family="Courier New" font-weight="bold" font-size="10.00" fill="orange">CLICK(,)</text>
<polygon fill="none" stroke="black" points="58,-57 58,-99 256,-99 256,-57 58,-57"/>
<text text-anchor="start" x="61" y="-87" font-family="Courier New" font-size="10.00" fill="blue"> &#160;&#160;&#160;SHOW(0,IDS_CARDANI);</text>
<text text-anchor="start" x="61" y="-75" font-family="Courier New" font-size="10.00" fill="blue"> &#160;&#160;&#160;ANIMATE();</text>
<text text-anchor="start" x="61" y="-63" font-family="Courier New" font-size="10.00" fill="blue"> &#160;&#160;&#160;PLAYWAVE(0,SOUND_CARDEJECT);</text>
<polygon fill="none" stroke="black" points="55,-54 55,-122 259,-122 259,-54 55,-54"/>
</g>
<!-- 30&#45;&gt;10 -->
<g id="edge4" class="edge">
<title>30&#45;&gt;10</title>
<path fill="none" stroke="black" d="M189.56,-20.64C212.19,-23.6 243.44,-31.76 259,-54 301.81,-115.17 301.81,-328.83 259,-390 245.87,-408.76 221.57,-417.5 200.7,-421.56"/>
<polygon fill="black" stroke="black" points="200.37,-418.07 191.05,-423.12 201.48,-424.98 200.37,-418.07"/>
<polygon fill="none" stroke="black" points="294,-211 294,-229 462,-229 462,-211 294,-211"/>
<text text-anchor="start" x="351" y="-218" font-family="Courier New" font-weight="bold" font-size="10.00" fill="orange">GRAB(0,0)</text>
<polygon fill="none" stroke="black" points="294,-143 294,-209 462,-209 462,-143 294,-143"/>
<text text-anchor="start" x="297" y="-197" font-family="Courier New" font-size="10.00" fill="blue"> &#160;&#160;&#160;CLEAR(WOBJECT);</text>
<text text-anchor="start" x="297" y="-185" font-family="Courier New" font-size="10.00" fill="blue"> &#160;&#160;&#160;CLEAR(WPARM);</text>
<text text-anchor="start" x="297" y="-173" font-family="Courier New" font-size="10.00" fill="blue"> &#160;&#160;&#160;SHOW();</text>
<text text-anchor="start" x="297" y="-161" font-family="Courier New" font-size="10.00" fill="blue"> &#160;&#160;&#160;SIGNAL(WIP2,SIG_CLEAR);</text>
<text text-anchor="start" x="297" y="-149" font-family="Courier New" font-size="10.00" fill="blue"> &#160;&#160;&#160;SIGNAL(WIP3,SIG_CLEAR);</text>
<polygon fill="none" stroke="black" points="291,-140 291,-232 465,-232 465,-140 291,-140"/>
</g>
</g>
</svg>
