<?xml version="1.0" encoding="UTF-8" standalone="no"?>
<!DOCTYPE svg PUBLIC "-//W3C//DTD SVG 1.1//EN"
 "http://www.w3.org/Graphics/SVG/1.1/DTD/svg11.dtd">
<!-- Generated by graphviz version 7.1.0 (20230121.1956)
 -->
<!-- Pages: 1 -->
<svg width="943pt" height="909pt"
 viewBox="0.00 0.00 942.72 909.00" xmlns="http://www.w3.org/2000/svg" xmlns:xlink="http://www.w3.org/1999/xlink">
<g id="graph0" class="graph" transform="scale(1 1) rotate(0) translate(4 905)">
<polygon fill="white" stroke="none" points="-4,4 -4,-905 938.72,-905 938.72,4 -4,4"/>
<!-- 0 -->
<g id="node1" class="node">
<title>0</title>
<ellipse fill="none" stroke="black" cx="342.72" cy="-883" rx="27" ry="18"/>
<text text-anchor="middle" x="342.72" y="-878.8" font-family="Times,serif" font-size="14.00">0</text>
</g>
<!-- 100 -->
<g id="node2" class="node">
<title>100</title>
<ellipse fill="none" stroke="black" cx="59.72" cy="-789" rx="27" ry="18"/>
<text text-anchor="middle" x="59.72" y="-784.8" font-family="Times,serif" font-size="14.00">100</text>
</g>
<!-- 0&#45;&gt;100 -->
<g id="edge1" class="edge">
<title>0&#45;&gt;100</title>
<path fill="none" stroke="black" d="M315.62,-880.62C248.29,-876.93 77.63,-865.8 60.72,-847 53.87,-839.38 52.4,-828.61 53.07,-818.47"/>
<polygon fill="black" stroke="black" points="56.53,-818.99 54.45,-808.6 49.6,-818.02 56.53,-818.99"/>
<text text-anchor="start" x="64.72" y="-833.2" font-family="Courier New" font-weight="bold" font-size="12.00" fill="orange">CLICK()</text>
</g>
<!-- 0&#45;&gt;100 -->
<g id="edge2" class="edge">
<title>0&#45;&gt;100</title>
<path fill="none" stroke="black" d="M315.48,-882.19C275.31,-881.4 198.79,-875.83 141.72,-847 129.1,-840.62 129.99,-833.55 118.72,-825 109.94,-818.34 99.8,-811.92 90.43,-806.44"/>
<polygon fill="black" stroke="black" points="92.41,-803.53 81.98,-801.64 88.95,-809.62 92.41,-803.53"/>
<text text-anchor="start" x="146.22" y="-833.2" font-family="Courier New" font-weight="bold" font-size="12.00" fill="orange">WAIT()</text>
</g>
<!-- 101 -->
<g id="node3" class="node">
<title>101</title>
<ellipse fill="none" stroke="black" cx="130.72" cy="-669" rx="27" ry="18"/>
<text text-anchor="middle" x="130.72" y="-664.8" font-family="Times,serif" font-size="14.00">101</text>
</g>
<!-- 100&#45;&gt;101 -->
<g id="edge3" class="edge">
<title>100&#45;&gt;101</title>
<path fill="none" stroke="black" d="M37.18,-778.66C26.5,-772.95 14.78,-764.5 8.72,-753 -1.22,-734.12 -4.12,-722.04 8.72,-705 27.81,-679.67 64,-671.76 92.03,-669.69"/>
<polygon fill="black" stroke="black" points="92.14,-673.19 101.96,-669.2 91.79,-666.19 92.14,-673.19"/>
<polygon fill="none" stroke="black" points="11.72,-730 11.72,-750 189.72,-750 189.72,-730 11.72,-730"/>
<text text-anchor="start" x="39.51" y="-737.2" font-family="Courier New" font-weight="bold" font-size="12.00" fill="blue">REF_MACHINE(WIP1)</text>
<polygon fill="none" stroke="black" points="11.72,-708 11.72,-728 189.72,-728 189.72,-708 11.72,-708"/>
<text text-anchor="start" x="14.72" y="-714.2" font-family="Times,serif" font-size="12.00" fill="blue"> &#160;&#160;&#160;MOV (WPARM,R_WOBJECT);</text>
<polygon fill="none" stroke="black" points="8.72,-705 8.72,-753 192.72,-753 192.72,-705 8.72,-705"/>
</g>
<!-- 101&#45;&gt;0 -->
<g id="edge4" class="edge">
<title>101&#45;&gt;0</title>
<path fill="none" stroke="black" d="M154.42,-678.14C167.49,-683.77 182.99,-692.52 192.72,-705 221.63,-742.07 192.51,-769.4 220.72,-807 243.12,-836.85 281.18,-857.47 308.85,-869.43"/>
<polygon fill="black" stroke="black" points="307.28,-872.57 317.86,-873.16 309.96,-866.1 307.28,-872.57"/>
<text text-anchor="start" x="224.72" y="-786.2" font-family="Courier New" font-weight="bold" font-size="12.00" fill="blue">EQUALi(WPARM0)</text>
</g>
<!-- 102 -->
<g id="node4" class="node">
<title>102</title>
<ellipse fill="none" stroke="black" cx="318.72" cy="-514" rx="27" ry="18"/>
<text text-anchor="middle" x="318.72" y="-509.8" font-family="Times,serif" font-size="14.00">102</text>
</g>
<!-- 101&#45;&gt;102 -->
<g id="edge5" class="edge">
<title>101&#45;&gt;102</title>
<path fill="none" stroke="black" d="M124.99,-651.03C118.04,-627.01 109.78,-583.02 131.72,-556 150.11,-533.35 231.19,-522.49 280.36,-517.89"/>
<polygon fill="black" stroke="black" points="280.65,-521.38 290.3,-517.02 280.03,-514.41 280.65,-521.38"/>
<polygon fill="none" stroke="black" points="135.22,-609.5 135.22,-629.5 326.22,-629.5 326.22,-609.5 135.22,-609.5"/>
<text text-anchor="start" x="191.12" y="-616.7" font-family="Courier New" font-weight="bold" font-size="12.00" fill="blue">Z_EPSILON()</text>
<polygon fill="none" stroke="black" points="135.22,-558.5 135.22,-607.5 326.22,-607.5 326.22,-558.5 135.22,-558.5"/>
<text text-anchor="start" x="138.22" y="-593.7" font-family="Times,serif" font-size="12.00" fill="blue"> &#160;&#160;&#160;MOV(WTEMP1,WPARM);</text>
<text text-anchor="start" x="138.22" y="-579.3" font-family="Times,serif" font-size="12.00" fill="blue"> &#160;&#160;&#160;MAPi(WTEMP1,CARD_CHEM1);</text>
<text text-anchor="start" x="138.22" y="-564.9" font-family="Times,serif" font-size="12.00" fill="blue"> &#160;&#160;&#160;REF_MACHINE(WIP2);</text>
<polygon fill="none" stroke="black" points="131.72,-556 131.72,-633 328.72,-633 328.72,-556 131.72,-556"/>
</g>
<!-- 102&#45;&gt;0 -->
<g id="edge6" class="edge">
<title>102&#45;&gt;0</title>
<path fill="none" stroke="black" d="M323.66,-532.01C325.58,-539.33 327.59,-548.02 328.72,-556 344.19,-664.95 344.25,-796.25 343.37,-853.26"/>
<polygon fill="black" stroke="black" points="339.88,-853 343.2,-863.06 346.88,-853.12 339.88,-853"/>
<text text-anchor="start" x="347.22" y="-726.2" font-family="Courier New" font-weight="bold" font-size="12.00" fill="blue">NEQUAL(WTEMP1R_WOBJECT)</text>
</g>
<!-- 103 -->
<g id="node5" class="node">
<title>103</title>
<ellipse fill="none" stroke="black" cx="529.72" cy="-359" rx="27" ry="18"/>
<text text-anchor="middle" x="529.72" y="-354.8" font-family="Times,serif" font-size="14.00">103</text>
</g>
<!-- 102&#45;&gt;103 -->
<g id="edge7" class="edge">
<title>102&#45;&gt;103</title>
<path fill="none" stroke="black" d="M312.85,-496.23C305.21,-471.03 295.5,-423.35 319.72,-395 341.36,-369.67 436.66,-362.66 491.15,-360.73"/>
<polygon fill="black" stroke="black" points="491.04,-364.23 500.92,-360.43 490.82,-357.24 491.04,-364.23"/>
<polygon fill="none" stroke="black" points="323.22,-448.5 323.22,-468.5 514.22,-468.5 514.22,-448.5 323.22,-448.5"/>
<text text-anchor="start" x="379.12" y="-455.7" font-family="Courier New" font-weight="bold" font-size="12.00" fill="blue">Z_EPSILON()</text>
<polygon fill="none" stroke="black" points="323.22,-397.5 323.22,-446.5 514.22,-446.5 514.22,-397.5 323.22,-397.5"/>
<text text-anchor="start" x="326.22" y="-432.7" font-family="Times,serif" font-size="12.00" fill="blue"> &#160;&#160;&#160;MOV(WTEMP1,WPARM);</text>
<text text-anchor="start" x="326.22" y="-418.3" font-family="Times,serif" font-size="12.00" fill="blue"> &#160;&#160;&#160;MAPi(WTEMP1,CARD_CHEM2);</text>
<text text-anchor="start" x="326.22" y="-403.9" font-family="Times,serif" font-size="12.00" fill="blue"> &#160;&#160;&#160;REF_MACHINE(WIP3);</text>
<polygon fill="none" stroke="black" points="319.72,-395 319.72,-472 516.72,-472 516.72,-395 319.72,-395"/>
</g>
<!-- 103&#45;&gt;0 -->
<g id="edge8" class="edge">
<title>103&#45;&gt;0</title>
<path fill="none" stroke="black" d="M529.91,-377.44C530.2,-405.84 530.72,-463.86 530.72,-513 530.72,-790 530.72,-790 530.72,-790 530.72,-856.01 436.05,-874.67 381.07,-879.93"/>
<polygon fill="black" stroke="black" points="380.84,-876.44 371.17,-880.76 381.42,-883.41 380.84,-876.44"/>
<text text-anchor="start" x="535.22" y="-666.2" font-family="Courier New" font-weight="bold" font-size="12.00" fill="blue">NEQUAL(WTEMP1R_WOBJECT)</text>
</g>
<!-- 104 -->
<g id="node6" class="node">
<title>104</title>
<ellipse fill="none" stroke="black" cx="648.72" cy="-210" rx="27" ry="18"/>
<text text-anchor="middle" x="648.72" y="-205.8" font-family="Times,serif" font-size="14.00">104</text>
</g>
<!-- 103&#45;&gt;104 -->
<g id="edge9" class="edge">
<title>103&#45;&gt;104</title>
<path fill="none" stroke="black" d="M524.25,-341.24C517.63,-317.48 509.78,-273.8 530.72,-246 548.92,-221.84 583.07,-213.7 609.97,-211.25"/>
<polygon fill="black" stroke="black" points="610.1,-214.75 619.85,-210.6 609.64,-207.76 610.1,-214.75"/>
<polygon fill="none" stroke="black" points="534.22,-299.5 534.22,-319.5 715.22,-319.5 715.22,-299.5 534.22,-299.5"/>
<text text-anchor="start" x="585.12" y="-306.7" font-family="Courier New" font-weight="bold" font-size="12.00" fill="blue">Z_EPSILON()</text>
<polygon fill="none" stroke="black" points="534.22,-248.5 534.22,-297.5 715.22,-297.5 715.22,-248.5 534.22,-248.5"/>
<text text-anchor="start" x="537.22" y="-283.7" font-family="Times,serif" font-size="12.00" fill="blue"> &#160;&#160;&#160;MOV(WTEMP1,WPARM);</text>
<text text-anchor="start" x="537.22" y="-269.3" font-family="Times,serif" font-size="12.00" fill="blue"> &#160;&#160;&#160;MAPi(WTEMP1,CARD_COST);</text>
<text text-anchor="start" x="537.22" y="-254.9" font-family="Times,serif" font-size="12.00" fill="blue"> &#160;&#160;&#160;REF_MACHINE(WIP4);</text>
<polygon fill="none" stroke="black" points="530.72,-246 530.72,-323 717.72,-323 717.72,-246 530.72,-246"/>
</g>
<!-- 104&#45;&gt;0 -->
<g id="edge10" class="edge">
<title>104&#45;&gt;0</title>
<path fill="none" stroke="black" d="M673.74,-217.24C688.95,-222.38 707.37,-231.28 717.72,-246 746.58,-287.04 731.72,-307.83 731.72,-358 731.72,-790 731.72,-790 731.72,-790 731.72,-861.45 480.05,-877.48 381.57,-881.02"/>
<polygon fill="black" stroke="black" points="381.47,-877.52 371.59,-881.35 381.7,-884.52 381.47,-877.52"/>
<text text-anchor="start" x="735.72" y="-591.7" font-family="Courier New" font-weight="bold" font-size="12.00" fill="blue">LT(R_BPARMWTEMP1)</text>
</g>
<!-- 105 -->
<g id="node7" class="node">
<title>105</title>
<ellipse fill="none" stroke="black" cx="762.72" cy="-18" rx="27" ry="18"/>
<text text-anchor="middle" x="762.72" y="-13.8" font-family="Times,serif" font-size="14.00">105</text>
</g>
<!-- 104&#45;&gt;105 -->
<g id="edge11" class="edge">
<title>104&#45;&gt;105</title>
<path fill="none" stroke="black" d="M642.96,-192.08C633.61,-161.24 619.09,-95.27 649.72,-54 666.81,-30.97 698.87,-22.65 724.49,-19.85"/>
<polygon fill="black" stroke="black" points="724.54,-23.35 734.22,-19.04 723.96,-16.38 724.54,-23.35"/>
<polygon fill="none" stroke="black" points="653.22,-151 653.22,-171 860.22,-171 860.22,-151 653.22,-151"/>
<text text-anchor="start" x="717.12" y="-158.2" font-family="Courier New" font-weight="bold" font-size="12.00" fill="blue">Z_EPSILON()</text>
<polygon fill="none" stroke="black" points="653.22,-57 653.22,-149 860.22,-149 860.22,-57 653.22,-57"/>
<text text-anchor="start" x="656.22" y="-135.2" font-family="Times,serif" font-size="12.00" fill="blue"> &#160;&#160;&#160;SIGNAL(WIP2, SIG_CLEAR);</text>
<text text-anchor="start" x="656.22" y="-120.8" font-family="Times,serif" font-size="12.00" fill="blue"> &#160;&#160;&#160;SIGNAL(WIP3, SIG_CLEAR);</text>
<text text-anchor="start" x="656.22" y="-106.4" font-family="Times,serif" font-size="12.00" fill="blue"> &#160;&#160;&#160;SIGNAL(WIP4, SIG_CLEAR);</text>
<text text-anchor="start" x="656.22" y="-92" font-family="Times,serif" font-size="12.00" fill="blue"> &#160;&#160;&#160;MOV(WOBJECT,WPARM);</text>
<text text-anchor="start" x="656.22" y="-77.6" font-family="Times,serif" font-size="12.00" fill="blue"> &#160;&#160;&#160;MAPi(WOBJECT,CARD_OBJECTS);</text>
<text text-anchor="start" x="656.22" y="-63.2" font-family="Times,serif" font-size="12.00" fill="blue"> &#160;&#160;&#160;ASHOW(WOBJECT);</text>
<polygon fill="none" stroke="black" points="649.72,-54 649.72,-174 862.72,-174 862.72,-54 649.72,-54"/>
</g>
<!-- 105&#45;&gt;0 -->
<g id="edge12" class="edge">
<title>105&#45;&gt;0</title>
<path fill="none" stroke="black" d="M789.86,-20.66C813.08,-23.64 845.42,-31.8 862.72,-54 905.25,-108.55 876.72,-139.83 876.72,-209 876.72,-790 876.72,-790 876.72,-790 876.72,-840.36 503.15,-870.84 380.92,-879.46"/>
<polygon fill="black" stroke="black" points="380.81,-875.96 371.08,-880.15 381.3,-882.94 380.81,-875.96"/>
<polygon fill="none" stroke="black" points="879.72,-515 879.72,-535 931.72,-535 931.72,-515 879.72,-515"/>
<text text-anchor="start" x="884.12" y="-522.2" font-family="Courier New" font-weight="bold" font-size="12.00" fill="orange">GRAB()</text>
<polygon fill="none" stroke="black" points="879.72,-493 879.72,-513 931.72,-513 931.72,-493 879.72,-493"/>
<text text-anchor="start" x="882.72" y="-499.2" font-family="Times,serif" font-size="12.00" fill="blue">SHOW();</text>
<polygon fill="none" stroke="black" points="876.72,-490 876.72,-538 934.72,-538 934.72,-490 876.72,-490"/>
</g>
</g>
</svg>
