<?xml version="1.0" encoding="UTF-8" standalone="no"?>
<!DOCTYPE svg PUBLIC "-//W3C//DTD SVG 1.1//EN"
 "http://www.w3.org/Graphics/SVG/1.1/DTD/svg11.dtd">
<!-- Generated by graphviz version 7.1.0 (20230121.1956)
 -->
<!-- Pages: 1 -->
<svg width="312pt" height="138pt"
 viewBox="0.00 0.00 312.40 138.00" xmlns="http://www.w3.org/2000/svg" xmlns:xlink="http://www.w3.org/1999/xlink">
<g id="graph0" class="graph" transform="scale(1 1) rotate(0) translate(4 134)">
<polygon fill="white" stroke="none" points="-4,4 -4,-134 308.4,-134 308.4,4 -4,4"/>
<!-- 0 -->
<g id="node1" class="node">
<title>0</title>
<ellipse fill="none" stroke="black" cx="98.4" cy="-112" rx="27" ry="18"/>
<text text-anchor="middle" x="98.4" y="-107.8" font-family="Times,serif" font-size="14.00">0</text>
</g>
<!-- 1 -->
<g id="node2" class="node">
<title>1</title>
<ellipse fill="none" stroke="black" cx="98.4" cy="-18" rx="27" ry="18"/>
<text text-anchor="middle" x="98.4" y="-13.8" font-family="Times,serif" font-size="14.00">1</text>
</g>
<!-- 0&#45;&gt;1 -->
<g id="edge1" class="edge">
<title>0&#45;&gt;1</title>
<path fill="none" stroke="black" d="M71.5,-109.06C49.41,-105.89 19.4,-97.6 4.4,-76 -13.06,-50.86 28.24,-34.85 61.54,-26.4"/>
<polygon fill="black" stroke="black" points="62.03,-29.88 70.96,-24.17 60.42,-23.07 62.03,-29.88"/>
<text text-anchor="start" x="8.4" y="-62.2" font-family="Courier New" font-weight="bold" font-size="12.00" fill="orange">CLICK(00)</text>
</g>
<!-- 0&#45;&gt;1 -->
<g id="edge2" class="edge">
<title>0&#45;&gt;1</title>
<path fill="none" stroke="black" d="M98.4,-93.7C98.4,-80.72 98.4,-62.66 98.4,-47.56"/>
<polygon fill="black" stroke="black" points="101.9,-47.74 98.4,-37.74 94.9,-47.74 101.9,-47.74"/>
<text text-anchor="start" x="102.9" y="-62.2" font-family="Courier New" font-weight="bold" font-size="12.00" fill="orange">WAIT(00)</text>
</g>
<!-- 1&#45;&gt;0 -->
<g id="edge3" class="edge">
<title>1&#45;&gt;0</title>
<path fill="none" stroke="black" d="M123.31,-25.24C138.04,-30.35 155.51,-39.22 164.4,-54 169.44,-62.38 169.44,-67.62 164.4,-76 157.59,-87.32 145.76,-95.17 133.97,-100.52"/>
<polygon fill="black" stroke="black" points="132.72,-97.25 124.72,-104.2 135.3,-103.76 132.72,-97.25"/>
<text text-anchor="start" x="171.9" y="-62.2" font-family="Courier New" font-weight="bold" font-size="12.00" fill="blue">VIDEO(0IDS_BEAMER)</text>
</g>
</g>
</svg>
