<?xml version="1.0" encoding="UTF-8" standalone="no"?>
<!DOCTYPE svg PUBLIC "-//W3C//DTD SVG 1.1//EN"
 "http://www.w3.org/Graphics/SVG/1.1/DTD/svg11.dtd">
<!-- Generated by graphviz version 7.1.0 (20230121.1956)
 -->
<!-- Title: Automaton Pages: 1 -->
<svg width="702pt" height="305pt"
 viewBox="0.00 0.00 701.53 305.00" xmlns="http://www.w3.org/2000/svg" xmlns:xlink="http://www.w3.org/1999/xlink">
<g id="graph0" class="graph" transform="scale(1 1) rotate(0) translate(4 301)">
<title>Automaton</title>
<polygon fill="white" stroke="none" points="-4,4 -4,-301 697.53,-301 697.53,4 -4,4"/>
<!-- filename -->
<g id="node1" class="node">
<title>filename</title>
<polygon fill="none" stroke="black" points="110.53,-244.5 110.53,-296.5 228.53,-296.5 228.53,-244.5 110.53,-244.5"/>
<polygon fill="none" stroke="black" points="121.53,-271.5 121.53,-289.5 217.53,-289.5 217.53,-271.5 121.53,-271.5"/>
<text text-anchor="start" x="139.53" y="-278.5" font-family="Courier New" font-weight="bold" font-size="10.00">M10_FLOWER</text>
<polygon fill="none" stroke="black" points="121.53,-251.5 121.53,-269.5 217.53,-269.5 217.53,-251.5 121.53,-251.5"/>
<text text-anchor="start" x="124.53" y="-257.5" font-family="Courier New" font-size="10.00" fill="brown">start state = 0</text>
<polygon fill="none" stroke="black" points="118.53,-248.5 118.53,-292.5 220.53,-292.5 220.53,-248.5 118.53,-248.5"/>
</g>
<!-- 0 -->
<g id="node2" class="node">
<title>0</title>
<polyline fill="none" stroke="darkred" points="266.53,-259.5 280.53,-259.5"/>
<text text-anchor="start" x="269.53" y="-266.9" font-family="Courier New" font-weight="bold" font-size="14.00">0</text>
<path fill="none" stroke="darkred" d="M270.2,-256.5C270.2,-256.5 276.87,-256.5 276.87,-256.5 280.2,-256.5 283.53,-259.83 283.53,-263.17 283.53,-263.17 283.53,-277.83 283.53,-277.83 283.53,-281.17 280.2,-284.5 276.87,-284.5 276.87,-284.5 270.2,-284.5 270.2,-284.5 266.87,-284.5 263.53,-281.17 263.53,-277.83 263.53,-277.83 263.53,-263.17 263.53,-263.17 263.53,-259.83 266.87,-256.5 270.2,-256.5"/>
</g>
<!-- 1 -->
<g id="node3" class="node">
<title>1</title>
<polyline fill="none" stroke="darkred" points="266.53,-159 280.53,-159"/>
<text text-anchor="start" x="269.53" y="-166.4" font-family="Courier New" font-weight="bold" font-size="14.00">1</text>
<path fill="none" stroke="darkred" d="M270.2,-156C270.2,-156 276.87,-156 276.87,-156 280.2,-156 283.53,-159.33 283.53,-162.67 283.53,-162.67 283.53,-177.33 283.53,-177.33 283.53,-180.67 280.2,-184 276.87,-184 276.87,-184 270.2,-184 270.2,-184 266.87,-184 263.53,-180.67 263.53,-177.33 263.53,-177.33 263.53,-162.67 263.53,-162.67 263.53,-159.33 266.87,-156 270.2,-156"/>
</g>
<!-- 0&#45;&gt;1 -->
<g id="edge1" class="edge">
<title>0&#45;&gt;1</title>
<path fill="none" stroke="black" d="M273.53,-252.79C273.53,-238.14 273.53,-216.55 273.53,-199.23"/>
<polygon fill="black" stroke="black" points="277.03,-199.3 273.53,-189.3 270.03,-199.3 277.03,-199.3"/>
<text text-anchor="start" x="277.53" y="-214" font-family="Courier New" font-weight="bold" font-size="10.00" fill="blue">SHOW(0,IDS_FLOPN1)</text>
</g>
<!-- 30 -->
<g id="node4" class="node">
<title>30</title>
<polyline fill="none" stroke="darkred" points="262.53,-7 284.53,-7"/>
<text text-anchor="start" x="265.53" y="-14.4" font-family="Courier New" font-weight="bold" font-size="14.00">30</text>
<path fill="none" stroke="darkred" d="M268.87,-4C268.87,-4 278.2,-4 278.2,-4 282.87,-4 287.53,-8.67 287.53,-13.33 287.53,-13.33 287.53,-22.67 287.53,-22.67 287.53,-27.33 282.87,-32 278.2,-32 278.2,-32 268.87,-32 268.87,-32 264.2,-32 259.53,-27.33 259.53,-22.67 259.53,-22.67 259.53,-13.33 259.53,-13.33 259.53,-8.67 264.2,-4 268.87,-4"/>
</g>
<!-- 1&#45;&gt;30 -->
<g id="edge2" class="edge">
<title>1&#45;&gt;30</title>
<path fill="none" stroke="black" d="M246.82,-169.56C187.38,-170.16 47.1,-167.88 17.53,-134 -5.84,-107.21 -5.84,-80.79 17.53,-54 45.37,-22.1 171.33,-18.21 235.58,-18.37"/>
<polygon fill="black" stroke="black" points="235.29,-21.87 245.31,-18.43 235.33,-14.87 235.29,-21.87"/>
<polygon fill="none" stroke="black" points="20.53,-113 20.53,-131 248.53,-131 248.53,-113 20.53,-113"/>
<text text-anchor="start" x="89.53" y="-120" font-family="Courier New" font-weight="bold" font-size="10.00" fill="orange">WAIT(,SIG_OPEN)</text>
<polygon fill="none" stroke="black" points="20.53,-57 20.53,-111 248.53,-111 248.53,-57 20.53,-57"/>
<text text-anchor="start" x="23.53" y="-99" font-family="Courier New" font-size="10.00" fill="blue"> &#160;&#160;&#160;PLAYWAVE(SOUND_BUZZFUZZ);</text>
<text text-anchor="start" x="23.53" y="-87" font-family="Courier New" font-size="10.00" fill="blue"> &#160;&#160;&#160;SHOW(0,IDS_FLOPN1);</text>
<text text-anchor="start" x="23.53" y="-75" font-family="Courier New" font-size="10.00" fill="blue"> &#160;&#160;&#160;ANIMATE();</text>
<text text-anchor="start" x="23.53" y="-63" font-family="Courier New" font-size="10.00" fill="blue"> &#160;&#160;&#160;SIGNALi(SIG_COMPLETE,REC_DRYPIT);</text>
<polygon fill="none" stroke="black" points="17.53,-54 17.53,-134 251.53,-134 251.53,-54 17.53,-54"/>
</g>
<!-- 30&#45;&gt;1 -->
<g id="edge3" class="edge">
<title>30&#45;&gt;1</title>
<path fill="none" stroke="black" d="M273.53,-35.62C273.53,-61.02 273.53,-109.77 273.53,-140.77"/>
<polygon fill="black" stroke="black" points="270.03,-140.57 273.53,-150.57 277.03,-140.57 270.03,-140.57"/>
<polygon fill="none" stroke="black" points="276.53,-113 276.53,-131 486.53,-131 486.53,-113 276.53,-113"/>
<text text-anchor="start" x="336.53" y="-120" font-family="Courier New" font-weight="bold" font-size="10.00" fill="orange">GRAB(,IDD_SEED)</text>
<polygon fill="none" stroke="black" points="276.53,-57 276.53,-111 486.53,-111 486.53,-57 276.53,-57"/>
<text text-anchor="start" x="279.53" y="-99" font-family="Courier New" font-size="10.00" fill="blue"> &#160;&#160;&#160;PLAYWAVE(SOUND_BUZZFUZZ);</text>
<text text-anchor="start" x="279.53" y="-87" font-family="Courier New" font-size="10.00" fill="blue"> &#160;&#160;&#160;SHOW(0,IDS_FLOPN1);</text>
<text text-anchor="start" x="279.53" y="-75" font-family="Courier New" font-size="10.00" fill="blue"> &#160;&#160;&#160;ANIMATE(0,V_REVERSE);</text>
<text text-anchor="start" x="279.53" y="-63" font-family="Courier New" font-size="10.00" fill="blue"> &#160;&#160;&#160;SIGNALi(SIG_CLOSE,S10_DRYPIT);</text>
<polygon fill="none" stroke="black" points="273.53,-54 273.53,-134 489.53,-134 489.53,-54 273.53,-54"/>
</g>
<!-- 30&#45;&gt;1 -->
<g id="edge4" class="edge">
<title>30&#45;&gt;1</title>
<path fill="none" stroke="black" d="M300.51,-19.19C353.13,-20.19 466.41,-25.67 490.53,-54 513.59,-81.07 513.59,-106.93 490.53,-134 468.01,-160.45 367.78,-166.98 311.75,-168.55"/>
<polygon fill="black" stroke="black" points="311.94,-165.04 302.03,-168.77 312.11,-172.04 311.94,-165.04"/>
<polygon fill="none" stroke="black" points="510.53,-107 510.53,-125 690.53,-125 690.53,-107 510.53,-107"/>
<text text-anchor="start" x="552.52" y="-114" font-family="Courier New" font-weight="bold" font-size="10.00" fill="orange">WAIT(,SIG_CLOSE)</text>
<polygon fill="none" stroke="black" points="510.53,-63 510.53,-105 690.53,-105 690.53,-63 510.53,-63"/>
<text text-anchor="start" x="513.53" y="-93" font-family="Courier New" font-size="10.00" fill="blue"> &#160;&#160;&#160;PLAYWAVE(SOUND_BUZZFUZZ);</text>
<text text-anchor="start" x="513.53" y="-81" font-family="Courier New" font-size="10.00" fill="blue"> &#160;&#160;&#160;SHOW(0,IDS_FLOPN1);</text>
<text text-anchor="start" x="513.53" y="-69" font-family="Courier New" font-size="10.00" fill="blue"> &#160;&#160;&#160;ANIMATE(0,V_REVERSE);</text>
<polygon fill="none" stroke="black" points="507.53,-60 507.53,-128 693.53,-128 693.53,-60 507.53,-60"/>
</g>
</g>
</svg>
