<?xml version="1.0" encoding="UTF-8" standalone="no"?>
<!DOCTYPE svg PUBLIC "-//W3C//DTD SVG 1.1//EN"
 "http://www.w3.org/Graphics/SVG/1.1/DTD/svg11.dtd">
<!-- Generated by graphviz version 7.1.0 (20230121.1956)
 -->
<!-- Title: Automaton Pages: 1 -->
<svg width="1081pt" height="493pt"
 viewBox="0.00 0.00 1081.25 493.00" xmlns="http://www.w3.org/2000/svg" xmlns:xlink="http://www.w3.org/1999/xlink">
<g id="graph0" class="graph" transform="scale(1 1) rotate(0) translate(4 489)">
<title>Automaton</title>
<polygon fill="white" stroke="none" points="-4,4 -4,-489 1077.25,-489 1077.25,4 -4,4"/>
<!-- filename -->
<g id="node1" class="node">
<title>filename</title>
<polygon fill="none" stroke="black" points="254.25,-432.5 254.25,-484.5 372.25,-484.5 372.25,-432.5 254.25,-432.5"/>
<polygon fill="none" stroke="black" points="265.25,-459.5 265.25,-477.5 361.25,-477.5 361.25,-459.5 265.25,-459.5"/>
<text text-anchor="start" x="283.24" y="-466.5" font-family="Courier New" font-weight="bold" font-size="10.00">M10_DRYPIT</text>
<polygon fill="none" stroke="black" points="265.25,-439.5 265.25,-457.5 361.25,-457.5 361.25,-439.5 265.25,-439.5"/>
<text text-anchor="start" x="268.25" y="-445.5" font-family="Courier New" font-size="10.00" fill="brown">start state = 0</text>
<polygon fill="none" stroke="black" points="262.25,-436.5 262.25,-480.5 364.25,-480.5 364.25,-436.5 262.25,-436.5"/>
</g>
<!-- 0 -->
<g id="node2" class="node">
<title>0</title>
<polyline fill="none" stroke="darkred" points="410.25,-447.5 424.25,-447.5"/>
<text text-anchor="start" x="413.25" y="-454.9" font-family="Courier New" font-weight="bold" font-size="14.00">0</text>
<path fill="none" stroke="darkred" d="M413.91,-444.5C413.91,-444.5 420.58,-444.5 420.58,-444.5 423.91,-444.5 427.25,-447.83 427.25,-451.17 427.25,-451.17 427.25,-465.83 427.25,-465.83 427.25,-469.17 423.91,-472.5 420.58,-472.5 420.58,-472.5 413.91,-472.5 413.91,-472.5 410.58,-472.5 407.25,-469.17 407.25,-465.83 407.25,-465.83 407.25,-451.17 407.25,-451.17 407.25,-447.83 410.58,-444.5 413.91,-444.5"/>
</g>
<!-- 10 -->
<g id="node3" class="node">
<title>10</title>
<polyline fill="none" stroke="darkred" points="476.25,-263 498.25,-263"/>
<text text-anchor="start" x="479.25" y="-270.4" font-family="Courier New" font-weight="bold" font-size="14.00">10</text>
<path fill="none" stroke="darkred" d="M482.58,-260C482.58,-260 491.91,-260 491.91,-260 496.58,-260 501.25,-264.67 501.25,-269.33 501.25,-269.33 501.25,-278.67 501.25,-278.67 501.25,-283.33 496.58,-288 491.91,-288 491.91,-288 482.58,-288 482.58,-288 477.91,-288 473.25,-283.33 473.25,-278.67 473.25,-278.67 473.25,-269.33 473.25,-269.33 473.25,-264.67 477.91,-260 482.58,-260"/>
</g>
<!-- 0&#45;&gt;10 -->
<g id="edge1" class="edge">
<title>0&#45;&gt;10</title>
<path fill="none" stroke="black" d="M396.35,-440.74C391.58,-437.48 386.4,-434.36 381.25,-432 350.86,-418.1 328.85,-440.31 308.25,-414 279.74,-377.61 278.87,-345.68 308.25,-310 325.74,-288.76 401.96,-280.23 449.12,-276.94"/>
<polygon fill="black" stroke="black" points="449.17,-280.44 458.92,-276.31 448.72,-273.46 449.17,-280.44"/>
<polygon fill="none" stroke="black" points="311.25,-393 311.25,-411 503.25,-411 503.25,-393 311.25,-393"/>
<text text-anchor="start" x="371.24" y="-400" font-family="Courier New" font-weight="bold" font-size="10.00" fill="blue">Z_EPSILON(,)</text>
<polygon fill="none" stroke="black" points="311.25,-313 311.25,-391 503.25,-391 503.25,-313 311.25,-313"/>
<text text-anchor="start" x="314.25" y="-379" font-family="Courier New" font-size="10.00" fill="blue"> &#160;&#160;&#160;ASSIGN(BFRAME,9);</text>
<text text-anchor="start" x="314.25" y="-367" font-family="Courier New" font-size="10.00" fill="blue"> &#160;&#160;&#160;MUL(BFRAME,BPARM);</text>
<text text-anchor="start" x="314.25" y="-355" font-family="Courier New" font-size="10.00" fill="blue"> &#160;&#160;&#160;ASSIGN(WPARM,MAX_DRYPIT);</text>
<text text-anchor="start" x="314.25" y="-343" font-family="Courier New" font-size="10.00" fill="blue"> &#160;&#160;&#160;DIV(BFRAME,WPARM);</text>
<text text-anchor="start" x="314.25" y="-331" font-family="Courier New" font-size="10.00" fill="blue"> &#160;&#160;&#160;ASSIGN(WSPRITE,IDS_PITFUL);</text>
<text text-anchor="start" x="314.25" y="-319" font-family="Courier New" font-size="10.00" fill="blue"> &#160;&#160;&#160;SHOW(WSPRITE);</text>
<polygon fill="none" stroke="black" points="308.25,-310 308.25,-414 506.25,-414 506.25,-310 308.25,-310"/>
</g>
<!-- 10&#45;&gt;0 -->
<g id="edge4" class="edge">
<title>10&#45;&gt;0</title>
<path fill="none" stroke="black" d="M498.52,-291.74C501.66,-297.31 504.65,-303.7 506.25,-310 517.62,-354.8 530.73,-374.79 506.25,-414 495.03,-431.96 474.01,-442.71 455.22,-449.03"/>
<polygon fill="black" stroke="black" points="454.23,-445.67 445.66,-451.9 456.24,-452.38 454.23,-445.67"/>
<polygon fill="none" stroke="black" points="522.25,-369 522.25,-387 690.25,-387 690.25,-369 522.25,-369"/>
<text text-anchor="start" x="558.24" y="-376" font-family="Courier New" font-weight="bold" font-size="10.00" fill="orange">WAIT(,SIG_CLOSE)</text>
<polygon fill="none" stroke="black" points="522.25,-337 522.25,-367 690.25,-367 690.25,-337 522.25,-337"/>
<text text-anchor="start" x="525.25" y="-355" font-family="Courier New" font-size="10.00" fill="blue"> &#160;&#160;&#160;MOV(BPARM,0);</text>
<text text-anchor="start" x="525.25" y="-343" font-family="Courier New" font-size="10.00" fill="blue"> &#160;&#160;&#160;PLAYWAVE(SOUND_BURBLE);</text>
<polygon fill="none" stroke="black" points="519.25,-334 519.25,-390 693.25,-390 693.25,-334 519.25,-334"/>
</g>
<!-- 21 -->
<g id="node4" class="node">
<title>21</title>
<polyline fill="none" stroke="darkred" points="297.25,-147 319.25,-147"/>
<text text-anchor="start" x="300.25" y="-154.4" font-family="Courier New" font-weight="bold" font-size="14.00">21</text>
<path fill="none" stroke="darkred" d="M303.58,-144C303.58,-144 312.91,-144 312.91,-144 317.58,-144 322.25,-148.67 322.25,-153.33 322.25,-153.33 322.25,-162.67 322.25,-162.67 322.25,-167.33 317.58,-172 312.91,-172 312.91,-172 303.58,-172 303.58,-172 298.91,-172 294.25,-167.33 294.25,-162.67 294.25,-162.67 294.25,-153.33 294.25,-153.33 294.25,-148.67 298.91,-144 303.58,-144"/>
</g>
<!-- 10&#45;&gt;21 -->
<g id="edge2" class="edge">
<title>10&#45;&gt;21</title>
<path fill="none" stroke="black" d="M460.25,-271.72C415.31,-268.96 328.2,-260.74 309.25,-238 297.62,-224.04 297.75,-203.38 300.59,-186.69"/>
<polygon fill="black" stroke="black" points="303.92,-187.89 302.57,-177.38 297.07,-186.44 303.92,-187.89"/>
<text text-anchor="start" x="313.25" y="-214" font-family="Courier New" font-weight="bold" font-size="10.00" fill="orange">DRAG(0,IDD_SCOOPE)</text>
</g>
<!-- 31 -->
<g id="node5" class="node">
<title>31</title>
<polyline fill="none" stroke="darkred" points="604.25,-147 626.25,-147"/>
<text text-anchor="start" x="607.25" y="-154.4" font-family="Courier New" font-weight="bold" font-size="14.00">31</text>
<path fill="none" stroke="darkred" d="M610.58,-144C610.58,-144 619.91,-144 619.91,-144 624.58,-144 629.25,-148.67 629.25,-153.33 629.25,-153.33 629.25,-162.67 629.25,-162.67 629.25,-167.33 624.58,-172 619.91,-172 619.91,-172 610.58,-172 610.58,-172 605.91,-172 601.25,-167.33 601.25,-162.67 601.25,-162.67 601.25,-153.33 601.25,-153.33 601.25,-148.67 605.91,-144 610.58,-144"/>
</g>
<!-- 10&#45;&gt;31 -->
<g id="edge3" class="edge">
<title>10&#45;&gt;31</title>
<path fill="none" stroke="black" d="M513.9,-256.36C521.07,-251.08 528.44,-244.81 534.25,-238 548.57,-221.21 542.13,-210.07 557.25,-194 563.42,-187.43 571.1,-181.66 578.82,-176.8"/>
<polygon fill="black" stroke="black" points="580.35,-179.96 587.22,-171.89 576.82,-173.92 580.35,-179.96"/>
<text text-anchor="start" x="561.25" y="-214" font-family="Courier New" font-weight="bold" font-size="10.00" fill="orange">DRAG(0,IDD_SCOOPF)</text>
</g>
<!-- 21&#45;&gt;10 -->
<g id="edge6" class="edge">
<title>21&#45;&gt;10</title>
<path fill="none" stroke="black" d="M335.06,-160.62C361.02,-163.52 400.06,-171.6 425.25,-194 441.16,-208.16 431.4,-221.01 444.25,-238 447.12,-241.8 450.49,-245.44 454.06,-248.84"/>
<polygon fill="black" stroke="black" points="451.62,-251.36 461.46,-255.3 456.23,-246.08 451.62,-251.36"/>
<text text-anchor="start" x="448.25" y="-214" font-family="Courier New" font-weight="bold" font-size="10.00" fill="blue">Z_EPSILON(0,)</text>
</g>
<!-- 25 -->
<g id="node6" class="node">
<title>25</title>
<polyline fill="none" stroke="darkred" points="82.25,-7 104.25,-7"/>
<text text-anchor="start" x="85.25" y="-14.4" font-family="Courier New" font-weight="bold" font-size="14.00">25</text>
<path fill="none" stroke="darkred" d="M88.58,-4C88.58,-4 97.91,-4 97.91,-4 102.58,-4 107.25,-8.67 107.25,-13.33 107.25,-13.33 107.25,-22.67 107.25,-22.67 107.25,-27.33 102.58,-32 97.91,-32 97.91,-32 88.58,-32 88.58,-32 83.91,-32 79.25,-27.33 79.25,-22.67 79.25,-22.67 79.25,-13.33 79.25,-13.33 79.25,-8.67 83.91,-4 88.58,-4"/>
</g>
<!-- 21&#45;&gt;25 -->
<g id="edge5" class="edge">
<title>21&#45;&gt;25</title>
<path fill="none" stroke="black" d="M281.88,-140.08C243.5,-115.44 172.11,-69.62 129.02,-41.96"/>
<polygon fill="black" stroke="black" points="131.07,-39.12 120.76,-36.66 127.29,-45.01 131.07,-39.12"/>
<polygon fill="none" stroke="black" points="254.25,-101 254.25,-119 416.25,-119 416.25,-101 254.25,-101"/>
<text text-anchor="start" x="296.24" y="-108" font-family="Courier New" font-weight="bold" font-size="10.00" fill="blue">GTEi(BPARM,1)</text>
<polygon fill="none" stroke="black" points="254.25,-57 254.25,-99 416.25,-99 416.25,-57 254.25,-57"/>
<text text-anchor="start" x="257.25" y="-87" font-family="Courier New" font-size="10.00" fill="blue"> &#160;&#160;&#160;PLAYWAVE(SOUND_SLURP);</text>
<text text-anchor="start" x="257.25" y="-75" font-family="Courier New" font-size="10.00" fill="blue"> &#160;&#160;&#160;SUBI(BPARM,1);</text>
<text text-anchor="start" x="257.25" y="-63" font-family="Courier New" font-size="10.00" fill="blue"> &#160;&#160;&#160;HANDOFF(0,IDD_SCOOPF);</text>
<polygon fill="none" stroke="black" points="251.25,-54 251.25,-122 419.25,-122 419.25,-54 251.25,-54"/>
</g>
<!-- 31&#45;&gt;10 -->
<g id="edge10" class="edge">
<title>31&#45;&gt;10</title>
<path fill="none" stroke="black" d="M641.99,-168.15C653.79,-173.68 666.48,-182.02 673.25,-194 682.86,-211.03 685.73,-222.95 673.25,-238 654.84,-260.2 574.23,-268.41 525.37,-271.38"/>
<polygon fill="black" stroke="black" points="525.29,-267.88 515.5,-271.93 525.68,-274.87 525.29,-267.88"/>
<text text-anchor="start" x="685.25" y="-214" font-family="Courier New" font-weight="bold" font-size="10.00" fill="blue">Z_EPSILON(,)</text>
</g>
<!-- 35 -->
<g id="node7" class="node">
<title>35</title>
<polyline fill="none" stroke="darkred" points="787.25,-7 809.25,-7"/>
<text text-anchor="start" x="790.25" y="-14.4" font-family="Courier New" font-weight="bold" font-size="14.00">35</text>
<path fill="none" stroke="darkred" d="M793.58,-4C793.58,-4 802.91,-4 802.91,-4 807.58,-4 812.25,-8.67 812.25,-13.33 812.25,-13.33 812.25,-22.67 812.25,-22.67 812.25,-27.33 807.58,-32 802.91,-32 802.91,-32 793.58,-32 793.58,-32 788.91,-32 784.25,-27.33 784.25,-22.67 784.25,-22.67 784.25,-13.33 784.25,-13.33 784.25,-8.67 788.91,-4 793.58,-4"/>
</g>
<!-- 31&#45;&gt;35 -->
<g id="edge9" class="edge">
<title>31&#45;&gt;35</title>
<path fill="none" stroke="black" d="M609.57,-140.19C603.17,-117.79 596.09,-78.17 616.25,-54 634.2,-32.48 712.02,-24.04 759.9,-20.84"/>
<polygon fill="black" stroke="black" points="760.1,-24.34 769.87,-20.23 759.67,-17.35 760.1,-24.34"/>
<polygon fill="none" stroke="black" points="619.25,-101 619.25,-119 781.25,-119 781.25,-101 619.25,-101"/>
<text text-anchor="start" x="628.24" y="-108" font-family="Courier New" font-weight="bold" font-size="10.00" fill="blue">LTEi(BPARM,MAX_DRYPIT&#45;1)</text>
<polygon fill="none" stroke="black" points="619.25,-57 619.25,-99 781.25,-99 781.25,-57 619.25,-57"/>
<text text-anchor="start" x="622.25" y="-87" font-family="Courier New" font-size="10.00" fill="blue"> &#160;&#160;&#160;PLAYWAVE(SOUND_SPIT);</text>
<text text-anchor="start" x="622.25" y="-75" font-family="Courier New" font-size="10.00" fill="blue"> &#160;&#160;&#160;ADDI(BPARM,1);</text>
<text text-anchor="start" x="622.25" y="-63" font-family="Courier New" font-size="10.00" fill="blue"> &#160;&#160;&#160;HANDOFF(0,IDD_SCOOPE);</text>
<polygon fill="none" stroke="black" points="616.25,-54 616.25,-122 784.25,-122 784.25,-54 616.25,-54"/>
</g>
<!-- 25&#45;&gt;0 -->
<g id="edge7" class="edge">
<title>25&#45;&gt;0</title>
<path fill="none" stroke="black" d="M90.01,-35.88C83.53,-73.94 72.13,-168.53 103.25,-238 148.99,-340.11 183.9,-362.54 283.25,-414 322.57,-434.37 340.44,-414.8 381.25,-432 383.26,-432.85 385.27,-433.82 387.25,-434.89"/>
<polygon fill="black" stroke="black" points="385.19,-437.73 395.55,-439.97 388.85,-431.76 385.19,-437.73"/>
<polygon fill="none" stroke="black" points="106.25,-217 106.25,-235 292.25,-235 292.25,-217 106.25,-217"/>
<text text-anchor="start" x="121.23" y="-224" font-family="Courier New" font-weight="bold" font-size="10.00" fill="blue">EQUALi(BPARM,MAX_DRYPIT&#45;1)</text>
<polygon fill="none" stroke="black" points="106.25,-197 106.25,-215 292.25,-215 292.25,-197 106.25,-197"/>
<text text-anchor="start" x="109.25" y="-203" font-family="Courier New" font-size="10.00" fill="blue">SIGNALi(SIG_CLOSE,S10_FLOWER);</text>
<polygon fill="none" stroke="black" points="103.25,-194 103.25,-238 295.25,-238 295.25,-194 103.25,-194"/>
</g>
<!-- 25&#45;&gt;0 -->
<g id="edge8" class="edge">
<title>25&#45;&gt;0</title>
<path fill="none" stroke="black" d="M77.89,-35.81C46.56,-72.21 -19.65,-161.25 6.25,-238 37.67,-331.16 53.84,-367.1 140.25,-414 187.45,-439.62 330.72,-413.82 381.25,-432 383.36,-432.76 385.45,-433.68 387.51,-434.71"/>
<polygon fill="black" stroke="black" points="385.71,-437.71 396.09,-439.82 389.29,-431.69 385.71,-437.71"/>
<text text-anchor="start" x="10.25" y="-214" font-family="Courier New" font-weight="bold" font-size="10.00" fill="blue">Z_EPSILON(,)</text>
</g>
<!-- 35&#45;&gt;0 -->
<g id="edge11" class="edge">
<title>35&#45;&gt;0</title>
<path fill="none" stroke="black" d="M800.13,-35.7C806.11,-97.82 817.69,-316.98 697.25,-414 660.75,-443.4 523.44,-453.14 455.63,-456.19"/>
<polygon fill="black" stroke="black" points="455.56,-452.69 445.71,-456.61 455.85,-459.68 455.56,-452.69"/>
<polygon fill="none" stroke="black" points="800.25,-217 800.25,-235 980.25,-235 980.25,-217 800.25,-217"/>
<text text-anchor="start" x="818.24" y="-224" font-family="Courier New" font-weight="bold" font-size="10.00" fill="blue">EQUALi(BPARM,MAX_DRYPIT)</text>
<polygon fill="none" stroke="black" points="800.25,-197 800.25,-215 980.25,-215 980.25,-197 800.25,-197"/>
<text text-anchor="start" x="803.25" y="-203" font-family="Courier New" font-size="10.00" fill="blue">SIGNALi(SIG_OPEN,S10_FLOWER);</text>
<polygon fill="none" stroke="black" points="797.25,-194 797.25,-238 983.25,-238 983.25,-194 797.25,-194"/>
</g>
<!-- 35&#45;&gt;0 -->
<g id="edge12" class="edge">
<title>35&#45;&gt;0</title>
<path fill="none" stroke="black" d="M824.85,-31.62C886.58,-62.77 1030.94,-147.38 985.25,-238 885.13,-436.55 566.09,-457.01 455.46,-457.99"/>
<polygon fill="black" stroke="black" points="455.72,-454.49 445.73,-458.02 455.74,-461.49 455.72,-454.49"/>
<text text-anchor="start" x="997.25" y="-214" font-family="Courier New" font-weight="bold" font-size="10.00" fill="blue">Z_EPSILON(,)</text>
</g>
</g>
</svg>
