<?xml version="1.0" encoding="UTF-8" standalone="no"?>
<!DOCTYPE svg PUBLIC "-//W3C//DTD SVG 1.1//EN"
 "http://www.w3.org/Graphics/SVG/1.1/DTD/svg11.dtd">
<!-- Generated by graphviz version 7.1.0 (20230121.1956)
 -->
<!-- Pages: 1 -->
<svg width="745pt" height="301pt"
 viewBox="0.00 0.00 745.02 301.00" xmlns="http://www.w3.org/2000/svg" xmlns:xlink="http://www.w3.org/1999/xlink">
<g id="graph0" class="graph" transform="scale(1 1) rotate(0) translate(4 297)">
<polygon fill="white" stroke="none" points="-4,4 -4,-297 741.02,-297 741.02,4 -4,4"/>
<!-- 0 -->
<g id="node1" class="node">
<title>0</title>
<ellipse fill="none" stroke="black" cx="289.02" cy="-275" rx="27" ry="18"/>
<text text-anchor="middle" x="289.02" y="-270.8" font-family="Times,serif" font-size="14.00">0</text>
</g>
<!-- 1 -->
<g id="node2" class="node">
<title>1</title>
<ellipse fill="none" stroke="black" cx="289.02" cy="-181" rx="27" ry="18"/>
<text text-anchor="middle" x="289.02" y="-176.8" font-family="Times,serif" font-size="14.00">1</text>
</g>
<!-- 0&#45;&gt;1 -->
<g id="edge1" class="edge">
<title>0&#45;&gt;1</title>
<path fill="none" stroke="black" d="M289.02,-256.7C289.02,-243.72 289.02,-225.66 289.02,-210.56"/>
<polygon fill="black" stroke="black" points="292.52,-210.74 289.02,-200.74 285.52,-210.74 292.52,-210.74"/>
<text text-anchor="start" x="293.02" y="-225.2" font-family="Courier New" font-weight="bold" font-size="12.00" fill="blue">SHOW(0IDS_FLOPN1)</text>
</g>
<!-- 30 -->
<g id="node3" class="node">
<title>30</title>
<ellipse fill="none" stroke="black" cx="289.02" cy="-18" rx="27" ry="18"/>
<text text-anchor="middle" x="289.02" y="-13.8" font-family="Times,serif" font-size="14.00">30</text>
</g>
<!-- 1&#45;&gt;30 -->
<g id="edge2" class="edge">
<title>1&#45;&gt;30</title>
<path fill="none" stroke="black" d="M262.19,-178.49C197.27,-174.56 35.87,-163.05 20.02,-145 -6.67,-114.61 -6.67,-84.39 20.02,-54 35,-36.94 180.06,-25.72 250.71,-21.22"/>
<polygon fill="black" stroke="black" points="250.92,-24.72 260.68,-20.61 250.48,-17.73 250.92,-24.72"/>
<polygon fill="none" stroke="black" points="23.52,-121.5 23.52,-141.5 264.52,-141.5 264.52,-121.5 23.52,-121.5"/>
<text text-anchor="start" x="93.61" y="-128.7" font-family="Courier New" font-weight="bold" font-size="12.00" fill="orange">WAIT(SIG_OPEN)</text>
<polygon fill="none" stroke="black" points="23.52,-56.5 23.52,-119.5 264.52,-119.5 264.52,-56.5 23.52,-56.5"/>
<text text-anchor="start" x="26.52" y="-105.7" font-family="Times,serif" font-size="12.00" fill="blue"> &#160;&#160;&#160;PLAYWAVE(SOUND_BUZZFUZZ);</text>
<text text-anchor="start" x="26.52" y="-91.3" font-family="Times,serif" font-size="12.00" fill="blue"> &#160;&#160;&#160;SHOW(0,IDS_FLOPN1);</text>
<text text-anchor="start" x="26.52" y="-76.9" font-family="Times,serif" font-size="12.00" fill="blue"> &#160;&#160;&#160;ANIMATE();</text>
<text text-anchor="start" x="26.52" y="-62.5" font-family="Times,serif" font-size="12.00" fill="blue"> &#160;&#160;&#160;SIGNALi(SIG_COMPLETE,REC_DRYPIT);</text>
<polygon fill="none" stroke="black" points="20.02,-54 20.02,-145 267.02,-145 267.02,-54 20.02,-54"/>
</g>
<!-- 30&#45;&gt;1 -->
<g id="edge3" class="edge">
<title>30&#45;&gt;1</title>
<path fill="none" stroke="black" d="M289.02,-36.11C289.02,-63.62 289.02,-118.02 289.02,-151.48"/>
<polygon fill="black" stroke="black" points="285.52,-151.26 289.02,-161.26 292.52,-151.26 285.52,-151.26"/>
<polygon fill="none" stroke="black" points="292.52,-121.5 292.52,-141.5 503.52,-141.5 503.52,-121.5 292.52,-121.5"/>
<text text-anchor="start" x="347.61" y="-128.7" font-family="Courier New" font-weight="bold" font-size="12.00" fill="orange">GRAB(IDD_SEED)</text>
<polygon fill="none" stroke="black" points="292.52,-56.5 292.52,-119.5 503.52,-119.5 503.52,-56.5 292.52,-56.5"/>
<text text-anchor="start" x="295.52" y="-105.7" font-family="Times,serif" font-size="12.00" fill="blue"> &#160;&#160;&#160;PLAYWAVE(SOUND_BUZZFUZZ);</text>
<text text-anchor="start" x="295.52" y="-91.3" font-family="Times,serif" font-size="12.00" fill="blue"> &#160;&#160;&#160;SHOW(0,IDS_FLOPN1);</text>
<text text-anchor="start" x="295.52" y="-76.9" font-family="Times,serif" font-size="12.00" fill="blue"> &#160;&#160;&#160;ANIMATE(0,V_REVERSE);</text>
<text text-anchor="start" x="295.52" y="-62.5" font-family="Times,serif" font-size="12.00" fill="blue"> &#160;&#160;&#160;SIGNALi(SIG_CLOSE,S10_DRYPIT);</text>
<polygon fill="none" stroke="black" points="289.02,-54 289.02,-145 506.02,-145 506.02,-54 289.02,-54"/>
</g>
<!-- 30&#45;&gt;1 -->
<g id="edge4" class="edge">
<title>30&#45;&gt;1</title>
<path fill="none" stroke="black" d="M316.12,-19.17C368.98,-20.14 482.78,-25.56 507.02,-54 533.25,-84.78 533.25,-114.22 507.02,-145 484.39,-171.56 383.7,-178.04 327.41,-179.57"/>
<polygon fill="black" stroke="black" points="327.55,-176.07 317.64,-179.8 327.71,-183.07 327.55,-176.07"/>
<polygon fill="none" stroke="black" points="529.52,-114.5 529.52,-134.5 734.52,-134.5 734.52,-114.5 529.52,-114.5"/>
<text text-anchor="start" x="578.01" y="-121.7" font-family="Courier New" font-weight="bold" font-size="12.00" fill="orange">WAIT(SIG_CLOSE)</text>
<polygon fill="none" stroke="black" points="529.52,-63.5 529.52,-112.5 734.52,-112.5 734.52,-63.5 529.52,-63.5"/>
<text text-anchor="start" x="532.52" y="-98.7" font-family="Times,serif" font-size="12.00" fill="blue"> &#160;&#160;&#160;PLAYWAVE(SOUND_BUZZFUZZ);</text>
<text text-anchor="start" x="532.52" y="-84.3" font-family="Times,serif" font-size="12.00" fill="blue"> &#160;&#160;&#160;SHOW(0,IDS_FLOPN1);</text>
<text text-anchor="start" x="532.52" y="-69.9" font-family="Times,serif" font-size="12.00" fill="blue"> &#160;&#160;&#160;ANIMATE(0,V_REVERSE);</text>
<polygon fill="none" stroke="black" points="526.02,-61 526.02,-138 737.02,-138 737.02,-61 526.02,-61"/>
</g>
</g>
</svg>
