<?xml version="1.0" encoding="UTF-8" standalone="no"?>
<!DOCTYPE svg PUBLIC "-//W3C//DTD SVG 1.1//EN"
 "http://www.w3.org/Graphics/SVG/1.1/DTD/svg11.dtd">
<!-- Generated by graphviz version 7.1.0 (20230121.1956)
 -->
<!-- Pages: 1 -->
<svg width="1013pt" height="450pt"
 viewBox="0.00 0.00 1012.71 450.00" xmlns="http://www.w3.org/2000/svg" xmlns:xlink="http://www.w3.org/1999/xlink">
<g id="graph0" class="graph" transform="scale(1 1) rotate(0) translate(4 446)">
<polygon fill="white" stroke="none" points="-4,4 -4,-446 1008.71,-446 1008.71,4 -4,4"/>
<!-- 0 -->
<g id="node1" class="node">
<title>0</title>
<ellipse fill="none" stroke="black" cx="479.71" cy="-424" rx="27" ry="18"/>
<text text-anchor="middle" x="479.71" y="-419.8" font-family="Times,serif" font-size="14.00">0</text>
</g>
<!-- 10 -->
<g id="node2" class="node">
<title>10</title>
<ellipse fill="none" stroke="black" cx="480.71" cy="-263" rx="27" ry="18"/>
<text text-anchor="middle" x="480.71" y="-258.8" font-family="Times,serif" font-size="14.00">10</text>
</g>
<!-- 0&#45;&gt;10 -->
<g id="edge1" class="edge">
<title>0&#45;&gt;10</title>
<path fill="none" stroke="black" d="M453.26,-419.08C434.82,-414.81 411.49,-406.02 399.71,-388 378.06,-354.9 377.99,-332.05 399.71,-299 409.49,-284.13 427.07,-275.54 443.37,-270.61"/>
<polygon fill="black" stroke="black" points="444.08,-274.04 452.87,-268.12 442.31,-267.27 444.08,-274.04"/>
<polygon fill="none" stroke="black" points="402.71,-366.5 402.71,-384.5 536.71,-384.5 536.71,-366.5 402.71,-366.5"/>
<text text-anchor="start" x="433.71" y="-373.5" font-family="Courier New" font-weight="bold" font-size="10.00" fill="blue">Z_EPSILON(,)</text>
<polygon fill="none" stroke="black" points="402.71,-301.5 402.71,-364.5 536.71,-364.5 536.71,-301.5 402.71,-301.5"/>
<text text-anchor="start" x="405.71" y="-354.3" font-family="Times,serif" font-size="8.00" fill="blue"> &#160;&#160;&#160;ASSIGN(BFRAME,9);</text>
<text text-anchor="start" x="405.71" y="-344.7" font-family="Times,serif" font-size="8.00" fill="blue"> &#160;&#160;&#160;MUL(BFRAME,BPARM);</text>
<text text-anchor="start" x="405.71" y="-335.1" font-family="Times,serif" font-size="8.00" fill="blue"> &#160;&#160;&#160;ASSIGN(WPARM,MAX_DRYPIT);</text>
<text text-anchor="start" x="405.71" y="-325.5" font-family="Times,serif" font-size="8.00" fill="blue"> &#160;&#160;&#160;DIV(BFRAME,WPARM);</text>
<text text-anchor="start" x="405.71" y="-315.9" font-family="Times,serif" font-size="8.00" fill="blue"> &#160;&#160;&#160;ASSIGN(WSPRITE,IDS_PITFUL);</text>
<text text-anchor="start" x="405.71" y="-306.3" font-family="Times,serif" font-size="8.00" fill="blue"> &#160;&#160;&#160;SHOW(WSPRITE);</text>
<polygon fill="none" stroke="black" points="399.71,-299 399.71,-388 539.71,-388 539.71,-299 399.71,-299"/>
</g>
<!-- 10&#45;&gt;0 -->
<g id="edge4" class="edge">
<title>10&#45;&gt;0</title>
<path fill="none" stroke="black" d="M504.86,-271.69C517.65,-277.14 532.23,-285.86 539.71,-299 559.29,-333.37 559.41,-353.7 539.71,-388 534.01,-397.93 524.27,-405.32 514.29,-410.67"/>
<polygon fill="black" stroke="black" points="512.87,-407.47 505.31,-414.89 515.85,-413.8 512.87,-407.47"/>
<polygon fill="none" stroke="black" points="557.21,-347.5 557.21,-365.5 686.21,-365.5 686.21,-347.5 557.21,-347.5"/>
<text text-anchor="start" x="573.7" y="-354.5" font-family="Courier New" font-weight="bold" font-size="10.00" fill="orange">WAIT(,SIG_CLOSE)</text>
<polygon fill="none" stroke="black" points="557.21,-320.5 557.21,-345.5 686.21,-345.5 686.21,-320.5 557.21,-320.5"/>
<text text-anchor="start" x="560.21" y="-335.3" font-family="Times,serif" font-size="8.00" fill="blue"> &#160;&#160;&#160;MOV(BPARM,0);</text>
<text text-anchor="start" x="560.21" y="-325.7" font-family="Times,serif" font-size="8.00" fill="blue"> &#160;&#160;&#160;PLAYWAVE(SOUND_BURBLE);</text>
<polygon fill="none" stroke="black" points="553.71,-318 553.71,-369 688.71,-369 688.71,-318 553.71,-318"/>
</g>
<!-- 21 -->
<g id="node3" class="node">
<title>21</title>
<ellipse fill="none" stroke="black" cx="287.71" cy="-150" rx="27" ry="18"/>
<text text-anchor="middle" x="287.71" y="-145.8" font-family="Times,serif" font-size="14.00">21</text>
</g>
<!-- 10&#45;&gt;21 -->
<g id="edge2" class="edge">
<title>10&#45;&gt;21</title>
<path fill="none" stroke="black" d="M453.53,-261.14C405.69,-258.99 309.55,-251.65 288.71,-227 277.67,-213.94 277.55,-194.64 280.12,-178.75"/>
<polygon fill="black" stroke="black" points="283.46,-179.91 282.05,-169.41 276.6,-178.5 283.46,-179.91"/>
<text text-anchor="start" x="292.71" y="-204.5" font-family="Courier New" font-weight="bold" font-size="10.00" fill="orange">DRAG(0,IDD_SCOOPE)</text>
</g>
<!-- 31 -->
<g id="node4" class="node">
<title>31</title>
<ellipse fill="none" stroke="black" cx="606.71" cy="-150" rx="27" ry="18"/>
<text text-anchor="middle" x="606.71" y="-145.8" font-family="Times,serif" font-size="14.00">31</text>
</g>
<!-- 10&#45;&gt;31 -->
<g id="edge3" class="edge">
<title>10&#45;&gt;31</title>
<path fill="none" stroke="black" d="M495.69,-247.72C501.66,-241.63 508.37,-234.27 513.71,-227 526.08,-210.16 521.59,-200.42 536.71,-186 546.83,-176.35 560.12,-168.81 572.39,-163.23"/>
<polygon fill="black" stroke="black" points="573.57,-166.54 581.42,-159.43 570.85,-160.09 573.57,-166.54"/>
<text text-anchor="start" x="540.71" y="-204.5" font-family="Courier New" font-weight="bold" font-size="10.00" fill="orange">DRAG(0,IDD_SCOOPF)</text>
</g>
<!-- 21&#45;&gt;10 -->
<g id="edge6" class="edge">
<title>21&#45;&gt;10</title>
<path fill="none" stroke="black" d="M314.89,-152.82C340.76,-155.88 379.39,-164.07 404.71,-186 419.89,-199.15 410.36,-211.99 423.71,-227 430.67,-234.82 439.78,-241.47 448.68,-246.8"/>
<polygon fill="black" stroke="black" points="446.75,-249.73 457.19,-251.53 450.14,-243.61 446.75,-249.73"/>
<text text-anchor="start" x="427.71" y="-204.5" font-family="Courier New" font-weight="bold" font-size="10.00" fill="blue">Z_EPSILON(0,)</text>
</g>
<!-- 25 -->
<g id="node5" class="node">
<title>25</title>
<ellipse fill="none" stroke="black" cx="96.71" cy="-18" rx="27" ry="18"/>
<text text-anchor="middle" x="96.71" y="-13.8" font-family="Times,serif" font-size="14.00">25</text>
</g>
<!-- 21&#45;&gt;25 -->
<g id="edge5" class="edge">
<title>21&#45;&gt;25</title>
<path fill="none" stroke="black" d="M269.4,-136.54C235.83,-113.69 164.25,-64.97 124.6,-37.98"/>
<polygon fill="black" stroke="black" points="126.74,-35.2 116.5,-32.47 122.8,-40.99 126.74,-35.2"/>
<polygon fill="none" stroke="black" points="234.71,-93 234.71,-111 356.71,-111 356.71,-93 234.71,-93"/>
<text text-anchor="start" x="256.71" y="-100" font-family="Courier New" font-weight="bold" font-size="10.00" fill="blue">GTEi(BPARM,1)</text>
<polygon fill="none" stroke="black" points="234.71,-57 234.71,-91 356.71,-91 356.71,-57 234.71,-57"/>
<text text-anchor="start" x="237.71" y="-80.8" font-family="Times,serif" font-size="8.00" fill="blue"> &#160;&#160;&#160;PLAYWAVE(SOUND_SLURP);</text>
<text text-anchor="start" x="237.71" y="-71.2" font-family="Times,serif" font-size="8.00" fill="blue"> &#160;&#160;&#160;SUBI(BPARM,1);</text>
<text text-anchor="start" x="237.71" y="-61.6" font-family="Times,serif" font-size="8.00" fill="blue"> &#160;&#160;&#160;HANDOFF(0,IDD_SCOOPF);</text>
<polygon fill="none" stroke="black" points="231.71,-54 231.71,-114 359.71,-114 359.71,-54 231.71,-54"/>
</g>
<!-- 31&#45;&gt;10 -->
<g id="edge10" class="edge">
<title>31&#45;&gt;10</title>
<path fill="none" stroke="black" d="M627.82,-161.3C637.27,-167.13 647.45,-175.39 652.71,-186 660.8,-202.33 664.24,-212.89 652.71,-227 636.17,-247.24 564.55,-256.07 519.1,-259.7"/>
<polygon fill="black" stroke="black" points="519.11,-256.19 509.39,-260.42 519.62,-263.17 519.11,-256.19"/>
<text text-anchor="start" x="663.71" y="-204.5" font-family="Courier New" font-weight="bold" font-size="10.00" fill="blue">Z_EPSILON(,)</text>
</g>
<!-- 35 -->
<g id="node6" class="node">
<title>35</title>
<ellipse fill="none" stroke="black" cx="777.71" cy="-18" rx="27" ry="18"/>
<text text-anchor="middle" x="777.71" y="-13.8" font-family="Times,serif" font-size="14.00">35</text>
</g>
<!-- 31&#45;&gt;35 -->
<g id="edge9" class="edge">
<title>31&#45;&gt;35</title>
<path fill="none" stroke="black" d="M601.14,-132.1C595.42,-111.25 589.67,-75.9 607.71,-54 624.07,-34.15 694.23,-25.21 739.15,-21.45"/>
<polygon fill="black" stroke="black" points="739.32,-24.95 749.02,-20.69 738.78,-17.97 739.32,-24.95"/>
<polygon fill="none" stroke="black" points="610.71,-93 610.71,-111 760.71,-111 760.71,-93 610.71,-93"/>
<text text-anchor="start" x="613.71" y="-100" font-family="Courier New" font-weight="bold" font-size="10.00" fill="blue">LTEi(BPARM,MAX_DRYPIT&#45;1)</text>
<polygon fill="none" stroke="black" points="610.71,-57 610.71,-91 760.71,-91 760.71,-57 610.71,-57"/>
<text text-anchor="start" x="631.49" y="-80.8" font-family="Times,serif" font-size="8.00" fill="blue"> &#160;&#160;&#160;PLAYWAVE(SOUND_SPIT);</text>
<text text-anchor="start" x="631.49" y="-71.2" font-family="Times,serif" font-size="8.00" fill="blue"> &#160;&#160;&#160;ADDI(BPARM,1);</text>
<text text-anchor="start" x="631.49" y="-61.6" font-family="Times,serif" font-size="8.00" fill="blue"> &#160;&#160;&#160;HANDOFF(0,IDD_SCOOPE);</text>
<polygon fill="none" stroke="black" points="607.71,-54 607.71,-114 763.71,-114 763.71,-54 607.71,-54"/>
</g>
<!-- 25&#45;&gt;0 -->
<g id="edge7" class="edge">
<title>25&#45;&gt;0</title>
<path fill="none" stroke="black" d="M92.56,-36.19C84.46,-73.9 70.43,-165.45 107.71,-227 182.53,-350.53 363.89,-400.19 442.42,-416.38"/>
<polygon fill="black" stroke="black" points="441.7,-419.8 452.19,-418.32 443.07,-412.94 441.7,-419.8"/>
<polygon fill="none" stroke="black" points="110.71,-205.5 110.71,-223.5 272.71,-223.5 272.71,-205.5 110.71,-205.5"/>
<text text-anchor="start" x="113.71" y="-212.5" font-family="Courier New" font-weight="bold" font-size="10.00" fill="blue">EQUALi(BPARM,MAX_DRYPIT&#45;1)</text>
<polygon fill="none" stroke="black" points="110.71,-188.5 110.71,-203.5 272.71,-203.5 272.71,-188.5 110.71,-188.5"/>
<text text-anchor="start" x="125.38" y="-193.3" font-family="Times,serif" font-size="8.00" fill="blue">SIGNALi(SIG_CLOSE,S10_FLOWER);</text>
<polygon fill="none" stroke="black" points="107.71,-186 107.71,-227 275.71,-227 275.71,-186 107.71,-186"/>
</g>
<!-- 25&#45;&gt;0 -->
<g id="edge8" class="edge">
<title>25&#45;&gt;0</title>
<path fill="none" stroke="black" d="M81.95,-33.58C49.55,-67.45 -22.61,-154.11 7.71,-227 46.7,-320.72 78.19,-344.09 169.71,-388 216.89,-410.64 369.48,-419.04 441.46,-421.8"/>
<polygon fill="black" stroke="black" points="441.07,-425.29 451.19,-422.16 441.32,-418.3 441.07,-425.29"/>
<text text-anchor="start" x="11.71" y="-204.5" font-family="Courier New" font-weight="bold" font-size="10.00" fill="blue">Z_EPSILON(,)</text>
</g>
<!-- 35&#45;&gt;0 -->
<g id="edge11" class="edge">
<title>35&#45;&gt;0</title>
<path fill="none" stroke="black" d="M776.39,-36.03C770.86,-102.17 747.39,-340.67 692.71,-388 667.17,-410.11 571.98,-418.43 517.9,-421.43"/>
<polygon fill="black" stroke="black" points="518.02,-417.92 508.21,-421.93 518.38,-424.91 518.02,-417.92"/>
<polygon fill="none" stroke="black" points="760.71,-205.5 760.71,-223.5 910.71,-223.5 910.71,-205.5 760.71,-205.5"/>
<text text-anchor="start" x="763.71" y="-212.5" font-family="Courier New" font-weight="bold" font-size="10.00" fill="blue">EQUALi(BPARM,MAX_DRYPIT)</text>
<polygon fill="none" stroke="black" points="760.71,-188.5 760.71,-203.5 910.71,-203.5 910.71,-188.5 760.71,-188.5"/>
<text text-anchor="start" x="771.6" y="-193.3" font-family="Times,serif" font-size="8.00" fill="blue">SIGNALi(SIG_OPEN,S10_FLOWER);</text>
<polygon fill="none" stroke="black" points="757.71,-186 757.71,-227 913.71,-227 913.71,-186 757.71,-186"/>
</g>
<!-- 35&#45;&gt;0 -->
<g id="edge12" class="edge">
<title>35&#45;&gt;0</title>
<path fill="none" stroke="black" d="M796.99,-31.07C843.47,-61.79 955.24,-146.28 917.71,-227 870.9,-327.67 828.06,-342.67 726.71,-388 690.2,-404.33 577.82,-415.31 518.03,-420.17"/>
<polygon fill="black" stroke="black" points="518.02,-416.66 508.33,-420.94 518.57,-423.63 518.02,-416.66"/>
<text text-anchor="start" x="928.71" y="-204.5" font-family="Courier New" font-weight="bold" font-size="10.00" fill="blue">Z_EPSILON(,)</text>
</g>
</g>
</svg>
