<?xml version="1.0" encoding="UTF-8" standalone="no"?>
<!DOCTYPE svg PUBLIC "-//W3C//DTD SVG 1.1//EN"
 "http://www.w3.org/Graphics/SVG/1.1/DTD/svg11.dtd">
<!-- Generated by graphviz version 7.1.0 (20230121.1956)
 -->
<!-- Pages: 1 -->
<svg width="496pt" height="278pt"
 viewBox="0.00 0.00 495.70 278.00" xmlns="http://www.w3.org/2000/svg" xmlns:xlink="http://www.w3.org/1999/xlink">
<g id="graph0" class="graph" transform="scale(1 1) rotate(0) translate(4 274)">
<polygon fill="white" stroke="none" points="-4,4 -4,-274 491.7,-274 491.7,4 -4,4"/>
<!-- 0 -->
<g id="node1" class="node">
<title>0</title>
<ellipse fill="none" stroke="black" cx="180.7" cy="-252" rx="27" ry="18"/>
<text text-anchor="middle" x="180.7" y="-247.8" font-family="Times,serif" font-size="14.00">0</text>
</g>
<!-- 1 -->
<g id="node2" class="node">
<title>1</title>
<ellipse fill="none" stroke="black" cx="180.7" cy="-160" rx="27" ry="18"/>
<text text-anchor="middle" x="180.7" y="-155.8" font-family="Times,serif" font-size="14.00">1</text>
</g>
<!-- 0&#45;&gt;1 -->
<g id="edge1" class="edge">
<title>0&#45;&gt;1</title>
<path fill="none" stroke="black" d="M180.7,-233.65C180.7,-221.2 180.7,-204.14 180.7,-189.68"/>
<polygon fill="black" stroke="black" points="184.2,-189.81 180.7,-179.81 177.2,-189.81 184.2,-189.81"/>
<text text-anchor="start" x="184.7" y="-204" font-family="Courier New" font-weight="bold" font-size="10.00" fill="blue">SHOW(0,IDS_FLOPN1)</text>
</g>
<!-- 30 -->
<g id="node3" class="node">
<title>30</title>
<ellipse fill="none" stroke="black" cx="180.7" cy="-18" rx="27" ry="18"/>
<text text-anchor="middle" x="180.7" y="-13.8" font-family="Times,serif" font-size="14.00">30</text>
</g>
<!-- 1&#45;&gt;30 -->
<g id="edge2" class="edge">
<title>1&#45;&gt;30</title>
<path fill="none" stroke="black" d="M153.78,-157.33C111.34,-154.06 31.91,-145.22 14.7,-124 -4.9,-99.84 -4.9,-78.16 14.7,-54 30.46,-34.57 98.43,-25.51 142.36,-21.62"/>
<polygon fill="black" stroke="black" points="142.59,-25.11 152.27,-20.8 142.02,-18.14 142.59,-25.11"/>
<polygon fill="none" stroke="black" points="17.7,-98 17.7,-116 155.7,-116 155.7,-98 17.7,-98"/>
<text text-anchor="start" x="41.69" y="-105" font-family="Courier New" font-weight="bold" font-size="10.00" fill="orange">WAIT(,SIG_OPEN)</text>
<polygon fill="none" stroke="black" points="17.7,-62 17.7,-96 155.7,-96 155.7,-62 17.7,-62"/>
<text text-anchor="start" x="20.7" y="-85.8" font-family="Times,serif" font-size="8.00" fill="blue"> &#160;&#160;&#160;PLAYWAVE(SOUND_BUZZFUZZ);</text>
<text text-anchor="start" x="20.7" y="-76.2" font-family="Times,serif" font-size="8.00" fill="blue"> &#160;&#160;&#160;SHOW(0,IDS_FLOPN1);</text>
<text text-anchor="start" x="20.7" y="-66.6" font-family="Times,serif" font-size="8.00" fill="blue"> &#160;&#160;&#160;ANIMATE();</text>
<polygon fill="none" stroke="black" points="14.7,-59 14.7,-119 158.7,-119 158.7,-59 14.7,-59"/>
</g>
<!-- 30&#45;&gt;1 -->
<g id="edge3" class="edge">
<title>30&#45;&gt;1</title>
<path fill="none" stroke="black" d="M180.7,-36.23C180.7,-59.71 180.7,-102.09 180.7,-130.38"/>
<polygon fill="black" stroke="black" points="177.2,-130.04 180.7,-140.04 184.2,-130.04 177.2,-130.04"/>
<polygon fill="none" stroke="black" points="183.7,-103 183.7,-121 325.7,-121 325.7,-103 183.7,-103"/>
<text text-anchor="start" x="209.69" y="-110" font-family="Courier New" font-weight="bold" font-size="10.00" fill="orange">GRAB(,IDD_SEED)</text>
<polygon fill="none" stroke="black" points="183.7,-57 183.7,-101 325.7,-101 325.7,-57 183.7,-57"/>
<text text-anchor="start" x="186.7" y="-90.8" font-family="Times,serif" font-size="8.00" fill="blue"> &#160;&#160;&#160;PLAYWAVE(SOUND_BUZZFUZZ);</text>
<text text-anchor="start" x="186.7" y="-81.2" font-family="Times,serif" font-size="8.00" fill="blue"> &#160;&#160;&#160;SHOW(0,IDS_FLOPN1);</text>
<text text-anchor="start" x="186.7" y="-71.6" font-family="Times,serif" font-size="8.00" fill="blue"> &#160;&#160;&#160;ANIMATE(0,V_REVERSE);</text>
<text text-anchor="start" x="186.7" y="-62" font-family="Times,serif" font-size="8.00" fill="blue"> &#160;&#160;&#160;SIGNALi(SIG_CLOSE,S10_DRYPIT);</text>
<polygon fill="none" stroke="black" points="180.7,-54 180.7,-124 328.7,-124 328.7,-54 180.7,-54"/>
</g>
<!-- 30&#45;&gt;1 -->
<g id="edge4" class="edge">
<title>30&#45;&gt;1</title>
<path fill="none" stroke="black" d="M207.73,-21.4C246.46,-25.46 314.76,-35.15 329.7,-54 349.02,-78.38 349.02,-99.62 329.7,-124 316.14,-141.12 258.55,-150.68 219.08,-155.34"/>
<polygon fill="black" stroke="black" points="218.78,-151.85 209.23,-156.43 219.56,-158.81 218.78,-151.85"/>
<polygon fill="none" stroke="black" points="346.7,-98 346.7,-116 484.7,-116 484.7,-98 346.7,-98"/>
<text text-anchor="start" x="367.69" y="-105" font-family="Courier New" font-weight="bold" font-size="10.00" fill="orange">WAIT(,SIG_CLOSE)</text>
<polygon fill="none" stroke="black" points="346.7,-62 346.7,-96 484.7,-96 484.7,-62 346.7,-62"/>
<text text-anchor="start" x="349.7" y="-85.8" font-family="Times,serif" font-size="8.00" fill="blue"> &#160;&#160;&#160;PLAYWAVE(SOUND_BUZZFUZZ);</text>
<text text-anchor="start" x="349.7" y="-76.2" font-family="Times,serif" font-size="8.00" fill="blue"> &#160;&#160;&#160;SHOW(0,IDS_FLOPN1);</text>
<text text-anchor="start" x="349.7" y="-66.6" font-family="Times,serif" font-size="8.00" fill="blue"> &#160;&#160;&#160;ANIMATE(0,V_REVERSE);</text>
<polygon fill="none" stroke="black" points="343.7,-59 343.7,-119 487.7,-119 487.7,-59 343.7,-59"/>
</g>
</g>
</svg>
