<?xml version="1.0" encoding="UTF-8" standalone="no"?>
<!DOCTYPE svg PUBLIC "-//W3C//DTD SVG 1.1//EN"
 "http://www.w3.org/Graphics/SVG/1.1/DTD/svg11.dtd">
<!-- Generated by graphviz version 7.1.0 (20230121.1956)
 -->
<!-- Title: Automaton Pages: 1 -->
<svg width="1062pt" height="517pt"
 viewBox="0.00 0.00 1062.24 517.00" xmlns="http://www.w3.org/2000/svg" xmlns:xlink="http://www.w3.org/1999/xlink">
<g id="graph0" class="graph" transform="scale(1 1) rotate(0) translate(4 513)">
<title>Automaton</title>
<polygon fill="white" stroke="none" points="-4,4 -4,-513 1058.24,-513 1058.24,4 -4,4"/>
<!-- filename -->
<g id="node1" class="node">
<title>filename</title>
<polygon fill="none" stroke="black" points="256.24,-456.5 256.24,-508.5 374.24,-508.5 374.24,-456.5 256.24,-456.5"/>
<polygon fill="none" stroke="black" points="267.24,-483.5 267.24,-501.5 363.24,-501.5 363.24,-483.5 267.24,-483.5"/>
<text text-anchor="start" x="285.24" y="-490.5" font-family="Courier New" font-weight="bold" font-size="10.00">M10_DRYPIT</text>
<polygon fill="none" stroke="black" points="267.24,-463.5 267.24,-481.5 363.24,-481.5 363.24,-463.5 267.24,-463.5"/>
<text text-anchor="start" x="270.24" y="-469.5" font-family="Courier New" font-size="10.00" fill="brown">start state = 0</text>
<polygon fill="none" stroke="black" points="264.24,-460.5 264.24,-504.5 366.24,-504.5 366.24,-460.5 264.24,-460.5"/>
</g>
<!-- 0 -->
<g id="node2" class="node">
<title>0</title>
<polyline fill="none" stroke="darkred" points="412.24,-471.5 426.24,-471.5"/>
<text text-anchor="start" x="415.24" y="-478.9" font-family="Courier New" font-weight="bold" font-size="14.00">0</text>
<path fill="none" stroke="darkred" d="M415.91,-468.5C415.91,-468.5 422.57,-468.5 422.57,-468.5 425.91,-468.5 429.24,-471.83 429.24,-475.17 429.24,-475.17 429.24,-489.83 429.24,-489.83 429.24,-493.17 425.91,-496.5 422.57,-496.5 422.57,-496.5 415.91,-496.5 415.91,-496.5 412.57,-496.5 409.24,-493.17 409.24,-489.83 409.24,-489.83 409.24,-475.17 409.24,-475.17 409.24,-471.83 412.57,-468.5 415.91,-468.5"/>
</g>
<!-- 10 -->
<g id="node3" class="node">
<title>10</title>
<polyline fill="none" stroke="darkred" points="478.24,-287 500.24,-287"/>
<text text-anchor="start" x="481.24" y="-294.4" font-family="Courier New" font-weight="bold" font-size="14.00">10</text>
<path fill="none" stroke="darkred" d="M484.57,-284C484.57,-284 493.91,-284 493.91,-284 498.57,-284 503.24,-288.67 503.24,-293.33 503.24,-293.33 503.24,-302.67 503.24,-302.67 503.24,-307.33 498.57,-312 493.91,-312 493.91,-312 484.57,-312 484.57,-312 479.91,-312 475.24,-307.33 475.24,-302.67 475.24,-302.67 475.24,-293.33 475.24,-293.33 475.24,-288.67 479.91,-284 484.57,-284"/>
</g>
<!-- 0&#45;&gt;10 -->
<g id="edge1" class="edge">
<title>0&#45;&gt;10</title>
<path fill="none" stroke="black" d="M398.34,-464.74C393.58,-461.48 388.39,-458.36 383.24,-456 352.85,-442.1 330.85,-464.31 310.24,-438 281.74,-401.61 280.86,-369.68 310.24,-334 327.73,-312.76 403.95,-304.23 451.12,-300.94"/>
<polygon fill="black" stroke="black" points="451.16,-304.44 460.92,-300.31 450.71,-297.46 451.16,-304.44"/>
<polygon fill="none" stroke="black" points="313.24,-417 313.24,-435 505.24,-435 505.24,-417 313.24,-417"/>
<text text-anchor="start" x="373.23" y="-424" font-family="Courier New" font-weight="bold" font-size="10.00" fill="blue">Z_EPSILON(,)</text>
<polygon fill="none" stroke="black" points="313.24,-337 313.24,-415 505.24,-415 505.24,-337 313.24,-337"/>
<text text-anchor="start" x="316.24" y="-403" font-family="Courier New" font-size="10.00" fill="blue"> &#160;&#160;&#160;ASSIGN(BFRAME,9);</text>
<text text-anchor="start" x="316.24" y="-391" font-family="Courier New" font-size="10.00" fill="blue"> &#160;&#160;&#160;MUL(BFRAME,BPARM);</text>
<text text-anchor="start" x="316.24" y="-379" font-family="Courier New" font-size="10.00" fill="blue"> &#160;&#160;&#160;ASSIGN(WPARM,MAX_DRYPIT);</text>
<text text-anchor="start" x="316.24" y="-367" font-family="Courier New" font-size="10.00" fill="blue"> &#160;&#160;&#160;DIV(BFRAME,WPARM);</text>
<text text-anchor="start" x="316.24" y="-355" font-family="Courier New" font-size="10.00" fill="blue"> &#160;&#160;&#160;ASSIGN(WSPRITE,IDS_PITFUL);</text>
<text text-anchor="start" x="316.24" y="-343" font-family="Courier New" font-size="10.00" fill="blue"> &#160;&#160;&#160;SHOW(WSPRITE);</text>
<polygon fill="none" stroke="black" points="310.24,-334 310.24,-438 508.24,-438 508.24,-334 310.24,-334"/>
</g>
<!-- 10&#45;&gt;0 -->
<g id="edge4" class="edge">
<title>10&#45;&gt;0</title>
<path fill="none" stroke="black" d="M500.52,-315.74C503.65,-321.31 506.64,-327.7 508.24,-334 519.62,-378.8 532.72,-398.79 508.24,-438 497.03,-455.96 476.01,-466.71 457.21,-473.03"/>
<polygon fill="black" stroke="black" points="456.22,-469.67 447.65,-475.9 458.23,-476.38 456.22,-469.67"/>
<polygon fill="none" stroke="black" points="524.24,-393 524.24,-411 692.24,-411 692.24,-393 524.24,-393"/>
<text text-anchor="start" x="560.23" y="-400" font-family="Courier New" font-weight="bold" font-size="10.00" fill="orange">WAIT(,SIG_CLOSE)</text>
<polygon fill="none" stroke="black" points="524.24,-361 524.24,-391 692.24,-391 692.24,-361 524.24,-361"/>
<text text-anchor="start" x="527.24" y="-379" font-family="Courier New" font-size="10.00" fill="blue"> &#160;&#160;&#160;MOV(BPARM,0);</text>
<text text-anchor="start" x="527.24" y="-367" font-family="Courier New" font-size="10.00" fill="blue"> &#160;&#160;&#160;PLAYWAVE(SOUND_BURBLE);</text>
<polygon fill="none" stroke="black" points="521.24,-358 521.24,-414 695.24,-414 695.24,-358 521.24,-358"/>
</g>
<!-- 21 -->
<g id="node4" class="node">
<title>21</title>
<polyline fill="none" stroke="darkred" points="299.24,-171 321.24,-171"/>
<text text-anchor="start" x="302.24" y="-178.4" font-family="Courier New" font-weight="bold" font-size="14.00">21</text>
<path fill="none" stroke="darkred" d="M305.57,-168C305.57,-168 314.91,-168 314.91,-168 319.57,-168 324.24,-172.67 324.24,-177.33 324.24,-177.33 324.24,-186.67 324.24,-186.67 324.24,-191.33 319.57,-196 314.91,-196 314.91,-196 305.57,-196 305.57,-196 300.91,-196 296.24,-191.33 296.24,-186.67 296.24,-186.67 296.24,-177.33 296.24,-177.33 296.24,-172.67 300.91,-168 305.57,-168"/>
</g>
<!-- 10&#45;&gt;21 -->
<g id="edge2" class="edge">
<title>10&#45;&gt;21</title>
<path fill="none" stroke="black" d="M462.25,-295.72C417.3,-292.96 330.19,-284.74 311.24,-262 299.61,-248.04 299.75,-227.38 302.59,-210.69"/>
<polygon fill="black" stroke="black" points="305.91,-211.89 304.56,-201.38 299.06,-210.44 305.91,-211.89"/>
<text text-anchor="start" x="315.24" y="-238" font-family="Courier New" font-weight="bold" font-size="10.00" fill="orange">DRAG(0,IDD_SCOOPE)</text>
</g>
<!-- 31 -->
<g id="node5" class="node">
<title>31</title>
<polyline fill="none" stroke="darkred" points="606.24,-171 628.24,-171"/>
<text text-anchor="start" x="609.24" y="-178.4" font-family="Courier New" font-weight="bold" font-size="14.00">31</text>
<path fill="none" stroke="darkred" d="M612.57,-168C612.57,-168 621.91,-168 621.91,-168 626.57,-168 631.24,-172.67 631.24,-177.33 631.24,-177.33 631.24,-186.67 631.24,-186.67 631.24,-191.33 626.57,-196 621.91,-196 621.91,-196 612.57,-196 612.57,-196 607.91,-196 603.24,-191.33 603.24,-186.67 603.24,-186.67 603.24,-177.33 603.24,-177.33 603.24,-172.67 607.91,-168 612.57,-168"/>
</g>
<!-- 10&#45;&gt;31 -->
<g id="edge3" class="edge">
<title>10&#45;&gt;31</title>
<path fill="none" stroke="black" d="M515.89,-280.36C523.06,-275.08 530.43,-268.81 536.24,-262 550.56,-245.21 544.12,-234.07 559.24,-218 565.42,-211.43 573.09,-205.66 580.82,-200.8"/>
<polygon fill="black" stroke="black" points="582.34,-203.96 589.21,-195.89 578.81,-197.92 582.34,-203.96"/>
<text text-anchor="start" x="563.24" y="-238" font-family="Courier New" font-weight="bold" font-size="10.00" fill="orange">DRAG(0,IDD_SCOOPF)</text>
</g>
<!-- 21&#45;&gt;10 -->
<g id="edge6" class="edge">
<title>21&#45;&gt;10</title>
<path fill="none" stroke="black" d="M337.05,-184.62C363.02,-187.52 402.05,-195.6 427.24,-218 443.16,-232.16 433.39,-245.01 446.24,-262 449.12,-265.8 452.49,-269.44 456.05,-272.84"/>
<polygon fill="black" stroke="black" points="453.62,-275.36 463.45,-279.3 458.22,-270.08 453.62,-275.36"/>
<text text-anchor="start" x="450.24" y="-238" font-family="Courier New" font-weight="bold" font-size="10.00" fill="blue">Z_EPSILON(0,)</text>
</g>
<!-- 25 -->
<g id="node6" class="node">
<title>25</title>
<polyline fill="none" stroke="darkred" points="84.24,-7 106.24,-7"/>
<text text-anchor="start" x="87.24" y="-14.4" font-family="Courier New" font-weight="bold" font-size="14.00">25</text>
<path fill="none" stroke="darkred" d="M90.57,-4C90.57,-4 99.91,-4 99.91,-4 104.57,-4 109.24,-8.67 109.24,-13.33 109.24,-13.33 109.24,-22.67 109.24,-22.67 109.24,-27.33 104.57,-32 99.91,-32 99.91,-32 90.57,-32 90.57,-32 85.91,-32 81.24,-27.33 81.24,-22.67 81.24,-22.67 81.24,-13.33 81.24,-13.33 81.24,-8.67 85.91,-4 90.57,-4"/>
</g>
<!-- 21&#45;&gt;25 -->
<g id="edge5" class="edge">
<title>21&#45;&gt;25</title>
<path fill="none" stroke="black" d="M288.04,-164.27C249.66,-135.35 170.78,-75.92 126.74,-42.74"/>
<polygon fill="black" stroke="black" points="128.94,-40.01 118.85,-36.79 124.73,-45.6 128.94,-40.01"/>
<polygon fill="none" stroke="black" points="262.24,-125 262.24,-143 442.24,-143 442.24,-125 262.24,-125"/>
<text text-anchor="start" x="313.23" y="-132" font-family="Courier New" font-weight="bold" font-size="10.00" fill="blue">GTEi(BPARM,1)</text>
<polygon fill="none" stroke="black" points="262.24,-57 262.24,-123 442.24,-123 442.24,-57 262.24,-57"/>
<text text-anchor="start" x="265.24" y="-111" font-family="Courier New" font-size="10.00" fill="blue"> &#160;&#160;&#160;PLAYWAVE(SOUND_SLURP);</text>
<text text-anchor="start" x="265.24" y="-99" font-family="Courier New" font-size="10.00" fill="blue"> &#160;&#160;&#160;SUBI(BPARM,1);</text>
<text text-anchor="start" x="265.24" y="-87" font-family="Courier New" font-size="10.00" fill="blue"> &#160;&#160;&#160;HANDOFF(0,IDD_SCOOPF);</text>
<text text-anchor="start" x="265.24" y="-75" font-family="Courier New" font-size="10.00" fill="blue"> &#160;&#160;&#160;ADDI(LKARMA,1);</text>
<text text-anchor="start" x="265.24" y="-63" font-family="Courier New" font-size="10.00" fill="blue"> &#160;&#160;&#160;SIGNAL(SID_HALO,SIG_ADD);</text>
<polygon fill="none" stroke="black" points="259.24,-54 259.24,-146 445.24,-146 445.24,-54 259.24,-54"/>
</g>
<!-- 31&#45;&gt;10 -->
<g id="edge10" class="edge">
<title>31&#45;&gt;10</title>
<path fill="none" stroke="black" d="M643.99,-192.15C655.78,-197.68 668.48,-206.02 675.24,-218 684.85,-235.03 687.72,-246.95 675.24,-262 656.83,-284.2 576.22,-292.41 527.37,-295.38"/>
<polygon fill="black" stroke="black" points="527.28,-291.88 517.49,-295.93 527.67,-298.87 527.28,-291.88"/>
<text text-anchor="start" x="687.24" y="-238" font-family="Courier New" font-weight="bold" font-size="10.00" fill="blue">Z_EPSILON(,)</text>
</g>
<!-- 35 -->
<g id="node7" class="node">
<title>35</title>
<polyline fill="none" stroke="darkred" points="789.24,-7 811.24,-7"/>
<text text-anchor="start" x="792.24" y="-14.4" font-family="Courier New" font-weight="bold" font-size="14.00">35</text>
<path fill="none" stroke="darkred" d="M795.57,-4C795.57,-4 804.91,-4 804.91,-4 809.57,-4 814.24,-8.67 814.24,-13.33 814.24,-13.33 814.24,-22.67 814.24,-22.67 814.24,-27.33 809.57,-32 804.91,-32 804.91,-32 795.57,-32 795.57,-32 790.91,-32 786.24,-27.33 786.24,-22.67 786.24,-22.67 786.24,-13.33 786.24,-13.33 786.24,-8.67 790.91,-4 795.57,-4"/>
</g>
<!-- 31&#45;&gt;35 -->
<g id="edge9" class="edge">
<title>31&#45;&gt;35</title>
<path fill="none" stroke="black" d="M611.41,-164.35C603.24,-137.71 592.14,-85.35 618.24,-54 636.18,-32.46 714,-24.03 761.89,-20.84"/>
<polygon fill="black" stroke="black" points="762.09,-24.33 771.85,-20.23 761.66,-17.35 762.09,-24.33"/>
<polygon fill="none" stroke="black" points="621.24,-113 621.24,-131 783.24,-131 783.24,-113 621.24,-113"/>
<text text-anchor="start" x="630.23" y="-120" font-family="Courier New" font-weight="bold" font-size="10.00" fill="blue">LTEi(BPARM,MAX_DRYPIT&#45;1)</text>
<polygon fill="none" stroke="black" points="621.24,-69 621.24,-111 783.24,-111 783.24,-69 621.24,-69"/>
<text text-anchor="start" x="624.24" y="-99" font-family="Courier New" font-size="10.00" fill="blue"> &#160;&#160;&#160;PLAYWAVE(SOUND_SPIT);</text>
<text text-anchor="start" x="624.24" y="-87" font-family="Courier New" font-size="10.00" fill="blue"> &#160;&#160;&#160;ADDI(BPARM,1);</text>
<text text-anchor="start" x="624.24" y="-75" font-family="Courier New" font-size="10.00" fill="blue"> &#160;&#160;&#160;HANDOFF(0,IDD_SCOOPE);</text>
<polygon fill="none" stroke="black" points="618.24,-66 618.24,-134 786.24,-134 786.24,-66 618.24,-66"/>
</g>
<!-- 25&#45;&gt;0 -->
<g id="edge7" class="edge">
<title>25&#45;&gt;0</title>
<path fill="none" stroke="black" d="M91.87,-35.87C84.52,-76.78 70.38,-183.7 105.24,-262 150.75,-364.21 185.89,-386.54 285.24,-438 324.56,-458.37 342.43,-438.8 383.24,-456 385.25,-456.85 387.26,-457.82 389.25,-458.89"/>
<polygon fill="black" stroke="black" points="387.19,-461.73 397.54,-463.97 390.84,-455.76 387.19,-461.73"/>
<polygon fill="none" stroke="black" points="108.24,-241 108.24,-259 294.24,-259 294.24,-241 108.24,-241"/>
<text text-anchor="start" x="123.23" y="-248" font-family="Courier New" font-weight="bold" font-size="10.00" fill="blue">EQUALi(BPARM,MAX_DRYPIT&#45;1)</text>
<polygon fill="none" stroke="black" points="108.24,-221 108.24,-239 294.24,-239 294.24,-221 108.24,-221"/>
<text text-anchor="start" x="111.24" y="-227" font-family="Courier New" font-size="10.00" fill="blue">SIGNALi(SIG_CLOSE,S10_FLOWER);</text>
<polygon fill="none" stroke="black" points="105.24,-218 105.24,-262 297.24,-262 297.24,-218 105.24,-218"/>
</g>
<!-- 25&#45;&gt;0 -->
<g id="edge8" class="edge">
<title>25&#45;&gt;0</title>
<path fill="none" stroke="black" d="M81.02,-35.71C49.39,-75 -21.81,-176.39 7.24,-262 38.92,-355.35 55.51,-391.13 142.24,-438 189.49,-463.54 332.71,-437.82 383.24,-456 385.35,-456.76 387.44,-457.68 389.5,-458.71"/>
<polygon fill="black" stroke="black" points="387.7,-461.71 398.08,-463.82 391.28,-455.69 387.7,-461.71"/>
<text text-anchor="start" x="11.24" y="-238" font-family="Courier New" font-weight="bold" font-size="10.00" fill="blue">Z_EPSILON(,)</text>
</g>
<!-- 35&#45;&gt;0 -->
<g id="edge11" class="edge">
<title>35&#45;&gt;0</title>
<path fill="none" stroke="black" d="M798.83,-35.96C792.5,-107.82 764.07,-385.78 699.24,-438 662.74,-467.4 525.43,-477.14 457.62,-480.19"/>
<polygon fill="black" stroke="black" points="457.55,-476.69 447.71,-480.61 457.85,-483.68 457.55,-476.69"/>
<polygon fill="none" stroke="black" points="778.24,-241 778.24,-259 958.24,-259 958.24,-241 778.24,-241"/>
<text text-anchor="start" x="796.23" y="-248" font-family="Courier New" font-weight="bold" font-size="10.00" fill="blue">EQUALi(BPARM,MAX_DRYPIT)</text>
<polygon fill="none" stroke="black" points="778.24,-221 778.24,-239 958.24,-239 958.24,-221 778.24,-221"/>
<text text-anchor="start" x="781.24" y="-227" font-family="Courier New" font-size="10.00" fill="blue">SIGNALi(SIG_OPEN,S10_FLOWER);</text>
<polygon fill="none" stroke="black" points="775.24,-218 775.24,-262 961.24,-262 961.24,-218 775.24,-218"/>
</g>
<!-- 35&#45;&gt;0 -->
<g id="edge12" class="edge">
<title>35&#45;&gt;0</title>
<path fill="none" stroke="black" d="M826.92,-35.65C884.17,-73.62 1010.12,-170.42 965.24,-262 909.07,-376.64 855.95,-388.58 738.24,-438 688.2,-459.01 530.52,-473.18 457.3,-478.79"/>
<polygon fill="black" stroke="black" points="457.11,-475.3 447.4,-479.54 457.63,-482.28 457.11,-475.3"/>
<text text-anchor="start" x="978.24" y="-238" font-family="Courier New" font-weight="bold" font-size="10.00" fill="blue">Z_EPSILON(,)</text>
</g>
</g>
</svg>
