<?xml version="1.0" encoding="UTF-8" standalone="no"?>
<!DOCTYPE svg PUBLIC "-//W3C//DTD SVG 1.1//EN"
 "http://www.w3.org/Graphics/SVG/1.1/DTD/svg11.dtd">
<!-- Generated by graphviz version 7.1.0 (20230121.1956)
 -->
<!-- Pages: 1 -->
<svg width="431pt" height="1302pt"
 viewBox="0.00 0.00 430.91 1302.20" xmlns="http://www.w3.org/2000/svg" xmlns:xlink="http://www.w3.org/1999/xlink">
<g id="graph0" class="graph" transform="scale(1 1) rotate(0) translate(4 1298.2)">
<polygon fill="white" stroke="none" points="-4,4 -4,-1298.2 426.91,-1298.2 426.91,4 -4,4"/>
<!-- M11_FIRE_0 -->
<g id="node1" class="node">
<title>M11_FIRE_0</title>
<polygon fill="none" stroke="black" points="221.5,-1257.7 221.5,-1293.7 315.29,-1293.7 315.29,-1257.7 221.5,-1257.7"/>
<text text-anchor="middle" x="268.39" y="-1271.5" font-family="Times,serif" font-size="14.00">M11_FIRE_0</text>
</g>
<!-- M11_FIRE_1 -->
<g id="node2" class="node">
<title>M11_FIRE_1</title>
<polygon fill="none" stroke="black" points="70.5,-1167.9 70.5,-1203.9 164.29,-1203.9 164.29,-1167.9 70.5,-1167.9"/>
<text text-anchor="middle" x="117.39" y="-1181.7" font-family="Times,serif" font-size="14.00">M11_FIRE_1</text>
</g>
<!-- M11_FIRE_0&#45;&gt;M11_FIRE_1 -->
<g id="edge1" class="edge">
<title>M11_FIRE_0&#45;&gt;M11_FIRE_1</title>
<path fill="none" stroke="red" d="M221.61,-1265.33C201.72,-1259.87 178.99,-1251.54 160.88,-1239.2 150.63,-1232.22 141.47,-1222.17 134.24,-1212.74"/>
<polygon fill="red" stroke="red" points="137.25,-1210.93 128.56,-1204.88 131.58,-1215.03 137.25,-1210.93"/>
<text text-anchor="start" x="161.39" y="-1227.6" font-family="Times,serif" font-size="14.00" fill="red"> </text>
<text text-anchor="start" x="164.89" y="-1227.6" font-family="Courier New" font-size="10.00" fill="red">DROP(0,IDD_LOG)</text>
</g>
<!-- M11_FIRE_2 -->
<g id="node3" class="node">
<title>M11_FIRE_2</title>
<polygon fill="none" stroke="black" points="62.5,-1078.1 62.5,-1114.1 156.29,-1114.1 156.29,-1078.1 62.5,-1078.1"/>
<text text-anchor="middle" x="109.39" y="-1091.9" font-family="Times,serif" font-size="14.00">M11_FIRE_2</text>
</g>
<!-- M11_FIRE_1&#45;&gt;M11_FIRE_2 -->
<g id="edge2" class="edge">
<title>M11_FIRE_1&#45;&gt;M11_FIRE_2</title>
<path fill="none" stroke="green" d="M110.21,-1168.24C108.04,-1162.39 105.95,-1155.71 104.87,-1149.4 103.52,-1141.53 103.63,-1132.91 104.35,-1124.99"/>
<polygon fill="green" stroke="green" points="107.81,-1125.55 105.62,-1115.18 100.86,-1124.65 107.81,-1125.55"/>
<text text-anchor="start" x="105.39" y="-1137.8" font-family="Times,serif" font-size="14.00" fill="green"> </text>
<text text-anchor="start" x="108.89" y="-1137.8" font-family="Courier New" font-size="10.00" fill="green">PLAYWAVE(0,SOUND_CLUNK)</text>
</g>
<!-- M11_FIRE_20 -->
<g id="node4" class="node">
<title>M11_FIRE_20</title>
<polygon fill="none" stroke="black" points="103,-988.3 103,-1024.3 203.79,-1024.3 203.79,-988.3 103,-988.3"/>
<text text-anchor="middle" x="153.39" y="-1002.1" font-family="Times,serif" font-size="14.00">M11_FIRE_20</text>
</g>
<!-- M11_FIRE_2&#45;&gt;M11_FIRE_20 -->
<g id="edge3" class="edge">
<title>M11_FIRE_2&#45;&gt;M11_FIRE_20</title>
<path fill="none" stroke="green" d="M115.44,-1078.28C119.39,-1067.85 124.92,-1054.31 130.87,-1042.8 132.38,-1039.88 134.06,-1036.89 135.79,-1033.95"/>
<polygon fill="green" stroke="green" points="138.7,-1035.91 140.98,-1025.56 132.74,-1032.23 138.7,-1035.91"/>
<text text-anchor="start" x="131.39" y="-1048" font-family="Times,serif" font-size="14.00" fill="green"> </text>
<text text-anchor="start" x="134.89" y="-1048" font-family="Courier New" font-size="10.00" fill="green">SHOW(0,IDS_FISHWOOD)</text>
</g>
<!-- M11_FIRE_20&#45;&gt;M11_FIRE_0 -->
<g id="edge5" class="edge">
<title>M11_FIRE_20&#45;&gt;M11_FIRE_0</title>
<path fill="none" stroke="red" d="M203.77,-1013.18C222.62,-1018.04 242.36,-1026.85 254.39,-1042.8 266.42,-1058.73 268.22,-1188.64 268.41,-1246.77"/>
<polygon fill="red" stroke="red" points="264.91,-1246.51 268.43,-1256.5 271.91,-1246.5 264.91,-1246.51"/>
<text text-anchor="start" x="267.39" y="-1137.8" font-family="Times,serif" font-size="14.00" fill="red"> </text>
<text text-anchor="start" x="270.89" y="-1137.8" font-family="Courier New" font-size="10.00" fill="red">GRAB(0,0)</text>
</g>
<!-- M11_FIRE_21 -->
<g id="node5" class="node">
<title>M11_FIRE_21</title>
<polygon fill="none" stroke="black" points="103,-898.5 103,-934.5 203.79,-934.5 203.79,-898.5 103,-898.5"/>
<text text-anchor="middle" x="153.39" y="-912.3" font-family="Times,serif" font-size="14.00">M11_FIRE_21</text>
</g>
<!-- M11_FIRE_20&#45;&gt;M11_FIRE_21 -->
<g id="edge4" class="edge">
<title>M11_FIRE_20&#45;&gt;M11_FIRE_21</title>
<path fill="none" stroke="red" d="M153.39,-988.37C153.39,-976.22 153.39,-959.58 153.39,-945.47"/>
<polygon fill="red" stroke="red" points="156.89,-945.89 153.39,-935.89 149.89,-945.89 156.89,-945.89"/>
<text text-anchor="start" x="153.39" y="-958.2" font-family="Times,serif" font-size="14.00" fill="red"> </text>
<text text-anchor="start" x="156.89" y="-958.2" font-family="Courier New" font-size="10.00" fill="red">DRAG(0,IDD_MATCH)</text>
</g>
<!-- M11_FIRE_22 -->
<g id="node6" class="node">
<title>M11_FIRE_22</title>
<polygon fill="none" stroke="black" points="103,-808.7 103,-844.7 203.79,-844.7 203.79,-808.7 103,-808.7"/>
<text text-anchor="middle" x="153.39" y="-822.5" font-family="Times,serif" font-size="14.00">M11_FIRE_22</text>
</g>
<!-- M11_FIRE_21&#45;&gt;M11_FIRE_22 -->
<g id="edge6" class="edge">
<title>M11_FIRE_21&#45;&gt;M11_FIRE_22</title>
<path fill="none" stroke="green" d="M153.39,-898.57C153.39,-886.42 153.39,-869.78 153.39,-855.67"/>
<polygon fill="green" stroke="green" points="156.89,-856.09 153.39,-846.09 149.89,-856.09 156.89,-856.09"/>
<text text-anchor="start" x="153.39" y="-868.4" font-family="Times,serif" font-size="14.00" fill="green"> </text>
<text text-anchor="start" x="156.89" y="-868.4" font-family="Courier New" font-size="10.00" fill="green">SHOW(0,IDS_BURNWOOD)</text>
</g>
<!-- M11_FIRE_30 -->
<g id="node7" class="node">
<title>M11_FIRE_30</title>
<polygon fill="none" stroke="black" points="103,-718.9 103,-754.9 203.79,-754.9 203.79,-718.9 103,-718.9"/>
<text text-anchor="middle" x="153.39" y="-732.7" font-family="Times,serif" font-size="14.00">M11_FIRE_30</text>
</g>
<!-- M11_FIRE_22&#45;&gt;M11_FIRE_30 -->
<g id="edge7" class="edge">
<title>M11_FIRE_22&#45;&gt;M11_FIRE_30</title>
<path fill="none" stroke="green" d="M153.39,-808.77C153.39,-796.62 153.39,-779.98 153.39,-765.87"/>
<polygon fill="green" stroke="green" points="156.89,-766.29 153.39,-756.29 149.89,-766.29 156.89,-766.29"/>
<text text-anchor="start" x="153.39" y="-778.6" font-family="Times,serif" font-size="14.00" fill="green"> </text>
<text text-anchor="start" x="156.89" y="-778.6" font-family="Courier New" font-size="10.00" fill="green">ANIMATE(0,V_LOOP|V_REWIND)</text>
</g>
<!-- M11_FIRE_31 -->
<g id="node8" class="node">
<title>M11_FIRE_31</title>
<polygon fill="none" stroke="black" points="4,-629.1 4,-665.1 104.79,-665.1 104.79,-629.1 4,-629.1"/>
<text text-anchor="middle" x="54.39" y="-642.9" font-family="Times,serif" font-size="14.00">M11_FIRE_31</text>
</g>
<!-- M11_FIRE_30&#45;&gt;M11_FIRE_31 -->
<g id="edge8" class="edge">
<title>M11_FIRE_30&#45;&gt;M11_FIRE_31</title>
<path fill="none" stroke="green" d="M103.08,-728.98C85.67,-723.96 67.8,-715.3 56.87,-700.4 51.83,-693.53 50.15,-684.67 50.04,-676.2"/>
<polygon fill="green" stroke="green" points="53.54,-676.45 50.66,-666.26 46.55,-676.02 53.54,-676.45"/>
<text text-anchor="start" x="57.39" y="-688.8" font-family="Times,serif" font-size="14.00" fill="green"> </text>
<text text-anchor="start" x="60.89" y="-688.8" font-family="Courier New" font-size="10.00" fill="green">ADDI(WPARM,BURN_TIME)</text>
</g>
<!-- M11_FIRE_32 -->
<g id="node9" class="node">
<title>M11_FIRE_32</title>
<polygon fill="none" stroke="black" points="0,-539.3 0,-575.3 100.79,-575.3 100.79,-539.3 0,-539.3"/>
<text text-anchor="middle" x="50.39" y="-553.1" font-family="Times,serif" font-size="14.00">M11_FIRE_32</text>
</g>
<!-- M11_FIRE_31&#45;&gt;M11_FIRE_32 -->
<g id="edge9" class="edge">
<title>M11_FIRE_31&#45;&gt;M11_FIRE_32</title>
<path fill="none" stroke="green" d="M53.62,-629.17C53.07,-617.02 52.31,-600.38 51.67,-586.27"/>
<polygon fill="green" stroke="green" points="55.18,-586.52 51.23,-576.69 48.19,-586.84 55.18,-586.52"/>
<text text-anchor="start" x="53.39" y="-599" font-family="Times,serif" font-size="14.00" fill="green"> </text>
<text text-anchor="start" x="56.89" y="-599" font-family="Courier New" font-size="10.00" fill="green">CLEAR(DETIME,)</text>
</g>
<!-- M11_FIRE_40 -->
<g id="node10" class="node">
<title>M11_FIRE_40</title>
<polygon fill="none" stroke="black" points="117,-449.5 117,-485.5 217.79,-485.5 217.79,-449.5 117,-449.5"/>
<text text-anchor="middle" x="167.39" y="-463.3" font-family="Times,serif" font-size="14.00">M11_FIRE_40</text>
</g>
<!-- M11_FIRE_32&#45;&gt;M11_FIRE_40 -->
<g id="edge10" class="edge">
<title>M11_FIRE_32&#45;&gt;M11_FIRE_40</title>
<path fill="none" stroke="green" d="M45.82,-539.6C43.81,-528.45 43.37,-514.04 50.87,-504 63.86,-486.63 85.15,-477.48 105.99,-472.75"/>
<polygon fill="green" stroke="green" points="106.5,-476.22 115.66,-470.89 105.18,-469.35 106.5,-476.22"/>
<text text-anchor="start" x="51.39" y="-509.2" font-family="Times,serif" font-size="14.00" fill="green"> </text>
<text text-anchor="start" x="54.89" y="-509.2" font-family="Courier New" font-size="10.00" fill="green">PLAYWAVE(0,SOUND_FIRE)</text>
</g>
<!-- M11_FIRE_40&#45;&gt;M11_FIRE_30 -->
<g id="edge12" class="edge">
<title>M11_FIRE_40&#45;&gt;M11_FIRE_30</title>
<path fill="none" stroke="red" d="M178.67,-485.5C181.81,-491.15 184.79,-497.63 186.39,-504 207.63,-588.67 218.32,-619.16 186.39,-700.4 185.04,-703.85 183.18,-707.16 181.02,-710.28"/>
<polygon fill="red" stroke="red" points="178.46,-707.88 174.83,-717.83 183.88,-712.31 178.46,-707.88"/>
<text text-anchor="start" x="207.39" y="-599" font-family="Times,serif" font-size="14.00" fill="red"> </text>
<text text-anchor="start" x="210.89" y="-599" font-family="Courier New" font-size="10.00" fill="red">DROP(0,IDD_LOG)</text>
</g>
<!-- M11_FIRE_50 -->
<g id="node11" class="node">
<title>M11_FIRE_50</title>
<polygon fill="none" stroke="black" points="182,-359.7 182,-395.7 282.79,-395.7 282.79,-359.7 182,-359.7"/>
<text text-anchor="middle" x="232.39" y="-373.5" font-family="Times,serif" font-size="14.00">M11_FIRE_50</text>
</g>
<!-- M11_FIRE_40&#45;&gt;M11_FIRE_50 -->
<g id="edge11" class="edge">
<title>M11_FIRE_40&#45;&gt;M11_FIRE_50</title>
<path fill="none" stroke="red" d="M127.23,-449.52C110.81,-440.1 97.77,-427.59 107.88,-414.2 115.97,-403.48 143.65,-395.03 170.86,-389.07"/>
<polygon fill="red" stroke="red" points="171.47,-392.52 180.55,-387.05 170.05,-385.66 171.47,-392.52"/>
<text text-anchor="start" x="108.39" y="-419.4" font-family="Times,serif" font-size="14.00" fill="red"> </text>
<text text-anchor="start" x="111.89" y="-419.4" font-family="Courier New" font-size="10.00" fill="red">DROP(0,IDD_WATER)</text>
</g>
<!-- M11_FIRE_40&#45;&gt;M11_FIRE_50 -->
<g id="edge13" class="edge">
<title>M11_FIRE_40&#45;&gt;M11_FIRE_50</title>
<path fill="none" stroke="green" d="M194.54,-449.59C201.4,-444.31 208.27,-438 213.39,-431 218.72,-423.71 222.69,-414.76 225.59,-406.35"/>
<polygon fill="green" stroke="green" points="228.91,-407.44 228.45,-396.86 222.21,-405.42 228.91,-407.44"/>
<text text-anchor="start" x="222.39" y="-419.4" font-family="Times,serif" font-size="14.00" fill="green"> </text>
<text text-anchor="start" x="225.89" y="-419.4" font-family="Courier New" font-size="10.00" fill="green">ESTIME(WPARM,)</text>
</g>
<!-- M11_FIRE_51 -->
<g id="node12" class="node">
<title>M11_FIRE_51</title>
<polygon fill="none" stroke="black" points="182,-269.9 182,-305.9 282.79,-305.9 282.79,-269.9 182,-269.9"/>
<text text-anchor="middle" x="232.39" y="-283.7" font-family="Times,serif" font-size="14.00">M11_FIRE_51</text>
</g>
<!-- M11_FIRE_50&#45;&gt;M11_FIRE_51 -->
<g id="edge14" class="edge">
<title>M11_FIRE_50&#45;&gt;M11_FIRE_51</title>
<path fill="none" stroke="green" d="M232.39,-359.77C232.39,-347.62 232.39,-330.98 232.39,-316.87"/>
<polygon fill="green" stroke="green" points="235.89,-317.29 232.39,-307.29 228.89,-317.29 235.89,-317.29"/>
<text text-anchor="start" x="232.39" y="-329.6" font-family="Times,serif" font-size="14.00" fill="green"> </text>
<text text-anchor="start" x="235.89" y="-329.6" font-family="Courier New" font-size="10.00" fill="green">CLEAR(WOBJECT,)</text>
</g>
<!-- M11_FIRE_52 -->
<g id="node13" class="node">
<title>M11_FIRE_52</title>
<polygon fill="none" stroke="black" points="185,-180.1 185,-216.1 285.79,-216.1 285.79,-180.1 185,-180.1"/>
<text text-anchor="middle" x="235.39" y="-193.9" font-family="Times,serif" font-size="14.00">M11_FIRE_52</text>
</g>
<!-- M11_FIRE_51&#45;&gt;M11_FIRE_52 -->
<g id="edge15" class="edge">
<title>M11_FIRE_51&#45;&gt;M11_FIRE_52</title>
<path fill="none" stroke="green" d="M232.81,-269.94C233.08,-259.7 233.46,-246.4 233.88,-234.6 233.96,-232.24 234.05,-229.79 234.15,-227.34"/>
<polygon fill="green" stroke="green" points="237.64,-227.72 234.56,-217.58 230.64,-227.43 237.64,-227.72"/>
<text text-anchor="start" x="234.39" y="-239.8" font-family="Times,serif" font-size="14.00" fill="green"> </text>
<text text-anchor="start" x="237.89" y="-239.8" font-family="Courier New" font-size="10.00" fill="green">CLEAR(WSPRITE,)</text>
</g>
<!-- M11_FIRE_53 -->
<g id="node14" class="node">
<title>M11_FIRE_53</title>
<polygon fill="none" stroke="black" points="204,-90.3 204,-126.3 304.79,-126.3 304.79,-90.3 204,-90.3"/>
<text text-anchor="middle" x="254.39" y="-104.1" font-family="Times,serif" font-size="14.00">M11_FIRE_53</text>
</g>
<!-- M11_FIRE_52&#45;&gt;M11_FIRE_53 -->
<g id="edge16" class="edge">
<title>M11_FIRE_52&#45;&gt;M11_FIRE_53</title>
<path fill="none" stroke="green" d="M238.63,-180.11C240.63,-169.86 243.29,-156.56 245.88,-144.8 246.42,-142.34 247,-139.78 247.59,-137.22"/>
<polygon fill="green" stroke="green" points="250.95,-138.25 249.84,-127.72 244.13,-136.64 250.95,-138.25"/>
<text text-anchor="start" x="246.39" y="-150" font-family="Times,serif" font-size="14.00" fill="green"> </text>
<text text-anchor="start" x="249.89" y="-150" font-family="Courier New" font-size="10.00" fill="green">CLEAR(WPARM,)</text>
</g>
<!-- M11_FIRE_54 -->
<g id="node15" class="node">
<title>M11_FIRE_54</title>
<polygon fill="none" stroke="black" points="252,-0.5 252,-36.5 352.79,-36.5 352.79,-0.5 252,-0.5"/>
<text text-anchor="middle" x="302.39" y="-14.3" font-family="Times,serif" font-size="14.00">M11_FIRE_54</text>
</g>
<!-- M11_FIRE_53&#45;&gt;M11_FIRE_54 -->
<g id="edge17" class="edge">
<title>M11_FIRE_53&#45;&gt;M11_FIRE_54</title>
<path fill="none" stroke="green" d="M257.34,-90.51C259.69,-79.86 263.64,-66.05 269.88,-55 271.84,-51.55 274.18,-48.16 276.71,-44.92"/>
<polygon fill="green" stroke="green" points="279.27,-47.31 283.14,-37.45 273.96,-42.75 279.27,-47.31"/>
<text text-anchor="start" x="269.39" y="-60.2" font-family="Times,serif" font-size="14.00" fill="green"> </text>
<text text-anchor="start" x="272.89" y="-60.2" font-family="Courier New" font-size="10.00" fill="green">SHOW(0,0)</text>
</g>
<!-- M11_FIRE_54&#45;&gt;M11_FIRE_0 -->
<g id="edge18" class="edge">
<title>M11_FIRE_54&#45;&gt;M11_FIRE_0</title>
<path fill="none" stroke="green" d="M316.15,-36.45C320.22,-42.09 324.39,-48.58 327.39,-55 337.59,-76.8 341.39,-83.24 341.39,-107.3 341.39,-1186.9 341.39,-1186.9 341.39,-1186.9 341.39,-1212.79 322.39,-1235.12 303.77,-1250.78"/>
<polygon fill="green" stroke="green" points="301.61,-1248.03 295.93,-1256.98 305.95,-1253.52 301.61,-1248.03"/>
<text text-anchor="start" x="341.39" y="-643.9" font-family="Times,serif" font-size="14.00" fill="green"> </text>
<text text-anchor="start" x="344.89" y="-643.9" font-family="Courier New" font-size="10.00" fill="green">STOPWAVE(0,0)</text>
</g>
</g>
</svg>
