<?xml version="1.0" encoding="UTF-8" standalone="no"?>
<!DOCTYPE svg PUBLIC "-//W3C//DTD SVG 1.1//EN"
 "http://www.w3.org/Graphics/SVG/1.1/DTD/svg11.dtd">
<!-- Generated by graphviz version 7.1.0 (20230121.1956)
 -->
<!-- Title: Automaton Pages: 1 -->
<svg width="369pt" height="225pt"
 viewBox="0.00 0.00 369.00 225.00" xmlns="http://www.w3.org/2000/svg" xmlns:xlink="http://www.w3.org/1999/xlink">
<g id="graph0" class="graph" transform="scale(1 1) rotate(0) translate(4 221)">
<title>Automaton</title>
<polygon fill="white" stroke="none" points="-4,4 -4,-221 365,-221 365,4 -4,4"/>
<!-- filename -->
<g id="node1" class="node">
<title>filename</title>
<polygon fill="none" stroke="black" points="0,-164.5 0,-216.5 118,-216.5 118,-164.5 0,-164.5"/>
<polygon fill="none" stroke="black" points="11,-191.5 11,-209.5 107,-209.5 107,-191.5 11,-191.5"/>
<text text-anchor="start" x="29" y="-198.5" font-family="Courier New" font-weight="bold" font-size="10.00">M11_ASCENT</text>
<polygon fill="none" stroke="black" points="11,-171.5 11,-189.5 107,-189.5 107,-171.5 11,-171.5"/>
<text text-anchor="start" x="14" y="-177.5" font-family="Courier New" font-size="10.00" fill="brown">start state = 0</text>
<polygon fill="none" stroke="black" points="8,-168.5 8,-212.5 110,-212.5 110,-168.5 8,-168.5"/>
</g>
<!-- 0 -->
<g id="node2" class="node">
<title>0</title>
<polyline fill="none" stroke="darkred" points="156,-179.5 170,-179.5"/>
<text text-anchor="start" x="159" y="-186.9" font-family="Courier New" font-weight="bold" font-size="14.00">0</text>
<path fill="none" stroke="darkred" d="M159.67,-176.5C159.67,-176.5 166.33,-176.5 166.33,-176.5 169.67,-176.5 173,-179.83 173,-183.17 173,-183.17 173,-197.83 173,-197.83 173,-201.17 169.67,-204.5 166.33,-204.5 166.33,-204.5 159.67,-204.5 159.67,-204.5 156.33,-204.5 153,-201.17 153,-197.83 153,-197.83 153,-183.17 153,-183.17 153,-179.83 156.33,-176.5 159.67,-176.5"/>
</g>
<!-- 3 -->
<g id="node3" class="node">
<title>3</title>
<polyline fill="none" stroke="darkred" points="155,-7 169,-7"/>
<text text-anchor="start" x="158" y="-14.4" font-family="Courier New" font-weight="bold" font-size="14.00">3</text>
<path fill="none" stroke="darkred" d="M158.67,-4C158.67,-4 165.33,-4 165.33,-4 168.67,-4 172,-7.33 172,-10.67 172,-10.67 172,-25.33 172,-25.33 172,-28.67 168.67,-32 165.33,-32 165.33,-32 158.67,-32 158.67,-32 155.33,-32 152,-28.67 152,-25.33 152,-25.33 152,-10.67 152,-10.67 152,-7.33 155.33,-4 158.67,-4"/>
</g>
<!-- 0&#45;&gt;3 -->
<g id="edge1" class="edge">
<title>0&#45;&gt;3</title>
<path fill="none" stroke="black" d="M141.04,-172.76C136.52,-169.66 131.7,-166.58 127,-164 108.48,-153.83 94.78,-163.54 83,-146 60.21,-112.05 60.7,-88.27 83,-54 92.22,-39.84 108.62,-31.36 124.1,-26.31"/>
<polygon fill="black" stroke="black" points="124.97,-29.7 133.64,-23.61 123.06,-22.96 124.97,-29.7"/>
<polygon fill="none" stroke="black" points="86,-119 86,-137 218,-137 218,-119 86,-119"/>
<text text-anchor="start" x="97.99" y="-126" font-family="Courier New" font-weight="bold" font-size="10.00" fill="orange">WAIT(0,SIG_BURNED)</text>
<polygon fill="none" stroke="black" points="86,-63 86,-117 218,-117 218,-63 86,-63"/>
<text text-anchor="start" x="89" y="-105" font-family="Courier New" font-size="10.00" fill="blue"> &#160;&#160;SHOW(IDS_SPIRIT0);</text>
<text text-anchor="start" x="89" y="-93" font-family="Courier New" font-size="10.00" fill="blue"> &#160;&#160;ANIMATE();</text>
<text text-anchor="start" x="89" y="-81" font-family="Courier New" font-size="10.00" fill="blue"> &#160;&#160;ESTIME(4);</text>
<text text-anchor="start" x="89" y="-69" font-family="Courier New" font-size="10.00" fill="blue"> </text>
<polygon fill="none" stroke="black" points="83,-60 83,-140 221,-140 221,-60 83,-60"/>
</g>
<!-- 3&#45;&gt;0 -->
<g id="edge2" class="edge">
<title>3&#45;&gt;0</title>
<path fill="none" stroke="black" d="M188.89,-27.9C200.97,-33.4 214.05,-41.79 221,-54 241.23,-89.53 239.29,-109.43 221,-146 216.16,-155.67 208.04,-163.75 199.38,-170.22"/>
<polygon fill="black" stroke="black" points="197.5,-167.27 191.16,-175.76 201.41,-173.07 197.5,-167.27"/>
<polygon fill="none" stroke="black" points="238,-125 238,-143 358,-143 358,-125 238,-125"/>
<text text-anchor="start" x="241" y="-132" font-family="Courier New" font-weight="bold" font-size="10.00" fill="orange">GRAB(0,IDD_SPRINGS)</text>
<polygon fill="none" stroke="black" points="238,-57 238,-123 358,-123 358,-57 238,-57"/>
<text text-anchor="start" x="243.99" y="-111" font-family="Courier New" font-size="10.00" fill="blue"> &#160;&#160;CLEAR(WOBJECT);</text>
<text text-anchor="start" x="243.99" y="-99" font-family="Courier New" font-size="10.00" fill="blue"> &#160;&#160;CLEAR(WPARM);</text>
<text text-anchor="start" x="243.99" y="-87" font-family="Courier New" font-size="10.00" fill="blue"> &#160;&#160;CLEAR(WSPRITE);</text>
<text text-anchor="start" x="243.99" y="-75" font-family="Courier New" font-size="10.00" fill="blue"> &#160;&#160;SHOW();</text>
<text text-anchor="start" x="243.99" y="-63" font-family="Courier New" font-size="10.00" fill="blue"> </text>
<polygon fill="none" stroke="black" points="235,-54 235,-146 361,-146 361,-54 235,-54"/>
</g>
</g>
</svg>
