<?xml version="1.0" encoding="UTF-8" standalone="no"?>
<!DOCTYPE svg PUBLIC "-//W3C//DTD SVG 1.1//EN"
 "http://www.w3.org/Graphics/SVG/1.1/DTD/svg11.dtd">
<!-- Generated by graphviz version 7.1.0 (20230121.1956)
 -->
<!-- Pages: 1 -->
<svg width="421pt" height="1332pt"
 viewBox="0.00 0.00 421.00 1332.00" xmlns="http://www.w3.org/2000/svg" xmlns:xlink="http://www.w3.org/1999/xlink">
<g id="graph0" class="graph" transform="scale(1 1) rotate(0) translate(4 1328)">
<polygon fill="white" stroke="none" points="-4,4 -4,-1328 417,-1328 417,4 -4,4"/>
<!-- 0 -->
<g id="node1" class="node">
<title>0</title>
<ellipse fill="none" stroke="black" cx="250" cy="-1306" rx="27" ry="18"/>
<text text-anchor="middle" x="250" y="-1301.8" font-family="Times,serif" font-size="14.00">0</text>
</g>
<!-- 1 -->
<g id="node2" class="node">
<title>1</title>
<ellipse fill="none" stroke="black" cx="95" cy="-1214" rx="27" ry="18"/>
<text text-anchor="middle" x="95" y="-1209.8" font-family="Times,serif" font-size="14.00">1</text>
</g>
<!-- 0&#45;&gt;1 -->
<g id="edge1" class="edge">
<title>0&#45;&gt;1</title>
<path fill="none" stroke="black" d="M223.58,-1301.34C199.55,-1297 163.97,-1287.96 138,-1270 127.05,-1262.42 117.57,-1251.22 110.33,-1240.9"/>
<polygon fill="black" stroke="black" points="113.34,-1239.11 104.92,-1232.68 107.5,-1242.96 113.34,-1239.11"/>
<text text-anchor="start" x="142" y="-1258" font-family="Courier New" font-weight="bold" font-size="10.00" fill="orange">DROP(0,IDD_LOG)</text>
</g>
<!-- 2 -->
<g id="node3" class="node">
<title>2</title>
<ellipse fill="none" stroke="black" cx="94" cy="-1122" rx="27" ry="18"/>
<text text-anchor="middle" x="94" y="-1117.8" font-family="Times,serif" font-size="14.00">2</text>
</g>
<!-- 1&#45;&gt;2 -->
<g id="edge2" class="edge">
<title>1&#45;&gt;2</title>
<path fill="none" stroke="black" d="M87.4,-1196.25C85.2,-1190.58 83.1,-1184.12 82,-1178 80.43,-1169.25 80.54,-1166.77 82,-1158 82.4,-1155.62 82.93,-1153.19 83.56,-1150.77"/>
<polygon fill="black" stroke="black" points="86.9,-1151.83 86.53,-1141.24 80.22,-1149.75 86.9,-1151.83"/>
<text text-anchor="start" x="86" y="-1166" font-family="Courier New" font-weight="bold" font-size="10.00" fill="blue">PLAYWAVE(0,SOUND_CLUNK)</text>
</g>
<!-- 20 -->
<g id="node4" class="node">
<title>20</title>
<ellipse fill="none" stroke="black" cx="124" cy="-1030" rx="27" ry="18"/>
<text text-anchor="middle" x="124" y="-1025.8" font-family="Times,serif" font-size="14.00">20</text>
</g>
<!-- 2&#45;&gt;20 -->
<g id="edge3" class="edge">
<title>2&#45;&gt;20</title>
<path fill="none" stroke="black" d="M97.52,-1103.92C99.98,-1092.94 103.61,-1078.45 108,-1066 108.95,-1063.3 110.03,-1060.52 111.18,-1057.77"/>
<polygon fill="black" stroke="black" points="114.27,-1059.43 115.11,-1048.87 107.87,-1056.6 114.27,-1059.43"/>
<text text-anchor="start" x="112" y="-1074" font-family="Courier New" font-weight="bold" font-size="10.00" fill="blue">SHOW(0,IDS_FISHWOOD)</text>
</g>
<!-- 20&#45;&gt;0 -->
<g id="edge5" class="edge">
<title>20&#45;&gt;0</title>
<path fill="none" stroke="black" d="M150.97,-1031.24C177.2,-1033.06 215.93,-1040.31 236,-1066 248.69,-1082.24 250.12,-1216.77 250.12,-1276.56"/>
<polygon fill="black" stroke="black" points="246.62,-1276.27 250.11,-1286.27 253.62,-1276.28 246.62,-1276.27"/>
<text text-anchor="start" x="252" y="-1166" font-family="Courier New" font-weight="bold" font-size="10.00" fill="orange">GRAB(0,0)</text>
</g>
<!-- 21 -->
<g id="node5" class="node">
<title>21</title>
<ellipse fill="none" stroke="black" cx="124" cy="-938" rx="27" ry="18"/>
<text text-anchor="middle" x="124" y="-933.8" font-family="Times,serif" font-size="14.00">21</text>
</g>
<!-- 20&#45;&gt;21 -->
<g id="edge4" class="edge">
<title>20&#45;&gt;21</title>
<path fill="none" stroke="black" d="M124,-1011.65C124,-999.2 124,-982.14 124,-967.68"/>
<polygon fill="black" stroke="black" points="127.5,-967.81 124,-957.81 120.5,-967.81 127.5,-967.81"/>
<text text-anchor="start" x="128" y="-982" font-family="Courier New" font-weight="bold" font-size="10.00" fill="orange">DRAG(0,IDD_MATCH)</text>
</g>
<!-- 22 -->
<g id="node6" class="node">
<title>22</title>
<ellipse fill="none" stroke="black" cx="124" cy="-846" rx="27" ry="18"/>
<text text-anchor="middle" x="124" y="-841.8" font-family="Times,serif" font-size="14.00">22</text>
</g>
<!-- 21&#45;&gt;22 -->
<g id="edge6" class="edge">
<title>21&#45;&gt;22</title>
<path fill="none" stroke="black" d="M124,-919.65C124,-907.2 124,-890.14 124,-875.68"/>
<polygon fill="black" stroke="black" points="127.5,-875.81 124,-865.81 120.5,-875.81 127.5,-875.81"/>
<text text-anchor="start" x="128" y="-890" font-family="Courier New" font-weight="bold" font-size="10.00" fill="blue">SHOW(0,IDS_BURNWOOD)</text>
</g>
<!-- 30 -->
<g id="node7" class="node">
<title>30</title>
<ellipse fill="none" stroke="black" cx="124" cy="-754" rx="27" ry="18"/>
<text text-anchor="middle" x="124" y="-749.8" font-family="Times,serif" font-size="14.00">30</text>
</g>
<!-- 22&#45;&gt;30 -->
<g id="edge7" class="edge">
<title>22&#45;&gt;30</title>
<path fill="none" stroke="black" d="M124,-827.65C124,-815.2 124,-798.14 124,-783.68"/>
<polygon fill="black" stroke="black" points="127.5,-783.81 124,-773.81 120.5,-783.81 127.5,-783.81"/>
<text text-anchor="start" x="128" y="-798" font-family="Courier New" font-weight="bold" font-size="10.00" fill="blue">ANIMATE(0,V_LOOP|V_REWIND)</text>
</g>
<!-- 31 -->
<g id="node8" class="node">
<title>31</title>
<ellipse fill="none" stroke="black" cx="31" cy="-662" rx="27" ry="18"/>
<text text-anchor="middle" x="31" y="-657.8" font-family="Times,serif" font-size="14.00">31</text>
</g>
<!-- 30&#45;&gt;31 -->
<g id="edge8" class="edge">
<title>30&#45;&gt;31</title>
<path fill="none" stroke="black" d="M97.28,-750.53C76.08,-747.02 47.65,-738.53 33,-718 27.63,-710.48 26.04,-700.8 26.12,-691.66"/>
<polygon fill="black" stroke="black" points="29.61,-691.95 26.92,-681.7 22.63,-691.39 29.61,-691.95"/>
<text text-anchor="start" x="37" y="-706" font-family="Courier New" font-weight="bold" font-size="10.00" fill="blue">ADDI(WPARM,BURN_TIME)</text>
</g>
<!-- 32 -->
<g id="node9" class="node">
<title>32</title>
<ellipse fill="none" stroke="black" cx="27" cy="-570" rx="27" ry="18"/>
<text text-anchor="middle" x="27" y="-565.8" font-family="Times,serif" font-size="14.00">32</text>
</g>
<!-- 31&#45;&gt;32 -->
<g id="edge9" class="edge">
<title>31&#45;&gt;32</title>
<path fill="none" stroke="black" d="M30.23,-643.65C29.68,-631.2 28.92,-614.14 28.27,-599.68"/>
<polygon fill="black" stroke="black" points="31.78,-599.65 27.84,-589.81 24.78,-599.96 31.78,-599.65"/>
<text text-anchor="start" x="34" y="-614" font-family="Courier New" font-weight="bold" font-size="10.00" fill="blue">CLEAR(DETIME,)</text>
</g>
<!-- 40 -->
<g id="node10" class="node">
<title>40</title>
<ellipse fill="none" stroke="black" cx="147" cy="-478" rx="27" ry="18"/>
<text text-anchor="middle" x="147" y="-473.8" font-family="Times,serif" font-size="14.00">40</text>
</g>
<!-- 32&#45;&gt;40 -->
<g id="edge10" class="edge">
<title>32&#45;&gt;40</title>
<path fill="none" stroke="black" d="M22.06,-551.94C19.73,-540.14 18.98,-524.69 27,-514 45.63,-489.16 80.91,-481.16 108.42,-478.92"/>
<polygon fill="black" stroke="black" points="108.36,-482.43 118.15,-478.37 107.97,-475.44 108.36,-482.43"/>
<text text-anchor="start" x="31" y="-522" font-family="Courier New" font-weight="bold" font-size="10.00" fill="blue">PLAYWAVE(0,SOUND_FIRE)</text>
</g>
<!-- 40&#45;&gt;30 -->
<g id="edge12" class="edge">
<title>40&#45;&gt;30</title>
<path fill="none" stroke="black" d="M158.23,-494.62C161.76,-500.42 165.2,-507.24 167,-514 190.27,-601.63 205.93,-636.12 167,-718 163.85,-724.62 158.78,-730.39 153.19,-735.25"/>
<polygon fill="black" stroke="black" points="151.25,-732.33 145.42,-741.18 155.49,-737.9 151.25,-732.33"/>
<text text-anchor="start" x="195" y="-614" font-family="Courier New" font-weight="bold" font-size="10.00" fill="orange">DROP(0,IDD_LOG)</text>
</g>
<!-- 50 -->
<g id="node11" class="node">
<title>50</title>
<ellipse fill="none" stroke="black" cx="214" cy="-386" rx="27" ry="18"/>
<text text-anchor="middle" x="214" y="-381.8" font-family="Times,serif" font-size="14.00">50</text>
</g>
<!-- 40&#45;&gt;50 -->
<g id="edge11" class="edge">
<title>40&#45;&gt;50</title>
<path fill="none" stroke="black" d="M124.02,-468.42C100.87,-458.47 70.49,-440.97 85,-422 96.11,-407.47 142.47,-397.56 176.45,-392.09"/>
<polygon fill="black" stroke="black" points="176.58,-395.61 185.93,-390.64 175.51,-388.69 176.58,-395.61"/>
<text text-anchor="start" x="89" y="-430" font-family="Courier New" font-weight="bold" font-size="10.00" fill="orange">DROP(0,IDD_WATER)</text>
</g>
<!-- 40&#45;&gt;50 -->
<g id="edge13" class="edge">
<title>40&#45;&gt;50</title>
<path fill="none" stroke="black" d="M167.5,-465.98C177,-459.99 187.76,-451.79 195,-442 200.83,-434.12 204.97,-424.31 207.86,-415.17"/>
<polygon fill="black" stroke="black" points="211.22,-416.17 210.49,-405.6 204.47,-414.31 211.22,-416.17"/>
<text text-anchor="start" x="209" y="-430" font-family="Courier New" font-weight="bold" font-size="10.00" fill="blue">ESTIME(WPARM,)</text>
</g>
<!-- 51 -->
<g id="node12" class="node">
<title>51</title>
<ellipse fill="none" stroke="black" cx="214" cy="-294" rx="27" ry="18"/>
<text text-anchor="middle" x="214" y="-289.8" font-family="Times,serif" font-size="14.00">51</text>
</g>
<!-- 50&#45;&gt;51 -->
<g id="edge14" class="edge">
<title>50&#45;&gt;51</title>
<path fill="none" stroke="black" d="M214,-367.65C214,-355.2 214,-338.14 214,-323.68"/>
<polygon fill="black" stroke="black" points="217.5,-323.81 214,-313.81 210.5,-323.81 217.5,-323.81"/>
<text text-anchor="start" x="218" y="-338" font-family="Courier New" font-weight="bold" font-size="10.00" fill="blue">CLEAR(WOBJECT,)</text>
</g>
<!-- 52 -->
<g id="node13" class="node">
<title>52</title>
<ellipse fill="none" stroke="black" cx="217" cy="-202" rx="27" ry="18"/>
<text text-anchor="middle" x="217" y="-197.8" font-family="Times,serif" font-size="14.00">52</text>
</g>
<!-- 51&#45;&gt;52 -->
<g id="edge15" class="edge">
<title>51&#45;&gt;52</title>
<path fill="none" stroke="black" d="M214.14,-275.66C214.27,-264.83 214.53,-250.6 215,-238 215.08,-235.95 215.17,-233.82 215.27,-231.69"/>
<polygon fill="black" stroke="black" points="218.75,-232.12 215.79,-221.95 211.76,-231.75 218.75,-232.12"/>
<text text-anchor="start" x="219" y="-246" font-family="Courier New" font-weight="bold" font-size="10.00" fill="blue">CLEAR(WSPRITE,)</text>
</g>
<!-- 53 -->
<g id="node14" class="node">
<title>53</title>
<ellipse fill="none" stroke="black" cx="232" cy="-110" rx="27" ry="18"/>
<text text-anchor="middle" x="232" y="-105.8" font-family="Times,serif" font-size="14.00">53</text>
</g>
<!-- 52&#45;&gt;53 -->
<g id="edge16" class="edge">
<title>52&#45;&gt;53</title>
<path fill="none" stroke="black" d="M219.89,-183.65C221.99,-171.07 224.87,-153.79 227.29,-139.24"/>
<polygon fill="black" stroke="black" points="230.68,-140.23 228.87,-129.79 223.77,-139.08 230.68,-140.23"/>
<text text-anchor="start" x="229" y="-154" font-family="Courier New" font-weight="bold" font-size="10.00" fill="blue">CLEAR(WPARM,)</text>
</g>
<!-- 54 -->
<g id="node15" class="node">
<title>54</title>
<ellipse fill="none" stroke="black" cx="282" cy="-18" rx="27" ry="18"/>
<text text-anchor="middle" x="282" y="-13.8" font-family="Times,serif" font-size="14.00">54</text>
</g>
<!-- 53&#45;&gt;54 -->
<g id="edge17" class="edge">
<title>53&#45;&gt;54</title>
<path fill="none" stroke="black" d="M236.04,-91.89C239.14,-80.64 244.07,-65.86 251,-54 253.44,-49.82 256.43,-45.69 259.57,-41.81"/>
<polygon fill="black" stroke="black" points="262.06,-44.28 266.02,-34.45 256.79,-39.67 262.06,-44.28"/>
<text text-anchor="start" x="255" y="-62" font-family="Courier New" font-weight="bold" font-size="10.00" fill="blue">SHOW(0,0)</text>
</g>
<!-- 54&#45;&gt;0 -->
<g id="edge18" class="edge">
<title>54&#45;&gt;0</title>
<path fill="none" stroke="black" d="M297.31,-33.14C302.97,-39.09 308.97,-46.4 313,-54 324.81,-76.29 327,-83.78 327,-109 327,-1215 327,-1215 327,-1215 327,-1245.63 300.93,-1271.09 279.13,-1287.02"/>
<polygon fill="black" stroke="black" points="277.31,-1284.02 271.07,-1292.59 281.29,-1289.78 277.31,-1284.02"/>
<text text-anchor="start" x="331" y="-660" font-family="Courier New" font-weight="bold" font-size="10.00" fill="blue">STOPWAVE(0,0)</text>
</g>
</g>
</svg>
