<?xml version="1.0" encoding="UTF-8" standalone="no"?>
<!DOCTYPE svg PUBLIC "-//W3C//DTD SVG 1.1//EN"
 "http://www.w3.org/Graphics/SVG/1.1/DTD/svg11.dtd">
<!-- Generated by graphviz version 7.1.0 (20230121.1956)
 -->
<!-- Pages: 1 -->
<svg width="517pt" height="964pt"
 viewBox="0.00 0.00 517.24 964.00" xmlns="http://www.w3.org/2000/svg" xmlns:xlink="http://www.w3.org/1999/xlink">
<g id="graph0" class="graph" transform="scale(1 1) rotate(0) translate(4 960)">
<polygon fill="white" stroke="none" points="-4,4 -4,-960 513.24,-960 513.24,4 -4,4"/>
<!-- 0 -->
<g id="node1" class="node">
<title>0</title>
<ellipse fill="none" stroke="black" cx="381.24" cy="-938" rx="27" ry="18"/>
<text text-anchor="middle" x="381.24" y="-933.8" font-family="Times,serif" font-size="14.00">0</text>
</g>
<!-- 1 -->
<g id="node2" class="node">
<title>1</title>
<ellipse fill="none" stroke="black" cx="381.24" cy="-846" rx="27" ry="18"/>
<text text-anchor="middle" x="381.24" y="-841.8" font-family="Times,serif" font-size="14.00">1</text>
</g>
<!-- 0&#45;&gt;1 -->
<g id="edge1" class="edge">
<title>0&#45;&gt;1</title>
<path fill="none" stroke="black" d="M381.24,-919.65C381.24,-907.2 381.24,-890.14 381.24,-875.68"/>
<polygon fill="black" stroke="black" points="384.74,-875.81 381.24,-865.81 377.74,-875.81 384.74,-875.81"/>
<text text-anchor="start" x="385.24" y="-890" font-family="Courier New" font-weight="bold" font-size="10.00" fill="blue">C_ACCEPT(0,IDC_FISH)</text>
</g>
<!-- 10 -->
<g id="node3" class="node">
<title>10</title>
<ellipse fill="none" stroke="black" cx="328.24" cy="-754" rx="27" ry="18"/>
<text text-anchor="middle" x="328.24" y="-749.8" font-family="Times,serif" font-size="14.00">10</text>
</g>
<!-- 1&#45;&gt;10 -->
<g id="edge2" class="edge">
<title>1&#45;&gt;10</title>
<path fill="none" stroke="black" d="M367,-830.47C361.6,-824.46 355.69,-817.22 351.24,-810 345.99,-801.48 341.43,-791.55 337.78,-782.49"/>
<polygon fill="black" stroke="black" points="341.16,-781.54 334.33,-773.44 334.62,-784.03 341.16,-781.54"/>
<text text-anchor="start" x="355.24" y="-798" font-family="Courier New" font-weight="bold" font-size="10.00" fill="orange">DROP(0,0)</text>
</g>
<!-- 20 -->
<g id="node4" class="node">
<title>20</title>
<ellipse fill="none" stroke="black" cx="307.24" cy="-662" rx="27" ry="18"/>
<text text-anchor="middle" x="307.24" y="-657.8" font-family="Times,serif" font-size="14.00">20</text>
</g>
<!-- 10&#45;&gt;20 -->
<g id="edge3" class="edge">
<title>10&#45;&gt;20</title>
<path fill="none" stroke="black" d="M324.29,-736.07C321.35,-723.46 317.26,-705.94 313.83,-691.22"/>
<polygon fill="black" stroke="black" points="317.27,-690.58 311.59,-681.63 310.45,-692.17 317.27,-690.58"/>
<text text-anchor="start" x="323.24" y="-706" font-family="Courier New" font-weight="bold" font-size="10.00" fill="blue">SHOW(WOBJECT,)</text>
</g>
<!-- 50 -->
<g id="node5" class="node">
<title>50</title>
<ellipse fill="none" stroke="black" cx="212.24" cy="-570" rx="27" ry="18"/>
<text text-anchor="middle" x="212.24" y="-565.8" font-family="Times,serif" font-size="14.00">50</text>
</g>
<!-- 20&#45;&gt;50 -->
<g id="edge4" class="edge">
<title>20&#45;&gt;50</title>
<path fill="none" stroke="black" d="M292.4,-646.94C277.15,-632.49 253.2,-609.8 235.45,-592.98"/>
<polygon fill="black" stroke="black" points="238.06,-590.64 228.39,-586.3 233.25,-595.72 238.06,-590.64"/>
<text text-anchor="start" x="272.24" y="-614" font-family="Courier New" font-weight="bold" font-size="10.00" fill="blue">ANIMATE(0,V_LOOP)</text>
</g>
<!-- 60 -->
<g id="node6" class="node">
<title>60</title>
<ellipse fill="none" stroke="black" cx="182.24" cy="-478" rx="27" ry="18"/>
<text text-anchor="middle" x="182.24" y="-473.8" font-family="Times,serif" font-size="14.00">60</text>
</g>
<!-- 50&#45;&gt;60 -->
<g id="edge5" class="edge">
<title>50&#45;&gt;60</title>
<path fill="none" stroke="black" d="M184.93,-568.49C134.65,-566.91 30.53,-560.44 8.24,-534 -30.13,-488.49 81.56,-480.16 143.7,-478.94"/>
<polygon fill="black" stroke="black" points="143.58,-482.45 153.53,-478.81 143.48,-475.45 143.58,-482.45"/>
<text text-anchor="start" x="12.24" y="-522" font-family="Courier New" font-weight="bold" font-size="10.00" fill="blue">ESTIME(0,FISH_BURN_TIME)</text>
</g>
<!-- 80 -->
<g id="node7" class="node">
<title>80</title>
<ellipse fill="none" stroke="black" cx="337.24" cy="-18" rx="27" ry="18"/>
<text text-anchor="middle" x="337.24" y="-13.8" font-family="Times,serif" font-size="14.00">80</text>
</g>
<!-- 50&#45;&gt;80 -->
<g id="edge6" class="edge">
<title>50&#45;&gt;80</title>
<path fill="none" stroke="black" d="M239.42,-567.69C264.64,-564.99 301.45,-557.05 323.24,-534 340.57,-515.67 337.24,-504.22 337.24,-479 337.24,-479 337.24,-479 337.24,-109 337.24,-88.43 337.24,-65.22 337.24,-47.53"/>
<polygon fill="black" stroke="black" points="340.74,-47.77 337.24,-37.77 333.74,-47.77 340.74,-47.77"/>
<text text-anchor="start" x="341.24" y="-292" font-family="Courier New" font-weight="bold" font-size="10.00" fill="orange">GRAB(0,0)</text>
</g>
<!-- 60&#45;&gt;50 -->
<g id="edge8" class="edge">
<title>60&#45;&gt;50</title>
<path fill="none" stroke="black" d="M179.67,-496.39C178.73,-507.49 178.79,-522 183.24,-534 184.8,-538.21 187.1,-542.27 189.73,-546.05"/>
<polygon fill="black" stroke="black" points="186.79,-547.98 195.78,-553.59 192.25,-543.6 186.79,-547.98"/>
<text text-anchor="start" x="187.24" y="-522" font-family="Courier New" font-weight="bold" font-size="10.00" fill="blue">NOTSTATE(ON_FIRE,WIP1)</text>
</g>
<!-- 61 -->
<g id="node8" class="node">
<title>61</title>
<ellipse fill="none" stroke="black" cx="182.24" cy="-386" rx="27" ry="18"/>
<text text-anchor="middle" x="182.24" y="-381.8" font-family="Times,serif" font-size="14.00">61</text>
</g>
<!-- 60&#45;&gt;61 -->
<g id="edge7" class="edge">
<title>60&#45;&gt;61</title>
<path fill="none" stroke="black" d="M182.24,-459.65C182.24,-447.2 182.24,-430.14 182.24,-415.68"/>
<polygon fill="black" stroke="black" points="185.74,-415.81 182.24,-405.81 178.74,-415.81 185.74,-415.81"/>
<text text-anchor="start" x="186.24" y="-430" font-family="Courier New" font-weight="bold" font-size="10.00" fill="blue">MAP_OBJ(0,OP_BURN)</text>
</g>
<!-- 80&#45;&gt;1 -->
<g id="edge13" class="edge">
<title>80&#45;&gt;1</title>
<path fill="none" stroke="black" d="M359.03,-28.95C385.66,-42.79 427.24,-70.55 427.24,-109 427.24,-755 427.24,-755 427.24,-755 427.24,-780.22 425.22,-787.8 413.24,-810 410.91,-814.32 407.93,-818.53 404.73,-822.44"/>
<polygon fill="black" stroke="black" points="402.17,-820.05 398.07,-829.82 407.37,-824.74 402.17,-820.05"/>
<text text-anchor="start" x="431.24" y="-430" font-family="Courier New" font-weight="bold" font-size="10.00" fill="blue">SHOW(0,0)</text>
</g>
<!-- 62 -->
<g id="node9" class="node">
<title>62</title>
<ellipse fill="none" stroke="black" cx="182.24" cy="-294" rx="27" ry="18"/>
<text text-anchor="middle" x="182.24" y="-289.8" font-family="Times,serif" font-size="14.00">62</text>
</g>
<!-- 61&#45;&gt;62 -->
<g id="edge9" class="edge">
<title>61&#45;&gt;62</title>
<path fill="none" stroke="black" d="M182.24,-367.65C182.24,-355.2 182.24,-338.14 182.24,-323.68"/>
<polygon fill="black" stroke="black" points="185.74,-323.81 182.24,-313.81 178.74,-323.81 185.74,-323.81"/>
<text text-anchor="start" x="186.24" y="-338" font-family="Courier New" font-weight="bold" font-size="10.00" fill="blue">SHOW(0,IDS_FISHASH)</text>
</g>
<!-- 63 -->
<g id="node10" class="node">
<title>63</title>
<ellipse fill="none" stroke="black" cx="196.24" cy="-202" rx="27" ry="18"/>
<text text-anchor="middle" x="196.24" y="-197.8" font-family="Times,serif" font-size="14.00">63</text>
</g>
<!-- 62&#45;&gt;63 -->
<g id="edge10" class="edge">
<title>62&#45;&gt;63</title>
<path fill="none" stroke="black" d="M181.09,-276C180.7,-265.05 180.86,-250.57 183.24,-238 183.71,-235.52 184.34,-232.98 185.07,-230.46"/>
<polygon fill="black" stroke="black" points="188.31,-231.79 188.22,-221.19 181.68,-229.53 188.31,-231.79"/>
<text text-anchor="start" x="187.24" y="-246" font-family="Courier New" font-weight="bold" font-size="10.00" fill="blue">PLAYWAVE(0,SOUND_FIRE)</text>
</g>
<!-- 70 -->
<g id="node11" class="node">
<title>70</title>
<ellipse fill="none" stroke="black" cx="242.24" cy="-110" rx="27" ry="18"/>
<text text-anchor="middle" x="242.24" y="-105.8" font-family="Times,serif" font-size="14.00">70</text>
</g>
<!-- 63&#45;&gt;70 -->
<g id="edge11" class="edge">
<title>63&#45;&gt;70</title>
<path fill="none" stroke="black" d="M204.68,-184.49C211.42,-171.3 221,-152.55 228.8,-137.3"/>
<polygon fill="black" stroke="black" points="231.73,-139.25 233.17,-128.75 225.5,-136.06 231.73,-139.25"/>
<text text-anchor="start" x="227.24" y="-154" font-family="Courier New" font-weight="bold" font-size="10.00" fill="blue">SIGNAL(WIP2,)</text>
</g>
<!-- 70&#45;&gt;80 -->
<g id="edge12" class="edge">
<title>70&#45;&gt;80</title>
<path fill="none" stroke="black" d="M244.56,-91.81C246.95,-79.95 251.75,-64.48 261.24,-54 271.89,-42.25 287.27,-34.15 301.42,-28.73"/>
<polygon fill="black" stroke="black" points="302.17,-32.18 310.47,-25.59 299.88,-25.56 302.17,-32.18"/>
<text text-anchor="start" x="265.24" y="-62" font-family="Courier New" font-weight="bold" font-size="10.00" fill="orange">GRAB(0,0)</text>
</g>
</g>
</svg>
