<?xml version="1.0" encoding="UTF-8" standalone="no"?>
<!DOCTYPE svg PUBLIC "-//W3C//DTD SVG 1.1//EN"
 "http://www.w3.org/Graphics/SVG/1.1/DTD/svg11.dtd">
<!-- Generated by graphviz version 7.1.0 (20230121.1956)
 -->
<!-- Title: Automaton Pages: 1 -->
<svg width="421pt" height="1349pt"
 viewBox="0.00 0.00 421.00 1349.00" xmlns="http://www.w3.org/2000/svg" xmlns:xlink="http://www.w3.org/1999/xlink">
<g id="graph0" class="graph" transform="scale(1 1) rotate(0) translate(4 1345)">
<title>Automaton</title>
<polygon fill="white" stroke="none" points="-4,4 -4,-1345 417,-1345 417,4 -4,4"/>
<!-- filename -->
<g id="node1" class="node">
<title>filename</title>
<polygon fill="none" stroke="black" points="87,-1288.5 87,-1340.5 205,-1340.5 205,-1288.5 87,-1288.5"/>
<polygon fill="none" stroke="black" points="98,-1315.5 98,-1333.5 194,-1333.5 194,-1315.5 98,-1315.5"/>
<text text-anchor="start" x="122" y="-1322.5" font-family="Courier New" font-weight="bold" font-size="10.00">M11_FIRE</text>
<polygon fill="none" stroke="black" points="98,-1295.5 98,-1313.5 194,-1313.5 194,-1295.5 98,-1295.5"/>
<text text-anchor="start" x="101" y="-1301.5" font-family="Courier New" font-size="10.00" fill="brown">start state = 0</text>
<polygon fill="none" stroke="black" points="95,-1292.5 95,-1336.5 197,-1336.5 197,-1292.5 95,-1292.5"/>
</g>
<!-- 0 -->
<g id="node2" class="node">
<title>0</title>
<polyline fill="none" stroke="darkred" points="243,-1303.5 257,-1303.5"/>
<text text-anchor="start" x="246" y="-1310.9" font-family="Courier New" font-weight="bold" font-size="14.00">0</text>
<path fill="none" stroke="darkred" d="M246.67,-1300.5C246.67,-1300.5 253.33,-1300.5 253.33,-1300.5 256.67,-1300.5 260,-1303.83 260,-1307.17 260,-1307.17 260,-1321.83 260,-1321.83 260,-1325.17 256.67,-1328.5 253.33,-1328.5 253.33,-1328.5 246.67,-1328.5 246.67,-1328.5 243.33,-1328.5 240,-1325.17 240,-1321.83 240,-1321.83 240,-1307.17 240,-1307.17 240,-1303.83 243.33,-1300.5 246.67,-1300.5"/>
</g>
<!-- 1 -->
<g id="node3" class="node">
<title>1</title>
<polyline fill="none" stroke="darkred" points="88,-1203 102,-1203"/>
<text text-anchor="start" x="91" y="-1210.4" font-family="Courier New" font-weight="bold" font-size="14.00">1</text>
<path fill="none" stroke="darkred" d="M91.67,-1200C91.67,-1200 98.33,-1200 98.33,-1200 101.67,-1200 105,-1203.33 105,-1206.67 105,-1206.67 105,-1221.33 105,-1221.33 105,-1224.67 101.67,-1228 98.33,-1228 98.33,-1228 91.67,-1228 91.67,-1228 88.33,-1228 85,-1224.67 85,-1221.33 85,-1221.33 85,-1206.67 85,-1206.67 85,-1203.33 88.33,-1200 91.67,-1200"/>
</g>
<!-- 0&#45;&gt;1 -->
<g id="edge1" class="edge">
<title>0&#45;&gt;1</title>
<path fill="none" stroke="black" d="M229.12,-1296.7C224.35,-1293.45 219.16,-1290.33 214,-1288 182.37,-1273.71 167.23,-1288.73 138,-1270 126.86,-1262.86 117.41,-1251.82 110.22,-1241.49"/>
<polygon fill="black" stroke="black" points="113.25,-1239.72 104.87,-1233.23 107.37,-1243.53 113.25,-1239.72"/>
<text text-anchor="start" x="142" y="-1258" font-family="Courier New" font-weight="bold" font-size="10.00" fill="orange">DROP(0,IDD_LOG)</text>
</g>
<!-- 2 -->
<g id="node4" class="node">
<title>2</title>
<polyline fill="none" stroke="darkred" points="87,-1111 101,-1111"/>
<text text-anchor="start" x="90" y="-1118.4" font-family="Courier New" font-weight="bold" font-size="14.00">2</text>
<path fill="none" stroke="darkred" d="M90.67,-1108C90.67,-1108 97.33,-1108 97.33,-1108 100.67,-1108 104,-1111.33 104,-1114.67 104,-1114.67 104,-1129.33 104,-1129.33 104,-1132.67 100.67,-1136 97.33,-1136 97.33,-1136 90.67,-1136 90.67,-1136 87.33,-1136 84,-1132.67 84,-1129.33 84,-1129.33 84,-1114.67 84,-1114.67 84,-1111.33 87.33,-1108 90.67,-1108"/>
</g>
<!-- 1&#45;&gt;2 -->
<g id="edge2" class="edge">
<title>1&#45;&gt;2</title>
<path fill="none" stroke="black" d="M87.4,-1196.25C85.2,-1190.58 83.1,-1184.12 82,-1178 80.43,-1169.25 80.54,-1166.77 82,-1158 82.4,-1155.62 82.93,-1153.19 83.56,-1150.77"/>
<polygon fill="black" stroke="black" points="86.9,-1151.83 86.53,-1141.24 80.22,-1149.75 86.9,-1151.83"/>
<text text-anchor="start" x="86" y="-1166" font-family="Courier New" font-weight="bold" font-size="10.00" fill="blue">PLAYWAVE(0,SOUND_CLUNK)</text>
</g>
<!-- 20 -->
<g id="node5" class="node">
<title>20</title>
<polyline fill="none" stroke="darkred" points="113,-1019 135,-1019"/>
<text text-anchor="start" x="116" y="-1026.4" font-family="Courier New" font-weight="bold" font-size="14.00">20</text>
<path fill="none" stroke="darkred" d="M119.33,-1016C119.33,-1016 128.67,-1016 128.67,-1016 133.33,-1016 138,-1020.67 138,-1025.33 138,-1025.33 138,-1034.67 138,-1034.67 138,-1039.33 133.33,-1044 128.67,-1044 128.67,-1044 119.33,-1044 119.33,-1044 114.67,-1044 110,-1039.33 110,-1034.67 110,-1034.67 110,-1025.33 110,-1025.33 110,-1020.67 114.67,-1016 119.33,-1016"/>
</g>
<!-- 2&#45;&gt;20 -->
<g id="edge3" class="edge">
<title>2&#45;&gt;20</title>
<path fill="none" stroke="black" d="M97.41,-1104.41C99.87,-1093.37 103.54,-1078.64 108,-1066 108.9,-1063.45 109.92,-1060.83 110.99,-1058.22"/>
<polygon fill="black" stroke="black" points="114.12,-1059.78 114.95,-1049.22 107.72,-1056.96 114.12,-1059.78"/>
<text text-anchor="start" x="112" y="-1074" font-family="Courier New" font-weight="bold" font-size="10.00" fill="blue">SHOW(0,IDS_FISHWOOD)</text>
</g>
<!-- 20&#45;&gt;0 -->
<g id="edge5" class="edge">
<title>20&#45;&gt;0</title>
<path fill="none" stroke="black" d="M150.98,-1031.23C177.22,-1033.05 215.96,-1040.29 236,-1066 249.21,-1082.95 250.33,-1224.12 250.18,-1285.35"/>
<polygon fill="black" stroke="black" points="246.68,-1285.27 250.14,-1295.29 253.68,-1285.3 246.68,-1285.27"/>
<text text-anchor="start" x="252" y="-1166" font-family="Courier New" font-weight="bold" font-size="10.00" fill="orange">GRAB(0,0)</text>
</g>
<!-- 21 -->
<g id="node6" class="node">
<title>21</title>
<polyline fill="none" stroke="darkred" points="113,-927 135,-927"/>
<text text-anchor="start" x="116" y="-934.4" font-family="Courier New" font-weight="bold" font-size="14.00">21</text>
<path fill="none" stroke="darkred" d="M119.33,-924C119.33,-924 128.67,-924 128.67,-924 133.33,-924 138,-928.67 138,-933.33 138,-933.33 138,-942.67 138,-942.67 138,-947.33 133.33,-952 128.67,-952 128.67,-952 119.33,-952 119.33,-952 114.67,-952 110,-947.33 110,-942.67 110,-942.67 110,-933.33 110,-933.33 110,-928.67 114.67,-924 119.33,-924"/>
</g>
<!-- 20&#45;&gt;21 -->
<g id="edge4" class="edge">
<title>20&#45;&gt;21</title>
<path fill="none" stroke="black" d="M124,-1012.07C124,-999.38 124,-981.71 124,-966.94"/>
<polygon fill="black" stroke="black" points="127.5,-967.37 124,-957.37 120.5,-967.37 127.5,-967.37"/>
<text text-anchor="start" x="128" y="-982" font-family="Courier New" font-weight="bold" font-size="10.00" fill="orange">DRAG(0,IDD_MATCH)</text>
</g>
<!-- 22 -->
<g id="node7" class="node">
<title>22</title>
<polyline fill="none" stroke="darkred" points="113,-835 135,-835"/>
<text text-anchor="start" x="116" y="-842.4" font-family="Courier New" font-weight="bold" font-size="14.00">22</text>
<path fill="none" stroke="darkred" d="M119.33,-832C119.33,-832 128.67,-832 128.67,-832 133.33,-832 138,-836.67 138,-841.33 138,-841.33 138,-850.67 138,-850.67 138,-855.33 133.33,-860 128.67,-860 128.67,-860 119.33,-860 119.33,-860 114.67,-860 110,-855.33 110,-850.67 110,-850.67 110,-841.33 110,-841.33 110,-836.67 114.67,-832 119.33,-832"/>
</g>
<!-- 21&#45;&gt;22 -->
<g id="edge6" class="edge">
<title>21&#45;&gt;22</title>
<path fill="none" stroke="black" d="M124,-920.07C124,-907.38 124,-889.71 124,-874.94"/>
<polygon fill="black" stroke="black" points="127.5,-875.37 124,-865.37 120.5,-875.37 127.5,-875.37"/>
<text text-anchor="start" x="128" y="-890" font-family="Courier New" font-weight="bold" font-size="10.00" fill="blue">SHOW(0,IDS_BURNWOOD)</text>
</g>
<!-- 30 -->
<g id="node8" class="node">
<title>30</title>
<polyline fill="none" stroke="darkred" points="113,-743 135,-743"/>
<text text-anchor="start" x="116" y="-750.4" font-family="Courier New" font-weight="bold" font-size="14.00">30</text>
<path fill="none" stroke="darkred" d="M119.33,-740C119.33,-740 128.67,-740 128.67,-740 133.33,-740 138,-744.67 138,-749.33 138,-749.33 138,-758.67 138,-758.67 138,-763.33 133.33,-768 128.67,-768 128.67,-768 119.33,-768 119.33,-768 114.67,-768 110,-763.33 110,-758.67 110,-758.67 110,-749.33 110,-749.33 110,-744.67 114.67,-740 119.33,-740"/>
</g>
<!-- 22&#45;&gt;30 -->
<g id="edge7" class="edge">
<title>22&#45;&gt;30</title>
<path fill="none" stroke="black" d="M124,-828.07C124,-815.38 124,-797.71 124,-782.94"/>
<polygon fill="black" stroke="black" points="127.5,-783.37 124,-773.37 120.5,-783.37 127.5,-783.37"/>
<text text-anchor="start" x="128" y="-798" font-family="Courier New" font-weight="bold" font-size="10.00" fill="blue">ANIMATE(0,V_LOOP|V_REWIND)</text>
</g>
<!-- 31 -->
<g id="node9" class="node">
<title>31</title>
<polyline fill="none" stroke="darkred" points="20,-651 42,-651"/>
<text text-anchor="start" x="23" y="-658.4" font-family="Courier New" font-weight="bold" font-size="14.00">31</text>
<path fill="none" stroke="darkred" d="M26.33,-648C26.33,-648 35.67,-648 35.67,-648 40.33,-648 45,-652.67 45,-657.33 45,-657.33 45,-666.67 45,-666.67 45,-671.33 40.33,-676 35.67,-676 35.67,-676 26.33,-676 26.33,-676 21.67,-676 17,-671.33 17,-666.67 17,-666.67 17,-657.33 17,-657.33 17,-652.67 21.67,-648 26.33,-648"/>
</g>
<!-- 30&#45;&gt;31 -->
<g id="edge8" class="edge">
<title>30&#45;&gt;31</title>
<path fill="none" stroke="black" d="M97.28,-750.53C76.08,-747.02 47.65,-738.53 33,-718 27.54,-710.34 25.98,-700.44 26.13,-691.16"/>
<polygon fill="black" stroke="black" points="29.6,-691.7 26.95,-681.45 22.62,-691.12 29.6,-691.7"/>
<text text-anchor="start" x="37" y="-706" font-family="Courier New" font-weight="bold" font-size="10.00" fill="blue">ADDI(WPARM,BURN_TIME)</text>
</g>
<!-- 32 -->
<g id="node10" class="node">
<title>32</title>
<polyline fill="none" stroke="darkred" points="16,-559 38,-559"/>
<text text-anchor="start" x="19" y="-566.4" font-family="Courier New" font-weight="bold" font-size="14.00">32</text>
<path fill="none" stroke="darkred" d="M22.33,-556C22.33,-556 31.67,-556 31.67,-556 36.33,-556 41,-560.67 41,-565.33 41,-565.33 41,-574.67 41,-574.67 41,-579.33 36.33,-584 31.67,-584 31.67,-584 22.33,-584 22.33,-584 17.67,-584 13,-579.33 13,-574.67 13,-574.67 13,-565.33 13,-565.33 13,-560.67 17.67,-556 22.33,-556"/>
</g>
<!-- 31&#45;&gt;32 -->
<g id="edge9" class="edge">
<title>31&#45;&gt;32</title>
<path fill="none" stroke="black" d="M30.25,-644.07C29.68,-631.38 28.9,-613.71 28.24,-598.94"/>
<polygon fill="black" stroke="black" points="31.76,-599.2 27.82,-589.36 24.76,-599.51 31.76,-599.2"/>
<text text-anchor="start" x="34" y="-614" font-family="Courier New" font-weight="bold" font-size="10.00" fill="blue">CLEAR(DETIME,)</text>
</g>
<!-- 40 -->
<g id="node11" class="node">
<title>40</title>
<polyline fill="none" stroke="darkred" points="136,-467 158,-467"/>
<text text-anchor="start" x="139" y="-474.4" font-family="Courier New" font-weight="bold" font-size="14.00">40</text>
<path fill="none" stroke="darkred" d="M142.33,-464C142.33,-464 151.67,-464 151.67,-464 156.33,-464 161,-468.67 161,-473.33 161,-473.33 161,-482.67 161,-482.67 161,-487.33 156.33,-492 151.67,-492 151.67,-492 142.33,-492 142.33,-492 137.67,-492 133,-487.33 133,-482.67 133,-482.67 133,-473.33 133,-473.33 133,-468.67 137.67,-464 142.33,-464"/>
</g>
<!-- 32&#45;&gt;40 -->
<g id="edge10" class="edge">
<title>32&#45;&gt;40</title>
<path fill="none" stroke="black" d="M22.11,-552.2C19.74,-540.36 18.92,-524.77 27,-514 45.74,-489.01 81.34,-481.06 108.92,-478.88"/>
<polygon fill="black" stroke="black" points="108.87,-482.39 118.67,-478.35 108.49,-475.4 108.87,-482.39"/>
<text text-anchor="start" x="31" y="-522" font-family="Courier New" font-weight="bold" font-size="10.00" fill="blue">PLAYWAVE(0,SOUND_FIRE)</text>
</g>
<!-- 40&#45;&gt;30 -->
<g id="edge12" class="edge">
<title>40&#45;&gt;30</title>
<path fill="none" stroke="black" d="M158.86,-495.67C162.17,-501.23 165.31,-507.64 167,-514 190.27,-601.63 205.93,-636.12 167,-718 164.95,-722.3 162.09,-726.25 158.81,-729.82"/>
<polygon fill="black" stroke="black" points="156.63,-727.06 151.66,-736.42 161.38,-732.2 156.63,-727.06"/>
<text text-anchor="start" x="195" y="-614" font-family="Courier New" font-weight="bold" font-size="10.00" fill="orange">DROP(0,IDD_LOG)</text>
</g>
<!-- 50 -->
<g id="node12" class="node">
<title>50</title>
<polyline fill="none" stroke="darkred" points="203,-375 225,-375"/>
<text text-anchor="start" x="206" y="-382.4" font-family="Courier New" font-weight="bold" font-size="14.00">50</text>
<path fill="none" stroke="darkred" d="M209.33,-372C209.33,-372 218.67,-372 218.67,-372 223.33,-372 228,-376.67 228,-381.33 228,-381.33 228,-390.67 228,-390.67 228,-395.33 223.33,-400 218.67,-400 218.67,-400 209.33,-400 209.33,-400 204.67,-400 200,-395.33 200,-390.67 200,-390.67 200,-381.33 200,-381.33 200,-376.67 204.67,-372 209.33,-372"/>
</g>
<!-- 40&#45;&gt;50 -->
<g id="edge11" class="edge">
<title>40&#45;&gt;50</title>
<path fill="none" stroke="black" d="M120.2,-466.74C97.7,-456.56 71.28,-439.94 85,-422 96.08,-407.51 142.21,-397.62 176.16,-392.14"/>
<polygon fill="black" stroke="black" points="176.29,-395.66 185.64,-390.68 175.22,-388.74 176.29,-395.66"/>
<text text-anchor="start" x="89" y="-430" font-family="Courier New" font-weight="bold" font-size="10.00" fill="orange">DROP(0,IDD_WATER)</text>
</g>
<!-- 40&#45;&gt;50 -->
<g id="edge13" class="edge">
<title>40&#45;&gt;50</title>
<path fill="none" stroke="black" d="M173.91,-461.71C181.57,-456.3 189.36,-449.63 195,-442 200.98,-433.92 205.18,-423.8 208.08,-414.46"/>
<polygon fill="black" stroke="black" points="211.38,-415.67 210.62,-405.1 204.63,-413.84 211.38,-415.67"/>
<text text-anchor="start" x="209" y="-430" font-family="Courier New" font-weight="bold" font-size="10.00" fill="blue">ESTIME(WPARM,)</text>
</g>
<!-- 51 -->
<g id="node13" class="node">
<title>51</title>
<polyline fill="none" stroke="darkred" points="203,-283 225,-283"/>
<text text-anchor="start" x="206" y="-290.4" font-family="Courier New" font-weight="bold" font-size="14.00">51</text>
<path fill="none" stroke="darkred" d="M209.33,-280C209.33,-280 218.67,-280 218.67,-280 223.33,-280 228,-284.67 228,-289.33 228,-289.33 228,-298.67 228,-298.67 228,-303.33 223.33,-308 218.67,-308 218.67,-308 209.33,-308 209.33,-308 204.67,-308 200,-303.33 200,-298.67 200,-298.67 200,-289.33 200,-289.33 200,-284.67 204.67,-280 209.33,-280"/>
</g>
<!-- 50&#45;&gt;51 -->
<g id="edge14" class="edge">
<title>50&#45;&gt;51</title>
<path fill="none" stroke="black" d="M214,-368.07C214,-355.38 214,-337.71 214,-322.94"/>
<polygon fill="black" stroke="black" points="217.5,-323.37 214,-313.37 210.5,-323.37 217.5,-323.37"/>
<text text-anchor="start" x="218" y="-338" font-family="Courier New" font-weight="bold" font-size="10.00" fill="blue">CLEAR(WOBJECT,)</text>
</g>
<!-- 52 -->
<g id="node14" class="node">
<title>52</title>
<polyline fill="none" stroke="darkred" points="206,-191 228,-191"/>
<text text-anchor="start" x="209" y="-198.4" font-family="Courier New" font-weight="bold" font-size="14.00">52</text>
<path fill="none" stroke="darkred" d="M212.33,-188C212.33,-188 221.67,-188 221.67,-188 226.33,-188 231,-192.67 231,-197.33 231,-197.33 231,-206.67 231,-206.67 231,-211.33 226.33,-216 221.67,-216 221.67,-216 212.33,-216 212.33,-216 207.67,-216 203,-211.33 203,-206.67 203,-206.67 203,-197.33 203,-197.33 203,-192.67 207.67,-188 212.33,-188"/>
</g>
<!-- 51&#45;&gt;52 -->
<g id="edge15" class="edge">
<title>51&#45;&gt;52</title>
<path fill="none" stroke="black" d="M214.14,-276.15C214.27,-265.26 214.52,-250.79 215,-238 215.08,-235.76 215.19,-233.45 215.3,-231.12"/>
<polygon fill="black" stroke="black" points="218.79,-231.41 215.83,-221.24 211.8,-231.04 218.79,-231.41"/>
<text text-anchor="start" x="219" y="-246" font-family="Courier New" font-weight="bold" font-size="10.00" fill="blue">CLEAR(WSPRITE,)</text>
</g>
<!-- 53 -->
<g id="node15" class="node">
<title>53</title>
<polyline fill="none" stroke="darkred" points="221,-99 243,-99"/>
<text text-anchor="start" x="224" y="-106.4" font-family="Courier New" font-weight="bold" font-size="14.00">53</text>
<path fill="none" stroke="darkred" d="M227.33,-96C227.33,-96 236.67,-96 236.67,-96 241.33,-96 246,-100.67 246,-105.33 246,-105.33 246,-114.67 246,-114.67 246,-119.33 241.33,-124 236.67,-124 236.67,-124 227.33,-124 227.33,-124 222.67,-124 218,-119.33 218,-114.67 218,-114.67 218,-105.33 218,-105.33 218,-100.67 222.67,-96 227.33,-96"/>
</g>
<!-- 52&#45;&gt;53 -->
<g id="edge16" class="edge">
<title>52&#45;&gt;53</title>
<path fill="none" stroke="black" d="M219.82,-184.07C221.94,-171.38 224.88,-153.71 227.34,-138.94"/>
<polygon fill="black" stroke="black" points="230.75,-139.78 228.94,-129.35 223.85,-138.63 230.75,-139.78"/>
<text text-anchor="start" x="229" y="-154" font-family="Courier New" font-weight="bold" font-size="10.00" fill="blue">CLEAR(WPARM,)</text>
</g>
<!-- 54 -->
<g id="node16" class="node">
<title>54</title>
<polyline fill="none" stroke="darkred" points="271,-7 293,-7"/>
<text text-anchor="start" x="274" y="-14.4" font-family="Courier New" font-weight="bold" font-size="14.00">54</text>
<path fill="none" stroke="darkred" d="M277.33,-4C277.33,-4 286.67,-4 286.67,-4 291.33,-4 296,-8.67 296,-13.33 296,-13.33 296,-22.67 296,-22.67 296,-27.33 291.33,-32 286.67,-32 286.67,-32 277.33,-32 277.33,-32 272.67,-32 268,-27.33 268,-22.67 268,-22.67 268,-13.33 268,-13.33 268,-8.67 272.67,-4 277.33,-4"/>
</g>
<!-- 53&#45;&gt;54 -->
<g id="edge17" class="edge">
<title>53&#45;&gt;54</title>
<path fill="none" stroke="black" d="M235.91,-92.39C239,-81.08 243.97,-66.04 251,-54 252.88,-50.78 255.09,-47.58 257.45,-44.51"/>
<polygon fill="black" stroke="black" points="260.07,-46.83 263.8,-36.91 254.7,-42.34 260.07,-46.83"/>
<text text-anchor="start" x="255" y="-62" font-family="Courier New" font-weight="bold" font-size="10.00" fill="blue">SHOW(0,0)</text>
</g>
<!-- 54&#45;&gt;0 -->
<g id="edge18" class="edge">
<title>54&#45;&gt;0</title>
<path fill="none" stroke="black" d="M299.89,-35.92C304.73,-41.3 309.58,-47.54 313,-54 324.81,-76.29 327,-83.78 327,-109 327,-1215 327,-1215 327,-1215 327,-1245.2 304.26,-1271.66 283.49,-1289.54"/>
<polygon fill="black" stroke="black" points="281.48,-1286.66 275.96,-1295.7 285.92,-1292.08 281.48,-1286.66"/>
<text text-anchor="start" x="331" y="-660" font-family="Courier New" font-weight="bold" font-size="10.00" fill="blue">STOPWAVE(0,0)</text>
</g>
</g>
</svg>
