<?xml version="1.0" encoding="UTF-8" standalone="no"?>
<!DOCTYPE svg PUBLIC "-//W3C//DTD SVG 1.1//EN"
 "http://www.w3.org/Graphics/SVG/1.1/DTD/svg11.dtd">
<!-- Generated by graphviz version 7.1.0 (20230121.1956)
 -->
<!-- Pages: 1 -->
<svg width="361pt" height="702pt"
 viewBox="0.00 0.00 361.08 702.00" xmlns="http://www.w3.org/2000/svg" xmlns:xlink="http://www.w3.org/1999/xlink">
<g id="graph0" class="graph" transform="scale(1 1) rotate(0) translate(4 698)">
<polygon fill="white" stroke="none" points="-4,4 -4,-698 357.08,-698 357.08,4 -4,4"/>
<!-- 0 -->
<g id="node1" class="node">
<title>0</title>
<ellipse fill="none" stroke="black" cx="219.08" cy="-676" rx="27" ry="18"/>
<text text-anchor="middle" x="219.08" y="-671.8" font-family="Times,serif" font-size="14.00">0</text>
</g>
<!-- 1 -->
<g id="node2" class="node">
<title>1</title>
<ellipse fill="none" stroke="black" cx="140.08" cy="-582" rx="27" ry="18"/>
<text text-anchor="middle" x="140.08" y="-577.8" font-family="Times,serif" font-size="14.00">1</text>
</g>
<!-- 0&#45;&gt;1 -->
<g id="edge1" class="edge">
<title>0&#45;&gt;1</title>
<path fill="none" stroke="black" d="M206.04,-659.81C193.69,-645.43 174.95,-623.61 160.6,-606.89"/>
<polygon fill="black" stroke="black" points="163.3,-604.67 154.13,-599.36 157.99,-609.23 163.3,-604.67"/>
<text text-anchor="start" x="192.08" y="-626.2" font-family="Courier New" font-weight="bold" font-size="12.00" fill="orange">WAIT(0,0)</text>
</g>
<!-- 2 -->
<g id="node3" class="node">
<title>2</title>
<ellipse fill="none" stroke="black" cx="119.08" cy="-488" rx="27" ry="18"/>
<text text-anchor="middle" x="119.08" y="-483.8" font-family="Times,serif" font-size="14.00">2</text>
</g>
<!-- 1&#45;&gt;2 -->
<g id="edge2" class="edge">
<title>1&#45;&gt;2</title>
<path fill="none" stroke="black" d="M130.6,-564.77C127.68,-559.02 124.79,-552.4 123.08,-546 120.68,-537 119.5,-526.94 118.97,-517.8"/>
<polygon fill="black" stroke="black" points="122.47,-517.89 118.65,-508.01 115.48,-518.11 122.47,-517.89"/>
<text text-anchor="start" x="127.08" y="-532.2" font-family="Courier New" font-weight="bold" font-size="12.00" fill="blue">SHOW(0,IDS_SPIRIT0)</text>
</g>
<!-- 3 -->
<g id="node4" class="node">
<title>3</title>
<ellipse fill="none" stroke="black" cx="114.08" cy="-394" rx="27" ry="18"/>
<text text-anchor="middle" x="114.08" y="-389.8" font-family="Times,serif" font-size="14.00">3</text>
</g>
<!-- 2&#45;&gt;3 -->
<g id="edge3" class="edge">
<title>2&#45;&gt;3</title>
<path fill="none" stroke="black" d="M118.14,-469.7C117.44,-456.72 116.45,-438.66 115.63,-423.56"/>
<polygon fill="black" stroke="black" points="119.14,-423.53 115.1,-413.74 112.15,-423.91 119.14,-423.53"/>
<text text-anchor="start" x="121.08" y="-438.2" font-family="Courier New" font-weight="bold" font-size="12.00" fill="blue">ANIMATE(0,0)</text>
</g>
<!-- 4 -->
<g id="node5" class="node">
<title>4</title>
<ellipse fill="none" stroke="black" cx="114.08" cy="-300" rx="27" ry="18"/>
<text text-anchor="middle" x="114.08" y="-295.8" font-family="Times,serif" font-size="14.00">4</text>
</g>
<!-- 3&#45;&gt;4 -->
<g id="edge4" class="edge">
<title>3&#45;&gt;4</title>
<path fill="none" stroke="black" d="M87.01,-392.73C61.24,-390.85 23.7,-383.53 5.08,-358 -15.99,-329.1 37.15,-313.62 76.43,-306.37"/>
<polygon fill="black" stroke="black" points="76.82,-309.85 86.08,-304.71 75.63,-302.95 76.82,-309.85"/>
<text text-anchor="start" x="9.58" y="-344.2" font-family="Courier New" font-weight="bold" font-size="12.00" fill="blue">ESTIME(0,4)</text>
</g>
<!-- 3&#45;&gt;4 -->
<g id="edge5" class="edge">
<title>3&#45;&gt;4</title>
<path fill="none" stroke="black" d="M114.08,-375.7C114.08,-362.72 114.08,-344.66 114.08,-329.56"/>
<polygon fill="black" stroke="black" points="117.58,-329.74 114.08,-319.74 110.58,-329.74 117.58,-329.74"/>
<text text-anchor="start" x="118.08" y="-344.2" font-family="Courier New" font-weight="bold" font-size="12.00" fill="orange">GRAB(0,IDD_SPRINGS)</text>
</g>
<!-- 5 -->
<g id="node6" class="node">
<title>5</title>
<ellipse fill="none" stroke="black" cx="150.08" cy="-206" rx="27" ry="18"/>
<text text-anchor="middle" x="150.08" y="-201.8" font-family="Times,serif" font-size="14.00">5</text>
</g>
<!-- 4&#45;&gt;5 -->
<g id="edge6" class="edge">
<title>4&#45;&gt;5</title>
<path fill="none" stroke="black" d="M120.68,-282.13C125.91,-268.77 133.32,-249.84 139.39,-234.33"/>
<polygon fill="black" stroke="black" points="142.58,-235.76 142.97,-225.18 136.07,-233.21 142.58,-235.76"/>
<text text-anchor="start" x="140.08" y="-250.2" font-family="Courier New" font-weight="bold" font-size="12.00" fill="blue">CLEAR(WOBJECT,)</text>
</g>
<!-- 6 -->
<g id="node7" class="node">
<title>6</title>
<ellipse fill="none" stroke="black" cx="150.08" cy="-112" rx="27" ry="18"/>
<text text-anchor="middle" x="150.08" y="-107.8" font-family="Times,serif" font-size="14.00">6</text>
</g>
<!-- 5&#45;&gt;6 -->
<g id="edge7" class="edge">
<title>5&#45;&gt;6</title>
<path fill="none" stroke="black" d="M150.08,-187.7C150.08,-174.72 150.08,-156.66 150.08,-141.56"/>
<polygon fill="black" stroke="black" points="153.58,-141.74 150.08,-131.74 146.58,-141.74 153.58,-141.74"/>
<text text-anchor="start" x="154.58" y="-156.2" font-family="Courier New" font-weight="bold" font-size="12.00" fill="blue">CLEAR(WPARM,)</text>
</g>
<!-- 7 -->
<g id="node8" class="node">
<title>7</title>
<ellipse fill="none" stroke="black" cx="215.08" cy="-18" rx="27" ry="18"/>
<text text-anchor="middle" x="215.08" y="-13.8" font-family="Times,serif" font-size="14.00">7</text>
</g>
<!-- 6&#45;&gt;7 -->
<g id="edge8" class="edge">
<title>6&#45;&gt;7</title>
<path fill="none" stroke="black" d="M146.09,-93.8C144.28,-81.79 143.91,-65.86 151.08,-54 157.59,-43.24 168.67,-35.56 179.81,-30.2"/>
<polygon fill="black" stroke="black" points="181.11,-33.44 188.95,-26.32 178.38,-27 181.11,-33.44"/>
<text text-anchor="start" x="155.08" y="-62.2" font-family="Courier New" font-weight="bold" font-size="12.00" fill="blue">CLEAR(WSPRITE,)</text>
</g>
<!-- 7&#45;&gt;0 -->
<g id="edge9" class="edge">
<title>7&#45;&gt;0</title>
<path fill="none" stroke="black" d="M236.92,-28.93C247.51,-34.79 259.54,-43.2 267.08,-54 282.02,-75.39 281.08,-84.91 281.08,-111 281.08,-583 281.08,-583 281.08,-583 281.08,-609.44 279,-618.18 264.08,-640 259.73,-646.37 253.85,-652.1 247.79,-657"/>
<polygon fill="black" stroke="black" points="246.1,-653.89 240.14,-662.65 250.26,-659.52 246.1,-653.89"/>
<text text-anchor="start" x="285.08" y="-344.2" font-family="Courier New" font-weight="bold" font-size="12.00" fill="blue">SHOW(0,0)</text>
</g>
</g>
</svg>
