<?xml version="1.0" encoding="UTF-8" standalone="no"?>
<!DOCTYPE svg PUBLIC "-//W3C//DTD SVG 1.1//EN"
 "http://www.w3.org/Graphics/SVG/1.1/DTD/svg11.dtd">
<!-- Generated by graphviz version 7.1.0 (20230121.1956)
 -->
<!-- Title: Automaton Pages: 1 -->
<svg width="315pt" height="705pt"
 viewBox="0.00 0.00 315.42 705.00" xmlns="http://www.w3.org/2000/svg" xmlns:xlink="http://www.w3.org/1999/xlink">
<g id="graph0" class="graph" transform="scale(1 1) rotate(0) translate(4 701)">
<title>Automaton</title>
<polygon fill="white" stroke="none" points="-4,4 -4,-701 311.42,-701 311.42,4 -4,4"/>
<!-- filename -->
<g id="node1" class="node">
<title>filename</title>
<polygon fill="none" stroke="black" points="36.42,-644.5 36.42,-696.5 154.42,-696.5 154.42,-644.5 36.42,-644.5"/>
<polygon fill="none" stroke="black" points="47.42,-671.5 47.42,-689.5 143.42,-689.5 143.42,-671.5 47.42,-671.5"/>
<text text-anchor="start" x="65.42" y="-678.5" font-family="Courier New" font-weight="bold" font-size="10.00">M11_ASCENT</text>
<polygon fill="none" stroke="black" points="47.42,-651.5 47.42,-669.5 143.42,-669.5 143.42,-651.5 47.42,-651.5"/>
<text text-anchor="start" x="50.42" y="-657.5" font-family="Courier New" font-size="10.00" fill="brown">start state = 0</text>
<polygon fill="none" stroke="black" points="44.42,-648.5 44.42,-692.5 146.42,-692.5 146.42,-648.5 44.42,-648.5"/>
</g>
<!-- 0 -->
<g id="node2" class="node">
<title>0</title>
<polyline fill="none" stroke="darkred" points="192.42,-659.5 206.42,-659.5"/>
<text text-anchor="start" x="195.42" y="-666.9" font-family="Courier New" font-weight="bold" font-size="14.00">0</text>
<path fill="none" stroke="darkred" d="M196.09,-656.5C196.09,-656.5 202.76,-656.5 202.76,-656.5 206.09,-656.5 209.42,-659.83 209.42,-663.17 209.42,-663.17 209.42,-677.83 209.42,-677.83 209.42,-681.17 206.09,-684.5 202.76,-684.5 202.76,-684.5 196.09,-684.5 196.09,-684.5 192.76,-684.5 189.42,-681.17 189.42,-677.83 189.42,-677.83 189.42,-663.17 189.42,-663.17 189.42,-659.83 192.76,-656.5 196.09,-656.5"/>
</g>
<!-- 1 -->
<g id="node3" class="node">
<title>1</title>
<polyline fill="none" stroke="darkred" points="116.42,-559 130.42,-559"/>
<text text-anchor="start" x="119.42" y="-566.4" font-family="Courier New" font-weight="bold" font-size="14.00">1</text>
<path fill="none" stroke="darkred" d="M120.09,-556C120.09,-556 126.76,-556 126.76,-556 130.09,-556 133.42,-559.33 133.42,-562.67 133.42,-562.67 133.42,-577.33 133.42,-577.33 133.42,-580.67 130.09,-584 126.76,-584 126.76,-584 120.09,-584 120.09,-584 116.76,-584 113.42,-580.67 113.42,-577.33 113.42,-577.33 113.42,-562.67 113.42,-562.67 113.42,-559.33 116.76,-556 120.09,-556"/>
</g>
<!-- 0&#45;&gt;1 -->
<g id="edge1" class="edge">
<title>0&#45;&gt;1</title>
<path fill="none" stroke="black" d="M186.53,-652.79C174.63,-637.37 156.78,-614.23 143.1,-596.5"/>
<polygon fill="black" stroke="black" points="146.18,-594.77 137.3,-588.99 140.64,-599.04 146.18,-594.77"/>
<text text-anchor="start" x="167.42" y="-614" font-family="Courier New" font-weight="bold" font-size="10.00" fill="orange">WAIT(0,0)</text>
</g>
<!-- 2 -->
<g id="node4" class="node">
<title>2</title>
<polyline fill="none" stroke="darkred" points="98.42,-467 112.42,-467"/>
<text text-anchor="start" x="101.42" y="-474.4" font-family="Courier New" font-weight="bold" font-size="14.00">2</text>
<path fill="none" stroke="darkred" d="M102.09,-464C102.09,-464 108.76,-464 108.76,-464 112.09,-464 115.42,-467.33 115.42,-470.67 115.42,-470.67 115.42,-485.33 115.42,-485.33 115.42,-488.67 112.09,-492 108.76,-492 108.76,-492 102.09,-492 102.09,-492 98.76,-492 95.42,-488.67 95.42,-485.33 95.42,-485.33 95.42,-470.67 95.42,-470.67 95.42,-467.33 98.76,-464 102.09,-464"/>
</g>
<!-- 1&#45;&gt;2 -->
<g id="edge2" class="edge">
<title>1&#45;&gt;2</title>
<path fill="none" stroke="black" d="M115.51,-552.25C113.16,-546.57 110.83,-540.12 109.42,-534 107.41,-525.28 106.34,-515.59 105.78,-506.8"/>
<polygon fill="black" stroke="black" points="109.29,-506.92 105.37,-497.07 102.3,-507.21 109.29,-506.92"/>
<text text-anchor="start" x="113.42" y="-522" font-family="Courier New" font-weight="bold" font-size="10.00" fill="blue">SHOW(0,IDS_SPIRIT0)</text>
</g>
<!-- 3 -->
<g id="node5" class="node">
<title>3</title>
<polyline fill="none" stroke="darkred" points="93.42,-375 107.42,-375"/>
<text text-anchor="start" x="96.42" y="-382.4" font-family="Courier New" font-weight="bold" font-size="14.00">3</text>
<path fill="none" stroke="darkred" d="M97.09,-372C97.09,-372 103.76,-372 103.76,-372 107.09,-372 110.42,-375.33 110.42,-378.67 110.42,-378.67 110.42,-393.33 110.42,-393.33 110.42,-396.67 107.09,-400 103.76,-400 103.76,-400 97.09,-400 97.09,-400 93.76,-400 90.42,-396.67 90.42,-393.33 90.42,-393.33 90.42,-378.67 90.42,-378.67 90.42,-375.33 93.76,-372 97.09,-372"/>
</g>
<!-- 2&#45;&gt;3 -->
<g id="edge3" class="edge">
<title>2&#45;&gt;3</title>
<path fill="none" stroke="black" d="M104.48,-460.07C103.78,-447.38 102.8,-429.71 101.98,-414.94"/>
<polygon fill="black" stroke="black" points="105.49,-415.15 101.44,-405.36 98.5,-415.54 105.49,-415.15"/>
<text text-anchor="start" x="106.42" y="-430" font-family="Courier New" font-weight="bold" font-size="10.00" fill="blue">ANIMATE(0,0)</text>
</g>
<!-- 4 -->
<g id="node6" class="node">
<title>4</title>
<polyline fill="none" stroke="darkred" points="93.42,-283 107.42,-283"/>
<text text-anchor="start" x="96.42" y="-290.4" font-family="Courier New" font-weight="bold" font-size="14.00">4</text>
<path fill="none" stroke="darkred" d="M97.09,-280C97.09,-280 103.76,-280 103.76,-280 107.09,-280 110.42,-283.33 110.42,-286.67 110.42,-286.67 110.42,-301.33 110.42,-301.33 110.42,-304.67 107.09,-308 103.76,-308 103.76,-308 97.09,-308 97.09,-308 93.76,-308 90.42,-304.67 90.42,-301.33 90.42,-301.33 90.42,-286.67 90.42,-286.67 90.42,-283.33 93.76,-280 97.09,-280"/>
</g>
<!-- 3&#45;&gt;4 -->
<g id="edge4" class="edge">
<title>3&#45;&gt;4</title>
<path fill="none" stroke="black" d="M73.86,-383.36C51.24,-380.4 19.99,-372.24 4.42,-350 -13.19,-324.83 28.67,-309.65 62.57,-301.79"/>
<polygon fill="black" stroke="black" points="63.14,-305.25 72.18,-299.72 61.67,-298.4 63.14,-305.25"/>
<text text-anchor="start" x="8.42" y="-338" font-family="Courier New" font-weight="bold" font-size="10.00" fill="blue">ESTIME(0,4)</text>
</g>
<!-- 3&#45;&gt;4 -->
<g id="edge5" class="edge">
<title>3&#45;&gt;4</title>
<path fill="none" stroke="black" d="M100.42,-368.07C100.42,-355.38 100.42,-337.71 100.42,-322.94"/>
<polygon fill="black" stroke="black" points="103.92,-323.37 100.42,-313.37 96.92,-323.37 103.92,-323.37"/>
<text text-anchor="start" x="104.42" y="-338" font-family="Courier New" font-weight="bold" font-size="10.00" fill="orange">GRAB(0,IDD_SPRINGS)</text>
</g>
<!-- 5 -->
<g id="node7" class="node">
<title>5</title>
<polyline fill="none" stroke="darkred" points="125.42,-191 139.42,-191"/>
<text text-anchor="start" x="128.42" y="-198.4" font-family="Courier New" font-weight="bold" font-size="14.00">5</text>
<path fill="none" stroke="darkred" d="M129.09,-188C129.09,-188 135.76,-188 135.76,-188 139.09,-188 142.42,-191.33 142.42,-194.67 142.42,-194.67 142.42,-209.33 142.42,-209.33 142.42,-212.67 139.09,-216 135.76,-216 135.76,-216 129.09,-216 129.09,-216 125.76,-216 122.42,-212.67 122.42,-209.33 122.42,-209.33 122.42,-194.67 122.42,-194.67 122.42,-191.33 125.76,-188 129.09,-188"/>
</g>
<!-- 4&#45;&gt;5 -->
<g id="edge6" class="edge">
<title>4&#45;&gt;5</title>
<path fill="none" stroke="black" d="M106.44,-276.07C111,-263.25 117.36,-245.36 122.65,-230.5"/>
<polygon fill="black" stroke="black" points="125.87,-231.87 125.92,-221.28 119.28,-229.53 125.87,-231.87"/>
<text text-anchor="start" x="122.42" y="-246" font-family="Courier New" font-weight="bold" font-size="10.00" fill="blue">CLEAR(WOBJECT,)</text>
</g>
<!-- 6 -->
<g id="node8" class="node">
<title>6</title>
<polyline fill="none" stroke="darkred" points="125.42,-99 139.42,-99"/>
<text text-anchor="start" x="128.42" y="-106.4" font-family="Courier New" font-weight="bold" font-size="14.00">6</text>
<path fill="none" stroke="darkred" d="M129.09,-96C129.09,-96 135.76,-96 135.76,-96 139.09,-96 142.42,-99.33 142.42,-102.67 142.42,-102.67 142.42,-117.33 142.42,-117.33 142.42,-120.67 139.09,-124 135.76,-124 135.76,-124 129.09,-124 129.09,-124 125.76,-124 122.42,-120.67 122.42,-117.33 122.42,-117.33 122.42,-102.67 122.42,-102.67 122.42,-99.33 125.76,-96 129.09,-96"/>
</g>
<!-- 5&#45;&gt;6 -->
<g id="edge7" class="edge">
<title>5&#45;&gt;6</title>
<path fill="none" stroke="black" d="M132.42,-184.07C132.42,-171.38 132.42,-153.71 132.42,-138.94"/>
<polygon fill="black" stroke="black" points="135.92,-139.37 132.42,-129.37 128.92,-139.37 135.92,-139.37"/>
<text text-anchor="start" x="136.42" y="-154" font-family="Courier New" font-weight="bold" font-size="10.00" fill="blue">CLEAR(WPARM,)</text>
</g>
<!-- 7 -->
<g id="node9" class="node">
<title>7</title>
<polyline fill="none" stroke="darkred" points="181.42,-7 195.42,-7"/>
<text text-anchor="start" x="184.42" y="-14.4" font-family="Courier New" font-weight="bold" font-size="14.00">7</text>
<path fill="none" stroke="darkred" d="M185.09,-4C185.09,-4 191.76,-4 191.76,-4 195.09,-4 198.42,-7.33 198.42,-10.67 198.42,-10.67 198.42,-25.33 198.42,-25.33 198.42,-28.67 195.09,-32 191.76,-32 191.76,-32 185.09,-32 185.09,-32 181.76,-32 178.42,-28.67 178.42,-25.33 178.42,-25.33 178.42,-10.67 178.42,-10.67 178.42,-7.33 181.76,-4 185.09,-4"/>
</g>
<!-- 6&#45;&gt;7 -->
<g id="edge8" class="edge">
<title>6&#45;&gt;7</title>
<path fill="none" stroke="black" d="M128.76,-92.04C127.19,-80.58 126.98,-65.49 133.42,-54 137.78,-46.23 144.67,-39.92 152.11,-34.92"/>
<polygon fill="black" stroke="black" points="153.54,-38.14 160.38,-30.04 149.99,-32.11 153.54,-38.14"/>
<text text-anchor="start" x="137.42" y="-62" font-family="Courier New" font-weight="bold" font-size="10.00" fill="blue">CLEAR(WSPRITE,)</text>
</g>
<!-- 7&#45;&gt;0 -->
<g id="edge9" class="edge">
<title>7&#45;&gt;0</title>
<path fill="none" stroke="black" d="M214.68,-35.94C220.95,-41.08 227.07,-47.19 231.42,-54 245,-75.26 245.42,-83.78 245.42,-109 245.42,-571 245.42,-571 245.42,-571 245.42,-597.4 231.69,-624.35 219.24,-643.38"/>
<polygon fill="black" stroke="black" points="216.38,-641.35 213.59,-651.57 222.14,-645.32 216.38,-641.35"/>
<text text-anchor="start" x="249.42" y="-338" font-family="Courier New" font-weight="bold" font-size="10.00" fill="blue">SHOW(0,0)</text>
</g>
</g>
</svg>
