<?xml version="1.0" encoding="UTF-8" standalone="no"?>
<!DOCTYPE svg PUBLIC "-//W3C//DTD SVG 1.1//EN"
 "http://www.w3.org/Graphics/SVG/1.1/DTD/svg11.dtd">
<!-- Generated by graphviz version 7.1.0 (20230121.1956)
 -->
<!-- Pages: 1 -->
<svg width="1563pt" height="354pt"
 viewBox="0.00 0.00 1563.14 354.00" xmlns="http://www.w3.org/2000/svg" xmlns:xlink="http://www.w3.org/1999/xlink">
<g id="graph0" class="graph" transform="scale(1 1) rotate(0) translate(4 350)">
<polygon fill="white" stroke="none" points="-4,4 -4,-350 1559.14,-350 1559.14,4 -4,4"/>
<!-- 0 -->
<g id="node1" class="node">
<title>0</title>
<ellipse fill="none" stroke="black" cx="531.14" cy="-328" rx="27" ry="18"/>
<text text-anchor="middle" x="531.14" y="-323.8" font-family="Times,serif" font-size="14.00">0</text>
</g>
<!-- 9 -->
<g id="node2" class="node">
<title>9</title>
<ellipse fill="none" stroke="black" cx="52.14" cy="-187.5" rx="27" ry="18"/>
<text text-anchor="middle" x="52.14" y="-183.3" font-family="Times,serif" font-size="14.00">9</text>
</g>
<!-- 0&#45;&gt;9 -->
<g id="edge1" class="edge">
<title>0&#45;&gt;9</title>
<path fill="none" stroke="black" d="M503.71,-327.29C400.97,-328.11 43.1,-328.32 9.14,-292 -12.22,-269.17 10.17,-234.22 29.81,-211.37"/>
<polygon fill="black" stroke="black" points="32.27,-213.86 36.36,-204.09 27.07,-209.18 32.27,-213.86"/>
<text text-anchor="start" x="13.64" y="-265.2" font-family="Courier New" font-weight="bold" font-size="12.00" fill="orange">DROP(00)</text>
</g>
<!-- 12 -->
<g id="node3" class="node">
<title>12</title>
<ellipse fill="none" stroke="black" cx="236.14" cy="-187.5" rx="27" ry="18"/>
<text text-anchor="middle" x="236.14" y="-183.3" font-family="Times,serif" font-size="14.00">12</text>
</g>
<!-- 0&#45;&gt;12 -->
<g id="edge2" class="edge">
<title>0&#45;&gt;12</title>
<path fill="none" stroke="black" d="M503.9,-325.77C434.41,-322.36 254.81,-311.71 237.14,-292 218.97,-271.74 221.95,-239.24 227.41,-216.06"/>
<polygon fill="black" stroke="black" points="230.71,-217.25 229.91,-206.68 223.95,-215.44 230.71,-217.25"/>
<text text-anchor="start" x="241.64" y="-265.2" font-family="Courier New" font-weight="bold" font-size="12.00" fill="orange">GRAB(00)</text>
</g>
<!-- 4 -->
<g id="node4" class="node">
<title>4</title>
<ellipse fill="none" stroke="black" cx="1053.14" cy="-187.5" rx="27" ry="18"/>
<text text-anchor="middle" x="1053.14" y="-183.3" font-family="Times,serif" font-size="14.00">4</text>
</g>
<!-- 0&#45;&gt;4 -->
<g id="edge3" class="edge">
<title>0&#45;&gt;4</title>
<path fill="none" stroke="black" d="M558.44,-327.31C626.72,-327.56 802.7,-324.93 849.14,-292 868.43,-278.32 853.61,-258.71 872.14,-244 901.01,-221.06 917.79,-236.5 953.14,-226 975.87,-219.25 1000.85,-209.88 1020.15,-202.2"/>
<polygon fill="black" stroke="black" points="1021.44,-205.46 1029.4,-198.47 1018.82,-198.96 1021.44,-205.46"/>
<polygon fill="none" stroke="black" points="875.64,-269 875.64,-289 1272.64,-289 1272.64,-269 875.64,-269"/>
<text text-anchor="start" x="1023.73" y="-276.2" font-family="Courier New" font-weight="bold" font-size="12.00" fill="orange">WAIT(SIG_SHOW)</text>
<polygon fill="none" stroke="black" points="875.64,-247 875.64,-267 1272.64,-267 1272.64,-247 875.64,-247"/>
<text text-anchor="start" x="878.64" y="-253.2" font-family="Times,serif" font-size="12.00" fill="blue">REF_MACHINE(WIP1);MOV(WTEMP1,R_WPARM);MAP(WTEMP1,WIP2);</text>
<polygon fill="none" stroke="black" points="872.14,-244 872.14,-292 1275.14,-292 1275.14,-244 872.14,-244"/>
</g>
<!-- 20 -->
<g id="node5" class="node">
<title>20</title>
<ellipse fill="none" stroke="black" cx="638.14" cy="-187.5" rx="27" ry="18"/>
<text text-anchor="middle" x="638.14" y="-183.3" font-family="Times,serif" font-size="14.00">20</text>
</g>
<!-- 0&#45;&gt;20 -->
<g id="edge4" class="edge">
<title>0&#45;&gt;20</title>
<path fill="none" stroke="black" d="M537.04,-310.08C543.82,-292.3 556.22,-264.17 573.14,-244 581.71,-233.78 586.87,-234.51 597.14,-226 603.13,-221.04 609.41,-215.48 615.21,-210.2"/>
<polygon fill="black" stroke="black" points="617.18,-213.13 622.15,-203.78 612.43,-207.99 617.18,-213.13"/>
<text text-anchor="start" x="577.14" y="-265.2" font-family="Courier New" font-weight="bold" font-size="12.00" fill="orange">WAIT(SIG_HIDE)</text>
</g>
<!-- 30 -->
<g id="node6" class="node">
<title>30</title>
<ellipse fill="none" stroke="black" cx="710.14" cy="-187.5" rx="27" ry="18"/>
<text text-anchor="middle" x="710.14" y="-183.3" font-family="Times,serif" font-size="14.00">30</text>
</g>
<!-- 0&#45;&gt;30 -->
<g id="edge5" class="edge">
<title>0&#45;&gt;30</title>
<path fill="none" stroke="black" d="M557.72,-324.06C595.91,-319.3 663.65,-308.73 681.14,-292 701.34,-272.66 707.83,-240.49 709.74,-217.14"/>
<polygon fill="black" stroke="black" points="713.22,-217.54 710.28,-207.36 706.23,-217.15 713.22,-217.54"/>
<text text-anchor="start" x="709.14" y="-265.2" font-family="Courier New" font-weight="bold" font-size="12.00" fill="orange">WAIT(SIG_CLOSE)</text>
</g>
<!-- 9&#45;&gt;0 -->
<g id="edge16" class="edge">
<title>9&#45;&gt;0</title>
<path fill="none" stroke="black" d="M59.18,-204.96C71.24,-232.8 95.31,-286.68 103.14,-292 134.94,-313.63 393.58,-323.13 492.69,-326"/>
<polygon fill="black" stroke="black" points="492.35,-329.49 502.45,-326.28 492.55,-322.5 492.35,-329.49"/>
<polygon fill="none" stroke="black" points="106.64,-269 106.64,-289 217.64,-289 217.64,-269 106.64,-269"/>
<text text-anchor="start" x="111.73" y="-276.2" font-family="Courier New" font-weight="bold" font-size="12.00" fill="blue">SHOW(WOBJECT0)</text>
<polygon fill="none" stroke="black" points="106.64,-247 106.64,-267 217.64,-267 217.64,-247 106.64,-247"/>
<text text-anchor="start" x="109.64" y="-253.2" font-family="Times,serif" font-size="12.00" fill="blue">ASSIGN(BPARM,1);</text>
<polygon fill="none" stroke="black" points="103.14,-244 103.14,-292 220.14,-292 220.14,-244 103.14,-244"/>
</g>
<!-- 12&#45;&gt;0 -->
<g id="edge7" class="edge">
<title>12&#45;&gt;0</title>
<path fill="none" stroke="black" d="M254.81,-200.86C269.17,-211.1 288.75,-226.72 302.14,-244 316.63,-262.7 306.25,-277.76 325.14,-292 350.93,-311.45 440.56,-320.78 492.71,-324.65"/>
<polygon fill="black" stroke="black" points="492.43,-328.14 502.65,-325.36 492.92,-321.16 492.43,-328.14"/>
<text text-anchor="start" x="329.64" y="-265.2" font-family="Courier New" font-weight="bold" font-size="12.00" fill="blue">Z_EPSILON()</text>
</g>
<!-- 13 -->
<g id="node7" class="node">
<title>13</title>
<ellipse fill="none" stroke="black" cx="268.14" cy="-18" rx="27" ry="18"/>
<text text-anchor="middle" x="268.14" y="-13.8" font-family="Times,serif" font-size="14.00">13</text>
</g>
<!-- 12&#45;&gt;13 -->
<g id="edge6" class="edge">
<title>12&#45;&gt;13</title>
<path fill="none" stroke="black" d="M225.89,-170.7C210.44,-144.67 185.19,-91.9 207.14,-54 213.06,-43.78 223.22,-36.28 233.56,-30.91"/>
<polygon fill="black" stroke="black" points="234.8,-34.2 242.45,-26.86 231.9,-27.83 234.8,-34.2"/>
<text text-anchor="start" x="211.14" y="-89.7" font-family="Courier New" font-weight="bold" font-size="12.00" fill="blue">EQUALi(BPARM1)</text>
</g>
<!-- 5 -->
<g id="node10" class="node">
<title>5</title>
<ellipse fill="none" stroke="black" cx="1289.14" cy="-18" rx="27" ry="18"/>
<text text-anchor="middle" x="1289.14" y="-13.8" font-family="Times,serif" font-size="14.00">5</text>
</g>
<!-- 4&#45;&gt;5 -->
<g id="edge13" class="edge">
<title>4&#45;&gt;5</title>
<path fill="none" stroke="black" d="M1052.4,-169.36C1052.17,-140.89 1056.2,-84.04 1089.14,-54 1112.27,-32.9 1199.62,-24.23 1250.91,-20.9"/>
<polygon fill="black" stroke="black" points="1250.92,-24.41 1260.69,-20.31 1250.49,-17.42 1250.92,-24.41"/>
<polygon fill="none" stroke="black" points="1092.14,-107.5 1092.14,-127.5 1272.14,-127.5 1272.14,-107.5 1092.14,-107.5"/>
<text text-anchor="start" x="1117.33" y="-114.7" font-family="Courier New" font-weight="bold" font-size="12.00" fill="blue">MOV(BFRAMER_WPARM)</text>
<polygon fill="none" stroke="black" points="1092.14,-56.5 1092.14,-105.5 1272.14,-105.5 1272.14,-56.5 1092.14,-56.5"/>
<text text-anchor="start" x="1095.14" y="-91.7" font-family="Times,serif" font-size="12.00" fill="blue"> &#160;&#160;&#160;&#160;&#160;&#160;&#160;MAP(BFRAME,S12_ING_D);</text>
<text text-anchor="start" x="1095.14" y="-77.3" font-family="Times,serif" font-size="12.00" fill="blue"> &#160;&#160;&#160;&#160;&#160;&#160;&#160;O_ACCEPT(WTEMP1);</text>
<text text-anchor="start" x="1095.14" y="-62.9" font-family="Times,serif" font-size="12.00" fill="blue"> &#160;&#160;&#160;&#160;&#160;&#160;&#160;SHOW(WIP3);</text>
<polygon fill="none" stroke="black" points="1089.14,-54 1089.14,-131 1275.14,-131 1275.14,-54 1089.14,-54"/>
</g>
<!-- 21 -->
<g id="node8" class="node">
<title>21</title>
<ellipse fill="none" stroke="black" cx="523.14" cy="-18" rx="27" ry="18"/>
<text text-anchor="middle" x="523.14" y="-13.8" font-family="Times,serif" font-size="14.00">21</text>
</g>
<!-- 20&#45;&gt;21 -->
<g id="edge9" class="edge">
<title>20&#45;&gt;21</title>
<path fill="none" stroke="black" d="M624.94,-171.64C617.44,-163.96 607.5,-154.98 597.14,-149 574.13,-135.72 557.41,-151.19 540.14,-131 520.47,-108.01 518.3,-72.21 519.7,-47.3"/>
<polygon fill="black" stroke="black" points="523.17,-47.8 520.49,-37.55 516.19,-47.24 523.17,-47.8"/>
<text text-anchor="start" x="544.64" y="-89.7" font-family="Courier New" font-weight="bold" font-size="12.00" fill="blue">SHOW(00)</text>
</g>
<!-- 31 -->
<g id="node9" class="node">
<title>31</title>
<ellipse fill="none" stroke="black" cx="832.14" cy="-18" rx="27" ry="18"/>
<text text-anchor="middle" x="832.14" y="-13.8" font-family="Times,serif" font-size="14.00">31</text>
</g>
<!-- 30&#45;&gt;31 -->
<g id="edge11" class="edge">
<title>30&#45;&gt;31</title>
<path fill="none" stroke="black" d="M698.07,-171.09C691.61,-163.64 683.14,-155.02 674.14,-149 655.89,-136.8 640.51,-149.13 628.14,-131 608.85,-102.73 606.08,-80.16 628.14,-54 648.86,-29.42 740.31,-22.1 793.47,-19.92"/>
<polygon fill="black" stroke="black" points="793.45,-23.43 803.31,-19.57 793.19,-16.43 793.45,-23.43"/>
<polygon fill="none" stroke="black" points="631.14,-93.5 631.14,-113.5 1019.14,-113.5 1019.14,-93.5 631.14,-93.5"/>
<text text-anchor="start" x="767.53" y="-100.7" font-family="Courier New" font-weight="bold" font-size="12.00" fill="blue">ASSIGN(WOBJECT0)</text>
<polygon fill="none" stroke="black" points="631.14,-71.5 631.14,-91.5 1019.14,-91.5 1019.14,-71.5 631.14,-71.5"/>
<text text-anchor="start" x="634.14" y="-77.7" font-family="Times,serif" font-size="12.00" fill="blue">CLEAR(WOBJECT);ASHOW(); ASSIGN(BPARM,0); ASSIGN(WPARM,0);</text>
<polygon fill="none" stroke="black" points="628.14,-68.5 628.14,-116.5 1022.14,-116.5 1022.14,-68.5 628.14,-68.5"/>
</g>
<!-- 13&#45;&gt;0 -->
<g id="edge8" class="edge">
<title>13&#45;&gt;0</title>
<path fill="none" stroke="black" d="M288.35,-30C297.69,-35.99 308.21,-44.19 315.14,-54 361.28,-119.34 314.16,-166.97 368.14,-226 382.4,-241.59 393.58,-233.89 412.14,-244 446.16,-262.53 482.26,-288.75 505.65,-306.74"/>
<polygon fill="black" stroke="black" points="503.32,-309.36 513.37,-312.73 507.62,-303.83 503.32,-309.36"/>
<polygon fill="none" stroke="black" points="371.64,-202.5 371.64,-222.5 506.64,-222.5 506.64,-202.5 371.64,-202.5"/>
<text text-anchor="start" x="392.33" y="-209.7" font-family="Courier New" font-weight="bold" font-size="12.00" fill="blue">CLEAR(BFRAME)</text>
<polygon fill="none" stroke="black" points="371.64,-151.5 371.64,-200.5 506.64,-200.5 506.64,-151.5 371.64,-151.5"/>
<text text-anchor="start" x="374.64" y="-186.7" font-family="Times,serif" font-size="12.00" fill="blue"> &#160;&#160;&#160;&#160;&#160;&#160;&#160;ASSIGN(BPARM,0);</text>
<text text-anchor="start" x="374.64" y="-172.3" font-family="Times,serif" font-size="12.00" fill="blue"> &#160;&#160;&#160;&#160;&#160;&#160;&#160;CLEAR(WOBJECT);</text>
<text text-anchor="start" x="374.64" y="-157.9" font-family="Times,serif" font-size="12.00" fill="blue"> &#160;&#160;&#160;&#160;&#160;&#160;&#160;SHOW();</text>
<polygon fill="none" stroke="black" points="368.14,-149 368.14,-226 509.14,-226 509.14,-149 368.14,-149"/>
</g>
<!-- 21&#45;&gt;0 -->
<g id="edge10" class="edge">
<title>21&#45;&gt;0</title>
<path fill="none" stroke="black" d="M521.11,-36.2C517.23,-71.72 509.61,-155.73 515.14,-226 517.08,-250.74 521.68,-278.57 525.44,-298.75"/>
<polygon fill="black" stroke="black" points="521.98,-299.3 527.31,-308.46 528.86,-297.97 521.98,-299.3"/>
<text text-anchor="start" x="519.64" y="-184.7" font-family="Courier New" font-weight="bold" font-size="12.00" fill="blue">Z_EPSILON()</text>
</g>
<!-- 31&#45;&gt;0 -->
<g id="edge12" class="edge">
<title>31&#45;&gt;0</title>
<path fill="none" stroke="black" d="M859.45,-19.9C906.96,-22.09 1001.75,-29.51 1022.14,-54 1044.03,-80.3 1043.89,-104.58 1022.14,-131 995.66,-163.17 965.91,-127.64 930.14,-149 883.23,-177.01 883.33,-199.15 852.14,-244 838.03,-264.28 844.79,-278.45 824.14,-292 783.14,-318.9 639.63,-325.14 569.84,-326.58"/>
<polygon fill="black" stroke="black" points="569.95,-323.08 560.01,-326.75 570.07,-330.07 569.95,-323.08"/>
<text text-anchor="start" x="934.64" y="-184.7" font-family="Courier New" font-weight="bold" font-size="12.00" fill="blue">Z_EPSILON()</text>
</g>
<!-- 5&#45;&gt;0 -->
<g id="edge14" class="edge">
<title>5&#45;&gt;0</title>
<path fill="none" stroke="black" d="M1291.08,-36.12C1296.79,-90.25 1311.04,-256.25 1275.14,-292 1249.93,-317.1 718.39,-324.91 569.56,-326.61"/>
<polygon fill="black" stroke="black" points="569.8,-323.1 559.84,-326.72 569.88,-330.1 569.8,-323.1"/>
<polygon fill="none" stroke="black" points="1301.64,-188.5 1301.64,-208.5 1416.64,-208.5 1416.64,-188.5 1301.64,-188.5"/>
<text text-anchor="start" x="1319.53" y="-195.7" font-family="Courier New" font-weight="bold" font-size="12.00" fill="blue">GT(BFRAME0)</text>
<polygon fill="none" stroke="black" points="1301.64,-166.5 1301.64,-186.5 1416.64,-186.5 1416.64,-166.5 1301.64,-166.5"/>
<text text-anchor="start" x="1304.64" y="-172.7" font-family="Times,serif" font-size="12.00" fill="blue">ASSIGN(WPARM,1);</text>
<polygon fill="none" stroke="black" points="1298.14,-163.5 1298.14,-211.5 1419.14,-211.5 1419.14,-163.5 1298.14,-163.5"/>
</g>
<!-- 5&#45;&gt;0 -->
<g id="edge15" class="edge">
<title>5&#45;&gt;0</title>
<path fill="none" stroke="black" d="M1308.95,-30.71C1340.2,-50.48 1399.77,-93.78 1423.14,-149 1436.47,-180.52 1440.85,-196.72 1423.14,-226 1390.41,-280.09 1358.16,-275.5 1297.14,-292 1157.89,-329.65 705.48,-328.64 569.89,-327.44"/>
<polygon fill="black" stroke="black" points="570.04,-323.94 560.01,-327.35 569.98,-330.94 570.04,-323.94"/>
<polygon fill="none" stroke="black" points="1437.64,-188.5 1437.64,-208.5 1552.64,-208.5 1552.64,-188.5 1437.64,-188.5"/>
<text text-anchor="start" x="1455.53" y="-195.7" font-family="Courier New" font-weight="bold" font-size="12.00" fill="blue">Z_EPSILON()</text>
<polygon fill="none" stroke="black" points="1437.64,-166.5 1437.64,-186.5 1552.64,-186.5 1552.64,-166.5 1437.64,-166.5"/>
<text text-anchor="start" x="1440.64" y="-172.7" font-family="Times,serif" font-size="12.00" fill="blue">ASSIGN(WPARM,0);</text>
<polygon fill="none" stroke="black" points="1434.14,-163.5 1434.14,-211.5 1555.14,-211.5 1555.14,-163.5 1434.14,-163.5"/>
</g>
</g>
</svg>
