<?xml version="1.0" encoding="UTF-8" standalone="no"?>
<!DOCTYPE svg PUBLIC "-//W3C//DTD SVG 1.1//EN"
 "http://www.w3.org/Graphics/SVG/1.1/DTD/svg11.dtd">
<!-- Generated by graphviz version 7.1.0 (20230121.1956)
 -->
<!-- Pages: 1 -->
<svg width="762pt" height="164pt"
 viewBox="0.00 0.00 762.33 164.00" xmlns="http://www.w3.org/2000/svg" xmlns:xlink="http://www.w3.org/1999/xlink">
<g id="graph0" class="graph" transform="scale(1 1) rotate(0) translate(4 160)">
<polygon fill="white" stroke="none" points="-4,4 -4,-160 758.33,-160 758.33,4 -4,4"/>
<!-- 0 -->
<g id="node1" class="node">
<title>0</title>
<ellipse fill="none" stroke="black" cx="76.33" cy="-138" rx="27" ry="18"/>
<text text-anchor="middle" x="76.33" y="-133.8" font-family="Times,serif" font-size="14.00">0</text>
</g>
<!-- 1 -->
<g id="node2" class="node">
<title>1</title>
<ellipse fill="none" stroke="black" cx="76.33" cy="-18" rx="27" ry="18"/>
<text text-anchor="middle" x="76.33" y="-13.8" font-family="Times,serif" font-size="14.00">1</text>
</g>
<!-- 0&#45;&gt;1 -->
<g id="edge1" class="edge">
<title>0&#45;&gt;1</title>
<path fill="none" stroke="black" d="M51.03,-131.08C35.79,-126.07 17.6,-117.19 8.33,-102 -2.78,-83.79 -2.78,-72.21 8.33,-54 15.5,-42.25 28.01,-34.28 40.36,-28.95"/>
<polygon fill="black" stroke="black" points="41.5,-32.26 49.62,-25.46 39.03,-25.71 41.5,-32.26"/>
<text text-anchor="start" x="12.33" y="-75.2" font-family="Courier New" font-weight="bold" font-size="12.00" fill="orange">WAIT(0SIG_SHOW)</text>
</g>
<!-- 1&#45;&gt;0 -->
<g id="edge2" class="edge">
<title>1&#45;&gt;0</title>
<path fill="none" stroke="black" d="M98.33,-29.09C108.19,-34.87 118.82,-43.15 124.33,-54 134,-73.02 134,-82.98 124.33,-102 120.54,-109.46 114.33,-115.7 107.62,-120.76"/>
<polygon fill="black" stroke="black" points="106,-117.63 99.59,-126.07 109.86,-123.47 106,-117.63"/>
<polygon fill="none" stroke="black" points="134.83,-79 134.83,-99 751.83,-99 751.83,-79 134.83,-79"/>
<text text-anchor="start" x="378.52" y="-86.2" font-family="Courier New" font-weight="bold" font-size="12.00" fill="blue">REF_MACHINE(WIP10)</text>
<polygon fill="none" stroke="black" points="134.83,-57 134.83,-77 751.83,-77 751.83,-57 134.83,-57"/>
<text text-anchor="start" x="137.83" y="-63.2" font-family="Times,serif" font-size="12.00" fill="blue">CLEAR(BFRAME);MOV(WPARM,R_WPARM);MOV(BFRAME,WPARM);MAPi(BFRAME,S12_ING_B);SHOW(WIP4);</text>
<polygon fill="none" stroke="black" points="131.33,-54 131.33,-102 754.33,-102 754.33,-54 131.33,-54"/>
</g>
</g>
</svg>
