<?xml version="1.0" encoding="UTF-8" standalone="no"?>
<!DOCTYPE svg PUBLIC "-//W3C//DTD SVG 1.1//EN"
 "http://www.w3.org/Graphics/SVG/1.1/DTD/svg11.dtd">
<!-- Generated by graphviz version 7.1.0 (20230121.1956)
 -->
<!-- Pages: 1 -->
<svg width="472pt" height="56pt"
 viewBox="0.00 0.00 472.00 56.00" xmlns="http://www.w3.org/2000/svg" xmlns:xlink="http://www.w3.org/1999/xlink">
<g id="graph0" class="graph" transform="scale(1 1) rotate(0) translate(4 52)">
<polygon fill="white" stroke="none" points="-4,4 -4,-52 468,-52 468,4 -4,4"/>
<!-- 0 -->
<g id="node1" class="node">
<title>0</title>
<ellipse fill="none" stroke="black" cx="27" cy="-24" rx="27" ry="18"/>
<text text-anchor="middle" x="27" y="-19.8" font-family="Times,serif" font-size="14.00">0</text>
</g>
<!-- 0&#45;&gt;0 -->
<g id="edge1" class="edge">
<title>0&#45;&gt;0</title>
<path fill="none" stroke="black" d="M53.79,-27.37C63.78,-27.48 72,-26.36 72,-24 72,-22.64 69.25,-21.69 65.01,-21.15"/>
<polygon fill="black" stroke="black" points="65.46,-17.67 55.31,-20.7 65.13,-24.66 65.46,-17.67"/>
<polygon fill="none" stroke="black" points="75,-25 75,-45 277,-45 277,-25 75,-25"/>
<text text-anchor="start" x="121.99" y="-32.2" font-family="Courier New" font-weight="bold" font-size="12.00" fill="orange">WAIT(,SIG_SHOW)</text>
<polygon fill="none" stroke="black" points="75,-3 75,-23 277,-23 277,-3 75,-3"/>
<text text-anchor="start" x="78" y="-9.2" font-family="Times,serif" font-size="12.00" fill="blue">MOV(WSPRITE,WIP1);SHOW(WIP1);</text>
<polygon fill="none" stroke="black" points="72,0 72,-48 280,-48 280,0 72,0"/>
</g>
<!-- 0&#45;&gt;0 -->
<g id="edge2" class="edge">
<title>0&#45;&gt;0</title>
<path fill="none" stroke="black" d="M53.81,-27.81C120.15,-32.74 280,-31.47 280,-24 280,-16.92 136.56,-15.41 65.05,-19.46"/>
<polygon fill="black" stroke="black" points="65.07,-15.95 55.32,-20.09 65.52,-22.94 65.07,-15.95"/>
<polygon fill="none" stroke="black" points="283,-25 283,-45 443,-45 443,-25 283,-25"/>
<text text-anchor="start" x="308.99" y="-32.2" font-family="Courier New" font-weight="bold" font-size="12.00" fill="orange">WAIT(,SIG_HIDE)</text>
<polygon fill="none" stroke="black" points="283,-3 283,-23 443,-23 443,-3 283,-3"/>
<text text-anchor="start" x="286" y="-9.2" font-family="Times,serif" font-size="12.00" fill="blue">CLEAR(WSPRITE);SHOW(0);</text>
<polygon fill="none" stroke="black" points="280,0 280,-48 446,-48 446,0 280,0"/>
</g>
</g>
</svg>
