<?xml version="1.0" encoding="UTF-8" standalone="no"?>
<!DOCTYPE svg PUBLIC "-//W3C//DTD SVG 1.1//EN"
 "http://www.w3.org/Graphics/SVG/1.1/DTD/svg11.dtd">
<!-- Generated by graphviz version 7.1.0 (20230121.1956)
 -->
<!-- Pages: 1 -->
<svg width="269pt" height="232pt"
 viewBox="0.00 0.00 269.00 232.00" xmlns="http://www.w3.org/2000/svg" xmlns:xlink="http://www.w3.org/1999/xlink">
<g id="graph0" class="graph" transform="scale(1 1) rotate(0) translate(4 228)">
<polygon fill="white" stroke="none" points="-4,4 -4,-228 265,-228 265,4 -4,4"/>
<!-- 0 -->
<g id="node1" class="node">
<title>0</title>
<ellipse fill="none" stroke="black" cx="94" cy="-206" rx="27" ry="18"/>
<text text-anchor="middle" x="94" y="-201.8" font-family="Times,serif" font-size="14.00">0</text>
</g>
<!-- 10 -->
<g id="node2" class="node">
<title>10</title>
<ellipse fill="none" stroke="black" cx="27" cy="-112" rx="27" ry="18"/>
<text text-anchor="middle" x="27" y="-107.8" font-family="Times,serif" font-size="14.00">10</text>
</g>
<!-- 0&#45;&gt;10 -->
<g id="edge1" class="edge">
<title>0&#45;&gt;10</title>
<path fill="none" stroke="black" d="M69.9,-197.32C56.78,-191.84 41.53,-183.09 33,-170 27.59,-161.7 25.48,-151.24 24.93,-141.55"/>
<polygon fill="black" stroke="black" points="28.43,-141.82 24.9,-131.83 21.43,-141.84 28.43,-141.82"/>
<text text-anchor="start" x="37" y="-156.2" font-family="Courier New" font-weight="bold" font-size="12.00" fill="orange">WAIT(,SIG_SHOW)</text>
</g>
<!-- 11 -->
<g id="node3" class="node">
<title>11</title>
<ellipse fill="none" stroke="black" cx="94" cy="-18" rx="27" ry="18"/>
<text text-anchor="middle" x="94" y="-13.8" font-family="Times,serif" font-size="14.00">11</text>
</g>
<!-- 10&#45;&gt;11 -->
<g id="edge2" class="edge">
<title>10&#45;&gt;11</title>
<path fill="none" stroke="black" d="M22.18,-94.04C19.77,-82 18.73,-65.91 26,-54 33.17,-42.25 45.67,-34.28 58.03,-28.95"/>
<polygon fill="black" stroke="black" points="59.17,-32.26 67.29,-25.46 56.69,-25.71 59.17,-32.26"/>
<text text-anchor="start" x="30.5" y="-62.2" font-family="Courier New" font-weight="bold" font-size="12.00" fill="blue">VIDEO(,IDS_RAIN)</text>
</g>
<!-- 11&#45;&gt;0 -->
<g id="edge3" class="edge">
<title>11&#45;&gt;0</title>
<path fill="none" stroke="black" d="M117.4,-27.51C129.13,-33.1 142.25,-41.7 149,-54 173.81,-99.19 173.81,-124.81 149,-170 144.15,-178.84 136.01,-185.77 127.46,-191.04"/>
<polygon fill="black" stroke="black" points="125.86,-187.93 118.73,-195.77 129.19,-194.08 125.86,-187.93"/>
<text text-anchor="start" x="171" y="-109.2" font-family="Courier New" font-weight="bold" font-size="12.00" fill="blue">Z_EPSILON(,)</text>
</g>
</g>
</svg>
