<?xml version="1.0" encoding="UTF-8" standalone="no"?>
<!DOCTYPE svg PUBLIC "-//W3C//DTD SVG 1.1//EN"
 "http://www.w3.org/Graphics/SVG/1.1/DTD/svg11.dtd">
<!-- Generated by graphviz version 7.1.0 (20230121.1956)
 -->
<!-- Pages: 1 -->
<svg width="976pt" height="2919pt"
 viewBox="0.00 0.00 975.63 2918.60" xmlns="http://www.w3.org/2000/svg" xmlns:xlink="http://www.w3.org/1999/xlink">
<g id="graph0" class="graph" transform="scale(1 1) rotate(0) translate(4 2914.6)">
<polygon fill="white" stroke="none" points="-4,4 -4,-2914.6 971.63,-2914.6 971.63,4 -4,4"/>
<!-- M12_xCANDLE_0 -->
<g id="node1" class="node">
<title>M12_xCANDLE_0</title>
<polygon fill="none" stroke="black" points="324.5,-2874.1 324.5,-2910.1 451.72,-2910.1 451.72,-2874.1 324.5,-2874.1"/>
<text text-anchor="middle" x="388.11" y="-2887.9" font-family="Times,serif" font-size="14.00">M12_xCANDLE_0</text>
</g>
<!-- M12_xCANDLE_20 -->
<g id="node2" class="node">
<title>M12_xCANDLE_20</title>
<polygon fill="none" stroke="black" points="0,-2784.3 0,-2820.3 134.22,-2820.3 134.22,-2784.3 0,-2784.3"/>
<text text-anchor="middle" x="67.11" y="-2798.1" font-family="Times,serif" font-size="14.00">M12_xCANDLE_20</text>
</g>
<!-- M12_xCANDLE_0&#45;&gt;M12_xCANDLE_20 -->
<g id="edge1" class="edge">
<title>M12_xCANDLE_0&#45;&gt;M12_xCANDLE_20</title>
<path fill="none" stroke="red" d="M324.72,-2889.79C221.54,-2886.99 26.63,-2878.67 5.6,-2855.6 -3.99,-2845.08 3.71,-2834.67 16.49,-2825.95"/>
<polygon fill="red" stroke="red" points="17.96,-2829.15 24.71,-2820.98 14.34,-2823.16 17.96,-2829.15"/>
<text text-anchor="start" x="6.11" y="-2844" font-family="Times,serif" font-size="14.00" fill="red"> </text>
<text text-anchor="start" x="9.61" y="-2844" font-family="Courier New" font-size="10.00" fill="red">CLICK(0,0)</text>
</g>
<!-- M12_xCANDLE_0&#45;&gt;M12_xCANDLE_20 -->
<g id="edge2" class="edge">
<title>M12_xCANDLE_0&#45;&gt;M12_xCANDLE_20</title>
<path fill="none" stroke="red" d="M324.57,-2890.45C249.05,-2888.49 128.7,-2881.29 92.59,-2855.6 84.19,-2849.62 78.44,-2840.1 74.56,-2830.81"/>
<polygon fill="red" stroke="red" points="77.96,-2829.92 71.32,-2821.66 71.36,-2832.25 77.96,-2829.92"/>
<text text-anchor="start" x="93.11" y="-2844" font-family="Times,serif" font-size="14.00" fill="red"> </text>
<text text-anchor="start" x="96.61" y="-2844" font-family="Courier New" font-size="10.00" fill="red">DRAG(0,IDD_MATCH)</text>
</g>
<!-- M12_xCANDLE_200 -->
<g id="node3" class="node">
<title>M12_xCANDLE_200</title>
<polygon fill="none" stroke="black" points="642.5,-2784.3 642.5,-2820.3 783.72,-2820.3 783.72,-2784.3 642.5,-2784.3"/>
<text text-anchor="middle" x="713.11" y="-2798.1" font-family="Times,serif" font-size="14.00">M12_xCANDLE_200</text>
</g>
<!-- M12_xCANDLE_0&#45;&gt;M12_xCANDLE_200 -->
<g id="edge3" class="edge">
<title>M12_xCANDLE_0&#45;&gt;M12_xCANDLE_200</title>
<path fill="none" stroke="red" d="M451.44,-2885.23C494.61,-2880.12 552.68,-2871.02 602.11,-2855.6 626.64,-2847.95 652.7,-2835.9 673.4,-2825.29"/>
<polygon fill="red" stroke="red" points="674.81,-2828.5 682.05,-2820.77 671.57,-2822.29 674.81,-2828.5"/>
<text text-anchor="start" x="642.11" y="-2844" font-family="Times,serif" font-size="14.00" fill="red"> </text>
<text text-anchor="start" x="645.61" y="-2844" font-family="Courier New" font-size="10.00" fill="red">DRAG(0,IDD_SCOOPF)</text>
</g>
<!-- M12_xCANDLE_10 -->
<g id="node4" class="node">
<title>M12_xCANDLE_10</title>
<polygon fill="none" stroke="black" points="388,-2784.3 388,-2820.3 522.22,-2820.3 522.22,-2784.3 388,-2784.3"/>
<text text-anchor="middle" x="455.11" y="-2798.1" font-family="Times,serif" font-size="14.00">M12_xCANDLE_10</text>
</g>
<!-- M12_xCANDLE_0&#45;&gt;M12_xCANDLE_10 -->
<g id="edge4" class="edge">
<title>M12_xCANDLE_0&#45;&gt;M12_xCANDLE_10</title>
<path fill="none" stroke="red" d="M401.03,-2874.17C410.76,-2861.42 424.28,-2843.71 435.36,-2829.18"/>
<polygon fill="red" stroke="red" points="438.03,-2831.45 441.31,-2821.38 432.46,-2827.21 438.03,-2831.45"/>
<text text-anchor="start" x="427.11" y="-2844" font-family="Times,serif" font-size="14.00" fill="red"> </text>
<text text-anchor="start" x="430.61" y="-2844" font-family="Courier New" font-size="10.00" fill="red">WAIT(0,SIG_CLEAR)</text>
</g>
<!-- M12_xCANDLE_21 -->
<g id="node6" class="node">
<title>M12_xCANDLE_21</title>
<polygon fill="none" stroke="black" points="0,-2694.5 0,-2730.5 134.22,-2730.5 134.22,-2694.5 0,-2694.5"/>
<text text-anchor="middle" x="67.11" y="-2708.3" font-family="Times,serif" font-size="14.00">M12_xCANDLE_21</text>
</g>
<!-- M12_xCANDLE_20&#45;&gt;M12_xCANDLE_21 -->
<g id="edge8" class="edge">
<title>M12_xCANDLE_20&#45;&gt;M12_xCANDLE_21</title>
<path fill="none" stroke="green" d="M67.11,-2784.37C67.11,-2772.22 67.11,-2755.58 67.11,-2741.47"/>
<polygon fill="green" stroke="green" points="70.61,-2741.89 67.11,-2731.89 63.61,-2741.89 70.61,-2741.89"/>
<text text-anchor="start" x="67.11" y="-2754.2" font-family="Times,serif" font-size="14.00" fill="green"> </text>
<text text-anchor="start" x="70.61" y="-2754.2" font-family="Courier New" font-size="10.00" fill="green">MOV(WSPRITE,WIP1)</text>
</g>
<!-- M12_xCANDLE_201 -->
<g id="node37" class="node">
<title>M12_xCANDLE_201</title>
<polygon fill="none" stroke="black" points="642.5,-2694.5 642.5,-2730.5 783.72,-2730.5 783.72,-2694.5 642.5,-2694.5"/>
<text text-anchor="middle" x="713.11" y="-2708.3" font-family="Times,serif" font-size="14.00">M12_xCANDLE_201</text>
</g>
<!-- M12_xCANDLE_200&#45;&gt;M12_xCANDLE_201 -->
<g id="edge45" class="edge">
<title>M12_xCANDLE_200&#45;&gt;M12_xCANDLE_201</title>
<path fill="none" stroke="green" d="M716.56,-2784.4C717.6,-2778.54 718.6,-2771.9 719.11,-2765.8 719.73,-2758.36 719.73,-2756.44 719.11,-2749 718.91,-2746.62 718.64,-2744.15 718.31,-2741.68"/>
<polygon fill="green" stroke="green" points="721.79,-2741.24 716.79,-2731.9 714.87,-2742.31 721.79,-2741.24"/>
<text text-anchor="start" x="719.11" y="-2754.2" font-family="Times,serif" font-size="14.00" fill="green"> </text>
<text text-anchor="start" x="722.61" y="-2754.2" font-family="Courier New" font-size="10.00" fill="green">ADDI(BPARM,1)</text>
</g>
<!-- M12_xCANDLE_10&#45;&gt;M12_xCANDLE_0 -->
<g id="edge6" class="edge">
<title>M12_xCANDLE_10&#45;&gt;M12_xCANDLE_0</title>
<path fill="none" stroke="green" d="M388.02,-2820.26C372.14,-2825.67 358.41,-2832.02 353.6,-2838.8 347.42,-2847.52 351.06,-2857.25 357.9,-2865.93"/>
<polygon fill="green" stroke="green" points="355.17,-2868.12 364.53,-2873.07 360.3,-2863.36 355.17,-2868.12"/>
<text text-anchor="start" x="353.11" y="-2844" font-family="Times,serif" font-size="14.00" fill="green"> </text>
<text text-anchor="start" x="356.61" y="-2844" font-family="Courier New" font-size="10.00" fill="green">SHOW(0,0)</text>
</g>
<!-- M12_xCANDLE_11 -->
<g id="node5" class="node">
<title>M12_xCANDLE_11</title>
<polygon fill="none" stroke="black" points="272,-2694.5 272,-2730.5 406.22,-2730.5 406.22,-2694.5 272,-2694.5"/>
<text text-anchor="middle" x="339.11" y="-2708.3" font-family="Times,serif" font-size="14.00">M12_xCANDLE_11</text>
</g>
<!-- M12_xCANDLE_10&#45;&gt;M12_xCANDLE_11 -->
<g id="edge5" class="edge">
<title>M12_xCANDLE_10&#45;&gt;M12_xCANDLE_11</title>
<path fill="none" stroke="green" d="M432.74,-2784.37C415.01,-2770.95 390.02,-2752.04 370.32,-2737.12"/>
<polygon fill="green" stroke="green" points="372.7,-2734.53 362.61,-2731.29 368.48,-2740.12 372.7,-2734.53"/>
<text text-anchor="start" x="407.11" y="-2754.2" font-family="Times,serif" font-size="14.00" fill="green"> </text>
<text text-anchor="start" x="410.61" y="-2754.2" font-family="Courier New" font-size="10.00" fill="green">NEQUALi(BPARM,0)</text>
</g>
<!-- M12_xCANDLE_11&#45;&gt;M12_xCANDLE_0 -->
<g id="edge7" class="edge">
<title>M12_xCANDLE_11&#45;&gt;M12_xCANDLE_0</title>
<path fill="none" stroke="green" d="M314.39,-2730.15C286.84,-2750.88 248.53,-2787.6 267.59,-2820.8 280.14,-2842.65 302.39,-2858.35 324.39,-2869.29"/>
<polygon fill="green" stroke="green" points="322.87,-2872.44 333.41,-2873.5 325.82,-2866.1 322.87,-2872.44"/>
<text text-anchor="start" x="267.11" y="-2799.1" font-family="Times,serif" font-size="14.00" fill="green"> </text>
<text text-anchor="start" x="270.61" y="-2799.1" font-family="Courier New" font-size="10.00" fill="green">SHOW(0,IDS_CANNY1)</text>
</g>
<!-- M12_xCANDLE_22 -->
<g id="node7" class="node">
<title>M12_xCANDLE_22</title>
<polygon fill="none" stroke="black" points="0,-2604.7 0,-2640.7 134.22,-2640.7 134.22,-2604.7 0,-2604.7"/>
<text text-anchor="middle" x="67.11" y="-2618.5" font-family="Times,serif" font-size="14.00">M12_xCANDLE_22</text>
</g>
<!-- M12_xCANDLE_21&#45;&gt;M12_xCANDLE_22 -->
<g id="edge9" class="edge">
<title>M12_xCANDLE_21&#45;&gt;M12_xCANDLE_22</title>
<path fill="none" stroke="green" d="M67.11,-2694.57C67.11,-2682.42 67.11,-2665.78 67.11,-2651.67"/>
<polygon fill="green" stroke="green" points="70.61,-2652.09 67.11,-2642.09 63.61,-2652.09 70.61,-2652.09"/>
<text text-anchor="start" x="67.11" y="-2664.4" font-family="Times,serif" font-size="14.00" fill="green"> </text>
<text text-anchor="start" x="70.61" y="-2664.4" font-family="Courier New" font-size="10.00" fill="green">SHOW(WSPRITE,)</text>
</g>
<!-- M12_xCANDLE_23 -->
<g id="node8" class="node">
<title>M12_xCANDLE_23</title>
<polygon fill="none" stroke="black" points="0,-2514.9 0,-2550.9 134.22,-2550.9 134.22,-2514.9 0,-2514.9"/>
<text text-anchor="middle" x="67.11" y="-2528.7" font-family="Times,serif" font-size="14.00">M12_xCANDLE_23</text>
</g>
<!-- M12_xCANDLE_22&#45;&gt;M12_xCANDLE_23 -->
<g id="edge10" class="edge">
<title>M12_xCANDLE_22&#45;&gt;M12_xCANDLE_23</title>
<path fill="none" stroke="green" d="M67.11,-2604.77C67.11,-2592.62 67.11,-2575.98 67.11,-2561.87"/>
<polygon fill="green" stroke="green" points="70.61,-2562.29 67.11,-2552.29 63.61,-2562.29 70.61,-2562.29"/>
<text text-anchor="start" x="67.11" y="-2574.6" font-family="Times,serif" font-size="14.00" fill="green"> </text>
<text text-anchor="start" x="70.61" y="-2574.6" font-family="Courier New" font-size="10.00" fill="green">MOV(WPARM,WTHIS)</text>
</g>
<!-- M12_xCANDLE_24 -->
<g id="node9" class="node">
<title>M12_xCANDLE_24</title>
<polygon fill="none" stroke="black" points="0,-2425.1 0,-2461.1 134.22,-2461.1 134.22,-2425.1 0,-2425.1"/>
<text text-anchor="middle" x="67.11" y="-2438.9" font-family="Times,serif" font-size="14.00">M12_xCANDLE_24</text>
</g>
<!-- M12_xCANDLE_23&#45;&gt;M12_xCANDLE_24 -->
<g id="edge11" class="edge">
<title>M12_xCANDLE_23&#45;&gt;M12_xCANDLE_24</title>
<path fill="none" stroke="green" d="M67.11,-2514.97C67.11,-2502.82 67.11,-2486.18 67.11,-2472.07"/>
<polygon fill="green" stroke="green" points="70.61,-2472.49 67.11,-2462.49 63.61,-2472.49 70.61,-2472.49"/>
<text text-anchor="start" x="67.11" y="-2484.8" font-family="Times,serif" font-size="14.00" fill="green"> </text>
<text text-anchor="start" x="70.61" y="-2484.8" font-family="Courier New" font-size="10.00" fill="green">ADDI(WPARM,1)</text>
</g>
<!-- M12_xCANDLE_25 -->
<g id="node10" class="node">
<title>M12_xCANDLE_25</title>
<polygon fill="none" stroke="black" points="0,-2335.3 0,-2371.3 134.22,-2371.3 134.22,-2335.3 0,-2335.3"/>
<text text-anchor="middle" x="67.11" y="-2349.1" font-family="Times,serif" font-size="14.00">M12_xCANDLE_25</text>
</g>
<!-- M12_xCANDLE_24&#45;&gt;M12_xCANDLE_25 -->
<g id="edge12" class="edge">
<title>M12_xCANDLE_24&#45;&gt;M12_xCANDLE_25</title>
<path fill="none" stroke="green" d="M67.11,-2425.17C67.11,-2413.02 67.11,-2396.38 67.11,-2382.27"/>
<polygon fill="green" stroke="green" points="70.61,-2382.69 67.11,-2372.69 63.61,-2382.69 70.61,-2382.69"/>
<text text-anchor="start" x="67.11" y="-2395" font-family="Times,serif" font-size="14.00" fill="green"> </text>
<text text-anchor="start" x="70.61" y="-2395" font-family="Courier New" font-size="10.00" fill="green">REF_MACHINE(WPARM,)</text>
</g>
<!-- M12_xCANDLE_26 -->
<g id="node11" class="node">
<title>M12_xCANDLE_26</title>
<polygon fill="none" stroke="black" points="128,-2245.5 128,-2281.5 262.22,-2281.5 262.22,-2245.5 128,-2245.5"/>
<text text-anchor="middle" x="195.11" y="-2259.3" font-family="Times,serif" font-size="14.00">M12_xCANDLE_26</text>
</g>
<!-- M12_xCANDLE_25&#45;&gt;M12_xCANDLE_26 -->
<g id="edge13" class="edge">
<title>M12_xCANDLE_25&#45;&gt;M12_xCANDLE_26</title>
<path fill="none" stroke="green" d="M62.85,-2335.51C61.05,-2324.31 60.88,-2309.88 68.59,-2300 75.41,-2291.27 95.26,-2284.05 117.27,-2278.46"/>
<polygon fill="green" stroke="green" points="117.82,-2281.93 126.73,-2276.2 116.19,-2275.12 117.82,-2281.93"/>
<text text-anchor="start" x="69.11" y="-2305.2" font-family="Times,serif" font-size="14.00" fill="green"> </text>
<text text-anchor="start" x="72.61" y="-2305.2" font-family="Courier New" font-size="10.00" fill="green">MOV(WTEMP1,R_WOBJECT)</text>
</g>
<!-- M12_xCANDLE_26&#45;&gt;M12_xCANDLE_0 -->
<g id="edge14" class="edge">
<title>M12_xCANDLE_26&#45;&gt;M12_xCANDLE_0</title>
<path fill="none" stroke="green" d="M200.4,-2281.47C205.39,-2299.02 212.11,-2327.3 212.11,-2352.3 212.11,-2803.3 212.11,-2803.3 212.11,-2803.3 212.11,-2851.45 265.51,-2873.2 313.49,-2883.02"/>
<polygon fill="green" stroke="green" points="312.61,-2886.41 323.08,-2884.82 313.9,-2879.53 312.61,-2886.41"/>
<text text-anchor="start" x="212.11" y="-2574.6" font-family="Times,serif" font-size="14.00" fill="green"> </text>
<text text-anchor="start" x="215.61" y="-2574.6" font-family="Courier New" font-size="10.00" fill="green">EQUALi(WTEMP1,0)</text>
</g>
<!-- M12_xCANDLE_30 -->
<g id="node12" class="node">
<title>M12_xCANDLE_30</title>
<polygon fill="none" stroke="black" points="128,-2155.7 128,-2191.7 262.22,-2191.7 262.22,-2155.7 128,-2155.7"/>
<text text-anchor="middle" x="195.11" y="-2169.5" font-family="Times,serif" font-size="14.00">M12_xCANDLE_30</text>
</g>
<!-- M12_xCANDLE_26&#45;&gt;M12_xCANDLE_30 -->
<g id="edge15" class="edge">
<title>M12_xCANDLE_26&#45;&gt;M12_xCANDLE_30</title>
<path fill="none" stroke="green" d="M195.11,-2245.57C195.11,-2233.42 195.11,-2216.78 195.11,-2202.67"/>
<polygon fill="green" stroke="green" points="198.61,-2203.09 195.11,-2193.09 191.61,-2203.09 198.61,-2203.09"/>
<text text-anchor="start" x="195.11" y="-2215.4" font-family="Times,serif" font-size="14.00" fill="green"> </text>
<text text-anchor="start" x="198.61" y="-2215.4" font-family="Courier New" font-size="10.00" fill="green">SUBI(WTEMP1,IDD_SCR001)</text>
</g>
<!-- M12_xCANDLE_31 -->
<g id="node13" class="node">
<title>M12_xCANDLE_31</title>
<polygon fill="none" stroke="black" points="128,-2065.9 128,-2101.9 262.22,-2101.9 262.22,-2065.9 128,-2065.9"/>
<text text-anchor="middle" x="195.11" y="-2079.7" font-family="Times,serif" font-size="14.00">M12_xCANDLE_31</text>
</g>
<!-- M12_xCANDLE_30&#45;&gt;M12_xCANDLE_31 -->
<g id="edge16" class="edge">
<title>M12_xCANDLE_30&#45;&gt;M12_xCANDLE_31</title>
<path fill="none" stroke="green" d="M195.11,-2155.77C195.11,-2143.62 195.11,-2126.98 195.11,-2112.87"/>
<polygon fill="green" stroke="green" points="198.61,-2113.29 195.11,-2103.29 191.61,-2113.29 198.61,-2113.29"/>
<text text-anchor="start" x="195.11" y="-2125.6" font-family="Times,serif" font-size="14.00" fill="green"> </text>
<text text-anchor="start" x="198.61" y="-2125.6" font-family="Courier New" font-size="10.00" fill="green">MOV(WPARM,WTHIS)</text>
</g>
<!-- M12_xCANDLE_32 -->
<g id="node14" class="node">
<title>M12_xCANDLE_32</title>
<polygon fill="none" stroke="black" points="128,-1976.1 128,-2012.1 262.22,-2012.1 262.22,-1976.1 128,-1976.1"/>
<text text-anchor="middle" x="195.11" y="-1989.9" font-family="Times,serif" font-size="14.00">M12_xCANDLE_32</text>
</g>
<!-- M12_xCANDLE_31&#45;&gt;M12_xCANDLE_32 -->
<g id="edge17" class="edge">
<title>M12_xCANDLE_31&#45;&gt;M12_xCANDLE_32</title>
<path fill="none" stroke="green" d="M195.11,-2065.97C195.11,-2053.82 195.11,-2037.18 195.11,-2023.07"/>
<polygon fill="green" stroke="green" points="198.61,-2023.49 195.11,-2013.49 191.61,-2023.49 198.61,-2023.49"/>
<text text-anchor="start" x="195.11" y="-2035.8" font-family="Times,serif" font-size="14.00" fill="green"> </text>
<text text-anchor="start" x="198.61" y="-2035.8" font-family="Courier New" font-size="10.00" fill="green">ADDI(WPARM,2)</text>
</g>
<!-- M12_xCANDLE_40 -->
<g id="node15" class="node">
<title>M12_xCANDLE_40</title>
<polygon fill="none" stroke="black" points="128,-1886.3 128,-1922.3 262.22,-1922.3 262.22,-1886.3 128,-1886.3"/>
<text text-anchor="middle" x="195.11" y="-1900.1" font-family="Times,serif" font-size="14.00">M12_xCANDLE_40</text>
</g>
<!-- M12_xCANDLE_32&#45;&gt;M12_xCANDLE_40 -->
<g id="edge18" class="edge">
<title>M12_xCANDLE_32&#45;&gt;M12_xCANDLE_40</title>
<path fill="none" stroke="green" d="M195.11,-1976.17C195.11,-1964.02 195.11,-1947.38 195.11,-1933.27"/>
<polygon fill="green" stroke="green" points="198.61,-1933.69 195.11,-1923.69 191.61,-1933.69 198.61,-1933.69"/>
<text text-anchor="start" x="195.11" y="-1946" font-family="Times,serif" font-size="14.00" fill="green"> </text>
<text text-anchor="start" x="198.61" y="-1946" font-family="Courier New" font-size="10.00" fill="green">MOV(WTEMP2,0)</text>
</g>
<!-- M12_xCANDLE_50 -->
<g id="node16" class="node">
<title>M12_xCANDLE_50</title>
<polygon fill="none" stroke="black" points="207,-1796.5 207,-1832.5 341.22,-1832.5 341.22,-1796.5 207,-1796.5"/>
<text text-anchor="middle" x="274.11" y="-1810.3" font-family="Times,serif" font-size="14.00">M12_xCANDLE_50</text>
</g>
<!-- M12_xCANDLE_40&#45;&gt;M12_xCANDLE_50 -->
<g id="edge19" class="edge">
<title>M12_xCANDLE_40&#45;&gt;M12_xCANDLE_50</title>
<path fill="none" stroke="green" d="M210.34,-1886.37C222.04,-1873.37 238.36,-1855.23 251.57,-1840.55"/>
<polygon fill="green" stroke="green" points="253.83,-1843.28 257.91,-1833.5 248.62,-1838.59 253.83,-1843.28"/>
<text text-anchor="start" x="241.11" y="-1856.2" font-family="Times,serif" font-size="14.00" fill="green"> </text>
<text text-anchor="start" x="244.61" y="-1856.2" font-family="Courier New" font-size="10.00" fill="green">REF_MACHINE(WPARM,)</text>
</g>
<!-- M12_xCANDLE_51 -->
<g id="node17" class="node">
<title>M12_xCANDLE_51</title>
<polygon fill="none" stroke="black" points="216,-1706.7 216,-1742.7 350.22,-1742.7 350.22,-1706.7 216,-1706.7"/>
<text text-anchor="middle" x="283.11" y="-1720.5" font-family="Times,serif" font-size="14.00">M12_xCANDLE_51</text>
</g>
<!-- M12_xCANDLE_50&#45;&gt;M12_xCANDLE_51 -->
<g id="edge20" class="edge">
<title>M12_xCANDLE_50&#45;&gt;M12_xCANDLE_51</title>
<path fill="none" stroke="green" d="M275.85,-1796.57C277.09,-1784.42 278.8,-1767.78 280.24,-1753.67"/>
<polygon fill="green" stroke="green" points="283.69,-1754.39 281.23,-1744.08 276.72,-1753.67 283.69,-1754.39"/>
<text text-anchor="start" x="279.11" y="-1766.4" font-family="Times,serif" font-size="14.00" fill="green"> </text>
<text text-anchor="start" x="282.61" y="-1766.4" font-family="Courier New" font-size="10.00" fill="green">MOV(WOBJECT,WTEMP1)</text>
</g>
<!-- M12_xCANDLE_52 -->
<g id="node18" class="node">
<title>M12_xCANDLE_52</title>
<polygon fill="none" stroke="black" points="221,-1616.9 221,-1652.9 355.22,-1652.9 355.22,-1616.9 221,-1616.9"/>
<text text-anchor="middle" x="288.11" y="-1630.7" font-family="Times,serif" font-size="14.00">M12_xCANDLE_52</text>
</g>
<!-- M12_xCANDLE_51&#45;&gt;M12_xCANDLE_52 -->
<g id="edge21" class="edge">
<title>M12_xCANDLE_51&#45;&gt;M12_xCANDLE_52</title>
<path fill="none" stroke="green" d="M284.07,-1706.77C284.77,-1694.62 285.71,-1677.98 286.52,-1663.87"/>
<polygon fill="green" stroke="green" points="289.99,-1664.47 287.06,-1654.29 283,-1664.07 289.99,-1664.47"/>
<text text-anchor="start" x="285.11" y="-1676.6" font-family="Times,serif" font-size="14.00" fill="green"> </text>
<text text-anchor="start" x="288.61" y="-1676.6" font-family="Courier New" font-size="10.00" fill="green">MAP(WOBJECT,R_WIP1)</text>
</g>
<!-- M12_xCANDLE_60 -->
<g id="node19" class="node">
<title>M12_xCANDLE_60</title>
<polygon fill="none" stroke="black" points="221,-1347.5 221,-1383.5 355.22,-1383.5 355.22,-1347.5 221,-1347.5"/>
<text text-anchor="middle" x="288.11" y="-1361.3" font-family="Times,serif" font-size="14.00">M12_xCANDLE_60</text>
</g>
<!-- M12_xCANDLE_52&#45;&gt;M12_xCANDLE_60 -->
<g id="edge22" class="edge">
<title>M12_xCANDLE_52&#45;&gt;M12_xCANDLE_60</title>
<path fill="none" stroke="green" d="M288.11,-1617.17C288.11,-1572.53 288.11,-1450.18 288.11,-1394.62"/>
<polygon fill="green" stroke="green" points="291.61,-1394.73 288.11,-1384.73 284.61,-1394.73 291.61,-1394.73"/>
<text text-anchor="start" x="288.11" y="-1497" font-family="Times,serif" font-size="14.00" fill="green"> </text>
<text text-anchor="start" x="291.61" y="-1497" font-family="Courier New" font-size="10.00" fill="green">EQUALi(WOBJECT,0)</text>
</g>
<!-- M12_xCANDLE_53 -->
<g id="node20" class="node">
<title>M12_xCANDLE_53</title>
<polygon fill="none" stroke="black" points="333,-1527.1 333,-1563.1 467.22,-1563.1 467.22,-1527.1 333,-1527.1"/>
<text text-anchor="middle" x="400.11" y="-1540.9" font-family="Times,serif" font-size="14.00">M12_xCANDLE_53</text>
</g>
<!-- M12_xCANDLE_52&#45;&gt;M12_xCANDLE_53 -->
<g id="edge23" class="edge">
<title>M12_xCANDLE_52&#45;&gt;M12_xCANDLE_53</title>
<path fill="none" stroke="green" d="M309.71,-1616.97C326.75,-1603.61 350.73,-1584.81 369.72,-1569.93"/>
<polygon fill="green" stroke="green" points="371.68,-1572.83 377.39,-1563.91 367.36,-1567.33 371.68,-1572.83"/>
<text text-anchor="start" x="354.11" y="-1586.8" font-family="Times,serif" font-size="14.00" fill="green"> </text>
<text text-anchor="start" x="357.61" y="-1586.8" font-family="Courier New" font-size="10.00" fill="green">SUBI(WOBJECT,1)</text>
</g>
<!-- M12_xCANDLE_61 -->
<g id="node22" class="node">
<title>M12_xCANDLE_61</title>
<polygon fill="none" stroke="black" points="221,-1257.7 221,-1293.7 355.22,-1293.7 355.22,-1257.7 221,-1257.7"/>
<text text-anchor="middle" x="288.11" y="-1271.5" font-family="Times,serif" font-size="14.00">M12_xCANDLE_61</text>
</g>
<!-- M12_xCANDLE_60&#45;&gt;M12_xCANDLE_61 -->
<g id="edge27" class="edge">
<title>M12_xCANDLE_60&#45;&gt;M12_xCANDLE_61</title>
<path fill="none" stroke="green" d="M288.11,-1347.57C288.11,-1335.42 288.11,-1318.78 288.11,-1304.67"/>
<polygon fill="green" stroke="green" points="291.61,-1305.09 288.11,-1295.09 284.61,-1305.09 291.61,-1305.09"/>
<text text-anchor="start" x="288.11" y="-1317.4" font-family="Times,serif" font-size="14.00" fill="green"> </text>
<text text-anchor="start" x="291.61" y="-1317.4" font-family="Courier New" font-size="10.00" fill="green">ADDI(WTEMP2,1)</text>
</g>
<!-- M12_xCANDLE_54 -->
<g id="node21" class="node">
<title>M12_xCANDLE_54</title>
<polygon fill="none" stroke="black" points="350,-1437.3 350,-1473.3 484.22,-1473.3 484.22,-1437.3 350,-1437.3"/>
<text text-anchor="middle" x="417.11" y="-1451.1" font-family="Times,serif" font-size="14.00">M12_xCANDLE_54</text>
</g>
<!-- M12_xCANDLE_53&#45;&gt;M12_xCANDLE_54 -->
<g id="edge24" class="edge">
<title>M12_xCANDLE_53&#45;&gt;M12_xCANDLE_54</title>
<path fill="none" stroke="green" d="M403.39,-1527.17C405.74,-1515.02 408.96,-1498.38 411.69,-1484.27"/>
<polygon fill="green" stroke="green" points="415.09,-1485.15 413.55,-1474.66 408.22,-1483.82 415.09,-1485.15"/>
<text text-anchor="start" x="410.11" y="-1497" font-family="Times,serif" font-size="14.00" fill="green"> </text>
<text text-anchor="start" x="413.61" y="-1497" font-family="Courier New" font-size="10.00" fill="green">MAP(WOBJECT,R_WIP2)</text>
</g>
<!-- M12_xCANDLE_54&#45;&gt;M12_xCANDLE_0 -->
<g id="edge25" class="edge">
<title>M12_xCANDLE_54&#45;&gt;M12_xCANDLE_0</title>
<path fill="none" stroke="green" d="M484.22,-1465.75C501.59,-1471 519.05,-1479.15 532.11,-1491.8 549.77,-1508.9 550.11,-1519.52 550.11,-1544.1 550.11,-2803.3 550.11,-2803.3 550.11,-2803.3 550.11,-2827.36 553.35,-2838.81 536.11,-2855.6 525.11,-2866.32 493.56,-2874.63 462.4,-2880.5"/>
<polygon fill="green" stroke="green" points="462.15,-2876.99 452.93,-2882.21 463.39,-2883.88 462.15,-2876.99"/>
<text text-anchor="start" x="550.11" y="-2170.5" font-family="Times,serif" font-size="14.00" fill="green"> </text>
<text text-anchor="start" x="553.61" y="-2170.5" font-family="Courier New" font-size="10.00" fill="green">NEQUAL(WOBJECT,R_WOBJECT)</text>
</g>
<!-- M12_xCANDLE_54&#45;&gt;M12_xCANDLE_60 -->
<g id="edge26" class="edge">
<title>M12_xCANDLE_54&#45;&gt;M12_xCANDLE_60</title>
<path fill="none" stroke="green" d="M392.24,-1437.37C372.34,-1423.83 344.23,-1404.69 322.23,-1389.72"/>
<polygon fill="green" stroke="green" points="324.39,-1386.96 314.16,-1384.23 320.46,-1392.75 324.39,-1386.96"/>
<text text-anchor="start" x="364.11" y="-1407.2" font-family="Times,serif" font-size="14.00" fill="green"> </text>
<text text-anchor="start" x="367.61" y="-1407.2" font-family="Courier New" font-size="10.00" fill="green">Z_EPSILON(,)</text>
</g>
<!-- M12_xCANDLE_70 -->
<g id="node23" class="node">
<title>M12_xCANDLE_70</title>
<polygon fill="none" stroke="black" points="221,-1167.9 221,-1203.9 355.22,-1203.9 355.22,-1167.9 221,-1167.9"/>
<text text-anchor="middle" x="288.11" y="-1181.7" font-family="Times,serif" font-size="14.00">M12_xCANDLE_70</text>
</g>
<!-- M12_xCANDLE_61&#45;&gt;M12_xCANDLE_70 -->
<g id="edge28" class="edge">
<title>M12_xCANDLE_61&#45;&gt;M12_xCANDLE_70</title>
<path fill="none" stroke="green" d="M288.11,-1257.77C288.11,-1245.62 288.11,-1228.98 288.11,-1214.87"/>
<polygon fill="green" stroke="green" points="291.61,-1215.29 288.11,-1205.29 284.61,-1215.29 291.61,-1215.29"/>
<text text-anchor="start" x="288.11" y="-1227.6" font-family="Times,serif" font-size="14.00" fill="green"> </text>
<text text-anchor="start" x="291.61" y="-1227.6" font-family="Courier New" font-size="10.00" fill="green">ADDI(WPARM,1)</text>
</g>
<!-- M12_xCANDLE_70&#45;&gt;M12_xCANDLE_40 -->
<g id="edge29" class="edge">
<title>M12_xCANDLE_70&#45;&gt;M12_xCANDLE_40</title>
<path fill="none" stroke="green" d="M240.18,-1203.87C210.54,-1217.77 178.11,-1240.74 178.11,-1274.7 178.11,-1815.5 178.11,-1815.5 178.11,-1815.5 178.11,-1835.81 182.55,-1858.29 186.89,-1875.42"/>
<polygon fill="green" stroke="green" points="183.45,-1876.12 189.43,-1884.87 190.21,-1874.3 183.45,-1876.12"/>
<text text-anchor="start" x="178.11" y="-1541.9" font-family="Times,serif" font-size="14.00" fill="green"> </text>
<text text-anchor="start" x="181.61" y="-1541.9" font-family="Courier New" font-size="10.00" fill="green">LTi(WTEMP2,6)</text>
</g>
<!-- M12_xCANDLE_131 -->
<g id="node24" class="node">
<title>M12_xCANDLE_131</title>
<polygon fill="none" stroke="black" points="330.5,-1078.1 330.5,-1114.1 471.72,-1114.1 471.72,-1078.1 330.5,-1078.1"/>
<text text-anchor="middle" x="401.11" y="-1091.9" font-family="Times,serif" font-size="14.00">M12_xCANDLE_131</text>
</g>
<!-- M12_xCANDLE_70&#45;&gt;M12_xCANDLE_131 -->
<g id="edge30" class="edge">
<title>M12_xCANDLE_70&#45;&gt;M12_xCANDLE_131</title>
<path fill="none" stroke="green" d="M309.9,-1167.97C327.09,-1154.61 351.29,-1135.81 370.45,-1120.93"/>
<polygon fill="green" stroke="green" points="372.45,-1123.8 378.19,-1114.91 368.15,-1118.28 372.45,-1123.8"/>
<text text-anchor="start" x="354.11" y="-1137.8" font-family="Times,serif" font-size="14.00" fill="green"> </text>
<text text-anchor="start" x="357.61" y="-1137.8" font-family="Courier New" font-size="10.00" fill="green">MOV(WPARM,WTHIS)</text>
</g>
<!-- M12_xCANDLE_132 -->
<g id="node25" class="node">
<title>M12_xCANDLE_132</title>
<polygon fill="none" stroke="black" points="414.5,-988.3 414.5,-1024.3 555.72,-1024.3 555.72,-988.3 414.5,-988.3"/>
<text text-anchor="middle" x="485.11" y="-1002.1" font-family="Times,serif" font-size="14.00">M12_xCANDLE_132</text>
</g>
<!-- M12_xCANDLE_131&#45;&gt;M12_xCANDLE_132 -->
<g id="edge31" class="edge">
<title>M12_xCANDLE_131&#45;&gt;M12_xCANDLE_132</title>
<path fill="none" stroke="green" d="M417.31,-1078.17C429.74,-1065.17 447.1,-1047.03 461.14,-1032.35"/>
<polygon fill="green" stroke="green" points="463.53,-1034.92 467.92,-1025.27 458.48,-1030.08 463.53,-1034.92"/>
<text text-anchor="start" x="450.11" y="-1048" font-family="Times,serif" font-size="14.00" fill="green"> </text>
<text text-anchor="start" x="453.61" y="-1048" font-family="Courier New" font-size="10.00" fill="green">ADDI(WPARM,2)</text>
</g>
<!-- M12_xCANDLE_140 -->
<g id="node26" class="node">
<title>M12_xCANDLE_140</title>
<polygon fill="none" stroke="black" points="435.5,-898.5 435.5,-934.5 576.72,-934.5 576.72,-898.5 435.5,-898.5"/>
<text text-anchor="middle" x="506.11" y="-912.3" font-family="Times,serif" font-size="14.00">M12_xCANDLE_140</text>
</g>
<!-- M12_xCANDLE_132&#45;&gt;M12_xCANDLE_140 -->
<g id="edge32" class="edge">
<title>M12_xCANDLE_132&#45;&gt;M12_xCANDLE_140</title>
<path fill="none" stroke="green" d="M489.16,-988.37C492.06,-976.22 496.05,-959.58 499.42,-945.47"/>
<polygon fill="green" stroke="green" points="502.8,-946.39 501.72,-935.85 495.99,-944.76 502.8,-946.39"/>
<text text-anchor="start" x="497.11" y="-958.2" font-family="Times,serif" font-size="14.00" fill="green"> </text>
<text text-anchor="start" x="500.61" y="-958.2" font-family="Courier New" font-size="10.00" fill="green">MOV(WTEMP2,0)</text>
</g>
<!-- M12_xCANDLE_141 -->
<g id="node27" class="node">
<title>M12_xCANDLE_141</title>
<polygon fill="none" stroke="black" points="435.5,-808.7 435.5,-844.7 576.72,-844.7 576.72,-808.7 435.5,-808.7"/>
<text text-anchor="middle" x="506.11" y="-822.5" font-family="Times,serif" font-size="14.00">M12_xCANDLE_141</text>
</g>
<!-- M12_xCANDLE_140&#45;&gt;M12_xCANDLE_141 -->
<g id="edge33" class="edge">
<title>M12_xCANDLE_140&#45;&gt;M12_xCANDLE_141</title>
<path fill="none" stroke="green" d="M506.11,-898.57C506.11,-886.42 506.11,-869.78 506.11,-855.67"/>
<polygon fill="green" stroke="green" points="509.61,-856.09 506.11,-846.09 502.61,-856.09 509.61,-856.09"/>
<text text-anchor="start" x="506.11" y="-868.4" font-family="Times,serif" font-size="14.00" fill="green"> </text>
<text text-anchor="start" x="509.61" y="-868.4" font-family="Courier New" font-size="10.00" fill="green">REF_MACHINE(WPARM,)</text>
</g>
<!-- M12_xCANDLE_160 -->
<g id="node28" class="node">
<title>M12_xCANDLE_160</title>
<polygon fill="none" stroke="black" points="460.5,-718.9 460.5,-754.9 601.72,-754.9 601.72,-718.9 460.5,-718.9"/>
<text text-anchor="middle" x="531.11" y="-732.7" font-family="Times,serif" font-size="14.00">M12_xCANDLE_160</text>
</g>
<!-- M12_xCANDLE_141&#45;&gt;M12_xCANDLE_160 -->
<g id="edge34" class="edge">
<title>M12_xCANDLE_141&#45;&gt;M12_xCANDLE_160</title>
<path fill="none" stroke="green" d="M504.27,-808.82C503.69,-798.38 503.97,-784.83 507.59,-773.4 508.57,-770.29 509.91,-767.21 511.46,-764.22"/>
<polygon fill="green" stroke="green" points="514.32,-766.26 516.51,-755.89 508.33,-762.63 514.32,-766.26"/>
<text text-anchor="start" x="507.11" y="-778.6" font-family="Times,serif" font-size="14.00" fill="green"> </text>
<text text-anchor="start" x="510.61" y="-778.6" font-family="Courier New" font-size="10.00" fill="green">SIGNAL(WPARM,SIG_CLEAR)</text>
</g>
<!-- M12_xCANDLE_161 -->
<g id="node29" class="node">
<title>M12_xCANDLE_161</title>
<polygon fill="none" stroke="black" points="490.5,-629.1 490.5,-665.1 631.72,-665.1 631.72,-629.1 490.5,-629.1"/>
<text text-anchor="middle" x="561.11" y="-642.9" font-family="Times,serif" font-size="14.00">M12_xCANDLE_161</text>
</g>
<!-- M12_xCANDLE_160&#45;&gt;M12_xCANDLE_161 -->
<g id="edge35" class="edge">
<title>M12_xCANDLE_160&#45;&gt;M12_xCANDLE_161</title>
<path fill="none" stroke="green" d="M536.89,-718.97C541.09,-706.7 546.85,-689.85 551.7,-675.65"/>
<polygon fill="green" stroke="green" points="554.93,-677 554.85,-666.41 548.31,-674.74 554.93,-677"/>
<text text-anchor="start" x="548.11" y="-688.8" font-family="Times,serif" font-size="14.00" fill="green"> </text>
<text text-anchor="start" x="551.61" y="-688.8" font-family="Courier New" font-size="10.00" fill="green">ADDI(WTEMP2,1)</text>
</g>
<!-- M12_xCANDLE_170 -->
<g id="node30" class="node">
<title>M12_xCANDLE_170</title>
<polygon fill="none" stroke="black" points="592.5,-539.3 592.5,-575.3 733.72,-575.3 733.72,-539.3 592.5,-539.3"/>
<text text-anchor="middle" x="663.11" y="-553.1" font-family="Times,serif" font-size="14.00">M12_xCANDLE_170</text>
</g>
<!-- M12_xCANDLE_161&#45;&gt;M12_xCANDLE_170 -->
<g id="edge36" class="edge">
<title>M12_xCANDLE_161&#45;&gt;M12_xCANDLE_170</title>
<path fill="none" stroke="green" d="M558.98,-629.32C558.49,-618.13 559.77,-603.7 567.6,-593.8 571.99,-588.25 577.35,-583.56 583.25,-579.61"/>
<polygon fill="green" stroke="green" points="584.74,-582.79 591.63,-574.74 581.22,-576.74 584.74,-582.79"/>
<text text-anchor="start" x="567.11" y="-599" font-family="Times,serif" font-size="14.00" fill="green"> </text>
<text text-anchor="start" x="570.61" y="-599" font-family="Courier New" font-size="10.00" fill="green">ADDI(WPARM,1)</text>
</g>
<!-- M12_xCANDLE_170&#45;&gt;M12_xCANDLE_140 -->
<g id="edge37" class="edge">
<title>M12_xCANDLE_170&#45;&gt;M12_xCANDLE_140</title>
<path fill="none" stroke="green" d="M663.11,-575.13C663.11,-592.81 663.11,-621.41 663.11,-646.1 663.11,-827.7 663.11,-827.7 663.11,-827.7 663.11,-866.81 625.54,-888.66 587.16,-900.79"/>
<polygon fill="green" stroke="green" points="586.41,-897.36 577.8,-903.53 588.38,-904.08 586.41,-897.36"/>
<text text-anchor="start" x="663.11" y="-733.7" font-family="Times,serif" font-size="14.00" fill="green"> </text>
<text text-anchor="start" x="666.61" y="-733.7" font-family="Courier New" font-size="10.00" fill="green">LTi(WTEMP2,6)</text>
</g>
<!-- M12_xCANDLE_180 -->
<g id="node31" class="node">
<title>M12_xCANDLE_180</title>
<polygon fill="none" stroke="black" points="597.5,-449.5 597.5,-485.5 738.72,-485.5 738.72,-449.5 597.5,-449.5"/>
<text text-anchor="middle" x="668.11" y="-463.3" font-family="Times,serif" font-size="14.00">M12_xCANDLE_180</text>
</g>
<!-- M12_xCANDLE_170&#45;&gt;M12_xCANDLE_180 -->
<g id="edge38" class="edge">
<title>M12_xCANDLE_170&#45;&gt;M12_xCANDLE_180</title>
<path fill="none" stroke="green" d="M664.07,-539.37C664.77,-527.22 665.71,-510.58 666.52,-496.47"/>
<polygon fill="green" stroke="green" points="669.99,-497.07 667.06,-486.89 663,-496.67 669.99,-497.07"/>
<text text-anchor="start" x="665.11" y="-509.2" font-family="Times,serif" font-size="14.00" fill="green"> </text>
<text text-anchor="start" x="668.61" y="-509.2" font-family="Courier New" font-size="10.00" fill="green">Z_EPSILON(,)</text>
</g>
<!-- M12_xCANDLE_181 -->
<g id="node32" class="node">
<title>M12_xCANDLE_181</title>
<polygon fill="none" stroke="black" points="598.5,-359.7 598.5,-395.7 739.72,-395.7 739.72,-359.7 598.5,-359.7"/>
<text text-anchor="middle" x="669.11" y="-373.5" font-family="Times,serif" font-size="14.00">M12_xCANDLE_181</text>
</g>
<!-- M12_xCANDLE_180&#45;&gt;M12_xCANDLE_181 -->
<g id="edge39" class="edge">
<title>M12_xCANDLE_180&#45;&gt;M12_xCANDLE_181</title>
<path fill="none" stroke="green" d="M668.3,-449.57C668.44,-437.42 668.63,-420.78 668.79,-406.67"/>
<polygon fill="green" stroke="green" points="672.29,-407.13 668.9,-397.09 665.29,-407.05 672.29,-407.13"/>
<text text-anchor="start" x="668.11" y="-419.4" font-family="Times,serif" font-size="14.00" fill="green"> </text>
<text text-anchor="start" x="671.61" y="-419.4" font-family="Courier New" font-size="10.00" fill="green">MOV(WTEMP1,WTEMP1)</text>
</g>
<!-- M12_xCANDLE_182 -->
<g id="node33" class="node">
<title>M12_xCANDLE_182</title>
<polygon fill="none" stroke="black" points="600.5,-269.9 600.5,-305.9 741.72,-305.9 741.72,-269.9 600.5,-269.9"/>
<text text-anchor="middle" x="671.11" y="-283.7" font-family="Times,serif" font-size="14.00">M12_xCANDLE_182</text>
</g>
<!-- M12_xCANDLE_181&#45;&gt;M12_xCANDLE_182 -->
<g id="edge40" class="edge">
<title>M12_xCANDLE_181&#45;&gt;M12_xCANDLE_182</title>
<path fill="none" stroke="green" d="M669.5,-359.77C669.77,-347.62 670.15,-330.98 670.47,-316.87"/>
<polygon fill="green" stroke="green" points="673.96,-317.37 670.69,-307.29 666.96,-317.21 673.96,-317.37"/>
<text text-anchor="start" x="670.11" y="-329.6" font-family="Times,serif" font-size="14.00" fill="green"> </text>
<text text-anchor="start" x="673.61" y="-329.6" font-family="Courier New" font-size="10.00" fill="green">MAPi(WTEMP1,SCROLL_SPELL)</text>
</g>
<!-- M12_xCANDLE_183 -->
<g id="node34" class="node">
<title>M12_xCANDLE_183</title>
<polygon fill="none" stroke="black" points="616.5,-180.1 616.5,-216.1 757.72,-216.1 757.72,-180.1 616.5,-180.1"/>
<text text-anchor="middle" x="687.11" y="-193.9" font-family="Times,serif" font-size="14.00">M12_xCANDLE_183</text>
</g>
<!-- M12_xCANDLE_182&#45;&gt;M12_xCANDLE_183 -->
<g id="edge41" class="edge">
<title>M12_xCANDLE_182&#45;&gt;M12_xCANDLE_183</title>
<path fill="none" stroke="green" d="M672.07,-270.29C672.85,-259.96 674.24,-246.42 676.59,-234.6 677.09,-232.09 677.68,-229.5 678.34,-226.92"/>
<polygon fill="green" stroke="green" points="681.69,-227.95 681.03,-217.37 674.95,-226.05 681.69,-227.95"/>
<text text-anchor="start" x="676.11" y="-239.8" font-family="Times,serif" font-size="14.00" fill="green"> </text>
<text text-anchor="start" x="679.61" y="-239.8" font-family="Courier New" font-size="10.00" fill="green">ADDI(WTEMP1,IDS_ENCHANT)</text>
</g>
<!-- M12_xCANDLE_184 -->
<g id="node35" class="node">
<title>M12_xCANDLE_184</title>
<polygon fill="none" stroke="black" points="660.5,-90.3 660.5,-126.3 801.72,-126.3 801.72,-90.3 660.5,-90.3"/>
<text text-anchor="middle" x="731.11" y="-104.1" font-family="Times,serif" font-size="14.00">M12_xCANDLE_184</text>
</g>
<!-- M12_xCANDLE_183&#45;&gt;M12_xCANDLE_184 -->
<g id="edge42" class="edge">
<title>M12_xCANDLE_183&#45;&gt;M12_xCANDLE_184</title>
<path fill="none" stroke="green" d="M695.59,-180.17C701.8,-167.78 710.36,-150.71 717.51,-136.43"/>
<polygon fill="green" stroke="green" points="720.62,-138.04 721.97,-127.53 714.37,-134.9 720.62,-138.04"/>
<text text-anchor="start" x="712.11" y="-150" font-family="Times,serif" font-size="14.00" fill="green"> </text>
<text text-anchor="start" x="715.61" y="-150" font-family="Courier New" font-size="10.00" fill="green">MOV(WPARM,WTHIS)</text>
</g>
<!-- M12_xCANDLE_185 -->
<g id="node36" class="node">
<title>M12_xCANDLE_185</title>
<polygon fill="none" stroke="black" points="717.5,-0.5 717.5,-36.5 858.72,-36.5 858.72,-0.5 717.5,-0.5"/>
<text text-anchor="middle" x="788.11" y="-14.3" font-family="Times,serif" font-size="14.00">M12_xCANDLE_185</text>
</g>
<!-- M12_xCANDLE_184&#45;&gt;M12_xCANDLE_185 -->
<g id="edge43" class="edge">
<title>M12_xCANDLE_184&#45;&gt;M12_xCANDLE_185</title>
<path fill="none" stroke="green" d="M731.87,-90.65C733.04,-79.79 735.86,-65.7 742.6,-55 745.12,-50.99 748.26,-47.26 751.71,-43.83"/>
<polygon fill="green" stroke="green" points="753.83,-46.63 759.02,-37.4 749.2,-41.37 753.83,-46.63"/>
<text text-anchor="start" x="742.11" y="-60.2" font-family="Times,serif" font-size="14.00" fill="green"> </text>
<text text-anchor="start" x="745.61" y="-60.2" font-family="Courier New" font-size="10.00" fill="green">ADDI(WPARM,3)</text>
</g>
<!-- M12_xCANDLE_185&#45;&gt;M12_xCANDLE_0 -->
<g id="edge44" class="edge">
<title>M12_xCANDLE_185&#45;&gt;M12_xCANDLE_0</title>
<path fill="none" stroke="green" d="M808.88,-36.31C814.51,-41.76 820.14,-48.17 824.11,-55 836.21,-75.8 838.11,-83.24 838.11,-107.3 838.11,-2803.3 838.11,-2803.3 838.11,-2803.3 838.11,-2878.83 590.82,-2890.63 462.88,-2891.68"/>
<polygon fill="green" stroke="green" points="463.12,-2888.17 453.14,-2891.73 463.16,-2895.17 463.12,-2888.17"/>
<text text-anchor="start" x="838.11" y="-1452.1" font-family="Times,serif" font-size="14.00" fill="green"> </text>
<text text-anchor="start" x="841.61" y="-1452.1" font-family="Courier New" font-size="10.00" fill="green">SIGNAL(WPARM,SIG_SET)</text>
</g>
<!-- M12_xCANDLE_202 -->
<g id="node38" class="node">
<title>M12_xCANDLE_202</title>
<polygon fill="none" stroke="black" points="594.5,-2604.7 594.5,-2640.7 735.72,-2640.7 735.72,-2604.7 594.5,-2604.7"/>
<text text-anchor="middle" x="665.11" y="-2618.5" font-family="Times,serif" font-size="14.00">M12_xCANDLE_202</text>
</g>
<!-- M12_xCANDLE_201&#45;&gt;M12_xCANDLE_202 -->
<g id="edge46" class="edge">
<title>M12_xCANDLE_201&#45;&gt;M12_xCANDLE_202</title>
<path fill="none" stroke="green" d="M696.44,-2694.83C691.48,-2689.2 686.36,-2682.64 682.59,-2676 678.28,-2668.42 674.83,-2659.61 672.17,-2651.41"/>
<polygon fill="green" stroke="green" points="675.54,-2650.46 669.35,-2641.86 668.82,-2652.45 675.54,-2650.46"/>
<text text-anchor="start" x="682.11" y="-2664.4" font-family="Times,serif" font-size="14.00" fill="green"> </text>
<text text-anchor="start" x="685.61" y="-2664.4" font-family="Courier New" font-size="10.00" fill="green">PLAYWAVE(0,SOUND_SLURP)</text>
</g>
<!-- M12_xCANDLE_202&#45;&gt;M12_xCANDLE_0 -->
<g id="edge47" class="edge">
<title>M12_xCANDLE_202&#45;&gt;M12_xCANDLE_0</title>
<path fill="none" stroke="green" d="M651.62,-2640.43C633.74,-2663.48 602.5,-2706.93 585.59,-2749 567.57,-2793.84 598.28,-2821.42 564.11,-2855.6 549.68,-2870.04 503.93,-2878.99 462.7,-2884.3"/>
<polygon fill="green" stroke="green" points="462.51,-2880.8 453,-2885.48 463.35,-2887.75 462.51,-2880.8"/>
<text text-anchor="start" x="585.11" y="-2754.2" font-family="Times,serif" font-size="14.00" fill="green"> </text>
<text text-anchor="start" x="588.61" y="-2754.2" font-family="Courier New" font-size="10.00" fill="green">HANDOFF(0,IDD_SCOOPE)</text>
</g>
</g>
</svg>
