<?xml version="1.0" encoding="UTF-8" standalone="no"?>
<!DOCTYPE svg PUBLIC "-//W3C//DTD SVG 1.1//EN"
 "http://www.w3.org/Graphics/SVG/1.1/DTD/svg11.dtd">
<!-- Generated by graphviz version 7.1.0 (20230121.1956)
 -->
<!-- Pages: 1 -->
<svg width="1612pt" height="407pt"
 viewBox="0.00 0.00 1611.93 407.00" xmlns="http://www.w3.org/2000/svg" xmlns:xlink="http://www.w3.org/1999/xlink">
<g id="graph0" class="graph" transform="scale(1 1) rotate(0) translate(4 403)">
<polygon fill="white" stroke="none" points="-4,4 -4,-403 1607.93,-403 1607.93,4 -4,4"/>
<!-- 0 -->
<g id="node1" class="node">
<title>0</title>
<ellipse fill="none" stroke="black" cx="528.93" cy="-381" rx="27" ry="18"/>
<text text-anchor="middle" x="528.93" y="-376.8" font-family="Times,serif" font-size="14.00">0</text>
</g>
<!-- 9 -->
<g id="node2" class="node">
<title>9</title>
<ellipse fill="none" stroke="black" cx="82.93" cy="-261" rx="27" ry="18"/>
<text text-anchor="middle" x="82.93" y="-256.8" font-family="Times,serif" font-size="14.00">9</text>
</g>
<!-- 0&#45;&gt;9 -->
<g id="edge1" class="edge">
<title>0&#45;&gt;9</title>
<path fill="none" stroke="black" d="M501.73,-379C420.31,-375.79 182.33,-364.79 153.93,-345 134.52,-331.48 146.05,-315.19 130.93,-297 125.58,-290.57 118.8,-284.7 112.03,-279.68"/>
<polygon fill="black" stroke="black" points="114.41,-277.07 104.19,-274.25 110.42,-282.82 114.41,-277.07"/>
<text text-anchor="start" x="158.43" y="-318.2" font-family="Courier New" font-weight="bold" font-size="12.00" fill="orange">DROP(00)</text>
</g>
<!-- 11 -->
<g id="node3" class="node">
<title>11</title>
<ellipse fill="none" stroke="black" cx="304.93" cy="-261" rx="27" ry="18"/>
<text text-anchor="middle" x="304.93" y="-256.8" font-family="Times,serif" font-size="14.00">11</text>
</g>
<!-- 0&#45;&gt;11 -->
<g id="edge2" class="edge">
<title>0&#45;&gt;11</title>
<path fill="none" stroke="black" d="M501.63,-380.44C443.08,-380.75 308.42,-377.78 279.93,-345 265.93,-328.9 273.42,-317.32 279.93,-297 281.09,-293.37 282.78,-289.8 284.74,-286.41"/>
<polygon fill="black" stroke="black" points="287.64,-288.38 290.34,-278.14 281.84,-284.46 287.64,-288.38"/>
<polygon fill="none" stroke="black" points="283.43,-322 283.43,-342 394.43,-342 394.43,-322 283.43,-322"/>
<text text-anchor="start" x="310.12" y="-329.2" font-family="Courier New" font-weight="bold" font-size="12.00" fill="orange">GRAB(00)</text>
<polygon fill="none" stroke="black" points="283.43,-300 283.43,-320 394.43,-320 394.43,-300 283.43,-300"/>
<text text-anchor="start" x="286.43" y="-306.2" font-family="Times,serif" font-size="12.00" fill="blue">ASSIGN(BPARM,0);</text>
<polygon fill="none" stroke="black" points="279.93,-297 279.93,-345 396.93,-345 396.93,-297 279.93,-297"/>
</g>
<!-- 5 -->
<g id="node4" class="node">
<title>5</title>
<ellipse fill="none" stroke="black" cx="701.93" cy="-261" rx="27" ry="18"/>
<text text-anchor="middle" x="701.93" y="-256.8" font-family="Times,serif" font-size="14.00">5</text>
</g>
<!-- 0&#45;&gt;5 -->
<g id="edge3" class="edge">
<title>0&#45;&gt;5</title>
<path fill="none" stroke="black" d="M555.71,-377.11C594.19,-372.43 662.44,-361.95 679.93,-345 694.43,-330.94 699.75,-308.51 701.53,-290.5"/>
<polygon fill="black" stroke="black" points="705.02,-290.89 702.17,-280.69 698.03,-290.44 705.02,-290.89"/>
<polygon fill="none" stroke="black" points="703.93,-322 703.93,-342 1101.93,-342 1101.93,-322 703.93,-322"/>
<text text-anchor="start" x="852.52" y="-329.2" font-family="Courier New" font-weight="bold" font-size="12.00" fill="orange">WAIT(SIG_SHOW)</text>
<polygon fill="none" stroke="black" points="703.93,-300 703.93,-320 1101.93,-320 1101.93,-300 703.93,-300"/>
<text text-anchor="start" x="706.93" y="-306.2" font-family="Times,serif" font-size="12.00" fill="blue">REF_MACHINE(WIP1);MOV(BFRAME,R_WPARM);MAP(BFRAME,WIP2);</text>
<polygon fill="none" stroke="black" points="700.93,-297 700.93,-345 1104.93,-345 1104.93,-297 700.93,-297"/>
</g>
<!-- 20 -->
<g id="node5" class="node">
<title>20</title>
<ellipse fill="none" stroke="black" cx="425.93" cy="-261" rx="27" ry="18"/>
<text text-anchor="middle" x="425.93" y="-256.8" font-family="Times,serif" font-size="14.00">20</text>
</g>
<!-- 0&#45;&gt;20 -->
<g id="edge4" class="edge">
<title>0&#45;&gt;20</title>
<path fill="none" stroke="black" d="M501.67,-380.88C472.89,-380.15 428.74,-373.95 406.93,-345 394.51,-328.52 401.28,-305.33 410.01,-287.65"/>
<polygon fill="black" stroke="black" points="412.85,-289.76 414.53,-279.3 406.69,-286.43 412.85,-289.76"/>
<text text-anchor="start" x="410.93" y="-318.2" font-family="Courier New" font-weight="bold" font-size="12.00" fill="orange">WAIT(SIG_HIDE)</text>
</g>
<!-- 30 -->
<g id="node6" class="node">
<title>30</title>
<ellipse fill="none" stroke="black" cx="989.93" cy="-261" rx="27" ry="18"/>
<text text-anchor="middle" x="989.93" y="-256.8" font-family="Times,serif" font-size="14.00">30</text>
</g>
<!-- 0&#45;&gt;30 -->
<g id="edge5" class="edge">
<title>0&#45;&gt;30</title>
<path fill="none" stroke="black" d="M556.17,-379.38C668.13,-376.69 1087.83,-365.29 1106.93,-345 1121.55,-329.47 1119.67,-314.11 1106.93,-297 1089.06,-273 1055.34,-264.83 1028.67,-262.32"/>
<polygon fill="black" stroke="black" points="1029.09,-258.84 1018.88,-261.65 1028.62,-265.83 1029.09,-258.84"/>
<text text-anchor="start" x="1120.93" y="-318.2" font-family="Courier New" font-weight="bold" font-size="12.00" fill="orange">WAIT(SIG_CLOSE)</text>
</g>
<!-- 9&#45;&gt;0 -->
<g id="edge17" class="edge">
<title>9&#45;&gt;0</title>
<path fill="none" stroke="black" d="M57.28,-266.99C40.66,-271.7 20.26,-280.59 9.93,-297 -1.44,-315.05 -4.64,-329.42 9.93,-345 42.54,-379.88 375.56,-381.02 490.31,-380.36"/>
<polygon fill="black" stroke="black" points="490.16,-383.86 500.14,-380.29 490.11,-376.86 490.16,-383.86"/>
<polygon fill="none" stroke="black" points="13.43,-322 13.43,-342 124.43,-342 124.43,-322 13.43,-322"/>
<text text-anchor="start" x="18.52" y="-329.2" font-family="Courier New" font-weight="bold" font-size="12.00" fill="blue">SHOW(WOBJECT0)</text>
<polygon fill="none" stroke="black" points="13.43,-300 13.43,-320 124.43,-320 124.43,-300 13.43,-300"/>
<text text-anchor="start" x="16.43" y="-306.2" font-family="Times,serif" font-size="12.00" fill="blue">ASSIGN(BPARM,1);</text>
<polygon fill="none" stroke="black" points="9.93,-297 9.93,-345 126.93,-345 126.93,-297 9.93,-297"/>
</g>
<!-- 12 -->
<g id="node7" class="node">
<title>12</title>
<ellipse fill="none" stroke="black" cx="309.93" cy="-112" rx="27" ry="18"/>
<text text-anchor="middle" x="309.93" y="-107.8" font-family="Times,serif" font-size="14.00">12</text>
</g>
<!-- 11&#45;&gt;12 -->
<g id="edge6" class="edge">
<title>11&#45;&gt;12</title>
<path fill="none" stroke="black" d="M305.52,-242.56C306.36,-217.69 307.93,-171.75 308.95,-141.79"/>
<polygon fill="black" stroke="black" points="312.44,-142.04 309.28,-131.93 305.44,-141.81 312.44,-142.04"/>
<text text-anchor="start" x="313.43" y="-183.7" font-family="Courier New" font-weight="bold" font-size="12.00" fill="blue">CLEAR(BFRAME)</text>
</g>
<!-- 5&#45;&gt;0 -->
<g id="edge14" class="edge">
<title>5&#45;&gt;0</title>
<path fill="none" stroke="black" d="M676.37,-267.6C636.44,-276.44 563.33,-293.04 558.93,-297 556.72,-298.98 546.23,-328.87 538.27,-352.22"/>
<polygon fill="black" stroke="black" points="534.99,-350.98 535.1,-361.57 541.62,-353.23 534.99,-350.98"/>
<polygon fill="none" stroke="black" points="562.43,-322 562.43,-342 673.43,-342 673.43,-322 562.43,-322"/>
<text text-anchor="start" x="578.32" y="-329.2" font-family="Courier New" font-weight="bold" font-size="12.00" fill="blue">Z_EPSILON()</text>
<polygon fill="none" stroke="black" points="562.43,-300 562.43,-320 673.43,-320 673.43,-300 562.43,-300"/>
<text text-anchor="start" x="565.43" y="-306.2" font-family="Times,serif" font-size="12.00" fill="blue">ASSIGN(WPARM,0)</text>
<polygon fill="none" stroke="black" points="558.93,-297 558.93,-345 675.93,-345 675.93,-297 558.93,-297"/>
</g>
<!-- 6 -->
<g id="node11" class="node">
<title>6</title>
<ellipse fill="none" stroke="black" cx="786.93" cy="-112" rx="27" ry="18"/>
<text text-anchor="middle" x="786.93" y="-107.8" font-family="Times,serif" font-size="14.00">6</text>
</g>
<!-- 5&#45;&gt;6 -->
<g id="edge13" class="edge">
<title>5&#45;&gt;6</title>
<path fill="none" stroke="black" d="M698.18,-243.08C693.98,-219.51 690.11,-176.49 709.93,-148 719.37,-134.42 735.42,-126.01 750.42,-120.86"/>
<polygon fill="black" stroke="black" points="751.04,-124.33 759.61,-118.09 749.02,-117.62 751.04,-124.33"/>
<polygon fill="none" stroke="black" points="713.43,-187.5 713.43,-207.5 828.43,-207.5 828.43,-187.5 713.43,-187.5"/>
<text text-anchor="start" x="731.32" y="-194.7" font-family="Courier New" font-weight="bold" font-size="12.00" fill="blue">GT(BFRAME0)</text>
<polygon fill="none" stroke="black" points="713.43,-165.5 713.43,-185.5 828.43,-185.5 828.43,-165.5 713.43,-165.5"/>
<text text-anchor="start" x="716.43" y="-171.7" font-family="Times,serif" font-size="12.00" fill="blue">ASSIGN(WPARM,1);</text>
<polygon fill="none" stroke="black" points="709.93,-162.5 709.93,-210.5 830.93,-210.5 830.93,-162.5 709.93,-162.5"/>
</g>
<!-- 21 -->
<g id="node9" class="node">
<title>21</title>
<ellipse fill="none" stroke="black" cx="487.93" cy="-112" rx="27" ry="18"/>
<text text-anchor="middle" x="487.93" y="-107.8" font-family="Times,serif" font-size="14.00">21</text>
</g>
<!-- 20&#45;&gt;21 -->
<g id="edge9" class="edge">
<title>20&#45;&gt;21</title>
<path fill="none" stroke="black" d="M426.43,-242.53C427.79,-219.46 432.67,-178.22 449.93,-148 452.91,-142.78 456.93,-137.89 461.25,-133.52"/>
<polygon fill="black" stroke="black" points="463.56,-136.15 468.6,-126.83 458.85,-130.97 463.56,-136.15"/>
<text text-anchor="start" x="454.43" y="-183.7" font-family="Courier New" font-weight="bold" font-size="12.00" fill="blue">SHOW(00)</text>
</g>
<!-- 31 -->
<g id="node10" class="node">
<title>31</title>
<ellipse fill="none" stroke="black" cx="1055.93" cy="-112" rx="27" ry="18"/>
<text text-anchor="middle" x="1055.93" y="-107.8" font-family="Times,serif" font-size="14.00">31</text>
</g>
<!-- 30&#45;&gt;31 -->
<g id="edge11" class="edge">
<title>30&#45;&gt;31</title>
<path fill="none" stroke="black" d="M963.06,-257.07C926.87,-252.5 865.43,-242.36 851.93,-225 830.91,-197.99 829.87,-174.16 851.93,-148 872.65,-123.42 964.1,-116.1 1017.26,-113.92"/>
<polygon fill="black" stroke="black" points="1017.23,-117.43 1027.1,-113.57 1016.98,-110.43 1017.23,-117.43"/>
<polygon fill="none" stroke="black" points="854.93,-187.5 854.93,-207.5 1242.93,-207.5 1242.93,-187.5 854.93,-187.5"/>
<text text-anchor="start" x="991.32" y="-194.7" font-family="Courier New" font-weight="bold" font-size="12.00" fill="blue">ASSIGN(WOBJECT0)</text>
<polygon fill="none" stroke="black" points="854.93,-165.5 854.93,-185.5 1242.93,-185.5 1242.93,-165.5 854.93,-165.5"/>
<text text-anchor="start" x="857.93" y="-171.7" font-family="Times,serif" font-size="12.00" fill="blue">CLEAR(WOBJECT);ASHOW(); ASSIGN(BPARM,0); ASSIGN(WPARM,0);</text>
<polygon fill="none" stroke="black" points="851.93,-162.5 851.93,-210.5 1245.93,-210.5 1245.93,-162.5 851.93,-162.5"/>
</g>
<!-- 13 -->
<g id="node8" class="node">
<title>13</title>
<ellipse fill="none" stroke="black" cx="243.93" cy="-18" rx="27" ry="18"/>
<text text-anchor="middle" x="243.93" y="-13.8" font-family="Times,serif" font-size="14.00">13</text>
</g>
<!-- 12&#45;&gt;13 -->
<g id="edge7" class="edge">
<title>12&#45;&gt;13</title>
<path fill="none" stroke="black" d="M298.73,-95.39C288.58,-81.25 273.46,-60.17 261.67,-43.74"/>
<polygon fill="black" stroke="black" points="264.73,-42 256.06,-35.91 259.04,-46.08 264.73,-42"/>
<text text-anchor="start" x="288.93" y="-62.2" font-family="Courier New" font-weight="bold" font-size="12.00" fill="blue">CLEAR(WOBJECT)</text>
</g>
<!-- 13&#45;&gt;0 -->
<g id="edge8" class="edge">
<title>13&#45;&gt;0</title>
<path fill="none" stroke="black" d="M238.39,-35.93C221.65,-90.74 178.08,-264.36 268.93,-345 300.91,-373.39 425.9,-378.96 490.22,-379.92"/>
<polygon fill="black" stroke="black" points="489.93,-383.41 499.97,-380.03 490.01,-376.41 489.93,-383.41"/>
<text text-anchor="start" x="220.43" y="-183.7" font-family="Courier New" font-weight="bold" font-size="12.00" fill="blue">SHOW(00)</text>
</g>
<!-- 21&#45;&gt;0 -->
<g id="edge10" class="edge">
<title>21&#45;&gt;0</title>
<path fill="none" stroke="black" d="M502.21,-127.46C507.14,-133.35 512.12,-140.53 514.93,-148 540.94,-217.39 536.83,-306.63 532.44,-351.52"/>
<polygon fill="black" stroke="black" points="528.98,-350.88 531.4,-361.19 535.94,-351.62 528.98,-350.88"/>
<text text-anchor="start" x="540.43" y="-258.2" font-family="Courier New" font-weight="bold" font-size="12.00" fill="blue">Z_EPSILON()</text>
</g>
<!-- 31&#45;&gt;0 -->
<g id="edge12" class="edge">
<title>31&#45;&gt;0</title>
<path fill="none" stroke="black" d="M1083.23,-113.9C1130.75,-116.09 1225.54,-123.51 1245.93,-148 1273.97,-181.68 1268.31,-314.41 1236.93,-345 1212.79,-368.53 711.4,-377.42 567.33,-379.49"/>
<polygon fill="black" stroke="black" points="567.51,-375.99 557.56,-379.63 567.6,-382.99 567.51,-375.99"/>
<text text-anchor="start" x="1267.43" y="-258.2" font-family="Courier New" font-weight="bold" font-size="12.00" fill="blue">Z_EPSILON()</text>
</g>
<!-- 7 -->
<g id="node12" class="node">
<title>7</title>
<ellipse fill="none" stroke="black" cx="1290.93" cy="-18" rx="27" ry="18"/>
<text text-anchor="middle" x="1290.93" y="-13.8" font-family="Times,serif" font-size="14.00">7</text>
</g>
<!-- 6&#45;&gt;7 -->
<g id="edge15" class="edge">
<title>6&#45;&gt;7</title>
<path fill="none" stroke="black" d="M812.96,-106.25C896.26,-91.04 1156.48,-43.54 1253.75,-25.79"/>
<polygon fill="black" stroke="black" points="1254.35,-29.23 1263.56,-24 1253.09,-22.35 1254.35,-29.23"/>
<text text-anchor="start" x="1101.93" y="-62.2" font-family="Courier New" font-weight="bold" font-size="12.00" fill="blue">SHOW(WIP3)</text>
</g>
<!-- 7&#45;&gt;0 -->
<g id="edge16" class="edge">
<title>7&#45;&gt;0</title>
<path fill="none" stroke="black" d="M1302.02,-34.85C1329.96,-76.87 1397.94,-193.79 1353.93,-279 1330.66,-324.03 1308.83,-328.46 1260.93,-345 1195.27,-367.67 708.94,-377.13 567.44,-379.42"/>
<polygon fill="black" stroke="black" points="567.42,-375.92 557.48,-379.58 567.53,-382.92 567.42,-375.92"/>
<polygon fill="none" stroke="black" points="1370.93,-201.5 1370.93,-221.5 1600.93,-221.5 1600.93,-201.5 1370.93,-201.5"/>
<text text-anchor="start" x="1446.32" y="-208.7" font-family="Courier New" font-weight="bold" font-size="12.00" fill="blue">Z_EPSILON()</text>
<polygon fill="none" stroke="black" points="1370.93,-150.5 1370.93,-199.5 1600.93,-199.5 1600.93,-150.5 1370.93,-150.5"/>
<text text-anchor="start" x="1373.93" y="-185.7" font-family="Times,serif" font-size="12.00" fill="blue"> &#160;&#160;&#160;&#160;&#160;&#160;&#160;MOV(WOBJECT,BFRAME);</text>
<text text-anchor="start" x="1373.93" y="-171.3" font-family="Times,serif" font-size="12.00" fill="blue"> &#160;&#160;&#160;&#160;&#160;&#160;&#160;MAPi(WOBJECT,S12_NATURE_REP);</text>
<text text-anchor="start" x="1373.93" y="-156.9" font-family="Times,serif" font-size="12.00" fill="blue"> &#160;&#160;&#160;&#160;&#160;&#160;&#160;C_ACCEPT(WOBJECT);</text>
<polygon fill="none" stroke="black" points="1367.93,-148 1367.93,-225 1603.93,-225 1603.93,-148 1367.93,-148"/>
</g>
</g>
</svg>
