<?xml version="1.0" encoding="UTF-8" standalone="no"?>
<!DOCTYPE svg PUBLIC "-//W3C//DTD SVG 1.1//EN"
 "http://www.w3.org/Graphics/SVG/1.1/DTD/svg11.dtd">
<!-- Generated by graphviz version 7.1.0 (20230121.1956)
 -->
<!-- Pages: 1 -->
<svg width="358pt" height="56pt"
 viewBox="0.00 0.00 358.00 56.00" xmlns="http://www.w3.org/2000/svg" xmlns:xlink="http://www.w3.org/1999/xlink">
<g id="graph0" class="graph" transform="scale(1 1) rotate(0) translate(4 52)">
<polygon fill="white" stroke="none" points="-4,4 -4,-52 354,-52 354,4 -4,4"/>
<!-- 0 -->
<g id="node1" class="node">
<title>0</title>
<ellipse fill="none" stroke="black" cx="27" cy="-24" rx="27" ry="18"/>
<text text-anchor="middle" x="27" y="-19.8" font-family="Times,serif" font-size="14.00">0</text>
</g>
<!-- 0&#45;&gt;0 -->
<g id="edge1" class="edge">
<title>0&#45;&gt;0</title>
<path fill="none" stroke="black" d="M53.79,-27.37C63.78,-27.48 72,-26.36 72,-24 72,-22.64 69.25,-21.69 65.01,-21.15"/>
<polygon fill="black" stroke="black" points="65.46,-17.67 55.31,-20.7 65.13,-24.66 65.46,-17.67"/>
<polygon fill="none" stroke="black" points="75,-25 75,-45 189,-45 189,-25 75,-25"/>
<text text-anchor="start" x="78" y="-32.2" font-family="Courier New" font-weight="bold" font-size="12.00" fill="orange">WAIT(,SIG_HIDE)</text>
<polygon fill="none" stroke="black" points="75,-3 75,-23 189,-23 189,-3 75,-3"/>
<text text-anchor="start" x="108.67" y="-9.2" font-family="Times,serif" font-size="12.00" fill="blue">SHOW();</text>
<polygon fill="none" stroke="black" points="72,0 72,-48 192,-48 192,0 72,0"/>
</g>
<!-- 0&#45;&gt;0 -->
<g id="edge2" class="edge">
<title>0&#45;&gt;0</title>
<path fill="none" stroke="black" d="M53.49,-28.43C101.45,-32.61 192,-31.14 192,-24 192,-17.39 114.39,-15.64 64.82,-18.73"/>
<polygon fill="black" stroke="black" points="64.71,-15.23 55,-19.46 65.23,-22.21 64.71,-15.23"/>
<polygon fill="none" stroke="black" points="195,-25 195,-45 329,-45 329,-25 195,-25"/>
<text text-anchor="start" x="207.99" y="-32.2" font-family="Courier New" font-weight="bold" font-size="12.00" fill="orange">WAIT(,SIG_SHOW)</text>
<polygon fill="none" stroke="black" points="195,-3 195,-23 329,-23 329,-3 195,-3"/>
<text text-anchor="start" x="198" y="-9.2" font-family="Times,serif" font-size="12.00" fill="blue">SHOW(IDS_CANGRN1);</text>
<polygon fill="none" stroke="black" points="192,0 192,-48 332,-48 332,0 192,0"/>
</g>
</g>
</svg>
