<?xml version="1.0" encoding="UTF-8" standalone="no"?>
<!DOCTYPE svg PUBLIC "-//W3C//DTD SVG 1.1//EN"
 "http://www.w3.org/Graphics/SVG/1.1/DTD/svg11.dtd">
<!-- Generated by graphviz version 7.1.0 (20230121.1956)
 -->
<!-- Pages: 1 -->
<svg width="1473pt" height="243pt"
 viewBox="0.00 0.00 1473.00 243.00" xmlns="http://www.w3.org/2000/svg" xmlns:xlink="http://www.w3.org/1999/xlink">
<g id="graph0" class="graph" transform="scale(1 1) rotate(0) translate(4 239)">
<polygon fill="white" stroke="none" points="-4,4 -4,-239 1469,-239 1469,4 -4,4"/>
<!-- 0 -->
<g id="node1" class="node">
<title>0</title>
<ellipse fill="none" stroke="black" cx="27" cy="-117.5" rx="27" ry="18"/>
<text text-anchor="middle" x="27" y="-113.3" font-family="Times,serif" font-size="14.00">0</text>
</g>
<!-- 0&#45;&gt;0 -->
<g id="edge1" class="edge">
<title>0&#45;&gt;0</title>
<path fill="none" stroke="black" d="M54.24,-119.19C64.02,-119.22 72,-118.66 72,-117.5 72,-116.85 69.48,-116.38 65.53,-116.11"/>
<polygon fill="black" stroke="black" points="65.84,-112.62 55.75,-115.85 65.66,-119.61 65.84,-112.62"/>
<polygon fill="none" stroke="black" points="75,-118.5 75,-138.5 221,-138.5 221,-118.5 75,-118.5"/>
<text text-anchor="start" x="111.99" y="-125.7" font-family="Courier New" font-weight="bold" font-size="12.00" fill="orange">CLICK(0,0)</text>
<polygon fill="none" stroke="black" points="75,-96.5 75,-116.5 221,-116.5 221,-96.5 75,-96.5"/>
<text text-anchor="start" x="78" y="-102.7" font-family="Times,serif" font-size="12.00" fill="blue">SIGNAL(WIP1,SIG_HIDE);</text>
<polygon fill="none" stroke="black" points="72,-93.5 72,-141.5 224,-141.5 224,-93.5 72,-93.5"/>
</g>
<!-- 0&#45;&gt;0 -->
<g id="edge2" class="edge">
<title>0&#45;&gt;0</title>
<path fill="none" stroke="black" d="M54.17,-119.61C109.48,-121.83 224,-121.13 224,-117.5 224,-114.1 123.77,-113.27 65.56,-115"/>
<polygon fill="black" stroke="black" points="65.56,-111.5 55.69,-115.34 65.8,-118.49 65.56,-111.5"/>
<polygon fill="none" stroke="black" points="227.5,-211.5 227.5,-231.5 688.5,-231.5 688.5,-211.5 227.5,-211.5"/>
<text text-anchor="start" x="396.79" y="-218.7" font-family="Courier New" font-weight="bold" font-size="12.00" fill="orange">DRAG(0,IDD_MATCH)</text>
<polygon fill="none" stroke="black" points="227.5,-2.5 227.5,-209.5 688.5,-209.5 688.5,-2.5 227.5,-2.5"/>
<text text-anchor="start" x="230.5" y="-195.7" font-family="Times,serif" font-size="12.00" fill="blue">REF_MACHINE(WIP4); &#160;&#160;&#160;&#160;&#160;&#160;&#160;&#160;// WIP4 is the scroll</text>
<text text-anchor="start" x="230.5" y="-181.3" font-family="Times,serif" font-size="12.00" fill="blue">MOV(BFRAME,R_WPARM); &#160;&#160;&#160;&#160;&#160;&#160;// R_WPARM is the spell id</text>
<text text-anchor="start" x="230.5" y="-166.9" font-family="Times,serif" font-size="12.00" fill="blue">MAPi(BFRAME,S12_ING_NY); &#160;&#160;// BFRAME is the cost for the spell</text>
<text text-anchor="start" x="230.5" y="-152.5" font-family="Times,serif" font-size="12.00" fill="blue">// magic candle can&#39;t light without enough nystrom!</text>
<text text-anchor="start" x="230.5" y="-138.1" font-family="Times,serif" font-size="12.00" fill="blue">if (BPARM == BFRAME) {</text>
<text text-anchor="start" x="230.5" y="-123.7" font-family="Times,serif" font-size="12.00" fill="blue"> &#160;&#160;&#160;// check to see if the spell is ready</text>
<text text-anchor="start" x="230.5" y="-109.3" font-family="Times,serif" font-size="12.00" fill="blue"> &#160;&#160;&#160;SIGNAL(WIP3, SIG_CHECK);</text>
<text text-anchor="start" x="230.5" y="-94.9" font-family="Times,serif" font-size="12.00" fill="blue"> &#160;&#160;&#160;REF_MACHINE(WIP3);</text>
<text text-anchor="start" x="230.5" y="-80.5" font-family="Times,serif" font-size="12.00" fill="blue"> &#160;&#160;&#160;if ((R_WPARM &gt; 0) &amp;&amp; (R_WPARM == R_BPARM)) {</text>
<text text-anchor="start" x="230.5" y="-66.1" font-family="Times,serif" font-size="12.00" fill="blue"> &#160;&#160;&#160;&#160;&#160;&#160;&#160;&#160;&#160;&#160;&#160;&#160;&#160;&#160;&#160;SIGNAL(WIP1, SIG_SHOW); // WIP1 is the candle light</text>
<text text-anchor="start" x="230.5" y="-51.7" font-family="Times,serif" font-size="12.00" fill="blue"> &#160;&#160;&#160;&#160;&#160;&#160;&#160;&#160;&#160;&#160;&#160;&#160;&#160;&#160;&#160;BPARM = 0; // &#45;&#45;BPARM GOES TO ZERO AS THE NYSTROM CATCHES FIRE</text>
<text text-anchor="start" x="230.5" y="-37.3" font-family="Times,serif" font-size="12.00" fill="blue"> &#160;&#160;&#160;&#160;&#160;&#160;&#160;}</text>
<text text-anchor="start" x="230.5" y="-22.9" font-family="Times,serif" font-size="12.00" fill="blue"> &#160;&#160;&#160;}</text>
<text text-anchor="start" x="230.5" y="-8.5" font-family="Times,serif" font-size="12.00" fill="blue">}</text>
<polygon fill="none" stroke="black" points="224,0 224,-235 691,-235 691,0 224,0"/>
</g>
<!-- 0&#45;&gt;0 -->
<g id="edge3" class="edge">
<title>0&#45;&gt;0</title>
<path fill="none" stroke="black" d="M54.02,-119.39C180.17,-124.18 691,-123.54 691,-117.5 691,-111.62 207.72,-110.86 65.21,-115.23"/>
<polygon fill="black" stroke="black" points="65.41,-111.72 55.53,-115.55 65.65,-118.71 65.41,-111.72"/>
<polygon fill="none" stroke="black" points="694,-211.5 694,-231.5 1150,-231.5 1150,-211.5 694,-211.5"/>
<text text-anchor="start" x="857.19" y="-218.7" font-family="Courier New" font-weight="bold" font-size="12.00" fill="orange">DRAG(0,IDD_SCOOPF)</text>
<polygon fill="none" stroke="black" points="694,-2.5 694,-209.5 1150,-209.5 1150,-2.5 694,-2.5"/>
<text text-anchor="start" x="697" y="-195.7" font-family="Times,serif" font-size="12.00" fill="blue">/* &#160;&#160;&#160;&#160;&#160;WIP4 is the scroll</text>
<text text-anchor="start" x="697" y="-181.3" font-family="Times,serif" font-size="12.00" fill="blue"> &#160;&#160;&#160;&#160;&#160;&#160;&#160;R_WPARM is the spell id (??)</text>
<text text-anchor="start" x="697" y="-166.9" font-family="Times,serif" font-size="12.00" fill="blue"> &#160;&#160;&#160;&#160;&#160;&#160;&#160;BFRAME is how much for the spell</text>
<text text-anchor="start" x="697" y="-152.5" font-family="Times,serif" font-size="12.00" fill="blue"> &#160;&#160;&#160;&#160;&#160;&#160;&#160;BPARM is how much stored in the candle</text>
<text text-anchor="start" x="697" y="-138.1" font-family="Times,serif" font-size="12.00" fill="blue">*/</text>
<text text-anchor="start" x="697" y="-123.7" font-family="Times,serif" font-size="12.00" fill="blue">REF_MACHINE(WIP4); &#160;&#160;&#160;&#160;&#160;&#160;// WIP4 is the scroll</text>
<text text-anchor="start" x="697" y="-109.3" font-family="Times,serif" font-size="12.00" fill="blue">MOV(BFRAME,R_WPARM); &#160;&#160;&#160;&#160;// R_WPARM is the spell id (??)</text>
<text text-anchor="start" x="697" y="-94.9" font-family="Times,serif" font-size="12.00" fill="blue">MAPi(BFRAME,S12_ING_NY); // BFRAME is how much for the spell</text>
<text text-anchor="start" x="697" y="-80.5" font-family="Times,serif" font-size="12.00" fill="blue">if (BPARM &lt; BFRAME) { &#160;&#160;&#160;// BPARM is how much stored in the candle</text>
<text text-anchor="start" x="697" y="-66.1" font-family="Times,serif" font-size="12.00" fill="blue"> &#160;&#160;&#160;ADDI(BPARM,1);</text>
<text text-anchor="start" x="697" y="-51.7" font-family="Times,serif" font-size="12.00" fill="blue"> &#160;&#160;&#160;PLAYWAVE(SOUND_SLURP);</text>
<text text-anchor="start" x="697" y="-37.3" font-family="Times,serif" font-size="12.00" fill="blue"> &#160;&#160;&#160;SIGNAL(WIP2, SIG_SHOW); // WIP2 is the nystrom meter (M12_xNYSTROMADDED)</text>
<text text-anchor="start" x="697" y="-22.9" font-family="Times,serif" font-size="12.00" fill="blue"> &#160;&#160;&#160;HANDOFF(0,IDD_SCOOPE);</text>
<text text-anchor="start" x="697" y="-8.5" font-family="Times,serif" font-size="12.00" fill="blue">}</text>
<polygon fill="none" stroke="black" points="691,0 691,-235 1153,-235 1153,0 691,0"/>
</g>
<!-- 0&#45;&gt;0 -->
<g id="edge4" class="edge">
<title>0&#45;&gt;0</title>
<path fill="none" stroke="black" d="M54.21,-119.49C228.04,-126.44 1153,-125.78 1153,-117.5 1153,-109.39 264.71,-108.59 65.54,-115.1"/>
<polygon fill="black" stroke="black" points="65.59,-111.6 55.73,-115.46 65.85,-118.59 65.59,-111.6"/>
<polygon fill="none" stroke="black" points="1156,-118.5 1156,-138.5 1408,-138.5 1408,-118.5 1156,-118.5"/>
<text text-anchor="start" x="1224.39" y="-125.7" font-family="Courier New" font-weight="bold" font-size="12.00" fill="orange">WAIT(,SIG_EMPTY)</text>
<polygon fill="none" stroke="black" points="1156,-96.5 1156,-116.5 1408,-116.5 1408,-96.5 1156,-96.5"/>
<text text-anchor="start" x="1159" y="-102.7" font-family="Times,serif" font-size="12.00" fill="blue">ASSIGN(BPARM,0);SIGNAL(WIP2,SIG_HIDE);</text>
<polygon fill="none" stroke="black" points="1153,-93.5 1153,-141.5 1411,-141.5 1411,-93.5 1153,-93.5"/>
</g>
</g>
</svg>
