<?xml version="1.0" encoding="UTF-8" standalone="no"?>
<!DOCTYPE svg PUBLIC "-//W3C//DTD SVG 1.1//EN"
 "http://www.w3.org/Graphics/SVG/1.1/DTD/svg11.dtd">
<!-- Generated by graphviz version 7.1.0 (20230121.1956)
 -->
<!-- Pages: 1 -->
<svg width="709pt" height="1078pt"
 viewBox="0.00 0.00 709.00 1078.00" xmlns="http://www.w3.org/2000/svg" xmlns:xlink="http://www.w3.org/1999/xlink">
<g id="graph0" class="graph" transform="scale(1 1) rotate(0) translate(4 1074)">
<polygon fill="white" stroke="none" points="-4,4 -4,-1074 705,-1074 705,4 -4,4"/>
<!-- 0 -->
<g id="node1" class="node">
<title>0</title>
<ellipse fill="none" stroke="black" cx="528" cy="-1052" rx="27" ry="18"/>
<text text-anchor="middle" x="528" y="-1047.8" font-family="Times,serif" font-size="14.00">0</text>
</g>
<!-- 10 -->
<g id="node2" class="node">
<title>10</title>
<ellipse fill="none" stroke="black" cx="528" cy="-958" rx="27" ry="18"/>
<text text-anchor="middle" x="528" y="-953.8" font-family="Times,serif" font-size="14.00">10</text>
</g>
<!-- 0&#45;&gt;10 -->
<g id="edge1" class="edge">
<title>0&#45;&gt;10</title>
<path fill="none" stroke="black" d="M528,-1033.7C528,-1020.72 528,-1002.66 528,-987.56"/>
<polygon fill="black" stroke="black" points="531.5,-987.74 528,-977.74 524.5,-987.74 531.5,-987.74"/>
<text text-anchor="start" x="532.5" y="-1002.2" font-family="Courier New" font-weight="bold" font-size="12.00" fill="blue">C_ACCEPT(0,IDC_FISHASH)</text>
</g>
<!-- 11 -->
<g id="node3" class="node">
<title>11</title>
<ellipse fill="none" stroke="black" cx="395" cy="-864" rx="27" ry="18"/>
<text text-anchor="middle" x="395" y="-859.8" font-family="Times,serif" font-size="14.00">11</text>
</g>
<!-- 10&#45;&gt;11 -->
<g id="edge2" class="edge">
<title>10&#45;&gt;11</title>
<path fill="none" stroke="black" d="M509.79,-944.4C487.2,-928.78 448.5,-902.01 422.34,-883.91"/>
<polygon fill="black" stroke="black" points="424.45,-881.12 414.24,-878.31 420.47,-886.88 424.45,-881.12"/>
<text text-anchor="start" x="482" y="-908.2" font-family="Courier New" font-weight="bold" font-size="12.00" fill="orange">DROP(0,0)</text>
</g>
<!-- 12 -->
<g id="node4" class="node">
<title>12</title>
<ellipse fill="none" stroke="black" cx="304" cy="-770" rx="27" ry="18"/>
<text text-anchor="middle" x="304" y="-765.8" font-family="Times,serif" font-size="14.00">12</text>
</g>
<!-- 11&#45;&gt;12 -->
<g id="edge3" class="edge">
<title>11&#45;&gt;12</title>
<path fill="none" stroke="black" d="M380.78,-848.62C366.18,-833.86 343.23,-810.67 326.23,-793.47"/>
<polygon fill="black" stroke="black" points="329,-791.3 319.48,-786.65 324.03,-796.22 329,-791.3"/>
<text text-anchor="start" x="365" y="-814.2" font-family="Courier New" font-weight="bold" font-size="12.00" fill="blue">SHOW(WOBJECT,)</text>
</g>
<!-- 13 -->
<g id="node10" class="node">
<title>13</title>
<ellipse fill="none" stroke="black" cx="175" cy="-676" rx="27" ry="18"/>
<text text-anchor="middle" x="175" y="-671.8" font-family="Times,serif" font-size="14.00">13</text>
</g>
<!-- 12&#45;&gt;13 -->
<g id="edge9" class="edge">
<title>12&#45;&gt;13</title>
<path fill="none" stroke="black" d="M286.06,-756.21C264.21,-740.62 227.08,-714.15 201.83,-696.13"/>
<polygon fill="black" stroke="black" points="204.19,-693.52 194.02,-690.56 200.13,-699.22 204.19,-693.52"/>
<text text-anchor="start" x="259.5" y="-720.2" font-family="Courier New" font-weight="bold" font-size="12.00" fill="blue">SIGNAL(WIP1,)</text>
</g>
<!-- 115 -->
<g id="node5" class="node">
<title>115</title>
<ellipse fill="none" stroke="black" cx="212" cy="-394" rx="27" ry="18"/>
<text text-anchor="middle" x="212" y="-389.8" font-family="Times,serif" font-size="14.00">115</text>
</g>
<!-- 116 -->
<g id="node6" class="node">
<title>116</title>
<ellipse fill="none" stroke="black" cx="212" cy="-300" rx="27" ry="18"/>
<text text-anchor="middle" x="212" y="-295.8" font-family="Times,serif" font-size="14.00">116</text>
</g>
<!-- 115&#45;&gt;116 -->
<g id="edge4" class="edge">
<title>115&#45;&gt;116</title>
<path fill="none" stroke="black" d="M212,-375.7C212,-362.72 212,-344.66 212,-329.56"/>
<polygon fill="black" stroke="black" points="215.5,-329.74 212,-319.74 208.5,-329.74 215.5,-329.74"/>
<text text-anchor="start" x="216" y="-344.2" font-family="Courier New" font-weight="bold" font-size="12.00" fill="blue">ASHOW(WOBJECT,)</text>
</g>
<!-- 117 -->
<g id="node7" class="node">
<title>117</title>
<ellipse fill="none" stroke="black" cx="212" cy="-206" rx="27" ry="18"/>
<text text-anchor="middle" x="212" y="-201.8" font-family="Times,serif" font-size="14.00">117</text>
</g>
<!-- 116&#45;&gt;117 -->
<g id="edge5" class="edge">
<title>116&#45;&gt;117</title>
<path fill="none" stroke="black" d="M212,-281.7C212,-268.72 212,-250.66 212,-235.56"/>
<polygon fill="black" stroke="black" points="215.5,-235.74 212,-225.74 208.5,-235.74 215.5,-235.74"/>
<text text-anchor="start" x="216.5" y="-250.2" font-family="Courier New" font-weight="bold" font-size="12.00" fill="blue">SIGNAL(WIP2,)</text>
</g>
<!-- 118 -->
<g id="node8" class="node">
<title>118</title>
<ellipse fill="none" stroke="black" cx="212" cy="-112" rx="27" ry="18"/>
<text text-anchor="middle" x="212" y="-107.8" font-family="Times,serif" font-size="14.00">118</text>
</g>
<!-- 117&#45;&gt;118 -->
<g id="edge6" class="edge">
<title>117&#45;&gt;118</title>
<path fill="none" stroke="black" d="M212,-187.7C212,-174.72 212,-156.66 212,-141.56"/>
<polygon fill="black" stroke="black" points="215.5,-141.74 212,-131.74 208.5,-141.74 215.5,-141.74"/>
<text text-anchor="start" x="216.5" y="-156.2" font-family="Courier New" font-weight="bold" font-size="12.00" fill="blue">SIGNAL(WIP3,)</text>
</g>
<!-- 119 -->
<g id="node9" class="node">
<title>119</title>
<ellipse fill="none" stroke="black" cx="212" cy="-18" rx="27" ry="18"/>
<text text-anchor="middle" x="212" y="-13.8" font-family="Times,serif" font-size="14.00">119</text>
</g>
<!-- 118&#45;&gt;119 -->
<g id="edge7" class="edge">
<title>118&#45;&gt;119</title>
<path fill="none" stroke="black" d="M212,-93.7C212,-80.72 212,-62.66 212,-47.56"/>
<polygon fill="black" stroke="black" points="215.5,-47.74 212,-37.74 208.5,-47.74 215.5,-47.74"/>
<text text-anchor="start" x="216" y="-62.2" font-family="Courier New" font-weight="bold" font-size="12.00" fill="orange">GRAB(0,0)</text>
</g>
<!-- 119&#45;&gt;10 -->
<g id="edge8" class="edge">
<title>119&#45;&gt;10</title>
<path fill="none" stroke="black" d="M239.18,-19.78C325.86,-23 590,-38.73 590,-111 590,-865 590,-865 590,-865 590,-892.97 570.05,-918.82 552.78,-935.94"/>
<polygon fill="black" stroke="black" points="550.6,-933.19 545.72,-942.59 555.4,-938.28 550.6,-933.19"/>
<text text-anchor="start" x="594" y="-485.2" font-family="Courier New" font-weight="bold" font-size="12.00" fill="blue">SHOW(0,0)</text>
</g>
<!-- 13&#45;&gt;119 -->
<g id="edge10" class="edge">
<title>13&#45;&gt;119</title>
<path fill="none" stroke="black" d="M148.04,-673.02C98.95,-667.8 0,-649.07 0,-583 0,-583 0,-583 0,-111 0,-36.18 112.49,-21.55 173.59,-19.12"/>
<polygon fill="black" stroke="black" points="173.31,-22.63 183.21,-18.83 173.11,-15.63 173.31,-22.63"/>
<text text-anchor="start" x="4" y="-344.2" font-family="Courier New" font-weight="bold" font-size="12.00" fill="orange">GRAB(0,0)</text>
</g>
<!-- 14 -->
<g id="node11" class="node">
<title>14</title>
<ellipse fill="none" stroke="black" cx="175" cy="-582" rx="27" ry="18"/>
<text text-anchor="middle" x="175" y="-577.8" font-family="Times,serif" font-size="14.00">14</text>
</g>
<!-- 13&#45;&gt;14 -->
<g id="edge11" class="edge">
<title>13&#45;&gt;14</title>
<path fill="none" stroke="black" d="M175,-657.7C175,-644.72 175,-626.66 175,-611.56"/>
<polygon fill="black" stroke="black" points="178.5,-611.74 175,-601.74 171.5,-611.74 178.5,-611.74"/>
<text text-anchor="start" x="179" y="-626.2" font-family="Courier New" font-weight="bold" font-size="12.00" fill="orange">WAIT(0,0)</text>
</g>
<!-- 15 -->
<g id="node12" class="node">
<title>15</title>
<ellipse fill="none" stroke="black" cx="175" cy="-488" rx="27" ry="18"/>
<text text-anchor="middle" x="175" y="-483.8" font-family="Times,serif" font-size="14.00">15</text>
</g>
<!-- 14&#45;&gt;15 -->
<g id="edge12" class="edge">
<title>14&#45;&gt;15</title>
<path fill="none" stroke="black" d="M175,-563.7C175,-550.72 175,-532.66 175,-517.56"/>
<polygon fill="black" stroke="black" points="178.5,-517.74 175,-507.74 171.5,-517.74 178.5,-517.74"/>
<text text-anchor="start" x="179.5" y="-532.2" font-family="Courier New" font-weight="bold" font-size="12.00" fill="blue">ADDI(WOBJECT,IDD_SPELL01&#45;IDD_FISHASH1)</text>
</g>
<!-- 15&#45;&gt;115 -->
<g id="edge13" class="edge">
<title>15&#45;&gt;115</title>
<path fill="none" stroke="black" d="M148.09,-485.52C98.71,-481.83 1.54,-469.46 34,-430 51.34,-408.92 126.78,-400.34 173.71,-397"/>
<polygon fill="black" stroke="black" points="173.72,-400.51 183.47,-396.36 173.26,-393.52 173.72,-400.51"/>
<text text-anchor="start" x="38" y="-438.2" font-family="Courier New" font-weight="bold" font-size="12.00" fill="blue">ADDI(WOBJECT,IDD_SPELx01&#45;IDD_SPELL01)</text>
</g>
<!-- 15&#45;&gt;115 -->
<g id="edge14" class="edge">
<title>15&#45;&gt;115</title>
<path fill="none" stroke="black" d="M201.49,-483.84C236.46,-479.06 295.1,-468.74 308,-452 327.22,-427.07 283.41,-410.83 248.81,-402.29"/>
<polygon fill="black" stroke="black" points="250,-398.97 239.47,-400.12 248.42,-405.79 250,-398.97"/>
<text text-anchor="start" x="317.5" y="-438.2" font-family="Courier New" font-weight="bold" font-size="12.00" fill="blue">NOTSTATE(M12_SPRING_PRESENT,WIP3)</text>
</g>
</g>
</svg>
