<?xml version="1.0" encoding="UTF-8" standalone="no"?>
<!DOCTYPE svg PUBLIC "-//W3C//DTD SVG 1.1//EN"
 "http://www.w3.org/Graphics/SVG/1.1/DTD/svg11.dtd">
<!-- Generated by graphviz version 7.1.0 (20230121.1956)
 -->
<!-- Pages: 1 -->
<svg width="599pt" height="1033pt"
 viewBox="0.00 0.00 598.52 1032.80" xmlns="http://www.w3.org/2000/svg" xmlns:xlink="http://www.w3.org/1999/xlink">
<g id="graph0" class="graph" transform="scale(1 1) rotate(0) translate(4 1028.8)">
<polygon fill="white" stroke="none" points="-4,4 -4,-1028.8 594.52,-1028.8 594.52,4 -4,4"/>
<!-- M12_ASHSHELF_0 -->
<g id="node1" class="node">
<title>M12_ASHSHELF_0</title>
<polygon fill="none" stroke="black" points="381.88,-988.3 381.88,-1024.3 516.12,-1024.3 516.12,-988.3 381.88,-988.3"/>
<text text-anchor="middle" x="449" y="-1002.1" font-family="Times,serif" font-size="14.00">M12_ASHSHELF_0</text>
</g>
<!-- M12_ASHSHELF_10 -->
<g id="node2" class="node">
<title>M12_ASHSHELF_10</title>
<polygon fill="none" stroke="black" points="378.38,-898.5 378.38,-934.5 519.62,-934.5 519.62,-898.5 378.38,-898.5"/>
<text text-anchor="middle" x="449" y="-912.3" font-family="Times,serif" font-size="14.00">M12_ASHSHELF_10</text>
</g>
<!-- M12_ASHSHELF_0&#45;&gt;M12_ASHSHELF_10 -->
<g id="edge1" class="edge">
<title>M12_ASHSHELF_0&#45;&gt;M12_ASHSHELF_10</title>
<path fill="none" stroke="green" d="M449,-988.37C449,-976.22 449,-959.58 449,-945.47"/>
<polygon fill="green" stroke="green" points="452.5,-945.89 449,-935.89 445.5,-945.89 452.5,-945.89"/>
<text text-anchor="start" x="449" y="-958.2" font-family="Times,serif" font-size="14.00" fill="green"> </text>
<text text-anchor="start" x="452.5" y="-958.2" font-family="Courier New" font-size="10.00" fill="green">C_ACCEPT(0,IDC_FISHASH)</text>
</g>
<!-- M12_ASHSHELF_11 -->
<g id="node3" class="node">
<title>M12_ASHSHELF_11</title>
<polygon fill="none" stroke="black" points="327.38,-808.7 327.38,-844.7 468.62,-844.7 468.62,-808.7 327.38,-808.7"/>
<text text-anchor="middle" x="398" y="-822.5" font-family="Times,serif" font-size="14.00">M12_ASHSHELF_11</text>
</g>
<!-- M12_ASHSHELF_10&#45;&gt;M12_ASHSHELF_11 -->
<g id="edge2" class="edge">
<title>M12_ASHSHELF_10&#45;&gt;M12_ASHSHELF_11</title>
<path fill="none" stroke="red" d="M438.61,-898.59C435.04,-892.73 431.06,-886.1 427.49,-880 422.61,-871.65 417.39,-862.48 412.72,-854.18"/>
<polygon fill="red" stroke="red" points="415.85,-852.6 407.91,-845.58 409.74,-856.02 415.85,-852.6"/>
<text text-anchor="start" x="427" y="-868.4" font-family="Times,serif" font-size="14.00" fill="red"> </text>
<text text-anchor="start" x="430.5" y="-868.4" font-family="Courier New" font-size="10.00" fill="red">DROP(0,0)</text>
</g>
<!-- M12_ASHSHELF_12 -->
<g id="node4" class="node">
<title>M12_ASHSHELF_12</title>
<polygon fill="none" stroke="black" points="271.38,-718.9 271.38,-754.9 412.62,-754.9 412.62,-718.9 271.38,-718.9"/>
<text text-anchor="middle" x="342" y="-732.7" font-family="Times,serif" font-size="14.00">M12_ASHSHELF_12</text>
</g>
<!-- M12_ASHSHELF_11&#45;&gt;M12_ASHSHELF_12 -->
<g id="edge3" class="edge">
<title>M12_ASHSHELF_11&#45;&gt;M12_ASHSHELF_12</title>
<path fill="none" stroke="green" d="M387.2,-808.77C379.15,-796.14 367.99,-778.64 358.77,-764.19"/>
<polygon fill="green" stroke="green" points="361.91,-762.6 353.58,-756.05 356,-766.37 361.91,-762.6"/>
<text text-anchor="start" x="375" y="-778.6" font-family="Times,serif" font-size="14.00" fill="green"> </text>
<text text-anchor="start" x="378.5" y="-778.6" font-family="Courier New" font-size="10.00" fill="green">SHOW(WOBJECT,)</text>
</g>
<!-- M12_ASHSHELF_13 -->
<g id="node5" class="node">
<title>M12_ASHSHELF_13</title>
<polygon fill="none" stroke="black" points="105.38,-629.1 105.38,-665.1 246.62,-665.1 246.62,-629.1 105.38,-629.1"/>
<text text-anchor="middle" x="176" y="-642.9" font-family="Times,serif" font-size="14.00">M12_ASHSHELF_13</text>
</g>
<!-- M12_ASHSHELF_12&#45;&gt;M12_ASHSHELF_13 -->
<g id="edge4" class="edge">
<title>M12_ASHSHELF_12&#45;&gt;M12_ASHSHELF_13</title>
<path fill="none" stroke="green" d="M309.99,-718.97C283.81,-705.12 246.58,-685.43 218.01,-670.32"/>
<polygon fill="green" stroke="green" points="219.72,-667.27 209.25,-665.68 216.45,-673.45 219.72,-667.27"/>
<text text-anchor="start" x="273" y="-688.8" font-family="Times,serif" font-size="14.00" fill="green"> </text>
<text text-anchor="start" x="276.5" y="-688.8" font-family="Courier New" font-size="10.00" fill="green">SIGNAL(WIP1,)</text>
</g>
<!-- M12_ASHSHELF_119 -->
<g id="node6" class="node">
<title>M12_ASHSHELF_119</title>
<polygon fill="none" stroke="black" points="117.88,-0.5 117.88,-36.5 266.12,-36.5 266.12,-0.5 117.88,-0.5"/>
<text text-anchor="middle" x="192" y="-14.3" font-family="Times,serif" font-size="14.00">M12_ASHSHELF_119</text>
</g>
<!-- M12_ASHSHELF_13&#45;&gt;M12_ASHSHELF_119 -->
<g id="edge5" class="edge">
<title>M12_ASHSHELF_13&#45;&gt;M12_ASHSHELF_119</title>
<path fill="none" stroke="red" d="M105.43,-638.82C56.46,-629.4 0,-607.81 0,-558.3 0,-558.3 0,-558.3 0,-107.3 0,-56.85 55.51,-35.27 106.84,-26.1"/>
<polygon fill="red" stroke="red" points="107.24,-29.58 116.55,-24.51 106.12,-22.67 107.24,-29.58"/>
<text text-anchor="start" x="0" y="-329.6" font-family="Times,serif" font-size="14.00" fill="red"> </text>
<text text-anchor="start" x="3.5" y="-329.6" font-family="Courier New" font-size="10.00" fill="red">GRAB(0,0)</text>
</g>
<!-- M12_ASHSHELF_14 -->
<g id="node7" class="node">
<title>M12_ASHSHELF_14</title>
<polygon fill="none" stroke="black" points="105.38,-539.3 105.38,-575.3 246.62,-575.3 246.62,-539.3 105.38,-539.3"/>
<text text-anchor="middle" x="176" y="-553.1" font-family="Times,serif" font-size="14.00">M12_ASHSHELF_14</text>
</g>
<!-- M12_ASHSHELF_13&#45;&gt;M12_ASHSHELF_14 -->
<g id="edge6" class="edge">
<title>M12_ASHSHELF_13&#45;&gt;M12_ASHSHELF_14</title>
<path fill="none" stroke="red" d="M176,-629.17C176,-617.02 176,-600.38 176,-586.27"/>
<polygon fill="red" stroke="red" points="179.5,-586.69 176,-576.69 172.5,-586.69 179.5,-586.69"/>
<text text-anchor="start" x="176" y="-599" font-family="Times,serif" font-size="14.00" fill="red"> </text>
<text text-anchor="start" x="179.5" y="-599" font-family="Courier New" font-size="10.00" fill="red">WAIT(0,0)</text>
</g>
<!-- M12_ASHSHELF_119&#45;&gt;M12_ASHSHELF_10 -->
<g id="edge14" class="edge">
<title>M12_ASHSHELF_119&#45;&gt;M12_ASHSHELF_10</title>
<path fill="none" stroke="green" d="M265.92,-25.87C356.77,-35.78 499,-59 499,-107.3 499,-827.7 499,-827.7 499,-827.7 499,-851.76 497.1,-859.2 485,-880 482.89,-883.63 480.31,-887.14 477.51,-890.45"/>
<polygon fill="green" stroke="green" points="475.1,-887.9 470.81,-897.59 480.2,-892.7 475.1,-887.9"/>
<text text-anchor="start" x="499" y="-464.3" font-family="Times,serif" font-size="14.00" fill="green"> </text>
<text text-anchor="start" x="502.5" y="-464.3" font-family="Courier New" font-size="10.00" fill="green">SHOW(0,0)</text>
</g>
<!-- M12_ASHSHELF_15 -->
<g id="node8" class="node">
<title>M12_ASHSHELF_15</title>
<polygon fill="none" stroke="black" points="105.38,-449.5 105.38,-485.5 246.62,-485.5 246.62,-449.5 105.38,-449.5"/>
<text text-anchor="middle" x="176" y="-463.3" font-family="Times,serif" font-size="14.00">M12_ASHSHELF_15</text>
</g>
<!-- M12_ASHSHELF_14&#45;&gt;M12_ASHSHELF_15 -->
<g id="edge7" class="edge">
<title>M12_ASHSHELF_14&#45;&gt;M12_ASHSHELF_15</title>
<path fill="none" stroke="green" d="M176,-539.37C176,-527.22 176,-510.58 176,-496.47"/>
<polygon fill="green" stroke="green" points="179.5,-496.89 176,-486.89 172.5,-496.89 179.5,-496.89"/>
<text text-anchor="start" x="176" y="-509.2" font-family="Times,serif" font-size="14.00" fill="green"> </text>
<text text-anchor="start" x="179.5" y="-509.2" font-family="Courier New" font-size="10.00" fill="green">ADDI(WOBJECT,IDD_SPELL01&#45;IDD_FISHASH1)</text>
</g>
<!-- M12_ASHSHELF_115 -->
<g id="node9" class="node">
<title>M12_ASHSHELF_115</title>
<polygon fill="none" stroke="black" points="117.88,-359.7 117.88,-395.7 266.12,-395.7 266.12,-359.7 117.88,-359.7"/>
<text text-anchor="middle" x="192" y="-373.5" font-family="Times,serif" font-size="14.00">M12_ASHSHELF_115</text>
</g>
<!-- M12_ASHSHELF_15&#45;&gt;M12_ASHSHELF_115 -->
<g id="edge8" class="edge">
<title>M12_ASHSHELF_15&#45;&gt;M12_ASHSHELF_115</title>
<path fill="none" stroke="green" d="M105.39,-462.2C58.96,-456.61 10.82,-443.76 34.46,-414.2 44.18,-402.06 75.05,-393.77 106.92,-388.28"/>
<polygon fill="green" stroke="green" points="107.39,-391.75 116.71,-386.7 106.27,-384.84 107.39,-391.75"/>
<text text-anchor="start" x="35" y="-419.4" font-family="Times,serif" font-size="14.00" fill="green"> </text>
<text text-anchor="start" x="38.5" y="-419.4" font-family="Courier New" font-size="10.00" fill="green">ADDI(WOBJECT,IDD_SPELx01&#45;IDD_SPELL01)</text>
</g>
<!-- M12_ASHSHELF_15&#45;&gt;M12_ASHSHELF_115 -->
<g id="edge9" class="edge">
<title>M12_ASHSHELF_15&#45;&gt;M12_ASHSHELF_115</title>
<path fill="none" stroke="green" d="M239.5,-449.62C247.59,-444.87 254.84,-438.79 260,-431 267.61,-419.53 260.86,-409.52 249.12,-401.42"/>
<polygon fill="green" stroke="green" points="251.02,-398.47 240.63,-396.37 247.44,-404.49 251.02,-398.47"/>
<text text-anchor="start" x="263" y="-419.4" font-family="Times,serif" font-size="14.00" fill="green"> </text>
<text text-anchor="start" x="266.5" y="-419.4" font-family="Courier New" font-size="10.00" fill="green">NOTSTATE(M12_SPRING_PRESENT,WIP3)</text>
</g>
<!-- M12_ASHSHELF_116 -->
<g id="node10" class="node">
<title>M12_ASHSHELF_116</title>
<polygon fill="none" stroke="black" points="117.88,-269.9 117.88,-305.9 266.12,-305.9 266.12,-269.9 117.88,-269.9"/>
<text text-anchor="middle" x="192" y="-283.7" font-family="Times,serif" font-size="14.00">M12_ASHSHELF_116</text>
</g>
<!-- M12_ASHSHELF_115&#45;&gt;M12_ASHSHELF_116 -->
<g id="edge10" class="edge">
<title>M12_ASHSHELF_115&#45;&gt;M12_ASHSHELF_116</title>
<path fill="none" stroke="green" d="M192,-359.77C192,-347.62 192,-330.98 192,-316.87"/>
<polygon fill="green" stroke="green" points="195.5,-317.29 192,-307.29 188.5,-317.29 195.5,-317.29"/>
<text text-anchor="start" x="192" y="-329.6" font-family="Times,serif" font-size="14.00" fill="green"> </text>
<text text-anchor="start" x="195.5" y="-329.6" font-family="Courier New" font-size="10.00" fill="green">ASHOW(WOBJECT,)</text>
</g>
<!-- M12_ASHSHELF_117 -->
<g id="node11" class="node">
<title>M12_ASHSHELF_117</title>
<polygon fill="none" stroke="black" points="117.88,-180.1 117.88,-216.1 266.12,-216.1 266.12,-180.1 117.88,-180.1"/>
<text text-anchor="middle" x="192" y="-193.9" font-family="Times,serif" font-size="14.00">M12_ASHSHELF_117</text>
</g>
<!-- M12_ASHSHELF_116&#45;&gt;M12_ASHSHELF_117 -->
<g id="edge11" class="edge">
<title>M12_ASHSHELF_116&#45;&gt;M12_ASHSHELF_117</title>
<path fill="none" stroke="green" d="M192,-269.97C192,-257.82 192,-241.18 192,-227.07"/>
<polygon fill="green" stroke="green" points="195.5,-227.49 192,-217.49 188.5,-227.49 195.5,-227.49"/>
<text text-anchor="start" x="192" y="-239.8" font-family="Times,serif" font-size="14.00" fill="green"> </text>
<text text-anchor="start" x="195.5" y="-239.8" font-family="Courier New" font-size="10.00" fill="green">SIGNAL(WIP2,)</text>
</g>
<!-- M12_ASHSHELF_118 -->
<g id="node12" class="node">
<title>M12_ASHSHELF_118</title>
<polygon fill="none" stroke="black" points="117.88,-90.3 117.88,-126.3 266.12,-126.3 266.12,-90.3 117.88,-90.3"/>
<text text-anchor="middle" x="192" y="-104.1" font-family="Times,serif" font-size="14.00">M12_ASHSHELF_118</text>
</g>
<!-- M12_ASHSHELF_117&#45;&gt;M12_ASHSHELF_118 -->
<g id="edge12" class="edge">
<title>M12_ASHSHELF_117&#45;&gt;M12_ASHSHELF_118</title>
<path fill="none" stroke="green" d="M192,-180.17C192,-168.02 192,-151.38 192,-137.27"/>
<polygon fill="green" stroke="green" points="195.5,-137.69 192,-127.69 188.5,-137.69 195.5,-137.69"/>
<text text-anchor="start" x="192" y="-150" font-family="Times,serif" font-size="14.00" fill="green"> </text>
<text text-anchor="start" x="195.5" y="-150" font-family="Courier New" font-size="10.00" fill="green">SIGNAL(WIP3,)</text>
</g>
<!-- M12_ASHSHELF_118&#45;&gt;M12_ASHSHELF_119 -->
<g id="edge13" class="edge">
<title>M12_ASHSHELF_118&#45;&gt;M12_ASHSHELF_119</title>
<path fill="none" stroke="red" d="M192,-90.37C192,-78.22 192,-61.58 192,-47.47"/>
<polygon fill="red" stroke="red" points="195.5,-47.89 192,-37.89 188.5,-47.89 195.5,-47.89"/>
<text text-anchor="start" x="192" y="-60.2" font-family="Times,serif" font-size="14.00" fill="red"> </text>
<text text-anchor="start" x="195.5" y="-60.2" font-family="Courier New" font-size="10.00" fill="red">GRAB(0,0)</text>
</g>
</g>
</svg>
