<?xml version="1.0" encoding="UTF-8" standalone="no"?>
<!DOCTYPE svg PUBLIC "-//W3C//DTD SVG 1.1//EN"
 "http://www.w3.org/Graphics/SVG/1.1/DTD/svg11.dtd">
<!-- Generated by graphviz version 7.1.0 (20230121.1956)
 -->
<!-- Pages: 1 -->
<svg width="649pt" height="1256pt"
 viewBox="0.00 0.00 649.00 1256.00" xmlns="http://www.w3.org/2000/svg" xmlns:xlink="http://www.w3.org/1999/xlink">
<g id="graph0" class="graph" transform="scale(1 1) rotate(0) translate(4 1252)">
<polygon fill="white" stroke="none" points="-4,4 -4,-1252 645,-1252 645,4 -4,4"/>
<!-- 0 -->
<g id="node1" class="node">
<title>0</title>
<ellipse fill="none" stroke="black" cx="323" cy="-1230" rx="27" ry="18"/>
<text text-anchor="middle" x="323" y="-1225.8" font-family="Times,serif" font-size="14.00">0</text>
</g>
<!-- 30 -->
<g id="node2" class="node">
<title>30</title>
<ellipse fill="none" stroke="black" cx="246" cy="-570" rx="27" ry="18"/>
<text text-anchor="middle" x="246" y="-565.8" font-family="Times,serif" font-size="14.00">30</text>
</g>
<!-- 0&#45;&gt;30 -->
<g id="edge1" class="edge">
<title>0&#45;&gt;30</title>
<path fill="none" stroke="black" d="M298.48,-1221.66C265.25,-1210.01 210,-1183.89 210,-1139 210,-1139 210,-1139 210,-661 210,-638.14 220.13,-614.21 229.65,-596.77"/>
<polygon fill="black" stroke="black" points="232.66,-598.54 234.64,-588.13 226.6,-595.04 232.66,-598.54"/>
<text text-anchor="start" x="214" y="-906" font-family="Courier New" font-weight="bold" font-size="10.00" fill="orange">DROP(0,0)</text>
</g>
<!-- 11 -->
<g id="node3" class="node">
<title>11</title>
<ellipse fill="none" stroke="black" cx="265" cy="-1138" rx="27" ry="18"/>
<text text-anchor="middle" x="265" y="-1133.8" font-family="Times,serif" font-size="14.00">11</text>
</g>
<!-- 0&#45;&gt;11 -->
<g id="edge2" class="edge">
<title>0&#45;&gt;11</title>
<path fill="none" stroke="black" d="M298.96,-1221.07C286.45,-1215.58 272.28,-1206.9 265,-1194 260.5,-1186.02 259.37,-1176.3 259.72,-1167.26"/>
<polygon fill="black" stroke="black" points="263.18,-1167.78 260.72,-1157.48 256.22,-1167.07 263.18,-1167.78"/>
<text text-anchor="start" x="269" y="-1182" font-family="Courier New" font-weight="bold" font-size="10.00" fill="orange">WAIT(0,SIG_OPEN)</text>
</g>
<!-- 70 -->
<g id="node4" class="node">
<title>70</title>
<ellipse fill="none" stroke="black" cx="70" cy="-1138" rx="27" ry="18"/>
<text text-anchor="middle" x="70" y="-1133.8" font-family="Times,serif" font-size="14.00">70</text>
</g>
<!-- 0&#45;&gt;70 -->
<g id="edge3" class="edge">
<title>0&#45;&gt;70</title>
<path fill="none" stroke="black" d="M296.08,-1227.84C243.42,-1225.09 129.21,-1216.62 98,-1194 88.83,-1187.35 82.45,-1176.81 78.13,-1166.73"/>
<polygon fill="black" stroke="black" points="81.5,-1165.75 74.74,-1157.59 74.94,-1168.18 81.5,-1165.75"/>
<text text-anchor="start" x="102" y="-1182" font-family="Courier New" font-weight="bold" font-size="10.00" fill="orange">WAIT(0,SIG_SET)</text>
</g>
<!-- 31 -->
<g id="node11" class="node">
<title>31</title>
<ellipse fill="none" stroke="black" cx="246" cy="-478" rx="27" ry="18"/>
<text text-anchor="middle" x="246" y="-473.8" font-family="Times,serif" font-size="14.00">31</text>
</g>
<!-- 30&#45;&gt;31 -->
<g id="edge13" class="edge">
<title>30&#45;&gt;31</title>
<path fill="none" stroke="black" d="M246,-551.65C246,-539.2 246,-522.14 246,-507.68"/>
<polygon fill="black" stroke="black" points="249.5,-507.81 246,-497.81 242.5,-507.81 249.5,-507.81"/>
<text text-anchor="start" x="250" y="-522" font-family="Courier New" font-weight="bold" font-size="10.00" fill="blue">CLEAR(BFRAME,)</text>
</g>
<!-- 12 -->
<g id="node5" class="node">
<title>12</title>
<ellipse fill="none" stroke="black" cx="265" cy="-1046" rx="27" ry="18"/>
<text text-anchor="middle" x="265" y="-1041.8" font-family="Times,serif" font-size="14.00">12</text>
</g>
<!-- 11&#45;&gt;12 -->
<g id="edge4" class="edge">
<title>11&#45;&gt;12</title>
<path fill="none" stroke="black" d="M253.77,-1121.38C250.24,-1115.58 246.8,-1108.76 245,-1102 242.72,-1093.41 242.72,-1090.59 245,-1082 245.84,-1078.83 247.05,-1075.65 248.45,-1072.56"/>
<polygon fill="black" stroke="black" points="251.43,-1074.42 253.06,-1063.95 245.26,-1071.12 251.43,-1074.42"/>
<text text-anchor="start" x="249" y="-1090" font-family="Courier New" font-weight="bold" font-size="10.00" fill="blue">MOV(BFRAME,WTEMP1)</text>
</g>
<!-- 71 -->
<g id="node17" class="node">
<title>71</title>
<ellipse fill="none" stroke="black" cx="28" cy="-1046" rx="27" ry="18"/>
<text text-anchor="middle" x="28" y="-1041.8" font-family="Times,serif" font-size="14.00">71</text>
</g>
<!-- 70&#45;&gt;71 -->
<g id="edge21" class="edge">
<title>70&#45;&gt;71</title>
<path fill="none" stroke="black" d="M62.3,-1120.49C56.24,-1107.51 47.67,-1089.14 40.61,-1074.02"/>
<polygon fill="black" stroke="black" points="43.84,-1072.66 36.44,-1065.08 37.49,-1075.62 43.84,-1072.66"/>
<text text-anchor="start" x="57" y="-1090" font-family="Courier New" font-weight="bold" font-size="10.00" fill="blue">MOV(WOBJECT,WTEMP1)</text>
</g>
<!-- 13 -->
<g id="node6" class="node">
<title>13</title>
<ellipse fill="none" stroke="black" cx="333" cy="-954" rx="27" ry="18"/>
<text text-anchor="middle" x="333" y="-949.8" font-family="Times,serif" font-size="14.00">13</text>
</g>
<!-- 12&#45;&gt;13 -->
<g id="edge5" class="edge">
<title>12&#45;&gt;13</title>
<path fill="none" stroke="black" d="M260.63,-1027.89C258.67,-1016.35 258.14,-1001.25 265,-990 272.17,-978.25 284.67,-970.28 297.03,-964.95"/>
<polygon fill="black" stroke="black" points="298.17,-968.26 306.29,-961.46 295.69,-961.71 298.17,-968.26"/>
<text text-anchor="start" x="269" y="-998" font-family="Courier New" font-weight="bold" font-size="10.00" fill="blue">MAP(BFRAME,WIP1)</text>
</g>
<!-- 13&#45;&gt;0 -->
<g id="edge6" class="edge">
<title>13&#45;&gt;0</title>
<path fill="none" stroke="black" d="M351.13,-967.55C358.1,-973.46 365.27,-981.17 369,-990 386.64,-1031.76 389.13,-1153.38 369,-1194 365.47,-1201.13 359.71,-1207.2 353.45,-1212.18"/>
<polygon fill="black" stroke="black" points="351.54,-1209.24 345.35,-1217.84 355.55,-1214.98 351.54,-1209.24"/>
<text text-anchor="start" x="387" y="-1090" font-family="Courier New" font-weight="bold" font-size="10.00" fill="blue">EQUALi(BFRAME,0)</text>
</g>
<!-- 14 -->
<g id="node7" class="node">
<title>14</title>
<ellipse fill="none" stroke="black" cx="333" cy="-862" rx="27" ry="18"/>
<text text-anchor="middle" x="333" y="-857.8" font-family="Times,serif" font-size="14.00">14</text>
</g>
<!-- 13&#45;&gt;14 -->
<g id="edge7" class="edge">
<title>13&#45;&gt;14</title>
<path fill="none" stroke="black" d="M333,-935.65C333,-923.2 333,-906.14 333,-891.68"/>
<polygon fill="black" stroke="black" points="336.5,-891.81 333,-881.81 329.5,-891.81 336.5,-891.81"/>
<text text-anchor="start" x="337" y="-906" font-family="Courier New" font-weight="bold" font-size="10.00" fill="blue">MOV(WSPRITE,WIP3)</text>
</g>
<!-- 15 -->
<g id="node8" class="node">
<title>15</title>
<ellipse fill="none" stroke="black" cx="333" cy="-754" rx="27" ry="18"/>
<text text-anchor="middle" x="333" y="-749.8" font-family="Times,serif" font-size="14.00">15</text>
</g>
<!-- 14&#45;&gt;15 -->
<g id="edge8" class="edge">
<title>14&#45;&gt;15</title>
<path fill="none" stroke="black" d="M333,-843.97C333,-827.76 333,-803.06 333,-783.79"/>
<polygon fill="black" stroke="black" points="336.5,-783.85 333,-773.85 329.5,-783.85 336.5,-783.85"/>
<text text-anchor="start" x="337" y="-806" font-family="Courier New" font-weight="bold" font-size="10.00" fill="blue">SUBI(BFRAME,1)</text>
</g>
<!-- 20 -->
<g id="node9" class="node">
<title>20</title>
<ellipse fill="none" stroke="black" cx="333" cy="-662" rx="27" ry="18"/>
<text text-anchor="middle" x="333" y="-657.8" font-family="Times,serif" font-size="14.00">20</text>
</g>
<!-- 15&#45;&gt;20 -->
<g id="edge9" class="edge">
<title>15&#45;&gt;20</title>
<path fill="none" stroke="black" d="M333,-735.65C333,-723.2 333,-706.14 333,-691.68"/>
<polygon fill="black" stroke="black" points="336.5,-691.81 333,-681.81 329.5,-691.81 336.5,-691.81"/>
<text text-anchor="start" x="337" y="-706" font-family="Courier New" font-weight="bold" font-size="10.00" fill="blue">SHOW(WSPRITE,)</text>
</g>
<!-- 20&#45;&gt;30 -->
<g id="edge10" class="edge">
<title>20&#45;&gt;30</title>
<path fill="none" stroke="black" d="M315.07,-648.26C306.75,-641.98 296.97,-634.04 289,-626 279.91,-616.83 270.94,-605.78 263.57,-595.99"/>
<polygon fill="black" stroke="black" points="266.41,-593.95 257.67,-587.96 260.77,-598.09 266.41,-593.95"/>
<text text-anchor="start" x="293" y="-614" font-family="Courier New" font-weight="bold" font-size="10.00" fill="orange">DROP(0,0)</text>
</g>
<!-- 21 -->
<g id="node10" class="node">
<title>21</title>
<ellipse fill="none" stroke="black" cx="438" cy="-570" rx="27" ry="18"/>
<text text-anchor="middle" x="438" y="-565.8" font-family="Times,serif" font-size="14.00">21</text>
</g>
<!-- 20&#45;&gt;21 -->
<g id="edge11" class="edge">
<title>20&#45;&gt;21</title>
<path fill="none" stroke="black" d="M343.54,-645.25C351.94,-633.49 364.49,-617.53 378,-606 386.49,-598.76 396.68,-592.18 406.23,-586.73"/>
<polygon fill="black" stroke="black" points="407.8,-589.86 414.91,-582 404.45,-583.71 407.8,-589.86"/>
<text text-anchor="start" x="382" y="-614" font-family="Courier New" font-weight="bold" font-size="10.00" fill="orange">WAIT(0,SIG_CLOSE)</text>
</g>
<!-- 21&#45;&gt;0 -->
<g id="edge12" class="edge">
<title>21&#45;&gt;0</title>
<path fill="none" stroke="black" d="M459.47,-581.43C469.52,-587.33 480.83,-595.63 488,-606 502.34,-626.75 502,-635.78 502,-661 502,-1139 502,-1139 502,-1139 502,-1201.41 414.07,-1220.55 361.46,-1226.41"/>
<polygon fill="black" stroke="black" points="361.3,-1222.91 351.69,-1227.38 361.99,-1229.88 361.3,-1222.91"/>
<text text-anchor="start" x="506" y="-906" font-family="Courier New" font-weight="bold" font-size="10.00" fill="blue">SHOW(0,0)</text>
</g>
<!-- 32 -->
<g id="node12" class="node">
<title>32</title>
<ellipse fill="none" stroke="black" cx="246" cy="-386" rx="27" ry="18"/>
<text text-anchor="middle" x="246" y="-381.8" font-family="Times,serif" font-size="14.00">32</text>
</g>
<!-- 31&#45;&gt;32 -->
<g id="edge14" class="edge">
<title>31&#45;&gt;32</title>
<path fill="none" stroke="black" d="M246,-459.65C246,-447.2 246,-430.14 246,-415.68"/>
<polygon fill="black" stroke="black" points="249.5,-415.81 246,-405.81 242.5,-415.81 249.5,-415.81"/>
<text text-anchor="start" x="250" y="-430" font-family="Courier New" font-weight="bold" font-size="10.00" fill="blue">ASHOW(WOBJECT,)</text>
</g>
<!-- 40 -->
<g id="node13" class="node">
<title>40</title>
<ellipse fill="none" stroke="black" cx="246" cy="-294" rx="27" ry="18"/>
<text text-anchor="middle" x="246" y="-289.8" font-family="Times,serif" font-size="14.00">40</text>
</g>
<!-- 32&#45;&gt;40 -->
<g id="edge15" class="edge">
<title>32&#45;&gt;40</title>
<path fill="none" stroke="black" d="M246,-367.65C246,-355.2 246,-338.14 246,-323.68"/>
<polygon fill="black" stroke="black" points="249.5,-323.81 246,-313.81 242.5,-323.81 249.5,-323.81"/>
<text text-anchor="start" x="250" y="-338" font-family="Courier New" font-weight="bold" font-size="10.00" fill="blue">SIGNAL(WIP4,SIG_CLEAR)</text>
</g>
<!-- 41 -->
<g id="node14" class="node">
<title>41</title>
<ellipse fill="none" stroke="black" cx="331" cy="-202" rx="27" ry="18"/>
<text text-anchor="middle" x="331" y="-197.8" font-family="Times,serif" font-size="14.00">41</text>
</g>
<!-- 40&#45;&gt;41 -->
<g id="edge16" class="edge">
<title>40&#45;&gt;41</title>
<path fill="none" stroke="black" d="M241.76,-275.92C239.88,-264.25 239.54,-248.98 247,-238 257.57,-222.46 276.45,-213.8 293.64,-208.99"/>
<polygon fill="black" stroke="black" points="294.21,-212.45 303.11,-206.7 292.57,-205.65 294.21,-212.45"/>
<text text-anchor="start" x="251" y="-246" font-family="Courier New" font-weight="bold" font-size="10.00" fill="orange">GRAB(0,0)</text>
</g>
<!-- 40&#45;&gt;41 -->
<g id="edge17" class="edge">
<title>40&#45;&gt;41</title>
<path fill="none" stroke="black" d="M269.56,-284.51C282.66,-278.77 298.41,-270.02 309,-258 315.72,-250.37 320.53,-240.44 323.9,-231.12"/>
<polygon fill="black" stroke="black" points="327.2,-232.27 326.88,-221.69 320.53,-230.17 327.2,-232.27"/>
<text text-anchor="start" x="324" y="-246" font-family="Courier New" font-weight="bold" font-size="10.00" fill="orange">WAIT(0,SIG_CLEAR)</text>
</g>
<!-- 42 -->
<g id="node15" class="node">
<title>42</title>
<ellipse fill="none" stroke="black" cx="433" cy="-110" rx="27" ry="18"/>
<text text-anchor="middle" x="433" y="-105.8" font-family="Times,serif" font-size="14.00">42</text>
</g>
<!-- 41&#45;&gt;42 -->
<g id="edge18" class="edge">
<title>41&#45;&gt;42</title>
<path fill="none" stroke="black" d="M346.94,-186.94C363.48,-172.34 389.56,-149.33 408.68,-132.46"/>
<polygon fill="black" stroke="black" points="410.86,-135.21 416.04,-125.97 406.23,-129.96 410.86,-135.21"/>
<text text-anchor="start" x="395" y="-154" font-family="Courier New" font-weight="bold" font-size="10.00" fill="blue">CLEAR(BFRAME,)</text>
</g>
<!-- 43 -->
<g id="node16" class="node">
<title>43</title>
<ellipse fill="none" stroke="black" cx="511" cy="-18" rx="27" ry="18"/>
<text text-anchor="middle" x="511" y="-13.8" font-family="Times,serif" font-size="14.00">43</text>
</g>
<!-- 42&#45;&gt;43 -->
<g id="edge19" class="edge">
<title>42&#45;&gt;43</title>
<path fill="none" stroke="black" d="M441.19,-92.59C447.37,-81.1 456.56,-65.75 467,-54 471.93,-48.44 477.82,-43.1 483.67,-38.33"/>
<polygon fill="black" stroke="black" points="485.7,-41.18 491.47,-32.29 481.42,-35.64 485.7,-41.18"/>
<text text-anchor="start" x="471" y="-62" font-family="Courier New" font-weight="bold" font-size="10.00" fill="blue">CLEAR(WOBJECT,)</text>
</g>
<!-- 43&#45;&gt;0 -->
<g id="edge20" class="edge">
<title>43&#45;&gt;0</title>
<path fill="none" stroke="black" d="M533.36,-28.63C544.42,-34.46 557.05,-42.93 565,-54 579.71,-74.49 579,-83.78 579,-109 579,-1139 579,-1139 579,-1139 579,-1184.74 431.7,-1212.87 360.57,-1223.79"/>
<polygon fill="black" stroke="black" points="360.3,-1220.29 350.93,-1225.23 361.34,-1227.22 360.3,-1220.29"/>
<text text-anchor="start" x="583" y="-614" font-family="Courier New" font-weight="bold" font-size="10.00" fill="blue">SHOW(0,0)</text>
</g>
<!-- 72 -->
<g id="node18" class="node">
<title>72</title>
<ellipse fill="none" stroke="black" cx="27" cy="-954" rx="27" ry="18"/>
<text text-anchor="middle" x="27" y="-949.8" font-family="Times,serif" font-size="14.00">72</text>
</g>
<!-- 71&#45;&gt;72 -->
<g id="edge22" class="edge">
<title>71&#45;&gt;72</title>
<path fill="none" stroke="black" d="M19.97,-1028.66C17.55,-1022.9 15.21,-1016.3 14,-1010 12.32,-1001.27 12.43,-998.75 14,-990 14.45,-987.51 15.06,-984.97 15.78,-982.45"/>
<polygon fill="black" stroke="black" points="19.02,-983.78 18.92,-973.18 12.39,-981.53 19.02,-983.78"/>
<text text-anchor="start" x="18" y="-998" font-family="Courier New" font-weight="bold" font-size="10.00" fill="blue">VIDEO(V_REVERSE,IDS_SPEFFECT)</text>
</g>
<!-- 73 -->
<g id="node19" class="node">
<title>73</title>
<ellipse fill="none" stroke="black" cx="41" cy="-808" rx="27" ry="18"/>
<text text-anchor="middle" x="41" y="-803.8" font-family="Times,serif" font-size="14.00">73</text>
</g>
<!-- 72&#45;&gt;73 -->
<g id="edge23" class="edge">
<title>72&#45;&gt;73</title>
<path fill="none" stroke="black" d="M28.69,-935.63C31.05,-911.3 35.38,-866.8 38.22,-837.56"/>
<polygon fill="black" stroke="black" points="41.67,-838.23 39.16,-827.94 34.71,-837.55 41.67,-838.23"/>
<text text-anchor="start" x="37" y="-906" font-family="Courier New" font-weight="bold" font-size="10.00" fill="blue">PLAYWAVE(0,SOUND_POPUP)</text>
</g>
<!-- 73&#45;&gt;40 -->
<g id="edge24" class="edge">
<title>73&#45;&gt;40</title>
<path fill="none" stroke="black" d="M42.42,-789.67C43.9,-770.09 46,-737.28 46,-709 46,-709 46,-709 46,-385 46,-315 149.14,-299.13 207.28,-295.74"/>
<polygon fill="black" stroke="black" points="207.28,-299.24 217.1,-295.27 206.94,-292.25 207.28,-299.24"/>
<text text-anchor="start" x="50" y="-568" font-family="Courier New" font-weight="bold" font-size="10.00" fill="blue">ASHOW(WOBJECT,)</text>
</g>
</g>
</svg>
