<?xml version="1.0" encoding="UTF-8" standalone="no"?>
<!DOCTYPE svg PUBLIC "-//W3C//DTD SVG 1.1//EN"
 "http://www.w3.org/Graphics/SVG/1.1/DTD/svg11.dtd">
<!-- Generated by graphviz version 7.1.0 (20230121.1956)
 -->
<!-- Title: Automaton Pages: 1 -->
<svg width="317pt" height="245pt"
 viewBox="0.00 0.00 317.00 245.00" xmlns="http://www.w3.org/2000/svg" xmlns:xlink="http://www.w3.org/1999/xlink">
<g id="graph0" class="graph" transform="scale(1 1) rotate(0) translate(4 241)">
<title>Automaton</title>
<polygon fill="white" stroke="none" points="-4,4 -4,-241 313,-241 313,4 -4,4"/>
<!-- filename -->
<g id="node1" class="node">
<title>filename</title>
<polygon fill="none" stroke="black" points="0,-184.5 0,-236.5 118,-236.5 118,-184.5 0,-184.5"/>
<polygon fill="none" stroke="black" points="11,-211.5 11,-229.5 107,-229.5 107,-211.5 11,-211.5"/>
<text text-anchor="start" x="29" y="-218.5" font-family="Courier New" font-weight="bold" font-size="10.00">M12_xMAGIC</text>
<polygon fill="none" stroke="black" points="11,-191.5 11,-209.5 107,-209.5 107,-191.5 11,-191.5"/>
<text text-anchor="start" x="14" y="-197.5" font-family="Courier New" font-size="10.00" fill="brown">start state = 0</text>
<polygon fill="none" stroke="black" points="8,-188.5 8,-232.5 110,-232.5 110,-188.5 8,-188.5"/>
</g>
<!-- 0 -->
<g id="node2" class="node">
<title>0</title>
<polyline fill="none" stroke="darkred" points="156,-199.5 170,-199.5"/>
<text text-anchor="start" x="159" y="-206.9" font-family="Courier New" font-weight="bold" font-size="14.00">0</text>
<path fill="none" stroke="darkred" d="M159.67,-196.5C159.67,-196.5 166.33,-196.5 166.33,-196.5 169.67,-196.5 173,-199.83 173,-203.17 173,-203.17 173,-217.83 173,-217.83 173,-221.17 169.67,-224.5 166.33,-224.5 166.33,-224.5 159.67,-224.5 159.67,-224.5 156.33,-224.5 153,-221.17 153,-217.83 153,-217.83 153,-203.17 153,-203.17 153,-199.83 156.33,-196.5 159.67,-196.5"/>
</g>
<!-- 10 -->
<g id="node3" class="node">
<title>10</title>
<polyline fill="none" stroke="darkred" points="80,-99 102,-99"/>
<text text-anchor="start" x="83" y="-106.4" font-family="Courier New" font-weight="bold" font-size="14.00">10</text>
<path fill="none" stroke="darkred" d="M86.33,-96C86.33,-96 95.67,-96 95.67,-96 100.33,-96 105,-100.67 105,-105.33 105,-105.33 105,-114.67 105,-114.67 105,-119.33 100.33,-124 95.67,-124 95.67,-124 86.33,-124 86.33,-124 81.67,-124 77,-119.33 77,-114.67 77,-114.67 77,-105.33 77,-105.33 77,-100.67 81.67,-96 86.33,-96"/>
</g>
<!-- 0&#45;&gt;10 -->
<g id="edge1" class="edge">
<title>0&#45;&gt;10</title>
<path fill="none" stroke="black" d="M140.53,-192.58C131.74,-185.15 122.09,-175.86 115,-166 109.04,-157.7 104.12,-147.68 100.32,-138.48"/>
<polygon fill="black" stroke="black" points="103.63,-137.34 96.79,-129.26 97.09,-139.85 103.63,-137.34"/>
<text text-anchor="start" x="119" y="-154" font-family="Courier New" font-weight="bold" font-size="10.00" fill="orange">WAIT(,SIG_SHOW)</text>
</g>
<!-- 11 -->
<g id="node4" class="node">
<title>11</title>
<polyline fill="none" stroke="darkred" points="144,-7 166,-7"/>
<text text-anchor="start" x="147" y="-14.4" font-family="Courier New" font-weight="bold" font-size="14.00">11</text>
<path fill="none" stroke="darkred" d="M150.33,-4C150.33,-4 159.67,-4 159.67,-4 164.33,-4 169,-8.67 169,-13.33 169,-13.33 169,-22.67 169,-22.67 169,-27.33 164.33,-32 159.67,-32 159.67,-32 150.33,-32 150.33,-32 145.67,-32 141,-27.33 141,-22.67 141,-22.67 141,-13.33 141,-13.33 141,-8.67 145.67,-4 150.33,-4"/>
</g>
<!-- 10&#45;&gt;11 -->
<g id="edge2" class="edge">
<title>10&#45;&gt;11</title>
<path fill="none" stroke="black" d="M84.07,-92.4C80.39,-80.82 77.93,-65.44 85,-54 92.37,-42.08 105.16,-34.08 117.81,-28.79"/>
<polygon fill="black" stroke="black" points="118.67,-32.2 126.86,-25.46 116.26,-25.62 118.67,-32.2"/>
<text text-anchor="start" x="89" y="-62" font-family="Courier New" font-weight="bold" font-size="10.00" fill="blue">VIDEO(,IDS_SPEFFECT)</text>
</g>
<!-- 11&#45;&gt;0 -->
<g id="edge3" class="edge">
<title>11&#45;&gt;0</title>
<path fill="none" stroke="black" d="M181.75,-28.15C193.54,-33.68 206.24,-42.02 213,-54 237.47,-97.35 233.63,-120.7 213,-166 209.62,-173.41 204.29,-180.06 198.34,-185.78"/>
<polygon fill="black" stroke="black" points="196.39,-182.84 191.11,-192.03 200.97,-188.14 196.39,-182.84"/>
<text text-anchor="start" x="233" y="-108" font-family="Courier New" font-weight="bold" font-size="10.00" fill="blue">Z_EPSILON(,)</text>
</g>
</g>
</svg>
