<?xml version="1.0" encoding="UTF-8" standalone="no"?>
<!DOCTYPE svg PUBLIC "-//W3C//DTD SVG 1.1//EN"
 "http://www.w3.org/Graphics/SVG/1.1/DTD/svg11.dtd">
<!-- Generated by graphviz version 7.1.0 (20230121.1956)
 -->
<!-- Title: Automaton Pages: 1 -->
<svg width="708pt" height="100pt"
 viewBox="0.00 0.00 708.00 100.00" xmlns="http://www.w3.org/2000/svg" xmlns:xlink="http://www.w3.org/1999/xlink">
<g id="graph0" class="graph" transform="scale(1 1) rotate(0) translate(4 96)">
<title>Automaton</title>
<polygon fill="white" stroke="none" points="-4,4 -4,-96 704,-96 704,4 -4,4"/>
<!-- filename -->
<g id="node1" class="node">
<title>filename</title>
<polygon fill="none" stroke="black" points="0,-20 0,-72 124,-72 124,-20 0,-20"/>
<polygon fill="none" stroke="black" points="11,-47 11,-65 113,-65 113,-47 11,-47"/>
<text text-anchor="start" x="14" y="-54" font-family="Courier New" font-weight="bold" font-size="10.00">M12_xCANDLELIGHT</text>
<polygon fill="none" stroke="black" points="11,-27 11,-45 113,-45 113,-27 11,-27"/>
<text text-anchor="start" x="16.99" y="-33" font-family="Courier New" font-size="10.00" fill="brown">start state = 0</text>
<polygon fill="none" stroke="black" points="8,-24 8,-68 116,-68 116,-24 8,-24"/>
</g>
<!-- 0 -->
<g id="node2" class="node">
<title>0</title>
<polyline fill="none" stroke="darkred" points="162,-35 176,-35"/>
<text text-anchor="start" x="165" y="-42.4" font-family="Courier New" font-weight="bold" font-size="14.00">0</text>
<path fill="none" stroke="darkred" d="M165.67,-32C165.67,-32 172.33,-32 172.33,-32 175.67,-32 179,-35.33 179,-38.67 179,-38.67 179,-53.33 179,-53.33 179,-56.67 175.67,-60 172.33,-60 172.33,-60 165.67,-60 165.67,-60 162.33,-60 159,-56.67 159,-53.33 159,-53.33 159,-38.67 159,-38.67 159,-35.33 162.33,-32 165.67,-32"/>
</g>
<!-- 0&#45;&gt;0 -->
<g id="edge1" class="edge">
<title>0&#45;&gt;0</title>
<path fill="none" stroke="black" d="M195.79,-49.37C205.78,-49.48 214,-48.36 214,-46 214,-44.64 211.25,-43.69 207.01,-43.15"/>
<polygon fill="black" stroke="black" points="207.46,-39.67 197.31,-42.7 207.13,-46.66 207.46,-39.67"/>
<polygon fill="none" stroke="black" points="217,-71 217,-89 535,-89 535,-71 217,-71"/>
<text text-anchor="start" x="330.99" y="-78" font-family="Courier New" font-weight="bold" font-size="10.00" fill="orange">WAIT(,SIG_SHOW)</text>
<polygon fill="none" stroke="black" points="217,-3 217,-69 535,-69 535,-3 217,-3"/>
<text text-anchor="start" x="220" y="-57" font-family="Courier New" font-size="10.00" fill="blue">MOV(WSPRITE,WIP1);</text>
<text text-anchor="start" x="220" y="-45" font-family="Courier New" font-size="10.00" fill="blue">ASHOW(WIP1);</text>
<text text-anchor="start" x="220" y="-33" font-family="Courier New" font-size="10.00" fill="blue">PLAYWAVE(SOUND_FIRE);</text>
<text text-anchor="start" x="220" y="-21" font-family="Courier New" font-size="10.00" fill="blue">SIGNAL(WIP4, SIG_SHOW); // play magic and light wick</text>
<text text-anchor="start" x="220" y="-9" font-family="Courier New" font-size="10.00" fill="blue">SIGNAL(WIP2, SIG_SHOW);</text>
<polygon fill="none" stroke="black" points="214,0 214,-92 538,-92 538,0 214,0"/>
</g>
<!-- 0&#45;&gt;0 -->
<g id="edge2" class="edge">
<title>0&#45;&gt;0</title>
<path fill="none" stroke="black" d="M195.97,-49.3C282.16,-54.82 538,-53.72 538,-46 538,-38.6 302.72,-37.28 207.4,-42.05"/>
<polygon fill="black" stroke="black" points="207.27,-38.56 197.48,-42.61 207.66,-45.54 207.27,-38.56"/>
<polygon fill="none" stroke="black" points="541,-59 541,-77 679,-77 679,-59 541,-59"/>
<text text-anchor="start" x="564.99" y="-66" font-family="Courier New" font-weight="bold" font-size="10.00" fill="orange">WAIT(,SIG_HIDE)</text>
<polygon fill="none" stroke="black" points="541,-15 541,-57 679,-57 679,-15 541,-15"/>
<text text-anchor="start" x="544" y="-45" font-family="Courier New" font-size="10.00" fill="blue">CLEAR(WSPRITE);</text>
<text text-anchor="start" x="544" y="-33" font-family="Courier New" font-size="10.00" fill="blue">ASHOW(0);</text>
<text text-anchor="start" x="544" y="-21" font-family="Courier New" font-size="10.00" fill="blue">SIGNAL(WIP3,SIG_EMPTY;</text>
<polygon fill="none" stroke="black" points="538,-12 538,-80 682,-80 682,-12 538,-12"/>
</g>
</g>
</svg>
