<?xml version="1.0" encoding="UTF-8" standalone="no"?>
<!DOCTYPE svg PUBLIC "-//W3C//DTD SVG 1.1//EN"
 "http://www.w3.org/Graphics/SVG/1.1/DTD/svg11.dtd">
<!-- Generated by graphviz version 7.1.0 (20230121.1956)
 -->
<!-- Title: Automaton Pages: 1 -->
<svg width="1134pt" height="1249pt"
 viewBox="0.00 0.00 1134.00 1249.00" xmlns="http://www.w3.org/2000/svg" xmlns:xlink="http://www.w3.org/1999/xlink">
<g id="graph0" class="graph" transform="scale(1 1) rotate(0) translate(4 1245)">
<title>Automaton</title>
<polygon fill="white" stroke="none" points="-4,4 -4,-1245 1130,-1245 1130,4 -4,4"/>
<!-- filename -->
<g id="node1" class="node">
<title>filename</title>
<polygon fill="none" stroke="black" points="0,-1096.5 0,-1240.5 364,-1240.5 364,-1096.5 0,-1096.5"/>
<polygon fill="none" stroke="black" points="11,-1215.5 11,-1233.5 353,-1233.5 353,-1215.5 11,-1215.5"/>
<text text-anchor="start" x="145.99" y="-1222.5" font-family="Courier New" font-weight="bold" font-size="10.00">M12_xING_MGR</text>
<polygon fill="none" stroke="black" points="11,-1123.5 11,-1213.5 353,-1213.5 353,-1123.5 11,-1123.5"/>
<text text-anchor="start" x="14" y="-1201.5" font-family="Courier New" font-size="10.00" fill="green">used in the temple to hold ingredients for spell making.</text>
<text text-anchor="start" x="14" y="-1189.5" font-family="Courier New" font-size="10.00" fill="green">WIP1: The scroll holder</text>
<text text-anchor="start" x="14" y="-1177.5" font-family="Courier New" font-size="10.00" fill="green">WIP2: The scroll map</text>
<text text-anchor="start" x="14" y="-1165.5" font-family="Courier New" font-size="10.00" fill="green">SIG_SHOW: A scroll was dropped</text>
<text text-anchor="start" x="14" y="-1153.5" font-family="Courier New" font-size="10.00" fill="green">SIG_HIDE: The scroll was grabbed</text>
<text text-anchor="start" x="14" y="-1141.5" font-family="Courier New" font-size="10.00" fill="green">SIG_CLOSE: The spell is cast</text>
<text text-anchor="start" x="14" y="-1129.5" font-family="Courier New" font-size="10.00" fill="green">SIG_CHECK: Check spell ingredients</text>
<polygon fill="none" stroke="black" points="11,-1103.5 11,-1121.5 353,-1121.5 353,-1103.5 11,-1103.5"/>
<text text-anchor="start" x="136.99" y="-1109.5" font-family="Courier New" font-size="10.00" fill="brown">start state = 0</text>
<polygon fill="none" stroke="black" points="8,-1100.5 8,-1236.5 356,-1236.5 356,-1100.5 8,-1100.5"/>
</g>
<!-- 0 -->
<g id="node2" class="node">
<title>0</title>
<polyline fill="none" stroke="darkred" points="402,-1157.5 416,-1157.5"/>
<text text-anchor="start" x="405" y="-1164.9" font-family="Courier New" font-weight="bold" font-size="14.00">0</text>
<path fill="none" stroke="darkred" d="M405.67,-1154.5C405.67,-1154.5 412.33,-1154.5 412.33,-1154.5 415.67,-1154.5 419,-1157.83 419,-1161.17 419,-1161.17 419,-1175.83 419,-1175.83 419,-1179.17 415.67,-1182.5 412.33,-1182.5 412.33,-1182.5 405.67,-1182.5 405.67,-1182.5 402.33,-1182.5 399,-1179.17 399,-1175.83 399,-1175.83 399,-1161.17 399,-1161.17 399,-1157.83 402.33,-1154.5 405.67,-1154.5"/>
</g>
<!-- 0&#45;&gt;0 -->
<g id="edge1" class="edge">
<title>0&#45;&gt;0</title>
<path fill="none" stroke="black" d="M435.79,-1174.77C445.78,-1174.97 454,-1172.88 454,-1168.5 454,-1165.97 451.25,-1164.2 447.01,-1163.2"/>
<polygon fill="black" stroke="black" points="447.57,-1159.73 437.3,-1162.36 446.97,-1166.71 447.57,-1159.73"/>
<polygon fill="none" stroke="black" points="457,-1187.5 457,-1205.5 661,-1205.5 661,-1187.5 457,-1187.5"/>
<text text-anchor="start" x="510.99" y="-1194.5" font-family="Courier New" font-weight="bold" font-size="10.00" fill="orange">WAIT(0,SIG_SHOW)</text>
<polygon fill="none" stroke="black" points="457,-1131.5 457,-1185.5 661,-1185.5 661,-1131.5 457,-1131.5"/>
<text text-anchor="start" x="460" y="-1173.5" font-family="Courier New" font-size="10.00" fill="blue"> &#160;&#160;&#160;&#160;&#160;&#160;&#160;SIGNAL(WIP1,SIG_SHOW);</text>
<text text-anchor="start" x="460" y="-1161.5" font-family="Courier New" font-size="10.00" fill="blue"> &#160;&#160;&#160;&#160;&#160;&#160;&#160;SIGNAL(WIP2,SIG_SHOW); &#160;&#160;</text>
<text text-anchor="start" x="460" y="-1149.5" font-family="Courier New" font-size="10.00" fill="blue"> &#160;&#160;&#160;&#160;&#160;&#160;&#160;SIGNAL(WIP3,SIG_SHOW);</text>
<text text-anchor="start" x="460" y="-1137.5" font-family="Courier New" font-size="10.00" fill="blue"> &#160;&#160;&#160;&#160;&#160;&#160;&#160;SIGNAL(WIP4,SIG_SHOW);</text>
<polygon fill="none" stroke="black" points="454,-1128.5 454,-1208.5 664,-1208.5 664,-1128.5 454,-1128.5"/>
</g>
<!-- 0&#45;&gt;0 -->
<g id="edge2" class="edge">
<title>0&#45;&gt;0</title>
<path fill="none" stroke="black" d="M435.96,-1175.59C502.77,-1184.77 664,-1182.4 664,-1168.5 664,-1155.33 519.32,-1152.51 447.28,-1160.06"/>
<polygon fill="black" stroke="black" points="446.98,-1156.57 437.46,-1161.23 447.81,-1163.52 446.98,-1156.57"/>
<polygon fill="none" stroke="black" points="667,-1187.5 667,-1205.5 871,-1205.5 871,-1187.5 667,-1187.5"/>
<text text-anchor="start" x="720.99" y="-1194.5" font-family="Courier New" font-weight="bold" font-size="10.00" fill="orange">WAIT(0,SIG_HIDE)</text>
<polygon fill="none" stroke="black" points="667,-1131.5 667,-1185.5 871,-1185.5 871,-1131.5 667,-1131.5"/>
<text text-anchor="start" x="670" y="-1173.5" font-family="Courier New" font-size="10.00" fill="blue"> &#160;&#160;&#160;&#160;&#160;&#160;&#160;SIGNAL(WIP1,SIG_HIDE);</text>
<text text-anchor="start" x="670" y="-1161.5" font-family="Courier New" font-size="10.00" fill="blue"> &#160;&#160;&#160;&#160;&#160;&#160;&#160;SIGNAL(WIP2,SIG_HIDE); &#160;&#160;</text>
<text text-anchor="start" x="670" y="-1149.5" font-family="Courier New" font-size="10.00" fill="blue"> &#160;&#160;&#160;&#160;&#160;&#160;&#160;SIGNAL(WIP3,SIG_HIDE);</text>
<text text-anchor="start" x="670" y="-1137.5" font-family="Courier New" font-size="10.00" fill="blue"> &#160;&#160;&#160;&#160;&#160;&#160;&#160;SIGNAL(WIP4,SIG_HIDE);</text>
<polygon fill="none" stroke="black" points="664,-1128.5 664,-1208.5 874,-1208.5 874,-1128.5 664,-1128.5"/>
</g>
<!-- 0&#45;&gt;0 -->
<g id="edge3" class="edge">
<title>0&#45;&gt;0</title>
<path fill="none" stroke="black" d="M435.72,-1176.58C536.41,-1193.25 874,-1190.56 874,-1168.5 874,-1147.2 559.09,-1143.96 446.85,-1158.78"/>
<polygon fill="black" stroke="black" points="446.6,-1155.28 437.21,-1160.2 447.62,-1162.2 446.6,-1155.28"/>
<polygon fill="none" stroke="black" points="877,-1199.5 877,-1217.5 1087,-1217.5 1087,-1199.5 877,-1199.5"/>
<text text-anchor="start" x="933.99" y="-1206.5" font-family="Courier New" font-weight="bold" font-size="10.00" fill="orange">WAIT(,SIG_CLOSE)</text>
<polygon fill="none" stroke="black" points="877,-1119.5 877,-1197.5 1087,-1197.5 1087,-1119.5 877,-1119.5"/>
<text text-anchor="start" x="880" y="-1185.5" font-family="Courier New" font-size="10.00" fill="blue"> &#160;&#160;&#160;&#160;&#160;&#160;&#160;SIGNAL(WIP1,SIG_CLOSE);</text>
<text text-anchor="start" x="880" y="-1173.5" font-family="Courier New" font-size="10.00" fill="blue"> &#160;&#160;&#160;&#160;&#160;&#160;&#160;SIGNAL(WIP2,SIG_CLOSE); &#160;&#160;</text>
<text text-anchor="start" x="880" y="-1161.5" font-family="Courier New" font-size="10.00" fill="blue"> &#160;&#160;&#160;&#160;&#160;&#160;&#160;SIGNAL(WIP3,SIG_CLOSE);</text>
<text text-anchor="start" x="880" y="-1149.5" font-family="Courier New" font-size="10.00" fill="blue"> &#160;&#160;&#160;&#160;&#160;&#160;&#160;SIGNAL(WIP4,SIG_CLOSE);</text>
<text text-anchor="start" x="880" y="-1137.5" font-family="Courier New" font-size="10.00" fill="blue"> &#160;&#160;&#160;&#160;&#160;&#160;&#160;ASSIGN(BPARM,0);</text>
<text text-anchor="start" x="880" y="-1125.5" font-family="Courier New" font-size="10.00" fill="blue"> &#160;&#160;&#160;&#160;&#160;&#160;&#160;ASSIGN(WPARM,0);</text>
<polygon fill="none" stroke="black" points="874,-1116.5 874,-1220.5 1090,-1220.5 1090,-1116.5 874,-1116.5"/>
</g>
<!-- 9 -->
<g id="node3" class="node">
<title>9</title>
<polyline fill="none" stroke="darkred" points="334,-1011 348,-1011"/>
<text text-anchor="start" x="337" y="-1018.4" font-family="Courier New" font-weight="bold" font-size="14.00">9</text>
<path fill="none" stroke="darkred" d="M337.67,-1008C337.67,-1008 344.33,-1008 344.33,-1008 347.67,-1008 351,-1011.33 351,-1014.67 351,-1014.67 351,-1029.33 351,-1029.33 351,-1032.67 347.67,-1036 344.33,-1036 344.33,-1036 337.67,-1036 337.67,-1036 334.33,-1036 331,-1032.67 331,-1029.33 331,-1029.33 331,-1014.67 331,-1014.67 331,-1011.33 334.33,-1008 337.67,-1008"/>
</g>
<!-- 0&#45;&gt;9 -->
<g id="edge4" class="edge">
<title>0&#45;&gt;9</title>
<path fill="none" stroke="black" d="M402.9,-1150.74C396.83,-1135.47 386.47,-1112.81 373,-1096 365.1,-1086.14 357.41,-1088.88 351,-1078 346.27,-1069.98 343.68,-1060.24 342.3,-1051.2"/>
<polygon fill="black" stroke="black" points="345.79,-1051 341.24,-1041.43 338.83,-1051.75 345.79,-1051"/>
<text text-anchor="start" x="355" y="-1066" font-family="Courier New" font-weight="bold" font-size="10.00" fill="orange">WAIT(0,SIG_CHECK)</text>
</g>
<!-- 10 -->
<g id="node4" class="node">
<title>10</title>
<polyline fill="none" stroke="darkred" points="324,-919 346,-919"/>
<text text-anchor="start" x="327" y="-926.4" font-family="Courier New" font-weight="bold" font-size="14.00">10</text>
<path fill="none" stroke="darkred" d="M330.33,-916C330.33,-916 339.67,-916 339.67,-916 344.33,-916 349,-920.67 349,-925.33 349,-925.33 349,-934.67 349,-934.67 349,-939.33 344.33,-944 339.67,-944 339.67,-944 330.33,-944 330.33,-944 325.67,-944 321,-939.33 321,-934.67 321,-934.67 321,-925.33 321,-925.33 321,-920.67 325.67,-916 330.33,-916"/>
</g>
<!-- 9&#45;&gt;10 -->
<g id="edge14" class="edge">
<title>9&#45;&gt;10</title>
<path fill="none" stroke="black" d="M339.87,-1004.07C339.03,-991.38 337.85,-973.71 336.86,-958.94"/>
<polygon fill="black" stroke="black" points="340.38,-959.11 336.22,-949.36 333.4,-959.57 340.38,-959.11"/>
<text text-anchor="start" x="342" y="-974" font-family="Courier New" font-weight="bold" font-size="10.00" fill="blue">ASSIGN(BPARM,0)</text>
</g>
<!-- 11 -->
<g id="node5" class="node">
<title>11</title>
<polyline fill="none" stroke="darkred" points="323,-803 345,-803"/>
<text text-anchor="start" x="326" y="-810.4" font-family="Courier New" font-weight="bold" font-size="14.00">11</text>
<path fill="none" stroke="darkred" d="M329.33,-800C329.33,-800 338.67,-800 338.67,-800 343.33,-800 348,-804.67 348,-809.33 348,-809.33 348,-818.67 348,-818.67 348,-823.33 343.33,-828 338.67,-828 338.67,-828 329.33,-828 329.33,-828 324.67,-828 320,-823.33 320,-818.67 320,-818.67 320,-809.33 320,-809.33 320,-804.67 324.67,-800 329.33,-800"/>
</g>
<!-- 10&#45;&gt;11 -->
<g id="edge5" class="edge">
<title>10&#45;&gt;11</title>
<path fill="none" stroke="black" d="M334.85,-912.18C334.69,-894.08 334.44,-864.98 334.25,-843.33"/>
<polygon fill="black" stroke="black" points="337.75,-843.37 334.16,-833.4 330.75,-843.43 337.75,-843.37"/>
<polygon fill="none" stroke="black" points="337,-873 337,-891 457,-891 457,-873 337,-873"/>
<text text-anchor="start" x="342.99" y="-880" font-family="Courier New" font-weight="bold" font-size="10.00" fill="blue">REF_MACHINE(WIP1,)</text>
<polygon fill="none" stroke="black" points="337,-853 337,-871 457,-871 457,-853 337,-853"/>
<text text-anchor="start" x="340" y="-859" font-family="Courier New" font-size="10.00" fill="blue">ADD(BPARM,R_WPARM);</text>
<polygon fill="none" stroke="black" points="334,-850 334,-894 460,-894 460,-850 334,-850"/>
</g>
<!-- 12 -->
<g id="node6" class="node">
<title>12</title>
<polyline fill="none" stroke="darkred" points="323,-687 345,-687"/>
<text text-anchor="start" x="326" y="-694.4" font-family="Courier New" font-weight="bold" font-size="14.00">12</text>
<path fill="none" stroke="darkred" d="M329.33,-684C329.33,-684 338.67,-684 338.67,-684 343.33,-684 348,-688.67 348,-693.33 348,-693.33 348,-702.67 348,-702.67 348,-707.33 343.33,-712 338.67,-712 338.67,-712 329.33,-712 329.33,-712 324.67,-712 320,-707.33 320,-702.67 320,-702.67 320,-693.33 320,-693.33 320,-688.67 324.67,-684 329.33,-684"/>
</g>
<!-- 11&#45;&gt;12 -->
<g id="edge6" class="edge">
<title>11&#45;&gt;12</title>
<path fill="none" stroke="black" d="M334,-796.18C334,-778.08 334,-748.98 334,-727.33"/>
<polygon fill="black" stroke="black" points="337.5,-727.4 334,-717.4 330.5,-727.4 337.5,-727.4"/>
<polygon fill="none" stroke="black" points="337,-757 337,-775 457,-775 457,-757 337,-757"/>
<text text-anchor="start" x="342.99" y="-764" font-family="Courier New" font-weight="bold" font-size="10.00" fill="blue">REF_MACHINE(WIP2,)</text>
<polygon fill="none" stroke="black" points="337,-737 337,-755 457,-755 457,-737 337,-737"/>
<text text-anchor="start" x="340" y="-743" font-family="Courier New" font-size="10.00" fill="blue">ADD(BPARM,R_WPARM);</text>
<polygon fill="none" stroke="black" points="334,-734 334,-778 460,-778 460,-734 334,-734"/>
</g>
<!-- 13 -->
<g id="node7" class="node">
<title>13</title>
<polyline fill="none" stroke="darkred" points="323,-567 345,-567"/>
<text text-anchor="start" x="326" y="-574.4" font-family="Courier New" font-weight="bold" font-size="14.00">13</text>
<path fill="none" stroke="darkred" d="M329.33,-564C329.33,-564 338.67,-564 338.67,-564 343.33,-564 348,-568.67 348,-573.33 348,-573.33 348,-582.67 348,-582.67 348,-587.33 343.33,-592 338.67,-592 338.67,-592 329.33,-592 329.33,-592 324.67,-592 320,-587.33 320,-582.67 320,-582.67 320,-573.33 320,-573.33 320,-568.67 324.67,-564 329.33,-564"/>
</g>
<!-- 12&#45;&gt;13 -->
<g id="edge7" class="edge">
<title>12&#45;&gt;13</title>
<path fill="none" stroke="black" d="M334,-680.09C334,-661.08 334,-629.89 334,-607.18"/>
<polygon fill="black" stroke="black" points="337.5,-607.39 334,-597.39 330.5,-607.39 337.5,-607.39"/>
<polygon fill="none" stroke="black" points="337,-641 337,-659 457,-659 457,-641 337,-641"/>
<text text-anchor="start" x="342.99" y="-648" font-family="Courier New" font-weight="bold" font-size="10.00" fill="blue">REF_MACHINE(WIP3,)</text>
<polygon fill="none" stroke="black" points="337,-621 337,-639 457,-639 457,-621 337,-621"/>
<text text-anchor="start" x="340" y="-627" font-family="Courier New" font-size="10.00" fill="blue">ADD(BPARM,R_WPARM);</text>
<polygon fill="none" stroke="black" points="334,-618 334,-662 460,-662 460,-618 334,-618"/>
</g>
<!-- 19 -->
<g id="node8" class="node">
<title>19</title>
<polyline fill="none" stroke="darkred" points="323,-447 345,-447"/>
<text text-anchor="start" x="326" y="-454.4" font-family="Courier New" font-weight="bold" font-size="14.00">19</text>
<path fill="none" stroke="darkred" d="M329.33,-444C329.33,-444 338.67,-444 338.67,-444 343.33,-444 348,-448.67 348,-453.33 348,-453.33 348,-462.67 348,-462.67 348,-467.33 343.33,-472 338.67,-472 338.67,-472 329.33,-472 329.33,-472 324.67,-472 320,-467.33 320,-462.67 320,-462.67 320,-453.33 320,-453.33 320,-448.67 324.67,-444 329.33,-444"/>
</g>
<!-- 13&#45;&gt;19 -->
<g id="edge8" class="edge">
<title>13&#45;&gt;19</title>
<path fill="none" stroke="black" d="M334,-560.09C334,-541.08 334,-509.89 334,-487.18"/>
<polygon fill="black" stroke="black" points="337.5,-487.39 334,-477.39 330.5,-487.39 337.5,-487.39"/>
<polygon fill="none" stroke="black" points="337,-517 337,-535 457,-535 457,-517 337,-517"/>
<text text-anchor="start" x="342.99" y="-524" font-family="Courier New" font-weight="bold" font-size="10.00" fill="blue">REF_MACHINE(WIP4,)</text>
<polygon fill="none" stroke="black" points="337,-497 337,-515 457,-515 457,-497 337,-497"/>
<text text-anchor="start" x="340" y="-503" font-family="Courier New" font-size="10.00" fill="blue">ADD(BPARM,R_WPARM);</text>
<polygon fill="none" stroke="black" points="334,-494 334,-538 460,-538 460,-494 334,-494"/>
</g>
<!-- 20 -->
<g id="node9" class="node">
<title>20</title>
<polyline fill="none" stroke="darkred" points="323,-355 345,-355"/>
<text text-anchor="start" x="326" y="-362.4" font-family="Courier New" font-weight="bold" font-size="14.00">20</text>
<path fill="none" stroke="darkred" d="M329.33,-352C329.33,-352 338.67,-352 338.67,-352 343.33,-352 348,-356.67 348,-361.33 348,-361.33 348,-370.67 348,-370.67 348,-375.33 343.33,-380 338.67,-380 338.67,-380 329.33,-380 329.33,-380 324.67,-380 320,-375.33 320,-370.67 320,-370.67 320,-361.33 320,-361.33 320,-356.67 324.67,-352 329.33,-352"/>
</g>
<!-- 19&#45;&gt;20 -->
<g id="edge9" class="edge">
<title>19&#45;&gt;20</title>
<path fill="none" stroke="black" d="M334,-440.07C334,-427.38 334,-409.71 334,-394.94"/>
<polygon fill="black" stroke="black" points="337.5,-395.37 334,-385.37 330.5,-395.37 337.5,-395.37"/>
<text text-anchor="start" x="338" y="-410" font-family="Courier New" font-weight="bold" font-size="10.00" fill="blue">ASSIGN(WPARM,0)</text>
</g>
<!-- 21 -->
<g id="node10" class="node">
<title>21</title>
<polyline fill="none" stroke="darkred" points="323,-239 345,-239"/>
<text text-anchor="start" x="326" y="-246.4" font-family="Courier New" font-weight="bold" font-size="14.00">21</text>
<path fill="none" stroke="darkred" d="M329.33,-236C329.33,-236 338.67,-236 338.67,-236 343.33,-236 348,-240.67 348,-245.33 348,-245.33 348,-254.67 348,-254.67 348,-259.33 343.33,-264 338.67,-264 338.67,-264 329.33,-264 329.33,-264 324.67,-264 320,-259.33 320,-254.67 320,-254.67 320,-245.33 320,-245.33 320,-240.67 324.67,-236 329.33,-236"/>
</g>
<!-- 20&#45;&gt;21 -->
<g id="edge10" class="edge">
<title>20&#45;&gt;21</title>
<path fill="none" stroke="black" d="M334,-348.18C334,-330.08 334,-300.98 334,-279.33"/>
<polygon fill="black" stroke="black" points="337.5,-279.4 334,-269.4 330.5,-279.4 337.5,-279.4"/>
<polygon fill="none" stroke="black" points="337,-309 337,-327 457,-327 457,-309 337,-309"/>
<text text-anchor="start" x="342.99" y="-316" font-family="Courier New" font-weight="bold" font-size="10.00" fill="blue">REF_MACHINE(WIP1,)</text>
<polygon fill="none" stroke="black" points="337,-289 337,-307 457,-307 457,-289 337,-289"/>
<text text-anchor="start" x="340" y="-295" font-family="Courier New" font-size="10.00" fill="blue">ADD(WPARM,R_BPARM);</text>
<polygon fill="none" stroke="black" points="334,-286 334,-330 460,-330 460,-286 334,-286"/>
</g>
<!-- 22 -->
<g id="node11" class="node">
<title>22</title>
<polyline fill="none" stroke="darkred" points="323,-123 345,-123"/>
<text text-anchor="start" x="326" y="-130.4" font-family="Courier New" font-weight="bold" font-size="14.00">22</text>
<path fill="none" stroke="darkred" d="M329.33,-120C329.33,-120 338.67,-120 338.67,-120 343.33,-120 348,-124.67 348,-129.33 348,-129.33 348,-138.67 348,-138.67 348,-143.33 343.33,-148 338.67,-148 338.67,-148 329.33,-148 329.33,-148 324.67,-148 320,-143.33 320,-138.67 320,-138.67 320,-129.33 320,-129.33 320,-124.67 324.67,-120 329.33,-120"/>
</g>
<!-- 21&#45;&gt;22 -->
<g id="edge11" class="edge">
<title>21&#45;&gt;22</title>
<path fill="none" stroke="black" d="M334,-232.18C334,-214.08 334,-184.98 334,-163.33"/>
<polygon fill="black" stroke="black" points="337.5,-163.4 334,-153.4 330.5,-163.4 337.5,-163.4"/>
<polygon fill="none" stroke="black" points="337,-193 337,-211 457,-211 457,-193 337,-193"/>
<text text-anchor="start" x="342.99" y="-200" font-family="Courier New" font-weight="bold" font-size="10.00" fill="blue">REF_MACHINE(WIP2,)</text>
<polygon fill="none" stroke="black" points="337,-173 337,-191 457,-191 457,-173 337,-173"/>
<text text-anchor="start" x="340" y="-179" font-family="Courier New" font-size="10.00" fill="blue">ADD(WPARM,R_BPARM);</text>
<polygon fill="none" stroke="black" points="334,-170 334,-214 460,-214 460,-170 334,-170"/>
</g>
<!-- 23 -->
<g id="node12" class="node">
<title>23</title>
<polyline fill="none" stroke="darkred" points="393,-7 415,-7"/>
<text text-anchor="start" x="396" y="-14.4" font-family="Courier New" font-weight="bold" font-size="14.00">23</text>
<path fill="none" stroke="darkred" d="M399.33,-4C399.33,-4 408.67,-4 408.67,-4 413.33,-4 418,-8.67 418,-13.33 418,-13.33 418,-22.67 418,-22.67 418,-27.33 413.33,-32 408.67,-32 408.67,-32 399.33,-32 399.33,-32 394.67,-32 390,-27.33 390,-22.67 390,-22.67 390,-13.33 390,-13.33 390,-8.67 394.67,-4 399.33,-4"/>
</g>
<!-- 22&#45;&gt;23 -->
<g id="edge12" class="edge">
<title>22&#45;&gt;23</title>
<path fill="none" stroke="black" d="M329.49,-116.18C325.94,-99.16 323.33,-72.75 335,-54 342.14,-42.54 354.32,-34.68 366.47,-29.36"/>
<polygon fill="black" stroke="black" points="367.52,-32.71 375.6,-25.86 365.01,-26.17 367.52,-32.71"/>
<polygon fill="none" stroke="black" points="338,-77 338,-95 458,-95 458,-77 338,-77"/>
<text text-anchor="start" x="343.99" y="-84" font-family="Courier New" font-weight="bold" font-size="10.00" fill="blue">REF_MACHINE(WIP3,)</text>
<polygon fill="none" stroke="black" points="338,-57 338,-75 458,-75 458,-57 338,-57"/>
<text text-anchor="start" x="341" y="-63" font-family="Courier New" font-size="10.00" fill="blue">ADD(WPARM,R_BPARM);</text>
<polygon fill="none" stroke="black" points="335,-54 335,-98 461,-98 461,-54 335,-54"/>
</g>
<!-- 23&#45;&gt;0 -->
<g id="edge13" class="edge">
<title>23&#45;&gt;0</title>
<path fill="none" stroke="black" d="M430.87,-29.56C441.86,-35.21 453.68,-43.25 461,-54 481.07,-83.48 475,-97.34 475,-133 475,-1023 475,-1023 475,-1023 475,-1067.9 448.31,-1114.13 428.87,-1141.84"/>
<polygon fill="black" stroke="black" points="426.28,-1139.46 423.24,-1149.61 431.94,-1143.57 426.28,-1139.46"/>
<polygon fill="none" stroke="black" points="478,-579 478,-597 598,-597 598,-579 478,-579"/>
<text text-anchor="start" x="483.99" y="-586" font-family="Courier New" font-weight="bold" font-size="10.00" fill="blue">REF_MACHINE(WIP4,)</text>
<polygon fill="none" stroke="black" points="478,-559 478,-577 598,-577 598,-559 478,-559"/>
<text text-anchor="start" x="481" y="-565" font-family="Courier New" font-size="10.00" fill="blue">ADD(WPARM,R_BPARM);</text>
<polygon fill="none" stroke="black" points="475,-556 475,-600 601,-600 601,-556 475,-556"/>
</g>
</g>
</svg>
