<?xml version="1.0" encoding="UTF-8" standalone="no"?>
<!DOCTYPE svg PUBLIC "-//W3C//DTD SVG 1.1//EN"
 "http://www.w3.org/Graphics/SVG/1.1/DTD/svg11.dtd">
<!-- Generated by graphviz version 7.1.0 (20230121.1956)
 -->
<!-- Pages: 1 -->
<svg width="505pt" height="412pt"
 viewBox="0.00 0.00 505.00 412.00" xmlns="http://www.w3.org/2000/svg" xmlns:xlink="http://www.w3.org/1999/xlink">
<g id="graph0" class="graph" transform="scale(1 1) rotate(0) translate(4 408)">
<polygon fill="white" stroke="none" points="-4,4 -4,-408 501,-408 501,4 -4,4"/>
<!-- 0 -->
<g id="node1" class="node">
<title>0</title>
<ellipse fill="none" stroke="black" cx="230" cy="-386" rx="27" ry="18"/>
<text text-anchor="middle" x="230" y="-381.8" font-family="Times,serif" font-size="14.00">0</text>
</g>
<!-- 1 -->
<g id="node2" class="node">
<title>1</title>
<ellipse fill="none" stroke="black" cx="325" cy="-294" rx="27" ry="18"/>
<text text-anchor="middle" x="325" y="-289.8" font-family="Times,serif" font-size="14.00">1</text>
</g>
<!-- 0&#45;&gt;1 -->
<g id="edge1" class="edge">
<title>0&#45;&gt;1</title>
<path fill="none" stroke="black" d="M244.84,-370.94C260.09,-356.49 284.04,-333.8 301.79,-316.98"/>
<polygon fill="black" stroke="black" points="304,-319.72 308.85,-310.3 299.18,-314.64 304,-319.72"/>
<text text-anchor="start" x="290" y="-338" font-family="Courier New" font-weight="bold" font-size="10.00" fill="orange">DRAG(0,IDD_MATCH)</text>
</g>
<!-- 6 -->
<g id="node3" class="node">
<title>6</title>
<ellipse fill="none" stroke="black" cx="147" cy="-18" rx="27" ry="18"/>
<text text-anchor="middle" x="147" y="-13.8" font-family="Times,serif" font-size="14.00">6</text>
</g>
<!-- 0&#45;&gt;6 -->
<g id="edge2" class="edge">
<title>0&#45;&gt;6</title>
<path fill="none" stroke="black" d="M204.06,-380.54C143.91,-369.46 0,-338.41 0,-295 0,-295 0,-295 0,-109 0,-57.63 66.1,-34.69 109.65,-25.14"/>
<polygon fill="black" stroke="black" points="110.13,-28.62 119.24,-23.2 108.74,-21.76 110.13,-28.62"/>
<text text-anchor="start" x="4" y="-200" font-family="Courier New" font-weight="bold" font-size="10.00" fill="orange">WAIT(0,0)</text>
</g>
<!-- 2 -->
<g id="node4" class="node">
<title>2</title>
<ellipse fill="none" stroke="black" cx="209" cy="-202" rx="27" ry="18"/>
<text text-anchor="middle" x="209" y="-197.8" font-family="Times,serif" font-size="14.00">2</text>
</g>
<!-- 1&#45;&gt;2 -->
<g id="edge3" class="edge">
<title>1&#45;&gt;2</title>
<path fill="none" stroke="black" d="M307.88,-279.72C288.69,-264.83 257.35,-240.52 235.1,-223.25"/>
<polygon fill="black" stroke="black" points="237.43,-220.63 227.38,-217.26 233.14,-226.16 237.43,-220.63"/>
<text text-anchor="start" x="281" y="-246" font-family="Courier New" font-weight="bold" font-size="10.00" fill="blue">SHOW(0,IDD_VESTCAN)</text>
</g>
<!-- 6&#45;&gt;0 -->
<g id="edge8" class="edge">
<title>6&#45;&gt;0</title>
<path fill="none" stroke="black" d="M173.84,-21.59C245.33,-29.22 435,-54.59 435,-109 435,-295 435,-295 435,-295 435,-366.97 327.76,-381.91 268.41,-384.67"/>
<polygon fill="black" stroke="black" points="268.6,-381.16 258.73,-385.02 268.85,-388.16 268.6,-381.16"/>
<text text-anchor="start" x="439" y="-200" font-family="Courier New" font-weight="bold" font-size="10.00" fill="blue">SHOW(0,0)</text>
</g>
<!-- 2&#45;&gt;0 -->
<g id="edge6" class="edge">
<title>2&#45;&gt;0</title>
<path fill="none" stroke="black" d="M205.63,-220.14C201.94,-241.74 197.26,-279.91 203,-312 205.81,-327.69 211.76,-344.42 217.37,-357.9"/>
<polygon fill="black" stroke="black" points="214.11,-359.2 221.31,-366.98 220.53,-356.41 214.11,-359.2"/>
<text text-anchor="start" x="207" y="-292" font-family="Courier New" font-weight="bold" font-size="10.00" fill="blue">SIGNAL(WIP2,)</text>
</g>
<!-- 5 -->
<g id="node5" class="node">
<title>5</title>
<ellipse fill="none" stroke="black" cx="147" cy="-110" rx="27" ry="18"/>
<text text-anchor="middle" x="147" y="-105.8" font-family="Times,serif" font-size="14.00">5</text>
</g>
<!-- 2&#45;&gt;5 -->
<g id="edge4" class="edge">
<title>2&#45;&gt;5</title>
<path fill="none" stroke="black" d="M182.07,-199.65C137.73,-196.8 52.42,-188.46 34,-166 10.48,-137.31 68.04,-122.47 109.36,-115.74"/>
<polygon fill="black" stroke="black" points="109.64,-119.23 119.01,-114.28 108.59,-112.31 109.64,-119.23"/>
<text text-anchor="start" x="38" y="-154" font-family="Courier New" font-weight="bold" font-size="10.00" fill="blue">NOTSTATE(M12_WATER_FULL,WIP1)</text>
</g>
<!-- 2&#45;&gt;5 -->
<g id="edge5" class="edge">
<title>2&#45;&gt;5</title>
<path fill="none" stroke="black" d="M216.35,-184.43C220.3,-172.86 223.05,-157.48 216,-146 208.59,-133.93 195.57,-125.86 182.83,-120.55"/>
<polygon fill="black" stroke="black" points="184.33,-117.37 173.73,-117.23 181.93,-123.95 184.33,-117.37"/>
<text text-anchor="start" x="224" y="-154" font-family="Courier New" font-weight="bold" font-size="10.00" fill="blue">NOTSTATE(M12_SHELF_FULL,WIP2)</text>
</g>
<!-- 5&#45;&gt;6 -->
<g id="edge7" class="edge">
<title>5&#45;&gt;6</title>
<path fill="none" stroke="black" d="M147,-91.65C147,-79.2 147,-62.14 147,-47.68"/>
<polygon fill="black" stroke="black" points="150.5,-47.81 147,-37.81 143.5,-47.81 150.5,-47.81"/>
<text text-anchor="start" x="151" y="-62" font-family="Courier New" font-weight="bold" font-size="10.00" fill="orange">WAIT(0,0)</text>
</g>
</g>
</svg>
