<?xml version="1.0" encoding="UTF-8" standalone="no"?>
<!DOCTYPE svg PUBLIC "-//W3C//DTD SVG 1.1//EN"
 "http://www.w3.org/Graphics/SVG/1.1/DTD/svg11.dtd">
<!-- Generated by graphviz version 7.1.0 (20230121.1956)
 -->
<!-- Pages: 1 -->
<svg width="821pt" height="607pt"
 viewBox="0.00 0.00 821.05 607.00" xmlns="http://www.w3.org/2000/svg" xmlns:xlink="http://www.w3.org/1999/xlink">
<g id="graph0" class="graph" transform="scale(1 1) rotate(0) translate(4 603)">
<polygon fill="white" stroke="none" points="-4,4 -4,-603 817.05,-603 817.05,4 -4,4"/>
<!-- 0 -->
<g id="node1" class="node">
<title>0</title>
<ellipse fill="none" stroke="black" cx="284.05" cy="-581" rx="27" ry="18"/>
<text text-anchor="middle" x="284.05" y="-576.8" font-family="Times,serif" font-size="14.00">0</text>
</g>
<!-- vacant -->
<g id="node2" class="node">
<title>vacant</title>
<ellipse fill="none" stroke="black" cx="186.05" cy="-447" rx="36.47" ry="18"/>
<text text-anchor="middle" x="186.05" y="-442.8" font-family="Times,serif" font-size="14.00">vacant</text>
</g>
<!-- 0&#45;&gt;vacant -->
<g id="edge1" class="edge">
<title>0&#45;&gt;vacant</title>
<path fill="none" stroke="black" d="M257.53,-576.22C238.22,-572 213.08,-563.2 199.05,-545 184.22,-525.76 181.9,-497.77 182.74,-476.79"/>
<polygon fill="black" stroke="black" points="186.22,-477.1 183.42,-466.88 179.24,-476.61 186.22,-477.1"/>
<polygon fill="none" stroke="black" points="202.55,-522 202.55,-542 361.55,-542 361.55,-522 202.55,-522"/>
<text text-anchor="start" x="213.63" y="-529.2" font-family="Courier New" font-weight="bold" font-size="12.00" fill="blue">REF_MACHINE(WIP2,0)</text>
<polygon fill="none" stroke="black" points="202.55,-486 202.55,-520 361.55,-520 361.55,-486 202.55,-486"/>
<text text-anchor="start" x="205.55" y="-506.2" font-family="Times,serif" font-size="12.00" fill="blue">SIGNAL(WIP2,SIG_CHECK);</text>
<text text-anchor="start" x="205.55" y="-491.8" font-family="Times,serif" font-size="12.00" fill="blue">C_ACCEPT(0,IDC_SCROLL);</text>
<polygon fill="none" stroke="black" points="199.05,-483 199.05,-545 364.05,-545 364.05,-483 199.05,-483"/>
</g>
<!-- 12 -->
<g id="node3" class="node">
<title>12</title>
<ellipse fill="none" stroke="black" cx="182.05" cy="-278" rx="27" ry="18"/>
<text text-anchor="middle" x="182.05" y="-273.8" font-family="Times,serif" font-size="14.00">12</text>
</g>
<!-- vacant&#45;&gt;12 -->
<g id="edge6" class="edge">
<title>vacant&#45;&gt;12</title>
<path fill="none" stroke="black" d="M184.28,-428.57C183.79,-422.97 183.31,-416.73 183.05,-411 181.38,-375.27 181.37,-334.03 181.62,-307.29"/>
<polygon fill="black" stroke="black" points="185.12,-307.65 181.73,-297.61 178.12,-307.57 185.12,-307.65"/>
<polygon fill="none" stroke="black" points="186.55,-387.5 186.55,-407.5 361.55,-407.5 361.55,-387.5 186.55,-387.5"/>
<text text-anchor="start" x="241.64" y="-394.7" font-family="Courier New" font-weight="bold" font-size="12.00" fill="orange">DROP(0,0)</text>
<polygon fill="none" stroke="black" points="186.55,-322.5 186.55,-385.5 361.55,-385.5 361.55,-322.5 186.55,-322.5"/>
<text text-anchor="start" x="189.55" y="-371.7" font-family="Times,serif" font-size="12.00" fill="blue">MOV(WPARM,WOBJECT);</text>
<text text-anchor="start" x="189.55" y="-357.3" font-family="Times,serif" font-size="12.00" fill="blue">MAPi(WPARM,S12_SCROLL);</text>
<text text-anchor="start" x="189.55" y="-342.9" font-family="Times,serif" font-size="12.00" fill="blue">MOV(WTEMP1,WPARM);</text>
<text text-anchor="start" x="189.55" y="-328.5" font-family="Times,serif" font-size="12.00" fill="blue">MAPi(WTEMP1,S12_ING_LOC);</text>
<polygon fill="none" stroke="black" points="183.05,-320 183.05,-411 364.05,-411 364.05,-320 183.05,-320"/>
</g>
<!-- occupied -->
<g id="node4" class="node">
<title>occupied</title>
<ellipse fill="none" stroke="black" cx="205.05" cy="-138" rx="45.78" ry="18"/>
<text text-anchor="middle" x="205.05" y="-133.8" font-family="Times,serif" font-size="14.00">occupied</text>
</g>
<!-- 12&#45;&gt;occupied -->
<g id="edge2" class="edge">
<title>12&#45;&gt;occupied</title>
<path fill="none" stroke="black" d="M155.29,-274.47C112.19,-269.78 30.45,-258.13 13.05,-236 -3.99,-214.34 -4.61,-195.16 13.05,-174 30.01,-153.66 97.85,-145.11 148.1,-141.54"/>
<polygon fill="black" stroke="black" points="148.24,-145.04 157.99,-140.89 147.78,-138.05 148.24,-145.04"/>
<polygon fill="none" stroke="black" points="16.05,-206 16.05,-226 180.05,-226 180.05,-206 16.05,-206"/>
<text text-anchor="start" x="29.63" y="-213.2" font-family="Courier New" font-weight="bold" font-size="12.00" fill="blue">NEQUAL(WTEMP1,WIP1)</text>
<polygon fill="none" stroke="black" points="16.05,-184 16.05,-204 180.05,-204 180.05,-184 16.05,-184"/>
<text text-anchor="start" x="19.05" y="-190.2" font-family="Times,serif" font-size="12.00" fill="blue">PLAYWAVE(SOUND_HURT);</text>
<polygon fill="none" stroke="black" points="13.05,-181 13.05,-229 183.05,-229 183.05,-181 13.05,-181"/>
</g>
<!-- 12&#45;&gt;occupied -->
<g id="edge3" class="edge">
<title>12&#45;&gt;occupied</title>
<path fill="none" stroke="black" d="M184.91,-259.8C188.77,-236.66 195.68,-195.21 200.31,-167.4"/>
<polygon fill="black" stroke="black" points="203.7,-168.35 201.89,-157.91 196.8,-167.2 203.7,-168.35"/>
<polygon fill="none" stroke="black" points="202.05,-213 202.05,-233 354.05,-233 354.05,-213 202.05,-213"/>
<text text-anchor="start" x="234.84" y="-220.2" font-family="Courier New" font-weight="bold" font-size="12.00" fill="blue">Z_EPSILON(,)</text>
<polygon fill="none" stroke="black" points="202.05,-177 202.05,-211 354.05,-211 354.05,-177 202.05,-177"/>
<text text-anchor="start" x="205.05" y="-197.2" font-family="Times,serif" font-size="12.00" fill="blue">SHOW(0,IDS_SCRHUNG);</text>
<text text-anchor="start" x="205.05" y="-182.8" font-family="Times,serif" font-size="12.00" fill="blue">SIGNAL(WIP2,SIG_SHOW);</text>
<polygon fill="none" stroke="black" points="199.05,-174 199.05,-236 357.05,-236 357.05,-174 199.05,-174"/>
</g>
<!-- 30 -->
<g id="node5" class="node">
<title>30</title>
<ellipse fill="none" stroke="black" cx="292.05" cy="-18" rx="27" ry="18"/>
<text text-anchor="middle" x="292.05" y="-13.8" font-family="Times,serif" font-size="14.00">30</text>
</g>
<!-- occupied&#45;&gt;30 -->
<g id="edge5" class="edge">
<title>occupied&#45;&gt;30</title>
<path fill="none" stroke="black" d="M217.33,-120.34C232.08,-100.33 256.96,-66.58 273.93,-43.58"/>
<polygon fill="black" stroke="black" points="276.64,-45.79 279.76,-35.66 271.01,-41.64 276.64,-45.79"/>
<polygon fill="none" stroke="black" points="267.55,-79 267.55,-99 356.55,-99 356.55,-79 267.55,-79"/>
<text text-anchor="start" x="283.24" y="-86.2" font-family="Courier New" font-weight="bold" font-size="12.00" fill="orange">GRAB(0,)</text>
<polygon fill="none" stroke="black" points="267.55,-57 267.55,-77 356.55,-77 356.55,-57 267.55,-57"/>
<text text-anchor="start" x="270.55" y="-64.2" font-family="Times,serif" font-style="italic" font-size="12.00" fill="brown">R_WPARM == 0</text>
<polygon fill="none" stroke="black" points="264.05,-54 264.05,-102 359.05,-102 359.05,-54 264.05,-54"/>
</g>
<!-- 30&#45;&gt;0 -->
<g id="edge4" class="edge">
<title>30&#45;&gt;0</title>
<path fill="none" stroke="black" d="M317.15,-25.14C332.75,-30.26 351.88,-39.18 363.05,-54 385.61,-83.94 378.05,-99.51 378.05,-137 378.05,-448 378.05,-448 378.05,-448 378.05,-491.56 390.44,-510.35 364.05,-545 353.62,-558.68 336.73,-567.11 321.14,-572.26"/>
<polygon fill="black" stroke="black" points="320.21,-568.88 311.59,-575.03 322.17,-575.6 320.21,-568.88"/>
<polygon fill="none" stroke="black" points="381.55,-279 381.55,-299 810.55,-299 810.55,-279 381.55,-279"/>
<text text-anchor="start" x="563.64" y="-286.2" font-family="Courier New" font-weight="bold" font-size="12.00" fill="blue">SHOW(0,0)</text>
<polygon fill="none" stroke="black" points="381.55,-257 381.55,-277 810.55,-277 810.55,-257 381.55,-257"/>
<text text-anchor="start" x="384.55" y="-263.2" font-family="Times,serif" font-size="12.00" fill="blue">SIGNAL(WIP2,SIG_HIDE);SIGNAL(WIP3,SIG_HIDE); SIGNAL(WIP4,SIG_HIDE);</text>
<polygon fill="none" stroke="black" points="378.05,-254 378.05,-302 813.05,-302 813.05,-254 378.05,-254"/>
</g>
</g>
</svg>
