<?xml version="1.0" encoding="UTF-8" standalone="no"?>
<!DOCTYPE svg PUBLIC "-//W3C//DTD SVG 1.1//EN"
 "http://www.w3.org/Graphics/SVG/1.1/DTD/svg11.dtd">
<!-- Generated by graphviz version 7.1.0 (20230121.1956)
 -->
<!-- Pages: 1 -->
<svg width="663pt" height="572pt"
 viewBox="0.00 0.00 663.34 572.00" xmlns="http://www.w3.org/2000/svg" xmlns:xlink="http://www.w3.org/1999/xlink">
<g id="graph0" class="graph" transform="scale(1 1) rotate(0) translate(4 568)">
<polygon fill="white" stroke="none" points="-4,4 -4,-568 659.34,-568 659.34,4 -4,4"/>
<!-- 0 -->
<g id="node1" class="node">
<title>0</title>
<ellipse fill="none" stroke="black" cx="268.34" cy="-546" rx="27" ry="18"/>
<text text-anchor="middle" x="268.34" y="-541.8" font-family="Times,serif" font-size="14.00">0</text>
</g>
<!-- 5 -->
<g id="node2" class="node">
<title>5</title>
<ellipse fill="none" stroke="black" cx="92.34" cy="-391" rx="27" ry="18"/>
<text text-anchor="middle" x="92.34" y="-386.8" font-family="Times,serif" font-size="14.00">5</text>
</g>
<!-- 0&#45;&gt;5 -->
<g id="edge1" class="edge">
<title>0&#45;&gt;5</title>
<path fill="none" stroke="black" d="M241.05,-545.51C181.81,-545.98 44.39,-543.35 15.34,-510 -7.14,-484.2 -2.28,-462.34 15.34,-433 24.4,-417.91 41.1,-408.08 56.63,-401.83"/>
<polygon fill="black" stroke="black" points="57.45,-405.26 65.67,-398.57 55.08,-398.67 57.45,-405.26"/>
<polygon fill="none" stroke="black" points="18.84,-486.5 18.84,-506.5 175.84,-506.5 175.84,-486.5 18.84,-486.5"/>
<text text-anchor="start" x="43.33" y="-493.7" font-family="Courier New" font-weight="bold" font-size="12.00" fill="orange">WAIT(,SIG_SHOW)</text>
<polygon fill="none" stroke="black" points="18.84,-435.5 18.84,-484.5 175.84,-484.5 175.84,-435.5 18.84,-435.5"/>
<text text-anchor="start" x="21.84" y="-470.7" font-family="Times,serif" font-size="12.00" fill="blue">REF_MACHINE(WIP1);</text>
<text text-anchor="start" x="21.84" y="-456.3" font-family="Times,serif" font-size="12.00" fill="blue">MOV(BFRAME,R_WPARM);</text>
<text text-anchor="start" x="21.84" y="-441.9" font-family="Times,serif" font-size="12.00" fill="blue">MAP(BFRAME,WIP2);</text>
<polygon fill="none" stroke="black" points="15.34,-433 15.34,-510 178.34,-510 178.34,-433 15.34,-433"/>
</g>
<!-- 5&#45;&gt;0 -->
<g id="edge3" class="edge">
<title>5&#45;&gt;0</title>
<path fill="none" stroke="black" d="M117.63,-398.04C136.87,-403.9 162.63,-414.66 178.34,-433 201.57,-460.13 178.61,-482.45 201.34,-510 209.72,-520.15 221.81,-527.72 233.43,-533.17"/>
<polygon fill="black" stroke="black" points="231.88,-536.32 242.45,-537.01 234.62,-529.88 231.88,-536.32"/>
<polygon fill="none" stroke="black" points="204.84,-472.5 204.84,-492.5 319.84,-492.5 319.84,-472.5 204.84,-472.5"/>
<text text-anchor="start" x="219.13" y="-479.7" font-family="Courier New" font-weight="bold" font-size="12.00" fill="blue">Z_EPSILON(,)</text>
<polygon fill="none" stroke="black" points="204.84,-450.5 204.84,-470.5 319.84,-470.5 319.84,-450.5 204.84,-450.5"/>
<text text-anchor="start" x="207.84" y="-456.7" font-family="Times,serif" font-size="12.00" fill="blue">ASSIGN(WPARM,0);</text>
<polygon fill="none" stroke="black" points="201.34,-447.5 201.34,-495.5 322.34,-495.5 322.34,-447.5 201.34,-447.5"/>
</g>
<!-- Dstate -->
<g id="node3" class="node">
<title>Dstate</title>
<ellipse fill="none" stroke="black" cx="299.34" cy="-180" rx="35.92" ry="18"/>
<text text-anchor="middle" x="299.34" y="-175.8" font-family="Times,serif" font-size="14.00">Dstate</text>
</g>
<!-- 5&#45;&gt;Dstate -->
<g id="edge2" class="edge">
<title>5&#45;&gt;Dstate</title>
<path fill="none" stroke="black" d="M91.71,-372.58C90.75,-335.2 90.77,-249.01 110.34,-229 131.35,-207.52 215.79,-220.35 244.34,-211 252.44,-208.35 260.74,-204.51 268.35,-200.45"/>
<polygon fill="black" stroke="black" points="269.91,-203.59 276.9,-195.63 266.47,-197.49 269.91,-203.59"/>
<polygon fill="none" stroke="black" points="113.34,-326 113.34,-346 319.34,-346 319.34,-326 113.34,-326"/>
<text text-anchor="start" x="173.13" y="-333.2" font-family="Courier New" font-weight="bold" font-size="12.00" fill="blue">GT(BFRAME,0)</text>
<polygon fill="none" stroke="black" points="113.34,-232 113.34,-324 319.34,-324 319.34,-232 113.34,-232"/>
<text text-anchor="start" x="116.34" y="-310.2" font-family="Times,serif" font-size="12.00" fill="blue">ASSIGN(WPARM,1);</text>
<text text-anchor="start" x="116.34" y="-295.8" font-family="Times,serif" font-size="12.00" fill="blue">MOV(WOBJECT,BFRAME);</text>
<text text-anchor="start" x="116.34" y="-281.4" font-family="Times,serif" font-size="12.00" fill="blue">MAPi(WOBJECT,S12_NATURE_REP);</text>
<text text-anchor="start" x="116.34" y="-267" font-family="Times,serif" font-size="12.00" fill="blue">O_ACCEPT(WOBJECT);</text>
<text text-anchor="start" x="116.34" y="-252.6" font-family="Times,serif" font-size="12.00" fill="blue">C_ACCEPT(WOBJECT);</text>
<text text-anchor="start" x="116.34" y="-238.2" font-family="Times,serif" font-size="12.00" fill="blue">SHOW(WIP3);</text>
<polygon fill="none" stroke="black" points="110.34,-229 110.34,-349 322.34,-349 322.34,-229 110.34,-229"/>
</g>
<!-- Dstate&#45;&gt;0 -->
<g id="edge5" class="edge">
<title>Dstate&#45;&gt;0</title>
<path fill="none" stroke="black" d="M309.6,-197.65C314.5,-206.59 319.84,-218.01 322.34,-229 336.18,-289.89 352.16,-455.14 322.34,-510 317.62,-518.68 309.72,-525.54 301.4,-530.8"/>
<polygon fill="black" stroke="black" points="299.96,-527.59 292.93,-535.52 303.37,-533.71 299.96,-527.59"/>
<polygon fill="none" stroke="black" points="341.34,-392 341.34,-412 455.34,-412 455.34,-392 341.34,-392"/>
<text text-anchor="start" x="344.34" y="-399.2" font-family="Courier New" font-weight="bold" font-size="12.00" fill="orange">WAIT(,SIG_HIDE)</text>
<polygon fill="none" stroke="black" points="341.34,-370 341.34,-390 455.34,-390 455.34,-370 341.34,-370"/>
<text text-anchor="start" x="375.01" y="-376.2" font-family="Times,serif" font-size="12.00" fill="blue">SHOW();</text>
<polygon fill="none" stroke="black" points="338.34,-367 338.34,-415 458.34,-415 458.34,-367 338.34,-367"/>
</g>
<!-- Gstate -->
<g id="node4" class="node">
<title>Gstate</title>
<ellipse fill="none" stroke="black" cx="299.34" cy="-18" rx="35.92" ry="18"/>
<text text-anchor="middle" x="299.34" y="-13.8" font-family="Times,serif" font-size="14.00">Gstate</text>
</g>
<!-- Dstate&#45;&gt;Gstate -->
<g id="edge4" class="edge">
<title>Dstate&#45;&gt;Gstate</title>
<path fill="none" stroke="black" d="M299.34,-161.57C299.34,-134.16 299.34,-80.69 299.34,-47.59"/>
<polygon fill="black" stroke="black" points="302.84,-47.92 299.34,-37.92 295.84,-47.92 302.84,-47.92"/>
<polygon fill="none" stroke="black" points="302.34,-107.5 302.34,-127.5 460.34,-127.5 460.34,-107.5 302.34,-107.5"/>
<text text-anchor="start" x="348.93" y="-114.7" font-family="Courier New" font-weight="bold" font-size="12.00" fill="orange">DROP(0,0)</text>
<polygon fill="none" stroke="black" points="302.34,-56.5 302.34,-105.5 460.34,-105.5 460.34,-56.5 302.34,-56.5"/>
<text text-anchor="start" x="305.34" y="-91.7" font-family="Times,serif" font-size="12.00" fill="blue">SHOW(WOBJECT);</text>
<text text-anchor="start" x="305.34" y="-77.3" font-family="Times,serif" font-size="12.00" fill="blue">BPARM=1;</text>
<text text-anchor="start" x="305.34" y="-62.9" font-family="Times,serif" font-size="12.00" fill="blue">SIGNAL(WIP4,SIG_CHECK);</text>
<polygon fill="none" stroke="black" points="299.34,-54 299.34,-131 463.34,-131 463.34,-54 299.34,-54"/>
</g>
<!-- Gstate&#45;&gt;0 -->
<g id="edge7" class="edge">
<title>Gstate&#45;&gt;0</title>
<path fill="none" stroke="black" d="M334.97,-21.28C379.25,-24.95 450.99,-33.89 467.34,-54 568.57,-178.5 533.19,-271.03 462.34,-415 430.67,-479.36 350.12,-516.85 303.38,-533.87"/>
<polygon fill="black" stroke="black" points="302.26,-530.55 293.98,-537.17 304.57,-537.16 302.26,-530.55"/>
<polygon fill="none" stroke="black" points="531.84,-311 531.84,-331 652.84,-331 652.84,-311 531.84,-311"/>
<text text-anchor="start" x="534.84" y="-318.2" font-family="Courier New" font-weight="bold" font-size="12.00" fill="orange">WAIT(,SIG_CLOSE)</text>
<polygon fill="none" stroke="black" points="531.84,-246 531.84,-309 652.84,-309 652.84,-246 531.84,-246"/>
<text text-anchor="start" x="556.62" y="-295.2" font-family="Times,serif" font-size="12.00" fill="blue">WOBJECT=0;</text>
<text text-anchor="start" x="556.62" y="-280.8" font-family="Times,serif" font-size="12.00" fill="blue">ASHOW();</text>
<text text-anchor="start" x="556.62" y="-266.4" font-family="Times,serif" font-size="12.00" fill="blue">BPARM=0;</text>
<text text-anchor="start" x="556.62" y="-252" font-family="Times,serif" font-size="12.00" fill="blue">WPARM=0;</text>
<polygon fill="none" stroke="black" points="528.34,-243.5 528.34,-334.5 655.34,-334.5 655.34,-243.5 528.34,-243.5"/>
</g>
<!-- Gstate&#45;&gt;5 -->
<g id="edge6" class="edge">
<title>Gstate&#45;&gt;5</title>
<path fill="none" stroke="black" d="M268.5,-27.63C220.29,-42.98 128.63,-80.09 90.34,-149 52.21,-217.61 71.04,-315.09 83.82,-362.28"/>
<polygon fill="black" stroke="black" points="80.4,-363.02 86.49,-371.68 87.13,-361.11 80.4,-363.02"/>
<polygon fill="none" stroke="black" points="93.34,-188 93.34,-208 251.34,-208 251.34,-188 93.34,-188"/>
<text text-anchor="start" x="139.93" y="-195.2" font-family="Courier New" font-weight="bold" font-size="12.00" fill="orange">GRAB(0,0)</text>
<polygon fill="none" stroke="black" points="93.34,-152 93.34,-186 251.34,-186 251.34,-152 93.34,-152"/>
<text text-anchor="start" x="96.34" y="-172.2" font-family="Times,serif" font-size="12.00" fill="blue">WOBJECT=0;</text>
<text text-anchor="start" x="96.34" y="-157.8" font-family="Times,serif" font-size="12.00" fill="blue">SIGNAL(WIP4,SIG_CHECK);</text>
<polygon fill="none" stroke="black" points="90.34,-149 90.34,-211 254.34,-211 254.34,-149 90.34,-149"/>
</g>
</g>
</svg>
