<?xml version="1.0" encoding="UTF-8" standalone="no"?>
<!DOCTYPE svg PUBLIC "-//W3C//DTD SVG 1.1//EN"
 "http://www.w3.org/Graphics/SVG/1.1/DTD/svg11.dtd">
<!-- Generated by graphviz version 7.1.0 (20230121.1956)
 -->
<!-- Pages: 1 -->
<svg width="740pt" height="479pt"
 viewBox="0.00 0.00 740.00 479.00" xmlns="http://www.w3.org/2000/svg" xmlns:xlink="http://www.w3.org/1999/xlink">
<g id="graph0" class="graph" transform="scale(1 1) rotate(0) translate(4 475)">
<polygon fill="white" stroke="none" points="-4,4 -4,-475 736,-475 736,4 -4,4"/>
<!-- 0 -->
<g id="node1" class="node">
<title>0</title>
<ellipse fill="none" stroke="black" cx="363" cy="-453" rx="27" ry="18"/>
<text text-anchor="middle" x="363" y="-448.8" font-family="Times,serif" font-size="14.00">0</text>
</g>
<!-- 11 -->
<g id="node2" class="node">
<title>11</title>
<ellipse fill="none" stroke="black" cx="220" cy="-359" rx="27" ry="18"/>
<text text-anchor="middle" x="220" y="-354.8" font-family="Times,serif" font-size="14.00">11</text>
</g>
<!-- 0&#45;&gt;11 -->
<g id="edge1" class="edge">
<title>0&#45;&gt;11</title>
<path fill="none" stroke="black" d="M343.89,-439.89C333.3,-433.17 319.91,-424.64 308,-417 288.03,-404.18 265.57,-389.63 248.34,-378.44"/>
<polygon fill="black" stroke="black" points="250.42,-375.61 240.12,-373.1 246.6,-381.48 250.42,-375.61"/>
<text text-anchor="start" x="312.5" y="-403.2" font-family="Courier New" font-weight="bold" font-size="12.00" fill="orange">GRAB(00)</text>
</g>
<!-- 1 -->
<g id="node3" class="node">
<title>1</title>
<ellipse fill="none" stroke="black" cx="27" cy="-359" rx="27" ry="18"/>
<text text-anchor="middle" x="27" y="-354.8" font-family="Times,serif" font-size="14.00">1</text>
</g>
<!-- 0&#45;&gt;1 -->
<g id="edge2" class="edge">
<title>0&#45;&gt;1</title>
<path fill="none" stroke="black" d="M336.36,-449.26C297.62,-444.84 223.72,-434.79 163,-417 125.91,-406.13 85.27,-388.26 58.17,-375.42"/>
<polygon fill="black" stroke="black" points="60.02,-372.43 49.49,-371.26 56.99,-378.74 60.02,-372.43"/>
<text text-anchor="start" x="167" y="-403.2" font-family="Courier New" font-weight="bold" font-size="12.00" fill="orange">WAIT(SIG_SHOW)</text>
</g>
<!-- 12 -->
<g id="node5" class="node">
<title>12</title>
<ellipse fill="none" stroke="black" cx="312" cy="-167" rx="27" ry="18"/>
<text text-anchor="middle" x="312" y="-162.8" font-family="Times,serif" font-size="14.00">12</text>
</g>
<!-- 11&#45;&gt;12 -->
<g id="edge4" class="edge">
<title>11&#45;&gt;12</title>
<path fill="none" stroke="black" d="M207.35,-342.95C203.21,-337.1 199.13,-330.11 197,-323 181.71,-271.9 165.25,-245.85 197,-203 214.4,-179.52 247.18,-171.25 273.3,-168.58"/>
<polygon fill="black" stroke="black" points="273.54,-172.08 283.25,-167.83 273.02,-165.1 273.54,-172.08"/>
<polygon fill="none" stroke="black" points="200,-300 200,-320 370,-320 370,-300 200,-300"/>
<text text-anchor="start" x="234.59" y="-307.2" font-family="Courier New" font-weight="bold" font-size="12.00" fill="blue">CLEAR(WOBJECT)</text>
<polygon fill="none" stroke="black" points="200,-206 200,-298 370,-298 370,-206 200,-206"/>
<text text-anchor="start" x="203" y="-284.2" font-family="Times,serif" font-size="12.00" fill="blue"> &#160;&#160;&#160;&#160;&#160;&#160;&#160;CLEAR(WOBJECT);</text>
<text text-anchor="start" x="203" y="-269.8" font-family="Times,serif" font-size="12.00" fill="blue"> &#160;&#160;&#160;&#160;&#160;&#160;&#160;CLEAR(WPARM);</text>
<text text-anchor="start" x="203" y="-255.4" font-family="Times,serif" font-size="12.00" fill="blue"> &#160;&#160;&#160;&#160;&#160;&#160;&#160;SHOW();</text>
<text text-anchor="start" x="203" y="-241" font-family="Times,serif" font-size="12.00" fill="blue"> &#160;&#160;&#160;&#160;&#160;&#160;&#160;SIGNAL(WIP3,SIG_HIDE);</text>
<text text-anchor="start" x="203" y="-226.6" font-family="Times,serif" font-size="12.00" fill="blue"> &#160;&#160;&#160;&#160;&#160;&#160;&#160;SIGNAL(WIP4,SIG_HIDE);</text>
<text text-anchor="start" x="203" y="-212.2" font-family="Times,serif" font-size="12.00" fill="blue"> &#160;&#160;&#160;&#160;&#160;&#160;&#160;</text>
<polygon fill="none" stroke="black" points="197,-203 197,-323 373,-323 373,-203 197,-203"/>
</g>
<!-- 3 -->
<g id="node4" class="node">
<title>3</title>
<ellipse fill="none" stroke="black" cx="90" cy="-167" rx="27" ry="18"/>
<text text-anchor="middle" x="90" y="-162.8" font-family="Times,serif" font-size="14.00">3</text>
</g>
<!-- 1&#45;&gt;3 -->
<g id="edge3" class="edge">
<title>1&#45;&gt;3</title>
<path fill="none" stroke="black" d="M19.72,-341.51C7.62,-311.36 -12.69,-246.48 15,-203 23.55,-189.58 38.74,-181.22 53.23,-176.05"/>
<polygon fill="black" stroke="black" points="54.09,-179.45 62.6,-173.14 52.01,-172.76 54.09,-179.45"/>
<text text-anchor="start" x="19.5" y="-260.2" font-family="Courier New" font-weight="bold" font-size="12.00" fill="blue">SIGNAL(WIP1SIG_CLOSE)</text>
</g>
<!-- 4 -->
<g id="node6" class="node">
<title>4</title>
<ellipse fill="none" stroke="black" cx="366" cy="-18" rx="27" ry="18"/>
<text text-anchor="middle" x="366" y="-13.8" font-family="Times,serif" font-size="14.00">4</text>
</g>
<!-- 3&#45;&gt;4 -->
<g id="edge6" class="edge">
<title>3&#45;&gt;4</title>
<path fill="none" stroke="black" d="M110.74,-154.95C158.91,-129.3 278.54,-65.58 335.25,-35.38"/>
<polygon fill="black" stroke="black" points="336.87,-38.48 344.06,-30.69 333.58,-32.3 336.87,-38.48"/>
<polygon fill="none" stroke="black" points="303,-107.5 303,-127.5 525,-127.5 525,-107.5 303,-107.5"/>
<text text-anchor="start" x="352.79" y="-114.7" font-family="Courier New" font-weight="bold" font-size="12.00" fill="blue">REF_MACHINE(WIP2)</text>
<polygon fill="none" stroke="black" points="303,-56.5 303,-105.5 525,-105.5 525,-56.5 303,-56.5"/>
<text text-anchor="start" x="306" y="-91.7" font-family="Times,serif" font-size="12.00" fill="blue"> &#160;&#160;&#160;&#160;&#160;&#160;&#160;MOV(WPARM,R_WPARM);</text>
<text text-anchor="start" x="306" y="-77.3" font-family="Times,serif" font-size="12.00" fill="blue"> &#160;&#160;&#160;&#160;&#160;&#160;&#160;MAPi(WPARM,S12_SCROLLL_MK);</text>
<text text-anchor="start" x="306" y="-62.9" font-family="Times,serif" font-size="12.00" fill="blue"> &#160;&#160;&#160;&#160;&#160;&#160;&#160;MOV(WOBJECT,WPARM); </text>
<polygon fill="none" stroke="black" points="300,-54 300,-131 528,-131 528,-54 300,-54"/>
</g>
<!-- 12&#45;&gt;0 -->
<g id="edge5" class="edge">
<title>12&#45;&gt;0</title>
<path fill="none" stroke="black" d="M336.31,-175.23C349.68,-180.59 365.11,-189.37 373,-203 413.96,-273.73 389.02,-375.67 373.14,-424.24"/>
<polygon fill="black" stroke="black" points="369.83,-423.09 369.92,-433.69 376.46,-425.35 369.83,-423.09"/>
<text text-anchor="start" x="396" y="-356.2" font-family="Courier New" font-weight="bold" font-size="12.00" fill="blue">SIGNAL(WIP1SIG_SHOW)</text>
</g>
<!-- 4&#45;&gt;0 -->
<g id="edge7" class="edge">
<title>4&#45;&gt;0</title>
<path fill="none" stroke="black" d="M393.13,-20.81C435.47,-24.26 514.25,-33.33 532,-54 715.38,-267.63 572.36,-340.84 548,-377 515.28,-425.58 445.13,-442.7 401.23,-448.73"/>
<polygon fill="black" stroke="black" points="400.87,-445.25 391.37,-449.94 401.73,-452.2 400.87,-445.25"/>
<text text-anchor="start" x="628" y="-260.2" font-family="Courier New" font-weight="bold" font-size="12.00" fill="blue">ASHOW(WOBJECT)</text>
</g>
</g>
</svg>
