<?xml version="1.0" encoding="UTF-8" standalone="no"?>
<!DOCTYPE svg PUBLIC "-//W3C//DTD SVG 1.1//EN"
 "http://www.w3.org/Graphics/SVG/1.1/DTD/svg11.dtd">
<!-- Generated by graphviz version 7.1.0 (20230121.1956)
 -->
<!-- Pages: 1 -->
<svg width="583pt" height="420pt"
 viewBox="0.00 0.00 583.00 420.00" xmlns="http://www.w3.org/2000/svg" xmlns:xlink="http://www.w3.org/1999/xlink">
<g id="graph0" class="graph" transform="scale(1 1) rotate(0) translate(4 416)">
<polygon fill="white" stroke="none" points="-4,4 -4,-416 579,-416 579,4 -4,4"/>
<!-- 0 -->
<g id="node1" class="node">
<title>0</title>
<ellipse fill="none" stroke="black" cx="270" cy="-394" rx="27" ry="18"/>
<text text-anchor="middle" x="270" y="-389.8" font-family="Times,serif" font-size="14.00">0</text>
</g>
<!-- 1 -->
<g id="node2" class="node">
<title>1</title>
<ellipse fill="none" stroke="black" cx="373" cy="-300" rx="27" ry="18"/>
<text text-anchor="middle" x="373" y="-295.8" font-family="Times,serif" font-size="14.00">1</text>
</g>
<!-- 0&#45;&gt;1 -->
<g id="edge1" class="edge">
<title>0&#45;&gt;1</title>
<path fill="none" stroke="black" d="M285.64,-379.03C302.43,-364.03 329.31,-340.02 348.82,-322.59"/>
<polygon fill="black" stroke="black" points="350.95,-325.38 356.08,-316.11 346.29,-320.16 350.95,-325.38"/>
<text text-anchor="start" x="337" y="-344.2" font-family="Courier New" font-weight="bold" font-size="12.00" fill="orange">DRAG(0,IDD_MATCH)</text>
</g>
<!-- 6 -->
<g id="node3" class="node">
<title>6</title>
<ellipse fill="none" stroke="black" cx="163" cy="-18" rx="27" ry="18"/>
<text text-anchor="middle" x="163" y="-13.8" font-family="Times,serif" font-size="14.00">6</text>
</g>
<!-- 0&#45;&gt;6 -->
<g id="edge2" class="edge">
<title>0&#45;&gt;6</title>
<path fill="none" stroke="black" d="M243.62,-389.75C175.68,-380.63 0,-352.13 0,-301 0,-301 0,-301 0,-111 0,-53.81 77.03,-31.77 125.19,-23.58"/>
<polygon fill="black" stroke="black" points="125.61,-27.06 134.95,-22.06 124.53,-20.14 125.61,-27.06"/>
<text text-anchor="start" x="4" y="-203.2" font-family="Courier New" font-weight="bold" font-size="12.00" fill="orange">WAIT(0,0)</text>
</g>
<!-- 2 -->
<g id="node4" class="node">
<title>2</title>
<ellipse fill="none" stroke="black" cx="242" cy="-206" rx="27" ry="18"/>
<text text-anchor="middle" x="242" y="-201.8" font-family="Times,serif" font-size="14.00">2</text>
</g>
<!-- 1&#45;&gt;2 -->
<g id="edge3" class="edge">
<title>1&#45;&gt;2</title>
<path fill="none" stroke="black" d="M354.79,-286.21C332.59,-270.62 294.89,-244.15 269.24,-226.13"/>
<polygon fill="black" stroke="black" points="271.49,-223.44 261.3,-220.55 267.47,-229.16 271.49,-223.44"/>
<text text-anchor="start" x="327" y="-250.2" font-family="Courier New" font-weight="bold" font-size="12.00" fill="blue">SHOW(0,IDD_VESTCAN)</text>
</g>
<!-- 6&#45;&gt;0 -->
<g id="edge8" class="edge">
<title>6&#45;&gt;0</title>
<path fill="none" stroke="black" d="M189.96,-20.49C270.38,-25.67 503,-46.26 503,-111 503,-301 503,-301 503,-301 503,-330.96 491.87,-341.29 467,-358 441.64,-375.04 358.13,-385.19 308.34,-389.87"/>
<polygon fill="black" stroke="black" points="308.22,-386.37 298.58,-390.75 308.85,-393.34 308.22,-386.37"/>
<text text-anchor="start" x="507" y="-203.2" font-family="Courier New" font-weight="bold" font-size="12.00" fill="blue">SHOW(0,0)</text>
</g>
<!-- 2&#45;&gt;0 -->
<g id="edge6" class="edge">
<title>2&#45;&gt;0</title>
<path fill="none" stroke="black" d="M238.29,-224.15C234.17,-246.15 228.95,-285.37 236,-318 239.68,-335.04 247.57,-352.86 254.82,-366.85"/>
<polygon fill="black" stroke="black" points="251.61,-368.27 259.44,-375.4 257.76,-364.94 251.61,-368.27"/>
<text text-anchor="start" x="240.5" y="-297.2" font-family="Courier New" font-weight="bold" font-size="12.00" fill="blue">SIGNAL(WIP2,)</text>
</g>
<!-- 5 -->
<g id="node5" class="node">
<title>5</title>
<ellipse fill="none" stroke="black" cx="163" cy="-112" rx="27" ry="18"/>
<text text-anchor="middle" x="163" y="-107.8" font-family="Times,serif" font-size="14.00">5</text>
</g>
<!-- 2&#45;&gt;5 -->
<g id="edge4" class="edge">
<title>2&#45;&gt;5</title>
<path fill="none" stroke="black" d="M215.4,-202.43C161.95,-197.01 45.62,-183.74 34,-170 6.17,-137.1 77.57,-122.5 124.92,-116.58"/>
<polygon fill="black" stroke="black" points="125.04,-120.09 134.57,-115.46 124.23,-113.14 125.04,-120.09"/>
<text text-anchor="start" x="38" y="-156.2" font-family="Courier New" font-weight="bold" font-size="12.00" fill="blue">NOTSTATE(M12_WATER_FULL,WIP1)</text>
</g>
<!-- 2&#45;&gt;5 -->
<g id="edge5" class="edge">
<title>2&#45;&gt;5</title>
<path fill="none" stroke="black" d="M249.98,-188.41C254.57,-176.24 258,-159.84 250,-148 238.96,-131.65 218.88,-122.94 200.79,-118.3"/>
<polygon fill="black" stroke="black" points="201.59,-114.89 191.08,-116.17 200.1,-121.73 201.59,-114.89"/>
<text text-anchor="start" x="258" y="-156.2" font-family="Courier New" font-weight="bold" font-size="12.00" fill="blue">NOTSTATE(M12_SHELF_FULL,WIP2)</text>
</g>
<!-- 5&#45;&gt;6 -->
<g id="edge7" class="edge">
<title>5&#45;&gt;6</title>
<path fill="none" stroke="black" d="M163,-93.7C163,-80.72 163,-62.66 163,-47.56"/>
<polygon fill="black" stroke="black" points="166.5,-47.74 163,-37.74 159.5,-47.74 166.5,-47.74"/>
<text text-anchor="start" x="167" y="-62.2" font-family="Courier New" font-weight="bold" font-size="12.00" fill="orange">WAIT(0,0)</text>
</g>
</g>
</svg>
