<?xml version="1.0" encoding="UTF-8" standalone="no"?>
<!DOCTYPE svg PUBLIC "-//W3C//DTD SVG 1.1//EN"
 "http://www.w3.org/Graphics/SVG/1.1/DTD/svg11.dtd">
<!-- Generated by graphviz version 7.1.0 (20230121.1956)
 -->
<!-- Title: Automaton Pages: 1 -->
<svg width="404pt" height="397pt"
 viewBox="0.00 0.00 404.00 397.00" xmlns="http://www.w3.org/2000/svg" xmlns:xlink="http://www.w3.org/1999/xlink">
<g id="graph0" class="graph" transform="scale(1 1) rotate(0) translate(4 393)">
<title>Automaton</title>
<polygon fill="white" stroke="none" points="-4,4 -4,-393 400,-393 400,4 -4,4"/>
<!-- filename -->
<g id="node1" class="node">
<title>filename</title>
<polygon fill="none" stroke="black" points="71,-336.5 71,-388.5 189,-388.5 189,-336.5 71,-336.5"/>
<polygon fill="none" stroke="black" points="82,-363.5 82,-381.5 178,-381.5 178,-363.5 82,-363.5"/>
<text text-anchor="start" x="87.99" y="-370.5" font-family="Courier New" font-weight="bold" font-size="10.00">M16_BLOBHOLDER</text>
<polygon fill="none" stroke="black" points="82,-343.5 82,-361.5 178,-361.5 178,-343.5 82,-343.5"/>
<text text-anchor="start" x="85" y="-349.5" font-family="Courier New" font-size="10.00" fill="brown">start state = 0</text>
<polygon fill="none" stroke="black" points="79,-340.5 79,-384.5 181,-384.5 181,-340.5 79,-340.5"/>
</g>
<!-- 0 -->
<g id="node2" class="node">
<title>0</title>
<polyline fill="none" stroke="darkred" points="227,-351.5 241,-351.5"/>
<text text-anchor="start" x="230" y="-358.9" font-family="Courier New" font-weight="bold" font-size="14.00">0</text>
<path fill="none" stroke="darkred" d="M230.67,-348.5C230.67,-348.5 237.33,-348.5 237.33,-348.5 240.67,-348.5 244,-351.83 244,-355.17 244,-355.17 244,-369.83 244,-369.83 244,-373.17 240.67,-376.5 237.33,-376.5 237.33,-376.5 230.67,-376.5 230.67,-376.5 227.33,-376.5 224,-373.17 224,-369.83 224,-369.83 224,-355.17 224,-355.17 224,-351.83 227.33,-348.5 230.67,-348.5"/>
</g>
<!-- ballpresent -->
<g id="node3" class="node">
<title>ballpresent</title>
<polyline fill="none" stroke="darkred" points="11,-215 109,-215"/>
<text text-anchor="start" x="14" y="-222.4" font-family="Courier New" font-weight="bold" font-size="14.00">ballpresent</text>
<path fill="none" stroke="darkred" d="M17.33,-212C17.33,-212 102.67,-212 102.67,-212 107.33,-212 112,-216.67 112,-221.33 112,-221.33 112,-230.67 112,-230.67 112,-235.33 107.33,-240 102.67,-240 102.67,-240 17.33,-240 17.33,-240 12.67,-240 8,-235.33 8,-230.67 8,-230.67 8,-221.33 8,-221.33 8,-216.67 12.67,-212 17.33,-212"/>
</g>
<!-- 0&#45;&gt;ballpresent -->
<g id="edge1" class="edge">
<title>0&#45;&gt;ballpresent</title>
<path fill="none" stroke="black" d="M214.1,-344.72C209.11,-341.3 203.59,-338.11 198,-336 162.46,-322.59 53.41,-346.24 28,-318 11.35,-299.5 18.99,-285.2 28,-262 29.27,-258.73 31,-255.58 33.01,-252.59"/>
<polygon fill="black" stroke="black" points="35.66,-254.88 39.19,-244.89 30.2,-250.51 35.66,-254.88"/>
<polygon fill="none" stroke="black" points="31,-297 31,-315 217,-315 217,-297 31,-297"/>
<text text-anchor="start" x="60.99" y="-304" font-family="Courier New" font-weight="bold" font-size="10.00" fill="blue">ACCEPT(,IDD_BLOBBALL)</text>
<polygon fill="none" stroke="black" points="31,-265 31,-295 217,-295 217,-265 31,-265"/>
<text text-anchor="start" x="34" y="-283" font-family="Courier New" font-size="10.00" fill="blue"> &#160;&#160;&#160;MOV(WOBJECT,IDD_BLOBBALL);</text>
<text text-anchor="start" x="34" y="-271" font-family="Courier New" font-size="10.00" fill="blue"> &#160;&#160;&#160;SHOW(WOBJECT);</text>
<polygon fill="none" stroke="black" points="28,-262 28,-318 220,-318 220,-262 28,-262"/>
</g>
<!-- ballempty -->
<g id="node4" class="node">
<title>ballempty</title>
<polyline fill="none" stroke="darkred" points="153,-99 234,-99"/>
<text text-anchor="start" x="156" y="-106.4" font-family="Courier New" font-weight="bold" font-size="14.00">ballempty</text>
<path fill="none" stroke="darkred" d="M158.83,-96C158.83,-96 227.17,-96 227.17,-96 231.83,-96 236.5,-100.67 236.5,-105.33 236.5,-105.33 236.5,-114.67 236.5,-114.67 236.5,-119.33 231.83,-124 227.17,-124 227.17,-124 158.83,-124 158.83,-124 154.17,-124 149.5,-119.33 149.5,-114.67 149.5,-114.67 149.5,-105.33 149.5,-105.33 149.5,-100.67 154.17,-96 158.83,-96"/>
</g>
<!-- ballpresent&#45;&gt;ballempty -->
<g id="edge4" class="edge">
<title>ballpresent&#45;&gt;ballempty</title>
<path fill="none" stroke="black" d="M63.09,-208.21C67.19,-190.45 76.12,-162.73 94,-146 104.35,-136.32 117.54,-129.29 130.89,-124.2"/>
<polygon fill="black" stroke="black" points="131.84,-127.57 140.15,-121.01 129.56,-120.96 131.84,-127.57"/>
<polygon fill="none" stroke="black" points="97,-169 97,-187 217,-187 217,-169 97,-169"/>
<text text-anchor="start" x="100" y="-176" font-family="Courier New" font-weight="bold" font-size="10.00" fill="orange">GRAB(,IDD_BLOBBALL)</text>
<polygon fill="none" stroke="black" points="97,-149 97,-167 217,-167 217,-149 97,-149"/>
<text text-anchor="start" x="136" y="-155" font-family="Courier New" font-size="10.00" fill="blue">SHOW();</text>
<polygon fill="none" stroke="black" points="94,-146 94,-190 220,-190 220,-146 94,-146"/>
</g>
<!-- ballempty&#45;&gt;0 -->
<g id="edge2" class="edge">
<title>ballempty&#45;&gt;0</title>
<path fill="none" stroke="black" d="M209.26,-127.91C213.5,-133.29 217.56,-139.54 220,-146 243.98,-209.53 241.04,-291.04 237.26,-333.28"/>
<polygon fill="black" stroke="black" points="233.79,-332.79 236.29,-343.08 240.76,-333.47 233.79,-332.79"/>
<text text-anchor="start" x="242" y="-224" font-family="Courier New" font-weight="bold" font-size="10.00" fill="orange">DROP(,)</text>
</g>
<!-- resetting -->
<g id="node5" class="node">
<title>resetting</title>
<polyline fill="none" stroke="darkred" points="212,-7 293,-7"/>
<text text-anchor="start" x="215" y="-14.4" font-family="Courier New" font-weight="bold" font-size="14.00">resetting</text>
<path fill="none" stroke="darkred" d="M217.83,-4C217.83,-4 286.17,-4 286.17,-4 290.83,-4 295.5,-8.67 295.5,-13.33 295.5,-13.33 295.5,-22.67 295.5,-22.67 295.5,-27.33 290.83,-32 286.17,-32 286.17,-32 217.83,-32 217.83,-32 213.17,-32 208.5,-27.33 208.5,-22.67 208.5,-22.67 208.5,-13.33 208.5,-13.33 208.5,-8.67 213.17,-4 217.83,-4"/>
</g>
<!-- ballempty&#45;&gt;resetting -->
<g id="edge3" class="edge">
<title>ballempty&#45;&gt;resetting</title>
<path fill="none" stroke="black" d="M189.32,-92.49C187.65,-80.95 187.32,-65.58 194,-54 196.38,-49.87 199.46,-46.18 202.95,-42.88"/>
<polygon fill="black" stroke="black" points="204.91,-45.79 210.55,-36.83 200.55,-40.32 204.91,-45.79"/>
<text text-anchor="start" x="198" y="-62" font-family="Courier New" font-weight="bold" font-size="10.00" fill="orange">WAIT(,SIG_RESET)</text>
</g>
<!-- resetting&#45;&gt;0 -->
<g id="edge5" class="edge">
<title>resetting&#45;&gt;0</title>
<path fill="none" stroke="black" d="M282.28,-35.68C288.61,-40.69 294.43,-46.81 298,-54 335.52,-129.7 312.65,-162.08 292,-244 283.61,-277.29 264.96,-312.15 251.06,-335.18"/>
<polygon fill="black" stroke="black" points="248.14,-333.24 245.86,-343.58 254.1,-336.92 248.14,-333.24"/>
<text text-anchor="start" x="320" y="-166" font-family="Courier New" font-weight="bold" font-size="10.00" fill="blue">Z_EPSILON(,)</text>
</g>
</g>
</svg>
