<?xml version="1.0" encoding="UTF-8" standalone="no"?>
<!DOCTYPE svg PUBLIC "-//W3C//DTD SVG 1.1//EN"
 "http://www.w3.org/Graphics/SVG/1.1/DTD/svg11.dtd">
<!-- Generated by graphviz version 7.1.0 (20230121.1956)
 -->
<!-- Title: Automaton Pages: 1 -->
<svg width="475pt" height="501pt"
 viewBox="0.00 0.00 475.00 501.00" xmlns="http://www.w3.org/2000/svg" xmlns:xlink="http://www.w3.org/1999/xlink">
<g id="graph0" class="graph" transform="scale(1 1) rotate(0) translate(4 497)">
<title>Automaton</title>
<polygon fill="white" stroke="none" points="-4,4 -4,-497 471,-497 471,4 -4,4"/>
<!-- filename -->
<g id="node1" class="node">
<title>filename</title>
<polygon fill="none" stroke="black" points="10,-440.5 10,-492.5 128,-492.5 128,-440.5 10,-440.5"/>
<polygon fill="none" stroke="black" points="21,-467.5 21,-485.5 117,-485.5 117,-467.5 21,-467.5"/>
<text text-anchor="start" x="24" y="-474.5" font-family="Courier New" font-weight="bold" font-size="10.00">M16_POTTERYDROP</text>
<polygon fill="none" stroke="black" points="21,-447.5 21,-465.5 117,-465.5 117,-447.5 21,-447.5"/>
<text text-anchor="start" x="24" y="-453.5" font-family="Courier New" font-size="10.00" fill="brown">start state = 0</text>
<polygon fill="none" stroke="black" points="18,-444.5 18,-488.5 120,-488.5 120,-444.5 18,-444.5"/>
</g>
<!-- 0 -->
<g id="node2" class="node">
<title>0</title>
<polyline fill="none" stroke="darkred" points="166,-455.5 180,-455.5"/>
<text text-anchor="start" x="169" y="-462.9" font-family="Courier New" font-weight="bold" font-size="14.00">0</text>
<path fill="none" stroke="darkred" d="M169.67,-452.5C169.67,-452.5 176.33,-452.5 176.33,-452.5 179.67,-452.5 183,-455.83 183,-459.17 183,-459.17 183,-473.83 183,-473.83 183,-477.17 179.67,-480.5 176.33,-480.5 176.33,-480.5 169.67,-480.5 169.67,-480.5 166.33,-480.5 163,-477.17 163,-473.83 163,-473.83 163,-459.17 163,-459.17 163,-455.83 166.33,-452.5 169.67,-452.5"/>
</g>
<!-- waitForDrop -->
<g id="node3" class="node">
<title>waitForDrop</title>
<polyline fill="none" stroke="darkred" points="124,-355 222,-355"/>
<text text-anchor="start" x="127" y="-362.4" font-family="Courier New" font-weight="bold" font-size="14.00">waitForDrop</text>
<path fill="none" stroke="darkred" d="M130.33,-352C130.33,-352 215.67,-352 215.67,-352 220.33,-352 225,-356.67 225,-361.33 225,-361.33 225,-370.67 225,-370.67 225,-375.33 220.33,-380 215.67,-380 215.67,-380 130.33,-380 130.33,-380 125.67,-380 121,-375.33 121,-370.67 121,-370.67 121,-361.33 121,-361.33 121,-356.67 125.67,-352 130.33,-352"/>
</g>
<!-- 0&#45;&gt;waitForDrop -->
<g id="edge1" class="edge">
<title>0&#45;&gt;waitForDrop</title>
<path fill="none" stroke="black" d="M173,-448.79C173,-434.14 173,-412.55 173,-395.23"/>
<polygon fill="black" stroke="black" points="176.5,-395.3 173,-385.3 169.5,-395.3 176.5,-395.3"/>
<text text-anchor="start" x="177" y="-410" font-family="Courier New" font-weight="bold" font-size="10.00" fill="blue">ACCEPT(WIP2,)</text>
</g>
<!-- containTalisman -->
<g id="node4" class="node">
<title>containTalisman</title>
<polyline fill="none" stroke="darkred" points="11,-215 143,-215"/>
<text text-anchor="start" x="14" y="-222.4" font-family="Courier New" font-weight="bold" font-size="14.00">containTalisman</text>
<path fill="none" stroke="darkred" d="M17.33,-212C17.33,-212 136.67,-212 136.67,-212 141.33,-212 146,-216.67 146,-221.33 146,-221.33 146,-230.67 146,-230.67 146,-235.33 141.33,-240 136.67,-240 136.67,-240 17.33,-240 17.33,-240 12.67,-240 8,-235.33 8,-230.67 8,-230.67 8,-221.33 8,-221.33 8,-216.67 12.67,-212 17.33,-212"/>
</g>
<!-- waitForDrop&#45;&gt;containTalisman -->
<g id="edge4" class="edge">
<title>waitForDrop&#45;&gt;containTalisman</title>
<path fill="none" stroke="black" d="M115.09,-348.22C106.63,-343.53 98.83,-337.57 93,-330 76.7,-308.83 73.88,-277.81 74.41,-255.35"/>
<polygon fill="black" stroke="black" points="77.91,-255.55 74.91,-245.39 70.91,-255.2 77.91,-255.55"/>
<polygon fill="none" stroke="black" points="96,-309 96,-327 258,-327 258,-309 96,-309"/>
<text text-anchor="start" x="150" y="-316" font-family="Courier New" font-weight="bold" font-size="10.00" fill="orange">DROP(0,0)</text>
<polygon fill="none" stroke="black" points="96,-265 96,-307 258,-307 258,-265 96,-265"/>
<text text-anchor="start" x="99" y="-295" font-family="Courier New" font-size="10.00" fill="blue"> &#160;&#160;&#160;ASSIGN(WPARM,1);</text>
<text text-anchor="start" x="99" y="-283" font-family="Courier New" font-size="10.00" fill="blue"> &#160;&#160;&#160;PLAYWAVE(SOUND_CLINK);</text>
<text text-anchor="start" x="99" y="-271" font-family="Courier New" font-size="10.00" fill="blue"> &#160;&#160;&#160;</text>
<polygon fill="none" stroke="black" points="93,-262 93,-330 261,-330 261,-262 93,-262"/>
</g>
<!-- showSparkle -->
<g id="node5" class="node">
<title>showSparkle</title>
<polyline fill="none" stroke="darkred" points="38,-99 136,-99"/>
<text text-anchor="start" x="41" y="-106.4" font-family="Courier New" font-weight="bold" font-size="14.00">showSparkle</text>
<path fill="none" stroke="darkred" d="M44.33,-96C44.33,-96 129.67,-96 129.67,-96 134.33,-96 139,-100.67 139,-105.33 139,-105.33 139,-114.67 139,-114.67 139,-119.33 134.33,-124 129.67,-124 129.67,-124 44.33,-124 44.33,-124 39.67,-124 35,-119.33 35,-114.67 35,-114.67 35,-105.33 35,-105.33 35,-100.67 39.67,-96 44.33,-96"/>
</g>
<!-- containTalisman&#45;&gt;showSparkle -->
<g id="edge2" class="edge">
<title>containTalisman&#45;&gt;showSparkle</title>
<path fill="none" stroke="black" d="M73.84,-208.19C71.35,-192.09 68.92,-167.17 73,-146 73.48,-143.49 74.14,-140.94 74.92,-138.41"/>
<polygon fill="black" stroke="black" points="78.17,-139.71 78.3,-129.12 71.59,-137.31 78.17,-139.71"/>
<polygon fill="none" stroke="black" points="76,-169 76,-187 250,-187 250,-169 76,-169"/>
<text text-anchor="start" x="126.99" y="-176" font-family="Courier New" font-weight="bold" font-size="10.00" fill="blue">Z_EPSILON(,)</text>
<polygon fill="none" stroke="black" points="76,-149 76,-167 250,-167 250,-149 76,-149"/>
<text text-anchor="start" x="79" y="-155" font-family="Courier New" font-size="10.00" fill="blue"> &#160;&#160;&#160;SIGNAL(WIP3,SIG_CHECK); </text>
<polygon fill="none" stroke="black" points="73,-146 73,-190 253,-190 253,-146 73,-146"/>
</g>
<!-- waitForReset -->
<g id="node6" class="node">
<title>waitForReset</title>
<polyline fill="none" stroke="darkred" points="135,-7 241,-7"/>
<text text-anchor="start" x="138" y="-14.4" font-family="Courier New" font-weight="bold" font-size="14.00">waitForReset</text>
<path fill="none" stroke="darkred" d="M141.33,-4C141.33,-4 234.67,-4 234.67,-4 239.33,-4 244,-8.67 244,-13.33 244,-13.33 244,-22.67 244,-22.67 244,-27.33 239.33,-32 234.67,-32 234.67,-32 141.33,-32 141.33,-32 136.67,-32 132,-27.33 132,-22.67 132,-22.67 132,-13.33 132,-13.33 132,-8.67 136.67,-4 141.33,-4"/>
</g>
<!-- showSparkle&#45;&gt;waitForReset -->
<g id="edge3" class="edge">
<title>showSparkle&#45;&gt;waitForReset</title>
<path fill="none" stroke="black" d="M98.71,-92.44C107.37,-80.87 119.9,-65.5 133,-54 137.68,-49.89 142.88,-45.94 148.18,-42.25"/>
<polygon fill="black" stroke="black" points="150.03,-45.22 156.44,-36.78 146.17,-39.39 150.03,-45.22"/>
<text text-anchor="start" x="137" y="-62" font-family="Courier New" font-weight="bold" font-size="10.00" fill="blue">ASHOW(0,IDS_SPARKLE)</text>
</g>
<!-- waitForReset&#45;&gt;waitForDrop -->
<g id="edge5" class="edge">
<title>waitForReset&#45;&gt;waitForDrop</title>
<path fill="none" stroke="black" d="M241.87,-35.91C249.47,-40.58 256.28,-46.51 261,-54 326.35,-157.81 329.87,-228.49 261,-330 256.3,-336.92 250,-342.48 242.91,-346.93"/>
<polygon fill="black" stroke="black" points="241.32,-343.81 234.17,-351.63 244.63,-349.98 241.32,-343.81"/>
<polygon fill="none" stroke="black" points="314,-169 314,-187 464,-187 464,-169 314,-169"/>
<text text-anchor="start" x="337.99" y="-176" font-family="Courier New" font-weight="bold" font-size="10.00" fill="orange">WAIT(0,SIG_RESET)</text>
<polygon fill="none" stroke="black" points="314,-149 314,-167 464,-167 464,-149 314,-149"/>
<text text-anchor="start" x="317" y="-155" font-family="Courier New" font-size="10.00" fill="blue">ASHOW();ASSIGN(WPARM,0);</text>
<polygon fill="none" stroke="black" points="311,-146 311,-190 467,-190 467,-146 311,-146"/>
</g>
</g>
</svg>
