<?xml version="1.0" encoding="UTF-8" standalone="no"?>
<!DOCTYPE svg PUBLIC "-//W3C//DTD SVG 1.1//EN"
 "http://www.w3.org/Graphics/SVG/1.1/DTD/svg11.dtd">
<!-- Generated by graphviz version 7.1.0 (20230121.1956)
 -->
<!-- Title: Automaton Pages: 1 -->
<svg width="519pt" height="249pt"
 viewBox="0.00 0.00 519.44 249.00" xmlns="http://www.w3.org/2000/svg" xmlns:xlink="http://www.w3.org/1999/xlink">
<g id="graph0" class="graph" transform="scale(1 1) rotate(0) translate(4 245)">
<title>Automaton</title>
<polygon fill="white" stroke="none" points="-4,4 -4,-245 515.44,-245 515.44,4 -4,4"/>
<!-- filename -->
<g id="node1" class="node">
<title>filename</title>
<polygon fill="none" stroke="black" points="3.44,-188.5 3.44,-240.5 121.44,-240.5 121.44,-188.5 3.44,-188.5"/>
<polygon fill="none" stroke="black" points="14.44,-215.5 14.44,-233.5 110.44,-233.5 110.44,-215.5 14.44,-215.5"/>
<text text-anchor="start" x="29.44" y="-222.5" font-family="Courier New" font-weight="bold" font-size="10.00">M16_PAYGRAB</text>
<polygon fill="none" stroke="black" points="14.44,-195.5 14.44,-213.5 110.44,-213.5 110.44,-195.5 14.44,-195.5"/>
<text text-anchor="start" x="17.44" y="-201.5" font-family="Courier New" font-size="10.00" fill="brown">start state = 0</text>
<polygon fill="none" stroke="black" points="11.44,-192.5 11.44,-236.5 113.44,-236.5 113.44,-192.5 11.44,-192.5"/>
</g>
<!-- 0 -->
<g id="node2" class="node">
<title>0</title>
<polyline fill="none" stroke="darkred" points="159.44,-203.5 173.44,-203.5"/>
<text text-anchor="start" x="162.44" y="-210.9" font-family="Courier New" font-weight="bold" font-size="14.00">0</text>
<path fill="none" stroke="darkred" d="M163.11,-200.5C163.11,-200.5 169.78,-200.5 169.78,-200.5 173.11,-200.5 176.44,-203.83 176.44,-207.17 176.44,-207.17 176.44,-221.83 176.44,-221.83 176.44,-225.17 173.11,-228.5 169.78,-228.5 169.78,-228.5 163.11,-228.5 163.11,-228.5 159.78,-228.5 156.44,-225.17 156.44,-221.83 156.44,-221.83 156.44,-207.17 156.44,-207.17 156.44,-203.83 159.78,-200.5 163.11,-200.5"/>
</g>
<!-- open_bin -->
<g id="node3" class="node">
<title>open_bin</title>
<polyline fill="none" stroke="darkred" points="130.44,-7 203.44,-7"/>
<text text-anchor="start" x="133.44" y="-14.4" font-family="Courier New" font-weight="bold" font-size="14.00">open_bin</text>
<path fill="none" stroke="darkred" d="M136.28,-4C136.28,-4 196.61,-4 196.61,-4 201.28,-4 205.94,-8.67 205.94,-13.33 205.94,-13.33 205.94,-22.67 205.94,-22.67 205.94,-27.33 201.28,-32 196.61,-32 196.61,-32 136.28,-32 136.28,-32 131.61,-32 126.94,-27.33 126.94,-22.67 126.94,-22.67 126.94,-13.33 126.94,-13.33 126.94,-8.67 131.61,-4 136.28,-4"/>
</g>
<!-- 0&#45;&gt;open_bin -->
<g id="edge1" class="edge">
<title>0&#45;&gt;open_bin</title>
<path fill="none" stroke="black" d="M146.06,-196.71C141.18,-193.38 135.82,-190.23 130.44,-188 86.29,-169.73 55.27,-206.51 24.44,-170 -8.82,-130.61 -7.35,-94.58 24.44,-54 35.01,-40.52 73.87,-31.53 108.27,-26.04"/>
<polygon fill="black" stroke="black" points="108.38,-29.56 117.74,-24.6 107.33,-22.64 108.38,-29.56"/>
<polygon fill="none" stroke="black" points="27.44,-113 27.44,-131 141.44,-131 141.44,-113 27.44,-113"/>
<text text-anchor="start" x="36.44" y="-120" font-family="Courier New" font-weight="bold" font-size="10.00" fill="orange">WAIT(0,SIG_OPEN)</text>
<polygon fill="none" stroke="black" points="27.44,-93 27.44,-111 141.44,-111 141.44,-93 27.44,-93"/>
<text text-anchor="start" x="30.44" y="-99" font-family="Courier New" font-size="10.00" fill="blue">REF_MACHINE(WIP2);</text>
<polygon fill="none" stroke="black" points="24.44,-90 24.44,-134 144.44,-134 144.44,-90 24.44,-90"/>
</g>
<!-- open_bin&#45;&gt;0 -->
<g id="edge2" class="edge">
<title>open_bin&#45;&gt;0</title>
<path fill="none" stroke="black" d="M166.44,-35.74C166.44,-69.09 166.44,-144.11 166.44,-185.23"/>
<polygon fill="black" stroke="black" points="162.94,-185.07 166.44,-195.07 169.94,-185.07 162.94,-185.07"/>
<polygon fill="none" stroke="black" points="169.44,-149 169.44,-167 373.44,-167 373.44,-149 169.44,-149"/>
<text text-anchor="start" x="238.44" y="-156" font-family="Courier New" font-weight="bold" font-size="10.00" fill="orange">GRAB(WIP1,)</text>
<polygon fill="none" stroke="black" points="169.44,-57 169.44,-147 373.44,-147 373.44,-57 169.44,-57"/>
<text text-anchor="start" x="172.44" y="-135" font-family="Courier New" font-size="10.00" fill="blue"> &#160;&#160;&#160;if(R_WPARM != R_BPARM){</text>
<text text-anchor="start" x="172.44" y="-123" font-family="Courier New" font-size="10.00" fill="blue"> &#160;&#160;&#160;&#160;&#160;&#160;&#160;ADDI(LKARMA,1);</text>
<text text-anchor="start" x="172.44" y="-111" font-family="Courier New" font-size="10.00" fill="blue"> &#160;&#160;&#160;&#160;&#160;&#160;&#160;SIGNAL(SID_HALO,SIG_ADD);</text>
<text text-anchor="start" x="172.44" y="-99" font-family="Courier New" font-size="10.00" fill="blue"> &#160;&#160;&#160;&#160;&#160;&#160;&#160;PLAYWAVE(0,SOUND_CLUNK);</text>
<text text-anchor="start" x="172.44" y="-87" font-family="Courier New" font-size="10.00" fill="blue"> &#160;&#160;&#160;}</text>
<text text-anchor="start" x="172.44" y="-75" font-family="Courier New" font-size="10.00" fill="blue"> &#160;&#160;&#160;SIGNAL(WIP3,SIG_OFF);</text>
<text text-anchor="start" x="172.44" y="-63" font-family="Courier New" font-size="10.00" fill="blue"> &#160;&#160;&#160;SIGNAL(WIP2,SIG_OFF);</text>
<polygon fill="none" stroke="black" points="166.44,-54 166.44,-170 376.44,-170 376.44,-54 166.44,-54"/>
</g>
<!-- open_bin&#45;&gt;0 -->
<g id="edge3" class="edge">
<title>open_bin&#45;&gt;0</title>
<path fill="none" stroke="black" d="M213.5,-19.98C269.15,-22.26 356.85,-29.71 377.44,-54 410.78,-93.33 410.01,-130.03 377.44,-170 356.04,-196.27 259.22,-207.15 204.47,-211.26"/>
<polygon fill="black" stroke="black" points="204.38,-207.75 194.66,-211.95 204.88,-214.74 204.38,-207.75"/>
<text text-anchor="start" x="405.44" y="-110" font-family="Courier New" font-weight="bold" font-size="10.00" fill="orange">WAIT(0,SIG_CLOSE)</text>
</g>
</g>
</svg>
