<?xml version="1.0" encoding="UTF-8" standalone="no"?>
<!DOCTYPE svg PUBLIC "-//W3C//DTD SVG 1.1//EN"
 "http://www.w3.org/Graphics/SVG/1.1/DTD/svg11.dtd">
<!-- Generated by graphviz version 7.1.0 (20230121.1956)
 -->
<!-- Title: Automaton Pages: 1 -->
<svg width="492pt" height="385pt"
 viewBox="0.00 0.00 492.42 385.00" xmlns="http://www.w3.org/2000/svg" xmlns:xlink="http://www.w3.org/1999/xlink">
<g id="graph0" class="graph" transform="scale(1 1) rotate(0) translate(4 381)">
<title>Automaton</title>
<polygon fill="white" stroke="none" points="-4,4 -4,-381 488.42,-381 488.42,4 -4,4"/>
<!-- filename -->
<g id="node1" class="node">
<title>filename</title>
<polygon fill="none" stroke="black" points="75.42,-324.5 75.42,-376.5 193.42,-376.5 193.42,-324.5 75.42,-324.5"/>
<polygon fill="none" stroke="black" points="86.42,-351.5 86.42,-369.5 182.42,-369.5 182.42,-351.5 86.42,-351.5"/>
<text text-anchor="start" x="98.42" y="-358.5" font-family="Courier New" font-weight="bold" font-size="10.00">M16_BLOBDROP</text>
<polygon fill="none" stroke="black" points="86.42,-331.5 86.42,-349.5 182.42,-349.5 182.42,-331.5 86.42,-331.5"/>
<text text-anchor="start" x="89.42" y="-337.5" font-family="Courier New" font-size="10.00" fill="brown">start state = 0</text>
<polygon fill="none" stroke="black" points="83.42,-328.5 83.42,-372.5 185.42,-372.5 185.42,-328.5 83.42,-328.5"/>
</g>
<!-- 0 -->
<g id="node2" class="node">
<title>0</title>
<polyline fill="none" stroke="darkred" points="231.42,-339.5 245.42,-339.5"/>
<text text-anchor="start" x="234.42" y="-346.9" font-family="Courier New" font-weight="bold" font-size="14.00">0</text>
<path fill="none" stroke="darkred" d="M235.09,-336.5C235.09,-336.5 241.76,-336.5 241.76,-336.5 245.09,-336.5 248.42,-339.83 248.42,-343.17 248.42,-343.17 248.42,-357.83 248.42,-357.83 248.42,-361.17 245.09,-364.5 241.76,-364.5 241.76,-364.5 235.09,-364.5 235.09,-364.5 231.76,-364.5 228.42,-361.17 228.42,-357.83 228.42,-357.83 228.42,-343.17 228.42,-343.17 228.42,-339.83 231.76,-336.5 235.09,-336.5"/>
</g>
<!-- 2 -->
<g id="node3" class="node">
<title>2</title>
<polyline fill="none" stroke="darkred" points="121.42,-215 135.42,-215"/>
<text text-anchor="start" x="124.42" y="-222.4" font-family="Courier New" font-weight="bold" font-size="14.00">2</text>
<path fill="none" stroke="darkred" d="M125.09,-212C125.09,-212 131.76,-212 131.76,-212 135.09,-212 138.42,-215.33 138.42,-218.67 138.42,-218.67 138.42,-233.33 138.42,-233.33 138.42,-236.67 135.09,-240 131.76,-240 131.76,-240 125.09,-240 125.09,-240 121.76,-240 118.42,-236.67 118.42,-233.33 118.42,-233.33 118.42,-218.67 118.42,-218.67 118.42,-215.33 121.76,-212 125.09,-212"/>
</g>
<!-- 0&#45;&gt;2 -->
<g id="edge1" class="edge">
<title>0&#45;&gt;2</title>
<path fill="none" stroke="black" d="M218.54,-332.67C213.56,-329.25 208.03,-326.07 202.42,-324 162.03,-309.04 38.43,-337.84 9.42,-306 -3.75,-291.54 -2.29,-277.66 9.42,-262 27.94,-237.26 63.09,-229.26 90.4,-227"/>
<polygon fill="black" stroke="black" points="90.27,-230.52 100.05,-226.44 89.86,-223.53 90.27,-230.52"/>
<text text-anchor="start" x="13.42" y="-282" font-family="Courier New" font-weight="bold" font-size="10.00" fill="blue">O_ACCEPT(0,IDD_BLOBBALL)</text>
</g>
<!-- 2&#45;&gt;0 -->
<g id="edge3" class="edge">
<title>2&#45;&gt;0</title>
<path fill="none" stroke="black" d="M146.21,-243.98C151.45,-249.46 156.97,-255.74 161.42,-262 174.22,-279.97 170.43,-288.94 184.42,-306 190.17,-313 197.2,-319.64 204.27,-325.54"/>
<polygon fill="black" stroke="black" points="201.94,-328.16 211.96,-331.63 206.29,-322.67 201.94,-328.16"/>
<polygon fill="none" stroke="black" points="187.42,-285 187.42,-303 277.42,-303 277.42,-285 187.42,-285"/>
<text text-anchor="start" x="190.42" y="-292" font-family="Courier New" font-weight="bold" font-size="10.00" fill="orange">GRAB(WOBJECT,)</text>
<polygon fill="none" stroke="black" points="187.42,-265 187.42,-283 277.42,-283 277.42,-265 187.42,-265"/>
<text text-anchor="start" x="211.42" y="-271" font-family="Courier New" font-size="10.00" fill="blue">SHOW();</text>
<polygon fill="none" stroke="black" points="184.42,-262 184.42,-306 280.42,-306 280.42,-262 184.42,-262"/>
</g>
<!-- 3 -->
<g id="node4" class="node">
<title>3</title>
<polyline fill="none" stroke="darkred" points="113.42,-99 127.42,-99"/>
<text text-anchor="start" x="116.42" y="-106.4" font-family="Courier New" font-weight="bold" font-size="14.00">3</text>
<path fill="none" stroke="darkred" d="M117.09,-96C117.09,-96 123.76,-96 123.76,-96 127.09,-96 130.42,-99.33 130.42,-102.67 130.42,-102.67 130.42,-117.33 130.42,-117.33 130.42,-120.67 127.09,-124 123.76,-124 123.76,-124 117.09,-124 117.09,-124 113.76,-124 110.42,-120.67 110.42,-117.33 110.42,-117.33 110.42,-102.67 110.42,-102.67 110.42,-99.33 113.76,-96 117.09,-96"/>
</g>
<!-- 2&#45;&gt;3 -->
<g id="edge2" class="edge">
<title>2&#45;&gt;3</title>
<path fill="none" stroke="black" d="M101.8,-208.13C96,-203.06 90.64,-196.97 87.42,-190 79.23,-172.24 80.21,-164.18 87.42,-146 88.71,-142.77 90.45,-139.66 92.46,-136.72"/>
<polygon fill="black" stroke="black" points="95.03,-139.11 98.64,-129.15 89.61,-134.68 95.03,-139.11"/>
<text text-anchor="start" x="91.42" y="-166" font-family="Courier New" font-weight="bold" font-size="10.00" fill="orange">DROP(0,0)</text>
</g>
<!-- 5 -->
<g id="node5" class="node">
<title>5</title>
<polyline fill="none" stroke="darkred" points="253.42,-99 267.42,-99"/>
<text text-anchor="start" x="256.42" y="-106.4" font-family="Courier New" font-weight="bold" font-size="14.00">5</text>
<path fill="none" stroke="darkred" d="M257.09,-96C257.09,-96 263.76,-96 263.76,-96 267.09,-96 270.42,-99.33 270.42,-102.67 270.42,-102.67 270.42,-117.33 270.42,-117.33 270.42,-120.67 267.09,-124 263.76,-124 263.76,-124 257.09,-124 257.09,-124 253.76,-124 250.42,-120.67 250.42,-117.33 250.42,-117.33 250.42,-102.67 250.42,-102.67 250.42,-99.33 253.76,-96 257.09,-96"/>
</g>
<!-- 2&#45;&gt;5 -->
<g id="edge4" class="edge">
<title>2&#45;&gt;5</title>
<path fill="none" stroke="black" d="M138.88,-208.03C142.31,-202.34 146.1,-195.93 149.42,-190 160.22,-170.75 156.04,-160.78 172.42,-146 186.55,-133.26 205.87,-124.89 222.81,-119.54"/>
<polygon fill="black" stroke="black" points="223.44,-123 232.07,-116.86 221.49,-116.28 223.44,-123"/>
<polygon fill="none" stroke="black" points="175.42,-169 175.42,-187 277.42,-187 277.42,-169 175.42,-169"/>
<text text-anchor="start" x="178.42" y="-176" font-family="Courier New" font-weight="bold" font-size="10.00" fill="orange">WAIT(,SIG_RESET)</text>
<polygon fill="none" stroke="black" points="175.42,-149 175.42,-167 277.42,-167 277.42,-149 175.42,-149"/>
<text text-anchor="start" x="205.42" y="-155" font-family="Courier New" font-size="10.00" fill="blue">SHOW();</text>
<polygon fill="none" stroke="black" points="172.42,-146 172.42,-190 280.42,-190 280.42,-146 172.42,-146"/>
</g>
<!-- 4 -->
<g id="node6" class="node">
<title>4</title>
<polyline fill="none" stroke="darkred" points="305.42,-7 319.42,-7"/>
<text text-anchor="start" x="308.42" y="-14.4" font-family="Courier New" font-weight="bold" font-size="14.00">4</text>
<path fill="none" stroke="darkred" d="M309.09,-4C309.09,-4 315.76,-4 315.76,-4 319.09,-4 322.42,-7.33 322.42,-10.67 322.42,-10.67 322.42,-25.33 322.42,-25.33 322.42,-28.67 319.09,-32 315.76,-32 315.76,-32 309.09,-32 309.09,-32 305.76,-32 302.42,-28.67 302.42,-25.33 302.42,-25.33 302.42,-10.67 302.42,-10.67 302.42,-7.33 305.76,-4 309.09,-4"/>
</g>
<!-- 3&#45;&gt;4 -->
<g id="edge5" class="edge">
<title>3&#45;&gt;4</title>
<path fill="none" stroke="black" d="M147.12,-96.49C180.56,-80.81 238.01,-53.88 275.6,-36.26"/>
<polygon fill="black" stroke="black" points="276.7,-39.61 284.27,-32.19 273.73,-33.27 276.7,-39.61"/>
<text text-anchor="start" x="237.42" y="-62" font-family="Courier New" font-weight="bold" font-size="10.00" fill="blue">MOV(WSPRITE,WIP1)</text>
</g>
<!-- 5&#45;&gt;0 -->
<g id="edge7" class="edge">
<title>5&#45;&gt;0</title>
<path fill="none" stroke="black" d="M272.29,-127.67C275.59,-133.23 278.73,-139.64 280.42,-146 298.68,-214.73 307.06,-240.07 280.42,-306 277.69,-312.77 273.34,-319.07 268.45,-324.66"/>
<polygon fill="black" stroke="black" points="266.03,-322.14 261.55,-331.74 271.04,-327.03 266.03,-322.14"/>
<text text-anchor="start" x="300.42" y="-224" font-family="Courier New" font-weight="bold" font-size="10.00" fill="blue">Z_EPSILON(,)</text>
</g>
<!-- 4&#45;&gt;0 -->
<g id="edge6" class="edge">
<title>4&#45;&gt;0</title>
<path fill="none" stroke="black" d="M333.19,-35.85C338.54,-41.15 343.81,-47.36 347.42,-54 398.64,-148.15 402.95,-198.03 380.42,-244 359.05,-287.61 309.89,-317.6 275.44,-334.16"/>
<polygon fill="black" stroke="black" points="274.24,-330.85 266.64,-338.23 277.18,-337.2 274.24,-330.85"/>
<text text-anchor="start" x="396.42" y="-166" font-family="Courier New" font-weight="bold" font-size="10.00" fill="blue">SHOW(WSPRITE,)</text>
</g>
</g>
</svg>
