<?xml version="1.0" encoding="UTF-8" standalone="no"?>
<!DOCTYPE svg PUBLIC "-//W3C//DTD SVG 1.1//EN"
 "http://www.w3.org/Graphics/SVG/1.1/DTD/svg11.dtd">
<!-- Generated by graphviz version 7.1.0 (20230121.1956)
 -->
<!-- Title: Automaton Pages: 1 -->
<svg width="444pt" height="292pt"
 viewBox="0.00 0.00 444.00 292.00" xmlns="http://www.w3.org/2000/svg" xmlns:xlink="http://www.w3.org/1999/xlink">
<g id="graph0" class="graph" transform="scale(1 1) rotate(0) translate(4 288)">
<title>Automaton</title>
<polygon fill="white" stroke="none" points="-4,4 -4,-288 440,-288 440,4 -4,4"/>
<!-- filename -->
<g id="node1" class="node">
<title>filename</title>
<polygon fill="none" stroke="black" points="0,-116 0,-168 118,-168 118,-116 0,-116"/>
<polygon fill="none" stroke="black" points="11,-143 11,-161 107,-161 107,-143 11,-143"/>
<text text-anchor="start" x="19.99" y="-150" font-family="Courier New" font-weight="bold" font-size="10.00">M16_BLOBRESET</text>
<polygon fill="none" stroke="black" points="11,-123 11,-141 107,-141 107,-123 11,-123"/>
<text text-anchor="start" x="14" y="-129" font-family="Courier New" font-size="10.00" fill="brown">start state = 0</text>
<polygon fill="none" stroke="black" points="8,-120 8,-164 110,-164 110,-120 8,-120"/>
</g>
<!-- 0 -->
<g id="node2" class="node">
<title>0</title>
<polyline fill="none" stroke="darkred" points="156,-131 170,-131"/>
<text text-anchor="start" x="159" y="-138.4" font-family="Courier New" font-weight="bold" font-size="14.00">0</text>
<path fill="none" stroke="darkred" d="M159.67,-128C159.67,-128 166.33,-128 166.33,-128 169.67,-128 173,-131.33 173,-134.67 173,-134.67 173,-149.33 173,-149.33 173,-152.67 169.67,-156 166.33,-156 166.33,-156 159.67,-156 159.67,-156 156.33,-156 153,-152.67 153,-149.33 153,-149.33 153,-134.67 153,-134.67 153,-131.33 156.33,-128 159.67,-128"/>
</g>
<!-- 0&#45;&gt;0 -->
<g id="edge1" class="edge">
<title>0&#45;&gt;0</title>
<path fill="none" stroke="black" d="M189.79,-148.74C199.78,-148.96 208,-146.71 208,-142 208,-139.28 205.25,-137.38 201.01,-136.3"/>
<polygon fill="black" stroke="black" points="201.58,-132.84 191.3,-135.4 200.94,-139.81 201.58,-132.84"/>
<polygon fill="none" stroke="black" points="211,-263 211,-281 433,-281 433,-263 211,-263"/>
<text text-anchor="start" x="295" y="-270" font-family="Courier New" font-weight="bold" font-size="10.00" fill="orange">CLICK(0,)</text>
<polygon fill="none" stroke="black" points="211,-3 211,-261 433,-261 433,-3 211,-3"/>
<text text-anchor="start" x="214" y="-249" font-family="Courier New" font-size="10.00" fill="blue"> &#160;&#160;SIGNAL(S16_BLOBHOLD1,SIG_RESET);</text>
<text text-anchor="start" x="214" y="-237" font-family="Courier New" font-size="10.00" fill="blue"> &#160;&#160;SIGNAL(S16_BLOBHOLD2,SIG_RESET);</text>
<text text-anchor="start" x="214" y="-225" font-family="Courier New" font-size="10.00" fill="blue"> &#160;&#160;SIGNAL(S16_BLOBHOLD3,SIG_RESET);</text>
<text text-anchor="start" x="214" y="-213" font-family="Courier New" font-size="10.00" fill="blue"> &#160;&#160;SIGNAL(S16_BLOBHOLD4,SIG_RESET);</text>
<text text-anchor="start" x="214" y="-201" font-family="Courier New" font-size="10.00" fill="blue"> &#160;&#160;SIGNAL(S16_BLOBHOLD5,SIG_RESET);</text>
<text text-anchor="start" x="214" y="-189" font-family="Courier New" font-size="10.00" fill="blue"> &#160;&#160;SIGNAL(S16_BLOBHOLD6,SIG_RESET);</text>
<text text-anchor="start" x="214" y="-177" font-family="Courier New" font-size="10.00" fill="blue"> &#160;&#160;SIGNAL(S16_BLOBHOLD7,SIG_RESET);</text>
<text text-anchor="start" x="214" y="-165" font-family="Courier New" font-size="10.00" fill="blue"> &#160;&#160;SIGNAL(S16_BLOBHOLD8,SIG_RESET);</text>
<text text-anchor="start" x="214" y="-153" font-family="Courier New" font-size="10.00" fill="blue"> &#160;&#160;SIGNAL(S16_BLOBHOLD9,SIG_RESET);</text>
<text text-anchor="start" x="214" y="-141" font-family="Courier New" font-size="10.00" fill="blue"> &#160;&#160;SIGNAL(S16_BLOBHOLD10,SIG_RESET);</text>
<text text-anchor="start" x="214" y="-129" font-family="Courier New" font-size="10.00" fill="blue"> &#160;&#160;SIGNAL(S16_BLOBHOLD11,SIG_RESET);</text>
<text text-anchor="start" x="214" y="-117" font-family="Courier New" font-size="10.00" fill="blue"> &#160;&#160;SIGNAL(S16_BLOBHOLD12,SIG_RESET);</text>
<text text-anchor="start" x="214" y="-105" font-family="Courier New" font-size="10.00" fill="blue"> &#160;&#160;SIGNAL(S16_BLOBHOLD13,SIG_RESET);</text>
<text text-anchor="start" x="214" y="-93" font-family="Courier New" font-size="10.00" fill="blue"> &#160;&#160;SIGNAL(S16_BLOBHOLD14,SIG_RESET);</text>
<text text-anchor="start" x="214" y="-81" font-family="Courier New" font-size="10.00" fill="blue"> &#160;&#160;SIGNAL(S16_BLOBHOLD15,SIG_RESET);</text>
<text text-anchor="start" x="214" y="-69" font-family="Courier New" font-size="10.00" fill="blue"> &#160;&#160;SIGNAL(S16_BLOBHOLD16,SIG_RESET);</text>
<text text-anchor="start" x="214" y="-57" font-family="Courier New" font-size="10.00" fill="blue"> &#160;&#160;SIGNAL(S16_BLOBFILL1,SIG_RESET);</text>
<text text-anchor="start" x="214" y="-45" font-family="Courier New" font-size="10.00" fill="blue"> &#160;&#160;SIGNAL(S16_BLOBFILL2,SIG_RESET);</text>
<text text-anchor="start" x="214" y="-33" font-family="Courier New" font-size="10.00" fill="blue"> &#160;&#160;SIGNAL(S16_BLOBFILL3,SIG_RESET);</text>
<text text-anchor="start" x="214" y="-21" font-family="Courier New" font-size="10.00" fill="blue"> &#160;&#160;SIGNAL(S16_BLOBFILL4,SIG_RESET);</text>
<text text-anchor="start" x="214" y="-9" font-family="Courier New" font-size="10.00" fill="blue"> &#160;&#160;SIGNAL(S16_BLOBFILL5,SIG_RESET); </text>
<polygon fill="none" stroke="black" points="208,0 208,-284 436,-284 436,0 208,0"/>
</g>
</g>
</svg>
