<?xml version="1.0" encoding="UTF-8" standalone="no"?>
<!DOCTYPE svg PUBLIC "-//W3C//DTD SVG 1.1//EN"
 "http://www.w3.org/Graphics/SVG/1.1/DTD/svg11.dtd">
<!-- Generated by graphviz version 7.1.0 (20230121.1956)
 -->
<!-- Title: Automaton Pages: 1 -->
<svg width="378pt" height="385pt"
 viewBox="0.00 0.00 378.00 385.00" xmlns="http://www.w3.org/2000/svg" xmlns:xlink="http://www.w3.org/1999/xlink">
<g id="graph0" class="graph" transform="scale(1 1) rotate(0) translate(4 381)">
<title>Automaton</title>
<polygon fill="white" stroke="none" points="-4,4 -4,-381 374,-381 374,4 -4,4"/>
<!-- filename -->
<g id="node1" class="node">
<title>filename</title>
<polygon fill="none" stroke="black" points="44,-324.5 44,-376.5 162,-376.5 162,-324.5 44,-324.5"/>
<polygon fill="none" stroke="black" points="55,-351.5 55,-369.5 151,-369.5 151,-351.5 55,-351.5"/>
<text text-anchor="start" x="60.99" y="-358.5" font-family="Courier New" font-weight="bold" font-size="10.00">M16_BLOBHOLDER</text>
<polygon fill="none" stroke="black" points="55,-331.5 55,-349.5 151,-349.5 151,-331.5 55,-331.5"/>
<text text-anchor="start" x="58" y="-337.5" font-family="Courier New" font-size="10.00" fill="brown">start state = 0</text>
<polygon fill="none" stroke="black" points="52,-328.5 52,-372.5 154,-372.5 154,-328.5 52,-328.5"/>
</g>
<!-- 0 -->
<g id="node2" class="node">
<title>0</title>
<polyline fill="none" stroke="darkred" points="200,-339.5 214,-339.5"/>
<text text-anchor="start" x="203" y="-346.9" font-family="Courier New" font-weight="bold" font-size="14.00">0</text>
<path fill="none" stroke="darkred" d="M203.67,-336.5C203.67,-336.5 210.33,-336.5 210.33,-336.5 213.67,-336.5 217,-339.83 217,-343.17 217,-343.17 217,-357.83 217,-357.83 217,-361.17 213.67,-364.5 210.33,-364.5 210.33,-364.5 203.67,-364.5 203.67,-364.5 200.33,-364.5 197,-361.17 197,-357.83 197,-357.83 197,-343.17 197,-343.17 197,-339.83 200.33,-336.5 203.67,-336.5"/>
</g>
<!-- ballpresent -->
<g id="node3" class="node">
<title>ballpresent</title>
<polyline fill="none" stroke="darkred" points="11,-215 109,-215"/>
<text text-anchor="start" x="14" y="-222.4" font-family="Courier New" font-weight="bold" font-size="14.00">ballpresent</text>
<path fill="none" stroke="darkred" d="M17.33,-212C17.33,-212 102.67,-212 102.67,-212 107.33,-212 112,-216.67 112,-221.33 112,-221.33 112,-230.67 112,-230.67 112,-235.33 107.33,-240 102.67,-240 102.67,-240 17.33,-240 17.33,-240 12.67,-240 8,-235.33 8,-230.67 8,-230.67 8,-221.33 8,-221.33 8,-216.67 12.67,-212 17.33,-212"/>
</g>
<!-- 0&#45;&gt;ballpresent -->
<g id="edge1" class="edge">
<title>0&#45;&gt;ballpresent</title>
<path fill="none" stroke="black" d="M186.64,-332.65C181.76,-329.32 176.39,-326.19 171,-324 122.65,-304.4 88.95,-345.62 55,-306 43.16,-292.18 44.91,-271.51 49.35,-254.79"/>
<polygon fill="black" stroke="black" points="52.64,-256 52.28,-245.41 45.96,-253.92 52.64,-256"/>
<polygon fill="none" stroke="black" points="58,-285 58,-303 190,-303 190,-285 58,-285"/>
<text text-anchor="start" x="63.99" y="-292" font-family="Courier New" font-weight="bold" font-size="10.00" fill="blue">SHOW(0,IDD_BLOBBALL)</text>
<polygon fill="none" stroke="black" points="58,-265 58,-283 190,-283 190,-265 58,-265"/>
<text text-anchor="start" x="61" y="-271" font-family="Courier New" font-size="10.00" fill="blue">ACCEPT(IDD_BLOBBALL);</text>
<polygon fill="none" stroke="black" points="55,-262 55,-306 193,-306 193,-262 55,-262"/>
</g>
<!-- ballempty -->
<g id="node4" class="node">
<title>ballempty</title>
<polyline fill="none" stroke="darkred" points="126,-99 207,-99"/>
<text text-anchor="start" x="129" y="-106.4" font-family="Courier New" font-weight="bold" font-size="14.00">ballempty</text>
<path fill="none" stroke="darkred" d="M131.83,-96C131.83,-96 200.17,-96 200.17,-96 204.83,-96 209.5,-100.67 209.5,-105.33 209.5,-105.33 209.5,-114.67 209.5,-114.67 209.5,-119.33 204.83,-124 200.17,-124 200.17,-124 131.83,-124 131.83,-124 127.17,-124 122.5,-119.33 122.5,-114.67 122.5,-114.67 122.5,-105.33 122.5,-105.33 122.5,-100.67 127.17,-96 131.83,-96"/>
</g>
<!-- ballpresent&#45;&gt;ballempty -->
<g id="edge4" class="edge">
<title>ballpresent&#45;&gt;ballempty</title>
<path fill="none" stroke="black" d="M56.65,-208.32C54.17,-190.91 53.25,-163.73 67,-146 76.17,-134.18 89.64,-126.34 103.7,-121.14"/>
<polygon fill="black" stroke="black" points="104.63,-124.52 113.07,-118.13 102.48,-117.86 104.63,-124.52"/>
<polygon fill="none" stroke="black" points="70,-169 70,-187 190,-187 190,-169 70,-169"/>
<text text-anchor="start" x="73" y="-176" font-family="Courier New" font-weight="bold" font-size="10.00" fill="orange">GRAB(,IDD_BLOBBALL)</text>
<polygon fill="none" stroke="black" points="70,-149 70,-167 190,-167 190,-149 70,-149"/>
<text text-anchor="start" x="109" y="-155" font-family="Courier New" font-size="10.00" fill="blue">SHOW();</text>
<polygon fill="none" stroke="black" points="67,-146 67,-190 193,-190 193,-146 67,-146"/>
</g>
<!-- ballempty&#45;&gt;0 -->
<g id="edge2" class="edge">
<title>ballempty&#45;&gt;0</title>
<path fill="none" stroke="black" d="M182.24,-127.92C186.48,-133.3 190.55,-139.54 193,-146 215.5,-205.26 213.38,-281.13 210.07,-321.42"/>
<polygon fill="black" stroke="black" points="206.6,-320.93 209.17,-331.21 213.57,-321.58 206.6,-320.93"/>
<text text-anchor="start" x="215" y="-224" font-family="Courier New" font-weight="bold" font-size="10.00" fill="orange">DROP(,)</text>
</g>
<!-- resetting -->
<g id="node5" class="node">
<title>resetting</title>
<polyline fill="none" stroke="darkred" points="185,-7 266,-7"/>
<text text-anchor="start" x="188" y="-14.4" font-family="Courier New" font-weight="bold" font-size="14.00">resetting</text>
<path fill="none" stroke="darkred" d="M190.83,-4C190.83,-4 259.17,-4 259.17,-4 263.83,-4 268.5,-8.67 268.5,-13.33 268.5,-13.33 268.5,-22.67 268.5,-22.67 268.5,-27.33 263.83,-32 259.17,-32 259.17,-32 190.83,-32 190.83,-32 186.17,-32 181.5,-27.33 181.5,-22.67 181.5,-22.67 181.5,-13.33 181.5,-13.33 181.5,-8.67 186.17,-4 190.83,-4"/>
</g>
<!-- ballempty&#45;&gt;resetting -->
<g id="edge3" class="edge">
<title>ballempty&#45;&gt;resetting</title>
<path fill="none" stroke="black" d="M162.32,-92.49C160.65,-80.95 160.32,-65.58 167,-54 169.38,-49.87 172.46,-46.18 175.95,-42.88"/>
<polygon fill="black" stroke="black" points="177.91,-45.79 183.55,-36.83 173.55,-40.32 177.91,-45.79"/>
<text text-anchor="start" x="171" y="-62" font-family="Courier New" font-weight="bold" font-size="10.00" fill="orange">WAIT(,SIG_RESET)</text>
</g>
<!-- resetting&#45;&gt;0 -->
<g id="edge5" class="edge">
<title>resetting&#45;&gt;0</title>
<path fill="none" stroke="black" d="M255.28,-35.68C261.61,-40.69 267.43,-46.81 271,-54 308.52,-129.7 287.45,-162.55 265,-244 256.98,-273.09 239.56,-302.92 225.89,-323.41"/>
<polygon fill="black" stroke="black" points="223.17,-321.2 220.4,-331.42 228.94,-325.16 223.17,-321.2"/>
<text text-anchor="start" x="294" y="-166" font-family="Courier New" font-weight="bold" font-size="10.00" fill="blue">Z_EPSILON(,)</text>
</g>
</g>
</svg>
