<?xml version="1.0" encoding="UTF-8" standalone="no"?>
<!DOCTYPE svg PUBLIC "-//W3C//DTD SVG 1.1//EN"
 "http://www.w3.org/Graphics/SVG/1.1/DTD/svg11.dtd">
<!-- Generated by graphviz version 7.1.0 (20230121.1956)
 -->
<!-- Title: Automaton Pages: 1 -->
<svg width="401pt" height="277pt"
 viewBox="0.00 0.00 401.00 277.00" xmlns="http://www.w3.org/2000/svg" xmlns:xlink="http://www.w3.org/1999/xlink">
<g id="graph0" class="graph" transform="scale(1 1) rotate(0) translate(4 273)">
<title>Automaton</title>
<polygon fill="white" stroke="none" points="-4,4 -4,-273 397,-273 397,4 -4,4"/>
<!-- filename -->
<g id="node1" class="node">
<title>filename</title>
<polygon fill="none" stroke="black" points="0,-216.5 0,-268.5 118,-268.5 118,-216.5 0,-216.5"/>
<polygon fill="none" stroke="black" points="11,-243.5 11,-261.5 107,-261.5 107,-243.5 11,-243.5"/>
<text text-anchor="start" x="22.99" y="-250.5" font-family="Courier New" font-weight="bold" font-size="10.00">M16_DICEDROP</text>
<polygon fill="none" stroke="black" points="11,-223.5 11,-241.5 107,-241.5 107,-223.5 11,-223.5"/>
<text text-anchor="start" x="14" y="-229.5" font-family="Courier New" font-size="10.00" fill="brown">start state = 0</text>
<polygon fill="none" stroke="black" points="8,-220.5 8,-264.5 110,-264.5 110,-220.5 8,-220.5"/>
</g>
<!-- 0 -->
<g id="node2" class="node">
<title>0</title>
<polyline fill="none" stroke="darkred" points="156,-231.5 170,-231.5"/>
<text text-anchor="start" x="159" y="-238.9" font-family="Courier New" font-weight="bold" font-size="14.00">0</text>
<path fill="none" stroke="darkred" d="M159.67,-228.5C159.67,-228.5 166.33,-228.5 166.33,-228.5 169.67,-228.5 173,-231.83 173,-235.17 173,-235.17 173,-249.83 173,-249.83 173,-253.17 169.67,-256.5 166.33,-256.5 166.33,-256.5 159.67,-256.5 159.67,-256.5 156.33,-256.5 153,-253.17 153,-249.83 153,-249.83 153,-235.17 153,-235.17 153,-231.83 156.33,-228.5 159.67,-228.5"/>
</g>
<!-- 2 -->
<g id="node3" class="node">
<title>2</title>
<polyline fill="none" stroke="darkred" points="76,-127 90,-127"/>
<text text-anchor="start" x="79" y="-134.4" font-family="Courier New" font-weight="bold" font-size="14.00">2</text>
<path fill="none" stroke="darkred" d="M79.67,-124C79.67,-124 86.33,-124 86.33,-124 89.67,-124 93,-127.33 93,-130.67 93,-130.67 93,-145.33 93,-145.33 93,-148.67 89.67,-152 86.33,-152 86.33,-152 79.67,-152 79.67,-152 76.33,-152 73,-148.67 73,-145.33 73,-145.33 73,-130.67 73,-130.67 73,-127.33 76.33,-124 79.67,-124"/>
</g>
<!-- 0&#45;&gt;2 -->
<g id="edge1" class="edge">
<title>0&#45;&gt;2</title>
<path fill="none" stroke="black" d="M140.09,-224.55C135.81,-221.59 131.32,-218.62 127,-216 112.05,-206.92 102.21,-212.2 92,-198 85.63,-189.14 82.97,-177.58 82.06,-167.04"/>
<polygon fill="black" stroke="black" points="85.57,-167.16 81.71,-157.29 78.57,-167.41 85.57,-167.16"/>
<text text-anchor="start" x="96" y="-186" font-family="Courier New" font-weight="bold" font-size="10.00" fill="blue">O_ACCEPT(0,IDD_SHAKE)</text>
</g>
<!-- 3 -->
<g id="node4" class="node">
<title>3</title>
<polyline fill="none" stroke="darkred" points="153,-7 167,-7"/>
<text text-anchor="start" x="156" y="-14.4" font-family="Courier New" font-weight="bold" font-size="14.00">3</text>
<path fill="none" stroke="darkred" d="M156.67,-4C156.67,-4 163.33,-4 163.33,-4 166.67,-4 170,-7.33 170,-10.67 170,-10.67 170,-25.33 170,-25.33 170,-28.67 166.67,-32 163.33,-32 163.33,-32 156.67,-32 156.67,-32 153.33,-32 150,-28.67 150,-25.33 150,-25.33 150,-10.67 150,-10.67 150,-7.33 153.33,-4 156.67,-4"/>
</g>
<!-- 2&#45;&gt;3 -->
<g id="edge2" class="edge">
<title>2&#45;&gt;3</title>
<path fill="none" stroke="black" d="M77.73,-120.23C73.18,-102.32 69.16,-73.84 82,-54 91.02,-40.06 107.05,-31.62 122.24,-26.54"/>
<polygon fill="black" stroke="black" points="122.96,-29.97 131.59,-23.82 121.01,-23.25 122.96,-29.97"/>
<polygon fill="none" stroke="black" points="85,-77 85,-95 223,-95 223,-77 85,-77"/>
<text text-anchor="start" x="127" y="-84" font-family="Courier New" font-weight="bold" font-size="10.00" fill="orange">DROP(0,0)</text>
<polygon fill="none" stroke="black" points="85,-57 85,-75 223,-75 223,-57 85,-57"/>
<text text-anchor="start" x="88" y="-63" font-family="Courier New" font-size="10.00" fill="blue">SIGNAL(WIP1,SIG_SHOW);</text>
<polygon fill="none" stroke="black" points="82,-54 82,-98 226,-98 226,-54 82,-54"/>
</g>
<!-- 3&#45;&gt;0 -->
<g id="edge3" class="edge">
<title>3&#45;&gt;0</title>
<path fill="none" stroke="black" d="M186.92,-25.95C201.2,-31.16 217.51,-39.89 226,-54 258.99,-108.84 255.74,-141.33 226,-198 220.2,-209.06 210.17,-217.86 199.79,-224.57"/>
<polygon fill="black" stroke="black" points="198.04,-221.54 191.17,-229.61 201.57,-227.58 198.04,-221.54"/>
<polygon fill="none" stroke="black" points="252,-139 252,-157 390,-157 390,-139 252,-139"/>
<text text-anchor="start" x="287.99" y="-146" font-family="Courier New" font-weight="bold" font-size="10.00" fill="blue">ESTIME(,.5)</text>
<polygon fill="none" stroke="black" points="252,-119 252,-137 390,-137 390,-119 252,-119"/>
<text text-anchor="start" x="255" y="-125" font-family="Courier New" font-size="10.00" fill="blue">SIGNAL(WIP2,SIG_SHOW);</text>
<polygon fill="none" stroke="black" points="249,-116 249,-160 393,-160 393,-116 249,-116"/>
</g>
</g>
</svg>
