<?xml version="1.0" encoding="UTF-8" standalone="no"?>
<!DOCTYPE svg PUBLIC "-//W3C//DTD SVG 1.1//EN"
 "http://www.w3.org/Graphics/SVG/1.1/DTD/svg11.dtd">
<!-- Generated by graphviz version 7.1.0 (20230121.1956)
 -->
<!-- Title: Automaton Pages: 1 -->
<svg width="544pt" height="809pt"
 viewBox="0.00 0.00 544.00 809.00" xmlns="http://www.w3.org/2000/svg" xmlns:xlink="http://www.w3.org/1999/xlink">
<g id="graph0" class="graph" transform="scale(1 1) rotate(0) translate(4 805)">
<title>Automaton</title>
<polygon fill="white" stroke="none" points="-4,4 -4,-805 540,-805 540,4 -4,4"/>
<!-- filename -->
<g id="node1" class="node">
<title>filename</title>
<polygon fill="none" stroke="black" points="69,-748.5 69,-800.5 187,-800.5 187,-748.5 69,-748.5"/>
<polygon fill="none" stroke="black" points="80,-775.5 80,-793.5 176,-793.5 176,-775.5 80,-775.5"/>
<text text-anchor="start" x="91.99" y="-782.5" font-family="Courier New" font-weight="bold" font-size="10.00">M16_DICEROLL</text>
<polygon fill="none" stroke="black" points="80,-755.5 80,-773.5 176,-773.5 176,-755.5 80,-755.5"/>
<text text-anchor="start" x="83" y="-761.5" font-family="Courier New" font-size="10.00" fill="brown">start state = 0</text>
<polygon fill="none" stroke="black" points="77,-752.5 77,-796.5 179,-796.5 179,-752.5 77,-752.5"/>
</g>
<!-- 0 -->
<g id="node2" class="node">
<title>0</title>
<polyline fill="none" stroke="darkred" points="225,-763.5 239,-763.5"/>
<text text-anchor="start" x="228" y="-770.9" font-family="Courier New" font-weight="bold" font-size="14.00">0</text>
<path fill="none" stroke="darkred" d="M228.67,-760.5C228.67,-760.5 235.33,-760.5 235.33,-760.5 238.67,-760.5 242,-763.83 242,-767.17 242,-767.17 242,-781.83 242,-781.83 242,-785.17 238.67,-788.5 235.33,-788.5 235.33,-788.5 228.67,-788.5 228.67,-788.5 225.33,-788.5 222,-785.17 222,-781.83 222,-781.83 222,-767.17 222,-767.17 222,-763.83 225.33,-760.5 228.67,-760.5"/>
</g>
<!-- 2 -->
<g id="node3" class="node">
<title>2</title>
<polyline fill="none" stroke="darkred" points="95,-663 109,-663"/>
<text text-anchor="start" x="98" y="-670.4" font-family="Courier New" font-weight="bold" font-size="14.00">2</text>
<path fill="none" stroke="darkred" d="M98.67,-660C98.67,-660 105.33,-660 105.33,-660 108.67,-660 112,-663.33 112,-666.67 112,-666.67 112,-681.33 112,-681.33 112,-684.67 108.67,-688 105.33,-688 105.33,-688 98.67,-688 98.67,-688 95.33,-688 92,-684.67 92,-681.33 92,-681.33 92,-666.67 92,-666.67 92,-663.33 95.33,-660 98.67,-660"/>
</g>
<!-- 0&#45;&gt;2 -->
<g id="edge1" class="edge">
<title>0&#45;&gt;2</title>
<path fill="none" stroke="black" d="M211.15,-756.63C206.38,-753.39 201.18,-750.29 196,-748 161.87,-732.92 140.37,-756.4 114,-730 106.98,-722.97 103.64,-712.85 102.17,-703.2"/>
<polygon fill="black" stroke="black" points="105.67,-703.07 101.31,-693.42 98.7,-703.68 105.67,-703.07"/>
<text text-anchor="start" x="118" y="-718" font-family="Courier New" font-weight="bold" font-size="10.00" fill="orange">WAIT(0,SIG_SHOW)</text>
</g>
<!-- 4 -->
<g id="node4" class="node">
<title>4</title>
<polyline fill="none" stroke="darkred" points="87,-571 101,-571"/>
<text text-anchor="start" x="90" y="-578.4" font-family="Courier New" font-weight="bold" font-size="14.00">4</text>
<path fill="none" stroke="darkred" d="M90.67,-568C90.67,-568 97.33,-568 97.33,-568 100.67,-568 104,-571.33 104,-574.67 104,-574.67 104,-589.33 104,-589.33 104,-592.67 100.67,-596 97.33,-596 97.33,-596 90.67,-596 90.67,-596 87.33,-596 84,-592.67 84,-589.33 84,-589.33 84,-574.67 84,-574.67 84,-571.33 87.33,-568 90.67,-568"/>
</g>
<!-- 2&#45;&gt;4 -->
<g id="edge2" class="edge">
<title>2&#45;&gt;4</title>
<path fill="none" stroke="black" d="M100.5,-656.07C99.37,-643.38 97.8,-625.71 96.48,-610.94"/>
<polygon fill="black" stroke="black" points="100,-611.01 95.63,-601.36 93.03,-611.63 100,-611.01"/>
<text text-anchor="start" x="103" y="-626" font-family="Courier New" font-weight="bold" font-size="10.00" fill="blue">MOV(WSPRITE,WIP1)</text>
</g>
<!-- 5 -->
<g id="node5" class="node">
<title>5</title>
<polyline fill="none" stroke="darkred" points="74,-457 88,-457"/>
<text text-anchor="start" x="77" y="-464.4" font-family="Courier New" font-weight="bold" font-size="14.00">5</text>
<path fill="none" stroke="darkred" d="M77.67,-454C77.67,-454 84.33,-454 84.33,-454 87.67,-454 91,-457.33 91,-460.67 91,-460.67 91,-475.33 91,-475.33 91,-478.67 87.67,-482 84.33,-482 84.33,-482 77.67,-482 77.67,-482 74.33,-482 71,-478.67 71,-475.33 71,-475.33 71,-460.67 71,-460.67 71,-457.33 74.33,-454 77.67,-454"/>
</g>
<!-- 4&#45;&gt;5 -->
<g id="edge3" class="edge">
<title>4&#45;&gt;5</title>
<path fill="none" stroke="black" d="M88.29,-564.09C86.6,-558.41 84.96,-551.99 84,-546 81.44,-530 80.63,-511.91 80.49,-497.29"/>
<polygon fill="black" stroke="black" points="83.99,-497.46 80.5,-487.45 76.99,-497.45 83.99,-497.46"/>
<text text-anchor="start" x="88" y="-534" font-family="Courier New" font-weight="bold" font-size="10.00" fill="blue">ASHOW(WSPRITE,V_LOOP)</text>
</g>
<!-- 6 -->
<g id="node6" class="node">
<title>6</title>
<polyline fill="none" stroke="darkred" points="31,-319 45,-319"/>
<text text-anchor="start" x="34" y="-326.4" font-family="Courier New" font-weight="bold" font-size="14.00">6</text>
<path fill="none" stroke="darkred" d="M34.67,-316C34.67,-316 41.33,-316 41.33,-316 44.67,-316 48,-319.33 48,-322.67 48,-322.67 48,-337.33 48,-337.33 48,-340.67 44.67,-344 41.33,-344 41.33,-344 34.67,-344 34.67,-344 31.33,-344 28,-340.67 28,-337.33 28,-337.33 28,-322.67 28,-322.67 28,-319.33 31.33,-316 34.67,-316"/>
</g>
<!-- 5&#45;&gt;6 -->
<g id="edge4" class="edge">
<title>5&#45;&gt;6</title>
<path fill="none" stroke="black" d="M75.64,-450.05C68.39,-427.12 55.37,-385.95 46.71,-358.54"/>
<polygon fill="black" stroke="black" points="50.1,-357.66 43.75,-349.18 43.43,-359.77 50.1,-357.66"/>
<text text-anchor="start" x="67" y="-386" font-family="Courier New" font-weight="bold" font-size="10.00" fill="blue">ESTIME(,2)</text>
</g>
<!-- 7 -->
<g id="node7" class="node">
<title>7</title>
<polyline fill="none" stroke="darkred" points="20,-227 34,-227"/>
<text text-anchor="start" x="23" y="-234.4" font-family="Courier New" font-weight="bold" font-size="14.00">7</text>
<path fill="none" stroke="darkred" d="M23.67,-224C23.67,-224 30.33,-224 30.33,-224 33.67,-224 37,-227.33 37,-230.67 37,-230.67 37,-245.33 37,-245.33 37,-248.67 33.67,-252 30.33,-252 30.33,-252 23.67,-252 23.67,-252 20.33,-252 17,-248.67 17,-245.33 17,-245.33 17,-230.67 17,-230.67 17,-227.33 20.33,-224 23.67,-224"/>
</g>
<!-- 6&#45;&gt;7 -->
<g id="edge5" class="edge">
<title>6&#45;&gt;7</title>
<path fill="none" stroke="black" d="M35.93,-312.07C34.38,-299.38 32.22,-281.71 30.41,-266.94"/>
<polygon fill="black" stroke="black" points="33.93,-266.86 29.24,-257.35 26.98,-267.71 33.93,-266.86"/>
<text text-anchor="start" x="38" y="-282" font-family="Courier New" font-weight="bold" font-size="10.00" fill="blue">RAND(6,1)</text>
</g>
<!-- 8 -->
<g id="node8" class="node">
<title>8</title>
<polyline fill="none" stroke="darkred" points="225,-99 239,-99"/>
<text text-anchor="start" x="228" y="-106.4" font-family="Courier New" font-weight="bold" font-size="14.00">8</text>
<path fill="none" stroke="darkred" d="M228.67,-96C228.67,-96 235.33,-96 235.33,-96 238.67,-96 242,-99.33 242,-102.67 242,-102.67 242,-117.33 242,-117.33 242,-120.67 238.67,-124 235.33,-124 235.33,-124 228.67,-124 228.67,-124 225.33,-124 222,-120.67 222,-117.33 222,-117.33 222,-102.67 222,-102.67 222,-99.33 225.33,-96 228.67,-96"/>
</g>
<!-- 7&#45;&gt;8 -->
<g id="edge6" class="edge">
<title>7&#45;&gt;8</title>
<path fill="none" stroke="black" d="M20.87,-220.04C14.8,-199.92 8.67,-166.52 26,-146 47.05,-121.07 140.24,-113.89 193.79,-111.83"/>
<polygon fill="black" stroke="black" points="193.82,-115.33 203.7,-111.5 193.58,-108.34 193.82,-115.33"/>
<polygon fill="none" stroke="black" points="29,-181 29,-199 215,-199 215,-181 29,-181"/>
<text text-anchor="start" x="70.99" y="-188" font-family="Courier New" font-weight="bold" font-size="10.00" fill="blue">MOV(BFRAME,WRAND)</text>
<polygon fill="none" stroke="black" points="29,-149 29,-179 215,-179 215,-149 29,-149"/>
<text text-anchor="start" x="32" y="-167" font-family="Courier New" font-size="10.00" fill="blue"> &#160;&#160;&#160;MAPi(BFRAME,S16_DICE_MAP);</text>
<text text-anchor="start" x="32" y="-155" font-family="Courier New" font-size="10.00" fill="blue"> &#160;&#160;&#160;SHOW(BFRAME);</text>
<polygon fill="none" stroke="black" points="26,-146 26,-202 218,-202 218,-146 26,-146"/>
</g>
<!-- 8&#45;&gt;0 -->
<g id="edge7" class="edge">
<title>8&#45;&gt;0</title>
<path fill="none" stroke="black" d="M232,-127.71C232,-151.84 232,-197.84 232,-237 232,-675 232,-675 232,-675 232,-698.79 232,-725.82 232,-745.53"/>
<polygon fill="black" stroke="black" points="228.5,-745.26 232,-755.26 235.5,-745.26 228.5,-745.26"/>
<polygon fill="none" stroke="black" points="235,-487 235,-505 403,-505 403,-487 235,-487"/>
<text text-anchor="start" x="270.99" y="-494" font-family="Courier New" font-weight="bold" font-size="10.00" fill="orange">GRAB(,IDD_SHAKE)</text>
<polygon fill="none" stroke="black" points="235,-431 235,-485 403,-485 403,-431 235,-431"/>
<text text-anchor="start" x="238" y="-473" font-family="Courier New" font-size="10.00" fill="blue"> </text>
<text text-anchor="start" x="238" y="-461" font-family="Courier New" font-size="10.00" fill="blue"> &#160;&#160;&#160;SIGNAL(WIP2,SIG_HIDE); </text>
<text text-anchor="start" x="238" y="-449" font-family="Courier New" font-size="10.00" fill="blue"> &#160;&#160;&#160;CLEAR(WOBJECT);</text>
<text text-anchor="start" x="238" y="-437" font-family="Courier New" font-size="10.00" fill="blue"> &#160;&#160;&#160;SHOW();</text>
<polygon fill="none" stroke="black" points="232,-428 232,-508 406,-508 406,-428 232,-428"/>
</g>
<!-- 9 -->
<g id="node9" class="node">
<title>9</title>
<polyline fill="none" stroke="darkred" points="326,-7 340,-7"/>
<text text-anchor="start" x="329" y="-14.4" font-family="Courier New" font-weight="bold" font-size="14.00">9</text>
<path fill="none" stroke="darkred" d="M329.67,-4C329.67,-4 336.33,-4 336.33,-4 339.67,-4 343,-7.33 343,-10.67 343,-10.67 343,-25.33 343,-25.33 343,-28.67 339.67,-32 336.33,-32 336.33,-32 329.67,-32 329.67,-32 326.33,-32 323,-28.67 323,-25.33 323,-25.33 323,-10.67 323,-10.67 323,-7.33 326.33,-4 329.67,-4"/>
</g>
<!-- 8&#45;&gt;9 -->
<g id="edge8" class="edge">
<title>8&#45;&gt;9</title>
<path fill="none" stroke="black" d="M251,-92.07C266.37,-78.37 288.24,-58.89 305.52,-43.48"/>
<polygon fill="black" stroke="black" points="307.82,-46.13 312.96,-36.86 303.16,-40.9 307.82,-46.13"/>
<text text-anchor="start" x="295" y="-62" font-family="Courier New" font-weight="bold" font-size="10.00" fill="orange">WAIT(0,SIG_HIDE)</text>
</g>
<!-- 9&#45;&gt;0 -->
<g id="edge9" class="edge">
<title>9&#45;&gt;0</title>
<path fill="none" stroke="black" d="M359.8,-29.25C389.72,-42.64 434,-69.19 434,-109 434,-675 434,-675 434,-675 434,-747.09 328.77,-766.43 270.21,-771.61"/>
<polygon fill="black" stroke="black" points="270.03,-768.11 260.33,-772.37 270.57,-775.09 270.03,-768.11"/>
<polygon fill="none" stroke="black" points="437,-389 437,-407 533,-407 533,-389 437,-389"/>
<text text-anchor="start" x="440" y="-396" font-family="Courier New" font-weight="bold" font-size="10.00" fill="blue">CLEAR(,WOBJECT)</text>
<polygon fill="none" stroke="black" points="437,-369 437,-387 533,-387 533,-369 437,-369"/>
<text text-anchor="start" x="461" y="-375" font-family="Courier New" font-size="10.00" fill="blue">SHOW(); </text>
<polygon fill="none" stroke="black" points="434,-366 434,-410 536,-410 536,-366 434,-366"/>
</g>
</g>
</svg>
