<?xml version="1.0" encoding="UTF-8" standalone="no"?>
<!DOCTYPE svg PUBLIC "-//W3C//DTD SVG 1.1//EN"
 "http://www.w3.org/Graphics/SVG/1.1/DTD/svg11.dtd">
<!-- Generated by graphviz version 7.1.0 (20230121.1956)
 -->
<!-- Title: Automaton Pages: 1 -->
<svg width="309pt" height="177pt"
 viewBox="0.00 0.00 309.00 177.00" xmlns="http://www.w3.org/2000/svg" xmlns:xlink="http://www.w3.org/1999/xlink">
<g id="graph0" class="graph" transform="scale(1 1) rotate(0) translate(4 173)">
<title>Automaton</title>
<polygon fill="white" stroke="none" points="-4,4 -4,-173 305,-173 305,4 -4,4"/>
<!-- filename -->
<g id="node1" class="node">
<title>filename</title>
<polygon fill="none" stroke="black" points="0,-116.5 0,-168.5 118,-168.5 118,-116.5 0,-116.5"/>
<polygon fill="none" stroke="black" points="11,-143.5 11,-161.5 107,-161.5 107,-143.5 11,-143.5"/>
<text text-anchor="start" x="22.99" y="-150.5" font-family="Courier New" font-weight="bold" font-size="10.00">M16_BLOBHOLE</text>
<polygon fill="none" stroke="black" points="11,-123.5 11,-141.5 107,-141.5 107,-123.5 11,-123.5"/>
<text text-anchor="start" x="14" y="-129.5" font-family="Courier New" font-size="10.00" fill="brown">start state = 0</text>
<polygon fill="none" stroke="black" points="8,-120.5 8,-164.5 110,-164.5 110,-120.5 8,-120.5"/>
</g>
<!-- 0 -->
<g id="node2" class="node">
<title>0</title>
<polyline fill="none" stroke="darkred" points="156,-131.5 170,-131.5"/>
<text text-anchor="start" x="159" y="-138.9" font-family="Courier New" font-weight="bold" font-size="14.00">0</text>
<path fill="none" stroke="darkred" d="M159.67,-128.5C159.67,-128.5 166.33,-128.5 166.33,-128.5 169.67,-128.5 173,-131.83 173,-135.17 173,-135.17 173,-149.83 173,-149.83 173,-153.17 169.67,-156.5 166.33,-156.5 166.33,-156.5 159.67,-156.5 159.67,-156.5 156.33,-156.5 153,-153.17 153,-149.83 153,-149.83 153,-135.17 153,-135.17 153,-131.83 156.33,-128.5 159.67,-128.5"/>
</g>
<!-- 2 -->
<g id="node3" class="node">
<title>2</title>
<polyline fill="none" stroke="darkred" points="155,-7 169,-7"/>
<text text-anchor="start" x="158" y="-14.4" font-family="Courier New" font-weight="bold" font-size="14.00">2</text>
<path fill="none" stroke="darkred" d="M158.67,-4C158.67,-4 165.33,-4 165.33,-4 168.67,-4 172,-7.33 172,-10.67 172,-10.67 172,-25.33 172,-25.33 172,-28.67 168.67,-32 165.33,-32 165.33,-32 158.67,-32 158.67,-32 155.33,-32 152,-28.67 152,-25.33 152,-25.33 152,-10.67 152,-10.67 152,-7.33 155.33,-4 158.67,-4"/>
</g>
<!-- 0&#45;&gt;2 -->
<g id="edge1" class="edge">
<title>0&#45;&gt;2</title>
<path fill="none" stroke="black" d="M141.14,-124.58C136.61,-121.49 131.76,-118.47 127,-116 105.65,-104.95 89.88,-117.62 76,-98 64.71,-82.04 65.09,-70.23 76,-54 86.83,-37.9 106.48,-29.21 124.26,-24.51"/>
<polygon fill="black" stroke="black" points="124.83,-27.97 133.81,-22.35 123.28,-21.14 124.83,-27.97"/>
<text text-anchor="start" x="80" y="-74" font-family="Courier New" font-weight="bold" font-size="10.00" fill="blue">O_ACCEPT(0,IDD_BLOBBALL)</text>
</g>
<!-- 2&#45;&gt;0 -->
<g id="edge2" class="edge">
<title>2&#45;&gt;0</title>
<path fill="none" stroke="black" d="M188.92,-25.95C203.2,-31.16 219.51,-39.89 228,-54 238.08,-70.76 237.21,-80.75 228,-98 221.72,-109.77 210.69,-118.91 199.48,-125.7"/>
<polygon fill="black" stroke="black" points="198.1,-122.47 191.02,-130.35 201.47,-128.6 198.1,-122.47"/>
<polygon fill="none" stroke="black" points="238,-77 238,-95 298,-95 298,-77 238,-77"/>
<text text-anchor="start" x="241" y="-84" font-family="Courier New" font-weight="bold" font-size="10.00" fill="orange">DROP(0,0)</text>
<polygon fill="none" stroke="black" points="238,-57 238,-75 298,-75 298,-57 238,-57"/>
<text text-anchor="start" x="247" y="-63" font-family="Courier New" font-size="10.00" fill="blue">SHOW();</text>
<polygon fill="none" stroke="black" points="235,-54 235,-98 301,-98 301,-54 235,-54"/>
</g>
</g>
</svg>
