<?xml version="1.0" encoding="UTF-8" standalone="no"?>
<!DOCTYPE svg PUBLIC "-//W3C//DTD SVG 1.1//EN"
 "http://www.w3.org/Graphics/SVG/1.1/DTD/svg11.dtd">
<!-- Generated by graphviz version 7.1.0 (20230121.1956)
 -->
<!-- Title: Automaton Pages: 1 -->
<svg width="1324pt" height="361pt"
 viewBox="0.00 0.00 1324.04 361.00" xmlns="http://www.w3.org/2000/svg" xmlns:xlink="http://www.w3.org/1999/xlink">
<g id="graph0" class="graph" transform="scale(1 1) rotate(0) translate(4 357)">
<title>Automaton</title>
<polygon fill="white" stroke="none" points="-4,4 -4,-357 1320.04,-357 1320.04,4 -4,4"/>
<!-- filename -->
<g id="node1" class="node">
<title>filename</title>
<polygon fill="none" stroke="black" points="962.04,-300.5 962.04,-352.5 1080.04,-352.5 1080.04,-300.5 962.04,-300.5"/>
<polygon fill="none" stroke="black" points="973.04,-327.5 973.04,-345.5 1069.04,-345.5 1069.04,-327.5 973.04,-327.5"/>
<text text-anchor="start" x="985.04" y="-334.5" font-family="Courier New" font-weight="bold" font-size="10.00">M16_PAYSTAMP</text>
<polygon fill="none" stroke="black" points="973.04,-307.5 973.04,-325.5 1069.04,-325.5 1069.04,-307.5 973.04,-307.5"/>
<text text-anchor="start" x="976.04" y="-313.5" font-family="Courier New" font-size="10.00" fill="brown">start state = 0</text>
<polygon fill="none" stroke="black" points="970.04,-304.5 970.04,-348.5 1072.04,-348.5 1072.04,-304.5 970.04,-304.5"/>
</g>
<!-- 0 -->
<g id="node2" class="node">
<title>0</title>
<polyline fill="none" stroke="darkred" points="1118.04,-315.5 1132.04,-315.5"/>
<text text-anchor="start" x="1121.04" y="-322.9" font-family="Courier New" font-weight="bold" font-size="14.00">0</text>
<path fill="none" stroke="darkred" d="M1121.71,-312.5C1121.71,-312.5 1128.38,-312.5 1128.38,-312.5 1131.71,-312.5 1135.04,-315.83 1135.04,-319.17 1135.04,-319.17 1135.04,-333.83 1135.04,-333.83 1135.04,-337.17 1131.71,-340.5 1128.38,-340.5 1128.38,-340.5 1121.71,-340.5 1121.71,-340.5 1118.38,-340.5 1115.04,-337.17 1115.04,-333.83 1115.04,-333.83 1115.04,-319.17 1115.04,-319.17 1115.04,-315.83 1118.38,-312.5 1121.71,-312.5"/>
</g>
<!-- startframe -->
<g id="node3" class="node">
<title>startframe</title>
<polyline fill="none" stroke="darkred" points="856.04,-215 946.04,-215"/>
<text text-anchor="start" x="859.04" y="-222.4" font-family="Courier New" font-weight="bold" font-size="14.00">startframe</text>
<path fill="none" stroke="darkred" d="M862.38,-212C862.38,-212 939.71,-212 939.71,-212 944.38,-212 949.04,-216.67 949.04,-221.33 949.04,-221.33 949.04,-230.67 949.04,-230.67 949.04,-235.33 944.38,-240 939.71,-240 939.71,-240 862.38,-240 862.38,-240 857.71,-240 853.04,-235.33 853.04,-230.67 853.04,-230.67 853.04,-221.33 853.04,-221.33 853.04,-216.67 857.71,-212 862.38,-212"/>
</g>
<!-- 0&#45;&gt;startframe -->
<g id="edge1" class="edge">
<title>0&#45;&gt;startframe</title>
<path fill="none" stroke="black" d="M1103.12,-308.7C1098.6,-305.6 1093.77,-302.54 1089.04,-300 1049.61,-278.8 1002.66,-260.56 965.55,-247.62"/>
<polygon fill="black" stroke="black" points="966.88,-244.38 956.29,-244.44 964.61,-251 966.88,-244.38"/>
<text text-anchor="start" x="1053.04" y="-270" font-family="Courier New" font-weight="bold" font-size="10.00" fill="blue">ASSIGN(BFRAME,1)</text>
</g>
<!-- waiting -->
<g id="node5" class="node">
<title>waiting</title>
<polyline fill="none" stroke="darkred" points="540.04,-123 604.04,-123"/>
<text text-anchor="start" x="543.04" y="-130.4" font-family="Courier New" font-weight="bold" font-size="14.00">waiting</text>
<path fill="none" stroke="darkred" d="M546.38,-120C546.38,-120 597.71,-120 597.71,-120 602.38,-120 607.04,-124.67 607.04,-129.33 607.04,-129.33 607.04,-138.67 607.04,-138.67 607.04,-143.33 602.38,-148 597.71,-148 597.71,-148 546.38,-148 546.38,-148 541.71,-148 537.04,-143.33 537.04,-138.67 537.04,-138.67 537.04,-129.33 537.04,-129.33 537.04,-124.67 541.71,-120 546.38,-120"/>
</g>
<!-- startframe&#45;&gt;waiting -->
<g id="edge4" class="edge">
<title>startframe&#45;&gt;waiting</title>
<path fill="none" stroke="black" d="M845.23,-209.73C783.96,-192.97 686.28,-166.25 625.83,-149.71"/>
<polygon fill="black" stroke="black" points="627.02,-146.41 616.45,-147.15 625.18,-153.16 627.02,-146.41"/>
<text text-anchor="start" x="769.04" y="-178" font-family="Courier New" font-weight="bold" font-size="10.00" fill="blue">SHOW(WIP1,)</text>
</g>
<!-- readyToPay -->
<g id="node4" class="node">
<title>readyToPay</title>
<polyline fill="none" stroke="darkred" points="527.04,-7 617.04,-7"/>
<text text-anchor="start" x="530.04" y="-14.4" font-family="Courier New" font-weight="bold" font-size="14.00">readyToPay</text>
<path fill="none" stroke="darkred" d="M533.38,-4C533.38,-4 610.71,-4 610.71,-4 615.38,-4 620.04,-8.67 620.04,-13.33 620.04,-13.33 620.04,-22.67 620.04,-22.67 620.04,-27.33 615.38,-32 610.71,-32 610.71,-32 533.38,-32 533.38,-32 528.71,-32 524.04,-27.33 524.04,-22.67 524.04,-22.67 524.04,-13.33 524.04,-13.33 524.04,-8.67 528.71,-4 533.38,-4"/>
</g>
<!-- readyToPay&#45;&gt;0 -->
<g id="edge3" class="edge">
<title>readyToPay&#45;&gt;0</title>
<path fill="none" stroke="black" d="M627.94,-20.04C778.65,-23.11 1183.43,-33.27 1203.04,-54 1269.34,-124.07 1187.72,-246.74 1146.34,-299.82"/>
<polygon fill="black" stroke="black" points="1143.78,-297.41 1140.3,-307.41 1149.26,-301.76 1143.78,-297.41"/>
<text text-anchor="start" x="1222.04" y="-178" font-family="Courier New" font-weight="bold" font-size="10.00" fill="orange">WAIT(0,SIG_OFF)</text>
</g>
<!-- readyToPay&#45;&gt;waiting -->
<g id="edge2" class="edge">
<title>readyToPay&#45;&gt;waiting</title>
<path fill="none" stroke="black" d="M572.04,-35.89C572.04,-54.02 572.04,-83.13 572.04,-104.75"/>
<polygon fill="black" stroke="black" points="568.54,-104.67 572.04,-114.67 575.54,-104.67 568.54,-104.67"/>
<polygon fill="none" stroke="black" points="575.04,-77 575.04,-95 1199.04,-95 1199.04,-77 575.04,-77"/>
<text text-anchor="start" x="863.04" y="-84" font-family="Courier New" font-weight="bold" font-size="10.00" fill="orange">CLICK(,)</text>
<polygon fill="none" stroke="black" points="575.04,-57 575.04,-75 1199.04,-75 1199.04,-57 575.04,-57"/>
<text text-anchor="start" x="578.04" y="-63" font-family="Courier New" font-size="10.00" fill="blue">SHOW(WSPRITE);ANIMATE(0,V_REVERSE);SIGNAL(WIP2,SIG_OFF);SIGNAL(WIP3,SIG_CLOSE);PLAYWAVE(0,SOUND_CHAIN);</text>
<polygon fill="none" stroke="black" points="572.04,-54 572.04,-98 1202.04,-98 1202.04,-54 572.04,-54"/>
</g>
<!-- waiting&#45;&gt;readyToPay -->
<g id="edge5" class="edge">
<title>waiting&#45;&gt;readyToPay</title>
<path fill="none" stroke="black" d="M529.06,-131.91C400.68,-128.46 27.76,-116.86 10.04,-98 -3.35,-83.75 -3.35,-68.25 10.04,-54 26.75,-36.23 359.03,-24.89 504.65,-20.76"/>
<polygon fill="black" stroke="black" points="504.65,-24.26 514.55,-20.48 504.45,-17.26 504.65,-24.26"/>
<polygon fill="none" stroke="black" points="13.04,-77 13.04,-95 565.04,-95 565.04,-77 13.04,-77"/>
<text text-anchor="start" x="265.04" y="-84" font-family="Courier New" font-weight="bold" font-size="10.00" fill="orange">CLICK(,)</text>
<polygon fill="none" stroke="black" points="13.04,-57 13.04,-75 565.04,-75 565.04,-57 13.04,-57"/>
<text text-anchor="start" x="16.04" y="-63" font-family="Courier New" font-size="10.00" fill="blue">SHOW(WSPRITE);ANIMATE(); SIGNAL(WIP2,SIG_ON);SIGNAL(WIP3,SIG_OPEN);PLAYWAVE(0,SOUND_CHAIN);</text>
<polygon fill="none" stroke="black" points="10.04,-54 10.04,-98 568.04,-98 568.04,-54 10.04,-54"/>
</g>
</g>
</svg>
