<?xml version="1.0" encoding="UTF-8" standalone="no"?>
<!DOCTYPE svg PUBLIC "-//W3C//DTD SVG 1.1//EN"
 "http://www.w3.org/Graphics/SVG/1.1/DTD/svg11.dtd">
<!-- Generated by graphviz version 7.1.0 (20230121.1956)
 -->
<!-- Pages: 1 -->
<svg width="661pt" height="232pt"
 viewBox="0.00 0.00 661.35 232.00" xmlns="http://www.w3.org/2000/svg" xmlns:xlink="http://www.w3.org/1999/xlink">
<g id="graph0" class="graph" transform="scale(1 1) rotate(0) translate(4 228)">
<polygon fill="white" stroke="none" points="-4,4 -4,-228 657.35,-228 657.35,4 -4,4"/>
<!-- 0 -->
<g id="node1" class="node">
<title>0</title>
<ellipse fill="none" stroke="black" cx="253.35" cy="-206" rx="27" ry="18"/>
<text text-anchor="middle" x="253.35" y="-201.8" font-family="Times,serif" font-size="14.00">0</text>
</g>
<!-- 1 -->
<g id="node2" class="node">
<title>1</title>
<ellipse fill="none" stroke="black" cx="203.35" cy="-112" rx="27" ry="18"/>
<text text-anchor="middle" x="203.35" y="-107.8" font-family="Times,serif" font-size="14.00">1</text>
</g>
<!-- 0&#45;&gt;1 -->
<g id="edge1" class="edge">
<title>0&#45;&gt;1</title>
<path fill="none" stroke="black" d="M227.21,-200.98C209,-196.67 185.96,-187.85 174.35,-170 167.32,-159.2 172.62,-146.49 180.51,-135.81"/>
<polygon fill="black" stroke="black" points="183.15,-138.11 186.9,-128.2 177.79,-133.61 183.15,-138.11"/>
<text text-anchor="start" x="178.85" y="-156.2" font-family="Courier New" font-weight="bold" font-size="12.00" fill="orange">DRAG(0,IDD_SCOOPE)</text>
</g>
<!-- 3 -->
<g id="node3" class="node">
<title>3</title>
<ellipse fill="none" stroke="black" cx="319.35" cy="-112" rx="27" ry="18"/>
<text text-anchor="middle" x="319.35" y="-107.8" font-family="Times,serif" font-size="14.00">3</text>
</g>
<!-- 0&#45;&gt;3 -->
<g id="edge2" class="edge">
<title>0&#45;&gt;3</title>
<path fill="none" stroke="black" d="M276.71,-196.66C289,-191.04 303.18,-182.37 311.35,-170 316.83,-161.7 319.25,-151.24 320.18,-141.55"/>
<polygon fill="black" stroke="black" points="323.66,-141.97 320.59,-131.83 316.67,-141.67 323.66,-141.97"/>
<text text-anchor="start" x="322.85" y="-156.2" font-family="Courier New" font-weight="bold" font-size="12.00" fill="orange">DRAG(0,IDD_SCOOPF)</text>
</g>
<!-- 2 -->
<g id="node4" class="node">
<title>2</title>
<ellipse fill="none" stroke="black" cx="44.35" cy="-18" rx="27" ry="18"/>
<text text-anchor="middle" x="44.35" y="-13.8" font-family="Times,serif" font-size="14.00">2</text>
</g>
<!-- 1&#45;&gt;2 -->
<g id="edge3" class="edge">
<title>1&#45;&gt;2</title>
<path fill="none" stroke="black" d="M181.22,-101.36C166.53,-94.72 146.97,-85.43 130.35,-76 110.03,-64.47 88.1,-49.9 71.46,-38.37"/>
<polygon fill="black" stroke="black" points="73.78,-35.72 63.58,-32.85 69.76,-41.45 73.78,-35.72"/>
<text text-anchor="start" x="134.85" y="-62.2" font-family="Courier New" font-weight="bold" font-size="12.00" fill="blue">PLAYWAVE(0,SOUND_SLURP)</text>
</g>
<!-- 4 -->
<g id="node5" class="node">
<title>4</title>
<ellipse fill="none" stroke="black" cx="401.35" cy="-18" rx="27" ry="18"/>
<text text-anchor="middle" x="401.35" y="-13.8" font-family="Times,serif" font-size="14.00">4</text>
</g>
<!-- 3&#45;&gt;4 -->
<g id="edge5" class="edge">
<title>3&#45;&gt;4</title>
<path fill="none" stroke="black" d="M311.77,-94.37C307.44,-82.19 304.32,-65.78 312.35,-54 323.8,-37.18 344.69,-28.45 363.35,-23.91"/>
<polygon fill="black" stroke="black" points="364.01,-27.34 373.09,-21.89 362.59,-20.49 364.01,-27.34"/>
<text text-anchor="start" x="316.35" y="-62.2" font-family="Courier New" font-weight="bold" font-size="12.00" fill="blue">PLAYWAVE(0,SOUND_SPIT)</text>
</g>
<!-- 2&#45;&gt;0 -->
<g id="edge4" class="edge">
<title>2&#45;&gt;0</title>
<path fill="none" stroke="black" d="M31.56,-34.03C13.86,-56.76 -13.58,-100.36 8.35,-130 33.2,-163.6 153.55,-188.28 215.82,-199.03"/>
<polygon fill="black" stroke="black" points="215.17,-202.47 225.61,-200.69 216.33,-195.57 215.17,-202.47"/>
<text text-anchor="start" x="12.85" y="-109.2" font-family="Courier New" font-weight="bold" font-size="12.00" fill="blue">HANDOFF(0,IDD_SCOOPF)</text>
</g>
<!-- 4&#45;&gt;0 -->
<g id="edge6" class="edge">
<title>4&#45;&gt;0</title>
<path fill="none" stroke="black" d="M427.59,-23.4C445.23,-27.87 467.22,-36.72 478.35,-54 506.63,-97.92 496.86,-133.64 459.35,-170 436.04,-192.59 344.64,-200.7 291.75,-203.54"/>
<polygon fill="black" stroke="black" points="291.78,-200.03 281.97,-204.02 292.13,-207.02 291.78,-200.03"/>
<text text-anchor="start" x="498.85" y="-109.2" font-family="Courier New" font-weight="bold" font-size="12.00" fill="blue">HANDOFF(0,IDD_SCOOPE)</text>
</g>
</g>
</svg>
