<?xml version="1.0" encoding="UTF-8" standalone="no"?>
<!DOCTYPE svg PUBLIC "-//W3C//DTD SVG 1.1//EN"
 "http://www.w3.org/Graphics/SVG/1.1/DTD/svg11.dtd">
<!-- Generated by graphviz version 7.1.0 (20230121.1956)
 -->
<!-- Title: Automaton Pages: 1 -->
<svg width="390pt" height="337pt"
 viewBox="0.00 0.00 390.00 337.00" xmlns="http://www.w3.org/2000/svg" xmlns:xlink="http://www.w3.org/1999/xlink">
<g id="graph0" class="graph" transform="scale(1 1) rotate(0) translate(4 333)">
<title>Automaton</title>
<polygon fill="white" stroke="none" points="-4,4 -4,-333 386,-333 386,4 -4,4"/>
<!-- filename -->
<g id="node1" class="node">
<title>filename</title>
<polygon fill="none" stroke="black" points="0,-276.5 0,-328.5 118,-328.5 118,-276.5 0,-276.5"/>
<polygon fill="none" stroke="black" points="11,-303.5 11,-321.5 107,-321.5 107,-303.5 11,-303.5"/>
<text text-anchor="start" x="22.99" y="-310.5" font-family="Courier New" font-weight="bold" font-size="10.00">M17_LOCKBURN</text>
<polygon fill="none" stroke="black" points="11,-283.5 11,-301.5 107,-301.5 107,-283.5 11,-283.5"/>
<text text-anchor="start" x="14" y="-289.5" font-family="Courier New" font-size="10.00" fill="brown">start state = 0</text>
<polygon fill="none" stroke="black" points="8,-280.5 8,-324.5 110,-324.5 110,-280.5 8,-280.5"/>
</g>
<!-- 0 -->
<g id="node2" class="node">
<title>0</title>
<polyline fill="none" stroke="darkred" points="156,-291.5 170,-291.5"/>
<text text-anchor="start" x="159" y="-298.9" font-family="Courier New" font-weight="bold" font-size="14.00">0</text>
<path fill="none" stroke="darkred" d="M159.67,-288.5C159.67,-288.5 166.33,-288.5 166.33,-288.5 169.67,-288.5 173,-291.83 173,-295.17 173,-295.17 173,-309.83 173,-309.83 173,-313.17 169.67,-316.5 166.33,-316.5 166.33,-316.5 159.67,-316.5 159.67,-316.5 156.33,-316.5 153,-313.17 153,-309.83 153,-309.83 153,-295.17 153,-295.17 153,-291.83 156.33,-288.5 159.67,-288.5"/>
</g>
<!-- 1 -->
<g id="node3" class="node">
<title>1</title>
<polyline fill="none" stroke="darkred" points="75,-191 89,-191"/>
<text text-anchor="start" x="78" y="-198.4" font-family="Courier New" font-weight="bold" font-size="14.00">1</text>
<path fill="none" stroke="darkred" d="M78.67,-188C78.67,-188 85.33,-188 85.33,-188 88.67,-188 92,-191.33 92,-194.67 92,-194.67 92,-209.33 92,-209.33 92,-212.67 88.67,-216 85.33,-216 85.33,-216 78.67,-216 78.67,-216 75.33,-216 72,-212.67 72,-209.33 72,-209.33 72,-194.67 72,-194.67 72,-191.33 75.33,-188 78.67,-188"/>
</g>
<!-- 0&#45;&gt;1 -->
<g id="edge1" class="edge">
<title>0&#45;&gt;1</title>
<path fill="none" stroke="black" d="M139.77,-284.68C130.43,-277.2 120,-267.85 112,-258 105.13,-249.53 99.03,-239.26 94.17,-229.9"/>
<polygon fill="black" stroke="black" points="97.45,-228.63 89.88,-221.21 91.17,-231.73 97.45,-228.63"/>
<text text-anchor="start" x="116" y="-246" font-family="Courier New" font-weight="bold" font-size="10.00" fill="orange">WAIT(0,SIG_BURN)</text>
</g>
<!-- 2 -->
<g id="node4" class="node">
<title>2</title>
<polyline fill="none" stroke="darkred" points="61,-99 75,-99"/>
<text text-anchor="start" x="64" y="-106.4" font-family="Courier New" font-weight="bold" font-size="14.00">2</text>
<path fill="none" stroke="darkred" d="M64.67,-96C64.67,-96 71.33,-96 71.33,-96 74.67,-96 78,-99.33 78,-102.67 78,-102.67 78,-117.33 78,-117.33 78,-120.67 74.67,-124 71.33,-124 71.33,-124 64.67,-124 64.67,-124 61.33,-124 58,-120.67 58,-117.33 58,-117.33 58,-102.67 58,-102.67 58,-99.33 61.33,-96 64.67,-96"/>
</g>
<!-- 1&#45;&gt;2 -->
<g id="edge2" class="edge">
<title>1&#45;&gt;2</title>
<path fill="none" stroke="black" d="M79.37,-184.07C77.39,-171.38 74.64,-153.71 72.35,-138.94"/>
<polygon fill="black" stroke="black" points="75.85,-138.69 70.85,-129.35 68.93,-139.77 75.85,-138.69"/>
<text text-anchor="start" x="81" y="-154" font-family="Courier New" font-weight="bold" font-size="10.00" fill="blue">SHOW(0,IDS_MINEBLOW)</text>
</g>
<!-- 3 -->
<g id="node5" class="node">
<title>3</title>
<polyline fill="none" stroke="darkred" points="136,-7 150,-7"/>
<text text-anchor="start" x="139" y="-14.4" font-family="Courier New" font-weight="bold" font-size="14.00">3</text>
<path fill="none" stroke="darkred" d="M139.67,-4C139.67,-4 146.33,-4 146.33,-4 149.67,-4 153,-7.33 153,-10.67 153,-10.67 153,-25.33 153,-25.33 153,-28.67 149.67,-32 146.33,-32 146.33,-32 139.67,-32 139.67,-32 136.33,-32 133,-28.67 133,-25.33 133,-25.33 133,-10.67 133,-10.67 133,-7.33 136.33,-4 139.67,-4"/>
</g>
<!-- 2&#45;&gt;3 -->
<g id="edge3" class="edge">
<title>2&#45;&gt;3</title>
<path fill="none" stroke="black" d="M58.94,-92.06C54.09,-80.46 50.49,-65.21 58,-54 68.56,-38.23 87.66,-29.56 105.08,-24.79"/>
<polygon fill="black" stroke="black" points="105.77,-28.23 114.71,-22.54 104.17,-21.41 105.77,-28.23"/>
<text text-anchor="start" x="62" y="-62" font-family="Courier New" font-weight="bold" font-size="10.00" fill="blue">PLAYWAVE(0,SOUND_EXPLODE)</text>
</g>
<!-- 3&#45;&gt;0 -->
<g id="edge4" class="edge">
<title>3&#45;&gt;0</title>
<path fill="none" stroke="black" d="M169.73,-24.3C186.14,-29.09 205.89,-37.94 216,-54 264.3,-130.73 254.76,-176.04 216,-258 212.1,-266.25 205.78,-273.46 198.85,-279.51"/>
<polygon fill="black" stroke="black" points="196.77,-276.69 191.06,-285.61 201.09,-282.2 196.77,-276.69"/>
<text text-anchor="start" x="252" y="-154" font-family="Courier New" font-weight="bold" font-size="10.00" fill="blue">VIDEO(0,IDS_EXPLODE1)</text>
</g>
</g>
</svg>
