<?xml version="1.0" encoding="UTF-8" standalone="no"?>
<!DOCTYPE svg PUBLIC "-//W3C//DTD SVG 1.1//EN"
 "http://www.w3.org/Graphics/SVG/1.1/DTD/svg11.dtd">
<!-- Generated by graphviz version 7.1.0 (20230121.1956)
 -->
<!-- Pages: 1 -->
<svg width="527pt" height="326pt"
 viewBox="0.00 0.00 527.36 326.00" xmlns="http://www.w3.org/2000/svg" xmlns:xlink="http://www.w3.org/1999/xlink">
<g id="graph0" class="graph" transform="scale(1 1) rotate(0) translate(4 322)">
<polygon fill="white" stroke="none" points="-4,4 -4,-322 523.36,-322 523.36,4 -4,4"/>
<!-- 0 -->
<g id="node1" class="node">
<title>0</title>
<ellipse fill="none" stroke="black" cx="197.36" cy="-300" rx="27" ry="18"/>
<text text-anchor="middle" x="197.36" y="-295.8" font-family="Times,serif" font-size="14.00">0</text>
</g>
<!-- 1 -->
<g id="node2" class="node">
<title>1</title>
<ellipse fill="none" stroke="black" cx="30.36" cy="-206" rx="27" ry="18"/>
<text text-anchor="middle" x="30.36" y="-201.8" font-family="Times,serif" font-size="14.00">1</text>
</g>
<!-- 0&#45;&gt;1 -->
<g id="edge1" class="edge">
<title>0&#45;&gt;1</title>
<path fill="none" stroke="black" d="M174.44,-289.97C158.42,-283.39 136.7,-273.92 118.36,-264 97.35,-252.63 74.76,-237.94 57.72,-226.32"/>
<polygon fill="black" stroke="black" points="59.85,-223.54 49.64,-220.74 55.88,-229.3 59.85,-223.54"/>
<text text-anchor="start" x="122.86" y="-250.2" font-family="Courier New" font-weight="bold" font-size="12.00" fill="orange">WAIT(00)</text>
</g>
<!-- 2 -->
<g id="node3" class="node">
<title>2</title>
<ellipse fill="none" stroke="black" cx="27.36" cy="-112" rx="27" ry="18"/>
<text text-anchor="middle" x="27.36" y="-107.8" font-family="Times,serif" font-size="14.00">2</text>
</g>
<!-- 1&#45;&gt;2 -->
<g id="edge2" class="edge">
<title>1&#45;&gt;2</title>
<path fill="none" stroke="black" d="M15.31,-190.71C10.17,-184.84 5.04,-177.64 2.36,-170 -0.87,-160.77 -0.62,-157.31 2.36,-148 3.53,-144.37 5.22,-140.8 7.18,-137.41"/>
<polygon fill="black" stroke="black" points="10.07,-139.38 12.78,-129.14 4.28,-135.46 10.07,-139.38"/>
<text text-anchor="start" x="6.86" y="-156.2" font-family="Courier New" font-weight="bold" font-size="12.00" fill="blue">PLAYWAVE(0SOUND_BURBLE)</text>
</g>
<!-- 4 -->
<g id="node4" class="node">
<title>4</title>
<ellipse fill="none" stroke="black" cx="197.36" cy="-18" rx="27" ry="18"/>
<text text-anchor="middle" x="197.36" y="-13.8" font-family="Times,serif" font-size="14.00">4</text>
</g>
<!-- 2&#45;&gt;4 -->
<g id="edge3" class="edge">
<title>2&#45;&gt;4</title>
<path fill="none" stroke="black" d="M43.04,-97.11C57.8,-84.57 80.93,-66.26 103.36,-54 121.88,-43.89 143.93,-35.5 162.01,-29.48"/>
<polygon fill="black" stroke="black" points="163.08,-32.82 171.53,-26.42 160.94,-26.15 163.08,-32.82"/>
<text text-anchor="start" x="107.36" y="-62.2" font-family="Courier New" font-weight="bold" font-size="12.00" fill="blue">ESTIME(05)</text>
</g>
<!-- 4&#45;&gt;0 -->
<g id="edge4" class="edge">
<title>4&#45;&gt;0</title>
<path fill="none" stroke="black" d="M197.36,-36.23C197.36,-83.05 197.36,-213.01 197.36,-270.74"/>
<polygon fill="black" stroke="black" points="193.86,-270.39 197.36,-280.39 200.86,-270.39 193.86,-270.39"/>
<text text-anchor="start" x="201.86" y="-156.2" font-family="Courier New" font-weight="bold" font-size="12.00" fill="blue">NEQUALi(LVIEWWIP1)</text>
</g>
<!-- 4&#45;&gt;0 -->
<g id="edge5" class="edge">
<title>4&#45;&gt;0</title>
<path fill="none" stroke="black" d="M219.37,-28.64C265,-50.17 363.43,-105.33 335.36,-170 313.41,-220.57 260.78,-260.35 227.23,-281.71"/>
<polygon fill="black" stroke="black" points="225.44,-278.7 218.77,-286.94 229.12,-284.66 225.44,-278.7"/>
<text text-anchor="start" x="343.36" y="-156.2" font-family="Courier New" font-weight="bold" font-size="12.00" fill="blue">SIGNALi(0SID_DEC_ENERGY)</text>
</g>
</g>
</svg>
