<?xml version="1.0" encoding="UTF-8" standalone="no"?>
<!DOCTYPE svg PUBLIC "-//W3C//DTD SVG 1.1//EN"
 "http://www.w3.org/Graphics/SVG/1.1/DTD/svg11.dtd">
<!-- Generated by graphviz version 7.1.0 (20230121.1956)
 -->
<!-- Pages: 1 -->
<svg width="852pt" height="514pt"
 viewBox="0.00 0.00 852.21 514.00" xmlns="http://www.w3.org/2000/svg" xmlns:xlink="http://www.w3.org/1999/xlink">
<g id="graph0" class="graph" transform="scale(1 1) rotate(0) translate(4 510)">
<polygon fill="white" stroke="none" points="-4,4 -4,-510 848.21,-510 848.21,4 -4,4"/>
<!-- 0 -->
<g id="node1" class="node">
<title>0</title>
<ellipse fill="none" stroke="black" cx="171.21" cy="-488" rx="27" ry="18"/>
<text text-anchor="middle" x="171.21" y="-483.8" font-family="Times,serif" font-size="14.00">0</text>
</g>
<!-- 50 -->
<g id="node2" class="node">
<title>50</title>
<ellipse fill="none" stroke="black" cx="54.21" cy="-394" rx="27" ry="18"/>
<text text-anchor="middle" x="54.21" y="-389.8" font-family="Times,serif" font-size="14.00">50</text>
</g>
<!-- 0&#45;&gt;50 -->
<g id="edge1" class="edge">
<title>0&#45;&gt;50</title>
<path fill="none" stroke="black" d="M144.13,-485.35C101.44,-482.12 21.53,-473.33 4.21,-452 -1.95,-444.41 -0.3,-438.67 4.21,-430 8.34,-422.07 15.18,-415.57 22.49,-410.41"/>
<polygon fill="black" stroke="black" points="23.92,-413.64 30.56,-405.39 20.22,-407.7 23.92,-413.64"/>
<text text-anchor="start" x="8.21" y="-438.2" font-family="Courier New" font-weight="bold" font-size="12.00" fill="orange">CLICK(0,0)</text>
</g>
<!-- 1 -->
<g id="node3" class="node">
<title>1</title>
<ellipse fill="none" stroke="black" cx="501.21" cy="-394" rx="27" ry="18"/>
<text text-anchor="middle" x="501.21" y="-389.8" font-family="Times,serif" font-size="14.00">1</text>
</g>
<!-- 0&#45;&gt;1 -->
<g id="edge2" class="edge">
<title>0&#45;&gt;1</title>
<path fill="none" stroke="black" d="M196.01,-480.09C253.97,-463.93 398.43,-423.65 465.7,-404.9"/>
<polygon fill="black" stroke="black" points="466.42,-408.33 475.11,-402.28 464.54,-401.59 466.42,-408.33"/>
<text text-anchor="start" x="380.21" y="-438.2" font-family="Courier New" font-weight="bold" font-size="12.00" fill="orange">WAIT(0,SIG_CLOSE)</text>
</g>
<!-- 50&#45;&gt;0 -->
<g id="edge7" class="edge">
<title>50&#45;&gt;0</title>
<path fill="none" stroke="black" d="M67.38,-410.24C80.11,-424.76 98.68,-445.36 107.21,-452 116.88,-459.52 128.38,-466.36 138.95,-471.95"/>
<polygon fill="black" stroke="black" points="137.26,-475.02 147.76,-476.43 140.43,-468.78 137.26,-475.02"/>
<text text-anchor="start" x="111.21" y="-438.2" font-family="Courier New" font-weight="bold" font-size="12.00" fill="blue">LOADVIEW(WIP1,)</text>
</g>
<!-- 2 -->
<g id="node4" class="node">
<title>2</title>
<ellipse fill="none" stroke="black" cx="416.21" cy="-300" rx="27" ry="18"/>
<text text-anchor="middle" x="416.21" y="-295.8" font-family="Times,serif" font-size="14.00">2</text>
</g>
<!-- 1&#45;&gt;2 -->
<g id="edge3" class="edge">
<title>1&#45;&gt;2</title>
<path fill="none" stroke="black" d="M475.37,-387.73C458.45,-382.91 437.31,-373.98 425.21,-358 419.15,-349.99 416.46,-339.52 415.42,-329.73"/>
<polygon fill="black" stroke="black" points="418.92,-329.68 414.94,-319.87 411.93,-330.02 418.92,-329.68"/>
<text text-anchor="start" x="429.21" y="-344.2" font-family="Courier New" font-weight="bold" font-size="12.00" fill="blue">SIGNAL(WIP2,SIG_ON)</text>
</g>
<!-- 3 -->
<g id="node5" class="node">
<title>3</title>
<ellipse fill="none" stroke="black" cx="254.21" cy="-206" rx="27" ry="18"/>
<text text-anchor="middle" x="254.21" y="-201.8" font-family="Times,serif" font-size="14.00">3</text>
</g>
<!-- 2&#45;&gt;3 -->
<g id="edge4" class="edge">
<title>2&#45;&gt;3</title>
<path fill="none" stroke="black" d="M389.14,-297.29C361.55,-294.31 318.74,-286.19 289.21,-264 279.05,-256.36 271.17,-244.83 265.49,-234.13"/>
<polygon fill="black" stroke="black" points="268.7,-232.73 261.2,-225.25 262.4,-235.77 268.7,-232.73"/>
<text text-anchor="start" x="293.71" y="-250.2" font-family="Courier New" font-weight="bold" font-size="12.00" fill="orange">WAIT(0,SIG_OPEN)</text>
</g>
<!-- 70 -->
<g id="node6" class="node">
<title>70</title>
<ellipse fill="none" stroke="black" cx="416.21" cy="-206" rx="27" ry="18"/>
<text text-anchor="middle" x="416.21" y="-201.8" font-family="Times,serif" font-size="14.00">70</text>
</g>
<!-- 2&#45;&gt;70 -->
<g id="edge5" class="edge">
<title>2&#45;&gt;70</title>
<path fill="none" stroke="black" d="M416.21,-281.7C416.21,-268.72 416.21,-250.66 416.21,-235.56"/>
<polygon fill="black" stroke="black" points="419.71,-235.74 416.21,-225.74 412.71,-235.74 419.71,-235.74"/>
<text text-anchor="start" x="420.21" y="-250.2" font-family="Courier New" font-weight="bold" font-size="12.00" fill="orange">WAIT(0,SIG_ENTER_1)</text>
</g>
<!-- 3&#45;&gt;0 -->
<g id="edge6" class="edge">
<title>3&#45;&gt;0</title>
<path fill="none" stroke="black" d="M256.61,-224.31C261.57,-266.72 268.97,-377.72 223.21,-452 218.36,-459.88 210.98,-466.39 203.3,-471.57"/>
<polygon fill="black" stroke="black" points="201.64,-468.49 194.88,-476.64 205.25,-474.48 201.64,-468.49"/>
<text text-anchor="start" x="262.21" y="-344.2" font-family="Courier New" font-weight="bold" font-size="12.00" fill="blue">SIGNAL(WIP2,SIG_OFF)</text>
</g>
<!-- 71 -->
<g id="node7" class="node">
<title>71</title>
<ellipse fill="none" stroke="black" cx="583.21" cy="-112" rx="27" ry="18"/>
<text text-anchor="middle" x="583.21" y="-107.8" font-family="Times,serif" font-size="14.00">71</text>
</g>
<!-- 70&#45;&gt;71 -->
<g id="edge8" class="edge">
<title>70&#45;&gt;71</title>
<path fill="none" stroke="black" d="M411.36,-187.87C408.94,-175.42 408.2,-158.91 417.21,-148 433.14,-128.71 501.06,-119.6 544.93,-115.67"/>
<polygon fill="black" stroke="black" points="545.15,-119.16 554.83,-114.84 544.57,-112.18 545.15,-119.16"/>
<text text-anchor="start" x="421.21" y="-156.2" font-family="Courier New" font-weight="bold" font-size="12.00" fill="blue">SIGNAL(WIP2,SIG_OFF)</text>
</g>
<!-- 71&#45;&gt;1 -->
<g id="edge10" class="edge">
<title>71&#45;&gt;1</title>
<path fill="none" stroke="black" d="M583.2,-130.17C583.05,-182.74 581.54,-339.02 569.21,-358 561.71,-369.54 549.14,-377.47 536.83,-382.83"/>
<polygon fill="black" stroke="black" points="535.72,-379.51 527.63,-386.35 538.22,-386.04 535.72,-379.51"/>
<text text-anchor="start" x="585.21" y="-250.2" font-family="Courier New" font-weight="bold" font-size="12.00" fill="orange">WAIT(0,SIG_CLOSE)</text>
</g>
<!-- 72 -->
<g id="node8" class="node">
<title>72</title>
<ellipse fill="none" stroke="black" cx="655.21" cy="-18" rx="27" ry="18"/>
<text text-anchor="middle" x="655.21" y="-13.8" font-family="Times,serif" font-size="14.00">72</text>
</g>
<!-- 71&#45;&gt;72 -->
<g id="edge9" class="edge">
<title>71&#45;&gt;72</title>
<path fill="none" stroke="black" d="M595.1,-95.81C606.29,-81.51 623.23,-59.87 636.28,-43.19"/>
<polygon fill="black" stroke="black" points="638.72,-45.75 642.13,-35.71 633.21,-41.43 638.72,-45.75"/>
<text text-anchor="start" x="631.21" y="-62.2" font-family="Courier New" font-weight="bold" font-size="12.00" fill="orange">CLICK(0,0)</text>
</g>
<!-- 72&#45;&gt;1 -->
<g id="edge11" class="edge">
<title>72&#45;&gt;1</title>
<path fill="none" stroke="black" d="M677.65,-28.3C689.19,-34.13 702.6,-42.69 711.21,-54 727.23,-75.03 728.21,-84.56 728.21,-111 728.21,-301 728.21,-301 728.21,-301 728.21,-381.26 604.81,-393.18 539.97,-393.91"/>
<polygon fill="black" stroke="black" points="540.1,-390.41 530.11,-393.92 540.11,-397.41 540.1,-390.41"/>
<text text-anchor="start" x="732.21" y="-203.2" font-family="Courier New" font-weight="bold" font-size="12.00" fill="blue">LOADVIEW(WIP1,)</text>
</g>
</g>
</svg>
