<?xml version="1.0" encoding="UTF-8" standalone="no"?>
<!DOCTYPE svg PUBLIC "-//W3C//DTD SVG 1.1//EN"
 "http://www.w3.org/Graphics/SVG/1.1/DTD/svg11.dtd">
<!-- Generated by graphviz version 7.1.0 (20230121.1956)
 -->
<!-- Pages: 1 -->
<svg width="743pt" height="494pt"
 viewBox="0.00 0.00 743.29 494.00" xmlns="http://www.w3.org/2000/svg" xmlns:xlink="http://www.w3.org/1999/xlink">
<g id="graph0" class="graph" transform="scale(1 1) rotate(0) translate(4 490)">
<polygon fill="white" stroke="none" points="-4,4 -4,-490 739.29,-490 739.29,4 -4,4"/>
<!-- M17_DOORWAY_0 -->
<g id="node1" class="node">
<title>M17_DOORWAY_0</title>
<polygon fill="none" stroke="black" points="100.5,-449.5 100.5,-485.5 237.05,-485.5 237.05,-449.5 100.5,-449.5"/>
<text text-anchor="middle" x="168.78" y="-463.3" font-family="Times,serif" font-size="14.00">M17_DOORWAY_0</text>
</g>
<!-- M17_DOORWAY_50 -->
<g id="node2" class="node">
<title>M17_DOORWAY_50</title>
<polygon fill="none" stroke="black" points="0,-359.7 0,-395.7 143.55,-395.7 143.55,-359.7 0,-359.7"/>
<text text-anchor="middle" x="71.78" y="-373.5" font-family="Times,serif" font-size="14.00">M17_DOORWAY_50</text>
</g>
<!-- M17_DOORWAY_0&#45;&gt;M17_DOORWAY_50 -->
<g id="edge1" class="edge">
<title>M17_DOORWAY_0&#45;&gt;M17_DOORWAY_50</title>
<path fill="none" stroke="red" d="M100.66,-457.18C69.96,-451.45 38.51,-442.89 29.27,-431 22.05,-421.71 27.05,-411.65 35.8,-402.86"/>
<polygon fill="red" stroke="red" points="37.85,-405.71 43.09,-396.5 33.25,-400.43 37.85,-405.71"/>
<text text-anchor="start" x="29.78" y="-419.4" font-family="Times,serif" font-size="14.00" fill="red"> </text>
<text text-anchor="start" x="33.28" y="-419.4" font-family="Courier New" font-size="10.00" fill="red">CLICK(0,0)</text>
</g>
<!-- M17_DOORWAY_1 -->
<g id="node3" class="node">
<title>M17_DOORWAY_1</title>
<polygon fill="none" stroke="black" points="383.5,-359.7 383.5,-395.7 520.05,-395.7 520.05,-359.7 383.5,-359.7"/>
<text text-anchor="middle" x="451.78" y="-373.5" font-family="Times,serif" font-size="14.00">M17_DOORWAY_1</text>
</g>
<!-- M17_DOORWAY_0&#45;&gt;M17_DOORWAY_1 -->
<g id="edge2" class="edge">
<title>M17_DOORWAY_0&#45;&gt;M17_DOORWAY_1</title>
<path fill="none" stroke="red" d="M223.34,-449.57C269.93,-435.12 337.05,-414.29 386.48,-398.96"/>
<polygon fill="red" stroke="red" points="387.42,-402.33 395.93,-396.03 385.34,-395.65 387.42,-402.33"/>
<text text-anchor="start" x="335.78" y="-419.4" font-family="Times,serif" font-size="14.00" fill="red"> </text>
<text text-anchor="start" x="339.28" y="-419.4" font-family="Courier New" font-size="10.00" fill="red">WAIT(0,SIG_CLOSE)</text>
</g>
<!-- M17_DOORWAY_50&#45;&gt;M17_DOORWAY_0 -->
<g id="edge7" class="edge">
<title>M17_DOORWAY_50&#45;&gt;M17_DOORWAY_0</title>
<path fill="none" stroke="green" d="M83.97,-395.27C92.38,-406.1 104.18,-420.19 116.26,-431 120.92,-435.17 126.11,-439.25 131.35,-443.06"/>
<polygon fill="green" stroke="green" points="129.3,-445.89 139.51,-448.73 133.3,-440.15 129.3,-445.89"/>
<text text-anchor="start" x="116.78" y="-419.4" font-family="Times,serif" font-size="14.00" fill="green"> </text>
<text text-anchor="start" x="120.28" y="-419.4" font-family="Courier New" font-size="10.00" fill="green">LOADVIEW(WIP1,)</text>
</g>
<!-- M17_DOORWAY_2 -->
<g id="node4" class="node">
<title>M17_DOORWAY_2</title>
<polygon fill="none" stroke="black" points="311.5,-269.9 311.5,-305.9 448.05,-305.9 448.05,-269.9 311.5,-269.9"/>
<text text-anchor="middle" x="379.78" y="-283.7" font-family="Times,serif" font-size="14.00">M17_DOORWAY_2</text>
</g>
<!-- M17_DOORWAY_1&#45;&gt;M17_DOORWAY_2 -->
<g id="edge3" class="edge">
<title>M17_DOORWAY_1&#45;&gt;M17_DOORWAY_2</title>
<path fill="none" stroke="green" d="M410.01,-359.81C402.08,-354.88 394.6,-348.73 389.26,-341.2 384.32,-334.24 381.72,-325.49 380.4,-317.15"/>
<polygon fill="green" stroke="green" points="383.9,-316.97 379.44,-307.36 376.93,-317.65 383.9,-316.97"/>
<text text-anchor="start" x="389.78" y="-329.6" font-family="Times,serif" font-size="14.00" fill="green"> </text>
<text text-anchor="start" x="393.28" y="-329.6" font-family="Courier New" font-size="10.00" fill="green">SIGNAL(WIP2,SIG_ON)</text>
</g>
<!-- M17_DOORWAY_3 -->
<g id="node5" class="node">
<title>M17_DOORWAY_3</title>
<polygon fill="none" stroke="black" points="155.5,-180.1 155.5,-216.1 292.05,-216.1 292.05,-180.1 155.5,-180.1"/>
<text text-anchor="middle" x="223.78" y="-193.9" font-family="Times,serif" font-size="14.00">M17_DOORWAY_3</text>
</g>
<!-- M17_DOORWAY_2&#45;&gt;M17_DOORWAY_3 -->
<g id="edge4" class="edge">
<title>M17_DOORWAY_2&#45;&gt;M17_DOORWAY_3</title>
<path fill="none" stroke="red" d="M316.79,-270C303.23,-265.03 289.36,-258.88 277.26,-251.4 265.42,-244.08 254.12,-233.72 244.98,-224.15"/>
<polygon fill="red" stroke="red" points="247.6,-221.83 238.26,-216.81 242.43,-226.55 247.6,-221.83"/>
<text text-anchor="start" x="277.78" y="-239.8" font-family="Times,serif" font-size="14.00" fill="red"> </text>
<text text-anchor="start" x="281.28" y="-239.8" font-family="Courier New" font-size="10.00" fill="red">WAIT(0,SIG_OPEN)</text>
</g>
<!-- M17_DOORWAY_70 -->
<g id="node6" class="node">
<title>M17_DOORWAY_70</title>
<polygon fill="none" stroke="black" points="310,-180.1 310,-216.1 453.55,-216.1 453.55,-180.1 310,-180.1"/>
<text text-anchor="middle" x="381.78" y="-193.9" font-family="Times,serif" font-size="14.00">M17_DOORWAY_70</text>
</g>
<!-- M17_DOORWAY_2&#45;&gt;M17_DOORWAY_70 -->
<g id="edge5" class="edge">
<title>M17_DOORWAY_2&#45;&gt;M17_DOORWAY_70</title>
<path fill="none" stroke="red" d="M380.16,-269.97C380.44,-257.82 380.82,-241.18 381.14,-227.07"/>
<polygon fill="red" stroke="red" points="384.63,-227.57 381.36,-217.49 377.63,-227.41 384.63,-227.57"/>
<text text-anchor="start" x="381.78" y="-239.8" font-family="Times,serif" font-size="14.00" fill="red"> </text>
<text text-anchor="start" x="385.28" y="-239.8" font-family="Courier New" font-size="10.00" fill="red">WAIT(0,SIG_ENTER_1)</text>
</g>
<!-- M17_DOORWAY_3&#45;&gt;M17_DOORWAY_0 -->
<g id="edge6" class="edge">
<title>M17_DOORWAY_3&#45;&gt;M17_DOORWAY_0</title>
<path fill="none" stroke="green" d="M226.99,-215.95C233.71,-255.8 245.85,-357.95 209.78,-431 207.92,-434.77 205.46,-438.3 202.67,-441.57"/>
<polygon fill="green" stroke="green" points="200.34,-438.94 195.76,-448.49 205.3,-443.88 200.34,-438.94"/>
<text text-anchor="start" x="234.78" y="-329.6" font-family="Times,serif" font-size="14.00" fill="green"> </text>
<text text-anchor="start" x="238.28" y="-329.6" font-family="Courier New" font-size="10.00" fill="green">SIGNAL(WIP2,SIG_OFF)</text>
</g>
<!-- M17_DOORWAY_71 -->
<g id="node7" class="node">
<title>M17_DOORWAY_71</title>
<polygon fill="none" stroke="black" points="449,-90.3 449,-126.3 592.55,-126.3 592.55,-90.3 449,-90.3"/>
<text text-anchor="middle" x="520.78" y="-104.1" font-family="Times,serif" font-size="14.00">M17_DOORWAY_71</text>
</g>
<!-- M17_DOORWAY_70&#45;&gt;M17_DOORWAY_71 -->
<g id="edge8" class="edge">
<title>M17_DOORWAY_70&#45;&gt;M17_DOORWAY_71</title>
<path fill="none" stroke="green" d="M377.45,-180.25C375.62,-169.03 375.44,-154.6 383.26,-144.8 390.92,-135.19 413.49,-127.67 438.18,-122.09"/>
<polygon fill="green" stroke="green" points="438.71,-125.55 447.77,-120.05 437.26,-118.71 438.71,-125.55"/>
<text text-anchor="start" x="383.78" y="-150" font-family="Times,serif" font-size="14.00" fill="green"> </text>
<text text-anchor="start" x="387.28" y="-150" font-family="Courier New" font-size="10.00" fill="green">SIGNAL(WIP2,SIG_OFF)</text>
</g>
<!-- M17_DOORWAY_71&#45;&gt;M17_DOORWAY_1 -->
<g id="edge10" class="edge">
<title>M17_DOORWAY_71&#45;&gt;M17_DOORWAY_1</title>
<path fill="none" stroke="red" d="M520.63,-126.22C520.07,-176.51 517.54,-322.79 506.78,-341.2 504.32,-345.39 501.16,-349.18 497.58,-352.57"/>
<polygon fill="red" stroke="red" points="495.4,-349.83 489.82,-358.84 499.8,-355.28 495.4,-349.83"/>
<text text-anchor="start" x="518.78" y="-239.8" font-family="Times,serif" font-size="14.00" fill="red"> </text>
<text text-anchor="start" x="522.28" y="-239.8" font-family="Courier New" font-size="10.00" fill="red">WAIT(0,SIG_CLOSE)</text>
</g>
<!-- M17_DOORWAY_72 -->
<g id="node8" class="node">
<title>M17_DOORWAY_72</title>
<polygon fill="none" stroke="black" points="509,-0.5 509,-36.5 652.55,-36.5 652.55,-0.5 509,-0.5"/>
<text text-anchor="middle" x="580.78" y="-14.3" font-family="Times,serif" font-size="14.00">M17_DOORWAY_72</text>
</g>
<!-- M17_DOORWAY_71&#45;&gt;M17_DOORWAY_72 -->
<g id="edge9" class="edge">
<title>M17_DOORWAY_71&#45;&gt;M17_DOORWAY_72</title>
<path fill="none" stroke="red" d="M532.34,-90.37C540.98,-77.74 552.93,-60.24 562.81,-45.79"/>
<polygon fill="red" stroke="red" points="565.64,-47.86 568.39,-37.63 559.86,-43.91 565.64,-47.86"/>
<text text-anchor="start" x="555.78" y="-60.2" font-family="Times,serif" font-size="14.00" fill="red"> </text>
<text text-anchor="start" x="559.28" y="-60.2" font-family="Courier New" font-size="10.00" fill="red">CLICK(0,0)</text>
</g>
<!-- M17_DOORWAY_72&#45;&gt;M17_DOORWAY_1 -->
<g id="edge11" class="edge">
<title>M17_DOORWAY_72&#45;&gt;M17_DOORWAY_1</title>
<path fill="none" stroke="green" d="M605.76,-36.25C612.33,-41.62 618.92,-48 623.78,-55 637.78,-75.2 641.78,-82.72 641.78,-107.3 641.78,-288.9 641.78,-288.9 641.78,-288.9 641.78,-340.53 583.26,-361.89 531.17,-370.68"/>
<polygon fill="green" stroke="green" points="530.68,-367.22 521.33,-372.19 531.74,-374.14 530.68,-367.22"/>
<text text-anchor="start" x="641.78" y="-194.9" font-family="Times,serif" font-size="14.00" fill="green"> </text>
<text text-anchor="start" x="645.28" y="-194.9" font-family="Courier New" font-size="10.00" fill="green">LOADVIEW(WIP1,)</text>
</g>
</g>
</svg>
