<?xml version="1.0" encoding="UTF-8" standalone="no"?>
<!DOCTYPE svg PUBLIC "-//W3C//DTD SVG 1.1//EN"
 "http://www.w3.org/Graphics/SVG/1.1/DTD/svg11.dtd">
<!-- Generated by graphviz version 7.1.0 (20230121.1956)
 -->
<!-- Title: Automaton Pages: 1 -->
<svg width="572pt" height="245pt"
 viewBox="0.00 0.00 572.38 245.00" xmlns="http://www.w3.org/2000/svg" xmlns:xlink="http://www.w3.org/1999/xlink">
<g id="graph0" class="graph" transform="scale(1 1) rotate(0) translate(4 241)">
<title>Automaton</title>
<polygon fill="white" stroke="none" points="-4,4 -4,-241 568.38,-241 568.38,4 -4,4"/>
<!-- filename -->
<g id="node1" class="node">
<title>filename</title>
<polygon fill="none" stroke="black" points="56.38,-184.5 56.38,-236.5 174.38,-236.5 174.38,-184.5 56.38,-184.5"/>
<polygon fill="none" stroke="black" points="67.38,-211.5 67.38,-229.5 163.38,-229.5 163.38,-211.5 67.38,-211.5"/>
<text text-anchor="start" x="91.38" y="-218.5" font-family="Courier New" font-weight="bold" font-size="10.00">M17_MINE</text>
<polygon fill="none" stroke="black" points="67.38,-191.5 67.38,-209.5 163.38,-209.5 163.38,-191.5 67.38,-191.5"/>
<text text-anchor="start" x="70.38" y="-197.5" font-family="Courier New" font-size="10.00" fill="brown">start state = 0</text>
<polygon fill="none" stroke="black" points="64.38,-188.5 64.38,-232.5 166.38,-232.5 166.38,-188.5 64.38,-188.5"/>
</g>
<!-- 0 -->
<g id="node2" class="node">
<title>0</title>
<polyline fill="none" stroke="darkred" points="212.38,-199.5 226.38,-199.5"/>
<text text-anchor="start" x="215.38" y="-206.9" font-family="Courier New" font-weight="bold" font-size="14.00">0</text>
<path fill="none" stroke="darkred" d="M216.05,-196.5C216.05,-196.5 222.71,-196.5 222.71,-196.5 226.05,-196.5 229.38,-199.83 229.38,-203.17 229.38,-203.17 229.38,-217.83 229.38,-217.83 229.38,-221.17 226.05,-224.5 222.71,-224.5 222.71,-224.5 216.05,-224.5 216.05,-224.5 212.71,-224.5 209.38,-221.17 209.38,-217.83 209.38,-217.83 209.38,-203.17 209.38,-203.17 209.38,-199.83 212.71,-196.5 216.05,-196.5"/>
</g>
<!-- 1 -->
<g id="node3" class="node">
<title>1</title>
<polyline fill="none" stroke="darkred" points="170.38,-99 184.38,-99"/>
<text text-anchor="start" x="173.38" y="-106.4" font-family="Courier New" font-weight="bold" font-size="14.00">1</text>
<path fill="none" stroke="darkred" d="M174.05,-96C174.05,-96 180.71,-96 180.71,-96 184.05,-96 187.38,-99.33 187.38,-102.67 187.38,-102.67 187.38,-117.33 187.38,-117.33 187.38,-120.67 184.05,-124 180.71,-124 180.71,-124 174.05,-124 174.05,-124 170.71,-124 167.38,-120.67 167.38,-117.33 167.38,-117.33 167.38,-102.67 167.38,-102.67 167.38,-99.33 170.71,-96 174.05,-96"/>
</g>
<!-- 0&#45;&gt;1 -->
<g id="edge1" class="edge">
<title>0&#45;&gt;1</title>
<path fill="none" stroke="black" d="M196.41,-192.63C192.14,-189.67 187.67,-186.68 183.38,-184 169.2,-175.16 158.91,-180.37 150.38,-166 144.9,-156.77 147.94,-146.26 153.63,-136.93"/>
<polygon fill="black" stroke="black" points="156.37,-139.11 159.39,-128.95 150.7,-135.01 156.37,-139.11"/>
<text text-anchor="start" x="154.38" y="-154" font-family="Courier New" font-weight="bold" font-size="10.00" fill="orange">DRAG(0,IDD_SCOOPE)</text>
</g>
<!-- 3 -->
<g id="node4" class="node">
<title>3</title>
<polyline fill="none" stroke="darkred" points="275.38,-99 289.38,-99"/>
<text text-anchor="start" x="278.38" y="-106.4" font-family="Courier New" font-weight="bold" font-size="14.00">3</text>
<path fill="none" stroke="darkred" d="M279.05,-96C279.05,-96 285.71,-96 285.71,-96 289.05,-96 292.38,-99.33 292.38,-102.67 292.38,-102.67 292.38,-117.33 292.38,-117.33 292.38,-120.67 289.05,-124 285.71,-124 285.71,-124 279.05,-124 279.05,-124 275.71,-124 272.38,-120.67 272.38,-117.33 272.38,-117.33 272.38,-102.67 272.38,-102.67 272.38,-99.33 275.71,-96 279.05,-96"/>
</g>
<!-- 0&#45;&gt;3 -->
<g id="edge2" class="edge">
<title>0&#45;&gt;3</title>
<path fill="none" stroke="black" d="M242.5,-192.52C251.06,-185.21 260.18,-176.03 266.38,-166 271.45,-157.79 274.98,-147.9 277.4,-138.79"/>
<polygon fill="black" stroke="black" points="280.75,-139.85 279.57,-129.32 273.93,-138.28 280.75,-139.85"/>
<text text-anchor="start" x="278.38" y="-154" font-family="Courier New" font-weight="bold" font-size="10.00" fill="orange">DRAG(0,IDD_SCOOPF)</text>
</g>
<!-- 2 -->
<g id="node5" class="node">
<title>2</title>
<polyline fill="none" stroke="darkred" points="48.38,-7 62.38,-7"/>
<text text-anchor="start" x="51.38" y="-14.4" font-family="Courier New" font-weight="bold" font-size="14.00">2</text>
<path fill="none" stroke="darkred" d="M52.05,-4C52.05,-4 58.71,-4 58.71,-4 62.05,-4 65.38,-7.33 65.38,-10.67 65.38,-10.67 65.38,-25.33 65.38,-25.33 65.38,-28.67 62.05,-32 58.71,-32 58.71,-32 52.05,-32 52.05,-32 48.71,-32 45.38,-28.67 45.38,-25.33 45.38,-25.33 45.38,-10.67 45.38,-10.67 45.38,-7.33 48.71,-4 52.05,-4"/>
</g>
<!-- 1&#45;&gt;2 -->
<g id="edge3" class="edge">
<title>1&#45;&gt;2</title>
<path fill="none" stroke="black" d="M150.65,-92.9C141.53,-87.16 131.36,-80.51 122.38,-74 109.07,-64.36 94.93,-52.94 83.09,-43.01"/>
<polygon fill="black" stroke="black" points="85.58,-40.53 75.68,-36.74 81.05,-45.87 85.58,-40.53"/>
<text text-anchor="start" x="126.38" y="-62" font-family="Courier New" font-weight="bold" font-size="10.00" fill="blue">PLAYWAVE(0,SOUND_SLURP)</text>
</g>
<!-- 4 -->
<g id="node6" class="node">
<title>4</title>
<polyline fill="none" stroke="darkred" points="346.38,-7 360.38,-7"/>
<text text-anchor="start" x="349.38" y="-14.4" font-family="Courier New" font-weight="bold" font-size="14.00">4</text>
<path fill="none" stroke="darkred" d="M350.05,-4C350.05,-4 356.71,-4 356.71,-4 360.05,-4 363.38,-7.33 363.38,-10.67 363.38,-10.67 363.38,-25.33 363.38,-25.33 363.38,-28.67 360.05,-32 356.71,-32 356.71,-32 350.05,-32 350.05,-32 346.71,-32 343.38,-28.67 343.38,-25.33 343.38,-25.33 343.38,-10.67 343.38,-10.67 343.38,-7.33 346.71,-4 350.05,-4"/>
</g>
<!-- 3&#45;&gt;4 -->
<g id="edge5" class="edge">
<title>3&#45;&gt;4</title>
<path fill="none" stroke="black" d="M275.7,-92.07C272.28,-80.47 270.19,-65.22 277.38,-54 285.99,-40.55 301.23,-32.19 315.81,-27.04"/>
<polygon fill="black" stroke="black" points="316.74,-30.42 325.27,-24.14 314.68,-23.73 316.74,-30.42"/>
<text text-anchor="start" x="281.38" y="-62" font-family="Courier New" font-weight="bold" font-size="10.00" fill="blue">PLAYWAVE(0,SOUND_SPIT)</text>
</g>
<!-- 2&#45;&gt;0 -->
<g id="edge4" class="edge">
<title>2&#45;&gt;0</title>
<path fill="none" stroke="black" d="M37.95,-35.67C16.64,-58.12 -14.1,-98.62 7.38,-128 55.83,-194.26 109.9,-147.4 183.38,-184 185.08,-184.85 186.78,-185.77 188.48,-186.74"/>
<polygon fill="black" stroke="black" points="186.36,-189.54 196.69,-191.92 190.1,-183.62 186.36,-189.54"/>
<text text-anchor="start" x="11.38" y="-108" font-family="Courier New" font-weight="bold" font-size="10.00" fill="blue">HANDOFF(0,IDD_SCOOPF)</text>
</g>
<!-- 4&#45;&gt;0 -->
<g id="edge6" class="edge">
<title>4&#45;&gt;0</title>
<path fill="none" stroke="black" d="M380.16,-26.42C393.86,-31.72 409.31,-40.38 417.38,-54 443.3,-97.71 430.34,-130.09 394.38,-166 375.33,-185.03 302.86,-198.13 257.37,-204.67"/>
<polygon fill="black" stroke="black" points="257.07,-201.18 247.65,-206.02 258.04,-208.11 257.07,-201.18"/>
<text text-anchor="start" x="434.38" y="-108" font-family="Courier New" font-weight="bold" font-size="10.00" fill="blue">HANDOFF(0,IDD_SCOOPE)</text>
</g>
</g>
</svg>
