<?xml version="1.0" encoding="UTF-8" standalone="no"?>
<!DOCTYPE svg PUBLIC "-//W3C//DTD SVG 1.1//EN"
 "http://www.w3.org/Graphics/SVG/1.1/DTD/svg11.dtd">
<!-- Generated by graphviz version 7.1.0 (20230121.1956)
 -->
<!-- Pages: 1 -->
<svg width="807pt" height="514pt"
 viewBox="0.00 0.00 806.93 514.00" xmlns="http://www.w3.org/2000/svg" xmlns:xlink="http://www.w3.org/1999/xlink">
<g id="graph0" class="graph" transform="scale(1 1) rotate(0) translate(4 510)">
<polygon fill="white" stroke="none" points="-4,4 -4,-510 802.93,-510 802.93,4 -4,4"/>
<!-- 0 -->
<g id="node1" class="node">
<title>0</title>
<ellipse fill="none" stroke="black" cx="158.93" cy="-488" rx="27" ry="18"/>
<text text-anchor="middle" x="158.93" y="-483.8" font-family="Times,serif" font-size="14.00">0</text>
</g>
<!-- 50 -->
<g id="node2" class="node">
<title>50</title>
<ellipse fill="none" stroke="black" cx="49.93" cy="-394" rx="27" ry="18"/>
<text text-anchor="middle" x="49.93" y="-389.8" font-family="Times,serif" font-size="14.00">50</text>
</g>
<!-- 0&#45;&gt;50 -->
<g id="edge1" class="edge">
<title>0&#45;&gt;50</title>
<path fill="none" stroke="black" d="M132.15,-484.89C92.12,-481.13 19.69,-471.72 3.93,-452 -6.59,-438.84 6.1,-424.03 20.8,-412.81"/>
<polygon fill="black" stroke="black" points="22.61,-415.81 28.78,-407.2 18.58,-410.09 22.61,-415.81"/>
<text text-anchor="start" x="7.93" y="-438.2" font-family="Courier New" font-weight="bold" font-size="12.00" fill="orange">CLICK(00)</text>
</g>
<!-- 1 -->
<g id="node3" class="node">
<title>1</title>
<ellipse fill="none" stroke="black" cx="474.93" cy="-394" rx="27" ry="18"/>
<text text-anchor="middle" x="474.93" y="-389.8" font-family="Times,serif" font-size="14.00">1</text>
</g>
<!-- 0&#45;&gt;1 -->
<g id="edge2" class="edge">
<title>0&#45;&gt;1</title>
<path fill="none" stroke="black" d="M183.46,-479.86C239.14,-463.65 375.22,-424.03 439.8,-405.23"/>
<polygon fill="black" stroke="black" points="440.55,-408.65 449.18,-402.5 438.6,-401.93 440.55,-408.65"/>
<text text-anchor="start" x="359.43" y="-438.2" font-family="Courier New" font-weight="bold" font-size="12.00" fill="orange">WAIT(0SIG_CLOSE)</text>
</g>
<!-- 50&#45;&gt;0 -->
<g id="edge7" class="edge">
<title>50&#45;&gt;0</title>
<path fill="none" stroke="black" d="M61.19,-410.77C70.41,-422.98 84.29,-439.81 98.93,-452 107.5,-459.14 117.72,-465.69 127.27,-471.15"/>
<polygon fill="black" stroke="black" points="125.48,-474.16 135.93,-475.89 128.84,-468.02 125.48,-474.16"/>
<text text-anchor="start" x="102.93" y="-438.2" font-family="Courier New" font-weight="bold" font-size="12.00" fill="blue">LOADVIEW(WIP1)</text>
</g>
<!-- 2 -->
<g id="node4" class="node">
<title>2</title>
<ellipse fill="none" stroke="black" cx="392.93" cy="-300" rx="27" ry="18"/>
<text text-anchor="middle" x="392.93" y="-295.8" font-family="Times,serif" font-size="14.00">2</text>
</g>
<!-- 1&#45;&gt;2 -->
<g id="edge3" class="edge">
<title>1&#45;&gt;2</title>
<path fill="none" stroke="black" d="M449.37,-387.24C433.24,-382.25 413.35,-373.33 401.93,-358 395.93,-349.95 393.25,-339.46 392.21,-329.68"/>
<polygon fill="black" stroke="black" points="395.71,-329.64 391.71,-319.83 388.72,-329.99 395.71,-329.64"/>
<text text-anchor="start" x="406.43" y="-344.2" font-family="Courier New" font-weight="bold" font-size="12.00" fill="blue">SIGNAL(WIP2SIG_ON)</text>
</g>
<!-- 3 -->
<g id="node5" class="node">
<title>3</title>
<ellipse fill="none" stroke="black" cx="237.93" cy="-206" rx="27" ry="18"/>
<text text-anchor="middle" x="237.93" y="-201.8" font-family="Times,serif" font-size="14.00">3</text>
</g>
<!-- 2&#45;&gt;3 -->
<g id="edge4" class="edge">
<title>2&#45;&gt;3</title>
<path fill="none" stroke="black" d="M366.39,-296.62C340.54,-293.14 301.25,-284.63 273.93,-264 263.7,-256.28 255.64,-244.73 249.76,-234.05"/>
<polygon fill="black" stroke="black" points="252.91,-232.53 245.29,-225.18 246.66,-235.68 252.91,-232.53"/>
<text text-anchor="start" x="277.93" y="-250.2" font-family="Courier New" font-weight="bold" font-size="12.00" fill="orange">WAIT(0SIG_OPEN)</text>
</g>
<!-- 70 -->
<g id="node6" class="node">
<title>70</title>
<ellipse fill="none" stroke="black" cx="393.93" cy="-206" rx="27" ry="18"/>
<text text-anchor="middle" x="393.93" y="-201.8" font-family="Times,serif" font-size="14.00">70</text>
</g>
<!-- 2&#45;&gt;70 -->
<g id="edge5" class="edge">
<title>2&#45;&gt;70</title>
<path fill="none" stroke="black" d="M393.12,-281.7C393.26,-268.72 393.45,-250.66 393.62,-235.56"/>
<polygon fill="black" stroke="black" points="397.12,-235.78 393.73,-225.74 390.12,-235.7 397.12,-235.78"/>
<text text-anchor="start" x="398.43" y="-250.2" font-family="Courier New" font-weight="bold" font-size="12.00" fill="orange">WAIT(0SIG_ENTER_1)</text>
</g>
<!-- 3&#45;&gt;0 -->
<g id="edge6" class="edge">
<title>3&#45;&gt;0</title>
<path fill="none" stroke="black" d="M240.15,-224.21C244.71,-266.37 251.29,-376.87 206.93,-452 202.68,-459.2 196.3,-465.36 189.57,-470.4"/>
<polygon fill="black" stroke="black" points="187.96,-467.27 181.6,-475.75 191.85,-473.08 187.96,-467.27"/>
<text text-anchor="start" x="244.93" y="-344.2" font-family="Courier New" font-weight="bold" font-size="12.00" fill="blue">SIGNAL(WIP2SIG_OFF)</text>
</g>
<!-- 71 -->
<g id="node7" class="node">
<title>71</title>
<ellipse fill="none" stroke="black" cx="552.93" cy="-112" rx="27" ry="18"/>
<text text-anchor="middle" x="552.93" y="-107.8" font-family="Times,serif" font-size="14.00">71</text>
</g>
<!-- 70&#45;&gt;71 -->
<g id="edge8" class="edge">
<title>70&#45;&gt;71</title>
<path fill="none" stroke="black" d="M389.11,-187.89C386.71,-175.46 385.97,-158.96 394.93,-148 409.81,-129.79 472.77,-120.43 514.58,-116.13"/>
<polygon fill="black" stroke="black" points="514.89,-119.62 524.51,-115.17 514.22,-112.65 514.89,-119.62"/>
<text text-anchor="start" x="398.93" y="-156.2" font-family="Courier New" font-weight="bold" font-size="12.00" fill="blue">SIGNAL(WIP2SIG_OFF)</text>
</g>
<!-- 71&#45;&gt;1 -->
<g id="edge10" class="edge">
<title>71&#45;&gt;1</title>
<path fill="none" stroke="black" d="M552.9,-130.16C552.69,-182.69 551.02,-338.87 538.93,-358 532.21,-368.63 521.08,-376.28 509.97,-381.66"/>
<polygon fill="black" stroke="black" points="508.68,-378.4 500.86,-385.55 511.43,-384.84 508.68,-378.4"/>
<text text-anchor="start" x="554.43" y="-250.2" font-family="Courier New" font-weight="bold" font-size="12.00" fill="orange">WAIT(0SIG_CLOSE)</text>
</g>
<!-- 72 -->
<g id="node8" class="node">
<title>72</title>
<ellipse fill="none" stroke="black" cx="621.93" cy="-18" rx="27" ry="18"/>
<text text-anchor="middle" x="621.93" y="-13.8" font-family="Times,serif" font-size="14.00">72</text>
</g>
<!-- 71&#45;&gt;72 -->
<g id="edge9" class="edge">
<title>71&#45;&gt;72</title>
<path fill="none" stroke="black" d="M564.63,-95.39C575.24,-81.25 591.05,-60.17 603.38,-43.74"/>
<polygon fill="black" stroke="black" points="606.06,-45.99 609.26,-35.89 600.46,-41.79 606.06,-45.99"/>
<text text-anchor="start" x="598.93" y="-62.2" font-family="Courier New" font-weight="bold" font-size="12.00" fill="orange">CLICK(00)</text>
</g>
<!-- 72&#45;&gt;1 -->
<g id="edge11" class="edge">
<title>72&#45;&gt;1</title>
<path fill="none" stroke="black" d="M642.84,-29.95C652.53,-35.93 663.52,-44.13 670.93,-54 687.05,-75.47 690.93,-84.15 690.93,-111 690.93,-301 690.93,-301 690.93,-301 690.93,-377.2 575.74,-391.17 513.59,-393.16"/>
<polygon fill="black" stroke="black" points="513.72,-389.66 503.8,-393.38 513.87,-396.66 513.72,-389.66"/>
<text text-anchor="start" x="694.93" y="-203.2" font-family="Courier New" font-weight="bold" font-size="12.00" fill="blue">LOADVIEW(WIP1)</text>
</g>
</g>
</svg>
