<?xml version="1.0" encoding="UTF-8" standalone="no"?>
<!DOCTYPE svg PUBLIC "-//W3C//DTD SVG 1.1//EN"
 "http://www.w3.org/Graphics/SVG/1.1/DTD/svg11.dtd">
<!-- Generated by graphviz version 7.1.0 (20230121.1956)
 -->
<!-- Pages: 1 -->
<svg width="634pt" height="232pt"
 viewBox="0.00 0.00 634.40 232.00" xmlns="http://www.w3.org/2000/svg" xmlns:xlink="http://www.w3.org/1999/xlink">
<g id="graph0" class="graph" transform="scale(1 1) rotate(0) translate(4 228)">
<polygon fill="white" stroke="none" points="-4,4 -4,-228 630.4,-228 630.4,4 -4,4"/>
<!-- 0 -->
<g id="node1" class="node">
<title>0</title>
<ellipse fill="none" stroke="black" cx="237.4" cy="-206" rx="27" ry="18"/>
<text text-anchor="middle" x="237.4" y="-201.8" font-family="Times,serif" font-size="14.00">0</text>
</g>
<!-- 1 -->
<g id="node2" class="node">
<title>1</title>
<ellipse fill="none" stroke="black" cx="195.4" cy="-112" rx="27" ry="18"/>
<text text-anchor="middle" x="195.4" y="-107.8" font-family="Times,serif" font-size="14.00">1</text>
</g>
<!-- 0&#45;&gt;1 -->
<g id="edge1" class="edge">
<title>0&#45;&gt;1</title>
<path fill="none" stroke="black" d="M211.44,-200.31C194.32,-195.72 173.13,-186.85 162.4,-170 155.03,-158.43 161.81,-145.19 171.1,-134.39"/>
<polygon fill="black" stroke="black" points="173.4,-137.04 177.81,-127.41 168.36,-132.19 173.4,-137.04"/>
<text text-anchor="start" x="166.4" y="-156.2" font-family="Courier New" font-weight="bold" font-size="12.00" fill="orange">DRAG(0IDD_SCOOPE)</text>
</g>
<!-- 3 -->
<g id="node3" class="node">
<title>3</title>
<ellipse fill="none" stroke="black" cx="307.4" cy="-112" rx="27" ry="18"/>
<text text-anchor="middle" x="307.4" y="-107.8" font-family="Times,serif" font-size="14.00">3</text>
</g>
<!-- 0&#45;&gt;3 -->
<g id="edge2" class="edge">
<title>0&#45;&gt;3</title>
<path fill="none" stroke="black" d="M259.86,-195.58C271.17,-189.76 284.19,-181.24 292.4,-170 298.41,-161.77 302.01,-151.33 304.17,-141.63"/>
<polygon fill="black" stroke="black" points="307.6,-142.32 305.89,-131.87 300.71,-141.11 307.6,-142.32"/>
<text text-anchor="start" x="306.4" y="-156.2" font-family="Courier New" font-weight="bold" font-size="12.00" fill="orange">DRAG(0IDD_SCOOPF)</text>
</g>
<!-- 2 -->
<g id="node4" class="node">
<title>2</title>
<ellipse fill="none" stroke="black" cx="62.4" cy="-18" rx="27" ry="18"/>
<text text-anchor="middle" x="62.4" y="-13.8" font-family="Times,serif" font-size="14.00">2</text>
</g>
<!-- 1&#45;&gt;2 -->
<g id="edge3" class="edge">
<title>1&#45;&gt;2</title>
<path fill="none" stroke="black" d="M172.78,-101.59C158.63,-95.25 140.32,-86.2 125.4,-76 110.84,-66.05 96.15,-52.97 84.61,-41.84"/>
<polygon fill="black" stroke="black" points="87.12,-39.4 77.54,-34.87 82.2,-44.38 87.12,-39.4"/>
<text text-anchor="start" x="129.4" y="-62.2" font-family="Courier New" font-weight="bold" font-size="12.00" fill="blue">PLAYWAVE(0SOUND_SLURP)</text>
</g>
<!-- 4 -->
<g id="node5" class="node">
<title>4</title>
<ellipse fill="none" stroke="black" cx="386.4" cy="-18" rx="27" ry="18"/>
<text text-anchor="middle" x="386.4" y="-13.8" font-family="Times,serif" font-size="14.00">4</text>
</g>
<!-- 3&#45;&gt;4 -->
<g id="edge5" class="edge">
<title>3&#45;&gt;4</title>
<path fill="none" stroke="black" d="M299.86,-94.4C295.56,-82.23 292.44,-65.83 300.4,-54 311.23,-37.9 330.88,-29.21 348.66,-24.51"/>
<polygon fill="black" stroke="black" points="349.23,-27.97 358.21,-22.35 347.68,-21.14 349.23,-27.97"/>
<text text-anchor="start" x="304.9" y="-62.2" font-family="Courier New" font-weight="bold" font-size="12.00" fill="blue">PLAYWAVE(0SOUND_SPIT)</text>
</g>
<!-- 2&#45;&gt;0 -->
<g id="edge4" class="edge">
<title>2&#45;&gt;0</title>
<path fill="none" stroke="black" d="M46.28,-32.8C22.74,-54.64 -15.84,-97.97 7.4,-130 51.32,-190.52 145.39,-203.13 198.62,-205.21"/>
<polygon fill="black" stroke="black" points="198.35,-208.7 208.44,-205.47 198.54,-201.7 198.35,-208.7"/>
<text text-anchor="start" x="11.4" y="-109.2" font-family="Courier New" font-weight="bold" font-size="12.00" fill="blue">HANDOFF(0IDD_SCOOPF)</text>
</g>
<!-- 4&#45;&gt;0 -->
<g id="edge6" class="edge">
<title>4&#45;&gt;0</title>
<path fill="none" stroke="black" d="M412.04,-23.99C428.66,-28.7 449.07,-37.59 459.4,-54 487.4,-98.48 474.77,-134.08 436.4,-170 413.71,-191.24 327.09,-199.85 275.91,-203.13"/>
<polygon fill="black" stroke="black" points="275.93,-199.62 266.15,-203.71 276.34,-206.61 275.93,-199.62"/>
<text text-anchor="start" x="478.4" y="-109.2" font-family="Courier New" font-weight="bold" font-size="12.00" fill="blue">HANDOFF(0IDD_SCOOPE)</text>
</g>
</g>
</svg>
