<?xml version="1.0" encoding="UTF-8" standalone="no"?>
<!DOCTYPE svg PUBLIC "-//W3C//DTD SVG 1.1//EN"
 "http://www.w3.org/Graphics/SVG/1.1/DTD/svg11.dtd">
<!-- Generated by graphviz version 7.1.0 (20230121.1956)
 -->
<!-- Title: Automaton Pages: 1 -->
<svg width="2164pt" height="361pt"
 viewBox="0.00 0.00 2164.12 361.00" xmlns="http://www.w3.org/2000/svg" xmlns:xlink="http://www.w3.org/1999/xlink">
<g id="graph0" class="graph" transform="scale(1 1) rotate(0) translate(4 357)">
<title>Automaton</title>
<polygon fill="white" stroke="none" points="-4,4 -4,-357 2160.12,-357 2160.12,4 -4,4"/>
<!-- filename -->
<g id="node1" class="node">
<title>filename</title>
<polygon fill="none" stroke="black" points="925.12,-300.5 925.12,-352.5 1043.12,-352.5 1043.12,-300.5 925.12,-300.5"/>
<polygon fill="none" stroke="black" points="936.12,-327.5 936.12,-345.5 1032.12,-345.5 1032.12,-327.5 936.12,-327.5"/>
<text text-anchor="start" x="948.11" y="-334.5" font-family="Courier New" font-weight="bold" font-size="10.00">M17_LOCKBURN</text>
<polygon fill="none" stroke="black" points="936.12,-307.5 936.12,-325.5 1032.12,-325.5 1032.12,-307.5 936.12,-307.5"/>
<text text-anchor="start" x="939.12" y="-313.5" font-family="Courier New" font-size="10.00" fill="brown">start state = 0</text>
<polygon fill="none" stroke="black" points="933.12,-304.5 933.12,-348.5 1035.12,-348.5 1035.12,-304.5 933.12,-304.5"/>
</g>
<!-- 0 -->
<g id="node2" class="node">
<title>0</title>
<polyline fill="none" stroke="darkred" points="1081.12,-315.5 1095.12,-315.5"/>
<text text-anchor="start" x="1084.12" y="-322.9" font-family="Courier New" font-weight="bold" font-size="14.00">0</text>
<path fill="none" stroke="darkred" d="M1084.78,-312.5C1084.78,-312.5 1091.45,-312.5 1091.45,-312.5 1094.78,-312.5 1098.12,-315.83 1098.12,-319.17 1098.12,-319.17 1098.12,-333.83 1098.12,-333.83 1098.12,-337.17 1094.78,-340.5 1091.45,-340.5 1091.45,-340.5 1084.78,-340.5 1084.78,-340.5 1081.45,-340.5 1078.12,-337.17 1078.12,-333.83 1078.12,-333.83 1078.12,-319.17 1078.12,-319.17 1078.12,-315.83 1081.45,-312.5 1084.78,-312.5"/>
</g>
<!-- 1 -->
<g id="node3" class="node">
<title>1</title>
<polyline fill="none" stroke="darkred" points="387.12,-191 401.12,-191"/>
<text text-anchor="start" x="390.12" y="-198.4" font-family="Courier New" font-weight="bold" font-size="14.00">1</text>
<path fill="none" stroke="darkred" d="M390.78,-188C390.78,-188 397.45,-188 397.45,-188 400.78,-188 404.12,-191.33 404.12,-194.67 404.12,-194.67 404.12,-209.33 404.12,-209.33 404.12,-212.67 400.78,-216 397.45,-216 397.45,-216 390.78,-216 390.78,-216 387.45,-216 384.12,-212.67 384.12,-209.33 384.12,-209.33 384.12,-194.67 384.12,-194.67 384.12,-191.33 387.45,-188 390.78,-188"/>
</g>
<!-- 0&#45;&gt;1 -->
<g id="edge1" class="edge">
<title>0&#45;&gt;1</title>
<path fill="none" stroke="black" d="M1068.72,-308.62C1063.64,-305.11 1057.94,-301.91 1052.12,-300 1024.61,-290.98 30.41,-302.65 10.12,-282 -3.59,-268.05 -3.07,-252.44 10.12,-238 33.14,-212.78 263.44,-205.53 355.95,-203.62"/>
<polygon fill="black" stroke="black" points="355.85,-207.13 365.78,-203.43 355.71,-200.13 355.85,-207.13"/>
<text text-anchor="start" x="14.12" y="-258" font-family="Courier New" font-weight="bold" font-size="10.00" fill="orange">WAIT(0,SIG_BURN)</text>
</g>
<!-- 0&#45;&gt;1 -->
<g id="edge2" class="edge">
<title>0&#45;&gt;1</title>
<path fill="none" stroke="black" d="M1068.72,-308.63C1063.64,-305.12 1057.94,-301.92 1052.12,-300 1003.82,-284.1 172.71,-318.3 137.12,-282 71.1,-214.67 269.28,-204.41 355.82,-203.08"/>
<polygon fill="black" stroke="black" points="355.78,-206.58 365.74,-202.96 355.7,-199.58 355.78,-206.58"/>
<text text-anchor="start" x="141.12" y="-258" font-family="Courier New" font-weight="bold" font-size="10.00" fill="orange">WAIT(0,SIG_BURN)</text>
</g>
<!-- 0&#45;&gt;1 -->
<g id="edge4" class="edge">
<title>0&#45;&gt;1</title>
<path fill="none" stroke="black" d="M1068.72,-308.64C1063.63,-305.14 1057.93,-301.92 1052.12,-300 1010.55,-286.24 294.73,-313.32 264.12,-282 250.45,-268.02 252.22,-253.52 264.12,-238 275.33,-223.37 322.04,-213.49 356.28,-208.05"/>
<polygon fill="black" stroke="black" points="356.48,-211.56 365.84,-206.6 355.43,-204.64 356.48,-211.56"/>
<text text-anchor="start" x="268.12" y="-258" font-family="Courier New" font-weight="bold" font-size="10.00" fill="orange">WAIT(0,SIG_BURN)</text>
</g>
<!-- 0&#45;&gt;1 -->
<g id="edge6" class="edge">
<title>0&#45;&gt;1</title>
<path fill="none" stroke="black" d="M1068.71,-308.66C1063.63,-305.15 1057.93,-301.94 1052.12,-300 1017.27,-288.38 416.74,-308.33 391.12,-282 378.28,-268.81 379.72,-247.77 383.99,-230.72"/>
<polygon fill="black" stroke="black" points="387.34,-231.73 386.83,-221.15 380.63,-229.74 387.34,-231.73"/>
<text text-anchor="start" x="395.12" y="-258" font-family="Courier New" font-weight="bold" font-size="10.00" fill="orange">WAIT(0,SIG_BURN)</text>
</g>
<!-- 0&#45;&gt;1 -->
<g id="edge8" class="edge">
<title>0&#45;&gt;1</title>
<path fill="none" stroke="black" d="M1068.7,-308.69C1063.62,-305.18 1057.92,-301.96 1052.12,-300 996.81,-281.35 578.67,-309.37 527.12,-282 505.76,-270.66 514.54,-252.4 495.12,-238 476.59,-224.27 452.24,-215.62 432.09,-210.35"/>
<polygon fill="black" stroke="black" points="433.11,-207 422.57,-208.06 431.47,-213.8 433.11,-207"/>
<text text-anchor="start" x="531.12" y="-258" font-family="Courier New" font-weight="bold" font-size="10.00" fill="orange">WAIT(0,SIG_BURN)</text>
</g>
<!-- 5 -->
<g id="node4" class="node">
<title>5</title>
<polyline fill="none" stroke="darkred" points="1082.12,-191 1096.12,-191"/>
<text text-anchor="start" x="1085.12" y="-198.4" font-family="Courier New" font-weight="bold" font-size="14.00">5</text>
<path fill="none" stroke="darkred" d="M1085.78,-188C1085.78,-188 1092.45,-188 1092.45,-188 1095.78,-188 1099.12,-191.33 1099.12,-194.67 1099.12,-194.67 1099.12,-209.33 1099.12,-209.33 1099.12,-212.67 1095.78,-216 1092.45,-216 1092.45,-216 1085.78,-216 1085.78,-216 1082.45,-216 1079.12,-212.67 1079.12,-209.33 1079.12,-209.33 1079.12,-194.67 1079.12,-194.67 1079.12,-191.33 1082.45,-188 1085.78,-188"/>
</g>
<!-- 0&#45;&gt;5 -->
<g id="edge3" class="edge">
<title>0&#45;&gt;5</title>
<path fill="none" stroke="black" d="M1068.69,-308.73C1063.6,-305.22 1057.91,-301.99 1052.12,-300 1009.3,-285.32 676.41,-314.71 645.12,-282 631.6,-267.87 631.84,-252.36 645.12,-238 672.41,-208.47 948.5,-203.82 1051.04,-203.12"/>
<polygon fill="black" stroke="black" points="1050.89,-206.62 1060.87,-203.06 1050.85,-199.62 1050.89,-206.62"/>
<text text-anchor="start" x="649.12" y="-258" font-family="Courier New" font-weight="bold" font-size="10.00" fill="orange">WAIT(0,SIG_HIDE)</text>
</g>
<!-- 0&#45;&gt;5 -->
<g id="edge5" class="edge">
<title>0&#45;&gt;5</title>
<path fill="none" stroke="black" d="M1068.28,-308.55C1063.29,-305.14 1057.75,-301.99 1052.12,-300 1022.73,-289.6 793.44,-304.74 772.12,-282 758.74,-267.74 759.07,-252.57 772.12,-238 790.45,-217.53 970.92,-207.76 1051.08,-204.41"/>
<polygon fill="black" stroke="black" points="1050.79,-207.92 1060.64,-204.02 1050.51,-200.93 1050.79,-207.92"/>
<text text-anchor="start" x="776.12" y="-258" font-family="Courier New" font-weight="bold" font-size="10.00" fill="orange">WAIT(0,SIG_HIDE)</text>
</g>
<!-- 0&#45;&gt;5 -->
<g id="edge7" class="edge">
<title>0&#45;&gt;5</title>
<path fill="none" stroke="black" d="M1067.81,-308.5C1062.93,-305.18 1057.55,-302.09 1052.12,-300 1020.16,-287.73 921.87,-307.58 899.12,-282 886.12,-267.39 886.6,-253.03 899.12,-238 918.04,-215.27 1001.07,-207.25 1050.89,-204.46"/>
<polygon fill="black" stroke="black" points="1050.86,-207.96 1060.67,-203.96 1050.51,-200.97 1050.86,-207.96"/>
<text text-anchor="start" x="903.12" y="-258" font-family="Courier New" font-weight="bold" font-size="10.00" fill="orange">WAIT(0,SIG_HIDE)</text>
</g>
<!-- 0&#45;&gt;5 -->
<g id="edge9" class="edge">
<title>0&#45;&gt;5</title>
<path fill="none" stroke="black" d="M1064.52,-308.73C1060.39,-305.81 1056.13,-302.81 1052.12,-300 1040.61,-291.94 1032.64,-294.45 1026.12,-282 1017.04,-264.68 1016.2,-254.85 1026.12,-238 1032.02,-227.97 1041.95,-220.61 1052.2,-215.3"/>
<polygon fill="black" stroke="black" points="1053.38,-218.61 1061.04,-211.28 1050.49,-212.23 1053.38,-218.61"/>
<text text-anchor="start" x="1030.12" y="-258" font-family="Courier New" font-weight="bold" font-size="10.00" fill="orange">WAIT(0,SIG_HIDE)</text>
</g>
<!-- 2 -->
<g id="node5" class="node">
<title>2</title>
<polyline fill="none" stroke="darkred" points="713.12,-99 727.12,-99"/>
<text text-anchor="start" x="716.12" y="-106.4" font-family="Courier New" font-weight="bold" font-size="14.00">2</text>
<path fill="none" stroke="darkred" d="M716.78,-96C716.78,-96 723.45,-96 723.45,-96 726.78,-96 730.12,-99.33 730.12,-102.67 730.12,-102.67 730.12,-117.33 730.12,-117.33 730.12,-120.67 726.78,-124 723.45,-124 723.45,-124 716.78,-124 716.78,-124 713.45,-124 710.12,-120.67 710.12,-117.33 710.12,-117.33 710.12,-102.67 710.12,-102.67 710.12,-99.33 713.45,-96 716.78,-96"/>
</g>
<!-- 1&#45;&gt;2 -->
<g id="edge10" class="edge">
<title>1&#45;&gt;2</title>
<path fill="none" stroke="black" d="M367.4,-199.08C319.56,-194.71 227.21,-181.5 260.12,-146 288.56,-115.31 577.02,-111.4 682.09,-111"/>
<polygon fill="black" stroke="black" points="681.9,-114.5 691.89,-110.97 681.88,-107.5 681.9,-114.5"/>
<text text-anchor="start" x="264.12" y="-154" font-family="Courier New" font-weight="bold" font-size="10.00" fill="blue">SHOW(0,IDS_MINEBLOW)</text>
</g>
<!-- 1&#45;&gt;2 -->
<g id="edge11" class="edge">
<title>1&#45;&gt;2</title>
<path fill="none" stroke="black" d="M394.64,-184.16C395.99,-171.66 399.96,-155.25 411.12,-146 451.48,-112.56 608.41,-109.71 681.83,-110.29"/>
<polygon fill="black" stroke="black" points="681.74,-113.79 691.77,-110.39 681.81,-106.79 681.74,-113.79"/>
<text text-anchor="start" x="415.12" y="-154" font-family="Courier New" font-weight="bold" font-size="10.00" fill="blue">SHOW(0,IDS_MINEBLOW)</text>
</g>
<!-- 1&#45;&gt;2 -->
<g id="edge12" class="edge">
<title>1&#45;&gt;2</title>
<path fill="none" stroke="black" d="M421.12,-198.37C451.29,-194.57 500.91,-185.71 539.12,-166 551.16,-159.79 550.02,-152.1 562.12,-146 600.38,-126.71 649.13,-117.98 682.3,-114.08"/>
<polygon fill="black" stroke="black" points="682.26,-117.6 691.83,-113.05 681.51,-110.64 682.26,-117.6"/>
<text text-anchor="start" x="566.12" y="-154" font-family="Courier New" font-weight="bold" font-size="10.00" fill="blue">SHOW(0,IDS_MINEBLOW)</text>
</g>
<!-- 1&#45;&gt;2 -->
<g id="edge13" class="edge">
<title>1&#45;&gt;2</title>
<path fill="none" stroke="black" d="M420.86,-200.91C485.19,-200.21 646.5,-195.49 690.12,-166 699.88,-159.4 706.75,-148.53 711.43,-138.19"/>
<polygon fill="black" stroke="black" points="714.56,-139.8 714.99,-129.22 708.05,-137.23 714.56,-139.8"/>
<text text-anchor="start" x="711.12" y="-154" font-family="Courier New" font-weight="bold" font-size="10.00" fill="blue">SHOW(0,IDS_MINEBLOW)</text>
</g>
<!-- 1&#45;&gt;2 -->
<g id="edge14" class="edge">
<title>1&#45;&gt;2</title>
<path fill="none" stroke="black" d="M420.92,-200.96C512.75,-200.53 810.68,-196.76 839.12,-166 865.78,-137.16 802.41,-122.21 758.29,-115.53"/>
<polygon fill="black" stroke="black" points="758.88,-112.08 748.49,-114.14 757.9,-119.01 758.88,-112.08"/>
<text text-anchor="start" x="850.12" y="-154" font-family="Courier New" font-weight="bold" font-size="10.00" fill="blue">SHOW(0,IDS_MINEBLOW)</text>
</g>
<!-- 5&#45;&gt;0 -->
<g id="edge25" class="edge">
<title>5&#45;&gt;0</title>
<path fill="none" stroke="black" d="M1115.74,-219.87C1121.54,-224.94 1126.9,-231.03 1130.12,-238 1138.31,-255.76 1137.44,-263.87 1130.12,-282 1127.38,-288.77 1123.03,-295.07 1118.15,-300.66"/>
<polygon fill="black" stroke="black" points="1115.72,-298.14 1111.24,-307.74 1120.73,-303.03 1115.72,-298.14"/>
<polygon fill="none" stroke="black" points="1138.12,-261 1138.12,-279 1216.12,-279 1216.12,-261 1138.12,-261"/>
<text text-anchor="start" x="1141.12" y="-268" font-family="Courier New" font-weight="bold" font-size="10.00" fill="blue">Z_EPSILON(,)</text>
<polygon fill="none" stroke="black" points="1138.12,-241 1138.12,-259 1216.12,-259 1216.12,-241 1138.12,-241"/>
<text text-anchor="start" x="1144.11" y="-247" font-family="Courier New" font-size="10.00" fill="blue"> &#160;&#160;&#160;SHOW();</text>
<polygon fill="none" stroke="black" points="1135.12,-238 1135.12,-282 1219.12,-282 1219.12,-238 1135.12,-238"/>
</g>
<!-- 5&#45;&gt;0 -->
<g id="edge26" class="edge">
<title>5&#45;&gt;0</title>
<path fill="none" stroke="black" d="M1116.11,-206.17C1151.37,-210.93 1210.15,-221.21 1223.12,-238 1235.07,-253.48 1234.63,-266.19 1223.12,-282 1201.1,-312.22 1157.7,-321.9 1126.04,-324.77"/>
<polygon fill="black" stroke="black" points="1126.2,-321.25 1116.47,-325.44 1126.69,-328.23 1126.2,-321.25"/>
<polygon fill="none" stroke="black" points="1234.12,-261 1234.12,-279 1312.12,-279 1312.12,-261 1234.12,-261"/>
<text text-anchor="start" x="1237.12" y="-268" font-family="Courier New" font-weight="bold" font-size="10.00" fill="blue">Z_EPSILON(,)</text>
<polygon fill="none" stroke="black" points="1234.12,-241 1234.12,-259 1312.12,-259 1312.12,-241 1234.12,-241"/>
<text text-anchor="start" x="1240.11" y="-247" font-family="Courier New" font-size="10.00" fill="blue"> &#160;&#160;&#160;SHOW();</text>
<polygon fill="none" stroke="black" points="1231.12,-238 1231.12,-282 1315.12,-282 1315.12,-238 1231.12,-238"/>
</g>
<!-- 5&#45;&gt;0 -->
<g id="edge27" class="edge">
<title>5&#45;&gt;0</title>
<path fill="none" stroke="black" d="M1116,-202.91C1170.96,-203.37 1293.19,-207.83 1319.12,-238 1374.55,-302.5 1205.46,-319.58 1126.46,-324"/>
<polygon fill="black" stroke="black" points="1126.36,-320.5 1116.56,-324.51 1126.72,-327.49 1126.36,-320.5"/>
<polygon fill="none" stroke="black" points="1332.12,-261 1332.12,-279 1410.12,-279 1410.12,-261 1332.12,-261"/>
<text text-anchor="start" x="1335.12" y="-268" font-family="Courier New" font-weight="bold" font-size="10.00" fill="blue">Z_EPSILON(,)</text>
<polygon fill="none" stroke="black" points="1332.12,-241 1332.12,-259 1410.12,-259 1410.12,-241 1332.12,-241"/>
<text text-anchor="start" x="1338.11" y="-247" font-family="Courier New" font-size="10.00" fill="blue"> &#160;&#160;&#160;SHOW();</text>
<polygon fill="none" stroke="black" points="1329.12,-238 1329.12,-282 1413.12,-282 1413.12,-238 1329.12,-238"/>
</g>
<!-- 5&#45;&gt;0 -->
<g id="edge28" class="edge">
<title>5&#45;&gt;0</title>
<path fill="none" stroke="black" d="M1115.93,-203.85C1190.66,-206.48 1397.09,-215.72 1417.12,-238 1430.19,-252.54 1430.01,-267.29 1417.12,-282 1398.18,-303.6 1209.07,-317.95 1126.43,-323.23"/>
<polygon fill="black" stroke="black" points="1126.31,-319.73 1116.55,-323.85 1126.75,-326.72 1126.31,-319.73"/>
<polygon fill="none" stroke="black" points="1429.12,-261 1429.12,-279 1507.12,-279 1507.12,-261 1429.12,-261"/>
<text text-anchor="start" x="1432.12" y="-268" font-family="Courier New" font-weight="bold" font-size="10.00" fill="blue">Z_EPSILON(,)</text>
<polygon fill="none" stroke="black" points="1429.12,-241 1429.12,-259 1507.12,-259 1507.12,-241 1429.12,-241"/>
<text text-anchor="start" x="1435.11" y="-247" font-family="Courier New" font-size="10.00" fill="blue"> &#160;&#160;&#160;SHOW();</text>
<polygon fill="none" stroke="black" points="1426.12,-238 1426.12,-282 1510.12,-282 1510.12,-238 1426.12,-238"/>
</g>
<!-- 3 -->
<g id="node6" class="node">
<title>3</title>
<polyline fill="none" stroke="darkred" points="1346.12,-7 1360.12,-7"/>
<text text-anchor="start" x="1349.12" y="-14.4" font-family="Courier New" font-weight="bold" font-size="14.00">3</text>
<path fill="none" stroke="darkred" d="M1349.78,-4C1349.78,-4 1356.45,-4 1356.45,-4 1359.78,-4 1363.12,-7.33 1363.12,-10.67 1363.12,-10.67 1363.12,-25.33 1363.12,-25.33 1363.12,-28.67 1359.78,-32 1356.45,-32 1356.45,-32 1349.78,-32 1349.78,-32 1346.45,-32 1343.12,-28.67 1343.12,-25.33 1343.12,-25.33 1343.12,-10.67 1343.12,-10.67 1343.12,-7.33 1346.45,-4 1349.78,-4"/>
</g>
<!-- 2&#45;&gt;3 -->
<g id="edge15" class="edge">
<title>2&#45;&gt;3</title>
<path fill="none" stroke="black" d="M693.52,-108.92C634.16,-107.91 499.5,-100.59 544.12,-54 571.07,-25.86 1158.2,-20.21 1314.94,-19.2"/>
<polygon fill="black" stroke="black" points="1314.81,-22.7 1324.78,-19.14 1314.76,-15.7 1314.81,-22.7"/>
<text text-anchor="start" x="548.12" y="-62" font-family="Courier New" font-weight="bold" font-size="10.00" fill="blue">PLAYWAVE(0,SOUND_EXPLODE)</text>
</g>
<!-- 2&#45;&gt;3 -->
<g id="edge16" class="edge">
<title>2&#45;&gt;3</title>
<path fill="none" stroke="black" d="M716.45,-92.14C714.85,-79.79 715.19,-63.59 725.12,-54 746.42,-33.43 1182.65,-22.59 1315.23,-19.76"/>
<polygon fill="black" stroke="black" points="1314.95,-23.27 1324.87,-19.56 1314.8,-16.27 1314.95,-23.27"/>
<text text-anchor="start" x="729.12" y="-62" font-family="Courier New" font-weight="bold" font-size="10.00" fill="blue">PLAYWAVE(0,SOUND_EXPLODE)</text>
</g>
<!-- 2&#45;&gt;3 -->
<g id="edge17" class="edge">
<title>2&#45;&gt;3</title>
<path fill="none" stroke="black" d="M746.87,-107.36C780.32,-104.41 838.59,-96.26 883.12,-74 895.23,-67.94 893.62,-59.24 906.12,-54 979.52,-23.23 1220.9,-19.29 1315.04,-18.94"/>
<polygon fill="black" stroke="black" points="1314.78,-22.44 1324.78,-18.92 1314.77,-15.44 1314.78,-22.44"/>
<text text-anchor="start" x="910.12" y="-62" font-family="Courier New" font-weight="bold" font-size="10.00" fill="blue">PLAYWAVE(0,SOUND_EXPLODE)</text>
</g>
<!-- 2&#45;&gt;3 -->
<g id="edge18" class="edge">
<title>2&#45;&gt;3</title>
<path fill="none" stroke="black" d="M747.09,-108.35C817.83,-106.31 1007.17,-98.65 1064.12,-74 1076.55,-68.62 1074.77,-59.56 1087.12,-54 1127,-36.03 1251.53,-25.59 1315.04,-21.3"/>
<polygon fill="black" stroke="black" points="1314.9,-24.82 1324.65,-20.67 1314.44,-17.83 1314.9,-24.82"/>
<text text-anchor="start" x="1091.12" y="-62" font-family="Courier New" font-weight="bold" font-size="10.00" fill="blue">PLAYWAVE(0,SOUND_EXPLODE)</text>
</g>
<!-- 2&#45;&gt;3 -->
<g id="edge19" class="edge">
<title>2&#45;&gt;3</title>
<path fill="none" stroke="black" d="M746.9,-109.45C840.7,-110.66 1153.6,-111.74 1245.12,-74 1257.64,-68.84 1256.59,-61.12 1268.12,-54 1282.87,-44.89 1300.41,-37.21 1315.71,-31.39"/>
<polygon fill="black" stroke="black" points="1316.78,-34.72 1324.97,-28 1314.37,-28.15 1316.78,-34.72"/>
<text text-anchor="start" x="1272.12" y="-62" font-family="Courier New" font-weight="bold" font-size="10.00" fill="blue">PLAYWAVE(0,SOUND_EXPLODE)</text>
</g>
<!-- 3&#45;&gt;0 -->
<g id="edge20" class="edge">
<title>3&#45;&gt;0</title>
<path fill="none" stroke="black" d="M1379.87,-25C1395.85,-30.02 1415.13,-38.88 1426.12,-54 1455.64,-94.63 1418.7,-121.06 1441.12,-166 1444.32,-172.43 1563.24,-227.61 1514.12,-282 1488.35,-310.53 1226.12,-321.36 1126.36,-324.46"/>
<polygon fill="black" stroke="black" points="1126.43,-320.96 1116.54,-324.76 1126.64,-327.95 1126.43,-320.96"/>
<text text-anchor="start" x="1445.12" y="-154" font-family="Courier New" font-weight="bold" font-size="10.00" fill="blue">VIDEO(0,IDS_EXPLODE1)</text>
</g>
<!-- 3&#45;&gt;0 -->
<g id="edge21" class="edge">
<title>3&#45;&gt;0</title>
<path fill="none" stroke="black" d="M1380.04,-24.57C1430.04,-36.56 1535.7,-70.16 1575.12,-146 1604.29,-202.13 1583.08,-243.19 1533.12,-282 1501.27,-306.74 1227.99,-319.97 1126.15,-324.08"/>
<polygon fill="black" stroke="black" points="1126.26,-320.58 1116.4,-324.47 1126.53,-327.57 1126.26,-320.58"/>
<text text-anchor="start" x="1587.12" y="-154" font-family="Courier New" font-weight="bold" font-size="10.00" fill="blue">VIDEO(0,IDS_EXPLODE1)</text>
</g>
<!-- 3&#45;&gt;0 -->
<g id="edge22" class="edge">
<title>3&#45;&gt;0</title>
<path fill="none" stroke="black" d="M1380.11,-18.89C1475.57,-19.61 1787.9,-32.09 1721.12,-166 1682.88,-242.68 1647.07,-251.17 1567.12,-282 1486.81,-312.97 1225.22,-322.27 1126.4,-324.72"/>
<polygon fill="black" stroke="black" points="1126.33,-321.22 1116.42,-324.95 1126.5,-328.22 1126.33,-321.22"/>
<text text-anchor="start" x="1731.12" y="-154" font-family="Courier New" font-weight="bold" font-size="10.00" fill="blue">VIDEO(0,IDS_EXPLODE1)</text>
</g>
<!-- 3&#45;&gt;0 -->
<g id="edge23" class="edge">
<title>3&#45;&gt;0</title>
<path fill="none" stroke="black" d="M1379.75,-18.48C1437.2,-18.07 1576.52,-20.91 1687.12,-54 2022.45,-154.33 1923.07,-72.95 1865.12,-166 1803.34,-265.21 1741.8,-250.99 1629.12,-282 1534.11,-308.15 1233.21,-320.61 1126.28,-324.29"/>
<polygon fill="black" stroke="black" points="1126.49,-320.78 1116.61,-324.62 1126.72,-327.78 1126.49,-320.78"/>
<text text-anchor="start" x="1882.12" y="-154" font-family="Courier New" font-weight="bold" font-size="10.00" fill="blue">VIDEO(0,IDS_EXPLODE1)</text>
</g>
<!-- 3&#45;&gt;0 -->
<g id="edge24" class="edge">
<title>3&#45;&gt;0</title>
<path fill="none" stroke="black" d="M1380.05,-19.99C1513.12,-25.4 2091.19,-55.4 2016.12,-166 1913.9,-316.6 1287.37,-325.88 1126,-325.75"/>
<polygon fill="black" stroke="black" points="1126.29,-322.25 1116.29,-325.73 1126.28,-329.25 1126.29,-322.25"/>
<text text-anchor="start" x="2026.12" y="-154" font-family="Courier New" font-weight="bold" font-size="10.00" fill="blue">VIDEO(0,IDS_EXPLODE1)</text>
</g>
</g>
</svg>
