<?xml version="1.0" encoding="UTF-8" standalone="no"?>
<!DOCTYPE svg PUBLIC "-//W3C//DTD SVG 1.1//EN"
 "http://www.w3.org/Graphics/SVG/1.1/DTD/svg11.dtd">
<!-- Generated by graphviz version 7.1.0 (20230121.1956)
 -->
<!-- Pages: 1 -->
<svg width="580pt" height="504pt"
 viewBox="0.00 0.00 580.00 504.00" xmlns="http://www.w3.org/2000/svg" xmlns:xlink="http://www.w3.org/1999/xlink">
<g id="graph0" class="graph" transform="scale(1 1) rotate(0) translate(4 500)">
<polygon fill="white" stroke="none" points="-4,4 -4,-500 576,-500 576,4 -4,4"/>
<!-- 0 -->
<g id="node1" class="node">
<title>0</title>
<ellipse fill="none" stroke="black" cx="278" cy="-478" rx="27" ry="18"/>
<text text-anchor="middle" x="278" y="-473.8" font-family="Times,serif" font-size="14.00">0</text>
</g>
<!-- 1 -->
<g id="node2" class="node">
<title>1</title>
<ellipse fill="none" stroke="black" cx="27" cy="-386" rx="27" ry="18"/>
<text text-anchor="middle" x="27" y="-381.8" font-family="Times,serif" font-size="14.00">1</text>
</g>
<!-- 0&#45;&gt;1 -->
<g id="edge1" class="edge">
<title>0&#45;&gt;1</title>
<path fill="none" stroke="black" d="M250.76,-476.53C195.65,-475.01 73.53,-468.65 43,-442 35.44,-435.4 31.35,-425.45 29.18,-415.82"/>
<polygon fill="black" stroke="black" points="32.64,-415.3 27.6,-405.98 25.72,-416.4 32.64,-415.3"/>
<text text-anchor="start" x="47" y="-430" font-family="Courier New" font-weight="bold" font-size="10.00" fill="orange">WAIT(0,SIG_OPEN)</text>
</g>
<!-- 6 -->
<g id="node3" class="node">
<title>6</title>
<ellipse fill="none" stroke="black" cx="283" cy="-386" rx="27" ry="18"/>
<text text-anchor="middle" x="283" y="-381.8" font-family="Times,serif" font-size="14.00">6</text>
</g>
<!-- 0&#45;&gt;6 -->
<g id="edge2" class="edge">
<title>0&#45;&gt;6</title>
<path fill="none" stroke="black" d="M277.89,-459.64C277.93,-448.81 278.17,-434.58 279,-422 279.14,-419.94 279.31,-417.81 279.5,-415.67"/>
<polygon fill="black" stroke="black" points="282.96,-416.23 280.52,-405.92 276,-415.5 282.96,-416.23"/>
<text text-anchor="start" x="283" y="-430" font-family="Courier New" font-weight="bold" font-size="10.00" fill="orange">WAIT(0,SIG_CLOSE)</text>
</g>
<!-- 2 -->
<g id="node4" class="node">
<title>2</title>
<ellipse fill="none" stroke="black" cx="27" cy="-294" rx="27" ry="18"/>
<text text-anchor="middle" x="27" y="-289.8" font-family="Times,serif" font-size="14.00">2</text>
</g>
<!-- 1&#45;&gt;2 -->
<g id="edge3" class="edge">
<title>1&#45;&gt;2</title>
<path fill="none" stroke="black" d="M24.61,-367.59C23.95,-361.98 23.33,-355.74 23,-350 22.49,-341.13 22.49,-338.87 23,-330 23.12,-327.94 23.27,-325.81 23.46,-323.67"/>
<polygon fill="black" stroke="black" points="26.92,-324.22 24.46,-313.92 19.95,-323.51 26.92,-324.22"/>
<text text-anchor="start" x="27" y="-338" font-family="Courier New" font-weight="bold" font-size="10.00" fill="blue">MOV(BFRAME,WTEMP1)</text>
</g>
<!-- 7 -->
<g id="node8" class="node">
<title>7</title>
<ellipse fill="none" stroke="black" cx="288" cy="-294" rx="27" ry="18"/>
<text text-anchor="middle" x="288" y="-289.8" font-family="Times,serif" font-size="14.00">7</text>
</g>
<!-- 6&#45;&gt;7 -->
<g id="edge9" class="edge">
<title>6&#45;&gt;7</title>
<path fill="none" stroke="black" d="M283.96,-367.65C284.66,-355.2 285.6,-338.14 286.41,-323.68"/>
<polygon fill="black" stroke="black" points="289.89,-323.99 286.95,-313.81 282.91,-323.6 289.89,-323.99"/>
<text text-anchor="start" x="289" y="-338" font-family="Courier New" font-weight="bold" font-size="10.00" fill="blue">CLEAR(BFRAME,)</text>
</g>
<!-- 3 -->
<g id="node5" class="node">
<title>3</title>
<ellipse fill="none" stroke="black" cx="161" cy="-202" rx="27" ry="18"/>
<text text-anchor="middle" x="161" y="-197.8" font-family="Times,serif" font-size="14.00">3</text>
</g>
<!-- 2&#45;&gt;3 -->
<g id="edge4" class="edge">
<title>2&#45;&gt;3</title>
<path fill="none" stroke="black" d="M27.8,-275.69C29.26,-263.62 33.11,-247.94 43,-238 63.91,-216.98 96.82,-208.46 122.57,-205.07"/>
<polygon fill="black" stroke="black" points="122.77,-208.57 132.33,-204.01 122.01,-201.61 122.77,-208.57"/>
<text text-anchor="start" x="47" y="-246" font-family="Courier New" font-weight="bold" font-size="10.00" fill="blue">MAP(BFRAME,WIP1)</text>
</g>
<!-- 3&#45;&gt;0 -->
<g id="edge5" class="edge">
<title>3&#45;&gt;0</title>
<path fill="none" stroke="black" d="M159.86,-220.06C158.62,-248.25 158.84,-305.84 177,-350 194.37,-392.23 230.23,-431.9 254.21,-455.32"/>
<polygon fill="black" stroke="black" points="251.7,-457.77 261.35,-462.14 256.54,-452.7 251.7,-457.77"/>
<text text-anchor="start" x="181" y="-338" font-family="Courier New" font-weight="bold" font-size="10.00" fill="blue">EQUALi(BFRAME,0)</text>
</g>
<!-- 4 -->
<g id="node6" class="node">
<title>4</title>
<ellipse fill="none" stroke="black" cx="360" cy="-110" rx="27" ry="18"/>
<text text-anchor="middle" x="360" y="-105.8" font-family="Times,serif" font-size="14.00">4</text>
</g>
<!-- 3&#45;&gt;4 -->
<g id="edge6" class="edge">
<title>3&#45;&gt;4</title>
<path fill="none" stroke="black" d="M183.06,-191.02C218.19,-175.14 287.03,-144 327.72,-125.6"/>
<polygon fill="black" stroke="black" points="329.1,-128.82 336.77,-121.51 326.21,-122.44 329.1,-128.82"/>
<text text-anchor="start" x="282" y="-154" font-family="Courier New" font-weight="bold" font-size="10.00" fill="blue">MOV(WSPRITE,WIP2)</text>
</g>
<!-- 5 -->
<g id="node7" class="node">
<title>5</title>
<ellipse fill="none" stroke="black" cx="422" cy="-18" rx="27" ry="18"/>
<text text-anchor="middle" x="422" y="-13.8" font-family="Times,serif" font-size="14.00">5</text>
</g>
<!-- 4&#45;&gt;5 -->
<g id="edge7" class="edge">
<title>4&#45;&gt;5</title>
<path fill="none" stroke="black" d="M361.32,-91.89C362.91,-80.36 366.38,-65.26 374,-54 378.69,-47.07 385.23,-41.02 391.97,-35.98"/>
<polygon fill="black" stroke="black" points="393.58,-39.12 399.89,-30.61 389.65,-33.33 393.58,-39.12"/>
<text text-anchor="start" x="378" y="-62" font-family="Courier New" font-weight="bold" font-size="10.00" fill="blue">SUBI(BFRAME,1)</text>
</g>
<!-- 5&#45;&gt;0 -->
<g id="edge8" class="edge">
<title>5&#45;&gt;0</title>
<path fill="none" stroke="black" d="M441.57,-30.42C450.24,-36.41 459.85,-44.49 466,-54 479.7,-75.18 480,-83.78 480,-109 480,-387 480,-387 480,-387 480,-457.76 375.3,-473.28 316.66,-476.43"/>
<polygon fill="black" stroke="black" points="316.6,-472.93 306.75,-476.85 316.9,-479.92 316.6,-472.93"/>
<text text-anchor="start" x="484" y="-246" font-family="Courier New" font-weight="bold" font-size="10.00" fill="blue">SHOW(WSPRITE,)</text>
</g>
<!-- 8 -->
<g id="node9" class="node">
<title>8</title>
<ellipse fill="none" stroke="black" cx="345" cy="-202" rx="27" ry="18"/>
<text text-anchor="middle" x="345" y="-197.8" font-family="Times,serif" font-size="14.00">8</text>
</g>
<!-- 7&#45;&gt;8 -->
<g id="edge10" class="edge">
<title>7&#45;&gt;8</title>
<path fill="none" stroke="black" d="M285.11,-275.99C284.03,-264.51 284.38,-249.42 291,-238 295.9,-229.55 303.75,-222.78 311.97,-217.54"/>
<polygon fill="black" stroke="black" points="313.68,-220.6 320.68,-212.64 310.25,-214.5 313.68,-220.6"/>
<text text-anchor="start" x="295" y="-246" font-family="Courier New" font-weight="bold" font-size="10.00" fill="blue">CLEAR(WSPRITE,)</text>
</g>
<!-- 8&#45;&gt;0 -->
<g id="edge11" class="edge">
<title>8&#45;&gt;0</title>
<path fill="none" stroke="black" d="M365.67,-213.8C374.59,-219.66 384.08,-227.8 389,-238 398.85,-258.42 402.4,-423.72 389,-442 372.5,-464.51 341.49,-472.92 316.43,-475.89"/>
<polygon fill="black" stroke="black" points="316.2,-472.39 306.56,-476.79 316.84,-479.37 316.2,-472.39"/>
<text text-anchor="start" x="401" y="-338" font-family="Courier New" font-weight="bold" font-size="10.00" fill="blue">SHOW(0,0)</text>
</g>
</g>
</svg>
