<?xml version="1.0" encoding="UTF-8" standalone="no"?>
<!DOCTYPE svg PUBLIC "-//W3C//DTD SVG 1.1//EN"
 "http://www.w3.org/Graphics/SVG/1.1/DTD/svg11.dtd">
<!-- Generated by graphviz version 7.1.0 (20230121.1956)
 -->
<!-- Pages: 1 -->
<svg width="1458pt" height="1090pt"
 viewBox="0.00 0.00 1458.50 1090.00" xmlns="http://www.w3.org/2000/svg" xmlns:xlink="http://www.w3.org/1999/xlink">
<g id="graph0" class="graph" transform="scale(1 1) rotate(0) translate(4 1086)">
<polygon fill="white" stroke="none" points="-4,4 -4,-1086 1454.5,-1086 1454.5,4 -4,4"/>
<!-- 0 -->
<g id="node1" class="node">
<title>0</title>
<ellipse fill="none" stroke="black" cx="1127.5" cy="-1064" rx="27" ry="18"/>
<text text-anchor="middle" x="1127.5" y="-1059.8" font-family="Times,serif" font-size="14.00">0</text>
</g>
<!-- 1 -->
<g id="node2" class="node">
<title>1</title>
<ellipse fill="none" stroke="black" cx="960.5" cy="-970" rx="27" ry="18"/>
<text text-anchor="middle" x="960.5" y="-965.8" font-family="Times,serif" font-size="14.00">1</text>
</g>
<!-- 0&#45;&gt;1 -->
<g id="edge1" class="edge">
<title>0&#45;&gt;1</title>
<path fill="none" stroke="black" d="M1100.03,-1063.47C1068.3,-1062.54 1016.3,-1056.35 983.5,-1028 974.9,-1020.57 969.48,-1009.46 966.08,-999.01"/>
<polygon fill="black" stroke="black" points="969.52,-998.34 963.52,-989.61 962.76,-1000.18 969.52,-998.34"/>
<text text-anchor="start" x="987.5" y="-1014.2" font-family="Courier New" font-weight="bold" font-size="12.00" fill="blue">MOV(WSPRITE,WIP1)</text>
</g>
<!-- 2 -->
<g id="node3" class="node">
<title>2</title>
<ellipse fill="none" stroke="black" cx="953.5" cy="-876" rx="27" ry="18"/>
<text text-anchor="middle" x="953.5" y="-871.8" font-family="Times,serif" font-size="14.00">2</text>
</g>
<!-- 1&#45;&gt;2 -->
<g id="edge2" class="edge">
<title>1&#45;&gt;2</title>
<path fill="none" stroke="black" d="M957.05,-951.98C956.04,-946.29 955.05,-939.89 954.5,-934 953.63,-924.75 953.26,-914.62 953.15,-905.5"/>
<polygon fill="black" stroke="black" points="956.65,-905.75 953.13,-895.76 949.65,-905.77 956.65,-905.75"/>
<text text-anchor="start" x="959" y="-920.2" font-family="Courier New" font-weight="bold" font-size="12.00" fill="blue">ASHOW(WSPRITE,V_LOOP)</text>
</g>
<!-- 5 -->
<g id="node7" class="node">
<title>5</title>
<ellipse fill="none" stroke="black" cx="953.5" cy="-782" rx="27" ry="18"/>
<text text-anchor="middle" x="953.5" y="-777.8" font-family="Times,serif" font-size="14.00">5</text>
</g>
<!-- 2&#45;&gt;5 -->
<g id="edge9" class="edge">
<title>2&#45;&gt;5</title>
<path fill="none" stroke="black" d="M953.5,-857.7C953.5,-844.72 953.5,-826.66 953.5,-811.56"/>
<polygon fill="black" stroke="black" points="957,-811.74 953.5,-801.74 950,-811.74 957,-811.74"/>
<text text-anchor="start" x="957.5" y="-826.2" font-family="Courier New" font-weight="bold" font-size="12.00" fill="blue">ANIMATE(0,V_LOOP)</text>
</g>
<!-- 10 -->
<g id="node4" class="node">
<title>10</title>
<ellipse fill="none" stroke="black" cx="702.5" cy="-500" rx="27" ry="18"/>
<text text-anchor="middle" x="702.5" y="-495.8" font-family="Times,serif" font-size="14.00">10</text>
</g>
<!-- 50 -->
<g id="node5" class="node">
<title>50</title>
<ellipse fill="none" stroke="black" cx="572.5" cy="-206" rx="27" ry="18"/>
<text text-anchor="middle" x="572.5" y="-201.8" font-family="Times,serif" font-size="14.00">50</text>
</g>
<!-- 10&#45;&gt;50 -->
<g id="edge3" class="edge">
<title>10&#45;&gt;50</title>
<path fill="none" stroke="black" d="M728.87,-494.99C750.27,-490.57 780.13,-481.6 800.5,-464 832.62,-436.25 884.43,-315.61 858.5,-282 828.2,-242.73 680.68,-220.01 610.17,-211.23"/>
<polygon fill="black" stroke="black" points="611,-207.81 600.65,-210.08 610.16,-214.76 611,-207.81"/>
<text text-anchor="start" x="863.5" y="-356.2" font-family="Courier New" font-weight="bold" font-size="12.00" fill="blue">IFSTATEi(0,S24_EYEPLATE1)</text>
</g>
<!-- 10&#45;&gt;50 -->
<g id="edge4" class="edge">
<title>10&#45;&gt;50</title>
<path fill="none" stroke="black" d="M729.72,-497.95C824.33,-493.22 1128.94,-468.52 1051.5,-348 990.22,-252.63 928.3,-273.84 819.5,-242 747.69,-220.99 660.32,-212.4 611.09,-209.03"/>
<polygon fill="black" stroke="black" points="611.43,-205.55 601.23,-208.4 610.98,-212.53 611.43,-205.55"/>
<text text-anchor="start" x="1066.5" y="-356.2" font-family="Courier New" font-weight="bold" font-size="12.00" fill="blue">IFSTATEi(0,S24_EYEPLATE2)</text>
</g>
<!-- 10&#45;&gt;50 -->
<g id="edge5" class="edge">
<title>10&#45;&gt;50</title>
<path fill="none" stroke="black" d="M675.17,-498.11C592.22,-495.21 344.21,-484.98 266.5,-464 173.23,-438.82 121.97,-451.76 70.5,-370 6.22,-267.88 -114.61,-361.91 266.5,-242 359.31,-212.8 474.78,-207.43 533.81,-206.76"/>
<polygon fill="black" stroke="black" points="533.69,-210.26 543.67,-206.7 533.64,-203.26 533.69,-210.26"/>
<text text-anchor="start" x="74.5" y="-356.2" font-family="Courier New" font-weight="bold" font-size="12.00" fill="blue">IFSTATEi(0,S24_EYEPLATE3)</text>
</g>
<!-- 10&#45;&gt;50 -->
<g id="edge6" class="edge">
<title>10&#45;&gt;50</title>
<path fill="none" stroke="black" d="M675.6,-497.37C632.81,-494.2 546.97,-485.55 477.5,-464 385.23,-435.38 332.97,-451.76 281.5,-370 218.33,-269.65 442.41,-225.55 534.62,-211.91"/>
<polygon fill="black" stroke="black" points="535.05,-215.39 544.45,-210.51 534.06,-208.46 535.05,-215.39"/>
<text text-anchor="start" x="285.5" y="-356.2" font-family="Courier New" font-weight="bold" font-size="12.00" fill="blue">IFSTATEi(0,S24_EYESPELL1)</text>
</g>
<!-- 10&#45;&gt;50 -->
<g id="edge7" class="edge">
<title>10&#45;&gt;50</title>
<path fill="none" stroke="black" d="M677.48,-492.65C630.4,-479.2 529.68,-442.9 488.5,-370 460.19,-319.87 513.79,-259.23 547.71,-227.94"/>
<polygon fill="black" stroke="black" points="550.01,-230.57 555.13,-221.29 545.34,-225.36 550.01,-230.57"/>
<text text-anchor="start" x="492.5" y="-356.2" font-family="Courier New" font-weight="bold" font-size="12.00" fill="blue">IFSTATEi(0,S24_EYESPELL3)</text>
</g>
<!-- 20 -->
<g id="node6" class="node">
<title>20</title>
<ellipse fill="none" stroke="black" cx="702.5" cy="-406" rx="27" ry="18"/>
<text text-anchor="middle" x="702.5" y="-401.8" font-family="Times,serif" font-size="14.00">20</text>
</g>
<!-- 10&#45;&gt;20 -->
<g id="edge8" class="edge">
<title>10&#45;&gt;20</title>
<path fill="none" stroke="black" d="M702.5,-481.7C702.5,-468.72 702.5,-450.66 702.5,-435.56"/>
<polygon fill="black" stroke="black" points="706,-435.74 702.5,-425.74 699,-435.74 706,-435.74"/>
<text text-anchor="start" x="706.5" y="-450.2" font-family="Courier New" font-weight="bold" font-size="12.00" fill="blue">Z_EPSILON(,)</text>
</g>
<!-- 51 -->
<g id="node10" class="node">
<title>51</title>
<ellipse fill="none" stroke="black" cx="913.5" cy="-112" rx="27" ry="18"/>
<text text-anchor="middle" x="913.5" y="-107.8" font-family="Times,serif" font-size="14.00">51</text>
</g>
<!-- 50&#45;&gt;51 -->
<g id="edge14" class="edge">
<title>50&#45;&gt;51</title>
<path fill="none" stroke="black" d="M597.3,-198.31C656.97,-182.21 808.72,-141.27 878.02,-122.57"/>
<polygon fill="black" stroke="black" points="878.59,-126.04 887.33,-120.06 876.77,-119.29 878.59,-126.04"/>
<text text-anchor="start" x="788.5" y="-156.2" font-family="Courier New" font-weight="bold" font-size="12.00" fill="blue">SHOW(0,0)</text>
</g>
<!-- 30 -->
<g id="node8" class="node">
<title>30</title>
<ellipse fill="none" stroke="black" cx="572.5" cy="-306" rx="27" ry="18"/>
<text text-anchor="middle" x="572.5" y="-301.8" font-family="Times,serif" font-size="14.00">30</text>
</g>
<!-- 20&#45;&gt;30 -->
<g id="edge10" class="edge">
<title>20&#45;&gt;30</title>
<path fill="none" stroke="black" d="M699.71,-387.74C696.86,-375.23 691.26,-358.7 680.5,-348 661.52,-329.13 632.98,-318.79 610,-313.22"/>
<polygon fill="black" stroke="black" points="610.9,-309.83 600.39,-311.11 609.4,-316.67 610.9,-309.83"/>
<text text-anchor="start" x="698.5" y="-356.2" font-family="Courier New" font-weight="bold" font-size="12.00" fill="blue">ASHOW(0,IDS_BIGEYE1)</text>
</g>
<!-- 6 -->
<g id="node9" class="node">
<title>6</title>
<ellipse fill="none" stroke="black" cx="953.5" cy="-688" rx="27" ry="18"/>
<text text-anchor="middle" x="953.5" y="-683.8" font-family="Times,serif" font-size="14.00">6</text>
</g>
<!-- 5&#45;&gt;6 -->
<g id="edge13" class="edge">
<title>5&#45;&gt;6</title>
<path fill="none" stroke="black" d="M953.5,-763.7C953.5,-750.72 953.5,-732.66 953.5,-717.56"/>
<polygon fill="black" stroke="black" points="957,-717.74 953.5,-707.74 950,-717.74 957,-717.74"/>
<text text-anchor="start" x="958" y="-732.2" font-family="Courier New" font-weight="bold" font-size="12.00" fill="blue">SIGNAL(WIP2,SIG_SHOW)</text>
</g>
<!-- 30&#45;&gt;50 -->
<g id="edge12" class="edge">
<title>30&#45;&gt;50</title>
<path fill="none" stroke="black" d="M572.5,-287.93C572.5,-273.54 572.5,-252.65 572.5,-235.7"/>
<polygon fill="black" stroke="black" points="576,-235.72 572.5,-225.72 569,-235.72 576,-235.72"/>
<text text-anchor="start" x="577" y="-250.2" font-family="Courier New" font-weight="bold" font-size="12.00" fill="orange">WAIT(0,SIG_BOMB)</text>
</g>
<!-- 30&#45;&gt;30 -->
<g id="edge11" class="edge">
<title>30&#45;&gt;30</title>
<path fill="none" stroke="black" d="M595.65,-315.64C607.2,-316.98 617.5,-313.76 617.5,-306 617.5,-300.91 613.06,-297.77 606.75,-296.59"/>
<polygon fill="black" stroke="black" points="607.24,-293.1 597.17,-296.39 607.09,-300.1 607.24,-293.1"/>
<polygon fill="none" stroke="black" points="620.5,-307 620.5,-327 846.5,-327 846.5,-307 620.5,-307"/>
<text text-anchor="start" x="665.09" y="-314.2" font-family="Courier New" font-weight="bold" font-size="12.00" fill="orange">GRAB(0,IDD_EYEWAND)</text>
<polygon fill="none" stroke="black" points="620.5,-285 620.5,-305 846.5,-305 846.5,-285 620.5,-285"/>
<text text-anchor="start" x="623.5" y="-291.2" font-family="Times,serif" font-size="12.00" fill="blue">SIGNALi(SIG_COMPLETE,REC_EYEOG);</text>
<polygon fill="none" stroke="black" points="617.5,-282 617.5,-330 849.5,-330 849.5,-282 617.5,-282"/>
</g>
<!-- 7 -->
<g id="node12" class="node">
<title>7</title>
<ellipse fill="none" stroke="black" cx="953.5" cy="-594" rx="27" ry="18"/>
<text text-anchor="middle" x="953.5" y="-589.8" font-family="Times,serif" font-size="14.00">7</text>
</g>
<!-- 6&#45;&gt;7 -->
<g id="edge17" class="edge">
<title>6&#45;&gt;7</title>
<path fill="none" stroke="black" d="M953.5,-669.7C953.5,-656.72 953.5,-638.66 953.5,-623.56"/>
<polygon fill="black" stroke="black" points="957,-623.74 953.5,-613.74 950,-623.74 957,-623.74"/>
<text text-anchor="start" x="958" y="-638.2" font-family="Courier New" font-weight="bold" font-size="12.00" fill="blue">SIGNAL(WIP3,SIG_SHOW)</text>
</g>
<!-- 52 -->
<g id="node11" class="node">
<title>52</title>
<ellipse fill="none" stroke="black" cx="1136.5" cy="-18" rx="27" ry="18"/>
<text text-anchor="middle" x="1136.5" y="-13.8" font-family="Times,serif" font-size="14.00">52</text>
</g>
<!-- 51&#45;&gt;52 -->
<g id="edge15" class="edge">
<title>51&#45;&gt;52</title>
<path fill="none" stroke="black" d="M936.11,-101.67C975.59,-85.38 1057.28,-51.68 1103.24,-32.72"/>
<polygon fill="black" stroke="black" points="1104.52,-35.98 1112.43,-28.93 1101.85,-29.51 1104.52,-35.98"/>
<text text-anchor="start" x="1057" y="-62.2" font-family="Courier New" font-weight="bold" font-size="12.00" fill="blue">SIGNAL(WIP2,SIG_HIDE)</text>
</g>
<!-- 52&#45;&gt;0 -->
<g id="edge16" class="edge">
<title>52&#45;&gt;0</title>
<path fill="none" stroke="black" d="M1163.15,-22.51C1207.46,-30.01 1291.5,-52.01 1291.5,-111 1291.5,-971 1291.5,-971 1291.5,-971 1291.5,-1028.45 1213.99,-1050.39 1165.55,-1058.49"/>
<polygon fill="black" stroke="black" points="1165.07,-1055.03 1155.71,-1060 1166.12,-1061.95 1165.07,-1055.03"/>
<text text-anchor="start" x="1296" y="-544.2" font-family="Courier New" font-weight="bold" font-size="12.00" fill="blue">SIGNAL(WIP3,SIG_HIDE)</text>
</g>
<!-- 7&#45;&gt;0 -->
<g id="edge18" class="edge">
<title>7&#45;&gt;0</title>
<path fill="none" stroke="black" d="M980.23,-597.45C1020.71,-601.7 1094.82,-611.79 1113.5,-630 1132.18,-648.21 1127.5,-660.91 1127.5,-687 1127.5,-971 1127.5,-971 1127.5,-971 1127.5,-992.25 1127.5,-1016.27 1127.5,-1034.44"/>
<polygon fill="black" stroke="black" points="1124,-1034.19 1127.5,-1044.19 1131,-1034.19 1124,-1034.19"/>
<text text-anchor="start" x="1132" y="-826.2" font-family="Courier New" font-weight="bold" font-size="12.00" fill="orange">CLICK(,)</text>
</g>
<!-- 7&#45;&gt;10 -->
<g id="edge19" class="edge">
<title>7&#45;&gt;10</title>
<path fill="none" stroke="black" d="M930.34,-584.51C885.9,-568.22 788.51,-532.52 736.62,-513.51"/>
<polygon fill="black" stroke="black" points="737.99,-510.28 727.39,-510.12 735.58,-516.85 737.99,-510.28"/>
<text text-anchor="start" x="862.5" y="-544.2" font-family="Courier New" font-weight="bold" font-size="12.00" fill="orange">WAIT(0,0)</text>
</g>
</g>
</svg>
