<?xml version="1.0" encoding="UTF-8" standalone="no"?>
<!DOCTYPE svg PUBLIC "-//W3C//DTD SVG 1.1//EN"
 "http://www.w3.org/Graphics/SVG/1.1/DTD/svg11.dtd">
<!-- Generated by graphviz version 7.1.0 (20230121.1956)
 -->
<!-- Pages: 1 -->
<svg width="613pt" height="232pt"
 viewBox="0.00 0.00 613.10 232.00" xmlns="http://www.w3.org/2000/svg" xmlns:xlink="http://www.w3.org/1999/xlink">
<g id="graph0" class="graph" transform="scale(1 1) rotate(0) translate(4 228)">
<polygon fill="white" stroke="none" points="-4,4 -4,-228 609.1,-228 609.1,4 -4,4"/>
<!-- 0 -->
<g id="node1" class="node">
<title>0</title>
<ellipse fill="none" stroke="black" cx="305.1" cy="-206" rx="27" ry="18"/>
<text text-anchor="middle" x="305.1" y="-201.8" font-family="Times,serif" font-size="14.00">0</text>
</g>
<!-- 10 -->
<g id="node2" class="node">
<title>10</title>
<ellipse fill="none" stroke="black" cx="113.1" cy="-112" rx="27" ry="18"/>
<text text-anchor="middle" x="113.1" y="-107.8" font-family="Times,serif" font-size="14.00">10</text>
</g>
<!-- 0&#45;&gt;10 -->
<g id="edge1" class="edge">
<title>0&#45;&gt;10</title>
<path fill="none" stroke="black" d="M277.89,-203.84C207.58,-200.57 24.03,-190.16 6.1,-170 -17.4,-143.59 35.97,-127.31 75.47,-119.22"/>
<polygon fill="black" stroke="black" points="76.03,-122.68 85.19,-117.35 74.71,-115.8 76.03,-122.68"/>
<text text-anchor="start" x="10.6" y="-156.2" font-family="Courier New" font-weight="bold" font-size="12.00" fill="orange">DRAG(0IDD_EYEWAND)</text>
</g>
<!-- 20 -->
<g id="node3" class="node">
<title>20</title>
<ellipse fill="none" stroke="black" cx="305.1" cy="-112" rx="27" ry="18"/>
<text text-anchor="middle" x="305.1" y="-107.8" font-family="Times,serif" font-size="14.00">20</text>
</g>
<!-- 0&#45;&gt;20 -->
<g id="edge2" class="edge">
<title>0&#45;&gt;20</title>
<path fill="none" stroke="black" d="M278.18,-202.75C238.79,-198.84 168.44,-189.28 153.1,-170 121.13,-129.84 211.59,-117.97 266.45,-114.47"/>
<polygon fill="black" stroke="black" points="266.59,-117.96 276.38,-113.91 266.2,-110.98 266.59,-117.96"/>
<text text-anchor="start" x="157.1" y="-156.2" font-family="Courier New" font-weight="bold" font-size="12.00" fill="orange">DRAGFOCUS(0FALSE)</text>
</g>
<!-- 0&#45;&gt;20 -->
<g id="edge3" class="edge">
<title>0&#45;&gt;20</title>
<path fill="none" stroke="black" d="M305.1,-187.7C305.1,-174.72 305.1,-156.66 305.1,-141.56"/>
<polygon fill="black" stroke="black" points="308.6,-141.74 305.1,-131.74 301.6,-141.74 308.6,-141.74"/>
<text text-anchor="start" x="309.1" y="-156.2" font-family="Courier New" font-weight="bold" font-size="12.00" fill="orange">WAIT(0SIG_INIT)</text>
</g>
<!-- 11 -->
<g id="node4" class="node">
<title>11</title>
<ellipse fill="none" stroke="black" cx="379.1" cy="-18" rx="27" ry="18"/>
<text text-anchor="middle" x="379.1" y="-13.8" font-family="Times,serif" font-size="14.00">11</text>
</g>
<!-- 10&#45;&gt;11 -->
<g id="edge4" class="edge">
<title>10&#45;&gt;11</title>
<path fill="none" stroke="black" d="M136.7,-102.84C183.93,-86.5 290.19,-49.75 344.99,-30.8"/>
<polygon fill="black" stroke="black" points="345.81,-34.22 354.11,-27.64 343.52,-27.6 345.81,-34.22"/>
<text text-anchor="start" x="281.6" y="-62.2" font-family="Courier New" font-weight="bold" font-size="12.00" fill="blue">MOV(WSPRITEWIP1)</text>
</g>
<!-- 20&#45;&gt;0 -->
<g id="edge6" class="edge">
<title>20&#45;&gt;0</title>
<path fill="none" stroke="black" d="M331.85,-115.85C373.67,-121.4 447.26,-136.2 422.1,-170 404.23,-194 370.51,-202.17 343.84,-204.68"/>
<polygon fill="black" stroke="black" points="343.79,-201.17 334.05,-205.35 344.26,-208.16 343.79,-201.17"/>
<text text-anchor="start" x="431.6" y="-156.2" font-family="Courier New" font-weight="bold" font-size="12.00" fill="blue">SHOW(00)</text>
</g>
<!-- 11&#45;&gt;0 -->
<g id="edge5" class="edge">
<title>11&#45;&gt;0</title>
<path fill="none" stroke="black" d="M399.54,-30.2C443.26,-55.55 538.56,-119.05 496.1,-170 477.06,-192.84 393.61,-200.82 343.52,-203.58"/>
<polygon fill="black" stroke="black" points="343.5,-200.07 333.68,-204.07 343.85,-207.06 343.5,-200.07"/>
<text text-anchor="start" x="508.6" y="-109.2" font-family="Courier New" font-weight="bold" font-size="12.00" fill="blue">SHOW(WSPRITE)</text>
</g>
</g>
</svg>
