<?xml version="1.0" encoding="UTF-8" standalone="no"?>
<!DOCTYPE svg PUBLIC "-//W3C//DTD SVG 1.1//EN"
 "http://www.w3.org/Graphics/SVG/1.1/DTD/svg11.dtd">
<!-- Generated by graphviz version 7.1.0 (20230121.1956)
 -->
<!-- Title: Automaton Pages: 1 -->
<svg width="424pt" height="1257pt"
 viewBox="0.00 0.00 424.00 1257.00" xmlns="http://www.w3.org/2000/svg" xmlns:xlink="http://www.w3.org/1999/xlink">
<g id="graph0" class="graph" transform="scale(1 1) rotate(0) translate(4 1253)">
<title>Automaton</title>
<polygon fill="white" stroke="none" points="-4,4 -4,-1253 420,-1253 420,4 -4,4"/>
<!-- filename -->
<g id="node1" class="node">
<title>filename</title>
<polygon fill="none" stroke="black" points="0,-1196.5 0,-1248.5 118,-1248.5 118,-1196.5 0,-1196.5"/>
<polygon fill="none" stroke="black" points="11,-1223.5 11,-1241.5 107,-1241.5 107,-1223.5 11,-1223.5"/>
<text text-anchor="start" x="22.99" y="-1230.5" font-family="Courier New" font-weight="bold" font-size="10.00">M24_EYEPLATE</text>
<polygon fill="none" stroke="black" points="11,-1203.5 11,-1221.5 107,-1221.5 107,-1203.5 11,-1203.5"/>
<text text-anchor="start" x="14" y="-1209.5" font-family="Courier New" font-size="10.00" fill="brown">start state = 0</text>
<polygon fill="none" stroke="black" points="8,-1200.5 8,-1244.5 110,-1244.5 110,-1200.5 8,-1200.5"/>
</g>
<!-- 0 -->
<g id="node2" class="node">
<title>0</title>
<polyline fill="none" stroke="darkred" points="156,-1211.5 170,-1211.5"/>
<text text-anchor="start" x="159" y="-1218.9" font-family="Courier New" font-weight="bold" font-size="14.00">0</text>
<path fill="none" stroke="darkred" d="M159.67,-1208.5C159.67,-1208.5 166.33,-1208.5 166.33,-1208.5 169.67,-1208.5 173,-1211.83 173,-1215.17 173,-1215.17 173,-1229.83 173,-1229.83 173,-1233.17 169.67,-1236.5 166.33,-1236.5 166.33,-1236.5 159.67,-1236.5 159.67,-1236.5 156.33,-1236.5 153,-1233.17 153,-1229.83 153,-1229.83 153,-1215.17 153,-1215.17 153,-1211.83 156.33,-1208.5 159.67,-1208.5"/>
</g>
<!-- 1 -->
<g id="node3" class="node">
<title>1</title>
<polyline fill="none" stroke="darkred" points="77,-1111 91,-1111"/>
<text text-anchor="start" x="80" y="-1118.4" font-family="Courier New" font-weight="bold" font-size="14.00">1</text>
<path fill="none" stroke="darkred" d="M80.67,-1108C80.67,-1108 87.33,-1108 87.33,-1108 90.67,-1108 94,-1111.33 94,-1114.67 94,-1114.67 94,-1129.33 94,-1129.33 94,-1132.67 90.67,-1136 87.33,-1136 87.33,-1136 80.67,-1136 80.67,-1136 77.33,-1136 74,-1132.67 74,-1129.33 74,-1129.33 74,-1114.67 74,-1114.67 74,-1111.33 77.33,-1108 80.67,-1108"/>
</g>
<!-- 0&#45;&gt;1 -->
<g id="edge1" class="edge">
<title>0&#45;&gt;1</title>
<path fill="none" stroke="black" d="M139.46,-1204.62C123.61,-1193.18 105.36,-1179.82 104,-1178 97.94,-1169.9 93.57,-1159.79 90.49,-1150.45"/>
<polygon fill="black" stroke="black" points="93.92,-1149.71 87.77,-1141.08 87.2,-1151.66 93.92,-1149.71"/>
<text text-anchor="start" x="108" y="-1166" font-family="Courier New" font-weight="bold" font-size="10.00" fill="orange">DROP(0,IDD_EYEFUSE)</text>
</g>
<!-- 2 -->
<g id="node4" class="node">
<title>2</title>
<polyline fill="none" stroke="darkred" points="64,-1019 78,-1019"/>
<text text-anchor="start" x="67" y="-1026.4" font-family="Courier New" font-weight="bold" font-size="14.00">2</text>
<path fill="none" stroke="darkred" d="M67.67,-1016C67.67,-1016 74.33,-1016 74.33,-1016 77.67,-1016 81,-1019.33 81,-1022.67 81,-1022.67 81,-1037.33 81,-1037.33 81,-1040.67 77.67,-1044 74.33,-1044 74.33,-1044 67.67,-1044 67.67,-1044 64.33,-1044 61,-1040.67 61,-1037.33 61,-1037.33 61,-1022.67 61,-1022.67 61,-1019.33 64.33,-1016 67.67,-1016"/>
</g>
<!-- 1&#45;&gt;2 -->
<g id="edge2" class="edge">
<title>1&#45;&gt;2</title>
<path fill="none" stroke="black" d="M81.55,-1104.07C79.72,-1091.38 77.17,-1073.71 75.04,-1058.94"/>
<polygon fill="black" stroke="black" points="78.54,-1058.75 73.65,-1049.35 71.62,-1059.75 78.54,-1058.75"/>
<text text-anchor="start" x="83" y="-1074" font-family="Courier New" font-weight="bold" font-size="10.00" fill="blue">SIGNALi(0,S24_BIGEYE)</text>
</g>
<!-- 3 -->
<g id="node5" class="node">
<title>3</title>
<polyline fill="none" stroke="darkred" points="61,-927 75,-927"/>
<text text-anchor="start" x="64" y="-934.4" font-family="Courier New" font-weight="bold" font-size="14.00">3</text>
<path fill="none" stroke="darkred" d="M64.67,-924C64.67,-924 71.33,-924 71.33,-924 74.67,-924 78,-927.33 78,-930.67 78,-930.67 78,-945.33 78,-945.33 78,-948.67 74.67,-952 71.33,-952 71.33,-952 64.67,-952 64.67,-952 61.33,-952 58,-948.67 58,-945.33 58,-945.33 58,-930.67 58,-930.67 58,-927.33 61.33,-924 64.67,-924"/>
</g>
<!-- 2&#45;&gt;3 -->
<g id="edge3" class="edge">
<title>2&#45;&gt;3</title>
<path fill="none" stroke="black" d="M70.44,-1012.07C70.01,-999.38 69.42,-981.71 68.93,-966.94"/>
<polygon fill="black" stroke="black" points="72.44,-967.24 68.61,-957.37 65.45,-967.48 72.44,-967.24"/>
<text text-anchor="start" x="74" y="-982" font-family="Courier New" font-weight="bold" font-size="10.00" fill="blue">C_ACCEPT(0,IDC_BOMB)</text>
</g>
<!-- 4 -->
<g id="node6" class="node">
<title>4</title>
<polyline fill="none" stroke="darkred" points="60,-835 74,-835"/>
<text text-anchor="start" x="63" y="-842.4" font-family="Courier New" font-weight="bold" font-size="14.00">4</text>
<path fill="none" stroke="darkred" d="M63.67,-832C63.67,-832 70.33,-832 70.33,-832 73.67,-832 77,-835.33 77,-838.67 77,-838.67 77,-853.33 77,-853.33 77,-856.67 73.67,-860 70.33,-860 70.33,-860 63.67,-860 63.67,-860 60.33,-860 57,-856.67 57,-853.33 57,-853.33 57,-838.67 57,-838.67 57,-835.33 60.33,-832 63.67,-832"/>
</g>
<!-- 3&#45;&gt;4 -->
<g id="edge4" class="edge">
<title>3&#45;&gt;4</title>
<path fill="none" stroke="black" d="M67.81,-920.07C67.67,-907.38 67.47,-889.71 67.31,-874.94"/>
<polygon fill="black" stroke="black" points="70.82,-875.33 67.2,-865.37 63.82,-875.4 70.82,-875.33"/>
<text text-anchor="start" x="72" y="-890" font-family="Courier New" font-weight="bold" font-size="10.00" fill="blue">ASHOW(0,IDS_EYEPLATE)</text>
</g>
<!-- 5 -->
<g id="node7" class="node">
<title>5</title>
<polyline fill="none" stroke="darkred" points="60,-743 74,-743"/>
<text text-anchor="start" x="63" y="-750.4" font-family="Courier New" font-weight="bold" font-size="14.00">5</text>
<path fill="none" stroke="darkred" d="M63.67,-740C63.67,-740 70.33,-740 70.33,-740 73.67,-740 77,-743.33 77,-746.67 77,-746.67 77,-761.33 77,-761.33 77,-764.67 73.67,-768 70.33,-768 70.33,-768 63.67,-768 63.67,-768 60.33,-768 57,-764.67 57,-761.33 57,-761.33 57,-746.67 57,-746.67 57,-743.33 60.33,-740 63.67,-740"/>
</g>
<!-- 4&#45;&gt;5 -->
<g id="edge5" class="edge">
<title>4&#45;&gt;5</title>
<path fill="none" stroke="black" d="M67,-828.07C67,-815.38 67,-797.71 67,-782.94"/>
<polygon fill="black" stroke="black" points="70.5,-783.37 67,-773.37 63.5,-783.37 70.5,-783.37"/>
<text text-anchor="start" x="71" y="-798" font-family="Courier New" font-weight="bold" font-size="10.00" fill="blue">SIGNAL(WIP1,SIG_SHOW)</text>
</g>
<!-- 6 -->
<g id="node8" class="node">
<title>6</title>
<polyline fill="none" stroke="darkred" points="60,-651 74,-651"/>
<text text-anchor="start" x="63" y="-658.4" font-family="Courier New" font-weight="bold" font-size="14.00">6</text>
<path fill="none" stroke="darkred" d="M63.67,-648C63.67,-648 70.33,-648 70.33,-648 73.67,-648 77,-651.33 77,-654.67 77,-654.67 77,-669.33 77,-669.33 77,-672.67 73.67,-676 70.33,-676 70.33,-676 63.67,-676 63.67,-676 60.33,-676 57,-672.67 57,-669.33 57,-669.33 57,-654.67 57,-654.67 57,-651.33 60.33,-648 63.67,-648"/>
</g>
<!-- 5&#45;&gt;6 -->
<g id="edge6" class="edge">
<title>5&#45;&gt;6</title>
<path fill="none" stroke="black" d="M67,-736.07C67,-723.38 67,-705.71 67,-690.94"/>
<polygon fill="black" stroke="black" points="70.5,-691.37 67,-681.37 63.5,-691.37 70.5,-691.37"/>
<text text-anchor="start" x="71" y="-706" font-family="Courier New" font-weight="bold" font-size="10.00" fill="blue">SIGNAL(WIP2,SIG_SHOW)</text>
</g>
<!-- 50 -->
<g id="node9" class="node">
<title>50</title>
<polyline fill="none" stroke="darkred" points="56,-559 78,-559"/>
<text text-anchor="start" x="59" y="-566.4" font-family="Courier New" font-weight="bold" font-size="14.00">50</text>
<path fill="none" stroke="darkred" d="M62.33,-556C62.33,-556 71.67,-556 71.67,-556 76.33,-556 81,-560.67 81,-565.33 81,-565.33 81,-574.67 81,-574.67 81,-579.33 76.33,-584 71.67,-584 71.67,-584 62.33,-584 62.33,-584 57.67,-584 53,-579.33 53,-574.67 53,-574.67 53,-565.33 53,-565.33 53,-560.67 57.67,-556 62.33,-556"/>
</g>
<!-- 6&#45;&gt;50 -->
<g id="edge14" class="edge">
<title>6&#45;&gt;50</title>
<path fill="none" stroke="black" d="M67,-644.07C67,-631.38 67,-613.71 67,-598.94"/>
<polygon fill="black" stroke="black" points="70.5,-599.37 67,-589.37 63.5,-599.37 70.5,-599.37"/>
<text text-anchor="start" x="71" y="-614" font-family="Courier New" font-weight="bold" font-size="10.00" fill="orange">DROP(0,0)</text>
</g>
<!-- 51 -->
<g id="node10" class="node">
<title>51</title>
<polyline fill="none" stroke="darkred" points="56,-467 78,-467"/>
<text text-anchor="start" x="59" y="-474.4" font-family="Courier New" font-weight="bold" font-size="14.00">51</text>
<path fill="none" stroke="darkred" d="M62.33,-464C62.33,-464 71.67,-464 71.67,-464 76.33,-464 81,-468.67 81,-473.33 81,-473.33 81,-482.67 81,-482.67 81,-487.33 76.33,-492 71.67,-492 71.67,-492 62.33,-492 62.33,-492 57.67,-492 53,-487.33 53,-482.67 53,-482.67 53,-473.33 53,-473.33 53,-468.67 57.67,-464 62.33,-464"/>
</g>
<!-- 50&#45;&gt;51 -->
<g id="edge7" class="edge">
<title>50&#45;&gt;51</title>
<path fill="none" stroke="black" d="M67,-552.07C67,-539.38 67,-521.71 67,-506.94"/>
<polygon fill="black" stroke="black" points="70.5,-507.37 67,-497.37 63.5,-507.37 70.5,-507.37"/>
<text text-anchor="start" x="71" y="-522" font-family="Courier New" font-weight="bold" font-size="10.00" fill="blue">VIDEO(0,IDS_EXPLODE1)</text>
</g>
<!-- 52 -->
<g id="node11" class="node">
<title>52</title>
<polyline fill="none" stroke="darkred" points="57,-375 79,-375"/>
<text text-anchor="start" x="60" y="-382.4" font-family="Courier New" font-weight="bold" font-size="14.00">52</text>
<path fill="none" stroke="darkred" d="M63.33,-372C63.33,-372 72.67,-372 72.67,-372 77.33,-372 82,-376.67 82,-381.33 82,-381.33 82,-390.67 82,-390.67 82,-395.33 77.33,-400 72.67,-400 72.67,-400 63.33,-400 63.33,-400 58.67,-400 54,-395.33 54,-390.67 54,-390.67 54,-381.33 54,-381.33 54,-376.67 58.67,-372 63.33,-372"/>
</g>
<!-- 51&#45;&gt;52 -->
<g id="edge8" class="edge">
<title>51&#45;&gt;52</title>
<path fill="none" stroke="black" d="M67.19,-460.07C67.33,-447.38 67.53,-429.71 67.69,-414.94"/>
<polygon fill="black" stroke="black" points="71.18,-415.4 67.8,-405.37 64.18,-415.33 71.18,-415.4"/>
<text text-anchor="start" x="72" y="-430" font-family="Courier New" font-weight="bold" font-size="10.00" fill="blue">PLAYWAVE(0,SOUND_EXPLODE)</text>
</g>
<!-- 53 -->
<g id="node12" class="node">
<title>53</title>
<polyline fill="none" stroke="darkred" points="66,-283 88,-283"/>
<text text-anchor="start" x="69" y="-290.4" font-family="Courier New" font-weight="bold" font-size="14.00">53</text>
<path fill="none" stroke="darkred" d="M72.33,-280C72.33,-280 81.67,-280 81.67,-280 86.33,-280 91,-284.67 91,-289.33 91,-289.33 91,-298.67 91,-298.67 91,-303.33 86.33,-308 81.67,-308 81.67,-308 72.33,-308 72.33,-308 67.67,-308 63,-303.33 63,-298.67 63,-298.67 63,-289.33 63,-289.33 63,-284.67 67.67,-280 72.33,-280"/>
</g>
<!-- 52&#45;&gt;53 -->
<g id="edge9" class="edge">
<title>52&#45;&gt;53</title>
<path fill="none" stroke="black" d="M69.69,-368.07C70.96,-355.38 72.73,-337.71 74.21,-322.94"/>
<polygon fill="black" stroke="black" points="77.65,-323.66 75.16,-313.36 70.69,-322.96 77.65,-323.66"/>
<text text-anchor="start" x="78" y="-338" font-family="Courier New" font-weight="bold" font-size="10.00" fill="blue">SHOW(0,0)</text>
</g>
<!-- 54 -->
<g id="node13" class="node">
<title>54</title>
<polyline fill="none" stroke="darkred" points="68,-191 90,-191"/>
<text text-anchor="start" x="71" y="-198.4" font-family="Courier New" font-weight="bold" font-size="14.00">54</text>
<path fill="none" stroke="darkred" d="M74.33,-188C74.33,-188 83.67,-188 83.67,-188 88.33,-188 93,-192.67 93,-197.33 93,-197.33 93,-206.67 93,-206.67 93,-211.33 88.33,-216 83.67,-216 83.67,-216 74.33,-216 74.33,-216 69.67,-216 65,-211.33 65,-206.67 65,-206.67 65,-197.33 65,-197.33 65,-192.67 69.67,-188 74.33,-188"/>
</g>
<!-- 53&#45;&gt;54 -->
<g id="edge10" class="edge">
<title>53&#45;&gt;54</title>
<path fill="none" stroke="black" d="M77.38,-276.07C77.66,-263.38 78.05,-245.71 78.38,-230.94"/>
<polygon fill="black" stroke="black" points="81.87,-231.44 78.59,-221.37 74.87,-231.29 81.87,-231.44"/>
<text text-anchor="start" x="83" y="-246" font-family="Courier New" font-weight="bold" font-size="10.00" fill="blue">SIGNAL(WIP1,SIG_HIDE)</text>
</g>
<!-- 55 -->
<g id="node14" class="node">
<title>55</title>
<polyline fill="none" stroke="darkred" points="68,-99 90,-99"/>
<text text-anchor="start" x="71" y="-106.4" font-family="Courier New" font-weight="bold" font-size="14.00">55</text>
<path fill="none" stroke="darkred" d="M74.33,-96C74.33,-96 83.67,-96 83.67,-96 88.33,-96 93,-100.67 93,-105.33 93,-105.33 93,-114.67 93,-114.67 93,-119.33 88.33,-124 83.67,-124 83.67,-124 74.33,-124 74.33,-124 69.67,-124 65,-119.33 65,-114.67 65,-114.67 65,-105.33 65,-105.33 65,-100.67 69.67,-96 74.33,-96"/>
</g>
<!-- 54&#45;&gt;55 -->
<g id="edge11" class="edge">
<title>54&#45;&gt;55</title>
<path fill="none" stroke="black" d="M79,-184.07C79,-171.38 79,-153.71 79,-138.94"/>
<polygon fill="black" stroke="black" points="82.5,-139.37 79,-129.37 75.5,-139.37 82.5,-139.37"/>
<text text-anchor="start" x="83" y="-154" font-family="Courier New" font-weight="bold" font-size="10.00" fill="blue">SIGNAL(WIP2,SIG_HIDE)</text>
</g>
<!-- 56 -->
<g id="node15" class="node">
<title>56</title>
<polyline fill="none" stroke="darkred" points="148,-7 170,-7"/>
<text text-anchor="start" x="151" y="-14.4" font-family="Courier New" font-weight="bold" font-size="14.00">56</text>
<path fill="none" stroke="darkred" d="M154.33,-4C154.33,-4 163.67,-4 163.67,-4 168.33,-4 173,-8.67 173,-13.33 173,-13.33 173,-22.67 173,-22.67 173,-27.33 168.33,-32 163.67,-32 163.67,-32 154.33,-32 154.33,-32 149.67,-32 145,-27.33 145,-22.67 145,-22.67 145,-13.33 145,-13.33 145,-8.67 149.67,-4 154.33,-4"/>
</g>
<!-- 55&#45;&gt;56 -->
<g id="edge12" class="edge">
<title>55&#45;&gt;56</title>
<path fill="none" stroke="black" d="M74.88,-92.22C73,-80.54 72.61,-65.14 80,-54 89.35,-39.92 105.76,-31.45 121.22,-26.39"/>
<polygon fill="black" stroke="black" points="122.08,-29.78 130.74,-23.68 120.16,-23.05 122.08,-29.78"/>
<text text-anchor="start" x="84" y="-62" font-family="Courier New" font-weight="bold" font-size="10.00" fill="blue">O_ACCEPT(0,IDD_EYEFUSE)</text>
</g>
<!-- 56&#45;&gt;0 -->
<g id="edge13" class="edge">
<title>56&#45;&gt;0</title>
<path fill="none" stroke="black" d="M185.68,-27.01C199.61,-32.49 215.82,-41.14 226,-54 241.65,-73.78 240,-83.78 240,-109 240,-1123 240,-1123 240,-1123 240,-1148.22 240.41,-1157.29 226,-1178 219.17,-1187.82 209.35,-1196.11 199.5,-1202.74"/>
<polygon fill="black" stroke="black" points="197.67,-1199.75 191.02,-1208 201.36,-1205.7 197.67,-1199.75"/>
<text text-anchor="start" x="244" y="-614" font-family="Courier New" font-weight="bold" font-size="10.00" fill="blue">SIGNALi(SIG_BOMB,S24_BIGEYE)</text>
</g>
</g>
</svg>
