<?xml version="1.0" encoding="UTF-8" standalone="no"?>
<!DOCTYPE svg PUBLIC "-//W3C//DTD SVG 1.1//EN"
 "http://www.w3.org/Graphics/SVG/1.1/DTD/svg11.dtd">
<!-- Generated by graphviz version 7.1.0 (20230121.1956)
 -->
<!-- Pages: 1 -->
<svg width="447pt" height="1266pt"
 viewBox="0.00 0.00 447.00 1266.00" xmlns="http://www.w3.org/2000/svg" xmlns:xlink="http://www.w3.org/1999/xlink">
<g id="graph0" class="graph" transform="scale(1 1) rotate(0) translate(4 1262)">
<polygon fill="white" stroke="none" points="-4,4 -4,-1262 443,-1262 443,4 -4,4"/>
<!-- 0 -->
<g id="node1" class="node">
<title>0</title>
<ellipse fill="none" stroke="black" cx="128" cy="-1240" rx="27" ry="18"/>
<text text-anchor="middle" x="128" y="-1235.8" font-family="Times,serif" font-size="14.00">0</text>
</g>
<!-- 1 -->
<g id="node2" class="node">
<title>1</title>
<ellipse fill="none" stroke="black" cx="44" cy="-1146" rx="27" ry="18"/>
<text text-anchor="middle" x="44" y="-1141.8" font-family="Times,serif" font-size="14.00">1</text>
</g>
<!-- 0&#45;&gt;1 -->
<g id="edge1" class="edge">
<title>0&#45;&gt;1</title>
<path fill="none" stroke="black" d="M104.18,-1230.9C90.74,-1225.24 74.57,-1216.45 64,-1204 57.12,-1195.9 52.55,-1185.28 49.55,-1175.4"/>
<polygon fill="black" stroke="black" points="52.96,-1174.62 47.07,-1165.81 46.18,-1176.37 52.96,-1174.62"/>
<text text-anchor="start" x="68" y="-1190.2" font-family="Courier New" font-weight="bold" font-size="12.00" fill="orange">DROP(0,IDD_EYESPELL)</text>
</g>
<!-- 2 -->
<g id="node3" class="node">
<title>2</title>
<ellipse fill="none" stroke="black" cx="31" cy="-1052" rx="27" ry="18"/>
<text text-anchor="middle" x="31" y="-1047.8" font-family="Times,serif" font-size="14.00">2</text>
</g>
<!-- 1&#45;&gt;2 -->
<g id="edge2" class="edge">
<title>1&#45;&gt;2</title>
<path fill="none" stroke="black" d="M41.55,-1127.7C39.72,-1114.72 37.17,-1096.66 35.04,-1081.56"/>
<polygon fill="black" stroke="black" points="38.51,-1081.14 33.65,-1071.73 31.58,-1082.12 38.51,-1081.14"/>
<text text-anchor="start" x="44.5" y="-1096.2" font-family="Courier New" font-weight="bold" font-size="12.00" fill="blue">SIGNALi(0,S24_BIGEYE)</text>
</g>
<!-- 3 -->
<g id="node4" class="node">
<title>3</title>
<ellipse fill="none" stroke="black" cx="28" cy="-958" rx="27" ry="18"/>
<text text-anchor="middle" x="28" y="-953.8" font-family="Times,serif" font-size="14.00">3</text>
</g>
<!-- 2&#45;&gt;3 -->
<g id="edge3" class="edge">
<title>2&#45;&gt;3</title>
<path fill="none" stroke="black" d="M30.44,-1033.7C30.01,-1020.72 29.42,-1002.66 28.93,-987.56"/>
<polygon fill="black" stroke="black" points="32.44,-987.62 28.61,-977.74 25.44,-987.85 32.44,-987.62"/>
<text text-anchor="start" x="34" y="-1002.2" font-family="Courier New" font-weight="bold" font-size="12.00" fill="blue">C_ACCEPT(0,IDC_BOMB)</text>
</g>
<!-- 4 -->
<g id="node5" class="node">
<title>4</title>
<ellipse fill="none" stroke="black" cx="27" cy="-864" rx="27" ry="18"/>
<text text-anchor="middle" x="27" y="-859.8" font-family="Times,serif" font-size="14.00">4</text>
</g>
<!-- 3&#45;&gt;4 -->
<g id="edge4" class="edge">
<title>3&#45;&gt;4</title>
<path fill="none" stroke="black" d="M27.81,-939.7C27.67,-926.72 27.47,-908.66 27.31,-893.56"/>
<polygon fill="black" stroke="black" points="30.81,-893.7 27.2,-883.74 23.81,-893.78 30.81,-893.7"/>
<text text-anchor="start" x="32.5" y="-908.2" font-family="Courier New" font-weight="bold" font-size="12.00" fill="blue">ASHOW(0,IDS_EYESPELL)</text>
</g>
<!-- 5 -->
<g id="node6" class="node">
<title>5</title>
<ellipse fill="none" stroke="black" cx="27" cy="-770" rx="27" ry="18"/>
<text text-anchor="middle" x="27" y="-765.8" font-family="Times,serif" font-size="14.00">5</text>
</g>
<!-- 4&#45;&gt;5 -->
<g id="edge5" class="edge">
<title>4&#45;&gt;5</title>
<path fill="none" stroke="black" d="M27,-845.7C27,-832.72 27,-814.66 27,-799.56"/>
<polygon fill="black" stroke="black" points="30.5,-799.74 27,-789.74 23.5,-799.74 30.5,-799.74"/>
<text text-anchor="start" x="31.5" y="-814.2" font-family="Courier New" font-weight="bold" font-size="12.00" fill="blue">SIGNAL(WIP1,SIG_SHOW)</text>
</g>
<!-- 6 -->
<g id="node7" class="node">
<title>6</title>
<ellipse fill="none" stroke="black" cx="27" cy="-676" rx="27" ry="18"/>
<text text-anchor="middle" x="27" y="-671.8" font-family="Times,serif" font-size="14.00">6</text>
</g>
<!-- 5&#45;&gt;6 -->
<g id="edge6" class="edge">
<title>5&#45;&gt;6</title>
<path fill="none" stroke="black" d="M27,-751.7C27,-738.72 27,-720.66 27,-705.56"/>
<polygon fill="black" stroke="black" points="30.5,-705.74 27,-695.74 23.5,-705.74 30.5,-705.74"/>
<text text-anchor="start" x="31.5" y="-720.2" font-family="Courier New" font-weight="bold" font-size="12.00" fill="blue">SIGNAL(WIP2,SIG_SHOW)</text>
</g>
<!-- 50 -->
<g id="node8" class="node">
<title>50</title>
<ellipse fill="none" stroke="black" cx="27" cy="-582" rx="27" ry="18"/>
<text text-anchor="middle" x="27" y="-577.8" font-family="Times,serif" font-size="14.00">50</text>
</g>
<!-- 6&#45;&gt;50 -->
<g id="edge14" class="edge">
<title>6&#45;&gt;50</title>
<path fill="none" stroke="black" d="M27,-657.7C27,-644.72 27,-626.66 27,-611.56"/>
<polygon fill="black" stroke="black" points="30.5,-611.74 27,-601.74 23.5,-611.74 30.5,-611.74"/>
<text text-anchor="start" x="31" y="-626.2" font-family="Courier New" font-weight="bold" font-size="12.00" fill="orange">DROP(0,0)</text>
</g>
<!-- 51 -->
<g id="node9" class="node">
<title>51</title>
<ellipse fill="none" stroke="black" cx="27" cy="-488" rx="27" ry="18"/>
<text text-anchor="middle" x="27" y="-483.8" font-family="Times,serif" font-size="14.00">51</text>
</g>
<!-- 50&#45;&gt;51 -->
<g id="edge7" class="edge">
<title>50&#45;&gt;51</title>
<path fill="none" stroke="black" d="M27,-563.7C27,-550.72 27,-532.66 27,-517.56"/>
<polygon fill="black" stroke="black" points="30.5,-517.74 27,-507.74 23.5,-517.74 30.5,-517.74"/>
<text text-anchor="start" x="31.5" y="-532.2" font-family="Courier New" font-weight="bold" font-size="12.00" fill="blue">VIDEO(0,IDS_EXPLODE1)</text>
</g>
<!-- 52 -->
<g id="node10" class="node">
<title>52</title>
<ellipse fill="none" stroke="black" cx="28" cy="-394" rx="27" ry="18"/>
<text text-anchor="middle" x="28" y="-389.8" font-family="Times,serif" font-size="14.00">52</text>
</g>
<!-- 51&#45;&gt;52 -->
<g id="edge8" class="edge">
<title>51&#45;&gt;52</title>
<path fill="none" stroke="black" d="M27.19,-469.7C27.33,-456.72 27.53,-438.66 27.69,-423.56"/>
<polygon fill="black" stroke="black" points="31.19,-423.78 27.8,-413.74 24.19,-423.7 31.19,-423.78"/>
<text text-anchor="start" x="32" y="-438.2" font-family="Courier New" font-weight="bold" font-size="12.00" fill="blue">PLAYWAVE(0,SOUND_EXPLODE)</text>
</g>
<!-- 53 -->
<g id="node11" class="node">
<title>53</title>
<ellipse fill="none" stroke="black" cx="34" cy="-300" rx="27" ry="18"/>
<text text-anchor="middle" x="34" y="-295.8" font-family="Times,serif" font-size="14.00">53</text>
</g>
<!-- 52&#45;&gt;53 -->
<g id="edge9" class="edge">
<title>52&#45;&gt;53</title>
<path fill="none" stroke="black" d="M29.13,-375.7C29.97,-362.72 31.15,-344.66 32.14,-329.56"/>
<polygon fill="black" stroke="black" points="35.62,-329.94 32.78,-319.74 28.63,-329.49 35.62,-329.94"/>
<text text-anchor="start" x="36" y="-344.2" font-family="Courier New" font-weight="bold" font-size="12.00" fill="blue">SHOW(0,0)</text>
</g>
<!-- 54 -->
<g id="node12" class="node">
<title>54</title>
<ellipse fill="none" stroke="black" cx="35" cy="-206" rx="27" ry="18"/>
<text text-anchor="middle" x="35" y="-201.8" font-family="Times,serif" font-size="14.00">54</text>
</g>
<!-- 53&#45;&gt;54 -->
<g id="edge10" class="edge">
<title>53&#45;&gt;54</title>
<path fill="none" stroke="black" d="M34.19,-281.7C34.33,-268.72 34.53,-250.66 34.69,-235.56"/>
<polygon fill="black" stroke="black" points="38.19,-235.78 34.8,-225.74 31.19,-235.7 38.19,-235.78"/>
<text text-anchor="start" x="39.5" y="-250.2" font-family="Courier New" font-weight="bold" font-size="12.00" fill="blue">SIGNAL(WIP1,SIG_HIDE)</text>
</g>
<!-- 55 -->
<g id="node13" class="node">
<title>55</title>
<ellipse fill="none" stroke="black" cx="35" cy="-112" rx="27" ry="18"/>
<text text-anchor="middle" x="35" y="-107.8" font-family="Times,serif" font-size="14.00">55</text>
</g>
<!-- 54&#45;&gt;55 -->
<g id="edge11" class="edge">
<title>54&#45;&gt;55</title>
<path fill="none" stroke="black" d="M35,-187.7C35,-174.72 35,-156.66 35,-141.56"/>
<polygon fill="black" stroke="black" points="38.5,-141.74 35,-131.74 31.5,-141.74 38.5,-141.74"/>
<text text-anchor="start" x="39.5" y="-156.2" font-family="Courier New" font-weight="bold" font-size="12.00" fill="blue">SIGNAL(WIP2,SIG_HIDE)</text>
</g>
<!-- 56 -->
<g id="node14" class="node">
<title>56</title>
<ellipse fill="none" stroke="black" cx="132" cy="-18" rx="27" ry="18"/>
<text text-anchor="middle" x="132" y="-13.8" font-family="Times,serif" font-size="14.00">56</text>
</g>
<!-- 55&#45;&gt;56 -->
<g id="edge12" class="edge">
<title>55&#45;&gt;56</title>
<path fill="none" stroke="black" d="M30.56,-93.97C28.43,-81.73 27.84,-65.44 36,-54 49.21,-35.47 73.28,-26.73 94.01,-22.61"/>
<polygon fill="black" stroke="black" points="94.31,-26.11 103.6,-21.01 93.16,-19.2 94.31,-26.11"/>
<text text-anchor="start" x="40" y="-62.2" font-family="Courier New" font-weight="bold" font-size="12.00" fill="blue">O_ACCEPT(0,IDD_EYESPELL)</text>
</g>
<!-- 56&#45;&gt;0 -->
<g id="edge13" class="edge">
<title>56&#45;&gt;0</title>
<path fill="none" stroke="black" d="M158.06,-23.41C176.81,-27.93 201.3,-36.84 216,-54 232.97,-73.81 230,-84.91 230,-111 230,-1147 230,-1147 230,-1147 230,-1173.09 233.13,-1184.33 216,-1204 203.16,-1218.75 183.25,-1227.35 165.62,-1232.33"/>
<polygon fill="black" stroke="black" points="164.78,-1228.93 155.92,-1234.74 166.47,-1235.72 164.78,-1228.93"/>
<text text-anchor="start" x="234.5" y="-626.2" font-family="Courier New" font-weight="bold" font-size="12.00" fill="blue">SIGNALi(SIG_BOMB,S24_BIGEYE)</text>
</g>
</g>
</svg>
