<?xml version="1.0" encoding="UTF-8" standalone="no"?>
<!DOCTYPE svg PUBLIC "-//W3C//DTD SVG 1.1//EN"
 "http://www.w3.org/Graphics/SVG/1.1/DTD/svg11.dtd">
<!-- Generated by graphviz version 7.1.0 (20230121.1956)
 -->
<!-- Pages: 1 -->
<svg width="418pt" height="1212pt"
 viewBox="0.00 0.00 417.97 1212.40" xmlns="http://www.w3.org/2000/svg" xmlns:xlink="http://www.w3.org/1999/xlink">
<g id="graph0" class="graph" transform="scale(1 1) rotate(0) translate(4 1208.4)">
<polygon fill="white" stroke="none" points="-4,4 -4,-1208.4 413.97,-1208.4 413.97,4 -4,4"/>
<!-- M24_EYESPELL_0 -->
<g id="node1" class="node">
<title>M24_EYESPELL_0</title>
<polygon fill="none" stroke="black" points="101.5,-1167.9 101.5,-1203.9 233.39,-1203.9 233.39,-1167.9 101.5,-1167.9"/>
<text text-anchor="middle" x="167.44" y="-1181.7" font-family="Times,serif" font-size="14.00">M24_EYESPELL_0</text>
</g>
<!-- M24_EYESPELL_1 -->
<g id="node2" class="node">
<title>M24_EYESPELL_1</title>
<polygon fill="none" stroke="black" points="29.5,-1078.1 29.5,-1114.1 161.39,-1114.1 161.39,-1078.1 29.5,-1078.1"/>
<text text-anchor="middle" x="95.44" y="-1091.9" font-family="Times,serif" font-size="14.00">M24_EYESPELL_1</text>
</g>
<!-- M24_EYESPELL_0&#45;&gt;M24_EYESPELL_1 -->
<g id="edge1" class="edge">
<title>M24_EYESPELL_0&#45;&gt;M24_EYESPELL_1</title>
<path fill="none" stroke="red" d="M121.23,-1167.95C113.33,-1163.1 106.04,-1157 100.93,-1149.4 96.21,-1142.4 94.19,-1133.64 93.53,-1125.29"/>
<polygon fill="red" stroke="red" points="97.03,-1125.47 93.38,-1115.53 90.03,-1125.58 97.03,-1125.47"/>
<text text-anchor="start" x="101.44" y="-1137.8" font-family="Times,serif" font-size="14.00" fill="red"> </text>
<text text-anchor="start" x="104.94" y="-1137.8" font-family="Courier New" font-size="10.00" fill="red">DROP(0,IDD_EYESPELL)</text>
</g>
<!-- M24_EYESPELL_2 -->
<g id="node3" class="node">
<title>M24_EYESPELL_2</title>
<polygon fill="none" stroke="black" points="27.5,-988.3 27.5,-1024.3 159.39,-1024.3 159.39,-988.3 27.5,-988.3"/>
<text text-anchor="middle" x="93.44" y="-1002.1" font-family="Times,serif" font-size="14.00">M24_EYESPELL_2</text>
</g>
<!-- M24_EYESPELL_1&#45;&gt;M24_EYESPELL_2 -->
<g id="edge2" class="edge">
<title>M24_EYESPELL_1&#45;&gt;M24_EYESPELL_2</title>
<path fill="none" stroke="green" d="M95.06,-1078.17C94.78,-1066.02 94.4,-1049.38 94.08,-1035.27"/>
<polygon fill="green" stroke="green" points="97.59,-1035.61 93.86,-1025.69 90.59,-1035.77 97.59,-1035.61"/>
<text text-anchor="start" x="95.44" y="-1048" font-family="Times,serif" font-size="14.00" fill="green"> </text>
<text text-anchor="start" x="98.94" y="-1048" font-family="Courier New" font-size="10.00" fill="green">SIGNALi(0,S24_BIGEYE)</text>
</g>
<!-- M24_EYESPELL_3 -->
<g id="node4" class="node">
<title>M24_EYESPELL_3</title>
<polygon fill="none" stroke="black" points="27.5,-898.5 27.5,-934.5 159.39,-934.5 159.39,-898.5 27.5,-898.5"/>
<text text-anchor="middle" x="93.44" y="-912.3" font-family="Times,serif" font-size="14.00">M24_EYESPELL_3</text>
</g>
<!-- M24_EYESPELL_2&#45;&gt;M24_EYESPELL_3 -->
<g id="edge3" class="edge">
<title>M24_EYESPELL_2&#45;&gt;M24_EYESPELL_3</title>
<path fill="none" stroke="green" d="M93.44,-988.37C93.44,-976.22 93.44,-959.58 93.44,-945.47"/>
<polygon fill="green" stroke="green" points="96.94,-945.89 93.44,-935.89 89.94,-945.89 96.94,-945.89"/>
<text text-anchor="start" x="93.44" y="-958.2" font-family="Times,serif" font-size="14.00" fill="green"> </text>
<text text-anchor="start" x="96.94" y="-958.2" font-family="Courier New" font-size="10.00" fill="green">C_ACCEPT(0,IDC_BOMB)</text>
</g>
<!-- M24_EYESPELL_4 -->
<g id="node5" class="node">
<title>M24_EYESPELL_4</title>
<polygon fill="none" stroke="black" points="27.5,-808.7 27.5,-844.7 159.39,-844.7 159.39,-808.7 27.5,-808.7"/>
<text text-anchor="middle" x="93.44" y="-822.5" font-family="Times,serif" font-size="14.00">M24_EYESPELL_4</text>
</g>
<!-- M24_EYESPELL_3&#45;&gt;M24_EYESPELL_4 -->
<g id="edge4" class="edge">
<title>M24_EYESPELL_3&#45;&gt;M24_EYESPELL_4</title>
<path fill="none" stroke="green" d="M93.44,-898.57C93.44,-886.42 93.44,-869.78 93.44,-855.67"/>
<polygon fill="green" stroke="green" points="96.94,-856.09 93.44,-846.09 89.94,-856.09 96.94,-856.09"/>
<text text-anchor="start" x="93.44" y="-868.4" font-family="Times,serif" font-size="14.00" fill="green"> </text>
<text text-anchor="start" x="96.94" y="-868.4" font-family="Courier New" font-size="10.00" fill="green">ASHOW(0,IDS_EYESPELL)</text>
</g>
<!-- M24_EYESPELL_5 -->
<g id="node6" class="node">
<title>M24_EYESPELL_5</title>
<polygon fill="none" stroke="black" points="27.5,-718.9 27.5,-754.9 159.39,-754.9 159.39,-718.9 27.5,-718.9"/>
<text text-anchor="middle" x="93.44" y="-732.7" font-family="Times,serif" font-size="14.00">M24_EYESPELL_5</text>
</g>
<!-- M24_EYESPELL_4&#45;&gt;M24_EYESPELL_5 -->
<g id="edge5" class="edge">
<title>M24_EYESPELL_4&#45;&gt;M24_EYESPELL_5</title>
<path fill="none" stroke="green" d="M93.44,-808.77C93.44,-796.62 93.44,-779.98 93.44,-765.87"/>
<polygon fill="green" stroke="green" points="96.94,-766.29 93.44,-756.29 89.94,-766.29 96.94,-766.29"/>
<text text-anchor="start" x="93.44" y="-778.6" font-family="Times,serif" font-size="14.00" fill="green"> </text>
<text text-anchor="start" x="96.94" y="-778.6" font-family="Courier New" font-size="10.00" fill="green">SIGNAL(WIP1,SIG_SHOW)</text>
</g>
<!-- M24_EYESPELL_6 -->
<g id="node7" class="node">
<title>M24_EYESPELL_6</title>
<polygon fill="none" stroke="black" points="26.5,-629.1 26.5,-665.1 158.39,-665.1 158.39,-629.1 26.5,-629.1"/>
<text text-anchor="middle" x="92.44" y="-642.9" font-family="Times,serif" font-size="14.00">M24_EYESPELL_6</text>
</g>
<!-- M24_EYESPELL_5&#45;&gt;M24_EYESPELL_6 -->
<g id="edge6" class="edge">
<title>M24_EYESPELL_5&#45;&gt;M24_EYESPELL_6</title>
<path fill="none" stroke="green" d="M93.25,-718.97C93.11,-706.82 92.92,-690.18 92.76,-676.07"/>
<polygon fill="green" stroke="green" points="96.27,-676.45 92.65,-666.49 89.27,-676.53 96.27,-676.45"/>
<text text-anchor="start" x="93.44" y="-688.8" font-family="Times,serif" font-size="14.00" fill="green"> </text>
<text text-anchor="start" x="96.94" y="-688.8" font-family="Courier New" font-size="10.00" fill="green">SIGNAL(WIP2,SIG_SHOW)</text>
</g>
<!-- M24_EYESPELL_50 -->
<g id="node8" class="node">
<title>M24_EYESPELL_50</title>
<polygon fill="none" stroke="black" points="19,-539.3 19,-575.3 157.89,-575.3 157.89,-539.3 19,-539.3"/>
<text text-anchor="middle" x="88.44" y="-553.1" font-family="Times,serif" font-size="14.00">M24_EYESPELL_50</text>
</g>
<!-- M24_EYESPELL_6&#45;&gt;M24_EYESPELL_50 -->
<g id="edge7" class="edge">
<title>M24_EYESPELL_6&#45;&gt;M24_EYESPELL_50</title>
<path fill="none" stroke="red" d="M91.67,-629.17C91.12,-617.02 90.36,-600.38 89.72,-586.27"/>
<polygon fill="red" stroke="red" points="93.23,-586.52 89.28,-576.69 86.24,-586.84 93.23,-586.52"/>
<text text-anchor="start" x="91.44" y="-599" font-family="Times,serif" font-size="14.00" fill="red"> </text>
<text text-anchor="start" x="94.94" y="-599" font-family="Courier New" font-size="10.00" fill="red">DROP(0,0)</text>
</g>
<!-- M24_EYESPELL_51 -->
<g id="node9" class="node">
<title>M24_EYESPELL_51</title>
<polygon fill="none" stroke="black" points="1,-449.5 1,-485.5 139.89,-485.5 139.89,-449.5 1,-449.5"/>
<text text-anchor="middle" x="70.44" y="-463.3" font-family="Times,serif" font-size="14.00">M24_EYESPELL_51</text>
</g>
<!-- M24_EYESPELL_50&#45;&gt;M24_EYESPELL_51 -->
<g id="edge8" class="edge">
<title>M24_EYESPELL_50&#45;&gt;M24_EYESPELL_51</title>
<path fill="none" stroke="green" d="M84.97,-539.37C82.48,-527.22 79.07,-510.58 76.18,-496.47"/>
<polygon fill="green" stroke="green" points="79.65,-495.95 74.21,-486.86 72.79,-497.36 79.65,-495.95"/>
<text text-anchor="start" x="81.44" y="-509.2" font-family="Times,serif" font-size="14.00" fill="green"> </text>
<text text-anchor="start" x="84.94" y="-509.2" font-family="Courier New" font-size="10.00" fill="green">VIDEO(0,IDS_EXPLODE1)</text>
</g>
<!-- M24_EYESPELL_52 -->
<g id="node10" class="node">
<title>M24_EYESPELL_52</title>
<polygon fill="none" stroke="black" points="0,-359.7 0,-395.7 138.89,-395.7 138.89,-359.7 0,-359.7"/>
<text text-anchor="middle" x="69.44" y="-373.5" font-family="Times,serif" font-size="14.00">M24_EYESPELL_52</text>
</g>
<!-- M24_EYESPELL_51&#45;&gt;M24_EYESPELL_52 -->
<g id="edge9" class="edge">
<title>M24_EYESPELL_51&#45;&gt;M24_EYESPELL_52</title>
<path fill="none" stroke="green" d="M70.25,-449.57C70.11,-437.42 69.92,-420.78 69.76,-406.67"/>
<polygon fill="green" stroke="green" points="73.27,-407.05 69.65,-397.09 66.27,-407.13 73.27,-407.05"/>
<text text-anchor="start" x="70.44" y="-419.4" font-family="Times,serif" font-size="14.00" fill="green"> </text>
<text text-anchor="start" x="73.94" y="-419.4" font-family="Courier New" font-size="10.00" fill="green">PLAYWAVE(0,SOUND_EXPLODE)</text>
</g>
<!-- M24_EYESPELL_53 -->
<g id="node11" class="node">
<title>M24_EYESPELL_53</title>
<polygon fill="none" stroke="black" points="1,-269.9 1,-305.9 139.89,-305.9 139.89,-269.9 1,-269.9"/>
<text text-anchor="middle" x="70.44" y="-283.7" font-family="Times,serif" font-size="14.00">M24_EYESPELL_53</text>
</g>
<!-- M24_EYESPELL_52&#45;&gt;M24_EYESPELL_53 -->
<g id="edge10" class="edge">
<title>M24_EYESPELL_52&#45;&gt;M24_EYESPELL_53</title>
<path fill="none" stroke="green" d="M69.64,-359.77C69.78,-347.62 69.97,-330.98 70.13,-316.87"/>
<polygon fill="green" stroke="green" points="73.62,-317.33 70.24,-307.29 66.62,-317.25 73.62,-317.33"/>
<text text-anchor="start" x="70.44" y="-329.6" font-family="Times,serif" font-size="14.00" fill="green"> </text>
<text text-anchor="start" x="73.94" y="-329.6" font-family="Courier New" font-size="10.00" fill="green">SHOW(0,0)</text>
</g>
<!-- M24_EYESPELL_54 -->
<g id="node12" class="node">
<title>M24_EYESPELL_54</title>
<polygon fill="none" stroke="black" points="1,-180.1 1,-216.1 139.89,-216.1 139.89,-180.1 1,-180.1"/>
<text text-anchor="middle" x="70.44" y="-193.9" font-family="Times,serif" font-size="14.00">M24_EYESPELL_54</text>
</g>
<!-- M24_EYESPELL_53&#45;&gt;M24_EYESPELL_54 -->
<g id="edge11" class="edge">
<title>M24_EYESPELL_53&#45;&gt;M24_EYESPELL_54</title>
<path fill="none" stroke="green" d="M70.44,-269.97C70.44,-257.82 70.44,-241.18 70.44,-227.07"/>
<polygon fill="green" stroke="green" points="73.94,-227.49 70.44,-217.49 66.94,-227.49 73.94,-227.49"/>
<text text-anchor="start" x="70.44" y="-239.8" font-family="Times,serif" font-size="14.00" fill="green"> </text>
<text text-anchor="start" x="73.94" y="-239.8" font-family="Courier New" font-size="10.00" fill="green">SIGNAL(WIP1,SIG_HIDE)</text>
</g>
<!-- M24_EYESPELL_55 -->
<g id="node13" class="node">
<title>M24_EYESPELL_55</title>
<polygon fill="none" stroke="black" points="3,-90.3 3,-126.3 141.89,-126.3 141.89,-90.3 3,-90.3"/>
<text text-anchor="middle" x="72.44" y="-104.1" font-family="Times,serif" font-size="14.00">M24_EYESPELL_55</text>
</g>
<!-- M24_EYESPELL_54&#45;&gt;M24_EYESPELL_55 -->
<g id="edge12" class="edge">
<title>M24_EYESPELL_54&#45;&gt;M24_EYESPELL_55</title>
<path fill="none" stroke="green" d="M70.83,-180.17C71.11,-168.02 71.49,-151.38 71.81,-137.27"/>
<polygon fill="green" stroke="green" points="75.3,-137.77 72.03,-127.69 68.3,-137.61 75.3,-137.77"/>
<text text-anchor="start" x="72.44" y="-150" font-family="Times,serif" font-size="14.00" fill="green"> </text>
<text text-anchor="start" x="75.94" y="-150" font-family="Courier New" font-size="10.00" fill="green">SIGNAL(WIP2,SIG_HIDE)</text>
</g>
<!-- M24_EYESPELL_56 -->
<g id="node14" class="node">
<title>M24_EYESPELL_56</title>
<polygon fill="none" stroke="black" points="87,-0.5 87,-36.5 225.89,-36.5 225.89,-0.5 87,-0.5"/>
<text text-anchor="middle" x="156.44" y="-14.3" font-family="Times,serif" font-size="14.00">M24_EYESPELL_56</text>
</g>
<!-- M24_EYESPELL_55&#45;&gt;M24_EYESPELL_56 -->
<g id="edge13" class="edge">
<title>M24_EYESPELL_55&#45;&gt;M24_EYESPELL_56</title>
<path fill="none" stroke="green" d="M69.78,-90.74C68.9,-79.65 69.63,-65.25 76.92,-55 80.29,-50.27 84.43,-46.16 89.04,-42.59"/>
<polygon fill="green" stroke="green" points="90.75,-45.66 97.15,-37.21 86.88,-39.82 90.75,-45.66"/>
<text text-anchor="start" x="77.44" y="-60.2" font-family="Times,serif" font-size="14.00" fill="green"> </text>
<text text-anchor="start" x="80.94" y="-60.2" font-family="Courier New" font-size="10.00" fill="green">O_ACCEPT(0,IDD_EYESPELL)</text>
</g>
<!-- M24_EYESPELL_56&#45;&gt;M24_EYESPELL_0 -->
<g id="edge14" class="edge">
<title>M24_EYESPELL_56&#45;&gt;M24_EYESPELL_0</title>
<path fill="none" stroke="green" d="M201.69,-36.36C210.22,-41.27 218.37,-47.41 224.44,-55 239.49,-73.78 238.44,-83.24 238.44,-107.3 238.44,-1097.1 238.44,-1097.1 238.44,-1097.1 238.44,-1121.16 238.77,-1130.07 224.44,-1149.4 221.19,-1153.79 217.21,-1157.77 212.89,-1161.33"/>
<polygon fill="green" stroke="green" points="210.89,-1158.46 204.87,-1167.18 215.01,-1164.12 210.89,-1158.46"/>
<text text-anchor="start" x="238.44" y="-599" font-family="Times,serif" font-size="14.00" fill="green"> </text>
<text text-anchor="start" x="241.94" y="-599" font-family="Courier New" font-size="10.00" fill="green">SIGNALi(SIG_BOMB,S24_BIGEYE)</text>
</g>
</g>
</svg>
