<?xml version="1.0" encoding="UTF-8" standalone="no"?>
<!DOCTYPE svg PUBLIC "-//W3C//DTD SVG 1.1//EN"
 "http://www.w3.org/Graphics/SVG/1.1/DTD/svg11.dtd">
<!-- Generated by graphviz version 7.1.0 (20230121.1956)
 -->
<!-- Pages: 1 -->
<svg width="432pt" height="1266pt"
 viewBox="0.00 0.00 432.00 1266.00" xmlns="http://www.w3.org/2000/svg" xmlns:xlink="http://www.w3.org/1999/xlink">
<g id="graph0" class="graph" transform="scale(1 1) rotate(0) translate(4 1262)">
<polygon fill="white" stroke="none" points="-4,4 -4,-1262 428,-1262 428,4 -4,4"/>
<!-- 0 -->
<g id="node1" class="node">
<title>0</title>
<ellipse fill="none" stroke="black" cx="125" cy="-1240" rx="27" ry="18"/>
<text text-anchor="middle" x="125" y="-1235.8" font-family="Times,serif" font-size="14.00">0</text>
</g>
<!-- 1 -->
<g id="node2" class="node">
<title>1</title>
<ellipse fill="none" stroke="black" cx="48" cy="-1146" rx="27" ry="18"/>
<text text-anchor="middle" x="48" y="-1141.8" font-family="Times,serif" font-size="14.00">1</text>
</g>
<!-- 0&#45;&gt;1 -->
<g id="edge1" class="edge">
<title>0&#45;&gt;1</title>
<path fill="none" stroke="black" d="M103.23,-1228.91C92.34,-1222.96 79.67,-1214.52 71,-1204 64.04,-1195.57 58.97,-1184.75 55.39,-1174.82"/>
<polygon fill="black" stroke="black" points="58.82,-1174.03 52.42,-1165.59 52.15,-1176.18 58.82,-1174.03"/>
<text text-anchor="start" x="75.5" y="-1190.2" font-family="Courier New" font-weight="bold" font-size="12.00" fill="orange">DROP(0IDD_EYEFUSE)</text>
</g>
<!-- 2 -->
<g id="node3" class="node">
<title>2</title>
<ellipse fill="none" stroke="black" cx="32" cy="-1052" rx="27" ry="18"/>
<text text-anchor="middle" x="32" y="-1047.8" font-family="Times,serif" font-size="14.00">2</text>
</g>
<!-- 1&#45;&gt;2 -->
<g id="edge2" class="edge">
<title>1&#45;&gt;2</title>
<path fill="none" stroke="black" d="M44.99,-1127.7C42.73,-1114.72 39.59,-1096.66 36.97,-1081.56"/>
<polygon fill="black" stroke="black" points="40.42,-1080.97 35.26,-1071.72 33.52,-1082.17 40.42,-1080.97"/>
<text text-anchor="start" x="46" y="-1096.2" font-family="Courier New" font-weight="bold" font-size="12.00" fill="blue">SIGNALi(0S24_BIGEYE)</text>
</g>
<!-- 3 -->
<g id="node4" class="node">
<title>3</title>
<ellipse fill="none" stroke="black" cx="28" cy="-958" rx="27" ry="18"/>
<text text-anchor="middle" x="28" y="-953.8" font-family="Times,serif" font-size="14.00">3</text>
</g>
<!-- 2&#45;&gt;3 -->
<g id="edge3" class="edge">
<title>2&#45;&gt;3</title>
<path fill="none" stroke="black" d="M31.25,-1033.7C30.68,-1020.72 29.9,-1002.66 29.24,-987.56"/>
<polygon fill="black" stroke="black" points="32.75,-987.58 28.81,-977.74 25.75,-987.88 32.75,-987.58"/>
<text text-anchor="start" x="35" y="-1002.2" font-family="Courier New" font-weight="bold" font-size="12.00" fill="blue">C_ACCEPT(0IDC_BOMB)</text>
</g>
<!-- 4 -->
<g id="node5" class="node">
<title>4</title>
<ellipse fill="none" stroke="black" cx="27" cy="-864" rx="27" ry="18"/>
<text text-anchor="middle" x="27" y="-859.8" font-family="Times,serif" font-size="14.00">4</text>
</g>
<!-- 3&#45;&gt;4 -->
<g id="edge4" class="edge">
<title>3&#45;&gt;4</title>
<path fill="none" stroke="black" d="M27.81,-939.7C27.67,-926.72 27.47,-908.66 27.31,-893.56"/>
<polygon fill="black" stroke="black" points="30.81,-893.7 27.2,-883.74 23.81,-893.78 30.81,-893.7"/>
<text text-anchor="start" x="32" y="-908.2" font-family="Courier New" font-weight="bold" font-size="12.00" fill="blue">ASHOW(0IDS_EYEPLATE)</text>
</g>
<!-- 5 -->
<g id="node6" class="node">
<title>5</title>
<ellipse fill="none" stroke="black" cx="27" cy="-770" rx="27" ry="18"/>
<text text-anchor="middle" x="27" y="-765.8" font-family="Times,serif" font-size="14.00">5</text>
</g>
<!-- 4&#45;&gt;5 -->
<g id="edge5" class="edge">
<title>4&#45;&gt;5</title>
<path fill="none" stroke="black" d="M27,-845.7C27,-832.72 27,-814.66 27,-799.56"/>
<polygon fill="black" stroke="black" points="30.5,-799.74 27,-789.74 23.5,-799.74 30.5,-799.74"/>
<text text-anchor="start" x="31" y="-814.2" font-family="Courier New" font-weight="bold" font-size="12.00" fill="blue">SIGNAL(WIP1SIG_SHOW)</text>
</g>
<!-- 6 -->
<g id="node7" class="node">
<title>6</title>
<ellipse fill="none" stroke="black" cx="27" cy="-676" rx="27" ry="18"/>
<text text-anchor="middle" x="27" y="-671.8" font-family="Times,serif" font-size="14.00">6</text>
</g>
<!-- 5&#45;&gt;6 -->
<g id="edge6" class="edge">
<title>5&#45;&gt;6</title>
<path fill="none" stroke="black" d="M27,-751.7C27,-738.72 27,-720.66 27,-705.56"/>
<polygon fill="black" stroke="black" points="30.5,-705.74 27,-695.74 23.5,-705.74 30.5,-705.74"/>
<text text-anchor="start" x="31" y="-720.2" font-family="Courier New" font-weight="bold" font-size="12.00" fill="blue">SIGNAL(WIP2SIG_SHOW)</text>
</g>
<!-- 50 -->
<g id="node8" class="node">
<title>50</title>
<ellipse fill="none" stroke="black" cx="27" cy="-582" rx="27" ry="18"/>
<text text-anchor="middle" x="27" y="-577.8" font-family="Times,serif" font-size="14.00">50</text>
</g>
<!-- 6&#45;&gt;50 -->
<g id="edge14" class="edge">
<title>6&#45;&gt;50</title>
<path fill="none" stroke="black" d="M27,-657.7C27,-644.72 27,-626.66 27,-611.56"/>
<polygon fill="black" stroke="black" points="30.5,-611.74 27,-601.74 23.5,-611.74 30.5,-611.74"/>
<text text-anchor="start" x="31.5" y="-626.2" font-family="Courier New" font-weight="bold" font-size="12.00" fill="orange">DROP(00)</text>
</g>
<!-- 51 -->
<g id="node9" class="node">
<title>51</title>
<ellipse fill="none" stroke="black" cx="27" cy="-488" rx="27" ry="18"/>
<text text-anchor="middle" x="27" y="-483.8" font-family="Times,serif" font-size="14.00">51</text>
</g>
<!-- 50&#45;&gt;51 -->
<g id="edge7" class="edge">
<title>50&#45;&gt;51</title>
<path fill="none" stroke="black" d="M27,-563.7C27,-550.72 27,-532.66 27,-517.56"/>
<polygon fill="black" stroke="black" points="30.5,-517.74 27,-507.74 23.5,-517.74 30.5,-517.74"/>
<text text-anchor="start" x="31" y="-532.2" font-family="Courier New" font-weight="bold" font-size="12.00" fill="blue">VIDEO(0IDS_EXPLODE1)</text>
</g>
<!-- 52 -->
<g id="node10" class="node">
<title>52</title>
<ellipse fill="none" stroke="black" cx="28" cy="-394" rx="27" ry="18"/>
<text text-anchor="middle" x="28" y="-389.8" font-family="Times,serif" font-size="14.00">52</text>
</g>
<!-- 51&#45;&gt;52 -->
<g id="edge8" class="edge">
<title>51&#45;&gt;52</title>
<path fill="none" stroke="black" d="M27.19,-469.7C27.33,-456.72 27.53,-438.66 27.69,-423.56"/>
<polygon fill="black" stroke="black" points="31.19,-423.78 27.8,-413.74 24.19,-423.7 31.19,-423.78"/>
<text text-anchor="start" x="32" y="-438.2" font-family="Courier New" font-weight="bold" font-size="12.00" fill="blue">PLAYWAVE(0SOUND_EXPLODE)</text>
</g>
<!-- 53 -->
<g id="node11" class="node">
<title>53</title>
<ellipse fill="none" stroke="black" cx="38" cy="-300" rx="27" ry="18"/>
<text text-anchor="middle" x="38" y="-295.8" font-family="Times,serif" font-size="14.00">53</text>
</g>
<!-- 52&#45;&gt;53 -->
<g id="edge9" class="edge">
<title>52&#45;&gt;53</title>
<path fill="none" stroke="black" d="M29.88,-375.7C31.29,-362.72 33.25,-344.66 34.9,-329.56"/>
<polygon fill="black" stroke="black" points="38.36,-330.05 35.96,-319.73 31.4,-329.29 38.36,-330.05"/>
<text text-anchor="start" x="39.5" y="-344.2" font-family="Courier New" font-weight="bold" font-size="12.00" fill="blue">SHOW(00)</text>
</g>
<!-- 54 -->
<g id="node12" class="node">
<title>54</title>
<ellipse fill="none" stroke="black" cx="41" cy="-206" rx="27" ry="18"/>
<text text-anchor="middle" x="41" y="-201.8" font-family="Times,serif" font-size="14.00">54</text>
</g>
<!-- 53&#45;&gt;54 -->
<g id="edge10" class="edge">
<title>53&#45;&gt;54</title>
<path fill="none" stroke="black" d="M38.56,-281.7C38.99,-268.72 39.58,-250.66 40.07,-235.56"/>
<polygon fill="black" stroke="black" points="43.56,-235.85 40.39,-225.74 36.56,-235.62 43.56,-235.85"/>
<text text-anchor="start" x="44" y="-250.2" font-family="Courier New" font-weight="bold" font-size="12.00" fill="blue">SIGNAL(WIP1SIG_HIDE)</text>
</g>
<!-- 55 -->
<g id="node13" class="node">
<title>55</title>
<ellipse fill="none" stroke="black" cx="41" cy="-112" rx="27" ry="18"/>
<text text-anchor="middle" x="41" y="-107.8" font-family="Times,serif" font-size="14.00">55</text>
</g>
<!-- 54&#45;&gt;55 -->
<g id="edge11" class="edge">
<title>54&#45;&gt;55</title>
<path fill="none" stroke="black" d="M41,-187.7C41,-174.72 41,-156.66 41,-141.56"/>
<polygon fill="black" stroke="black" points="44.5,-141.74 41,-131.74 37.5,-141.74 44.5,-141.74"/>
<text text-anchor="start" x="45" y="-156.2" font-family="Courier New" font-weight="bold" font-size="12.00" fill="blue">SIGNAL(WIP2SIG_HIDE)</text>
</g>
<!-- 56 -->
<g id="node14" class="node">
<title>56</title>
<ellipse fill="none" stroke="black" cx="131" cy="-18" rx="27" ry="18"/>
<text text-anchor="middle" x="131" y="-13.8" font-family="Times,serif" font-size="14.00">56</text>
</g>
<!-- 55&#45;&gt;56 -->
<g id="edge12" class="edge">
<title>55&#45;&gt;56</title>
<path fill="none" stroke="black" d="M36.61,-93.77C34.55,-81.59 34.04,-65.46 42,-54 53.6,-37.28 74.5,-28.55 93.12,-23.99"/>
<polygon fill="black" stroke="black" points="93.77,-27.43 102.85,-21.96 92.34,-20.58 93.77,-27.43"/>
<text text-anchor="start" x="46" y="-62.2" font-family="Courier New" font-weight="bold" font-size="12.00" fill="blue">O_ACCEPT(0IDD_EYEFUSE)</text>
</g>
<!-- 56&#45;&gt;0 -->
<g id="edge13" class="edge">
<title>56&#45;&gt;0</title>
<path fill="none" stroke="black" d="M156.38,-24.41C173.39,-29.32 194.97,-38.29 208,-54 224.66,-74.08 222,-84.91 222,-111 222,-1147 222,-1147 222,-1147 222,-1173.09 224.93,-1184.15 208,-1204 196.29,-1217.73 178.28,-1226.19 162.02,-1231.35"/>
<polygon fill="black" stroke="black" points="161.28,-1227.92 152.6,-1234 163.18,-1234.66 161.28,-1227.92"/>
<text text-anchor="start" x="226" y="-626.2" font-family="Courier New" font-weight="bold" font-size="12.00" fill="blue">SIGNALi(SIG_BOMBS24_BIGEYE)</text>
</g>
</g>
</svg>
