<?xml version="1.0" encoding="UTF-8" standalone="no"?>
<!DOCTYPE svg PUBLIC "-//W3C//DTD SVG 1.1//EN"
 "http://www.w3.org/Graphics/SVG/1.1/DTD/svg11.dtd">
<!-- Generated by graphviz version 7.1.0 (20230121.1956)
 -->
<!-- Pages: 1 -->
<svg width="384pt" height="1240pt"
 viewBox="0.00 0.00 384.00 1240.00" xmlns="http://www.w3.org/2000/svg" xmlns:xlink="http://www.w3.org/1999/xlink">
<g id="graph0" class="graph" transform="scale(1 1) rotate(0) translate(4 1236)">
<polygon fill="white" stroke="none" points="-4,4 -4,-1236 380,-1236 380,4 -4,4"/>
<!-- 0 -->
<g id="node1" class="node">
<title>0</title>
<ellipse fill="none" stroke="black" cx="113" cy="-1214" rx="27" ry="18"/>
<text text-anchor="middle" x="113" y="-1209.8" font-family="Times,serif" font-size="14.00">0</text>
</g>
<!-- 1 -->
<g id="node2" class="node">
<title>1</title>
<ellipse fill="none" stroke="black" cx="41" cy="-1122" rx="27" ry="18"/>
<text text-anchor="middle" x="41" y="-1117.8" font-family="Times,serif" font-size="14.00">1</text>
</g>
<!-- 0&#45;&gt;1 -->
<g id="edge1" class="edge">
<title>0&#45;&gt;1</title>
<path fill="none" stroke="black" d="M90.73,-1203.44C79.47,-1197.58 66.45,-1189.07 58,-1178 52.12,-1170.29 48.25,-1160.52 45.72,-1151.37"/>
<polygon fill="black" stroke="black" points="49.16,-1150.73 43.51,-1141.77 42.34,-1152.3 49.16,-1150.73"/>
<text text-anchor="start" x="62" y="-1166" font-family="Courier New" font-weight="bold" font-size="10.00" fill="orange">DROP(0,IDD_EYESPELL)</text>
</g>
<!-- 2 -->
<g id="node3" class="node">
<title>2</title>
<ellipse fill="none" stroke="black" cx="30" cy="-1030" rx="27" ry="18"/>
<text text-anchor="middle" x="30" y="-1025.8" font-family="Times,serif" font-size="14.00">2</text>
</g>
<!-- 1&#45;&gt;2 -->
<g id="edge2" class="edge">
<title>1&#45;&gt;2</title>
<path fill="none" stroke="black" d="M38.88,-1103.65C37.36,-1091.2 35.27,-1074.14 33.5,-1059.68"/>
<polygon fill="black" stroke="black" points="36.99,-1059.3 32.3,-1049.8 30.04,-1060.15 36.99,-1059.3"/>
<text text-anchor="start" x="41" y="-1074" font-family="Courier New" font-weight="bold" font-size="10.00" fill="blue">SIGNALi(0,S24_BIGEYE)</text>
</g>
<!-- 3 -->
<g id="node4" class="node">
<title>3</title>
<ellipse fill="none" stroke="black" cx="27" cy="-938" rx="27" ry="18"/>
<text text-anchor="middle" x="27" y="-933.8" font-family="Times,serif" font-size="14.00">3</text>
</g>
<!-- 2&#45;&gt;3 -->
<g id="edge3" class="edge">
<title>2&#45;&gt;3</title>
<path fill="none" stroke="black" d="M29.42,-1011.65C29.01,-999.2 28.44,-982.14 27.96,-967.68"/>
<polygon fill="black" stroke="black" points="31.46,-967.69 27.63,-957.81 24.46,-967.92 31.46,-967.69"/>
<text text-anchor="start" x="33" y="-982" font-family="Courier New" font-weight="bold" font-size="10.00" fill="blue">C_ACCEPT(0,IDC_BOMB)</text>
</g>
<!-- 4 -->
<g id="node5" class="node">
<title>4</title>
<ellipse fill="none" stroke="black" cx="27" cy="-846" rx="27" ry="18"/>
<text text-anchor="middle" x="27" y="-841.8" font-family="Times,serif" font-size="14.00">4</text>
</g>
<!-- 3&#45;&gt;4 -->
<g id="edge4" class="edge">
<title>3&#45;&gt;4</title>
<path fill="none" stroke="black" d="M27,-919.65C27,-907.2 27,-890.14 27,-875.68"/>
<polygon fill="black" stroke="black" points="30.5,-875.81 27,-865.81 23.5,-875.81 30.5,-875.81"/>
<text text-anchor="start" x="31" y="-890" font-family="Courier New" font-weight="bold" font-size="10.00" fill="blue">ASHOW(0,IDS_EYESPELL)</text>
</g>
<!-- 5 -->
<g id="node6" class="node">
<title>5</title>
<ellipse fill="none" stroke="black" cx="27" cy="-754" rx="27" ry="18"/>
<text text-anchor="middle" x="27" y="-749.8" font-family="Times,serif" font-size="14.00">5</text>
</g>
<!-- 4&#45;&gt;5 -->
<g id="edge5" class="edge">
<title>4&#45;&gt;5</title>
<path fill="none" stroke="black" d="M27,-827.65C27,-815.2 27,-798.14 27,-783.68"/>
<polygon fill="black" stroke="black" points="30.5,-783.81 27,-773.81 23.5,-783.81 30.5,-783.81"/>
<text text-anchor="start" x="31" y="-798" font-family="Courier New" font-weight="bold" font-size="10.00" fill="blue">SIGNAL(WIP1,SIG_SHOW)</text>
</g>
<!-- 6 -->
<g id="node7" class="node">
<title>6</title>
<ellipse fill="none" stroke="black" cx="27" cy="-662" rx="27" ry="18"/>
<text text-anchor="middle" x="27" y="-657.8" font-family="Times,serif" font-size="14.00">6</text>
</g>
<!-- 5&#45;&gt;6 -->
<g id="edge6" class="edge">
<title>5&#45;&gt;6</title>
<path fill="none" stroke="black" d="M27,-735.65C27,-723.2 27,-706.14 27,-691.68"/>
<polygon fill="black" stroke="black" points="30.5,-691.81 27,-681.81 23.5,-691.81 30.5,-691.81"/>
<text text-anchor="start" x="31" y="-706" font-family="Courier New" font-weight="bold" font-size="10.00" fill="blue">SIGNAL(WIP2,SIG_SHOW)</text>
</g>
<!-- 50 -->
<g id="node8" class="node">
<title>50</title>
<ellipse fill="none" stroke="black" cx="27" cy="-570" rx="27" ry="18"/>
<text text-anchor="middle" x="27" y="-565.8" font-family="Times,serif" font-size="14.00">50</text>
</g>
<!-- 6&#45;&gt;50 -->
<g id="edge7" class="edge">
<title>6&#45;&gt;50</title>
<path fill="none" stroke="black" d="M27,-643.65C27,-631.2 27,-614.14 27,-599.68"/>
<polygon fill="black" stroke="black" points="30.5,-599.81 27,-589.81 23.5,-599.81 30.5,-599.81"/>
<text text-anchor="start" x="31" y="-614" font-family="Courier New" font-weight="bold" font-size="10.00" fill="orange">DROP(0,0)</text>
</g>
<!-- 51 -->
<g id="node9" class="node">
<title>51</title>
<ellipse fill="none" stroke="black" cx="27" cy="-478" rx="27" ry="18"/>
<text text-anchor="middle" x="27" y="-473.8" font-family="Times,serif" font-size="14.00">51</text>
</g>
<!-- 50&#45;&gt;51 -->
<g id="edge8" class="edge">
<title>50&#45;&gt;51</title>
<path fill="none" stroke="black" d="M27,-551.65C27,-539.2 27,-522.14 27,-507.68"/>
<polygon fill="black" stroke="black" points="30.5,-507.81 27,-497.81 23.5,-507.81 30.5,-507.81"/>
<text text-anchor="start" x="31" y="-522" font-family="Courier New" font-weight="bold" font-size="10.00" fill="blue">VIDEO(0,IDS_EXPLODE1)</text>
</g>
<!-- 52 -->
<g id="node10" class="node">
<title>52</title>
<ellipse fill="none" stroke="black" cx="28" cy="-386" rx="27" ry="18"/>
<text text-anchor="middle" x="28" y="-381.8" font-family="Times,serif" font-size="14.00">52</text>
</g>
<!-- 51&#45;&gt;52 -->
<g id="edge9" class="edge">
<title>51&#45;&gt;52</title>
<path fill="none" stroke="black" d="M27.19,-459.65C27.33,-447.2 27.52,-430.14 27.68,-415.68"/>
<polygon fill="black" stroke="black" points="31.18,-415.85 27.79,-405.81 24.18,-415.77 31.18,-415.85"/>
<text text-anchor="start" x="32" y="-430" font-family="Courier New" font-weight="bold" font-size="10.00" fill="blue">PLAYWAVE(0,SOUND_EXPLODE)</text>
</g>
<!-- 53 -->
<g id="node11" class="node">
<title>53</title>
<ellipse fill="none" stroke="black" cx="32" cy="-294" rx="27" ry="18"/>
<text text-anchor="middle" x="32" y="-289.8" font-family="Times,serif" font-size="14.00">53</text>
</g>
<!-- 52&#45;&gt;53 -->
<g id="edge10" class="edge">
<title>52&#45;&gt;53</title>
<path fill="none" stroke="black" d="M28.77,-367.65C29.32,-355.2 30.08,-338.14 30.73,-323.68"/>
<polygon fill="black" stroke="black" points="34.22,-323.96 31.16,-313.81 27.22,-323.65 34.22,-323.96"/>
<text text-anchor="start" x="35" y="-338" font-family="Courier New" font-weight="bold" font-size="10.00" fill="blue">SHOW(0,0)</text>
</g>
<!-- 54 -->
<g id="node12" class="node">
<title>54</title>
<ellipse fill="none" stroke="black" cx="33" cy="-202" rx="27" ry="18"/>
<text text-anchor="middle" x="33" y="-197.8" font-family="Times,serif" font-size="14.00">54</text>
</g>
<!-- 53&#45;&gt;54 -->
<g id="edge11" class="edge">
<title>53&#45;&gt;54</title>
<path fill="none" stroke="black" d="M32.19,-275.65C32.33,-263.2 32.52,-246.14 32.68,-231.68"/>
<polygon fill="black" stroke="black" points="36.18,-231.85 32.79,-221.81 29.18,-231.77 36.18,-231.85"/>
<text text-anchor="start" x="37" y="-246" font-family="Courier New" font-weight="bold" font-size="10.00" fill="blue">SIGNAL(WIP1,SIG_HIDE)</text>
</g>
<!-- 55 -->
<g id="node13" class="node">
<title>55</title>
<ellipse fill="none" stroke="black" cx="33" cy="-110" rx="27" ry="18"/>
<text text-anchor="middle" x="33" y="-105.8" font-family="Times,serif" font-size="14.00">55</text>
</g>
<!-- 54&#45;&gt;55 -->
<g id="edge12" class="edge">
<title>54&#45;&gt;55</title>
<path fill="none" stroke="black" d="M33,-183.65C33,-171.2 33,-154.14 33,-139.68"/>
<polygon fill="black" stroke="black" points="36.5,-139.81 33,-129.81 29.5,-139.81 36.5,-139.81"/>
<text text-anchor="start" x="37" y="-154" font-family="Courier New" font-weight="bold" font-size="10.00" fill="blue">SIGNAL(WIP2,SIG_HIDE)</text>
</g>
<!-- 56 -->
<g id="node14" class="node">
<title>56</title>
<ellipse fill="none" stroke="black" cx="116" cy="-18" rx="27" ry="18"/>
<text text-anchor="middle" x="116" y="-13.8" font-family="Times,serif" font-size="14.00">56</text>
</g>
<!-- 55&#45;&gt;56 -->
<g id="edge13" class="edge">
<title>55&#45;&gt;56</title>
<path fill="none" stroke="black" d="M28.79,-91.94C26.93,-80.28 26.58,-65.01 34,-54 44.12,-38.98 62.11,-30.38 78.68,-25.47"/>
<polygon fill="black" stroke="black" points="79.51,-28.86 88.33,-23 77.78,-22.08 79.51,-28.86"/>
<text text-anchor="start" x="38" y="-62" font-family="Courier New" font-weight="bold" font-size="10.00" fill="blue">O_ACCEPT(0,IDD_EYESPELL)</text>
</g>
<!-- 56&#45;&gt;0 -->
<g id="edge14" class="edge">
<title>56&#45;&gt;0</title>
<path fill="none" stroke="black" d="M140.76,-25.61C155.93,-30.9 174.58,-39.82 186,-54 201.83,-73.64 200,-83.78 200,-109 200,-1123 200,-1123 200,-1123 200,-1148.22 201.99,-1158.49 186,-1178 176.44,-1189.67 162.07,-1197.7 148.6,-1203.1"/>
<polygon fill="black" stroke="black" points="147.74,-1199.69 139.52,-1206.37 150.11,-1206.27 147.74,-1199.69"/>
<text text-anchor="start" x="204" y="-614" font-family="Courier New" font-weight="bold" font-size="10.00" fill="blue">SIGNALi(SIG_BOMB,S24_BIGEYE)</text>
</g>
</g>
</svg>
