<?xml version="1.0" encoding="UTF-8" standalone="no"?>
<!DOCTYPE svg PUBLIC "-//W3C//DTD SVG 1.1//EN"
 "http://www.w3.org/Graphics/SVG/1.1/DTD/svg11.dtd">
<!-- Generated by graphviz version 7.1.0 (20230121.1956)
 -->
<!-- Pages: 1 -->
<svg width="888pt" height="1280pt"
 viewBox="0.00 0.00 887.54 1280.00" xmlns="http://www.w3.org/2000/svg" xmlns:xlink="http://www.w3.org/1999/xlink">
<g id="graph0" class="graph" transform="scale(1 1) rotate(0) translate(4 1276)">
<polygon fill="white" stroke="none" points="-4,4 -4,-1276 883.54,-1276 883.54,4 -4,4"/>
<!-- 0 -->
<g id="node1" class="node">
<title>0</title>
<ellipse fill="none" stroke="black" cx="347.54" cy="-1254" rx="27" ry="18"/>
<text text-anchor="middle" x="347.54" y="-1249.8" font-family="Times,serif" font-size="14.00">0</text>
</g>
<!-- 2 -->
<g id="node2" class="node">
<title>2</title>
<ellipse fill="none" stroke="black" cx="347.54" cy="-1160" rx="27" ry="18"/>
<text text-anchor="middle" x="347.54" y="-1155.8" font-family="Times,serif" font-size="14.00">2</text>
</g>
<!-- 0&#45;&gt;2 -->
<g id="edge1" class="edge">
<title>0&#45;&gt;2</title>
<path fill="none" stroke="black" d="M347.54,-1235.7C347.54,-1222.72 347.54,-1204.66 347.54,-1189.56"/>
<polygon fill="black" stroke="black" points="351.04,-1189.74 347.54,-1179.74 344.04,-1189.74 351.04,-1189.74"/>
<text text-anchor="start" x="351.54" y="-1204.2" font-family="Courier New" font-weight="bold" font-size="12.00" fill="blue">MOV(BFRAME0)</text>
</g>
<!-- 3 -->
<g id="node7" class="node">
<title>3</title>
<ellipse fill="none" stroke="black" cx="347.54" cy="-1066" rx="27" ry="18"/>
<text text-anchor="middle" x="347.54" y="-1061.8" font-family="Times,serif" font-size="14.00">3</text>
</g>
<!-- 2&#45;&gt;3 -->
<g id="edge6" class="edge">
<title>2&#45;&gt;3</title>
<path fill="none" stroke="black" d="M347.54,-1141.7C347.54,-1128.72 347.54,-1110.66 347.54,-1095.56"/>
<polygon fill="black" stroke="black" points="351.04,-1095.74 347.54,-1085.74 344.04,-1095.74 351.04,-1095.74"/>
<text text-anchor="start" x="352.04" y="-1110.2" font-family="Courier New" font-weight="bold" font-size="12.00" fill="blue">ASSIGN(WSPRITEIDS_SCATTER)</text>
</g>
<!-- 10 -->
<g id="node3" class="node">
<title>10</title>
<ellipse fill="none" stroke="black" cx="347.54" cy="-878" rx="27" ry="18"/>
<text text-anchor="middle" x="347.54" y="-873.8" font-family="Times,serif" font-size="14.00">10</text>
</g>
<!-- 73 -->
<g id="node4" class="node">
<title>73</title>
<ellipse fill="none" stroke="black" cx="511.54" cy="-206" rx="27" ry="18"/>
<text text-anchor="middle" x="511.54" y="-201.8" font-family="Times,serif" font-size="14.00">73</text>
</g>
<!-- 10&#45;&gt;73 -->
<g id="edge2" class="edge">
<title>10&#45;&gt;73</title>
<path fill="none" stroke="black" d="M374.35,-873.91C443.86,-865.16 624.54,-837.38 624.54,-785 624.54,-785 624.54,-785 624.54,-299 624.54,-258.2 579.69,-232.3 546.5,-218.71"/>
<polygon fill="black" stroke="black" points="547.78,-215.45 537.19,-215.12 545.26,-221.98 547.78,-215.45"/>
<text text-anchor="start" x="628.54" y="-532.2" font-family="Courier New" font-weight="bold" font-size="12.00" fill="orange">CLICK(00)</text>
</g>
<!-- 60 -->
<g id="node5" class="node">
<title>60</title>
<ellipse fill="none" stroke="black" cx="122.54" cy="-784" rx="27" ry="18"/>
<text text-anchor="middle" x="122.54" y="-779.8" font-family="Times,serif" font-size="14.00">60</text>
</g>
<!-- 10&#45;&gt;60 -->
<g id="edge3" class="edge">
<title>10&#45;&gt;60</title>
<path fill="none" stroke="black" d="M320.21,-876.25C243.01,-873.87 27.44,-865.17 6.54,-842 -19.29,-813.39 41.75,-797.51 84.73,-790.16"/>
<polygon fill="black" stroke="black" points="85.19,-793.63 94.51,-788.59 84.09,-786.72 85.19,-793.63"/>
<text text-anchor="start" x="10.54" y="-828.2" font-family="Courier New" font-weight="bold" font-size="12.00" fill="orange">DRAG(0IDD_PICK)</text>
</g>
<!-- 10&#45;&gt;60 -->
<g id="edge4" class="edge">
<title>10&#45;&gt;60</title>
<path fill="none" stroke="black" d="M320.58,-875.53C271.93,-872.38 172.05,-863.41 145.54,-842 136.7,-834.86 131.23,-823.8 127.86,-813.31"/>
<polygon fill="black" stroke="black" points="131.3,-812.61 125.36,-803.84 124.53,-814.4 131.3,-812.61"/>
<text text-anchor="start" x="149.54" y="-828.2" font-family="Courier New" font-weight="bold" font-size="12.00" fill="orange">DRAG(0IDD_SHOVEL)</text>
</g>
<!-- 50 -->
<g id="node6" class="node">
<title>50</title>
<ellipse fill="none" stroke="black" cx="347.54" cy="-784" rx="27" ry="18"/>
<text text-anchor="middle" x="347.54" y="-779.8" font-family="Times,serif" font-size="14.00">50</text>
</g>
<!-- 10&#45;&gt;50 -->
<g id="edge5" class="edge">
<title>10&#45;&gt;50</title>
<path fill="none" stroke="black" d="M347.54,-859.7C347.54,-846.72 347.54,-828.66 347.54,-813.56"/>
<polygon fill="black" stroke="black" points="351.04,-813.74 347.54,-803.74 344.04,-813.74 351.04,-813.74"/>
<text text-anchor="start" x="352.04" y="-828.2" font-family="Courier New" font-weight="bold" font-size="12.00" fill="orange">DROP(00)</text>
</g>
<!-- 73&#45;&gt;10 -->
<g id="edge19" class="edge">
<title>73&#45;&gt;10</title>
<path fill="none" stroke="black" d="M512.44,-224.29C513.32,-242.78 514.54,-272.95 514.54,-299 514.54,-785 514.54,-785 514.54,-785 514.54,-843.53 434.86,-865.1 385.58,-872.84"/>
<polygon fill="black" stroke="black" points="385.27,-869.35 375.86,-874.23 386.26,-876.28 385.27,-869.35"/>
<text text-anchor="start" x="519.04" y="-532.2" font-family="Courier New" font-weight="bold" font-size="12.00" fill="blue">Z_EPSILON()</text>
</g>
<!-- 74 -->
<g id="node15" class="node">
<title>74</title>
<ellipse fill="none" stroke="black" cx="486.54" cy="-112" rx="27" ry="18"/>
<text text-anchor="middle" x="486.54" y="-107.8" font-family="Times,serif" font-size="14.00">74</text>
</g>
<!-- 73&#45;&gt;74 -->
<g id="edge18" class="edge">
<title>73&#45;&gt;74</title>
<path fill="none" stroke="black" d="M506.95,-188.13C503.38,-174.98 498.34,-156.44 494.16,-141.07"/>
<polygon fill="black" stroke="black" points="497.57,-140.27 491.57,-131.54 490.82,-142.11 497.57,-140.27"/>
<text text-anchor="start" x="505.54" y="-156.2" font-family="Courier New" font-weight="bold" font-size="12.00" fill="blue">GTEi(BFRAME10)</text>
</g>
<!-- 61 -->
<g id="node12" class="node">
<title>61</title>
<ellipse fill="none" stroke="black" cx="135.54" cy="-636" rx="27" ry="18"/>
<text text-anchor="middle" x="135.54" y="-631.8" font-family="Times,serif" font-size="14.00">61</text>
</g>
<!-- 60&#45;&gt;61 -->
<g id="edge12" class="edge">
<title>60&#45;&gt;61</title>
<path fill="none" stroke="black" d="M122.32,-765.51C122.3,-754.22 122.53,-739.22 123.54,-726 125.07,-705.76 128.15,-683.09 130.8,-665.7"/>
<polygon fill="black" stroke="black" points="134.26,-666.25 132.35,-655.83 127.34,-665.16 134.26,-666.25"/>
<text text-anchor="start" x="127.54" y="-734.2" font-family="Courier New" font-weight="bold" font-size="12.00" fill="blue">PLAYWAVE(0SOUND_POP)</text>
</g>
<!-- 51 -->
<g id="node9" class="node">
<title>51</title>
<ellipse fill="none" stroke="black" cx="418.54" cy="-690" rx="27" ry="18"/>
<text text-anchor="middle" x="418.54" y="-685.8" font-family="Times,serif" font-size="14.00">51</text>
</g>
<!-- 50&#45;&gt;51 -->
<g id="edge9" class="edge">
<title>50&#45;&gt;51</title>
<path fill="none" stroke="black" d="M343.41,-765.72C341.54,-753.67 341.15,-737.72 348.54,-726 350.89,-722.26 368.91,-713.29 386.07,-705.37"/>
<polygon fill="black" stroke="black" points="387.47,-708.58 395.12,-701.26 384.57,-702.21 387.47,-708.58"/>
<text text-anchor="start" x="352.54" y="-734.2" font-family="Courier New" font-weight="bold" font-size="12.00" fill="blue">VIDEO(0IDS_EXPLODE1)</text>
</g>
<!-- 4 -->
<g id="node8" class="node">
<title>4</title>
<ellipse fill="none" stroke="black" cx="347.54" cy="-972" rx="27" ry="18"/>
<text text-anchor="middle" x="347.54" y="-967.8" font-family="Times,serif" font-size="14.00">4</text>
</g>
<!-- 3&#45;&gt;4 -->
<g id="edge7" class="edge">
<title>3&#45;&gt;4</title>
<path fill="none" stroke="black" d="M347.54,-1047.7C347.54,-1034.72 347.54,-1016.66 347.54,-1001.56"/>
<polygon fill="black" stroke="black" points="351.04,-1001.74 347.54,-991.74 344.04,-1001.74 351.04,-1001.74"/>
<text text-anchor="start" x="352.04" y="-1016.2" font-family="Courier New" font-weight="bold" font-size="12.00" fill="blue">SHOW(WSPRITE)</text>
</g>
<!-- 4&#45;&gt;10 -->
<g id="edge8" class="edge">
<title>4&#45;&gt;10</title>
<path fill="none" stroke="black" d="M347.54,-953.7C347.54,-940.72 347.54,-922.66 347.54,-907.56"/>
<polygon fill="black" stroke="black" points="351.04,-907.74 347.54,-897.74 344.04,-907.74 351.04,-907.74"/>
<text text-anchor="start" x="351.54" y="-922.2" font-family="Courier New" font-weight="bold" font-size="12.00" fill="blue">C_ACCEPT(0IDC_BOMB)</text>
</g>
<!-- 52 -->
<g id="node10" class="node">
<title>52</title>
<ellipse fill="none" stroke="black" cx="341.54" cy="-582" rx="27" ry="18"/>
<text text-anchor="middle" x="341.54" y="-577.8" font-family="Times,serif" font-size="14.00">52</text>
</g>
<!-- 51&#45;&gt;52 -->
<g id="edge10" class="edge">
<title>51&#45;&gt;52</title>
<path fill="none" stroke="black" d="M396.12,-679.29C390.12,-676.81 383.62,-674.22 377.54,-672 352.57,-662.9 336.24,-675.43 320.54,-654 310.75,-640.65 316.12,-622.77 323.88,-608.29"/>
<polygon fill="black" stroke="black" points="326.85,-610.14 328.98,-599.76 320.84,-606.55 326.85,-610.14"/>
<text text-anchor="start" x="324.54" y="-633.2" font-family="Courier New" font-weight="bold" font-size="12.00" fill="blue">PLAYWAVE(0SOUND_EXPLODE)</text>
</g>
<!-- 70 -->
<g id="node11" class="node">
<title>70</title>
<ellipse fill="none" stroke="black" cx="288.54" cy="-488" rx="27" ry="18"/>
<text text-anchor="middle" x="288.54" y="-483.8" font-family="Times,serif" font-size="14.00">70</text>
</g>
<!-- 52&#45;&gt;70 -->
<g id="edge11" class="edge">
<title>52&#45;&gt;70</title>
<path fill="none" stroke="black" d="M332.3,-564.97C324.37,-551.21 312.79,-531.1 303.53,-515.02"/>
<polygon fill="black" stroke="black" points="306.62,-513.38 298.59,-506.46 300.55,-516.87 306.62,-513.38"/>
<text text-anchor="start" x="325.04" y="-532.2" font-family="Courier New" font-weight="bold" font-size="12.00" fill="blue">ADDI(BPARM20)</text>
</g>
<!-- 70&#45;&gt;10 -->
<g id="edge15" class="edge">
<title>70&#45;&gt;10</title>
<path fill="none" stroke="black" d="M287.06,-506.15C283.5,-554.2 277.09,-693.74 311.54,-802 316.91,-818.89 325.4,-836.82 332.79,-850.91"/>
<polygon fill="black" stroke="black" points="329.61,-852.39 337.44,-859.53 335.77,-849.07 329.61,-852.39"/>
<text text-anchor="start" x="295.04" y="-687.2" font-family="Courier New" font-weight="bold" font-size="12.00" fill="blue">Z_EPSILON()</text>
</g>
<!-- 71 -->
<g id="node13" class="node">
<title>71</title>
<ellipse fill="none" stroke="black" cx="342.54" cy="-394" rx="27" ry="18"/>
<text text-anchor="middle" x="342.54" y="-389.8" font-family="Times,serif" font-size="14.00">71</text>
</g>
<!-- 70&#45;&gt;71 -->
<g id="edge14" class="edge">
<title>70&#45;&gt;71</title>
<path fill="none" stroke="black" d="M297.94,-470.97C306.02,-457.21 317.83,-437.1 327.26,-421.02"/>
<polygon fill="black" stroke="black" points="330.25,-422.85 332.29,-412.46 324.21,-419.31 330.25,-422.85"/>
<text text-anchor="start" x="326.04" y="-438.2" font-family="Courier New" font-weight="bold" font-size="12.00" fill="blue">GTEi(BPARM20)</text>
</g>
<!-- 61&#45;&gt;70 -->
<g id="edge13" class="edge">
<title>61&#45;&gt;70</title>
<path fill="none" stroke="black" d="M143.01,-618.43C150.49,-603.11 163.07,-580.32 178.54,-564 201.66,-539.59 234.03,-518.71 257.66,-505.22"/>
<polygon fill="black" stroke="black" points="259.16,-508.39 266.2,-500.47 255.76,-502.27 259.16,-508.39"/>
<text text-anchor="start" x="182.54" y="-579.2" font-family="Courier New" font-weight="bold" font-size="12.00" fill="blue">ADDI(BPARM1)</text>
</g>
<!-- 72 -->
<g id="node14" class="node">
<title>72</title>
<ellipse fill="none" stroke="black" cx="371.54" cy="-300" rx="27" ry="18"/>
<text text-anchor="middle" x="371.54" y="-295.8" font-family="Times,serif" font-size="14.00">72</text>
</g>
<!-- 71&#45;&gt;72 -->
<g id="edge16" class="edge">
<title>71&#45;&gt;72</title>
<path fill="none" stroke="black" d="M347.85,-376.13C352.04,-362.85 357.96,-344.08 362.83,-328.62"/>
<polygon fill="black" stroke="black" points="366.03,-330.11 365.7,-319.52 359.35,-328.01 366.03,-330.11"/>
<text text-anchor="start" x="364.04" y="-344.2" font-family="Courier New" font-weight="bold" font-size="12.00" fill="blue">ADDI(BFRAME1)</text>
</g>
<!-- 72&#45;&gt;73 -->
<g id="edge17" class="edge">
<title>72&#45;&gt;73</title>
<path fill="none" stroke="black" d="M373.71,-281.77C376.19,-269.11 381.44,-252.37 392.54,-242 414.29,-221.65 447.28,-213.08 473,-209.49"/>
<polygon fill="black" stroke="black" points="473.22,-212.99 482.75,-208.35 472.41,-206.04 473.22,-212.99"/>
<text text-anchor="start" x="396.54" y="-250.2" font-family="Courier New" font-weight="bold" font-size="12.00" fill="blue">ASSIGN(BPARM0)</text>
</g>
<!-- 80 -->
<g id="node16" class="node">
<title>80</title>
<ellipse fill="none" stroke="black" cx="597.54" cy="-18" rx="27" ry="18"/>
<text text-anchor="middle" x="597.54" y="-13.8" font-family="Times,serif" font-size="14.00">80</text>
</g>
<!-- 74&#45;&gt;80 -->
<g id="edge20" class="edge">
<title>74&#45;&gt;80</title>
<path fill="none" stroke="black" d="M480.37,-94.15C477.04,-81.85 475.11,-65.4 483.54,-54 500.72,-30.75 533.06,-22.45 558.93,-19.71"/>
<polygon fill="black" stroke="black" points="559.07,-23.21 568.77,-18.93 558.52,-16.23 559.07,-23.21"/>
<text text-anchor="start" x="487.54" y="-62.2" font-family="Courier New" font-weight="bold" font-size="12.00" fill="blue">SIGNALi(SIG_OPENS25_SCAT_ALT)</text>
</g>
<!-- 80&#45;&gt;10 -->
<g id="edge21" class="edge">
<title>80&#45;&gt;10</title>
<path fill="none" stroke="black" d="M624.4,-21.17C647.55,-24.49 680.21,-32.86 699.54,-54 717.14,-73.25 713.54,-84.91 713.54,-111 713.54,-785 713.54,-785 713.54,-785 713.54,-851.99 479.97,-870.66 386.01,-875.46"/>
<polygon fill="black" stroke="black" points="386.08,-871.95 376.26,-875.93 386.41,-878.95 386.08,-871.95"/>
<text text-anchor="start" x="717.54" y="-438.2" font-family="Courier New" font-weight="bold" font-size="12.00" fill="blue">LOADVIEW(0IDV_WALL1EN)</text>
</g>
</g>
</svg>
