<?xml version="1.0" encoding="UTF-8" standalone="no"?>
<!DOCTYPE svg PUBLIC "-//W3C//DTD SVG 1.1//EN"
 "http://www.w3.org/Graphics/SVG/1.1/DTD/svg11.dtd">
<!-- Generated by graphviz version 7.1.0 (20230121.1956)
 -->
<!-- Title: Automaton Pages: 1 -->
<svg width="339pt" height="821pt"
 viewBox="0.00 0.00 339.00 821.00" xmlns="http://www.w3.org/2000/svg" xmlns:xlink="http://www.w3.org/1999/xlink">
<g id="graph0" class="graph" transform="scale(1 1) rotate(0) translate(4 817)">
<title>Automaton</title>
<polygon fill="white" stroke="none" points="-4,4 -4,-817 335,-817 335,4 -4,4"/>
<!-- filename -->
<g id="node1" class="node">
<title>filename</title>
<polygon fill="none" stroke="black" points="0,-760.5 0,-812.5 118,-812.5 118,-760.5 0,-760.5"/>
<polygon fill="none" stroke="black" points="11,-787.5 11,-805.5 107,-805.5 107,-787.5 11,-787.5"/>
<text text-anchor="start" x="25.99" y="-794.5" font-family="Courier New" font-weight="bold" font-size="10.00">M25_OPNDOOR</text>
<polygon fill="none" stroke="black" points="11,-767.5 11,-785.5 107,-785.5 107,-767.5 11,-767.5"/>
<text text-anchor="start" x="14" y="-773.5" font-family="Courier New" font-size="10.00" fill="brown">start state = 0</text>
<polygon fill="none" stroke="black" points="8,-764.5 8,-808.5 110,-808.5 110,-764.5 8,-764.5"/>
</g>
<!-- 0 -->
<g id="node2" class="node">
<title>0</title>
<polyline fill="none" stroke="darkred" points="156,-775.5 170,-775.5"/>
<text text-anchor="start" x="159" y="-782.9" font-family="Courier New" font-weight="bold" font-size="14.00">0</text>
<path fill="none" stroke="darkred" d="M159.67,-772.5C159.67,-772.5 166.33,-772.5 166.33,-772.5 169.67,-772.5 173,-775.83 173,-779.17 173,-779.17 173,-793.83 173,-793.83 173,-797.17 169.67,-800.5 166.33,-800.5 166.33,-800.5 159.67,-800.5 159.67,-800.5 156.33,-800.5 153,-797.17 153,-793.83 153,-793.83 153,-779.17 153,-779.17 153,-775.83 156.33,-772.5 159.67,-772.5"/>
</g>
<!-- 10 -->
<g id="node3" class="node">
<title>10</title>
<polyline fill="none" stroke="darkred" points="152,-675 174,-675"/>
<text text-anchor="start" x="155" y="-682.4" font-family="Courier New" font-weight="bold" font-size="14.00">10</text>
<path fill="none" stroke="darkred" d="M158.33,-672C158.33,-672 167.67,-672 167.67,-672 172.33,-672 177,-676.67 177,-681.33 177,-681.33 177,-690.67 177,-690.67 177,-695.33 172.33,-700 167.67,-700 167.67,-700 158.33,-700 158.33,-700 153.67,-700 149,-695.33 149,-690.67 149,-690.67 149,-681.33 149,-681.33 149,-676.67 153.67,-672 158.33,-672"/>
</g>
<!-- 0&#45;&gt;10 -->
<g id="edge1" class="edge">
<title>0&#45;&gt;10</title>
<path fill="none" stroke="black" d="M163,-768.79C163,-754.14 163,-732.55 163,-715.23"/>
<polygon fill="black" stroke="black" points="166.5,-715.3 163,-705.3 159.5,-715.3 166.5,-715.3"/>
<text text-anchor="start" x="167" y="-730" font-family="Courier New" font-weight="bold" font-size="10.00" fill="blue">C_ACCEPT(0,IDC_BOMB)</text>
</g>
<!-- 40 -->
<g id="node4" class="node">
<title>40</title>
<polyline fill="none" stroke="darkred" points="152,-583 174,-583"/>
<text text-anchor="start" x="155" y="-590.4" font-family="Courier New" font-weight="bold" font-size="14.00">40</text>
<path fill="none" stroke="darkred" d="M158.33,-580C158.33,-580 167.67,-580 167.67,-580 172.33,-580 177,-584.67 177,-589.33 177,-589.33 177,-598.67 177,-598.67 177,-603.33 172.33,-608 167.67,-608 167.67,-608 158.33,-608 158.33,-608 153.67,-608 149,-603.33 149,-598.67 149,-598.67 149,-589.33 149,-589.33 149,-584.67 153.67,-580 158.33,-580"/>
</g>
<!-- 10&#45;&gt;40 -->
<g id="edge2" class="edge">
<title>10&#45;&gt;40</title>
<path fill="none" stroke="black" d="M163,-668.07C163,-655.38 163,-637.71 163,-622.94"/>
<polygon fill="black" stroke="black" points="166.5,-623.37 163,-613.37 159.5,-623.37 166.5,-623.37"/>
<text text-anchor="start" x="167" y="-638" font-family="Courier New" font-weight="bold" font-size="10.00" fill="orange">DROP(0,0)</text>
</g>
<!-- 50 -->
<g id="node5" class="node">
<title>50</title>
<polyline fill="none" stroke="darkred" points="152,-491 174,-491"/>
<text text-anchor="start" x="155" y="-498.4" font-family="Courier New" font-weight="bold" font-size="14.00">50</text>
<path fill="none" stroke="darkred" d="M158.33,-488C158.33,-488 167.67,-488 167.67,-488 172.33,-488 177,-492.67 177,-497.33 177,-497.33 177,-506.67 177,-506.67 177,-511.33 172.33,-516 167.67,-516 167.67,-516 158.33,-516 158.33,-516 153.67,-516 149,-511.33 149,-506.67 149,-506.67 149,-497.33 149,-497.33 149,-492.67 153.67,-488 158.33,-488"/>
</g>
<!-- 40&#45;&gt;50 -->
<g id="edge3" class="edge">
<title>40&#45;&gt;50</title>
<path fill="none" stroke="black" d="M163,-576.07C163,-563.38 163,-545.71 163,-530.94"/>
<polygon fill="black" stroke="black" points="166.5,-531.37 163,-521.37 159.5,-531.37 166.5,-531.37"/>
<text text-anchor="start" x="167" y="-546" font-family="Courier New" font-weight="bold" font-size="10.00" fill="blue">Z_EPSILON(,)</text>
</g>
<!-- 51 -->
<g id="node6" class="node">
<title>51</title>
<polyline fill="none" stroke="darkred" points="152,-399 174,-399"/>
<text text-anchor="start" x="155" y="-406.4" font-family="Courier New" font-weight="bold" font-size="14.00">51</text>
<path fill="none" stroke="darkred" d="M158.33,-396C158.33,-396 167.67,-396 167.67,-396 172.33,-396 177,-400.67 177,-405.33 177,-405.33 177,-414.67 177,-414.67 177,-419.33 172.33,-424 167.67,-424 167.67,-424 158.33,-424 158.33,-424 153.67,-424 149,-419.33 149,-414.67 149,-414.67 149,-405.33 149,-405.33 149,-400.67 153.67,-396 158.33,-396"/>
</g>
<!-- 50&#45;&gt;51 -->
<g id="edge4" class="edge">
<title>50&#45;&gt;51</title>
<path fill="none" stroke="black" d="M163,-484.07C163,-471.38 163,-453.71 163,-438.94"/>
<polygon fill="black" stroke="black" points="166.5,-439.37 163,-429.37 159.5,-439.37 166.5,-439.37"/>
<text text-anchor="start" x="167" y="-454" font-family="Courier New" font-weight="bold" font-size="10.00" fill="blue">VIDEO(0,IDS_EXPLODE1)</text>
</g>
<!-- 52 -->
<g id="node7" class="node">
<title>52</title>
<polyline fill="none" stroke="darkred" points="152,-283 174,-283"/>
<text text-anchor="start" x="155" y="-290.4" font-family="Courier New" font-weight="bold" font-size="14.00">52</text>
<path fill="none" stroke="darkred" d="M158.33,-280C158.33,-280 167.67,-280 167.67,-280 172.33,-280 177,-284.67 177,-289.33 177,-289.33 177,-298.67 177,-298.67 177,-303.33 172.33,-308 167.67,-308 167.67,-308 158.33,-308 158.33,-308 153.67,-308 149,-303.33 149,-298.67 149,-298.67 149,-289.33 149,-289.33 149,-284.67 153.67,-280 158.33,-280"/>
</g>
<!-- 51&#45;&gt;52 -->
<g id="edge5" class="edge">
<title>51&#45;&gt;52</title>
<path fill="none" stroke="black" d="M163,-392.18C163,-374.08 163,-344.98 163,-323.33"/>
<polygon fill="black" stroke="black" points="166.5,-323.4 163,-313.4 159.5,-323.4 166.5,-323.4"/>
<polygon fill="none" stroke="black" points="166,-353 166,-371 328,-371 328,-353 166,-353"/>
<text text-anchor="start" x="171.99" y="-360" font-family="Courier New" font-weight="bold" font-size="10.00" fill="blue">PLAYWAVE(0,SOUND_EXPLODE)</text>
<polygon fill="none" stroke="black" points="166,-333 166,-351 328,-351 328,-333 166,-333"/>
<text text-anchor="start" x="169" y="-339" font-family="Courier New" font-size="10.00" fill="blue">SIGNAL(WIP3,SIG_COMPLETE);</text>
<polygon fill="none" stroke="black" points="163,-330 163,-374 331,-374 331,-330 163,-330"/>
</g>
<!-- 53 -->
<g id="node8" class="node">
<title>53</title>
<polyline fill="none" stroke="darkred" points="152,-191 174,-191"/>
<text text-anchor="start" x="155" y="-198.4" font-family="Courier New" font-weight="bold" font-size="14.00">53</text>
<path fill="none" stroke="darkred" d="M158.33,-188C158.33,-188 167.67,-188 167.67,-188 172.33,-188 177,-192.67 177,-197.33 177,-197.33 177,-206.67 177,-206.67 177,-211.33 172.33,-216 167.67,-216 167.67,-216 158.33,-216 158.33,-216 153.67,-216 149,-211.33 149,-206.67 149,-206.67 149,-197.33 149,-197.33 149,-192.67 153.67,-188 158.33,-188"/>
</g>
<!-- 52&#45;&gt;53 -->
<g id="edge6" class="edge">
<title>52&#45;&gt;53</title>
<path fill="none" stroke="black" d="M163,-276.07C163,-263.38 163,-245.71 163,-230.94"/>
<polygon fill="black" stroke="black" points="166.5,-231.37 163,-221.37 159.5,-231.37 166.5,-231.37"/>
<text text-anchor="start" x="167" y="-246" font-family="Courier New" font-weight="bold" font-size="10.00" fill="blue">MOV(WSPRITE,WIP1)</text>
</g>
<!-- 70 -->
<g id="node9" class="node">
<title>70</title>
<polyline fill="none" stroke="darkred" points="152,-99 174,-99"/>
<text text-anchor="start" x="155" y="-106.4" font-family="Courier New" font-weight="bold" font-size="14.00">70</text>
<path fill="none" stroke="darkred" d="M158.33,-96C158.33,-96 167.67,-96 167.67,-96 172.33,-96 177,-100.67 177,-105.33 177,-105.33 177,-114.67 177,-114.67 177,-119.33 172.33,-124 167.67,-124 167.67,-124 158.33,-124 158.33,-124 153.67,-124 149,-119.33 149,-114.67 149,-114.67 149,-105.33 149,-105.33 149,-100.67 153.67,-96 158.33,-96"/>
</g>
<!-- 53&#45;&gt;70 -->
<g id="edge7" class="edge">
<title>53&#45;&gt;70</title>
<path fill="none" stroke="black" d="M163,-184.07C163,-171.38 163,-153.71 163,-138.94"/>
<polygon fill="black" stroke="black" points="166.5,-139.37 163,-129.37 159.5,-139.37 166.5,-139.37"/>
<text text-anchor="start" x="167" y="-154" font-family="Courier New" font-weight="bold" font-size="10.00" fill="blue">SHOW(WSPRITE,)</text>
</g>
<!-- 71 -->
<g id="node10" class="node">
<title>71</title>
<polyline fill="none" stroke="darkred" points="152,-7 174,-7"/>
<text text-anchor="start" x="155" y="-14.4" font-family="Courier New" font-weight="bold" font-size="14.00">71</text>
<path fill="none" stroke="darkred" d="M158.33,-4C158.33,-4 167.67,-4 167.67,-4 172.33,-4 177,-8.67 177,-13.33 177,-13.33 177,-22.67 177,-22.67 177,-27.33 172.33,-32 167.67,-32 167.67,-32 158.33,-32 158.33,-32 153.67,-32 149,-27.33 149,-22.67 149,-22.67 149,-13.33 149,-13.33 149,-8.67 153.67,-4 158.33,-4"/>
</g>
<!-- 70&#45;&gt;71 -->
<g id="edge8" class="edge">
<title>70&#45;&gt;71</title>
<path fill="none" stroke="black" d="M136.31,-93.92C129.39,-88.59 122.82,-81.91 119,-74 115.14,-65.99 115.14,-62.01 119,-54 121.21,-49.43 124.33,-45.26 127.92,-41.54"/>
<polygon fill="black" stroke="black" points="130.02,-44.35 135.17,-35.09 125.37,-39.12 130.02,-44.35"/>
<text text-anchor="start" x="123" y="-62" font-family="Courier New" font-weight="bold" font-size="10.00" fill="orange">CLICK(0,0)</text>
</g>
<!-- 71&#45;&gt;70 -->
<g id="edge9" class="edge">
<title>71&#45;&gt;70</title>
<path fill="none" stroke="black" d="M177.46,-35.72C181.33,-41.18 184.99,-47.53 187,-54 189.63,-62.49 189.63,-65.51 187,-74 186.09,-76.93 184.84,-79.84 183.39,-82.65"/>
<polygon fill="black" stroke="black" points="180.51,-80.64 178.25,-90.99 186.47,-84.31 180.51,-80.64"/>
<text text-anchor="start" x="192" y="-62" font-family="Courier New" font-weight="bold" font-size="10.00" fill="blue">LOADVIEW(WIP2,)</text>
</g>
</g>
</svg>
