<?xml version="1.0" encoding="UTF-8" standalone="no"?>
<!DOCTYPE svg PUBLIC "-//W3C//DTD SVG 1.1//EN"
 "http://www.w3.org/Graphics/SVG/1.1/DTD/svg11.dtd">
<!-- Generated by graphviz version 7.1.0 (20230121.1956)
 -->
<!-- Pages: 1 -->
<svg width="1053pt" height="984pt"
 viewBox="0.00 0.00 1053.08 984.00" xmlns="http://www.w3.org/2000/svg" xmlns:xlink="http://www.w3.org/1999/xlink">
<g id="graph0" class="graph" transform="scale(1 1) rotate(0) translate(4 980)">
<polygon fill="white" stroke="none" points="-4,4 -4,-980 1049.08,-980 1049.08,4 -4,4"/>
<!-- 0 -->
<g id="node1" class="node">
<title>0</title>
<ellipse fill="none" stroke="black" cx="796.08" cy="-958" rx="27" ry="18"/>
<text text-anchor="middle" x="796.08" y="-953.8" font-family="Times,serif" font-size="14.00">0</text>
</g>
<!-- 1 -->
<g id="node2" class="node">
<title>1</title>
<ellipse fill="none" stroke="black" cx="677.08" cy="-864" rx="27" ry="18"/>
<text text-anchor="middle" x="677.08" y="-859.8" font-family="Times,serif" font-size="14.00">1</text>
</g>
<!-- 0&#45;&gt;1 -->
<g id="edge1" class="edge">
<title>0&#45;&gt;1</title>
<path fill="none" stroke="black" d="M778.78,-943.62C758.84,-928.2 725.86,-902.71 702.89,-884.95"/>
<polygon fill="black" stroke="black" points="705.27,-882.37 695.22,-879.02 700.99,-887.91 705.27,-882.37"/>
<text text-anchor="start" x="755.58" y="-908.2" font-family="Courier New" font-weight="bold" font-size="12.00" fill="blue">ASSIGN(BFRAME,1)</text>
</g>
<!-- 2 -->
<g id="node3" class="node">
<title>2</title>
<ellipse fill="none" stroke="black" cx="627.08" cy="-770" rx="27" ry="18"/>
<text text-anchor="middle" x="627.08" y="-765.8" font-family="Times,serif" font-size="14.00">2</text>
</g>
<!-- 1&#45;&gt;2 -->
<g id="edge2" class="edge">
<title>1&#45;&gt;2</title>
<path fill="none" stroke="black" d="M668.14,-846.55C660.68,-832.82 649.9,-812.98 641.26,-797.08"/>
<polygon fill="black" stroke="black" points="644.52,-795.75 636.67,-788.64 638.37,-799.09 644.52,-795.75"/>
<text text-anchor="start" x="662.58" y="-814.2" font-family="Courier New" font-weight="bold" font-size="12.00" fill="blue">ASSIGN(WSPRITE,IDS_RUMBLE)</text>
</g>
<!-- 3 -->
<g id="node5" class="node">
<title>3</title>
<ellipse fill="none" stroke="black" cx="436.08" cy="-676" rx="27" ry="18"/>
<text text-anchor="middle" x="436.08" y="-671.8" font-family="Times,serif" font-size="14.00">3</text>
</g>
<!-- 2&#45;&gt;3 -->
<g id="edge4" class="edge">
<title>2&#45;&gt;3</title>
<path fill="none" stroke="black" d="M605.54,-758.63C571.92,-742.43 506.79,-711.06 467.8,-692.28"/>
<polygon fill="black" stroke="black" points="469.43,-689.18 458.91,-687.99 466.4,-695.49 469.43,-689.18"/>
<text text-anchor="start" x="559.08" y="-720.2" font-family="Courier New" font-weight="bold" font-size="12.00" fill="blue">SHOW(WSPRITE,)</text>
</g>
<!-- 10 -->
<g id="node4" class="node">
<title>10</title>
<ellipse fill="none" stroke="black" cx="79.08" cy="-582" rx="27" ry="18"/>
<text text-anchor="middle" x="79.08" y="-577.8" font-family="Times,serif" font-size="14.00">10</text>
</g>
<!-- 10&#45;&gt;3 -->
<g id="edge3" class="edge">
<title>10&#45;&gt;3</title>
<path fill="none" stroke="black" d="M97.32,-595.54C121.18,-611.9 160.4,-638.62 164.08,-640 243.23,-669.73 343.44,-675.06 397.42,-675.53"/>
<polygon fill="black" stroke="black" points="397.32,-679.03 407.33,-675.56 397.34,-672.03 397.32,-679.03"/>
<text text-anchor="start" x="168.58" y="-626.2" font-family="Courier New" font-weight="bold" font-size="12.00" fill="blue">CLEAR(BPARM,)</text>
</g>
<!-- 3&#45;&gt;10 -->
<g id="edge9" class="edge">
<title>3&#45;&gt;10</title>
<path fill="none" stroke="black" d="M408.88,-674.88C318.51,-674.2 32.47,-669.7 5.08,-640 -11.63,-621.87 17.61,-605.17 44.12,-594.6"/>
<polygon fill="black" stroke="black" points="45.25,-597.91 53.38,-591.12 42.78,-591.36 45.25,-597.91"/>
<text text-anchor="start" x="9.58" y="-626.2" font-family="Courier New" font-weight="bold" font-size="12.00" fill="orange">WAIT(0,SIG_INIT)</text>
</g>
<!-- 20 -->
<g id="node6" class="node">
<title>20</title>
<ellipse fill="none" stroke="black" cx="356.08" cy="-582" rx="27" ry="18"/>
<text text-anchor="middle" x="356.08" y="-577.8" font-family="Times,serif" font-size="14.00">20</text>
</g>
<!-- 3&#45;&gt;20 -->
<g id="edge6" class="edge">
<title>3&#45;&gt;20</title>
<path fill="none" stroke="black" d="M408.97,-673.19C367.12,-669.78 289.86,-660.77 273.08,-640 255.98,-618.84 290.34,-602.34 319.92,-592.66"/>
<polygon fill="black" stroke="black" points="320.92,-596.01 329.46,-589.73 318.87,-589.32 320.92,-596.01"/>
<text text-anchor="start" x="277.58" y="-626.2" font-family="Courier New" font-weight="bold" font-size="12.00" fill="orange">DRAGFOCUS(0,FALSE)</text>
</g>
<!-- 40 -->
<g id="node7" class="node">
<title>40</title>
<ellipse fill="none" stroke="black" cx="568.08" cy="-582" rx="27" ry="18"/>
<text text-anchor="middle" x="568.08" y="-577.8" font-family="Times,serif" font-size="14.00">40</text>
</g>
<!-- 3&#45;&gt;40 -->
<g id="edge7" class="edge">
<title>3&#45;&gt;40</title>
<path fill="none" stroke="black" d="M462.01,-670.37C482.75,-665.6 511.64,-656.48 532.08,-640 541.99,-632.01 549.98,-620.52 555.89,-609.95"/>
<polygon fill="black" stroke="black" points="558.93,-611.68 560.4,-601.19 552.71,-608.48 558.93,-611.68"/>
<text text-anchor="start" x="555.08" y="-626.2" font-family="Courier New" font-weight="bold" font-size="12.00" fill="orange">DRAGFOCUS(0,TRUE)</text>
</g>
<!-- 30 -->
<g id="node8" class="node">
<title>30</title>
<ellipse fill="none" stroke="black" cx="713.08" cy="-582" rx="27" ry="18"/>
<text text-anchor="middle" x="713.08" y="-577.8" font-family="Times,serif" font-size="14.00">30</text>
</g>
<!-- 3&#45;&gt;30 -->
<g id="edge8" class="edge">
<title>3&#45;&gt;30</title>
<path fill="none" stroke="black" d="M463.25,-674.33C520.27,-672.43 650.08,-665.35 685.08,-640 694.76,-632.99 701.26,-621.7 705.54,-611.01"/>
<polygon fill="black" stroke="black" points="708.79,-612.32 708.74,-601.73 702.17,-610.04 708.79,-612.32"/>
<text text-anchor="start" x="706.58" y="-626.2" font-family="Courier New" font-weight="bold" font-size="12.00" fill="orange">DROP(0,IDD_TELEKINESIS)</text>
</g>
<!-- 20&#45;&gt;3 -->
<g id="edge5" class="edge">
<title>20&#45;&gt;3</title>
<path fill="none" stroke="black" d="M378.68,-592.27C390.58,-598.13 404.63,-606.74 414.08,-618 420.99,-626.24 425.88,-636.88 429.26,-646.74"/>
<polygon fill="black" stroke="black" points="425.91,-647.74 432.14,-656.31 432.61,-645.73 425.91,-647.74"/>
<text text-anchor="start" x="431.58" y="-626.2" font-family="Courier New" font-weight="bold" font-size="12.00" fill="blue">SUBI(BPARM,1)</text>
</g>
<!-- 50 -->
<g id="node9" class="node">
<title>50</title>
<ellipse fill="none" stroke="black" cx="713.08" cy="-488" rx="27" ry="18"/>
<text text-anchor="middle" x="713.08" y="-483.8" font-family="Times,serif" font-size="14.00">50</text>
</g>
<!-- 40&#45;&gt;50 -->
<g id="edge11" class="edge">
<title>40&#45;&gt;50</title>
<path fill="none" stroke="black" d="M576.05,-564.31C582.91,-551.6 593.93,-534.55 608.08,-524 627.94,-509.21 654.4,-500.44 675.8,-495.38"/>
<polygon fill="black" stroke="black" points="676.26,-498.86 685.29,-493.32 674.78,-492.02 676.26,-498.86"/>
<text text-anchor="start" x="612.58" y="-532.2" font-family="Courier New" font-weight="bold" font-size="12.00" fill="blue">ADDI(BPARM,1)</text>
</g>
<!-- 30&#45;&gt;50 -->
<g id="edge10" class="edge">
<title>30&#45;&gt;50</title>
<path fill="none" stroke="black" d="M713.08,-563.7C713.08,-550.72 713.08,-532.66 713.08,-517.56"/>
<polygon fill="black" stroke="black" points="716.58,-517.74 713.08,-507.74 709.58,-517.74 716.58,-517.74"/>
<text text-anchor="start" x="717.58" y="-532.2" font-family="Courier New" font-weight="bold" font-size="12.00" fill="blue">ADDI(BPARM,1)</text>
</g>
<!-- 50&#45;&gt;0 -->
<g id="edge13" class="edge">
<title>50&#45;&gt;0</title>
<path fill="none" stroke="black" d="M740.02,-490.11C792,-493.85 901.08,-510.14 901.08,-581 901.08,-865 901.08,-865 901.08,-865 901.08,-892.32 897.21,-902.49 878.08,-922 865.79,-934.54 848.28,-942.84 832.6,-948.2"/>
<polygon fill="black" stroke="black" points="831.58,-944.85 823.05,-951.15 833.64,-951.54 831.58,-944.85"/>
<text text-anchor="start" x="905.08" y="-720.2" font-family="Courier New" font-weight="bold" font-size="12.00" fill="blue">VIDEO(0,IDS_RUMBLE)</text>
</g>
<!-- 60 -->
<g id="node10" class="node">
<title>60</title>
<ellipse fill="none" stroke="black" cx="713.08" cy="-394" rx="27" ry="18"/>
<text text-anchor="middle" x="713.08" y="-389.8" font-family="Times,serif" font-size="14.00">60</text>
</g>
<!-- 50&#45;&gt;60 -->
<g id="edge12" class="edge">
<title>50&#45;&gt;60</title>
<path fill="none" stroke="black" d="M713.08,-469.7C713.08,-456.72 713.08,-438.66 713.08,-423.56"/>
<polygon fill="black" stroke="black" points="716.58,-423.74 713.08,-413.74 709.58,-423.74 716.58,-423.74"/>
<text text-anchor="start" x="717.08" y="-438.2" font-family="Courier New" font-weight="bold" font-size="12.00" fill="blue">GTi(BPARM,1)</text>
</g>
<!-- 61 -->
<g id="node11" class="node">
<title>61</title>
<ellipse fill="none" stroke="black" cx="713.08" cy="-300" rx="27" ry="18"/>
<text text-anchor="middle" x="713.08" y="-295.8" font-family="Times,serif" font-size="14.00">61</text>
</g>
<!-- 60&#45;&gt;61 -->
<g id="edge14" class="edge">
<title>60&#45;&gt;61</title>
<path fill="none" stroke="black" d="M713.08,-375.7C713.08,-362.72 713.08,-344.66 713.08,-329.56"/>
<polygon fill="black" stroke="black" points="716.58,-329.74 713.08,-319.74 709.58,-329.74 716.58,-329.74"/>
<text text-anchor="start" x="717.08" y="-344.2" font-family="Courier New" font-weight="bold" font-size="12.00" fill="blue">ASSIGN(WSPRITE,0)</text>
</g>
<!-- 62 -->
<g id="node12" class="node">
<title>62</title>
<ellipse fill="none" stroke="black" cx="713.08" cy="-206" rx="27" ry="18"/>
<text text-anchor="middle" x="713.08" y="-201.8" font-family="Times,serif" font-size="14.00">62</text>
</g>
<!-- 61&#45;&gt;62 -->
<g id="edge15" class="edge">
<title>61&#45;&gt;62</title>
<path fill="none" stroke="black" d="M713.08,-281.7C713.08,-268.72 713.08,-250.66 713.08,-235.56"/>
<polygon fill="black" stroke="black" points="716.58,-235.74 713.08,-225.74 709.58,-235.74 716.58,-235.74"/>
<text text-anchor="start" x="717.08" y="-250.2" font-family="Courier New" font-weight="bold" font-size="12.00" fill="blue">SHOW(WSPRITE,)</text>
</g>
<!-- 70 -->
<g id="node13" class="node">
<title>70</title>
<ellipse fill="none" stroke="black" cx="713.08" cy="-112" rx="27" ry="18"/>
<text text-anchor="middle" x="713.08" y="-107.8" font-family="Times,serif" font-size="14.00">70</text>
</g>
<!-- 62&#45;&gt;70 -->
<g id="edge16" class="edge">
<title>62&#45;&gt;70</title>
<path fill="none" stroke="black" d="M713.08,-187.7C713.08,-174.72 713.08,-156.66 713.08,-141.56"/>
<polygon fill="black" stroke="black" points="716.58,-141.74 713.08,-131.74 709.58,-141.74 716.58,-141.74"/>
<text text-anchor="start" x="717.58" y="-156.2" font-family="Courier New" font-weight="bold" font-size="12.00" fill="blue">SIGNALi(SIG_OPEN,S25_ROLL)</text>
</g>
<!-- 71 -->
<g id="node14" class="node">
<title>71</title>
<ellipse fill="none" stroke="black" cx="713.08" cy="-18" rx="27" ry="18"/>
<text text-anchor="middle" x="713.08" y="-13.8" font-family="Times,serif" font-size="14.00">71</text>
</g>
<!-- 70&#45;&gt;71 -->
<g id="edge17" class="edge">
<title>70&#45;&gt;71</title>
<path fill="none" stroke="black" d="M690.71,-101.41C680.31,-95.67 668.95,-87.28 663.08,-76 658.57,-67.33 658.57,-62.67 663.08,-54 667.21,-46.07 674.05,-39.57 681.36,-34.41"/>
<polygon fill="black" stroke="black" points="682.79,-37.64 689.43,-29.39 679.09,-31.7 682.79,-37.64"/>
<text text-anchor="start" x="667.08" y="-62.2" font-family="Courier New" font-weight="bold" font-size="12.00" fill="orange">CLICK(0,0)</text>
</g>
<!-- 71&#45;&gt;70 -->
<g id="edge18" class="edge">
<title>71&#45;&gt;70</title>
<path fill="none" stroke="black" d="M728.88,-32.77C734.49,-38.68 740.14,-46.04 743.08,-54 746.47,-63.17 746.47,-66.83 743.08,-76 741.43,-80.48 738.91,-84.76 736.04,-88.71"/>
<polygon fill="black" stroke="black" points="733.61,-86.16 729.85,-96.07 738.97,-90.66 733.61,-86.16"/>
<text text-anchor="start" x="750.58" y="-62.2" font-family="Courier New" font-weight="bold" font-size="12.00" fill="blue">LOADVIEW(0,IDV_WALL2EN)</text>
</g>
</g>
</svg>
