<?xml version="1.0" encoding="UTF-8" standalone="no"?>
<!DOCTYPE svg PUBLIC "-//W3C//DTD SVG 1.1//EN"
 "http://www.w3.org/Graphics/SVG/1.1/DTD/svg11.dtd">
<!-- Generated by graphviz version 7.1.0 (20230121.1956)
 -->
<!-- Pages: 1 -->
<svg width="809pt" height="1256pt"
 viewBox="0.00 0.00 809.09 1256.00" xmlns="http://www.w3.org/2000/svg" xmlns:xlink="http://www.w3.org/1999/xlink">
<g id="graph0" class="graph" transform="scale(1 1) rotate(0) translate(4 1252)">
<polygon fill="white" stroke="none" points="-4,4 -4,-1252 805.09,-1252 805.09,4 -4,4"/>
<!-- 0 -->
<g id="node1" class="node">
<title>0</title>
<ellipse fill="none" stroke="black" cx="319.09" cy="-1230" rx="27" ry="18"/>
<text text-anchor="middle" x="319.09" y="-1225.8" font-family="Times,serif" font-size="14.00">0</text>
</g>
<!-- 2 -->
<g id="node2" class="node">
<title>2</title>
<ellipse fill="none" stroke="black" cx="319.09" cy="-1138" rx="27" ry="18"/>
<text text-anchor="middle" x="319.09" y="-1133.8" font-family="Times,serif" font-size="14.00">2</text>
</g>
<!-- 0&#45;&gt;2 -->
<g id="edge1" class="edge">
<title>0&#45;&gt;2</title>
<path fill="none" stroke="black" d="M319.09,-1211.65C319.09,-1199.2 319.09,-1182.14 319.09,-1167.68"/>
<polygon fill="black" stroke="black" points="322.59,-1167.81 319.09,-1157.81 315.59,-1167.81 322.59,-1167.81"/>
<text text-anchor="start" x="323.09" y="-1182" font-family="Courier New" font-weight="bold" font-size="10.00" fill="blue">MOV(BFRAME,0)</text>
</g>
<!-- 3 -->
<g id="node3" class="node">
<title>3</title>
<ellipse fill="none" stroke="black" cx="319.09" cy="-1046" rx="27" ry="18"/>
<text text-anchor="middle" x="319.09" y="-1041.8" font-family="Times,serif" font-size="14.00">3</text>
</g>
<!-- 2&#45;&gt;3 -->
<g id="edge2" class="edge">
<title>2&#45;&gt;3</title>
<path fill="none" stroke="black" d="M319.09,-1119.65C319.09,-1107.2 319.09,-1090.14 319.09,-1075.68"/>
<polygon fill="black" stroke="black" points="322.59,-1075.81 319.09,-1065.81 315.59,-1075.81 322.59,-1075.81"/>
<text text-anchor="start" x="323.09" y="-1090" font-family="Courier New" font-weight="bold" font-size="10.00" fill="blue">ASSIGN(WSPRITE,IDS_SCATTER)</text>
</g>
<!-- 4 -->
<g id="node4" class="node">
<title>4</title>
<ellipse fill="none" stroke="black" cx="319.09" cy="-954" rx="27" ry="18"/>
<text text-anchor="middle" x="319.09" y="-949.8" font-family="Times,serif" font-size="14.00">4</text>
</g>
<!-- 3&#45;&gt;4 -->
<g id="edge3" class="edge">
<title>3&#45;&gt;4</title>
<path fill="none" stroke="black" d="M319.09,-1027.65C319.09,-1015.2 319.09,-998.14 319.09,-983.68"/>
<polygon fill="black" stroke="black" points="322.59,-983.81 319.09,-973.81 315.59,-983.81 322.59,-983.81"/>
<text text-anchor="start" x="323.09" y="-998" font-family="Courier New" font-weight="bold" font-size="10.00" fill="blue">SHOW(WSPRITE,)</text>
</g>
<!-- 10 -->
<g id="node5" class="node">
<title>10</title>
<ellipse fill="none" stroke="black" cx="319.09" cy="-862" rx="27" ry="18"/>
<text text-anchor="middle" x="319.09" y="-857.8" font-family="Times,serif" font-size="14.00">10</text>
</g>
<!-- 4&#45;&gt;10 -->
<g id="edge4" class="edge">
<title>4&#45;&gt;10</title>
<path fill="none" stroke="black" d="M319.09,-935.65C319.09,-923.2 319.09,-906.14 319.09,-891.68"/>
<polygon fill="black" stroke="black" points="322.59,-891.81 319.09,-881.81 315.59,-891.81 322.59,-891.81"/>
<text text-anchor="start" x="323.09" y="-906" font-family="Courier New" font-weight="bold" font-size="10.00" fill="blue">C_ACCEPT(0,IDC_BOMB)</text>
</g>
<!-- 73 -->
<g id="node6" class="node">
<title>73</title>
<ellipse fill="none" stroke="black" cx="466.09" cy="-202" rx="27" ry="18"/>
<text text-anchor="middle" x="466.09" y="-197.8" font-family="Times,serif" font-size="14.00">73</text>
</g>
<!-- 10&#45;&gt;73 -->
<g id="edge5" class="edge">
<title>10&#45;&gt;73</title>
<path fill="none" stroke="black" d="M345.58,-857.31C410.28,-847.54 571.09,-818.5 571.09,-771 571.09,-771 571.09,-771 571.09,-293 571.09,-254.88 530.7,-229.42 500.02,-215.59"/>
<polygon fill="black" stroke="black" points="501.62,-212.46 491.05,-211.77 498.88,-218.91 501.62,-212.46"/>
<text text-anchor="start" x="575.09" y="-522" font-family="Courier New" font-weight="bold" font-size="10.00" fill="orange">CLICK(0,0)</text>
</g>
<!-- 60 -->
<g id="node7" class="node">
<title>60</title>
<ellipse fill="none" stroke="black" cx="114.09" cy="-770" rx="27" ry="18"/>
<text text-anchor="middle" x="114.09" y="-765.8" font-family="Times,serif" font-size="14.00">60</text>
</g>
<!-- 10&#45;&gt;60 -->
<g id="edge6" class="edge">
<title>10&#45;&gt;60</title>
<path fill="none" stroke="black" d="M291.94,-859.99C219.36,-857.03 25.02,-847.17 6.09,-826 -17.53,-799.59 36.65,-784.13 76.5,-776.64"/>
<polygon fill="black" stroke="black" points="77.06,-780.09 86.3,-774.91 75.84,-773.2 77.06,-780.09"/>
<text text-anchor="start" x="10.09" y="-814" font-family="Courier New" font-weight="bold" font-size="10.00" fill="orange">DRAG(0,IDD_PICK)</text>
</g>
<!-- 10&#45;&gt;60 -->
<g id="edge7" class="edge">
<title>10&#45;&gt;60</title>
<path fill="none" stroke="black" d="M292.01,-859.2C246.3,-855.65 156.54,-846.24 133.09,-826 125.29,-819.26 120.69,-809.16 117.97,-799.44"/>
<polygon fill="black" stroke="black" points="121.45,-798.94 115.9,-789.91 114.61,-800.42 121.45,-798.94"/>
<text text-anchor="start" x="137.09" y="-814" font-family="Courier New" font-weight="bold" font-size="10.00" fill="orange">DRAG(0,IDD_SHOVEL)</text>
</g>
<!-- 50 -->
<g id="node8" class="node">
<title>50</title>
<ellipse fill="none" stroke="black" cx="319.09" cy="-770" rx="27" ry="18"/>
<text text-anchor="middle" x="319.09" y="-765.8" font-family="Times,serif" font-size="14.00">50</text>
</g>
<!-- 10&#45;&gt;50 -->
<g id="edge8" class="edge">
<title>10&#45;&gt;50</title>
<path fill="none" stroke="black" d="M319.09,-843.65C319.09,-831.2 319.09,-814.14 319.09,-799.68"/>
<polygon fill="black" stroke="black" points="322.59,-799.81 319.09,-789.81 315.59,-799.81 322.59,-799.81"/>
<text text-anchor="start" x="323.09" y="-814" font-family="Courier New" font-weight="bold" font-size="10.00" fill="orange">DROP(0,0)</text>
</g>
<!-- 73&#45;&gt;10 -->
<g id="edge19" class="edge">
<title>73&#45;&gt;10</title>
<path fill="none" stroke="black" d="M466.7,-220.25C467.29,-238.37 468.09,-267.68 468.09,-293 468.09,-771 468.09,-771 468.09,-771 468.09,-823.02 400.74,-845.77 356.6,-855.1"/>
<polygon fill="black" stroke="black" points="356.02,-851.65 346.87,-857 357.36,-858.52 356.02,-851.65"/>
<text text-anchor="start" x="472.09" y="-522" font-family="Courier New" font-weight="bold" font-size="10.00" fill="blue">Z_EPSILON(,)</text>
</g>
<!-- 74 -->
<g id="node15" class="node">
<title>74</title>
<ellipse fill="none" stroke="black" cx="454.09" cy="-110" rx="27" ry="18"/>
<text text-anchor="middle" x="454.09" y="-105.8" font-family="Times,serif" font-size="14.00">74</text>
</g>
<!-- 73&#45;&gt;74 -->
<g id="edge18" class="edge">
<title>73&#45;&gt;74</title>
<path fill="none" stroke="black" d="M463.78,-183.65C462.12,-171.2 459.84,-154.14 457.92,-139.68"/>
<polygon fill="black" stroke="black" points="461.39,-139.25 456.6,-129.8 454.45,-140.17 461.39,-139.25"/>
<text text-anchor="start" x="465.09" y="-154" font-family="Courier New" font-weight="bold" font-size="10.00" fill="blue">GTEi(BFRAME,10)</text>
</g>
<!-- 61 -->
<g id="node12" class="node">
<title>61</title>
<ellipse fill="none" stroke="black" cx="124.09" cy="-624" rx="27" ry="18"/>
<text text-anchor="middle" x="124.09" y="-619.8" font-family="Times,serif" font-size="14.00">61</text>
</g>
<!-- 60&#45;&gt;61 -->
<g id="edge12" class="edge">
<title>60&#45;&gt;61</title>
<path fill="none" stroke="black" d="M114.04,-751.65C114.1,-740.81 114.34,-726.58 115.09,-714 116.29,-693.82 118.6,-671.15 120.58,-653.74"/>
<polygon fill="black" stroke="black" points="124.05,-654.2 121.73,-643.86 117.09,-653.39 124.05,-654.2"/>
<text text-anchor="start" x="119.09" y="-722" font-family="Courier New" font-weight="bold" font-size="10.00" fill="blue">PLAYWAVE(0,SOUND_POP)</text>
</g>
<!-- 51 -->
<g id="node9" class="node">
<title>51</title>
<ellipse fill="none" stroke="black" cx="387.09" cy="-678" rx="27" ry="18"/>
<text text-anchor="middle" x="387.09" y="-673.8" font-family="Times,serif" font-size="14.00">51</text>
</g>
<!-- 50&#45;&gt;51 -->
<g id="edge9" class="edge">
<title>50&#45;&gt;51</title>
<path fill="none" stroke="black" d="M315.12,-751.86C313.41,-740.32 313.16,-725.21 320.09,-714 324.2,-707.35 338.99,-699.32 353.63,-692.62"/>
<polygon fill="black" stroke="black" points="354.97,-695.85 362.72,-688.63 352.16,-689.44 354.97,-695.85"/>
<text text-anchor="start" x="324.09" y="-722" font-family="Courier New" font-weight="bold" font-size="10.00" fill="blue">VIDEO(0,IDS_EXPLODE1)</text>
</g>
<!-- 52 -->
<g id="node10" class="node">
<title>52</title>
<ellipse fill="none" stroke="black" cx="317.09" cy="-570" rx="27" ry="18"/>
<text text-anchor="middle" x="317.09" y="-565.8" font-family="Times,serif" font-size="14.00">52</text>
</g>
<!-- 51&#45;&gt;52 -->
<g id="edge10" class="edge">
<title>51&#45;&gt;52</title>
<path fill="none" stroke="black" d="M364.61,-667.45C358.62,-664.97 352.13,-662.34 346.09,-660 324.07,-651.47 309.67,-661.32 296.09,-642 286.64,-628.54 291.88,-610.8 299.49,-596.42"/>
<polygon fill="black" stroke="black" points="302.42,-598.34 304.5,-587.96 296.39,-594.78 302.42,-598.34"/>
<text text-anchor="start" x="300.09" y="-622" font-family="Courier New" font-weight="bold" font-size="10.00" fill="blue">PLAYWAVE(0,SOUND_EXPLODE)</text>
</g>
<!-- 70 -->
<g id="node11" class="node">
<title>70</title>
<ellipse fill="none" stroke="black" cx="263.09" cy="-478" rx="27" ry="18"/>
<text text-anchor="middle" x="263.09" y="-473.8" font-family="Times,serif" font-size="14.00">70</text>
</g>
<!-- 52&#45;&gt;70 -->
<g id="edge11" class="edge">
<title>52&#45;&gt;70</title>
<path fill="none" stroke="black" d="M307.44,-552.91C299.42,-539.55 287.88,-520.31 278.57,-504.8"/>
<polygon fill="black" stroke="black" points="281.77,-503.33 273.62,-496.55 275.77,-506.93 281.77,-503.33"/>
<text text-anchor="start" x="298.09" y="-522" font-family="Courier New" font-weight="bold" font-size="10.00" fill="blue">ADDI(BPARM,20)</text>
</g>
<!-- 70&#45;&gt;10 -->
<g id="edge15" class="edge">
<title>70&#45;&gt;10</title>
<path fill="none" stroke="black" d="M261.52,-496.23C257.74,-543.88 250.7,-680.98 283.09,-788 288,-804.22 296.21,-821.27 303.55,-834.8"/>
<polygon fill="black" stroke="black" points="300.49,-836.49 308.44,-843.5 306.6,-833.07 300.49,-836.49"/>
<text text-anchor="start" x="268.09" y="-676" font-family="Courier New" font-weight="bold" font-size="10.00" fill="blue">Z_EPSILON(,)</text>
</g>
<!-- 71 -->
<g id="node13" class="node">
<title>71</title>
<ellipse fill="none" stroke="black" cx="311.09" cy="-386" rx="27" ry="18"/>
<text text-anchor="middle" x="311.09" y="-381.8" font-family="Times,serif" font-size="14.00">71</text>
</g>
<!-- 70&#45;&gt;71 -->
<g id="edge14" class="edge">
<title>70&#45;&gt;71</title>
<path fill="none" stroke="black" d="M271.9,-460.49C278.93,-447.3 288.93,-428.55 297.07,-413.3"/>
<polygon fill="black" stroke="black" points="300.01,-415.21 301.63,-404.74 293.84,-411.91 300.01,-415.21"/>
<text text-anchor="start" x="295.09" y="-430" font-family="Courier New" font-weight="bold" font-size="10.00" fill="blue">GTEi(BPARM,20)</text>
</g>
<!-- 61&#45;&gt;70 -->
<g id="edge13" class="edge">
<title>61&#45;&gt;70</title>
<path fill="none" stroke="black" d="M130.51,-606.19C136.91,-590.9 147.83,-568.32 162.09,-552 182.25,-528.93 211,-509.05 232.68,-495.89"/>
<polygon fill="black" stroke="black" points="234.25,-499.03 241.08,-490.93 230.69,-493 234.25,-499.03"/>
<text text-anchor="start" x="166.09" y="-568" font-family="Courier New" font-weight="bold" font-size="10.00" fill="blue">ADDI(BPARM,1)</text>
</g>
<!-- 72 -->
<g id="node14" class="node">
<title>72</title>
<ellipse fill="none" stroke="black" cx="346.09" cy="-294" rx="27" ry="18"/>
<text text-anchor="middle" x="346.09" y="-289.8" font-family="Times,serif" font-size="14.00">72</text>
</g>
<!-- 71&#45;&gt;72 -->
<g id="edge16" class="edge">
<title>71&#45;&gt;72</title>
<path fill="none" stroke="black" d="M317.68,-368.07C322.66,-355.25 329.62,-337.36 335.4,-322.5"/>
<polygon fill="black" stroke="black" points="338.63,-323.85 338.99,-313.26 332.1,-321.31 338.63,-323.85"/>
<text text-anchor="start" x="335.09" y="-338" font-family="Courier New" font-weight="bold" font-size="10.00" fill="blue">ADDI(BFRAME,1)</text>
</g>
<!-- 72&#45;&gt;73 -->
<g id="edge17" class="edge">
<title>72&#45;&gt;73</title>
<path fill="none" stroke="black" d="M344.86,-275.64C344.97,-263.7 347.12,-248.2 356.09,-238 373.95,-217.69 403.54,-209.07 427.53,-205.46"/>
<polygon fill="black" stroke="black" points="427.79,-208.95 437.28,-204.24 426.93,-202 427.79,-208.95"/>
<text text-anchor="start" x="360.09" y="-246" font-family="Courier New" font-weight="bold" font-size="10.00" fill="blue">ASSIGN(BPARM,0)</text>
</g>
<!-- 80 -->
<g id="node16" class="node">
<title>80</title>
<ellipse fill="none" stroke="black" cx="553.09" cy="-18" rx="27" ry="18"/>
<text text-anchor="middle" x="553.09" y="-13.8" font-family="Times,serif" font-size="14.00">80</text>
</g>
<!-- 74&#45;&gt;80 -->
<g id="edge20" class="edge">
<title>74&#45;&gt;80</title>
<path fill="none" stroke="black" d="M448.9,-92.07C446.38,-80.33 445.36,-64.9 453.09,-54 466.99,-34.42 492.71,-25.7 514.59,-21.87"/>
<polygon fill="black" stroke="black" points="515.03,-25.34 524.42,-20.45 514.03,-18.41 515.03,-25.34"/>
<text text-anchor="start" x="457.09" y="-62" font-family="Courier New" font-weight="bold" font-size="10.00" fill="blue">SIGNALi(SIG_OPEN,S25_SCAT_ALT)</text>
</g>
<!-- 80&#45;&gt;10 -->
<g id="edge21" class="edge">
<title>80&#45;&gt;10</title>
<path fill="none" stroke="black" d="M579.5,-22.93C599.22,-27.24 625.36,-36.09 641.09,-54 657.74,-72.95 655.09,-83.78 655.09,-109 655.09,-771 655.09,-771 655.09,-771 655.09,-831.98 445.96,-852.76 357.68,-858.81"/>
<polygon fill="black" stroke="black" points="357.56,-855.31 347.81,-859.46 358.02,-862.3 357.56,-855.31"/>
<text text-anchor="start" x="659.09" y="-430" font-family="Courier New" font-weight="bold" font-size="10.00" fill="blue">LOADVIEW(0,IDV_WALL1EN)</text>
</g>
</g>
</svg>
