<?xml version="1.0" encoding="UTF-8" standalone="no"?>
<!DOCTYPE svg PUBLIC "-//W3C//DTD SVG 1.1//EN"
 "http://www.w3.org/Graphics/SVG/1.1/DTD/svg11.dtd">
<!-- Generated by graphviz version 7.1.0 (20230121.1956)
 -->
<!-- Pages: 1 -->
<svg width="320pt" height="320pt"
 viewBox="0.00 0.00 319.88 320.00" xmlns="http://www.w3.org/2000/svg" xmlns:xlink="http://www.w3.org/1999/xlink">
<g id="graph0" class="graph" transform="scale(1 1) rotate(0) translate(4 316)">
<polygon fill="white" stroke="none" points="-4,4 -4,-316 315.88,-316 315.88,4 -4,4"/>
<!-- 0 -->
<g id="node1" class="node">
<title>0</title>
<ellipse fill="none" stroke="black" cx="162.88" cy="-294" rx="27" ry="18"/>
<text text-anchor="middle" x="162.88" y="-289.8" font-family="Times,serif" font-size="14.00">0</text>
</g>
<!-- 1 -->
<g id="node2" class="node">
<title>1</title>
<ellipse fill="none" stroke="black" cx="77.88" cy="-202" rx="27" ry="18"/>
<text text-anchor="middle" x="77.88" y="-197.8" font-family="Times,serif" font-size="14.00">1</text>
</g>
<!-- 0&#45;&gt;1 -->
<g id="edge1" class="edge">
<title>0&#45;&gt;1</title>
<path fill="none" stroke="black" d="M140.83,-283.12C129.32,-277.12 115.65,-268.58 105.88,-258 98.49,-249.99 92.55,-239.66 88.07,-230.13"/>
<polygon fill="black" stroke="black" points="91.42,-229.04 84.25,-221.25 84.99,-231.81 91.42,-229.04"/>
<text text-anchor="start" x="109.88" y="-246" font-family="Courier New" font-weight="bold" font-size="10.00" fill="orange">WAIT(0,SIG_OPEN)</text>
</g>
<!-- 2 -->
<g id="node3" class="node">
<title>2</title>
<ellipse fill="none" stroke="black" cx="52.88" cy="-110" rx="27" ry="18"/>
<text text-anchor="middle" x="52.88" y="-105.8" font-family="Times,serif" font-size="14.00">2</text>
</g>
<!-- 1&#45;&gt;2 -->
<g id="edge2" class="edge">
<title>1&#45;&gt;2</title>
<path fill="none" stroke="black" d="M73.18,-184.07C69.67,-171.46 64.81,-153.94 60.72,-139.22"/>
<polygon fill="black" stroke="black" points="64.1,-138.32 58.05,-129.62 57.35,-140.19 64.1,-138.32"/>
<text text-anchor="start" x="71.88" y="-154" font-family="Courier New" font-weight="bold" font-size="10.00" fill="blue">SHOW(,IDS_ROLL)</text>
</g>
<!-- 3 -->
<g id="node4" class="node">
<title>3</title>
<ellipse fill="none" stroke="black" cx="112.88" cy="-18" rx="27" ry="18"/>
<text text-anchor="middle" x="112.88" y="-13.8" font-family="Times,serif" font-size="14.00">3</text>
</g>
<!-- 2&#45;&gt;3 -->
<g id="edge3" class="edge">
<title>2&#45;&gt;3</title>
<path fill="none" stroke="black" d="M31.94,-98.37C13.7,-87.67 -8.1,-70.43 3.88,-54 19.95,-31.96 50.13,-23.49 74.66,-20.38"/>
<polygon fill="black" stroke="black" points="74.7,-23.89 84.3,-19.42 74.01,-16.93 74.7,-23.89"/>
<text text-anchor="start" x="7.88" y="-62" font-family="Courier New" font-weight="bold" font-size="10.00" fill="blue">SIGNALi(SIG_OPEN,S25_RUMROLL_ALT)</text>
</g>
<!-- 3&#45;&gt;0 -->
<g id="edge4" class="edge">
<title>3&#45;&gt;0</title>
<path fill="none" stroke="black" d="M139.71,-20.55C162.56,-23.46 194.14,-31.58 209.88,-54 261.99,-128.2 250.56,-176.97 209.88,-258 206.18,-265.38 200.1,-271.59 193.53,-276.64"/>
<polygon fill="black" stroke="black" points="192,-273.45 185.68,-281.96 195.93,-279.24 192,-273.45"/>
<text text-anchor="start" x="247.88" y="-154" font-family="Courier New" font-weight="bold" font-size="10.00" fill="blue">ANIMATE(,)</text>
</g>
</g>
</svg>
