<?xml version="1.0" encoding="UTF-8" standalone="no"?>
<!DOCTYPE svg PUBLIC "-//W3C//DTD SVG 1.1//EN"
 "http://www.w3.org/Graphics/SVG/1.1/DTD/svg11.dtd">
<!-- Generated by graphviz version 7.1.0 (20230121.1956)
 -->
<!-- Pages: 1 -->
<svg width="3592pt" height="138pt"
 viewBox="0.00 0.00 3592.13 138.00" xmlns="http://www.w3.org/2000/svg" xmlns:xlink="http://www.w3.org/1999/xlink">
<g id="graph0" class="graph" transform="scale(1 1) rotate(0) translate(4 134)">
<polygon fill="white" stroke="none" points="-4,4 -4,-134 3588.13,-134 3588.13,4 -4,4"/>
<!-- 0 -->
<g id="node1" class="node">
<title>0</title>
<ellipse fill="none" stroke="black" cx="1600.13" cy="-112" rx="27" ry="18"/>
<text text-anchor="middle" x="1600.13" y="-107.8" font-family="Times,serif" font-size="14.00">0</text>
</g>
<!-- 1 -->
<g id="node2" class="node">
<title>1</title>
<ellipse fill="none" stroke="black" cx="1600.13" cy="-18" rx="27" ry="18"/>
<text text-anchor="middle" x="1600.13" y="-13.8" font-family="Times,serif" font-size="14.00">1</text>
</g>
<!-- 0&#45;&gt;1 -->
<g id="edge1" class="edge">
<title>0&#45;&gt;1</title>
<path fill="none" stroke="black" d="M1572.97,-110.93C1365.11,-110.31 33.7,-105.2 5.13,-76 -1.71,-69.01 -1.71,-60.99 5.13,-54 33.22,-25.28 1321.26,-19.87 1561.7,-19.11"/>
<polygon fill="black" stroke="black" points="1561.46,-22.61 1571.45,-19.08 1561.44,-15.61 1561.46,-22.61"/>
<text text-anchor="start" x="9.13" y="-62.2" font-family="Courier New" font-weight="bold" font-size="12.00" fill="orange">CLICK(0,0)</text>
</g>
<!-- 0&#45;&gt;1 -->
<g id="edge2" class="edge">
<title>0&#45;&gt;1</title>
<path fill="none" stroke="black" d="M1572.84,-110.88C1372.38,-109.97 134.75,-103.25 108.13,-76 101.3,-69.01 101.3,-60.99 108.13,-54 134.29,-27.21 1330.43,-20.26 1561.66,-19.17"/>
<polygon fill="black" stroke="black" points="1561.34,-22.67 1571.32,-19.12 1561.31,-15.67 1561.34,-22.67"/>
<text text-anchor="start" x="112.13" y="-62.2" font-family="Courier New" font-weight="bold" font-size="12.00" fill="orange">CLICK(0,0)</text>
</g>
<!-- 0&#45;&gt;1 -->
<g id="edge3" class="edge">
<title>0&#45;&gt;1</title>
<path fill="none" stroke="black" d="M1572.9,-110.84C1380.76,-109.62 235.81,-101.31 211.13,-76 204.3,-69 204.3,-61 211.13,-54 235.36,-29.15 1339.76,-20.69 1561.57,-19.24"/>
<polygon fill="black" stroke="black" points="1561.41,-22.74 1571.39,-19.17 1561.37,-15.74 1561.41,-22.74"/>
<text text-anchor="start" x="215.13" y="-62.2" font-family="Courier New" font-weight="bold" font-size="12.00" fill="orange">CLICK(0,0)</text>
</g>
<!-- 0&#45;&gt;1 -->
<g id="edge4" class="edge">
<title>0&#45;&gt;1</title>
<path fill="none" stroke="black" d="M1572.89,-110.78C1389.13,-109.23 336.87,-99.37 314.13,-76 307.31,-68.99 307.31,-61.01 314.13,-54 336.44,-31.07 1349.43,-21.15 1561.46,-19.32"/>
<polygon fill="black" stroke="black" points="1561.41,-22.82 1571.38,-19.23 1561.35,-15.82 1561.41,-22.82"/>
<text text-anchor="start" x="318.13" y="-62.2" font-family="Courier New" font-weight="bold" font-size="12.00" fill="orange">CLICK(0,0)</text>
</g>
<!-- 0&#45;&gt;1 -->
<g id="edge5" class="edge">
<title>0&#45;&gt;1</title>
<path fill="none" stroke="black" d="M1572.86,-110.71C1397.76,-108.81 437.94,-97.43 417.13,-76 410.32,-68.98 410.32,-61.02 417.13,-54 437.52,-33 1359.7,-21.65 1561.41,-19.41"/>
<polygon fill="black" stroke="black" points="1561.39,-22.91 1571.35,-19.3 1561.31,-15.91 1561.39,-22.91"/>
<text text-anchor="start" x="421.13" y="-62.2" font-family="Courier New" font-weight="bold" font-size="12.00" fill="orange">CLICK(0,0)</text>
</g>
<!-- 0&#45;&gt;1 -->
<g id="edge6" class="edge">
<title>0&#45;&gt;1</title>
<path fill="none" stroke="black" d="M1572.85,-111.17C1408.69,-112.09 557.85,-114.96 520.13,-76 513.33,-68.97 513.33,-61.03 520.13,-54 557.05,-15.86 1373.32,-17.81 1561.62,-18.77"/>
<polygon fill="black" stroke="black" points="1561.32,-22.26 1571.34,-18.82 1561.36,-15.26 1561.32,-22.26"/>
<text text-anchor="start" x="524.13" y="-62.2" font-family="Courier New" font-weight="bold" font-size="12.00" fill="orange">CLICK(0,0)</text>
</g>
<!-- 0&#45;&gt;1 -->
<g id="edge7" class="edge">
<title>0&#45;&gt;1</title>
<path fill="none" stroke="black" d="M1572.74,-111.08C1417.81,-111.38 656.99,-111.1 623.13,-76 616.34,-68.96 616.34,-61.04 623.13,-54 656.23,-19.69 1384,-18.65 1561.4,-18.9"/>
<polygon fill="black" stroke="black" points="1561.22,-22.4 1571.22,-18.92 1561.23,-15.4 1561.22,-22.4"/>
<text text-anchor="start" x="627.13" y="-62.2" font-family="Courier New" font-weight="bold" font-size="12.00" fill="orange">CLICK(0,0)</text>
</g>
<!-- 0&#45;&gt;1 -->
<g id="edge8" class="edge">
<title>0&#45;&gt;1</title>
<path fill="none" stroke="black" d="M1573.08,-110.96C1428.9,-110.6 756.18,-107.28 726.13,-76 719.35,-68.95 719.35,-61.05 726.13,-54 755.45,-23.49 1396.43,-19.57 1561.59,-19.07"/>
<polygon fill="black" stroke="black" points="1561.58,-22.57 1571.57,-19.05 1561.56,-15.57 1561.58,-22.57"/>
<text text-anchor="start" x="730.13" y="-62.2" font-family="Courier New" font-weight="bold" font-size="12.00" fill="orange">CLICK(0,0)</text>
</g>
<!-- 0&#45;&gt;1 -->
<g id="edge9" class="edge">
<title>0&#45;&gt;1</title>
<path fill="none" stroke="black" d="M1572.82,-110.81C1438.72,-109.72 855.34,-103.43 829.13,-76 822.37,-68.93 822.37,-61.07 829.13,-54 854.67,-27.27 1409.45,-20.61 1561.75,-19.29"/>
<polygon fill="black" stroke="black" points="1561.33,-22.79 1571.3,-19.21 1561.28,-15.79 1561.33,-22.79"/>
<text text-anchor="start" x="833.13" y="-62.2" font-family="Courier New" font-weight="bold" font-size="12.00" fill="orange">CLICK(0,0)</text>
</g>
<!-- 0&#45;&gt;1 -->
<g id="edge10" class="edge">
<title>0&#45;&gt;1</title>
<path fill="none" stroke="black" d="M1572.89,-110.61C1450.27,-108.71 954.54,-99.61 932.13,-76 925.4,-68.91 925.4,-61.09 932.13,-54 953.9,-31.06 1422.57,-21.81 1561.59,-19.57"/>
<polygon fill="black" stroke="black" points="1561.43,-23.07 1571.37,-19.42 1561.32,-16.07 1561.43,-23.07"/>
<text text-anchor="start" x="936.13" y="-62.2" font-family="Courier New" font-weight="bold" font-size="12.00" fill="orange">CLICK(0,0)</text>
</g>
<!-- 0&#45;&gt;1 -->
<g id="edge11" class="edge">
<title>0&#45;&gt;1</title>
<path fill="none" stroke="black" d="M1572.75,-110.34C1462.2,-107.52 1053.74,-95.8 1035.13,-76 1028.43,-68.88 1028.43,-61.12 1035.13,-54 1053.16,-34.81 1437.06,-23.22 1561.54,-19.95"/>
<polygon fill="black" stroke="black" points="1561.33,-23.46 1571.24,-19.7 1561.15,-16.46 1561.33,-23.46"/>
<text text-anchor="start" x="1039.13" y="-62.2" font-family="Courier New" font-weight="bold" font-size="12.00" fill="orange">CLICK(0,0)</text>
</g>
<!-- 0&#45;&gt;1 -->
<g id="edge12" class="edge">
<title>0&#45;&gt;1</title>
<path fill="none" stroke="black" d="M1572.97,-111.04C1478.41,-110.89 1167.76,-107.96 1138.13,-76 1131.48,-68.83 1131.48,-61.17 1138.13,-54 1166.66,-23.22 1455.74,-19.37 1561.57,-18.99"/>
<polygon fill="black" stroke="black" points="1561.46,-22.49 1571.45,-18.97 1561.44,-15.49 1561.46,-22.49"/>
<text text-anchor="start" x="1142.13" y="-62.2" font-family="Courier New" font-weight="bold" font-size="12.00" fill="orange">CLICK(0,0)</text>
</g>
<!-- 0&#45;&gt;1 -->
<g id="edge13" class="edge">
<title>0&#45;&gt;1</title>
<path fill="none" stroke="black" d="M1572.81,-110.4C1492.81,-108.38 1263.32,-100.46 1241.13,-76 1234.56,-68.76 1234.56,-61.24 1241.13,-54 1262.35,-30.61 1473.04,-22.35 1561.43,-19.9"/>
<polygon fill="black" stroke="black" points="1561.39,-23.4 1571.29,-19.64 1561.2,-16.4 1561.39,-23.4"/>
<text text-anchor="start" x="1245.13" y="-62.2" font-family="Courier New" font-weight="bold" font-size="12.00" fill="orange">CLICK(0,0)</text>
</g>
<!-- 0&#45;&gt;1 -->
<g id="edge14" class="edge">
<title>0&#45;&gt;1</title>
<path fill="none" stroke="black" d="M1572.97,-111.56C1513.28,-112.15 1373.62,-109.8 1344.13,-76 1337.7,-68.63 1337.7,-61.37 1344.13,-54 1371.89,-22.18 1497.29,-18.23 1561.69,-18.37"/>
<polygon fill="black" stroke="black" points="1561.44,-21.87 1571.46,-18.43 1561.48,-14.87 1561.44,-21.87"/>
<text text-anchor="start" x="1348.13" y="-62.2" font-family="Courier New" font-weight="bold" font-size="12.00" fill="orange">CLICK(0,0)</text>
</g>
<!-- 0&#45;&gt;1 -->
<g id="edge15" class="edge">
<title>0&#45;&gt;1</title>
<path fill="none" stroke="black" d="M1573.37,-108.81C1533.78,-104.95 1462.63,-95.44 1447.13,-76 1414.87,-35.52 1506.47,-23.79 1561.65,-20.39"/>
<polygon fill="black" stroke="black" points="1561.84,-23.88 1571.64,-19.85 1561.46,-16.89 1561.84,-23.88"/>
<text text-anchor="start" x="1451.13" y="-62.2" font-family="Courier New" font-weight="bold" font-size="12.00" fill="orange">CLICK(0,0)</text>
</g>
<!-- 0&#45;&gt;1 -->
<g id="edge16" class="edge">
<title>0&#45;&gt;1</title>
<path fill="none" stroke="black" d="M1577.76,-101.41C1567.35,-95.67 1556,-87.28 1550.13,-76 1545.61,-67.33 1545.61,-62.67 1550.13,-54 1554.26,-46.07 1561.1,-39.57 1568.41,-34.41"/>
<polygon fill="black" stroke="black" points="1569.83,-37.64 1576.47,-29.39 1566.13,-31.7 1569.83,-37.64"/>
<text text-anchor="start" x="1554.13" y="-62.2" font-family="Courier New" font-weight="bold" font-size="12.00" fill="orange">CLICK(0,0)</text>
</g>
<!-- 0&#45;&gt;1 -->
<g id="edge17" class="edge">
<title>0&#45;&gt;1</title>
<path fill="none" stroke="black" d="M1615.93,-97.23C1621.54,-91.32 1627.19,-83.96 1630.13,-76 1633.52,-66.83 1633.52,-63.17 1630.13,-54 1628.47,-49.52 1625.96,-45.24 1623.08,-41.29"/>
<polygon fill="black" stroke="black" points="1626.01,-39.34 1616.9,-33.93 1620.65,-43.84 1626.01,-39.34"/>
<text text-anchor="start" x="1636.13" y="-62.2" font-family="Courier New" font-weight="bold" font-size="12.00" fill="orange">CLICK(0,0)</text>
</g>
<!-- 1&#45;&gt;0 -->
<g id="edge18" class="edge">
<title>1&#45;&gt;0</title>
<path fill="none" stroke="black" d="M1626.99,-21.94C1668.5,-27.59 1741.02,-42.5 1716.13,-76 1698.48,-99.76 1665.2,-107.97 1638.79,-110.55"/>
<polygon fill="black" stroke="black" points="1638.83,-107.04 1629.11,-111.25 1639.33,-114.02 1638.83,-107.04"/>
<text text-anchor="start" x="1725.13" y="-62.2" font-family="Courier New" font-weight="bold" font-size="12.00" fill="blue">LOADVIEW(WIP1,)</text>
</g>
<!-- 1&#45;&gt;0 -->
<g id="edge19" class="edge">
<title>1&#45;&gt;0</title>
<path fill="none" stroke="black" d="M1627.42,-18.7C1684.55,-18.72 1813.74,-22.35 1841.13,-54 1847.53,-61.39 1847.53,-68.61 1841.13,-76 1815.4,-105.74 1699.82,-110.74 1638.55,-111.25"/>
<polygon fill="black" stroke="black" points="1638.92,-107.75 1628.93,-111.29 1638.95,-114.75 1638.92,-107.75"/>
<text text-anchor="start" x="1849.13" y="-62.2" font-family="Courier New" font-weight="bold" font-size="12.00" fill="blue">LOADVIEW(WIP1,)</text>
</g>
<!-- 1&#45;&gt;0 -->
<g id="edge20" class="edge">
<title>1&#45;&gt;0</title>
<path fill="none" stroke="black" d="M1627.33,-19.55C1708.12,-21.45 1942.49,-29.09 1965.13,-54 1971.7,-61.24 1971.7,-68.76 1965.13,-76 1943.46,-99.84 1727.87,-107.86 1638.57,-110.18"/>
<polygon fill="black" stroke="black" points="1638.75,-106.67 1628.84,-110.42 1638.93,-113.67 1638.75,-106.67"/>
<text text-anchor="start" x="1973.13" y="-62.2" font-family="Courier New" font-weight="bold" font-size="12.00" fill="blue">LOADVIEW(WIP1,)</text>
</g>
<!-- 1&#45;&gt;0 -->
<g id="edge21" class="edge">
<title>1&#45;&gt;0</title>
<path fill="none" stroke="black" d="M1627.5,-18.84C1725.9,-18.54 2057.56,-20.09 2089.13,-54 2095.79,-61.16 2095.79,-68.84 2089.13,-76 2058.67,-108.72 1748.85,-111.31 1638.72,-111.18"/>
<polygon fill="black" stroke="black" points="1639.02,-107.68 1629.02,-111.16 1639.01,-114.68 1639.02,-107.68"/>
<text text-anchor="start" x="2097.13" y="-62.2" font-family="Courier New" font-weight="bold" font-size="12.00" fill="blue">LOADVIEW(WIP1,)</text>
</g>
<!-- 1&#45;&gt;0 -->
<g id="edge22" class="edge">
<title>1&#45;&gt;0</title>
<path fill="none" stroke="black" d="M1627.43,-19.53C1743.73,-21.9 2192.75,-32.42 2213.13,-54 2219.84,-61.11 2219.84,-68.89 2213.13,-76 2193.36,-96.92 1770.52,-107.46 1638.89,-110.24"/>
<polygon fill="black" stroke="black" points="1638.87,-106.74 1628.95,-110.44 1639.02,-113.73 1638.87,-106.74"/>
<text text-anchor="start" x="2222.13" y="-62.2" font-family="Courier New" font-weight="bold" font-size="12.00" fill="blue">LOADVIEW(WIP1,)</text>
</g>
<!-- 1&#45;&gt;0 -->
<g id="edge23" class="edge">
<title>1&#45;&gt;0</title>
<path fill="none" stroke="black" d="M1627.56,-19.25C1758.33,-20.59 2313.15,-27.81 2338.13,-54 2344.88,-61.08 2344.88,-68.92 2338.13,-76 2313.81,-101.5 1787.22,-109.01 1638.77,-110.63"/>
<polygon fill="black" stroke="black" points="1639.04,-107.13 1629.07,-110.73 1639.11,-114.12 1639.04,-107.13"/>
<text text-anchor="start" x="2347.13" y="-62.2" font-family="Courier New" font-weight="bold" font-size="12.00" fill="blue">LOADVIEW(WIP1,)</text>
</g>
<!-- 1&#45;&gt;0 -->
<g id="edge24" class="edge">
<title>1&#45;&gt;0</title>
<path fill="none" stroke="black" d="M1627.31,-19.06C1770.66,-19.49 2433.5,-23.14 2463.13,-54 2469.9,-61.05 2469.9,-68.95 2463.13,-76 2434.22,-106.11 1802.65,-110.32 1638.72,-110.91"/>
<polygon fill="black" stroke="black" points="1638.81,-107.41 1628.82,-110.94 1638.83,-114.41 1638.81,-107.41"/>
<text text-anchor="start" x="2472.13" y="-62.2" font-family="Courier New" font-weight="bold" font-size="12.00" fill="blue">LOADVIEW(WIP1,)</text>
</g>
<!-- 1&#45;&gt;0 -->
<g id="edge25" class="edge">
<title>1&#45;&gt;0</title>
<path fill="none" stroke="black" d="M1627.57,-18.91C1783.66,-18.54 2553.86,-18.5 2588.13,-54 2594.92,-61.04 2594.92,-68.96 2588.13,-76 2554.63,-110.71 1817.89,-111.45 1639,-111.11"/>
<polygon fill="black" stroke="black" points="1639.09,-107.61 1629.08,-111.09 1639.08,-114.61 1639.09,-107.61"/>
<text text-anchor="start" x="2597.13" y="-62.2" font-family="Courier New" font-weight="bold" font-size="12.00" fill="blue">LOADVIEW(WIP1,)</text>
</g>
<!-- 1&#45;&gt;0 -->
<g id="edge26" class="edge">
<title>1&#45;&gt;0</title>
<path fill="none" stroke="black" d="M1627.42,-18.8C1794.57,-17.69 2674.18,-13.8 2713.13,-54 2719.93,-61.02 2719.93,-68.98 2713.13,-76 2674.99,-115.35 1831.13,-112.45 1638.87,-111.27"/>
<polygon fill="black" stroke="black" points="1638.95,-107.78 1628.93,-111.21 1638.91,-114.78 1638.95,-107.78"/>
<text text-anchor="start" x="2722.13" y="-62.2" font-family="Courier New" font-weight="bold" font-size="12.00" fill="blue">LOADVIEW(WIP1,)</text>
</g>
<!-- 1&#45;&gt;0 -->
<g id="edge27" class="edge">
<title>1&#45;&gt;0</title>
<path fill="none" stroke="black" d="M1627.49,-19.25C1807.59,-20.96 2816.29,-31.54 2838.13,-54 2844.94,-61.01 2844.94,-68.99 2838.13,-76 2816.72,-98.02 1846.61,-108.62 1638.98,-110.64"/>
<polygon fill="black" stroke="black" points="1638.97,-107.14 1629.01,-110.74 1639.04,-114.14 1638.97,-107.14"/>
<text text-anchor="start" x="2847.13" y="-62.2" font-family="Courier New" font-weight="bold" font-size="12.00" fill="blue">LOADVIEW(WIP1,)</text>
</g>
<!-- 1&#45;&gt;0 -->
<g id="edge28" class="edge">
<title>1&#45;&gt;0</title>
<path fill="none" stroke="black" d="M1627.45,-19.18C1817.78,-20.48 2938.94,-29.18 2963.13,-54 2969.95,-61 2969.95,-69 2963.13,-76 2939.38,-100.37 1857.94,-109.2 1638.66,-110.74"/>
<polygon fill="black" stroke="black" points="1638.94,-107.24 1628.96,-110.81 1638.99,-114.24 1638.94,-107.24"/>
<text text-anchor="start" x="2972.13" y="-62.2" font-family="Courier New" font-weight="bold" font-size="12.00" fill="blue">LOADVIEW(WIP1,)</text>
</g>
<!-- 1&#45;&gt;0 -->
<g id="edge29" class="edge">
<title>1&#45;&gt;0</title>
<path fill="none" stroke="black" d="M1627.35,-19.12C1827.27,-20.04 3061.58,-26.82 3088.13,-54 3094.96,-60.99 3094.96,-69.01 3088.13,-76 3062.05,-102.7 1870.29,-109.72 1638.84,-110.83"/>
<polygon fill="black" stroke="black" points="1638.85,-107.33 1628.86,-110.88 1638.88,-114.33 1638.85,-107.33"/>
<text text-anchor="start" x="3097.13" y="-62.2" font-family="Courier New" font-weight="bold" font-size="12.00" fill="blue">LOADVIEW(WIP1,)</text>
</g>
<!-- 1&#45;&gt;0 -->
<g id="edge30" class="edge">
<title>1&#45;&gt;0</title>
<path fill="none" stroke="black" d="M1627.26,-19.07C1836.37,-19.64 3184.22,-24.46 3213.13,-54 3219.97,-60.99 3219.97,-69.01 3213.13,-76 3184.7,-105.05 1880.76,-110.2 1638.61,-110.9"/>
<polygon fill="black" stroke="black" points="1638.77,-107.4 1628.78,-110.93 1638.79,-114.4 1638.77,-107.4"/>
<text text-anchor="start" x="3222.13" y="-62.2" font-family="Courier New" font-weight="bold" font-size="12.00" fill="blue">LOADVIEW(WIP1,)</text>
</g>
<!-- 1&#45;&gt;0 -->
<g id="edge31" class="edge">
<title>1&#45;&gt;0</title>
<path fill="none" stroke="black" d="M1627.26,-19.02C1845.44,-19.27 3306.85,-22.09 3338.13,-54 3344.97,-60.98 3344.97,-69.02 3338.13,-76 3307.36,-107.4 1892.16,-110.64 1638.76,-110.96"/>
<polygon fill="black" stroke="black" points="1638.76,-107.46 1628.77,-110.98 1638.77,-114.46 1638.76,-107.46"/>
<text text-anchor="start" x="3347.13" y="-62.2" font-family="Courier New" font-weight="bold" font-size="12.00" fill="blue">LOADVIEW(WIP1,)</text>
</g>
<!-- 1&#45;&gt;0 -->
<g id="edge32" class="edge">
<title>1&#45;&gt;0</title>
<path fill="none" stroke="black" d="M1627.38,-18.98C1854.8,-18.92 3429.49,-19.73 3463.13,-54 3469.98,-60.98 3469.98,-69.02 3463.13,-76 3430,-109.75 1902.12,-111.05 1638.63,-111.02"/>
<polygon fill="black" stroke="black" points="1638.9,-107.52 1628.9,-111.02 1638.9,-114.52 1638.9,-107.52"/>
<text text-anchor="start" x="3472.13" y="-62.2" font-family="Courier New" font-weight="bold" font-size="12.00" fill="blue">LOADVIEW(WIP1,)</text>
</g>
</g>
</svg>
