<?xml version="1.0" encoding="UTF-8" standalone="no"?>
<!DOCTYPE svg PUBLIC "-//W3C//DTD SVG 1.1//EN"
 "http://www.w3.org/Graphics/SVG/1.1/DTD/svg11.dtd">
<!-- Generated by graphviz version 7.1.0 (20230121.1956)
 -->
<!-- Title: Automaton Pages: 1 -->
<svg width="693pt" height="245pt"
 viewBox="0.00 0.00 692.54 245.00" xmlns="http://www.w3.org/2000/svg" xmlns:xlink="http://www.w3.org/1999/xlink">
<g id="graph0" class="graph" transform="scale(1 1) rotate(0) translate(4 241)">
<title>Automaton</title>
<polygon fill="white" stroke="none" points="-4,4 -4,-241 688.54,-241 688.54,4 -4,4"/>
<!-- filename -->
<g id="node1" class="node">
<title>filename</title>
<polygon fill="none" stroke="black" points="93.54,-184.5 93.54,-236.5 211.54,-236.5 211.54,-184.5 93.54,-184.5"/>
<polygon fill="none" stroke="black" points="104.54,-211.5 104.54,-229.5 200.54,-229.5 200.54,-211.5 104.54,-211.5"/>
<text text-anchor="start" x="122.53" y="-218.5" font-family="Courier New" font-weight="bold" font-size="10.00">M26_BANISH</text>
<polygon fill="none" stroke="black" points="104.54,-191.5 104.54,-209.5 200.54,-209.5 200.54,-191.5 104.54,-191.5"/>
<text text-anchor="start" x="107.54" y="-197.5" font-family="Courier New" font-size="10.00" fill="brown">start state = 0</text>
<polygon fill="none" stroke="black" points="101.54,-188.5 101.54,-232.5 203.54,-232.5 203.54,-188.5 101.54,-188.5"/>
</g>
<!-- 0 -->
<g id="node2" class="node">
<title>0</title>
<polyline fill="none" stroke="darkred" points="249.54,-199.5 263.54,-199.5"/>
<text text-anchor="start" x="252.54" y="-206.9" font-family="Courier New" font-weight="bold" font-size="14.00">0</text>
<path fill="none" stroke="darkred" d="M253.2,-196.5C253.2,-196.5 259.87,-196.5 259.87,-196.5 263.2,-196.5 266.54,-199.83 266.54,-203.17 266.54,-203.17 266.54,-217.83 266.54,-217.83 266.54,-221.17 263.2,-224.5 259.87,-224.5 259.87,-224.5 253.2,-224.5 253.2,-224.5 249.87,-224.5 246.54,-221.17 246.54,-217.83 246.54,-217.83 246.54,-203.17 246.54,-203.17 246.54,-199.83 249.87,-196.5 253.2,-196.5"/>
</g>
<!-- 30 -->
<g id="node3" class="node">
<title>30</title>
<polyline fill="none" stroke="darkred" points="53.54,-99 75.54,-99"/>
<text text-anchor="start" x="56.54" y="-106.4" font-family="Courier New" font-weight="bold" font-size="14.00">30</text>
<path fill="none" stroke="darkred" d="M59.87,-96C59.87,-96 69.2,-96 69.2,-96 73.87,-96 78.54,-100.67 78.54,-105.33 78.54,-105.33 78.54,-114.67 78.54,-114.67 78.54,-119.33 73.87,-124 69.2,-124 69.2,-124 59.87,-124 59.87,-124 55.2,-124 50.54,-119.33 50.54,-114.67 50.54,-114.67 50.54,-105.33 50.54,-105.33 50.54,-100.67 55.2,-96 59.87,-96"/>
</g>
<!-- 0&#45;&gt;30 -->
<g id="edge1" class="edge">
<title>0&#45;&gt;30</title>
<path fill="none" stroke="black" d="M236.67,-192.63C231.69,-189.21 226.15,-186.05 220.54,-184 175.29,-167.5 37.15,-201.44 4.54,-166 -8.25,-152.1 8.68,-137.72 27.78,-127.15"/>
<polygon fill="black" stroke="black" points="29.18,-130.36 36.47,-122.68 25.98,-124.14 29.18,-130.36"/>
<text text-anchor="start" x="8.54" y="-154" font-family="Courier New" font-weight="bold" font-size="10.00" fill="orange">CLICK(0,0)</text>
</g>
<!-- 10 -->
<g id="node4" class="node">
<title>10</title>
<polyline fill="none" stroke="darkred" points="497.54,-99 519.54,-99"/>
<text text-anchor="start" x="500.54" y="-106.4" font-family="Courier New" font-weight="bold" font-size="14.00">10</text>
<path fill="none" stroke="darkred" d="M503.87,-96C503.87,-96 513.2,-96 513.2,-96 517.87,-96 522.54,-100.67 522.54,-105.33 522.54,-105.33 522.54,-114.67 522.54,-114.67 522.54,-119.33 517.87,-124 513.2,-124 513.2,-124 503.87,-124 503.87,-124 499.2,-124 494.54,-119.33 494.54,-114.67 494.54,-114.67 494.54,-105.33 494.54,-105.33 494.54,-100.67 499.2,-96 503.87,-96"/>
</g>
<!-- 0&#45;&gt;10 -->
<g id="edge2" class="edge">
<title>0&#45;&gt;10</title>
<path fill="none" stroke="black" d="M283.27,-199.42C323.4,-184.22 401.55,-154.42 467.54,-128 468.68,-127.54 469.84,-127.07 471.02,-126.6"/>
<polygon fill="black" stroke="black" points="472.33,-129.84 480.27,-122.82 469.69,-123.36 472.33,-129.84"/>
<text text-anchor="start" x="424.54" y="-154" font-family="Courier New" font-weight="bold" font-size="10.00" fill="orange">DRAG(0,IDD_SCOOPF)</text>
</g>
<!-- 20 -->
<g id="node5" class="node">
<title>20</title>
<polyline fill="none" stroke="darkred" points="411.54,-7 433.54,-7"/>
<text text-anchor="start" x="414.54" y="-14.4" font-family="Courier New" font-weight="bold" font-size="14.00">20</text>
<path fill="none" stroke="darkred" d="M417.87,-4C417.87,-4 427.2,-4 427.2,-4 431.87,-4 436.54,-8.67 436.54,-13.33 436.54,-13.33 436.54,-22.67 436.54,-22.67 436.54,-27.33 431.87,-32 427.2,-32 427.2,-32 417.87,-32 417.87,-32 413.2,-32 408.54,-27.33 408.54,-22.67 408.54,-22.67 408.54,-13.33 408.54,-13.33 408.54,-8.67 413.2,-4 417.87,-4"/>
</g>
<!-- 0&#45;&gt;20 -->
<g id="edge3" class="edge">
<title>0&#45;&gt;20</title>
<path fill="none" stroke="black" d="M283.34,-209.21C346.91,-207.95 504.19,-201.25 540.54,-166 576.68,-130.95 588.35,-93.82 557.54,-54 545.71,-38.71 496.09,-28.87 460.44,-23.64"/>
<polygon fill="black" stroke="black" points="461.31,-20.23 450.92,-22.31 460.34,-27.16 461.31,-20.23"/>
<text text-anchor="start" x="578.54" y="-108" font-family="Courier New" font-weight="bold" font-size="10.00" fill="orange">DRAGFOCUS(0,TRUE)</text>
</g>
<!-- 30&#45;&gt;0 -->
<g id="edge7" class="edge">
<title>30&#45;&gt;0</title>
<path fill="none" stroke="black" d="M69.57,-127.99C74.22,-140.57 82.42,-157.02 95.54,-166 141.85,-197.71 168.41,-163.2 220.54,-184 222.57,-184.81 224.59,-185.75 226.58,-186.79"/>
<polygon fill="black" stroke="black" points="224.53,-189.64 234.9,-191.82 228.15,-183.65 224.53,-189.64"/>
<text text-anchor="start" x="99.54" y="-154" font-family="Courier New" font-weight="bold" font-size="10.00" fill="blue">Z_EPSILON(,)</text>
</g>
<!-- 70 -->
<g id="node6" class="node">
<title>70</title>
<polyline fill="none" stroke="darkred" points="116.54,-7 138.54,-7"/>
<text text-anchor="start" x="119.54" y="-14.4" font-family="Courier New" font-weight="bold" font-size="14.00">70</text>
<path fill="none" stroke="darkred" d="M122.87,-4C122.87,-4 132.2,-4 132.2,-4 136.87,-4 141.54,-8.67 141.54,-13.33 141.54,-13.33 141.54,-22.67 141.54,-22.67 141.54,-27.33 136.87,-32 132.2,-32 132.2,-32 122.87,-32 122.87,-32 118.2,-32 113.54,-27.33 113.54,-22.67 113.54,-22.67 113.54,-13.33 113.54,-13.33 113.54,-8.67 118.2,-4 122.87,-4"/>
</g>
<!-- 30&#45;&gt;70 -->
<g id="edge6" class="edge">
<title>30&#45;&gt;70</title>
<path fill="none" stroke="black" d="M60.75,-92.43C59.04,-80.86 58.69,-65.48 65.54,-54 71.27,-44.39 80.7,-37.19 90.5,-31.91"/>
<polygon fill="black" stroke="black" points="91.8,-35.17 99.34,-27.73 88.8,-28.85 91.8,-35.17"/>
<text text-anchor="start" x="69.54" y="-62" font-family="Courier New" font-weight="bold" font-size="10.00" fill="blue">EQUALi(LWEALTH,0)</text>
</g>
<!-- 10&#45;&gt;20 -->
<g id="edge4" class="edge">
<title>10&#45;&gt;20</title>
<path fill="none" stroke="black" d="M481.64,-97.83C476.94,-95.88 472.1,-93.88 467.54,-92 448,-83.95 435.47,-91.43 423.54,-74 418.23,-66.24 416.85,-56.32 417.17,-47.04"/>
<polygon fill="black" stroke="black" points="420.63,-47.66 418.16,-37.35 413.66,-46.95 420.63,-47.66"/>
<text text-anchor="start" x="427.54" y="-62" font-family="Courier New" font-weight="bold" font-size="10.00" fill="blue">HANDOFF(0,IDD_SCOOPE)</text>
</g>
<!-- 20&#45;&gt;0 -->
<g id="edge5" class="edge">
<title>20&#45;&gt;0</title>
<path fill="none" stroke="black" d="M397.84,-35.75C378.68,-49.48 352.16,-70.15 332.54,-92 307.11,-120.31 284.35,-157.96 270.51,-182.93"/>
<polygon fill="black" stroke="black" points="267.57,-181 265.87,-191.46 273.72,-184.35 267.57,-181"/>
<text text-anchor="start" x="336.54" y="-108" font-family="Courier New" font-weight="bold" font-size="10.00" fill="blue">PLAYWAVE(0,SOUND_SPIT)</text>
</g>
<!-- 70&#45;&gt;0 -->
<g id="edge8" class="edge">
<title>70&#45;&gt;0</title>
<path fill="none" stroke="black" d="M154.31,-34.4C161.97,-39.81 169.79,-46.45 175.54,-54 196.85,-81.97 187.64,-96.64 203.54,-128 213.4,-147.45 226.8,-168.02 237.66,-183.63"/>
<polygon fill="black" stroke="black" points="234.54,-185.28 243.17,-191.42 240.26,-181.24 234.54,-185.28"/>
<text text-anchor="start" x="207.54" y="-108" font-family="Courier New" font-weight="bold" font-size="10.00" fill="blue">LOADVIEW(WIP1,)</text>
</g>
</g>
</svg>
