<?xml version="1.0" encoding="UTF-8" standalone="no"?>
<!DOCTYPE svg PUBLIC "-//W3C//DTD SVG 1.1//EN"
 "http://www.w3.org/Graphics/SVG/1.1/DTD/svg11.dtd">
<!-- Generated by graphviz version 7.1.0 (20230121.1956)
 -->
<!-- Pages: 1 -->
<svg width="692pt" height="228pt"
 viewBox="0.00 0.00 691.52 228.00" xmlns="http://www.w3.org/2000/svg" xmlns:xlink="http://www.w3.org/1999/xlink">
<g id="graph0" class="graph" transform="scale(1 1) rotate(0) translate(4 224)">
<polygon fill="white" stroke="none" points="-4,4 -4,-224 687.52,-224 687.52,4 -4,4"/>
<!-- 0 -->
<g id="node1" class="node">
<title>0</title>
<ellipse fill="none" stroke="black" cx="256.52" cy="-202" rx="27" ry="18"/>
<text text-anchor="middle" x="256.52" y="-197.8" font-family="Times,serif" font-size="14.00">0</text>
</g>
<!-- 30 -->
<g id="node2" class="node">
<title>30</title>
<ellipse fill="none" stroke="black" cx="64.52" cy="-110" rx="27" ry="18"/>
<text text-anchor="middle" x="64.52" y="-105.8" font-family="Times,serif" font-size="14.00">30</text>
</g>
<!-- 0&#45;&gt;30 -->
<g id="edge1" class="edge">
<title>0&#45;&gt;30</title>
<path fill="none" stroke="black" d="M229.34,-201.49C170.33,-201.92 33.45,-199.23 4.52,-166 -8.66,-150.87 11.25,-135.6 31.59,-125"/>
<polygon fill="black" stroke="black" points="32.95,-128.23 40.41,-120.72 29.89,-121.93 32.95,-128.23"/>
<text text-anchor="start" x="8.52" y="-154" font-family="Courier New" font-weight="bold" font-size="10.00" fill="orange">CLICK(0,0)</text>
</g>
<!-- 10 -->
<g id="node3" class="node">
<title>10</title>
<ellipse fill="none" stroke="black" cx="508.52" cy="-110" rx="27" ry="18"/>
<text text-anchor="middle" x="508.52" y="-105.8" font-family="Times,serif" font-size="14.00">10</text>
</g>
<!-- 0&#45;&gt;10 -->
<g id="edge2" class="edge">
<title>0&#45;&gt;10</title>
<path fill="none" stroke="black" d="M280.42,-193.25C319.71,-180.39 400.3,-153.54 467.52,-128 470.17,-126.99 472.9,-125.93 475.64,-124.84"/>
<polygon fill="black" stroke="black" points="476.72,-128.18 484.66,-121.17 474.08,-121.69 476.72,-128.18"/>
<text text-anchor="start" x="419.52" y="-154" font-family="Courier New" font-weight="bold" font-size="10.00" fill="orange">DRAG(0,IDD_SCOOPF)</text>
</g>
<!-- 20 -->
<g id="node4" class="node">
<title>20</title>
<ellipse fill="none" stroke="black" cx="422.52" cy="-18" rx="27" ry="18"/>
<text text-anchor="middle" x="422.52" y="-13.8" font-family="Times,serif" font-size="14.00">20</text>
</g>
<!-- 0&#45;&gt;20 -->
<g id="edge3" class="edge">
<title>0&#45;&gt;20</title>
<path fill="none" stroke="black" d="M283.62,-201.38C346.32,-201.67 498.79,-198.9 535.52,-166 573.31,-132.15 588.57,-94.12 557.52,-54 545.65,-38.66 495.79,-28.82 460.12,-23.6"/>
<polygon fill="black" stroke="black" points="460.99,-20.18 450.61,-22.27 460.03,-27.12 460.99,-20.18"/>
<text text-anchor="start" x="577.52" y="-108" font-family="Courier New" font-weight="bold" font-size="10.00" fill="orange">DRAGFOCUS(0,TRUE)</text>
</g>
<!-- 30&#45;&gt;0 -->
<g id="edge7" class="edge">
<title>30&#45;&gt;0</title>
<path fill="none" stroke="black" d="M69.84,-127.99C74.6,-140.4 82.82,-156.63 95.52,-166 131.29,-192.4 182.98,-199.65 218.06,-201.26"/>
<polygon fill="black" stroke="black" points="217.66,-204.75 227.77,-201.57 217.88,-197.76 217.66,-204.75"/>
<text text-anchor="start" x="99.52" y="-154" font-family="Courier New" font-weight="bold" font-size="10.00" fill="blue">Z_EPSILON(,)</text>
</g>
<!-- 70 -->
<g id="node5" class="node">
<title>70</title>
<ellipse fill="none" stroke="black" cx="127.52" cy="-18" rx="27" ry="18"/>
<text text-anchor="middle" x="127.52" y="-13.8" font-family="Times,serif" font-size="14.00">70</text>
</g>
<!-- 30&#45;&gt;70 -->
<g id="edge6" class="edge">
<title>30&#45;&gt;70</title>
<path fill="none" stroke="black" d="M60.66,-91.93C59.01,-80.42 58.77,-65.32 65.52,-54 71.64,-43.73 81.99,-36.22 92.5,-30.86"/>
<polygon fill="black" stroke="black" points="93.84,-34.09 101.53,-26.8 90.98,-27.71 93.84,-34.09"/>
<text text-anchor="start" x="69.52" y="-62" font-family="Courier New" font-weight="bold" font-size="10.00" fill="blue">EQUALi(LWEALTH,0)</text>
</g>
<!-- 10&#45;&gt;20 -->
<g id="edge4" class="edge">
<title>10&#45;&gt;20</title>
<path fill="none" stroke="black" d="M485.97,-99.63C479.98,-97.14 473.51,-94.46 467.52,-92 447.98,-83.95 435.46,-91.43 423.52,-74 418.31,-66.38 416.89,-56.68 417.14,-47.55"/>
<polygon fill="black" stroke="black" points="420.62,-47.9 418.11,-37.61 413.66,-47.22 420.62,-47.9"/>
<text text-anchor="start" x="427.52" y="-62" font-family="Courier New" font-weight="bold" font-size="10.00" fill="blue">HANDOFF(0,IDD_SCOOPE)</text>
</g>
<!-- 20&#45;&gt;0 -->
<g id="edge5" class="edge">
<title>20&#45;&gt;0</title>
<path fill="none" stroke="black" d="M404.01,-31.65C384.86,-45.24 354.72,-68.13 332.52,-92 308.41,-117.93 285.89,-151.95 271.72,-175.04"/>
<polygon fill="black" stroke="black" points="268.78,-173.14 266.6,-183.51 274.77,-176.76 268.78,-173.14"/>
<text text-anchor="start" x="336.52" y="-108" font-family="Courier New" font-weight="bold" font-size="10.00" fill="blue">PLAYWAVE(0,SOUND_SPIT)</text>
</g>
<!-- 70&#45;&gt;0 -->
<g id="edge8" class="edge">
<title>70&#45;&gt;0</title>
<path fill="none" stroke="black" d="M147.9,-30.11C157.37,-36.13 168.14,-44.32 175.52,-54 196.84,-81.97 186.82,-97.05 203.52,-128 212.89,-145.36 225.87,-163.3 236.63,-177.06"/>
<polygon fill="black" stroke="black" points="233.74,-179.05 242.72,-184.67 239.21,-174.67 233.74,-179.05"/>
<text text-anchor="start" x="207.52" y="-108" font-family="Courier New" font-weight="bold" font-size="10.00" fill="blue">LOADVIEW(WIP1,)</text>
</g>
</g>
</svg>
