<?xml version="1.0" encoding="UTF-8" standalone="no"?>
<!DOCTYPE svg PUBLIC "-//W3C//DTD SVG 1.1//EN"
 "http://www.w3.org/Graphics/SVG/1.1/DTD/svg11.dtd">
<!-- Generated by graphviz version 7.1.0 (20230121.1956)
 -->
<!-- Title: Automaton Pages: 1 -->
<svg width="648pt" height="613pt"
 viewBox="0.00 0.00 648.26 613.00" xmlns="http://www.w3.org/2000/svg" xmlns:xlink="http://www.w3.org/1999/xlink">
<g id="graph0" class="graph" transform="scale(1 1) rotate(0) translate(4 609)">
<title>Automaton</title>
<polygon fill="white" stroke="none" points="-4,4 -4,-609 644.26,-609 644.26,4 -4,4"/>
<!-- filename -->
<g id="node1" class="node">
<title>filename</title>
<polygon fill="none" stroke="black" points="15.26,-552.5 15.26,-604.5 133.26,-604.5 133.26,-552.5 15.26,-552.5"/>
<polygon fill="none" stroke="black" points="26.26,-579.5 26.26,-597.5 122.26,-597.5 122.26,-579.5 26.26,-579.5"/>
<text text-anchor="start" x="53.26" y="-586.5" font-family="Courier New" font-weight="bold" font-size="10.00">M_ALARM</text>
<polygon fill="none" stroke="black" points="26.26,-559.5 26.26,-577.5 122.26,-577.5 122.26,-559.5 26.26,-559.5"/>
<text text-anchor="start" x="29.26" y="-565.5" font-family="Courier New" font-size="10.00" fill="brown">start state = 0</text>
<polygon fill="none" stroke="black" points="23.26,-556.5 23.26,-600.5 125.26,-600.5 125.26,-556.5 23.26,-556.5"/>
</g>
<!-- 0 -->
<g id="node2" class="node">
<title>0</title>
<polyline fill="none" stroke="darkred" points="171.26,-567.5 185.26,-567.5"/>
<text text-anchor="start" x="174.26" y="-574.9" font-family="Courier New" font-weight="bold" font-size="14.00">0</text>
<path fill="none" stroke="darkred" d="M174.93,-564.5C174.93,-564.5 181.6,-564.5 181.6,-564.5 184.93,-564.5 188.26,-567.83 188.26,-571.17 188.26,-571.17 188.26,-585.83 188.26,-585.83 188.26,-589.17 184.93,-592.5 181.6,-592.5 181.6,-592.5 174.93,-592.5 174.93,-592.5 171.6,-592.5 168.26,-589.17 168.26,-585.83 168.26,-585.83 168.26,-571.17 168.26,-571.17 168.26,-567.83 171.6,-564.5 174.93,-564.5"/>
</g>
<!-- ready -->
<g id="node3" class="node">
<title>ready</title>
<polyline fill="none" stroke="darkred" points="47.26,-439 95.26,-439"/>
<text text-anchor="start" x="50.26" y="-446.4" font-family="Courier New" font-weight="bold" font-size="14.00">ready</text>
<path fill="none" stroke="darkred" d="M53.6,-436C53.6,-436 88.93,-436 88.93,-436 93.6,-436 98.26,-440.67 98.26,-445.33 98.26,-445.33 98.26,-454.67 98.26,-454.67 98.26,-459.33 93.6,-464 88.93,-464 88.93,-464 53.6,-464 53.6,-464 48.93,-464 44.26,-459.33 44.26,-454.67 44.26,-454.67 44.26,-445.33 44.26,-445.33 44.26,-440.67 48.93,-436 53.6,-436"/>
</g>
<!-- 0&#45;&gt;ready -->
<g id="edge1" class="edge">
<title>0&#45;&gt;ready</title>
<path fill="none" stroke="black" d="M157.87,-560.73C152.99,-557.4 147.64,-554.24 142.26,-552 99.78,-534.27 69.85,-569.27 40.26,-534 27.7,-519.02 33.82,-508.46 40.26,-490 41.87,-485.41 44.26,-480.95 47.03,-476.79"/>
<polygon fill="black" stroke="black" points="49.75,-478.98 53.02,-468.9 44.18,-474.75 49.75,-478.98"/>
<polygon fill="none" stroke="black" points="43.26,-513 43.26,-531 301.26,-531 301.26,-513 43.26,-513"/>
<text text-anchor="start" x="109.25" y="-520" font-family="Courier New" font-weight="bold" font-size="10.00" fill="blue">O_ACCEPT(0,IDD_ALARM)</text>
<polygon fill="none" stroke="black" points="43.26,-493 43.26,-511 301.26,-511 301.26,-493 43.26,-493"/>
<text text-anchor="start" x="46.26" y="-499" font-family="Courier New" font-size="10.00" fill="blue"> &#160;&#160;&#160;ASSIGN(WPARM,0); //WILL BE LVIEW VALUE</text>
<polygon fill="none" stroke="black" points="40.26,-490 40.26,-534 304.26,-534 304.26,-490 40.26,-490"/>
</g>
<!-- alarmWhite -->
<g id="node5" class="node">
<title>alarmWhite</title>
<polyline fill="none" stroke="darkred" points="165.26,-307 255.26,-307"/>
<text text-anchor="start" x="168.26" y="-314.4" font-family="Courier New" font-weight="bold" font-size="14.00">alarmWhite</text>
<path fill="none" stroke="darkred" d="M171.6,-304C171.6,-304 248.93,-304 248.93,-304 253.6,-304 258.26,-308.67 258.26,-313.33 258.26,-313.33 258.26,-322.67 258.26,-322.67 258.26,-327.33 253.6,-332 248.93,-332 248.93,-332 171.6,-332 171.6,-332 166.93,-332 162.26,-327.33 162.26,-322.67 162.26,-322.67 162.26,-313.33 162.26,-313.33 162.26,-308.67 166.93,-304 171.6,-304"/>
</g>
<!-- ready&#45;&gt;alarmWhite -->
<g id="edge7" class="edge">
<title>ready&#45;&gt;alarmWhite</title>
<path fill="none" stroke="black" d="M86.86,-432.29C105.25,-412.85 137.03,-380.09 166.26,-354 170.33,-350.37 174.71,-346.66 179.08,-343.08"/>
<polygon fill="black" stroke="black" points="181.15,-345.91 186.75,-336.92 176.76,-340.45 181.15,-345.91"/>
<polygon fill="none" stroke="black" points="169.26,-389 169.26,-407 301.26,-407 301.26,-389 169.26,-389"/>
<text text-anchor="start" x="208.26" y="-396" font-family="Courier New" font-weight="bold" font-size="10.00" fill="orange">DROP(0,0)</text>
<polygon fill="none" stroke="black" points="169.26,-357 169.26,-387 301.26,-387 301.26,-357 169.26,-357"/>
<text text-anchor="start" x="172.26" y="-375" font-family="Courier New" font-size="10.00" fill="blue"> &#160;&#160;&#160;SHOW(WOBJECT);</text>
<text text-anchor="start" x="172.26" y="-363" font-family="Courier New" font-size="10.00" fill="blue"> &#160;&#160;&#160;MOV(WPARM,LVIEW);</text>
<polygon fill="none" stroke="black" points="166.26,-354 166.26,-410 304.26,-410 304.26,-354 166.26,-354"/>
</g>
<!-- alarmGreen -->
<g id="node4" class="node">
<title>alarmGreen</title>
<polyline fill="none" stroke="darkred" points="165.26,-151 255.26,-151"/>
<text text-anchor="start" x="168.26" y="-158.4" font-family="Courier New" font-weight="bold" font-size="14.00">alarmGreen</text>
<path fill="none" stroke="darkred" d="M171.6,-148C171.6,-148 248.93,-148 248.93,-148 253.6,-148 258.26,-152.67 258.26,-157.33 258.26,-157.33 258.26,-166.67 258.26,-166.67 258.26,-171.33 253.6,-176 248.93,-176 248.93,-176 171.6,-176 171.6,-176 166.93,-176 162.26,-171.33 162.26,-166.67 162.26,-166.67 162.26,-157.33 162.26,-157.33 162.26,-152.67 166.93,-148 171.6,-148"/>
</g>
<!-- alarmGreen&#45;&gt;alarmWhite -->
<g id="edge2" class="edge">
<title>alarmGreen&#45;&gt;alarmWhite</title>
<path fill="none" stroke="black" d="M210.26,-179.75C210.26,-206.01 210.26,-257.13 210.26,-289.03"/>
<polygon fill="black" stroke="black" points="206.76,-288.71 210.26,-298.71 213.76,-288.71 206.76,-288.71"/>
<polygon fill="none" stroke="black" points="213.26,-261 213.26,-279 399.26,-279 399.26,-261 213.26,-261"/>
<text text-anchor="start" x="279.26" y="-268" font-family="Courier New" font-weight="bold" font-size="10.00" fill="orange">CLICK(0,)</text>
<polygon fill="none" stroke="black" points="213.26,-217 213.26,-259 399.26,-259 399.26,-217 213.26,-217"/>
<text text-anchor="start" x="216.26" y="-247" font-family="Courier New" font-size="10.00" fill="blue"> &#160;&#160;&#160;MOV(WSPRITE,IDS_ALARMOFF);</text>
<text text-anchor="start" x="216.26" y="-235" font-family="Courier New" font-size="10.00" fill="blue"> &#160;&#160;&#160;SHOW(WSPRITE);</text>
<text text-anchor="start" x="216.26" y="-223" font-family="Courier New" font-size="10.00" fill="blue"> &#160;&#160;&#160;LOADVIEW(WPARM);</text>
<polygon fill="none" stroke="black" points="210.26,-214 210.26,-282 402.26,-282 402.26,-214 210.26,-214"/>
</g>
<!-- alarmRed -->
<g id="node6" class="node">
<title>alarmRed</title>
<polyline fill="none" stroke="darkred" points="277.26,-7 350.26,-7"/>
<text text-anchor="start" x="280.26" y="-14.4" font-family="Courier New" font-weight="bold" font-size="14.00">alarmRed</text>
<path fill="none" stroke="darkred" d="M283.1,-4C283.1,-4 343.43,-4 343.43,-4 348.1,-4 352.76,-8.67 352.76,-13.33 352.76,-13.33 352.76,-22.67 352.76,-22.67 352.76,-27.33 348.1,-32 343.43,-32 343.43,-32 283.1,-32 283.1,-32 278.43,-32 273.76,-27.33 273.76,-22.67 273.76,-22.67 273.76,-13.33 273.76,-13.33 273.76,-8.67 278.43,-4 283.1,-4"/>
</g>
<!-- alarmGreen&#45;&gt;alarmRed -->
<g id="edge3" class="edge">
<title>alarmGreen&#45;&gt;alarmRed</title>
<path fill="none" stroke="black" d="M205,-144.34C198.92,-121.61 192.03,-80.67 211.26,-54 221.6,-39.68 238.16,-31.15 254.97,-26.11"/>
<polygon fill="black" stroke="black" points="255.71,-29.53 264.52,-23.64 253.96,-22.75 255.71,-29.53"/>
<polygon fill="none" stroke="black" points="214.26,-89 214.26,-107 400.26,-107 400.26,-89 214.26,-89"/>
<text text-anchor="start" x="256.26" y="-96" font-family="Courier New" font-weight="bold" font-size="10.00" fill="orange">WAIT(0,SIG_ALARM)</text>
<polygon fill="none" stroke="black" points="214.26,-57 214.26,-87 400.26,-87 400.26,-57 214.26,-57"/>
<text text-anchor="start" x="217.26" y="-75" font-family="Courier New" font-size="10.00" fill="blue"> &#160;&#160;&#160;MOV(WSPRITE,IDS_ALARMRED);</text>
<text text-anchor="start" x="217.26" y="-63" font-family="Courier New" font-size="10.00" fill="blue"> &#160;&#160;&#160;ASHOW(WSPRITE);</text>
<polygon fill="none" stroke="black" points="211.26,-54 211.26,-110 403.26,-110 403.26,-54 211.26,-54"/>
</g>
<!-- alarmWhite&#45;&gt;0 -->
<g id="edge6" class="edge">
<title>alarmWhite&#45;&gt;0</title>
<path fill="none" stroke="black" d="M265.81,-327.66C280.73,-332.8 295.22,-340.99 304.26,-354 349.91,-419.7 350.69,-468.85 304.26,-534 284.46,-561.78 245.68,-571.99 216.35,-575.66"/>
<polygon fill="black" stroke="black" points="216.33,-572.14 206.74,-576.64 217.04,-579.1 216.33,-572.14"/>
<polygon fill="none" stroke="black" points="341.26,-451 341.26,-469 401.26,-469 401.26,-451 341.26,-451"/>
<text text-anchor="start" x="344.26" y="-458" font-family="Courier New" font-weight="bold" font-size="10.00" fill="orange">GRAB(0,0)</text>
<polygon fill="none" stroke="black" points="341.26,-431 341.26,-449 401.26,-449 401.26,-431 341.26,-431"/>
<text text-anchor="start" x="350.26" y="-437" font-family="Courier New" font-size="10.00" fill="blue">SHOW();</text>
<polygon fill="none" stroke="black" points="338.26,-428 338.26,-472 404.26,-472 404.26,-428 338.26,-428"/>
</g>
<!-- alarmWhite&#45;&gt;alarmGreen -->
<g id="edge5" class="edge">
<title>alarmWhite&#45;&gt;alarmGreen</title>
<path fill="none" stroke="black" d="M154.28,-314.78C102.79,-311.42 31.85,-303 14.26,-282 -5.14,-258.83 -4.22,-237.91 14.26,-214 30.16,-193.44 93.05,-179.62 143.36,-171.61"/>
<polygon fill="black" stroke="black" points="143.69,-175.1 153.04,-170.12 142.62,-168.18 143.69,-175.1"/>
<polygon fill="none" stroke="black" points="17.26,-255 17.26,-273 203.26,-273 203.26,-255 17.26,-255"/>
<text text-anchor="start" x="77.26" y="-262" font-family="Courier New" font-weight="bold" font-size="10.00" fill="blue">ESTIME(0,4)</text>
<polygon fill="none" stroke="black" points="17.26,-223 17.26,-253 203.26,-253 203.26,-223 17.26,-223"/>
<text text-anchor="start" x="20.26" y="-241" font-family="Courier New" font-size="10.00" fill="blue"> &#160;&#160;&#160;MOV(WSPRITE,IDS_ALARMGRN);</text>
<text text-anchor="start" x="20.26" y="-229" font-family="Courier New" font-size="10.00" fill="blue"> &#160;&#160;&#160;SHOW(WSPRITE);</text>
<polygon fill="none" stroke="black" points="14.26,-220 14.26,-276 206.26,-276 206.26,-220 14.26,-220"/>
</g>
<!-- alarmRed&#45;&gt;alarmWhite -->
<g id="edge4" class="edge">
<title>alarmRed&#45;&gt;alarmWhite</title>
<path fill="none" stroke="black" d="M360.36,-26.14C376.72,-31.13 393.42,-39.61 403.26,-54 460.48,-137.64 468.21,-204.22 403.26,-282 387.27,-301.16 326.31,-309.85 277.13,-313.78"/>
<polygon fill="black" stroke="black" points="277.1,-310.28 267.39,-314.51 277.62,-317.26 277.1,-310.28"/>
<polygon fill="none" stroke="black" points="451.26,-175 451.26,-193 637.26,-193 637.26,-175 451.26,-175"/>
<text text-anchor="start" x="517.26" y="-182" font-family="Courier New" font-weight="bold" font-size="10.00" fill="orange">CLICK(0,)</text>
<polygon fill="none" stroke="black" points="451.26,-131 451.26,-173 637.26,-173 637.26,-131 451.26,-131"/>
<text text-anchor="start" x="454.26" y="-161" font-family="Courier New" font-size="10.00" fill="blue"> &#160;&#160;&#160;MOV(WSPRITE,IDS_ALARMOFF);</text>
<text text-anchor="start" x="454.26" y="-149" font-family="Courier New" font-size="10.00" fill="blue"> &#160;&#160;&#160;SHOW(WSPRITE);</text>
<text text-anchor="start" x="454.26" y="-137" font-family="Courier New" font-size="10.00" fill="blue"> &#160;&#160;&#160;LOADVIEW(WPARM);</text>
<polygon fill="none" stroke="black" points="448.26,-128 448.26,-196 640.26,-196 640.26,-128 448.26,-128"/>
</g>
</g>
</svg>
