<?xml version="1.0" encoding="UTF-8" standalone="no"?>
<!DOCTYPE svg PUBLIC "-//W3C//DTD SVG 1.1//EN"
 "http://www.w3.org/Graphics/SVG/1.1/DTD/svg11.dtd">
<!-- Generated by graphviz version 7.1.0 (20230121.1956)
 -->
<!-- Pages: 1 -->
<svg width="187pt" height="232pt"
 viewBox="0.00 0.00 187.00 232.00" xmlns="http://www.w3.org/2000/svg" xmlns:xlink="http://www.w3.org/1999/xlink">
<g id="graph0" class="graph" transform="scale(1 1) rotate(0) translate(4 228)">
<polygon fill="white" stroke="none" points="-4,4 -4,-228 183,-228 183,4 -4,4"/>
<!-- 0 -->
<g id="node1" class="node">
<title>0</title>
<ellipse fill="none" stroke="black" cx="27" cy="-206" rx="27" ry="18"/>
<text text-anchor="middle" x="27" y="-201.8" font-family="Times,serif" font-size="14.00">0</text>
</g>
<!-- 1 -->
<g id="node2" class="node">
<title>1</title>
<ellipse fill="none" stroke="black" cx="27" cy="-112" rx="27" ry="18"/>
<text text-anchor="middle" x="27" y="-107.8" font-family="Times,serif" font-size="14.00">1</text>
</g>
<!-- 0&#45;&gt;1 -->
<g id="edge1" class="edge">
<title>0&#45;&gt;1</title>
<path fill="none" stroke="black" d="M27,-187.7C27,-174.72 27,-156.66 27,-141.56"/>
<polygon fill="black" stroke="black" points="30.5,-141.74 27,-131.74 23.5,-141.74 30.5,-141.74"/>
<text text-anchor="start" x="31.5" y="-156.2" font-family="Courier New" font-weight="bold" font-size="12.00" fill="blue">MOV(WSPRITEWIP1)</text>
</g>
<!-- 2 -->
<g id="node3" class="node">
<title>2</title>
<ellipse fill="none" stroke="black" cx="27" cy="-18" rx="27" ry="18"/>
<text text-anchor="middle" x="27" y="-13.8" font-family="Times,serif" font-size="14.00">2</text>
</g>
<!-- 1&#45;&gt;2 -->
<g id="edge2" class="edge">
<title>1&#45;&gt;2</title>
<path fill="none" stroke="black" d="M27,-93.7C27,-80.72 27,-62.66 27,-47.56"/>
<polygon fill="black" stroke="black" points="30.5,-47.74 27,-37.74 23.5,-47.74 30.5,-47.74"/>
<text text-anchor="start" x="31" y="-62.2" font-family="Courier New" font-weight="bold" font-size="12.00" fill="blue">ASHOW(WSPRITEV_LOOP)</text>
</g>
<!-- 2&#45;&gt;2 -->
<g id="edge3" class="edge">
<title>2&#45;&gt;2</title>
<path fill="none" stroke="black" d="M51.07,-26.64C62.24,-27.58 72,-24.7 72,-18 72,-13.71 68,-10.98 62.18,-9.83"/>
<polygon fill="black" stroke="black" points="62.72,-6.35 52.59,-9.43 62.43,-13.34 62.72,-6.35"/>
<text text-anchor="start" x="76" y="-15.2" font-family="Courier New" font-weight="bold" font-size="12.00" fill="orange">GRAB(WIP2)</text>
</g>
</g>
</svg>
