<?xml version="1.0" encoding="UTF-8" standalone="no"?>
<!DOCTYPE svg PUBLIC "-//W3C//DTD SVG 1.1//EN"
 "http://www.w3.org/Graphics/SVG/1.1/DTD/svg11.dtd">
<!-- Generated by graphviz version 7.1.0 (20230121.1956)
 -->
<!-- Pages: 1 -->
<svg width="448pt" height="420pt"
 viewBox="0.00 0.00 448.00 420.00" xmlns="http://www.w3.org/2000/svg" xmlns:xlink="http://www.w3.org/1999/xlink">
<g id="graph0" class="graph" transform="scale(1 1) rotate(0) translate(4 416)">
<polygon fill="white" stroke="none" points="-4,4 -4,-416 444,-416 444,4 -4,4"/>
<!-- 0 -->
<g id="node1" class="node">
<title>0</title>
<ellipse fill="none" stroke="black" cx="132" cy="-394" rx="27" ry="18"/>
<text text-anchor="middle" x="132" y="-389.8" font-family="Times,serif" font-size="14.00">0</text>
</g>
<!-- 1 -->
<g id="node2" class="node">
<title>1</title>
<ellipse fill="none" stroke="black" cx="132" cy="-300" rx="27" ry="18"/>
<text text-anchor="middle" x="132" y="-295.8" font-family="Times,serif" font-size="14.00">1</text>
</g>
<!-- 0&#45;&gt;1 -->
<g id="edge1" class="edge">
<title>0&#45;&gt;1</title>
<path fill="none" stroke="black" d="M132,-375.7C132,-362.72 132,-344.66 132,-329.56"/>
<polygon fill="black" stroke="black" points="135.5,-329.74 132,-319.74 128.5,-329.74 135.5,-329.74"/>
<text text-anchor="start" x="136.5" y="-344.2" font-family="Courier New" font-weight="bold" font-size="12.00" fill="blue">MOV(WSPRITEWIP1)</text>
</g>
<!-- 2 -->
<g id="node3" class="node">
<title>2</title>
<ellipse fill="none" stroke="black" cx="45" cy="-206" rx="27" ry="18"/>
<text text-anchor="middle" x="45" y="-201.8" font-family="Times,serif" font-size="14.00">2</text>
</g>
<!-- 1&#45;&gt;2 -->
<g id="edge2" class="edge">
<title>1&#45;&gt;2</title>
<path fill="none" stroke="black" d="M110.01,-289.07C98.52,-283.05 84.84,-274.51 75,-264 67.03,-255.49 60.58,-244.45 55.73,-234.36"/>
<polygon fill="black" stroke="black" points="58.97,-233.04 51.71,-225.33 52.57,-235.89 58.97,-233.04"/>
<text text-anchor="start" x="79" y="-250.2" font-family="Courier New" font-weight="bold" font-size="12.00" fill="blue">ASHOW(WSPRITEV_LOOP)</text>
</g>
<!-- 3 -->
<g id="node4" class="node">
<title>3</title>
<ellipse fill="none" stroke="black" cx="27" cy="-112" rx="27" ry="18"/>
<text text-anchor="middle" x="27" y="-107.8" font-family="Times,serif" font-size="14.00">3</text>
</g>
<!-- 2&#45;&gt;3 -->
<g id="edge3" class="edge">
<title>2&#45;&gt;3</title>
<path fill="none" stroke="black" d="M41.61,-187.7C39.05,-174.59 35.47,-156.31 32.5,-141.11"/>
<polygon fill="black" stroke="black" points="36.02,-140.85 30.66,-131.71 29.15,-142.2 36.02,-140.85"/>
<text text-anchor="start" x="43" y="-156.2" font-family="Courier New" font-weight="bold" font-size="12.00" fill="orange">CLICK(00)</text>
</g>
<!-- 4 -->
<g id="node5" class="node">
<title>4</title>
<ellipse fill="none" stroke="black" cx="132" cy="-18" rx="27" ry="18"/>
<text text-anchor="middle" x="132" y="-13.8" font-family="Times,serif" font-size="14.00">4</text>
</g>
<!-- 3&#45;&gt;4 -->
<g id="edge4" class="edge">
<title>3&#45;&gt;4</title>
<path fill="none" stroke="black" d="M21.25,-93.93C18.26,-81.68 16.75,-65.38 25,-54 40.58,-32.51 69.73,-23.97 93.68,-20.69"/>
<polygon fill="black" stroke="black" points="93.87,-24.19 103.43,-19.63 93.11,-17.23 93.87,-24.19"/>
<text text-anchor="start" x="29" y="-62.2" font-family="Courier New" font-weight="bold" font-size="12.00" fill="blue">SIGNALi(SIG_OPENS01_NATURE)</text>
</g>
<!-- 4&#45;&gt;1 -->
<g id="edge5" class="edge">
<title>4&#45;&gt;1</title>
<path fill="none" stroke="black" d="M158.73,-20.79C181.09,-23.86 211.72,-32.08 227,-54 280.38,-130.56 280.38,-187.44 227,-264 214.17,-282.41 190.51,-291.16 170.01,-295.31"/>
<polygon fill="black" stroke="black" points="169.5,-291.84 160.22,-296.96 170.67,-298.75 169.5,-291.84"/>
<text text-anchor="start" x="271.5" y="-156.2" font-family="Courier New" font-weight="bold" font-size="12.00" fill="blue">LOADVIEW(0IDV_GRNDCNT1)</text>
</g>
</g>
</svg>
