<?xml version="1.0" encoding="UTF-8" standalone="no"?>
<!DOCTYPE svg PUBLIC "-//W3C//DTD SVG 1.1//EN"
 "http://www.w3.org/Graphics/SVG/1.1/DTD/svg11.dtd">
<!-- Generated by graphviz version 7.1.0 (20230121.1956)
 -->
<!-- Pages: 1 -->
<svg width="424pt" height="404pt"
 viewBox="0.00 0.00 423.91 404.20" xmlns="http://www.w3.org/2000/svg" xmlns:xlink="http://www.w3.org/1999/xlink">
<g id="graph0" class="graph" transform="scale(1 1) rotate(0) translate(4 400.2)">
<polygon fill="white" stroke="none" points="-4,4 -4,-400.2 419.91,-400.2 419.91,4 -4,4"/>
<!-- M_ANIPORTAL_0 -->
<g id="node1" class="node">
<title>M_ANIPORTAL_0</title>
<polygon fill="none" stroke="black" points="108,-359.7 108,-395.7 236.78,-395.7 236.78,-359.7 108,-359.7"/>
<text text-anchor="middle" x="172.39" y="-373.5" font-family="Times,serif" font-size="14.00">M_ANIPORTAL_0</text>
</g>
<!-- M_ANIPORTAL_1 -->
<g id="node2" class="node">
<title>M_ANIPORTAL_1</title>
<polygon fill="none" stroke="black" points="108,-269.9 108,-305.9 236.78,-305.9 236.78,-269.9 108,-269.9"/>
<text text-anchor="middle" x="172.39" y="-283.7" font-family="Times,serif" font-size="14.00">M_ANIPORTAL_1</text>
</g>
<!-- M_ANIPORTAL_0&#45;&gt;M_ANIPORTAL_1 -->
<g id="edge1" class="edge">
<title>M_ANIPORTAL_0&#45;&gt;M_ANIPORTAL_1</title>
<path fill="none" stroke="green" d="M172.39,-359.77C172.39,-347.62 172.39,-330.98 172.39,-316.87"/>
<polygon fill="green" stroke="green" points="175.89,-317.29 172.39,-307.29 168.89,-317.29 175.89,-317.29"/>
<text text-anchor="start" x="172.39" y="-329.6" font-family="Times,serif" font-size="14.00" fill="green"> </text>
<text text-anchor="start" x="175.89" y="-329.6" font-family="Courier New" font-size="10.00" fill="green">MOV(WSPRITE,WIP1)</text>
</g>
<!-- M_ANIPORTAL_2 -->
<g id="node3" class="node">
<title>M_ANIPORTAL_2</title>
<polygon fill="none" stroke="black" points="31,-180.1 31,-216.1 159.78,-216.1 159.78,-180.1 31,-180.1"/>
<text text-anchor="middle" x="95.39" y="-193.9" font-family="Times,serif" font-size="14.00">M_ANIPORTAL_2</text>
</g>
<!-- M_ANIPORTAL_1&#45;&gt;M_ANIPORTAL_2 -->
<g id="edge2" class="edge">
<title>M_ANIPORTAL_1&#45;&gt;M_ANIPORTAL_2</title>
<path fill="none" stroke="green" d="M126.28,-269.95C118.1,-265.09 110.43,-258.98 104.87,-251.4 99.75,-244.42 97.11,-235.54 95.82,-227.08"/>
<polygon fill="green" stroke="green" points="99.31,-226.8 94.91,-217.15 92.33,-227.43 99.31,-226.8"/>
<text text-anchor="start" x="105.39" y="-239.8" font-family="Times,serif" font-size="14.00" fill="green"> </text>
<text text-anchor="start" x="108.89" y="-239.8" font-family="Courier New" font-size="10.00" fill="green">ASHOW(WSPRITE,V_LOOP)</text>
</g>
<!-- M_ANIPORTAL_3 -->
<g id="node4" class="node">
<title>M_ANIPORTAL_3</title>
<polygon fill="none" stroke="black" points="0,-90.3 0,-126.3 128.78,-126.3 128.78,-90.3 0,-90.3"/>
<text text-anchor="middle" x="64.39" y="-104.1" font-family="Times,serif" font-size="14.00">M_ANIPORTAL_3</text>
</g>
<!-- M_ANIPORTAL_2&#45;&gt;M_ANIPORTAL_3 -->
<g id="edge3" class="edge">
<title>M_ANIPORTAL_2&#45;&gt;M_ANIPORTAL_3</title>
<path fill="none" stroke="red" d="M89.41,-180.17C85.08,-167.9 79.13,-151.05 74.12,-136.85"/>
<polygon fill="red" stroke="red" points="77.48,-135.87 70.85,-127.6 70.88,-138.2 77.48,-135.87"/>
<text text-anchor="start" x="83.39" y="-150" font-family="Times,serif" font-size="14.00" fill="red"> </text>
<text text-anchor="start" x="86.89" y="-150" font-family="Courier New" font-size="10.00" fill="red">CLICK(0,0)</text>
</g>
<!-- M_ANIPORTAL_4 -->
<g id="node5" class="node">
<title>M_ANIPORTAL_4</title>
<polygon fill="none" stroke="black" points="90,-0.5 90,-36.5 218.78,-36.5 218.78,-0.5 90,-0.5"/>
<text text-anchor="middle" x="154.39" y="-14.3" font-family="Times,serif" font-size="14.00">M_ANIPORTAL_4</text>
</g>
<!-- M_ANIPORTAL_3&#45;&gt;M_ANIPORTAL_4 -->
<g id="edge4" class="edge">
<title>M_ANIPORTAL_3&#45;&gt;M_ANIPORTAL_4</title>
<path fill="none" stroke="green" d="M59.1,-90.32C56.75,-79.32 55.88,-65.19 62.86,-55 67.5,-48.23 73.62,-42.75 80.52,-38.32"/>
<polygon fill="green" stroke="green" points="81.94,-41.53 89,-33.63 78.55,-35.41 81.94,-41.53"/>
<text text-anchor="start" x="63.39" y="-60.2" font-family="Times,serif" font-size="14.00" fill="green"> </text>
<text text-anchor="start" x="66.89" y="-60.2" font-family="Courier New" font-size="10.00" fill="green">SIGNALi(SIG_OPEN,S01_NATURE)</text>
</g>
<!-- M_ANIPORTAL_4&#45;&gt;M_ANIPORTAL_1 -->
<g id="edge5" class="edge">
<title>M_ANIPORTAL_4&#45;&gt;M_ANIPORTAL_1</title>
<path fill="none" stroke="green" d="M214.13,-36.39C222.15,-41.15 229.34,-47.23 234.39,-55 281.98,-128.18 278.17,-175.88 234.39,-251.4 231.84,-255.8 228.51,-259.71 224.72,-263.16"/>
<polygon fill="green" stroke="green" points="222.8,-260.22 217.01,-269.09 227.07,-265.77 222.8,-260.22"/>
<text text-anchor="start" x="268.39" y="-150" font-family="Times,serif" font-size="14.00" fill="green"> </text>
<text text-anchor="start" x="271.89" y="-150" font-family="Courier New" font-size="10.00" fill="green">LOADVIEW(0,IDV_GRNDCNT1)</text>
</g>
</g>
</svg>
