<?xml version="1.0" encoding="UTF-8" standalone="no"?>
<!DOCTYPE svg PUBLIC "-//W3C//DTD SVG 1.1//EN"
 "http://www.w3.org/Graphics/SVG/1.1/DTD/svg11.dtd">
<!-- Generated by graphviz version 7.1.0 (20230121.1956)
 -->
<!-- Title: Automaton Pages: 1 -->
<svg width="442pt" height="429pt"
 viewBox="0.00 0.00 442.00 429.00" xmlns="http://www.w3.org/2000/svg" xmlns:xlink="http://www.w3.org/1999/xlink">
<g id="graph0" class="graph" transform="scale(1 1) rotate(0) translate(4 425)">
<title>Automaton</title>
<polygon fill="white" stroke="none" points="-4,4 -4,-425 438,-425 438,4 -4,4"/>
<!-- filename -->
<g id="node1" class="node">
<title>filename</title>
<polygon fill="none" stroke="black" points="0,-368.5 0,-420.5 118,-420.5 118,-368.5 0,-368.5"/>
<polygon fill="none" stroke="black" points="11,-395.5 11,-413.5 107,-413.5 107,-395.5 11,-395.5"/>
<text text-anchor="start" x="25.99" y="-402.5" font-family="Courier New" font-weight="bold" font-size="10.00">M_ANIPORTAL</text>
<polygon fill="none" stroke="black" points="11,-375.5 11,-393.5 107,-393.5 107,-375.5 11,-375.5"/>
<text text-anchor="start" x="14" y="-381.5" font-family="Courier New" font-size="10.00" fill="brown">start state = 0</text>
<polygon fill="none" stroke="black" points="8,-372.5 8,-416.5 110,-416.5 110,-372.5 8,-372.5"/>
</g>
<!-- 0 -->
<g id="node2" class="node">
<title>0</title>
<polyline fill="none" stroke="darkred" points="156,-383.5 170,-383.5"/>
<text text-anchor="start" x="159" y="-390.9" font-family="Courier New" font-weight="bold" font-size="14.00">0</text>
<path fill="none" stroke="darkred" d="M159.67,-380.5C159.67,-380.5 166.33,-380.5 166.33,-380.5 169.67,-380.5 173,-383.83 173,-387.17 173,-387.17 173,-401.83 173,-401.83 173,-405.17 169.67,-408.5 166.33,-408.5 166.33,-408.5 159.67,-408.5 159.67,-408.5 156.33,-408.5 153,-405.17 153,-401.83 153,-401.83 153,-387.17 153,-387.17 153,-383.83 156.33,-380.5 159.67,-380.5"/>
</g>
<!-- 1 -->
<g id="node3" class="node">
<title>1</title>
<polyline fill="none" stroke="darkred" points="156,-283 170,-283"/>
<text text-anchor="start" x="159" y="-290.4" font-family="Courier New" font-weight="bold" font-size="14.00">1</text>
<path fill="none" stroke="darkred" d="M159.67,-280C159.67,-280 166.33,-280 166.33,-280 169.67,-280 173,-283.33 173,-286.67 173,-286.67 173,-301.33 173,-301.33 173,-304.67 169.67,-308 166.33,-308 166.33,-308 159.67,-308 159.67,-308 156.33,-308 153,-304.67 153,-301.33 153,-301.33 153,-286.67 153,-286.67 153,-283.33 156.33,-280 159.67,-280"/>
</g>
<!-- 0&#45;&gt;1 -->
<g id="edge1" class="edge">
<title>0&#45;&gt;1</title>
<path fill="none" stroke="black" d="M163,-376.79C163,-362.14 163,-340.55 163,-323.23"/>
<polygon fill="black" stroke="black" points="166.5,-323.3 163,-313.3 159.5,-323.3 166.5,-323.3"/>
<text text-anchor="start" x="167" y="-338" font-family="Courier New" font-weight="bold" font-size="10.00" fill="blue">MOV(WSPRITE,WIP1)</text>
</g>
<!-- 2 -->
<g id="node4" class="node">
<title>2</title>
<polyline fill="none" stroke="darkred" points="79,-191 93,-191"/>
<text text-anchor="start" x="82" y="-198.4" font-family="Courier New" font-weight="bold" font-size="14.00">2</text>
<path fill="none" stroke="darkred" d="M82.67,-188C82.67,-188 89.33,-188 89.33,-188 92.67,-188 96,-191.33 96,-194.67 96,-194.67 96,-209.33 96,-209.33 96,-212.67 92.67,-216 89.33,-216 89.33,-216 82.67,-216 82.67,-216 79.33,-216 76,-212.67 76,-209.33 76,-209.33 76,-194.67 76,-194.67 76,-191.33 79.33,-188 82.67,-188"/>
</g>
<!-- 1&#45;&gt;2 -->
<g id="edge2" class="edge">
<title>1&#45;&gt;2</title>
<path fill="none" stroke="black" d="M136.17,-278.93C127.31,-273.32 117.96,-266.22 111,-258 104.23,-250 98.94,-239.87 95,-230.49"/>
<polygon fill="black" stroke="black" points="98.37,-229.5 91.53,-221.4 91.83,-232 98.37,-229.5"/>
<text text-anchor="start" x="115" y="-246" font-family="Courier New" font-weight="bold" font-size="10.00" fill="blue">ASHOW(WSPRITE,V_LOOP)</text>
</g>
<!-- 3 -->
<g id="node5" class="node">
<title>3</title>
<polyline fill="none" stroke="darkred" points="64,-99 78,-99"/>
<text text-anchor="start" x="67" y="-106.4" font-family="Courier New" font-weight="bold" font-size="14.00">3</text>
<path fill="none" stroke="darkred" d="M67.67,-96C67.67,-96 74.33,-96 74.33,-96 77.67,-96 81,-99.33 81,-102.67 81,-102.67 81,-117.33 81,-117.33 81,-120.67 77.67,-124 74.33,-124 74.33,-124 67.67,-124 67.67,-124 64.33,-124 61,-120.67 61,-117.33 61,-117.33 61,-102.67 61,-102.67 61,-99.33 64.33,-96 67.67,-96"/>
</g>
<!-- 2&#45;&gt;3 -->
<g id="edge3" class="edge">
<title>2&#45;&gt;3</title>
<path fill="none" stroke="black" d="M83.18,-184.07C81.06,-171.38 78.12,-153.71 75.66,-138.94"/>
<polygon fill="black" stroke="black" points="79.15,-138.63 74.06,-129.35 72.25,-139.78 79.15,-138.63"/>
<text text-anchor="start" x="84" y="-154" font-family="Courier New" font-weight="bold" font-size="10.00" fill="orange">CLICK(0,0)</text>
</g>
<!-- 4 -->
<g id="node6" class="node">
<title>4</title>
<polyline fill="none" stroke="darkred" points="156,-7 170,-7"/>
<text text-anchor="start" x="159" y="-14.4" font-family="Courier New" font-weight="bold" font-size="14.00">4</text>
<path fill="none" stroke="darkred" d="M159.67,-4C159.67,-4 166.33,-4 166.33,-4 169.67,-4 173,-7.33 173,-10.67 173,-10.67 173,-25.33 173,-25.33 173,-28.67 169.67,-32 166.33,-32 166.33,-32 159.67,-32 159.67,-32 156.33,-32 153,-28.67 153,-25.33 153,-25.33 153,-10.67 153,-10.67 153,-7.33 156.33,-4 159.67,-4"/>
</g>
<!-- 3&#45;&gt;4 -->
<g id="edge4" class="edge">
<title>3&#45;&gt;4</title>
<path fill="none" stroke="black" d="M65.44,-92.12C62.68,-80.4 61.37,-64.99 69,-54 81.6,-35.86 104.78,-27.11 124.97,-22.89"/>
<polygon fill="black" stroke="black" points="125.37,-26.37 134.61,-21.2 124.16,-19.48 125.37,-26.37"/>
<text text-anchor="start" x="73" y="-62" font-family="Courier New" font-weight="bold" font-size="10.00" fill="blue">SIGNALi(SIG_OPEN,S01_NATURE)</text>
</g>
<!-- 4&#45;&gt;1 -->
<g id="edge5" class="edge">
<title>4&#45;&gt;1</title>
<path fill="none" stroke="black" d="M189.7,-22.64C208.64,-26.77 232.8,-35.53 245,-54 294.97,-129.66 294.97,-182.34 245,-258 235.09,-273.01 217.28,-281.6 200.79,-286.51"/>
<polygon fill="black" stroke="black" points="199.98,-283.11 191.16,-288.98 201.72,-289.89 199.98,-283.11"/>
<text text-anchor="start" x="286" y="-154" font-family="Courier New" font-weight="bold" font-size="10.00" fill="blue">LOADVIEW(0,IDV_GRNDCNT1)</text>
</g>
</g>
</svg>
