<?xml version="1.0" encoding="UTF-8" standalone="no"?>
<!DOCTYPE svg PUBLIC "-//W3C//DTD SVG 1.1//EN"
 "http://www.w3.org/Graphics/SVG/1.1/DTD/svg11.dtd">
<!-- Generated by graphviz version 7.1.0 (20230121.1956)
 -->
<!-- Pages: 1 -->
<svg width="482pt" height="853pt"
 viewBox="0.00 0.00 482.07 853.20" xmlns="http://www.w3.org/2000/svg" xmlns:xlink="http://www.w3.org/1999/xlink">
<g id="graph0" class="graph" transform="scale(1 1) rotate(0) translate(4 849.2)">
<polygon fill="white" stroke="none" points="-4,4 -4,-849.2 478.07,-849.2 478.07,4 -4,4"/>
<!-- M_AURA_0 -->
<g id="node1" class="node">
<title>M_AURA_0</title>
<polygon fill="none" stroke="black" points="255,-808.7 255,-844.7 344.12,-844.7 344.12,-808.7 255,-808.7"/>
<text text-anchor="middle" x="299.56" y="-822.5" font-family="Times,serif" font-size="14.00">M_AURA_0</text>
</g>
<!-- M_AURA_2 -->
<g id="node2" class="node">
<title>M_AURA_2</title>
<polygon fill="none" stroke="black" points="255,-718.9 255,-754.9 344.12,-754.9 344.12,-718.9 255,-718.9"/>
<text text-anchor="middle" x="299.56" y="-732.7" font-family="Times,serif" font-size="14.00">M_AURA_2</text>
</g>
<!-- M_AURA_0&#45;&gt;M_AURA_2 -->
<g id="edge1" class="edge">
<title>M_AURA_0&#45;&gt;M_AURA_2</title>
<path fill="none" stroke="green" d="M299.56,-808.77C299.56,-796.62 299.56,-779.98 299.56,-765.87"/>
<polygon fill="green" stroke="green" points="303.06,-766.29 299.56,-756.29 296.06,-766.29 303.06,-766.29"/>
<text text-anchor="start" x="299.56" y="-778.6" font-family="Times,serif" font-size="14.00" fill="green"> </text>
<text text-anchor="start" x="303.06" y="-778.6" font-family="Courier New" font-size="10.00" fill="green">Z_EPSILON(0,0)</text>
</g>
<!-- M_AURA_4 -->
<g id="node5" class="node">
<title>M_AURA_4</title>
<polygon fill="none" stroke="black" points="90,-629.1 90,-665.1 179.12,-665.1 179.12,-629.1 90,-629.1"/>
<text text-anchor="middle" x="134.56" y="-642.9" font-family="Times,serif" font-size="14.00">M_AURA_4</text>
</g>
<!-- M_AURA_2&#45;&gt;M_AURA_4 -->
<g id="edge5" class="edge">
<title>M_AURA_2&#45;&gt;M_AURA_4</title>
<path fill="none" stroke="green" d="M255.13,-724.1C236.81,-718.3 215.78,-710.38 198.04,-700.4 184.49,-692.77 170.99,-682.17 159.93,-672.51"/>
<polygon fill="green" stroke="green" points="162.54,-670.14 152.77,-666.04 157.85,-675.34 162.54,-670.14"/>
<text text-anchor="start" x="197.56" y="-688.8" font-family="Times,serif" font-size="14.00" fill="green"> </text>
<text text-anchor="start" x="201.06" y="-688.8" font-family="Courier New" font-size="10.00" fill="green">ASSIGN(WPARM,)</text>
</g>
<!-- M_AURA_1 -->
<g id="node3" class="node">
<title>M_AURA_1</title>
<polygon fill="none" stroke="black" points="194,-90.3 194,-126.3 283.12,-126.3 283.12,-90.3 194,-90.3"/>
<text text-anchor="middle" x="238.56" y="-104.1" font-family="Times,serif" font-size="14.00">M_AURA_1</text>
</g>
<!-- M_AURA_1&#45;&gt;M_AURA_2 -->
<g id="edge2" class="edge">
<title>M_AURA_1&#45;&gt;M_AURA_2</title>
<path fill="none" stroke="red" d="M267.2,-126.19C274.05,-131.4 280.76,-137.68 285.56,-144.8 299,-164.76 299.56,-173.04 299.56,-197.1 299.56,-648.1 299.56,-648.1 299.56,-648.1 299.56,-667.97 299.56,-690.37 299.56,-707.57"/>
<polygon fill="red" stroke="red" points="296.06,-707.55 299.56,-717.55 303.06,-707.55 296.06,-707.55"/>
<text text-anchor="start" x="299.56" y="-419.4" font-family="Times,serif" font-size="14.00" fill="red"> </text>
<text text-anchor="start" x="303.06" y="-419.4" font-family="Courier New" font-size="10.00" fill="red">WAIT(0,SIG_ADD)</text>
</g>
<!-- M_AURA_1&#45;&gt;M_AURA_2 -->
<g id="edge4" class="edge">
<title>M_AURA_1&#45;&gt;M_AURA_2</title>
<path fill="none" stroke="red" d="M283.02,-112.26C335.74,-118.46 416.56,-137.66 416.56,-197.1 416.56,-648.1 416.56,-648.1 416.56,-648.1 416.56,-682.1 384.57,-704.55 354.04,-718.23"/>
<polygon fill="red" stroke="red" points="353.05,-714.85 345.19,-721.95 355.76,-721.3 353.05,-714.85"/>
<text text-anchor="start" x="416.56" y="-419.4" font-family="Times,serif" font-size="14.00" fill="red"> </text>
<text text-anchor="start" x="420.06" y="-419.4" font-family="Courier New" font-size="10.00" fill="red">WAIT(0,0)</text>
</g>
<!-- M_AURA_3 -->
<g id="node4" class="node">
<title>M_AURA_3</title>
<polygon fill="none" stroke="black" points="0,-0.5 0,-36.5 89.12,-36.5 89.12,-0.5 0,-0.5"/>
<text text-anchor="middle" x="44.56" y="-14.3" font-family="Times,serif" font-size="14.00">M_AURA_3</text>
</g>
<!-- M_AURA_1&#45;&gt;M_AURA_3 -->
<g id="edge3" class="edge">
<title>M_AURA_1&#45;&gt;M_AURA_3</title>
<path fill="none" stroke="red" d="M201.15,-90.37C170.02,-76.28 125.52,-56.14 91.9,-40.93"/>
<polygon fill="red" stroke="red" points="93.78,-37.94 83.23,-37 90.9,-44.31 93.78,-37.94"/>
<text text-anchor="start" x="158.56" y="-60.2" font-family="Times,serif" font-size="14.00" fill="red"> </text>
<text text-anchor="start" x="162.06" y="-60.2" font-family="Courier New" font-size="10.00" fill="red">WAIT(0,SIG_SUB)</text>
</g>
<!-- M_AURA_3&#45;&gt;M_AURA_4 -->
<g id="edge6" class="edge">
<title>M_AURA_3&#45;&gt;M_AURA_4</title>
<path fill="none" stroke="green" d="M39.58,-36.49C34.89,-54.06 28.56,-82.35 28.56,-107.3 28.56,-558.3 28.56,-558.3 28.56,-558.3 28.56,-588.39 54.2,-610.12 80.26,-624.43"/>
<polygon fill="green" stroke="green" points="78.38,-627.4 88.87,-628.87 81.58,-621.18 78.38,-627.4"/>
<text text-anchor="start" x="28.56" y="-329.6" font-family="Times,serif" font-size="14.00" fill="green"> </text>
<text text-anchor="start" x="32.06" y="-329.6" font-family="Courier New" font-size="10.00" fill="green">ASSIGN(WPARM,V_REVERSE)</text>
</g>
<!-- M_AURA_5 -->
<g id="node6" class="node">
<title>M_AURA_5</title>
<polygon fill="none" stroke="black" points="90,-539.3 90,-575.3 179.12,-575.3 179.12,-539.3 90,-539.3"/>
<text text-anchor="middle" x="134.56" y="-553.1" font-family="Times,serif" font-size="14.00">M_AURA_5</text>
</g>
<!-- M_AURA_4&#45;&gt;M_AURA_5 -->
<g id="edge7" class="edge">
<title>M_AURA_4&#45;&gt;M_AURA_5</title>
<path fill="none" stroke="green" d="M134.56,-629.17C134.56,-617.02 134.56,-600.38 134.56,-586.27"/>
<polygon fill="green" stroke="green" points="138.06,-586.69 134.56,-576.69 131.06,-586.69 138.06,-586.69"/>
<text text-anchor="start" x="134.56" y="-599" font-family="Times,serif" font-size="14.00" fill="green"> </text>
<text text-anchor="start" x="138.06" y="-599" font-family="Courier New" font-size="10.00" fill="green">MOV(WSPRITE,LENERGY)</text>
</g>
<!-- M_AURA_6 -->
<g id="node7" class="node">
<title>M_AURA_6</title>
<polygon fill="none" stroke="black" points="90,-449.5 90,-485.5 179.12,-485.5 179.12,-449.5 90,-449.5"/>
<text text-anchor="middle" x="134.56" y="-463.3" font-family="Times,serif" font-size="14.00">M_AURA_6</text>
</g>
<!-- M_AURA_5&#45;&gt;M_AURA_6 -->
<g id="edge8" class="edge">
<title>M_AURA_5&#45;&gt;M_AURA_6</title>
<path fill="none" stroke="green" d="M134.56,-539.37C134.56,-527.22 134.56,-510.58 134.56,-496.47"/>
<polygon fill="green" stroke="green" points="138.06,-496.89 134.56,-486.89 131.06,-496.89 138.06,-496.89"/>
<text text-anchor="start" x="134.56" y="-509.2" font-family="Times,serif" font-size="14.00" fill="green"> </text>
<text text-anchor="start" x="138.06" y="-509.2" font-family="Courier New" font-size="10.00" fill="green">MODI(WSPRITE,MAX_AURAS)</text>
</g>
<!-- M_AURA_7 -->
<g id="node8" class="node">
<title>M_AURA_7</title>
<polygon fill="none" stroke="black" points="120,-359.7 120,-395.7 209.12,-395.7 209.12,-359.7 120,-359.7"/>
<text text-anchor="middle" x="164.56" y="-373.5" font-family="Times,serif" font-size="14.00">M_AURA_7</text>
</g>
<!-- M_AURA_6&#45;&gt;M_AURA_7 -->
<g id="edge9" class="edge">
<title>M_AURA_6&#45;&gt;M_AURA_7</title>
<path fill="none" stroke="green" d="M132.38,-449.97C131.63,-439.42 131.83,-425.62 136.04,-414.2 137.23,-410.97 138.84,-407.8 140.69,-404.78"/>
<polygon fill="green" stroke="green" points="143.35,-407.09 146.35,-396.93 137.67,-403 143.35,-407.09"/>
<text text-anchor="start" x="135.56" y="-419.4" font-family="Times,serif" font-size="14.00" fill="green"> </text>
<text text-anchor="start" x="139.06" y="-419.4" font-family="Courier New" font-size="10.00" fill="green">ADDI(WSPRITE,IDS_AURA1)</text>
</g>
<!-- M_AURA_8 -->
<g id="node9" class="node">
<title>M_AURA_8</title>
<polygon fill="none" stroke="black" points="145,-269.9 145,-305.9 234.12,-305.9 234.12,-269.9 145,-269.9"/>
<text text-anchor="middle" x="189.56" y="-283.7" font-family="Times,serif" font-size="14.00">M_AURA_8</text>
</g>
<!-- M_AURA_7&#45;&gt;M_AURA_8 -->
<g id="edge10" class="edge">
<title>M_AURA_7&#45;&gt;M_AURA_8</title>
<path fill="none" stroke="green" d="M169.38,-359.77C172.87,-347.5 177.67,-330.65 181.71,-316.45"/>
<polygon fill="green" stroke="green" points="184.97,-317.81 184.34,-307.23 178.23,-315.89 184.97,-317.81"/>
<text text-anchor="start" x="178.56" y="-329.6" font-family="Times,serif" font-size="14.00" fill="green"> </text>
<text text-anchor="start" x="182.06" y="-329.6" font-family="Courier New" font-size="10.00" fill="green">SHOW(WSPRITE,)</text>
</g>
<!-- M_AURA_9 -->
<g id="node10" class="node">
<title>M_AURA_9</title>
<polygon fill="none" stroke="black" points="137,-180.1 137,-216.1 226.12,-216.1 226.12,-180.1 137,-180.1"/>
<text text-anchor="middle" x="181.56" y="-193.9" font-family="Times,serif" font-size="14.00">M_AURA_9</text>
</g>
<!-- M_AURA_8&#45;&gt;M_AURA_9 -->
<g id="edge11" class="edge">
<title>M_AURA_8&#45;&gt;M_AURA_9</title>
<path fill="none" stroke="green" d="M188.02,-269.97C186.91,-257.82 185.39,-241.18 184.11,-227.07"/>
<polygon fill="green" stroke="green" points="187.63,-227.13 183.23,-217.48 180.66,-227.76 187.63,-227.13"/>
<text text-anchor="start" x="185.56" y="-239.8" font-family="Times,serif" font-size="14.00" fill="green"> </text>
<text text-anchor="start" x="189.06" y="-239.8" font-family="Courier New" font-size="10.00" fill="green">ANIMATE(WPARM,)</text>
</g>
<!-- M_AURA_9&#45;&gt;M_AURA_1 -->
<g id="edge12" class="edge">
<title>M_AURA_9&#45;&gt;M_AURA_1</title>
<path fill="none" stroke="green" d="M176.88,-180.49C174.79,-169.65 173.98,-155.57 180.04,-144.8 182.44,-140.55 185.57,-136.75 189.14,-133.36"/>
<polygon fill="green" stroke="green" points="191.3,-136.11 196.94,-127.14 186.94,-130.64 191.3,-136.11"/>
<text text-anchor="start" x="179.56" y="-150" font-family="Times,serif" font-size="14.00" fill="green"> </text>
<text text-anchor="start" x="183.06" y="-150" font-family="Courier New" font-size="10.00" fill="green">SIGNALi(0,SID_ID)</text>
</g>
</g>
</svg>
