<?xml version="1.0" encoding="UTF-8" standalone="no"?>
<!DOCTYPE svg PUBLIC "-//W3C//DTD SVG 1.1//EN"
 "http://www.w3.org/Graphics/SVG/1.1/DTD/svg11.dtd">
<!-- Generated by graphviz version 7.1.0 (20230121.1956)
 -->
<!-- Pages: 1 -->
<svg width="481pt" height="872pt"
 viewBox="0.00 0.00 481.00 872.00" xmlns="http://www.w3.org/2000/svg" xmlns:xlink="http://www.w3.org/1999/xlink">
<g id="graph0" class="graph" transform="scale(1 1) rotate(0) translate(4 868)">
<polygon fill="white" stroke="none" points="-4,4 -4,-868 477,-868 477,4 -4,4"/>
<!-- 0 -->
<g id="node1" class="node">
<title>0</title>
<ellipse fill="none" stroke="black" cx="290" cy="-846" rx="27" ry="18"/>
<text text-anchor="middle" x="290" y="-841.8" font-family="Times,serif" font-size="14.00">0</text>
</g>
<!-- 2 -->
<g id="node2" class="node">
<title>2</title>
<ellipse fill="none" stroke="black" cx="290" cy="-754" rx="27" ry="18"/>
<text text-anchor="middle" x="290" y="-749.8" font-family="Times,serif" font-size="14.00">2</text>
</g>
<!-- 0&#45;&gt;2 -->
<g id="edge1" class="edge">
<title>0&#45;&gt;2</title>
<path fill="none" stroke="black" d="M290,-827.65C290,-815.2 290,-798.14 290,-783.68"/>
<polygon fill="black" stroke="black" points="293.5,-783.81 290,-773.81 286.5,-783.81 293.5,-783.81"/>
<text text-anchor="start" x="294" y="-798" font-family="Courier New" font-weight="bold" font-size="10.00" fill="blue">Z_EPSILON(0,0)</text>
</g>
<!-- 4 -->
<g id="node5" class="node">
<title>4</title>
<ellipse fill="none" stroke="black" cx="121" cy="-662" rx="27" ry="18"/>
<text text-anchor="middle" x="121" y="-657.8" font-family="Times,serif" font-size="14.00">4</text>
</g>
<!-- 2&#45;&gt;4 -->
<g id="edge5" class="edge">
<title>2&#45;&gt;4</title>
<path fill="none" stroke="black" d="M264.4,-747.59C242.16,-742.2 209.59,-732.59 184,-718 168.92,-709.4 154.19,-696.84 142.77,-685.9"/>
<polygon fill="black" stroke="black" points="145.37,-683.55 135.8,-679 140.45,-688.52 145.37,-683.55"/>
<text text-anchor="start" x="188" y="-706" font-family="Courier New" font-weight="bold" font-size="10.00" fill="blue">ASSIGN(WPARM,)</text>
</g>
<!-- 1 -->
<g id="node3" class="node">
<title>1</title>
<ellipse fill="none" stroke="black" cx="227" cy="-110" rx="27" ry="18"/>
<text text-anchor="middle" x="227" y="-105.8" font-family="Times,serif" font-size="14.00">1</text>
</g>
<!-- 1&#45;&gt;2 -->
<g id="edge2" class="edge">
<title>1&#45;&gt;2</title>
<path fill="none" stroke="black" d="M248.29,-121.67C258.08,-127.59 269.04,-135.82 276,-146 290.24,-166.82 290,-175.78 290,-201 290,-663 290,-663 290,-663 290,-683.57 290,-706.78 290,-724.47"/>
<polygon fill="black" stroke="black" points="286.5,-724.23 290,-734.23 293.5,-724.23 286.5,-724.23"/>
<text text-anchor="start" x="294" y="-430" font-family="Courier New" font-weight="bold" font-size="10.00" fill="orange">WAIT(0,SIG_ADD)</text>
</g>
<!-- 1&#45;&gt;2 -->
<g id="edge4" class="edge">
<title>1&#45;&gt;2</title>
<path fill="none" stroke="black" d="M254.15,-112.14C305.33,-115.9 411,-132.01 411,-201 411,-663 411,-663 411,-663 411,-705.94 361.32,-730.81 325.63,-743.13"/>
<polygon fill="black" stroke="black" points="324.94,-739.67 316.51,-746.09 327.1,-746.33 324.94,-739.67"/>
<text text-anchor="start" x="415" y="-430" font-family="Courier New" font-weight="bold" font-size="10.00" fill="orange">WAIT(0,0)</text>
</g>
<!-- 3 -->
<g id="node4" class="node">
<title>3</title>
<ellipse fill="none" stroke="black" cx="27" cy="-18" rx="27" ry="18"/>
<text text-anchor="middle" x="27" y="-13.8" font-family="Times,serif" font-size="14.00">3</text>
</g>
<!-- 1&#45;&gt;3 -->
<g id="edge3" class="edge">
<title>1&#45;&gt;3</title>
<path fill="none" stroke="black" d="M205.22,-99.2C169.99,-83.35 100.35,-52.01 59.33,-33.55"/>
<polygon fill="black" stroke="black" points="61,-30.46 50.44,-29.55 58.12,-36.84 61,-30.46"/>
<text text-anchor="start" x="148" y="-62" font-family="Courier New" font-weight="bold" font-size="10.00" fill="orange">WAIT(0,SIG_SUB)</text>
</g>
<!-- 3&#45;&gt;4 -->
<g id="edge6" class="edge">
<title>3&#45;&gt;4</title>
<path fill="none" stroke="black" d="M22.11,-36.09C17.41,-54.08 11,-83.29 11,-109 11,-571 11,-571 11,-571 11,-610.57 54.17,-635.88 86.42,-649.27"/>
<polygon fill="black" stroke="black" points="84.86,-652.42 95.45,-652.81 87.41,-645.9 84.86,-652.42"/>
<text text-anchor="start" x="15" y="-338" font-family="Courier New" font-weight="bold" font-size="10.00" fill="blue">ASSIGN(WPARM,V_REVERSE)</text>
</g>
<!-- 5 -->
<g id="node6" class="node">
<title>5</title>
<ellipse fill="none" stroke="black" cx="121" cy="-570" rx="27" ry="18"/>
<text text-anchor="middle" x="121" y="-565.8" font-family="Times,serif" font-size="14.00">5</text>
</g>
<!-- 4&#45;&gt;5 -->
<g id="edge7" class="edge">
<title>4&#45;&gt;5</title>
<path fill="none" stroke="black" d="M121,-643.65C121,-631.2 121,-614.14 121,-599.68"/>
<polygon fill="black" stroke="black" points="124.5,-599.81 121,-589.81 117.5,-599.81 124.5,-599.81"/>
<text text-anchor="start" x="125" y="-614" font-family="Courier New" font-weight="bold" font-size="10.00" fill="blue">MOV(WSPRITE,LENERGY)</text>
</g>
<!-- 6 -->
<g id="node7" class="node">
<title>6</title>
<ellipse fill="none" stroke="black" cx="121" cy="-478" rx="27" ry="18"/>
<text text-anchor="middle" x="121" y="-473.8" font-family="Times,serif" font-size="14.00">6</text>
</g>
<!-- 5&#45;&gt;6 -->
<g id="edge8" class="edge">
<title>5&#45;&gt;6</title>
<path fill="none" stroke="black" d="M121,-551.65C121,-539.2 121,-522.14 121,-507.68"/>
<polygon fill="black" stroke="black" points="124.5,-507.81 121,-497.81 117.5,-507.81 124.5,-507.81"/>
<text text-anchor="start" x="125" y="-522" font-family="Courier New" font-weight="bold" font-size="10.00" fill="blue">MODI(WSPRITE,MAX_AURAS)</text>
</g>
<!-- 7 -->
<g id="node8" class="node">
<title>7</title>
<ellipse fill="none" stroke="black" cx="150" cy="-386" rx="27" ry="18"/>
<text text-anchor="middle" x="150" y="-381.8" font-family="Times,serif" font-size="14.00">7</text>
</g>
<!-- 6&#45;&gt;7 -->
<g id="edge9" class="edge">
<title>6&#45;&gt;7</title>
<path fill="none" stroke="black" d="M118.5,-459.63C117.58,-448.54 117.65,-434.04 122,-422 123.46,-417.96 125.59,-414.03 128.04,-410.35"/>
<polygon fill="black" stroke="black" points="130.75,-412.57 134.09,-402.51 125.21,-408.29 130.75,-412.57"/>
<text text-anchor="start" x="126" y="-430" font-family="Courier New" font-weight="bold" font-size="10.00" fill="blue">ADDI(WSPRITE,IDS_AURA1)</text>
</g>
<!-- 8 -->
<g id="node9" class="node">
<title>8</title>
<ellipse fill="none" stroke="black" cx="177" cy="-294" rx="27" ry="18"/>
<text text-anchor="middle" x="177" y="-289.8" font-family="Times,serif" font-size="14.00">8</text>
</g>
<!-- 7&#45;&gt;8 -->
<g id="edge10" class="edge">
<title>7&#45;&gt;8</title>
<path fill="none" stroke="black" d="M155.08,-368.07C158.9,-355.33 164.22,-337.59 168.67,-322.78"/>
<polygon fill="black" stroke="black" points="171.9,-324.19 171.42,-313.61 165.19,-322.18 171.9,-324.19"/>
<text text-anchor="start" x="169" y="-338" font-family="Courier New" font-weight="bold" font-size="10.00" fill="blue">SHOW(WSPRITE,)</text>
</g>
<!-- 9 -->
<g id="node10" class="node">
<title>9</title>
<ellipse fill="none" stroke="black" cx="171" cy="-202" rx="27" ry="18"/>
<text text-anchor="middle" x="171" y="-197.8" font-family="Times,serif" font-size="14.00">9</text>
</g>
<!-- 8&#45;&gt;9 -->
<g id="edge11" class="edge">
<title>8&#45;&gt;9</title>
<path fill="none" stroke="black" d="M175.84,-275.65C175.01,-263.2 173.88,-246.14 172.91,-231.68"/>
<polygon fill="black" stroke="black" points="176.41,-231.55 172.25,-221.81 169.43,-232.02 176.41,-231.55"/>
<text text-anchor="start" x="178" y="-246" font-family="Courier New" font-weight="bold" font-size="10.00" fill="blue">ANIMATE(WPARM,)</text>
</g>
<!-- 9&#45;&gt;1 -->
<g id="edge12" class="edge">
<title>9&#45;&gt;1</title>
<path fill="none" stroke="black" d="M164.57,-184.01C161.34,-172.54 159.37,-157.45 166,-146 171.92,-135.78 182.08,-128.28 192.43,-122.91"/>
<polygon fill="black" stroke="black" points="193.66,-126.2 201.31,-118.86 190.76,-119.83 193.66,-126.2"/>
<text text-anchor="start" x="170" y="-154" font-family="Courier New" font-weight="bold" font-size="10.00" fill="blue">SIGNALi(0,SID_ID)</text>
</g>
</g>
</svg>
