<?xml version="1.0" encoding="UTF-8" standalone="no"?>
<!DOCTYPE svg PUBLIC "-//W3C//DTD SVG 1.1//EN"
 "http://www.w3.org/Graphics/SVG/1.1/DTD/svg11.dtd">
<!-- Generated by graphviz version 7.1.0 (20230121.1956)
 -->
<!-- Pages: 1 -->
<svg width="356pt" height="225pt"
 viewBox="0.00 0.00 356.08 224.60" xmlns="http://www.w3.org/2000/svg" xmlns:xlink="http://www.w3.org/1999/xlink">
<g id="graph0" class="graph" transform="scale(1 1) rotate(0) translate(4 220.6)">
<polygon fill="white" stroke="none" points="-4,4 -4,-220.6 352.08,-220.6 352.08,4 -4,4"/>
<!-- M_BACKBUTTON_0 -->
<g id="node1" class="node">
<title>M_BACKBUTTON_0</title>
<polygon fill="none" stroke="black" points="78,-180.1 78,-216.1 223.12,-216.1 223.12,-180.1 78,-180.1"/>
<text text-anchor="middle" x="150.56" y="-193.9" font-family="Times,serif" font-size="14.00">M_BACKBUTTON_0</text>
</g>
<!-- M_BACKBUTTON_1 -->
<g id="node2" class="node">
<title>M_BACKBUTTON_1</title>
<polygon fill="none" stroke="black" points="0,-90.3 0,-126.3 145.12,-126.3 145.12,-90.3 0,-90.3"/>
<text text-anchor="middle" x="72.56" y="-104.1" font-family="Times,serif" font-size="14.00">M_BACKBUTTON_1</text>
</g>
<!-- M_BACKBUTTON_0&#45;&gt;M_BACKBUTTON_1 -->
<g id="edge1" class="edge">
<title>M_BACKBUTTON_0&#45;&gt;M_BACKBUTTON_1</title>
<path fill="none" stroke="red" d="M135.52,-180.17C124.08,-167.3 108.15,-149.37 95.18,-134.76"/>
<polygon fill="red" stroke="red" points="97.81,-132.46 88.56,-127.31 92.58,-137.11 97.81,-132.46"/>
<text text-anchor="start" x="118.56" y="-150" font-family="Times,serif" font-size="14.00" fill="red"> </text>
<text text-anchor="start" x="122.06" y="-150" font-family="Courier New" font-size="10.00" fill="red">CLICK(0,0)</text>
</g>
<!-- M_BACKBUTTON_2 -->
<g id="node3" class="node">
<title>M_BACKBUTTON_2</title>
<polygon fill="none" stroke="black" points="54,-0.5 54,-36.5 199.12,-36.5 199.12,-0.5 54,-0.5"/>
<text text-anchor="middle" x="126.56" y="-14.3" font-family="Times,serif" font-size="14.00">M_BACKBUTTON_2</text>
</g>
<!-- M_BACKBUTTON_1&#45;&gt;M_BACKBUTTON_2 -->
<g id="edge2" class="edge">
<title>M_BACKBUTTON_1&#45;&gt;M_BACKBUTTON_2</title>
<path fill="none" stroke="green" d="M57.23,-90.59C49.41,-79.97 42.91,-66.17 50.04,-55 52.98,-50.38 56.7,-46.36 60.91,-42.85"/>
<polygon fill="green" stroke="green" points="62.73,-45.84 68.89,-37.22 58.7,-40.12 62.73,-45.84"/>
<text text-anchor="start" x="50.56" y="-60.2" font-family="Times,serif" font-size="14.00" fill="green"> </text>
<text text-anchor="start" x="54.06" y="-60.2" font-family="Courier New" font-size="10.00" fill="green">PLAYWAVE(0,SOUND_POPUP)</text>
</g>
<!-- M_BACKBUTTON_2&#45;&gt;M_BACKBUTTON_0 -->
<g id="edge3" class="edge">
<title>M_BACKBUTTON_2&#45;&gt;M_BACKBUTTON_0</title>
<path fill="none" stroke="green" d="M172.69,-36.44C180.22,-41.27 187.03,-47.37 191.56,-55 215.76,-95.79 206.07,-118.37 186.56,-161.6 184.92,-165.23 182.73,-168.69 180.24,-171.92"/>
<polygon fill="green" stroke="green" points="177.71,-169.5 173.63,-179.27 182.92,-174.18 177.71,-169.5"/>
<text text-anchor="start" x="206.56" y="-105.1" font-family="Times,serif" font-size="14.00" fill="green"> </text>
<text text-anchor="start" x="210.06" y="-105.1" font-family="Courier New" font-size="10.00" fill="green">LOADVIEW(0,IDV_TOPMENU)</text>
</g>
</g>
</svg>
