<?xml version="1.0" encoding="UTF-8" standalone="no"?>
<!DOCTYPE svg PUBLIC "-//W3C//DTD SVG 1.1//EN"
 "http://www.w3.org/Graphics/SVG/1.1/DTD/svg11.dtd">
<!-- Generated by graphviz version 7.1.0 (20230121.1956)
 -->
<!-- Pages: 1 -->
<svg width="293pt" height="326pt"
 viewBox="0.00 0.00 292.58 326.00" xmlns="http://www.w3.org/2000/svg" xmlns:xlink="http://www.w3.org/1999/xlink">
<g id="graph0" class="graph" transform="scale(1 1) rotate(0) translate(4 322)">
<polygon fill="white" stroke="none" points="-4,4 -4,-322 288.58,-322 288.58,4 -4,4"/>
<!-- 0 -->
<g id="node1" class="node">
<title>0</title>
<ellipse fill="none" stroke="black" cx="60.58" cy="-300" rx="27" ry="18"/>
<text text-anchor="middle" x="60.58" y="-295.8" font-family="Times,serif" font-size="14.00">0</text>
</g>
<!-- 1 -->
<g id="node2" class="node">
<title>1</title>
<ellipse fill="none" stroke="black" cx="60.58" cy="-206" rx="27" ry="18"/>
<text text-anchor="middle" x="60.58" y="-201.8" font-family="Times,serif" font-size="14.00">1</text>
</g>
<!-- 0&#45;&gt;1 -->
<g id="edge1" class="edge">
<title>0&#45;&gt;1</title>
<path fill="none" stroke="black" d="M60.58,-281.7C60.58,-268.72 60.58,-250.66 60.58,-235.56"/>
<polygon fill="black" stroke="black" points="64.08,-235.74 60.58,-225.74 57.08,-235.74 64.08,-235.74"/>
<text text-anchor="start" x="65.08" y="-250.2" font-family="Courier New" font-weight="bold" font-size="12.00" fill="blue">ASSIGN(DETIME1000)</text>
</g>
<!-- 3 -->
<g id="node3" class="node">
<title>3</title>
<ellipse fill="none" stroke="black" cx="60.58" cy="-112" rx="27" ry="18"/>
<text text-anchor="middle" x="60.58" y="-107.8" font-family="Times,serif" font-size="14.00">3</text>
</g>
<!-- 1&#45;&gt;3 -->
<g id="edge2" class="edge">
<title>1&#45;&gt;3</title>
<path fill="none" stroke="black" d="M60.58,-187.7C60.58,-174.72 60.58,-156.66 60.58,-141.56"/>
<polygon fill="black" stroke="black" points="64.08,-141.74 60.58,-131.74 57.08,-141.74 64.08,-141.74"/>
<text text-anchor="start" x="64.58" y="-156.2" font-family="Courier New" font-weight="bold" font-size="12.00" fill="blue">SYNCPOINT(DETIMESYNC_FOULWIND)</text>
</g>
<!-- 4 -->
<g id="node4" class="node">
<title>4</title>
<ellipse fill="none" stroke="black" cx="60.58" cy="-18" rx="27" ry="18"/>
<text text-anchor="middle" x="60.58" y="-13.8" font-family="Times,serif" font-size="14.00">4</text>
</g>
<!-- 3&#45;&gt;4 -->
<g id="edge3" class="edge">
<title>3&#45;&gt;4</title>
<path fill="none" stroke="black" d="M36.94,-102.97C24.64,-97.45 10.72,-88.77 3.58,-76 -1.19,-67.47 -1.19,-62.53 3.58,-54 8.83,-44.62 17.73,-37.45 26.95,-32.12"/>
<polygon fill="black" stroke="black" points="28.27,-35.38 35.59,-27.72 25.09,-29.14 28.27,-35.38"/>
<text text-anchor="start" x="7.58" y="-62.2" font-family="Courier New" font-weight="bold" font-size="12.00" fill="blue">ESTIME(0500)</text>
</g>
<!-- 4&#45;&gt;3 -->
<g id="edge4" class="edge">
<title>4&#45;&gt;3</title>
<path fill="none" stroke="black" d="M79.2,-31.45C86.36,-37.35 93.73,-45.07 97.58,-54 101.45,-62.98 101.45,-67.02 97.58,-76 95.24,-81.44 91.58,-86.44 87.47,-90.84"/>
<polygon fill="black" stroke="black" points="85.23,-88.14 80.31,-97.52 90.01,-93.26 85.23,-88.14"/>
<text text-anchor="start" x="104.08" y="-62.2" font-family="Courier New" font-weight="bold" font-size="12.00" fill="blue">SIGNALi(0S17_aFOULWIND)</text>
</g>
</g>
</svg>
