<?xml version="1.0" encoding="UTF-8" standalone="no"?>
<!DOCTYPE svg PUBLIC "-//W3C//DTD SVG 1.1//EN"
 "http://www.w3.org/Graphics/SVG/1.1/DTD/svg11.dtd">
<!-- Generated by graphviz version 7.1.0 (20230121.1956)
 -->
<!-- Pages: 1 -->
<svg width="250pt" height="314pt"
 viewBox="0.00 0.00 250.36 314.40" xmlns="http://www.w3.org/2000/svg" xmlns:xlink="http://www.w3.org/1999/xlink">
<g id="graph0" class="graph" transform="scale(1 1) rotate(0) translate(4 310.4)">
<polygon fill="white" stroke="none" points="-4,4 -4,-310.4 246.36,-310.4 246.36,4 -4,4"/>
<!-- M_BARD_0 -->
<g id="node1" class="node">
<title>M_BARD_0</title>
<polygon fill="none" stroke="black" points="8.66,-269.9 8.66,-305.9 97.01,-305.9 97.01,-269.9 8.66,-269.9"/>
<text text-anchor="middle" x="52.83" y="-283.7" font-family="Times,serif" font-size="14.00">M_BARD_0</text>
</g>
<!-- M_BARD_1 -->
<g id="node2" class="node">
<title>M_BARD_1</title>
<polygon fill="none" stroke="black" points="8.66,-180.1 8.66,-216.1 97.01,-216.1 97.01,-180.1 8.66,-180.1"/>
<text text-anchor="middle" x="52.83" y="-193.9" font-family="Times,serif" font-size="14.00">M_BARD_1</text>
</g>
<!-- M_BARD_0&#45;&gt;M_BARD_1 -->
<g id="edge1" class="edge">
<title>M_BARD_0&#45;&gt;M_BARD_1</title>
<path fill="none" stroke="green" d="M52.83,-269.97C52.83,-257.82 52.83,-241.18 52.83,-227.07"/>
<polygon fill="green" stroke="green" points="56.33,-227.49 52.83,-217.49 49.33,-227.49 56.33,-227.49"/>
<text text-anchor="start" x="52.83" y="-239.8" font-family="Times,serif" font-size="14.00" fill="green"> </text>
<text text-anchor="start" x="56.33" y="-239.8" font-family="Courier New" font-size="10.00" fill="green">ASSIGN(DETIME,1000)</text>
</g>
<!-- M_BARD_3 -->
<g id="node3" class="node">
<title>M_BARD_3</title>
<polygon fill="none" stroke="black" points="8.66,-90.3 8.66,-126.3 97.01,-126.3 97.01,-90.3 8.66,-90.3"/>
<text text-anchor="middle" x="52.83" y="-104.1" font-family="Times,serif" font-size="14.00">M_BARD_3</text>
</g>
<!-- M_BARD_1&#45;&gt;M_BARD_3 -->
<g id="edge2" class="edge">
<title>M_BARD_1&#45;&gt;M_BARD_3</title>
<path fill="none" stroke="green" d="M52.83,-180.17C52.83,-168.02 52.83,-151.38 52.83,-137.27"/>
<polygon fill="green" stroke="green" points="56.33,-137.69 52.83,-127.69 49.33,-137.69 56.33,-137.69"/>
<text text-anchor="start" x="52.83" y="-150" font-family="Times,serif" font-size="14.00" fill="green"> </text>
<text text-anchor="start" x="56.33" y="-150" font-family="Courier New" font-size="10.00" fill="green">SYNCPOINT(DETIME,SYNC_FOULWIND)</text>
</g>
<!-- M_BARD_4 -->
<g id="node4" class="node">
<title>M_BARD_4</title>
<polygon fill="none" stroke="black" points="8.66,-0.5 8.66,-36.5 97.01,-36.5 97.01,-0.5 8.66,-0.5"/>
<text text-anchor="middle" x="52.83" y="-14.3" font-family="Times,serif" font-size="14.00">M_BARD_4</text>
</g>
<!-- M_BARD_3&#45;&gt;M_BARD_4 -->
<g id="edge3" class="edge">
<title>M_BARD_3&#45;&gt;M_BARD_4</title>
<path fill="none" stroke="green" d="M19.12,-90.44C12.37,-85.41 6.17,-79.22 2.32,-71.8 -3.07,-61.42 2.06,-51.71 10.79,-43.53"/>
<polygon fill="green" stroke="green" points="12.81,-46.4 18.45,-37.43 8.45,-40.93 12.81,-46.4"/>
<text text-anchor="start" x="2.83" y="-60.2" font-family="Times,serif" font-size="14.00" fill="green"> </text>
<text text-anchor="start" x="6.33" y="-60.2" font-family="Courier New" font-size="10.00" fill="green">ESTIME(0,500)</text>
</g>
<!-- M_BARD_4&#45;&gt;M_BARD_3 -->
<g id="edge4" class="edge">
<title>M_BARD_4&#45;&gt;M_BARD_3</title>
<path fill="none" stroke="green" d="M71.77,-36.22C76.65,-41.67 81.25,-48.11 83.83,-55 86.46,-61.99 86.46,-64.81 83.83,-71.8 82.54,-75.25 80.74,-78.58 78.66,-81.73"/>
<polygon fill="green" stroke="green" points="76.08,-79.34 72.7,-89.38 81.61,-83.64 76.08,-79.34"/>
<text text-anchor="start" x="84.83" y="-60.2" font-family="Times,serif" font-size="14.00" fill="green"> </text>
<text text-anchor="start" x="88.33" y="-60.2" font-family="Courier New" font-size="10.00" fill="green">SIGNALi(0,S17_aFOULWIND)</text>
</g>
</g>
</svg>
