<?xml version="1.0" encoding="UTF-8" standalone="no"?>
<!DOCTYPE svg PUBLIC "-//W3C//DTD SVG 1.1//EN"
 "http://www.w3.org/Graphics/SVG/1.1/DTD/svg11.dtd">
<!-- Generated by graphviz version 7.1.0 (20230121.1956)
 -->
<!-- Title: Automaton Pages: 1 -->
<svg width="365pt" height="613pt"
 viewBox="0.00 0.00 365.00 613.00" xmlns="http://www.w3.org/2000/svg" xmlns:xlink="http://www.w3.org/1999/xlink">
<g id="graph0" class="graph" transform="scale(1 1) rotate(0) translate(4 609)">
<title>Automaton</title>
<polygon fill="white" stroke="none" points="-4,4 -4,-609 361,-609 361,4 -4,4"/>
<!-- filename -->
<g id="node1" class="node">
<title>filename</title>
<polygon fill="none" stroke="black" points="0,-552.5 0,-604.5 118,-604.5 118,-552.5 0,-552.5"/>
<polygon fill="none" stroke="black" points="11,-579.5 11,-597.5 107,-597.5 107,-579.5 11,-579.5"/>
<text text-anchor="start" x="41" y="-586.5" font-family="Courier New" font-weight="bold" font-size="10.00">M_BARD</text>
<polygon fill="none" stroke="black" points="11,-559.5 11,-577.5 107,-577.5 107,-559.5 11,-559.5"/>
<text text-anchor="start" x="14" y="-565.5" font-family="Courier New" font-size="10.00" fill="brown">start state = 0</text>
<polygon fill="none" stroke="black" points="8,-556.5 8,-600.5 110,-600.5 110,-556.5 8,-556.5"/>
</g>
<!-- 0 -->
<g id="node2" class="node">
<title>0</title>
<polyline fill="none" stroke="darkred" points="156,-567.5 170,-567.5"/>
<text text-anchor="start" x="159" y="-574.9" font-family="Courier New" font-weight="bold" font-size="14.00">0</text>
<path fill="none" stroke="darkred" d="M159.67,-564.5C159.67,-564.5 166.33,-564.5 166.33,-564.5 169.67,-564.5 173,-567.83 173,-571.17 173,-571.17 173,-585.83 173,-585.83 173,-589.17 169.67,-592.5 166.33,-592.5 166.33,-592.5 159.67,-592.5 159.67,-592.5 156.33,-592.5 153,-589.17 153,-585.83 153,-585.83 153,-571.17 153,-571.17 153,-567.83 156.33,-564.5 159.67,-564.5"/>
</g>
<!-- 10 -->
<g id="node3" class="node">
<title>10</title>
<polyline fill="none" stroke="darkred" points="152,-467 174,-467"/>
<text text-anchor="start" x="155" y="-474.4" font-family="Courier New" font-weight="bold" font-size="14.00">10</text>
<path fill="none" stroke="darkred" d="M158.33,-464C158.33,-464 167.67,-464 167.67,-464 172.33,-464 177,-468.67 177,-473.33 177,-473.33 177,-482.67 177,-482.67 177,-487.33 172.33,-492 167.67,-492 167.67,-492 158.33,-492 158.33,-492 153.67,-492 149,-487.33 149,-482.67 149,-482.67 149,-473.33 149,-473.33 149,-468.67 153.67,-464 158.33,-464"/>
</g>
<!-- 0&#45;&gt;10 -->
<g id="edge1" class="edge">
<title>0&#45;&gt;10</title>
<path fill="none" stroke="black" d="M163,-560.79C163,-546.14 163,-524.55 163,-507.23"/>
<polygon fill="black" stroke="black" points="166.5,-507.3 163,-497.3 159.5,-507.3 166.5,-507.3"/>
<text text-anchor="start" x="167" y="-522" font-family="Courier New" font-weight="bold" font-size="10.00" fill="blue">ASSIGN(DETIME,1500)</text>
</g>
<!-- hideStuff -->
<g id="node4" class="node">
<title>hideStuff</title>
<polyline fill="none" stroke="darkred" points="123,-375 204,-375"/>
<text text-anchor="start" x="126" y="-382.4" font-family="Courier New" font-weight="bold" font-size="14.00">hideStuff</text>
<path fill="none" stroke="darkred" d="M128.83,-372C128.83,-372 197.17,-372 197.17,-372 201.83,-372 206.5,-376.67 206.5,-381.33 206.5,-381.33 206.5,-390.67 206.5,-390.67 206.5,-395.33 201.83,-400 197.17,-400 197.17,-400 128.83,-400 128.83,-400 124.17,-400 119.5,-395.33 119.5,-390.67 119.5,-390.67 119.5,-381.33 119.5,-381.33 119.5,-376.67 124.17,-372 128.83,-372"/>
</g>
<!-- 10&#45;&gt;hideStuff -->
<g id="edge2" class="edge">
<title>10&#45;&gt;hideStuff</title>
<path fill="none" stroke="black" d="M163,-460.07C163,-447.38 163,-429.71 163,-414.94"/>
<polygon fill="black" stroke="black" points="166.5,-415.37 163,-405.37 159.5,-415.37 166.5,-415.37"/>
<text text-anchor="start" x="167" y="-430" font-family="Courier New" font-weight="bold" font-size="10.00" fill="blue">Z_EPSILON(,)</text>
</g>
<!-- kickOffNature -->
<g id="node8" class="node">
<title>kickOffNature</title>
<polyline fill="none" stroke="darkred" points="106,-283 221,-283"/>
<text text-anchor="start" x="109" y="-290.4" font-family="Courier New" font-weight="bold" font-size="14.00">kickOffNature</text>
<path fill="none" stroke="darkred" d="M111.83,-280C111.83,-280 214.17,-280 214.17,-280 218.83,-280 223.5,-284.67 223.5,-289.33 223.5,-289.33 223.5,-298.67 223.5,-298.67 223.5,-303.33 218.83,-308 214.17,-308 214.17,-308 111.83,-308 111.83,-308 107.17,-308 102.5,-303.33 102.5,-298.67 102.5,-298.67 102.5,-289.33 102.5,-289.33 102.5,-284.67 107.17,-280 111.83,-280"/>
</g>
<!-- hideStuff&#45;&gt;kickOffNature -->
<g id="edge5" class="edge">
<title>hideStuff&#45;&gt;kickOffNature</title>
<path fill="none" stroke="black" d="M163,-368.07C163,-355.38 163,-337.71 163,-322.94"/>
<polygon fill="black" stroke="black" points="166.5,-323.37 163,-313.37 159.5,-323.37 166.5,-323.37"/>
<text text-anchor="start" x="167" y="-338" font-family="Courier New" font-weight="bold" font-size="10.00" fill="blue">SIGNALi(SIG_OPEN,S00_HIDER)</text>
</g>
<!-- 20 -->
<g id="node5" class="node">
<title>20</title>
<polyline fill="none" stroke="darkred" points="152,-191 174,-191"/>
<text text-anchor="start" x="155" y="-198.4" font-family="Courier New" font-weight="bold" font-size="14.00">20</text>
<path fill="none" stroke="darkred" d="M158.33,-188C158.33,-188 167.67,-188 167.67,-188 172.33,-188 177,-192.67 177,-197.33 177,-197.33 177,-206.67 177,-206.67 177,-211.33 172.33,-216 167.67,-216 167.67,-216 158.33,-216 158.33,-216 153.67,-216 149,-211.33 149,-206.67 149,-206.67 149,-197.33 149,-197.33 149,-192.67 153.67,-188 158.33,-188"/>
</g>
<!-- FWcountdown -->
<g id="node6" class="node">
<title>FWcountdown</title>
<polyline fill="none" stroke="darkred" points="114,-99 212,-99"/>
<text text-anchor="start" x="117" y="-106.4" font-family="Courier New" font-weight="bold" font-size="14.00">FWcountdown</text>
<path fill="none" stroke="darkred" d="M120.33,-96C120.33,-96 205.67,-96 205.67,-96 210.33,-96 215,-100.67 215,-105.33 215,-105.33 215,-114.67 215,-114.67 215,-119.33 210.33,-124 205.67,-124 205.67,-124 120.33,-124 120.33,-124 115.67,-124 111,-119.33 111,-114.67 111,-114.67 111,-105.33 111,-105.33 111,-100.67 115.67,-96 120.33,-96"/>
</g>
<!-- 20&#45;&gt;FWcountdown -->
<g id="edge3" class="edge">
<title>20&#45;&gt;FWcountdown</title>
<path fill="none" stroke="black" d="M163,-184.07C163,-171.38 163,-153.71 163,-138.94"/>
<polygon fill="black" stroke="black" points="166.5,-139.37 163,-129.37 159.5,-139.37 166.5,-139.37"/>
<text text-anchor="start" x="167" y="-154" font-family="Courier New" font-weight="bold" font-size="10.00" fill="blue">SYNCPOINT(DETIME,SYNC_FOULWIND)</text>
</g>
<!-- summonFoulWind -->
<g id="node7" class="node">
<title>summonFoulWind</title>
<polyline fill="none" stroke="darkred" points="102,-7 225,-7"/>
<text text-anchor="start" x="105" y="-14.4" font-family="Courier New" font-weight="bold" font-size="14.00">summonFoulWind</text>
<path fill="none" stroke="darkred" d="M107.83,-4C107.83,-4 218.17,-4 218.17,-4 222.83,-4 227.5,-8.67 227.5,-13.33 227.5,-13.33 227.5,-22.67 227.5,-22.67 227.5,-27.33 222.83,-32 218.17,-32 218.17,-32 107.83,-32 107.83,-32 103.17,-32 98.5,-27.33 98.5,-22.67 98.5,-22.67 98.5,-13.33 98.5,-13.33 98.5,-8.67 103.17,-4 107.83,-4"/>
</g>
<!-- FWcountdown&#45;&gt;summonFoulWind -->
<g id="edge4" class="edge">
<title>FWcountdown&#45;&gt;summonFoulWind</title>
<path fill="none" stroke="black" d="M124.28,-92.14C117.35,-87.31 111.06,-81.32 107,-74 102.69,-66.23 102.69,-61.77 107,-54 109.22,-50 112.11,-46.39 115.4,-43.16"/>
<polygon fill="black" stroke="black" points="117.61,-45.87 123.11,-36.82 113.16,-40.47 117.61,-45.87"/>
<text text-anchor="start" x="111" y="-62" font-family="Courier New" font-weight="bold" font-size="10.00" fill="blue">ESTIME(0,1500)</text>
</g>
<!-- summonFoulWind&#45;&gt;FWcountdown -->
<g id="edge7" class="edge">
<title>summonFoulWind&#45;&gt;FWcountdown</title>
<path fill="none" stroke="black" d="M185.68,-35.67C191.06,-40.88 196.08,-47.09 199,-54 202.46,-62.19 202.46,-65.81 199,-74 197.54,-77.45 195.56,-80.73 193.26,-83.8"/>
<polygon fill="black" stroke="black" points="190.72,-81.4 186.69,-91.2 195.95,-86.05 190.72,-81.4"/>
<text text-anchor="start" x="205" y="-62" font-family="Courier New" font-weight="bold" font-size="10.00" fill="blue">SIGNALi(0,S17_aFOULWIND)</text>
</g>
<!-- kickOffNature&#45;&gt;20 -->
<g id="edge6" class="edge">
<title>kickOffNature&#45;&gt;20</title>
<path fill="none" stroke="black" d="M163,-276.07C163,-263.38 163,-245.71 163,-230.94"/>
<polygon fill="black" stroke="black" points="166.5,-231.37 163,-221.37 159.5,-231.37 166.5,-231.37"/>
<text text-anchor="start" x="167" y="-246" font-family="Courier New" font-weight="bold" font-size="10.00" fill="blue">SIGNALi(SIG_OPEN,S01_NATURE)</text>
</g>
</g>
</svg>
