<?xml version="1.0" encoding="UTF-8" standalone="no"?>
<!DOCTYPE svg PUBLIC "-//W3C//DTD SVG 1.1//EN"
 "http://www.w3.org/Graphics/SVG/1.1/DTD/svg11.dtd">
<!-- Generated by graphviz version 7.1.0 (20230121.1956)
 -->
<!-- Title: Automaton Pages: 1 -->
<svg width="370pt" height="245pt"
 viewBox="0.00 0.00 370.00 245.00" xmlns="http://www.w3.org/2000/svg" xmlns:xlink="http://www.w3.org/1999/xlink">
<g id="graph0" class="graph" transform="scale(1 1) rotate(0) translate(4 241)">
<title>Automaton</title>
<polygon fill="white" stroke="none" points="-4,4 -4,-241 366,-241 366,4 -4,4"/>
<!-- filename -->
<g id="node1" class="node">
<title>filename</title>
<polygon fill="none" stroke="black" points="0,-184.5 0,-236.5 118,-236.5 118,-184.5 0,-184.5"/>
<polygon fill="none" stroke="black" points="11,-211.5 11,-229.5 107,-229.5 107,-211.5 11,-211.5"/>
<text text-anchor="start" x="44" y="-218.5" font-family="Courier New" font-weight="bold" font-size="10.00">M_BIN</text>
<polygon fill="none" stroke="black" points="11,-191.5 11,-209.5 107,-209.5 107,-191.5 11,-191.5"/>
<text text-anchor="start" x="14" y="-197.5" font-family="Courier New" font-size="10.00" fill="brown">start state = 0</text>
<polygon fill="none" stroke="black" points="8,-188.5 8,-232.5 110,-232.5 110,-188.5 8,-188.5"/>
</g>
<!-- 0 -->
<g id="node2" class="node">
<title>0</title>
<polyline fill="none" stroke="darkred" points="156,-199.5 170,-199.5"/>
<text text-anchor="start" x="159" y="-206.9" font-family="Courier New" font-weight="bold" font-size="14.00">0</text>
<path fill="none" stroke="darkred" d="M159.67,-196.5C159.67,-196.5 166.33,-196.5 166.33,-196.5 169.67,-196.5 173,-199.83 173,-203.17 173,-203.17 173,-217.83 173,-217.83 173,-221.17 169.67,-224.5 166.33,-224.5 166.33,-224.5 159.67,-224.5 159.67,-224.5 156.33,-224.5 153,-221.17 153,-217.83 153,-217.83 153,-203.17 153,-203.17 153,-199.83 156.33,-196.5 159.67,-196.5"/>
</g>
<!-- 1 -->
<g id="node3" class="node">
<title>1</title>
<polyline fill="none" stroke="darkred" points="156,-99 170,-99"/>
<text text-anchor="start" x="159" y="-106.4" font-family="Courier New" font-weight="bold" font-size="14.00">1</text>
<path fill="none" stroke="darkred" d="M159.67,-96C159.67,-96 166.33,-96 166.33,-96 169.67,-96 173,-99.33 173,-102.67 173,-102.67 173,-117.33 173,-117.33 173,-120.67 169.67,-124 166.33,-124 166.33,-124 159.67,-124 159.67,-124 156.33,-124 153,-120.67 153,-117.33 153,-117.33 153,-102.67 153,-102.67 153,-99.33 156.33,-96 159.67,-96"/>
</g>
<!-- 0&#45;&gt;1 -->
<g id="edge1" class="edge">
<title>0&#45;&gt;1</title>
<path fill="none" stroke="black" d="M163,-192.79C163,-178.14 163,-156.55 163,-139.23"/>
<polygon fill="black" stroke="black" points="166.5,-139.3 163,-129.3 159.5,-139.3 166.5,-139.3"/>
<text text-anchor="start" x="167" y="-154" font-family="Courier New" font-weight="bold" font-size="10.00" fill="blue">O_ACCEPT(WIP1,)</text>
</g>
<!-- 10 -->
<g id="node4" class="node">
<title>10</title>
<polyline fill="none" stroke="darkred" points="152,-7 174,-7"/>
<text text-anchor="start" x="155" y="-14.4" font-family="Courier New" font-weight="bold" font-size="14.00">10</text>
<path fill="none" stroke="darkred" d="M158.33,-4C158.33,-4 167.67,-4 167.67,-4 172.33,-4 177,-8.67 177,-13.33 177,-13.33 177,-22.67 177,-22.67 177,-27.33 172.33,-32 167.67,-32 167.67,-32 158.33,-32 158.33,-32 153.67,-32 149,-27.33 149,-22.67 149,-22.67 149,-13.33 149,-13.33 149,-8.67 153.67,-4 158.33,-4"/>
</g>
<!-- 1&#45;&gt;10 -->
<g id="edge2" class="edge">
<title>1&#45;&gt;10</title>
<path fill="none" stroke="black" d="M163,-92.07C163,-79.38 163,-61.71 163,-46.94"/>
<polygon fill="black" stroke="black" points="166.5,-47.37 163,-37.37 159.5,-47.37 166.5,-47.37"/>
<text text-anchor="start" x="167" y="-62" font-family="Courier New" font-weight="bold" font-size="10.00" fill="blue">SHOW(WIP2,)</text>
</g>
<!-- 10&#45;&gt;10 -->
<g id="edge3" class="edge">
<title>10&#45;&gt;10</title>
<path fill="none" stroke="black" d="M189.79,-22.3C199.78,-22.44 208,-21.01 208,-18 208,-16.26 205.25,-15.05 201.01,-14.36"/>
<polygon fill="black" stroke="black" points="201.49,-10.88 191.31,-13.79 201.08,-17.87 201.49,-10.88"/>
<text text-anchor="start" x="212" y="-16" font-family="Courier New" font-weight="bold" font-size="10.00" fill="orange">DROP(0,0)</text>
</g>
<!-- 10&#45;&gt;10 -->
<g id="edge4" class="edge">
<title>10&#45;&gt;10</title>
<path fill="none" stroke="black" d="M189.88,-24.63C222.88,-28.72 270,-26.51 270,-18 270,-10.42 232.62,-7.84 201.13,-10.25"/>
<polygon fill="black" stroke="black" points="200.99,-6.75 191.38,-11.22 201.68,-13.71 200.99,-6.75"/>
<text text-anchor="start" x="274" y="-16" font-family="Courier New" font-weight="bold" font-size="10.00" fill="orange">GRAB(WIP1,)</text>
</g>
</g>
</svg>
