<?xml version="1.0" encoding="UTF-8" standalone="no"?>
<!DOCTYPE svg PUBLIC "-//W3C//DTD SVG 1.1//EN"
 "http://www.w3.org/Graphics/SVG/1.1/DTD/svg11.dtd">
<!-- Generated by graphviz version 7.1.0 (20230121.1956)
 -->
<!-- Pages: 1 -->
<svg width="234pt" height="228pt"
 viewBox="0.00 0.00 234.00 228.00" xmlns="http://www.w3.org/2000/svg" xmlns:xlink="http://www.w3.org/1999/xlink">
<g id="graph0" class="graph" transform="scale(1 1) rotate(0) translate(4 224)">
<polygon fill="white" stroke="none" points="-4,4 -4,-224 230,-224 230,4 -4,4"/>
<!-- 0 -->
<g id="node1" class="node">
<title>0</title>
<ellipse fill="none" stroke="black" cx="27" cy="-202" rx="27" ry="18"/>
<text text-anchor="middle" x="27" y="-197.8" font-family="Times,serif" font-size="14.00">0</text>
</g>
<!-- 1 -->
<g id="node2" class="node">
<title>1</title>
<ellipse fill="none" stroke="black" cx="27" cy="-110" rx="27" ry="18"/>
<text text-anchor="middle" x="27" y="-105.8" font-family="Times,serif" font-size="14.00">1</text>
</g>
<!-- 0&#45;&gt;1 -->
<g id="edge1" class="edge">
<title>0&#45;&gt;1</title>
<path fill="none" stroke="black" d="M27,-183.65C27,-171.2 27,-154.14 27,-139.68"/>
<polygon fill="black" stroke="black" points="30.5,-139.81 27,-129.81 23.5,-139.81 30.5,-139.81"/>
<text text-anchor="start" x="31" y="-154" font-family="Courier New" font-weight="bold" font-size="10.00" fill="blue">O_ACCEPT(WIP1,)</text>
</g>
<!-- 10 -->
<g id="node3" class="node">
<title>10</title>
<ellipse fill="none" stroke="black" cx="27" cy="-18" rx="27" ry="18"/>
<text text-anchor="middle" x="27" y="-13.8" font-family="Times,serif" font-size="14.00">10</text>
</g>
<!-- 1&#45;&gt;10 -->
<g id="edge2" class="edge">
<title>1&#45;&gt;10</title>
<path fill="none" stroke="black" d="M27,-91.65C27,-79.2 27,-62.14 27,-47.68"/>
<polygon fill="black" stroke="black" points="30.5,-47.81 27,-37.81 23.5,-47.81 30.5,-47.81"/>
<text text-anchor="start" x="31" y="-62" font-family="Courier New" font-weight="bold" font-size="10.00" fill="blue">SHOW(WIP2,)</text>
</g>
<!-- 10&#45;&gt;10 -->
<g id="edge3" class="edge">
<title>10&#45;&gt;10</title>
<path fill="none" stroke="black" d="M53.35,-22.3C63.53,-22.49 72,-21.05 72,-18 72,-16.23 69.17,-15.01 64.81,-14.33"/>
<polygon fill="black" stroke="black" points="65.03,-10.84 54.86,-13.79 64.65,-17.83 65.03,-10.84"/>
<text text-anchor="start" x="76" y="-16" font-family="Courier New" font-weight="bold" font-size="10.00" fill="orange">DROP(0,0)</text>
</g>
<!-- 10&#45;&gt;10 -->
<g id="edge4" class="edge">
<title>10&#45;&gt;10</title>
<path fill="none" stroke="black" d="M52.58,-24.47C85.62,-28.78 134,-26.62 134,-18 134,-10.32 95.63,-7.77 63.89,-10.35"/>
<polygon fill="black" stroke="black" points="63.67,-6.85 54.08,-11.37 64.39,-13.81 63.67,-6.85"/>
<text text-anchor="start" x="138" y="-16" font-family="Courier New" font-weight="bold" font-size="10.00" fill="orange">GRAB(WIP1,)</text>
</g>
</g>
</svg>
