<?xml version="1.0" encoding="UTF-8" standalone="no"?>
<!DOCTYPE svg PUBLIC "-//W3C//DTD SVG 1.1//EN"
 "http://www.w3.org/Graphics/SVG/1.1/DTD/svg11.dtd">
<!-- Generated by graphviz version 7.1.0 (20230121.1956)
 -->
<!-- Pages: 1 -->
<svg width="855pt" height="420pt"
 viewBox="0.00 0.00 855.00 420.00" xmlns="http://www.w3.org/2000/svg" xmlns:xlink="http://www.w3.org/1999/xlink">
<g id="graph0" class="graph" transform="scale(1 1) rotate(0) translate(4 416)">
<polygon fill="white" stroke="none" points="-4,4 -4,-416 851,-416 851,4 -4,4"/>
<!-- 0 -->
<g id="node1" class="node">
<title>0</title>
<ellipse fill="none" stroke="black" cx="383" cy="-394" rx="27" ry="18"/>
<text text-anchor="middle" x="383" y="-389.8" font-family="Times,serif" font-size="14.00">0</text>
</g>
<!-- 1 -->
<g id="node2" class="node">
<title>1</title>
<ellipse fill="none" stroke="black" cx="36" cy="-300" rx="27" ry="18"/>
<text text-anchor="middle" x="36" y="-295.8" font-family="Times,serif" font-size="14.00">1</text>
</g>
<!-- 0&#45;&gt;1 -->
<g id="edge1" class="edge">
<title>0&#45;&gt;1</title>
<path fill="none" stroke="black" d="M355.81,-392.88C308.38,-391.87 208.01,-386.25 129,-358 104.78,-349.34 80.07,-333.82 62.22,-321.16"/>
<polygon fill="black" stroke="black" points="64.42,-318.43 54.28,-315.37 60.3,-324.09 64.42,-318.43"/>
<text text-anchor="start" x="133" y="-344.2" font-family="Courier New" font-weight="bold" font-size="12.00" fill="orange">CLICK(0,0)</text>
</g>
<!-- 10 -->
<g id="node3" class="node">
<title>10</title>
<ellipse fill="none" stroke="black" cx="594" cy="-300" rx="27" ry="18"/>
<text text-anchor="middle" x="594" y="-295.8" font-family="Times,serif" font-size="14.00">10</text>
</g>
<!-- 0&#45;&gt;10 -->
<g id="edge2" class="edge">
<title>0&#45;&gt;10</title>
<path fill="none" stroke="black" d="M405.18,-383.33C442.54,-367.04 518.17,-334.06 561.52,-315.16"/>
<polygon fill="black" stroke="black" points="562.64,-318.49 570.41,-311.29 559.85,-312.07 562.64,-318.49"/>
<text text-anchor="start" x="517" y="-344.2" font-family="Courier New" font-weight="bold" font-size="12.00" fill="orange">DRAGFOCUS(0,TRUE)</text>
</g>
<!-- 20 -->
<g id="node4" class="node">
<title>20</title>
<ellipse fill="none" stroke="black" cx="223" cy="-112" rx="27" ry="18"/>
<text text-anchor="middle" x="223" y="-107.8" font-family="Times,serif" font-size="14.00">20</text>
</g>
<!-- 0&#45;&gt;20 -->
<g id="edge3" class="edge">
<title>0&#45;&gt;20</title>
<path fill="none" stroke="black" d="M362.61,-381.92C329.65,-362.78 265.48,-320.1 237,-264 217.24,-225.07 217.2,-173.22 219.63,-141.52"/>
<polygon fill="black" stroke="black" points="223.08,-142.21 220.51,-131.94 216.11,-141.58 223.08,-142.21"/>
<text text-anchor="start" x="241.5" y="-250.2" font-family="Courier New" font-weight="bold" font-size="12.00" fill="orange">DRAGFOCUS(0,FALSE)</text>
</g>
<!-- 2 -->
<g id="node5" class="node">
<title>2</title>
<ellipse fill="none" stroke="black" cx="27" cy="-206" rx="27" ry="18"/>
<text text-anchor="middle" x="27" y="-201.8" font-family="Times,serif" font-size="14.00">2</text>
</g>
<!-- 1&#45;&gt;2 -->
<g id="edge4" class="edge">
<title>1&#45;&gt;2</title>
<path fill="none" stroke="black" d="M20.2,-285.23C14.59,-279.32 8.94,-271.96 6,-264 2.18,-253.69 4.96,-242.32 9.59,-232.46"/>
<polygon fill="black" stroke="black" points="12.6,-234.25 14.39,-223.81 6.48,-230.86 12.6,-234.25"/>
<text text-anchor="start" x="10.5" y="-250.2" font-family="Courier New" font-weight="bold" font-size="12.00" fill="blue">PLAYWAVE(0,SOUND_BTNPRESS)</text>
</g>
<!-- 11 -->
<g id="node6" class="node">
<title>11</title>
<ellipse fill="none" stroke="black" cx="541" cy="-206" rx="27" ry="18"/>
<text text-anchor="middle" x="541" y="-201.8" font-family="Times,serif" font-size="14.00">11</text>
</g>
<!-- 10&#45;&gt;11 -->
<g id="edge5" class="edge">
<title>10&#45;&gt;11</title>
<path fill="none" stroke="black" d="M589.14,-281.8C585.41,-270.09 579.61,-254.51 572,-242 569.48,-237.87 566.46,-233.76 563.3,-229.89"/>
<polygon fill="black" stroke="black" points="566.07,-227.75 556.85,-222.53 560.81,-232.36 566.07,-227.75"/>
<text text-anchor="start" x="586" y="-250.2" font-family="Courier New" font-weight="bold" font-size="12.00" fill="blue">MOV(WSPRITE,WIP2)</text>
</g>
<!-- 21 -->
<g id="node8" class="node">
<title>21</title>
<ellipse fill="none" stroke="black" cx="481" cy="-18" rx="27" ry="18"/>
<text text-anchor="middle" x="481" y="-13.8" font-family="Times,serif" font-size="14.00">21</text>
</g>
<!-- 20&#45;&gt;21 -->
<g id="edge9" class="edge">
<title>20&#45;&gt;21</title>
<path fill="none" stroke="black" d="M246.35,-102.67C292.09,-86.36 393.67,-50.14 446.92,-31.15"/>
<polygon fill="black" stroke="black" points="447.85,-34.54 456.09,-27.88 445.5,-27.94 447.85,-34.54"/>
<text text-anchor="start" x="386" y="-62.2" font-family="Courier New" font-weight="bold" font-size="12.00" fill="blue">MOV(WSPRITE,WIP3)</text>
</g>
<!-- 2&#45;&gt;20 -->
<g id="edge8" class="edge">
<title>2&#45;&gt;20</title>
<path fill="none" stroke="black" d="M40.52,-190.01C52.96,-177.09 72.54,-158.85 93,-148 122.05,-132.59 158.43,-123.55 185.31,-118.53"/>
<polygon fill="black" stroke="black" points="185.83,-121.99 195.08,-116.82 184.62,-115.1 185.83,-121.99"/>
<text text-anchor="start" x="97" y="-156.2" font-family="Courier New" font-weight="bold" font-size="12.00" fill="blue">LOADVIEW(WIP1,)</text>
</g>
<!-- 12 -->
<g id="node7" class="node">
<title>12</title>
<ellipse fill="none" stroke="black" cx="410" cy="-112" rx="27" ry="18"/>
<text text-anchor="middle" x="410" y="-107.8" font-family="Times,serif" font-size="14.00">12</text>
</g>
<!-- 11&#45;&gt;12 -->
<g id="edge6" class="edge">
<title>11&#45;&gt;12</title>
<path fill="none" stroke="black" d="M522.79,-192.21C500.59,-176.62 462.89,-150.15 437.24,-132.13"/>
<polygon fill="black" stroke="black" points="439.49,-129.44 429.3,-126.55 435.47,-135.16 439.49,-129.44"/>
<text text-anchor="start" x="495" y="-156.2" font-family="Courier New" font-weight="bold" font-size="12.00" fill="blue">SHOW(WSPRITE,)</text>
</g>
<!-- 12&#45;&gt;0 -->
<g id="edge7" class="edge">
<title>12&#45;&gt;0</title>
<path fill="none" stroke="black" d="M404.76,-129.89C397.49,-154.33 384.69,-201.11 380,-242 375.14,-284.36 377.66,-333.82 380.15,-364.28"/>
<polygon fill="black" stroke="black" points="376.66,-364.56 381.03,-374.21 383.64,-363.94 376.66,-364.56"/>
<text text-anchor="start" x="384" y="-250.2" font-family="Courier New" font-weight="bold" font-size="12.00" fill="blue">PLAYWAVE(0,SOUND_BTNDRAG)</text>
</g>
<!-- 21&#45;&gt;0 -->
<g id="edge10" class="edge">
<title>21&#45;&gt;0</title>
<path fill="none" stroke="black" d="M507.16,-22.62C572.75,-32.44 739,-62.14 739,-111 739,-301 739,-301 739,-301 739,-366.05 513.34,-385.84 421.35,-391.2"/>
<polygon fill="black" stroke="black" points="421.35,-387.69 411.56,-391.74 421.74,-394.68 421.35,-387.69"/>
<text text-anchor="start" x="743" y="-203.2" font-family="Courier New" font-weight="bold" font-size="12.00" fill="blue">SHOW(WSPRITE,)</text>
</g>
</g>
</svg>
