<?xml version="1.0" encoding="UTF-8" standalone="no"?>
<!DOCTYPE svg PUBLIC "-//W3C//DTD SVG 1.1//EN"
 "http://www.w3.org/Graphics/SVG/1.1/DTD/svg11.dtd">
<!-- Generated by graphviz version 7.1.0 (20230121.1956)
 -->
<!-- Pages: 1 -->
<svg width="809pt" height="326pt"
 viewBox="0.00 0.00 809.16 326.00" xmlns="http://www.w3.org/2000/svg" xmlns:xlink="http://www.w3.org/1999/xlink">
<g id="graph0" class="graph" transform="scale(1 1) rotate(0) translate(4 322)">
<polygon fill="white" stroke="none" points="-4,4 -4,-322 805.16,-322 805.16,4 -4,4"/>
<!-- 0 -->
<g id="node1" class="node">
<title>0</title>
<ellipse fill="none" stroke="black" cx="261.16" cy="-300" rx="27" ry="18"/>
<text text-anchor="middle" x="261.16" y="-295.8" font-family="Times,serif" font-size="14.00">0</text>
</g>
<!-- 1 -->
<g id="node2" class="node">
<title>1</title>
<ellipse fill="none" stroke="black" cx="261.16" cy="-206" rx="27" ry="18"/>
<text text-anchor="middle" x="261.16" y="-201.8" font-family="Times,serif" font-size="14.00">1</text>
</g>
<!-- 0&#45;&gt;1 -->
<g id="edge1" class="edge">
<title>0&#45;&gt;1</title>
<path fill="none" stroke="black" d="M261.16,-281.7C261.16,-268.72 261.16,-250.66 261.16,-235.56"/>
<polygon fill="black" stroke="black" points="264.66,-235.74 261.16,-225.74 257.66,-235.74 264.66,-235.74"/>
<text text-anchor="start" x="265.16" y="-250.2" font-family="Courier New" font-weight="bold" font-size="12.00" fill="orange">CLICK(0,0)</text>
</g>
<!-- 10 -->
<g id="node3" class="node">
<title>10</title>
<ellipse fill="none" stroke="black" cx="612.16" cy="-206" rx="27" ry="18"/>
<text text-anchor="middle" x="612.16" y="-201.8" font-family="Times,serif" font-size="14.00">10</text>
</g>
<!-- 0&#45;&gt;10 -->
<g id="edge2" class="edge">
<title>0&#45;&gt;10</title>
<path fill="none" stroke="black" d="M288.18,-297.53C332.05,-294.56 421.13,-286.14 493.16,-264 525.07,-254.19 559.2,-237.09 582.69,-224.17"/>
<polygon fill="black" stroke="black" points="584.35,-227.25 591.37,-219.31 580.93,-221.14 584.35,-227.25"/>
<text text-anchor="start" x="550.16" y="-250.2" font-family="Courier New" font-weight="bold" font-size="12.00" fill="orange">DRAGFOCUS(0,TRUE)</text>
</g>
<!-- 20 -->
<g id="node4" class="node">
<title>20</title>
<ellipse fill="none" stroke="black" cx="166.16" cy="-18" rx="27" ry="18"/>
<text text-anchor="middle" x="166.16" y="-13.8" font-family="Times,serif" font-size="14.00">20</text>
</g>
<!-- 0&#45;&gt;20 -->
<g id="edge3" class="edge">
<title>0&#45;&gt;20</title>
<path fill="none" stroke="black" d="M234.74,-295.31C179.66,-286 53.81,-255.82 7.16,-170 -27.17,-106.81 75.74,-54.66 132.05,-31.66"/>
<polygon fill="black" stroke="black" points="133.23,-34.96 141.23,-28.01 130.64,-28.45 133.23,-34.96"/>
<text text-anchor="start" x="11.66" y="-156.2" font-family="Courier New" font-weight="bold" font-size="12.00" fill="orange">DRAGFOCUS(0,FALSE)</text>
</g>
<!-- 2 -->
<g id="node5" class="node">
<title>2</title>
<ellipse fill="none" stroke="black" cx="246.16" cy="-112" rx="27" ry="18"/>
<text text-anchor="middle" x="246.16" y="-107.8" font-family="Times,serif" font-size="14.00">2</text>
</g>
<!-- 1&#45;&gt;2 -->
<g id="edge4" class="edge">
<title>1&#45;&gt;2</title>
<path fill="none" stroke="black" d="M258.34,-187.7C256.23,-174.72 253.28,-156.66 250.82,-141.56"/>
<polygon fill="black" stroke="black" points="254.28,-141.03 249.22,-131.72 247.37,-142.15 254.28,-141.03"/>
<text text-anchor="start" x="260.66" y="-156.2" font-family="Courier New" font-weight="bold" font-size="12.00" fill="blue">PLAYWAVE(0,SOUND_BTNPRESS)</text>
</g>
<!-- 11 -->
<g id="node6" class="node">
<title>11</title>
<ellipse fill="none" stroke="black" cx="612.16" cy="-112" rx="27" ry="18"/>
<text text-anchor="middle" x="612.16" y="-107.8" font-family="Times,serif" font-size="14.00">11</text>
</g>
<!-- 10&#45;&gt;11 -->
<g id="edge5" class="edge">
<title>10&#45;&gt;11</title>
<path fill="none" stroke="black" d="M635.69,-196.73C647.7,-191.17 661.22,-182.53 668.16,-170 672.9,-161.45 672.9,-156.55 668.16,-148 663.12,-138.89 654.6,-131.84 645.72,-126.54"/>
<polygon fill="black" stroke="black" points="647.51,-123.53 637.03,-121.97 644.26,-129.72 647.51,-123.53"/>
<text text-anchor="start" x="675.16" y="-156.2" font-family="Courier New" font-weight="bold" font-size="12.00" fill="blue">MOV(WSPRITE,WIP2)</text>
</g>
<!-- 20&#45;&gt;0 -->
<g id="edge9" class="edge">
<title>20&#45;&gt;0</title>
<path fill="none" stroke="black" d="M164.51,-36.31C162.37,-64.96 160.59,-123.68 176.16,-170 189.88,-210.8 219.81,-251.15 240.23,-275.57"/>
<polygon fill="black" stroke="black" points="237.4,-277.64 246.55,-282.97 242.72,-273.09 237.4,-277.64"/>
<text text-anchor="start" x="180.16" y="-156.2" font-family="Courier New" font-weight="bold" font-size="12.00" fill="blue">SHOW(0,0)</text>
</g>
<!-- 2&#45;&gt;20 -->
<g id="edge8" class="edge">
<title>2&#45;&gt;20</title>
<path fill="none" stroke="black" d="M232.95,-95.81C220.45,-81.43 201.47,-59.61 186.94,-42.89"/>
<polygon fill="black" stroke="black" points="189.59,-40.61 180.39,-35.36 184.31,-45.2 189.59,-40.61"/>
<text text-anchor="start" x="220.16" y="-62.2" font-family="Courier New" font-weight="bold" font-size="12.00" fill="blue">LOADVIEW(WIP1,)</text>
</g>
<!-- 12 -->
<g id="node7" class="node">
<title>12</title>
<ellipse fill="none" stroke="black" cx="506.16" cy="-18" rx="27" ry="18"/>
<text text-anchor="middle" x="506.16" y="-13.8" font-family="Times,serif" font-size="14.00">12</text>
</g>
<!-- 11&#45;&gt;12 -->
<g id="edge6" class="edge">
<title>11&#45;&gt;12</title>
<path fill="none" stroke="black" d="M596.07,-97.03C578.69,-81.94 550.8,-57.74 530.69,-40.29"/>
<polygon fill="black" stroke="black" points="533.06,-37.71 523.21,-33.79 528.47,-42.99 533.06,-37.71"/>
<text text-anchor="start" x="575.16" y="-62.2" font-family="Courier New" font-weight="bold" font-size="12.00" fill="blue">SHOW(WSPRITE,)</text>
</g>
<!-- 12&#45;&gt;0 -->
<g id="edge7" class="edge">
<title>12&#45;&gt;0</title>
<path fill="none" stroke="black" d="M503.45,-36.18C498.15,-65.67 484.31,-126.91 455.16,-170 419.14,-223.27 399.96,-230.33 345.16,-264 329.89,-273.38 311.66,-281.32 296.09,-287.26"/>
<polygon fill="black" stroke="black" points="294.9,-283.96 286.72,-290.7 297.31,-290.54 294.9,-283.96"/>
<text text-anchor="start" x="471.16" y="-156.2" font-family="Courier New" font-weight="bold" font-size="12.00" fill="blue">PLAYWAVE(0,SOUND_BTNDRAG)</text>
</g>
</g>
</svg>
