<?xml version="1.0" encoding="UTF-8" standalone="no"?>
<!DOCTYPE svg PUBLIC "-//W3C//DTD SVG 1.1//EN"
 "http://www.w3.org/Graphics/SVG/1.1/DTD/svg11.dtd">
<!-- Generated by graphviz version 7.1.0 (20230121.1956)
 -->
<!-- Title: Automaton Pages: 1 -->
<svg width="740pt" height="429pt"
 viewBox="0.00 0.00 740.00 429.00" xmlns="http://www.w3.org/2000/svg" xmlns:xlink="http://www.w3.org/1999/xlink">
<g id="graph0" class="graph" transform="scale(1 1) rotate(0) translate(4 425)">
<title>Automaton</title>
<polygon fill="white" stroke="none" points="-4,4 -4,-425 736,-425 736,4 -4,4"/>
<!-- filename -->
<g id="node1" class="node">
<title>filename</title>
<polygon fill="none" stroke="black" points="171,-368.5 171,-420.5 289,-420.5 289,-368.5 171,-368.5"/>
<polygon fill="none" stroke="black" points="182,-395.5 182,-413.5 278,-413.5 278,-395.5 182,-395.5"/>
<text text-anchor="start" x="193.99" y="-402.5" font-family="Courier New" font-weight="bold" font-size="10.00">M_BTN_2phase</text>
<polygon fill="none" stroke="black" points="182,-375.5 182,-393.5 278,-393.5 278,-375.5 182,-375.5"/>
<text text-anchor="start" x="185" y="-381.5" font-family="Courier New" font-size="10.00" fill="brown">start state = 0</text>
<polygon fill="none" stroke="black" points="179,-372.5 179,-416.5 281,-416.5 281,-372.5 179,-372.5"/>
</g>
<!-- 0 -->
<g id="node2" class="node">
<title>0</title>
<polyline fill="none" stroke="darkred" points="327,-383.5 341,-383.5"/>
<text text-anchor="start" x="330" y="-390.9" font-family="Courier New" font-weight="bold" font-size="14.00">0</text>
<path fill="none" stroke="darkred" d="M330.67,-380.5C330.67,-380.5 337.33,-380.5 337.33,-380.5 340.67,-380.5 344,-383.83 344,-387.17 344,-387.17 344,-401.83 344,-401.83 344,-405.17 340.67,-408.5 337.33,-408.5 337.33,-408.5 330.67,-408.5 330.67,-408.5 327.33,-408.5 324,-405.17 324,-401.83 324,-401.83 324,-387.17 324,-387.17 324,-383.83 327.33,-380.5 330.67,-380.5"/>
</g>
<!-- 1 -->
<g id="node3" class="node">
<title>1</title>
<polyline fill="none" stroke="darkred" points="27,-283 41,-283"/>
<text text-anchor="start" x="30" y="-290.4" font-family="Courier New" font-weight="bold" font-size="14.00">1</text>
<path fill="none" stroke="darkred" d="M30.67,-280C30.67,-280 37.33,-280 37.33,-280 40.67,-280 44,-283.33 44,-286.67 44,-286.67 44,-301.33 44,-301.33 44,-304.67 40.67,-308 37.33,-308 37.33,-308 30.67,-308 30.67,-308 27.33,-308 24,-304.67 24,-301.33 24,-301.33 24,-286.67 24,-286.67 24,-283.33 27.33,-280 30.67,-280"/>
</g>
<!-- 0&#45;&gt;1 -->
<g id="edge1" class="edge">
<title>0&#45;&gt;1</title>
<path fill="none" stroke="black" d="M314.11,-376.68C309.13,-373.27 303.6,-370.09 298,-368 220.59,-339.16 190.53,-378.53 113,-350 94.09,-343.04 75.46,-330.43 61.05,-319.05"/>
<polygon fill="black" stroke="black" points="63.35,-316.4 53.4,-312.77 58.91,-321.82 63.35,-316.4"/>
<text text-anchor="start" x="117" y="-338" font-family="Courier New" font-weight="bold" font-size="10.00" fill="orange">CLICK(0,0)</text>
</g>
<!-- 10 -->
<g id="node4" class="node">
<title>10</title>
<polyline fill="none" stroke="darkred" points="504,-283 526,-283"/>
<text text-anchor="start" x="507" y="-290.4" font-family="Courier New" font-weight="bold" font-size="14.00">10</text>
<path fill="none" stroke="darkred" d="M510.33,-280C510.33,-280 519.67,-280 519.67,-280 524.33,-280 529,-284.67 529,-289.33 529,-289.33 529,-298.67 529,-298.67 529,-303.33 524.33,-308 519.67,-308 519.67,-308 510.33,-308 510.33,-308 505.67,-308 501,-303.33 501,-298.67 501,-298.67 501,-289.33 501,-289.33 501,-284.67 505.67,-280 510.33,-280"/>
</g>
<!-- 0&#45;&gt;10 -->
<g id="edge2" class="edge">
<title>0&#45;&gt;10</title>
<path fill="none" stroke="black" d="M360.71,-378.97C391.85,-362.02 443.51,-333.9 478.38,-314.93"/>
<polygon fill="black" stroke="black" points="479.74,-318.17 486.85,-310.32 476.4,-312.02 479.74,-318.17"/>
<text text-anchor="start" x="450" y="-338" font-family="Courier New" font-weight="bold" font-size="10.00" fill="orange">DRAGFOCUS(0,TRUE)</text>
</g>
<!-- 20 -->
<g id="node5" class="node">
<title>20</title>
<polyline fill="none" stroke="darkred" points="184,-99 206,-99"/>
<text text-anchor="start" x="187" y="-106.4" font-family="Courier New" font-weight="bold" font-size="14.00">20</text>
<path fill="none" stroke="darkred" d="M190.33,-96C190.33,-96 199.67,-96 199.67,-96 204.33,-96 209,-100.67 209,-105.33 209,-105.33 209,-114.67 209,-114.67 209,-119.33 204.33,-124 199.67,-124 199.67,-124 190.33,-124 190.33,-124 185.67,-124 181,-119.33 181,-114.67 181,-114.67 181,-105.33 181,-105.33 181,-100.67 185.67,-96 190.33,-96"/>
</g>
<!-- 0&#45;&gt;20 -->
<g id="edge3" class="edge">
<title>0&#45;&gt;20</title>
<path fill="none" stroke="black" d="M310.02,-376.55C279.7,-353.6 228.74,-309.51 206,-258 188.93,-219.35 189.3,-169.42 191.72,-138.83"/>
<polygon fill="black" stroke="black" points="195.17,-139.53 192.61,-129.25 188.2,-138.88 195.17,-139.53"/>
<text text-anchor="start" x="210" y="-246" font-family="Courier New" font-weight="bold" font-size="10.00" fill="orange">DRAGFOCUS(0,FALSE)</text>
</g>
<!-- 2 -->
<g id="node6" class="node">
<title>2</title>
<polyline fill="none" stroke="darkred" points="20,-191 34,-191"/>
<text text-anchor="start" x="23" y="-198.4" font-family="Courier New" font-weight="bold" font-size="14.00">2</text>
<path fill="none" stroke="darkred" d="M23.67,-188C23.67,-188 30.33,-188 30.33,-188 33.67,-188 37,-191.33 37,-194.67 37,-194.67 37,-209.33 37,-209.33 37,-212.67 33.67,-216 30.33,-216 30.33,-216 23.67,-216 23.67,-216 20.33,-216 17,-212.67 17,-209.33 17,-209.33 17,-194.67 17,-194.67 17,-191.33 20.33,-188 23.67,-188"/>
</g>
<!-- 1&#45;&gt;2 -->
<g id="edge4" class="edge">
<title>1&#45;&gt;2</title>
<path fill="none" stroke="black" d="M18.68,-276.01C14.75,-270.63 11.05,-264.4 9,-258 6.08,-248.89 7.82,-238.94 11.17,-230.04"/>
<polygon fill="black" stroke="black" points="14.23,-231.76 15.2,-221.21 7.86,-228.85 14.23,-231.76"/>
<text text-anchor="start" x="13" y="-246" font-family="Courier New" font-weight="bold" font-size="10.00" fill="blue">PLAYWAVE(0,SOUND_BTNPRESS)</text>
</g>
<!-- 11 -->
<g id="node7" class="node">
<title>11</title>
<polyline fill="none" stroke="darkred" points="459,-191 481,-191"/>
<text text-anchor="start" x="462" y="-198.4" font-family="Courier New" font-weight="bold" font-size="14.00">11</text>
<path fill="none" stroke="darkred" d="M465.33,-188C465.33,-188 474.67,-188 474.67,-188 479.33,-188 484,-192.67 484,-197.33 484,-197.33 484,-206.67 484,-206.67 484,-211.33 479.33,-216 474.67,-216 474.67,-216 465.33,-216 465.33,-216 460.67,-216 456,-211.33 456,-206.67 456,-206.67 456,-197.33 456,-197.33 456,-192.67 460.67,-188 465.33,-188"/>
</g>
<!-- 10&#45;&gt;11 -->
<g id="edge5" class="edge">
<title>10&#45;&gt;11</title>
<path fill="none" stroke="black" d="M509.3,-276.25C505.27,-265.15 499.47,-250.4 493,-238 491.49,-235.1 489.79,-232.14 488.03,-229.22"/>
<polygon fill="black" stroke="black" points="491.08,-227.5 482.75,-220.95 485.18,-231.26 491.08,-227.5"/>
<text text-anchor="start" x="505" y="-246" font-family="Courier New" font-weight="bold" font-size="10.00" fill="blue">MOV(WSPRITE,WIP2)</text>
</g>
<!-- 21 -->
<g id="node9" class="node">
<title>21</title>
<polyline fill="none" stroke="darkred" points="406,-7 428,-7"/>
<text text-anchor="start" x="409" y="-14.4" font-family="Courier New" font-weight="bold" font-size="14.00">21</text>
<path fill="none" stroke="darkred" d="M412.33,-4C412.33,-4 421.67,-4 421.67,-4 426.33,-4 431,-8.67 431,-13.33 431,-13.33 431,-22.67 431,-22.67 431,-27.33 426.33,-32 421.67,-32 421.67,-32 412.33,-32 412.33,-32 407.67,-32 403,-27.33 403,-22.67 403,-22.67 403,-13.33 403,-13.33 403,-8.67 407.67,-4 412.33,-4"/>
</g>
<!-- 20&#45;&gt;21 -->
<g id="edge9" class="edge">
<title>20&#45;&gt;21</title>
<path fill="none" stroke="black" d="M221.78,-98.14C261.2,-82.16 334.99,-52.25 379.7,-34.12"/>
<polygon fill="black" stroke="black" points="380.77,-37.46 388.72,-30.46 378.14,-30.98 380.77,-37.46"/>
<text text-anchor="start" x="329" y="-62" font-family="Courier New" font-weight="bold" font-size="10.00" fill="blue">MOV(WSPRITE,WIP3)</text>
</g>
<!-- 2&#45;&gt;20 -->
<g id="edge8" class="edge">
<title>2&#45;&gt;20</title>
<path fill="none" stroke="black" d="M40.33,-184.16C50.77,-172 66.28,-156.01 83,-146 105.77,-132.36 134.37,-123.54 156.97,-118.16"/>
<polygon fill="black" stroke="black" points="157.71,-121.59 166.71,-115.99 156.18,-114.76 157.71,-121.59"/>
<text text-anchor="start" x="87" y="-154" font-family="Courier New" font-weight="bold" font-size="10.00" fill="blue">LOADVIEW(WIP1,)</text>
</g>
<!-- 12 -->
<g id="node8" class="node">
<title>12</title>
<polyline fill="none" stroke="darkred" points="413,-99 435,-99"/>
<text text-anchor="start" x="416" y="-106.4" font-family="Courier New" font-weight="bold" font-size="14.00">12</text>
<path fill="none" stroke="darkred" d="M419.33,-96C419.33,-96 428.67,-96 428.67,-96 433.33,-96 438,-100.67 438,-105.33 438,-105.33 438,-114.67 438,-114.67 438,-119.33 433.33,-124 428.67,-124 428.67,-124 419.33,-124 419.33,-124 414.67,-124 410,-119.33 410,-114.67 410,-114.67 410,-105.33 410,-105.33 410,-100.67 414.67,-96 419.33,-96"/>
</g>
<!-- 11&#45;&gt;12 -->
<g id="edge6" class="edge">
<title>11&#45;&gt;12</title>
<path fill="none" stroke="black" d="M461.35,-184.07C454.73,-171.12 445.47,-153.01 437.83,-138.06"/>
<polygon fill="black" stroke="black" points="440.97,-136.51 433.3,-129.2 434.74,-139.7 440.97,-136.51"/>
<text text-anchor="start" x="455" y="-154" font-family="Courier New" font-weight="bold" font-size="10.00" fill="blue">SHOW(WSPRITE,)</text>
</g>
<!-- 12&#45;&gt;0 -->
<g id="edge7" class="edge">
<title>12&#45;&gt;0</title>
<path fill="none" stroke="black" d="M406.04,-127.83C383.43,-150.38 345.78,-192.8 331,-238 317.01,-280.78 322.51,-333.79 328.05,-365.56"/>
<polygon fill="black" stroke="black" points="324.57,-365.96 329.86,-375.14 331.45,-364.66 324.57,-365.96"/>
<text text-anchor="start" x="335" y="-246" font-family="Courier New" font-weight="bold" font-size="10.00" fill="blue">PLAYWAVE(0,SOUND_BTNDRAG)</text>
</g>
<!-- 21&#45;&gt;0 -->
<g id="edge10" class="edge">
<title>21&#45;&gt;0</title>
<path fill="none" stroke="black" d="M443.9,-18.05C503.21,-17.5 640,-25.29 640,-109 640,-295 640,-295 640,-295 640,-350.65 454.27,-379.38 372.21,-389.35"/>
<polygon fill="black" stroke="black" points="371.91,-385.86 362.39,-390.51 372.73,-392.81 371.91,-385.86"/>
<text text-anchor="start" x="644" y="-200" font-family="Courier New" font-weight="bold" font-size="10.00" fill="blue">SHOW(WSPRITE,)</text>
</g>
</g>
</svg>
