<?xml version="1.0" encoding="UTF-8" standalone="no"?>
<!DOCTYPE svg PUBLIC "-//W3C//DTD SVG 1.1//EN"
 "http://www.w3.org/Graphics/SVG/1.1/DTD/svg11.dtd">
<!-- Generated by graphviz version 7.1.0 (20230121.1956)
 -->
<!-- Pages: 1 -->
<svg width="677pt" height="314pt"
 viewBox="0.00 0.00 677.07 314.40" xmlns="http://www.w3.org/2000/svg" xmlns:xlink="http://www.w3.org/1999/xlink">
<g id="graph0" class="graph" transform="scale(1 1) rotate(0) translate(4 310.4)">
<polygon fill="white" stroke="none" points="-4,4 -4,-310.4 673.07,-310.4 673.07,4 -4,4"/>
<!-- M_BTN_1phase_0 -->
<g id="node1" class="node">
<title>M_BTN_1phase_0</title>
<polygon fill="none" stroke="black" points="167.89,-269.9 167.89,-305.9 291.21,-305.9 291.21,-269.9 167.89,-269.9"/>
<text text-anchor="middle" x="229.55" y="-283.7" font-family="Times,serif" font-size="14.00">M_BTN_1phase_0</text>
</g>
<!-- M_BTN_1phase_1 -->
<g id="node2" class="node">
<title>M_BTN_1phase_1</title>
<polygon fill="none" stroke="black" points="167.89,-180.1 167.89,-216.1 291.21,-216.1 291.21,-180.1 167.89,-180.1"/>
<text text-anchor="middle" x="229.55" y="-193.9" font-family="Times,serif" font-size="14.00">M_BTN_1phase_1</text>
</g>
<!-- M_BTN_1phase_0&#45;&gt;M_BTN_1phase_1 -->
<g id="edge1" class="edge">
<title>M_BTN_1phase_0&#45;&gt;M_BTN_1phase_1</title>
<path fill="none" stroke="red" d="M229.55,-269.97C229.55,-257.82 229.55,-241.18 229.55,-227.07"/>
<polygon fill="red" stroke="red" points="233.05,-227.49 229.55,-217.49 226.05,-227.49 233.05,-227.49"/>
<text text-anchor="start" x="229.55" y="-239.8" font-family="Times,serif" font-size="14.00" fill="red"> </text>
<text text-anchor="start" x="233.05" y="-239.8" font-family="Courier New" font-size="10.00" fill="red">CLICK(0,0)</text>
</g>
<!-- M_BTN_1phase_10 -->
<g id="node3" class="node">
<title>M_BTN_1phase_10</title>
<polygon fill="none" stroke="black" points="477.39,-180.1 477.39,-216.1 607.71,-216.1 607.71,-180.1 477.39,-180.1"/>
<text text-anchor="middle" x="542.55" y="-193.9" font-family="Times,serif" font-size="14.00">M_BTN_1phase_10</text>
</g>
<!-- M_BTN_1phase_0&#45;&gt;M_BTN_1phase_10 -->
<g id="edge2" class="edge">
<title>M_BTN_1phase_0&#45;&gt;M_BTN_1phase_10</title>
<path fill="none" stroke="red" d="M290.92,-279.15C329.03,-273.46 378.74,-264.43 421.55,-251.4 447.82,-243.41 476.05,-231.41 498.63,-220.93"/>
<polygon fill="red" stroke="red" points="499.98,-224.16 507.53,-216.73 496.99,-217.83 499.98,-224.16"/>
<text text-anchor="start" x="466.55" y="-239.8" font-family="Times,serif" font-size="14.00" fill="red"> </text>
<text text-anchor="start" x="470.05" y="-239.8" font-family="Courier New" font-size="10.00" fill="red">DRAGFOCUS(0,TRUE)</text>
</g>
<!-- M_BTN_1phase_20 -->
<g id="node4" class="node">
<title>M_BTN_1phase_20</title>
<polygon fill="none" stroke="black" points="74.39,-0.5 74.39,-36.5 204.71,-36.5 204.71,-0.5 74.39,-0.5"/>
<text text-anchor="middle" x="139.55" y="-14.3" font-family="Times,serif" font-size="14.00">M_BTN_1phase_20</text>
</g>
<!-- M_BTN_1phase_0&#45;&gt;M_BTN_1phase_20 -->
<g id="edge3" class="edge">
<title>M_BTN_1phase_0&#45;&gt;M_BTN_1phase_20</title>
<path fill="none" stroke="red" d="M168.07,-272.9C113.26,-256.63 37.04,-223.69 6.03,-161.6 -18.91,-111.66 43.68,-67.1 91.38,-41.71"/>
<polygon fill="red" stroke="red" points="92.98,-44.82 100.26,-37.12 89.77,-38.6 92.98,-44.82"/>
<text text-anchor="start" x="6.55" y="-150" font-family="Times,serif" font-size="14.00" fill="red"> </text>
<text text-anchor="start" x="10.05" y="-150" font-family="Courier New" font-size="10.00" fill="red">DRAGFOCUS(0,FALSE)</text>
</g>
<!-- M_BTN_1phase_2 -->
<g id="node5" class="node">
<title>M_BTN_1phase_2</title>
<polygon fill="none" stroke="black" points="167.89,-90.3 167.89,-126.3 291.21,-126.3 291.21,-90.3 167.89,-90.3"/>
<text text-anchor="middle" x="229.55" y="-104.1" font-family="Times,serif" font-size="14.00">M_BTN_1phase_2</text>
</g>
<!-- M_BTN_1phase_1&#45;&gt;M_BTN_1phase_2 -->
<g id="edge4" class="edge">
<title>M_BTN_1phase_1&#45;&gt;M_BTN_1phase_2</title>
<path fill="none" stroke="green" d="M227.52,-180.15C226.91,-174.29 226.33,-167.66 226.03,-161.6 225.66,-154.14 225.66,-152.26 226.03,-144.8 226.14,-142.43 226.3,-139.98 226.49,-137.52"/>
<polygon fill="green" stroke="green" points="229.96,-138.03 227.38,-127.76 222.99,-137.4 229.96,-138.03"/>
<text text-anchor="start" x="226.55" y="-150" font-family="Times,serif" font-size="14.00" fill="green"> </text>
<text text-anchor="start" x="230.05" y="-150" font-family="Courier New" font-size="10.00" fill="green">PLAYWAVE(0,SOUND_BTNPRESS)</text>
</g>
<!-- M_BTN_1phase_11 -->
<g id="node6" class="node">
<title>M_BTN_1phase_11</title>
<polygon fill="none" stroke="black" points="477.39,-90.3 477.39,-126.3 607.71,-126.3 607.71,-90.3 477.39,-90.3"/>
<text text-anchor="middle" x="542.55" y="-104.1" font-family="Times,serif" font-size="14.00">M_BTN_1phase_11</text>
</g>
<!-- M_BTN_1phase_10&#45;&gt;M_BTN_1phase_11 -->
<g id="edge6" class="edge">
<title>M_BTN_1phase_10&#45;&gt;M_BTN_1phase_11</title>
<path fill="none" stroke="green" d="M554.41,-180.17C557.72,-174.53 560.86,-168.03 562.55,-161.6 564.44,-154.38 564.44,-152.02 562.55,-144.8 561.81,-141.99 560.8,-139.16 559.61,-136.4"/>
<polygon fill="green" stroke="green" points="562.77,-134.89 555.1,-127.58 556.53,-138.07 562.77,-134.89"/>
<text text-anchor="start" x="563.55" y="-150" font-family="Times,serif" font-size="14.00" fill="green"> </text>
<text text-anchor="start" x="567.05" y="-150" font-family="Courier New" font-size="10.00" fill="green">MOV(WSPRITE,WIP2)</text>
</g>
<!-- M_BTN_1phase_20&#45;&gt;M_BTN_1phase_0 -->
<g id="edge9" class="edge">
<title>M_BTN_1phase_20&#45;&gt;M_BTN_1phase_0</title>
<path fill="none" stroke="green" d="M137.48,-36.33C133.91,-71.68 129.51,-155.42 158.55,-216.6 167.11,-234.64 182.33,-250.67 196.49,-262.85"/>
<polygon fill="green" stroke="green" points="193.98,-265.32 203.93,-268.96 198.42,-259.91 193.98,-265.32"/>
<text text-anchor="start" x="141.55" y="-150" font-family="Times,serif" font-size="14.00" fill="green"> </text>
<text text-anchor="start" x="145.05" y="-150" font-family="Courier New" font-size="10.00" fill="green">SHOW(0,0)</text>
</g>
<!-- M_BTN_1phase_2&#45;&gt;M_BTN_1phase_20 -->
<g id="edge5" class="edge">
<title>M_BTN_1phase_2&#45;&gt;M_BTN_1phase_20</title>
<path fill="none" stroke="green" d="M212.2,-90.37C198.75,-77.25 179.93,-58.89 164.81,-44.14"/>
<polygon fill="green" stroke="green" points="167.54,-41.91 157.93,-37.43 162.65,-46.92 167.54,-41.91"/>
<text text-anchor="start" x="193.55" y="-60.2" font-family="Times,serif" font-size="14.00" fill="green"> </text>
<text text-anchor="start" x="197.05" y="-60.2" font-family="Courier New" font-size="10.00" fill="green">LOADVIEW(WIP1,)</text>
</g>
<!-- M_BTN_1phase_12 -->
<g id="node7" class="node">
<title>M_BTN_1phase_12</title>
<polygon fill="none" stroke="black" points="384.39,-0.5 384.39,-36.5 514.71,-36.5 514.71,-0.5 384.39,-0.5"/>
<text text-anchor="middle" x="449.55" y="-14.3" font-family="Times,serif" font-size="14.00">M_BTN_1phase_12</text>
</g>
<!-- M_BTN_1phase_11&#45;&gt;M_BTN_1phase_12 -->
<g id="edge7" class="edge">
<title>M_BTN_1phase_11&#45;&gt;M_BTN_1phase_12</title>
<path fill="none" stroke="green" d="M524.62,-90.37C510.72,-77.25 491.27,-58.89 475.65,-44.14"/>
<polygon fill="green" stroke="green" points="478.2,-41.74 468.53,-37.42 473.4,-46.83 478.2,-41.74"/>
<text text-anchor="start" x="503.55" y="-60.2" font-family="Times,serif" font-size="14.00" fill="green"> </text>
<text text-anchor="start" x="507.05" y="-60.2" font-family="Courier New" font-size="10.00" fill="green">SHOW(WSPRITE,)</text>
</g>
<!-- M_BTN_1phase_12&#45;&gt;M_BTN_1phase_0 -->
<g id="edge8" class="edge">
<title>M_BTN_1phase_12&#45;&gt;M_BTN_1phase_0</title>
<path fill="none" stroke="green" d="M444.18,-36.24C434.86,-63.86 413.93,-120.04 385.55,-161.6 354.03,-207.74 342.43,-218.1 297.55,-251.4 291.15,-256.15 284.03,-260.61 276.88,-264.67"/>
<polygon fill="green" stroke="green" points="275.62,-261.37 268.49,-269.22 278.95,-267.53 275.62,-261.37"/>
<text text-anchor="start" x="396.55" y="-150" font-family="Times,serif" font-size="14.00" fill="green"> </text>
<text text-anchor="start" x="400.05" y="-150" font-family="Courier New" font-size="10.00" fill="green">PLAYWAVE(0,SOUND_BTNDRAG)</text>
</g>
</g>
</svg>
