<?xml version="1.0" encoding="UTF-8" standalone="no"?>
<!DOCTYPE svg PUBLIC "-//W3C//DTD SVG 1.1//EN"
 "http://www.w3.org/Graphics/SVG/1.1/DTD/svg11.dtd">
<!-- Generated by graphviz version 7.1.0 (20230121.1956)
 -->
<!-- Pages: 1 -->
<svg width="819pt" height="420pt"
 viewBox="0.00 0.00 819.00 420.00" xmlns="http://www.w3.org/2000/svg" xmlns:xlink="http://www.w3.org/1999/xlink">
<g id="graph0" class="graph" transform="scale(1 1) rotate(0) translate(4 416)">
<polygon fill="white" stroke="none" points="-4,4 -4,-416 815,-416 815,4 -4,4"/>
<!-- 0 -->
<g id="node1" class="node">
<title>0</title>
<ellipse fill="none" stroke="black" cx="369" cy="-394" rx="27" ry="18"/>
<text text-anchor="middle" x="369" y="-389.8" font-family="Times,serif" font-size="14.00">0</text>
</g>
<!-- 1 -->
<g id="node2" class="node">
<title>1</title>
<ellipse fill="none" stroke="black" cx="36" cy="-300" rx="27" ry="18"/>
<text text-anchor="middle" x="36" y="-295.8" font-family="Times,serif" font-size="14.00">1</text>
</g>
<!-- 0&#45;&gt;1 -->
<g id="edge1" class="edge">
<title>0&#45;&gt;1</title>
<path fill="none" stroke="black" d="M341.63,-392.5C296.31,-390.91 203.4,-384.4 130,-358 105.45,-349.17 80.32,-333.52 62.23,-320.85"/>
<polygon fill="black" stroke="black" points="64.34,-318.06 54.17,-315.06 60.25,-323.74 64.34,-318.06"/>
<text text-anchor="start" x="134" y="-344.2" font-family="Courier New" font-weight="bold" font-size="12.00" fill="orange">CLICK(00)</text>
</g>
<!-- 10 -->
<g id="node3" class="node">
<title>10</title>
<ellipse fill="none" stroke="black" cx="572" cy="-300" rx="27" ry="18"/>
<text text-anchor="middle" x="572" y="-295.8" font-family="Times,serif" font-size="14.00">10</text>
</g>
<!-- 0&#45;&gt;10 -->
<g id="edge2" class="edge">
<title>0&#45;&gt;10</title>
<path fill="none" stroke="black" d="M390.72,-383.15C426.5,-366.94 497.98,-334.54 539.7,-315.64"/>
<polygon fill="black" stroke="black" points="541.08,-318.85 548.75,-311.54 538.19,-312.48 541.08,-318.85"/>
<text text-anchor="start" x="498.5" y="-344.2" font-family="Courier New" font-weight="bold" font-size="12.00" fill="orange">DRAGFOCUS(0TRUE)</text>
</g>
<!-- 20 -->
<g id="node4" class="node">
<title>20</title>
<ellipse fill="none" stroke="black" cx="216" cy="-112" rx="27" ry="18"/>
<text text-anchor="middle" x="216" y="-107.8" font-family="Times,serif" font-size="14.00">20</text>
</g>
<!-- 0&#45;&gt;20 -->
<g id="edge3" class="edge">
<title>0&#45;&gt;20</title>
<path fill="none" stroke="black" d="M349.06,-381.35C317.52,-361.68 256.91,-318.64 230,-264 210.71,-224.84 210.54,-173.06 212.81,-141.43"/>
<polygon fill="black" stroke="black" points="216.26,-142.14 213.63,-131.88 209.29,-141.54 216.26,-142.14"/>
<text text-anchor="start" x="234" y="-250.2" font-family="Courier New" font-weight="bold" font-size="12.00" fill="orange">DRAGFOCUS(0FALSE)</text>
</g>
<!-- 2 -->
<g id="node5" class="node">
<title>2</title>
<ellipse fill="none" stroke="black" cx="27" cy="-206" rx="27" ry="18"/>
<text text-anchor="middle" x="27" y="-201.8" font-family="Times,serif" font-size="14.00">2</text>
</g>
<!-- 1&#45;&gt;2 -->
<g id="edge4" class="edge">
<title>1&#45;&gt;2</title>
<path fill="none" stroke="black" d="M20.2,-285.23C14.59,-279.32 8.94,-271.96 6,-264 2.18,-253.69 4.96,-242.32 9.59,-232.46"/>
<polygon fill="black" stroke="black" points="12.6,-234.25 14.39,-223.81 6.48,-230.86 12.6,-234.25"/>
<text text-anchor="start" x="10" y="-250.2" font-family="Courier New" font-weight="bold" font-size="12.00" fill="blue">PLAYWAVE(0SOUND_BTNPRESS)</text>
</g>
<!-- 11 -->
<g id="node6" class="node">
<title>11</title>
<ellipse fill="none" stroke="black" cx="521" cy="-206" rx="27" ry="18"/>
<text text-anchor="middle" x="521" y="-201.8" font-family="Times,serif" font-size="14.00">11</text>
</g>
<!-- 10&#45;&gt;11 -->
<g id="edge5" class="edge">
<title>10&#45;&gt;11</title>
<path fill="none" stroke="black" d="M567,-281.88C563.22,-270.21 557.4,-254.63 550,-242 547.69,-238.05 544.93,-234.1 542.06,-230.34"/>
<polygon fill="black" stroke="black" points="544.85,-228.22 535.8,-222.71 539.43,-232.66 544.85,-228.22"/>
<text text-anchor="start" x="564.5" y="-250.2" font-family="Courier New" font-weight="bold" font-size="12.00" fill="blue">MOV(WSPRITEWIP2)</text>
</g>
<!-- 21 -->
<g id="node8" class="node">
<title>21</title>
<ellipse fill="none" stroke="black" cx="463" cy="-18" rx="27" ry="18"/>
<text text-anchor="middle" x="463" y="-13.8" font-family="Times,serif" font-size="14.00">21</text>
</g>
<!-- 20&#45;&gt;21 -->
<g id="edge9" class="edge">
<title>20&#45;&gt;21</title>
<path fill="none" stroke="black" d="M239.24,-102.34C283,-86.04 377.83,-50.72 428.86,-31.72"/>
<polygon fill="black" stroke="black" points="430.08,-35 438.23,-28.23 427.63,-28.44 430.08,-35"/>
<text text-anchor="start" x="372.5" y="-62.2" font-family="Courier New" font-weight="bold" font-size="12.00" fill="blue">MOV(WSPRITEWIP3)</text>
</g>
<!-- 2&#45;&gt;20 -->
<g id="edge8" class="edge">
<title>2&#45;&gt;20</title>
<path fill="none" stroke="black" d="M40.56,-190.36C53.24,-177.48 73.27,-159.11 94,-148 120.66,-133.71 153.8,-124.68 178.81,-119.38"/>
<polygon fill="black" stroke="black" points="179.42,-122.83 188.54,-117.43 178.05,-115.96 179.42,-122.83"/>
<text text-anchor="start" x="98" y="-156.2" font-family="Courier New" font-weight="bold" font-size="12.00" fill="blue">LOADVIEW(WIP1)</text>
</g>
<!-- 12 -->
<g id="node7" class="node">
<title>12</title>
<ellipse fill="none" stroke="black" cx="395" cy="-112" rx="27" ry="18"/>
<text text-anchor="middle" x="395" y="-107.8" font-family="Times,serif" font-size="14.00">12</text>
</g>
<!-- 11&#45;&gt;12 -->
<g id="edge6" class="edge">
<title>11&#45;&gt;12</title>
<path fill="none" stroke="black" d="M503.21,-192.01C482.01,-176.53 446.38,-150.51 421.83,-132.59"/>
<polygon fill="black" stroke="black" points="424.06,-129.88 413.92,-126.81 419.93,-135.54 424.06,-129.88"/>
<text text-anchor="start" x="476.5" y="-156.2" font-family="Courier New" font-weight="bold" font-size="12.00" fill="blue">SHOW(WSPRITE)</text>
</g>
<!-- 12&#45;&gt;0 -->
<g id="edge7" class="edge">
<title>12&#45;&gt;0</title>
<path fill="none" stroke="black" d="M389.94,-129.91C382.91,-154.36 370.53,-201.16 366,-242 361.3,-284.37 363.78,-333.84 366.21,-364.29"/>
<polygon fill="black" stroke="black" points="362.72,-364.55 367.07,-374.22 369.7,-363.95 362.72,-364.55"/>
<text text-anchor="start" x="370" y="-250.2" font-family="Courier New" font-weight="bold" font-size="12.00" fill="blue">PLAYWAVE(0SOUND_BTNDRAG)</text>
</g>
<!-- 21&#45;&gt;0 -->
<g id="edge10" class="edge">
<title>21&#45;&gt;0</title>
<path fill="none" stroke="black" d="M489.43,-23.07C553.15,-33.62 710,-64.32 710,-111 710,-301 710,-301 710,-301 710,-363.07 496.75,-384.5 407.53,-390.75"/>
<polygon fill="black" stroke="black" points="407.3,-387.26 397.55,-391.42 407.76,-394.25 407.3,-387.26"/>
<text text-anchor="start" x="714.5" y="-203.2" font-family="Courier New" font-weight="bold" font-size="12.00" fill="blue">SHOW(WSPRITE)</text>
</g>
</g>
</svg>
