<?xml version="1.0" encoding="UTF-8" standalone="no"?>
<!DOCTYPE svg PUBLIC "-//W3C//DTD SVG 1.1//EN"
 "http://www.w3.org/Graphics/SVG/1.1/DTD/svg11.dtd">
<!-- Generated by graphviz version 7.1.0 (20230121.1956)
 -->
<!-- Pages: 1 -->
<svg width="736pt" height="404pt"
 viewBox="0.00 0.00 736.18 404.20" xmlns="http://www.w3.org/2000/svg" xmlns:xlink="http://www.w3.org/1999/xlink">
<g id="graph0" class="graph" transform="scale(1 1) rotate(0) translate(4 400.2)">
<polygon fill="white" stroke="none" points="-4,4 -4,-400.2 732.18,-400.2 732.18,4 -4,4"/>
<!-- M_BTN_2phase_0 -->
<g id="node1" class="node">
<title>M_BTN_2phase_0</title>
<polygon fill="none" stroke="black" points="281,-359.7 281,-395.7 404.32,-395.7 404.32,-359.7 281,-359.7"/>
<text text-anchor="middle" x="342.66" y="-373.5" font-family="Times,serif" font-size="14.00">M_BTN_2phase_0</text>
</g>
<!-- M_BTN_2phase_1 -->
<g id="node2" class="node">
<title>M_BTN_2phase_1</title>
<polygon fill="none" stroke="black" points="10,-269.9 10,-305.9 133.32,-305.9 133.32,-269.9 10,-269.9"/>
<text text-anchor="middle" x="71.66" y="-283.7" font-family="Times,serif" font-size="14.00">M_BTN_2phase_1</text>
</g>
<!-- M_BTN_2phase_0&#45;&gt;M_BTN_2phase_1 -->
<g id="edge1" class="edge">
<title>M_BTN_2phase_0&#45;&gt;M_BTN_2phase_1</title>
<path fill="none" stroke="red" d="M281.32,-375.46C237.34,-372.48 177.7,-364.02 130.15,-341.2 116.53,-334.66 103.73,-323.97 93.6,-313.95"/>
<polygon fill="red" stroke="red" points="96.26,-311.67 86.8,-306.89 91.21,-316.52 96.26,-311.67"/>
<text text-anchor="start" x="130.66" y="-329.6" font-family="Times,serif" font-size="14.00" fill="red"> </text>
<text text-anchor="start" x="134.16" y="-329.6" font-family="Courier New" font-size="10.00" fill="red">CLICK(0,0)</text>
</g>
<!-- M_BTN_2phase_10 -->
<g id="node3" class="node">
<title>M_BTN_2phase_10</title>
<polygon fill="none" stroke="black" points="418.5,-269.9 418.5,-305.9 548.82,-305.9 548.82,-269.9 418.5,-269.9"/>
<text text-anchor="middle" x="483.66" y="-283.7" font-family="Times,serif" font-size="14.00">M_BTN_2phase_10</text>
</g>
<!-- M_BTN_2phase_0&#45;&gt;M_BTN_2phase_10 -->
<g id="edge2" class="edge">
<title>M_BTN_2phase_0&#45;&gt;M_BTN_2phase_10</title>
<path fill="none" stroke="red" d="M369.85,-359.77C391.79,-346.11 422.88,-326.75 447.02,-311.72"/>
<polygon fill="red" stroke="red" points="448.64,-314.83 455.27,-306.58 444.94,-308.89 448.64,-314.83"/>
<text text-anchor="start" x="425.66" y="-329.6" font-family="Times,serif" font-size="14.00" fill="red"> </text>
<text text-anchor="start" x="429.16" y="-329.6" font-family="Courier New" font-size="10.00" fill="red">DRAGFOCUS(0,TRUE)</text>
</g>
<!-- M_BTN_2phase_20 -->
<g id="node4" class="node">
<title>M_BTN_2phase_20</title>
<polygon fill="none" stroke="black" points="142.5,-90.3 142.5,-126.3 272.82,-126.3 272.82,-90.3 142.5,-90.3"/>
<text text-anchor="middle" x="207.66" y="-104.1" font-family="Times,serif" font-size="14.00">M_BTN_2phase_20</text>
</g>
<!-- M_BTN_2phase_0&#45;&gt;M_BTN_2phase_20 -->
<g id="edge3" class="edge">
<title>M_BTN_2phase_0&#45;&gt;M_BTN_2phase_20</title>
<path fill="none" stroke="red" d="M318.55,-359.73C290.05,-338.17 243.77,-298.1 222.14,-251.4 205.11,-214.62 203.92,-166.86 205.29,-137.15"/>
<polygon fill="red" stroke="red" points="208.77,-137.68 205.88,-127.49 201.78,-137.26 208.77,-137.68"/>
<text text-anchor="start" x="222.66" y="-239.8" font-family="Times,serif" font-size="14.00" fill="red"> </text>
<text text-anchor="start" x="226.16" y="-239.8" font-family="Courier New" font-size="10.00" fill="red">DRAGFOCUS(0,FALSE)</text>
</g>
<!-- M_BTN_2phase_2 -->
<g id="node5" class="node">
<title>M_BTN_2phase_2</title>
<polygon fill="none" stroke="black" points="0,-180.1 0,-216.1 123.32,-216.1 123.32,-180.1 0,-180.1"/>
<text text-anchor="middle" x="61.66" y="-193.9" font-family="Times,serif" font-size="14.00">M_BTN_2phase_2</text>
</g>
<!-- M_BTN_2phase_1&#45;&gt;M_BTN_2phase_2 -->
<g id="edge4" class="edge">
<title>M_BTN_2phase_1&#45;&gt;M_BTN_2phase_2</title>
<path fill="none" stroke="green" d="M42.16,-270.23C35.71,-265.08 29.74,-258.79 26.14,-251.4 21.61,-242.13 25.2,-232.61 31.55,-224.29"/>
<polygon fill="green" stroke="green" points="34.12,-226.66 38.26,-216.9 28.94,-221.95 34.12,-226.66"/>
<text text-anchor="start" x="26.66" y="-239.8" font-family="Times,serif" font-size="14.00" fill="green"> </text>
<text text-anchor="start" x="30.16" y="-239.8" font-family="Courier New" font-size="10.00" fill="green">PLAYWAVE(0,SOUND_BTNPRESS)</text>
</g>
<!-- M_BTN_2phase_11 -->
<g id="node6" class="node">
<title>M_BTN_2phase_11</title>
<polygon fill="none" stroke="black" points="412.5,-180.1 412.5,-216.1 542.82,-216.1 542.82,-180.1 412.5,-180.1"/>
<text text-anchor="middle" x="477.66" y="-193.9" font-family="Times,serif" font-size="14.00">M_BTN_2phase_11</text>
</g>
<!-- M_BTN_2phase_10&#45;&gt;M_BTN_2phase_11 -->
<g id="edge6" class="edge">
<title>M_BTN_2phase_10&#45;&gt;M_BTN_2phase_11</title>
<path fill="none" stroke="green" d="M492.75,-269.95C497.1,-259.72 500.76,-246.42 497.66,-234.6 496.92,-231.79 495.91,-228.96 494.72,-226.2"/>
<polygon fill="green" stroke="green" points="497.88,-224.69 490.21,-217.38 491.65,-227.87 497.88,-224.69"/>
<text text-anchor="start" x="498.66" y="-239.8" font-family="Times,serif" font-size="14.00" fill="green"> </text>
<text text-anchor="start" x="502.16" y="-239.8" font-family="Courier New" font-size="10.00" fill="green">MOV(WSPRITE,WIP2)</text>
</g>
<!-- M_BTN_2phase_21 -->
<g id="node8" class="node">
<title>M_BTN_2phase_21</title>
<polygon fill="none" stroke="black" points="358.5,-0.5 358.5,-36.5 488.82,-36.5 488.82,-0.5 358.5,-0.5"/>
<text text-anchor="middle" x="423.66" y="-14.3" font-family="Times,serif" font-size="14.00">M_BTN_2phase_21</text>
</g>
<!-- M_BTN_2phase_20&#45;&gt;M_BTN_2phase_21 -->
<g id="edge9" class="edge">
<title>M_BTN_2phase_20&#45;&gt;M_BTN_2phase_21</title>
<path fill="none" stroke="green" d="M249.31,-90.37C284.27,-76.16 334.38,-55.79 371.91,-40.54"/>
<polygon fill="green" stroke="green" points="372.79,-43.95 380.74,-36.95 370.16,-37.47 372.79,-43.95"/>
<text text-anchor="start" x="335.66" y="-60.2" font-family="Times,serif" font-size="14.00" fill="green"> </text>
<text text-anchor="start" x="339.16" y="-60.2" font-family="Courier New" font-size="10.00" fill="green">MOV(WSPRITE,WIP3)</text>
</g>
<!-- M_BTN_2phase_2&#45;&gt;M_BTN_2phase_20 -->
<g id="edge5" class="edge">
<title>M_BTN_2phase_2&#45;&gt;M_BTN_2phase_20</title>
<path fill="none" stroke="green" d="M70.34,-180.33C77.06,-168.84 87.37,-154.07 100.15,-144.8 109.67,-137.89 120.62,-132.27 131.81,-127.71"/>
<polygon fill="green" stroke="green" points="133.03,-131 141.15,-124.2 130.56,-124.44 133.03,-131"/>
<text text-anchor="start" x="100.66" y="-150" font-family="Times,serif" font-size="14.00" fill="green"> </text>
<text text-anchor="start" x="104.16" y="-150" font-family="Courier New" font-size="10.00" fill="green">LOADVIEW(WIP1,)</text>
</g>
<!-- M_BTN_2phase_12 -->
<g id="node7" class="node">
<title>M_BTN_2phase_12</title>
<polygon fill="none" stroke="black" points="326.5,-90.3 326.5,-126.3 456.82,-126.3 456.82,-90.3 326.5,-90.3"/>
<text text-anchor="middle" x="391.66" y="-104.1" font-family="Times,serif" font-size="14.00">M_BTN_2phase_12</text>
</g>
<!-- M_BTN_2phase_11&#45;&gt;M_BTN_2phase_12 -->
<g id="edge7" class="edge">
<title>M_BTN_2phase_11&#45;&gt;M_BTN_2phase_12</title>
<path fill="none" stroke="green" d="M461.08,-180.17C448.35,-167.17 430.58,-149.03 416.2,-134.35"/>
<polygon fill="green" stroke="green" points="418.75,-131.95 409.25,-127.26 413.75,-136.85 418.75,-131.95"/>
<text text-anchor="start" x="441.66" y="-150" font-family="Times,serif" font-size="14.00" fill="green"> </text>
<text text-anchor="start" x="445.16" y="-150" font-family="Courier New" font-size="10.00" fill="green">SHOW(WSPRITE,)</text>
</g>
<!-- M_BTN_2phase_12&#45;&gt;M_BTN_2phase_0 -->
<g id="edge8" class="edge">
<title>M_BTN_2phase_12&#45;&gt;M_BTN_2phase_0</title>
<path fill="none" stroke="green" d="M382.28,-126.06C369.75,-149.49 348.21,-193.76 340.14,-234.6 332.44,-273.57 335.42,-319.73 338.7,-348.62"/>
<polygon fill="green" stroke="green" points="335.2,-348.87 339.9,-358.37 342.15,-348.02 335.2,-348.87"/>
<text text-anchor="start" x="340.66" y="-239.8" font-family="Times,serif" font-size="14.00" fill="green"> </text>
<text text-anchor="start" x="344.16" y="-239.8" font-family="Courier New" font-size="10.00" fill="green">PLAYWAVE(0,SOUND_BTNDRAG)</text>
</g>
<!-- M_BTN_2phase_21&#45;&gt;M_BTN_2phase_0 -->
<g id="edge10" class="edge">
<title>M_BTN_2phase_21&#45;&gt;M_BTN_2phase_0</title>
<path fill="none" stroke="green" d="M488.77,-19.62C552.69,-23.57 640.66,-41.06 640.66,-107.3 640.66,-288.9 640.66,-288.9 640.66,-288.9 640.66,-335.73 503.56,-359.42 415.35,-369.82"/>
<polygon fill="green" stroke="green" points="415.09,-366.33 405.55,-370.94 415.88,-373.29 415.09,-366.33"/>
<text text-anchor="start" x="640.66" y="-194.9" font-family="Times,serif" font-size="14.00" fill="green"> </text>
<text text-anchor="start" x="644.16" y="-194.9" font-family="Courier New" font-size="10.00" fill="green">SHOW(WSPRITE,)</text>
</g>
</g>
</svg>
