<?xml version="1.0" encoding="UTF-8" standalone="no"?>
<!DOCTYPE svg PUBLIC "-//W3C//DTD SVG 1.1//EN"
 "http://www.w3.org/Graphics/SVG/1.1/DTD/svg11.dtd">
<!-- Generated by graphviz version 7.1.0 (20230121.1956)
 -->
<!-- Pages: 1 -->
<svg width="342pt" height="4368pt"
 viewBox="0.00 0.00 342.00 4368.00" xmlns="http://www.w3.org/2000/svg" xmlns:xlink="http://www.w3.org/1999/xlink">
<g id="graph0" class="graph" transform="scale(1 1) rotate(0) translate(4 4364)">
<polygon fill="white" stroke="none" points="-4,4 -4,-4364 338,-4364 338,4 -4,4"/>
<!-- 0 -->
<g id="node1" class="node">
<title>0</title>
<ellipse fill="none" stroke="black" cx="149" cy="-4342" rx="27" ry="18"/>
<text text-anchor="middle" x="149" y="-4337.8" font-family="Times,serif" font-size="14.00">0</text>
</g>
<!-- 1 -->
<g id="node2" class="node">
<title>1</title>
<ellipse fill="none" stroke="black" cx="149" cy="-4250" rx="27" ry="18"/>
<text text-anchor="middle" x="149" y="-4245.8" font-family="Times,serif" font-size="14.00">1</text>
</g>
<!-- 0&#45;&gt;1 -->
<g id="edge1" class="edge">
<title>0&#45;&gt;1</title>
<path fill="none" stroke="black" d="M149,-4323.65C149,-4311.2 149,-4294.14 149,-4279.68"/>
<polygon fill="black" stroke="black" points="152.5,-4279.81 149,-4269.81 145.5,-4279.81 152.5,-4279.81"/>
<text text-anchor="start" x="153" y="-4294" font-family="Courier New" font-weight="bold" font-size="10.00" fill="blue">SHOW(WIP1,)</text>
</g>
<!-- 150 -->
<g id="node3" class="node">
<title>150</title>
<ellipse fill="none" stroke="black" cx="80" cy="-4158" rx="27" ry="18"/>
<text text-anchor="middle" x="80" y="-4153.8" font-family="Times,serif" font-size="14.00">150</text>
</g>
<!-- 1&#45;&gt;150 -->
<g id="edge2" class="edge">
<title>1&#45;&gt;150</title>
<path fill="none" stroke="black" d="M137.3,-4233.73C126.75,-4219.98 111.07,-4199.53 98.78,-4183.49"/>
<polygon fill="black" stroke="black" points="101.78,-4181.65 92.92,-4175.85 96.22,-4185.91 101.78,-4181.65"/>
<text text-anchor="start" x="125" y="-4202" font-family="Courier New" font-weight="bold" font-size="10.00" fill="orange">CLICK(0,0)</text>
</g>
<!-- 101 -->
<g id="node4" class="node">
<title>101</title>
<ellipse fill="none" stroke="black" cx="43" cy="-4066" rx="27" ry="18"/>
<text text-anchor="middle" x="43" y="-4061.8" font-family="Times,serif" font-size="14.00">101</text>
</g>
<!-- 150&#45;&gt;101 -->
<g id="edge48" class="edge">
<title>150&#45;&gt;101</title>
<path fill="none" stroke="black" d="M68.66,-4141.17C64.87,-4135.35 60.89,-4128.57 58,-4122 54.29,-4113.56 51.3,-4103.97 48.99,-4095.2"/>
<polygon fill="black" stroke="black" points="52.46,-4094.66 46.7,-4085.76 45.65,-4096.31 52.46,-4094.66"/>
<text text-anchor="start" x="62" y="-4110" font-family="Courier New" font-weight="bold" font-size="10.00" fill="blue">SIGNALi(SIG_NULL,S00_CLEAR)</text>
</g>
<!-- 102 -->
<g id="node5" class="node">
<title>102</title>
<ellipse fill="none" stroke="black" cx="38" cy="-3974" rx="27" ry="18"/>
<text text-anchor="middle" x="38" y="-3969.8" font-family="Times,serif" font-size="14.00">102</text>
</g>
<!-- 101&#45;&gt;102 -->
<g id="edge3" class="edge">
<title>101&#45;&gt;102</title>
<path fill="none" stroke="black" d="M42.04,-4047.65C41.34,-4035.2 40.4,-4018.14 39.59,-4003.68"/>
<polygon fill="black" stroke="black" points="43.09,-4003.6 39.05,-3993.81 36.11,-4003.99 43.09,-4003.6"/>
<text text-anchor="start" x="45" y="-4018" font-family="Courier New" font-weight="bold" font-size="10.00" fill="blue">ASSIGN(WTEMP1,IDD_WPAWN)</text>
</g>
<!-- 103 -->
<g id="node6" class="node">
<title>103</title>
<ellipse fill="none" stroke="black" cx="32" cy="-3882" rx="27" ry="18"/>
<text text-anchor="middle" x="32" y="-3877.8" font-family="Times,serif" font-size="14.00">103</text>
</g>
<!-- 102&#45;&gt;103 -->
<g id="edge4" class="edge">
<title>102&#45;&gt;103</title>
<path fill="none" stroke="black" d="M35.74,-3955.58C35.09,-3949.97 34.43,-3943.73 34,-3938 33.36,-3929.45 32.92,-3920.14 32.62,-3911.65"/>
<polygon fill="black" stroke="black" points="36.13,-3911.76 32.33,-3901.87 29.13,-3911.97 36.13,-3911.76"/>
<text text-anchor="start" x="38" y="-3926" font-family="Courier New" font-weight="bold" font-size="10.00" fill="blue">SIGNALi(SIG_SET,S00_SQUARE00+8)</text>
</g>
<!-- 104 -->
<g id="node7" class="node">
<title>104</title>
<ellipse fill="none" stroke="black" cx="29" cy="-3790" rx="27" ry="18"/>
<text text-anchor="middle" x="29" y="-3785.8" font-family="Times,serif" font-size="14.00">104</text>
</g>
<!-- 103&#45;&gt;104 -->
<g id="edge5" class="edge">
<title>103&#45;&gt;104</title>
<path fill="none" stroke="black" d="M31.42,-3863.65C31.01,-3851.2 30.44,-3834.14 29.96,-3819.68"/>
<polygon fill="black" stroke="black" points="33.46,-3819.69 29.63,-3809.81 26.46,-3819.92 33.46,-3819.69"/>
<text text-anchor="start" x="35" y="-3834" font-family="Courier New" font-weight="bold" font-size="10.00" fill="blue">SIGNALi(SIG_SET,S00_SQUARE00+9)</text>
</g>
<!-- 105 -->
<g id="node8" class="node">
<title>105</title>
<ellipse fill="none" stroke="black" cx="27" cy="-3698" rx="27" ry="18"/>
<text text-anchor="middle" x="27" y="-3693.8" font-family="Times,serif" font-size="14.00">105</text>
</g>
<!-- 104&#45;&gt;105 -->
<g id="edge6" class="edge">
<title>104&#45;&gt;105</title>
<path fill="none" stroke="black" d="M28.47,-3771.55C28.3,-3765.95 28.13,-3759.71 28,-3754 27.8,-3745.43 27.62,-3736.12 27.46,-3727.63"/>
<polygon fill="black" stroke="black" points="30.97,-3727.79 27.3,-3717.85 23.97,-3727.91 30.97,-3727.79"/>
<text text-anchor="start" x="32" y="-3742" font-family="Courier New" font-weight="bold" font-size="10.00" fill="blue">SIGNALi(SIG_SET,S00_SQUARE00+10)</text>
</g>
<!-- 106 -->
<g id="node9" class="node">
<title>106</title>
<ellipse fill="none" stroke="black" cx="27" cy="-3606" rx="27" ry="18"/>
<text text-anchor="middle" x="27" y="-3601.8" font-family="Times,serif" font-size="14.00">106</text>
</g>
<!-- 105&#45;&gt;106 -->
<g id="edge7" class="edge">
<title>105&#45;&gt;106</title>
<path fill="none" stroke="black" d="M27,-3679.65C27,-3667.2 27,-3650.14 27,-3635.68"/>
<polygon fill="black" stroke="black" points="30.5,-3635.81 27,-3625.81 23.5,-3635.81 30.5,-3635.81"/>
<text text-anchor="start" x="31" y="-3650" font-family="Courier New" font-weight="bold" font-size="10.00" fill="blue">SIGNALi(SIG_SET,S00_SQUARE00+11)</text>
</g>
<!-- 107 -->
<g id="node10" class="node">
<title>107</title>
<ellipse fill="none" stroke="black" cx="27" cy="-3514" rx="27" ry="18"/>
<text text-anchor="middle" x="27" y="-3509.8" font-family="Times,serif" font-size="14.00">107</text>
</g>
<!-- 106&#45;&gt;107 -->
<g id="edge8" class="edge">
<title>106&#45;&gt;107</title>
<path fill="none" stroke="black" d="M27,-3587.65C27,-3575.2 27,-3558.14 27,-3543.68"/>
<polygon fill="black" stroke="black" points="30.5,-3543.81 27,-3533.81 23.5,-3543.81 30.5,-3543.81"/>
<text text-anchor="start" x="31" y="-3558" font-family="Courier New" font-weight="bold" font-size="10.00" fill="blue">SIGNALi(SIG_SET,S00_SQUARE00+12)</text>
</g>
<!-- 108 -->
<g id="node11" class="node">
<title>108</title>
<ellipse fill="none" stroke="black" cx="27" cy="-3422" rx="27" ry="18"/>
<text text-anchor="middle" x="27" y="-3417.8" font-family="Times,serif" font-size="14.00">108</text>
</g>
<!-- 107&#45;&gt;108 -->
<g id="edge9" class="edge">
<title>107&#45;&gt;108</title>
<path fill="none" stroke="black" d="M27,-3495.65C27,-3483.2 27,-3466.14 27,-3451.68"/>
<polygon fill="black" stroke="black" points="30.5,-3451.81 27,-3441.81 23.5,-3451.81 30.5,-3451.81"/>
<text text-anchor="start" x="31" y="-3466" font-family="Courier New" font-weight="bold" font-size="10.00" fill="blue">SIGNALi(SIG_SET,S00_SQUARE00+13)</text>
</g>
<!-- 109 -->
<g id="node12" class="node">
<title>109</title>
<ellipse fill="none" stroke="black" cx="27" cy="-3330" rx="27" ry="18"/>
<text text-anchor="middle" x="27" y="-3325.8" font-family="Times,serif" font-size="14.00">109</text>
</g>
<!-- 108&#45;&gt;109 -->
<g id="edge10" class="edge">
<title>108&#45;&gt;109</title>
<path fill="none" stroke="black" d="M27,-3403.65C27,-3391.2 27,-3374.14 27,-3359.68"/>
<polygon fill="black" stroke="black" points="30.5,-3359.81 27,-3349.81 23.5,-3359.81 30.5,-3359.81"/>
<text text-anchor="start" x="31" y="-3374" font-family="Courier New" font-weight="bold" font-size="10.00" fill="blue">SIGNALi(SIG_SET,S00_SQUARE00+14)</text>
</g>
<!-- 110 -->
<g id="node13" class="node">
<title>110</title>
<ellipse fill="none" stroke="black" cx="30" cy="-3238" rx="27" ry="18"/>
<text text-anchor="middle" x="30" y="-3233.8" font-family="Times,serif" font-size="14.00">110</text>
</g>
<!-- 109&#45;&gt;110 -->
<g id="edge11" class="edge">
<title>109&#45;&gt;110</title>
<path fill="none" stroke="black" d="M27.14,-3311.66C27.27,-3300.83 27.53,-3286.6 28,-3274 28.08,-3271.95 28.17,-3269.82 28.27,-3267.69"/>
<polygon fill="black" stroke="black" points="31.75,-3268.12 28.79,-3257.95 24.76,-3267.75 31.75,-3268.12"/>
<text text-anchor="start" x="32" y="-3282" font-family="Courier New" font-weight="bold" font-size="10.00" fill="blue">SIGNALi(SIG_SET,S00_SQUARE00+15)</text>
</g>
<!-- 111 -->
<g id="node14" class="node">
<title>111</title>
<ellipse fill="none" stroke="black" cx="32" cy="-3146" rx="27" ry="18"/>
<text text-anchor="middle" x="32" y="-3141.8" font-family="Times,serif" font-size="14.00">111</text>
</g>
<!-- 110&#45;&gt;111 -->
<g id="edge12" class="edge">
<title>110&#45;&gt;111</title>
<path fill="none" stroke="black" d="M30.39,-3219.65C30.66,-3207.2 31.04,-3190.14 31.36,-3175.68"/>
<polygon fill="black" stroke="black" points="34.86,-3175.89 31.58,-3165.81 27.86,-3175.73 34.86,-3175.89"/>
<text text-anchor="start" x="36" y="-3190" font-family="Courier New" font-weight="bold" font-size="10.00" fill="blue">ASSIGN(WTEMP1,IDD_WROOK)</text>
</g>
<!-- 112 -->
<g id="node15" class="node">
<title>112</title>
<ellipse fill="none" stroke="black" cx="33" cy="-3054" rx="27" ry="18"/>
<text text-anchor="middle" x="33" y="-3049.8" font-family="Times,serif" font-size="14.00">112</text>
</g>
<!-- 111&#45;&gt;112 -->
<g id="edge13" class="edge">
<title>111&#45;&gt;112</title>
<path fill="none" stroke="black" d="M32.19,-3127.65C32.33,-3115.2 32.52,-3098.14 32.68,-3083.68"/>
<polygon fill="black" stroke="black" points="36.18,-3083.85 32.79,-3073.81 29.18,-3083.77 36.18,-3083.85"/>
<text text-anchor="start" x="37" y="-3098" font-family="Courier New" font-weight="bold" font-size="10.00" fill="blue">SIGNALi(SIG_SET,S00_SQUARE00+0)</text>
</g>
<!-- 113 -->
<g id="node16" class="node">
<title>113</title>
<ellipse fill="none" stroke="black" cx="33" cy="-2962" rx="27" ry="18"/>
<text text-anchor="middle" x="33" y="-2957.8" font-family="Times,serif" font-size="14.00">113</text>
</g>
<!-- 112&#45;&gt;113 -->
<g id="edge14" class="edge">
<title>112&#45;&gt;113</title>
<path fill="none" stroke="black" d="M33,-3035.65C33,-3023.2 33,-3006.14 33,-2991.68"/>
<polygon fill="black" stroke="black" points="36.5,-2991.81 33,-2981.81 29.5,-2991.81 36.5,-2991.81"/>
<text text-anchor="start" x="37" y="-3006" font-family="Courier New" font-weight="bold" font-size="10.00" fill="blue">SIGNALi(SIG_SET,S00_SQUARE00+7)</text>
</g>
<!-- 114 -->
<g id="node17" class="node">
<title>114</title>
<ellipse fill="none" stroke="black" cx="33" cy="-2870" rx="27" ry="18"/>
<text text-anchor="middle" x="33" y="-2865.8" font-family="Times,serif" font-size="14.00">114</text>
</g>
<!-- 113&#45;&gt;114 -->
<g id="edge15" class="edge">
<title>113&#45;&gt;114</title>
<path fill="none" stroke="black" d="M33,-2943.65C33,-2931.2 33,-2914.14 33,-2899.68"/>
<polygon fill="black" stroke="black" points="36.5,-2899.81 33,-2889.81 29.5,-2899.81 36.5,-2899.81"/>
<text text-anchor="start" x="37" y="-2914" font-family="Courier New" font-weight="bold" font-size="10.00" fill="blue">ASSIGN(WTEMP1,IDD_WKNIGHT)</text>
</g>
<!-- 115 -->
<g id="node18" class="node">
<title>115</title>
<ellipse fill="none" stroke="black" cx="33" cy="-2778" rx="27" ry="18"/>
<text text-anchor="middle" x="33" y="-2773.8" font-family="Times,serif" font-size="14.00">115</text>
</g>
<!-- 114&#45;&gt;115 -->
<g id="edge16" class="edge">
<title>114&#45;&gt;115</title>
<path fill="none" stroke="black" d="M33,-2851.65C33,-2839.2 33,-2822.14 33,-2807.68"/>
<polygon fill="black" stroke="black" points="36.5,-2807.81 33,-2797.81 29.5,-2807.81 36.5,-2807.81"/>
<text text-anchor="start" x="37" y="-2822" font-family="Courier New" font-weight="bold" font-size="10.00" fill="blue">SIGNALi(SIG_SET,S00_SQUARE00+1)</text>
</g>
<!-- 116 -->
<g id="node19" class="node">
<title>116</title>
<ellipse fill="none" stroke="black" cx="33" cy="-2686" rx="27" ry="18"/>
<text text-anchor="middle" x="33" y="-2681.8" font-family="Times,serif" font-size="14.00">116</text>
</g>
<!-- 115&#45;&gt;116 -->
<g id="edge17" class="edge">
<title>115&#45;&gt;116</title>
<path fill="none" stroke="black" d="M33,-2759.65C33,-2747.2 33,-2730.14 33,-2715.68"/>
<polygon fill="black" stroke="black" points="36.5,-2715.81 33,-2705.81 29.5,-2715.81 36.5,-2715.81"/>
<text text-anchor="start" x="37" y="-2730" font-family="Courier New" font-weight="bold" font-size="10.00" fill="blue">SIGNALi(SIG_SET,S00_SQUARE00+6)</text>
</g>
<!-- 117 -->
<g id="node20" class="node">
<title>117</title>
<ellipse fill="none" stroke="black" cx="33" cy="-2594" rx="27" ry="18"/>
<text text-anchor="middle" x="33" y="-2589.8" font-family="Times,serif" font-size="14.00">117</text>
</g>
<!-- 116&#45;&gt;117 -->
<g id="edge18" class="edge">
<title>116&#45;&gt;117</title>
<path fill="none" stroke="black" d="M33,-2667.65C33,-2655.2 33,-2638.14 33,-2623.68"/>
<polygon fill="black" stroke="black" points="36.5,-2623.81 33,-2613.81 29.5,-2623.81 36.5,-2623.81"/>
<text text-anchor="start" x="37" y="-2638" font-family="Courier New" font-weight="bold" font-size="10.00" fill="blue">ASSIGN(WTEMP1,IDD_WBISHOP)</text>
</g>
<!-- 118 -->
<g id="node21" class="node">
<title>118</title>
<ellipse fill="none" stroke="black" cx="33" cy="-2502" rx="27" ry="18"/>
<text text-anchor="middle" x="33" y="-2497.8" font-family="Times,serif" font-size="14.00">118</text>
</g>
<!-- 117&#45;&gt;118 -->
<g id="edge19" class="edge">
<title>117&#45;&gt;118</title>
<path fill="none" stroke="black" d="M33,-2575.65C33,-2563.2 33,-2546.14 33,-2531.68"/>
<polygon fill="black" stroke="black" points="36.5,-2531.81 33,-2521.81 29.5,-2531.81 36.5,-2531.81"/>
<text text-anchor="start" x="37" y="-2546" font-family="Courier New" font-weight="bold" font-size="10.00" fill="blue">SIGNALi(SIG_SET,S00_SQUARE00+2)</text>
</g>
<!-- 119 -->
<g id="node22" class="node">
<title>119</title>
<ellipse fill="none" stroke="black" cx="33" cy="-2410" rx="27" ry="18"/>
<text text-anchor="middle" x="33" y="-2405.8" font-family="Times,serif" font-size="14.00">119</text>
</g>
<!-- 118&#45;&gt;119 -->
<g id="edge20" class="edge">
<title>118&#45;&gt;119</title>
<path fill="none" stroke="black" d="M33,-2483.65C33,-2471.2 33,-2454.14 33,-2439.68"/>
<polygon fill="black" stroke="black" points="36.5,-2439.81 33,-2429.81 29.5,-2439.81 36.5,-2439.81"/>
<text text-anchor="start" x="37" y="-2454" font-family="Courier New" font-weight="bold" font-size="10.00" fill="blue">SIGNALi(SIG_SET,S00_SQUARE00+5)</text>
</g>
<!-- 120 -->
<g id="node23" class="node">
<title>120</title>
<ellipse fill="none" stroke="black" cx="33" cy="-2318" rx="27" ry="18"/>
<text text-anchor="middle" x="33" y="-2313.8" font-family="Times,serif" font-size="14.00">120</text>
</g>
<!-- 119&#45;&gt;120 -->
<g id="edge21" class="edge">
<title>119&#45;&gt;120</title>
<path fill="none" stroke="black" d="M33,-2391.65C33,-2379.2 33,-2362.14 33,-2347.68"/>
<polygon fill="black" stroke="black" points="36.5,-2347.81 33,-2337.81 29.5,-2347.81 36.5,-2347.81"/>
<text text-anchor="start" x="37" y="-2362" font-family="Courier New" font-weight="bold" font-size="10.00" fill="blue">ASSIGN(WTEMP1,IDD_WQUEEN)</text>
</g>
<!-- 121 -->
<g id="node24" class="node">
<title>121</title>
<ellipse fill="none" stroke="black" cx="33" cy="-2226" rx="27" ry="18"/>
<text text-anchor="middle" x="33" y="-2221.8" font-family="Times,serif" font-size="14.00">121</text>
</g>
<!-- 120&#45;&gt;121 -->
<g id="edge22" class="edge">
<title>120&#45;&gt;121</title>
<path fill="none" stroke="black" d="M33,-2299.65C33,-2287.2 33,-2270.14 33,-2255.68"/>
<polygon fill="black" stroke="black" points="36.5,-2255.81 33,-2245.81 29.5,-2255.81 36.5,-2255.81"/>
<text text-anchor="start" x="37" y="-2270" font-family="Courier New" font-weight="bold" font-size="10.00" fill="blue">SIGNALi(SIG_SET,S00_SQUARE00+3)</text>
</g>
<!-- 122 -->
<g id="node25" class="node">
<title>122</title>
<ellipse fill="none" stroke="black" cx="33" cy="-2134" rx="27" ry="18"/>
<text text-anchor="middle" x="33" y="-2129.8" font-family="Times,serif" font-size="14.00">122</text>
</g>
<!-- 121&#45;&gt;122 -->
<g id="edge23" class="edge">
<title>121&#45;&gt;122</title>
<path fill="none" stroke="black" d="M33,-2207.65C33,-2195.2 33,-2178.14 33,-2163.68"/>
<polygon fill="black" stroke="black" points="36.5,-2163.81 33,-2153.81 29.5,-2163.81 36.5,-2163.81"/>
<text text-anchor="start" x="37" y="-2178" font-family="Courier New" font-weight="bold" font-size="10.00" fill="blue">ASSIGN(WTEMP1,IDD_WKING)</text>
</g>
<!-- 124 -->
<g id="node26" class="node">
<title>124</title>
<ellipse fill="none" stroke="black" cx="33" cy="-2042" rx="27" ry="18"/>
<text text-anchor="middle" x="33" y="-2037.8" font-family="Times,serif" font-size="14.00">124</text>
</g>
<!-- 122&#45;&gt;124 -->
<g id="edge24" class="edge">
<title>122&#45;&gt;124</title>
<path fill="none" stroke="black" d="M33,-2115.65C33,-2103.2 33,-2086.14 33,-2071.68"/>
<polygon fill="black" stroke="black" points="36.5,-2071.81 33,-2061.81 29.5,-2071.81 36.5,-2071.81"/>
<text text-anchor="start" x="37" y="-2086" font-family="Courier New" font-weight="bold" font-size="10.00" fill="blue">SIGNALi(SIG_SET,S00_SQUARE00+4)</text>
</g>
<!-- 125 -->
<g id="node27" class="node">
<title>125</title>
<ellipse fill="none" stroke="black" cx="33" cy="-1950" rx="27" ry="18"/>
<text text-anchor="middle" x="33" y="-1945.8" font-family="Times,serif" font-size="14.00">125</text>
</g>
<!-- 124&#45;&gt;125 -->
<g id="edge25" class="edge">
<title>124&#45;&gt;125</title>
<path fill="none" stroke="black" d="M33,-2023.65C33,-2011.2 33,-1994.14 33,-1979.68"/>
<polygon fill="black" stroke="black" points="36.5,-1979.81 33,-1969.81 29.5,-1979.81 36.5,-1979.81"/>
<text text-anchor="start" x="37" y="-1994" font-family="Courier New" font-weight="bold" font-size="10.00" fill="blue">ASSIGN(WTEMP1,IDD_BPAWN)</text>
</g>
<!-- 126 -->
<g id="node28" class="node">
<title>126</title>
<ellipse fill="none" stroke="black" cx="33" cy="-1858" rx="27" ry="18"/>
<text text-anchor="middle" x="33" y="-1853.8" font-family="Times,serif" font-size="14.00">126</text>
</g>
<!-- 125&#45;&gt;126 -->
<g id="edge26" class="edge">
<title>125&#45;&gt;126</title>
<path fill="none" stroke="black" d="M33,-1931.65C33,-1919.2 33,-1902.14 33,-1887.68"/>
<polygon fill="black" stroke="black" points="36.5,-1887.81 33,-1877.81 29.5,-1887.81 36.5,-1887.81"/>
<text text-anchor="start" x="37" y="-1902" font-family="Courier New" font-weight="bold" font-size="10.00" fill="blue">SIGNALi(SIG_SET,S00_SQUARE48)</text>
</g>
<!-- 127 -->
<g id="node29" class="node">
<title>127</title>
<ellipse fill="none" stroke="black" cx="33" cy="-1766" rx="27" ry="18"/>
<text text-anchor="middle" x="33" y="-1761.8" font-family="Times,serif" font-size="14.00">127</text>
</g>
<!-- 126&#45;&gt;127 -->
<g id="edge27" class="edge">
<title>126&#45;&gt;127</title>
<path fill="none" stroke="black" d="M33,-1839.65C33,-1827.2 33,-1810.14 33,-1795.68"/>
<polygon fill="black" stroke="black" points="36.5,-1795.81 33,-1785.81 29.5,-1795.81 36.5,-1795.81"/>
<text text-anchor="start" x="37" y="-1810" font-family="Courier New" font-weight="bold" font-size="10.00" fill="blue">SIGNALi(SIG_SET,S00_SQUARE48+1)</text>
</g>
<!-- 128 -->
<g id="node30" class="node">
<title>128</title>
<ellipse fill="none" stroke="black" cx="33" cy="-1674" rx="27" ry="18"/>
<text text-anchor="middle" x="33" y="-1669.8" font-family="Times,serif" font-size="14.00">128</text>
</g>
<!-- 127&#45;&gt;128 -->
<g id="edge28" class="edge">
<title>127&#45;&gt;128</title>
<path fill="none" stroke="black" d="M33,-1747.65C33,-1735.2 33,-1718.14 33,-1703.68"/>
<polygon fill="black" stroke="black" points="36.5,-1703.81 33,-1693.81 29.5,-1703.81 36.5,-1703.81"/>
<text text-anchor="start" x="37" y="-1718" font-family="Courier New" font-weight="bold" font-size="10.00" fill="blue">SIGNALi(SIG_SET,S00_SQUARE48+2)</text>
</g>
<!-- 129 -->
<g id="node31" class="node">
<title>129</title>
<ellipse fill="none" stroke="black" cx="33" cy="-1582" rx="27" ry="18"/>
<text text-anchor="middle" x="33" y="-1577.8" font-family="Times,serif" font-size="14.00">129</text>
</g>
<!-- 128&#45;&gt;129 -->
<g id="edge29" class="edge">
<title>128&#45;&gt;129</title>
<path fill="none" stroke="black" d="M33,-1655.65C33,-1643.2 33,-1626.14 33,-1611.68"/>
<polygon fill="black" stroke="black" points="36.5,-1611.81 33,-1601.81 29.5,-1611.81 36.5,-1611.81"/>
<text text-anchor="start" x="37" y="-1626" font-family="Courier New" font-weight="bold" font-size="10.00" fill="blue">SIGNALi(SIG_SET,S00_SQUARE48+3)</text>
</g>
<!-- 130 -->
<g id="node32" class="node">
<title>130</title>
<ellipse fill="none" stroke="black" cx="33" cy="-1490" rx="27" ry="18"/>
<text text-anchor="middle" x="33" y="-1485.8" font-family="Times,serif" font-size="14.00">130</text>
</g>
<!-- 129&#45;&gt;130 -->
<g id="edge30" class="edge">
<title>129&#45;&gt;130</title>
<path fill="none" stroke="black" d="M33,-1563.65C33,-1551.2 33,-1534.14 33,-1519.68"/>
<polygon fill="black" stroke="black" points="36.5,-1519.81 33,-1509.81 29.5,-1519.81 36.5,-1519.81"/>
<text text-anchor="start" x="37" y="-1534" font-family="Courier New" font-weight="bold" font-size="10.00" fill="blue">SIGNALi(SIG_SET,S00_SQUARE48+4)</text>
</g>
<!-- 131 -->
<g id="node33" class="node">
<title>131</title>
<ellipse fill="none" stroke="black" cx="33" cy="-1398" rx="27" ry="18"/>
<text text-anchor="middle" x="33" y="-1393.8" font-family="Times,serif" font-size="14.00">131</text>
</g>
<!-- 130&#45;&gt;131 -->
<g id="edge31" class="edge">
<title>130&#45;&gt;131</title>
<path fill="none" stroke="black" d="M33,-1471.65C33,-1459.2 33,-1442.14 33,-1427.68"/>
<polygon fill="black" stroke="black" points="36.5,-1427.81 33,-1417.81 29.5,-1427.81 36.5,-1427.81"/>
<text text-anchor="start" x="37" y="-1442" font-family="Courier New" font-weight="bold" font-size="10.00" fill="blue">SIGNALi(SIG_SET,S00_SQUARE48+5)</text>
</g>
<!-- 132 -->
<g id="node34" class="node">
<title>132</title>
<ellipse fill="none" stroke="black" cx="33" cy="-1306" rx="27" ry="18"/>
<text text-anchor="middle" x="33" y="-1301.8" font-family="Times,serif" font-size="14.00">132</text>
</g>
<!-- 131&#45;&gt;132 -->
<g id="edge32" class="edge">
<title>131&#45;&gt;132</title>
<path fill="none" stroke="black" d="M33,-1379.65C33,-1367.2 33,-1350.14 33,-1335.68"/>
<polygon fill="black" stroke="black" points="36.5,-1335.81 33,-1325.81 29.5,-1335.81 36.5,-1335.81"/>
<text text-anchor="start" x="37" y="-1350" font-family="Courier New" font-weight="bold" font-size="10.00" fill="blue">SIGNALi(SIG_SET,S00_SQUARE48+6)</text>
</g>
<!-- 133 -->
<g id="node35" class="node">
<title>133</title>
<ellipse fill="none" stroke="black" cx="33" cy="-1214" rx="27" ry="18"/>
<text text-anchor="middle" x="33" y="-1209.8" font-family="Times,serif" font-size="14.00">133</text>
</g>
<!-- 132&#45;&gt;133 -->
<g id="edge33" class="edge">
<title>132&#45;&gt;133</title>
<path fill="none" stroke="black" d="M33,-1287.65C33,-1275.2 33,-1258.14 33,-1243.68"/>
<polygon fill="black" stroke="black" points="36.5,-1243.81 33,-1233.81 29.5,-1243.81 36.5,-1243.81"/>
<text text-anchor="start" x="37" y="-1258" font-family="Courier New" font-weight="bold" font-size="10.00" fill="blue">SIGNALi(SIG_SET,S00_SQUARE48+7)</text>
</g>
<!-- 134 -->
<g id="node36" class="node">
<title>134</title>
<ellipse fill="none" stroke="black" cx="33" cy="-1122" rx="27" ry="18"/>
<text text-anchor="middle" x="33" y="-1117.8" font-family="Times,serif" font-size="14.00">134</text>
</g>
<!-- 133&#45;&gt;134 -->
<g id="edge34" class="edge">
<title>133&#45;&gt;134</title>
<path fill="none" stroke="black" d="M33,-1195.65C33,-1183.2 33,-1166.14 33,-1151.68"/>
<polygon fill="black" stroke="black" points="36.5,-1151.81 33,-1141.81 29.5,-1151.81 36.5,-1151.81"/>
<text text-anchor="start" x="37" y="-1166" font-family="Courier New" font-weight="bold" font-size="10.00" fill="blue">ASSIGN(WTEMP1,IDD_BROOK)</text>
</g>
<!-- 135 -->
<g id="node37" class="node">
<title>135</title>
<ellipse fill="none" stroke="black" cx="33" cy="-1030" rx="27" ry="18"/>
<text text-anchor="middle" x="33" y="-1025.8" font-family="Times,serif" font-size="14.00">135</text>
</g>
<!-- 134&#45;&gt;135 -->
<g id="edge35" class="edge">
<title>134&#45;&gt;135</title>
<path fill="none" stroke="black" d="M33,-1103.65C33,-1091.2 33,-1074.14 33,-1059.68"/>
<polygon fill="black" stroke="black" points="36.5,-1059.81 33,-1049.81 29.5,-1059.81 36.5,-1059.81"/>
<text text-anchor="start" x="37" y="-1074" font-family="Courier New" font-weight="bold" font-size="10.00" fill="blue">SIGNALi(SIG_SET,S00_SQUARE56+0)</text>
</g>
<!-- 136 -->
<g id="node38" class="node">
<title>136</title>
<ellipse fill="none" stroke="black" cx="33" cy="-938" rx="27" ry="18"/>
<text text-anchor="middle" x="33" y="-933.8" font-family="Times,serif" font-size="14.00">136</text>
</g>
<!-- 135&#45;&gt;136 -->
<g id="edge36" class="edge">
<title>135&#45;&gt;136</title>
<path fill="none" stroke="black" d="M33,-1011.65C33,-999.2 33,-982.14 33,-967.68"/>
<polygon fill="black" stroke="black" points="36.5,-967.81 33,-957.81 29.5,-967.81 36.5,-967.81"/>
<text text-anchor="start" x="37" y="-982" font-family="Courier New" font-weight="bold" font-size="10.00" fill="blue">SIGNALi(SIG_SET,S00_SQUARE56+7)</text>
</g>
<!-- 137 -->
<g id="node39" class="node">
<title>137</title>
<ellipse fill="none" stroke="black" cx="33" cy="-846" rx="27" ry="18"/>
<text text-anchor="middle" x="33" y="-841.8" font-family="Times,serif" font-size="14.00">137</text>
</g>
<!-- 136&#45;&gt;137 -->
<g id="edge37" class="edge">
<title>136&#45;&gt;137</title>
<path fill="none" stroke="black" d="M33,-919.65C33,-907.2 33,-890.14 33,-875.68"/>
<polygon fill="black" stroke="black" points="36.5,-875.81 33,-865.81 29.5,-875.81 36.5,-875.81"/>
<text text-anchor="start" x="37" y="-890" font-family="Courier New" font-weight="bold" font-size="10.00" fill="blue">ASSIGN(WTEMP1,IDD_BKNIGHT)</text>
</g>
<!-- 138 -->
<g id="node40" class="node">
<title>138</title>
<ellipse fill="none" stroke="black" cx="33" cy="-754" rx="27" ry="18"/>
<text text-anchor="middle" x="33" y="-749.8" font-family="Times,serif" font-size="14.00">138</text>
</g>
<!-- 137&#45;&gt;138 -->
<g id="edge38" class="edge">
<title>137&#45;&gt;138</title>
<path fill="none" stroke="black" d="M33,-827.65C33,-815.2 33,-798.14 33,-783.68"/>
<polygon fill="black" stroke="black" points="36.5,-783.81 33,-773.81 29.5,-783.81 36.5,-783.81"/>
<text text-anchor="start" x="37" y="-798" font-family="Courier New" font-weight="bold" font-size="10.00" fill="blue">SIGNALi(SIG_SET,S00_SQUARE56+1)</text>
</g>
<!-- 139 -->
<g id="node41" class="node">
<title>139</title>
<ellipse fill="none" stroke="black" cx="33" cy="-662" rx="27" ry="18"/>
<text text-anchor="middle" x="33" y="-657.8" font-family="Times,serif" font-size="14.00">139</text>
</g>
<!-- 138&#45;&gt;139 -->
<g id="edge39" class="edge">
<title>138&#45;&gt;139</title>
<path fill="none" stroke="black" d="M33,-735.65C33,-723.2 33,-706.14 33,-691.68"/>
<polygon fill="black" stroke="black" points="36.5,-691.81 33,-681.81 29.5,-691.81 36.5,-691.81"/>
<text text-anchor="start" x="37" y="-706" font-family="Courier New" font-weight="bold" font-size="10.00" fill="blue">SIGNALi(SIG_SET,S00_SQUARE56+6)</text>
</g>
<!-- 140 -->
<g id="node42" class="node">
<title>140</title>
<ellipse fill="none" stroke="black" cx="33" cy="-570" rx="27" ry="18"/>
<text text-anchor="middle" x="33" y="-565.8" font-family="Times,serif" font-size="14.00">140</text>
</g>
<!-- 139&#45;&gt;140 -->
<g id="edge40" class="edge">
<title>139&#45;&gt;140</title>
<path fill="none" stroke="black" d="M33,-643.65C33,-631.2 33,-614.14 33,-599.68"/>
<polygon fill="black" stroke="black" points="36.5,-599.81 33,-589.81 29.5,-599.81 36.5,-599.81"/>
<text text-anchor="start" x="37" y="-614" font-family="Courier New" font-weight="bold" font-size="10.00" fill="blue">ASSIGN(WTEMP1,IDD_BBISHOP)</text>
</g>
<!-- 141 -->
<g id="node43" class="node">
<title>141</title>
<ellipse fill="none" stroke="black" cx="33" cy="-478" rx="27" ry="18"/>
<text text-anchor="middle" x="33" y="-473.8" font-family="Times,serif" font-size="14.00">141</text>
</g>
<!-- 140&#45;&gt;141 -->
<g id="edge41" class="edge">
<title>140&#45;&gt;141</title>
<path fill="none" stroke="black" d="M33,-551.65C33,-539.2 33,-522.14 33,-507.68"/>
<polygon fill="black" stroke="black" points="36.5,-507.81 33,-497.81 29.5,-507.81 36.5,-507.81"/>
<text text-anchor="start" x="37" y="-522" font-family="Courier New" font-weight="bold" font-size="10.00" fill="blue">SIGNALi(SIG_SET,S00_SQUARE56+2)</text>
</g>
<!-- 142 -->
<g id="node44" class="node">
<title>142</title>
<ellipse fill="none" stroke="black" cx="33" cy="-386" rx="27" ry="18"/>
<text text-anchor="middle" x="33" y="-381.8" font-family="Times,serif" font-size="14.00">142</text>
</g>
<!-- 141&#45;&gt;142 -->
<g id="edge42" class="edge">
<title>141&#45;&gt;142</title>
<path fill="none" stroke="black" d="M33,-459.65C33,-447.2 33,-430.14 33,-415.68"/>
<polygon fill="black" stroke="black" points="36.5,-415.81 33,-405.81 29.5,-415.81 36.5,-415.81"/>
<text text-anchor="start" x="37" y="-430" font-family="Courier New" font-weight="bold" font-size="10.00" fill="blue">SIGNALi(SIG_SET,S00_SQUARE56+5)</text>
</g>
<!-- 143 -->
<g id="node45" class="node">
<title>143</title>
<ellipse fill="none" stroke="black" cx="33" cy="-294" rx="27" ry="18"/>
<text text-anchor="middle" x="33" y="-289.8" font-family="Times,serif" font-size="14.00">143</text>
</g>
<!-- 142&#45;&gt;143 -->
<g id="edge43" class="edge">
<title>142&#45;&gt;143</title>
<path fill="none" stroke="black" d="M33,-367.65C33,-355.2 33,-338.14 33,-323.68"/>
<polygon fill="black" stroke="black" points="36.5,-323.81 33,-313.81 29.5,-323.81 36.5,-323.81"/>
<text text-anchor="start" x="37" y="-338" font-family="Courier New" font-weight="bold" font-size="10.00" fill="blue">ASSIGN(WTEMP1,IDD_BQUEEN)</text>
</g>
<!-- 144 -->
<g id="node46" class="node">
<title>144</title>
<ellipse fill="none" stroke="black" cx="33" cy="-202" rx="27" ry="18"/>
<text text-anchor="middle" x="33" y="-197.8" font-family="Times,serif" font-size="14.00">144</text>
</g>
<!-- 143&#45;&gt;144 -->
<g id="edge44" class="edge">
<title>143&#45;&gt;144</title>
<path fill="none" stroke="black" d="M33,-275.65C33,-263.2 33,-246.14 33,-231.68"/>
<polygon fill="black" stroke="black" points="36.5,-231.81 33,-221.81 29.5,-231.81 36.5,-231.81"/>
<text text-anchor="start" x="37" y="-246" font-family="Courier New" font-weight="bold" font-size="10.00" fill="blue">SIGNALi(SIG_SET,S00_SQUARE56+3)</text>
</g>
<!-- 145 -->
<g id="node47" class="node">
<title>145</title>
<ellipse fill="none" stroke="black" cx="33" cy="-110" rx="27" ry="18"/>
<text text-anchor="middle" x="33" y="-105.8" font-family="Times,serif" font-size="14.00">145</text>
</g>
<!-- 144&#45;&gt;145 -->
<g id="edge45" class="edge">
<title>144&#45;&gt;145</title>
<path fill="none" stroke="black" d="M33,-183.65C33,-171.2 33,-154.14 33,-139.68"/>
<polygon fill="black" stroke="black" points="36.5,-139.81 33,-129.81 29.5,-139.81 36.5,-139.81"/>
<text text-anchor="start" x="37" y="-154" font-family="Courier New" font-weight="bold" font-size="10.00" fill="blue">ASSIGN(WTEMP1,IDD_BKING)</text>
</g>
<!-- 146 -->
<g id="node48" class="node">
<title>146</title>
<ellipse fill="none" stroke="black" cx="137" cy="-18" rx="27" ry="18"/>
<text text-anchor="middle" x="137" y="-13.8" font-family="Times,serif" font-size="14.00">146</text>
</g>
<!-- 145&#45;&gt;146 -->
<g id="edge46" class="edge">
<title>145&#45;&gt;146</title>
<path fill="none" stroke="black" d="M28.53,-91.75C26.55,-80.01 26.17,-64.72 34,-54 48.8,-33.74 75.97,-25.08 98.69,-21.44"/>
<polygon fill="black" stroke="black" points="99.12,-24.91 108.58,-20.15 98.21,-17.97 99.12,-24.91"/>
<text text-anchor="start" x="38" y="-62" font-family="Courier New" font-weight="bold" font-size="10.00" fill="blue">SIGNALi(SIG_SET,S00_SQUARE56+4)</text>
</g>
<!-- 146&#45;&gt;1 -->
<g id="edge47" class="edge">
<title>146&#45;&gt;1</title>
<path fill="none" stroke="black" d="M163.45,-22.52C183.92,-26.62 211.47,-35.4 228,-54 244.75,-72.86 242,-83.78 242,-109 242,-4159 242,-4159 242,-4159 242,-4193.87 207.83,-4219.53 180.91,-4234.34"/>
<polygon fill="black" stroke="black" points="179.64,-4231.06 172.38,-4238.78 182.87,-4237.27 179.64,-4231.06"/>
<text text-anchor="start" x="246" y="-2132" font-family="Courier New" font-weight="bold" font-size="10.00" fill="blue">CLEAR(WTEMP1,)</text>
</g>
</g>
</svg>
