<?xml version="1.0" encoding="UTF-8" standalone="no"?>
<!DOCTYPE svg PUBLIC "-//W3C//DTD SVG 1.1//EN"
 "http://www.w3.org/Graphics/SVG/1.1/DTD/svg11.dtd">
<!-- Generated by graphviz version 7.1.0 (20230121.1956)
 -->
<!-- Pages: 1 -->
<svg width="396pt" height="4462pt"
 viewBox="0.00 0.00 396.00 4462.00" xmlns="http://www.w3.org/2000/svg" xmlns:xlink="http://www.w3.org/1999/xlink">
<g id="graph0" class="graph" transform="scale(1 1) rotate(0) translate(4 4458)">
<polygon fill="white" stroke="none" points="-4,4 -4,-4458 392,-4458 392,4 -4,4"/>
<!-- 0 -->
<g id="node1" class="node">
<title>0</title>
<ellipse fill="none" stroke="black" cx="171" cy="-4436" rx="27" ry="18"/>
<text text-anchor="middle" x="171" y="-4431.8" font-family="Times,serif" font-size="14.00">0</text>
</g>
<!-- 1 -->
<g id="node2" class="node">
<title>1</title>
<ellipse fill="none" stroke="black" cx="171" cy="-4342" rx="27" ry="18"/>
<text text-anchor="middle" x="171" y="-4337.8" font-family="Times,serif" font-size="14.00">1</text>
</g>
<!-- 0&#45;&gt;1 -->
<g id="edge1" class="edge">
<title>0&#45;&gt;1</title>
<path fill="none" stroke="black" d="M171,-4417.7C171,-4404.72 171,-4386.66 171,-4371.56"/>
<polygon fill="black" stroke="black" points="174.5,-4371.74 171,-4361.74 167.5,-4371.74 174.5,-4371.74"/>
<text text-anchor="start" x="175.5" y="-4386.2" font-family="Courier New" font-weight="bold" font-size="12.00" fill="blue">SHOW(WIP1,)</text>
</g>
<!-- 150 -->
<g id="node3" class="node">
<title>150</title>
<ellipse fill="none" stroke="black" cx="91" cy="-4248" rx="27" ry="18"/>
<text text-anchor="middle" x="91" y="-4243.8" font-family="Times,serif" font-size="14.00">150</text>
</g>
<!-- 1&#45;&gt;150 -->
<g id="edge2" class="edge">
<title>1&#45;&gt;150</title>
<path fill="none" stroke="black" d="M157.79,-4325.81C145.28,-4311.43 126.31,-4289.61 111.78,-4272.89"/>
<polygon fill="black" stroke="black" points="114.43,-4270.61 105.22,-4265.36 109.14,-4275.2 114.43,-4270.61"/>
<text text-anchor="start" x="145" y="-4292.2" font-family="Courier New" font-weight="bold" font-size="12.00" fill="orange">CLICK(0,0)</text>
</g>
<!-- 101 -->
<g id="node4" class="node">
<title>101</title>
<ellipse fill="none" stroke="black" cx="47" cy="-4154" rx="27" ry="18"/>
<text text-anchor="middle" x="47" y="-4149.8" font-family="Times,serif" font-size="14.00">101</text>
</g>
<!-- 150&#45;&gt;101 -->
<g id="edge48" class="edge">
<title>150&#45;&gt;101</title>
<path fill="none" stroke="black" d="M77.6,-4232.15C72.78,-4226.21 67.64,-4219.1 64,-4212 59.41,-4203.05 55.86,-4192.66 53.21,-4183.22"/>
<polygon fill="black" stroke="black" points="56.67,-4182.62 50.8,-4173.8 49.89,-4184.36 56.67,-4182.62"/>
<text text-anchor="start" x="68" y="-4198.2" font-family="Courier New" font-weight="bold" font-size="12.00" fill="blue">SIGNALi(SIG_NULL,S00_CLEAR)</text>
</g>
<!-- 102 -->
<g id="node5" class="node">
<title>102</title>
<ellipse fill="none" stroke="black" cx="39" cy="-4060" rx="27" ry="18"/>
<text text-anchor="middle" x="39" y="-4055.8" font-family="Times,serif" font-size="14.00">102</text>
</g>
<!-- 101&#45;&gt;102 -->
<g id="edge3" class="edge">
<title>101&#45;&gt;102</title>
<path fill="none" stroke="black" d="M45.5,-4135.7C44.37,-4122.72 42.8,-4104.66 41.48,-4089.56"/>
<polygon fill="black" stroke="black" points="44.98,-4089.39 40.63,-4079.73 38.01,-4090 44.98,-4089.39"/>
<text text-anchor="start" x="48" y="-4104.2" font-family="Courier New" font-weight="bold" font-size="12.00" fill="blue">ASSIGN(WTEMP1,IDD_WPAWN)</text>
</g>
<!-- 103 -->
<g id="node6" class="node">
<title>103</title>
<ellipse fill="none" stroke="black" cx="32" cy="-3966" rx="27" ry="18"/>
<text text-anchor="middle" x="32" y="-3961.8" font-family="Times,serif" font-size="14.00">103</text>
</g>
<!-- 102&#45;&gt;103 -->
<g id="edge4" class="edge">
<title>102&#45;&gt;103</title>
<path fill="none" stroke="black" d="M36.8,-4041.57C36.14,-4035.97 35.48,-4029.73 35,-4024 34.23,-4014.8 33.63,-4004.75 33.17,-3995.68"/>
<polygon fill="black" stroke="black" points="36.68,-3995.82 32.71,-3985.99 29.68,-3996.15 36.68,-3995.82"/>
<text text-anchor="start" x="39.5" y="-4010.2" font-family="Courier New" font-weight="bold" font-size="12.00" fill="blue">SIGNALi(SIG_SET,S00_SQUARE00+8)</text>
</g>
<!-- 104 -->
<g id="node7" class="node">
<title>104</title>
<ellipse fill="none" stroke="black" cx="29" cy="-3872" rx="27" ry="18"/>
<text text-anchor="middle" x="29" y="-3867.8" font-family="Times,serif" font-size="14.00">104</text>
</g>
<!-- 103&#45;&gt;104 -->
<g id="edge5" class="edge">
<title>103&#45;&gt;104</title>
<path fill="none" stroke="black" d="M31.44,-3947.7C31.01,-3934.72 30.42,-3916.66 29.93,-3901.56"/>
<polygon fill="black" stroke="black" points="33.44,-3901.62 29.61,-3891.74 26.44,-3901.85 33.44,-3901.62"/>
<text text-anchor="start" x="35.5" y="-3916.2" font-family="Courier New" font-weight="bold" font-size="12.00" fill="blue">SIGNALi(SIG_SET,S00_SQUARE00+9)</text>
</g>
<!-- 105 -->
<g id="node8" class="node">
<title>105</title>
<ellipse fill="none" stroke="black" cx="27" cy="-3778" rx="27" ry="18"/>
<text text-anchor="middle" x="27" y="-3773.8" font-family="Times,serif" font-size="14.00">105</text>
</g>
<!-- 104&#45;&gt;105 -->
<g id="edge6" class="edge">
<title>104&#45;&gt;105</title>
<path fill="none" stroke="black" d="M28.46,-3853.55C28.3,-3847.95 28.13,-3841.71 28,-3836 27.79,-3826.88 27.6,-3816.95 27.45,-3807.96"/>
<polygon fill="black" stroke="black" points="30.95,-3807.92 27.28,-3797.98 23.95,-3808.03 30.95,-3807.92"/>
<text text-anchor="start" x="32" y="-3822.2" font-family="Courier New" font-weight="bold" font-size="12.00" fill="blue">SIGNALi(SIG_SET,S00_SQUARE00+10)</text>
</g>
<!-- 106 -->
<g id="node9" class="node">
<title>106</title>
<ellipse fill="none" stroke="black" cx="27" cy="-3684" rx="27" ry="18"/>
<text text-anchor="middle" x="27" y="-3679.8" font-family="Times,serif" font-size="14.00">106</text>
</g>
<!-- 105&#45;&gt;106 -->
<g id="edge7" class="edge">
<title>105&#45;&gt;106</title>
<path fill="none" stroke="black" d="M27,-3759.7C27,-3746.72 27,-3728.66 27,-3713.56"/>
<polygon fill="black" stroke="black" points="30.5,-3713.74 27,-3703.74 23.5,-3713.74 30.5,-3713.74"/>
<text text-anchor="start" x="31" y="-3728.2" font-family="Courier New" font-weight="bold" font-size="12.00" fill="blue">SIGNALi(SIG_SET,S00_SQUARE00+11)</text>
</g>
<!-- 107 -->
<g id="node10" class="node">
<title>107</title>
<ellipse fill="none" stroke="black" cx="27" cy="-3590" rx="27" ry="18"/>
<text text-anchor="middle" x="27" y="-3585.8" font-family="Times,serif" font-size="14.00">107</text>
</g>
<!-- 106&#45;&gt;107 -->
<g id="edge8" class="edge">
<title>106&#45;&gt;107</title>
<path fill="none" stroke="black" d="M27,-3665.7C27,-3652.72 27,-3634.66 27,-3619.56"/>
<polygon fill="black" stroke="black" points="30.5,-3619.74 27,-3609.74 23.5,-3619.74 30.5,-3619.74"/>
<text text-anchor="start" x="31" y="-3634.2" font-family="Courier New" font-weight="bold" font-size="12.00" fill="blue">SIGNALi(SIG_SET,S00_SQUARE00+12)</text>
</g>
<!-- 108 -->
<g id="node11" class="node">
<title>108</title>
<ellipse fill="none" stroke="black" cx="27" cy="-3496" rx="27" ry="18"/>
<text text-anchor="middle" x="27" y="-3491.8" font-family="Times,serif" font-size="14.00">108</text>
</g>
<!-- 107&#45;&gt;108 -->
<g id="edge9" class="edge">
<title>107&#45;&gt;108</title>
<path fill="none" stroke="black" d="M27,-3571.7C27,-3558.72 27,-3540.66 27,-3525.56"/>
<polygon fill="black" stroke="black" points="30.5,-3525.74 27,-3515.74 23.5,-3525.74 30.5,-3525.74"/>
<text text-anchor="start" x="31" y="-3540.2" font-family="Courier New" font-weight="bold" font-size="12.00" fill="blue">SIGNALi(SIG_SET,S00_SQUARE00+13)</text>
</g>
<!-- 109 -->
<g id="node12" class="node">
<title>109</title>
<ellipse fill="none" stroke="black" cx="27" cy="-3402" rx="27" ry="18"/>
<text text-anchor="middle" x="27" y="-3397.8" font-family="Times,serif" font-size="14.00">109</text>
</g>
<!-- 108&#45;&gt;109 -->
<g id="edge10" class="edge">
<title>108&#45;&gt;109</title>
<path fill="none" stroke="black" d="M27,-3477.7C27,-3464.72 27,-3446.66 27,-3431.56"/>
<polygon fill="black" stroke="black" points="30.5,-3431.74 27,-3421.74 23.5,-3431.74 30.5,-3431.74"/>
<text text-anchor="start" x="31" y="-3446.2" font-family="Courier New" font-weight="bold" font-size="12.00" fill="blue">SIGNALi(SIG_SET,S00_SQUARE00+14)</text>
</g>
<!-- 110 -->
<g id="node13" class="node">
<title>110</title>
<ellipse fill="none" stroke="black" cx="30" cy="-3308" rx="27" ry="18"/>
<text text-anchor="middle" x="30" y="-3303.8" font-family="Times,serif" font-size="14.00">110</text>
</g>
<!-- 109&#45;&gt;110 -->
<g id="edge11" class="edge">
<title>109&#45;&gt;110</title>
<path fill="none" stroke="black" d="M27.13,-3383.53C27.25,-3372.25 27.51,-3357.25 28,-3344 28.08,-3341.95 28.17,-3339.82 28.27,-3337.69"/>
<polygon fill="black" stroke="black" points="31.75,-3338.12 28.79,-3327.95 24.76,-3337.75 31.75,-3338.12"/>
<text text-anchor="start" x="32" y="-3352.2" font-family="Courier New" font-weight="bold" font-size="12.00" fill="blue">SIGNALi(SIG_SET,S00_SQUARE00+15)</text>
</g>
<!-- 111 -->
<g id="node14" class="node">
<title>111</title>
<ellipse fill="none" stroke="black" cx="33" cy="-3214" rx="27" ry="18"/>
<text text-anchor="middle" x="33" y="-3209.8" font-family="Times,serif" font-size="14.00">111</text>
</g>
<!-- 110&#45;&gt;111 -->
<g id="edge12" class="edge">
<title>110&#45;&gt;111</title>
<path fill="none" stroke="black" d="M30.56,-3289.7C30.99,-3276.72 31.58,-3258.66 32.07,-3243.56"/>
<polygon fill="black" stroke="black" points="35.56,-3243.85 32.39,-3233.74 28.56,-3243.62 35.56,-3243.85"/>
<text text-anchor="start" x="36" y="-3258.2" font-family="Courier New" font-weight="bold" font-size="12.00" fill="blue">ASSIGN(WTEMP1,IDD_WROOK)</text>
</g>
<!-- 112 -->
<g id="node15" class="node">
<title>112</title>
<ellipse fill="none" stroke="black" cx="34" cy="-3120" rx="27" ry="18"/>
<text text-anchor="middle" x="34" y="-3115.8" font-family="Times,serif" font-size="14.00">112</text>
</g>
<!-- 111&#45;&gt;112 -->
<g id="edge13" class="edge">
<title>111&#45;&gt;112</title>
<path fill="none" stroke="black" d="M33.19,-3195.7C33.33,-3182.72 33.53,-3164.66 33.69,-3149.56"/>
<polygon fill="black" stroke="black" points="37.19,-3149.78 33.8,-3139.74 30.19,-3149.7 37.19,-3149.78"/>
<text text-anchor="start" x="38.5" y="-3164.2" font-family="Courier New" font-weight="bold" font-size="12.00" fill="blue">SIGNALi(SIG_SET,S00_SQUARE00+0)</text>
</g>
<!-- 113 -->
<g id="node16" class="node">
<title>113</title>
<ellipse fill="none" stroke="black" cx="34" cy="-3026" rx="27" ry="18"/>
<text text-anchor="middle" x="34" y="-3021.8" font-family="Times,serif" font-size="14.00">113</text>
</g>
<!-- 112&#45;&gt;113 -->
<g id="edge14" class="edge">
<title>112&#45;&gt;113</title>
<path fill="none" stroke="black" d="M34,-3101.7C34,-3088.72 34,-3070.66 34,-3055.56"/>
<polygon fill="black" stroke="black" points="37.5,-3055.74 34,-3045.74 30.5,-3055.74 37.5,-3055.74"/>
<text text-anchor="start" x="38.5" y="-3070.2" font-family="Courier New" font-weight="bold" font-size="12.00" fill="blue">SIGNALi(SIG_SET,S00_SQUARE00+7)</text>
</g>
<!-- 114 -->
<g id="node17" class="node">
<title>114</title>
<ellipse fill="none" stroke="black" cx="34" cy="-2932" rx="27" ry="18"/>
<text text-anchor="middle" x="34" y="-2927.8" font-family="Times,serif" font-size="14.00">114</text>
</g>
<!-- 113&#45;&gt;114 -->
<g id="edge15" class="edge">
<title>113&#45;&gt;114</title>
<path fill="none" stroke="black" d="M34,-3007.7C34,-2994.72 34,-2976.66 34,-2961.56"/>
<polygon fill="black" stroke="black" points="37.5,-2961.74 34,-2951.74 30.5,-2961.74 37.5,-2961.74"/>
<text text-anchor="start" x="38.5" y="-2976.2" font-family="Courier New" font-weight="bold" font-size="12.00" fill="blue">ASSIGN(WTEMP1,IDD_WKNIGHT)</text>
</g>
<!-- 115 -->
<g id="node18" class="node">
<title>115</title>
<ellipse fill="none" stroke="black" cx="34" cy="-2838" rx="27" ry="18"/>
<text text-anchor="middle" x="34" y="-2833.8" font-family="Times,serif" font-size="14.00">115</text>
</g>
<!-- 114&#45;&gt;115 -->
<g id="edge16" class="edge">
<title>114&#45;&gt;115</title>
<path fill="none" stroke="black" d="M34,-2913.7C34,-2900.72 34,-2882.66 34,-2867.56"/>
<polygon fill="black" stroke="black" points="37.5,-2867.74 34,-2857.74 30.5,-2867.74 37.5,-2867.74"/>
<text text-anchor="start" x="38.5" y="-2882.2" font-family="Courier New" font-weight="bold" font-size="12.00" fill="blue">SIGNALi(SIG_SET,S00_SQUARE00+1)</text>
</g>
<!-- 116 -->
<g id="node19" class="node">
<title>116</title>
<ellipse fill="none" stroke="black" cx="34" cy="-2744" rx="27" ry="18"/>
<text text-anchor="middle" x="34" y="-2739.8" font-family="Times,serif" font-size="14.00">116</text>
</g>
<!-- 115&#45;&gt;116 -->
<g id="edge17" class="edge">
<title>115&#45;&gt;116</title>
<path fill="none" stroke="black" d="M34,-2819.7C34,-2806.72 34,-2788.66 34,-2773.56"/>
<polygon fill="black" stroke="black" points="37.5,-2773.74 34,-2763.74 30.5,-2773.74 37.5,-2773.74"/>
<text text-anchor="start" x="38.5" y="-2788.2" font-family="Courier New" font-weight="bold" font-size="12.00" fill="blue">SIGNALi(SIG_SET,S00_SQUARE00+6)</text>
</g>
<!-- 117 -->
<g id="node20" class="node">
<title>117</title>
<ellipse fill="none" stroke="black" cx="34" cy="-2650" rx="27" ry="18"/>
<text text-anchor="middle" x="34" y="-2645.8" font-family="Times,serif" font-size="14.00">117</text>
</g>
<!-- 116&#45;&gt;117 -->
<g id="edge18" class="edge">
<title>116&#45;&gt;117</title>
<path fill="none" stroke="black" d="M34,-2725.7C34,-2712.72 34,-2694.66 34,-2679.56"/>
<polygon fill="black" stroke="black" points="37.5,-2679.74 34,-2669.74 30.5,-2679.74 37.5,-2679.74"/>
<text text-anchor="start" x="38.5" y="-2694.2" font-family="Courier New" font-weight="bold" font-size="12.00" fill="blue">ASSIGN(WTEMP1,IDD_WBISHOP)</text>
</g>
<!-- 118 -->
<g id="node21" class="node">
<title>118</title>
<ellipse fill="none" stroke="black" cx="34" cy="-2556" rx="27" ry="18"/>
<text text-anchor="middle" x="34" y="-2551.8" font-family="Times,serif" font-size="14.00">118</text>
</g>
<!-- 117&#45;&gt;118 -->
<g id="edge19" class="edge">
<title>117&#45;&gt;118</title>
<path fill="none" stroke="black" d="M34,-2631.7C34,-2618.72 34,-2600.66 34,-2585.56"/>
<polygon fill="black" stroke="black" points="37.5,-2585.74 34,-2575.74 30.5,-2585.74 37.5,-2585.74"/>
<text text-anchor="start" x="38.5" y="-2600.2" font-family="Courier New" font-weight="bold" font-size="12.00" fill="blue">SIGNALi(SIG_SET,S00_SQUARE00+2)</text>
</g>
<!-- 119 -->
<g id="node22" class="node">
<title>119</title>
<ellipse fill="none" stroke="black" cx="34" cy="-2462" rx="27" ry="18"/>
<text text-anchor="middle" x="34" y="-2457.8" font-family="Times,serif" font-size="14.00">119</text>
</g>
<!-- 118&#45;&gt;119 -->
<g id="edge20" class="edge">
<title>118&#45;&gt;119</title>
<path fill="none" stroke="black" d="M34,-2537.7C34,-2524.72 34,-2506.66 34,-2491.56"/>
<polygon fill="black" stroke="black" points="37.5,-2491.74 34,-2481.74 30.5,-2491.74 37.5,-2491.74"/>
<text text-anchor="start" x="38.5" y="-2506.2" font-family="Courier New" font-weight="bold" font-size="12.00" fill="blue">SIGNALi(SIG_SET,S00_SQUARE00+5)</text>
</g>
<!-- 120 -->
<g id="node23" class="node">
<title>120</title>
<ellipse fill="none" stroke="black" cx="34" cy="-2368" rx="27" ry="18"/>
<text text-anchor="middle" x="34" y="-2363.8" font-family="Times,serif" font-size="14.00">120</text>
</g>
<!-- 119&#45;&gt;120 -->
<g id="edge21" class="edge">
<title>119&#45;&gt;120</title>
<path fill="none" stroke="black" d="M34,-2443.7C34,-2430.72 34,-2412.66 34,-2397.56"/>
<polygon fill="black" stroke="black" points="37.5,-2397.74 34,-2387.74 30.5,-2397.74 37.5,-2397.74"/>
<text text-anchor="start" x="38" y="-2412.2" font-family="Courier New" font-weight="bold" font-size="12.00" fill="blue">ASSIGN(WTEMP1,IDD_WQUEEN)</text>
</g>
<!-- 121 -->
<g id="node24" class="node">
<title>121</title>
<ellipse fill="none" stroke="black" cx="34" cy="-2274" rx="27" ry="18"/>
<text text-anchor="middle" x="34" y="-2269.8" font-family="Times,serif" font-size="14.00">121</text>
</g>
<!-- 120&#45;&gt;121 -->
<g id="edge22" class="edge">
<title>120&#45;&gt;121</title>
<path fill="none" stroke="black" d="M34,-2349.7C34,-2336.72 34,-2318.66 34,-2303.56"/>
<polygon fill="black" stroke="black" points="37.5,-2303.74 34,-2293.74 30.5,-2303.74 37.5,-2303.74"/>
<text text-anchor="start" x="38.5" y="-2318.2" font-family="Courier New" font-weight="bold" font-size="12.00" fill="blue">SIGNALi(SIG_SET,S00_SQUARE00+3)</text>
</g>
<!-- 122 -->
<g id="node25" class="node">
<title>122</title>
<ellipse fill="none" stroke="black" cx="34" cy="-2180" rx="27" ry="18"/>
<text text-anchor="middle" x="34" y="-2175.8" font-family="Times,serif" font-size="14.00">122</text>
</g>
<!-- 121&#45;&gt;122 -->
<g id="edge23" class="edge">
<title>121&#45;&gt;122</title>
<path fill="none" stroke="black" d="M34,-2255.7C34,-2242.72 34,-2224.66 34,-2209.56"/>
<polygon fill="black" stroke="black" points="37.5,-2209.74 34,-2199.74 30.5,-2209.74 37.5,-2209.74"/>
<text text-anchor="start" x="38" y="-2224.2" font-family="Courier New" font-weight="bold" font-size="12.00" fill="blue">ASSIGN(WTEMP1,IDD_WKING)</text>
</g>
<!-- 124 -->
<g id="node26" class="node">
<title>124</title>
<ellipse fill="none" stroke="black" cx="34" cy="-2086" rx="27" ry="18"/>
<text text-anchor="middle" x="34" y="-2081.8" font-family="Times,serif" font-size="14.00">124</text>
</g>
<!-- 122&#45;&gt;124 -->
<g id="edge24" class="edge">
<title>122&#45;&gt;124</title>
<path fill="none" stroke="black" d="M34,-2161.7C34,-2148.72 34,-2130.66 34,-2115.56"/>
<polygon fill="black" stroke="black" points="37.5,-2115.74 34,-2105.74 30.5,-2115.74 37.5,-2115.74"/>
<text text-anchor="start" x="38.5" y="-2130.2" font-family="Courier New" font-weight="bold" font-size="12.00" fill="blue">SIGNALi(SIG_SET,S00_SQUARE00+4)</text>
</g>
<!-- 125 -->
<g id="node27" class="node">
<title>125</title>
<ellipse fill="none" stroke="black" cx="34" cy="-1992" rx="27" ry="18"/>
<text text-anchor="middle" x="34" y="-1987.8" font-family="Times,serif" font-size="14.00">125</text>
</g>
<!-- 124&#45;&gt;125 -->
<g id="edge25" class="edge">
<title>124&#45;&gt;125</title>
<path fill="none" stroke="black" d="M34,-2067.7C34,-2054.72 34,-2036.66 34,-2021.56"/>
<polygon fill="black" stroke="black" points="37.5,-2021.74 34,-2011.74 30.5,-2021.74 37.5,-2021.74"/>
<text text-anchor="start" x="38" y="-2036.2" font-family="Courier New" font-weight="bold" font-size="12.00" fill="blue">ASSIGN(WTEMP1,IDD_BPAWN)</text>
</g>
<!-- 126 -->
<g id="node28" class="node">
<title>126</title>
<ellipse fill="none" stroke="black" cx="34" cy="-1898" rx="27" ry="18"/>
<text text-anchor="middle" x="34" y="-1893.8" font-family="Times,serif" font-size="14.00">126</text>
</g>
<!-- 125&#45;&gt;126 -->
<g id="edge26" class="edge">
<title>125&#45;&gt;126</title>
<path fill="none" stroke="black" d="M34,-1973.7C34,-1960.72 34,-1942.66 34,-1927.56"/>
<polygon fill="black" stroke="black" points="37.5,-1927.74 34,-1917.74 30.5,-1927.74 37.5,-1927.74"/>
<text text-anchor="start" x="38" y="-1942.2" font-family="Courier New" font-weight="bold" font-size="12.00" fill="blue">SIGNALi(SIG_SET,S00_SQUARE48)</text>
</g>
<!-- 127 -->
<g id="node29" class="node">
<title>127</title>
<ellipse fill="none" stroke="black" cx="34" cy="-1804" rx="27" ry="18"/>
<text text-anchor="middle" x="34" y="-1799.8" font-family="Times,serif" font-size="14.00">127</text>
</g>
<!-- 126&#45;&gt;127 -->
<g id="edge27" class="edge">
<title>126&#45;&gt;127</title>
<path fill="none" stroke="black" d="M34,-1879.7C34,-1866.72 34,-1848.66 34,-1833.56"/>
<polygon fill="black" stroke="black" points="37.5,-1833.74 34,-1823.74 30.5,-1833.74 37.5,-1833.74"/>
<text text-anchor="start" x="38.5" y="-1848.2" font-family="Courier New" font-weight="bold" font-size="12.00" fill="blue">SIGNALi(SIG_SET,S00_SQUARE48+1)</text>
</g>
<!-- 128 -->
<g id="node30" class="node">
<title>128</title>
<ellipse fill="none" stroke="black" cx="34" cy="-1710" rx="27" ry="18"/>
<text text-anchor="middle" x="34" y="-1705.8" font-family="Times,serif" font-size="14.00">128</text>
</g>
<!-- 127&#45;&gt;128 -->
<g id="edge28" class="edge">
<title>127&#45;&gt;128</title>
<path fill="none" stroke="black" d="M34,-1785.7C34,-1772.72 34,-1754.66 34,-1739.56"/>
<polygon fill="black" stroke="black" points="37.5,-1739.74 34,-1729.74 30.5,-1739.74 37.5,-1739.74"/>
<text text-anchor="start" x="38.5" y="-1754.2" font-family="Courier New" font-weight="bold" font-size="12.00" fill="blue">SIGNALi(SIG_SET,S00_SQUARE48+2)</text>
</g>
<!-- 129 -->
<g id="node31" class="node">
<title>129</title>
<ellipse fill="none" stroke="black" cx="34" cy="-1616" rx="27" ry="18"/>
<text text-anchor="middle" x="34" y="-1611.8" font-family="Times,serif" font-size="14.00">129</text>
</g>
<!-- 128&#45;&gt;129 -->
<g id="edge29" class="edge">
<title>128&#45;&gt;129</title>
<path fill="none" stroke="black" d="M34,-1691.7C34,-1678.72 34,-1660.66 34,-1645.56"/>
<polygon fill="black" stroke="black" points="37.5,-1645.74 34,-1635.74 30.5,-1645.74 37.5,-1645.74"/>
<text text-anchor="start" x="38.5" y="-1660.2" font-family="Courier New" font-weight="bold" font-size="12.00" fill="blue">SIGNALi(SIG_SET,S00_SQUARE48+3)</text>
</g>
<!-- 130 -->
<g id="node32" class="node">
<title>130</title>
<ellipse fill="none" stroke="black" cx="34" cy="-1522" rx="27" ry="18"/>
<text text-anchor="middle" x="34" y="-1517.8" font-family="Times,serif" font-size="14.00">130</text>
</g>
<!-- 129&#45;&gt;130 -->
<g id="edge30" class="edge">
<title>129&#45;&gt;130</title>
<path fill="none" stroke="black" d="M34,-1597.7C34,-1584.72 34,-1566.66 34,-1551.56"/>
<polygon fill="black" stroke="black" points="37.5,-1551.74 34,-1541.74 30.5,-1551.74 37.5,-1551.74"/>
<text text-anchor="start" x="38.5" y="-1566.2" font-family="Courier New" font-weight="bold" font-size="12.00" fill="blue">SIGNALi(SIG_SET,S00_SQUARE48+4)</text>
</g>
<!-- 131 -->
<g id="node33" class="node">
<title>131</title>
<ellipse fill="none" stroke="black" cx="34" cy="-1428" rx="27" ry="18"/>
<text text-anchor="middle" x="34" y="-1423.8" font-family="Times,serif" font-size="14.00">131</text>
</g>
<!-- 130&#45;&gt;131 -->
<g id="edge31" class="edge">
<title>130&#45;&gt;131</title>
<path fill="none" stroke="black" d="M34,-1503.7C34,-1490.72 34,-1472.66 34,-1457.56"/>
<polygon fill="black" stroke="black" points="37.5,-1457.74 34,-1447.74 30.5,-1457.74 37.5,-1457.74"/>
<text text-anchor="start" x="38.5" y="-1472.2" font-family="Courier New" font-weight="bold" font-size="12.00" fill="blue">SIGNALi(SIG_SET,S00_SQUARE48+5)</text>
</g>
<!-- 132 -->
<g id="node34" class="node">
<title>132</title>
<ellipse fill="none" stroke="black" cx="34" cy="-1334" rx="27" ry="18"/>
<text text-anchor="middle" x="34" y="-1329.8" font-family="Times,serif" font-size="14.00">132</text>
</g>
<!-- 131&#45;&gt;132 -->
<g id="edge32" class="edge">
<title>131&#45;&gt;132</title>
<path fill="none" stroke="black" d="M34,-1409.7C34,-1396.72 34,-1378.66 34,-1363.56"/>
<polygon fill="black" stroke="black" points="37.5,-1363.74 34,-1353.74 30.5,-1363.74 37.5,-1363.74"/>
<text text-anchor="start" x="38.5" y="-1378.2" font-family="Courier New" font-weight="bold" font-size="12.00" fill="blue">SIGNALi(SIG_SET,S00_SQUARE48+6)</text>
</g>
<!-- 133 -->
<g id="node35" class="node">
<title>133</title>
<ellipse fill="none" stroke="black" cx="34" cy="-1240" rx="27" ry="18"/>
<text text-anchor="middle" x="34" y="-1235.8" font-family="Times,serif" font-size="14.00">133</text>
</g>
<!-- 132&#45;&gt;133 -->
<g id="edge33" class="edge">
<title>132&#45;&gt;133</title>
<path fill="none" stroke="black" d="M34,-1315.7C34,-1302.72 34,-1284.66 34,-1269.56"/>
<polygon fill="black" stroke="black" points="37.5,-1269.74 34,-1259.74 30.5,-1269.74 37.5,-1269.74"/>
<text text-anchor="start" x="38.5" y="-1284.2" font-family="Courier New" font-weight="bold" font-size="12.00" fill="blue">SIGNALi(SIG_SET,S00_SQUARE48+7)</text>
</g>
<!-- 134 -->
<g id="node36" class="node">
<title>134</title>
<ellipse fill="none" stroke="black" cx="34" cy="-1146" rx="27" ry="18"/>
<text text-anchor="middle" x="34" y="-1141.8" font-family="Times,serif" font-size="14.00">134</text>
</g>
<!-- 133&#45;&gt;134 -->
<g id="edge34" class="edge">
<title>133&#45;&gt;134</title>
<path fill="none" stroke="black" d="M34,-1221.7C34,-1208.72 34,-1190.66 34,-1175.56"/>
<polygon fill="black" stroke="black" points="37.5,-1175.74 34,-1165.74 30.5,-1175.74 37.5,-1175.74"/>
<text text-anchor="start" x="38" y="-1190.2" font-family="Courier New" font-weight="bold" font-size="12.00" fill="blue">ASSIGN(WTEMP1,IDD_BROOK)</text>
</g>
<!-- 135 -->
<g id="node37" class="node">
<title>135</title>
<ellipse fill="none" stroke="black" cx="34" cy="-1052" rx="27" ry="18"/>
<text text-anchor="middle" x="34" y="-1047.8" font-family="Times,serif" font-size="14.00">135</text>
</g>
<!-- 134&#45;&gt;135 -->
<g id="edge35" class="edge">
<title>134&#45;&gt;135</title>
<path fill="none" stroke="black" d="M34,-1127.7C34,-1114.72 34,-1096.66 34,-1081.56"/>
<polygon fill="black" stroke="black" points="37.5,-1081.74 34,-1071.74 30.5,-1081.74 37.5,-1081.74"/>
<text text-anchor="start" x="38.5" y="-1096.2" font-family="Courier New" font-weight="bold" font-size="12.00" fill="blue">SIGNALi(SIG_SET,S00_SQUARE56+0)</text>
</g>
<!-- 136 -->
<g id="node38" class="node">
<title>136</title>
<ellipse fill="none" stroke="black" cx="34" cy="-958" rx="27" ry="18"/>
<text text-anchor="middle" x="34" y="-953.8" font-family="Times,serif" font-size="14.00">136</text>
</g>
<!-- 135&#45;&gt;136 -->
<g id="edge36" class="edge">
<title>135&#45;&gt;136</title>
<path fill="none" stroke="black" d="M34,-1033.7C34,-1020.72 34,-1002.66 34,-987.56"/>
<polygon fill="black" stroke="black" points="37.5,-987.74 34,-977.74 30.5,-987.74 37.5,-987.74"/>
<text text-anchor="start" x="38.5" y="-1002.2" font-family="Courier New" font-weight="bold" font-size="12.00" fill="blue">SIGNALi(SIG_SET,S00_SQUARE56+7)</text>
</g>
<!-- 137 -->
<g id="node39" class="node">
<title>137</title>
<ellipse fill="none" stroke="black" cx="34" cy="-864" rx="27" ry="18"/>
<text text-anchor="middle" x="34" y="-859.8" font-family="Times,serif" font-size="14.00">137</text>
</g>
<!-- 136&#45;&gt;137 -->
<g id="edge37" class="edge">
<title>136&#45;&gt;137</title>
<path fill="none" stroke="black" d="M34,-939.7C34,-926.72 34,-908.66 34,-893.56"/>
<polygon fill="black" stroke="black" points="37.5,-893.74 34,-883.74 30.5,-893.74 37.5,-893.74"/>
<text text-anchor="start" x="38.5" y="-908.2" font-family="Courier New" font-weight="bold" font-size="12.00" fill="blue">ASSIGN(WTEMP1,IDD_BKNIGHT)</text>
</g>
<!-- 138 -->
<g id="node40" class="node">
<title>138</title>
<ellipse fill="none" stroke="black" cx="34" cy="-770" rx="27" ry="18"/>
<text text-anchor="middle" x="34" y="-765.8" font-family="Times,serif" font-size="14.00">138</text>
</g>
<!-- 137&#45;&gt;138 -->
<g id="edge38" class="edge">
<title>137&#45;&gt;138</title>
<path fill="none" stroke="black" d="M34,-845.7C34,-832.72 34,-814.66 34,-799.56"/>
<polygon fill="black" stroke="black" points="37.5,-799.74 34,-789.74 30.5,-799.74 37.5,-799.74"/>
<text text-anchor="start" x="38.5" y="-814.2" font-family="Courier New" font-weight="bold" font-size="12.00" fill="blue">SIGNALi(SIG_SET,S00_SQUARE56+1)</text>
</g>
<!-- 139 -->
<g id="node41" class="node">
<title>139</title>
<ellipse fill="none" stroke="black" cx="34" cy="-676" rx="27" ry="18"/>
<text text-anchor="middle" x="34" y="-671.8" font-family="Times,serif" font-size="14.00">139</text>
</g>
<!-- 138&#45;&gt;139 -->
<g id="edge39" class="edge">
<title>138&#45;&gt;139</title>
<path fill="none" stroke="black" d="M34,-751.7C34,-738.72 34,-720.66 34,-705.56"/>
<polygon fill="black" stroke="black" points="37.5,-705.74 34,-695.74 30.5,-705.74 37.5,-705.74"/>
<text text-anchor="start" x="38.5" y="-720.2" font-family="Courier New" font-weight="bold" font-size="12.00" fill="blue">SIGNALi(SIG_SET,S00_SQUARE56+6)</text>
</g>
<!-- 140 -->
<g id="node42" class="node">
<title>140</title>
<ellipse fill="none" stroke="black" cx="34" cy="-582" rx="27" ry="18"/>
<text text-anchor="middle" x="34" y="-577.8" font-family="Times,serif" font-size="14.00">140</text>
</g>
<!-- 139&#45;&gt;140 -->
<g id="edge40" class="edge">
<title>139&#45;&gt;140</title>
<path fill="none" stroke="black" d="M34,-657.7C34,-644.72 34,-626.66 34,-611.56"/>
<polygon fill="black" stroke="black" points="37.5,-611.74 34,-601.74 30.5,-611.74 37.5,-611.74"/>
<text text-anchor="start" x="38.5" y="-626.2" font-family="Courier New" font-weight="bold" font-size="12.00" fill="blue">ASSIGN(WTEMP1,IDD_BBISHOP)</text>
</g>
<!-- 141 -->
<g id="node43" class="node">
<title>141</title>
<ellipse fill="none" stroke="black" cx="34" cy="-488" rx="27" ry="18"/>
<text text-anchor="middle" x="34" y="-483.8" font-family="Times,serif" font-size="14.00">141</text>
</g>
<!-- 140&#45;&gt;141 -->
<g id="edge41" class="edge">
<title>140&#45;&gt;141</title>
<path fill="none" stroke="black" d="M34,-563.7C34,-550.72 34,-532.66 34,-517.56"/>
<polygon fill="black" stroke="black" points="37.5,-517.74 34,-507.74 30.5,-517.74 37.5,-517.74"/>
<text text-anchor="start" x="38.5" y="-532.2" font-family="Courier New" font-weight="bold" font-size="12.00" fill="blue">SIGNALi(SIG_SET,S00_SQUARE56+2)</text>
</g>
<!-- 142 -->
<g id="node44" class="node">
<title>142</title>
<ellipse fill="none" stroke="black" cx="34" cy="-394" rx="27" ry="18"/>
<text text-anchor="middle" x="34" y="-389.8" font-family="Times,serif" font-size="14.00">142</text>
</g>
<!-- 141&#45;&gt;142 -->
<g id="edge42" class="edge">
<title>141&#45;&gt;142</title>
<path fill="none" stroke="black" d="M34,-469.7C34,-456.72 34,-438.66 34,-423.56"/>
<polygon fill="black" stroke="black" points="37.5,-423.74 34,-413.74 30.5,-423.74 37.5,-423.74"/>
<text text-anchor="start" x="38.5" y="-438.2" font-family="Courier New" font-weight="bold" font-size="12.00" fill="blue">SIGNALi(SIG_SET,S00_SQUARE56+5)</text>
</g>
<!-- 143 -->
<g id="node45" class="node">
<title>143</title>
<ellipse fill="none" stroke="black" cx="34" cy="-300" rx="27" ry="18"/>
<text text-anchor="middle" x="34" y="-295.8" font-family="Times,serif" font-size="14.00">143</text>
</g>
<!-- 142&#45;&gt;143 -->
<g id="edge43" class="edge">
<title>142&#45;&gt;143</title>
<path fill="none" stroke="black" d="M34,-375.7C34,-362.72 34,-344.66 34,-329.56"/>
<polygon fill="black" stroke="black" points="37.5,-329.74 34,-319.74 30.5,-329.74 37.5,-329.74"/>
<text text-anchor="start" x="38" y="-344.2" font-family="Courier New" font-weight="bold" font-size="12.00" fill="blue">ASSIGN(WTEMP1,IDD_BQUEEN)</text>
</g>
<!-- 144 -->
<g id="node46" class="node">
<title>144</title>
<ellipse fill="none" stroke="black" cx="34" cy="-206" rx="27" ry="18"/>
<text text-anchor="middle" x="34" y="-201.8" font-family="Times,serif" font-size="14.00">144</text>
</g>
<!-- 143&#45;&gt;144 -->
<g id="edge44" class="edge">
<title>143&#45;&gt;144</title>
<path fill="none" stroke="black" d="M34,-281.7C34,-268.72 34,-250.66 34,-235.56"/>
<polygon fill="black" stroke="black" points="37.5,-235.74 34,-225.74 30.5,-235.74 37.5,-235.74"/>
<text text-anchor="start" x="38.5" y="-250.2" font-family="Courier New" font-weight="bold" font-size="12.00" fill="blue">SIGNALi(SIG_SET,S00_SQUARE56+3)</text>
</g>
<!-- 145 -->
<g id="node47" class="node">
<title>145</title>
<ellipse fill="none" stroke="black" cx="34" cy="-112" rx="27" ry="18"/>
<text text-anchor="middle" x="34" y="-107.8" font-family="Times,serif" font-size="14.00">145</text>
</g>
<!-- 144&#45;&gt;145 -->
<g id="edge45" class="edge">
<title>144&#45;&gt;145</title>
<path fill="none" stroke="black" d="M34,-187.7C34,-174.72 34,-156.66 34,-141.56"/>
<polygon fill="black" stroke="black" points="37.5,-141.74 34,-131.74 30.5,-141.74 37.5,-141.74"/>
<text text-anchor="start" x="38" y="-156.2" font-family="Courier New" font-weight="bold" font-size="12.00" fill="blue">ASSIGN(WTEMP1,IDD_BKING)</text>
</g>
<!-- 146 -->
<g id="node48" class="node">
<title>146</title>
<ellipse fill="none" stroke="black" cx="157" cy="-18" rx="27" ry="18"/>
<text text-anchor="middle" x="157" y="-13.8" font-family="Times,serif" font-size="14.00">146</text>
</g>
<!-- 145&#45;&gt;146 -->
<g id="edge46" class="edge">
<title>145&#45;&gt;146</title>
<path fill="none" stroke="black" d="M29.33,-93.79C27.07,-81.47 26.44,-65.15 35,-54 54.25,-28.91 90.25,-20.95 118.18,-18.8"/>
<polygon fill="black" stroke="black" points="118.27,-22.3 128.07,-18.28 117.9,-15.31 118.27,-22.3"/>
<text text-anchor="start" x="39.5" y="-62.2" font-family="Courier New" font-weight="bold" font-size="12.00" fill="blue">SIGNALi(SIG_SET,S00_SQUARE56+4)</text>
</g>
<!-- 146&#45;&gt;1 -->
<g id="edge47" class="edge">
<title>146&#45;&gt;1</title>
<path fill="none" stroke="black" d="M184.22,-20.47C209,-23.29 244.85,-31.32 266,-54 283.79,-73.08 280,-84.91 280,-111 280,-4249 280,-4249 280,-4249 280,-4288.71 237.22,-4314.77 205.27,-4328.7"/>
<polygon fill="black" stroke="black" points="204.23,-4325.34 196.32,-4332.39 206.9,-4331.82 204.23,-4325.34"/>
<text text-anchor="start" x="284" y="-2177.2" font-family="Courier New" font-weight="bold" font-size="12.00" fill="blue">CLEAR(WTEMP1,)</text>
</g>
</g>
</svg>
