<?xml version="1.0" encoding="UTF-8" standalone="no"?>
<!DOCTYPE svg PUBLIC "-//W3C//DTD SVG 1.1//EN"
 "http://www.w3.org/Graphics/SVG/1.1/DTD/svg11.dtd">
<!-- Generated by graphviz version 7.1.0 (20230121.1956)
 -->
<!-- Pages: 1 -->
<svg width="389pt" height="420pt"
 viewBox="0.00 0.00 389.00 420.00" xmlns="http://www.w3.org/2000/svg" xmlns:xlink="http://www.w3.org/1999/xlink">
<g id="graph0" class="graph" transform="scale(1 1) rotate(0) translate(4 416)">
<polygon fill="white" stroke="none" points="-4,4 -4,-416 385,-416 385,4 -4,4"/>
<!-- 0 -->
<g id="node1" class="node">
<title>0</title>
<ellipse fill="none" stroke="black" cx="200" cy="-394" rx="27" ry="18"/>
<text text-anchor="middle" x="200" y="-389.8" font-family="Times,serif" font-size="14.00">0</text>
</g>
<!-- 1 -->
<g id="node2" class="node">
<title>1</title>
<ellipse fill="none" stroke="black" cx="142" cy="-300" rx="27" ry="18"/>
<text text-anchor="middle" x="142" y="-295.8" font-family="Times,serif" font-size="14.00">1</text>
</g>
<!-- 0&#45;&gt;1 -->
<g id="edge1" class="edge">
<title>0&#45;&gt;1</title>
<path fill="none" stroke="black" d="M176.15,-384.79C163.96,-379.25 150.2,-370.61 143,-358 138.12,-349.45 136.88,-338.93 137.19,-329.26"/>
<polygon fill="black" stroke="black" points="140.65,-329.87 138.06,-319.6 133.68,-329.24 140.65,-329.87"/>
<text text-anchor="start" x="147.5" y="-344.2" font-family="Courier New" font-weight="bold" font-size="12.00" fill="blue">MOV(BFRAME,0)</text>
</g>
<!-- 2 -->
<g id="node3" class="node">
<title>2</title>
<ellipse fill="none" stroke="black" cx="35" cy="-206" rx="27" ry="18"/>
<text text-anchor="middle" x="35" y="-201.8" font-family="Times,serif" font-size="14.00">2</text>
</g>
<!-- 1&#45;&gt;2 -->
<g id="edge2" class="edge">
<title>1&#45;&gt;2</title>
<path fill="none" stroke="black" d="M115.42,-296C94.13,-292.17 65.1,-283.52 48,-264 41.17,-256.21 37.73,-245.57 36.04,-235.59"/>
<polygon fill="black" stroke="black" points="39.55,-235.44 34.96,-225.9 32.59,-236.22 39.55,-235.44"/>
<text text-anchor="start" x="52.5" y="-250.2" font-family="Courier New" font-weight="bold" font-size="12.00" fill="blue">SHOW(WIP1,)</text>
</g>
<!-- 3 -->
<g id="node4" class="node">
<title>3</title>
<ellipse fill="none" stroke="black" cx="27" cy="-112" rx="27" ry="18"/>
<text text-anchor="middle" x="27" y="-107.8" font-family="Times,serif" font-size="14.00">3</text>
</g>
<!-- 2&#45;&gt;3 -->
<g id="edge3" class="edge">
<title>2&#45;&gt;3</title>
<path fill="none" stroke="black" d="M33.5,-187.7C32.37,-174.72 30.8,-156.66 29.48,-141.56"/>
<polygon fill="black" stroke="black" points="32.98,-141.39 28.63,-131.73 26.01,-142 32.98,-141.39"/>
<text text-anchor="start" x="36.5" y="-156.2" font-family="Courier New" font-weight="bold" font-size="12.00" fill="orange">CLICK(,)</text>
</g>
<!-- 4 -->
<g id="node5" class="node">
<title>4</title>
<ellipse fill="none" stroke="black" cx="149" cy="-18" rx="27" ry="18"/>
<text text-anchor="middle" x="149" y="-13.8" font-family="Times,serif" font-size="14.00">4</text>
</g>
<!-- 3&#45;&gt;4 -->
<g id="edge4" class="edge">
<title>3&#45;&gt;4</title>
<path fill="none" stroke="black" d="M21.97,-93.83C19.47,-81.53 18.54,-65.22 27,-54 46.09,-28.67 82.28,-20.76 110.31,-18.69"/>
<polygon fill="black" stroke="black" points="110.42,-22.19 120.23,-18.2 110.07,-15.19 110.42,-22.19"/>
<text text-anchor="start" x="31" y="-62.2" font-family="Courier New" font-weight="bold" font-size="12.00" fill="blue">ADDI(BFRAME,1)</text>
</g>
<!-- 4&#45;&gt;0 -->
<g id="edge5" class="edge">
<title>4&#45;&gt;0</title>
<path fill="none" stroke="black" d="M172.92,-27.04C205.01,-39.51 258,-66.8 258,-111 258,-301 258,-301 258,-301 258,-327.09 258.07,-336.04 244,-358 239.99,-364.26 234.48,-369.89 228.7,-374.71"/>
<polygon fill="black" stroke="black" points="226.67,-371.86 220.81,-380.69 230.9,-377.44 226.67,-371.86"/>
<text text-anchor="start" x="262.5" y="-203.2" font-family="Courier New" font-weight="bold" font-size="12.00" fill="blue">GTE(BFRAME,WIP2)</text>
</g>
<!-- 4&#45;&gt;1 -->
<g id="edge6" class="edge">
<title>4&#45;&gt;1</title>
<path fill="none" stroke="black" d="M148.57,-36.23C147.4,-83.05 144.15,-213.01 142.71,-270.74"/>
<polygon fill="black" stroke="black" points="139.22,-270.31 142.47,-280.39 146.21,-270.48 139.22,-270.31"/>
<text text-anchor="start" x="149" y="-156.2" font-family="Courier New" font-weight="bold" font-size="12.00" fill="blue">Z_EPSILON(,)</text>
</g>
</g>
</svg>
