<?xml version="1.0" encoding="UTF-8" standalone="no"?>
<!DOCTYPE svg PUBLIC "-//W3C//DTD SVG 1.1//EN"
 "http://www.w3.org/Graphics/SVG/1.1/DTD/svg11.dtd">
<!-- Generated by graphviz version 7.1.0 (20230121.1956)
 -->
<!-- Pages: 1 -->
<svg width="529pt" height="608pt"
 viewBox="0.00 0.00 529.00 608.00" xmlns="http://www.w3.org/2000/svg" xmlns:xlink="http://www.w3.org/1999/xlink">
<g id="graph0" class="graph" transform="scale(1 1) rotate(0) translate(4 604)">
<polygon fill="white" stroke="none" points="-4,4 -4,-604 525,-604 525,4 -4,4"/>
<!-- 0 -->
<g id="node1" class="node">
<title>0</title>
<ellipse fill="none" stroke="black" cx="352" cy="-582" rx="27" ry="18"/>
<text text-anchor="middle" x="352" y="-577.8" font-family="Times,serif" font-size="14.00">0</text>
</g>
<!-- 5 -->
<g id="node2" class="node">
<title>5</title>
<ellipse fill="none" stroke="black" cx="300" cy="-488" rx="27" ry="18"/>
<text text-anchor="middle" x="300" y="-483.8" font-family="Times,serif" font-size="14.00">5</text>
</g>
<!-- 0&#45;&gt;5 -->
<g id="edge1" class="edge">
<title>0&#45;&gt;5</title>
<path fill="none" stroke="black" d="M330.33,-570.74C320.55,-564.92 309.89,-556.65 304,-546 299.31,-537.52 297.61,-527.2 297.31,-517.69"/>
<polygon fill="black" stroke="black" points="300.81,-517.86 297.53,-507.79 293.81,-517.71 300.81,-517.86"/>
<text text-anchor="start" x="308.5" y="-532.2" font-family="Courier New" font-weight="bold" font-size="12.00" fill="blue">SHOW(WIP1,)</text>
</g>
<!-- 9 -->
<g id="node7" class="node">
<title>9</title>
<ellipse fill="none" stroke="black" cx="197" cy="-394" rx="27" ry="18"/>
<text text-anchor="middle" x="197" y="-389.8" font-family="Times,serif" font-size="14.00">9</text>
</g>
<!-- 5&#45;&gt;9 -->
<g id="edge5" class="edge">
<title>5&#45;&gt;9</title>
<path fill="none" stroke="black" d="M272.87,-485.91C248.86,-483.35 215.07,-475.47 198,-452 192.12,-443.92 190.72,-433.35 191.19,-423.51"/>
<polygon fill="black" stroke="black" points="194.66,-423.92 192.33,-413.59 187.71,-423.12 194.66,-423.92"/>
<text text-anchor="start" x="202" y="-438.2" font-family="Courier New" font-weight="bold" font-size="12.00" fill="orange">CLICK(0,0)</text>
</g>
<!-- 5&#45;&gt;9 -->
<g id="edge6" class="edge">
<title>5&#45;&gt;9</title>
<path fill="none" stroke="black" d="M297.01,-469.62C294.07,-457.21 288.44,-440.86 278,-430 266.04,-417.56 248.92,-409.29 233.5,-403.93"/>
<polygon fill="black" stroke="black" points="234.7,-400.64 224.11,-400.98 232.6,-407.32 234.7,-400.64"/>
<text text-anchor="start" x="295" y="-438.2" font-family="Courier New" font-weight="bold" font-size="12.00" fill="orange">WAIT(0,0)</text>
</g>
<!-- 10 -->
<g id="node3" class="node">
<title>10</title>
<ellipse fill="none" stroke="black" cx="195" cy="-300" rx="27" ry="18"/>
<text text-anchor="middle" x="195" y="-295.8" font-family="Times,serif" font-size="14.00">10</text>
</g>
<!-- 20 -->
<g id="node4" class="node">
<title>20</title>
<ellipse fill="none" stroke="black" cx="195" cy="-206" rx="27" ry="18"/>
<text text-anchor="middle" x="195" y="-201.8" font-family="Times,serif" font-size="14.00">20</text>
</g>
<!-- 10&#45;&gt;20 -->
<g id="edge2" class="edge">
<title>10&#45;&gt;20</title>
<path fill="none" stroke="black" d="M195,-281.7C195,-268.72 195,-250.66 195,-235.56"/>
<polygon fill="black" stroke="black" points="198.5,-235.74 195,-225.74 191.5,-235.74 198.5,-235.74"/>
<text text-anchor="start" x="199.5" y="-250.2" font-family="Courier New" font-weight="bold" font-size="12.00" fill="blue">ASSIGN(WPARM,S00_SQUARE63)</text>
</g>
<!-- 30 -->
<g id="node5" class="node">
<title>30</title>
<ellipse fill="none" stroke="black" cx="27" cy="-112" rx="27" ry="18"/>
<text text-anchor="middle" x="27" y="-107.8" font-family="Times,serif" font-size="14.00">30</text>
</g>
<!-- 20&#45;&gt;30 -->
<g id="edge3" class="edge">
<title>20&#45;&gt;30</title>
<path fill="none" stroke="black" d="M168.04,-203.97C121.64,-201.57 29.76,-193.85 10,-170 2.69,-161.17 4.91,-149.29 9.78,-138.65"/>
<polygon fill="black" stroke="black" points="12.82,-140.37 14.54,-129.92 6.68,-137.02 12.82,-140.37"/>
<text text-anchor="start" x="14.5" y="-156.2" font-family="Courier New" font-weight="bold" font-size="12.00" fill="blue">SIGNAL(WPARM,SIG_CLEAR)</text>
</g>
<!-- 50 -->
<g id="node6" class="node">
<title>50</title>
<ellipse fill="none" stroke="black" cx="197" cy="-18" rx="27" ry="18"/>
<text text-anchor="middle" x="197" y="-13.8" font-family="Times,serif" font-size="14.00">50</text>
</g>
<!-- 30&#45;&gt;50 -->
<g id="edge4" class="edge">
<title>30&#45;&gt;50</title>
<path fill="none" stroke="black" d="M38.43,-95.31C48.55,-82.49 64.41,-64.77 82,-54 105.75,-39.46 135.99,-30.57 159.5,-25.39"/>
<polygon fill="black" stroke="black" points="160.2,-28.81 169.29,-23.37 158.79,-21.96 160.2,-28.81"/>
<text text-anchor="start" x="86.5" y="-62.2" font-family="Courier New" font-weight="bold" font-size="12.00" fill="blue">SUBI(WPARM,1)</text>
</g>
<!-- 50&#45;&gt;0 -->
<g id="edge7" class="edge">
<title>50&#45;&gt;0</title>
<path fill="none" stroke="black" d="M224.19,-18.99C280.57,-20.54 405,-32.82 405,-111 405,-489 405,-489 405,-489 405,-515.09 404.41,-523.63 391,-546 387.73,-551.46 383.33,-556.55 378.66,-561.07"/>
<polygon fill="black" stroke="black" points="376.51,-558.3 371.3,-567.53 381.12,-563.56 376.51,-558.3"/>
<text text-anchor="start" x="409" y="-297.2" font-family="Courier New" font-weight="bold" font-size="12.00" fill="blue">CLEAR(WOBJECT,)</text>
</g>
<!-- 50&#45;&gt;20 -->
<g id="edge8" class="edge">
<title>50&#45;&gt;20</title>
<path fill="none" stroke="black" d="M196.81,-36.32C196.47,-68.32 195.73,-137.01 195.31,-176.15"/>
<polygon fill="black" stroke="black" points="191.81,-175.95 195.2,-185.99 198.81,-176.03 191.81,-175.95"/>
<text text-anchor="start" x="201" y="-109.2" font-family="Courier New" font-weight="bold" font-size="12.00" fill="blue">GTEi(WPARM,S00_SQUARE00)</text>
</g>
<!-- 9&#45;&gt;10 -->
<g id="edge9" class="edge">
<title>9&#45;&gt;10</title>
<path fill="none" stroke="black" d="M196.62,-375.7C196.34,-362.72 195.95,-344.66 195.62,-329.56"/>
<polygon fill="black" stroke="black" points="199.12,-329.66 195.41,-319.74 192.13,-329.81 199.12,-329.66"/>
<text text-anchor="start" x="201.5" y="-344.2" font-family="Courier New" font-weight="bold" font-size="12.00" fill="blue">SHOW(WIP1,)</text>
</g>
</g>
</svg>
