<?xml version="1.0" encoding="UTF-8" standalone="no"?>
<!DOCTYPE svg PUBLIC "-//W3C//DTD SVG 1.1//EN"
 "http://www.w3.org/Graphics/SVG/1.1/DTD/svg11.dtd">
<!-- Generated by graphviz version 7.1.0 (20230121.1956)
 -->
<!-- Title: Automaton Pages: 1 -->
<svg width="341pt" height="153pt"
 viewBox="0.00 0.00 341.00 153.00" xmlns="http://www.w3.org/2000/svg" xmlns:xlink="http://www.w3.org/1999/xlink">
<g id="graph0" class="graph" transform="scale(1 1) rotate(0) translate(4 149)">
<title>Automaton</title>
<polygon fill="white" stroke="none" points="-4,4 -4,-149 337,-149 337,4 -4,4"/>
<!-- filename -->
<g id="node1" class="node">
<title>filename</title>
<polygon fill="none" stroke="black" points="0,-92.5 0,-144.5 118,-144.5 118,-92.5 0,-92.5"/>
<polygon fill="none" stroke="black" points="11,-119.5 11,-137.5 107,-137.5 107,-119.5 11,-119.5"/>
<text text-anchor="start" x="32" y="-126.5" font-family="Courier New" font-weight="bold" font-size="10.00">M_COMPASS</text>
<polygon fill="none" stroke="black" points="11,-99.5 11,-117.5 107,-117.5 107,-99.5 11,-99.5"/>
<text text-anchor="start" x="14" y="-105.5" font-family="Courier New" font-size="10.00" fill="brown">start state = 0</text>
<polygon fill="none" stroke="black" points="8,-96.5 8,-140.5 110,-140.5 110,-96.5 8,-96.5"/>
</g>
<!-- 0 -->
<g id="node2" class="node">
<title>0</title>
<polyline fill="none" stroke="darkred" points="156,-107.5 170,-107.5"/>
<text text-anchor="start" x="159" y="-114.9" font-family="Courier New" font-weight="bold" font-size="14.00">0</text>
<path fill="none" stroke="darkred" d="M159.67,-104.5C159.67,-104.5 166.33,-104.5 166.33,-104.5 169.67,-104.5 173,-107.83 173,-111.17 173,-111.17 173,-125.83 173,-125.83 173,-129.17 169.67,-132.5 166.33,-132.5 166.33,-132.5 159.67,-132.5 159.67,-132.5 156.33,-132.5 153,-129.17 153,-125.83 153,-125.83 153,-111.17 153,-111.17 153,-107.83 156.33,-104.5 159.67,-104.5"/>
</g>
<!-- 1 -->
<g id="node3" class="node">
<title>1</title>
<polyline fill="none" stroke="darkred" points="155,-7 169,-7"/>
<text text-anchor="start" x="158" y="-14.4" font-family="Courier New" font-weight="bold" font-size="14.00">1</text>
<path fill="none" stroke="darkred" d="M158.67,-4C158.67,-4 165.33,-4 165.33,-4 168.67,-4 172,-7.33 172,-10.67 172,-10.67 172,-25.33 172,-25.33 172,-28.67 168.67,-32 165.33,-32 165.33,-32 158.67,-32 158.67,-32 155.33,-32 152,-28.67 152,-25.33 152,-25.33 152,-10.67 152,-10.67 152,-7.33 155.33,-4 158.67,-4"/>
</g>
<!-- 0&#45;&gt;1 -->
<g id="edge1" class="edge">
<title>0&#45;&gt;1</title>
<path fill="none" stroke="black" d="M138.91,-100.71C130.67,-93.53 122.41,-84.4 118,-74 114.53,-65.82 114.14,-62.01 118,-54 120.21,-49.43 123.33,-45.26 126.92,-41.54"/>
<polygon fill="black" stroke="black" points="129.02,-44.35 134.17,-35.09 124.37,-39.12 129.02,-44.35"/>
<text text-anchor="start" x="122" y="-62" font-family="Courier New" font-weight="bold" font-size="10.00" fill="orange">CLICK(0,0)</text>
</g>
<!-- 1&#45;&gt;0 -->
<g id="edge2" class="edge">
<title>1&#45;&gt;0</title>
<path fill="none" stroke="black" d="M176.46,-35.72C180.33,-41.18 183.99,-47.53 186,-54 189.76,-66.14 186.22,-79.38 180.88,-90.61"/>
<polygon fill="black" stroke="black" points="177.83,-88.88 176.11,-99.34 183.98,-92.24 177.83,-88.88"/>
<text text-anchor="start" x="191" y="-62" font-family="Courier New" font-weight="bold" font-size="10.00" fill="blue">PLAYWAVE(0,SOUND_CLICK)</text>
</g>
</g>
</svg>
