<?xml version="1.0" encoding="UTF-8" standalone="no"?>
<!DOCTYPE svg PUBLIC "-//W3C//DTD SVG 1.1//EN"
 "http://www.w3.org/Graphics/SVG/1.1/DTD/svg11.dtd">
<!-- Generated by graphviz version 7.1.0 (20230121.1956)
 -->
<!-- Pages: 1 -->
<svg width="230pt" height="135pt"
 viewBox="0.00 0.00 229.93 134.80" xmlns="http://www.w3.org/2000/svg" xmlns:xlink="http://www.w3.org/1999/xlink">
<g id="graph0" class="graph" transform="scale(1 1) rotate(0) translate(4 130.8)">
<polygon fill="white" stroke="none" points="-4,4 -4,-130.8 225.93,-130.8 225.93,4 -4,4"/>
<!-- M_COMPASS_0 -->
<g id="node1" class="node">
<title>M_COMPASS_0</title>
<polygon fill="none" stroke="black" points="0,-90.3 0,-126.3 114.81,-126.3 114.81,-90.3 0,-90.3"/>
<text text-anchor="middle" x="57.41" y="-104.1" font-family="Times,serif" font-size="14.00">M_COMPASS_0</text>
</g>
<!-- M_COMPASS_1 -->
<g id="node2" class="node">
<title>M_COMPASS_1</title>
<polygon fill="none" stroke="black" points="0,-0.5 0,-36.5 114.81,-36.5 114.81,-0.5 0,-0.5"/>
<text text-anchor="middle" x="57.41" y="-14.3" font-family="Times,serif" font-size="14.00">M_COMPASS_1</text>
</g>
<!-- M_COMPASS_0&#45;&gt;M_COMPASS_1 -->
<g id="edge1" class="edge">
<title>M_COMPASS_0&#45;&gt;M_COMPASS_1</title>
<path fill="none" stroke="red" d="M30.88,-90.56C24.84,-85.34 19.23,-79.03 15.9,-71.8 11.43,-62.11 15.54,-52.63 22.64,-44.46"/>
<polygon fill="red" stroke="red" points="25.06,-46.99 29.8,-37.52 20.18,-41.97 25.06,-46.99"/>
<text text-anchor="start" x="16.41" y="-60.2" font-family="Times,serif" font-size="14.00" fill="red"> </text>
<text text-anchor="start" x="19.91" y="-60.2" font-family="Courier New" font-size="10.00" fill="red">CLICK(0,0)</text>
</g>
<!-- M_COMPASS_1&#45;&gt;M_COMPASS_0 -->
<g id="edge2" class="edge">
<title>M_COMPASS_1&#45;&gt;M_COMPASS_0</title>
<path fill="none" stroke="green" d="M70.44,-36.28C74.08,-41.92 77.54,-48.44 79.41,-55 81.45,-62.18 81.45,-64.62 79.41,-71.8 78.56,-74.77 77.39,-77.73 76.02,-80.61"/>
<polygon fill="green" stroke="green" points="73.04,-78.77 71.19,-89.2 79.14,-82.2 73.04,-78.77"/>
<text text-anchor="start" x="80.41" y="-60.2" font-family="Times,serif" font-size="14.00" fill="green"> </text>
<text text-anchor="start" x="83.91" y="-60.2" font-family="Courier New" font-size="10.00" fill="green">PLAYWAVE(0,SOUND_CLICK)</text>
</g>
</g>
</svg>
