<?xml version="1.0" encoding="UTF-8" standalone="no"?>
<!DOCTYPE svg PUBLIC "-//W3C//DTD SVG 1.1//EN"
 "http://www.w3.org/Graphics/SVG/1.1/DTD/svg11.dtd">
<!-- Generated by graphviz version 7.1.0 (20230121.1956)
 -->
<!-- Title: Automaton Pages: 1 -->
<svg width="447pt" height="1293pt"
 viewBox="0.00 0.00 447.00 1293.00" xmlns="http://www.w3.org/2000/svg" xmlns:xlink="http://www.w3.org/1999/xlink">
<g id="graph0" class="graph" transform="scale(1 1) rotate(0) translate(4 1289)">
<title>Automaton</title>
<polygon fill="white" stroke="none" points="-4,4 -4,-1289 443,-1289 443,4 -4,4"/>
<!-- filename -->
<g id="node1" class="node">
<title>filename</title>
<polygon fill="none" stroke="black" points="24,-1232.5 24,-1284.5 142,-1284.5 142,-1232.5 24,-1232.5"/>
<polygon fill="none" stroke="black" points="35,-1259.5 35,-1277.5 131,-1277.5 131,-1259.5 35,-1259.5"/>
<text text-anchor="start" x="53" y="-1266.5" font-family="Courier New" font-weight="bold" font-size="10.00">M_DIGGABLE</text>
<polygon fill="none" stroke="black" points="35,-1239.5 35,-1257.5 131,-1257.5 131,-1239.5 35,-1239.5"/>
<text text-anchor="start" x="38" y="-1245.5" font-family="Courier New" font-size="10.00" fill="brown">start state = 0</text>
<polygon fill="none" stroke="black" points="32,-1236.5 32,-1280.5 134,-1280.5 134,-1236.5 32,-1236.5"/>
</g>
<!-- 0 -->
<g id="node2" class="node">
<title>0</title>
<polyline fill="none" stroke="darkred" points="180,-1247.5 194,-1247.5"/>
<text text-anchor="start" x="183" y="-1254.9" font-family="Courier New" font-weight="bold" font-size="14.00">0</text>
<path fill="none" stroke="darkred" d="M183.67,-1244.5C183.67,-1244.5 190.33,-1244.5 190.33,-1244.5 193.67,-1244.5 197,-1247.83 197,-1251.17 197,-1251.17 197,-1265.83 197,-1265.83 197,-1269.17 193.67,-1272.5 190.33,-1272.5 190.33,-1272.5 183.67,-1272.5 183.67,-1272.5 180.33,-1272.5 177,-1269.17 177,-1265.83 177,-1265.83 177,-1251.17 177,-1251.17 177,-1247.83 180.33,-1244.5 183.67,-1244.5"/>
</g>
<!-- fixinToHideItem -->
<g id="node3" class="node">
<title>fixinToHideItem</title>
<polyline fill="none" stroke="darkred" points="121,-1111 253,-1111"/>
<text text-anchor="start" x="124" y="-1118.4" font-family="Courier New" font-weight="bold" font-size="14.00">fixinToHideItem</text>
<path fill="none" stroke="darkred" d="M127.33,-1108C127.33,-1108 246.67,-1108 246.67,-1108 251.33,-1108 256,-1112.67 256,-1117.33 256,-1117.33 256,-1126.67 256,-1126.67 256,-1131.33 251.33,-1136 246.67,-1136 246.67,-1136 127.33,-1136 127.33,-1136 122.67,-1136 118,-1131.33 118,-1126.67 118,-1126.67 118,-1117.33 118,-1117.33 118,-1112.67 122.67,-1108 127.33,-1108"/>
</g>
<!-- 0&#45;&gt;fixinToHideItem -->
<g id="edge1" class="edge">
<title>0&#45;&gt;fixinToHideItem</title>
<path fill="none" stroke="black" d="M187,-1240.74C187,-1218.39 187,-1178.5 187,-1151.41"/>
<polygon fill="black" stroke="black" points="190.5,-1151.49 187,-1141.49 183.5,-1151.49 190.5,-1151.49"/>
<polygon fill="none" stroke="black" points="190,-1193 190,-1211 358,-1211 358,-1193 190,-1193"/>
<text text-anchor="start" x="228.99" y="-1200" font-family="Courier New" font-weight="bold" font-size="10.00" fill="orange">WAIT(,SIG_OPEN)</text>
<polygon fill="none" stroke="black" points="190,-1161 190,-1191 358,-1191 358,-1161 190,-1161"/>
<text text-anchor="start" x="193" y="-1179" font-family="Courier New" font-size="10.00" fill="blue"> &#160;&#160;&#160;REF_MACHINE(S00_HIDER);</text>
<text text-anchor="start" x="193" y="-1167" font-family="Courier New" font-size="10.00" fill="blue"> &#160;&#160;&#160;MOV(WOBJECT,R_WPARM);</text>
<polygon fill="none" stroke="black" points="187,-1158 187,-1214 361,-1214 361,-1158 187,-1158"/>
</g>
<!-- determinedItem -->
<g id="node6" class="node">
<title>determinedItem</title>
<polyline fill="none" stroke="darkred" points="126,-995 249,-995"/>
<text text-anchor="start" x="129" y="-1002.4" font-family="Courier New" font-weight="bold" font-size="14.00">determinedItem</text>
<path fill="none" stroke="darkred" d="M131.83,-992C131.83,-992 242.17,-992 242.17,-992 246.83,-992 251.5,-996.67 251.5,-1001.33 251.5,-1001.33 251.5,-1010.67 251.5,-1010.67 251.5,-1015.33 246.83,-1020 242.17,-1020 242.17,-1020 131.83,-1020 131.83,-1020 127.17,-1020 122.5,-1015.33 122.5,-1010.67 122.5,-1010.67 122.5,-1001.33 122.5,-1001.33 122.5,-996.67 127.17,-992 131.83,-992"/>
</g>
<!-- fixinToHideItem&#45;&gt;determinedItem -->
<g id="edge6" class="edge">
<title>fixinToHideItem&#45;&gt;determinedItem</title>
<path fill="none" stroke="black" d="M187,-1104.18C187,-1086.08 187,-1056.98 187,-1035.33"/>
<polygon fill="black" stroke="black" points="190.5,-1035.4 187,-1025.4 183.5,-1035.4 190.5,-1035.4"/>
<polygon fill="none" stroke="black" points="190,-1065 190,-1083 436,-1083 436,-1065 190,-1065"/>
<text text-anchor="start" x="228.99" y="-1072" font-family="Courier New" font-weight="bold" font-size="10.00" fill="blue">MAPi(WOBJECT,S00_HIDDENITEM)</text>
<polygon fill="none" stroke="black" points="190,-1045 190,-1063 436,-1063 436,-1045 190,-1045"/>
<text text-anchor="start" x="193" y="-1051" font-family="Courier New" font-size="10.00" fill="blue"> &#160;&#160;&#160;// WOBJECT is now the object to hide</text>
<polygon fill="none" stroke="black" points="187,-1042 187,-1086 439,-1086 439,-1042 187,-1042"/>
</g>
<!-- coverActive -->
<g id="node4" class="node">
<title>coverActive</title>
<polyline fill="none" stroke="darkred" points="53,-879 151,-879"/>
<text text-anchor="start" x="56" y="-886.4" font-family="Courier New" font-weight="bold" font-size="14.00">coverActive</text>
<path fill="none" stroke="darkred" d="M59.33,-876C59.33,-876 144.67,-876 144.67,-876 149.33,-876 154,-880.67 154,-885.33 154,-885.33 154,-894.67 154,-894.67 154,-899.33 149.33,-904 144.67,-904 144.67,-904 59.33,-904 59.33,-904 54.67,-904 50,-899.33 50,-894.67 50,-894.67 50,-885.33 50,-885.33 50,-880.67 54.67,-876 59.33,-876"/>
</g>
<!-- firstWhack -->
<g id="node5" class="node">
<title>firstWhack</title>
<polyline fill="none" stroke="darkred" points="21,-787 111,-787"/>
<text text-anchor="start" x="24" y="-794.4" font-family="Courier New" font-weight="bold" font-size="14.00">firstWhack</text>
<path fill="none" stroke="darkred" d="M27.33,-784C27.33,-784 104.67,-784 104.67,-784 109.33,-784 114,-788.67 114,-793.33 114,-793.33 114,-802.67 114,-802.67 114,-807.33 109.33,-812 104.67,-812 104.67,-812 27.33,-812 27.33,-812 22.67,-812 18,-807.33 18,-802.67 18,-802.67 18,-793.33 18,-793.33 18,-788.67 22.67,-784 27.33,-784"/>
</g>
<!-- coverActive&#45;&gt;firstWhack -->
<g id="edge2" class="edge">
<title>coverActive&#45;&gt;firstWhack</title>
<path fill="none" stroke="black" d="M95.23,-872.07C90.1,-859.25 82.95,-841.36 77,-826.5"/>
<polygon fill="black" stroke="black" points="80.27,-825.24 73.3,-817.26 73.77,-827.84 80.27,-825.24"/>
<text text-anchor="start" x="92" y="-842" font-family="Courier New" font-weight="bold" font-size="10.00" fill="blue">C_ACCEPT(WIP3,)</text>
</g>
<!-- secondWhack -->
<g id="node8" class="node">
<title>secondWhack</title>
<polyline fill="none" stroke="darkred" points="11,-503 109,-503"/>
<text text-anchor="start" x="14" y="-510.4" font-family="Courier New" font-weight="bold" font-size="14.00">secondWhack</text>
<path fill="none" stroke="darkred" d="M17.33,-500C17.33,-500 102.67,-500 102.67,-500 107.33,-500 112,-504.67 112,-509.33 112,-509.33 112,-518.67 112,-518.67 112,-523.33 107.33,-528 102.67,-528 102.67,-528 17.33,-528 17.33,-528 12.67,-528 8,-523.33 8,-518.67 8,-518.67 8,-509.33 8,-509.33 8,-504.67 12.67,-500 17.33,-500"/>
</g>
<!-- firstWhack&#45;&gt;secondWhack -->
<g id="edge5" class="edge">
<title>firstWhack&#45;&gt;secondWhack</title>
<path fill="none" stroke="black" d="M63.14,-780.32C62.27,-774.53 61.44,-768 61,-762 55.21,-682.86 57.27,-589.09 58.85,-543.17"/>
<polygon fill="black" stroke="black" points="62.35,-543.44 59.22,-533.31 55.35,-543.18 62.35,-543.44"/>
<polygon fill="none" stroke="black" points="64,-741 64,-759 298,-759 298,-741 64,-741"/>
<text text-anchor="start" x="160" y="-748" font-family="Courier New" font-weight="bold" font-size="10.00" fill="orange">DRAG(,)</text>
<polygon fill="none" stroke="black" points="64,-553 64,-739 298,-739 298,-553 64,-553"/>
<text text-anchor="start" x="67" y="-727" font-family="Courier New" font-size="10.00" fill="blue"> &#160;&#160;&#160;&#160;&#160;&#160;&#160;if(WIP3 == ISA_TOOL_DIGGER){</text>
<text text-anchor="start" x="67" y="-715" font-family="Courier New" font-size="10.00" fill="blue"> &#160;&#160;&#160;&#160;&#160;&#160;&#160;&#160;&#160;&#160;&#160;SHOW(0,IDS_SANDPILE2);</text>
<text text-anchor="start" x="67" y="-703" font-family="Courier New" font-size="10.00" fill="blue"> &#160;&#160;&#160;&#160;&#160;&#160;&#160;&#160;&#160;&#160;&#160;ANIMATE();</text>
<text text-anchor="start" x="67" y="-691" font-family="Courier New" font-size="10.00" fill="blue"> &#160;&#160;&#160;&#160;&#160;&#160;&#160;&#160;&#160;&#160;&#160;PLAYWAVE(SOUND_DIG);</text>
<text text-anchor="start" x="67" y="-679" font-family="Courier New" font-size="10.00" fill="blue"> &#160;&#160;&#160;&#160;&#160;&#160;&#160;&#160;} &#160;&#160;</text>
<text text-anchor="start" x="67" y="-667" font-family="Courier New" font-size="10.00" fill="blue"> &#160;&#160;&#160;&#160;&#160;&#160;&#160;&#160;if(WIP3 == ISA_TOOL_STRIKER){</text>
<text text-anchor="start" x="67" y="-655" font-family="Courier New" font-size="10.00" fill="blue"> &#160;&#160;&#160;&#160;&#160;&#160;&#160;&#160;&#160;&#160;&#160;SHOW(0,IDS_SANDSTRIKE);</text>
<text text-anchor="start" x="67" y="-643" font-family="Courier New" font-size="10.00" fill="blue"> &#160;&#160;&#160;&#160;&#160;&#160;&#160;&#160;&#160;&#160;&#160;ANIMATE();</text>
<text text-anchor="start" x="67" y="-631" font-family="Courier New" font-size="10.00" fill="blue"> &#160;&#160;&#160;&#160;&#160;&#160;&#160;&#160;&#160;&#160;&#160;PLAYWAVE(SOUND_DIG);</text>
<text text-anchor="start" x="67" y="-619" font-family="Courier New" font-size="10.00" fill="blue"> &#160;&#160;&#160;&#160;&#160;&#160;&#160;&#160;} &#160;&#160;</text>
<text text-anchor="start" x="67" y="-607" font-family="Courier New" font-size="10.00" fill="blue"> &#160;&#160;&#160;&#160;&#160;&#160;&#160;&#160;&#160;if(WIP3 == ISA_TOOL_PRYER){</text>
<text text-anchor="start" x="67" y="-595" font-family="Courier New" font-size="10.00" fill="blue"> &#160;&#160;&#160;&#160;&#160;&#160;&#160;&#160;&#160;&#160;&#160;SHOW(0,IDS_SANDWOBBLE);</text>
<text text-anchor="start" x="67" y="-583" font-family="Courier New" font-size="10.00" fill="blue"> &#160;&#160;&#160;&#160;&#160;&#160;&#160;&#160;&#160;&#160;&#160;ANIMATE();</text>
<text text-anchor="start" x="67" y="-571" font-family="Courier New" font-size="10.00" fill="blue"> &#160;&#160;&#160;&#160;&#160;&#160;&#160;&#160;&#160;&#160;&#160;PLAYWAVE(SOUND_THUMP);</text>
<text text-anchor="start" x="67" y="-559" font-family="Courier New" font-size="10.00" fill="blue"> &#160;&#160;&#160;&#160;&#160;&#160;&#160;&#160;} &#160;&#160;</text>
<polygon fill="none" stroke="black" points="61,-550 61,-762 301,-762 301,-550 61,-550"/>
</g>
<!-- determinedItem&#45;&gt;coverActive -->
<g id="edge3" class="edge">
<title>determinedItem&#45;&gt;coverActive</title>
<path fill="none" stroke="black" d="M172,-988.2C167.09,-982.52 161.7,-976.08 157,-970 143.83,-952.98 129.99,-933.09 119.49,-917.52"/>
<polygon fill="black" stroke="black" points="122.43,-915.62 113.95,-909.25 116.61,-919.51 122.43,-915.62"/>
<polygon fill="none" stroke="black" points="160,-949 160,-967 298,-967 298,-949 160,-949"/>
<text text-anchor="start" x="177.99" y="-956" font-family="Courier New" font-weight="bold" font-size="10.00" fill="blue">MOV(WSPRITE,WIP2)</text>
<polygon fill="none" stroke="black" points="160,-929 160,-947 298,-947 298,-929 160,-929"/>
<text text-anchor="start" x="163" y="-935" font-family="Courier New" font-size="10.00" fill="blue"> &#160;&#160;&#160;&#160;&#160;&#160;&#160;SHOW(WSPRITE);</text>
<polygon fill="none" stroke="black" points="157,-926 157,-970 301,-970 301,-926 157,-926"/>
</g>
<!-- displayItem -->
<g id="node7" class="node">
<title>displayItem</title>
<polyline fill="none" stroke="darkred" points="156,-7 254,-7"/>
<text text-anchor="start" x="159" y="-14.4" font-family="Courier New" font-weight="bold" font-size="14.00">displayItem</text>
<path fill="none" stroke="darkred" d="M162.33,-4C162.33,-4 247.67,-4 247.67,-4 252.33,-4 257,-8.67 257,-13.33 257,-13.33 257,-22.67 257,-22.67 257,-27.33 252.33,-32 247.67,-32 247.67,-32 162.33,-32 162.33,-32 157.67,-32 153,-27.33 153,-22.67 153,-22.67 153,-13.33 153,-13.33 153,-8.67 157.67,-4 162.33,-4"/>
</g>
<!-- displayItem&#45;&gt;determinedItem -->
<g id="edge4" class="edge">
<title>displayItem&#45;&gt;determinedItem</title>
<path fill="none" stroke="black" d="M264.98,-29.94C278.61,-35.12 291.78,-42.75 301,-54 326.95,-85.64 315,-104.08 315,-145 315,-891 315,-891 315,-891 315,-926.66 324.62,-943.29 301,-970 292.57,-979.54 281.61,-986.51 269.82,-991.6"/>
<polygon fill="black" stroke="black" points="268.81,-988.24 260.71,-995.07 271.3,-994.78 268.81,-988.24"/>
<text text-anchor="start" x="319" y="-512" font-family="Courier New" font-weight="bold" font-size="10.00" fill="orange">GRAB(,)</text>
</g>
<!-- thirdWhack -->
<g id="node10" class="node">
<title>thirdWhack</title>
<polyline fill="none" stroke="darkred" points="18,-219 108,-219"/>
<text text-anchor="start" x="21" y="-226.4" font-family="Courier New" font-weight="bold" font-size="14.00">thirdWhack</text>
<path fill="none" stroke="darkred" d="M24.33,-216C24.33,-216 101.67,-216 101.67,-216 106.33,-216 111,-220.67 111,-225.33 111,-225.33 111,-234.67 111,-234.67 111,-239.33 106.33,-244 101.67,-244 101.67,-244 24.33,-244 24.33,-244 19.67,-244 15,-239.33 15,-234.67 15,-234.67 15,-225.33 15,-225.33 15,-220.67 19.67,-216 24.33,-216"/>
</g>
<!-- secondWhack&#45;&gt;thirdWhack -->
<g id="edge8" class="edge">
<title>secondWhack&#45;&gt;thirdWhack</title>
<path fill="none" stroke="black" d="M59.76,-496.22C59.26,-456.31 58.35,-352.58 61,-266 61.07,-263.76 61.16,-261.45 61.26,-259.12"/>
<polygon fill="black" stroke="black" points="64.75,-259.41 61.78,-249.24 57.76,-259.04 64.75,-259.41"/>
<polygon fill="none" stroke="black" points="64,-457 64,-475 298,-475 298,-457 64,-457"/>
<text text-anchor="start" x="160" y="-464" font-family="Courier New" font-weight="bold" font-size="10.00" fill="orange">DRAG(,)</text>
<polygon fill="none" stroke="black" points="64,-269 64,-455 298,-455 298,-269 64,-269"/>
<text text-anchor="start" x="67" y="-443" font-family="Courier New" font-size="10.00" fill="blue"> &#160;&#160;&#160;&#160;&#160;&#160;&#160;if(WIP3 == ISA_TOOL_DIGGER){</text>
<text text-anchor="start" x="67" y="-431" font-family="Courier New" font-size="10.00" fill="blue"> &#160;&#160;&#160;&#160;&#160;&#160;&#160;&#160;&#160;&#160;&#160;SHOW(0,IDS_SANDPILE3);</text>
<text text-anchor="start" x="67" y="-419" font-family="Courier New" font-size="10.00" fill="blue"> &#160;&#160;&#160;&#160;&#160;&#160;&#160;&#160;&#160;&#160;&#160;ANIMATE();</text>
<text text-anchor="start" x="67" y="-407" font-family="Courier New" font-size="10.00" fill="blue"> &#160;&#160;&#160;&#160;&#160;&#160;&#160;&#160;&#160;&#160;&#160;PLAYWAVE(SOUND_DIG);</text>
<text text-anchor="start" x="67" y="-395" font-family="Courier New" font-size="10.00" fill="blue"> &#160;&#160;&#160;&#160;&#160;&#160;&#160;&#160;} &#160;&#160;</text>
<text text-anchor="start" x="67" y="-383" font-family="Courier New" font-size="10.00" fill="blue"> &#160;&#160;&#160;&#160;&#160;&#160;&#160;&#160;if(WIP3 == ISA_TOOL_STRIKER){</text>
<text text-anchor="start" x="67" y="-371" font-family="Courier New" font-size="10.00" fill="blue"> &#160;&#160;&#160;&#160;&#160;&#160;&#160;&#160;&#160;&#160;&#160;SHOW(0,IDS_SANDSTRIKE);</text>
<text text-anchor="start" x="67" y="-359" font-family="Courier New" font-size="10.00" fill="blue"> &#160;&#160;&#160;&#160;&#160;&#160;&#160;&#160;&#160;&#160;&#160;ANIMATE();</text>
<text text-anchor="start" x="67" y="-347" font-family="Courier New" font-size="10.00" fill="blue"> &#160;&#160;&#160;&#160;&#160;&#160;&#160;&#160;&#160;&#160;&#160;PLAYWAVE(SOUND_DIG);</text>
<text text-anchor="start" x="67" y="-335" font-family="Courier New" font-size="10.00" fill="blue"> &#160;&#160;&#160;&#160;&#160;&#160;&#160;&#160;} &#160;&#160;</text>
<text text-anchor="start" x="67" y="-323" font-family="Courier New" font-size="10.00" fill="blue"> &#160;&#160;&#160;&#160;&#160;&#160;&#160;&#160;&#160;&#160;if(WIP3 == ISA_TOOL_PRYER){</text>
<text text-anchor="start" x="67" y="-311" font-family="Courier New" font-size="10.00" fill="blue"> &#160;&#160;&#160;&#160;&#160;&#160;&#160;&#160;&#160;&#160;&#160;SHOW(0,IDS_SANDFLIP);</text>
<text text-anchor="start" x="67" y="-299" font-family="Courier New" font-size="10.00" fill="blue"> &#160;&#160;&#160;&#160;&#160;&#160;&#160;&#160;&#160;&#160;&#160;ANIMATE();</text>
<text text-anchor="start" x="67" y="-287" font-family="Courier New" font-size="10.00" fill="blue"> &#160;&#160;&#160;&#160;&#160;&#160;&#160;&#160;&#160;&#160;&#160;PLAYWAVE(SOUND_THUMP);</text>
<text text-anchor="start" x="67" y="-275" font-family="Courier New" font-size="10.00" fill="blue"> &#160;&#160;&#160;&#160;&#160;&#160;&#160;&#160;} &#160;&#160;</text>
<polygon fill="none" stroke="black" points="61,-266 61,-478 301,-478 301,-266 61,-266"/>
</g>
<!-- moveMe -->
<g id="node9" class="node">
<title>moveMe</title>
<polyline fill="none" stroke="darkred" points="66,-135 122,-135"/>
<text text-anchor="start" x="69" y="-142.4" font-family="Courier New" font-weight="bold" font-size="14.00">moveMe</text>
<path fill="none" stroke="darkred" d="M72.33,-132C72.33,-132 115.67,-132 115.67,-132 120.33,-132 125,-136.67 125,-141.33 125,-141.33 125,-150.67 125,-150.67 125,-155.33 120.33,-160 115.67,-160 115.67,-160 72.33,-160 72.33,-160 67.67,-160 63,-155.33 63,-150.67 63,-150.67 63,-141.33 63,-141.33 63,-136.67 67.67,-132 72.33,-132"/>
</g>
<!-- moveMe&#45;&gt;displayItem -->
<g id="edge7" class="edge">
<title>moveMe&#45;&gt;displayItem</title>
<path fill="none" stroke="black" d="M90.69,-128.26C87.78,-108.35 86.25,-75.16 103,-54 111.09,-43.78 122.32,-36.53 134.38,-31.39"/>
<polygon fill="black" stroke="black" points="135.57,-34.68 143.73,-27.92 133.13,-28.12 135.57,-34.68"/>
<polygon fill="none" stroke="black" points="106,-89 106,-107 298,-107 298,-89 106,-89"/>
<text text-anchor="start" x="144.99" y="-96" font-family="Courier New" font-weight="bold" font-size="10.00" fill="blue">SET_YOFFSET(ADD,50)</text>
<polygon fill="none" stroke="black" points="106,-57 106,-87 298,-87 298,-57 106,-57"/>
<text text-anchor="start" x="109" y="-75" font-family="Courier New" font-size="10.00" fill="blue"> &#160;&#160;&#160;&#160;&#160;&#160;&#160;PLAYWAVE(SOUND_CHIMES);</text>
<text text-anchor="start" x="109" y="-63" font-family="Courier New" font-size="10.00" fill="blue"> &#160;&#160;&#160;&#160;&#160;&#160;&#160;SHOW(WOBJECT);</text>
<polygon fill="none" stroke="black" points="103,-54 103,-110 301,-110 301,-54 103,-54"/>
</g>
<!-- thirdWhack&#45;&gt;moveMe -->
<g id="edge9" class="edge">
<title>thirdWhack&#45;&gt;moveMe</title>
<path fill="none" stroke="black" d="M69.42,-212.01C73.5,-201.23 78.86,-187.04 83.54,-174.67"/>
<polygon fill="black" stroke="black" points="86.79,-175.98 87.05,-165.38 80.24,-173.5 86.79,-175.98"/>
<text text-anchor="middle" x="135.01" y="-185" font-family="Courier New" font-size="10.00" fill="orange">thirdWhackmoveMe&#45;&gt;</text>
</g>
</g>
</svg>
