<?xml version="1.0" encoding="UTF-8" standalone="no"?>
<!DOCTYPE svg PUBLIC "-//W3C//DTD SVG 1.1//EN"
 "http://www.w3.org/Graphics/SVG/1.1/DTD/svg11.dtd">
<!-- Generated by graphviz version 7.1.0 (20230121.1956)
 -->
<!-- Pages: 1 -->
<svg width="216pt" height="320pt"
 viewBox="0.00 0.00 216.00 320.00" xmlns="http://www.w3.org/2000/svg" xmlns:xlink="http://www.w3.org/1999/xlink">
<g id="graph0" class="graph" transform="scale(1 1) rotate(0) translate(4 316)">
<polygon fill="white" stroke="none" points="-4,4 -4,-316 212,-316 212,4 -4,4"/>
<!-- 0 -->
<g id="node1" class="node">
<title>0</title>
<ellipse fill="none" stroke="black" cx="75" cy="-294" rx="27" ry="18"/>
<text text-anchor="middle" x="75" y="-289.8" font-family="Times,serif" font-size="14.00">0</text>
</g>
<!-- 10 -->
<g id="node2" class="node">
<title>10</title>
<ellipse fill="none" stroke="black" cx="27" cy="-202" rx="27" ry="18"/>
<text text-anchor="middle" x="27" y="-197.8" font-family="Times,serif" font-size="14.00">10</text>
</g>
<!-- 0&#45;&gt;10 -->
<g id="edge1" class="edge">
<title>0&#45;&gt;10</title>
<path fill="none" stroke="black" d="M66.2,-276.49C59.16,-263.3 49.16,-244.55 41.02,-229.3"/>
<polygon fill="black" stroke="black" points="44.25,-227.91 36.46,-220.74 38.08,-231.21 44.25,-227.91"/>
<text text-anchor="start" x="60" y="-246" font-family="Courier New" font-weight="bold" font-size="10.00" fill="orange">DROP(0,0)</text>
</g>
<!-- 20 -->
<g id="node3" class="node">
<title>20</title>
<ellipse fill="none" stroke="black" cx="28" cy="-110" rx="27" ry="18"/>
<text text-anchor="middle" x="28" y="-105.8" font-family="Times,serif" font-size="14.00">20</text>
</g>
<!-- 10&#45;&gt;20 -->
<g id="edge2" class="edge">
<title>10&#45;&gt;20</title>
<path fill="none" stroke="black" d="M22.32,-184.04C20.96,-178.35 19.67,-171.95 19,-166 18,-157.17 17.88,-154.82 19,-146 19.3,-143.67 19.7,-141.26 20.17,-138.87"/>
<polygon fill="black" stroke="black" points="23.51,-139.93 22.39,-129.4 16.7,-138.33 23.51,-139.93"/>
<text text-anchor="start" x="23" y="-154" font-family="Courier New" font-weight="bold" font-size="10.00" fill="blue">SHOW(WOBJECT,)</text>
</g>
<!-- 30 -->
<g id="node4" class="node">
<title>30</title>
<ellipse fill="none" stroke="black" cx="85" cy="-18" rx="27" ry="18"/>
<text text-anchor="middle" x="85" y="-13.8" font-family="Times,serif" font-size="14.00">30</text>
</g>
<!-- 20&#45;&gt;30 -->
<g id="edge3" class="edge">
<title>20&#45;&gt;30</title>
<path fill="none" stroke="black" d="M35.6,-92.66C41.05,-81.47 48.84,-66.46 57,-54 59.36,-50.4 62,-46.73 64.7,-43.18"/>
<polygon fill="black" stroke="black" points="67.4,-45.4 70.86,-35.39 61.91,-41.06 67.4,-45.4"/>
<text text-anchor="start" x="61" y="-62" font-family="Courier New" font-weight="bold" font-size="10.00" fill="orange">GRAB(0,0)</text>
</g>
<!-- 30&#45;&gt;0 -->
<g id="edge4" class="edge">
<title>30&#45;&gt;0</title>
<path fill="none" stroke="black" d="M102.5,-32.07C108.97,-37.97 115.56,-45.52 119,-54 153.09,-138.01 158.39,-176.34 119,-258 115.77,-264.69 110.57,-270.5 104.86,-275.36"/>
<polygon fill="black" stroke="black" points="102.82,-272.51 96.89,-281.29 107,-278.13 102.82,-272.51"/>
<text text-anchor="start" x="150" y="-154" font-family="Courier New" font-weight="bold" font-size="10.00" fill="blue">SHOW(0,0)</text>
</g>
</g>
</svg>
