<?xml version="1.0" encoding="UTF-8" standalone="no"?>
<!DOCTYPE svg PUBLIC "-//W3C//DTD SVG 1.1//EN"
 "http://www.w3.org/Graphics/SVG/1.1/DTD/svg11.dtd">
<!-- Generated by graphviz version 7.1.0 (20230121.1956)
 -->
<!-- Pages: 1 -->
<svg width="742pt" height="1482pt"
 viewBox="0.00 0.00 742.35 1481.80" xmlns="http://www.w3.org/2000/svg" xmlns:xlink="http://www.w3.org/1999/xlink">
<g id="graph0" class="graph" transform="scale(1 1) rotate(0) translate(4 1477.8)">
<polygon fill="white" stroke="none" points="-4,4 -4,-1477.8 738.35,-1477.8 738.35,4 -4,4"/>
<!-- M_FISHSTATION_0 -->
<g id="node1" class="node">
<title>M_FISHSTATION_0</title>
<polygon fill="none" stroke="black" points="405,-1437.3 405,-1473.3 544.68,-1473.3 544.68,-1437.3 405,-1437.3"/>
<text text-anchor="middle" x="474.84" y="-1451.1" font-family="Times,serif" font-size="14.00">M_FISHSTATION_0</text>
</g>
<!-- M_FISHSTATION_1 -->
<g id="node2" class="node">
<title>M_FISHSTATION_1</title>
<polygon fill="none" stroke="black" points="137,-1347.5 137,-1383.5 276.68,-1383.5 276.68,-1347.5 137,-1347.5"/>
<text text-anchor="middle" x="206.84" y="-1361.3" font-family="Times,serif" font-size="14.00">M_FISHSTATION_1</text>
</g>
<!-- M_FISHSTATION_0&#45;&gt;M_FISHSTATION_1 -->
<g id="edge1" class="edge">
<title>M_FISHSTATION_0&#45;&gt;M_FISHSTATION_1</title>
<path fill="none" stroke="green" d="M405.28,-1454.84C335.18,-1453.75 233.82,-1447.11 208.32,-1418.8 202.47,-1412.3 200.81,-1403.3 201.01,-1394.59"/>
<polygon fill="green" stroke="green" points="204.49,-1394.98 202.07,-1384.67 197.53,-1394.24 204.49,-1394.98"/>
<text text-anchor="start" x="208.84" y="-1407.2" font-family="Times,serif" font-size="14.00" fill="green"> </text>
<text text-anchor="start" x="212.34" y="-1407.2" font-family="Courier New" font-size="10.00" fill="green">C_ACCEPT(0,IDC_POLE)</text>
</g>
<!-- M_FISHSTATION_2 -->
<g id="node3" class="node">
<title>M_FISHSTATION_2</title>
<polygon fill="none" stroke="black" points="137,-1257.7 137,-1293.7 276.68,-1293.7 276.68,-1257.7 137,-1257.7"/>
<text text-anchor="middle" x="206.84" y="-1271.5" font-family="Times,serif" font-size="14.00">M_FISHSTATION_2</text>
</g>
<!-- M_FISHSTATION_1&#45;&gt;M_FISHSTATION_2 -->
<g id="edge2" class="edge">
<title>M_FISHSTATION_1&#45;&gt;M_FISHSTATION_2</title>
<path fill="none" stroke="green" d="M206.84,-1347.57C206.84,-1335.42 206.84,-1318.78 206.84,-1304.67"/>
<polygon fill="green" stroke="green" points="210.34,-1305.09 206.84,-1295.09 203.34,-1305.09 210.34,-1305.09"/>
<text text-anchor="start" x="206.84" y="-1317.4" font-family="Times,serif" font-size="14.00" fill="green"> </text>
<text text-anchor="start" x="210.34" y="-1317.4" font-family="Courier New" font-size="10.00" fill="green">SHOW(0,0)</text>
</g>
<!-- M_FISHSTATION_2&#45;&gt;M_FISHSTATION_0 -->
<g id="edge5" class="edge">
<title>M_FISHSTATION_2&#45;&gt;M_FISHSTATION_0</title>
<path fill="none" stroke="red" d="M238.28,-1293.53C248.24,-1299.17 259.17,-1305.69 268.84,-1312.2 311.71,-1341.07 317.9,-1354.47 360.33,-1384 384.74,-1400.99 413.23,-1418.49 435.69,-1431.78"/>
<polygon fill="red" stroke="red" points="433.85,-1434.76 444.24,-1436.81 437.39,-1428.72 433.85,-1434.76"/>
<text text-anchor="start" x="359.84" y="-1362.3" font-family="Times,serif" font-size="14.00" fill="red"> </text>
<text text-anchor="start" x="363.34" y="-1362.3" font-family="Courier New" font-size="10.00" fill="red">GRAB(0,0)</text>
</g>
<!-- M_FISHSTATION_50 -->
<g id="node4" class="node">
<title>M_FISHSTATION_50</title>
<polygon fill="none" stroke="black" points="16.5,-1167.9 16.5,-1203.9 163.18,-1203.9 163.18,-1167.9 16.5,-1167.9"/>
<text text-anchor="middle" x="89.84" y="-1181.7" font-family="Times,serif" font-size="14.00">M_FISHSTATION_50</text>
</g>
<!-- M_FISHSTATION_2&#45;&gt;M_FISHSTATION_50 -->
<g id="edge3" class="edge">
<title>M_FISHSTATION_2&#45;&gt;M_FISHSTATION_50</title>
<path fill="none" stroke="red" d="M137.34,-1267.58C100.52,-1262.22 60.61,-1253.32 49.32,-1239.2 42.13,-1230.2 46.79,-1220.23 55.12,-1211.42"/>
<polygon fill="red" stroke="red" points="57.42,-1214.07 62.45,-1204.75 52.7,-1208.89 57.42,-1214.07"/>
<text text-anchor="start" x="49.84" y="-1227.6" font-family="Times,serif" font-size="14.00" fill="red"> </text>
<text text-anchor="start" x="53.34" y="-1227.6" font-family="Courier New" font-size="10.00" fill="red">DRAG(0,IDD_BUCKE)</text>
</g>
<!-- M_FISHSTATION_3 -->
<g id="node5" class="node">
<title>M_FISHSTATION_3</title>
<polygon fill="none" stroke="black" points="223,-1167.9 223,-1203.9 362.68,-1203.9 362.68,-1167.9 223,-1167.9"/>
<text text-anchor="middle" x="292.84" y="-1181.7" font-family="Times,serif" font-size="14.00">M_FISHSTATION_3</text>
</g>
<!-- M_FISHSTATION_2&#45;&gt;M_FISHSTATION_3 -->
<g id="edge4" class="edge">
<title>M_FISHSTATION_2&#45;&gt;M_FISHSTATION_3</title>
<path fill="none" stroke="red" d="M276.63,-1260.13C286.55,-1255.09 295.51,-1248.31 301.84,-1239.2 306.8,-1232.04 306.87,-1223.04 304.99,-1214.52"/>
<polygon fill="red" stroke="red" points="308.41,-1213.75 302.08,-1205.26 301.73,-1215.85 308.41,-1213.75"/>
<text text-anchor="start" x="306.84" y="-1227.6" font-family="Times,serif" font-size="14.00" fill="red"> </text>
<text text-anchor="start" x="310.34" y="-1227.6" font-family="Courier New" font-size="10.00" fill="red">DROP(0,0)</text>
</g>
<!-- M_FISHSTATION_50&#45;&gt;M_FISHSTATION_2 -->
<g id="edge30" class="edge">
<title>M_FISHSTATION_50&#45;&gt;M_FISHSTATION_2</title>
<path fill="none" stroke="green" d="M125.05,-1203.74C135.04,-1209.14 145.69,-1215.53 154.84,-1222.4 160.92,-1226.96 172.54,-1238.55 183.26,-1249.65"/>
<polygon fill="green" stroke="green" points="180.69,-1252.03 190.13,-1256.84 185.75,-1247.19 180.69,-1252.03"/>
<text text-anchor="start" x="172.84" y="-1227.6" font-family="Times,serif" font-size="14.00" fill="green"> </text>
<text text-anchor="start" x="176.34" y="-1227.6" font-family="Courier New" font-size="10.00" fill="green">HANDOFF(0,IDD_BUCKF)</text>
</g>
<!-- M_FISHSTATION_4 -->
<g id="node6" class="node">
<title>M_FISHSTATION_4</title>
<polygon fill="none" stroke="black" points="22,-1078.1 22,-1114.1 161.68,-1114.1 161.68,-1078.1 22,-1078.1"/>
<text text-anchor="middle" x="91.84" y="-1091.9" font-family="Times,serif" font-size="14.00">M_FISHSTATION_4</text>
</g>
<!-- M_FISHSTATION_3&#45;&gt;M_FISHSTATION_4 -->
<g id="edge6" class="edge">
<title>M_FISHSTATION_3&#45;&gt;M_FISHSTATION_4</title>
<path fill="none" stroke="green" d="M223.16,-1173.82C177.97,-1166.12 125.95,-1156.08 117.31,-1149.4 109.25,-1143.16 103.58,-1133.71 99.68,-1124.55"/>
<polygon fill="green" stroke="green" points="102.98,-1123.38 96.26,-1115.18 96.4,-1125.77 102.98,-1123.38"/>
<text text-anchor="start" x="117.84" y="-1137.8" font-family="Times,serif" font-size="14.00" fill="green"> </text>
<text text-anchor="start" x="121.34" y="-1137.8" font-family="Courier New" font-size="10.00" fill="green">IS_A(WOBJECT,ISA_BAITEDPOLE)</text>
</g>
<!-- M_FISHSTATION_30 -->
<g id="node7" class="node">
<title>M_FISHSTATION_30</title>
<polygon fill="none" stroke="black" points="219.5,-1078.1 219.5,-1114.1 366.18,-1114.1 366.18,-1078.1 219.5,-1078.1"/>
<text text-anchor="middle" x="292.84" y="-1091.9" font-family="Times,serif" font-size="14.00">M_FISHSTATION_30</text>
</g>
<!-- M_FISHSTATION_3&#45;&gt;M_FISHSTATION_30 -->
<g id="edge7" class="edge">
<title>M_FISHSTATION_3&#45;&gt;M_FISHSTATION_30</title>
<path fill="none" stroke="green" d="M292.84,-1167.97C292.84,-1155.82 292.84,-1139.18 292.84,-1125.07"/>
<polygon fill="green" stroke="green" points="296.34,-1125.49 292.84,-1115.49 289.34,-1125.49 296.34,-1125.49"/>
<text text-anchor="start" x="292.84" y="-1137.8" font-family="Times,serif" font-size="14.00" fill="green"> </text>
<text text-anchor="start" x="296.34" y="-1137.8" font-family="Courier New" font-size="10.00" fill="green">Z_EPSILON(0,0)</text>
</g>
<!-- M_FISHSTATION_5 -->
<g id="node8" class="node">
<title>M_FISHSTATION_5</title>
<polygon fill="none" stroke="black" points="0,-988.3 0,-1024.3 139.68,-1024.3 139.68,-988.3 0,-988.3"/>
<text text-anchor="middle" x="69.84" y="-1002.1" font-family="Times,serif" font-size="14.00">M_FISHSTATION_5</text>
</g>
<!-- M_FISHSTATION_4&#45;&gt;M_FISHSTATION_5 -->
<g id="edge8" class="edge">
<title>M_FISHSTATION_4&#45;&gt;M_FISHSTATION_5</title>
<path fill="none" stroke="green" d="M87.6,-1078.17C84.55,-1066.02 80.38,-1049.38 76.85,-1035.27"/>
<polygon fill="green" stroke="green" points="80.26,-1034.49 74.43,-1025.64 73.47,-1036.2 80.26,-1034.49"/>
<text text-anchor="start" x="82.84" y="-1048" font-family="Times,serif" font-size="14.00" fill="green"> </text>
<text text-anchor="start" x="86.34" y="-1048" font-family="Courier New" font-size="10.00" fill="green">SHOW(0,IDS_POLE1LCL)</text>
</g>
<!-- M_FISHSTATION_31 -->
<g id="node20" class="node">
<title>M_FISHSTATION_31</title>
<polygon fill="none" stroke="black" points="225.5,-988.3 225.5,-1024.3 372.18,-1024.3 372.18,-988.3 225.5,-988.3"/>
<text text-anchor="middle" x="298.84" y="-1002.1" font-family="Times,serif" font-size="14.00">M_FISHSTATION_31</text>
</g>
<!-- M_FISHSTATION_30&#45;&gt;M_FISHSTATION_31 -->
<g id="edge22" class="edge">
<title>M_FISHSTATION_30&#45;&gt;M_FISHSTATION_31</title>
<path fill="none" stroke="green" d="M292.9,-1078.12C293.04,-1067.88 293.4,-1054.57 294.32,-1042.8 294.5,-1040.43 294.73,-1037.97 294.99,-1035.51"/>
<polygon fill="green" stroke="green" points="298.45,-1036.09 296.16,-1025.74 291.5,-1035.26 298.45,-1036.09"/>
<text text-anchor="start" x="294.84" y="-1048" font-family="Times,serif" font-size="14.00" fill="green"> </text>
<text text-anchor="start" x="298.34" y="-1048" font-family="Courier New" font-size="10.00" fill="green">SHOW(0,IDS_POLE1LCU)</text>
</g>
<!-- M_FISHSTATION_6 -->
<g id="node9" class="node">
<title>M_FISHSTATION_6</title>
<polygon fill="none" stroke="black" points="120,-898.5 120,-934.5 259.68,-934.5 259.68,-898.5 120,-898.5"/>
<text text-anchor="middle" x="189.84" y="-912.3" font-family="Times,serif" font-size="14.00">M_FISHSTATION_6</text>
</g>
<!-- M_FISHSTATION_5&#45;&gt;M_FISHSTATION_6 -->
<g id="edge9" class="edge">
<title>M_FISHSTATION_5&#45;&gt;M_FISHSTATION_6</title>
<path fill="none" stroke="green" d="M79.07,-988.39C85.92,-977.14 96.15,-962.7 108.3,-953 114.69,-947.9 121.92,-943.39 129.38,-939.45"/>
<polygon fill="green" stroke="green" points="130.83,-942.64 138.26,-935.09 127.75,-936.35 130.83,-942.64"/>
<text text-anchor="start" x="108.84" y="-958.2" font-family="Times,serif" font-size="14.00" fill="green"> </text>
<text text-anchor="start" x="112.34" y="-958.2" font-family="Courier New" font-size="10.00" fill="green">RAND(ADD_CATCH_TIME,MIN_CATCH_TIME)</text>
</g>
<!-- M_FISHSTATION_6&#45;&gt;M_FISHSTATION_0 -->
<g id="edge10" class="edge">
<title>M_FISHSTATION_6&#45;&gt;M_FISHSTATION_0</title>
<path fill="none" stroke="red" d="M259.59,-931.04C267.42,-932.44 275.3,-933.79 282.84,-935 312.72,-939.8 395.1,-933.02 417.84,-953 435.91,-968.88 431.84,-981.24 431.84,-1005.3 431.84,-1366.5 431.84,-1366.5 431.84,-1366.5 431.84,-1388.92 443.28,-1411.57 454.37,-1428.26"/>
<polygon fill="red" stroke="red" points="451.27,-1429.94 459.89,-1436.1 456.99,-1425.91 451.27,-1429.94"/>
<text text-anchor="start" x="431.84" y="-1182.7" font-family="Times,serif" font-size="14.00" fill="red"> </text>
<text text-anchor="start" x="435.34" y="-1182.7" font-family="Courier New" font-size="10.00" fill="red">GRAB(0,0)</text>
</g>
<!-- M_FISHSTATION_7 -->
<g id="node10" class="node">
<title>M_FISHSTATION_7</title>
<polygon fill="none" stroke="black" points="121,-808.7 121,-844.7 260.68,-844.7 260.68,-808.7 121,-808.7"/>
<text text-anchor="middle" x="190.84" y="-822.5" font-family="Times,serif" font-size="14.00">M_FISHSTATION_7</text>
</g>
<!-- M_FISHSTATION_6&#45;&gt;M_FISHSTATION_7 -->
<g id="edge11" class="edge">
<title>M_FISHSTATION_6&#45;&gt;M_FISHSTATION_7</title>
<path fill="none" stroke="green" d="M190.03,-898.57C190.17,-886.42 190.36,-869.78 190.52,-855.67"/>
<polygon fill="green" stroke="green" points="194.01,-856.13 190.63,-846.09 187.01,-856.05 194.01,-856.13"/>
<text text-anchor="start" x="190.84" y="-868.4" font-family="Times,serif" font-size="14.00" fill="green"> </text>
<text text-anchor="start" x="194.34" y="-868.4" font-family="Courier New" font-size="10.00" fill="green">SYNCPOINT(WRAND,SYNC_FISH1)</text>
</g>
<!-- M_FISHSTATION_8 -->
<g id="node11" class="node">
<title>M_FISHSTATION_8</title>
<polygon fill="none" stroke="black" points="144,-718.9 144,-754.9 283.68,-754.9 283.68,-718.9 144,-718.9"/>
<text text-anchor="middle" x="213.84" y="-732.7" font-family="Times,serif" font-size="14.00">M_FISHSTATION_8</text>
</g>
<!-- M_FISHSTATION_7&#45;&gt;M_FISHSTATION_8 -->
<g id="edge12" class="edge">
<title>M_FISHSTATION_7&#45;&gt;M_FISHSTATION_8</title>
<path fill="none" stroke="green" d="M195.27,-808.77C198.45,-796.62 202.81,-779.98 206.51,-765.87"/>
<polygon fill="green" stroke="green" points="209.88,-766.8 209.03,-756.24 203.11,-765.03 209.88,-766.8"/>
<text text-anchor="start" x="204.84" y="-778.6" font-family="Times,serif" font-size="14.00" fill="green"> </text>
<text text-anchor="start" x="208.34" y="-778.6" font-family="Courier New" font-size="10.00" fill="green">PLAYWAVE(0,SOUND_HURT)</text>
</g>
<!-- M_FISHSTATION_9 -->
<g id="node12" class="node">
<title>M_FISHSTATION_9</title>
<polygon fill="none" stroke="black" points="150,-629.1 150,-665.1 289.68,-665.1 289.68,-629.1 150,-629.1"/>
<text text-anchor="middle" x="219.84" y="-642.9" font-family="Times,serif" font-size="14.00">M_FISHSTATION_9</text>
</g>
<!-- M_FISHSTATION_8&#45;&gt;M_FISHSTATION_9 -->
<g id="edge13" class="edge">
<title>M_FISHSTATION_8&#45;&gt;M_FISHSTATION_9</title>
<path fill="none" stroke="green" d="M214.99,-718.97C215.82,-706.82 216.96,-690.18 217.93,-676.07"/>
<polygon fill="green" stroke="green" points="221.39,-676.7 218.58,-666.49 214.41,-676.22 221.39,-676.7"/>
<text text-anchor="start" x="217.84" y="-688.8" font-family="Times,serif" font-size="14.00" fill="green"> </text>
<text text-anchor="start" x="221.34" y="-688.8" font-family="Courier New" font-size="10.00" fill="green">MOV(WPARM,WOBJECT)</text>
</g>
<!-- M_FISHSTATION_11 -->
<g id="node13" class="node">
<title>M_FISHSTATION_11</title>
<polygon fill="none" stroke="black" points="220.5,-539.3 220.5,-575.3 367.18,-575.3 367.18,-539.3 220.5,-539.3"/>
<text text-anchor="middle" x="293.84" y="-553.1" font-family="Times,serif" font-size="14.00">M_FISHSTATION_11</text>
</g>
<!-- M_FISHSTATION_9&#45;&gt;M_FISHSTATION_11 -->
<g id="edge14" class="edge">
<title>M_FISHSTATION_9&#45;&gt;M_FISHSTATION_11</title>
<path fill="none" stroke="green" d="M222.45,-629.15C224.83,-618.16 229.26,-604.04 237.3,-593.8 240.79,-589.36 245.01,-585.32 249.54,-581.69"/>
<polygon fill="green" stroke="green" points="251.23,-584.79 257.31,-576.11 247.15,-579.1 251.23,-584.79"/>
<text text-anchor="start" x="237.84" y="-599" font-family="Times,serif" font-size="14.00" fill="green"> </text>
<text text-anchor="start" x="241.34" y="-599" font-family="Courier New" font-size="10.00" fill="green">RAND(IDD_FISH10&#45;IDD_FISH1,IDD_FISH1)</text>
</g>
<!-- M_FISHSTATION_12 -->
<g id="node14" class="node">
<title>M_FISHSTATION_12</title>
<polygon fill="none" stroke="black" points="374.5,-449.5 374.5,-485.5 521.18,-485.5 521.18,-449.5 374.5,-449.5"/>
<text text-anchor="middle" x="447.84" y="-463.3" font-family="Times,serif" font-size="14.00">M_FISHSTATION_12</text>
</g>
<!-- M_FISHSTATION_11&#45;&gt;M_FISHSTATION_12 -->
<g id="edge15" class="edge">
<title>M_FISHSTATION_11&#45;&gt;M_FISHSTATION_12</title>
<path fill="none" stroke="green" d="M323.53,-539.37C347.71,-525.59 382.05,-506.01 408.52,-490.92"/>
<polygon fill="green" stroke="green" points="409.97,-494.12 416.92,-486.13 406.5,-488.04 409.97,-494.12"/>
<text text-anchor="start" x="383.84" y="-509.2" font-family="Times,serif" font-size="14.00" fill="green"> </text>
<text text-anchor="start" x="387.34" y="-509.2" font-family="Courier New" font-size="10.00" fill="green">MOV(WOBJECT,WRAND)</text>
</g>
<!-- M_FISHSTATION_13 -->
<g id="node15" class="node">
<title>M_FISHSTATION_13</title>
<polygon fill="none" stroke="black" points="465.5,-359.7 465.5,-395.7 612.18,-395.7 612.18,-359.7 465.5,-359.7"/>
<text text-anchor="middle" x="538.84" y="-373.5" font-family="Times,serif" font-size="14.00">M_FISHSTATION_13</text>
</g>
<!-- M_FISHSTATION_12&#45;&gt;M_FISHSTATION_13 -->
<g id="edge16" class="edge">
<title>M_FISHSTATION_12&#45;&gt;M_FISHSTATION_13</title>
<path fill="none" stroke="green" d="M465.38,-449.57C478.98,-436.45 498.01,-418.09 513.3,-403.34"/>
<polygon fill="green" stroke="green" points="515.49,-406.09 520.26,-396.63 510.63,-401.05 515.49,-406.09"/>
<text text-anchor="start" x="500.84" y="-419.4" font-family="Times,serif" font-size="14.00" fill="green"> </text>
<text text-anchor="start" x="504.34" y="-419.4" font-family="Courier New" font-size="10.00" fill="green">SHOW(0,IDS_POLE1LCT)</text>
</g>
<!-- M_FISHSTATION_14 -->
<g id="node16" class="node">
<title>M_FISHSTATION_14</title>
<polygon fill="none" stroke="black" points="474.5,-269.9 474.5,-305.9 621.18,-305.9 621.18,-269.9 474.5,-269.9"/>
<text text-anchor="middle" x="547.84" y="-283.7" font-family="Times,serif" font-size="14.00">M_FISHSTATION_14</text>
</g>
<!-- M_FISHSTATION_13&#45;&gt;M_FISHSTATION_14 -->
<g id="edge17" class="edge">
<title>M_FISHSTATION_13&#45;&gt;M_FISHSTATION_14</title>
<path fill="none" stroke="red" d="M540.57,-359.77C541.82,-347.62 543.52,-330.98 544.97,-316.87"/>
<polygon fill="red" stroke="red" points="548.42,-317.59 545.95,-307.28 541.45,-316.87 548.42,-317.59"/>
<text text-anchor="start" x="543.84" y="-329.6" font-family="Times,serif" font-size="14.00" fill="red"> </text>
<text text-anchor="start" x="547.34" y="-329.6" font-family="Courier New" font-size="10.00" fill="red">GRAB(0,0)</text>
</g>
<!-- M_FISHSTATION_15 -->
<g id="node17" class="node">
<title>M_FISHSTATION_15</title>
<polygon fill="none" stroke="black" points="476.5,-180.1 476.5,-216.1 623.18,-216.1 623.18,-180.1 476.5,-180.1"/>
<text text-anchor="middle" x="549.84" y="-193.9" font-family="Times,serif" font-size="14.00">M_FISHSTATION_15</text>
</g>
<!-- M_FISHSTATION_14&#45;&gt;M_FISHSTATION_15 -->
<g id="edge18" class="edge">
<title>M_FISHSTATION_14&#45;&gt;M_FISHSTATION_15</title>
<path fill="none" stroke="green" d="M548.22,-269.97C548.5,-257.82 548.88,-241.18 549.2,-227.07"/>
<polygon fill="green" stroke="green" points="552.69,-227.57 549.42,-217.49 545.69,-227.41 552.69,-227.57"/>
<text text-anchor="start" x="548.84" y="-239.8" font-family="Times,serif" font-size="14.00" fill="green"> </text>
<text text-anchor="start" x="552.34" y="-239.8" font-family="Courier New" font-size="10.00" fill="green">MOV(WOBJECT,WPARM)</text>
</g>
<!-- M_FISHSTATION_16 -->
<g id="node18" class="node">
<title>M_FISHSTATION_16</title>
<polygon fill="none" stroke="black" points="482.5,-90.3 482.5,-126.3 629.18,-126.3 629.18,-90.3 482.5,-90.3"/>
<text text-anchor="middle" x="555.84" y="-104.1" font-family="Times,serif" font-size="14.00">M_FISHSTATION_16</text>
</g>
<!-- M_FISHSTATION_15&#45;&gt;M_FISHSTATION_16 -->
<g id="edge19" class="edge">
<title>M_FISHSTATION_15&#45;&gt;M_FISHSTATION_16</title>
<path fill="none" stroke="green" d="M549.9,-180.12C550.04,-169.88 550.41,-156.57 551.32,-144.8 551.5,-142.43 551.73,-139.97 551.99,-137.51"/>
<polygon fill="green" stroke="green" points="555.45,-138.09 553.16,-127.74 548.5,-137.26 555.45,-138.09"/>
<text text-anchor="start" x="550.84" y="-150" font-family="Times,serif" font-size="14.00" fill="green"> </text>
<text text-anchor="start" x="554.34" y="-150" font-family="Courier New" font-size="10.00" fill="green">XIM(WOBJECT,WPARM)</text>
</g>
<!-- M_FISHSTATION_17 -->
<g id="node19" class="node">
<title>M_FISHSTATION_17</title>
<polygon fill="none" stroke="black" points="545.5,-0.5 545.5,-36.5 692.18,-36.5 692.18,-0.5 545.5,-0.5"/>
<text text-anchor="middle" x="618.84" y="-14.3" font-family="Times,serif" font-size="14.00">M_FISHSTATION_17</text>
</g>
<!-- M_FISHSTATION_16&#45;&gt;M_FISHSTATION_17 -->
<g id="edge20" class="edge">
<title>M_FISHSTATION_16&#45;&gt;M_FISHSTATION_17</title>
<path fill="none" stroke="green" d="M559.61,-90.66C562.63,-79.8 567.65,-65.71 575.32,-55 578.13,-51.08 581.48,-47.34 585.06,-43.87"/>
<polygon fill="green" stroke="green" points="587.34,-46.53 592.53,-37.29 582.72,-41.27 587.34,-46.53"/>
<text text-anchor="start" x="574.84" y="-60.2" font-family="Times,serif" font-size="14.00" fill="green"> </text>
<text text-anchor="start" x="578.34" y="-60.2" font-family="Courier New" font-size="10.00" fill="green">SHOW(WOBJECT,)</text>
</g>
<!-- M_FISHSTATION_17&#45;&gt;M_FISHSTATION_0 -->
<g id="edge21" class="edge">
<title>M_FISHSTATION_17&#45;&gt;M_FISHSTATION_0</title>
<path fill="none" stroke="red" d="M645.19,-36.31C651.76,-41.6 658.24,-47.92 662.84,-55 675.96,-75.17 676.84,-83.24 676.84,-107.3 676.84,-1366.5 676.84,-1366.5 676.84,-1366.5 676.84,-1421.98 611.96,-1442.77 555.74,-1450.38"/>
<polygon fill="red" stroke="red" points="555.64,-1446.87 546.14,-1451.55 556.49,-1453.81 555.64,-1446.87"/>
<text text-anchor="start" x="676.84" y="-733.7" font-family="Times,serif" font-size="14.00" fill="red"> </text>
<text text-anchor="start" x="680.34" y="-733.7" font-family="Courier New" font-size="10.00" fill="red">GRAB(0,0)</text>
</g>
<!-- M_FISHSTATION_32 -->
<g id="node21" class="node">
<title>M_FISHSTATION_32</title>
<polygon fill="none" stroke="black" points="291.5,-898.5 291.5,-934.5 438.18,-934.5 438.18,-898.5 291.5,-898.5"/>
<text text-anchor="middle" x="364.84" y="-912.3" font-family="Times,serif" font-size="14.00">M_FISHSTATION_32</text>
</g>
<!-- M_FISHSTATION_31&#45;&gt;M_FISHSTATION_32 -->
<g id="edge23" class="edge">
<title>M_FISHSTATION_31&#45;&gt;M_FISHSTATION_32</title>
<path fill="none" stroke="green" d="M311.56,-988.37C321.15,-975.62 334.46,-957.91 345.38,-943.38"/>
<polygon fill="green" stroke="green" points="348.03,-945.68 351.24,-935.59 342.44,-941.48 348.03,-945.68"/>
<text text-anchor="start" x="336.84" y="-958.2" font-family="Times,serif" font-size="14.00" fill="green"> </text>
<text text-anchor="start" x="340.34" y="-958.2" font-family="Courier New" font-size="10.00" fill="green">MOV(WPARM,WOBJECT)</text>
</g>
<!-- M_FISHSTATION_33 -->
<g id="node22" class="node">
<title>M_FISHSTATION_33</title>
<polygon fill="none" stroke="black" points="390.5,-808.7 390.5,-844.7 537.18,-844.7 537.18,-808.7 390.5,-808.7"/>
<text text-anchor="middle" x="463.84" y="-822.5" font-family="Times,serif" font-size="14.00">M_FISHSTATION_33</text>
</g>
<!-- M_FISHSTATION_32&#45;&gt;M_FISHSTATION_33 -->
<g id="edge24" class="edge">
<title>M_FISHSTATION_32&#45;&gt;M_FISHSTATION_33</title>
<path fill="none" stroke="green" d="M366.13,-898.62C367.8,-887.39 371.62,-872.95 380.32,-863.2 384.75,-858.23 390,-853.93 395.67,-850.22"/>
<polygon fill="green" stroke="green" points="397.33,-853.3 404.24,-845.27 393.83,-847.24 397.33,-853.3"/>
<text text-anchor="start" x="379.84" y="-868.4" font-family="Times,serif" font-size="14.00" fill="green"> </text>
<text text-anchor="start" x="383.34" y="-868.4" font-family="Courier New" font-size="10.00" fill="green">C_ACCEPT(0,ISA_BAIT)</text>
</g>
<!-- M_FISHSTATION_33&#45;&gt;M_FISHSTATION_0 -->
<g id="edge26" class="edge">
<title>M_FISHSTATION_33&#45;&gt;M_FISHSTATION_0</title>
<path fill="none" stroke="red" d="M487.36,-844.52C493.48,-849.88 499.54,-856.25 503.84,-863.2 516.48,-883.67 517.84,-891.44 517.84,-915.5 517.84,-1366.5 517.84,-1366.5 517.84,-1366.5 517.84,-1388.92 506.39,-1411.57 495.31,-1428.26"/>
<polygon fill="red" stroke="red" points="492.68,-1425.91 489.79,-1436.1 498.41,-1429.94 492.68,-1425.91"/>
<text text-anchor="start" x="517.84" y="-1137.8" font-family="Times,serif" font-size="14.00" fill="red"> </text>
<text text-anchor="start" x="521.34" y="-1137.8" font-family="Courier New" font-size="10.00" fill="red">GRAB(0,0)</text>
</g>
<!-- M_FISHSTATION_34 -->
<g id="node23" class="node">
<title>M_FISHSTATION_34</title>
<polygon fill="none" stroke="black" points="390.5,-718.9 390.5,-754.9 537.18,-754.9 537.18,-718.9 390.5,-718.9"/>
<text text-anchor="middle" x="463.84" y="-732.7" font-family="Times,serif" font-size="14.00">M_FISHSTATION_34</text>
</g>
<!-- M_FISHSTATION_33&#45;&gt;M_FISHSTATION_34 -->
<g id="edge25" class="edge">
<title>M_FISHSTATION_33&#45;&gt;M_FISHSTATION_34</title>
<path fill="none" stroke="red" d="M463.84,-808.77C463.84,-796.62 463.84,-779.98 463.84,-765.87"/>
<polygon fill="red" stroke="red" points="467.34,-766.29 463.84,-756.29 460.34,-766.29 467.34,-766.29"/>
<text text-anchor="start" x="463.84" y="-778.6" font-family="Times,serif" font-size="14.00" fill="red"> </text>
<text text-anchor="start" x="467.34" y="-778.6" font-family="Courier New" font-size="10.00" fill="red">DROP(0,0)</text>
</g>
<!-- M_FISHSTATION_35 -->
<g id="node24" class="node">
<title>M_FISHSTATION_35</title>
<polygon fill="none" stroke="black" points="390.5,-629.1 390.5,-665.1 537.18,-665.1 537.18,-629.1 390.5,-629.1"/>
<text text-anchor="middle" x="463.84" y="-642.9" font-family="Times,serif" font-size="14.00">M_FISHSTATION_35</text>
</g>
<!-- M_FISHSTATION_34&#45;&gt;M_FISHSTATION_35 -->
<g id="edge27" class="edge">
<title>M_FISHSTATION_34&#45;&gt;M_FISHSTATION_35</title>
<path fill="none" stroke="green" d="M463.84,-718.97C463.84,-706.82 463.84,-690.18 463.84,-676.07"/>
<polygon fill="green" stroke="green" points="467.34,-676.49 463.84,-666.49 460.34,-676.49 467.34,-676.49"/>
<text text-anchor="start" x="463.84" y="-688.8" font-family="Times,serif" font-size="14.00" fill="green"> </text>
<text text-anchor="start" x="467.34" y="-688.8" font-family="Courier New" font-size="10.00" fill="green">MIX(WPARM,WOBJECT)</text>
</g>
<!-- M_FISHSTATION_36 -->
<g id="node25" class="node">
<title>M_FISHSTATION_36</title>
<polygon fill="none" stroke="black" points="424.5,-539.3 424.5,-575.3 571.18,-575.3 571.18,-539.3 424.5,-539.3"/>
<text text-anchor="middle" x="497.84" y="-553.1" font-family="Times,serif" font-size="14.00">M_FISHSTATION_36</text>
</g>
<!-- M_FISHSTATION_35&#45;&gt;M_FISHSTATION_36 -->
<g id="edge28" class="edge">
<title>M_FISHSTATION_35&#45;&gt;M_FISHSTATION_36</title>
<path fill="none" stroke="green" d="M461.41,-629.47C460.56,-618.88 460.75,-605.08 465.32,-593.8 466.7,-590.39 468.57,-587.11 470.71,-584"/>
<polygon fill="green" stroke="green" points="473.24,-586.44 476.82,-576.47 467.8,-582.03 473.24,-586.44"/>
<text text-anchor="start" x="464.84" y="-599" font-family="Times,serif" font-size="14.00" fill="green"> </text>
<text text-anchor="start" x="468.34" y="-599" font-family="Courier New" font-size="10.00" fill="green">SHOW(0,IDS_POLE1B)</text>
</g>
<!-- M_FISHSTATION_36&#45;&gt;M_FISHSTATION_0 -->
<g id="edge29" class="edge">
<title>M_FISHSTATION_36&#45;&gt;M_FISHSTATION_0</title>
<path fill="none" stroke="red" d="M552.76,-575.23C561.79,-580.04 570.31,-586.13 576.84,-593.8 592.43,-612.13 590.84,-622.04 590.84,-646.1 590.84,-1366.5 590.84,-1366.5 590.84,-1366.5 590.84,-1397.21 564.68,-1418.55 537.2,-1432.5"/>
<polygon fill="red" stroke="red" points="535.97,-1429.21 528.44,-1436.65 538.97,-1435.53 535.97,-1429.21"/>
<text text-anchor="start" x="590.84" y="-1003.1" font-family="Times,serif" font-size="14.00" fill="red"> </text>
<text text-anchor="start" x="594.34" y="-1003.1" font-family="Courier New" font-size="10.00" fill="red">GRAB(0,0)</text>
</g>
</g>
</svg>
