<?xml version="1.0" encoding="UTF-8" standalone="no"?>
<!DOCTYPE svg PUBLIC "-//W3C//DTD SVG 1.1//EN"
 "http://www.w3.org/Graphics/SVG/1.1/DTD/svg11.dtd">
<!-- Generated by graphviz version 7.1.0 (20230121.1956)
 -->
<!-- Pages: 1 -->
<svg width="984pt" height="638pt"
 viewBox="0.00 0.00 983.68 638.00" xmlns="http://www.w3.org/2000/svg" xmlns:xlink="http://www.w3.org/1999/xlink">
<g id="graph0" class="graph" transform="scale(1 1) rotate(0) translate(4 634)">
<polygon fill="white" stroke="none" points="-4,4 -4,-634 979.68,-634 979.68,4 -4,4"/>
<!-- 0 -->
<g id="node1" class="node">
<title>0</title>
<ellipse fill="none" stroke="black" cx="89.68" cy="-612" rx="27" ry="18"/>
<text text-anchor="middle" x="89.68" y="-607.8" font-family="Times,serif" font-size="14.00">0</text>
</g>
<!-- 2 -->
<g id="node2" class="node">
<title>2</title>
<ellipse fill="none" stroke="black" cx="287.68" cy="-486" rx="27" ry="18"/>
<text text-anchor="middle" x="287.68" y="-481.8" font-family="Times,serif" font-size="14.00">2</text>
</g>
<!-- 0&#45;&gt;2 -->
<g id="edge1" class="edge">
<title>0&#45;&gt;2</title>
<path fill="none" stroke="black" d="M109.03,-598.88C144.01,-576.97 217.96,-530.67 258.9,-505.03"/>
<polygon fill="black" stroke="black" points="260.65,-508.06 267.27,-499.79 256.94,-502.13 260.65,-508.06"/>
<polygon fill="none" stroke="black" points="221.68,-553 221.68,-573 363.68,-573 363.68,-553 221.68,-553"/>
<text text-anchor="start" x="224.68" y="-560.2" font-family="Courier New" font-weight="bold" font-size="12.00" fill="blue">C_ACCEPT(0IDC_POLE)</text>
<polygon fill="none" stroke="black" points="221.68,-531 221.68,-551 363.68,-551 363.68,-531 221.68,-531"/>
<text text-anchor="start" x="269.35" y="-537.2" font-family="Times,serif" font-size="12.00" fill="blue">SHOW();</text>
<polygon fill="none" stroke="black" points="218.68,-528 218.68,-576 366.68,-576 366.68,-528 218.68,-528"/>
</g>
<!-- 2&#45;&gt;2 -->
<g id="edge2" class="edge">
<title>2&#45;&gt;2</title>
<path fill="none" stroke="black" d="M310.84,-495.64C322.38,-496.98 332.68,-493.76 332.68,-486 332.68,-480.91 328.25,-477.77 321.94,-476.59"/>
<polygon fill="black" stroke="black" points="322.42,-473.1 312.35,-476.39 322.27,-480.1 322.42,-473.1"/>
<polygon fill="none" stroke="black" points="335.68,-487 335.68,-507 485.68,-507 485.68,-487 335.68,-487"/>
<text text-anchor="start" x="353.07" y="-494.2" font-family="Courier New" font-weight="bold" font-size="12.00" fill="orange">DRAG(0IDD_BUCKE)</text>
<polygon fill="none" stroke="black" points="335.68,-465 335.68,-485 485.68,-485 485.68,-465 335.68,-465"/>
<text text-anchor="start" x="338.68" y="-471.2" font-family="Times,serif" font-size="12.00" fill="blue">HANDOFF(0,IDD_BUCKF);</text>
<polygon fill="none" stroke="black" points="332.68,-462 332.68,-510 488.68,-510 488.68,-462 332.68,-462"/>
</g>
<!-- 3 -->
<g id="node3" class="node">
<title>3</title>
<ellipse fill="none" stroke="black" cx="430.68" cy="-386" rx="27" ry="18"/>
<text text-anchor="middle" x="430.68" y="-381.8" font-family="Times,serif" font-size="14.00">3</text>
</g>
<!-- 2&#45;&gt;3 -->
<g id="edge3" class="edge">
<title>2&#45;&gt;3</title>
<path fill="none" stroke="black" d="M306.09,-472.39C330.65,-455.56 374.36,-425.6 402.93,-406.02"/>
<polygon fill="black" stroke="black" points="404.83,-408.96 411.1,-400.42 400.88,-403.18 404.83,-408.96"/>
<text text-anchor="start" x="380.18" y="-430.2" font-family="Courier New" font-weight="bold" font-size="12.00" fill="orange">DROP(00)</text>
</g>
<!-- 6 -->
<g id="node4" class="node">
<title>6</title>
<ellipse fill="none" stroke="black" cx="122.68" cy="-216.5" rx="27" ry="18"/>
<text text-anchor="middle" x="122.68" y="-212.3" font-family="Times,serif" font-size="14.00">6</text>
</g>
<!-- 3&#45;&gt;6 -->
<g id="edge4" class="edge">
<title>3&#45;&gt;6</title>
<path fill="none" stroke="black" d="M403.65,-383.66C334.67,-379.97 156.28,-368.71 137.68,-350 110.74,-322.89 112.31,-275.65 116.82,-245.51"/>
<polygon fill="black" stroke="black" points="120.21,-246.44 118.46,-235.99 113.31,-245.25 120.21,-246.44"/>
<polygon fill="none" stroke="black" points="141.18,-319.5 141.18,-339.5 420.18,-339.5 420.18,-319.5 141.18,-319.5"/>
<text text-anchor="start" x="183.47" y="-326.7" font-family="Courier New" font-weight="bold" font-size="12.00" fill="blue">IS_A(WOBJECTISA_BAITEDPOLE)</text>
<polygon fill="none" stroke="black" points="141.18,-283.5 141.18,-317.5 420.18,-317.5 420.18,-283.5 141.18,-283.5"/>
<text text-anchor="start" x="144.18" y="-303.7" font-family="Times,serif" font-size="12.00" fill="blue"> &#160;&#160;&#160;SHOW(0,IDS_POLE1LCL);</text>
<text text-anchor="start" x="144.18" y="-289.3" font-family="Times,serif" font-size="12.00" fill="blue"> &#160;&#160;&#160;RAND(ADD_CATCH_TIME,MIN_CATCH_TIME);</text>
<polygon fill="none" stroke="black" points="137.68,-280.5 137.68,-342.5 422.68,-342.5 422.68,-280.5 137.68,-280.5"/>
</g>
<!-- 4 -->
<g id="node5" class="node">
<title>4</title>
<ellipse fill="none" stroke="black" cx="430.68" cy="-216.5" rx="27" ry="18"/>
<text text-anchor="middle" x="430.68" y="-212.3" font-family="Times,serif" font-size="14.00">4</text>
</g>
<!-- 3&#45;&gt;4 -->
<g id="edge5" class="edge">
<title>3&#45;&gt;4</title>
<path fill="none" stroke="black" d="M457.64,-383.09C498.8,-379.54 574.28,-370.38 590.68,-350 612.14,-323.34 610.53,-300.88 590.68,-273 563.26,-234.47 507.13,-222.44 469.19,-218.83"/>
<polygon fill="black" stroke="black" points="469.81,-215.37 459.56,-218.08 469.26,-222.35 469.81,-215.37"/>
<polygon fill="none" stroke="black" points="608.68,-326.5 608.68,-346.5 768.68,-346.5 768.68,-326.5 608.68,-326.5"/>
<text text-anchor="start" x="641.88" y="-333.7" font-family="Courier New" font-weight="bold" font-size="12.00" fill="blue">Z_EPSILON(00)</text>
<polygon fill="none" stroke="black" points="608.68,-275.5 608.68,-324.5 768.68,-324.5 768.68,-275.5 608.68,-275.5"/>
<text text-anchor="start" x="611.68" y="-310.7" font-family="Times,serif" font-size="12.00" fill="blue"> &#160;&#160;SHOW(0,IDS_POLE1LCU);</text>
<text text-anchor="start" x="611.68" y="-296.3" font-family="Times,serif" font-size="12.00" fill="blue"> &#160;&#160;&#160;MOV(WPARM,WOBJECT);</text>
<text text-anchor="start" x="611.68" y="-281.9" font-family="Times,serif" font-size="12.00" fill="blue"> &#160;&#160;&#160;C_ACCEPT(0,ISA_BAIT);</text>
<polygon fill="none" stroke="black" points="605.68,-273 605.68,-350 771.68,-350 771.68,-273 605.68,-273"/>
</g>
<!-- 6&#45;&gt;0 -->
<g id="edge8" class="edge">
<title>6&#45;&gt;0</title>
<path fill="none" stroke="black" d="M108.44,-232.25C98.51,-242.99 85.36,-258.21 75.68,-273 35.33,-334.72 19.34,-350.16 2.68,-422 -12.07,-485.64 37.44,-553.68 67.78,-588.15"/>
<polygon fill="black" stroke="black" points="65.07,-590.37 74.37,-595.44 70.26,-585.67 65.07,-590.37"/>
<text text-anchor="start" x="7.18" y="-430.2" font-family="Courier New" font-weight="bold" font-size="12.00" fill="orange">GRAB(00)</text>
</g>
<!-- 7 -->
<g id="node6" class="node">
<title>7</title>
<ellipse fill="none" stroke="black" cx="458.68" cy="-18" rx="27" ry="18"/>
<text text-anchor="middle" x="458.68" y="-13.8" font-family="Times,serif" font-size="14.00">7</text>
</g>
<!-- 6&#45;&gt;7 -->
<g id="edge9" class="edge">
<title>6&#45;&gt;7</title>
<path fill="none" stroke="black" d="M142.2,-204.09C198.55,-171.13 361.78,-75.67 429.11,-36.3"/>
<polygon fill="black" stroke="black" points="430.52,-39.53 437.38,-31.46 426.98,-33.48 430.52,-39.53"/>
<polygon fill="none" stroke="black" points="397.18,-137 397.18,-157 590.18,-157 590.18,-137 397.18,-137"/>
<text text-anchor="start" x="400.18" y="-144.2" font-family="Courier New" font-weight="bold" font-size="12.00" fill="blue">SYNCPOINT(WRANDSYNC_FISH1)</text>
<polygon fill="none" stroke="black" points="397.18,-57 397.18,-135 590.18,-135 590.18,-57 397.18,-57"/>
<text text-anchor="start" x="405.36" y="-121.2" font-family="Times,serif" font-size="12.00" fill="blue"> &#160;&#160;PLAYWAVE(0,SOUND_HURT);</text>
<text text-anchor="start" x="405.36" y="-106.8" font-family="Times,serif" font-size="12.00" fill="blue"> &#160;&#160;&#160;MOV(WPARM,WOBJECT);</text>
<text text-anchor="start" x="405.36" y="-92.4" font-family="Times,serif" font-size="12.00" fill="blue"> &#160;&#160;&#160;RAND(9,IDD_FISH1); </text>
<text text-anchor="start" x="405.36" y="-78" font-family="Times,serif" font-size="12.00" fill="blue"> &#160;&#160;&#160;MOV(WOBJECT,WRAND);</text>
<text text-anchor="start" x="405.36" y="-63.6" font-family="Times,serif" font-size="12.00" fill="blue"> &#160;&#160;&#160;SHOW(0,IDS_POLE1LCT);</text>
<polygon fill="none" stroke="black" points="393.68,-54 393.68,-160 592.68,-160 592.68,-54 393.68,-54"/>
</g>
<!-- 4&#45;&gt;0 -->
<g id="edge7" class="edge">
<title>4&#45;&gt;0</title>
<path fill="none" stroke="black" d="M404.01,-220.23C330.71,-228.01 130.32,-251.08 110.68,-273 70.27,-318.11 81.3,-509.54 87.15,-582.55"/>
<polygon fill="black" stroke="black" points="83.63,-582.41 87.95,-592.09 90.6,-581.83 83.63,-582.41"/>
<text text-anchor="start" x="86.18" y="-430.2" font-family="Courier New" font-weight="bold" font-size="12.00" fill="orange">GRAB(00)</text>
</g>
<!-- 4&#45;&gt;3 -->
<g id="edge6" class="edge">
<title>4&#45;&gt;3</title>
<path fill="none" stroke="black" d="M429.53,-234.49C428.84,-245.47 428.03,-260.07 427.68,-273 426.76,-307.21 426.22,-315.81 427.68,-350 427.77,-352.06 427.89,-354.18 428.03,-356.32"/>
<polygon fill="black" stroke="black" points="424.52,-356.36 428.78,-366.06 431.5,-355.82 424.52,-356.36"/>
<polygon fill="none" stroke="black" points="431.18,-319.5 431.18,-339.5 584.18,-339.5 584.18,-319.5 431.18,-319.5"/>
<text text-anchor="start" x="478.88" y="-326.7" font-family="Courier New" font-weight="bold" font-size="12.00" fill="orange">DROP(00)</text>
<polygon fill="none" stroke="black" points="431.18,-283.5 431.18,-317.5 584.18,-317.5 584.18,-283.5 431.18,-283.5"/>
<text text-anchor="start" x="434.18" y="-303.7" font-family="Times,serif" font-size="12.00" fill="blue"> &#160;&#160;MIX(WPARM,WOBJECT);</text>
<text text-anchor="start" x="434.18" y="-289.3" font-family="Times,serif" font-size="12.00" fill="blue"> &#160;&#160;&#160;SHOW(0,IDS_POLE1B);</text>
<polygon fill="none" stroke="black" points="427.68,-280.5 427.68,-342.5 586.68,-342.5 586.68,-280.5 427.68,-280.5"/>
</g>
<!-- 7&#45;&gt;3 -->
<g id="edge10" class="edge">
<title>7&#45;&gt;3</title>
<path fill="none" stroke="black" d="M485.83,-20.85C515.19,-23.94 562.39,-32.16 596.68,-54 729.96,-138.86 882.83,-231.43 775.68,-350 755.44,-372.4 555.15,-381.18 469.36,-383.94"/>
<polygon fill="black" stroke="black" points="469.45,-380.43 459.56,-384.24 469.66,-387.43 469.45,-380.43"/>
<polygon fill="none" stroke="black" points="812.68,-231.5 812.68,-251.5 972.68,-251.5 972.68,-231.5 812.68,-231.5"/>
<text text-anchor="start" x="863.88" y="-238.7" font-family="Courier New" font-weight="bold" font-size="12.00" fill="orange">GRAB(00)</text>
<polygon fill="none" stroke="black" points="812.68,-180.5 812.68,-229.5 972.68,-229.5 972.68,-180.5 812.68,-180.5"/>
<text text-anchor="start" x="815.68" y="-215.7" font-family="Times,serif" font-size="12.00" fill="blue"> &#160;&#160;&#160;MOV(WOBJECT,WPARM);</text>
<text text-anchor="start" x="815.68" y="-201.3" font-family="Times,serif" font-size="12.00" fill="blue"> &#160;&#160;&#160;XIM(WOBJECT,WPARM);</text>
<text text-anchor="start" x="815.68" y="-186.9" font-family="Times,serif" font-size="12.00" fill="blue"> &#160;&#160;&#160;SHOW(WOBJECT);</text>
<polygon fill="none" stroke="black" points="809.68,-178 809.68,-255 975.68,-255 975.68,-178 809.68,-178"/>
</g>
</g>
</svg>
