<?xml version="1.0" encoding="UTF-8" standalone="no"?>
<!DOCTYPE svg PUBLIC "-//W3C//DTD SVG 1.1//EN"
 "http://www.w3.org/Graphics/SVG/1.1/DTD/svg11.dtd">
<!-- Generated by graphviz version 7.1.0 (20230121.1956)
 -->
<!-- Pages: 1 -->
<svg width="990pt" height="638pt"
 viewBox="0.00 0.00 989.97 638.00" xmlns="http://www.w3.org/2000/svg" xmlns:xlink="http://www.w3.org/1999/xlink">
<g id="graph0" class="graph" transform="scale(1 1) rotate(0) translate(4 634)">
<polygon fill="white" stroke="none" points="-4,4 -4,-634 985.97,-634 985.97,4 -4,4"/>
<!-- 0 -->
<g id="node1" class="node">
<title>0</title>
<ellipse fill="none" stroke="black" cx="96.97" cy="-612" rx="27" ry="18"/>
<text text-anchor="middle" x="96.97" y="-607.8" font-family="Times,serif" font-size="14.00">0</text>
</g>
<!-- 2 -->
<g id="node2" class="node">
<title>2</title>
<ellipse fill="none" stroke="black" cx="294.97" cy="-486" rx="27" ry="18"/>
<text text-anchor="middle" x="294.97" y="-481.8" font-family="Times,serif" font-size="14.00">2</text>
</g>
<!-- 0&#45;&gt;2 -->
<g id="edge1" class="edge">
<title>0&#45;&gt;2</title>
<path fill="none" stroke="black" d="M116.31,-598.88C151.3,-576.97 225.25,-530.67 266.18,-505.03"/>
<polygon fill="black" stroke="black" points="267.94,-508.06 274.55,-499.79 264.22,-502.13 267.94,-508.06"/>
<polygon fill="none" stroke="black" points="228.97,-553 228.97,-573 378.97,-573 378.97,-553 228.97,-553"/>
<text text-anchor="start" x="231.97" y="-560.2" font-family="Courier New" font-weight="bold" font-size="12.00" fill="blue">C_ACCEPT(0,IDC_POLE)</text>
<polygon fill="none" stroke="black" points="228.97,-531 228.97,-551 378.97,-551 378.97,-531 228.97,-531"/>
<text text-anchor="start" x="280.64" y="-537.2" font-family="Times,serif" font-size="12.00" fill="blue">SHOW();</text>
<polygon fill="none" stroke="black" points="225.97,-528 225.97,-576 381.97,-576 381.97,-528 225.97,-528"/>
</g>
<!-- 2&#45;&gt;2 -->
<g id="edge2" class="edge">
<title>2&#45;&gt;2</title>
<path fill="none" stroke="black" d="M318.12,-495.64C329.67,-496.98 339.97,-493.76 339.97,-486 339.97,-480.91 335.53,-477.77 329.22,-476.59"/>
<polygon fill="black" stroke="black" points="329.71,-473.1 319.64,-476.39 329.56,-480.1 329.71,-473.1"/>
<polygon fill="none" stroke="black" points="342.97,-487 342.97,-507 492.97,-507 492.97,-487 342.97,-487"/>
<text text-anchor="start" x="356.76" y="-494.2" font-family="Courier New" font-weight="bold" font-size="12.00" fill="orange">DRAG(0,IDD_BUCKE)</text>
<polygon fill="none" stroke="black" points="342.97,-465 342.97,-485 492.97,-485 492.97,-465 342.97,-465"/>
<text text-anchor="start" x="345.97" y="-471.2" font-family="Times,serif" font-size="12.00" fill="blue">HANDOFF(0,IDD_BUCKF);</text>
<polygon fill="none" stroke="black" points="339.97,-462 339.97,-510 495.97,-510 495.97,-462 339.97,-462"/>
</g>
<!-- 3 -->
<g id="node3" class="node">
<title>3</title>
<ellipse fill="none" stroke="black" cx="437.97" cy="-386" rx="27" ry="18"/>
<text text-anchor="middle" x="437.97" y="-381.8" font-family="Times,serif" font-size="14.00">3</text>
</g>
<!-- 2&#45;&gt;3 -->
<g id="edge3" class="edge">
<title>2&#45;&gt;3</title>
<path fill="none" stroke="black" d="M313.37,-472.39C337.93,-455.56 381.65,-425.6 410.22,-406.02"/>
<polygon fill="black" stroke="black" points="412.12,-408.96 418.39,-400.42 408.16,-403.18 412.12,-408.96"/>
<text text-anchor="start" x="386.97" y="-430.2" font-family="Courier New" font-weight="bold" font-size="12.00" fill="orange">DROP(0,0)</text>
</g>
<!-- 6 -->
<g id="node4" class="node">
<title>6</title>
<ellipse fill="none" stroke="black" cx="129.97" cy="-216.5" rx="27" ry="18"/>
<text text-anchor="middle" x="129.97" y="-212.3" font-family="Times,serif" font-size="14.00">6</text>
</g>
<!-- 3&#45;&gt;6 -->
<g id="edge4" class="edge">
<title>3&#45;&gt;6</title>
<path fill="none" stroke="black" d="M410.93,-383.66C341.96,-379.97 163.57,-368.71 144.97,-350 118.03,-322.89 119.6,-275.65 124.11,-245.51"/>
<polygon fill="black" stroke="black" points="127.5,-246.44 125.74,-235.99 120.6,-245.25 127.5,-246.44"/>
<polygon fill="none" stroke="black" points="148.47,-319.5 148.47,-339.5 427.47,-339.5 427.47,-319.5 148.47,-319.5"/>
<text text-anchor="start" x="187.15" y="-326.7" font-family="Courier New" font-weight="bold" font-size="12.00" fill="blue">IS_A(WOBJECT,ISA_BAITEDPOLE)</text>
<polygon fill="none" stroke="black" points="148.47,-283.5 148.47,-317.5 427.47,-317.5 427.47,-283.5 148.47,-283.5"/>
<text text-anchor="start" x="151.47" y="-303.7" font-family="Times,serif" font-size="12.00" fill="blue"> &#160;&#160;&#160;SHOW(0,IDS_POLE1LCL);</text>
<text text-anchor="start" x="151.47" y="-289.3" font-family="Times,serif" font-size="12.00" fill="blue"> &#160;&#160;&#160;RAND(ADD_CATCH_TIME,MIN_CATCH_TIME);</text>
<polygon fill="none" stroke="black" points="144.97,-280.5 144.97,-342.5 429.97,-342.5 429.97,-280.5 144.97,-280.5"/>
</g>
<!-- 4 -->
<g id="node5" class="node">
<title>4</title>
<ellipse fill="none" stroke="black" cx="437.97" cy="-216.5" rx="27" ry="18"/>
<text text-anchor="middle" x="437.97" y="-212.3" font-family="Times,serif" font-size="14.00">4</text>
</g>
<!-- 3&#45;&gt;4 -->
<g id="edge5" class="edge">
<title>3&#45;&gt;4</title>
<path fill="none" stroke="black" d="M464.93,-383.09C506.09,-379.54 581.57,-370.38 597.97,-350 619.43,-323.34 617.81,-300.88 597.97,-273 570.55,-234.47 514.41,-222.44 476.48,-218.83"/>
<polygon fill="black" stroke="black" points="477.09,-215.37 466.85,-218.08 476.55,-222.35 477.09,-215.37"/>
<polygon fill="none" stroke="black" points="615.97,-326.5 615.97,-346.5 775.97,-346.5 775.97,-326.5 615.97,-326.5"/>
<text text-anchor="start" x="645.56" y="-333.7" font-family="Courier New" font-weight="bold" font-size="12.00" fill="blue">Z_EPSILON(0,0)</text>
<polygon fill="none" stroke="black" points="615.97,-275.5 615.97,-324.5 775.97,-324.5 775.97,-275.5 615.97,-275.5"/>
<text text-anchor="start" x="618.97" y="-310.7" font-family="Times,serif" font-size="12.00" fill="blue"> &#160;&#160;SHOW(0,IDS_POLE1LCU);</text>
<text text-anchor="start" x="618.97" y="-296.3" font-family="Times,serif" font-size="12.00" fill="blue"> &#160;&#160;&#160;MOV(WPARM,WOBJECT);</text>
<text text-anchor="start" x="618.97" y="-281.9" font-family="Times,serif" font-size="12.00" fill="blue"> &#160;&#160;&#160;C_ACCEPT(0,ISA_BAIT);</text>
<polygon fill="none" stroke="black" points="612.97,-273 612.97,-350 778.97,-350 778.97,-273 612.97,-273"/>
</g>
<!-- 6&#45;&gt;0 -->
<g id="edge8" class="edge">
<title>6&#45;&gt;0</title>
<path fill="none" stroke="black" d="M116.04,-232.36C87.43,-264.1 23.05,-342.15 2.97,-422 -13.34,-486.87 41.39,-555.32 74.16,-589.26"/>
<polygon fill="black" stroke="black" points="71.36,-591.42 80.89,-596.05 76.33,-586.49 71.36,-591.42"/>
<text text-anchor="start" x="6.97" y="-430.2" font-family="Courier New" font-weight="bold" font-size="12.00" fill="orange">GRAB(0,0)</text>
</g>
<!-- 7 -->
<g id="node6" class="node">
<title>7</title>
<ellipse fill="none" stroke="black" cx="464.97" cy="-18" rx="27" ry="18"/>
<text text-anchor="middle" x="464.97" y="-13.8" font-family="Times,serif" font-size="14.00">7</text>
</g>
<!-- 6&#45;&gt;7 -->
<g id="edge9" class="edge">
<title>6&#45;&gt;7</title>
<path fill="none" stroke="black" d="M149.92,-203.8C206.48,-170.62 368.08,-75.83 435.19,-36.47"/>
<polygon fill="black" stroke="black" points="436.96,-39.49 443.82,-31.41 433.42,-33.45 436.96,-39.49"/>
<polygon fill="none" stroke="black" points="402.97,-137 402.97,-157 602.97,-157 602.97,-137 402.97,-137"/>
<text text-anchor="start" x="405.97" y="-144.2" font-family="Courier New" font-weight="bold" font-size="12.00" fill="blue">SYNCPOINT(WRAND,SYNC_FISH1)</text>
<polygon fill="none" stroke="black" points="402.97,-57 402.97,-135 602.97,-135 602.97,-57 402.97,-57"/>
<text text-anchor="start" x="414.64" y="-121.2" font-family="Times,serif" font-size="12.00" fill="blue"> &#160;&#160;PLAYWAVE(0,SOUND_HURT);</text>
<text text-anchor="start" x="414.64" y="-106.8" font-family="Times,serif" font-size="12.00" fill="blue"> &#160;&#160;&#160;MOV(WPARM,WOBJECT);</text>
<text text-anchor="start" x="414.64" y="-92.4" font-family="Times,serif" font-size="12.00" fill="blue"> &#160;&#160;&#160;RAND(9,IDD_FISH1); </text>
<text text-anchor="start" x="414.64" y="-78" font-family="Times,serif" font-size="12.00" fill="blue"> &#160;&#160;&#160;MOV(WOBJECT,WRAND);</text>
<text text-anchor="start" x="414.64" y="-63.6" font-family="Times,serif" font-size="12.00" fill="blue"> &#160;&#160;&#160;SHOW(0,IDS_POLE1LCT);</text>
<polygon fill="none" stroke="black" points="399.97,-54 399.97,-160 605.97,-160 605.97,-54 399.97,-54"/>
</g>
<!-- 4&#45;&gt;0 -->
<g id="edge7" class="edge">
<title>4&#45;&gt;0</title>
<path fill="none" stroke="black" d="M411.3,-220.23C337.99,-228.01 137.6,-251.08 117.97,-273 77.55,-318.11 88.59,-509.54 94.44,-582.55"/>
<polygon fill="black" stroke="black" points="90.91,-582.41 95.23,-592.09 97.89,-581.83 90.91,-582.41"/>
<text text-anchor="start" x="92.97" y="-430.2" font-family="Courier New" font-weight="bold" font-size="12.00" fill="orange">GRAB(0,0)</text>
</g>
<!-- 4&#45;&gt;3 -->
<g id="edge6" class="edge">
<title>4&#45;&gt;3</title>
<path fill="none" stroke="black" d="M436.81,-234.49C436.12,-245.47 435.32,-260.07 434.97,-273 434.05,-307.21 433.51,-315.81 434.97,-350 435.06,-352.06 435.17,-354.18 435.31,-356.32"/>
<polygon fill="black" stroke="black" points="431.8,-356.36 436.06,-366.06 438.78,-355.82 431.8,-356.36"/>
<polygon fill="none" stroke="black" points="438.47,-319.5 438.47,-339.5 591.47,-339.5 591.47,-319.5 438.47,-319.5"/>
<text text-anchor="start" x="482.56" y="-326.7" font-family="Courier New" font-weight="bold" font-size="12.00" fill="orange">DROP(0,0)</text>
<polygon fill="none" stroke="black" points="438.47,-283.5 438.47,-317.5 591.47,-317.5 591.47,-283.5 438.47,-283.5"/>
<text text-anchor="start" x="441.47" y="-303.7" font-family="Times,serif" font-size="12.00" fill="blue"> &#160;&#160;MIX(WPARM,WOBJECT);</text>
<text text-anchor="start" x="441.47" y="-289.3" font-family="Times,serif" font-size="12.00" fill="blue"> &#160;&#160;&#160;SHOW(0,IDS_POLE1B);</text>
<polygon fill="none" stroke="black" points="434.97,-280.5 434.97,-342.5 593.97,-342.5 593.97,-280.5 434.97,-280.5"/>
</g>
<!-- 7&#45;&gt;3 -->
<g id="edge10" class="edge">
<title>7&#45;&gt;3</title>
<path fill="none" stroke="black" d="M492.15,-20.29C522.94,-22.89 573.55,-30.68 609.97,-54 738.27,-136.15 887.86,-233.93 782.97,-350 762.73,-372.4 562.44,-381.18 476.65,-383.94"/>
<polygon fill="black" stroke="black" points="476.73,-380.43 466.84,-384.24 476.95,-387.43 476.73,-380.43"/>
<polygon fill="none" stroke="black" points="818.97,-231.5 818.97,-251.5 978.97,-251.5 978.97,-231.5 818.97,-231.5"/>
<text text-anchor="start" x="866.56" y="-238.7" font-family="Courier New" font-weight="bold" font-size="12.00" fill="orange">GRAB(0,0)</text>
<polygon fill="none" stroke="black" points="818.97,-180.5 818.97,-229.5 978.97,-229.5 978.97,-180.5 818.97,-180.5"/>
<text text-anchor="start" x="821.97" y="-215.7" font-family="Times,serif" font-size="12.00" fill="blue"> &#160;&#160;&#160;MOV(WOBJECT,WPARM);</text>
<text text-anchor="start" x="821.97" y="-201.3" font-family="Times,serif" font-size="12.00" fill="blue"> &#160;&#160;&#160;XIM(WOBJECT,WPARM);</text>
<text text-anchor="start" x="821.97" y="-186.9" font-family="Times,serif" font-size="12.00" fill="blue"> &#160;&#160;&#160;SHOW(WOBJECT);</text>
<polygon fill="none" stroke="black" points="815.97,-178 815.97,-255 981.97,-255 981.97,-178 815.97,-178"/>
</g>
</g>
</svg>
