<?xml version="1.0" encoding="UTF-8" standalone="no"?>
<!DOCTYPE svg PUBLIC "-//W3C//DTD SVG 1.1//EN"
 "http://www.w3.org/Graphics/SVG/1.1/DTD/svg11.dtd">
<!-- Generated by graphviz version 7.1.0 (20230121.1956)
 -->
<!-- Pages: 1 -->
<svg width="577pt" height="280pt"
 viewBox="0.00 0.00 577.42 280.00" xmlns="http://www.w3.org/2000/svg" xmlns:xlink="http://www.w3.org/1999/xlink">
<g id="graph0" class="graph" transform="scale(1 1) rotate(0) translate(4 276)">
<polygon fill="white" stroke="none" points="-4,4 -4,-276 573.42,-276 573.42,4 -4,4"/>
<!-- 0 -->
<g id="node1" class="node">
<title>0</title>
<ellipse fill="none" stroke="black" cx="58.42" cy="-254" rx="27" ry="18"/>
<text text-anchor="middle" x="58.42" y="-249.8" font-family="Times,serif" font-size="14.00">0</text>
</g>
<!-- 1 -->
<g id="node2" class="node">
<title>1</title>
<ellipse fill="none" stroke="black" cx="58.42" cy="-131" rx="27" ry="18"/>
<text text-anchor="middle" x="58.42" y="-126.8" font-family="Times,serif" font-size="14.00">1</text>
</g>
<!-- 0&#45;&gt;1 -->
<g id="edge1" class="edge">
<title>0&#45;&gt;1</title>
<path fill="none" stroke="black" d="M58.42,-235.66C58.42,-216.08 58.42,-183.89 58.42,-160.58"/>
<polygon fill="black" stroke="black" points="61.92,-160.82 58.42,-150.82 54.92,-160.82 61.92,-160.82"/>
<polygon fill="none" stroke="black" points="61.92,-196.5 61.92,-214.5 190.92,-214.5 190.92,-196.5 61.92,-196.5"/>
<text text-anchor="start" x="93.42" y="-203.5" font-family="Courier New" font-weight="bold" font-size="10.00" fill="blue">Z_EPSILON()</text>
<polygon fill="none" stroke="black" points="61.92,-169.5 61.92,-194.5 190.92,-194.5 190.92,-169.5 61.92,-169.5"/>
<text text-anchor="start" x="64.92" y="-184.3" font-family="Times,serif" font-size="8.00" fill="blue">MOV(WSPRITE,WIP1);</text>
<text text-anchor="start" x="64.92" y="-174.7" font-family="Times,serif" font-size="8.00" fill="blue"> &#160;&#160;&#160;&#160;&#160;&#160;&#160;&#160;ASHOW(WSPRITE, V_LOOP);</text>
<polygon fill="none" stroke="black" points="58.42,-167 58.42,-218 193.42,-218 193.42,-167 58.42,-167"/>
</g>
<!-- 2 -->
<g id="node3" class="node">
<title>2</title>
<ellipse fill="none" stroke="black" cx="58.42" cy="-18" rx="27" ry="18"/>
<text text-anchor="middle" x="58.42" y="-13.8" font-family="Times,serif" font-size="14.00">2</text>
</g>
<!-- 1&#45;&gt;2 -->
<g id="edge2" class="edge">
<title>1&#45;&gt;2</title>
<path fill="none" stroke="black" d="M35.72,-120.9C24.76,-115.22 12.66,-106.72 6.42,-95 -2.14,-78.91 -2.14,-70.09 6.42,-54 10.81,-45.76 18.09,-39.11 25.84,-33.91"/>
<polygon fill="black" stroke="black" points="27.58,-36.96 34.42,-28.86 24.03,-30.92 27.58,-36.96"/>
<polygon fill="none" stroke="black" points="9.92,-73.5 9.92,-91.5 86.92,-91.5 86.92,-73.5 9.92,-73.5"/>
<text text-anchor="start" x="18.42" y="-80.5" font-family="Courier New" font-weight="bold" font-size="10.00" fill="orange">GRAB(WIP2)</text>
<polygon fill="none" stroke="black" points="9.92,-56.5 9.92,-71.5 86.92,-71.5 86.92,-56.5 9.92,-56.5"/>
<text text-anchor="start" x="12.92" y="-61.3" font-family="Times,serif" font-size="8.00" fill="blue">PLAYWAVE(WIP4);</text>
<polygon fill="none" stroke="black" points="6.42,-54 6.42,-95 89.42,-95 89.42,-54 6.42,-54"/>
</g>
<!-- 2&#45;&gt;1 -->
<g id="edge3" class="edge">
<title>2&#45;&gt;1</title>
<path fill="none" stroke="black" d="M74.74,-32.68C80.53,-38.57 86.37,-45.95 89.42,-54 95.88,-71.04 95.88,-77.96 89.42,-95 87.71,-99.53 85.11,-103.84 82.13,-107.8"/>
<polygon fill="black" stroke="black" points="79.64,-105.33 75.73,-115.18 84.93,-109.92 79.64,-105.33"/>
<polygon fill="none" stroke="black" points="96.42,-73.5 96.42,-91.5 566.42,-91.5 566.42,-73.5 96.42,-73.5"/>
<text text-anchor="start" x="298.42" y="-80.5" font-family="Courier New" font-weight="bold" font-size="10.00" fill="blue">Z_EPSILON()</text>
<polygon fill="none" stroke="black" points="96.42,-56.5 96.42,-71.5 566.42,-71.5 566.42,-56.5 96.42,-56.5"/>
<text text-anchor="start" x="99.42" y="-61.3" font-family="Times,serif" font-size="8.00" fill="blue">if ((20==MAPi(WOBJECT,TEMPLATE_OBJECTS)) &amp;&amp; (WOBJECT==IDD_BAIT3)) \{ PLAYWAVE(WIP4); WOBJECT=WOBJECT+1;\}</text>
<polygon fill="none" stroke="black" points="93.42,-54 93.42,-95 569.42,-95 569.42,-54 93.42,-54"/>
</g>
</g>
</svg>
