<?xml version="1.0" encoding="UTF-8" standalone="no"?>
<!DOCTYPE svg PUBLIC "-//W3C//DTD SVG 1.1//EN"
 "http://www.w3.org/Graphics/SVG/1.1/DTD/svg11.dtd">
<!-- Generated by graphviz version 7.1.0 (20230121.1956)
 -->
<!-- Pages: 1 -->
<svg width="1702pt" height="494pt"
 viewBox="0.00 0.00 1701.52 494.00" xmlns="http://www.w3.org/2000/svg" xmlns:xlink="http://www.w3.org/1999/xlink">
<g id="graph0" class="graph" transform="scale(1 1) rotate(0) translate(4 490)">
<polygon fill="white" stroke="none" points="-4,4 -4,-490 1697.52,-490 1697.52,4 -4,4"/>
<!-- M_GOPABIN_0 -->
<g id="node1" class="node">
<title>M_GOPABIN_0</title>
<polygon fill="none" stroke="black" points="983.16,-449.5 983.16,-485.5 1094.84,-485.5 1094.84,-449.5 983.16,-449.5"/>
<text text-anchor="middle" x="1039" y="-463.3" font-family="Times,serif" font-size="14.00">M_GOPABIN_0</text>
</g>
<!-- M_GOPABIN_1 -->
<g id="node2" class="node">
<title>M_GOPABIN_1</title>
<polygon fill="none" stroke="black" points="482.16,-359.7 482.16,-395.7 593.84,-395.7 593.84,-359.7 482.16,-359.7"/>
<text text-anchor="middle" x="538" y="-373.5" font-family="Times,serif" font-size="14.00">M_GOPABIN_1</text>
</g>
<!-- M_GOPABIN_0&#45;&gt;M_GOPABIN_1 -->
<g id="edge1" class="edge">
<title>M_GOPABIN_0&#45;&gt;M_GOPABIN_1</title>
<path fill="none" stroke="green" d="M983.47,-456.77C890.74,-440.52 704.73,-407.92 604.92,-390.43"/>
<polygon fill="green" stroke="green" points="605.72,-387.02 595.27,-388.74 604.52,-393.91 605.72,-387.02"/>
<text text-anchor="start" x="834" y="-419.4" font-family="Times,serif" font-size="14.00" fill="green"> </text>
<text text-anchor="start" x="837.5" y="-419.4" font-family="Courier New" font-size="10.00" fill="green">MOV(BFRAME,WIP3)</text>
</g>
<!-- M_GOPABIN_2 -->
<g id="node3" class="node">
<title>M_GOPABIN_2</title>
<polygon fill="none" stroke="black" points="802.16,-269.9 802.16,-305.9 913.84,-305.9 913.84,-269.9 802.16,-269.9"/>
<text text-anchor="middle" x="858" y="-283.7" font-family="Times,serif" font-size="14.00">M_GOPABIN_2</text>
</g>
<!-- M_GOPABIN_1&#45;&gt;M_GOPABIN_2 -->
<g id="edge2" class="edge">
<title>M_GOPABIN_1&#45;&gt;M_GOPABIN_2</title>
<path fill="none" stroke="green" d="M593.74,-361.41C648.75,-346.31 732.88,-323.23 791.39,-307.18"/>
<polygon fill="green" stroke="green" points="792.19,-310.59 800.9,-304.57 790.33,-303.84 792.19,-310.59"/>
<text text-anchor="start" x="727" y="-329.6" font-family="Times,serif" font-size="14.00" fill="green"> </text>
<text text-anchor="start" x="730.5" y="-329.6" font-family="Courier New" font-size="10.00" fill="green">SHOW(WIP1,)</text>
</g>
<!-- M_GOPABIN_20 -->
<g id="node4" class="node">
<title>M_GOPABIN_20</title>
<polygon fill="none" stroke="black" points="421.66,-180.1 421.66,-216.1 540.34,-216.1 540.34,-180.1 421.66,-180.1"/>
<text text-anchor="middle" x="481" y="-193.9" font-family="Times,serif" font-size="14.00">M_GOPABIN_20</text>
</g>
<!-- M_GOPABIN_2&#45;&gt;M_GOPABIN_20 -->
<g id="edge3" class="edge">
<title>M_GOPABIN_2&#45;&gt;M_GOPABIN_20</title>
<path fill="none" stroke="red" d="M802.57,-280.86C756.8,-275.22 690.36,-265.53 633.49,-251.4 600.02,-243.08 563.43,-230.65 534.48,-219.99"/>
<polygon fill="red" stroke="red" points="535.79,-216.75 525.2,-216.54 533.35,-223.31 535.79,-216.75"/>
<text text-anchor="start" x="634" y="-239.8" font-family="Times,serif" font-size="14.00" fill="red"> </text>
<text text-anchor="start" x="637.5" y="-239.8" font-family="Courier New" font-size="10.00" fill="red">GRAB(,)</text>
</g>
<!-- M_GOPABIN_3 -->
<g id="node5" class="node">
<title>M_GOPABIN_3</title>
<polygon fill="none" stroke="black" points="906.16,-180.1 906.16,-216.1 1017.84,-216.1 1017.84,-180.1 906.16,-180.1"/>
<text text-anchor="middle" x="962" y="-193.9" font-family="Times,serif" font-size="14.00">M_GOPABIN_3</text>
</g>
<!-- M_GOPABIN_2&#45;&gt;M_GOPABIN_3 -->
<g id="edge4" class="edge">
<title>M_GOPABIN_2&#45;&gt;M_GOPABIN_3</title>
<path fill="none" stroke="red" d="M878.05,-269.97C893.73,-256.73 915.75,-238.15 933.3,-223.33"/>
<polygon fill="red" stroke="red" points="935.47,-226.08 940.85,-216.95 930.95,-220.73 935.47,-226.08"/>
<text text-anchor="start" x="920" y="-239.8" font-family="Times,serif" font-size="14.00" fill="red"> </text>
<text text-anchor="start" x="923.5" y="-239.8" font-family="Courier New" font-size="10.00" fill="red">WAIT(0,SIG_RIPEN)</text>
</g>
<!-- M_GOPABIN_20&#45;&gt;M_GOPABIN_1 -->
<g id="edge19" class="edge">
<title>M_GOPABIN_20&#45;&gt;M_GOPABIN_1</title>
<path fill="none" stroke="green" d="M484.8,-216.02C489.74,-237.33 498.98,-274.96 509.49,-306.4 514.3,-320.8 520.55,-336.48 525.98,-349.37"/>
<polygon fill="green" stroke="green" points="522.73,-350.67 529.88,-358.49 529.17,-347.92 522.73,-350.67"/>
<text text-anchor="start" x="510" y="-284.7" font-family="Times,serif" font-size="14.00" fill="green"> </text>
<text text-anchor="start" x="513.5" y="-284.7" font-family="Courier New" font-size="10.00" fill="green">Z_EPSILON(,)</text>
</g>
<!-- M_GOPABIN_30 -->
<g id="node12" class="node">
<title>M_GOPABIN_30</title>
<polygon fill="none" stroke="black" points="134.66,-90.3 134.66,-126.3 253.34,-126.3 253.34,-90.3 134.66,-90.3"/>
<text text-anchor="middle" x="194" y="-104.1" font-family="Times,serif" font-size="14.00">M_GOPABIN_30</text>
</g>
<!-- M_GOPABIN_20&#45;&gt;M_GOPABIN_30 -->
<g id="edge16" class="edge">
<title>M_GOPABIN_20&#45;&gt;M_GOPABIN_30</title>
<path fill="none" stroke="green" d="M422.11,-196.15C375.58,-193.45 309.97,-185.24 257.48,-161.6 242.9,-155.03 228.92,-144.19 217.81,-134.08"/>
<polygon fill="green" stroke="green" points="220.31,-131.63 210.65,-127.27 215.48,-136.7 220.31,-131.63"/>
<text text-anchor="start" x="258" y="-150" font-family="Times,serif" font-size="14.00" fill="green"> </text>
<text text-anchor="start" x="261.5" y="-150" font-family="Courier New" font-size="10.00" fill="green">EQUALi(BFRAME,0)</text>
</g>
<!-- M_GOPABIN_40 -->
<g id="node13" class="node">
<title>M_GOPABIN_40</title>
<polygon fill="none" stroke="black" points="277.66,-90.3 277.66,-126.3 396.34,-126.3 396.34,-90.3 277.66,-90.3"/>
<text text-anchor="middle" x="337" y="-104.1" font-family="Times,serif" font-size="14.00">M_GOPABIN_40</text>
</g>
<!-- M_GOPABIN_20&#45;&gt;M_GOPABIN_40 -->
<g id="edge17" class="edge">
<title>M_GOPABIN_20&#45;&gt;M_GOPABIN_40</title>
<path fill="none" stroke="green" d="M421.72,-183.32C406.44,-178.07 390.62,-171 377.48,-161.6 367.78,-154.66 359.29,-144.73 352.62,-135.39"/>
<polygon fill="green" stroke="green" points="355.66,-133.65 347.19,-127.28 349.84,-137.54 355.66,-133.65"/>
<text text-anchor="start" x="378" y="-150" font-family="Times,serif" font-size="14.00" fill="green"> </text>
<text text-anchor="start" x="381.5" y="-150" font-family="Courier New" font-size="10.00" fill="green">EQUALi(BFRAME,1)</text>
</g>
<!-- M_GOPABIN_50 -->
<g id="node14" class="node">
<title>M_GOPABIN_50</title>
<polygon fill="none" stroke="black" points="421.66,-90.3 421.66,-126.3 540.34,-126.3 540.34,-90.3 421.66,-90.3"/>
<text text-anchor="middle" x="481" y="-104.1" font-family="Times,serif" font-size="14.00">M_GOPABIN_50</text>
</g>
<!-- M_GOPABIN_20&#45;&gt;M_GOPABIN_50 -->
<g id="edge18" class="edge">
<title>M_GOPABIN_20&#45;&gt;M_GOPABIN_50</title>
<path fill="none" stroke="green" d="M481,-180.17C481,-168.02 481,-151.38 481,-137.27"/>
<polygon fill="green" stroke="green" points="484.5,-137.69 481,-127.69 477.5,-137.69 484.5,-137.69"/>
<text text-anchor="start" x="481" y="-150" font-family="Times,serif" font-size="14.00" fill="green"> </text>
<text text-anchor="start" x="484.5" y="-150" font-family="Courier New" font-size="10.00" fill="green">EQUALi(BFRAME,2)</text>
</g>
<!-- M_GOPABIN_4 -->
<g id="node6" class="node">
<title>M_GOPABIN_4</title>
<polygon fill="none" stroke="black" points="928.16,-90.3 928.16,-126.3 1039.84,-126.3 1039.84,-90.3 928.16,-90.3"/>
<text text-anchor="middle" x="984" y="-104.1" font-family="Times,serif" font-size="14.00">M_GOPABIN_4</text>
</g>
<!-- M_GOPABIN_3&#45;&gt;M_GOPABIN_4 -->
<g id="edge5" class="edge">
<title>M_GOPABIN_3&#45;&gt;M_GOPABIN_4</title>
<path fill="none" stroke="green" d="M966.24,-180.17C969.29,-168.02 973.46,-151.38 976.99,-137.27"/>
<polygon fill="green" stroke="green" points="980.37,-138.2 979.4,-127.64 973.58,-136.49 980.37,-138.2"/>
<text text-anchor="start" x="975" y="-150" font-family="Times,serif" font-size="14.00" fill="green"> </text>
<text text-anchor="start" x="978.5" y="-150" font-family="Courier New" font-size="10.00" fill="green">ADDI(BFRAME,1)</text>
</g>
<!-- M_GOPABIN_5 -->
<g id="node7" class="node">
<title>M_GOPABIN_5</title>
<polygon fill="none" stroke="black" points="932.16,-0.5 932.16,-36.5 1043.84,-36.5 1043.84,-0.5 932.16,-0.5"/>
<text text-anchor="middle" x="988" y="-14.3" font-family="Times,serif" font-size="14.00">M_GOPABIN_5</text>
</g>
<!-- M_GOPABIN_4&#45;&gt;M_GOPABIN_5 -->
<g id="edge6" class="edge">
<title>M_GOPABIN_4&#45;&gt;M_GOPABIN_5</title>
<path fill="none" stroke="green" d="M984.77,-90.37C985.32,-78.22 986.08,-61.58 986.73,-47.47"/>
<polygon fill="green" stroke="green" points="990.2,-48.04 987.16,-37.89 983.21,-47.72 990.2,-48.04"/>
<text text-anchor="start" x="987" y="-60.2" font-family="Times,serif" font-size="14.00" fill="green"> </text>
<text text-anchor="start" x="990.5" y="-60.2" font-family="Courier New" font-size="10.00" fill="green">EQUALi(BFRAME,0)</text>
</g>
<!-- M_GOPABIN_6 -->
<g id="node8" class="node">
<title>M_GOPABIN_6</title>
<polygon fill="none" stroke="black" points="1190.16,-0.5 1190.16,-36.5 1301.84,-36.5 1301.84,-0.5 1190.16,-0.5"/>
<text text-anchor="middle" x="1246" y="-14.3" font-family="Times,serif" font-size="14.00">M_GOPABIN_6</text>
</g>
<!-- M_GOPABIN_4&#45;&gt;M_GOPABIN_6 -->
<g id="edge7" class="edge">
<title>M_GOPABIN_4&#45;&gt;M_GOPABIN_6</title>
<path fill="none" stroke="green" d="M1032.6,-90.37C1074.61,-75.75 1129.37,-56.7 1134.48,-55 1149.45,-50.02 1165.6,-44.79 1180.84,-39.93"/>
<polygon fill="green" stroke="green" points="1181.83,-43.28 1190.3,-36.92 1179.71,-36.61 1181.83,-43.28"/>
<text text-anchor="start" x="1135" y="-60.2" font-family="Times,serif" font-size="14.00" fill="green"> </text>
<text text-anchor="start" x="1138.5" y="-60.2" font-family="Courier New" font-size="10.00" fill="green">EQUALi(BFRAME,1)</text>
</g>
<!-- M_GOPABIN_7 -->
<g id="node9" class="node">
<title>M_GOPABIN_7</title>
<polygon fill="none" stroke="black" points="637.16,-0.5 637.16,-36.5 748.84,-36.5 748.84,-0.5 637.16,-0.5"/>
<text text-anchor="middle" x="693" y="-14.3" font-family="Times,serif" font-size="14.00">M_GOPABIN_7</text>
</g>
<!-- M_GOPABIN_4&#45;&gt;M_GOPABIN_7 -->
<g id="edge8" class="edge">
<title>M_GOPABIN_4&#45;&gt;M_GOPABIN_7</title>
<path fill="none" stroke="green" d="M928.59,-106.12C882.02,-103.37 814.57,-95.21 760.48,-71.8 745.09,-65.14 730.12,-54.15 718.21,-43.96"/>
<polygon fill="green" stroke="green" points="720.66,-41.45 710.87,-37.41 716,-46.68 720.66,-41.45"/>
<text text-anchor="start" x="761" y="-60.2" font-family="Times,serif" font-size="14.00" fill="green"> </text>
<text text-anchor="start" x="764.5" y="-60.2" font-family="Courier New" font-size="10.00" fill="green">EQUALi(BFRAME,2)</text>
</g>
<!-- M_GOPABIN_8 -->
<g id="node10" class="node">
<title>M_GOPABIN_8</title>
<polygon fill="none" stroke="black" points="780.16,-0.5 780.16,-36.5 891.84,-36.5 891.84,-0.5 780.16,-0.5"/>
<text text-anchor="middle" x="836" y="-14.3" font-family="Times,serif" font-size="14.00">M_GOPABIN_8</text>
</g>
<!-- M_GOPABIN_4&#45;&gt;M_GOPABIN_8 -->
<g id="edge9" class="edge">
<title>M_GOPABIN_4&#45;&gt;M_GOPABIN_8</title>
<path fill="none" stroke="green" d="M928.39,-93.5C912.77,-88.16 896.29,-81.05 882.48,-71.8 871.89,-64.7 862.16,-54.63 854.38,-45.21"/>
<polygon fill="green" stroke="green" points="857.14,-43.06 848.21,-37.34 851.63,-47.37 857.14,-43.06"/>
<text text-anchor="start" x="883" y="-60.2" font-family="Times,serif" font-size="14.00" fill="green"> </text>
<text text-anchor="start" x="886.5" y="-60.2" font-family="Courier New" font-size="10.00" fill="green">EQUALi(BFRAME,3)</text>
</g>
<!-- M_GOPABIN_9 -->
<g id="node11" class="node">
<title>M_GOPABIN_9</title>
<polygon fill="none" stroke="black" points="1325.16,-0.5 1325.16,-36.5 1436.84,-36.5 1436.84,-0.5 1325.16,-0.5"/>
<text text-anchor="middle" x="1381" y="-14.3" font-family="Times,serif" font-size="14.00">M_GOPABIN_9</text>
</g>
<!-- M_GOPABIN_4&#45;&gt;M_GOPABIN_9 -->
<g id="edge10" class="edge">
<title>M_GOPABIN_4&#45;&gt;M_GOPABIN_9</title>
<path fill="none" stroke="green" d="M1039.72,-102.62C1090.79,-97.57 1168.23,-87.99 1234,-71.8 1266.51,-63.8 1301.89,-51.33 1329.79,-40.58"/>
<polygon fill="green" stroke="green" points="1331.04,-43.85 1339.08,-36.95 1328.49,-37.33 1331.04,-43.85"/>
<text text-anchor="start" x="1288" y="-60.2" font-family="Times,serif" font-size="14.00" fill="green"> </text>
<text text-anchor="start" x="1291.5" y="-60.2" font-family="Courier New" font-size="10.00" fill="green">GTE(BFRAME,WIP2)</text>
</g>
<!-- M_GOPABIN_5&#45;&gt;M_GOPABIN_2 -->
<g id="edge11" class="edge">
<title>M_GOPABIN_5&#45;&gt;M_GOPABIN_2</title>
<path fill="none" stroke="green" d="M1043.77,-20.51C1102.15,-22.88 1188.17,-30.56 1209,-55 1213.84,-60.68 1211.85,-64.9 1209,-71.8 1165.96,-175.95 1129.15,-197.84 1030,-251.4 997.7,-268.85 957.74,-277.74 924.47,-282.26"/>
<polygon fill="green" stroke="green" points="924.46,-278.73 914.97,-283.44 925.32,-285.68 924.46,-278.73"/>
<text text-anchor="start" x="1172" y="-150" font-family="Times,serif" font-size="14.00" fill="green"> </text>
<text text-anchor="start" x="1175.5" y="-150" font-family="Courier New" font-size="10.00" fill="green">ASSIGN(WOBJECT,IDD_GOPAR)</text>
</g>
<!-- M_GOPABIN_6&#45;&gt;M_GOPABIN_2 -->
<g id="edge12" class="edge">
<title>M_GOPABIN_6&#45;&gt;M_GOPABIN_2</title>
<path fill="none" stroke="green" d="M1301.78,-34.22C1327.56,-41.58 1353.33,-49.98 1357,-55 1385.82,-94.47 1364.07,-126.56 1330,-161.6 1273.87,-219.32 1041.23,-260.36 924.88,-277.7"/>
<polygon fill="green" stroke="green" points="924.54,-274.22 915.15,-279.14 925.56,-281.14 924.54,-274.22"/>
<text text-anchor="start" x="1346" y="-150" font-family="Times,serif" font-size="14.00" fill="green"> </text>
<text text-anchor="start" x="1349.5" y="-150" font-family="Courier New" font-size="10.00" fill="green">ASSIGN(WOBJECT,IDD_GOPAG)</text>
</g>
<!-- M_GOPABIN_7&#45;&gt;M_GOPABIN_2 -->
<g id="edge13" class="edge">
<title>M_GOPABIN_7&#45;&gt;M_GOPABIN_2</title>
<path fill="none" stroke="green" d="M685.55,-36.39C674.48,-64.22 657.15,-120.7 678.48,-161.6 704.45,-211.41 760.28,-245.48 802.83,-265.37"/>
<polygon fill="green" stroke="green" points="801.13,-268.44 811.68,-269.38 804.02,-262.06 801.13,-268.44"/>
<text text-anchor="start" x="679" y="-150" font-family="Times,serif" font-size="14.00" fill="green"> </text>
<text text-anchor="start" x="682.5" y="-150" font-family="Courier New" font-size="10.00" fill="green">ASSIGN(WOBJECT,IDD_GOPAB)</text>
</g>
<!-- M_GOPABIN_8&#45;&gt;M_GOPABIN_2 -->
<g id="edge14" class="edge">
<title>M_GOPABIN_8&#45;&gt;M_GOPABIN_2</title>
<path fill="none" stroke="green" d="M780.37,-31.64C757.85,-37.78 735.59,-45.87 729,-55 724.63,-61.05 725.51,-65.2 729,-71.8 755.89,-122.7 805.28,-96.11 836,-144.8 857.89,-179.5 860.74,-228.22 859.98,-258.65"/>
<polygon fill="green" stroke="green" points="856.48,-258.45 859.56,-268.59 863.48,-258.74 856.48,-258.45"/>
<text text-anchor="start" x="845" y="-150" font-family="Times,serif" font-size="14.00" fill="green"> </text>
<text text-anchor="start" x="848.5" y="-150" font-family="Courier New" font-size="10.00" fill="green">ASSIGN(WOBJECT,)</text>
</g>
<!-- M_GOPABIN_9&#45;&gt;M_GOPABIN_0 -->
<g id="edge15" class="edge">
<title>M_GOPABIN_9&#45;&gt;M_GOPABIN_0</title>
<path fill="none" stroke="green" d="M1436.61,-27.08C1482.46,-36.83 1540,-58.74 1540,-107.3 1540,-378.7 1540,-378.7 1540,-378.7 1540,-422.29 1241.96,-450.87 1105.63,-461.66"/>
<polygon fill="green" stroke="green" points="1105.74,-458.14 1096.04,-462.41 1106.28,-465.12 1105.74,-458.14"/>
<text text-anchor="start" x="1540" y="-239.8" font-family="Times,serif" font-size="14.00" fill="green"> </text>
<text text-anchor="start" x="1543.5" y="-239.8" font-family="Courier New" font-size="10.00" fill="green">ASSIGN(WOBJECT,IDD_GOPAR)</text>
</g>
<!-- M_GOPABIN_31 -->
<g id="node15" class="node">
<title>M_GOPABIN_31</title>
<polygon fill="none" stroke="black" points="3.66,-0.5 3.66,-36.5 122.34,-36.5 122.34,-0.5 3.66,-0.5"/>
<text text-anchor="middle" x="63" y="-14.3" font-family="Times,serif" font-size="14.00">M_GOPABIN_31</text>
</g>
<!-- M_GOPABIN_30&#45;&gt;M_GOPABIN_31 -->
<g id="edge20" class="edge">
<title>M_GOPABIN_30&#45;&gt;M_GOPABIN_31</title>
<path fill="none" stroke="green" d="M160.89,-90.43C150.62,-84.84 139.39,-78.36 129.48,-71.8 116.53,-63.23 102.94,-52.82 91.44,-43.55"/>
<polygon fill="green" stroke="green" points="93.85,-40.99 83.89,-37.37 89.42,-46.41 93.85,-40.99"/>
<text text-anchor="start" x="130" y="-60.2" font-family="Times,serif" font-size="14.00" fill="green"> </text>
<text text-anchor="start" x="133.5" y="-60.2" font-family="Courier New" font-size="10.00" fill="green">ASSIGN(WOBJECT,IDD_GOPAR)</text>
</g>
<!-- M_GOPABIN_41 -->
<g id="node16" class="node">
<title>M_GOPABIN_41</title>
<polygon fill="none" stroke="black" points="192.66,-0.5 192.66,-36.5 311.34,-36.5 311.34,-0.5 192.66,-0.5"/>
<text text-anchor="middle" x="252" y="-14.3" font-family="Times,serif" font-size="14.00">M_GOPABIN_41</text>
</g>
<!-- M_GOPABIN_40&#45;&gt;M_GOPABIN_41 -->
<g id="edge22" class="edge">
<title>M_GOPABIN_40&#45;&gt;M_GOPABIN_41</title>
<path fill="none" stroke="green" d="M320.61,-90.37C308.03,-77.37 290.46,-59.23 276.25,-44.55"/>
<polygon fill="green" stroke="green" points="278.86,-42.21 269.39,-37.46 273.83,-47.08 278.86,-42.21"/>
<text text-anchor="start" x="303" y="-60.2" font-family="Times,serif" font-size="14.00" fill="green"> </text>
<text text-anchor="start" x="306.5" y="-60.2" font-family="Courier New" font-size="10.00" fill="green">ASSIGN(WOBJECT,IDD_GOPAG)</text>
</g>
<!-- M_GOPABIN_51 -->
<g id="node17" class="node">
<title>M_GOPABIN_51</title>
<polygon fill="none" stroke="black" points="454.66,-0.5 454.66,-36.5 573.34,-36.5 573.34,-0.5 454.66,-0.5"/>
<text text-anchor="middle" x="514" y="-14.3" font-family="Times,serif" font-size="14.00">M_GOPABIN_51</text>
</g>
<!-- M_GOPABIN_50&#45;&gt;M_GOPABIN_51 -->
<g id="edge24" class="edge">
<title>M_GOPABIN_50&#45;&gt;M_GOPABIN_51</title>
<path fill="none" stroke="green" d="M478.63,-90.7C477.8,-80.12 477.99,-66.32 482.48,-55 483.84,-51.55 485.7,-48.22 487.84,-45.07"/>
<polygon fill="green" stroke="green" points="490.45,-47.41 493.93,-37.41 484.97,-43.06 490.45,-47.41"/>
<text text-anchor="start" x="483" y="-60.2" font-family="Times,serif" font-size="14.00" fill="green"> </text>
<text text-anchor="start" x="486.5" y="-60.2" font-family="Courier New" font-size="10.00" fill="green">ASSIGN(WOBJECT,IDD_GOPAB)</text>
</g>
<!-- M_GOPABIN_31&#45;&gt;M_GOPABIN_1 -->
<g id="edge21" class="edge">
<title>M_GOPABIN_31&#45;&gt;M_GOPABIN_1</title>
<path fill="none" stroke="green" d="M40.97,-36.45C22.8,-52.5 0,-78.41 0,-107.3 0,-288.9 0,-288.9 0,-288.9 0,-344.64 60.08,-327.04 114,-341.2 179.53,-358.41 368.84,-369.18 470.9,-373.91"/>
<polygon fill="green" stroke="green" points="470.64,-377.4 480.79,-374.36 470.96,-370.41 470.64,-377.4"/>
<text text-anchor="start" x="0" y="-194.9" font-family="Times,serif" font-size="14.00" fill="green"> </text>
<text text-anchor="start" x="3.5" y="-194.9" font-family="Courier New" font-size="10.00" fill="green">SHOW(0,0)</text>
</g>
<!-- M_GOPABIN_41&#45;&gt;M_GOPABIN_1 -->
<g id="edge23" class="edge">
<title>M_GOPABIN_41&#45;&gt;M_GOPABIN_1</title>
<path fill="none" stroke="green" d="M192.68,-27.91C158.62,-33.9 120.23,-43.01 108,-55 90.82,-71.85 94,-83.24 94,-107.3 94,-288.9 94,-288.9 94,-288.9 94,-364.81 346.93,-376.15 470.99,-377.15"/>
<polygon fill="green" stroke="green" points="470.68,-380.64 480.7,-377.2 470.72,-373.64 470.68,-380.64"/>
<text text-anchor="start" x="94" y="-194.9" font-family="Times,serif" font-size="14.00" fill="green"> </text>
<text text-anchor="start" x="97.5" y="-194.9" font-family="Courier New" font-size="10.00" fill="green">SHOW(0,0)</text>
</g>
<!-- M_GOPABIN_51&#45;&gt;M_GOPABIN_1 -->
<g id="edge25" class="edge">
<title>M_GOPABIN_51&#45;&gt;M_GOPABIN_1</title>
<path fill="none" stroke="green" d="M573.25,-21.97C596.64,-26.22 621.37,-35.5 636,-55 653.11,-77.8 596.14,-280.17 585,-306.4 578.32,-322.12 568.01,-338.07 558.74,-350.8"/>
<polygon fill="green" stroke="green" points="556.06,-348.54 552.84,-358.63 561.65,-352.75 556.06,-348.54"/>
<text text-anchor="start" x="621" y="-194.9" font-family="Times,serif" font-size="14.00" fill="green"> </text>
<text text-anchor="start" x="624.5" y="-194.9" font-family="Courier New" font-size="10.00" fill="green">SHOW(0,0)</text>
</g>
</g>
</svg>
