<?xml version="1.0" encoding="UTF-8" standalone="no"?>
<!DOCTYPE svg PUBLIC "-//W3C//DTD SVG 1.1//EN"
 "http://www.w3.org/Graphics/SVG/1.1/DTD/svg11.dtd">
<!-- Generated by graphviz version 7.1.0 (20230121.1956)
 -->
<!-- Title: Automaton Pages: 1 -->
<svg width="293pt" height="153pt"
 viewBox="0.00 0.00 293.00 153.00" xmlns="http://www.w3.org/2000/svg" xmlns:xlink="http://www.w3.org/1999/xlink">
<g id="graph0" class="graph" transform="scale(1 1) rotate(0) translate(4 149)">
<title>Automaton</title>
<polygon fill="white" stroke="none" points="-4,4 -4,-149 289,-149 289,4 -4,4"/>
<!-- filename -->
<g id="node1" class="node">
<title>filename</title>
<polygon fill="none" stroke="black" points="0,-92.5 0,-144.5 118,-144.5 118,-92.5 0,-92.5"/>
<polygon fill="none" stroke="black" points="11,-119.5 11,-137.5 107,-137.5 107,-119.5 11,-119.5"/>
<text text-anchor="start" x="41" y="-126.5" font-family="Courier New" font-weight="bold" font-size="10.00">M_HALO</text>
<polygon fill="none" stroke="black" points="11,-99.5 11,-117.5 107,-117.5 107,-99.5 11,-99.5"/>
<text text-anchor="start" x="14" y="-105.5" font-family="Courier New" font-size="10.00" fill="brown">start state = 0</text>
<polygon fill="none" stroke="black" points="8,-96.5 8,-140.5 110,-140.5 110,-96.5 8,-96.5"/>
</g>
<!-- 0 -->
<g id="node2" class="node">
<title>0</title>
<polyline fill="none" stroke="darkred" points="156,-107.5 170,-107.5"/>
<text text-anchor="start" x="159" y="-114.9" font-family="Courier New" font-weight="bold" font-size="14.00">0</text>
<path fill="none" stroke="darkred" d="M159.67,-104.5C159.67,-104.5 166.33,-104.5 166.33,-104.5 169.67,-104.5 173,-107.83 173,-111.17 173,-111.17 173,-125.83 173,-125.83 173,-129.17 169.67,-132.5 166.33,-132.5 166.33,-132.5 159.67,-132.5 159.67,-132.5 156.33,-132.5 153,-129.17 153,-125.83 153,-125.83 153,-111.17 153,-111.17 153,-107.83 156.33,-104.5 159.67,-104.5"/>
</g>
<!-- 1 -->
<g id="node3" class="node">
<title>1</title>
<ellipse fill="none" stroke="black" cx="163" cy="-18" rx="27" ry="18"/>
<text text-anchor="middle" x="163" y="-13.8" font-family="Courier New" font-size="14.00">1</text>
</g>
<!-- 0&#45;&gt;1 -->
<g id="edge1" class="edge">
<title>0&#45;&gt;1</title>
<path fill="none" stroke="black" d="M163,-100.79C163,-86.32 163,-65.07 163,-47.86"/>
<polygon fill="black" stroke="black" points="166.5,-47.97 163,-37.97 159.5,-47.97 166.5,-47.97"/>
<text text-anchor="start" x="167" y="-62" font-family="Courier New" font-weight="bold" font-size="10.00" fill="blue">ASHOW(0,IDS_HALO01)</text>
</g>
</g>
</svg>
