<?xml version="1.0" encoding="UTF-8" standalone="no"?>
<!DOCTYPE svg PUBLIC "-//W3C//DTD SVG 1.1//EN"
 "http://www.w3.org/Graphics/SVG/1.1/DTD/svg11.dtd">
<!-- Generated by graphviz version 7.1.0 (20230121.1956)
 -->
<!-- Title: Automaton Pages: 1 -->
<svg width="581pt" height="577pt"
 viewBox="0.00 0.00 580.68 577.00" xmlns="http://www.w3.org/2000/svg" xmlns:xlink="http://www.w3.org/1999/xlink">
<g id="graph0" class="graph" transform="scale(1 1) rotate(0) translate(4 573)">
<title>Automaton</title>
<polygon fill="white" stroke="none" points="-4,4 -4,-573 576.68,-573 576.68,4 -4,4"/>
<!-- filename -->
<g id="node1" class="node">
<title>filename</title>
<polygon fill="none" stroke="black" points="123.68,-516.5 123.68,-568.5 241.68,-568.5 241.68,-516.5 123.68,-516.5"/>
<polygon fill="none" stroke="black" points="134.68,-543.5 134.68,-561.5 230.68,-561.5 230.68,-543.5 134.68,-543.5"/>
<text text-anchor="start" x="164.68" y="-550.5" font-family="Courier New" font-weight="bold" font-size="10.00">M_HALO</text>
<polygon fill="none" stroke="black" points="134.68,-523.5 134.68,-541.5 230.68,-541.5 230.68,-523.5 134.68,-523.5"/>
<text text-anchor="start" x="137.68" y="-529.5" font-family="Courier New" font-size="10.00" fill="brown">start state = 0</text>
<polygon fill="none" stroke="black" points="131.68,-520.5 131.68,-564.5 233.68,-564.5 233.68,-520.5 131.68,-520.5"/>
</g>
<!-- 0 -->
<g id="node2" class="node">
<title>0</title>
<polyline fill="none" stroke="darkred" points="279.68,-531.5 293.68,-531.5"/>
<text text-anchor="start" x="282.68" y="-538.9" font-family="Courier New" font-weight="bold" font-size="14.00">0</text>
<path fill="none" stroke="darkred" d="M283.35,-528.5C283.35,-528.5 290.02,-528.5 290.02,-528.5 293.35,-528.5 296.68,-531.83 296.68,-535.17 296.68,-535.17 296.68,-549.83 296.68,-549.83 296.68,-553.17 293.35,-556.5 290.02,-556.5 290.02,-556.5 283.35,-556.5 283.35,-556.5 280.02,-556.5 276.68,-553.17 276.68,-549.83 276.68,-549.83 276.68,-535.17 276.68,-535.17 276.68,-531.83 280.02,-528.5 283.35,-528.5"/>
</g>
<!-- karmaBoost -->
<g id="node3" class="node">
<title>karmaBoost</title>
<polyline fill="none" stroke="darkred" points="241.68,-431 331.68,-431"/>
<text text-anchor="start" x="244.68" y="-438.4" font-family="Courier New" font-weight="bold" font-size="14.00">karmaBoost</text>
<path fill="none" stroke="darkred" d="M248.02,-428C248.02,-428 325.35,-428 325.35,-428 330.02,-428 334.68,-432.67 334.68,-437.33 334.68,-437.33 334.68,-446.67 334.68,-446.67 334.68,-451.33 330.02,-456 325.35,-456 325.35,-456 248.02,-456 248.02,-456 243.35,-456 238.68,-451.33 238.68,-446.67 238.68,-446.67 238.68,-437.33 238.68,-437.33 238.68,-432.67 243.35,-428 248.02,-428"/>
</g>
<!-- 0&#45;&gt;karmaBoost -->
<g id="edge1" class="edge">
<title>0&#45;&gt;karmaBoost</title>
<path fill="none" stroke="black" d="M286.68,-524.79C286.68,-510.14 286.68,-488.55 286.68,-471.23"/>
<polygon fill="black" stroke="black" points="290.18,-471.3 286.68,-461.3 283.18,-471.3 290.18,-471.3"/>
<text text-anchor="start" x="290.68" y="-486" font-family="Courier New" font-weight="bold" font-size="10.00" fill="blue">Z_EPSILON(0,0)</text>
</g>
<!-- 1 -->
<g id="node4" class="node">
<title>1</title>
<polyline fill="none" stroke="darkred" points="279.68,-219 293.68,-219"/>
<text text-anchor="start" x="282.68" y="-226.4" font-family="Courier New" font-weight="bold" font-size="14.00">1</text>
<path fill="none" stroke="darkred" d="M283.35,-216C283.35,-216 290.02,-216 290.02,-216 293.35,-216 296.68,-219.33 296.68,-222.67 296.68,-222.67 296.68,-237.33 296.68,-237.33 296.68,-240.67 293.35,-244 290.02,-244 290.02,-244 283.35,-244 283.35,-244 280.02,-244 276.68,-240.67 276.68,-237.33 276.68,-237.33 276.68,-222.67 276.68,-222.67 276.68,-219.33 280.02,-216 283.35,-216"/>
</g>
<!-- karmaBoost&#45;&gt;1 -->
<g id="edge5" class="edge">
<title>karmaBoost&#45;&gt;1</title>
<path fill="none" stroke="black" d="M230.86,-441.56C163.51,-440.91 56.12,-435.15 30.68,-406 -10.23,-359.12 -10.23,-312.88 30.68,-266 58.52,-234.1 184.47,-230.21 248.73,-230.37"/>
<polygon fill="black" stroke="black" points="248.44,-233.87 258.46,-230.43 248.48,-226.87 248.44,-233.87"/>
<polygon fill="none" stroke="black" points="33.68,-385 33.68,-403 279.68,-403 279.68,-385 33.68,-385"/>
<text text-anchor="start" x="114.68" y="-392" font-family="Courier New" font-weight="bold" font-size="10.00" fill="blue">ASSIGN(WPARM,)</text>
<polygon fill="none" stroke="black" points="33.68,-269 33.68,-383 279.68,-383 279.68,-269 33.68,-269"/>
<text text-anchor="start" x="36.68" y="-371" font-family="Courier New" font-size="10.00" fill="blue"> &#160;&#160;&#160;&#160;&#160;&#160;if(LKARMA &gt; (MAX_KARMA &#45; 1)){</text>
<text text-anchor="start" x="36.68" y="-359" font-family="Courier New" font-size="10.00" fill="blue"> &#160;&#160;&#160;&#160;&#160;&#160;&#160;&#160;&#160;&#160;&#160;&#160;ASSIGN(LKARMA,(MAX_KARMA));</text>
<text text-anchor="start" x="36.68" y="-347" font-family="Courier New" font-size="10.00" fill="blue"> &#160;&#160;&#160;&#160;&#160;&#160;}</text>
<text text-anchor="start" x="36.68" y="-335" font-family="Courier New" font-size="10.00" fill="blue"> &#160;&#160;&#160;&#160;&#160;&#160;&#160;ASSIGN(BPARM,LKARMA);</text>
<text text-anchor="start" x="36.68" y="-323" font-family="Courier New" font-size="10.00" fill="blue"> &#160;&#160;&#160;&#160;&#160;&#160;&#160;MOV(WSPRITE,BPARM);</text>
<text text-anchor="start" x="36.68" y="-311" font-family="Courier New" font-size="10.00" fill="blue"> &#160;&#160;&#160;&#160;&#160;&#160;&#160;DIV(WSPRITE,2);</text>
<text text-anchor="start" x="36.68" y="-299" font-family="Courier New" font-size="10.00" fill="blue"> &#160;&#160;&#160;&#160;&#160;&#160;&#160;MAPi(WSPRITE,S00_KARMA_MAP);</text>
<text text-anchor="start" x="36.68" y="-287" font-family="Courier New" font-size="10.00" fill="blue"> &#160;&#160;&#160;&#160;&#160;&#160;&#160;ASHOW(WSPRITE);</text>
<text text-anchor="start" x="36.68" y="-275" font-family="Courier New" font-size="10.00" fill="blue"> &#160;&#160;&#160;&#160;&#160;&#160;&#160;SIGNALi(0,SID_ID);</text>
<polygon fill="none" stroke="black" points="30.68,-266 30.68,-406 282.68,-406 282.68,-266 30.68,-266"/>
</g>
<!-- 1&#45;&gt;karmaBoost -->
<g id="edge2" class="edge">
<title>1&#45;&gt;karmaBoost</title>
<path fill="none" stroke="black" d="M286.68,-247.91C286.68,-283.92 286.68,-368.51 286.68,-412.82"/>
<polygon fill="black" stroke="black" points="283.18,-412.66 286.68,-422.66 290.18,-412.66 283.18,-412.66"/>
<text text-anchor="start" x="290.68" y="-334" font-family="Courier New" font-weight="bold" font-size="10.00" fill="orange">WAIT(0,SIG_ADD)</text>
</g>
<!-- 1&#45;&gt;karmaBoost -->
<g id="edge4" class="edge">
<title>1&#45;&gt;karmaBoost</title>
<path fill="none" stroke="black" d="M313.59,-232.32C336.94,-235.07 369.47,-243.08 385.68,-266 421.61,-316.8 421.61,-355.2 385.68,-406 377.79,-417.16 366.02,-424.79 353.33,-429.99"/>
<polygon fill="black" stroke="black" points="352.2,-426.68 343.94,-433.31 354.54,-433.28 352.2,-426.68"/>
<text text-anchor="start" x="415.68" y="-334" font-family="Courier New" font-weight="bold" font-size="10.00" fill="orange">WAIT(0,0)</text>
</g>
<!-- karmaDrain -->
<g id="node5" class="node">
<title>karmaDrain</title>
<polyline fill="none" stroke="darkred" points="241.68,-7 331.68,-7"/>
<text text-anchor="start" x="244.68" y="-14.4" font-family="Courier New" font-weight="bold" font-size="14.00">karmaDrain</text>
<path fill="none" stroke="darkred" d="M248.02,-4C248.02,-4 325.35,-4 325.35,-4 330.02,-4 334.68,-8.67 334.68,-13.33 334.68,-13.33 334.68,-22.67 334.68,-22.67 334.68,-27.33 330.02,-32 325.35,-32 325.35,-32 248.02,-32 248.02,-32 243.35,-32 238.68,-27.33 238.68,-22.67 238.68,-22.67 238.68,-13.33 238.68,-13.33 238.68,-8.67 243.35,-4 248.02,-4"/>
</g>
<!-- 1&#45;&gt;karmaDrain -->
<g id="edge3" class="edge">
<title>1&#45;&gt;karmaDrain</title>
<path fill="none" stroke="black" d="M259.79,-220.1C247.72,-214.6 234.64,-206.21 227.68,-194 196.89,-139.93 196.89,-108.07 227.68,-54 230.04,-49.87 233.09,-46.17 236.57,-42.88"/>
<polygon fill="black" stroke="black" points="238.51,-45.81 244.15,-36.85 234.15,-40.33 238.51,-45.81"/>
<text text-anchor="start" x="231.68" y="-122" font-family="Courier New" font-weight="bold" font-size="10.00" fill="orange">WAIT(0,SIG_SUB)</text>
</g>
<!-- karmaDrain&#45;&gt;1 -->
<g id="edge6" class="edge">
<title>karmaDrain&#45;&gt;1</title>
<path fill="none" stroke="black" d="M311.62,-35.72C317.3,-40.85 322.57,-47.02 325.68,-54 351.04,-110.82 351.04,-137.18 325.68,-194 324.08,-197.6 321.9,-200.98 319.39,-204.12"/>
<polygon fill="black" stroke="black" points="317.02,-201.53 312.67,-211.19 322.09,-206.35 317.02,-201.53"/>
<polygon fill="none" stroke="black" points="347.68,-173 347.68,-191 569.68,-191 569.68,-173 347.68,-173"/>
<text text-anchor="start" x="416.68" y="-180" font-family="Courier New" font-weight="bold" font-size="10.00" fill="blue">ASSIGN(WPARM,)</text>
<polygon fill="none" stroke="black" points="347.68,-57 347.68,-171 569.68,-171 569.68,-57 347.68,-57"/>
<text text-anchor="start" x="350.68" y="-159" font-family="Courier New" font-size="10.00" fill="blue"> &#160;&#160;&#160;&#160;&#160;&#160;&#160;if(LKARMA &lt;= 0){</text>
<text text-anchor="start" x="350.68" y="-147" font-family="Courier New" font-size="10.00" fill="blue"> &#160;&#160;&#160;&#160;&#160;&#160;&#160;&#160;&#160;&#160;&#160;&#160;ASSIGN(LKARMA,1);</text>
<text text-anchor="start" x="350.68" y="-135" font-family="Courier New" font-size="10.00" fill="blue"> &#160;&#160;&#160;&#160;&#160;&#160;} &#160;&#160;&#160;&#160;&#160;</text>
<text text-anchor="start" x="350.68" y="-123" font-family="Courier New" font-size="10.00" fill="blue"> &#160;&#160;&#160;&#160;&#160;&#160;&#160;ASSIGN(BPARM,LKARMA);</text>
<text text-anchor="start" x="350.68" y="-111" font-family="Courier New" font-size="10.00" fill="blue"> &#160;&#160;&#160;&#160;&#160;&#160;&#160;MOV(WSPRITE,BPARM);</text>
<text text-anchor="start" x="350.68" y="-99" font-family="Courier New" font-size="10.00" fill="blue"> &#160;&#160;&#160;&#160;&#160;&#160;&#160;DIV(WSPRITE,2);</text>
<text text-anchor="start" x="350.68" y="-87" font-family="Courier New" font-size="10.00" fill="blue"> &#160;&#160;&#160;&#160;&#160;&#160;&#160;MAPi(WSPRITE,S00_KARMA_MAP);</text>
<text text-anchor="start" x="350.68" y="-75" font-family="Courier New" font-size="10.00" fill="blue"> &#160;&#160;&#160;&#160;&#160;&#160;&#160;ASHOW(WSPRITE);</text>
<text text-anchor="start" x="350.68" y="-63" font-family="Courier New" font-size="10.00" fill="blue"> &#160;&#160;&#160;&#160;&#160;&#160;&#160;SIGNALi(0,SID_ID);</text>
<polygon fill="none" stroke="black" points="344.68,-54 344.68,-194 572.68,-194 572.68,-54 344.68,-54"/>
</g>
</g>
</svg>
