<?xml version="1.0" encoding="UTF-8" standalone="no"?>
<!DOCTYPE svg PUBLIC "-//W3C//DTD SVG 1.1//EN"
 "http://www.w3.org/Graphics/SVG/1.1/DTD/svg11.dtd">
<!-- Generated by graphviz version 7.1.0 (20230121.1956)
 -->
<!-- Title: Automaton Pages: 1 -->
<svg width="832pt" height="721pt"
 viewBox="0.00 0.00 831.56 721.00" xmlns="http://www.w3.org/2000/svg" xmlns:xlink="http://www.w3.org/1999/xlink">
<g id="graph0" class="graph" transform="scale(1 1) rotate(0) translate(4 717)">
<title>Automaton</title>
<polygon fill="white" stroke="none" points="-4,4 -4,-717 827.56,-717 827.56,4 -4,4"/>
<!-- filename -->
<g id="node1" class="node">
<title>filename</title>
<polygon fill="none" stroke="black" points="277.56,-660.5 277.56,-712.5 395.56,-712.5 395.56,-660.5 277.56,-660.5"/>
<polygon fill="none" stroke="black" points="288.56,-687.5 288.56,-705.5 384.56,-705.5 384.56,-687.5 288.56,-687.5"/>
<text text-anchor="start" x="315.56" y="-694.5" font-family="Courier New" font-weight="bold" font-size="10.00">M_HIDER</text>
<polygon fill="none" stroke="black" points="288.56,-667.5 288.56,-685.5 384.56,-685.5 384.56,-667.5 288.56,-667.5"/>
<text text-anchor="start" x="291.56" y="-673.5" font-family="Courier New" font-size="10.00" fill="brown">start state = 0</text>
<polygon fill="none" stroke="black" points="285.56,-664.5 285.56,-708.5 387.56,-708.5 387.56,-664.5 285.56,-664.5"/>
</g>
<!-- 0 -->
<g id="node2" class="node">
<title>0</title>
<polyline fill="none" stroke="darkred" points="433.56,-675.5 447.56,-675.5"/>
<text text-anchor="start" x="436.56" y="-682.9" font-family="Courier New" font-weight="bold" font-size="14.00">0</text>
<path fill="none" stroke="darkred" d="M437.23,-672.5C437.23,-672.5 443.89,-672.5 443.89,-672.5 447.23,-672.5 450.56,-675.83 450.56,-679.17 450.56,-679.17 450.56,-693.83 450.56,-693.83 450.56,-697.17 447.23,-700.5 443.89,-700.5 443.89,-700.5 437.23,-700.5 437.23,-700.5 433.89,-700.5 430.56,-697.17 430.56,-693.83 430.56,-693.83 430.56,-679.17 430.56,-679.17 430.56,-675.83 433.89,-672.5 437.23,-672.5"/>
</g>
<!-- topOLoop -->
<g id="node3" class="node">
<title>topOLoop</title>
<polyline fill="none" stroke="darkred" points="166.56,-419 239.56,-419"/>
<text text-anchor="start" x="169.56" y="-426.4" font-family="Courier New" font-weight="bold" font-size="14.00">topOLoop</text>
<path fill="none" stroke="darkred" d="M172.39,-416C172.39,-416 232.73,-416 232.73,-416 237.39,-416 242.06,-420.67 242.06,-425.33 242.06,-425.33 242.06,-434.67 242.06,-434.67 242.06,-439.33 237.39,-444 232.73,-444 232.73,-444 172.39,-444 172.39,-444 167.73,-444 163.06,-439.33 163.06,-434.67 163.06,-434.67 163.06,-425.33 163.06,-425.33 163.06,-420.67 167.73,-416 172.39,-416"/>
</g>
<!-- 0&#45;&gt;topOLoop -->
<g id="edge1" class="edge">
<title>0&#45;&gt;topOLoop</title>
<path fill="none" stroke="black" d="M420.68,-668.65C415.7,-665.24 410.17,-662.06 404.56,-660 362.48,-644.5 233.9,-675.02 203.56,-642 157.5,-591.87 177.78,-503.34 192.36,-458.57"/>
<polygon fill="black" stroke="black" points="195.59,-459.96 195.5,-449.36 188.96,-457.7 195.59,-459.96"/>
<polygon fill="none" stroke="black" points="206.56,-621 206.56,-639 662.56,-639 662.56,-621 206.56,-621"/>
<text text-anchor="start" x="389.55" y="-628" font-family="Courier New" font-weight="bold" font-size="10.00" fill="orange">WAIT(,SIG_OPEN)</text>
<polygon fill="none" stroke="black" points="206.56,-469 206.56,-619 662.56,-619 662.56,-469 206.56,-469"/>
<text text-anchor="start" x="209.56" y="-607" font-family="Courier New" font-size="10.00" fill="blue"> &#160;</text>
<text text-anchor="start" x="209.56" y="-595" font-family="Courier New" font-size="10.00" fill="blue"> &#160;&#160;&#160;ASSIGN(WTEMP2,0);</text>
<text text-anchor="start" x="209.56" y="-583" font-family="Courier New" font-size="10.00" fill="blue"> &#160;&#160;&#160;RAND(WIP1,1);</text>
<text text-anchor="start" x="209.56" y="-571" font-family="Courier New" font-size="10.00" fill="blue"> &#160;&#160;&#160;MOV(WPARM,WRAND); // WPARM will be referenced as the first item to hide</text>
<text text-anchor="start" x="209.56" y="-559" font-family="Courier New" font-size="10.00" fill="blue"> &#160;&#160;&#160;</text>
<text text-anchor="start" x="209.56" y="-547" font-family="Courier New" font-size="10.00" fill="blue"> &#160;&#160;&#160;RAND(3,1);</text>
<text text-anchor="start" x="209.56" y="-535" font-family="Courier New" font-size="10.00" fill="blue"> &#160;&#160;&#160;ASSIGN(BPARM,WRAND); &#160;// BPARM starting point for locations</text>
<text text-anchor="start" x="209.56" y="-523" font-family="Courier New" font-size="10.00" fill="blue"> &#160;&#160;&#160;MOV(WTEMP1,BPARM);</text>
<text text-anchor="start" x="209.56" y="-511" font-family="Courier New" font-size="10.00" fill="blue"> &#160;&#160;&#160;MAPi(WTEMP1,S00_HIDINGPLACE);</text>
<text text-anchor="start" x="209.56" y="-499" font-family="Courier New" font-size="10.00" fill="blue"> &#160;&#160;&#160;SIGNAL(WTEMP1,SIG_OPEN); // Signal first hidden spot</text>
<text text-anchor="start" x="209.56" y="-487" font-family="Courier New" font-size="10.00" fill="blue"> &#160;&#160;&#160;WRITE(&#39;FIRST ITEM HIDDEN&#39;);</text>
<text text-anchor="start" x="209.56" y="-475" font-family="Courier New" font-size="10.00" fill="blue"> &#160;</text>
<polygon fill="none" stroke="black" points="203.56,-466 203.56,-642 665.56,-642 665.56,-466 203.56,-466"/>
</g>
<!-- objectSelected -->
<g id="node4" class="node">
<title>objectSelected</title>
<polyline fill="none" stroke="darkred" points="355.56,-123 478.56,-123"/>
<text text-anchor="start" x="358.56" y="-130.4" font-family="Courier New" font-weight="bold" font-size="14.00">objectSelected</text>
<path fill="none" stroke="darkred" d="M361.39,-120C361.39,-120 471.73,-120 471.73,-120 476.39,-120 481.06,-124.67 481.06,-129.33 481.06,-129.33 481.06,-138.67 481.06,-138.67 481.06,-143.33 476.39,-148 471.73,-148 471.73,-148 361.39,-148 361.39,-148 356.73,-148 352.06,-143.33 352.06,-138.67 352.06,-138.67 352.06,-129.33 352.06,-129.33 352.06,-124.67 356.73,-120 361.39,-120"/>
</g>
<!-- topOLoop&#45;&gt;objectSelected -->
<g id="edge5" class="edge">
<title>topOLoop&#45;&gt;objectSelected</title>
<path fill="none" stroke="black" d="M155.36,-424.66C115.13,-419.87 61.77,-410.55 48.56,-394 -13.55,-316.19 -18.42,-243.65 48.56,-170 67.31,-149.38 230.11,-140.63 332.79,-137.13"/>
<polygon fill="black" stroke="black" points="332.69,-140.64 342.56,-136.81 332.46,-133.64 332.69,-140.64"/>
<polygon fill="none" stroke="black" points="51.56,-373 51.56,-391 387.56,-391 387.56,-373 51.56,-373"/>
<text text-anchor="start" x="171.55" y="-380" font-family="Courier New" font-weight="bold" font-size="10.00" fill="blue">LTE(WTEMP2,WIP1)</text>
<polygon fill="none" stroke="black" points="51.56,-173 51.56,-371 387.56,-371 387.56,-173 51.56,-173"/>
<text text-anchor="start" x="54.56" y="-359" font-family="Courier New" font-size="10.00" fill="blue"> &#160;</text>
<text text-anchor="start" x="54.56" y="-347" font-family="Courier New" font-size="10.00" fill="blue"> &#160;&#160;&#160;&#160;&#160;&#160;&#160;&#160;&#160;&#160;&#160;RAND(2,1); </text>
<text text-anchor="start" x="54.56" y="-335" font-family="Courier New" font-size="10.00" fill="blue"> &#160;&#160;&#160;&#160;&#160;&#160;&#160;&#160;&#160;&#160;&#160;ADD(BPARM,WRAND);</text>
<text text-anchor="start" x="54.56" y="-323" font-family="Courier New" font-size="10.00" fill="blue"> &#160;&#160;&#160;&#160;&#160;&#160;&#160;&#160;&#160;&#160;&#160;MOV(WTEMP1,BPARM);</text>
<text text-anchor="start" x="54.56" y="-311" font-family="Courier New" font-size="10.00" fill="blue"> &#160;&#160;&#160;&#160;&#160;&#160;&#160;&#160;&#160;&#160;&#160;MAPi(WTEMP1,S00_HIDINGPLACE); </text>
<text text-anchor="start" x="54.56" y="-299" font-family="Courier New" font-size="10.00" fill="blue"> &#160;&#160;&#160;</text>
<text text-anchor="start" x="54.56" y="-287" font-family="Courier New" font-size="10.00" fill="blue"> &#160;&#160;&#160;&#160;&#160;&#160;&#160;&#160;&#160;&#160;&#160;//Set wparm to represent the object pointer</text>
<text text-anchor="start" x="54.56" y="-275" font-family="Courier New" font-size="10.00" fill="blue"> &#160;&#160;&#160;&#160;&#160;&#160;&#160;&#160;&#160;&#160;&#160;//X+1 or 1 if we started in the middle</text>
<text text-anchor="start" x="54.56" y="-263" font-family="Courier New" font-size="10.00" fill="blue"> &#160;&#160;&#160;&#160;&#160;&#160;&#160;&#160;&#160;&#160;&#160;if(WPARM &lt; WIP1){</text>
<text text-anchor="start" x="54.56" y="-251" font-family="Courier New" font-size="10.00" fill="blue"> &#160;&#160;&#160;&#160;&#160;&#160;&#160;&#160;&#160;&#160;&#160;&#160;&#160;&#160;&#160;ADD(WPARM,1);</text>
<text text-anchor="start" x="54.56" y="-239" font-family="Courier New" font-size="10.00" fill="blue"> &#160;&#160;&#160;&#160;&#160;&#160;&#160;&#160;&#160;&#160;&#160;&#160;&#160;&#160;&#160;ADD(WTEMP2,1);</text>
<text text-anchor="start" x="54.56" y="-227" font-family="Courier New" font-size="10.00" fill="blue"> &#160;&#160;&#160;&#160;&#160;&#160;&#160;&#160;&#160;&#160;&#160;&#160;}</text>
<text text-anchor="start" x="54.56" y="-215" font-family="Courier New" font-size="10.00" fill="blue"> &#160;&#160;&#160;&#160;&#160;&#160;&#160;&#160;&#160;&#160;&#160;if(WPARM &gt;= WIP1){ </text>
<text text-anchor="start" x="54.56" y="-203" font-family="Courier New" font-size="10.00" fill="blue"> &#160;&#160;&#160;&#160;&#160;&#160;&#160;&#160;&#160;&#160;&#160;&#160;&#160;&#160;&#160;ASSIGN(WPARM,1); </text>
<text text-anchor="start" x="54.56" y="-191" font-family="Courier New" font-size="10.00" fill="blue"> &#160;&#160;&#160;&#160;&#160;&#160;&#160;&#160;&#160;&#160;&#160;&#160;&#160;&#160;&#160;ADD(WTEMP2,1);</text>
<text text-anchor="start" x="54.56" y="-179" font-family="Courier New" font-size="10.00" fill="blue"> &#160;&#160;&#160;&#160;&#160;&#160;&#160;&#160;&#160;&#160;&#160;&#160;}</text>
<polygon fill="none" stroke="black" points="48.56,-170 48.56,-394 390.56,-394 390.56,-170 48.56,-170"/>
</g>
<!-- objectSelected&#45;&gt;topOLoop -->
<g id="edge2" class="edge">
<title>objectSelected&#45;&gt;topOLoop</title>
<path fill="none" stroke="black" d="M416.3,-151.8C415.28,-206.36 410.84,-376.09 394.56,-394 377.01,-413.31 311.09,-422.05 261.35,-425.95"/>
<polygon fill="black" stroke="black" points="261.28,-422.45 251.56,-426.67 261.79,-429.43 261.28,-422.45"/>
<polygon fill="none" stroke="black" points="419.56,-289 419.56,-307 653.56,-307 653.56,-289 419.56,-289"/>
<text text-anchor="start" x="488.55" y="-296" font-family="Courier New" font-weight="bold" font-size="10.00" fill="blue">LTE(WTEMP2,WIP1)</text>
<polygon fill="none" stroke="black" points="419.56,-257 419.56,-287 653.56,-287 653.56,-257 419.56,-257"/>
<text text-anchor="start" x="422.56" y="-275" font-family="Courier New" font-size="10.00" fill="blue"> &#160;&#160;&#160;&#160;&#160;&#160;&#160;SIGNAL(WTEMP1,SIG_OPEN); </text>
<text text-anchor="start" x="422.56" y="-263" font-family="Courier New" font-size="10.00" fill="blue"> &#160;&#160;&#160;&#160;&#160;&#160;&#160;WRITE(&#39;NEXT ITEM HIDDEN&#39;); &#160;&#160;&#160;</text>
<polygon fill="none" stroke="black" points="416.56,-254 416.56,-310 656.56,-310 656.56,-254 416.56,-254"/>
</g>
<!-- stopped -->
<g id="node5" class="node">
<title>stopped</title>
<polyline fill="none" stroke="darkred" points="515.56,-7 579.56,-7"/>
<text text-anchor="start" x="518.56" y="-14.4" font-family="Courier New" font-weight="bold" font-size="14.00">stopped</text>
<path fill="none" stroke="darkred" d="M521.89,-4C521.89,-4 573.23,-4 573.23,-4 577.89,-4 582.56,-8.67 582.56,-13.33 582.56,-13.33 582.56,-22.67 582.56,-22.67 582.56,-27.33 577.89,-32 573.23,-32 573.23,-32 521.89,-32 521.89,-32 517.23,-32 512.56,-27.33 512.56,-22.67 512.56,-22.67 512.56,-13.33 512.56,-13.33 512.56,-8.67 517.23,-4 521.89,-4"/>
</g>
<!-- objectSelected&#45;&gt;stopped -->
<g id="edge3" class="edge">
<title>objectSelected&#45;&gt;stopped</title>
<path fill="none" stroke="black" d="M411.95,-116.24C408.24,-98.76 405.65,-71.52 419.56,-54 429.06,-42.03 463.11,-33.06 493.7,-27.2"/>
<polygon fill="black" stroke="black" points="494.06,-30.7 503.27,-25.46 492.81,-23.81 494.06,-30.7"/>
<polygon fill="none" stroke="black" points="422.56,-77 422.56,-95 662.56,-95 662.56,-77 422.56,-77"/>
<text text-anchor="start" x="506.55" y="-84" font-family="Courier New" font-weight="bold" font-size="10.00" fill="blue">Z_EPSILON(,)</text>
<polygon fill="none" stroke="black" points="422.56,-57 422.56,-75 662.56,-75 662.56,-57 422.56,-57"/>
<text text-anchor="start" x="425.56" y="-63" font-family="Courier New" font-size="10.00" fill="blue"> &#160;&#160;&#160;&#160;WRITE(&#39;Finished Hiding Items&#39;); &#160;&#160;</text>
<polygon fill="none" stroke="black" points="419.56,-54 419.56,-98 665.56,-98 665.56,-54 419.56,-54"/>
</g>
<!-- stopped&#45;&gt;0 -->
<g id="edge4" class="edge">
<title>stopped&#45;&gt;0</title>
<path fill="none" stroke="black" d="M590.45,-19.6C616.67,-22.48 648.37,-30.97 665.56,-54 743.72,-158.71 748.73,-541.22 665.56,-642 642.28,-670.21 536.41,-680.33 478.57,-683.8"/>
<polygon fill="black" stroke="black" points="478.64,-680.29 468.85,-684.34 479.03,-687.28 478.64,-680.29"/>
<text text-anchor="start" x="729.56" y="-280" font-family="Courier New" font-weight="bold" font-size="10.00" fill="orange">WAIT(,SIG_OPEN)</text>
</g>
</g>
</svg>
