<?xml version="1.0" encoding="UTF-8" standalone="no"?>
<!DOCTYPE svg PUBLIC "-//W3C//DTD SVG 1.1//EN"
 "http://www.w3.org/Graphics/SVG/1.1/DTD/svg11.dtd">
<!-- Generated by graphviz version 7.1.0 (20230121.1956)
 -->
<!-- Pages: 1 -->
<svg width="876pt" height="1240pt"
 viewBox="0.00 0.00 876.00 1240.00" xmlns="http://www.w3.org/2000/svg" xmlns:xlink="http://www.w3.org/1999/xlink">
<g id="graph0" class="graph" transform="scale(1 1) rotate(0) translate(4 1236)">
<polygon fill="white" stroke="none" points="-4,4 -4,-1236 872,-1236 872,4 -4,4"/>
<!-- 0 -->
<g id="node1" class="node">
<title>0</title>
<ellipse fill="none" stroke="black" cx="470" cy="-1214" rx="27" ry="18"/>
<text text-anchor="middle" x="470" y="-1209.8" font-family="Times,serif" font-size="14.00">0</text>
</g>
<!-- 100 -->
<g id="node2" class="node">
<title>100</title>
<ellipse fill="none" stroke="black" cx="211" cy="-1122" rx="27" ry="18"/>
<text text-anchor="middle" x="211" y="-1117.8" font-family="Times,serif" font-size="14.00">100</text>
</g>
<!-- 0&#45;&gt;100 -->
<g id="edge1" class="edge">
<title>0&#45;&gt;100</title>
<path fill="none" stroke="black" d="M443.73,-1208.58C413.92,-1203.14 364.1,-1192.78 323,-1178 294.27,-1167.67 263.23,-1152.05 241.13,-1140.09"/>
<polygon fill="black" stroke="black" points="242.82,-1137.02 232.37,-1135.28 239.45,-1143.16 242.82,-1137.02"/>
<text text-anchor="start" x="327" y="-1166" font-family="Courier New" font-weight="bold" font-size="10.00" fill="orange">DROP(0,0)</text>
</g>
<!-- 101 -->
<g id="node14" class="node">
<title>101</title>
<ellipse fill="none" stroke="black" cx="211" cy="-1030" rx="27" ry="18"/>
<text text-anchor="middle" x="211" y="-1025.8" font-family="Times,serif" font-size="14.00">101</text>
</g>
<!-- 100&#45;&gt;101 -->
<g id="edge17" class="edge">
<title>100&#45;&gt;101</title>
<path fill="none" stroke="black" d="M211,-1103.65C211,-1091.2 211,-1074.14 211,-1059.68"/>
<polygon fill="black" stroke="black" points="214.5,-1059.81 211,-1049.81 207.5,-1059.81 214.5,-1059.81"/>
<text text-anchor="start" x="215" y="-1074" font-family="Courier New" font-weight="bold" font-size="10.00" fill="blue">CLEAR(WVIEWID,)</text>
</g>
<!-- 1 -->
<g id="node3" class="node">
<title>1</title>
<ellipse fill="none" stroke="black" cx="127" cy="-662" rx="27" ry="18"/>
<text text-anchor="middle" x="127" y="-657.8" font-family="Times,serif" font-size="14.00">1</text>
</g>
<!-- 2 -->
<g id="node4" class="node">
<title>2</title>
<ellipse fill="none" stroke="black" cx="127" cy="-570" rx="27" ry="18"/>
<text text-anchor="middle" x="127" y="-565.8" font-family="Times,serif" font-size="14.00">2</text>
</g>
<!-- 1&#45;&gt;2 -->
<g id="edge2" class="edge">
<title>1&#45;&gt;2</title>
<path fill="none" stroke="black" d="M127,-643.65C127,-631.2 127,-614.14 127,-599.68"/>
<polygon fill="black" stroke="black" points="130.5,-599.81 127,-589.81 123.5,-599.81 130.5,-599.81"/>
<text text-anchor="start" x="131" y="-614" font-family="Courier New" font-weight="bold" font-size="10.00" fill="blue">SPELL_ME(WOBJECT,SIG_OBJECT)</text>
</g>
<!-- 3 -->
<g id="node5" class="node">
<title>3</title>
<ellipse fill="none" stroke="black" cx="61" cy="-478" rx="27" ry="18"/>
<text text-anchor="middle" x="61" y="-473.8" font-family="Times,serif" font-size="14.00">3</text>
</g>
<!-- 2&#45;&gt;3 -->
<g id="edge3" class="edge">
<title>2&#45;&gt;3</title>
<path fill="none" stroke="black" d="M100.7,-565.44C81.69,-561.35 57.28,-552.6 45,-534 39.2,-525.22 40.93,-514.31 44.95,-504.53"/>
<polygon fill="black" stroke="black" points="47.94,-506.37 49.28,-495.86 41.68,-503.24 47.94,-506.37"/>
<text text-anchor="start" x="49" y="-522" font-family="Courier New" font-weight="bold" font-size="10.00" fill="blue">PLAYWAVE(0,SOUND_POPUP)</text>
</g>
<!-- 4 -->
<g id="node6" class="node">
<title>4</title>
<ellipse fill="none" stroke="black" cx="192" cy="-386" rx="27" ry="18"/>
<text text-anchor="middle" x="192" y="-381.8" font-family="Times,serif" font-size="14.00">4</text>
</g>
<!-- 3&#45;&gt;4 -->
<g id="edge4" class="edge">
<title>3&#45;&gt;4</title>
<path fill="none" stroke="black" d="M67.09,-460.2C72.28,-448.06 80.83,-432.08 93,-422 110.69,-407.35 134.94,-398.64 155.01,-393.58"/>
<polygon fill="black" stroke="black" points="155.53,-397.05 164.49,-391.4 153.96,-390.23 155.53,-397.05"/>
<text text-anchor="start" x="97" y="-430" font-family="Courier New" font-weight="bold" font-size="10.00" fill="blue">ASHOW(WOBJECT,)</text>
</g>
<!-- 4&#45;&gt;100 -->
<g id="edge5" class="edge">
<title>4&#45;&gt;100</title>
<path fill="none" stroke="black" d="M164.9,-387.64C111.97,-390.49 0,-405.03 0,-477 0,-1031 0,-1031 0,-1031 0,-1105.11 111.5,-1119.03 172.39,-1121.11"/>
<polygon fill="black" stroke="black" points="172.25,-1124.61 182.33,-1121.35 172.42,-1117.61 172.25,-1124.61"/>
<text text-anchor="start" x="4" y="-752" font-family="Courier New" font-weight="bold" font-size="10.00" fill="orange">DROP(0,0)</text>
</g>
<!-- 4&#45;&gt;2 -->
<g id="edge8" class="edge">
<title>4&#45;&gt;2</title>
<path fill="none" stroke="black" d="M197.03,-403.89C204.61,-432.84 215.61,-492.81 191,-534 184.55,-544.79 173.48,-552.48 162.34,-557.84"/>
<polygon fill="black" stroke="black" points="161.03,-554.6 153.18,-561.71 163.76,-561.04 161.03,-554.6"/>
<text text-anchor="start" x="211" y="-476" font-family="Courier New" font-weight="bold" font-size="10.00" fill="orange">WAIT(0,0)</text>
</g>
<!-- 10 -->
<g id="node7" class="node">
<title>10</title>
<ellipse fill="none" stroke="black" cx="192" cy="-294" rx="27" ry="18"/>
<text text-anchor="middle" x="192" y="-289.8" font-family="Times,serif" font-size="14.00">10</text>
</g>
<!-- 4&#45;&gt;10 -->
<g id="edge6" class="edge">
<title>4&#45;&gt;10</title>
<path fill="none" stroke="black" d="M192,-367.65C192,-355.2 192,-338.14 192,-323.68"/>
<polygon fill="black" stroke="black" points="195.5,-323.81 192,-313.81 188.5,-323.81 195.5,-323.81"/>
<text text-anchor="start" x="196" y="-338" font-family="Courier New" font-weight="bold" font-size="10.00" fill="orange">GRAB(0,0)</text>
</g>
<!-- 20 -->
<g id="node8" class="node">
<title>20</title>
<ellipse fill="none" stroke="black" cx="420" cy="-294" rx="27" ry="18"/>
<text text-anchor="middle" x="420" y="-289.8" font-family="Times,serif" font-size="14.00">20</text>
</g>
<!-- 4&#45;&gt;20 -->
<g id="edge7" class="edge">
<title>4&#45;&gt;20</title>
<path fill="none" stroke="black" d="M214.7,-376.04C255.05,-360.11 339.46,-326.79 386.51,-308.22"/>
<polygon fill="black" stroke="black" points="387.63,-311.54 395.65,-304.61 385.06,-305.03 387.63,-311.54"/>
<text text-anchor="start" x="331" y="-338" font-family="Courier New" font-weight="bold" font-size="10.00" fill="orange">WAIT(0,SIG_BURST)</text>
</g>
<!-- 12 -->
<g id="node9" class="node">
<title>12</title>
<ellipse fill="none" stroke="black" cx="310" cy="-110" rx="27" ry="18"/>
<text text-anchor="middle" x="310" y="-105.8" font-family="Times,serif" font-size="14.00">12</text>
</g>
<!-- 10&#45;&gt;12 -->
<g id="edge9" class="edge">
<title>10&#45;&gt;12</title>
<path fill="none" stroke="black" d="M219.22,-291.76C243.4,-289.09 277.65,-281.13 296,-258 322.7,-224.34 320.44,-171.75 315.7,-139.44"/>
<polygon fill="black" stroke="black" points="319.16,-138.92 314.06,-129.63 312.25,-140.07 319.16,-138.92"/>
<text text-anchor="start" x="323" y="-200" font-family="Courier New" font-weight="bold" font-size="10.00" fill="blue">EQUALi(WVIEWID,0)</text>
</g>
<!-- 11 -->
<g id="node10" class="node">
<title>11</title>
<ellipse fill="none" stroke="black" cx="184" cy="-202" rx="27" ry="18"/>
<text text-anchor="middle" x="184" y="-197.8" font-family="Times,serif" font-size="14.00">11</text>
</g>
<!-- 10&#45;&gt;11 -->
<g id="edge10" class="edge">
<title>10&#45;&gt;11</title>
<path fill="none" stroke="black" d="M184.98,-276.2C182.95,-270.53 181.01,-264.08 180,-258 178.57,-249.4 178.66,-239.96 179.37,-231.36"/>
<polygon fill="black" stroke="black" points="182.85,-231.79 180.53,-221.45 175.89,-230.98 182.85,-231.79"/>
<text text-anchor="start" x="184" y="-246" font-family="Courier New" font-weight="bold" font-size="10.00" fill="blue">LOADVIEW(WVIEWID,)</text>
</g>
<!-- 21 -->
<g id="node12" class="node">
<title>21</title>
<ellipse fill="none" stroke="black" cx="465" cy="-202" rx="27" ry="18"/>
<text text-anchor="middle" x="465" y="-197.8" font-family="Times,serif" font-size="14.00">21</text>
</g>
<!-- 20&#45;&gt;21 -->
<g id="edge14" class="edge">
<title>20&#45;&gt;21</title>
<path fill="none" stroke="black" d="M420.51,-275.53C421.47,-264.27 423.92,-249.61 430,-238 432.56,-233.12 436.03,-228.49 439.8,-224.29"/>
<polygon fill="black" stroke="black" points="442.09,-226.94 446.68,-217.4 437.14,-222 442.09,-226.94"/>
<text text-anchor="start" x="434" y="-246" font-family="Courier New" font-weight="bold" font-size="10.00" fill="blue">CLEAR(WOBJECT,)</text>
</g>
<!-- 13 -->
<g id="node11" class="node">
<title>13</title>
<ellipse fill="none" stroke="black" cx="504" cy="-18" rx="27" ry="18"/>
<text text-anchor="middle" x="504" y="-13.8" font-family="Times,serif" font-size="14.00">13</text>
</g>
<!-- 12&#45;&gt;13 -->
<g id="edge12" class="edge">
<title>12&#45;&gt;13</title>
<path fill="none" stroke="black" d="M331.88,-98.85C366.02,-83.01 432.18,-52.32 471.78,-33.95"/>
<polygon fill="black" stroke="black" points="473.23,-37.13 480.83,-29.75 470.29,-30.78 473.23,-37.13"/>
<text text-anchor="start" x="428" y="-62" font-family="Courier New" font-weight="bold" font-size="10.00" fill="blue">SHOW(0,0)</text>
</g>
<!-- 11&#45;&gt;12 -->
<g id="edge11" class="edge">
<title>11&#45;&gt;12</title>
<path fill="none" stroke="black" d="M184.17,-183.52C185.21,-171.52 188.51,-156.01 198,-146 217.03,-125.92 247.38,-117.3 271.69,-113.62"/>
<polygon fill="black" stroke="black" points="272.08,-117.1 281.56,-112.38 271.2,-110.16 272.08,-117.1"/>
<text text-anchor="start" x="202" y="-154" font-family="Courier New" font-weight="bold" font-size="10.00" fill="blue">CLEAR(WVIEWID,)</text>
</g>
<!-- 13&#45;&gt;0 -->
<g id="edge13" class="edge">
<title>13&#45;&gt;0</title>
<path fill="none" stroke="black" d="M531.38,-19.54C584.86,-22.2 698,-36.41 698,-109 698,-1123 698,-1123 698,-1123 698,-1163.55 571.67,-1193.6 507.08,-1206.31"/>
<polygon fill="black" stroke="black" points="506.8,-1202.8 497.64,-1208.13 508.12,-1209.68 506.8,-1202.8"/>
<text text-anchor="start" x="702" y="-614" font-family="Courier New" font-weight="bold" font-size="10.00" fill="blue">SPELL_ME(WOBJECT,SIG_CLEAR)</text>
</g>
<!-- 22 -->
<g id="node13" class="node">
<title>22</title>
<ellipse fill="none" stroke="black" cx="503" cy="-110" rx="27" ry="18"/>
<text text-anchor="middle" x="503" y="-105.8" font-family="Times,serif" font-size="14.00">22</text>
</g>
<!-- 21&#45;&gt;22 -->
<g id="edge15" class="edge">
<title>21&#45;&gt;22</title>
<path fill="none" stroke="black" d="M461.97,-183.66C460.8,-172.44 460.79,-157.79 466,-146 468.39,-140.58 472.07,-135.6 476.19,-131.19"/>
<polygon fill="black" stroke="black" points="478.43,-133.9 483.35,-124.52 473.65,-128.78 478.43,-133.9"/>
<text text-anchor="start" x="470" y="-154" font-family="Courier New" font-weight="bold" font-size="10.00" fill="blue">SHOW(0,0)</text>
</g>
<!-- 22&#45;&gt;0 -->
<g id="edge16" class="edge">
<title>22&#45;&gt;0</title>
<path fill="none" stroke="black" d="M515.77,-126.26C520.17,-132.13 524.79,-139.09 528,-146 538.62,-168.88 542,-175.78 542,-201 542,-1123 542,-1123 542,-1123 542,-1152.5 518.12,-1177.87 497.87,-1194.08"/>
<polygon fill="black" stroke="black" points="495.98,-1191.13 490.12,-1199.96 500.21,-1196.7 495.98,-1191.13"/>
<text text-anchor="start" x="546" y="-660" font-family="Courier New" font-weight="bold" font-size="10.00" fill="blue">VIDEO(0,IDS_SMBURST)</text>
</g>
<!-- 101&#45;&gt;1 -->
<g id="edge20" class="edge">
<title>101&#45;&gt;1</title>
<path fill="none" stroke="black" d="M211,-1011.75C211,-993.63 211,-964.31 211,-939 211,-939 211,-939 211,-753 211,-727.78 212.83,-717.64 197,-698 188.17,-687.03 175.01,-679.21 162.48,-673.78"/>
<polygon fill="black" stroke="black" points="163.76,-670.52 153.17,-670.16 161.22,-677.05 163.76,-670.52"/>
<text text-anchor="start" x="215" y="-844" font-family="Courier New" font-weight="bold" font-size="10.00" fill="blue">Z_EPSILON(0,0)</text>
</g>
<!-- 102 -->
<g id="node15" class="node">
<title>102</title>
<ellipse fill="none" stroke="black" cx="333" cy="-938" rx="27" ry="18"/>
<text text-anchor="middle" x="333" y="-933.8" font-family="Times,serif" font-size="14.00">102</text>
</g>
<!-- 101&#45;&gt;102 -->
<g id="edge18" class="edge">
<title>101&#45;&gt;102</title>
<path fill="none" stroke="black" d="M217.84,-1012.34C223.53,-1000.27 232.7,-984.31 245,-974 259.88,-961.52 279.77,-953.11 296.87,-947.66"/>
<polygon fill="black" stroke="black" points="297.56,-951.1 306.17,-944.93 295.59,-944.39 297.56,-951.1"/>
<text text-anchor="start" x="249" y="-982" font-family="Courier New" font-weight="bold" font-size="10.00" fill="blue">IS_A(WOBJECT,IDC_BOMB)</text>
</g>
<!-- 120 -->
<g id="node16" class="node">
<title>120</title>
<ellipse fill="none" stroke="black" cx="60" cy="-938" rx="27" ry="18"/>
<text text-anchor="middle" x="60" y="-933.8" font-family="Times,serif" font-size="14.00">120</text>
</g>
<!-- 101&#45;&gt;120 -->
<g id="edge19" class="edge">
<title>101&#45;&gt;120</title>
<path fill="none" stroke="black" d="M184.08,-1027.33C141.64,-1024.06 62.21,-1015.22 45,-994 38.32,-985.76 39.86,-974.77 43.92,-964.79"/>
<polygon fill="black" stroke="black" points="47.03,-966.39 48.35,-955.88 40.76,-963.27 47.03,-966.39"/>
<text text-anchor="start" x="49" y="-982" font-family="Courier New" font-weight="bold" font-size="10.00" fill="blue">IS_A(WOBJECT,IDC_SCROLL)</text>
</g>
<!-- 102&#45;&gt;0 -->
<g id="edge21" class="edge">
<title>102&#45;&gt;0</title>
<path fill="none" stroke="black" d="M355.34,-948.6C366.06,-954.38 378.05,-962.81 385,-974 411.5,-1016.66 384.28,-1038.3 400,-1086 412.47,-1123.83 436.26,-1163.4 452.62,-1188.12"/>
<polygon fill="black" stroke="black" points="449.57,-1189.86 458.06,-1196.19 455.37,-1185.94 449.57,-1189.86"/>
<text text-anchor="start" x="404" y="-1074" font-family="Courier New" font-weight="bold" font-size="10.00" fill="blue">SPELL_ME(0,SIG_BOMB)</text>
</g>
<!-- 121 -->
<g id="node17" class="node">
<title>121</title>
<ellipse fill="none" stroke="black" cx="76" cy="-846" rx="27" ry="18"/>
<text text-anchor="middle" x="76" y="-841.8" font-family="Times,serif" font-size="14.00">121</text>
</g>
<!-- 120&#45;&gt;121 -->
<g id="edge22" class="edge">
<title>120&#45;&gt;121</title>
<path fill="none" stroke="black" d="M63.08,-919.65C65.32,-907.07 68.39,-889.79 70.98,-875.24"/>
<polygon fill="black" stroke="black" points="74.36,-876.25 72.66,-865.79 67.46,-875.02 74.36,-876.25"/>
<text text-anchor="start" x="74" y="-890" font-family="Courier New" font-weight="bold" font-size="10.00" fill="blue">MOV(WTEMP1,WOBJECT)</text>
</g>
<!-- 122 -->
<g id="node18" class="node">
<title>122</title>
<ellipse fill="none" stroke="black" cx="107" cy="-754" rx="27" ry="18"/>
<text text-anchor="middle" x="107" y="-749.8" font-family="Times,serif" font-size="14.00">122</text>
</g>
<!-- 121&#45;&gt;122 -->
<g id="edge23" class="edge">
<title>121&#45;&gt;122</title>
<path fill="none" stroke="black" d="M75.2,-827.61C75.26,-816.51 76.42,-802 81,-790 82.42,-786.28 84.35,-782.61 86.53,-779.13"/>
<polygon fill="black" stroke="black" points="89.26,-781.34 92.21,-771.16 83.55,-777.28 89.26,-781.34"/>
<text text-anchor="start" x="85" y="-798" font-family="Courier New" font-weight="bold" font-size="10.00" fill="blue">MOV(WVIEWID,LVIEW)</text>
</g>
<!-- 122&#45;&gt;1 -->
<g id="edge24" class="edge">
<title>122&#45;&gt;1</title>
<path fill="none" stroke="black" d="M84.69,-743.33C68.81,-735.94 49.52,-725.74 45,-718 40.52,-710.32 40.1,-705.42 45,-698 54.98,-682.89 72.97,-674.28 89.56,-669.38"/>
<polygon fill="black" stroke="black" points="90.4,-672.78 99.23,-666.93 88.68,-666 90.4,-672.78"/>
<text text-anchor="start" x="49" y="-706" font-family="Courier New" font-weight="bold" font-size="10.00" fill="blue">LOADVIEW(0,IDV_PARCHPAN)</text>
</g>
</g>
</svg>
