<?xml version="1.0" encoding="UTF-8" standalone="no"?>
<!DOCTYPE svg PUBLIC "-//W3C//DTD SVG 1.1//EN"
 "http://www.w3.org/Graphics/SVG/1.1/DTD/svg11.dtd">
<!-- Generated by graphviz version 7.1.0 (20230121.1956)
 -->
<!-- Pages: 1 -->
<svg width="1978pt" height="1012pt"
 viewBox="0.00 0.00 1978.00 1012.00" xmlns="http://www.w3.org/2000/svg" xmlns:xlink="http://www.w3.org/1999/xlink">
<g id="graph0" class="graph" transform="scale(1 1) rotate(0) translate(4 1008)">
<polygon fill="white" stroke="none" points="-4,4 -4,-1008 1974,-1008 1974,4 -4,4"/>
<!-- 0 -->
<g id="node1" class="node">
<title>0</title>
<ellipse fill="none" stroke="black" cx="855" cy="-986" rx="27" ry="18"/>
<text text-anchor="middle" x="855" y="-981.8" font-family="Times,serif" font-size="14.00">0</text>
</g>
<!-- 20 -->
<g id="node2" class="node">
<title>20</title>
<ellipse fill="none" stroke="black" cx="892" cy="-730" rx="27" ry="18"/>
<text text-anchor="middle" x="892" y="-725.8" font-family="Times,serif" font-size="14.00">20</text>
</g>
<!-- 0&#45;&gt;20 -->
<g id="edge1" class="edge">
<title>0&#45;&gt;20</title>
<path fill="none" stroke="black" d="M838.65,-971.17C823.77,-957.41 802.82,-934.83 794,-910 788.64,-894.92 789.27,-889.28 794,-874 808.8,-826.22 845.69,-780.2 869.75,-753.8"/>
<polygon fill="black" stroke="black" points="872.08,-756.43 876.34,-746.73 866.96,-751.66 872.08,-756.43"/>
<text text-anchor="start" x="798" y="-889.2" font-family="Courier New" font-weight="bold" font-size="12.00" fill="orange">WAIT(0,SIG_HAPPY)</text>
</g>
<!-- 21 -->
<g id="node3" class="node">
<title>21</title>
<ellipse fill="none" stroke="black" cx="1334" cy="-676" rx="27" ry="18"/>
<text text-anchor="middle" x="1334" y="-671.8" font-family="Times,serif" font-size="14.00">21</text>
</g>
<!-- 0&#45;&gt;21 -->
<g id="edge2" class="edge">
<title>0&#45;&gt;21</title>
<path fill="none" stroke="black" d="M882.08,-984.6C1003.95,-982.67 1496.67,-973.42 1519,-950 1537.25,-930.86 1536.88,-732.35 1520,-712 1501.64,-689.86 1421.41,-681.63 1372.51,-678.64"/>
<polygon fill="black" stroke="black" points="1372.8,-675.16 1362.62,-678.09 1372.41,-682.14 1372.8,-675.16"/>
<text text-anchor="start" x="1536.5" y="-835.2" font-family="Courier New" font-weight="bold" font-size="12.00" fill="orange">WAIT(0,SIG_HURT)</text>
</g>
<!-- 22 -->
<g id="node4" class="node">
<title>22</title>
<ellipse fill="none" stroke="black" cx="239" cy="-892" rx="27" ry="18"/>
<text text-anchor="middle" x="239" y="-887.8" font-family="Times,serif" font-size="14.00">22</text>
</g>
<!-- 0&#45;&gt;22 -->
<g id="edge3" class="edge">
<title>0&#45;&gt;22</title>
<path fill="none" stroke="black" d="M827.86,-984.32C723.53,-981.55 351.68,-970.32 303,-950 285.87,-942.85 270.24,-929.14 258.72,-916.95"/>
<polygon fill="black" stroke="black" points="261.39,-914.69 252.1,-909.59 256.18,-919.37 261.39,-914.69"/>
<text text-anchor="start" x="307.5" y="-936.2" font-family="Courier New" font-weight="bold" font-size="12.00" fill="orange">WAIT(0,SIG_KISS)</text>
</g>
<!-- 23 -->
<g id="node5" class="node">
<title>23</title>
<ellipse fill="none" stroke="black" cx="945" cy="-838" rx="27" ry="18"/>
<text text-anchor="middle" x="945" y="-833.8" font-family="Times,serif" font-size="14.00">23</text>
</g>
<!-- 0&#45;&gt;23 -->
<g id="edge4" class="edge">
<title>0&#45;&gt;23</title>
<path fill="none" stroke="black" d="M850.26,-967.96C847.91,-955.57 847.19,-939.08 856,-928 876.53,-902.18 904.79,-933.44 928,-910 938.94,-898.95 943.3,-882.19 944.87,-867.73"/>
<polygon fill="black" stroke="black" points="948.36,-868.02 945.52,-857.81 941.37,-867.56 948.36,-868.02"/>
<text text-anchor="start" x="860" y="-936.2" font-family="Courier New" font-weight="bold" font-size="12.00" fill="orange">WAIT(0,SIG_MAD)</text>
</g>
<!-- 24 -->
<g id="node6" class="node">
<title>24</title>
<ellipse fill="none" stroke="black" cx="1026" cy="-838" rx="27" ry="18"/>
<text text-anchor="middle" x="1026" y="-833.8" font-family="Times,serif" font-size="14.00">24</text>
</g>
<!-- 0&#45;&gt;24 -->
<g id="edge5" class="edge">
<title>0&#45;&gt;24</title>
<path fill="none" stroke="black" d="M882.09,-983.08C907.89,-979.94 946.47,-971.69 972,-950 985.55,-938.48 1004.23,-895.25 1015.69,-866.26"/>
<polygon fill="black" stroke="black" points="1018.93,-867.57 1019.29,-856.98 1012.41,-865.04 1018.93,-867.57"/>
<text text-anchor="start" x="991" y="-936.2" font-family="Courier New" font-weight="bold" font-size="12.00" fill="orange">WAIT(0,SIG_SAD)</text>
</g>
<!-- 25 -->
<g id="node7" class="node">
<title>25</title>
<ellipse fill="none" stroke="black" cx="1627" cy="-730" rx="27" ry="18"/>
<text text-anchor="middle" x="1627" y="-725.8" font-family="Times,serif" font-size="14.00">25</text>
</g>
<!-- 0&#45;&gt;25 -->
<g id="edge6" class="edge">
<title>0&#45;&gt;25</title>
<path fill="none" stroke="black" d="M882.36,-984.66C1003.47,-983.04 1488.12,-975.02 1551,-950 1610.75,-926.23 1634.08,-914.4 1661,-856 1676.14,-823.15 1658.83,-782.23 1643.88,-756.36"/>
<polygon fill="black" stroke="black" points="1646.9,-754.59 1638.71,-747.87 1640.92,-758.23 1646.9,-754.59"/>
<text text-anchor="start" x="1655.5" y="-889.2" font-family="Courier New" font-weight="bold" font-size="12.00" fill="orange">WAIT(0,SIG_SURPRISED)</text>
</g>
<!-- 26 -->
<g id="node8" class="node">
<title>26</title>
<ellipse fill="none" stroke="black" cx="416" cy="-892" rx="27" ry="18"/>
<text text-anchor="middle" x="416" y="-887.8" font-family="Times,serif" font-size="14.00">26</text>
</g>
<!-- 0&#45;&gt;26 -->
<g id="edge7" class="edge">
<title>0&#45;&gt;26</title>
<path fill="none" stroke="black" d="M827.78,-984.1C741.97,-981.07 480.87,-970.25 449,-950 438.29,-943.19 430.66,-931.57 425.46,-920.59"/>
<polygon fill="black" stroke="black" points="428.71,-919.3 421.62,-911.43 422.25,-922 428.71,-919.3"/>
<text text-anchor="start" x="453.5" y="-936.2" font-family="Courier New" font-weight="bold" font-size="12.00" fill="orange">WAIT(0,SIG_STRESS)</text>
</g>
<!-- 27 -->
<g id="node9" class="node">
<title>27</title>
<ellipse fill="none" stroke="black" cx="680" cy="-838" rx="27" ry="18"/>
<text text-anchor="middle" x="680" y="-833.8" font-family="Times,serif" font-size="14.00">27</text>
</g>
<!-- 0&#45;&gt;27 -->
<g id="edge8" class="edge">
<title>0&#45;&gt;27</title>
<path fill="none" stroke="black" d="M827.98,-983.74C782.99,-981.02 695.81,-972.86 677,-950 658.08,-926.99 663.09,-891.32 670.04,-866.65"/>
<polygon fill="black" stroke="black" points="673.32,-867.89 672.95,-857.3 666.64,-865.81 673.32,-867.89"/>
<text text-anchor="start" x="681.5" y="-936.2" font-family="Courier New" font-weight="bold" font-size="12.00" fill="orange">WAIT(0,SIG_WAVE)</text>
</g>
<!-- 50 -->
<g id="node10" class="node">
<title>50</title>
<ellipse fill="none" stroke="black" cx="1115" cy="-892" rx="27" ry="18"/>
<text text-anchor="middle" x="1115" y="-887.8" font-family="Times,serif" font-size="14.00">50</text>
</g>
<!-- 0&#45;&gt;50 -->
<g id="edge9" class="edge">
<title>0&#45;&gt;50</title>
<path fill="none" stroke="black" d="M882.44,-985.41C942.03,-985.67 1080.42,-982.66 1111,-950 1118.02,-942.5 1120.01,-931.75 1119.9,-921.6"/>
<polygon fill="black" stroke="black" points="1123.4,-921.39 1119.1,-911.7 1116.42,-921.95 1123.4,-921.39"/>
<text text-anchor="start" x="1123.5" y="-936.2" font-family="Courier New" font-weight="bold" font-size="12.00" fill="orange">WAIT(0,SIG_BOMB)</text>
</g>
<!-- 100 -->
<g id="node11" class="node">
<title>100</title>
<ellipse fill="none" stroke="black" cx="1482" cy="-892" rx="27" ry="18"/>
<text text-anchor="middle" x="1482" y="-887.8" font-family="Times,serif" font-size="14.00">100</text>
</g>
<!-- 0&#45;&gt;100 -->
<g id="edge10" class="edge">
<title>0&#45;&gt;100</title>
<path fill="none" stroke="black" d="M882.36,-984.38C950.73,-982.49 1134.31,-975.26 1285,-950 1355.59,-938.17 1373.1,-932.65 1441,-910 1443.75,-909.08 1446.58,-908.07 1449.4,-907"/>
<polygon fill="black" stroke="black" points="1450.68,-910.26 1458.68,-903.32 1448.1,-903.76 1450.68,-910.26"/>
<text text-anchor="start" x="1389" y="-936.2" font-family="Courier New" font-weight="bold" font-size="12.00" fill="orange">WAIT(0,SIG_CLEAR)</text>
</g>
<!-- 2 -->
<g id="node12" class="node">
<title>2</title>
<ellipse fill="none" stroke="black" cx="121" cy="-892" rx="27" ry="18"/>
<text text-anchor="middle" x="121" y="-887.8" font-family="Times,serif" font-size="14.00">2</text>
</g>
<!-- 0&#45;&gt;2 -->
<g id="edge11" class="edge">
<title>0&#45;&gt;2</title>
<path fill="none" stroke="black" d="M827.87,-984.52C711.04,-982.34 254.01,-972.44 194,-950 174.6,-942.75 156.25,-928.36 142.79,-915.86"/>
<polygon fill="black" stroke="black" points="145.4,-913.52 135.79,-909.07 140.53,-918.54 145.4,-913.52"/>
<text text-anchor="start" x="198" y="-936.2" font-family="Courier New" font-weight="bold" font-size="12.00" fill="orange">WAIT(0,0)</text>
</g>
<!-- 70 -->
<g id="node18" class="node">
<title>70</title>
<ellipse fill="none" stroke="black" cx="1002" cy="-582" rx="27" ry="18"/>
<text text-anchor="middle" x="1002" y="-577.8" font-family="Times,serif" font-size="14.00">70</text>
</g>
<!-- 20&#45;&gt;70 -->
<g id="edge18" class="edge">
<title>20&#45;&gt;70</title>
<path fill="none" stroke="black" d="M872.3,-717.38C868.61,-715.44 864.74,-713.56 861,-712 834.9,-701.14 816.92,-716.64 800,-694 790.42,-681.18 790.87,-671.14 800,-658 836.92,-604.91 916.07,-589.32 963.6,-584.8"/>
<polygon fill="black" stroke="black" points="963.76,-588.29 973.44,-583.99 963.19,-581.32 963.76,-588.29"/>
<text text-anchor="start" x="804" y="-673.2" font-family="Courier New" font-weight="bold" font-size="12.00" fill="blue">ASSIGN(BPARM,IDp_xxHAPPY)</text>
</g>
<!-- 21&#45;&gt;70 -->
<g id="edge19" class="edge">
<title>21&#45;&gt;70</title>
<path fill="none" stroke="black" d="M1310.32,-666.96C1275.75,-655.37 1209.34,-633.64 1152,-618 1113.57,-607.51 1069.07,-597.38 1038.58,-590.74"/>
<polygon fill="black" stroke="black" points="1039.62,-587.38 1029.1,-588.69 1038.14,-594.22 1039.62,-587.38"/>
<text text-anchor="start" x="1226" y="-626.2" font-family="Courier New" font-weight="bold" font-size="12.00" fill="blue">ASSIGN(BPARM,IDp_xxHURT)</text>
</g>
<!-- 80 -->
<g id="node19" class="node">
<title>80</title>
<ellipse fill="none" stroke="black" cx="369" cy="-784" rx="27" ry="18"/>
<text text-anchor="middle" x="369" y="-779.8" font-family="Times,serif" font-size="14.00">80</text>
</g>
<!-- 22&#45;&gt;80 -->
<g id="edge20" class="edge">
<title>22&#45;&gt;80</title>
<path fill="none" stroke="black" d="M217.89,-880.7C208.44,-874.87 198.26,-866.61 193,-856 185.89,-841.66 182.85,-832.37 193,-820 210.05,-799.23 284.02,-790.56 330.47,-787.11"/>
<polygon fill="black" stroke="black" points="330.67,-790.61 340.41,-786.43 330.19,-783.62 330.67,-790.61"/>
<text text-anchor="start" x="197" y="-835.2" font-family="Courier New" font-weight="bold" font-size="12.00" fill="blue">ASSIGN(BPARM,IDp_xxKISS)</text>
</g>
<!-- 23&#45;&gt;70 -->
<g id="edge21" class="edge">
<title>23&#45;&gt;70</title>
<path fill="none" stroke="black" d="M938.26,-820.26C929.09,-794.47 916.24,-744.6 939,-712 952.28,-692.98 973.55,-712.15 988,-694 1006.42,-670.86 1007.88,-635.97 1006.04,-611.5"/>
<polygon fill="black" stroke="black" points="1009.53,-611.2 1005.04,-601.61 1002.56,-611.91 1009.53,-611.2"/>
<text text-anchor="start" x="943.5" y="-727.2" font-family="Courier New" font-weight="bold" font-size="12.00" fill="blue">ASSIGN(BPARM,IDp_xxMAD)</text>
</g>
<!-- 24&#45;&gt;70 -->
<g id="edge22" class="edge">
<title>24&#45;&gt;70</title>
<path fill="none" stroke="black" d="M1045.44,-825.18C1076.92,-804.39 1133.8,-759.02 1116,-712 1098.6,-666.04 1056.53,-625.91 1028.65,-603.07"/>
<polygon fill="black" stroke="black" points="1030.98,-600.45 1020.98,-596.95 1026.62,-605.92 1030.98,-600.45"/>
<text text-anchor="start" x="1123.5" y="-727.2" font-family="Courier New" font-weight="bold" font-size="12.00" fill="blue">ASSIGN(BPARM,IDp_xxSAD)</text>
</g>
<!-- 25&#45;&gt;70 -->
<g id="edge23" class="edge">
<title>25&#45;&gt;70</title>
<path fill="none" stroke="black" d="M1608.49,-716.61C1571.74,-692.74 1486.14,-640.69 1406,-618 1337.99,-598.74 1128.1,-588.16 1040.76,-584.49"/>
<polygon fill="black" stroke="black" points="1040.92,-581 1030.79,-584.08 1040.63,-587.99 1040.92,-581"/>
<text text-anchor="start" x="1574" y="-673.2" font-family="Courier New" font-weight="bold" font-size="12.00" fill="blue">ASSIGN(BPARM,IDp_xxSURPRISED)</text>
</g>
<!-- 26&#45;&gt;80 -->
<g id="edge24" class="edge">
<title>26&#45;&gt;80</title>
<path fill="none" stroke="black" d="M403.42,-875.65C399.04,-869.77 394.38,-862.82 391,-856 384.3,-842.5 379.14,-826.54 375.5,-813.17"/>
<polygon fill="black" stroke="black" points="378.94,-812.51 373.07,-803.69 372.16,-814.25 378.94,-812.51"/>
<text text-anchor="start" x="395.5" y="-835.2" font-family="Courier New" font-weight="bold" font-size="12.00" fill="blue">ASSIGN(BPARM,IDp_xxSTRESS)</text>
</g>
<!-- 27&#45;&gt;70 -->
<g id="edge25" class="edge">
<title>27&#45;&gt;70</title>
<path fill="none" stroke="black" d="M674.49,-820.07C667.34,-794.9 657.81,-746.84 676,-712 709.84,-647.19 743.51,-646.12 811,-618 861.31,-597.04 924.24,-588.6 963.8,-585.22"/>
<polygon fill="black" stroke="black" points="963.83,-588.73 973.53,-584.46 963.29,-581.75 963.83,-588.73"/>
<text text-anchor="start" x="680" y="-727.2" font-family="Courier New" font-weight="bold" font-size="12.00" fill="blue">ASSIGN(BPARM,IDp_xxWAVE)</text>
</g>
<!-- 51 -->
<g id="node24" class="node">
<title>51</title>
<ellipse fill="none" stroke="black" cx="1247" cy="-784" rx="27" ry="18"/>
<text text-anchor="middle" x="1247" y="-779.8" font-family="Times,serif" font-size="14.00">51</text>
</g>
<!-- 50&#45;&gt;51 -->
<g id="edge30" class="edge">
<title>50&#45;&gt;51</title>
<path fill="none" stroke="black" d="M1104.31,-875.24C1095.2,-859.66 1085.41,-835.9 1098,-820 1104.98,-811.2 1167.75,-798.75 1209.56,-791.32"/>
<polygon fill="black" stroke="black" points="1210,-794.79 1219.24,-789.62 1208.79,-787.9 1210,-794.79"/>
<text text-anchor="start" x="1102.5" y="-835.2" font-family="Courier New" font-weight="bold" font-size="12.00" fill="blue">VIDEO(0,IDS_EXPLODE1)</text>
</g>
<!-- 101 -->
<g id="node15" class="node">
<title>101</title>
<ellipse fill="none" stroke="black" cx="1322" cy="-784" rx="27" ry="18"/>
<text text-anchor="middle" x="1322" y="-779.8" font-family="Times,serif" font-size="14.00">101</text>
</g>
<!-- 100&#45;&gt;101 -->
<g id="edge13" class="edge">
<title>100&#45;&gt;101</title>
<path fill="none" stroke="black" d="M1463.33,-878.63C1435.39,-860.12 1382.51,-825.09 1349.95,-803.52"/>
<polygon fill="black" stroke="black" points="1352.08,-800.73 1341.81,-798.12 1348.21,-806.56 1352.08,-800.73"/>
<text text-anchor="start" x="1429" y="-835.2" font-family="Courier New" font-weight="bold" font-size="12.00" fill="blue">SHOW(0,0)</text>
</g>
<!-- 3 -->
<g id="node17" class="node">
<title>3</title>
<ellipse fill="none" stroke="black" cx="27" cy="-784" rx="27" ry="18"/>
<text text-anchor="middle" x="27" y="-779.8" font-family="Times,serif" font-size="14.00">3</text>
</g>
<!-- 2&#45;&gt;3 -->
<g id="edge17" class="edge">
<title>2&#45;&gt;3</title>
<path fill="none" stroke="black" d="M93.69,-890.61C68.16,-888.62 31.31,-881.19 13,-856 3.7,-843.21 6.93,-825.82 12.62,-811.46"/>
<polygon fill="black" stroke="black" points="15.71,-813.12 16.66,-802.57 9.34,-810.23 15.71,-813.12"/>
<text text-anchor="start" x="17" y="-835.2" font-family="Courier New" font-weight="bold" font-size="12.00" fill="blue">MOV(WPARM,PTR(WIP1))</text>
</g>
<!-- 10 -->
<g id="node13" class="node">
<title>10</title>
<ellipse fill="none" stroke="black" cx="1309" cy="-206" rx="27" ry="18"/>
<text text-anchor="middle" x="1309" y="-201.8" font-family="Times,serif" font-size="14.00">10</text>
</g>
<!-- 11 -->
<g id="node14" class="node">
<title>11</title>
<ellipse fill="none" stroke="black" cx="1710" cy="-112" rx="27" ry="18"/>
<text text-anchor="middle" x="1710" y="-107.8" font-family="Times,serif" font-size="14.00">11</text>
</g>
<!-- 10&#45;&gt;11 -->
<g id="edge12" class="edge">
<title>10&#45;&gt;11</title>
<path fill="none" stroke="black" d="M1334.39,-199.18C1403.14,-183.4 1593.16,-139.81 1673.44,-121.39"/>
<polygon fill="black" stroke="black" points="1674.02,-124.84 1682.99,-119.2 1672.46,-118.02 1674.02,-124.84"/>
<text text-anchor="start" x="1561.5" y="-156.2" font-family="Courier New" font-weight="bold" font-size="12.00" fill="blue">MOV(WSPRITE,WPARM)</text>
</g>
<!-- 12 -->
<g id="node16" class="node">
<title>12</title>
<ellipse fill="none" stroke="black" cx="1786" cy="-18" rx="27" ry="18"/>
<text text-anchor="middle" x="1786" y="-13.8" font-family="Times,serif" font-size="14.00">12</text>
</g>
<!-- 11&#45;&gt;12 -->
<g id="edge15" class="edge">
<title>11&#45;&gt;12</title>
<path fill="none" stroke="black" d="M1705.82,-93.91C1703.87,-81.81 1703.4,-65.7 1711,-54 1719.67,-40.65 1734.87,-32.3 1749.34,-27.12"/>
<polygon fill="black" stroke="black" points="1750.19,-30.53 1758.69,-24.2 1748.1,-23.84 1750.19,-30.53"/>
<text text-anchor="start" x="1715.5" y="-62.2" font-family="Courier New" font-weight="bold" font-size="12.00" fill="blue">ADD(WSPRITE,BPARM)</text>
</g>
<!-- 101&#45;&gt;0 -->
<g id="edge14" class="edge">
<title>101&#45;&gt;0</title>
<path fill="none" stroke="black" d="M1314,-801.68C1305.48,-819.53 1291.63,-848.7 1280,-874 1264.55,-907.62 1276.12,-928.51 1246,-950 1217.73,-970.17 986.63,-980.41 893.59,-983.74"/>
<polygon fill="black" stroke="black" points="893.57,-980.24 883.7,-984.09 893.81,-987.24 893.57,-980.24"/>
<text text-anchor="start" x="1284" y="-889.2" font-family="Courier New" font-weight="bold" font-size="12.00" fill="blue">SIGNAL(WIP4,SIG_CLEAR)</text>
</g>
<!-- 12&#45;&gt;0 -->
<g id="edge16" class="edge">
<title>12&#45;&gt;0</title>
<path fill="none" stroke="black" d="M1809.83,-27.05C1822.94,-32.64 1838.44,-41.39 1848,-54 1863.76,-74.78 1862,-84.91 1862,-111 1862,-893 1862,-893 1862,-893 1862,-1016.95 1712.18,-936.17 1589,-950 1324.44,-979.7 1003.47,-984.24 893.85,-984.9"/>
<polygon fill="black" stroke="black" points="893.92,-981.4 883.94,-984.95 893.96,-988.4 893.92,-981.4"/>
<text text-anchor="start" x="1866" y="-485.2" font-family="Courier New" font-weight="bold" font-size="12.00" fill="blue">SHOW(WSPRITE,)</text>
</g>
<!-- 4 -->
<g id="node20" class="node">
<title>4</title>
<ellipse fill="none" stroke="black" cx="115" cy="-676" rx="27" ry="18"/>
<text text-anchor="middle" x="115" y="-671.8" font-family="Times,serif" font-size="14.00">4</text>
</g>
<!-- 3&#45;&gt;4 -->
<g id="edge26" class="edge">
<title>3&#45;&gt;4</title>
<path fill="none" stroke="black" d="M39.61,-767.81C54.12,-750.34 78.12,-721.42 95.14,-700.92"/>
<polygon fill="black" stroke="black" points="97.75,-703.25 101.45,-693.32 92.37,-698.78 97.75,-703.25"/>
<text text-anchor="start" x="89" y="-727.2" font-family="Courier New" font-weight="bold" font-size="12.00" fill="blue">DIVI(WPARM,MAX_WISDOM/MAX_LEVEL)</text>
</g>
<!-- 71 -->
<g id="node26" class="node">
<title>71</title>
<ellipse fill="none" stroke="black" cx="787" cy="-488" rx="27" ry="18"/>
<text text-anchor="middle" x="787" y="-483.8" font-family="Times,serif" font-size="14.00">71</text>
</g>
<!-- 70&#45;&gt;71 -->
<g id="edge34" class="edge">
<title>70&#45;&gt;71</title>
<path fill="none" stroke="black" d="M979.8,-571.5C941.82,-555.25 864.19,-522.03 819.9,-503.08"/>
<polygon fill="black" stroke="black" points="821.36,-499.9 810.79,-499.18 818.61,-506.33 821.36,-499.9"/>
<text text-anchor="start" x="924.5" y="-532.2" font-family="Courier New" font-weight="bold" font-size="12.00" fill="blue">MOV(WSPRITE,WPARM)</text>
</g>
<!-- 81 -->
<g id="node29" class="node">
<title>81</title>
<ellipse fill="none" stroke="black" cx="373" cy="-676" rx="27" ry="18"/>
<text text-anchor="middle" x="373" y="-671.8" font-family="Times,serif" font-size="14.00">81</text>
</g>
<!-- 80&#45;&gt;81 -->
<g id="edge39" class="edge">
<title>80&#45;&gt;81</title>
<path fill="none" stroke="black" d="M368.9,-765.77C368.9,-751.39 369.09,-730.35 370,-712 370.1,-709.94 370.23,-707.82 370.37,-705.68"/>
<polygon fill="black" stroke="black" points="373.85,-706.18 371.14,-695.94 366.87,-705.63 373.85,-706.18"/>
<text text-anchor="start" x="374.5" y="-727.2" font-family="Courier New" font-weight="bold" font-size="12.00" fill="blue">MOV(WSPRITE,WPARM)</text>
</g>
<!-- 5 -->
<g id="node21" class="node">
<title>5</title>
<ellipse fill="none" stroke="black" cx="129" cy="-582" rx="27" ry="18"/>
<text text-anchor="middle" x="129" y="-577.8" font-family="Times,serif" font-size="14.00">5</text>
</g>
<!-- 4&#45;&gt;5 -->
<g id="edge27" class="edge">
<title>4&#45;&gt;5</title>
<path fill="none" stroke="black" d="M117.63,-657.7C119.61,-644.72 122.36,-626.66 124.65,-611.56"/>
<polygon fill="black" stroke="black" points="128.11,-612.14 126.15,-601.72 121.19,-611.08 128.11,-612.14"/>
<text text-anchor="start" x="128" y="-626.2" font-family="Courier New" font-weight="bold" font-size="12.00" fill="blue">MULI(WPARM,EMOTIONS_PER_LEVEL)</text>
</g>
<!-- 7 -->
<g id="node22" class="node">
<title>7</title>
<ellipse fill="none" stroke="black" cx="310" cy="-394" rx="27" ry="18"/>
<text text-anchor="middle" x="310" y="-389.8" font-family="Times,serif" font-size="14.00">7</text>
</g>
<!-- 5&#45;&gt;7 -->
<g id="edge28" class="edge">
<title>5&#45;&gt;7</title>
<path fill="none" stroke="black" d="M155.67,-578.1C193.57,-573.42 260.29,-562.99 277,-546 309,-513.45 313.04,-457.48 312.16,-423.59"/>
<polygon fill="black" stroke="black" points="315.66,-423.54 311.71,-413.7 308.66,-423.85 315.66,-423.54"/>
<text text-anchor="start" x="313" y="-485.2" font-family="Courier New" font-weight="bold" font-size="12.00" fill="blue">ADDI(WPARM,IDp_MALE)</text>
</g>
<!-- 6 -->
<g id="node23" class="node">
<title>6</title>
<ellipse fill="none" stroke="black" cx="129" cy="-488" rx="27" ry="18"/>
<text text-anchor="middle" x="129" y="-483.8" font-family="Times,serif" font-size="14.00">6</text>
</g>
<!-- 5&#45;&gt;6 -->
<g id="edge29" class="edge">
<title>5&#45;&gt;6</title>
<path fill="none" stroke="black" d="M129,-563.7C129,-550.72 129,-532.66 129,-517.56"/>
<polygon fill="black" stroke="black" points="132.5,-517.74 129,-507.74 125.5,-517.74 132.5,-517.74"/>
<text text-anchor="start" x="133" y="-532.2" font-family="Courier New" font-weight="bold" font-size="12.00" fill="blue">EQUALi(PTR(WIP2),1)</text>
</g>
<!-- 8 -->
<g id="node25" class="node">
<title>8</title>
<ellipse fill="none" stroke="black" cx="453" cy="-300" rx="27" ry="18"/>
<text text-anchor="middle" x="453" y="-295.8" font-family="Times,serif" font-size="14.00">8</text>
</g>
<!-- 7&#45;&gt;8 -->
<g id="edge33" class="edge">
<title>7&#45;&gt;8</title>
<path fill="none" stroke="black" d="M328.99,-380.78C353.46,-365.04 396.2,-337.54 424.56,-319.3"/>
<polygon fill="black" stroke="black" points="426.14,-322.44 432.66,-314.09 422.36,-316.55 426.14,-322.44"/>
<text text-anchor="start" x="402" y="-344.2" font-family="Courier New" font-weight="bold" font-size="12.00" fill="blue">ASSIGN(BPARM,IDp_xxHAPPY)</text>
</g>
<!-- 6&#45;&gt;7 -->
<g id="edge32" class="edge">
<title>6&#45;&gt;7</title>
<path fill="none" stroke="black" d="M124.09,-469.82C121.66,-457.36 120.9,-440.84 130,-430 147.73,-408.87 223.96,-400.31 271.34,-396.98"/>
<polygon fill="black" stroke="black" points="271.45,-400.48 281.21,-396.34 271,-393.5 271.45,-400.48"/>
<text text-anchor="start" x="134" y="-438.2" font-family="Courier New" font-weight="bold" font-size="12.00" fill="blue">ADDI(WPARM,IDp_FEMALE)</text>
</g>
<!-- 51&#45;&gt;21 -->
<g id="edge31" class="edge">
<title>51&#45;&gt;21</title>
<path fill="none" stroke="black" d="M1269.06,-773.32C1285.47,-765.73 1306.01,-755.27 1312,-748 1321.93,-735.93 1327.39,-719.4 1330.38,-705.32"/>
<polygon fill="black" stroke="black" points="1333.79,-706.17 1332.1,-695.71 1326.9,-704.94 1333.79,-706.17"/>
<text text-anchor="start" x="1332" y="-727.2" font-family="Courier New" font-weight="bold" font-size="12.00" fill="blue">PLAYWAVE(0,SOUND_EXPLODE)</text>
</g>
<!-- 8&#45;&gt;10 -->
<g id="edge38" class="edge">
<title>8&#45;&gt;10</title>
<path fill="none" stroke="black" d="M479.52,-295.17C504.99,-291.56 544.59,-286.09 579,-282 843.31,-250.6 1162.4,-220.5 1270.83,-210.49"/>
<polygon fill="black" stroke="black" points="1270.98,-213.99 1280.61,-209.59 1270.33,-207.02 1270.98,-213.99"/>
<text text-anchor="start" x="941.5" y="-250.2" font-family="Courier New" font-weight="bold" font-size="12.00" fill="blue">ASSIGN(BFRAME,0)</text>
</g>
<!-- 72 -->
<g id="node27" class="node">
<title>72</title>
<ellipse fill="none" stroke="black" cx="689" cy="-394" rx="27" ry="18"/>
<text text-anchor="middle" x="689" y="-389.8" font-family="Times,serif" font-size="14.00">72</text>
</g>
<!-- 71&#45;&gt;72 -->
<g id="edge35" class="edge">
<title>71&#45;&gt;72</title>
<path fill="none" stroke="black" d="M772.12,-473.03C756.21,-458.1 730.8,-434.24 712.25,-416.83"/>
<polygon fill="black" stroke="black" points="714.81,-414.43 705.13,-410.14 710.02,-419.54 714.81,-414.43"/>
<text text-anchor="start" x="753.5" y="-438.2" font-family="Courier New" font-weight="bold" font-size="12.00" fill="blue">ADD(WSPRITE,BPARM)</text>
</g>
<!-- 73 -->
<g id="node28" class="node">
<title>73</title>
<ellipse fill="none" stroke="black" cx="615" cy="-300" rx="27" ry="18"/>
<text text-anchor="middle" x="615" y="-295.8" font-family="Times,serif" font-size="14.00">73</text>
</g>
<!-- 72&#45;&gt;73 -->
<g id="edge36" class="edge">
<title>72&#45;&gt;73</title>
<path fill="none" stroke="black" d="M676.78,-377.81C665.21,-363.43 647.66,-341.61 634.22,-324.89"/>
<polygon fill="black" stroke="black" points="637.18,-322.99 628.19,-317.39 631.73,-327.38 637.18,-322.99"/>
<text text-anchor="start" x="664" y="-344.2" font-family="Courier New" font-weight="bold" font-size="12.00" fill="blue">SHOW(WSPRITE,)</text>
</g>
<!-- 73&#45;&gt;0 -->
<g id="edge37" class="edge">
<title>73&#45;&gt;0</title>
<path fill="none" stroke="black" d="M611.1,-318.19C607.27,-336.6 602,-366.71 602,-393 602,-583 602,-583 602,-583 602,-608.43 602.96,-614.89 607,-640 612.23,-672.46 617.63,-679.74 624,-712 644.77,-817.09 587.06,-873.46 662,-950 683.01,-971.46 766.67,-979.96 816.69,-983.18"/>
<polygon fill="black" stroke="black" points="816.32,-986.66 826.51,-983.76 816.73,-979.67 816.32,-986.66"/>
<text text-anchor="start" x="611" y="-626.2" font-family="Courier New" font-weight="bold" font-size="12.00" fill="blue">ANIMATE(0,V_REWIND)</text>
</g>
<!-- 82 -->
<g id="node30" class="node">
<title>82</title>
<ellipse fill="none" stroke="black" cx="390" cy="-582" rx="27" ry="18"/>
<text text-anchor="middle" x="390" y="-577.8" font-family="Times,serif" font-size="14.00">82</text>
</g>
<!-- 81&#45;&gt;82 -->
<g id="edge40" class="edge">
<title>81&#45;&gt;82</title>
<path fill="none" stroke="black" d="M373.43,-657.63C373.98,-646.25 375.22,-631.12 378,-618 378.5,-615.64 379.11,-613.23 379.79,-610.82"/>
<polygon fill="black" stroke="black" points="383.12,-611.89 382.83,-601.3 376.45,-609.76 383.12,-611.89"/>
<text text-anchor="start" x="382.5" y="-626.2" font-family="Courier New" font-weight="bold" font-size="12.00" fill="blue">ADD(WSPRITE,BPARM)</text>
</g>
<!-- 83 -->
<g id="node31" class="node">
<title>83</title>
<ellipse fill="none" stroke="black" cx="514" cy="-488" rx="27" ry="18"/>
<text text-anchor="middle" x="514" y="-483.8" font-family="Times,serif" font-size="14.00">83</text>
</g>
<!-- 82&#45;&gt;83 -->
<g id="edge41" class="edge">
<title>82&#45;&gt;83</title>
<path fill="none" stroke="black" d="M390.93,-563.61C392.51,-551.03 396.59,-534.47 407,-524 426.32,-504.55 439.96,-514.58 466,-506 470.53,-504.51 475.29,-502.89 479.98,-501.26"/>
<polygon fill="black" stroke="black" points="480.93,-504.63 489.21,-498.01 478.61,-498.03 480.93,-504.63"/>
<text text-anchor="start" x="411" y="-532.2" font-family="Courier New" font-weight="bold" font-size="12.00" fill="blue">SHOW(WSPRITE,)</text>
</g>
<!-- 83&#45;&gt;0 -->
<g id="edge42" class="edge">
<title>83&#45;&gt;0</title>
<path fill="none" stroke="black" d="M514.47,-506.19C516.05,-560.39 521.5,-725.51 530,-748 544.33,-785.92 567.54,-783.91 586,-820 613.41,-873.59 578.68,-910.38 624,-950 652,-974.48 758.4,-981.85 816.53,-984.06"/>
<polygon fill="black" stroke="black" points="816.19,-987.55 826.3,-984.39 816.43,-980.55 816.19,-987.55"/>
<text text-anchor="start" x="534" y="-727.2" font-family="Courier New" font-weight="bold" font-size="12.00" fill="blue">ANIMATE(0,0)</text>
</g>
</g>
</svg>
