<?xml version="1.0" encoding="UTF-8" standalone="no"?>
<!DOCTYPE svg PUBLIC "-//W3C//DTD SVG 1.1//EN"
 "http://www.w3.org/Graphics/SVG/1.1/DTD/svg11.dtd">
<!-- Generated by graphviz version 7.1.0 (20230121.1956)
 -->
<!-- Title: Automaton Pages: 1 -->
<svg width="1736pt" height="1257pt"
 viewBox="0.00 0.00 1736.00 1257.00" xmlns="http://www.w3.org/2000/svg" xmlns:xlink="http://www.w3.org/1999/xlink">
<g id="graph0" class="graph" transform="scale(1 1) rotate(0) translate(4 1253)">
<title>Automaton</title>
<polygon fill="white" stroke="none" points="-4,4 -4,-1253 1732,-1253 1732,4 -4,4"/>
<!-- filename -->
<g id="node1" class="node">
<title>filename</title>
<polygon fill="none" stroke="black" points="1168,-1196.5 1168,-1248.5 1286,-1248.5 1286,-1196.5 1168,-1196.5"/>
<polygon fill="none" stroke="black" points="1179,-1223.5 1179,-1241.5 1275,-1241.5 1275,-1223.5 1179,-1223.5"/>
<text text-anchor="start" x="1200" y="-1230.5" font-family="Courier New" font-weight="bold" font-size="10.00">M_IDSPELL</text>
<polygon fill="none" stroke="black" points="1179,-1203.5 1179,-1221.5 1275,-1221.5 1275,-1203.5 1179,-1203.5"/>
<text text-anchor="start" x="1182" y="-1209.5" font-family="Courier New" font-size="10.00" fill="brown">start state = 0</text>
<polygon fill="none" stroke="black" points="1176,-1200.5 1176,-1244.5 1278,-1244.5 1278,-1200.5 1176,-1200.5"/>
</g>
<!-- 0 -->
<g id="node2" class="node">
<title>0</title>
<polyline fill="none" stroke="darkred" points="1324,-1211.5 1338,-1211.5"/>
<text text-anchor="start" x="1327" y="-1218.9" font-family="Courier New" font-weight="bold" font-size="14.00">0</text>
<path fill="none" stroke="darkred" d="M1327.67,-1208.5C1327.67,-1208.5 1334.33,-1208.5 1334.33,-1208.5 1337.67,-1208.5 1341,-1211.83 1341,-1215.17 1341,-1215.17 1341,-1229.83 1341,-1229.83 1341,-1233.17 1337.67,-1236.5 1334.33,-1236.5 1334.33,-1236.5 1327.67,-1236.5 1327.67,-1236.5 1324.33,-1236.5 1321,-1233.17 1321,-1229.83 1321,-1229.83 1321,-1215.17 1321,-1215.17 1321,-1211.83 1324.33,-1208.5 1327.67,-1208.5"/>
</g>
<!-- 100 -->
<g id="node3" class="node">
<title>100</title>
<polyline fill="none" stroke="darkred" points="388,-1111 419,-1111"/>
<text text-anchor="start" x="391" y="-1118.4" font-family="Courier New" font-weight="bold" font-size="14.00">100</text>
<path fill="none" stroke="darkred" d="M393.83,-1108C393.83,-1108 412.17,-1108 412.17,-1108 416.83,-1108 421.5,-1112.67 421.5,-1117.33 421.5,-1117.33 421.5,-1126.67 421.5,-1126.67 421.5,-1131.33 416.83,-1136 412.17,-1136 412.17,-1136 393.83,-1136 393.83,-1136 389.17,-1136 384.5,-1131.33 384.5,-1126.67 384.5,-1126.67 384.5,-1117.33 384.5,-1117.33 384.5,-1112.67 389.17,-1108 393.83,-1108"/>
</g>
<!-- 0&#45;&gt;100 -->
<g id="edge1" class="edge">
<title>0&#45;&gt;100</title>
<path fill="none" stroke="black" d="M1311.13,-1204.62C1306.15,-1201.21 1300.61,-1198.04 1295,-1196 1254.23,-1181.16 605.4,-1136.63 440.75,-1125.53"/>
<polygon fill="black" stroke="black" points="441.47,-1122.07 431.26,-1124.89 441,-1129.05 441.47,-1122.07"/>
<text text-anchor="start" x="1129" y="-1166" font-family="Courier New" font-weight="bold" font-size="10.00" fill="orange">DROP(0,0)</text>
</g>
<!-- 101 -->
<g id="node9" class="node">
<title>101</title>
<polyline fill="none" stroke="darkred" points="389,-1019 420,-1019"/>
<text text-anchor="start" x="392" y="-1026.4" font-family="Courier New" font-weight="bold" font-size="14.00">101</text>
<path fill="none" stroke="darkred" d="M394.83,-1016C394.83,-1016 413.17,-1016 413.17,-1016 417.83,-1016 422.5,-1020.67 422.5,-1025.33 422.5,-1025.33 422.5,-1034.67 422.5,-1034.67 422.5,-1039.33 417.83,-1044 413.17,-1044 413.17,-1044 394.83,-1044 394.83,-1044 390.17,-1044 385.5,-1039.33 385.5,-1034.67 385.5,-1034.67 385.5,-1025.33 385.5,-1025.33 385.5,-1020.67 390.17,-1016 394.83,-1016"/>
</g>
<!-- 100&#45;&gt;101 -->
<g id="edge5" class="edge">
<title>100&#45;&gt;101</title>
<path fill="none" stroke="black" d="M376.11,-1112.1C364.03,-1106.6 350.95,-1098.21 344,-1086 339.6,-1078.28 339.57,-1073.71 344,-1066 349.29,-1056.78 358.05,-1049.77 367.26,-1044.52"/>
<polygon fill="black" stroke="black" points="368.56,-1047.79 375.94,-1040.19 365.43,-1041.53 368.56,-1047.79"/>
<text text-anchor="start" x="348" y="-1074" font-family="Courier New" font-weight="bold" font-size="10.00" fill="blue">CLEAR(WVIEWID,)</text>
</g>
<!-- 100&#45;&gt;101 -->
<g id="edge6" class="edge">
<title>100&#45;&gt;101</title>
<path fill="none" stroke="black" d="M427.94,-1104.28C433.62,-1099.15 438.89,-1092.98 442,-1086 445.62,-1077.88 445.57,-1074.14 442,-1066 440.49,-1062.55 438.45,-1059.29 436.1,-1056.25"/>
<polygon fill="black" stroke="black" points="438.7,-1053.91 429.34,-1048.94 433.55,-1058.66 438.7,-1053.91"/>
<text text-anchor="start" x="448" y="-1074" font-family="Courier New" font-weight="bold" font-size="10.00" fill="blue">CLEAR(WVIEWID,)</text>
</g>
<!-- 100&#45;&gt;101 -->
<g id="edge7" class="edge">
<title>100&#45;&gt;101</title>
<path fill="none" stroke="black" d="M429.88,-1118.33C467.23,-1113.99 531.84,-1104.05 546,-1086 575.3,-1048.66 493.68,-1036.65 442.3,-1032.8"/>
<polygon fill="black" stroke="black" points="442.63,-1029.31 432.42,-1032.14 442.16,-1036.3 442.63,-1029.31"/>
<text text-anchor="start" x="556" y="-1074" font-family="Courier New" font-weight="bold" font-size="10.00" fill="blue">CLEAR(WVIEWID,)</text>
</g>
<!-- 100&#45;&gt;101 -->
<g id="edge8" class="edge">
<title>100&#45;&gt;101</title>
<path fill="none" stroke="black" d="M376.05,-1120.97C320.24,-1119.98 200.24,-1112.55 238,-1066 253.76,-1046.57 321.74,-1037.51 365.66,-1033.62"/>
<polygon fill="black" stroke="black" points="365.9,-1037.11 375.57,-1032.8 365.32,-1030.14 365.9,-1037.11"/>
<text text-anchor="start" x="242" y="-1074" font-family="Courier New" font-weight="bold" font-size="10.00" fill="blue">CLEAR(WVIEWID,)</text>
</g>
<!-- 1 -->
<g id="node4" class="node">
<title>1</title>
<polyline fill="none" stroke="darkred" points="500,-651 514,-651"/>
<text text-anchor="start" x="503" y="-658.4" font-family="Courier New" font-weight="bold" font-size="14.00">1</text>
<path fill="none" stroke="darkred" d="M503.67,-648C503.67,-648 510.33,-648 510.33,-648 513.67,-648 517,-651.33 517,-654.67 517,-654.67 517,-669.33 517,-669.33 517,-672.67 513.67,-676 510.33,-676 510.33,-676 503.67,-676 503.67,-676 500.33,-676 497,-672.67 497,-669.33 497,-669.33 497,-654.67 497,-654.67 497,-651.33 500.33,-648 503.67,-648"/>
</g>
<!-- 2 -->
<g id="node5" class="node">
<title>2</title>
<polyline fill="none" stroke="darkred" points="533,-559 547,-559"/>
<text text-anchor="start" x="536" y="-566.4" font-family="Courier New" font-weight="bold" font-size="14.00">2</text>
<path fill="none" stroke="darkred" d="M536.67,-556C536.67,-556 543.33,-556 543.33,-556 546.67,-556 550,-559.33 550,-562.67 550,-562.67 550,-577.33 550,-577.33 550,-580.67 546.67,-584 543.33,-584 543.33,-584 536.67,-584 536.67,-584 533.33,-584 530,-580.67 530,-577.33 530,-577.33 530,-562.67 530,-562.67 530,-559.33 533.33,-556 536.67,-556"/>
</g>
<!-- 1&#45;&gt;2 -->
<g id="edge2" class="edge">
<title>1&#45;&gt;2</title>
<path fill="none" stroke="black" d="M513.21,-644.07C517.91,-631.25 524.47,-613.36 529.92,-598.5"/>
<polygon fill="black" stroke="black" points="533.14,-599.87 533.3,-589.27 526.57,-597.46 533.14,-599.87"/>
<text text-anchor="start" x="530" y="-614" font-family="Courier New" font-weight="bold" font-size="10.00" fill="blue">SPELL_ME(WOBJECT,SIG_OBJECT)</text>
</g>
<!-- 3 -->
<g id="node15" class="node">
<title>3</title>
<polyline fill="none" stroke="darkred" points="545,-467 559,-467"/>
<text text-anchor="start" x="548" y="-474.4" font-family="Courier New" font-weight="bold" font-size="14.00">3</text>
<path fill="none" stroke="darkred" d="M548.67,-464C548.67,-464 555.33,-464 555.33,-464 558.67,-464 562,-467.33 562,-470.67 562,-470.67 562,-485.33 562,-485.33 562,-488.67 558.67,-492 555.33,-492 555.33,-492 548.67,-492 548.67,-492 545.33,-492 542,-488.67 542,-485.33 542,-485.33 542,-470.67 542,-470.67 542,-467.33 545.33,-464 548.67,-464"/>
</g>
<!-- 2&#45;&gt;3 -->
<g id="edge34" class="edge">
<title>2&#45;&gt;3</title>
<path fill="none" stroke="black" d="M539.06,-552.04C538.77,-541.11 538.94,-526.63 541,-514 541.38,-511.64 541.89,-509.22 542.48,-506.81"/>
<polygon fill="black" stroke="black" points="545.81,-507.89 545.21,-497.31 539.08,-505.95 545.81,-507.89"/>
<text text-anchor="start" x="545" y="-522" font-family="Courier New" font-weight="bold" font-size="10.00" fill="blue">PLAYWAVE(0,SOUND_POPUP)</text>
</g>
<!-- 10 -->
<g id="node6" class="node">
<title>10</title>
<polyline fill="none" stroke="darkred" points="968,-283 990,-283"/>
<text text-anchor="start" x="971" y="-290.4" font-family="Courier New" font-weight="bold" font-size="14.00">10</text>
<path fill="none" stroke="darkred" d="M974.33,-280C974.33,-280 983.67,-280 983.67,-280 988.33,-280 993,-284.67 993,-289.33 993,-289.33 993,-298.67 993,-298.67 993,-303.33 988.33,-308 983.67,-308 983.67,-308 974.33,-308 974.33,-308 969.67,-308 965,-303.33 965,-298.67 965,-298.67 965,-289.33 965,-289.33 965,-284.67 969.67,-280 974.33,-280"/>
</g>
<!-- 12 -->
<g id="node7" class="node">
<title>12</title>
<polyline fill="none" stroke="darkred" points="1099,-99 1121,-99"/>
<text text-anchor="start" x="1102" y="-106.4" font-family="Courier New" font-weight="bold" font-size="14.00">12</text>
<path fill="none" stroke="darkred" d="M1105.33,-96C1105.33,-96 1114.67,-96 1114.67,-96 1119.33,-96 1124,-100.67 1124,-105.33 1124,-105.33 1124,-114.67 1124,-114.67 1124,-119.33 1119.33,-124 1114.67,-124 1114.67,-124 1105.33,-124 1105.33,-124 1100.67,-124 1096,-119.33 1096,-114.67 1096,-114.67 1096,-105.33 1096,-105.33 1096,-100.67 1100.67,-96 1105.33,-96"/>
</g>
<!-- 10&#45;&gt;12 -->
<g id="edge3" class="edge">
<title>10&#45;&gt;12</title>
<path fill="none" stroke="black" d="M1005.92,-293.05C1033.14,-291.51 1074.2,-284.54 1096,-258 1123.41,-224.62 1120.81,-171.51 1115.82,-139.09"/>
<polygon fill="black" stroke="black" points="1119.27,-138.51 1114.11,-129.26 1112.38,-139.71 1119.27,-138.51"/>
<text text-anchor="start" x="1122" y="-200" font-family="Courier New" font-weight="bold" font-size="10.00" fill="blue">EQUALi(WVIEWID,0)</text>
</g>
<!-- 11 -->
<g id="node8" class="node">
<title>11</title>
<polyline fill="none" stroke="darkred" points="973,-191 995,-191"/>
<text text-anchor="start" x="976" y="-198.4" font-family="Courier New" font-weight="bold" font-size="14.00">11</text>
<path fill="none" stroke="darkred" d="M979.33,-188C979.33,-188 988.67,-188 988.67,-188 993.33,-188 998,-192.67 998,-197.33 998,-197.33 998,-206.67 998,-206.67 998,-211.33 993.33,-216 988.67,-216 988.67,-216 979.33,-216 979.33,-216 974.67,-216 970,-211.33 970,-206.67 970,-206.67 970,-197.33 970,-197.33 970,-192.67 974.67,-188 979.33,-188"/>
</g>
<!-- 10&#45;&gt;11 -->
<g id="edge4" class="edge">
<title>10&#45;&gt;11</title>
<path fill="none" stroke="black" d="M978.89,-276.13C978.92,-265.24 979.16,-250.77 980,-238 980.15,-235.76 980.34,-233.44 980.55,-231.11"/>
<polygon fill="black" stroke="black" points="984.03,-231.52 981.6,-221.21 977.06,-230.78 984.03,-231.52"/>
<text text-anchor="start" x="984" y="-246" font-family="Courier New" font-weight="bold" font-size="10.00" fill="blue">LOADVIEW(WVIEWID,)</text>
</g>
<!-- 13 -->
<g id="node12" class="node">
<title>13</title>
<polyline fill="none" stroke="darkred" points="1353,-7 1375,-7"/>
<text text-anchor="start" x="1356" y="-14.4" font-family="Courier New" font-weight="bold" font-size="14.00">13</text>
<path fill="none" stroke="darkred" d="M1359.33,-4C1359.33,-4 1368.67,-4 1368.67,-4 1373.33,-4 1378,-8.67 1378,-13.33 1378,-13.33 1378,-22.67 1378,-22.67 1378,-27.33 1373.33,-32 1368.67,-32 1368.67,-32 1359.33,-32 1359.33,-32 1354.67,-32 1350,-27.33 1350,-22.67 1350,-22.67 1350,-13.33 1350,-13.33 1350,-8.67 1354.67,-4 1359.33,-4"/>
</g>
<!-- 12&#45;&gt;13 -->
<g id="edge20" class="edge">
<title>12&#45;&gt;13</title>
<path fill="none" stroke="black" d="M1136.7,-99.54C1182.15,-83.43 1274.65,-50.66 1326.54,-32.27"/>
<polygon fill="black" stroke="black" points="1327.59,-35.61 1335.85,-28.98 1325.25,-29.02 1327.59,-35.61"/>
<text text-anchor="start" x="1263" y="-62" font-family="Courier New" font-weight="bold" font-size="10.00" fill="blue">SHOW(0,0)</text>
</g>
<!-- 11&#45;&gt;12 -->
<g id="edge19" class="edge">
<title>11&#45;&gt;12</title>
<path fill="none" stroke="black" d="M984.13,-184.04C985.12,-171.97 988.38,-156.16 998,-146 1017.03,-125.92 1047.38,-117.3 1071.69,-113.62"/>
<polygon fill="black" stroke="black" points="1072.08,-117.1 1081.56,-112.38 1071.2,-110.16 1072.08,-117.1"/>
<text text-anchor="start" x="1002" y="-154" font-family="Courier New" font-weight="bold" font-size="10.00" fill="blue">CLEAR(WVIEWID,)</text>
</g>
<!-- 101&#45;&gt;1 -->
<g id="edge14" class="edge">
<title>101&#45;&gt;1</title>
<path fill="none" stroke="black" d="M377.23,-1027.09C301.29,-1020.96 90,-998.54 90,-939 90,-939 90,-939 90,-753 90,-675.88 365.96,-664.67 468.9,-663.18"/>
<polygon fill="black" stroke="black" points="468.81,-666.68 478.77,-663.06 468.73,-659.68 468.81,-666.68"/>
<text text-anchor="start" x="94" y="-844" font-family="Courier New" font-weight="bold" font-size="10.00" fill="blue">Z_EPSILON(0,0)</text>
</g>
<!-- 101&#45;&gt;1 -->
<g id="edge15" class="edge">
<title>101&#45;&gt;1</title>
<path fill="none" stroke="black" d="M377.35,-1028.02C325.92,-1024.56 218,-1008.95 218,-939 218,-939 218,-939 218,-753 218,-701.08 390.19,-675.69 468.75,-666.81"/>
<polygon fill="black" stroke="black" points="469.01,-670.3 478.57,-665.73 468.25,-663.34 469.01,-670.3"/>
<text text-anchor="start" x="222" y="-844" font-family="Courier New" font-weight="bold" font-size="10.00" fill="blue">Z_EPSILON(0,0)</text>
</g>
<!-- 101&#45;&gt;1 -->
<g id="edge16" class="edge">
<title>101&#45;&gt;1</title>
<path fill="none" stroke="black" d="M377.13,-1012.16C370.72,-1007.02 364.45,-1000.88 360,-994 346.3,-972.82 346,-964.22 346,-939 346,-939 346,-939 346,-753 346,-696.94 421.29,-675.46 468.9,-667.49"/>
<polygon fill="black" stroke="black" points="469.2,-670.98 478.56,-666.01 468.14,-664.06 469.2,-670.98"/>
<text text-anchor="start" x="350" y="-844" font-family="Courier New" font-weight="bold" font-size="10.00" fill="blue">Z_EPSILON(0,0)</text>
</g>
<!-- 101&#45;&gt;1 -->
<g id="edge17" class="edge">
<title>101&#45;&gt;1</title>
<path fill="none" stroke="black" d="M397.04,-1012.13C393.43,-1001.23 390.29,-986.76 393,-974 404.13,-921.65 422.85,-913.98 442,-864 448.32,-847.52 481.89,-742.17 498.15,-690.92"/>
<polygon fill="black" stroke="black" points="501.47,-692.03 501.16,-681.44 494.8,-689.91 501.47,-692.03"/>
<text text-anchor="start" x="458" y="-844" font-family="Courier New" font-weight="bold" font-size="10.00" fill="blue">Z_EPSILON(0,0)</text>
</g>
<!-- 102 -->
<g id="node10" class="node">
<title>102</title>
<polyline fill="none" stroke="darkred" points="1167,-927 1198,-927"/>
<text text-anchor="start" x="1170" y="-934.4" font-family="Courier New" font-weight="bold" font-size="14.00">102</text>
<path fill="none" stroke="darkred" d="M1172.83,-924C1172.83,-924 1191.17,-924 1191.17,-924 1195.83,-924 1200.5,-928.67 1200.5,-933.33 1200.5,-933.33 1200.5,-942.67 1200.5,-942.67 1200.5,-947.33 1195.83,-952 1191.17,-952 1191.17,-952 1172.83,-952 1172.83,-952 1168.17,-952 1163.5,-947.33 1163.5,-942.67 1163.5,-942.67 1163.5,-933.33 1163.5,-933.33 1163.5,-928.67 1168.17,-924 1172.83,-924"/>
</g>
<!-- 101&#45;&gt;102 -->
<g id="edge9" class="edge">
<title>101&#45;&gt;102</title>
<path fill="none" stroke="black" d="M430.9,-1029.11C539.32,-1029.33 944.2,-1027.8 1067,-994 1085.4,-988.93 1087.86,-982.4 1105,-974 1117.88,-967.69 1132.14,-961.1 1144.85,-955.37"/>
<polygon fill="black" stroke="black" points="1146.02,-958.67 1153.71,-951.39 1143.16,-952.29 1146.02,-958.67"/>
<text text-anchor="start" x="1109" y="-982" font-family="Courier New" font-weight="bold" font-size="10.00" fill="blue">IS_A(WOBJECT,IDC_BOMB)</text>
</g>
<!-- 120 -->
<g id="node11" class="node">
<title>120</title>
<polyline fill="none" stroke="darkred" points="600,-927 631,-927"/>
<text text-anchor="start" x="603" y="-934.4" font-family="Courier New" font-weight="bold" font-size="14.00">120</text>
<path fill="none" stroke="darkred" d="M605.83,-924C605.83,-924 624.17,-924 624.17,-924 628.83,-924 633.5,-928.67 633.5,-933.33 633.5,-933.33 633.5,-942.67 633.5,-942.67 633.5,-947.33 628.83,-952 624.17,-952 624.17,-952 605.83,-952 605.83,-952 601.17,-952 596.5,-947.33 596.5,-942.67 596.5,-942.67 596.5,-933.33 596.5,-933.33 596.5,-928.67 601.17,-924 605.83,-924"/>
</g>
<!-- 101&#45;&gt;120 -->
<g id="edge10" class="edge">
<title>101&#45;&gt;120</title>
<path fill="none" stroke="black" d="M430.78,-1029.22C530.23,-1029.74 874.35,-1029.01 907,-994 913.06,-987.5 912.9,-980.65 907,-974 890.39,-955.29 728.03,-944.71 652.85,-940.78"/>
<polygon fill="black" stroke="black" points="653.24,-937.3 643.08,-940.29 652.89,-944.29 653.24,-937.3"/>
<text text-anchor="start" x="915" y="-982" font-family="Courier New" font-weight="bold" font-size="10.00" fill="blue">IS_A(WOBJECT,IDC_SCROLL)</text>
</g>
<!-- 101&#45;&gt;120 -->
<g id="edge11" class="edge">
<title>101&#45;&gt;120</title>
<path fill="none" stroke="black" d="M399.15,-1012.1C396.8,-1000.07 396.14,-984.27 405,-974 426.82,-948.71 522.5,-941.68 576.88,-939.74"/>
<polygon fill="black" stroke="black" points="576.74,-943.25 586.62,-939.44 576.52,-936.25 576.74,-943.25"/>
<text text-anchor="start" x="409" y="-982" font-family="Courier New" font-weight="bold" font-size="10.00" fill="blue">IS_A(WOBJECT,IDC_SCROLL)</text>
</g>
<!-- 101&#45;&gt;120 -->
<g id="edge12" class="edge">
<title>101&#45;&gt;120</title>
<path fill="none" stroke="black" d="M430.94,-1027.16C462.73,-1024.04 516.41,-1015.75 557,-994 561.04,-991.84 576.35,-977.26 590.22,-963.66"/>
<polygon fill="black" stroke="black" points="592.39,-966.45 597.05,-956.93 587.48,-961.46 592.39,-966.45"/>
<text text-anchor="start" x="583" y="-982" font-family="Courier New" font-weight="bold" font-size="10.00" fill="blue">IS_A(WOBJECT,IDC_SCROLL)</text>
</g>
<!-- 101&#45;&gt;120 -->
<g id="edge13" class="edge">
<title>101&#45;&gt;120</title>
<path fill="none" stroke="black" d="M430.82,-1028.15C505.54,-1025.52 711.97,-1016.28 732,-994 757.77,-965.33 696.3,-950.37 653.05,-943.63"/>
<polygon fill="black" stroke="black" points="653.59,-940.18 643.19,-942.2 652.58,-947.1 653.59,-940.18"/>
<text text-anchor="start" x="742" y="-982" font-family="Courier New" font-weight="bold" font-size="10.00" fill="blue">IS_A(WOBJECT,IDC_SCROLL)</text>
</g>
<!-- 102&#45;&gt;0 -->
<g id="edge18" class="edge">
<title>102&#45;&gt;0</title>
<path fill="none" stroke="black" d="M1208.97,-947.5C1221.93,-952.99 1236.47,-961.49 1245,-974 1273.29,-1015.5 1244.78,-1038.14 1260,-1086 1272.79,-1126.22 1297.06,-1168.72 1313.63,-1195.17"/>
<polygon fill="black" stroke="black" points="1310.63,-1196.98 1318.96,-1203.53 1316.54,-1193.22 1310.63,-1196.98"/>
<text text-anchor="start" x="1264" y="-1074" font-family="Courier New" font-weight="bold" font-size="10.00" fill="blue">SPELL_ME(0,SIG_BOMB)</text>
</g>
<!-- 121 -->
<g id="node13" class="node">
<title>121</title>
<polyline fill="none" stroke="darkred" points="692,-835 723,-835"/>
<text text-anchor="start" x="695" y="-842.4" font-family="Courier New" font-weight="bold" font-size="14.00">121</text>
<path fill="none" stroke="darkred" d="M697.83,-832C697.83,-832 716.17,-832 716.17,-832 720.83,-832 725.5,-836.67 725.5,-841.33 725.5,-841.33 725.5,-850.67 725.5,-850.67 725.5,-855.33 720.83,-860 716.17,-860 716.17,-860 697.83,-860 697.83,-860 693.17,-860 688.5,-855.33 688.5,-850.67 688.5,-850.67 688.5,-841.33 688.5,-841.33 688.5,-836.67 693.17,-832 697.83,-832"/>
</g>
<!-- 120&#45;&gt;121 -->
<g id="edge21" class="edge">
<title>120&#45;&gt;121</title>
<path fill="none" stroke="black" d="M641.96,-937.39C669.37,-936.15 710.62,-929.44 731,-902 737.36,-893.43 734.79,-882.92 729.42,-873.38"/>
<polygon fill="black" stroke="black" points="732.39,-871.53 723.91,-865.18 726.58,-875.44 732.39,-871.53"/>
<text text-anchor="start" x="738" y="-890" font-family="Courier New" font-weight="bold" font-size="10.00" fill="blue">MOV(WTEMP1,WOBJECT)</text>
</g>
<!-- 120&#45;&gt;121 -->
<g id="edge22" class="edge">
<title>120&#45;&gt;121</title>
<path fill="none" stroke="black" d="M641.86,-937.37C699.48,-937.53 831.99,-934.3 860,-902 893.93,-862.88 800.66,-851.58 745.07,-848.32"/>
<polygon fill="black" stroke="black" points="745.52,-844.84 735.35,-847.82 745.16,-851.83 745.52,-844.84"/>
<text text-anchor="start" x="871" y="-890" font-family="Courier New" font-weight="bold" font-size="10.00" fill="blue">MOV(WTEMP1,WOBJECT)</text>
</g>
<!-- 120&#45;&gt;121 -->
<g id="edge23" class="edge">
<title>120&#45;&gt;121</title>
<path fill="none" stroke="black" d="M588.1,-936.16C535.73,-933.61 428.19,-923.33 464,-882 467.34,-878.15 601.56,-860.49 669.05,-851.82"/>
<polygon fill="black" stroke="black" points="669.08,-855.35 678.56,-850.6 668.2,-848.4 669.08,-855.35"/>
<text text-anchor="start" x="468" y="-890" font-family="Courier New" font-weight="bold" font-size="10.00" fill="blue">MOV(WTEMP1,WOBJECT)</text>
</g>
<!-- 120&#45;&gt;121 -->
<g id="edge24" class="edge">
<title>120&#45;&gt;121</title>
<path fill="none" stroke="black" d="M605.84,-920.17C600.83,-908.47 597.1,-893.06 605,-882 619.45,-861.76 646.37,-853.1 668.93,-849.45"/>
<polygon fill="black" stroke="black" points="669.28,-852.94 678.74,-848.17 668.37,-846 669.28,-852.94"/>
<text text-anchor="start" x="609" y="-890" font-family="Courier New" font-weight="bold" font-size="10.00" fill="blue">MOV(WTEMP1,WOBJECT)</text>
</g>
<!-- 13&#45;&gt;0 -->
<g id="edge33" class="edge">
<title>13&#45;&gt;0</title>
<path fill="none" stroke="black" d="M1390.97,-19.52C1444.28,-22.13 1558,-36.23 1558,-109 1558,-1123 1558,-1123 1558,-1123 1558,-1204.29 1433.98,-1219.22 1369.28,-1221.48"/>
<polygon fill="black" stroke="black" points="1369.35,-1217.98 1359.44,-1221.73 1369.53,-1224.98 1369.35,-1217.98"/>
<text text-anchor="start" x="1562" y="-614" font-family="Courier New" font-weight="bold" font-size="10.00" fill="blue">SPELL_ME(WOBJECT,SIG_CLEAR)</text>
</g>
<!-- 122 -->
<g id="node14" class="node">
<title>122</title>
<polyline fill="none" stroke="darkred" points="730,-743 761,-743"/>
<text text-anchor="start" x="733" y="-750.4" font-family="Courier New" font-weight="bold" font-size="14.00">122</text>
<path fill="none" stroke="darkred" d="M735.83,-740C735.83,-740 754.17,-740 754.17,-740 758.83,-740 763.5,-744.67 763.5,-749.33 763.5,-749.33 763.5,-758.67 763.5,-758.67 763.5,-763.33 758.83,-768 754.17,-768 754.17,-768 735.83,-768 735.83,-768 731.17,-768 726.5,-763.33 726.5,-758.67 726.5,-758.67 726.5,-749.33 726.5,-749.33 726.5,-744.67 731.17,-740 735.83,-740"/>
</g>
<!-- 121&#45;&gt;122 -->
<g id="edge25" class="edge">
<title>121&#45;&gt;122</title>
<path fill="none" stroke="black" d="M733.56,-843.36C756.19,-840.4 787.44,-832.24 803,-810 813.11,-795.55 798.9,-781.9 782.01,-771.81"/>
<polygon fill="black" stroke="black" points="783.71,-768.75 773.26,-767.03 780.35,-774.89 783.71,-768.75"/>
<text text-anchor="start" x="810" y="-798" font-family="Courier New" font-weight="bold" font-size="10.00" fill="blue">MOV(WVIEWID,LVIEW)</text>
</g>
<!-- 121&#45;&gt;122 -->
<g id="edge26" class="edge">
<title>121&#45;&gt;122</title>
<path fill="none" stroke="black" d="M733.82,-844.86C786.74,-843.95 901.58,-838.64 926,-810 966.43,-762.6 847.56,-755.25 783.27,-754.62"/>
<polygon fill="black" stroke="black" points="783.48,-751.12 773.47,-754.58 783.45,-758.12 783.48,-751.12"/>
<text text-anchor="start" x="938" y="-798" font-family="Courier New" font-weight="bold" font-size="10.00" fill="blue">MOV(WVIEWID,LVIEW)</text>
</g>
<!-- 121&#45;&gt;122 -->
<g id="edge27" class="edge">
<title>121&#45;&gt;122</title>
<path fill="none" stroke="black" d="M680.21,-843.06C639.3,-839.48 564.29,-830.27 548,-810 542.43,-803.07 542.29,-796.81 548,-790 567.87,-766.29 655.46,-758.63 706.92,-756.16"/>
<polygon fill="black" stroke="black" points="706.88,-759.67 716.72,-755.74 706.58,-752.67 706.88,-759.67"/>
<text text-anchor="start" x="552" y="-798" font-family="Courier New" font-weight="bold" font-size="10.00" fill="blue">MOV(WVIEWID,LVIEW)</text>
</g>
<!-- 121&#45;&gt;122 -->
<g id="edge28" class="edge">
<title>121&#45;&gt;122</title>
<path fill="none" stroke="black" d="M691.41,-828.14C683.08,-816.99 675.86,-802.24 683,-790 688.64,-780.33 698.05,-773.13 707.85,-767.85"/>
<polygon fill="black" stroke="black" points="709.15,-771.11 716.7,-763.67 706.17,-764.78 709.15,-771.11"/>
<text text-anchor="start" x="687" y="-798" font-family="Courier New" font-weight="bold" font-size="10.00" fill="blue">MOV(WVIEWID,LVIEW)</text>
</g>
<!-- 122&#45;&gt;1 -->
<g id="edge29" class="edge">
<title>122&#45;&gt;1</title>
<path fill="none" stroke="black" d="M771.9,-747.34C805.64,-739.07 856.61,-722.04 835,-698 815.91,-676.77 627.49,-667.37 545.16,-664.26"/>
<polygon fill="black" stroke="black" points="545.45,-660.77 535.33,-663.9 545.19,-667.76 545.45,-660.77"/>
<text text-anchor="start" x="844" y="-706" font-family="Courier New" font-weight="bold" font-size="10.00" fill="blue">LOADVIEW(0,IDV_PARCHPAN)</text>
</g>
<!-- 122&#45;&gt;1 -->
<g id="edge30" class="edge">
<title>122&#45;&gt;1</title>
<path fill="none" stroke="black" d="M771.63,-753.47C830.17,-753.88 967.12,-751.19 996,-718 1001.84,-711.29 1002.06,-704.51 996,-698 965.5,-665.24 654.93,-662.69 545.17,-662.82"/>
<polygon fill="black" stroke="black" points="545.21,-659.32 535.21,-662.84 545.22,-666.32 545.21,-659.32"/>
<text text-anchor="start" x="1004" y="-706" font-family="Courier New" font-weight="bold" font-size="10.00" fill="blue">LOADVIEW(0,IDV_SPELLPAN)</text>
</g>
<!-- 122&#45;&gt;1 -->
<g id="edge31" class="edge">
<title>122&#45;&gt;1</title>
<path fill="none" stroke="black" d="M718.2,-753.19C662.09,-752.95 535.19,-748.92 508,-718 501.63,-710.76 500.13,-700.68 500.65,-691.12"/>
<polygon fill="black" stroke="black" points="504.09,-691.81 501.9,-681.45 497.15,-690.92 504.09,-691.81"/>
<text text-anchor="start" x="512" y="-706" font-family="Courier New" font-weight="bold" font-size="10.00" fill="blue">LOADVIEW(0,IDV_SPELLPAN)</text>
</g>
<!-- 122&#45;&gt;1 -->
<g id="edge32" class="edge">
<title>122&#45;&gt;1</title>
<path fill="none" stroke="black" d="M718.12,-741.21C705.66,-735.14 690.98,-727.1 679,-718 669.23,-710.59 670.65,-704.07 660,-698 624.26,-677.63 577.47,-669.12 545.09,-665.56"/>
<polygon fill="black" stroke="black" points="545.66,-662.09 535.36,-664.6 544.97,-669.06 545.66,-662.09"/>
<text text-anchor="start" x="683" y="-706" font-family="Courier New" font-weight="bold" font-size="10.00" fill="blue">LOADVIEW(0,IDV_SPELLPAN)</text>
</g>
<!-- 4 -->
<g id="node19" class="node">
<title>4</title>
<polyline fill="none" stroke="darkred" points="694,-375 708,-375"/>
<text text-anchor="start" x="697" y="-382.4" font-family="Courier New" font-weight="bold" font-size="14.00">4</text>
<path fill="none" stroke="darkred" d="M697.67,-372C697.67,-372 704.33,-372 704.33,-372 707.67,-372 711,-375.33 711,-378.67 711,-378.67 711,-393.33 711,-393.33 711,-396.67 707.67,-400 704.33,-400 704.33,-400 697.67,-400 697.67,-400 694.33,-400 691,-396.67 691,-393.33 691,-393.33 691,-378.67 691,-378.67 691,-375.33 694.33,-372 697.67,-372"/>
</g>
<!-- 3&#45;&gt;4 -->
<g id="edge38" class="edge">
<title>3&#45;&gt;4</title>
<path fill="none" stroke="black" d="M559.55,-460.06C565.81,-447.85 575.81,-431.84 589,-422 610.65,-405.85 639.92,-397.04 663.11,-392.3"/>
<polygon fill="black" stroke="black" points="663.59,-395.77 672.79,-390.51 662.32,-388.89 663.59,-395.77"/>
<text text-anchor="start" x="593" y="-430" font-family="Courier New" font-weight="bold" font-size="10.00" fill="blue">ASHOW(WOBJECT,)</text>
</g>
<!-- 20 -->
<g id="node16" class="node">
<title>20</title>
<polyline fill="none" stroke="darkred" points="1269,-283 1291,-283"/>
<text text-anchor="start" x="1272" y="-290.4" font-family="Courier New" font-weight="bold" font-size="14.00">20</text>
<path fill="none" stroke="darkred" d="M1275.33,-280C1275.33,-280 1284.67,-280 1284.67,-280 1289.33,-280 1294,-284.67 1294,-289.33 1294,-289.33 1294,-298.67 1294,-298.67 1294,-303.33 1289.33,-308 1284.67,-308 1284.67,-308 1275.33,-308 1275.33,-308 1270.67,-308 1266,-303.33 1266,-298.67 1266,-298.67 1266,-289.33 1266,-289.33 1266,-284.67 1270.67,-280 1275.33,-280"/>
</g>
<!-- 21 -->
<g id="node17" class="node">
<title>21</title>
<polyline fill="none" stroke="darkred" points="1287,-191 1309,-191"/>
<text text-anchor="start" x="1290" y="-198.4" font-family="Courier New" font-weight="bold" font-size="14.00">21</text>
<path fill="none" stroke="darkred" d="M1293.33,-188C1293.33,-188 1302.67,-188 1302.67,-188 1307.33,-188 1312,-192.67 1312,-197.33 1312,-197.33 1312,-206.67 1312,-206.67 1312,-211.33 1307.33,-216 1302.67,-216 1302.67,-216 1293.33,-216 1293.33,-216 1288.67,-216 1284,-211.33 1284,-206.67 1284,-206.67 1284,-197.33 1284,-197.33 1284,-192.67 1288.67,-188 1293.33,-188"/>
</g>
<!-- 20&#45;&gt;21 -->
<g id="edge35" class="edge">
<title>20&#45;&gt;21</title>
<path fill="none" stroke="black" d="M1282.87,-276.11C1284.77,-265.21 1287.39,-250.74 1290,-238 1290.48,-235.66 1290.99,-233.24 1291.52,-230.81"/>
<polygon fill="black" stroke="black" points="1294.91,-231.7 1293.69,-221.18 1288.08,-230.17 1294.91,-231.7"/>
<text text-anchor="start" x="1294" y="-246" font-family="Courier New" font-weight="bold" font-size="10.00" fill="blue">CLEAR(WOBJECT,)</text>
</g>
<!-- 22 -->
<g id="node18" class="node">
<title>22</title>
<polyline fill="none" stroke="darkred" points="1343,-99 1365,-99"/>
<text text-anchor="start" x="1346" y="-106.4" font-family="Courier New" font-weight="bold" font-size="14.00">22</text>
<path fill="none" stroke="darkred" d="M1349.33,-96C1349.33,-96 1358.67,-96 1358.67,-96 1363.33,-96 1368,-100.67 1368,-105.33 1368,-105.33 1368,-114.67 1368,-114.67 1368,-119.33 1363.33,-124 1358.67,-124 1358.67,-124 1349.33,-124 1349.33,-124 1344.67,-124 1340,-119.33 1340,-114.67 1340,-114.67 1340,-105.33 1340,-105.33 1340,-100.67 1344.67,-96 1349.33,-96"/>
</g>
<!-- 21&#45;&gt;22 -->
<g id="edge36" class="edge">
<title>21&#45;&gt;22</title>
<path fill="none" stroke="black" d="M1305.48,-184.15C1310.69,-173 1318.1,-158.25 1326,-146 1327.98,-142.93 1330.18,-139.8 1332.45,-136.75"/>
<polygon fill="black" stroke="black" points="1335.01,-139.16 1338.39,-129.12 1329.48,-134.86 1335.01,-139.16"/>
<text text-anchor="start" x="1330" y="-154" font-family="Courier New" font-weight="bold" font-size="10.00" fill="blue">SHOW(0,0)</text>
</g>
<!-- 22&#45;&gt;0 -->
<g id="edge37" class="edge">
<title>22&#45;&gt;0</title>
<path fill="none" stroke="black" d="M1373.65,-127.67C1378.97,-133.05 1384.28,-139.35 1388,-146 1400.32,-168.01 1402,-175.78 1402,-201 1402,-1123 1402,-1123 1402,-1123 1402,-1152.38 1380.96,-1178.97 1361.78,-1197.09"/>
<polygon fill="black" stroke="black" points="1359.69,-1194.26 1354.59,-1203.55 1364.37,-1199.47 1359.69,-1194.26"/>
<text text-anchor="start" x="1406" y="-660" font-family="Courier New" font-weight="bold" font-size="10.00" fill="blue">VIDEO(0,IDS_SMBURST)</text>
</g>
<!-- 4&#45;&gt;100 -->
<g id="edge39" class="edge">
<title>4&#45;&gt;100</title>
<path fill="none" stroke="black" d="M674.38,-387.56C546.33,-390.61 0,-407.67 0,-477 0,-1031 0,-1031 0,-1031 0,-1105.31 264.31,-1118.29 364.83,-1120.54"/>
<polygon fill="black" stroke="black" points="364.67,-1124.03 374.73,-1120.73 364.8,-1117.03 364.67,-1124.03"/>
<text text-anchor="start" x="4" y="-752" font-family="Courier New" font-weight="bold" font-size="10.00" fill="orange">DROP(0,0)</text>
</g>
<!-- 4&#45;&gt;2 -->
<g id="edge42" class="edge">
<title>4&#45;&gt;2</title>
<path fill="none" stroke="black" d="M705.06,-403.95C711.2,-434.08 718.97,-497.25 687,-534 672.92,-550.19 616.81,-559.98 578.14,-564.94"/>
<polygon fill="black" stroke="black" points="577.77,-561.46 568.26,-566.14 578.61,-568.41 577.77,-561.46"/>
<text text-anchor="start" x="714" y="-476" font-family="Courier New" font-weight="bold" font-size="10.00" fill="orange">WAIT(0,0)</text>
</g>
<!-- 4&#45;&gt;10 -->
<g id="edge40" class="edge">
<title>4&#45;&gt;10</title>
<path fill="none" stroke="black" d="M727.91,-376.29C777.73,-360.16 884.44,-325.61 941.38,-307.18"/>
<polygon fill="black" stroke="black" points="942.2,-310.59 950.64,-304.18 940.04,-303.93 942.2,-310.59"/>
<text text-anchor="start" x="868" y="-338" font-family="Courier New" font-weight="bold" font-size="10.00" fill="orange">GRAB(0,0)</text>
</g>
<!-- 4&#45;&gt;20 -->
<g id="edge41" class="edge">
<title>4&#45;&gt;20</title>
<path fill="none" stroke="black" d="M727.8,-380.94C770.56,-374.46 856.87,-361.33 930,-350 1043.59,-332.4 1177.84,-311.19 1242.06,-301.01"/>
<polygon fill="black" stroke="black" points="1242.4,-304.51 1251.73,-299.48 1241.3,-297.59 1242.4,-304.51"/>
<text text-anchor="start" x="1059" y="-338" font-family="Courier New" font-weight="bold" font-size="10.00" fill="orange">WAIT(0,SIG_BURST)</text>
</g>
</g>
</svg>
