<?xml version="1.0" encoding="UTF-8" standalone="no"?>
<!DOCTYPE svg PUBLIC "-//W3C//DTD SVG 1.1//EN"
 "http://www.w3.org/Graphics/SVG/1.1/DTD/svg11.dtd">
<!-- Generated by graphviz version 7.1.0 (20230121.1956)
 -->
<!-- Pages: 1 -->
<svg width="371pt" height="228pt"
 viewBox="0.00 0.00 370.52 228.00" xmlns="http://www.w3.org/2000/svg" xmlns:xlink="http://www.w3.org/1999/xlink">
<g id="graph0" class="graph" transform="scale(1 1) rotate(0) translate(4 224)">
<polygon fill="white" stroke="none" points="-4,4 -4,-224 366.52,-224 366.52,4 -4,4"/>
<!-- 0 -->
<g id="node1" class="node">
<title>0</title>
<ellipse fill="none" stroke="black" cx="112.52" cy="-202" rx="27" ry="18"/>
<text text-anchor="middle" x="112.52" y="-197.8" font-family="Times,serif" font-size="14.00">0</text>
</g>
<!-- 1 -->
<g id="node2" class="node">
<title>1</title>
<ellipse fill="none" stroke="black" cx="36.52" cy="-110" rx="27" ry="18"/>
<text text-anchor="middle" x="36.52" y="-105.8" font-family="Times,serif" font-size="14.00">1</text>
</g>
<!-- 0&#45;&gt;1 -->
<g id="edge1" class="edge">
<title>0&#45;&gt;1</title>
<path fill="none" stroke="black" d="M99.63,-185.73C87.76,-171.68 69.99,-150.64 56.33,-134.46"/>
<polygon fill="black" stroke="black" points="59.32,-132.58 50.2,-127.2 53.98,-137.1 59.32,-132.58"/>
<text text-anchor="start" x="85.52" y="-154" font-family="Courier New" font-weight="bold" font-size="10.00" fill="orange">CLICK(0,0)</text>
</g>
<!-- 2 -->
<g id="node3" class="node">
<title>2</title>
<ellipse fill="none" stroke="black" cx="112.52" cy="-18" rx="27" ry="18"/>
<text text-anchor="middle" x="112.52" y="-13.8" font-family="Times,serif" font-size="14.00">2</text>
</g>
<!-- 1&#45;&gt;2 -->
<g id="edge2" class="edge">
<title>1&#45;&gt;2</title>
<path fill="none" stroke="black" d="M19.67,-95.92C7.05,-84.5 -6.45,-67.68 3.52,-54 19.59,-31.96 49.77,-23.49 74.3,-20.38"/>
<polygon fill="black" stroke="black" points="74.34,-23.89 83.94,-19.42 73.65,-16.93 74.34,-23.89"/>
<text text-anchor="start" x="7.52" y="-62" font-family="Courier New" font-weight="bold" font-size="10.00" fill="blue">SENDKEYI(KEY_RIGHT,IDV_INVENTORY)</text>
</g>
<!-- 2&#45;&gt;0 -->
<g id="edge3" class="edge">
<title>2&#45;&gt;0</title>
<path fill="none" stroke="black" d="M139.35,-20.55C162.2,-23.46 193.78,-31.58 209.52,-54 241.35,-99.33 179.56,-154.11 140.71,-182.27"/>
<polygon fill="black" stroke="black" points="138.79,-179.34 132.64,-187.96 142.83,-185.06 138.79,-179.34"/>
<text text-anchor="start" x="220.52" y="-108" font-family="Courier New" font-weight="bold" font-size="10.00" fill="blue">PLAYWAVE(0,SOUND_CLICK)</text>
</g>
</g>
</svg>
