<?xml version="1.0" encoding="UTF-8" standalone="no"?>
<!DOCTYPE svg PUBLIC "-//W3C//DTD SVG 1.1//EN"
 "http://www.w3.org/Graphics/SVG/1.1/DTD/svg11.dtd">
<!-- Generated by graphviz version 7.1.0 (20230121.1956)
 -->
<!-- Pages: 1 -->
<svg width="430pt" height="232pt"
 viewBox="0.00 0.00 429.86 232.00" xmlns="http://www.w3.org/2000/svg" xmlns:xlink="http://www.w3.org/1999/xlink">
<g id="graph0" class="graph" transform="scale(1 1) rotate(0) translate(4 228)">
<polygon fill="white" stroke="none" points="-4,4 -4,-228 425.86,-228 425.86,4 -4,4"/>
<!-- 0 -->
<g id="node1" class="node">
<title>0</title>
<ellipse fill="none" stroke="black" cx="128.86" cy="-206" rx="27" ry="18"/>
<text text-anchor="middle" x="128.86" y="-201.8" font-family="Times,serif" font-size="14.00">0</text>
</g>
<!-- 1 -->
<g id="node2" class="node">
<title>1</title>
<ellipse fill="none" stroke="black" cx="41.86" cy="-112" rx="27" ry="18"/>
<text text-anchor="middle" x="41.86" y="-107.8" font-family="Times,serif" font-size="14.00">1</text>
</g>
<!-- 0&#45;&gt;1 -->
<g id="edge1" class="edge">
<title>0&#45;&gt;1</title>
<path fill="none" stroke="black" d="M114.88,-190.22C101.05,-175.6 79.69,-153.01 63.64,-136.04"/>
<polygon fill="black" stroke="black" points="66.25,-133.71 56.84,-128.84 61.17,-138.52 66.25,-133.71"/>
<text text-anchor="start" x="99.86" y="-156.2" font-family="Courier New" font-weight="bold" font-size="12.00" fill="orange">CLICK(0,0)</text>
</g>
<!-- 2 -->
<g id="node3" class="node">
<title>2</title>
<ellipse fill="none" stroke="black" cx="128.86" cy="-18" rx="27" ry="18"/>
<text text-anchor="middle" x="128.86" y="-13.8" font-family="Times,serif" font-size="14.00">2</text>
</g>
<!-- 1&#45;&gt;2 -->
<g id="edge2" class="edge">
<title>1&#45;&gt;2</title>
<path fill="none" stroke="black" d="M23.58,-98.24C9,-86.49 -7.28,-68.69 3.86,-54 14.49,-39.99 58.63,-30.05 91.46,-24.43"/>
<polygon fill="black" stroke="black" points="91.73,-27.93 101.03,-22.86 90.6,-21.02 91.73,-27.93"/>
<text text-anchor="start" x="7.86" y="-62.2" font-family="Courier New" font-weight="bold" font-size="12.00" fill="blue">SENDKEYI(KEY_LEFT,IDV_INVENTORY)</text>
</g>
<!-- 2&#45;&gt;0 -->
<g id="edge3" class="edge">
<title>2&#45;&gt;0</title>
<path fill="none" stroke="black" d="M155.89,-18.89C182.6,-20.4 222.24,-27.38 241.86,-54 277.72,-102.66 203.09,-159.67 158.68,-187.68"/>
<polygon fill="black" stroke="black" points="156.89,-184.67 150.21,-192.88 160.56,-190.63 156.89,-184.67"/>
<text text-anchor="start" x="253.36" y="-109.2" font-family="Courier New" font-weight="bold" font-size="12.00" fill="blue">PLAYWAVE(0,SOUND_CLICK)</text>
</g>
</g>
</svg>
