<?xml version="1.0" encoding="UTF-8" standalone="no"?>
<!DOCTYPE svg PUBLIC "-//W3C//DTD SVG 1.1//EN"
 "http://www.w3.org/Graphics/SVG/1.1/DTD/svg11.dtd">
<!-- Generated by graphviz version 7.1.0 (20230121.1956)
 -->
<!-- Pages: 1 -->
<svg width="437pt" height="232pt"
 viewBox="0.00 0.00 436.93 232.00" xmlns="http://www.w3.org/2000/svg" xmlns:xlink="http://www.w3.org/1999/xlink">
<g id="graph0" class="graph" transform="scale(1 1) rotate(0) translate(4 228)">
<polygon fill="white" stroke="none" points="-4,4 -4,-228 432.93,-228 432.93,4 -4,4"/>
<!-- 0 -->
<g id="node1" class="node">
<title>0</title>
<ellipse fill="none" stroke="black" cx="132.93" cy="-206" rx="27" ry="18"/>
<text text-anchor="middle" x="132.93" y="-201.8" font-family="Times,serif" font-size="14.00">0</text>
</g>
<!-- 1 -->
<g id="node2" class="node">
<title>1</title>
<ellipse fill="none" stroke="black" cx="43.93" cy="-112" rx="27" ry="18"/>
<text text-anchor="middle" x="43.93" y="-107.8" font-family="Times,serif" font-size="14.00">1</text>
</g>
<!-- 0&#45;&gt;1 -->
<g id="edge1" class="edge">
<title>0&#45;&gt;1</title>
<path fill="none" stroke="black" d="M118.63,-190.22C104.36,-175.46 82.23,-152.6 65.76,-135.57"/>
<polygon fill="black" stroke="black" points="68.71,-133.59 59.24,-128.83 63.68,-138.45 68.71,-133.59"/>
<text text-anchor="start" x="103.93" y="-156.2" font-family="Courier New" font-weight="bold" font-size="12.00" fill="orange">CLICK(0,0)</text>
</g>
<!-- 2 -->
<g id="node3" class="node">
<title>2</title>
<ellipse fill="none" stroke="black" cx="132.93" cy="-18" rx="27" ry="18"/>
<text text-anchor="middle" x="132.93" y="-13.8" font-family="Times,serif" font-size="14.00">2</text>
</g>
<!-- 1&#45;&gt;2 -->
<g id="edge2" class="edge">
<title>1&#45;&gt;2</title>
<path fill="none" stroke="black" d="M25.14,-98.56C9.83,-86.87 -7.53,-68.98 3.93,-54 15.04,-39.47 61.4,-29.56 95.38,-24.09"/>
<polygon fill="black" stroke="black" points="95.5,-27.61 104.86,-22.64 94.44,-20.69 95.5,-27.61"/>
<text text-anchor="start" x="8.43" y="-62.2" font-family="Courier New" font-weight="bold" font-size="12.00" fill="blue">SENDKEYI(KEY_RIGHT,IDV_INVENTORY)</text>
</g>
<!-- 2&#45;&gt;0 -->
<g id="edge3" class="edge">
<title>2&#45;&gt;0</title>
<path fill="none" stroke="black" d="M160.4,-18.64C187.81,-19.94 228.67,-26.73 248.93,-54 285.4,-103.1 208.57,-160.09 163.16,-187.93"/>
<polygon fill="black" stroke="black" points="161.54,-184.82 154.75,-192.95 165.13,-190.83 161.54,-184.82"/>
<text text-anchor="start" x="260.43" y="-109.2" font-family="Courier New" font-weight="bold" font-size="12.00" fill="blue">PLAYWAVE(0,SOUND_CLICK)</text>
</g>
</g>
</svg>
