<?xml version="1.0" encoding="UTF-8" standalone="no"?>
<!DOCTYPE svg PUBLIC "-//W3C//DTD SVG 1.1//EN"
 "http://www.w3.org/Graphics/SVG/1.1/DTD/svg11.dtd">
<!-- Generated by graphviz version 7.1.0 (20230121.1956)
 -->
<!-- Pages: 1 -->
<svg width="416pt" height="232pt"
 viewBox="0.00 0.00 415.87 232.00" xmlns="http://www.w3.org/2000/svg" xmlns:xlink="http://www.w3.org/1999/xlink">
<g id="graph0" class="graph" transform="scale(1 1) rotate(0) translate(4 228)">
<polygon fill="white" stroke="none" points="-4,4 -4,-228 411.87,-228 411.87,4 -4,4"/>
<!-- 0 -->
<g id="node1" class="node">
<title>0</title>
<ellipse fill="none" stroke="black" cx="125.87" cy="-206" rx="27" ry="18"/>
<text text-anchor="middle" x="125.87" y="-201.8" font-family="Times,serif" font-size="14.00">0</text>
</g>
<!-- 1 -->
<g id="node2" class="node">
<title>1</title>
<ellipse fill="none" stroke="black" cx="42.87" cy="-112" rx="27" ry="18"/>
<text text-anchor="middle" x="42.87" y="-107.8" font-family="Times,serif" font-size="14.00">1</text>
</g>
<!-- 0&#45;&gt;1 -->
<g id="edge1" class="edge">
<title>0&#45;&gt;1</title>
<path fill="none" stroke="black" d="M112.53,-190.22C99.42,-175.69 79.21,-153.28 63.92,-136.34"/>
<polygon fill="black" stroke="black" points="66.75,-134.25 57.46,-129.17 61.56,-138.94 66.75,-134.25"/>
<text text-anchor="start" x="98.87" y="-156.2" font-family="Courier New" font-weight="bold" font-size="12.00" fill="orange">CLICK(00)</text>
</g>
<!-- 2 -->
<g id="node3" class="node">
<title>2</title>
<ellipse fill="none" stroke="black" cx="125.87" cy="-18" rx="27" ry="18"/>
<text text-anchor="middle" x="125.87" y="-13.8" font-family="Times,serif" font-size="14.00">2</text>
</g>
<!-- 1&#45;&gt;2 -->
<g id="edge2" class="edge">
<title>1&#45;&gt;2</title>
<path fill="none" stroke="black" d="M24.51,-98.54C9.55,-86.84 -7.39,-68.94 3.87,-54 22.95,-28.67 59.14,-20.76 87.17,-18.69"/>
<polygon fill="black" stroke="black" points="87.28,-22.19 97.1,-18.2 86.94,-15.19 87.28,-22.19"/>
<text text-anchor="start" x="8.37" y="-62.2" font-family="Courier New" font-weight="bold" font-size="12.00" fill="blue">SENDKEYI(KEY_LEFTIDV_INVENTORY)</text>
</g>
<!-- 2&#45;&gt;0 -->
<g id="edge3" class="edge">
<title>2&#45;&gt;0</title>
<path fill="none" stroke="black" d="M152.93,-19.27C178.71,-21.15 216.25,-28.47 234.87,-54 269.95,-102.11 198.15,-159.14 155.09,-187.36"/>
<polygon fill="black" stroke="black" points="153.43,-184.27 146.89,-192.6 157.2,-190.17 153.43,-184.27"/>
<text text-anchor="start" x="245.87" y="-109.2" font-family="Courier New" font-weight="bold" font-size="12.00" fill="blue">PLAYWAVE(0SOUND_CLICK)</text>
</g>
</g>
</svg>
