<?xml version="1.0" encoding="UTF-8" standalone="no"?>
<!DOCTYPE svg PUBLIC "-//W3C//DTD SVG 1.1//EN"
 "http://www.w3.org/Graphics/SVG/1.1/DTD/svg11.dtd">
<!-- Generated by graphviz version 7.1.0 (20230121.1956)
 -->
<!-- Pages: 1 -->
<svg width="364pt" height="228pt"
 viewBox="0.00 0.00 364.46 228.00" xmlns="http://www.w3.org/2000/svg" xmlns:xlink="http://www.w3.org/1999/xlink">
<g id="graph0" class="graph" transform="scale(1 1) rotate(0) translate(4 224)">
<polygon fill="white" stroke="none" points="-4,4 -4,-224 360.46,-224 360.46,4 -4,4"/>
<!-- 0 -->
<g id="node1" class="node">
<title>0</title>
<ellipse fill="none" stroke="black" cx="109.46" cy="-202" rx="27" ry="18"/>
<text text-anchor="middle" x="109.46" y="-197.8" font-family="Times,serif" font-size="14.00">0</text>
</g>
<!-- 1 -->
<g id="node2" class="node">
<title>1</title>
<ellipse fill="none" stroke="black" cx="35.46" cy="-110" rx="27" ry="18"/>
<text text-anchor="middle" x="35.46" y="-105.8" font-family="Times,serif" font-size="14.00">1</text>
</g>
<!-- 0&#45;&gt;1 -->
<g id="edge1" class="edge">
<title>0&#45;&gt;1</title>
<path fill="none" stroke="black" d="M96.9,-185.73C85.53,-171.9 68.57,-151.28 55.35,-135.2"/>
<polygon fill="black" stroke="black" points="58.09,-133.01 49.03,-127.51 52.68,-137.46 58.09,-133.01"/>
<text text-anchor="start" x="83.46" y="-154" font-family="Courier New" font-weight="bold" font-size="10.00" fill="orange">CLICK(0,0)</text>
</g>
<!-- 2 -->
<g id="node3" class="node">
<title>2</title>
<ellipse fill="none" stroke="black" cx="109.46" cy="-18" rx="27" ry="18"/>
<text text-anchor="middle" x="109.46" y="-13.8" font-family="Times,serif" font-size="14.00">2</text>
</g>
<!-- 1&#45;&gt;2 -->
<g id="edge2" class="edge">
<title>1&#45;&gt;2</title>
<path fill="none" stroke="black" d="M18.55,-95.43C6.4,-84 -6.25,-67.43 3.46,-54 18.78,-32.81 47.39,-24.23 71.03,-20.86"/>
<polygon fill="black" stroke="black" points="71.12,-24.37 80.65,-19.76 70.32,-17.42 71.12,-24.37"/>
<text text-anchor="start" x="7.46" y="-62" font-family="Courier New" font-weight="bold" font-size="10.00" fill="blue">SENDKEYI(KEY_LEFT,IDV_INVENTORY)</text>
</g>
<!-- 2&#45;&gt;0 -->
<g id="edge3" class="edge">
<title>2&#45;&gt;0</title>
<path fill="none" stroke="black" d="M136.35,-20.94C158.45,-24.11 188.45,-32.4 203.46,-54 234.69,-98.95 175,-153.68 137.18,-181.99"/>
<polygon fill="black" stroke="black" points="135.36,-178.99 129.33,-187.71 139.48,-184.65 135.36,-178.99"/>
<text text-anchor="start" x="214.46" y="-108" font-family="Courier New" font-weight="bold" font-size="10.00" fill="blue">PLAYWAVE(0,SOUND_CLICK)</text>
</g>
</g>
</svg>
