<?xml version="1.0" encoding="UTF-8" standalone="no"?>
<!DOCTYPE svg PUBLIC "-//W3C//DTD SVG 1.1//EN"
 "http://www.w3.org/Graphics/SVG/1.1/DTD/svg11.dtd">
<!-- Generated by graphviz version 7.1.0 (20230121.1956)
 -->
<!-- Title: Automaton Pages: 1 -->
<svg width="310pt" height="245pt"
 viewBox="0.00 0.00 310.00 245.00" xmlns="http://www.w3.org/2000/svg" xmlns:xlink="http://www.w3.org/1999/xlink">
<g id="graph0" class="graph" transform="scale(1 1) rotate(0) translate(4 241)">
<title>Automaton</title>
<polygon fill="white" stroke="none" points="-4,4 -4,-241 306,-241 306,4 -4,4"/>
<!-- filename -->
<g id="node1" class="node">
<title>filename</title>
<polygon fill="none" stroke="black" points="0,-184.5 0,-236.5 118,-236.5 118,-184.5 0,-184.5"/>
<polygon fill="none" stroke="black" points="11,-211.5 11,-229.5 107,-229.5 107,-211.5 11,-211.5"/>
<text text-anchor="start" x="32" y="-218.5" font-family="Courier New" font-weight="bold" font-size="10.00">M_KAMRAIN</text>
<polygon fill="none" stroke="black" points="11,-191.5 11,-209.5 107,-209.5 107,-191.5 11,-191.5"/>
<text text-anchor="start" x="14" y="-197.5" font-family="Courier New" font-size="10.00" fill="brown">start state = 0</text>
<polygon fill="none" stroke="black" points="8,-188.5 8,-232.5 110,-232.5 110,-188.5 8,-188.5"/>
</g>
<!-- 0 -->
<g id="node2" class="node">
<title>0</title>
<polyline fill="none" stroke="darkred" points="156,-199.5 170,-199.5"/>
<text text-anchor="start" x="159" y="-206.9" font-family="Courier New" font-weight="bold" font-size="14.00">0</text>
<path fill="none" stroke="darkred" d="M159.67,-196.5C159.67,-196.5 166.33,-196.5 166.33,-196.5 169.67,-196.5 173,-199.83 173,-203.17 173,-203.17 173,-217.83 173,-217.83 173,-221.17 169.67,-224.5 166.33,-224.5 166.33,-224.5 159.67,-224.5 159.67,-224.5 156.33,-224.5 153,-221.17 153,-217.83 153,-217.83 153,-203.17 153,-203.17 153,-199.83 156.33,-196.5 159.67,-196.5"/>
</g>
<!-- 1 -->
<g id="node3" class="node">
<title>1</title>
<polyline fill="none" stroke="darkred" points="96,-99 110,-99"/>
<text text-anchor="start" x="99" y="-106.4" font-family="Courier New" font-weight="bold" font-size="14.00">1</text>
<path fill="none" stroke="darkred" d="M99.67,-96C99.67,-96 106.33,-96 106.33,-96 109.67,-96 113,-99.33 113,-102.67 113,-102.67 113,-117.33 113,-117.33 113,-120.67 109.67,-124 106.33,-124 106.33,-124 99.67,-124 99.67,-124 96.33,-124 93,-120.67 93,-117.33 93,-117.33 93,-102.67 93,-102.67 93,-99.33 96.33,-96 99.67,-96"/>
</g>
<!-- 0&#45;&gt;1 -->
<g id="edge1" class="edge">
<title>0&#45;&gt;1</title>
<path fill="none" stroke="black" d="M138.48,-192.6C125.99,-183.46 112.67,-172.71 109,-166 104.58,-157.91 102.63,-148.16 101.92,-139.13"/>
<polygon fill="black" stroke="black" points="105.42,-139.28 101.64,-129.39 98.42,-139.48 105.42,-139.28"/>
<text text-anchor="start" x="113" y="-154" font-family="Courier New" font-weight="bold" font-size="10.00" fill="orange">WAIT(,SIG_SHOW)</text>
</g>
<!-- 2 -->
<g id="node4" class="node">
<title>2</title>
<polyline fill="none" stroke="darkred" points="154,-7 168,-7"/>
<text text-anchor="start" x="157" y="-14.4" font-family="Courier New" font-weight="bold" font-size="14.00">2</text>
<path fill="none" stroke="darkred" d="M157.67,-4C157.67,-4 164.33,-4 164.33,-4 167.67,-4 171,-7.33 171,-10.67 171,-10.67 171,-25.33 171,-25.33 171,-28.67 167.67,-32 164.33,-32 164.33,-32 157.67,-32 157.67,-32 154.33,-32 151,-28.67 151,-25.33 151,-25.33 151,-10.67 151,-10.67 151,-7.33 154.33,-4 157.67,-4"/>
</g>
<!-- 1&#45;&gt;2 -->
<g id="edge2" class="edge">
<title>1&#45;&gt;2</title>
<path fill="none" stroke="black" d="M98.87,-92.03C97.03,-80.56 96.52,-65.47 103,-54 107.86,-45.39 115.79,-38.66 124.24,-33.5"/>
<polygon fill="black" stroke="black" points="125.75,-36.66 132.92,-28.87 122.45,-30.49 125.75,-36.66"/>
<text text-anchor="start" x="107" y="-62" font-family="Courier New" font-weight="bold" font-size="10.00" fill="blue">VIDEO(,IDS_RAIN)</text>
</g>
<!-- 2&#45;&gt;0 -->
<g id="edge3" class="edge">
<title>2&#45;&gt;0</title>
<path fill="none" stroke="black" d="M187.92,-33.16C195.5,-38.58 202.81,-45.55 207,-54 229.11,-98.6 226.18,-120.07 207,-166 204.18,-172.77 199.73,-179.01 194.73,-184.54"/>
<polygon fill="black" stroke="black" points="192.29,-182.03 187.64,-191.54 197.21,-187.01 192.29,-182.03"/>
<text text-anchor="start" x="226" y="-108" font-family="Courier New" font-weight="bold" font-size="10.00" fill="blue">Z_EPSILON(,)</text>
</g>
</g>
</svg>
