<?xml version="1.0" encoding="UTF-8" standalone="no"?>
<!DOCTYPE svg PUBLIC "-//W3C//DTD SVG 1.1//EN"
 "http://www.w3.org/Graphics/SVG/1.1/DTD/svg11.dtd">
<!-- Generated by graphviz version 7.1.0 (20230121.1956)
 -->
<!-- Title: Automaton Pages: 1 -->
<svg width="334pt" height="305pt"
 viewBox="0.00 0.00 334.00 305.00" xmlns="http://www.w3.org/2000/svg" xmlns:xlink="http://www.w3.org/1999/xlink">
<g id="graph0" class="graph" transform="scale(1 1) rotate(0) translate(4 301)">
<title>Automaton</title>
<polygon fill="white" stroke="none" points="-4,4 -4,-301 330,-301 330,4 -4,4"/>
<!-- filename -->
<g id="node1" class="node">
<title>filename</title>
<polygon fill="none" stroke="black" points="0,-244.5 0,-296.5 118,-296.5 118,-244.5 0,-244.5"/>
<polygon fill="none" stroke="black" points="11,-271.5 11,-289.5 107,-289.5 107,-271.5 11,-271.5"/>
<text text-anchor="start" x="19.99" y="-278.5" font-family="Courier New" font-weight="bold" font-size="10.00">M_KAMDOOR_alt</text>
<polygon fill="none" stroke="black" points="11,-251.5 11,-269.5 107,-269.5 107,-251.5 11,-251.5"/>
<text text-anchor="start" x="14" y="-257.5" font-family="Courier New" font-size="10.00" fill="brown">start state = 0</text>
<polygon fill="none" stroke="black" points="8,-248.5 8,-292.5 110,-292.5 110,-248.5 8,-248.5"/>
</g>
<!-- 0 -->
<g id="node2" class="node">
<title>0</title>
<polyline fill="none" stroke="darkred" points="156,-259.5 170,-259.5"/>
<text text-anchor="start" x="159" y="-266.9" font-family="Courier New" font-weight="bold" font-size="14.00">0</text>
<path fill="none" stroke="darkred" d="M159.67,-256.5C159.67,-256.5 166.33,-256.5 166.33,-256.5 169.67,-256.5 173,-259.83 173,-263.17 173,-263.17 173,-277.83 173,-277.83 173,-281.17 169.67,-284.5 166.33,-284.5 166.33,-284.5 159.67,-284.5 159.67,-284.5 156.33,-284.5 153,-281.17 153,-277.83 153,-277.83 153,-263.17 153,-263.17 153,-259.83 156.33,-256.5 159.67,-256.5"/>
</g>
<!-- altViewShown -->
<g id="node3" class="node">
<title>altViewShown</title>
<polyline fill="none" stroke="darkred" points="109,-123 215,-123"/>
<text text-anchor="start" x="112" y="-130.4" font-family="Courier New" font-weight="bold" font-size="14.00">altViewShown</text>
<path fill="none" stroke="darkred" d="M115.33,-120C115.33,-120 208.67,-120 208.67,-120 213.33,-120 218,-124.67 218,-129.33 218,-129.33 218,-138.67 218,-138.67 218,-143.33 213.33,-148 208.67,-148 208.67,-148 115.33,-148 115.33,-148 110.67,-148 106,-143.33 106,-138.67 106,-138.67 106,-129.33 106,-129.33 106,-124.67 110.67,-120 115.33,-120"/>
</g>
<!-- 0&#45;&gt;altViewShown -->
<g id="edge1" class="edge">
<title>0&#45;&gt;altViewShown</title>
<path fill="none" stroke="black" d="M139.52,-252.56C135.38,-249.66 131.08,-246.71 127,-244 114.36,-235.61 105.37,-239.26 98,-226 85.9,-204.25 85.31,-191.41 98,-170 100.47,-165.83 103.63,-162.13 107.22,-158.85"/>
<polygon fill="black" stroke="black" points="109.25,-161.7 115.05,-152.84 104.99,-156.15 109.25,-161.7"/>
<polygon fill="none" stroke="black" points="101,-205 101,-223 203,-223 203,-205 101,-205"/>
<text text-anchor="start" x="106.99" y="-212" font-family="Courier New" font-weight="bold" font-size="10.00" fill="orange">WAIT(,SIG_SHOW)</text>
<polygon fill="none" stroke="black" points="101,-173 101,-203 203,-203 203,-173 101,-173"/>
<text text-anchor="start" x="104" y="-191" font-family="Courier New" font-size="10.00" fill="blue"> &#160;&#160;&#160;&#160;SHOW(WIP1);</text>
<text text-anchor="start" x="104" y="-179" font-family="Courier New" font-size="10.00" fill="blue"> &#160;&#160;&#160;&#160;ANIMATE();</text>
<polygon fill="none" stroke="black" points="98,-170 98,-226 206,-226 206,-170 98,-170"/>
</g>
<!-- altViewShown&#45;&gt;0 -->
<g id="edge3" class="edge">
<title>altViewShown&#45;&gt;0</title>
<path fill="none" stroke="black" d="M190.98,-151.91C197.04,-156.91 202.61,-162.97 206,-170 216.81,-192.42 215.46,-202.98 206,-226 203.25,-232.7 198.9,-238.92 194.02,-244.44"/>
<polygon fill="black" stroke="black" points="191.65,-241.86 187.1,-251.43 196.62,-246.79 191.65,-241.86"/>
<polygon fill="none" stroke="black" points="216,-199 216,-217 312,-217 312,-199 216,-199"/>
<text text-anchor="start" x="219" y="-206" font-family="Courier New" font-weight="bold" font-size="10.00" fill="orange">WAIT(,SIG_HIDE)</text>
<polygon fill="none" stroke="black" points="216,-179 216,-197 312,-197 312,-179 216,-179"/>
<text text-anchor="start" x="227.99" y="-185" font-family="Courier New" font-size="10.00" fill="blue"> &#160;&#160;&#160;&#160;SHOW();</text>
<polygon fill="none" stroke="black" points="213,-176 213,-220 315,-220 315,-176 213,-176"/>
</g>
<!-- zoomed -->
<g id="node4" class="node">
<title>zoomed</title>
<polyline fill="none" stroke="darkred" points="134,-7 190,-7"/>
<text text-anchor="start" x="137" y="-14.4" font-family="Courier New" font-weight="bold" font-size="14.00">zoomed</text>
<path fill="none" stroke="darkred" d="M140.33,-4C140.33,-4 183.67,-4 183.67,-4 188.33,-4 193,-8.67 193,-13.33 193,-13.33 193,-22.67 193,-22.67 193,-27.33 188.33,-32 183.67,-32 183.67,-32 140.33,-32 140.33,-32 135.67,-32 131,-27.33 131,-22.67 131,-22.67 131,-13.33 131,-13.33 131,-8.67 135.67,-4 140.33,-4"/>
</g>
<!-- altViewShown&#45;&gt;zoomed -->
<g id="edge2" class="edge">
<title>altViewShown&#45;&gt;zoomed</title>
<path fill="none" stroke="black" d="M98.17,-122.34C85.17,-117.14 73.03,-109.43 65,-98 53.76,-82 53.76,-70 65,-54 75.91,-38.47 94.41,-29.8 112.35,-24.97"/>
<polygon fill="black" stroke="black" points="112.94,-28.43 121.9,-22.77 111.37,-21.61 112.94,-28.43"/>
<polygon fill="none" stroke="black" points="68,-77 68,-95 236,-95 236,-77 68,-77"/>
<text text-anchor="start" x="128" y="-84" font-family="Courier New" font-weight="bold" font-size="10.00" fill="orange">CLICK(,)</text>
<polygon fill="none" stroke="black" points="68,-57 68,-75 236,-75 236,-57 68,-57"/>
<text text-anchor="start" x="71" y="-63" font-family="Courier New" font-size="10.00" fill="blue"> &#160;&#160;&#160;&#160;LOADVIEW(0,IDV_MOON5);</text>
<polygon fill="none" stroke="black" points="65,-54 65,-98 239,-98 239,-54 65,-54"/>
</g>
<!-- zoomed&#45;&gt;altViewShown -->
<g id="edge4" class="edge">
<title>zoomed&#45;&gt;altViewShown</title>
<path fill="none" stroke="black" d="M200.84,-27.2C215.37,-32.35 230.41,-40.67 239,-54 249.59,-70.44 249.59,-81.56 239,-98 236.2,-102.35 232.7,-106.17 228.77,-109.52"/>
<polygon fill="black" stroke="black" points="226.86,-106.58 220.76,-115.24 230.93,-112.28 226.86,-106.58"/>
<text text-anchor="start" x="250" y="-74" font-family="Courier New" font-weight="bold" font-size="10.00" fill="blue">Z_EPSILON(,)</text>
</g>
</g>
</svg>
