<?xml version="1.0" encoding="UTF-8" standalone="no"?>
<!DOCTYPE svg PUBLIC "-//W3C//DTD SVG 1.1//EN"
 "http://www.w3.org/Graphics/SVG/1.1/DTD/svg11.dtd">
<!-- Generated by graphviz version 7.1.0 (20230121.1956)
 -->
<!-- Pages: 1 -->
<svg width="357pt" height="1392pt"
 viewBox="0.00 0.00 357.01 1392.00" xmlns="http://www.w3.org/2000/svg" xmlns:xlink="http://www.w3.org/1999/xlink">
<g id="graph0" class="graph" transform="scale(1 1) rotate(0) translate(4 1388)">
<polygon fill="white" stroke="none" points="-4,4 -4,-1388 353.01,-1388 353.01,4 -4,4"/>
<!-- M_LEVER_0 -->
<g id="node1" class="node">
<title>M_LEVER_0</title>
<polygon fill="none" stroke="black" points="173.22,-1347.5 173.22,-1383.5 267.77,-1383.5 267.77,-1347.5 173.22,-1347.5"/>
<text text-anchor="middle" x="220.5" y="-1361.3" font-family="Times,serif" font-size="14.00">M_LEVER_0</text>
</g>
<!-- M_LEVER_1 -->
<g id="node2" class="node">
<title>M_LEVER_1</title>
<polygon fill="none" stroke="black" points="173.22,-1257.7 173.22,-1293.7 267.77,-1293.7 267.77,-1257.7 173.22,-1257.7"/>
<text text-anchor="middle" x="220.5" y="-1271.5" font-family="Times,serif" font-size="14.00">M_LEVER_1</text>
</g>
<!-- M_LEVER_0&#45;&gt;M_LEVER_1 -->
<g id="edge1" class="edge">
<title>M_LEVER_0&#45;&gt;M_LEVER_1</title>
<path fill="none" stroke="green" d="M220.5,-1347.57C220.5,-1335.42 220.5,-1318.78 220.5,-1304.67"/>
<polygon fill="green" stroke="green" points="224,-1305.09 220.5,-1295.09 217,-1305.09 224,-1305.09"/>
<text text-anchor="start" x="220.5" y="-1317.4" font-family="Times,serif" font-size="14.00" fill="green"> </text>
<text text-anchor="start" x="224" y="-1317.4" font-family="Courier New" font-size="10.00" fill="green">MOV(BFRAME,0)</text>
</g>
<!-- M_LEVER_2 -->
<g id="node3" class="node">
<title>M_LEVER_2</title>
<polygon fill="none" stroke="black" points="173.22,-1167.9 173.22,-1203.9 267.77,-1203.9 267.77,-1167.9 173.22,-1167.9"/>
<text text-anchor="middle" x="220.5" y="-1181.7" font-family="Times,serif" font-size="14.00">M_LEVER_2</text>
</g>
<!-- M_LEVER_1&#45;&gt;M_LEVER_2 -->
<g id="edge2" class="edge">
<title>M_LEVER_1&#45;&gt;M_LEVER_2</title>
<path fill="none" stroke="green" d="M220.5,-1257.77C220.5,-1245.62 220.5,-1228.98 220.5,-1214.87"/>
<polygon fill="green" stroke="green" points="224,-1215.29 220.5,-1205.29 217,-1215.29 224,-1215.29"/>
<text text-anchor="start" x="220.5" y="-1227.6" font-family="Times,serif" font-size="14.00" fill="green"> </text>
<text text-anchor="start" x="224" y="-1227.6" font-family="Courier New" font-size="10.00" fill="green">SHOW(WIP1,)</text>
</g>
<!-- M_LEVER_3 -->
<g id="node4" class="node">
<title>M_LEVER_3</title>
<polygon fill="none" stroke="black" points="95.22,-1078.1 95.22,-1114.1 189.77,-1114.1 189.77,-1078.1 95.22,-1078.1"/>
<text text-anchor="middle" x="142.5" y="-1091.9" font-family="Times,serif" font-size="14.00">M_LEVER_3</text>
</g>
<!-- M_LEVER_2&#45;&gt;M_LEVER_3 -->
<g id="edge3" class="edge">
<title>M_LEVER_2&#45;&gt;M_LEVER_3</title>
<path fill="none" stroke="red" d="M205.46,-1167.97C194.02,-1155.1 178.09,-1137.17 165.12,-1122.56"/>
<polygon fill="red" stroke="red" points="167.75,-1120.26 158.5,-1115.11 162.52,-1124.91 167.75,-1120.26"/>
<text text-anchor="start" x="187.5" y="-1137.8" font-family="Times,serif" font-size="14.00" fill="red"> </text>
<text text-anchor="start" x="191" y="-1137.8" font-family="Courier New" font-size="10.00" fill="red">CLICK(0,0)</text>
</g>
<!-- M_LEVER_4 -->
<g id="node5" class="node">
<title>M_LEVER_4</title>
<polygon fill="none" stroke="black" points="69.22,-988.3 69.22,-1024.3 163.77,-1024.3 163.77,-988.3 69.22,-988.3"/>
<text text-anchor="middle" x="116.5" y="-1002.1" font-family="Times,serif" font-size="14.00">M_LEVER_4</text>
</g>
<!-- M_LEVER_3&#45;&gt;M_LEVER_4 -->
<g id="edge4" class="edge">
<title>M_LEVER_3&#45;&gt;M_LEVER_4</title>
<path fill="none" stroke="green" d="M132.23,-1078.28C129.14,-1072.53 126.02,-1065.95 123.98,-1059.6 121.51,-1051.95 119.86,-1043.4 118.75,-1035.48"/>
<polygon fill="green" stroke="green" points="122.24,-1035.15 117.62,-1025.62 115.28,-1035.95 122.24,-1035.15"/>
<text text-anchor="start" x="124.5" y="-1048" font-family="Times,serif" font-size="14.00" fill="green"> </text>
<text text-anchor="start" x="128" y="-1048" font-family="Courier New" font-size="10.00" fill="green">PLAYWAVE(0,SOUND_LEVER)</text>
</g>
<!-- M_LEVER_6 -->
<g id="node6" class="node">
<title>M_LEVER_6</title>
<polygon fill="none" stroke="black" points="42.22,-898.5 42.22,-934.5 136.77,-934.5 136.77,-898.5 42.22,-898.5"/>
<text text-anchor="middle" x="89.5" y="-912.3" font-family="Times,serif" font-size="14.00">M_LEVER_6</text>
</g>
<!-- M_LEVER_4&#45;&gt;M_LEVER_6 -->
<g id="edge5" class="edge">
<title>M_LEVER_4&#45;&gt;M_LEVER_6</title>
<path fill="none" stroke="green" d="M111.29,-988.37C107.52,-976.1 102.34,-959.25 97.97,-945.05"/>
<polygon fill="green" stroke="green" points="101.42,-944.35 95.13,-935.82 94.73,-946.41 101.42,-944.35"/>
<text text-anchor="start" x="105.5" y="-958.2" font-family="Times,serif" font-size="14.00" fill="green"> </text>
<text text-anchor="start" x="109" y="-958.2" font-family="Courier New" font-size="10.00" fill="green">ADDI(BFRAME,1)</text>
</g>
<!-- M_LEVER_7 -->
<g id="node7" class="node">
<title>M_LEVER_7</title>
<polygon fill="none" stroke="black" points="26.22,-808.7 26.22,-844.7 120.77,-844.7 120.77,-808.7 26.22,-808.7"/>
<text text-anchor="middle" x="73.5" y="-822.5" font-family="Times,serif" font-size="14.00">M_LEVER_7</text>
</g>
<!-- M_LEVER_6&#45;&gt;M_LEVER_7 -->
<g id="edge6" class="edge">
<title>M_LEVER_6&#45;&gt;M_LEVER_7</title>
<path fill="none" stroke="green" d="M86.41,-898.57C84.2,-886.42 81.17,-869.78 78.6,-855.67"/>
<polygon fill="green" stroke="green" points="82.08,-855.28 76.85,-846.07 75.19,-856.53 82.08,-855.28"/>
<text text-anchor="start" x="83.5" y="-868.4" font-family="Times,serif" font-size="14.00" fill="green"> </text>
<text text-anchor="start" x="87" y="-868.4" font-family="Courier New" font-size="10.00" fill="green">SIGNALi(SIG_OPEN,S21_MAPOPEN)</text>
</g>
<!-- M_LEVER_8 -->
<g id="node8" class="node">
<title>M_LEVER_8</title>
<polygon fill="none" stroke="black" points="21.22,-718.9 21.22,-754.9 115.77,-754.9 115.77,-718.9 21.22,-718.9"/>
<text text-anchor="middle" x="68.5" y="-732.7" font-family="Times,serif" font-size="14.00">M_LEVER_8</text>
</g>
<!-- M_LEVER_7&#45;&gt;M_LEVER_8 -->
<g id="edge7" class="edge">
<title>M_LEVER_7&#45;&gt;M_LEVER_8</title>
<path fill="none" stroke="green" d="M71.56,-808.75C70.96,-802.88 70.35,-796.26 69.97,-790.2 69.47,-782.47 69.15,-774.08 68.93,-766.33"/>
<polygon fill="green" stroke="green" points="72.43,-766.3 68.7,-756.39 65.43,-766.46 72.43,-766.3"/>
<text text-anchor="start" x="70.5" y="-778.6" font-family="Times,serif" font-size="14.00" fill="green"> </text>
<text text-anchor="start" x="74" y="-778.6" font-family="Courier New" font-size="10.00" fill="green">SIGNALi(SIG_SHOW,S21_ALT_MAPBOX)</text>
</g>
<!-- M_LEVER_9 -->
<g id="node9" class="node">
<title>M_LEVER_9</title>
<polygon fill="none" stroke="black" points="21.22,-629.1 21.22,-665.1 115.77,-665.1 115.77,-629.1 21.22,-629.1"/>
<text text-anchor="middle" x="68.5" y="-642.9" font-family="Times,serif" font-size="14.00">M_LEVER_9</text>
</g>
<!-- M_LEVER_8&#45;&gt;M_LEVER_9 -->
<g id="edge8" class="edge">
<title>M_LEVER_8&#45;&gt;M_LEVER_9</title>
<path fill="none" stroke="green" d="M68.5,-718.97C68.5,-706.82 68.5,-690.18 68.5,-676.07"/>
<polygon fill="green" stroke="green" points="72,-676.49 68.5,-666.49 65,-676.49 72,-676.49"/>
<text text-anchor="start" x="68.5" y="-688.8" font-family="Times,serif" font-size="14.00" fill="green"> </text>
<text text-anchor="start" x="72" y="-688.8" font-family="Courier New" font-size="10.00" fill="green">SIGNALi(SIG_SHOW,S21_ALT_LEVER)</text>
</g>
<!-- M_LEVER_10 -->
<g id="node10" class="node">
<title>M_LEVER_10</title>
<polygon fill="none" stroke="black" points="17.72,-539.3 17.72,-575.3 119.27,-575.3 119.27,-539.3 17.72,-539.3"/>
<text text-anchor="middle" x="68.5" y="-553.1" font-family="Times,serif" font-size="14.00">M_LEVER_10</text>
</g>
<!-- M_LEVER_9&#45;&gt;M_LEVER_10 -->
<g id="edge9" class="edge">
<title>M_LEVER_9&#45;&gt;M_LEVER_10</title>
<path fill="none" stroke="green" d="M23.4,-629.3C6.99,-620.4 -5.65,-608.3 2.99,-593.8 5.63,-589.37 9.04,-585.45 12.91,-582"/>
<polygon fill="green" stroke="green" points="14.9,-584.89 20.8,-576.09 10.7,-579.29 14.9,-584.89"/>
<text text-anchor="start" x="3.5" y="-599" font-family="Times,serif" font-size="14.00" fill="green"> </text>
<text text-anchor="start" x="7" y="-599" font-family="Courier New" font-size="10.00" fill="green">ESTIME(,3)</text>
</g>
<!-- M_LEVER_10&#45;&gt;M_LEVER_9 -->
<g id="edge10" class="edge">
<title>M_LEVER_10&#45;&gt;M_LEVER_9</title>
<path fill="none" stroke="green" d="M68.5,-575.18C68.5,-587.31 68.5,-603.95 68.5,-618.06"/>
<polygon fill="green" stroke="green" points="65,-617.66 68.5,-627.66 72,-617.66 65,-617.66"/>
<text text-anchor="start" x="68.5" y="-599" font-family="Times,serif" font-size="14.00" fill="green"> </text>
<text text-anchor="start" x="72" y="-599" font-family="Courier New" font-size="10.00" fill="green">IFSTATEi(60,S21_LEVSTOP)</text>
</g>
<!-- M_LEVER_11 -->
<g id="node11" class="node">
<title>M_LEVER_11</title>
<polygon fill="none" stroke="black" points="17.72,-449.5 17.72,-485.5 119.27,-485.5 119.27,-449.5 17.72,-449.5"/>
<text text-anchor="middle" x="68.5" y="-463.3" font-family="Times,serif" font-size="14.00">M_LEVER_11</text>
</g>
<!-- M_LEVER_10&#45;&gt;M_LEVER_11 -->
<g id="edge11" class="edge">
<title>M_LEVER_10&#45;&gt;M_LEVER_11</title>
<path fill="none" stroke="green" d="M68.5,-539.37C68.5,-527.22 68.5,-510.58 68.5,-496.47"/>
<polygon fill="green" stroke="green" points="72,-496.89 68.5,-486.89 65,-496.89 72,-496.89"/>
<text text-anchor="start" x="68.5" y="-509.2" font-family="Times,serif" font-size="14.00" fill="green"> </text>
<text text-anchor="start" x="72" y="-509.2" font-family="Courier New" font-size="10.00" fill="green">Z_EPSILON(,)</text>
</g>
<!-- M_LEVER_12 -->
<g id="node12" class="node">
<title>M_LEVER_12</title>
<polygon fill="none" stroke="black" points="17.72,-359.7 17.72,-395.7 119.27,-395.7 119.27,-359.7 17.72,-359.7"/>
<text text-anchor="middle" x="68.5" y="-373.5" font-family="Times,serif" font-size="14.00">M_LEVER_12</text>
</g>
<!-- M_LEVER_11&#45;&gt;M_LEVER_12 -->
<g id="edge12" class="edge">
<title>M_LEVER_11&#45;&gt;M_LEVER_12</title>
<path fill="none" stroke="green" d="M68.5,-449.57C68.5,-437.42 68.5,-420.78 68.5,-406.67"/>
<polygon fill="green" stroke="green" points="72,-407.09 68.5,-397.09 65,-407.09 72,-407.09"/>
<text text-anchor="start" x="68.5" y="-419.4" font-family="Times,serif" font-size="14.00" fill="green"> </text>
<text text-anchor="start" x="72" y="-419.4" font-family="Courier New" font-size="10.00" fill="green">SUBI(BFRAME,1)</text>
</g>
<!-- M_LEVER_13 -->
<g id="node13" class="node">
<title>M_LEVER_13</title>
<polygon fill="none" stroke="black" points="17.72,-269.9 17.72,-305.9 119.27,-305.9 119.27,-269.9 17.72,-269.9"/>
<text text-anchor="middle" x="68.5" y="-283.7" font-family="Times,serif" font-size="14.00">M_LEVER_13</text>
</g>
<!-- M_LEVER_12&#45;&gt;M_LEVER_13 -->
<g id="edge13" class="edge">
<title>M_LEVER_12&#45;&gt;M_LEVER_13</title>
<path fill="none" stroke="green" d="M68.5,-359.77C68.5,-347.62 68.5,-330.98 68.5,-316.87"/>
<polygon fill="green" stroke="green" points="72,-317.29 68.5,-307.29 65,-317.29 72,-317.29"/>
<text text-anchor="start" x="68.5" y="-329.6" font-family="Times,serif" font-size="14.00" fill="green"> </text>
<text text-anchor="start" x="72" y="-329.6" font-family="Courier New" font-size="10.00" fill="green">SIGNALi(SIG_CLOSE,S21_MAPOPEN)</text>
</g>
<!-- M_LEVER_14 -->
<g id="node14" class="node">
<title>M_LEVER_14</title>
<polygon fill="none" stroke="black" points="19.72,-180.1 19.72,-216.1 121.27,-216.1 121.27,-180.1 19.72,-180.1"/>
<text text-anchor="middle" x="70.5" y="-193.9" font-family="Times,serif" font-size="14.00">M_LEVER_14</text>
</g>
<!-- M_LEVER_13&#45;&gt;M_LEVER_14 -->
<g id="edge14" class="edge">
<title>M_LEVER_13&#45;&gt;M_LEVER_14</title>
<path fill="none" stroke="green" d="M68.88,-269.97C69.16,-257.82 69.54,-241.18 69.86,-227.07"/>
<polygon fill="green" stroke="green" points="73.35,-227.57 70.08,-217.49 66.35,-227.41 73.35,-227.57"/>
<text text-anchor="start" x="70.5" y="-239.8" font-family="Times,serif" font-size="14.00" fill="green"> </text>
<text text-anchor="start" x="74" y="-239.8" font-family="Courier New" font-size="10.00" fill="green">SIGNALi(SIG_HIDE,S21_ALT_MAPBOX)</text>
</g>
<!-- M_LEVER_15 -->
<g id="node15" class="node">
<title>M_LEVER_15</title>
<polygon fill="none" stroke="black" points="35.72,-90.3 35.72,-126.3 137.27,-126.3 137.27,-90.3 35.72,-90.3"/>
<text text-anchor="middle" x="86.5" y="-104.1" font-family="Times,serif" font-size="14.00">M_LEVER_15</text>
</g>
<!-- M_LEVER_14&#45;&gt;M_LEVER_15 -->
<g id="edge15" class="edge">
<title>M_LEVER_14&#45;&gt;M_LEVER_15</title>
<path fill="none" stroke="green" d="M71.45,-180.49C72.24,-170.15 73.62,-156.62 75.97,-144.8 76.47,-142.29 77.07,-139.7 77.72,-137.12"/>
<polygon fill="green" stroke="green" points="81.07,-138.15 80.41,-127.57 74.33,-136.25 81.07,-138.15"/>
<text text-anchor="start" x="76.5" y="-150" font-family="Times,serif" font-size="14.00" fill="green"> </text>
<text text-anchor="start" x="80" y="-150" font-family="Courier New" font-size="10.00" fill="green">SIGNALi(SIG_HIDE,S21_ALT_LEVER)</text>
</g>
<!-- M_LEVER_16 -->
<g id="node16" class="node">
<title>M_LEVER_16</title>
<polygon fill="none" stroke="black" points="137.72,-0.5 137.72,-36.5 239.27,-36.5 239.27,-0.5 137.72,-0.5"/>
<text text-anchor="middle" x="188.5" y="-14.3" font-family="Times,serif" font-size="14.00">M_LEVER_16</text>
</g>
<!-- M_LEVER_15&#45;&gt;M_LEVER_16 -->
<g id="edge16" class="edge">
<title>M_LEVER_15&#45;&gt;M_LEVER_16</title>
<path fill="none" stroke="green" d="M95.7,-90.73C102.46,-79.63 112.45,-65.23 123.98,-55 129.25,-50.32 135.24,-46.01 141.4,-42.13"/>
<polygon fill="green" stroke="green" points="143,-45.25 149.83,-37.15 139.44,-39.22 143,-45.25"/>
<text text-anchor="start" x="124.5" y="-60.2" font-family="Times,serif" font-size="14.00" fill="green"> </text>
<text text-anchor="start" x="128" y="-60.2" font-family="Courier New" font-size="10.00" fill="green">PLAYWAVE(0,SOUND_LEVER)</text>
</g>
<!-- M_LEVER_16&#45;&gt;M_LEVER_2 -->
<g id="edge17" class="edge">
<title>M_LEVER_16&#45;&gt;M_LEVER_2</title>
<path fill="none" stroke="green" d="M239.27,-35.18C249.08,-40.19 258.48,-46.67 265.5,-55 281,-73.4 279.5,-83.24 279.5,-107.3 279.5,-1097.1 279.5,-1097.1 279.5,-1097.1 279.5,-1121.34 263.81,-1143.92 248.62,-1160.12"/>
<polygon fill="green" stroke="green" points="246.44,-1157.34 241.87,-1166.9 251.4,-1162.28 246.44,-1157.34"/>
<text text-anchor="start" x="279.5" y="-599" font-family="Times,serif" font-size="14.00" fill="green"> </text>
<text text-anchor="start" x="283" y="-599" font-family="Courier New" font-size="10.00" fill="green">SHOW(WIP1,)</text>
</g>
</g>
</svg>
