<?xml version="1.0" encoding="UTF-8" standalone="no"?>
<!DOCTYPE svg PUBLIC "-//W3C//DTD SVG 1.1//EN"
 "http://www.w3.org/Graphics/SVG/1.1/DTD/svg11.dtd">
<!-- Generated by graphviz version 7.1.0 (20230121.1956)
 -->
<!-- Pages: 1 -->
<svg width="433pt" height="420pt"
 viewBox="0.00 0.00 432.90 420.00" xmlns="http://www.w3.org/2000/svg" xmlns:xlink="http://www.w3.org/1999/xlink">
<g id="graph0" class="graph" transform="scale(1 1) rotate(0) translate(4 416)">
<polygon fill="white" stroke="none" points="-4,4 -4,-416 428.9,-416 428.9,4 -4,4"/>
<!-- 0 -->
<g id="node1" class="node">
<title>0</title>
<ellipse fill="none" stroke="black" cx="290.9" cy="-394" rx="27" ry="18"/>
<text text-anchor="middle" x="290.9" y="-389.8" font-family="Times,serif" font-size="14.00">0</text>
</g>
<!-- 1 -->
<g id="node2" class="node">
<title>1</title>
<ellipse fill="none" stroke="black" cx="215.9" cy="-300" rx="27" ry="18"/>
<text text-anchor="middle" x="215.9" y="-295.8" font-family="Times,serif" font-size="14.00">1</text>
</g>
<!-- 0&#45;&gt;1 -->
<g id="edge1" class="edge">
<title>0&#45;&gt;1</title>
<path fill="none" stroke="black" d="M267.14,-384.73C254.31,-379.1 239.22,-370.39 229.9,-358 223.8,-349.9 220.32,-339.48 218.36,-329.77"/>
<polygon fill="black" stroke="black" points="221.83,-329.34 216.86,-319.98 214.91,-330.39 221.83,-329.34"/>
<text text-anchor="start" x="233.9" y="-344.2" font-family="Courier New" font-weight="bold" font-size="12.00" fill="orange">WAIT(0SIG_OPEN)</text>
</g>
<!-- 3 -->
<g id="node3" class="node">
<title>3</title>
<ellipse fill="none" stroke="black" cx="204.9" cy="-206" rx="27" ry="18"/>
<text text-anchor="middle" x="204.9" y="-201.8" font-family="Times,serif" font-size="14.00">3</text>
</g>
<!-- 1&#45;&gt;3 -->
<g id="edge2" class="edge">
<title>1&#45;&gt;3</title>
<path fill="none" stroke="black" d="M213.83,-281.7C212.28,-268.72 210.12,-250.66 208.31,-235.56"/>
<polygon fill="black" stroke="black" points="211.8,-235.24 207.14,-225.73 204.85,-236.07 211.8,-235.24"/>
<text text-anchor="start" x="216.4" y="-250.2" font-family="Courier New" font-weight="bold" font-size="12.00" fill="blue">MOV(WSPRITEWIP1)</text>
</g>
<!-- 4 -->
<g id="node4" class="node">
<title>4</title>
<ellipse fill="none" stroke="black" cx="106.9" cy="-112" rx="27" ry="18"/>
<text text-anchor="middle" x="106.9" y="-107.8" font-family="Times,serif" font-size="14.00">4</text>
</g>
<!-- 3&#45;&gt;4 -->
<g id="edge3" class="edge">
<title>3&#45;&gt;4</title>
<path fill="none" stroke="black" d="M190.01,-191.03C174.11,-176.1 148.69,-152.24 130.15,-134.83"/>
<polygon fill="black" stroke="black" points="132.71,-132.43 123.02,-128.14 127.92,-137.54 132.71,-132.43"/>
<text text-anchor="start" x="171.9" y="-156.2" font-family="Courier New" font-weight="bold" font-size="12.00" fill="blue">SHOW(WSPRITE0)</text>
</g>
<!-- 5 -->
<g id="node5" class="node">
<title>5</title>
<ellipse fill="none" stroke="black" cx="46.9" cy="-18" rx="27" ry="18"/>
<text text-anchor="middle" x="46.9" y="-13.8" font-family="Times,serif" font-size="14.00">5</text>
</g>
<!-- 4&#45;&gt;5 -->
<g id="edge4" class="edge">
<title>4&#45;&gt;5</title>
<path fill="none" stroke="black" d="M79.88,-110.11C55.55,-107.71 21.05,-99.95 3.9,-76 -1.8,-68.05 -0.3,-62.83 3.9,-54 7.04,-47.38 12.12,-41.61 17.7,-36.75"/>
<polygon fill="black" stroke="black" points="19.65,-39.67 25.48,-30.82 15.41,-34.1 19.65,-39.67"/>
<text text-anchor="start" x="8.4" y="-62.2" font-family="Courier New" font-weight="bold" font-size="12.00" fill="orange">CLICK(0)</text>
</g>
<!-- 7 -->
<g id="node6" class="node">
<title>7</title>
<ellipse fill="none" stroke="black" cx="290.9" cy="-18" rx="27" ry="18"/>
<text text-anchor="middle" x="290.9" y="-13.8" font-family="Times,serif" font-size="14.00">7</text>
</g>
<!-- 4&#45;&gt;7 -->
<g id="edge5" class="edge">
<title>4&#45;&gt;7</title>
<path fill="none" stroke="black" d="M131.2,-103.97C149.91,-98 176,-88.43 196.9,-76 209.91,-68.26 210.31,-62.41 222.9,-54 234.06,-46.55 247,-39.52 258.58,-33.75"/>
<polygon fill="black" stroke="black" points="259.91,-37 267.39,-29.49 256.86,-30.7 259.91,-37"/>
<text text-anchor="start" x="227.4" y="-62.2" font-family="Courier New" font-weight="bold" font-size="12.00" fill="orange">WAIT(0SIG_CLOSE)</text>
</g>
<!-- 5&#45;&gt;4 -->
<g id="edge6" class="edge">
<title>5&#45;&gt;4</title>
<path fill="none" stroke="black" d="M57.23,-34.84C66.31,-48.77 79.69,-69.29 90.28,-85.52"/>
<polygon fill="black" stroke="black" points="87.22,-87.24 95.62,-93.71 93.09,-83.42 87.22,-87.24"/>
<text text-anchor="start" x="88.9" y="-62.2" font-family="Courier New" font-weight="bold" font-size="12.00" fill="blue">LOADVIEW(WIP2)</text>
</g>
<!-- 7&#45;&gt;0 -->
<g id="edge7" class="edge">
<title>7&#45;&gt;0</title>
<path fill="none" stroke="black" d="M313.43,-28.37C324.77,-34.17 337.78,-42.69 345.9,-54 361.11,-75.19 359.9,-84.91 359.9,-111 359.9,-301 359.9,-301 359.9,-301 359.9,-327.09 361.11,-336.81 345.9,-358 340.06,-366.13 331.7,-372.82 323.25,-378.09"/>
<polygon fill="black" stroke="black" points="321.74,-374.92 314.75,-382.89 325.18,-381.02 321.74,-374.92"/>
<text text-anchor="start" x="364.4" y="-203.2" font-family="Courier New" font-weight="bold" font-size="12.00" fill="blue">SHOW(00)</text>
</g>
</g>
</svg>
