<?xml version="1.0" encoding="UTF-8" standalone="no"?>
<!DOCTYPE svg PUBLIC "-//W3C//DTD SVG 1.1//EN"
 "http://www.w3.org/Graphics/SVG/1.1/DTD/svg11.dtd">
<!-- Generated by graphviz version 7.1.0 (20230121.1956)
 -->
<!-- Pages: 1 -->
<svg width="433pt" height="1454pt"
 viewBox="0.00 0.00 433.03 1454.00" xmlns="http://www.w3.org/2000/svg" xmlns:xlink="http://www.w3.org/1999/xlink">
<g id="graph0" class="graph" transform="scale(1 1) rotate(0) translate(4 1450)">
<polygon fill="white" stroke="none" points="-4,4 -4,-1450 429.03,-1450 429.03,4 -4,4"/>
<!-- 0 -->
<g id="node1" class="node">
<title>0</title>
<ellipse fill="none" stroke="black" cx="267.03" cy="-1428" rx="27" ry="18"/>
<text text-anchor="middle" x="267.03" y="-1423.8" font-family="Times,serif" font-size="14.00">0</text>
</g>
<!-- 1 -->
<g id="node2" class="node">
<title>1</title>
<ellipse fill="none" stroke="black" cx="267.03" cy="-1334" rx="27" ry="18"/>
<text text-anchor="middle" x="267.03" y="-1329.8" font-family="Times,serif" font-size="14.00">1</text>
</g>
<!-- 0&#45;&gt;1 -->
<g id="edge1" class="edge">
<title>0&#45;&gt;1</title>
<path fill="none" stroke="black" d="M267.03,-1409.7C267.03,-1396.72 267.03,-1378.66 267.03,-1363.56"/>
<polygon fill="black" stroke="black" points="270.53,-1363.74 267.03,-1353.74 263.53,-1363.74 270.53,-1363.74"/>
<text text-anchor="start" x="271.53" y="-1378.2" font-family="Courier New" font-weight="bold" font-size="12.00" fill="blue">MOV(BFRAME,0)</text>
</g>
<!-- 2 -->
<g id="node3" class="node">
<title>2</title>
<ellipse fill="none" stroke="black" cx="267.03" cy="-1240" rx="27" ry="18"/>
<text text-anchor="middle" x="267.03" y="-1235.8" font-family="Times,serif" font-size="14.00">2</text>
</g>
<!-- 1&#45;&gt;2 -->
<g id="edge2" class="edge">
<title>1&#45;&gt;2</title>
<path fill="none" stroke="black" d="M267.03,-1315.7C267.03,-1302.72 267.03,-1284.66 267.03,-1269.56"/>
<polygon fill="black" stroke="black" points="270.53,-1269.74 267.03,-1259.74 263.53,-1269.74 270.53,-1269.74"/>
<text text-anchor="start" x="271.53" y="-1284.2" font-family="Courier New" font-weight="bold" font-size="12.00" fill="blue">SHOW(WIP1,)</text>
</g>
<!-- 3 -->
<g id="node12" class="node">
<title>3</title>
<ellipse fill="none" stroke="black" cx="174.03" cy="-1146" rx="27" ry="18"/>
<text text-anchor="middle" x="174.03" y="-1141.8" font-family="Times,serif" font-size="14.00">3</text>
</g>
<!-- 2&#45;&gt;3 -->
<g id="edge11" class="edge">
<title>2&#45;&gt;3</title>
<path fill="none" stroke="black" d="M252.5,-1224.62C237.57,-1209.86 214.12,-1186.67 196.74,-1169.47"/>
<polygon fill="black" stroke="black" points="199.41,-1167.19 189.84,-1162.64 194.49,-1172.16 199.41,-1167.19"/>
<text text-anchor="start" x="235.03" y="-1190.2" font-family="Courier New" font-weight="bold" font-size="12.00" fill="orange">CLICK(0,0)</text>
</g>
<!-- 10 -->
<g id="node4" class="node">
<title>10</title>
<ellipse fill="none" stroke="black" cx="85.03" cy="-582" rx="27" ry="18"/>
<text text-anchor="middle" x="85.03" y="-577.8" font-family="Times,serif" font-size="14.00">10</text>
</g>
<!-- 9 -->
<g id="node5" class="node">
<title>9</title>
<ellipse fill="none" stroke="black" cx="85.03" cy="-676" rx="27" ry="18"/>
<text text-anchor="middle" x="85.03" y="-671.8" font-family="Times,serif" font-size="14.00">9</text>
</g>
<!-- 10&#45;&gt;9 -->
<g id="edge3" class="edge">
<title>10&#45;&gt;9</title>
<path fill="none" stroke="black" d="M86.82,-600.43C87.31,-606.03 87.78,-612.27 88.03,-618 88.45,-627.77 88.45,-630.23 88.03,-640 87.94,-642.06 87.82,-644.18 87.69,-646.32"/>
<polygon fill="black" stroke="black" points="84.21,-645.82 86.93,-656.06 91.19,-646.36 84.21,-645.82"/>
<text text-anchor="start" x="92.03" y="-626.2" font-family="Courier New" font-weight="bold" font-size="12.00" fill="blue">IFSTATEi(60,S21_LEVSTOP)</text>
</g>
<!-- 11 -->
<g id="node6" class="node">
<title>11</title>
<ellipse fill="none" stroke="black" cx="85.03" cy="-488" rx="27" ry="18"/>
<text text-anchor="middle" x="85.03" y="-483.8" font-family="Times,serif" font-size="14.00">11</text>
</g>
<!-- 10&#45;&gt;11 -->
<g id="edge4" class="edge">
<title>10&#45;&gt;11</title>
<path fill="none" stroke="black" d="M85.03,-563.7C85.03,-550.72 85.03,-532.66 85.03,-517.56"/>
<polygon fill="black" stroke="black" points="88.53,-517.74 85.03,-507.74 81.53,-517.74 88.53,-517.74"/>
<text text-anchor="start" x="89.03" y="-532.2" font-family="Courier New" font-weight="bold" font-size="12.00" fill="blue">Z_EPSILON(,)</text>
</g>
<!-- 9&#45;&gt;10 -->
<g id="edge17" class="edge">
<title>9&#45;&gt;10</title>
<path fill="none" stroke="black" d="M58.65,-671.26C39.92,-667.08 16.06,-658.31 4.03,-640 -1.34,-631.83 -1.34,-626.17 4.03,-618 13.8,-603.13 31.39,-594.54 47.69,-589.61"/>
<polygon fill="black" stroke="black" points="48.39,-593.04 57.18,-587.12 46.62,-586.27 48.39,-593.04"/>
<text text-anchor="start" x="8.03" y="-626.2" font-family="Courier New" font-weight="bold" font-size="12.00" fill="blue">ESTIME(,3)</text>
</g>
<!-- 12 -->
<g id="node7" class="node">
<title>12</title>
<ellipse fill="none" stroke="black" cx="85.03" cy="-394" rx="27" ry="18"/>
<text text-anchor="middle" x="85.03" y="-389.8" font-family="Times,serif" font-size="14.00">12</text>
</g>
<!-- 11&#45;&gt;12 -->
<g id="edge5" class="edge">
<title>11&#45;&gt;12</title>
<path fill="none" stroke="black" d="M85.03,-469.7C85.03,-456.72 85.03,-438.66 85.03,-423.56"/>
<polygon fill="black" stroke="black" points="88.53,-423.74 85.03,-413.74 81.53,-423.74 88.53,-423.74"/>
<text text-anchor="start" x="89.03" y="-438.2" font-family="Courier New" font-weight="bold" font-size="12.00" fill="blue">SUBI(BFRAME,1)</text>
</g>
<!-- 13 -->
<g id="node8" class="node">
<title>13</title>
<ellipse fill="none" stroke="black" cx="85.03" cy="-300" rx="27" ry="18"/>
<text text-anchor="middle" x="85.03" y="-295.8" font-family="Times,serif" font-size="14.00">13</text>
</g>
<!-- 12&#45;&gt;13 -->
<g id="edge6" class="edge">
<title>12&#45;&gt;13</title>
<path fill="none" stroke="black" d="M85.03,-375.7C85.03,-362.72 85.03,-344.66 85.03,-329.56"/>
<polygon fill="black" stroke="black" points="88.53,-329.74 85.03,-319.74 81.53,-329.74 88.53,-329.74"/>
<text text-anchor="start" x="89.03" y="-344.2" font-family="Courier New" font-weight="bold" font-size="12.00" fill="blue">SIGNALi(SIG_CLOSE,S21_MAPOPEN)</text>
</g>
<!-- 14 -->
<g id="node9" class="node">
<title>14</title>
<ellipse fill="none" stroke="black" cx="87.03" cy="-206" rx="27" ry="18"/>
<text text-anchor="middle" x="87.03" y="-201.8" font-family="Times,serif" font-size="14.00">14</text>
</g>
<!-- 13&#45;&gt;14 -->
<g id="edge7" class="edge">
<title>13&#45;&gt;14</title>
<path fill="none" stroke="black" d="M85.28,-281.54C85.46,-270.25 85.72,-255.26 86.03,-242 86.08,-239.95 86.13,-237.83 86.18,-235.69"/>
<polygon fill="black" stroke="black" points="89.67,-236.05 86.45,-225.96 82.68,-235.86 89.67,-236.05"/>
<text text-anchor="start" x="90.03" y="-250.2" font-family="Courier New" font-weight="bold" font-size="12.00" fill="blue">SIGNALi(SIG_HIDE,S21_ALT_MAPBOX)</text>
</g>
<!-- 15 -->
<g id="node10" class="node">
<title>15</title>
<ellipse fill="none" stroke="black" cx="107.03" cy="-112" rx="27" ry="18"/>
<text text-anchor="middle" x="107.03" y="-107.8" font-family="Times,serif" font-size="14.00">15</text>
</g>
<!-- 14&#45;&gt;15 -->
<g id="edge8" class="edge">
<title>14&#45;&gt;15</title>
<path fill="none" stroke="black" d="M87.62,-187.57C88.31,-176.18 89.8,-161.04 93.03,-148 93.68,-145.37 94.48,-142.68 95.38,-140.02"/>
<polygon fill="black" stroke="black" points="98.58,-141.43 98.84,-130.84 92.03,-138.96 98.58,-141.43"/>
<text text-anchor="start" x="97.53" y="-156.2" font-family="Courier New" font-weight="bold" font-size="12.00" fill="blue">SIGNALi(SIG_HIDE,S21_ALT_LEVER)</text>
</g>
<!-- 16 -->
<g id="node11" class="node">
<title>16</title>
<ellipse fill="none" stroke="black" cx="230.03" cy="-18" rx="27" ry="18"/>
<text text-anchor="middle" x="230.03" y="-13.8" font-family="Times,serif" font-size="14.00">16</text>
</g>
<!-- 15&#45;&gt;16 -->
<g id="edge9" class="edge">
<title>15&#45;&gt;16</title>
<path fill="none" stroke="black" d="M116.46,-94.71C124.38,-82.22 136.67,-65.27 151.03,-54 164.01,-43.82 180.41,-35.92 194.91,-30.23"/>
<polygon fill="black" stroke="black" points="195.94,-33.58 204.11,-26.83 193.52,-27.02 195.94,-33.58"/>
<text text-anchor="start" x="155.53" y="-62.2" font-family="Courier New" font-weight="bold" font-size="12.00" fill="blue">PLAYWAVE(0,SOUND_LEVER)</text>
</g>
<!-- 16&#45;&gt;2 -->
<g id="edge10" class="edge">
<title>16&#45;&gt;2</title>
<path fill="none" stroke="black" d="M256.52,-22.08C277.76,-25.95 306.77,-34.62 324.03,-54 341.38,-73.48 338.03,-84.91 338.03,-111 338.03,-1147 338.03,-1147 338.03,-1147 338.03,-1174.32 331.82,-1182.45 315.03,-1204 309.88,-1210.6 303.18,-1216.53 296.42,-1221.55"/>
<polygon fill="black" stroke="black" points="294.81,-1218.41 288.56,-1226.96 298.78,-1224.18 294.81,-1218.41"/>
<text text-anchor="start" x="342.53" y="-626.2" font-family="Courier New" font-weight="bold" font-size="12.00" fill="blue">SHOW(WIP1,)</text>
</g>
<!-- 4 -->
<g id="node13" class="node">
<title>4</title>
<ellipse fill="none" stroke="black" cx="142.03" cy="-1052" rx="27" ry="18"/>
<text text-anchor="middle" x="142.03" y="-1047.8" font-family="Times,serif" font-size="14.00">4</text>
</g>
<!-- 3&#45;&gt;4 -->
<g id="edge12" class="edge">
<title>3&#45;&gt;4</title>
<path fill="none" stroke="black" d="M161.98,-1129.75C157.9,-1123.88 153.7,-1116.92 151.03,-1110 147.61,-1101.16 145.49,-1091.08 144.17,-1081.87"/>
<polygon fill="black" stroke="black" points="147.65,-1081.5 143.04,-1071.96 140.7,-1082.29 147.65,-1081.5"/>
<text text-anchor="start" x="155.53" y="-1096.2" font-family="Courier New" font-weight="bold" font-size="12.00" fill="blue">PLAYWAVE(0,SOUND_LEVER)</text>
</g>
<!-- 6 -->
<g id="node14" class="node">
<title>6</title>
<ellipse fill="none" stroke="black" cx="110.03" cy="-958" rx="27" ry="18"/>
<text text-anchor="middle" x="110.03" y="-953.8" font-family="Times,serif" font-size="14.00">6</text>
</g>
<!-- 4&#45;&gt;6 -->
<g id="edge13" class="edge">
<title>4&#45;&gt;6</title>
<path fill="none" stroke="black" d="M136.16,-1034.13C131.51,-1020.77 124.93,-1001.84 119.53,-986.33"/>
<polygon fill="black" stroke="black" points="122.95,-985.49 116.36,-977.2 116.34,-987.79 122.95,-985.49"/>
<text text-anchor="start" x="133.03" y="-1002.2" font-family="Courier New" font-weight="bold" font-size="12.00" fill="blue">ADDI(BFRAME,1)</text>
</g>
<!-- 7 -->
<g id="node15" class="node">
<title>7</title>
<ellipse fill="none" stroke="black" cx="91.03" cy="-864" rx="27" ry="18"/>
<text text-anchor="middle" x="91.03" y="-859.8" font-family="Times,serif" font-size="14.00">7</text>
</g>
<!-- 6&#45;&gt;7 -->
<g id="edge14" class="edge">
<title>6&#45;&gt;7</title>
<path fill="none" stroke="black" d="M106.45,-939.7C103.75,-926.59 99.97,-908.31 96.83,-893.11"/>
<polygon fill="black" stroke="black" points="100.34,-892.79 94.89,-883.71 93.49,-894.21 100.34,-892.79"/>
<text text-anchor="start" x="106.03" y="-908.2" font-family="Courier New" font-weight="bold" font-size="12.00" fill="blue">SIGNALi(SIG_OPEN,S21_MAPOPEN)</text>
</g>
<!-- 8 -->
<g id="node16" class="node">
<title>8</title>
<ellipse fill="none" stroke="black" cx="85.03" cy="-770" rx="27" ry="18"/>
<text text-anchor="middle" x="85.03" y="-765.8" font-family="Times,serif" font-size="14.00">8</text>
</g>
<!-- 7&#45;&gt;8 -->
<g id="edge15" class="edge">
<title>7&#45;&gt;8</title>
<path fill="none" stroke="black" d="M88.16,-845.96C87.32,-840.26 86.5,-833.87 86.03,-828 85.3,-818.91 84.97,-808.98 84.84,-799.99"/>
<polygon fill="black" stroke="black" points="88.34,-799.98 84.78,-790 81.34,-800.02 88.34,-799.98"/>
<text text-anchor="start" x="90.03" y="-814.2" font-family="Courier New" font-weight="bold" font-size="12.00" fill="blue">SIGNALi(SIG_SHOW,S21_ALT_MAPBOX)</text>
</g>
<!-- 8&#45;&gt;9 -->
<g id="edge16" class="edge">
<title>8&#45;&gt;9</title>
<path fill="none" stroke="black" d="M85.03,-751.7C85.03,-738.72 85.03,-720.66 85.03,-705.56"/>
<polygon fill="black" stroke="black" points="88.53,-705.74 85.03,-695.74 81.53,-705.74 88.53,-705.74"/>
<text text-anchor="start" x="89.53" y="-720.2" font-family="Courier New" font-weight="bold" font-size="12.00" fill="blue">SIGNALi(SIG_SHOW,S21_ALT_LEVER)</text>
</g>
</g>
</svg>
