<?xml version="1.0" encoding="UTF-8" standalone="no"?>
<!DOCTYPE svg PUBLIC "-//W3C//DTD SVG 1.1//EN"
 "http://www.w3.org/Graphics/SVG/1.1/DTD/svg11.dtd">
<!-- Generated by graphviz version 7.1.0 (20230121.1956)
 -->
<!-- Pages: 1 -->
<svg width="290pt" height="608pt"
 viewBox="0.00 0.00 290.00 608.00" xmlns="http://www.w3.org/2000/svg" xmlns:xlink="http://www.w3.org/1999/xlink">
<g id="graph0" class="graph" transform="scale(1 1) rotate(0) translate(4 604)">
<polygon fill="white" stroke="none" points="-4,4 -4,-604 286,-604 286,4 -4,4"/>
<!-- 0 -->
<g id="node1" class="node">
<title>0</title>
<ellipse fill="none" stroke="black" cx="138" cy="-582" rx="27" ry="18"/>
<text text-anchor="middle" x="138" y="-577.8" font-family="Times,serif" font-size="14.00">0</text>
</g>
<!-- 10 -->
<g id="node2" class="node">
<title>10</title>
<ellipse fill="none" stroke="black" cx="138" cy="-488" rx="27" ry="18"/>
<text text-anchor="middle" x="138" y="-483.8" font-family="Times,serif" font-size="14.00">10</text>
</g>
<!-- 0&#45;&gt;10 -->
<g id="edge1" class="edge">
<title>0&#45;&gt;10</title>
<path fill="none" stroke="black" d="M138,-563.7C138,-550.72 138,-532.66 138,-517.56"/>
<polygon fill="black" stroke="black" points="141.5,-517.74 138,-507.74 134.5,-517.74 141.5,-517.74"/>
<text text-anchor="start" x="142" y="-532.2" font-family="Courier New" font-weight="bold" font-size="12.00" fill="blue">O_ACCEPT(0IDD_ROCK)</text>
</g>
<!-- 30 -->
<g id="node3" class="node">
<title>30</title>
<ellipse fill="none" stroke="black" cx="71" cy="-394" rx="27" ry="18"/>
<text text-anchor="middle" x="71" y="-389.8" font-family="Times,serif" font-size="14.00">30</text>
</g>
<!-- 10&#45;&gt;30 -->
<g id="edge2" class="edge">
<title>10&#45;&gt;30</title>
<path fill="none" stroke="black" d="M126.63,-471.39C116.34,-457.25 100.98,-436.17 89.01,-419.74"/>
<polygon fill="black" stroke="black" points="92.03,-417.93 83.31,-411.91 86.37,-422.05 92.03,-417.93"/>
<text text-anchor="start" x="117.5" y="-438.2" font-family="Courier New" font-weight="bold" font-size="12.00" fill="orange">DROP(00)</text>
</g>
<!-- 40 -->
<g id="node4" class="node">
<title>40</title>
<ellipse fill="none" stroke="black" cx="43" cy="-300" rx="27" ry="18"/>
<text text-anchor="middle" x="43" y="-295.8" font-family="Times,serif" font-size="14.00">40</text>
</g>
<!-- 30&#45;&gt;40 -->
<g id="edge3" class="edge">
<title>30&#45;&gt;40</title>
<path fill="none" stroke="black" d="M65.86,-376.13C61.86,-362.98 56.22,-344.44 51.54,-329.07"/>
<polygon fill="black" stroke="black" points="54.9,-328.07 48.64,-319.53 48.2,-330.11 54.9,-328.07"/>
<text text-anchor="start" x="65.5" y="-344.2" font-family="Courier New" font-weight="bold" font-size="12.00" fill="blue">SHOW(WOBJECT)</text>
</g>
<!-- 50 -->
<g id="node5" class="node">
<title>50</title>
<ellipse fill="none" stroke="black" cx="27" cy="-206" rx="27" ry="18"/>
<text text-anchor="middle" x="27" y="-201.8" font-family="Times,serif" font-size="14.00">50</text>
</g>
<!-- 40&#45;&gt;50 -->
<g id="edge4" class="edge">
<title>40&#45;&gt;50</title>
<path fill="none" stroke="black" d="M24.99,-286.03C18.34,-280.14 11.55,-272.57 8,-264 3.84,-253.95 6.22,-242.63 10.5,-232.74"/>
<polygon fill="black" stroke="black" points="13.51,-234.54 14.99,-224.05 7.29,-231.33 13.51,-234.54"/>
<text text-anchor="start" x="12" y="-250.2" font-family="Courier New" font-weight="bold" font-size="12.00" fill="blue">PLAYWAVE(0SOUND_CLICK)</text>
</g>
<!-- 60 -->
<g id="node6" class="node">
<title>60</title>
<ellipse fill="none" stroke="black" cx="95" cy="-112" rx="27" ry="18"/>
<text text-anchor="middle" x="95" y="-107.8" font-family="Times,serif" font-size="14.00">60</text>
</g>
<!-- 50&#45;&gt;60 -->
<g id="edge5" class="edge">
<title>50&#45;&gt;60</title>
<path fill="none" stroke="black" d="M38.54,-189.39C48.99,-175.25 64.57,-154.17 76.72,-137.74"/>
<polygon fill="black" stroke="black" points="79.38,-140.02 82.51,-129.9 73.75,-135.86 79.38,-140.02"/>
<text text-anchor="start" x="74" y="-156.2" font-family="Courier New" font-weight="bold" font-size="12.00" fill="blue">SIGNAL(WIP2)</text>
</g>
<!-- 70 -->
<g id="node7" class="node">
<title>70</title>
<ellipse fill="none" stroke="black" cx="149" cy="-18" rx="27" ry="18"/>
<text text-anchor="middle" x="149" y="-13.8" font-family="Times,serif" font-size="14.00">70</text>
</g>
<!-- 60&#45;&gt;70 -->
<g id="edge6" class="edge">
<title>60&#45;&gt;70</title>
<path fill="none" stroke="black" d="M99.72,-94.02C103.42,-82.26 109.24,-66.53 117,-54 119.58,-49.83 122.7,-45.7 125.96,-41.82"/>
<polygon fill="black" stroke="black" points="128.52,-44.21 132.63,-34.45 123.33,-39.51 128.52,-44.21"/>
<text text-anchor="start" x="121.5" y="-62.2" font-family="Courier New" font-weight="bold" font-size="12.00" fill="orange">GRAB(00)</text>
</g>
<!-- 70&#45;&gt;10 -->
<g id="edge7" class="edge">
<title>70&#45;&gt;10</title>
<path fill="none" stroke="black" d="M165.01,-32.62C171.14,-38.61 177.69,-46.08 182,-54 194.47,-76.91 196,-84.91 196,-111 196,-395 196,-395 196,-395 196,-421.09 196.07,-430.04 182,-452 177.99,-458.26 172.48,-463.89 166.7,-468.71"/>
<polygon fill="black" stroke="black" points="164.67,-465.86 158.81,-474.69 168.9,-471.44 164.67,-465.86"/>
<text text-anchor="start" x="200.5" y="-250.2" font-family="Courier New" font-weight="bold" font-size="12.00" fill="blue">SHOW(00)</text>
</g>
</g>
</svg>
