<?xml version="1.0" encoding="UTF-8" standalone="no"?>
<!DOCTYPE svg PUBLIC "-//W3C//DTD SVG 1.1//EN"
 "http://www.w3.org/Graphics/SVG/1.1/DTD/svg11.dtd">
<!-- Generated by graphviz version 7.1.0 (20230121.1956)
 -->
<!-- Pages: 1 -->
<svg width="301pt" height="608pt"
 viewBox="0.00 0.00 301.00 608.00" xmlns="http://www.w3.org/2000/svg" xmlns:xlink="http://www.w3.org/1999/xlink">
<g id="graph0" class="graph" transform="scale(1 1) rotate(0) translate(4 604)">
<polygon fill="white" stroke="none" points="-4,4 -4,-604 297,-604 297,4 -4,4"/>
<!-- 0 -->
<g id="node1" class="node">
<title>0</title>
<ellipse fill="none" stroke="black" cx="141" cy="-582" rx="27" ry="18"/>
<text text-anchor="middle" x="141" y="-577.8" font-family="Times,serif" font-size="14.00">0</text>
</g>
<!-- 10 -->
<g id="node2" class="node">
<title>10</title>
<ellipse fill="none" stroke="black" cx="141" cy="-488" rx="27" ry="18"/>
<text text-anchor="middle" x="141" y="-483.8" font-family="Times,serif" font-size="14.00">10</text>
</g>
<!-- 0&#45;&gt;10 -->
<g id="edge1" class="edge">
<title>0&#45;&gt;10</title>
<path fill="none" stroke="black" d="M141,-563.7C141,-550.72 141,-532.66 141,-517.56"/>
<polygon fill="black" stroke="black" points="144.5,-517.74 141,-507.74 137.5,-517.74 144.5,-517.74"/>
<text text-anchor="start" x="145" y="-532.2" font-family="Courier New" font-weight="bold" font-size="12.00" fill="blue">O_ACCEPT(0,IDD_ROCK)</text>
</g>
<!-- 30 -->
<g id="node3" class="node">
<title>30</title>
<ellipse fill="none" stroke="black" cx="71" cy="-394" rx="27" ry="18"/>
<text text-anchor="middle" x="71" y="-389.8" font-family="Times,serif" font-size="14.00">30</text>
</g>
<!-- 10&#45;&gt;30 -->
<g id="edge2" class="edge">
<title>10&#45;&gt;30</title>
<path fill="none" stroke="black" d="M129.13,-471.39C118.3,-457.17 102.13,-435.92 89.59,-419.44"/>
<polygon fill="black" stroke="black" points="92.46,-417.42 83.62,-411.58 86.89,-421.66 92.46,-417.42"/>
<text text-anchor="start" x="119" y="-438.2" font-family="Courier New" font-weight="bold" font-size="12.00" fill="orange">DROP(0,0)</text>
</g>
<!-- 40 -->
<g id="node4" class="node">
<title>40</title>
<ellipse fill="none" stroke="black" cx="43" cy="-300" rx="27" ry="18"/>
<text text-anchor="middle" x="43" y="-295.8" font-family="Times,serif" font-size="14.00">40</text>
</g>
<!-- 30&#45;&gt;40 -->
<g id="edge3" class="edge">
<title>30&#45;&gt;40</title>
<path fill="none" stroke="black" d="M65.86,-376.13C61.86,-362.98 56.22,-344.44 51.54,-329.07"/>
<polygon fill="black" stroke="black" points="54.9,-328.07 48.64,-319.53 48.2,-330.11 54.9,-328.07"/>
<text text-anchor="start" x="65" y="-344.2" font-family="Courier New" font-weight="bold" font-size="12.00" fill="blue">SHOW(WOBJECT,)</text>
</g>
<!-- 50 -->
<g id="node5" class="node">
<title>50</title>
<ellipse fill="none" stroke="black" cx="27" cy="-206" rx="27" ry="18"/>
<text text-anchor="middle" x="27" y="-201.8" font-family="Times,serif" font-size="14.00">50</text>
</g>
<!-- 40&#45;&gt;50 -->
<g id="edge4" class="edge">
<title>40&#45;&gt;50</title>
<path fill="none" stroke="black" d="M24.99,-286.03C18.34,-280.14 11.55,-272.57 8,-264 3.84,-253.95 6.22,-242.63 10.5,-232.74"/>
<polygon fill="black" stroke="black" points="13.51,-234.54 14.99,-224.05 7.29,-231.33 13.51,-234.54"/>
<text text-anchor="start" x="12.5" y="-250.2" font-family="Courier New" font-weight="bold" font-size="12.00" fill="blue">PLAYWAVE(0,SOUND_CLICK)</text>
</g>
<!-- 60 -->
<g id="node6" class="node">
<title>60</title>
<ellipse fill="none" stroke="black" cx="95" cy="-112" rx="27" ry="18"/>
<text text-anchor="middle" x="95" y="-107.8" font-family="Times,serif" font-size="14.00">60</text>
</g>
<!-- 50&#45;&gt;60 -->
<g id="edge5" class="edge">
<title>50&#45;&gt;60</title>
<path fill="none" stroke="black" d="M38.54,-189.39C48.99,-175.25 64.57,-154.17 76.72,-137.74"/>
<polygon fill="black" stroke="black" points="79.38,-140.02 82.51,-129.9 73.75,-135.86 79.38,-140.02"/>
<text text-anchor="start" x="74.5" y="-156.2" font-family="Courier New" font-weight="bold" font-size="12.00" fill="blue">SIGNAL(WIP2,)</text>
</g>
<!-- 70 -->
<g id="node7" class="node">
<title>70</title>
<ellipse fill="none" stroke="black" cx="152" cy="-18" rx="27" ry="18"/>
<text text-anchor="middle" x="152" y="-13.8" font-family="Times,serif" font-size="14.00">70</text>
</g>
<!-- 60&#45;&gt;70 -->
<g id="edge6" class="edge">
<title>60&#45;&gt;70</title>
<path fill="none" stroke="black" d="M99.55,-93.91C103.16,-82.1 108.96,-66.36 117,-54 120.01,-49.38 123.7,-44.88 127.55,-40.73"/>
<polygon fill="black" stroke="black" points="129.84,-43.39 134.44,-33.84 124.89,-38.44 129.84,-43.39"/>
<text text-anchor="start" x="121" y="-62.2" font-family="Courier New" font-weight="bold" font-size="12.00" fill="orange">GRAB(0,0)</text>
</g>
<!-- 70&#45;&gt;10 -->
<g id="edge7" class="edge">
<title>70&#45;&gt;10</title>
<path fill="none" stroke="black" d="M169.6,-31.96C176.59,-37.95 184.11,-45.59 189,-54 202.12,-76.55 203,-84.91 203,-111 203,-395 203,-395 203,-395 203,-421.09 203.53,-430.34 189,-452 184.34,-458.95 177.81,-465.01 171.07,-470.04"/>
<polygon fill="black" stroke="black" points="169.46,-466.91 163.15,-475.41 173.39,-472.7 169.46,-466.91"/>
<text text-anchor="start" x="207" y="-250.2" font-family="Courier New" font-weight="bold" font-size="12.00" fill="blue">SHOW(0,0)</text>
</g>
</g>
</svg>
