<?xml version="1.0" encoding="UTF-8" standalone="no"?>
<!DOCTYPE svg PUBLIC "-//W3C//DTD SVG 1.1//EN"
 "http://www.w3.org/Graphics/SVG/1.1/DTD/svg11.dtd">
<!-- Generated by graphviz version 7.1.0 (20230121.1956)
 -->
<!-- Pages: 1 -->
<svg width="387pt" height="404pt"
 viewBox="0.00 0.00 386.67 404.20" xmlns="http://www.w3.org/2000/svg" xmlns:xlink="http://www.w3.org/1999/xlink">
<g id="graph0" class="graph" transform="scale(1 1) rotate(0) translate(4 400.2)">
<polygon fill="white" stroke="none" points="-4,4 -4,-400.2 382.67,-400.2 382.67,4 -4,4"/>
<!-- M_LEVDOOR_0 -->
<g id="node1" class="node">
<title>M_LEVDOOR_0</title>
<polygon fill="none" stroke="black" points="204,-359.7 204,-395.7 320.33,-395.7 320.33,-359.7 204,-359.7"/>
<text text-anchor="middle" x="262.17" y="-373.5" font-family="Times,serif" font-size="14.00">M_LEVDOOR_0</text>
</g>
<!-- M_LEVDOOR_1 -->
<g id="node2" class="node">
<title>M_LEVDOOR_1</title>
<polygon fill="none" stroke="black" points="144,-269.9 144,-305.9 260.33,-305.9 260.33,-269.9 144,-269.9"/>
<text text-anchor="middle" x="202.17" y="-283.7" font-family="Times,serif" font-size="14.00">M_LEVDOOR_1</text>
</g>
<!-- M_LEVDOOR_0&#45;&gt;M_LEVDOOR_1 -->
<g id="edge1" class="edge">
<title>M_LEVDOOR_0&#45;&gt;M_LEVDOOR_1</title>
<path fill="none" stroke="red" d="M226.14,-359.78C218.93,-354.79 212.19,-348.62 207.65,-341.2 203.25,-334 201.31,-325.18 200.63,-316.85"/>
<polygon fill="red" stroke="red" points="204.13,-317.05 200.41,-307.13 197.13,-317.21 204.13,-317.05"/>
<text text-anchor="start" x="208.17" y="-329.6" font-family="Times,serif" font-size="14.00" fill="red"> </text>
<text text-anchor="start" x="211.67" y="-329.6" font-family="Courier New" font-size="10.00" fill="red">WAIT(0,SIG_OPEN)</text>
</g>
<!-- M_LEVDOOR_3 -->
<g id="node3" class="node">
<title>M_LEVDOOR_3</title>
<polygon fill="none" stroke="black" points="98,-180.1 98,-216.1 214.33,-216.1 214.33,-180.1 98,-180.1"/>
<text text-anchor="middle" x="156.17" y="-193.9" font-family="Times,serif" font-size="14.00">M_LEVDOOR_3</text>
</g>
<!-- M_LEVDOOR_1&#45;&gt;M_LEVDOOR_3 -->
<g id="edge2" class="edge">
<title>M_LEVDOOR_1&#45;&gt;M_LEVDOOR_3</title>
<path fill="none" stroke="green" d="M193.3,-269.97C186.74,-257.46 177.69,-240.18 170.16,-225.81"/>
<polygon fill="green" stroke="green" points="173.45,-224.55 165.71,-217.32 167.25,-227.8 173.45,-224.55"/>
<text text-anchor="start" x="184.17" y="-239.8" font-family="Times,serif" font-size="14.00" fill="green"> </text>
<text text-anchor="start" x="187.67" y="-239.8" font-family="Courier New" font-size="10.00" fill="green">MOV(WSPRITE,WIP1)</text>
</g>
<!-- M_LEVDOOR_4 -->
<g id="node4" class="node">
<title>M_LEVDOOR_4</title>
<polygon fill="none" stroke="black" points="32,-90.3 32,-126.3 148.33,-126.3 148.33,-90.3 32,-90.3"/>
<text text-anchor="middle" x="90.17" y="-104.1" font-family="Times,serif" font-size="14.00">M_LEVDOOR_4</text>
</g>
<!-- M_LEVDOOR_3&#45;&gt;M_LEVDOOR_4 -->
<g id="edge3" class="edge">
<title>M_LEVDOOR_3&#45;&gt;M_LEVDOOR_4</title>
<path fill="none" stroke="green" d="M143.44,-180.17C133.85,-167.42 120.54,-149.71 109.62,-135.18"/>
<polygon fill="green" stroke="green" points="112.57,-133.28 103.76,-127.39 106.97,-137.48 112.57,-133.28"/>
<text text-anchor="start" x="129.17" y="-150" font-family="Times,serif" font-size="14.00" fill="green"> </text>
<text text-anchor="start" x="132.67" y="-150" font-family="Courier New" font-size="10.00" fill="green">SHOW(WSPRITE,0)</text>
</g>
<!-- M_LEVDOOR_5 -->
<g id="node5" class="node">
<title>M_LEVDOOR_5</title>
<polygon fill="none" stroke="black" points="0,-0.5 0,-36.5 116.33,-36.5 116.33,-0.5 0,-0.5"/>
<text text-anchor="middle" x="58.17" y="-14.3" font-family="Times,serif" font-size="14.00">M_LEVDOOR_5</text>
</g>
<!-- M_LEVDOOR_4&#45;&gt;M_LEVDOOR_5 -->
<g id="edge4" class="edge">
<title>M_LEVDOOR_4&#45;&gt;M_LEVDOOR_5</title>
<path fill="none" stroke="red" d="M32.19,-94.53C20.94,-89.34 10.53,-82.05 3.66,-71.8 -3.36,-61.33 2.57,-51.35 12.72,-42.97"/>
<polygon fill="red" stroke="red" points="14.69,-45.86 20.81,-37.21 10.63,-40.16 14.69,-45.86"/>
<text text-anchor="start" x="4.17" y="-60.2" font-family="Times,serif" font-size="14.00" fill="red"> </text>
<text text-anchor="start" x="7.67" y="-60.2" font-family="Courier New" font-size="10.00" fill="red">CLICK(,0)</text>
</g>
<!-- M_LEVDOOR_7 -->
<g id="node6" class="node">
<title>M_LEVDOOR_7</title>
<polygon fill="none" stroke="black" points="166,-0.5 166,-36.5 282.33,-36.5 282.33,-0.5 166,-0.5"/>
<text text-anchor="middle" x="224.17" y="-14.3" font-family="Times,serif" font-size="14.00">M_LEVDOOR_7</text>
</g>
<!-- M_LEVDOOR_4&#45;&gt;M_LEVDOOR_7 -->
<g id="edge5" class="edge">
<title>M_LEVDOOR_4&#45;&gt;M_LEVDOOR_7</title>
<path fill="none" stroke="red" d="M140.55,-90.38C152.41,-85.3 164.66,-79.1 175.17,-71.8 185.85,-64.38 195.99,-54.29 204.24,-44.96"/>
<polygon fill="red" stroke="red" points="206.75,-47.4 210.54,-37.51 201.41,-42.88 206.75,-47.4"/>
<text text-anchor="start" x="195.17" y="-60.2" font-family="Times,serif" font-size="14.00" fill="red"> </text>
<text text-anchor="start" x="198.67" y="-60.2" font-family="Courier New" font-size="10.00" fill="red">WAIT(0,SIG_CLOSE)</text>
</g>
<!-- M_LEVDOOR_5&#45;&gt;M_LEVDOOR_4 -->
<g id="edge6" class="edge">
<title>M_LEVDOOR_5&#45;&gt;M_LEVDOOR_4</title>
<path fill="none" stroke="green" d="M64.32,-36.38C68.78,-48.63 74.93,-65.48 80.1,-79.69"/>
<polygon fill="green" stroke="green" points="76.76,-80.75 83.48,-88.95 83.34,-78.36 76.76,-80.75"/>
<text text-anchor="start" x="77.17" y="-60.2" font-family="Times,serif" font-size="14.00" fill="green"> </text>
<text text-anchor="start" x="80.67" y="-60.2" font-family="Courier New" font-size="10.00" fill="green">LOADVIEW(WIP2,)</text>
</g>
<!-- M_LEVDOOR_7&#45;&gt;M_LEVDOOR_0 -->
<g id="edge7" class="edge">
<title>M_LEVDOOR_7&#45;&gt;M_LEVDOOR_0</title>
<path fill="none" stroke="green" d="M280.24,-36.41C289.52,-41.22 298.33,-47.32 305.17,-55 321.33,-73.16 321.17,-82.99 321.17,-107.3 321.17,-288.9 321.17,-288.9 321.17,-288.9 321.17,-312.96 320.4,-321.1 307.17,-341.2 304.52,-345.22 301.27,-348.99 297.73,-352.46"/>
<polygon fill="green" stroke="green" points="295.48,-349.77 290.26,-358.99 300.09,-355.04 295.48,-349.77"/>
<text text-anchor="start" x="321.17" y="-194.9" font-family="Times,serif" font-size="14.00" fill="green"> </text>
<text text-anchor="start" x="324.67" y="-194.9" font-family="Courier New" font-size="10.00" fill="green">SHOW(0,0)</text>
</g>
</g>
</svg>
