<?xml version="1.0" encoding="UTF-8" standalone="no"?>
<!DOCTYPE svg PUBLIC "-//W3C//DTD SVG 1.1//EN"
 "http://www.w3.org/Graphics/SVG/1.1/DTD/svg11.dtd">
<!-- Generated by graphviz version 7.1.0 (20230121.1956)
 -->
<!-- Pages: 1 -->
<svg width="301pt" height="674pt"
 viewBox="0.00 0.00 301.34 673.60" xmlns="http://www.w3.org/2000/svg" xmlns:xlink="http://www.w3.org/1999/xlink">
<g id="graph0" class="graph" transform="scale(1 1) rotate(0) translate(4 669.6)">
<polygon fill="white" stroke="none" points="-4,4 -4,-669.6 297.34,-669.6 297.34,4 -4,4"/>
<!-- M_LISTEN_0 -->
<g id="node1" class="node">
<title>M_LISTEN_0</title>
<polygon fill="none" stroke="black" points="120,-629.1 120,-665.1 217.66,-665.1 217.66,-629.1 120,-629.1"/>
<text text-anchor="middle" x="168.83" y="-642.9" font-family="Times,serif" font-size="14.00">M_LISTEN_0</text>
</g>
<!-- M_LISTEN_1 -->
<g id="node2" class="node">
<title>M_LISTEN_1</title>
<polygon fill="none" stroke="black" points="27,-539.3 27,-575.3 124.66,-575.3 124.66,-539.3 27,-539.3"/>
<text text-anchor="middle" x="75.83" y="-553.1" font-family="Times,serif" font-size="14.00">M_LISTEN_1</text>
</g>
<!-- M_LISTEN_0&#45;&gt;M_LISTEN_1 -->
<g id="edge1" class="edge">
<title>M_LISTEN_0&#45;&gt;M_LISTEN_1</title>
<path fill="none" stroke="red" d="M150.9,-629.17C137,-616.05 117.55,-597.69 101.93,-582.94"/>
<polygon fill="red" stroke="red" points="104.48,-580.54 94.81,-576.22 99.68,-585.63 104.48,-580.54"/>
<text text-anchor="start" x="130.83" y="-599" font-family="Times,serif" font-size="14.00" fill="red"> </text>
<text text-anchor="start" x="134.33" y="-599" font-family="Courier New" font-size="10.00" fill="red">CLICK(0,0)</text>
</g>
<!-- M_LISTEN_2 -->
<g id="node3" class="node">
<title>M_LISTEN_2</title>
<polygon fill="none" stroke="black" points="0,-449.5 0,-485.5 97.66,-485.5 97.66,-449.5 0,-449.5"/>
<text text-anchor="middle" x="48.83" y="-463.3" font-family="Times,serif" font-size="14.00">M_LISTEN_2</text>
</g>
<!-- M_LISTEN_1&#45;&gt;M_LISTEN_2 -->
<g id="edge2" class="edge">
<title>M_LISTEN_1&#45;&gt;M_LISTEN_2</title>
<path fill="none" stroke="green" d="M60.58,-539.41C56.46,-533.86 52.54,-527.42 50.3,-520.8 47.76,-513.26 46.78,-504.75 46.6,-496.82"/>
<polygon fill="green" stroke="green" points="50.09,-497.01 46.8,-486.94 43.1,-496.87 50.09,-497.01"/>
<text text-anchor="start" x="50.83" y="-509.2" font-family="Times,serif" font-size="14.00" fill="green"> </text>
<text text-anchor="start" x="54.33" y="-509.2" font-family="Courier New" font-size="10.00" fill="green">SENDMSG(WIP1,IDV_S_TELETYPE)</text>
</g>
<!-- M_LISTEN_3 -->
<g id="node4" class="node">
<title>M_LISTEN_3</title>
<polygon fill="none" stroke="black" points="0,-359.7 0,-395.7 97.66,-395.7 97.66,-359.7 0,-359.7"/>
<text text-anchor="middle" x="48.83" y="-373.5" font-family="Times,serif" font-size="14.00">M_LISTEN_3</text>
</g>
<!-- M_LISTEN_2&#45;&gt;M_LISTEN_3 -->
<g id="edge3" class="edge">
<title>M_LISTEN_2&#45;&gt;M_LISTEN_3</title>
<path fill="none" stroke="green" d="M48.83,-449.57C48.83,-437.42 48.83,-420.78 48.83,-406.67"/>
<polygon fill="green" stroke="green" points="52.33,-407.09 48.83,-397.09 45.33,-407.09 52.33,-407.09"/>
<text text-anchor="start" x="48.83" y="-419.4" font-family="Times,serif" font-size="14.00" fill="green"> </text>
<text text-anchor="start" x="52.33" y="-419.4" font-family="Courier New" font-size="10.00" fill="green">PLAYWAVE(0,SOUND_CLICK)</text>
</g>
<!-- M_LISTEN_4 -->
<g id="node5" class="node">
<title>M_LISTEN_4</title>
<polygon fill="none" stroke="black" points="0,-269.9 0,-305.9 97.66,-305.9 97.66,-269.9 0,-269.9"/>
<text text-anchor="middle" x="48.83" y="-283.7" font-family="Times,serif" font-size="14.00">M_LISTEN_4</text>
</g>
<!-- M_LISTEN_3&#45;&gt;M_LISTEN_4 -->
<g id="edge4" class="edge">
<title>M_LISTEN_3&#45;&gt;M_LISTEN_4</title>
<path fill="none" stroke="green" d="M48.83,-359.77C48.83,-347.62 48.83,-330.98 48.83,-316.87"/>
<polygon fill="green" stroke="green" points="52.33,-317.29 48.83,-307.29 45.33,-317.29 52.33,-317.29"/>
<text text-anchor="start" x="48.83" y="-329.6" font-family="Times,serif" font-size="14.00" fill="green"> </text>
<text text-anchor="start" x="52.33" y="-329.6" font-family="Courier New" font-size="10.00" fill="green">SHOW(0,IDS_REDEAR)</text>
</g>
<!-- M_LISTEN_5 -->
<g id="node6" class="node">
<title>M_LISTEN_5</title>
<polygon fill="none" stroke="black" points="0,-180.1 0,-216.1 97.66,-216.1 97.66,-180.1 0,-180.1"/>
<text text-anchor="middle" x="48.83" y="-193.9" font-family="Times,serif" font-size="14.00">M_LISTEN_5</text>
</g>
<!-- M_LISTEN_4&#45;&gt;M_LISTEN_5 -->
<g id="edge5" class="edge">
<title>M_LISTEN_4&#45;&gt;M_LISTEN_5</title>
<path fill="none" stroke="red" d="M48.83,-269.97C48.83,-257.82 48.83,-241.18 48.83,-227.07"/>
<polygon fill="red" stroke="red" points="52.33,-227.49 48.83,-217.49 45.33,-227.49 52.33,-227.49"/>
<text text-anchor="start" x="48.83" y="-239.8" font-family="Times,serif" font-size="14.00" fill="red"> </text>
<text text-anchor="start" x="52.33" y="-239.8" font-family="Courier New" font-size="10.00" fill="red">CLICK(0,0)</text>
</g>
<!-- M_LISTEN_6 -->
<g id="node7" class="node">
<title>M_LISTEN_6</title>
<polygon fill="none" stroke="black" points="15,-90.3 15,-126.3 112.66,-126.3 112.66,-90.3 15,-90.3"/>
<text text-anchor="middle" x="63.83" y="-104.1" font-family="Times,serif" font-size="14.00">M_LISTEN_6</text>
</g>
<!-- M_LISTEN_5&#45;&gt;M_LISTEN_6 -->
<g id="edge6" class="edge">
<title>M_LISTEN_5&#45;&gt;M_LISTEN_6</title>
<path fill="none" stroke="green" d="M47.89,-180.45C47.65,-170.1 47.97,-156.56 50.3,-144.8 50.8,-142.28 51.47,-139.7 52.23,-137.14"/>
<polygon fill="green" stroke="green" points="55.53,-138.31 55.53,-127.72 48.92,-136 55.53,-138.31"/>
<text text-anchor="start" x="50.83" y="-150" font-family="Times,serif" font-size="14.00" fill="green"> </text>
<text text-anchor="start" x="54.33" y="-150" font-family="Courier New" font-size="10.00" fill="green">SENDMSG(WIP2,IDV_S_TELETYPE)</text>
</g>
<!-- M_LISTEN_7 -->
<g id="node8" class="node">
<title>M_LISTEN_7</title>
<polygon fill="none" stroke="black" points="101,-0.5 101,-36.5 198.66,-36.5 198.66,-0.5 101,-0.5"/>
<text text-anchor="middle" x="149.83" y="-14.3" font-family="Times,serif" font-size="14.00">M_LISTEN_7</text>
</g>
<!-- M_LISTEN_6&#45;&gt;M_LISTEN_7 -->
<g id="edge7" class="edge">
<title>M_LISTEN_6&#45;&gt;M_LISTEN_7</title>
<path fill="none" stroke="green" d="M65.7,-90.6C67.7,-79.45 71.83,-65.03 80.31,-55 84.3,-50.28 89.08,-46.11 94.24,-42.45"/>
<polygon fill="green" stroke="green" points="95.96,-45.5 102.56,-37.21 92.23,-39.58 95.96,-45.5"/>
<text text-anchor="start" x="80.83" y="-60.2" font-family="Times,serif" font-size="14.00" fill="green"> </text>
<text text-anchor="start" x="84.33" y="-60.2" font-family="Courier New" font-size="10.00" fill="green">PLAYWAVE(0,SOUND_CLICK)</text>
</g>
<!-- M_LISTEN_7&#45;&gt;M_LISTEN_0 -->
<g id="edge8" class="edge">
<title>M_LISTEN_7&#45;&gt;M_LISTEN_0</title>
<path fill="none" stroke="green" d="M198.45,-36.34C207.22,-41.21 215.55,-47.35 221.83,-55 237.09,-73.6 235.83,-83.24 235.83,-107.3 235.83,-558.3 235.83,-558.3 235.83,-558.3 235.83,-583.51 218.16,-605.99 200.96,-621.89"/>
<polygon fill="green" stroke="green" points="199.02,-618.94 193.78,-628.15 203.62,-624.21 199.02,-618.94"/>
<text text-anchor="start" x="235.83" y="-329.6" font-family="Times,serif" font-size="14.00" fill="green"> </text>
<text text-anchor="start" x="239.33" y="-329.6" font-family="Courier New" font-size="10.00" fill="green">SHOW(0,0)</text>
</g>
</g>
</svg>
