<?xml version="1.0" encoding="UTF-8" standalone="no"?>
<!DOCTYPE svg PUBLIC "-//W3C//DTD SVG 1.1//EN"
 "http://www.w3.org/Graphics/SVG/1.1/DTD/svg11.dtd">
<!-- Generated by graphviz version 7.1.0 (20230121.1956)
 -->
<!-- Pages: 1 -->
<svg width="288pt" height="688pt"
 viewBox="0.00 0.00 288.00 688.00" xmlns="http://www.w3.org/2000/svg" xmlns:xlink="http://www.w3.org/1999/xlink">
<g id="graph0" class="graph" transform="scale(1 1) rotate(0) translate(4 684)">
<polygon fill="white" stroke="none" points="-4,4 -4,-684 284,-684 284,4 -4,4"/>
<!-- 0 -->
<g id="node1" class="node">
<title>0</title>
<ellipse fill="none" stroke="black" cx="122" cy="-662" rx="27" ry="18"/>
<text text-anchor="middle" x="122" y="-657.8" font-family="Times,serif" font-size="14.00">0</text>
</g>
<!-- 1 -->
<g id="node2" class="node">
<title>1</title>
<ellipse fill="none" stroke="black" cx="54" cy="-570" rx="27" ry="18"/>
<text text-anchor="middle" x="54" y="-565.8" font-family="Times,serif" font-size="14.00">1</text>
</g>
<!-- 0&#45;&gt;1 -->
<g id="edge1" class="edge">
<title>0&#45;&gt;1</title>
<path fill="none" stroke="black" d="M110.16,-645.32C99.72,-631.51 84.36,-611.18 72.34,-595.27"/>
<polygon fill="black" stroke="black" points="75.44,-593.57 66.62,-587.7 69.86,-597.79 75.44,-593.57"/>
<text text-anchor="start" x="99" y="-614" font-family="Courier New" font-weight="bold" font-size="10.00" fill="orange">CLICK(0,0)</text>
</g>
<!-- 2 -->
<g id="node3" class="node">
<title>2</title>
<ellipse fill="none" stroke="black" cx="27" cy="-478" rx="27" ry="18"/>
<text text-anchor="middle" x="27" y="-473.8" font-family="Times,serif" font-size="14.00">2</text>
</g>
<!-- 1&#45;&gt;2 -->
<g id="edge2" class="edge">
<title>1&#45;&gt;2</title>
<path fill="none" stroke="black" d="M39.8,-554.18C35.12,-548.35 30.49,-541.31 28,-534 25.19,-525.77 24.26,-516.43 24.22,-507.82"/>
<polygon fill="black" stroke="black" points="27.71,-507.95 24.59,-497.83 20.72,-507.69 27.71,-507.95"/>
<text text-anchor="start" x="32" y="-522" font-family="Courier New" font-weight="bold" font-size="10.00" fill="blue">SENDMSG(WIP1,IDV_S_TELETYPE)</text>
</g>
<!-- 3 -->
<g id="node4" class="node">
<title>3</title>
<ellipse fill="none" stroke="black" cx="27" cy="-386" rx="27" ry="18"/>
<text text-anchor="middle" x="27" y="-381.8" font-family="Times,serif" font-size="14.00">3</text>
</g>
<!-- 2&#45;&gt;3 -->
<g id="edge3" class="edge">
<title>2&#45;&gt;3</title>
<path fill="none" stroke="black" d="M27,-459.65C27,-447.2 27,-430.14 27,-415.68"/>
<polygon fill="black" stroke="black" points="30.5,-415.81 27,-405.81 23.5,-415.81 30.5,-415.81"/>
<text text-anchor="start" x="31" y="-430" font-family="Courier New" font-weight="bold" font-size="10.00" fill="blue">PLAYWAVE(0,SOUND_CLICK)</text>
</g>
<!-- 4 -->
<g id="node5" class="node">
<title>4</title>
<ellipse fill="none" stroke="black" cx="27" cy="-294" rx="27" ry="18"/>
<text text-anchor="middle" x="27" y="-289.8" font-family="Times,serif" font-size="14.00">4</text>
</g>
<!-- 3&#45;&gt;4 -->
<g id="edge4" class="edge">
<title>3&#45;&gt;4</title>
<path fill="none" stroke="black" d="M27,-367.65C27,-355.2 27,-338.14 27,-323.68"/>
<polygon fill="black" stroke="black" points="30.5,-323.81 27,-313.81 23.5,-323.81 30.5,-323.81"/>
<text text-anchor="start" x="31" y="-338" font-family="Courier New" font-weight="bold" font-size="10.00" fill="blue">SHOW(0,IDS_REDEAR)</text>
</g>
<!-- 5 -->
<g id="node6" class="node">
<title>5</title>
<ellipse fill="none" stroke="black" cx="27" cy="-202" rx="27" ry="18"/>
<text text-anchor="middle" x="27" y="-197.8" font-family="Times,serif" font-size="14.00">5</text>
</g>
<!-- 4&#45;&gt;5 -->
<g id="edge5" class="edge">
<title>4&#45;&gt;5</title>
<path fill="none" stroke="black" d="M27,-275.65C27,-263.2 27,-246.14 27,-231.68"/>
<polygon fill="black" stroke="black" points="30.5,-231.81 27,-221.81 23.5,-231.81 30.5,-231.81"/>
<text text-anchor="start" x="31" y="-246" font-family="Courier New" font-weight="bold" font-size="10.00" fill="orange">CLICK(0,0)</text>
</g>
<!-- 6 -->
<g id="node7" class="node">
<title>6</title>
<ellipse fill="none" stroke="black" cx="35" cy="-110" rx="27" ry="18"/>
<text text-anchor="middle" x="35" y="-105.8" font-family="Times,serif" font-size="14.00">6</text>
</g>
<!-- 5&#45;&gt;6 -->
<g id="edge6" class="edge">
<title>5&#45;&gt;6</title>
<path fill="none" stroke="black" d="M26.52,-183.61C26.42,-172.76 26.64,-158.53 28,-146 28.24,-143.78 28.55,-141.5 28.91,-139.2"/>
<polygon fill="black" stroke="black" points="32.33,-139.95 30.69,-129.48 25.44,-138.69 32.33,-139.95"/>
<text text-anchor="start" x="32" y="-154" font-family="Courier New" font-weight="bold" font-size="10.00" fill="blue">SENDMSG(WIP2,IDV_S_TELETYPE)</text>
</g>
<!-- 7 -->
<g id="node8" class="node">
<title>7</title>
<ellipse fill="none" stroke="black" cx="130" cy="-18" rx="27" ry="18"/>
<text text-anchor="middle" x="130" y="-13.8" font-family="Times,serif" font-size="14.00">7</text>
</g>
<!-- 6&#45;&gt;7 -->
<g id="edge7" class="edge">
<title>6&#45;&gt;7</title>
<path fill="none" stroke="black" d="M38.76,-91.84C42.1,-79.99 48.05,-64.53 58,-54 67.99,-43.43 81.86,-35.65 94.75,-30.15"/>
<polygon fill="black" stroke="black" points="95.79,-33.49 103.84,-26.6 93.25,-26.97 95.79,-33.49"/>
<text text-anchor="start" x="62" y="-62" font-family="Courier New" font-weight="bold" font-size="10.00" fill="blue">PLAYWAVE(0,SOUND_CLICK)</text>
</g>
<!-- 7&#45;&gt;0 -->
<g id="edge8" class="edge">
<title>7&#45;&gt;0</title>
<path fill="none" stroke="black" d="M155.43,-25.03C171.59,-30.14 191.71,-39.08 204,-54 220.04,-73.47 218,-83.78 218,-109 218,-571 218,-571 218,-571 218,-606.45 182.73,-631.99 154.94,-646.61"/>
<polygon fill="black" stroke="black" points="153.5,-643.42 146.11,-651.01 156.62,-649.69 153.5,-643.42"/>
<text text-anchor="start" x="222" y="-338" font-family="Courier New" font-weight="bold" font-size="10.00" fill="blue">SHOW(0,0)</text>
</g>
</g>
</svg>
