<?xml version="1.0" encoding="UTF-8" standalone="no"?>
<!DOCTYPE svg PUBLIC "-//W3C//DTD SVG 1.1//EN"
 "http://www.w3.org/Graphics/SVG/1.1/DTD/svg11.dtd">
<!-- Generated by graphviz version 7.1.0 (20230121.1956)
 -->
<!-- Pages: 1 -->
<svg width="333pt" height="320pt"
 viewBox="0.00 0.00 333.00 320.00" xmlns="http://www.w3.org/2000/svg" xmlns:xlink="http://www.w3.org/1999/xlink">
<g id="graph0" class="graph" transform="scale(1 1) rotate(0) translate(4 316)">
<polygon fill="white" stroke="none" points="-4,4 -4,-316 329,-316 329,4 -4,4"/>
<!-- 0 -->
<g id="node1" class="node">
<title>0</title>
<ellipse fill="none" stroke="black" cx="88" cy="-294" rx="27" ry="18"/>
<text text-anchor="middle" x="88" y="-289.8" font-family="Times,serif" font-size="14.00">0</text>
</g>
<!-- 1 -->
<g id="node2" class="node">
<title>1</title>
<ellipse fill="none" stroke="black" cx="88" cy="-202" rx="27" ry="18"/>
<text text-anchor="middle" x="88" y="-197.8" font-family="Times,serif" font-size="14.00">1</text>
</g>
<!-- 0&#45;&gt;1 -->
<g id="edge1" class="edge">
<title>0&#45;&gt;1</title>
<path fill="none" stroke="black" d="M88,-275.65C88,-263.2 88,-246.14 88,-231.68"/>
<polygon fill="black" stroke="black" points="91.5,-231.81 88,-221.81 84.5,-231.81 91.5,-231.81"/>
<text text-anchor="start" x="92" y="-246" font-family="Courier New" font-weight="bold" font-size="10.00" fill="blue">SHOW(0,IDS_BTN_MAP)</text>
</g>
<!-- 2 -->
<g id="node3" class="node">
<title>2</title>
<ellipse fill="none" stroke="black" cx="27" cy="-110" rx="27" ry="18"/>
<text text-anchor="middle" x="27" y="-105.8" font-family="Times,serif" font-size="14.00">2</text>
</g>
<!-- 1&#45;&gt;2 -->
<g id="edge2" class="edge">
<title>1&#45;&gt;2</title>
<path fill="none" stroke="black" d="M77.37,-185.32C68.16,-171.73 54.66,-151.8 43.95,-136.01"/>
<polygon fill="black" stroke="black" points="47.07,-134.37 38.56,-128.05 41.27,-138.29 47.07,-134.37"/>
<text text-anchor="start" x="67" y="-154" font-family="Courier New" font-weight="bold" font-size="10.00" fill="orange">CLICK(0,0)</text>
</g>
<!-- 3 -->
<g id="node4" class="node">
<title>3</title>
<ellipse fill="none" stroke="black" cx="88" cy="-18" rx="27" ry="18"/>
<text text-anchor="middle" x="88" y="-13.8" font-family="Times,serif" font-size="14.00">3</text>
</g>
<!-- 2&#45;&gt;3 -->
<g id="edge3" class="edge">
<title>2&#45;&gt;3</title>
<path fill="none" stroke="black" d="M15.15,-93.59C7.79,-82.01 1.11,-66.13 9,-54 18.44,-39.49 35.42,-30.95 51.22,-25.95"/>
<polygon fill="black" stroke="black" points="51.69,-29.45 60.41,-23.42 49.84,-22.7 51.69,-29.45"/>
<text text-anchor="start" x="13" y="-62" font-family="Courier New" font-weight="bold" font-size="10.00" fill="blue">PLAYWAVE(0,SOUND_POPUP)</text>
</g>
<!-- 3&#45;&gt;1 -->
<g id="edge4" class="edge">
<title>3&#45;&gt;1</title>
<path fill="none" stroke="black" d="M113.27,-25.14C128.23,-30.21 145.96,-39.07 155,-54 181.2,-97.25 162.39,-123.49 135,-166 130.63,-172.78 124.46,-178.72 118.02,-183.68"/>
<polygon fill="black" stroke="black" points="116.03,-180.8 109.82,-189.39 120.03,-186.55 116.03,-180.8"/>
<text text-anchor="start" x="171" y="-108" font-family="Courier New" font-weight="bold" font-size="10.00" fill="blue">LOADVIEW(0,IDV_CONTINENT)</text>
</g>
</g>
</svg>
