<?xml version="1.0" encoding="UTF-8" standalone="no"?>
<!DOCTYPE svg PUBLIC "-//W3C//DTD SVG 1.1//EN"
 "http://www.w3.org/Graphics/SVG/1.1/DTD/svg11.dtd">
<!-- Generated by graphviz version 7.1.0 (20230121.1956)
 -->
<!-- Pages: 1 -->
<svg width="307pt" height="320pt"
 viewBox="0.00 0.00 307.00 320.00" xmlns="http://www.w3.org/2000/svg" xmlns:xlink="http://www.w3.org/1999/xlink">
<g id="graph0" class="graph" transform="scale(1 1) rotate(0) translate(4 316)">
<polygon fill="white" stroke="none" points="-4,4 -4,-316 303,-316 303,4 -4,4"/>
<!-- 0 -->
<g id="node1" class="node">
<title>0</title>
<ellipse fill="none" stroke="black" cx="103" cy="-294" rx="27" ry="18"/>
<text text-anchor="middle" x="103" y="-289.8" font-family="Times,serif" font-size="14.00">0</text>
</g>
<!-- 1 -->
<g id="node2" class="node">
<title>1</title>
<ellipse fill="none" stroke="black" cx="36" cy="-202" rx="27" ry="18"/>
<text text-anchor="middle" x="36" y="-197.8" font-family="Times,serif" font-size="14.00">1</text>
</g>
<!-- 0&#45;&gt;1 -->
<g id="edge1" class="edge">
<title>0&#45;&gt;1</title>
<path fill="none" stroke="black" d="M81.27,-282.99C70.71,-277.1 58.68,-268.7 51,-258 45.44,-250.25 41.94,-240.55 39.74,-231.46"/>
<polygon fill="black" stroke="black" points="43.24,-231.09 37.88,-221.95 36.37,-232.43 43.24,-231.09"/>
<text text-anchor="start" x="55" y="-246" font-family="Courier New" font-weight="bold" font-size="10.00" fill="blue">SHOW(0,IDS_BTN_OK)</text>
</g>
<!-- 2 -->
<g id="node3" class="node">
<title>2</title>
<ellipse fill="none" stroke="black" cx="27" cy="-110" rx="27" ry="18"/>
<text text-anchor="middle" x="27" y="-105.8" font-family="Times,serif" font-size="14.00">2</text>
</g>
<!-- 1&#45;&gt;2 -->
<g id="edge2" class="edge">
<title>1&#45;&gt;2</title>
<path fill="none" stroke="black" d="M34.26,-183.65C33.02,-171.2 31.31,-154.14 29.87,-139.68"/>
<polygon fill="black" stroke="black" points="33.36,-139.41 28.88,-129.81 26.39,-140.1 33.36,-139.41"/>
<text text-anchor="start" x="37" y="-154" font-family="Courier New" font-weight="bold" font-size="10.00" fill="orange">CLICK(0,0)</text>
</g>
<!-- 3 -->
<g id="node4" class="node">
<title>3</title>
<ellipse fill="none" stroke="black" cx="103" cy="-18" rx="27" ry="18"/>
<text text-anchor="middle" x="103" y="-13.8" font-family="Times,serif" font-size="14.00">3</text>
</g>
<!-- 2&#45;&gt;3 -->
<g id="edge3" class="edge">
<title>2&#45;&gt;3</title>
<path fill="none" stroke="black" d="M22.47,-91.79C20.45,-80.21 19.89,-65.1 27,-54 35.74,-40.35 51.3,-31.95 66.07,-26.82"/>
<polygon fill="black" stroke="black" points="67.07,-30.17 75.63,-23.93 65.05,-23.47 67.07,-30.17"/>
<text text-anchor="start" x="31" y="-62" font-family="Courier New" font-weight="bold" font-size="10.00" fill="blue">SIGNAL(SIG_CLOSE,WIP1)</text>
</g>
<!-- 3&#45;&gt;0 -->
<g id="edge4" class="edge">
<title>3&#45;&gt;0</title>
<path fill="none" stroke="black" d="M127.82,-25.68C141.98,-30.9 158.54,-39.73 167,-54 213.24,-131.99 213.24,-180.01 167,-258 160.59,-268.81 149.53,-276.5 138.38,-281.87"/>
<polygon fill="black" stroke="black" points="137.07,-278.62 129.22,-285.73 139.79,-285.07 137.07,-278.62"/>
<text text-anchor="start" x="205" y="-154" font-family="Courier New" font-weight="bold" font-size="10.00" fill="blue">LOADVIEW(WIP2,)</text>
</g>
</g>
</svg>
