<?xml version="1.0" encoding="UTF-8" standalone="no"?>
<!DOCTYPE svg PUBLIC "-//W3C//DTD SVG 1.1//EN"
 "http://www.w3.org/Graphics/SVG/1.1/DTD/svg11.dtd">
<!-- Generated by graphviz version 7.1.0 (20230121.1956)
 -->
<!-- Pages: 1 -->
<svg width="575pt" height="2200pt"
 viewBox="0.00 0.00 574.93 2200.20" xmlns="http://www.w3.org/2000/svg" xmlns:xlink="http://www.w3.org/1999/xlink">
<g id="graph0" class="graph" transform="scale(1 1) rotate(0) translate(4 2196.2)">
<polygon fill="white" stroke="none" points="-4,4 -4,-2196.2 570.93,-2196.2 570.93,4 -4,4"/>
<!-- M_MEMOBJ_0 -->
<g id="node1" class="node">
<title>M_MEMOBJ_0</title>
<polygon fill="none" stroke="black" points="267.5,-2155.7 267.5,-2191.7 375.29,-2191.7 375.29,-2155.7 267.5,-2155.7"/>
<text text-anchor="middle" x="321.4" y="-2169.5" font-family="Times,serif" font-size="14.00">M_MEMOBJ_0</text>
</g>
<!-- M_MEMOBJ_1 -->
<g id="node2" class="node">
<title>M_MEMOBJ_1</title>
<polygon fill="none" stroke="black" points="212.5,-2065.9 212.5,-2101.9 320.29,-2101.9 320.29,-2065.9 212.5,-2065.9"/>
<text text-anchor="middle" x="266.4" y="-2079.7" font-family="Times,serif" font-size="14.00">M_MEMOBJ_1</text>
</g>
<!-- M_MEMOBJ_0&#45;&gt;M_MEMOBJ_1 -->
<g id="edge1" class="edge">
<title>M_MEMOBJ_0&#45;&gt;M_MEMOBJ_1</title>
<path fill="none" stroke="green" d="M287.39,-2155.76C280.49,-2150.74 274.07,-2144.56 269.88,-2137.2 265.77,-2129.97 264.15,-2121.24 263.77,-2113"/>
<polygon fill="green" stroke="green" points="267.27,-2113.08 263.92,-2103.02 260.27,-2112.97 267.27,-2113.08"/>
<text text-anchor="start" x="269.4" y="-2125.6" font-family="Times,serif" font-size="14.00" fill="green"> </text>
<text text-anchor="start" x="272.9" y="-2125.6" font-family="Courier New" font-size="10.00" fill="green">O_ACCEPT(WIP1,)</text>
</g>
<!-- M_MEMOBJ_2 -->
<g id="node3" class="node">
<title>M_MEMOBJ_2</title>
<polygon fill="none" stroke="black" points="203.5,-1976.1 203.5,-2012.1 311.29,-2012.1 311.29,-1976.1 203.5,-1976.1"/>
<text text-anchor="middle" x="257.4" y="-1989.9" font-family="Times,serif" font-size="14.00">M_MEMOBJ_2</text>
</g>
<!-- M_MEMOBJ_1&#45;&gt;M_MEMOBJ_2 -->
<g id="edge2" class="edge">
<title>M_MEMOBJ_1&#45;&gt;M_MEMOBJ_2</title>
<path fill="none" stroke="red" d="M264.66,-2065.97C263.42,-2053.82 261.71,-2037.18 260.26,-2023.07"/>
<polygon fill="red" stroke="red" points="263.78,-2023.07 259.28,-2013.48 256.82,-2023.79 263.78,-2023.07"/>
<text text-anchor="start" x="262.4" y="-2035.8" font-family="Times,serif" font-size="14.00" fill="red"> </text>
<text text-anchor="start" x="265.9" y="-2035.8" font-family="Courier New" font-size="10.00" fill="red">DROP(0,)</text>
</g>
<!-- M_MEMOBJ_3 -->
<g id="node4" class="node">
<title>M_MEMOBJ_3</title>
<polygon fill="none" stroke="black" points="201.5,-1886.3 201.5,-1922.3 309.29,-1922.3 309.29,-1886.3 201.5,-1886.3"/>
<text text-anchor="middle" x="255.4" y="-1900.1" font-family="Times,serif" font-size="14.00">M_MEMOBJ_3</text>
</g>
<!-- M_MEMOBJ_2&#45;&gt;M_MEMOBJ_3 -->
<g id="edge3" class="edge">
<title>M_MEMOBJ_2&#45;&gt;M_MEMOBJ_3</title>
<path fill="none" stroke="green" d="M257.01,-1976.17C256.73,-1964.02 256.36,-1947.38 256.03,-1933.27"/>
<polygon fill="green" stroke="green" points="259.54,-1933.61 255.82,-1923.69 252.54,-1933.77 259.54,-1933.61"/>
<text text-anchor="start" x="257.4" y="-1946" font-family="Times,serif" font-size="14.00" fill="green"> </text>
<text text-anchor="start" x="260.9" y="-1946" font-family="Courier New" font-size="10.00" fill="green">MOV(WSPRITE,WIP3)</text>
</g>
<!-- M_MEMOBJ_4 -->
<g id="node5" class="node">
<title>M_MEMOBJ_4</title>
<polygon fill="none" stroke="black" points="199.5,-1796.5 199.5,-1832.5 307.29,-1832.5 307.29,-1796.5 199.5,-1796.5"/>
<text text-anchor="middle" x="253.4" y="-1810.3" font-family="Times,serif" font-size="14.00">M_MEMOBJ_4</text>
</g>
<!-- M_MEMOBJ_3&#45;&gt;M_MEMOBJ_4 -->
<g id="edge4" class="edge">
<title>M_MEMOBJ_3&#45;&gt;M_MEMOBJ_4</title>
<path fill="none" stroke="green" d="M255.01,-1886.37C254.73,-1874.22 254.36,-1857.58 254.03,-1843.47"/>
<polygon fill="green" stroke="green" points="257.54,-1843.81 253.82,-1833.89 250.54,-1843.97 257.54,-1843.81"/>
<text text-anchor="start" x="255.4" y="-1856.2" font-family="Times,serif" font-size="14.00" fill="green"> </text>
<text text-anchor="start" x="258.9" y="-1856.2" font-family="Courier New" font-size="10.00" fill="green">SHOW(WSPRITE,)</text>
</g>
<!-- M_MEMOBJ_5 -->
<g id="node6" class="node">
<title>M_MEMOBJ_5</title>
<polygon fill="none" stroke="black" points="196.5,-1706.7 196.5,-1742.7 304.29,-1742.7 304.29,-1706.7 196.5,-1706.7"/>
<text text-anchor="middle" x="250.4" y="-1720.5" font-family="Times,serif" font-size="14.00">M_MEMOBJ_5</text>
</g>
<!-- M_MEMOBJ_4&#45;&gt;M_MEMOBJ_5 -->
<g id="edge5" class="edge">
<title>M_MEMOBJ_4&#45;&gt;M_MEMOBJ_5</title>
<path fill="none" stroke="green" d="M252.62,-1796.53C252.37,-1790.66 252.09,-1784.04 251.88,-1778 251.6,-1770.26 251.35,-1761.86 251.13,-1754.12"/>
<polygon fill="green" stroke="green" points="254.63,-1754.07 250.86,-1744.17 247.63,-1754.27 254.63,-1754.07"/>
<text text-anchor="start" x="252.4" y="-1766.4" font-family="Times,serif" font-size="14.00" fill="green"> </text>
<text text-anchor="start" x="255.9" y="-1766.4" font-family="Courier New" font-size="10.00" fill="green">ASSIGN(BPARM,WIP1)</text>
</g>
<!-- M_MEMOBJ_11 -->
<g id="node7" class="node">
<title>M_MEMOBJ_11</title>
<polygon fill="none" stroke="black" points="23,-1616.9 23,-1652.9 137.79,-1652.9 137.79,-1616.9 23,-1616.9"/>
<text text-anchor="middle" x="80.4" y="-1630.7" font-family="Times,serif" font-size="14.00">M_MEMOBJ_11</text>
</g>
<!-- M_MEMOBJ_5&#45;&gt;M_MEMOBJ_11 -->
<g id="edge6" class="edge">
<title>M_MEMOBJ_5&#45;&gt;M_MEMOBJ_11</title>
<path fill="none" stroke="green" d="M196.62,-1708.42C180.8,-1703 163.76,-1696.22 148.88,-1688.2 134.4,-1680.4 119.72,-1669.64 107.69,-1659.92"/>
<polygon fill="green" stroke="green" points="110.14,-1657.41 100.21,-1653.72 105.67,-1662.8 110.14,-1657.41"/>
<text text-anchor="start" x="149.4" y="-1676.6" font-family="Times,serif" font-size="14.00" fill="green"> </text>
<text text-anchor="start" x="152.9" y="-1676.6" font-family="Courier New" font-size="10.00" fill="green">IFSTATE(18,WIP4)</text>
</g>
<!-- M_MEMOBJ_18 -->
<g id="node8" class="node">
<title>M_MEMOBJ_18</title>
<polygon fill="none" stroke="black" points="115,-988.3 115,-1024.3 229.79,-1024.3 229.79,-988.3 115,-988.3"/>
<text text-anchor="middle" x="172.4" y="-1002.1" font-family="Times,serif" font-size="14.00">M_MEMOBJ_18</text>
</g>
<!-- M_MEMOBJ_5&#45;&gt;M_MEMOBJ_18 -->
<g id="edge7" class="edge">
<title>M_MEMOBJ_5&#45;&gt;M_MEMOBJ_18</title>
<path fill="none" stroke="green" d="M254.06,-1706.96C257.59,-1689.36 262.4,-1660.82 262.4,-1635.9 262.4,-1635.9 262.4,-1635.9 262.4,-1095.1 262.4,-1071.04 263.86,-1061.24 248.4,-1042.8 244.36,-1037.99 239.53,-1033.79 234.28,-1030.13"/>
<polygon fill="green" stroke="green" points="236.12,-1027.16 225.77,-1024.92 232.47,-1033.12 236.12,-1027.16"/>
<text text-anchor="start" x="262.4" y="-1362.3" font-family="Times,serif" font-size="14.00" fill="green"> </text>
<text text-anchor="start" x="265.9" y="-1362.3" font-family="Courier New" font-size="10.00" fill="green">Z_EPSILON(,)</text>
</g>
<!-- M_MEMOBJ_12 -->
<g id="node9" class="node">
<title>M_MEMOBJ_12</title>
<polygon fill="none" stroke="black" points="0,-1527.1 0,-1563.1 114.79,-1563.1 114.79,-1527.1 0,-1527.1"/>
<text text-anchor="middle" x="57.4" y="-1540.9" font-family="Times,serif" font-size="14.00">M_MEMOBJ_12</text>
</g>
<!-- M_MEMOBJ_11&#45;&gt;M_MEMOBJ_12 -->
<g id="edge8" class="edge">
<title>M_MEMOBJ_11&#45;&gt;M_MEMOBJ_12</title>
<path fill="none" stroke="green" d="M67.74,-1617.05C64.19,-1611.41 60.78,-1604.9 58.87,-1598.4 56.62,-1590.76 55.73,-1582.22 55.55,-1574.3"/>
<polygon fill="green" stroke="green" points="59.04,-1574.49 55.69,-1564.44 52.05,-1574.39 59.04,-1574.49"/>
<text text-anchor="start" x="59.4" y="-1586.8" font-family="Times,serif" font-size="14.00" fill="green"> </text>
<text text-anchor="start" x="62.9" y="-1586.8" font-family="Courier New" font-size="10.00" fill="green">SIGNALi(SIG_SHOW,S27_MEMSTONE1)</text>
</g>
<!-- M_MEMOBJ_20 -->
<g id="node15" class="node">
<title>M_MEMOBJ_20</title>
<polygon fill="none" stroke="black" points="115,-898.5 115,-934.5 229.79,-934.5 229.79,-898.5 115,-898.5"/>
<text text-anchor="middle" x="172.4" y="-912.3" font-family="Times,serif" font-size="14.00">M_MEMOBJ_20</text>
</g>
<!-- M_MEMOBJ_18&#45;&gt;M_MEMOBJ_20 -->
<g id="edge15" class="edge">
<title>M_MEMOBJ_18&#45;&gt;M_MEMOBJ_20</title>
<path fill="none" stroke="red" d="M172.4,-988.37C172.4,-976.22 172.4,-959.58 172.4,-945.47"/>
<polygon fill="red" stroke="red" points="175.9,-945.89 172.4,-935.89 168.9,-945.89 175.9,-945.89"/>
<text text-anchor="start" x="172.4" y="-958.2" font-family="Times,serif" font-size="14.00" fill="red"> </text>
<text text-anchor="start" x="175.9" y="-958.2" font-family="Courier New" font-size="10.00" fill="red">GRAB(WIP1,)</text>
</g>
<!-- M_MEMOBJ_13 -->
<g id="node10" class="node">
<title>M_MEMOBJ_13</title>
<polygon fill="none" stroke="black" points="0,-1437.3 0,-1473.3 114.79,-1473.3 114.79,-1437.3 0,-1437.3"/>
<text text-anchor="middle" x="57.4" y="-1451.1" font-family="Times,serif" font-size="14.00">M_MEMOBJ_13</text>
</g>
<!-- M_MEMOBJ_12&#45;&gt;M_MEMOBJ_13 -->
<g id="edge9" class="edge">
<title>M_MEMOBJ_12&#45;&gt;M_MEMOBJ_13</title>
<path fill="none" stroke="green" d="M57.4,-1527.17C57.4,-1515.02 57.4,-1498.38 57.4,-1484.27"/>
<polygon fill="green" stroke="green" points="60.9,-1484.69 57.4,-1474.69 53.9,-1484.69 60.9,-1484.69"/>
<text text-anchor="start" x="57.4" y="-1497" font-family="Times,serif" font-size="14.00" fill="green"> </text>
<text text-anchor="start" x="60.9" y="-1497" font-family="Courier New" font-size="10.00" fill="green">SIGNALi(SIG_SHOW,S27_MEMSTONE2)</text>
</g>
<!-- M_MEMOBJ_14 -->
<g id="node11" class="node">
<title>M_MEMOBJ_14</title>
<polygon fill="none" stroke="black" points="0,-1347.5 0,-1383.5 114.79,-1383.5 114.79,-1347.5 0,-1347.5"/>
<text text-anchor="middle" x="57.4" y="-1361.3" font-family="Times,serif" font-size="14.00">M_MEMOBJ_14</text>
</g>
<!-- M_MEMOBJ_13&#45;&gt;M_MEMOBJ_14 -->
<g id="edge10" class="edge">
<title>M_MEMOBJ_13&#45;&gt;M_MEMOBJ_14</title>
<path fill="none" stroke="green" d="M57.4,-1437.37C57.4,-1425.22 57.4,-1408.58 57.4,-1394.47"/>
<polygon fill="green" stroke="green" points="60.9,-1394.89 57.4,-1384.89 53.9,-1394.89 60.9,-1394.89"/>
<text text-anchor="start" x="57.4" y="-1407.2" font-family="Times,serif" font-size="14.00" fill="green"> </text>
<text text-anchor="start" x="60.9" y="-1407.2" font-family="Courier New" font-size="10.00" fill="green">SIGNALi(SIG_SHOW,S27_MEMSTONE3)</text>
</g>
<!-- M_MEMOBJ_15 -->
<g id="node12" class="node">
<title>M_MEMOBJ_15</title>
<polygon fill="none" stroke="black" points="0,-1257.7 0,-1293.7 114.79,-1293.7 114.79,-1257.7 0,-1257.7"/>
<text text-anchor="middle" x="57.4" y="-1271.5" font-family="Times,serif" font-size="14.00">M_MEMOBJ_15</text>
</g>
<!-- M_MEMOBJ_14&#45;&gt;M_MEMOBJ_15 -->
<g id="edge11" class="edge">
<title>M_MEMOBJ_14&#45;&gt;M_MEMOBJ_15</title>
<path fill="none" stroke="green" d="M57.4,-1347.57C57.4,-1335.42 57.4,-1318.78 57.4,-1304.67"/>
<polygon fill="green" stroke="green" points="60.9,-1305.09 57.4,-1295.09 53.9,-1305.09 60.9,-1305.09"/>
<text text-anchor="start" x="57.4" y="-1317.4" font-family="Times,serif" font-size="14.00" fill="green"> </text>
<text text-anchor="start" x="60.9" y="-1317.4" font-family="Courier New" font-size="10.00" fill="green">SIGNALi(SIG_SHOW,S27_MEMSTONE4)</text>
</g>
<!-- M_MEMOBJ_16 -->
<g id="node13" class="node">
<title>M_MEMOBJ_16</title>
<polygon fill="none" stroke="black" points="0,-1167.9 0,-1203.9 114.79,-1203.9 114.79,-1167.9 0,-1167.9"/>
<text text-anchor="middle" x="57.4" y="-1181.7" font-family="Times,serif" font-size="14.00">M_MEMOBJ_16</text>
</g>
<!-- M_MEMOBJ_15&#45;&gt;M_MEMOBJ_16 -->
<g id="edge12" class="edge">
<title>M_MEMOBJ_15&#45;&gt;M_MEMOBJ_16</title>
<path fill="none" stroke="green" d="M57.4,-1257.77C57.4,-1245.62 57.4,-1228.98 57.4,-1214.87"/>
<polygon fill="green" stroke="green" points="60.9,-1215.29 57.4,-1205.29 53.9,-1215.29 60.9,-1215.29"/>
<text text-anchor="start" x="57.4" y="-1227.6" font-family="Times,serif" font-size="14.00" fill="green"> </text>
<text text-anchor="start" x="60.9" y="-1227.6" font-family="Courier New" font-size="10.00" fill="green">SIGNALi(SIG_SHOW,S27_MEMSTONE5)</text>
</g>
<!-- M_MEMOBJ_17 -->
<g id="node14" class="node">
<title>M_MEMOBJ_17</title>
<polygon fill="none" stroke="black" points="0,-1078.1 0,-1114.1 114.79,-1114.1 114.79,-1078.1 0,-1078.1"/>
<text text-anchor="middle" x="57.4" y="-1091.9" font-family="Times,serif" font-size="14.00">M_MEMOBJ_17</text>
</g>
<!-- M_MEMOBJ_16&#45;&gt;M_MEMOBJ_17 -->
<g id="edge13" class="edge">
<title>M_MEMOBJ_16&#45;&gt;M_MEMOBJ_17</title>
<path fill="none" stroke="green" d="M57.4,-1167.97C57.4,-1155.82 57.4,-1139.18 57.4,-1125.07"/>
<polygon fill="green" stroke="green" points="60.9,-1125.49 57.4,-1115.49 53.9,-1125.49 60.9,-1125.49"/>
<text text-anchor="start" x="57.4" y="-1137.8" font-family="Times,serif" font-size="14.00" fill="green"> </text>
<text text-anchor="start" x="60.9" y="-1137.8" font-family="Courier New" font-size="10.00" fill="green">SIGNALi(SIG_SHOW,S27_MEMSTONE6)</text>
</g>
<!-- M_MEMOBJ_17&#45;&gt;M_MEMOBJ_18 -->
<g id="edge14" class="edge">
<title>M_MEMOBJ_17&#45;&gt;M_MEMOBJ_18</title>
<path fill="none" stroke="green" d="M53.22,-1078.38C51.46,-1067.21 51.3,-1052.79 58.87,-1042.8 69.86,-1028.28 86.75,-1019.55 104.18,-1014.34"/>
<polygon fill="green" stroke="green" points="104.77,-1017.8 113.58,-1011.92 103.02,-1011.03 104.77,-1017.8"/>
<text text-anchor="start" x="59.4" y="-1048" font-family="Times,serif" font-size="14.00" fill="green"> </text>
<text text-anchor="start" x="62.9" y="-1048" font-family="Courier New" font-size="10.00" fill="green">SIGNALi(SIG_SHOW,S27_MEMSTONE7)</text>
</g>
<!-- M_MEMOBJ_21 -->
<g id="node16" class="node">
<title>M_MEMOBJ_21</title>
<polygon fill="none" stroke="black" points="115,-808.7 115,-844.7 229.79,-844.7 229.79,-808.7 115,-808.7"/>
<text text-anchor="middle" x="172.4" y="-822.5" font-family="Times,serif" font-size="14.00">M_MEMOBJ_21</text>
</g>
<!-- M_MEMOBJ_20&#45;&gt;M_MEMOBJ_21 -->
<g id="edge16" class="edge">
<title>M_MEMOBJ_20&#45;&gt;M_MEMOBJ_21</title>
<path fill="none" stroke="green" d="M172.4,-898.57C172.4,-886.42 172.4,-869.78 172.4,-855.67"/>
<polygon fill="green" stroke="green" points="175.9,-856.09 172.4,-846.09 168.9,-856.09 175.9,-856.09"/>
<text text-anchor="start" x="172.4" y="-868.4" font-family="Times,serif" font-size="14.00" fill="green"> </text>
<text text-anchor="start" x="175.9" y="-868.4" font-family="Courier New" font-size="10.00" fill="green">CLEAR(WOBJECT,)</text>
</g>
<!-- M_MEMOBJ_22 -->
<g id="node17" class="node">
<title>M_MEMOBJ_22</title>
<polygon fill="none" stroke="black" points="115,-718.9 115,-754.9 229.79,-754.9 229.79,-718.9 115,-718.9"/>
<text text-anchor="middle" x="172.4" y="-732.7" font-family="Times,serif" font-size="14.00">M_MEMOBJ_22</text>
</g>
<!-- M_MEMOBJ_21&#45;&gt;M_MEMOBJ_22 -->
<g id="edge17" class="edge">
<title>M_MEMOBJ_21&#45;&gt;M_MEMOBJ_22</title>
<path fill="none" stroke="green" d="M172.4,-808.77C172.4,-796.62 172.4,-779.98 172.4,-765.87"/>
<polygon fill="green" stroke="green" points="175.9,-766.29 172.4,-756.29 168.9,-766.29 175.9,-766.29"/>
<text text-anchor="start" x="172.4" y="-778.6" font-family="Times,serif" font-size="14.00" fill="green"> </text>
<text text-anchor="start" x="175.9" y="-778.6" font-family="Courier New" font-size="10.00" fill="green">CLEAR(WPARM,)</text>
</g>
<!-- M_MEMOBJ_23 -->
<g id="node18" class="node">
<title>M_MEMOBJ_23</title>
<polygon fill="none" stroke="black" points="115,-629.1 115,-665.1 229.79,-665.1 229.79,-629.1 115,-629.1"/>
<text text-anchor="middle" x="172.4" y="-642.9" font-family="Times,serif" font-size="14.00">M_MEMOBJ_23</text>
</g>
<!-- M_MEMOBJ_22&#45;&gt;M_MEMOBJ_23 -->
<g id="edge18" class="edge">
<title>M_MEMOBJ_22&#45;&gt;M_MEMOBJ_23</title>
<path fill="none" stroke="green" d="M172.4,-718.97C172.4,-706.82 172.4,-690.18 172.4,-676.07"/>
<polygon fill="green" stroke="green" points="175.9,-676.49 172.4,-666.49 168.9,-676.49 175.9,-676.49"/>
<text text-anchor="start" x="172.4" y="-688.8" font-family="Times,serif" font-size="14.00" fill="green"> </text>
<text text-anchor="start" x="175.9" y="-688.8" font-family="Courier New" font-size="10.00" fill="green">CLEAR(WSPRITE,)</text>
</g>
<!-- M_MEMOBJ_30 -->
<g id="node19" class="node">
<title>M_MEMOBJ_30</title>
<polygon fill="none" stroke="black" points="115,-539.3 115,-575.3 229.79,-575.3 229.79,-539.3 115,-539.3"/>
<text text-anchor="middle" x="172.4" y="-553.1" font-family="Times,serif" font-size="14.00">M_MEMOBJ_30</text>
</g>
<!-- M_MEMOBJ_23&#45;&gt;M_MEMOBJ_30 -->
<g id="edge19" class="edge">
<title>M_MEMOBJ_23&#45;&gt;M_MEMOBJ_30</title>
<path fill="none" stroke="green" d="M172.4,-629.17C172.4,-617.02 172.4,-600.38 172.4,-586.27"/>
<polygon fill="green" stroke="green" points="175.9,-586.69 172.4,-576.69 168.9,-586.69 175.9,-586.69"/>
<text text-anchor="start" x="172.4" y="-599" font-family="Times,serif" font-size="14.00" fill="green"> </text>
<text text-anchor="start" x="175.9" y="-599" font-family="Courier New" font-size="10.00" fill="green">SHOW(,)</text>
</g>
<!-- M_MEMOBJ_31 -->
<g id="node20" class="node">
<title>M_MEMOBJ_31</title>
<polygon fill="none" stroke="black" points="115,-449.5 115,-485.5 229.79,-485.5 229.79,-449.5 115,-449.5"/>
<text text-anchor="middle" x="172.4" y="-463.3" font-family="Times,serif" font-size="14.00">M_MEMOBJ_31</text>
</g>
<!-- M_MEMOBJ_30&#45;&gt;M_MEMOBJ_31 -->
<g id="edge20" class="edge">
<title>M_MEMOBJ_30&#45;&gt;M_MEMOBJ_31</title>
<path fill="none" stroke="green" d="M172.4,-539.37C172.4,-527.22 172.4,-510.58 172.4,-496.47"/>
<polygon fill="green" stroke="green" points="175.9,-496.89 172.4,-486.89 168.9,-496.89 175.9,-496.89"/>
<text text-anchor="start" x="172.4" y="-509.2" font-family="Times,serif" font-size="14.00" fill="green"> </text>
<text text-anchor="start" x="175.9" y="-509.2" font-family="Courier New" font-size="10.00" fill="green">SIGNALi(SIG_HIDE,S27_MEMSTONE1)</text>
</g>
<!-- M_MEMOBJ_32 -->
<g id="node21" class="node">
<title>M_MEMOBJ_32</title>
<polygon fill="none" stroke="black" points="115,-359.7 115,-395.7 229.79,-395.7 229.79,-359.7 115,-359.7"/>
<text text-anchor="middle" x="172.4" y="-373.5" font-family="Times,serif" font-size="14.00">M_MEMOBJ_32</text>
</g>
<!-- M_MEMOBJ_31&#45;&gt;M_MEMOBJ_32 -->
<g id="edge21" class="edge">
<title>M_MEMOBJ_31&#45;&gt;M_MEMOBJ_32</title>
<path fill="none" stroke="green" d="M172.4,-449.57C172.4,-437.42 172.4,-420.78 172.4,-406.67"/>
<polygon fill="green" stroke="green" points="175.9,-407.09 172.4,-397.09 168.9,-407.09 175.9,-407.09"/>
<text text-anchor="start" x="172.4" y="-419.4" font-family="Times,serif" font-size="14.00" fill="green"> </text>
<text text-anchor="start" x="175.9" y="-419.4" font-family="Courier New" font-size="10.00" fill="green">SIGNALi(SIG_HIDE,S27_MEMSTONE2)</text>
</g>
<!-- M_MEMOBJ_33 -->
<g id="node22" class="node">
<title>M_MEMOBJ_33</title>
<polygon fill="none" stroke="black" points="115,-269.9 115,-305.9 229.79,-305.9 229.79,-269.9 115,-269.9"/>
<text text-anchor="middle" x="172.4" y="-283.7" font-family="Times,serif" font-size="14.00">M_MEMOBJ_33</text>
</g>
<!-- M_MEMOBJ_32&#45;&gt;M_MEMOBJ_33 -->
<g id="edge22" class="edge">
<title>M_MEMOBJ_32&#45;&gt;M_MEMOBJ_33</title>
<path fill="none" stroke="green" d="M172.4,-359.77C172.4,-347.62 172.4,-330.98 172.4,-316.87"/>
<polygon fill="green" stroke="green" points="175.9,-317.29 172.4,-307.29 168.9,-317.29 175.9,-317.29"/>
<text text-anchor="start" x="172.4" y="-329.6" font-family="Times,serif" font-size="14.00" fill="green"> </text>
<text text-anchor="start" x="175.9" y="-329.6" font-family="Courier New" font-size="10.00" fill="green">SIGNALi(SIG_HIDE,S27_MEMSTONE3)</text>
</g>
<!-- M_MEMOBJ_34 -->
<g id="node23" class="node">
<title>M_MEMOBJ_34</title>
<polygon fill="none" stroke="black" points="115,-180.1 115,-216.1 229.79,-216.1 229.79,-180.1 115,-180.1"/>
<text text-anchor="middle" x="172.4" y="-193.9" font-family="Times,serif" font-size="14.00">M_MEMOBJ_34</text>
</g>
<!-- M_MEMOBJ_33&#45;&gt;M_MEMOBJ_34 -->
<g id="edge23" class="edge">
<title>M_MEMOBJ_33&#45;&gt;M_MEMOBJ_34</title>
<path fill="none" stroke="green" d="M172.4,-269.97C172.4,-257.82 172.4,-241.18 172.4,-227.07"/>
<polygon fill="green" stroke="green" points="175.9,-227.49 172.4,-217.49 168.9,-227.49 175.9,-227.49"/>
<text text-anchor="start" x="172.4" y="-239.8" font-family="Times,serif" font-size="14.00" fill="green"> </text>
<text text-anchor="start" x="175.9" y="-239.8" font-family="Courier New" font-size="10.00" fill="green">SIGNALi(SIG_HIDE,S27_MEMSTONE4)</text>
</g>
<!-- M_MEMOBJ_35 -->
<g id="node24" class="node">
<title>M_MEMOBJ_35</title>
<polygon fill="none" stroke="black" points="115,-90.3 115,-126.3 229.79,-126.3 229.79,-90.3 115,-90.3"/>
<text text-anchor="middle" x="172.4" y="-104.1" font-family="Times,serif" font-size="14.00">M_MEMOBJ_35</text>
</g>
<!-- M_MEMOBJ_34&#45;&gt;M_MEMOBJ_35 -->
<g id="edge24" class="edge">
<title>M_MEMOBJ_34&#45;&gt;M_MEMOBJ_35</title>
<path fill="none" stroke="green" d="M172.4,-180.17C172.4,-168.02 172.4,-151.38 172.4,-137.27"/>
<polygon fill="green" stroke="green" points="175.9,-137.69 172.4,-127.69 168.9,-137.69 175.9,-137.69"/>
<text text-anchor="start" x="172.4" y="-150" font-family="Times,serif" font-size="14.00" fill="green"> </text>
<text text-anchor="start" x="175.9" y="-150" font-family="Courier New" font-size="10.00" fill="green">SIGNALi(SIG_HIDE,S27_MEMSTONE5)</text>
</g>
<!-- M_MEMOBJ_36 -->
<g id="node25" class="node">
<title>M_MEMOBJ_36</title>
<polygon fill="none" stroke="black" points="217,-0.5 217,-36.5 331.79,-36.5 331.79,-0.5 217,-0.5"/>
<text text-anchor="middle" x="274.4" y="-14.3" font-family="Times,serif" font-size="14.00">M_MEMOBJ_36</text>
</g>
<!-- M_MEMOBJ_35&#45;&gt;M_MEMOBJ_36 -->
<g id="edge25" class="edge">
<title>M_MEMOBJ_35&#45;&gt;M_MEMOBJ_36</title>
<path fill="none" stroke="green" d="M168.34,-90.67C166.63,-79.54 166.48,-65.13 173.87,-55 181.91,-43.96 193.68,-36.33 206.35,-31.07"/>
<polygon fill="green" stroke="green" points="207.5,-34.37 215.72,-27.69 205.13,-27.79 207.5,-34.37"/>
<text text-anchor="start" x="174.4" y="-60.2" font-family="Times,serif" font-size="14.00" fill="green"> </text>
<text text-anchor="start" x="177.9" y="-60.2" font-family="Courier New" font-size="10.00" fill="green">SIGNALi(SIG_HIDE,S27_MEMSTONE6)</text>
</g>
<!-- M_MEMOBJ_36&#45;&gt;M_MEMOBJ_0 -->
<g id="edge26" class="edge">
<title>M_MEMOBJ_36&#45;&gt;M_MEMOBJ_0</title>
<path fill="none" stroke="green" d="M331.61,-33.25C343.45,-38.4 354.89,-45.42 363.4,-55 379.38,-72.99 377.4,-83.24 377.4,-107.3 377.4,-2084.9 377.4,-2084.9 377.4,-2084.9 377.4,-2108.96 376.29,-2116.88 363.4,-2137.2 360.86,-2141.19 357.74,-2144.97 354.35,-2148.46"/>
<polygon fill="green" stroke="green" points="352.19,-2145.69 347.22,-2155.04 356.94,-2150.83 352.19,-2145.69"/>
<text text-anchor="start" x="377.4" y="-1092.9" font-family="Times,serif" font-size="14.00" fill="green"> </text>
<text text-anchor="start" x="380.9" y="-1092.9" font-family="Courier New" font-size="10.00" fill="green">SIGNALi(SIG_HIDE,S27_MEMSTONE7)</text>
</g>
</g>
</svg>
