<?xml version="1.0" encoding="UTF-8" standalone="no"?>
<!DOCTYPE svg PUBLIC "-//W3C//DTD SVG 1.1//EN"
 "http://www.w3.org/Graphics/SVG/1.1/DTD/svg11.dtd">
<!-- Generated by graphviz version 7.1.0 (20230121.1956)
 -->
<!-- Pages: 1 -->
<svg width="237pt" height="608pt"
 viewBox="0.00 0.00 237.00 608.00" xmlns="http://www.w3.org/2000/svg" xmlns:xlink="http://www.w3.org/1999/xlink">
<g id="graph0" class="graph" transform="scale(1 1) rotate(0) translate(4 604)">
<polygon fill="white" stroke="none" points="-4,4 -4,-604 233,-604 233,4 -4,4"/>
<!-- 0 -->
<g id="node1" class="node">
<title>0</title>
<ellipse fill="none" stroke="black" cx="98" cy="-582" rx="27" ry="18"/>
<text text-anchor="middle" x="98" y="-577.8" font-family="Times,serif" font-size="14.00">0</text>
</g>
<!-- 1 -->
<g id="node2" class="node">
<title>1</title>
<ellipse fill="none" stroke="black" cx="32" cy="-488" rx="27" ry="18"/>
<text text-anchor="middle" x="32" y="-483.8" font-family="Times,serif" font-size="14.00">1</text>
</g>
<!-- 0&#45;&gt;1 -->
<g id="edge1" class="edge">
<title>0&#45;&gt;1</title>
<path fill="none" stroke="black" d="M74.83,-572.37C62.83,-566.7 49.06,-558.07 41,-546 35.47,-537.71 32.87,-527.24 31.77,-517.56"/>
<polygon fill="black" stroke="black" points="35.28,-517.59 31.17,-507.83 28.3,-518.03 35.28,-517.59"/>
<text text-anchor="start" x="45" y="-532.2" font-family="Courier New" font-weight="bold" font-size="12.00" fill="orange">WAIT(,SIG_SHOW)</text>
</g>
<!-- 2 -->
<g id="node3" class="node">
<title>2</title>
<ellipse fill="none" stroke="black" cx="27" cy="-394" rx="27" ry="18"/>
<text text-anchor="middle" x="27" y="-389.8" font-family="Times,serif" font-size="14.00">2</text>
</g>
<!-- 1&#45;&gt;2 -->
<g id="edge2" class="edge">
<title>1&#45;&gt;2</title>
<path fill="none" stroke="black" d="M31.06,-469.7C30.35,-456.72 29.37,-438.66 28.55,-423.56"/>
<polygon fill="black" stroke="black" points="32.06,-423.53 28.02,-413.74 25.07,-423.91 32.06,-423.53"/>
<text text-anchor="start" x="35" y="-438.2" font-family="Courier New" font-weight="bold" font-size="12.00" fill="blue">RAND(8,0)</text>
</g>
<!-- 3 -->
<g id="node4" class="node">
<title>3</title>
<ellipse fill="none" stroke="black" cx="27" cy="-300" rx="27" ry="18"/>
<text text-anchor="middle" x="27" y="-295.8" font-family="Times,serif" font-size="14.00">3</text>
</g>
<!-- 2&#45;&gt;3 -->
<g id="edge3" class="edge">
<title>2&#45;&gt;3</title>
<path fill="none" stroke="black" d="M27,-375.7C27,-362.72 27,-344.66 27,-329.56"/>
<polygon fill="black" stroke="black" points="30.5,-329.74 27,-319.74 23.5,-329.74 30.5,-329.74"/>
<text text-anchor="start" x="31" y="-344.2" font-family="Courier New" font-weight="bold" font-size="12.00" fill="blue">MOV(BFRAME,WRAND)</text>
</g>
<!-- 4 -->
<g id="node5" class="node">
<title>4</title>
<ellipse fill="none" stroke="black" cx="37" cy="-206" rx="27" ry="18"/>
<text text-anchor="middle" x="37" y="-201.8" font-family="Times,serif" font-size="14.00">4</text>
</g>
<!-- 3&#45;&gt;4 -->
<g id="edge4" class="edge">
<title>3&#45;&gt;4</title>
<path fill="none" stroke="black" d="M28.88,-281.7C30.29,-268.72 32.25,-250.66 33.9,-235.56"/>
<polygon fill="black" stroke="black" points="37.36,-236.05 34.96,-225.73 30.4,-235.29 37.36,-236.05"/>
<text text-anchor="start" x="38.5" y="-250.2" font-family="Courier New" font-weight="bold" font-size="12.00" fill="blue">SHOW(WIP1,)</text>
</g>
<!-- 5 -->
<g id="node6" class="node">
<title>5</title>
<ellipse fill="none" stroke="black" cx="40" cy="-112" rx="27" ry="18"/>
<text text-anchor="middle" x="40" y="-107.8" font-family="Times,serif" font-size="14.00">5</text>
</g>
<!-- 4&#45;&gt;5 -->
<g id="edge5" class="edge">
<title>4&#45;&gt;5</title>
<path fill="none" stroke="black" d="M37.56,-187.7C37.99,-174.72 38.58,-156.66 39.07,-141.56"/>
<polygon fill="black" stroke="black" points="42.56,-141.85 39.39,-131.74 35.56,-141.62 42.56,-141.85"/>
<text text-anchor="start" x="43" y="-156.2" font-family="Courier New" font-weight="bold" font-size="12.00" fill="orange">WAIT(,SIG_HIDE)</text>
</g>
<!-- 6 -->
<g id="node7" class="node">
<title>6</title>
<ellipse fill="none" stroke="black" cx="105" cy="-18" rx="27" ry="18"/>
<text text-anchor="middle" x="105" y="-13.8" font-family="Times,serif" font-size="14.00">6</text>
</g>
<!-- 5&#45;&gt;6 -->
<g id="edge6" class="edge">
<title>5&#45;&gt;6</title>
<path fill="none" stroke="black" d="M36.01,-93.8C34.2,-81.79 33.83,-65.86 41,-54 47.51,-43.24 58.59,-35.56 69.72,-30.2"/>
<polygon fill="black" stroke="black" points="71.03,-33.44 78.87,-26.32 68.3,-27 71.03,-33.44"/>
<text text-anchor="start" x="45" y="-62.2" font-family="Courier New" font-weight="bold" font-size="12.00" fill="blue">CLEAR(WSPRITE,)</text>
</g>
<!-- 6&#45;&gt;0 -->
<g id="edge7" class="edge">
<title>6&#45;&gt;0</title>
<path fill="none" stroke="black" d="M126.84,-28.93C137.43,-34.79 149.46,-43.2 157,-54 171.94,-75.39 171,-84.91 171,-111 171,-489 171,-489 171,-489 171,-515.09 172.54,-525.05 157,-546 150.44,-554.85 140.91,-561.88 131.42,-567.24"/>
<polygon fill="black" stroke="black" points="129.94,-564.06 122.62,-571.73 133.12,-570.3 129.94,-564.06"/>
<text text-anchor="start" x="175" y="-297.2" font-family="Courier New" font-weight="bold" font-size="12.00" fill="blue">SHOW(,)</text>
</g>
</g>
</svg>
