<?xml version="1.0" encoding="UTF-8" standalone="no"?>
<!DOCTYPE svg PUBLIC "-//W3C//DTD SVG 1.1//EN"
 "http://www.w3.org/Graphics/SVG/1.1/DTD/svg11.dtd">
<!-- Generated by graphviz version 7.1.0 (20230121.1956)
 -->
<!-- Title: Automaton Pages: 1 -->
<svg width="322pt" height="1073pt"
 viewBox="0.00 0.00 322.00 1073.00" xmlns="http://www.w3.org/2000/svg" xmlns:xlink="http://www.w3.org/1999/xlink">
<g id="graph0" class="graph" transform="scale(1 1) rotate(0) translate(4 1069)">
<title>Automaton</title>
<polygon fill="white" stroke="none" points="-4,4 -4,-1069 318,-1069 318,4 -4,4"/>
<!-- filename -->
<g id="node1" class="node">
<title>filename</title>
<polygon fill="none" stroke="black" points="0,-1012.5 0,-1064.5 118,-1064.5 118,-1012.5 0,-1012.5"/>
<polygon fill="none" stroke="black" points="11,-1039.5 11,-1057.5 107,-1057.5 107,-1039.5 11,-1039.5"/>
<text text-anchor="start" x="29" y="-1046.5" font-family="Courier New" font-weight="bold" font-size="10.00">M_MEF_TALK</text>
<polygon fill="none" stroke="black" points="11,-1019.5 11,-1037.5 107,-1037.5 107,-1019.5 11,-1019.5"/>
<text text-anchor="start" x="14" y="-1025.5" font-family="Courier New" font-size="10.00" fill="brown">start state = 0</text>
<polygon fill="none" stroke="black" points="8,-1016.5 8,-1060.5 110,-1060.5 110,-1016.5 8,-1016.5"/>
</g>
<!-- 0 -->
<g id="node2" class="node">
<title>0</title>
<polyline fill="none" stroke="darkred" points="156,-1027.5 170,-1027.5"/>
<text text-anchor="start" x="159" y="-1034.9" font-family="Courier New" font-weight="bold" font-size="14.00">0</text>
<path fill="none" stroke="darkred" d="M159.67,-1024.5C159.67,-1024.5 166.33,-1024.5 166.33,-1024.5 169.67,-1024.5 173,-1027.83 173,-1031.17 173,-1031.17 173,-1045.83 173,-1045.83 173,-1049.17 169.67,-1052.5 166.33,-1052.5 166.33,-1052.5 159.67,-1052.5 159.67,-1052.5 156.33,-1052.5 153,-1049.17 153,-1045.83 153,-1045.83 153,-1031.17 153,-1031.17 153,-1027.83 156.33,-1024.5 159.67,-1024.5"/>
</g>
<!-- 1 -->
<g id="node3" class="node">
<title>1</title>
<polyline fill="none" stroke="darkred" points="93,-927 107,-927"/>
<text text-anchor="start" x="96" y="-934.4" font-family="Courier New" font-weight="bold" font-size="14.00">1</text>
<path fill="none" stroke="darkred" d="M96.67,-924C96.67,-924 103.33,-924 103.33,-924 106.67,-924 110,-927.33 110,-930.67 110,-930.67 110,-945.33 110,-945.33 110,-948.67 106.67,-952 103.33,-952 103.33,-952 96.67,-952 96.67,-952 93.33,-952 90,-948.67 90,-945.33 90,-945.33 90,-930.67 90,-930.67 90,-927.33 93.33,-924 96.67,-924"/>
</g>
<!-- 0&#45;&gt;1 -->
<g id="edge1" class="edge">
<title>0&#45;&gt;1</title>
<path fill="none" stroke="black" d="M139.4,-1020.68C127.11,-1011.44 113.86,-1000.57 110,-994 105.28,-985.97 102.69,-976.24 101.3,-967.2"/>
<polygon fill="black" stroke="black" points="104.8,-967 100.25,-957.43 97.84,-967.75 104.8,-967"/>
<text text-anchor="start" x="114" y="-982" font-family="Courier New" font-weight="bold" font-size="10.00" fill="orange">WAIT(,SIG_PLAY)</text>
</g>
<!-- 2 -->
<g id="node4" class="node">
<title>2</title>
<polyline fill="none" stroke="darkred" points="91,-835 105,-835"/>
<text text-anchor="start" x="94" y="-842.4" font-family="Courier New" font-weight="bold" font-size="14.00">2</text>
<path fill="none" stroke="darkred" d="M94.67,-832C94.67,-832 101.33,-832 101.33,-832 104.67,-832 108,-835.33 108,-838.67 108,-838.67 108,-853.33 108,-853.33 108,-856.67 104.67,-860 101.33,-860 101.33,-860 94.67,-860 94.67,-860 91.33,-860 88,-856.67 88,-853.33 88,-853.33 88,-838.67 88,-838.67 88,-835.33 91.33,-832 94.67,-832"/>
</g>
<!-- 1&#45;&gt;2 -->
<g id="edge2" class="edge">
<title>1&#45;&gt;2</title>
<path fill="none" stroke="black" d="M98.85,-920.27C98.5,-914.49 98.17,-907.96 98,-902 97.75,-893.31 97.68,-883.84 97.69,-875.24"/>
<polygon fill="black" stroke="black" points="101.19,-875.39 97.74,-865.37 94.19,-875.35 101.19,-875.39"/>
<text text-anchor="start" x="102" y="-890" font-family="Courier New" font-weight="bold" font-size="10.00" fill="blue">MOV(WSPRITE,WIP1)</text>
</g>
<!-- 3 -->
<g id="node9" class="node">
<title>3</title>
<polyline fill="none" stroke="darkred" points="95,-743 109,-743"/>
<text text-anchor="start" x="98" y="-750.4" font-family="Courier New" font-weight="bold" font-size="14.00">3</text>
<path fill="none" stroke="darkred" d="M98.67,-740C98.67,-740 105.33,-740 105.33,-740 108.67,-740 112,-743.33 112,-746.67 112,-746.67 112,-761.33 112,-761.33 112,-764.67 108.67,-768 105.33,-768 105.33,-768 98.67,-768 98.67,-768 95.33,-768 92,-764.67 92,-761.33 92,-761.33 92,-746.67 92,-746.67 92,-743.33 95.33,-740 98.67,-740"/>
</g>
<!-- 2&#45;&gt;3 -->
<g id="edge7" class="edge">
<title>2&#45;&gt;3</title>
<path fill="none" stroke="black" d="M98.75,-828.07C99.32,-815.38 100.1,-797.71 100.76,-782.94"/>
<polygon fill="black" stroke="black" points="104.24,-783.51 101.18,-773.36 97.24,-783.2 104.24,-783.51"/>
<text text-anchor="start" x="105" y="-798" font-family="Courier New" font-weight="bold" font-size="10.00" fill="blue">ASHOW(WSPRITE,)</text>
</g>
<!-- 10 -->
<g id="node5" class="node">
<title>10</title>
<polyline fill="none" stroke="darkred" points="92,-283 114,-283"/>
<text text-anchor="start" x="95" y="-290.4" font-family="Courier New" font-weight="bold" font-size="14.00">10</text>
<path fill="none" stroke="darkred" d="M98.33,-280C98.33,-280 107.67,-280 107.67,-280 112.33,-280 117,-284.67 117,-289.33 117,-289.33 117,-298.67 117,-298.67 117,-303.33 112.33,-308 107.67,-308 107.67,-308 98.33,-308 98.33,-308 93.67,-308 89,-303.33 89,-298.67 89,-298.67 89,-289.33 89,-289.33 89,-284.67 93.67,-280 98.33,-280"/>
</g>
<!-- 11 -->
<g id="node6" class="node">
<title>11</title>
<polyline fill="none" stroke="darkred" points="95,-191 117,-191"/>
<text text-anchor="start" x="98" y="-198.4" font-family="Courier New" font-weight="bold" font-size="14.00">11</text>
<path fill="none" stroke="darkred" d="M101.33,-188C101.33,-188 110.67,-188 110.67,-188 115.33,-188 120,-192.67 120,-197.33 120,-197.33 120,-206.67 120,-206.67 120,-211.33 115.33,-216 110.67,-216 110.67,-216 101.33,-216 101.33,-216 96.67,-216 92,-211.33 92,-206.67 92,-206.67 92,-197.33 92,-197.33 92,-192.67 96.67,-188 101.33,-188"/>
</g>
<!-- 10&#45;&gt;11 -->
<g id="edge3" class="edge">
<title>10&#45;&gt;11</title>
<path fill="none" stroke="black" d="M103.14,-276.15C103.27,-265.26 103.52,-250.79 104,-238 104.08,-235.76 104.19,-233.45 104.3,-231.12"/>
<polygon fill="black" stroke="black" points="107.79,-231.41 104.83,-221.24 100.8,-231.04 107.79,-231.41"/>
<text text-anchor="start" x="108" y="-246" font-family="Courier New" font-weight="bold" font-size="10.00" fill="orange">WAIT(,SIG_CLOSE)</text>
</g>
<!-- 14 -->
<g id="node7" class="node">
<title>14</title>
<polyline fill="none" stroke="darkred" points="113,-99 135,-99"/>
<text text-anchor="start" x="116" y="-106.4" font-family="Courier New" font-weight="bold" font-size="14.00">14</text>
<path fill="none" stroke="darkred" d="M119.33,-96C119.33,-96 128.67,-96 128.67,-96 133.33,-96 138,-100.67 138,-105.33 138,-105.33 138,-114.67 138,-114.67 138,-119.33 133.33,-124 128.67,-124 128.67,-124 119.33,-124 119.33,-124 114.67,-124 110,-119.33 110,-114.67 110,-114.67 110,-105.33 110,-105.33 110,-100.67 114.67,-96 119.33,-96"/>
</g>
<!-- 11&#45;&gt;14 -->
<g id="edge4" class="edge">
<title>11&#45;&gt;14</title>
<path fill="none" stroke="black" d="M108.87,-184.11C110.77,-173.21 113.39,-158.74 116,-146 116.48,-143.66 116.99,-141.24 117.52,-138.81"/>
<polygon fill="black" stroke="black" points="120.91,-139.7 119.69,-129.18 114.08,-138.17 120.91,-139.7"/>
<text text-anchor="start" x="120" y="-154" font-family="Courier New" font-weight="bold" font-size="10.00" fill="blue">CLEAR(BFRAME,)</text>
</g>
<!-- 15 -->
<g id="node8" class="node">
<title>15</title>
<polyline fill="none" stroke="darkred" points="166,-7 188,-7"/>
<text text-anchor="start" x="169" y="-14.4" font-family="Courier New" font-weight="bold" font-size="14.00">15</text>
<path fill="none" stroke="darkred" d="M172.33,-4C172.33,-4 181.67,-4 181.67,-4 186.33,-4 191,-8.67 191,-13.33 191,-13.33 191,-22.67 191,-22.67 191,-27.33 186.33,-32 181.67,-32 181.67,-32 172.33,-32 172.33,-32 167.67,-32 163,-27.33 163,-22.67 163,-22.67 163,-13.33 163,-13.33 163,-8.67 167.67,-4 172.33,-4"/>
</g>
<!-- 14&#45;&gt;15 -->
<g id="edge5" class="edge">
<title>14&#45;&gt;15</title>
<path fill="none" stroke="black" d="M131.7,-92.29C137.01,-81.2 144.44,-66.46 152,-54 153.8,-51.03 155.77,-47.99 157.79,-44.99"/>
<polygon fill="black" stroke="black" points="160.53,-47.18 163.4,-36.98 154.8,-43.17 160.53,-47.18"/>
<text text-anchor="start" x="156" y="-62" font-family="Courier New" font-weight="bold" font-size="10.00" fill="blue">SHOW(0,)</text>
</g>
<!-- 15&#45;&gt;0 -->
<g id="edge6" class="edge">
<title>15&#45;&gt;0</title>
<path fill="none" stroke="black" d="M194.89,-35.92C199.73,-41.3 204.58,-47.54 208,-54 219.81,-76.29 222,-83.78 222,-109 222,-939 222,-939 222,-939 222,-964.22 220.66,-972.18 208,-994 204.04,-1000.82 198.71,-1007.27 193.11,-1013.01"/>
<polygon fill="black" stroke="black" points="190.77,-1010.41 185.92,-1019.83 195.58,-1015.48 190.77,-1010.41"/>
<text text-anchor="start" x="226" y="-522" font-family="Courier New" font-weight="bold" font-size="10.00" fill="blue">Z_EPSILON(0,0)</text>
</g>
<!-- 4 -->
<g id="node10" class="node">
<title>4</title>
<polyline fill="none" stroke="darkred" points="96,-651 110,-651"/>
<text text-anchor="start" x="99" y="-658.4" font-family="Courier New" font-weight="bold" font-size="14.00">4</text>
<path fill="none" stroke="darkred" d="M99.67,-648C99.67,-648 106.33,-648 106.33,-648 109.67,-648 113,-651.33 113,-654.67 113,-654.67 113,-669.33 113,-669.33 113,-672.67 109.67,-676 106.33,-676 106.33,-676 99.67,-676 99.67,-676 96.33,-676 93,-672.67 93,-669.33 93,-669.33 93,-654.67 93,-654.67 93,-651.33 96.33,-648 99.67,-648"/>
</g>
<!-- 3&#45;&gt;4 -->
<g id="edge8" class="edge">
<title>3&#45;&gt;4</title>
<path fill="none" stroke="black" d="M102.19,-736.07C102.33,-723.38 102.53,-705.71 102.69,-690.94"/>
<polygon fill="black" stroke="black" points="106.18,-691.4 102.8,-681.37 99.18,-691.33 106.18,-691.4"/>
<text text-anchor="start" x="107" y="-706" font-family="Courier New" font-weight="bold" font-size="10.00" fill="blue">PLAYWAVE(WIP3,)</text>
</g>
<!-- 7 -->
<g id="node11" class="node">
<title>7</title>
<polyline fill="none" stroke="darkred" points="96,-559 110,-559"/>
<text text-anchor="start" x="99" y="-566.4" font-family="Courier New" font-weight="bold" font-size="14.00">7</text>
<path fill="none" stroke="darkred" d="M99.67,-556C99.67,-556 106.33,-556 106.33,-556 109.67,-556 113,-559.33 113,-562.67 113,-562.67 113,-577.33 113,-577.33 113,-580.67 109.67,-584 106.33,-584 106.33,-584 99.67,-584 99.67,-584 96.33,-584 93,-580.67 93,-577.33 93,-577.33 93,-562.67 93,-562.67 93,-559.33 96.33,-556 99.67,-556"/>
</g>
<!-- 4&#45;&gt;7 -->
<g id="edge9" class="edge">
<title>4&#45;&gt;7</title>
<path fill="none" stroke="black" d="M103,-644.07C103,-631.38 103,-613.71 103,-598.94"/>
<polygon fill="black" stroke="black" points="106.5,-599.37 103,-589.37 99.5,-599.37 106.5,-599.37"/>
<text text-anchor="start" x="107" y="-614" font-family="Courier New" font-weight="bold" font-size="10.00" fill="blue">ESTIME(WIP2,)</text>
</g>
<!-- 8 -->
<g id="node12" class="node">
<title>8</title>
<polyline fill="none" stroke="darkred" points="96,-467 110,-467"/>
<text text-anchor="start" x="99" y="-474.4" font-family="Courier New" font-weight="bold" font-size="14.00">8</text>
<path fill="none" stroke="darkred" d="M99.67,-464C99.67,-464 106.33,-464 106.33,-464 109.67,-464 113,-467.33 113,-470.67 113,-470.67 113,-485.33 113,-485.33 113,-488.67 109.67,-492 106.33,-492 106.33,-492 99.67,-492 99.67,-492 96.33,-492 93,-488.67 93,-485.33 93,-485.33 93,-470.67 93,-470.67 93,-467.33 96.33,-464 99.67,-464"/>
</g>
<!-- 7&#45;&gt;8 -->
<g id="edge10" class="edge">
<title>7&#45;&gt;8</title>
<path fill="none" stroke="black" d="M103,-552.07C103,-539.38 103,-521.71 103,-506.94"/>
<polygon fill="black" stroke="black" points="106.5,-507.37 103,-497.37 99.5,-507.37 106.5,-507.37"/>
<text text-anchor="start" x="107" y="-522" font-family="Courier New" font-weight="bold" font-size="10.00" fill="blue">MOV(BFRAME,0)</text>
</g>
<!-- 9 -->
<g id="node13" class="node">
<title>9</title>
<polyline fill="none" stroke="darkred" points="96,-375 110,-375"/>
<text text-anchor="start" x="99" y="-382.4" font-family="Courier New" font-weight="bold" font-size="14.00">9</text>
<path fill="none" stroke="darkred" d="M99.67,-372C99.67,-372 106.33,-372 106.33,-372 109.67,-372 113,-375.33 113,-378.67 113,-378.67 113,-393.33 113,-393.33 113,-396.67 109.67,-400 106.33,-400 106.33,-400 99.67,-400 99.67,-400 96.33,-400 93,-396.67 93,-393.33 93,-393.33 93,-378.67 93,-378.67 93,-375.33 96.33,-372 99.67,-372"/>
</g>
<!-- 8&#45;&gt;9 -->
<g id="edge11" class="edge">
<title>8&#45;&gt;9</title>
<path fill="none" stroke="black" d="M103,-460.07C103,-447.38 103,-429.71 103,-414.94"/>
<polygon fill="black" stroke="black" points="106.5,-415.37 103,-405.37 99.5,-415.37 106.5,-415.37"/>
<text text-anchor="start" x="107" y="-430" font-family="Courier New" font-weight="bold" font-size="10.00" fill="blue">SHOW(WIP4,)</text>
</g>
<!-- 9&#45;&gt;10 -->
<g id="edge12" class="edge">
<title>9&#45;&gt;10</title>
<path fill="none" stroke="black" d="M103,-368.07C103,-355.38 103,-337.71 103,-322.94"/>
<polygon fill="black" stroke="black" points="106.5,-323.37 103,-313.37 99.5,-323.37 106.5,-323.37"/>
<text text-anchor="start" x="107" y="-338" font-family="Courier New" font-weight="bold" font-size="10.00" fill="blue">ANIMATE(0,0)</text>
</g>
</g>
</svg>
