<?xml version="1.0" encoding="UTF-8" standalone="no"?>
<!DOCTYPE svg PUBLIC "-//W3C//DTD SVG 1.1//EN"
 "http://www.w3.org/Graphics/SVG/1.1/DTD/svg11.dtd">
<!-- Generated by graphviz version 7.1.0 (20230121.1956)
 -->
<!-- Pages: 1 -->
<svg width="315pt" height="412pt"
 viewBox="0.00 0.00 315.00 412.00" xmlns="http://www.w3.org/2000/svg" xmlns:xlink="http://www.w3.org/1999/xlink">
<g id="graph0" class="graph" transform="scale(1 1) rotate(0) translate(4 408)">
<polygon fill="white" stroke="none" points="-4,4 -4,-408 311,-408 311,4 -4,4"/>
<!-- 0 -->
<g id="node1" class="node">
<title>0</title>
<ellipse fill="none" stroke="black" cx="98" cy="-386" rx="27" ry="18"/>
<text text-anchor="middle" x="98" y="-381.8" font-family="Times,serif" font-size="14.00">0</text>
</g>
<!-- 1 -->
<g id="node2" class="node">
<title>1</title>
<ellipse fill="none" stroke="black" cx="30" cy="-294" rx="27" ry="18"/>
<text text-anchor="middle" x="30" y="-289.8" font-family="Times,serif" font-size="14.00">1</text>
</g>
<!-- 0&#45;&gt;1 -->
<g id="edge1" class="edge">
<title>0&#45;&gt;1</title>
<path fill="none" stroke="black" d="M77.07,-374.07C67.37,-368.09 56.38,-359.88 49,-350 43.13,-342.15 38.98,-332.35 36.09,-323.2"/>
<polygon fill="black" stroke="black" points="39.49,-322.34 33.47,-313.62 32.74,-324.19 39.49,-322.34"/>
<text text-anchor="start" x="53" y="-338" font-family="Courier New" font-weight="bold" font-size="10.00" fill="blue">MOV(WSPRITE,WIP1)</text>
</g>
<!-- 2 -->
<g id="node3" class="node">
<title>2</title>
<ellipse fill="none" stroke="black" cx="27" cy="-202" rx="27" ry="18"/>
<text text-anchor="middle" x="27" y="-197.8" font-family="Times,serif" font-size="14.00">2</text>
</g>
<!-- 1&#45;&gt;2 -->
<g id="edge2" class="edge">
<title>1&#45;&gt;2</title>
<path fill="none" stroke="black" d="M27.07,-275.96C26.23,-270.27 25.42,-263.88 25,-258 24.39,-249.45 24.46,-240.14 24.8,-231.65"/>
<polygon fill="black" stroke="black" points="28.28,-232.04 25.33,-221.87 21.29,-231.66 28.28,-232.04"/>
<text text-anchor="start" x="29" y="-246" font-family="Courier New" font-weight="bold" font-size="10.00" fill="blue">ASHOW(WSPRITE,V_LOOP)</text>
</g>
<!-- 3 -->
<g id="node4" class="node">
<title>3</title>
<ellipse fill="none" stroke="black" cx="54" cy="-110" rx="27" ry="18"/>
<text text-anchor="middle" x="54" y="-105.8" font-family="Times,serif" font-size="14.00">3</text>
</g>
<!-- 2&#45;&gt;3 -->
<g id="edge3" class="edge">
<title>2&#45;&gt;3</title>
<path fill="none" stroke="black" d="M32.08,-184.07C35.9,-171.33 41.22,-153.59 45.67,-138.78"/>
<polygon fill="black" stroke="black" points="48.9,-140.19 48.42,-129.61 42.19,-138.18 48.9,-140.19"/>
<text text-anchor="start" x="47" y="-154" font-family="Courier New" font-weight="bold" font-size="10.00" fill="orange">CLICK(0,0)</text>
</g>
<!-- 4 -->
<g id="node5" class="node">
<title>4</title>
<ellipse fill="none" stroke="black" cx="114" cy="-18" rx="27" ry="18"/>
<text text-anchor="middle" x="114" y="-13.8" font-family="Times,serif" font-size="14.00">4</text>
</g>
<!-- 3&#45;&gt;4 -->
<g id="edge4" class="edge">
<title>3&#45;&gt;4</title>
<path fill="none" stroke="black" d="M52.62,-91.9C52.49,-80.38 53.98,-65.28 61,-54 66.05,-45.88 73.77,-39.25 81.76,-34.02"/>
<polygon fill="black" stroke="black" points="83.31,-37.17 90.18,-29.11 79.78,-31.13 83.31,-37.17"/>
<text text-anchor="start" x="65" y="-62" font-family="Courier New" font-weight="bold" font-size="10.00" fill="blue">LOADVIEW(WIP3,)</text>
</g>
<!-- 4&#45;&gt;0 -->
<g id="edge5" class="edge">
<title>4&#45;&gt;0</title>
<path fill="none" stroke="black" d="M134.01,-30.33C142.88,-36.31 152.71,-44.39 159,-54 172.81,-75.11 173,-83.78 173,-109 173,-295 173,-295 173,-295 173,-320.22 174.26,-329.91 159,-350 152.04,-359.16 141.93,-366.33 131.94,-371.72"/>
<polygon fill="black" stroke="black" points="130.53,-368.51 123.07,-376.04 133.6,-374.8 130.53,-368.51"/>
<text text-anchor="start" x="177" y="-200" font-family="Courier New" font-weight="bold" font-size="10.00" fill="blue">SIGNAL(WIP2,SIG_PLAY)</text>
</g>
</g>
</svg>
