<?xml version="1.0" encoding="UTF-8" standalone="no"?>
<!DOCTYPE svg PUBLIC "-//W3C//DTD SVG 1.1//EN"
 "http://www.w3.org/Graphics/SVG/1.1/DTD/svg11.dtd">
<!-- Generated by graphviz version 7.1.0 (20230121.1956)
 -->
<!-- Pages: 1 -->
<svg width="209pt" height="596pt"
 viewBox="0.00 0.00 209.00 596.00" xmlns="http://www.w3.org/2000/svg" xmlns:xlink="http://www.w3.org/1999/xlink">
<g id="graph0" class="graph" transform="scale(1 1) rotate(0) translate(4 592)">
<polygon fill="white" stroke="none" points="-4,4 -4,-592 205,-592 205,4 -4,4"/>
<!-- 0 -->
<g id="node1" class="node">
<title>0</title>
<ellipse fill="none" stroke="black" cx="88" cy="-570" rx="27" ry="18"/>
<text text-anchor="middle" x="88" y="-565.8" font-family="Times,serif" font-size="14.00">0</text>
</g>
<!-- 1 -->
<g id="node2" class="node">
<title>1</title>
<ellipse fill="none" stroke="black" cx="31" cy="-478" rx="27" ry="18"/>
<text text-anchor="middle" x="31" y="-473.8" font-family="Times,serif" font-size="14.00">1</text>
</g>
<!-- 0&#45;&gt;1 -->
<g id="edge1" class="edge">
<title>0&#45;&gt;1</title>
<path fill="none" stroke="black" d="M66.48,-558.78C56.52,-552.93 45.48,-544.62 39,-534 34.18,-526.09 31.85,-516.39 30.82,-507.34"/>
<polygon fill="black" stroke="black" points="34.32,-507.31 30.21,-497.55 27.34,-507.75 34.32,-507.31"/>
<text text-anchor="start" x="43" y="-522" font-family="Courier New" font-weight="bold" font-size="10.00" fill="orange">WAIT(,SIG_SHOW)</text>
</g>
<!-- 2 -->
<g id="node3" class="node">
<title>2</title>
<ellipse fill="none" stroke="black" cx="27" cy="-386" rx="27" ry="18"/>
<text text-anchor="middle" x="27" y="-381.8" font-family="Times,serif" font-size="14.00">2</text>
</g>
<!-- 1&#45;&gt;2 -->
<g id="edge2" class="edge">
<title>1&#45;&gt;2</title>
<path fill="none" stroke="black" d="M30.23,-459.65C29.68,-447.2 28.92,-430.14 28.27,-415.68"/>
<polygon fill="black" stroke="black" points="31.78,-415.65 27.84,-405.81 24.78,-415.96 31.78,-415.65"/>
<text text-anchor="start" x="34" y="-430" font-family="Courier New" font-weight="bold" font-size="10.00" fill="blue">RAND(8,0)</text>
</g>
<!-- 3 -->
<g id="node4" class="node">
<title>3</title>
<ellipse fill="none" stroke="black" cx="27" cy="-294" rx="27" ry="18"/>
<text text-anchor="middle" x="27" y="-289.8" font-family="Times,serif" font-size="14.00">3</text>
</g>
<!-- 2&#45;&gt;3 -->
<g id="edge3" class="edge">
<title>2&#45;&gt;3</title>
<path fill="none" stroke="black" d="M27,-367.65C27,-355.2 27,-338.14 27,-323.68"/>
<polygon fill="black" stroke="black" points="30.5,-323.81 27,-313.81 23.5,-323.81 30.5,-323.81"/>
<text text-anchor="start" x="31" y="-338" font-family="Courier New" font-weight="bold" font-size="10.00" fill="blue">MOV(BFRAME,WRAND)</text>
</g>
<!-- 4 -->
<g id="node5" class="node">
<title>4</title>
<ellipse fill="none" stroke="black" cx="36" cy="-202" rx="27" ry="18"/>
<text text-anchor="middle" x="36" y="-197.8" font-family="Times,serif" font-size="14.00">4</text>
</g>
<!-- 3&#45;&gt;4 -->
<g id="edge4" class="edge">
<title>3&#45;&gt;4</title>
<path fill="none" stroke="black" d="M28.74,-275.65C29.98,-263.2 31.69,-246.14 33.13,-231.68"/>
<polygon fill="black" stroke="black" points="36.61,-232.1 34.12,-221.81 29.64,-231.41 36.61,-232.1"/>
<text text-anchor="start" x="37" y="-246" font-family="Courier New" font-weight="bold" font-size="10.00" fill="blue">SHOW(WIP1,)</text>
</g>
<!-- 5 -->
<g id="node6" class="node">
<title>5</title>
<ellipse fill="none" stroke="black" cx="38" cy="-110" rx="27" ry="18"/>
<text text-anchor="middle" x="38" y="-105.8" font-family="Times,serif" font-size="14.00">5</text>
</g>
<!-- 4&#45;&gt;5 -->
<g id="edge5" class="edge">
<title>4&#45;&gt;5</title>
<path fill="none" stroke="black" d="M36.39,-183.65C36.66,-171.2 37.04,-154.14 37.36,-139.68"/>
<polygon fill="black" stroke="black" points="40.86,-139.89 37.58,-129.81 33.86,-139.73 40.86,-139.89"/>
<text text-anchor="start" x="42" y="-154" font-family="Courier New" font-weight="bold" font-size="10.00" fill="orange">WAIT(,SIG_HIDE)</text>
</g>
<!-- 6 -->
<g id="node7" class="node">
<title>6</title>
<ellipse fill="none" stroke="black" cx="94" cy="-18" rx="27" ry="18"/>
<text text-anchor="middle" x="94" y="-13.8" font-family="Times,serif" font-size="14.00">6</text>
</g>
<!-- 5&#45;&gt;6 -->
<g id="edge6" class="edge">
<title>5&#45;&gt;6</title>
<path fill="none" stroke="black" d="M34.33,-92.04C32.77,-80.58 32.55,-65.49 39,-54 43.93,-45.2 52.1,-38.29 60.65,-33.01"/>
<polygon fill="black" stroke="black" points="62.24,-36.13 69.36,-28.28 58.9,-29.98 62.24,-36.13"/>
<text text-anchor="start" x="43" y="-62" font-family="Courier New" font-weight="bold" font-size="10.00" fill="blue">CLEAR(WSPRITE,)</text>
</g>
<!-- 6&#45;&gt;0 -->
<g id="edge7" class="edge">
<title>6&#45;&gt;0</title>
<path fill="none" stroke="black" d="M113.56,-30.82C121.92,-36.8 131.09,-44.75 137,-54 150.58,-75.26 151,-83.78 151,-109 151,-479 151,-479 151,-479 151,-504.22 151.24,-513.18 137,-534 132.21,-541 125.54,-547.08 118.65,-552.12"/>
<polygon fill="black" stroke="black" points="116.95,-549.05 110.55,-557.49 120.82,-554.88 116.95,-549.05"/>
<text text-anchor="start" x="155" y="-292" font-family="Courier New" font-weight="bold" font-size="10.00" fill="blue">SHOW(,)</text>
</g>
</g>
</svg>
