<?xml version="1.0" encoding="UTF-8" standalone="no"?>
<!DOCTYPE svg PUBLIC "-//W3C//DTD SVG 1.1//EN"
 "http://www.w3.org/Graphics/SVG/1.1/DTD/svg11.dtd">
<!-- Generated by graphviz version 7.1.0 (20230121.1956)
 -->
<!-- Pages: 1 -->
<svg width="330pt" height="472pt"
 viewBox="0.00 0.00 330.00 472.00" xmlns="http://www.w3.org/2000/svg" xmlns:xlink="http://www.w3.org/1999/xlink">
<g id="graph0" class="graph" transform="scale(1 1) rotate(0) translate(4 468)">
<polygon fill="white" stroke="none" points="-4,4 -4,-468 326,-468 326,4 -4,4"/>
<!-- 0 -->
<g id="node1" class="node">
<title>0</title>
<ellipse fill="none" stroke="black" cx="119" cy="-446" rx="27" ry="18"/>
<text text-anchor="middle" x="119" y="-441.8" font-family="Times,serif" font-size="14.00">0</text>
</g>
<!-- 1 -->
<g id="node2" class="node">
<title>1</title>
<ellipse fill="none" stroke="black" cx="44" cy="-352" rx="27" ry="18"/>
<text text-anchor="middle" x="44" y="-347.8" font-family="Times,serif" font-size="14.00">1</text>
</g>
<!-- 0&#45;&gt;1 -->
<g id="edge1" class="edge">
<title>0&#45;&gt;1</title>
<path fill="none" stroke="black" d="M98.47,-433.75C88.87,-427.7 77.85,-419.52 70,-410 62.91,-401.4 57.34,-390.56 53.19,-380.64"/>
<polygon fill="black" stroke="black" points="56.51,-379.51 49.66,-371.42 49.97,-382.01 56.51,-379.51"/>
<text text-anchor="start" x="74" y="-396.2" font-family="Courier New" font-weight="bold" font-size="12.00" fill="blue">SHOW(0IDS_BTN_OK)</text>
</g>
<!-- 2 -->
<g id="node3" class="node">
<title>2</title>
<ellipse fill="none" stroke="black" cx="27" cy="-258" rx="27" ry="18"/>
<text text-anchor="middle" x="27" y="-253.8" font-family="Times,serif" font-size="14.00">2</text>
</g>
<!-- 1&#45;&gt;2 -->
<g id="edge2" class="edge">
<title>1&#45;&gt;2</title>
<path fill="none" stroke="black" d="M40.8,-333.7C38.38,-320.59 35,-302.31 32.19,-287.11"/>
<polygon fill="black" stroke="black" points="35.72,-286.91 30.46,-277.72 28.83,-288.18 35.72,-286.91"/>
<text text-anchor="start" x="42" y="-302.2" font-family="Courier New" font-weight="bold" font-size="12.00" fill="orange">CLICK(00)</text>
</g>
<!-- 3 -->
<g id="node4" class="node">
<title>3</title>
<ellipse fill="none" stroke="black" cx="45" cy="-138" rx="27" ry="18"/>
<text text-anchor="middle" x="45" y="-133.8" font-family="Times,serif" font-size="14.00">3</text>
</g>
<!-- 2&#45;&gt;3 -->
<g id="edge3" class="edge">
<title>2&#45;&gt;3</title>
<path fill="none" stroke="black" d="M23.82,-239.82C21.31,-222.8 19.12,-196.15 25,-174 25.84,-170.83 27.05,-167.65 28.45,-164.56"/>
<polygon fill="black" stroke="black" points="31.43,-166.42 33.06,-155.95 25.26,-163.12 31.43,-166.42"/>
<polygon fill="none" stroke="black" points="28.5,-199 28.5,-219 197.5,-219 197.5,-199 28.5,-199"/>
<text text-anchor="start" x="37.39" y="-206.2" font-family="Courier New" font-weight="bold" font-size="12.00" fill="blue">SIGNAL(SIG_CLOSEWIP1)</text>
<polygon fill="none" stroke="black" points="28.5,-177 28.5,-197 197.5,-197 197.5,-177 28.5,-177"/>
<text text-anchor="start" x="31.5" y="-183.2" font-family="Times,serif" font-size="12.00" fill="blue">PLAYWAVE(SOUND_POPUP);</text>
<polygon fill="none" stroke="black" points="25,-174 25,-222 200,-222 200,-174 25,-174"/>
</g>
<!-- 4 -->
<g id="node5" class="node">
<title>4</title>
<ellipse fill="none" stroke="black" cx="140" cy="-18" rx="27" ry="18"/>
<text text-anchor="middle" x="140" y="-13.8" font-family="Times,serif" font-size="14.00">4</text>
</g>
<!-- 3&#45;&gt;4 -->
<g id="edge4" class="edge">
<title>3&#45;&gt;4</title>
<path fill="none" stroke="black" d="M56.49,-121.46C69.07,-104.59 89.98,-77 109,-54 112.14,-50.2 115.54,-46.23 118.89,-42.39"/>
<polygon fill="black" stroke="black" points="121.49,-44.74 125.49,-34.93 116.25,-40.1 121.49,-44.74"/>
<polygon fill="none" stroke="black" points="112.5,-79 112.5,-99 197.5,-99 197.5,-79 112.5,-79"/>
<text text-anchor="start" x="115.5" y="-86.2" font-family="Courier New" font-weight="bold" font-size="12.00" fill="blue">CLEAR(WIP1)</text>
<polygon fill="none" stroke="black" points="112.5,-57 112.5,-77 197.5,-77 197.5,-57 112.5,-57"/>
<text text-anchor="start" x="128.67" y="-63.2" font-family="Times,serif" font-size="12.00" fill="blue">SHOW(0);</text>
<polygon fill="none" stroke="black" points="109,-54 109,-102 200,-102 200,-54 109,-54"/>
</g>
<!-- 4&#45;&gt;0 -->
<g id="edge5" class="edge">
<title>4&#45;&gt;0</title>
<path fill="none" stroke="black" d="M163.72,-27.11C176.46,-32.69 191.29,-41.4 200,-54 221.27,-84.77 214,-99.59 214,-137 214,-353 214,-353 214,-353 214,-379.09 216.84,-390.08 200,-410 188.78,-423.27 171.59,-431.66 155.93,-436.88"/>
<polygon fill="black" stroke="black" points="154.95,-433.52 146.36,-439.71 156.94,-440.23 154.95,-433.52"/>
<text text-anchor="start" x="218" y="-255.2" font-family="Courier New" font-weight="bold" font-size="12.00" fill="blue">LOADVIEW(WIP2)</text>
</g>
</g>
</svg>
