<?xml version="1.0" encoding="UTF-8" standalone="no"?>
<!DOCTYPE svg PUBLIC "-//W3C//DTD SVG 1.1//EN"
 "http://www.w3.org/Graphics/SVG/1.1/DTD/svg11.dtd">
<!-- Generated by graphviz version 7.1.0 (20230121.1956)
 -->
<!-- Pages: 1 -->
<svg width="230pt" height="584pt"
 viewBox="0.00 0.00 229.73 583.80" xmlns="http://www.w3.org/2000/svg" xmlns:xlink="http://www.w3.org/1999/xlink">
<g id="graph0" class="graph" transform="scale(1 1) rotate(0) translate(4 579.8)">
<polygon fill="white" stroke="none" points="-4,4 -4,-579.8 225.73,-579.8 225.73,4 -4,4"/>
<!-- M_MEMORY_0 -->
<g id="node1" class="node">
<title>M_MEMORY_0</title>
<polygon fill="none" stroke="black" points="64,-539.3 64,-575.3 176.46,-575.3 176.46,-539.3 64,-539.3"/>
<text text-anchor="middle" x="120.23" y="-553.1" font-family="Times,serif" font-size="14.00">M_MEMORY_0</text>
</g>
<!-- M_MEMORY_1 -->
<g id="node2" class="node">
<title>M_MEMORY_1</title>
<polygon fill="none" stroke="black" points="9,-449.5 9,-485.5 121.46,-485.5 121.46,-449.5 9,-449.5"/>
<text text-anchor="middle" x="65.23" y="-463.3" font-family="Times,serif" font-size="14.00">M_MEMORY_1</text>
</g>
<!-- M_MEMORY_0&#45;&gt;M_MEMORY_1 -->
<g id="edge1" class="edge">
<title>M_MEMORY_0&#45;&gt;M_MEMORY_1</title>
<path fill="none" stroke="red" d="M86.22,-539.36C79.32,-534.34 72.9,-528.16 68.71,-520.8 64.6,-513.57 62.98,-504.84 62.6,-496.6"/>
<polygon fill="red" stroke="red" points="66.1,-496.68 62.75,-486.62 59.1,-496.57 66.1,-496.68"/>
<text text-anchor="start" x="69.23" y="-509.2" font-family="Times,serif" font-size="14.00" fill="red"> </text>
<text text-anchor="start" x="72.73" y="-509.2" font-family="Courier New" font-size="10.00" fill="red">WAIT(,SIG_SHOW)</text>
</g>
<!-- M_MEMORY_2 -->
<g id="node3" class="node">
<title>M_MEMORY_2</title>
<polygon fill="none" stroke="black" points="0,-359.7 0,-395.7 112.46,-395.7 112.46,-359.7 0,-359.7"/>
<text text-anchor="middle" x="56.23" y="-373.5" font-family="Times,serif" font-size="14.00">M_MEMORY_2</text>
</g>
<!-- M_MEMORY_1&#45;&gt;M_MEMORY_2 -->
<g id="edge2" class="edge">
<title>M_MEMORY_1&#45;&gt;M_MEMORY_2</title>
<path fill="none" stroke="green" d="M63.49,-449.57C62.25,-437.42 60.54,-420.78 59.1,-406.67"/>
<polygon fill="green" stroke="green" points="62.61,-406.67 58.11,-397.08 55.65,-407.39 62.61,-406.67"/>
<text text-anchor="start" x="62.23" y="-419.4" font-family="Times,serif" font-size="14.00" fill="green"> </text>
<text text-anchor="start" x="65.73" y="-419.4" font-family="Courier New" font-size="10.00" fill="green">RAND(8,0)</text>
</g>
<!-- M_MEMORY_3 -->
<g id="node4" class="node">
<title>M_MEMORY_3</title>
<polygon fill="none" stroke="black" points="0,-269.9 0,-305.9 112.46,-305.9 112.46,-269.9 0,-269.9"/>
<text text-anchor="middle" x="56.23" y="-283.7" font-family="Times,serif" font-size="14.00">M_MEMORY_3</text>
</g>
<!-- M_MEMORY_2&#45;&gt;M_MEMORY_3 -->
<g id="edge3" class="edge">
<title>M_MEMORY_2&#45;&gt;M_MEMORY_3</title>
<path fill="none" stroke="green" d="M56.23,-359.77C56.23,-347.62 56.23,-330.98 56.23,-316.87"/>
<polygon fill="green" stroke="green" points="59.73,-317.29 56.23,-307.29 52.73,-317.29 59.73,-317.29"/>
<text text-anchor="start" x="56.23" y="-329.6" font-family="Times,serif" font-size="14.00" fill="green"> </text>
<text text-anchor="start" x="59.73" y="-329.6" font-family="Courier New" font-size="10.00" fill="green">MOV(BFRAME,WRAND)</text>
</g>
<!-- M_MEMORY_4 -->
<g id="node5" class="node">
<title>M_MEMORY_4</title>
<polygon fill="none" stroke="black" points="9,-180.1 9,-216.1 121.46,-216.1 121.46,-180.1 9,-180.1"/>
<text text-anchor="middle" x="65.23" y="-193.9" font-family="Times,serif" font-size="14.00">M_MEMORY_4</text>
</g>
<!-- M_MEMORY_3&#45;&gt;M_MEMORY_4 -->
<g id="edge4" class="edge">
<title>M_MEMORY_3&#45;&gt;M_MEMORY_4</title>
<path fill="none" stroke="green" d="M57.96,-269.97C59.21,-257.82 60.91,-241.18 62.36,-227.07"/>
<polygon fill="green" stroke="green" points="65.81,-227.79 63.34,-217.48 58.84,-227.07 65.81,-227.79"/>
<text text-anchor="start" x="62.23" y="-239.8" font-family="Times,serif" font-size="14.00" fill="green"> </text>
<text text-anchor="start" x="65.73" y="-239.8" font-family="Courier New" font-size="10.00" fill="green">SHOW(WIP1,)</text>
</g>
<!-- M_MEMORY_5 -->
<g id="node6" class="node">
<title>M_MEMORY_5</title>
<polygon fill="none" stroke="black" points="10,-90.3 10,-126.3 122.46,-126.3 122.46,-90.3 10,-90.3"/>
<text text-anchor="middle" x="66.23" y="-104.1" font-family="Times,serif" font-size="14.00">M_MEMORY_5</text>
</g>
<!-- M_MEMORY_4&#45;&gt;M_MEMORY_5 -->
<g id="edge5" class="edge">
<title>M_MEMORY_4&#45;&gt;M_MEMORY_5</title>
<path fill="none" stroke="red" d="M65.42,-180.17C65.56,-168.02 65.75,-151.38 65.91,-137.27"/>
<polygon fill="red" stroke="red" points="69.4,-137.73 66.02,-127.69 62.4,-137.65 69.4,-137.73"/>
<text text-anchor="start" x="66.23" y="-150" font-family="Times,serif" font-size="14.00" fill="red"> </text>
<text text-anchor="start" x="69.73" y="-150" font-family="Courier New" font-size="10.00" fill="red">WAIT(,SIG_HIDE)</text>
</g>
<!-- M_MEMORY_6 -->
<g id="node7" class="node">
<title>M_MEMORY_6</title>
<polygon fill="none" stroke="black" points="65,-0.5 65,-36.5 177.46,-36.5 177.46,-0.5 65,-0.5"/>
<text text-anchor="middle" x="121.23" y="-14.3" font-family="Times,serif" font-size="14.00">M_MEMORY_6</text>
</g>
<!-- M_MEMORY_5&#45;&gt;M_MEMORY_6 -->
<g id="edge6" class="edge">
<title>M_MEMORY_5&#45;&gt;M_MEMORY_6</title>
<path fill="none" stroke="green" d="M63.36,-90.7C62.33,-79.86 62.66,-65.78 68.71,-55 71.05,-50.84 74.1,-47.08 77.55,-43.69"/>
<polygon fill="green" stroke="green" points="79.61,-46.53 85.03,-37.43 75.12,-41.16 79.61,-46.53"/>
<text text-anchor="start" x="69.23" y="-60.2" font-family="Times,serif" font-size="14.00" fill="green"> </text>
<text text-anchor="start" x="72.73" y="-60.2" font-family="Courier New" font-size="10.00" fill="green">CLEAR(WSPRITE,)</text>
</g>
<!-- M_MEMORY_6&#45;&gt;M_MEMORY_0 -->
<g id="edge7" class="edge">
<title>M_MEMORY_6&#45;&gt;M_MEMORY_0</title>
<path fill="none" stroke="green" d="M145.34,-36.23C151.61,-41.59 157.83,-47.98 162.23,-55 175,-75.4 176.23,-83.24 176.23,-107.3 176.23,-468.5 176.23,-468.5 176.23,-468.5 176.23,-492.56 175.12,-500.48 162.23,-520.8 159.7,-524.79 156.57,-528.57 153.18,-532.06"/>
<polygon fill="green" stroke="green" points="151.02,-529.29 146.05,-538.64 155.77,-534.43 151.02,-529.29"/>
<text text-anchor="start" x="176.23" y="-284.7" font-family="Times,serif" font-size="14.00" fill="green"> </text>
<text text-anchor="start" x="179.73" y="-284.7" font-family="Courier New" font-size="10.00" fill="green">SHOW(,)</text>
</g>
</g>
</svg>
