<?xml version="1.0" encoding="UTF-8" standalone="no"?>
<!DOCTYPE svg PUBLIC "-//W3C//DTD SVG 1.1//EN"
 "http://www.w3.org/Graphics/SVG/1.1/DTD/svg11.dtd">
<!-- Generated by graphviz version 7.1.0 (20230121.1956)
 -->
<!-- Pages: 1 -->
<svg width="387pt" height="249pt"
 viewBox="0.00 0.00 387.11 249.00" xmlns="http://www.w3.org/2000/svg" xmlns:xlink="http://www.w3.org/1999/xlink">
<g id="graph0" class="graph" transform="scale(1 1) rotate(0) translate(4 245)">
<polygon fill="white" stroke="none" points="-4,4 -4,-245 383.11,-245 383.11,4 -4,4"/>
<!-- 0 -->
<g id="node1" class="node">
<title>0</title>
<ellipse fill="none" stroke="black" cx="145.11" cy="-223" rx="27" ry="18"/>
<text text-anchor="middle" x="145.11" y="-218.8" font-family="Times,serif" font-size="14.00">0</text>
</g>
<!-- 1 -->
<g id="node2" class="node">
<title>1</title>
<ellipse fill="none" stroke="black" cx="43.11" cy="-131" rx="27" ry="18"/>
<text text-anchor="middle" x="43.11" y="-126.8" font-family="Times,serif" font-size="14.00">1</text>
</g>
<!-- 0&#45;&gt;1 -->
<g id="edge1" class="edge">
<title>0&#45;&gt;1</title>
<path fill="none" stroke="black" d="M129.17,-207.94C112.63,-193.34 86.55,-170.33 67.43,-153.46"/>
<polygon fill="black" stroke="black" points="69.89,-150.96 60.07,-146.97 65.25,-156.21 69.89,-150.96"/>
<text text-anchor="start" x="108.11" y="-175" font-family="Courier New" font-weight="bold" font-size="10.00" fill="blue">SHOW(0,IDS_BTN_OK)</text>
</g>
<!-- 2 -->
<g id="node3" class="node">
<title>2</title>
<ellipse fill="none" stroke="black" cx="145.11" cy="-18" rx="27" ry="18"/>
<text text-anchor="middle" x="145.11" y="-13.8" font-family="Times,serif" font-size="14.00">2</text>
</g>
<!-- 1&#45;&gt;2 -->
<g id="edge2" class="edge">
<title>1&#45;&gt;2</title>
<path fill="none" stroke="black" d="M24.98,-117.45C18.01,-111.54 10.84,-103.83 7.11,-95 0.02,-78.21 -4.08,-68.38 7.11,-54 19.3,-38.33 70.52,-28.55 106.99,-23.43"/>
<polygon fill="black" stroke="black" points="107.3,-26.92 116.75,-22.13 106.37,-19.98 107.3,-26.92"/>
<polygon fill="none" stroke="black" points="10.61,-73.5 10.61,-91.5 267.61,-91.5 267.61,-73.5 10.61,-73.5"/>
<text text-anchor="start" x="109.11" y="-80.5" font-family="Courier New" font-weight="bold" font-size="10.00" fill="orange">CLICK(0,0)</text>
<polygon fill="none" stroke="black" points="10.61,-56.5 10.61,-71.5 267.61,-71.5 267.61,-56.5 10.61,-56.5"/>
<text text-anchor="start" x="13.61" y="-61.3" font-family="Times,serif" font-size="8.00" fill="blue">PLAYWAVE(SOUND_POPUP); SIGNALi(SIG_CLOSE,S24_RATHE_Q1);</text>
<polygon fill="none" stroke="black" points="7.11,-54 7.11,-95 270.11,-95 270.11,-54 7.11,-54"/>
</g>
<!-- 2&#45;&gt;0 -->
<g id="edge3" class="edge">
<title>2&#45;&gt;0</title>
<path fill="none" stroke="black" d="M171.44,-22.62C204.47,-27.76 258.23,-38.33 270.11,-54 307.91,-103.83 269.36,-143.82 224.11,-187 212.09,-198.47 195.68,-206.57 180.94,-212.06"/>
<polygon fill="black" stroke="black" points="179.84,-208.74 171.51,-215.28 182.11,-215.36 179.84,-208.74"/>
<text text-anchor="start" x="285.11" y="-129" font-family="Courier New" font-weight="bold" font-size="10.00" fill="blue">LOADVIEW(WIP2,)</text>
</g>
</g>
</svg>
