<?xml version="1.0" encoding="UTF-8" standalone="no"?>
<!DOCTYPE svg PUBLIC "-//W3C//DTD SVG 1.1//EN"
 "http://www.w3.org/Graphics/SVG/1.1/DTD/svg11.dtd">
<!-- Generated by graphviz version 7.1.0 (20230121.1956)
 -->
<!-- Title: Automaton Pages: 1 -->
<svg width="294pt" height="637pt"
 viewBox="0.00 0.00 294.09 637.00" xmlns="http://www.w3.org/2000/svg" xmlns:xlink="http://www.w3.org/1999/xlink">
<g id="graph0" class="graph" transform="scale(1 1) rotate(0) translate(4 633)">
<title>Automaton</title>
<polygon fill="white" stroke="none" points="-4,4 -4,-633 290.09,-633 290.09,4 -4,4"/>
<!-- filename -->
<g id="node1" class="node">
<title>filename</title>
<polygon fill="none" stroke="black" points="14.09,-576.5 14.09,-628.5 132.09,-628.5 132.09,-576.5 14.09,-576.5"/>
<polygon fill="none" stroke="black" points="25.09,-603.5 25.09,-621.5 121.09,-621.5 121.09,-603.5 25.09,-603.5"/>
<text text-anchor="start" x="49.09" y="-610.5" font-family="Courier New" font-weight="bold" font-size="10.00">M_MEMORY</text>
<polygon fill="none" stroke="black" points="25.09,-583.5 25.09,-601.5 121.09,-601.5 121.09,-583.5 25.09,-583.5"/>
<text text-anchor="start" x="28.09" y="-589.5" font-family="Courier New" font-size="10.00" fill="brown">start state = 0</text>
<polygon fill="none" stroke="black" points="22.09,-580.5 22.09,-624.5 124.09,-624.5 124.09,-580.5 22.09,-580.5"/>
</g>
<!-- 0 -->
<g id="node2" class="node">
<title>0</title>
<polyline fill="none" stroke="darkred" points="170.09,-591.5 184.09,-591.5"/>
<text text-anchor="start" x="173.09" y="-598.9" font-family="Courier New" font-weight="bold" font-size="14.00">0</text>
<path fill="none" stroke="darkred" d="M173.76,-588.5C173.76,-588.5 180.43,-588.5 180.43,-588.5 183.76,-588.5 187.09,-591.83 187.09,-595.17 187.09,-595.17 187.09,-609.83 187.09,-609.83 187.09,-613.17 183.76,-616.5 180.43,-616.5 180.43,-616.5 173.76,-616.5 173.76,-616.5 170.43,-616.5 167.09,-613.17 167.09,-609.83 167.09,-609.83 167.09,-595.17 167.09,-595.17 167.09,-591.83 170.43,-588.5 173.76,-588.5"/>
</g>
<!-- 1 -->
<g id="node3" class="node">
<title>1</title>
<polyline fill="none" stroke="darkred" points="83.09,-491 97.09,-491"/>
<text text-anchor="start" x="86.09" y="-498.4" font-family="Courier New" font-weight="bold" font-size="14.00">1</text>
<path fill="none" stroke="darkred" d="M86.76,-488C86.76,-488 93.43,-488 93.43,-488 96.76,-488 100.09,-491.33 100.09,-494.67 100.09,-494.67 100.09,-509.33 100.09,-509.33 100.09,-512.67 96.76,-516 93.43,-516 93.43,-516 86.76,-516 86.76,-516 83.43,-516 80.09,-512.67 80.09,-509.33 80.09,-509.33 80.09,-494.67 80.09,-494.67 80.09,-491.33 83.43,-488 86.76,-488"/>
</g>
<!-- 0&#45;&gt;1 -->
<g id="edge1" class="edge">
<title>0&#45;&gt;1</title>
<path fill="none" stroke="black" d="M153.19,-584.6C143.51,-577.1 132.63,-567.77 124.09,-558 116.6,-549.44 109.71,-539.03 104.13,-529.59"/>
<polygon fill="black" stroke="black" points="107.33,-528.14 99.35,-521.17 101.24,-531.59 107.33,-528.14"/>
<text text-anchor="start" x="128.09" y="-546" font-family="Courier New" font-weight="bold" font-size="10.00" fill="orange">WAIT(,SIG_SHOW)</text>
</g>
<!-- 2 -->
<g id="node4" class="node">
<title>2</title>
<polyline fill="none" stroke="darkred" points="79.09,-399 93.09,-399"/>
<text text-anchor="start" x="82.09" y="-406.4" font-family="Courier New" font-weight="bold" font-size="14.00">2</text>
<path fill="none" stroke="darkred" d="M82.76,-396C82.76,-396 89.43,-396 89.43,-396 92.76,-396 96.09,-399.33 96.09,-402.67 96.09,-402.67 96.09,-417.33 96.09,-417.33 96.09,-420.67 92.76,-424 89.43,-424 89.43,-424 82.76,-424 82.76,-424 79.43,-424 76.09,-420.67 76.09,-417.33 76.09,-417.33 76.09,-402.67 76.09,-402.67 76.09,-399.33 79.43,-396 82.76,-396"/>
</g>
<!-- 1&#45;&gt;2 -->
<g id="edge2" class="edge">
<title>1&#45;&gt;2</title>
<path fill="none" stroke="black" d="M89.34,-484.07C88.78,-471.38 87.99,-453.71 87.33,-438.94"/>
<polygon fill="black" stroke="black" points="90.85,-439.2 86.91,-429.36 83.86,-439.51 90.85,-439.2"/>
<text text-anchor="start" x="93.09" y="-454" font-family="Courier New" font-weight="bold" font-size="10.00" fill="blue">RAND(8,0)</text>
</g>
<!-- 3 -->
<g id="node5" class="node">
<title>3</title>
<polyline fill="none" stroke="darkred" points="51.09,-307 65.09,-307"/>
<text text-anchor="start" x="54.09" y="-314.4" font-family="Courier New" font-weight="bold" font-size="14.00">3</text>
<path fill="none" stroke="darkred" d="M54.76,-304C54.76,-304 61.43,-304 61.43,-304 64.76,-304 68.09,-307.33 68.09,-310.67 68.09,-310.67 68.09,-325.33 68.09,-325.33 68.09,-328.67 64.76,-332 61.43,-332 61.43,-332 54.76,-332 54.76,-332 51.43,-332 48.09,-328.67 48.09,-325.33 48.09,-325.33 48.09,-310.67 48.09,-310.67 48.09,-307.33 51.43,-304 54.76,-304"/>
</g>
<!-- 2&#45;&gt;3 -->
<g id="edge3" class="edge">
<title>2&#45;&gt;3</title>
<path fill="none" stroke="black" d="M80.83,-392.07C76.84,-379.25 71.27,-361.36 66.65,-346.5"/>
<polygon fill="black" stroke="black" points="70.1,-345.81 63.79,-337.3 63.41,-347.89 70.1,-345.81"/>
<text text-anchor="start" x="79.09" y="-362" font-family="Courier New" font-weight="bold" font-size="10.00" fill="blue">MOV(BFRAME,WRAND)</text>
</g>
<!-- 4 -->
<g id="node6" class="node">
<title>4</title>
<polyline fill="none" stroke="darkred" points="28.09,-191 42.09,-191"/>
<text text-anchor="start" x="31.09" y="-198.4" font-family="Courier New" font-weight="bold" font-size="14.00">4</text>
<path fill="none" stroke="darkred" d="M31.76,-188C31.76,-188 38.43,-188 38.43,-188 41.76,-188 45.09,-191.33 45.09,-194.67 45.09,-194.67 45.09,-209.33 45.09,-209.33 45.09,-212.67 41.76,-216 38.43,-216 38.43,-216 31.76,-216 31.76,-216 28.43,-216 25.09,-212.67 25.09,-209.33 25.09,-209.33 25.09,-194.67 25.09,-194.67 25.09,-191.33 28.43,-188 31.76,-188"/>
</g>
<!-- 3&#45;&gt;4 -->
<g id="edge4" class="edge">
<title>3&#45;&gt;4</title>
<path fill="none" stroke="black" d="M31.31,-305.68C21.55,-300.08 11.56,-292.28 6.09,-282 -3.1,-264.74 -0.54,-256.4 6.09,-238 7.2,-234.94 8.7,-231.95 10.44,-229.1"/>
<polygon fill="black" stroke="black" points="13.12,-231.37 16.17,-221.22 7.46,-227.25 13.12,-231.37"/>
<polygon fill="none" stroke="black" points="9.09,-261 9.09,-279 219.09,-279 219.09,-261 9.09,-261"/>
<text text-anchor="start" x="81.09" y="-268" font-family="Courier New" font-weight="bold" font-size="10.00" fill="blue">SHOW(WIP1,)</text>
<polygon fill="none" stroke="black" points="9.09,-241 9.09,-259 219.09,-259 219.09,-241 9.09,-241"/>
<text text-anchor="start" x="12.09" y="-247" font-family="Courier New" font-size="10.00" fill="blue">MOV(BPARM,BFRAME);ASSIGN(WPARM,1);</text>
<polygon fill="none" stroke="black" points="6.09,-238 6.09,-282 222.09,-282 222.09,-238 6.09,-238"/>
</g>
<!-- 5 -->
<g id="node7" class="node">
<title>5</title>
<polyline fill="none" stroke="darkred" points="116.09,-99 130.09,-99"/>
<text text-anchor="start" x="119.09" y="-106.4" font-family="Courier New" font-weight="bold" font-size="14.00">5</text>
<path fill="none" stroke="darkred" d="M119.76,-96C119.76,-96 126.43,-96 126.43,-96 129.76,-96 133.09,-99.33 133.09,-102.67 133.09,-102.67 133.09,-117.33 133.09,-117.33 133.09,-120.67 129.76,-124 126.43,-124 126.43,-124 119.76,-124 119.76,-124 116.43,-124 113.09,-120.67 113.09,-117.33 113.09,-117.33 113.09,-102.67 113.09,-102.67 113.09,-99.33 116.43,-96 119.76,-96"/>
</g>
<!-- 4&#45;&gt;5 -->
<g id="edge5" class="edge">
<title>4&#45;&gt;5</title>
<path fill="none" stroke="black" d="M51.64,-184.07C64.92,-170.5 83.74,-151.24 98.74,-135.91"/>
<polygon fill="black" stroke="black" points="101.07,-138.53 105.56,-128.93 96.06,-133.64 101.07,-138.53"/>
<text text-anchor="start" x="91.09" y="-154" font-family="Courier New" font-weight="bold" font-size="10.00" fill="orange">WAIT(,SIG_HIDE)</text>
</g>
<!-- 6 -->
<g id="node8" class="node">
<title>6</title>
<polyline fill="none" stroke="darkred" points="172.09,-7 186.09,-7"/>
<text text-anchor="start" x="175.09" y="-14.4" font-family="Courier New" font-weight="bold" font-size="14.00">6</text>
<path fill="none" stroke="darkred" d="M175.76,-4C175.76,-4 182.43,-4 182.43,-4 185.76,-4 189.09,-7.33 189.09,-10.67 189.09,-10.67 189.09,-25.33 189.09,-25.33 189.09,-28.67 185.76,-32 182.43,-32 182.43,-32 175.76,-32 175.76,-32 172.43,-32 169.09,-28.67 169.09,-25.33 169.09,-25.33 169.09,-10.67 169.09,-10.67 169.09,-7.33 172.43,-4 175.76,-4"/>
</g>
<!-- 5&#45;&gt;6 -->
<g id="edge6" class="edge">
<title>5&#45;&gt;6</title>
<path fill="none" stroke="black" d="M119.43,-92.04C117.86,-80.58 117.65,-65.49 124.09,-54 128.45,-46.23 135.33,-39.92 142.77,-34.92"/>
<polygon fill="black" stroke="black" points="144.21,-38.14 151.05,-30.04 140.65,-32.11 144.21,-38.14"/>
<text text-anchor="start" x="128.09" y="-62" font-family="Courier New" font-weight="bold" font-size="10.00" fill="blue">CLEAR(WSPRITE,)</text>
</g>
<!-- 6&#45;&gt;0 -->
<g id="edge7" class="edge">
<title>6&#45;&gt;0</title>
<path fill="none" stroke="black" d="M205.35,-35.94C211.61,-41.08 217.74,-47.19 222.09,-54 235.67,-75.26 236.09,-83.78 236.09,-109 236.09,-503 236.09,-503 236.09,-503 236.09,-528.22 234.75,-536.18 222.09,-558 218.14,-564.82 212.81,-571.27 207.2,-577.01"/>
<polygon fill="black" stroke="black" points="204.86,-574.41 200.02,-583.83 209.68,-579.48 204.86,-574.41"/>
<text text-anchor="start" x="240.09" y="-316" font-family="Courier New" font-weight="bold" font-size="10.00" fill="blue">SHOW(,)</text>
</g>
</g>
</svg>
