<?xml version="1.0" encoding="UTF-8" standalone="no"?>
<!DOCTYPE svg PUBLIC "-//W3C//DTD SVG 1.1//EN"
 "http://www.w3.org/Graphics/SVG/1.1/DTD/svg11.dtd">
<!-- Generated by graphviz version 7.1.0 (20230121.1956)
 -->
<!-- Pages: 1 -->
<svg width="290pt" height="454pt"
 viewBox="0.00 0.00 290.00 454.00" xmlns="http://www.w3.org/2000/svg" xmlns:xlink="http://www.w3.org/1999/xlink">
<g id="graph0" class="graph" transform="scale(1 1) rotate(0) translate(4 450)">
<polygon fill="white" stroke="none" points="-4,4 -4,-450 286,-450 286,4 -4,4"/>
<!-- 0 -->
<g id="node1" class="node">
<title>0</title>
<ellipse fill="none" stroke="black" cx="104" cy="-428" rx="27" ry="18"/>
<text text-anchor="middle" x="104" y="-423.8" font-family="Times,serif" font-size="14.00">0</text>
</g>
<!-- 1 -->
<g id="node2" class="node">
<title>1</title>
<ellipse fill="none" stroke="black" cx="37" cy="-336" rx="27" ry="18"/>
<text text-anchor="middle" x="37" y="-331.8" font-family="Times,serif" font-size="14.00">1</text>
</g>
<!-- 0&#45;&gt;1 -->
<g id="edge1" class="edge">
<title>0&#45;&gt;1</title>
<path fill="none" stroke="black" d="M82.75,-416.41C72.75,-410.47 61.43,-402.19 54,-392 48.29,-384.16 44.46,-374.37 41.92,-365.22"/>
<polygon fill="black" stroke="black" points="45.36,-364.59 39.67,-355.65 38.55,-366.19 45.36,-364.59"/>
<text text-anchor="start" x="58" y="-380" font-family="Courier New" font-weight="bold" font-size="10.00" fill="blue">SHOW(0,IDS_BTN_OK)</text>
</g>
<!-- 2 -->
<g id="node3" class="node">
<title>2</title>
<ellipse fill="none" stroke="black" cx="27" cy="-244" rx="27" ry="18"/>
<text text-anchor="middle" x="27" y="-239.8" font-family="Times,serif" font-size="14.00">2</text>
</g>
<!-- 1&#45;&gt;2 -->
<g id="edge2" class="edge">
<title>1&#45;&gt;2</title>
<path fill="none" stroke="black" d="M35.07,-317.65C33.69,-305.2 31.79,-288.14 30.19,-273.68"/>
<polygon fill="black" stroke="black" points="33.67,-273.36 29.09,-263.8 26.72,-274.13 33.67,-273.36"/>
<text text-anchor="start" x="37" y="-288" font-family="Courier New" font-weight="bold" font-size="10.00" fill="orange">CLICK(0,0)</text>
</g>
<!-- 3 -->
<g id="node4" class="node">
<title>3</title>
<ellipse fill="none" stroke="black" cx="40" cy="-131" rx="27" ry="18"/>
<text text-anchor="middle" x="40" y="-126.8" font-family="Times,serif" font-size="14.00">3</text>
</g>
<!-- 2&#45;&gt;3 -->
<g id="edge3" class="edge">
<title>2&#45;&gt;3</title>
<path fill="none" stroke="black" d="M24.79,-225.62C23.28,-210.1 22.18,-186.82 26,-167 26.51,-164.34 27.22,-161.63 28.06,-158.95"/>
<polygon fill="black" stroke="black" points="31.27,-160.36 31.45,-149.76 24.7,-157.93 31.27,-160.36"/>
<polygon fill="none" stroke="black" points="29,-186.5 29,-204.5 167,-204.5 167,-186.5 29,-186.5"/>
<text text-anchor="start" x="32" y="-193.5" font-family="Courier New" font-weight="bold" font-size="10.00" fill="blue">SIGNAL(SIG_CLOSE,WIP1)</text>
<polygon fill="none" stroke="black" points="29,-169.5 29,-184.5 167,-184.5 167,-169.5 29,-169.5"/>
<text text-anchor="start" x="43.55" y="-174.3" font-family="Times,serif" font-size="8.00" fill="blue">PLAYWAVE(SOUND_POPUP);</text>
<polygon fill="none" stroke="black" points="26,-167 26,-208 170,-208 170,-167 26,-167"/>
</g>
<!-- 4 -->
<g id="node5" class="node">
<title>4</title>
<ellipse fill="none" stroke="black" cx="119" cy="-18" rx="27" ry="18"/>
<text text-anchor="middle" x="119" y="-13.8" font-family="Times,serif" font-size="14.00">4</text>
</g>
<!-- 3&#45;&gt;4 -->
<g id="edge4" class="edge">
<title>3&#45;&gt;4</title>
<path fill="none" stroke="black" d="M48.58,-113.64C57.18,-97.8 71.25,-73.4 86,-54 89.16,-49.85 92.74,-45.64 96.34,-41.65"/>
<polygon fill="black" stroke="black" points="98.8,-44.15 103.1,-34.47 93.7,-39.36 98.8,-44.15"/>
<polygon fill="none" stroke="black" points="89,-73.5 89,-91.5 167,-91.5 167,-73.5 89,-73.5"/>
<text text-anchor="start" x="92" y="-80.5" font-family="Courier New" font-weight="bold" font-size="10.00" fill="blue">CLEAR(WIP1,)</text>
<polygon fill="none" stroke="black" points="89,-56.5 89,-71.5 167,-71.5 167,-56.5 89,-56.5"/>
<text text-anchor="start" x="110.45" y="-61.3" font-family="Times,serif" font-size="8.00" fill="blue">SHOW(0);</text>
<polygon fill="none" stroke="black" points="86,-54 86,-95 170,-95 170,-54 86,-54"/>
</g>
<!-- 4&#45;&gt;0 -->
<g id="edge5" class="edge">
<title>4&#45;&gt;0</title>
<path fill="none" stroke="black" d="M140.95,-28.99C151.34,-34.83 162.98,-43.19 170,-54 188.7,-82.81 184,-95.65 184,-130 184,-337 184,-337 184,-337 184,-362.22 185.59,-372.17 170,-392 161.96,-402.23 150.09,-409.81 138.62,-415.26"/>
<polygon fill="black" stroke="black" points="137.53,-411.92 129.72,-419.07 140.29,-418.35 137.53,-411.92"/>
<text text-anchor="start" x="188" y="-242" font-family="Courier New" font-weight="bold" font-size="10.00" fill="blue">LOADVIEW(WIP2,)</text>
</g>
</g>
</svg>
