<?xml version="1.0" encoding="UTF-8" standalone="no"?>
<!DOCTYPE svg PUBLIC "-//W3C//DTD SVG 1.1//EN"
 "http://www.w3.org/Graphics/SVG/1.1/DTD/svg11.dtd">
<!-- Generated by graphviz version 7.1.0 (20230121.1956)
 -->
<!-- Pages: 1 -->
<svg width="251pt" height="1056pt"
 viewBox="0.00 0.00 251.00 1056.00" xmlns="http://www.w3.org/2000/svg" xmlns:xlink="http://www.w3.org/1999/xlink">
<g id="graph0" class="graph" transform="scale(1 1) rotate(0) translate(4 1052)">
<polygon fill="white" stroke="none" points="-4,4 -4,-1052 247,-1052 247,4 -4,4"/>
<!-- 0 -->
<g id="node1" class="node">
<title>0</title>
<ellipse fill="none" stroke="black" cx="88" cy="-1030" rx="27" ry="18"/>
<text text-anchor="middle" x="88" y="-1025.8" font-family="Times,serif" font-size="14.00">0</text>
</g>
<!-- 1 -->
<g id="node2" class="node">
<title>1</title>
<ellipse fill="none" stroke="black" cx="29" cy="-938" rx="27" ry="18"/>
<text text-anchor="middle" x="29" y="-933.8" font-family="Times,serif" font-size="14.00">1</text>
</g>
<!-- 0&#45;&gt;1 -->
<g id="edge1" class="edge">
<title>0&#45;&gt;1</title>
<path fill="none" stroke="black" d="M66.64,-1018.68C56.72,-1012.81 45.66,-1004.51 39,-994 34.01,-986.14 31.36,-976.44 29.99,-967.39"/>
<polygon fill="black" stroke="black" points="33.49,-967.18 29,-957.58 26.52,-967.88 33.49,-967.18"/>
<text text-anchor="start" x="43" y="-982" font-family="Courier New" font-weight="bold" font-size="10.00" fill="orange">WAIT(,SIG_PLAY)</text>
</g>
<!-- 2 -->
<g id="node3" class="node">
<title>2</title>
<ellipse fill="none" stroke="black" cx="27" cy="-846" rx="27" ry="18"/>
<text text-anchor="middle" x="27" y="-841.8" font-family="Times,serif" font-size="14.00">2</text>
</g>
<!-- 1&#45;&gt;2 -->
<g id="edge2" class="edge">
<title>1&#45;&gt;2</title>
<path fill="none" stroke="black" d="M27.81,-919.56C27.48,-913.96 27.16,-907.72 27,-902 26.76,-893.44 26.68,-884.12 26.69,-875.63"/>
<polygon fill="black" stroke="black" points="30.19,-875.87 26.74,-865.86 23.19,-875.84 30.19,-875.87"/>
<text text-anchor="start" x="31" y="-890" font-family="Courier New" font-weight="bold" font-size="10.00" fill="blue">MOV(WSPRITE,WIP1)</text>
</g>
<!-- 3 -->
<g id="node4" class="node">
<title>3</title>
<ellipse fill="none" stroke="black" cx="31" cy="-754" rx="27" ry="18"/>
<text text-anchor="middle" x="31" y="-749.8" font-family="Times,serif" font-size="14.00">3</text>
</g>
<!-- 2&#45;&gt;3 -->
<g id="edge3" class="edge">
<title>2&#45;&gt;3</title>
<path fill="none" stroke="black" d="M27.77,-827.65C28.32,-815.2 29.08,-798.14 29.73,-783.68"/>
<polygon fill="black" stroke="black" points="33.22,-783.96 30.16,-773.81 26.22,-783.65 33.22,-783.96"/>
<text text-anchor="start" x="34" y="-798" font-family="Courier New" font-weight="bold" font-size="10.00" fill="blue">ASHOW(WSPRITE,)</text>
</g>
<!-- 4 -->
<g id="node5" class="node">
<title>4</title>
<ellipse fill="none" stroke="black" cx="32" cy="-662" rx="27" ry="18"/>
<text text-anchor="middle" x="32" y="-657.8" font-family="Times,serif" font-size="14.00">4</text>
</g>
<!-- 3&#45;&gt;4 -->
<g id="edge4" class="edge">
<title>3&#45;&gt;4</title>
<path fill="none" stroke="black" d="M31.19,-735.65C31.33,-723.2 31.52,-706.14 31.68,-691.68"/>
<polygon fill="black" stroke="black" points="35.18,-691.85 31.79,-681.81 28.18,-691.77 35.18,-691.85"/>
<text text-anchor="start" x="36" y="-706" font-family="Courier New" font-weight="bold" font-size="10.00" fill="blue">PLAYWAVE(WIP3,)</text>
</g>
<!-- 7 -->
<g id="node6" class="node">
<title>7</title>
<ellipse fill="none" stroke="black" cx="32" cy="-570" rx="27" ry="18"/>
<text text-anchor="middle" x="32" y="-565.8" font-family="Times,serif" font-size="14.00">7</text>
</g>
<!-- 4&#45;&gt;7 -->
<g id="edge5" class="edge">
<title>4&#45;&gt;7</title>
<path fill="none" stroke="black" d="M32,-643.65C32,-631.2 32,-614.14 32,-599.68"/>
<polygon fill="black" stroke="black" points="35.5,-599.81 32,-589.81 28.5,-599.81 35.5,-599.81"/>
<text text-anchor="start" x="36" y="-614" font-family="Courier New" font-weight="bold" font-size="10.00" fill="blue">ESTIME(,10)</text>
</g>
<!-- 8 -->
<g id="node7" class="node">
<title>8</title>
<ellipse fill="none" stroke="black" cx="32" cy="-478" rx="27" ry="18"/>
<text text-anchor="middle" x="32" y="-473.8" font-family="Times,serif" font-size="14.00">8</text>
</g>
<!-- 7&#45;&gt;8 -->
<g id="edge6" class="edge">
<title>7&#45;&gt;8</title>
<path fill="none" stroke="black" d="M32,-551.65C32,-539.2 32,-522.14 32,-507.68"/>
<polygon fill="black" stroke="black" points="35.5,-507.81 32,-497.81 28.5,-507.81 35.5,-507.81"/>
<text text-anchor="start" x="36" y="-522" font-family="Courier New" font-weight="bold" font-size="10.00" fill="blue">MOV(BFRAME,0)</text>
</g>
<!-- 9 -->
<g id="node8" class="node">
<title>9</title>
<ellipse fill="none" stroke="black" cx="32" cy="-386" rx="27" ry="18"/>
<text text-anchor="middle" x="32" y="-381.8" font-family="Times,serif" font-size="14.00">9</text>
</g>
<!-- 8&#45;&gt;9 -->
<g id="edge7" class="edge">
<title>8&#45;&gt;9</title>
<path fill="none" stroke="black" d="M32,-459.65C32,-447.2 32,-430.14 32,-415.68"/>
<polygon fill="black" stroke="black" points="35.5,-415.81 32,-405.81 28.5,-415.81 35.5,-415.81"/>
<text text-anchor="start" x="36" y="-430" font-family="Courier New" font-weight="bold" font-size="10.00" fill="blue">SHOW(WIP4,)</text>
</g>
<!-- 10 -->
<g id="node9" class="node">
<title>10</title>
<ellipse fill="none" stroke="black" cx="32" cy="-294" rx="27" ry="18"/>
<text text-anchor="middle" x="32" y="-289.8" font-family="Times,serif" font-size="14.00">10</text>
</g>
<!-- 9&#45;&gt;10 -->
<g id="edge8" class="edge">
<title>9&#45;&gt;10</title>
<path fill="none" stroke="black" d="M32,-367.65C32,-355.2 32,-338.14 32,-323.68"/>
<polygon fill="black" stroke="black" points="35.5,-323.81 32,-313.81 28.5,-323.81 35.5,-323.81"/>
<text text-anchor="start" x="36" y="-338" font-family="Courier New" font-weight="bold" font-size="10.00" fill="blue">ANIMATE(0,0)</text>
</g>
<!-- 11 -->
<g id="node10" class="node">
<title>11</title>
<ellipse fill="none" stroke="black" cx="35" cy="-202" rx="27" ry="18"/>
<text text-anchor="middle" x="35" y="-197.8" font-family="Times,serif" font-size="14.00">11</text>
</g>
<!-- 10&#45;&gt;11 -->
<g id="edge9" class="edge">
<title>10&#45;&gt;11</title>
<path fill="none" stroke="black" d="M32.14,-275.66C32.27,-264.83 32.53,-250.6 33,-238 33.08,-235.95 33.17,-233.82 33.27,-231.69"/>
<polygon fill="black" stroke="black" points="36.75,-232.12 33.79,-221.95 29.76,-231.75 36.75,-232.12"/>
<text text-anchor="start" x="37" y="-246" font-family="Courier New" font-weight="bold" font-size="10.00" fill="orange">WAIT(,SIG_CLOSE)</text>
</g>
<!-- 14 -->
<g id="node11" class="node">
<title>14</title>
<ellipse fill="none" stroke="black" cx="53" cy="-110" rx="27" ry="18"/>
<text text-anchor="middle" x="53" y="-105.8" font-family="Times,serif" font-size="14.00">14</text>
</g>
<!-- 11&#45;&gt;14 -->
<g id="edge10" class="edge">
<title>11&#45;&gt;14</title>
<path fill="none" stroke="black" d="M37.95,-183.62C39.85,-172.78 42.43,-158.55 45,-146 45.45,-143.8 45.93,-141.53 46.43,-139.25"/>
<polygon fill="black" stroke="black" points="49.83,-140.06 48.61,-129.53 43,-138.52 49.83,-140.06"/>
<text text-anchor="start" x="49" y="-154" font-family="Courier New" font-weight="bold" font-size="10.00" fill="blue">CLEAR(BFRAME,)</text>
</g>
<!-- 15 -->
<g id="node12" class="node">
<title>15</title>
<ellipse fill="none" stroke="black" cx="106" cy="-18" rx="27" ry="18"/>
<text text-anchor="middle" x="106" y="-13.8" font-family="Times,serif" font-size="14.00">15</text>
</g>
<!-- 14&#45;&gt;15 -->
<g id="edge11" class="edge">
<title>14&#45;&gt;15</title>
<path fill="none" stroke="black" d="M60.7,-92.29C66.01,-81.2 73.44,-66.46 81,-54 83.08,-50.58 85.38,-47.05 87.73,-43.62"/>
<polygon fill="black" stroke="black" points="90.5,-45.76 93.41,-35.58 84.78,-41.72 90.5,-45.76"/>
<text text-anchor="start" x="85" y="-62" font-family="Courier New" font-weight="bold" font-size="10.00" fill="blue">SHOW(0,)</text>
</g>
<!-- 15&#45;&gt;0 -->
<g id="edge12" class="edge">
<title>15&#45;&gt;0</title>
<path fill="none" stroke="black" d="M121.31,-33.14C126.97,-39.09 132.97,-46.4 137,-54 148.81,-76.29 151,-83.78 151,-109 151,-939 151,-939 151,-939 151,-964.22 151.24,-973.18 137,-994 132.21,-1001 125.54,-1007.08 118.65,-1012.12"/>
<polygon fill="black" stroke="black" points="116.95,-1009.05 110.55,-1017.49 120.82,-1014.88 116.95,-1009.05"/>
<text text-anchor="start" x="155" y="-522" font-family="Courier New" font-weight="bold" font-size="10.00" fill="blue">Z_EPSILON(0,0)</text>
</g>
</g>
</svg>
