<?xml version="1.0" encoding="UTF-8" standalone="no"?>
<!DOCTYPE svg PUBLIC "-//W3C//DTD SVG 1.1//EN"
 "http://www.w3.org/Graphics/SVG/1.1/DTD/svg11.dtd">
<!-- Generated by graphviz version 7.1.0 (20230121.1956)
 -->
<!-- Pages: 1 -->
<svg width="343pt" height="763pt"
 viewBox="0.00 0.00 342.62 763.40" xmlns="http://www.w3.org/2000/svg" xmlns:xlink="http://www.w3.org/1999/xlink">
<g id="graph0" class="graph" transform="scale(1 1) rotate(0) translate(4 759.4)">
<polygon fill="white" stroke="none" points="-4,4 -4,-759.4 338.62,-759.4 338.62,4 -4,4"/>
<!-- M_NATURE_0 -->
<g id="node1" class="node">
<title>M_NATURE_0</title>
<polygon fill="none" stroke="black" points="171,-718.9 171,-754.9 277.22,-754.9 277.22,-718.9 171,-718.9"/>
<text text-anchor="middle" x="224.11" y="-732.7" font-family="Times,serif" font-size="14.00">M_NATURE_0</text>
</g>
<!-- M_NATURE_1 -->
<g id="node2" class="node">
<title>M_NATURE_1</title>
<polygon fill="none" stroke="black" points="171,-629.1 171,-665.1 277.22,-665.1 277.22,-629.1 171,-629.1"/>
<text text-anchor="middle" x="224.11" y="-642.9" font-family="Times,serif" font-size="14.00">M_NATURE_1</text>
</g>
<!-- M_NATURE_0&#45;&gt;M_NATURE_1 -->
<g id="edge1" class="edge">
<title>M_NATURE_0&#45;&gt;M_NATURE_1</title>
<path fill="none" stroke="red" d="M224.11,-718.97C224.11,-706.82 224.11,-690.18 224.11,-676.07"/>
<polygon fill="red" stroke="red" points="227.61,-676.49 224.11,-666.49 220.61,-676.49 227.61,-676.49"/>
<text text-anchor="start" x="224.11" y="-688.8" font-family="Times,serif" font-size="14.00" fill="red"> </text>
<text text-anchor="start" x="227.61" y="-688.8" font-family="Courier New" font-size="10.00" fill="red">WAIT(0,SIG_OPEN)</text>
</g>
<!-- M_NATURE_2 -->
<g id="node3" class="node">
<title>M_NATURE_2</title>
<polygon fill="none" stroke="black" points="72,-539.3 72,-575.3 178.22,-575.3 178.22,-539.3 72,-539.3"/>
<text text-anchor="middle" x="125.11" y="-553.1" font-family="Times,serif" font-size="14.00">M_NATURE_2</text>
</g>
<!-- M_NATURE_1&#45;&gt;M_NATURE_2 -->
<g id="edge2" class="edge">
<title>M_NATURE_1&#45;&gt;M_NATURE_2</title>
<path fill="none" stroke="green" d="M205.02,-629.17C190.09,-615.93 169.14,-597.35 152.43,-582.53"/>
<polygon fill="green" stroke="green" points="155.08,-580.2 145.27,-576.18 150.43,-585.43 155.08,-580.2"/>
<text text-anchor="start" x="184.11" y="-599" font-family="Times,serif" font-size="14.00" fill="green"> </text>
<text text-anchor="start" x="187.61" y="-599" font-family="Courier New" font-size="10.00" fill="green">ESTIME(,4)</text>
</g>
<!-- M_NATURE_3 -->
<g id="node4" class="node">
<title>M_NATURE_3</title>
<polygon fill="none" stroke="black" points="10,-449.5 10,-485.5 116.22,-485.5 116.22,-449.5 10,-449.5"/>
<text text-anchor="middle" x="63.11" y="-463.3" font-family="Times,serif" font-size="14.00">M_NATURE_3</text>
</g>
<!-- M_NATURE_2&#45;&gt;M_NATURE_3 -->
<g id="edge3" class="edge">
<title>M_NATURE_2&#45;&gt;M_NATURE_3</title>
<path fill="none" stroke="green" d="M86.42,-539.4C79.04,-534.45 72.19,-528.3 67.58,-520.8 63.17,-513.63 61.36,-504.81 60.85,-496.48"/>
<polygon fill="green" stroke="green" points="64.35,-496.76 60.85,-486.76 57.35,-496.75 64.35,-496.76"/>
<text text-anchor="start" x="68.11" y="-509.2" font-family="Times,serif" font-size="14.00" fill="green"> </text>
<text text-anchor="start" x="71.61" y="-509.2" font-family="Courier New" font-size="10.00" fill="green">SIGNALi(SIG_OPEN,S03_BIRDSFWD)</text>
</g>
<!-- M_NATURE_4 -->
<g id="node5" class="node">
<title>M_NATURE_4</title>
<polygon fill="none" stroke="black" points="0,-359.7 0,-395.7 106.22,-395.7 106.22,-359.7 0,-359.7"/>
<text text-anchor="middle" x="53.11" y="-373.5" font-family="Times,serif" font-size="14.00">M_NATURE_4</text>
</g>
<!-- M_NATURE_3&#45;&gt;M_NATURE_4 -->
<g id="edge4" class="edge">
<title>M_NATURE_3&#45;&gt;M_NATURE_4</title>
<path fill="none" stroke="green" d="M61.18,-449.57C59.8,-437.42 57.9,-420.78 56.3,-406.67"/>
<polygon fill="green" stroke="green" points="59.81,-406.62 55.2,-397.08 52.86,-407.41 59.81,-406.62"/>
<text text-anchor="start" x="59.11" y="-419.4" font-family="Times,serif" font-size="14.00" fill="green"> </text>
<text text-anchor="start" x="62.61" y="-419.4" font-family="Courier New" font-size="10.00" fill="green">ESTIME(10,10)</text>
</g>
<!-- M_NATURE_5 -->
<g id="node6" class="node">
<title>M_NATURE_5</title>
<polygon fill="none" stroke="black" points="3,-269.9 3,-305.9 109.22,-305.9 109.22,-269.9 3,-269.9"/>
<text text-anchor="middle" x="56.11" y="-283.7" font-family="Times,serif" font-size="14.00">M_NATURE_5</text>
</g>
<!-- M_NATURE_4&#45;&gt;M_NATURE_5 -->
<g id="edge5" class="edge">
<title>M_NATURE_4&#45;&gt;M_NATURE_5</title>
<path fill="none" stroke="green" d="M53,-359.73C52.99,-349.5 53.11,-336.19 53.58,-324.4 53.67,-322.04 53.8,-319.59 53.94,-317.13"/>
<polygon fill="green" stroke="green" points="57.42,-317.58 54.59,-307.37 50.43,-317.12 57.42,-317.58"/>
<text text-anchor="start" x="54.11" y="-329.6" font-family="Times,serif" font-size="14.00" fill="green"> </text>
<text text-anchor="start" x="57.61" y="-329.6" font-family="Courier New" font-size="10.00" fill="green">SIGNALi(SIG_OPEN,S03_BIRDSBKWD)</text>
</g>
<!-- M_NATURE_6 -->
<g id="node7" class="node">
<title>M_NATURE_6</title>
<polygon fill="none" stroke="black" points="5,-180.1 5,-216.1 111.22,-216.1 111.22,-180.1 5,-180.1"/>
<text text-anchor="middle" x="58.11" y="-193.9" font-family="Times,serif" font-size="14.00">M_NATURE_6</text>
</g>
<!-- M_NATURE_5&#45;&gt;M_NATURE_6 -->
<g id="edge6" class="edge">
<title>M_NATURE_5&#45;&gt;M_NATURE_6</title>
<path fill="none" stroke="green" d="M56.5,-269.97C56.77,-257.82 57.15,-241.18 57.47,-227.07"/>
<polygon fill="green" stroke="green" points="60.96,-227.57 57.69,-217.49 53.96,-227.41 60.96,-227.57"/>
<text text-anchor="start" x="58.11" y="-239.8" font-family="Times,serif" font-size="14.00" fill="green"> </text>
<text text-anchor="start" x="61.61" y="-239.8" font-family="Courier New" font-size="10.00" fill="green">SIGNALi(SIG_OPEN,S12_BUTTERFLY)</text>
</g>
<!-- M_NATURE_7 -->
<g id="node8" class="node">
<title>M_NATURE_7</title>
<polygon fill="none" stroke="black" points="6,-90.3 6,-126.3 112.22,-126.3 112.22,-90.3 6,-90.3"/>
<text text-anchor="middle" x="59.11" y="-104.1" font-family="Times,serif" font-size="14.00">M_NATURE_7</text>
</g>
<!-- M_NATURE_6&#45;&gt;M_NATURE_7 -->
<g id="edge7" class="edge">
<title>M_NATURE_6&#45;&gt;M_NATURE_7</title>
<path fill="none" stroke="green" d="M58.3,-180.17C58.44,-168.02 58.63,-151.38 58.79,-137.27"/>
<polygon fill="green" stroke="green" points="62.29,-137.73 58.9,-127.69 55.29,-137.65 62.29,-137.73"/>
<text text-anchor="start" x="59.11" y="-150" font-family="Times,serif" font-size="14.00" fill="green"> </text>
<text text-anchor="start" x="62.61" y="-150" font-family="Courier New" font-size="10.00" fill="green">SIGNALi(SIG_RIPEN,S16_GOPABUSH)</text>
</g>
<!-- M_NATURE_8 -->
<g id="node9" class="node">
<title>M_NATURE_8</title>
<polygon fill="none" stroke="black" points="109,-0.5 109,-36.5 215.22,-36.5 215.22,-0.5 109,-0.5"/>
<text text-anchor="middle" x="162.11" y="-14.3" font-family="Times,serif" font-size="14.00">M_NATURE_8</text>
</g>
<!-- M_NATURE_7&#45;&gt;M_NATURE_8 -->
<g id="edge8" class="edge">
<title>M_NATURE_7&#45;&gt;M_NATURE_8</title>
<path fill="none" stroke="green" d="M55.43,-90.62C53.96,-79.48 54.1,-65.07 61.58,-55 70.6,-42.87 84.1,-34.86 98.3,-29.59"/>
<polygon fill="green" stroke="green" points="99.35,-32.93 107.79,-26.53 97.2,-26.26 99.35,-32.93"/>
<text text-anchor="start" x="62.11" y="-60.2" font-family="Times,serif" font-size="14.00" fill="green"> </text>
<text text-anchor="start" x="65.61" y="-60.2" font-family="Courier New" font-size="10.00" fill="green">SIGNALi(SIG_RIPEN,S10_GOPABUSH)</text>
</g>
<!-- M_NATURE_8&#45;&gt;M_NATURE_1 -->
<g id="edge9" class="edge">
<title>M_NATURE_8&#45;&gt;M_NATURE_1</title>
<path fill="none" stroke="green" d="M215.16,-31.52C228.45,-36.79 241.61,-44.31 251.11,-55 267.09,-72.99 265.11,-83.24 265.11,-107.3 265.11,-558.3 265.11,-558.3 265.11,-558.3 265.11,-582.36 261.7,-588.99 251.11,-610.6 249.56,-613.77 247.7,-616.93 245.7,-619.99"/>
<polygon fill="green" stroke="green" points="242.89,-617.9 239.9,-628.07 248.58,-621.99 242.89,-617.9"/>
<text text-anchor="start" x="265.11" y="-329.6" font-family="Times,serif" font-size="14.00" fill="green"> </text>
<text text-anchor="start" x="268.61" y="-329.6" font-family="Courier New" font-size="10.00" fill="green">ESTIME(,20)</text>
</g>
</g>
</svg>
