<?xml version="1.0" encoding="UTF-8" standalone="no"?>
<!DOCTYPE svg PUBLIC "-//W3C//DTD SVG 1.1//EN"
 "http://www.w3.org/Graphics/SVG/1.1/DTD/svg11.dtd">
<!-- Generated by graphviz version 7.1.0 (20230121.1956)
 -->
<!-- Title: Automaton Pages: 1 -->
<svg width="353pt" height="797pt"
 viewBox="0.00 0.00 353.00 797.00" xmlns="http://www.w3.org/2000/svg" xmlns:xlink="http://www.w3.org/1999/xlink">
<g id="graph0" class="graph" transform="scale(1 1) rotate(0) translate(4 793)">
<title>Automaton</title>
<polygon fill="white" stroke="none" points="-4,4 -4,-793 349,-793 349,4 -4,4"/>
<!-- filename -->
<g id="node1" class="node">
<title>filename</title>
<polygon fill="none" stroke="black" points="0,-736.5 0,-788.5 118,-788.5 118,-736.5 0,-736.5"/>
<polygon fill="none" stroke="black" points="11,-763.5 11,-781.5 107,-781.5 107,-763.5 11,-763.5"/>
<text text-anchor="start" x="35" y="-770.5" font-family="Courier New" font-weight="bold" font-size="10.00">M_NATURE</text>
<polygon fill="none" stroke="black" points="11,-743.5 11,-761.5 107,-761.5 107,-743.5 11,-743.5"/>
<text text-anchor="start" x="14" y="-749.5" font-family="Courier New" font-size="10.00" fill="brown">start state = 0</text>
<polygon fill="none" stroke="black" points="8,-740.5 8,-784.5 110,-784.5 110,-740.5 8,-740.5"/>
</g>
<!-- 0 -->
<g id="node2" class="node">
<title>0</title>
<polyline fill="none" stroke="darkred" points="156,-751.5 170,-751.5"/>
<text text-anchor="start" x="159" y="-758.9" font-family="Courier New" font-weight="bold" font-size="14.00">0</text>
<path fill="none" stroke="darkred" d="M159.67,-748.5C159.67,-748.5 166.33,-748.5 166.33,-748.5 169.67,-748.5 173,-751.83 173,-755.17 173,-755.17 173,-769.83 173,-769.83 173,-773.17 169.67,-776.5 166.33,-776.5 166.33,-776.5 159.67,-776.5 159.67,-776.5 156.33,-776.5 153,-773.17 153,-769.83 153,-769.83 153,-755.17 153,-755.17 153,-751.83 156.33,-748.5 159.67,-748.5"/>
</g>
<!-- 1 -->
<g id="node3" class="node">
<title>1</title>
<polyline fill="none" stroke="darkred" points="156,-651 170,-651"/>
<text text-anchor="start" x="159" y="-658.4" font-family="Courier New" font-weight="bold" font-size="14.00">1</text>
<path fill="none" stroke="darkred" d="M159.67,-648C159.67,-648 166.33,-648 166.33,-648 169.67,-648 173,-651.33 173,-654.67 173,-654.67 173,-669.33 173,-669.33 173,-672.67 169.67,-676 166.33,-676 166.33,-676 159.67,-676 159.67,-676 156.33,-676 153,-672.67 153,-669.33 153,-669.33 153,-654.67 153,-654.67 153,-651.33 156.33,-648 159.67,-648"/>
</g>
<!-- 0&#45;&gt;1 -->
<g id="edge1" class="edge">
<title>0&#45;&gt;1</title>
<path fill="none" stroke="black" d="M163,-744.79C163,-730.14 163,-708.55 163,-691.23"/>
<polygon fill="black" stroke="black" points="166.5,-691.3 163,-681.3 159.5,-691.3 166.5,-691.3"/>
<text text-anchor="start" x="167" y="-706" font-family="Courier New" font-weight="bold" font-size="10.00" fill="orange">WAIT(0,SIG_OPEN)</text>
</g>
<!-- 2 -->
<g id="node4" class="node">
<title>2</title>
<polyline fill="none" stroke="darkred" points="84,-559 98,-559"/>
<text text-anchor="start" x="87" y="-566.4" font-family="Courier New" font-weight="bold" font-size="14.00">2</text>
<path fill="none" stroke="darkred" d="M87.67,-556C87.67,-556 94.33,-556 94.33,-556 97.67,-556 101,-559.33 101,-562.67 101,-562.67 101,-577.33 101,-577.33 101,-580.67 97.67,-584 94.33,-584 94.33,-584 87.67,-584 87.67,-584 84.33,-584 81,-580.67 81,-577.33 81,-577.33 81,-562.67 81,-562.67 81,-559.33 84.33,-556 87.67,-556"/>
</g>
<!-- 1&#45;&gt;2 -->
<g id="edge2" class="edge">
<title>1&#45;&gt;2</title>
<path fill="none" stroke="black" d="M149.46,-644.07C138.8,-630.75 123.76,-611.95 111.61,-596.76"/>
<polygon fill="black" stroke="black" points="114.41,-594.66 105.43,-589.03 108.94,-599.03 114.41,-594.66"/>
<text text-anchor="start" x="137" y="-614" font-family="Courier New" font-weight="bold" font-size="10.00" fill="blue">ESTIME(,4)</text>
</g>
<!-- 3 -->
<g id="node5" class="node">
<title>3</title>
<polyline fill="none" stroke="darkred" points="53,-467 67,-467"/>
<text text-anchor="start" x="56" y="-474.4" font-family="Courier New" font-weight="bold" font-size="14.00">3</text>
<path fill="none" stroke="darkred" d="M56.67,-464C56.67,-464 63.33,-464 63.33,-464 66.67,-464 70,-467.33 70,-470.67 70,-470.67 70,-485.33 70,-485.33 70,-488.67 66.67,-492 63.33,-492 63.33,-492 56.67,-492 56.67,-492 53.33,-492 50,-488.67 50,-485.33 50,-485.33 50,-470.67 50,-470.67 50,-467.33 53.33,-464 56.67,-464"/>
</g>
<!-- 2&#45;&gt;3 -->
<g id="edge3" class="edge">
<title>2&#45;&gt;3</title>
<path fill="none" stroke="black" d="M74.1,-552.19C69.7,-546.81 65.5,-540.54 63,-534 59.81,-525.65 58.55,-516.06 58.24,-507.25"/>
<polygon fill="black" stroke="black" points="61.74,-507.45 58.29,-497.43 54.74,-507.41 61.74,-507.45"/>
<text text-anchor="start" x="67" y="-522" font-family="Courier New" font-weight="bold" font-size="10.00" fill="blue">SIGNALi(SIG_OPEN,S03_BIRDSFWD)</text>
</g>
<!-- 4 -->
<g id="node6" class="node">
<title>4</title>
<polyline fill="none" stroke="darkred" points="43,-375 57,-375"/>
<text text-anchor="start" x="46" y="-382.4" font-family="Courier New" font-weight="bold" font-size="14.00">4</text>
<path fill="none" stroke="darkred" d="M46.67,-372C46.67,-372 53.33,-372 53.33,-372 56.67,-372 60,-375.33 60,-378.67 60,-378.67 60,-393.33 60,-393.33 60,-396.67 56.67,-400 53.33,-400 53.33,-400 46.67,-400 46.67,-400 43.33,-400 40,-396.67 40,-393.33 40,-393.33 40,-378.67 40,-378.67 40,-375.33 43.33,-372 46.67,-372"/>
</g>
<!-- 3&#45;&gt;4 -->
<g id="edge4" class="edge">
<title>3&#45;&gt;4</title>
<path fill="none" stroke="black" d="M58.12,-460.07C56.71,-447.38 54.75,-429.71 53.1,-414.94"/>
<polygon fill="black" stroke="black" points="56.62,-414.91 52.04,-405.36 49.67,-415.68 56.62,-414.91"/>
<text text-anchor="start" x="60" y="-430" font-family="Courier New" font-weight="bold" font-size="10.00" fill="blue">ESTIME(10,10)</text>
</g>
<!-- 5 -->
<g id="node7" class="node">
<title>5</title>
<polyline fill="none" stroke="darkred" points="43,-283 57,-283"/>
<text text-anchor="start" x="46" y="-290.4" font-family="Courier New" font-weight="bold" font-size="14.00">5</text>
<path fill="none" stroke="darkred" d="M46.67,-280C46.67,-280 53.33,-280 53.33,-280 56.67,-280 60,-283.33 60,-286.67 60,-286.67 60,-301.33 60,-301.33 60,-304.67 56.67,-308 53.33,-308 53.33,-308 46.67,-308 46.67,-308 43.33,-308 40,-304.67 40,-301.33 40,-301.33 40,-286.67 40,-286.67 40,-283.33 43.33,-280 46.67,-280"/>
</g>
<!-- 4&#45;&gt;5 -->
<g id="edge5" class="edge">
<title>4&#45;&gt;5</title>
<path fill="none" stroke="black" d="M49.42,-368.27C49.25,-362.48 49.09,-355.96 49,-350 48.87,-341.11 48.87,-338.89 49,-330 49.03,-327.77 49.08,-325.45 49.13,-323.13"/>
<polygon fill="black" stroke="black" points="52.62,-323.33 49.39,-313.25 45.62,-323.15 52.62,-323.33"/>
<text text-anchor="start" x="53" y="-338" font-family="Courier New" font-weight="bold" font-size="10.00" fill="blue">SIGNALi(SIG_OPEN,S03_BIRDSBKWD)</text>
</g>
<!-- 6 -->
<g id="node8" class="node">
<title>6</title>
<polyline fill="none" stroke="darkred" points="49,-191 63,-191"/>
<text text-anchor="start" x="52" y="-198.4" font-family="Courier New" font-weight="bold" font-size="14.00">6</text>
<path fill="none" stroke="darkred" d="M52.67,-188C52.67,-188 59.33,-188 59.33,-188 62.67,-188 66,-191.33 66,-194.67 66,-194.67 66,-209.33 66,-209.33 66,-212.67 62.67,-216 59.33,-216 59.33,-216 52.67,-216 52.67,-216 49.33,-216 46,-212.67 46,-209.33 46,-209.33 46,-194.67 46,-194.67 46,-191.33 49.33,-188 52.67,-188"/>
</g>
<!-- 5&#45;&gt;6 -->
<g id="edge6" class="edge">
<title>5&#45;&gt;6</title>
<path fill="none" stroke="black" d="M51.13,-276.07C51.97,-263.38 53.15,-245.71 54.14,-230.94"/>
<polygon fill="black" stroke="black" points="57.6,-231.57 54.78,-221.36 50.62,-231.11 57.6,-231.57"/>
<text text-anchor="start" x="58" y="-246" font-family="Courier New" font-weight="bold" font-size="10.00" fill="blue">SIGNALi(SIG_OPEN,S12_BUTTERFLY)</text>
</g>
<!-- 7 -->
<g id="node9" class="node">
<title>7</title>
<polyline fill="none" stroke="darkred" points="49,-99 63,-99"/>
<text text-anchor="start" x="52" y="-106.4" font-family="Courier New" font-weight="bold" font-size="14.00">7</text>
<path fill="none" stroke="darkred" d="M52.67,-96C52.67,-96 59.33,-96 59.33,-96 62.67,-96 66,-99.33 66,-102.67 66,-102.67 66,-117.33 66,-117.33 66,-120.67 62.67,-124 59.33,-124 59.33,-124 52.67,-124 52.67,-124 49.33,-124 46,-120.67 46,-117.33 46,-117.33 46,-102.67 46,-102.67 46,-99.33 49.33,-96 52.67,-96"/>
</g>
<!-- 6&#45;&gt;7 -->
<g id="edge7" class="edge">
<title>6&#45;&gt;7</title>
<path fill="none" stroke="black" d="M56,-184.07C56,-171.38 56,-153.71 56,-138.94"/>
<polygon fill="black" stroke="black" points="59.5,-139.37 56,-129.37 52.5,-139.37 59.5,-139.37"/>
<text text-anchor="start" x="60" y="-154" font-family="Courier New" font-weight="bold" font-size="10.00" fill="blue">SIGNALi(SIG_RIPEN,S16_GOPABUSH)</text>
</g>
<!-- 8 -->
<g id="node10" class="node">
<title>8</title>
<polyline fill="none" stroke="darkred" points="153,-7 167,-7"/>
<text text-anchor="start" x="156" y="-14.4" font-family="Courier New" font-weight="bold" font-size="14.00">8</text>
<path fill="none" stroke="darkred" d="M156.67,-4C156.67,-4 163.33,-4 163.33,-4 166.67,-4 170,-7.33 170,-10.67 170,-10.67 170,-25.33 170,-25.33 170,-28.67 166.67,-32 163.33,-32 163.33,-32 156.67,-32 156.67,-32 153.33,-32 150,-28.67 150,-25.33 150,-25.33 150,-10.67 150,-10.67 150,-7.33 153.33,-4 156.67,-4"/>
</g>
<!-- 7&#45;&gt;8 -->
<g id="edge8" class="edge">
<title>7&#45;&gt;8</title>
<path fill="none" stroke="black" d="M51.57,-92.01C49.56,-80.23 49.12,-64.8 57,-54 71.8,-33.74 98.97,-25.08 121.69,-21.44"/>
<polygon fill="black" stroke="black" points="122.12,-24.91 131.58,-20.15 121.21,-17.97 122.12,-24.91"/>
<text text-anchor="start" x="61" y="-62" font-family="Courier New" font-weight="bold" font-size="10.00" fill="blue">SIGNALi(SIG_RIPEN,S10_GOPABUSH)</text>
</g>
<!-- 8&#45;&gt;1 -->
<g id="edge9" class="edge">
<title>8&#45;&gt;1</title>
<path fill="none" stroke="black" d="M186.87,-22.6C207.3,-26.74 234.59,-35.53 251,-54 267.75,-72.86 265,-83.78 265,-109 265,-571 265,-571 265,-571 265,-606.76 229.32,-631.7 200.17,-646.11"/>
<polygon fill="black" stroke="black" points="198.76,-642.91 191.17,-650.31 201.71,-649.25 198.76,-642.91"/>
<text text-anchor="start" x="269" y="-338" font-family="Courier New" font-weight="bold" font-size="10.00" fill="blue">ESTIME(,300)</text>
</g>
</g>
</svg>
