<?xml version="1.0" encoding="UTF-8" standalone="no"?>
<!DOCTYPE svg PUBLIC "-//W3C//DTD SVG 1.1//EN"
 "http://www.w3.org/Graphics/SVG/1.1/DTD/svg11.dtd">
<!-- Generated by graphviz version 7.1.0 (20230121.1956)
 -->
<!-- Pages: 1 -->
<svg width="354pt" height="702pt"
 viewBox="0.00 0.00 354.00 702.00" xmlns="http://www.w3.org/2000/svg" xmlns:xlink="http://www.w3.org/1999/xlink">
<g id="graph0" class="graph" transform="scale(1 1) rotate(0) translate(4 698)">
<polygon fill="white" stroke="none" points="-4,4 -4,-698 350,-698 350,4 -4,4"/>
<!-- 0 -->
<g id="node1" class="node">
<title>0</title>
<ellipse fill="none" stroke="black" cx="150" cy="-676" rx="27" ry="18"/>
<text text-anchor="middle" x="150" y="-671.8" font-family="Times,serif" font-size="14.00">0</text>
</g>
<!-- 1 -->
<g id="node2" class="node">
<title>1</title>
<ellipse fill="none" stroke="black" cx="150" cy="-582" rx="27" ry="18"/>
<text text-anchor="middle" x="150" y="-577.8" font-family="Times,serif" font-size="14.00">1</text>
</g>
<!-- 0&#45;&gt;1 -->
<g id="edge1" class="edge">
<title>0&#45;&gt;1</title>
<path fill="none" stroke="black" d="M150,-657.7C150,-644.72 150,-626.66 150,-611.56"/>
<polygon fill="black" stroke="black" points="153.5,-611.74 150,-601.74 146.5,-611.74 153.5,-611.74"/>
<text text-anchor="start" x="154" y="-626.2" font-family="Courier New" font-weight="bold" font-size="12.00" fill="orange">WAIT(0SIG_OPEN)</text>
</g>
<!-- 2 -->
<g id="node3" class="node">
<title>2</title>
<ellipse fill="none" stroke="black" cx="71" cy="-488" rx="27" ry="18"/>
<text text-anchor="middle" x="71" y="-483.8" font-family="Times,serif" font-size="14.00">2</text>
</g>
<!-- 1&#45;&gt;2 -->
<g id="edge2" class="edge">
<title>1&#45;&gt;2</title>
<path fill="none" stroke="black" d="M136.95,-565.81C124.6,-551.43 105.87,-529.61 91.52,-512.89"/>
<polygon fill="black" stroke="black" points="94.22,-510.67 85.05,-505.36 88.91,-515.23 94.22,-510.67"/>
<text text-anchor="start" x="124" y="-532.2" font-family="Courier New" font-weight="bold" font-size="12.00" fill="blue">ESTIME(4)</text>
</g>
<!-- 3 -->
<g id="node4" class="node">
<title>3</title>
<ellipse fill="none" stroke="black" cx="34" cy="-394" rx="27" ry="18"/>
<text text-anchor="middle" x="34" y="-389.8" font-family="Times,serif" font-size="14.00">3</text>
</g>
<!-- 2&#45;&gt;3 -->
<g id="edge3" class="edge">
<title>2&#45;&gt;3</title>
<path fill="none" stroke="black" d="M53.14,-473.97C46.51,-468.07 39.7,-460.51 36,-452 32.17,-443.19 30.95,-432.87 30.92,-423.45"/>
<polygon fill="black" stroke="black" points="34.41,-423.83 31.34,-413.69 27.42,-423.53 34.41,-423.83"/>
<text text-anchor="start" x="40" y="-438.2" font-family="Courier New" font-weight="bold" font-size="12.00" fill="blue">SIGNALi(SIG_OPENS03_BIRDSFWD)</text>
</g>
<!-- 4 -->
<g id="node5" class="node">
<title>4</title>
<ellipse fill="none" stroke="black" cx="28" cy="-300" rx="27" ry="18"/>
<text text-anchor="middle" x="28" y="-295.8" font-family="Times,serif" font-size="14.00">4</text>
</g>
<!-- 3&#45;&gt;4 -->
<g id="edge4" class="edge">
<title>3&#45;&gt;4</title>
<path fill="none" stroke="black" d="M32.87,-375.7C32.03,-362.72 30.85,-344.66 29.86,-329.56"/>
<polygon fill="black" stroke="black" points="33.37,-329.49 29.22,-319.74 26.38,-329.94 33.37,-329.49"/>
<text text-anchor="start" x="36" y="-344.2" font-family="Courier New" font-weight="bold" font-size="12.00" fill="blue">ESTIME(1010)</text>
</g>
<!-- 5 -->
<g id="node6" class="node">
<title>5</title>
<ellipse fill="none" stroke="black" cx="27" cy="-206" rx="27" ry="18"/>
<text text-anchor="middle" x="27" y="-201.8" font-family="Times,serif" font-size="14.00">5</text>
</g>
<!-- 4&#45;&gt;5 -->
<g id="edge5" class="edge">
<title>4&#45;&gt;5</title>
<path fill="none" stroke="black" d="M27.81,-281.7C27.67,-268.72 27.47,-250.66 27.31,-235.56"/>
<polygon fill="black" stroke="black" points="30.81,-235.7 27.2,-225.74 23.81,-235.78 30.81,-235.7"/>
<text text-anchor="start" x="32" y="-250.2" font-family="Courier New" font-weight="bold" font-size="12.00" fill="blue">SIGNALi(SIG_OPENS03_BIRDSBKWD)</text>
</g>
<!-- 6 -->
<g id="node7" class="node">
<title>6</title>
<ellipse fill="none" stroke="black" cx="27" cy="-112" rx="27" ry="18"/>
<text text-anchor="middle" x="27" y="-107.8" font-family="Times,serif" font-size="14.00">6</text>
</g>
<!-- 5&#45;&gt;6 -->
<g id="edge6" class="edge">
<title>5&#45;&gt;6</title>
<path fill="none" stroke="black" d="M27,-187.7C27,-174.72 27,-156.66 27,-141.56"/>
<polygon fill="black" stroke="black" points="30.5,-141.74 27,-131.74 23.5,-141.74 30.5,-141.74"/>
<text text-anchor="start" x="31" y="-156.2" font-family="Courier New" font-weight="bold" font-size="12.00" fill="blue">SIGNALi(SIG_OPENS12_BUTTERFLY)</text>
</g>
<!-- 7 -->
<g id="node8" class="node">
<title>7</title>
<ellipse fill="none" stroke="black" cx="146" cy="-18" rx="27" ry="18"/>
<text text-anchor="middle" x="146" y="-13.8" font-family="Times,serif" font-size="14.00">7</text>
</g>
<!-- 6&#45;&gt;7 -->
<g id="edge7" class="edge">
<title>6&#45;&gt;7</title>
<path fill="none" stroke="black" d="M22.36,-93.81C20.12,-81.5 19.49,-65.19 28,-54 46.31,-29.92 80.44,-21.77 107.31,-19.29"/>
<polygon fill="black" stroke="black" points="107.43,-22.79 117.18,-18.63 106.96,-15.81 107.43,-22.79"/>
<text text-anchor="start" x="32" y="-62.2" font-family="Courier New" font-weight="bold" font-size="12.00" fill="blue">SIGNALi(SIG_RIPENS16_GOPABUSH)</text>
</g>
<!-- 7&#45;&gt;1 -->
<g id="edge8" class="edge">
<title>7&#45;&gt;1</title>
<path fill="none" stroke="black" d="M172.96,-20.75C197.05,-23.77 231.6,-31.95 252,-54 269.71,-73.15 266,-84.91 266,-111 266,-489 266,-489 266,-489 266,-530.86 219.05,-556.7 184.88,-569.95"/>
<polygon fill="black" stroke="black" points="183.93,-566.58 175.74,-573.3 186.33,-573.15 183.93,-566.58"/>
<text text-anchor="start" x="270" y="-297.2" font-family="Courier New" font-weight="bold" font-size="12.00" fill="blue">ESTIME(20)</text>
</g>
</g>
</svg>
