<?xml version="1.0" encoding="UTF-8" standalone="no"?>
<!DOCTYPE svg PUBLIC "-//W3C//DTD SVG 1.1//EN"
 "http://www.w3.org/Graphics/SVG/1.1/DTD/svg11.dtd">
<!-- Generated by graphviz version 7.1.0 (20230121.1956)
 -->
<!-- Pages: 1 -->
<svg width="757pt" height="702pt"
 viewBox="0.00 0.00 756.90 702.00" xmlns="http://www.w3.org/2000/svg" xmlns:xlink="http://www.w3.org/1999/xlink">
<g id="graph0" class="graph" transform="scale(1 1) rotate(0) translate(4 698)">
<polygon fill="white" stroke="none" points="-4,4 -4,-698 752.9,-698 752.9,4 -4,4"/>
<!-- 0 -->
<g id="node1" class="node">
<title>0</title>
<ellipse fill="none" stroke="black" cx="308.9" cy="-676" rx="27" ry="18"/>
<text text-anchor="middle" x="308.9" y="-671.8" font-family="Times,serif" font-size="14.00">0</text>
</g>
<!-- 2 -->
<g id="node2" class="node">
<title>2</title>
<ellipse fill="none" stroke="black" cx="133.9" cy="-582" rx="27" ry="18"/>
<text text-anchor="middle" x="133.9" y="-577.8" font-family="Times,serif" font-size="14.00">2</text>
</g>
<!-- 0&#45;&gt;2 -->
<g id="edge1" class="edge">
<title>0&#45;&gt;2</title>
<path fill="none" stroke="black" d="M281.68,-673.87C210.86,-670.67 25.04,-660.37 6.9,-640 -21.33,-608.31 48.93,-593.27 95.85,-586.96"/>
<polygon fill="black" stroke="black" points="96.21,-590.44 105.69,-585.72 95.34,-583.49 96.21,-590.44"/>
<text text-anchor="start" x="10.9" y="-626.2" font-family="Courier New" font-weight="bold" font-size="12.00" fill="orange">WAIT(0,SIG_ADD)</text>
</g>
<!-- 0&#45;&gt;2 -->
<g id="edge4" class="edge">
<title>0&#45;&gt;2</title>
<path fill="none" stroke="black" d="M281.51,-675.21C249.51,-674.06 196.54,-667.67 161.9,-640 152.63,-632.6 146.2,-621.34 141.87,-610.79"/>
<polygon fill="black" stroke="black" points="145.26,-609.88 138.59,-601.65 138.67,-612.25 145.26,-609.88"/>
<text text-anchor="start" x="165.9" y="-626.2" font-family="Courier New" font-weight="bold" font-size="12.00" fill="orange">WAIT(0,0)</text>
</g>
<!-- 3 -->
<g id="node3" class="node">
<title>3</title>
<ellipse fill="none" stroke="black" cx="261.9" cy="-582" rx="27" ry="18"/>
<text text-anchor="middle" x="261.9" y="-577.8" font-family="Times,serif" font-size="14.00">3</text>
</g>
<!-- 0&#45;&gt;3 -->
<g id="edge2" class="edge">
<title>0&#45;&gt;3</title>
<path fill="none" stroke="black" d="M283.6,-669.08C268.36,-664.07 250.16,-655.19 240.9,-640 234.88,-630.14 237.86,-618.29 243.23,-607.95"/>
<polygon fill="black" stroke="black" points="246.14,-609.9 248.37,-599.54 240.17,-606.25 246.14,-609.9"/>
<text text-anchor="start" x="244.9" y="-626.2" font-family="Courier New" font-weight="bold" font-size="12.00" fill="orange">WAIT(0,SIG_SUB)</text>
</g>
<!-- 30 -->
<g id="node4" class="node">
<title>30</title>
<ellipse fill="none" stroke="black" cx="455.9" cy="-582" rx="27" ry="18"/>
<text text-anchor="middle" x="455.9" y="-577.8" font-family="Times,serif" font-size="14.00">30</text>
</g>
<!-- 0&#45;&gt;30 -->
<g id="edge3" class="edge">
<title>0&#45;&gt;30</title>
<path fill="none" stroke="black" d="M327.11,-662.58C336.26,-656.13 347.4,-647.94 356.9,-640 367.75,-630.92 368.2,-625.96 379.9,-618 392.88,-609.17 408.45,-601.55 422.11,-595.7"/>
<polygon fill="black" stroke="black" points="423.25,-599.02 431.16,-591.98 420.58,-592.55 423.25,-599.02"/>
<text text-anchor="start" x="383.9" y="-626.2" font-family="Courier New" font-weight="bold" font-size="12.00" fill="orange">WAIT(0,SIG_CLEAR)</text>
</g>
<!-- 4 -->
<g id="node5" class="node">
<title>4</title>
<ellipse fill="none" stroke="black" cx="272.9" cy="-488" rx="27" ry="18"/>
<text text-anchor="middle" x="272.9" y="-483.8" font-family="Times,serif" font-size="14.00">4</text>
</g>
<!-- 2&#45;&gt;4 -->
<g id="edge5" class="edge">
<title>2&#45;&gt;4</title>
<path fill="none" stroke="black" d="M133.4,-563.62C133.99,-551.06 136.88,-534.5 146.9,-524 169.32,-500.5 206.03,-492.34 234.06,-489.71"/>
<polygon fill="black" stroke="black" points="234.24,-493.2 243.96,-489 233.74,-486.22 234.24,-493.2"/>
<text text-anchor="start" x="150.9" y="-532.2" font-family="Courier New" font-weight="bold" font-size="12.00" fill="blue">ASSIGN(WPARM,0)</text>
</g>
<!-- 3&#45;&gt;4 -->
<g id="edge6" class="edge">
<title>3&#45;&gt;4</title>
<path fill="none" stroke="black" d="M263.97,-563.7C265.52,-550.72 267.68,-532.66 269.48,-517.56"/>
<polygon fill="black" stroke="black" points="272.94,-518.07 270.66,-507.73 265.99,-517.24 272.94,-518.07"/>
<text text-anchor="start" x="273.4" y="-532.2" font-family="Courier New" font-weight="bold" font-size="12.00" fill="blue">ASSIGN(WPARM,V_REVERSE)</text>
</g>
<!-- 30&#45;&gt;0 -->
<g id="edge7" class="edge">
<title>30&#45;&gt;0</title>
<path fill="none" stroke="black" d="M479.16,-591.75C490.61,-597.38 503.33,-605.93 509.9,-618 514.57,-626.59 516.19,-632.52 509.9,-640 489.55,-664.2 399.86,-671.67 347.41,-673.97"/>
<polygon fill="black" stroke="black" points="347.57,-670.46 337.71,-674.35 347.84,-677.46 347.57,-670.46"/>
<text text-anchor="start" x="517.9" y="-626.2" font-family="Courier New" font-weight="bold" font-size="12.00" fill="blue">SHOW(0,0)</text>
</g>
<!-- 5 -->
<g id="node6" class="node">
<title>5</title>
<ellipse fill="none" stroke="black" cx="370.9" cy="-394" rx="27" ry="18"/>
<text text-anchor="middle" x="370.9" y="-389.8" font-family="Times,serif" font-size="14.00">5</text>
</g>
<!-- 4&#45;&gt;5 -->
<g id="edge8" class="edge">
<title>4&#45;&gt;5</title>
<path fill="none" stroke="black" d="M287.78,-473.03C303.68,-458.1 329.1,-434.24 347.64,-416.83"/>
<polygon fill="black" stroke="black" points="349.87,-419.54 354.77,-410.14 345.08,-414.43 349.87,-419.54"/>
<text text-anchor="start" x="336.9" y="-438.2" font-family="Courier New" font-weight="bold" font-size="12.00" fill="blue">MOV(WSPRITE,OENERGY)</text>
</g>
<!-- 6 -->
<g id="node7" class="node">
<title>6</title>
<ellipse fill="none" stroke="black" cx="424.9" cy="-300" rx="27" ry="18"/>
<text text-anchor="middle" x="424.9" y="-295.8" font-family="Times,serif" font-size="14.00">6</text>
</g>
<!-- 5&#45;&gt;6 -->
<g id="edge9" class="edge">
<title>5&#45;&gt;6</title>
<path fill="none" stroke="black" d="M380.3,-376.97C388.38,-363.21 400.19,-343.1 409.62,-327.02"/>
<polygon fill="black" stroke="black" points="412.61,-328.85 414.65,-318.46 406.57,-325.31 412.61,-328.85"/>
<text text-anchor="start" x="408.4" y="-344.2" font-family="Courier New" font-weight="bold" font-size="12.00" fill="blue">MODI(WSPRITE,MAX_AURAS)</text>
</g>
<!-- 7 -->
<g id="node8" class="node">
<title>7</title>
<ellipse fill="none" stroke="black" cx="434.9" cy="-206" rx="27" ry="18"/>
<text text-anchor="middle" x="434.9" y="-201.8" font-family="Times,serif" font-size="14.00">7</text>
</g>
<!-- 6&#45;&gt;7 -->
<g id="edge10" class="edge">
<title>6&#45;&gt;7</title>
<path fill="none" stroke="black" d="M426.78,-281.7C428.19,-268.72 430.15,-250.66 431.79,-235.56"/>
<polygon fill="black" stroke="black" points="435.26,-236.05 432.86,-225.73 428.3,-235.29 435.26,-236.05"/>
<text text-anchor="start" x="435.4" y="-250.2" font-family="Courier New" font-weight="bold" font-size="12.00" fill="blue">ADDI(WSPRITE,IDS_AURA1)</text>
</g>
<!-- 8 -->
<g id="node9" class="node">
<title>8</title>
<ellipse fill="none" stroke="black" cx="476.9" cy="-112" rx="27" ry="18"/>
<text text-anchor="middle" x="476.9" y="-107.8" font-family="Times,serif" font-size="14.00">8</text>
</g>
<!-- 7&#45;&gt;8 -->
<g id="edge11" class="edge">
<title>7&#45;&gt;8</title>
<path fill="none" stroke="black" d="M442.4,-188.55C448.58,-175.03 457.45,-155.6 464.65,-139.83"/>
<polygon fill="black" stroke="black" points="467.71,-141.54 468.68,-130.99 461.35,-138.64 467.71,-141.54"/>
<text text-anchor="start" x="463.9" y="-156.2" font-family="Courier New" font-weight="bold" font-size="12.00" fill="blue">SHOW(WSPRITE,)</text>
</g>
<!-- 9 -->
<g id="node10" class="node">
<title>9</title>
<ellipse fill="none" stroke="black" cx="548.9" cy="-18" rx="27" ry="18"/>
<text text-anchor="middle" x="548.9" y="-13.8" font-family="Times,serif" font-size="14.00">9</text>
</g>
<!-- 8&#45;&gt;9 -->
<g id="edge12" class="edge">
<title>8&#45;&gt;9</title>
<path fill="none" stroke="black" d="M476.95,-93.57C477.8,-81.45 480.61,-65.48 488.9,-54 495.55,-44.78 505.44,-37.61 515.27,-32.22"/>
<polygon fill="black" stroke="black" points="516.59,-35.47 524.01,-27.91 513.5,-29.2 516.59,-35.47"/>
<text text-anchor="start" x="492.9" y="-62.2" font-family="Courier New" font-weight="bold" font-size="12.00" fill="blue">ANIMATE(WPARM,)</text>
</g>
<!-- 9&#45;&gt;0 -->
<g id="edge13" class="edge">
<title>9&#45;&gt;0</title>
<path fill="none" stroke="black" d="M571.56,-28.13C583.16,-33.91 596.56,-42.48 604.9,-54 620.19,-75.13 618.9,-84.91 618.9,-111 618.9,-583 618.9,-583 618.9,-583 618.9,-611.42 613.16,-623.67 589.9,-640 551.65,-666.85 415.27,-673.12 347.58,-674.57"/>
<polygon fill="black" stroke="black" points="347.61,-671.07 337.68,-674.76 347.75,-678.07 347.61,-671.07"/>
<text text-anchor="start" x="622.9" y="-344.2" font-family="Courier New" font-weight="bold" font-size="12.00" fill="blue">SIGNALi(0,SOD_ID)</text>
</g>
</g>
</svg>
