<?xml version="1.0" encoding="UTF-8" standalone="no"?>
<!DOCTYPE svg PUBLIC "-//W3C//DTD SVG 1.1//EN"
 "http://www.w3.org/Graphics/SVG/1.1/DTD/svg11.dtd">
<!-- Generated by graphviz version 7.1.0 (20230121.1956)
 -->
<!-- Pages: 1 -->
<svg width="207pt" height="135pt"
 viewBox="0.00 0.00 206.80 134.80" xmlns="http://www.w3.org/2000/svg" xmlns:xlink="http://www.w3.org/1999/xlink">
<g id="graph0" class="graph" transform="scale(1 1) rotate(0) translate(4 130.8)">
<polygon fill="white" stroke="none" points="-4,4 -4,-130.8 202.8,-130.8 202.8,4 -4,4"/>
<!-- M_O_IDSPELL_0 -->
<g id="node1" class="node">
<title>M_O_IDSPELL_0</title>
<polygon fill="none" stroke="black" points="0,-90.3 0,-126.3 122.56,-126.3 122.56,-90.3 0,-90.3"/>
<text text-anchor="middle" x="61.28" y="-104.1" font-family="Times,serif" font-size="14.00">M_O_IDSPELL_0</text>
</g>
<!-- M_O_IDSPELL_1 -->
<g id="node2" class="node">
<title>M_O_IDSPELL_1</title>
<polygon fill="none" stroke="black" points="0,-0.5 0,-36.5 122.56,-36.5 122.56,-0.5 0,-0.5"/>
<text text-anchor="middle" x="61.28" y="-14.3" font-family="Times,serif" font-size="14.00">M_O_IDSPELL_1</text>
</g>
<!-- M_O_IDSPELL_0&#45;&gt;M_O_IDSPELL_1 -->
<g id="edge1" class="edge">
<title>M_O_IDSPELL_0&#45;&gt;M_O_IDSPELL_1</title>
<path fill="none" stroke="red" d="M37.04,-90.6C31.28,-85.32 25.91,-78.96 22.77,-71.8 18.62,-62.32 22.39,-52.91 28.95,-44.75"/>
<polygon fill="red" stroke="red" points="31.47,-47.17 35.86,-37.52 26.42,-42.33 31.47,-47.17"/>
<text text-anchor="start" x="23.28" y="-60.2" font-family="Times,serif" font-size="14.00" fill="red"> </text>
<text text-anchor="start" x="26.78" y="-60.2" font-family="Courier New" font-size="10.00" fill="red">DROP(0,0)</text>
</g>
<!-- M_O_IDSPELL_1&#45;&gt;M_O_IDSPELL_0 -->
<g id="edge2" class="edge">
<title>M_O_IDSPELL_1&#45;&gt;M_O_IDSPELL_0</title>
<path fill="none" stroke="green" d="M72.56,-36.5C75.69,-42.15 78.68,-48.63 80.28,-55 82.1,-62.24 82.1,-64.56 80.28,-71.8 79.58,-74.59 78.62,-77.4 77.49,-80.15"/>
<polygon fill="green" stroke="green" points="74.44,-78.42 73.22,-88.94 80.73,-81.47 74.44,-78.42"/>
<text text-anchor="start" x="81.28" y="-60.2" font-family="Times,serif" font-size="14.00" fill="green"> </text>
<text text-anchor="start" x="84.78" y="-60.2" font-family="Courier New" font-size="10.00" fill="green">SPELL_YOU(WOBJECT,)</text>
</g>
</g>
</svg>
