<?xml version="1.0" encoding="UTF-8" standalone="no"?>
<!DOCTYPE svg PUBLIC "-//W3C//DTD SVG 1.1//EN"
 "http://www.w3.org/Graphics/SVG/1.1/DTD/svg11.dtd">
<!-- Generated by graphviz version 7.1.0 (20230121.1956)
 -->
<!-- Pages: 1 -->
<svg width="157pt" height="138pt"
 viewBox="0.00 0.00 157.26 138.00" xmlns="http://www.w3.org/2000/svg" xmlns:xlink="http://www.w3.org/1999/xlink">
<g id="graph0" class="graph" transform="scale(1 1) rotate(0) translate(4 134)">
<polygon fill="white" stroke="none" points="-4,4 -4,-134 153.26,-134 153.26,4 -4,4"/>
<!-- 0 -->
<g id="node1" class="node">
<title>0</title>
<ellipse fill="none" stroke="black" cx="49.26" cy="-112" rx="27" ry="18"/>
<text text-anchor="middle" x="49.26" y="-107.8" font-family="Times,serif" font-size="14.00">0</text>
</g>
<!-- 1 -->
<g id="node2" class="node">
<title>1</title>
<ellipse fill="none" stroke="black" cx="49.26" cy="-18" rx="27" ry="18"/>
<text text-anchor="middle" x="49.26" y="-13.8" font-family="Times,serif" font-size="14.00">1</text>
</g>
<!-- 0&#45;&gt;1 -->
<g id="edge1" class="edge">
<title>0&#45;&gt;1</title>
<path fill="none" stroke="black" d="M28.15,-100.7C18.7,-94.87 8.52,-86.61 3.26,-76 -1.09,-67.24 -1.09,-62.76 3.26,-54 6.79,-46.87 12.55,-40.8 18.81,-35.82"/>
<polygon fill="black" stroke="black" points="20.71,-38.76 26.91,-30.16 16.71,-33.02 20.71,-38.76"/>
<text text-anchor="start" x="7.26" y="-62.2" font-family="Courier New" font-weight="bold" font-size="12.00" fill="orange">GRAB(0,0)</text>
</g>
<!-- 0&#45;&gt;1 -->
<g id="edge2" class="edge">
<title>0&#45;&gt;1</title>
<path fill="none" stroke="black" d="M63.53,-96.2C68.21,-90.38 72.83,-83.33 75.26,-76 78.33,-66.72 78.33,-63.28 75.26,-54 74.01,-50.22 72.17,-46.52 70.05,-43.02"/>
<polygon fill="black" stroke="black" points="73.04,-41.18 64.4,-35.04 67.32,-45.22 73.04,-41.18"/>
<text text-anchor="start" x="81.26" y="-62.2" font-family="Courier New" font-weight="bold" font-size="12.00" fill="orange">WAIT(0,0)</text>
</g>
</g>
</svg>
