<?xml version="1.0" encoding="UTF-8" standalone="no"?>
<!DOCTYPE svg PUBLIC "-//W3C//DTD SVG 1.1//EN"
 "http://www.w3.org/Graphics/SVG/1.1/DTD/svg11.dtd">
<!-- Generated by graphviz version 7.1.0 (20230121.1956)
 -->
<!-- Title: Automaton Pages: 1 -->
<svg width="317pt" height="245pt"
 viewBox="0.00 0.00 317.00 245.00" xmlns="http://www.w3.org/2000/svg" xmlns:xlink="http://www.w3.org/1999/xlink">
<g id="graph0" class="graph" transform="scale(1 1) rotate(0) translate(4 241)">
<title>Automaton</title>
<polygon fill="white" stroke="none" points="-4,4 -4,-241 313,-241 313,4 -4,4"/>
<!-- filename -->
<g id="node1" class="node">
<title>filename</title>
<polygon fill="none" stroke="black" points="0,-184.5 0,-236.5 118,-236.5 118,-184.5 0,-184.5"/>
<polygon fill="none" stroke="black" points="11,-211.5 11,-229.5 107,-229.5 107,-211.5 11,-211.5"/>
<text text-anchor="start" x="25.99" y="-218.5" font-family="Courier New" font-weight="bold" font-size="10.00">M_OBJECTMAP</text>
<polygon fill="none" stroke="black" points="11,-191.5 11,-209.5 107,-209.5 107,-191.5 11,-191.5"/>
<text text-anchor="start" x="14" y="-197.5" font-family="Courier New" font-size="10.00" fill="brown">start state = 0</text>
<polygon fill="none" stroke="black" points="8,-188.5 8,-232.5 110,-232.5 110,-188.5 8,-188.5"/>
</g>
<!-- 0 -->
<g id="node2" class="node">
<title>0</title>
<polyline fill="none" stroke="darkred" points="156,-199.5 170,-199.5"/>
<text text-anchor="start" x="159" y="-206.9" font-family="Courier New" font-weight="bold" font-size="14.00">0</text>
<path fill="none" stroke="darkred" d="M159.67,-196.5C159.67,-196.5 166.33,-196.5 166.33,-196.5 169.67,-196.5 173,-199.83 173,-203.17 173,-203.17 173,-217.83 173,-217.83 173,-221.17 169.67,-224.5 166.33,-224.5 166.33,-224.5 159.67,-224.5 159.67,-224.5 156.33,-224.5 153,-221.17 153,-217.83 153,-217.83 153,-203.17 153,-203.17 153,-199.83 156.33,-196.5 159.67,-196.5"/>
</g>
<!-- 1 -->
<g id="node3" class="node">
<title>1</title>
<polyline fill="none" stroke="darkred" points="102,-99 116,-99"/>
<text text-anchor="start" x="105" y="-106.4" font-family="Courier New" font-weight="bold" font-size="14.00">1</text>
<path fill="none" stroke="darkred" d="M105.67,-96C105.67,-96 112.33,-96 112.33,-96 115.67,-96 119,-99.33 119,-102.67 119,-102.67 119,-117.33 119,-117.33 119,-120.67 115.67,-124 112.33,-124 112.33,-124 105.67,-124 105.67,-124 102.33,-124 99,-120.67 99,-117.33 99,-117.33 99,-102.67 99,-102.67 99,-99.33 102.33,-96 105.67,-96"/>
</g>
<!-- 0&#45;&gt;1 -->
<g id="edge1" class="edge">
<title>0&#45;&gt;1</title>
<path fill="none" stroke="black" d="M144.62,-192.75C137.29,-185.21 129.34,-175.8 124,-166 119.46,-157.66 116.21,-147.84 113.93,-138.83"/>
<polygon fill="black" stroke="black" points="117.36,-138.13 111.79,-129.12 110.53,-139.64 117.36,-138.13"/>
<text text-anchor="start" x="128" y="-154" font-family="Courier New" font-weight="bold" font-size="10.00" fill="orange">DRAG(WIP1,)</text>
</g>
<!-- 2 -->
<g id="node4" class="node">
<title>2</title>
<polyline fill="none" stroke="darkred" points="151,-7 165,-7"/>
<text text-anchor="start" x="154" y="-14.4" font-family="Courier New" font-weight="bold" font-size="14.00">2</text>
<path fill="none" stroke="darkred" d="M154.67,-4C154.67,-4 161.33,-4 161.33,-4 164.67,-4 168,-7.33 168,-10.67 168,-10.67 168,-25.33 168,-25.33 168,-28.67 164.67,-32 161.33,-32 161.33,-32 154.67,-32 154.67,-32 151.33,-32 148,-28.67 148,-25.33 148,-25.33 148,-10.67 148,-10.67 148,-7.33 151.33,-4 154.67,-4"/>
</g>
<!-- 1&#45;&gt;2 -->
<g id="edge2" class="edge">
<title>1&#45;&gt;2</title>
<path fill="none" stroke="black" d="M103.72,-92.14C101.16,-80.72 99.8,-65.65 106,-54 109.68,-47.09 115.39,-41.31 121.7,-36.55"/>
<polygon fill="black" stroke="black" points="123.51,-39.56 129.95,-31.15 119.67,-33.7 123.51,-39.56"/>
<text text-anchor="start" x="110" y="-62" font-family="Courier New" font-weight="bold" font-size="10.00" fill="blue">HANDOFF(WIP2,)</text>
</g>
<!-- 2&#45;&gt;0 -->
<g id="edge3" class="edge">
<title>2&#45;&gt;0</title>
<path fill="none" stroke="black" d="M183.98,-35.98C189.65,-41.04 194.87,-47.11 198,-54 218.57,-99.33 214.54,-119.05 198,-166 195.77,-172.33 192.19,-178.41 188.15,-183.92"/>
<polygon fill="black" stroke="black" points="185.64,-181.46 182.04,-191.42 191.07,-185.88 185.64,-181.46"/>
<text text-anchor="start" x="215" y="-108" font-family="Courier New" font-weight="bold" font-size="10.00" fill="blue">PLAYWAVE(WIP3,)</text>
</g>
</g>
</svg>
