<?xml version="1.0" encoding="UTF-8" standalone="no"?>
<!DOCTYPE svg PUBLIC "-//W3C//DTD SVG 1.1//EN"
 "http://www.w3.org/Graphics/SVG/1.1/DTD/svg11.dtd">
<!-- Generated by graphviz version 7.1.0 (20230121.1956)
 -->
<!-- Pages: 1 -->
<svg width="270pt" height="225pt"
 viewBox="0.00 0.00 270.08 224.60" xmlns="http://www.w3.org/2000/svg" xmlns:xlink="http://www.w3.org/1999/xlink">
<g id="graph0" class="graph" transform="scale(1 1) rotate(0) translate(4 220.6)">
<polygon fill="white" stroke="none" points="-4,4 -4,-220.6 266.08,-220.6 266.08,4 -4,4"/>
<!-- M_OBJECTMAP_0 -->
<g id="node1" class="node">
<title>M_OBJECTMAP_0</title>
<polygon fill="none" stroke="black" points="51,-180.1 51,-216.1 182.13,-216.1 182.13,-180.1 51,-180.1"/>
<text text-anchor="middle" x="116.57" y="-193.9" font-family="Times,serif" font-size="14.00">M_OBJECTMAP_0</text>
</g>
<!-- M_OBJECTMAP_1 -->
<g id="node2" class="node">
<title>M_OBJECTMAP_1</title>
<polygon fill="none" stroke="black" points="0,-90.3 0,-126.3 131.13,-126.3 131.13,-90.3 0,-90.3"/>
<text text-anchor="middle" x="65.57" y="-104.1" font-family="Times,serif" font-size="14.00">M_OBJECTMAP_1</text>
</g>
<!-- M_OBJECTMAP_0&#45;&gt;M_OBJECTMAP_1 -->
<g id="edge1" class="edge">
<title>M_OBJECTMAP_0&#45;&gt;M_OBJECTMAP_1</title>
<path fill="none" stroke="red" d="M98.51,-180.18C93.32,-174.63 88.01,-168.19 84.05,-161.6 79.49,-153.99 75.81,-145.09 72.98,-136.8"/>
<polygon fill="red" stroke="red" points="76.4,-136.02 70.09,-127.52 69.72,-138.11 76.4,-136.02"/>
<text text-anchor="start" x="84.57" y="-150" font-family="Times,serif" font-size="14.00" fill="red"> </text>
<text text-anchor="start" x="88.07" y="-150" font-family="Courier New" font-size="10.00" fill="red">DRAG(WIP1,)</text>
</g>
<!-- M_OBJECTMAP_2 -->
<g id="node3" class="node">
<title>M_OBJECTMAP_2</title>
<polygon fill="none" stroke="black" points="50,-0.5 50,-36.5 181.13,-36.5 181.13,-0.5 50,-0.5"/>
<text text-anchor="middle" x="115.57" y="-14.3" font-family="Times,serif" font-size="14.00">M_OBJECTMAP_2</text>
</g>
<!-- M_OBJECTMAP_1&#45;&gt;M_OBJECTMAP_2 -->
<g id="edge2" class="edge">
<title>M_OBJECTMAP_1&#45;&gt;M_OBJECTMAP_2</title>
<path fill="none" stroke="green" d="M61.97,-90.34C60.57,-79.62 60.44,-65.8 66.05,-55 68.16,-50.94 70.96,-47.25 74.17,-43.9"/>
<polygon fill="green" stroke="green" points="76.47,-46.54 81.67,-37.31 71.85,-41.28 76.47,-46.54"/>
<text text-anchor="start" x="66.57" y="-60.2" font-family="Times,serif" font-size="14.00" fill="green"> </text>
<text text-anchor="start" x="70.07" y="-60.2" font-family="Courier New" font-size="10.00" fill="green">HANDOFF(WIP2,)</text>
</g>
<!-- M_OBJECTMAP_2&#45;&gt;M_OBJECTMAP_0 -->
<g id="edge3" class="edge">
<title>M_OBJECTMAP_2&#45;&gt;M_OBJECTMAP_0</title>
<path fill="none" stroke="green" d="M139.49,-36.25C145.17,-41.54 150.47,-47.88 153.57,-55 172.44,-98.46 172.15,-118.02 153.57,-161.6 152.02,-165.23 149.9,-168.67 147.44,-171.87"/>
<polygon fill="green" stroke="green" points="145,-169.36 140.89,-179.12 150.19,-174.05 145,-169.36"/>
<text text-anchor="start" x="168.57" y="-105.1" font-family="Times,serif" font-size="14.00" fill="green"> </text>
<text text-anchor="start" x="172.07" y="-105.1" font-family="Courier New" font-size="10.00" fill="green">PLAYWAVE(WIP3,)</text>
</g>
</g>
</svg>
