<?xml version="1.0" encoding="UTF-8" standalone="no"?>
<!DOCTYPE svg PUBLIC "-//W3C//DTD SVG 1.1//EN"
 "http://www.w3.org/Graphics/SVG/1.1/DTD/svg11.dtd">
<!-- Generated by graphviz version 7.1.0 (20230121.1956)
 -->
<!-- Pages: 1 -->
<svg width="256pt" height="232pt"
 viewBox="0.00 0.00 256.00 232.00" xmlns="http://www.w3.org/2000/svg" xmlns:xlink="http://www.w3.org/1999/xlink">
<g id="graph0" class="graph" transform="scale(1 1) rotate(0) translate(4 228)">
<polygon fill="white" stroke="none" points="-4,4 -4,-228 252,-228 252,4 -4,4"/>
<!-- 0 -->
<g id="node1" class="node">
<title>0</title>
<ellipse fill="none" stroke="black" cx="80" cy="-206" rx="27" ry="18"/>
<text text-anchor="middle" x="80" y="-201.8" font-family="Times,serif" font-size="14.00">0</text>
</g>
<!-- 1 -->
<g id="node2" class="node">
<title>1</title>
<ellipse fill="none" stroke="black" cx="27" cy="-112" rx="27" ry="18"/>
<text text-anchor="middle" x="27" y="-107.8" font-family="Times,serif" font-size="14.00">1</text>
</g>
<!-- 0&#45;&gt;1 -->
<g id="edge1" class="edge">
<title>0&#45;&gt;1</title>
<path fill="none" stroke="black" d="M63.08,-191.84C56.31,-185.82 48.97,-178.2 44,-170 38.75,-161.33 35.03,-150.94 32.43,-141.41"/>
<polygon fill="black" stroke="black" points="35.88,-140.78 30.15,-131.87 29.07,-142.41 35.88,-140.78"/>
<text text-anchor="start" x="48" y="-156.2" font-family="Courier New" font-weight="bold" font-size="12.00" fill="orange">DRAG(WIP1)</text>
</g>
<!-- 2 -->
<g id="node3" class="node">
<title>2</title>
<ellipse fill="none" stroke="black" cx="80" cy="-18" rx="27" ry="18"/>
<text text-anchor="middle" x="80" y="-13.8" font-family="Times,serif" font-size="14.00">2</text>
</g>
<!-- 1&#45;&gt;2 -->
<g id="edge2" class="edge">
<title>1&#45;&gt;2</title>
<path fill="none" stroke="black" d="M21.1,-93.96C18.05,-82.03 16.22,-66.12 23,-54 28.25,-44.62 37.15,-37.45 46.37,-32.12"/>
<polygon fill="black" stroke="black" points="47.69,-35.38 55.01,-27.72 44.51,-29.14 47.69,-35.38"/>
<text text-anchor="start" x="27.5" y="-62.2" font-family="Courier New" font-weight="bold" font-size="12.00" fill="blue">HANDOFF(WIP2)</text>
</g>
<!-- 2&#45;&gt;0 -->
<g id="edge3" class="edge">
<title>2&#45;&gt;0</title>
<path fill="none" stroke="black" d="M100.67,-29.8C109.59,-35.66 119.08,-43.8 124,-54 146.4,-100.44 146.4,-123.56 124,-170 120.77,-176.69 115.57,-182.5 109.86,-187.36"/>
<polygon fill="black" stroke="black" points="107.82,-184.51 101.89,-193.29 112,-190.13 107.82,-184.51"/>
<text text-anchor="start" x="144" y="-109.2" font-family="Courier New" font-weight="bold" font-size="12.00" fill="blue">PLAYWAVE(WIP3)</text>
</g>
</g>
</svg>
