<?xml version="1.0" encoding="UTF-8" standalone="no"?>
<!DOCTYPE svg PUBLIC "-//W3C//DTD SVG 1.1//EN"
 "http://www.w3.org/Graphics/SVG/1.1/DTD/svg11.dtd">
<!-- Generated by graphviz version 7.1.0 (20230121.1956)
 -->
<!-- Pages: 1 -->
<svg width="301pt" height="796pt"
 viewBox="0.00 0.00 301.00 796.00" xmlns="http://www.w3.org/2000/svg" xmlns:xlink="http://www.w3.org/1999/xlink">
<g id="graph0" class="graph" transform="scale(1 1) rotate(0) translate(4 792)">
<polygon fill="white" stroke="none" points="-4,4 -4,-792 297,-792 297,4 -4,4"/>
<!-- 0 -->
<g id="node1" class="node">
<title>0</title>
<ellipse fill="none" stroke="black" cx="123" cy="-770" rx="27" ry="18"/>
<text text-anchor="middle" x="123" y="-765.8" font-family="Times,serif" font-size="14.00">0</text>
</g>
<!-- 2 -->
<g id="node2" class="node">
<title>2</title>
<ellipse fill="none" stroke="black" cx="123" cy="-676" rx="27" ry="18"/>
<text text-anchor="middle" x="123" y="-671.8" font-family="Times,serif" font-size="14.00">2</text>
</g>
<!-- 0&#45;&gt;2 -->
<g id="edge1" class="edge">
<title>0&#45;&gt;2</title>
<path fill="none" stroke="black" d="M123,-751.7C123,-738.72 123,-720.66 123,-705.56"/>
<polygon fill="black" stroke="black" points="126.5,-705.74 123,-695.74 119.5,-705.74 126.5,-705.74"/>
<text text-anchor="start" x="127" y="-720.2" font-family="Courier New" font-weight="bold" font-size="12.00" fill="blue">Z_EPSILON(0,0)</text>
</g>
<!-- 3 -->
<g id="node4" class="node">
<title>3</title>
<ellipse fill="none" stroke="black" cx="27" cy="-582" rx="27" ry="18"/>
<text text-anchor="middle" x="27" y="-577.8" font-family="Times,serif" font-size="14.00">3</text>
</g>
<!-- 2&#45;&gt;3 -->
<g id="edge3" class="edge">
<title>2&#45;&gt;3</title>
<path fill="none" stroke="black" d="M96,-673.3C73.41,-670.29 42.46,-662.09 27,-640 21.27,-631.81 20.06,-621.22 20.7,-611.39"/>
<polygon fill="black" stroke="black" points="24.16,-611.87 22.01,-601.49 17.22,-610.95 24.16,-611.87"/>
<text text-anchor="start" x="31" y="-626.2" font-family="Courier New" font-weight="bold" font-size="12.00" fill="blue">ASSIGN(WSPRITE,MAX_PEDS)</text>
</g>
<!-- 1 -->
<g id="node3" class="node">
<title>1</title>
<ellipse fill="none" stroke="black" cx="152" cy="-18" rx="27" ry="18"/>
<text text-anchor="middle" x="152" y="-13.8" font-family="Times,serif" font-size="14.00">1</text>
</g>
<!-- 1&#45;&gt;2 -->
<g id="edge2" class="edge">
<title>1&#45;&gt;2</title>
<path fill="none" stroke="black" d="M174.54,-28.37C185.87,-34.17 198.88,-42.69 207,-54 222.21,-75.19 221,-84.91 221,-111 221,-583 221,-583 221,-583 221,-609.09 223.97,-620.19 207,-640 195.06,-653.94 176.65,-662.44 160.11,-667.56"/>
<polygon fill="black" stroke="black" points="159.24,-664.17 150.52,-670.19 161.09,-670.92 159.24,-664.17"/>
<text text-anchor="start" x="225" y="-344.2" font-family="Courier New" font-weight="bold" font-size="12.00" fill="orange">WAIT(0,0)</text>
</g>
<!-- 4 -->
<g id="node5" class="node">
<title>4</title>
<ellipse fill="none" stroke="black" cx="32" cy="-488" rx="27" ry="18"/>
<text text-anchor="middle" x="32" y="-483.8" font-family="Times,serif" font-size="14.00">4</text>
</g>
<!-- 3&#45;&gt;4 -->
<g id="edge4" class="edge">
<title>3&#45;&gt;4</title>
<path fill="none" stroke="black" d="M27.94,-563.7C28.65,-550.72 29.63,-532.66 30.45,-517.56"/>
<polygon fill="black" stroke="black" points="33.93,-517.91 30.98,-507.74 26.94,-517.53 33.93,-517.91"/>
<text text-anchor="start" x="35" y="-532.2" font-family="Courier New" font-weight="bold" font-size="12.00" fill="blue">MUL(WSPRITE,LKARMA)</text>
</g>
<!-- 5 -->
<g id="node6" class="node">
<title>5</title>
<ellipse fill="none" stroke="black" cx="34" cy="-394" rx="27" ry="18"/>
<text text-anchor="middle" x="34" y="-389.8" font-family="Times,serif" font-size="14.00">5</text>
</g>
<!-- 4&#45;&gt;5 -->
<g id="edge5" class="edge">
<title>4&#45;&gt;5</title>
<path fill="none" stroke="black" d="M32.38,-469.7C32.66,-456.72 33.05,-438.66 33.38,-423.56"/>
<polygon fill="black" stroke="black" points="36.87,-423.81 33.59,-413.74 29.88,-423.66 36.87,-423.81"/>
<text text-anchor="start" x="38.5" y="-438.2" font-family="Courier New" font-weight="bold" font-size="12.00" fill="blue">ASSIGN(WPARM,MAX_KARMA)</text>
</g>
<!-- 6 -->
<g id="node7" class="node">
<title>6</title>
<ellipse fill="none" stroke="black" cx="39" cy="-300" rx="27" ry="18"/>
<text text-anchor="middle" x="39" y="-295.8" font-family="Times,serif" font-size="14.00">6</text>
</g>
<!-- 5&#45;&gt;6 -->
<g id="edge6" class="edge">
<title>5&#45;&gt;6</title>
<path fill="none" stroke="black" d="M34.94,-375.7C35.65,-362.72 36.63,-344.66 37.45,-329.56"/>
<polygon fill="black" stroke="black" points="40.93,-329.91 37.98,-319.74 33.94,-329.53 40.93,-329.91"/>
<text text-anchor="start" x="42.5" y="-344.2" font-family="Courier New" font-weight="bold" font-size="12.00" fill="blue">DIV(WSPRITE,WPARM)</text>
</g>
<!-- 7 -->
<g id="node8" class="node">
<title>7</title>
<ellipse fill="none" stroke="black" cx="48" cy="-206" rx="27" ry="18"/>
<text text-anchor="middle" x="48" y="-201.8" font-family="Times,serif" font-size="14.00">7</text>
</g>
<!-- 6&#45;&gt;7 -->
<g id="edge7" class="edge">
<title>6&#45;&gt;7</title>
<path fill="none" stroke="black" d="M38.88,-281.73C38.98,-270.4 39.45,-255.28 41,-242 41.26,-239.78 41.58,-237.5 41.95,-235.21"/>
<polygon fill="black" stroke="black" points="45.37,-235.96 43.75,-225.49 38.49,-234.69 45.37,-235.96"/>
<text text-anchor="start" x="45" y="-250.2" font-family="Courier New" font-weight="bold" font-size="12.00" fill="blue">ASSIGN(WPARM,IDS_PED1)</text>
</g>
<!-- 8 -->
<g id="node9" class="node">
<title>8</title>
<ellipse fill="none" stroke="black" cx="77" cy="-112" rx="27" ry="18"/>
<text text-anchor="middle" x="77" y="-107.8" font-family="Times,serif" font-size="14.00">8</text>
</g>
<!-- 7&#45;&gt;8 -->
<g id="edge8" class="edge">
<title>7&#45;&gt;8</title>
<path fill="none" stroke="black" d="M53.32,-188.13C57.5,-174.85 63.42,-156.08 68.29,-140.62"/>
<polygon fill="black" stroke="black" points="71.49,-142.11 71.16,-131.52 64.82,-140.01 71.49,-142.11"/>
<text text-anchor="start" x="70.5" y="-156.2" font-family="Courier New" font-weight="bold" font-size="12.00" fill="blue">ADD(WSPRITE,WPARM)</text>
</g>
<!-- 8&#45;&gt;1 -->
<g id="edge9" class="edge">
<title>8&#45;&gt;1</title>
<path fill="none" stroke="black" d="M80.65,-93.88C83.9,-81.76 89.62,-65.65 99,-54 104.88,-46.69 112.71,-40.38 120.54,-35.2"/>
<polygon fill="black" stroke="black" points="122.29,-38.23 129.01,-30.05 118.65,-32.25 122.29,-38.23"/>
<text text-anchor="start" x="103" y="-62.2" font-family="Courier New" font-weight="bold" font-size="12.00" fill="blue">SHOW(WSPRITE,)</text>
</g>
</g>
</svg>
