<?xml version="1.0" encoding="UTF-8" standalone="no"?>
<!DOCTYPE svg PUBLIC "-//W3C//DTD SVG 1.1//EN"
 "http://www.w3.org/Graphics/SVG/1.1/DTD/svg11.dtd">
<!-- Generated by graphviz version 7.1.0 (20230121.1956)
 -->
<!-- Title: Automaton Pages: 1 -->
<svg width="314pt" height="613pt"
 viewBox="0.00 0.00 314.00 613.00" xmlns="http://www.w3.org/2000/svg" xmlns:xlink="http://www.w3.org/1999/xlink">
<g id="graph0" class="graph" transform="scale(1 1) rotate(0) translate(4 609)">
<title>Automaton</title>
<polygon fill="white" stroke="none" points="-4,4 -4,-609 310,-609 310,4 -4,4"/>
<!-- filename -->
<g id="node1" class="node">
<title>filename</title>
<polygon fill="none" stroke="black" points="0,-552.5 0,-604.5 118,-604.5 118,-552.5 0,-552.5"/>
<polygon fill="none" stroke="black" points="11,-579.5 11,-597.5 107,-597.5 107,-579.5 11,-579.5"/>
<text text-anchor="start" x="29" y="-586.5" font-family="Courier New" font-weight="bold" font-size="10.00">M_PLANTBIN</text>
<polygon fill="none" stroke="black" points="11,-559.5 11,-577.5 107,-577.5 107,-559.5 11,-559.5"/>
<text text-anchor="start" x="14" y="-565.5" font-family="Courier New" font-size="10.00" fill="brown">start state = 0</text>
<polygon fill="none" stroke="black" points="8,-556.5 8,-600.5 110,-600.5 110,-556.5 8,-556.5"/>
</g>
<!-- 0 -->
<g id="node2" class="node">
<title>0</title>
<polyline fill="none" stroke="darkred" points="156,-567.5 170,-567.5"/>
<text text-anchor="start" x="159" y="-574.9" font-family="Courier New" font-weight="bold" font-size="14.00">0</text>
<path fill="none" stroke="darkred" d="M159.67,-564.5C159.67,-564.5 166.33,-564.5 166.33,-564.5 169.67,-564.5 173,-567.83 173,-571.17 173,-571.17 173,-585.83 173,-585.83 173,-589.17 169.67,-592.5 166.33,-592.5 166.33,-592.5 159.67,-592.5 159.67,-592.5 156.33,-592.5 153,-589.17 153,-585.83 153,-585.83 153,-571.17 153,-571.17 153,-567.83 156.33,-564.5 159.67,-564.5"/>
</g>
<!-- 1 -->
<g id="node3" class="node">
<title>1</title>
<polyline fill="none" stroke="darkred" points="156,-467 170,-467"/>
<text text-anchor="start" x="159" y="-474.4" font-family="Courier New" font-weight="bold" font-size="14.00">1</text>
<path fill="none" stroke="darkred" d="M159.67,-464C159.67,-464 166.33,-464 166.33,-464 169.67,-464 173,-467.33 173,-470.67 173,-470.67 173,-485.33 173,-485.33 173,-488.67 169.67,-492 166.33,-492 166.33,-492 159.67,-492 159.67,-492 156.33,-492 153,-488.67 153,-485.33 153,-485.33 153,-470.67 153,-470.67 153,-467.33 156.33,-464 159.67,-464"/>
</g>
<!-- 0&#45;&gt;1 -->
<g id="edge1" class="edge">
<title>0&#45;&gt;1</title>
<path fill="none" stroke="black" d="M163,-560.79C163,-546.14 163,-524.55 163,-507.23"/>
<polygon fill="black" stroke="black" points="166.5,-507.3 163,-497.3 159.5,-507.3 166.5,-507.3"/>
<text text-anchor="start" x="167" y="-522" font-family="Courier New" font-weight="bold" font-size="10.00" fill="blue">MOV(WSPRITE,WIP2)</text>
</g>
<!-- 5 -->
<g id="node4" class="node">
<title>5</title>
<polyline fill="none" stroke="darkred" points="156,-375 170,-375"/>
<text text-anchor="start" x="159" y="-382.4" font-family="Courier New" font-weight="bold" font-size="14.00">5</text>
<path fill="none" stroke="darkred" d="M159.67,-372C159.67,-372 166.33,-372 166.33,-372 169.67,-372 173,-375.33 173,-378.67 173,-378.67 173,-393.33 173,-393.33 173,-396.67 169.67,-400 166.33,-400 166.33,-400 159.67,-400 159.67,-400 156.33,-400 153,-396.67 153,-393.33 153,-393.33 153,-378.67 153,-378.67 153,-375.33 156.33,-372 159.67,-372"/>
</g>
<!-- 1&#45;&gt;5 -->
<g id="edge2" class="edge">
<title>1&#45;&gt;5</title>
<path fill="none" stroke="black" d="M163,-460.07C163,-447.38 163,-429.71 163,-414.94"/>
<polygon fill="black" stroke="black" points="166.5,-415.37 163,-405.37 159.5,-415.37 166.5,-415.37"/>
<text text-anchor="start" x="167" y="-430" font-family="Courier New" font-weight="bold" font-size="10.00" fill="blue">SHOW(WSPRITE,)</text>
</g>
<!-- 10 -->
<g id="node5" class="node">
<title>10</title>
<polyline fill="none" stroke="darkred" points="101,-283 123,-283"/>
<text text-anchor="start" x="104" y="-290.4" font-family="Courier New" font-weight="bold" font-size="14.00">10</text>
<path fill="none" stroke="darkred" d="M107.33,-280C107.33,-280 116.67,-280 116.67,-280 121.33,-280 126,-284.67 126,-289.33 126,-289.33 126,-298.67 126,-298.67 126,-303.33 121.33,-308 116.67,-308 116.67,-308 107.33,-308 107.33,-308 102.67,-308 98,-303.33 98,-298.67 98,-298.67 98,-289.33 98,-289.33 98,-284.67 102.67,-280 107.33,-280"/>
</g>
<!-- 5&#45;&gt;10 -->
<g id="edge7" class="edge">
<title>5&#45;&gt;10</title>
<path fill="none" stroke="black" d="M141.2,-368.23C135.55,-362.94 129.94,-356.71 126,-350 121.21,-341.85 118.04,-332.08 115.96,-323.05"/>
<polygon fill="black" stroke="black" points="119.41,-322.45 114.08,-313.3 112.53,-323.78 119.41,-322.45"/>
<text text-anchor="start" x="130" y="-338" font-family="Courier New" font-weight="bold" font-size="10.00" fill="orange">GRAB(WIP1,)</text>
</g>
<!-- 20 -->
<g id="node6" class="node">
<title>20</title>
<polyline fill="none" stroke="darkred" points="97,-191 119,-191"/>
<text text-anchor="start" x="100" y="-198.4" font-family="Courier New" font-weight="bold" font-size="14.00">20</text>
<path fill="none" stroke="darkred" d="M103.33,-188C103.33,-188 112.67,-188 112.67,-188 117.33,-188 122,-192.67 122,-197.33 122,-197.33 122,-206.67 122,-206.67 122,-211.33 117.33,-216 112.67,-216 112.67,-216 103.33,-216 103.33,-216 98.67,-216 94,-211.33 94,-206.67 94,-206.67 94,-197.33 94,-197.33 94,-192.67 98.67,-188 103.33,-188"/>
</g>
<!-- 10&#45;&gt;20 -->
<g id="edge3" class="edge">
<title>10&#45;&gt;20</title>
<path fill="none" stroke="black" d="M111.25,-276.07C110.68,-263.38 109.9,-245.71 109.24,-230.94"/>
<polygon fill="black" stroke="black" points="112.76,-231.2 108.82,-221.36 105.76,-231.51 112.76,-231.2"/>
<text text-anchor="start" x="114" y="-246" font-family="Courier New" font-weight="bold" font-size="10.00" fill="blue">SHOW(0,0)</text>
</g>
<!-- 30 -->
<g id="node7" class="node">
<title>30</title>
<polyline fill="none" stroke="darkred" points="90,-99 112,-99"/>
<text text-anchor="start" x="93" y="-106.4" font-family="Courier New" font-weight="bold" font-size="14.00">30</text>
<path fill="none" stroke="darkred" d="M96.33,-96C96.33,-96 105.67,-96 105.67,-96 110.33,-96 115,-100.67 115,-105.33 115,-105.33 115,-114.67 115,-114.67 115,-119.33 110.33,-124 105.67,-124 105.67,-124 96.33,-124 96.33,-124 91.67,-124 87,-119.33 87,-114.67 87,-114.67 87,-105.33 87,-105.33 87,-100.67 91.67,-96 96.33,-96"/>
</g>
<!-- 20&#45;&gt;30 -->
<g id="edge4" class="edge">
<title>20&#45;&gt;30</title>
<path fill="none" stroke="black" d="M106.68,-184.07C105.7,-171.38 104.32,-153.71 103.17,-138.94"/>
<polygon fill="black" stroke="black" points="106.69,-139.06 102.43,-129.36 99.71,-139.6 106.69,-139.06"/>
<text text-anchor="start" x="109" y="-154" font-family="Courier New" font-weight="bold" font-size="10.00" fill="blue">ESTIME(WIP3,)</text>
</g>
<!-- 40 -->
<g id="node8" class="node">
<title>40</title>
<polyline fill="none" stroke="darkred" points="140,-7 162,-7"/>
<text text-anchor="start" x="143" y="-14.4" font-family="Courier New" font-weight="bold" font-size="14.00">40</text>
<path fill="none" stroke="darkred" d="M146.33,-4C146.33,-4 155.67,-4 155.67,-4 160.33,-4 165,-8.67 165,-13.33 165,-13.33 165,-22.67 165,-22.67 165,-27.33 160.33,-32 155.67,-32 155.67,-32 146.33,-32 146.33,-32 141.67,-32 137,-27.33 137,-22.67 137,-22.67 137,-13.33 137,-13.33 137,-8.67 141.67,-4 146.33,-4"/>
</g>
<!-- 30&#45;&gt;40 -->
<g id="edge5" class="edge">
<title>30&#45;&gt;40</title>
<path fill="none" stroke="black" d="M91.85,-92.13C86.99,-80.7 83.27,-65.63 90,-54 95.44,-44.61 104.45,-37.52 113.9,-32.27"/>
<polygon fill="black" stroke="black" points="115.36,-35.45 122.82,-27.93 112.29,-29.16 115.36,-35.45"/>
<text text-anchor="start" x="94" y="-62" font-family="Courier New" font-weight="bold" font-size="10.00" fill="blue">MOV(WSPRITE,WIP2)</text>
</g>
<!-- 40&#45;&gt;5 -->
<g id="edge6" class="edge">
<title>40&#45;&gt;5</title>
<path fill="none" stroke="black" d="M177.86,-33.22C186.03,-38.72 194.33,-45.72 200,-54 214.24,-74.82 214,-83.78 214,-109 214,-295 214,-295 214,-295 214,-320.22 212.78,-328.25 200,-350 197.91,-353.56 195.34,-356.99 192.55,-360.22"/>
<polygon fill="black" stroke="black" points="190.29,-357.52 185.85,-367.14 195.32,-362.39 190.29,-357.52"/>
<text text-anchor="start" x="218" y="-200" font-family="Courier New" font-weight="bold" font-size="10.00" fill="blue">SHOW(WSPRITE,)</text>
</g>
</g>
</svg>
