<?xml version="1.0" encoding="UTF-8" standalone="no"?>
<!DOCTYPE svg PUBLIC "-//W3C//DTD SVG 1.1//EN"
 "http://www.w3.org/Graphics/SVG/1.1/DTD/svg11.dtd">
<!-- Generated by graphviz version 7.1.0 (20230121.1956)
 -->
<!-- Title: Automaton Pages: 1 -->
<svg width="329pt" height="521pt"
 viewBox="0.00 0.00 329.00 521.00" xmlns="http://www.w3.org/2000/svg" xmlns:xlink="http://www.w3.org/1999/xlink">
<g id="graph0" class="graph" transform="scale(1 1) rotate(0) translate(4 517)">
<title>Automaton</title>
<polygon fill="white" stroke="none" points="-4,4 -4,-517 325,-517 325,4 -4,4"/>
<!-- filename -->
<g id="node1" class="node">
<title>filename</title>
<polygon fill="none" stroke="black" points="0,-460.5 0,-512.5 118,-512.5 118,-460.5 0,-460.5"/>
<polygon fill="none" stroke="black" points="11,-487.5 11,-505.5 107,-505.5 107,-487.5 11,-487.5"/>
<text text-anchor="start" x="25.99" y="-494.5" font-family="Courier New" font-weight="bold" font-size="10.00">M_POLESTAND</text>
<polygon fill="none" stroke="black" points="11,-467.5 11,-485.5 107,-485.5 107,-467.5 11,-467.5"/>
<text text-anchor="start" x="14" y="-473.5" font-family="Courier New" font-size="10.00" fill="brown">start state = 0</text>
<polygon fill="none" stroke="black" points="8,-464.5 8,-508.5 110,-508.5 110,-464.5 8,-464.5"/>
</g>
<!-- 0 -->
<g id="node2" class="node">
<title>0</title>
<polyline fill="none" stroke="darkred" points="156,-475.5 170,-475.5"/>
<text text-anchor="start" x="159" y="-482.9" font-family="Courier New" font-weight="bold" font-size="14.00">0</text>
<path fill="none" stroke="darkred" d="M159.67,-472.5C159.67,-472.5 166.33,-472.5 166.33,-472.5 169.67,-472.5 173,-475.83 173,-479.17 173,-479.17 173,-493.83 173,-493.83 173,-497.17 169.67,-500.5 166.33,-500.5 166.33,-500.5 159.67,-500.5 159.67,-500.5 156.33,-500.5 153,-497.17 153,-493.83 153,-493.83 153,-479.17 153,-479.17 153,-475.83 156.33,-472.5 159.67,-472.5"/>
</g>
<!-- 1 -->
<g id="node3" class="node">
<title>1</title>
<polyline fill="none" stroke="darkred" points="156,-375 170,-375"/>
<text text-anchor="start" x="159" y="-382.4" font-family="Courier New" font-weight="bold" font-size="14.00">1</text>
<path fill="none" stroke="darkred" d="M159.67,-372C159.67,-372 166.33,-372 166.33,-372 169.67,-372 173,-375.33 173,-378.67 173,-378.67 173,-393.33 173,-393.33 173,-396.67 169.67,-400 166.33,-400 166.33,-400 159.67,-400 159.67,-400 156.33,-400 153,-396.67 153,-393.33 153,-393.33 153,-378.67 153,-378.67 153,-375.33 156.33,-372 159.67,-372"/>
</g>
<!-- 0&#45;&gt;1 -->
<g id="edge1" class="edge">
<title>0&#45;&gt;1</title>
<path fill="none" stroke="black" d="M163,-468.79C163,-454.14 163,-432.55 163,-415.23"/>
<polygon fill="black" stroke="black" points="166.5,-415.3 163,-405.3 159.5,-415.3 166.5,-415.3"/>
<text text-anchor="start" x="167" y="-430" font-family="Courier New" font-weight="bold" font-size="10.00" fill="blue">ASSIGN(WOBJECT,IDD_POLE1)</text>
</g>
<!-- 2 -->
<g id="node4" class="node">
<title>2</title>
<polyline fill="none" stroke="darkred" points="102,-283 116,-283"/>
<text text-anchor="start" x="105" y="-290.4" font-family="Courier New" font-weight="bold" font-size="14.00">2</text>
<path fill="none" stroke="darkred" d="M105.67,-280C105.67,-280 112.33,-280 112.33,-280 115.67,-280 119,-283.33 119,-286.67 119,-286.67 119,-301.33 119,-301.33 119,-304.67 115.67,-308 112.33,-308 112.33,-308 105.67,-308 105.67,-308 102.33,-308 99,-304.67 99,-301.33 99,-301.33 99,-286.67 99,-286.67 99,-283.33 102.33,-280 105.67,-280"/>
</g>
<!-- 1&#45;&gt;2 -->
<g id="edge2" class="edge">
<title>1&#45;&gt;2</title>
<path fill="none" stroke="black" d="M143.76,-368.09C138.45,-362.7 133.05,-356.46 129,-350 123.76,-341.65 119.62,-331.72 116.5,-322.62"/>
<polygon fill="black" stroke="black" points="119.87,-321.65 113.54,-313.16 113.19,-323.74 119.87,-321.65"/>
<text text-anchor="start" x="133" y="-338" font-family="Courier New" font-weight="bold" font-size="10.00" fill="blue">SHOW(WOBJECT,)</text>
</g>
<!-- 3 -->
<g id="node5" class="node">
<title>3</title>
<polyline fill="none" stroke="darkred" points="89,-191 103,-191"/>
<text text-anchor="start" x="92" y="-198.4" font-family="Courier New" font-weight="bold" font-size="14.00">3</text>
<path fill="none" stroke="darkred" d="M92.67,-188C92.67,-188 99.33,-188 99.33,-188 102.67,-188 106,-191.33 106,-194.67 106,-194.67 106,-209.33 106,-209.33 106,-212.67 102.67,-216 99.33,-216 99.33,-216 92.67,-216 92.67,-216 89.33,-216 86,-212.67 86,-209.33 86,-209.33 86,-194.67 86,-194.67 86,-191.33 89.33,-188 92.67,-188"/>
</g>
<!-- 2&#45;&gt;3 -->
<g id="edge3" class="edge">
<title>2&#45;&gt;3</title>
<path fill="none" stroke="black" d="M106.55,-276.07C104.72,-263.38 102.17,-245.71 100.04,-230.94"/>
<polygon fill="black" stroke="black" points="103.54,-230.75 98.65,-221.35 96.62,-231.75 103.54,-230.75"/>
<text text-anchor="start" x="107" y="-246" font-family="Courier New" font-weight="bold" font-size="10.00" fill="orange">GRAB(0,0)</text>
</g>
<!-- 4 -->
<g id="node6" class="node">
<title>4</title>
<polyline fill="none" stroke="darkred" points="86,-99 100,-99"/>
<text text-anchor="start" x="89" y="-106.4" font-family="Courier New" font-weight="bold" font-size="14.00">4</text>
<path fill="none" stroke="darkred" d="M89.67,-96C89.67,-96 96.33,-96 96.33,-96 99.67,-96 103,-99.33 103,-102.67 103,-102.67 103,-117.33 103,-117.33 103,-120.67 99.67,-124 96.33,-124 96.33,-124 89.67,-124 89.67,-124 86.33,-124 83,-120.67 83,-117.33 83,-117.33 83,-102.67 83,-102.67 83,-99.33 86.33,-96 89.67,-96"/>
</g>
<!-- 3&#45;&gt;4 -->
<g id="edge4" class="edge">
<title>3&#45;&gt;4</title>
<path fill="none" stroke="black" d="M95.44,-184.07C95.01,-171.38 94.42,-153.71 93.93,-138.94"/>
<polygon fill="black" stroke="black" points="97.44,-139.24 93.61,-129.37 90.45,-139.48 97.44,-139.24"/>
<text text-anchor="start" x="98" y="-154" font-family="Courier New" font-weight="bold" font-size="10.00" fill="blue">SHOW(0,0)</text>
</g>
<!-- 5 -->
<g id="node7" class="node">
<title>5</title>
<polyline fill="none" stroke="darkred" points="156,-7 170,-7"/>
<text text-anchor="start" x="159" y="-14.4" font-family="Courier New" font-weight="bold" font-size="14.00">5</text>
<path fill="none" stroke="darkred" d="M159.67,-4C159.67,-4 166.33,-4 166.33,-4 169.67,-4 173,-7.33 173,-10.67 173,-10.67 173,-25.33 173,-25.33 173,-28.67 169.67,-32 166.33,-32 166.33,-32 159.67,-32 159.67,-32 156.33,-32 153,-28.67 153,-25.33 153,-25.33 153,-10.67 153,-10.67 153,-7.33 156.33,-4 159.67,-4"/>
</g>
<!-- 4&#45;&gt;5 -->
<g id="edge5" class="edge">
<title>4&#45;&gt;5</title>
<path fill="none" stroke="black" d="M88.67,-92.36C86.63,-80.75 85.97,-65.37 93,-54 100.37,-42.08 113.16,-34.08 125.81,-28.79"/>
<polygon fill="black" stroke="black" points="126.67,-32.2 134.86,-25.46 124.26,-25.62 126.67,-32.2"/>
<text text-anchor="start" x="97" y="-62" font-family="Courier New" font-weight="bold" font-size="10.00" fill="blue">C_ACCEPT(0,IDC_POLE)</text>
</g>
<!-- 5&#45;&gt;1 -->
<g id="edge6" class="edge">
<title>5&#45;&gt;1</title>
<path fill="none" stroke="black" d="M189.96,-29.72C201.07,-35.4 213.15,-43.42 221,-54 236.03,-74.25 235,-83.78 235,-109 235,-295 235,-295 235,-295 235,-320.22 236.03,-329.75 221,-350 215.42,-357.52 207.7,-363.75 199.71,-368.76"/>
<polygon fill="black" stroke="black" points="198.26,-365.56 191.27,-373.53 201.7,-371.65 198.26,-365.56"/>
<text text-anchor="start" x="239" y="-200" font-family="Courier New" font-weight="bold" font-size="10.00" fill="orange">DROP(0,0)</text>
</g>
</g>
</svg>
