<?xml version="1.0" encoding="UTF-8" standalone="no"?>
<!DOCTYPE svg PUBLIC "-//W3C//DTD SVG 1.1//EN"
 "http://www.w3.org/Graphics/SVG/1.1/DTD/svg11.dtd">
<!-- Generated by graphviz version 7.1.0 (20230121.1956)
 -->
<!-- Pages: 1 -->
<svg width="307pt" height="314pt"
 viewBox="0.00 0.00 307.47 314.40" xmlns="http://www.w3.org/2000/svg" xmlns:xlink="http://www.w3.org/1999/xlink">
<g id="graph0" class="graph" transform="scale(1 1) rotate(0) translate(4 310.4)">
<polygon fill="white" stroke="none" points="-4,4 -4,-310.4 303.47,-310.4 303.47,4 -4,4"/>
<!-- M_PORTAL_0 -->
<g id="node1" class="node">
<title>M_PORTAL_0</title>
<polygon fill="none" stroke="black" points="43,-269.9 43,-305.9 146.9,-305.9 146.9,-269.9 43,-269.9"/>
<text text-anchor="middle" x="94.95" y="-283.7" font-family="Times,serif" font-size="14.00">M_PORTAL_0</text>
</g>
<!-- M_PORTAL_1 -->
<g id="node2" class="node">
<title>M_PORTAL_1</title>
<polygon fill="none" stroke="black" points="43,-180.1 43,-216.1 146.9,-216.1 146.9,-180.1 43,-180.1"/>
<text text-anchor="middle" x="94.95" y="-193.9" font-family="Times,serif" font-size="14.00">M_PORTAL_1</text>
</g>
<!-- M_PORTAL_0&#45;&gt;M_PORTAL_1 -->
<g id="edge1" class="edge">
<title>M_PORTAL_0&#45;&gt;M_PORTAL_1</title>
<path fill="none" stroke="green" d="M94.95,-269.97C94.95,-257.82 94.95,-241.18 94.95,-227.07"/>
<polygon fill="green" stroke="green" points="98.45,-227.49 94.95,-217.49 91.45,-227.49 98.45,-227.49"/>
<text text-anchor="start" x="94.95" y="-239.8" font-family="Times,serif" font-size="14.00" fill="green"> </text>
<text text-anchor="start" x="98.45" y="-239.8" font-family="Courier New" font-size="10.00" fill="green">MOV(WSPRITE,WIP1)</text>
</g>
<!-- M_PORTAL_2 -->
<g id="node3" class="node">
<title>M_PORTAL_2</title>
<polygon fill="none" stroke="black" points="0,-90.3 0,-126.3 103.9,-126.3 103.9,-90.3 0,-90.3"/>
<text text-anchor="middle" x="51.95" y="-104.1" font-family="Times,serif" font-size="14.00">M_PORTAL_2</text>
</g>
<!-- M_PORTAL_1&#45;&gt;M_PORTAL_2 -->
<g id="edge2" class="edge">
<title>M_PORTAL_1&#45;&gt;M_PORTAL_2</title>
<path fill="none" stroke="green" d="M43.92,-180.19C36.16,-175.39 29.17,-169.3 24.43,-161.6 19.27,-153.22 21.83,-143.78 27.07,-135.25"/>
<polygon fill="green" stroke="green" points="29.79,-137.45 32.93,-127.33 24.17,-133.28 29.79,-137.45"/>
<text text-anchor="start" x="24.95" y="-150" font-family="Times,serif" font-size="14.00" fill="green"> </text>
<text text-anchor="start" x="28.45" y="-150" font-family="Courier New" font-size="10.00" fill="green">ASHOW(WSPRITE,V_LOOP)</text>
</g>
<!-- M_PORTAL_3 -->
<g id="node4" class="node">
<title>M_PORTAL_3</title>
<polygon fill="none" stroke="black" points="58,-0.5 58,-36.5 161.9,-36.5 161.9,-0.5 58,-0.5"/>
<text text-anchor="middle" x="109.95" y="-14.3" font-family="Times,serif" font-size="14.00">M_PORTAL_3</text>
</g>
<!-- M_PORTAL_2&#45;&gt;M_PORTAL_3 -->
<g id="edge3" class="edge">
<title>M_PORTAL_2&#45;&gt;M_PORTAL_3</title>
<path fill="none" stroke="red" d="M63.13,-90.37C71.48,-77.74 83.03,-60.24 92.58,-45.79"/>
<polygon fill="red" stroke="red" points="95.37,-47.91 97.97,-37.64 89.53,-44.05 95.37,-47.91"/>
<text text-anchor="start" x="86.95" y="-60.2" font-family="Times,serif" font-size="14.00" fill="red"> </text>
<text text-anchor="start" x="90.45" y="-60.2" font-family="Courier New" font-size="10.00" fill="red">CLICK(0,0)</text>
</g>
<!-- M_PORTAL_3&#45;&gt;M_PORTAL_1 -->
<g id="edge4" class="edge">
<title>M_PORTAL_3&#45;&gt;M_PORTAL_1</title>
<path fill="none" stroke="green" d="M138.49,-36.34C144.71,-41.49 150.48,-47.74 153.95,-55 174.38,-97.74 177.27,-120.36 153.95,-161.6 151.47,-165.99 148.2,-169.9 144.47,-173.37"/>
<polygon fill="green" stroke="green" points="142.59,-170.39 136.9,-179.32 146.92,-175.89 142.59,-170.39"/>
<text text-anchor="start" x="169.95" y="-105.1" font-family="Times,serif" font-size="14.00" fill="green"> </text>
<text text-anchor="start" x="173.45" y="-105.1" font-family="Courier New" font-size="10.00" fill="green">LOADVIEW(0,IDV_SHORE)</text>
</g>
</g>
</svg>
