<?xml version="1.0" encoding="UTF-8" standalone="no"?>
<!DOCTYPE svg PUBLIC "-//W3C//DTD SVG 1.1//EN"
 "http://www.w3.org/Graphics/SVG/1.1/DTD/svg11.dtd">
<!-- Generated by graphviz version 7.1.0 (20230121.1956)
 -->
<!-- Pages: 1 -->
<svg width="305pt" height="514pt"
 viewBox="0.00 0.00 305.00 514.00" xmlns="http://www.w3.org/2000/svg" xmlns:xlink="http://www.w3.org/1999/xlink">
<g id="graph0" class="graph" transform="scale(1 1) rotate(0) translate(4 510)">
<polygon fill="white" stroke="none" points="-4,4 -4,-510 301,-510 301,4 -4,4"/>
<!-- 0 -->
<g id="node1" class="node">
<title>0</title>
<ellipse fill="none" stroke="black" cx="109" cy="-488" rx="27" ry="18"/>
<text text-anchor="middle" x="109" y="-483.8" font-family="Times,serif" font-size="14.00">0</text>
</g>
<!-- 1 -->
<g id="node2" class="node">
<title>1</title>
<ellipse fill="none" stroke="black" cx="109" cy="-394" rx="27" ry="18"/>
<text text-anchor="middle" x="109" y="-389.8" font-family="Times,serif" font-size="14.00">1</text>
</g>
<!-- 0&#45;&gt;1 -->
<g id="edge1" class="edge">
<title>0&#45;&gt;1</title>
<path fill="none" stroke="black" d="M109,-469.7C109,-456.72 109,-438.66 109,-423.56"/>
<polygon fill="black" stroke="black" points="112.5,-423.74 109,-413.74 105.5,-423.74 112.5,-423.74"/>
<text text-anchor="start" x="113" y="-438.2" font-family="Courier New" font-weight="bold" font-size="12.00" fill="blue">ASSIGN(WOBJECT,IDD_POLE1)</text>
</g>
<!-- 2 -->
<g id="node3" class="node">
<title>2</title>
<ellipse fill="none" stroke="black" cx="47" cy="-300" rx="27" ry="18"/>
<text text-anchor="middle" x="47" y="-295.8" font-family="Times,serif" font-size="14.00">2</text>
</g>
<!-- 1&#45;&gt;2 -->
<g id="edge2" class="edge">
<title>1&#45;&gt;2</title>
<path fill="none" stroke="black" d="M91.55,-379.71C84.49,-373.67 76.67,-366.07 71,-358 64.79,-349.16 59.75,-338.46 55.93,-328.73"/>
<polygon fill="black" stroke="black" points="59.22,-327.55 52.51,-319.35 52.64,-329.94 59.22,-327.55"/>
<text text-anchor="start" x="75" y="-344.2" font-family="Courier New" font-weight="bold" font-size="12.00" fill="blue">SHOW(WOBJECT,)</text>
</g>
<!-- 3 -->
<g id="node4" class="node">
<title>3</title>
<ellipse fill="none" stroke="black" cx="31" cy="-206" rx="27" ry="18"/>
<text text-anchor="middle" x="31" y="-201.8" font-family="Times,serif" font-size="14.00">3</text>
</g>
<!-- 2&#45;&gt;3 -->
<g id="edge3" class="edge">
<title>2&#45;&gt;3</title>
<path fill="none" stroke="black" d="M43.99,-281.7C41.73,-268.72 38.59,-250.66 35.97,-235.56"/>
<polygon fill="black" stroke="black" points="39.42,-234.97 34.26,-225.72 32.52,-236.17 39.42,-234.97"/>
<text text-anchor="start" x="45" y="-250.2" font-family="Courier New" font-weight="bold" font-size="12.00" fill="orange">GRAB(0,0)</text>
</g>
<!-- 4 -->
<g id="node5" class="node">
<title>4</title>
<ellipse fill="none" stroke="black" cx="27" cy="-112" rx="27" ry="18"/>
<text text-anchor="middle" x="27" y="-107.8" font-family="Times,serif" font-size="14.00">4</text>
</g>
<!-- 3&#45;&gt;4 -->
<g id="edge4" class="edge">
<title>3&#45;&gt;4</title>
<path fill="none" stroke="black" d="M30.25,-187.7C29.68,-174.72 28.9,-156.66 28.24,-141.56"/>
<polygon fill="black" stroke="black" points="31.75,-141.58 27.81,-131.74 24.75,-141.88 31.75,-141.58"/>
<text text-anchor="start" x="34" y="-156.2" font-family="Courier New" font-weight="bold" font-size="12.00" fill="blue">SHOW(0,0)</text>
</g>
<!-- 5 -->
<g id="node6" class="node">
<title>5</title>
<ellipse fill="none" stroke="black" cx="109" cy="-18" rx="27" ry="18"/>
<text text-anchor="middle" x="109" y="-13.8" font-family="Times,serif" font-size="14.00">5</text>
</g>
<!-- 4&#45;&gt;5 -->
<g id="edge5" class="edge">
<title>4&#45;&gt;5</title>
<path fill="none" stroke="black" d="M22.34,-93.88C20.09,-81.75 19.31,-65.64 27,-54 36.98,-38.89 54.97,-30.28 71.56,-25.38"/>
<polygon fill="black" stroke="black" points="72.4,-28.78 81.23,-22.93 70.68,-22 72.4,-28.78"/>
<text text-anchor="start" x="31" y="-62.2" font-family="Courier New" font-weight="bold" font-size="12.00" fill="blue">C_ACCEPT(0,IDC_POLE)</text>
</g>
<!-- 5&#45;&gt;1 -->
<g id="edge6" class="edge">
<title>5&#45;&gt;1</title>
<path fill="none" stroke="black" d="M133.8,-25.58C148.99,-30.85 167.64,-39.77 179,-54 195.28,-74.38 193,-84.91 193,-111 193,-301 193,-301 193,-301 193,-327.09 195.28,-337.62 179,-358 170.21,-369 157.07,-376.83 144.53,-382.26"/>
<polygon fill="black" stroke="black" points="143.27,-378.99 135.21,-385.87 145.8,-385.52 143.27,-378.99"/>
<text text-anchor="start" x="197" y="-203.2" font-family="Courier New" font-weight="bold" font-size="12.00" fill="orange">DROP(0,0)</text>
</g>
</g>
</svg>
