<?xml version="1.0" encoding="UTF-8" standalone="no"?>
<!DOCTYPE svg PUBLIC "-//W3C//DTD SVG 1.1//EN"
 "http://www.w3.org/Graphics/SVG/1.1/DTD/svg11.dtd">
<!-- Generated by graphviz version 7.1.0 (20230121.1956)
 -->
<!-- Pages: 1 -->
<svg width="294pt" height="514pt"
 viewBox="0.00 0.00 294.00 514.00" xmlns="http://www.w3.org/2000/svg" xmlns:xlink="http://www.w3.org/1999/xlink">
<g id="graph0" class="graph" transform="scale(1 1) rotate(0) translate(4 510)">
<polygon fill="white" stroke="none" points="-4,4 -4,-510 290,-510 290,4 -4,4"/>
<!-- 0 -->
<g id="node1" class="node">
<title>0</title>
<ellipse fill="none" stroke="black" cx="106" cy="-488" rx="27" ry="18"/>
<text text-anchor="middle" x="106" y="-483.8" font-family="Times,serif" font-size="14.00">0</text>
</g>
<!-- 1 -->
<g id="node2" class="node">
<title>1</title>
<ellipse fill="none" stroke="black" cx="106" cy="-394" rx="27" ry="18"/>
<text text-anchor="middle" x="106" y="-389.8" font-family="Times,serif" font-size="14.00">1</text>
</g>
<!-- 0&#45;&gt;1 -->
<g id="edge1" class="edge">
<title>0&#45;&gt;1</title>
<path fill="none" stroke="black" d="M106,-469.7C106,-456.72 106,-438.66 106,-423.56"/>
<polygon fill="black" stroke="black" points="109.5,-423.74 106,-413.74 102.5,-423.74 109.5,-423.74"/>
<text text-anchor="start" x="110" y="-438.2" font-family="Courier New" font-weight="bold" font-size="12.00" fill="blue">ASSIGN(WOBJECTIDD_POLE1)</text>
</g>
<!-- 2 -->
<g id="node3" class="node">
<title>2</title>
<ellipse fill="none" stroke="black" cx="47" cy="-300" rx="27" ry="18"/>
<text text-anchor="middle" x="47" y="-295.8" font-family="Times,serif" font-size="14.00">2</text>
</g>
<!-- 1&#45;&gt;2 -->
<g id="edge2" class="edge">
<title>1&#45;&gt;2</title>
<path fill="none" stroke="black" d="M89.45,-379.6C82.75,-373.54 75.35,-365.96 70,-358 64.06,-349.15 59.25,-338.53 55.59,-328.86"/>
<polygon fill="black" stroke="black" points="58.94,-327.83 52.34,-319.55 52.34,-330.14 58.94,-327.83"/>
<text text-anchor="start" x="74.5" y="-344.2" font-family="Courier New" font-weight="bold" font-size="12.00" fill="blue">SHOW(WOBJECT)</text>
</g>
<!-- 3 -->
<g id="node4" class="node">
<title>3</title>
<ellipse fill="none" stroke="black" cx="31" cy="-206" rx="27" ry="18"/>
<text text-anchor="middle" x="31" y="-201.8" font-family="Times,serif" font-size="14.00">3</text>
</g>
<!-- 2&#45;&gt;3 -->
<g id="edge3" class="edge">
<title>2&#45;&gt;3</title>
<path fill="none" stroke="black" d="M43.99,-281.7C41.73,-268.72 38.59,-250.66 35.97,-235.56"/>
<polygon fill="black" stroke="black" points="39.42,-234.97 34.26,-225.72 32.52,-236.17 39.42,-234.97"/>
<text text-anchor="start" x="45.5" y="-250.2" font-family="Courier New" font-weight="bold" font-size="12.00" fill="orange">GRAB(00)</text>
</g>
<!-- 4 -->
<g id="node5" class="node">
<title>4</title>
<ellipse fill="none" stroke="black" cx="27" cy="-112" rx="27" ry="18"/>
<text text-anchor="middle" x="27" y="-107.8" font-family="Times,serif" font-size="14.00">4</text>
</g>
<!-- 3&#45;&gt;4 -->
<g id="edge4" class="edge">
<title>3&#45;&gt;4</title>
<path fill="none" stroke="black" d="M30.25,-187.7C29.68,-174.72 28.9,-156.66 28.24,-141.56"/>
<polygon fill="black" stroke="black" points="31.75,-141.58 27.81,-131.74 24.75,-141.88 31.75,-141.58"/>
<text text-anchor="start" x="34.5" y="-156.2" font-family="Courier New" font-weight="bold" font-size="12.00" fill="blue">SHOW(00)</text>
</g>
<!-- 5 -->
<g id="node6" class="node">
<title>5</title>
<ellipse fill="none" stroke="black" cx="105" cy="-18" rx="27" ry="18"/>
<text text-anchor="middle" x="105" y="-13.8" font-family="Times,serif" font-size="14.00">5</text>
</g>
<!-- 4&#45;&gt;5 -->
<g id="edge5" class="edge">
<title>4&#45;&gt;5</title>
<path fill="none" stroke="black" d="M22.41,-93.92C20.19,-81.82 19.42,-65.71 27,-54 36.15,-39.86 52.51,-31.38 67.9,-26.32"/>
<polygon fill="black" stroke="black" points="68.69,-29.73 77.35,-23.62 66.77,-23 68.69,-29.73"/>
<text text-anchor="start" x="31" y="-62.2" font-family="Courier New" font-weight="bold" font-size="12.00" fill="blue">C_ACCEPT(0IDC_POLE)</text>
</g>
<!-- 5&#45;&gt;1 -->
<g id="edge6" class="edge">
<title>5&#45;&gt;1</title>
<path fill="none" stroke="black" d="M129.37,-26.3C143.52,-31.75 160.56,-40.6 171,-54 187.04,-74.58 185,-84.91 185,-111 185,-301 185,-301 185,-301 185,-327.09 186.97,-337.37 171,-358 163.27,-367.98 151.86,-375.47 140.75,-380.89"/>
<polygon fill="black" stroke="black" points="139.45,-377.64 131.71,-384.87 142.27,-384.05 139.45,-377.64"/>
<text text-anchor="start" x="189.5" y="-203.2" font-family="Courier New" font-weight="bold" font-size="12.00" fill="orange">DROP(00)</text>
</g>
</g>
</svg>
