<?xml version="1.0" encoding="UTF-8" standalone="no"?>
<!DOCTYPE svg PUBLIC "-//W3C//DTD SVG 1.1//EN"
 "http://www.w3.org/Graphics/SVG/1.1/DTD/svg11.dtd">
<!-- Generated by graphviz version 7.1.0 (20230121.1956)
 -->
<!-- Pages: 1 -->
<svg width="312pt" height="494pt"
 viewBox="0.00 0.00 312.08 494.00" xmlns="http://www.w3.org/2000/svg" xmlns:xlink="http://www.w3.org/1999/xlink">
<g id="graph0" class="graph" transform="scale(1 1) rotate(0) translate(4 490)">
<polygon fill="white" stroke="none" points="-4,4 -4,-490 308.08,-490 308.08,4 -4,4"/>
<!-- M_POLESTAND_0 -->
<g id="node1" class="node">
<title>M_POLESTAND_0</title>
<polygon fill="none" stroke="black" points="85,-449.5 85,-485.5 216.12,-485.5 216.12,-449.5 85,-449.5"/>
<text text-anchor="middle" x="150.56" y="-463.3" font-family="Times,serif" font-size="14.00">M_POLESTAND_0</text>
</g>
<!-- M_POLESTAND_1 -->
<g id="node2" class="node">
<title>M_POLESTAND_1</title>
<polygon fill="none" stroke="black" points="85,-359.7 85,-395.7 216.12,-395.7 216.12,-359.7 85,-359.7"/>
<text text-anchor="middle" x="150.56" y="-373.5" font-family="Times,serif" font-size="14.00">M_POLESTAND_1</text>
</g>
<!-- M_POLESTAND_0&#45;&gt;M_POLESTAND_1 -->
<g id="edge1" class="edge">
<title>M_POLESTAND_0&#45;&gt;M_POLESTAND_1</title>
<path fill="none" stroke="green" d="M150.56,-449.57C150.56,-437.42 150.56,-420.78 150.56,-406.67"/>
<polygon fill="green" stroke="green" points="154.06,-407.09 150.56,-397.09 147.06,-407.09 154.06,-407.09"/>
<text text-anchor="start" x="150.56" y="-419.4" font-family="Times,serif" font-size="14.00" fill="green"> </text>
<text text-anchor="start" x="154.06" y="-419.4" font-family="Courier New" font-size="10.00" fill="green">ASSIGN(WOBJECT,IDD_POLE1)</text>
</g>
<!-- M_POLESTAND_2 -->
<g id="node3" class="node">
<title>M_POLESTAND_2</title>
<polygon fill="none" stroke="black" points="33,-269.9 33,-305.9 164.12,-305.9 164.12,-269.9 33,-269.9"/>
<text text-anchor="middle" x="98.56" y="-283.7" font-family="Times,serif" font-size="14.00">M_POLESTAND_2</text>
</g>
<!-- M_POLESTAND_1&#45;&gt;M_POLESTAND_2 -->
<g id="edge2" class="edge">
<title>M_POLESTAND_1&#45;&gt;M_POLESTAND_2</title>
<path fill="none" stroke="green" d="M119,-359.81C112.31,-354.73 106.07,-348.52 102.04,-341.2 98.04,-333.91 96.45,-325.17 96.06,-316.93"/>
<polygon fill="green" stroke="green" points="99.56,-317.01 96.19,-306.97 92.56,-316.92 99.56,-317.01"/>
<text text-anchor="start" x="102.56" y="-329.6" font-family="Times,serif" font-size="14.00" fill="green"> </text>
<text text-anchor="start" x="106.06" y="-329.6" font-family="Courier New" font-size="10.00" fill="green">SHOW(WOBJECT,)</text>
</g>
<!-- M_POLESTAND_3 -->
<g id="node4" class="node">
<title>M_POLESTAND_3</title>
<polygon fill="none" stroke="black" points="27,-180.1 27,-216.1 158.12,-216.1 158.12,-180.1 27,-180.1"/>
<text text-anchor="middle" x="92.56" y="-193.9" font-family="Times,serif" font-size="14.00">M_POLESTAND_3</text>
</g>
<!-- M_POLESTAND_2&#45;&gt;M_POLESTAND_3 -->
<g id="edge3" class="edge">
<title>M_POLESTAND_2&#45;&gt;M_POLESTAND_3</title>
<path fill="none" stroke="red" d="M97.4,-269.97C96.57,-257.82 95.43,-241.18 94.47,-227.07"/>
<polygon fill="red" stroke="red" points="97.99,-227.22 93.82,-217.49 91.01,-227.7 97.99,-227.22"/>
<text text-anchor="start" x="96.56" y="-239.8" font-family="Times,serif" font-size="14.00" fill="red"> </text>
<text text-anchor="start" x="100.06" y="-239.8" font-family="Courier New" font-size="10.00" fill="red">GRAB(0,0)</text>
</g>
<!-- M_POLESTAND_4 -->
<g id="node5" class="node">
<title>M_POLESTAND_4</title>
<polygon fill="none" stroke="black" points="0,-90.3 0,-126.3 131.12,-126.3 131.12,-90.3 0,-90.3"/>
<text text-anchor="middle" x="65.56" y="-104.1" font-family="Times,serif" font-size="14.00">M_POLESTAND_4</text>
</g>
<!-- M_POLESTAND_3&#45;&gt;M_POLESTAND_4 -->
<g id="edge4" class="edge">
<title>M_POLESTAND_3&#45;&gt;M_POLESTAND_4</title>
<path fill="none" stroke="green" d="M87.35,-180.17C83.58,-167.9 78.4,-151.05 74.03,-136.85"/>
<polygon fill="green" stroke="green" points="77.48,-136.15 71.19,-127.62 70.79,-138.21 77.48,-136.15"/>
<text text-anchor="start" x="81.56" y="-150" font-family="Times,serif" font-size="14.00" fill="green"> </text>
<text text-anchor="start" x="85.06" y="-150" font-family="Courier New" font-size="10.00" fill="green">SHOW(0,0)</text>
</g>
<!-- M_POLESTAND_5 -->
<g id="node6" class="node">
<title>M_POLESTAND_5</title>
<polygon fill="none" stroke="black" points="68,-0.5 68,-36.5 199.12,-36.5 199.12,-0.5 68,-0.5"/>
<text text-anchor="middle" x="133.56" y="-14.3" font-family="Times,serif" font-size="14.00">M_POLESTAND_5</text>
</g>
<!-- M_POLESTAND_4&#45;&gt;M_POLESTAND_5 -->
<g id="edge5" class="edge">
<title>M_POLESTAND_4&#45;&gt;M_POLESTAND_5</title>
<path fill="none" stroke="green" d="M61.54,-90.55C59.87,-79.64 59.61,-65.54 66.04,-55 68.75,-50.56 72.22,-46.64 76.16,-43.19"/>
<polygon fill="green" stroke="green" points="78.2,-46.03 84.17,-37.28 74.05,-40.4 78.2,-46.03"/>
<text text-anchor="start" x="66.56" y="-60.2" font-family="Times,serif" font-size="14.00" fill="green"> </text>
<text text-anchor="start" x="70.06" y="-60.2" font-family="Courier New" font-size="10.00" fill="green">C_ACCEPT(0,IDC_POLE)</text>
</g>
<!-- M_POLESTAND_5&#45;&gt;M_POLESTAND_1 -->
<g id="edge6" class="edge">
<title>M_POLESTAND_5&#45;&gt;M_POLESTAND_1</title>
<path fill="none" stroke="red" d="M169.13,-36.43C176.78,-41.49 184.17,-47.67 189.56,-55 203.81,-74.39 203.56,-83.24 203.56,-107.3 203.56,-288.9 203.56,-288.9 203.56,-288.9 203.56,-312.96 202.07,-320.65 189.56,-341.2 187.27,-344.96 184.46,-348.57 181.41,-351.94"/>
<polygon fill="red" stroke="red" points="179.2,-349.2 174.56,-358.73 184.13,-354.17 179.2,-349.2"/>
<text text-anchor="start" x="203.56" y="-194.9" font-family="Times,serif" font-size="14.00" fill="red"> </text>
<text text-anchor="start" x="207.06" y="-194.9" font-family="Courier New" font-size="10.00" fill="red">DROP(0,0)</text>
</g>
</g>
</svg>
