<?xml version="1.0" encoding="UTF-8" standalone="no"?>
<!DOCTYPE svg PUBLIC "-//W3C//DTD SVG 1.1//EN"
 "http://www.w3.org/Graphics/SVG/1.1/DTD/svg11.dtd">
<!-- Generated by graphviz version 7.1.0 (20230121.1956)
 -->
<!-- Pages: 1 -->
<svg width="222pt" height="138pt"
 viewBox="0.00 0.00 222.15 138.00" xmlns="http://www.w3.org/2000/svg" xmlns:xlink="http://www.w3.org/1999/xlink">
<g id="graph0" class="graph" transform="scale(1 1) rotate(0) translate(4 134)">
<polygon fill="white" stroke="none" points="-4,4 -4,-134 218.15,-134 218.15,4 -4,4"/>
<!-- 0 -->
<g id="node1" class="node">
<title>0</title>
<ellipse fill="none" stroke="black" cx="46.15" cy="-112" rx="27" ry="18"/>
<text text-anchor="middle" x="46.15" y="-107.8" font-family="Times,serif" font-size="14.00">0</text>
</g>
<!-- 1 -->
<g id="node2" class="node">
<title>1</title>
<ellipse fill="none" stroke="black" cx="46.15" cy="-18" rx="27" ry="18"/>
<text text-anchor="middle" x="46.15" y="-13.8" font-family="Times,serif" font-size="14.00">1</text>
</g>
<!-- 0&#45;&gt;1 -->
<g id="edge1" class="edge">
<title>0&#45;&gt;1</title>
<path fill="none" stroke="black" d="M25.94,-100.09C17.22,-94.22 7.94,-86.08 3.15,-76 -1.05,-67.17 -1.05,-62.83 3.15,-54 6.3,-47.38 11.37,-41.61 16.95,-36.75"/>
<polygon fill="black" stroke="black" points="18.9,-39.67 24.73,-30.82 14.66,-34.1 18.9,-39.67"/>
<text text-anchor="start" x="7.65" y="-62.2" font-family="Courier New" font-weight="bold" font-size="12.00" fill="orange">DROP(00)</text>
</g>
<!-- 1&#45;&gt;0 -->
<g id="edge2" class="edge">
<title>1&#45;&gt;0</title>
<path fill="none" stroke="black" d="M58.49,-34.47C62.37,-40.25 66.16,-47.1 68.15,-54 70.86,-63.4 70.86,-66.6 68.15,-76 67.19,-79.34 65.8,-82.67 64.19,-85.87"/>
<polygon fill="black" stroke="black" points="61.32,-83.84 59.26,-94.23 67.35,-87.39 61.32,-83.84"/>
<text text-anchor="start" x="74.15" y="-62.2" font-family="Courier New" font-weight="bold" font-size="12.00" fill="blue">VIDEO(0IDS_SMBURST)</text>
</g>
</g>
</svg>
