<?xml version="1.0" encoding="UTF-8" standalone="no"?>
<!DOCTYPE svg PUBLIC "-//W3C//DTD SVG 1.1//EN"
 "http://www.w3.org/Graphics/SVG/1.1/DTD/svg11.dtd">
<!-- Generated by graphviz version 7.1.0 (20230121.1956)
 -->
<!-- Title: Automaton Pages: 1 -->
<svg width="436pt" height="277pt"
 viewBox="0.00 0.00 436.00 277.00" xmlns="http://www.w3.org/2000/svg" xmlns:xlink="http://www.w3.org/1999/xlink">
<g id="graph0" class="graph" transform="scale(1 1) rotate(0) translate(4 273)">
<title>Automaton</title>
<polygon fill="white" stroke="none" points="-4,4 -4,-273 432,-273 432,4 -4,4"/>
<!-- filename -->
<g id="node1" class="node">
<title>filename</title>
<polygon fill="none" stroke="black" points="0,-216.5 0,-268.5 118,-268.5 118,-216.5 0,-216.5"/>
<polygon fill="none" stroke="black" points="11,-243.5 11,-261.5 107,-261.5 107,-243.5 11,-243.5"/>
<text text-anchor="start" x="16.99" y="-250.5" font-family="Courier New" font-weight="bold" font-size="10.00">M_REC_COMPLETE</text>
<polygon fill="none" stroke="black" points="11,-223.5 11,-241.5 107,-241.5 107,-223.5 11,-223.5"/>
<text text-anchor="start" x="14" y="-229.5" font-family="Courier New" font-size="10.00" fill="brown">start state = 0</text>
<polygon fill="none" stroke="black" points="8,-220.5 8,-264.5 110,-264.5 110,-220.5 8,-220.5"/>
</g>
<!-- 0 -->
<g id="node2" class="node">
<title>0</title>
<polyline fill="none" stroke="darkred" points="156,-231.5 170,-231.5"/>
<text text-anchor="start" x="159" y="-238.9" font-family="Courier New" font-weight="bold" font-size="14.00">0</text>
<path fill="none" stroke="darkred" d="M159.67,-228.5C159.67,-228.5 166.33,-228.5 166.33,-228.5 169.67,-228.5 173,-231.83 173,-235.17 173,-235.17 173,-249.83 173,-249.83 173,-253.17 169.67,-256.5 166.33,-256.5 166.33,-256.5 159.67,-256.5 159.67,-256.5 156.33,-256.5 153,-253.17 153,-249.83 153,-249.83 153,-235.17 153,-235.17 153,-231.83 156.33,-228.5 159.67,-228.5"/>
</g>
<!-- 100 -->
<g id="node3" class="node">
<title>100</title>
<polyline fill="none" stroke="darkred" points="63,-103 94,-103"/>
<text text-anchor="start" x="66" y="-110.4" font-family="Courier New" font-weight="bold" font-size="14.00">100</text>
<path fill="none" stroke="darkred" d="M68.83,-100C68.83,-100 87.17,-100 87.17,-100 91.83,-100 96.5,-104.67 96.5,-109.33 96.5,-109.33 96.5,-118.67 96.5,-118.67 96.5,-123.33 91.83,-128 87.17,-128 87.17,-128 68.83,-128 68.83,-128 64.17,-128 59.5,-123.33 59.5,-118.67 59.5,-118.67 59.5,-109.33 59.5,-109.33 59.5,-104.67 64.17,-100 68.83,-100"/>
</g>
<!-- 0&#45;&gt;100 -->
<g id="edge1" class="edge">
<title>0&#45;&gt;100</title>
<path fill="none" stroke="black" d="M142.09,-224.75C137.33,-221.49 132.15,-218.37 127,-216 97.03,-202.23 75.3,-224 55,-198 42.38,-181.84 49.88,-159.19 59.56,-141.63"/>
<polygon fill="black" stroke="black" points="62.44,-143.63 64.6,-133.26 56.44,-140.02 62.44,-143.63"/>
<polygon fill="none" stroke="black" points="58,-177 58,-195 256,-195 256,-177 58,-177"/>
<text text-anchor="start" x="96.99" y="-184" font-family="Courier New" font-weight="bold" font-size="10.00" fill="orange">WAIT(0,SIG_COMPLETE)</text>
<polygon fill="none" stroke="black" points="58,-157 58,-175 256,-175 256,-157 58,-157"/>
<text text-anchor="start" x="61" y="-163" font-family="Courier New" font-size="10.00" fill="blue">ASSIGN(WSPRITE,WIP1);SHOW(WIP1);</text>
<polygon fill="none" stroke="black" points="55,-154 55,-198 259,-198 259,-154 55,-154"/>
</g>
<!-- 101 -->
<g id="node4" class="node">
<title>101</title>
<polyline fill="none" stroke="darkred" points="172,-7 203,-7"/>
<text text-anchor="start" x="175" y="-14.4" font-family="Courier New" font-weight="bold" font-size="14.00">101</text>
<path fill="none" stroke="darkred" d="M177.83,-4C177.83,-4 196.17,-4 196.17,-4 200.83,-4 205.5,-8.67 205.5,-13.33 205.5,-13.33 205.5,-22.67 205.5,-22.67 205.5,-27.33 200.83,-32 196.17,-32 196.17,-32 177.83,-32 177.83,-32 173.17,-32 168.5,-27.33 168.5,-22.67 168.5,-22.67 168.5,-13.33 168.5,-13.33 168.5,-8.67 173.17,-4 177.83,-4"/>
</g>
<!-- 100&#45;&gt;101 -->
<g id="edge2" class="edge">
<title>100&#45;&gt;101</title>
<path fill="none" stroke="black" d="M97.49,-96.19C114.51,-81.52 139.43,-60.02 158.66,-43.44"/>
<polygon fill="black" stroke="black" points="160.88,-46.15 166.17,-36.97 156.31,-40.85 160.88,-46.15"/>
<text text-anchor="start" x="149" y="-62" font-family="Courier New" font-weight="bold" font-size="10.00" fill="orange">WAIT(0,SIG_RESET)</text>
</g>
<!-- 101&#45;&gt;0 -->
<g id="edge3" class="edge">
<title>101&#45;&gt;0</title>
<path fill="none" stroke="black" d="M213.74,-24.51C229.86,-29.36 249.12,-38.21 259,-54 292.95,-108.25 293.68,-144.21 259,-198 246.14,-217.94 221.67,-228.85 200.66,-234.75"/>
<polygon fill="black" stroke="black" points="200.07,-231.29 191.22,-237.1 201.77,-238.08 200.07,-231.29"/>
<polygon fill="none" stroke="black" points="287,-115 287,-133 425,-133 425,-115 287,-115"/>
<text text-anchor="start" x="319.99" y="-122" font-family="Courier New" font-weight="bold" font-size="10.00" fill="blue">Z_EPSILON(,)</text>
<polygon fill="none" stroke="black" points="287,-95 287,-113 425,-113 425,-95 287,-95"/>
<text text-anchor="start" x="290" y="-101" font-family="Courier New" font-size="10.00" fill="blue">CLEAR(WSPRITE);SHOW();</text>
<polygon fill="none" stroke="black" points="284,-92 284,-136 428,-136 428,-92 284,-92"/>
</g>
</g>
</svg>
