<?xml version="1.0" encoding="UTF-8" standalone="no"?>
<!DOCTYPE svg PUBLIC "-//W3C//DTD SVG 1.1//EN"
 "http://www.w3.org/Graphics/SVG/1.1/DTD/svg11.dtd">
<!-- Generated by graphviz version 7.1.0 (20230121.1956)
 -->
<!-- Pages: 1 -->
<svg width="881pt" height="822pt"
 viewBox="0.00 0.00 880.88 822.00" xmlns="http://www.w3.org/2000/svg" xmlns:xlink="http://www.w3.org/1999/xlink">
<g id="graph0" class="graph" transform="scale(1 1) rotate(0) translate(4 818)">
<polygon fill="white" stroke="none" points="-4,4 -4,-818 876.88,-818 876.88,4 -4,4"/>
<!-- 0 -->
<g id="node1" class="node">
<title>0</title>
<ellipse fill="none" stroke="black" cx="625.88" cy="-796" rx="27" ry="18"/>
<text text-anchor="middle" x="625.88" y="-791.8" font-family="Times,serif" font-size="14.00">0</text>
</g>
<!-- 1 -->
<g id="node2" class="node">
<title>1</title>
<ellipse fill="none" stroke="black" cx="625.88" cy="-702" rx="27" ry="18"/>
<text text-anchor="middle" x="625.88" y="-697.8" font-family="Times,serif" font-size="14.00">1</text>
</g>
<!-- 0&#45;&gt;1 -->
<g id="edge1" class="edge">
<title>0&#45;&gt;1</title>
<path fill="none" stroke="black" d="M625.88,-777.7C625.88,-764.72 625.88,-746.66 625.88,-731.56"/>
<polygon fill="black" stroke="black" points="629.38,-731.74 625.88,-721.74 622.38,-731.74 629.38,-731.74"/>
<text text-anchor="start" x="630.38" y="-746.2" font-family="Courier New" font-weight="bold" font-size="12.00" fill="blue">C_ACCEPT(0,IDC_TOKEN)</text>
</g>
<!-- 5 -->
<g id="node3" class="node">
<title>5</title>
<ellipse fill="none" stroke="black" cx="452.88" cy="-553" rx="27" ry="18"/>
<text text-anchor="middle" x="452.88" y="-548.8" font-family="Times,serif" font-size="14.00">5</text>
</g>
<!-- 1&#45;&gt;5 -->
<g id="edge2" class="edge">
<title>1&#45;&gt;5</title>
<path fill="none" stroke="black" d="M598.64,-700.75C569.48,-699.05 523.57,-692.01 494.88,-666 470.98,-644.32 460.62,-607.7 456.17,-582.26"/>
<polygon fill="black" stroke="black" points="459.67,-581.97 454.7,-572.61 452.75,-583.02 459.67,-581.97"/>
<polygon fill="none" stroke="black" points="498.38,-642.5 498.38,-662.5 609.38,-662.5 609.38,-642.5 498.38,-642.5"/>
<text text-anchor="start" x="510.68" y="-649.7" font-family="Courier New" font-weight="bold" font-size="12.00" fill="blue">Z_EPSILON(,)</text>
<polygon fill="none" stroke="black" points="498.38,-591.5 498.38,-640.5 609.38,-640.5 609.38,-591.5 498.38,-591.5"/>
<text text-anchor="start" x="501.38" y="-626.7" font-family="Times,serif" font-size="12.00" fill="blue">CLEAR(WOBJECT);</text>
<text text-anchor="start" x="501.38" y="-612.3" font-family="Times,serif" font-size="12.00" fill="blue">CLEAR(WPARM);</text>
<text text-anchor="start" x="501.38" y="-597.9" font-family="Times,serif" font-size="12.00" fill="blue">SHOW();</text>
<polygon fill="none" stroke="black" points="494.88,-589 494.88,-666 611.88,-666 611.88,-589 494.88,-589"/>
</g>
<!-- 10 -->
<g id="node4" class="node">
<title>10</title>
<ellipse fill="none" stroke="black" cx="404.88" cy="-433" rx="27" ry="18"/>
<text text-anchor="middle" x="404.88" y="-428.8" font-family="Times,serif" font-size="14.00">10</text>
</g>
<!-- 5&#45;&gt;10 -->
<g id="edge11" class="edge">
<title>5&#45;&gt;10</title>
<path fill="none" stroke="black" d="M425.99,-550.06C403.89,-546.89 373.89,-538.6 358.88,-517 346.71,-499.48 349.41,-488.11 358.88,-469 362.42,-461.87 368.17,-455.8 374.44,-450.82"/>
<polygon fill="black" stroke="black" points="376.34,-453.76 382.54,-445.16 372.33,-448.02 376.34,-453.76"/>
<text text-anchor="start" x="362.88" y="-490.2" font-family="Courier New" font-weight="bold" font-size="12.00" fill="orange">DROP(0,0)</text>
</g>
<!-- 5&#45;&gt;10 -->
<g id="edge12" class="edge">
<title>5&#45;&gt;10</title>
<path fill="none" stroke="black" d="M450.29,-534.8C447.24,-517.54 441.24,-490.49 430.88,-469 429.12,-465.34 426.96,-461.68 424.64,-458.18"/>
<polygon fill="black" stroke="black" points="427.47,-456.13 418.77,-450.09 421.81,-460.24 427.47,-456.13"/>
<polygon fill="none" stroke="black" points="448.88,-494 448.88,-514 600.88,-514 600.88,-494 448.88,-494"/>
<text text-anchor="start" x="470.87" y="-501.2" font-family="Courier New" font-weight="bold" font-size="12.00" fill="orange">WAIT(0,SIG_SET)</text>
<polygon fill="none" stroke="black" points="448.88,-472 448.88,-492 600.88,-492 600.88,-472 448.88,-472"/>
<text text-anchor="start" x="451.88" y="-478.2" font-family="Times,serif" font-size="12.00" fill="blue">MOV(WOBJECT,WTEMP1);</text>
<polygon fill="none" stroke="black" points="445.88,-469 445.88,-517 603.88,-517 603.88,-469 445.88,-469"/>
</g>
<!-- 40 -->
<g id="node5" class="node">
<title>40</title>
<ellipse fill="none" stroke="black" cx="258.88" cy="-284" rx="27" ry="18"/>
<text text-anchor="middle" x="258.88" y="-279.8" font-family="Times,serif" font-size="14.00">40</text>
</g>
<!-- 10&#45;&gt;40 -->
<g id="edge3" class="edge">
<title>10&#45;&gt;40</title>
<path fill="none" stroke="black" d="M377.98,-429.69C354.26,-426.28 320.24,-417.85 298.88,-397 276.16,-374.81 266.3,-338.85 262.05,-313.68"/>
<polygon fill="black" stroke="black" points="265.52,-313.18 260.6,-303.79 258.59,-314.19 265.52,-313.18"/>
<polygon fill="none" stroke="black" points="302.38,-373.5 302.38,-393.5 469.38,-393.5 469.38,-373.5 302.38,-373.5"/>
<text text-anchor="start" x="335.48" y="-380.7" font-family="Courier New" font-weight="bold" font-size="12.00" fill="blue">SHOW(WOBJECT,)</text>
<polygon fill="none" stroke="black" points="302.38,-322.5 302.38,-371.5 469.38,-371.5 469.38,-322.5 302.38,-322.5"/>
<text text-anchor="start" x="305.38" y="-357.7" font-family="Times,serif" font-size="12.00" fill="blue">ANIMATE(V_LOOP);</text>
<text text-anchor="start" x="305.38" y="-343.3" font-family="Times,serif" font-size="12.00" fill="blue">PLAYWAVE(SOUND_CLICK);</text>
<text text-anchor="start" x="305.38" y="-328.9" font-family="Times,serif" font-size="12.00" fill="blue">MOV(WPARM,WOBJECT);</text>
<polygon fill="none" stroke="black" points="298.88,-320 298.88,-397 471.88,-397 471.88,-320 298.88,-320"/>
</g>
<!-- 110 -->
<g id="node6" class="node">
<title>110</title>
<ellipse fill="none" stroke="black" cx="375.88" cy="-18" rx="27" ry="18"/>
<text text-anchor="middle" x="375.88" y="-13.8" font-family="Times,serif" font-size="14.00">110</text>
</g>
<!-- 40&#45;&gt;110 -->
<g id="edge8" class="edge">
<title>40&#45;&gt;110</title>
<path fill="none" stroke="black" d="M232.38,-279.41C180.74,-270.81 67.55,-243.83 19.88,-168 -7.16,-124.97 -7.68,-89.3 28.88,-54 50.75,-32.89 251.81,-23.36 337.5,-20.23"/>
<polygon fill="black" stroke="black" points="337.41,-23.74 347.28,-19.89 337.16,-16.74 337.41,-23.74"/>
<polygon fill="none" stroke="black" points="23.38,-145 23.38,-165 220.38,-165 220.38,-145 23.38,-145"/>
<text text-anchor="start" x="78.68" y="-152.2" font-family="Courier New" font-weight="bold" font-size="12.00" fill="blue">Z_EPSILON(,)</text>
<polygon fill="none" stroke="black" points="23.38,-123 23.38,-143 220.38,-143 220.38,-123 23.38,-123"/>
<text text-anchor="start" x="26.38" y="-129.2" font-family="Times,serif" font-size="12.00" fill="blue">ASSIGN(WPARM, IDD_REVERSIB);</text>
<polygon fill="none" stroke="black" points="19.88,-120 19.88,-168 222.88,-168 222.88,-120 19.88,-120"/>
</g>
<!-- 47 -->
<g id="node7" class="node">
<title>47</title>
<ellipse fill="none" stroke="black" cx="258.88" cy="-144" rx="27" ry="18"/>
<text text-anchor="middle" x="258.88" y="-139.8" font-family="Times,serif" font-size="14.00">47</text>
</g>
<!-- 40&#45;&gt;47 -->
<g id="edge7" class="edge">
<title>40&#45;&gt;47</title>
<path fill="none" stroke="black" d="M258.88,-265.52C258.88,-242.4 258.88,-201.34 258.88,-173.65"/>
<polygon fill="black" stroke="black" points="262.38,-173.85 258.88,-163.85 255.38,-173.85 262.38,-173.85"/>
<text text-anchor="start" x="262.88" y="-214.2" font-family="Courier New" font-weight="bold" font-size="12.00" fill="blue">NEQUALi(WPARM,IDD_REVERSIA)</text>
</g>
<!-- 110&#45;&gt;1 -->
<g id="edge5" class="edge">
<title>110&#45;&gt;1</title>
<path fill="none" stroke="black" d="M403.11,-20.07C467.91,-24.21 625.88,-44.41 625.88,-143 625.88,-554 625.88,-554 625.88,-554 625.88,-595.27 625.88,-643.06 625.88,-672.66"/>
<polygon fill="black" stroke="black" points="622.38,-672.29 625.88,-682.29 629.38,-672.29 622.38,-672.29"/>
<text text-anchor="start" x="629.88" y="-355.7" font-family="Courier New" font-weight="bold" font-size="12.00" fill="orange">GRAB(WPARM,)</text>
</g>
<!-- 110&#45;&gt;1 -->
<g id="edge6" class="edge">
<title>110&#45;&gt;1</title>
<path fill="none" stroke="black" d="M403.18,-19.82C446.11,-21.87 531.45,-29.03 598.88,-54 669.44,-80.13 742.88,-67.76 742.88,-143 742.88,-554 742.88,-554 742.88,-554 742.88,-610.65 689.04,-658.09 654.4,-682.75"/>
<polygon fill="black" stroke="black" points="652.7,-679.67 646.45,-688.22 656.67,-685.43 652.7,-679.67"/>
<text text-anchor="start" x="746.88" y="-355.7" font-family="Courier New" font-weight="bold" font-size="12.00" fill="orange">WAIT(0,SIG_CLEAR)</text>
</g>
<!-- 110&#45;&gt;10 -->
<g id="edge4" class="edge">
<title>110&#45;&gt;10</title>
<path fill="none" stroke="black" d="M402.89,-20.7C425.48,-23.71 456.42,-31.91 471.88,-54 482.81,-69.61 481.76,-380.7 471.88,-397 464.89,-408.55 452.7,-416.46 440.61,-421.81"/>
<polygon fill="black" stroke="black" points="439.63,-418.44 431.57,-425.32 442.16,-424.96 439.63,-418.44"/>
<polygon fill="none" stroke="black" points="482.38,-225 482.38,-245 601.38,-245 601.38,-225 482.38,-225"/>
<text text-anchor="start" x="516.68" y="-232.2" font-family="Courier New" font-weight="bold" font-size="12.00" fill="orange">DROP(,)</text>
<polygon fill="none" stroke="black" points="482.38,-189 482.38,-223 601.38,-223 601.38,-189 482.38,-189"/>
<text text-anchor="start" x="485.38" y="-209.2" font-family="Times,serif" font-size="12.00" fill="blue">HANDOFF(WPARM);</text>
<text text-anchor="start" x="485.38" y="-194.8" font-family="Times,serif" font-size="12.00" fill="blue">CLEAR(WPARM);</text>
<polygon fill="none" stroke="black" points="478.88,-186 478.88,-248 603.88,-248 603.88,-186 478.88,-186"/>
</g>
<!-- 47&#45;&gt;110 -->
<g id="edge9" class="edge">
<title>47&#45;&gt;110</title>
<path fill="none" stroke="black" d="M239.89,-130.79C232.64,-126.7 224.14,-122.53 215.88,-120 178.93,-108.67 68.76,-130.71 42.88,-102 28.6,-86.15 28.61,-69.85 42.88,-54 62.3,-32.44 253.96,-23.22 337.4,-20.21"/>
<polygon fill="black" stroke="black" points="337.28,-23.71 347.15,-19.87 337.03,-16.72 337.28,-23.71"/>
<text text-anchor="start" x="46.88" y="-75.2" font-family="Courier New" font-weight="bold" font-size="12.00" fill="blue">NEQUALi(WPARM,IDD_REVERSIB)</text>
</g>
<!-- 47&#45;&gt;110 -->
<g id="edge10" class="edge">
<title>47&#45;&gt;110</title>
<path fill="none" stroke="black" d="M255.53,-125.88C252.74,-106.29 251.5,-74.3 267.88,-54 284.59,-33.31 313.68,-24.7 337.47,-21.2"/>
<polygon fill="black" stroke="black" points="337.63,-24.7 347.14,-20.03 336.79,-17.75 337.63,-24.7"/>
<polygon fill="none" stroke="black" points="270.88,-79 270.88,-99 468.88,-99 468.88,-79 270.88,-79"/>
<text text-anchor="start" x="326.68" y="-86.2" font-family="Courier New" font-weight="bold" font-size="12.00" fill="blue">Z_EPSILON(,)</text>
<polygon fill="none" stroke="black" points="270.88,-57 270.88,-77 468.88,-77 468.88,-57 270.88,-57"/>
<text text-anchor="start" x="273.88" y="-63.2" font-family="Times,serif" font-size="12.00" fill="blue">ASSIGN(WPARM, IDD_REVERSIA);</text>
<polygon fill="none" stroke="black" points="267.88,-54 267.88,-102 471.88,-102 471.88,-54 267.88,-54"/>
</g>
</g>
</svg>
