<?xml version="1.0" encoding="UTF-8" standalone="no"?>
<!DOCTYPE svg PUBLIC "-//W3C//DTD SVG 1.1//EN"
 "http://www.w3.org/Graphics/SVG/1.1/DTD/svg11.dtd">
<!-- Generated by graphviz version 7.1.0 (20230121.1956)
 -->
<!-- Pages: 1 -->
<svg width="302pt" height="494pt"
 viewBox="0.00 0.00 301.85 494.00" xmlns="http://www.w3.org/2000/svg" xmlns:xlink="http://www.w3.org/1999/xlink">
<g id="graph0" class="graph" transform="scale(1 1) rotate(0) translate(4 490)">
<polygon fill="white" stroke="none" points="-4,4 -4,-490 297.85,-490 297.85,4 -4,4"/>
<!-- M_STATEDOOR_0 -->
<g id="node1" class="node">
<title>M_STATEDOOR_0</title>
<polygon fill="none" stroke="black" points="61,-449.5 61,-485.5 193.67,-485.5 193.67,-449.5 61,-449.5"/>
<text text-anchor="middle" x="127.33" y="-463.3" font-family="Times,serif" font-size="14.00">M_STATEDOOR_0</text>
</g>
<!-- M_STATEDOOR_1 -->
<g id="node2" class="node">
<title>M_STATEDOOR_1</title>
<polygon fill="none" stroke="black" points="1,-359.7 1,-395.7 133.67,-395.7 133.67,-359.7 1,-359.7"/>
<text text-anchor="middle" x="67.33" y="-373.5" font-family="Times,serif" font-size="14.00">M_STATEDOOR_1</text>
</g>
<!-- M_STATEDOOR_0&#45;&gt;M_STATEDOOR_1 -->
<g id="edge1" class="edge">
<title>M_STATEDOOR_0&#45;&gt;M_STATEDOOR_1</title>
<path fill="none" stroke="green" d="M87.07,-449.51C79.81,-444.61 73.18,-438.5 68.82,-431 64.6,-423.74 63.23,-414.91 63.21,-406.58"/>
<polygon fill="green" stroke="green" points="66.68,-407.07 63.82,-396.87 59.7,-406.63 66.68,-407.07"/>
<text text-anchor="start" x="69.33" y="-419.4" font-family="Times,serif" font-size="14.00" fill="green"> </text>
<text text-anchor="start" x="72.83" y="-419.4" font-family="Courier New" font-size="10.00" fill="green">MOV(WSPRITE,WIP2)</text>
</g>
<!-- M_STATEDOOR_2 -->
<g id="node3" class="node">
<title>M_STATEDOOR_2</title>
<polygon fill="none" stroke="black" points="0,-269.9 0,-305.9 132.67,-305.9 132.67,-269.9 0,-269.9"/>
<text text-anchor="middle" x="66.33" y="-283.7" font-family="Times,serif" font-size="14.00">M_STATEDOOR_2</text>
</g>
<!-- M_STATEDOOR_1&#45;&gt;M_STATEDOOR_2 -->
<g id="edge2" class="edge">
<title>M_STATEDOOR_1&#45;&gt;M_STATEDOOR_2</title>
<path fill="none" stroke="green" d="M67.14,-359.77C67,-347.62 66.81,-330.98 66.65,-316.87"/>
<polygon fill="green" stroke="green" points="70.16,-317.25 66.54,-307.29 63.16,-317.33 70.16,-317.25"/>
<text text-anchor="start" x="67.33" y="-329.6" font-family="Times,serif" font-size="14.00" fill="green"> </text>
<text text-anchor="start" x="70.83" y="-329.6" font-family="Courier New" font-size="10.00" fill="green">SHOW(WSPRITE,0)</text>
</g>
<!-- M_STATEDOOR_3 -->
<g id="node4" class="node">
<title>M_STATEDOOR_3</title>
<polygon fill="none" stroke="black" points="0,-180.1 0,-216.1 132.67,-216.1 132.67,-180.1 0,-180.1"/>
<text text-anchor="middle" x="66.33" y="-193.9" font-family="Times,serif" font-size="14.00">M_STATEDOOR_3</text>
</g>
<!-- M_STATEDOOR_2&#45;&gt;M_STATEDOOR_3 -->
<g id="edge3" class="edge">
<title>M_STATEDOOR_2&#45;&gt;M_STATEDOOR_3</title>
<path fill="none" stroke="red" d="M66.33,-269.97C66.33,-257.82 66.33,-241.18 66.33,-227.07"/>
<polygon fill="red" stroke="red" points="69.83,-227.49 66.33,-217.49 62.83,-227.49 69.83,-227.49"/>
<text text-anchor="start" x="66.33" y="-239.8" font-family="Times,serif" font-size="14.00" fill="red"> </text>
<text text-anchor="start" x="69.83" y="-239.8" font-family="Courier New" font-size="10.00" fill="red">WAIT(0,SIG_OPEN)</text>
</g>
<!-- M_STATEDOOR_5 -->
<g id="node5" class="node">
<title>M_STATEDOOR_5</title>
<polygon fill="none" stroke="black" points="7,-90.3 7,-126.3 139.67,-126.3 139.67,-90.3 7,-90.3"/>
<text text-anchor="middle" x="73.33" y="-104.1" font-family="Times,serif" font-size="14.00">M_STATEDOOR_5</text>
</g>
<!-- M_STATEDOOR_3&#45;&gt;M_STATEDOOR_5 -->
<g id="edge4" class="edge">
<title>M_STATEDOOR_3&#45;&gt;M_STATEDOOR_5</title>
<path fill="none" stroke="green" d="M66.8,-180.12C67.17,-169.88 67.79,-156.57 68.82,-144.8 69.02,-142.43 69.27,-139.98 69.54,-137.51"/>
<polygon fill="green" stroke="green" points="72.99,-138.09 70.72,-127.75 66.04,-137.25 72.99,-138.09"/>
<text text-anchor="start" x="69.33" y="-150" font-family="Times,serif" font-size="14.00" fill="green"> </text>
<text text-anchor="start" x="72.83" y="-150" font-family="Courier New" font-size="10.00" fill="green">MOV(WSPRITE,WIP1)</text>
</g>
<!-- M_STATEDOOR_10 -->
<g id="node6" class="node">
<title>M_STATEDOOR_10</title>
<polygon fill="none" stroke="black" points="60.5,-0.5 60.5,-36.5 200.17,-36.5 200.17,-0.5 60.5,-0.5"/>
<text text-anchor="middle" x="130.33" y="-14.3" font-family="Times,serif" font-size="14.00">M_STATEDOOR_10</text>
</g>
<!-- M_STATEDOOR_5&#45;&gt;M_STATEDOOR_10 -->
<g id="edge5" class="edge">
<title>M_STATEDOOR_5&#45;&gt;M_STATEDOOR_10</title>
<path fill="none" stroke="green" d="M72.46,-90.63C72.64,-79.76 74.35,-65.66 80.82,-55 83.32,-50.88 86.5,-47.1 90.04,-43.67"/>
<polygon fill="green" stroke="green" points="92.22,-46.41 97.63,-37.29 87.72,-41.05 92.22,-46.41"/>
<text text-anchor="start" x="81.33" y="-60.2" font-family="Times,serif" font-size="14.00" fill="green"> </text>
<text text-anchor="start" x="84.83" y="-60.2" font-family="Courier New" font-size="10.00" fill="green">SHOW(WSPRITE,0)</text>
</g>
<!-- M_STATEDOOR_10&#45;&gt;M_STATEDOOR_0 -->
<g id="edge6" class="edge">
<title>M_STATEDOOR_10&#45;&gt;M_STATEDOOR_0</title>
<path fill="none" stroke="red" d="M156.68,-36.31C163.26,-41.6 169.73,-47.92 174.33,-55 187.46,-75.17 188.33,-83.24 188.33,-107.3 188.33,-378.7 188.33,-378.7 188.33,-378.7 188.33,-402.76 187.78,-411.04 174.33,-431 171.64,-435.01 168.33,-438.74 164.74,-442.18"/>
<polygon fill="red" stroke="red" points="162.49,-439.49 157.13,-448.63 167.02,-444.83 162.49,-439.49"/>
<text text-anchor="start" x="188.33" y="-239.8" font-family="Times,serif" font-size="14.00" fill="red"> </text>
<text text-anchor="start" x="191.83" y="-239.8" font-family="Courier New" font-size="10.00" fill="red">WAIT(0,SIG_CLOSE)</text>
</g>
</g>
</svg>
