<?xml version="1.0" encoding="UTF-8" standalone="no"?>
<!DOCTYPE svg PUBLIC "-//W3C//DTD SVG 1.1//EN"
 "http://www.w3.org/Graphics/SVG/1.1/DTD/svg11.dtd">
<!-- Generated by graphviz version 7.1.0 (20230121.1956)
 -->
<!-- Pages: 1 -->
<svg width="297pt" height="514pt"
 viewBox="0.00 0.00 297.00 514.00" xmlns="http://www.w3.org/2000/svg" xmlns:xlink="http://www.w3.org/1999/xlink">
<g id="graph0" class="graph" transform="scale(1 1) rotate(0) translate(4 510)">
<polygon fill="white" stroke="none" points="-4,4 -4,-510 293,-510 293,4 -4,4"/>
<!-- 0 -->
<g id="node1" class="node">
<title>0</title>
<ellipse fill="none" stroke="black" cx="97" cy="-488" rx="27" ry="18"/>
<text text-anchor="middle" x="97" y="-483.8" font-family="Times,serif" font-size="14.00">0</text>
</g>
<!-- 1 -->
<g id="node2" class="node">
<title>1</title>
<ellipse fill="none" stroke="black" cx="27" cy="-394" rx="27" ry="18"/>
<text text-anchor="middle" x="27" y="-389.8" font-family="Times,serif" font-size="14.00">1</text>
</g>
<!-- 0&#45;&gt;1 -->
<g id="edge1" class="edge">
<title>0&#45;&gt;1</title>
<path fill="none" stroke="black" d="M71.88,-480.97C56.71,-475.91 38.53,-467.02 29,-452 23.72,-443.68 22.24,-433.21 22.41,-423.52"/>
<polygon fill="black" stroke="black" points="25.88,-424.04 23.17,-413.8 18.9,-423.5 25.88,-424.04"/>
<text text-anchor="start" x="33.5" y="-438.2" font-family="Courier New" font-weight="bold" font-size="12.00" fill="blue">MOV(WSPRITEWIP2)</text>
</g>
<!-- 2 -->
<g id="node3" class="node">
<title>2</title>
<ellipse fill="none" stroke="black" cx="27" cy="-300" rx="27" ry="18"/>
<text text-anchor="middle" x="27" y="-295.8" font-family="Times,serif" font-size="14.00">2</text>
</g>
<!-- 1&#45;&gt;2 -->
<g id="edge2" class="edge">
<title>1&#45;&gt;2</title>
<path fill="none" stroke="black" d="M27,-375.7C27,-362.72 27,-344.66 27,-329.56"/>
<polygon fill="black" stroke="black" points="30.5,-329.74 27,-319.74 23.5,-329.74 30.5,-329.74"/>
<text text-anchor="start" x="31" y="-344.2" font-family="Courier New" font-weight="bold" font-size="12.00" fill="blue">SHOW(WSPRITE0)</text>
</g>
<!-- 3 -->
<g id="node5" class="node">
<title>3</title>
<ellipse fill="none" stroke="black" cx="28" cy="-206" rx="27" ry="18"/>
<text text-anchor="middle" x="28" y="-201.8" font-family="Times,serif" font-size="14.00">3</text>
</g>
<!-- 2&#45;&gt;3 -->
<g id="edge4" class="edge">
<title>2&#45;&gt;3</title>
<path fill="none" stroke="black" d="M27.19,-281.7C27.33,-268.72 27.53,-250.66 27.69,-235.56"/>
<polygon fill="black" stroke="black" points="31.19,-235.78 27.8,-225.74 24.19,-235.7 31.19,-235.78"/>
<text text-anchor="start" x="32" y="-250.2" font-family="Courier New" font-weight="bold" font-size="12.00" fill="orange">WAIT(0SIG_OPEN)</text>
</g>
<!-- 10 -->
<g id="node4" class="node">
<title>10</title>
<ellipse fill="none" stroke="black" cx="100" cy="-18" rx="27" ry="18"/>
<text text-anchor="middle" x="100" y="-13.8" font-family="Times,serif" font-size="14.00">10</text>
</g>
<!-- 10&#45;&gt;0 -->
<g id="edge3" class="edge">
<title>10&#45;&gt;0</title>
<path fill="none" stroke="black" d="M121.84,-28.93C132.43,-34.79 144.46,-43.2 152,-54 166.94,-75.39 166,-84.91 166,-111 166,-395 166,-395 166,-395 166,-421.09 167.21,-430.81 152,-452 146.17,-460.13 137.8,-466.82 129.35,-472.09"/>
<polygon fill="black" stroke="black" points="127.84,-468.92 120.86,-476.89 131.28,-475.02 127.84,-468.92"/>
<text text-anchor="start" x="170.5" y="-250.2" font-family="Courier New" font-weight="bold" font-size="12.00" fill="orange">WAIT(0SIG_CLOSE)</text>
</g>
<!-- 5 -->
<g id="node6" class="node">
<title>5</title>
<ellipse fill="none" stroke="black" cx="32" cy="-112" rx="27" ry="18"/>
<text text-anchor="middle" x="32" y="-107.8" font-family="Times,serif" font-size="14.00">5</text>
</g>
<!-- 3&#45;&gt;5 -->
<g id="edge5" class="edge">
<title>3&#45;&gt;5</title>
<path fill="none" stroke="black" d="M28,-187.53C28.08,-176.24 28.32,-161.24 29,-148 29.11,-145.94 29.24,-143.82 29.38,-141.68"/>
<polygon fill="black" stroke="black" points="32.85,-142.18 30.15,-131.94 25.88,-141.63 32.85,-142.18"/>
<text text-anchor="start" x="33.5" y="-156.2" font-family="Courier New" font-weight="bold" font-size="12.00" fill="blue">MOV(WSPRITEWIP1)</text>
</g>
<!-- 5&#45;&gt;10 -->
<g id="edge6" class="edge">
<title>5&#45;&gt;10</title>
<path fill="none" stroke="black" d="M32.16,-93.64C33.06,-81.56 35.89,-65.61 44,-54 49.85,-45.62 58.42,-38.84 67.1,-33.55"/>
<polygon fill="black" stroke="black" points="68.77,-36.63 75.85,-28.75 65.4,-30.49 68.77,-36.63"/>
<text text-anchor="start" x="48" y="-62.2" font-family="Courier New" font-weight="bold" font-size="12.00" fill="blue">SHOW(WSPRITE0)</text>
</g>
</g>
</svg>
