<?xml version="1.0" encoding="UTF-8" standalone="no"?>
<!DOCTYPE svg PUBLIC "-//W3C//DTD SVG 1.1//EN"
 "http://www.w3.org/Graphics/SVG/1.1/DTD/svg11.dtd">
<!-- Generated by graphviz version 7.1.0 (20230121.1956)
 -->
<!-- Pages: 1 -->
<svg width="311pt" height="514pt"
 viewBox="0.00 0.00 311.00 514.00" xmlns="http://www.w3.org/2000/svg" xmlns:xlink="http://www.w3.org/1999/xlink">
<g id="graph0" class="graph" transform="scale(1 1) rotate(0) translate(4 510)">
<polygon fill="white" stroke="none" points="-4,4 -4,-510 307,-510 307,4 -4,4"/>
<!-- 0 -->
<g id="node1" class="node">
<title>0</title>
<ellipse fill="none" stroke="black" cx="100" cy="-488" rx="27" ry="18"/>
<text text-anchor="middle" x="100" y="-483.8" font-family="Times,serif" font-size="14.00">0</text>
</g>
<!-- 1 -->
<g id="node2" class="node">
<title>1</title>
<ellipse fill="none" stroke="black" cx="27" cy="-394" rx="27" ry="18"/>
<text text-anchor="middle" x="27" y="-389.8" font-family="Times,serif" font-size="14.00">1</text>
</g>
<!-- 0&#45;&gt;1 -->
<g id="edge1" class="edge">
<title>0&#45;&gt;1</title>
<path fill="none" stroke="black" d="M74.51,-481.48C58.55,-476.59 39.15,-467.7 29,-452 23.61,-443.66 22.14,-433.12 22.34,-423.37"/>
<polygon fill="black" stroke="black" points="25.81,-423.84 23.14,-413.58 18.83,-423.26 25.81,-423.84"/>
<text text-anchor="start" x="33" y="-438.2" font-family="Courier New" font-weight="bold" font-size="12.00" fill="blue">MOV(WSPRITE,WIP2)</text>
</g>
<!-- 2 -->
<g id="node3" class="node">
<title>2</title>
<ellipse fill="none" stroke="black" cx="27" cy="-300" rx="27" ry="18"/>
<text text-anchor="middle" x="27" y="-295.8" font-family="Times,serif" font-size="14.00">2</text>
</g>
<!-- 1&#45;&gt;2 -->
<g id="edge2" class="edge">
<title>1&#45;&gt;2</title>
<path fill="none" stroke="black" d="M27,-375.7C27,-362.72 27,-344.66 27,-329.56"/>
<polygon fill="black" stroke="black" points="30.5,-329.74 27,-319.74 23.5,-329.74 30.5,-329.74"/>
<text text-anchor="start" x="31" y="-344.2" font-family="Courier New" font-weight="bold" font-size="12.00" fill="blue">SHOW(WSPRITE,0)</text>
</g>
<!-- 3 -->
<g id="node5" class="node">
<title>3</title>
<ellipse fill="none" stroke="black" cx="28" cy="-206" rx="27" ry="18"/>
<text text-anchor="middle" x="28" y="-201.8" font-family="Times,serif" font-size="14.00">3</text>
</g>
<!-- 2&#45;&gt;3 -->
<g id="edge4" class="edge">
<title>2&#45;&gt;3</title>
<path fill="none" stroke="black" d="M27.19,-281.7C27.33,-268.72 27.53,-250.66 27.69,-235.56"/>
<polygon fill="black" stroke="black" points="31.19,-235.78 27.8,-225.74 24.19,-235.7 31.19,-235.78"/>
<text text-anchor="start" x="32.5" y="-250.2" font-family="Courier New" font-weight="bold" font-size="12.00" fill="orange">WAIT(0,SIG_OPEN)</text>
</g>
<!-- 10 -->
<g id="node4" class="node">
<title>10</title>
<ellipse fill="none" stroke="black" cx="104" cy="-18" rx="27" ry="18"/>
<text text-anchor="middle" x="104" y="-13.8" font-family="Times,serif" font-size="14.00">10</text>
</g>
<!-- 10&#45;&gt;0 -->
<g id="edge3" class="edge">
<title>10&#45;&gt;0</title>
<path fill="none" stroke="black" d="M126.54,-28.37C137.87,-34.17 150.88,-42.69 159,-54 174.21,-75.19 173,-84.91 173,-111 173,-395 173,-395 173,-395 173,-421.09 174.54,-431.05 159,-452 152.44,-460.85 142.91,-467.88 133.42,-473.24"/>
<polygon fill="black" stroke="black" points="131.94,-470.06 124.62,-477.73 135.12,-476.3 131.94,-470.06"/>
<text text-anchor="start" x="177" y="-250.2" font-family="Courier New" font-weight="bold" font-size="12.00" fill="orange">WAIT(0,SIG_CLOSE)</text>
</g>
<!-- 5 -->
<g id="node6" class="node">
<title>5</title>
<ellipse fill="none" stroke="black" cx="32" cy="-112" rx="27" ry="18"/>
<text text-anchor="middle" x="32" y="-107.8" font-family="Times,serif" font-size="14.00">5</text>
</g>
<!-- 3&#45;&gt;5 -->
<g id="edge5" class="edge">
<title>3&#45;&gt;5</title>
<path fill="none" stroke="black" d="M28,-187.53C28.08,-176.24 28.32,-161.24 29,-148 29.11,-145.94 29.24,-143.82 29.38,-141.68"/>
<polygon fill="black" stroke="black" points="32.85,-142.18 30.15,-131.94 25.88,-141.63 32.85,-142.18"/>
<text text-anchor="start" x="33" y="-156.2" font-family="Courier New" font-weight="bold" font-size="12.00" fill="blue">MOV(WSPRITE,WIP1)</text>
</g>
<!-- 5&#45;&gt;10 -->
<g id="edge6" class="edge">
<title>5&#45;&gt;10</title>
<path fill="none" stroke="black" d="M31.68,-93.57C32.28,-81.45 34.8,-65.48 43,-54 49.74,-44.56 59.88,-37.31 69.97,-31.92"/>
<polygon fill="black" stroke="black" points="71.44,-35.09 78.95,-27.62 68.42,-28.78 71.44,-35.09"/>
<text text-anchor="start" x="47" y="-62.2" font-family="Courier New" font-weight="bold" font-size="12.00" fill="blue">SHOW(WSPRITE,0)</text>
</g>
</g>
</svg>
