<?xml version="1.0" encoding="UTF-8" standalone="no"?>
<!DOCTYPE svg PUBLIC "-//W3C//DTD SVG 1.1//EN"
 "http://www.w3.org/Graphics/SVG/1.1/DTD/svg11.dtd">
<!-- Generated by graphviz version 7.1.0 (20230121.1956)
 -->
<!-- Pages: 1 -->
<svg width="254pt" height="404pt"
 viewBox="0.00 0.00 254.18 404.20" xmlns="http://www.w3.org/2000/svg" xmlns:xlink="http://www.w3.org/1999/xlink">
<g id="graph0" class="graph" transform="scale(1 1) rotate(0) translate(4 400.2)">
<polygon fill="white" stroke="none" points="-4,4 -4,-400.2 250.18,-400.2 250.18,4 -4,4"/>
<!-- M_STATESCALE_0 -->
<g id="node1" class="node">
<title>M_STATESCALE_0</title>
<polygon fill="none" stroke="black" points="61,-359.7 61,-395.7 198.34,-395.7 198.34,-359.7 61,-359.7"/>
<text text-anchor="middle" x="129.67" y="-373.5" font-family="Times,serif" font-size="14.00">M_STATESCALE_0</text>
</g>
<!-- M_STATESCALE_1 -->
<g id="node2" class="node">
<title>M_STATESCALE_1</title>
<polygon fill="none" stroke="black" points="1,-269.9 1,-305.9 138.34,-305.9 138.34,-269.9 1,-269.9"/>
<text text-anchor="middle" x="69.67" y="-283.7" font-family="Times,serif" font-size="14.00">M_STATESCALE_1</text>
</g>
<!-- M_STATESCALE_0&#45;&gt;M_STATESCALE_1 -->
<g id="edge1" class="edge">
<title>M_STATESCALE_0&#45;&gt;M_STATESCALE_1</title>
<path fill="none" stroke="red" d="M93.64,-359.78C86.43,-354.79 79.69,-348.62 75.15,-341.2 70.75,-334 68.81,-325.18 68.13,-316.85"/>
<polygon fill="red" stroke="red" points="71.64,-317.05 67.92,-307.13 64.64,-317.21 71.64,-317.05"/>
<text text-anchor="start" x="75.67" y="-329.6" font-family="Times,serif" font-size="14.00" fill="red"> </text>
<text text-anchor="start" x="79.17" y="-329.6" font-family="Courier New" font-size="10.00" fill="red">WAIT(0,SIG_SHOW)</text>
</g>
<!-- M_STATESCALE_5 -->
<g id="node3" class="node">
<title>M_STATESCALE_5</title>
<polygon fill="none" stroke="black" points="0,-180.1 0,-216.1 137.34,-216.1 137.34,-180.1 0,-180.1"/>
<text text-anchor="middle" x="68.67" y="-193.9" font-family="Times,serif" font-size="14.00">M_STATESCALE_5</text>
</g>
<!-- M_STATESCALE_1&#45;&gt;M_STATESCALE_5 -->
<g id="edge2" class="edge">
<title>M_STATESCALE_1&#45;&gt;M_STATESCALE_5</title>
<path fill="none" stroke="green" d="M69.4,-269.93C69.32,-264.06 69.22,-257.44 69.15,-251.4 69.06,-243.65 68.98,-235.26 68.9,-227.52"/>
<polygon fill="green" stroke="green" points="72.4,-227.54 68.82,-217.57 65.4,-227.6 72.4,-227.54"/>
<text text-anchor="start" x="69.67" y="-239.8" font-family="Times,serif" font-size="14.00" fill="green"> </text>
<text text-anchor="start" x="73.17" y="-239.8" font-family="Courier New" font-size="10.00" fill="green">MOV(WSPRITE,WIP1)</text>
</g>
<!-- M_STATESCALE_10 -->
<g id="node4" class="node">
<title>M_STATESCALE_10</title>
<polygon fill="none" stroke="black" points="0.5,-90.3 0.5,-126.3 144.84,-126.3 144.84,-90.3 0.5,-90.3"/>
<text text-anchor="middle" x="72.67" y="-104.1" font-family="Times,serif" font-size="14.00">M_STATESCALE_10</text>
</g>
<!-- M_STATESCALE_5&#45;&gt;M_STATESCALE_10 -->
<g id="edge3" class="edge">
<title>M_STATESCALE_5&#45;&gt;M_STATESCALE_10</title>
<path fill="none" stroke="green" d="M69.44,-180.17C69.99,-168.02 70.75,-151.38 71.39,-137.27"/>
<polygon fill="green" stroke="green" points="74.87,-137.84 71.83,-127.69 67.88,-137.52 74.87,-137.84"/>
<text text-anchor="start" x="71.67" y="-150" font-family="Times,serif" font-size="14.00" fill="green"> </text>
<text text-anchor="start" x="75.17" y="-150" font-family="Courier New" font-size="10.00" fill="green">SHOW(WSPRITE,0)</text>
</g>
<!-- M_STATESCALE_11 -->
<g id="node5" class="node">
<title>M_STATESCALE_11</title>
<polygon fill="none" stroke="black" points="58.5,-0.5 58.5,-36.5 202.84,-36.5 202.84,-0.5 58.5,-0.5"/>
<text text-anchor="middle" x="130.67" y="-14.3" font-family="Times,serif" font-size="14.00">M_STATESCALE_11</text>
</g>
<!-- M_STATESCALE_10&#45;&gt;M_STATESCALE_11 -->
<g id="edge4" class="edge">
<title>M_STATESCALE_10&#45;&gt;M_STATESCALE_11</title>
<path fill="none" stroke="red" d="M69.71,-90.65C68.65,-79.79 68.96,-65.7 75.15,-55 77.67,-50.65 80.96,-46.75 84.68,-43.27"/>
<polygon fill="red" stroke="red" points="86.58,-46.23 92.2,-37.26 82.21,-40.76 86.58,-46.23"/>
<text text-anchor="start" x="75.67" y="-60.2" font-family="Times,serif" font-size="14.00" fill="red"> </text>
<text text-anchor="start" x="79.17" y="-60.2" font-family="Courier New" font-size="10.00" fill="red">WAIT(0,SIG_HIDE)</text>
</g>
<!-- M_STATESCALE_11&#45;&gt;M_STATESCALE_0 -->
<g id="edge5" class="edge">
<title>M_STATESCALE_11&#45;&gt;M_STATESCALE_0</title>
<path fill="none" stroke="green" d="M157.02,-36.31C163.59,-41.6 170.07,-47.92 174.67,-55 187.79,-75.17 188.67,-83.24 188.67,-107.3 188.67,-288.9 188.67,-288.9 188.67,-288.9 188.67,-312.96 187.9,-321.1 174.67,-341.2 172.02,-345.22 168.77,-348.99 165.23,-352.46"/>
<polygon fill="green" stroke="green" points="162.99,-349.77 157.76,-358.99 167.59,-355.04 162.99,-349.77"/>
<text text-anchor="start" x="188.67" y="-194.9" font-family="Times,serif" font-size="14.00" fill="green"> </text>
<text text-anchor="start" x="192.17" y="-194.9" font-family="Courier New" font-size="10.00" fill="green">SHOW(0,0)</text>
</g>
</g>
</svg>
