<?xml version="1.0" encoding="UTF-8" standalone="no"?>
<!DOCTYPE svg PUBLIC "-//W3C//DTD SVG 1.1//EN"
 "http://www.w3.org/Graphics/SVG/1.1/DTD/svg11.dtd">
<!-- Generated by graphviz version 7.1.0 (20230121.1956)
 -->
<!-- Pages: 1 -->
<svg width="243pt" height="420pt"
 viewBox="0.00 0.00 243.00 420.00" xmlns="http://www.w3.org/2000/svg" xmlns:xlink="http://www.w3.org/1999/xlink">
<g id="graph0" class="graph" transform="scale(1 1) rotate(0) translate(4 416)">
<polygon fill="white" stroke="none" points="-4,4 -4,-416 239,-416 239,4 -4,4"/>
<!-- 0 -->
<g id="node1" class="node">
<title>0</title>
<ellipse fill="none" stroke="black" cx="94" cy="-394" rx="27" ry="18"/>
<text text-anchor="middle" x="94" y="-389.8" font-family="Times,serif" font-size="14.00">0</text>
</g>
<!-- 1 -->
<g id="node2" class="node">
<title>1</title>
<ellipse fill="none" stroke="black" cx="27" cy="-300" rx="27" ry="18"/>
<text text-anchor="middle" x="27" y="-295.8" font-family="Times,serif" font-size="14.00">1</text>
</g>
<!-- 0&#45;&gt;1 -->
<g id="edge1" class="edge">
<title>0&#45;&gt;1</title>
<path fill="none" stroke="black" d="M69.9,-385.32C56.78,-379.84 41.53,-371.09 33,-358 27.59,-349.7 25.48,-339.24 24.93,-329.55"/>
<polygon fill="black" stroke="black" points="28.43,-329.82 24.9,-319.83 21.43,-329.84 28.43,-329.82"/>
<text text-anchor="start" x="37" y="-344.2" font-family="Courier New" font-weight="bold" font-size="12.00" fill="orange">WAIT(0SIG_SHOW)</text>
</g>
<!-- 5 -->
<g id="node3" class="node">
<title>5</title>
<ellipse fill="none" stroke="black" cx="27" cy="-206" rx="27" ry="18"/>
<text text-anchor="middle" x="27" y="-201.8" font-family="Times,serif" font-size="14.00">5</text>
</g>
<!-- 1&#45;&gt;5 -->
<g id="edge2" class="edge">
<title>1&#45;&gt;5</title>
<path fill="none" stroke="black" d="M26.4,-281.56C26.24,-275.95 26.08,-269.71 26,-264 25.86,-254.22 25.86,-251.78 26,-242 26.03,-239.95 26.07,-237.83 26.11,-235.69"/>
<polygon fill="black" stroke="black" points="29.61,-236.04 26.36,-225.96 22.61,-235.86 29.61,-236.04"/>
<text text-anchor="start" x="30.5" y="-250.2" font-family="Courier New" font-weight="bold" font-size="12.00" fill="blue">MOV(WSPRITEWIP1)</text>
</g>
<!-- 10 -->
<g id="node4" class="node">
<title>10</title>
<ellipse fill="none" stroke="black" cx="32" cy="-112" rx="27" ry="18"/>
<text text-anchor="middle" x="32" y="-107.8" font-family="Times,serif" font-size="14.00">10</text>
</g>
<!-- 5&#45;&gt;10 -->
<g id="edge5" class="edge">
<title>5&#45;&gt;10</title>
<path fill="none" stroke="black" d="M27.94,-187.7C28.65,-174.72 29.63,-156.66 30.45,-141.56"/>
<polygon fill="black" stroke="black" points="33.93,-141.91 30.98,-131.74 26.94,-141.53 33.93,-141.91"/>
<text text-anchor="start" x="35" y="-156.2" font-family="Courier New" font-weight="bold" font-size="12.00" fill="blue">ASHOW(WSPRITE0)</text>
</g>
<!-- 11 -->
<g id="node5" class="node">
<title>11</title>
<ellipse fill="none" stroke="black" cx="97" cy="-18" rx="27" ry="18"/>
<text text-anchor="middle" x="97" y="-13.8" font-family="Times,serif" font-size="14.00">11</text>
</g>
<!-- 10&#45;&gt;11 -->
<g id="edge3" class="edge">
<title>10&#45;&gt;11</title>
<path fill="none" stroke="black" d="M28.01,-93.8C26.2,-81.79 25.83,-65.86 33,-54 39.51,-43.24 50.59,-35.56 61.72,-30.2"/>
<polygon fill="black" stroke="black" points="63.03,-33.44 70.87,-26.32 60.3,-27 63.03,-33.44"/>
<text text-anchor="start" x="37" y="-62.2" font-family="Courier New" font-weight="bold" font-size="12.00" fill="orange">WAIT(0SIG_HIDE)</text>
</g>
<!-- 11&#45;&gt;0 -->
<g id="edge4" class="edge">
<title>11&#45;&gt;0</title>
<path fill="none" stroke="black" d="M118.84,-28.93C129.43,-34.79 141.46,-43.2 149,-54 163.94,-75.39 163,-84.91 163,-111 163,-301 163,-301 163,-301 163,-327.09 164.21,-336.81 149,-358 143.17,-366.13 134.8,-372.82 126.35,-378.09"/>
<polygon fill="black" stroke="black" points="124.84,-374.92 117.86,-382.89 128.28,-381.02 124.84,-374.92"/>
<text text-anchor="start" x="167" y="-203.2" font-family="Courier New" font-weight="bold" font-size="12.00" fill="blue">ASHOW(00)</text>
</g>
</g>
</svg>
