<?xml version="1.0" encoding="UTF-8" standalone="no"?>
<!DOCTYPE svg PUBLIC "-//W3C//DTD SVG 1.1//EN"
 "http://www.w3.org/Graphics/SVG/1.1/DTD/svg11.dtd">
<!-- Generated by graphviz version 7.1.0 (20230121.1956)
 -->
<!-- Pages: 1 -->
<svg width="258pt" height="420pt"
 viewBox="0.00 0.00 258.00 420.00" xmlns="http://www.w3.org/2000/svg" xmlns:xlink="http://www.w3.org/1999/xlink">
<g id="graph0" class="graph" transform="scale(1 1) rotate(0) translate(4 416)">
<polygon fill="white" stroke="none" points="-4,4 -4,-416 254,-416 254,4 -4,4"/>
<!-- 0 -->
<g id="node1" class="node">
<title>0</title>
<ellipse fill="none" stroke="black" cx="98" cy="-394" rx="27" ry="18"/>
<text text-anchor="middle" x="98" y="-389.8" font-family="Times,serif" font-size="14.00">0</text>
</g>
<!-- 1 -->
<g id="node2" class="node">
<title>1</title>
<ellipse fill="none" stroke="black" cx="27" cy="-300" rx="27" ry="18"/>
<text text-anchor="middle" x="27" y="-295.8" font-family="Times,serif" font-size="14.00">1</text>
</g>
<!-- 0&#45;&gt;1 -->
<g id="edge1" class="edge">
<title>0&#45;&gt;1</title>
<path fill="none" stroke="black" d="M73.33,-386.09C59.15,-380.78 42.35,-371.94 33,-358 27.48,-349.78 25.35,-339.33 24.8,-329.63"/>
<polygon fill="black" stroke="black" points="28.3,-329.89 24.8,-319.89 21.3,-329.89 28.3,-329.89"/>
<text text-anchor="start" x="37.5" y="-344.2" font-family="Courier New" font-weight="bold" font-size="12.00" fill="orange">WAIT(0,SIG_SHOW)</text>
</g>
<!-- 5 -->
<g id="node3" class="node">
<title>5</title>
<ellipse fill="none" stroke="black" cx="27" cy="-206" rx="27" ry="18"/>
<text text-anchor="middle" x="27" y="-201.8" font-family="Times,serif" font-size="14.00">5</text>
</g>
<!-- 1&#45;&gt;5 -->
<g id="edge2" class="edge">
<title>1&#45;&gt;5</title>
<path fill="none" stroke="black" d="M26.4,-281.56C26.24,-275.95 26.08,-269.71 26,-264 25.86,-254.22 25.86,-251.78 26,-242 26.03,-239.95 26.07,-237.83 26.11,-235.69"/>
<polygon fill="black" stroke="black" points="29.61,-236.04 26.36,-225.96 22.61,-235.86 29.61,-236.04"/>
<text text-anchor="start" x="30" y="-250.2" font-family="Courier New" font-weight="bold" font-size="12.00" fill="blue">MOV(WSPRITE,WIP1)</text>
</g>
<!-- 10 -->
<g id="node4" class="node">
<title>10</title>
<ellipse fill="none" stroke="black" cx="32" cy="-112" rx="27" ry="18"/>
<text text-anchor="middle" x="32" y="-107.8" font-family="Times,serif" font-size="14.00">10</text>
</g>
<!-- 5&#45;&gt;10 -->
<g id="edge5" class="edge">
<title>5&#45;&gt;10</title>
<path fill="none" stroke="black" d="M27.94,-187.7C28.65,-174.72 29.63,-156.66 30.45,-141.56"/>
<polygon fill="black" stroke="black" points="33.93,-141.91 30.98,-131.74 26.94,-141.53 33.93,-141.91"/>
<text text-anchor="start" x="35.5" y="-156.2" font-family="Courier New" font-weight="bold" font-size="12.00" fill="blue">ASHOW(WSPRITE,0)</text>
</g>
<!-- 11 -->
<g id="node5" class="node">
<title>11</title>
<ellipse fill="none" stroke="black" cx="101" cy="-18" rx="27" ry="18"/>
<text text-anchor="middle" x="101" y="-13.8" font-family="Times,serif" font-size="14.00">11</text>
</g>
<!-- 10&#45;&gt;11 -->
<g id="edge3" class="edge">
<title>10&#45;&gt;11</title>
<path fill="none" stroke="black" d="M27.92,-93.74C26.07,-81.71 25.68,-65.77 33,-54 40.27,-42.32 52.8,-34.36 65.14,-29.02"/>
<polygon fill="black" stroke="black" points="66.27,-32.33 74.38,-25.51 63.79,-25.79 66.27,-32.33"/>
<text text-anchor="start" x="37.5" y="-62.2" font-family="Courier New" font-weight="bold" font-size="12.00" fill="orange">WAIT(0,SIG_HIDE)</text>
</g>
<!-- 11&#45;&gt;0 -->
<g id="edge4" class="edge">
<title>11&#45;&gt;0</title>
<path fill="none" stroke="black" d="M123.54,-28.37C134.87,-34.17 147.88,-42.69 156,-54 171.21,-75.19 170,-84.91 170,-111 170,-301 170,-301 170,-301 170,-327.09 171.46,-336.99 156,-358 149.6,-366.7 140.33,-373.66 131.08,-379.01"/>
<polygon fill="black" stroke="black" points="129.75,-375.75 122.52,-383.49 133,-381.95 129.75,-375.75"/>
<text text-anchor="start" x="174" y="-203.2" font-family="Courier New" font-weight="bold" font-size="12.00" fill="blue">ASHOW(0,0)</text>
</g>
</g>
</svg>
