<?xml version="1.0" encoding="UTF-8" standalone="no"?>
<!DOCTYPE svg PUBLIC "-//W3C//DTD SVG 1.1//EN"
 "http://www.w3.org/Graphics/SVG/1.1/DTD/svg11.dtd">
<!-- Generated by graphviz version 7.1.0 (20230121.1956)
 -->
<!-- Title: Automaton Pages: 1 -->
<svg width="300pt" height="429pt"
 viewBox="0.00 0.00 300.00 429.00" xmlns="http://www.w3.org/2000/svg" xmlns:xlink="http://www.w3.org/1999/xlink">
<g id="graph0" class="graph" transform="scale(1 1) rotate(0) translate(4 425)">
<title>Automaton</title>
<polygon fill="white" stroke="none" points="-4,4 -4,-425 296,-425 296,4 -4,4"/>
<!-- filename -->
<g id="node1" class="node">
<title>filename</title>
<polygon fill="none" stroke="black" points="0,-368.5 0,-420.5 118,-420.5 118,-368.5 0,-368.5"/>
<polygon fill="none" stroke="black" points="11,-395.5 11,-413.5 107,-413.5 107,-395.5 11,-395.5"/>
<text text-anchor="start" x="19.99" y="-402.5" font-family="Courier New" font-weight="bold" font-size="10.00">M_STATESCALEV</text>
<polygon fill="none" stroke="black" points="11,-375.5 11,-393.5 107,-393.5 107,-375.5 11,-375.5"/>
<text text-anchor="start" x="14" y="-381.5" font-family="Courier New" font-size="10.00" fill="brown">start state = 0</text>
<polygon fill="none" stroke="black" points="8,-372.5 8,-416.5 110,-416.5 110,-372.5 8,-372.5"/>
</g>
<!-- 0 -->
<g id="node2" class="node">
<title>0</title>
<polyline fill="none" stroke="darkred" points="156,-383.5 170,-383.5"/>
<text text-anchor="start" x="159" y="-390.9" font-family="Courier New" font-weight="bold" font-size="14.00">0</text>
<path fill="none" stroke="darkred" d="M159.67,-380.5C159.67,-380.5 166.33,-380.5 166.33,-380.5 169.67,-380.5 173,-383.83 173,-387.17 173,-387.17 173,-401.83 173,-401.83 173,-405.17 169.67,-408.5 166.33,-408.5 166.33,-408.5 159.67,-408.5 159.67,-408.5 156.33,-408.5 153,-405.17 153,-401.83 153,-401.83 153,-387.17 153,-387.17 153,-383.83 156.33,-380.5 159.67,-380.5"/>
</g>
<!-- 1 -->
<g id="node3" class="node">
<title>1</title>
<polyline fill="none" stroke="darkred" points="93,-283 107,-283"/>
<text text-anchor="start" x="96" y="-290.4" font-family="Courier New" font-weight="bold" font-size="14.00">1</text>
<path fill="none" stroke="darkred" d="M96.67,-280C96.67,-280 103.33,-280 103.33,-280 106.67,-280 110,-283.33 110,-286.67 110,-286.67 110,-301.33 110,-301.33 110,-304.67 106.67,-308 103.33,-308 103.33,-308 96.67,-308 96.67,-308 93.33,-308 90,-304.67 90,-301.33 90,-301.33 90,-286.67 90,-286.67 90,-283.33 93.33,-280 96.67,-280"/>
</g>
<!-- 0&#45;&gt;1 -->
<g id="edge1" class="edge">
<title>0&#45;&gt;1</title>
<path fill="none" stroke="black" d="M139.18,-376.68C124.51,-366.09 108.11,-353.74 106,-350 101.47,-341.97 99.49,-332.24 98.79,-323.2"/>
<polygon fill="black" stroke="black" points="102.3,-323.34 98.54,-313.44 95.3,-323.53 102.3,-323.34"/>
<text text-anchor="start" x="110" y="-338" font-family="Courier New" font-weight="bold" font-size="10.00" fill="orange">WAIT(0,SIG_SHOW)</text>
</g>
<!-- 5 -->
<g id="node4" class="node">
<title>5</title>
<polyline fill="none" stroke="darkred" points="94,-191 108,-191"/>
<text text-anchor="start" x="97" y="-198.4" font-family="Courier New" font-weight="bold" font-size="14.00">5</text>
<path fill="none" stroke="darkred" d="M97.67,-188C97.67,-188 104.33,-188 104.33,-188 107.67,-188 111,-191.33 111,-194.67 111,-194.67 111,-209.33 111,-209.33 111,-212.67 107.67,-216 104.33,-216 104.33,-216 97.67,-216 97.67,-216 94.33,-216 91,-212.67 91,-209.33 91,-209.33 91,-194.67 91,-194.67 91,-191.33 94.33,-188 97.67,-188"/>
</g>
<!-- 1&#45;&gt;5 -->
<g id="edge2" class="edge">
<title>1&#45;&gt;5</title>
<path fill="none" stroke="black" d="M99.88,-276.15C99.83,-265.26 99.82,-250.79 100,-238 100.03,-235.77 100.08,-233.45 100.13,-231.13"/>
<polygon fill="black" stroke="black" points="103.62,-231.33 100.39,-221.25 96.62,-231.15 103.62,-231.33"/>
<text text-anchor="start" x="104" y="-246" font-family="Courier New" font-weight="bold" font-size="10.00" fill="blue">MOV(WSPRITE,WIP1)</text>
</g>
<!-- 10 -->
<g id="node5" class="node">
<title>10</title>
<polyline fill="none" stroke="darkred" points="94,-99 116,-99"/>
<text text-anchor="start" x="97" y="-106.4" font-family="Courier New" font-weight="bold" font-size="14.00">10</text>
<path fill="none" stroke="darkred" d="M100.33,-96C100.33,-96 109.67,-96 109.67,-96 114.33,-96 119,-100.67 119,-105.33 119,-105.33 119,-114.67 119,-114.67 119,-119.33 114.33,-124 109.67,-124 109.67,-124 100.33,-124 100.33,-124 95.67,-124 91,-119.33 91,-114.67 91,-114.67 91,-105.33 91,-105.33 91,-100.67 95.67,-96 100.33,-96"/>
</g>
<!-- 5&#45;&gt;10 -->
<g id="edge5" class="edge">
<title>5&#45;&gt;10</title>
<path fill="none" stroke="black" d="M101.75,-184.07C102.32,-171.38 103.1,-153.71 103.76,-138.94"/>
<polygon fill="black" stroke="black" points="107.24,-139.51 104.18,-129.36 100.24,-139.2 107.24,-139.51"/>
<text text-anchor="start" x="108" y="-154" font-family="Courier New" font-weight="bold" font-size="10.00" fill="blue">ASHOW(WSPRITE,0)</text>
</g>
<!-- 11 -->
<g id="node6" class="node">
<title>11</title>
<polyline fill="none" stroke="darkred" points="153,-7 175,-7"/>
<text text-anchor="start" x="156" y="-14.4" font-family="Courier New" font-weight="bold" font-size="14.00">11</text>
<path fill="none" stroke="darkred" d="M159.33,-4C159.33,-4 168.67,-4 168.67,-4 173.33,-4 178,-8.67 178,-13.33 178,-13.33 178,-22.67 178,-22.67 178,-27.33 173.33,-32 168.67,-32 168.67,-32 159.33,-32 159.33,-32 154.67,-32 150,-27.33 150,-22.67 150,-22.67 150,-13.33 150,-13.33 150,-8.67 154.67,-4 159.33,-4"/>
</g>
<!-- 10&#45;&gt;11 -->
<g id="edge3" class="edge">
<title>10&#45;&gt;11</title>
<path fill="none" stroke="black" d="M101.32,-92.49C99.65,-80.95 99.32,-65.58 106,-54 110.9,-45.51 118.76,-38.83 127.13,-33.69"/>
<polygon fill="black" stroke="black" points="128.57,-36.89 135.72,-29.07 125.25,-30.73 128.57,-36.89"/>
<text text-anchor="start" x="110" y="-62" font-family="Courier New" font-weight="bold" font-size="10.00" fill="orange">WAIT(0,SIG_HIDE)</text>
</g>
<!-- 11&#45;&gt;0 -->
<g id="edge4" class="edge">
<title>11&#45;&gt;0</title>
<path fill="none" stroke="black" d="M190.65,-34.56C197.85,-39.91 205.01,-46.47 210,-54 223.92,-75.03 224,-83.78 224,-109 224,-295 224,-295 224,-295 224,-320.22 222.9,-328.32 210,-350 205.95,-356.81 200.52,-363.19 194.78,-368.86"/>
<polygon fill="black" stroke="black" points="192.43,-366.28 187.41,-375.61 197.15,-371.44 192.43,-366.28"/>
<text text-anchor="start" x="228" y="-200" font-family="Courier New" font-weight="bold" font-size="10.00" fill="blue">ASHOW(0,0)</text>
</g>
</g>
</svg>
