<?xml version="1.0" encoding="UTF-8" standalone="no"?>
<!DOCTYPE svg PUBLIC "-//W3C//DTD SVG 1.1//EN"
 "http://www.w3.org/Graphics/SVG/1.1/DTD/svg11.dtd">
<!-- Generated by graphviz version 7.1.0 (20230121.1956)
 -->
<!-- Title: Automaton Pages: 1 -->
<svg width="402pt" height="429pt"
 viewBox="0.00 0.00 402.00 429.00" xmlns="http://www.w3.org/2000/svg" xmlns:xlink="http://www.w3.org/1999/xlink">
<g id="graph0" class="graph" transform="scale(1 1) rotate(0) translate(4 425)">
<title>Automaton</title>
<polygon fill="white" stroke="none" points="-4,4 -4,-425 398,-425 398,4 -4,4"/>
<!-- filename -->
<g id="node1" class="node">
<title>filename</title>
<polygon fill="none" stroke="black" points="0,-368.5 0,-420.5 118,-420.5 118,-368.5 0,-368.5"/>
<polygon fill="none" stroke="black" points="11,-395.5 11,-413.5 107,-413.5 107,-395.5 11,-395.5"/>
<text text-anchor="start" x="25.99" y="-402.5" font-family="Courier New" font-weight="bold" font-size="10.00">M_TEXT_DOWN</text>
<polygon fill="none" stroke="black" points="11,-375.5 11,-393.5 107,-393.5 107,-375.5 11,-375.5"/>
<text text-anchor="start" x="14" y="-381.5" font-family="Courier New" font-size="10.00" fill="brown">start state = 0</text>
<polygon fill="none" stroke="black" points="8,-372.5 8,-416.5 110,-416.5 110,-372.5 8,-372.5"/>
</g>
<!-- 0 -->
<g id="node2" class="node">
<title>0</title>
<polyline fill="none" stroke="darkred" points="156,-383.5 170,-383.5"/>
<text text-anchor="start" x="159" y="-390.9" font-family="Courier New" font-weight="bold" font-size="14.00">0</text>
<path fill="none" stroke="darkred" d="M159.67,-380.5C159.67,-380.5 166.33,-380.5 166.33,-380.5 169.67,-380.5 173,-383.83 173,-387.17 173,-387.17 173,-401.83 173,-401.83 173,-405.17 169.67,-408.5 166.33,-408.5 166.33,-408.5 159.67,-408.5 159.67,-408.5 156.33,-408.5 153,-405.17 153,-401.83 153,-401.83 153,-387.17 153,-387.17 153,-383.83 156.33,-380.5 159.67,-380.5"/>
</g>
<!-- 1 -->
<g id="node3" class="node">
<title>1</title>
<polyline fill="none" stroke="darkred" points="69,-283 83,-283"/>
<text text-anchor="start" x="72" y="-290.4" font-family="Courier New" font-weight="bold" font-size="14.00">1</text>
<path fill="none" stroke="darkred" d="M72.67,-280C72.67,-280 79.33,-280 79.33,-280 82.67,-280 86,-283.33 86,-286.67 86,-286.67 86,-301.33 86,-301.33 86,-304.67 82.67,-308 79.33,-308 79.33,-308 72.67,-308 72.67,-308 69.33,-308 66,-304.67 66,-301.33 66,-301.33 66,-286.67 66,-286.67 66,-283.33 69.33,-280 72.67,-280"/>
</g>
<!-- 0&#45;&gt;1 -->
<g id="edge1" class="edge">
<title>0&#45;&gt;1</title>
<path fill="none" stroke="black" d="M148.24,-376.79C134.49,-361.23 113.81,-337.81 98.1,-320.02"/>
<polygon fill="black" stroke="black" points="101.08,-318.1 91.83,-312.93 95.83,-322.74 101.08,-318.1"/>
<text text-anchor="start" x="127" y="-338" font-family="Courier New" font-weight="bold" font-size="10.00" fill="orange">CLICK(0,0)</text>
</g>
<!-- 2 -->
<g id="node4" class="node">
<title>2</title>
<polyline fill="none" stroke="darkred" points="44,-191 58,-191"/>
<text text-anchor="start" x="47" y="-198.4" font-family="Courier New" font-weight="bold" font-size="14.00">2</text>
<path fill="none" stroke="darkred" d="M47.67,-188C47.67,-188 54.33,-188 54.33,-188 57.67,-188 61,-191.33 61,-194.67 61,-194.67 61,-209.33 61,-209.33 61,-212.67 57.67,-216 54.33,-216 54.33,-216 47.67,-216 47.67,-216 44.33,-216 41,-212.67 41,-209.33 41,-209.33 41,-194.67 41,-194.67 41,-191.33 44.33,-188 47.67,-188"/>
</g>
<!-- 1&#45;&gt;2 -->
<g id="edge2" class="edge">
<title>1&#45;&gt;2</title>
<path fill="none" stroke="black" d="M69.8,-276.02C67.83,-270.33 65.71,-263.92 64,-258 61.49,-249.32 59.11,-239.76 57.08,-231.08"/>
<polygon fill="black" stroke="black" points="60.52,-230.42 54.89,-221.44 53.69,-231.96 60.52,-230.42"/>
<text text-anchor="start" x="68" y="-246" font-family="Courier New" font-weight="bold" font-size="10.00" fill="blue">PLAYWAVE(0,SOUND_CLICK)</text>
</g>
<!-- 3 -->
<g id="node5" class="node">
<title>3</title>
<polyline fill="none" stroke="darkred" points="53,-99 67,-99"/>
<text text-anchor="start" x="56" y="-106.4" font-family="Courier New" font-weight="bold" font-size="14.00">3</text>
<path fill="none" stroke="darkred" d="M56.67,-96C56.67,-96 63.33,-96 63.33,-96 66.67,-96 70,-99.33 70,-102.67 70,-102.67 70,-117.33 70,-117.33 70,-120.67 66.67,-124 63.33,-124 63.33,-124 56.67,-124 56.67,-124 53.33,-124 50,-120.67 50,-117.33 50,-117.33 50,-102.67 50,-102.67 50,-99.33 53.33,-96 56.67,-96"/>
</g>
<!-- 2&#45;&gt;3 -->
<g id="edge3" class="edge">
<title>2&#45;&gt;3</title>
<path fill="none" stroke="black" d="M43.6,-184.02C39.82,-173.09 36.65,-158.61 40,-146 40.74,-143.22 41.76,-140.43 42.94,-137.7"/>
<polygon fill="black" stroke="black" points="45.95,-139.5 47.44,-129.01 39.74,-136.29 45.95,-139.5"/>
<text text-anchor="start" x="44" y="-154" font-family="Courier New" font-weight="bold" font-size="10.00" fill="blue">SENDMSGI(10,IDV_S_TELETYPE)</text>
</g>
<!-- 4 -->
<g id="node6" class="node">
<title>4</title>
<polyline fill="none" stroke="darkred" points="145,-7 159,-7"/>
<text text-anchor="start" x="148" y="-14.4" font-family="Courier New" font-weight="bold" font-size="14.00">4</text>
<path fill="none" stroke="darkred" d="M148.67,-4C148.67,-4 155.33,-4 155.33,-4 158.67,-4 162,-7.33 162,-10.67 162,-10.67 162,-25.33 162,-25.33 162,-28.67 158.67,-32 155.33,-32 155.33,-32 148.67,-32 148.67,-32 145.33,-32 142,-28.67 142,-25.33 142,-25.33 142,-10.67 142,-10.67 142,-7.33 145.33,-4 148.67,-4"/>
</g>
<!-- 3&#45;&gt;4 -->
<g id="edge4" class="edge">
<title>3&#45;&gt;4</title>
<path fill="none" stroke="black" d="M77.3,-92.07C91.31,-78.37 111.23,-58.89 126.97,-43.48"/>
<polygon fill="black" stroke="black" points="128.99,-46.41 133.69,-36.91 124.1,-41.4 128.99,-46.41"/>
<text text-anchor="start" x="119" y="-62" font-family="Courier New" font-weight="bold" font-size="10.00" fill="blue">EMTIME(0,250)</text>
</g>
<!-- 4&#45;&gt;0 -->
<g id="edge5" class="edge">
<title>4&#45;&gt;0</title>
<path fill="none" stroke="black" d="M178.98,-32.11C188.29,-37.75 198.11,-45.11 205,-54 220.85,-74.43 224,-83.14 224,-109 224,-295 224,-295 224,-295 224,-323 205.96,-349.68 189.5,-368.19"/>
<polygon fill="black" stroke="black" points="186.95,-365.8 182.67,-375.49 192.06,-370.58 186.95,-365.8"/>
<text text-anchor="start" x="228" y="-200" font-family="Courier New" font-weight="bold" font-size="10.00" fill="blue">SENDMSGI(11,IDV_S_TELETYPE)</text>
</g>
</g>
</svg>
