<?xml version="1.0" encoding="UTF-8" standalone="no"?>
<!DOCTYPE svg PUBLIC "-//W3C//DTD SVG 1.1//EN"
 "http://www.w3.org/Graphics/SVG/1.1/DTD/svg11.dtd">
<!-- Generated by graphviz version 7.1.0 (20230121.1956)
 -->
<!-- Pages: 1 -->
<svg width="369pt" height="412pt"
 viewBox="0.00 0.00 369.00 412.00" xmlns="http://www.w3.org/2000/svg" xmlns:xlink="http://www.w3.org/1999/xlink">
<g id="graph0" class="graph" transform="scale(1 1) rotate(0) translate(4 408)">
<polygon fill="white" stroke="none" points="-4,4 -4,-408 365,-408 365,4 -4,4"/>
<!-- 0 -->
<g id="node1" class="node">
<title>0</title>
<ellipse fill="none" stroke="black" cx="116" cy="-386" rx="27" ry="18"/>
<text text-anchor="middle" x="116" y="-381.8" font-family="Times,serif" font-size="14.00">0</text>
</g>
<!-- 1 -->
<g id="node2" class="node">
<title>1</title>
<ellipse fill="none" stroke="black" cx="51" cy="-294" rx="27" ry="18"/>
<text text-anchor="middle" x="51" y="-289.8" font-family="Times,serif" font-size="14.00">1</text>
</g>
<!-- 0&#45;&gt;1 -->
<g id="edge1" class="edge">
<title>0&#45;&gt;1</title>
<path fill="none" stroke="black" d="M104.68,-369.32C94.86,-355.73 80.47,-335.8 69.06,-320.01"/>
<polygon fill="black" stroke="black" points="71.99,-318.08 63.3,-312.03 66.31,-322.18 71.99,-318.08"/>
<text text-anchor="start" x="94" y="-338" font-family="Courier New" font-weight="bold" font-size="10.00" fill="orange">CLICK(0,0)</text>
</g>
<!-- 2 -->
<g id="node3" class="node">
<title>2</title>
<ellipse fill="none" stroke="black" cx="27" cy="-202" rx="27" ry="18"/>
<text text-anchor="middle" x="27" y="-197.8" font-family="Times,serif" font-size="14.00">2</text>
</g>
<!-- 1&#45;&gt;2 -->
<g id="edge2" class="edge">
<title>1&#45;&gt;2</title>
<path fill="none" stroke="black" d="M43.61,-276.5C41.24,-270.74 38.77,-264.16 37,-258 34.53,-249.41 32.54,-239.88 31.01,-231.2"/>
<polygon fill="black" stroke="black" points="34.5,-230.86 29.44,-221.55 27.59,-231.98 34.5,-230.86"/>
<text text-anchor="start" x="41" y="-246" font-family="Courier New" font-weight="bold" font-size="10.00" fill="blue">PLAYWAVE(0,SOUND_CLICK)</text>
</g>
<!-- 3 -->
<g id="node4" class="node">
<title>3</title>
<ellipse fill="none" stroke="black" cx="38" cy="-110" rx="27" ry="18"/>
<text text-anchor="middle" x="38" y="-105.8" font-family="Times,serif" font-size="14.00">3</text>
</g>
<!-- 2&#45;&gt;3 -->
<g id="edge3" class="edge">
<title>2&#45;&gt;3</title>
<path fill="none" stroke="black" d="M21.11,-183.97C18.16,-173.01 15.82,-158.53 19,-146 19.77,-142.96 20.86,-139.91 22.14,-136.93"/>
<polygon fill="black" stroke="black" points="25.25,-138.54 26.64,-128.04 19,-135.38 25.25,-138.54"/>
<text text-anchor="start" x="23" y="-154" font-family="Courier New" font-weight="bold" font-size="10.00" fill="blue">SENDMSGI(8,IDV_S_TELETYPE)</text>
</g>
<!-- 4 -->
<g id="node5" class="node">
<title>4</title>
<ellipse fill="none" stroke="black" cx="127" cy="-18" rx="27" ry="18"/>
<text text-anchor="middle" x="127" y="-13.8" font-family="Times,serif" font-size="14.00">4</text>
</g>
<!-- 3&#45;&gt;4 -->
<g id="edge4" class="edge">
<title>3&#45;&gt;4</title>
<path fill="none" stroke="black" d="M52.3,-94.54C66.44,-80.24 88.29,-58.14 104.71,-41.54"/>
<polygon fill="black" stroke="black" points="107.13,-44.07 111.67,-34.5 102.15,-39.15 107.13,-44.07"/>
<text text-anchor="start" x="95" y="-62" font-family="Courier New" font-weight="bold" font-size="10.00" fill="blue">EMTIME(0,250)</text>
</g>
<!-- 4&#45;&gt;0 -->
<g id="edge5" class="edge">
<title>4&#45;&gt;0</title>
<path fill="none" stroke="black" d="M149.21,-28.74C160.22,-34.6 172.87,-43.06 181,-54 196.19,-74.43 197,-83.54 197,-109 197,-295 197,-295 197,-295 197,-326.64 169.01,-352.18 145.93,-367.86"/>
<polygon fill="black" stroke="black" points="144.23,-364.8 137.71,-373.15 148.02,-370.68 144.23,-364.8"/>
<text text-anchor="start" x="201" y="-200" font-family="Courier New" font-weight="bold" font-size="10.00" fill="blue">SENDMSGI(9,IDV_S_TELETYPE)</text>
</g>
</g>
</svg>
