<?xml version="1.0" encoding="UTF-8" standalone="no"?>
<!DOCTYPE svg PUBLIC "-//W3C//DTD SVG 1.1//EN"
 "http://www.w3.org/Graphics/SVG/1.1/DTD/svg11.dtd">
<!-- Generated by graphviz version 7.1.0 (20230121.1956)
 -->
<!-- Pages: 1 -->
<svg width="393pt" height="404pt"
 viewBox="0.00 0.00 392.58 404.20" xmlns="http://www.w3.org/2000/svg" xmlns:xlink="http://www.w3.org/1999/xlink">
<g id="graph0" class="graph" transform="scale(1 1) rotate(0) translate(4 400.2)">
<polygon fill="white" stroke="none" points="-4,4 -4,-400.2 388.58,-400.2 388.58,4 -4,4"/>
<!-- M_TEXT_UP_0 -->
<g id="node1" class="node">
<title>M_TEXT_UP_0</title>
<polygon fill="none" stroke="black" points="128,-359.7 128,-395.7 238.11,-395.7 238.11,-359.7 128,-359.7"/>
<text text-anchor="middle" x="183.06" y="-373.5" font-family="Times,serif" font-size="14.00">M_TEXT_UP_0</text>
</g>
<!-- M_TEXT_UP_1 -->
<g id="node2" class="node">
<title>M_TEXT_UP_1</title>
<polygon fill="none" stroke="black" points="50,-269.9 50,-305.9 160.11,-305.9 160.11,-269.9 50,-269.9"/>
<text text-anchor="middle" x="105.06" y="-283.7" font-family="Times,serif" font-size="14.00">M_TEXT_UP_1</text>
</g>
<!-- M_TEXT_UP_0&#45;&gt;M_TEXT_UP_1 -->
<g id="edge1" class="edge">
<title>M_TEXT_UP_0&#45;&gt;M_TEXT_UP_1</title>
<path fill="none" stroke="red" d="M165.35,-359.71C159.55,-353.96 153.15,-347.41 147.55,-341.2 139.95,-332.78 132.01,-323.24 125.08,-314.63"/>
<polygon fill="red" stroke="red" points="127.93,-312.59 118.97,-306.94 122.45,-316.94 127.93,-312.59"/>
<text text-anchor="start" x="148.06" y="-329.6" font-family="Times,serif" font-size="14.00" fill="red"> </text>
<text text-anchor="start" x="151.56" y="-329.6" font-family="Courier New" font-size="10.00" fill="red">CLICK(0,0)</text>
</g>
<!-- M_TEXT_UP_2 -->
<g id="node3" class="node">
<title>M_TEXT_UP_2</title>
<polygon fill="none" stroke="black" points="0,-180.1 0,-216.1 110.11,-216.1 110.11,-180.1 0,-180.1"/>
<text text-anchor="middle" x="55.06" y="-193.9" font-family="Times,serif" font-size="14.00">M_TEXT_UP_2</text>
</g>
<!-- M_TEXT_UP_1&#45;&gt;M_TEXT_UP_2 -->
<g id="edge2" class="edge">
<title>M_TEXT_UP_1&#45;&gt;M_TEXT_UP_2</title>
<path fill="none" stroke="green" d="M84.6,-270.03C79.05,-264.58 73.49,-258.18 69.53,-251.4 65.21,-243.99 62.13,-235.23 59.96,-227.02"/>
<polygon fill="green" stroke="green" points="63.41,-226.44 57.79,-217.46 56.59,-227.98 63.41,-226.44"/>
<text text-anchor="start" x="70.06" y="-239.8" font-family="Times,serif" font-size="14.00" fill="green"> </text>
<text text-anchor="start" x="73.56" y="-239.8" font-family="Courier New" font-size="10.00" fill="green">PLAYWAVE(0,SOUND_CLICK)</text>
</g>
<!-- M_TEXT_UP_3 -->
<g id="node4" class="node">
<title>M_TEXT_UP_3</title>
<polygon fill="none" stroke="black" points="34,-90.3 34,-126.3 144.11,-126.3 144.11,-90.3 34,-90.3"/>
<text text-anchor="middle" x="89.06" y="-104.1" font-family="Times,serif" font-size="14.00">M_TEXT_UP_3</text>
</g>
<!-- M_TEXT_UP_2&#45;&gt;M_TEXT_UP_3 -->
<g id="edge3" class="edge">
<title>M_TEXT_UP_2&#45;&gt;M_TEXT_UP_3</title>
<path fill="none" stroke="green" d="M50.13,-180.42C47.9,-169.81 46.71,-156 51.53,-144.8 53.1,-141.15 55.26,-137.69 57.74,-134.48"/>
<polygon fill="green" stroke="green" points="60.23,-136.95 64.4,-127.22 55.06,-132.22 60.23,-136.95"/>
<text text-anchor="start" x="52.06" y="-150" font-family="Times,serif" font-size="14.00" fill="green"> </text>
<text text-anchor="start" x="55.56" y="-150" font-family="Courier New" font-size="10.00" fill="green">SENDMSGI(8,IDV_S_TELETYPE)</text>
</g>
<!-- M_TEXT_UP_4 -->
<g id="node5" class="node">
<title>M_TEXT_UP_4</title>
<polygon fill="none" stroke="black" points="102,-0.5 102,-36.5 212.11,-36.5 212.11,-0.5 102,-0.5"/>
<text text-anchor="middle" x="157.06" y="-14.3" font-family="Times,serif" font-size="14.00">M_TEXT_UP_4</text>
</g>
<!-- M_TEXT_UP_3&#45;&gt;M_TEXT_UP_4 -->
<g id="edge4" class="edge">
<title>M_TEXT_UP_3&#45;&gt;M_TEXT_UP_4</title>
<path fill="none" stroke="green" d="M102.17,-90.37C112.04,-77.62 125.76,-59.91 137.01,-45.38"/>
<polygon fill="green" stroke="green" points="139.7,-47.62 143.06,-37.57 134.17,-43.34 139.7,-47.62"/>
<text text-anchor="start" x="130.06" y="-60.2" font-family="Times,serif" font-size="14.00" fill="green"> </text>
<text text-anchor="start" x="133.56" y="-60.2" font-family="Courier New" font-size="10.00" fill="green">EMTIME(0,250)</text>
</g>
<!-- M_TEXT_UP_4&#45;&gt;M_TEXT_UP_0 -->
<g id="edge5" class="edge">
<title>M_TEXT_UP_4&#45;&gt;M_TEXT_UP_0</title>
<path fill="none" stroke="green" d="M191.08,-36.45C198.56,-41.53 205.8,-47.72 211.06,-55 225.14,-74.51 225.06,-83.24 225.06,-107.3 225.06,-288.9 225.06,-288.9 225.06,-288.9 225.06,-312.96 221.84,-319.69 211.06,-341.2 209.4,-344.5 207.41,-347.78 205.26,-350.95"/>
<polygon fill="green" stroke="green" points="202.61,-348.65 199.43,-358.76 208.22,-352.84 202.61,-348.65"/>
<text text-anchor="start" x="225.06" y="-194.9" font-family="Times,serif" font-size="14.00" fill="green"> </text>
<text text-anchor="start" x="228.56" y="-194.9" font-family="Courier New" font-size="10.00" fill="green">SENDMSGI(9,IDV_S_TELETYPE)</text>
</g>
</g>
</svg>
