<?xml version="1.0" encoding="UTF-8" standalone="no"?>
<!DOCTYPE svg PUBLIC "-//W3C//DTD SVG 1.1//EN"
 "http://www.w3.org/Graphics/SVG/1.1/DTD/svg11.dtd">
<!-- Generated by graphviz version 7.1.0 (20230121.1956)
 -->
<!-- Pages: 1 -->
<svg width="426pt" height="420pt"
 viewBox="0.00 0.00 426.00 420.00" xmlns="http://www.w3.org/2000/svg" xmlns:xlink="http://www.w3.org/1999/xlink">
<g id="graph0" class="graph" transform="scale(1 1) rotate(0) translate(4 416)">
<polygon fill="white" stroke="none" points="-4,4 -4,-416 422,-416 422,4 -4,4"/>
<!-- 0 -->
<g id="node1" class="node">
<title>0</title>
<ellipse fill="none" stroke="black" cx="132" cy="-394" rx="27" ry="18"/>
<text text-anchor="middle" x="132" y="-389.8" font-family="Times,serif" font-size="14.00">0</text>
</g>
<!-- 1 -->
<g id="node2" class="node">
<title>1</title>
<ellipse fill="none" stroke="black" cx="58" cy="-300" rx="27" ry="18"/>
<text text-anchor="middle" x="58" y="-295.8" font-family="Times,serif" font-size="14.00">1</text>
</g>
<!-- 0&#45;&gt;1 -->
<g id="edge1" class="edge">
<title>0&#45;&gt;1</title>
<path fill="none" stroke="black" d="M119.78,-377.81C108.21,-363.43 90.66,-341.61 77.22,-324.89"/>
<polygon fill="black" stroke="black" points="80.18,-322.99 71.19,-317.39 74.73,-327.38 80.18,-322.99"/>
<text text-anchor="start" x="108" y="-344.2" font-family="Courier New" font-weight="bold" font-size="12.00" fill="orange">CLICK(00)</text>
</g>
<!-- 2 -->
<g id="node3" class="node">
<title>2</title>
<ellipse fill="none" stroke="black" cx="27" cy="-206" rx="27" ry="18"/>
<text text-anchor="middle" x="27" y="-201.8" font-family="Times,serif" font-size="14.00">2</text>
</g>
<!-- 1&#45;&gt;2 -->
<g id="edge2" class="edge">
<title>1&#45;&gt;2</title>
<path fill="none" stroke="black" d="M50.38,-282.44C47.86,-276.67 45.16,-270.11 43,-264 39.73,-254.73 36.67,-244.43 34.12,-235.17"/>
<polygon fill="black" stroke="black" points="37.53,-234.37 31.57,-225.61 30.76,-236.17 37.53,-234.37"/>
<text text-anchor="start" x="47" y="-250.2" font-family="Courier New" font-weight="bold" font-size="12.00" fill="blue">PLAYWAVE(0SOUND_CLICK)</text>
</g>
<!-- 3 -->
<g id="node4" class="node">
<title>3</title>
<ellipse fill="none" stroke="black" cx="39" cy="-112" rx="27" ry="18"/>
<text text-anchor="middle" x="39" y="-107.8" font-family="Times,serif" font-size="14.00">3</text>
</g>
<!-- 2&#45;&gt;3 -->
<g id="edge3" class="edge">
<title>2&#45;&gt;3</title>
<path fill="none" stroke="black" d="M18.74,-188.83C13.96,-177.31 9.66,-161.53 14,-148 15.16,-144.37 16.85,-140.8 18.82,-137.41"/>
<polygon fill="black" stroke="black" points="21.71,-139.38 24.42,-129.14 15.91,-135.46 21.71,-139.38"/>
<text text-anchor="start" x="18.5" y="-156.2" font-family="Courier New" font-weight="bold" font-size="12.00" fill="blue">SENDMSGI(10IDV_S_TELETYPE)</text>
</g>
<!-- 4 -->
<g id="node5" class="node">
<title>4</title>
<ellipse fill="none" stroke="black" cx="143" cy="-18" rx="27" ry="18"/>
<text text-anchor="middle" x="143" y="-13.8" font-family="Times,serif" font-size="14.00">4</text>
</g>
<!-- 3&#45;&gt;4 -->
<g id="edge4" class="edge">
<title>3&#45;&gt;4</title>
<path fill="none" stroke="black" d="M54.8,-97.03C71.85,-81.94 99.2,-57.74 118.93,-40.29"/>
<polygon fill="black" stroke="black" points="121.09,-43.05 126.26,-33.81 116.45,-37.81 121.09,-43.05"/>
<text text-anchor="start" x="108" y="-62.2" font-family="Courier New" font-weight="bold" font-size="12.00" fill="blue">EMTIME(0250)</text>
</g>
<!-- 4&#45;&gt;0 -->
<g id="edge5" class="edge">
<title>4&#45;&gt;0</title>
<path fill="none" stroke="black" d="M165.76,-27.99C177.96,-33.81 192.4,-42.47 202,-54 219.27,-74.75 223,-84 223,-111 223,-301 223,-301 223,-301 223,-335.71 189.86,-362.03 163.58,-377.45"/>
<polygon fill="black" stroke="black" points="161.93,-374.36 154.89,-382.27 165.33,-380.48 161.93,-374.36"/>
<text text-anchor="start" x="227.5" y="-203.2" font-family="Courier New" font-weight="bold" font-size="12.00" fill="blue">SENDMSGI(11IDV_S_TELETYPE)</text>
</g>
</g>
</svg>
