<?xml version="1.0" encoding="UTF-8" standalone="no"?>
<!DOCTYPE svg PUBLIC "-//W3C//DTD SVG 1.1//EN"
 "http://www.w3.org/Graphics/SVG/1.1/DTD/svg11.dtd">
<!-- Generated by graphviz version 7.1.0 (20230121.1956)
 -->
<!-- Pages: 1 -->
<svg width="270pt" height="225pt"
 viewBox="0.00 0.00 269.73 224.60" xmlns="http://www.w3.org/2000/svg" xmlns:xlink="http://www.w3.org/1999/xlink">
<g id="graph0" class="graph" transform="scale(1 1) rotate(0) translate(4 220.6)">
<polygon fill="white" stroke="none" points="-4,4 -4,-220.6 265.73,-220.6 265.73,4 -4,4"/>
<!-- M_TIMEDVPLAY_0 -->
<g id="node1" class="node">
<title>M_TIMEDVPLAY_0</title>
<polygon fill="none" stroke="black" points="57,-180.1 57,-216.1 197.44,-216.1 197.44,-180.1 57,-180.1"/>
<text text-anchor="middle" x="127.22" y="-193.9" font-family="Times,serif" font-size="14.00">M_TIMEDVPLAY_0</text>
</g>
<!-- M_TIMEDVPLAY_1 -->
<g id="node2" class="node">
<title>M_TIMEDVPLAY_1</title>
<polygon fill="none" stroke="black" points="0,-90.3 0,-126.3 140.44,-126.3 140.44,-90.3 0,-90.3"/>
<text text-anchor="middle" x="70.22" y="-104.1" font-family="Times,serif" font-size="14.00">M_TIMEDVPLAY_1</text>
</g>
<!-- M_TIMEDVPLAY_0&#45;&gt;M_TIMEDVPLAY_1 -->
<g id="edge1" class="edge">
<title>M_TIMEDVPLAY_0&#45;&gt;M_TIMEDVPLAY_1</title>
<path fill="none" stroke="red" d="M89.55,-180.15C82.45,-175.21 75.93,-169.07 71.71,-161.6 67.62,-154.38 66.26,-145.65 66.2,-137.41"/>
<polygon fill="red" stroke="red" points="69.69,-137.62 66.79,-127.43 62.71,-137.2 69.69,-137.62"/>
<text text-anchor="start" x="72.22" y="-150" font-family="Times,serif" font-size="14.00" fill="red"> </text>
<text text-anchor="start" x="75.72" y="-150" font-family="Courier New" font-size="10.00" fill="red">WAIT(0,SIG_OPEN)</text>
</g>
<!-- M_TIMEDVPLAY_2 -->
<g id="node3" class="node">
<title>M_TIMEDVPLAY_2</title>
<polygon fill="none" stroke="black" points="57,-0.5 57,-36.5 197.44,-36.5 197.44,-0.5 57,-0.5"/>
<text text-anchor="middle" x="127.22" y="-14.3" font-family="Times,serif" font-size="14.00">M_TIMEDVPLAY_2</text>
</g>
<!-- M_TIMEDVPLAY_1&#45;&gt;M_TIMEDVPLAY_2 -->
<g id="edge2" class="edge">
<title>M_TIMEDVPLAY_1&#45;&gt;M_TIMEDVPLAY_2</title>
<path fill="none" stroke="green" d="M66.88,-90.68C65.58,-79.84 65.62,-65.75 71.71,-55 74.08,-50.8 77.18,-47.02 80.71,-43.64"/>
<polygon fill="green" stroke="green" points="82.82,-46.43 88.37,-37.4 78.41,-41 82.82,-46.43"/>
<text text-anchor="start" x="72.22" y="-60.2" font-family="Times,serif" font-size="14.00" fill="green"> </text>
<text text-anchor="start" x="75.72" y="-60.2" font-family="Courier New" font-size="10.00" fill="green">SHOW(0,IDS_BFLY)</text>
</g>
<!-- M_TIMEDVPLAY_2&#45;&gt;M_TIMEDVPLAY_0 -->
<g id="edge3" class="edge">
<title>M_TIMEDVPLAY_2&#45;&gt;M_TIMEDVPLAY_0</title>
<path fill="none" stroke="green" d="M155.76,-36.34C161.99,-41.49 167.75,-47.74 171.22,-55 191.66,-97.74 191.66,-118.86 171.22,-161.6 169.38,-165.46 166.89,-169.03 164.02,-172.3"/>
<polygon fill="green" stroke="green" points="161.63,-169.75 156.85,-179.21 166.48,-174.79 161.63,-169.75"/>
<text text-anchor="start" x="186.22" y="-105.1" font-family="Times,serif" font-size="14.00" fill="green"> </text>
<text text-anchor="start" x="189.72" y="-105.1" font-family="Courier New" font-size="10.00" fill="green">ANIMATE(0,0)</text>
</g>
</g>
</svg>
