<?xml version="1.0" encoding="UTF-8" standalone="no"?>
<!DOCTYPE svg PUBLIC "-//W3C//DTD SVG 1.1//EN"
 "http://www.w3.org/Graphics/SVG/1.1/DTD/svg11.dtd">
<!-- Generated by graphviz version 7.1.0 (20230121.1956)
 -->
<!-- Pages: 1 -->
<svg width="271pt" height="232pt"
 viewBox="0.00 0.00 271.00 232.00" xmlns="http://www.w3.org/2000/svg" xmlns:xlink="http://www.w3.org/1999/xlink">
<g id="graph0" class="graph" transform="scale(1 1) rotate(0) translate(4 228)">
<polygon fill="white" stroke="none" points="-4,4 -4,-228 267,-228 267,4 -4,4"/>
<!-- 0 -->
<g id="node1" class="node">
<title>0</title>
<ellipse fill="none" stroke="black" cx="96" cy="-206" rx="27" ry="18"/>
<text text-anchor="middle" x="96" y="-201.8" font-family="Times,serif" font-size="14.00">0</text>
</g>
<!-- 1 -->
<g id="node2" class="node">
<title>1</title>
<ellipse fill="none" stroke="black" cx="27" cy="-112" rx="27" ry="18"/>
<text text-anchor="middle" x="27" y="-107.8" font-family="Times,serif" font-size="14.00">1</text>
</g>
<!-- 0&#45;&gt;1 -->
<g id="edge1" class="edge">
<title>0&#45;&gt;1</title>
<path fill="none" stroke="black" d="M70.79,-199.02C55.59,-193.99 37.4,-185.11 28,-170 22.8,-161.64 21.49,-151.16 21.83,-141.48"/>
<polygon fill="black" stroke="black" points="25.29,-142.05 22.78,-131.76 18.33,-141.38 25.29,-142.05"/>
<text text-anchor="start" x="32.5" y="-156.2" font-family="Courier New" font-weight="bold" font-size="12.00" fill="orange">WAIT(0,SIG_OPEN)</text>
</g>
<!-- 2 -->
<g id="node3" class="node">
<title>2</title>
<ellipse fill="none" stroke="black" cx="96" cy="-18" rx="27" ry="18"/>
<text text-anchor="middle" x="96" y="-13.8" font-family="Times,serif" font-size="14.00">2</text>
</g>
<!-- 1&#45;&gt;2 -->
<g id="edge2" class="edge">
<title>1&#45;&gt;2</title>
<path fill="none" stroke="black" d="M22.92,-93.74C21.07,-81.71 20.68,-65.77 28,-54 35.27,-42.32 47.8,-34.36 60.14,-29.02"/>
<polygon fill="black" stroke="black" points="61.27,-32.33 69.38,-25.51 58.79,-25.79 61.27,-32.33"/>
<text text-anchor="start" x="32.5" y="-62.2" font-family="Courier New" font-weight="bold" font-size="12.00" fill="blue">SHOW(0,IDS_BFLY)</text>
</g>
<!-- 2&#45;&gt;0 -->
<g id="edge3" class="edge">
<title>2&#45;&gt;0</title>
<path fill="none" stroke="black" d="M119.4,-27.51C131.13,-33.1 144.25,-41.7 151,-54 175.81,-99.19 175.81,-124.81 151,-170 146.15,-178.84 138.01,-185.77 129.46,-191.04"/>
<polygon fill="black" stroke="black" points="127.86,-187.93 120.73,-195.77 131.19,-194.08 127.86,-187.93"/>
<text text-anchor="start" x="173" y="-109.2" font-family="Courier New" font-weight="bold" font-size="12.00" fill="blue">ANIMATE(0,0)</text>
</g>
</g>
</svg>
