<?xml version="1.0" encoding="UTF-8" standalone="no"?>
<!DOCTYPE svg PUBLIC "-//W3C//DTD SVG 1.1//EN"
 "http://www.w3.org/Graphics/SVG/1.1/DTD/svg11.dtd">
<!-- Generated by graphviz version 7.1.0 (20230121.1956)
 -->
<!-- Pages: 1 -->
<svg width="324pt" height="890pt"
 viewBox="0.00 0.00 323.80 890.00" xmlns="http://www.w3.org/2000/svg" xmlns:xlink="http://www.w3.org/1999/xlink">
<g id="graph0" class="graph" transform="scale(1 1) rotate(0) translate(4 886)">
<polygon fill="white" stroke="none" points="-4,4 -4,-886 319.8,-886 319.8,4 -4,4"/>
<!-- 0 -->
<g id="node1" class="node">
<title>0</title>
<ellipse fill="none" stroke="black" cx="163.8" cy="-864" rx="27" ry="18"/>
<text text-anchor="middle" x="163.8" y="-859.8" font-family="Times,serif" font-size="14.00">0</text>
</g>
<!-- 2 -->
<g id="node2" class="node">
<title>2</title>
<ellipse fill="none" stroke="black" cx="163.8" cy="-770" rx="27" ry="18"/>
<text text-anchor="middle" x="163.8" y="-765.8" font-family="Times,serif" font-size="14.00">2</text>
</g>
<!-- 0&#45;&gt;2 -->
<g id="edge1" class="edge">
<title>0&#45;&gt;2</title>
<path fill="none" stroke="black" d="M163.8,-845.7C163.8,-832.72 163.8,-814.66 163.8,-799.56"/>
<polygon fill="black" stroke="black" points="167.3,-799.74 163.8,-789.74 160.3,-799.74 167.3,-799.74"/>
<text text-anchor="start" x="167.8" y="-814.2" font-family="Courier New" font-weight="bold" font-size="12.00" fill="blue">C_ACCEPT(0,ISA_BAIT)</text>
</g>
<!-- 3 -->
<g id="node4" class="node">
<title>3</title>
<ellipse fill="none" stroke="black" cx="91.8" cy="-676" rx="27" ry="18"/>
<text text-anchor="middle" x="91.8" y="-671.8" font-family="Times,serif" font-size="14.00">3</text>
</g>
<!-- 2&#45;&gt;3 -->
<g id="edge3" class="edge">
<title>2&#45;&gt;3</title>
<path fill="none" stroke="black" d="M151.47,-753.71C146.57,-747.6 140.9,-740.49 135.8,-734 127.49,-723.42 118.39,-711.67 110.63,-701.59"/>
<polygon fill="black" stroke="black" points="113.47,-699.54 104.6,-693.74 107.92,-703.8 113.47,-699.54"/>
<text text-anchor="start" x="139.8" y="-720.2" font-family="Courier New" font-weight="bold" font-size="12.00" fill="orange">DROP(0,0)</text>
</g>
<!-- 10 -->
<g id="node3" class="node">
<title>10</title>
<ellipse fill="none" stroke="black" cx="155.8" cy="-18" rx="27" ry="18"/>
<text text-anchor="middle" x="155.8" y="-13.8" font-family="Times,serif" font-size="14.00">10</text>
</g>
<!-- 10&#45;&gt;2 -->
<g id="edge2" class="edge">
<title>10&#45;&gt;2</title>
<path fill="none" stroke="black" d="M177.64,-28.93C188.23,-34.79 200.26,-43.2 207.8,-54 222.73,-75.39 221.8,-84.91 221.8,-111 221.8,-677 221.8,-677 221.8,-677 221.8,-703.09 221.87,-712.04 207.8,-734 203.79,-740.26 198.27,-745.89 192.5,-750.71"/>
<polygon fill="black" stroke="black" points="190.47,-747.86 184.61,-756.69 194.7,-753.44 190.47,-747.86"/>
<text text-anchor="start" x="226.3" y="-391.2" font-family="Courier New" font-weight="bold" font-size="12.00" fill="blue">ASHOW(,)</text>
</g>
<!-- 4 -->
<g id="node5" class="node">
<title>4</title>
<ellipse fill="none" stroke="black" cx="70.8" cy="-582" rx="27" ry="18"/>
<text text-anchor="middle" x="70.8" y="-577.8" font-family="Times,serif" font-size="14.00">4</text>
</g>
<!-- 3&#45;&gt;4 -->
<g id="edge4" class="edge">
<title>3&#45;&gt;4</title>
<path fill="none" stroke="black" d="M84.21,-658.56C81.82,-652.8 79.39,-646.21 77.8,-640 75.47,-630.94 73.91,-620.85 72.86,-611.72"/>
<polygon fill="black" stroke="black" points="76.36,-611.55 71.91,-601.93 69.4,-612.22 76.36,-611.55"/>
<text text-anchor="start" x="81.8" y="-626.2" font-family="Courier New" font-weight="bold" font-size="12.00" fill="blue">MOV(WSPRITE,WIP1)</text>
</g>
<!-- 5 -->
<g id="node6" class="node">
<title>5</title>
<ellipse fill="none" stroke="black" cx="49.8" cy="-488" rx="27" ry="18"/>
<text text-anchor="middle" x="49.8" y="-483.8" font-family="Times,serif" font-size="14.00">5</text>
</g>
<!-- 4&#45;&gt;5 -->
<g id="edge5" class="edge">
<title>4&#45;&gt;5</title>
<path fill="none" stroke="black" d="M66.85,-563.7C63.86,-550.59 59.68,-532.31 56.22,-517.11"/>
<polygon fill="black" stroke="black" points="59.71,-516.67 54.07,-507.7 52.88,-518.23 59.71,-516.67"/>
<text text-anchor="start" x="66.8" y="-532.2" font-family="Courier New" font-weight="bold" font-size="12.00" fill="blue">ESTIME(,1)</text>
</g>
<!-- 6 -->
<g id="node7" class="node">
<title>6</title>
<ellipse fill="none" stroke="black" cx="47.8" cy="-394" rx="27" ry="18"/>
<text text-anchor="middle" x="47.8" y="-389.8" font-family="Times,serif" font-size="14.00">6</text>
</g>
<!-- 5&#45;&gt;6 -->
<g id="edge6" class="edge">
<title>5&#45;&gt;6</title>
<path fill="none" stroke="black" d="M49.26,-469.55C49.1,-463.95 48.93,-457.71 48.8,-452 48.59,-442.88 48.4,-432.95 48.25,-423.96"/>
<polygon fill="black" stroke="black" points="51.74,-423.92 48.08,-413.98 44.75,-424.03 51.74,-423.92"/>
<text text-anchor="start" x="53.3" y="-438.2" font-family="Courier New" font-weight="bold" font-size="12.00" fill="blue">ASHOW(WSPRITE,V_LOOP)</text>
</g>
<!-- 7 -->
<g id="node8" class="node">
<title>7</title>
<ellipse fill="none" stroke="black" cx="90.8" cy="-300" rx="27" ry="18"/>
<text text-anchor="middle" x="90.8" y="-295.8" font-family="Times,serif" font-size="14.00">7</text>
</g>
<!-- 6&#45;&gt;7 -->
<g id="edge7" class="edge">
<title>6&#45;&gt;7</title>
<path fill="none" stroke="black" d="M27.13,-382.2C18.21,-376.34 8.72,-368.2 3.8,-358 -0.45,-349.19 -1.67,-344.1 3.8,-336 14.84,-319.65 34.92,-310.94 53.01,-306.3"/>
<polygon fill="black" stroke="black" points="53.7,-309.73 62.72,-304.17 52.2,-302.89 53.7,-309.73"/>
<text text-anchor="start" x="7.8" y="-344.2" font-family="Courier New" font-weight="bold" font-size="12.00" fill="blue">ESTIME(,4)</text>
</g>
<!-- 6&#45;&gt;7 -->
<g id="edge8" class="edge">
<title>6&#45;&gt;7</title>
<path fill="none" stroke="black" d="M65.41,-380.21C72.29,-374.26 79.53,-366.59 83.8,-358 88.1,-349.34 90.15,-339.05 91.03,-329.62"/>
<polygon fill="black" stroke="black" points="94.52,-329.99 91.53,-319.82 87.52,-329.63 94.52,-329.99"/>
<text text-anchor="start" x="95.3" y="-344.2" font-family="Courier New" font-weight="bold" font-size="12.00" fill="orange">GRAB(WIP2,)</text>
</g>
<!-- 8 -->
<g id="node9" class="node">
<title>8</title>
<ellipse fill="none" stroke="black" cx="90.8" cy="-206" rx="27" ry="18"/>
<text text-anchor="middle" x="90.8" y="-201.8" font-family="Times,serif" font-size="14.00">8</text>
</g>
<!-- 7&#45;&gt;8 -->
<g id="edge9" class="edge">
<title>7&#45;&gt;8</title>
<path fill="none" stroke="black" d="M90.8,-281.7C90.8,-268.72 90.8,-250.66 90.8,-235.56"/>
<polygon fill="black" stroke="black" points="94.3,-235.74 90.8,-225.74 87.3,-235.74 94.3,-235.74"/>
<text text-anchor="start" x="94.8" y="-250.2" font-family="Courier New" font-weight="bold" font-size="12.00" fill="blue">CLEAR(WOBJECT,)</text>
</g>
<!-- 9 -->
<g id="node10" class="node">
<title>9</title>
<ellipse fill="none" stroke="black" cx="90.8" cy="-112" rx="27" ry="18"/>
<text text-anchor="middle" x="90.8" y="-107.8" font-family="Times,serif" font-size="14.00">9</text>
</g>
<!-- 8&#45;&gt;9 -->
<g id="edge10" class="edge">
<title>8&#45;&gt;9</title>
<path fill="none" stroke="black" d="M90.8,-187.7C90.8,-174.72 90.8,-156.66 90.8,-141.56"/>
<polygon fill="black" stroke="black" points="94.3,-141.74 90.8,-131.74 87.3,-141.74 94.3,-141.74"/>
<text text-anchor="start" x="95.3" y="-156.2" font-family="Courier New" font-weight="bold" font-size="12.00" fill="blue">CLEAR(WPARM,)</text>
</g>
<!-- 9&#45;&gt;10 -->
<g id="edge11" class="edge">
<title>9&#45;&gt;10</title>
<path fill="none" stroke="black" d="M86.81,-93.8C85,-81.79 84.63,-65.86 91.8,-54 98.31,-43.24 109.39,-35.56 120.52,-30.2"/>
<polygon fill="black" stroke="black" points="121.83,-33.44 129.67,-26.32 119.1,-27 121.83,-33.44"/>
<text text-anchor="start" x="95.8" y="-62.2" font-family="Courier New" font-weight="bold" font-size="12.00" fill="blue">CLEAR(WSPRITE,)</text>
</g>
</g>
</svg>
