<?xml version="1.0" encoding="UTF-8" standalone="no"?>
<!DOCTYPE svg PUBLIC "-//W3C//DTD SVG 1.1//EN"
 "http://www.w3.org/Graphics/SVG/1.1/DTD/svg11.dtd">
<!-- Generated by graphviz version 7.1.0 (20230121.1956)
 -->
<!-- Pages: 1 -->
<svg width="227pt" height="228pt"
 viewBox="0.00 0.00 227.00 228.00" xmlns="http://www.w3.org/2000/svg" xmlns:xlink="http://www.w3.org/1999/xlink">
<g id="graph0" class="graph" transform="scale(1 1) rotate(0) translate(4 224)">
<polygon fill="white" stroke="none" points="-4,4 -4,-224 223,-224 223,4 -4,4"/>
<!-- 0 -->
<g id="node1" class="node">
<title>0</title>
<ellipse fill="none" stroke="black" cx="85" cy="-202" rx="27" ry="18"/>
<text text-anchor="middle" x="85" y="-197.8" font-family="Times,serif" font-size="14.00">0</text>
</g>
<!-- 1 -->
<g id="node2" class="node">
<title>1</title>
<ellipse fill="none" stroke="black" cx="27" cy="-110" rx="27" ry="18"/>
<text text-anchor="middle" x="27" y="-105.8" font-family="Times,serif" font-size="14.00">1</text>
</g>
<!-- 0&#45;&gt;1 -->
<g id="edge1" class="edge">
<title>0&#45;&gt;1</title>
<path fill="none" stroke="black" d="M65.51,-189.13C57.17,-183.14 47.99,-175.2 42,-166 36.76,-157.95 33.34,-148.1 31.11,-138.97"/>
<polygon fill="black" stroke="black" points="34.6,-138.57 29.18,-129.47 27.74,-139.97 34.6,-138.57"/>
<text text-anchor="start" x="46" y="-154" font-family="Courier New" font-weight="bold" font-size="10.00" fill="orange">DRAGFOCUS(0,0)</text>
</g>
<!-- 2 -->
<g id="node3" class="node">
<title>2</title>
<ellipse fill="none" stroke="black" cx="85" cy="-18" rx="27" ry="18"/>
<text text-anchor="middle" x="85" y="-13.8" font-family="Times,serif" font-size="14.00">2</text>
</g>
<!-- 1&#45;&gt;2 -->
<g id="edge2" class="edge">
<title>1&#45;&gt;2</title>
<path fill="none" stroke="black" d="M21.46,-91.99C18.77,-80.51 17.39,-65.42 24,-54 29.92,-43.78 40.08,-36.28 50.43,-30.91"/>
<polygon fill="black" stroke="black" points="51.66,-34.2 59.31,-26.86 48.76,-27.83 51.66,-34.2"/>
<text text-anchor="start" x="28" y="-62" font-family="Courier New" font-weight="bold" font-size="10.00" fill="blue">SHOW(0,IDS_BIRDS)</text>
</g>
<!-- 2&#45;&gt;0 -->
<g id="edge3" class="edge">
<title>2&#45;&gt;0</title>
<path fill="none" stroke="black" d="M107.19,-28.84C117.32,-34.6 128.31,-42.94 134,-54 156.78,-98.26 156.78,-121.74 134,-166 130.09,-173.6 123.67,-179.92 116.75,-185"/>
<polygon fill="black" stroke="black" points="114.97,-181.98 108.46,-190.34 118.76,-187.87 114.97,-181.98"/>
<text text-anchor="start" x="155" y="-108" font-family="Courier New" font-weight="bold" font-size="10.00" fill="blue">VIDEO(0,0)</text>
</g>
</g>
</svg>
