<?xml version="1.0" encoding="UTF-8" standalone="no"?>
<!DOCTYPE svg PUBLIC "-//W3C//DTD SVG 1.1//EN"
 "http://www.w3.org/Graphics/SVG/1.1/DTD/svg11.dtd">
<!-- Generated by graphviz version 7.1.0 (20230121.1956)
 -->
<!-- Title: Automaton Pages: 1 -->
<svg width="1090pt" height="293pt"
 viewBox="0.00 0.00 1089.99 293.00" xmlns="http://www.w3.org/2000/svg" xmlns:xlink="http://www.w3.org/1999/xlink">
<g id="graph0" class="graph" transform="scale(1 1) rotate(0) translate(4 289)">
<title>Automaton</title>
<polygon fill="white" stroke="none" points="-4,4 -4,-289 1085.99,-289 1085.99,4 -4,4"/>
<!-- filename -->
<g id="node1" class="node">
<title>filename</title>
<polygon fill="none" stroke="black" points="52.99,-232.5 52.99,-284.5 170.99,-284.5 170.99,-232.5 52.99,-232.5"/>
<polygon fill="none" stroke="black" points="63.99,-259.5 63.99,-277.5 159.99,-277.5 159.99,-259.5 63.99,-259.5"/>
<text text-anchor="start" x="78.99" y="-266.5" font-family="Courier New" font-weight="bold" font-size="10.00">M_VIALMETER</text>
<polygon fill="none" stroke="black" points="63.99,-239.5 63.99,-257.5 159.99,-257.5 159.99,-239.5 63.99,-239.5"/>
<text text-anchor="start" x="66.99" y="-245.5" font-family="Courier New" font-size="10.00" fill="brown">start state = 0</text>
<polygon fill="none" stroke="black" points="60.99,-236.5 60.99,-280.5 162.99,-280.5 162.99,-236.5 60.99,-236.5"/>
</g>
<!-- 0 -->
<g id="node2" class="node">
<title>0</title>
<polyline fill="none" stroke="darkred" points="208.99,-247.5 222.99,-247.5"/>
<text text-anchor="start" x="211.99" y="-254.9" font-family="Courier New" font-weight="bold" font-size="14.00">0</text>
<path fill="none" stroke="darkred" d="M212.66,-244.5C212.66,-244.5 219.33,-244.5 219.33,-244.5 222.66,-244.5 225.99,-247.83 225.99,-251.17 225.99,-251.17 225.99,-265.83 225.99,-265.83 225.99,-269.17 222.66,-272.5 219.33,-272.5 219.33,-272.5 212.66,-272.5 212.66,-272.5 209.33,-272.5 205.99,-269.17 205.99,-265.83 205.99,-265.83 205.99,-251.17 205.99,-251.17 205.99,-247.83 209.33,-244.5 212.66,-244.5"/>
</g>
<!-- 5 -->
<g id="node3" class="node">
<title>5</title>
<polyline fill="none" stroke="darkred" points="311.99,-123 325.99,-123"/>
<text text-anchor="start" x="314.99" y="-130.4" font-family="Courier New" font-weight="bold" font-size="14.00">5</text>
<path fill="none" stroke="darkred" d="M315.66,-120C315.66,-120 322.33,-120 322.33,-120 325.66,-120 328.99,-123.33 328.99,-126.67 328.99,-126.67 328.99,-141.33 328.99,-141.33 328.99,-144.67 325.66,-148 322.33,-148 322.33,-148 315.66,-148 315.66,-148 312.33,-148 308.99,-144.67 308.99,-141.33 308.99,-141.33 308.99,-126.67 308.99,-126.67 308.99,-123.33 312.33,-120 315.66,-120"/>
</g>
<!-- 0&#45;&gt;5 -->
<g id="edge1" class="edge">
<title>0&#45;&gt;5</title>
<path fill="none" stroke="black" d="M242.99,-249.26C260.77,-242.5 283.23,-231.2 296.99,-214 308.59,-199.51 314.08,-179.29 316.68,-162.94"/>
<polygon fill="black" stroke="black" points="320.1,-163.71 317.91,-153.35 313.16,-162.82 320.1,-163.71"/>
<polygon fill="none" stroke="black" points="317.99,-193 317.99,-211 659.99,-211 659.99,-193 317.99,-193"/>
<text text-anchor="start" x="440.98" y="-200" font-family="Courier New" font-weight="bold" font-size="10.00" fill="orange">WAIT(0,SIG_SHOW)</text>
<polygon fill="none" stroke="black" points="317.99,-173 317.99,-191 659.99,-191 659.99,-173 317.99,-173"/>
<text text-anchor="start" x="320.99" y="-179" font-family="Courier New" font-size="10.00" fill="blue">REF_MACHINE(WIP1);MOV(BPARM,R_BPARM);MOV(WPARM,R_WPARM);</text>
<polygon fill="none" stroke="black" points="314.99,-170 314.99,-214 662.99,-214 662.99,-170 314.99,-170"/>
</g>
<!-- 5&#45;&gt;0 -->
<g id="edge8" class="edge">
<title>5&#45;&gt;0</title>
<path fill="none" stroke="black" d="M292.17,-135.55C267.11,-137.67 230.93,-145.18 212.99,-170 200.74,-186.96 202.53,-210.97 206.8,-229.56"/>
<polygon fill="black" stroke="black" points="203.4,-230.37 209.37,-239.12 210.16,-228.56 203.4,-230.37"/>
<text text-anchor="start" x="216.99" y="-190" font-family="Courier New" font-weight="bold" font-size="10.00" fill="blue">Z_EPSILON(,)</text>
</g>
<!-- 10 -->
<g id="node4" class="node">
<title>10</title>
<polyline fill="none" stroke="darkred" points="35.99,-7 57.99,-7"/>
<text text-anchor="start" x="38.99" y="-14.4" font-family="Courier New" font-weight="bold" font-size="14.00">10</text>
<path fill="none" stroke="darkred" d="M42.33,-4C42.33,-4 51.66,-4 51.66,-4 56.33,-4 60.99,-8.67 60.99,-13.33 60.99,-13.33 60.99,-22.67 60.99,-22.67 60.99,-27.33 56.33,-32 51.66,-32 51.66,-32 42.33,-32 42.33,-32 37.66,-32 32.99,-27.33 32.99,-22.67 32.99,-22.67 32.99,-13.33 32.99,-13.33 32.99,-8.67 37.66,-4 42.33,-4"/>
</g>
<!-- 5&#45;&gt;10 -->
<g id="edge5" class="edge">
<title>5&#45;&gt;10</title>
<path fill="none" stroke="black" d="M292.05,-130.51C244.4,-125.74 147.51,-114.34 117.99,-98 95.4,-85.49 76.27,-63.02 63.59,-45.24"/>
<polygon fill="black" stroke="black" points="66.61,-43.46 58.07,-37.18 60.83,-47.41 66.61,-43.46"/>
<polygon fill="none" stroke="black" points="120.99,-77 120.99,-95 384.99,-95 384.99,-77 120.99,-77"/>
<text text-anchor="start" x="198.98" y="-84" font-family="Courier New" font-weight="bold" font-size="10.00" fill="blue">EQUALi(R_WPARM,20)</text>
<polygon fill="none" stroke="black" points="120.99,-57 120.99,-75 384.99,-75 384.99,-57 120.99,-57"/>
<text text-anchor="start" x="123.99" y="-63" font-family="Courier New" font-size="10.00" fill="blue">MULI(BPARM,2);MOV(BFRAME,BPARM);SHOW(WIP2);</text>
<polygon fill="none" stroke="black" points="117.99,-54 117.99,-98 387.99,-98 387.99,-54 117.99,-54"/>
</g>
<!-- 20 -->
<g id="node5" class="node">
<title>20</title>
<polyline fill="none" stroke="darkred" points="858.99,-7 880.99,-7"/>
<text text-anchor="start" x="861.99" y="-14.4" font-family="Courier New" font-weight="bold" font-size="14.00">20</text>
<path fill="none" stroke="darkred" d="M865.33,-4C865.33,-4 874.66,-4 874.66,-4 879.33,-4 883.99,-8.67 883.99,-13.33 883.99,-13.33 883.99,-22.67 883.99,-22.67 883.99,-27.33 879.33,-32 874.66,-32 874.66,-32 865.33,-32 865.33,-32 860.66,-32 855.99,-27.33 855.99,-22.67 855.99,-22.67 855.99,-13.33 855.99,-13.33 855.99,-8.67 860.66,-4 865.33,-4"/>
</g>
<!-- 5&#45;&gt;20 -->
<g id="edge6" class="edge">
<title>5&#45;&gt;20</title>
<path fill="none" stroke="black" d="M345.81,-133.06C418.51,-132.8 617.64,-129.19 673.99,-98 695.61,-86.03 687.09,-67.19 707.99,-54 745.82,-30.14 797.43,-22.35 832.14,-19.91"/>
<polygon fill="black" stroke="black" points="831.93,-23.43 841.71,-19.36 831.53,-16.44 831.93,-23.43"/>
<polygon fill="none" stroke="black" points="710.99,-77 710.99,-95 1016.99,-95 1016.99,-77 710.99,-77"/>
<text text-anchor="start" x="809.98" y="-84" font-family="Courier New" font-weight="bold" font-size="10.00" fill="blue">EQUALi(R_WPARM,40)</text>
<polygon fill="none" stroke="black" points="710.99,-57 710.99,-75 1016.99,-75 1016.99,-57 710.99,-57"/>
<text text-anchor="start" x="713.99" y="-63" font-family="Courier New" font-size="10.00" fill="blue">ASSIGN(WSPRITE,WIP2);MOV(BFRAME,BPARM);SHOW(WIP2);</text>
<polygon fill="none" stroke="black" points="707.99,-54 707.99,-98 1019.99,-98 1019.99,-54 707.99,-54"/>
</g>
<!-- 30 -->
<g id="node6" class="node">
<title>30</title>
<polyline fill="none" stroke="darkred" points="255.99,-7 277.99,-7"/>
<text text-anchor="start" x="258.99" y="-14.4" font-family="Courier New" font-weight="bold" font-size="14.00">30</text>
<path fill="none" stroke="darkred" d="M262.33,-4C262.33,-4 271.66,-4 271.66,-4 276.33,-4 280.99,-8.67 280.99,-13.33 280.99,-13.33 280.99,-22.67 280.99,-22.67 280.99,-27.33 276.33,-32 271.66,-32 271.66,-32 262.33,-32 262.33,-32 257.66,-32 252.99,-27.33 252.99,-22.67 252.99,-22.67 252.99,-13.33 252.99,-13.33 252.99,-8.67 257.66,-4 262.33,-4"/>
</g>
<!-- 5&#45;&gt;30 -->
<g id="edge7" class="edge">
<title>5&#45;&gt;30</title>
<path fill="none" stroke="black" d="M345.73,-127.7C362.14,-122.91 381.88,-114.06 391.99,-98 402.41,-81.45 403.81,-69.58 391.99,-54 381.42,-40.07 337.73,-30.16 304.95,-24.52"/>
<polygon fill="black" stroke="black" points="305.82,-21.12 295.38,-22.95 304.68,-28.03 305.82,-21.12"/>
<polygon fill="none" stroke="black" points="402.99,-77 402.99,-95 666.99,-95 666.99,-77 402.99,-77"/>
<text text-anchor="start" x="480.98" y="-84" font-family="Courier New" font-weight="bold" font-size="10.00" fill="blue">EQUALi(R_WPARM,80)</text>
<polygon fill="none" stroke="black" points="402.99,-57 402.99,-75 666.99,-75 666.99,-57 402.99,-57"/>
<text text-anchor="start" x="405.99" y="-63" font-family="Courier New" font-size="10.00" fill="blue">DIVI(BPARM,2);MOV(BFRAME,BPARM);SHOW(WIP2);</text>
<polygon fill="none" stroke="black" points="399.99,-54 399.99,-98 669.99,-98 669.99,-54 399.99,-54"/>
</g>
<!-- 10&#45;&gt;0 -->
<g id="edge2" class="edge">
<title>10&#45;&gt;0</title>
<path fill="none" stroke="black" d="M34.17,-35.57C15.58,-61.79 -14.34,-113.77 7.99,-152 36.3,-200.46 66.26,-192.25 117.99,-214 144.44,-225.12 154.15,-219.53 179.99,-232 181.7,-232.82 183.41,-233.73 185.12,-234.68"/>
<polygon fill="black" stroke="black" points="183.01,-237.5 193.35,-239.83 186.72,-231.56 183.01,-237.5"/>
<text text-anchor="start" x="11.99" y="-132" font-family="Courier New" font-weight="bold" font-size="10.00" fill="blue">Z_EPSILON(,)</text>
</g>
<!-- 20&#45;&gt;0 -->
<g id="edge3" class="edge">
<title>20&#45;&gt;0</title>
<path fill="none" stroke="black" d="M896.88,-21.34C935.81,-25.34 1004.91,-34.99 1019.99,-54 1032.15,-69.32 1031.46,-82.16 1019.99,-98 928.27,-224.69 401.26,-251.41 254.13,-256.43"/>
<polygon fill="black" stroke="black" points="254.04,-252.94 244.16,-256.76 254.26,-259.93 254.04,-252.94"/>
<text text-anchor="start" x="1005.99" y="-132" font-family="Courier New" font-weight="bold" font-size="10.00" fill="blue">Z_EPSILON(,)</text>
</g>
<!-- 30&#45;&gt;0 -->
<g id="edge4" class="edge">
<title>30&#45;&gt;0</title>
<path fill="none" stroke="black" d="M240.23,-20.7C198.04,-24 119.09,-32.9 101.99,-54 54.46,-112.68 136.67,-193.85 184.82,-233.61"/>
<polygon fill="black" stroke="black" points="182.51,-236.24 192.49,-239.81 186.91,-230.8 182.51,-236.24"/>
<text text-anchor="start" x="111.99" y="-132" font-family="Courier New" font-weight="bold" font-size="10.00" fill="blue">Z_EPSILON(,)</text>
</g>
</g>
</svg>
