<?xml version="1.0" encoding="UTF-8" standalone="no"?>
<!DOCTYPE svg PUBLIC "-//W3C//DTD SVG 1.1//EN"
 "http://www.w3.org/Graphics/SVG/1.1/DTD/svg11.dtd">
<!-- Generated by graphviz version 7.1.0 (20230121.1956)
 -->
<!-- Pages: 1 -->
<svg width="2158pt" height="710pt"
 viewBox="0.00 0.00 2157.79 710.00" xmlns="http://www.w3.org/2000/svg" xmlns:xlink="http://www.w3.org/1999/xlink">
<g id="graph0" class="graph" transform="scale(1 1) rotate(0) translate(4 706)">
<polygon fill="white" stroke="none" points="-4,4 -4,-706 2153.79,-706 2153.79,4 -4,4"/>
<!-- 0 -->
<g id="node1" class="node">
<title>0</title>
<ellipse fill="none" stroke="black" cx="1867.79" cy="-684" rx="27" ry="18"/>
<text text-anchor="middle" x="1867.79" y="-679.8" font-family="Times,serif" font-size="14.00">0</text>
</g>
<!-- 1 -->
<g id="node2" class="node">
<title>1</title>
<ellipse fill="none" stroke="black" cx="1758.79" cy="-590" rx="27" ry="18"/>
<text text-anchor="middle" x="1758.79" y="-585.8" font-family="Times,serif" font-size="14.00">1</text>
</g>
<!-- 0&#45;&gt;1 -->
<g id="edge1" class="edge">
<title>0&#45;&gt;1</title>
<path fill="none" stroke="black" d="M1841.83,-678.1C1822.99,-673.33 1798.07,-664.32 1781.79,-648 1773.96,-640.15 1768.7,-629.28 1765.21,-619.14"/>
<polygon fill="black" stroke="black" points="1768.6,-618.25 1762.41,-609.65 1761.88,-620.23 1768.6,-618.25"/>
<text text-anchor="start" x="1785.79" y="-634.2" font-family="Courier New" font-weight="bold" font-size="12.00" fill="blue">SHOW(0,0)</text>
</g>
<!-- 10 -->
<g id="node3" class="node">
<title>10</title>
<ellipse fill="none" stroke="black" cx="994.79" cy="-364" rx="27" ry="18"/>
<text text-anchor="middle" x="994.79" y="-359.8" font-family="Times,serif" font-size="14.00">10</text>
</g>
<!-- 1&#45;&gt;10 -->
<g id="edge2" class="edge">
<title>1&#45;&gt;10</title>
<path fill="none" stroke="black" d="M1731.81,-588.35C1603.08,-584.98 1055.33,-567.57 1003.79,-514 973.09,-482.09 979.36,-426.41 986.93,-392.89"/>
<polygon fill="black" stroke="black" points="990.25,-394.06 989.24,-383.51 983.45,-392.38 990.25,-394.06"/>
<polygon fill="none" stroke="black" points="1007.29,-491 1007.29,-511 1720.29,-511 1720.29,-491 1007.29,-491"/>
<text text-anchor="start" x="1313.38" y="-498.2" font-family="Courier New" font-weight="bold" font-size="12.00" fill="blue">LTEi(WPARM,20)</text>
<polygon fill="none" stroke="black" points="1007.29,-469 1007.29,-489 1720.29,-489 1720.29,-469 1007.29,-469"/>
<text text-anchor="start" x="1010.29" y="-475.2" font-family="Times,serif" font-size="12.00" fill="blue">ASSIGN(LWEALTH,10);ASSIGN(WPARM,MAX_VIAL_STORAGE);MOV(BPARM,LWEALTH);SIGNALi(SIG_SHOW,S1_VIALMETER);</text>
<polygon fill="none" stroke="black" points="1003.79,-466 1003.79,-514 1722.79,-514 1722.79,-466 1003.79,-466"/>
</g>
<!-- 2 -->
<g id="node4" class="node">
<title>2</title>
<ellipse fill="none" stroke="black" cx="1758.79" cy="-490" rx="27" ry="18"/>
<text text-anchor="middle" x="1758.79" y="-485.8" font-family="Times,serif" font-size="14.00">2</text>
</g>
<!-- 1&#45;&gt;2 -->
<g id="edge3" class="edge">
<title>1&#45;&gt;2</title>
<path fill="none" stroke="black" d="M1758.79,-571.93C1758.79,-557.54 1758.79,-536.65 1758.79,-519.7"/>
<polygon fill="black" stroke="black" points="1762.29,-519.72 1758.79,-509.72 1755.29,-519.72 1762.29,-519.72"/>
<text text-anchor="start" x="1762.79" y="-540.2" font-family="Courier New" font-weight="bold" font-size="12.00" fill="blue">Z_EPSILON(,)</text>
</g>
<!-- 10&#45;&gt;10 -->
<g id="edge6" class="edge">
<title>10&#45;&gt;10</title>
<path fill="none" stroke="black" d="M1020.69,-369.59C1031.07,-369.91 1039.79,-368.04 1039.79,-364 1039.79,-361.6 1036.72,-359.97 1032.05,-359.1"/>
<polygon fill="black" stroke="black" points="1032.39,-355.62 1022.2,-358.5 1031.96,-362.61 1032.39,-355.62"/>
<text text-anchor="start" x="1044.29" y="-361.2" font-family="Courier New" font-weight="bold" font-size="12.00" fill="orange">DROP(0,IDD_SCOOPE)</text>
</g>
<!-- 10&#45;&gt;10 -->
<g id="edge10" class="edge">
<title>10&#45;&gt;10</title>
<path fill="none" stroke="black" d="M1020.12,-370.96C1071.52,-378.45 1176.79,-376.13 1176.79,-364 1176.79,-352.7 1085.42,-349.91 1031.37,-355.64"/>
<polygon fill="black" stroke="black" points="1031.12,-352.14 1021.63,-356.85 1031.98,-359.09 1031.12,-352.14"/>
<text text-anchor="start" x="1181.29" y="-361.2" font-family="Courier New" font-weight="bold" font-size="12.00" fill="orange">GRAB(0,IDD_SCOOPE)</text>
</g>
<!-- 12 -->
<g id="node5" class="node">
<title>12</title>
<ellipse fill="none" stroke="black" cx="1048.79" cy="-238" rx="27" ry="18"/>
<text text-anchor="middle" x="1048.79" y="-233.8" font-family="Times,serif" font-size="14.00">12</text>
</g>
<!-- 10&#45;&gt;12 -->
<g id="edge4" class="edge">
<title>10&#45;&gt;12</title>
<path fill="none" stroke="black" d="M1000.91,-346.27C1007.21,-329.37 1017.54,-302.59 1027.79,-280 1029.97,-275.2 1032.42,-270.15 1034.85,-265.31"/>
<polygon fill="black" stroke="black" points="1037.9,-267.03 1039.36,-256.53 1031.68,-263.83 1037.9,-267.03"/>
<text text-anchor="start" x="1032.29" y="-301.2" font-family="Courier New" font-weight="bold" font-size="12.00" fill="orange">DRAG(0,IDD_SCOOPE)</text>
</g>
<!-- 16 -->
<g id="node6" class="node">
<title>16</title>
<ellipse fill="none" stroke="black" cx="109.79" cy="-238" rx="27" ry="18"/>
<text text-anchor="middle" x="109.79" y="-233.8" font-family="Times,serif" font-size="14.00">16</text>
</g>
<!-- 10&#45;&gt;16 -->
<g id="edge5" class="edge">
<title>10&#45;&gt;16</title>
<path fill="none" stroke="black" d="M967.44,-362.96C821.64,-362.64 141.37,-359.46 110.79,-328 95.56,-312.33 96.85,-286.8 101.06,-267.1"/>
<polygon fill="black" stroke="black" points="104.44,-268.03 103.48,-257.47 97.65,-266.32 104.44,-268.03"/>
<polygon fill="none" stroke="black" points="114.29,-305 114.29,-325 249.29,-325 249.29,-305 114.29,-305"/>
<text text-anchor="start" x="117.29" y="-312.2" font-family="Courier New" font-weight="bold" font-size="12.00" fill="orange">DRAG(0,IDD_SCOOPF)</text>
<polygon fill="none" stroke="black" points="114.29,-283 114.29,-303 249.29,-303 249.29,-283 114.29,-283"/>
<text text-anchor="start" x="135.62" y="-289.2" font-family="Times,serif" font-size="12.00" fill="blue">ADDI(BPARM,1);</text>
<polygon fill="none" stroke="black" points="110.79,-280 110.79,-328 251.79,-328 251.79,-280 110.79,-280"/>
</g>
<!-- 19 -->
<g id="node7" class="node">
<title>19</title>
<ellipse fill="none" stroke="black" cx="492.79" cy="-238" rx="27" ry="18"/>
<text text-anchor="middle" x="492.79" y="-233.8" font-family="Times,serif" font-size="14.00">19</text>
</g>
<!-- 10&#45;&gt;19 -->
<g id="edge7" class="edge">
<title>10&#45;&gt;19</title>
<path fill="none" stroke="black" d="M967.6,-362.33C878.6,-359.94 599.76,-350.69 566.79,-328 547.3,-314.59 558.48,-298.54 543.79,-280 537.23,-271.72 528.7,-264.05 520.51,-257.63"/>
<polygon fill="black" stroke="black" points="522.85,-255.01 512.73,-251.86 518.67,-260.63 522.85,-255.01"/>
<text text-anchor="start" x="571.29" y="-301.2" font-family="Courier New" font-weight="bold" font-size="12.00" fill="orange">DROP(0,IDD_SCOOPF)</text>
</g>
<!-- 40 -->
<g id="node8" class="node">
<title>40</title>
<ellipse fill="none" stroke="black" cx="1744.79" cy="-238" rx="27" ry="18"/>
<text text-anchor="middle" x="1744.79" y="-233.8" font-family="Times,serif" font-size="14.00">40</text>
</g>
<!-- 10&#45;&gt;40 -->
<g id="edge8" class="edge">
<title>10&#45;&gt;40</title>
<path fill="none" stroke="black" d="M1021.92,-362.87C1127.05,-362.17 1503.93,-357.59 1547.79,-328 1567.4,-314.77 1552.36,-294.83 1570.79,-280 1609.57,-248.79 1668.07,-240.59 1706.35,-238.82"/>
<polygon fill="black" stroke="black" points="1706.14,-242.33 1716.02,-238.51 1705.91,-235.34 1706.14,-242.33"/>
<text text-anchor="start" x="1574.79" y="-301.2" font-family="Courier New" font-weight="bold" font-size="12.00" fill="orange">DROP(0,IDD_VIAL1)</text>
</g>
<!-- 50 -->
<g id="node9" class="node">
<title>50</title>
<ellipse fill="none" stroke="black" cx="1844.79" cy="-238" rx="27" ry="18"/>
<text text-anchor="middle" x="1844.79" y="-233.8" font-family="Times,serif" font-size="14.00">50</text>
</g>
<!-- 10&#45;&gt;50 -->
<g id="edge9" class="edge">
<title>10&#45;&gt;50</title>
<path fill="none" stroke="black" d="M1022.05,-362.45C1143.85,-359.9 1635.17,-348.41 1700.79,-328 1746.73,-313.71 1792.8,-281.3 1820.05,-259.79"/>
<polygon fill="black" stroke="black" points="1822.1,-262.64 1827.69,-253.64 1817.71,-257.18 1822.1,-262.64"/>
<text text-anchor="start" x="1792.79" y="-301.2" font-family="Courier New" font-weight="bold" font-size="12.00" fill="orange">DROP(0,IDD_VIAL2)</text>
</g>
<!-- 2&#45;&gt;10 -->
<g id="edge21" class="edge">
<title>2&#45;&gt;10</title>
<path fill="none" stroke="black" d="M1740.29,-476.69C1733.47,-472.69 1725.52,-468.61 1717.79,-466 1652.22,-443.9 1172.38,-386.01 1032.78,-369.47"/>
<polygon fill="black" stroke="black" points="1033.31,-366.01 1022.97,-368.31 1032.49,-372.96 1033.31,-366.01"/>
<polygon fill="none" stroke="black" points="1631.79,-425 1631.79,-445 1847.79,-445 1847.79,-425 1631.79,-425"/>
<text text-anchor="start" x="1674.98" y="-432.2" font-family="Courier New" font-weight="bold" font-size="12.00" fill="blue">MOV(BPARM,LWEALTH)</text>
<polygon fill="none" stroke="black" points="1631.79,-403 1631.79,-423 1847.79,-423 1847.79,-403 1631.79,-403"/>
<text text-anchor="start" x="1634.79" y="-409.2" font-family="Times,serif" font-size="12.00" fill="blue">SIGNALi(SIG_SHOW,S1_VIALMETER);</text>
<polygon fill="none" stroke="black" points="1628.79,-400 1628.79,-448 1850.79,-448 1850.79,-400 1628.79,-400"/>
</g>
<!-- 12&#45;&gt;10 -->
<g id="edge11" class="edge">
<title>12&#45;&gt;10</title>
<path fill="none" stroke="black" d="M1075.89,-240.07C1103.41,-242.78 1144.75,-251.66 1164.79,-280 1177.11,-297.42 1178.27,-311.46 1164.79,-328 1148.54,-347.94 1078.34,-356.85 1033.39,-360.57"/>
<polygon fill="black" stroke="black" points="1033.21,-357.08 1023.51,-361.34 1033.75,-364.06 1033.21,-357.08"/>
<text text-anchor="start" x="1178.79" y="-301.2" font-family="Courier New" font-weight="bold" font-size="12.00" fill="blue">EQUALi(LWEALTH,0)</text>
</g>
<!-- 13 -->
<g id="node10" class="node">
<title>13</title>
<ellipse fill="none" stroke="black" cx="1109.79" cy="-112" rx="27" ry="18"/>
<text text-anchor="middle" x="1109.79" y="-107.8" font-family="Times,serif" font-size="14.00">13</text>
</g>
<!-- 12&#45;&gt;13 -->
<g id="edge12" class="edge">
<title>12&#45;&gt;13</title>
<path fill="none" stroke="black" d="M1044.02,-219.96C1039.75,-201.03 1035.94,-170.2 1048.79,-148 1054.71,-137.78 1064.87,-130.28 1075.22,-124.91"/>
<polygon fill="black" stroke="black" points="1076.45,-128.2 1084.1,-120.86 1073.55,-121.83 1076.45,-128.2"/>
<polygon fill="none" stroke="black" points="1051.79,-173 1051.79,-193 1515.79,-193 1515.79,-173 1051.79,-173"/>
<text text-anchor="start" x="1240.58" y="-180.2" font-family="Courier New" font-weight="bold" font-size="12.00" fill="blue">Z_EPSILON(,)</text>
<polygon fill="none" stroke="black" points="1051.79,-151 1051.79,-171 1515.79,-171 1515.79,-151 1051.79,-151"/>
<text text-anchor="start" x="1054.79" y="-157.2" font-family="Times,serif" font-size="12.00" fill="blue">SUBI(LWEALTH,1);MOV(BPARM,LWEALTH);SIGNALi(SIG_SHOW,S1_VIALMETER);</text>
<polygon fill="none" stroke="black" points="1048.79,-148 1048.79,-196 1518.79,-196 1518.79,-148 1048.79,-148"/>
</g>
<!-- 16&#45;&gt;10 -->
<g id="edge15" class="edge">
<title>16&#45;&gt;10</title>
<path fill="none" stroke="black" d="M136.74,-240.93C167.42,-244.36 217.68,-253.85 251.79,-280 271.57,-295.17 259.39,-315.22 280.79,-328 338.84,-362.65 815.35,-363.67 955.91,-363.21"/>
<polygon fill="black" stroke="black" points="955.82,-366.71 965.81,-363.17 955.8,-359.71 955.82,-366.71"/>
<text text-anchor="start" x="285.29" y="-301.2" font-family="Courier New" font-weight="bold" font-size="12.00" fill="blue">GTE(BPARM,WPARM)</text>
</g>
<!-- 17 -->
<g id="node12" class="node">
<title>17</title>
<ellipse fill="none" stroke="black" cx="236.79" cy="-112" rx="27" ry="18"/>
<text text-anchor="middle" x="236.79" y="-107.8" font-family="Times,serif" font-size="14.00">17</text>
</g>
<!-- 16&#45;&gt;17 -->
<g id="edge16" class="edge">
<title>16&#45;&gt;17</title>
<path fill="none" stroke="black" d="M82.94,-234.17C59.23,-230.09 25.99,-220.15 9.79,-196 -2.09,-178.28 -4.1,-164.19 9.79,-148 33.59,-120.25 139.76,-114.3 198.09,-113.15"/>
<polygon fill="black" stroke="black" points="197.96,-116.65 207.91,-113 197.85,-109.66 197.96,-116.65"/>
<polygon fill="none" stroke="black" points="12.79,-173 12.79,-193 478.79,-193 478.79,-173 12.79,-173"/>
<text text-anchor="start" x="202.58" y="-180.2" font-family="Courier New" font-weight="bold" font-size="12.00" fill="blue">Z_EPSILON(,)</text>
<polygon fill="none" stroke="black" points="12.79,-151 12.79,-171 478.79,-171 478.79,-151 12.79,-151"/>
<text text-anchor="start" x="15.79" y="-157.2" font-family="Times,serif" font-size="12.00" fill="blue">ADDI(LWEALTH,1);MOV(BPARM,LWEALTH);SIGNALi(SIG_SHOW,S1_VIALMETER);</text>
<polygon fill="none" stroke="black" points="9.79,-148 9.79,-196 481.79,-196 481.79,-148 9.79,-148"/>
</g>
<!-- 19&#45;&gt;10 -->
<g id="edge19" class="edge">
<title>19&#45;&gt;10</title>
<path fill="none" stroke="black" d="M467.86,-245.15C450.2,-250.95 427.78,-261.59 416.79,-280 405.86,-298.32 402.17,-312.47 416.79,-328 435.29,-347.66 829.75,-358.97 956.17,-362.1"/>
<polygon fill="black" stroke="black" points="955.95,-365.6 966.03,-362.34 956.12,-358.6 955.95,-365.6"/>
<text text-anchor="start" x="421.29" y="-301.2" font-family="Courier New" font-weight="bold" font-size="12.00" fill="blue">GTE(BPARM,WPARM)</text>
</g>
<!-- 20 -->
<g id="node14" class="node">
<title>20</title>
<ellipse fill="none" stroke="black" cx="547.79" cy="-112" rx="27" ry="18"/>
<text text-anchor="middle" x="547.79" y="-107.8" font-family="Times,serif" font-size="14.00">20</text>
</g>
<!-- 19&#45;&gt;20 -->
<g id="edge20" class="edge">
<title>19&#45;&gt;20</title>
<path fill="none" stroke="black" d="M488.48,-220.07C484.67,-201.22 481.41,-170.47 493.79,-148 498.56,-139.35 506.47,-132.5 514.79,-127.24"/>
<polygon fill="black" stroke="black" points="516.23,-130.44 523.26,-122.52 512.82,-124.33 516.23,-130.44"/>
<text text-anchor="start" x="497.79" y="-169.2" font-family="Courier New" font-weight="bold" font-size="12.00" fill="blue">Z_EPSILON(,)</text>
</g>
<!-- 40&#45;&gt;0 -->
<g id="edge23" class="edge">
<title>40&#45;&gt;0</title>
<path fill="none" stroke="black" d="M1768.32,-247.52C1799.93,-259.01 1852.36,-278.26 1853.79,-280 1877.58,-308.87 1867.79,-325.59 1867.79,-363 1867.79,-591 1867.79,-591 1867.79,-591 1867.79,-612.25 1867.79,-636.27 1867.79,-654.44"/>
<polygon fill="black" stroke="black" points="1864.29,-654.19 1867.79,-664.19 1871.29,-654.19 1864.29,-654.19"/>
<text text-anchor="start" x="1872.29" y="-487.2" font-family="Courier New" font-weight="bold" font-size="12.00" fill="blue">ASSIGN(WPARM,40)</text>
</g>
<!-- 50&#45;&gt;0 -->
<g id="edge24" class="edge">
<title>50&#45;&gt;0</title>
<path fill="none" stroke="black" d="M1870.48,-243.98C1920.65,-255.35 2026.79,-288.25 2026.79,-363 2026.79,-591 2026.79,-591 2026.79,-591 2026.79,-646.71 1952.75,-669.23 1905.72,-677.91"/>
<polygon fill="black" stroke="black" points="1905.17,-674.46 1895.9,-679.58 1906.34,-681.36 1905.17,-674.46"/>
<text text-anchor="start" x="2031.29" y="-487.2" font-family="Courier New" font-weight="bold" font-size="12.00" fill="blue">ASSIGN(WPARM,80)</text>
</g>
<!-- 14 -->
<g id="node11" class="node">
<title>14</title>
<ellipse fill="none" stroke="black" cx="1478.79" cy="-18" rx="27" ry="18"/>
<text text-anchor="middle" x="1478.79" y="-13.8" font-family="Times,serif" font-size="14.00">14</text>
</g>
<!-- 13&#45;&gt;14 -->
<g id="edge13" class="edge">
<title>13&#45;&gt;14</title>
<path fill="none" stroke="black" d="M1134.86,-104.75C1198.76,-88.82 1367.92,-46.64 1442.55,-28.04"/>
<polygon fill="black" stroke="black" points="1443.36,-31.44 1452.21,-25.63 1441.66,-24.65 1443.36,-31.44"/>
<text text-anchor="start" x="1343.29" y="-62.2" font-family="Courier New" font-weight="bold" font-size="12.00" fill="blue">PLAYWAVE(0,SOUND_SLURP)</text>
</g>
<!-- 14&#45;&gt;10 -->
<g id="edge14" class="edge">
<title>14&#45;&gt;10</title>
<path fill="none" stroke="black" d="M1497.27,-31.51C1504.41,-37.42 1511.8,-45.13 1515.79,-54 1528.72,-82.76 1527.78,-179.73 1518.79,-196 1465.47,-292.49 1412.86,-291.64 1308.79,-328 1258.76,-345.48 1105.34,-356.51 1033.13,-360.87"/>
<polygon fill="black" stroke="black" points="1033.14,-357.37 1023.37,-361.45 1033.56,-364.35 1033.14,-357.37"/>
<text text-anchor="start" x="1530.29" y="-169.2" font-family="Courier New" font-weight="bold" font-size="12.00" fill="blue">HANDOFF(0,IDD_SCOOPF)</text>
</g>
<!-- 18 -->
<g id="node13" class="node">
<title>18</title>
<ellipse fill="none" stroke="black" cx="736.79" cy="-18" rx="27" ry="18"/>
<text text-anchor="middle" x="736.79" y="-13.8" font-family="Times,serif" font-size="14.00">18</text>
</g>
<!-- 17&#45;&gt;18 -->
<g id="edge17" class="edge">
<title>17&#45;&gt;18</title>
<path fill="none" stroke="black" d="M262.62,-106.25C345.16,-91.06 602.82,-43.65 699.57,-25.85"/>
<polygon fill="black" stroke="black" points="700.12,-29.31 709.33,-24.05 698.86,-22.42 700.12,-29.31"/>
<text text-anchor="start" x="550.79" y="-62.2" font-family="Courier New" font-weight="bold" font-size="12.00" fill="blue">PLAYWAVE(0,SOUND_SPIT)</text>
</g>
<!-- 18&#45;&gt;10 -->
<g id="edge18" class="edge">
<title>18&#45;&gt;10</title>
<path fill="none" stroke="black" d="M744.65,-35.47C762.66,-71.25 810.59,-156.05 877.79,-196 917.36,-219.53 948.47,-180.26 979.79,-214 1009.88,-246.41 1006.6,-301.54 1001.02,-334.88"/>
<polygon fill="black" stroke="black" points="997.6,-334.14 999.19,-344.61 1004.48,-335.43 997.6,-334.14"/>
<text text-anchor="start" x="882.29" y="-169.2" font-family="Courier New" font-weight="bold" font-size="12.00" fill="blue">HANDOFF(0,IDD_SCOOPE)</text>
</g>
<!-- 20&#45;&gt;10 -->
<g id="edge22" class="edge">
<title>20&#45;&gt;10</title>
<path fill="none" stroke="black" d="M566.42,-125.38C574.09,-131.37 582.42,-139.17 587.79,-148 614.9,-192.58 578.18,-225.84 615.79,-262 644.56,-289.67 665.01,-270.52 703.79,-280 797.17,-302.83 905.73,-335.43 960.07,-352.17"/>
<polygon fill="black" stroke="black" points="958.78,-355.43 969.36,-355.04 960.84,-348.75 958.78,-355.43"/>
<polygon fill="none" stroke="black" points="618.79,-239 618.79,-259 976.79,-259 976.79,-239 618.79,-239"/>
<text text-anchor="start" x="743.78" y="-246.2" font-family="Courier New" font-weight="bold" font-size="12.00" fill="blue">ADDi(LWEALTH,1)</text>
<polygon fill="none" stroke="black" points="618.79,-217 618.79,-237 976.79,-237 976.79,-217 618.79,-217"/>
<text text-anchor="start" x="621.79" y="-223.2" font-family="Times,serif" font-size="12.00" fill="blue">MOV(BPARM,LWEALTH);SIGNALi(SIG_SHOW,S1_VIALMETER);</text>
<polygon fill="none" stroke="black" points="615.79,-214 615.79,-262 979.79,-262 979.79,-214 615.79,-214"/>
</g>
</g>
</svg>
