<?xml version="1.0" encoding="UTF-8" standalone="no"?>
<!DOCTYPE svg PUBLIC "-//W3C//DTD SVG 1.1//EN"
 "http://www.w3.org/Graphics/SVG/1.1/DTD/svg11.dtd">
<!-- Generated by graphviz version 7.1.0 (20230121.1956)
 -->
<!-- Pages: 1 -->
<svg width="256pt" height="228pt"
 viewBox="0.00 0.00 256.00 228.00" xmlns="http://www.w3.org/2000/svg" xmlns:xlink="http://www.w3.org/1999/xlink">
<g id="graph0" class="graph" transform="scale(1 1) rotate(0) translate(4 224)">
<polygon fill="white" stroke="none" points="-4,4 -4,-224 252,-224 252,4 -4,4"/>
<!-- 0 -->
<g id="node1" class="node">
<title>0</title>
<ellipse fill="none" stroke="black" cx="92" cy="-202" rx="27" ry="18"/>
<text text-anchor="middle" x="92" y="-197.8" font-family="Times,serif" font-size="14.00">0</text>
</g>
<!-- 1 -->
<g id="node2" class="node">
<title>1</title>
<ellipse fill="none" stroke="black" cx="27" cy="-110" rx="27" ry="18"/>
<text text-anchor="middle" x="27" y="-105.8" font-family="Times,serif" font-size="14.00">1</text>
</g>
<!-- 0&#45;&gt;1 -->
<g id="edge1" class="edge">
<title>0&#45;&gt;1</title>
<path fill="none" stroke="black" d="M71.9,-189.51C62.91,-183.5 52.82,-175.43 46,-166 40.25,-158.06 36.13,-148.24 33.23,-139.1"/>
<polygon fill="black" stroke="black" points="36.63,-138.25 30.58,-129.54 29.88,-140.12 36.63,-138.25"/>
<text text-anchor="start" x="50" y="-154" font-family="Courier New" font-weight="bold" font-size="10.00" fill="orange">WAIT(0,SIG_OPEN)</text>
</g>
<!-- 2 -->
<g id="node3" class="node">
<title>2</title>
<ellipse fill="none" stroke="black" cx="92" cy="-18" rx="27" ry="18"/>
<text text-anchor="middle" x="92" y="-13.8" font-family="Times,serif" font-size="14.00">2</text>
</g>
<!-- 1&#45;&gt;2 -->
<g id="edge2" class="edge">
<title>1&#45;&gt;2</title>
<path fill="none" stroke="black" d="M20.5,-92.39C17.1,-80.8 14.94,-65.42 22,-54 29.53,-41.81 42.74,-33.72 55.67,-28.43"/>
<polygon fill="black" stroke="black" points="56.67,-31.79 64.91,-25.12 54.31,-25.2 56.67,-31.79"/>
<text text-anchor="start" x="26" y="-62" font-family="Courier New" font-weight="bold" font-size="10.00" fill="blue">SHOW(0,IDS_BIRDSFWD)</text>
</g>
<!-- 2&#45;&gt;0 -->
<g id="edge3" class="edge">
<title>2&#45;&gt;0</title>
<path fill="none" stroke="black" d="M116.04,-26.93C128.55,-32.42 142.72,-41.1 150,-54 174.47,-97.35 174.47,-122.65 150,-166 144.65,-175.48 135.59,-182.68 126.2,-188"/>
<polygon fill="black" stroke="black" points="124.78,-184.8 117.4,-192.4 127.91,-191.06 124.78,-184.8"/>
<text text-anchor="start" x="172" y="-108" font-family="Courier New" font-weight="bold" font-size="10.00" fill="blue">ANIMATE(0,0)</text>
</g>
</g>
</svg>
