<?xml version="1.0" encoding="UTF-8" standalone="no"?>
<!DOCTYPE svg PUBLIC "-//W3C//DTD SVG 1.1//EN"
 "http://www.w3.org/Graphics/SVG/1.1/DTD/svg11.dtd">
<!-- Generated by graphviz version 7.1.0 (20230121.1956)
 -->
<!-- Pages: 1 -->
<svg width="295pt" height="232pt"
 viewBox="0.00 0.00 295.00 232.00" xmlns="http://www.w3.org/2000/svg" xmlns:xlink="http://www.w3.org/1999/xlink">
<g id="graph0" class="graph" transform="scale(1 1) rotate(0) translate(4 228)">
<polygon fill="white" stroke="none" points="-4,4 -4,-228 291,-228 291,4 -4,4"/>
<!-- 0 -->
<g id="node1" class="node">
<title>0</title>
<ellipse fill="none" stroke="black" cx="104" cy="-206" rx="27" ry="18"/>
<text text-anchor="middle" x="104" y="-201.8" font-family="Times,serif" font-size="14.00">0</text>
</g>
<!-- 1 -->
<g id="node2" class="node">
<title>1</title>
<ellipse fill="none" stroke="black" cx="27" cy="-112" rx="27" ry="18"/>
<text text-anchor="middle" x="27" y="-107.8" font-family="Times,serif" font-size="14.00">1</text>
</g>
<!-- 0&#45;&gt;1 -->
<g id="edge1" class="edge">
<title>0&#45;&gt;1</title>
<path fill="none" stroke="black" d="M82.23,-194.91C71.34,-188.96 58.67,-180.52 50,-170 43.04,-161.57 37.97,-150.75 34.39,-140.82"/>
<polygon fill="black" stroke="black" points="37.82,-140.03 31.42,-131.59 31.15,-142.18 37.82,-140.03"/>
<text text-anchor="start" x="54.5" y="-156.2" font-family="Courier New" font-weight="bold" font-size="12.00" fill="orange">WAIT(0,SIG_OPEN)</text>
</g>
<!-- 2 -->
<g id="node3" class="node">
<title>2</title>
<ellipse fill="none" stroke="black" cx="103" cy="-18" rx="27" ry="18"/>
<text text-anchor="middle" x="103" y="-13.8" font-family="Times,serif" font-size="14.00">2</text>
</g>
<!-- 1&#45;&gt;2 -->
<g id="edge2" class="edge">
<title>1&#45;&gt;2</title>
<path fill="none" stroke="black" d="M19.86,-94.17C15.91,-82.04 13.21,-65.79 21,-54 30.98,-38.89 48.97,-30.28 65.56,-25.38"/>
<polygon fill="black" stroke="black" points="66.4,-28.78 75.23,-22.93 64.68,-22 66.4,-28.78"/>
<text text-anchor="start" x="25" y="-62.2" font-family="Courier New" font-weight="bold" font-size="12.00" fill="blue">SHOW(0,IDS_BIRDSFWD)</text>
</g>
<!-- 2&#45;&gt;0 -->
<g id="edge3" class="edge">
<title>2&#45;&gt;0</title>
<path fill="none" stroke="black" d="M128.67,-24.61C144.42,-29.52 163.36,-38.4 173,-54 200.1,-97.86 199.98,-126.07 173,-170 165.59,-182.07 152.57,-190.14 139.83,-195.45"/>
<polygon fill="black" stroke="black" points="138.93,-192.05 130.73,-198.77 141.33,-198.63 138.93,-192.05"/>
<text text-anchor="start" x="197" y="-109.2" font-family="Courier New" font-weight="bold" font-size="12.00" fill="blue">ANIMATE(0,0)</text>
</g>
</g>
</svg>
