<?xml version="1.0" encoding="UTF-8" standalone="no"?>
<!DOCTYPE svg PUBLIC "-//W3C//DTD SVG 1.1//EN"
 "http://www.w3.org/Graphics/SVG/1.1/DTD/svg11.dtd">
<!-- Generated by graphviz version 7.1.0 (20230121.1956)
 -->
<!-- Pages: 1 -->
<svg width="179pt" height="608pt"
 viewBox="0.00 0.00 179.00 608.00" xmlns="http://www.w3.org/2000/svg" xmlns:xlink="http://www.w3.org/1999/xlink">
<g id="graph0" class="graph" transform="scale(1 1) rotate(0) translate(4 604)">
<polygon fill="white" stroke="none" points="-4,4 -4,-604 175,-604 175,4 -4,4"/>
<!-- 0 -->
<g id="node1" class="node">
<title>0</title>
<ellipse fill="none" stroke="black" cx="27" cy="-582" rx="27" ry="18"/>
<text text-anchor="middle" x="27" y="-577.8" font-family="Times,serif" font-size="14.00">0</text>
</g>
<!-- 5 -->
<g id="node2" class="node">
<title>5</title>
<ellipse fill="none" stroke="black" cx="27" cy="-488" rx="27" ry="18"/>
<text text-anchor="middle" x="27" y="-483.8" font-family="Times,serif" font-size="14.00">5</text>
</g>
<!-- 0&#45;&gt;5 -->
<g id="edge1" class="edge">
<title>0&#45;&gt;5</title>
<path fill="none" stroke="black" d="M27,-563.7C27,-550.72 27,-532.66 27,-517.56"/>
<polygon fill="black" stroke="black" points="30.5,-517.74 27,-507.74 23.5,-517.74 30.5,-517.74"/>
<text text-anchor="start" x="31.5" y="-532.2" font-family="Courier New" font-weight="bold" font-size="12.00" fill="orange">WAIT(SIG_Q1_GIVEN)</text>
</g>
<!-- 10 -->
<g id="node3" class="node">
<title>10</title>
<ellipse fill="none" stroke="black" cx="27" cy="-394" rx="27" ry="18"/>
<text text-anchor="middle" x="27" y="-389.8" font-family="Times,serif" font-size="14.00">10</text>
</g>
<!-- 5&#45;&gt;10 -->
<g id="edge6" class="edge">
<title>5&#45;&gt;10</title>
<path fill="none" stroke="black" d="M27,-469.7C27,-456.72 27,-438.66 27,-423.56"/>
<polygon fill="black" stroke="black" points="30.5,-423.74 27,-413.74 23.5,-423.74 30.5,-423.74"/>
<text text-anchor="start" x="31" y="-438.2" font-family="Courier New" font-weight="bold" font-size="12.00" fill="orange">WAIT(SIG_Q1_SOLVED)</text>
</g>
<!-- 15 -->
<g id="node4" class="node">
<title>15</title>
<ellipse fill="none" stroke="black" cx="27" cy="-300" rx="27" ry="18"/>
<text text-anchor="middle" x="27" y="-295.8" font-family="Times,serif" font-size="14.00">15</text>
</g>
<!-- 10&#45;&gt;15 -->
<g id="edge2" class="edge">
<title>10&#45;&gt;15</title>
<path fill="none" stroke="black" d="M27,-375.7C27,-362.72 27,-344.66 27,-329.56"/>
<polygon fill="black" stroke="black" points="30.5,-329.74 27,-319.74 23.5,-329.74 30.5,-329.74"/>
<text text-anchor="start" x="31.5" y="-344.2" font-family="Courier New" font-weight="bold" font-size="12.00" fill="orange">WAIT(SIG_Q2_GIVEN)</text>
</g>
<!-- 20 -->
<g id="node5" class="node">
<title>20</title>
<ellipse fill="none" stroke="black" cx="27" cy="-206" rx="27" ry="18"/>
<text text-anchor="middle" x="27" y="-201.8" font-family="Times,serif" font-size="14.00">20</text>
</g>
<!-- 15&#45;&gt;20 -->
<g id="edge3" class="edge">
<title>15&#45;&gt;20</title>
<path fill="none" stroke="black" d="M27,-281.7C27,-268.72 27,-250.66 27,-235.56"/>
<polygon fill="black" stroke="black" points="30.5,-235.74 27,-225.74 23.5,-235.74 30.5,-235.74"/>
<text text-anchor="start" x="31" y="-250.2" font-family="Courier New" font-weight="bold" font-size="12.00" fill="orange">WAIT(SIG_Q2_SOLVED)</text>
</g>
<!-- 25 -->
<g id="node6" class="node">
<title>25</title>
<ellipse fill="none" stroke="black" cx="27" cy="-112" rx="27" ry="18"/>
<text text-anchor="middle" x="27" y="-107.8" font-family="Times,serif" font-size="14.00">25</text>
</g>
<!-- 20&#45;&gt;25 -->
<g id="edge4" class="edge">
<title>20&#45;&gt;25</title>
<path fill="none" stroke="black" d="M27,-187.7C27,-174.72 27,-156.66 27,-141.56"/>
<polygon fill="black" stroke="black" points="30.5,-141.74 27,-131.74 23.5,-141.74 30.5,-141.74"/>
<text text-anchor="start" x="31.5" y="-156.2" font-family="Courier New" font-weight="bold" font-size="12.00" fill="orange">WAIT(SIG_Q3_GIVEN)</text>
</g>
<!-- 30 -->
<g id="node7" class="node">
<title>30</title>
<ellipse fill="none" stroke="black" cx="27" cy="-18" rx="27" ry="18"/>
<text text-anchor="middle" x="27" y="-13.8" font-family="Times,serif" font-size="14.00">30</text>
</g>
<!-- 25&#45;&gt;30 -->
<g id="edge5" class="edge">
<title>25&#45;&gt;30</title>
<path fill="none" stroke="black" d="M27,-93.7C27,-80.72 27,-62.66 27,-47.56"/>
<polygon fill="black" stroke="black" points="30.5,-47.74 27,-37.74 23.5,-47.74 30.5,-47.74"/>
<text text-anchor="start" x="31" y="-62.2" font-family="Courier New" font-weight="bold" font-size="12.00" fill="orange">WAIT(SIG_Q3_SOLVED)</text>
</g>
</g>
</svg>
