<?xml version="1.0" encoding="UTF-8" standalone="no"?>
<!DOCTYPE svg PUBLIC "-//W3C//DTD SVG 1.1//EN"
 "http://www.w3.org/Graphics/SVG/1.1/DTD/svg11.dtd">
<!-- Generated by graphviz version 7.1.0 (20230121.1956)
 -->
<!-- Title: Automaton Pages: 1 -->
<svg width="664pt" height="309pt"
 viewBox="0.00 0.00 664.00 309.00" xmlns="http://www.w3.org/2000/svg" xmlns:xlink="http://www.w3.org/1999/xlink">
<g id="graph0" class="graph" transform="scale(1 1) rotate(0) translate(4 305)">
<title>Automaton</title>
<polygon fill="white" stroke="none" points="-4,4 -4,-305 660,-305 660,4 -4,4"/>
<!-- filename -->
<g id="node1" class="node">
<title>filename</title>
<polygon fill="none" stroke="black" points="0,-232.5 0,-284.5 202,-284.5 202,-232.5 0,-232.5"/>
<polygon fill="none" stroke="black" points="11,-259.5 11,-277.5 191,-277.5 191,-259.5 11,-259.5"/>
<text text-anchor="start" x="14" y="-266.5" font-family="Courier New" font-weight="bold" font-size="10.00">REC_DRYPIT::M_RECORD_COMPLETE</text>
<polygon fill="none" stroke="black" points="11,-239.5 11,-257.5 191,-257.5 191,-239.5 11,-239.5"/>
<text text-anchor="start" x="55.99" y="-245.5" font-family="Courier New" font-size="10.00" fill="brown">start state = 0</text>
<polygon fill="none" stroke="black" points="8,-236.5 8,-280.5 194,-280.5 194,-236.5 8,-236.5"/>
</g>
<!-- 0 -->
<g id="node2" class="node">
<title>0</title>
<polyline fill="none" stroke="darkred" points="240,-247.5 254,-247.5"/>
<text text-anchor="start" x="243" y="-254.9" font-family="Courier New" font-weight="bold" font-size="14.00">0</text>
<path fill="none" stroke="darkred" d="M243.67,-244.5C243.67,-244.5 250.33,-244.5 250.33,-244.5 253.67,-244.5 257,-247.83 257,-251.17 257,-251.17 257,-265.83 257,-265.83 257,-269.17 253.67,-272.5 250.33,-272.5 250.33,-272.5 243.67,-272.5 243.67,-272.5 240.33,-272.5 237,-269.17 237,-265.83 237,-265.83 237,-251.17 237,-251.17 237,-247.83 240.33,-244.5 243.67,-244.5"/>
</g>
<!-- 100 -->
<g id="node3" class="node">
<title>100</title>
<polyline fill="none" stroke="darkred" stroke-width="3" points="169.5,-102.5 201.5,-102.5"/>
<text text-anchor="start" x="173" y="-110.4" font-family="Courier New" font-weight="bold" font-size="14.00">100</text>
<path fill="none" stroke="darkred" stroke-width="3" d="M175,-97.5C175,-97.5 195,-97.5 195,-97.5 200.5,-97.5 206,-103 206,-108.5 206,-108.5 206,-119.5 206,-119.5 206,-125 200.5,-130.5 195,-130.5 195,-130.5 175,-130.5 175,-130.5 169.5,-130.5 164,-125 164,-119.5 164,-119.5 164,-108.5 164,-108.5 164,-103 169.5,-97.5 175,-97.5"/>
</g>
<!-- 0&#45;&gt;100 -->
<g id="edge1" class="edge">
<title>0&#45;&gt;100</title>
<path fill="none" stroke="black" d="M236.2,-240.71C229.84,-232.12 221.08,-222.19 211,-216 182.89,-198.74 159.3,-224 139,-198 126.97,-182.59 130.78,-171.74 139,-154 140.98,-149.72 143.69,-145.75 146.8,-142.1"/>
<polygon fill="black" stroke="black" points="149.03,-144.81 153.59,-135.25 144.07,-139.88 149.03,-144.81"/>
<polygon fill="none" stroke="black" points="142,-177 142,-195 340,-195 340,-177 142,-177"/>
<text text-anchor="start" x="180.99" y="-184" font-family="Courier New" font-weight="bold" font-size="10.00" fill="orange">WAIT(0,SIG_COMPLETE)</text>
<polygon fill="none" stroke="black" points="142,-157 142,-175 340,-175 340,-157 142,-157"/>
<text text-anchor="start" x="145" y="-163" font-family="Courier New" font-size="10.00" fill="blue">ASSIGN(WSPRITE,WIP1);SHOW(WIP1);</text>
<polygon fill="none" stroke="black" points="139,-154 139,-198 343,-198 343,-154 139,-154"/>
</g>
<!-- 101 -->
<g id="node4" class="node">
<title>101</title>
<polyline fill="none" stroke="darkred" points="256,-7 287,-7"/>
<text text-anchor="start" x="259" y="-14.4" font-family="Courier New" font-weight="bold" font-size="14.00">101</text>
<path fill="none" stroke="darkred" d="M261.83,-4C261.83,-4 280.17,-4 280.17,-4 284.83,-4 289.5,-8.67 289.5,-13.33 289.5,-13.33 289.5,-22.67 289.5,-22.67 289.5,-27.33 284.83,-32 280.17,-32 280.17,-32 261.83,-32 261.83,-32 257.17,-32 252.5,-27.33 252.5,-22.67 252.5,-22.67 252.5,-13.33 252.5,-13.33 252.5,-8.67 257.17,-4 261.83,-4"/>
</g>
<!-- 100&#45;&gt;101 -->
<g id="edge2" class="edge">
<title>100&#45;&gt;101</title>
<path fill="none" stroke="black" d="M200.74,-92.19C209.8,-80.6 221.6,-66.12 233,-54 236.25,-50.55 239.78,-47.02 243.33,-43.61"/>
<polygon fill="black" stroke="black" points="245.53,-46.35 250.44,-36.96 240.75,-41.24 245.53,-46.35"/>
<text text-anchor="start" x="237" y="-62" font-family="Courier New" font-weight="bold" font-size="10.00" fill="orange">WAIT(0,SIG_RESET)</text>
</g>
<!-- 101&#45;&gt;0 -->
<g id="edge3" class="edge">
<title>101&#45;&gt;0</title>
<path fill="none" stroke="black" d="M297.74,-24.51C313.86,-29.36 333.12,-38.21 343,-54 376.95,-108.25 381.2,-146.65 343,-198 326.38,-220.34 306.38,-200.89 283,-216 276.33,-220.31 270.18,-226.22 264.93,-232.21"/>
<polygon fill="black" stroke="black" points="262.43,-229.74 258.87,-239.72 267.88,-234.14 262.43,-229.74"/>
<polygon fill="none" stroke="black" points="373,-115 373,-133 511,-133 511,-115 373,-115"/>
<text text-anchor="start" x="405.99" y="-122" font-family="Courier New" font-weight="bold" font-size="10.00" fill="blue">Z_EPSILON(,)</text>
<polygon fill="none" stroke="black" points="373,-95 373,-113 511,-113 511,-95 373,-95"/>
<text text-anchor="start" x="376" y="-101" font-family="Courier New" font-size="10.00" fill="blue">CLEAR(WSPRITE);SHOW();</text>
<polygon fill="none" stroke="black" points="370,-92 370,-136 514,-136 514,-92 370,-92"/>
</g>
<!-- status -->
<g id="node5" class="node">
<title>status</title>
<polygon fill="none" stroke="black" points="292,-216.5 292,-300.5 656,-300.5 656,-216.5 292,-216.5"/>
<polygon fill="none" stroke="black" points="303,-275.5 303,-293.5 645,-293.5 645,-275.5 303,-275.5"/>
<text text-anchor="start" x="444" y="-282.5" font-family="Courier New" font-weight="bold" font-size="10.00">REC_DRYPIT</text>
<polygon fill="none" stroke="black" points="303,-243.5 303,-273.5 645,-273.5 645,-243.5 303,-243.5"/>
<text text-anchor="start" x="306" y="-261.5" font-family="Courier New" font-size="10.00" fill="green">REC_DRYPIT::M_RECORD_COMPLETE(&#39;IDS_REC_DRYPIT&#39;,&#39;&#39;,&#39;&#39;,&#39;&#39;)</text>
<text text-anchor="start" x="306" y="-249.5" font-family="Courier New" font-size="10.00" fill="green">{&#39;100&#39;: wSprite:rec_drypit}</text>
<polygon fill="none" stroke="black" points="303,-223.5 303,-241.5 645,-241.5 645,-223.5 303,-223.5"/>
<text text-anchor="start" x="471" y="-229.5" font-family="Courier New" font-size="10.00" fill="blue">_</text>
<polygon fill="none" stroke="black" points="300,-220.5 300,-296.5 648,-296.5 648,-220.5 300,-220.5"/>
</g>
</g>
</svg>
