<?xml version="1.0" encoding="UTF-8" standalone="no"?>
<!DOCTYPE svg PUBLIC "-//W3C//DTD SVG 1.1//EN"
 "http://www.w3.org/Graphics/SVG/1.1/DTD/svg11.dtd">
<!-- Generated by graphviz version 7.1.0 (20230121.1956)
 -->
<!-- Title: Automaton Pages: 1 -->
<svg width="802pt" height="1325pt"
 viewBox="0.00 0.00 802.00 1325.00" xmlns="http://www.w3.org/2000/svg" xmlns:xlink="http://www.w3.org/1999/xlink">
<g id="graph0" class="graph" transform="scale(1 1) rotate(0) translate(4 1321)">
<title>Automaton</title>
<polygon fill="white" stroke="none" points="-4,4 -4,-1321 798,-1321 798,4 -4,4"/>
<!-- filename -->
<g id="node1" class="node">
<title>filename</title>
<polygon fill="none" stroke="black" points="0,-1258.5 0,-1310.5 172,-1310.5 172,-1258.5 0,-1258.5"/>
<polygon fill="none" stroke="black" points="11,-1285.5 11,-1303.5 161,-1303.5 161,-1285.5 11,-1285.5"/>
<text text-anchor="start" x="14" y="-1292.5" font-family="Courier New" font-weight="bold" font-size="10.00">S00_HIDDEN_9::M_DIGGABLE</text>
<polygon fill="none" stroke="black" points="11,-1265.5 11,-1283.5 161,-1283.5 161,-1265.5 11,-1265.5"/>
<text text-anchor="start" x="40.99" y="-1271.5" font-family="Courier New" font-size="10.00" fill="brown">start state = 0</text>
<polygon fill="none" stroke="black" points="8,-1262.5 8,-1306.5 164,-1306.5 164,-1262.5 8,-1262.5"/>
</g>
<!-- 0 -->
<g id="node2" class="node">
<title>0</title>
<polyline fill="none" stroke="darkred" points="210,-1273.5 224,-1273.5"/>
<text text-anchor="start" x="213" y="-1280.9" font-family="Courier New" font-weight="bold" font-size="14.00">0</text>
<path fill="none" stroke="darkred" d="M213.67,-1270.5C213.67,-1270.5 220.33,-1270.5 220.33,-1270.5 223.67,-1270.5 227,-1273.83 227,-1277.17 227,-1277.17 227,-1291.83 227,-1291.83 227,-1295.17 223.67,-1298.5 220.33,-1298.5 220.33,-1298.5 213.67,-1298.5 213.67,-1298.5 210.33,-1298.5 207,-1295.17 207,-1291.83 207,-1291.83 207,-1277.17 207,-1277.17 207,-1273.83 210.33,-1270.5 213.67,-1270.5"/>
</g>
<!-- fixinToHideItem -->
<g id="node3" class="node">
<title>fixinToHideItem</title>
<polyline fill="none" stroke="darkred" points="151,-1131 283,-1131"/>
<text text-anchor="start" x="154" y="-1138.4" font-family="Courier New" font-weight="bold" font-size="14.00">fixinToHideItem</text>
<path fill="none" stroke="darkred" d="M157.33,-1128C157.33,-1128 276.67,-1128 276.67,-1128 281.33,-1128 286,-1132.67 286,-1137.33 286,-1137.33 286,-1146.67 286,-1146.67 286,-1151.33 281.33,-1156 276.67,-1156 276.67,-1156 157.33,-1156 157.33,-1156 152.67,-1156 148,-1151.33 148,-1146.67 148,-1146.67 148,-1137.33 148,-1137.33 148,-1132.67 152.67,-1128 157.33,-1128"/>
</g>
<!-- 0&#45;&gt;fixinToHideItem -->
<g id="edge1" class="edge">
<title>0&#45;&gt;fixinToHideItem</title>
<path fill="none" stroke="black" d="M217,-1266.55C217,-1242.8 217,-1199.31 217,-1170.78"/>
<polygon fill="black" stroke="black" points="220.5,-1171.08 217,-1161.08 213.5,-1171.08 220.5,-1171.08"/>
<polygon fill="none" stroke="black" points="220,-1213 220,-1231 388,-1231 388,-1213 220,-1213"/>
<text text-anchor="start" x="258.99" y="-1220" font-family="Courier New" font-weight="bold" font-size="10.00" fill="orange">WAIT(,SIG_OPEN)</text>
<polygon fill="none" stroke="black" points="220,-1181 220,-1211 388,-1211 388,-1181 220,-1181"/>
<text text-anchor="start" x="223" y="-1199" font-family="Courier New" font-size="10.00" fill="blue"> &#160;&#160;&#160;REF_MACHINE(S00_HIDER);</text>
<text text-anchor="start" x="223" y="-1187" font-family="Courier New" font-size="10.00" fill="blue"> &#160;&#160;&#160;MOV(WOBJECT,R_WPARM);</text>
<polygon fill="none" stroke="black" points="217,-1178 217,-1234 391,-1234 391,-1178 217,-1178"/>
</g>
<!-- determinedItem -->
<g id="node6" class="node">
<title>determinedItem</title>
<polyline fill="none" stroke="darkred" points="156,-1015 279,-1015"/>
<text text-anchor="start" x="159" y="-1022.4" font-family="Courier New" font-weight="bold" font-size="14.00">determinedItem</text>
<path fill="none" stroke="darkred" d="M161.83,-1012C161.83,-1012 272.17,-1012 272.17,-1012 276.83,-1012 281.5,-1016.67 281.5,-1021.33 281.5,-1021.33 281.5,-1030.67 281.5,-1030.67 281.5,-1035.33 276.83,-1040 272.17,-1040 272.17,-1040 161.83,-1040 161.83,-1040 157.17,-1040 152.5,-1035.33 152.5,-1030.67 152.5,-1030.67 152.5,-1021.33 152.5,-1021.33 152.5,-1016.67 157.17,-1012 161.83,-1012"/>
</g>
<!-- fixinToHideItem&#45;&gt;determinedItem -->
<g id="edge6" class="edge">
<title>fixinToHideItem&#45;&gt;determinedItem</title>
<path fill="none" stroke="black" d="M217,-1124.18C217,-1106.08 217,-1076.98 217,-1055.33"/>
<polygon fill="black" stroke="black" points="220.5,-1055.4 217,-1045.4 213.5,-1055.4 220.5,-1055.4"/>
<polygon fill="none" stroke="black" points="220,-1085 220,-1103 466,-1103 466,-1085 220,-1085"/>
<text text-anchor="start" x="258.99" y="-1092" font-family="Courier New" font-weight="bold" font-size="10.00" fill="blue">MAPi(WOBJECT,S00_HIDDENITEM)</text>
<polygon fill="none" stroke="black" points="220,-1065 220,-1083 466,-1083 466,-1065 220,-1065"/>
<text text-anchor="start" x="223" y="-1071" font-family="Courier New" font-size="10.00" fill="blue"> &#160;&#160;&#160;// WOBJECT is now the object to hide</text>
<polygon fill="none" stroke="black" points="217,-1062 217,-1106 469,-1106 469,-1062 217,-1062"/>
</g>
<!-- coverActive -->
<g id="node4" class="node">
<title>coverActive</title>
<polyline fill="none" stroke="darkred" points="83,-899 181,-899"/>
<text text-anchor="start" x="86" y="-906.4" font-family="Courier New" font-weight="bold" font-size="14.00">coverActive</text>
<path fill="none" stroke="darkred" d="M89.33,-896C89.33,-896 174.67,-896 174.67,-896 179.33,-896 184,-900.67 184,-905.33 184,-905.33 184,-914.67 184,-914.67 184,-919.33 179.33,-924 174.67,-924 174.67,-924 89.33,-924 89.33,-924 84.67,-924 80,-919.33 80,-914.67 80,-914.67 80,-905.33 80,-905.33 80,-900.67 84.67,-896 89.33,-896"/>
</g>
<!-- firstWhack -->
<g id="node5" class="node">
<title>firstWhack</title>
<polyline fill="none" stroke="darkred" stroke-width="3" points="50.5,-802.5 141.5,-802.5"/>
<text text-anchor="start" x="54" y="-810.4" font-family="Courier New" font-weight="bold" font-size="14.00">firstWhack</text>
<path fill="none" stroke="darkred" stroke-width="3" d="M56.5,-797.5C56.5,-797.5 135.5,-797.5 135.5,-797.5 141,-797.5 146.5,-803 146.5,-808.5 146.5,-808.5 146.5,-819.5 146.5,-819.5 146.5,-825 141,-830.5 135.5,-830.5 135.5,-830.5 56.5,-830.5 56.5,-830.5 51,-830.5 45.5,-825 45.5,-819.5 45.5,-819.5 45.5,-808.5 45.5,-808.5 45.5,-803 51,-797.5 56.5,-797.5"/>
</g>
<!-- coverActive&#45;&gt;firstWhack -->
<g id="edge2" class="edge">
<title>coverActive&#45;&gt;firstWhack</title>
<path fill="none" stroke="black" d="M125.56,-892.19C120.71,-879.53 113.92,-861.8 108.07,-846.52"/>
<polygon fill="black" stroke="black" points="111.4,-845.44 104.56,-837.35 104.87,-847.94 111.4,-845.44"/>
<text text-anchor="start" x="123" y="-862" font-family="Courier New" font-weight="bold" font-size="10.00" fill="blue">C_ACCEPT(WIP3,)</text>
</g>
<!-- secondWhack -->
<g id="node8" class="node">
<title>secondWhack</title>
<polyline fill="none" stroke="darkred" points="41,-515 139,-515"/>
<text text-anchor="start" x="44" y="-522.4" font-family="Courier New" font-weight="bold" font-size="14.00">secondWhack</text>
<path fill="none" stroke="darkred" d="M47.33,-512C47.33,-512 132.67,-512 132.67,-512 137.33,-512 142,-516.67 142,-521.33 142,-521.33 142,-530.67 142,-530.67 142,-535.33 137.33,-540 132.67,-540 132.67,-540 47.33,-540 47.33,-540 42.67,-540 38,-535.33 38,-530.67 38,-530.67 38,-521.33 38,-521.33 38,-516.67 42.67,-512 47.33,-512"/>
</g>
<!-- firstWhack&#45;&gt;secondWhack -->
<g id="edge5" class="edge">
<title>firstWhack&#45;&gt;secondWhack</title>
<path fill="none" stroke="black" d="M92.88,-792.4C92.11,-786.48 91.39,-779.99 91,-774 85.78,-694.82 87.59,-601.06 88.99,-555.17"/>
<polygon fill="black" stroke="black" points="92.48,-555.42 89.31,-545.31 85.48,-555.19 92.48,-555.42"/>
<polygon fill="none" stroke="black" points="94,-753 94,-771 328,-771 328,-753 94,-753"/>
<text text-anchor="start" x="190" y="-760" font-family="Courier New" font-weight="bold" font-size="10.00" fill="orange">DRAG(,)</text>
<polygon fill="none" stroke="black" points="94,-565 94,-751 328,-751 328,-565 94,-565"/>
<text text-anchor="start" x="97" y="-739" font-family="Courier New" font-size="10.00" fill="blue"> &#160;&#160;&#160;&#160;&#160;&#160;&#160;if(WIP3 == ISA_TOOL_DIGGER){</text>
<text text-anchor="start" x="97" y="-727" font-family="Courier New" font-size="10.00" fill="blue"> &#160;&#160;&#160;&#160;&#160;&#160;&#160;&#160;&#160;&#160;&#160;SHOW(0,IDS_SANDPILE2);</text>
<text text-anchor="start" x="97" y="-715" font-family="Courier New" font-size="10.00" fill="blue"> &#160;&#160;&#160;&#160;&#160;&#160;&#160;&#160;&#160;&#160;&#160;ANIMATE();</text>
<text text-anchor="start" x="97" y="-703" font-family="Courier New" font-size="10.00" fill="blue"> &#160;&#160;&#160;&#160;&#160;&#160;&#160;&#160;&#160;&#160;&#160;PLAYWAVE(SOUND_DIG);</text>
<text text-anchor="start" x="97" y="-691" font-family="Courier New" font-size="10.00" fill="blue"> &#160;&#160;&#160;&#160;&#160;&#160;&#160;&#160;} &#160;&#160;</text>
<text text-anchor="start" x="97" y="-679" font-family="Courier New" font-size="10.00" fill="blue"> &#160;&#160;&#160;&#160;&#160;&#160;&#160;&#160;if(WIP3 == ISA_TOOL_STRIKER){</text>
<text text-anchor="start" x="97" y="-667" font-family="Courier New" font-size="10.00" fill="blue"> &#160;&#160;&#160;&#160;&#160;&#160;&#160;&#160;&#160;&#160;&#160;SHOW(0,IDS_SANDSTRIKE);</text>
<text text-anchor="start" x="97" y="-655" font-family="Courier New" font-size="10.00" fill="blue"> &#160;&#160;&#160;&#160;&#160;&#160;&#160;&#160;&#160;&#160;&#160;ANIMATE();</text>
<text text-anchor="start" x="97" y="-643" font-family="Courier New" font-size="10.00" fill="blue"> &#160;&#160;&#160;&#160;&#160;&#160;&#160;&#160;&#160;&#160;&#160;PLAYWAVE(SOUND_DIG);</text>
<text text-anchor="start" x="97" y="-631" font-family="Courier New" font-size="10.00" fill="blue"> &#160;&#160;&#160;&#160;&#160;&#160;&#160;&#160;} &#160;&#160;</text>
<text text-anchor="start" x="97" y="-619" font-family="Courier New" font-size="10.00" fill="blue"> &#160;&#160;&#160;&#160;&#160;&#160;&#160;&#160;&#160;if(WIP3 == ISA_TOOL_PRYER){</text>
<text text-anchor="start" x="97" y="-607" font-family="Courier New" font-size="10.00" fill="blue"> &#160;&#160;&#160;&#160;&#160;&#160;&#160;&#160;&#160;&#160;&#160;SHOW(0,IDS_SANDWOBBLE);</text>
<text text-anchor="start" x="97" y="-595" font-family="Courier New" font-size="10.00" fill="blue"> &#160;&#160;&#160;&#160;&#160;&#160;&#160;&#160;&#160;&#160;&#160;ANIMATE();</text>
<text text-anchor="start" x="97" y="-583" font-family="Courier New" font-size="10.00" fill="blue"> &#160;&#160;&#160;&#160;&#160;&#160;&#160;&#160;&#160;&#160;&#160;PLAYWAVE(SOUND_THUMP);</text>
<text text-anchor="start" x="97" y="-571" font-family="Courier New" font-size="10.00" fill="blue"> &#160;&#160;&#160;&#160;&#160;&#160;&#160;&#160;} &#160;&#160;</text>
<polygon fill="none" stroke="black" points="91,-562 91,-774 331,-774 331,-562 91,-562"/>
</g>
<!-- determinedItem&#45;&gt;coverActive -->
<g id="edge3" class="edge">
<title>determinedItem&#45;&gt;coverActive</title>
<path fill="none" stroke="black" d="M202,-1008.2C197.09,-1002.52 191.7,-996.08 187,-990 173.83,-972.98 159.99,-953.09 149.49,-937.52"/>
<polygon fill="black" stroke="black" points="152.43,-935.62 143.95,-929.25 146.61,-939.51 152.43,-935.62"/>
<polygon fill="none" stroke="black" points="190,-969 190,-987 328,-987 328,-969 190,-969"/>
<text text-anchor="start" x="207.99" y="-976" font-family="Courier New" font-weight="bold" font-size="10.00" fill="blue">MOV(WSPRITE,WIP2)</text>
<polygon fill="none" stroke="black" points="190,-949 190,-967 328,-967 328,-949 190,-949"/>
<text text-anchor="start" x="193" y="-955" font-family="Courier New" font-size="10.00" fill="blue"> &#160;&#160;&#160;&#160;&#160;&#160;&#160;SHOW(WSPRITE);</text>
<polygon fill="none" stroke="black" points="187,-946 187,-990 331,-990 331,-946 187,-946"/>
</g>
<!-- displayItem -->
<g id="node7" class="node">
<title>displayItem</title>
<polyline fill="none" stroke="darkred" points="186,-7 284,-7"/>
<text text-anchor="start" x="189" y="-14.4" font-family="Courier New" font-weight="bold" font-size="14.00">displayItem</text>
<path fill="none" stroke="darkred" d="M192.33,-4C192.33,-4 277.67,-4 277.67,-4 282.33,-4 287,-8.67 287,-13.33 287,-13.33 287,-22.67 287,-22.67 287,-27.33 282.33,-32 277.67,-32 277.67,-32 192.33,-32 192.33,-32 187.67,-32 183,-27.33 183,-22.67 183,-22.67 183,-13.33 183,-13.33 183,-8.67 187.67,-4 192.33,-4"/>
</g>
<!-- displayItem&#45;&gt;determinedItem -->
<g id="edge4" class="edge">
<title>displayItem&#45;&gt;determinedItem</title>
<path fill="none" stroke="black" d="M294.98,-29.94C308.61,-35.12 321.78,-42.75 331,-54 356.95,-85.64 345,-104.08 345,-145 345,-911 345,-911 345,-911 345,-946.66 354.62,-963.29 331,-990 322.57,-999.54 311.61,-1006.51 299.82,-1011.6"/>
<polygon fill="black" stroke="black" points="298.81,-1008.24 290.71,-1015.07 301.3,-1014.78 298.81,-1008.24"/>
<text text-anchor="start" x="349" y="-524" font-family="Courier New" font-weight="bold" font-size="10.00" fill="orange">GRAB(,)</text>
</g>
<!-- thirdWhack -->
<g id="node10" class="node">
<title>thirdWhack</title>
<polyline fill="none" stroke="darkred" points="48,-231 138,-231"/>
<text text-anchor="start" x="51" y="-238.4" font-family="Courier New" font-weight="bold" font-size="14.00">thirdWhack</text>
<path fill="none" stroke="darkred" d="M54.33,-228C54.33,-228 131.67,-228 131.67,-228 136.33,-228 141,-232.67 141,-237.33 141,-237.33 141,-246.67 141,-246.67 141,-251.33 136.33,-256 131.67,-256 131.67,-256 54.33,-256 54.33,-256 49.67,-256 45,-251.33 45,-246.67 45,-246.67 45,-237.33 45,-237.33 45,-232.67 49.67,-228 54.33,-228"/>
</g>
<!-- secondWhack&#45;&gt;thirdWhack -->
<g id="edge8" class="edge">
<title>secondWhack&#45;&gt;thirdWhack</title>
<path fill="none" stroke="black" d="M89.76,-508.22C89.26,-468.31 88.35,-364.58 91,-278 91.07,-275.76 91.16,-273.45 91.26,-271.12"/>
<polygon fill="black" stroke="black" points="94.75,-271.41 91.78,-261.24 87.76,-271.04 94.75,-271.41"/>
<polygon fill="none" stroke="black" points="94,-469 94,-487 328,-487 328,-469 94,-469"/>
<text text-anchor="start" x="190" y="-476" font-family="Courier New" font-weight="bold" font-size="10.00" fill="orange">DRAG(,)</text>
<polygon fill="none" stroke="black" points="94,-281 94,-467 328,-467 328,-281 94,-281"/>
<text text-anchor="start" x="97" y="-455" font-family="Courier New" font-size="10.00" fill="blue"> &#160;&#160;&#160;&#160;&#160;&#160;&#160;if(WIP3 == ISA_TOOL_DIGGER){</text>
<text text-anchor="start" x="97" y="-443" font-family="Courier New" font-size="10.00" fill="blue"> &#160;&#160;&#160;&#160;&#160;&#160;&#160;&#160;&#160;&#160;&#160;SHOW(0,IDS_SANDPILE3);</text>
<text text-anchor="start" x="97" y="-431" font-family="Courier New" font-size="10.00" fill="blue"> &#160;&#160;&#160;&#160;&#160;&#160;&#160;&#160;&#160;&#160;&#160;ANIMATE();</text>
<text text-anchor="start" x="97" y="-419" font-family="Courier New" font-size="10.00" fill="blue"> &#160;&#160;&#160;&#160;&#160;&#160;&#160;&#160;&#160;&#160;&#160;PLAYWAVE(SOUND_DIG);</text>
<text text-anchor="start" x="97" y="-407" font-family="Courier New" font-size="10.00" fill="blue"> &#160;&#160;&#160;&#160;&#160;&#160;&#160;&#160;} &#160;&#160;</text>
<text text-anchor="start" x="97" y="-395" font-family="Courier New" font-size="10.00" fill="blue"> &#160;&#160;&#160;&#160;&#160;&#160;&#160;&#160;if(WIP3 == ISA_TOOL_STRIKER){</text>
<text text-anchor="start" x="97" y="-383" font-family="Courier New" font-size="10.00" fill="blue"> &#160;&#160;&#160;&#160;&#160;&#160;&#160;&#160;&#160;&#160;&#160;SHOW(0,IDS_SANDSTRIKE);</text>
<text text-anchor="start" x="97" y="-371" font-family="Courier New" font-size="10.00" fill="blue"> &#160;&#160;&#160;&#160;&#160;&#160;&#160;&#160;&#160;&#160;&#160;ANIMATE();</text>
<text text-anchor="start" x="97" y="-359" font-family="Courier New" font-size="10.00" fill="blue"> &#160;&#160;&#160;&#160;&#160;&#160;&#160;&#160;&#160;&#160;&#160;PLAYWAVE(SOUND_DIG);</text>
<text text-anchor="start" x="97" y="-347" font-family="Courier New" font-size="10.00" fill="blue"> &#160;&#160;&#160;&#160;&#160;&#160;&#160;&#160;} &#160;&#160;</text>
<text text-anchor="start" x="97" y="-335" font-family="Courier New" font-size="10.00" fill="blue"> &#160;&#160;&#160;&#160;&#160;&#160;&#160;&#160;&#160;&#160;if(WIP3 == ISA_TOOL_PRYER){</text>
<text text-anchor="start" x="97" y="-323" font-family="Courier New" font-size="10.00" fill="blue"> &#160;&#160;&#160;&#160;&#160;&#160;&#160;&#160;&#160;&#160;&#160;SHOW(0,IDS_SANDFLIP);</text>
<text text-anchor="start" x="97" y="-311" font-family="Courier New" font-size="10.00" fill="blue"> &#160;&#160;&#160;&#160;&#160;&#160;&#160;&#160;&#160;&#160;&#160;ANIMATE();</text>
<text text-anchor="start" x="97" y="-299" font-family="Courier New" font-size="10.00" fill="blue"> &#160;&#160;&#160;&#160;&#160;&#160;&#160;&#160;&#160;&#160;&#160;PLAYWAVE(SOUND_THUMP);</text>
<text text-anchor="start" x="97" y="-287" font-family="Courier New" font-size="10.00" fill="blue"> &#160;&#160;&#160;&#160;&#160;&#160;&#160;&#160;} &#160;&#160;</text>
<polygon fill="none" stroke="black" points="91,-278 91,-490 331,-490 331,-278 91,-278"/>
</g>
<!-- moveMe -->
<g id="node9" class="node">
<title>moveMe</title>
<polyline fill="none" stroke="darkred" points="96,-135 152,-135"/>
<text text-anchor="start" x="99" y="-142.4" font-family="Courier New" font-weight="bold" font-size="14.00">moveMe</text>
<path fill="none" stroke="darkred" d="M102.33,-132C102.33,-132 145.67,-132 145.67,-132 150.33,-132 155,-136.67 155,-141.33 155,-141.33 155,-150.67 155,-150.67 155,-155.33 150.33,-160 145.67,-160 145.67,-160 102.33,-160 102.33,-160 97.67,-160 93,-155.33 93,-150.67 93,-150.67 93,-141.33 93,-141.33 93,-136.67 97.67,-132 102.33,-132"/>
</g>
<!-- moveMe&#45;&gt;displayItem -->
<g id="edge7" class="edge">
<title>moveMe&#45;&gt;displayItem</title>
<path fill="none" stroke="black" d="M120.69,-128.26C117.78,-108.35 116.25,-75.16 133,-54 141.09,-43.78 152.32,-36.53 164.38,-31.39"/>
<polygon fill="black" stroke="black" points="165.57,-34.68 173.73,-27.92 163.13,-28.12 165.57,-34.68"/>
<polygon fill="none" stroke="black" points="136,-89 136,-107 328,-107 328,-89 136,-89"/>
<text text-anchor="start" x="174.99" y="-96" font-family="Courier New" font-weight="bold" font-size="10.00" fill="blue">SET_YOFFSET(ADD,50)</text>
<polygon fill="none" stroke="black" points="136,-57 136,-87 328,-87 328,-57 136,-57"/>
<text text-anchor="start" x="139" y="-75" font-family="Courier New" font-size="10.00" fill="blue"> &#160;&#160;&#160;&#160;&#160;&#160;&#160;PLAYWAVE(SOUND_CHIMES);</text>
<text text-anchor="start" x="139" y="-63" font-family="Courier New" font-size="10.00" fill="blue"> &#160;&#160;&#160;&#160;&#160;&#160;&#160;SHOW(WOBJECT);</text>
<polygon fill="none" stroke="black" points="133,-54 133,-110 331,-110 331,-54 133,-54"/>
</g>
<!-- thirdWhack&#45;&gt;moveMe -->
<g id="edge9" class="edge">
<title>thirdWhack&#45;&gt;moveMe</title>
<path fill="none" stroke="black" d="M98.54,-224.19C103.05,-210.51 109.52,-190.91 114.81,-174.88"/>
<polygon fill="black" stroke="black" points="118.12,-176.01 117.93,-165.41 111.47,-173.81 118.12,-176.01"/>
<polygon fill="none" stroke="black" points="116,-185 116,-203 164,-203 164,-185 116,-185"/>
<text text-anchor="start" x="119" y="-192" font-family="Courier New" font-weight="bold" font-size="10.00" fill="orange">DRAG(,)</text>
<polygon fill="none" stroke="black" points="113,-182 113,-206 167,-206 167,-182 113,-182"/>
</g>
<!-- status -->
<g id="node11" class="node">
<title>status</title>
<polygon fill="none" stroke="black" points="262,-1252.5 262,-1316.5 794,-1316.5 794,-1252.5 262,-1252.5"/>
<polygon fill="none" stroke="black" points="273,-1291.5 273,-1309.5 783,-1309.5 783,-1291.5 273,-1291.5"/>
<text text-anchor="start" x="491.99" y="-1298.5" font-family="Courier New" font-weight="bold" font-size="10.00">S00_HIDDEN_9</text>
<polygon fill="none" stroke="black" points="273,-1259.5 273,-1289.5 783,-1289.5 783,-1259.5 273,-1259.5"/>
<text text-anchor="start" x="276" y="-1277.5" font-family="Courier New" font-size="10.00" fill="green">S00_HIDDEN_9::M_DIGGABLE(&#39;IDV_CU_GRASSPATCH1&#39;,&#39;IDS_SANDWALL2&#39;,&#39;ISA_TOOL_STRIKER&#39;,&#39;&#39;)</text>
<text text-anchor="start" x="276" y="-1265.5" font-family="Courier New" font-size="10.00" fill="green">{&#39;firstWhack&#39;: wObject:IDD_POTTALIS2 wSprite:sandwall2 wAccept:ISA_TOOL_STRIKER}</text>
<polygon fill="none" stroke="black" points="270,-1256.5 270,-1312.5 786,-1312.5 786,-1256.5 270,-1256.5"/>
</g>
</g>
</svg>
