<?xml version="1.0" encoding="UTF-8" standalone="no"?>
<!DOCTYPE svg PUBLIC "-//W3C//DTD SVG 1.1//EN"
 "http://www.w3.org/Graphics/SVG/1.1/DTD/svg11.dtd">
<!-- Generated by graphviz version 7.1.0 (20230121.1956)
 -->
<!-- Title: Automaton Pages: 1 -->
<svg width="808pt" height="1325pt"
 viewBox="0.00 0.00 808.00 1325.00" xmlns="http://www.w3.org/2000/svg" xmlns:xlink="http://www.w3.org/1999/xlink">
<g id="graph0" class="graph" transform="scale(1 1) rotate(0) translate(4 1321)">
<title>Automaton</title>
<polygon fill="white" stroke="none" points="-4,4 -4,-1321 804,-1321 804,4 -4,4"/>
<!-- filename -->
<g id="node1" class="node">
<title>filename</title>
<polygon fill="none" stroke="black" points="0,-1258.5 0,-1310.5 178,-1310.5 178,-1258.5 0,-1258.5"/>
<polygon fill="none" stroke="black" points="11,-1285.5 11,-1303.5 167,-1303.5 167,-1285.5 11,-1285.5"/>
<text text-anchor="start" x="14" y="-1292.5" font-family="Courier New" font-weight="bold" font-size="10.00">S00_HIDDEN_18::M_DIGGABLE</text>
<polygon fill="none" stroke="black" points="11,-1265.5 11,-1283.5 167,-1283.5 167,-1265.5 11,-1265.5"/>
<text text-anchor="start" x="43.99" y="-1271.5" font-family="Courier New" font-size="10.00" fill="brown">start state = 0</text>
<polygon fill="none" stroke="black" points="8,-1262.5 8,-1306.5 170,-1306.5 170,-1262.5 8,-1262.5"/>
</g>
<!-- 0 -->
<g id="node2" class="node">
<title>0</title>
<polyline fill="none" stroke="darkred" points="216,-1273.5 230,-1273.5"/>
<text text-anchor="start" x="219" y="-1280.9" font-family="Courier New" font-weight="bold" font-size="14.00">0</text>
<path fill="none" stroke="darkred" d="M219.67,-1270.5C219.67,-1270.5 226.33,-1270.5 226.33,-1270.5 229.67,-1270.5 233,-1273.83 233,-1277.17 233,-1277.17 233,-1291.83 233,-1291.83 233,-1295.17 229.67,-1298.5 226.33,-1298.5 226.33,-1298.5 219.67,-1298.5 219.67,-1298.5 216.33,-1298.5 213,-1295.17 213,-1291.83 213,-1291.83 213,-1277.17 213,-1277.17 213,-1273.83 216.33,-1270.5 219.67,-1270.5"/>
</g>
<!-- fixinToHideItem -->
<g id="node3" class="node">
<title>fixinToHideItem</title>
<polyline fill="none" stroke="darkred" points="157,-1131 289,-1131"/>
<text text-anchor="start" x="160" y="-1138.4" font-family="Courier New" font-weight="bold" font-size="14.00">fixinToHideItem</text>
<path fill="none" stroke="darkred" d="M163.33,-1128C163.33,-1128 282.67,-1128 282.67,-1128 287.33,-1128 292,-1132.67 292,-1137.33 292,-1137.33 292,-1146.67 292,-1146.67 292,-1151.33 287.33,-1156 282.67,-1156 282.67,-1156 163.33,-1156 163.33,-1156 158.67,-1156 154,-1151.33 154,-1146.67 154,-1146.67 154,-1137.33 154,-1137.33 154,-1132.67 158.67,-1128 163.33,-1128"/>
</g>
<!-- 0&#45;&gt;fixinToHideItem -->
<g id="edge1" class="edge">
<title>0&#45;&gt;fixinToHideItem</title>
<path fill="none" stroke="black" d="M223,-1266.55C223,-1242.8 223,-1199.31 223,-1170.78"/>
<polygon fill="black" stroke="black" points="226.5,-1171.08 223,-1161.08 219.5,-1171.08 226.5,-1171.08"/>
<polygon fill="none" stroke="black" points="226,-1213 226,-1231 394,-1231 394,-1213 226,-1213"/>
<text text-anchor="start" x="264.99" y="-1220" font-family="Courier New" font-weight="bold" font-size="10.00" fill="orange">WAIT(,SIG_OPEN)</text>
<polygon fill="none" stroke="black" points="226,-1181 226,-1211 394,-1211 394,-1181 226,-1181"/>
<text text-anchor="start" x="229" y="-1199" font-family="Courier New" font-size="10.00" fill="blue"> &#160;&#160;&#160;REF_MACHINE(S00_HIDER);</text>
<text text-anchor="start" x="229" y="-1187" font-family="Courier New" font-size="10.00" fill="blue"> &#160;&#160;&#160;MOV(WOBJECT,R_WPARM);</text>
<polygon fill="none" stroke="black" points="223,-1178 223,-1234 397,-1234 397,-1178 223,-1178"/>
</g>
<!-- determinedItem -->
<g id="node6" class="node">
<title>determinedItem</title>
<polyline fill="none" stroke="darkred" points="162,-1015 285,-1015"/>
<text text-anchor="start" x="165" y="-1022.4" font-family="Courier New" font-weight="bold" font-size="14.00">determinedItem</text>
<path fill="none" stroke="darkred" d="M167.83,-1012C167.83,-1012 278.17,-1012 278.17,-1012 282.83,-1012 287.5,-1016.67 287.5,-1021.33 287.5,-1021.33 287.5,-1030.67 287.5,-1030.67 287.5,-1035.33 282.83,-1040 278.17,-1040 278.17,-1040 167.83,-1040 167.83,-1040 163.17,-1040 158.5,-1035.33 158.5,-1030.67 158.5,-1030.67 158.5,-1021.33 158.5,-1021.33 158.5,-1016.67 163.17,-1012 167.83,-1012"/>
</g>
<!-- fixinToHideItem&#45;&gt;determinedItem -->
<g id="edge6" class="edge">
<title>fixinToHideItem&#45;&gt;determinedItem</title>
<path fill="none" stroke="black" d="M223,-1124.18C223,-1106.08 223,-1076.98 223,-1055.33"/>
<polygon fill="black" stroke="black" points="226.5,-1055.4 223,-1045.4 219.5,-1055.4 226.5,-1055.4"/>
<polygon fill="none" stroke="black" points="226,-1085 226,-1103 472,-1103 472,-1085 226,-1085"/>
<text text-anchor="start" x="264.99" y="-1092" font-family="Courier New" font-weight="bold" font-size="10.00" fill="blue">MAPi(WOBJECT,S00_HIDDENITEM)</text>
<polygon fill="none" stroke="black" points="226,-1065 226,-1083 472,-1083 472,-1065 226,-1065"/>
<text text-anchor="start" x="229" y="-1071" font-family="Courier New" font-size="10.00" fill="blue"> &#160;&#160;&#160;// WOBJECT is now the object to hide</text>
<polygon fill="none" stroke="black" points="223,-1062 223,-1106 475,-1106 475,-1062 223,-1062"/>
</g>
<!-- coverActive -->
<g id="node4" class="node">
<title>coverActive</title>
<polyline fill="none" stroke="darkred" points="89,-899 187,-899"/>
<text text-anchor="start" x="92" y="-906.4" font-family="Courier New" font-weight="bold" font-size="14.00">coverActive</text>
<path fill="none" stroke="darkred" d="M95.33,-896C95.33,-896 180.67,-896 180.67,-896 185.33,-896 190,-900.67 190,-905.33 190,-905.33 190,-914.67 190,-914.67 190,-919.33 185.33,-924 180.67,-924 180.67,-924 95.33,-924 95.33,-924 90.67,-924 86,-919.33 86,-914.67 86,-914.67 86,-905.33 86,-905.33 86,-900.67 90.67,-896 95.33,-896"/>
</g>
<!-- firstWhack -->
<g id="node5" class="node">
<title>firstWhack</title>
<polyline fill="none" stroke="darkred" stroke-width="3" points="56.5,-802.5 147.5,-802.5"/>
<text text-anchor="start" x="60" y="-810.4" font-family="Courier New" font-weight="bold" font-size="14.00">firstWhack</text>
<path fill="none" stroke="darkred" stroke-width="3" d="M62.5,-797.5C62.5,-797.5 141.5,-797.5 141.5,-797.5 147,-797.5 152.5,-803 152.5,-808.5 152.5,-808.5 152.5,-819.5 152.5,-819.5 152.5,-825 147,-830.5 141.5,-830.5 141.5,-830.5 62.5,-830.5 62.5,-830.5 57,-830.5 51.5,-825 51.5,-819.5 51.5,-819.5 51.5,-808.5 51.5,-808.5 51.5,-803 57,-797.5 62.5,-797.5"/>
</g>
<!-- coverActive&#45;&gt;firstWhack -->
<g id="edge2" class="edge">
<title>coverActive&#45;&gt;firstWhack</title>
<path fill="none" stroke="black" d="M131.56,-892.19C126.71,-879.53 119.92,-861.8 114.07,-846.52"/>
<polygon fill="black" stroke="black" points="117.4,-845.44 110.56,-837.35 110.87,-847.94 117.4,-845.44"/>
<text text-anchor="start" x="129" y="-862" font-family="Courier New" font-weight="bold" font-size="10.00" fill="blue">C_ACCEPT(WIP3,)</text>
</g>
<!-- secondWhack -->
<g id="node8" class="node">
<title>secondWhack</title>
<polyline fill="none" stroke="darkred" points="47,-515 145,-515"/>
<text text-anchor="start" x="50" y="-522.4" font-family="Courier New" font-weight="bold" font-size="14.00">secondWhack</text>
<path fill="none" stroke="darkred" d="M53.33,-512C53.33,-512 138.67,-512 138.67,-512 143.33,-512 148,-516.67 148,-521.33 148,-521.33 148,-530.67 148,-530.67 148,-535.33 143.33,-540 138.67,-540 138.67,-540 53.33,-540 53.33,-540 48.67,-540 44,-535.33 44,-530.67 44,-530.67 44,-521.33 44,-521.33 44,-516.67 48.67,-512 53.33,-512"/>
</g>
<!-- firstWhack&#45;&gt;secondWhack -->
<g id="edge5" class="edge">
<title>firstWhack&#45;&gt;secondWhack</title>
<path fill="none" stroke="black" d="M98.88,-792.4C98.11,-786.48 97.39,-779.99 97,-774 91.78,-694.82 93.59,-601.06 94.99,-555.17"/>
<polygon fill="black" stroke="black" points="98.48,-555.42 95.31,-545.31 91.48,-555.19 98.48,-555.42"/>
<polygon fill="none" stroke="black" points="100,-753 100,-771 334,-771 334,-753 100,-753"/>
<text text-anchor="start" x="196" y="-760" font-family="Courier New" font-weight="bold" font-size="10.00" fill="orange">DRAG(,)</text>
<polygon fill="none" stroke="black" points="100,-565 100,-751 334,-751 334,-565 100,-565"/>
<text text-anchor="start" x="103" y="-739" font-family="Courier New" font-size="10.00" fill="blue"> &#160;&#160;&#160;&#160;&#160;&#160;&#160;if(WIP3 == ISA_TOOL_DIGGER){</text>
<text text-anchor="start" x="103" y="-727" font-family="Courier New" font-size="10.00" fill="blue"> &#160;&#160;&#160;&#160;&#160;&#160;&#160;&#160;&#160;&#160;&#160;SHOW(0,IDS_SANDPILE2);</text>
<text text-anchor="start" x="103" y="-715" font-family="Courier New" font-size="10.00" fill="blue"> &#160;&#160;&#160;&#160;&#160;&#160;&#160;&#160;&#160;&#160;&#160;ANIMATE();</text>
<text text-anchor="start" x="103" y="-703" font-family="Courier New" font-size="10.00" fill="blue"> &#160;&#160;&#160;&#160;&#160;&#160;&#160;&#160;&#160;&#160;&#160;PLAYWAVE(SOUND_DIG);</text>
<text text-anchor="start" x="103" y="-691" font-family="Courier New" font-size="10.00" fill="blue"> &#160;&#160;&#160;&#160;&#160;&#160;&#160;&#160;} &#160;&#160;</text>
<text text-anchor="start" x="103" y="-679" font-family="Courier New" font-size="10.00" fill="blue"> &#160;&#160;&#160;&#160;&#160;&#160;&#160;&#160;if(WIP3 == ISA_TOOL_STRIKER){</text>
<text text-anchor="start" x="103" y="-667" font-family="Courier New" font-size="10.00" fill="blue"> &#160;&#160;&#160;&#160;&#160;&#160;&#160;&#160;&#160;&#160;&#160;SHOW(0,IDS_SANDSTRIKE);</text>
<text text-anchor="start" x="103" y="-655" font-family="Courier New" font-size="10.00" fill="blue"> &#160;&#160;&#160;&#160;&#160;&#160;&#160;&#160;&#160;&#160;&#160;ANIMATE();</text>
<text text-anchor="start" x="103" y="-643" font-family="Courier New" font-size="10.00" fill="blue"> &#160;&#160;&#160;&#160;&#160;&#160;&#160;&#160;&#160;&#160;&#160;PLAYWAVE(SOUND_DIG);</text>
<text text-anchor="start" x="103" y="-631" font-family="Courier New" font-size="10.00" fill="blue"> &#160;&#160;&#160;&#160;&#160;&#160;&#160;&#160;} &#160;&#160;</text>
<text text-anchor="start" x="103" y="-619" font-family="Courier New" font-size="10.00" fill="blue"> &#160;&#160;&#160;&#160;&#160;&#160;&#160;&#160;&#160;if(WIP3 == ISA_TOOL_PRYER){</text>
<text text-anchor="start" x="103" y="-607" font-family="Courier New" font-size="10.00" fill="blue"> &#160;&#160;&#160;&#160;&#160;&#160;&#160;&#160;&#160;&#160;&#160;SHOW(0,IDS_SANDWOBBLE);</text>
<text text-anchor="start" x="103" y="-595" font-family="Courier New" font-size="10.00" fill="blue"> &#160;&#160;&#160;&#160;&#160;&#160;&#160;&#160;&#160;&#160;&#160;ANIMATE();</text>
<text text-anchor="start" x="103" y="-583" font-family="Courier New" font-size="10.00" fill="blue"> &#160;&#160;&#160;&#160;&#160;&#160;&#160;&#160;&#160;&#160;&#160;PLAYWAVE(SOUND_THUMP);</text>
<text text-anchor="start" x="103" y="-571" font-family="Courier New" font-size="10.00" fill="blue"> &#160;&#160;&#160;&#160;&#160;&#160;&#160;&#160;} &#160;&#160;</text>
<polygon fill="none" stroke="black" points="97,-562 97,-774 337,-774 337,-562 97,-562"/>
</g>
<!-- determinedItem&#45;&gt;coverActive -->
<g id="edge3" class="edge">
<title>determinedItem&#45;&gt;coverActive</title>
<path fill="none" stroke="black" d="M208,-1008.2C203.09,-1002.52 197.7,-996.08 193,-990 179.83,-972.98 165.99,-953.09 155.49,-937.52"/>
<polygon fill="black" stroke="black" points="158.43,-935.62 149.95,-929.25 152.61,-939.51 158.43,-935.62"/>
<polygon fill="none" stroke="black" points="196,-969 196,-987 334,-987 334,-969 196,-969"/>
<text text-anchor="start" x="213.99" y="-976" font-family="Courier New" font-weight="bold" font-size="10.00" fill="blue">MOV(WSPRITE,WIP2)</text>
<polygon fill="none" stroke="black" points="196,-949 196,-967 334,-967 334,-949 196,-949"/>
<text text-anchor="start" x="199" y="-955" font-family="Courier New" font-size="10.00" fill="blue"> &#160;&#160;&#160;&#160;&#160;&#160;&#160;SHOW(WSPRITE);</text>
<polygon fill="none" stroke="black" points="193,-946 193,-990 337,-990 337,-946 193,-946"/>
</g>
<!-- displayItem -->
<g id="node7" class="node">
<title>displayItem</title>
<polyline fill="none" stroke="darkred" points="192,-7 290,-7"/>
<text text-anchor="start" x="195" y="-14.4" font-family="Courier New" font-weight="bold" font-size="14.00">displayItem</text>
<path fill="none" stroke="darkred" d="M198.33,-4C198.33,-4 283.67,-4 283.67,-4 288.33,-4 293,-8.67 293,-13.33 293,-13.33 293,-22.67 293,-22.67 293,-27.33 288.33,-32 283.67,-32 283.67,-32 198.33,-32 198.33,-32 193.67,-32 189,-27.33 189,-22.67 189,-22.67 189,-13.33 189,-13.33 189,-8.67 193.67,-4 198.33,-4"/>
</g>
<!-- displayItem&#45;&gt;determinedItem -->
<g id="edge4" class="edge">
<title>displayItem&#45;&gt;determinedItem</title>
<path fill="none" stroke="black" d="M300.98,-29.94C314.61,-35.12 327.78,-42.75 337,-54 362.95,-85.64 351,-104.08 351,-145 351,-911 351,-911 351,-911 351,-946.66 360.62,-963.29 337,-990 328.57,-999.54 317.61,-1006.51 305.82,-1011.6"/>
<polygon fill="black" stroke="black" points="304.81,-1008.24 296.71,-1015.07 307.3,-1014.78 304.81,-1008.24"/>
<text text-anchor="start" x="355" y="-524" font-family="Courier New" font-weight="bold" font-size="10.00" fill="orange">GRAB(,)</text>
</g>
<!-- thirdWhack -->
<g id="node10" class="node">
<title>thirdWhack</title>
<polyline fill="none" stroke="darkred" points="54,-231 144,-231"/>
<text text-anchor="start" x="57" y="-238.4" font-family="Courier New" font-weight="bold" font-size="14.00">thirdWhack</text>
<path fill="none" stroke="darkred" d="M60.33,-228C60.33,-228 137.67,-228 137.67,-228 142.33,-228 147,-232.67 147,-237.33 147,-237.33 147,-246.67 147,-246.67 147,-251.33 142.33,-256 137.67,-256 137.67,-256 60.33,-256 60.33,-256 55.67,-256 51,-251.33 51,-246.67 51,-246.67 51,-237.33 51,-237.33 51,-232.67 55.67,-228 60.33,-228"/>
</g>
<!-- secondWhack&#45;&gt;thirdWhack -->
<g id="edge8" class="edge">
<title>secondWhack&#45;&gt;thirdWhack</title>
<path fill="none" stroke="black" d="M95.76,-508.22C95.26,-468.31 94.35,-364.58 97,-278 97.07,-275.76 97.16,-273.45 97.26,-271.12"/>
<polygon fill="black" stroke="black" points="100.75,-271.41 97.78,-261.24 93.76,-271.04 100.75,-271.41"/>
<polygon fill="none" stroke="black" points="100,-469 100,-487 334,-487 334,-469 100,-469"/>
<text text-anchor="start" x="196" y="-476" font-family="Courier New" font-weight="bold" font-size="10.00" fill="orange">DRAG(,)</text>
<polygon fill="none" stroke="black" points="100,-281 100,-467 334,-467 334,-281 100,-281"/>
<text text-anchor="start" x="103" y="-455" font-family="Courier New" font-size="10.00" fill="blue"> &#160;&#160;&#160;&#160;&#160;&#160;&#160;if(WIP3 == ISA_TOOL_DIGGER){</text>
<text text-anchor="start" x="103" y="-443" font-family="Courier New" font-size="10.00" fill="blue"> &#160;&#160;&#160;&#160;&#160;&#160;&#160;&#160;&#160;&#160;&#160;SHOW(0,IDS_SANDPILE3);</text>
<text text-anchor="start" x="103" y="-431" font-family="Courier New" font-size="10.00" fill="blue"> &#160;&#160;&#160;&#160;&#160;&#160;&#160;&#160;&#160;&#160;&#160;ANIMATE();</text>
<text text-anchor="start" x="103" y="-419" font-family="Courier New" font-size="10.00" fill="blue"> &#160;&#160;&#160;&#160;&#160;&#160;&#160;&#160;&#160;&#160;&#160;PLAYWAVE(SOUND_DIG);</text>
<text text-anchor="start" x="103" y="-407" font-family="Courier New" font-size="10.00" fill="blue"> &#160;&#160;&#160;&#160;&#160;&#160;&#160;&#160;} &#160;&#160;</text>
<text text-anchor="start" x="103" y="-395" font-family="Courier New" font-size="10.00" fill="blue"> &#160;&#160;&#160;&#160;&#160;&#160;&#160;&#160;if(WIP3 == ISA_TOOL_STRIKER){</text>
<text text-anchor="start" x="103" y="-383" font-family="Courier New" font-size="10.00" fill="blue"> &#160;&#160;&#160;&#160;&#160;&#160;&#160;&#160;&#160;&#160;&#160;SHOW(0,IDS_SANDSTRIKE);</text>
<text text-anchor="start" x="103" y="-371" font-family="Courier New" font-size="10.00" fill="blue"> &#160;&#160;&#160;&#160;&#160;&#160;&#160;&#160;&#160;&#160;&#160;ANIMATE();</text>
<text text-anchor="start" x="103" y="-359" font-family="Courier New" font-size="10.00" fill="blue"> &#160;&#160;&#160;&#160;&#160;&#160;&#160;&#160;&#160;&#160;&#160;PLAYWAVE(SOUND_DIG);</text>
<text text-anchor="start" x="103" y="-347" font-family="Courier New" font-size="10.00" fill="blue"> &#160;&#160;&#160;&#160;&#160;&#160;&#160;&#160;} &#160;&#160;</text>
<text text-anchor="start" x="103" y="-335" font-family="Courier New" font-size="10.00" fill="blue"> &#160;&#160;&#160;&#160;&#160;&#160;&#160;&#160;&#160;&#160;if(WIP3 == ISA_TOOL_PRYER){</text>
<text text-anchor="start" x="103" y="-323" font-family="Courier New" font-size="10.00" fill="blue"> &#160;&#160;&#160;&#160;&#160;&#160;&#160;&#160;&#160;&#160;&#160;SHOW(0,IDS_SANDFLIP);</text>
<text text-anchor="start" x="103" y="-311" font-family="Courier New" font-size="10.00" fill="blue"> &#160;&#160;&#160;&#160;&#160;&#160;&#160;&#160;&#160;&#160;&#160;ANIMATE();</text>
<text text-anchor="start" x="103" y="-299" font-family="Courier New" font-size="10.00" fill="blue"> &#160;&#160;&#160;&#160;&#160;&#160;&#160;&#160;&#160;&#160;&#160;PLAYWAVE(SOUND_THUMP);</text>
<text text-anchor="start" x="103" y="-287" font-family="Courier New" font-size="10.00" fill="blue"> &#160;&#160;&#160;&#160;&#160;&#160;&#160;&#160;} &#160;&#160;</text>
<polygon fill="none" stroke="black" points="97,-278 97,-490 337,-490 337,-278 97,-278"/>
</g>
<!-- moveMe -->
<g id="node9" class="node">
<title>moveMe</title>
<polyline fill="none" stroke="darkred" points="102,-135 158,-135"/>
<text text-anchor="start" x="105" y="-142.4" font-family="Courier New" font-weight="bold" font-size="14.00">moveMe</text>
<path fill="none" stroke="darkred" d="M108.33,-132C108.33,-132 151.67,-132 151.67,-132 156.33,-132 161,-136.67 161,-141.33 161,-141.33 161,-150.67 161,-150.67 161,-155.33 156.33,-160 151.67,-160 151.67,-160 108.33,-160 108.33,-160 103.67,-160 99,-155.33 99,-150.67 99,-150.67 99,-141.33 99,-141.33 99,-136.67 103.67,-132 108.33,-132"/>
</g>
<!-- moveMe&#45;&gt;displayItem -->
<g id="edge7" class="edge">
<title>moveMe&#45;&gt;displayItem</title>
<path fill="none" stroke="black" d="M126.69,-128.26C123.78,-108.35 122.25,-75.16 139,-54 147.09,-43.78 158.32,-36.53 170.38,-31.39"/>
<polygon fill="black" stroke="black" points="171.57,-34.68 179.73,-27.92 169.13,-28.12 171.57,-34.68"/>
<polygon fill="none" stroke="black" points="142,-89 142,-107 334,-107 334,-89 142,-89"/>
<text text-anchor="start" x="180.99" y="-96" font-family="Courier New" font-weight="bold" font-size="10.00" fill="blue">SET_YOFFSET(ADD,50)</text>
<polygon fill="none" stroke="black" points="142,-57 142,-87 334,-87 334,-57 142,-57"/>
<text text-anchor="start" x="145" y="-75" font-family="Courier New" font-size="10.00" fill="blue"> &#160;&#160;&#160;&#160;&#160;&#160;&#160;PLAYWAVE(SOUND_CHIMES);</text>
<text text-anchor="start" x="145" y="-63" font-family="Courier New" font-size="10.00" fill="blue"> &#160;&#160;&#160;&#160;&#160;&#160;&#160;SHOW(WOBJECT);</text>
<polygon fill="none" stroke="black" points="139,-54 139,-110 337,-110 337,-54 139,-54"/>
</g>
<!-- thirdWhack&#45;&gt;moveMe -->
<g id="edge9" class="edge">
<title>thirdWhack&#45;&gt;moveMe</title>
<path fill="none" stroke="black" d="M104.54,-224.19C109.05,-210.51 115.52,-190.91 120.81,-174.88"/>
<polygon fill="black" stroke="black" points="124.12,-176.01 123.93,-165.41 117.47,-173.81 124.12,-176.01"/>
<polygon fill="none" stroke="black" points="122,-185 122,-203 170,-203 170,-185 122,-185"/>
<text text-anchor="start" x="125" y="-192" font-family="Courier New" font-weight="bold" font-size="10.00" fill="orange">DRAG(,)</text>
<polygon fill="none" stroke="black" points="119,-182 119,-206 173,-206 173,-182 119,-182"/>
</g>
<!-- status -->
<g id="node11" class="node">
<title>status</title>
<polygon fill="none" stroke="black" points="268,-1252.5 268,-1316.5 800,-1316.5 800,-1252.5 268,-1252.5"/>
<polygon fill="none" stroke="black" points="279,-1291.5 279,-1309.5 789,-1309.5 789,-1291.5 279,-1291.5"/>
<text text-anchor="start" x="494.99" y="-1298.5" font-family="Courier New" font-weight="bold" font-size="10.00">S00_HIDDEN_18</text>
<polygon fill="none" stroke="black" points="279,-1259.5 279,-1289.5 789,-1289.5 789,-1259.5 279,-1259.5"/>
<text text-anchor="start" x="282" y="-1277.5" font-family="Courier New" font-size="10.00" fill="green">S00_HIDDEN_18::M_DIGGABLE(&#39;IDV_CU_GRASSPATCH1&#39;,&#39;IDS_SANDDIRT3&#39;,&#39;ISA_TOOL_DIGGER&#39;,&#39;&#39;)</text>
<text text-anchor="start" x="282" y="-1265.5" font-family="Courier New" font-size="10.00" fill="green">{&#39;firstWhack&#39;: wObject:IDD_ENCSTONE wAccept:ISA_TOOL_DIGGER}</text>
<polygon fill="none" stroke="black" points="276,-1256.5 276,-1312.5 792,-1312.5 792,-1256.5 276,-1256.5"/>
</g>
</g>
</svg>
