<?xml version="1.0" encoding="UTF-8" standalone="no"?>
<!DOCTYPE svg PUBLIC "-//W3C//DTD SVG 1.1//EN"
 "http://www.w3.org/Graphics/SVG/1.1/DTD/svg11.dtd">
<!-- Generated by graphviz version 7.1.0 (20230121.1956)
 -->
<!-- Title: Automaton Pages: 1 -->
<svg width="808pt" height="73pt"
 viewBox="0.00 0.00 808.00 73.00" xmlns="http://www.w3.org/2000/svg" xmlns:xlink="http://www.w3.org/1999/xlink">
<g id="graph0" class="graph" transform="scale(1 1) rotate(0) translate(4 69)">
<title>Automaton</title>
<polygon fill="white" stroke="none" points="-4,4 -4,-69 804,-69 804,4 -4,4"/>
<!-- filename -->
<g id="node1" class="node">
<title>filename</title>
<polygon fill="none" stroke="black" points="0,-6.5 0,-58.5 196,-58.5 196,-6.5 0,-6.5"/>
<polygon fill="none" stroke="black" points="11,-33.5 11,-51.5 185,-51.5 185,-33.5 11,-33.5"/>
<text text-anchor="start" x="14" y="-40.5" font-family="Courier New" font-weight="bold" font-size="10.00">S00_HIDEBUTTON::M_HIDEBUTTON</text>
<polygon fill="none" stroke="black" points="11,-13.5 11,-31.5 185,-31.5 185,-13.5 11,-13.5"/>
<text text-anchor="start" x="52.99" y="-19.5" font-family="Courier New" font-size="10.00" fill="brown">start state = 0</text>
<polygon fill="none" stroke="black" points="8,-10.5 8,-54.5 188,-54.5 188,-10.5 8,-10.5"/>
</g>
<!-- 0 -->
<g id="node2" class="node">
<title>0</title>
<polyline fill="none" stroke="darkred" stroke-width="3" points="233.5,-21 248.5,-21"/>
<text text-anchor="start" x="237" y="-28.9" font-family="Courier New" font-weight="bold" font-size="14.00">0</text>
<path fill="none" stroke="darkred" stroke-width="3" d="M236.83,-16C236.83,-16 245.17,-16 245.17,-16 249.33,-16 253.5,-20.17 253.5,-24.33 253.5,-24.33 253.5,-40.67 253.5,-40.67 253.5,-44.83 249.33,-49 245.17,-49 245.17,-49 236.83,-49 236.83,-49 232.67,-49 228.5,-44.83 228.5,-40.67 228.5,-40.67 228.5,-24.33 228.5,-24.33 228.5,-20.17 232.67,-16 236.83,-16"/>
</g>
<!-- 0&#45;&gt;0 -->
<g id="edge1" class="edge">
<title>0&#45;&gt;0</title>
<path fill="none" stroke="black" d="M267.79,-40.73C277.78,-41 286,-38.26 286,-32.5 286,-29.17 283.25,-26.85 279.01,-25.54"/>
<polygon fill="black" stroke="black" points="279.63,-22.08 269.3,-24.44 278.84,-29.04 279.63,-22.08"/>
<polygon fill="none" stroke="black" points="289,-33.5 289,-51.5 451,-51.5 451,-33.5 289,-33.5"/>
<text text-anchor="start" x="346" y="-40.5" font-family="Courier New" font-weight="bold" font-size="10.00" fill="orange">CLICK(,)</text>
<polygon fill="none" stroke="black" points="289,-13.5 289,-31.5 451,-31.5 451,-13.5 289,-13.5"/>
<text text-anchor="start" x="292" y="-19.5" font-family="Courier New" font-size="10.00" fill="blue"> &#160;&#160;&#160;SIGNAL(WIP1,SIG_OPEN);</text>
<polygon fill="none" stroke="black" points="286,-10.5 286,-54.5 454,-54.5 454,-10.5 286,-10.5"/>
</g>
<!-- status -->
<g id="node3" class="node">
<title>status</title>
<polygon fill="none" stroke="black" points="472,-0.5 472,-64.5 800,-64.5 800,-0.5 472,-0.5"/>
<polygon fill="none" stroke="black" points="483,-39.5 483,-57.5 789,-57.5 789,-39.5 483,-39.5"/>
<text text-anchor="start" x="593.99" y="-46.5" font-family="Courier New" font-weight="bold" font-size="10.00">S00_HIDEBUTTON</text>
<polygon fill="none" stroke="black" points="483,-7.5 483,-37.5 789,-37.5 789,-7.5 483,-7.5"/>
<text text-anchor="start" x="486" y="-25.5" font-family="Courier New" font-size="10.00" fill="green">S00_HIDEBUTTON::M_HIDEBUTTON(&#39;S00_HIDER&#39;,&#39;&#39;,&#39;&#39;,&#39;&#39;)</text>
<text text-anchor="start" x="486" y="-13.5" font-family="Courier New" font-size="10.00" fill="green">{&#39;0&#39;:}</text>
<polygon fill="none" stroke="black" points="480,-4.5 480,-60.5 792,-60.5 792,-4.5 480,-4.5"/>
</g>
</g>
</svg>
