<?xml version="1.0" encoding="UTF-8" standalone="no"?>
<!DOCTYPE svg PUBLIC "-//W3C//DTD SVG 1.1//EN"
 "http://www.w3.org/Graphics/SVG/1.1/DTD/svg11.dtd">
<!-- Generated by graphviz version 7.1.0 (20230121.1956)
 -->
<!-- Title: Automaton Pages: 1 -->
<svg width="868pt" height="100pt"
 viewBox="0.00 0.00 868.00 100.00" xmlns="http://www.w3.org/2000/svg" xmlns:xlink="http://www.w3.org/1999/xlink">
<g id="graph0" class="graph" transform="scale(1 1) rotate(0) translate(4 96)">
<title>Automaton</title>
<polygon fill="white" stroke="none" points="-4,4 -4,-96 864,-96 864,4 -4,4"/>
<!-- filename -->
<g id="node1" class="node">
<title>filename</title>
<polygon fill="none" stroke="black" points="0,-20 0,-72 166,-72 166,-20 0,-20"/>
<polygon fill="none" stroke="black" points="11,-47 11,-65 155,-65 155,-47 11,-47"/>
<text text-anchor="start" x="14" y="-54" font-family="Courier New" font-weight="bold" font-size="10.00">S02_NUM10_00::M02_NUM10</text>
<polygon fill="none" stroke="black" points="11,-27 11,-45 155,-45 155,-27 11,-27"/>
<text text-anchor="start" x="37.99" y="-33" font-family="Courier New" font-size="10.00" fill="brown">start state = 0</text>
<polygon fill="none" stroke="black" points="8,-24 8,-68 158,-68 158,-24 8,-24"/>
</g>
<!-- 0 -->
<g id="node2" class="node">
<title>0</title>
<polyline fill="none" stroke="darkred" stroke-width="3" points="203.5,-34.5 218.5,-34.5"/>
<text text-anchor="start" x="207" y="-42.4" font-family="Courier New" font-weight="bold" font-size="14.00">0</text>
<path fill="none" stroke="darkred" stroke-width="3" d="M206.83,-29.5C206.83,-29.5 215.17,-29.5 215.17,-29.5 219.33,-29.5 223.5,-33.67 223.5,-37.83 223.5,-37.83 223.5,-54.17 223.5,-54.17 223.5,-58.33 219.33,-62.5 215.17,-62.5 215.17,-62.5 206.83,-62.5 206.83,-62.5 202.67,-62.5 198.5,-58.33 198.5,-54.17 198.5,-54.17 198.5,-37.83 198.5,-37.83 198.5,-33.67 202.67,-29.5 206.83,-29.5"/>
</g>
<!-- 0&#45;&gt;0 -->
<g id="edge1" class="edge">
<title>0&#45;&gt;0</title>
<path fill="none" stroke="black" d="M237.79,-54.23C247.78,-54.5 256,-51.76 256,-46 256,-42.67 253.25,-40.35 249.01,-39.04"/>
<polygon fill="black" stroke="black" points="249.63,-35.58 239.3,-37.94 248.84,-42.54 249.63,-35.58"/>
<polygon fill="none" stroke="black" points="259,-71 259,-89 451,-89 451,-71 259,-71"/>
<text text-anchor="start" x="309.99" y="-78" font-family="Courier New" font-weight="bold" font-size="10.00" fill="orange">WAIT(SIG_SHOW,)</text>
<polygon fill="none" stroke="black" points="259,-3 259,-69 451,-69 451,-3 259,-3"/>
<text text-anchor="start" x="262" y="-57" font-family="Courier New" font-size="10.00" fill="blue"> &#160;&#160;&#160;REF_MACHINE(WIP1);</text>
<text text-anchor="start" x="262" y="-45" font-family="Courier New" font-size="10.00" fill="blue"> &#160;&#160;&#160;BFRAME = R_WPARM / 10 ;</text>
<text text-anchor="start" x="262" y="-33" font-family="Courier New" font-size="10.00" fill="blue"> &#160;&#160;&#160;if (BFRAME &lt; 0) {BFRAME=0;}</text>
<text text-anchor="start" x="262" y="-21" font-family="Courier New" font-size="10.00" fill="blue"> &#160;&#160;&#160;if (BFRAME &gt; 9) {BFRAME=9;}</text>
<text text-anchor="start" x="262" y="-9" font-family="Courier New" font-size="10.00" fill="blue"> &#160;&#160;&#160;SHOW(0,IDS_CITYNUM);</text>
<polygon fill="none" stroke="black" points="256,0 256,-92 454,-92 454,0 256,0"/>
</g>
<!-- status -->
<g id="node3" class="node">
<title>status</title>
<polygon fill="none" stroke="black" points="472,-8 472,-84 860,-84 860,-8 472,-8"/>
<polygon fill="none" stroke="black" points="483,-59 483,-77 849,-77 849,-59 483,-59"/>
<text text-anchor="start" x="629.99" y="-66" font-family="Courier New" font-weight="bold" font-size="10.00">S02_NUM10_00</text>
<polygon fill="none" stroke="black" points="483,-15 483,-57 849,-57 849,-15 483,-15"/>
<text text-anchor="start" x="486" y="-45" font-family="Courier New" font-size="10.00" fill="green">VIEW::IDV_LOCKERCU00 @pos(left:232, top:40)</text>
<text text-anchor="start" x="486" y="-33" font-family="Courier New" font-size="10.00" fill="green">S02_NUM10_00::M02_NUM10(&#39;S02_VIAL__00&#39;,&#39;S02_LOCK__00&#39;,&#39;&#39;,&#39;&#39;)</text>
<text text-anchor="start" x="486" y="-21" font-family="Courier New" font-size="10.00" fill="green">{state:&#39;0&#39;: wSprite:IDS_CITYNUM</text>
<polygon fill="none" stroke="black" points="480,-12 480,-80 852,-80 852,-12 480,-12"/>
</g>
</g>
</svg>
