<?xml version="1.0" encoding="UTF-8" standalone="no"?>
<!DOCTYPE svg PUBLIC "-//W3C//DTD SVG 1.1//EN"
 "http://www.w3.org/Graphics/SVG/1.1/DTD/svg11.dtd">
<!-- Generated by graphviz version 7.1.0 (20230121.1956)
 -->
<!-- Title: Automaton Pages: 1 -->
<svg width="856pt" height="100pt"
 viewBox="0.00 0.00 856.00 100.00" xmlns="http://www.w3.org/2000/svg" xmlns:xlink="http://www.w3.org/1999/xlink">
<g id="graph0" class="graph" transform="scale(1 1) rotate(0) translate(4 96)">
<title>Automaton</title>
<polygon fill="white" stroke="none" points="-4,4 -4,-96 852,-96 852,4 -4,4"/>
<!-- filename -->
<g id="node1" class="node">
<title>filename</title>
<polygon fill="none" stroke="black" points="0,-20 0,-72 160,-72 160,-20 0,-20"/>
<polygon fill="none" stroke="black" points="11,-47 11,-65 149,-65 149,-47 11,-47"/>
<text text-anchor="start" x="14" y="-54" font-family="Courier New" font-weight="bold" font-size="10.00">S02_NUM1__00::M02_NUM1</text>
<polygon fill="none" stroke="black" points="11,-27 11,-45 149,-45 149,-27 11,-27"/>
<text text-anchor="start" x="34.99" y="-33" font-family="Courier New" font-size="10.00" fill="brown">start state = 0</text>
<polygon fill="none" stroke="black" points="8,-24 8,-68 152,-68 152,-24 8,-24"/>
</g>
<!-- 0 -->
<g id="node2" class="node">
<title>0</title>
<polyline fill="none" stroke="darkred" stroke-width="3" points="197.5,-34.5 212.5,-34.5"/>
<text text-anchor="start" x="201" y="-42.4" font-family="Courier New" font-weight="bold" font-size="14.00">0</text>
<path fill="none" stroke="darkred" stroke-width="3" d="M200.83,-29.5C200.83,-29.5 209.17,-29.5 209.17,-29.5 213.33,-29.5 217.5,-33.67 217.5,-37.83 217.5,-37.83 217.5,-54.17 217.5,-54.17 217.5,-58.33 213.33,-62.5 209.17,-62.5 209.17,-62.5 200.83,-62.5 200.83,-62.5 196.67,-62.5 192.5,-58.33 192.5,-54.17 192.5,-54.17 192.5,-37.83 192.5,-37.83 192.5,-33.67 196.67,-29.5 200.83,-29.5"/>
</g>
<!-- 0&#45;&gt;0 -->
<g id="edge1" class="edge">
<title>0&#45;&gt;0</title>
<path fill="none" stroke="black" d="M231.79,-54.23C241.78,-54.5 250,-51.76 250,-46 250,-42.67 247.25,-40.35 243.01,-39.04"/>
<polygon fill="black" stroke="black" points="243.63,-35.58 233.3,-37.94 242.84,-42.54 243.63,-35.58"/>
<polygon fill="none" stroke="black" points="253,-71 253,-89 445,-89 445,-71 253,-71"/>
<text text-anchor="start" x="303.99" y="-78" font-family="Courier New" font-weight="bold" font-size="10.00" fill="orange">WAIT(SIG_SHOW,)</text>
<polygon fill="none" stroke="black" points="253,-3 253,-69 445,-69 445,-3 253,-3"/>
<text text-anchor="start" x="256" y="-57" font-family="Courier New" font-size="10.00" fill="blue"> &#160;&#160;&#160;REF_MACHINE(WIP1);</text>
<text text-anchor="start" x="256" y="-45" font-family="Courier New" font-size="10.00" fill="blue"> &#160;&#160;&#160;BFRAME = R_WPARM % 10;</text>
<text text-anchor="start" x="256" y="-33" font-family="Courier New" font-size="10.00" fill="blue"> &#160;&#160;&#160;if (BFRAME &lt; 0) {BFRAME=0;}</text>
<text text-anchor="start" x="256" y="-21" font-family="Courier New" font-size="10.00" fill="blue"> &#160;&#160;&#160;if (BFRAME &gt; 9) {BFRAME=9;}</text>
<text text-anchor="start" x="256" y="-9" font-family="Courier New" font-size="10.00" fill="blue"> &#160;&#160;&#160;SHOW(0,IDS_CITYNUM);</text>
<polygon fill="none" stroke="black" points="250,0 250,-92 448,-92 448,0 250,0"/>
</g>
<!-- status -->
<g id="node3" class="node">
<title>status</title>
<polygon fill="none" stroke="black" points="466,-8 466,-84 848,-84 848,-8 466,-8"/>
<polygon fill="none" stroke="black" points="477,-59 477,-77 837,-77 837,-59 477,-59"/>
<text text-anchor="start" x="620.99" y="-66" font-family="Courier New" font-weight="bold" font-size="10.00">S02_NUM1__00</text>
<polygon fill="none" stroke="black" points="477,-15 477,-57 837,-57 837,-15 477,-15"/>
<text text-anchor="start" x="480" y="-45" font-family="Courier New" font-size="10.00" fill="green">VIEW::IDV_LOCKERCU00 @pos(left:263, top:39)</text>
<text text-anchor="start" x="480" y="-33" font-family="Courier New" font-size="10.00" fill="green">S02_NUM1__00::M02_NUM1(&#39;S02_VIAL__00&#39;,&#39;S02_LOCK__00&#39;,&#39;&#39;,&#39;&#39;)</text>
<text text-anchor="start" x="480" y="-21" font-family="Courier New" font-size="10.00" fill="green">{state:&#39;0&#39;: wSprite:IDS_CITYNUM bFrame:3</text>
<polygon fill="none" stroke="black" points="474,-12 474,-80 840,-80 840,-12 474,-12"/>
</g>
</g>
</svg>
