<?xml version="1.0" encoding="UTF-8" standalone="no"?>
<!DOCTYPE svg PUBLIC "-//W3C//DTD SVG 1.1//EN"
 "http://www.w3.org/Graphics/SVG/1.1/DTD/svg11.dtd">
<!-- Generated by graphviz version 7.1.0 (20230121.1956)
 -->
<!-- Title: Automaton Pages: 1 -->
<svg width="640pt" height="189pt"
 viewBox="0.00 0.00 640.00 189.00" xmlns="http://www.w3.org/2000/svg" xmlns:xlink="http://www.w3.org/1999/xlink">
<g id="graph0" class="graph" transform="scale(1 1) rotate(0) translate(4 185)">
<title>Automaton</title>
<polygon fill="white" stroke="none" points="-4,4 -4,-185 636,-185 636,4 -4,4"/>
<!-- filename -->
<g id="node1" class="node">
<title>filename</title>
<polygon fill="none" stroke="black" points="0,-122.5 0,-174.5 160,-174.5 160,-122.5 0,-122.5"/>
<polygon fill="none" stroke="black" points="11,-149.5 11,-167.5 149,-167.5 149,-149.5 11,-149.5"/>
<text text-anchor="start" x="14" y="-156.5" font-family="Courier New" font-weight="bold" font-size="10.00">S02_UP10__13::M02_UP10</text>
<polygon fill="none" stroke="black" points="11,-129.5 11,-147.5 149,-147.5 149,-129.5 11,-129.5"/>
<text text-anchor="start" x="34.99" y="-135.5" font-family="Courier New" font-size="10.00" fill="brown">start state = 0</text>
<polygon fill="none" stroke="black" points="8,-126.5 8,-170.5 152,-170.5 152,-126.5 8,-126.5"/>
</g>
<!-- 0 -->
<g id="node2" class="node">
<title>0</title>
<polyline fill="none" stroke="darkred" stroke-width="3" points="197.5,-137 212.5,-137"/>
<text text-anchor="start" x="201" y="-144.9" font-family="Courier New" font-weight="bold" font-size="14.00">0</text>
<path fill="none" stroke="darkred" stroke-width="3" d="M200.83,-132C200.83,-132 209.17,-132 209.17,-132 213.33,-132 217.5,-136.17 217.5,-140.33 217.5,-140.33 217.5,-156.67 217.5,-156.67 217.5,-160.83 213.33,-165 209.17,-165 209.17,-165 200.83,-165 200.83,-165 196.67,-165 192.5,-160.83 192.5,-156.67 192.5,-156.67 192.5,-140.33 192.5,-140.33 192.5,-136.17 196.67,-132 200.83,-132"/>
</g>
<!-- 1 -->
<g id="node3" class="node">
<title>1</title>
<polyline fill="none" stroke="darkred" points="198,-7 212,-7"/>
<text text-anchor="start" x="201" y="-14.4" font-family="Courier New" font-weight="bold" font-size="14.00">1</text>
<path fill="none" stroke="darkred" d="M201.67,-4C201.67,-4 208.33,-4 208.33,-4 211.67,-4 215,-7.33 215,-10.67 215,-10.67 215,-25.33 215,-25.33 215,-28.67 211.67,-32 208.33,-32 208.33,-32 201.67,-32 201.67,-32 198.33,-32 195,-28.67 195,-25.33 195,-25.33 195,-10.67 195,-10.67 195,-7.33 198.33,-4 201.67,-4"/>
</g>
<!-- 0&#45;&gt;1 -->
<g id="edge1" class="edge">
<title>0&#45;&gt;1</title>
<path fill="none" stroke="black" d="M185.15,-126.57C180.25,-122.46 174.74,-118.62 169,-116 142.47,-103.89 58.16,-119.99 39,-98 26.16,-83.25 26.68,-69.19 39,-54 54.76,-34.57 122.74,-25.51 166.66,-21.62"/>
<polygon fill="black" stroke="black" points="166.9,-25.11 176.57,-20.8 166.32,-18.14 166.9,-25.11"/>
<polygon fill="none" stroke="black" points="42,-77 42,-95 180,-95 180,-77 42,-77"/>
<text text-anchor="start" x="87" y="-84" font-family="Courier New" font-weight="bold" font-size="10.00" fill="orange">CLICK(,)</text>
<polygon fill="none" stroke="black" points="42,-57 42,-75 180,-75 180,-57 42,-57"/>
<text text-anchor="start" x="45" y="-63" font-family="Courier New" font-size="10.00" fill="blue">PLAYWAVE(SOUND_CLICK);</text>
<polygon fill="none" stroke="black" points="39,-54 39,-98 183,-98 183,-54 39,-54"/>
</g>
<!-- 1&#45;&gt;0 -->
<g id="edge2" class="edge">
<title>1&#45;&gt;0</title>
<path fill="none" stroke="black" d="M205,-35.82C205,-55.95 205,-90.09 205,-115.33"/>
<polygon fill="black" stroke="black" points="201.5,-115.05 205,-125.05 208.5,-115.05 201.5,-115.05"/>
<text text-anchor="start" x="209" y="-74" font-family="Courier New" font-weight="bold" font-size="10.00" fill="blue">IFSTATE(M02_LOCKED,WIP2)</text>
</g>
<!-- 1&#45;&gt;0 -->
<g id="edge3" class="edge">
<title>1&#45;&gt;0</title>
<path fill="none" stroke="black" d="M231.76,-21.19C271.34,-25.05 342.5,-34.56 358,-54 370.19,-69.29 370.73,-83.16 358,-98 323.74,-137.93 288.7,-93.79 241,-116 238.59,-117.12 236.21,-118.46 233.91,-119.94"/>
<polygon fill="black" stroke="black" points="232.04,-116.96 226.09,-125.73 236.21,-122.59 232.04,-116.96"/>
<polygon fill="none" stroke="black" points="370,-77 370,-95 514,-95 514,-77 370,-77"/>
<text text-anchor="start" x="405.99" y="-84" font-family="Courier New" font-weight="bold" font-size="10.00" fill="blue">Z_EPSILON(,)</text>
<polygon fill="none" stroke="black" points="370,-57 370,-75 514,-75 514,-57 370,-57"/>
<text text-anchor="start" x="373" y="-63" font-family="Courier New" font-size="10.00" fill="blue">SIGNAL(WIP1,SIG_INC10);</text>
<polygon fill="none" stroke="black" points="367,-54 367,-98 517,-98 517,-54 367,-54"/>
</g>
<!-- status -->
<g id="node4" class="node">
<title>status</title>
<polygon fill="none" stroke="black" points="250,-116.5 250,-180.5 632,-180.5 632,-116.5 250,-116.5"/>
<polygon fill="none" stroke="black" points="261,-155.5 261,-173.5 621,-173.5 621,-155.5 261,-155.5"/>
<text text-anchor="start" x="404.99" y="-162.5" font-family="Courier New" font-weight="bold" font-size="10.00">S02_UP10__13</text>
<polygon fill="none" stroke="black" points="261,-123.5 261,-153.5 621,-153.5 621,-123.5 261,-123.5"/>
<text text-anchor="start" x="264" y="-141.5" font-family="Courier New" font-size="10.00" fill="green">S02_UP10__13::M02_UP10(&#39;S02_VIAL__13&#39;,&#39;S02_LOCK__13&#39;,&#39;&#39;,&#39;&#39;)</text>
<text text-anchor="start" x="264" y="-129.5" font-family="Courier New" font-size="10.00" fill="green">{&#39;0&#39;:}</text>
<polygon fill="none" stroke="black" points="258,-120.5 258,-176.5 624,-176.5 624,-120.5 258,-120.5"/>
</g>
</g>
</svg>
