<?xml version="1.0" encoding="UTF-8" standalone="no"?>
<!DOCTYPE svg PUBLIC "-//W3C//DTD SVG 1.1//EN"
 "http://www.w3.org/Graphics/SVG/1.1/DTD/svg11.dtd">
<!-- Generated by graphviz version 7.1.0 (20230121.1956)
 -->
<!-- Title: Automaton Pages: 1 -->
<svg width="814pt" height="85pt"
 viewBox="0.00 0.00 814.00 85.00" xmlns="http://www.w3.org/2000/svg" xmlns:xlink="http://www.w3.org/1999/xlink">
<g id="graph0" class="graph" transform="scale(1 1) rotate(0) translate(4 81)">
<title>Automaton</title>
<polygon fill="white" stroke="none" points="-4,4 -4,-81 810,-81 810,4 -4,4"/>
<!-- filename -->
<g id="node1" class="node">
<title>filename</title>
<polygon fill="none" stroke="black" points="0,-12.5 0,-64.5 160,-64.5 160,-12.5 0,-12.5"/>
<polygon fill="none" stroke="black" points="11,-39.5 11,-57.5 149,-57.5 149,-39.5 11,-39.5"/>
<text text-anchor="start" x="14" y="-46.5" font-family="Courier New" font-weight="bold" font-size="10.00">S02_DN10__00::M02_DN10</text>
<polygon fill="none" stroke="black" points="11,-19.5 11,-37.5 149,-37.5 149,-19.5 11,-19.5"/>
<text text-anchor="start" x="34.99" y="-25.5" font-family="Courier New" font-size="10.00" fill="brown">start state = 0</text>
<polygon fill="none" stroke="black" points="8,-16.5 8,-60.5 152,-60.5 152,-16.5 8,-16.5"/>
</g>
<!-- 0 -->
<g id="node2" class="node">
<title>0</title>
<polyline fill="none" stroke="darkred" stroke-width="3" points="197.5,-27 212.5,-27"/>
<text text-anchor="start" x="201" y="-34.9" font-family="Courier New" font-weight="bold" font-size="14.00">0</text>
<path fill="none" stroke="darkred" stroke-width="3" d="M200.83,-22C200.83,-22 209.17,-22 209.17,-22 213.33,-22 217.5,-26.17 217.5,-30.33 217.5,-30.33 217.5,-46.67 217.5,-46.67 217.5,-50.83 213.33,-55 209.17,-55 209.17,-55 200.83,-55 200.83,-55 196.67,-55 192.5,-50.83 192.5,-46.67 192.5,-46.67 192.5,-30.33 192.5,-30.33 192.5,-26.17 196.67,-22 200.83,-22"/>
</g>
<!-- 0&#45;&gt;0 -->
<g id="edge1" class="edge">
<title>0&#45;&gt;0</title>
<path fill="none" stroke="black" d="M231.79,-46.73C241.78,-47 250,-44.26 250,-38.5 250,-35.17 247.25,-32.85 243.01,-31.54"/>
<polygon fill="black" stroke="black" points="243.63,-28.08 233.3,-30.44 242.84,-35.04 243.63,-28.08"/>
<polygon fill="none" stroke="black" points="253,-45.5 253,-63.5 403,-63.5 403,-45.5 253,-45.5"/>
<text text-anchor="start" x="304" y="-52.5" font-family="Courier New" font-weight="bold" font-size="10.00" fill="orange">CLICK(,)</text>
<polygon fill="none" stroke="black" points="253,-13.5 253,-43.5 403,-43.5 403,-13.5 253,-13.5"/>
<text text-anchor="start" x="256" y="-31.5" font-family="Courier New" font-size="10.00" fill="blue">PLAYWAVE(SOUND_CLICK);</text>
<text text-anchor="start" x="256" y="-19.5" font-family="Courier New" font-size="10.00" fill="blue">SIGNAL(WIP1, SIG_DEC10);</text>
<polygon fill="none" stroke="black" points="250,-10.5 250,-66.5 406,-66.5 406,-10.5 250,-10.5"/>
</g>
<!-- status -->
<g id="node3" class="node">
<title>status</title>
<polygon fill="none" stroke="black" points="424,-0.5 424,-76.5 806,-76.5 806,-0.5 424,-0.5"/>
<polygon fill="none" stroke="black" points="435,-51.5 435,-69.5 795,-69.5 795,-51.5 435,-51.5"/>
<text text-anchor="start" x="578.99" y="-58.5" font-family="Courier New" font-weight="bold" font-size="10.00">S02_DN10__00</text>
<polygon fill="none" stroke="black" points="435,-7.5 435,-49.5 795,-49.5 795,-7.5 435,-7.5"/>
<text text-anchor="start" x="438" y="-37.5" font-family="Courier New" font-size="10.00" fill="green">VIEW::IDV_LOCKERCU00 @pos(left:231, top:72)</text>
<text text-anchor="start" x="438" y="-25.5" font-family="Courier New" font-size="10.00" fill="green">S02_DN10__00::M02_DN10(&#39;S02_VIAL__00&#39;,&#39;S02_LOCK__00&#39;,&#39;&#39;,&#39;&#39;)</text>
<text text-anchor="start" x="438" y="-13.5" font-family="Courier New" font-size="10.00" fill="green">{state:&#39;0&#39;:</text>
<polygon fill="none" stroke="black" points="432,-4.5 432,-72.5 798,-72.5 798,-4.5 432,-4.5"/>
</g>
</g>
</svg>
