<?xml version="1.0" encoding="UTF-8" standalone="no"?>
<!DOCTYPE svg PUBLIC "-//W3C//DTD SVG 1.1//EN"
 "http://www.w3.org/Graphics/SVG/1.1/DTD/svg11.dtd">
<!-- Generated by graphviz version 7.1.0 (20230121.1956)
 -->
<!-- Title: Automaton Pages: 1 -->
<svg width="628pt" height="189pt"
 viewBox="0.00 0.00 628.00 189.00" xmlns="http://www.w3.org/2000/svg" xmlns:xlink="http://www.w3.org/1999/xlink">
<g id="graph0" class="graph" transform="scale(1 1) rotate(0) translate(4 185)">
<title>Automaton</title>
<polygon fill="white" stroke="none" points="-4,4 -4,-185 624,-185 624,4 -4,4"/>
<!-- filename -->
<g id="node1" class="node">
<title>filename</title>
<polygon fill="none" stroke="black" points="0,-122.5 0,-174.5 154,-174.5 154,-122.5 0,-122.5"/>
<polygon fill="none" stroke="black" points="11,-149.5 11,-167.5 143,-167.5 143,-149.5 11,-149.5"/>
<text text-anchor="start" x="14" y="-156.5" font-family="Courier New" font-weight="bold" font-size="10.00">S02_DN1___10::M02_DN1</text>
<polygon fill="none" stroke="black" points="11,-129.5 11,-147.5 143,-147.5 143,-129.5 11,-129.5"/>
<text text-anchor="start" x="31.99" y="-135.5" font-family="Courier New" font-size="10.00" fill="brown">start state = 0</text>
<polygon fill="none" stroke="black" points="8,-126.5 8,-170.5 146,-170.5 146,-126.5 8,-126.5"/>
</g>
<!-- 0 -->
<g id="node2" class="node">
<title>0</title>
<polyline fill="none" stroke="darkred" stroke-width="3" points="191.5,-137 206.5,-137"/>
<text text-anchor="start" x="195" y="-144.9" font-family="Courier New" font-weight="bold" font-size="14.00">0</text>
<path fill="none" stroke="darkred" stroke-width="3" d="M194.83,-132C194.83,-132 203.17,-132 203.17,-132 207.33,-132 211.5,-136.17 211.5,-140.33 211.5,-140.33 211.5,-156.67 211.5,-156.67 211.5,-160.83 207.33,-165 203.17,-165 203.17,-165 194.83,-165 194.83,-165 190.67,-165 186.5,-160.83 186.5,-156.67 186.5,-156.67 186.5,-140.33 186.5,-140.33 186.5,-136.17 190.67,-132 194.83,-132"/>
</g>
<!-- 1 -->
<g id="node3" class="node">
<title>1</title>
<polyline fill="none" stroke="darkred" points="192,-7 206,-7"/>
<text text-anchor="start" x="195" y="-14.4" font-family="Courier New" font-weight="bold" font-size="14.00">1</text>
<path fill="none" stroke="darkred" d="M195.67,-4C195.67,-4 202.33,-4 202.33,-4 205.67,-4 209,-7.33 209,-10.67 209,-10.67 209,-25.33 209,-25.33 209,-28.67 205.67,-32 202.33,-32 202.33,-32 195.67,-32 195.67,-32 192.33,-32 189,-28.67 189,-25.33 189,-25.33 189,-10.67 189,-10.67 189,-7.33 192.33,-4 195.67,-4"/>
</g>
<!-- 0&#45;&gt;1 -->
<g id="edge1" class="edge">
<title>0&#45;&gt;1</title>
<path fill="none" stroke="black" d="M179.15,-126.57C174.25,-122.46 168.74,-118.62 163,-116 136.47,-103.89 52.16,-119.99 33,-98 20.16,-83.25 20.68,-69.19 33,-54 48.76,-34.57 116.74,-25.51 160.66,-21.62"/>
<polygon fill="black" stroke="black" points="160.9,-25.11 170.57,-20.8 160.32,-18.14 160.9,-25.11"/>
<polygon fill="none" stroke="black" points="36,-77 36,-95 174,-95 174,-77 36,-77"/>
<text text-anchor="start" x="81" y="-84" font-family="Courier New" font-weight="bold" font-size="10.00" fill="orange">CLICK(,)</text>
<polygon fill="none" stroke="black" points="36,-57 36,-75 174,-75 174,-57 36,-57"/>
<text text-anchor="start" x="39" y="-63" font-family="Courier New" font-size="10.00" fill="blue">PLAYWAVE(SOUND_CLICK);</text>
<polygon fill="none" stroke="black" points="33,-54 33,-98 177,-98 177,-54 33,-54"/>
</g>
<!-- 1&#45;&gt;0 -->
<g id="edge2" class="edge">
<title>1&#45;&gt;0</title>
<path fill="none" stroke="black" d="M199,-35.82C199,-55.95 199,-90.09 199,-115.33"/>
<polygon fill="black" stroke="black" points="195.5,-115.05 199,-125.05 202.5,-115.05 195.5,-115.05"/>
<text text-anchor="start" x="203" y="-74" font-family="Courier New" font-weight="bold" font-size="10.00" fill="blue">IFSTATE(M02_LOCKED,WIP_S02_LOCK)</text>
</g>
<!-- 1&#45;&gt;0 -->
<g id="edge3" class="edge">
<title>1&#45;&gt;0</title>
<path fill="none" stroke="black" d="M225.92,-19.58C275.46,-21.27 378.06,-27.91 400,-54 412.59,-68.97 413.06,-83.44 400,-98 375.37,-125.46 268.77,-101.17 235,-116 232.5,-117.1 230.04,-118.44 227.67,-119.93"/>
<polygon fill="black" stroke="black" points="225.59,-117.11 219.63,-125.87 229.75,-122.74 225.59,-117.11"/>
<polygon fill="none" stroke="black" points="412,-77 412,-95 604,-95 604,-77 412,-77"/>
<text text-anchor="start" x="471.99" y="-84" font-family="Courier New" font-weight="bold" font-size="10.00" fill="blue">Z_EPSILON(,)</text>
<polygon fill="none" stroke="black" points="412,-57 412,-75 604,-75 604,-57 412,-57"/>
<text text-anchor="start" x="415" y="-63" font-family="Courier New" font-size="10.00" fill="blue">SIGNAL(WIP_S02_VIAL, SIG_DEC1);</text>
<polygon fill="none" stroke="black" points="409,-54 409,-98 607,-98 607,-54 409,-54"/>
</g>
<!-- status -->
<g id="node4" class="node">
<title>status</title>
<polygon fill="none" stroke="black" points="244,-116.5 244,-180.5 620,-180.5 620,-116.5 244,-116.5"/>
<polygon fill="none" stroke="black" points="255,-155.5 255,-173.5 609,-173.5 609,-155.5 255,-155.5"/>
<text text-anchor="start" x="395.99" y="-162.5" font-family="Courier New" font-weight="bold" font-size="10.00">S02_DN1___10</text>
<polygon fill="none" stroke="black" points="255,-123.5 255,-153.5 609,-153.5 609,-123.5 255,-123.5"/>
<text text-anchor="start" x="258" y="-141.5" font-family="Courier New" font-size="10.00" fill="green">S02_DN1___10::M02_DN1(&#39;S02_VIAL__10&#39;,&#39;S02_LOCK__10&#39;,&#39;&#39;,&#39;&#39;)</text>
<text text-anchor="start" x="258" y="-129.5" font-family="Courier New" font-size="10.00" fill="green">{&#39;0&#39;:}</text>
<polygon fill="none" stroke="black" points="252,-120.5 252,-176.5 612,-176.5 612,-120.5 252,-120.5"/>
</g>
</g>
</svg>
