<?xml version="1.0" encoding="UTF-8" standalone="no"?>
<!DOCTYPE svg PUBLIC "-//W3C//DTD SVG 1.1//EN"
 "http://www.w3.org/Graphics/SVG/1.1/DTD/svg11.dtd">
<!-- Generated by graphviz version 7.1.0 (20230121.1956)
 -->
<!-- Title: Automaton Pages: 1 -->
<svg width="640pt" height="213pt"
 viewBox="0.00 0.00 640.00 213.00" xmlns="http://www.w3.org/2000/svg" xmlns:xlink="http://www.w3.org/1999/xlink">
<g id="graph0" class="graph" transform="scale(1 1) rotate(0) translate(4 209)">
<title>Automaton</title>
<polygon fill="white" stroke="none" points="-4,4 -4,-209 636,-209 636,4 -4,4"/>
<!-- filename -->
<g id="node1" class="node">
<title>filename</title>
<polygon fill="none" stroke="black" points="0,-140.5 0,-192.5 160,-192.5 160,-140.5 0,-140.5"/>
<polygon fill="none" stroke="black" points="11,-167.5 11,-185.5 149,-185.5 149,-167.5 11,-167.5"/>
<text text-anchor="start" x="14" y="-174.5" font-family="Courier New" font-weight="bold" font-size="10.00">S02_UP10__00::M02_UP10</text>
<polygon fill="none" stroke="black" points="11,-147.5 11,-165.5 149,-165.5 149,-147.5 11,-147.5"/>
<text text-anchor="start" x="34.99" y="-153.5" font-family="Courier New" font-size="10.00" fill="brown">start state = 0</text>
<polygon fill="none" stroke="black" points="8,-144.5 8,-188.5 152,-188.5 152,-144.5 8,-144.5"/>
</g>
<!-- 0 -->
<g id="node2" class="node">
<title>0</title>
<polyline fill="none" stroke="darkred" points="198,-155.5 212,-155.5"/>
<text text-anchor="start" x="201" y="-162.9" font-family="Courier New" font-weight="bold" font-size="14.00">0</text>
<path fill="none" stroke="darkred" d="M201.67,-152.5C201.67,-152.5 208.33,-152.5 208.33,-152.5 211.67,-152.5 215,-155.83 215,-159.17 215,-159.17 215,-173.83 215,-173.83 215,-177.17 211.67,-180.5 208.33,-180.5 208.33,-180.5 201.67,-180.5 201.67,-180.5 198.33,-180.5 195,-177.17 195,-173.83 195,-173.83 195,-159.17 195,-159.17 195,-155.83 198.33,-152.5 201.67,-152.5"/>
</g>
<!-- 1 -->
<g id="node3" class="node">
<title>1</title>
<ellipse fill="none" stroke="black" cx="205" cy="-18" rx="27" ry="18"/>
<text text-anchor="middle" x="205" y="-13.8" font-family="Courier New" font-size="14.00">1</text>
</g>
<!-- 0&#45;&gt;1 -->
<g id="edge1" class="edge">
<title>0&#45;&gt;1</title>
<path fill="none" stroke="black" d="M205,-148.69C205,-123.99 205,-77.55 205,-47.46"/>
<polygon fill="black" stroke="black" points="208.5,-47.57 205,-37.57 201.5,-47.57 208.5,-47.57"/>
<polygon fill="none" stroke="black" points="208,-89 208,-107 352,-107 352,-89 208,-89"/>
<text text-anchor="start" x="256" y="-96" font-family="Courier New" font-weight="bold" font-size="10.00" fill="orange">CLICK(,)</text>
<polygon fill="none" stroke="black" points="208,-57 208,-87 352,-87 352,-57 208,-57"/>
<text text-anchor="start" x="211" y="-75" font-family="Courier New" font-size="10.00" fill="blue">PLAYWAVE(SOUND_CLICK);</text>
<text text-anchor="start" x="211" y="-63" font-family="Courier New" font-size="10.00" fill="blue">SIGNAL(WIP1,SIG_INC10);</text>
<polygon fill="none" stroke="black" points="205,-54 205,-110 355,-110 355,-54 205,-54"/>
</g>
<!-- status -->
<g id="node4" class="node">
<title>status</title>
<polygon fill="none" stroke="black" points="250,-128.5 250,-204.5 632,-204.5 632,-128.5 250,-128.5"/>
<polygon fill="none" stroke="black" points="261,-179.5 261,-197.5 621,-197.5 621,-179.5 261,-179.5"/>
<text text-anchor="start" x="404.99" y="-186.5" font-family="Courier New" font-weight="bold" font-size="10.00">S02_UP10__00</text>
<polygon fill="none" stroke="black" points="261,-135.5 261,-177.5 621,-177.5 621,-135.5 261,-135.5"/>
<text text-anchor="start" x="264" y="-165.5" font-family="Courier New" font-size="10.00" fill="green">VIEW::IDV_LOCKERCU00 @pos(left:230, top:8)</text>
<text text-anchor="start" x="264" y="-153.5" font-family="Courier New" font-size="10.00" fill="green">S02_UP10__00::M02_UP10(&#39;S02_VIAL__00&#39;,&#39;S02_LOCK__00&#39;,&#39;&#39;,&#39;&#39;)</text>
<text text-anchor="start" x="264" y="-141.5" font-family="Courier New" font-size="10.00" fill="green">{state:&#39;1&#39;:</text>
<polygon fill="none" stroke="black" points="258,-132.5 258,-200.5 624,-200.5 624,-132.5 258,-132.5"/>
</g>
</g>
</svg>
