<?xml version="1.0" encoding="UTF-8" standalone="no"?>
<!DOCTYPE svg PUBLIC "-//W3C//DTD SVG 1.1//EN"
 "http://www.w3.org/Graphics/SVG/1.1/DTD/svg11.dtd">
<!-- Generated by graphviz version 7.1.0 (20230121.1956)
 -->
<!-- Title: Automaton Pages: 1 -->
<svg width="624pt" height="405pt"
 viewBox="0.00 0.00 624.37 405.00" xmlns="http://www.w3.org/2000/svg" xmlns:xlink="http://www.w3.org/1999/xlink">
<g id="graph0" class="graph" transform="scale(1 1) rotate(0) translate(4 401)">
<title>Automaton</title>
<polygon fill="white" stroke="none" points="-4,4 -4,-401 620.37,-401 620.37,4 -4,4"/>
<!-- filename -->
<g id="node1" class="node">
<title>filename</title>
<polygon fill="none" stroke="black" points="2.37,-332.5 2.37,-384.5 156.37,-384.5 156.37,-332.5 2.37,-332.5"/>
<polygon fill="none" stroke="black" points="13.37,-359.5 13.37,-377.5 145.37,-377.5 145.37,-359.5 13.37,-359.5"/>
<text text-anchor="start" x="16.37" y="-366.5" font-family="Courier New" font-weight="bold" font-size="10.00">S02_BIN___00::M02_BIN</text>
<polygon fill="none" stroke="black" points="13.37,-339.5 13.37,-357.5 145.37,-357.5 145.37,-339.5 13.37,-339.5"/>
<text text-anchor="start" x="34.36" y="-345.5" font-family="Courier New" font-size="10.00" fill="brown">start state = 0</text>
<polygon fill="none" stroke="black" points="10.37,-336.5 10.37,-380.5 148.37,-380.5 148.37,-336.5 10.37,-336.5"/>
</g>
<!-- 0 -->
<g id="node2" class="node">
<title>0</title>
<polyline fill="none" stroke="darkred" points="194.37,-347.5 208.37,-347.5"/>
<text text-anchor="start" x="197.37" y="-354.9" font-family="Courier New" font-weight="bold" font-size="14.00">0</text>
<path fill="none" stroke="darkred" d="M198.04,-344.5C198.04,-344.5 204.7,-344.5 204.7,-344.5 208.04,-344.5 211.37,-347.83 211.37,-351.17 211.37,-351.17 211.37,-365.83 211.37,-365.83 211.37,-369.17 208.04,-372.5 204.7,-372.5 204.7,-372.5 198.04,-372.5 198.04,-372.5 194.7,-372.5 191.37,-369.17 191.37,-365.83 191.37,-365.83 191.37,-351.17 191.37,-351.17 191.37,-347.83 194.7,-344.5 198.04,-344.5"/>
</g>
<!-- OPEN_EMPTY -->
<g id="node3" class="node">
<title>OPEN_EMPTY</title>
<polyline fill="none" stroke="darkred" points="156.37,-235 246.37,-235"/>
<text text-anchor="start" x="159.37" y="-242.4" font-family="Courier New" font-weight="bold" font-size="14.00">OPEN_EMPTY</text>
<path fill="none" stroke="darkred" d="M162.7,-232C162.7,-232 240.04,-232 240.04,-232 244.7,-232 249.37,-236.67 249.37,-241.33 249.37,-241.33 249.37,-250.67 249.37,-250.67 249.37,-255.33 244.7,-260 240.04,-260 240.04,-260 162.7,-260 162.7,-260 158.04,-260 153.37,-255.33 153.37,-250.67 153.37,-250.67 153.37,-241.33 153.37,-241.33 153.37,-236.67 158.04,-232 162.7,-232"/>
</g>
<!-- 0&#45;&gt;OPEN_EMPTY -->
<g id="edge1" class="edge">
<title>0&#45;&gt;OPEN_EMPTY</title>
<path fill="none" stroke="black" d="M201.37,-340.72C201.37,-323.36 201.37,-295.93 201.37,-275.23"/>
<polygon fill="black" stroke="black" points="204.87,-275.45 201.37,-265.45 197.87,-275.45 204.87,-275.45"/>
<text text-anchor="start" x="205.37" y="-290" font-family="Courier New" font-weight="bold" font-size="10.00" fill="blue">Z_EPSILON(,)</text>
</g>
<!-- LOCKED_EMPTY -->
<g id="node4" class="node">
<title>LOCKED_EMPTY</title>
<polyline fill="none" stroke="darkred" points="49.37,-107 155.37,-107"/>
<text text-anchor="start" x="52.37" y="-114.4" font-family="Courier New" font-weight="bold" font-size="14.00">LOCKED_EMPTY</text>
<path fill="none" stroke="darkred" d="M55.7,-104C55.7,-104 149.04,-104 149.04,-104 153.7,-104 158.37,-108.67 158.37,-113.33 158.37,-113.33 158.37,-122.67 158.37,-122.67 158.37,-127.33 153.7,-132 149.04,-132 149.04,-132 55.7,-132 55.7,-132 51.04,-132 46.37,-127.33 46.37,-122.67 46.37,-122.67 46.37,-113.33 46.37,-113.33 46.37,-108.67 51.04,-104 55.7,-104"/>
</g>
<!-- OPEN_EMPTY&#45;&gt;LOCKED_EMPTY -->
<g id="edge5" class="edge">
<title>OPEN_EMPTY&#45;&gt;LOCKED_EMPTY</title>
<path fill="none" stroke="black" d="M145.66,-242.42C95.86,-238.81 28.22,-230.23 11.37,-210 -4.55,-190.87 -2.72,-174.52 11.37,-154 15.98,-147.29 22.08,-141.86 28.93,-137.47"/>
<polygon fill="black" stroke="black" points="30.28,-140.72 37.36,-132.84 26.91,-134.59 30.28,-140.72"/>
<text text-anchor="start" x="15.37" y="-180" font-family="Courier New" font-weight="bold" font-size="10.00" fill="orange">WAIT(,SIG_CLOSE)</text>
</g>
<!-- OPEN_OCCUPIED -->
<g id="node6" class="node">
<title>OPEN_OCCUPIED</title>
<polyline fill="none" stroke="darkred" points="244.37,-107 359.37,-107"/>
<text text-anchor="start" x="247.37" y="-114.4" font-family="Courier New" font-weight="bold" font-size="14.00">OPEN_OCCUPIED</text>
<path fill="none" stroke="darkred" d="M250.2,-104C250.2,-104 352.54,-104 352.54,-104 357.2,-104 361.87,-108.67 361.87,-113.33 361.87,-113.33 361.87,-122.67 361.87,-122.67 361.87,-127.33 357.2,-132 352.54,-132 352.54,-132 250.2,-132 250.2,-132 245.54,-132 240.87,-127.33 240.87,-122.67 240.87,-122.67 240.87,-113.33 240.87,-113.33 240.87,-108.67 245.54,-104 250.2,-104"/>
</g>
<!-- OPEN_EMPTY&#45;&gt;OPEN_OCCUPIED -->
<g id="edge4" class="edge">
<title>OPEN_EMPTY&#45;&gt;OPEN_OCCUPIED</title>
<path fill="none" stroke="black" d="M223.75,-228.01C229.7,-222.72 235.75,-216.54 240.37,-210 255.88,-188.02 248,-176.08 263.37,-154 265.89,-150.38 268.85,-146.85 271.98,-143.52"/>
<polygon fill="black" stroke="black" points="274.19,-146.26 278.89,-136.77 269.3,-141.25 274.19,-146.26"/>
<polygon fill="none" stroke="black" points="266.37,-189 266.37,-207 416.37,-207 416.37,-189 266.37,-189"/>
<text text-anchor="start" x="320.37" y="-196" font-family="Courier New" font-weight="bold" font-size="10.00" fill="orange">DROP(,)</text>
<polygon fill="none" stroke="black" points="266.37,-157 266.37,-187 416.37,-187 416.37,-157 266.37,-157"/>
<text text-anchor="start" x="269.37" y="-175" font-family="Courier New" font-size="10.00" fill="blue"> &#160;&#160;&#160;ASHOW(WOBJECT);</text>
<text text-anchor="start" x="269.37" y="-163" font-family="Courier New" font-size="10.00" fill="blue"> &#160;&#160;&#160;MOV(WTEMP1,WOBJECT);</text>
<polygon fill="none" stroke="black" points="263.37,-154 263.37,-210 419.37,-210 419.37,-154 263.37,-154"/>
</g>
<!-- LOCKED_EMPTY&#45;&gt;OPEN_EMPTY -->
<g id="edge2" class="edge">
<title>LOCKED_EMPTY&#45;&gt;OPEN_EMPTY</title>
<path fill="none" stroke="black" d="M110.89,-135.99C113.67,-141.68 116.72,-148.08 119.37,-154 130.36,-178.56 124.78,-189.64 142.37,-210 146.12,-214.34 150.54,-218.28 155.26,-221.83"/>
<polygon fill="black" stroke="black" points="153.09,-224.58 163.33,-227.3 157.02,-218.79 153.09,-224.58"/>
<text text-anchor="start" x="146.37" y="-180" font-family="Courier New" font-weight="bold" font-size="10.00" fill="orange">WAIT(,SIG_OPEN)</text>
</g>
<!-- LOCKED_OCCUPIED -->
<g id="node5" class="node">
<title>LOCKED_OCCUPIED</title>
<polyline fill="none" stroke="darkred" stroke-width="3" points="233.87,-10.5 366.87,-10.5"/>
<text text-anchor="start" x="237.37" y="-18.4" font-family="Courier New" font-weight="bold" font-size="14.00">LOCKED_OCCUPIED</text>
<path fill="none" stroke="darkred" stroke-width="3" d="M239.87,-5.5C239.87,-5.5 360.87,-5.5 360.87,-5.5 366.37,-5.5 371.87,-11 371.87,-16.5 371.87,-16.5 371.87,-27.5 371.87,-27.5 371.87,-33 366.37,-38.5 360.87,-38.5 360.87,-38.5 239.87,-38.5 239.87,-38.5 234.37,-38.5 228.87,-33 228.87,-27.5 228.87,-27.5 228.87,-16.5 228.87,-16.5 228.87,-11 234.37,-5.5 239.87,-5.5"/>
</g>
<!-- LOCKED_OCCUPIED&#45;&gt;OPEN_OCCUPIED -->
<g id="edge3" class="edge">
<title>LOCKED_OCCUPIED&#45;&gt;OPEN_OCCUPIED</title>
<path fill="none" stroke="black" d="M329.41,-43.87C334.68,-49.14 339.43,-55.25 342.37,-62 345.92,-70.15 346.09,-73.93 342.37,-82 340.71,-85.59 338.49,-88.95 335.92,-92.06"/>
<polygon fill="black" stroke="black" points="333.56,-89.47 329.05,-99.05 338.56,-94.37 333.56,-89.47"/>
<text text-anchor="start" x="348.37" y="-70" font-family="Courier New" font-weight="bold" font-size="10.00" fill="orange">WAIT(,SIG_OPEN)</text>
</g>
<!-- OPEN_OCCUPIED&#45;&gt;OPEN_EMPTY -->
<g id="edge6" class="edge">
<title>OPEN_OCCUPIED&#45;&gt;OPEN_EMPTY</title>
<path fill="none" stroke="black" d="M369.82,-124.21C388.86,-129.2 407.55,-138.16 419.37,-154 434.26,-173.95 435.51,-191.06 419.37,-210 400.24,-232.45 325.32,-240.56 268.61,-243.45"/>
<polygon fill="black" stroke="black" points="268.51,-239.95 258.69,-243.91 268.84,-246.94 268.51,-239.95"/>
<polygon fill="none" stroke="black" points="433.37,-189 433.37,-207 565.37,-207 565.37,-189 433.37,-189"/>
<text text-anchor="start" x="478.37" y="-196" font-family="Courier New" font-weight="bold" font-size="10.00" fill="orange">GRAB(,)</text>
<polygon fill="none" stroke="black" points="433.37,-157 433.37,-187 565.37,-187 565.37,-157 433.37,-157"/>
<text text-anchor="start" x="436.37" y="-175" font-family="Courier New" font-size="10.00" fill="blue"> &#160;&#160;SHOW();</text>
<text text-anchor="start" x="436.37" y="-163" font-family="Courier New" font-size="10.00" fill="blue"> &#160;&#160;&#160;ASSIGN(WTEMP1,0);</text>
<polygon fill="none" stroke="black" points="430.37,-154 430.37,-210 568.37,-210 568.37,-154 430.37,-154"/>
</g>
<!-- OPEN_OCCUPIED&#45;&gt;LOCKED_OCCUPIED -->
<g id="edge7" class="edge">
<title>OPEN_OCCUPIED&#45;&gt;LOCKED_OCCUPIED</title>
<path fill="none" stroke="black" d="M252.85,-100.02C245.49,-95.32 238.86,-89.41 234.37,-82 227.2,-70.16 233.24,-59.35 244.08,-50.31"/>
<polygon fill="black" stroke="black" points="245.88,-53.33 251.95,-44.64 241.79,-47.65 245.88,-53.33"/>
<text text-anchor="start" x="238.37" y="-70" font-family="Courier New" font-weight="bold" font-size="10.00" fill="orange">WAIT(,SIG_CLOSE)</text>
</g>
<!-- status -->
<g id="node7" class="node">
<title>status</title>
<polygon fill="none" stroke="black" points="246.37,-320.5 246.37,-396.5 616.37,-396.5 616.37,-320.5 246.37,-320.5"/>
<polygon fill="none" stroke="black" points="257.37,-371.5 257.37,-389.5 605.37,-389.5 605.37,-371.5 257.37,-371.5"/>
<text text-anchor="start" x="395.36" y="-378.5" font-family="Courier New" font-weight="bold" font-size="10.00">S02_BIN___00</text>
<polygon fill="none" stroke="black" points="257.37,-327.5 257.37,-369.5 605.37,-369.5 605.37,-327.5 257.37,-327.5"/>
<text text-anchor="start" x="260.37" y="-357.5" font-family="Courier New" font-size="10.00" fill="green">VIEW::IDV_LOCKERCU00 @pos(left:20, top:20)</text>
<text text-anchor="start" x="260.37" y="-345.5" font-family="Courier New" font-size="10.00" fill="green">S02_BIN___00::M02_BIN(&#39;&#39;,&#39;&#39;,&#39;&#39;,&#39;&#39;)</text>
<text text-anchor="start" x="260.37" y="-333.5" font-family="Courier New" font-size="10.00" fill="green">{state:&#39;LOCKED_OCCUPIED&#39;: wObject:IDD_BOMB1 wSprite:BOMB1</text>
<polygon fill="none" stroke="black" points="254.37,-324.5 254.37,-392.5 608.37,-392.5 608.37,-324.5 254.37,-324.5"/>
</g>
</g>
</svg>
