<?xml version="1.0" encoding="UTF-8" standalone="no"?>
<!DOCTYPE svg PUBLIC "-//W3C//DTD SVG 1.1//EN"
 "http://www.w3.org/Graphics/SVG/1.1/DTD/svg11.dtd">
<!-- Generated by graphviz version 7.1.0 (20230121.1956)
 -->
<!-- Title: Automaton Pages: 1 -->
<svg width="796pt" height="85pt"
 viewBox="0.00 0.00 796.00 85.00" xmlns="http://www.w3.org/2000/svg" xmlns:xlink="http://www.w3.org/1999/xlink">
<g id="graph0" class="graph" transform="scale(1 1) rotate(0) translate(4 81)">
<title>Automaton</title>
<polygon fill="white" stroke="none" points="-4,4 -4,-81 792,-81 792,4 -4,4"/>
<!-- filename -->
<g id="node1" class="node">
<title>filename</title>
<polygon fill="none" stroke="black" points="0,-12.5 0,-64.5 154,-64.5 154,-12.5 0,-12.5"/>
<polygon fill="none" stroke="black" points="11,-39.5 11,-57.5 143,-57.5 143,-39.5 11,-39.5"/>
<text text-anchor="start" x="14" y="-46.5" font-family="Courier New" font-weight="bold" font-size="10.00">S02_DN1___00::M02_DN1</text>
<polygon fill="none" stroke="black" points="11,-19.5 11,-37.5 143,-37.5 143,-19.5 11,-19.5"/>
<text text-anchor="start" x="31.99" y="-25.5" font-family="Courier New" font-size="10.00" fill="brown">start state = 0</text>
<polygon fill="none" stroke="black" points="8,-16.5 8,-60.5 146,-60.5 146,-16.5 8,-16.5"/>
</g>
<!-- 0 -->
<g id="node2" class="node">
<title>0</title>
<polyline fill="none" stroke="darkred" stroke-width="3" points="191.5,-27 206.5,-27"/>
<text text-anchor="start" x="195" y="-34.9" font-family="Courier New" font-weight="bold" font-size="14.00">0</text>
<path fill="none" stroke="darkred" stroke-width="3" d="M194.83,-22C194.83,-22 203.17,-22 203.17,-22 207.33,-22 211.5,-26.17 211.5,-30.33 211.5,-30.33 211.5,-46.67 211.5,-46.67 211.5,-50.83 207.33,-55 203.17,-55 203.17,-55 194.83,-55 194.83,-55 190.67,-55 186.5,-50.83 186.5,-46.67 186.5,-46.67 186.5,-30.33 186.5,-30.33 186.5,-26.17 190.67,-22 194.83,-22"/>
</g>
<!-- 0&#45;&gt;0 -->
<g id="edge1" class="edge">
<title>0&#45;&gt;0</title>
<path fill="none" stroke="black" d="M225.79,-46.73C235.78,-47 244,-44.26 244,-38.5 244,-35.17 241.25,-32.85 237.01,-31.54"/>
<polygon fill="black" stroke="black" points="237.63,-28.08 227.3,-30.44 236.84,-35.04 237.63,-28.08"/>
<polygon fill="none" stroke="black" points="247,-45.5 247,-63.5 391,-63.5 391,-45.5 247,-45.5"/>
<text text-anchor="start" x="295" y="-52.5" font-family="Courier New" font-weight="bold" font-size="10.00" fill="orange">CLICK(,)</text>
<polygon fill="none" stroke="black" points="247,-13.5 247,-43.5 391,-43.5 391,-13.5 247,-13.5"/>
<text text-anchor="start" x="250" y="-31.5" font-family="Courier New" font-size="10.00" fill="blue">PLAYWAVE(SOUND_CLICK);</text>
<text text-anchor="start" x="250" y="-19.5" font-family="Courier New" font-size="10.00" fill="blue">SIGNAL(WIP1, SIG_DEC1);</text>
<polygon fill="none" stroke="black" points="244,-10.5 244,-66.5 394,-66.5 394,-10.5 244,-10.5"/>
</g>
<!-- status -->
<g id="node3" class="node">
<title>status</title>
<polygon fill="none" stroke="black" points="412,-0.5 412,-76.5 788,-76.5 788,-0.5 412,-0.5"/>
<polygon fill="none" stroke="black" points="423,-51.5 423,-69.5 777,-69.5 777,-51.5 423,-51.5"/>
<text text-anchor="start" x="563.99" y="-58.5" font-family="Courier New" font-weight="bold" font-size="10.00">S02_DN1___00</text>
<polygon fill="none" stroke="black" points="423,-7.5 423,-49.5 777,-49.5 777,-7.5 423,-7.5"/>
<text text-anchor="start" x="426" y="-37.5" font-family="Courier New" font-size="10.00" fill="green">VIEW::IDV_LOCKERCU00 @pos(left:262, top:71)</text>
<text text-anchor="start" x="426" y="-25.5" font-family="Courier New" font-size="10.00" fill="green">S02_DN1___00::M02_DN1(&#39;S02_VIAL__00&#39;,&#39;S02_LOCK__00&#39;,&#39;&#39;,&#39;&#39;)</text>
<text text-anchor="start" x="426" y="-13.5" font-family="Courier New" font-size="10.00" fill="green">{state:&#39;0&#39;:</text>
<polygon fill="none" stroke="black" points="420,-4.5 420,-72.5 780,-72.5 780,-4.5 420,-4.5"/>
</g>
</g>
</svg>
