<?xml version="1.0" encoding="UTF-8" standalone="no"?>
<!DOCTYPE svg PUBLIC "-//W3C//DTD SVG 1.1//EN"
 "http://www.w3.org/Graphics/SVG/1.1/DTD/svg11.dtd">
<!-- Generated by graphviz version 7.1.0 (20230121.1956)
 -->
<!-- Title: Automaton Pages: 1 -->
<svg width="586pt" height="269pt"
 viewBox="0.00 0.00 586.00 269.00" xmlns="http://www.w3.org/2000/svg" xmlns:xlink="http://www.w3.org/1999/xlink">
<g id="graph0" class="graph" transform="scale(1 1) rotate(0) translate(4 265)">
<title>Automaton</title>
<polygon fill="white" stroke="none" points="-4,4 -4,-265 582,-265 582,4 -4,4"/>
<!-- filename -->
<g id="node1" class="node">
<title>filename</title>
<polygon fill="none" stroke="black" points="0,-196.5 0,-248.5 166,-248.5 166,-196.5 0,-196.5"/>
<polygon fill="none" stroke="black" points="11,-223.5 11,-241.5 155,-241.5 155,-223.5 11,-223.5"/>
<text text-anchor="start" x="14" y="-230.5" font-family="Courier New" font-weight="bold" font-size="10.00">S03_BIRDSBKWD::M_VPLAY3</text>
<polygon fill="none" stroke="black" points="11,-203.5 11,-221.5 155,-221.5 155,-203.5 11,-203.5"/>
<text text-anchor="start" x="37.99" y="-209.5" font-family="Courier New" font-size="10.00" fill="brown">start state = 0</text>
<polygon fill="none" stroke="black" points="8,-200.5 8,-244.5 158,-244.5 158,-200.5 8,-200.5"/>
</g>
<!-- 0 -->
<g id="node2" class="node">
<title>0</title>
<polyline fill="none" stroke="darkred" stroke-width="3" points="203.5,-211 218.5,-211"/>
<text text-anchor="start" x="207" y="-218.9" font-family="Courier New" font-weight="bold" font-size="14.00">0</text>
<path fill="none" stroke="darkred" stroke-width="3" d="M206.83,-206C206.83,-206 215.17,-206 215.17,-206 219.33,-206 223.5,-210.17 223.5,-214.33 223.5,-214.33 223.5,-230.67 223.5,-230.67 223.5,-234.83 219.33,-239 215.17,-239 215.17,-239 206.83,-239 206.83,-239 202.67,-239 198.5,-234.83 198.5,-230.67 198.5,-230.67 198.5,-214.33 198.5,-214.33 198.5,-210.17 202.67,-206 206.83,-206"/>
</g>
<!-- 1 -->
<g id="node3" class="node">
<title>1</title>
<polyline fill="none" stroke="darkred" points="129,-99 143,-99"/>
<text text-anchor="start" x="132" y="-106.4" font-family="Courier New" font-weight="bold" font-size="14.00">1</text>
<path fill="none" stroke="darkred" d="M132.67,-96C132.67,-96 139.33,-96 139.33,-96 142.67,-96 146,-99.33 146,-102.67 146,-102.67 146,-117.33 146,-117.33 146,-120.67 142.67,-124 139.33,-124 139.33,-124 132.67,-124 132.67,-124 129.33,-124 126,-120.67 126,-117.33 126,-117.33 126,-102.67 126,-102.67 126,-99.33 129.33,-96 132.67,-96"/>
</g>
<!-- 0&#45;&gt;1 -->
<g id="edge1" class="edge">
<title>0&#45;&gt;1</title>
<path fill="none" stroke="black" d="M191.18,-200.6C177.95,-186.54 162.54,-169.89 160,-166 154.42,-157.44 149.59,-147.36 145.76,-138.18"/>
<polygon fill="black" stroke="black" points="149.07,-137.04 142.15,-129.01 142.56,-139.6 149.07,-137.04"/>
<text text-anchor="start" x="164" y="-154" font-family="Courier New" font-weight="bold" font-size="10.00" fill="orange">WAIT(0,SIG_OPEN)</text>
</g>
<!-- 2 -->
<g id="node4" class="node">
<title>2</title>
<polyline fill="none" stroke="darkred" points="196,-7 210,-7"/>
<text text-anchor="start" x="199" y="-14.4" font-family="Courier New" font-weight="bold" font-size="14.00">2</text>
<path fill="none" stroke="darkred" d="M199.67,-4C199.67,-4 206.33,-4 206.33,-4 209.67,-4 213,-7.33 213,-10.67 213,-10.67 213,-25.33 213,-25.33 213,-28.67 209.67,-32 206.33,-32 206.33,-32 199.67,-32 199.67,-32 196.33,-32 193,-28.67 193,-25.33 193,-25.33 193,-10.67 193,-10.67 193,-7.33 196.33,-4 199.67,-4"/>
</g>
<!-- 1&#45;&gt;2 -->
<g id="edge2" class="edge">
<title>1&#45;&gt;2</title>
<path fill="none" stroke="black" d="M129.01,-92.37C125.3,-80.76 122.84,-65.38 130,-54 137.98,-41.33 151.95,-33.14 165.56,-27.9"/>
<polygon fill="black" stroke="black" points="166.47,-31.29 174.83,-24.79 164.24,-24.66 166.47,-31.29"/>
<text text-anchor="start" x="134" y="-62" font-family="Courier New" font-weight="bold" font-size="10.00" fill="blue">SHOW(0,IDS_BIRDSBKWD)</text>
</g>
<!-- 2&#45;&gt;0 -->
<g id="edge3" class="edge">
<title>2&#45;&gt;0</title>
<path fill="none" stroke="black" d="M229.82,-27.27C242.56,-32.7 256.6,-41.22 264,-54 288.95,-97.08 282.52,-119.79 264,-166 263.9,-166.24 251.59,-179.14 238.85,-192.44"/>
<polygon fill="black" stroke="black" points="236.41,-189.93 232.02,-199.58 241.47,-194.77 236.41,-189.93"/>
<text text-anchor="start" x="284" y="-108" font-family="Courier New" font-weight="bold" font-size="10.00" fill="blue">ANIMATE(0,0)</text>
</g>
<!-- status -->
<g id="node5" class="node">
<title>status</title>
<polygon fill="none" stroke="black" points="256,-184.5 256,-260.5 578,-260.5 578,-184.5 256,-184.5"/>
<polygon fill="none" stroke="black" points="267,-235.5 267,-253.5 567,-253.5 567,-235.5 267,-235.5"/>
<text text-anchor="start" x="377.99" y="-242.5" font-family="Courier New" font-weight="bold" font-size="10.00">S03_BIRDSBKWD</text>
<polygon fill="none" stroke="black" points="267,-191.5 267,-233.5 567,-233.5 567,-191.5 267,-191.5"/>
<text text-anchor="start" x="270" y="-221.5" font-family="Courier New" font-size="10.00" fill="green">VIEW::IDV_GRNDCNT1</text>
<text text-anchor="start" x="270" y="-209.5" font-family="Courier New" font-size="10.00" fill="green">S03_BIRDSBKWD::M_VPLAY3(&#39;IDS_BIRDSBKWD&#39;,&#39;&#39;,&#39;&#39;,&#39;&#39;)</text>
<text text-anchor="start" x="270" y="-197.5" font-family="Courier New" font-size="10.00" fill="green">{&#39;0&#39;: wSprite:BIRDSBKWD</text>
<polygon fill="none" stroke="black" points="264,-188.5 264,-256.5 570,-256.5 570,-188.5 264,-188.5"/>
</g>
</g>
</svg>
