<?xml version="1.0" encoding="UTF-8" standalone="no"?>
<!DOCTYPE svg PUBLIC "-//W3C//DTD SVG 1.1//EN"
 "http://www.w3.org/Graphics/SVG/1.1/DTD/svg11.dtd">
<!-- Generated by graphviz version 7.1.0 (20230121.1956)
 -->
<!-- Title: Automaton Pages: 1 -->
<svg width="688pt" height="461pt"
 viewBox="0.00 0.00 688.00 461.00" xmlns="http://www.w3.org/2000/svg" xmlns:xlink="http://www.w3.org/1999/xlink">
<g id="graph0" class="graph" transform="scale(1 1) rotate(0) translate(4 457)">
<title>Automaton</title>
<polygon fill="white" stroke="none" points="-4,4 -4,-457 684,-457 684,4 -4,4"/>
<!-- filename -->
<g id="node1" class="node">
<title>filename</title>
<polygon fill="none" stroke="black" points="0,-388.5 0,-440.5 178,-440.5 178,-388.5 0,-388.5"/>
<polygon fill="none" stroke="black" points="11,-415.5 11,-433.5 167,-433.5 167,-415.5 11,-415.5"/>
<text text-anchor="start" x="14" y="-422.5" font-family="Courier New" font-weight="bold" font-size="10.00">S03_DOORANIM::M_ANIPORTAL</text>
<polygon fill="none" stroke="black" points="11,-395.5 11,-413.5 167,-413.5 167,-395.5 11,-395.5"/>
<text text-anchor="start" x="43.99" y="-401.5" font-family="Courier New" font-size="10.00" fill="brown">start state = 0</text>
<polygon fill="none" stroke="black" points="8,-392.5 8,-436.5 170,-436.5 170,-392.5 8,-392.5"/>
</g>
<!-- 0 -->
<g id="node2" class="node">
<title>0</title>
<polyline fill="none" stroke="darkred" points="216,-403.5 230,-403.5"/>
<text text-anchor="start" x="219" y="-410.9" font-family="Courier New" font-weight="bold" font-size="14.00">0</text>
<path fill="none" stroke="darkred" d="M219.67,-400.5C219.67,-400.5 226.33,-400.5 226.33,-400.5 229.67,-400.5 233,-403.83 233,-407.17 233,-407.17 233,-421.83 233,-421.83 233,-425.17 229.67,-428.5 226.33,-428.5 226.33,-428.5 219.67,-428.5 219.67,-428.5 216.33,-428.5 213,-425.17 213,-421.83 213,-421.83 213,-407.17 213,-407.17 213,-403.83 216.33,-400.5 219.67,-400.5"/>
</g>
<!-- 1 -->
<g id="node3" class="node">
<title>1</title>
<polyline fill="none" stroke="darkred" points="216,-291 230,-291"/>
<text text-anchor="start" x="219" y="-298.4" font-family="Courier New" font-weight="bold" font-size="14.00">1</text>
<path fill="none" stroke="darkred" d="M219.67,-288C219.67,-288 226.33,-288 226.33,-288 229.67,-288 233,-291.33 233,-294.67 233,-294.67 233,-309.33 233,-309.33 233,-312.67 229.67,-316 226.33,-316 226.33,-316 219.67,-316 219.67,-316 216.33,-316 213,-312.67 213,-309.33 213,-309.33 213,-294.67 213,-294.67 213,-291.33 216.33,-288 219.67,-288"/>
</g>
<!-- 0&#45;&gt;1 -->
<g id="edge1" class="edge">
<title>0&#45;&gt;1</title>
<path fill="none" stroke="black" d="M223,-396.72C223,-379.36 223,-351.93 223,-331.23"/>
<polygon fill="black" stroke="black" points="226.5,-331.45 223,-321.45 219.5,-331.45 226.5,-331.45"/>
<text text-anchor="start" x="227" y="-346" font-family="Courier New" font-weight="bold" font-size="10.00" fill="blue">MOV(WSPRITE,WIP1)</text>
</g>
<!-- 2 -->
<g id="node4" class="node">
<title>2</title>
<polyline fill="none" stroke="darkred" stroke-width="3" points="138.5,-194.5 153.5,-194.5"/>
<text text-anchor="start" x="142" y="-202.4" font-family="Courier New" font-weight="bold" font-size="14.00">2</text>
<path fill="none" stroke="darkred" stroke-width="3" d="M141.83,-189.5C141.83,-189.5 150.17,-189.5 150.17,-189.5 154.33,-189.5 158.5,-193.67 158.5,-197.83 158.5,-197.83 158.5,-214.17 158.5,-214.17 158.5,-218.33 154.33,-222.5 150.17,-222.5 150.17,-222.5 141.83,-222.5 141.83,-222.5 137.67,-222.5 133.5,-218.33 133.5,-214.17 133.5,-214.17 133.5,-197.83 133.5,-197.83 133.5,-193.67 137.67,-189.5 141.83,-189.5"/>
</g>
<!-- 1&#45;&gt;2 -->
<g id="edge2" class="edge">
<title>1&#45;&gt;2</title>
<path fill="none" stroke="black" d="M196.05,-287.03C187.18,-281.43 177.85,-274.31 171,-266 164.44,-258.04 159.35,-248.11 155.53,-238.68"/>
<polygon fill="black" stroke="black" points="158.86,-237.59 152.13,-229.4 152.28,-239.99 158.86,-237.59"/>
<text text-anchor="start" x="175" y="-254" font-family="Courier New" font-weight="bold" font-size="10.00" fill="blue">ASHOW(WSPRITE,V_LOOP)</text>
</g>
<!-- 3 -->
<g id="node5" class="node">
<title>3</title>
<polyline fill="none" stroke="darkred" points="124,-99 138,-99"/>
<text text-anchor="start" x="127" y="-106.4" font-family="Courier New" font-weight="bold" font-size="14.00">3</text>
<path fill="none" stroke="darkred" d="M127.67,-96C127.67,-96 134.33,-96 134.33,-96 137.67,-96 141,-99.33 141,-102.67 141,-102.67 141,-117.33 141,-117.33 141,-120.67 137.67,-124 134.33,-124 134.33,-124 127.67,-124 127.67,-124 124.33,-124 121,-120.67 121,-117.33 121,-117.33 121,-102.67 121,-102.67 121,-99.33 124.33,-96 127.67,-96"/>
</g>
<!-- 2&#45;&gt;3 -->
<g id="edge3" class="edge">
<title>2&#45;&gt;3</title>
<path fill="none" stroke="black" d="M142.67,-184.14C140.55,-170.87 137.79,-153.53 135.48,-139.06"/>
<polygon fill="black" stroke="black" points="138.94,-138.55 133.91,-129.23 132.03,-139.66 138.94,-138.55"/>
<text text-anchor="start" x="143" y="-154" font-family="Courier New" font-weight="bold" font-size="10.00" fill="orange">CLICK(0,0)</text>
</g>
<!-- 4 -->
<g id="node6" class="node">
<title>4</title>
<polyline fill="none" stroke="darkred" points="216,-7 230,-7"/>
<text text-anchor="start" x="219" y="-14.4" font-family="Courier New" font-weight="bold" font-size="14.00">4</text>
<path fill="none" stroke="darkred" d="M219.67,-4C219.67,-4 226.33,-4 226.33,-4 229.67,-4 233,-7.33 233,-10.67 233,-10.67 233,-25.33 233,-25.33 233,-28.67 229.67,-32 226.33,-32 226.33,-32 219.67,-32 219.67,-32 216.33,-32 213,-28.67 213,-25.33 213,-25.33 213,-10.67 213,-10.67 213,-7.33 216.33,-4 219.67,-4"/>
</g>
<!-- 3&#45;&gt;4 -->
<g id="edge4" class="edge">
<title>3&#45;&gt;4</title>
<path fill="none" stroke="black" d="M125.44,-92.12C122.68,-80.4 121.37,-64.99 129,-54 141.6,-35.86 164.78,-27.11 184.97,-22.89"/>
<polygon fill="black" stroke="black" points="185.37,-26.37 194.61,-21.2 184.16,-19.48 185.37,-26.37"/>
<text text-anchor="start" x="133" y="-62" font-family="Courier New" font-weight="bold" font-size="10.00" fill="blue">SIGNALi(SIG_OPEN,S01_NATURE)</text>
</g>
<!-- 4&#45;&gt;1 -->
<g id="edge5" class="edge">
<title>4&#45;&gt;1</title>
<path fill="none" stroke="black" d="M249.7,-22.64C268.64,-26.77 292.8,-35.53 305,-54 356.93,-132.62 356.93,-187.38 305,-266 295.09,-281.01 277.28,-289.6 260.79,-294.51"/>
<polygon fill="black" stroke="black" points="259.98,-291.11 251.16,-296.98 261.72,-297.89 259.98,-291.11"/>
<text text-anchor="start" x="347" y="-154" font-family="Courier New" font-weight="bold" font-size="10.00" fill="blue">LOADVIEW(0,IDV_GRNDCNT1)</text>
</g>
<!-- status -->
<g id="node7" class="node">
<title>status</title>
<polygon fill="none" stroke="black" points="268,-376.5 268,-452.5 680,-452.5 680,-376.5 268,-376.5"/>
<polygon fill="none" stroke="black" points="279,-427.5 279,-445.5 669,-445.5 669,-427.5 279,-427.5"/>
<text text-anchor="start" x="437.99" y="-434.5" font-family="Courier New" font-weight="bold" font-size="10.00">S03_DOORANIM</text>
<polygon fill="none" stroke="black" points="279,-383.5 279,-425.5 669,-425.5 669,-383.5 279,-383.5"/>
<text text-anchor="start" x="282" y="-413.5" font-family="Courier New" font-size="10.00" fill="green">VIEW::IDV_ORIE @pos(left:305, top:55)</text>
<text text-anchor="start" x="282" y="-401.5" font-family="Courier New" font-size="10.00" fill="green">S03_DOORANIM::M_ANIPORTAL(&#39;IDS_DOORANIM&#39;,&#39;IDV_GRNDCNT1&#39;,&#39;60&#39;,&#39;&#39;)</text>
<text text-anchor="start" x="282" y="-389.5" font-family="Courier New" font-size="10.00" fill="green">{state:&#39;2&#39;: wSprite:IDS_DOORANIM</text>
<polygon fill="none" stroke="black" points="276,-380.5 276,-448.5 672,-448.5 672,-380.5 276,-380.5"/>
</g>
</g>
</svg>
