<?xml version="1.0" encoding="UTF-8" standalone="no"?>
<!DOCTYPE svg PUBLIC "-//W3C//DTD SVG 1.1//EN"
 "http://www.w3.org/Graphics/SVG/1.1/DTD/svg11.dtd">
<!-- Generated by graphviz version 7.1.0 (20230121.1956)
 -->
<!-- Title: Automaton Pages: 1 -->
<svg width="514pt" height="233pt"
 viewBox="0.00 0.00 514.00 233.00" xmlns="http://www.w3.org/2000/svg" xmlns:xlink="http://www.w3.org/1999/xlink">
<g id="graph0" class="graph" transform="scale(1 1) rotate(0) translate(4 229)">
<title>Automaton</title>
<polygon fill="white" stroke="none" points="-4,4 -4,-229 510,-229 510,4 -4,4"/>
<!-- filename -->
<g id="node1" class="node">
<title>filename</title>
<polygon fill="none" stroke="black" points="0,-160.5 0,-212.5 136,-212.5 136,-160.5 0,-160.5"/>
<polygon fill="none" stroke="black" points="11,-187.5 11,-205.5 125,-205.5 125,-187.5 11,-187.5"/>
<text text-anchor="start" x="14" y="-194.5" font-family="Courier New" font-weight="bold" font-size="10.00">S04_VIAL::M04_VIAL</text>
<polygon fill="none" stroke="black" points="11,-167.5 11,-185.5 125,-185.5 125,-167.5 11,-167.5"/>
<text text-anchor="start" x="22.99" y="-173.5" font-family="Courier New" font-size="10.00" fill="brown">start state = 0</text>
<polygon fill="none" stroke="black" points="8,-164.5 8,-208.5 128,-208.5 128,-164.5 8,-164.5"/>
</g>
<!-- 0 -->
<g id="node2" class="node">
<title>0</title>
<polyline fill="none" stroke="darkred" points="174,-175.5 188,-175.5"/>
<text text-anchor="start" x="177" y="-182.9" font-family="Courier New" font-weight="bold" font-size="14.00">0</text>
<path fill="none" stroke="darkred" d="M177.67,-172.5C177.67,-172.5 184.33,-172.5 184.33,-172.5 187.67,-172.5 191,-175.83 191,-179.17 191,-179.17 191,-193.83 191,-193.83 191,-197.17 187.67,-200.5 184.33,-200.5 184.33,-200.5 177.67,-200.5 177.67,-200.5 174.33,-200.5 171,-197.17 171,-193.83 171,-193.83 171,-179.17 171,-179.17 171,-175.83 174.33,-172.5 177.67,-172.5"/>
</g>
<!-- 1 -->
<g id="node3" class="node">
<title>1</title>
<polyline fill="none" stroke="darkred" stroke-width="3" points="172.5,-10.5 187.5,-10.5"/>
<text text-anchor="start" x="176" y="-18.4" font-family="Courier New" font-weight="bold" font-size="14.00">1</text>
<path fill="none" stroke="darkred" stroke-width="3" d="M175.83,-5.5C175.83,-5.5 184.17,-5.5 184.17,-5.5 188.33,-5.5 192.5,-9.67 192.5,-13.83 192.5,-13.83 192.5,-30.17 192.5,-30.17 192.5,-34.33 188.33,-38.5 184.17,-38.5 184.17,-38.5 175.83,-38.5 175.83,-38.5 171.67,-38.5 167.5,-34.33 167.5,-30.17 167.5,-30.17 167.5,-13.83 167.5,-13.83 167.5,-9.67 171.67,-5.5 175.83,-5.5"/>
</g>
<!-- 0&#45;&gt;1 -->
<g id="edge1" class="edge">
<title>0&#45;&gt;1</title>
<path fill="none" stroke="black" d="M168.15,-168.66C161.86,-161.41 153.77,-153.39 145,-148 121.64,-133.65 102.31,-152.03 86,-130 68.02,-105.71 69.22,-87.13 86,-62 98.44,-43.37 121.63,-33.62 141.85,-28.54"/>
<polygon fill="black" stroke="black" points="142.51,-31.98 151.53,-26.43 141.01,-25.14 142.51,-31.98"/>
<polygon fill="none" stroke="black" points="89,-103 89,-121 251,-121 251,-103 89,-103"/>
<text text-anchor="start" x="115.99" y="-110" font-family="Courier New" font-weight="bold" font-size="10.00" fill="orange">DRAG(0,IDD_SCOOPF)</text>
<polygon fill="none" stroke="black" points="89,-71 89,-101 251,-101 251,-71 89,-71"/>
<text text-anchor="start" x="92" y="-89" font-family="Courier New" font-size="10.00" fill="blue"> &#160;&#160;&#160;PLAYWAVE(SOUND_SLURP);</text>
<text text-anchor="start" x="92" y="-77" font-family="Courier New" font-size="10.00" fill="blue"> &#160;&#160;&#160;HANDOFF(0,IDD_SCOOPE);</text>
<polygon fill="none" stroke="black" points="86,-68 86,-124 254,-124 254,-68 86,-68"/>
</g>
<!-- 1&#45;&gt;0 -->
<g id="edge2" class="edge">
<title>1&#45;&gt;0</title>
<path fill="none" stroke="black" d="M206.81,-29.53C223.55,-35.14 243.8,-45.09 254,-62 269.61,-87.88 270.03,-104.38 254,-130 244.3,-145.5 231.78,-137.24 217,-148 211.98,-151.65 207.07,-156.05 202.55,-160.52"/>
<polygon fill="black" stroke="black" points="200.34,-157.77 195.98,-167.43 205.41,-162.6 200.34,-157.77"/>
<polygon fill="none" stroke="black" points="268,-109 268,-127 448,-127 448,-109 268,-109"/>
<text text-anchor="start" x="303.99" y="-116" font-family="Courier New" font-weight="bold" font-size="10.00" fill="orange">DRAG(0,IDD_SCOOPF)</text>
<polygon fill="none" stroke="black" points="268,-65 268,-107 448,-107 448,-65 268,-65"/>
<text text-anchor="start" x="271" y="-95" font-family="Courier New" font-size="10.00" fill="blue"> &#160;&#160;&#160;PLAYWAVE(SOUND_SLURP);</text>
<text text-anchor="start" x="271" y="-83" font-family="Courier New" font-size="10.00" fill="blue"> &#160;&#160;&#160;HANDOFF(0,IDD_SCOOPE);</text>
<text text-anchor="start" x="271" y="-71" font-family="Courier New" font-size="10.00" fill="blue"> &#160;&#160;&#160;SIGNAL(S04_BIN,SIG_VEND);</text>
<polygon fill="none" stroke="black" points="265,-62 265,-130 451,-130 451,-62 265,-62"/>
</g>
<!-- status -->
<g id="node4" class="node">
<title>status</title>
<polygon fill="none" stroke="black" points="226,-148.5 226,-224.5 506,-224.5 506,-148.5 226,-148.5"/>
<polygon fill="none" stroke="black" points="237,-199.5 237,-217.5 495,-217.5 495,-199.5 237,-199.5"/>
<text text-anchor="start" x="342" y="-206.5" font-family="Courier New" font-weight="bold" font-size="10.00">S04_VIAL</text>
<polygon fill="none" stroke="black" points="237,-155.5 237,-197.5 495,-197.5 495,-155.5 237,-155.5"/>
<text text-anchor="start" x="240" y="-185.5" font-family="Courier New" font-size="10.00" fill="green">VIEW::IDV_ckeyvend @pos(left:130, top:130)</text>
<text text-anchor="start" x="240" y="-173.5" font-family="Courier New" font-size="10.00" fill="green">S04_VIAL::M04_VIAL(&#39;&#39;,&#39;&#39;,&#39;&#39;,&#39;&#39;)</text>
<text text-anchor="start" x="240" y="-161.5" font-family="Courier New" font-size="10.00" fill="green">{state:&#39;1&#39;:</text>
<polygon fill="none" stroke="black" points="234,-152.5 234,-220.5 498,-220.5 498,-152.5 234,-152.5"/>
</g>
</g>
</svg>
