<?xml version="1.0" encoding="UTF-8" standalone="no"?>
<!DOCTYPE svg PUBLIC "-//W3C//DTD SVG 1.1//EN"
 "http://www.w3.org/Graphics/SVG/1.1/DTD/svg11.dtd">
<!-- Generated by graphviz version 7.1.0 (20230121.1956)
 -->
<!-- Title: Automaton Pages: 1 -->
<svg width="730pt" height="325pt"
 viewBox="0.00 0.00 730.00 325.00" xmlns="http://www.w3.org/2000/svg" xmlns:xlink="http://www.w3.org/1999/xlink">
<g id="graph0" class="graph" transform="scale(1 1) rotate(0) translate(4 321)">
<title>Automaton</title>
<polygon fill="white" stroke="none" points="-4,4 -4,-321 726,-321 726,4 -4,4"/>
<!-- filename -->
<g id="node1" class="node">
<title>filename</title>
<polygon fill="none" stroke="black" points="0,-252.5 0,-304.5 190,-304.5 190,-252.5 0,-252.5"/>
<polygon fill="none" stroke="black" points="11,-279.5 11,-297.5 179,-297.5 179,-279.5 11,-279.5"/>
<text text-anchor="start" x="14" y="-286.5" font-family="Courier New" font-weight="bold" font-size="10.00">S04_REDSLIDER_3::M04_SLIDER</text>
<polygon fill="none" stroke="black" points="11,-259.5 11,-277.5 179,-277.5 179,-259.5 11,-259.5"/>
<text text-anchor="start" x="49.99" y="-265.5" font-family="Courier New" font-size="10.00" fill="brown">start state = 0</text>
<polygon fill="none" stroke="black" points="8,-256.5 8,-300.5 182,-300.5 182,-256.5 8,-256.5"/>
</g>
<!-- 0 -->
<g id="node2" class="node">
<title>0</title>
<polyline fill="none" stroke="darkred" points="228,-267.5 242,-267.5"/>
<text text-anchor="start" x="231" y="-274.9" font-family="Courier New" font-weight="bold" font-size="14.00">0</text>
<path fill="none" stroke="darkred" d="M231.67,-264.5C231.67,-264.5 238.33,-264.5 238.33,-264.5 241.67,-264.5 245,-267.83 245,-271.17 245,-271.17 245,-285.83 245,-285.83 245,-289.17 241.67,-292.5 238.33,-292.5 238.33,-292.5 231.67,-292.5 231.67,-292.5 228.33,-292.5 225,-289.17 225,-285.83 225,-285.83 225,-271.17 225,-271.17 225,-267.83 228.33,-264.5 231.67,-264.5"/>
</g>
<!-- 1 -->
<g id="node3" class="node">
<title>1</title>
<polyline fill="none" stroke="darkred" points="228,-155 242,-155"/>
<text text-anchor="start" x="231" y="-162.4" font-family="Courier New" font-weight="bold" font-size="14.00">1</text>
<path fill="none" stroke="darkred" d="M231.67,-152C231.67,-152 238.33,-152 238.33,-152 241.67,-152 245,-155.33 245,-158.67 245,-158.67 245,-173.33 245,-173.33 245,-176.67 241.67,-180 238.33,-180 238.33,-180 231.67,-180 231.67,-180 228.33,-180 225,-176.67 225,-173.33 225,-173.33 225,-158.67 225,-158.67 225,-155.33 228.33,-152 231.67,-152"/>
</g>
<!-- 0&#45;&gt;1 -->
<g id="edge1" class="edge">
<title>0&#45;&gt;1</title>
<path fill="none" stroke="black" d="M235,-260.72C235,-243.36 235,-215.93 235,-195.23"/>
<polygon fill="black" stroke="black" points="238.5,-195.45 235,-185.45 231.5,-195.45 238.5,-195.45"/>
<text text-anchor="start" x="239" y="-210" font-family="Courier New" font-weight="bold" font-size="10.00" fill="blue">MOV(WSPRITE,WIP1)</text>
</g>
<!-- idle -->
<g id="node4" class="node">
<title>idle</title>
<polyline fill="none" stroke="darkred" stroke-width="3" points="215.5,-10.5 255.5,-10.5"/>
<text text-anchor="start" x="219" y="-18.4" font-family="Courier New" font-weight="bold" font-size="14.00">idle</text>
<path fill="none" stroke="darkred" stroke-width="3" d="M221,-5.5C221,-5.5 249,-5.5 249,-5.5 254.5,-5.5 260,-11 260,-16.5 260,-16.5 260,-27.5 260,-27.5 260,-33 254.5,-38.5 249,-38.5 249,-38.5 221,-38.5 221,-38.5 215.5,-38.5 210,-33 210,-27.5 210,-27.5 210,-16.5 210,-16.5 210,-11 215.5,-5.5 221,-5.5"/>
</g>
<!-- 1&#45;&gt;idle -->
<g id="edge2" class="edge">
<title>1&#45;&gt;idle</title>
<path fill="none" stroke="black" d="M208.21,-164.56C157.75,-163.09 51.64,-156.82 29,-130 9.5,-106.91 9.72,-85.27 29,-62 48.96,-37.91 134.98,-28.59 189.36,-25.06"/>
<polygon fill="black" stroke="black" points="189.5,-28.56 199.27,-24.47 189.08,-21.57 189.5,-28.56"/>
<text text-anchor="start" x="33" y="-94" font-family="Courier New" font-weight="bold" font-size="10.00" fill="blue">SHOW(WSPRITE,)</text>
</g>
<!-- idle&#45;&gt;1 -->
<g id="edge3" class="edge">
<title>idle&#45;&gt;1</title>
<path fill="none" stroke="black" d="M200.88,-28.14C180.65,-33.13 156.58,-42.92 144,-62 127.36,-87.23 126.89,-105.09 144,-130 155.88,-147.3 177.59,-156.05 196.83,-160.48"/>
<polygon fill="black" stroke="black" points="196.11,-163.9 206.59,-162.38 197.45,-157.03 196.11,-163.9"/>
<polygon fill="none" stroke="black" points="147,-109 147,-127 303,-127 303,-109 147,-109"/>
<text text-anchor="start" x="201" y="-116" font-family="Courier New" font-weight="bold" font-size="10.00" fill="orange">CLICK(,)</text>
<polygon fill="none" stroke="black" points="147,-65 147,-107 303,-107 303,-65 147,-65"/>
<text text-anchor="start" x="150" y="-95" font-family="Courier New" font-size="10.00" fill="blue">BFRAME = BFRAME + 1;</text>
<text text-anchor="start" x="150" y="-83" font-family="Courier New" font-size="10.00" fill="blue">if (BFRAME &gt; 3) BFRAME=0;</text>
<text text-anchor="start" x="150" y="-71" font-family="Courier New" font-size="10.00" fill="blue">SIGNAL(WIP2);</text>
<polygon fill="none" stroke="black" points="144,-62 144,-130 306,-130 306,-62 144,-62"/>
</g>
<!-- idle&#45;&gt;1 -->
<g id="edge4" class="edge">
<title>idle&#45;&gt;1</title>
<path fill="none" stroke="black" d="M269.14,-33.11C283.13,-39.12 297.91,-48.32 306,-62 321.39,-88.01 321.96,-104.34 306,-130 298.46,-142.13 285.34,-150.17 272.42,-155.46"/>
<polygon fill="black" stroke="black" points="271.4,-152.1 263.16,-158.76 273.76,-158.7 271.4,-152.1"/>
<polygon fill="none" stroke="black" points="320,-109 320,-127 476,-127 476,-109 320,-109"/>
<text text-anchor="start" x="352.99" y="-116" font-family="Courier New" font-weight="bold" font-size="10.00" fill="orange">WAIT(,SIG_SHOW)</text>
<polygon fill="none" stroke="black" points="320,-65 320,-107 476,-107 476,-65 320,-65"/>
<text text-anchor="start" x="323" y="-95" font-family="Courier New" font-size="10.00" fill="blue">REF_MACHINE(WIP2);</text>
<text text-anchor="start" x="323" y="-83" font-family="Courier New" font-size="10.00" fill="blue">BFRAME= (R_WPARM / WIP3);</text>
<text text-anchor="start" x="323" y="-71" font-family="Courier New" font-size="10.00" fill="blue">MOD(BFRAME,4);</text>
<polygon fill="none" stroke="black" points="317,-62 317,-130 479,-130 479,-62 317,-62"/>
</g>
<!-- idle&#45;&gt;1 -->
<g id="edge5" class="edge">
<title>idle&#45;&gt;1</title>
<path fill="none" stroke="black" d="M269.13,-23.14C330.56,-24.19 455.88,-30.28 483,-62 502.64,-84.97 502.82,-107.19 483,-130 456.28,-160.76 335.76,-165.24 273.1,-165.43"/>
<polygon fill="black" stroke="black" points="273.27,-161.93 263.26,-165.42 273.26,-168.93 273.27,-161.93"/>
<polygon fill="none" stroke="black" points="500,-97 500,-115 596,-115 596,-97 500,-97"/>
<text text-anchor="start" x="503" y="-104" font-family="Courier New" font-weight="bold" font-size="10.00" fill="orange">WAIT(,SIG_HIDE)</text>
<polygon fill="none" stroke="black" points="500,-77 500,-95 596,-95 596,-77 500,-77"/>
<text text-anchor="start" x="521" y="-83" font-family="Courier New" font-size="10.00" fill="blue">BFRAME=0;</text>
<polygon fill="none" stroke="black" points="497,-74 497,-118 599,-118 599,-74 497,-74"/>
</g>
<!-- status -->
<g id="node5" class="node">
<title>status</title>
<polygon fill="none" stroke="black" points="280,-240.5 280,-316.5 722,-316.5 722,-240.5 280,-240.5"/>
<polygon fill="none" stroke="black" points="291,-291.5 291,-309.5 711,-309.5 711,-291.5 291,-291.5"/>
<text text-anchor="start" x="455.99" y="-298.5" font-family="Courier New" font-weight="bold" font-size="10.00">S04_REDSLIDER_3</text>
<polygon fill="none" stroke="black" points="291,-247.5 291,-289.5 711,-289.5 711,-247.5 291,-247.5"/>
<text text-anchor="start" x="294" y="-277.5" font-family="Courier New" font-size="10.00" fill="green">VIEW::IDV_ckeycf03 @pos(left:78, top:103)</text>
<text text-anchor="start" x="294" y="-265.5" font-family="Courier New" font-size="10.00" fill="green">S04_REDSLIDER_3::M04_SLIDER(&#39;IDS_RED_SLIDE&#39;,&#39;S04_KEYCLAMP_3&#39;,&#39;16&#39;,&#39;&#39;)</text>
<text text-anchor="start" x="294" y="-253.5" font-family="Courier New" font-size="10.00" fill="green">{state:&#39;idle&#39;: wSprite:IDS_RED_SLIDE</text>
<polygon fill="none" stroke="black" points="288,-244.5 288,-312.5 714,-312.5 714,-244.5 288,-244.5"/>
</g>
</g>
</svg>
