<?xml version="1.0" encoding="UTF-8" standalone="no"?>
<!DOCTYPE svg PUBLIC "-//W3C//DTD SVG 1.1//EN"
 "http://www.w3.org/Graphics/SVG/1.1/DTD/svg11.dtd">
<!-- Generated by graphviz version 7.1.0 (20230121.1956)
 -->
<!-- Title: Automaton Pages: 1 -->
<svg width="670pt" height="88pt"
 viewBox="0.00 0.00 670.00 88.00" xmlns="http://www.w3.org/2000/svg" xmlns:xlink="http://www.w3.org/1999/xlink">
<g id="graph0" class="graph" transform="scale(1 1) rotate(0) translate(4 84)">
<title>Automaton</title>
<polygon fill="white" stroke="none" points="-4,4 -4,-84 666,-84 666,4 -4,4"/>
<!-- filename -->
<g id="node1" class="node">
<title>filename</title>
<polygon fill="none" stroke="black" points="0,-14 0,-66 136,-66 136,-14 0,-14"/>
<polygon fill="none" stroke="black" points="11,-41 11,-59 125,-59 125,-41 11,-41"/>
<text text-anchor="start" x="14" y="-48" font-family="Courier New" font-weight="bold" font-size="10.00">S05_NUM1::M05_NUM1</text>
<polygon fill="none" stroke="black" points="11,-21 11,-39 125,-39 125,-21 11,-21"/>
<text text-anchor="start" x="22.99" y="-27" font-family="Courier New" font-size="10.00" fill="brown">start state = 0</text>
<polygon fill="none" stroke="black" points="8,-18 8,-62 128,-62 128,-18 8,-18"/>
</g>
<!-- 0 -->
<g id="node2" class="node">
<title>0</title>
<polyline fill="none" stroke="darkred" stroke-width="3" points="173.5,-28.5 188.5,-28.5"/>
<text text-anchor="start" x="177" y="-36.4" font-family="Courier New" font-weight="bold" font-size="14.00">0</text>
<path fill="none" stroke="darkred" stroke-width="3" d="M176.83,-23.5C176.83,-23.5 185.17,-23.5 185.17,-23.5 189.33,-23.5 193.5,-27.67 193.5,-31.83 193.5,-31.83 193.5,-48.17 193.5,-48.17 193.5,-52.33 189.33,-56.5 185.17,-56.5 185.17,-56.5 176.83,-56.5 176.83,-56.5 172.67,-56.5 168.5,-52.33 168.5,-48.17 168.5,-48.17 168.5,-31.83 168.5,-31.83 168.5,-27.67 172.67,-23.5 176.83,-23.5"/>
</g>
<!-- 0&#45;&gt;0 -->
<g id="edge1" class="edge">
<title>0&#45;&gt;0</title>
<path fill="none" stroke="black" d="M207.79,-48.23C217.78,-48.5 226,-45.76 226,-40 226,-36.67 223.25,-34.35 219.01,-33.04"/>
<polygon fill="black" stroke="black" points="219.63,-29.58 209.3,-31.94 218.84,-36.54 219.63,-29.58"/>
<polygon fill="none" stroke="black" points="229,-59 229,-77 379,-77 379,-59 229,-59"/>
<text text-anchor="start" x="252.99" y="-66" font-family="Courier New" font-weight="bold" font-size="10.00" fill="orange">WAIT(SIG_UPDATE,)</text>
<polygon fill="none" stroke="black" points="229,-3 229,-57 379,-57 379,-3 229,-3"/>
<text text-anchor="start" x="232" y="-45" font-family="Courier New" font-size="10.00" fill="blue"> &#160;&#160;&#160;REF_MACHINE(WIP1);</text>
<text text-anchor="start" x="232" y="-33" font-family="Courier New" font-size="10.00" fill="blue"> &#160;&#160;&#160;MOV(BFRAME,R_BPARM);</text>
<text text-anchor="start" x="232" y="-21" font-family="Courier New" font-size="10.00" fill="blue"> &#160;&#160;&#160;MODI(BFRAME,10);</text>
<text text-anchor="start" x="232" y="-9" font-family="Courier New" font-size="10.00" fill="blue"> &#160;&#160;&#160;SHOW(0,IDS_CITYNUM);</text>
<polygon fill="none" stroke="black" points="226,0 226,-80 382,-80 382,0 226,0"/>
</g>
<!-- status -->
<g id="node3" class="node">
<title>status</title>
<polygon fill="none" stroke="black" points="400,-2 400,-78 662,-78 662,-2 400,-2"/>
<polygon fill="none" stroke="black" points="411,-53 411,-71 651,-71 651,-53 411,-53"/>
<text text-anchor="start" x="507" y="-60" font-family="Courier New" font-weight="bold" font-size="10.00">S05_NUM1</text>
<polygon fill="none" stroke="black" points="411,-9 411,-51 651,-51 651,-9 411,-9"/>
<text text-anchor="start" x="414" y="-39" font-family="Courier New" font-size="10.00" fill="green">VIEW::IDV_chempan</text>
<text text-anchor="start" x="414" y="-27" font-family="Courier New" font-size="10.00" fill="green">S05_NUM1::M05_NUM1(&#39;S05_VIAL&#39;,&#39;&#39;,&#39;&#39;,&#39;&#39;)</text>
<text text-anchor="start" x="414" y="-15" font-family="Courier New" font-size="10.00" fill="green">{&#39;0&#39;: bFrame:1</text>
<polygon fill="none" stroke="black" points="408,-6 408,-74 654,-74 654,-6 408,-6"/>
</g>
</g>
</svg>
