<?xml version="1.0" encoding="UTF-8" standalone="no"?>
<!DOCTYPE svg PUBLIC "-//W3C//DTD SVG 1.1//EN"
 "http://www.w3.org/Graphics/SVG/1.1/DTD/svg11.dtd">
<!-- Generated by graphviz version 7.1.0 (20230121.1956)
 -->
<!-- Title: Automaton Pages: 1 -->
<svg width="844pt" height="261pt"
 viewBox="0.00 0.00 844.00 261.00" xmlns="http://www.w3.org/2000/svg" xmlns:xlink="http://www.w3.org/1999/xlink">
<g id="graph0" class="graph" transform="scale(1 1) rotate(0) translate(4 257)">
<title>Automaton</title>
<polygon fill="white" stroke="none" points="-4,4 -4,-257 840,-257 840,4 -4,4"/>
<!-- filename -->
<g id="node1" class="node">
<title>filename</title>
<polygon fill="none" stroke="black" points="0,-188.5 0,-240.5 280,-240.5 280,-188.5 0,-188.5"/>
<polygon fill="none" stroke="black" points="11,-215.5 11,-233.5 269,-233.5 269,-215.5 11,-215.5"/>
<text text-anchor="start" x="14" y="-222.5" font-family="Courier New" font-weight="bold" font-size="10.00">S06_CARD_EJECT_ANIM_1::M06_EJECT_CARD_ANIM</text>
<polygon fill="none" stroke="black" points="11,-195.5 11,-213.5 269,-213.5 269,-195.5 11,-195.5"/>
<text text-anchor="start" x="94.99" y="-201.5" font-family="Courier New" font-size="10.00" fill="brown">start state = 0</text>
<polygon fill="none" stroke="black" points="8,-192.5 8,-236.5 272,-236.5 272,-192.5 8,-192.5"/>
</g>
<!-- 0 -->
<g id="node2" class="node">
<title>0</title>
<polyline fill="none" stroke="darkred" stroke-width="3" points="317.5,-203 332.5,-203"/>
<text text-anchor="start" x="321" y="-210.9" font-family="Courier New" font-weight="bold" font-size="14.00">0</text>
<path fill="none" stroke="darkred" stroke-width="3" d="M320.83,-198C320.83,-198 329.17,-198 329.17,-198 333.33,-198 337.5,-202.17 337.5,-206.33 337.5,-206.33 337.5,-222.67 337.5,-222.67 337.5,-226.83 333.33,-231 329.17,-231 329.17,-231 320.83,-231 320.83,-231 316.67,-231 312.5,-226.83 312.5,-222.67 312.5,-222.67 312.5,-206.33 312.5,-206.33 312.5,-202.17 316.67,-198 320.83,-198"/>
</g>
<!-- 20 -->
<g id="node3" class="node">
<title>20</title>
<polyline fill="none" stroke="darkred" points="313,-7 335,-7"/>
<text text-anchor="start" x="316" y="-14.4" font-family="Courier New" font-weight="bold" font-size="14.00">20</text>
<path fill="none" stroke="darkred" d="M319.33,-4C319.33,-4 328.67,-4 328.67,-4 333.33,-4 338,-8.67 338,-13.33 338,-13.33 338,-22.67 338,-22.67 338,-27.33 333.33,-32 328.67,-32 328.67,-32 319.33,-32 319.33,-32 314.67,-32 310,-27.33 310,-22.67 310,-22.67 310,-13.33 310,-13.33 310,-8.67 314.67,-4 319.33,-4"/>
</g>
<!-- 0&#45;&gt;20 -->
<g id="edge1" class="edge">
<title>0&#45;&gt;20</title>
<path fill="none" stroke="black" d="M308.78,-192.63C303.11,-186.5 296.31,-180.31 289,-176 262.06,-160.13 240.07,-182.77 221,-158 192.81,-121.37 194.08,-91.58 221,-54 235.77,-33.38 263.39,-24.76 286.32,-21.23"/>
<polygon fill="black" stroke="black" points="286.46,-24.74 295.95,-20.03 285.59,-17.79 286.46,-24.74"/>
<polygon fill="none" stroke="black" points="224,-137 224,-155 404,-155 404,-137 224,-137"/>
<text text-anchor="start" x="265.99" y="-144" font-family="Courier New" font-weight="bold" font-size="10.00" fill="orange">WAIT(,SIG_EJECT)</text>
<polygon fill="none" stroke="black" points="224,-57 224,-135 404,-135 404,-57 224,-57"/>
<text text-anchor="start" x="227" y="-123" font-family="Courier New" font-size="10.00" fill="blue">SHOW(0,IDS_CARDANI);</text>
<text text-anchor="start" x="227" y="-111" font-family="Courier New" font-size="10.00" fill="blue">ANIMATE(0);</text>
<text text-anchor="start" x="227" y="-99" font-family="Courier New" font-size="10.00" fill="blue">PLAYWAVE(SOUND_CARDEJECT);</text>
<text text-anchor="start" x="227" y="-87" font-family="Courier New" font-size="10.00" fill="blue">REF_MACHINE(WIP1);</text>
<text text-anchor="start" x="227" y="-75" font-family="Courier New" font-size="10.00" fill="blue">WOBJECT=R_WPARM;</text>
<text text-anchor="start" x="227" y="-63" font-family="Courier New" font-size="10.00" fill="blue">MAPi(WOBJECT,S06_CARD_INDEX);</text>
<polygon fill="none" stroke="black" points="221,-54 221,-158 407,-158 407,-54 221,-54"/>
</g>
<!-- 20&#45;&gt;0 -->
<g id="edge2" class="edge">
<title>20&#45;&gt;0</title>
<path fill="none" stroke="black" d="M350.61,-22.46C369.84,-26.51 394.55,-35.24 407,-54 432.56,-92.51 433.06,-119.82 407,-158 394.62,-176.13 379.25,-163.8 361,-176 357.23,-178.52 353.54,-181.5 350.07,-184.66"/>
<polygon fill="black" stroke="black" points="347.63,-182.15 342.97,-191.67 352.55,-187.13 347.63,-182.15"/>
<polygon fill="none" stroke="black" points="429,-107 429,-125 579,-125 579,-107 429,-107"/>
<text text-anchor="start" x="461.99" y="-114" font-family="Courier New" font-weight="bold" font-size="10.00" fill="orange">GRAB(WOBJECT,)</text>
<polygon fill="none" stroke="black" points="429,-87 429,-105 579,-105 579,-87 429,-87"/>
<text text-anchor="start" x="432" y="-93" font-family="Courier New" font-size="10.00" fill="blue">CLEAR(WSPRITE); SHOW(0);</text>
<polygon fill="none" stroke="black" points="426,-84 426,-128 582,-128 582,-84 426,-84"/>
</g>
<!-- status -->
<g id="node4" class="node">
<title>status</title>
<polygon fill="none" stroke="black" points="370,-176.5 370,-252.5 836,-252.5 836,-176.5 370,-176.5"/>
<polygon fill="none" stroke="black" points="381,-227.5 381,-245.5 825,-245.5 825,-227.5 381,-227.5"/>
<text text-anchor="start" x="539.99" y="-234.5" font-family="Courier New" font-weight="bold" font-size="10.00">S06_CARD_EJECT_ANIM_1</text>
<polygon fill="none" stroke="black" points="381,-183.5 381,-225.5 825,-225.5 825,-183.5 381,-183.5"/>
<text text-anchor="start" x="384" y="-213.5" font-family="Courier New" font-size="10.00" fill="green">VIEW::IDV_CARDMACH1 @pos(left:293, top:225)</text>
<text text-anchor="start" x="384" y="-201.5" font-family="Courier New" font-size="10.00" fill="green">S06_CARD_EJECT_ANIM_1::M06_EJECT_CARD_ANIM(&#39;S06_CYCLE_VIEWER_1&#39;,&#39;&#39;,&#39;&#39;,&#39;&#39;)</text>
<text text-anchor="start" x="384" y="-189.5" font-family="Courier New" font-size="10.00" fill="green">{&#39;0&#39;: wObject:IDD_CARD00 bFrame:9</text>
<polygon fill="none" stroke="black" points="378,-180.5 378,-248.5 828,-248.5 828,-180.5 378,-180.5"/>
</g>
</g>
</svg>
