<?xml version="1.0" encoding="UTF-8" standalone="no"?>
<!DOCTYPE svg PUBLIC "-//W3C//DTD SVG 1.1//EN"
 "http://www.w3.org/Graphics/SVG/1.1/DTD/svg11.dtd">
<!-- Generated by graphviz version 7.1.0 (20230121.1956)
 -->
<!-- Title: Automaton Pages: 1 -->
<svg width="1144pt" height="85pt"
 viewBox="0.00 0.00 1144.00 85.00" xmlns="http://www.w3.org/2000/svg" xmlns:xlink="http://www.w3.org/1999/xlink">
<g id="graph0" class="graph" transform="scale(1 1) rotate(0) translate(4 81)">
<title>Automaton</title>
<polygon fill="white" stroke="none" points="-4,4 -4,-81 1140,-81 1140,4 -4,4"/>
<!-- filename -->
<g id="node1" class="node">
<title>filename</title>
<polygon fill="none" stroke="black" points="0,-12.5 0,-64.5 268,-64.5 268,-12.5 0,-12.5"/>
<polygon fill="none" stroke="black" points="11,-39.5 11,-57.5 257,-57.5 257,-39.5 11,-39.5"/>
<text text-anchor="start" x="14" y="-46.5" font-family="Courier New" font-weight="bold" font-size="10.00">S06_CARD_EJECT_BTN_1::M06_EJECT_CARD_BTN</text>
<polygon fill="none" stroke="black" points="11,-19.5 11,-37.5 257,-37.5 257,-19.5 11,-19.5"/>
<text text-anchor="start" x="88.99" y="-25.5" font-family="Courier New" font-size="10.00" fill="brown">start state = 0</text>
<polygon fill="none" stroke="black" points="8,-16.5 8,-60.5 260,-60.5 260,-16.5 8,-16.5"/>
</g>
<!-- 0 -->
<g id="node2" class="node">
<title>0</title>
<polyline fill="none" stroke="darkred" stroke-width="3" points="305.5,-27 320.5,-27"/>
<text text-anchor="start" x="309" y="-34.9" font-family="Courier New" font-weight="bold" font-size="14.00">0</text>
<path fill="none" stroke="darkred" stroke-width="3" d="M308.83,-22C308.83,-22 317.17,-22 317.17,-22 321.33,-22 325.5,-26.17 325.5,-30.33 325.5,-30.33 325.5,-46.67 325.5,-46.67 325.5,-50.83 321.33,-55 317.17,-55 317.17,-55 308.83,-55 308.83,-55 304.67,-55 300.5,-50.83 300.5,-46.67 300.5,-46.67 300.5,-30.33 300.5,-30.33 300.5,-26.17 304.67,-22 308.83,-22"/>
</g>
<!-- 0&#45;&gt;0 -->
<g id="edge1" class="edge">
<title>0&#45;&gt;0</title>
<path fill="none" stroke="black" d="M339.79,-46.73C349.78,-47 358,-44.26 358,-38.5 358,-35.17 355.25,-32.85 351.01,-31.54"/>
<polygon fill="black" stroke="black" points="351.63,-28.08 341.3,-30.44 350.84,-35.04 351.63,-28.08"/>
<polygon fill="none" stroke="black" points="361,-39.5 361,-57.5 643,-57.5 643,-39.5 361,-39.5"/>
<text text-anchor="start" x="478" y="-46.5" font-family="Courier New" font-weight="bold" font-size="10.00" fill="orange">CLICK(,)</text>
<polygon fill="none" stroke="black" points="361,-19.5 361,-37.5 643,-37.5 643,-19.5 361,-19.5"/>
<text text-anchor="start" x="364" y="-25.5" font-family="Courier New" font-size="10.00" fill="blue">PLAYWAVE(SOUND_CLICK);SIGNAL(WIP1, SIG_EJECT);</text>
<polygon fill="none" stroke="black" points="358,-16.5 358,-60.5 646,-60.5 646,-16.5 358,-16.5"/>
</g>
<!-- status -->
<g id="node3" class="node">
<title>status</title>
<polygon fill="none" stroke="black" points="664,-0.5 664,-76.5 1136,-76.5 1136,-0.5 664,-0.5"/>
<polygon fill="none" stroke="black" points="675,-51.5 675,-69.5 1125,-69.5 1125,-51.5 675,-51.5"/>
<text text-anchor="start" x="839.99" y="-58.5" font-family="Courier New" font-weight="bold" font-size="10.00">S06_CARD_EJECT_BTN_1</text>
<polygon fill="none" stroke="black" points="675,-7.5 675,-49.5 1125,-49.5 1125,-7.5 675,-7.5"/>
<text text-anchor="start" x="678" y="-37.5" font-family="Courier New" font-size="10.00" fill="green">VIEW::IDV_CARDMACH1 @pos(left:305, top:206)</text>
<text text-anchor="start" x="678" y="-25.5" font-family="Courier New" font-size="10.00" fill="green">S06_CARD_EJECT_BTN_1::M06_EJECT_CARD_BTN(&#39;S06_CARD_EJECT_ANIM_1&#39;,&#39;&#39;,&#39;&#39;,&#39;&#39;)</text>
<text text-anchor="start" x="678" y="-13.5" font-family="Courier New" font-size="10.00" fill="green">{&#39;0&#39;:</text>
<polygon fill="none" stroke="black" points="672,-4.5 672,-72.5 1128,-72.5 1128,-4.5 672,-4.5"/>
</g>
</g>
</svg>
