<?xml version="1.0" encoding="UTF-8" standalone="no"?>
<!DOCTYPE svg PUBLIC "-//W3C//DTD SVG 1.1//EN"
 "http://www.w3.org/Graphics/SVG/1.1/DTD/svg11.dtd">
<!-- Generated by graphviz version 7.1.0 (20230121.1956)
 -->
<!-- Title: Automaton Pages: 1 -->
<svg width="926pt" height="237pt"
 viewBox="0.00 0.00 925.63 237.00" xmlns="http://www.w3.org/2000/svg" xmlns:xlink="http://www.w3.org/1999/xlink">
<g id="graph0" class="graph" transform="scale(1 1) rotate(0) translate(4 233)">
<title>Automaton</title>
<polygon fill="white" stroke="none" points="-4,4 -4,-233 921.63,-233 921.63,4 -4,4"/>
<!-- filename -->
<g id="node1" class="node">
<title>filename</title>
<polygon fill="none" stroke="black" points="15.63,-164.5 15.63,-216.5 187.63,-216.5 187.63,-164.5 15.63,-164.5"/>
<polygon fill="none" stroke="black" points="26.63,-191.5 26.63,-209.5 176.63,-209.5 176.63,-191.5 26.63,-191.5"/>
<text text-anchor="start" x="29.63" y="-198.5" font-family="Courier New" font-weight="bold" font-size="10.00">S08_HOPPER_1::M08_HOPPER</text>
<polygon fill="none" stroke="black" points="26.63,-171.5 26.63,-189.5 176.63,-189.5 176.63,-171.5 26.63,-171.5"/>
<text text-anchor="start" x="56.63" y="-177.5" font-family="Courier New" font-size="10.00" fill="brown">start state = 0</text>
<polygon fill="none" stroke="black" points="23.63,-168.5 23.63,-212.5 179.63,-212.5 179.63,-168.5 23.63,-168.5"/>
</g>
<!-- 0 -->
<g id="node2" class="node">
<title>0</title>
<polyline fill="none" stroke="darkred" stroke-width="3" points="225.13,-179 240.13,-179"/>
<text text-anchor="start" x="228.63" y="-186.9" font-family="Courier New" font-weight="bold" font-size="14.00">0</text>
<path fill="none" stroke="darkred" stroke-width="3" d="M228.47,-174C228.47,-174 236.8,-174 236.8,-174 240.97,-174 245.13,-178.17 245.13,-182.33 245.13,-182.33 245.13,-198.67 245.13,-198.67 245.13,-202.83 240.97,-207 236.8,-207 236.8,-207 228.47,-207 228.47,-207 224.3,-207 220.13,-202.83 220.13,-198.67 220.13,-198.67 220.13,-182.33 220.13,-182.33 220.13,-178.17 224.3,-174 228.47,-174"/>
</g>
<!-- 0&#45;&gt;0 -->
<g id="edge1" class="edge">
<title>0&#45;&gt;0</title>
<path fill="none" stroke="black" d="M259.43,-208.55C269.41,-209.15 277.63,-203.13 277.63,-190.5 277.63,-183 274.73,-177.83 270.29,-175"/>
<polygon fill="black" stroke="black" points="271.44,-171.67 260.9,-172.79 269.84,-178.49 271.44,-171.67"/>
<polygon fill="none" stroke="black" points="280.63,-203.5 280.63,-221.5 448.63,-221.5 448.63,-203.5 280.63,-203.5"/>
<text text-anchor="start" x="310.62" y="-210.5" font-family="Courier New" font-weight="bold" font-size="10.00" fill="orange">DRAG(0,IDD_SCOOPF)</text>
<polygon fill="none" stroke="black" points="280.63,-159.5 280.63,-201.5 448.63,-201.5 448.63,-159.5 280.63,-159.5"/>
<text text-anchor="start" x="283.63" y="-189.5" font-family="Courier New" font-size="10.00" fill="blue"> &#160;&#160;&#160;HANDOFF(0,IDD_SCOOPE);</text>
<text text-anchor="start" x="283.63" y="-177.5" font-family="Courier New" font-size="10.00" fill="blue"> &#160;&#160;&#160;PLAYWAVE(0,SOUND_SPIT);</text>
<text text-anchor="start" x="283.63" y="-165.5" font-family="Courier New" font-size="10.00" fill="blue"> &#160;&#160;&#160;ADDI(BPARM,1);</text>
<polygon fill="none" stroke="black" points="277.63,-156.5 277.63,-224.5 451.63,-224.5 451.63,-156.5 277.63,-156.5"/>
</g>
<!-- 10 -->
<g id="node3" class="node">
<title>10</title>
<polyline fill="none" stroke="darkred" points="221.63,-7 243.63,-7"/>
<text text-anchor="start" x="224.63" y="-14.4" font-family="Courier New" font-weight="bold" font-size="14.00">10</text>
<path fill="none" stroke="darkred" d="M227.97,-4C227.97,-4 237.3,-4 237.3,-4 241.97,-4 246.63,-8.67 246.63,-13.33 246.63,-13.33 246.63,-22.67 246.63,-22.67 246.63,-27.33 241.97,-32 237.3,-32 237.3,-32 227.97,-32 227.97,-32 223.3,-32 218.63,-27.33 218.63,-22.67 218.63,-22.67 218.63,-13.33 218.63,-13.33 218.63,-8.67 223.3,-4 227.97,-4"/>
</g>
<!-- 0&#45;&gt;10 -->
<g id="edge2" class="edge">
<title>0&#45;&gt;10</title>
<path fill="none" stroke="black" d="M217.51,-168.7C211.72,-162.27 204.58,-155.87 196.63,-152 160.69,-134.5 44.45,-163.65 17.63,-134 -6.22,-107.63 -5.4,-81.09 17.63,-54 39.89,-27.83 138.83,-21.18 194.41,-19.52"/>
<polygon fill="black" stroke="black" points="194.48,-23.02 204.38,-19.27 194.3,-16.02 194.48,-23.02"/>
<text text-anchor="start" x="21.63" y="-92" font-family="Courier New" font-weight="bold" font-size="10.00" fill="orange">DRAG(0,IDD_SCOOPE)</text>
</g>
<!-- 0&#45;&gt;10 -->
<g id="edge3" class="edge">
<title>0&#45;&gt;10</title>
<path fill="none" stroke="black" d="M215.22,-168.55C209.69,-162.71 203.27,-156.68 196.63,-152 180.7,-140.76 167.22,-150.37 156.63,-134 137.33,-104.14 137.46,-83.94 156.63,-54 165.25,-40.55 180.49,-32.19 195.07,-27.04"/>
<polygon fill="black" stroke="black" points="195.99,-30.42 204.52,-24.14 193.93,-23.73 195.99,-30.42"/>
<polygon fill="none" stroke="black" points="159.63,-95 159.63,-113 285.63,-113 285.63,-95 159.63,-95"/>
<text text-anchor="start" x="174.62" y="-102" font-family="Courier New" font-weight="bold" font-size="10.00" fill="orange">WAIT(,SIG_CLEAR)</text>
<polygon fill="none" stroke="black" points="159.63,-75 159.63,-93 285.63,-93 285.63,-75 159.63,-75"/>
<text text-anchor="start" x="162.63" y="-81" font-family="Courier New" font-size="10.00" fill="blue"> &#160;&#160;&#160;ASSIGN(BPARM,0);</text>
<polygon fill="none" stroke="black" points="156.63,-72 156.63,-116 288.63,-116 288.63,-72 156.63,-72"/>
</g>
<!-- 10&#45;&gt;0 -->
<g id="edge4" class="edge">
<title>10&#45;&gt;0</title>
<path fill="none" stroke="black" d="M259.36,-28.81C270.5,-34.38 282.3,-42.57 288.63,-54 305.87,-85.1 302.31,-101.18 288.63,-134 284.09,-144.9 276.25,-154.75 267.85,-163.03"/>
<polygon fill="black" stroke="black" points="265.52,-160.42 260.49,-169.74 270.24,-165.59 265.52,-160.42"/>
<text text-anchor="start" x="303.63" y="-92" font-family="Courier New" font-weight="bold" font-size="10.00" fill="blue">LTEi(BPARM,0)</text>
</g>
<!-- 10&#45;&gt;0 -->
<g id="edge5" class="edge">
<title>10&#45;&gt;0</title>
<path fill="none" stroke="black" d="M259.42,-21.02C299.89,-24.69 373.61,-34.01 389.63,-54 411.87,-81.74 410.16,-104.97 389.63,-134 362.9,-171.81 308.16,-184.03 270.93,-187.88"/>
<polygon fill="black" stroke="black" points="270.68,-184.39 261.02,-188.73 271.28,-191.37 270.68,-184.39"/>
<polygon fill="none" stroke="black" points="408.63,-113 408.63,-131 582.63,-131 582.63,-113 408.63,-113"/>
<text text-anchor="start" x="459.63" y="-120" font-family="Courier New" font-weight="bold" font-size="10.00" fill="blue">Z_EPSILON(,)</text>
<polygon fill="none" stroke="black" points="408.63,-57 408.63,-111 582.63,-111 582.63,-57 408.63,-57"/>
<text text-anchor="start" x="411.63" y="-99" font-family="Courier New" font-size="10.00" fill="blue"> &#160;&#160;&#160;HANDOFF(0,IDD_SCOOPF);</text>
<text text-anchor="start" x="411.63" y="-87" font-family="Courier New" font-size="10.00" fill="blue"> &#160;&#160;&#160;PLAYWAVE(0,SOUND_SLURP);</text>
<text text-anchor="start" x="411.63" y="-75" font-family="Courier New" font-size="10.00" fill="blue"> &#160;&#160;&#160;SUBI(BPARM,1);</text>
<text text-anchor="start" x="411.63" y="-63" font-family="Courier New" font-size="10.00" fill="blue"> &#160;&#160;&#160;</text>
<polygon fill="none" stroke="black" points="405.63,-54 405.63,-134 585.63,-134 585.63,-54 405.63,-54"/>
</g>
<!-- status -->
<g id="node4" class="node">
<title>status</title>
<polygon fill="none" stroke="black" points="469.63,-152.5 469.63,-228.5 917.63,-228.5 917.63,-152.5 469.63,-152.5"/>
<polygon fill="none" stroke="black" points="480.63,-203.5 480.63,-221.5 906.63,-221.5 906.63,-203.5 480.63,-203.5"/>
<text text-anchor="start" x="657.63" y="-210.5" font-family="Courier New" font-weight="bold" font-size="10.00">S08_HOPPER_1</text>
<polygon fill="none" stroke="black" points="480.63,-159.5 480.63,-201.5 906.63,-201.5 906.63,-159.5 480.63,-159.5"/>
<text text-anchor="start" x="483.63" y="-189.5" font-family="Courier New" font-size="10.00" fill="green">VIEW::IDV_MANREP1 @pos(left:167, top:247)</text>
<text text-anchor="start" x="483.63" y="-177.5" font-family="Courier New" font-size="10.00" fill="green">S08_HOPPER_1::M08_HOPPER(&#39;S08_CARDHOLD_1&#39;,&#39;S08_BIN_1&#39;,&#39;S08_BEEM_1&#39;,&#39;&#39;)</text>
<text text-anchor="start" x="483.63" y="-165.5" font-family="Courier New" font-size="10.00" fill="green">{state:&#39;0&#39;:</text>
<polygon fill="none" stroke="black" points="477.63,-156.5 477.63,-224.5 909.63,-224.5 909.63,-156.5 477.63,-156.5"/>
</g>
</g>
</svg>
