<?xml version="1.0" encoding="UTF-8" standalone="no"?>
<!DOCTYPE svg PUBLIC "-//W3C//DTD SVG 1.1//EN"
 "http://www.w3.org/Graphics/SVG/1.1/DTD/svg11.dtd">
<!-- Generated by graphviz version 7.1.0 (20230121.1956)
 -->
<!-- Title: Automaton Pages: 1 -->
<svg width="514pt" height="177pt"
 viewBox="0.00 0.00 514.00 177.00" xmlns="http://www.w3.org/2000/svg" xmlns:xlink="http://www.w3.org/1999/xlink">
<g id="graph0" class="graph" transform="scale(1 1) rotate(0) translate(4 173)">
<title>Automaton</title>
<polygon fill="white" stroke="none" points="-4,4 -4,-173 510,-173 510,4 -4,4"/>
<!-- filename -->
<g id="node1" class="node">
<title>filename</title>
<polygon fill="none" stroke="black" points="0,-104.5 0,-156.5 148,-156.5 148,-104.5 0,-104.5"/>
<polygon fill="none" stroke="black" points="11,-131.5 11,-149.5 137,-149.5 137,-131.5 11,-131.5"/>
<text text-anchor="start" x="14" y="-138.5" font-family="Courier New" font-weight="bold" font-size="10.00">S08_BEEM_1::M08_BEEM</text>
<polygon fill="none" stroke="black" points="11,-111.5 11,-129.5 137,-129.5 137,-111.5 11,-111.5"/>
<text text-anchor="start" x="28.99" y="-117.5" font-family="Courier New" font-size="10.00" fill="brown">start state = 0</text>
<polygon fill="none" stroke="black" points="8,-108.5 8,-152.5 140,-152.5 140,-108.5 8,-108.5"/>
</g>
<!-- 0 -->
<g id="node2" class="node">
<title>0</title>
<polyline fill="none" stroke="darkred" stroke-width="3" points="185.5,-119 200.5,-119"/>
<text text-anchor="start" x="189" y="-126.9" font-family="Courier New" font-weight="bold" font-size="14.00">0</text>
<path fill="none" stroke="darkred" stroke-width="3" d="M188.83,-114C188.83,-114 197.17,-114 197.17,-114 201.33,-114 205.5,-118.17 205.5,-122.33 205.5,-122.33 205.5,-138.67 205.5,-138.67 205.5,-142.83 201.33,-147 197.17,-147 197.17,-147 188.83,-147 188.83,-147 184.67,-147 180.5,-142.83 180.5,-138.67 180.5,-138.67 180.5,-122.33 180.5,-122.33 180.5,-118.17 184.67,-114 188.83,-114"/>
</g>
<!-- 1 -->
<g id="node3" class="node">
<title>1</title>
<polyline fill="none" stroke="darkred" points="186,-7 200,-7"/>
<text text-anchor="start" x="189" y="-14.4" font-family="Courier New" font-weight="bold" font-size="14.00">1</text>
<path fill="none" stroke="darkred" d="M189.67,-4C189.67,-4 196.33,-4 196.33,-4 199.67,-4 203,-7.33 203,-10.67 203,-10.67 203,-25.33 203,-25.33 203,-28.67 199.67,-32 196.33,-32 196.33,-32 189.67,-32 189.67,-32 186.33,-32 183,-28.67 183,-25.33 183,-25.33 183,-10.67 183,-10.67 183,-7.33 186.33,-4 189.67,-4"/>
</g>
<!-- 0&#45;&gt;1 -->
<g id="edge1" class="edge">
<title>0&#45;&gt;1</title>
<path fill="none" stroke="black" d="M176.25,-108.51C170.64,-102.53 164.02,-96.44 157,-92 135.62,-78.48 117.79,-94.52 103,-74 97.8,-66.79 97.98,-61.34 103,-54 114.73,-36.85 136.21,-28.1 155.24,-23.64"/>
<polygon fill="black" stroke="black" points="155.76,-27.1 164.88,-21.72 154.39,-20.24 155.76,-27.1"/>
<text text-anchor="start" x="107" y="-62" font-family="Courier New" font-weight="bold" font-size="10.00" fill="orange">CLICK(0,0)</text>
</g>
<!-- 0&#45;&gt;1 -->
<g id="edge2" class="edge">
<title>0&#45;&gt;1</title>
<path fill="none" stroke="black" d="M193,-108.72C193,-91.3 193,-66.27 193,-47.08"/>
<polygon fill="black" stroke="black" points="196.5,-47.23 193,-37.23 189.5,-47.23 196.5,-47.23"/>
<text text-anchor="start" x="197" y="-62" font-family="Courier New" font-weight="bold" font-size="10.00" fill="orange">WAIT(0,0)</text>
</g>
<!-- 1&#45;&gt;0 -->
<g id="edge3" class="edge">
<title>1&#45;&gt;0</title>
<path fill="none" stroke="black" d="M219.7,-26.65C233.11,-32 248.13,-40.63 256,-54 260.51,-61.66 260.19,-66.16 256,-74 249.19,-86.72 240.06,-82.74 229,-92 225.76,-94.71 222.51,-97.68 219.35,-100.72"/>
<polygon fill="black" stroke="black" points="216.93,-98.2 212.36,-107.76 221.89,-103.13 216.93,-98.2"/>
<text text-anchor="start" x="263" y="-62" font-family="Courier New" font-weight="bold" font-size="10.00" fill="blue">VIDEO(0,IDS_BEAMER)</text>
</g>
<!-- status -->
<g id="node4" class="node">
<title>status</title>
<polygon fill="none" stroke="black" points="238,-92.5 238,-168.5 506,-168.5 506,-92.5 238,-92.5"/>
<polygon fill="none" stroke="black" points="249,-143.5 249,-161.5 495,-161.5 495,-143.5 249,-143.5"/>
<text text-anchor="start" x="342" y="-150.5" font-family="Courier New" font-weight="bold" font-size="10.00">S08_BEEM_1</text>
<polygon fill="none" stroke="black" points="249,-99.5 249,-141.5 495,-141.5 495,-99.5 249,-99.5"/>
<text text-anchor="start" x="252" y="-129.5" font-family="Courier New" font-size="10.00" fill="green">VIEW::IDV_MANREP1 @pos(left:155, top:23)</text>
<text text-anchor="start" x="252" y="-117.5" font-family="Courier New" font-size="10.00" fill="green">S08_BEEM_1::M08_BEEM(&#39;&#39;,&#39;&#39;,&#39;&#39;,&#39;&#39;)</text>
<text text-anchor="start" x="252" y="-105.5" font-family="Courier New" font-size="10.00" fill="green">{&#39;0&#39;:</text>
<polygon fill="none" stroke="black" points="246,-96.5 246,-164.5 498,-164.5 498,-96.5 246,-96.5"/>
</g>
</g>
</svg>
