<?xml version="1.0" encoding="UTF-8" standalone="no"?>
<!DOCTYPE svg PUBLIC "-//W3C//DTD SVG 1.1//EN"
 "http://www.w3.org/Graphics/SVG/1.1/DTD/svg11.dtd">
<!-- Generated by graphviz version 7.1.0 (20230121.1956)
 -->
<!-- Title: Automaton Pages: 1 -->
<svg width="657pt" height="637pt"
 viewBox="0.00 0.00 657.00 637.00" xmlns="http://www.w3.org/2000/svg" xmlns:xlink="http://www.w3.org/1999/xlink">
<g id="graph0" class="graph" transform="scale(1 1) rotate(0) translate(4 633)">
<title>Automaton</title>
<polygon fill="white" stroke="none" points="-4,4 -4,-633 653,-633 653,4 -4,4"/>
<!-- filename -->
<g id="node1" class="node">
<title>filename</title>
<polygon fill="none" stroke="black" points="0,-564.5 0,-616.5 142,-616.5 142,-564.5 0,-564.5"/>
<polygon fill="none" stroke="black" points="11,-591.5 11,-609.5 131,-609.5 131,-591.5 11,-591.5"/>
<text text-anchor="start" x="14" y="-598.5" font-family="Courier New" font-weight="bold" font-size="10.00">S0_ALARM_2::M_ALARM</text>
<polygon fill="none" stroke="black" points="11,-571.5 11,-589.5 131,-589.5 131,-571.5 11,-571.5"/>
<text text-anchor="start" x="25.99" y="-577.5" font-family="Courier New" font-size="10.00" fill="brown">start state = 0</text>
<polygon fill="none" stroke="black" points="8,-568.5 8,-612.5 134,-612.5 134,-568.5 8,-568.5"/>
</g>
<!-- 0 -->
<g id="node2" class="node">
<title>0</title>
<polyline fill="none" stroke="darkred" points="180,-579.5 194,-579.5"/>
<text text-anchor="start" x="183" y="-586.9" font-family="Courier New" font-weight="bold" font-size="14.00">0</text>
<path fill="none" stroke="darkred" d="M183.67,-576.5C183.67,-576.5 190.33,-576.5 190.33,-576.5 193.67,-576.5 197,-579.83 197,-583.17 197,-583.17 197,-597.83 197,-597.83 197,-601.17 193.67,-604.5 190.33,-604.5 190.33,-604.5 183.67,-604.5 183.67,-604.5 180.33,-604.5 177,-601.17 177,-597.83 177,-597.83 177,-583.17 177,-583.17 177,-579.83 180.33,-576.5 183.67,-576.5"/>
</g>
<!-- ready -->
<g id="node3" class="node">
<title>ready</title>
<polyline fill="none" stroke="darkred" stroke-width="3" points="55.5,-438.5 104.5,-438.5"/>
<text text-anchor="start" x="59" y="-446.4" font-family="Courier New" font-weight="bold" font-size="14.00">ready</text>
<path fill="none" stroke="darkred" stroke-width="3" d="M61.5,-433.5C61.5,-433.5 98.5,-433.5 98.5,-433.5 104,-433.5 109.5,-439 109.5,-444.5 109.5,-444.5 109.5,-455.5 109.5,-455.5 109.5,-461 104,-466.5 98.5,-466.5 98.5,-466.5 61.5,-466.5 61.5,-466.5 56,-466.5 50.5,-461 50.5,-455.5 50.5,-455.5 50.5,-444.5 50.5,-444.5 50.5,-439 56,-433.5 61.5,-433.5"/>
</g>
<!-- 0&#45;&gt;ready -->
<g id="edge1" class="edge">
<title>0&#45;&gt;ready</title>
<path fill="none" stroke="black" d="M174.76,-572.54C168.49,-565.09 160.24,-556.93 151,-552 110.39,-530.33 78.59,-569.27 49,-534 36.43,-519.02 42.56,-508.46 49,-490 50.07,-486.94 51.49,-483.94 53.14,-481.04"/>
<polygon fill="black" stroke="black" points="55.9,-483.2 58.58,-472.95 50.09,-479.29 55.9,-483.2"/>
<polygon fill="none" stroke="black" points="52,-513 52,-531 310,-531 310,-513 52,-513"/>
<text text-anchor="start" x="117.99" y="-520" font-family="Courier New" font-weight="bold" font-size="10.00" fill="blue">O_ACCEPT(0,IDD_ALARM)</text>
<polygon fill="none" stroke="black" points="52,-493 52,-511 310,-511 310,-493 52,-493"/>
<text text-anchor="start" x="55" y="-499" font-family="Courier New" font-size="10.00" fill="blue"> &#160;&#160;&#160;ASSIGN(WPARM,0); //WILL BE LVIEW VALUE</text>
<polygon fill="none" stroke="black" points="49,-490 49,-534 313,-534 313,-490 49,-490"/>
</g>
<!-- alarmWhite -->
<g id="node5" class="node">
<title>alarmWhite</title>
<polyline fill="none" stroke="darkred" points="174,-307 264,-307"/>
<text text-anchor="start" x="177" y="-314.4" font-family="Courier New" font-weight="bold" font-size="14.00">alarmWhite</text>
<path fill="none" stroke="darkred" d="M180.33,-304C180.33,-304 257.67,-304 257.67,-304 262.33,-304 267,-308.67 267,-313.33 267,-313.33 267,-322.67 267,-322.67 267,-327.33 262.33,-332 257.67,-332 257.67,-332 180.33,-332 180.33,-332 175.67,-332 171,-327.33 171,-322.67 171,-322.67 171,-313.33 171,-313.33 171,-308.67 175.67,-304 180.33,-304"/>
</g>
<!-- ready&#45;&gt;alarmWhite -->
<g id="edge7" class="edge">
<title>ready&#45;&gt;alarmWhite</title>
<path fill="none" stroke="black" d="M99.38,-428.31C118.14,-408.59 147.68,-378.38 175,-354 179.06,-350.37 183.45,-346.66 187.82,-343.08"/>
<polygon fill="black" stroke="black" points="189.88,-345.91 195.48,-336.92 185.5,-340.45 189.88,-345.91"/>
<polygon fill="none" stroke="black" points="178,-389 178,-407 310,-407 310,-389 178,-389"/>
<text text-anchor="start" x="217" y="-396" font-family="Courier New" font-weight="bold" font-size="10.00" fill="orange">DROP(0,0)</text>
<polygon fill="none" stroke="black" points="178,-357 178,-387 310,-387 310,-357 178,-357"/>
<text text-anchor="start" x="181" y="-375" font-family="Courier New" font-size="10.00" fill="blue"> &#160;&#160;&#160;SHOW(WOBJECT);</text>
<text text-anchor="start" x="181" y="-363" font-family="Courier New" font-size="10.00" fill="blue"> &#160;&#160;&#160;MOV(WPARM,LVIEW);</text>
<polygon fill="none" stroke="black" points="175,-354 175,-410 313,-410 313,-354 175,-354"/>
</g>
<!-- alarmGreen -->
<g id="node4" class="node">
<title>alarmGreen</title>
<polyline fill="none" stroke="darkred" points="174,-151 264,-151"/>
<text text-anchor="start" x="177" y="-158.4" font-family="Courier New" font-weight="bold" font-size="14.00">alarmGreen</text>
<path fill="none" stroke="darkred" d="M180.33,-148C180.33,-148 257.67,-148 257.67,-148 262.33,-148 267,-152.67 267,-157.33 267,-157.33 267,-166.67 267,-166.67 267,-171.33 262.33,-176 257.67,-176 257.67,-176 180.33,-176 180.33,-176 175.67,-176 171,-171.33 171,-166.67 171,-166.67 171,-157.33 171,-157.33 171,-152.67 175.67,-148 180.33,-148"/>
</g>
<!-- alarmGreen&#45;&gt;alarmWhite -->
<g id="edge2" class="edge">
<title>alarmGreen&#45;&gt;alarmWhite</title>
<path fill="none" stroke="black" d="M219,-179.75C219,-206.01 219,-257.13 219,-289.03"/>
<polygon fill="black" stroke="black" points="215.5,-288.71 219,-298.71 222.5,-288.71 215.5,-288.71"/>
<polygon fill="none" stroke="black" points="222,-261 222,-279 408,-279 408,-261 222,-261"/>
<text text-anchor="start" x="288" y="-268" font-family="Courier New" font-weight="bold" font-size="10.00" fill="orange">CLICK(0,)</text>
<polygon fill="none" stroke="black" points="222,-217 222,-259 408,-259 408,-217 222,-217"/>
<text text-anchor="start" x="225" y="-247" font-family="Courier New" font-size="10.00" fill="blue"> &#160;&#160;&#160;MOV(WSPRITE,IDS_ALARMOFF);</text>
<text text-anchor="start" x="225" y="-235" font-family="Courier New" font-size="10.00" fill="blue"> &#160;&#160;&#160;SHOW(WSPRITE);</text>
<text text-anchor="start" x="225" y="-223" font-family="Courier New" font-size="10.00" fill="blue"> &#160;&#160;&#160;LOADVIEW(WPARM);</text>
<polygon fill="none" stroke="black" points="219,-214 219,-282 411,-282 411,-214 219,-214"/>
</g>
<!-- alarmRed -->
<g id="node6" class="node">
<title>alarmRed</title>
<polyline fill="none" stroke="darkred" points="286,-7 359,-7"/>
<text text-anchor="start" x="289" y="-14.4" font-family="Courier New" font-weight="bold" font-size="14.00">alarmRed</text>
<path fill="none" stroke="darkred" d="M291.83,-4C291.83,-4 352.17,-4 352.17,-4 356.83,-4 361.5,-8.67 361.5,-13.33 361.5,-13.33 361.5,-22.67 361.5,-22.67 361.5,-27.33 356.83,-32 352.17,-32 352.17,-32 291.83,-32 291.83,-32 287.17,-32 282.5,-27.33 282.5,-22.67 282.5,-22.67 282.5,-13.33 282.5,-13.33 282.5,-8.67 287.17,-4 291.83,-4"/>
</g>
<!-- alarmGreen&#45;&gt;alarmRed -->
<g id="edge3" class="edge">
<title>alarmGreen&#45;&gt;alarmRed</title>
<path fill="none" stroke="black" d="M213.73,-144.34C207.65,-121.61 200.77,-80.67 220,-54 230.33,-39.68 246.9,-31.15 263.7,-26.11"/>
<polygon fill="black" stroke="black" points="264.44,-29.53 273.25,-23.64 262.7,-22.75 264.44,-29.53"/>
<polygon fill="none" stroke="black" points="223,-89 223,-107 409,-107 409,-89 223,-89"/>
<text text-anchor="start" x="264.99" y="-96" font-family="Courier New" font-weight="bold" font-size="10.00" fill="orange">WAIT(0,SIG_ALARM)</text>
<polygon fill="none" stroke="black" points="223,-57 223,-87 409,-87 409,-57 223,-57"/>
<text text-anchor="start" x="226" y="-75" font-family="Courier New" font-size="10.00" fill="blue"> &#160;&#160;&#160;MOV(WSPRITE,IDS_ALARMRED);</text>
<text text-anchor="start" x="226" y="-63" font-family="Courier New" font-size="10.00" fill="blue"> &#160;&#160;&#160;ASHOW(WSPRITE);</text>
<polygon fill="none" stroke="black" points="220,-54 220,-110 412,-110 412,-54 220,-54"/>
</g>
<!-- alarmWhite&#45;&gt;0 -->
<g id="edge6" class="edge">
<title>alarmWhite&#45;&gt;0</title>
<path fill="none" stroke="black" d="M274.54,-327.66C289.47,-332.8 303.96,-340.99 313,-354 358.64,-419.7 363.72,-472.13 313,-534 287.14,-565.55 258.77,-532.39 223,-552 217.12,-555.22 211.62,-559.74 206.77,-564.52"/>
<polygon fill="black" stroke="black" points="204.52,-561.8 200.31,-571.52 209.67,-566.55 204.52,-561.8"/>
<polygon fill="none" stroke="black" points="352,-451 352,-469 412,-469 412,-451 352,-451"/>
<text text-anchor="start" x="355" y="-458" font-family="Courier New" font-weight="bold" font-size="10.00" fill="orange">GRAB(0,0)</text>
<polygon fill="none" stroke="black" points="352,-431 352,-449 412,-449 412,-431 352,-431"/>
<text text-anchor="start" x="361" y="-437" font-family="Courier New" font-size="10.00" fill="blue">SHOW();</text>
<polygon fill="none" stroke="black" points="349,-428 349,-472 415,-472 415,-428 349,-428"/>
</g>
<!-- alarmWhite&#45;&gt;alarmGreen -->
<g id="edge5" class="edge">
<title>alarmWhite&#45;&gt;alarmGreen</title>
<path fill="none" stroke="black" d="M163.02,-314.78C111.53,-311.42 40.59,-303 23,-282 3.6,-258.83 4.52,-237.91 23,-214 38.89,-193.44 101.78,-179.62 152.1,-171.61"/>
<polygon fill="black" stroke="black" points="152.42,-175.1 161.77,-170.12 151.36,-168.18 152.42,-175.1"/>
<polygon fill="none" stroke="black" points="26,-255 26,-273 212,-273 212,-255 26,-255"/>
<text text-anchor="start" x="85.99" y="-262" font-family="Courier New" font-weight="bold" font-size="10.00" fill="blue">ESTIME(0,4)</text>
<polygon fill="none" stroke="black" points="26,-223 26,-253 212,-253 212,-223 26,-223"/>
<text text-anchor="start" x="29" y="-241" font-family="Courier New" font-size="10.00" fill="blue"> &#160;&#160;&#160;MOV(WSPRITE,IDS_ALARMGRN);</text>
<text text-anchor="start" x="29" y="-229" font-family="Courier New" font-size="10.00" fill="blue"> &#160;&#160;&#160;SHOW(WSPRITE);</text>
<polygon fill="none" stroke="black" points="23,-220 23,-276 215,-276 215,-220 23,-220"/>
</g>
<!-- alarmRed&#45;&gt;alarmWhite -->
<g id="edge4" class="edge">
<title>alarmRed&#45;&gt;alarmWhite</title>
<path fill="none" stroke="black" d="M369.1,-26.14C385.46,-31.13 402.16,-39.61 412,-54 469.21,-137.64 476.95,-204.22 412,-282 396,-301.16 335.05,-309.85 285.87,-313.78"/>
<polygon fill="black" stroke="black" points="285.84,-310.28 276.12,-314.51 286.36,-317.26 285.84,-310.28"/>
<polygon fill="none" stroke="black" points="460,-175 460,-193 646,-193 646,-175 460,-175"/>
<text text-anchor="start" x="526" y="-182" font-family="Courier New" font-weight="bold" font-size="10.00" fill="orange">CLICK(0,)</text>
<polygon fill="none" stroke="black" points="460,-131 460,-173 646,-173 646,-131 460,-131"/>
<text text-anchor="start" x="463" y="-161" font-family="Courier New" font-size="10.00" fill="blue"> &#160;&#160;&#160;MOV(WSPRITE,IDS_ALARMOFF);</text>
<text text-anchor="start" x="463" y="-149" font-family="Courier New" font-size="10.00" fill="blue"> &#160;&#160;&#160;SHOW(WSPRITE);</text>
<text text-anchor="start" x="463" y="-137" font-family="Courier New" font-size="10.00" fill="blue"> &#160;&#160;&#160;LOADVIEW(WPARM);</text>
<polygon fill="none" stroke="black" points="457,-128 457,-196 649,-196 649,-128 457,-128"/>
</g>
<!-- status -->
<g id="node7" class="node">
<title>status</title>
<polygon fill="none" stroke="black" points="232,-552.5 232,-628.5 518,-628.5 518,-552.5 232,-552.5"/>
<polygon fill="none" stroke="black" points="243,-603.5 243,-621.5 507,-621.5 507,-603.5 243,-603.5"/>
<text text-anchor="start" x="345" y="-610.5" font-family="Courier New" font-weight="bold" font-size="10.00">S0_ALARM_2</text>
<polygon fill="none" stroke="black" points="243,-559.5 243,-601.5 507,-601.5 507,-559.5 243,-559.5"/>
<text text-anchor="start" x="246" y="-589.5" font-family="Courier New" font-size="10.00" fill="green">VIEW::IDV_MAIN_PANEL @pos(left:241, top:69)</text>
<text text-anchor="start" x="246" y="-577.5" font-family="Courier New" font-size="10.00" fill="green">S0_ALARM_2::M_ALARM(&#39;&#39;,&#39;&#39;,&#39;&#39;,&#39;&#39;)</text>
<text text-anchor="start" x="246" y="-565.5" font-family="Courier New" font-size="10.00" fill="green">{&#39;ready&#39;:</text>
<polygon fill="none" stroke="black" points="240,-556.5 240,-624.5 510,-624.5 510,-556.5 240,-556.5"/>
</g>
</g>
</svg>
