<?xml version="1.0" encoding="UTF-8" standalone="no"?>
<!DOCTYPE svg PUBLIC "-//W3C//DTD SVG 1.1//EN"
 "http://www.w3.org/Graphics/SVG/1.1/DTD/svg11.dtd">
<!-- Generated by graphviz version 7.1.0 (20230121.1956)
 -->
<!-- Title: Automaton Pages: 1 -->
<svg width="676pt" height="509pt"
 viewBox="0.00 0.00 676.00 509.00" xmlns="http://www.w3.org/2000/svg" xmlns:xlink="http://www.w3.org/1999/xlink">
<g id="graph0" class="graph" transform="scale(1 1) rotate(0) translate(4 505)">
<title>Automaton</title>
<polygon fill="white" stroke="none" points="-4,4 -4,-505 672,-505 672,4 -4,4"/>
<!-- filename -->
<g id="node1" class="node">
<title>filename</title>
<polygon fill="none" stroke="black" points="0,-436.5 0,-488.5 178,-488.5 178,-436.5 0,-436.5"/>
<polygon fill="none" stroke="black" points="11,-463.5 11,-481.5 167,-481.5 167,-463.5 11,-463.5"/>
<text text-anchor="start" x="14" y="-470.5" font-family="Courier New" font-weight="bold" font-size="10.00">S10_THAOR_OK::M_MEFPAN_OK</text>
<polygon fill="none" stroke="black" points="11,-443.5 11,-461.5 167,-461.5 167,-443.5 11,-443.5"/>
<text text-anchor="start" x="43.99" y="-449.5" font-family="Courier New" font-size="10.00" fill="brown">start state = 0</text>
<polygon fill="none" stroke="black" points="8,-440.5 8,-484.5 170,-484.5 170,-440.5 8,-440.5"/>
</g>
<!-- 0 -->
<g id="node2" class="node">
<title>0</title>
<polyline fill="none" stroke="darkred" points="216,-451.5 230,-451.5"/>
<text text-anchor="start" x="219" y="-458.9" font-family="Courier New" font-weight="bold" font-size="14.00">0</text>
<path fill="none" stroke="darkred" d="M219.67,-448.5C219.67,-448.5 226.33,-448.5 226.33,-448.5 229.67,-448.5 233,-451.83 233,-455.17 233,-455.17 233,-469.83 233,-469.83 233,-473.17 229.67,-476.5 226.33,-476.5 226.33,-476.5 219.67,-476.5 219.67,-476.5 216.33,-476.5 213,-473.17 213,-469.83 213,-469.83 213,-455.17 213,-455.17 213,-451.83 216.33,-448.5 219.67,-448.5"/>
</g>
<!-- 1 -->
<g id="node3" class="node">
<title>1</title>
<polyline fill="none" stroke="darkred" stroke-width="3" points="140.5,-334.5 155.5,-334.5"/>
<text text-anchor="start" x="144" y="-342.4" font-family="Courier New" font-weight="bold" font-size="14.00">1</text>
<path fill="none" stroke="darkred" stroke-width="3" d="M143.83,-329.5C143.83,-329.5 152.17,-329.5 152.17,-329.5 156.33,-329.5 160.5,-333.67 160.5,-337.83 160.5,-337.83 160.5,-354.17 160.5,-354.17 160.5,-358.33 156.33,-362.5 152.17,-362.5 152.17,-362.5 143.83,-362.5 143.83,-362.5 139.67,-362.5 135.5,-358.33 135.5,-354.17 135.5,-354.17 135.5,-337.83 135.5,-337.83 135.5,-333.67 139.67,-329.5 143.83,-329.5"/>
</g>
<!-- 0&#45;&gt;1 -->
<g id="edge1" class="edge">
<title>0&#45;&gt;1</title>
<path fill="none" stroke="black" d="M207.64,-444.65C201.41,-438.04 194.03,-430.49 187,-424 177.72,-415.43 171.95,-416.55 165,-406 159.72,-397.99 156.05,-388.32 153.51,-379.15"/>
<polygon fill="black" stroke="black" points="156.92,-378.36 151.22,-369.43 150.11,-379.97 156.92,-378.36"/>
<text text-anchor="start" x="169" y="-394" font-family="Courier New" font-weight="bold" font-size="10.00" fill="blue">SHOW(0,IDS_BTN_OK)</text>
</g>
<!-- 2 -->
<g id="node4" class="node">
<title>2</title>
<polyline fill="none" stroke="darkred" points="131,-239 145,-239"/>
<text text-anchor="start" x="134" y="-246.4" font-family="Courier New" font-weight="bold" font-size="14.00">2</text>
<path fill="none" stroke="darkred" d="M134.67,-236C134.67,-236 141.33,-236 141.33,-236 144.67,-236 148,-239.33 148,-242.67 148,-242.67 148,-257.33 148,-257.33 148,-260.67 144.67,-264 141.33,-264 141.33,-264 134.67,-264 134.67,-264 131.33,-264 128,-260.67 128,-257.33 128,-257.33 128,-242.67 128,-242.67 128,-239.33 131.33,-236 134.67,-236"/>
</g>
<!-- 1&#45;&gt;2 -->
<g id="edge2" class="edge">
<title>1&#45;&gt;2</title>
<path fill="none" stroke="black" d="M145.78,-324.14C144.37,-310.87 142.52,-293.53 140.98,-279.06"/>
<polygon fill="black" stroke="black" points="144.48,-278.81 139.94,-269.24 137.52,-279.55 144.48,-278.81"/>
<text text-anchor="start" x="148" y="-294" font-family="Courier New" font-weight="bold" font-size="10.00" fill="orange">CLICK(0,0)</text>
</g>
<!-- 3 -->
<g id="node5" class="node">
<title>3</title>
<polyline fill="none" stroke="darkred" points="144,-123 158,-123"/>
<text text-anchor="start" x="147" y="-130.4" font-family="Courier New" font-weight="bold" font-size="14.00">3</text>
<path fill="none" stroke="darkred" d="M147.67,-120C147.67,-120 154.33,-120 154.33,-120 157.67,-120 161,-123.33 161,-126.67 161,-126.67 161,-141.33 161,-141.33 161,-144.67 157.67,-148 154.33,-148 154.33,-148 147.67,-148 147.67,-148 144.33,-148 141,-144.67 141,-141.33 141,-141.33 141,-126.67 141,-126.67 141,-123.33 144.33,-120 147.67,-120"/>
</g>
<!-- 2&#45;&gt;3 -->
<g id="edge3" class="edge">
<title>2&#45;&gt;3</title>
<path fill="none" stroke="black" d="M135.84,-232.18C134.23,-216.07 132.93,-191.15 137,-170 137.48,-167.49 138.14,-164.94 138.92,-162.41"/>
<polygon fill="black" stroke="black" points="142.17,-163.71 142.3,-153.12 135.59,-161.31 142.17,-163.71"/>
<polygon fill="none" stroke="black" points="140,-193 140,-211 278,-211 278,-193 140,-193"/>
<text text-anchor="start" x="143" y="-200" font-family="Courier New" font-weight="bold" font-size="10.00" fill="blue">SIGNAL(SIG_CLOSE,WIP1)</text>
<polygon fill="none" stroke="black" points="140,-173 140,-191 278,-191 278,-173 140,-173"/>
<text text-anchor="start" x="143" y="-179" font-family="Courier New" font-size="10.00" fill="blue">PLAYWAVE(SOUND_POPUP);</text>
<polygon fill="none" stroke="black" points="137,-170 137,-214 281,-214 281,-170 137,-170"/>
</g>
<!-- 4 -->
<g id="node6" class="node">
<title>4</title>
<polyline fill="none" stroke="darkred" points="223,-7 237,-7"/>
<text text-anchor="start" x="226" y="-14.4" font-family="Courier New" font-weight="bold" font-size="14.00">4</text>
<path fill="none" stroke="darkred" d="M226.67,-4C226.67,-4 233.33,-4 233.33,-4 236.67,-4 240,-7.33 240,-10.67 240,-10.67 240,-25.33 240,-25.33 240,-28.67 236.67,-32 233.33,-32 233.33,-32 226.67,-32 226.67,-32 223.33,-32 220,-28.67 220,-25.33 220,-25.33 220,-10.67 220,-10.67 220,-7.33 223.33,-4 226.67,-4"/>
</g>
<!-- 3&#45;&gt;4 -->
<g id="edge4" class="edge">
<title>3&#45;&gt;4</title>
<path fill="none" stroke="black" d="M159.3,-116.28C167.81,-99.79 181.9,-74.22 197,-54 199.5,-50.66 202.27,-47.29 205.13,-44.03"/>
<polygon fill="black" stroke="black" points="207.52,-46.6 211.7,-36.87 202.36,-41.87 207.52,-46.6"/>
<polygon fill="none" stroke="black" points="200,-77 200,-95 278,-95 278,-77 200,-77"/>
<text text-anchor="start" x="203" y="-84" font-family="Courier New" font-weight="bold" font-size="10.00" fill="blue">CLEAR(WIP1,)</text>
<polygon fill="none" stroke="black" points="200,-57 200,-75 278,-75 278,-57 200,-57"/>
<text text-anchor="start" x="215" y="-63" font-family="Courier New" font-size="10.00" fill="blue">SHOW(0);</text>
<polygon fill="none" stroke="black" points="197,-54 197,-98 281,-98 281,-54 197,-54"/>
</g>
<!-- 4&#45;&gt;0 -->
<g id="edge5" class="edge">
<title>4&#45;&gt;0</title>
<path fill="none" stroke="black" d="M256.99,-31.93C265.95,-37.51 275.13,-44.88 281,-54 300.31,-83.98 295,-97.34 295,-133 295,-347 295,-347 295,-347 295,-373.95 295.29,-383.15 281,-406 274.3,-416.71 268.28,-415.43 259,-424 254.72,-427.96 250.3,-432.3 246.1,-436.59"/>
<polygon fill="black" stroke="black" points="243.81,-433.92 239.41,-443.56 248.86,-438.77 243.81,-433.92"/>
<text text-anchor="start" x="299" y="-248" font-family="Courier New" font-weight="bold" font-size="10.00" fill="blue">LOADVIEW(WIP2,)</text>
</g>
<!-- status -->
<g id="node7" class="node">
<title>status</title>
<polygon fill="none" stroke="black" points="268,-424.5 268,-500.5 668,-500.5 668,-424.5 268,-424.5"/>
<polygon fill="none" stroke="black" points="279,-475.5 279,-493.5 657,-493.5 657,-475.5 279,-475.5"/>
<text text-anchor="start" x="431.99" y="-482.5" font-family="Courier New" font-weight="bold" font-size="10.00">S10_THAOR_OK</text>
<polygon fill="none" stroke="black" points="279,-431.5 279,-473.5 657,-473.5 657,-431.5 279,-431.5"/>
<text text-anchor="start" x="282" y="-461.5" font-family="Courier New" font-size="10.00" fill="green">VIEW::IDV_S10_THAOR_PAN @pos(left:490, top:215)</text>
<text text-anchor="start" x="282" y="-449.5" font-family="Courier New" font-size="10.00" fill="green">S10_THAOR_OK::M_MEFPAN_OK(&#39;S10_THAOR_Q1&#39;,&#39;IDV_SCN10PT1&#39;,&#39;&#39;,&#39;&#39;)</text>
<text text-anchor="start" x="282" y="-437.5" font-family="Courier New" font-size="10.00" fill="green">{state:&#39;1&#39;: wSprite:IDS_BTN_OK</text>
<polygon fill="none" stroke="black" points="276,-428.5 276,-496.5 660,-496.5 660,-428.5 276,-428.5"/>
</g>
</g>
</svg>
