<?xml version="1.0" encoding="UTF-8" standalone="no"?>
<!DOCTYPE svg PUBLIC "-//W3C//DTD SVG 1.1//EN"
 "http://www.w3.org/Graphics/SVG/1.1/DTD/svg11.dtd">
<!-- Generated by graphviz version 7.1.0 (20230121.1956)
 -->
<!-- Title: Automaton Pages: 1 -->
<svg width="694pt" height="637pt"
 viewBox="0.00 0.00 694.00 637.00" xmlns="http://www.w3.org/2000/svg" xmlns:xlink="http://www.w3.org/1999/xlink">
<g id="graph0" class="graph" transform="scale(1 1) rotate(0) translate(4 633)">
<title>Automaton</title>
<polygon fill="white" stroke="none" points="-4,4 -4,-633 690,-633 690,4 -4,4"/>
<!-- filename -->
<g id="node1" class="node">
<title>filename</title>
<polygon fill="none" stroke="black" points="60,-564.5 60,-616.5 274,-616.5 274,-564.5 60,-564.5"/>
<polygon fill="none" stroke="black" points="71,-591.5 71,-609.5 263,-609.5 263,-591.5 71,-591.5"/>
<text text-anchor="start" x="74" y="-598.5" font-family="Courier New" font-weight="bold" font-size="10.00">S11_FISHSTATIONd::M_FISHSTATION</text>
<polygon fill="none" stroke="black" points="71,-571.5 71,-589.5 263,-589.5 263,-571.5 71,-571.5"/>
<text text-anchor="start" x="121.99" y="-577.5" font-family="Courier New" font-size="10.00" fill="brown">start state = 0</text>
<polygon fill="none" stroke="black" points="68,-568.5 68,-612.5 266,-612.5 266,-568.5 68,-568.5"/>
</g>
<!-- 0 -->
<g id="node2" class="node">
<title>0</title>
<polyline fill="none" stroke="darkred" points="312,-579.5 326,-579.5"/>
<text text-anchor="start" x="315" y="-586.9" font-family="Courier New" font-weight="bold" font-size="14.00">0</text>
<path fill="none" stroke="darkred" d="M315.67,-576.5C315.67,-576.5 322.33,-576.5 322.33,-576.5 325.67,-576.5 329,-579.83 329,-583.17 329,-583.17 329,-597.83 329,-597.83 329,-601.17 325.67,-604.5 322.33,-604.5 322.33,-604.5 315.67,-604.5 315.67,-604.5 312.33,-604.5 309,-601.17 309,-597.83 309,-597.83 309,-583.17 309,-583.17 309,-579.83 312.33,-576.5 315.67,-576.5"/>
</g>
<!-- vacant -->
<g id="node3" class="node">
<title>vacant</title>
<polyline fill="none" stroke="darkred" stroke-width="3" points="290.5,-438.5 347.5,-438.5"/>
<text text-anchor="start" x="294" y="-446.4" font-family="Courier New" font-weight="bold" font-size="14.00">vacant</text>
<path fill="none" stroke="darkred" stroke-width="3" d="M296.5,-433.5C296.5,-433.5 341.5,-433.5 341.5,-433.5 347,-433.5 352.5,-439 352.5,-444.5 352.5,-444.5 352.5,-455.5 352.5,-455.5 352.5,-461 347,-466.5 341.5,-466.5 341.5,-466.5 296.5,-466.5 296.5,-466.5 291,-466.5 285.5,-461 285.5,-455.5 285.5,-455.5 285.5,-444.5 285.5,-444.5 285.5,-439 291,-433.5 296.5,-433.5"/>
</g>
<!-- 0&#45;&gt;vacant -->
<g id="edge1" class="edge">
<title>0&#45;&gt;vacant</title>
<path fill="none" stroke="black" d="M319,-572.52C319,-550.27 319,-510.81 319,-482.91"/>
<polygon fill="black" stroke="black" points="322.5,-483.25 319,-473.25 315.5,-483.25 322.5,-483.25"/>
<polygon fill="none" stroke="black" points="322,-513 322,-531 448,-531 448,-513 322,-513"/>
<text text-anchor="start" x="325" y="-520" font-family="Courier New" font-weight="bold" font-size="10.00" fill="blue">C_ACCEPT(0,IDC_POLE)</text>
<polygon fill="none" stroke="black" points="322,-493 322,-511 448,-511 448,-493 322,-493"/>
<text text-anchor="start" x="364" y="-499" font-family="Courier New" font-size="10.00" fill="blue">SHOW();</text>
<polygon fill="none" stroke="black" points="319,-490 319,-534 451,-534 451,-490 319,-490"/>
</g>
<!-- vacant&#45;&gt;vacant -->
<g id="edge9" class="edge">
<title>vacant&#45;&gt;vacant</title>
<path fill="none" stroke="black" d="M361.76,-459.23C372.22,-458.54 380,-455.47 380,-450 380,-446.75 377.26,-444.35 372.84,-442.79"/>
<polygon fill="black" stroke="black" points="373.71,-439.39 363.25,-441.04 372.46,-446.28 373.71,-439.39"/>
<polygon fill="none" stroke="black" points="383,-451 383,-469 515,-469 515,-451 383,-451"/>
<text text-anchor="start" x="397.99" y="-458" font-family="Courier New" font-weight="bold" font-size="10.00" fill="orange">DRAG(0,IDD_BUCKE)</text>
<polygon fill="none" stroke="black" points="383,-431 383,-449 515,-449 515,-431 383,-431"/>
<text text-anchor="start" x="386" y="-437" font-family="Courier New" font-size="10.00" fill="blue">HANDOFF(0,IDD_BUCKF);</text>
<polygon fill="none" stroke="black" points="380,-428 380,-472 518,-472 518,-428 380,-428"/>
</g>
<!-- branch -->
<g id="node6" class="node">
<title>branch</title>
<polyline fill="none" stroke="darkred" points="291,-343 347,-343"/>
<text text-anchor="start" x="294" y="-350.4" font-family="Courier New" font-weight="bold" font-size="14.00">branch</text>
<path fill="none" stroke="darkred" d="M297.33,-340C297.33,-340 340.67,-340 340.67,-340 345.33,-340 350,-344.67 350,-349.33 350,-349.33 350,-358.67 350,-358.67 350,-363.33 345.33,-368 340.67,-368 340.67,-368 297.33,-368 297.33,-368 292.67,-368 288,-363.33 288,-358.67 288,-358.67 288,-349.33 288,-349.33 288,-344.67 292.67,-340 297.33,-340"/>
</g>
<!-- vacant&#45;&gt;branch -->
<g id="edge10" class="edge">
<title>vacant&#45;&gt;branch</title>
<path fill="none" stroke="black" d="M319,-428.14C319,-414.87 319,-397.53 319,-383.06"/>
<polygon fill="black" stroke="black" points="322.5,-383.25 319,-373.25 315.5,-383.25 322.5,-383.25"/>
<text text-anchor="start" x="323" y="-398" font-family="Courier New" font-weight="bold" font-size="10.00" fill="orange">DROP(0,0)</text>
</g>
<!-- baited_pole -->
<g id="node4" class="node">
<title>baited_pole</title>
<polyline fill="none" stroke="darkred" points="11,-193 109,-193"/>
<text text-anchor="start" x="14" y="-200.4" font-family="Courier New" font-weight="bold" font-size="14.00">baited_pole</text>
<path fill="none" stroke="darkred" d="M17.33,-190C17.33,-190 102.67,-190 102.67,-190 107.33,-190 112,-194.67 112,-199.33 112,-199.33 112,-208.67 112,-208.67 112,-213.33 107.33,-218 102.67,-218 102.67,-218 17.33,-218 17.33,-218 12.67,-218 8,-213.33 8,-208.67 8,-208.67 8,-199.33 8,-199.33 8,-194.67 12.67,-190 17.33,-190"/>
</g>
<!-- baited_pole&#45;&gt;0 -->
<g id="edge2" class="edge">
<title>baited_pole&#45;&gt;0</title>
<path fill="none" stroke="black" d="M51.84,-221.77C42,-244.46 28.38,-285.8 42,-318 100.15,-455.51 177.73,-446.13 283,-552 286.93,-555.95 291.06,-560.18 295.06,-564.32"/>
<polygon fill="black" stroke="black" points="292.49,-566.7 301.95,-571.49 297.54,-561.85 292.49,-566.7"/>
<text text-anchor="start" x="104" y="-398" font-family="Courier New" font-weight="bold" font-size="10.00" fill="orange">GRAB(0,0)</text>
</g>
<!-- fish_on -->
<g id="node5" class="node">
<title>fish_on</title>
<polyline fill="none" stroke="darkred" points="149,-7 213,-7"/>
<text text-anchor="start" x="152" y="-14.4" font-family="Courier New" font-weight="bold" font-size="14.00">fish_on</text>
<path fill="none" stroke="darkred" d="M155.33,-4C155.33,-4 206.67,-4 206.67,-4 211.33,-4 216,-8.67 216,-13.33 216,-13.33 216,-22.67 216,-22.67 216,-27.33 211.33,-32 206.67,-32 206.67,-32 155.33,-32 155.33,-32 150.67,-32 146,-27.33 146,-22.67 146,-22.67 146,-13.33 146,-13.33 146,-8.67 150.67,-4 155.33,-4"/>
</g>
<!-- baited_pole&#45;&gt;fish_on -->
<g id="edge3" class="edge">
<title>baited_pole&#45;&gt;fish_on</title>
<path fill="none" stroke="black" d="M62.21,-186.26C66.92,-156.41 80.52,-93.44 115,-54 119,-49.42 123.75,-45.35 128.84,-41.75"/>
<polygon fill="black" stroke="black" points="130.43,-44.88 137,-36.58 126.68,-38.97 130.43,-44.88"/>
<polygon fill="none" stroke="black" points="118,-137 118,-155 286,-155 286,-137 118,-137"/>
<text text-anchor="start" x="121" y="-144" font-family="Courier New" font-weight="bold" font-size="10.00" fill="blue">SYNCPOINT(WRAND,SYNC_FISH1)</text>
<polygon fill="none" stroke="black" points="118,-57 118,-135 286,-135 286,-57 118,-57"/>
<text text-anchor="start" x="126.99" y="-123" font-family="Courier New" font-size="10.00" fill="blue">PLAYWAVE(0,SOUND_HURT);</text>
<text text-anchor="start" x="126.99" y="-111" font-family="Courier New" font-size="10.00" fill="blue">MOV(WPARM,WOBJECT);</text>
<text text-anchor="start" x="126.99" y="-99" font-family="Courier New" font-size="10.00" fill="blue">RAND(10,0); </text>
<text text-anchor="start" x="126.99" y="-87" font-family="Courier New" font-size="10.00" fill="blue">MOV(WOBJECT,WRAND);</text>
<text text-anchor="start" x="126.99" y="-75" font-family="Courier New" font-size="10.00" fill="blue">MAP(WOBJECT,FISH_CAUGHT);</text>
<text text-anchor="start" x="126.99" y="-63" font-family="Courier New" font-size="10.00" fill="blue">SHOW(IDS_POLE1LCT);</text>
<polygon fill="none" stroke="black" points="115,-54 115,-158 289,-158 289,-54 115,-54"/>
</g>
<!-- fish_on&#45;&gt;branch -->
<g id="edge6" class="edge">
<title>fish_on&#45;&gt;branch</title>
<path fill="none" stroke="black" d="M223.93,-21.91C246.79,-25.82 273.35,-34.59 289,-54 297.46,-64.48 311.8,-252.7 317.02,-325.02"/>
<polygon fill="black" stroke="black" points="313.52,-325.11 317.72,-334.84 320.5,-324.61 313.52,-325.11"/>
<polygon fill="none" stroke="black" points="313,-211 313,-229 457,-229 457,-211 313,-211"/>
<text text-anchor="start" x="358" y="-218" font-family="Courier New" font-weight="bold" font-size="10.00" fill="orange">GRAB(0,0)</text>
<polygon fill="none" stroke="black" points="313,-179 313,-209 457,-209 457,-179 313,-179"/>
<text text-anchor="start" x="316" y="-197" font-family="Courier New" font-size="10.00" fill="blue">MOV(WOBJECT,IDD_POLE1);</text>
<text text-anchor="start" x="316" y="-185" font-family="Courier New" font-size="10.00" fill="blue">SHOW(IDS_POLE1LCU);</text>
<polygon fill="none" stroke="black" points="310,-176 310,-232 460,-232 460,-176 310,-176"/>
</g>
<!-- branch&#45;&gt;baited_pole -->
<g id="edge4" class="edge">
<title>branch&#45;&gt;baited_pole</title>
<path fill="none" stroke="black" d="M280.01,-353.65C215.07,-353.81 89.09,-349.88 61,-318 40.84,-295.13 44.79,-258.39 51,-233.04"/>
<polygon fill="black" stroke="black" points="54.37,-233.99 53.64,-223.42 47.62,-232.14 54.37,-233.99"/>
<polygon fill="none" stroke="black" points="64,-291 64,-309 286,-309 286,-291 64,-291"/>
<text text-anchor="start" x="90.99" y="-298" font-family="Courier New" font-weight="bold" font-size="10.00" fill="blue">IS_A(WOBJECT,ISA_BAITEDPOLE)</text>
<polygon fill="none" stroke="black" points="64,-259 64,-289 286,-289 286,-259 64,-259"/>
<text text-anchor="start" x="67" y="-277" font-family="Courier New" font-size="10.00" fill="blue">SHOW(IDS_POLE1LCL);</text>
<text text-anchor="start" x="67" y="-265" font-family="Courier New" font-size="10.00" fill="blue">RAND(ADD_CATCH_TIME,MIN_CATCH_TIME);</text>
<polygon fill="none" stroke="black" points="61,-256 61,-312 289,-312 289,-256 61,-256"/>
</g>
<!-- pole -->
<g id="node7" class="node">
<title>pole</title>
<polyline fill="none" stroke="darkred" points="483,-193 522,-193"/>
<text text-anchor="start" x="486" y="-200.4" font-family="Courier New" font-weight="bold" font-size="14.00">pole</text>
<path fill="none" stroke="darkred" d="M488.83,-190C488.83,-190 515.17,-190 515.17,-190 519.83,-190 524.5,-194.67 524.5,-199.33 524.5,-199.33 524.5,-208.67 524.5,-208.67 524.5,-213.33 519.83,-218 515.17,-218 515.17,-218 488.83,-218 488.83,-218 484.17,-218 479.5,-213.33 479.5,-208.67 479.5,-208.67 479.5,-199.33 479.5,-199.33 479.5,-194.67 484.17,-190 488.83,-190"/>
</g>
<!-- branch&#45;&gt;pole -->
<g id="edge5" class="edge">
<title>branch&#45;&gt;pole</title>
<path fill="none" stroke="black" d="M316.52,-336.04C314.2,-313.09 314.01,-272.44 337,-250 375.59,-212.33 406.24,-250.22 457,-232 460.52,-230.74 464.06,-229.19 467.53,-227.47"/>
<polygon fill="black" stroke="black" points="469.2,-230.55 476.31,-222.69 465.85,-224.4 469.2,-230.55"/>
<polygon fill="none" stroke="black" points="340,-297 340,-315 472,-315 472,-297 340,-297"/>
<text text-anchor="start" x="369.99" y="-304" font-family="Courier New" font-weight="bold" font-size="10.00" fill="blue">Z_EPSILON(,)</text>
<polygon fill="none" stroke="black" points="340,-253 340,-295 472,-295 472,-253 340,-253"/>
<text text-anchor="start" x="343" y="-283" font-family="Courier New" font-size="10.00" fill="blue">SHOW(IDS_POLE1LCU);</text>
<text text-anchor="start" x="343" y="-271" font-family="Courier New" font-size="10.00" fill="blue">MOV(WPARM,WOBJECT);</text>
<text text-anchor="start" x="343" y="-259" font-family="Courier New" font-size="10.00" fill="blue">C_ACCEPT(0,ISA_BAIT);</text>
<polygon fill="none" stroke="black" points="337,-250 337,-318 475,-318 475,-250 337,-250"/>
</g>
<!-- pole&#45;&gt;0 -->
<g id="edge8" class="edge">
<title>pole&#45;&gt;0</title>
<path fill="none" stroke="black" d="M532.43,-206.8C561.38,-210.33 603.47,-220.55 624,-250 641.28,-274.79 632.38,-288.96 624,-318 590.19,-435.11 565.05,-481.59 455,-534 414.23,-553.42 394.8,-530.67 355,-552 349.09,-555.17 343.58,-559.66 338.73,-564.43"/>
<polygon fill="black" stroke="black" points="336.47,-561.72 332.27,-571.44 341.62,-566.46 336.47,-561.72"/>
<text text-anchor="start" x="604" y="-398" font-family="Courier New" font-weight="bold" font-size="10.00" fill="orange">GRAB(0,0)</text>
</g>
<!-- pole&#45;&gt;branch -->
<g id="edge7" class="edge">
<title>pole&#45;&gt;branch</title>
<path fill="none" stroke="black" d="M500.15,-221.86C496.73,-249.99 488.5,-304.69 475,-318 460.16,-332.64 409.05,-342.14 369.33,-347.5"/>
<polygon fill="black" stroke="black" points="368.91,-344.03 359.44,-348.78 369.81,-350.97 368.91,-344.03"/>
<polygon fill="none" stroke="black" points="498,-291 498,-309 618,-309 618,-291 498,-291"/>
<text text-anchor="start" x="531" y="-298" font-family="Courier New" font-weight="bold" font-size="10.00" fill="orange">DROP(0,0)</text>
<polygon fill="none" stroke="black" points="498,-259 498,-289 618,-289 618,-259 498,-259"/>
<text text-anchor="start" x="501" y="-277" font-family="Courier New" font-size="10.00" fill="blue">MIX(WPARM,WOBJECT);</text>
<text text-anchor="start" x="501" y="-265" font-family="Courier New" font-size="10.00" fill="blue">SHOW(IDS_POLE1B);</text>
<polygon fill="none" stroke="black" points="495,-256 495,-312 621,-312 621,-256 495,-256"/>
</g>
<!-- status -->
<g id="node8" class="node">
<title>status</title>
<polygon fill="none" stroke="black" points="364,-552.5 364,-628.5 686,-628.5 686,-552.5 364,-552.5"/>
<polygon fill="none" stroke="black" points="375,-603.5 375,-621.5 675,-621.5 675,-603.5 375,-603.5"/>
<text text-anchor="start" x="476.99" y="-610.5" font-family="Courier New" font-weight="bold" font-size="10.00">S11_FISHSTATIONd</text>
<polygon fill="none" stroke="black" points="375,-559.5 375,-601.5 675,-601.5 675,-559.5 375,-559.5"/>
<text text-anchor="start" x="378" y="-589.5" font-family="Courier New" font-size="10.00" fill="green">VIEW::IDV_FH1PAN @pos(left:1600, top:110)</text>
<text text-anchor="start" x="378" y="-577.5" font-family="Courier New" font-size="10.00" fill="green">S11_FISHSTATIONd::M_FISHSTATION(&#39;&#39;,&#39;&#39;,&#39;&#39;,&#39;&#39;)</text>
<text text-anchor="start" x="378" y="-565.5" font-family="Courier New" font-size="10.00" fill="green">{state:&#39;vacant&#39;: wParm:IDD_POLE1 wAccept:IDC_POLE</text>
<polygon fill="none" stroke="black" points="372,-556.5 372,-624.5 678,-624.5 678,-556.5 372,-556.5"/>
</g>
</g>
</svg>
