<?xml version="1.0" encoding="UTF-8" standalone="no"?>
<!DOCTYPE svg PUBLIC "-//W3C//DTD SVG 1.1//EN"
 "http://www.w3.org/Graphics/SVG/1.1/DTD/svg11.dtd">
<!-- Generated by graphviz version 7.1.0 (20230121.1956)
 -->
<!-- Title: Automaton Pages: 1 -->
<svg width="586pt" height="277pt"
 viewBox="0.00 0.00 586.00 277.00" xmlns="http://www.w3.org/2000/svg" xmlns:xlink="http://www.w3.org/1999/xlink">
<g id="graph0" class="graph" transform="scale(1 1) rotate(0) translate(4 273)">
<title>Automaton</title>
<polygon fill="white" stroke="none" points="-4,4 -4,-273 582,-273 582,4 -4,4"/>
<!-- filename -->
<g id="node1" class="node">
<title>filename</title>
<polygon fill="none" stroke="black" points="0,-204.5 0,-256.5 160,-256.5 160,-204.5 0,-204.5"/>
<polygon fill="none" stroke="black" points="11,-231.5 11,-249.5 149,-249.5 149,-231.5 11,-231.5"/>
<text text-anchor="start" x="14" y="-238.5" font-family="Courier New" font-weight="bold" font-size="10.00">S11_LUNCHCRUMBS::M_BIN</text>
<polygon fill="none" stroke="black" points="11,-211.5 11,-229.5 149,-229.5 149,-211.5 11,-211.5"/>
<text text-anchor="start" x="34.99" y="-217.5" font-family="Courier New" font-size="10.00" fill="brown">start state = 0</text>
<polygon fill="none" stroke="black" points="8,-208.5 8,-252.5 152,-252.5 152,-208.5 8,-208.5"/>
</g>
<!-- 0 -->
<g id="node2" class="node">
<title>0</title>
<polyline fill="none" stroke="darkred" points="198,-219.5 212,-219.5"/>
<text text-anchor="start" x="201" y="-226.9" font-family="Courier New" font-weight="bold" font-size="14.00">0</text>
<path fill="none" stroke="darkred" d="M201.67,-216.5C201.67,-216.5 208.33,-216.5 208.33,-216.5 211.67,-216.5 215,-219.83 215,-223.17 215,-223.17 215,-237.83 215,-237.83 215,-241.17 211.67,-244.5 208.33,-244.5 208.33,-244.5 201.67,-244.5 201.67,-244.5 198.33,-244.5 195,-241.17 195,-237.83 195,-237.83 195,-223.17 195,-223.17 195,-219.83 198.33,-216.5 201.67,-216.5"/>
</g>
<!-- 1 -->
<g id="node3" class="node">
<title>1</title>
<polyline fill="none" stroke="darkred" points="198,-107 212,-107"/>
<text text-anchor="start" x="201" y="-114.4" font-family="Courier New" font-weight="bold" font-size="14.00">1</text>
<path fill="none" stroke="darkred" d="M201.67,-104C201.67,-104 208.33,-104 208.33,-104 211.67,-104 215,-107.33 215,-110.67 215,-110.67 215,-125.33 215,-125.33 215,-128.67 211.67,-132 208.33,-132 208.33,-132 201.67,-132 201.67,-132 198.33,-132 195,-128.67 195,-125.33 195,-125.33 195,-110.67 195,-110.67 195,-107.33 198.33,-104 201.67,-104"/>
</g>
<!-- 0&#45;&gt;1 -->
<g id="edge1" class="edge">
<title>0&#45;&gt;1</title>
<path fill="none" stroke="black" d="M205,-212.72C205,-195.36 205,-167.93 205,-147.23"/>
<polygon fill="black" stroke="black" points="208.5,-147.45 205,-137.45 201.5,-147.45 208.5,-147.45"/>
<text text-anchor="start" x="209" y="-162" font-family="Courier New" font-weight="bold" font-size="10.00" fill="blue">O_ACCEPT(WIP1,)</text>
</g>
<!-- 10 -->
<g id="node4" class="node">
<title>10</title>
<polyline fill="none" stroke="darkred" stroke-width="3" points="193.5,-10.5 216.5,-10.5"/>
<text text-anchor="start" x="197" y="-18.4" font-family="Courier New" font-weight="bold" font-size="14.00">10</text>
<path fill="none" stroke="darkred" stroke-width="3" d="M199.5,-5.5C199.5,-5.5 210.5,-5.5 210.5,-5.5 216,-5.5 221.5,-11 221.5,-16.5 221.5,-16.5 221.5,-27.5 221.5,-27.5 221.5,-33 216,-38.5 210.5,-38.5 210.5,-38.5 199.5,-38.5 199.5,-38.5 194,-38.5 188.5,-33 188.5,-27.5 188.5,-27.5 188.5,-16.5 188.5,-16.5 188.5,-11 194,-5.5 199.5,-5.5"/>
</g>
<!-- 1&#45;&gt;10 -->
<g id="edge2" class="edge">
<title>1&#45;&gt;10</title>
<path fill="none" stroke="black" d="M205,-100.19C205,-87.78 205,-70.48 205,-55.41"/>
<polygon fill="black" stroke="black" points="208.5,-55.45 205,-45.45 201.5,-55.45 208.5,-55.45"/>
<text text-anchor="start" x="209" y="-70" font-family="Courier New" font-weight="bold" font-size="10.00" fill="blue">SHOW(WIP2,)</text>
</g>
<!-- 10&#45;&gt;10 -->
<g id="edge3" class="edge">
<title>10&#45;&gt;10</title>
<path fill="none" stroke="black" d="M231.79,-26.68C241.78,-26.83 250,-25.27 250,-22 250,-20.11 247.25,-18.79 243.01,-18.04"/>
<polygon fill="black" stroke="black" points="243.51,-14.57 233.31,-17.42 243.06,-21.55 243.51,-14.57"/>
<text text-anchor="start" x="254" y="-20" font-family="Courier New" font-weight="bold" font-size="10.00" fill="orange">DROP(0,0)</text>
</g>
<!-- 10&#45;&gt;10 -->
<g id="edge4" class="edge">
<title>10&#45;&gt;10</title>
<path fill="none" stroke="black" d="M231.88,-29.21C264.88,-33.66 312,-31.25 312,-22 312,-13.76 274.62,-10.95 243.13,-13.58"/>
<polygon fill="black" stroke="black" points="242.95,-10.08 233.38,-14.63 243.7,-17.04 242.95,-10.08"/>
<text text-anchor="start" x="316" y="-20" font-family="Courier New" font-weight="bold" font-size="10.00" fill="orange">GRAB(WIP1,)</text>
</g>
<!-- status -->
<g id="node5" class="node">
<title>status</title>
<polygon fill="none" stroke="black" points="250,-192.5 250,-268.5 578,-268.5 578,-192.5 250,-192.5"/>
<polygon fill="none" stroke="black" points="261,-243.5 261,-261.5 567,-261.5 567,-243.5 261,-243.5"/>
<text text-anchor="start" x="368.99" y="-250.5" font-family="Courier New" font-weight="bold" font-size="10.00">S11_LUNCHCRUMBS</text>
<polygon fill="none" stroke="black" points="261,-199.5 261,-241.5 567,-241.5 567,-199.5 261,-199.5"/>
<text text-anchor="start" x="264" y="-229.5" font-family="Courier New" font-size="10.00" fill="green">VIEW::IDV_LUNCHCU @pos(left:139, top:139)</text>
<text text-anchor="start" x="264" y="-217.5" font-family="Courier New" font-size="10.00" fill="green">S11_LUNCHCRUMBS::M_BIN(&#39;IDD_LUNCHCRUMBS&#39;,&#39;&#39;,&#39;&#39;,&#39;&#39;)</text>
<text text-anchor="start" x="264" y="-205.5" font-family="Courier New" font-size="10.00" fill="green">{state:&#39;10&#39;: wAccept:IDD_LUNCHCRUMBS</text>
<polygon fill="none" stroke="black" points="258,-196.5 258,-264.5 570,-264.5 570,-196.5 258,-196.5"/>
</g>
</g>
</svg>
