<?xml version="1.0" encoding="UTF-8" standalone="no"?>
<!DOCTYPE svg PUBLIC "-//W3C//DTD SVG 1.1//EN"
 "http://www.w3.org/Graphics/SVG/1.1/DTD/svg11.dtd">
<!-- Generated by graphviz version 7.1.0 (20230121.1956)
 -->
<!-- Title: Automaton Pages: 1 -->
<svg width="1276pt" height="1045pt"
 viewBox="0.00 0.00 1276.00 1045.00" xmlns="http://www.w3.org/2000/svg" xmlns:xlink="http://www.w3.org/1999/xlink">
<g id="graph0" class="graph" transform="scale(1 1) rotate(0) translate(4 1041)">
<title>Automaton</title>
<polygon fill="white" stroke="none" points="-4,4 -4,-1041 1272,-1041 1272,4 -4,4"/>
<!-- filename -->
<g id="node1" class="node">
<title>filename</title>
<polygon fill="none" stroke="black" points="0,-904.5 0,-1036.5 364,-1036.5 364,-904.5 0,-904.5"/>
<polygon fill="none" stroke="black" points="11,-1011.5 11,-1029.5 353,-1029.5 353,-1011.5 11,-1011.5"/>
<text text-anchor="start" x="97.99" y="-1018.5" font-family="Courier New" font-weight="bold" font-size="10.00">S12_SHELF_1_ING4::M12_xPLANT</text>
<polygon fill="none" stroke="black" points="11,-931.5 11,-1009.5 353,-1009.5 353,-931.5 11,-931.5"/>
<text text-anchor="start" x="14" y="-997.5" font-family="Courier New" font-size="10.00" fill="green">used in the temple to hold ingredients for spell making.</text>
<text text-anchor="start" x="14" y="-985.5" font-family="Courier New" font-size="10.00" fill="green">WIP1: The scroll holder</text>
<text text-anchor="start" x="14" y="-973.5" font-family="Courier New" font-size="10.00" fill="green">WIP2: The scroll map</text>
<text text-anchor="start" x="14" y="-961.5" font-family="Courier New" font-size="10.00" fill="green">SIG_SHOW: A scroll was dropped</text>
<text text-anchor="start" x="14" y="-949.5" font-family="Courier New" font-size="10.00" fill="green">SIG_HIDE: The scroll was grabbed</text>
<text text-anchor="start" x="14" y="-937.5" font-family="Courier New" font-size="10.00" fill="green">SIG_CLOSE: The spell is cast</text>
<polygon fill="none" stroke="black" points="11,-911.5 11,-929.5 353,-929.5 353,-911.5 11,-911.5"/>
<text text-anchor="start" x="136.99" y="-917.5" font-family="Courier New" font-size="10.00" fill="brown">start state = 0</text>
<polygon fill="none" stroke="black" points="8,-908.5 8,-1032.5 356,-1032.5 356,-908.5 8,-908.5"/>
</g>
<!-- 0 -->
<g id="node2" class="node">
<title>0</title>
<polyline fill="none" stroke="darkred" stroke-width="3" points="396.5,-989 571.5,-989"/>
<text text-anchor="start" x="479.8" y="-996.9" font-family="Courier New" font-weight="bold" font-size="14.00">0</text>
<polyline fill="none" stroke="darkred" stroke-width="3" points="396.5,-929 571.5,-929"/>
<polyline fill="none" stroke="darkred" stroke-width="3" points="571.5,-984 396.5,-984"/>
<text text-anchor="start" x="400" y="-971.5" font-family="Courier New" font-size="10.00" fill="green">IDLE</text>
<text text-anchor="start" x="400" y="-959.5" font-family="Courier New" font-size="10.00" fill="green">Wait here when no scroll</text>
<text text-anchor="start" x="400" y="-947.5" font-family="Courier New" font-size="10.00" fill="green">or ingredient not required </text>
<text text-anchor="start" x="400" y="-935.5" font-family="Courier New" font-size="10.00" fill="green">for the current scroll spell</text>
<path fill="none" stroke="darkred" stroke-width="3" d="M403.5,-924C403.5,-924 564.5,-924 564.5,-924 570.5,-924 576.5,-930 576.5,-936 576.5,-936 576.5,-1005 576.5,-1005 576.5,-1011 570.5,-1017 564.5,-1017 564.5,-1017 403.5,-1017 403.5,-1017 397.5,-1017 391.5,-1011 391.5,-1005 391.5,-1005 391.5,-936 391.5,-936 391.5,-930 397.5,-924 403.5,-924"/>
</g>
<!-- show_hint -->
<g id="node3" class="node">
<title>show_hint</title>
<polyline fill="none" stroke="darkred" points="256,-795 484,-795"/>
<text text-anchor="start" x="332.19" y="-802.4" font-family="Courier New" font-weight="bold" font-size="14.00">show_hint</text>
<polyline fill="none" stroke="darkred" points="256,-751 484,-751"/>
<polyline fill="none" stroke="darkred" points="484,-793 256,-793"/>
<text text-anchor="start" x="270.98" y="-781" font-family="Courier New" font-size="10.00" fill="green">1. There is a scroll attached</text>
<text text-anchor="start" x="270.98" y="-769" font-family="Courier New" font-size="10.00" fill="green">2. If this ingredient is required</text>
<text text-anchor="start" x="270.98" y="-757" font-family="Courier New" font-size="10.00" fill="green"> &#160;&#160;then a hint is displayed</text>
<polyline fill="none" stroke="darkred" points="256,-587 484,-587"/>
<polyline fill="none" stroke="darkred" points="484,-749 256,-749"/>
<text text-anchor="start" x="259" y="-737" font-family="Courier New" font-size="10.00" fill="blue">// find the ingredient</text>
<text text-anchor="start" x="259" y="-725" font-family="Courier New" font-size="10.00" fill="blue">// from S12_ING_x in wip2</text>
<text text-anchor="start" x="259" y="-713" font-family="Courier New" font-size="10.00" fill="blue">// and store in it bframe</text>
<text text-anchor="start" x="259" y="-701" font-family="Courier New" font-size="10.00" fill="blue">REF_MACHINE(WIP1);</text>
<text text-anchor="start" x="259" y="-689" font-family="Courier New" font-size="10.00" fill="blue">BFRAME=R_WOBJECT;</text>
<text text-anchor="start" x="259" y="-677" font-family="Courier New" font-size="10.00" fill="blue">MAPi(BFRAME,S12_SCROLL);</text>
<text text-anchor="start" x="259" y="-665" font-family="Courier New" font-size="10.00" fill="blue">MAP(BFRAME,WIP2);</text>
<text text-anchor="start" x="259" y="-653" font-family="Courier New" font-size="10.00" fill="blue">WACCEPT = BFRAME;</text>
<text text-anchor="start" x="259" y="-641" font-family="Courier New" font-size="10.00" fill="blue">if (WACCEPT &gt; 0) {</text>
<text text-anchor="start" x="259" y="-629" font-family="Courier New" font-size="10.00" fill="blue"> &#160;&#160;&#160;&#160;&#160;&#160;&#160;SHOW(WIP3); // show hint</text>
<text text-anchor="start" x="259" y="-617" font-family="Courier New" font-size="10.00" fill="blue"> &#160;&#160;&#160;&#160;&#160;&#160;&#160;MAPi(WACCEPT,S12_NATURE_REP);</text>
<text text-anchor="start" x="259" y="-605" font-family="Courier New" font-size="10.00" fill="blue"> &#160;&#160;&#160;&#160;&#160;&#160;&#160;C_ACCEPT(WACCEPT);</text>
<text text-anchor="start" x="259" y="-593" font-family="Courier New" font-size="10.00" fill="blue">}</text>
<polyline fill="none" stroke="darkred" points="256,-567 484,-567"/>
<polyline fill="none" stroke="darkred" points="484,-585 256,-585"/>
<text text-anchor="start" x="349" y="-573" font-family="Courier New" font-size="10.00" fill="blue">SHOW();</text>
<path fill="none" stroke="darkred" d="M265,-564C265,-564 475,-564 475,-564 481,-564 487,-570 487,-576 487,-576 487,-808 487,-808 487,-814 481,-820 475,-820 475,-820 265,-820 265,-820 259,-820 253,-814 253,-808 253,-808 253,-576 253,-576 253,-570 259,-564 265,-564"/>
</g>
<!-- 0&#45;&gt;show_hint -->
<g id="edge1" class="edge">
<title>0&#45;&gt;show_hint</title>
<path fill="none" stroke="black" d="M406.43,-918.62C395.52,-913 384.2,-907.9 373,-904 345.46,-894.4 262.16,-907.99 243,-886 223.38,-863.47 225.92,-837.72 239.4,-812.52"/>
<polygon fill="black" stroke="black" points="242.24,-814.59 244.31,-804.2 236.21,-811.03 242.24,-814.59"/>
<text text-anchor="start" x="247" y="-862" font-family="Courier New" font-weight="bold" font-size="10.00" fill="orange">WAIT(,SIG_SHOW)</text>
</g>
<!-- show_hint&#45;&gt;0 -->
<g id="edge11" class="edge">
<title>show_hint&#45;&gt;0</title>
<path fill="none" stroke="black" d="M348.17,-823.75C349.47,-845.41 354.07,-866.98 364,-886 368.7,-895 374.87,-903.23 381.93,-910.71"/>
<polygon fill="black" stroke="black" points="379.23,-912.97 388.82,-917.47 384.13,-907.97 379.23,-912.97"/>
<text text-anchor="start" x="368" y="-862" font-family="Courier New" font-weight="bold" font-size="10.00" fill="orange">WAIT(,SIG_HIDE)</text>
</g>
<!-- show_hint&#45;&gt;0 -->
<g id="edge12" class="edge">
<title>show_hint&#45;&gt;0</title>
<path fill="none" stroke="black" d="M454.34,-823.64C457.11,-829.75 459.69,-835.89 462,-842 469.82,-862.66 474.88,-886.25 478.15,-907.49"/>
<polygon fill="black" stroke="black" points="474.65,-907.77 479.52,-917.18 481.58,-906.78 474.65,-907.77"/>
<polygon fill="none" stroke="black" points="476,-865 476,-883 554,-883 554,-865 476,-865"/>
<text text-anchor="start" x="479" y="-872" font-family="Courier New" font-weight="bold" font-size="10.00" fill="blue">Z_EPSILON(,)</text>
<polygon fill="none" stroke="black" points="476,-845 476,-863 554,-863 554,-845 476,-845"/>
<text text-anchor="start" x="479" y="-851" font-family="Courier New" font-size="10.00" fill="brown">(WACCEPT==0)</text>
<polygon fill="none" stroke="black" points="473,-842 473,-886 557,-886 557,-842 473,-842"/>
</g>
<!-- ready -->
<g id="node5" class="node">
<title>ready</title>
<polyline fill="none" stroke="darkred" points="406,-439 586,-439"/>
<text text-anchor="start" x="475" y="-446.4" font-family="Courier New" font-weight="bold" font-size="14.00">ready</text>
<polyline fill="none" stroke="darkred" points="406,-407 586,-407"/>
<polyline fill="none" stroke="darkred" points="586,-437 406,-437"/>
<text text-anchor="start" x="409" y="-425" font-family="Courier New" font-size="10.00" fill="green">1. There is a scroll attached</text>
<text text-anchor="start" x="409" y="-413" font-family="Courier New" font-size="10.00" fill="green">2. An ingredient is present</text>
<path fill="none" stroke="darkred" d="M415,-404C415,-404 577,-404 577,-404 583,-404 589,-410 589,-416 589,-416 589,-452 589,-452 589,-458 583,-464 577,-464 577,-464 415,-464 415,-464 409,-464 403,-458 403,-452 403,-452 403,-416 403,-416 403,-410 409,-404 415,-404"/>
</g>
<!-- show_hint&#45;&gt;ready -->
<g id="edge10" class="edge">
<title>show_hint&#45;&gt;ready</title>
<path fill="none" stroke="black" d="M361.51,-560.1C361.88,-528.03 365.07,-499.14 374,-486 377.55,-480.78 381.74,-476.09 386.41,-471.88"/>
<polygon fill="black" stroke="black" points="388.45,-474.73 394.08,-465.76 384.08,-469.26 388.45,-474.73"/>
<polygon fill="none" stroke="black" points="377,-515 377,-533 467,-533 467,-515 377,-515"/>
<text text-anchor="start" x="395" y="-522" font-family="Courier New" font-weight="bold" font-size="10.00" fill="orange">DROP(0,0)</text>
<polygon fill="none" stroke="black" points="377,-495 377,-513 467,-513 467,-495 377,-495"/>
<text text-anchor="start" x="380" y="-501" font-family="Courier New" font-size="10.00" fill="blue">SHOW(WOBJECT);</text>
<polygon fill="none" stroke="black" points="374,-492 374,-536 470,-536 470,-492 374,-492"/>
</g>
<!-- hold_if_invalid -->
<g id="node4" class="node">
<title>hold_if_invalid</title>
<polyline fill="none" stroke="darkred" points="344,-191 572,-191"/>
<text text-anchor="start" x="394.99" y="-198.4" font-family="Courier New" font-weight="bold" font-size="14.00">hold_if_invalid</text>
<polyline fill="none" stroke="darkred" points="344,-159 572,-159"/>
<polyline fill="none" stroke="darkred" points="572,-189 344,-189"/>
<text text-anchor="start" x="385.99" y="-177" font-family="Courier New" font-size="10.00" fill="green">Wait here if the object</text>
<text text-anchor="start" x="385.99" y="-165" font-family="Courier New" font-size="10.00" fill="green">is invalid for the spell</text>
<polyline fill="none" stroke="darkred" points="344,-7 572,-7"/>
<polyline fill="none" stroke="darkred" points="572,-157 344,-157"/>
<text text-anchor="start" x="347" y="-145" font-family="Courier New" font-size="10.00" fill="blue">// find the ingredient</text>
<text text-anchor="start" x="347" y="-133" font-family="Courier New" font-size="10.00" fill="blue">// from S12_ING_x in wip2</text>
<text text-anchor="start" x="347" y="-121" font-family="Courier New" font-size="10.00" fill="blue">// and store in it bframe</text>
<text text-anchor="start" x="347" y="-109" font-family="Courier New" font-size="10.00" fill="blue">REF_MACHINE(WIP1);</text>
<text text-anchor="start" x="347" y="-97" font-family="Courier New" font-size="10.00" fill="blue">BFRAME=R_WOBJECT;</text>
<text text-anchor="start" x="347" y="-85" font-family="Courier New" font-size="10.00" fill="blue">MAPi(BFRAME,S12_SCROLL);</text>
<text text-anchor="start" x="347" y="-73" font-family="Courier New" font-size="10.00" fill="blue">MAP(BFRAME,WIP2);</text>
<text text-anchor="start" x="347" y="-61" font-family="Courier New" font-size="10.00" fill="blue">WACCEPT = BFRAME;</text>
<text text-anchor="start" x="347" y="-49" font-family="Courier New" font-size="10.00" fill="blue">if (WACCEPT &gt; 0) {</text>
<text text-anchor="start" x="347" y="-37" font-family="Courier New" font-size="10.00" fill="blue"> &#160;&#160;&#160;&#160;&#160;&#160;&#160;MAPi(WACCEPT,S12_NATURE_REP);</text>
<text text-anchor="start" x="347" y="-25" font-family="Courier New" font-size="10.00" fill="blue"> &#160;&#160;&#160;&#160;&#160;&#160;&#160;C_ACCEPT(WACCEPT);</text>
<text text-anchor="start" x="347" y="-13" font-family="Courier New" font-size="10.00" fill="blue">}</text>
<path fill="none" stroke="darkred" d="M353,-4C353,-4 563,-4 563,-4 569,-4 575,-10 575,-16 575,-16 575,-204 575,-204 575,-210 569,-216 563,-216 563,-216 353,-216 353,-216 347,-216 341,-210 341,-204 341,-204 341,-16 341,-16 341,-10 347,-4 353,-4"/>
</g>
<!-- hold_if_invalid&#45;&gt;show_hint -->
<g id="edge2" class="edge">
<title>hold_if_invalid&#45;&gt;show_hint</title>
<path fill="none" stroke="black" d="M421.28,-219.86C398.29,-293.92 370.85,-394.69 359,-486 355.8,-510.68 358.08,-517.13 359,-542 359.08,-544.24 359.17,-546.49 359.27,-548.76"/>
<polygon fill="black" stroke="black" points="355.77,-548.87 359.73,-558.7 362.76,-548.55 355.77,-548.87"/>
<text text-anchor="start" x="386" y="-370" font-family="Courier New" font-weight="bold" font-size="10.00" fill="orange">GRAB(,)</text>
</g>
<!-- hold_if_invalid&#45;&gt;ready -->
<g id="edge3" class="edge">
<title>hold_if_invalid&#45;&gt;ready</title>
<path fill="none" stroke="black" d="M443,-219.79C440.61,-259.36 441.5,-304.14 451,-344 454.78,-359.86 461.87,-376.09 469.32,-390.27"/>
<polygon fill="black" stroke="black" points="466.16,-391.79 474.03,-398.88 472.3,-388.43 466.16,-391.79"/>
<text text-anchor="start" x="455" y="-308" font-family="Courier New" font-weight="bold" font-size="10.00" fill="blue">IS_A(WOBJECT,WACCEPT)</text>
</g>
<!-- no_scroll -->
<g id="node6" class="node">
<title>no_scroll</title>
<polyline fill="none" stroke="darkred" points="605,-315 791,-315"/>
<text text-anchor="start" x="660.19" y="-322.4" font-family="Courier New" font-weight="bold" font-size="14.00">no_scroll</text>
<polyline fill="none" stroke="darkred" points="605,-283 791,-283"/>
<polyline fill="none" stroke="darkred" points="791,-313 605,-313"/>
<text text-anchor="start" x="608" y="-301" font-family="Courier New" font-size="10.00" fill="green">1. There is no scroll attached</text>
<text text-anchor="start" x="608" y="-289" font-family="Courier New" font-size="10.00" fill="green">2. An ingredient is present</text>
<path fill="none" stroke="darkred" d="M614,-280C614,-280 782,-280 782,-280 788,-280 794,-286 794,-292 794,-292 794,-328 794,-328 794,-334 788,-340 782,-340 782,-340 614,-340 614,-340 608,-340 602,-334 602,-328 602,-328 602,-292 602,-292 602,-286 608,-280 614,-280"/>
</g>
<!-- hold_if_invalid&#45;&gt;no_scroll -->
<g id="edge4" class="edge">
<title>hold_if_invalid&#45;&gt;no_scroll</title>
<path fill="none" stroke="black" d="M583,-198.54C599.51,-211.32 615.92,-224.68 631,-238 641.42,-247.21 652.04,-257.8 661.66,-267.95"/>
<polygon fill="black" stroke="black" points="659.07,-270.31 668.45,-275.23 664.19,-265.53 659.07,-270.31"/>
<text text-anchor="start" x="654" y="-246" font-family="Courier New" font-weight="bold" font-size="10.00" fill="orange">WAIT(,SIG_HIDE)</text>
</g>
<!-- ready&#45;&gt;0 -->
<g id="edge9" class="edge">
<title>ready&#45;&gt;0</title>
<path fill="none" stroke="black" d="M551.29,-467.69C556.78,-473.11 561.58,-479.22 565,-486 605.03,-565.37 593.83,-803.39 561,-886 557.72,-894.25 553.22,-902.17 548.02,-909.64"/>
<polygon fill="black" stroke="black" points="545.23,-907.53 542.01,-917.63 550.82,-911.74 545.23,-907.53"/>
<polygon fill="none" stroke="black" points="593,-709 593,-727 707,-727 707,-709 593,-709"/>
<text text-anchor="start" x="601.99" y="-716" font-family="Courier New" font-weight="bold" font-size="10.00" fill="orange">WAIT(,SIG_CLOSE)</text>
<polygon fill="none" stroke="black" points="593,-689 593,-707 707,-707 707,-689 593,-689"/>
<text text-anchor="start" x="596" y="-695" font-family="Courier New" font-size="10.00" fill="green">consume the object</text>
<polygon fill="none" stroke="black" points="593,-657 593,-687 707,-687 707,-657 593,-657"/>
<text text-anchor="start" x="620" y="-675" font-family="Courier New" font-size="10.00" fill="blue">WOBJECT=0;</text>
<text text-anchor="start" x="620" y="-663" font-family="Courier New" font-size="10.00" fill="blue">ASHOW();</text>
<polygon fill="none" stroke="black" points="590,-654 590,-730 710,-730 710,-654 590,-654"/>
</g>
<!-- ready&#45;&gt;show_hint -->
<g id="edge7" class="edge">
<title>ready&#45;&gt;show_hint</title>
<path fill="none" stroke="black" d="M492.75,-467.87C489.76,-489.59 484.19,-518.31 474,-542 472.86,-544.66 471.66,-547.33 470.42,-549.99"/>
<polygon fill="black" stroke="black" points="467.32,-548.35 466.07,-558.87 473.61,-551.43 467.32,-548.35"/>
<polygon fill="none" stroke="black" points="492,-515 492,-533 558,-533 558,-515 492,-515"/>
<text text-anchor="start" x="498" y="-522" font-family="Courier New" font-weight="bold" font-size="10.00" fill="orange">GRAB(0,0)</text>
<polygon fill="none" stroke="black" points="492,-495 492,-513 558,-513 558,-495 492,-495"/>
<text text-anchor="start" x="495" y="-501" font-family="Courier New" font-size="10.00" fill="blue">WOBJECT=0;</text>
<polygon fill="none" stroke="black" points="489,-492 489,-536 561,-536 561,-492 489,-492"/>
</g>
<!-- ready&#45;&gt;no_scroll -->
<g id="edge8" class="edge">
<title>ready&#45;&gt;no_scroll</title>
<path fill="none" stroke="black" d="M550.14,-400.07C569.91,-388.06 592.45,-374.4 613,-362 619.69,-357.97 626.67,-353.76 633.64,-349.57"/>
<polygon fill="black" stroke="black" points="635.04,-352.81 641.81,-344.66 631.44,-346.81 635.04,-352.81"/>
<text text-anchor="start" x="617" y="-370" font-family="Courier New" font-weight="bold" font-size="10.00" fill="orange">WAIT(0,SIG_HIDE)</text>
</g>
<!-- no_scroll&#45;&gt;0 -->
<g id="edge5" class="edge">
<title>no_scroll&#45;&gt;0</title>
<path fill="none" stroke="black" d="M712.22,-343.99C714.2,-349.89 715.93,-356.05 717,-362 718.58,-370.75 717.03,-373.11 717,-382 716.33,-578.45 809.35,-652.24 714,-824 709.95,-831.3 640.17,-874.95 578.53,-912.55"/>
<polygon fill="black" stroke="black" points="576.73,-909.55 570.01,-917.74 580.37,-915.53 576.73,-909.55"/>
<polygon fill="none" stroke="black" points="739,-521 739,-539 805,-539 805,-521 739,-521"/>
<text text-anchor="start" x="745" y="-528" font-family="Courier New" font-weight="bold" font-size="10.00" fill="orange">GRAB(0,0)</text>
<polygon fill="none" stroke="black" points="739,-489 739,-519 805,-519 805,-489 739,-489"/>
<text text-anchor="start" x="742" y="-507" font-family="Courier New" font-size="10.00" fill="blue">WOBJECT=0;</text>
<text text-anchor="start" x="742" y="-495" font-family="Courier New" font-size="10.00" fill="blue">SHOW();</text>
<polygon fill="none" stroke="black" points="736,-486 736,-542 808,-542 808,-486 736,-486"/>
</g>
<!-- no_scroll&#45;&gt;hold_if_invalid -->
<g id="edge6" class="edge">
<title>no_scroll&#45;&gt;hold_if_invalid</title>
<path fill="none" stroke="black" d="M594.26,-279.7C557.47,-269.14 524.64,-259.44 523,-258 513.58,-249.76 505.47,-239.89 498.49,-229.22"/>
<polygon fill="black" stroke="black" points="501.64,-227.65 493.44,-220.94 495.66,-231.3 501.64,-227.65"/>
<text text-anchor="start" x="527" y="-246" font-family="Courier New" font-weight="bold" font-size="10.00" fill="orange">WAIT(0,SIG_SHOW)</text>
</g>
<!-- status -->
<g id="node7" class="node">
<title>status</title>
<polygon fill="none" stroke="black" points="604,-922.5 604,-1018.5 1268,-1018.5 1268,-922.5 604,-922.5"/>
<polygon fill="none" stroke="black" points="615,-993.5 615,-1011.5 1257,-1011.5 1257,-993.5 615,-993.5"/>
<text text-anchor="start" x="887.99" y="-1000.5" font-family="Courier New" font-weight="bold" font-size="10.00">S12_SHELF_1_ING4</text>
<polygon fill="none" stroke="black" points="615,-949.5 615,-991.5 1257,-991.5 1257,-949.5 615,-949.5"/>
<text text-anchor="start" x="618" y="-979.5" font-family="Courier New" font-size="10.00" fill="green">VIEW: IDV_TMCU1</text>
<text text-anchor="start" x="618" y="-967.5" font-family="Courier New" font-size="10.00" fill="green">S12_SHELF_1_ING4::M12_xPLANT(&#39;S12_SHELF_1_SCROLL&#39;,&#39;S12_ING_DA&#39;,&#39;IDS_FISHXX&#39;,&#39;S12_SHELF_1_INGREDIENTS_MGR&#39;)</text>
<text text-anchor="start" x="618" y="-955.5" font-family="Courier New" font-size="10.00" fill="green">{&#39;0&#39;: bFrame:9 wAccept:IDD_FISHASH1}</text>
<polygon fill="none" stroke="black" points="615,-929.5 615,-947.5 1257,-947.5 1257,-929.5 615,-929.5"/>
<text text-anchor="start" x="933" y="-935.5" font-family="Courier New" font-size="10.00" fill="blue">_</text>
<polygon fill="none" stroke="black" points="612,-926.5 612,-1014.5 1260,-1014.5 1260,-926.5 612,-926.5"/>
</g>
</g>
</svg>
