<?xml version="1.0" encoding="UTF-8" standalone="no"?>
<!DOCTYPE svg PUBLIC "-//W3C//DTD SVG 1.1//EN"
 "http://www.w3.org/Graphics/SVG/1.1/DTD/svg11.dtd">
<!-- Generated by graphviz version 7.1.0 (20230121.1956)
 -->
<!-- Title: Automaton Pages: 1 -->
<svg width="1798pt" height="1208pt"
 viewBox="0.00 0.00 1798.00 1208.00" xmlns="http://www.w3.org/2000/svg" xmlns:xlink="http://www.w3.org/1999/xlink">
<g id="graph0" class="graph" transform="scale(1 1) rotate(0) translate(4 1204)">
<title>Automaton</title>
<polygon fill="white" stroke="none" points="-4,4 -4,-1204 1794,-1204 1794,4 -4,4"/>
<!-- filename -->
<g id="node1" class="node">
<title>filename</title>
<polygon fill="none" stroke="black" points="0,-1122 0,-1174 274,-1174 274,-1122 0,-1122"/>
<polygon fill="none" stroke="black" points="11,-1149 11,-1167 263,-1167 263,-1149 11,-1149"/>
<text text-anchor="start" x="14" y="-1156" font-family="Courier New" font-weight="bold" font-size="10.00">S12_SHELF_1_INGREDIENTS_MGR::M12_xING_MGR</text>
<polygon fill="none" stroke="black" points="11,-1129 11,-1147 263,-1147 263,-1129 11,-1129"/>
<text text-anchor="start" x="91.99" y="-1135" font-family="Courier New" font-size="10.00" fill="brown">start state = 0</text>
<polygon fill="none" stroke="black" points="8,-1126 8,-1170 266,-1170 266,-1126 8,-1126"/>
</g>
<!-- 0 -->
<g id="node2" class="node">
<title>0</title>
<polyline fill="none" stroke="darkred" stroke-width="3" points="311.5,-1136.5 326.5,-1136.5"/>
<text text-anchor="start" x="315" y="-1144.4" font-family="Courier New" font-weight="bold" font-size="14.00">0</text>
<path fill="none" stroke="darkred" stroke-width="3" d="M314.83,-1131.5C314.83,-1131.5 323.17,-1131.5 323.17,-1131.5 327.33,-1131.5 331.5,-1135.67 331.5,-1139.83 331.5,-1139.83 331.5,-1156.17 331.5,-1156.17 331.5,-1160.33 327.33,-1164.5 323.17,-1164.5 323.17,-1164.5 314.83,-1164.5 314.83,-1164.5 310.67,-1164.5 306.5,-1160.33 306.5,-1156.17 306.5,-1156.17 306.5,-1139.83 306.5,-1139.83 306.5,-1135.67 310.67,-1131.5 314.83,-1131.5"/>
</g>
<!-- 0&#45;&gt;0 -->
<g id="edge1" class="edge">
<title>0&#45;&gt;0</title>
<path fill="none" stroke="black" d="M345.79,-1152.99C355.78,-1153.15 364,-1151.49 364,-1148 364,-1145.98 361.25,-1144.58 357.01,-1143.78"/>
<polygon fill="black" stroke="black" points="357.52,-1140.31 347.3,-1143.11 357.04,-1147.29 357.52,-1140.31"/>
<polygon fill="none" stroke="black" points="367,-1167 367,-1185 571,-1185 571,-1167 367,-1167"/>
<text text-anchor="start" x="420.99" y="-1174" font-family="Courier New" font-weight="bold" font-size="10.00" fill="orange">WAIT(0,SIG_SHOW)</text>
<polygon fill="none" stroke="black" points="367,-1111 367,-1165 571,-1165 571,-1111 367,-1111"/>
<text text-anchor="start" x="370" y="-1153" font-family="Courier New" font-size="10.00" fill="blue"> &#160;&#160;&#160;&#160;&#160;&#160;&#160;SIGNAL(WIP1,SIG_SHOW);</text>
<text text-anchor="start" x="370" y="-1141" font-family="Courier New" font-size="10.00" fill="blue"> &#160;&#160;&#160;&#160;&#160;&#160;&#160;SIGNAL(WIP2,SIG_SHOW); &#160;&#160;</text>
<text text-anchor="start" x="370" y="-1129" font-family="Courier New" font-size="10.00" fill="blue"> &#160;&#160;&#160;&#160;&#160;&#160;&#160;SIGNAL(WIP3,SIG_SHOW);</text>
<text text-anchor="start" x="370" y="-1117" font-family="Courier New" font-size="10.00" fill="blue"> &#160;&#160;&#160;&#160;&#160;&#160;&#160;SIGNAL(WIP4,SIG_SHOW);</text>
<polygon fill="none" stroke="black" points="364,-1108 364,-1188 574,-1188 574,-1108 364,-1108"/>
</g>
<!-- 0&#45;&gt;0 -->
<g id="edge2" class="edge">
<title>0&#45;&gt;0</title>
<path fill="none" stroke="black" d="M345.96,-1153.64C412.77,-1160.95 574,-1159.07 574,-1148 574,-1137.52 429.32,-1135.28 357.28,-1141.28"/>
<polygon fill="black" stroke="black" points="357.09,-1137.78 347.47,-1142.21 357.76,-1144.75 357.09,-1137.78"/>
<polygon fill="none" stroke="black" points="577,-1167 577,-1185 781,-1185 781,-1167 577,-1167"/>
<text text-anchor="start" x="630.99" y="-1174" font-family="Courier New" font-weight="bold" font-size="10.00" fill="orange">WAIT(0,SIG_HIDE)</text>
<polygon fill="none" stroke="black" points="577,-1111 577,-1165 781,-1165 781,-1111 577,-1111"/>
<text text-anchor="start" x="580" y="-1153" font-family="Courier New" font-size="10.00" fill="blue"> &#160;&#160;&#160;&#160;&#160;&#160;&#160;SIGNAL(WIP1,SIG_HIDE);</text>
<text text-anchor="start" x="580" y="-1141" font-family="Courier New" font-size="10.00" fill="blue"> &#160;&#160;&#160;&#160;&#160;&#160;&#160;SIGNAL(WIP2,SIG_HIDE); &#160;&#160;</text>
<text text-anchor="start" x="580" y="-1129" font-family="Courier New" font-size="10.00" fill="blue"> &#160;&#160;&#160;&#160;&#160;&#160;&#160;SIGNAL(WIP3,SIG_HIDE);</text>
<text text-anchor="start" x="580" y="-1117" font-family="Courier New" font-size="10.00" fill="blue"> &#160;&#160;&#160;&#160;&#160;&#160;&#160;SIGNAL(WIP4,SIG_HIDE);</text>
<polygon fill="none" stroke="black" points="574,-1108 574,-1188 784,-1188 784,-1108 574,-1108"/>
</g>
<!-- 0&#45;&gt;0 -->
<g id="edge3" class="edge">
<title>0&#45;&gt;0</title>
<path fill="none" stroke="black" d="M345.72,-1154.43C446.41,-1167.7 784,-1165.56 784,-1148 784,-1131.04 469.09,-1128.46 356.85,-1140.26"/>
<polygon fill="black" stroke="black" points="356.74,-1136.75 347.22,-1141.39 357.56,-1143.7 356.74,-1136.75"/>
<polygon fill="none" stroke="black" points="787,-1179 787,-1197 997,-1197 997,-1179 787,-1179"/>
<text text-anchor="start" x="843.99" y="-1186" font-family="Courier New" font-weight="bold" font-size="10.00" fill="orange">WAIT(,SIG_CLOSE)</text>
<polygon fill="none" stroke="black" points="787,-1099 787,-1177 997,-1177 997,-1099 787,-1099"/>
<text text-anchor="start" x="790" y="-1165" font-family="Courier New" font-size="10.00" fill="blue"> &#160;&#160;&#160;&#160;&#160;&#160;&#160;SIGNAL(WIP1,SIG_CLOSE);</text>
<text text-anchor="start" x="790" y="-1153" font-family="Courier New" font-size="10.00" fill="blue"> &#160;&#160;&#160;&#160;&#160;&#160;&#160;SIGNAL(WIP2,SIG_CLOSE); &#160;&#160;</text>
<text text-anchor="start" x="790" y="-1141" font-family="Courier New" font-size="10.00" fill="blue"> &#160;&#160;&#160;&#160;&#160;&#160;&#160;SIGNAL(WIP3,SIG_CLOSE);</text>
<text text-anchor="start" x="790" y="-1129" font-family="Courier New" font-size="10.00" fill="blue"> &#160;&#160;&#160;&#160;&#160;&#160;&#160;SIGNAL(WIP4,SIG_CLOSE);</text>
<text text-anchor="start" x="790" y="-1117" font-family="Courier New" font-size="10.00" fill="blue"> &#160;&#160;&#160;&#160;&#160;&#160;&#160;ASSIGN(BPARM,0);</text>
<text text-anchor="start" x="790" y="-1105" font-family="Courier New" font-size="10.00" fill="blue"> &#160;&#160;&#160;&#160;&#160;&#160;&#160;ASSIGN(WPARM,0);</text>
<polygon fill="none" stroke="black" points="784,-1096 784,-1200 1000,-1200 1000,-1096 784,-1096"/>
</g>
<!-- 9 -->
<g id="node3" class="node">
<title>9</title>
<polyline fill="none" stroke="darkred" points="244,-1011 258,-1011"/>
<text text-anchor="start" x="247" y="-1018.4" font-family="Courier New" font-weight="bold" font-size="14.00">9</text>
<path fill="none" stroke="darkred" d="M247.67,-1008C247.67,-1008 254.33,-1008 254.33,-1008 257.67,-1008 261,-1011.33 261,-1014.67 261,-1014.67 261,-1029.33 261,-1029.33 261,-1032.67 257.67,-1036 254.33,-1036 254.33,-1036 247.67,-1036 247.67,-1036 244.33,-1036 241,-1032.67 241,-1029.33 241,-1029.33 241,-1014.67 241,-1014.67 241,-1011.33 244.33,-1008 247.67,-1008"/>
</g>
<!-- 0&#45;&gt;9 -->
<g id="edge4" class="edge">
<title>0&#45;&gt;9</title>
<path fill="none" stroke="black" d="M306.16,-1126.18C299.76,-1116.53 291.57,-1105.2 283,-1096 274.39,-1086.76 267.41,-1088.88 261,-1078 256.27,-1069.98 253.68,-1060.24 252.3,-1051.2"/>
<polygon fill="black" stroke="black" points="255.79,-1051 251.24,-1041.43 248.83,-1051.75 255.79,-1051"/>
<text text-anchor="start" x="265" y="-1066" font-family="Courier New" font-weight="bold" font-size="10.00" fill="orange">WAIT(0,SIG_CHECK)</text>
</g>
<!-- 10 -->
<g id="node4" class="node">
<title>10</title>
<polyline fill="none" stroke="darkred" points="234,-919 256,-919"/>
<text text-anchor="start" x="237" y="-926.4" font-family="Courier New" font-weight="bold" font-size="14.00">10</text>
<path fill="none" stroke="darkred" d="M240.33,-916C240.33,-916 249.67,-916 249.67,-916 254.33,-916 259,-920.67 259,-925.33 259,-925.33 259,-934.67 259,-934.67 259,-939.33 254.33,-944 249.67,-944 249.67,-944 240.33,-944 240.33,-944 235.67,-944 231,-939.33 231,-934.67 231,-934.67 231,-925.33 231,-925.33 231,-920.67 235.67,-916 240.33,-916"/>
</g>
<!-- 9&#45;&gt;10 -->
<g id="edge14" class="edge">
<title>9&#45;&gt;10</title>
<path fill="none" stroke="black" d="M249.87,-1004.07C249.03,-991.38 247.85,-973.71 246.86,-958.94"/>
<polygon fill="black" stroke="black" points="250.38,-959.11 246.22,-949.36 243.4,-959.57 250.38,-959.11"/>
<text text-anchor="start" x="253" y="-974" font-family="Courier New" font-weight="bold" font-size="10.00" fill="blue">ASSIGN(BPARM,0)</text>
</g>
<!-- 11 -->
<g id="node5" class="node">
<title>11</title>
<polyline fill="none" stroke="darkred" points="233,-803 255,-803"/>
<text text-anchor="start" x="236" y="-810.4" font-family="Courier New" font-weight="bold" font-size="14.00">11</text>
<path fill="none" stroke="darkred" d="M239.33,-800C239.33,-800 248.67,-800 248.67,-800 253.33,-800 258,-804.67 258,-809.33 258,-809.33 258,-818.67 258,-818.67 258,-823.33 253.33,-828 248.67,-828 248.67,-828 239.33,-828 239.33,-828 234.67,-828 230,-823.33 230,-818.67 230,-818.67 230,-809.33 230,-809.33 230,-804.67 234.67,-800 239.33,-800"/>
</g>
<!-- 10&#45;&gt;11 -->
<g id="edge5" class="edge">
<title>10&#45;&gt;11</title>
<path fill="none" stroke="black" d="M244.85,-912.18C244.69,-894.08 244.44,-864.98 244.25,-843.33"/>
<polygon fill="black" stroke="black" points="247.75,-843.37 244.16,-833.4 240.75,-843.43 247.75,-843.37"/>
<polygon fill="none" stroke="black" points="248,-873 248,-891 368,-891 368,-873 248,-873"/>
<text text-anchor="start" x="253.99" y="-880" font-family="Courier New" font-weight="bold" font-size="10.00" fill="blue">REF_MACHINE(WIP1,)</text>
<polygon fill="none" stroke="black" points="248,-853 248,-871 368,-871 368,-853 248,-853"/>
<text text-anchor="start" x="251" y="-859" font-family="Courier New" font-size="10.00" fill="blue">ADD(BPARM,R_WPARM);</text>
<polygon fill="none" stroke="black" points="245,-850 245,-894 371,-894 371,-850 245,-850"/>
</g>
<!-- 12 -->
<g id="node6" class="node">
<title>12</title>
<polyline fill="none" stroke="darkred" points="233,-687 255,-687"/>
<text text-anchor="start" x="236" y="-694.4" font-family="Courier New" font-weight="bold" font-size="14.00">12</text>
<path fill="none" stroke="darkred" d="M239.33,-684C239.33,-684 248.67,-684 248.67,-684 253.33,-684 258,-688.67 258,-693.33 258,-693.33 258,-702.67 258,-702.67 258,-707.33 253.33,-712 248.67,-712 248.67,-712 239.33,-712 239.33,-712 234.67,-712 230,-707.33 230,-702.67 230,-702.67 230,-693.33 230,-693.33 230,-688.67 234.67,-684 239.33,-684"/>
</g>
<!-- 11&#45;&gt;12 -->
<g id="edge6" class="edge">
<title>11&#45;&gt;12</title>
<path fill="none" stroke="black" d="M244,-796.18C244,-778.08 244,-748.98 244,-727.33"/>
<polygon fill="black" stroke="black" points="247.5,-727.4 244,-717.4 240.5,-727.4 247.5,-727.4"/>
<polygon fill="none" stroke="black" points="247,-757 247,-775 367,-775 367,-757 247,-757"/>
<text text-anchor="start" x="252.99" y="-764" font-family="Courier New" font-weight="bold" font-size="10.00" fill="blue">REF_MACHINE(WIP2,)</text>
<polygon fill="none" stroke="black" points="247,-737 247,-755 367,-755 367,-737 247,-737"/>
<text text-anchor="start" x="250" y="-743" font-family="Courier New" font-size="10.00" fill="blue">ADD(BPARM,R_WPARM);</text>
<polygon fill="none" stroke="black" points="244,-734 244,-778 370,-778 370,-734 244,-734"/>
</g>
<!-- 13 -->
<g id="node7" class="node">
<title>13</title>
<polyline fill="none" stroke="darkred" points="233,-567 255,-567"/>
<text text-anchor="start" x="236" y="-574.4" font-family="Courier New" font-weight="bold" font-size="14.00">13</text>
<path fill="none" stroke="darkred" d="M239.33,-564C239.33,-564 248.67,-564 248.67,-564 253.33,-564 258,-568.67 258,-573.33 258,-573.33 258,-582.67 258,-582.67 258,-587.33 253.33,-592 248.67,-592 248.67,-592 239.33,-592 239.33,-592 234.67,-592 230,-587.33 230,-582.67 230,-582.67 230,-573.33 230,-573.33 230,-568.67 234.67,-564 239.33,-564"/>
</g>
<!-- 12&#45;&gt;13 -->
<g id="edge7" class="edge">
<title>12&#45;&gt;13</title>
<path fill="none" stroke="black" d="M244,-680.09C244,-661.08 244,-629.89 244,-607.18"/>
<polygon fill="black" stroke="black" points="247.5,-607.39 244,-597.39 240.5,-607.39 247.5,-607.39"/>
<polygon fill="none" stroke="black" points="247,-641 247,-659 367,-659 367,-641 247,-641"/>
<text text-anchor="start" x="252.99" y="-648" font-family="Courier New" font-weight="bold" font-size="10.00" fill="blue">REF_MACHINE(WIP3,)</text>
<polygon fill="none" stroke="black" points="247,-621 247,-639 367,-639 367,-621 247,-621"/>
<text text-anchor="start" x="250" y="-627" font-family="Courier New" font-size="10.00" fill="blue">ADD(BPARM,R_WPARM);</text>
<polygon fill="none" stroke="black" points="244,-618 244,-662 370,-662 370,-618 244,-618"/>
</g>
<!-- 19 -->
<g id="node8" class="node">
<title>19</title>
<polyline fill="none" stroke="darkred" points="233,-447 255,-447"/>
<text text-anchor="start" x="236" y="-454.4" font-family="Courier New" font-weight="bold" font-size="14.00">19</text>
<path fill="none" stroke="darkred" d="M239.33,-444C239.33,-444 248.67,-444 248.67,-444 253.33,-444 258,-448.67 258,-453.33 258,-453.33 258,-462.67 258,-462.67 258,-467.33 253.33,-472 248.67,-472 248.67,-472 239.33,-472 239.33,-472 234.67,-472 230,-467.33 230,-462.67 230,-462.67 230,-453.33 230,-453.33 230,-448.67 234.67,-444 239.33,-444"/>
</g>
<!-- 13&#45;&gt;19 -->
<g id="edge8" class="edge">
<title>13&#45;&gt;19</title>
<path fill="none" stroke="black" d="M244,-560.09C244,-541.08 244,-509.89 244,-487.18"/>
<polygon fill="black" stroke="black" points="247.5,-487.39 244,-477.39 240.5,-487.39 247.5,-487.39"/>
<polygon fill="none" stroke="black" points="247,-517 247,-535 367,-535 367,-517 247,-517"/>
<text text-anchor="start" x="252.99" y="-524" font-family="Courier New" font-weight="bold" font-size="10.00" fill="blue">REF_MACHINE(WIP4,)</text>
<polygon fill="none" stroke="black" points="247,-497 247,-515 367,-515 367,-497 247,-497"/>
<text text-anchor="start" x="250" y="-503" font-family="Courier New" font-size="10.00" fill="blue">ADD(BPARM,R_WPARM);</text>
<polygon fill="none" stroke="black" points="244,-494 244,-538 370,-538 370,-494 244,-494"/>
</g>
<!-- 20 -->
<g id="node9" class="node">
<title>20</title>
<polyline fill="none" stroke="darkred" points="233,-355 255,-355"/>
<text text-anchor="start" x="236" y="-362.4" font-family="Courier New" font-weight="bold" font-size="14.00">20</text>
<path fill="none" stroke="darkred" d="M239.33,-352C239.33,-352 248.67,-352 248.67,-352 253.33,-352 258,-356.67 258,-361.33 258,-361.33 258,-370.67 258,-370.67 258,-375.33 253.33,-380 248.67,-380 248.67,-380 239.33,-380 239.33,-380 234.67,-380 230,-375.33 230,-370.67 230,-370.67 230,-361.33 230,-361.33 230,-356.67 234.67,-352 239.33,-352"/>
</g>
<!-- 19&#45;&gt;20 -->
<g id="edge9" class="edge">
<title>19&#45;&gt;20</title>
<path fill="none" stroke="black" d="M244,-440.07C244,-427.38 244,-409.71 244,-394.94"/>
<polygon fill="black" stroke="black" points="247.5,-395.37 244,-385.37 240.5,-395.37 247.5,-395.37"/>
<text text-anchor="start" x="248" y="-410" font-family="Courier New" font-weight="bold" font-size="10.00" fill="blue">ASSIGN(WPARM,0)</text>
</g>
<!-- 21 -->
<g id="node10" class="node">
<title>21</title>
<polyline fill="none" stroke="darkred" points="233,-239 255,-239"/>
<text text-anchor="start" x="236" y="-246.4" font-family="Courier New" font-weight="bold" font-size="14.00">21</text>
<path fill="none" stroke="darkred" d="M239.33,-236C239.33,-236 248.67,-236 248.67,-236 253.33,-236 258,-240.67 258,-245.33 258,-245.33 258,-254.67 258,-254.67 258,-259.33 253.33,-264 248.67,-264 248.67,-264 239.33,-264 239.33,-264 234.67,-264 230,-259.33 230,-254.67 230,-254.67 230,-245.33 230,-245.33 230,-240.67 234.67,-236 239.33,-236"/>
</g>
<!-- 20&#45;&gt;21 -->
<g id="edge10" class="edge">
<title>20&#45;&gt;21</title>
<path fill="none" stroke="black" d="M244,-348.18C244,-330.08 244,-300.98 244,-279.33"/>
<polygon fill="black" stroke="black" points="247.5,-279.4 244,-269.4 240.5,-279.4 247.5,-279.4"/>
<polygon fill="none" stroke="black" points="247,-309 247,-327 367,-327 367,-309 247,-309"/>
<text text-anchor="start" x="252.99" y="-316" font-family="Courier New" font-weight="bold" font-size="10.00" fill="blue">REF_MACHINE(WIP1,)</text>
<polygon fill="none" stroke="black" points="247,-289 247,-307 367,-307 367,-289 247,-289"/>
<text text-anchor="start" x="250" y="-295" font-family="Courier New" font-size="10.00" fill="blue">ADD(WPARM,R_BPARM);</text>
<polygon fill="none" stroke="black" points="244,-286 244,-330 370,-330 370,-286 244,-286"/>
</g>
<!-- 22 -->
<g id="node11" class="node">
<title>22</title>
<polyline fill="none" stroke="darkred" points="233,-123 255,-123"/>
<text text-anchor="start" x="236" y="-130.4" font-family="Courier New" font-weight="bold" font-size="14.00">22</text>
<path fill="none" stroke="darkred" d="M239.33,-120C239.33,-120 248.67,-120 248.67,-120 253.33,-120 258,-124.67 258,-129.33 258,-129.33 258,-138.67 258,-138.67 258,-143.33 253.33,-148 248.67,-148 248.67,-148 239.33,-148 239.33,-148 234.67,-148 230,-143.33 230,-138.67 230,-138.67 230,-129.33 230,-129.33 230,-124.67 234.67,-120 239.33,-120"/>
</g>
<!-- 21&#45;&gt;22 -->
<g id="edge11" class="edge">
<title>21&#45;&gt;22</title>
<path fill="none" stroke="black" d="M244,-232.18C244,-214.08 244,-184.98 244,-163.33"/>
<polygon fill="black" stroke="black" points="247.5,-163.4 244,-153.4 240.5,-163.4 247.5,-163.4"/>
<polygon fill="none" stroke="black" points="247,-193 247,-211 367,-211 367,-193 247,-193"/>
<text text-anchor="start" x="252.99" y="-200" font-family="Courier New" font-weight="bold" font-size="10.00" fill="blue">REF_MACHINE(WIP2,)</text>
<polygon fill="none" stroke="black" points="247,-173 247,-191 367,-191 367,-173 247,-173"/>
<text text-anchor="start" x="250" y="-179" font-family="Courier New" font-size="10.00" fill="blue">ADD(WPARM,R_BPARM);</text>
<polygon fill="none" stroke="black" points="244,-170 244,-214 370,-214 370,-170 244,-170"/>
</g>
<!-- 23 -->
<g id="node12" class="node">
<title>23</title>
<polyline fill="none" stroke="darkred" points="303,-7 325,-7"/>
<text text-anchor="start" x="306" y="-14.4" font-family="Courier New" font-weight="bold" font-size="14.00">23</text>
<path fill="none" stroke="darkred" d="M309.33,-4C309.33,-4 318.67,-4 318.67,-4 323.33,-4 328,-8.67 328,-13.33 328,-13.33 328,-22.67 328,-22.67 328,-27.33 323.33,-32 318.67,-32 318.67,-32 309.33,-32 309.33,-32 304.67,-32 300,-27.33 300,-22.67 300,-22.67 300,-13.33 300,-13.33 300,-8.67 304.67,-4 309.33,-4"/>
</g>
<!-- 22&#45;&gt;23 -->
<g id="edge12" class="edge">
<title>22&#45;&gt;23</title>
<path fill="none" stroke="black" d="M239.49,-116.18C235.94,-99.16 233.33,-72.75 245,-54 252.14,-42.54 264.32,-34.68 276.47,-29.36"/>
<polygon fill="black" stroke="black" points="277.52,-32.71 285.6,-25.86 275.01,-26.17 277.52,-32.71"/>
<polygon fill="none" stroke="black" points="248,-77 248,-95 368,-95 368,-77 248,-77"/>
<text text-anchor="start" x="253.99" y="-84" font-family="Courier New" font-weight="bold" font-size="10.00" fill="blue">REF_MACHINE(WIP3,)</text>
<polygon fill="none" stroke="black" points="248,-57 248,-75 368,-75 368,-57 248,-57"/>
<text text-anchor="start" x="251" y="-63" font-family="Courier New" font-size="10.00" fill="blue">ADD(WPARM,R_BPARM);</text>
<polygon fill="none" stroke="black" points="245,-54 245,-98 371,-98 371,-54 245,-54"/>
</g>
<!-- 23&#45;&gt;0 -->
<g id="edge13" class="edge">
<title>23&#45;&gt;0</title>
<path fill="none" stroke="black" d="M340.87,-29.56C351.86,-35.21 363.68,-43.25 371,-54 391.07,-83.48 385,-97.34 385,-133 385,-1023 385,-1023 385,-1023 385,-1048.22 381.92,-1055.26 371,-1078 364.34,-1091.87 354.67,-1105.7 345.47,-1117.3"/>
<polygon fill="black" stroke="black" points="342.86,-1114.97 339.22,-1124.91 348.27,-1119.41 342.86,-1114.97"/>
<polygon fill="none" stroke="black" points="388,-579 388,-597 508,-597 508,-579 388,-579"/>
<text text-anchor="start" x="393.99" y="-586" font-family="Courier New" font-weight="bold" font-size="10.00" fill="blue">REF_MACHINE(WIP4,)</text>
<polygon fill="none" stroke="black" points="388,-559 388,-577 508,-577 508,-559 388,-559"/>
<text text-anchor="start" x="391" y="-565" font-family="Courier New" font-size="10.00" fill="blue">ADD(WPARM,R_BPARM);</text>
<polygon fill="none" stroke="black" points="385,-556 385,-600 511,-600 511,-556 385,-556"/>
</g>
<!-- status -->
<g id="node13" class="node">
<title>status</title>
<polygon fill="none" stroke="black" points="1054,-1106 1054,-1190 1790,-1190 1790,-1106 1054,-1106"/>
<polygon fill="none" stroke="black" points="1065,-1165 1065,-1183 1779,-1183 1779,-1165 1065,-1165"/>
<text text-anchor="start" x="1340.99" y="-1172" font-family="Courier New" font-weight="bold" font-size="10.00">S12_SHELF_1_INGREDIENTS_MGR</text>
<polygon fill="none" stroke="black" points="1065,-1133 1065,-1163 1779,-1163 1779,-1133 1065,-1133"/>
<text text-anchor="start" x="1068" y="-1151" font-family="Courier New" font-size="10.00" fill="green">S12_SHELF_1_INGREDIENTS_MGR::M12_xING_MGR(&#39;S12_SHELF_1_ING1&#39;,&#39;S12_SHELF_1_ING2&#39;,&#39;S12_SHELF_1_ING3&#39;,&#39;S12_SHELF_1_ING4&#39;)</text>
<text text-anchor="start" x="1068" y="-1139" font-family="Courier New" font-size="10.00" fill="green">{&#39;0&#39;:}</text>
<polygon fill="none" stroke="black" points="1065,-1113 1065,-1131 1779,-1131 1779,-1113 1065,-1113"/>
<text text-anchor="start" x="1419" y="-1119" font-family="Courier New" font-size="10.00" fill="blue">_</text>
<polygon fill="none" stroke="black" points="1062,-1110 1062,-1186 1782,-1186 1782,-1110 1062,-1110"/>
</g>
</g>
</svg>
