<?xml version="1.0" encoding="UTF-8" standalone="no"?>
<!DOCTYPE svg PUBLIC "-//W3C//DTD SVG 1.1//EN"
 "http://www.w3.org/Graphics/SVG/1.1/DTD/svg11.dtd">
<!-- Generated by graphviz version 7.1.0 (20230121.1956)
 -->
<!-- Title: Automaton Pages: 1 -->
<svg width="580pt" height="269pt"
 viewBox="0.00 0.00 580.00 269.00" xmlns="http://www.w3.org/2000/svg" xmlns:xlink="http://www.w3.org/1999/xlink">
<g id="graph0" class="graph" transform="scale(1 1) rotate(0) translate(4 265)">
<title>Automaton</title>
<polygon fill="white" stroke="none" points="-4,4 -4,-265 576,-265 576,4 -4,4"/>
<!-- filename -->
<g id="node1" class="node">
<title>filename</title>
<polygon fill="none" stroke="black" points="0,-196.5 0,-248.5 202,-248.5 202,-196.5 0,-196.5"/>
<polygon fill="none" stroke="black" points="11,-223.5 11,-241.5 191,-241.5 191,-223.5 11,-223.5"/>
<text text-anchor="start" x="14" y="-230.5" font-family="Courier New" font-weight="bold" font-size="10.00">S12_SHELF_1_MAGIC::M12_xMAGIC</text>
<polygon fill="none" stroke="black" points="11,-203.5 11,-221.5 191,-221.5 191,-203.5 11,-203.5"/>
<text text-anchor="start" x="55.99" y="-209.5" font-family="Courier New" font-size="10.00" fill="brown">start state = 0</text>
<polygon fill="none" stroke="black" points="8,-200.5 8,-244.5 194,-244.5 194,-200.5 8,-200.5"/>
</g>
<!-- 0 -->
<g id="node2" class="node">
<title>0</title>
<polyline fill="none" stroke="darkred" stroke-width="3" points="239.5,-211 254.5,-211"/>
<text text-anchor="start" x="243" y="-218.9" font-family="Courier New" font-weight="bold" font-size="14.00">0</text>
<path fill="none" stroke="darkred" stroke-width="3" d="M242.83,-206C242.83,-206 251.17,-206 251.17,-206 255.33,-206 259.5,-210.17 259.5,-214.33 259.5,-214.33 259.5,-230.67 259.5,-230.67 259.5,-234.83 255.33,-239 251.17,-239 251.17,-239 242.83,-239 242.83,-239 238.67,-239 234.5,-234.83 234.5,-230.67 234.5,-230.67 234.5,-214.33 234.5,-214.33 234.5,-210.17 238.67,-206 242.83,-206"/>
</g>
<!-- 10 -->
<g id="node3" class="node">
<title>10</title>
<polyline fill="none" stroke="darkred" points="164,-99 186,-99"/>
<text text-anchor="start" x="167" y="-106.4" font-family="Courier New" font-weight="bold" font-size="14.00">10</text>
<path fill="none" stroke="darkred" d="M170.33,-96C170.33,-96 179.67,-96 179.67,-96 184.33,-96 189,-100.67 189,-105.33 189,-105.33 189,-114.67 189,-114.67 189,-119.33 184.33,-124 179.67,-124 179.67,-124 170.33,-124 170.33,-124 165.67,-124 161,-119.33 161,-114.67 161,-114.67 161,-105.33 161,-105.33 161,-100.67 165.67,-96 170.33,-96"/>
</g>
<!-- 0&#45;&gt;10 -->
<g id="edge1" class="edge">
<title>0&#45;&gt;10</title>
<path fill="none" stroke="black" d="M226.22,-200.56C217.11,-190.64 206.74,-178.29 199,-166 193.55,-157.35 188.75,-147.25 184.91,-138.09"/>
<polygon fill="black" stroke="black" points="188.22,-136.94 181.27,-128.94 181.71,-139.52 188.22,-136.94"/>
<text text-anchor="start" x="203" y="-154" font-family="Courier New" font-weight="bold" font-size="10.00" fill="orange">WAIT(,SIG_SHOW)</text>
</g>
<!-- 11 -->
<g id="node4" class="node">
<title>11</title>
<polyline fill="none" stroke="darkred" points="228,-7 250,-7"/>
<text text-anchor="start" x="231" y="-14.4" font-family="Courier New" font-weight="bold" font-size="14.00">11</text>
<path fill="none" stroke="darkred" d="M234.33,-4C234.33,-4 243.67,-4 243.67,-4 248.33,-4 253,-8.67 253,-13.33 253,-13.33 253,-22.67 253,-22.67 253,-27.33 248.33,-32 243.67,-32 243.67,-32 234.33,-32 234.33,-32 229.67,-32 225,-27.33 225,-22.67 225,-22.67 225,-13.33 225,-13.33 225,-8.67 229.67,-4 234.33,-4"/>
</g>
<!-- 10&#45;&gt;11 -->
<g id="edge2" class="edge">
<title>10&#45;&gt;11</title>
<path fill="none" stroke="black" d="M168.07,-92.4C164.39,-80.82 161.93,-65.44 169,-54 176.37,-42.08 189.16,-34.08 201.81,-28.79"/>
<polygon fill="black" stroke="black" points="202.67,-32.2 210.86,-25.46 200.26,-25.62 202.67,-32.2"/>
<text text-anchor="start" x="173" y="-62" font-family="Courier New" font-weight="bold" font-size="10.00" fill="blue">VIDEO(,IDS_SPEFFECT)</text>
</g>
<!-- 11&#45;&gt;0 -->
<g id="edge3" class="edge">
<title>11&#45;&gt;0</title>
<path fill="none" stroke="black" d="M265.75,-28.15C277.54,-33.68 290.24,-42.02 297,-54 321.47,-97.35 314.85,-119.53 297,-166 295.68,-169.43 285.71,-180.73 275.01,-192.24"/>
<polygon fill="black" stroke="black" points="272.54,-189.76 268.25,-199.44 277.64,-194.55 272.54,-189.76"/>
<text text-anchor="start" x="316" y="-108" font-family="Courier New" font-weight="bold" font-size="10.00" fill="blue">Z_EPSILON(,)</text>
</g>
<!-- status -->
<g id="node5" class="node">
<title>status</title>
<polygon fill="none" stroke="black" points="292,-184.5 292,-260.5 572,-260.5 572,-184.5 292,-184.5"/>
<polygon fill="none" stroke="black" points="303,-235.5 303,-253.5 561,-253.5 561,-235.5 303,-235.5"/>
<text text-anchor="start" x="380.99" y="-242.5" font-family="Courier New" font-weight="bold" font-size="10.00">S12_SHELF_1_MAGIC</text>
<polygon fill="none" stroke="black" points="303,-191.5 303,-233.5 561,-233.5 561,-191.5 303,-191.5"/>
<text text-anchor="start" x="306" y="-221.5" font-family="Courier New" font-size="10.00" fill="green">VIEW::IDV_TMCU1 @pos(left:90, top:10)</text>
<text text-anchor="start" x="306" y="-209.5" font-family="Courier New" font-size="10.00" fill="green">S12_SHELF_1_MAGIC::M12_xMAGIC(&#39;&#39;,&#39;&#39;,&#39;&#39;,&#39;&#39;)</text>
<text text-anchor="start" x="306" y="-197.5" font-family="Courier New" font-size="10.00" fill="green">{state:&#39;0&#39;:</text>
<polygon fill="none" stroke="black" points="300,-188.5 300,-256.5 564,-256.5 564,-188.5 300,-188.5"/>
</g>
</g>
</svg>
