<?xml version="1.0" encoding="UTF-8" standalone="no"?>
<!DOCTYPE svg PUBLIC "-//W3C//DTD SVG 1.1//EN"
 "http://www.w3.org/Graphics/SVG/1.1/DTD/svg11.dtd">
<!-- Generated by graphviz version 7.1.0 (20230121.1956)
 -->
<!-- Title: Automaton Pages: 1 -->
<svg width="712pt" height="209pt"
 viewBox="0.00 0.00 712.00 209.00" xmlns="http://www.w3.org/2000/svg" xmlns:xlink="http://www.w3.org/1999/xlink">
<g id="graph0" class="graph" transform="scale(1 1) rotate(0) translate(4 205)">
<title>Automaton</title>
<polygon fill="white" stroke="none" points="-4,4 -4,-205 708,-205 708,4 -4,4"/>
<!-- filename -->
<g id="node1" class="node">
<title>filename</title>
<polygon fill="none" stroke="black" points="0,-132.5 0,-184.5 166,-184.5 166,-132.5 0,-132.5"/>
<polygon fill="none" stroke="black" points="11,-159.5 11,-177.5 155,-177.5 155,-159.5 11,-159.5"/>
<text text-anchor="start" x="14" y="-166.5" font-family="Courier New" font-weight="bold" font-size="10.00">S12_SHIELD::M12_ING_STD</text>
<polygon fill="none" stroke="black" points="11,-139.5 11,-157.5 155,-157.5 155,-139.5 11,-139.5"/>
<text text-anchor="start" x="37.99" y="-145.5" font-family="Courier New" font-size="10.00" fill="brown">start state = 0</text>
<polygon fill="none" stroke="black" points="8,-136.5 8,-180.5 158,-180.5 158,-136.5 8,-136.5"/>
</g>
<!-- 0 -->
<g id="node2" class="node">
<title>0</title>
<polyline fill="none" stroke="darkred" stroke-width="3" points="203.5,-147 218.5,-147"/>
<text text-anchor="start" x="207" y="-154.9" font-family="Courier New" font-weight="bold" font-size="14.00">0</text>
<path fill="none" stroke="darkred" stroke-width="3" d="M206.83,-142C206.83,-142 215.17,-142 215.17,-142 219.33,-142 223.5,-146.17 223.5,-150.33 223.5,-150.33 223.5,-166.67 223.5,-166.67 223.5,-170.83 219.33,-175 215.17,-175 215.17,-175 206.83,-175 206.83,-175 202.67,-175 198.5,-170.83 198.5,-166.67 198.5,-166.67 198.5,-150.33 198.5,-150.33 198.5,-146.17 202.67,-142 206.83,-142"/>
</g>
<!-- 1 -->
<g id="node3" class="node">
<title>1</title>
<polyline fill="none" stroke="darkred" points="203,-7 217,-7"/>
<text text-anchor="start" x="206" y="-14.4" font-family="Courier New" font-weight="bold" font-size="14.00">1</text>
<path fill="none" stroke="darkred" d="M206.67,-4C206.67,-4 213.33,-4 213.33,-4 216.67,-4 220,-7.33 220,-10.67 220,-10.67 220,-25.33 220,-25.33 220,-28.67 216.67,-32 213.33,-32 213.33,-32 206.67,-32 206.67,-32 203.33,-32 200,-28.67 200,-25.33 200,-25.33 200,-10.67 200,-10.67 200,-7.33 203.33,-4 206.67,-4"/>
</g>
<!-- 0&#45;&gt;1 -->
<g id="edge1" class="edge">
<title>0&#45;&gt;1</title>
<path fill="none" stroke="black" d="M194.8,-136.65C188.93,-129.71 182.01,-122.18 175,-116 164.18,-106.47 154.81,-110.72 148,-98 138.77,-80.76 138.14,-70.89 148,-54 153.64,-44.33 163.05,-37.13 172.85,-31.85"/>
<polygon fill="black" stroke="black" points="174.15,-35.11 181.7,-27.67 171.17,-28.78 174.15,-35.11"/>
<text text-anchor="start" x="152" y="-74" font-family="Courier New" font-weight="bold" font-size="10.00" fill="orange">WAIT(0,SIG_SHOW)</text>
</g>
<!-- 1&#45;&gt;0 -->
<g id="edge2" class="edge">
<title>1&#45;&gt;0</title>
<path fill="none" stroke="black" d="M236.82,-35.39C242.93,-40.53 248.62,-46.78 252,-54 260.29,-71.71 257.81,-79.33 252,-98 248.77,-108.38 243.03,-118.55 236.85,-127.46"/>
<polygon fill="black" stroke="black" points="234.12,-125.26 230.97,-135.38 239.74,-129.44 234.12,-125.26"/>
<polygon fill="none" stroke="black" points="260,-77 260,-95 656,-95 656,-77 260,-77"/>
<text text-anchor="start" x="400.99" y="-84" font-family="Courier New" font-weight="bold" font-size="10.00" fill="blue">REF_MACHINE(WIP1,0)</text>
<polygon fill="none" stroke="black" points="260,-57 260,-75 656,-75 656,-57 260,-57"/>
<text text-anchor="start" x="263" y="-63" font-family="Courier New" font-size="10.00" fill="blue">MOV(WPARM,R_WPARM);MOV(BFRAME,WPARM);MAP(BFRAME,WIP2);SHOW(WIP3);</text>
<polygon fill="none" stroke="black" points="257,-54 257,-98 659,-98 659,-54 257,-54"/>
</g>
<!-- status -->
<g id="node4" class="node">
<title>status</title>
<polygon fill="none" stroke="black" points="256,-116.5 256,-200.5 704,-200.5 704,-116.5 256,-116.5"/>
<polygon fill="none" stroke="black" points="267,-175.5 267,-193.5 693,-193.5 693,-175.5 267,-175.5"/>
<text text-anchor="start" x="450" y="-182.5" font-family="Courier New" font-weight="bold" font-size="10.00">S12_SHIELD</text>
<polygon fill="none" stroke="black" points="267,-143.5 267,-173.5 693,-173.5 693,-143.5 267,-143.5"/>
<text text-anchor="start" x="270" y="-161.5" font-family="Courier New" font-size="10.00" fill="green">S12_SHIELD::M12_ING_STD(&#39;SMP_EYEINFO&#39;,&#39;S12_ING_LOC&#39;,&#39;IDS_SHLDSCRL&#39;,&#39;&#39;)</text>
<text text-anchor="start" x="270" y="-149.5" font-family="Courier New" font-size="10.00" fill="green">{&#39;0&#39;: wParm:2 wSprite:SHLDSCRL bFrame:1}</text>
<polygon fill="none" stroke="black" points="267,-123.5 267,-141.5 693,-141.5 693,-123.5 267,-123.5"/>
<text text-anchor="start" x="477" y="-129.5" font-family="Courier New" font-size="10.00" fill="blue">_</text>
<polygon fill="none" stroke="black" points="264,-120.5 264,-196.5 696,-196.5 696,-120.5 264,-120.5"/>
</g>
</g>
</svg>
