<?xml version="1.0" encoding="UTF-8" standalone="no"?>
<!DOCTYPE svg PUBLIC "-//W3C//DTD SVG 1.1//EN"
 "http://www.w3.org/Graphics/SVG/1.1/DTD/svg11.dtd">
<!-- Generated by graphviz version 7.1.0 (20230121.1956)
 -->
<!-- Title: Automaton Pages: 1 -->
<svg width="958pt" height="577pt"
 viewBox="0.00 0.00 958.00 577.00" xmlns="http://www.w3.org/2000/svg" xmlns:xlink="http://www.w3.org/1999/xlink">
<g id="graph0" class="graph" transform="scale(1 1) rotate(0) translate(4 573)">
<title>Automaton</title>
<polygon fill="white" stroke="none" points="-4,4 -4,-573 954,-573 954,4 -4,4"/>
<!-- filename -->
<g id="node1" class="node">
<title>filename</title>
<polygon fill="none" stroke="black" points="0,-500.5 0,-552.5 196,-552.5 196,-500.5 0,-500.5"/>
<polygon fill="none" stroke="black" points="11,-527.5 11,-545.5 185,-545.5 185,-527.5 11,-527.5"/>
<text text-anchor="start" x="14" y="-534.5" font-family="Courier New" font-weight="bold" font-size="10.00">S12_SHELF_1_ING1::M12_xPLANT</text>
<polygon fill="none" stroke="black" points="11,-507.5 11,-525.5 185,-525.5 185,-507.5 11,-507.5"/>
<text text-anchor="start" x="52.99" y="-513.5" font-family="Courier New" font-size="10.00" fill="brown">start state = 0</text>
<polygon fill="none" stroke="black" points="8,-504.5 8,-548.5 188,-548.5 188,-504.5 8,-504.5"/>
</g>
<!-- 0 -->
<g id="node2" class="node">
<title>0</title>
<polyline fill="none" stroke="darkred" points="234,-515.5 248,-515.5"/>
<text text-anchor="start" x="237" y="-522.9" font-family="Courier New" font-weight="bold" font-size="14.00">0</text>
<path fill="none" stroke="darkred" d="M237.67,-512.5C237.67,-512.5 244.33,-512.5 244.33,-512.5 247.67,-512.5 251,-515.83 251,-519.17 251,-519.17 251,-533.83 251,-533.83 251,-537.17 247.67,-540.5 244.33,-540.5 244.33,-540.5 237.67,-540.5 237.67,-540.5 234.33,-540.5 231,-537.17 231,-533.83 231,-533.83 231,-519.17 231,-519.17 231,-515.83 234.33,-512.5 237.67,-512.5"/>
</g>
<!-- 5 -->
<g id="node3" class="node">
<title>5</title>
<polyline fill="none" stroke="darkred" points="78,-347 92,-347"/>
<text text-anchor="start" x="81" y="-354.4" font-family="Courier New" font-weight="bold" font-size="14.00">5</text>
<path fill="none" stroke="darkred" d="M81.67,-344C81.67,-344 88.33,-344 88.33,-344 91.67,-344 95,-347.33 95,-350.67 95,-350.67 95,-365.33 95,-365.33 95,-368.67 91.67,-372 88.33,-372 88.33,-372 81.67,-372 81.67,-372 78.33,-372 75,-368.67 75,-365.33 75,-365.33 75,-350.67 75,-350.67 75,-347.33 78.33,-344 81.67,-344"/>
</g>
<!-- 0&#45;&gt;5 -->
<g id="edge1" class="edge">
<title>0&#45;&gt;5</title>
<path fill="none" stroke="black" d="M230.83,-508.54C224.56,-499.67 215.67,-489.53 205,-484 169.51,-465.6 52.82,-495.65 26,-466 5.73,-443.59 11.69,-424.62 26,-398 31.04,-388.63 39.43,-381.13 48.32,-375.32"/>
<polygon fill="black" stroke="black" points="49.85,-378.48 56.72,-370.42 46.32,-372.43 49.85,-378.48"/>
<polygon fill="none" stroke="black" points="29,-445 29,-463 155,-463 155,-445 29,-445"/>
<text text-anchor="start" x="46.99" y="-452" font-family="Courier New" font-weight="bold" font-size="10.00" fill="orange">WAIT(,SIG_SHOW)</text>
<polygon fill="none" stroke="black" points="29,-401 29,-443 155,-443 155,-401 29,-401"/>
<text text-anchor="start" x="32" y="-431" font-family="Courier New" font-size="10.00" fill="blue">REF_MACHINE(WIP1);</text>
<text text-anchor="start" x="32" y="-419" font-family="Courier New" font-size="10.00" fill="blue">MOV(BFRAME,R_WPARM);</text>
<text text-anchor="start" x="32" y="-407" font-family="Courier New" font-size="10.00" fill="blue">MAP(BFRAME,WIP2);</text>
<polygon fill="none" stroke="black" points="26,-398 26,-466 158,-466 158,-398 26,-398"/>
</g>
<!-- 5&#45;&gt;0 -->
<g id="edge3" class="edge">
<title>5&#45;&gt;0</title>
<path fill="none" stroke="black" d="M111.87,-367.69C127.29,-373.92 145.92,-383.75 158,-398 178.63,-422.34 162.29,-440.16 181,-466 188.82,-476.8 195.24,-474.91 205,-484 210.31,-488.95 215.65,-494.62 220.53,-500.16"/>
<polygon fill="black" stroke="black" points="217.6,-502.12 226.76,-507.46 222.93,-497.58 217.6,-502.12"/>
<polygon fill="none" stroke="black" points="184,-433 184,-451 286,-451 286,-433 184,-433"/>
<text text-anchor="start" x="198.99" y="-440" font-family="Courier New" font-weight="bold" font-size="10.00" fill="blue">Z_EPSILON(,)</text>
<polygon fill="none" stroke="black" points="184,-413 184,-431 286,-431 286,-413 184,-413"/>
<text text-anchor="start" x="187" y="-419" font-family="Courier New" font-size="10.00" fill="blue">ASSIGN(WPARM,0);</text>
<polygon fill="none" stroke="black" points="181,-410 181,-454 289,-454 289,-410 181,-410"/>
</g>
<!-- Dstate -->
<g id="node4" class="node">
<title>Dstate</title>
<polyline fill="none" stroke="darkred" stroke-width="3" points="251.5,-156.5 308.5,-156.5"/>
<text text-anchor="start" x="255" y="-164.4" font-family="Courier New" font-weight="bold" font-size="14.00">Dstate</text>
<path fill="none" stroke="darkred" stroke-width="3" d="M257.5,-151.5C257.5,-151.5 302.5,-151.5 302.5,-151.5 308,-151.5 313.5,-157 313.5,-162.5 313.5,-162.5 313.5,-173.5 313.5,-173.5 313.5,-179 308,-184.5 302.5,-184.5 302.5,-184.5 257.5,-184.5 257.5,-184.5 252,-184.5 246.5,-179 246.5,-173.5 246.5,-173.5 246.5,-162.5 246.5,-162.5 246.5,-157 252,-151.5 257.5,-151.5"/>
</g>
<!-- 5&#45;&gt;Dstate -->
<g id="edge2" class="edge">
<title>5&#45;&gt;Dstate</title>
<path fill="none" stroke="black" d="M84.68,-340.01C84.42,-306.05 85.87,-231.54 103,-214 121.84,-194.71 197.2,-203.86 223,-196 224.96,-195.4 226.93,-194.75 228.91,-194.05"/>
<polygon fill="black" stroke="black" points="230.01,-197.38 238.07,-190.5 227.48,-190.86 230.01,-197.38"/>
<polygon fill="none" stroke="black" points="106,-297 106,-315 286,-315 286,-297 106,-297"/>
<text text-anchor="start" x="159.99" y="-304" font-family="Courier New" font-weight="bold" font-size="10.00" fill="blue">GT(BFRAME,0)</text>
<polygon fill="none" stroke="black" points="106,-217 106,-295 286,-295 286,-217 106,-217"/>
<text text-anchor="start" x="109" y="-283" font-family="Courier New" font-size="10.00" fill="blue">ASSIGN(WPARM,1);</text>
<text text-anchor="start" x="109" y="-271" font-family="Courier New" font-size="10.00" fill="blue">MOV(WOBJECT,BFRAME);</text>
<text text-anchor="start" x="109" y="-259" font-family="Courier New" font-size="10.00" fill="blue">MAPi(WOBJECT,S12_NATURE_REP);</text>
<text text-anchor="start" x="109" y="-247" font-family="Courier New" font-size="10.00" fill="blue">O_ACCEPT(WOBJECT);</text>
<text text-anchor="start" x="109" y="-235" font-family="Courier New" font-size="10.00" fill="blue">C_ACCEPT(WOBJECT);</text>
<text text-anchor="start" x="109" y="-223" font-family="Courier New" font-size="10.00" fill="blue">SHOW(WIP3);</text>
<polygon fill="none" stroke="black" points="103,-214 103,-318 289,-318 289,-214 103,-214"/>
</g>
<!-- Dstate&#45;&gt;0 -->
<g id="edge5" class="edge">
<title>Dstate&#45;&gt;0</title>
<path fill="none" stroke="black" d="M285.66,-189.95C298.03,-239.63 323.69,-367.74 289,-466 287.54,-470.15 274.73,-485.94 262.71,-500.21"/>
<polygon fill="black" stroke="black" points="260.22,-497.74 256.42,-507.63 265.56,-502.27 260.22,-497.74"/>
<polygon fill="none" stroke="black" points="309,-359 309,-377 405,-377 405,-359 309,-359"/>
<text text-anchor="start" x="312" y="-366" font-family="Courier New" font-weight="bold" font-size="10.00" fill="orange">WAIT(,SIG_HIDE)</text>
<polygon fill="none" stroke="black" points="309,-339 309,-357 405,-357 405,-339 309,-339"/>
<text text-anchor="start" x="336" y="-345" font-family="Courier New" font-size="10.00" fill="blue">SHOW();</text>
<polygon fill="none" stroke="black" points="306,-336 306,-380 408,-380 408,-336 306,-336"/>
</g>
<!-- Gstate -->
<g id="node5" class="node">
<title>Gstate</title>
<polyline fill="none" stroke="darkred" points="240,-7 296,-7"/>
<text text-anchor="start" x="243" y="-14.4" font-family="Courier New" font-weight="bold" font-size="14.00">Gstate</text>
<path fill="none" stroke="darkred" d="M246.33,-4C246.33,-4 289.67,-4 289.67,-4 294.33,-4 299,-8.67 299,-13.33 299,-13.33 299,-22.67 299,-22.67 299,-27.33 294.33,-32 289.67,-32 289.67,-32 246.33,-32 246.33,-32 241.67,-32 237,-27.33 237,-22.67 237,-22.67 237,-13.33 237,-13.33 237,-8.67 241.67,-4 246.33,-4"/>
</g>
<!-- Dstate&#45;&gt;Gstate -->
<g id="edge4" class="edge">
<title>Dstate&#45;&gt;Gstate</title>
<path fill="none" stroke="black" d="M273.84,-146.12C271.9,-138.59 270,-129.98 269,-122 265.85,-96.9 265.88,-68.09 266.53,-47.34"/>
<polygon fill="black" stroke="black" points="270.03,-47.49 266.92,-37.36 263.03,-47.22 270.03,-47.49"/>
<polygon fill="none" stroke="black" points="272,-101 272,-119 416,-119 416,-101 272,-101"/>
<text text-anchor="start" x="317" y="-108" font-family="Courier New" font-weight="bold" font-size="10.00" fill="orange">DROP(0,0)</text>
<polygon fill="none" stroke="black" points="272,-57 272,-99 416,-99 416,-57 272,-57"/>
<text text-anchor="start" x="275" y="-87" font-family="Courier New" font-size="10.00" fill="blue">SHOW(WOBJECT);</text>
<text text-anchor="start" x="275" y="-75" font-family="Courier New" font-size="10.00" fill="blue">BPARM=1;</text>
<text text-anchor="start" x="275" y="-63" font-family="Courier New" font-size="10.00" fill="blue">SIGNAL(WIP4,SIG_CHECK);</text>
<polygon fill="none" stroke="black" points="269,-54 269,-122 419,-122 419,-54 269,-54"/>
</g>
<!-- Gstate&#45;&gt;0 -->
<g id="edge7" class="edge">
<title>Gstate&#45;&gt;0</title>
<path fill="none" stroke="black" d="M306.8,-22.58C346.81,-27.16 405.23,-36.67 419,-54 509.17,-167.46 474.87,-249.42 412,-380 386.28,-433.43 358.94,-432.52 310,-466 296.21,-475.43 290.01,-473.52 277,-484 271.15,-488.71 265.49,-494.45 260.46,-500.14"/>
<polygon fill="black" stroke="black" points="257.85,-497.81 254.11,-507.72 263.21,-502.31 257.85,-497.81"/>
<polygon fill="none" stroke="black" points="475,-285 475,-303 577,-303 577,-285 475,-285"/>
<text text-anchor="start" x="478" y="-292" font-family="Courier New" font-weight="bold" font-size="10.00" fill="orange">WAIT(,SIG_CLOSE)</text>
<polygon fill="none" stroke="black" points="475,-229 475,-283 577,-283 577,-229 475,-229"/>
<text text-anchor="start" x="496" y="-271" font-family="Courier New" font-size="10.00" fill="blue">WOBJECT=0;</text>
<text text-anchor="start" x="496" y="-259" font-family="Courier New" font-size="10.00" fill="blue">ASHOW();</text>
<text text-anchor="start" x="496" y="-247" font-family="Courier New" font-size="10.00" fill="blue">BPARM=0;</text>
<text text-anchor="start" x="496" y="-235" font-family="Courier New" font-size="10.00" fill="blue">WPARM=0;</text>
<polygon fill="none" stroke="black" points="472,-226 472,-306 580,-306 580,-226 472,-226"/>
</g>
<!-- Gstate&#45;&gt;5 -->
<g id="edge6" class="edge">
<title>Gstate&#45;&gt;5</title>
<path fill="none" stroke="black" d="M229.31,-30.91C183.71,-47.28 110.08,-81.54 78,-140 44.7,-200.69 62.78,-285.99 75.66,-329.35"/>
<polygon fill="black" stroke="black" points="72.27,-330.21 78.58,-338.72 78.95,-328.13 72.27,-330.21"/>
<polygon fill="none" stroke="black" points="81,-175 81,-193 225,-193 225,-175 81,-175"/>
<text text-anchor="start" x="126" y="-182" font-family="Courier New" font-weight="bold" font-size="10.00" fill="orange">GRAB(0,0)</text>
<polygon fill="none" stroke="black" points="81,-143 81,-173 225,-173 225,-143 81,-143"/>
<text text-anchor="start" x="84" y="-161" font-family="Courier New" font-size="10.00" fill="blue">WOBJECT=0;</text>
<text text-anchor="start" x="84" y="-149" font-family="Courier New" font-size="10.00" fill="blue">SIGNAL(WIP4,SIG_CHECK);</text>
<polygon fill="none" stroke="black" points="78,-140 78,-196 228,-196 228,-140 78,-140"/>
</g>
<!-- status -->
<g id="node6" class="node">
<title>status</title>
<polygon fill="none" stroke="black" points="286,-484.5 286,-568.5 950,-568.5 950,-484.5 286,-484.5"/>
<polygon fill="none" stroke="black" points="297,-543.5 297,-561.5 939,-561.5 939,-543.5 297,-543.5"/>
<text text-anchor="start" x="569.99" y="-550.5" font-family="Courier New" font-weight="bold" font-size="10.00">S12_SHELF_1_ING1</text>
<polygon fill="none" stroke="black" points="297,-511.5 297,-541.5 939,-541.5 939,-511.5 297,-511.5"/>
<text text-anchor="start" x="300" y="-529.5" font-family="Courier New" font-size="10.00" fill="green">S12_SHELF_1_ING1::M12_xPLANT(&#39;S12_SHELF_1_SCROLL&#39;,&#39;S12_ING_A&#39;,&#39;IDS_PLANTXX&#39;,&#39;S12_SHELF_1_INGREDIENTS_MGR&#39;)</text>
<text text-anchor="start" x="300" y="-517.5" font-family="Courier New" font-size="10.00" fill="green">{&#39;Dstate&#39;: wParm:1 wObject:65569 wSprite:PLANTX3 bFrame:13 wAccept:ISA_PLNT_RIPE_GOPA}</text>
<polygon fill="none" stroke="black" points="297,-491.5 297,-509.5 939,-509.5 939,-491.5 297,-491.5"/>
<text text-anchor="start" x="615" y="-497.5" font-family="Courier New" font-size="10.00" fill="blue">_</text>
<polygon fill="none" stroke="black" points="294,-488.5 294,-564.5 942,-564.5 942,-488.5 294,-488.5"/>
</g>
</g>
</svg>
