<?xml version="1.0" encoding="UTF-8" standalone="no"?>
<!DOCTYPE svg PUBLIC "-//W3C//DTD SVG 1.1//EN"
 "http://www.w3.org/Graphics/SVG/1.1/DTD/svg11.dtd">
<!-- Generated by graphviz version 7.1.0 (20230121.1956)
 -->
<!-- Title: Automaton Pages: 1 -->
<svg width="1180pt" height="93pt"
 viewBox="0.00 0.00 1180.00 93.00" xmlns="http://www.w3.org/2000/svg" xmlns:xlink="http://www.w3.org/1999/xlink">
<g id="graph0" class="graph" transform="scale(1 1) rotate(0) translate(4 89)">
<title>Automaton</title>
<polygon fill="white" stroke="none" points="-4,4 -4,-89 1176,-89 1176,4 -4,4"/>
<!-- filename -->
<g id="node1" class="node">
<title>filename</title>
<polygon fill="none" stroke="black" points="0,-16.5 0,-68.5 286,-68.5 286,-16.5 0,-16.5"/>
<polygon fill="none" stroke="black" points="11,-43.5 11,-61.5 275,-61.5 275,-43.5 11,-43.5"/>
<text text-anchor="start" x="14" y="-50.5" font-family="Courier New" font-weight="bold" font-size="10.00">S12_SHELF_1_NYSTROMADDED::M12_xNYSTROMADDED</text>
<polygon fill="none" stroke="black" points="11,-23.5 11,-41.5 275,-41.5 275,-23.5 11,-23.5"/>
<text text-anchor="start" x="97.99" y="-29.5" font-family="Courier New" font-size="10.00" fill="brown">start state = 0</text>
<polygon fill="none" stroke="black" points="8,-20.5 8,-64.5 278,-64.5 278,-20.5 8,-20.5"/>
</g>
<!-- 0 -->
<g id="node2" class="node">
<title>0</title>
<polyline fill="none" stroke="darkred" stroke-width="3" points="323.5,-31 338.5,-31"/>
<text text-anchor="start" x="327" y="-38.9" font-family="Courier New" font-weight="bold" font-size="14.00">0</text>
<path fill="none" stroke="darkred" stroke-width="3" d="M326.83,-26C326.83,-26 335.17,-26 335.17,-26 339.33,-26 343.5,-30.17 343.5,-34.33 343.5,-34.33 343.5,-50.67 343.5,-50.67 343.5,-54.83 339.33,-59 335.17,-59 335.17,-59 326.83,-59 326.83,-59 322.67,-59 318.5,-54.83 318.5,-50.67 318.5,-50.67 318.5,-34.33 318.5,-34.33 318.5,-30.17 322.67,-26 326.83,-26"/>
</g>
<!-- 0&#45;&gt;0 -->
<g id="edge1" class="edge">
<title>0&#45;&gt;0</title>
<path fill="none" stroke="black" d="M357.79,-46.62C367.78,-46.75 376,-45.38 376,-42.5 376,-40.84 373.25,-39.67 369.01,-39.02"/>
<polygon fill="black" stroke="black" points="369.49,-35.54 359.31,-38.47 369.09,-42.53 369.49,-35.54"/>
<polygon fill="none" stroke="black" points="379,-43.5 379,-61.5 475,-61.5 475,-43.5 379,-43.5"/>
<text text-anchor="start" x="382" y="-50.5" font-family="Courier New" font-weight="bold" font-size="10.00" fill="orange">WAIT(,SIG_HIDE)</text>
<polygon fill="none" stroke="black" points="379,-23.5 379,-41.5 475,-41.5 475,-23.5 379,-23.5"/>
<text text-anchor="start" x="406" y="-29.5" font-family="Courier New" font-size="10.00" fill="blue">SHOW();</text>
<polygon fill="none" stroke="black" points="376,-20.5 376,-64.5 478,-64.5 478,-20.5 376,-20.5"/>
</g>
<!-- 0&#45;&gt;0 -->
<g id="edge2" class="edge">
<title>0&#45;&gt;0</title>
<path fill="none" stroke="black" d="M357.76,-48.18C401.48,-52.96 478,-51.07 478,-42.5 478,-34.63 413.52,-32.39 369.12,-35.78"/>
<polygon fill="black" stroke="black" points="368.91,-32.29 359.27,-36.69 369.55,-39.26 368.91,-32.29"/>
<polygon fill="none" stroke="black" points="481,-43.5 481,-61.5 595,-61.5 595,-43.5 481,-43.5"/>
<text text-anchor="start" x="492.99" y="-50.5" font-family="Courier New" font-weight="bold" font-size="10.00" fill="orange">WAIT(,SIG_SHOW)</text>
<polygon fill="none" stroke="black" points="481,-23.5 481,-41.5 595,-41.5 595,-23.5 481,-23.5"/>
<text text-anchor="start" x="484" y="-29.5" font-family="Courier New" font-size="10.00" fill="blue">SHOW(IDS_CANGRN1);</text>
<polygon fill="none" stroke="black" points="478,-20.5 478,-64.5 598,-64.5 598,-20.5 478,-20.5"/>
</g>
<!-- status -->
<g id="node3" class="node">
<title>status</title>
<polygon fill="none" stroke="black" points="634,-0.5 634,-84.5 1172,-84.5 1172,-0.5 634,-0.5"/>
<polygon fill="none" stroke="black" points="645,-59.5 645,-77.5 1161,-77.5 1161,-59.5 645,-59.5"/>
<text text-anchor="start" x="830.99" y="-66.5" font-family="Courier New" font-weight="bold" font-size="10.00">S12_SHELF_1_NYSTROMADDED</text>
<polygon fill="none" stroke="black" points="645,-27.5 645,-57.5 1161,-57.5 1161,-27.5 645,-27.5"/>
<text text-anchor="start" x="648" y="-45.5" font-family="Courier New" font-size="10.00" fill="green">S12_SHELF_1_NYSTROMADDED::M12_xNYSTROMADDED(&#39;IDS_CANGRN1&#39;,&#39;&#39;,&#39;&#39;,&#39;S12_SHELF_1_SCROLL&#39;)</text>
<text text-anchor="start" x="648" y="-33.5" font-family="Courier New" font-size="10.00" fill="green">{&#39;0&#39;:}</text>
<polygon fill="none" stroke="black" points="645,-7.5 645,-25.5 1161,-25.5 1161,-7.5 645,-7.5"/>
<text text-anchor="start" x="900" y="-13.5" font-family="Courier New" font-size="10.00" fill="blue">_</text>
<polygon fill="none" stroke="black" points="642,-4.5 642,-80.5 1164,-80.5 1164,-4.5 642,-4.5"/>
</g>
</g>
</svg>
