<?xml version="1.0" encoding="UTF-8" standalone="no"?>
<!DOCTYPE svg PUBLIC "-//W3C//DTD SVG 1.1//EN"
 "http://www.w3.org/Graphics/SVG/1.1/DTD/svg11.dtd">
<!-- Generated by graphviz version 7.1.0 (20230121.1956)
 -->
<!-- Title: Automaton Pages: 1 -->
<svg width="688pt" height="209pt"
 viewBox="0.00 0.00 688.00 209.00" xmlns="http://www.w3.org/2000/svg" xmlns:xlink="http://www.w3.org/1999/xlink">
<g id="graph0" class="graph" transform="scale(1 1) rotate(0) translate(4 205)">
<title>Automaton</title>
<polygon fill="white" stroke="none" points="-4,4 -4,-205 684,-205 684,4 -4,4"/>
<!-- filename -->
<g id="node1" class="node">
<title>filename</title>
<polygon fill="none" stroke="black" points="0,-132.5 0,-184.5 154,-184.5 154,-132.5 0,-132.5"/>
<polygon fill="none" stroke="black" points="11,-159.5 11,-177.5 143,-177.5 143,-159.5 11,-159.5"/>
<text text-anchor="start" x="14" y="-166.5" font-family="Courier New" font-weight="bold" font-size="10.00">S12_WORD::M12_ING_STD</text>
<polygon fill="none" stroke="black" points="11,-139.5 11,-157.5 143,-157.5 143,-139.5 11,-139.5"/>
<text text-anchor="start" x="31.99" y="-145.5" font-family="Courier New" font-size="10.00" fill="brown">start state = 0</text>
<polygon fill="none" stroke="black" points="8,-136.5 8,-180.5 146,-180.5 146,-136.5 8,-136.5"/>
</g>
<!-- 0 -->
<g id="node2" class="node">
<title>0</title>
<polyline fill="none" stroke="darkred" stroke-width="3" points="191.5,-147 206.5,-147"/>
<text text-anchor="start" x="195" y="-154.9" font-family="Courier New" font-weight="bold" font-size="14.00">0</text>
<path fill="none" stroke="darkred" stroke-width="3" d="M194.83,-142C194.83,-142 203.17,-142 203.17,-142 207.33,-142 211.5,-146.17 211.5,-150.33 211.5,-150.33 211.5,-166.67 211.5,-166.67 211.5,-170.83 207.33,-175 203.17,-175 203.17,-175 194.83,-175 194.83,-175 190.67,-175 186.5,-170.83 186.5,-166.67 186.5,-166.67 186.5,-150.33 186.5,-150.33 186.5,-146.17 190.67,-142 194.83,-142"/>
</g>
<!-- 1 -->
<g id="node3" class="node">
<title>1</title>
<polyline fill="none" stroke="darkred" points="191,-7 205,-7"/>
<text text-anchor="start" x="194" y="-14.4" font-family="Courier New" font-weight="bold" font-size="14.00">1</text>
<path fill="none" stroke="darkred" d="M194.67,-4C194.67,-4 201.33,-4 201.33,-4 204.67,-4 208,-7.33 208,-10.67 208,-10.67 208,-25.33 208,-25.33 208,-28.67 204.67,-32 201.33,-32 201.33,-32 194.67,-32 194.67,-32 191.33,-32 188,-28.67 188,-25.33 188,-25.33 188,-10.67 188,-10.67 188,-7.33 191.33,-4 194.67,-4"/>
</g>
<!-- 0&#45;&gt;1 -->
<g id="edge1" class="edge">
<title>0&#45;&gt;1</title>
<path fill="none" stroke="black" d="M182.8,-136.65C176.93,-129.71 170.01,-122.18 163,-116 152.18,-106.47 142.81,-110.72 136,-98 126.77,-80.76 126.14,-70.89 136,-54 141.64,-44.33 151.05,-37.13 160.85,-31.85"/>
<polygon fill="black" stroke="black" points="162.15,-35.11 169.7,-27.67 159.17,-28.78 162.15,-35.11"/>
<text text-anchor="start" x="140" y="-74" font-family="Courier New" font-weight="bold" font-size="10.00" fill="orange">WAIT(0,SIG_SHOW)</text>
</g>
<!-- 1&#45;&gt;0 -->
<g id="edge2" class="edge">
<title>1&#45;&gt;0</title>
<path fill="none" stroke="black" d="M224.82,-35.39C230.93,-40.53 236.62,-46.78 240,-54 248.29,-71.71 245.81,-79.33 240,-98 236.77,-108.38 231.03,-118.55 224.85,-127.46"/>
<polygon fill="black" stroke="black" points="222.12,-125.26 218.97,-135.38 227.74,-129.44 222.12,-125.26"/>
<polygon fill="none" stroke="black" points="248,-77 248,-95 644,-95 644,-77 248,-77"/>
<text text-anchor="start" x="388.99" y="-84" font-family="Courier New" font-weight="bold" font-size="10.00" fill="blue">REF_MACHINE(WIP1,0)</text>
<polygon fill="none" stroke="black" points="248,-57 248,-75 644,-75 644,-57 248,-57"/>
<text text-anchor="start" x="251" y="-63" font-family="Courier New" font-size="10.00" fill="blue">MOV(WPARM,R_WPARM);MOV(BFRAME,WPARM);MAP(BFRAME,WIP2);SHOW(WIP3);</text>
<polygon fill="none" stroke="black" points="245,-54 245,-98 647,-98 647,-54 245,-54"/>
</g>
<!-- status -->
<g id="node4" class="node">
<title>status</title>
<polygon fill="none" stroke="black" points="244,-116.5 244,-200.5 680,-200.5 680,-116.5 244,-116.5"/>
<polygon fill="none" stroke="black" points="255,-175.5 255,-193.5 669,-193.5 669,-175.5 255,-175.5"/>
<text text-anchor="start" x="438" y="-182.5" font-family="Courier New" font-weight="bold" font-size="10.00">S12_WORD</text>
<polygon fill="none" stroke="black" points="255,-143.5 255,-173.5 669,-173.5 669,-143.5 255,-143.5"/>
<text text-anchor="start" x="258" y="-161.5" font-family="Courier New" font-size="10.00" fill="green">S12_WORD::M12_ING_STD(&#39;SMP_EYEINFO&#39;,&#39;S12_ING_WRD&#39;,&#39;IDS_WORDSCRL&#39;,&#39;&#39;)</text>
<text text-anchor="start" x="258" y="-149.5" font-family="Courier New" font-size="10.00" fill="green">{&#39;0&#39;: wParm:2 wSprite:WORDSCRL bFrame:1}</text>
<polygon fill="none" stroke="black" points="255,-123.5 255,-141.5 669,-141.5 669,-123.5 255,-123.5"/>
<text text-anchor="start" x="459" y="-129.5" font-family="Courier New" font-size="10.00" fill="blue">_</text>
<polygon fill="none" stroke="black" points="252,-120.5 252,-196.5 672,-196.5 672,-120.5 252,-120.5"/>
</g>
</g>
</svg>
