<?xml version="1.0" encoding="UTF-8" standalone="no"?>
<!DOCTYPE svg PUBLIC "-//W3C//DTD SVG 1.1//EN"
 "http://www.w3.org/Graphics/SVG/1.1/DTD/svg11.dtd">
<!-- Generated by graphviz version 7.1.0 (20230121.1956)
 -->
<!-- Title: Automaton Pages: 1 -->
<svg width="2260pt" height="160pt"
 viewBox="0.00 0.00 2260.00 160.00" xmlns="http://www.w3.org/2000/svg" xmlns:xlink="http://www.w3.org/1999/xlink">
<g id="graph0" class="graph" transform="scale(1 1) rotate(0) translate(4 156)">
<title>Automaton</title>
<polygon fill="white" stroke="none" points="-4,4 -4,-156 2256,-156 2256,4 -4,4"/>
<!-- filename -->
<g id="node1" class="node">
<title>filename</title>
<polygon fill="none" stroke="black" points="0,-4 0,-148 364,-148 364,-4 0,-4"/>
<polygon fill="none" stroke="black" points="11,-123 11,-141 353,-141 353,-123 11,-123"/>
<text text-anchor="start" x="58.98" y="-130" font-family="Courier New" font-weight="bold" font-size="10.00">S12_SHELF_1_INGREDIENTS_MGR::M12_xING_MGR</text>
<polygon fill="none" stroke="black" points="11,-31 11,-121 353,-121 353,-31 11,-31"/>
<text text-anchor="start" x="14" y="-109" font-family="Courier New" font-size="10.00" fill="green">used in the temple to hold ingredients for spell making.</text>
<text text-anchor="start" x="14" y="-97" font-family="Courier New" font-size="10.00" fill="green">WIP1: The scroll holder</text>
<text text-anchor="start" x="14" y="-85" font-family="Courier New" font-size="10.00" fill="green">WIP2: The scroll map</text>
<text text-anchor="start" x="14" y="-73" font-family="Courier New" font-size="10.00" fill="green">SIG_SHOW: A scroll was dropped</text>
<text text-anchor="start" x="14" y="-61" font-family="Courier New" font-size="10.00" fill="green">SIG_HIDE: The scroll was grabbed</text>
<text text-anchor="start" x="14" y="-49" font-family="Courier New" font-size="10.00" fill="green">SIG_CLOSE: The spell is cast</text>
<text text-anchor="start" x="14" y="-37" font-family="Courier New" font-size="10.00" fill="green">SIG_CHECK: Check spell ingredients</text>
<polygon fill="none" stroke="black" points="11,-11 11,-29 353,-29 353,-11 11,-11"/>
<text text-anchor="start" x="136.99" y="-17" font-family="Courier New" font-size="10.00" fill="brown">start state = 0</text>
<polygon fill="none" stroke="black" points="8,-8 8,-144 356,-144 356,-8 8,-8"/>
</g>
<!-- 0 -->
<g id="node2" class="node">
<title>0</title>
<polyline fill="none" stroke="darkred" stroke-width="5" points="400.5,-63.5 417.5,-63.5"/>
<text text-anchor="start" x="405" y="-72.4" font-family="Courier New" font-weight="bold" font-size="14.00">0</text>
<path fill="none" stroke="darkred" stroke-width="5" d="M403.83,-56.5C403.83,-56.5 414.17,-56.5 414.17,-56.5 419.33,-56.5 424.5,-61.67 424.5,-66.83 424.5,-66.83 424.5,-85.17 424.5,-85.17 424.5,-90.33 419.33,-95.5 414.17,-95.5 414.17,-95.5 403.83,-95.5 403.83,-95.5 398.67,-95.5 393.5,-90.33 393.5,-85.17 393.5,-85.17 393.5,-66.83 393.5,-66.83 393.5,-61.67 398.67,-56.5 403.83,-56.5"/>
</g>
<!-- 0&#45;&gt;0 -->
<g id="edge1" class="edge">
<title>0&#45;&gt;0</title>
<path fill="none" stroke="black" d="M435.79,-78.43C445.78,-78.51 454,-77.7 454,-76 454,-75.02 451.25,-74.33 447.01,-73.94"/>
<polygon fill="black" stroke="black" points="447.42,-70.45 437.31,-73.62 447.19,-77.45 447.42,-70.45"/>
<polygon fill="none" stroke="black" points="457,-95 457,-113 661,-113 661,-95 457,-95"/>
<text text-anchor="start" x="510.99" y="-102" font-family="Courier New" font-weight="bold" font-size="10.00" fill="orange">WAIT(0,SIG_SHOW)</text>
<polygon fill="none" stroke="black" points="457,-39 457,-93 661,-93 661,-39 457,-39"/>
<text text-anchor="start" x="460" y="-81" font-family="Courier New" font-size="10.00" fill="blue"> &#160;&#160;&#160;&#160;&#160;&#160;&#160;SIGNAL(WIP1,SIG_SHOW);</text>
<text text-anchor="start" x="460" y="-69" font-family="Courier New" font-size="10.00" fill="blue"> &#160;&#160;&#160;&#160;&#160;&#160;&#160;SIGNAL(WIP2,SIG_SHOW); &#160;&#160;</text>
<text text-anchor="start" x="460" y="-57" font-family="Courier New" font-size="10.00" fill="blue"> &#160;&#160;&#160;&#160;&#160;&#160;&#160;SIGNAL(WIP3,SIG_SHOW);</text>
<text text-anchor="start" x="460" y="-45" font-family="Courier New" font-size="10.00" fill="blue"> &#160;&#160;&#160;&#160;&#160;&#160;&#160;SIGNAL(WIP4,SIG_SHOW);</text>
<polygon fill="none" stroke="black" points="454,-36 454,-116 664,-116 664,-36 454,-36"/>
</g>
<!-- 0&#45;&gt;0 -->
<g id="edge2" class="edge">
<title>0&#45;&gt;0</title>
<path fill="none" stroke="black" d="M435.96,-78.75C502.77,-82.31 664,-81.4 664,-76 664,-70.89 519.32,-69.8 447.28,-72.72"/>
<polygon fill="black" stroke="black" points="447.3,-69.22 437.47,-73.18 447.63,-76.21 447.3,-69.22"/>
<polygon fill="none" stroke="black" points="667,-95 667,-113 871,-113 871,-95 667,-95"/>
<text text-anchor="start" x="720.99" y="-102" font-family="Courier New" font-weight="bold" font-size="10.00" fill="orange">WAIT(0,SIG_HIDE)</text>
<polygon fill="none" stroke="black" points="667,-39 667,-93 871,-93 871,-39 667,-39"/>
<text text-anchor="start" x="670" y="-81" font-family="Courier New" font-size="10.00" fill="blue"> &#160;&#160;&#160;&#160;&#160;&#160;&#160;SIGNAL(WIP1,SIG_HIDE);</text>
<text text-anchor="start" x="670" y="-69" font-family="Courier New" font-size="10.00" fill="blue"> &#160;&#160;&#160;&#160;&#160;&#160;&#160;SIGNAL(WIP2,SIG_HIDE); &#160;&#160;</text>
<text text-anchor="start" x="670" y="-57" font-family="Courier New" font-size="10.00" fill="blue"> &#160;&#160;&#160;&#160;&#160;&#160;&#160;SIGNAL(WIP3,SIG_HIDE);</text>
<text text-anchor="start" x="670" y="-45" font-family="Courier New" font-size="10.00" fill="blue"> &#160;&#160;&#160;&#160;&#160;&#160;&#160;SIGNAL(WIP4,SIG_HIDE);</text>
<polygon fill="none" stroke="black" points="664,-36 664,-116 874,-116 874,-36 664,-36"/>
</g>
<!-- 0&#45;&gt;0 -->
<g id="edge3" class="edge">
<title>0&#45;&gt;0</title>
<path fill="none" stroke="black" d="M435.72,-79.13C536.41,-85.6 874,-84.56 874,-76 874,-67.74 559.73,-66.48 447.19,-72.21"/>
<polygon fill="black" stroke="black" points="447.01,-68.72 437.23,-72.78 447.41,-75.7 447.01,-68.72"/>
<polygon fill="none" stroke="black" points="877,-107 877,-125 1087,-125 1087,-107 877,-107"/>
<text text-anchor="start" x="933.99" y="-114" font-family="Courier New" font-weight="bold" font-size="10.00" fill="orange">WAIT(,SIG_CLOSE)</text>
<polygon fill="none" stroke="black" points="877,-27 877,-105 1087,-105 1087,-27 877,-27"/>
<text text-anchor="start" x="880" y="-93" font-family="Courier New" font-size="10.00" fill="blue"> &#160;&#160;&#160;&#160;&#160;&#160;&#160;SIGNAL(WIP1,SIG_CLOSE);</text>
<text text-anchor="start" x="880" y="-81" font-family="Courier New" font-size="10.00" fill="blue"> &#160;&#160;&#160;&#160;&#160;&#160;&#160;SIGNAL(WIP2,SIG_CLOSE); &#160;&#160;</text>
<text text-anchor="start" x="880" y="-69" font-family="Courier New" font-size="10.00" fill="blue"> &#160;&#160;&#160;&#160;&#160;&#160;&#160;SIGNAL(WIP3,SIG_CLOSE);</text>
<text text-anchor="start" x="880" y="-57" font-family="Courier New" font-size="10.00" fill="blue"> &#160;&#160;&#160;&#160;&#160;&#160;&#160;SIGNAL(WIP4,SIG_CLOSE);</text>
<text text-anchor="start" x="880" y="-45" font-family="Courier New" font-size="10.00" fill="blue"> &#160;&#160;&#160;&#160;&#160;&#160;&#160;ASSIGN(BPARM,0);</text>
<text text-anchor="start" x="880" y="-33" font-family="Courier New" font-size="10.00" fill="blue"> &#160;&#160;&#160;&#160;&#160;&#160;&#160;ASSIGN(WPARM,0);</text>
<polygon fill="none" stroke="black" points="874,-24 874,-128 1090,-128 1090,-24 874,-24"/>
</g>
<!-- 0&#45;&gt;0 -->
<g id="edge4" class="edge">
<title>0&#45;&gt;0</title>
<path fill="none" stroke="black" d="M435.92,-79.5C564.66,-88.87 1090,-87.71 1090,-76 1090,-64.61 593,-63.2 447.35,-71.76"/>
<polygon fill="black" stroke="black" points="447.18,-68.26 437.43,-72.4 447.64,-75.25 447.18,-68.26"/>
<polygon fill="none" stroke="black" points="1093,-131 1093,-149 1441,-149 1441,-131 1093,-131"/>
<text text-anchor="start" x="1215.99" y="-138" font-family="Courier New" font-weight="bold" font-size="10.00" fill="orange">WAIT(0,SIG_CHECK)</text>
<polygon fill="none" stroke="black" points="1093,-3 1093,-129 1441,-129 1441,-3 1093,-3"/>
<text text-anchor="start" x="1096" y="-117" font-family="Courier New" font-size="10.00" fill="blue">BPARM=0;</text>
<text text-anchor="start" x="1096" y="-105" font-family="Courier New" font-size="10.00" fill="blue">// check all the machines for ready or idle ...</text>
<text text-anchor="start" x="1096" y="-93" font-family="Courier New" font-size="10.00" fill="blue">if ( &#160;(IFSTATE(&#39;ready&#39;, WIP1) \|\| IFSTATE(&#39;0&#39;, WIP1))</text>
<text text-anchor="start" x="1096" y="-81" font-family="Courier New" font-size="10.00" fill="blue"> &#160;&#160;&amp;&amp; (IFSTATE(&#39;ready&#39;, WIP2) \|\| IFSTATE(&#39;0&#39;, WIP2))</text>
<text text-anchor="start" x="1096" y="-69" font-family="Courier New" font-size="10.00" fill="blue"> &#160;&#160;&amp;&amp; (IFSTATE(&#39;ready&#39;, WIP3) \|\| IFSTATE(&#39;0&#39;, WIP3))</text>
<text text-anchor="start" x="1096" y="-57" font-family="Courier New" font-size="10.00" fill="blue"> &#160;&#160;&amp;&amp; (IFSTATE(&#39;ready&#39;, WIP4) \|\| IFSTATE(&#39;0&#39;, WIP4))) {</text>
<text text-anchor="start" x="1096" y="-45" font-family="Courier New" font-size="10.00" fill="blue"> &#160;&#160;&#160;&#160;&#160;&#160;&#160;WRITE(&#39;winner winner chicken dinner&#39;);</text>
<text text-anchor="start" x="1096" y="-33" font-family="Courier New" font-size="10.00" fill="blue"> &#160;&#160;&#160;&#160;&#160;&#160;&#160;BPARM=1;</text>
<text text-anchor="start" x="1096" y="-21" font-family="Courier New" font-size="10.00" fill="blue"> &#160;&#160;&#160;&#160;&#160;&#160;&#160;WPARM=1;</text>
<text text-anchor="start" x="1096" y="-9" font-family="Courier New" font-size="10.00" fill="blue">}</text>
<polygon fill="none" stroke="black" points="1090,0 1090,-152 1444,-152 1444,0 1090,0"/>
</g>
<!-- status -->
<g id="node3" class="node">
<title>status</title>
<polygon fill="none" stroke="black" points="1516,-34 1516,-118 2252,-118 2252,-34 1516,-34"/>
<polygon fill="none" stroke="black" points="1527,-93 1527,-111 2241,-111 2241,-93 1527,-93"/>
<text text-anchor="start" x="1802.99" y="-100" font-family="Courier New" font-weight="bold" font-size="10.00">S12_SHELF_1_INGREDIENTS_MGR</text>
<polygon fill="none" stroke="black" points="1527,-61 1527,-91 2241,-91 2241,-61 1527,-61"/>
<text text-anchor="start" x="1530" y="-79" font-family="Courier New" font-size="10.00" fill="green">S12_SHELF_1_INGREDIENTS_MGR::M12_xING_MGR(&#39;S12_SHELF_1_ING1&#39;,&#39;S12_SHELF_1_ING2&#39;,&#39;S12_SHELF_1_ING3&#39;,&#39;S12_SHELF_1_ING4&#39;)</text>
<text text-anchor="start" x="1530" y="-67" font-family="Courier New" font-size="10.00" fill="green">{&#39;0&#39;:}</text>
<polygon fill="none" stroke="black" points="1527,-41 1527,-59 2241,-59 2241,-41 1527,-41"/>
<text text-anchor="start" x="1881" y="-47" font-family="Courier New" font-size="10.00" fill="blue">_</text>
<polygon fill="none" stroke="black" points="1524,-38 1524,-114 2244,-114 2244,-38 1524,-38"/>
</g>
</g>
</svg>
