<?xml version="1.0" encoding="UTF-8" standalone="no"?>
<!DOCTYPE svg PUBLIC "-//W3C//DTD SVG 1.1//EN"
 "http://www.w3.org/Graphics/SVG/1.1/DTD/svg11.dtd">
<!-- Generated by graphviz version 7.1.0 (20230121.1956)
 -->
<!-- Title: Automaton Pages: 1 -->
<svg width="1726pt" height="129pt"
 viewBox="0.00 0.00 1726.00 129.00" xmlns="http://www.w3.org/2000/svg" xmlns:xlink="http://www.w3.org/1999/xlink">
<g id="graph0" class="graph" transform="scale(1 1) rotate(0) translate(4 125)">
<title>Automaton</title>
<polygon fill="white" stroke="none" points="-4,4 -4,-125 1722,-125 1722,4 -4,4"/>
<!-- filename -->
<g id="node1" class="node">
<title>filename</title>
<polygon fill="none" stroke="black" points="0,-34.5 0,-86.5 274,-86.5 274,-34.5 0,-34.5"/>
<polygon fill="none" stroke="black" points="11,-61.5 11,-79.5 263,-79.5 263,-61.5 11,-61.5"/>
<text text-anchor="start" x="14" y="-68.5" font-family="Courier New" font-weight="bold" font-size="10.00">S12_SHELF_1_CANDLELIGHT::M12_xCANDLELIGHT</text>
<polygon fill="none" stroke="black" points="11,-41.5 11,-59.5 263,-59.5 263,-41.5 11,-41.5"/>
<text text-anchor="start" x="91.99" y="-47.5" font-family="Courier New" font-size="10.00" fill="brown">start state = 0</text>
<polygon fill="none" stroke="black" points="8,-38.5 8,-82.5 266,-82.5 266,-38.5 8,-38.5"/>
</g>
<!-- 0 -->
<g id="node2" class="node">
<title>0</title>
<polyline fill="none" stroke="darkred" stroke-width="3" points="311.5,-49 326.5,-49"/>
<text text-anchor="start" x="315" y="-56.9" font-family="Courier New" font-weight="bold" font-size="14.00">0</text>
<path fill="none" stroke="darkred" stroke-width="3" d="M314.83,-44C314.83,-44 323.17,-44 323.17,-44 327.33,-44 331.5,-48.17 331.5,-52.33 331.5,-52.33 331.5,-68.67 331.5,-68.67 331.5,-72.83 327.33,-77 323.17,-77 323.17,-77 314.83,-77 314.83,-77 310.67,-77 306.5,-72.83 306.5,-68.67 306.5,-68.67 306.5,-52.33 306.5,-52.33 306.5,-48.17 310.67,-44 314.83,-44"/>
</g>
<!-- 0&#45;&gt;0 -->
<g id="edge1" class="edge">
<title>0&#45;&gt;0</title>
<path fill="none" stroke="black" d="M345.79,-64.62C355.78,-64.75 364,-63.38 364,-60.5 364,-58.84 361.25,-57.67 357.01,-57.02"/>
<polygon fill="black" stroke="black" points="357.49,-53.54 347.31,-56.47 357.09,-60.53 357.49,-53.54"/>
<polygon fill="none" stroke="black" points="367,-85.5 367,-103.5 685,-103.5 685,-85.5 367,-85.5"/>
<text text-anchor="start" x="480.99" y="-92.5" font-family="Courier New" font-weight="bold" font-size="10.00" fill="orange">WAIT(,SIG_SHOW)</text>
<polygon fill="none" stroke="black" points="367,-17.5 367,-83.5 685,-83.5 685,-17.5 367,-17.5"/>
<text text-anchor="start" x="370" y="-71.5" font-family="Courier New" font-size="10.00" fill="blue">MOV(WSPRITE,WIP1);</text>
<text text-anchor="start" x="370" y="-59.5" font-family="Courier New" font-size="10.00" fill="blue">ASHOW(WIP1);</text>
<text text-anchor="start" x="370" y="-47.5" font-family="Courier New" font-size="10.00" fill="blue">PLAYWAVE(SOUND_FIRE);</text>
<text text-anchor="start" x="370" y="-35.5" font-family="Courier New" font-size="10.00" fill="blue">SIGNAL(WIP4, SIG_SHOW); // play magic and light wick</text>
<text text-anchor="start" x="370" y="-23.5" font-family="Courier New" font-size="10.00" fill="blue">SIGNAL(WIP2, SIG_SHOW);</text>
<polygon fill="none" stroke="black" points="364,-14.5 364,-106.5 688,-106.5 688,-14.5 364,-14.5"/>
</g>
<!-- 0&#45;&gt;0 -->
<g id="edge2" class="edge">
<title>0&#45;&gt;0</title>
<path fill="none" stroke="black" d="M345.97,-64.53C432.16,-71.28 688,-69.93 688,-60.5 688,-51.46 452.72,-49.85 357.4,-55.68"/>
<polygon fill="black" stroke="black" points="357.21,-52.18 347.48,-56.36 357.7,-59.16 357.21,-52.18"/>
<polygon fill="none" stroke="black" points="691,-73.5 691,-91.5 835,-91.5 835,-73.5 691,-73.5"/>
<text text-anchor="start" x="717.99" y="-80.5" font-family="Courier New" font-weight="bold" font-size="10.00" fill="orange">WAIT(,SIG_HIDE)</text>
<polygon fill="none" stroke="black" points="691,-29.5 691,-71.5 835,-71.5 835,-29.5 691,-29.5"/>
<text text-anchor="start" x="694" y="-59.5" font-family="Courier New" font-size="10.00" fill="blue">CLEAR(WSPRITE);</text>
<text text-anchor="start" x="694" y="-47.5" font-family="Courier New" font-size="10.00" fill="blue">ASHOW(0);</text>
<text text-anchor="start" x="694" y="-35.5" font-family="Courier New" font-size="10.00" fill="blue">SIGNAL(WIP3,SIG_EMPTY);</text>
<polygon fill="none" stroke="black" points="688,-26.5 688,-94.5 838,-94.5 838,-26.5 688,-26.5"/>
</g>
<!-- status -->
<g id="node3" class="node">
<title>status</title>
<polygon fill="none" stroke="black" points="874,-0.5 874,-120.5 1718,-120.5 1718,-0.5 874,-0.5"/>
<polygon fill="none" stroke="black" points="885,-95.5 885,-113.5 1707,-113.5 1707,-95.5 885,-95.5"/>
<text text-anchor="start" x="1226.99" y="-102.5" font-family="Courier New" font-weight="bold" font-size="10.00">S12_SHELF_1_CANDLELIGHT</text>
<polygon fill="none" stroke="black" points="885,-27.5 885,-93.5 1707,-93.5 1707,-27.5 885,-27.5"/>
<text text-anchor="start" x="888" y="-81.5" font-family="Courier New" font-size="10.00" fill="green">VIEW: IDV_TMCU1</text>
<text text-anchor="start" x="888" y="-69.5" font-family="Courier New" font-size="10.00" fill="green">S12_SHELF_1_CANDLE::M12_xCANDLE(&#39;S12_SHELF_1_CANDLELIGHT&#39;,&#39;S12_SHELF_1_NYSTROMADDED&#39;,&#39;S12_SHELF_1_INGREDIENTS_MGR&#39;,&#39;S12_SHELF_1_SCROLL&#39;)</text>
<text text-anchor="start" x="888" y="-57.5" font-family="Courier New" font-size="10.00" fill="green">{&#39;0&#39;:}</text>
<text text-anchor="start" x="888" y="-45.5" font-family="Courier New" font-size="10.00" fill="green">S12_SHELF_1_CANDLELIGHT::M12_xCANDLELIGHT(&#39;IDS_CANNY1&#39;,&#39;S12_SHELF_1_SPELLPORTAL&#39;,&#39;S12_SHELF_1_CANDLE&#39;,&#39;S12_SHELF_1_MAGIC&#39;)</text>
<text text-anchor="start" x="888" y="-33.5" font-family="Courier New" font-size="10.00" fill="green">{&#39;0&#39;:}</text>
<polygon fill="none" stroke="black" points="885,-7.5 885,-25.5 1707,-25.5 1707,-7.5 885,-7.5"/>
<text text-anchor="start" x="1293" y="-13.5" font-family="Courier New" font-size="10.00" fill="blue">_</text>
<polygon fill="none" stroke="black" points="882,-4.5 882,-116.5 1710,-116.5 1710,-4.5 882,-4.5"/>
</g>
</g>
</svg>
