<?xml version="1.0" encoding="UTF-8" standalone="no"?>
<!DOCTYPE svg PUBLIC "-//W3C//DTD SVG 1.1//EN"
 "http://www.w3.org/Graphics/SVG/1.1/DTD/svg11.dtd">
<!-- Generated by graphviz version 7.1.0 (20230121.1956)
 -->
<!-- Title: Automaton Pages: 1 -->
<svg width="670pt" height="209pt"
 viewBox="0.00 0.00 670.00 209.00" xmlns="http://www.w3.org/2000/svg" xmlns:xlink="http://www.w3.org/1999/xlink">
<g id="graph0" class="graph" transform="scale(1 1) rotate(0) translate(4 205)">
<title>Automaton</title>
<polygon fill="white" stroke="none" points="-4,4 -4,-205 666,-205 666,4 -4,4"/>
<!-- filename -->
<g id="node1" class="node">
<title>filename</title>
<polygon fill="none" stroke="black" points="0,-132.5 0,-184.5 148,-184.5 148,-132.5 0,-132.5"/>
<polygon fill="none" stroke="black" points="11,-159.5 11,-177.5 137,-177.5 137,-159.5 11,-159.5"/>
<text text-anchor="start" x="14" y="-166.5" font-family="Courier New" font-weight="bold" font-size="10.00">S12_NYST::M12_ING_NY</text>
<polygon fill="none" stroke="black" points="11,-139.5 11,-157.5 137,-157.5 137,-139.5 11,-139.5"/>
<text text-anchor="start" x="28.99" y="-145.5" font-family="Courier New" font-size="10.00" fill="brown">start state = 0</text>
<polygon fill="none" stroke="black" points="8,-136.5 8,-180.5 140,-180.5 140,-136.5 8,-136.5"/>
</g>
<!-- 0 -->
<g id="node2" class="node">
<title>0</title>
<polyline fill="none" stroke="darkred" stroke-width="5" points="184.5,-146 201.5,-146"/>
<text text-anchor="start" x="189" y="-154.9" font-family="Courier New" font-weight="bold" font-size="14.00">0</text>
<path fill="none" stroke="darkred" stroke-width="5" d="M187.83,-139C187.83,-139 198.17,-139 198.17,-139 203.33,-139 208.5,-144.17 208.5,-149.33 208.5,-149.33 208.5,-167.67 208.5,-167.67 208.5,-172.83 203.33,-178 198.17,-178 198.17,-178 187.83,-178 187.83,-178 182.67,-178 177.5,-172.83 177.5,-167.67 177.5,-167.67 177.5,-149.33 177.5,-149.33 177.5,-144.17 182.67,-139 187.83,-139"/>
</g>
<!-- 1 -->
<g id="node3" class="node">
<title>1</title>
<polyline fill="none" stroke="darkred" points="185,-7 199,-7"/>
<text text-anchor="start" x="188" y="-14.4" font-family="Courier New" font-weight="bold" font-size="14.00">1</text>
<path fill="none" stroke="darkred" d="M188.67,-4C188.67,-4 195.33,-4 195.33,-4 198.67,-4 202,-7.33 202,-10.67 202,-10.67 202,-25.33 202,-25.33 202,-28.67 198.67,-32 195.33,-32 195.33,-32 188.67,-32 188.67,-32 185.33,-32 182,-28.67 182,-25.33 182,-25.33 182,-10.67 182,-10.67 182,-7.33 185.33,-4 188.67,-4"/>
</g>
<!-- 0&#45;&gt;1 -->
<g id="edge1" class="edge">
<title>0&#45;&gt;1</title>
<path fill="none" stroke="black" d="M173.47,-132.78C168.39,-126.99 162.73,-121.04 157,-116 146.18,-106.47 136.81,-110.72 130,-98 120.77,-80.76 120.14,-70.89 130,-54 135.64,-44.33 145.05,-37.13 154.85,-31.85"/>
<polygon fill="black" stroke="black" points="156.15,-35.11 163.7,-27.67 153.17,-28.78 156.15,-35.11"/>
<text text-anchor="start" x="134" y="-74" font-family="Courier New" font-weight="bold" font-size="10.00" fill="orange">WAIT(0,SIG_SHOW)</text>
</g>
<!-- 1&#45;&gt;0 -->
<g id="edge2" class="edge">
<title>1&#45;&gt;0</title>
<path fill="none" stroke="black" d="M218.82,-35.39C224.93,-40.53 230.62,-46.78 234,-54 242.29,-71.71 239.81,-79.33 234,-98 231.24,-106.86 226.66,-115.56 221.53,-123.46"/>
<polygon fill="black" stroke="black" points="218.83,-121.22 215.97,-131.42 224.57,-125.23 218.83,-121.22"/>
<polygon fill="none" stroke="black" points="242,-77 242,-95 578,-95 578,-77 242,-77"/>
<text text-anchor="start" x="352.99" y="-84" font-family="Courier New" font-weight="bold" font-size="10.00" fill="blue">REF_MACHINE(WIP1,0)</text>
<polygon fill="none" stroke="black" points="242,-57 242,-75 578,-75 578,-57 242,-57"/>
<text text-anchor="start" x="245" y="-63" font-family="Courier New" font-size="10.00" fill="blue">MOV(BFRAME,R_WPARM);MAPi(BFRAME,S12_ING_NY);SHOW(WIP3);</text>
<polygon fill="none" stroke="black" points="239,-54 239,-98 581,-98 581,-54 239,-54"/>
</g>
<!-- status -->
<g id="node4" class="node">
<title>status</title>
<polygon fill="none" stroke="black" points="238,-116.5 238,-200.5 662,-200.5 662,-116.5 238,-116.5"/>
<polygon fill="none" stroke="black" points="249,-175.5 249,-193.5 651,-193.5 651,-175.5 249,-175.5"/>
<text text-anchor="start" x="426" y="-182.5" font-family="Courier New" font-weight="bold" font-size="10.00">S12_NYST</text>
<polygon fill="none" stroke="black" points="249,-143.5 249,-173.5 651,-173.5 651,-143.5 249,-143.5"/>
<text text-anchor="start" x="252" y="-161.5" font-family="Courier New" font-size="10.00" fill="green">S12_NYST::M12_ING_NY(&#39;SMP_EYEINFO&#39;,&#39;S12_ING_NY&#39;,&#39;IDS_VIALSCRL&#39;,&#39;&#39;)</text>
<text text-anchor="start" x="252" y="-149.5" font-family="Courier New" font-size="10.00" fill="green">{&#39;0&#39;: wSprite:VIALSCRL bFrame:2}</text>
<polygon fill="none" stroke="black" points="249,-123.5 249,-141.5 651,-141.5 651,-123.5 249,-123.5"/>
<text text-anchor="start" x="447" y="-129.5" font-family="Courier New" font-size="10.00" fill="blue">_</text>
<polygon fill="none" stroke="black" points="246,-120.5 246,-196.5 654,-196.5 654,-120.5 246,-120.5"/>
</g>
</g>
</svg>
