<?xml version="1.0" encoding="UTF-8" standalone="no"?>
<!DOCTYPE svg PUBLIC "-//W3C//DTD SVG 1.1//EN"
 "http://www.w3.org/Graphics/SVG/1.1/DTD/svg11.dtd">
<!-- Generated by graphviz version 7.1.0 (20230121.1956)
 -->
<!-- Title: Automaton Pages: 1 -->
<svg width="1656pt" height="393pt"
 viewBox="0.00 0.00 1656.03 393.00" xmlns="http://www.w3.org/2000/svg" xmlns:xlink="http://www.w3.org/1999/xlink">
<g id="graph0" class="graph" transform="scale(1 1) rotate(0) translate(4 389)">
<title>Automaton</title>
<polygon fill="white" stroke="none" points="-4,4 -4,-389 1652.03,-389 1652.03,4 -4,4"/>
<!-- filename -->
<g id="node1" class="node">
<title>filename</title>
<polygon fill="none" stroke="black" points="884.03,-320.5 884.03,-372.5 1080.03,-372.5 1080.03,-320.5 884.03,-320.5"/>
<polygon fill="none" stroke="black" points="895.03,-347.5 895.03,-365.5 1069.03,-365.5 1069.03,-347.5 895.03,-347.5"/>
<text text-anchor="start" x="898.03" y="-354.5" font-family="Courier New" font-weight="bold" font-size="10.00">S16_BUCK_STAMP::M16_PAYSTAMP</text>
<polygon fill="none" stroke="black" points="895.03,-327.5 895.03,-345.5 1069.03,-345.5 1069.03,-327.5 895.03,-327.5"/>
<text text-anchor="start" x="937.02" y="-333.5" font-family="Courier New" font-size="10.00" fill="brown">start state = 0</text>
<polygon fill="none" stroke="black" points="892.03,-324.5 892.03,-368.5 1072.03,-368.5 1072.03,-324.5 892.03,-324.5"/>
</g>
<!-- 0 -->
<g id="node2" class="node">
<title>0</title>
<polyline fill="none" stroke="darkred" points="1118.03,-335.5 1132.03,-335.5"/>
<text text-anchor="start" x="1121.03" y="-342.9" font-family="Courier New" font-weight="bold" font-size="14.00">0</text>
<path fill="none" stroke="darkred" d="M1121.69,-332.5C1121.69,-332.5 1128.36,-332.5 1128.36,-332.5 1131.69,-332.5 1135.03,-335.83 1135.03,-339.17 1135.03,-339.17 1135.03,-353.83 1135.03,-353.83 1135.03,-357.17 1131.69,-360.5 1128.36,-360.5 1128.36,-360.5 1121.69,-360.5 1121.69,-360.5 1118.36,-360.5 1115.03,-357.17 1115.03,-353.83 1115.03,-353.83 1115.03,-339.17 1115.03,-339.17 1115.03,-335.83 1118.36,-332.5 1121.69,-332.5"/>
</g>
<!-- startframe -->
<g id="node3" class="node">
<title>startframe</title>
<polyline fill="none" stroke="darkred" points="856.03,-223 946.03,-223"/>
<text text-anchor="start" x="859.03" y="-230.4" font-family="Courier New" font-weight="bold" font-size="14.00">startframe</text>
<path fill="none" stroke="darkred" d="M862.36,-220C862.36,-220 939.69,-220 939.69,-220 944.36,-220 949.03,-224.67 949.03,-229.33 949.03,-229.33 949.03,-238.67 949.03,-238.67 949.03,-243.33 944.36,-248 939.69,-248 939.69,-248 862.36,-248 862.36,-248 857.69,-248 853.03,-243.33 853.03,-238.67 853.03,-238.67 853.03,-229.33 853.03,-229.33 853.03,-224.67 857.69,-220 862.36,-220"/>
</g>
<!-- 0&#45;&gt;startframe -->
<g id="edge1" class="edge">
<title>0&#45;&gt;startframe</title>
<path fill="none" stroke="black" d="M1111.65,-328.58C1105.38,-321.49 1097.44,-313.61 1089.03,-308 1051.91,-283.25 1005.16,-265.05 967.57,-253.02"/>
<polygon fill="black" stroke="black" points="968.76,-249.72 958.17,-250.08 966.67,-256.4 968.76,-249.72"/>
<text text-anchor="start" x="1059.03" y="-278" font-family="Courier New" font-weight="bold" font-size="10.00" fill="blue">ASSIGN(BFRAME,1)</text>
</g>
<!-- waiting -->
<g id="node5" class="node">
<title>waiting</title>
<polyline fill="none" stroke="darkred" stroke-width="3" points="539.53,-126.5 604.53,-126.5"/>
<text text-anchor="start" x="543.03" y="-134.4" font-family="Courier New" font-weight="bold" font-size="14.00">waiting</text>
<path fill="none" stroke="darkred" stroke-width="3" d="M545.53,-121.5C545.53,-121.5 598.53,-121.5 598.53,-121.5 604.03,-121.5 609.53,-127 609.53,-132.5 609.53,-132.5 609.53,-143.5 609.53,-143.5 609.53,-149 604.03,-154.5 598.53,-154.5 598.53,-154.5 545.53,-154.5 545.53,-154.5 540.03,-154.5 534.53,-149 534.53,-143.5 534.53,-143.5 534.53,-132.5 534.53,-132.5 534.53,-127 540.03,-121.5 545.53,-121.5"/>
</g>
<!-- startframe&#45;&gt;waiting -->
<g id="edge4" class="edge">
<title>startframe&#45;&gt;waiting</title>
<path fill="none" stroke="black" d="M845.22,-217.05C785.24,-199.92 690.38,-172.81 629.7,-155.48"/>
<polygon fill="black" stroke="black" points="630.81,-152.16 620.23,-152.77 628.89,-158.89 630.81,-152.16"/>
<text text-anchor="start" x="779.03" y="-186" font-family="Courier New" font-weight="bold" font-size="10.00" fill="blue">SHOW(WIP1,)</text>
</g>
<!-- readyToPay -->
<g id="node4" class="node">
<title>readyToPay</title>
<polyline fill="none" stroke="darkred" points="527.03,-7 617.03,-7"/>
<text text-anchor="start" x="530.03" y="-14.4" font-family="Courier New" font-weight="bold" font-size="14.00">readyToPay</text>
<path fill="none" stroke="darkred" d="M533.36,-4C533.36,-4 610.69,-4 610.69,-4 615.36,-4 620.03,-8.67 620.03,-13.33 620.03,-13.33 620.03,-22.67 620.03,-22.67 620.03,-27.33 615.36,-32 610.69,-32 610.69,-32 533.36,-32 533.36,-32 528.69,-32 524.03,-27.33 524.03,-22.67 524.03,-22.67 524.03,-13.33 524.03,-13.33 524.03,-8.67 528.69,-4 533.36,-4"/>
</g>
<!-- readyToPay&#45;&gt;0 -->
<g id="edge3" class="edge">
<title>readyToPay&#45;&gt;0</title>
<path fill="none" stroke="black" d="M627.92,-20.04C778.63,-23.11 1183.41,-33.27 1203.03,-54 1274.67,-129.73 1187.81,-263.85 1145.57,-319.83"/>
<polygon fill="black" stroke="black" points="1142.97,-317.48 1139.65,-327.54 1148.52,-321.74 1142.97,-317.48"/>
<text text-anchor="start" x="1225.03" y="-186" font-family="Courier New" font-weight="bold" font-size="10.00" fill="orange">WAIT(0,SIG_OFF)</text>
</g>
<!-- readyToPay&#45;&gt;waiting -->
<g id="edge2" class="edge">
<title>readyToPay&#45;&gt;waiting</title>
<path fill="none" stroke="black" d="M572.03,-35.8C572.03,-53.73 572.03,-82.57 572.03,-104.88"/>
<polygon fill="black" stroke="black" points="568.53,-104.66 572.03,-114.66 575.53,-104.66 568.53,-104.66"/>
<polygon fill="none" stroke="black" points="575.03,-77 575.03,-95 1199.03,-95 1199.03,-77 575.03,-77"/>
<text text-anchor="start" x="863.02" y="-84" font-family="Courier New" font-weight="bold" font-size="10.00" fill="orange">CLICK(,)</text>
<polygon fill="none" stroke="black" points="575.03,-57 575.03,-75 1199.03,-75 1199.03,-57 575.03,-57"/>
<text text-anchor="start" x="578.03" y="-63" font-family="Courier New" font-size="10.00" fill="blue">SHOW(WSPRITE);ANIMATE(0,V_REVERSE);SIGNAL(WIP2,SIG_OFF);SIGNAL(WIP3,SIG_CLOSE);PLAYWAVE(0,SOUND_CHAIN);</text>
<polygon fill="none" stroke="black" points="572.03,-54 572.03,-98 1202.03,-98 1202.03,-54 572.03,-54"/>
</g>
<!-- waiting&#45;&gt;readyToPay -->
<g id="edge5" class="edge">
<title>waiting&#45;&gt;readyToPay</title>
<path fill="none" stroke="black" d="M525.22,-137.32C396.57,-137.71 44.85,-135.32 10.03,-98 -3.31,-83.7 -3.36,-68.25 10.03,-54 26.73,-36.23 359.02,-24.89 504.63,-20.76"/>
<polygon fill="black" stroke="black" points="504.63,-24.26 514.53,-20.48 504.44,-17.26 504.63,-24.26"/>
<polygon fill="none" stroke="black" points="13.03,-77 13.03,-95 565.03,-95 565.03,-77 13.03,-77"/>
<text text-anchor="start" x="265.02" y="-84" font-family="Courier New" font-weight="bold" font-size="10.00" fill="orange">CLICK(,)</text>
<polygon fill="none" stroke="black" points="13.03,-57 13.03,-75 565.03,-75 565.03,-57 13.03,-57"/>
<text text-anchor="start" x="16.03" y="-63" font-family="Courier New" font-size="10.00" fill="blue">SHOW(WSPRITE);ANIMATE(); SIGNAL(WIP2,SIG_ON);SIGNAL(WIP3,SIG_OPEN);PLAYWAVE(0,SOUND_CHAIN);</text>
<polygon fill="none" stroke="black" points="10.03,-54 10.03,-98 568.03,-98 568.03,-54 10.03,-54"/>
</g>
<!-- status -->
<g id="node6" class="node">
<title>status</title>
<polygon fill="none" stroke="black" points="1170.03,-308.5 1170.03,-384.5 1648.03,-384.5 1648.03,-308.5 1170.03,-308.5"/>
<polygon fill="none" stroke="black" points="1181.03,-359.5 1181.03,-377.5 1637.03,-377.5 1637.03,-359.5 1181.03,-359.5"/>
<text text-anchor="start" x="1367.02" y="-366.5" font-family="Courier New" font-weight="bold" font-size="10.00">S16_BUCK_STAMP</text>
<polygon fill="none" stroke="black" points="1181.03,-315.5 1181.03,-357.5 1637.03,-357.5 1637.03,-315.5 1181.03,-315.5"/>
<text text-anchor="start" x="1184.03" y="-345.5" font-family="Courier New" font-size="10.00" fill="green">VIEW::IDV_BUCK0000</text>
<text text-anchor="start" x="1184.03" y="-333.5" font-family="Courier New" font-size="10.00" fill="green">S16_BUCK_STAMP::M16_PAYSTAMP(&#39;IDS_STAMP&#39;,&#39;S16_BUCK_PAY&#39;,&#39;S16_BUCK_GRAB&#39;,&#39;&#39;)</text>
<text text-anchor="start" x="1184.03" y="-321.5" font-family="Courier New" font-size="10.00" fill="green">{&#39;waiting&#39;: bFrame:1</text>
<polygon fill="none" stroke="black" points="1178.03,-312.5 1178.03,-380.5 1640.03,-380.5 1640.03,-312.5 1178.03,-312.5"/>
</g>
</g>
</svg>
