<?xml version="1.0" encoding="UTF-8" standalone="no"?>
<!DOCTYPE svg PUBLIC "-//W3C//DTD SVG 1.1//EN"
 "http://www.w3.org/Graphics/SVG/1.1/DTD/svg11.dtd">
<!-- Generated by graphviz version 7.1.0 (20230121.1956)
 -->
<!-- Title: Automaton Pages: 1 -->
<svg width="766pt" height="277pt"
 viewBox="0.00 0.00 766.00 277.00" xmlns="http://www.w3.org/2000/svg" xmlns:xlink="http://www.w3.org/1999/xlink">
<g id="graph0" class="graph" transform="scale(1 1) rotate(0) translate(4 273)">
<title>Automaton</title>
<polygon fill="white" stroke="none" points="-4,4 -4,-273 762,-273 762,4 -4,4"/>
<!-- filename -->
<g id="node1" class="node">
<title>filename</title>
<polygon fill="none" stroke="black" points="0,-200.5 0,-252.5 184,-252.5 184,-200.5 0,-200.5"/>
<polygon fill="none" stroke="black" points="11,-227.5 11,-245.5 173,-245.5 173,-227.5 11,-227.5"/>
<text text-anchor="start" x="14" y="-234.5" font-family="Courier New" font-weight="bold" font-size="10.00">S16_CROW_GRAB::M16_PAYGRAB</text>
<polygon fill="none" stroke="black" points="11,-207.5 11,-225.5 173,-225.5 173,-207.5 11,-207.5"/>
<text text-anchor="start" x="46.99" y="-213.5" font-family="Courier New" font-size="10.00" fill="brown">start state = 0</text>
<polygon fill="none" stroke="black" points="8,-204.5 8,-248.5 176,-248.5 176,-204.5 8,-204.5"/>
</g>
<!-- 0 -->
<g id="node2" class="node">
<title>0</title>
<polyline fill="none" stroke="darkred" points="222,-215.5 236,-215.5"/>
<text text-anchor="start" x="225" y="-222.9" font-family="Courier New" font-weight="bold" font-size="14.00">0</text>
<path fill="none" stroke="darkred" d="M225.67,-212.5C225.67,-212.5 232.33,-212.5 232.33,-212.5 235.67,-212.5 239,-215.83 239,-219.17 239,-219.17 239,-233.83 239,-233.83 239,-237.17 235.67,-240.5 232.33,-240.5 232.33,-240.5 225.67,-240.5 225.67,-240.5 222.33,-240.5 219,-237.17 219,-233.83 219,-233.83 219,-219.17 219,-219.17 219,-215.83 222.33,-212.5 225.67,-212.5"/>
</g>
<!-- open_bin -->
<g id="node3" class="node">
<title>open_bin</title>
<polyline fill="none" stroke="darkred" stroke-width="3" points="192.5,-10.5 266.5,-10.5"/>
<text text-anchor="start" x="196" y="-18.4" font-family="Courier New" font-weight="bold" font-size="14.00">open_bin</text>
<path fill="none" stroke="darkred" stroke-width="3" d="M198,-5.5C198,-5.5 260,-5.5 260,-5.5 265.5,-5.5 271,-11 271,-16.5 271,-16.5 271,-27.5 271,-27.5 271,-33 265.5,-38.5 260,-38.5 260,-38.5 198,-38.5 198,-38.5 192.5,-38.5 187,-33 187,-27.5 187,-27.5 187,-16.5 187,-16.5 187,-11 192.5,-5.5 198,-5.5"/>
</g>
<!-- 0&#45;&gt;open_bin -->
<g id="edge1" class="edge">
<title>0&#45;&gt;open_bin</title>
<path fill="none" stroke="black" d="M218.74,-208.72C212.43,-199.91 203.55,-189.76 193,-184 144.13,-157.29 105.44,-208.11 69,-166 38.75,-131.05 40.45,-98.35 69,-62 81.24,-46.41 127.15,-36.27 166.67,-30.25"/>
<polygon fill="black" stroke="black" points="166.99,-33.74 176.38,-28.84 165.99,-26.81 166.99,-33.74"/>
<polygon fill="none" stroke="black" points="72,-115 72,-133 204,-133 204,-115 72,-115"/>
<text text-anchor="start" x="75" y="-122" font-family="Courier New" font-weight="bold" font-size="10.00" fill="orange">WAIT(SIGNAL,SIG_OPEN)</text>
<polygon fill="none" stroke="black" points="72,-95 72,-113 204,-113 204,-95 72,-95"/>
<text text-anchor="start" x="83.99" y="-101" font-family="Courier New" font-size="10.00" fill="blue">REF_MACHINE(WIP2);</text>
<polygon fill="none" stroke="black" points="69,-92 69,-136 207,-136 207,-92 69,-92"/>
</g>
<!-- open_bin&#45;&gt;0 -->
<g id="edge2" class="edge">
<title>open_bin&#45;&gt;0</title>
<path fill="none" stroke="black" d="M229,-43.89C229,-80.45 229,-156.02 229,-197.22"/>
<polygon fill="black" stroke="black" points="225.5,-197.07 229,-207.07 232.5,-197.07 225.5,-197.07"/>
<polygon fill="none" stroke="black" points="232,-145 232,-163 430,-163 430,-145 232,-145"/>
<text text-anchor="start" x="297.99" y="-152" font-family="Courier New" font-weight="bold" font-size="10.00" fill="orange">GRAB(WIP1,)</text>
<polygon fill="none" stroke="black" points="232,-65 232,-143 430,-143 430,-65 232,-65"/>
<text text-anchor="start" x="235" y="-131" font-family="Courier New" font-size="10.00" fill="blue"> &#160;&#160;&#160;if(R_WPARM != R_BPARM){</text>
<text text-anchor="start" x="235" y="-119" font-family="Courier New" font-size="10.00" fill="blue"> &#160;&#160;&#160;&#160;&#160;&#160;&#160;SUB(LKARMA,4);</text>
<text text-anchor="start" x="235" y="-107" font-family="Courier New" font-size="10.00" fill="blue"> &#160;&#160;&#160;&#160;&#160;&#160;&#160;PLAYWAVE(0,SOUND_CLUNK);</text>
<text text-anchor="start" x="235" y="-95" font-family="Courier New" font-size="10.00" fill="blue"> &#160;&#160;&#160;}</text>
<text text-anchor="start" x="235" y="-83" font-family="Courier New" font-size="10.00" fill="blue"> &#160;&#160;&#160;SIGNAL(WIP3,SIG_OFF);</text>
<text text-anchor="start" x="235" y="-71" font-family="Courier New" font-size="10.00" fill="blue"> &#160;&#160;&#160;SIGNAL(WIP2,SIG_OFF);</text>
<polygon fill="none" stroke="black" points="229,-62 229,-166 433,-166 433,-62 229,-62"/>
</g>
<!-- open_bin&#45;&gt;0 -->
<g id="edge3" class="edge">
<title>open_bin&#45;&gt;0</title>
<path fill="none" stroke="black" d="M280.09,-25.48C334.32,-29.31 414.83,-38.84 434,-62 463.47,-97.61 464.9,-131.63 434,-166 408.75,-194.08 298.48,-166.52 265,-184 257.84,-187.74 251.48,-193.54 246.17,-199.64"/>
<polygon fill="black" stroke="black" points="243.52,-197.34 240.11,-207.38 249.03,-201.66 243.52,-197.34"/>
<text text-anchor="start" x="460" y="-112" font-family="Courier New" font-weight="bold" font-size="10.00" fill="orange">WAIT(SIGNAL,SIG_CLOSE)</text>
</g>
<!-- status -->
<g id="node4" class="node">
<title>status</title>
<polygon fill="none" stroke="black" points="274,-184.5 274,-268.5 758,-268.5 758,-184.5 274,-184.5"/>
<polygon fill="none" stroke="black" points="285,-243.5 285,-261.5 747,-261.5 747,-243.5 285,-243.5"/>
<text text-anchor="start" x="476.99" y="-250.5" font-family="Courier New" font-weight="bold" font-size="10.00">S16_CROW_GRAB</text>
<polygon fill="none" stroke="black" points="285,-211.5 285,-241.5 747,-241.5 747,-211.5 285,-211.5"/>
<text text-anchor="start" x="288" y="-229.5" font-family="Courier New" font-size="10.00" fill="green">S16_CROW_GRAB::M16_PAYGRAB(&#39;IDD_CROWBAR&#39;,&#39;S16_CROW_PAY&#39;,&#39;S16_CROW_STAMP&#39;,&#39;&#39;)</text>
<text text-anchor="start" x="288" y="-217.5" font-family="Courier New" font-size="10.00" fill="green">{&#39;open_bin&#39;:}</text>
<polygon fill="none" stroke="black" points="285,-191.5 285,-209.5 747,-209.5 747,-191.5 285,-191.5"/>
<text text-anchor="start" x="513" y="-197.5" font-family="Courier New" font-size="10.00" fill="blue">_</text>
<polygon fill="none" stroke="black" points="282,-188.5 282,-264.5 750,-264.5 750,-188.5 282,-188.5"/>
</g>
</g>
</svg>
