<?xml version="1.0" encoding="UTF-8" standalone="no"?>
<!DOCTYPE svg PUBLIC "-//W3C//DTD SVG 1.1//EN"
 "http://www.w3.org/Graphics/SVG/1.1/DTD/svg11.dtd">
<!-- Generated by graphviz version 7.1.0 (20230121.1956)
 -->
<!-- Title: Automaton Pages: 1 -->
<svg width="748pt" height="261pt"
 viewBox="0.00 0.00 748.00 261.00" xmlns="http://www.w3.org/2000/svg" xmlns:xlink="http://www.w3.org/1999/xlink">
<g id="graph0" class="graph" transform="scale(1 1) rotate(0) translate(4 257)">
<title>Automaton</title>
<polygon fill="white" stroke="none" points="-4,4 -4,-257 744,-257 744,4 -4,4"/>
<!-- filename -->
<g id="node1" class="node">
<title>filename</title>
<polygon fill="none" stroke="black" points="0,-188.5 0,-240.5 184,-240.5 184,-188.5 0,-188.5"/>
<polygon fill="none" stroke="black" points="11,-215.5 11,-233.5 173,-233.5 173,-215.5 11,-215.5"/>
<text text-anchor="start" x="14" y="-222.5" font-family="Courier New" font-weight="bold" font-size="10.00">S16_DICE_GRAB::M16_PAYGRAB</text>
<polygon fill="none" stroke="black" points="11,-195.5 11,-213.5 173,-213.5 173,-195.5 11,-195.5"/>
<text text-anchor="start" x="46.99" y="-201.5" font-family="Courier New" font-size="10.00" fill="brown">start state = 0</text>
<polygon fill="none" stroke="black" points="8,-192.5 8,-236.5 176,-236.5 176,-192.5 8,-192.5"/>
</g>
<!-- 0 -->
<g id="node2" class="node">
<title>0</title>
<polyline fill="none" stroke="darkred" stroke-width="3" points="221.5,-203 236.5,-203"/>
<text text-anchor="start" x="225" y="-210.9" font-family="Courier New" font-weight="bold" font-size="14.00">0</text>
<path fill="none" stroke="darkred" stroke-width="3" d="M224.83,-198C224.83,-198 233.17,-198 233.17,-198 237.33,-198 241.5,-202.17 241.5,-206.33 241.5,-206.33 241.5,-222.67 241.5,-222.67 241.5,-226.83 237.33,-231 233.17,-231 233.17,-231 224.83,-231 224.83,-231 220.67,-231 216.5,-226.83 216.5,-222.67 216.5,-222.67 216.5,-206.33 216.5,-206.33 216.5,-202.17 220.67,-198 224.83,-198"/>
</g>
<!-- open_bin -->
<g id="node3" class="node">
<title>open_bin</title>
<polyline fill="none" stroke="darkred" points="193,-7 266,-7"/>
<text text-anchor="start" x="196" y="-14.4" font-family="Courier New" font-weight="bold" font-size="14.00">open_bin</text>
<path fill="none" stroke="darkred" d="M198.83,-4C198.83,-4 259.17,-4 259.17,-4 263.83,-4 268.5,-8.67 268.5,-13.33 268.5,-13.33 268.5,-22.67 268.5,-22.67 268.5,-27.33 263.83,-32 259.17,-32 259.17,-32 198.83,-32 198.83,-32 194.17,-32 189.5,-27.33 189.5,-22.67 189.5,-22.67 189.5,-13.33 189.5,-13.33 189.5,-8.67 194.17,-4 198.83,-4"/>
</g>
<!-- 0&#45;&gt;open_bin -->
<g id="edge1" class="edge">
<title>0&#45;&gt;open_bin</title>
<path fill="none" stroke="black" d="M213.42,-192.51C207.69,-186.23 200.7,-179.96 193,-176 143.48,-150.53 105.44,-200.11 69,-158 38.75,-123.05 40.02,-90.01 69,-54 81.73,-38.19 130.01,-29.13 170.23,-24.21"/>
<polygon fill="black" stroke="black" points="170.56,-27.69 180.1,-23.07 169.76,-20.74 170.56,-27.69"/>
<polygon fill="none" stroke="black" points="72,-107 72,-125 204,-125 204,-107 72,-107"/>
<text text-anchor="start" x="75" y="-114" font-family="Courier New" font-weight="bold" font-size="10.00" fill="orange">WAIT(SIGNAL,SIG_OPEN)</text>
<polygon fill="none" stroke="black" points="72,-87 72,-105 204,-105 204,-87 72,-87"/>
<text text-anchor="start" x="83.99" y="-93" font-family="Courier New" font-size="10.00" fill="blue">REF_MACHINE(WIP2);</text>
<polygon fill="none" stroke="black" points="69,-84 69,-128 207,-128 207,-84 69,-84"/>
</g>
<!-- open_bin&#45;&gt;0 -->
<g id="edge2" class="edge">
<title>open_bin&#45;&gt;0</title>
<path fill="none" stroke="black" d="M229,-36C229,-68.42 229,-139.55 229,-181.26"/>
<polygon fill="black" stroke="black" points="225.5,-181.17 229,-191.17 232.5,-181.17 225.5,-181.17"/>
<polygon fill="none" stroke="black" points="232,-137 232,-155 430,-155 430,-137 232,-137"/>
<text text-anchor="start" x="297.99" y="-144" font-family="Courier New" font-weight="bold" font-size="10.00" fill="orange">GRAB(WIP1,)</text>
<polygon fill="none" stroke="black" points="232,-57 232,-135 430,-135 430,-57 232,-57"/>
<text text-anchor="start" x="235" y="-123" font-family="Courier New" font-size="10.00" fill="blue"> &#160;&#160;&#160;if(R_WPARM != R_BPARM){</text>
<text text-anchor="start" x="235" y="-111" font-family="Courier New" font-size="10.00" fill="blue"> &#160;&#160;&#160;&#160;&#160;&#160;&#160;SUB(LKARMA,4);</text>
<text text-anchor="start" x="235" y="-99" font-family="Courier New" font-size="10.00" fill="blue"> &#160;&#160;&#160;&#160;&#160;&#160;&#160;PLAYWAVE(0,SOUND_CLUNK);</text>
<text text-anchor="start" x="235" y="-87" font-family="Courier New" font-size="10.00" fill="blue"> &#160;&#160;&#160;}</text>
<text text-anchor="start" x="235" y="-75" font-family="Courier New" font-size="10.00" fill="blue"> &#160;&#160;&#160;SIGNAL(WIP3,SIG_OFF);</text>
<text text-anchor="start" x="235" y="-63" font-family="Courier New" font-size="10.00" fill="blue"> &#160;&#160;&#160;SIGNAL(WIP2,SIG_OFF);</text>
<polygon fill="none" stroke="black" points="229,-54 229,-158 433,-158 433,-54 229,-54"/>
</g>
<!-- open_bin&#45;&gt;0 -->
<g id="edge3" class="edge">
<title>open_bin&#45;&gt;0</title>
<path fill="none" stroke="black" d="M276.16,-20.25C330.3,-22.81 414.21,-30.54 434,-54 463.81,-89.33 464.9,-123.63 434,-158 408.75,-186.08 298.91,-159.37 265,-176 260.41,-178.25 256.09,-181.34 252.14,-184.79"/>
<polygon fill="black" stroke="black" points="249.85,-182.14 245.21,-191.66 254.78,-187.11 249.85,-182.14"/>
<text text-anchor="start" x="460" y="-104" font-family="Courier New" font-weight="bold" font-size="10.00" fill="orange">WAIT(SIGNAL,SIG_CLOSE)</text>
</g>
<!-- status -->
<g id="node4" class="node">
<title>status</title>
<polygon fill="none" stroke="black" points="274,-176.5 274,-252.5 740,-252.5 740,-176.5 274,-176.5"/>
<polygon fill="none" stroke="black" points="285,-227.5 285,-245.5 729,-245.5 729,-227.5 285,-227.5"/>
<text text-anchor="start" x="467.99" y="-234.5" font-family="Courier New" font-weight="bold" font-size="10.00">S16_DICE_GRAB</text>
<polygon fill="none" stroke="black" points="285,-183.5 285,-225.5 729,-225.5 729,-183.5 285,-183.5"/>
<text text-anchor="start" x="288" y="-213.5" font-family="Courier New" font-size="10.00" fill="green">VIEW::IDV_DICE0000</text>
<text text-anchor="start" x="288" y="-201.5" font-family="Courier New" font-size="10.00" fill="green">S16_DICE_GRAB::M16_PAYGRAB(&#39;IDD_DICE&#39;,&#39;S16_DICE_PAY&#39;,&#39;S16_DICE_STAMP&#39;,&#39;&#39;)</text>
<text text-anchor="start" x="288" y="-189.5" font-family="Courier New" font-size="10.00" fill="green">{&#39;0&#39;:</text>
<polygon fill="none" stroke="black" points="282,-180.5 282,-248.5 732,-248.5 732,-180.5 282,-180.5"/>
</g>
</g>
</svg>
