<?xml version="1.0" encoding="UTF-8" standalone="no"?>
<!DOCTYPE svg PUBLIC "-//W3C//DTD SVG 1.1//EN"
 "http://www.w3.org/Graphics/SVG/1.1/DTD/svg11.dtd">
<!-- Generated by graphviz version 7.1.0 (20230121.1956)
 -->
<!-- Title: Automaton Pages: 1 -->
<svg width="1656pt" height="413pt"
 viewBox="0.00 0.00 1656.03 413.00" xmlns="http://www.w3.org/2000/svg" xmlns:xlink="http://www.w3.org/1999/xlink">
<g id="graph0" class="graph" transform="scale(1 1) rotate(0) translate(4 409)">
<title>Automaton</title>
<polygon fill="white" stroke="none" points="-4,4 -4,-409 1652.03,-409 1652.03,4 -4,4"/>
<!-- filename -->
<g id="node1" class="node">
<title>filename</title>
<polygon fill="none" stroke="black" points="884.03,-330.5 884.03,-382.5 1080.03,-382.5 1080.03,-330.5 884.03,-330.5"/>
<polygon fill="none" stroke="black" points="895.03,-357.5 895.03,-375.5 1069.03,-375.5 1069.03,-357.5 895.03,-357.5"/>
<text text-anchor="start" x="898.03" y="-364.5" font-family="Courier New" font-weight="bold" font-size="10.00">S16_CROW_STAMP::M16_PAYSTAMP</text>
<polygon fill="none" stroke="black" points="895.03,-337.5 895.03,-355.5 1069.03,-355.5 1069.03,-337.5 895.03,-337.5"/>
<text text-anchor="start" x="937.02" y="-343.5" font-family="Courier New" font-size="10.00" fill="brown">start state = 0</text>
<polygon fill="none" stroke="black" points="892.03,-334.5 892.03,-378.5 1072.03,-378.5 1072.03,-334.5 892.03,-334.5"/>
</g>
<!-- 0 -->
<g id="node2" class="node">
<title>0</title>
<g id="a_node2_0"><a xlink:href="https://lunardig.net" xlink:title="&lt;TABLE&gt;">
<polyline fill="none" stroke="darkred" points="1118.03,-345.5 1132.03,-345.5"/>
<text text-anchor="start" x="1121.03" y="-352.9" font-family="Courier New" font-weight="bold" font-size="14.00">0</text>
</a>
</g>
<path fill="none" stroke="darkred" d="M1121.69,-342.5C1121.69,-342.5 1128.36,-342.5 1128.36,-342.5 1131.69,-342.5 1135.03,-345.83 1135.03,-349.17 1135.03,-349.17 1135.03,-363.83 1135.03,-363.83 1135.03,-367.17 1131.69,-370.5 1128.36,-370.5 1128.36,-370.5 1121.69,-370.5 1121.69,-370.5 1118.36,-370.5 1115.03,-367.17 1115.03,-363.83 1115.03,-363.83 1115.03,-349.17 1115.03,-349.17 1115.03,-345.83 1118.36,-342.5 1121.69,-342.5"/>
</g>
<!-- startframe -->
<g id="node3" class="node">
<title>startframe</title>
<g id="a_node3_1"><a xlink:href="https://lunardig.net" xlink:title="&lt;TABLE&gt;">
<polyline fill="none" stroke="darkred" points="856.03,-223 946.03,-223"/>
<text text-anchor="start" x="859.03" y="-230.4" font-family="Courier New" font-weight="bold" font-size="14.00">startframe</text>
</a>
</g>
<path fill="none" stroke="darkred" d="M862.36,-220C862.36,-220 939.69,-220 939.69,-220 944.36,-220 949.03,-224.67 949.03,-229.33 949.03,-229.33 949.03,-238.67 949.03,-238.67 949.03,-243.33 944.36,-248 939.69,-248 939.69,-248 862.36,-248 862.36,-248 857.69,-248 853.03,-243.33 853.03,-238.67 853.03,-238.67 853.03,-229.33 853.03,-229.33 853.03,-224.67 857.69,-220 862.36,-220"/>
</g>
<!-- 0&#45;&gt;startframe -->
<g id="edge1" class="edge">
<title>0&#45;&gt;startframe</title>
<path fill="none" stroke="black" d="M1115.55,-338.65C1109.16,-328.6 1099.93,-316.23 1089.03,-308 1053.16,-280.94 1006.01,-262.66 967.9,-251.17"/>
<polygon fill="black" stroke="black" points="968.93,-247.82 958.35,-248.38 966.97,-254.54 968.93,-247.82"/>
<text text-anchor="start" x="1060.03" y="-278" font-family="Courier New" font-weight="bold" font-size="10.00" fill="blue">ASSIGN(BFRAME,1)</text>
</g>
<!-- waiting -->
<g id="node5" class="node">
<title>waiting</title>
<g id="a_node5_2"><a xlink:href="https://lunardig.net" xlink:title="&lt;TABLE&gt;">
<polyline fill="none" stroke="darkred" points="540.03,-131 604.03,-131"/>
<text text-anchor="start" x="543.03" y="-138.4" font-family="Courier New" font-weight="bold" font-size="14.00">waiting</text>
</a>
</g>
<path fill="none" stroke="darkred" d="M546.36,-128C546.36,-128 597.69,-128 597.69,-128 602.36,-128 607.03,-132.67 607.03,-137.33 607.03,-137.33 607.03,-146.67 607.03,-146.67 607.03,-151.33 602.36,-156 597.69,-156 597.69,-156 546.36,-156 546.36,-156 541.69,-156 537.03,-151.33 537.03,-146.67 537.03,-146.67 537.03,-137.33 537.03,-137.33 537.03,-132.67 541.69,-128 546.36,-128"/>
</g>
<!-- startframe&#45;&gt;waiting -->
<g id="edge4" class="edge">
<title>startframe&#45;&gt;waiting</title>
<path fill="none" stroke="black" d="M845.22,-217.73C783.95,-200.97 686.27,-174.25 625.82,-157.71"/>
<polygon fill="black" stroke="black" points="627.01,-154.41 616.44,-155.15 625.16,-161.16 627.01,-154.41"/>
<text text-anchor="start" x="769.03" y="-186" font-family="Courier New" font-weight="bold" font-size="10.00" fill="blue">SHOW(WIP1,)</text>
</g>
<!-- readyToPay -->
<g id="node4" class="node">
<title>readyToPay</title>
<g id="a_node4_3"><a xlink:href="https://lunardig.net" xlink:title="&lt;TABLE&gt;">
<polyline fill="none" stroke="darkred" stroke-width="3" points="526.53,-10.5 617.53,-10.5"/>
<text text-anchor="start" x="530.03" y="-18.4" font-family="Courier New" font-weight="bold" font-size="14.00">readyToPay</text>
</a>
</g>
<path fill="none" stroke="darkred" stroke-width="3" d="M532.53,-5.5C532.53,-5.5 611.53,-5.5 611.53,-5.5 617.03,-5.5 622.53,-11 622.53,-16.5 622.53,-16.5 622.53,-27.5 622.53,-27.5 622.53,-33 617.03,-38.5 611.53,-38.5 611.53,-38.5 532.53,-38.5 532.53,-38.5 527.03,-38.5 521.53,-33 521.53,-27.5 521.53,-27.5 521.53,-16.5 521.53,-16.5 521.53,-11 527.03,-5.5 532.53,-5.5"/>
</g>
<!-- readyToPay&#45;&gt;0 -->
<g id="edge3" class="edge">
<title>readyToPay&#45;&gt;0</title>
<path fill="none" stroke="black" d="M631.78,-24.5C785.43,-28.66 1183.63,-41.37 1203.03,-62 1273.44,-136.9 1201.49,-194.26 1164.03,-290 1158.73,-303.54 1150.8,-317.51 1143.47,-329.06"/>
<polygon fill="black" stroke="black" points="1140.66,-326.97 1138.1,-337.25 1146.51,-330.81 1140.66,-326.97"/>
<text text-anchor="start" x="1223.03" y="-186" font-family="Courier New" font-weight="bold" font-size="10.00" fill="orange">WAIT(0,SIG_OFF)</text>
</g>
<!-- readyToPay&#45;&gt;waiting -->
<g id="edge2" class="edge">
<title>readyToPay&#45;&gt;waiting</title>
<path fill="none" stroke="black" d="M572.03,-43.85C572.03,-62.96 572.03,-91.41 572.03,-112.59"/>
<polygon fill="black" stroke="black" points="568.53,-112.58 572.03,-122.58 575.53,-112.58 568.53,-112.58"/>
<polygon fill="none" stroke="black" points="575.03,-85 575.03,-103 1199.03,-103 1199.03,-85 575.03,-85"/>
<text text-anchor="start" x="863.02" y="-92" font-family="Courier New" font-weight="bold" font-size="10.00" fill="orange">CLICK(,)</text>
<polygon fill="none" stroke="black" points="575.03,-65 575.03,-83 1199.03,-83 1199.03,-65 575.03,-65"/>
<text text-anchor="start" x="578.03" y="-71" font-family="Courier New" font-size="10.00" fill="blue">SHOW(WSPRITE);ANIMATE(0,V_REVERSE);SIGNAL(WIP2,SIG_OFF);SIGNAL(WIP3,SIG_CLOSE);PLAYWAVE(0,SOUND_CHAIN);</text>
<polygon fill="none" stroke="black" points="572.03,-62 572.03,-106 1202.03,-106 1202.03,-62 572.03,-62"/>
</g>
<!-- waiting&#45;&gt;readyToPay -->
<g id="edge5" class="edge">
<title>waiting&#45;&gt;readyToPay</title>
<path fill="none" stroke="black" d="M529.05,-139.91C400.66,-136.46 27.75,-124.86 10.03,-106 -3.36,-91.75 -3.31,-76.3 10.03,-62 42.83,-26.84 356.94,-22.68 500.76,-22.65"/>
<polygon fill="black" stroke="black" points="500.54,-26.15 510.54,-22.65 500.54,-19.15 500.54,-26.15"/>
<polygon fill="none" stroke="black" points="13.03,-85 13.03,-103 565.03,-103 565.03,-85 13.03,-85"/>
<text text-anchor="start" x="265.02" y="-92" font-family="Courier New" font-weight="bold" font-size="10.00" fill="orange">CLICK(,)</text>
<polygon fill="none" stroke="black" points="13.03,-65 13.03,-83 565.03,-83 565.03,-65 13.03,-65"/>
<text text-anchor="start" x="16.03" y="-71" font-family="Courier New" font-size="10.00" fill="blue">SHOW(WSPRITE);ANIMATE(); SIGNAL(WIP2,SIG_ON);SIGNAL(WIP3,SIG_OPEN);PLAYWAVE(0,SOUND_CHAIN);</text>
<polygon fill="none" stroke="black" points="10.03,-62 10.03,-106 568.03,-106 568.03,-62 10.03,-62"/>
</g>
<!-- status -->
<g id="node6" class="node">
<title>status</title>
<polygon fill="none" stroke="black" points="1170.03,-308.5 1170.03,-404.5 1648.03,-404.5 1648.03,-308.5 1170.03,-308.5"/>
<polygon fill="none" stroke="black" points="1181.03,-379.5 1181.03,-397.5 1637.03,-397.5 1637.03,-379.5 1181.03,-379.5"/>
<text text-anchor="start" x="1367.02" y="-386.5" font-family="Courier New" font-weight="bold" font-size="10.00">S16_CROW_STAMP</text>
<polygon fill="none" stroke="black" points="1181.03,-335.5 1181.03,-377.5 1637.03,-377.5 1637.03,-335.5 1181.03,-335.5"/>
<text text-anchor="start" x="1184.03" y="-365.5" font-family="Courier New" font-size="10.00" fill="green">VIEW: IDV_CROW0000</text>
<text text-anchor="start" x="1184.03" y="-353.5" font-family="Courier New" font-size="10.00" fill="green">S16_CROW_STAMP::M16_PAYSTAMP(&#39;IDS_STAMP&#39;,&#39;S16_CROW_PAY&#39;,&#39;S16_CROW_GRAB&#39;,&#39;&#39;)</text>
<text text-anchor="start" x="1184.03" y="-341.5" font-family="Courier New" font-size="10.00" fill="green">{&#39;readyToPay&#39;: wSprite:STAMP bFrame:49}</text>
<polygon fill="none" stroke="black" points="1181.03,-315.5 1181.03,-333.5 1637.03,-333.5 1637.03,-315.5 1181.03,-315.5"/>
<text text-anchor="start" x="1406.03" y="-321.5" font-family="Courier New" font-size="10.00" fill="blue">_</text>
<polygon fill="none" stroke="black" points="1178.03,-312.5 1178.03,-400.5 1640.03,-400.5 1640.03,-312.5 1178.03,-312.5"/>
</g>
</g>
</svg>
