<?xml version="1.0" encoding="UTF-8" standalone="no"?>
<!DOCTYPE svg PUBLIC "-//W3C//DTD SVG 1.1//EN"
 "http://www.w3.org/Graphics/SVG/1.1/DTD/svg11.dtd">
<!-- Generated by graphviz version 7.1.0 (20230121.1956)
 -->
<!-- Title: Automaton Pages: 1 -->
<svg width="592pt" height="417pt"
 viewBox="0.00 0.00 592.00 417.00" xmlns="http://www.w3.org/2000/svg" xmlns:xlink="http://www.w3.org/1999/xlink">
<g id="graph0" class="graph" transform="scale(1 1) rotate(0) translate(4 413)">
<title>Automaton</title>
<polygon fill="white" stroke="none" points="-4,4 -4,-413 588,-413 588,4 -4,4"/>
<!-- filename -->
<g id="node1" class="node">
<title>filename</title>
<polygon fill="none" stroke="black" points="0,-340.5 0,-392.5 208,-392.5 208,-340.5 0,-340.5"/>
<polygon fill="none" stroke="black" points="11,-367.5 11,-385.5 197,-385.5 197,-367.5 11,-367.5"/>
<text text-anchor="start" x="14" y="-374.5" font-family="Courier New" font-weight="bold" font-size="10.00">S16_BLOBHOLD11::M16_BLOBHOLDER</text>
<polygon fill="none" stroke="black" points="11,-347.5 11,-365.5 197,-365.5 197,-347.5 11,-347.5"/>
<text text-anchor="start" x="58.99" y="-353.5" font-family="Courier New" font-size="10.00" fill="brown">start state = 0</text>
<polygon fill="none" stroke="black" points="8,-344.5 8,-388.5 200,-388.5 200,-344.5 8,-344.5"/>
</g>
<!-- 0 -->
<g id="node2" class="node">
<title>0</title>
<polyline fill="none" stroke="darkred" points="246,-355.5 260,-355.5"/>
<text text-anchor="start" x="249" y="-362.9" font-family="Courier New" font-weight="bold" font-size="14.00">0</text>
<path fill="none" stroke="darkred" d="M249.67,-352.5C249.67,-352.5 256.33,-352.5 256.33,-352.5 259.67,-352.5 263,-355.83 263,-359.17 263,-359.17 263,-373.83 263,-373.83 263,-377.17 259.67,-380.5 256.33,-380.5 256.33,-380.5 249.67,-380.5 249.67,-380.5 246.33,-380.5 243,-377.17 243,-373.83 243,-373.83 243,-359.17 243,-359.17 243,-355.83 246.33,-352.5 249.67,-352.5"/>
</g>
<!-- ballpresent -->
<g id="node3" class="node">
<title>ballpresent</title>
<polyline fill="none" stroke="darkred" points="57,-215 155,-215"/>
<text text-anchor="start" x="60" y="-222.4" font-family="Courier New" font-weight="bold" font-size="14.00">ballpresent</text>
<path fill="none" stroke="darkred" d="M63.33,-212C63.33,-212 148.67,-212 148.67,-212 153.33,-212 158,-216.67 158,-221.33 158,-221.33 158,-230.67 158,-230.67 158,-235.33 153.33,-240 148.67,-240 148.67,-240 63.33,-240 63.33,-240 58.67,-240 54,-235.33 54,-230.67 54,-230.67 54,-221.33 54,-221.33 54,-216.67 58.67,-212 63.33,-212"/>
</g>
<!-- 0&#45;&gt;ballpresent -->
<g id="edge1" class="edge">
<title>0&#45;&gt;ballpresent</title>
<path fill="none" stroke="black" d="M242.71,-348.76C236.4,-339.96 227.52,-329.82 217,-324 171.34,-298.75 134.95,-345.62 101,-306 89.16,-292.18 90.91,-271.51 95.35,-254.79"/>
<polygon fill="black" stroke="black" points="98.64,-256 98.28,-245.41 91.96,-253.92 98.64,-256"/>
<polygon fill="none" stroke="black" points="104,-285 104,-303 236,-303 236,-285 104,-285"/>
<text text-anchor="start" x="109.99" y="-292" font-family="Courier New" font-weight="bold" font-size="10.00" fill="blue">SHOW(0,IDD_BLOBBALL)</text>
<polygon fill="none" stroke="black" points="104,-265 104,-283 236,-283 236,-265 104,-265"/>
<text text-anchor="start" x="107" y="-271" font-family="Courier New" font-size="10.00" fill="blue">ACCEPT(IDD_BLOBBALL);</text>
<polygon fill="none" stroke="black" points="101,-262 101,-306 239,-306 239,-262 101,-262"/>
</g>
<!-- ballempty -->
<g id="node4" class="node">
<title>ballempty</title>
<polyline fill="none" stroke="darkred" points="172,-99 253,-99"/>
<text text-anchor="start" x="175" y="-106.4" font-family="Courier New" font-weight="bold" font-size="14.00">ballempty</text>
<path fill="none" stroke="darkred" d="M177.83,-96C177.83,-96 246.17,-96 246.17,-96 250.83,-96 255.5,-100.67 255.5,-105.33 255.5,-105.33 255.5,-114.67 255.5,-114.67 255.5,-119.33 250.83,-124 246.17,-124 246.17,-124 177.83,-124 177.83,-124 173.17,-124 168.5,-119.33 168.5,-114.67 168.5,-114.67 168.5,-105.33 168.5,-105.33 168.5,-100.67 173.17,-96 177.83,-96"/>
</g>
<!-- ballpresent&#45;&gt;ballempty -->
<g id="edge4" class="edge">
<title>ballpresent&#45;&gt;ballempty</title>
<path fill="none" stroke="black" d="M102.65,-208.32C100.17,-190.91 99.25,-163.73 113,-146 122.17,-134.18 135.64,-126.34 149.7,-121.14"/>
<polygon fill="black" stroke="black" points="150.63,-124.52 159.07,-118.13 148.48,-117.86 150.63,-124.52"/>
<polygon fill="none" stroke="black" points="116,-169 116,-187 236,-187 236,-169 116,-169"/>
<text text-anchor="start" x="119" y="-176" font-family="Courier New" font-weight="bold" font-size="10.00" fill="orange">GRAB(,IDD_BLOBBALL)</text>
<polygon fill="none" stroke="black" points="116,-149 116,-167 236,-167 236,-149 116,-149"/>
<text text-anchor="start" x="155" y="-155" font-family="Courier New" font-size="10.00" fill="blue">SHOW();</text>
<polygon fill="none" stroke="black" points="113,-146 113,-190 239,-190 239,-146 113,-146"/>
</g>
<!-- ballempty&#45;&gt;0 -->
<g id="edge2" class="edge">
<title>ballempty&#45;&gt;0</title>
<path fill="none" stroke="black" d="M228.26,-127.91C232.5,-133.29 236.56,-139.54 239,-146 263.5,-211.02 260.25,-294.51 256.31,-337.36"/>
<polygon fill="black" stroke="black" points="252.86,-336.75 255.33,-347.06 259.82,-337.46 252.86,-336.75"/>
<text text-anchor="start" x="261" y="-224" font-family="Courier New" font-weight="bold" font-size="10.00" fill="orange">DROP(,)</text>
</g>
<!-- resetting -->
<g id="node5" class="node">
<title>resetting</title>
<polyline fill="none" stroke="darkred" points="231,-7 312,-7"/>
<text text-anchor="start" x="234" y="-14.4" font-family="Courier New" font-weight="bold" font-size="14.00">resetting</text>
<path fill="none" stroke="darkred" d="M236.83,-4C236.83,-4 305.17,-4 305.17,-4 309.83,-4 314.5,-8.67 314.5,-13.33 314.5,-13.33 314.5,-22.67 314.5,-22.67 314.5,-27.33 309.83,-32 305.17,-32 305.17,-32 236.83,-32 236.83,-32 232.17,-32 227.5,-27.33 227.5,-22.67 227.5,-22.67 227.5,-13.33 227.5,-13.33 227.5,-8.67 232.17,-4 236.83,-4"/>
</g>
<!-- ballempty&#45;&gt;resetting -->
<g id="edge3" class="edge">
<title>ballempty&#45;&gt;resetting</title>
<path fill="none" stroke="black" d="M208.32,-92.49C206.65,-80.95 206.32,-65.58 213,-54 215.38,-49.87 218.46,-46.18 221.95,-42.88"/>
<polygon fill="black" stroke="black" points="223.91,-45.79 229.55,-36.83 219.55,-40.32 223.91,-45.79"/>
<text text-anchor="start" x="217" y="-62" font-family="Courier New" font-weight="bold" font-size="10.00" fill="orange">WAIT(,SIG_RESET)</text>
</g>
<!-- resetting&#45;&gt;0 -->
<g id="edge5" class="edge">
<title>resetting&#45;&gt;0</title>
<path fill="none" stroke="black" d="M301.28,-35.68C307.61,-40.69 313.43,-46.81 317,-54 354.52,-129.7 331.11,-161.94 311,-244 302.52,-278.61 283.57,-315.08 269.63,-338.93"/>
<polygon fill="black" stroke="black" points="266.73,-336.96 264.6,-347.34 272.74,-340.56 266.73,-336.96"/>
<text text-anchor="start" x="339" y="-166" font-family="Courier New" font-weight="bold" font-size="10.00" fill="blue">Z_EPSILON(,)</text>
</g>
<!-- status -->
<g id="node6" class="node">
<title>status</title>
<polygon fill="none" stroke="black" points="298,-324.5 298,-408.5 584,-408.5 584,-324.5 298,-324.5"/>
<polygon fill="none" stroke="black" points="309,-383.5 309,-401.5 573,-401.5 573,-383.5 309,-383.5"/>
<text text-anchor="start" x="398.99" y="-390.5" font-family="Courier New" font-weight="bold" font-size="10.00">S16_BLOBHOLD11</text>
<polygon fill="none" stroke="black" points="309,-351.5 309,-381.5 573,-381.5 573,-351.5 309,-351.5"/>
<text text-anchor="start" x="312" y="-369.5" font-family="Courier New" font-size="10.00" fill="green">S16_BLOBHOLD11::M16_BLOBHOLDER(&#39;&#39;,&#39;&#39;,&#39;&#39;,&#39;&#39;)</text>
<text text-anchor="start" x="312" y="-357.5" font-family="Courier New" font-size="10.00" fill="green">{&#39;ballempty&#39;:}</text>
<polygon fill="none" stroke="black" points="309,-331.5 309,-349.5 573,-349.5 573,-331.5 309,-331.5"/>
<text text-anchor="start" x="438" y="-337.5" font-family="Courier New" font-size="10.00" fill="blue">_</text>
<polygon fill="none" stroke="black" points="306,-328.5 306,-404.5 576,-404.5 576,-328.5 306,-328.5"/>
</g>
</g>
</svg>
