<?xml version="1.0" encoding="UTF-8" standalone="no"?>
<!DOCTYPE svg PUBLIC "-//W3C//DTD SVG 1.1//EN"
 "http://www.w3.org/Graphics/SVG/1.1/DTD/svg11.dtd">
<!-- Generated by graphviz version 7.1.0 (20230121.1956)
 -->
<!-- Title: Automaton Pages: 1 -->
<svg width="748pt" height="513pt"
 viewBox="0.00 0.00 748.00 513.00" xmlns="http://www.w3.org/2000/svg" xmlns:xlink="http://www.w3.org/1999/xlink">
<g id="graph0" class="graph" transform="scale(1 1) rotate(0) translate(4 509)">
<title>Automaton</title>
<polygon fill="white" stroke="none" points="-4,4 -4,-509 744,-509 744,4 -4,4"/>
<!-- filename -->
<g id="node1" class="node">
<title>filename</title>
<polygon fill="none" stroke="black" points="0,-440.5 0,-492.5 190,-492.5 190,-440.5 0,-440.5"/>
<polygon fill="none" stroke="black" points="11,-467.5 11,-485.5 179,-485.5 179,-467.5 11,-467.5"/>
<text text-anchor="start" x="14" y="-474.5" font-family="Courier New" font-weight="bold" font-size="10.00">S16_BUCK_PAY::M16_PAYBUCKET</text>
<polygon fill="none" stroke="black" points="11,-447.5 11,-465.5 179,-465.5 179,-447.5 11,-447.5"/>
<text text-anchor="start" x="49.99" y="-453.5" font-family="Courier New" font-size="10.00" fill="brown">start state = 0</text>
<polygon fill="none" stroke="black" points="8,-444.5 8,-488.5 182,-488.5 182,-444.5 8,-444.5"/>
</g>
<!-- 0 -->
<g id="node2" class="node">
<title>0</title>
<polyline fill="none" stroke="darkred" points="228,-455.5 242,-455.5"/>
<text text-anchor="start" x="231" y="-462.9" font-family="Courier New" font-weight="bold" font-size="14.00">0</text>
<path fill="none" stroke="darkred" d="M231.67,-452.5C231.67,-452.5 238.33,-452.5 238.33,-452.5 241.67,-452.5 245,-455.83 245,-459.17 245,-459.17 245,-473.83 245,-473.83 245,-477.17 241.67,-480.5 238.33,-480.5 238.33,-480.5 231.67,-480.5 231.67,-480.5 228.33,-480.5 225,-477.17 225,-473.83 225,-473.83 225,-459.17 225,-459.17 225,-455.83 228.33,-452.5 231.67,-452.5"/>
</g>
<!-- accept_pay -->
<g id="node3" class="node">
<title>accept_pay</title>
<polyline fill="none" stroke="darkred" stroke-width="3" points="98.5,-242.5 189.5,-242.5"/>
<text text-anchor="start" x="102" y="-250.4" font-family="Courier New" font-weight="bold" font-size="14.00">accept_pay</text>
<path fill="none" stroke="darkred" stroke-width="3" d="M104.5,-237.5C104.5,-237.5 183.5,-237.5 183.5,-237.5 189,-237.5 194.5,-243 194.5,-248.5 194.5,-248.5 194.5,-259.5 194.5,-259.5 194.5,-265 189,-270.5 183.5,-270.5 183.5,-270.5 104.5,-270.5 104.5,-270.5 99,-270.5 93.5,-265 93.5,-259.5 93.5,-259.5 93.5,-248.5 93.5,-248.5 93.5,-243 99,-237.5 104.5,-237.5"/>
</g>
<!-- 0&#45;&gt;accept_pay -->
<g id="edge1" class="edge">
<title>0&#45;&gt;accept_pay</title>
<path fill="none" stroke="black" d="M223.23,-448.64C216.96,-441.01 208.57,-432.68 199,-428 164.48,-411.11 52.72,-438.55 27,-410 -7.51,-371.69 -3.15,-335.82 27,-294 38.04,-278.68 55.36,-269.29 73.32,-263.56"/>
<polygon fill="black" stroke="black" points="74.08,-266.98 82.78,-260.92 72.2,-260.24 74.08,-266.98"/>
<polygon fill="none" stroke="black" points="30,-389 30,-407 210,-407 210,-389 30,-389"/>
<text text-anchor="start" x="77.99" y="-396" font-family="Courier New" font-weight="bold" font-size="10.00" fill="orange">WAIT(0,SIG_ON)</text>
<polygon fill="none" stroke="black" points="30,-297 30,-387 210,-387 210,-297 30,-297"/>
<text text-anchor="start" x="33" y="-375" font-family="Courier New" font-size="10.00" fill="blue"> &#160;&#160;&#160;ASSIGN(WSPRITE,WIP1);</text>
<text text-anchor="start" x="33" y="-363" font-family="Courier New" font-size="10.00" fill="blue"> &#160;&#160;&#160;ASHOW(WSPRITE);</text>
<text text-anchor="start" x="33" y="-351" font-family="Courier New" font-size="10.00" fill="blue"> &#160;&#160;&#160;/* BPARM = what you payed</text>
<text text-anchor="start" x="33" y="-339" font-family="Courier New" font-size="10.00" fill="blue"> &#160;&#160;&#160;WPARM = Total owed </text>
<text text-anchor="start" x="33" y="-327" font-family="Courier New" font-size="10.00" fill="blue"> &#160;&#160;&#160;l*/</text>
<text text-anchor="start" x="33" y="-315" font-family="Courier New" font-size="10.00" fill="blue"> &#160;&#160;&#160;ASSIGN(BPARM,0); </text>
<text text-anchor="start" x="33" y="-303" font-family="Courier New" font-size="10.00" fill="blue"> &#160;&#160;&#160;ASSIGN(WPARM,WIP2);</text>
<polygon fill="none" stroke="black" points="27,-294 27,-410 213,-410 213,-294 27,-294"/>
</g>
<!-- accept_pay&#45;&gt;0 -->
<g id="edge3" class="edge">
<title>accept_pay&#45;&gt;0</title>
<path fill="none" stroke="black" d="M194.27,-275.81C201.53,-280.79 208.16,-286.81 213,-294 228.32,-316.79 232.98,-394.59 234.39,-437.14"/>
<polygon fill="black" stroke="black" points="230.89,-437.21 234.68,-447.11 237.89,-437.01 230.89,-437.21"/>
<polygon fill="none" stroke="black" points="236,-353 236,-371 362,-371 362,-353 236,-353"/>
<text text-anchor="start" x="239" y="-360" font-family="Courier New" font-weight="bold" font-size="10.00" fill="orange">WAIT(SIGNAL,SIG_OFF)</text>
<polygon fill="none" stroke="black" points="236,-333 236,-351 362,-351 362,-333 236,-333"/>
<text text-anchor="start" x="278" y="-339" font-family="Courier New" font-size="10.00" fill="blue">SHOW();</text>
<polygon fill="none" stroke="black" points="233,-330 233,-374 365,-374 365,-330 233,-330"/>
</g>
<!-- check_scoop -->
<g id="node4" class="node">
<title>check_scoop</title>
<polyline fill="none" stroke="darkred" points="202,-99 300,-99"/>
<text text-anchor="start" x="205" y="-106.4" font-family="Courier New" font-weight="bold" font-size="14.00">check_scoop</text>
<path fill="none" stroke="darkred" d="M208.33,-96C208.33,-96 293.67,-96 293.67,-96 298.33,-96 303,-100.67 303,-105.33 303,-105.33 303,-114.67 303,-114.67 303,-119.33 298.33,-124 293.67,-124 293.67,-124 208.33,-124 208.33,-124 203.67,-124 199,-119.33 199,-114.67 199,-114.67 199,-105.33 199,-105.33 199,-100.67 203.67,-96 208.33,-96"/>
</g>
<!-- accept_pay&#45;&gt;check_scoop -->
<g id="edge2" class="edge">
<title>accept_pay&#45;&gt;check_scoop</title>
<path fill="none" stroke="black" d="M86.73,-232.16C79.68,-227.26 73.42,-221.28 69,-214 53.32,-188.17 49.75,-169.3 69,-146 83.17,-128.85 135.13,-120.01 179.93,-115.52"/>
<polygon fill="black" stroke="black" points="180,-119.02 189.63,-114.6 179.34,-112.06 180,-119.02"/>
<polygon fill="none" stroke="black" points="72,-193 72,-211 240,-211 240,-193 72,-193"/>
<text text-anchor="start" x="104.99" y="-200" font-family="Courier New" font-weight="bold" font-size="10.00" fill="orange">DRAG(IDD_SCOOPF,)</text>
<polygon fill="none" stroke="black" points="72,-149 72,-191 240,-191 240,-149 72,-149"/>
<text text-anchor="start" x="75" y="-179" font-family="Courier New" font-size="10.00" fill="blue"> &#160;&#160;&#160;HANDOFF(0,IDD_SCOOPE);</text>
<text text-anchor="start" x="75" y="-167" font-family="Courier New" font-size="10.00" fill="blue"> &#160;&#160;&#160;PLAYWAVE(0,SOUND_SPIT);</text>
<text text-anchor="start" x="75" y="-155" font-family="Courier New" font-size="10.00" fill="blue"> &#160;&#160;&#160;ADDI(BPARM,1); </text>
<polygon fill="none" stroke="black" points="69,-146 69,-214 243,-214 243,-146 69,-146"/>
</g>
<!-- check_scoop&#45;&gt;accept_pay -->
<g id="edge5" class="edge">
<title>check_scoop&#45;&gt;accept_pay</title>
<path fill="none" stroke="black" d="M254.71,-127.83C258.54,-149.9 261.66,-188.76 243,-214 235.69,-223.9 225.48,-231.28 214.37,-236.79"/>
<polygon fill="black" stroke="black" points="213.12,-233.52 205.37,-240.74 215.93,-239.93 213.12,-233.52"/>
<text text-anchor="start" x="261" y="-178" font-family="Courier New" font-weight="bold" font-size="10.00" fill="blue">Z_EPSILON(,)</text>
</g>
<!-- paid_in_full -->
<g id="node5" class="node">
<title>paid_in_full</title>
<polyline fill="none" stroke="darkred" points="263,-7 369,-7"/>
<text text-anchor="start" x="266" y="-14.4" font-family="Courier New" font-weight="bold" font-size="14.00">paid_in_full</text>
<path fill="none" stroke="darkred" d="M269.33,-4C269.33,-4 362.67,-4 362.67,-4 367.33,-4 372,-8.67 372,-13.33 372,-13.33 372,-22.67 372,-22.67 372,-27.33 367.33,-32 362.67,-32 362.67,-32 269.33,-32 269.33,-32 264.67,-32 260,-27.33 260,-22.67 260,-22.67 260,-13.33 260,-13.33 260,-8.67 264.67,-4 269.33,-4"/>
</g>
<!-- check_scoop&#45;&gt;paid_in_full -->
<g id="edge4" class="edge">
<title>check_scoop&#45;&gt;paid_in_full</title>
<path fill="none" stroke="black" d="M247.17,-92.4C245.43,-80.81 245.08,-65.44 252,-54 254.51,-49.86 257.7,-46.17 261.3,-42.89"/>
<polygon fill="black" stroke="black" points="263.33,-45.75 269.16,-36.9 259.09,-40.18 263.33,-45.75"/>
<text text-anchor="start" x="256" y="-62" font-family="Courier New" font-weight="bold" font-size="10.00" fill="blue">EQUAL(BPARM,WPARM)</text>
</g>
<!-- paid_in_full&#45;&gt;0 -->
<g id="edge6" class="edge">
<title>paid_in_full&#45;&gt;0</title>
<path fill="none" stroke="black" d="M351.47,-35.94C358.11,-40.81 364.16,-46.8 368,-54 442.35,-193.67 469.16,-288.34 368,-410 339.97,-443.71 309.59,-407.19 271,-428 265.1,-431.18 259.59,-435.68 254.74,-440.46"/>
<polygon fill="black" stroke="black" points="252.48,-437.74 248.28,-447.47 257.63,-442.48 252.48,-437.74"/>
<polygon fill="none" stroke="black" points="433,-187 433,-205 607,-205 607,-187 433,-187"/>
<text text-anchor="start" x="483.99" y="-194" font-family="Courier New" font-weight="bold" font-size="10.00" fill="blue">Z_EPSILON(,)</text>
<polygon fill="none" stroke="black" points="433,-155 433,-185 607,-185 607,-155 433,-155"/>
<text text-anchor="start" x="436" y="-173" font-family="Courier New" font-size="10.00" fill="blue"> &#160;&#160;&#160;PLAYWAVE(0,SOUND_LEVER);</text>
<text text-anchor="start" x="436" y="-161" font-family="Courier New" font-size="10.00" fill="blue"> &#160;&#160;&#160;ASHOW();</text>
<polygon fill="none" stroke="black" points="430,-152 430,-208 610,-208 610,-152 430,-152"/>
</g>
<!-- status -->
<g id="node6" class="node">
<title>status</title>
<polygon fill="none" stroke="black" points="280,-428.5 280,-504.5 740,-504.5 740,-428.5 280,-428.5"/>
<polygon fill="none" stroke="black" points="291,-479.5 291,-497.5 729,-497.5 729,-479.5 291,-479.5"/>
<text text-anchor="start" x="473.99" y="-486.5" font-family="Courier New" font-weight="bold" font-size="10.00">S16_BUCK_PAY</text>
<polygon fill="none" stroke="black" points="291,-435.5 291,-477.5 729,-477.5 729,-435.5 291,-435.5"/>
<text text-anchor="start" x="294" y="-465.5" font-family="Courier New" font-size="10.00" fill="green">VIEW::IDV_BUCK0000</text>
<text text-anchor="start" x="294" y="-453.5" font-family="Courier New" font-size="10.00" fill="green">S16_BUCK_PAY::M16_PAYBUCKET(&#39;IDS_NYBUCKET_GLOW&#39;,&#39;3&#39;,&#39;S16_BUCK_STAMP&#39;,&#39;&#39;)</text>
<text text-anchor="start" x="294" y="-441.5" font-family="Courier New" font-size="10.00" fill="green">{&#39;accept_pay&#39;: wParm:3 wSprite:NYBUCKET_GLOW</text>
<polygon fill="none" stroke="black" points="288,-432.5 288,-500.5 732,-500.5 732,-432.5 288,-432.5"/>
</g>
</g>
</svg>
