<?xml version="1.0" encoding="UTF-8" standalone="no"?>
<!DOCTYPE svg PUBLIC "-//W3C//DTD SVG 1.1//EN"
 "http://www.w3.org/Graphics/SVG/1.1/DTD/svg11.dtd">
<!-- Generated by graphviz version 7.1.0 (20230121.1956)
 -->
<!-- Title: Automaton Pages: 1 -->
<svg width="691pt" height="417pt"
 viewBox="0.00 0.00 691.42 417.00" xmlns="http://www.w3.org/2000/svg" xmlns:xlink="http://www.w3.org/1999/xlink">
<g id="graph0" class="graph" transform="scale(1 1) rotate(0) translate(4 413)">
<title>Automaton</title>
<polygon fill="white" stroke="none" points="-4,4 -4,-413 687.42,-413 687.42,4 -4,4"/>
<!-- filename -->
<g id="node1" class="node">
<title>filename</title>
<polygon fill="none" stroke="black" points="3.42,-340.5 3.42,-392.5 193.42,-392.5 193.42,-340.5 3.42,-340.5"/>
<polygon fill="none" stroke="black" points="14.42,-367.5 14.42,-385.5 182.42,-385.5 182.42,-367.5 14.42,-367.5"/>
<text text-anchor="start" x="17.42" y="-374.5" font-family="Courier New" font-weight="bold" font-size="10.00">S16_BLOBFILL4::M16_BLOBDROP</text>
<polygon fill="none" stroke="black" points="14.42,-347.5 14.42,-365.5 182.42,-365.5 182.42,-347.5 14.42,-347.5"/>
<text text-anchor="start" x="53.42" y="-353.5" font-family="Courier New" font-size="10.00" fill="brown">start state = 0</text>
<polygon fill="none" stroke="black" points="11.42,-344.5 11.42,-388.5 185.42,-388.5 185.42,-344.5 11.42,-344.5"/>
</g>
<!-- 0 -->
<g id="node2" class="node">
<title>0</title>
<polyline fill="none" stroke="darkred" points="231.42,-355.5 245.42,-355.5"/>
<text text-anchor="start" x="234.42" y="-362.9" font-family="Courier New" font-weight="bold" font-size="14.00">0</text>
<path fill="none" stroke="darkred" d="M235.09,-352.5C235.09,-352.5 241.76,-352.5 241.76,-352.5 245.09,-352.5 248.42,-355.83 248.42,-359.17 248.42,-359.17 248.42,-373.83 248.42,-373.83 248.42,-377.17 245.09,-380.5 241.76,-380.5 241.76,-380.5 235.09,-380.5 235.09,-380.5 231.76,-380.5 228.42,-377.17 228.42,-373.83 228.42,-373.83 228.42,-359.17 228.42,-359.17 228.42,-355.83 231.76,-352.5 235.09,-352.5"/>
</g>
<!-- 2 -->
<g id="node3" class="node">
<title>2</title>
<polyline fill="none" stroke="darkred" points="121.42,-215 135.42,-215"/>
<text text-anchor="start" x="124.42" y="-222.4" font-family="Courier New" font-weight="bold" font-size="14.00">2</text>
<path fill="none" stroke="darkred" d="M125.09,-212C125.09,-212 131.76,-212 131.76,-212 135.09,-212 138.42,-215.33 138.42,-218.67 138.42,-218.67 138.42,-233.33 138.42,-233.33 138.42,-236.67 135.09,-240 131.76,-240 131.76,-240 125.09,-240 125.09,-240 121.76,-240 118.42,-236.67 118.42,-233.33 118.42,-233.33 118.42,-218.67 118.42,-218.67 118.42,-215.33 121.76,-212 125.09,-212"/>
</g>
<!-- 0&#45;&gt;2 -->
<g id="edge1" class="edge">
<title>0&#45;&gt;2</title>
<path fill="none" stroke="black" d="M228.27,-348.51C222,-339.63 213.11,-329.49 202.42,-324 164.11,-304.31 38.43,-337.84 9.42,-306 -3.75,-291.54 -2.29,-277.66 9.42,-262 27.94,-237.26 63.09,-229.26 90.4,-227"/>
<polygon fill="black" stroke="black" points="90.27,-230.52 100.05,-226.44 89.86,-223.53 90.27,-230.52"/>
<text text-anchor="start" x="13.42" y="-282" font-family="Courier New" font-weight="bold" font-size="10.00" fill="blue">O_ACCEPT(0,IDD_BLOBBALL)</text>
</g>
<!-- 2&#45;&gt;0 -->
<g id="edge3" class="edge">
<title>2&#45;&gt;0</title>
<path fill="none" stroke="black" d="M146.21,-243.98C151.45,-249.46 156.97,-255.74 161.42,-262 174.22,-279.97 171.36,-288.22 184.42,-306 191.12,-315.12 194.71,-315.72 202.42,-324 207.17,-329.1 212.14,-334.66 216.82,-340.02"/>
<polygon fill="black" stroke="black" points="214.15,-342.28 223.33,-347.56 219.44,-337.7 214.15,-342.28"/>
<polygon fill="none" stroke="black" points="187.42,-285 187.42,-303 277.42,-303 277.42,-285 187.42,-285"/>
<text text-anchor="start" x="190.42" y="-292" font-family="Courier New" font-weight="bold" font-size="10.00" fill="orange">GRAB(WOBJECT,)</text>
<polygon fill="none" stroke="black" points="187.42,-265 187.42,-283 277.42,-283 277.42,-265 187.42,-265"/>
<text text-anchor="start" x="211.42" y="-271" font-family="Courier New" font-size="10.00" fill="blue">SHOW();</text>
<polygon fill="none" stroke="black" points="184.42,-262 184.42,-306 280.42,-306 280.42,-262 184.42,-262"/>
</g>
<!-- 3 -->
<g id="node4" class="node">
<title>3</title>
<polyline fill="none" stroke="darkred" points="113.42,-99 127.42,-99"/>
<text text-anchor="start" x="116.42" y="-106.4" font-family="Courier New" font-weight="bold" font-size="14.00">3</text>
<path fill="none" stroke="darkred" d="M117.09,-96C117.09,-96 123.76,-96 123.76,-96 127.09,-96 130.42,-99.33 130.42,-102.67 130.42,-102.67 130.42,-117.33 130.42,-117.33 130.42,-120.67 127.09,-124 123.76,-124 123.76,-124 117.09,-124 117.09,-124 113.76,-124 110.42,-120.67 110.42,-117.33 110.42,-117.33 110.42,-102.67 110.42,-102.67 110.42,-99.33 113.76,-96 117.09,-96"/>
</g>
<!-- 2&#45;&gt;3 -->
<g id="edge2" class="edge">
<title>2&#45;&gt;3</title>
<path fill="none" stroke="black" d="M101.8,-208.13C96,-203.06 90.64,-196.97 87.42,-190 79.23,-172.24 80.21,-164.18 87.42,-146 88.71,-142.77 90.45,-139.66 92.46,-136.72"/>
<polygon fill="black" stroke="black" points="95.03,-139.11 98.64,-129.15 89.61,-134.68 95.03,-139.11"/>
<text text-anchor="start" x="91.42" y="-166" font-family="Courier New" font-weight="bold" font-size="10.00" fill="orange">DROP(0,0)</text>
</g>
<!-- 5 -->
<g id="node5" class="node">
<title>5</title>
<polyline fill="none" stroke="darkred" points="253.42,-99 267.42,-99"/>
<text text-anchor="start" x="256.42" y="-106.4" font-family="Courier New" font-weight="bold" font-size="14.00">5</text>
<path fill="none" stroke="darkred" d="M257.09,-96C257.09,-96 263.76,-96 263.76,-96 267.09,-96 270.42,-99.33 270.42,-102.67 270.42,-102.67 270.42,-117.33 270.42,-117.33 270.42,-120.67 267.09,-124 263.76,-124 263.76,-124 257.09,-124 257.09,-124 253.76,-124 250.42,-120.67 250.42,-117.33 250.42,-117.33 250.42,-102.67 250.42,-102.67 250.42,-99.33 253.76,-96 257.09,-96"/>
</g>
<!-- 2&#45;&gt;5 -->
<g id="edge4" class="edge">
<title>2&#45;&gt;5</title>
<path fill="none" stroke="black" d="M138.88,-208.03C142.31,-202.34 146.1,-195.93 149.42,-190 160.22,-170.75 156.04,-160.78 172.42,-146 186.55,-133.26 205.87,-124.89 222.81,-119.54"/>
<polygon fill="black" stroke="black" points="223.44,-123 232.07,-116.86 221.49,-116.28 223.44,-123"/>
<polygon fill="none" stroke="black" points="175.42,-169 175.42,-187 277.42,-187 277.42,-169 175.42,-169"/>
<text text-anchor="start" x="178.42" y="-176" font-family="Courier New" font-weight="bold" font-size="10.00" fill="orange">WAIT(,SIG_RESET)</text>
<polygon fill="none" stroke="black" points="175.42,-149 175.42,-167 277.42,-167 277.42,-149 175.42,-149"/>
<text text-anchor="start" x="205.42" y="-155" font-family="Courier New" font-size="10.00" fill="blue">SHOW();</text>
<polygon fill="none" stroke="black" points="172.42,-146 172.42,-190 280.42,-190 280.42,-146 172.42,-146"/>
</g>
<!-- 4 -->
<g id="node6" class="node">
<title>4</title>
<polyline fill="none" stroke="darkred" points="305.42,-7 319.42,-7"/>
<text text-anchor="start" x="308.42" y="-14.4" font-family="Courier New" font-weight="bold" font-size="14.00">4</text>
<path fill="none" stroke="darkred" d="M309.09,-4C309.09,-4 315.76,-4 315.76,-4 319.09,-4 322.42,-7.33 322.42,-10.67 322.42,-10.67 322.42,-25.33 322.42,-25.33 322.42,-28.67 319.09,-32 315.76,-32 315.76,-32 309.09,-32 309.09,-32 305.76,-32 302.42,-28.67 302.42,-25.33 302.42,-25.33 302.42,-10.67 302.42,-10.67 302.42,-7.33 305.76,-4 309.09,-4"/>
</g>
<!-- 3&#45;&gt;4 -->
<g id="edge5" class="edge">
<title>3&#45;&gt;4</title>
<path fill="none" stroke="black" d="M147.12,-96.49C180.56,-80.81 238.01,-53.88 275.6,-36.26"/>
<polygon fill="black" stroke="black" points="276.7,-39.61 284.27,-32.19 273.73,-33.27 276.7,-39.61"/>
<text text-anchor="start" x="237.42" y="-62" font-family="Courier New" font-weight="bold" font-size="10.00" fill="blue">MOV(WSPRITE,WIP1)</text>
</g>
<!-- 5&#45;&gt;0 -->
<g id="edge7" class="edge">
<title>5&#45;&gt;0</title>
<path fill="none" stroke="black" d="M272.29,-127.67C275.59,-133.23 278.73,-139.64 280.42,-146 298.68,-214.73 301.94,-238.22 280.42,-306 276.57,-318.15 269.24,-329.95 261.77,-339.8"/>
<polygon fill="black" stroke="black" points="259.18,-337.44 255.62,-347.42 264.63,-341.83 259.18,-337.44"/>
<text text-anchor="start" x="298.42" y="-224" font-family="Courier New" font-weight="bold" font-size="10.00" fill="blue">Z_EPSILON(,)</text>
</g>
<!-- 4&#45;&gt;0 -->
<g id="edge6" class="edge">
<title>4&#45;&gt;0</title>
<path fill="none" stroke="black" d="M333.24,-35.82C338.6,-41.12 343.85,-47.33 347.42,-54 398.83,-149.92 400.4,-198.81 378.42,-244 358.9,-284.14 335.1,-279.18 299.42,-306 288.48,-314.23 284.53,-314.77 274.42,-324 269.06,-328.9 263.71,-334.55 258.83,-340.08"/>
<polygon fill="black" stroke="black" points="256.42,-337.5 252.6,-347.38 261.75,-342.04 256.42,-337.5"/>
<text text-anchor="start" x="395.42" y="-166" font-family="Courier New" font-weight="bold" font-size="10.00" fill="blue">SHOW(WSPRITE,)</text>
</g>
<!-- status -->
<g id="node7" class="node">
<title>status</title>
<polygon fill="none" stroke="black" points="283.42,-324.5 283.42,-408.5 683.42,-408.5 683.42,-324.5 283.42,-324.5"/>
<polygon fill="none" stroke="black" points="294.42,-383.5 294.42,-401.5 672.42,-401.5 672.42,-383.5 294.42,-383.5"/>
<text text-anchor="start" x="444.42" y="-390.5" font-family="Courier New" font-weight="bold" font-size="10.00">S16_BLOBFILL4</text>
<polygon fill="none" stroke="black" points="294.42,-351.5 294.42,-381.5 672.42,-381.5 672.42,-351.5 294.42,-351.5"/>
<text text-anchor="start" x="297.42" y="-369.5" font-family="Courier New" font-size="10.00" fill="green">S16_BLOBFILL4::M16_BLOBDROP(&#39;IDS_BLOBFILL4&#39;,&#39;&#39;,&#39;&#39;,&#39;&#39;)</text>
<text text-anchor="start" x="297.42" y="-357.5" font-family="Courier New" font-size="10.00" fill="green">{&#39;2&#39;: wObject:IDD_BLOBBALL wSprite:blob4 wAccept:IDD_BLOBBALL}</text>
<polygon fill="none" stroke="black" points="294.42,-331.5 294.42,-349.5 672.42,-349.5 672.42,-331.5 294.42,-331.5"/>
<text text-anchor="start" x="480.42" y="-337.5" font-family="Courier New" font-size="10.00" fill="blue">_</text>
<polygon fill="none" stroke="black" points="291.42,-328.5 291.42,-404.5 675.42,-404.5 675.42,-328.5 291.42,-328.5"/>
</g>
</g>
</svg>
