<?xml version="1.0" encoding="UTF-8" standalone="no"?>
<!DOCTYPE svg PUBLIC "-//W3C//DTD SVG 1.1//EN"
 "http://www.w3.org/Graphics/SVG/1.1/DTD/svg11.dtd">
<!-- Generated by graphviz version 7.1.0 (20230121.1956)
 -->
<!-- Title: Automaton Pages: 1 -->
<svg width="2164pt" height="385pt"
 viewBox="0.00 0.00 2164.12 385.00" xmlns="http://www.w3.org/2000/svg" xmlns:xlink="http://www.w3.org/1999/xlink">
<g id="graph0" class="graph" transform="scale(1 1) rotate(0) translate(4 381)">
<title>Automaton</title>
<polygon fill="white" stroke="none" points="-4,4 -4,-381 2160.12,-381 2160.12,4 -4,4"/>
<!-- filename -->
<g id="node1" class="node">
<title>filename</title>
<polygon fill="none" stroke="black" points="853.12,-312.5 853.12,-364.5 1043.12,-364.5 1043.12,-312.5 853.12,-312.5"/>
<polygon fill="none" stroke="black" points="864.12,-339.5 864.12,-357.5 1032.12,-357.5 1032.12,-339.5 864.12,-339.5"/>
<text text-anchor="start" x="867.12" y="-346.5" font-family="Courier New" font-weight="bold" font-size="10.00">S17_aLOCKBURN::M17_LOCKBURN</text>
<polygon fill="none" stroke="black" points="864.12,-319.5 864.12,-337.5 1032.12,-337.5 1032.12,-319.5 864.12,-319.5"/>
<text text-anchor="start" x="903.11" y="-325.5" font-family="Courier New" font-size="10.00" fill="brown">start state = 0</text>
<polygon fill="none" stroke="black" points="861.12,-316.5 861.12,-360.5 1035.12,-360.5 1035.12,-316.5 861.12,-316.5"/>
</g>
<!-- 0 -->
<g id="node2" class="node">
<title>0</title>
<polyline fill="none" stroke="darkred" stroke-width="3" points="1080.62,-327 1095.62,-327"/>
<text text-anchor="start" x="1084.12" y="-334.9" font-family="Courier New" font-weight="bold" font-size="14.00">0</text>
<path fill="none" stroke="darkred" stroke-width="3" d="M1083.95,-322C1083.95,-322 1092.28,-322 1092.28,-322 1096.45,-322 1100.62,-326.17 1100.62,-330.33 1100.62,-330.33 1100.62,-346.67 1100.62,-346.67 1100.62,-350.83 1096.45,-355 1092.28,-355 1092.28,-355 1083.95,-355 1083.95,-355 1079.78,-355 1075.62,-350.83 1075.62,-346.67 1075.62,-346.67 1075.62,-330.33 1075.62,-330.33 1075.62,-326.17 1079.78,-322 1083.95,-322"/>
</g>
<!-- 1 -->
<g id="node3" class="node">
<title>1</title>
<polyline fill="none" stroke="darkred" points="387.12,-191 401.12,-191"/>
<text text-anchor="start" x="390.12" y="-198.4" font-family="Courier New" font-weight="bold" font-size="14.00">1</text>
<path fill="none" stroke="darkred" d="M390.78,-188C390.78,-188 397.45,-188 397.45,-188 400.78,-188 404.12,-191.33 404.12,-194.67 404.12,-194.67 404.12,-209.33 404.12,-209.33 404.12,-212.67 400.78,-216 397.45,-216 397.45,-216 390.78,-216 390.78,-216 387.45,-216 384.12,-212.67 384.12,-209.33 384.12,-209.33 384.12,-194.67 384.12,-194.67 384.12,-191.33 387.45,-188 390.78,-188"/>
</g>
<!-- 0&#45;&gt;1 -->
<g id="edge1" class="edge">
<title>0&#45;&gt;1</title>
<path fill="none" stroke="black" d="M1073.52,-316.72C1067.69,-310.12 1060.39,-303.61 1052.12,-300 999.05,-276.84 50.7,-323.29 10.12,-282 -3.59,-268.05 -3.07,-252.44 10.12,-238 33.14,-212.78 263.44,-205.53 355.95,-203.62"/>
<polygon fill="black" stroke="black" points="355.85,-207.13 365.78,-203.43 355.71,-200.13 355.85,-207.13"/>
<text text-anchor="start" x="14.12" y="-258" font-family="Courier New" font-weight="bold" font-size="10.00" fill="orange">WAIT(0,SIG_BURN)</text>
</g>
<!-- 0&#45;&gt;1 -->
<g id="edge2" class="edge">
<title>0&#45;&gt;1</title>
<path fill="none" stroke="black" d="M1073.52,-316.73C1067.69,-310.13 1060.38,-303.62 1052.12,-300 1005.54,-279.61 172.71,-318.3 137.12,-282 71.1,-214.67 269.28,-204.41 355.82,-203.08"/>
<polygon fill="black" stroke="black" points="355.78,-206.58 365.74,-202.96 355.7,-199.58 355.78,-206.58"/>
<text text-anchor="start" x="141.12" y="-258" font-family="Courier New" font-weight="bold" font-size="10.00" fill="orange">WAIT(0,SIG_BURN)</text>
</g>
<!-- 0&#45;&gt;1 -->
<g id="edge4" class="edge">
<title>0&#45;&gt;1</title>
<path fill="none" stroke="black" d="M1073.51,-316.74C1067.68,-310.15 1060.38,-303.63 1052.12,-300 1012.03,-282.37 294.73,-313.32 264.12,-282 250.45,-268.02 252.22,-253.52 264.12,-238 275.33,-223.37 322.04,-213.49 356.28,-208.05"/>
<polygon fill="black" stroke="black" points="356.48,-211.56 365.84,-206.6 355.43,-204.64 356.48,-211.56"/>
<text text-anchor="start" x="268.12" y="-258" font-family="Courier New" font-weight="bold" font-size="10.00" fill="orange">WAIT(0,SIG_BURN)</text>
</g>
<!-- 0&#45;&gt;1 -->
<g id="edge6" class="edge">
<title>0&#45;&gt;1</title>
<path fill="none" stroke="black" d="M1073.5,-316.76C1067.67,-310.17 1060.37,-303.65 1052.12,-300 1018.52,-285.14 416.74,-308.33 391.12,-282 378.28,-268.81 379.72,-247.77 383.99,-230.72"/>
<polygon fill="black" stroke="black" points="387.34,-231.73 386.83,-221.15 380.63,-229.74 387.34,-231.73"/>
<text text-anchor="start" x="395.12" y="-258" font-family="Courier New" font-weight="bold" font-size="10.00" fill="orange">WAIT(0,SIG_BURN)</text>
</g>
<!-- 0&#45;&gt;1 -->
<g id="edge8" class="edge">
<title>0&#45;&gt;1</title>
<path fill="none" stroke="black" d="M1073.49,-316.8C1067.65,-310.21 1060.36,-303.68 1052.12,-300 998.82,-276.2 578.67,-309.37 527.12,-282 505.76,-270.66 514.54,-252.4 495.12,-238 476.59,-224.27 452.24,-215.62 432.09,-210.35"/>
<polygon fill="black" stroke="black" points="433.11,-207 422.57,-208.06 431.47,-213.8 433.11,-207"/>
<text text-anchor="start" x="531.12" y="-258" font-family="Courier New" font-weight="bold" font-size="10.00" fill="orange">WAIT(0,SIG_BURN)</text>
</g>
<!-- 5 -->
<g id="node4" class="node">
<title>5</title>
<polyline fill="none" stroke="darkred" points="1082.12,-191 1096.12,-191"/>
<text text-anchor="start" x="1085.12" y="-198.4" font-family="Courier New" font-weight="bold" font-size="14.00">5</text>
<path fill="none" stroke="darkred" d="M1085.78,-188C1085.78,-188 1092.45,-188 1092.45,-188 1095.78,-188 1099.12,-191.33 1099.12,-194.67 1099.12,-194.67 1099.12,-209.33 1099.12,-209.33 1099.12,-212.67 1095.78,-216 1092.45,-216 1092.45,-216 1085.78,-216 1085.78,-216 1082.45,-216 1079.12,-212.67 1079.12,-209.33 1079.12,-209.33 1079.12,-194.67 1079.12,-194.67 1079.12,-191.33 1082.45,-188 1085.78,-188"/>
</g>
<!-- 0&#45;&gt;5 -->
<g id="edge3" class="edge">
<title>0&#45;&gt;5</title>
<path fill="none" stroke="black" d="M1073.47,-316.84C1067.63,-310.26 1060.34,-303.72 1052.12,-300 1010.88,-281.34 676.41,-314.71 645.12,-282 631.6,-267.87 631.84,-252.36 645.12,-238 672.41,-208.47 948.5,-203.82 1051.04,-203.12"/>
<polygon fill="black" stroke="black" points="1050.89,-206.62 1060.87,-203.06 1050.85,-199.62 1050.89,-206.62"/>
<text text-anchor="start" x="649.12" y="-258" font-family="Courier New" font-weight="bold" font-size="10.00" fill="orange">WAIT(0,SIG_HIDE)</text>
</g>
<!-- 0&#45;&gt;5 -->
<g id="edge5" class="edge">
<title>0&#45;&gt;5</title>
<path fill="none" stroke="black" d="M1073.07,-316.54C1067.29,-310.1 1060.14,-303.73 1052.12,-300 1023.85,-286.86 793.44,-304.74 772.12,-282 758.74,-267.74 759.07,-252.57 772.12,-238 790.45,-217.53 970.92,-207.76 1051.08,-204.41"/>
<polygon fill="black" stroke="black" points="1050.79,-207.92 1060.64,-204.02 1050.51,-200.93 1050.79,-207.92"/>
<text text-anchor="start" x="776.12" y="-258" font-family="Courier New" font-weight="bold" font-size="10.00" fill="orange">WAIT(0,SIG_HIDE)</text>
</g>
<!-- 0&#45;&gt;5 -->
<g id="edge7" class="edge">
<title>0&#45;&gt;5</title>
<path fill="none" stroke="black" d="M1072.96,-316.78C1067.17,-310.36 1060.04,-303.94 1052.12,-300 1021.46,-284.76 921.87,-307.58 899.12,-282 886.12,-267.39 886.6,-253.03 899.12,-238 918.04,-215.27 1001.07,-207.25 1050.89,-204.46"/>
<polygon fill="black" stroke="black" points="1050.86,-207.96 1060.67,-203.96 1050.51,-200.97 1050.86,-207.96"/>
<text text-anchor="start" x="903.12" y="-258" font-family="Courier New" font-weight="bold" font-size="10.00" fill="orange">WAIT(0,SIG_HIDE)</text>
</g>
<!-- 0&#45;&gt;5 -->
<g id="edge9" class="edge">
<title>0&#45;&gt;5</title>
<path fill="none" stroke="black" d="M1069.39,-316.51C1064.03,-310.92 1058.03,-305.03 1052.12,-300 1041.42,-290.88 1032.64,-294.45 1026.12,-282 1017.04,-264.68 1016.2,-254.85 1026.12,-238 1032.02,-227.97 1041.95,-220.61 1052.2,-215.3"/>
<polygon fill="black" stroke="black" points="1053.38,-218.61 1061.04,-211.28 1050.49,-212.23 1053.38,-218.61"/>
<text text-anchor="start" x="1030.12" y="-258" font-family="Courier New" font-weight="bold" font-size="10.00" fill="orange">WAIT(0,SIG_HIDE)</text>
</g>
<!-- 2 -->
<g id="node5" class="node">
<title>2</title>
<polyline fill="none" stroke="darkred" points="713.12,-99 727.12,-99"/>
<text text-anchor="start" x="716.12" y="-106.4" font-family="Courier New" font-weight="bold" font-size="14.00">2</text>
<path fill="none" stroke="darkred" d="M716.78,-96C716.78,-96 723.45,-96 723.45,-96 726.78,-96 730.12,-99.33 730.12,-102.67 730.12,-102.67 730.12,-117.33 730.12,-117.33 730.12,-120.67 726.78,-124 723.45,-124 723.45,-124 716.78,-124 716.78,-124 713.45,-124 710.12,-120.67 710.12,-117.33 710.12,-117.33 710.12,-102.67 710.12,-102.67 710.12,-99.33 713.45,-96 716.78,-96"/>
</g>
<!-- 1&#45;&gt;2 -->
<g id="edge10" class="edge">
<title>1&#45;&gt;2</title>
<path fill="none" stroke="black" d="M367.4,-199.08C319.56,-194.71 227.21,-181.5 260.12,-146 288.56,-115.31 577.02,-111.4 682.09,-111"/>
<polygon fill="black" stroke="black" points="681.9,-114.5 691.89,-110.97 681.88,-107.5 681.9,-114.5"/>
<text text-anchor="start" x="264.12" y="-154" font-family="Courier New" font-weight="bold" font-size="10.00" fill="blue">SHOW(0,IDS_MINEBLOW)</text>
</g>
<!-- 1&#45;&gt;2 -->
<g id="edge11" class="edge">
<title>1&#45;&gt;2</title>
<path fill="none" stroke="black" d="M394.64,-184.16C395.99,-171.66 399.96,-155.25 411.12,-146 451.48,-112.56 608.41,-109.71 681.83,-110.29"/>
<polygon fill="black" stroke="black" points="681.74,-113.79 691.77,-110.39 681.81,-106.79 681.74,-113.79"/>
<text text-anchor="start" x="415.12" y="-154" font-family="Courier New" font-weight="bold" font-size="10.00" fill="blue">SHOW(0,IDS_MINEBLOW)</text>
</g>
<!-- 1&#45;&gt;2 -->
<g id="edge12" class="edge">
<title>1&#45;&gt;2</title>
<path fill="none" stroke="black" d="M421.12,-198.37C451.29,-194.57 500.91,-185.71 539.12,-166 551.16,-159.79 550.02,-152.1 562.12,-146 600.38,-126.71 649.13,-117.98 682.3,-114.08"/>
<polygon fill="black" stroke="black" points="682.26,-117.6 691.83,-113.05 681.51,-110.64 682.26,-117.6"/>
<text text-anchor="start" x="566.12" y="-154" font-family="Courier New" font-weight="bold" font-size="10.00" fill="blue">SHOW(0,IDS_MINEBLOW)</text>
</g>
<!-- 1&#45;&gt;2 -->
<g id="edge13" class="edge">
<title>1&#45;&gt;2</title>
<path fill="none" stroke="black" d="M420.86,-200.91C485.19,-200.21 646.5,-195.49 690.12,-166 699.88,-159.4 706.75,-148.53 711.43,-138.19"/>
<polygon fill="black" stroke="black" points="714.56,-139.8 714.99,-129.22 708.05,-137.23 714.56,-139.8"/>
<text text-anchor="start" x="711.12" y="-154" font-family="Courier New" font-weight="bold" font-size="10.00" fill="blue">SHOW(0,IDS_MINEBLOW)</text>
</g>
<!-- 1&#45;&gt;2 -->
<g id="edge14" class="edge">
<title>1&#45;&gt;2</title>
<path fill="none" stroke="black" d="M420.92,-200.96C512.75,-200.53 810.68,-196.76 839.12,-166 865.78,-137.16 802.41,-122.21 758.29,-115.53"/>
<polygon fill="black" stroke="black" points="758.88,-112.08 748.49,-114.14 757.9,-119.01 758.88,-112.08"/>
<text text-anchor="start" x="850.12" y="-154" font-family="Courier New" font-weight="bold" font-size="10.00" fill="blue">SHOW(0,IDS_MINEBLOW)</text>
</g>
<!-- 5&#45;&gt;0 -->
<g id="edge25" class="edge">
<title>5&#45;&gt;0</title>
<path fill="none" stroke="black" d="M1115.74,-219.87C1121.54,-224.94 1126.9,-231.03 1130.12,-238 1138.31,-255.76 1136.34,-263.46 1130.12,-282 1127.06,-291.12 1121.83,-299.94 1116.09,-307.76"/>
<polygon fill="black" stroke="black" points="1113.37,-305.56 1109.89,-315.57 1118.85,-309.92 1113.37,-305.56"/>
<polygon fill="none" stroke="black" points="1138.12,-261 1138.12,-279 1216.12,-279 1216.12,-261 1138.12,-261"/>
<text text-anchor="start" x="1141.12" y="-268" font-family="Courier New" font-weight="bold" font-size="10.00" fill="blue">Z_EPSILON(,)</text>
<polygon fill="none" stroke="black" points="1138.12,-241 1138.12,-259 1216.12,-259 1216.12,-241 1138.12,-241"/>
<text text-anchor="start" x="1144.11" y="-247" font-family="Courier New" font-size="10.00" fill="blue"> &#160;&#160;&#160;SHOW();</text>
<polygon fill="none" stroke="black" points="1135.12,-238 1135.12,-282 1219.12,-282 1219.12,-238 1135.12,-238"/>
</g>
<!-- 5&#45;&gt;0 -->
<g id="edge26" class="edge">
<title>5&#45;&gt;0</title>
<path fill="none" stroke="black" d="M1116.11,-206.17C1151.37,-210.93 1210.15,-221.21 1223.12,-238 1235.07,-253.48 1235.65,-266.99 1223.12,-282 1194.46,-316.33 1163.52,-278.84 1124.12,-300 1119.82,-302.31 1115.74,-305.31 1111.97,-308.61"/>
<polygon fill="black" stroke="black" points="1109.53,-306.1 1104.86,-315.61 1114.44,-311.08 1109.53,-306.1"/>
<polygon fill="none" stroke="black" points="1235.12,-261 1235.12,-279 1313.12,-279 1313.12,-261 1235.12,-261"/>
<text text-anchor="start" x="1238.12" y="-268" font-family="Courier New" font-weight="bold" font-size="10.00" fill="blue">Z_EPSILON(,)</text>
<polygon fill="none" stroke="black" points="1235.12,-241 1235.12,-259 1313.12,-259 1313.12,-241 1235.12,-241"/>
<text text-anchor="start" x="1241.11" y="-247" font-family="Courier New" font-size="10.00" fill="blue"> &#160;&#160;&#160;SHOW();</text>
<polygon fill="none" stroke="black" points="1232.12,-238 1232.12,-282 1316.12,-282 1316.12,-238 1232.12,-238"/>
</g>
<!-- 5&#45;&gt;0 -->
<g id="edge27" class="edge">
<title>5&#45;&gt;0</title>
<path fill="none" stroke="black" d="M1115.7,-202.89C1170.69,-203.29 1294,-207.63 1320.12,-238 1332.87,-252.83 1333.3,-267.55 1320.12,-282 1290.64,-314.31 1163.53,-281.03 1124.12,-300 1119.51,-302.22 1115.18,-305.29 1111.23,-308.73"/>
<polygon fill="black" stroke="black" points="1108.94,-306.07 1104.3,-315.6 1113.87,-311.05 1108.94,-306.07"/>
<polygon fill="none" stroke="black" points="1332.12,-261 1332.12,-279 1410.12,-279 1410.12,-261 1332.12,-261"/>
<text text-anchor="start" x="1335.12" y="-268" font-family="Courier New" font-weight="bold" font-size="10.00" fill="blue">Z_EPSILON(,)</text>
<polygon fill="none" stroke="black" points="1332.12,-241 1332.12,-259 1410.12,-259 1410.12,-241 1332.12,-241"/>
<text text-anchor="start" x="1338.11" y="-247" font-family="Courier New" font-size="10.00" fill="blue"> &#160;&#160;&#160;SHOW();</text>
<polygon fill="none" stroke="black" points="1329.12,-238 1329.12,-282 1413.12,-282 1413.12,-238 1329.12,-238"/>
</g>
<!-- 5&#45;&gt;0 -->
<g id="edge28" class="edge">
<title>5&#45;&gt;0</title>
<path fill="none" stroke="black" d="M1115.93,-203.85C1190.66,-206.48 1397.09,-215.72 1417.12,-238 1430.19,-252.54 1430.51,-267.75 1417.12,-282 1394.77,-305.76 1153.72,-286.3 1124.12,-300 1119.48,-302.15 1115.13,-305.18 1111.17,-308.6"/>
<polygon fill="black" stroke="black" points="1108.88,-305.94 1104.23,-315.46 1113.81,-310.92 1108.88,-305.94"/>
<polygon fill="none" stroke="black" points="1429.12,-261 1429.12,-279 1507.12,-279 1507.12,-261 1429.12,-261"/>
<text text-anchor="start" x="1432.12" y="-268" font-family="Courier New" font-weight="bold" font-size="10.00" fill="blue">Z_EPSILON(,)</text>
<polygon fill="none" stroke="black" points="1429.12,-241 1429.12,-259 1507.12,-259 1507.12,-241 1429.12,-241"/>
<text text-anchor="start" x="1435.11" y="-247" font-family="Courier New" font-size="10.00" fill="blue"> &#160;&#160;&#160;SHOW();</text>
<polygon fill="none" stroke="black" points="1426.12,-238 1426.12,-282 1510.12,-282 1510.12,-238 1426.12,-238"/>
</g>
<!-- 3 -->
<g id="node6" class="node">
<title>3</title>
<polyline fill="none" stroke="darkred" points="1346.12,-7 1360.12,-7"/>
<text text-anchor="start" x="1349.12" y="-14.4" font-family="Courier New" font-weight="bold" font-size="14.00">3</text>
<path fill="none" stroke="darkred" d="M1349.78,-4C1349.78,-4 1356.45,-4 1356.45,-4 1359.78,-4 1363.12,-7.33 1363.12,-10.67 1363.12,-10.67 1363.12,-25.33 1363.12,-25.33 1363.12,-28.67 1359.78,-32 1356.45,-32 1356.45,-32 1349.78,-32 1349.78,-32 1346.45,-32 1343.12,-28.67 1343.12,-25.33 1343.12,-25.33 1343.12,-10.67 1343.12,-10.67 1343.12,-7.33 1346.45,-4 1349.78,-4"/>
</g>
<!-- 2&#45;&gt;3 -->
<g id="edge15" class="edge">
<title>2&#45;&gt;3</title>
<path fill="none" stroke="black" d="M693.52,-108.92C634.16,-107.91 499.5,-100.59 544.12,-54 571.07,-25.86 1158.2,-20.21 1314.94,-19.2"/>
<polygon fill="black" stroke="black" points="1314.81,-22.7 1324.78,-19.14 1314.76,-15.7 1314.81,-22.7"/>
<text text-anchor="start" x="548.12" y="-62" font-family="Courier New" font-weight="bold" font-size="10.00" fill="blue">PLAYWAVE(0,SOUND_EXPLODE)</text>
</g>
<!-- 2&#45;&gt;3 -->
<g id="edge16" class="edge">
<title>2&#45;&gt;3</title>
<path fill="none" stroke="black" d="M716.45,-92.14C714.85,-79.79 715.19,-63.59 725.12,-54 746.42,-33.43 1182.65,-22.59 1315.23,-19.76"/>
<polygon fill="black" stroke="black" points="1314.95,-23.27 1324.87,-19.56 1314.8,-16.27 1314.95,-23.27"/>
<text text-anchor="start" x="729.12" y="-62" font-family="Courier New" font-weight="bold" font-size="10.00" fill="blue">PLAYWAVE(0,SOUND_EXPLODE)</text>
</g>
<!-- 2&#45;&gt;3 -->
<g id="edge17" class="edge">
<title>2&#45;&gt;3</title>
<path fill="none" stroke="black" d="M746.87,-107.36C780.32,-104.41 838.59,-96.26 883.12,-74 895.23,-67.94 893.62,-59.24 906.12,-54 979.52,-23.23 1220.9,-19.29 1315.04,-18.94"/>
<polygon fill="black" stroke="black" points="1314.78,-22.44 1324.78,-18.92 1314.77,-15.44 1314.78,-22.44"/>
<text text-anchor="start" x="910.12" y="-62" font-family="Courier New" font-weight="bold" font-size="10.00" fill="blue">PLAYWAVE(0,SOUND_EXPLODE)</text>
</g>
<!-- 2&#45;&gt;3 -->
<g id="edge18" class="edge">
<title>2&#45;&gt;3</title>
<path fill="none" stroke="black" d="M747.09,-108.35C817.83,-106.31 1007.17,-98.65 1064.12,-74 1076.55,-68.62 1074.77,-59.56 1087.12,-54 1127,-36.03 1251.53,-25.59 1315.04,-21.3"/>
<polygon fill="black" stroke="black" points="1314.9,-24.82 1324.65,-20.67 1314.44,-17.83 1314.9,-24.82"/>
<text text-anchor="start" x="1091.12" y="-62" font-family="Courier New" font-weight="bold" font-size="10.00" fill="blue">PLAYWAVE(0,SOUND_EXPLODE)</text>
</g>
<!-- 2&#45;&gt;3 -->
<g id="edge19" class="edge">
<title>2&#45;&gt;3</title>
<path fill="none" stroke="black" d="M746.9,-109.45C840.7,-110.66 1153.6,-111.74 1245.12,-74 1257.64,-68.84 1256.59,-61.12 1268.12,-54 1282.87,-44.89 1300.41,-37.21 1315.71,-31.39"/>
<polygon fill="black" stroke="black" points="1316.78,-34.72 1324.97,-28 1314.37,-28.15 1316.78,-34.72"/>
<text text-anchor="start" x="1272.12" y="-62" font-family="Courier New" font-weight="bold" font-size="10.00" fill="blue">PLAYWAVE(0,SOUND_EXPLODE)</text>
</g>
<!-- 3&#45;&gt;0 -->
<g id="edge20" class="edge">
<title>3&#45;&gt;0</title>
<path fill="none" stroke="black" d="M1379.87,-25C1395.85,-30.02 1415.13,-38.88 1426.12,-54 1455.64,-94.63 1418.7,-121.06 1441.12,-166 1446.58,-176.94 1564.2,-229.55 1514.12,-282 1484.16,-313.37 1163.62,-282.08 1124.12,-300 1119.37,-302.16 1114.93,-305.25 1110.9,-308.75"/>
<polygon fill="black" stroke="black" points="1108.45,-306.24 1103.85,-315.78 1113.4,-311.2 1108.45,-306.24"/>
<text text-anchor="start" x="1445.12" y="-154" font-family="Courier New" font-weight="bold" font-size="10.00" fill="blue">VIDEO(0,IDS_EXPLODE1)</text>
</g>
<!-- 3&#45;&gt;0 -->
<g id="edge21" class="edge">
<title>3&#45;&gt;0</title>
<path fill="none" stroke="black" d="M1380.04,-24.57C1430.04,-36.56 1535.7,-70.16 1575.12,-146 1604.23,-202.02 1584.85,-244.43 1534.12,-282 1497.47,-309.14 1165.66,-281.21 1124.12,-300 1119.36,-302.15 1114.92,-305.24 1110.89,-308.74"/>
<polygon fill="black" stroke="black" points="1108.45,-306.23 1103.84,-315.77 1113.39,-311.19 1108.45,-306.23"/>
<text text-anchor="start" x="1587.12" y="-154" font-family="Courier New" font-weight="bold" font-size="10.00" fill="blue">VIDEO(0,IDS_EXPLODE1)</text>
</g>
<!-- 3&#45;&gt;0 -->
<g id="edge22" class="edge">
<title>3&#45;&gt;0</title>
<path fill="none" stroke="black" d="M1380.1,-18.88C1475.5,-19.58 1787.69,-31.99 1721.12,-166 1683.15,-242.42 1648.43,-253.17 1568.12,-282 1475.18,-315.36 1214.16,-259.45 1124.12,-300 1119.36,-302.14 1114.92,-305.23 1110.89,-308.73"/>
<polygon fill="black" stroke="black" points="1108.44,-306.22 1103.83,-315.76 1113.39,-311.17 1108.44,-306.22"/>
<text text-anchor="start" x="1731.12" y="-154" font-family="Courier New" font-weight="bold" font-size="10.00" fill="blue">VIDEO(0,IDS_EXPLODE1)</text>
</g>
<!-- 3&#45;&gt;0 -->
<g id="edge23" class="edge">
<title>3&#45;&gt;0</title>
<path fill="none" stroke="black" d="M1379.75,-18.48C1437.2,-18.07 1576.52,-20.91 1687.12,-54 2021.53,-154.06 1922.97,-72.92 1865.12,-166 1803.63,-264.92 1743.06,-253.52 1630.12,-282 1575.57,-295.76 1175.47,-277.03 1124.12,-300 1119.36,-302.13 1114.91,-305.21 1110.88,-308.7"/>
<polygon fill="black" stroke="black" points="1108.44,-306.19 1103.82,-315.73 1113.38,-311.15 1108.44,-306.19"/>
<text text-anchor="start" x="1882.12" y="-154" font-family="Courier New" font-weight="bold" font-size="10.00" fill="blue">VIDEO(0,IDS_EXPLODE1)</text>
</g>
<!-- 3&#45;&gt;0 -->
<g id="edge24" class="edge">
<title>3&#45;&gt;0</title>
<path fill="none" stroke="black" d="M1380.04,-19.98C1513.09,-25.38 2091.06,-55.31 2016.12,-166 1938.29,-280.95 1862.02,-253.71 1726.12,-282 1660.6,-295.64 1185.28,-272.84 1124.12,-300 1119.35,-302.12 1114.9,-305.19 1110.86,-308.68"/>
<polygon fill="black" stroke="black" points="1108.43,-306.17 1103.81,-315.71 1113.37,-311.13 1108.43,-306.17"/>
<text text-anchor="start" x="2026.12" y="-154" font-family="Courier New" font-weight="bold" font-size="10.00" fill="blue">VIDEO(0,IDS_EXPLODE1)</text>
</g>
<!-- status -->
<g id="node7" class="node">
<title>status</title>
<polygon fill="none" stroke="black" points="1133.12,-300.5 1133.12,-376.5 1407.12,-376.5 1407.12,-300.5 1133.12,-300.5"/>
<polygon fill="none" stroke="black" points="1144.12,-351.5 1144.12,-369.5 1396.12,-369.5 1396.12,-351.5 1144.12,-351.5"/>
<text text-anchor="start" x="1231.11" y="-358.5" font-family="Courier New" font-weight="bold" font-size="10.00">S17_aLOCKBURN</text>
<polygon fill="none" stroke="black" points="1144.12,-307.5 1144.12,-349.5 1396.12,-349.5 1396.12,-307.5 1144.12,-307.5"/>
<text text-anchor="start" x="1147.12" y="-337.5" font-family="Courier New" font-size="10.00" fill="green">VIEW::IDV_aMINEPAN @pos(left:128, top:20)</text>
<text text-anchor="start" x="1147.12" y="-325.5" font-family="Courier New" font-size="10.00" fill="green">S17_aLOCKBURN::M17_LOCKBURN(&#39;&#39;,&#39;&#39;,&#39;&#39;,&#39;&#39;)</text>
<text text-anchor="start" x="1147.12" y="-313.5" font-family="Courier New" font-size="10.00" fill="green">{&#39;0&#39;:</text>
<polygon fill="none" stroke="black" points="1141.12,-304.5 1141.12,-372.5 1399.12,-372.5 1399.12,-304.5 1141.12,-304.5"/>
</g>
</g>
</svg>
