<?xml version="1.0" encoding="UTF-8" standalone="no"?>
<!DOCTYPE svg PUBLIC "-//W3C//DTD SVG 1.1//EN"
 "http://www.w3.org/Graphics/SVG/1.1/DTD/svg11.dtd">
<!-- Generated by graphviz version 7.1.0 (20230121.1956)
 -->
<!-- Title: Automaton Pages: 1 -->
<svg width="682pt" height="645pt"
 viewBox="0.00 0.00 682.00 645.00" xmlns="http://www.w3.org/2000/svg" xmlns:xlink="http://www.w3.org/1999/xlink">
<g id="graph0" class="graph" transform="scale(1 1) rotate(0) translate(4 641)">
<title>Automaton</title>
<polygon fill="white" stroke="none" points="-4,4 -4,-641 678,-641 678,4 -4,4"/>
<!-- filename -->
<g id="node1" class="node">
<title>filename</title>
<polygon fill="none" stroke="black" points="0,-572.5 0,-624.5 178,-624.5 178,-572.5 0,-572.5"/>
<polygon fill="none" stroke="black" points="11,-599.5 11,-617.5 167,-617.5 167,-599.5 11,-599.5"/>
<text text-anchor="start" x="14" y="-606.5" font-family="Courier New" font-weight="bold" font-size="10.00">S17_cCLOCKBIN::M_PLANTBIN</text>
<polygon fill="none" stroke="black" points="11,-579.5 11,-597.5 167,-597.5 167,-579.5 11,-579.5"/>
<text text-anchor="start" x="43.99" y="-585.5" font-family="Courier New" font-size="10.00" fill="brown">start state = 0</text>
<polygon fill="none" stroke="black" points="8,-576.5 8,-620.5 170,-620.5 170,-576.5 8,-576.5"/>
</g>
<!-- 0 -->
<g id="node2" class="node">
<title>0</title>
<polyline fill="none" stroke="darkred" points="216,-587.5 230,-587.5"/>
<text text-anchor="start" x="219" y="-594.9" font-family="Courier New" font-weight="bold" font-size="14.00">0</text>
<path fill="none" stroke="darkred" d="M219.67,-584.5C219.67,-584.5 226.33,-584.5 226.33,-584.5 229.67,-584.5 233,-587.83 233,-591.17 233,-591.17 233,-605.83 233,-605.83 233,-609.17 229.67,-612.5 226.33,-612.5 226.33,-612.5 219.67,-612.5 219.67,-612.5 216.33,-612.5 213,-609.17 213,-605.83 213,-605.83 213,-591.17 213,-591.17 213,-587.83 216.33,-584.5 219.67,-584.5"/>
</g>
<!-- 1 -->
<g id="node3" class="node">
<title>1</title>
<polyline fill="none" stroke="darkred" points="216,-475 230,-475"/>
<text text-anchor="start" x="219" y="-482.4" font-family="Courier New" font-weight="bold" font-size="14.00">1</text>
<path fill="none" stroke="darkred" d="M219.67,-472C219.67,-472 226.33,-472 226.33,-472 229.67,-472 233,-475.33 233,-478.67 233,-478.67 233,-493.33 233,-493.33 233,-496.67 229.67,-500 226.33,-500 226.33,-500 219.67,-500 219.67,-500 216.33,-500 213,-496.67 213,-493.33 213,-493.33 213,-478.67 213,-478.67 213,-475.33 216.33,-472 219.67,-472"/>
</g>
<!-- 0&#45;&gt;1 -->
<g id="edge1" class="edge">
<title>0&#45;&gt;1</title>
<path fill="none" stroke="black" d="M223,-580.72C223,-563.36 223,-535.93 223,-515.23"/>
<polygon fill="black" stroke="black" points="226.5,-515.45 223,-505.45 219.5,-515.45 226.5,-515.45"/>
<text text-anchor="start" x="227" y="-530" font-family="Courier New" font-weight="bold" font-size="10.00" fill="blue">MOV(WSPRITE,WIP2)</text>
</g>
<!-- 5 -->
<g id="node4" class="node">
<title>5</title>
<polyline fill="none" stroke="darkred" stroke-width="3" points="215.5,-378.5 230.5,-378.5"/>
<text text-anchor="start" x="219" y="-386.4" font-family="Courier New" font-weight="bold" font-size="14.00">5</text>
<path fill="none" stroke="darkred" stroke-width="3" d="M218.83,-373.5C218.83,-373.5 227.17,-373.5 227.17,-373.5 231.33,-373.5 235.5,-377.67 235.5,-381.83 235.5,-381.83 235.5,-398.17 235.5,-398.17 235.5,-402.33 231.33,-406.5 227.17,-406.5 227.17,-406.5 218.83,-406.5 218.83,-406.5 214.67,-406.5 210.5,-402.33 210.5,-398.17 210.5,-398.17 210.5,-381.83 210.5,-381.83 210.5,-377.67 214.67,-373.5 218.83,-373.5"/>
</g>
<!-- 1&#45;&gt;5 -->
<g id="edge2" class="edge">
<title>1&#45;&gt;5</title>
<path fill="none" stroke="black" d="M223,-468.19C223,-455.78 223,-438.48 223,-423.41"/>
<polygon fill="black" stroke="black" points="226.5,-423.45 223,-413.45 219.5,-423.45 226.5,-423.45"/>
<text text-anchor="start" x="227" y="-438" font-family="Courier New" font-weight="bold" font-size="10.00" fill="blue">SHOW(WSPRITE,)</text>
</g>
<!-- 10 -->
<g id="node5" class="node">
<title>10</title>
<polyline fill="none" stroke="darkred" points="161,-283 183,-283"/>
<text text-anchor="start" x="164" y="-290.4" font-family="Courier New" font-weight="bold" font-size="14.00">10</text>
<path fill="none" stroke="darkred" d="M167.33,-280C167.33,-280 176.67,-280 176.67,-280 181.33,-280 186,-284.67 186,-289.33 186,-289.33 186,-298.67 186,-298.67 186,-303.33 181.33,-308 176.67,-308 176.67,-308 167.33,-308 167.33,-308 162.67,-308 158,-303.33 158,-298.67 158,-298.67 158,-289.33 158,-289.33 158,-284.67 162.67,-280 167.33,-280"/>
</g>
<!-- 5&#45;&gt;10 -->
<g id="edge7" class="edge">
<title>5&#45;&gt;10</title>
<path fill="none" stroke="black" d="M199.7,-368.32C194.57,-362.8 189.61,-356.54 186,-350 181.43,-341.72 178.32,-331.92 176.22,-322.91"/>
<polygon fill="black" stroke="black" points="179.67,-322.31 174.29,-313.18 172.8,-323.67 179.67,-322.31"/>
<text text-anchor="start" x="190" y="-338" font-family="Courier New" font-weight="bold" font-size="10.00" fill="orange">GRAB(WIP1,)</text>
</g>
<!-- 20 -->
<g id="node6" class="node">
<title>20</title>
<polyline fill="none" stroke="darkred" points="157,-191 179,-191"/>
<text text-anchor="start" x="160" y="-198.4" font-family="Courier New" font-weight="bold" font-size="14.00">20</text>
<path fill="none" stroke="darkred" d="M163.33,-188C163.33,-188 172.67,-188 172.67,-188 177.33,-188 182,-192.67 182,-197.33 182,-197.33 182,-206.67 182,-206.67 182,-211.33 177.33,-216 172.67,-216 172.67,-216 163.33,-216 163.33,-216 158.67,-216 154,-211.33 154,-206.67 154,-206.67 154,-197.33 154,-197.33 154,-192.67 158.67,-188 163.33,-188"/>
</g>
<!-- 10&#45;&gt;20 -->
<g id="edge3" class="edge">
<title>10&#45;&gt;20</title>
<path fill="none" stroke="black" d="M171.25,-276.07C170.68,-263.38 169.9,-245.71 169.24,-230.94"/>
<polygon fill="black" stroke="black" points="172.76,-231.2 168.82,-221.36 165.76,-231.51 172.76,-231.2"/>
<text text-anchor="start" x="174" y="-246" font-family="Courier New" font-weight="bold" font-size="10.00" fill="blue">SHOW(0,0)</text>
</g>
<!-- 30 -->
<g id="node7" class="node">
<title>30</title>
<polyline fill="none" stroke="darkred" points="150,-99 172,-99"/>
<text text-anchor="start" x="153" y="-106.4" font-family="Courier New" font-weight="bold" font-size="14.00">30</text>
<path fill="none" stroke="darkred" d="M156.33,-96C156.33,-96 165.67,-96 165.67,-96 170.33,-96 175,-100.67 175,-105.33 175,-105.33 175,-114.67 175,-114.67 175,-119.33 170.33,-124 165.67,-124 165.67,-124 156.33,-124 156.33,-124 151.67,-124 147,-119.33 147,-114.67 147,-114.67 147,-105.33 147,-105.33 147,-100.67 151.67,-96 156.33,-96"/>
</g>
<!-- 20&#45;&gt;30 -->
<g id="edge4" class="edge">
<title>20&#45;&gt;30</title>
<path fill="none" stroke="black" d="M166.68,-184.07C165.7,-171.38 164.32,-153.71 163.17,-138.94"/>
<polygon fill="black" stroke="black" points="166.69,-139.06 162.43,-129.36 159.71,-139.6 166.69,-139.06"/>
<text text-anchor="start" x="169" y="-154" font-family="Courier New" font-weight="bold" font-size="10.00" fill="blue">ESTIME(WIP3,)</text>
</g>
<!-- 40 -->
<g id="node8" class="node">
<title>40</title>
<polyline fill="none" stroke="darkred" points="200,-7 222,-7"/>
<text text-anchor="start" x="203" y="-14.4" font-family="Courier New" font-weight="bold" font-size="14.00">40</text>
<path fill="none" stroke="darkred" d="M206.33,-4C206.33,-4 215.67,-4 215.67,-4 220.33,-4 225,-8.67 225,-13.33 225,-13.33 225,-22.67 225,-22.67 225,-27.33 220.33,-32 215.67,-32 215.67,-32 206.33,-32 206.33,-32 201.67,-32 197,-27.33 197,-22.67 197,-22.67 197,-13.33 197,-13.33 197,-8.67 201.67,-4 206.33,-4"/>
</g>
<!-- 30&#45;&gt;40 -->
<g id="edge5" class="edge">
<title>30&#45;&gt;40</title>
<path fill="none" stroke="black" d="M151.85,-92.13C146.99,-80.7 143.27,-65.63 150,-54 155.44,-44.61 164.45,-37.52 173.9,-32.27"/>
<polygon fill="black" stroke="black" points="175.36,-35.45 182.82,-27.93 172.29,-29.16 175.36,-35.45"/>
<text text-anchor="start" x="154" y="-62" font-family="Courier New" font-weight="bold" font-size="10.00" fill="blue">MOV(WSPRITE,WIP2)</text>
</g>
<!-- 40&#45;&gt;5 -->
<g id="edge6" class="edge">
<title>40&#45;&gt;5</title>
<path fill="none" stroke="black" d="M237.86,-33.22C246.03,-38.72 254.33,-45.72 260,-54 274.24,-74.82 274,-83.78 274,-109 274,-295 274,-295 274,-295 274,-320.22 272.19,-327.91 260,-350 258.2,-353.27 256.05,-356.47 253.72,-359.54"/>
<polygon fill="black" stroke="black" points="251.06,-357.26 247.28,-367.16 256.41,-361.78 251.06,-357.26"/>
<text text-anchor="start" x="278" y="-200" font-family="Courier New" font-weight="bold" font-size="10.00" fill="blue">SHOW(WSPRITE,)</text>
</g>
<!-- status -->
<g id="node9" class="node">
<title>status</title>
<polygon fill="none" stroke="black" points="268,-560.5 268,-636.5 674,-636.5 674,-560.5 268,-560.5"/>
<polygon fill="none" stroke="black" points="279,-611.5 279,-629.5 663,-629.5 663,-611.5 279,-611.5"/>
<text text-anchor="start" x="431.99" y="-618.5" font-family="Courier New" font-weight="bold" font-size="10.00">S17_cCLOCKBIN</text>
<polygon fill="none" stroke="black" points="279,-567.5 279,-609.5 663,-609.5 663,-567.5 279,-567.5"/>
<text text-anchor="start" x="282" y="-597.5" font-family="Courier New" font-size="10.00" fill="green">VIEW::IDV_QUARSB @pos(left:2671, top:213)</text>
<text text-anchor="start" x="282" y="-585.5" font-family="Courier New" font-size="10.00" fill="green">S17_cCLOCKBIN::M_PLANTBIN(&#39;IDD_VILLOCK&#39;,&#39;IDS_VLOCKBIN&#39;,&#39;60&#39;,&#39;&#39;)</text>
<text text-anchor="start" x="282" y="-573.5" font-family="Courier New" font-size="10.00" fill="green">{state:&#39;5&#39;: wSprite:IDS_VLOCKBIN</text>
<polygon fill="none" stroke="black" points="276,-564.5 276,-632.5 666,-632.5 666,-564.5 276,-564.5"/>
</g>
</g>
</svg>
