<?xml version="1.0" encoding="UTF-8" standalone="no"?>
<!DOCTYPE svg PUBLIC "-//W3C//DTD SVG 1.1//EN"
 "http://www.w3.org/Graphics/SVG/1.1/DTD/svg11.dtd">
<!-- Generated by graphviz version 7.1.0 (20230121.1956)
 -->
<!-- Title: Automaton Pages: 1 -->
<svg width="628pt" height="361pt"
 viewBox="0.00 0.00 628.00 361.00" xmlns="http://www.w3.org/2000/svg" xmlns:xlink="http://www.w3.org/1999/xlink">
<g id="graph0" class="graph" transform="scale(1 1) rotate(0) translate(4 357)">
<title>Automaton</title>
<polygon fill="white" stroke="none" points="-4,4 -4,-357 624,-357 624,4 -4,4"/>
<!-- filename -->
<g id="node1" class="node">
<title>filename</title>
<polygon fill="none" stroke="black" points="0,-288.5 0,-340.5 184,-340.5 184,-288.5 0,-288.5"/>
<polygon fill="none" stroke="black" points="11,-315.5 11,-333.5 173,-333.5 173,-315.5 11,-315.5"/>
<text text-anchor="start" x="14" y="-322.5" font-family="Courier New" font-weight="bold" font-size="10.00">S17_ALT_d_B::M_STATESCALEV</text>
<polygon fill="none" stroke="black" points="11,-295.5 11,-313.5 173,-313.5 173,-295.5 11,-295.5"/>
<text text-anchor="start" x="46.99" y="-301.5" font-family="Courier New" font-size="10.00" fill="brown">start state = 0</text>
<polygon fill="none" stroke="black" points="8,-292.5 8,-336.5 176,-336.5 176,-292.5 8,-292.5"/>
</g>
<!-- 0 -->
<g id="node2" class="node">
<title>0</title>
<polyline fill="none" stroke="darkred" stroke-width="3" points="221.5,-303 236.5,-303"/>
<text text-anchor="start" x="225" y="-310.9" font-family="Courier New" font-weight="bold" font-size="14.00">0</text>
<path fill="none" stroke="darkred" stroke-width="3" d="M224.83,-298C224.83,-298 233.17,-298 233.17,-298 237.33,-298 241.5,-302.17 241.5,-306.33 241.5,-306.33 241.5,-322.67 241.5,-322.67 241.5,-326.83 237.33,-331 233.17,-331 233.17,-331 224.83,-331 224.83,-331 220.67,-331 216.5,-326.83 216.5,-322.67 216.5,-322.67 216.5,-306.33 216.5,-306.33 216.5,-302.17 220.67,-298 224.83,-298"/>
</g>
<!-- 5 -->
<g id="node3" class="node">
<title>5</title>
<polyline fill="none" stroke="darkred" points="162,-191 176,-191"/>
<text text-anchor="start" x="165" y="-198.4" font-family="Courier New" font-weight="bold" font-size="14.00">5</text>
<path fill="none" stroke="darkred" d="M165.67,-188C165.67,-188 172.33,-188 172.33,-188 175.67,-188 179,-191.33 179,-194.67 179,-194.67 179,-209.33 179,-209.33 179,-212.67 175.67,-216 172.33,-216 172.33,-216 165.67,-216 165.67,-216 162.33,-216 159,-212.67 159,-209.33 159,-209.33 159,-194.67 159,-194.67 159,-191.33 162.33,-188 165.67,-188"/>
</g>
<!-- 0&#45;&gt;5 -->
<g id="edge1" class="edge">
<title>0&#45;&gt;5</title>
<path fill="none" stroke="black" d="M210.08,-292.74C204.71,-287.14 198.76,-281.2 193,-276 183.37,-267.3 175.79,-269.62 170,-258 165.91,-249.8 164.75,-240.02 164.89,-231"/>
<polygon fill="black" stroke="black" points="168.36,-231.5 165.59,-221.28 161.38,-231 168.36,-231.5"/>
<text text-anchor="start" x="174" y="-246" font-family="Courier New" font-weight="bold" font-size="10.00" fill="orange">WAIT(0,SIG_SHOW)</text>
</g>
<!-- 10 -->
<g id="node4" class="node">
<title>10</title>
<polyline fill="none" stroke="darkred" points="158,-99 180,-99"/>
<text text-anchor="start" x="161" y="-106.4" font-family="Courier New" font-weight="bold" font-size="14.00">10</text>
<path fill="none" stroke="darkred" d="M164.33,-96C164.33,-96 173.67,-96 173.67,-96 178.33,-96 183,-100.67 183,-105.33 183,-105.33 183,-114.67 183,-114.67 183,-119.33 178.33,-124 173.67,-124 173.67,-124 164.33,-124 164.33,-124 159.67,-124 155,-119.33 155,-114.67 155,-114.67 155,-105.33 155,-105.33 155,-100.67 159.67,-96 164.33,-96"/>
</g>
<!-- 5&#45;&gt;10 -->
<g id="edge4" class="edge">
<title>5&#45;&gt;10</title>
<path fill="none" stroke="black" d="M169,-184.07C169,-171.38 169,-153.71 169,-138.94"/>
<polygon fill="black" stroke="black" points="172.5,-139.37 169,-129.37 165.5,-139.37 172.5,-139.37"/>
<text text-anchor="start" x="173" y="-154" font-family="Courier New" font-weight="bold" font-size="10.00" fill="blue">ASHOW(WIP1,0)</text>
</g>
<!-- 11 -->
<g id="node5" class="node">
<title>11</title>
<polyline fill="none" stroke="darkred" points="217,-7 239,-7"/>
<text text-anchor="start" x="220" y="-14.4" font-family="Courier New" font-weight="bold" font-size="14.00">11</text>
<path fill="none" stroke="darkred" d="M223.33,-4C223.33,-4 232.67,-4 232.67,-4 237.33,-4 242,-8.67 242,-13.33 242,-13.33 242,-22.67 242,-22.67 242,-27.33 237.33,-32 232.67,-32 232.67,-32 223.33,-32 223.33,-32 218.67,-32 214,-27.33 214,-22.67 214,-22.67 214,-13.33 214,-13.33 214,-8.67 218.67,-4 223.33,-4"/>
</g>
<!-- 10&#45;&gt;11 -->
<g id="edge2" class="edge">
<title>10&#45;&gt;11</title>
<path fill="none" stroke="black" d="M165.32,-92.49C163.65,-80.95 163.32,-65.58 170,-54 174.9,-45.51 182.76,-38.83 191.13,-33.69"/>
<polygon fill="black" stroke="black" points="192.57,-36.89 199.72,-29.07 189.25,-30.73 192.57,-36.89"/>
<text text-anchor="start" x="174" y="-62" font-family="Courier New" font-weight="bold" font-size="10.00" fill="orange">WAIT(0,SIG_HIDE)</text>
</g>
<!-- 11&#45;&gt;0 -->
<g id="edge3" class="edge">
<title>11&#45;&gt;0</title>
<path fill="none" stroke="black" d="M254.92,-33.16C262.5,-38.58 269.81,-45.55 274,-54 314.27,-135.23 304.29,-172.54 274,-258 270.69,-267.33 265.08,-276.23 258.91,-284.07"/>
<polygon fill="black" stroke="black" points="256.33,-281.71 252.51,-291.59 261.66,-286.25 256.33,-281.71"/>
<text text-anchor="start" x="304" y="-154" font-family="Courier New" font-weight="bold" font-size="10.00" fill="blue">ASHOW(0,0)</text>
</g>
<!-- status -->
<g id="node6" class="node">
<title>status</title>
<polygon fill="none" stroke="black" points="274,-276.5 274,-352.5 620,-352.5 620,-276.5 274,-276.5"/>
<polygon fill="none" stroke="black" points="285,-327.5 285,-345.5 609,-345.5 609,-327.5 285,-327.5"/>
<text text-anchor="start" x="413.99" y="-334.5" font-family="Courier New" font-weight="bold" font-size="10.00">S17_ALT_d_B</text>
<polygon fill="none" stroke="black" points="285,-283.5 285,-325.5 609,-325.5 609,-283.5 285,-283.5"/>
<text text-anchor="start" x="288" y="-313.5" font-family="Courier New" font-size="10.00" fill="green">VIEW::IDV_QUARSB @pos(left:2229, top:182)</text>
<text text-anchor="start" x="288" y="-301.5" font-family="Courier New" font-size="10.00" fill="green">S17_ALT_d_B::M_STATESCALEV(&#39;IDS_QUARLOCK_B&#39;,&#39;&#39;,&#39;&#39;,&#39;&#39;)</text>
<text text-anchor="start" x="288" y="-289.5" font-family="Courier New" font-size="10.00" fill="green">{state:&#39;0&#39;:</text>
<polygon fill="none" stroke="black" points="282,-280.5 282,-348.5 612,-348.5 612,-280.5 282,-280.5"/>
</g>
</g>
</svg>
