<?xml version="1.0" encoding="UTF-8" standalone="no"?>
<!DOCTYPE svg PUBLIC "-//W3C//DTD SVG 1.1//EN"
 "http://www.w3.org/Graphics/SVG/1.1/DTD/svg11.dtd">
<!-- Generated by graphviz version 7.1.0 (20230121.1956)
 -->
<!-- Title: Automaton Pages: 1 -->
<svg width="628pt" height="369pt"
 viewBox="0.00 0.00 628.00 369.00" xmlns="http://www.w3.org/2000/svg" xmlns:xlink="http://www.w3.org/1999/xlink">
<g id="graph0" class="graph" transform="scale(1 1) rotate(0) translate(4 365)">
<title>Automaton</title>
<polygon fill="white" stroke="none" points="-4,4 -4,-365 624,-365 624,4 -4,4"/>
<!-- filename -->
<g id="node1" class="node">
<title>filename</title>
<polygon fill="none" stroke="black" points="0,-296.5 0,-348.5 184,-348.5 184,-296.5 0,-296.5"/>
<polygon fill="none" stroke="black" points="11,-323.5 11,-341.5 173,-341.5 173,-323.5 11,-323.5"/>
<text text-anchor="start" x="14" y="-330.5" font-family="Courier New" font-weight="bold" font-size="10.00">S17_ALT_a_B::M_STATESCALEV</text>
<polygon fill="none" stroke="black" points="11,-303.5 11,-321.5 173,-321.5 173,-303.5 11,-303.5"/>
<text text-anchor="start" x="46.99" y="-309.5" font-family="Courier New" font-size="10.00" fill="brown">start state = 0</text>
<polygon fill="none" stroke="black" points="8,-300.5 8,-344.5 176,-344.5 176,-300.5 8,-300.5"/>
</g>
<!-- 0 -->
<g id="node2" class="node">
<title>0</title>
<polyline fill="none" stroke="darkred" points="222,-311.5 236,-311.5"/>
<text text-anchor="start" x="225" y="-318.9" font-family="Courier New" font-weight="bold" font-size="14.00">0</text>
<path fill="none" stroke="darkred" d="M225.67,-308.5C225.67,-308.5 232.33,-308.5 232.33,-308.5 235.67,-308.5 239,-311.83 239,-315.17 239,-315.17 239,-329.83 239,-329.83 239,-333.17 235.67,-336.5 232.33,-336.5 232.33,-336.5 225.67,-336.5 225.67,-336.5 222.33,-336.5 219,-333.17 219,-329.83 219,-329.83 219,-315.17 219,-315.17 219,-311.83 222.33,-308.5 225.67,-308.5"/>
</g>
<!-- 5 -->
<g id="node3" class="node">
<title>5</title>
<polyline fill="none" stroke="darkred" points="158,-199 172,-199"/>
<text text-anchor="start" x="161" y="-206.4" font-family="Courier New" font-weight="bold" font-size="14.00">5</text>
<path fill="none" stroke="darkred" d="M161.67,-196C161.67,-196 168.33,-196 168.33,-196 171.67,-196 175,-199.33 175,-202.67 175,-202.67 175,-217.33 175,-217.33 175,-220.67 171.67,-224 168.33,-224 168.33,-224 161.67,-224 161.67,-224 158.33,-224 155,-220.67 155,-217.33 155,-217.33 155,-202.67 155,-202.67 155,-199.33 158.33,-196 161.67,-196"/>
</g>
<!-- 0&#45;&gt;5 -->
<g id="edge1" class="edge">
<title>0&#45;&gt;5</title>
<path fill="none" stroke="black" d="M213.57,-304.73C207.32,-298.13 199.95,-290.57 193,-284 184.07,-275.56 177.83,-276.82 172,-266 167.62,-257.87 165.54,-248.11 164.65,-239.08"/>
<polygon fill="black" stroke="black" points="168.16,-239.15 164.15,-229.34 161.17,-239.51 168.16,-239.15"/>
<text text-anchor="start" x="176" y="-254" font-family="Courier New" font-weight="bold" font-size="10.00" fill="orange">WAIT(0,SIG_SHOW)</text>
</g>
<!-- 10 -->
<g id="node4" class="node">
<title>10</title>
<polyline fill="none" stroke="darkred" stroke-width="3" points="153.5,-102.5 176.5,-102.5"/>
<text text-anchor="start" x="157" y="-110.4" font-family="Courier New" font-weight="bold" font-size="14.00">10</text>
<path fill="none" stroke="darkred" stroke-width="3" d="M159.5,-97.5C159.5,-97.5 170.5,-97.5 170.5,-97.5 176,-97.5 181.5,-103 181.5,-108.5 181.5,-108.5 181.5,-119.5 181.5,-119.5 181.5,-125 176,-130.5 170.5,-130.5 170.5,-130.5 159.5,-130.5 159.5,-130.5 154,-130.5 148.5,-125 148.5,-119.5 148.5,-119.5 148.5,-108.5 148.5,-108.5 148.5,-103 154,-97.5 159.5,-97.5"/>
</g>
<!-- 5&#45;&gt;10 -->
<g id="edge4" class="edge">
<title>5&#45;&gt;10</title>
<path fill="none" stroke="black" d="M164.42,-192.27C164.25,-186.48 164.09,-179.96 164,-174 163.88,-165.27 163.94,-155.81 164.09,-147.07"/>
<polygon fill="black" stroke="black" points="167.59,-147.34 164.3,-137.26 160.59,-147.19 167.59,-147.34"/>
<text text-anchor="start" x="168" y="-162" font-family="Courier New" font-weight="bold" font-size="10.00" fill="blue">ASHOW(WSPRITE,0)</text>
</g>
<!-- 11 -->
<g id="node5" class="node">
<title>11</title>
<polyline fill="none" stroke="darkred" points="217,-7 239,-7"/>
<text text-anchor="start" x="220" y="-14.4" font-family="Courier New" font-weight="bold" font-size="14.00">11</text>
<path fill="none" stroke="darkred" d="M223.33,-4C223.33,-4 232.67,-4 232.67,-4 237.33,-4 242,-8.67 242,-13.33 242,-13.33 242,-22.67 242,-22.67 242,-27.33 237.33,-32 232.67,-32 232.67,-32 223.33,-32 223.33,-32 218.67,-32 214,-27.33 214,-22.67 214,-22.67 214,-13.33 214,-13.33 214,-8.67 218.67,-4 223.33,-4"/>
</g>
<!-- 10&#45;&gt;11 -->
<g id="edge2" class="edge">
<title>10&#45;&gt;11</title>
<path fill="none" stroke="black" d="M163.2,-92.14C163.15,-80.13 164.87,-65.24 172,-54 176.74,-46.53 183.71,-40.38 191.14,-35.44"/>
<polygon fill="black" stroke="black" points="192.87,-38.48 199.71,-30.39 189.32,-32.45 192.87,-38.48"/>
<text text-anchor="start" x="176" y="-62" font-family="Courier New" font-weight="bold" font-size="10.00" fill="orange">WAIT(0,SIG_HIDE)</text>
</g>
<!-- 11&#45;&gt;0 -->
<g id="edge3" class="edge">
<title>11&#45;&gt;0</title>
<path fill="none" stroke="black" d="M254.8,-32.08C263.15,-37.6 271.37,-44.9 276,-54 318.7,-137.99 308.43,-177.53 276,-266 273.45,-272.94 263.4,-285.15 253.24,-296.36"/>
<polygon fill="black" stroke="black" points="250.83,-293.8 246.6,-303.51 255.97,-298.56 250.83,-293.8"/>
<text text-anchor="start" x="308" y="-162" font-family="Courier New" font-weight="bold" font-size="10.00" fill="blue">ASHOW(0,0)</text>
</g>
<!-- status -->
<g id="node6" class="node">
<title>status</title>
<polygon fill="none" stroke="black" points="274,-284.5 274,-360.5 620,-360.5 620,-284.5 274,-284.5"/>
<polygon fill="none" stroke="black" points="285,-335.5 285,-353.5 609,-353.5 609,-335.5 285,-335.5"/>
<text text-anchor="start" x="413.99" y="-342.5" font-family="Courier New" font-weight="bold" font-size="10.00">S17_ALT_a_B</text>
<polygon fill="none" stroke="black" points="285,-291.5 285,-333.5 609,-333.5 609,-291.5 285,-291.5"/>
<text text-anchor="start" x="288" y="-321.5" font-family="Courier New" font-size="10.00" fill="green">VIEW::IDV_QUARSB @pos(left:3147, top:161)</text>
<text text-anchor="start" x="288" y="-309.5" font-family="Courier New" font-size="10.00" fill="green">S17_ALT_a_B::M_STATESCALEV(&#39;IDS_QUARLOCK_B&#39;,&#39;&#39;,&#39;&#39;,&#39;&#39;)</text>
<text text-anchor="start" x="288" y="-297.5" font-family="Courier New" font-size="10.00" fill="green">{&#39;10&#39;:</text>
<polygon fill="none" stroke="black" points="282,-288.5 282,-356.5 612,-356.5 612,-288.5 282,-288.5"/>
</g>
</g>
</svg>
