<?xml version="1.0" encoding="UTF-8" standalone="no"?>
<!DOCTYPE svg PUBLIC "-//W3C//DTD SVG 1.1//EN"
 "http://www.w3.org/Graphics/SVG/1.1/DTD/svg11.dtd">
<!-- Generated by graphviz version 7.1.0 (20230121.1956)
 -->
<!-- Title: Automaton Pages: 1 -->
<svg width="628pt" height="361pt"
 viewBox="0.00 0.00 628.00 361.00" xmlns="http://www.w3.org/2000/svg" xmlns:xlink="http://www.w3.org/1999/xlink">
<g id="graph0" class="graph" transform="scale(1 1) rotate(0) translate(4 357)">
<title>Automaton</title>
<polygon fill="white" stroke="none" points="-4,4 -4,-357 624,-357 624,4 -4,4"/>
<!-- filename -->
<g id="node1" class="node">
<title>filename</title>
<polygon fill="none" stroke="black" points="0,-288.5 0,-340.5 190,-340.5 190,-288.5 0,-288.5"/>
<polygon fill="none" stroke="black" points="11,-315.5 11,-333.5 179,-333.5 179,-315.5 11,-315.5"/>
<text text-anchor="start" x="14" y="-322.5" font-family="Courier New" font-weight="bold" font-size="10.00">S17_bFOULWIND::M17_FOULWIND</text>
<polygon fill="none" stroke="black" points="11,-295.5 11,-313.5 179,-313.5 179,-295.5 11,-295.5"/>
<text text-anchor="start" x="49.99" y="-301.5" font-family="Courier New" font-size="10.00" fill="brown">start state = 0</text>
<polygon fill="none" stroke="black" points="8,-292.5 8,-336.5 182,-336.5 182,-292.5 8,-292.5"/>
</g>
<!-- 0 -->
<g id="node2" class="node">
<title>0</title>
<polyline fill="none" stroke="darkred" stroke-width="3" points="227.5,-303 242.5,-303"/>
<text text-anchor="start" x="231" y="-310.9" font-family="Courier New" font-weight="bold" font-size="14.00">0</text>
<path fill="none" stroke="darkred" stroke-width="3" d="M230.83,-298C230.83,-298 239.17,-298 239.17,-298 243.33,-298 247.5,-302.17 247.5,-306.33 247.5,-306.33 247.5,-322.67 247.5,-322.67 247.5,-326.83 243.33,-331 239.17,-331 239.17,-331 230.83,-331 230.83,-331 226.67,-331 222.5,-326.83 222.5,-322.67 222.5,-322.67 222.5,-306.33 222.5,-306.33 222.5,-302.17 226.67,-298 230.83,-298"/>
</g>
<!-- 1 -->
<g id="node3" class="node">
<title>1</title>
<polyline fill="none" stroke="darkred" points="77,-191 91,-191"/>
<text text-anchor="start" x="80" y="-198.4" font-family="Courier New" font-weight="bold" font-size="14.00">1</text>
<path fill="none" stroke="darkred" d="M80.67,-188C80.67,-188 87.33,-188 87.33,-188 90.67,-188 94,-191.33 94,-194.67 94,-194.67 94,-209.33 94,-209.33 94,-212.67 90.67,-216 87.33,-216 87.33,-216 80.67,-216 80.67,-216 77.33,-216 74,-212.67 74,-209.33 74,-209.33 74,-194.67 74,-194.67 74,-191.33 77.33,-188 80.67,-188"/>
</g>
<!-- 0&#45;&gt;1 -->
<g id="edge1" class="edge">
<title>0&#45;&gt;1</title>
<path fill="none" stroke="black" d="M217.59,-292.55C212.06,-286.71 205.64,-280.68 199,-276 183.07,-264.76 175.84,-267.82 159,-258 143.25,-248.82 126.8,-237.03 113.33,-226.73"/>
<polygon fill="black" stroke="black" points="115.76,-224.19 105.72,-220.81 111.47,-229.71 115.76,-224.19"/>
<text text-anchor="start" x="163" y="-246" font-family="Courier New" font-weight="bold" font-size="10.00" fill="orange">WAIT(0,0)</text>
</g>
<!-- 2 -->
<g id="node4" class="node">
<title>2</title>
<polyline fill="none" stroke="darkred" points="75,-99 89,-99"/>
<text text-anchor="start" x="78" y="-106.4" font-family="Courier New" font-weight="bold" font-size="14.00">2</text>
<path fill="none" stroke="darkred" d="M78.67,-96C78.67,-96 85.33,-96 85.33,-96 88.67,-96 92,-99.33 92,-102.67 92,-102.67 92,-117.33 92,-117.33 92,-120.67 88.67,-124 85.33,-124 85.33,-124 78.67,-124 78.67,-124 75.33,-124 72,-120.67 72,-117.33 72,-117.33 72,-102.67 72,-102.67 72,-99.33 75.33,-96 78.67,-96"/>
</g>
<!-- 1&#45;&gt;2 -->
<g id="edge2" class="edge">
<title>1&#45;&gt;2</title>
<path fill="none" stroke="black" d="M70.14,-184.2C66.43,-178.73 62.92,-172.41 61,-166 58.45,-157.48 58.63,-154.57 61,-146 61.76,-143.25 62.8,-140.5 64.02,-137.82"/>
<polygon fill="black" stroke="black" points="66.95,-139.75 68.61,-129.29 60.79,-136.43 66.95,-139.75"/>
<text text-anchor="start" x="65" y="-154" font-family="Courier New" font-weight="bold" font-size="10.00" fill="blue">PLAYWAVE(0,SOUND_BURBLE)</text>
</g>
<!-- 4 -->
<g id="node5" class="node">
<title>4</title>
<polyline fill="none" stroke="darkred" points="228,-7 242,-7"/>
<text text-anchor="start" x="231" y="-14.4" font-family="Courier New" font-weight="bold" font-size="14.00">4</text>
<path fill="none" stroke="darkred" d="M231.67,-4C231.67,-4 238.33,-4 238.33,-4 241.67,-4 245,-7.33 245,-10.67 245,-10.67 245,-25.33 245,-25.33 245,-28.67 241.67,-32 238.33,-32 238.33,-32 231.67,-32 231.67,-32 228.33,-32 225,-28.67 225,-25.33 225,-25.33 225,-10.67 225,-10.67 225,-7.33 228.33,-4 231.67,-4"/>
</g>
<!-- 2&#45;&gt;4 -->
<g id="edge3" class="edge">
<title>2&#45;&gt;4</title>
<path fill="none" stroke="black" d="M98.75,-92.17C111.22,-80.32 129.13,-64.72 147,-54 162.69,-44.58 181.38,-36.74 197.48,-30.88"/>
<polygon fill="black" stroke="black" points="198.44,-34.25 206.73,-27.65 196.13,-27.65 198.44,-34.25"/>
<text text-anchor="start" x="151" y="-62" font-family="Courier New" font-weight="bold" font-size="10.00" fill="blue">ESTIME(0,5)</text>
</g>
<!-- 4&#45;&gt;0 -->
<g id="edge4" class="edge">
<title>4&#45;&gt;0</title>
<path fill="none" stroke="black" d="M235,-35.92C235,-83.49 235,-218.96 235,-281.34"/>
<polygon fill="black" stroke="black" points="231.5,-281.28 235,-291.28 238.5,-281.28 231.5,-281.28"/>
<text text-anchor="start" x="239" y="-154" font-family="Courier New" font-weight="bold" font-size="10.00" fill="blue">NEQUALi(LVIEW,WIP1)</text>
</g>
<!-- 4&#45;&gt;0 -->
<g id="edge5" class="edge">
<title>4&#45;&gt;0</title>
<path fill="none" stroke="black" d="M261.95,-32.72C304.2,-56.3 379.14,-107.65 358,-166 352.96,-179.92 295.73,-245.49 261.14,-284.37"/>
<polygon fill="black" stroke="black" points="258.76,-281.77 254.72,-291.57 263.99,-286.43 258.76,-281.77"/>
<text text-anchor="start" x="365" y="-154" font-family="Courier New" font-weight="bold" font-size="10.00" fill="blue">SIGNALi(0,SID_DEC_ENERGY)</text>
</g>
<!-- status -->
<g id="node6" class="node">
<title>status</title>
<polygon fill="none" stroke="black" points="280,-276.5 280,-352.5 620,-352.5 620,-276.5 280,-276.5"/>
<polygon fill="none" stroke="black" points="291,-327.5 291,-345.5 609,-345.5 609,-327.5 291,-327.5"/>
<text text-anchor="start" x="410.99" y="-334.5" font-family="Courier New" font-weight="bold" font-size="10.00">S17_bFOULWIND</text>
<polygon fill="none" stroke="black" points="291,-283.5 291,-325.5 609,-325.5 609,-283.5 291,-283.5"/>
<text text-anchor="start" x="294" y="-313.5" font-family="Courier New" font-size="10.00" fill="green">VIEW::IDV_bCV1bPAN @pos(left:0, top:0)</text>
<text text-anchor="start" x="294" y="-301.5" font-family="Courier New" font-size="10.00" fill="green">S17_bFOULWIND::M17_FOULWIND(&#39;IDV_bCV1bPAN&#39;,&#39;&#39;,&#39;&#39;,&#39;&#39;)</text>
<text text-anchor="start" x="294" y="-289.5" font-family="Courier New" font-size="10.00" fill="green">{state:&#39;0&#39;:</text>
<polygon fill="none" stroke="black" points="288,-280.5 288,-348.5 612,-348.5 612,-280.5 288,-280.5"/>
</g>
</g>
</svg>
