<?xml version="1.0" encoding="UTF-8" standalone="no"?>
<!DOCTYPE svg PUBLIC "-//W3C//DTD SVG 1.1//EN"
 "http://www.w3.org/Graphics/SVG/1.1/DTD/svg11.dtd">
<!-- Generated by graphviz version 7.1.0 (20230121.1956)
 -->
<!-- Title: Automaton Pages: 1 -->
<svg width="694pt" height="509pt"
 viewBox="0.00 0.00 694.00 509.00" xmlns="http://www.w3.org/2000/svg" xmlns:xlink="http://www.w3.org/1999/xlink">
<g id="graph0" class="graph" transform="scale(1 1) rotate(0) translate(4 505)">
<title>Automaton</title>
<polygon fill="white" stroke="none" points="-4,4 -4,-505 690,-505 690,4 -4,4"/>
<!-- filename -->
<g id="node1" class="node">
<title>filename</title>
<polygon fill="none" stroke="black" points="0,-436.5 0,-488.5 226,-488.5 226,-436.5 0,-436.5"/>
<polygon fill="none" stroke="black" points="11,-463.5 11,-481.5 215,-481.5 215,-463.5 11,-463.5"/>
<text text-anchor="start" x="14" y="-470.5" font-family="Courier New" font-weight="bold" font-size="10.00">S19_SPINNER_BOTTOM_SPIN::M19_SPIN</text>
<polygon fill="none" stroke="black" points="11,-443.5 11,-461.5 215,-461.5 215,-443.5 11,-443.5"/>
<text text-anchor="start" x="67.99" y="-449.5" font-family="Courier New" font-size="10.00" fill="brown">start state = 0</text>
<polygon fill="none" stroke="black" points="8,-440.5 8,-484.5 218,-484.5 218,-440.5 8,-440.5"/>
</g>
<!-- 0 -->
<g id="node2" class="node">
<title>0</title>
<polyline fill="none" stroke="darkred" stroke-width="3" points="263.5,-451 278.5,-451"/>
<text text-anchor="start" x="267" y="-458.9" font-family="Courier New" font-weight="bold" font-size="14.00">0</text>
<path fill="none" stroke="darkred" stroke-width="3" d="M266.83,-446C266.83,-446 275.17,-446 275.17,-446 279.33,-446 283.5,-450.17 283.5,-454.33 283.5,-454.33 283.5,-470.67 283.5,-470.67 283.5,-474.83 279.33,-479 275.17,-479 275.17,-479 266.83,-479 266.83,-479 262.67,-479 258.5,-474.83 258.5,-470.67 258.5,-470.67 258.5,-454.33 258.5,-454.33 258.5,-450.17 262.67,-446 266.83,-446"/>
</g>
<!-- 1 -->
<g id="node3" class="node">
<title>1</title>
<polyline fill="none" stroke="darkred" points="193,-315 207,-315"/>
<text text-anchor="start" x="196" y="-322.4" font-family="Courier New" font-weight="bold" font-size="14.00">1</text>
<path fill="none" stroke="darkred" d="M196.67,-312C196.67,-312 203.33,-312 203.33,-312 206.67,-312 210,-315.33 210,-318.67 210,-318.67 210,-333.33 210,-333.33 210,-336.67 206.67,-340 203.33,-340 203.33,-340 196.67,-340 196.67,-340 193.33,-340 190,-336.67 190,-333.33 190,-333.33 190,-318.67 190,-318.67 190,-315.33 193.33,-312 196.67,-312"/>
</g>
<!-- 0&#45;&gt;1 -->
<g id="edge1" class="edge">
<title>0&#45;&gt;1</title>
<path fill="none" stroke="black" d="M253.59,-440.55C248.06,-434.71 241.64,-428.68 235,-424 219.07,-412.76 205.59,-422.37 195,-406 185.33,-391.05 186.73,-371 190.47,-354.84"/>
<polygon fill="black" stroke="black" points="193.8,-355.92 193.08,-345.35 187.05,-354.06 193.8,-355.92"/>
<polygon fill="none" stroke="black" points="198,-385 198,-403 330,-403 330,-385 198,-385"/>
<text text-anchor="start" x="215.99" y="-392" font-family="Courier New" font-weight="bold" font-size="10.00" fill="orange">WAIT(0,SIG_SPIN)</text>
<polygon fill="none" stroke="black" points="198,-365 198,-383 330,-383 330,-365 198,-365"/>
<text text-anchor="start" x="201" y="-371" font-family="Courier New" font-size="10.00" fill="blue">PLAYWAVE(SOUND_SPIN);</text>
<polygon fill="none" stroke="black" points="195,-362 195,-406 333,-406 333,-362 195,-362"/>
</g>
<!-- 2 -->
<g id="node4" class="node">
<title>2</title>
<polyline fill="none" stroke="darkred" points="211,-207 225,-207"/>
<text text-anchor="start" x="214" y="-214.4" font-family="Courier New" font-weight="bold" font-size="14.00">2</text>
<path fill="none" stroke="darkred" d="M214.67,-204C214.67,-204 221.33,-204 221.33,-204 224.67,-204 228,-207.33 228,-210.67 228,-210.67 228,-225.33 228,-225.33 228,-228.67 224.67,-232 221.33,-232 221.33,-232 214.67,-232 214.67,-232 211.33,-232 208,-228.67 208,-225.33 208,-225.33 208,-210.67 208,-210.67 208,-207.33 211.33,-204 214.67,-204"/>
</g>
<!-- 1&#45;&gt;2 -->
<g id="edge2" class="edge">
<title>1&#45;&gt;2</title>
<path fill="none" stroke="black" d="M202.81,-308.44C205.6,-292.04 209.91,-266.63 213.23,-247.08"/>
<polygon fill="black" stroke="black" points="216.67,-247.73 214.89,-237.29 209.77,-246.56 216.67,-247.73"/>
<text text-anchor="start" x="213" y="-278" font-family="Courier New" font-weight="bold" font-size="10.00" fill="blue">ASHOW(WIP1,V_LOOP)</text>
</g>
<!-- 3 -->
<g id="node5" class="node">
<title>3</title>
<polyline fill="none" stroke="darkred" points="224,-99 238,-99"/>
<text text-anchor="start" x="227" y="-106.4" font-family="Courier New" font-weight="bold" font-size="14.00">3</text>
<path fill="none" stroke="darkred" d="M227.67,-96C227.67,-96 234.33,-96 234.33,-96 237.67,-96 241,-99.33 241,-102.67 241,-102.67 241,-117.33 241,-117.33 241,-120.67 237.67,-124 234.33,-124 234.33,-124 227.67,-124 227.67,-124 224.33,-124 221,-120.67 221,-117.33 221,-117.33 221,-102.67 221,-102.67 221,-99.33 224.33,-96 227.67,-96"/>
</g>
<!-- 2&#45;&gt;3 -->
<g id="edge3" class="edge">
<title>2&#45;&gt;3</title>
<path fill="none" stroke="black" d="M220.03,-200.44C222.04,-184.04 225.16,-158.63 227.56,-139.08"/>
<polygon fill="black" stroke="black" points="231.01,-139.65 228.76,-129.3 224.06,-138.8 231.01,-139.65"/>
<text text-anchor="start" x="231" y="-154" font-family="Courier New" font-weight="bold" font-size="10.00" fill="blue">ESTIME(,4)</text>
</g>
<!-- reveal -->
<g id="node6" class="node">
<title>reveal</title>
<polyline fill="none" stroke="darkred" points="261,-7 317,-7"/>
<text text-anchor="start" x="264" y="-14.4" font-family="Courier New" font-weight="bold" font-size="14.00">reveal</text>
<path fill="none" stroke="darkred" d="M267.33,-4C267.33,-4 310.67,-4 310.67,-4 315.33,-4 320,-8.67 320,-13.33 320,-13.33 320,-22.67 320,-22.67 320,-27.33 315.33,-32 310.67,-32 310.67,-32 267.33,-32 267.33,-32 262.67,-32 258,-27.33 258,-22.67 258,-22.67 258,-13.33 258,-13.33 258,-8.67 262.67,-4 267.33,-4"/>
</g>
<!-- 3&#45;&gt;reveal -->
<g id="edge4" class="edge">
<title>3&#45;&gt;reveal</title>
<path fill="none" stroke="black" d="M228.52,-92.46C227.62,-80.9 228.18,-65.54 235,-54 237.4,-49.94 240.47,-46.27 243.94,-42.97"/>
<polygon fill="black" stroke="black" points="245.87,-45.92 251.41,-36.89 241.45,-40.49 245.87,-45.92"/>
<text text-anchor="start" x="239" y="-62" font-family="Courier New" font-weight="bold" font-size="10.00" fill="blue">CLEAR(WSPRITE,)</text>
</g>
<!-- reveal&#45;&gt;0 -->
<g id="edge5" class="edge">
<title>reveal&#45;&gt;0</title>
<path fill="none" stroke="black" d="M315.87,-35.84C322.28,-40.98 328.55,-47.12 333,-54 346.7,-75.18 347,-83.78 347,-109 347,-327 347,-327 347,-327 347,-362.66 352.25,-375.99 333,-406 325.41,-417.83 317.7,-414.88 307,-424 303.86,-426.67 300.7,-429.59 297.61,-432.57"/>
<polygon fill="black" stroke="black" points="295.36,-429.88 290.79,-439.44 300.32,-434.81 295.36,-429.88"/>
<polygon fill="none" stroke="black" points="350,-231 350,-249 614,-249 614,-231 350,-231"/>
<text text-anchor="start" x="455" y="-238" font-family="Courier New" font-weight="bold" font-size="10.00" fill="blue">SHOW(0,0)</text>
<polygon fill="none" stroke="black" points="350,-187 350,-229 614,-229 614,-187 350,-187"/>
<text text-anchor="start" x="353" y="-217" font-family="Courier New" font-size="10.00" fill="blue"> &#160;&#160;&#160;if(WIP1 == IDS_BOTSPIN){</text>
<text text-anchor="start" x="353" y="-205" font-family="Courier New" font-size="10.00" fill="blue"> &#160;&#160;&#160;&#160;&#160;&#160;&#160;SIGNALi(SIG_START,S19_SPELLCASTER);</text>
<text text-anchor="start" x="353" y="-193" font-family="Courier New" font-size="10.00" fill="blue"> &#160;&#160;&#160;}</text>
<polygon fill="none" stroke="black" points="347,-184 347,-252 617,-252 617,-184 347,-184"/>
</g>
<!-- status -->
<g id="node7" class="node">
<title>status</title>
<polygon fill="none" stroke="black" points="316,-424.5 316,-500.5 686,-500.5 686,-424.5 316,-424.5"/>
<polygon fill="none" stroke="black" points="327,-475.5 327,-493.5 675,-493.5 675,-475.5 327,-475.5"/>
<text text-anchor="start" x="431.99" y="-482.5" font-family="Courier New" font-weight="bold" font-size="10.00">S19_SPINNER_BOTTOM_SPIN</text>
<polygon fill="none" stroke="black" points="327,-431.5 327,-473.5 675,-473.5 675,-431.5 327,-431.5"/>
<text text-anchor="start" x="330" y="-461.5" font-family="Courier New" font-size="10.00" fill="green">VIEW::IDV_RACEPAN @pos(left:435, top:0)</text>
<text text-anchor="start" x="330" y="-449.5" font-family="Courier New" font-size="10.00" fill="green">S19_SPINNER_BOTTOM_SPIN::M19_SPIN(&#39;IDS_BOTSPIN&#39;,&#39;&#39;,&#39;&#39;,&#39;&#39;)</text>
<text text-anchor="start" x="330" y="-437.5" font-family="Courier New" font-size="10.00" fill="green">{&#39;0&#39;:</text>
<polygon fill="none" stroke="black" points="324,-428.5 324,-496.5 678,-496.5 678,-428.5 324,-428.5"/>
</g>
</g>
</svg>
