<?xml version="1.0" encoding="UTF-8" standalone="no"?>
<!DOCTYPE svg PUBLIC "-//W3C//DTD SVG 1.1//EN"
 "http://www.w3.org/Graphics/SVG/1.1/DTD/svg11.dtd">
<!-- Generated by graphviz version 7.1.0 (20230121.1956)
 -->
<!-- Title: Automaton Pages: 1 -->
<svg width="1098pt" height="325pt"
 viewBox="0.00 0.00 1098.00 325.00" xmlns="http://www.w3.org/2000/svg" xmlns:xlink="http://www.w3.org/1999/xlink">
<g id="graph0" class="graph" transform="scale(1 1) rotate(0) translate(4 321)">
<title>Automaton</title>
<polygon fill="white" stroke="none" points="-4,4 -4,-321 1094,-321 1094,4 -4,4"/>
<!-- filename -->
<g id="node1" class="node">
<title>filename</title>
<polygon fill="none" stroke="black" points="0,-248.5 0,-300.5 178,-300.5 178,-248.5 0,-248.5"/>
<polygon fill="none" stroke="black" points="11,-275.5 11,-293.5 167,-293.5 167,-275.5 11,-275.5"/>
<text text-anchor="start" x="14" y="-282.5" font-family="Courier New" font-weight="bold" font-size="10.00">S1_VIALMETER::M_VIALMETER</text>
<polygon fill="none" stroke="black" points="11,-255.5 11,-273.5 167,-273.5 167,-255.5 11,-255.5"/>
<text text-anchor="start" x="43.99" y="-261.5" font-family="Courier New" font-size="10.00" fill="brown">start state = 0</text>
<polygon fill="none" stroke="black" points="8,-252.5 8,-296.5 170,-296.5 170,-252.5 8,-252.5"/>
</g>
<!-- 0 -->
<g id="node2" class="node">
<title>0</title>
<polyline fill="none" stroke="darkred" stroke-width="3" points="215.5,-263 230.5,-263"/>
<text text-anchor="start" x="219" y="-270.9" font-family="Courier New" font-weight="bold" font-size="14.00">0</text>
<path fill="none" stroke="darkred" stroke-width="3" d="M218.83,-258C218.83,-258 227.17,-258 227.17,-258 231.33,-258 235.5,-262.17 235.5,-266.33 235.5,-266.33 235.5,-282.67 235.5,-282.67 235.5,-286.83 231.33,-291 227.17,-291 227.17,-291 218.83,-291 218.83,-291 214.67,-291 210.5,-286.83 210.5,-282.67 210.5,-282.67 210.5,-266.33 210.5,-266.33 210.5,-262.17 214.67,-258 218.83,-258"/>
</g>
<!-- 5 -->
<g id="node3" class="node">
<title>5</title>
<polyline fill="none" stroke="darkred" points="319,-123 333,-123"/>
<text text-anchor="start" x="322" y="-130.4" font-family="Courier New" font-weight="bold" font-size="14.00">5</text>
<path fill="none" stroke="darkred" d="M322.67,-120C322.67,-120 329.33,-120 329.33,-120 332.67,-120 336,-123.33 336,-126.67 336,-126.67 336,-141.33 336,-141.33 336,-144.67 332.67,-148 329.33,-148 329.33,-148 322.67,-148 322.67,-148 319.33,-148 316,-144.67 316,-141.33 316,-141.33 316,-126.67 316,-126.67 316,-123.33 319.33,-120 322.67,-120"/>
</g>
<!-- 0&#45;&gt;5 -->
<g id="edge1" class="edge">
<title>0&#45;&gt;5</title>
<path fill="none" stroke="black" d="M237.8,-252.64C243.75,-245.37 251.07,-237.64 259,-232 276.55,-219.51 289.62,-230.04 304,-214 316.47,-200.1 321.93,-179.7 324.3,-163.12"/>
<polygon fill="black" stroke="black" points="327.76,-163.69 325.37,-153.37 320.8,-162.93 327.76,-163.69"/>
<polygon fill="none" stroke="black" points="326,-193 326,-211 668,-211 668,-193 326,-193"/>
<text text-anchor="start" x="448.99" y="-200" font-family="Courier New" font-weight="bold" font-size="10.00" fill="orange">WAIT(0,SIG_SHOW)</text>
<polygon fill="none" stroke="black" points="326,-173 326,-191 668,-191 668,-173 326,-173"/>
<text text-anchor="start" x="329" y="-179" font-family="Courier New" font-size="10.00" fill="blue">REF_MACHINE(WIP1);MOV(BPARM,R_BPARM);MOV(WPARM,R_WPARM);</text>
<polygon fill="none" stroke="black" points="323,-170 323,-214 671,-214 671,-170 323,-170"/>
</g>
<!-- 5&#45;&gt;0 -->
<g id="edge8" class="edge">
<title>5&#45;&gt;0</title>
<path fill="none" stroke="black" d="M299.18,-135.55C274.11,-137.67 237.94,-145.18 220,-170 205.2,-190.47 207.55,-219.65 212.68,-241.81"/>
<polygon fill="black" stroke="black" points="209.23,-242.43 215.16,-251.21 216,-240.65 209.23,-242.43"/>
<text text-anchor="start" x="224" y="-190" font-family="Courier New" font-weight="bold" font-size="10.00" fill="blue">Z_EPSILON(,)</text>
</g>
<!-- 10 -->
<g id="node4" class="node">
<title>10</title>
<polyline fill="none" stroke="darkred" points="43,-7 65,-7"/>
<text text-anchor="start" x="46" y="-14.4" font-family="Courier New" font-weight="bold" font-size="14.00">10</text>
<path fill="none" stroke="darkred" d="M49.33,-4C49.33,-4 58.67,-4 58.67,-4 63.33,-4 68,-8.67 68,-13.33 68,-13.33 68,-22.67 68,-22.67 68,-27.33 63.33,-32 58.67,-32 58.67,-32 49.33,-32 49.33,-32 44.67,-32 40,-27.33 40,-22.67 40,-22.67 40,-13.33 40,-13.33 40,-8.67 44.67,-4 49.33,-4"/>
</g>
<!-- 5&#45;&gt;10 -->
<g id="edge5" class="edge">
<title>5&#45;&gt;10</title>
<path fill="none" stroke="black" d="M299.06,-130.51C251.41,-125.74 154.52,-114.34 125,-98 102.4,-85.49 83.28,-63.02 70.59,-45.24"/>
<polygon fill="black" stroke="black" points="73.62,-43.46 65.08,-37.18 67.84,-47.41 73.62,-43.46"/>
<polygon fill="none" stroke="black" points="128,-77 128,-95 392,-95 392,-77 128,-77"/>
<text text-anchor="start" x="205.99" y="-84" font-family="Courier New" font-weight="bold" font-size="10.00" fill="blue">EQUALi(R_WPARM,20)</text>
<polygon fill="none" stroke="black" points="128,-57 128,-75 392,-75 392,-57 128,-57"/>
<text text-anchor="start" x="131" y="-63" font-family="Courier New" font-size="10.00" fill="blue">MULI(BPARM,2);MOV(BFRAME,BPARM);SHOW(WIP2);</text>
<polygon fill="none" stroke="black" points="125,-54 125,-98 395,-98 395,-54 125,-54"/>
</g>
<!-- 20 -->
<g id="node5" class="node">
<title>20</title>
<polyline fill="none" stroke="darkred" points="866,-7 888,-7"/>
<text text-anchor="start" x="869" y="-14.4" font-family="Courier New" font-weight="bold" font-size="14.00">20</text>
<path fill="none" stroke="darkred" d="M872.33,-4C872.33,-4 881.67,-4 881.67,-4 886.33,-4 891,-8.67 891,-13.33 891,-13.33 891,-22.67 891,-22.67 891,-27.33 886.33,-32 881.67,-32 881.67,-32 872.33,-32 872.33,-32 867.67,-32 863,-27.33 863,-22.67 863,-22.67 863,-13.33 863,-13.33 863,-8.67 867.67,-4 872.33,-4"/>
</g>
<!-- 5&#45;&gt;20 -->
<g id="edge6" class="edge">
<title>5&#45;&gt;20</title>
<path fill="none" stroke="black" d="M352.82,-133.06C425.51,-132.8 624.65,-129.19 681,-98 702.62,-86.03 694.1,-67.19 715,-54 752.82,-30.14 804.44,-22.35 839.15,-19.91"/>
<polygon fill="black" stroke="black" points="838.94,-23.43 848.72,-19.36 838.54,-16.44 838.94,-23.43"/>
<polygon fill="none" stroke="black" points="718,-77 718,-95 1024,-95 1024,-77 718,-77"/>
<text text-anchor="start" x="816.99" y="-84" font-family="Courier New" font-weight="bold" font-size="10.00" fill="blue">EQUALi(R_WPARM,40)</text>
<polygon fill="none" stroke="black" points="718,-57 718,-75 1024,-75 1024,-57 718,-57"/>
<text text-anchor="start" x="721" y="-63" font-family="Courier New" font-size="10.00" fill="blue">ASSIGN(WSPRITE,WIP2);MOV(BFRAME,BPARM);SHOW(WIP2);</text>
<polygon fill="none" stroke="black" points="715,-54 715,-98 1027,-98 1027,-54 715,-54"/>
</g>
<!-- 30 -->
<g id="node6" class="node">
<title>30</title>
<polyline fill="none" stroke="darkred" points="263,-7 285,-7"/>
<text text-anchor="start" x="266" y="-14.4" font-family="Courier New" font-weight="bold" font-size="14.00">30</text>
<path fill="none" stroke="darkred" d="M269.33,-4C269.33,-4 278.67,-4 278.67,-4 283.33,-4 288,-8.67 288,-13.33 288,-13.33 288,-22.67 288,-22.67 288,-27.33 283.33,-32 278.67,-32 278.67,-32 269.33,-32 269.33,-32 264.67,-32 260,-27.33 260,-22.67 260,-22.67 260,-13.33 260,-13.33 260,-8.67 264.67,-4 269.33,-4"/>
</g>
<!-- 5&#45;&gt;30 -->
<g id="edge7" class="edge">
<title>5&#45;&gt;30</title>
<path fill="none" stroke="black" d="M352.73,-127.7C369.14,-122.91 388.89,-114.06 399,-98 409.42,-81.45 410.82,-69.58 399,-54 388.43,-40.07 344.73,-30.16 311.96,-24.52"/>
<polygon fill="black" stroke="black" points="312.83,-21.12 302.39,-22.95 311.69,-28.03 312.83,-21.12"/>
<polygon fill="none" stroke="black" points="410,-77 410,-95 674,-95 674,-77 410,-77"/>
<text text-anchor="start" x="487.99" y="-84" font-family="Courier New" font-weight="bold" font-size="10.00" fill="blue">EQUALi(R_WPARM,80)</text>
<polygon fill="none" stroke="black" points="410,-57 410,-75 674,-75 674,-57 410,-57"/>
<text text-anchor="start" x="413" y="-63" font-family="Courier New" font-size="10.00" fill="blue">DIVI(BPARM,2);MOV(BFRAME,BPARM);SHOW(WIP2);</text>
<polygon fill="none" stroke="black" points="407,-54 407,-98 677,-98 677,-54 407,-54"/>
</g>
<!-- 10&#45;&gt;0 -->
<g id="edge2" class="edge">
<title>10&#45;&gt;0</title>
<path fill="none" stroke="black" d="M44.97,-35.86C32.06,-62.47 12.18,-114.99 34,-152 62.89,-201.01 95.01,-188.76 146,-214 163.84,-222.83 170.98,-220.2 187,-232 191.77,-235.52 196.35,-239.77 200.55,-244.2"/>
<polygon fill="black" stroke="black" points="197.86,-246.45 207.09,-251.64 203.12,-241.82 197.86,-246.45"/>
<text text-anchor="start" x="38" y="-132" font-family="Courier New" font-weight="bold" font-size="10.00" fill="blue">Z_EPSILON(,)</text>
</g>
<!-- 20&#45;&gt;0 -->
<g id="edge3" class="edge">
<title>20&#45;&gt;0</title>
<path fill="none" stroke="black" d="M903.88,-21.34C942.82,-25.34 1011.92,-34.99 1027,-54 1039.16,-69.32 1038.46,-82.16 1027,-98 930.46,-231.46 837.04,-184.38 675,-214 629.49,-222.32 300.66,-211.89 259,-232 252.95,-234.92 247.5,-239.38 242.78,-244.31"/>
<polygon fill="black" stroke="black" points="240.32,-241.8 236.53,-251.7 245.66,-246.32 240.32,-241.8"/>
<text text-anchor="start" x="1014" y="-132" font-family="Courier New" font-weight="bold" font-size="10.00" fill="blue">Z_EPSILON(,)</text>
</g>
<!-- 30&#45;&gt;0 -->
<g id="edge4" class="edge">
<title>30&#45;&gt;0</title>
<path fill="none" stroke="black" d="M247.24,-20.7C205.05,-24 126.1,-32.9 109,-54 96.69,-69.19 103.44,-79.25 109,-98 118.22,-129.11 170.05,-202.22 200.56,-243.6"/>
<polygon fill="black" stroke="black" points="197.6,-245.48 206.37,-251.44 203.23,-241.32 197.6,-245.48"/>
<text text-anchor="start" x="141" y="-132" font-family="Courier New" font-weight="bold" font-size="10.00" fill="blue">Z_EPSILON(,)</text>
</g>
<!-- status -->
<g id="node7" class="node">
<title>status</title>
<polygon fill="none" stroke="black" points="268,-232.5 268,-316.5 644,-316.5 644,-232.5 268,-232.5"/>
<polygon fill="none" stroke="black" points="279,-291.5 279,-309.5 633,-309.5 633,-291.5 279,-291.5"/>
<text text-anchor="start" x="419.99" y="-298.5" font-family="Courier New" font-weight="bold" font-size="10.00">S1_VIALMETER</text>
<polygon fill="none" stroke="black" points="279,-259.5 279,-289.5 633,-289.5 633,-259.5 279,-259.5"/>
<text text-anchor="start" x="282" y="-277.5" font-family="Courier New" font-size="10.00" fill="green">S1_VIALMETER::M_VIALMETER(&#39;SMP_VIAL&#39;,&#39;IDS_NYSMETER&#39;,&#39;&#39;,&#39;&#39;)</text>
<text text-anchor="start" x="282" y="-265.5" font-family="Courier New" font-size="10.00" fill="green">{&#39;0&#39;: wParm:20 wSprite:NYSMETER}</text>
<polygon fill="none" stroke="black" points="279,-239.5 279,-257.5 633,-257.5 633,-239.5 279,-239.5"/>
<text text-anchor="start" x="453" y="-245.5" font-family="Courier New" font-size="10.00" fill="blue">_</text>
<polygon fill="none" stroke="black" points="276,-236.5 276,-312.5 636,-312.5 636,-236.5 276,-236.5"/>
</g>
</g>
</svg>
