<?xml version="1.0" encoding="UTF-8" standalone="no"?>
<!DOCTYPE svg PUBLIC "-//W3C//DTD SVG 1.1//EN"
 "http://www.w3.org/Graphics/SVG/1.1/DTD/svg11.dtd">
<!-- Generated by graphviz version 7.1.0 (20230121.1956)
 -->
<!-- Title: Automaton Pages: 1 -->
<svg width="690pt" height="453pt"
 viewBox="0.00 0.00 689.50 453.00" xmlns="http://www.w3.org/2000/svg" xmlns:xlink="http://www.w3.org/1999/xlink">
<g id="graph0" class="graph" transform="scale(1 1) rotate(0) translate(4 449)">
<title>Automaton</title>
<polygon fill="white" stroke="none" points="-4,4 -4,-449 685.5,-449 685.5,4 -4,4"/>
<!-- filename -->
<g id="node1" class="node">
<title>filename</title>
<polygon fill="none" stroke="black" points="67.5,-380.5 67.5,-432.5 227.5,-432.5 227.5,-380.5 67.5,-380.5"/>
<polygon fill="none" stroke="black" points="78.5,-407.5 78.5,-425.5 216.5,-425.5 216.5,-407.5 78.5,-407.5"/>
<text text-anchor="start" x="81.5" y="-414.5" font-family="Courier New" font-weight="bold" font-size="10.00">S21_MAPOPEN::M_LEVDOOR</text>
<polygon fill="none" stroke="black" points="78.5,-387.5 78.5,-405.5 216.5,-405.5 216.5,-387.5 78.5,-387.5"/>
<text text-anchor="start" x="102.5" y="-393.5" font-family="Courier New" font-size="10.00" fill="brown">start state = 0</text>
<polygon fill="none" stroke="black" points="75.5,-384.5 75.5,-428.5 219.5,-428.5 219.5,-384.5 75.5,-384.5"/>
</g>
<!-- 0 -->
<g id="node2" class="node">
<title>0</title>
<polyline fill="none" stroke="darkred" stroke-width="3" points="265,-395 280,-395"/>
<text text-anchor="start" x="268.5" y="-402.9" font-family="Courier New" font-weight="bold" font-size="14.00">0</text>
<path fill="none" stroke="darkred" stroke-width="3" d="M268.34,-390C268.34,-390 276.67,-390 276.67,-390 280.84,-390 285,-394.17 285,-398.33 285,-398.33 285,-414.67 285,-414.67 285,-418.83 280.84,-423 276.67,-423 276.67,-423 268.34,-423 268.34,-423 264.17,-423 260,-418.83 260,-414.67 260,-414.67 260,-398.33 260,-398.33 260,-394.17 264.17,-390 268.34,-390"/>
</g>
<!-- 1 -->
<g id="node3" class="node">
<title>1</title>
<polyline fill="none" stroke="darkred" points="194.5,-283 208.5,-283"/>
<text text-anchor="start" x="197.5" y="-290.4" font-family="Courier New" font-weight="bold" font-size="14.00">1</text>
<path fill="none" stroke="darkred" d="M198.17,-280C198.17,-280 204.84,-280 204.84,-280 208.17,-280 211.5,-283.33 211.5,-286.67 211.5,-286.67 211.5,-301.33 211.5,-301.33 211.5,-304.67 208.17,-308 204.84,-308 204.84,-308 198.17,-308 198.17,-308 194.84,-308 191.5,-304.67 191.5,-301.33 191.5,-301.33 191.5,-286.67 191.5,-286.67 191.5,-283.33 194.84,-280 198.17,-280"/>
</g>
<!-- 0&#45;&gt;1 -->
<g id="edge1" class="edge">
<title>0&#45;&gt;1</title>
<path fill="none" stroke="black" d="M253.05,-384.51C247.78,-379.03 242.01,-373.21 236.5,-368 227.57,-359.56 221.99,-360.44 215.5,-350 210.52,-341.97 207.3,-332.23 205.23,-323.19"/>
<polygon fill="black" stroke="black" points="208.68,-322.59 203.39,-313.41 201.8,-323.88 208.68,-322.59"/>
<text text-anchor="start" x="219.5" y="-338" font-family="Courier New" font-weight="bold" font-size="10.00" fill="orange">WAIT(0,SIG_OPEN)</text>
</g>
<!-- 3 -->
<g id="node4" class="node">
<title>3</title>
<polyline fill="none" stroke="darkred" points="185.5,-191 199.5,-191"/>
<text text-anchor="start" x="188.5" y="-198.4" font-family="Courier New" font-weight="bold" font-size="14.00">3</text>
<path fill="none" stroke="darkred" d="M189.17,-188C189.17,-188 195.84,-188 195.84,-188 199.17,-188 202.5,-191.33 202.5,-194.67 202.5,-194.67 202.5,-209.33 202.5,-209.33 202.5,-212.67 199.17,-216 195.84,-216 195.84,-216 189.17,-216 189.17,-216 185.84,-216 182.5,-212.67 182.5,-209.33 182.5,-209.33 182.5,-194.67 182.5,-194.67 182.5,-191.33 185.84,-188 189.17,-188"/>
</g>
<!-- 1&#45;&gt;3 -->
<g id="edge2" class="edge">
<title>1&#45;&gt;3</title>
<path fill="none" stroke="black" d="M199.81,-276.07C198.54,-263.38 196.78,-245.71 195.3,-230.94"/>
<polygon fill="black" stroke="black" points="198.82,-230.96 194.34,-221.36 191.85,-231.66 198.82,-230.96"/>
<text text-anchor="start" x="202.5" y="-246" font-family="Courier New" font-weight="bold" font-size="10.00" fill="blue">MOV(WSPRITE,WIP1)</text>
</g>
<!-- 4 -->
<g id="node5" class="node">
<title>4</title>
<polyline fill="none" stroke="darkred" points="95.5,-99 109.5,-99"/>
<text text-anchor="start" x="98.5" y="-106.4" font-family="Courier New" font-weight="bold" font-size="14.00">4</text>
<path fill="none" stroke="darkred" d="M99.17,-96C99.17,-96 105.84,-96 105.84,-96 109.17,-96 112.5,-99.33 112.5,-102.67 112.5,-102.67 112.5,-117.33 112.5,-117.33 112.5,-120.67 109.17,-124 105.84,-124 105.84,-124 99.17,-124 99.17,-124 95.84,-124 92.5,-120.67 92.5,-117.33 92.5,-117.33 92.5,-102.67 92.5,-102.67 92.5,-99.33 95.84,-96 99.17,-96"/>
</g>
<!-- 3&#45;&gt;4 -->
<g id="edge3" class="edge">
<title>3&#45;&gt;4</title>
<path fill="none" stroke="black" d="M175.58,-184.07C162,-170.5 142.75,-151.24 127.41,-135.91"/>
<polygon fill="black" stroke="black" points="129.97,-133.52 120.43,-128.92 125.02,-138.47 129.97,-133.52"/>
<text text-anchor="start" x="160.5" y="-154" font-family="Courier New" font-weight="bold" font-size="10.00" fill="blue">SHOW(WSPRITE,0)</text>
</g>
<!-- 5 -->
<g id="node6" class="node">
<title>5</title>
<polyline fill="none" stroke="darkred" points="38.5,-7 52.5,-7"/>
<text text-anchor="start" x="41.5" y="-14.4" font-family="Courier New" font-weight="bold" font-size="14.00">5</text>
<path fill="none" stroke="darkred" d="M42.17,-4C42.17,-4 48.84,-4 48.84,-4 52.17,-4 55.5,-7.33 55.5,-10.67 55.5,-10.67 55.5,-25.33 55.5,-25.33 55.5,-28.67 52.17,-32 48.84,-32 48.84,-32 42.17,-32 42.17,-32 38.84,-32 35.5,-28.67 35.5,-25.33 35.5,-25.33 35.5,-10.67 35.5,-10.67 35.5,-7.33 38.84,-4 42.17,-4"/>
</g>
<!-- 4&#45;&gt;5 -->
<g id="edge4" class="edge">
<title>4&#45;&gt;5</title>
<path fill="none" stroke="black" d="M75.6,-107.68C52.25,-104.93 19.71,-96.92 3.5,-74 -3.7,-63.81 1.86,-52.83 11.01,-43.38"/>
<polygon fill="black" stroke="black" points="13.15,-46.17 18.22,-36.87 8.45,-40.97 13.15,-46.17"/>
<text text-anchor="start" x="7.5" y="-62" font-family="Courier New" font-weight="bold" font-size="10.00" fill="orange">CLICK(,0)</text>
</g>
<!-- 7 -->
<g id="node7" class="node">
<title>7</title>
<polyline fill="none" stroke="darkred" points="263.5,-7 277.5,-7"/>
<text text-anchor="start" x="266.5" y="-14.4" font-family="Courier New" font-weight="bold" font-size="14.00">7</text>
<path fill="none" stroke="darkred" d="M267.17,-4C267.17,-4 273.84,-4 273.84,-4 277.17,-4 280.5,-7.33 280.5,-10.67 280.5,-10.67 280.5,-25.33 280.5,-25.33 280.5,-28.67 277.17,-32 273.84,-32 273.84,-32 267.17,-32 267.17,-32 263.84,-32 260.5,-28.67 260.5,-25.33 260.5,-25.33 260.5,-10.67 260.5,-10.67 260.5,-7.33 263.84,-4 267.17,-4"/>
</g>
<!-- 4&#45;&gt;7 -->
<g id="edge5" class="edge">
<title>4&#45;&gt;7</title>
<path fill="none" stroke="black" d="M129.5,-98.64C145.08,-92.27 164.83,-83.52 181.5,-74 194.79,-66.42 196.63,-62.26 209.5,-54 217.23,-49.04 225.69,-43.97 233.78,-39.29"/>
<polygon fill="black" stroke="black" points="235.48,-42.35 242.42,-34.35 232.01,-36.27 235.48,-42.35"/>
<text text-anchor="start" x="213.5" y="-62" font-family="Courier New" font-weight="bold" font-size="10.00" fill="orange">WAIT(0,SIG_CLOSE)</text>
</g>
<!-- 5&#45;&gt;4 -->
<g id="edge6" class="edge">
<title>5&#45;&gt;4</title>
<path fill="none" stroke="black" d="M56.18,-35.85C64.52,-49.03 76.28,-67.59 85.86,-82.72"/>
<polygon fill="black" stroke="black" points="82.67,-84.22 90.97,-90.79 88.58,-80.47 82.67,-84.22"/>
<text text-anchor="start" x="83.5" y="-62" font-family="Courier New" font-weight="bold" font-size="10.00" fill="blue">LOADVIEW(WIP2,)</text>
</g>
<!-- 7&#45;&gt;0 -->
<g id="edge7" class="edge">
<title>7&#45;&gt;0</title>
<path fill="none" stroke="black" d="M297.36,-33.22C305.53,-38.72 313.84,-45.72 319.5,-54 333.74,-74.82 333.5,-83.78 333.5,-109 333.5,-295 333.5,-295 333.5,-295 333.5,-320.22 331.06,-327.58 319.5,-350 314.8,-359.13 308.33,-368.07 301.7,-376.01"/>
<polygon fill="black" stroke="black" points="299.21,-373.55 295.24,-383.37 304.47,-378.17 299.21,-373.55"/>
<text text-anchor="start" x="337.5" y="-200" font-family="Courier New" font-weight="bold" font-size="10.00" fill="blue">SHOW(0,0)</text>
</g>
<!-- status -->
<g id="node8" class="node">
<title>status</title>
<polygon fill="none" stroke="black" points="317.5,-368.5 317.5,-444.5 681.5,-444.5 681.5,-368.5 317.5,-368.5"/>
<polygon fill="none" stroke="black" points="328.5,-419.5 328.5,-437.5 670.5,-437.5 670.5,-419.5 328.5,-419.5"/>
<text text-anchor="start" x="466.5" y="-426.5" font-family="Courier New" font-weight="bold" font-size="10.00">S21_MAPOPEN</text>
<polygon fill="none" stroke="black" points="328.5,-375.5 328.5,-417.5 670.5,-417.5 670.5,-375.5 328.5,-375.5"/>
<text text-anchor="start" x="331.5" y="-405.5" font-family="Courier New" font-size="10.00" fill="green">VIEW::IDV_MAPBOX1 @pos(left:40, top:0)</text>
<text text-anchor="start" x="331.5" y="-393.5" font-family="Courier New" font-size="10.00" fill="green">S21_MAPOPEN::M_LEVDOOR(&#39;IDS_MAPOPN&#39;,&#39;IDV_MAPROOM&#39;,&#39;&#39;,&#39;&#39;)</text>
<text text-anchor="start" x="331.5" y="-381.5" font-family="Courier New" font-size="10.00" fill="green">{state:&#39;0&#39;:</text>
<polygon fill="none" stroke="black" points="325.5,-372.5 325.5,-440.5 673.5,-440.5 673.5,-372.5 325.5,-372.5"/>
</g>
</g>
</svg>
