<?xml version="1.0" encoding="UTF-8" standalone="no"?>
<!DOCTYPE svg PUBLIC "-//W3C//DTD SVG 1.1//EN"
 "http://www.w3.org/Graphics/SVG/1.1/DTD/svg11.dtd">
<!-- Generated by graphviz version 7.1.0 (20230121.1956)
 -->
<!-- Title: Automaton Pages: 1 -->
<svg width="1491pt" height="1113pt"
 viewBox="0.00 0.00 1491.34 1113.00" xmlns="http://www.w3.org/2000/svg" xmlns:xlink="http://www.w3.org/1999/xlink">
<g id="graph0" class="graph" transform="scale(1 1) rotate(0) translate(4 1109)">
<title>Automaton</title>
<polygon fill="white" stroke="none" points="-4,4 -4,-1109 1487.34,-1109 1487.34,4 -4,4"/>
<!-- filename -->
<g id="node1" class="node">
<title>filename</title>
<polygon fill="none" stroke="black" points="713.34,-1040.5 713.34,-1092.5 873.34,-1092.5 873.34,-1040.5 713.34,-1040.5"/>
<polygon fill="none" stroke="black" points="724.34,-1067.5 724.34,-1085.5 862.34,-1085.5 862.34,-1067.5 724.34,-1067.5"/>
<text text-anchor="start" x="727.34" y="-1074.5" font-family="Courier New" font-weight="bold" font-size="10.00">S24_BIGEYE::M24_BIGEYE</text>
<polygon fill="none" stroke="black" points="724.34,-1047.5 724.34,-1065.5 862.34,-1065.5 862.34,-1047.5 724.34,-1047.5"/>
<text text-anchor="start" x="748.34" y="-1053.5" font-family="Courier New" font-size="10.00" fill="brown">start state = 0</text>
<polygon fill="none" stroke="black" points="721.34,-1044.5 721.34,-1088.5 865.34,-1088.5 865.34,-1044.5 721.34,-1044.5"/>
</g>
<!-- 0 -->
<g id="node2" class="node">
<title>0</title>
<polyline fill="none" stroke="darkred" points="911.34,-1055.5 925.34,-1055.5"/>
<text text-anchor="start" x="914.34" y="-1062.9" font-family="Courier New" font-weight="bold" font-size="14.00">0</text>
<path fill="none" stroke="darkred" d="M915.01,-1052.5C915.01,-1052.5 921.68,-1052.5 921.68,-1052.5 925.01,-1052.5 928.34,-1055.83 928.34,-1059.17 928.34,-1059.17 928.34,-1073.83 928.34,-1073.83 928.34,-1077.17 925.01,-1080.5 921.68,-1080.5 921.68,-1080.5 915.01,-1080.5 915.01,-1080.5 911.68,-1080.5 908.34,-1077.17 908.34,-1073.83 908.34,-1073.83 908.34,-1059.17 908.34,-1059.17 908.34,-1055.83 911.68,-1052.5 915.01,-1052.5"/>
</g>
<!-- 1 -->
<g id="node3" class="node">
<title>1</title>
<polyline fill="none" stroke="darkred" points="768.34,-943 782.34,-943"/>
<text text-anchor="start" x="771.34" y="-950.4" font-family="Courier New" font-weight="bold" font-size="14.00">1</text>
<path fill="none" stroke="darkred" d="M772.01,-940C772.01,-940 778.68,-940 778.68,-940 782.01,-940 785.34,-943.33 785.34,-946.67 785.34,-946.67 785.34,-961.33 785.34,-961.33 785.34,-964.67 782.01,-968 778.68,-968 778.68,-968 772.01,-968 772.01,-968 768.68,-968 765.34,-964.67 765.34,-961.33 765.34,-961.33 765.34,-946.67 765.34,-946.67 765.34,-943.33 768.68,-940 772.01,-940"/>
</g>
<!-- 0&#45;&gt;1 -->
<g id="edge1" class="edge">
<title>0&#45;&gt;1</title>
<path fill="none" stroke="black" d="M906.05,-1048.66C899.76,-1041.23 891.51,-1033.05 882.34,-1028 847.38,-1008.73 824.36,-1036.32 794.34,-1010 786.48,-1003.11 781.87,-992.8 779.17,-982.96"/>
<polygon fill="black" stroke="black" points="782.63,-982.39 777.11,-973.34 775.78,-983.85 782.63,-982.39"/>
<text text-anchor="start" x="798.34" y="-998" font-family="Courier New" font-weight="bold" font-size="10.00" fill="blue">MOV(WSPRITE,WIP1)</text>
</g>
<!-- 2 -->
<g id="node4" class="node">
<title>2</title>
<polyline fill="none" stroke="darkred" points="762.34,-851 776.34,-851"/>
<text text-anchor="start" x="765.34" y="-858.4" font-family="Courier New" font-weight="bold" font-size="14.00">2</text>
<path fill="none" stroke="darkred" d="M766.01,-848C766.01,-848 772.68,-848 772.68,-848 776.01,-848 779.34,-851.33 779.34,-854.67 779.34,-854.67 779.34,-869.33 779.34,-869.33 779.34,-872.67 776.01,-876 772.68,-876 772.68,-876 766.01,-876 766.01,-876 762.68,-876 759.34,-872.67 759.34,-869.33 759.34,-869.33 759.34,-854.67 759.34,-854.67 759.34,-851.33 762.68,-848 766.01,-848"/>
</g>
<!-- 1&#45;&gt;2 -->
<g id="edge2" class="edge">
<title>1&#45;&gt;2</title>
<path fill="none" stroke="black" d="M772.53,-936.31C771.67,-930.53 770.83,-924 770.34,-918 769.65,-909.33 769.32,-899.87 769.19,-891.27"/>
<polygon fill="black" stroke="black" points="772.69,-891.37 769.12,-881.39 765.69,-891.41 772.69,-891.37"/>
<text text-anchor="start" x="774.34" y="-906" font-family="Courier New" font-weight="bold" font-size="10.00" fill="blue">ASHOW(WSPRITE,V_LOOP)</text>
</g>
<!-- 5 -->
<g id="node8" class="node">
<title>5</title>
<polyline fill="none" stroke="darkred" points="762.34,-759 776.34,-759"/>
<text text-anchor="start" x="765.34" y="-766.4" font-family="Courier New" font-weight="bold" font-size="14.00">5</text>
<path fill="none" stroke="darkred" d="M766.01,-756C766.01,-756 772.68,-756 772.68,-756 776.01,-756 779.34,-759.33 779.34,-762.67 779.34,-762.67 779.34,-777.33 779.34,-777.33 779.34,-780.67 776.01,-784 772.68,-784 772.68,-784 766.01,-784 766.01,-784 762.68,-784 759.34,-780.67 759.34,-777.33 759.34,-777.33 759.34,-762.67 759.34,-762.67 759.34,-759.33 762.68,-756 766.01,-756"/>
</g>
<!-- 2&#45;&gt;5 -->
<g id="edge9" class="edge">
<title>2&#45;&gt;5</title>
<path fill="none" stroke="black" d="M769.34,-844.07C769.34,-831.38 769.34,-813.71 769.34,-798.94"/>
<polygon fill="black" stroke="black" points="772.84,-799.37 769.34,-789.37 765.84,-799.37 772.84,-799.37"/>
<text text-anchor="start" x="773.34" y="-814" font-family="Courier New" font-weight="bold" font-size="10.00" fill="blue">ANIMATE(0,V_LOOP)</text>
</g>
<!-- 10 -->
<g id="node5" class="node">
<title>10</title>
<polyline fill="none" stroke="darkred" points="544.34,-475 566.34,-475"/>
<text text-anchor="start" x="547.34" y="-482.4" font-family="Courier New" font-weight="bold" font-size="14.00">10</text>
<path fill="none" stroke="darkred" d="M550.68,-472C550.68,-472 560.01,-472 560.01,-472 564.68,-472 569.34,-476.67 569.34,-481.33 569.34,-481.33 569.34,-490.67 569.34,-490.67 569.34,-495.33 564.68,-500 560.01,-500 560.01,-500 550.68,-500 550.68,-500 546.01,-500 541.34,-495.33 541.34,-490.67 541.34,-490.67 541.34,-481.33 541.34,-481.33 541.34,-476.67 546.01,-472 550.68,-472"/>
</g>
<!-- 50 -->
<g id="node6" class="node">
<title>50</title>
<polyline fill="none" stroke="darkred" points="418.34,-191 440.34,-191"/>
<text text-anchor="start" x="421.34" y="-198.4" font-family="Courier New" font-weight="bold" font-size="14.00">50</text>
<path fill="none" stroke="darkred" d="M424.68,-188C424.68,-188 434.01,-188 434.01,-188 438.68,-188 443.34,-192.67 443.34,-197.33 443.34,-197.33 443.34,-206.67 443.34,-206.67 443.34,-211.33 438.68,-216 434.01,-216 434.01,-216 424.68,-216 424.68,-216 420.01,-216 415.34,-211.33 415.34,-206.67 415.34,-206.67 415.34,-197.33 415.34,-197.33 415.34,-192.67 420.01,-188 424.68,-188"/>
</g>
<!-- 10&#45;&gt;50 -->
<g id="edge3" class="edge">
<title>10&#45;&gt;50</title>
<path fill="none" stroke="black" d="M582.14,-479.41C600.28,-474.4 623.7,-465.41 639.34,-450 667.92,-421.86 711.54,-307.99 687.34,-276 660.78,-240.87 532.53,-217.79 467.43,-208.14"/>
<polygon fill="black" stroke="black" points="467.94,-204.68 457.54,-206.71 466.94,-211.61 467.94,-204.68"/>
<text text-anchor="start" x="694.34" y="-346" font-family="Courier New" font-weight="bold" font-size="10.00" fill="blue">IFSTATEi(0,S24_EYEPLATE1)</text>
</g>
<!-- 10&#45;&gt;50 -->
<g id="edge4" class="edge">
<title>10&#45;&gt;50</title>
<path fill="none" stroke="black" d="M582.23,-482.86C666.63,-475.01 917,-442.61 852.34,-338 800.1,-253.46 747,-268.29 652.34,-238 589.3,-217.83 512.37,-209.04 467.32,-205.39"/>
<polygon fill="black" stroke="black" points="467.79,-201.92 457.55,-204.65 467.26,-208.9 467.79,-201.92"/>
<text text-anchor="start" x="865.34" y="-346" font-family="Courier New" font-weight="bold" font-size="10.00" fill="blue">IFSTATEi(0,S24_EYEPLATE2)</text>
</g>
<!-- 10&#45;&gt;50 -->
<g id="edge5" class="edge">
<title>10&#45;&gt;50</title>
<path fill="none" stroke="black" d="M528.6,-483.94C453.99,-480.75 244.81,-470.21 179.34,-450 98.75,-425.12 56.16,-430.68 13.34,-358 -70.05,-216.44 273.92,-203.16 391.32,-202.68"/>
<polygon fill="black" stroke="black" points="391.08,-206.18 401.07,-202.67 391.07,-199.18 391.08,-206.18"/>
<text text-anchor="start" x="17.34" y="-346" font-family="Courier New" font-weight="bold" font-size="10.00" fill="blue">IFSTATEi(0,S24_EYEPLATE3)</text>
</g>
<!-- 10&#45;&gt;50 -->
<g id="edge6" class="edge">
<title>10&#45;&gt;50</title>
<path fill="none" stroke="black" d="M528.4,-485.85C457.1,-486.4 264.15,-476.5 194.34,-358 145.11,-274.42 313.49,-227.27 391.64,-210.3"/>
<polygon fill="black" stroke="black" points="391.93,-213.81 400.99,-208.33 390.49,-206.96 391.93,-213.81"/>
<text text-anchor="start" x="198.34" y="-346" font-family="Courier New" font-weight="bold" font-size="10.00" fill="blue">IFSTATEi(0,S24_EYESPELL1)</text>
</g>
<!-- 10&#45;&gt;50 -->
<g id="edge7" class="edge">
<title>10&#45;&gt;50</title>
<path fill="none" stroke="black" d="M528.44,-475.78C485.95,-459.59 404.72,-421.58 371.34,-358 348.5,-314.47 382.1,-259.88 406.9,-228.47"/>
<polygon fill="black" stroke="black" points="409.35,-231 412.97,-221.05 403.93,-226.57 409.35,-231"/>
<text text-anchor="start" x="375.34" y="-346" font-family="Courier New" font-weight="bold" font-size="10.00" fill="blue">IFSTATEi(0,S24_EYESPELL3)</text>
</g>
<!-- 20 -->
<g id="node7" class="node">
<title>20</title>
<polyline fill="none" stroke="darkred" points="544.34,-383 566.34,-383"/>
<text text-anchor="start" x="547.34" y="-390.4" font-family="Courier New" font-weight="bold" font-size="14.00">20</text>
<path fill="none" stroke="darkred" d="M550.68,-380C550.68,-380 560.01,-380 560.01,-380 564.68,-380 569.34,-384.67 569.34,-389.33 569.34,-389.33 569.34,-398.67 569.34,-398.67 569.34,-403.33 564.68,-408 560.01,-408 560.01,-408 550.68,-408 550.68,-408 546.01,-408 541.34,-403.33 541.34,-398.67 541.34,-398.67 541.34,-389.33 541.34,-389.33 541.34,-384.67 546.01,-380 550.68,-380"/>
</g>
<!-- 10&#45;&gt;20 -->
<g id="edge8" class="edge">
<title>10&#45;&gt;20</title>
<path fill="none" stroke="black" d="M555.34,-468.07C555.34,-455.38 555.34,-437.71 555.34,-422.94"/>
<polygon fill="black" stroke="black" points="558.84,-423.37 555.34,-413.37 551.84,-423.37 558.84,-423.37"/>
<text text-anchor="start" x="559.34" y="-438" font-family="Courier New" font-weight="bold" font-size="10.00" fill="blue">Z_EPSILON(,)</text>
</g>
<!-- 51 -->
<g id="node11" class="node">
<title>51</title>
<polyline fill="none" stroke="darkred" points="720.34,-99 742.34,-99"/>
<text text-anchor="start" x="723.34" y="-106.4" font-family="Courier New" font-weight="bold" font-size="14.00">51</text>
<path fill="none" stroke="darkred" d="M726.68,-96C726.68,-96 736.01,-96 736.01,-96 740.68,-96 745.34,-100.67 745.34,-105.33 745.34,-105.33 745.34,-114.67 745.34,-114.67 745.34,-119.33 740.68,-124 736.01,-124 736.01,-124 726.68,-124 726.68,-124 722.01,-124 717.34,-119.33 717.34,-114.67 717.34,-114.67 717.34,-105.33 717.34,-105.33 717.34,-100.67 722.01,-96 726.68,-96"/>
</g>
<!-- 50&#45;&gt;51 -->
<g id="edge14" class="edge">
<title>50&#45;&gt;51</title>
<path fill="none" stroke="black" d="M456.14,-193.01C510.1,-176.93 631.92,-140.63 693.78,-122.19"/>
<polygon fill="black" stroke="black" points="694.57,-125.61 703.15,-119.4 692.57,-118.9 694.57,-125.61"/>
<text text-anchor="start" x="612.34" y="-154" font-family="Courier New" font-weight="bold" font-size="10.00" fill="blue">SHOW(0,0)</text>
</g>
<!-- 30 -->
<g id="node9" class="node">
<title>30</title>
<polyline fill="none" stroke="darkred" points="418.34,-287 440.34,-287"/>
<text text-anchor="start" x="421.34" y="-294.4" font-family="Courier New" font-weight="bold" font-size="14.00">30</text>
<path fill="none" stroke="darkred" d="M424.68,-284C424.68,-284 434.01,-284 434.01,-284 438.68,-284 443.34,-288.67 443.34,-293.33 443.34,-293.33 443.34,-302.67 443.34,-302.67 443.34,-307.33 438.68,-312 434.01,-312 434.01,-312 424.68,-312 424.68,-312 420.01,-312 415.34,-307.33 415.34,-302.67 415.34,-302.67 415.34,-293.33 415.34,-293.33 415.34,-288.67 420.01,-284 424.68,-284"/>
</g>
<!-- 20&#45;&gt;30 -->
<g id="edge10" class="edge">
<title>20&#45;&gt;30</title>
<path fill="none" stroke="black" d="M552.35,-376.07C549.41,-364.02 543.78,-348.21 533.34,-338 515.47,-320.51 489.01,-310.73 467.26,-305.34"/>
<polygon fill="black" stroke="black" points="468.06,-301.93 457.54,-303.17 466.54,-308.76 468.06,-301.93"/>
<text text-anchor="start" x="551.34" y="-346" font-family="Courier New" font-weight="bold" font-size="10.00" fill="blue">ASHOW(0,IDS_BIGEYE1)</text>
</g>
<!-- 6 -->
<g id="node10" class="node">
<title>6</title>
<polyline fill="none" stroke="darkred" points="762.34,-667 776.34,-667"/>
<text text-anchor="start" x="765.34" y="-674.4" font-family="Courier New" font-weight="bold" font-size="14.00">6</text>
<path fill="none" stroke="darkred" d="M766.01,-664C766.01,-664 772.68,-664 772.68,-664 776.01,-664 779.34,-667.33 779.34,-670.67 779.34,-670.67 779.34,-685.33 779.34,-685.33 779.34,-688.67 776.01,-692 772.68,-692 772.68,-692 766.01,-692 766.01,-692 762.68,-692 759.34,-688.67 759.34,-685.33 759.34,-685.33 759.34,-670.67 759.34,-670.67 759.34,-667.33 762.68,-664 766.01,-664"/>
</g>
<!-- 5&#45;&gt;6 -->
<g id="edge13" class="edge">
<title>5&#45;&gt;6</title>
<path fill="none" stroke="black" d="M769.34,-752.07C769.34,-739.38 769.34,-721.71 769.34,-706.94"/>
<polygon fill="black" stroke="black" points="772.84,-707.37 769.34,-697.37 765.84,-707.37 772.84,-707.37"/>
<text text-anchor="start" x="773.34" y="-722" font-family="Courier New" font-weight="bold" font-size="10.00" fill="blue">SIGNAL(WIP2,SIG_SHOW)</text>
</g>
<!-- 30&#45;&gt;50 -->
<g id="edge12" class="edge">
<title>30&#45;&gt;50</title>
<path fill="none" stroke="black" d="M429.34,-280.19C429.34,-266.64 429.34,-247.29 429.34,-231.35"/>
<polygon fill="black" stroke="black" points="432.84,-231.49 429.34,-221.49 425.84,-231.49 432.84,-231.49"/>
<text text-anchor="start" x="433.34" y="-246" font-family="Courier New" font-weight="bold" font-size="10.00" fill="orange">WAIT(0,SIG_BOMB)</text>
</g>
<!-- 30&#45;&gt;30 -->
<g id="edge11" class="edge">
<title>30&#45;&gt;30</title>
<path fill="none" stroke="black" d="M456.14,-307.35C466.12,-307.66 474.34,-304.54 474.34,-298 474.34,-294.22 471.6,-291.58 467.35,-290.09"/>
<polygon fill="black" stroke="black" points="468.01,-286.64 457.64,-288.84 467.11,-293.58 468.01,-286.64"/>
<polygon fill="none" stroke="black" points="477.34,-299 477.34,-317 675.34,-317 675.34,-299 477.34,-299"/>
<text text-anchor="start" x="519.34" y="-306" font-family="Courier New" font-weight="bold" font-size="10.00" fill="orange">GRAB(0,IDD_EYEWAND)</text>
<polygon fill="none" stroke="black" points="477.34,-279 477.34,-297 675.34,-297 675.34,-279 477.34,-279"/>
<text text-anchor="start" x="480.34" y="-285" font-family="Courier New" font-size="10.00" fill="blue">SIGNALi(SIG_COMPLETE,REC_EYEOG);</text>
<polygon fill="none" stroke="black" points="474.34,-276 474.34,-320 678.34,-320 678.34,-276 474.34,-276"/>
</g>
<!-- 7 -->
<g id="node13" class="node">
<title>7</title>
<polyline fill="none" stroke="darkred" stroke-width="3" points="761.84,-570.5 776.84,-570.5"/>
<text text-anchor="start" x="765.34" y="-578.4" font-family="Courier New" font-weight="bold" font-size="14.00">7</text>
<path fill="none" stroke="darkred" stroke-width="3" d="M765.18,-565.5C765.18,-565.5 773.51,-565.5 773.51,-565.5 777.68,-565.5 781.84,-569.67 781.84,-573.83 781.84,-573.83 781.84,-590.17 781.84,-590.17 781.84,-594.33 777.68,-598.5 773.51,-598.5 773.51,-598.5 765.18,-598.5 765.18,-598.5 761.01,-598.5 756.84,-594.33 756.84,-590.17 756.84,-590.17 756.84,-573.83 756.84,-573.83 756.84,-569.67 761.01,-565.5 765.18,-565.5"/>
</g>
<!-- 6&#45;&gt;7 -->
<g id="edge17" class="edge">
<title>6&#45;&gt;7</title>
<path fill="none" stroke="black" d="M769.34,-660.19C769.34,-647.78 769.34,-630.48 769.34,-615.41"/>
<polygon fill="black" stroke="black" points="772.84,-615.45 769.34,-605.45 765.84,-615.45 772.84,-615.45"/>
<text text-anchor="start" x="773.34" y="-630" font-family="Courier New" font-weight="bold" font-size="10.00" fill="blue">SIGNAL(WIP3,SIG_SHOW)</text>
</g>
<!-- 52 -->
<g id="node12" class="node">
<title>52</title>
<polyline fill="none" stroke="darkred" points="914.34,-7 936.34,-7"/>
<text text-anchor="start" x="917.34" y="-14.4" font-family="Courier New" font-weight="bold" font-size="14.00">52</text>
<path fill="none" stroke="darkred" d="M920.68,-4C920.68,-4 930.01,-4 930.01,-4 934.68,-4 939.34,-8.67 939.34,-13.33 939.34,-13.33 939.34,-22.67 939.34,-22.67 939.34,-27.33 934.68,-32 930.01,-32 930.01,-32 920.68,-32 920.68,-32 916.01,-32 911.34,-27.33 911.34,-22.67 911.34,-22.67 911.34,-13.33 911.34,-13.33 911.34,-8.67 916.01,-4 920.68,-4"/>
</g>
<!-- 51&#45;&gt;52 -->
<g id="edge15" class="edge">
<title>51&#45;&gt;52</title>
<path fill="none" stroke="black" d="M758.32,-96.49C792.2,-80.77 850.48,-53.73 888.46,-36.11"/>
<polygon fill="black" stroke="black" points="889.63,-39.43 897.23,-32.04 886.68,-33.08 889.63,-39.43"/>
<text text-anchor="start" x="850.34" y="-62" font-family="Courier New" font-weight="bold" font-size="10.00" fill="blue">SIGNAL(WIP2,SIG_HIDE)</text>
</g>
<!-- 52&#45;&gt;0 -->
<g id="edge16" class="edge">
<title>52&#45;&gt;0</title>
<path fill="none" stroke="black" d="M952.34,-24.28C991.74,-33.74 1060.34,-57.59 1060.34,-109 1060.34,-955 1060.34,-955 1060.34,-955 1060.34,-1012.2 997.93,-990.96 954.34,-1028 949.82,-1031.85 945.24,-1036.19 940.94,-1040.53"/>
<polygon fill="black" stroke="black" points="938.52,-1037.99 934.13,-1047.63 943.58,-1042.83 938.52,-1037.99"/>
<text text-anchor="start" x="1064.34" y="-530" font-family="Courier New" font-weight="bold" font-size="10.00" fill="blue">SIGNAL(WIP3,SIG_HIDE)</text>
</g>
<!-- 7&#45;&gt;0 -->
<g id="edge18" class="edge">
<title>7&#45;&gt;0</title>
<path fill="none" stroke="black" d="M796.13,-583.22C826.6,-584.96 875.83,-592.56 904.34,-622 921.89,-640.12 918.34,-651.78 918.34,-677 918.34,-955 918.34,-955 918.34,-955 918.34,-983 918.34,-1015 918.34,-1037.33"/>
<polygon fill="black" stroke="black" points="914.84,-1037.14 918.34,-1047.14 921.84,-1037.14 914.84,-1037.14"/>
<text text-anchor="start" x="922.34" y="-814" font-family="Courier New" font-weight="bold" font-size="10.00" fill="orange">CLICK(,)</text>
</g>
<!-- 7&#45;&gt;10 -->
<g id="edge19" class="edge">
<title>7&#45;&gt;10</title>
<path fill="none" stroke="black" d="M742.67,-569.28C704.77,-552.63 635.16,-522.06 592.3,-503.23"/>
<polygon fill="black" stroke="black" points="593.96,-500.14 583.4,-499.32 591.15,-506.55 593.96,-500.14"/>
<text text-anchor="start" x="679.34" y="-530" font-family="Courier New" font-weight="bold" font-size="10.00" fill="orange">WAIT(0,0)</text>
</g>
<!-- status -->
<g id="node14" class="node">
<title>status</title>
<polygon fill="none" stroke="black" points="963.34,-1028.5 963.34,-1104.5 1483.34,-1104.5 1483.34,-1028.5 963.34,-1028.5"/>
<polygon fill="none" stroke="black" points="974.34,-1079.5 974.34,-1097.5 1472.34,-1097.5 1472.34,-1079.5 974.34,-1079.5"/>
<text text-anchor="start" x="1193.34" y="-1086.5" font-family="Courier New" font-weight="bold" font-size="10.00">S24_BIGEYE</text>
<polygon fill="none" stroke="black" points="974.34,-1035.5 974.34,-1077.5 1472.34,-1077.5 1472.34,-1035.5 974.34,-1035.5"/>
<text text-anchor="start" x="977.34" y="-1065.5" font-family="Courier New" font-size="10.00" fill="green">VIEW::IDV_EYEC1P @pos(left:295, top:60)</text>
<text text-anchor="start" x="977.34" y="-1053.5" font-family="Courier New" font-size="10.00" fill="green">S24_BIGEYE::M24_BIGEYE(&#39;IDS_BIGEYE1&#39;,&#39;S24_ALTa_EYESPELL2&#39;,&#39;S24_ALTb_EYESPELL2&#39;,&#39;&#39;)</text>
<text text-anchor="start" x="977.34" y="-1041.5" font-family="Courier New" font-size="10.00" fill="green">{&#39;7&#39;: wSprite:bigeye1</text>
<polygon fill="none" stroke="black" points="971.34,-1032.5 971.34,-1100.5 1475.34,-1100.5 1475.34,-1032.5 971.34,-1032.5"/>
</g>
</g>
</svg>
