<?xml version="1.0" encoding="UTF-8" standalone="no"?>
<!DOCTYPE svg PUBLIC "-//W3C//DTD SVG 1.1//EN"
 "http://www.w3.org/Graphics/SVG/1.1/DTD/svg11.dtd">
<!-- Generated by graphviz version 7.1.0 (20230121.1956)
 -->
<!-- Title: Automaton Pages: 1 -->
<svg width="772pt" height="1281pt"
 viewBox="0.00 0.00 772.00 1281.00" xmlns="http://www.w3.org/2000/svg" xmlns:xlink="http://www.w3.org/1999/xlink">
<g id="graph0" class="graph" transform="scale(1 1) rotate(0) translate(4 1277)">
<title>Automaton</title>
<polygon fill="white" stroke="none" points="-4,4 -4,-1277 768,-1277 768,4 -4,4"/>
<!-- filename -->
<g id="node1" class="node">
<title>filename</title>
<polygon fill="none" stroke="black" points="0,-1208.5 0,-1260.5 190,-1260.5 190,-1208.5 0,-1208.5"/>
<polygon fill="none" stroke="black" points="11,-1235.5 11,-1253.5 179,-1253.5 179,-1235.5 11,-1235.5"/>
<text text-anchor="start" x="14" y="-1242.5" font-family="Courier New" font-weight="bold" font-size="10.00">S24_EYEPLATE2::M24_EYEPLATE</text>
<polygon fill="none" stroke="black" points="11,-1215.5 11,-1233.5 179,-1233.5 179,-1215.5 11,-1215.5"/>
<text text-anchor="start" x="49.99" y="-1221.5" font-family="Courier New" font-size="10.00" fill="brown">start state = 0</text>
<polygon fill="none" stroke="black" points="8,-1212.5 8,-1256.5 182,-1256.5 182,-1212.5 8,-1212.5"/>
</g>
<!-- 0 -->
<g id="node2" class="node">
<title>0</title>
<polyline fill="none" stroke="darkred" stroke-width="3" points="227.5,-1223 242.5,-1223"/>
<text text-anchor="start" x="231" y="-1230.9" font-family="Courier New" font-weight="bold" font-size="14.00">0</text>
<path fill="none" stroke="darkred" stroke-width="3" d="M230.83,-1218C230.83,-1218 239.17,-1218 239.17,-1218 243.33,-1218 247.5,-1222.17 247.5,-1226.33 247.5,-1226.33 247.5,-1242.67 247.5,-1242.67 247.5,-1246.83 243.33,-1251 239.17,-1251 239.17,-1251 230.83,-1251 230.83,-1251 226.67,-1251 222.5,-1246.83 222.5,-1242.67 222.5,-1242.67 222.5,-1226.33 222.5,-1226.33 222.5,-1222.17 226.67,-1218 230.83,-1218"/>
</g>
<!-- 1 -->
<g id="node3" class="node">
<title>1</title>
<polyline fill="none" stroke="darkred" points="149,-1111 163,-1111"/>
<text text-anchor="start" x="152" y="-1118.4" font-family="Courier New" font-weight="bold" font-size="14.00">1</text>
<path fill="none" stroke="darkred" d="M152.67,-1108C152.67,-1108 159.33,-1108 159.33,-1108 162.67,-1108 166,-1111.33 166,-1114.67 166,-1114.67 166,-1129.33 166,-1129.33 166,-1132.67 162.67,-1136 159.33,-1136 159.33,-1136 152.67,-1136 152.67,-1136 149.33,-1136 146,-1132.67 146,-1129.33 146,-1129.33 146,-1114.67 146,-1114.67 146,-1111.33 149.33,-1108 152.67,-1108"/>
</g>
<!-- 0&#45;&gt;1 -->
<g id="edge1" class="edge">
<title>0&#45;&gt;1</title>
<path fill="none" stroke="black" d="M216.08,-1212.74C210.71,-1207.14 204.76,-1201.2 199,-1196 189.37,-1187.3 183.62,-1188.51 176,-1178 170.06,-1169.82 165.72,-1159.68 162.62,-1150.35"/>
<polygon fill="black" stroke="black" points="166.06,-1149.61 159.88,-1141 159.34,-1151.59 166.06,-1149.61"/>
<text text-anchor="start" x="180" y="-1166" font-family="Courier New" font-weight="bold" font-size="10.00" fill="orange">DROP(0,IDD_EYEFUSE)</text>
</g>
<!-- 2 -->
<g id="node4" class="node">
<title>2</title>
<polyline fill="none" stroke="darkred" points="136,-1019 150,-1019"/>
<text text-anchor="start" x="139" y="-1026.4" font-family="Courier New" font-weight="bold" font-size="14.00">2</text>
<path fill="none" stroke="darkred" d="M139.67,-1016C139.67,-1016 146.33,-1016 146.33,-1016 149.67,-1016 153,-1019.33 153,-1022.67 153,-1022.67 153,-1037.33 153,-1037.33 153,-1040.67 149.67,-1044 146.33,-1044 146.33,-1044 139.67,-1044 139.67,-1044 136.33,-1044 133,-1040.67 133,-1037.33 133,-1037.33 133,-1022.67 133,-1022.67 133,-1019.33 136.33,-1016 139.67,-1016"/>
</g>
<!-- 1&#45;&gt;2 -->
<g id="edge2" class="edge">
<title>1&#45;&gt;2</title>
<path fill="none" stroke="black" d="M153.55,-1104.07C151.72,-1091.38 149.17,-1073.71 147.04,-1058.94"/>
<polygon fill="black" stroke="black" points="150.54,-1058.75 145.65,-1049.35 143.62,-1059.75 150.54,-1058.75"/>
<text text-anchor="start" x="155" y="-1074" font-family="Courier New" font-weight="bold" font-size="10.00" fill="blue">SIGNALi(0,S24_BIGEYE)</text>
</g>
<!-- 3 -->
<g id="node5" class="node">
<title>3</title>
<polyline fill="none" stroke="darkred" points="133,-927 147,-927"/>
<text text-anchor="start" x="136" y="-934.4" font-family="Courier New" font-weight="bold" font-size="14.00">3</text>
<path fill="none" stroke="darkred" d="M136.67,-924C136.67,-924 143.33,-924 143.33,-924 146.67,-924 150,-927.33 150,-930.67 150,-930.67 150,-945.33 150,-945.33 150,-948.67 146.67,-952 143.33,-952 143.33,-952 136.67,-952 136.67,-952 133.33,-952 130,-948.67 130,-945.33 130,-945.33 130,-930.67 130,-930.67 130,-927.33 133.33,-924 136.67,-924"/>
</g>
<!-- 2&#45;&gt;3 -->
<g id="edge3" class="edge">
<title>2&#45;&gt;3</title>
<path fill="none" stroke="black" d="M142.44,-1012.07C142.01,-999.38 141.42,-981.71 140.93,-966.94"/>
<polygon fill="black" stroke="black" points="144.44,-967.24 140.61,-957.37 137.45,-967.48 144.44,-967.24"/>
<text text-anchor="start" x="146" y="-982" font-family="Courier New" font-weight="bold" font-size="10.00" fill="blue">C_ACCEPT(0,IDC_BOMB)</text>
</g>
<!-- 4 -->
<g id="node6" class="node">
<title>4</title>
<polyline fill="none" stroke="darkred" points="132,-835 146,-835"/>
<text text-anchor="start" x="135" y="-842.4" font-family="Courier New" font-weight="bold" font-size="14.00">4</text>
<path fill="none" stroke="darkred" d="M135.67,-832C135.67,-832 142.33,-832 142.33,-832 145.67,-832 149,-835.33 149,-838.67 149,-838.67 149,-853.33 149,-853.33 149,-856.67 145.67,-860 142.33,-860 142.33,-860 135.67,-860 135.67,-860 132.33,-860 129,-856.67 129,-853.33 129,-853.33 129,-838.67 129,-838.67 129,-835.33 132.33,-832 135.67,-832"/>
</g>
<!-- 3&#45;&gt;4 -->
<g id="edge4" class="edge">
<title>3&#45;&gt;4</title>
<path fill="none" stroke="black" d="M139.81,-920.07C139.67,-907.38 139.47,-889.71 139.31,-874.94"/>
<polygon fill="black" stroke="black" points="142.82,-875.33 139.2,-865.37 135.82,-875.4 142.82,-875.33"/>
<text text-anchor="start" x="144" y="-890" font-family="Courier New" font-weight="bold" font-size="10.00" fill="blue">ASHOW(0,IDS_EYEPLATE)</text>
</g>
<!-- 5 -->
<g id="node7" class="node">
<title>5</title>
<polyline fill="none" stroke="darkred" points="132,-743 146,-743"/>
<text text-anchor="start" x="135" y="-750.4" font-family="Courier New" font-weight="bold" font-size="14.00">5</text>
<path fill="none" stroke="darkred" d="M135.67,-740C135.67,-740 142.33,-740 142.33,-740 145.67,-740 149,-743.33 149,-746.67 149,-746.67 149,-761.33 149,-761.33 149,-764.67 145.67,-768 142.33,-768 142.33,-768 135.67,-768 135.67,-768 132.33,-768 129,-764.67 129,-761.33 129,-761.33 129,-746.67 129,-746.67 129,-743.33 132.33,-740 135.67,-740"/>
</g>
<!-- 4&#45;&gt;5 -->
<g id="edge5" class="edge">
<title>4&#45;&gt;5</title>
<path fill="none" stroke="black" d="M139,-828.07C139,-815.38 139,-797.71 139,-782.94"/>
<polygon fill="black" stroke="black" points="142.5,-783.37 139,-773.37 135.5,-783.37 142.5,-783.37"/>
<text text-anchor="start" x="143" y="-798" font-family="Courier New" font-weight="bold" font-size="10.00" fill="blue">SIGNAL(WIP1,SIG_SHOW)</text>
</g>
<!-- 6 -->
<g id="node8" class="node">
<title>6</title>
<polyline fill="none" stroke="darkred" points="132,-651 146,-651"/>
<text text-anchor="start" x="135" y="-658.4" font-family="Courier New" font-weight="bold" font-size="14.00">6</text>
<path fill="none" stroke="darkred" d="M135.67,-648C135.67,-648 142.33,-648 142.33,-648 145.67,-648 149,-651.33 149,-654.67 149,-654.67 149,-669.33 149,-669.33 149,-672.67 145.67,-676 142.33,-676 142.33,-676 135.67,-676 135.67,-676 132.33,-676 129,-672.67 129,-669.33 129,-669.33 129,-654.67 129,-654.67 129,-651.33 132.33,-648 135.67,-648"/>
</g>
<!-- 5&#45;&gt;6 -->
<g id="edge6" class="edge">
<title>5&#45;&gt;6</title>
<path fill="none" stroke="black" d="M139,-736.07C139,-723.38 139,-705.71 139,-690.94"/>
<polygon fill="black" stroke="black" points="142.5,-691.37 139,-681.37 135.5,-691.37 142.5,-691.37"/>
<text text-anchor="start" x="143" y="-706" font-family="Courier New" font-weight="bold" font-size="10.00" fill="blue">SIGNAL(WIP2,SIG_SHOW)</text>
</g>
<!-- 50 -->
<g id="node9" class="node">
<title>50</title>
<polyline fill="none" stroke="darkred" points="128,-559 150,-559"/>
<text text-anchor="start" x="131" y="-566.4" font-family="Courier New" font-weight="bold" font-size="14.00">50</text>
<path fill="none" stroke="darkred" d="M134.33,-556C134.33,-556 143.67,-556 143.67,-556 148.33,-556 153,-560.67 153,-565.33 153,-565.33 153,-574.67 153,-574.67 153,-579.33 148.33,-584 143.67,-584 143.67,-584 134.33,-584 134.33,-584 129.67,-584 125,-579.33 125,-574.67 125,-574.67 125,-565.33 125,-565.33 125,-560.67 129.67,-556 134.33,-556"/>
</g>
<!-- 6&#45;&gt;50 -->
<g id="edge14" class="edge">
<title>6&#45;&gt;50</title>
<path fill="none" stroke="black" d="M139,-644.07C139,-631.38 139,-613.71 139,-598.94"/>
<polygon fill="black" stroke="black" points="142.5,-599.37 139,-589.37 135.5,-599.37 142.5,-599.37"/>
<text text-anchor="start" x="143" y="-614" font-family="Courier New" font-weight="bold" font-size="10.00" fill="orange">DROP(0,0)</text>
</g>
<!-- 51 -->
<g id="node10" class="node">
<title>51</title>
<polyline fill="none" stroke="darkred" points="128,-467 150,-467"/>
<text text-anchor="start" x="131" y="-474.4" font-family="Courier New" font-weight="bold" font-size="14.00">51</text>
<path fill="none" stroke="darkred" d="M134.33,-464C134.33,-464 143.67,-464 143.67,-464 148.33,-464 153,-468.67 153,-473.33 153,-473.33 153,-482.67 153,-482.67 153,-487.33 148.33,-492 143.67,-492 143.67,-492 134.33,-492 134.33,-492 129.67,-492 125,-487.33 125,-482.67 125,-482.67 125,-473.33 125,-473.33 125,-468.67 129.67,-464 134.33,-464"/>
</g>
<!-- 50&#45;&gt;51 -->
<g id="edge7" class="edge">
<title>50&#45;&gt;51</title>
<path fill="none" stroke="black" d="M139,-552.07C139,-539.38 139,-521.71 139,-506.94"/>
<polygon fill="black" stroke="black" points="142.5,-507.37 139,-497.37 135.5,-507.37 142.5,-507.37"/>
<text text-anchor="start" x="143" y="-522" font-family="Courier New" font-weight="bold" font-size="10.00" fill="blue">VIDEO(0,IDS_EXPLODE1)</text>
</g>
<!-- 52 -->
<g id="node11" class="node">
<title>52</title>
<polyline fill="none" stroke="darkred" points="129,-375 151,-375"/>
<text text-anchor="start" x="132" y="-382.4" font-family="Courier New" font-weight="bold" font-size="14.00">52</text>
<path fill="none" stroke="darkred" d="M135.33,-372C135.33,-372 144.67,-372 144.67,-372 149.33,-372 154,-376.67 154,-381.33 154,-381.33 154,-390.67 154,-390.67 154,-395.33 149.33,-400 144.67,-400 144.67,-400 135.33,-400 135.33,-400 130.67,-400 126,-395.33 126,-390.67 126,-390.67 126,-381.33 126,-381.33 126,-376.67 130.67,-372 135.33,-372"/>
</g>
<!-- 51&#45;&gt;52 -->
<g id="edge8" class="edge">
<title>51&#45;&gt;52</title>
<path fill="none" stroke="black" d="M139.19,-460.07C139.33,-447.38 139.53,-429.71 139.69,-414.94"/>
<polygon fill="black" stroke="black" points="143.18,-415.4 139.8,-405.37 136.18,-415.33 143.18,-415.4"/>
<text text-anchor="start" x="144" y="-430" font-family="Courier New" font-weight="bold" font-size="10.00" fill="blue">PLAYWAVE(0,SOUND_EXPLODE)</text>
</g>
<!-- 53 -->
<g id="node12" class="node">
<title>53</title>
<polyline fill="none" stroke="darkred" points="138,-283 160,-283"/>
<text text-anchor="start" x="141" y="-290.4" font-family="Courier New" font-weight="bold" font-size="14.00">53</text>
<path fill="none" stroke="darkred" d="M144.33,-280C144.33,-280 153.67,-280 153.67,-280 158.33,-280 163,-284.67 163,-289.33 163,-289.33 163,-298.67 163,-298.67 163,-303.33 158.33,-308 153.67,-308 153.67,-308 144.33,-308 144.33,-308 139.67,-308 135,-303.33 135,-298.67 135,-298.67 135,-289.33 135,-289.33 135,-284.67 139.67,-280 144.33,-280"/>
</g>
<!-- 52&#45;&gt;53 -->
<g id="edge9" class="edge">
<title>52&#45;&gt;53</title>
<path fill="none" stroke="black" d="M141.69,-368.07C142.96,-355.38 144.73,-337.71 146.21,-322.94"/>
<polygon fill="black" stroke="black" points="149.65,-323.66 147.16,-313.36 142.69,-322.96 149.65,-323.66"/>
<text text-anchor="start" x="150" y="-338" font-family="Courier New" font-weight="bold" font-size="10.00" fill="blue">SHOW(0,0)</text>
</g>
<!-- 54 -->
<g id="node13" class="node">
<title>54</title>
<polyline fill="none" stroke="darkred" points="140,-191 162,-191"/>
<text text-anchor="start" x="143" y="-198.4" font-family="Courier New" font-weight="bold" font-size="14.00">54</text>
<path fill="none" stroke="darkred" d="M146.33,-188C146.33,-188 155.67,-188 155.67,-188 160.33,-188 165,-192.67 165,-197.33 165,-197.33 165,-206.67 165,-206.67 165,-211.33 160.33,-216 155.67,-216 155.67,-216 146.33,-216 146.33,-216 141.67,-216 137,-211.33 137,-206.67 137,-206.67 137,-197.33 137,-197.33 137,-192.67 141.67,-188 146.33,-188"/>
</g>
<!-- 53&#45;&gt;54 -->
<g id="edge10" class="edge">
<title>53&#45;&gt;54</title>
<path fill="none" stroke="black" d="M149.38,-276.07C149.66,-263.38 150.05,-245.71 150.38,-230.94"/>
<polygon fill="black" stroke="black" points="153.87,-231.44 150.59,-221.37 146.87,-231.29 153.87,-231.44"/>
<text text-anchor="start" x="155" y="-246" font-family="Courier New" font-weight="bold" font-size="10.00" fill="blue">SIGNAL(WIP1,SIG_HIDE)</text>
</g>
<!-- 55 -->
<g id="node14" class="node">
<title>55</title>
<polyline fill="none" stroke="darkred" points="140,-99 162,-99"/>
<text text-anchor="start" x="143" y="-106.4" font-family="Courier New" font-weight="bold" font-size="14.00">55</text>
<path fill="none" stroke="darkred" d="M146.33,-96C146.33,-96 155.67,-96 155.67,-96 160.33,-96 165,-100.67 165,-105.33 165,-105.33 165,-114.67 165,-114.67 165,-119.33 160.33,-124 155.67,-124 155.67,-124 146.33,-124 146.33,-124 141.67,-124 137,-119.33 137,-114.67 137,-114.67 137,-105.33 137,-105.33 137,-100.67 141.67,-96 146.33,-96"/>
</g>
<!-- 54&#45;&gt;55 -->
<g id="edge11" class="edge">
<title>54&#45;&gt;55</title>
<path fill="none" stroke="black" d="M151,-184.07C151,-171.38 151,-153.71 151,-138.94"/>
<polygon fill="black" stroke="black" points="154.5,-139.37 151,-129.37 147.5,-139.37 154.5,-139.37"/>
<text text-anchor="start" x="155" y="-154" font-family="Courier New" font-weight="bold" font-size="10.00" fill="blue">SIGNAL(WIP2,SIG_HIDE)</text>
</g>
<!-- 56 -->
<g id="node15" class="node">
<title>56</title>
<polyline fill="none" stroke="darkred" points="220,-7 242,-7"/>
<text text-anchor="start" x="223" y="-14.4" font-family="Courier New" font-weight="bold" font-size="14.00">56</text>
<path fill="none" stroke="darkred" d="M226.33,-4C226.33,-4 235.67,-4 235.67,-4 240.33,-4 245,-8.67 245,-13.33 245,-13.33 245,-22.67 245,-22.67 245,-27.33 240.33,-32 235.67,-32 235.67,-32 226.33,-32 226.33,-32 221.67,-32 217,-27.33 217,-22.67 217,-22.67 217,-13.33 217,-13.33 217,-8.67 221.67,-4 226.33,-4"/>
</g>
<!-- 55&#45;&gt;56 -->
<g id="edge12" class="edge">
<title>55&#45;&gt;56</title>
<path fill="none" stroke="black" d="M146.88,-92.22C145,-80.54 144.61,-65.14 152,-54 161.35,-39.92 177.76,-31.45 193.22,-26.39"/>
<polygon fill="black" stroke="black" points="194.08,-29.78 202.74,-23.68 192.16,-23.05 194.08,-29.78"/>
<text text-anchor="start" x="156" y="-62" font-family="Courier New" font-weight="bold" font-size="10.00" fill="blue">O_ACCEPT(0,IDD_EYEFUSE)</text>
</g>
<!-- 56&#45;&gt;0 -->
<g id="edge13" class="edge">
<title>56&#45;&gt;0</title>
<path fill="none" stroke="black" d="M257.68,-27.01C271.61,-32.49 287.82,-41.14 298,-54 313.65,-73.78 312,-83.78 312,-109 312,-1123 312,-1123 312,-1123 312,-1148.22 312.57,-1157.41 298,-1178 289.67,-1189.77 282.06,-1186.74 271,-1196 267.76,-1198.71 264.51,-1201.68 261.35,-1204.72"/>
<polygon fill="black" stroke="black" points="258.93,-1202.2 254.36,-1211.76 263.89,-1207.13 258.93,-1202.2"/>
<text text-anchor="start" x="316" y="-614" font-family="Courier New" font-weight="bold" font-size="10.00" fill="blue">SIGNALi(SIG_BOMB,S24_BIGEYE)</text>
</g>
<!-- status -->
<g id="node16" class="node">
<title>status</title>
<polygon fill="none" stroke="black" points="280,-1196.5 280,-1272.5 764,-1272.5 764,-1196.5 280,-1196.5"/>
<polygon fill="none" stroke="black" points="291,-1247.5 291,-1265.5 753,-1265.5 753,-1247.5 291,-1247.5"/>
<text text-anchor="start" x="482.99" y="-1254.5" font-family="Courier New" font-weight="bold" font-size="10.00">S24_EYEPLATE2</text>
<polygon fill="none" stroke="black" points="291,-1203.5 291,-1245.5 753,-1245.5 753,-1203.5 291,-1203.5"/>
<text text-anchor="start" x="294" y="-1233.5" font-family="Courier New" font-size="10.00" fill="green">VIEW::IDV_EYEC1P @pos(left:266, top:32)</text>
<text text-anchor="start" x="294" y="-1221.5" font-family="Courier New" font-size="10.00" fill="green">S24_EYEPLATE2::M24_EYEPLATE(&#39;S24_ALTa_EYEPLATE2&#39;,&#39;S24_ALTb_EYEPLATE2&#39;,&#39;&#39;,&#39;&#39;)</text>
<text text-anchor="start" x="294" y="-1209.5" font-family="Courier New" font-size="10.00" fill="green">{&#39;0&#39;: wObject:IDD_BOMB1 wAccept:IDD_EYEFUSE</text>
<polygon fill="none" stroke="black" points="288,-1200.5 288,-1268.5 756,-1268.5 756,-1200.5 288,-1200.5"/>
</g>
</g>
</svg>
