<?xml version="1.0" encoding="UTF-8" standalone="no"?>
<!DOCTYPE svg PUBLIC "-//W3C//DTD SVG 1.1//EN"
 "http://www.w3.org/Graphics/SVG/1.1/DTD/svg11.dtd">
<!-- Generated by graphviz version 7.1.0 (20230121.1956)
 -->
<!-- Title: Automaton Pages: 1 -->
<svg width="650pt" height="277pt"
 viewBox="0.00 0.00 649.55 277.00" xmlns="http://www.w3.org/2000/svg" xmlns:xlink="http://www.w3.org/1999/xlink">
<g id="graph0" class="graph" transform="scale(1 1) rotate(0) translate(4 273)">
<title>Automaton</title>
<polygon fill="white" stroke="none" points="-4,4 -4,-273 645.55,-273 645.55,4 -4,4"/>
<!-- filename -->
<g id="node1" class="node">
<title>filename</title>
<polygon fill="none" stroke="black" points="57.55,-200.5 57.55,-252.5 229.55,-252.5 229.55,-200.5 57.55,-200.5"/>
<polygon fill="none" stroke="black" points="68.55,-227.5 68.55,-245.5 218.55,-245.5 218.55,-227.5 68.55,-227.5"/>
<text text-anchor="start" x="71.55" y="-234.5" font-family="Courier New" font-weight="bold" font-size="10.00">S24_EYETEXT::M24_EYETEXT</text>
<polygon fill="none" stroke="black" points="68.55,-207.5 68.55,-225.5 218.55,-225.5 218.55,-207.5 68.55,-207.5"/>
<text text-anchor="start" x="98.55" y="-213.5" font-family="Courier New" font-size="10.00" fill="brown">start state = 0</text>
<polygon fill="none" stroke="black" points="65.55,-204.5 65.55,-248.5 221.55,-248.5 221.55,-204.5 65.55,-204.5"/>
</g>
<!-- 0 -->
<g id="node2" class="node">
<title>0</title>
<polyline fill="none" stroke="darkred" points="267.55,-215.5 281.55,-215.5"/>
<text text-anchor="start" x="270.55" y="-222.9" font-family="Courier New" font-weight="bold" font-size="14.00">0</text>
<path fill="none" stroke="darkred" d="M271.22,-212.5C271.22,-212.5 277.89,-212.5 277.89,-212.5 281.22,-212.5 284.55,-215.83 284.55,-219.17 284.55,-219.17 284.55,-233.83 284.55,-233.83 284.55,-237.17 281.22,-240.5 277.89,-240.5 277.89,-240.5 271.22,-240.5 271.22,-240.5 267.89,-240.5 264.55,-237.17 264.55,-233.83 264.55,-233.83 264.55,-219.17 264.55,-219.17 264.55,-215.83 267.89,-212.5 271.22,-212.5"/>
</g>
<!-- 10 -->
<g id="node3" class="node">
<title>10</title>
<polyline fill="none" stroke="darkred" points="85.55,-99 107.55,-99"/>
<text text-anchor="start" x="88.55" y="-106.4" font-family="Courier New" font-weight="bold" font-size="14.00">10</text>
<path fill="none" stroke="darkred" d="M91.89,-96C91.89,-96 101.22,-96 101.22,-96 105.89,-96 110.55,-100.67 110.55,-105.33 110.55,-105.33 110.55,-114.67 110.55,-114.67 110.55,-119.33 105.89,-124 101.22,-124 101.22,-124 91.89,-124 91.89,-124 87.22,-124 82.55,-119.33 82.55,-114.67 82.55,-114.67 82.55,-105.33 82.55,-105.33 82.55,-100.67 87.22,-96 91.89,-96"/>
</g>
<!-- 0&#45;&gt;10 -->
<g id="edge1" class="edge">
<title>0&#45;&gt;10</title>
<path fill="none" stroke="black" d="M264.73,-208.87C258.46,-199.87 249.46,-189.49 238.55,-184 192.17,-160.63 40.83,-204.11 5.55,-166 -14.39,-144.46 25.56,-128.46 58.69,-119.42"/>
<polygon fill="black" stroke="black" points="59.28,-122.88 68.1,-117.01 57.54,-116.1 59.28,-122.88"/>
<text text-anchor="start" x="9.55" y="-154" font-family="Courier New" font-weight="bold" font-size="10.00" fill="orange">DRAG(0,IDD_EYEWAND)</text>
</g>
<!-- 20 -->
<g id="node4" class="node">
<title>20</title>
<polyline fill="none" stroke="darkred" points="263.55,-99 285.55,-99"/>
<text text-anchor="start" x="266.55" y="-106.4" font-family="Courier New" font-weight="bold" font-size="14.00">20</text>
<path fill="none" stroke="darkred" d="M269.89,-96C269.89,-96 279.22,-96 279.22,-96 283.89,-96 288.55,-100.67 288.55,-105.33 288.55,-105.33 288.55,-114.67 288.55,-114.67 288.55,-119.33 283.89,-124 279.22,-124 279.22,-124 269.89,-124 269.89,-124 265.22,-124 260.55,-119.33 260.55,-114.67 260.55,-114.67 260.55,-105.33 260.55,-105.33 260.55,-100.67 265.22,-96 269.89,-96"/>
</g>
<!-- 0&#45;&gt;20 -->
<g id="edge2" class="edge">
<title>0&#45;&gt;20</title>
<path fill="none" stroke="black" d="M264.22,-208.85C257.89,-200.07 249.01,-189.92 238.55,-184 196.46,-160.15 106.85,-184.18 136.55,-146 148.74,-130.33 199.96,-120.55 236.43,-115.43"/>
<polygon fill="black" stroke="black" points="236.74,-118.92 246.19,-114.13 235.81,-111.98 236.74,-118.92"/>
<text text-anchor="start" x="140.55" y="-154" font-family="Courier New" font-weight="bold" font-size="10.00" fill="orange">DRAGFOCUS(0,FALSE)</text>
</g>
<!-- 0&#45;&gt;20 -->
<g id="edge3" class="edge">
<title>0&#45;&gt;20</title>
<path fill="none" stroke="black" d="M274.55,-208.61C274.55,-190.42 274.55,-161.2 274.55,-139.46"/>
<polygon fill="black" stroke="black" points="278.05,-139.48 274.55,-129.48 271.05,-139.48 278.05,-139.48"/>
<text text-anchor="start" x="278.55" y="-154" font-family="Courier New" font-weight="bold" font-size="10.00" fill="orange">WAIT(0,SIG_INIT)</text>
</g>
<!-- 11 -->
<g id="node5" class="node">
<title>11</title>
<polyline fill="none" stroke="darkred" points="276.55,-7 298.55,-7"/>
<text text-anchor="start" x="279.55" y="-14.4" font-family="Courier New" font-weight="bold" font-size="14.00">11</text>
<path fill="none" stroke="darkred" d="M282.89,-4C282.89,-4 292.22,-4 292.22,-4 296.89,-4 301.55,-8.67 301.55,-13.33 301.55,-13.33 301.55,-22.67 301.55,-22.67 301.55,-27.33 296.89,-32 292.22,-32 292.22,-32 282.89,-32 282.89,-32 278.22,-32 273.55,-27.33 273.55,-22.67 273.55,-22.67 273.55,-13.33 273.55,-13.33 273.55,-8.67 278.22,-4 282.89,-4"/>
</g>
<!-- 10&#45;&gt;11 -->
<g id="edge4" class="edge">
<title>10&#45;&gt;11</title>
<path fill="none" stroke="black" d="M123.51,-96.3C156.79,-80.62 213.52,-53.88 250.77,-36.33"/>
<polygon fill="black" stroke="black" points="251.81,-39.71 259.36,-32.28 248.82,-33.38 251.81,-39.71"/>
<text text-anchor="start" x="213.55" y="-62" font-family="Courier New" font-weight="bold" font-size="10.00" fill="blue">MOV(WSPRITE,WIP1)</text>
</g>
<!-- 20&#45;&gt;0 -->
<g id="edge6" class="edge">
<title>20&#45;&gt;0</title>
<path fill="none" stroke="black" d="M301.13,-111.63C325.96,-113.81 361.8,-121.37 379.55,-146 384.75,-153.21 384.99,-158.97 379.55,-166 360.18,-191.08 337.48,-167.28 310.55,-184 303.8,-188.19 297.63,-194.05 292.38,-200.05"/>
<polygon fill="black" stroke="black" points="289.87,-197.59 286.33,-207.57 295.32,-201.97 289.87,-197.59"/>
<text text-anchor="start" x="386.55" y="-154" font-family="Courier New" font-weight="bold" font-size="10.00" fill="blue">SHOW(0,0)</text>
</g>
<!-- 11&#45;&gt;0 -->
<g id="edge5" class="edge">
<title>11&#45;&gt;0</title>
<path fill="none" stroke="black" d="M314.46,-28.86C372.14,-51.39 498.5,-109.12 448.55,-166 428.15,-189.24 337.8,-169.36 310.55,-184 303.44,-187.82 297.09,-193.65 291.79,-199.75"/>
<polygon fill="black" stroke="black" points="289.14,-197.45 285.72,-207.47 294.65,-201.77 289.14,-197.45"/>
<text text-anchor="start" x="461.55" y="-108" font-family="Courier New" font-weight="bold" font-size="10.00" fill="blue">SHOW(WSPRITE,)</text>
</g>
<!-- status -->
<g id="node6" class="node">
<title>status</title>
<polygon fill="none" stroke="black" points="319.55,-184.5 319.55,-268.5 641.55,-268.5 641.55,-184.5 319.55,-184.5"/>
<polygon fill="none" stroke="black" points="330.55,-243.5 330.55,-261.5 630.55,-261.5 630.55,-243.5 330.55,-243.5"/>
<text text-anchor="start" x="447.55" y="-250.5" font-family="Courier New" font-weight="bold" font-size="10.00">S24_EYETEXT</text>
<polygon fill="none" stroke="black" points="330.55,-211.5 330.55,-241.5 630.55,-241.5 630.55,-211.5 330.55,-211.5"/>
<text text-anchor="start" x="333.55" y="-229.5" font-family="Courier New" font-size="10.00" fill="green">S24_EYETEXT::M24_EYETEXT(&#39;IDS_EYENGLSH&#39;,&#39;&#39;,&#39;&#39;,&#39;&#39;)</text>
<text text-anchor="start" x="333.55" y="-217.5" font-family="Courier New" font-size="10.00" fill="green">{&#39;0&#39;:}</text>
<polygon fill="none" stroke="black" points="330.55,-191.5 330.55,-209.5 630.55,-209.5 630.55,-191.5 330.55,-191.5"/>
<text text-anchor="start" x="477.55" y="-197.5" font-family="Courier New" font-size="10.00" fill="blue">_</text>
<polygon fill="none" stroke="black" points="327.55,-188.5 327.55,-264.5 633.55,-264.5 633.55,-188.5 327.55,-188.5"/>
</g>
</g>
</svg>
