<?xml version="1.0" encoding="UTF-8" standalone="no"?>
<!DOCTYPE svg PUBLIC "-//W3C//DTD SVG 1.1//EN"
 "http://www.w3.org/Graphics/SVG/1.1/DTD/svg11.dtd">
<!-- Generated by graphviz version 7.1.0 (20230121.1956)
 -->
<!-- Title: Automaton Pages: 1 -->
<svg width="712pt" height="453pt"
 viewBox="0.00 0.00 712.00 453.00" xmlns="http://www.w3.org/2000/svg" xmlns:xlink="http://www.w3.org/1999/xlink">
<g id="graph0" class="graph" transform="scale(1 1) rotate(0) translate(4 449)">
<title>Automaton</title>
<polygon fill="white" stroke="none" points="-4,4 -4,-449 708,-449 708,4 -4,4"/>
<!-- filename -->
<g id="node1" class="node">
<title>filename</title>
<polygon fill="none" stroke="black" points="0,-380.5 0,-432.5 220,-432.5 220,-380.5 0,-380.5"/>
<polygon fill="none" stroke="black" points="11,-407.5 11,-425.5 209,-425.5 209,-407.5 11,-407.5"/>
<text text-anchor="start" x="14" y="-414.5" font-family="Courier New" font-weight="bold" font-size="10.00">S24_ALTb_EYEPLATE1::M_STATESCALE</text>
<polygon fill="none" stroke="black" points="11,-387.5 11,-405.5 209,-405.5 209,-387.5 11,-387.5"/>
<text text-anchor="start" x="64.99" y="-393.5" font-family="Courier New" font-size="10.00" fill="brown">start state = 0</text>
<polygon fill="none" stroke="black" points="8,-384.5 8,-428.5 212,-428.5 212,-384.5 8,-384.5"/>
</g>
<!-- 0 -->
<g id="node2" class="node">
<title>0</title>
<polyline fill="none" stroke="darkred" stroke-width="3" points="257.5,-395 272.5,-395"/>
<text text-anchor="start" x="261" y="-402.9" font-family="Courier New" font-weight="bold" font-size="14.00">0</text>
<path fill="none" stroke="darkred" stroke-width="3" d="M260.83,-390C260.83,-390 269.17,-390 269.17,-390 273.33,-390 277.5,-394.17 277.5,-398.33 277.5,-398.33 277.5,-414.67 277.5,-414.67 277.5,-418.83 273.33,-423 269.17,-423 269.17,-423 260.83,-423 260.83,-423 256.67,-423 252.5,-418.83 252.5,-414.67 252.5,-414.67 252.5,-398.33 252.5,-398.33 252.5,-394.17 256.67,-390 260.83,-390"/>
</g>
<!-- 1 -->
<g id="node3" class="node">
<title>1</title>
<polyline fill="none" stroke="darkred" points="195,-283 209,-283"/>
<text text-anchor="start" x="198" y="-290.4" font-family="Courier New" font-weight="bold" font-size="14.00">1</text>
<path fill="none" stroke="darkred" d="M198.67,-280C198.67,-280 205.33,-280 205.33,-280 208.67,-280 212,-283.33 212,-286.67 212,-286.67 212,-301.33 212,-301.33 212,-304.67 208.67,-308 205.33,-308 205.33,-308 198.67,-308 198.67,-308 195.33,-308 192,-304.67 192,-301.33 192,-301.33 192,-286.67 192,-286.67 192,-283.33 195.33,-280 198.67,-280"/>
</g>
<!-- 0&#45;&gt;1 -->
<g id="edge1" class="edge">
<title>0&#45;&gt;1</title>
<path fill="none" stroke="black" d="M245.55,-384.51C240.28,-379.03 234.51,-373.21 229,-368 220.07,-359.56 213.74,-360.87 208,-350 203.7,-341.85 201.78,-332.08 201.06,-323.05"/>
<polygon fill="black" stroke="black" points="204.57,-323.21 200.75,-313.32 197.57,-323.43 204.57,-323.21"/>
<text text-anchor="start" x="212" y="-338" font-family="Courier New" font-weight="bold" font-size="10.00" fill="orange">WAIT(0,SIG_SHOW)</text>
</g>
<!-- 5 -->
<g id="node4" class="node">
<title>5</title>
<polyline fill="none" stroke="darkred" points="195,-191 209,-191"/>
<text text-anchor="start" x="198" y="-198.4" font-family="Courier New" font-weight="bold" font-size="14.00">5</text>
<path fill="none" stroke="darkred" d="M198.67,-188C198.67,-188 205.33,-188 205.33,-188 208.67,-188 212,-191.33 212,-194.67 212,-194.67 212,-209.33 212,-209.33 212,-212.67 208.67,-216 205.33,-216 205.33,-216 198.67,-216 198.67,-216 195.33,-216 192,-212.67 192,-209.33 192,-209.33 192,-194.67 192,-194.67 192,-191.33 195.33,-188 198.67,-188"/>
</g>
<!-- 1&#45;&gt;5 -->
<g id="edge2" class="edge">
<title>1&#45;&gt;5</title>
<path fill="none" stroke="black" d="M202,-276.07C202,-263.38 202,-245.71 202,-230.94"/>
<polygon fill="black" stroke="black" points="205.5,-231.37 202,-221.37 198.5,-231.37 205.5,-231.37"/>
<text text-anchor="start" x="206" y="-246" font-family="Courier New" font-weight="bold" font-size="10.00" fill="blue">MOV(WSPRITE,WIP1)</text>
</g>
<!-- 10 -->
<g id="node5" class="node">
<title>10</title>
<polyline fill="none" stroke="darkred" points="195,-99 217,-99"/>
<text text-anchor="start" x="198" y="-106.4" font-family="Courier New" font-weight="bold" font-size="14.00">10</text>
<path fill="none" stroke="darkred" d="M201.33,-96C201.33,-96 210.67,-96 210.67,-96 215.33,-96 220,-100.67 220,-105.33 220,-105.33 220,-114.67 220,-114.67 220,-119.33 215.33,-124 210.67,-124 210.67,-124 201.33,-124 201.33,-124 196.67,-124 192,-119.33 192,-114.67 192,-114.67 192,-105.33 192,-105.33 192,-100.67 196.67,-96 201.33,-96"/>
</g>
<!-- 5&#45;&gt;10 -->
<g id="edge5" class="edge">
<title>5&#45;&gt;10</title>
<path fill="none" stroke="black" d="M202.75,-184.07C203.32,-171.38 204.1,-153.71 204.76,-138.94"/>
<polygon fill="black" stroke="black" points="208.24,-139.51 205.18,-129.36 201.24,-139.2 208.24,-139.51"/>
<text text-anchor="start" x="209" y="-154" font-family="Courier New" font-weight="bold" font-size="10.00" fill="blue">SHOW(WSPRITE,0)</text>
</g>
<!-- 11 -->
<g id="node6" class="node">
<title>11</title>
<polyline fill="none" stroke="darkred" points="255,-7 277,-7"/>
<text text-anchor="start" x="258" y="-14.4" font-family="Courier New" font-weight="bold" font-size="14.00">11</text>
<path fill="none" stroke="darkred" d="M261.33,-4C261.33,-4 270.67,-4 270.67,-4 275.33,-4 280,-8.67 280,-13.33 280,-13.33 280,-22.67 280,-22.67 280,-27.33 275.33,-32 270.67,-32 270.67,-32 261.33,-32 261.33,-32 256.67,-32 252,-27.33 252,-22.67 252,-22.67 252,-13.33 252,-13.33 252,-8.67 256.67,-4 261.33,-4"/>
</g>
<!-- 10&#45;&gt;11 -->
<g id="edge3" class="edge">
<title>10&#45;&gt;11</title>
<path fill="none" stroke="black" d="M202.68,-92.46C201.25,-80.9 201.21,-65.53 208,-54 212.97,-45.55 220.86,-38.89 229.24,-33.75"/>
<polygon fill="black" stroke="black" points="230.67,-36.95 237.81,-29.12 227.35,-30.79 230.67,-36.95"/>
<text text-anchor="start" x="212" y="-62" font-family="Courier New" font-weight="bold" font-size="10.00" fill="orange">WAIT(0,SIG_HIDE)</text>
</g>
<!-- 11&#45;&gt;0 -->
<g id="edge4" class="edge">
<title>11&#45;&gt;0</title>
<path fill="none" stroke="black" d="M292.65,-34.56C299.85,-39.91 307.01,-46.47 312,-54 325.92,-75.03 326,-83.78 326,-109 326,-295 326,-295 326,-295 326,-320.22 323.56,-327.58 312,-350 307.29,-359.13 300.83,-368.07 294.2,-376.01"/>
<polygon fill="black" stroke="black" points="291.7,-373.55 287.73,-383.37 296.96,-378.17 291.7,-373.55"/>
<text text-anchor="start" x="330" y="-200" font-family="Courier New" font-weight="bold" font-size="10.00" fill="blue">SHOW(0,0)</text>
</g>
<!-- status -->
<g id="node7" class="node">
<title>status</title>
<polygon fill="none" stroke="black" points="310,-368.5 310,-444.5 704,-444.5 704,-368.5 310,-368.5"/>
<polygon fill="none" stroke="black" points="321,-419.5 321,-437.5 693,-437.5 693,-419.5 321,-419.5"/>
<text text-anchor="start" x="452.99" y="-426.5" font-family="Courier New" font-weight="bold" font-size="10.00">S24_ALTb_EYEPLATE1</text>
<polygon fill="none" stroke="black" points="321,-375.5 321,-417.5 693,-417.5 693,-375.5 321,-375.5"/>
<text text-anchor="start" x="324" y="-405.5" font-family="Courier New" font-size="10.00" fill="green">VIEW::IDV_EYEB</text>
<text text-anchor="start" x="324" y="-393.5" font-family="Courier New" font-size="10.00" fill="green">S24_ALTb_EYEPLATE1::M_STATESCALE(&#39;IDS_EYEPLATEBSML&#39;,&#39;&#39;,&#39;&#39;,&#39;&#39;)</text>
<text text-anchor="start" x="324" y="-381.5" font-family="Courier New" font-size="10.00" fill="green">{&#39;0&#39;:</text>
<polygon fill="none" stroke="black" points="318,-372.5 318,-440.5 696,-440.5 696,-372.5 318,-372.5"/>
</g>
</g>
</svg>
