<?xml version="1.0" encoding="UTF-8" standalone="no"?>
<!DOCTYPE svg PUBLIC "-//W3C//DTD SVG 1.1//EN"
 "http://www.w3.org/Graphics/SVG/1.1/DTD/svg11.dtd">
<!-- Generated by graphviz version 7.1.0 (20230121.1956)
 -->
<!-- Title: Automaton Pages: 1 -->
<svg width="784pt" height="561pt"
 viewBox="0.00 0.00 784.00 561.00" xmlns="http://www.w3.org/2000/svg" xmlns:xlink="http://www.w3.org/1999/xlink">
<g id="graph0" class="graph" transform="scale(1 1) rotate(0) translate(4 557)">
<title>Automaton</title>
<polygon fill="white" stroke="none" points="-4,4 -4,-557 780,-557 780,4 -4,4"/>
<!-- filename -->
<g id="node1" class="node">
<title>filename</title>
<polygon fill="none" stroke="black" points="0,-484.5 0,-536.5 196,-536.5 196,-484.5 0,-484.5"/>
<polygon fill="none" stroke="black" points="11,-511.5 11,-529.5 185,-529.5 185,-511.5 11,-511.5"/>
<text text-anchor="start" x="14" y="-518.5" font-family="Courier New" font-weight="bold" font-size="10.00">S25_RUMROLL_ALT::M_STATEDOOR</text>
<polygon fill="none" stroke="black" points="11,-491.5 11,-509.5 185,-509.5 185,-491.5 11,-491.5"/>
<text text-anchor="start" x="52.99" y="-497.5" font-family="Courier New" font-size="10.00" fill="brown">start state = 0</text>
<polygon fill="none" stroke="black" points="8,-488.5 8,-532.5 188,-532.5 188,-488.5 8,-488.5"/>
</g>
<!-- 0 -->
<g id="node2" class="node">
<title>0</title>
<polyline fill="none" stroke="darkred" points="234,-499.5 248,-499.5"/>
<text text-anchor="start" x="237" y="-506.9" font-family="Courier New" font-weight="bold" font-size="14.00">0</text>
<path fill="none" stroke="darkred" d="M237.67,-496.5C237.67,-496.5 244.33,-496.5 244.33,-496.5 247.67,-496.5 251,-499.83 251,-503.17 251,-503.17 251,-517.83 251,-517.83 251,-521.17 247.67,-524.5 244.33,-524.5 244.33,-524.5 237.67,-524.5 237.67,-524.5 234.33,-524.5 231,-521.17 231,-517.83 231,-517.83 231,-503.17 231,-503.17 231,-499.83 234.33,-496.5 237.67,-496.5"/>
</g>
<!-- 1 -->
<g id="node3" class="node">
<title>1</title>
<polyline fill="none" stroke="darkred" points="170,-383 184,-383"/>
<text text-anchor="start" x="173" y="-390.4" font-family="Courier New" font-weight="bold" font-size="14.00">1</text>
<path fill="none" stroke="darkred" d="M173.67,-380C173.67,-380 180.33,-380 180.33,-380 183.67,-380 187,-383.33 187,-386.67 187,-386.67 187,-401.33 187,-401.33 187,-404.67 183.67,-408 180.33,-408 180.33,-408 173.67,-408 173.67,-408 170.33,-408 167,-404.67 167,-401.33 167,-401.33 167,-386.67 167,-386.67 167,-383.33 170.33,-380 173.67,-380"/>
</g>
<!-- 0&#45;&gt;1 -->
<g id="edge1" class="edge">
<title>0&#45;&gt;1</title>
<path fill="none" stroke="black" d="M227.81,-492.54C221.33,-484.68 213.17,-475.46 205,-468 194.89,-458.77 186.57,-462.01 180,-450 175.6,-441.95 174.07,-432.21 173.89,-423.17"/>
<polygon fill="black" stroke="black" points="177.38,-423.54 174.23,-413.42 170.38,-423.29 177.38,-423.54"/>
<text text-anchor="start" x="184" y="-438" font-family="Courier New" font-weight="bold" font-size="10.00" fill="blue">MOV(WSPRITE,WIP2)</text>
</g>
<!-- 2 -->
<g id="node4" class="node">
<title>2</title>
<polyline fill="none" stroke="darkred" points="170,-291 184,-291"/>
<text text-anchor="start" x="173" y="-298.4" font-family="Courier New" font-weight="bold" font-size="14.00">2</text>
<path fill="none" stroke="darkred" d="M173.67,-288C173.67,-288 180.33,-288 180.33,-288 183.67,-288 187,-291.33 187,-294.67 187,-294.67 187,-309.33 187,-309.33 187,-312.67 183.67,-316 180.33,-316 180.33,-316 173.67,-316 173.67,-316 170.33,-316 167,-312.67 167,-309.33 167,-309.33 167,-294.67 167,-294.67 167,-291.33 170.33,-288 173.67,-288"/>
</g>
<!-- 1&#45;&gt;2 -->
<g id="edge2" class="edge">
<title>1&#45;&gt;2</title>
<path fill="none" stroke="black" d="M177,-376.07C177,-363.38 177,-345.71 177,-330.94"/>
<polygon fill="black" stroke="black" points="180.5,-331.37 177,-321.37 173.5,-331.37 180.5,-331.37"/>
<text text-anchor="start" x="181" y="-346" font-family="Courier New" font-weight="bold" font-size="10.00" fill="blue">SHOW(WSPRITE,0)</text>
</g>
<!-- 3 -->
<g id="node6" class="node">
<title>3</title>
<polyline fill="none" stroke="darkred" points="171,-199 185,-199"/>
<text text-anchor="start" x="174" y="-206.4" font-family="Courier New" font-weight="bold" font-size="14.00">3</text>
<path fill="none" stroke="darkred" d="M174.67,-196C174.67,-196 181.33,-196 181.33,-196 184.67,-196 188,-199.33 188,-202.67 188,-202.67 188,-217.33 188,-217.33 188,-220.67 184.67,-224 181.33,-224 181.33,-224 174.67,-224 174.67,-224 171.33,-224 168,-220.67 168,-217.33 168,-217.33 168,-202.67 168,-202.67 168,-199.33 171.33,-196 174.67,-196"/>
</g>
<!-- 2&#45;&gt;3 -->
<g id="edge4" class="edge">
<title>2&#45;&gt;3</title>
<path fill="none" stroke="black" d="M177.19,-284.07C177.33,-271.38 177.53,-253.71 177.69,-238.94"/>
<polygon fill="black" stroke="black" points="181.18,-239.4 177.8,-229.37 174.18,-239.33 181.18,-239.4"/>
<text text-anchor="start" x="182" y="-254" font-family="Courier New" font-weight="bold" font-size="10.00" fill="orange">WAIT(0,SIG_OPEN)</text>
</g>
<!-- 10 -->
<g id="node5" class="node">
<title>10</title>
<polyline fill="none" stroke="darkred" stroke-width="3" points="232.5,-10.5 255.5,-10.5"/>
<text text-anchor="start" x="236" y="-18.4" font-family="Courier New" font-weight="bold" font-size="14.00">10</text>
<path fill="none" stroke="darkred" stroke-width="3" d="M238.5,-5.5C238.5,-5.5 249.5,-5.5 249.5,-5.5 255,-5.5 260.5,-11 260.5,-16.5 260.5,-16.5 260.5,-27.5 260.5,-27.5 260.5,-33 255,-38.5 249.5,-38.5 249.5,-38.5 238.5,-38.5 238.5,-38.5 233,-38.5 227.5,-33 227.5,-27.5 227.5,-27.5 227.5,-16.5 227.5,-16.5 227.5,-11 233,-5.5 238.5,-5.5"/>
</g>
<!-- 10&#45;&gt;0 -->
<g id="edge3" class="edge">
<title>10&#45;&gt;0</title>
<path fill="none" stroke="black" d="M270.64,-40.85C277.84,-46.82 285.01,-54.01 290,-62 303.36,-83.39 304,-91.78 304,-117 304,-395 304,-395 304,-395 304,-420.22 301.4,-427.5 290,-450 288,-453.95 274.94,-469.75 262.81,-484.08"/>
<polygon fill="black" stroke="black" points="260.28,-481.65 256.46,-491.54 265.61,-486.19 260.28,-481.65"/>
<text text-anchor="start" x="308" y="-254" font-family="Courier New" font-weight="bold" font-size="10.00" fill="orange">WAIT(0,SIG_CLOSE)</text>
</g>
<!-- 5 -->
<g id="node7" class="node">
<title>5</title>
<polyline fill="none" stroke="darkred" points="175,-107 189,-107"/>
<text text-anchor="start" x="178" y="-114.4" font-family="Courier New" font-weight="bold" font-size="14.00">5</text>
<path fill="none" stroke="darkred" d="M178.67,-104C178.67,-104 185.33,-104 185.33,-104 188.67,-104 192,-107.33 192,-110.67 192,-110.67 192,-125.33 192,-125.33 192,-128.67 188.67,-132 185.33,-132 185.33,-132 178.67,-132 178.67,-132 175.33,-132 172,-128.67 172,-125.33 172,-125.33 172,-110.67 172,-110.67 172,-107.33 175.33,-104 178.67,-104"/>
</g>
<!-- 3&#45;&gt;5 -->
<g id="edge5" class="edge">
<title>3&#45;&gt;5</title>
<path fill="none" stroke="black" d="M178.52,-192.15C178.88,-181.26 179.4,-166.79 180,-154 180.1,-151.77 180.22,-149.45 180.34,-147.13"/>
<polygon fill="black" stroke="black" points="183.83,-147.42 180.89,-137.24 176.84,-147.03 183.83,-147.42"/>
<text text-anchor="start" x="184" y="-162" font-family="Courier New" font-weight="bold" font-size="10.00" fill="blue">MOV(WSPRITE,WIP1)</text>
</g>
<!-- 5&#45;&gt;10 -->
<g id="edge6" class="edge">
<title>5&#45;&gt;10</title>
<path fill="none" stroke="black" d="M181.9,-100.48C182.54,-88.92 184.86,-73.56 192,-62 196.11,-55.36 201.79,-49.46 207.9,-44.38"/>
<polygon fill="black" stroke="black" points="209.91,-47.25 215.82,-38.45 205.71,-41.65 209.91,-47.25"/>
<text text-anchor="start" x="196" y="-70" font-family="Courier New" font-weight="bold" font-size="10.00" fill="blue">SHOW(WSPRITE,0)</text>
</g>
<!-- status -->
<g id="node8" class="node">
<title>status</title>
<polygon fill="none" stroke="black" points="286,-468.5 286,-552.5 776,-552.5 776,-468.5 286,-468.5"/>
<polygon fill="none" stroke="black" points="297,-527.5 297,-545.5 765,-545.5 765,-527.5 297,-527.5"/>
<text text-anchor="start" x="485.99" y="-534.5" font-family="Courier New" font-weight="bold" font-size="10.00">S25_RUMROLL_ALT</text>
<polygon fill="none" stroke="black" points="297,-495.5 297,-525.5 765,-525.5 765,-495.5 297,-495.5"/>
<text text-anchor="start" x="300" y="-513.5" font-family="Courier New" font-size="10.00" fill="green">S25_RUMROLL_ALT::M_STATEDOOR(&#39;IDS_RUMROLL_ALT_OP&#39;,&#39;IDS_RUMROLL_ALT_CL&#39;,&#39;&#39;,&#39;&#39;)</text>
<text text-anchor="start" x="300" y="-501.5" font-family="Courier New" font-size="10.00" fill="green">{&#39;10&#39;: wSprite:rumroll_alt_op}</text>
<polygon fill="none" stroke="black" points="297,-475.5 297,-493.5 765,-493.5 765,-475.5 297,-475.5"/>
<text text-anchor="start" x="528" y="-481.5" font-family="Courier New" font-size="10.00" fill="blue">_</text>
<polygon fill="none" stroke="black" points="294,-472.5 294,-548.5 768,-548.5 768,-472.5 294,-472.5"/>
</g>
</g>
</svg>
