<?xml version="1.0" encoding="UTF-8" standalone="no"?>
<!DOCTYPE svg PUBLIC "-//W3C//DTD SVG 1.1//EN"
 "http://www.w3.org/Graphics/SVG/1.1/DTD/svg11.dtd">
<!-- Generated by graphviz version 7.1.0 (20230121.1956)
 -->
<!-- Title: Automaton Pages: 1 -->
<svg width="658pt" height="853pt"
 viewBox="0.00 0.00 658.00 853.00" xmlns="http://www.w3.org/2000/svg" xmlns:xlink="http://www.w3.org/1999/xlink">
<g id="graph0" class="graph" transform="scale(1 1) rotate(0) translate(4 849)">
<title>Automaton</title>
<polygon fill="white" stroke="none" points="-4,4 -4,-849 654,-849 654,4 -4,4"/>
<!-- filename -->
<g id="node1" class="node">
<title>filename</title>
<polygon fill="none" stroke="black" points="0,-780.5 0,-832.5 154,-832.5 154,-780.5 0,-780.5"/>
<polygon fill="none" stroke="black" points="11,-807.5 11,-825.5 143,-825.5 143,-807.5 11,-807.5"/>
<text text-anchor="start" x="14" y="-814.5" font-family="Courier New" font-weight="bold" font-size="10.00">S25_OPN1::M25_OPNDOOR</text>
<polygon fill="none" stroke="black" points="11,-787.5 11,-805.5 143,-805.5 143,-787.5 11,-787.5"/>
<text text-anchor="start" x="31.99" y="-793.5" font-family="Courier New" font-size="10.00" fill="brown">start state = 0</text>
<polygon fill="none" stroke="black" points="8,-784.5 8,-828.5 146,-828.5 146,-784.5 8,-784.5"/>
</g>
<!-- 0 -->
<g id="node2" class="node">
<title>0</title>
<polyline fill="none" stroke="darkred" points="192,-795.5 206,-795.5"/>
<text text-anchor="start" x="195" y="-802.9" font-family="Courier New" font-weight="bold" font-size="14.00">0</text>
<path fill="none" stroke="darkred" d="M195.67,-792.5C195.67,-792.5 202.33,-792.5 202.33,-792.5 205.67,-792.5 209,-795.83 209,-799.17 209,-799.17 209,-813.83 209,-813.83 209,-817.17 205.67,-820.5 202.33,-820.5 202.33,-820.5 195.67,-820.5 195.67,-820.5 192.33,-820.5 189,-817.17 189,-813.83 189,-813.83 189,-799.17 189,-799.17 189,-795.83 192.33,-792.5 195.67,-792.5"/>
</g>
<!-- 10 -->
<g id="node3" class="node">
<title>10</title>
<polyline fill="none" stroke="darkred" points="188,-683 210,-683"/>
<text text-anchor="start" x="191" y="-690.4" font-family="Courier New" font-weight="bold" font-size="14.00">10</text>
<path fill="none" stroke="darkred" d="M194.33,-680C194.33,-680 203.67,-680 203.67,-680 208.33,-680 213,-684.67 213,-689.33 213,-689.33 213,-698.67 213,-698.67 213,-703.33 208.33,-708 203.67,-708 203.67,-708 194.33,-708 194.33,-708 189.67,-708 185,-703.33 185,-698.67 185,-698.67 185,-689.33 185,-689.33 185,-684.67 189.67,-680 194.33,-680"/>
</g>
<!-- 0&#45;&gt;10 -->
<g id="edge1" class="edge">
<title>0&#45;&gt;10</title>
<path fill="none" stroke="black" d="M199,-788.72C199,-771.36 199,-743.93 199,-723.23"/>
<polygon fill="black" stroke="black" points="202.5,-723.45 199,-713.45 195.5,-723.45 202.5,-723.45"/>
<text text-anchor="start" x="203" y="-738" font-family="Courier New" font-weight="bold" font-size="10.00" fill="blue">C_ACCEPT(0,IDC_BOMB)</text>
</g>
<!-- 40 -->
<g id="node4" class="node">
<title>40</title>
<polyline fill="none" stroke="darkred" points="188,-591 210,-591"/>
<text text-anchor="start" x="191" y="-598.4" font-family="Courier New" font-weight="bold" font-size="14.00">40</text>
<path fill="none" stroke="darkred" d="M194.33,-588C194.33,-588 203.67,-588 203.67,-588 208.33,-588 213,-592.67 213,-597.33 213,-597.33 213,-606.67 213,-606.67 213,-611.33 208.33,-616 203.67,-616 203.67,-616 194.33,-616 194.33,-616 189.67,-616 185,-611.33 185,-606.67 185,-606.67 185,-597.33 185,-597.33 185,-592.67 189.67,-588 194.33,-588"/>
</g>
<!-- 10&#45;&gt;40 -->
<g id="edge2" class="edge">
<title>10&#45;&gt;40</title>
<path fill="none" stroke="black" d="M199,-676.07C199,-663.38 199,-645.71 199,-630.94"/>
<polygon fill="black" stroke="black" points="202.5,-631.37 199,-621.37 195.5,-631.37 202.5,-631.37"/>
<text text-anchor="start" x="203" y="-646" font-family="Courier New" font-weight="bold" font-size="10.00" fill="orange">DROP(0,0)</text>
</g>
<!-- 50 -->
<g id="node5" class="node">
<title>50</title>
<polyline fill="none" stroke="darkred" points="188,-499 210,-499"/>
<text text-anchor="start" x="191" y="-506.4" font-family="Courier New" font-weight="bold" font-size="14.00">50</text>
<path fill="none" stroke="darkred" d="M194.33,-496C194.33,-496 203.67,-496 203.67,-496 208.33,-496 213,-500.67 213,-505.33 213,-505.33 213,-514.67 213,-514.67 213,-519.33 208.33,-524 203.67,-524 203.67,-524 194.33,-524 194.33,-524 189.67,-524 185,-519.33 185,-514.67 185,-514.67 185,-505.33 185,-505.33 185,-500.67 189.67,-496 194.33,-496"/>
</g>
<!-- 40&#45;&gt;50 -->
<g id="edge3" class="edge">
<title>40&#45;&gt;50</title>
<path fill="none" stroke="black" d="M199,-584.07C199,-571.38 199,-553.71 199,-538.94"/>
<polygon fill="black" stroke="black" points="202.5,-539.37 199,-529.37 195.5,-539.37 202.5,-539.37"/>
<text text-anchor="start" x="203" y="-554" font-family="Courier New" font-weight="bold" font-size="10.00" fill="blue">Z_EPSILON(,)</text>
</g>
<!-- 51 -->
<g id="node6" class="node">
<title>51</title>
<polyline fill="none" stroke="darkred" points="188,-407 210,-407"/>
<text text-anchor="start" x="191" y="-414.4" font-family="Courier New" font-weight="bold" font-size="14.00">51</text>
<path fill="none" stroke="darkred" d="M194.33,-404C194.33,-404 203.67,-404 203.67,-404 208.33,-404 213,-408.67 213,-413.33 213,-413.33 213,-422.67 213,-422.67 213,-427.33 208.33,-432 203.67,-432 203.67,-432 194.33,-432 194.33,-432 189.67,-432 185,-427.33 185,-422.67 185,-422.67 185,-413.33 185,-413.33 185,-408.67 189.67,-404 194.33,-404"/>
</g>
<!-- 50&#45;&gt;51 -->
<g id="edge4" class="edge">
<title>50&#45;&gt;51</title>
<path fill="none" stroke="black" d="M199,-492.07C199,-479.38 199,-461.71 199,-446.94"/>
<polygon fill="black" stroke="black" points="202.5,-447.37 199,-437.37 195.5,-447.37 202.5,-447.37"/>
<text text-anchor="start" x="203" y="-462" font-family="Courier New" font-weight="bold" font-size="10.00" fill="blue">VIDEO(0,IDS_EXPLODE1)</text>
</g>
<!-- 52 -->
<g id="node7" class="node">
<title>52</title>
<polyline fill="none" stroke="darkred" points="188,-291 210,-291"/>
<text text-anchor="start" x="191" y="-298.4" font-family="Courier New" font-weight="bold" font-size="14.00">52</text>
<path fill="none" stroke="darkred" d="M194.33,-288C194.33,-288 203.67,-288 203.67,-288 208.33,-288 213,-292.67 213,-297.33 213,-297.33 213,-306.67 213,-306.67 213,-311.33 208.33,-316 203.67,-316 203.67,-316 194.33,-316 194.33,-316 189.67,-316 185,-311.33 185,-306.67 185,-306.67 185,-297.33 185,-297.33 185,-292.67 189.67,-288 194.33,-288"/>
</g>
<!-- 51&#45;&gt;52 -->
<g id="edge5" class="edge">
<title>51&#45;&gt;52</title>
<path fill="none" stroke="black" d="M199,-400.18C199,-382.08 199,-352.98 199,-331.33"/>
<polygon fill="black" stroke="black" points="202.5,-331.4 199,-321.4 195.5,-331.4 202.5,-331.4"/>
<polygon fill="none" stroke="black" points="202,-361 202,-379 364,-379 364,-361 202,-361"/>
<text text-anchor="start" x="207.99" y="-368" font-family="Courier New" font-weight="bold" font-size="10.00" fill="blue">PLAYWAVE(0,SOUND_EXPLODE)</text>
<polygon fill="none" stroke="black" points="202,-341 202,-359 364,-359 364,-341 202,-341"/>
<text text-anchor="start" x="205" y="-347" font-family="Courier New" font-size="10.00" fill="blue">SIGNAL(WIP3,SIG_COMPLETE);</text>
<polygon fill="none" stroke="black" points="199,-338 199,-382 367,-382 367,-338 199,-338"/>
</g>
<!-- 53 -->
<g id="node8" class="node">
<title>53</title>
<polyline fill="none" stroke="darkred" points="188,-199 210,-199"/>
<text text-anchor="start" x="191" y="-206.4" font-family="Courier New" font-weight="bold" font-size="14.00">53</text>
<path fill="none" stroke="darkred" d="M194.33,-196C194.33,-196 203.67,-196 203.67,-196 208.33,-196 213,-200.67 213,-205.33 213,-205.33 213,-214.67 213,-214.67 213,-219.33 208.33,-224 203.67,-224 203.67,-224 194.33,-224 194.33,-224 189.67,-224 185,-219.33 185,-214.67 185,-214.67 185,-205.33 185,-205.33 185,-200.67 189.67,-196 194.33,-196"/>
</g>
<!-- 52&#45;&gt;53 -->
<g id="edge6" class="edge">
<title>52&#45;&gt;53</title>
<path fill="none" stroke="black" d="M199,-284.07C199,-271.38 199,-253.71 199,-238.94"/>
<polygon fill="black" stroke="black" points="202.5,-239.37 199,-229.37 195.5,-239.37 202.5,-239.37"/>
<text text-anchor="start" x="203" y="-254" font-family="Courier New" font-weight="bold" font-size="10.00" fill="blue">MOV(WSPRITE,WIP1)</text>
</g>
<!-- 70 -->
<g id="node9" class="node">
<title>70</title>
<polyline fill="none" stroke="darkred" stroke-width="3" points="187.5,-102.5 210.5,-102.5"/>
<text text-anchor="start" x="191" y="-110.4" font-family="Courier New" font-weight="bold" font-size="14.00">70</text>
<path fill="none" stroke="darkred" stroke-width="3" d="M193.5,-97.5C193.5,-97.5 204.5,-97.5 204.5,-97.5 210,-97.5 215.5,-103 215.5,-108.5 215.5,-108.5 215.5,-119.5 215.5,-119.5 215.5,-125 210,-130.5 204.5,-130.5 204.5,-130.5 193.5,-130.5 193.5,-130.5 188,-130.5 182.5,-125 182.5,-119.5 182.5,-119.5 182.5,-108.5 182.5,-108.5 182.5,-103 188,-97.5 193.5,-97.5"/>
</g>
<!-- 53&#45;&gt;70 -->
<g id="edge7" class="edge">
<title>53&#45;&gt;70</title>
<path fill="none" stroke="black" d="M199,-192.19C199,-179.78 199,-162.48 199,-147.41"/>
<polygon fill="black" stroke="black" points="202.5,-147.45 199,-137.45 195.5,-147.45 202.5,-147.45"/>
<text text-anchor="start" x="203" y="-162" font-family="Courier New" font-weight="bold" font-size="10.00" fill="blue">SHOW(WSPRITE,)</text>
</g>
<!-- 71 -->
<g id="node10" class="node">
<title>71</title>
<polyline fill="none" stroke="darkred" points="188,-7 210,-7"/>
<text text-anchor="start" x="191" y="-14.4" font-family="Courier New" font-weight="bold" font-size="14.00">71</text>
<path fill="none" stroke="darkred" d="M194.33,-4C194.33,-4 203.67,-4 203.67,-4 208.33,-4 213,-8.67 213,-13.33 213,-13.33 213,-22.67 213,-22.67 213,-27.33 208.33,-32 203.67,-32 203.67,-32 194.33,-32 194.33,-32 189.67,-32 185,-27.33 185,-22.67 185,-22.67 185,-13.33 185,-13.33 185,-8.67 189.67,-4 194.33,-4"/>
</g>
<!-- 70&#45;&gt;71 -->
<g id="edge8" class="edge">
<title>70&#45;&gt;71</title>
<path fill="none" stroke="black" d="M172.25,-95.64C165.33,-89.69 158.77,-82.38 155,-74 151.35,-65.89 151.14,-62.01 155,-54 157.21,-49.43 160.33,-45.26 163.92,-41.54"/>
<polygon fill="black" stroke="black" points="166.02,-44.35 171.17,-35.09 161.37,-39.12 166.02,-44.35"/>
<text text-anchor="start" x="159" y="-62" font-family="Courier New" font-weight="bold" font-size="10.00" fill="orange">CLICK(0,0)</text>
</g>
<!-- 71&#45;&gt;70 -->
<g id="edge9" class="edge">
<title>71&#45;&gt;70</title>
<path fill="none" stroke="black" d="M213.46,-35.72C217.33,-41.18 220.99,-47.53 223,-54 225.63,-62.49 225.42,-65.45 223,-74 222.22,-76.74 221.19,-79.49 220,-82.17"/>
<polygon fill="black" stroke="black" points="217.01,-80.32 215.44,-90.8 223.2,-83.59 217.01,-80.32"/>
<text text-anchor="start" x="228" y="-62" font-family="Courier New" font-weight="bold" font-size="10.00" fill="blue">LOADVIEW(WIP2,)</text>
</g>
<!-- status -->
<g id="node11" class="node">
<title>status</title>
<polygon fill="none" stroke="black" points="244,-768.5 244,-844.5 650,-844.5 650,-768.5 244,-768.5"/>
<polygon fill="none" stroke="black" points="255,-819.5 255,-837.5 639,-837.5 639,-819.5 255,-819.5"/>
<text text-anchor="start" x="423" y="-826.5" font-family="Courier New" font-weight="bold" font-size="10.00">S25_OPN1</text>
<polygon fill="none" stroke="black" points="255,-775.5 255,-817.5 639,-817.5 639,-775.5 255,-775.5"/>
<text text-anchor="start" x="258" y="-805.5" font-family="Courier New" font-size="10.00" fill="green">VIEW::IDV_WALL1IN @pos(left:95, top:126)</text>
<text text-anchor="start" x="258" y="-793.5" font-family="Courier New" font-size="10.00" fill="green">S25_OPN1::M25_OPNDOOR(&#39;IDS_OPN1&#39;,&#39;IDV_HIDDENR1&#39;,&#39;REC_CAVE1&#39;,&#39;&#39;)</text>
<text text-anchor="start" x="258" y="-781.5" font-family="Courier New" font-size="10.00" fill="green">{&#39;70&#39;: wObject:IDD_BOMB1 wSprite:OPN1</text>
<polygon fill="none" stroke="black" points="252,-772.5 252,-840.5 642,-840.5 642,-772.5 252,-772.5"/>
</g>
</g>
</svg>
