<?xml version="1.0" encoding="UTF-8" standalone="no"?>
<!DOCTYPE svg PUBLIC "-//W3C//DTD SVG 1.1//EN"
 "http://www.w3.org/Graphics/SVG/1.1/DTD/svg11.dtd">
<!-- Generated by graphviz version 7.1.0 (20230121.1956)
 -->
<!-- Title: Automaton Pages: 1 -->
<svg width="496pt" height="361pt"
 viewBox="0.00 0.00 496.00 361.00" xmlns="http://www.w3.org/2000/svg" xmlns:xlink="http://www.w3.org/1999/xlink">
<g id="graph0" class="graph" transform="scale(1 1) rotate(0) translate(4 357)">
<title>Automaton</title>
<polygon fill="white" stroke="none" points="-4,4 -4,-357 492,-357 492,4 -4,4"/>
<!-- filename -->
<g id="node1" class="node">
<title>filename</title>
<polygon fill="none" stroke="black" points="0,-288.5 0,-340.5 136,-340.5 136,-288.5 0,-288.5"/>
<polygon fill="none" stroke="black" points="11,-315.5 11,-333.5 125,-333.5 125,-315.5 11,-315.5"/>
<text text-anchor="start" x="14" y="-322.5" font-family="Courier New" font-weight="bold" font-size="10.00">S25_ROLL::M25_ROLL</text>
<polygon fill="none" stroke="black" points="11,-295.5 11,-313.5 125,-313.5 125,-295.5 11,-295.5"/>
<text text-anchor="start" x="22.99" y="-301.5" font-family="Courier New" font-size="10.00" fill="brown">start state = 0</text>
<polygon fill="none" stroke="black" points="8,-292.5 8,-336.5 128,-336.5 128,-292.5 8,-292.5"/>
</g>
<!-- 0 -->
<g id="node2" class="node">
<title>0</title>
<polyline fill="none" stroke="darkred" stroke-width="3" points="173.5,-303 188.5,-303"/>
<text text-anchor="start" x="177" y="-310.9" font-family="Courier New" font-weight="bold" font-size="14.00">0</text>
<path fill="none" stroke="darkred" stroke-width="3" d="M176.83,-298C176.83,-298 185.17,-298 185.17,-298 189.33,-298 193.5,-302.17 193.5,-306.33 193.5,-306.33 193.5,-322.67 193.5,-322.67 193.5,-326.83 189.33,-331 185.17,-331 185.17,-331 176.83,-331 176.83,-331 172.67,-331 168.5,-326.83 168.5,-322.67 168.5,-322.67 168.5,-306.33 168.5,-306.33 168.5,-302.17 172.67,-298 176.83,-298"/>
</g>
<!-- 1 -->
<g id="node3" class="node">
<title>1</title>
<polyline fill="none" stroke="darkred" points="88,-191 102,-191"/>
<text text-anchor="start" x="91" y="-198.4" font-family="Courier New" font-weight="bold" font-size="14.00">1</text>
<path fill="none" stroke="darkred" d="M91.67,-188C91.67,-188 98.33,-188 98.33,-188 101.67,-188 105,-191.33 105,-194.67 105,-194.67 105,-209.33 105,-209.33 105,-212.67 101.67,-216 98.33,-216 98.33,-216 91.67,-216 91.67,-216 88.33,-216 85,-212.67 85,-209.33 85,-209.33 85,-194.67 85,-194.67 85,-191.33 88.33,-188 91.67,-188"/>
</g>
<!-- 0&#45;&gt;1 -->
<g id="edge1" class="edge">
<title>0&#45;&gt;1</title>
<path fill="none" stroke="black" d="M162,-292.82C156.63,-287.23 150.7,-281.27 145,-276 135.72,-267.43 130.92,-267.84 123,-258 116.33,-249.72 110.63,-239.6 106.14,-230.31"/>
<polygon fill="black" stroke="black" points="109.39,-228.99 102.08,-221.32 103.01,-231.88 109.39,-228.99"/>
<text text-anchor="start" x="127" y="-246" font-family="Courier New" font-weight="bold" font-size="10.00" fill="orange">WAIT(0,SIG_OPEN)</text>
</g>
<!-- 2 -->
<g id="node4" class="node">
<title>2</title>
<polyline fill="none" stroke="darkred" points="63,-99 77,-99"/>
<text text-anchor="start" x="66" y="-106.4" font-family="Courier New" font-weight="bold" font-size="14.00">2</text>
<path fill="none" stroke="darkred" d="M66.67,-96C66.67,-96 73.33,-96 73.33,-96 76.67,-96 80,-99.33 80,-102.67 80,-102.67 80,-117.33 80,-117.33 80,-120.67 76.67,-124 73.33,-124 73.33,-124 66.67,-124 66.67,-124 63.33,-124 60,-120.67 60,-117.33 60,-117.33 60,-102.67 60,-102.67 60,-99.33 63.33,-96 66.67,-96"/>
</g>
<!-- 1&#45;&gt;2 -->
<g id="edge2" class="edge">
<title>1&#45;&gt;2</title>
<path fill="none" stroke="black" d="M90.3,-184.07C86.77,-171.38 81.87,-153.71 77.76,-138.94"/>
<polygon fill="black" stroke="black" points="81.14,-138.01 75.09,-129.31 74.39,-139.88 81.14,-138.01"/>
<text text-anchor="start" x="89" y="-154" font-family="Courier New" font-weight="bold" font-size="10.00" fill="blue">SHOW(,IDS_ROLL)</text>
</g>
<!-- 3 -->
<g id="node5" class="node">
<title>3</title>
<polyline fill="none" stroke="darkred" points="123,-7 137,-7"/>
<text text-anchor="start" x="126" y="-14.4" font-family="Courier New" font-weight="bold" font-size="14.00">3</text>
<path fill="none" stroke="darkred" d="M126.67,-4C126.67,-4 133.33,-4 133.33,-4 136.67,-4 140,-7.33 140,-10.67 140,-10.67 140,-25.33 140,-25.33 140,-28.67 136.67,-32 133.33,-32 133.33,-32 126.67,-32 126.67,-32 123.33,-32 120,-28.67 120,-25.33 120,-25.33 120,-10.67 120,-10.67 120,-7.33 123.33,-4 126.67,-4"/>
</g>
<!-- 2&#45;&gt;3 -->
<g id="edge3" class="edge">
<title>2&#45;&gt;3</title>
<path fill="none" stroke="black" d="M43.14,-94.72C26.55,-83.99 10.3,-68.67 21,-54 37.17,-31.82 67.63,-23.38 92.24,-20.32"/>
<polygon fill="black" stroke="black" points="92.29,-23.83 101.91,-19.38 91.62,-16.86 92.29,-23.83"/>
<text text-anchor="start" x="25" y="-62" font-family="Courier New" font-weight="bold" font-size="10.00" fill="blue">SIGNALi(SIG_OPEN,S25_RUMROLL_ALT)</text>
</g>
<!-- 3&#45;&gt;0 -->
<g id="edge4" class="edge">
<title>3&#45;&gt;0</title>
<path fill="none" stroke="black" d="M156.83,-20.55C179.68,-23.46 211.26,-31.58 227,-54 279.11,-128.2 257.75,-172.71 227,-258 224.83,-264.01 217.08,-274.05 208.54,-283.96"/>
<polygon fill="black" stroke="black" points="205.97,-281.58 201.95,-291.39 211.21,-286.22 205.97,-281.58"/>
<text text-anchor="start" x="262" y="-154" font-family="Courier New" font-weight="bold" font-size="10.00" fill="blue">ANIMATE(,)</text>
</g>
<!-- status -->
<g id="node6" class="node">
<title>status</title>
<polygon fill="none" stroke="black" points="226,-276.5 226,-352.5 488,-352.5 488,-276.5 226,-276.5"/>
<polygon fill="none" stroke="black" points="237,-327.5 237,-345.5 477,-345.5 477,-327.5 237,-327.5"/>
<text text-anchor="start" x="333" y="-334.5" font-family="Courier New" font-weight="bold" font-size="10.00">S25_ROLL</text>
<polygon fill="none" stroke="black" points="237,-283.5 237,-325.5 477,-325.5 477,-283.5 237,-283.5"/>
<text text-anchor="start" x="240" y="-313.5" font-family="Courier New" font-size="10.00" fill="green">VIEW::IDV_W4LOCK @pos(left:274, top:96)</text>
<text text-anchor="start" x="240" y="-301.5" font-family="Courier New" font-size="10.00" fill="green">S25_ROLL::M25_ROLL(&#39;&#39;,&#39;&#39;,&#39;&#39;,&#39;&#39;)</text>
<text text-anchor="start" x="240" y="-289.5" font-family="Courier New" font-size="10.00" fill="green">{&#39;0&#39;:</text>
<polygon fill="none" stroke="black" points="234,-280.5 234,-348.5 480,-348.5 480,-280.5 234,-280.5"/>
</g>
</g>
</svg>
