<?xml version="1.0" encoding="UTF-8" standalone="no"?>
<!DOCTYPE svg PUBLIC "-//W3C//DTD SVG 1.1//EN"
 "http://www.w3.org/Graphics/SVG/1.1/DTD/svg11.dtd">
<!-- Generated by graphviz version 7.1.0 (20230121.1956)
 -->
<!-- Title: Automaton Pages: 1 -->
<svg width="712pt" height="645pt"
 viewBox="0.00 0.00 712.00 645.00" xmlns="http://www.w3.org/2000/svg" xmlns:xlink="http://www.w3.org/1999/xlink">
<g id="graph0" class="graph" transform="scale(1 1) rotate(0) translate(4 641)">
<title>Automaton</title>
<polygon fill="white" stroke="none" points="-4,4 -4,-641 708,-641 708,4 -4,4"/>
<!-- filename -->
<g id="node1" class="node">
<title>filename</title>
<polygon fill="none" stroke="black" points="0,-572.5 0,-624.5 190,-624.5 190,-572.5 0,-572.5"/>
<polygon fill="none" stroke="black" points="11,-599.5 11,-617.5 179,-617.5 179,-599.5 11,-599.5"/>
<text text-anchor="start" x="14" y="-606.5" font-family="Courier New" font-weight="bold" font-size="10.00">S25_aHIDDENTEMP::M_PLANTBIN</text>
<polygon fill="none" stroke="black" points="11,-579.5 11,-597.5 179,-597.5 179,-579.5 11,-579.5"/>
<text text-anchor="start" x="49.99" y="-585.5" font-family="Courier New" font-size="10.00" fill="brown">start state = 0</text>
<polygon fill="none" stroke="black" points="8,-576.5 8,-620.5 182,-620.5 182,-576.5 8,-576.5"/>
</g>
<!-- 0 -->
<g id="node2" class="node">
<title>0</title>
<polyline fill="none" stroke="darkred" points="228,-587.5 242,-587.5"/>
<text text-anchor="start" x="231" y="-594.9" font-family="Courier New" font-weight="bold" font-size="14.00">0</text>
<path fill="none" stroke="darkred" d="M231.67,-584.5C231.67,-584.5 238.33,-584.5 238.33,-584.5 241.67,-584.5 245,-587.83 245,-591.17 245,-591.17 245,-605.83 245,-605.83 245,-609.17 241.67,-612.5 238.33,-612.5 238.33,-612.5 231.67,-612.5 231.67,-612.5 228.33,-612.5 225,-609.17 225,-605.83 225,-605.83 225,-591.17 225,-591.17 225,-587.83 228.33,-584.5 231.67,-584.5"/>
</g>
<!-- 1 -->
<g id="node3" class="node">
<title>1</title>
<polyline fill="none" stroke="darkred" points="228,-475 242,-475"/>
<text text-anchor="start" x="231" y="-482.4" font-family="Courier New" font-weight="bold" font-size="14.00">1</text>
<path fill="none" stroke="darkred" d="M231.67,-472C231.67,-472 238.33,-472 238.33,-472 241.67,-472 245,-475.33 245,-478.67 245,-478.67 245,-493.33 245,-493.33 245,-496.67 241.67,-500 238.33,-500 238.33,-500 231.67,-500 231.67,-500 228.33,-500 225,-496.67 225,-493.33 225,-493.33 225,-478.67 225,-478.67 225,-475.33 228.33,-472 231.67,-472"/>
</g>
<!-- 0&#45;&gt;1 -->
<g id="edge1" class="edge">
<title>0&#45;&gt;1</title>
<path fill="none" stroke="black" d="M235,-580.72C235,-563.36 235,-535.93 235,-515.23"/>
<polygon fill="black" stroke="black" points="238.5,-515.45 235,-505.45 231.5,-515.45 238.5,-515.45"/>
<text text-anchor="start" x="239" y="-530" font-family="Courier New" font-weight="bold" font-size="10.00" fill="blue">MOV(WSPRITE,WIP2)</text>
</g>
<!-- 5 -->
<g id="node4" class="node">
<title>5</title>
<polyline fill="none" stroke="darkred" points="228,-383 242,-383"/>
<text text-anchor="start" x="231" y="-390.4" font-family="Courier New" font-weight="bold" font-size="14.00">5</text>
<path fill="none" stroke="darkred" d="M231.67,-380C231.67,-380 238.33,-380 238.33,-380 241.67,-380 245,-383.33 245,-386.67 245,-386.67 245,-401.33 245,-401.33 245,-404.67 241.67,-408 238.33,-408 238.33,-408 231.67,-408 231.67,-408 228.33,-408 225,-404.67 225,-401.33 225,-401.33 225,-386.67 225,-386.67 225,-383.33 228.33,-380 231.67,-380"/>
</g>
<!-- 1&#45;&gt;5 -->
<g id="edge2" class="edge">
<title>1&#45;&gt;5</title>
<path fill="none" stroke="black" d="M235,-468.07C235,-455.38 235,-437.71 235,-422.94"/>
<polygon fill="black" stroke="black" points="238.5,-423.37 235,-413.37 231.5,-423.37 238.5,-423.37"/>
<text text-anchor="start" x="239" y="-438" font-family="Courier New" font-weight="bold" font-size="10.00" fill="blue">SHOW(WSPRITE,)</text>
</g>
<!-- 10 -->
<g id="node5" class="node">
<title>10</title>
<polyline fill="none" stroke="darkred" points="173,-291 195,-291"/>
<text text-anchor="start" x="176" y="-298.4" font-family="Courier New" font-weight="bold" font-size="14.00">10</text>
<path fill="none" stroke="darkred" d="M179.33,-288C179.33,-288 188.67,-288 188.67,-288 193.33,-288 198,-292.67 198,-297.33 198,-297.33 198,-306.67 198,-306.67 198,-311.33 193.33,-316 188.67,-316 188.67,-316 179.33,-316 179.33,-316 174.67,-316 170,-311.33 170,-306.67 170,-306.67 170,-297.33 170,-297.33 170,-292.67 174.67,-288 179.33,-288"/>
</g>
<!-- 5&#45;&gt;10 -->
<g id="edge7" class="edge">
<title>5&#45;&gt;10</title>
<path fill="none" stroke="black" d="M213.2,-376.23C207.55,-370.94 201.94,-364.71 198,-358 193.21,-349.85 190.04,-340.08 187.96,-331.05"/>
<polygon fill="black" stroke="black" points="191.41,-330.45 186.08,-321.3 184.53,-331.78 191.41,-330.45"/>
<text text-anchor="start" x="202" y="-346" font-family="Courier New" font-weight="bold" font-size="10.00" fill="orange">GRAB(WIP1,)</text>
</g>
<!-- 20 -->
<g id="node6" class="node">
<title>20</title>
<polyline fill="none" stroke="darkred" stroke-width="3" points="168.5,-194.5 191.5,-194.5"/>
<text text-anchor="start" x="172" y="-202.4" font-family="Courier New" font-weight="bold" font-size="14.00">20</text>
<path fill="none" stroke="darkred" stroke-width="3" d="M174.5,-189.5C174.5,-189.5 185.5,-189.5 185.5,-189.5 191,-189.5 196.5,-195 196.5,-200.5 196.5,-200.5 196.5,-211.5 196.5,-211.5 196.5,-217 191,-222.5 185.5,-222.5 185.5,-222.5 174.5,-222.5 174.5,-222.5 169,-222.5 163.5,-217 163.5,-211.5 163.5,-211.5 163.5,-200.5 163.5,-200.5 163.5,-195 169,-189.5 174.5,-189.5"/>
</g>
<!-- 10&#45;&gt;20 -->
<g id="edge3" class="edge">
<title>10&#45;&gt;20</title>
<path fill="none" stroke="black" d="M183.28,-284.19C182.76,-271.78 182.02,-254.48 181.38,-239.41"/>
<polygon fill="black" stroke="black" points="184.88,-239.29 180.96,-229.45 177.88,-239.59 184.88,-239.29"/>
<text text-anchor="start" x="186" y="-254" font-family="Courier New" font-weight="bold" font-size="10.00" fill="blue">SHOW(0,0)</text>
</g>
<!-- 30 -->
<g id="node7" class="node">
<title>30</title>
<polyline fill="none" stroke="darkred" points="162,-99 184,-99"/>
<text text-anchor="start" x="165" y="-106.4" font-family="Courier New" font-weight="bold" font-size="14.00">30</text>
<path fill="none" stroke="darkred" d="M168.33,-96C168.33,-96 177.67,-96 177.67,-96 182.33,-96 187,-100.67 187,-105.33 187,-105.33 187,-114.67 187,-114.67 187,-119.33 182.33,-124 177.67,-124 177.67,-124 168.33,-124 168.33,-124 163.67,-124 159,-119.33 159,-114.67 159,-114.67 159,-105.33 159,-105.33 159,-100.67 163.67,-96 168.33,-96"/>
</g>
<!-- 20&#45;&gt;30 -->
<g id="edge4" class="edge">
<title>20&#45;&gt;30</title>
<path fill="none" stroke="black" d="M178.45,-184.14C177.46,-170.87 176.17,-153.53 175.09,-139.06"/>
<polygon fill="black" stroke="black" points="178.59,-138.96 174.36,-129.24 171.61,-139.48 178.59,-138.96"/>
<text text-anchor="start" x="180" y="-154" font-family="Courier New" font-weight="bold" font-size="10.00" fill="blue">ESTIME(WIP3,)</text>
</g>
<!-- 40 -->
<g id="node8" class="node">
<title>40</title>
<polyline fill="none" stroke="darkred" points="212,-7 234,-7"/>
<text text-anchor="start" x="215" y="-14.4" font-family="Courier New" font-weight="bold" font-size="14.00">40</text>
<path fill="none" stroke="darkred" d="M218.33,-4C218.33,-4 227.67,-4 227.67,-4 232.33,-4 237,-8.67 237,-13.33 237,-13.33 237,-22.67 237,-22.67 237,-27.33 232.33,-32 227.67,-32 227.67,-32 218.33,-32 218.33,-32 213.67,-32 209,-27.33 209,-22.67 209,-22.67 209,-13.33 209,-13.33 209,-8.67 213.67,-4 218.33,-4"/>
</g>
<!-- 30&#45;&gt;40 -->
<g id="edge5" class="edge">
<title>30&#45;&gt;40</title>
<path fill="none" stroke="black" d="M163.85,-92.13C158.99,-80.7 155.27,-65.63 162,-54 167.44,-44.61 176.45,-37.52 185.9,-32.27"/>
<polygon fill="black" stroke="black" points="187.36,-35.45 194.82,-27.93 184.29,-29.16 187.36,-35.45"/>
<text text-anchor="start" x="166" y="-62" font-family="Courier New" font-weight="bold" font-size="10.00" fill="blue">MOV(WSPRITE,WIP2)</text>
</g>
<!-- 40&#45;&gt;5 -->
<g id="edge6" class="edge">
<title>40&#45;&gt;5</title>
<path fill="none" stroke="black" d="M249.86,-33.22C258.03,-38.72 266.33,-45.72 272,-54 286.24,-74.82 286,-83.78 286,-109 286,-303 286,-303 286,-303 286,-328.22 284.78,-336.25 272,-358 269.91,-361.56 267.34,-364.99 264.55,-368.22"/>
<polygon fill="black" stroke="black" points="262.29,-365.52 257.85,-375.14 267.32,-370.39 262.29,-365.52"/>
<text text-anchor="start" x="290" y="-204" font-family="Courier New" font-weight="bold" font-size="10.00" fill="blue">SHOW(WSPRITE,)</text>
</g>
<!-- status -->
<g id="node9" class="node">
<title>status</title>
<polygon fill="none" stroke="black" points="280,-560.5 280,-636.5 704,-636.5 704,-560.5 280,-560.5"/>
<polygon fill="none" stroke="black" points="291,-611.5 291,-629.5 693,-629.5 693,-611.5 291,-611.5"/>
<text text-anchor="start" x="446.99" y="-618.5" font-family="Courier New" font-weight="bold" font-size="10.00">S25_aHIDDENTEMP</text>
<polygon fill="none" stroke="black" points="291,-567.5 291,-609.5 693,-609.5 693,-567.5 291,-567.5"/>
<text text-anchor="start" x="294" y="-597.5" font-family="Courier New" font-size="10.00" fill="green">VIEW::IDV_HIDDENR1 @pos(left:2638, top:217)</text>
<text text-anchor="start" x="294" y="-585.5" font-family="Courier New" font-size="10.00" fill="green">S25_aHIDDENTEMP::M_PLANTBIN(&#39;IDD_TEMPLATE_24&#39;,&#39;IDS_HR1TA&#39;,&#39;60&#39;,&#39;&#39;)</text>
<text text-anchor="start" x="294" y="-573.5" font-family="Courier New" font-size="10.00" fill="green">{&#39;20&#39;: wSprite:</text>
<polygon fill="none" stroke="black" points="288,-564.5 288,-632.5 696,-632.5 696,-564.5 288,-564.5"/>
</g>
</g>
</svg>
