<?xml version="1.0" encoding="UTF-8" standalone="no"?>
<!DOCTYPE svg PUBLIC "-//W3C//DTD SVG 1.1//EN"
 "http://www.w3.org/Graphics/SVG/1.1/DTD/svg11.dtd">
<!-- Generated by graphviz version 7.1.0 (20230121.1956)
 -->
<!-- Title: Automaton Pages: 1 -->
<svg width="568pt" height="677pt"
 viewBox="0.00 0.00 568.00 677.00" xmlns="http://www.w3.org/2000/svg" xmlns:xlink="http://www.w3.org/1999/xlink">
<g id="graph0" class="graph" transform="scale(1 1) rotate(0) translate(4 673)">
<title>Automaton</title>
<polygon fill="white" stroke="none" points="-4,4 -4,-673 564,-673 564,4 -4,4"/>
<!-- filename -->
<g id="node1" class="node">
<title>filename</title>
<polygon fill="none" stroke="black" points="0,-600.5 0,-652.5 166,-652.5 166,-600.5 0,-600.5"/>
<polygon fill="none" stroke="black" points="11,-627.5 11,-645.5 155,-645.5 155,-627.5 11,-627.5"/>
<text text-anchor="start" x="14" y="-634.5" font-family="Courier New" font-weight="bold" font-size="10.00">S27_MEMSTONE1::M_MEMORY</text>
<polygon fill="none" stroke="black" points="11,-607.5 11,-625.5 155,-625.5 155,-607.5 11,-607.5"/>
<text text-anchor="start" x="37.99" y="-613.5" font-family="Courier New" font-size="10.00" fill="brown">start state = 0</text>
<polygon fill="none" stroke="black" points="8,-604.5 8,-648.5 158,-648.5 158,-604.5 8,-604.5"/>
</g>
<!-- 0 -->
<g id="node2" class="node">
<title>0</title>
<polyline fill="none" stroke="darkred" points="204,-615.5 218,-615.5"/>
<text text-anchor="start" x="207" y="-622.9" font-family="Courier New" font-weight="bold" font-size="14.00">0</text>
<path fill="none" stroke="darkred" d="M207.67,-612.5C207.67,-612.5 214.33,-612.5 214.33,-612.5 217.67,-612.5 221,-615.83 221,-619.17 221,-619.17 221,-633.83 221,-633.83 221,-637.17 217.67,-640.5 214.33,-640.5 214.33,-640.5 207.67,-640.5 207.67,-640.5 204.33,-640.5 201,-637.17 201,-633.83 201,-633.83 201,-619.17 201,-619.17 201,-615.83 204.33,-612.5 207.67,-612.5"/>
</g>
<!-- 1 -->
<g id="node3" class="node">
<title>1</title>
<polyline fill="none" stroke="darkred" points="117,-499 131,-499"/>
<text text-anchor="start" x="120" y="-506.4" font-family="Courier New" font-weight="bold" font-size="14.00">1</text>
<path fill="none" stroke="darkred" d="M120.67,-496C120.67,-496 127.33,-496 127.33,-496 130.67,-496 134,-499.33 134,-502.67 134,-502.67 134,-517.33 134,-517.33 134,-520.67 130.67,-524 127.33,-524 127.33,-524 120.67,-524 120.67,-524 117.33,-524 114,-520.67 114,-517.33 114,-517.33 114,-502.67 114,-502.67 114,-499.33 117.33,-496 120.67,-496"/>
</g>
<!-- 0&#45;&gt;1 -->
<g id="edge1" class="edge">
<title>0&#45;&gt;1</title>
<path fill="none" stroke="black" d="M196.79,-608.8C190.23,-601.17 182.3,-592.06 175,-584 167.62,-575.84 164.71,-574.72 158,-566 151.24,-557.2 144.63,-547.01 139.07,-537.8"/>
<polygon fill="black" stroke="black" points="142.13,-536.1 134.04,-529.25 136.1,-539.64 142.13,-536.1"/>
<text text-anchor="start" x="162" y="-554" font-family="Courier New" font-weight="bold" font-size="10.00" fill="orange">WAIT(,SIG_SHOW)</text>
</g>
<!-- 2 -->
<g id="node4" class="node">
<title>2</title>
<polyline fill="none" stroke="darkred" points="113,-407 127,-407"/>
<text text-anchor="start" x="116" y="-414.4" font-family="Courier New" font-weight="bold" font-size="14.00">2</text>
<path fill="none" stroke="darkred" d="M116.67,-404C116.67,-404 123.33,-404 123.33,-404 126.67,-404 130,-407.33 130,-410.67 130,-410.67 130,-425.33 130,-425.33 130,-428.67 126.67,-432 123.33,-432 123.33,-432 116.67,-432 116.67,-432 113.33,-432 110,-428.67 110,-425.33 110,-425.33 110,-410.67 110,-410.67 110,-407.33 113.33,-404 116.67,-404"/>
</g>
<!-- 1&#45;&gt;2 -->
<g id="edge2" class="edge">
<title>1&#45;&gt;2</title>
<path fill="none" stroke="black" d="M123.25,-492.07C122.68,-479.38 121.9,-461.71 121.24,-446.94"/>
<polygon fill="black" stroke="black" points="124.76,-447.2 120.82,-437.36 117.76,-447.51 124.76,-447.2"/>
<text text-anchor="start" x="127" y="-462" font-family="Courier New" font-weight="bold" font-size="10.00" fill="blue">RAND(8,0)</text>
</g>
<!-- 3 -->
<g id="node5" class="node">
<title>3</title>
<polyline fill="none" stroke="darkred" points="85,-315 99,-315"/>
<text text-anchor="start" x="88" y="-322.4" font-family="Courier New" font-weight="bold" font-size="14.00">3</text>
<path fill="none" stroke="darkred" d="M88.67,-312C88.67,-312 95.33,-312 95.33,-312 98.67,-312 102,-315.33 102,-318.67 102,-318.67 102,-333.33 102,-333.33 102,-336.67 98.67,-340 95.33,-340 95.33,-340 88.67,-340 88.67,-340 85.33,-340 82,-336.67 82,-333.33 82,-333.33 82,-318.67 82,-318.67 82,-315.33 85.33,-312 88.67,-312"/>
</g>
<!-- 2&#45;&gt;3 -->
<g id="edge3" class="edge">
<title>2&#45;&gt;3</title>
<path fill="none" stroke="black" d="M114.73,-400.07C110.74,-387.25 105.18,-369.36 100.56,-354.5"/>
<polygon fill="black" stroke="black" points="104.01,-353.81 97.69,-345.3 97.32,-355.89 104.01,-353.81"/>
<text text-anchor="start" x="113" y="-370" font-family="Courier New" font-weight="bold" font-size="10.00" fill="blue">MOV(BFRAME,WRAND)</text>
</g>
<!-- 4 -->
<g id="node6" class="node">
<title>4</title>
<polyline fill="none" stroke="darkred" stroke-width="3" points="61.5,-194.5 76.5,-194.5"/>
<text text-anchor="start" x="65" y="-202.4" font-family="Courier New" font-weight="bold" font-size="14.00">4</text>
<path fill="none" stroke="darkred" stroke-width="3" d="M64.83,-189.5C64.83,-189.5 73.17,-189.5 73.17,-189.5 77.33,-189.5 81.5,-193.67 81.5,-197.83 81.5,-197.83 81.5,-214.17 81.5,-214.17 81.5,-218.33 77.33,-222.5 73.17,-222.5 73.17,-222.5 64.83,-222.5 64.83,-222.5 60.67,-222.5 56.5,-218.33 56.5,-214.17 56.5,-214.17 56.5,-197.83 56.5,-197.83 56.5,-193.67 60.67,-189.5 64.83,-189.5"/>
</g>
<!-- 3&#45;&gt;4 -->
<g id="edge4" class="edge">
<title>3&#45;&gt;4</title>
<path fill="none" stroke="black" d="M65.22,-313.68C55.45,-308.08 45.47,-300.28 40,-290 30.81,-272.74 33.85,-264.56 40,-246 40.96,-243.1 42.23,-240.23 43.7,-237.46"/>
<polygon fill="black" stroke="black" points="46.57,-239.48 48.93,-229.15 40.64,-235.75 46.57,-239.48"/>
<polygon fill="none" stroke="black" points="43,-269 43,-287 253,-287 253,-269 43,-269"/>
<text text-anchor="start" x="114.99" y="-276" font-family="Courier New" font-weight="bold" font-size="10.00" fill="blue">SHOW(WIP1,)</text>
<polygon fill="none" stroke="black" points="43,-249 43,-267 253,-267 253,-249 43,-249"/>
<text text-anchor="start" x="46" y="-255" font-family="Courier New" font-size="10.00" fill="blue">MOV(BPARM,BFRAME);ASSIGN(WPARM,1);</text>
<polygon fill="none" stroke="black" points="40,-246 40,-290 256,-290 256,-246 40,-246"/>
</g>
<!-- 5 -->
<g id="node7" class="node">
<title>5</title>
<polyline fill="none" stroke="darkred" points="150,-99 164,-99"/>
<text text-anchor="start" x="153" y="-106.4" font-family="Courier New" font-weight="bold" font-size="14.00">5</text>
<path fill="none" stroke="darkred" d="M153.67,-96C153.67,-96 160.33,-96 160.33,-96 163.67,-96 167,-99.33 167,-102.67 167,-102.67 167,-117.33 167,-117.33 167,-120.67 163.67,-124 160.33,-124 160.33,-124 153.67,-124 153.67,-124 150.33,-124 147,-120.67 147,-117.33 147,-117.33 147,-102.67 147,-102.67 147,-99.33 150.33,-96 153.67,-96"/>
</g>
<!-- 4&#45;&gt;5 -->
<g id="edge5" class="edge">
<title>4&#45;&gt;5</title>
<path fill="none" stroke="black" d="M88.53,-184.14C101.82,-169.94 119.48,-151.08 133.54,-136.06"/>
<polygon fill="black" stroke="black" points="136.02,-138.53 140.3,-128.84 130.91,-133.75 136.02,-138.53"/>
<text text-anchor="start" x="128" y="-154" font-family="Courier New" font-weight="bold" font-size="10.00" fill="orange">WAIT(,SIG_HIDE)</text>
</g>
<!-- 6 -->
<g id="node8" class="node">
<title>6</title>
<polyline fill="none" stroke="darkred" points="206,-7 220,-7"/>
<text text-anchor="start" x="209" y="-14.4" font-family="Courier New" font-weight="bold" font-size="14.00">6</text>
<path fill="none" stroke="darkred" d="M209.67,-4C209.67,-4 216.33,-4 216.33,-4 219.67,-4 223,-7.33 223,-10.67 223,-10.67 223,-25.33 223,-25.33 223,-28.67 219.67,-32 216.33,-32 216.33,-32 209.67,-32 209.67,-32 206.33,-32 203,-28.67 203,-25.33 203,-25.33 203,-10.67 203,-10.67 203,-7.33 206.33,-4 209.67,-4"/>
</g>
<!-- 5&#45;&gt;6 -->
<g id="edge6" class="edge">
<title>5&#45;&gt;6</title>
<path fill="none" stroke="black" d="M153.33,-92.04C151.77,-80.58 151.55,-65.49 158,-54 162.36,-46.23 169.24,-39.92 176.68,-34.92"/>
<polygon fill="black" stroke="black" points="178.12,-38.14 184.95,-30.04 174.56,-32.11 178.12,-38.14"/>
<text text-anchor="start" x="162" y="-62" font-family="Courier New" font-weight="bold" font-size="10.00" fill="blue">CLEAR(WSPRITE,)</text>
</g>
<!-- 6&#45;&gt;0 -->
<g id="edge7" class="edge">
<title>6&#45;&gt;0</title>
<path fill="none" stroke="black" d="M239.25,-35.94C245.52,-41.08 251.65,-47.19 256,-54 269.58,-75.26 270,-83.78 270,-109 270,-511 270,-511 270,-511 270,-536.22 266.93,-543.27 256,-566 250.2,-578.06 241.74,-590.08 233.73,-600.13"/>
<polygon fill="black" stroke="black" points="231.24,-597.65 227.54,-607.58 236.62,-602.12 231.24,-597.65"/>
<text text-anchor="start" x="274" y="-324" font-family="Courier New" font-weight="bold" font-size="10.00" fill="blue">SHOW(,)</text>
</g>
<!-- status -->
<g id="node9" class="node">
<title>status</title>
<polygon fill="none" stroke="black" points="256,-584.5 256,-668.5 560,-668.5 560,-584.5 256,-584.5"/>
<polygon fill="none" stroke="black" points="267,-643.5 267,-661.5 549,-661.5 549,-643.5 267,-643.5"/>
<text text-anchor="start" x="368.99" y="-650.5" font-family="Courier New" font-weight="bold" font-size="10.00">S27_MEMSTONE1</text>
<polygon fill="none" stroke="black" points="267,-611.5 267,-641.5 549,-641.5 549,-611.5 267,-611.5"/>
<text text-anchor="start" x="270" y="-629.5" font-family="Courier New" font-size="10.00" fill="green">S27_MEMSTONE1::M_MEMORY(&#39;IDS_MOON1&#39;,&#39;8&#39;,&#39;&#39;,&#39;&#39;)</text>
<text text-anchor="start" x="270" y="-617.5" font-family="Courier New" font-size="10.00" fill="green">{&#39;4&#39;: bParm:7 wParm:1 wSprite:m1 bFrame:7}</text>
<polygon fill="none" stroke="black" points="267,-591.5 267,-609.5 549,-609.5 549,-591.5 267,-591.5"/>
<text text-anchor="start" x="405" y="-597.5" font-family="Courier New" font-size="10.00" fill="blue">_</text>
<polygon fill="none" stroke="black" points="264,-588.5 264,-664.5 552,-664.5 552,-588.5 264,-588.5"/>
</g>
</g>
</svg>
