<?xml version="1.0" encoding="UTF-8" standalone="no"?>
<!DOCTYPE svg PUBLIC "-//W3C//DTD SVG 1.1//EN"
 "http://www.w3.org/Graphics/SVG/1.1/DTD/svg11.dtd">
<!-- Generated by graphviz version 7.1.0 (20230121.1956)
 -->
<!-- Title: Automaton Pages: 1 -->
<svg width="646pt" height="673pt"
 viewBox="0.00 0.00 646.00 673.00" xmlns="http://www.w3.org/2000/svg" xmlns:xlink="http://www.w3.org/1999/xlink">
<g id="graph0" class="graph" transform="scale(1 1) rotate(0) translate(4 669)">
<title>Automaton</title>
<polygon fill="white" stroke="none" points="-4,4 -4,-669 642,-669 642,4 -4,4"/>
<!-- filename -->
<g id="node1" class="node">
<title>filename</title>
<polygon fill="none" stroke="black" points="0,-590.5 0,-642.5 172,-642.5 172,-590.5 0,-590.5"/>
<polygon fill="none" stroke="black" points="11,-617.5 11,-635.5 161,-635.5 161,-617.5 11,-617.5"/>
<text text-anchor="start" x="14" y="-624.5" font-family="Courier New" font-weight="bold" font-size="10.00">s3002_path1::m_clickbait</text>
<polygon fill="none" stroke="black" points="11,-597.5 11,-615.5 161,-615.5 161,-597.5 11,-597.5"/>
<text text-anchor="start" x="40.99" y="-603.5" font-family="Courier New" font-size="10.00" fill="brown">start state = 0</text>
<polygon fill="none" stroke="black" points="8,-594.5 8,-638.5 164,-638.5 164,-594.5 8,-594.5"/>
</g>
<!-- 0 -->
<g id="node2" class="node">
<title>0</title>
<polyline fill="none" stroke="darkred" points="210,-605.5 224,-605.5"/>
<text text-anchor="start" x="213" y="-612.9" font-family="Courier New" font-weight="bold" font-size="14.00">0</text>
<path fill="none" stroke="darkred" d="M213.67,-602.5C213.67,-602.5 220.33,-602.5 220.33,-602.5 223.67,-602.5 227,-605.83 227,-609.17 227,-609.17 227,-623.83 227,-623.83 227,-627.17 223.67,-630.5 220.33,-630.5 220.33,-630.5 213.67,-630.5 213.67,-630.5 210.33,-630.5 207,-627.17 207,-623.83 207,-623.83 207,-609.17 207,-609.17 207,-605.83 210.33,-602.5 213.67,-602.5"/>
</g>
<!-- B1 -->
<g id="node3" class="node">
<title>B1</title>
<polyline fill="none" stroke="darkred" stroke-width="3" points="95.5,-442.5 118.5,-442.5"/>
<text text-anchor="start" x="99" y="-450.4" font-family="Courier New" font-weight="bold" font-size="14.00">B1</text>
<path fill="none" stroke="darkred" stroke-width="3" d="M101.5,-437.5C101.5,-437.5 112.5,-437.5 112.5,-437.5 118,-437.5 123.5,-443 123.5,-448.5 123.5,-448.5 123.5,-459.5 123.5,-459.5 123.5,-465 118,-470.5 112.5,-470.5 112.5,-470.5 101.5,-470.5 101.5,-470.5 96,-470.5 90.5,-465 90.5,-459.5 90.5,-459.5 90.5,-448.5 90.5,-448.5 90.5,-443 96,-437.5 101.5,-437.5"/>
</g>
<!-- 0&#45;&gt;B1 -->
<g id="edge1" class="edge">
<title>0&#45;&gt;B1</title>
<path fill="none" stroke="black" d="M207.51,-598.66C201.12,-588.61 191.89,-576.24 181,-568 163.49,-554.76 149.84,-566.18 135,-550 119.26,-532.84 112.34,-507.25 109.31,-486.95"/>
<polygon fill="black" stroke="black" points="112.81,-486.72 108.12,-477.22 105.86,-487.57 112.81,-486.72"/>
<polygon fill="none" stroke="black" points="138,-529 138,-547 300,-547 300,-529 138,-529"/>
<text text-anchor="start" x="182.99" y="-536" font-family="Courier New" font-weight="bold" font-size="10.00" fill="blue">Z_EPSILON(,)</text>
<polygon fill="none" stroke="black" points="138,-497 138,-527 300,-527 300,-497 138,-497"/>
<text text-anchor="start" x="141" y="-515" font-family="Courier New" font-size="10.00" fill="blue">ASSIGN(WOBJECT,IDD_BAIT0);</text>
<text text-anchor="start" x="141" y="-503" font-family="Courier New" font-size="10.00" fill="blue">SHOW(WOBJECT);</text>
<polygon fill="none" stroke="black" points="135,-494 135,-550 303,-550 303,-494 135,-494"/>
</g>
<!-- B2 -->
<g id="node4" class="node">
<title>B2</title>
<polyline fill="none" stroke="darkred" points="96,-263 118,-263"/>
<text text-anchor="start" x="99" y="-270.4" font-family="Courier New" font-weight="bold" font-size="14.00">B2</text>
<path fill="none" stroke="darkred" d="M102.33,-260C102.33,-260 111.67,-260 111.67,-260 116.33,-260 121,-264.67 121,-269.33 121,-269.33 121,-278.67 121,-278.67 121,-283.33 116.33,-288 111.67,-288 111.67,-288 102.33,-288 102.33,-288 97.67,-288 93,-283.33 93,-278.67 93,-278.67 93,-269.33 93,-269.33 93,-264.67 97.67,-260 102.33,-260"/>
</g>
<!-- B1&#45;&gt;B2 -->
<g id="edge2" class="edge">
<title>B1&#45;&gt;B2</title>
<path fill="none" stroke="black" d="M101.9,-432.07C100.7,-426.26 99.6,-419.91 99,-414 94.33,-368.01 93.82,-355.93 99,-310 99.25,-307.77 99.59,-305.48 99.99,-303.18"/>
<polygon fill="black" stroke="black" points="103.4,-303.94 102.01,-293.44 96.55,-302.52 103.4,-303.94"/>
<polygon fill="none" stroke="black" points="102,-393 102,-411 300,-411 300,-393 102,-393"/>
<text text-anchor="start" x="177" y="-400" font-family="Courier New" font-weight="bold" font-size="10.00" fill="orange">CLICK(,)</text>
<polygon fill="none" stroke="black" points="102,-313 102,-391 300,-391 300,-313 102,-313"/>
<text text-anchor="start" x="105" y="-379" font-family="Courier New" font-size="10.00" fill="blue">fishbait(IDD_BAIT1).</text>
<text text-anchor="start" x="105" y="-367" font-family="Courier New" font-size="10.00" fill="blue">ASSIGN(WOBJECT,IDD_BAIT1);</text>
<text text-anchor="start" x="105" y="-355" font-family="Courier New" font-size="10.00" fill="blue">if (fishbait(IDD_BAIT1)) {</text>
<text text-anchor="start" x="105" y="-343" font-family="Courier New" font-size="10.00" fill="blue"> &#160;&#160;&#160;WRITE(&quot;you found fishbait&quot;);</text>
<text text-anchor="start" x="105" y="-331" font-family="Courier New" font-size="10.00" fill="blue">}</text>
<text text-anchor="start" x="105" y="-319" font-family="Courier New" font-size="10.00" fill="blue">SHOW(WOBJECT);</text>
<polygon fill="none" stroke="black" points="99,-310 99,-414 303,-414 303,-310 99,-310"/>
</g>
<!-- B3 -->
<g id="node5" class="node">
<title>B3</title>
<polyline fill="none" stroke="darkred" points="123,-135 145,-135"/>
<text text-anchor="start" x="126" y="-142.4" font-family="Courier New" font-weight="bold" font-size="14.00">B3</text>
<path fill="none" stroke="darkred" d="M129.33,-132C129.33,-132 138.67,-132 138.67,-132 143.33,-132 148,-136.67 148,-141.33 148,-141.33 148,-150.67 148,-150.67 148,-155.33 143.33,-160 138.67,-160 138.67,-160 129.33,-160 129.33,-160 124.67,-160 120,-155.33 120,-150.67 120,-150.67 120,-141.33 120,-141.33 120,-136.67 124.67,-132 129.33,-132"/>
</g>
<!-- B2&#45;&gt;B3 -->
<g id="edge3" class="edge">
<title>B2&#45;&gt;B3</title>
<path fill="none" stroke="black" d="M110.64,-256.01C115.09,-235.23 122.69,-199.76 128.01,-174.94"/>
<polygon fill="black" stroke="black" points="131.43,-175.72 130.1,-165.2 124.58,-174.25 131.43,-175.72"/>
<polygon fill="none" stroke="black" points="130,-217 130,-235 292,-235 292,-217 130,-217"/>
<text text-anchor="start" x="187" y="-224" font-family="Courier New" font-weight="bold" font-size="10.00" fill="orange">CLICK(,)</text>
<polygon fill="none" stroke="black" points="130,-185 130,-215 292,-215 292,-185 130,-185"/>
<text text-anchor="start" x="133" y="-203" font-family="Courier New" font-size="10.00" fill="blue">ASSIGN(WOBJECT,IDD_BAIT2);</text>
<text text-anchor="start" x="133" y="-191" font-family="Courier New" font-size="10.00" fill="blue">SHOW(WOBJECT);</text>
<polygon fill="none" stroke="black" points="127,-182 127,-238 295,-238 295,-182 127,-182"/>
</g>
<!-- B4 -->
<g id="node6" class="node">
<title>B4</title>
<polyline fill="none" stroke="darkred" points="214,-7 236,-7"/>
<text text-anchor="start" x="217" y="-14.4" font-family="Courier New" font-weight="bold" font-size="14.00">B4</text>
<path fill="none" stroke="darkred" d="M220.33,-4C220.33,-4 229.67,-4 229.67,-4 234.33,-4 239,-8.67 239,-13.33 239,-13.33 239,-22.67 239,-22.67 239,-27.33 234.33,-32 229.67,-32 229.67,-32 220.33,-32 220.33,-32 215.67,-32 211,-27.33 211,-22.67 211,-22.67 211,-13.33 211,-13.33 211,-8.67 215.67,-4 220.33,-4"/>
</g>
<!-- B3&#45;&gt;B4 -->
<g id="edge4" class="edge">
<title>B3&#45;&gt;B4</title>
<path fill="none" stroke="black" d="M129,-128.22C124.24,-108.58 119.8,-75.96 135,-54 146.75,-37.03 168.02,-28.28 186.93,-23.78"/>
<polygon fill="black" stroke="black" points="187.41,-27.25 196.52,-21.84 186.02,-20.39 187.41,-27.25"/>
<polygon fill="none" stroke="black" points="138,-89 138,-107 300,-107 300,-89 138,-89"/>
<text text-anchor="start" x="195" y="-96" font-family="Courier New" font-weight="bold" font-size="10.00" fill="orange">CLICK(,)</text>
<polygon fill="none" stroke="black" points="138,-57 138,-87 300,-87 300,-57 138,-57"/>
<text text-anchor="start" x="141" y="-75" font-family="Courier New" font-size="10.00" fill="blue">ASSIGN(WOBJECT,IDD_BAIT3);</text>
<text text-anchor="start" x="141" y="-63" font-family="Courier New" font-size="10.00" fill="blue">SHOW(WOBJECT);</text>
<polygon fill="none" stroke="black" points="135,-54 135,-110 303,-110 303,-54 135,-54"/>
</g>
<!-- B4&#45;&gt;0 -->
<g id="edge5" class="edge">
<title>B4&#45;&gt;0</title>
<path fill="none" stroke="black" d="M251.91,-24.17C269.21,-28.94 290.68,-37.82 303,-54 327.79,-86.56 317,-104.08 317,-145 317,-455 317,-455 317,-455 317,-497.68 330.03,-516.97 303,-550 288.04,-568.28 272.03,-554.01 253,-568 245.26,-573.69 238.4,-581.5 232.8,-589.14"/>
<polygon fill="black" stroke="black" points="229.98,-587.06 227.26,-597.3 235.77,-591 229.98,-587.06"/>
<text text-anchor="start" x="321" y="-272" font-family="Courier New" font-weight="bold" font-size="10.00" fill="orange">CLICK(,)</text>
</g>
<!-- status -->
<g id="node7" class="node">
<title>status</title>
<polygon fill="none" stroke="black" points="262,-568.5 262,-664.5 638,-664.5 638,-568.5 262,-568.5"/>
<polygon fill="none" stroke="black" points="273,-639.5 273,-657.5 627,-657.5 627,-639.5 273,-639.5"/>
<text text-anchor="start" x="416.99" y="-646.5" font-family="Courier New" font-weight="bold" font-size="10.00">s3002_path1</text>
<polygon fill="none" stroke="black" points="273,-595.5 273,-637.5 627,-637.5 627,-595.5 273,-595.5"/>
<text text-anchor="start" x="276" y="-625.5" font-family="Courier New" font-size="10.00" fill="green">VIEW: IDV_PATH1</text>
<text text-anchor="start" x="276" y="-613.5" font-family="Courier New" font-size="10.00" fill="green">s3002_path1::m_clickbait(&#39;IDS_BAIT1&#39;,&#39;3&#39;,&#39;&#39;,&#39;SOUND_LEVER&#39;)</text>
<text text-anchor="start" x="276" y="-601.5" font-family="Courier New" font-size="10.00" fill="green">{&#39;B1&#39;: wObject:IDD_BAIT0 wSprite:grubanm}</text>
<polygon fill="none" stroke="black" points="273,-575.5 273,-593.5 627,-593.5 627,-575.5 273,-575.5"/>
<text text-anchor="start" x="447" y="-581.5" font-family="Courier New" font-size="10.00" fill="blue">_</text>
<polygon fill="none" stroke="black" points="270,-572.5 270,-660.5 630,-660.5 630,-572.5 270,-572.5"/>
</g>
</g>
</svg>
