<?xml version="1.0" encoding="UTF-8" standalone="no"?>
<!DOCTYPE svg PUBLIC "-//W3C//DTD SVG 1.1//EN"
 "http://www.w3.org/Graphics/SVG/1.1/DTD/svg11.dtd">
<!-- Generated by graphviz version 7.1.0 (20230121.1956)
 -->
<!-- Title: Automaton Pages: 1 -->
<svg width="646pt" height="461pt"
 viewBox="0.00 0.00 646.00 461.00" xmlns="http://www.w3.org/2000/svg" xmlns:xlink="http://www.w3.org/1999/xlink">
<g id="graph0" class="graph" transform="scale(1 1) rotate(0) translate(4 457)">
<title>Automaton</title>
<polygon fill="white" stroke="none" points="-4,4 -4,-457 642,-457 642,4 -4,4"/>
<!-- filename -->
<g id="node1" class="node">
<title>filename</title>
<polygon fill="none" stroke="black" points="0,-388.5 0,-440.5 172,-440.5 172,-388.5 0,-388.5"/>
<polygon fill="none" stroke="black" points="11,-415.5 11,-433.5 161,-433.5 161,-415.5 11,-415.5"/>
<text text-anchor="start" x="14" y="-422.5" font-family="Courier New" font-weight="bold" font-size="10.00">S3002_PATH1::M_CLICKBAIT</text>
<polygon fill="none" stroke="black" points="11,-395.5 11,-413.5 161,-413.5 161,-395.5 11,-395.5"/>
<text text-anchor="start" x="40.99" y="-401.5" font-family="Courier New" font-size="10.00" fill="brown">start state = 0</text>
<polygon fill="none" stroke="black" points="8,-392.5 8,-436.5 164,-436.5 164,-392.5 8,-392.5"/>
</g>
<!-- 0 -->
<g id="node2" class="node">
<title>0</title>
<polyline fill="none" stroke="darkred" points="210,-403.5 224,-403.5"/>
<text text-anchor="start" x="213" y="-410.9" font-family="Courier New" font-weight="bold" font-size="14.00">0</text>
<path fill="none" stroke="darkred" d="M213.67,-400.5C213.67,-400.5 220.33,-400.5 220.33,-400.5 223.67,-400.5 227,-403.83 227,-407.17 227,-407.17 227,-421.83 227,-421.83 227,-425.17 223.67,-428.5 220.33,-428.5 220.33,-428.5 213.67,-428.5 213.67,-428.5 210.33,-428.5 207,-425.17 207,-421.83 207,-421.83 207,-407.17 207,-407.17 207,-403.83 210.33,-400.5 213.67,-400.5"/>
</g>
<!-- 1 -->
<g id="node3" class="node">
<title>1</title>
<polyline fill="none" stroke="darkred" points="159,-291 173,-291"/>
<text text-anchor="start" x="162" y="-298.4" font-family="Courier New" font-weight="bold" font-size="14.00">1</text>
<path fill="none" stroke="darkred" d="M162.67,-288C162.67,-288 169.33,-288 169.33,-288 172.67,-288 176,-291.33 176,-294.67 176,-294.67 176,-309.33 176,-309.33 176,-312.67 172.67,-316 169.33,-316 169.33,-316 162.67,-316 162.67,-316 159.33,-316 156,-312.67 156,-309.33 156,-309.33 156,-294.67 156,-294.67 156,-291.33 159.33,-288 162.67,-288"/>
</g>
<!-- 0&#45;&gt;1 -->
<g id="edge1" class="edge">
<title>0&#45;&gt;1</title>
<path fill="none" stroke="black" d="M200.65,-396.58C186.78,-382.03 168.84,-362.67 167,-358 163.72,-349.69 162.71,-340.12 162.74,-331.31"/>
<polygon fill="black" stroke="black" points="166.22,-331.64 163.23,-321.47 159.23,-331.28 166.22,-331.64"/>
<text text-anchor="start" x="171" y="-346" font-family="Courier New" font-weight="bold" font-size="10.00" fill="blue">MOV(BFRAME,0)</text>
</g>
<!-- 2 -->
<g id="node4" class="node">
<title>2</title>
<polyline fill="none" stroke="darkred" stroke-width="3" points="64.5,-194.5 79.5,-194.5"/>
<text text-anchor="start" x="68" y="-202.4" font-family="Courier New" font-weight="bold" font-size="14.00">2</text>
<path fill="none" stroke="darkred" stroke-width="3" d="M67.83,-189.5C67.83,-189.5 76.17,-189.5 76.17,-189.5 80.33,-189.5 84.5,-193.67 84.5,-197.83 84.5,-197.83 84.5,-214.17 84.5,-214.17 84.5,-218.33 80.33,-222.5 76.17,-222.5 76.17,-222.5 67.83,-222.5 67.83,-222.5 63.67,-222.5 59.5,-218.33 59.5,-214.17 59.5,-214.17 59.5,-197.83 59.5,-197.83 59.5,-193.67 63.67,-189.5 67.83,-189.5"/>
</g>
<!-- 1&#45;&gt;2 -->
<g id="edge2" class="edge">
<title>1&#45;&gt;2</title>
<path fill="none" stroke="black" d="M139.18,-296.3C120.93,-291.69 97.69,-282.8 84,-266 77.85,-258.45 74.58,-248.59 72.92,-239.09"/>
<polygon fill="black" stroke="black" points="76.42,-238.9 71.78,-229.38 69.47,-239.72 76.42,-238.9"/>
<text text-anchor="start" x="88" y="-254" font-family="Courier New" font-weight="bold" font-size="10.00" fill="blue">SHOW(WIP1,)</text>
</g>
<!-- 3 -->
<g id="node5" class="node">
<title>3</title>
<polyline fill="none" stroke="darkred" points="59,-99 73,-99"/>
<text text-anchor="start" x="62" y="-106.4" font-family="Courier New" font-weight="bold" font-size="14.00">3</text>
<path fill="none" stroke="darkred" d="M62.67,-96C62.67,-96 69.33,-96 69.33,-96 72.67,-96 76,-99.33 76,-102.67 76,-102.67 76,-117.33 76,-117.33 76,-120.67 72.67,-124 69.33,-124 69.33,-124 62.67,-124 62.67,-124 59.33,-124 56,-120.67 56,-117.33 56,-117.33 56,-102.67 56,-102.67 56,-99.33 59.33,-96 62.67,-96"/>
</g>
<!-- 2&#45;&gt;3 -->
<g id="edge3" class="edge">
<title>2&#45;&gt;3</title>
<path fill="none" stroke="black" d="M70.67,-184.14C69.82,-170.87 68.71,-153.53 67.79,-139.06"/>
<polygon fill="black" stroke="black" points="71.29,-139 67.16,-129.24 64.31,-139.45 71.29,-139"/>
<text text-anchor="start" x="74" y="-154" font-family="Courier New" font-weight="bold" font-size="10.00" fill="orange">CLICK(,)</text>
</g>
<!-- 4 -->
<g id="node6" class="node">
<title>4</title>
<polyline fill="none" stroke="darkred" points="165,-7 179,-7"/>
<text text-anchor="start" x="168" y="-14.4" font-family="Courier New" font-weight="bold" font-size="14.00">4</text>
<path fill="none" stroke="darkred" d="M168.67,-4C168.67,-4 175.33,-4 175.33,-4 178.67,-4 182,-7.33 182,-10.67 182,-10.67 182,-25.33 182,-25.33 182,-28.67 178.67,-32 175.33,-32 175.33,-32 168.67,-32 168.67,-32 165.33,-32 162,-28.67 162,-25.33 162,-25.33 162,-10.67 162,-10.67 162,-7.33 165.33,-4 168.67,-4"/>
</g>
<!-- 3&#45;&gt;4 -->
<g id="edge4" class="edge">
<title>3&#45;&gt;4</title>
<path fill="none" stroke="black" d="M61.18,-92.03C58.9,-80.27 58.17,-64.83 66,-54 81.42,-32.67 110.3,-24.12 134.03,-20.8"/>
<polygon fill="black" stroke="black" points="134.13,-24.31 143.67,-19.72 133.35,-17.35 134.13,-24.31"/>
<text text-anchor="start" x="70" y="-62" font-family="Courier New" font-weight="bold" font-size="10.00" fill="blue">ADDI(BFRAME,1)</text>
</g>
<!-- 4&#45;&gt;0 -->
<g id="edge5" class="edge">
<title>4&#45;&gt;0</title>
<path fill="none" stroke="black" d="M198.97,-30.57C227.06,-44.64 267,-71.29 267,-109 267,-303 267,-303 267,-303 267,-328.22 263.11,-334.89 253,-358 248.59,-368.09 242.43,-378.41 236.45,-387.37"/>
<polygon fill="black" stroke="black" points="233.58,-385.37 230.74,-395.58 239.32,-389.37 233.58,-385.37"/>
<text text-anchor="start" x="271" y="-204" font-family="Courier New" font-weight="bold" font-size="10.00" fill="blue">GTE(BFRAME,WIP2)</text>
</g>
<!-- 4&#45;&gt;1 -->
<g id="edge6" class="edge">
<title>4&#45;&gt;1</title>
<path fill="none" stroke="black" d="M171.64,-35.71C170.65,-82.43 167.83,-214.79 166.6,-272.97"/>
<polygon fill="black" stroke="black" points="163.1,-272.62 166.39,-282.69 170.1,-272.77 163.1,-272.62"/>
<text text-anchor="start" x="173" y="-154" font-family="Courier New" font-weight="bold" font-size="10.00" fill="blue">Z_EPSILON(,)</text>
</g>
<!-- status -->
<g id="node7" class="node">
<title>status</title>
<polygon fill="none" stroke="black" points="262,-376.5 262,-452.5 638,-452.5 638,-376.5 262,-376.5"/>
<polygon fill="none" stroke="black" points="273,-427.5 273,-445.5 627,-445.5 627,-427.5 273,-427.5"/>
<text text-anchor="start" x="416.99" y="-434.5" font-family="Courier New" font-weight="bold" font-size="10.00">S3002_PATH1</text>
<polygon fill="none" stroke="black" points="273,-383.5 273,-425.5 627,-425.5 627,-383.5 273,-383.5"/>
<text text-anchor="start" x="276" y="-413.5" font-family="Courier New" font-size="10.00" fill="green">VIEW::IDV_PATH1 @pos(left:300, top:120)</text>
<text text-anchor="start" x="276" y="-401.5" font-family="Courier New" font-size="10.00" fill="green">S3002_PATH1::M_CLICKBAIT(&#39;IDS_BAIT0&#39;,&#39;3&#39;,&#39;&#39;,&#39;SOUND_LEVER&#39;)</text>
<text text-anchor="start" x="276" y="-389.5" font-family="Courier New" font-size="10.00" fill="green">{&#39;2&#39;: bFrame:1</text>
<polygon fill="none" stroke="black" points="270,-380.5 270,-448.5 630,-448.5 630,-380.5 270,-380.5"/>
</g>
</g>
</svg>
