<?xml version="1.0" encoding="UTF-8" standalone="no"?>
<!DOCTYPE svg PUBLIC "-//W3C//DTD SVG 1.1//EN"
 "http://www.w3.org/Graphics/SVG/1.1/DTD/svg11.dtd">
<!-- Generated by graphviz version 7.1.0 (20230121.1956)
 -->
<!-- Title: Automaton Pages: 1 -->
<svg width="616pt" height="233pt"
 viewBox="0.00 0.00 616.00 233.00" xmlns="http://www.w3.org/2000/svg" xmlns:xlink="http://www.w3.org/1999/xlink">
<g id="graph0" class="graph" transform="scale(1 1) rotate(0) translate(4 229)">
<title>Automaton</title>
<polygon fill="white" stroke="none" points="-4,4 -4,-229 612,-229 612,4 -4,4"/>
<!-- filename -->
<g id="node1" class="node">
<title>filename</title>
<polygon fill="none" stroke="black" points="0,-160.5 0,-212.5 184,-212.5 184,-160.5 0,-160.5"/>
<polygon fill="none" stroke="black" points="11,-187.5 11,-205.5 173,-205.5 173,-187.5 11,-187.5"/>
<text text-anchor="start" x="14" y="-194.5" font-family="Courier New" font-weight="bold" font-size="10.00">S30_PATH2a::M_TEST_MEFLINa</text>
<polygon fill="none" stroke="black" points="11,-167.5 11,-185.5 173,-185.5 173,-167.5 11,-167.5"/>
<text text-anchor="start" x="46.99" y="-173.5" font-family="Courier New" font-size="10.00" fill="brown">start state = 0</text>
<polygon fill="none" stroke="black" points="8,-164.5 8,-208.5 176,-208.5 176,-164.5 8,-164.5"/>
</g>
<!-- 0 -->
<g id="node2" class="node">
<title>0</title>
<polyline fill="none" stroke="darkred" points="222,-175.5 236,-175.5"/>
<text text-anchor="start" x="225" y="-182.9" font-family="Courier New" font-weight="bold" font-size="14.00">0</text>
<path fill="none" stroke="darkred" d="M225.67,-172.5C225.67,-172.5 232.33,-172.5 232.33,-172.5 235.67,-172.5 239,-175.83 239,-179.17 239,-179.17 239,-193.83 239,-193.83 239,-197.17 235.67,-200.5 232.33,-200.5 232.33,-200.5 225.67,-200.5 225.67,-200.5 222.33,-200.5 219,-197.17 219,-193.83 219,-193.83 219,-179.17 219,-179.17 219,-175.83 222.33,-172.5 225.67,-172.5"/>
</g>
<!-- 1 -->
<g id="node3" class="node">
<title>1</title>
<polyline fill="none" stroke="darkred" stroke-width="3" points="221.5,-16.5 236.5,-16.5"/>
<text text-anchor="start" x="225" y="-24.4" font-family="Courier New" font-weight="bold" font-size="14.00">1</text>
<path fill="none" stroke="darkred" stroke-width="3" d="M224.83,-11.5C224.83,-11.5 233.17,-11.5 233.17,-11.5 237.33,-11.5 241.5,-15.67 241.5,-19.83 241.5,-19.83 241.5,-36.17 241.5,-36.17 241.5,-40.33 237.33,-44.5 233.17,-44.5 233.17,-44.5 224.83,-44.5 224.83,-44.5 220.67,-44.5 216.5,-40.33 216.5,-36.17 216.5,-36.17 216.5,-19.83 216.5,-19.83 216.5,-15.67 220.67,-11.5 224.83,-11.5"/>
</g>
<!-- 0&#45;&gt;1 -->
<g id="edge1" class="edge">
<title>0&#45;&gt;1</title>
<path fill="none" stroke="black" d="M229,-168.75C229,-143.12 229,-93.7 229,-61.03"/>
<polygon fill="black" stroke="black" points="232.5,-61.34 229,-51.34 225.5,-61.34 232.5,-61.34"/>
<polygon fill="none" stroke="black" points="232,-109 232,-127 430,-127 430,-109 232,-109"/>
<text text-anchor="start" x="294.99" y="-116" font-family="Courier New" font-weight="bold" font-size="10.00" fill="blue">Z_EPSILON(,)</text>
<polygon fill="none" stroke="black" points="232,-77 232,-107 430,-107 430,-77 232,-77"/>
<text text-anchor="start" x="235" y="-95" font-family="Courier New" font-size="10.00" fill="blue">MOV(WSPRITE,WIP1);</text>
<text text-anchor="start" x="235" y="-83" font-family="Courier New" font-size="10.00" fill="blue"> &#160;&#160;&#160;&#160;&#160;&#160;&#160;&#160;ASHOW(WSPRITE, V_LOOP);</text>
<polygon fill="none" stroke="black" points="229,-74 229,-130 433,-130 433,-74 229,-74"/>
</g>
<!-- 1&#45;&gt;1 -->
<g id="edge2" class="edge">
<title>1&#45;&gt;1</title>
<path fill="none" stroke="black" d="M255.79,-41.84C265.78,-42.3 274,-37.68 274,-28 274,-22.4 271.25,-18.5 267.01,-16.29"/>
<polygon fill="black" stroke="black" points="267.76,-12.87 257.28,-14.44 266.45,-19.74 267.76,-12.87"/>
<polygon fill="none" stroke="black" points="277,-35 277,-53 475,-53 475,-35 277,-35"/>
<text text-anchor="start" x="352" y="-42" font-family="Courier New" font-weight="bold" font-size="10.00" fill="orange">CLICK(,)</text>
<polygon fill="none" stroke="black" points="277,-3 277,-33 475,-33 475,-3 277,-3"/>
<text text-anchor="start" x="280" y="-21" font-family="Courier New" font-size="10.00" fill="blue">LOADVIEW(IDV_MEFLINTEXT);</text>
<text text-anchor="start" x="280" y="-9" font-family="Courier New" font-size="10.00" fill="blue"> &#160;&#160;&#160;&#160;&#160;&#160;&#160;SIGNAL(SXX_WAITER, &quot;B&quot;);</text>
<polygon fill="none" stroke="black" points="274,0 274,-56 478,-56 478,0 274,0"/>
</g>
<!-- status -->
<g id="node4" class="node">
<title>status</title>
<polygon fill="none" stroke="black" points="274,-148.5 274,-224.5 608,-224.5 608,-148.5 274,-148.5"/>
<polygon fill="none" stroke="black" points="285,-199.5 285,-217.5 597,-217.5 597,-199.5 285,-199.5"/>
<text text-anchor="start" x="411" y="-206.5" font-family="Courier New" font-weight="bold" font-size="10.00">S30_PATH2a</text>
<polygon fill="none" stroke="black" points="285,-155.5 285,-197.5 597,-197.5 597,-155.5 285,-155.5"/>
<text text-anchor="start" x="288" y="-185.5" font-family="Courier New" font-size="10.00" fill="green">VIEW::IDV_PATH1 @pos(left:140, top:120)</text>
<text text-anchor="start" x="288" y="-173.5" font-family="Courier New" font-size="10.00" fill="green">S30_PATH2a::M_TEST_MEFLINa(&#39;IDS_EYESPELL&#39;,&#39;&#39;,&#39;&#39;,&#39;&#39;)</text>
<text text-anchor="start" x="288" y="-161.5" font-family="Courier New" font-size="10.00" fill="green">{state:&#39;1&#39;: wSprite:IDS_EYESPELL</text>
<polygon fill="none" stroke="black" points="282,-152.5 282,-220.5 600,-220.5 600,-152.5 282,-152.5"/>
</g>
</g>
</svg>
