<?xml version="1.0" encoding="UTF-8" standalone="no"?>
<!DOCTYPE svg PUBLIC "-//W3C//DTD SVG 1.1//EN"
 "http://www.w3.org/Graphics/SVG/1.1/DTD/svg11.dtd">
<!-- Generated by graphviz version 7.1.0 (20230121.1956)
 -->
<!-- Title: Automaton Pages: 1 -->
<svg width="1726pt" height="909pt"
 viewBox="0.00 0.00 1726.00 909.00" xmlns="http://www.w3.org/2000/svg" xmlns:xlink="http://www.w3.org/1999/xlink">
<g id="graph0" class="graph" transform="scale(1 1) rotate(0) translate(4 905)">
<title>Automaton</title>
<polygon fill="white" stroke="none" points="-4,4 -4,-905 1722,-905 1722,4 -4,4"/>
<!-- filename -->
<g id="node1" class="node">
<title>filename</title>
<polygon fill="none" stroke="black" points="1131,-836.5 1131,-888.5 1249,-888.5 1249,-836.5 1131,-836.5"/>
<polygon fill="none" stroke="black" points="1142,-863.5 1142,-881.5 1238,-881.5 1238,-863.5 1142,-863.5"/>
<text text-anchor="start" x="1153.99" y="-870.5" font-family="Courier New" font-weight="bold" font-size="10.00">SID_ID::M_ID</text>
<polygon fill="none" stroke="black" points="1142,-843.5 1142,-861.5 1238,-861.5 1238,-843.5 1142,-843.5"/>
<text text-anchor="start" x="1145" y="-849.5" font-family="Courier New" font-size="10.00" fill="brown">start state = 0</text>
<polygon fill="none" stroke="black" points="1139,-840.5 1139,-884.5 1241,-884.5 1241,-840.5 1139,-840.5"/>
</g>
<!-- 0 -->
<g id="node2" class="node">
<title>0</title>
<polyline fill="none" stroke="darkred" points="1287,-851.5 1301,-851.5"/>
<text text-anchor="start" x="1290" y="-858.9" font-family="Courier New" font-weight="bold" font-size="14.00">0</text>
<path fill="none" stroke="darkred" d="M1290.67,-848.5C1290.67,-848.5 1297.33,-848.5 1297.33,-848.5 1300.67,-848.5 1304,-851.83 1304,-855.17 1304,-855.17 1304,-869.83 1304,-869.83 1304,-873.17 1300.67,-876.5 1297.33,-876.5 1297.33,-876.5 1290.67,-876.5 1290.67,-876.5 1287.33,-876.5 1284,-873.17 1284,-869.83 1284,-869.83 1284,-855.17 1284,-855.17 1284,-851.83 1287.33,-848.5 1290.67,-848.5"/>
</g>
<!-- setId -->
<g id="node3" class="node">
<title>setId</title>
<polyline fill="none" stroke="darkred" points="907,-619 955,-619"/>
<text text-anchor="start" x="910" y="-626.4" font-family="Courier New" font-weight="bold" font-size="14.00">setId</text>
<path fill="none" stroke="darkred" d="M913.33,-616C913.33,-616 948.67,-616 948.67,-616 953.33,-616 958,-620.67 958,-625.33 958,-625.33 958,-634.67 958,-634.67 958,-639.33 953.33,-644 948.67,-644 948.67,-644 913.33,-644 913.33,-644 908.67,-644 904,-639.33 904,-634.67 904,-634.67 904,-625.33 904,-625.33 904,-620.67 908.67,-616 913.33,-616"/>
</g>
<!-- 0&#45;&gt;setId -->
<g id="edge1" class="edge">
<title>0&#45;&gt;setId</title>
<path fill="none" stroke="black" d="M1282.66,-844.8C1276.38,-837.02 1267.85,-828.49 1258,-824 1221.66,-807.43 926.52,-834.94 899,-806 856.12,-760.91 876.48,-724 899,-666 900.27,-662.73 902,-659.58 904.01,-656.59"/>
<polygon fill="black" stroke="black" points="906.66,-658.88 910.19,-648.89 901.2,-654.51 906.66,-658.88"/>
<polygon fill="none" stroke="black" points="902,-785 902,-803 1142,-803 1142,-785 902,-785"/>
<text text-anchor="start" x="979.99" y="-792" font-family="Courier New" font-weight="bold" font-size="10.00" fill="blue">EQUALi(LSEX,1)</text>
<polygon fill="none" stroke="black" points="902,-669 902,-783 1142,-783 1142,-669 902,-669"/>
<text text-anchor="start" x="905" y="-771" font-family="Courier New" font-size="10.00" fill="blue"> &#160;&#160;&#160;if(LWISDOM &gt;= 30){</text>
<text text-anchor="start" x="905" y="-759" font-family="Courier New" font-size="10.00" fill="blue"> &#160;&#160;&#160;&#160;&#160;&#160;ASSIGN(WPARM,F3);</text>
<text text-anchor="start" x="905" y="-747" font-family="Courier New" font-size="10.00" fill="blue"> &#160;&#160;&#160;}</text>
<text text-anchor="start" x="905" y="-735" font-family="Courier New" font-size="10.00" fill="blue"> &#160;&#160;&#160;&#160;if(LWISDOM &gt;= 20 &amp;&amp; LWISDOM &lt; 31){</text>
<text text-anchor="start" x="905" y="-723" font-family="Courier New" font-size="10.00" fill="blue"> &#160;&#160;&#160;&#160;&#160;&#160;&#160;ASSIGN(WPARM,F2);</text>
<text text-anchor="start" x="905" y="-711" font-family="Courier New" font-size="10.00" fill="blue"> &#160;&#160;&#160;}</text>
<text text-anchor="start" x="905" y="-699" font-family="Courier New" font-size="10.00" fill="blue"> &#160;&#160;&#160;if(LWISDOM &lt; 20){</text>
<text text-anchor="start" x="905" y="-687" font-family="Courier New" font-size="10.00" fill="blue"> &#160;&#160;&#160;&#160;&#160;&#160;ASSIGN(WPARM,F1);</text>
<text text-anchor="start" x="905" y="-675" font-family="Courier New" font-size="10.00" fill="blue"> &#160;&#160;&#160;}</text>
<polygon fill="none" stroke="black" points="899,-666 899,-806 1145,-806 1145,-666 899,-666"/>
</g>
<!-- 0&#45;&gt;setId -->
<g id="edge2" class="edge">
<title>0&#45;&gt;setId</title>
<path fill="none" stroke="black" d="M1281.71,-844.64C1275.43,-837.21 1267.18,-829.03 1258,-824 1222.23,-804.39 1196.34,-835.34 1168,-806 1124.19,-760.65 1189.6,-710.57 1145,-666 1122,-643.02 1032.63,-635.12 976.91,-632.41"/>
<polygon fill="black" stroke="black" points="977.22,-628.92 967.08,-631.97 976.91,-635.91 977.22,-628.92"/>
<polygon fill="none" stroke="black" points="1171,-785 1171,-803 1405,-803 1405,-785 1171,-785"/>
<text text-anchor="start" x="1242.99" y="-792" font-family="Courier New" font-weight="bold" font-size="10.00" fill="blue">NEQUALi(LSEX,1)</text>
<polygon fill="none" stroke="black" points="1171,-669 1171,-783 1405,-783 1405,-669 1171,-669"/>
<text text-anchor="start" x="1174" y="-771" font-family="Courier New" font-size="10.00" fill="blue"> &#160;&#160;&#160;if(LWISDOM &gt;= 30){</text>
<text text-anchor="start" x="1174" y="-759" font-family="Courier New" font-size="10.00" fill="blue"> &#160;&#160;&#160;&#160;&#160;&#160;ASSIGN(WPARM,M3);</text>
<text text-anchor="start" x="1174" y="-747" font-family="Courier New" font-size="10.00" fill="blue"> &#160;&#160;&#160;}</text>
<text text-anchor="start" x="1174" y="-735" font-family="Courier New" font-size="10.00" fill="blue"> &#160;&#160;&#160;if(LWISDOM &gt;= 20 &amp;&amp; LWISDOM &lt; 31){</text>
<text text-anchor="start" x="1174" y="-723" font-family="Courier New" font-size="10.00" fill="blue"> &#160;&#160;&#160;&#160;&#160;&#160;&#160;ASSIGN(WPARM,M2);</text>
<text text-anchor="start" x="1174" y="-711" font-family="Courier New" font-size="10.00" fill="blue"> &#160;&#160;&#160;}</text>
<text text-anchor="start" x="1174" y="-699" font-family="Courier New" font-size="10.00" fill="blue"> &#160;&#160;&#160;if(LWISDOM &lt; 20){</text>
<text text-anchor="start" x="1174" y="-687" font-family="Courier New" font-size="10.00" fill="blue"> &#160;&#160;&#160;&#160;&#160;&#160;ASSIGN(WPARM,M1);</text>
<text text-anchor="start" x="1174" y="-675" font-family="Courier New" font-size="10.00" fill="blue"> &#160;&#160;&#160;}</text>
<polygon fill="none" stroke="black" points="1168,-666 1168,-806 1408,-806 1408,-666 1168,-666"/>
</g>
<!-- sitting -->
<g id="node19" class="node">
<title>sitting</title>
<polyline fill="none" stroke="darkred" stroke-width="3" points="898.5,-474.5 963.5,-474.5"/>
<text text-anchor="start" x="902" y="-482.4" font-family="Courier New" font-weight="bold" font-size="14.00">sitting</text>
<path fill="none" stroke="darkred" stroke-width="3" d="M904.5,-469.5C904.5,-469.5 957.5,-469.5 957.5,-469.5 963,-469.5 968.5,-475 968.5,-480.5 968.5,-480.5 968.5,-491.5 968.5,-491.5 968.5,-497 963,-502.5 957.5,-502.5 957.5,-502.5 904.5,-502.5 904.5,-502.5 899,-502.5 893.5,-497 893.5,-491.5 893.5,-491.5 893.5,-480.5 893.5,-480.5 893.5,-475 899,-469.5 904.5,-469.5"/>
</g>
<!-- setId&#45;&gt;sitting -->
<g id="edge18" class="edge">
<title>setId&#45;&gt;sitting</title>
<path fill="none" stroke="black" d="M931,-612.15C931,-589.3 931,-548 931,-519.12"/>
<polygon fill="black" stroke="black" points="934.5,-519.48 931,-509.48 927.5,-519.48 934.5,-519.48"/>
<polygon fill="none" stroke="black" points="934,-573 934,-591 1078,-591 1078,-573 934,-573"/>
<text text-anchor="start" x="942.99" y="-580" font-family="Courier New" font-weight="bold" font-size="10.00" fill="blue">ASSIGN(WSPRITE,happy)</text>
<polygon fill="none" stroke="black" points="934,-529 934,-571 1078,-571 1078,-529 934,-529"/>
<text text-anchor="start" x="937" y="-559" font-family="Courier New" font-size="10.00" fill="blue"> &#160;&#160;&#160;MAP(WSPRITE,WPARM);</text>
<text text-anchor="start" x="937" y="-547" font-family="Courier New" font-size="10.00" fill="blue"> &#160;&#160;&#160;ASSIGN(BFRAME,0);</text>
<text text-anchor="start" x="937" y="-535" font-family="Courier New" font-size="10.00" fill="blue"> &#160;&#160;&#160;SHOW(WSPRITE);</text>
<polygon fill="none" stroke="black" points="931,-526 931,-594 1081,-594 1081,-526 931,-526"/>
</g>
<!-- 100 -->
<g id="node4" class="node">
<title>100</title>
<polyline fill="none" stroke="darkred" points="1486,-363 1517,-363"/>
<text text-anchor="start" x="1489" y="-370.4" font-family="Courier New" font-weight="bold" font-size="14.00">100</text>
<path fill="none" stroke="darkred" d="M1491.83,-360C1491.83,-360 1510.17,-360 1510.17,-360 1514.83,-360 1519.5,-364.67 1519.5,-369.33 1519.5,-369.33 1519.5,-378.67 1519.5,-378.67 1519.5,-383.33 1514.83,-388 1510.17,-388 1510.17,-388 1491.83,-388 1491.83,-388 1487.17,-388 1482.5,-383.33 1482.5,-378.67 1482.5,-378.67 1482.5,-369.33 1482.5,-369.33 1482.5,-364.67 1487.17,-360 1491.83,-360"/>
</g>
<!-- 101 -->
<g id="node5" class="node">
<title>101</title>
<polyline fill="none" stroke="darkred" points="1524,-223 1555,-223"/>
<text text-anchor="start" x="1527" y="-230.4" font-family="Courier New" font-weight="bold" font-size="14.00">101</text>
<path fill="none" stroke="darkred" d="M1529.83,-220C1529.83,-220 1548.17,-220 1548.17,-220 1552.83,-220 1557.5,-224.67 1557.5,-229.33 1557.5,-229.33 1557.5,-238.67 1557.5,-238.67 1557.5,-243.33 1552.83,-248 1548.17,-248 1548.17,-248 1529.83,-248 1529.83,-248 1525.17,-248 1520.5,-243.33 1520.5,-238.67 1520.5,-238.67 1520.5,-229.33 1520.5,-229.33 1520.5,-224.67 1525.17,-220 1529.83,-220"/>
</g>
<!-- 100&#45;&gt;101 -->
<g id="edge3" class="edge">
<title>100&#45;&gt;101</title>
<path fill="none" stroke="black" d="M1498.24,-356.15C1495.97,-338.25 1494.27,-309.37 1502,-286 1504.95,-277.09 1510.07,-268.43 1515.59,-260.84"/>
<polygon fill="black" stroke="black" points="1518.27,-263.09 1521.71,-253.07 1512.77,-258.76 1518.27,-263.09"/>
<text text-anchor="start" x="1506" y="-302" font-family="Courier New" font-weight="bold" font-size="10.00" fill="blue">SHOW(0,0)</text>
</g>
<!-- 101&#45;&gt;0 -->
<g id="edge4" class="edge">
<title>101&#45;&gt;0</title>
<path fill="none" stroke="black" d="M1548.88,-251.94C1554.12,-261.62 1560.24,-274.16 1564,-286 1575.86,-323.33 1578,-333.84 1578,-373 1578,-631 1578,-631 1578,-631 1578,-731.44 1521.78,-755.42 1435,-806 1394.09,-829.84 1371.83,-801.81 1330,-824 1324.08,-827.14 1318.56,-831.62 1313.71,-836.39"/>
<polygon fill="black" stroke="black" points="1311.45,-833.68 1307.25,-843.41 1316.6,-838.42 1311.45,-833.68"/>
<text text-anchor="start" x="1582" y="-484" font-family="Courier New" font-weight="bold" font-size="10.00" fill="blue">SIGNAL(WIP4,SIG_CLEAR)</text>
</g>
<!-- 20 -->
<g id="node6" class="node">
<title>20</title>
<polyline fill="none" stroke="darkred" points="16,-293 38,-293"/>
<text text-anchor="start" x="19" y="-300.4" font-family="Courier New" font-weight="bold" font-size="14.00">20</text>
<path fill="none" stroke="darkred" d="M22.33,-290C22.33,-290 31.67,-290 31.67,-290 36.33,-290 41,-294.67 41,-299.33 41,-299.33 41,-308.67 41,-308.67 41,-313.33 36.33,-318 31.67,-318 31.67,-318 22.33,-318 22.33,-318 17.67,-318 13,-313.33 13,-308.67 13,-308.67 13,-299.33 13,-299.33 13,-294.67 17.67,-290 22.33,-290"/>
</g>
<!-- playForward -->
<g id="node7" class="node">
<title>playForward</title>
<polyline fill="none" stroke="darkred" points="589,-7 687,-7"/>
<text text-anchor="start" x="592" y="-14.4" font-family="Courier New" font-weight="bold" font-size="14.00">playForward</text>
<path fill="none" stroke="darkred" d="M595.33,-4C595.33,-4 680.67,-4 680.67,-4 685.33,-4 690,-8.67 690,-13.33 690,-13.33 690,-22.67 690,-22.67 690,-27.33 685.33,-32 680.67,-32 680.67,-32 595.33,-32 595.33,-32 590.67,-32 586,-27.33 586,-22.67 586,-22.67 586,-13.33 586,-13.33 586,-8.67 590.67,-4 595.33,-4"/>
</g>
<!-- 20&#45;&gt;playForward -->
<g id="edge5" class="edge">
<title>20&#45;&gt;playForward</title>
<path fill="none" stroke="black" d="M21.36,-286.22C12.31,-256.12 -2.14,-191.85 22,-146 55.65,-82.08 87.82,-77.89 156,-54 229.78,-28.15 451.55,-21.39 566.76,-19.62"/>
<polygon fill="black" stroke="black" points="566.78,-23.12 576.73,-19.48 566.68,-16.12 566.78,-23.12"/>
<text text-anchor="start" x="26" y="-162" font-family="Courier New" font-weight="bold" font-size="10.00" fill="blue">ASSIGN(WSPRITE,happy)</text>
</g>
<!-- playForward&#45;&gt;sitting -->
<g id="edge16" class="edge">
<title>playForward&#45;&gt;sitting</title>
<path fill="none" stroke="black" d="M578.25,-18.15C452.09,-17.98 170,-26.78 170,-109 170,-375 170,-375 170,-375 170,-445.95 694.84,-474.92 872.8,-482.7"/>
<polygon fill="black" stroke="black" points="872.6,-486.2 882.74,-483.13 872.9,-479.21 872.6,-486.2"/>
<polygon fill="none" stroke="black" points="173,-247 173,-265 473,-265 473,-247 173,-247"/>
<text text-anchor="start" x="274.99" y="-254" font-family="Courier New" font-weight="bold" font-size="10.00" fill="blue">ASSIGN(BFRAME,0)</text>
<polygon fill="none" stroke="black" points="173,-203 173,-245 473,-245 473,-203 173,-203"/>
<text text-anchor="start" x="176" y="-233" font-family="Courier New" font-size="10.00" fill="blue"> &#160;&#160;&#160;MAP(WSPRITE,WPARM);</text>
<text text-anchor="start" x="176" y="-221" font-family="Courier New" font-size="10.00" fill="blue"> &#160;&#160;&#160;SHOW(WSPRITE);</text>
<text text-anchor="start" x="176" y="-209" font-family="Courier New" font-size="10.00" fill="blue"> &#160;&#160;&#160;ANIMATE(0,V_REWIND); //PLAY FORWARD THEN BACK</text>
<polygon fill="none" stroke="black" points="170,-200 170,-268 476,-268 476,-200 170,-200"/>
</g>
<!-- 21 -->
<g id="node8" class="node">
<title>21</title>
<polyline fill="none" stroke="darkred" points="457,-99 479,-99"/>
<text text-anchor="start" x="460" y="-106.4" font-family="Courier New" font-weight="bold" font-size="14.00">21</text>
<path fill="none" stroke="darkred" d="M463.33,-96C463.33,-96 472.67,-96 472.67,-96 477.33,-96 482,-100.67 482,-105.33 482,-105.33 482,-114.67 482,-114.67 482,-119.33 477.33,-124 472.67,-124 472.67,-124 463.33,-124 463.33,-124 458.67,-124 454,-119.33 454,-114.67 454,-114.67 454,-105.33 454,-105.33 454,-100.67 458.67,-96 463.33,-96"/>
</g>
<!-- 21&#45;&gt;playForward -->
<g id="edge6" class="edge">
<title>21&#45;&gt;playForward</title>
<path fill="none" stroke="black" d="M463.27,-92.2C460.98,-80.22 460.34,-64.44 469,-54 481.68,-38.72 526.53,-29.88 566.84,-24.91"/>
<polygon fill="black" stroke="black" points="567.02,-28.41 576.55,-23.78 566.22,-21.45 567.02,-28.41"/>
<text text-anchor="start" x="473" y="-62" font-family="Courier New" font-weight="bold" font-size="10.00" fill="blue">ASSIGN(WSPRITE,hurt)</text>
</g>
<!-- 22 -->
<g id="node9" class="node">
<title>22</title>
<polyline fill="none" stroke="darkred" points="1143,-363 1165,-363"/>
<text text-anchor="start" x="1146" y="-370.4" font-family="Courier New" font-weight="bold" font-size="14.00">22</text>
<path fill="none" stroke="darkred" d="M1149.33,-360C1149.33,-360 1158.67,-360 1158.67,-360 1163.33,-360 1168,-364.67 1168,-369.33 1168,-369.33 1168,-378.67 1168,-378.67 1168,-383.33 1163.33,-388 1158.67,-388 1158.67,-388 1149.33,-388 1149.33,-388 1144.67,-388 1140,-383.33 1140,-378.67 1140,-378.67 1140,-369.33 1140,-369.33 1140,-364.67 1144.67,-360 1149.33,-360"/>
</g>
<!-- playOnce -->
<g id="node10" class="node">
<title>playOnce</title>
<polyline fill="none" stroke="darkred" points="1281,-223 1354,-223"/>
<text text-anchor="start" x="1284" y="-230.4" font-family="Courier New" font-weight="bold" font-size="14.00">playOnce</text>
<path fill="none" stroke="darkred" d="M1286.83,-220C1286.83,-220 1347.17,-220 1347.17,-220 1351.83,-220 1356.5,-224.67 1356.5,-229.33 1356.5,-229.33 1356.5,-238.67 1356.5,-238.67 1356.5,-243.33 1351.83,-248 1347.17,-248 1347.17,-248 1286.83,-248 1286.83,-248 1282.17,-248 1277.5,-243.33 1277.5,-238.67 1277.5,-238.67 1277.5,-229.33 1277.5,-229.33 1277.5,-224.67 1282.17,-220 1286.83,-220"/>
</g>
<!-- 22&#45;&gt;playOnce -->
<g id="edge7" class="edge">
<title>22&#45;&gt;playOnce</title>
<path fill="none" stroke="black" d="M1153.56,-356.11C1153.97,-336.82 1157.56,-305.43 1175,-286 1196.32,-262.25 1229.5,-249.55 1258.43,-242.77"/>
<polygon fill="black" stroke="black" points="1259.16,-246.19 1268.21,-240.69 1257.7,-239.35 1259.16,-246.19"/>
<text text-anchor="start" x="1179" y="-302" font-family="Courier New" font-weight="bold" font-size="10.00" fill="blue">ASSIGN(WSPRITE,kiss)</text>
</g>
<!-- playOnce&#45;&gt;sitting -->
<g id="edge17" class="edge">
<title>playOnce&#45;&gt;sitting</title>
<path fill="none" stroke="black" d="M1319.18,-251.92C1320.67,-271.24 1319.94,-302.67 1303,-322 1284.65,-342.94 1261.91,-319.56 1243,-340 1210.26,-375.39 1255.42,-413.29 1220,-446 1187.32,-476.18 1063.33,-483.3 988.78,-484.8"/>
<polygon fill="black" stroke="black" points="989.17,-481.3 979.23,-484.97 989.29,-488.29 989.17,-481.3"/>
<polygon fill="none" stroke="black" points="1246,-387 1246,-405 1390,-405 1390,-387 1246,-387"/>
<text text-anchor="start" x="1269.99" y="-394" font-family="Courier New" font-weight="bold" font-size="10.00" fill="blue">ASSIGN(BFRAME,0)</text>
<polygon fill="none" stroke="black" points="1246,-343 1246,-385 1390,-385 1390,-343 1246,-343"/>
<text text-anchor="start" x="1249" y="-373" font-family="Courier New" font-size="10.00" fill="blue"> &#160;&#160;&#160;MAP(WSPRITE,WPARM);</text>
<text text-anchor="start" x="1249" y="-361" font-family="Courier New" font-size="10.00" fill="blue"> &#160;&#160;&#160;SHOW(WSPRITE);</text>
<text text-anchor="start" x="1249" y="-349" font-family="Courier New" font-size="10.00" fill="blue"> &#160;&#160;&#160;ANIMATE(0,0);</text>
<polygon fill="none" stroke="black" points="1243,-340 1243,-408 1393,-408 1393,-340 1243,-340"/>
</g>
<!-- 23 -->
<g id="node11" class="node">
<title>23</title>
<polyline fill="none" stroke="darkred" points="701,-293 723,-293"/>
<text text-anchor="start" x="704" y="-300.4" font-family="Courier New" font-weight="bold" font-size="14.00">23</text>
<path fill="none" stroke="darkred" d="M707.33,-290C707.33,-290 716.67,-290 716.67,-290 721.33,-290 726,-294.67 726,-299.33 726,-299.33 726,-308.67 726,-308.67 726,-313.33 721.33,-318 716.67,-318 716.67,-318 707.33,-318 707.33,-318 702.67,-318 698,-313.33 698,-308.67 698,-308.67 698,-299.33 698,-299.33 698,-294.67 702.67,-290 707.33,-290"/>
</g>
<!-- 23&#45;&gt;playForward -->
<g id="edge8" class="edge">
<title>23&#45;&gt;playForward</title>
<path fill="none" stroke="black" d="M690.01,-286.21C664.42,-265.12 623.54,-226.3 607,-182 589.8,-135.93 609.32,-78.83 624.24,-45.89"/>
<polygon fill="black" stroke="black" points="627.3,-47.6 628.42,-37.06 620.98,-44.6 627.3,-47.6"/>
<text text-anchor="start" x="611" y="-162" font-family="Courier New" font-weight="bold" font-size="10.00" fill="blue">ASSIGN(WSPRITE,mad)</text>
</g>
<!-- 24 -->
<g id="node12" class="node">
<title>24</title>
<polyline fill="none" stroke="darkred" points="754,-153 776,-153"/>
<text text-anchor="start" x="757" y="-160.4" font-family="Courier New" font-weight="bold" font-size="14.00">24</text>
<path fill="none" stroke="darkred" d="M760.33,-150C760.33,-150 769.67,-150 769.67,-150 774.33,-150 779,-154.67 779,-159.33 779,-159.33 779,-168.67 779,-168.67 779,-173.33 774.33,-178 769.67,-178 769.67,-178 760.33,-178 760.33,-178 755.67,-178 751,-173.33 751,-168.67 751,-168.67 751,-159.33 751,-159.33 751,-154.67 755.67,-150 760.33,-150"/>
</g>
<!-- 24&#45;&gt;playForward -->
<g id="edge9" class="edge">
<title>24&#45;&gt;playForward</title>
<path fill="none" stroke="black" d="M738.1,-147.86C736.72,-147.21 735.35,-146.59 734,-146 710.4,-135.77 697.58,-145.79 679,-128 656.54,-106.49 646.26,-71.47 641.64,-46.95"/>
<polygon fill="black" stroke="black" points="645.14,-46.64 640.05,-37.35 638.24,-47.79 645.14,-46.64"/>
<text text-anchor="start" x="683" y="-108" font-family="Courier New" font-weight="bold" font-size="10.00" fill="blue">ASSIGN(WSPRITE,sad)</text>
</g>
<!-- 25 -->
<g id="node13" class="node">
<title>25</title>
<polyline fill="none" stroke="darkred" points="837,-293 859,-293"/>
<text text-anchor="start" x="840" y="-300.4" font-family="Courier New" font-weight="bold" font-size="14.00">25</text>
<path fill="none" stroke="darkred" d="M843.33,-290C843.33,-290 852.67,-290 852.67,-290 857.33,-290 862,-294.67 862,-299.33 862,-299.33 862,-308.67 862,-308.67 862,-313.33 857.33,-318 852.67,-318 852.67,-318 843.33,-318 843.33,-318 838.67,-318 834,-313.33 834,-308.67 834,-308.67 834,-299.33 834,-299.33 834,-294.67 838.67,-290 843.33,-290"/>
</g>
<!-- 25&#45;&gt;playForward -->
<g id="edge10" class="edge">
<title>25&#45;&gt;playForward</title>
<path fill="none" stroke="black" d="M841.71,-286.03C833.38,-262.86 818.82,-219.86 811,-182 802.86,-142.59 824.72,-124.52 801,-92 779.07,-61.94 741.88,-44.02 708.56,-33.46"/>
<polygon fill="black" stroke="black" points="709.93,-30.22 699.35,-30.72 707.93,-36.93 709.93,-30.22"/>
<text text-anchor="start" x="815" y="-162" font-family="Courier New" font-weight="bold" font-size="10.00" fill="blue">ASSIGN(WSPRITE,surprised)</text>
</g>
<!-- 26 -->
<g id="node14" class="node">
<title>26</title>
<polyline fill="none" stroke="darkred" points="994,-153 1016,-153"/>
<text text-anchor="start" x="997" y="-160.4" font-family="Courier New" font-weight="bold" font-size="14.00">26</text>
<path fill="none" stroke="darkred" d="M1000.33,-150C1000.33,-150 1009.67,-150 1009.67,-150 1014.33,-150 1019,-154.67 1019,-159.33 1019,-159.33 1019,-168.67 1019,-168.67 1019,-173.33 1014.33,-178 1009.67,-178 1009.67,-178 1000.33,-178 1000.33,-178 995.67,-178 991,-173.33 991,-168.67 991,-168.67 991,-159.33 991,-159.33 991,-154.67 995.67,-150 1000.33,-150"/>
</g>
<!-- 26&#45;&gt;playForward -->
<g id="edge11" class="edge">
<title>26&#45;&gt;playForward</title>
<path fill="none" stroke="black" d="M978.19,-147.62C976.79,-147.03 975.39,-146.49 974,-146 929.72,-130.51 908.23,-155.18 870,-128 839.36,-106.21 859.53,-75.94 829,-54 809.9,-40.28 754.91,-31.12 708.8,-25.62"/>
<polygon fill="black" stroke="black" points="709.44,-22.17 699.11,-24.51 708.64,-29.13 709.44,-22.17"/>
<text text-anchor="start" x="874" y="-108" font-family="Courier New" font-weight="bold" font-size="10.00" fill="blue">ASSIGN(WSPRITE,stress)</text>
</g>
<!-- 27 -->
<g id="node15" class="node">
<title>27</title>
<polyline fill="none" stroke="darkred" points="1035,-99 1057,-99"/>
<text text-anchor="start" x="1038" y="-106.4" font-family="Courier New" font-weight="bold" font-size="14.00">27</text>
<path fill="none" stroke="darkred" d="M1041.33,-96C1041.33,-96 1050.67,-96 1050.67,-96 1055.33,-96 1060,-100.67 1060,-105.33 1060,-105.33 1060,-114.67 1060,-114.67 1060,-119.33 1055.33,-124 1050.67,-124 1050.67,-124 1041.33,-124 1041.33,-124 1036.67,-124 1032,-119.33 1032,-114.67 1032,-114.67 1032,-105.33 1032,-105.33 1032,-100.67 1036.67,-96 1041.33,-96"/>
</g>
<!-- 27&#45;&gt;playForward -->
<g id="edge12" class="edge">
<title>27&#45;&gt;playForward</title>
<path fill="none" stroke="black" d="M1019.26,-97.42C1014.54,-95.52 1009.65,-93.64 1005,-92 948.22,-72 933.8,-66.87 875,-54 819.82,-41.92 756.49,-32.81 709.19,-26.91"/>
<polygon fill="black" stroke="black" points="709.68,-23.45 699.33,-25.71 708.83,-30.4 709.68,-23.45"/>
<text text-anchor="start" x="956" y="-62" font-family="Courier New" font-weight="bold" font-size="10.00" fill="blue">ASSIGN(WSPRITE,wave)</text>
</g>
<!-- 30 -->
<g id="node16" class="node">
<title>30</title>
<polyline fill="none" stroke="darkred" points="1418,-363 1440,-363"/>
<text text-anchor="start" x="1421" y="-370.4" font-family="Courier New" font-weight="bold" font-size="14.00">30</text>
<path fill="none" stroke="darkred" d="M1424.33,-360C1424.33,-360 1433.67,-360 1433.67,-360 1438.33,-360 1443,-364.67 1443,-369.33 1443,-369.33 1443,-378.67 1443,-378.67 1443,-383.33 1438.33,-388 1433.67,-388 1433.67,-388 1424.33,-388 1424.33,-388 1419.67,-388 1415,-383.33 1415,-378.67 1415,-378.67 1415,-369.33 1415,-369.33 1415,-364.67 1419.67,-360 1424.33,-360"/>
</g>
<!-- 30&#45;&gt;playOnce -->
<g id="edge13" class="edge">
<title>30&#45;&gt;playOnce</title>
<path fill="none" stroke="black" d="M1408.25,-356.07C1401.8,-350.87 1394.64,-345.16 1388,-340 1377.47,-331.82 1372.7,-332.1 1364,-322 1348.59,-304.12 1336.18,-280.36 1327.99,-262.18"/>
<polygon fill="black" stroke="black" points="1331.23,-260.87 1324.05,-253.08 1324.81,-263.65 1331.23,-260.87"/>
<text text-anchor="start" x="1368" y="-302" font-family="Courier New" font-weight="bold" font-size="10.00" fill="blue">ASSIGN(WSPRITE,dead)</text>
</g>
<!-- 50 -->
<g id="node17" class="node">
<title>50</title>
<polyline fill="none" stroke="darkred" points="418,-363 440,-363"/>
<text text-anchor="start" x="421" y="-370.4" font-family="Courier New" font-weight="bold" font-size="14.00">50</text>
<path fill="none" stroke="darkred" d="M424.33,-360C424.33,-360 433.67,-360 433.67,-360 438.33,-360 443,-364.67 443,-369.33 443,-369.33 443,-378.67 443,-378.67 443,-383.33 438.33,-388 433.67,-388 433.67,-388 424.33,-388 424.33,-388 419.67,-388 415,-383.33 415,-378.67 415,-378.67 415,-369.33 415,-369.33 415,-364.67 419.67,-360 424.33,-360"/>
</g>
<!-- 51 -->
<g id="node18" class="node">
<title>51</title>
<polyline fill="none" stroke="darkred" points="510,-223 532,-223"/>
<text text-anchor="start" x="513" y="-230.4" font-family="Courier New" font-weight="bold" font-size="14.00">51</text>
<path fill="none" stroke="darkred" d="M516.33,-220C516.33,-220 525.67,-220 525.67,-220 530.33,-220 535,-224.67 535,-229.33 535,-229.33 535,-238.67 535,-238.67 535,-243.33 530.33,-248 525.67,-248 525.67,-248 516.33,-248 516.33,-248 511.67,-248 507,-243.33 507,-238.67 507,-238.67 507,-229.33 507,-229.33 507,-224.67 511.67,-220 516.33,-220"/>
</g>
<!-- 50&#45;&gt;51 -->
<g id="edge14" class="edge">
<title>50&#45;&gt;51</title>
<path fill="none" stroke="black" d="M421,-356.14C413.3,-337.17 404.86,-306.34 420,-286 436.62,-263.66 455.36,-280.97 480,-268 484.9,-265.42 489.77,-262.22 494.36,-258.83"/>
<polygon fill="black" stroke="black" points="496.44,-261.64 502.11,-252.68 492.1,-256.15 496.44,-261.64"/>
<text text-anchor="start" x="424" y="-302" font-family="Courier New" font-weight="bold" font-size="10.00" fill="blue">VIDEO(0,IDS_EXPLODE1)</text>
</g>
<!-- 51&#45;&gt;21 -->
<g id="edge15" class="edge">
<title>51&#45;&gt;21</title>
<path fill="none" stroke="black" d="M503.83,-216.33C496.9,-210.41 488.54,-204.18 480,-200 448.82,-184.74 425.53,-209.23 404,-182 394.08,-169.45 395.84,-159.76 404,-146 410.05,-135.79 420.26,-128.36 430.76,-123.05"/>
<polygon fill="black" stroke="black" points="432.11,-126.28 439.83,-119.03 429.27,-119.88 432.11,-126.28"/>
<text text-anchor="start" x="408" y="-162" font-family="Courier New" font-weight="bold" font-size="10.00" fill="blue">PLAYWAVE(0,SOUND_EXPLODE)</text>
</g>
<!-- sitting&#45;&gt;0 -->
<g id="edge30" class="edge">
<title>sitting&#45;&gt;0</title>
<path fill="none" stroke="black" d="M977.8,-487.82C1077.93,-492.45 1311.65,-519.22 1408,-666 1442.15,-718.02 1446.74,-757.31 1408,-806 1385.85,-833.84 1360.94,-806.44 1330,-824 1324.17,-827.31 1318.69,-831.86 1313.85,-836.65"/>
<polygon fill="black" stroke="black" points="1311.6,-833.93 1307.38,-843.65 1316.74,-838.68 1311.6,-833.93"/>
<text text-anchor="start" x="1398" y="-628" font-family="Courier New" font-weight="bold" font-size="10.00" fill="orange">WAIT(0,0)</text>
</g>
<!-- sitting&#45;&gt;100 -->
<g id="edge29" class="edge">
<title>sitting&#45;&gt;100</title>
<path fill="none" stroke="black" d="M977.97,-484.62C1083.63,-483.22 1336.95,-476.66 1416,-446 1440.88,-436.35 1463.77,-416.29 1479.51,-399.95"/>
<polygon fill="black" stroke="black" points="1481.8,-402.63 1486.04,-392.92 1476.67,-397.87 1481.8,-402.63"/>
<text text-anchor="start" x="1453" y="-434" font-family="Courier New" font-weight="bold" font-size="10.00" fill="orange">WAIT(0,SIG_CLEAR)</text>
</g>
<!-- sitting&#45;&gt;20 -->
<g id="edge19" class="edge">
<title>sitting&#45;&gt;20</title>
<path fill="none" stroke="black" d="M884.06,-484.58C705.51,-482.79 77.15,-474.47 46,-446 15.28,-417.93 16.77,-365.74 21.37,-333.33"/>
<polygon fill="black" stroke="black" points="24.83,-333.9 22.99,-323.46 17.92,-332.77 24.83,-333.9"/>
<text text-anchor="start" x="50" y="-434" font-family="Courier New" font-weight="bold" font-size="10.00" fill="orange">WAIT(0,SIG_HAPPY)</text>
</g>
<!-- sitting&#45;&gt;21 -->
<g id="edge20" class="edge">
<title>sitting&#45;&gt;21</title>
<path fill="none" stroke="black" d="M884.19,-484.37C809.7,-482.5 668.55,-475.09 629,-446 580.14,-410.06 586.64,-380.86 572,-322 553.09,-245.97 608.51,-209.05 562,-146 548.89,-128.23 525.7,-119.48 505.64,-115.17"/>
<polygon fill="black" stroke="black" points="506.54,-111.77 496.08,-113.43 505.29,-118.66 506.54,-111.77"/>
<text text-anchor="start" x="576" y="-302" font-family="Courier New" font-weight="bold" font-size="10.00" fill="orange">WAIT(0,SIG_HURT)</text>
</g>
<!-- sitting&#45;&gt;22 -->
<g id="edge21" class="edge">
<title>sitting&#45;&gt;22</title>
<path fill="none" stroke="black" d="M977.99,-480.29C1010.4,-475.42 1053.51,-465.61 1087,-446 1106.26,-434.72 1123.43,-416.27 1135.57,-400.99"/>
<polygon fill="black" stroke="black" points="1138.24,-403.26 1141.53,-393.19 1132.68,-399.01 1138.24,-403.26"/>
<text text-anchor="start" x="1116" y="-434" font-family="Courier New" font-weight="bold" font-size="10.00" fill="orange">WAIT(0,SIG_KISS)</text>
</g>
<!-- sitting&#45;&gt;23 -->
<g id="edge22" class="edge">
<title>sitting&#45;&gt;23</title>
<path fill="none" stroke="black" d="M884.05,-485.8C810.39,-485.94 672.86,-481.31 642,-446 611.12,-410.68 653.13,-359.33 684.16,-329.33"/>
<polygon fill="black" stroke="black" points="686.16,-332.25 691.05,-322.86 681.36,-327.15 686.16,-332.25"/>
<text text-anchor="start" x="646" y="-434" font-family="Courier New" font-weight="bold" font-size="10.00" fill="orange">WAIT(0,SIG_MAD)</text>
</g>
<!-- sitting&#45;&gt;24 -->
<g id="edge23" class="edge">
<title>sitting&#45;&gt;24</title>
<path fill="none" stroke="black" d="M884.2,-478.95C842.12,-470.75 782.66,-451.72 754,-408 731.3,-373.37 749.83,-249.19 759.75,-192.99"/>
<polygon fill="black" stroke="black" points="763.17,-193.73 761.5,-183.27 756.28,-192.49 763.17,-193.73"/>
<text text-anchor="start" x="758" y="-372" font-family="Courier New" font-weight="bold" font-size="10.00" fill="orange">WAIT(0,SIG_SAD)</text>
</g>
<!-- sitting&#45;&gt;25 -->
<g id="edge24" class="edge">
<title>sitting&#45;&gt;25</title>
<path fill="none" stroke="black" d="M884.29,-465.19C876.73,-460.01 869.81,-453.66 865,-446 852.42,-425.98 859.64,-363.36 856,-340 855.65,-337.78 855.25,-335.5 854.8,-333.21"/>
<polygon fill="black" stroke="black" points="858.24,-332.52 852.71,-323.48 851.39,-333.99 858.24,-332.52"/>
<text text-anchor="start" x="869" y="-434" font-family="Courier New" font-weight="bold" font-size="10.00" fill="orange">WAIT(0,SIG_SURPRISED)</text>
</g>
<!-- sitting&#45;&gt;26 -->
<g id="edge25" class="edge">
<title>sitting&#45;&gt;26</title>
<path fill="none" stroke="black" d="M977.93,-466.88C986.35,-461.46 994.02,-454.6 999,-446 1003.46,-438.31 1004.24,-433.18 999,-426 983.6,-404.87 958.4,-429.13 943,-408 925.2,-383.58 937.88,-369.79 943,-340 952.32,-285.77 976.78,-226.05 992.04,-192.28"/>
<polygon fill="black" stroke="black" points="995.2,-193.79 996.2,-183.24 988.84,-190.86 995.2,-193.79"/>
<text text-anchor="start" x="947" y="-372" font-family="Courier New" font-weight="bold" font-size="10.00" fill="orange">WAIT(0,SIG_STRESS)</text>
</g>
<!-- sitting&#45;&gt;27 -->
<g id="edge26" class="edge">
<title>sitting&#45;&gt;27</title>
<path fill="none" stroke="black" d="M977.7,-471.87C1007.81,-460.52 1044.05,-440.66 1059,-408 1071.58,-380.52 1065.94,-369.41 1059,-340 1056.95,-331.29 1052.14,-330.69 1050,-322 1034.26,-258.02 1038.66,-179.81 1042.67,-138.94"/>
<polygon fill="black" stroke="black" points="1046.12,-139.55 1043.69,-129.24 1039.16,-138.82 1046.12,-139.55"/>
<text text-anchor="start" x="1054" y="-302" font-family="Courier New" font-weight="bold" font-size="10.00" fill="orange">WAIT(0,SIG_WAVE)</text>
</g>
<!-- sitting&#45;&gt;30 -->
<g id="edge27" class="edge">
<title>sitting&#45;&gt;30</title>
<path fill="none" stroke="black" d="M977.9,-481.89C1040.17,-477.15 1153.28,-466.45 1248,-446 1277.13,-439.71 1283.26,-433.88 1312,-426 1345.48,-416.82 1356.82,-423.26 1388,-408 1393.2,-405.45 1398.34,-402.15 1403.13,-398.61"/>
<polygon fill="black" stroke="black" points="1405.01,-401.59 1410.65,-392.61 1400.65,-396.11 1405.01,-401.59"/>
<text text-anchor="start" x="1316" y="-434" font-family="Courier New" font-weight="bold" font-size="10.00" fill="orange">WAIT(0,SIG_DEAD)</text>
</g>
<!-- sitting&#45;&gt;50 -->
<g id="edge28" class="edge">
<title>sitting&#45;&gt;50</title>
<path fill="none" stroke="black" d="M884.16,-483.89C771.44,-480.83 491.85,-470.82 458,-446 444.22,-435.9 436.97,-418.09 433.16,-402.84"/>
<polygon fill="black" stroke="black" points="436.65,-402.4 431.18,-393.32 429.8,-403.82 436.65,-402.4"/>
<text text-anchor="start" x="462" y="-434" font-family="Courier New" font-weight="bold" font-size="10.00" fill="orange">WAIT(0,SIG_BOMB)</text>
</g>
<!-- status -->
<g id="node20" class="node">
<title>status</title>
<polygon fill="none" stroke="black" points="1339,-824.5 1339,-900.5 1649,-900.5 1649,-824.5 1339,-824.5"/>
<polygon fill="none" stroke="black" points="1350,-875.5 1350,-893.5 1638,-893.5 1638,-875.5 1350,-875.5"/>
<text text-anchor="start" x="1476" y="-882.5" font-family="Courier New" font-weight="bold" font-size="10.00">SID_ID</text>
<polygon fill="none" stroke="black" points="1350,-831.5 1350,-873.5 1638,-873.5 1638,-831.5 1350,-831.5"/>
<text text-anchor="start" x="1353" y="-861.5" font-family="Courier New" font-size="10.00" fill="green">VIEW::IDV_ID @pos(left:0, top:0)</text>
<text text-anchor="start" x="1353" y="-849.5" font-family="Courier New" font-size="10.00" fill="green">SID_ID::M_ID(&#39;LWISDOM&#39;,&#39;LSEX&#39;,&#39;0&#39;,&#39;SID_AURA&#39;)</text>
<text text-anchor="start" x="1353" y="-837.5" font-family="Courier New" font-size="10.00" fill="green">{state:&#39;sitting&#39;: wParm:M3 wSprite:IDS_MID3WAVE</text>
<polygon fill="none" stroke="black" points="1347,-828.5 1347,-896.5 1641,-896.5 1641,-828.5 1347,-828.5"/>
</g>
</g>
</svg>
