<?xml version="1.0" encoding="UTF-8" standalone="no"?>
<!DOCTYPE svg PUBLIC "-//W3C//DTD SVG 1.1//EN"
 "http://www.w3.org/Graphics/SVG/1.1/DTD/svg11.dtd">
<!-- Generated by graphviz version 7.1.0 (20230121.1956)
 -->
<!-- Title: Automaton Pages: 1 -->
<svg width="949pt" height="457pt"
 viewBox="0.00 0.00 948.57 457.00" xmlns="http://www.w3.org/2000/svg" xmlns:xlink="http://www.w3.org/1999/xlink">
<g id="graph0" class="graph" transform="scale(1 1) rotate(0) translate(4 453)">
<title>Automaton</title>
<polygon fill="white" stroke="none" points="-4,4 -4,-453 944.57,-453 944.57,4 -4,4"/>
<!-- filename -->
<g id="node1" class="node">
<title>filename</title>
<polygon fill="none" stroke="black" points="35.57,-380.5 35.57,-432.5 195.57,-432.5 195.57,-380.5 35.57,-380.5"/>
<polygon fill="none" stroke="black" points="46.57,-407.5 46.57,-425.5 184.57,-425.5 184.57,-407.5 46.57,-407.5"/>
<text text-anchor="start" x="49.57" y="-414.5" font-family="Courier New" font-weight="bold" font-size="10.00">SMP_EYEINFO::M_EYEINFO</text>
<polygon fill="none" stroke="black" points="46.57,-387.5 46.57,-405.5 184.57,-405.5 184.57,-387.5 46.57,-387.5"/>
<text text-anchor="start" x="70.56" y="-393.5" font-family="Courier New" font-size="10.00" fill="brown">start state = 0</text>
<polygon fill="none" stroke="black" points="43.57,-384.5 43.57,-428.5 187.57,-428.5 187.57,-384.5 43.57,-384.5"/>
</g>
<!-- 0 -->
<g id="node2" class="node">
<title>0</title>
<polyline fill="none" stroke="darkred" stroke-width="3" points="233.07,-395 248.07,-395"/>
<text text-anchor="start" x="236.57" y="-402.9" font-family="Courier New" font-weight="bold" font-size="14.00">0</text>
<path fill="none" stroke="darkred" stroke-width="3" d="M236.41,-390C236.41,-390 244.74,-390 244.74,-390 248.91,-390 253.07,-394.17 253.07,-398.33 253.07,-398.33 253.07,-414.67 253.07,-414.67 253.07,-418.83 248.91,-423 244.74,-423 244.74,-423 236.41,-423 236.41,-423 232.24,-423 228.07,-418.83 228.07,-414.67 228.07,-414.67 228.07,-398.33 228.07,-398.33 228.07,-394.17 232.24,-390 236.41,-390"/>
</g>
<!-- 100 -->
<g id="node3" class="node">
<title>100</title>
<polyline fill="none" stroke="darkred" points="369.57,-255 400.57,-255"/>
<text text-anchor="start" x="372.57" y="-262.4" font-family="Courier New" font-weight="bold" font-size="14.00">100</text>
<path fill="none" stroke="darkred" d="M375.41,-252C375.41,-252 393.74,-252 393.74,-252 398.41,-252 403.07,-256.67 403.07,-261.33 403.07,-261.33 403.07,-270.67 403.07,-270.67 403.07,-275.33 398.41,-280 393.74,-280 393.74,-280 375.41,-280 375.41,-280 370.74,-280 366.07,-275.33 366.07,-270.67 366.07,-270.67 366.07,-261.33 366.07,-261.33 366.07,-256.67 370.74,-252 375.41,-252"/>
</g>
<!-- 0&#45;&gt;100 -->
<g id="edge1" class="edge">
<title>0&#45;&gt;100</title>
<path fill="none" stroke="black" d="M256.65,-384.52C262.52,-377.57 269.46,-370.06 276.57,-364 288.12,-354.16 295.25,-357.12 305.57,-346 320.59,-329.83 313.58,-318.19 328.57,-302 334.19,-295.93 341.1,-290.5 348.12,-285.83"/>
<polygon fill="black" stroke="black" points="349.68,-288.97 356.35,-280.74 346.01,-283.02 349.68,-288.97"/>
<polygon fill="none" stroke="black" points="331.57,-325 331.57,-343 649.57,-343 649.57,-325 331.57,-325"/>
<text text-anchor="start" x="463.57" y="-332" font-family="Courier New" font-weight="bold" font-size="10.00" fill="orange">DROP(0,0)</text>
<polygon fill="none" stroke="black" points="331.57,-305 331.57,-323 649.57,-323 649.57,-305 331.57,-305"/>
<text text-anchor="start" x="334.57" y="-311" font-family="Courier New" font-size="10.00" fill="blue">PLAYWAVE(SOUND_POPUP);ASHOW(WOBJECT);CLEAR(WVIEWID);</text>
<polygon fill="none" stroke="black" points="328.57,-302 328.57,-346 652.57,-346 652.57,-302 328.57,-302"/>
</g>
<!-- 10 -->
<g id="node4" class="node">
<title>10</title>
<polyline fill="none" stroke="darkred" points="183.57,-255 205.57,-255"/>
<text text-anchor="start" x="186.57" y="-262.4" font-family="Courier New" font-weight="bold" font-size="14.00">10</text>
<path fill="none" stroke="darkred" d="M189.91,-252C189.91,-252 199.24,-252 199.24,-252 203.91,-252 208.57,-256.67 208.57,-261.33 208.57,-261.33 208.57,-270.67 208.57,-270.67 208.57,-275.33 203.91,-280 199.24,-280 199.24,-280 189.91,-280 189.91,-280 185.24,-280 180.57,-275.33 180.57,-270.67 180.57,-270.67 180.57,-261.33 180.57,-261.33 180.57,-256.67 185.24,-252 189.91,-252"/>
</g>
<!-- 0&#45;&gt;10 -->
<g id="edge2" class="edge">
<title>0&#45;&gt;10</title>
<path fill="none" stroke="black" d="M227.48,-384.83C221.46,-377.04 213.64,-368.89 204.57,-364 178.13,-349.73 90.35,-368.62 70.57,-346 57.7,-331.28 58.3,-317.22 70.57,-302 94.27,-272.62 117.55,-295.27 153.57,-284 154.75,-283.63 155.94,-283.24 157.13,-282.84"/>
<polygon fill="black" stroke="black" points="158.33,-286.13 166.5,-279.38 155.91,-279.56 158.33,-286.13"/>
<text text-anchor="start" x="74.57" y="-322" font-family="Courier New" font-weight="bold" font-size="10.00" fill="orange">GRAB(0,0)</text>
</g>
<!-- 100&#45;&gt;0 -->
<g id="edge6" class="edge">
<title>100&#45;&gt;0</title>
<path fill="none" stroke="black" d="M411.32,-266.61C492.08,-266.21 723.69,-271.39 652.57,-346 623.71,-376.27 314.2,-345.73 276.57,-364 270.53,-366.94 265.08,-371.4 260.36,-376.33"/>
<polygon fill="black" stroke="black" points="257.9,-373.82 254.11,-383.72 263.24,-378.34 257.9,-373.82"/>
<text text-anchor="start" x="669.57" y="-322" font-family="Courier New" font-weight="bold" font-size="10.00" fill="blue">Z_EPSILON(0,0)</text>
</g>
<!-- 120 -->
<g id="node5" class="node">
<title>120</title>
<polyline fill="none" stroke="darkred" points="171.57,-7 202.57,-7"/>
<text text-anchor="start" x="174.57" y="-14.4" font-family="Courier New" font-weight="bold" font-size="14.00">120</text>
<path fill="none" stroke="darkred" d="M177.41,-4C177.41,-4 195.74,-4 195.74,-4 200.41,-4 205.07,-8.67 205.07,-13.33 205.07,-13.33 205.07,-22.67 205.07,-22.67 205.07,-27.33 200.41,-32 195.74,-32 195.74,-32 177.41,-32 177.41,-32 172.74,-32 168.07,-27.33 168.07,-22.67 168.07,-22.67 168.07,-13.33 168.07,-13.33 168.07,-8.67 172.74,-4 177.41,-4"/>
</g>
<!-- 100&#45;&gt;120 -->
<g id="edge4" class="edge">
<title>100&#45;&gt;120</title>
<path fill="none" stroke="black" d="M357.66,-261.72C320.93,-256.71 257.82,-246.01 241.57,-230 191.55,-180.72 185.14,-92.08 185.41,-46.99"/>
<polygon fill="black" stroke="black" points="188.9,-47.32 185.59,-37.26 181.9,-47.19 188.9,-47.32"/>
<polygon fill="none" stroke="black" points="244.57,-209 244.57,-227 472.57,-227 472.57,-209 244.57,-209"/>
<text text-anchor="start" x="286.56" y="-216" font-family="Courier New" font-weight="bold" font-size="10.00" fill="blue">IS_A(WOBJECT,IDC_SCROLL)</text>
<polygon fill="none" stroke="black" points="244.57,-57 244.57,-207 472.57,-207 472.57,-57 244.57,-57"/>
<text text-anchor="start" x="247.57" y="-195" font-family="Courier New" font-size="10.00" fill="blue">MOV(WPARM,WOBJECT);</text>
<text text-anchor="start" x="247.57" y="-183" font-family="Courier New" font-size="10.00" fill="blue"> &#160;&#160;&#160;&#160;&#160;&#160;&#160;MAPi(WPARM,S12_SCROLL);</text>
<text text-anchor="start" x="247.57" y="-171" font-family="Courier New" font-size="10.00" fill="blue"> &#160;&#160;&#160;&#160;&#160;&#160;&#160;MOV(WVIEWID,LVIEW);</text>
<text text-anchor="start" x="247.57" y="-159" font-family="Courier New" font-size="10.00" fill="blue"> &#160;&#160;&#160;&#160;&#160;&#160;&#160;SIGNALi(SIG_SHOW,S12_SHIELD);</text>
<text text-anchor="start" x="247.57" y="-147" font-family="Courier New" font-size="10.00" fill="blue"> &#160;&#160;&#160;&#160;&#160;&#160;&#160;SIGNALi(SIG_SHOW,S12_WORD);</text>
<text text-anchor="start" x="247.57" y="-135" font-family="Courier New" font-size="10.00" fill="blue"> &#160;&#160;&#160;&#160;&#160;&#160;&#160;SIGNALi(SIG_SHOW,S12_ING1);</text>
<text text-anchor="start" x="247.57" y="-123" font-family="Courier New" font-size="10.00" fill="blue"> &#160;&#160;&#160;&#160;&#160;&#160;&#160;SIGNALi(SIG_SHOW,S12_ING2);</text>
<text text-anchor="start" x="247.57" y="-111" font-family="Courier New" font-size="10.00" fill="blue"> &#160;&#160;&#160;&#160;&#160;&#160;&#160;SIGNALi(SIG_SHOW,S12_ING3);</text>
<text text-anchor="start" x="247.57" y="-99" font-family="Courier New" font-size="10.00" fill="blue"> &#160;&#160;&#160;&#160;&#160;&#160;&#160;SIGNALi(SIG_SHOW,S12_ING4);</text>
<text text-anchor="start" x="247.57" y="-87" font-family="Courier New" font-size="10.00" fill="blue"> &#160;&#160;&#160;&#160;&#160;&#160;&#160;SIGNALi(SIG_SHOW,S12_NYST);</text>
<text text-anchor="start" x="247.57" y="-75" font-family="Courier New" font-size="10.00" fill="blue"> &#160;&#160;&#160;&#160;&#160;&#160;</text>
<text text-anchor="start" x="247.57" y="-63" font-family="Courier New" font-size="10.00" fill="blue"> &#160;&#160;&#160;&#160;&#160;&#160;</text>
<polygon fill="none" stroke="black" points="241.57,-54 241.57,-230 475.57,-230 475.57,-54 241.57,-54"/>
</g>
<!-- 130 -->
<g id="node6" class="node">
<title>130</title>
<polyline fill="none" stroke="darkred" points="709.57,-7 740.57,-7"/>
<text text-anchor="start" x="712.57" y="-14.4" font-family="Courier New" font-weight="bold" font-size="14.00">130</text>
<path fill="none" stroke="darkred" d="M715.41,-4C715.41,-4 733.74,-4 733.74,-4 738.41,-4 743.07,-8.67 743.07,-13.33 743.07,-13.33 743.07,-22.67 743.07,-22.67 743.07,-27.33 738.41,-32 733.74,-32 733.74,-32 715.41,-32 715.41,-32 710.74,-32 706.07,-27.33 706.07,-22.67 706.07,-22.67 706.07,-13.33 706.07,-13.33 706.07,-8.67 710.74,-4 715.41,-4"/>
</g>
<!-- 100&#45;&gt;130 -->
<g id="edge5" class="edge">
<title>100&#45;&gt;130</title>
<path fill="none" stroke="black" d="M411.22,-260.17C430.99,-255.41 457.53,-246.38 475.57,-230 540.32,-171.21 494.52,-107.66 563.57,-54 598.88,-26.56 651.1,-19.58 686.42,-18.31"/>
<polygon fill="black" stroke="black" points="686.26,-21.81 696.18,-18.1 686.11,-14.81 686.26,-21.81"/>
<polygon fill="none" stroke="black" points="566.57,-161 566.57,-179 764.57,-179 764.57,-161 566.57,-161"/>
<text text-anchor="start" x="569.57" y="-168" font-family="Courier New" font-weight="bold" font-size="10.00" fill="blue">IS_A(WOBJECT,ISA_ENCHANTEDSTONE)</text>
<polygon fill="none" stroke="black" points="566.57,-105 566.57,-159 764.57,-159 764.57,-105 566.57,-105"/>
<text text-anchor="start" x="584.56" y="-147" font-family="Courier New" font-size="10.00" fill="blue">MOV(WPARM,WOBJECT);</text>
<text text-anchor="start" x="584.56" y="-135" font-family="Courier New" font-size="10.00" fill="blue"> &#160;&#160;&#160;&#160;&#160;&#160;&#160;MOV(WVIEWID,LVIEW);</text>
<text text-anchor="start" x="584.56" y="-123" font-family="Courier New" font-size="10.00" fill="blue"> &#160;&#160;&#160;&#160;&#160;&#160;&#160;</text>
<text text-anchor="start" x="584.56" y="-111" font-family="Courier New" font-size="10.00" fill="blue"> &#160;&#160;&#160;&#160;&#160;&#160;&#160;</text>
<polygon fill="none" stroke="black" points="563.57,-102 563.57,-182 767.57,-182 767.57,-102 563.57,-102"/>
</g>
<!-- 10&#45;&gt;0 -->
<g id="edge3" class="edge">
<title>10&#45;&gt;0</title>
<path fill="none" stroke="black" d="M169.63,-283.72C163.96,-288.85 158.69,-295.02 155.57,-302 147.6,-319.86 144.38,-329.96 155.57,-346 168.85,-365.02 185.48,-350.82 204.57,-364 209.45,-367.37 214.08,-371.55 218.3,-375.94"/>
<polygon fill="black" stroke="black" points="215.62,-378.19 224.85,-383.38 220.87,-373.56 215.62,-378.19"/>
<polygon fill="none" stroke="black" points="158.57,-325 158.57,-343 302.57,-343 302.57,-325 158.57,-325"/>
<text text-anchor="start" x="176.56" y="-332" font-family="Courier New" font-weight="bold" font-size="10.00" fill="blue">LOADVIEW(WVIEWID,)</text>
<polygon fill="none" stroke="black" points="158.57,-305 158.57,-323 302.57,-323 302.57,-305 158.57,-305"/>
<text text-anchor="start" x="161.57" y="-311" font-family="Courier New" font-size="10.00" fill="blue">CLEAR(WVIEWID);SHOW(0);</text>
<polygon fill="none" stroke="black" points="155.57,-302 155.57,-346 305.57,-346 305.57,-302 155.57,-302"/>
</g>
<!-- 120&#45;&gt;0 -->
<g id="edge7" class="edge">
<title>120&#45;&gt;0</title>
<path fill="none" stroke="black" d="M160.06,-35.84C101.55,-75.34 -30.64,-178.59 6.57,-284 18.35,-317.38 25.62,-328.82 56.57,-346 114.51,-378.15 146.06,-332.89 204.57,-364 210.26,-367.02 215.45,-371.34 220.01,-376.05"/>
<polygon fill="black" stroke="black" points="217.35,-378.33 226.52,-383.63 222.66,-373.76 217.35,-378.33"/>
<text text-anchor="start" x="10.57" y="-264" font-family="Courier New" font-weight="bold" font-size="10.00" fill="blue">LOADVIEW(0,IDV_SPELLPAN)</text>
</g>
<!-- 130&#45;&gt;0 -->
<g id="edge8" class="edge">
<title>130&#45;&gt;0</title>
<path fill="none" stroke="black" d="M751.12,-34.55C757.72,-39.82 763.93,-46.35 767.57,-54 783.26,-86.99 783.96,-323.93 761.57,-346 723.16,-383.85 325.21,-340.71 276.57,-364 270.51,-366.9 265.06,-371.35 260.34,-376.28"/>
<polygon fill="black" stroke="black" points="257.87,-373.77 254.09,-383.67 263.22,-378.29 257.87,-373.77"/>
<text text-anchor="start" x="780.57" y="-264" font-family="Courier New" font-weight="bold" font-size="10.00" fill="blue">LOADVIEW(0,IDV_ENCHANTPAN)</text>
</g>
<!-- status -->
<g id="node7" class="node">
<title>status</title>
<polygon fill="none" stroke="black" points="285.57,-364.5 285.57,-448.5 523.57,-448.5 523.57,-364.5 285.57,-364.5"/>
<polygon fill="none" stroke="black" points="296.57,-423.5 296.57,-441.5 512.57,-441.5 512.57,-423.5 296.57,-423.5"/>
<text text-anchor="start" x="371.57" y="-430.5" font-family="Courier New" font-weight="bold" font-size="10.00">SMP_EYEINFO</text>
<polygon fill="none" stroke="black" points="296.57,-391.5 296.57,-421.5 512.57,-421.5 512.57,-391.5 296.57,-391.5"/>
<text text-anchor="start" x="299.57" y="-409.5" font-family="Courier New" font-size="10.00" fill="green">SMP_EYEINFO::M_EYEINFO(&#39;&#39;,&#39;&#39;,&#39;&#39;,&#39;&#39;)</text>
<text text-anchor="start" x="299.57" y="-397.5" font-family="Courier New" font-size="10.00" fill="green">{&#39;0&#39;: wParm:2}</text>
<polygon fill="none" stroke="black" points="296.57,-371.5 296.57,-389.5 512.57,-389.5 512.57,-371.5 296.57,-371.5"/>
<text text-anchor="start" x="401.57" y="-377.5" font-family="Courier New" font-size="10.00" fill="blue">_</text>
<polygon fill="none" stroke="black" points="293.57,-368.5 293.57,-444.5 515.57,-444.5 515.57,-368.5 293.57,-368.5"/>
</g>
</g>
</svg>
