<?xml version="1.0" encoding="UTF-8" standalone="no"?>
<!DOCTYPE svg PUBLIC "-//W3C//DTD SVG 1.1//EN"
 "http://www.w3.org/Graphics/SVG/1.1/DTD/svg11.dtd">
<!-- Generated by graphviz version 7.1.0 (20230121.1956)
 -->
<!-- Title: Automaton Pages: 1 -->
<svg width="544pt" height="177pt"
 viewBox="0.00 0.00 544.00 177.00" xmlns="http://www.w3.org/2000/svg" xmlns:xlink="http://www.w3.org/1999/xlink">
<g id="graph0" class="graph" transform="scale(1 1) rotate(0) translate(4 173)">
<title>Automaton</title>
<polygon fill="white" stroke="none" points="-4,4 -4,-173 540,-173 540,4 -4,4"/>
<!-- filename -->
<g id="node1" class="node">
<title>filename</title>
<polygon fill="none" stroke="black" points="0,-104.5 0,-156.5 160,-156.5 160,-104.5 0,-104.5"/>
<polygon fill="none" stroke="black" points="11,-131.5 11,-149.5 149,-149.5 149,-131.5 11,-131.5"/>
<text text-anchor="start" x="14" y="-138.5" font-family="Courier New" font-weight="bold" font-size="10.00">SMP_RECYCLE::M_RECYCLE</text>
<polygon fill="none" stroke="black" points="11,-111.5 11,-129.5 149,-129.5 149,-111.5 11,-111.5"/>
<text text-anchor="start" x="34.99" y="-117.5" font-family="Courier New" font-size="10.00" fill="brown">start state = 0</text>
<polygon fill="none" stroke="black" points="8,-108.5 8,-152.5 152,-152.5 152,-108.5 8,-108.5"/>
</g>
<!-- 0 -->
<g id="node2" class="node">
<title>0</title>
<polyline fill="none" stroke="darkred" stroke-width="3" points="197.5,-119 212.5,-119"/>
<text text-anchor="start" x="201" y="-126.9" font-family="Courier New" font-weight="bold" font-size="14.00">0</text>
<path fill="none" stroke="darkred" stroke-width="3" d="M200.83,-114C200.83,-114 209.17,-114 209.17,-114 213.33,-114 217.5,-118.17 217.5,-122.33 217.5,-122.33 217.5,-138.67 217.5,-138.67 217.5,-142.83 213.33,-147 209.17,-147 209.17,-147 200.83,-147 200.83,-147 196.67,-147 192.5,-142.83 192.5,-138.67 192.5,-138.67 192.5,-122.33 192.5,-122.33 192.5,-118.17 196.67,-114 200.83,-114"/>
</g>
<!-- 1 -->
<g id="node3" class="node">
<title>1</title>
<polyline fill="none" stroke="darkred" points="197,-7 211,-7"/>
<text text-anchor="start" x="200" y="-14.4" font-family="Courier New" font-weight="bold" font-size="14.00">1</text>
<path fill="none" stroke="darkred" d="M200.67,-4C200.67,-4 207.33,-4 207.33,-4 210.67,-4 214,-7.33 214,-10.67 214,-10.67 214,-25.33 214,-25.33 214,-28.67 210.67,-32 207.33,-32 207.33,-32 200.67,-32 200.67,-32 197.33,-32 194,-28.67 194,-25.33 194,-25.33 194,-10.67 194,-10.67 194,-7.33 197.33,-4 200.67,-4"/>
</g>
<!-- 0&#45;&gt;1 -->
<g id="edge1" class="edge">
<title>0&#45;&gt;1</title>
<path fill="none" stroke="black" d="M184.17,-108.75C175.88,-99.06 167.31,-86.83 163,-74 160.17,-65.57 159.28,-62.07 163,-54 164.66,-50.41 166.89,-47.05 169.45,-43.94"/>
<polygon fill="black" stroke="black" points="171.81,-46.53 176.32,-36.95 166.81,-41.63 171.81,-46.53"/>
<text text-anchor="start" x="167" y="-62" font-family="Courier New" font-weight="bold" font-size="10.00" fill="orange">DROP(0,0)</text>
</g>
<!-- 1&#45;&gt;0 -->
<g id="edge2" class="edge">
<title>1&#45;&gt;0</title>
<path fill="none" stroke="black" d="M216.67,-35.95C220.06,-41.43 223.26,-47.72 225,-54 229.03,-68.54 225.78,-84.7 220.81,-98.33"/>
<polygon fill="black" stroke="black" points="217.72,-96.66 217.15,-107.24 224.19,-99.32 217.72,-96.66"/>
<text text-anchor="start" x="230" y="-62" font-family="Courier New" font-weight="bold" font-size="10.00" fill="blue">VIDEO(0,IDS_SMBURST)</text>
</g>
<!-- status -->
<g id="node4" class="node">
<title>status</title>
<polygon fill="none" stroke="black" points="250,-92.5 250,-168.5 536,-168.5 536,-92.5 250,-92.5"/>
<polygon fill="none" stroke="black" points="261,-143.5 261,-161.5 525,-161.5 525,-143.5 261,-143.5"/>
<text text-anchor="start" x="359.99" y="-150.5" font-family="Courier New" font-weight="bold" font-size="10.00">SMP_RECYCLE</text>
<polygon fill="none" stroke="black" points="261,-99.5 261,-141.5 525,-141.5 525,-99.5 261,-99.5"/>
<text text-anchor="start" x="264" y="-129.5" font-family="Courier New" font-size="10.00" fill="green">VIEW::IDV_MAIN_PANEL @pos(left:353, top:12)</text>
<text text-anchor="start" x="264" y="-117.5" font-family="Courier New" font-size="10.00" fill="green">SMP_RECYCLE::M_RECYCLE(&#39;&#39;,&#39;&#39;,&#39;&#39;,&#39;&#39;)</text>
<text text-anchor="start" x="264" y="-105.5" font-family="Courier New" font-size="10.00" fill="green">{state:&#39;0&#39;:</text>
<polygon fill="none" stroke="black" points="258,-96.5 258,-164.5 528,-164.5 528,-96.5 258,-96.5"/>
</g>
</g>
</svg>
