<?xml version="1.0" encoding="UTF-8" standalone="no"?>
<!DOCTYPE svg PUBLIC "-//W3C//DTD SVG 1.1//EN"
 "http://www.w3.org/Graphics/SVG/1.1/DTD/svg11.dtd">
<!-- Generated by graphviz version 7.1.0 (20230121.1956)
 -->
<!-- Title: Automaton Pages: 1 -->
<svg width="1877pt" height="741pt"
 viewBox="0.00 0.00 1876.84 741.00" xmlns="http://www.w3.org/2000/svg" xmlns:xlink="http://www.w3.org/1999/xlink">
<g id="graph0" class="graph" transform="scale(1 1) rotate(0) translate(4 737)">
<title>Automaton</title>
<polygon fill="white" stroke="none" points="-4,4 -4,-737 1872.84,-737 1872.84,4 -4,4"/>
<!-- filename -->
<g id="node1" class="node">
<title>filename</title>
<polygon fill="none" stroke="black" points="1452.84,-664.5 1452.84,-716.5 1576.84,-716.5 1576.84,-664.5 1452.84,-664.5"/>
<polygon fill="none" stroke="black" points="1463.84,-691.5 1463.84,-709.5 1565.84,-709.5 1565.84,-691.5 1463.84,-691.5"/>
<text text-anchor="start" x="1466.84" y="-698.5" font-family="Courier New" font-weight="bold" font-size="10.00">SMP_VIAL::M_VIAL</text>
<polygon fill="none" stroke="black" points="1463.84,-671.5 1463.84,-689.5 1565.84,-689.5 1565.84,-671.5 1463.84,-671.5"/>
<text text-anchor="start" x="1469.83" y="-677.5" font-family="Courier New" font-size="10.00" fill="brown">start state = 0</text>
<polygon fill="none" stroke="black" points="1460.84,-668.5 1460.84,-712.5 1568.84,-712.5 1568.84,-668.5 1460.84,-668.5"/>
</g>
<!-- 0 -->
<g id="node2" class="node">
<title>0</title>
<polyline fill="none" stroke="darkred" points="1614.84,-679.5 1628.84,-679.5"/>
<text text-anchor="start" x="1617.84" y="-686.9" font-family="Courier New" font-weight="bold" font-size="14.00">0</text>
<path fill="none" stroke="darkred" d="M1618.51,-676.5C1618.51,-676.5 1625.17,-676.5 1625.17,-676.5 1628.51,-676.5 1631.84,-679.83 1631.84,-683.17 1631.84,-683.17 1631.84,-697.83 1631.84,-697.83 1631.84,-701.17 1628.51,-704.5 1625.17,-704.5 1625.17,-704.5 1618.51,-704.5 1618.51,-704.5 1615.17,-704.5 1611.84,-701.17 1611.84,-697.83 1611.84,-697.83 1611.84,-683.17 1611.84,-683.17 1611.84,-679.83 1615.17,-676.5 1618.51,-676.5"/>
</g>
<!-- 1 -->
<g id="node3" class="node">
<title>1</title>
<polyline fill="none" stroke="darkred" points="1517.84,-563 1531.84,-563"/>
<text text-anchor="start" x="1520.84" y="-570.4" font-family="Courier New" font-weight="bold" font-size="14.00">1</text>
<path fill="none" stroke="darkred" d="M1521.51,-560C1521.51,-560 1528.17,-560 1528.17,-560 1531.51,-560 1534.84,-563.33 1534.84,-566.67 1534.84,-566.67 1534.84,-581.33 1534.84,-581.33 1534.84,-584.67 1531.51,-588 1528.17,-588 1528.17,-588 1521.51,-588 1521.51,-588 1518.17,-588 1514.84,-584.67 1514.84,-581.33 1514.84,-581.33 1514.84,-566.67 1514.84,-566.67 1514.84,-563.33 1518.17,-560 1521.51,-560"/>
</g>
<!-- 0&#45;&gt;1 -->
<g id="edge1" class="edge">
<title>0&#45;&gt;1</title>
<path fill="none" stroke="black" d="M1609.93,-672.59C1603.51,-664.38 1595.02,-654.83 1585.84,-648 1570.2,-636.36 1559.22,-644.18 1545.84,-630 1538.81,-622.55 1534.06,-612.5 1530.89,-603.03"/>
<polygon fill="black" stroke="black" points="1534.27,-602.1 1528.17,-593.44 1527.53,-604.01 1534.27,-602.1"/>
<text text-anchor="start" x="1549.84" y="-618" font-family="Courier New" font-weight="bold" font-size="10.00" fill="blue">SHOW(0,0)</text>
</g>
<!-- 10 -->
<g id="node4" class="node">
<title>10</title>
<polyline fill="none" stroke="darkred" stroke-width="3" points="856.34,-342.5 879.34,-342.5"/>
<text text-anchor="start" x="859.84" y="-350.4" font-family="Courier New" font-weight="bold" font-size="14.00">10</text>
<path fill="none" stroke="darkred" stroke-width="3" d="M862.34,-337.5C862.34,-337.5 873.34,-337.5 873.34,-337.5 878.84,-337.5 884.34,-343 884.34,-348.5 884.34,-348.5 884.34,-359.5 884.34,-359.5 884.34,-365 878.84,-370.5 873.34,-370.5 873.34,-370.5 862.34,-370.5 862.34,-370.5 856.84,-370.5 851.34,-365 851.34,-359.5 851.34,-359.5 851.34,-348.5 851.34,-348.5 851.34,-343 856.84,-337.5 862.34,-337.5"/>
</g>
<!-- 1&#45;&gt;10 -->
<g id="edge2" class="edge">
<title>1&#45;&gt;10</title>
<path fill="none" stroke="black" d="M1497.88,-571.97C1380.79,-567.23 920.38,-545.79 876.84,-500 848.46,-470.16 852.62,-419.41 859.35,-386.56"/>
<polygon fill="black" stroke="black" points="862.67,-387.75 861.46,-377.22 855.84,-386.21 862.67,-387.75"/>
<polygon fill="none" stroke="black" points="879.84,-479 879.84,-497 1485.84,-497 1485.84,-479 879.84,-479"/>
<text text-anchor="start" x="1140.83" y="-486" font-family="Courier New" font-weight="bold" font-size="10.00" fill="blue">LTEi(WPARM,20)</text>
<polygon fill="none" stroke="black" points="879.84,-459 879.84,-477 1485.84,-477 1485.84,-459 879.84,-459"/>
<text text-anchor="start" x="882.84" y="-465" font-family="Courier New" font-size="10.00" fill="blue">ASSIGN(LWEALTH,10);ASSIGN(WPARM,MAX_VIAL_STORAGE);MOV(BPARM,LWEALTH);SIGNALi(SIG_SHOW,S1_VIALMETER);</text>
<polygon fill="none" stroke="black" points="876.84,-456 876.84,-500 1488.84,-500 1488.84,-456 876.84,-456"/>
</g>
<!-- 2 -->
<g id="node5" class="node">
<title>2</title>
<polyline fill="none" stroke="darkred" points="1517.84,-467 1531.84,-467"/>
<text text-anchor="start" x="1520.84" y="-474.4" font-family="Courier New" font-weight="bold" font-size="14.00">2</text>
<path fill="none" stroke="darkred" d="M1521.51,-464C1521.51,-464 1528.17,-464 1528.17,-464 1531.51,-464 1534.84,-467.33 1534.84,-470.67 1534.84,-470.67 1534.84,-485.33 1534.84,-485.33 1534.84,-488.67 1531.51,-492 1528.17,-492 1528.17,-492 1521.51,-492 1521.51,-492 1518.17,-492 1514.84,-488.67 1514.84,-485.33 1514.84,-485.33 1514.84,-470.67 1514.84,-470.67 1514.84,-467.33 1518.17,-464 1521.51,-464"/>
</g>
<!-- 1&#45;&gt;2 -->
<g id="edge3" class="edge">
<title>1&#45;&gt;2</title>
<path fill="none" stroke="black" d="M1524.84,-556.19C1524.84,-542.64 1524.84,-523.29 1524.84,-507.35"/>
<polygon fill="black" stroke="black" points="1528.34,-507.49 1524.84,-497.49 1521.34,-507.49 1528.34,-507.49"/>
<text text-anchor="start" x="1528.84" y="-526" font-family="Courier New" font-weight="bold" font-size="10.00" fill="blue">Z_EPSILON(,)</text>
</g>
<!-- 10&#45;&gt;10 -->
<g id="edge6" class="edge">
<title>10&#45;&gt;10</title>
<path fill="none" stroke="black" d="M894.63,-359.8C904.62,-359.99 912.84,-358.06 912.84,-354 912.84,-351.65 910.09,-350.02 905.84,-349.09"/>
<polygon fill="black" stroke="black" points="906.39,-345.63 896.14,-348.32 905.83,-352.6 906.39,-345.63"/>
<text text-anchor="start" x="916.84" y="-352" font-family="Courier New" font-weight="bold" font-size="10.00" fill="orange">DROP(0,IDD_SCOOPE)</text>
</g>
<!-- 10&#45;&gt;10 -->
<g id="edge10" class="edge">
<title>10&#45;&gt;10</title>
<path fill="none" stroke="black" d="M894.58,-361.74C941.67,-368.81 1028.84,-366.23 1028.84,-354 1028.84,-342.7 954.45,-339.64 905.98,-344.81"/>
<polygon fill="black" stroke="black" points="905.56,-341.34 896.08,-346.07 906.44,-348.28 905.56,-341.34"/>
<text text-anchor="start" x="1032.84" y="-352" font-family="Courier New" font-weight="bold" font-size="10.00" fill="orange">GRAB(0,IDD_SCOOPE)</text>
</g>
<!-- 12 -->
<g id="node6" class="node">
<title>12</title>
<polyline fill="none" stroke="darkred" points="905.84,-219 927.84,-219"/>
<text text-anchor="start" x="908.84" y="-226.4" font-family="Courier New" font-weight="bold" font-size="14.00">12</text>
<path fill="none" stroke="darkred" d="M912.17,-216C912.17,-216 921.51,-216 921.51,-216 926.17,-216 930.84,-220.67 930.84,-225.33 930.84,-225.33 930.84,-234.67 930.84,-234.67 930.84,-239.33 926.17,-244 921.51,-244 921.51,-244 912.17,-244 912.17,-244 907.51,-244 902.84,-239.33 902.84,-234.67 902.84,-234.67 902.84,-225.33 902.84,-225.33 902.84,-220.67 907.51,-216 912.17,-216"/>
</g>
<!-- 10&#45;&gt;12 -->
<g id="edge4" class="edge">
<title>10&#45;&gt;12</title>
<path fill="none" stroke="black" d="M873.8,-332.17C878.92,-315.16 886.87,-290.64 895.84,-270 897.56,-266.03 899.55,-261.92 901.59,-257.92"/>
<polygon fill="black" stroke="black" points="904.67,-259.58 906.29,-249.11 898.49,-256.29 904.67,-259.58"/>
<text text-anchor="start" x="899.84" y="-290" font-family="Courier New" font-weight="bold" font-size="10.00" fill="orange">DRAG(0,IDD_SCOOPE)</text>
</g>
<!-- 16 -->
<g id="node7" class="node">
<title>16</title>
<polyline fill="none" stroke="darkred" points="82.84,-219 104.84,-219"/>
<text text-anchor="start" x="85.84" y="-226.4" font-family="Courier New" font-weight="bold" font-size="14.00">16</text>
<path fill="none" stroke="darkred" d="M89.17,-216C89.17,-216 98.51,-216 98.51,-216 103.17,-216 107.84,-220.67 107.84,-225.33 107.84,-225.33 107.84,-234.67 107.84,-234.67 107.84,-239.33 103.17,-244 98.51,-244 98.51,-244 89.17,-244 89.17,-244 84.51,-244 79.84,-239.33 79.84,-234.67 79.84,-234.67 79.84,-225.33 79.84,-225.33 79.84,-220.67 84.51,-216 89.17,-216"/>
</g>
<!-- 10&#45;&gt;16 -->
<g id="edge5" class="edge">
<title>10&#45;&gt;16</title>
<path fill="none" stroke="black" d="M840.91,-352.66C707.32,-350.87 121.25,-341.44 94.84,-314 81.15,-299.78 81.83,-277.01 85.41,-258.91"/>
<polygon fill="black" stroke="black" points="88.79,-259.84 87.71,-249.3 81.98,-258.21 88.79,-259.84"/>
<polygon fill="none" stroke="black" points="97.84,-293 97.84,-311 211.84,-311 211.84,-293 97.84,-293"/>
<text text-anchor="start" x="100.84" y="-300" font-family="Courier New" font-weight="bold" font-size="10.00" fill="orange">DRAG(0,IDD_SCOOPF)</text>
<polygon fill="none" stroke="black" points="97.84,-273 97.84,-291 211.84,-291 211.84,-273 97.84,-273"/>
<text text-anchor="start" x="112.83" y="-279" font-family="Courier New" font-size="10.00" fill="blue">ADDI(BPARM,1);</text>
<polygon fill="none" stroke="black" points="94.84,-270 94.84,-314 214.84,-314 214.84,-270 94.84,-270"/>
</g>
<!-- 19 -->
<g id="node8" class="node">
<title>19</title>
<polyline fill="none" stroke="darkred" points="415.84,-219 437.84,-219"/>
<text text-anchor="start" x="418.84" y="-226.4" font-family="Courier New" font-weight="bold" font-size="14.00">19</text>
<path fill="none" stroke="darkred" d="M422.17,-216C422.17,-216 431.51,-216 431.51,-216 436.17,-216 440.84,-220.67 440.84,-225.33 440.84,-225.33 440.84,-234.67 440.84,-234.67 440.84,-239.33 436.17,-244 431.51,-244 431.51,-244 422.17,-244 422.17,-244 417.51,-244 412.84,-239.33 412.84,-234.67 412.84,-234.67 412.84,-225.33 412.84,-225.33 412.84,-220.67 417.51,-216 422.17,-216"/>
</g>
<!-- 10&#45;&gt;19 -->
<g id="edge7" class="edge">
<title>10&#45;&gt;19</title>
<path fill="none" stroke="black" d="M841.03,-353.43C764.83,-354.15 548.79,-352.65 491.84,-314 473.58,-301.61 482.23,-287.54 468.84,-270 465.07,-265.06 460.63,-260.2 456.08,-255.69"/>
<polygon fill="black" stroke="black" points="458.68,-253.32 449,-249.02 453.88,-258.42 458.68,-253.32"/>
<text text-anchor="start" x="495.84" y="-290" font-family="Courier New" font-weight="bold" font-size="10.00" fill="orange">DROP(0,IDD_SCOOPF)</text>
</g>
<!-- 40 -->
<g id="node9" class="node">
<title>40</title>
<polyline fill="none" stroke="darkred" points="1505.84,-219 1527.84,-219"/>
<text text-anchor="start" x="1508.84" y="-226.4" font-family="Courier New" font-weight="bold" font-size="14.00">40</text>
<path fill="none" stroke="darkred" d="M1512.17,-216C1512.17,-216 1521.51,-216 1521.51,-216 1526.17,-216 1530.84,-220.67 1530.84,-225.33 1530.84,-225.33 1530.84,-234.67 1530.84,-234.67 1530.84,-239.33 1526.17,-244 1521.51,-244 1521.51,-244 1512.17,-244 1512.17,-244 1507.51,-244 1502.84,-239.33 1502.84,-234.67 1502.84,-234.67 1502.84,-225.33 1502.84,-225.33 1502.84,-220.67 1507.51,-216 1512.17,-216"/>
</g>
<!-- 10&#45;&gt;40 -->
<g id="edge8" class="edge">
<title>10&#45;&gt;40</title>
<path fill="none" stroke="black" d="M894.56,-352.29C989.16,-349.59 1304.47,-338.79 1341.84,-314 1360.23,-301.8 1347.55,-283.71 1364.84,-270 1397.6,-244.04 1445.68,-235.19 1478.96,-232.26"/>
<polygon fill="black" stroke="black" points="1478.83,-235.78 1488.55,-231.57 1478.32,-228.8 1478.83,-235.78"/>
<text text-anchor="start" x="1368.84" y="-290" font-family="Courier New" font-weight="bold" font-size="10.00" fill="orange">DROP(0,IDD_VIAL1)</text>
</g>
<!-- 50 -->
<g id="node10" class="node">
<title>50</title>
<polyline fill="none" stroke="darkred" points="1590.84,-219 1612.84,-219"/>
<text text-anchor="start" x="1593.84" y="-226.4" font-family="Courier New" font-weight="bold" font-size="14.00">50</text>
<path fill="none" stroke="darkred" d="M1597.17,-216C1597.17,-216 1606.51,-216 1606.51,-216 1611.17,-216 1615.84,-220.67 1615.84,-225.33 1615.84,-225.33 1615.84,-234.67 1615.84,-234.67 1615.84,-239.33 1611.17,-244 1606.51,-244 1606.51,-244 1597.17,-244 1597.17,-244 1592.51,-244 1587.84,-239.33 1587.84,-234.67 1587.84,-234.67 1587.84,-225.33 1587.84,-225.33 1587.84,-220.67 1592.51,-216 1597.17,-216"/>
</g>
<!-- 10&#45;&gt;50 -->
<g id="edge9" class="edge">
<title>10&#45;&gt;50</title>
<path fill="none" stroke="black" d="M894.63,-353.08C997.23,-353.12 1364.88,-350.62 1474.84,-314 1512.73,-301.38 1550.29,-274.59 1574.62,-254.85"/>
<polygon fill="black" stroke="black" points="1576.64,-257.71 1582.1,-248.63 1572.17,-252.33 1576.64,-257.71"/>
<text text-anchor="start" x="1556.84" y="-290" font-family="Courier New" font-weight="bold" font-size="10.00" fill="orange">DROP(0,IDD_VIAL2)</text>
</g>
<!-- 2&#45;&gt;10 -->
<g id="edge21" class="edge">
<title>2&#45;&gt;10</title>
<path fill="none" stroke="black" d="M1498,-461.77C1493.38,-459.58 1488.55,-457.55 1483.84,-456 1428.49,-437.79 1031.4,-378.89 905.81,-360.52"/>
<polygon fill="black" stroke="black" points="906.43,-357.08 896.02,-359.1 905.41,-364 906.43,-357.08"/>
<polygon fill="none" stroke="black" points="1397.84,-417 1397.84,-435 1589.84,-435 1589.84,-417 1397.84,-417"/>
<text text-anchor="start" x="1439.83" y="-424" font-family="Courier New" font-weight="bold" font-size="10.00" fill="blue">MOV(BPARM,LWEALTH)</text>
<polygon fill="none" stroke="black" points="1397.84,-397 1397.84,-415 1589.84,-415 1589.84,-397 1397.84,-397"/>
<text text-anchor="start" x="1400.84" y="-403" font-family="Courier New" font-size="10.00" fill="blue">SIGNALi(SIG_SHOW,S1_VIALMETER);</text>
<polygon fill="none" stroke="black" points="1394.84,-394 1394.84,-438 1592.84,-438 1592.84,-394 1394.84,-394"/>
</g>
<!-- 12&#45;&gt;10 -->
<g id="edge11" class="edge">
<title>12&#45;&gt;10</title>
<path fill="none" stroke="black" d="M943.66,-233.94C966.09,-237.96 996.75,-247.49 1011.84,-270 1022.73,-286.24 1023.72,-298.47 1011.84,-314 999,-330.78 944.06,-342.01 905.88,-347.95"/>
<polygon fill="black" stroke="black" points="905.51,-344.47 896.13,-349.4 906.54,-351.39 905.51,-344.47"/>
<text text-anchor="start" x="1024.84" y="-290" font-family="Courier New" font-weight="bold" font-size="10.00" fill="blue">EQUALi(LWEALTH,0)</text>
</g>
<!-- 13 -->
<g id="node11" class="node">
<title>13</title>
<polyline fill="none" stroke="darkred" points="956.84,-99 978.84,-99"/>
<text text-anchor="start" x="959.84" y="-106.4" font-family="Courier New" font-weight="bold" font-size="14.00">13</text>
<path fill="none" stroke="darkred" d="M963.17,-96C963.17,-96 972.51,-96 972.51,-96 977.17,-96 981.84,-100.67 981.84,-105.33 981.84,-105.33 981.84,-114.67 981.84,-114.67 981.84,-119.33 977.17,-124 972.51,-124 972.51,-124 963.17,-124 963.17,-124 958.51,-124 953.84,-119.33 953.84,-114.67 953.84,-114.67 953.84,-105.33 953.84,-105.33 953.84,-100.67 958.51,-96 963.17,-96"/>
</g>
<!-- 12&#45;&gt;13 -->
<g id="edge12" class="edge">
<title>12&#45;&gt;13</title>
<path fill="none" stroke="black" d="M911.83,-212.29C907.56,-194.68 903.71,-166.69 914.84,-146 918.75,-138.72 924.92,-132.71 931.68,-127.84"/>
<polygon fill="black" stroke="black" points="933.24,-130.99 939.83,-122.7 929.51,-125.07 933.24,-130.99"/>
<polygon fill="none" stroke="black" points="917.84,-169 917.84,-187 1319.84,-187 1319.84,-169 917.84,-169"/>
<text text-anchor="start" x="1082.83" y="-176" font-family="Courier New" font-weight="bold" font-size="10.00" fill="blue">Z_EPSILON(,)</text>
<polygon fill="none" stroke="black" points="917.84,-149 917.84,-167 1319.84,-167 1319.84,-149 917.84,-149"/>
<text text-anchor="start" x="920.84" y="-155" font-family="Courier New" font-size="10.00" fill="blue">SUBI(LWEALTH,1);MOV(BPARM,LWEALTH);SIGNALi(SIG_SHOW,S1_VIALMETER);</text>
<polygon fill="none" stroke="black" points="914.84,-146 914.84,-190 1322.84,-190 1322.84,-146 914.84,-146"/>
</g>
<!-- 16&#45;&gt;10 -->
<g id="edge15" class="edge">
<title>16&#45;&gt;10</title>
<path fill="none" stroke="black" d="M120.69,-234.5C146.86,-239.03 186.74,-248.98 214.84,-270 233.79,-284.17 224.27,-302.29 244.84,-314 295.53,-342.85 701.63,-350.76 829.46,-352.54"/>
<polygon fill="black" stroke="black" points="829.38,-356.04 839.43,-352.68 829.47,-349.04 829.38,-356.04"/>
<text text-anchor="start" x="248.84" y="-290" font-family="Courier New" font-weight="bold" font-size="10.00" fill="blue">GTE(BPARM,WPARM)</text>
</g>
<!-- 17 -->
<g id="node13" class="node">
<title>17</title>
<polyline fill="none" stroke="darkred" points="211.84,-99 233.84,-99"/>
<text text-anchor="start" x="214.84" y="-106.4" font-family="Courier New" font-weight="bold" font-size="14.00">17</text>
<path fill="none" stroke="darkred" d="M218.17,-96C218.17,-96 227.51,-96 227.51,-96 232.17,-96 236.84,-100.67 236.84,-105.33 236.84,-105.33 236.84,-114.67 236.84,-114.67 236.84,-119.33 232.17,-124 227.51,-124 227.51,-124 218.17,-124 218.17,-124 213.51,-124 208.84,-119.33 208.84,-114.67 208.84,-114.67 208.84,-105.33 208.84,-105.33 208.84,-100.67 213.51,-96 218.17,-96"/>
</g>
<!-- 16&#45;&gt;17 -->
<g id="edge16" class="edge">
<title>16&#45;&gt;17</title>
<path fill="none" stroke="black" d="M66.93,-224.54C47.13,-219.7 21.55,-209.82 8.84,-190 -1.72,-173.54 -3.82,-160.9 8.84,-146 30.98,-119.94 129.47,-113.24 184.79,-111.55"/>
<polygon fill="black" stroke="black" points="184.81,-115.05 194.71,-111.29 184.63,-108.05 184.81,-115.05"/>
<polygon fill="none" stroke="black" points="11.84,-169 11.84,-187 413.84,-187 413.84,-169 11.84,-169"/>
<text text-anchor="start" x="176.83" y="-176" font-family="Courier New" font-weight="bold" font-size="10.00" fill="blue">Z_EPSILON(,)</text>
<polygon fill="none" stroke="black" points="11.84,-149 11.84,-167 413.84,-167 413.84,-149 11.84,-149"/>
<text text-anchor="start" x="14.84" y="-155" font-family="Courier New" font-size="10.00" fill="blue">ADDI(LWEALTH,1);MOV(BPARM,LWEALTH);SIGNALi(SIG_SHOW,S1_VIALMETER);</text>
<polygon fill="none" stroke="black" points="8.84,-146 8.84,-190 416.84,-190 416.84,-146 8.84,-146"/>
</g>
<!-- 19&#45;&gt;10 -->
<g id="edge19" class="edge">
<title>19&#45;&gt;10</title>
<path fill="none" stroke="black" d="M400.17,-239.4C385.78,-245.45 369.28,-255.2 360.84,-270 351.15,-286.98 347.55,-299.65 360.84,-314 392.49,-348.18 716.57,-352.51 829.38,-352.98"/>
<polygon fill="black" stroke="black" points="829.32,-356.48 839.33,-353.01 829.34,-349.48 829.32,-356.48"/>
<text text-anchor="start" x="364.84" y="-290" font-family="Courier New" font-weight="bold" font-size="10.00" fill="blue">GTE(BPARM,WPARM)</text>
</g>
<!-- 20 -->
<g id="node15" class="node">
<title>20</title>
<polyline fill="none" stroke="darkred" points="463.84,-99 485.84,-99"/>
<text text-anchor="start" x="466.84" y="-106.4" font-family="Courier New" font-weight="bold" font-size="14.00">20</text>
<path fill="none" stroke="darkred" d="M470.17,-96C470.17,-96 479.51,-96 479.51,-96 484.17,-96 488.84,-100.67 488.84,-105.33 488.84,-105.33 488.84,-114.67 488.84,-114.67 488.84,-119.33 484.17,-124 479.51,-124 479.51,-124 470.17,-124 470.17,-124 465.51,-124 460.84,-119.33 460.84,-114.67 460.84,-114.67 460.84,-105.33 460.84,-105.33 460.84,-100.67 465.51,-96 470.17,-96"/>
</g>
<!-- 19&#45;&gt;20 -->
<g id="edge20" class="edge">
<title>19&#45;&gt;20</title>
<path fill="none" stroke="black" d="M422.86,-212.06C419.65,-194.51 417.24,-166.8 427.84,-146 430.54,-140.7 434.46,-135.99 438.91,-131.88"/>
<polygon fill="black" stroke="black" points="441.07,-134.63 446.72,-125.67 436.72,-129.15 441.07,-134.63"/>
<text text-anchor="start" x="431.84" y="-166" font-family="Courier New" font-weight="bold" font-size="10.00" fill="blue">Z_EPSILON(,)</text>
</g>
<!-- 40&#45;&gt;0 -->
<g id="edge23" class="edge">
<title>40&#45;&gt;0</title>
<path fill="none" stroke="black" d="M1543.65,-242.49C1570.49,-253.99 1607.84,-270 1607.84,-270 1630.97,-299.4 1621.84,-315.59 1621.84,-353 1621.84,-575 1621.84,-575 1621.84,-575 1621.84,-604.49 1621.84,-638.25 1621.84,-661.43"/>
<polygon fill="black" stroke="black" points="1618.34,-661.3 1621.84,-671.3 1625.34,-661.3 1618.34,-661.3"/>
<text text-anchor="start" x="1625.84" y="-476" font-family="Courier New" font-weight="bold" font-size="10.00" fill="blue">ASSIGN(WPARM,40)</text>
</g>
<!-- 50&#45;&gt;0 -->
<g id="edge24" class="edge">
<title>50&#45;&gt;0</title>
<path fill="none" stroke="black" d="M1628.62,-238.02C1674.17,-251.76 1761.84,-286.8 1761.84,-353 1761.84,-575 1761.84,-575 1761.84,-575 1761.84,-631.47 1699.77,-610.17 1657.84,-648 1652.36,-652.95 1646.9,-658.7 1641.95,-664.32"/>
<polygon fill="black" stroke="black" points="1639.45,-661.85 1635.64,-671.74 1644.78,-666.39 1639.45,-661.85"/>
<text text-anchor="start" x="1765.84" y="-476" font-family="Courier New" font-weight="bold" font-size="10.00" fill="blue">ASSIGN(WPARM,80)</text>
</g>
<!-- 14 -->
<g id="node12" class="node">
<title>14</title>
<polyline fill="none" stroke="darkred" points="1279.84,-7 1301.84,-7"/>
<text text-anchor="start" x="1282.84" y="-14.4" font-family="Courier New" font-weight="bold" font-size="14.00">14</text>
<path fill="none" stroke="darkred" d="M1286.17,-4C1286.17,-4 1295.51,-4 1295.51,-4 1300.17,-4 1304.84,-8.67 1304.84,-13.33 1304.84,-13.33 1304.84,-22.67 1304.84,-22.67 1304.84,-27.33 1300.17,-32 1295.51,-32 1295.51,-32 1286.17,-32 1286.17,-32 1281.51,-32 1276.84,-27.33 1276.84,-22.67 1276.84,-22.67 1276.84,-13.33 1276.84,-13.33 1276.84,-8.67 1281.51,-4 1286.17,-4"/>
</g>
<!-- 13&#45;&gt;14 -->
<g id="edge13" class="edge">
<title>13&#45;&gt;14</title>
<path fill="none" stroke="black" d="M994.82,-101.48C1052.44,-85.43 1187.6,-47.77 1253.46,-29.42"/>
<polygon fill="black" stroke="black" points="1254.01,-32.9 1262.7,-26.84 1252.13,-26.15 1254.01,-32.9"/>
<text text-anchor="start" x="1162.84" y="-62" font-family="Courier New" font-weight="bold" font-size="10.00" fill="blue">PLAYWAVE(0,SOUND_SLURP)</text>
</g>
<!-- 14&#45;&gt;10 -->
<g id="edge14" class="edge">
<title>14&#45;&gt;10</title>
<path fill="none" stroke="black" d="M1300.72,-35.65C1318.25,-67.55 1350.47,-138.67 1322.84,-190 1275.39,-278.13 1228.37,-278.36 1134.84,-314 1057.11,-343.62 958.75,-350.91 905.78,-352.6"/>
<polygon fill="black" stroke="black" points="905.98,-349.09 896.08,-352.86 906.17,-356.09 905.98,-349.09"/>
<text text-anchor="start" x="1337.84" y="-166" font-family="Courier New" font-weight="bold" font-size="10.00" fill="blue">HANDOFF(0,IDD_SCOOPF)</text>
</g>
<!-- 18 -->
<g id="node14" class="node">
<title>18</title>
<polyline fill="none" stroke="darkred" points="668.84,-7 690.84,-7"/>
<text text-anchor="start" x="671.84" y="-14.4" font-family="Courier New" font-weight="bold" font-size="14.00">18</text>
<path fill="none" stroke="darkred" d="M675.17,-4C675.17,-4 684.51,-4 684.51,-4 689.17,-4 693.84,-8.67 693.84,-13.33 693.84,-13.33 693.84,-22.67 693.84,-22.67 693.84,-27.33 689.17,-32 684.51,-32 684.51,-32 675.17,-32 675.17,-32 670.51,-32 665.84,-27.33 665.84,-22.67 665.84,-22.67 665.84,-13.33 665.84,-13.33 665.84,-8.67 670.51,-4 675.17,-4"/>
</g>
<!-- 17&#45;&gt;18 -->
<g id="edge17" class="edge">
<title>17&#45;&gt;18</title>
<path fill="none" stroke="black" d="M249.72,-103.71C327.35,-88.42 552.03,-44.17 641.97,-26.46"/>
<polygon fill="black" stroke="black" points="642.37,-29.95 651.51,-24.58 641.02,-23.08 642.37,-29.95"/>
<text text-anchor="start" x="496.84" y="-62" font-family="Courier New" font-weight="bold" font-size="10.00" fill="blue">PLAYWAVE(0,SOUND_SPIT)</text>
</g>
<!-- 18&#45;&gt;10 -->
<g id="edge18" class="edge">
<title>18&#45;&gt;10</title>
<path fill="none" stroke="black" d="M683.7,-35.9C692.54,-70.55 717.62,-149.76 769.84,-190 798.02,-211.72 823.84,-181.74 847.84,-208 875.63,-238.4 876.25,-288.44 872.96,-321.05"/>
<polygon fill="black" stroke="black" points="869.52,-320.36 871.8,-330.71 876.47,-321.2 869.52,-320.36"/>
<text text-anchor="start" x="773.84" y="-166" font-family="Courier New" font-weight="bold" font-size="10.00" fill="blue">HANDOFF(0,IDD_SCOOPE)</text>
</g>
<!-- 20&#45;&gt;10 -->
<g id="edge22" class="edge">
<title>20&#45;&gt;10</title>
<path fill="none" stroke="black" d="M493.87,-127.78C499.03,-133.15 504.19,-139.43 507.84,-146 531.5,-188.59 501.16,-217.77 535.84,-252 559.32,-275.17 576.11,-260.98 607.84,-270 687.71,-292.71 780.07,-323.22 830.39,-340.21"/>
<polygon fill="black" stroke="black" points="829.03,-343.45 839.63,-343.34 831.28,-336.82 829.03,-343.45"/>
<polygon fill="none" stroke="black" points="538.84,-231 538.84,-249 844.84,-249 844.84,-231 538.84,-231"/>
<text text-anchor="start" x="646.83" y="-238" font-family="Courier New" font-weight="bold" font-size="10.00" fill="blue">ADDi(LWEALTH,1)</text>
<polygon fill="none" stroke="black" points="538.84,-211 538.84,-229 844.84,-229 844.84,-211 538.84,-211"/>
<text text-anchor="start" x="541.84" y="-217" font-family="Courier New" font-size="10.00" fill="blue">MOV(BPARM,LWEALTH);SIGNALi(SIG_SHOW,S1_VIALMETER);</text>
<polygon fill="none" stroke="black" points="535.84,-208 535.84,-252 847.84,-252 847.84,-208 535.84,-208"/>
</g>
<!-- status -->
<g id="node16" class="node">
<title>status</title>
<polygon fill="none" stroke="black" points="1666.84,-648.5 1666.84,-732.5 1868.84,-732.5 1868.84,-648.5 1666.84,-648.5"/>
<polygon fill="none" stroke="black" points="1677.84,-707.5 1677.84,-725.5 1857.84,-725.5 1857.84,-707.5 1677.84,-707.5"/>
<text text-anchor="start" x="1743.84" y="-714.5" font-family="Courier New" font-weight="bold" font-size="10.00">SMP_VIAL</text>
<polygon fill="none" stroke="black" points="1677.84,-675.5 1677.84,-705.5 1857.84,-705.5 1857.84,-675.5 1677.84,-675.5"/>
<text text-anchor="start" x="1680.84" y="-693.5" font-family="Courier New" font-size="10.00" fill="green">SMP_VIAL::M_VIAL(&#39;&#39;,&#39;&#39;,&#39;&#39;,&#39;&#39;)</text>
<text text-anchor="start" x="1680.84" y="-681.5" font-family="Courier New" font-size="10.00" fill="green">{&#39;10&#39;: wParm:20}</text>
<polygon fill="none" stroke="black" points="1677.84,-655.5 1677.84,-673.5 1857.84,-673.5 1857.84,-655.5 1677.84,-655.5"/>
<text text-anchor="start" x="1764.84" y="-661.5" font-family="Courier New" font-size="10.00" fill="blue">_</text>
<polygon fill="none" stroke="black" points="1674.84,-652.5 1674.84,-728.5 1860.84,-728.5 1860.84,-652.5 1674.84,-652.5"/>
</g>
</g>
</svg>
