<?xml version="1.0" encoding="UTF-8" standalone="no"?>
<!DOCTYPE svg PUBLIC "-//W3C//DTD SVG 1.1//EN"
 "http://www.w3.org/Graphics/SVG/1.1/DTD/svg11.dtd">
<!-- Generated by graphviz version 7.1.0 (20230121.1956)
 -->
<!-- Title: Automaton Pages: 1 -->
<svg width="550pt" height="269pt"
 viewBox="0.00 0.00 550.00 269.00" xmlns="http://www.w3.org/2000/svg" xmlns:xlink="http://www.w3.org/1999/xlink">
<g id="graph0" class="graph" transform="scale(1 1) rotate(0) translate(4 265)">
<title>Automaton</title>
<polygon fill="white" stroke="none" points="-4,4 -4,-265 546,-265 546,4 -4,4"/>
<!-- filename -->
<g id="node1" class="node">
<title>filename</title>
<polygon fill="none" stroke="black" points="0,-196.5 0,-248.5 172,-248.5 172,-196.5 0,-196.5"/>
<polygon fill="none" stroke="black" points="11,-223.5 11,-241.5 161,-241.5 161,-223.5 11,-223.5"/>
<text text-anchor="start" x="14" y="-230.5" font-family="Courier New" font-weight="bold" font-size="10.00">SMP_INV_LEFT::M_INV_LEFT</text>
<polygon fill="none" stroke="black" points="11,-203.5 11,-221.5 161,-221.5 161,-203.5 11,-203.5"/>
<text text-anchor="start" x="40.99" y="-209.5" font-family="Courier New" font-size="10.00" fill="brown">start state = 0</text>
<polygon fill="none" stroke="black" points="8,-200.5 8,-244.5 164,-244.5 164,-200.5 8,-200.5"/>
</g>
<!-- 0 -->
<g id="node2" class="node">
<title>0</title>
<polyline fill="none" stroke="darkred" stroke-width="3" points="209.5,-211 224.5,-211"/>
<text text-anchor="start" x="213" y="-218.9" font-family="Courier New" font-weight="bold" font-size="14.00">0</text>
<path fill="none" stroke="darkred" stroke-width="3" d="M212.83,-206C212.83,-206 221.17,-206 221.17,-206 225.33,-206 229.5,-210.17 229.5,-214.33 229.5,-214.33 229.5,-230.67 229.5,-230.67 229.5,-234.83 225.33,-239 221.17,-239 221.17,-239 212.83,-239 212.83,-239 208.67,-239 204.5,-234.83 204.5,-230.67 204.5,-230.67 204.5,-214.33 204.5,-214.33 204.5,-210.17 208.67,-206 212.83,-206"/>
</g>
<!-- 1 -->
<g id="node3" class="node">
<title>1</title>
<polyline fill="none" stroke="darkred" points="102,-99 116,-99"/>
<text text-anchor="start" x="105" y="-106.4" font-family="Courier New" font-weight="bold" font-size="14.00">1</text>
<path fill="none" stroke="darkred" d="M105.67,-96C105.67,-96 112.33,-96 112.33,-96 115.67,-96 119,-99.33 119,-102.67 119,-102.67 119,-117.33 119,-117.33 119,-120.67 115.67,-124 112.33,-124 112.33,-124 105.67,-124 105.67,-124 102.33,-124 99,-120.67 99,-117.33 99,-117.33 99,-102.67 99,-102.67 99,-99.33 102.33,-96 105.67,-96"/>
</g>
<!-- 0&#45;&gt;1 -->
<g id="edge1" class="edge">
<title>0&#45;&gt;1</title>
<path fill="none" stroke="black" d="M197.24,-200.82C191.98,-195.34 186.29,-189.43 181,-184 165.23,-167.79 147.37,-149.69 133.39,-135.56"/>
<polygon fill="black" stroke="black" points="136.24,-133.47 126.72,-128.83 131.27,-138.4 136.24,-133.47"/>
<text text-anchor="start" x="168" y="-154" font-family="Courier New" font-weight="bold" font-size="10.00" fill="orange">CLICK(0,0)</text>
</g>
<!-- 2 -->
<g id="node4" class="node">
<title>2</title>
<polyline fill="none" stroke="darkred" points="176,-7 190,-7"/>
<text text-anchor="start" x="179" y="-14.4" font-family="Courier New" font-weight="bold" font-size="14.00">2</text>
<path fill="none" stroke="darkred" d="M179.67,-4C179.67,-4 186.33,-4 186.33,-4 189.67,-4 193,-7.33 193,-10.67 193,-10.67 193,-25.33 193,-25.33 193,-28.67 189.67,-32 186.33,-32 186.33,-32 179.67,-32 179.67,-32 176.33,-32 173,-28.67 173,-25.33 173,-25.33 173,-10.67 173,-10.67 173,-7.33 176.33,-4 179.67,-4"/>
</g>
<!-- 1&#45;&gt;2 -->
<g id="edge2" class="edge">
<title>1&#45;&gt;2</title>
<path fill="none" stroke="black" d="M88.7,-92.1C77.78,-80.94 68.2,-66.18 77,-54 92.42,-32.67 121.3,-24.12 145.03,-20.8"/>
<polygon fill="black" stroke="black" points="145.13,-24.31 154.67,-19.72 144.35,-17.35 145.13,-24.31"/>
<text text-anchor="start" x="81" y="-62" font-family="Courier New" font-weight="bold" font-size="10.00" fill="blue">SENDKEYI(KEY_LEFT,IDV_INVENTORY)</text>
</g>
<!-- 2&#45;&gt;0 -->
<g id="edge3" class="edge">
<title>2&#45;&gt;0</title>
<path fill="none" stroke="black" d="M209.9,-20.94C231.99,-24.11 262,-32.4 277,-54 306.85,-96.96 270.94,-156.39 243.22,-191.7"/>
<polygon fill="black" stroke="black" points="240.57,-189.41 236.99,-199.38 246.01,-193.82 240.57,-189.41"/>
<text text-anchor="start" x="292" y="-108" font-family="Courier New" font-weight="bold" font-size="10.00" fill="blue">PLAYWAVE(0,SOUND_CLICK)</text>
</g>
<!-- status -->
<g id="node5" class="node">
<title>status</title>
<polygon fill="none" stroke="black" points="262,-184.5 262,-260.5 542,-260.5 542,-184.5 262,-184.5"/>
<polygon fill="none" stroke="black" points="273,-235.5 273,-253.5 531,-253.5 531,-235.5 273,-235.5"/>
<text text-anchor="start" x="365.99" y="-242.5" font-family="Courier New" font-weight="bold" font-size="10.00">SMP_INV_LEFT</text>
<polygon fill="none" stroke="black" points="273,-191.5 273,-233.5 531,-233.5 531,-191.5 273,-191.5"/>
<text text-anchor="start" x="276" y="-221.5" font-family="Courier New" font-size="10.00" fill="green">VIEW::IDV_MAIN_PANEL @pos(left:1, top:379)</text>
<text text-anchor="start" x="276" y="-209.5" font-family="Courier New" font-size="10.00" fill="green">SMP_INV_LEFT::M_INV_LEFT(&#39;&#39;,&#39;&#39;,&#39;&#39;,&#39;&#39;)</text>
<text text-anchor="start" x="276" y="-197.5" font-family="Courier New" font-size="10.00" fill="green">{state:&#39;0&#39;:</text>
<polygon fill="none" stroke="black" points="270,-188.5 270,-256.5 534,-256.5 534,-188.5 270,-188.5"/>
</g>
</g>
</svg>
