<?xml version="1.0" encoding="UTF-8" standalone="no"?>
<!DOCTYPE svg PUBLIC "-//W3C//DTD SVG 1.1//EN"
 "http://www.w3.org/Graphics/SVG/1.1/DTD/svg11.dtd">
<!-- Generated by graphviz version 7.1.0 (20230121.1956)
 -->
<!-- Title: Automaton Pages: 1 -->
<svg width="544pt" height="369pt"
 viewBox="0.00 0.00 544.00 369.00" xmlns="http://www.w3.org/2000/svg" xmlns:xlink="http://www.w3.org/1999/xlink">
<g id="graph0" class="graph" transform="scale(1 1) rotate(0) translate(4 365)">
<title>Automaton</title>
<polygon fill="white" stroke="none" points="-4,4 -4,-365 540,-365 540,4 -4,4"/>
<!-- filename -->
<g id="node1" class="node">
<title>filename</title>
<polygon fill="none" stroke="black" points="0,-292.5 0,-344.5 184,-344.5 184,-292.5 0,-292.5"/>
<polygon fill="none" stroke="black" points="11,-319.5 11,-337.5 173,-337.5 173,-319.5 11,-319.5"/>
<text text-anchor="start" x="14" y="-326.5" font-family="Courier New" font-weight="bold" font-size="10.00">SMP_MAPBUTTON::M_MAPBUTTON</text>
<polygon fill="none" stroke="black" points="11,-299.5 11,-317.5 173,-317.5 173,-299.5 11,-299.5"/>
<text text-anchor="start" x="46.99" y="-305.5" font-family="Courier New" font-size="10.00" fill="brown">start state = 0</text>
<polygon fill="none" stroke="black" points="8,-296.5 8,-340.5 176,-340.5 176,-296.5 8,-296.5"/>
</g>
<!-- 0 -->
<g id="node2" class="node">
<title>0</title>
<polyline fill="none" stroke="darkred" points="222,-307.5 236,-307.5"/>
<text text-anchor="start" x="225" y="-314.9" font-family="Courier New" font-weight="bold" font-size="14.00">0</text>
<path fill="none" stroke="darkred" d="M225.67,-304.5C225.67,-304.5 232.33,-304.5 232.33,-304.5 235.67,-304.5 239,-307.83 239,-311.17 239,-311.17 239,-325.83 239,-325.83 239,-329.17 235.67,-332.5 232.33,-332.5 232.33,-332.5 225.67,-332.5 225.67,-332.5 222.33,-332.5 219,-329.17 219,-325.83 219,-325.83 219,-311.17 219,-311.17 219,-307.83 222.33,-304.5 225.67,-304.5"/>
</g>
<!-- 1 -->
<g id="node3" class="node">
<title>1</title>
<polyline fill="none" stroke="darkred" points="222,-191 236,-191"/>
<text text-anchor="start" x="225" y="-198.4" font-family="Courier New" font-weight="bold" font-size="14.00">1</text>
<path fill="none" stroke="darkred" d="M225.67,-188C225.67,-188 232.33,-188 232.33,-188 235.67,-188 239,-191.33 239,-194.67 239,-194.67 239,-209.33 239,-209.33 239,-212.67 235.67,-216 232.33,-216 232.33,-216 225.67,-216 225.67,-216 222.33,-216 219,-212.67 219,-209.33 219,-209.33 219,-194.67 219,-194.67 219,-191.33 222.33,-188 225.67,-188"/>
</g>
<!-- 0&#45;&gt;1 -->
<g id="edge1" class="edge">
<title>0&#45;&gt;1</title>
<path fill="none" stroke="black" d="M229,-300.61C229,-282.42 229,-253.2 229,-231.46"/>
<polygon fill="black" stroke="black" points="232.5,-231.48 229,-221.48 225.5,-231.48 232.5,-231.48"/>
<text text-anchor="start" x="233" y="-246" font-family="Courier New" font-weight="bold" font-size="10.00" fill="blue">SHOW(0,IDS_BTN_MAP)</text>
</g>
<!-- 2 -->
<g id="node4" class="node">
<title>2</title>
<polyline fill="none" stroke="darkred" points="161,-99 175,-99"/>
<text text-anchor="start" x="164" y="-106.4" font-family="Courier New" font-weight="bold" font-size="14.00">2</text>
<path fill="none" stroke="darkred" d="M164.67,-96C164.67,-96 171.33,-96 171.33,-96 174.67,-96 178,-99.33 178,-102.67 178,-102.67 178,-117.33 178,-117.33 178,-120.67 174.67,-124 171.33,-124 171.33,-124 164.67,-124 164.67,-124 161.33,-124 158,-120.67 158,-117.33 158,-117.33 158,-102.67 158,-102.67 158,-99.33 161.33,-96 164.67,-96"/>
</g>
<!-- 1&#45;&gt;2 -->
<g id="edge2" class="edge">
<title>1&#45;&gt;2</title>
<path fill="none" stroke="black" d="M217.53,-184.07C208.58,-170.87 196,-152.31 185.75,-137.19"/>
<polygon fill="black" stroke="black" points="188.78,-135.42 180.27,-129.11 182.98,-139.35 188.78,-135.42"/>
<text text-anchor="start" x="207" y="-154" font-family="Courier New" font-weight="bold" font-size="10.00" fill="orange">CLICK(0,0)</text>
</g>
<!-- 3 -->
<g id="node5" class="node">
<title>3</title>
<polyline fill="none" stroke="darkred" points="222,-7 236,-7"/>
<text text-anchor="start" x="225" y="-14.4" font-family="Courier New" font-weight="bold" font-size="14.00">3</text>
<path fill="none" stroke="darkred" d="M225.67,-4C225.67,-4 232.33,-4 232.33,-4 235.67,-4 239,-7.33 239,-10.67 239,-10.67 239,-25.33 239,-25.33 239,-28.67 235.67,-32 232.33,-32 232.33,-32 225.67,-32 225.67,-32 222.33,-32 219,-28.67 219,-25.33 219,-25.33 219,-10.67 219,-10.67 219,-7.33 222.33,-4 225.67,-4"/>
</g>
<!-- 2&#45;&gt;3 -->
<g id="edge3" class="edge">
<title>2&#45;&gt;3</title>
<path fill="none" stroke="black" d="M155.23,-92.12C148.26,-80.7 142.44,-65.62 150,-54 159.22,-39.84 175.62,-31.36 191.1,-26.31"/>
<polygon fill="black" stroke="black" points="191.97,-29.7 200.64,-23.61 190.06,-22.96 191.97,-29.7"/>
<text text-anchor="start" x="154" y="-62" font-family="Courier New" font-weight="bold" font-size="10.00" fill="blue">PLAYWAVE(0,SOUND_POPUP)</text>
</g>
<!-- 3&#45;&gt;1 -->
<g id="edge4" class="edge">
<title>3&#45;&gt;1</title>
<path fill="none" stroke="black" d="M255.97,-25.72C270.55,-30.88 287.3,-39.63 296,-54 322.24,-97.32 302.43,-123.43 275,-166 272.1,-170.51 268.4,-174.66 264.37,-178.41"/>
<polygon fill="black" stroke="black" points="262.41,-175.48 256.94,-184.55 266.87,-180.87 262.41,-175.48"/>
<text text-anchor="start" x="312" y="-108" font-family="Courier New" font-weight="bold" font-size="10.00" fill="blue">LOADVIEW(0,IDV_CONTINENT)</text>
</g>
<!-- status -->
<g id="node6" class="node">
<title>status</title>
<polygon fill="none" stroke="black" points="274,-276.5 274,-360.5 536,-360.5 536,-276.5 274,-276.5"/>
<polygon fill="none" stroke="black" points="285,-335.5 285,-353.5 525,-353.5 525,-335.5 285,-335.5"/>
<text text-anchor="start" x="365.99" y="-342.5" font-family="Courier New" font-weight="bold" font-size="10.00">SMP_MAPBUTTON</text>
<polygon fill="none" stroke="black" points="285,-303.5 285,-333.5 525,-333.5 525,-303.5 285,-303.5"/>
<text text-anchor="start" x="288" y="-321.5" font-family="Courier New" font-size="10.00" fill="green">SMP_MAPBUTTON::M_MAPBUTTON(&#39;&#39;,&#39;&#39;,&#39;&#39;,&#39;&#39;)</text>
<text text-anchor="start" x="288" y="-309.5" font-family="Courier New" font-size="10.00" fill="green">{&#39;1&#39;: wSprite:mapbtn}</text>
<polygon fill="none" stroke="black" points="285,-283.5 285,-301.5 525,-301.5 525,-283.5 285,-283.5"/>
<text text-anchor="start" x="402" y="-289.5" font-family="Courier New" font-size="10.00" fill="blue">_</text>
<polygon fill="none" stroke="black" points="282,-280.5 282,-356.5 528,-356.5 528,-280.5 282,-280.5"/>
</g>
</g>
</svg>
