<?xml version="1.0" encoding="UTF-8" standalone="no"?>
<!DOCTYPE svg PUBLIC "-//W3C//DTD SVG 1.1//EN"
 "http://www.w3.org/Graphics/SVG/1.1/DTD/svg11.dtd">
<!-- Generated by graphviz version 7.1.0 (20230121.1956)
 -->
<!-- Title: Automaton Pages: 1 -->
<svg width="2395pt" height="653pt"
 viewBox="0.00 0.00 2395.00 653.00" xmlns="http://www.w3.org/2000/svg" xmlns:xlink="http://www.w3.org/1999/xlink">
<g id="graph0" class="graph" transform="scale(1 1) rotate(0) translate(4 649)">
<title>Automaton</title>
<polygon fill="white" stroke="none" points="-4,4 -4,-649 2391,-649 2391,4 -4,4"/>
<!-- filename -->
<g id="node1" class="node">
<title>filename</title>
<polygon fill="none" stroke="black" points="655,-580.5 655,-632.5 773,-632.5 773,-580.5 655,-580.5"/>
<polygon fill="none" stroke="black" points="666,-607.5 666,-625.5 762,-625.5 762,-607.5 666,-607.5"/>
<text text-anchor="start" x="677.99" y="-614.5" font-family="Courier New" font-weight="bold" font-size="10.00">SOD_ID::M_ID</text>
<polygon fill="none" stroke="black" points="666,-587.5 666,-605.5 762,-605.5 762,-587.5 666,-587.5"/>
<text text-anchor="start" x="669" y="-593.5" font-family="Courier New" font-size="10.00" fill="brown">start state = 0</text>
<polygon fill="none" stroke="black" points="663,-584.5 663,-628.5 765,-628.5 765,-584.5 663,-584.5"/>
</g>
<!-- 0 -->
<g id="node2" class="node">
<title>0</title>
<polyline fill="none" stroke="darkred" stroke-width="3" points="810.5,-595 825.5,-595"/>
<text text-anchor="start" x="814" y="-602.9" font-family="Courier New" font-weight="bold" font-size="14.00">0</text>
<path fill="none" stroke="darkred" stroke-width="3" d="M813.83,-590C813.83,-590 822.17,-590 822.17,-590 826.33,-590 830.5,-594.17 830.5,-598.33 830.5,-598.33 830.5,-614.67 830.5,-614.67 830.5,-618.83 826.33,-623 822.17,-623 822.17,-623 813.83,-623 813.83,-623 809.67,-623 805.5,-618.83 805.5,-614.67 805.5,-614.67 805.5,-598.33 805.5,-598.33 805.5,-594.17 809.67,-590 813.83,-590"/>
</g>
<!-- 20 -->
<g id="node3" class="node">
<title>20</title>
<polyline fill="none" stroke="darkred" points="16,-345 38,-345"/>
<text text-anchor="start" x="19" y="-352.4" font-family="Courier New" font-weight="bold" font-size="14.00">20</text>
<path fill="none" stroke="darkred" d="M22.33,-342C22.33,-342 31.67,-342 31.67,-342 36.33,-342 41,-346.67 41,-351.33 41,-351.33 41,-360.67 41,-360.67 41,-365.33 36.33,-370 31.67,-370 31.67,-370 22.33,-370 22.33,-370 17.67,-370 13,-365.33 13,-360.67 13,-360.67 13,-351.33 13,-351.33 13,-346.67 17.67,-342 22.33,-342"/>
</g>
<!-- 0&#45;&gt;20 -->
<g id="edge1" class="edge">
<title>0&#45;&gt;20</title>
<path fill="none" stroke="black" d="M803.39,-584.75C797.56,-578.16 790.26,-571.64 782,-568 744.57,-551.5 75.97,-577.84 46,-550 0.89,-508.09 10.53,-427.57 19.72,-384.99"/>
<polygon fill="black" stroke="black" points="23.13,-385.81 21.98,-375.28 16.31,-384.23 23.13,-385.81"/>
<text text-anchor="start" x="50" y="-538" font-family="Courier New" font-weight="bold" font-size="10.00" fill="orange">WAIT(0,SIG_HAPPY)</text>
</g>
<!-- 21 -->
<g id="node4" class="node">
<title>21</title>
<polyline fill="none" stroke="darkred" points="399,-99 421,-99"/>
<text text-anchor="start" x="402" y="-106.4" font-family="Courier New" font-weight="bold" font-size="14.00">21</text>
<path fill="none" stroke="darkred" d="M405.33,-96C405.33,-96 414.67,-96 414.67,-96 419.33,-96 424,-100.67 424,-105.33 424,-105.33 424,-114.67 424,-114.67 424,-119.33 419.33,-124 414.67,-124 414.67,-124 405.33,-124 405.33,-124 400.67,-124 396,-119.33 396,-114.67 396,-114.67 396,-105.33 396,-105.33 396,-100.67 400.67,-96 405.33,-96"/>
</g>
<!-- 0&#45;&gt;21 -->
<g id="edge2" class="edge">
<title>0&#45;&gt;21</title>
<path fill="none" stroke="black" d="M803.33,-584.88C797.49,-578.3 790.21,-571.76 782,-568 712.8,-536.33 506.58,-586.87 440,-550 331.93,-490.15 333.63,-408.01 353,-286 361.55,-232.13 384.04,-172.29 398.08,-138.4"/>
<polygon fill="black" stroke="black" points="401.24,-139.91 401.9,-129.34 394.79,-137.19 401.24,-139.91"/>
<text text-anchor="start" x="357" y="-354" font-family="Courier New" font-weight="bold" font-size="10.00" fill="orange">WAIT(0,SIG_HURT)</text>
</g>
<!-- 22 -->
<g id="node5" class="node">
<title>22</title>
<polyline fill="none" stroke="darkred" points="1062,-467 1084,-467"/>
<text text-anchor="start" x="1065" y="-474.4" font-family="Courier New" font-weight="bold" font-size="14.00">22</text>
<path fill="none" stroke="darkred" d="M1068.33,-464C1068.33,-464 1077.67,-464 1077.67,-464 1082.33,-464 1087,-468.67 1087,-473.33 1087,-473.33 1087,-482.67 1087,-482.67 1087,-487.33 1082.33,-492 1077.67,-492 1077.67,-492 1068.33,-492 1068.33,-492 1063.67,-492 1059,-487.33 1059,-482.67 1059,-482.67 1059,-473.33 1059,-473.33 1059,-468.67 1063.67,-464 1068.33,-464"/>
</g>
<!-- 0&#45;&gt;22 -->
<g id="edge3" class="edge">
<title>0&#45;&gt;22</title>
<path fill="none" stroke="black" d="M834.34,-584.83C840.02,-578.72 846.79,-572.47 854,-568 889.24,-546.14 995.44,-531.56 1032,-512 1036.88,-509.39 1041.74,-506.17 1046.33,-502.77"/>
<polygon fill="black" stroke="black" points="1048.42,-505.58 1054.08,-496.63 1044.07,-500.1 1048.42,-505.58"/>
<text text-anchor="start" x="981" y="-538" font-family="Courier New" font-weight="bold" font-size="10.00" fill="orange">WAIT(0,SIG_KISS)</text>
</g>
<!-- 23 -->
<g id="node6" class="node">
<title>23</title>
<polyline fill="none" stroke="darkred" points="133,-99 155,-99"/>
<text text-anchor="start" x="136" y="-106.4" font-family="Courier New" font-weight="bold" font-size="14.00">23</text>
<path fill="none" stroke="darkred" d="M139.33,-96C139.33,-96 148.67,-96 148.67,-96 153.33,-96 158,-100.67 158,-105.33 158,-105.33 158,-114.67 158,-114.67 158,-119.33 153.33,-124 148.67,-124 148.67,-124 139.33,-124 139.33,-124 134.67,-124 130,-119.33 130,-114.67 130,-114.67 130,-105.33 130,-105.33 130,-100.67 134.67,-96 139.33,-96"/>
</g>
<!-- 0&#45;&gt;23 -->
<g id="edge4" class="edge">
<title>0&#45;&gt;23</title>
<path fill="none" stroke="black" d="M803.37,-584.79C797.54,-578.2 790.24,-571.68 782,-568 726.76,-543.37 289.91,-581.04 238,-550 183.3,-517.3 183.67,-487.23 166,-426 131.48,-306.36 178.66,-268.44 156,-146 155.56,-143.63 154.99,-141.21 154.34,-138.79"/>
<polygon fill="black" stroke="black" points="157.69,-137.75 151.34,-129.26 151.01,-139.85 157.69,-137.75"/>
<text text-anchor="start" x="170" y="-354" font-family="Courier New" font-weight="bold" font-size="10.00" fill="orange">WAIT(0,SIG_MAD)</text>
</g>
<!-- 24 -->
<g id="node7" class="node">
<title>24</title>
<polyline fill="none" stroke="darkred" points="289,-345 311,-345"/>
<text text-anchor="start" x="292" y="-352.4" font-family="Courier New" font-weight="bold" font-size="14.00">24</text>
<path fill="none" stroke="darkred" d="M295.33,-342C295.33,-342 304.67,-342 304.67,-342 309.33,-342 314,-346.67 314,-351.33 314,-351.33 314,-360.67 314,-360.67 314,-365.33 309.33,-370 304.67,-370 304.67,-370 295.33,-370 295.33,-370 290.67,-370 286,-365.33 286,-360.67 286,-360.67 286,-351.33 286,-351.33 286,-346.67 290.67,-342 295.33,-342"/>
</g>
<!-- 0&#45;&gt;24 -->
<g id="edge5" class="edge">
<title>0&#45;&gt;24</title>
<path fill="none" stroke="black" d="M803.37,-584.79C797.54,-578.2 790.24,-571.68 782,-568 754.69,-555.82 264.79,-571.5 244,-550 232.3,-537.9 270.03,-434.44 289.34,-384.18"/>
<polygon fill="black" stroke="black" points="292.49,-385.76 292.83,-375.17 285.96,-383.23 292.49,-385.76"/>
<text text-anchor="start" x="248" y="-538" font-family="Courier New" font-weight="bold" font-size="10.00" fill="orange">WAIT(0,SIG_SAD)</text>
</g>
<!-- 25 -->
<g id="node8" class="node">
<title>25</title>
<polyline fill="none" stroke="darkred" points="638,-345 660,-345"/>
<text text-anchor="start" x="641" y="-352.4" font-family="Courier New" font-weight="bold" font-size="14.00">25</text>
<path fill="none" stroke="darkred" d="M644.33,-342C644.33,-342 653.67,-342 653.67,-342 658.33,-342 663,-346.67 663,-351.33 663,-351.33 663,-360.67 663,-360.67 663,-365.33 658.33,-370 653.67,-370 653.67,-370 644.33,-370 644.33,-370 639.67,-370 635,-365.33 635,-360.67 635,-360.67 635,-351.33 635,-351.33 635,-346.67 639.67,-342 644.33,-342"/>
</g>
<!-- 0&#45;&gt;25 -->
<g id="edge6" class="edge">
<title>0&#45;&gt;25</title>
<path fill="none" stroke="black" d="M802.9,-584.65C797.12,-578.21 789.98,-571.82 782,-568 740.96,-548.33 608.73,-583.56 578,-550 555.02,-524.91 605.61,-430.21 632.96,-383.45"/>
<polygon fill="black" stroke="black" points="635.87,-385.4 637.96,-375.02 629.85,-381.84 635.87,-385.4"/>
<text text-anchor="start" x="582" y="-538" font-family="Courier New" font-weight="bold" font-size="10.00" fill="orange">WAIT(0,SIG_SURPRISED)</text>
</g>
<!-- 26 -->
<g id="node9" class="node">
<title>26</title>
<polyline fill="none" stroke="darkred" points="770,-153 792,-153"/>
<text text-anchor="start" x="773" y="-160.4" font-family="Courier New" font-weight="bold" font-size="14.00">26</text>
<path fill="none" stroke="darkred" d="M776.33,-150C776.33,-150 785.67,-150 785.67,-150 790.33,-150 795,-154.67 795,-159.33 795,-159.33 795,-168.67 795,-168.67 795,-173.33 790.33,-178 785.67,-178 785.67,-178 776.33,-178 776.33,-178 771.67,-178 767,-173.33 767,-168.67 767,-168.67 767,-159.33 767,-159.33 767,-154.67 771.67,-150 776.33,-150"/>
</g>
<!-- 0&#45;&gt;26 -->
<g id="edge7" class="edge">
<title>0&#45;&gt;26</title>
<path fill="none" stroke="black" d="M800.37,-584.86C794.83,-579.02 788.46,-572.93 782,-568 767.93,-557.27 728.13,-537.29 712,-530 690.86,-520.44 676.28,-531.02 663,-512 645.7,-487.22 653.19,-472.59 663,-444 666.29,-434.41 672.72,-435.19 677,-426 703.88,-368.32 683.4,-345.1 707,-286 720.99,-250.98 744.72,-214.57 761.53,-190.95"/>
<polygon fill="black" stroke="black" points="764.34,-193.03 767.38,-182.88 758.67,-188.93 764.34,-193.03"/>
<text text-anchor="start" x="667" y="-476" font-family="Courier New" font-weight="bold" font-size="10.00" fill="orange">WAIT(0,SIG_STRESS)</text>
</g>
<!-- 27 -->
<g id="node10" class="node">
<title>27</title>
<polyline fill="none" stroke="darkred" points="1058,-153 1080,-153"/>
<text text-anchor="start" x="1061" y="-160.4" font-family="Courier New" font-weight="bold" font-size="14.00">27</text>
<path fill="none" stroke="darkred" d="M1064.33,-150C1064.33,-150 1073.67,-150 1073.67,-150 1078.33,-150 1083,-154.67 1083,-159.33 1083,-159.33 1083,-168.67 1083,-168.67 1083,-173.33 1078.33,-178 1073.67,-178 1073.67,-178 1064.33,-178 1064.33,-178 1059.67,-178 1055,-173.33 1055,-168.67 1055,-168.67 1055,-159.33 1055,-159.33 1055,-154.67 1059.67,-150 1064.33,-150"/>
</g>
<!-- 0&#45;&gt;27 -->
<g id="edge8" class="edge">
<title>0&#45;&gt;27</title>
<path fill="none" stroke="black" d="M833.08,-584.6C838.86,-578.16 846,-571.78 854,-568 900.55,-545.99 1040.91,-576.59 1085,-550 1102.11,-539.69 1102.03,-530.72 1109,-512 1144.13,-417.72 1142.62,-384.47 1122,-286 1114.87,-251.94 1097.57,-215.74 1084.66,-191.9"/>
<polygon fill="black" stroke="black" points="1087.74,-190.24 1079.82,-183.2 1081.62,-193.64 1087.74,-190.24"/>
<text text-anchor="start" x="1135" y="-476" font-family="Courier New" font-weight="bold" font-size="10.00" fill="orange">WAIT(0,SIG_WAVE)</text>
</g>
<!-- 30 -->
<g id="node11" class="node">
<title>30</title>
<polyline fill="none" stroke="darkred" points="804,-467 826,-467"/>
<text text-anchor="start" x="807" y="-474.4" font-family="Courier New" font-weight="bold" font-size="14.00">30</text>
<path fill="none" stroke="darkred" d="M810.33,-464C810.33,-464 819.67,-464 819.67,-464 824.33,-464 829,-468.67 829,-473.33 829,-473.33 829,-482.67 829,-482.67 829,-487.33 824.33,-492 819.67,-492 819.67,-492 810.33,-492 810.33,-492 805.67,-492 801,-487.33 801,-482.67 801,-482.67 801,-473.33 801,-473.33 801,-468.67 805.67,-464 810.33,-464"/>
</g>
<!-- 0&#45;&gt;30 -->
<g id="edge9" class="edge">
<title>0&#45;&gt;30</title>
<path fill="none" stroke="black" d="M799,-584.82C793.63,-579.23 787.7,-573.27 782,-568 772.72,-559.43 765.41,-561.42 760,-550 756.19,-541.97 756.44,-538.15 760,-530 762.91,-523.34 773.72,-512.8 785.01,-503.03"/>
<polygon fill="black" stroke="black" points="787.06,-505.88 792.44,-496.75 782.54,-500.53 787.06,-505.88"/>
<text text-anchor="start" x="764" y="-538" font-family="Courier New" font-weight="bold" font-size="10.00" fill="orange">WAIT(0,SIG_DEAD)</text>
</g>
<!-- 50 -->
<g id="node12" class="node">
<title>50</title>
<polyline fill="none" stroke="darkred" points="450,-467 472,-467"/>
<text text-anchor="start" x="453" y="-474.4" font-family="Courier New" font-weight="bold" font-size="14.00">50</text>
<path fill="none" stroke="darkred" d="M456.33,-464C456.33,-464 465.67,-464 465.67,-464 470.33,-464 475,-468.67 475,-473.33 475,-473.33 475,-482.67 475,-482.67 475,-487.33 470.33,-492 465.67,-492 465.67,-492 456.33,-492 456.33,-492 451.67,-492 447,-487.33 447,-482.67 447,-482.67 447,-473.33 447,-473.33 447,-468.67 451.67,-464 456.33,-464"/>
</g>
<!-- 0&#45;&gt;50 -->
<g id="edge10" class="edge">
<title>0&#45;&gt;50</title>
<path fill="none" stroke="black" d="M803.33,-584.89C797.49,-578.31 790.2,-571.76 782,-568 748.52,-552.64 476.33,-576.74 451,-550 440.22,-538.62 442.47,-521.26 447.53,-506.55"/>
<polygon fill="black" stroke="black" points="450.74,-507.96 451.22,-497.37 444.24,-505.35 450.74,-507.96"/>
<text text-anchor="start" x="455" y="-538" font-family="Courier New" font-weight="bold" font-size="10.00" fill="orange">WAIT(0,SIG_BOMB)</text>
</g>
<!-- 100 -->
<g id="node13" class="node">
<title>100</title>
<polyline fill="none" stroke="darkred" points="1446,-467 1477,-467"/>
<text text-anchor="start" x="1449" y="-474.4" font-family="Courier New" font-weight="bold" font-size="14.00">100</text>
<path fill="none" stroke="darkred" d="M1451.83,-464C1451.83,-464 1470.17,-464 1470.17,-464 1474.83,-464 1479.5,-468.67 1479.5,-473.33 1479.5,-473.33 1479.5,-482.67 1479.5,-482.67 1479.5,-487.33 1474.83,-492 1470.17,-492 1470.17,-492 1451.83,-492 1451.83,-492 1447.17,-492 1442.5,-487.33 1442.5,-482.67 1442.5,-482.67 1442.5,-473.33 1442.5,-473.33 1442.5,-468.67 1447.17,-464 1451.83,-464"/>
</g>
<!-- 0&#45;&gt;100 -->
<g id="edge11" class="edge">
<title>0&#45;&gt;100</title>
<path fill="none" stroke="black" d="M832.65,-584.83C838.48,-578.24 845.77,-571.71 854,-568 898.2,-548.07 1242.16,-557.86 1290,-550 1349.4,-540.24 1366.64,-539.85 1420,-512 1424.91,-509.44 1429.78,-506.24 1434.38,-502.86"/>
<polygon fill="black" stroke="black" points="1436.46,-505.67 1442.12,-496.72 1432.11,-500.18 1436.46,-505.67"/>
<text text-anchor="start" x="1384" y="-538" font-family="Courier New" font-weight="bold" font-size="10.00" fill="orange">WAIT(0,SIG_CLEAR)</text>
</g>
<!-- 2 -->
<g id="node14" class="node">
<title>2</title>
<polyline fill="none" stroke="darkred" points="1712,-467 1726,-467"/>
<text text-anchor="start" x="1715" y="-474.4" font-family="Courier New" font-weight="bold" font-size="14.00">2</text>
<path fill="none" stroke="darkred" d="M1715.67,-464C1715.67,-464 1722.33,-464 1722.33,-464 1725.67,-464 1729,-467.33 1729,-470.67 1729,-470.67 1729,-485.33 1729,-485.33 1729,-488.67 1725.67,-492 1722.33,-492 1722.33,-492 1715.67,-492 1715.67,-492 1712.33,-492 1709,-488.67 1709,-485.33 1709,-485.33 1709,-470.67 1709,-470.67 1709,-467.33 1712.33,-464 1715.67,-464"/>
</g>
<!-- 0&#45;&gt;2 -->
<g id="edge12" class="edge">
<title>0&#45;&gt;2</title>
<path fill="none" stroke="black" d="M832.62,-584.76C838.45,-578.17 845.75,-571.65 854,-568 923.54,-537.27 1462.78,-561.04 1538,-550 1601.79,-540.64 1620.56,-541.28 1678,-512 1682.93,-509.49 1687.82,-506.32 1692.42,-502.94"/>
<polygon fill="black" stroke="black" points="1694.5,-505.75 1700.17,-496.8 1690.16,-500.27 1694.5,-505.75"/>
<text text-anchor="start" x="1641" y="-538" font-family="Courier New" font-weight="bold" font-size="10.00" fill="orange">WAIT(0,0)</text>
</g>
<!-- playForward -->
<g id="node17" class="node">
<title>playForward</title>
<polyline fill="none" stroke="darkred" points="461,-7 559,-7"/>
<text text-anchor="start" x="464" y="-14.4" font-family="Courier New" font-weight="bold" font-size="14.00">playForward</text>
<path fill="none" stroke="darkred" d="M467.33,-4C467.33,-4 552.67,-4 552.67,-4 557.33,-4 562,-8.67 562,-13.33 562,-13.33 562,-22.67 562,-22.67 562,-27.33 557.33,-32 552.67,-32 552.67,-32 467.33,-32 467.33,-32 462.67,-32 458,-27.33 458,-22.67 458,-22.67 458,-13.33 458,-13.33 458,-8.67 462.67,-4 467.33,-4"/>
</g>
<!-- 20&#45;&gt;playForward -->
<g id="edge17" class="edge">
<title>20&#45;&gt;playForward</title>
<path fill="none" stroke="black" d="M22.67,-338.11C14.17,-301.74 -1.88,-213.78 22,-146 39.43,-96.51 49.67,-78.64 96,-54 153.56,-23.38 336.29,-18.55 438.69,-18.36"/>
<polygon fill="black" stroke="black" points="438.65,-21.86 448.65,-18.36 438.65,-14.86 438.65,-21.86"/>
<text text-anchor="start" x="26" y="-162" font-family="Courier New" font-weight="bold" font-size="10.00" fill="blue">ASSIGN(WSPRITE,happy)</text>
</g>
<!-- 21&#45;&gt;playForward -->
<g id="edge18" class="edge">
<title>21&#45;&gt;playForward</title>
<path fill="none" stroke="black" d="M419.29,-92.14C426.34,-80.44 436.87,-65.02 449,-54 453.86,-49.58 459.38,-45.47 465.05,-41.74"/>
<polygon fill="black" stroke="black" points="466.7,-44.84 473.38,-36.62 463.03,-38.88 466.7,-44.84"/>
<text text-anchor="start" x="453" y="-62" font-family="Courier New" font-weight="bold" font-size="10.00" fill="blue">ASSIGN(WSPRITE,hurt)</text>
</g>
<!-- playOnce -->
<g id="node18" class="node">
<title>playOnce</title>
<polyline fill="none" stroke="darkred" points="842,-223 915,-223"/>
<text text-anchor="start" x="845" y="-230.4" font-family="Courier New" font-weight="bold" font-size="14.00">playOnce</text>
<path fill="none" stroke="darkred" d="M847.83,-220C847.83,-220 908.17,-220 908.17,-220 912.83,-220 917.5,-224.67 917.5,-229.33 917.5,-229.33 917.5,-238.67 917.5,-238.67 917.5,-243.33 912.83,-248 908.17,-248 908.17,-248 847.83,-248 847.83,-248 843.17,-248 838.5,-243.33 838.5,-238.67 838.5,-238.67 838.5,-229.33 838.5,-229.33 838.5,-224.67 843.17,-220 847.83,-220"/>
</g>
<!-- 22&#45;&gt;playOnce -->
<g id="edge19" class="edge">
<title>22&#45;&gt;playOnce</title>
<path fill="none" stroke="black" d="M1054.09,-460.24C1047.37,-454.71 1039.59,-448.76 1032,-444 1016.17,-434.07 1007.88,-438.51 994,-426 941.83,-378.97 905.43,-302.92 888.59,-262.43"/>
<polygon fill="black" stroke="black" points="891.84,-261.13 884.84,-253.18 885.35,-263.76 891.84,-261.13"/>
<text text-anchor="start" x="998" y="-354" font-family="Courier New" font-weight="bold" font-size="10.00" fill="blue">ASSIGN(WSPRITE,kiss)</text>
</g>
<!-- 23&#45;&gt;playForward -->
<g id="edge20" class="edge">
<title>23&#45;&gt;playForward</title>
<path fill="none" stroke="black" d="M119.02,-92.12C105.29,-80.83 93.06,-65.92 104,-54 126.12,-29.9 328.2,-22.35 438.66,-20.02"/>
<polygon fill="black" stroke="black" points="438.59,-23.52 448.52,-19.82 438.45,-16.52 438.59,-23.52"/>
<text text-anchor="start" x="108" y="-62" font-family="Courier New" font-weight="bold" font-size="10.00" fill="blue">ASSIGN(WSPRITE,mad)</text>
</g>
<!-- 24&#45;&gt;playForward -->
<g id="edge21" class="edge">
<title>24&#45;&gt;playForward</title>
<path fill="none" stroke="black" d="M292.22,-338.29C278.59,-307.97 250.86,-241.48 241,-182 238.38,-166.22 232.54,-159.58 241,-146 283.76,-77.3 374.95,-45.12 439.26,-30.49"/>
<polygon fill="black" stroke="black" points="439.64,-34 448.66,-28.45 438.15,-27.16 439.64,-34"/>
<text text-anchor="start" x="245" y="-162" font-family="Courier New" font-weight="bold" font-size="10.00" fill="blue">ASSIGN(WSPRITE,sad)</text>
</g>
<!-- 25&#45;&gt;playForward -->
<g id="edge22" class="edge">
<title>25&#45;&gt;playForward</title>
<path fill="none" stroke="black" d="M641.29,-338.25C627.7,-307.86 599.7,-241.28 587,-182 575.05,-126.2 608.45,-101.61 577,-54 574.16,-49.7 570.61,-45.89 566.63,-42.52"/>
<polygon fill="black" stroke="black" points="568.76,-39.74 558.6,-36.74 564.67,-45.42 568.76,-39.74"/>
<text text-anchor="start" x="591" y="-162" font-family="Courier New" font-weight="bold" font-size="10.00" fill="blue">ASSIGN(WSPRITE,surprised)</text>
</g>
<!-- 26&#45;&gt;playForward -->
<g id="edge23" class="edge">
<title>26&#45;&gt;playForward</title>
<path fill="none" stroke="black" d="M757.12,-146.04C724.07,-123.08 662.02,-81.81 605,-54 594.58,-48.92 583.23,-44.14 572.12,-39.83"/>
<polygon fill="black" stroke="black" points="573.58,-36.64 562.99,-36.39 571.11,-43.19 573.58,-36.64"/>
<text text-anchor="start" x="734" y="-108" font-family="Courier New" font-weight="bold" font-size="10.00" fill="blue">ASSIGN(WSPRITE,stress)</text>
</g>
<!-- 27&#45;&gt;playForward -->
<g id="edge24" class="edge">
<title>27&#45;&gt;playForward</title>
<path fill="none" stroke="black" d="M1042.29,-151.81C1005.11,-136.57 935.4,-109.23 874,-92 773.66,-63.84 654.85,-42.13 580.94,-29.96"/>
<polygon fill="black" stroke="black" points="581.85,-26.56 571.41,-28.4 580.72,-33.47 581.85,-26.56"/>
<text text-anchor="start" x="986" y="-108" font-family="Courier New" font-weight="bold" font-size="10.00" fill="blue">ASSIGN(WSPRITE,wave)</text>
</g>
<!-- 30&#45;&gt;playOnce -->
<g id="edge25" class="edge">
<title>30&#45;&gt;playOnce</title>
<path fill="none" stroke="black" d="M796.09,-460.24C789.37,-454.71 781.59,-448.76 774,-444 758.17,-434.07 745.99,-441.79 736,-426 702.73,-373.42 700.2,-336.89 736,-286 754.84,-259.21 789.15,-246.43 819.32,-240.35"/>
<polygon fill="black" stroke="black" points="819.92,-243.8 829.15,-238.6 818.69,-236.91 819.92,-243.8"/>
<text text-anchor="start" x="740" y="-354" font-family="Courier New" font-weight="bold" font-size="10.00" fill="blue">ASSIGN(WSPRITE,dead)</text>
</g>
<!-- 51 -->
<g id="node19" class="node">
<title>51</title>
<polyline fill="none" stroke="darkred" points="436,-223 458,-223"/>
<text text-anchor="start" x="439" y="-230.4" font-family="Courier New" font-weight="bold" font-size="14.00">51</text>
<path fill="none" stroke="darkred" d="M442.33,-220C442.33,-220 451.67,-220 451.67,-220 456.33,-220 461,-224.67 461,-229.33 461,-229.33 461,-238.67 461,-238.67 461,-243.33 456.33,-248 451.67,-248 451.67,-248 442.33,-248 442.33,-248 437.67,-248 433,-243.33 433,-238.67 433,-238.67 433,-229.33 433,-229.33 433,-224.67 437.67,-220 442.33,-220"/>
</g>
<!-- 50&#45;&gt;51 -->
<g id="edge26" class="edge">
<title>50&#45;&gt;51</title>
<path fill="none" stroke="black" d="M462.51,-460.04C465.16,-426.57 469.59,-349.75 461,-286 459.97,-278.36 458.11,-270.24 456.07,-262.78"/>
<polygon fill="black" stroke="black" points="459.44,-261.82 453.25,-253.22 452.72,-263.8 459.44,-261.82"/>
<text text-anchor="start" x="471" y="-354" font-family="Courier New" font-weight="bold" font-size="10.00" fill="blue">VIDEO(0,IDS_EXPLODE1)</text>
</g>
<!-- 101 -->
<g id="node15" class="node">
<title>101</title>
<polyline fill="none" stroke="darkred" points="1312,-223 1343,-223"/>
<text text-anchor="start" x="1315" y="-230.4" font-family="Courier New" font-weight="bold" font-size="14.00">101</text>
<path fill="none" stroke="darkred" d="M1317.83,-220C1317.83,-220 1336.17,-220 1336.17,-220 1340.83,-220 1345.5,-224.67 1345.5,-229.33 1345.5,-229.33 1345.5,-238.67 1345.5,-238.67 1345.5,-243.33 1340.83,-248 1336.17,-248 1336.17,-248 1317.83,-248 1317.83,-248 1313.17,-248 1308.5,-243.33 1308.5,-238.67 1308.5,-238.67 1308.5,-229.33 1308.5,-229.33 1308.5,-224.67 1313.17,-220 1317.83,-220"/>
</g>
<!-- 100&#45;&gt;101 -->
<g id="edge13" class="edge">
<title>100&#45;&gt;101</title>
<path fill="none" stroke="black" d="M1451.79,-460.37C1428.94,-419.09 1369.47,-311.7 1341.7,-261.54"/>
<polygon fill="black" stroke="black" points="1344.91,-260.13 1337.01,-253.07 1338.79,-263.52 1344.91,-260.13"/>
<text text-anchor="start" x="1437" y="-354" font-family="Courier New" font-weight="bold" font-size="10.00" fill="blue">SHOW(0,0)</text>
</g>
<!-- setId -->
<g id="node16" class="node">
<title>setId</title>
<polyline fill="none" stroke="darkred" points="1533,-223 1581,-223"/>
<text text-anchor="start" x="1536" y="-230.4" font-family="Courier New" font-weight="bold" font-size="14.00">setId</text>
<path fill="none" stroke="darkred" d="M1539.33,-220C1539.33,-220 1574.67,-220 1574.67,-220 1579.33,-220 1584,-224.67 1584,-229.33 1584,-229.33 1584,-238.67 1584,-238.67 1584,-243.33 1579.33,-248 1574.67,-248 1574.67,-248 1539.33,-248 1539.33,-248 1534.67,-248 1530,-243.33 1530,-238.67 1530,-238.67 1530,-229.33 1530,-229.33 1530,-224.67 1534.67,-220 1539.33,-220"/>
</g>
<!-- 2&#45;&gt;setId -->
<g id="edge15" class="edge">
<title>2&#45;&gt;setId</title>
<path fill="none" stroke="black" d="M1745.84,-467.61C1764.14,-459.63 1786.99,-446.21 1798,-426 1812.88,-398.68 1817.59,-310.17 1798,-286 1773.92,-256.29 1665.84,-243.2 1602.89,-238.01"/>
<polygon fill="black" stroke="black" points="1603.45,-234.54 1593.2,-237.25 1602.9,-241.52 1603.45,-234.54"/>
<polygon fill="none" stroke="black" points="1813,-405 1813,-423 2053,-423 2053,-405 1813,-405"/>
<text text-anchor="start" x="1890.99" y="-412" font-family="Courier New" font-weight="bold" font-size="10.00" fill="blue">EQUALi(LSEX,1)</text>
<polygon fill="none" stroke="black" points="1813,-289 1813,-403 2053,-403 2053,-289 1813,-289"/>
<text text-anchor="start" x="1816" y="-391" font-family="Courier New" font-size="10.00" fill="blue"> &#160;&#160;&#160;if(LWISDOM &gt;= 30){</text>
<text text-anchor="start" x="1816" y="-379" font-family="Courier New" font-size="10.00" fill="blue"> &#160;&#160;&#160;&#160;&#160;&#160;ASSIGN(WPARM,F3);</text>
<text text-anchor="start" x="1816" y="-367" font-family="Courier New" font-size="10.00" fill="blue"> &#160;&#160;&#160;}</text>
<text text-anchor="start" x="1816" y="-355" font-family="Courier New" font-size="10.00" fill="blue"> &#160;&#160;&#160;&#160;if(LWISDOM &gt;= 20 &amp;&amp; LWISDOM &lt; 31){</text>
<text text-anchor="start" x="1816" y="-343" font-family="Courier New" font-size="10.00" fill="blue"> &#160;&#160;&#160;&#160;&#160;&#160;&#160;ASSIGN(WPARM,F2);</text>
<text text-anchor="start" x="1816" y="-331" font-family="Courier New" font-size="10.00" fill="blue"> &#160;&#160;&#160;}</text>
<text text-anchor="start" x="1816" y="-319" font-family="Courier New" font-size="10.00" fill="blue"> &#160;&#160;&#160;if(LWISDOM &lt; 20){</text>
<text text-anchor="start" x="1816" y="-307" font-family="Courier New" font-size="10.00" fill="blue"> &#160;&#160;&#160;&#160;&#160;&#160;ASSIGN(WPARM,F1);</text>
<text text-anchor="start" x="1816" y="-295" font-family="Courier New" font-size="10.00" fill="blue"> &#160;&#160;&#160;}</text>
<polygon fill="none" stroke="black" points="1810,-286 1810,-426 2056,-426 2056,-286 1810,-286"/>
</g>
<!-- 2&#45;&gt;setId -->
<g id="edge16" class="edge">
<title>2&#45;&gt;setId</title>
<path fill="none" stroke="black" d="M1702.41,-460.27C1695.43,-454.19 1686.88,-447.87 1678,-444 1652.47,-432.88 1572.22,-447.06 1554,-426 1533.59,-402.41 1544.8,-310.35 1552.17,-263.19"/>
<polygon fill="black" stroke="black" points="1555.61,-263.89 1553.75,-253.46 1548.7,-262.77 1555.61,-263.89"/>
<polygon fill="none" stroke="black" points="1557,-405 1557,-423 1791,-423 1791,-405 1557,-405"/>
<text text-anchor="start" x="1628.99" y="-412" font-family="Courier New" font-weight="bold" font-size="10.00" fill="blue">NEQUALi(LSEX,1)</text>
<polygon fill="none" stroke="black" points="1557,-289 1557,-403 1791,-403 1791,-289 1557,-289"/>
<text text-anchor="start" x="1560" y="-391" font-family="Courier New" font-size="10.00" fill="blue"> &#160;&#160;&#160;if(LWISDOM &gt;= 30){</text>
<text text-anchor="start" x="1560" y="-379" font-family="Courier New" font-size="10.00" fill="blue"> &#160;&#160;&#160;&#160;&#160;&#160;ASSIGN(WPARM,M3);</text>
<text text-anchor="start" x="1560" y="-367" font-family="Courier New" font-size="10.00" fill="blue"> &#160;&#160;&#160;}</text>
<text text-anchor="start" x="1560" y="-355" font-family="Courier New" font-size="10.00" fill="blue"> &#160;&#160;&#160;if(LWISDOM &gt;= 20 &amp;&amp; LWISDOM &lt; 31){</text>
<text text-anchor="start" x="1560" y="-343" font-family="Courier New" font-size="10.00" fill="blue"> &#160;&#160;&#160;&#160;&#160;&#160;&#160;ASSIGN(WPARM,M2);</text>
<text text-anchor="start" x="1560" y="-331" font-family="Courier New" font-size="10.00" fill="blue"> &#160;&#160;&#160;}</text>
<text text-anchor="start" x="1560" y="-319" font-family="Courier New" font-size="10.00" fill="blue"> &#160;&#160;&#160;if(LWISDOM &lt; 20){</text>
<text text-anchor="start" x="1560" y="-307" font-family="Courier New" font-size="10.00" fill="blue"> &#160;&#160;&#160;&#160;&#160;&#160;ASSIGN(WPARM,M1);</text>
<text text-anchor="start" x="1560" y="-295" font-family="Courier New" font-size="10.00" fill="blue"> &#160;&#160;&#160;}</text>
<polygon fill="none" stroke="black" points="1554,-286 1554,-426 1794,-426 1794,-286 1554,-286"/>
</g>
<!-- 101&#45;&gt;0 -->
<g id="edge14" class="edge">
<title>101&#45;&gt;0</title>
<path fill="none" stroke="black" d="M1323.95,-251.71C1313.87,-305.41 1280.18,-472.29 1244,-512 1213.65,-545.31 1193.95,-540.06 1150,-550 1085.72,-564.54 913.81,-540.33 854,-568 849.36,-570.15 845.01,-573.18 841.05,-576.6"/>
<polygon fill="black" stroke="black" points="838.77,-573.94 834.12,-583.46 843.69,-578.92 838.77,-573.94"/>
<text text-anchor="start" x="1280" y="-476" font-family="Courier New" font-weight="bold" font-size="10.00" fill="blue">SIGNAL(WIP4,SIG_CLEAR)</text>
</g>
<!-- setId&#45;&gt;0 -->
<g id="edge30" class="edge">
<title>setId&#45;&gt;0</title>
<path fill="none" stroke="black" d="M1549.84,-251.74C1545.87,-261.56 1541.12,-274.31 1538,-286 1522.66,-343.46 1538.84,-510.92 1494,-550 1467.19,-573.37 886.52,-553.59 854,-568 849.23,-570.11 844.78,-573.18 840.74,-576.67"/>
<polygon fill="black" stroke="black" points="838.31,-574.16 833.69,-583.7 843.25,-579.12 838.31,-574.16"/>
<polygon fill="none" stroke="black" points="1528,-491 1528,-509 1672,-509 1672,-491 1528,-491"/>
<text text-anchor="start" x="1536.99" y="-498" font-family="Courier New" font-weight="bold" font-size="10.00" fill="blue">ASSIGN(WSPRITE,happy)</text>
<polygon fill="none" stroke="black" points="1528,-447 1528,-489 1672,-489 1672,-447 1528,-447"/>
<text text-anchor="start" x="1531" y="-477" font-family="Courier New" font-size="10.00" fill="blue"> &#160;&#160;&#160;MAP(WSPRITE,WPARM);</text>
<text text-anchor="start" x="1531" y="-465" font-family="Courier New" font-size="10.00" fill="blue"> &#160;&#160;&#160;ASSIGN(BFRAME,0);</text>
<text text-anchor="start" x="1531" y="-453" font-family="Courier New" font-size="10.00" fill="blue"> &#160;&#160;&#160;SHOW(WSPRITE);</text>
<polygon fill="none" stroke="black" points="1525,-444 1525,-512 1675,-512 1675,-444 1525,-444"/>
</g>
<!-- playForward&#45;&gt;0 -->
<g id="edge28" class="edge">
<title>playForward&#45;&gt;0</title>
<path fill="none" stroke="black" d="M569.67,-19.24C856.63,-20.77 2081,-31.82 2081,-109 2081,-479 2081,-479 2081,-479 2081,-564.47 1788.01,-541.18 1703,-550 1656.07,-554.87 897.2,-549.04 854,-568 849.22,-570.1 844.77,-573.16 840.73,-576.64"/>
<polygon fill="black" stroke="black" points="838.29,-574.13 833.68,-583.67 843.23,-579.09 838.29,-574.13"/>
<polygon fill="none" stroke="black" points="2084,-247 2084,-265 2384,-265 2384,-247 2084,-247"/>
<text text-anchor="start" x="2185.99" y="-254" font-family="Courier New" font-weight="bold" font-size="10.00" fill="blue">ASSIGN(BFRAME,0)</text>
<polygon fill="none" stroke="black" points="2084,-203 2084,-245 2384,-245 2384,-203 2084,-203"/>
<text text-anchor="start" x="2087" y="-233" font-family="Courier New" font-size="10.00" fill="blue"> &#160;&#160;&#160;MAP(WSPRITE,WPARM);</text>
<text text-anchor="start" x="2087" y="-221" font-family="Courier New" font-size="10.00" fill="blue"> &#160;&#160;&#160;SHOW(WSPRITE);</text>
<text text-anchor="start" x="2087" y="-209" font-family="Courier New" font-size="10.00" fill="blue"> &#160;&#160;&#160;ANIMATE(0,V_REWIND); //PLAY FORWARD THEN BACK</text>
<polygon fill="none" stroke="black" points="2081,-200 2081,-268 2387,-268 2387,-200 2081,-200"/>
</g>
<!-- playOnce&#45;&gt;0 -->
<g id="edge29" class="edge">
<title>playOnce&#45;&gt;0</title>
<path fill="none" stroke="black" d="M878.64,-251.63C880.62,-308.51 885.28,-494.84 864,-550 861.68,-556.01 853.8,-566.15 845.2,-576.13"/>
<polygon fill="black" stroke="black" points="842.58,-573.81 838.58,-583.62 847.83,-578.44 842.58,-573.81"/>
<polygon fill="none" stroke="black" points="882,-491 882,-509 1026,-509 1026,-491 882,-491"/>
<text text-anchor="start" x="905.99" y="-498" font-family="Courier New" font-weight="bold" font-size="10.00" fill="blue">ASSIGN(BFRAME,0)</text>
<polygon fill="none" stroke="black" points="882,-447 882,-489 1026,-489 1026,-447 882,-447"/>
<text text-anchor="start" x="885" y="-477" font-family="Courier New" font-size="10.00" fill="blue"> &#160;&#160;&#160;MAP(WSPRITE,WPARM);</text>
<text text-anchor="start" x="885" y="-465" font-family="Courier New" font-size="10.00" fill="blue"> &#160;&#160;&#160;SHOW(WSPRITE);</text>
<text text-anchor="start" x="885" y="-453" font-family="Courier New" font-size="10.00" fill="blue"> &#160;&#160;&#160;ANIMATE(0,0);</text>
<polygon fill="none" stroke="black" points="879,-444 879,-512 1029,-512 1029,-444 879,-444"/>
</g>
<!-- 51&#45;&gt;21 -->
<g id="edge27" class="edge">
<title>51&#45;&gt;21</title>
<path fill="none" stroke="black" d="M431.1,-216.04C423.46,-206.75 415.09,-194.57 411,-182 406.56,-168.36 405.95,-152.45 406.61,-139.15"/>
<polygon fill="black" stroke="black" points="410.09,-139.56 407.37,-129.32 403.11,-139.02 410.09,-139.56"/>
<text text-anchor="start" x="415" y="-162" font-family="Courier New" font-weight="bold" font-size="10.00" fill="blue">PLAYWAVE(0,SOUND_EXPLODE)</text>
</g>
<!-- status -->
<g id="node20" class="node">
<title>status</title>
<polygon fill="none" stroke="black" points="863,-568.5 863,-644.5 1161,-644.5 1161,-568.5 863,-568.5"/>
<polygon fill="none" stroke="black" points="874,-619.5 874,-637.5 1150,-637.5 1150,-619.5 874,-619.5"/>
<text text-anchor="start" x="994" y="-626.5" font-family="Courier New" font-weight="bold" font-size="10.00">SOD_ID</text>
<polygon fill="none" stroke="black" points="874,-575.5 874,-617.5 1150,-617.5 1150,-575.5 874,-575.5"/>
<text text-anchor="start" x="877" y="-605.5" font-family="Courier New" font-size="10.00" fill="green">VIEW::IDV_OTHERID @pos(left:0, top:0)</text>
<text text-anchor="start" x="877" y="-593.5" font-family="Courier New" font-size="10.00" fill="green">SOD_ID::M_ID(&#39;OWISDOM&#39;,&#39;OSEX&#39;,&#39;0&#39;,&#39;SOD_AURA&#39;)</text>
<text text-anchor="start" x="877" y="-581.5" font-family="Courier New" font-size="10.00" fill="green">{&#39;0&#39;:</text>
<polygon fill="none" stroke="black" points="871,-572.5 871,-640.5 1153,-640.5 1153,-572.5 871,-572.5"/>
</g>
</g>
</svg>
