<?xml version="1.0" encoding="UTF-8" standalone="no"?>
<!DOCTYPE svg PUBLIC "-//W3C//DTD SVG 1.1//EN"
 "http://www.w3.org/Graphics/SVG/1.1/DTD/svg11.dtd">
<!-- Generated by graphviz version 7.1.0 (20230121.1956)
 -->
<!-- Title: Automaton Pages: 1 -->
<svg width="808pt" height="349pt"
 viewBox="0.00 0.00 807.50 349.00" xmlns="http://www.w3.org/2000/svg" xmlns:xlink="http://www.w3.org/1999/xlink">
<g id="graph0" class="graph" transform="scale(1 1) rotate(0) translate(4 345)">
<title>Automaton</title>
<polygon fill="white" stroke="none" points="-4,4 -4,-345 803.5,-345 803.5,4 -4,4"/>
<!-- filename -->
<g id="node1" class="node">
<title>filename</title>
<polygon fill="none" stroke="black" points="179.5,-276.5 179.5,-328.5 321.5,-328.5 321.5,-276.5 179.5,-276.5"/>
<polygon fill="none" stroke="black" points="190.5,-303.5 190.5,-321.5 310.5,-321.5 310.5,-303.5 190.5,-303.5"/>
<text text-anchor="start" x="193.5" y="-310.5" font-family="Courier New" font-weight="bold" font-size="10.00">sq_45_t::M19_SQUARE</text>
<polygon fill="none" stroke="black" points="190.5,-283.5 190.5,-301.5 310.5,-301.5 310.5,-283.5 190.5,-283.5"/>
<text text-anchor="start" x="205.5" y="-289.5" font-family="Courier New" font-size="10.00" fill="brown">start state = 0</text>
<polygon fill="none" stroke="black" points="187.5,-280.5 187.5,-324.5 313.5,-324.5 313.5,-280.5 187.5,-280.5"/>
</g>
<!-- 0 -->
<g id="node2" class="node">
<title>0</title>
<polyline fill="none" stroke="darkred" points="359.5,-291.5 373.5,-291.5"/>
<text text-anchor="start" x="362.5" y="-298.9" font-family="Courier New" font-weight="bold" font-size="14.00">0</text>
<path fill="none" stroke="darkred" d="M363.17,-288.5C363.17,-288.5 369.84,-288.5 369.84,-288.5 373.17,-288.5 376.5,-291.83 376.5,-295.17 376.5,-295.17 376.5,-309.83 376.5,-309.83 376.5,-313.17 373.17,-316.5 369.84,-316.5 369.84,-316.5 363.17,-316.5 363.17,-316.5 359.84,-316.5 356.5,-313.17 356.5,-309.83 356.5,-309.83 356.5,-295.17 356.5,-295.17 356.5,-291.83 359.84,-288.5 363.17,-288.5"/>
</g>
<!-- squareempty -->
<g id="node3" class="node">
<title>squareempty</title>
<polyline fill="none" stroke="darkred" points="218.5,-155 316.5,-155"/>
<text text-anchor="start" x="221.5" y="-162.4" font-family="Courier New" font-weight="bold" font-size="14.00">squareempty</text>
<path fill="none" stroke="darkred" d="M224.84,-152C224.84,-152 310.17,-152 310.17,-152 314.84,-152 319.5,-156.67 319.5,-161.33 319.5,-161.33 319.5,-170.67 319.5,-170.67 319.5,-175.33 314.84,-180 310.17,-180 310.17,-180 224.84,-180 224.84,-180 220.17,-180 215.5,-175.33 215.5,-170.67 215.5,-170.67 215.5,-161.33 215.5,-161.33 215.5,-156.67 220.17,-152 224.84,-152"/>
</g>
<!-- 0&#45;&gt;squareempty -->
<g id="edge1" class="edge">
<title>0&#45;&gt;squareempty</title>
<path fill="none" stroke="black" d="M354.09,-284.86C347.78,-277.48 339.54,-269.28 330.5,-264 302.77,-247.8 280.19,-271.39 260.5,-246 249.33,-231.59 251.59,-210.95 256.38,-194.38"/>
<polygon fill="black" stroke="black" points="259.62,-195.71 259.48,-185.12 252.98,-193.49 259.62,-195.71"/>
<polygon fill="none" stroke="black" points="263.5,-225 263.5,-243 455.5,-243 455.5,-225 263.5,-225"/>
<text text-anchor="start" x="287.49" y="-232" font-family="Courier New" font-weight="bold" font-size="10.00" fill="blue">C_ACCEPT(,ISA_PLAYTOKEN)</text>
<polygon fill="none" stroke="black" points="263.5,-205 263.5,-223 455.5,-223 455.5,-205 263.5,-205"/>
<text text-anchor="start" x="266.5" y="-211" font-family="Courier New" font-size="10.00" fill="blue">ASSIGN(BPARM,0);CLEAR(WOBJECT);</text>
<polygon fill="none" stroke="black" points="260.5,-202 260.5,-246 458.5,-246 458.5,-202 260.5,-202"/>
</g>
<!-- resetting -->
<g id="node4" class="node">
<title>resetting</title>
<polyline fill="none" stroke="darkred" points="371.5,-11 452.5,-11"/>
<text text-anchor="start" x="374.5" y="-18.4" font-family="Courier New" font-weight="bold" font-size="14.00">resetting</text>
<path fill="none" stroke="darkred" d="M377.34,-8C377.34,-8 445.67,-8 445.67,-8 450.34,-8 455,-12.67 455,-17.33 455,-17.33 455,-26.67 455,-26.67 455,-31.33 450.34,-36 445.67,-36 445.67,-36 377.34,-36 377.34,-36 372.67,-36 368,-31.33 368,-26.67 368,-26.67 368,-17.33 368,-17.33 368,-12.67 372.67,-8 377.34,-8"/>
</g>
<!-- squareempty&#45;&gt;resetting -->
<g id="edge4" class="edge">
<title>squareempty&#45;&gt;resetting</title>
<path fill="none" stroke="black" d="M304.29,-148.15C312.37,-143.17 320.35,-137.12 326.5,-130 347.88,-105.28 333.93,-87.4 354.5,-62 359.06,-56.37 364.64,-51.23 370.5,-46.66"/>
<polygon fill="black" stroke="black" points="372.53,-49.51 378.61,-40.84 368.45,-43.82 372.53,-49.51"/>
<text text-anchor="start" x="358.5" y="-94" font-family="Courier New" font-weight="bold" font-size="10.00" fill="orange">WAIT(,SIG_RESET)</text>
</g>
<!-- squareholding -->
<g id="node5" class="node">
<title>squareholding</title>
<polyline fill="none" stroke="darkred" stroke-width="3" points="114,-10.5 230,-10.5"/>
<text text-anchor="start" x="117.5" y="-18.4" font-family="Courier New" font-weight="bold" font-size="14.00">squareholding</text>
<path fill="none" stroke="darkred" stroke-width="3" d="M119.5,-5.5C119.5,-5.5 223.5,-5.5 223.5,-5.5 229,-5.5 234.5,-11 234.5,-16.5 234.5,-16.5 234.5,-27.5 234.5,-27.5 234.5,-33 229,-38.5 223.5,-38.5 223.5,-38.5 119.5,-38.5 119.5,-38.5 114,-38.5 108.5,-33 108.5,-27.5 108.5,-27.5 108.5,-16.5 108.5,-16.5 108.5,-11 114,-5.5 119.5,-5.5"/>
</g>
<!-- squareempty&#45;&gt;squareholding -->
<g id="edge3" class="edge">
<title>squareempty&#45;&gt;squareholding</title>
<path fill="none" stroke="black" d="M207.64,-165.4C140.89,-164.42 39.04,-158.17 14.5,-130 -5.35,-107.21 -4.11,-85.81 14.5,-62 24.26,-49.53 55.88,-40.48 88.21,-34.25"/>
<polygon fill="black" stroke="black" points="88.47,-37.76 97.68,-32.52 87.21,-30.88 88.47,-37.76"/>
<polygon fill="none" stroke="black" points="17.5,-109 17.5,-127 245.5,-127 245.5,-109 17.5,-109"/>
<text text-anchor="start" x="110.5" y="-116" font-family="Courier New" font-weight="bold" font-size="10.00" fill="orange">DROP(,)</text>
<polygon fill="none" stroke="black" points="17.5,-65 17.5,-107 245.5,-107 245.5,-65 17.5,-65"/>
<text text-anchor="start" x="20.5" y="-95" font-family="Courier New" font-size="10.00" fill="blue"> &#160;&#160;&#160;SHOW(WOBJECT);</text>
<text text-anchor="start" x="20.5" y="-83" font-family="Courier New" font-size="10.00" fill="blue"> &#160;&#160;&#160;MOV(BPARM,WOBJECT);</text>
<text text-anchor="start" x="20.5" y="-71" font-family="Courier New" font-size="10.00" fill="blue"> &#160;&#160;&#160;SIGNALi(WIP2,S19_PLAYERWATCHER); </text>
<polygon fill="none" stroke="black" points="14.5,-62 14.5,-130 248.5,-130 248.5,-62 14.5,-62"/>
</g>
<!-- resetting&#45;&gt;0 -->
<g id="edge2" class="edge">
<title>resetting&#45;&gt;0</title>
<path fill="none" stroke="black" d="M439.55,-39.64C447.12,-45.65 454.36,-53.17 458.5,-62 493.27,-136.02 506.68,-179.92 458.5,-246 443.1,-267.13 424.68,-250.15 402.5,-264 397.05,-267.41 391.84,-271.82 387.17,-276.42"/>
<polygon fill="black" stroke="black" points="384.71,-273.92 380.43,-283.61 389.82,-278.71 384.71,-273.92"/>
<text text-anchor="start" x="493.5" y="-164" font-family="Courier New" font-weight="bold" font-size="10.00" fill="blue">Z_EPSILON(,)</text>
</g>
<!-- squareholding&#45;&gt;squareempty -->
<g id="edge5" class="edge">
<title>squareholding&#45;&gt;squareempty</title>
<path fill="none" stroke="black" d="M228.33,-43.92C236.03,-48.83 243.12,-54.8 248.5,-62 264.58,-83.5 268.44,-114.46 268.82,-136.82"/>
<polygon fill="black" stroke="black" points="265.32,-136.7 268.74,-146.73 272.32,-136.76 265.32,-136.7"/>
<polygon fill="none" stroke="black" points="271.5,-97 271.5,-115 319.5,-115 319.5,-97 271.5,-97"/>
<text text-anchor="start" x="274.5" y="-104" font-family="Courier New" font-weight="bold" font-size="10.00" fill="orange">GRAB(,)</text>
<polygon fill="none" stroke="black" points="271.5,-77 271.5,-95 319.5,-95 319.5,-77 271.5,-77"/>
<text text-anchor="start" x="274.5" y="-83" font-family="Courier New" font-size="10.00" fill="blue">SHOW();</text>
<polygon fill="none" stroke="black" points="268.5,-74 268.5,-118 322.5,-118 322.5,-74 268.5,-74"/>
</g>
<!-- status -->
<g id="node6" class="node">
<title>status</title>
<polygon fill="none" stroke="black" points="411.5,-264.5 411.5,-340.5 799.5,-340.5 799.5,-264.5 411.5,-264.5"/>
<polygon fill="none" stroke="black" points="422.5,-315.5 422.5,-333.5 788.5,-333.5 788.5,-315.5 422.5,-315.5"/>
<text text-anchor="start" x="584.5" y="-322.5" font-family="Courier New" font-weight="bold" font-size="10.00">sq_45_t</text>
<polygon fill="none" stroke="black" points="422.5,-271.5 422.5,-313.5 788.5,-313.5 788.5,-271.5 422.5,-271.5"/>
<text text-anchor="start" x="425.5" y="-301.5" font-family="Courier New" font-size="10.00" fill="green">VIEW::IDV_RACEPAN @pos(left:386, top:163)</text>
<text text-anchor="start" x="425.5" y="-289.5" font-family="Courier New" font-size="10.00" fill="green">sq_45_t::M19_SQUARE(&#39;&#39;,&#39;SIG_45T&#39;,&#39;&#39;,&#39;&#39;)</text>
<text text-anchor="start" x="425.5" y="-277.5" font-family="Courier New" font-size="10.00" fill="green">{&#39;squareholding&#39;: wObject:IDD_PLAYER_W wAccept:ISA_PLAYTOKEN</text>
<polygon fill="none" stroke="black" points="419.5,-268.5 419.5,-336.5 791.5,-336.5 791.5,-268.5 419.5,-268.5"/>
</g>
</g>
</svg>
