<?xml version="1.0" encoding="UTF-8" standalone="no"?>
<!DOCTYPE svg PUBLIC "-//W3C//DTD SVG 1.1//EN"
 "http://www.w3.org/Graphics/SVG/1.1/DTD/svg11.dtd">
<!-- Generated by graphviz version 7.1.0 (20230121.1956)
 -->
<!-- Title: Automaton Pages: 1 -->
<svg width="562pt" height="449pt"
 viewBox="0.00 0.00 562.00 449.00" xmlns="http://www.w3.org/2000/svg" xmlns:xlink="http://www.w3.org/1999/xlink">
<g id="graph0" class="graph" transform="scale(1 1) rotate(0) translate(4 445)">
<title>Automaton</title>
<polygon fill="white" stroke="none" points="-4,4 -4,-445 558,-445 558,4 -4,4"/>
<!-- filename -->
<g id="node1" class="node">
<title>filename</title>
<polygon fill="none" stroke="black" points="0,-376.5 0,-428.5 178,-428.5 178,-376.5 0,-376.5"/>
<polygon fill="none" stroke="black" points="11,-403.5 11,-421.5 167,-421.5 167,-403.5 11,-403.5"/>
<text text-anchor="start" x="14" y="-410.5" font-family="Courier New" font-weight="bold" font-size="10.00">SXX_BUTTON::m_test_button</text>
<polygon fill="none" stroke="black" points="11,-383.5 11,-401.5 167,-401.5 167,-383.5 11,-383.5"/>
<text text-anchor="start" x="43.99" y="-389.5" font-family="Courier New" font-size="10.00" fill="brown">start state = 0</text>
<polygon fill="none" stroke="black" points="8,-380.5 8,-424.5 170,-424.5 170,-380.5 8,-380.5"/>
</g>
<!-- 0 -->
<g id="node2" class="node">
<title>0</title>
<polyline fill="none" stroke="darkred" points="216,-391.5 230,-391.5"/>
<text text-anchor="start" x="219" y="-398.9" font-family="Courier New" font-weight="bold" font-size="14.00">0</text>
<path fill="none" stroke="darkred" d="M219.67,-388.5C219.67,-388.5 226.33,-388.5 226.33,-388.5 229.67,-388.5 233,-391.83 233,-395.17 233,-395.17 233,-409.83 233,-409.83 233,-413.17 229.67,-416.5 226.33,-416.5 226.33,-416.5 219.67,-416.5 219.67,-416.5 216.33,-416.5 213,-413.17 213,-409.83 213,-409.83 213,-395.17 213,-395.17 213,-391.83 216.33,-388.5 219.67,-388.5"/>
</g>
<!-- a -->
<g id="node3" class="node">
<title>a</title>
<polyline fill="none" stroke="darkred" points="216,-255 230,-255"/>
<text text-anchor="start" x="219" y="-262.4" font-family="Courier New" font-weight="bold" font-size="14.00">a</text>
<path fill="none" stroke="darkred" d="M219.67,-252C219.67,-252 226.33,-252 226.33,-252 229.67,-252 233,-255.33 233,-258.67 233,-258.67 233,-273.33 233,-273.33 233,-276.67 229.67,-280 226.33,-280 226.33,-280 219.67,-280 219.67,-280 216.33,-280 213,-276.67 213,-273.33 213,-273.33 213,-258.67 213,-258.67 213,-255.33 216.33,-252 219.67,-252"/>
</g>
<!-- 0&#45;&gt;a -->
<g id="edge1" class="edge">
<title>0&#45;&gt;a</title>
<path fill="none" stroke="black" d="M223,-384.74C223,-362.39 223,-322.5 223,-295.41"/>
<polygon fill="black" stroke="black" points="226.5,-295.49 223,-285.49 219.5,-295.49 226.5,-295.49"/>
<polygon fill="none" stroke="black" points="226,-325 226,-343 550,-343 550,-325 226,-325"/>
<text text-anchor="start" x="351.99" y="-332" font-family="Courier New" font-weight="bold" font-size="10.00" fill="blue">Z_EPSILON(,)</text>
<polygon fill="none" stroke="black" points="226,-305 226,-323 550,-323 550,-305 226,-305"/>
<text text-anchor="start" x="229" y="-311" font-family="Courier New" font-size="10.00" fill="blue">SHOW(IDS_BTN_OK);SETTEXT(ID_MYLABEL, &quot;startup text&quot;);</text>
<polygon fill="none" stroke="black" points="223,-302 223,-346 553,-346 553,-302 223,-302"/>
</g>
<!-- b -->
<g id="node4" class="node">
<title>b</title>
<polyline fill="none" stroke="darkred" points="134,-135 148,-135"/>
<text text-anchor="start" x="137" y="-142.4" font-family="Courier New" font-weight="bold" font-size="14.00">b</text>
<path fill="none" stroke="darkred" d="M137.67,-132C137.67,-132 144.33,-132 144.33,-132 147.67,-132 151,-135.33 151,-138.67 151,-138.67 151,-153.33 151,-153.33 151,-156.67 147.67,-160 144.33,-160 144.33,-160 137.67,-160 137.67,-160 134.33,-160 131,-156.67 131,-153.33 131,-153.33 131,-138.67 131,-138.67 131,-135.33 134.33,-132 137.67,-132"/>
</g>
<!-- a&#45;&gt;b -->
<g id="edge2" class="edge">
<title>a&#45;&gt;b</title>
<path fill="none" stroke="black" d="M196.29,-261.13C177.66,-256.89 154.06,-248.11 142,-230 131.36,-214.02 131.52,-192.19 134.13,-174.92"/>
<polygon fill="black" stroke="black" points="137.53,-175.79 135.94,-165.32 130.65,-174.5 137.53,-175.79"/>
<polygon fill="none" stroke="black" points="145,-209 145,-227 289,-227 289,-209 145,-209"/>
<text text-anchor="start" x="193" y="-216" font-family="Courier New" font-weight="bold" font-size="10.00" fill="orange">CLICK(,)</text>
<polygon fill="none" stroke="black" points="145,-189 145,-207 289,-207 289,-189 145,-189"/>
<text text-anchor="start" x="148" y="-195" font-family="Courier New" font-size="10.00" fill="blue">SIGNAL(SXX_WAITER,&quot;A&quot;);</text>
<polygon fill="none" stroke="black" points="142,-186 142,-230 292,-230 292,-186 142,-186"/>
</g>
<!-- c -->
<g id="node5" class="node">
<title>c</title>
<polyline fill="none" stroke="darkred" stroke-width="3" points="215.5,-10.5 230.5,-10.5"/>
<text text-anchor="start" x="219" y="-18.4" font-family="Courier New" font-weight="bold" font-size="14.00">c</text>
<path fill="none" stroke="darkred" stroke-width="3" d="M218.83,-5.5C218.83,-5.5 227.17,-5.5 227.17,-5.5 231.33,-5.5 235.5,-9.67 235.5,-13.83 235.5,-13.83 235.5,-30.17 235.5,-30.17 235.5,-34.33 231.33,-38.5 227.17,-38.5 227.17,-38.5 218.83,-38.5 218.83,-38.5 214.67,-38.5 210.5,-34.33 210.5,-30.17 210.5,-30.17 210.5,-13.83 210.5,-13.83 210.5,-9.67 214.67,-5.5 218.83,-5.5"/>
</g>
<!-- b&#45;&gt;c -->
<g id="edge3" class="edge">
<title>b&#45;&gt;c</title>
<path fill="none" stroke="black" d="M136.38,-128.27C132.47,-110.39 129.31,-81.93 142,-62 151.67,-46.81 169.08,-37.39 185.28,-31.63"/>
<polygon fill="black" stroke="black" points="186.27,-34.99 194.76,-28.65 184.17,-28.31 186.27,-34.99"/>
<polygon fill="none" stroke="black" points="145,-85 145,-103 289,-103 289,-85 145,-85"/>
<text text-anchor="start" x="193" y="-92" font-family="Courier New" font-weight="bold" font-size="10.00" fill="orange">CLICK(,)</text>
<polygon fill="none" stroke="black" points="145,-65 145,-83 289,-83 289,-65 145,-65"/>
<text text-anchor="start" x="148" y="-71" font-family="Courier New" font-size="10.00" fill="blue">SIGNAL(SXX_WAITER,&quot;B&quot;);</text>
<polygon fill="none" stroke="black" points="142,-62 142,-106 292,-106 292,-62 142,-62"/>
</g>
<!-- c&#45;&gt;a -->
<g id="edge4" class="edge">
<title>c&#45;&gt;a</title>
<path fill="none" stroke="black" d="M249.79,-30.68C265.06,-36.58 282.92,-46.43 292,-62 329.63,-126.49 331.07,-166.37 292,-230 284.88,-241.6 272.59,-249.5 260.33,-254.81"/>
<polygon fill="black" stroke="black" points="259.23,-251.49 251.12,-258.3 261.71,-258.03 259.23,-251.49"/>
<polygon fill="none" stroke="black" points="323,-147 323,-165 467,-165 467,-147 323,-147"/>
<text text-anchor="start" x="371" y="-154" font-family="Courier New" font-weight="bold" font-size="10.00" fill="orange">CLICK(,)</text>
<polygon fill="none" stroke="black" points="323,-127 323,-145 467,-145 467,-127 323,-127"/>
<text text-anchor="start" x="326" y="-133" font-family="Courier New" font-size="10.00" fill="blue">SIGNAL(SXX_WAITER,&quot;C&quot;);</text>
<polygon fill="none" stroke="black" points="320,-124 320,-168 470,-168 470,-124 320,-124"/>
</g>
<!-- status -->
<g id="node6" class="node">
<title>status</title>
<polygon fill="none" stroke="black" points="268,-364.5 268,-440.5 554,-440.5 554,-364.5 268,-364.5"/>
<polygon fill="none" stroke="black" points="279,-415.5 279,-433.5 543,-433.5 543,-415.5 279,-415.5"/>
<text text-anchor="start" x="381" y="-422.5" font-family="Courier New" font-weight="bold" font-size="10.00">SXX_BUTTON</text>
<polygon fill="none" stroke="black" points="279,-371.5 279,-413.5 543,-413.5 543,-371.5 279,-371.5"/>
<text text-anchor="start" x="282" y="-401.5" font-family="Courier New" font-size="10.00" fill="green">VIEW::IDV_MEFLINTEXT @pos(left:30, top:120)</text>
<text text-anchor="start" x="282" y="-389.5" font-family="Courier New" font-size="10.00" fill="green">SXX_BUTTON::m_test_button(&#39;&#39;,&#39;&#39;,&#39;&#39;,&#39;&#39;)</text>
<text text-anchor="start" x="282" y="-377.5" font-family="Courier New" font-size="10.00" fill="green">{state:&#39;c&#39;: wSprite:IDS_BTN_OK</text>
<polygon fill="none" stroke="black" points="276,-368.5 276,-436.5 546,-436.5 546,-368.5 276,-368.5"/>
</g>
</g>
</svg>
