<?xml version="1.0" encoding="UTF-8" standalone="no"?>
<!DOCTYPE svg PUBLIC "-//W3C//DTD SVG 1.1//EN"
 "http://www.w3.org/Graphics/SVG/1.1/DTD/svg11.dtd">
<!-- Generated by graphviz version 7.1.0 (20230121.1956)
 -->
<!-- Title: Automaton Pages: 1 -->
<svg width="358pt" height="85pt"
 viewBox="0.00 0.00 358.00 85.00" xmlns="http://www.w3.org/2000/svg" xmlns:xlink="http://www.w3.org/1999/xlink">
<g id="graph0" class="graph" transform="scale(1 1) rotate(0) translate(4 81)">
<title>Automaton</title>
<polygon fill="white" stroke="none" points="-4,4 -4,-81 354,-81 354,4 -4,4"/>
<!-- filename -->
<g id="node1" class="node">
<title>filename</title>
<polygon fill="none" stroke="black" points="0,-12.5 0,-64.5 118,-64.5 118,-12.5 0,-12.5"/>
<polygon fill="none" stroke="black" points="11,-39.5 11,-57.5 107,-57.5 107,-39.5 11,-39.5"/>
<text text-anchor="start" x="25.99" y="-46.5" font-family="Courier New" font-weight="bold" font-size="10.00">THE_EARTH::</text>
<polygon fill="none" stroke="black" points="11,-19.5 11,-37.5 107,-37.5 107,-19.5 11,-19.5"/>
<text text-anchor="start" x="14" y="-25.5" font-family="Courier New" font-size="10.00" fill="brown">start state = 0</text>
<polygon fill="none" stroke="black" points="8,-16.5 8,-60.5 110,-60.5 110,-16.5 8,-16.5"/>
</g>
<!-- status -->
<g id="node2" class="node">
<title>status</title>
<polygon fill="none" stroke="black" points="136,-0.5 136,-76.5 350,-76.5 350,-0.5 136,-0.5"/>
<polygon fill="none" stroke="black" points="147,-51.5 147,-69.5 339,-69.5 339,-51.5 147,-51.5"/>
<text text-anchor="start" x="216" y="-58.5" font-family="Courier New" font-weight="bold" font-size="10.00">THE_EARTH</text>
<polygon fill="none" stroke="black" points="147,-7.5 147,-49.5 339,-49.5 339,-7.5 147,-7.5"/>
<text text-anchor="start" x="150" y="-37.5" font-family="Courier New" font-size="10.00" fill="green">VIEW::IDV_ID</text>
<text text-anchor="start" x="150" y="-25.5" font-family="Courier New" font-size="10.00" fill="green">THE_EARTH::M_EARTH(&#39;&#39;,&#39;&#39;,&#39;&#39;,&#39;&#39;)</text>
<text text-anchor="start" x="150" y="-13.5" font-family="Courier New" font-size="10.00" fill="green">{&#39;0&#39;:</text>
<polygon fill="none" stroke="black" points="144,-4.5 144,-72.5 342,-72.5 342,-4.5 144,-4.5"/>
</g>
</g>
</svg>
