<?xml version="1.0" encoding="UTF-8" standalone="no"?>
<!DOCTYPE svg PUBLIC "-//W3C//DTD SVG 1.1//EN"
 "http://www.w3.org/Graphics/SVG/1.1/DTD/svg11.dtd">
<!-- Generated by graphviz version 8.0.1 (20230327.1645)
 -->
<!-- Pages: 1 -->
<svg width="652pt" height="499pt"
 viewBox="0.00 0.00 652.00 499.00" xmlns="http://www.w3.org/2000/svg" xmlns:xlink="http://www.w3.org/1999/xlink">
<g id="graph0" class="graph" transform="scale(1 1) rotate(0) translate(4 495)">
<polygon fill="white" stroke="none" points="-4,4 -4,-495 648,-495 648,4 -4,4"/>
<!-- 3 -->
<g id="node1" class="node">
<title>3</title>
<ellipse fill="none" stroke="black" cx="137" cy="-473" rx="27" ry="18"/>
<text text-anchor="middle" x="137" y="-469.3" font-family="Times,serif" font-size="14.00">3</text>
</g>
<!-- 4 -->
<g id="node2" class="node">
<title>4</title>
<ellipse fill="none" stroke="black" cx="137" cy="-382" rx="27" ry="18"/>
<text text-anchor="middle" x="137" y="-378.3" font-family="Times,serif" font-size="14.00">4</text>
</g>
<!-- 3&#45;&gt;4 -->
<g id="edge1" class="edge">
<title>3&#45;&gt;4</title>
<path fill="none" stroke="black" d="M137,-454.84C137,-442.48 137,-425.54 137,-411.21"/>
<polygon fill="black" stroke="black" points="140.5,-411.41 137,-401.41 133.5,-411.41 140.5,-411.41"/>
<text text-anchor="start" x="141" y="-426" font-family="Courier New" font-weight="bold" font-size="10.00" fill="blue">ASSIGN(WSPRITE,0x0270)</text>
</g>
<!-- 5 -->
<g id="node10" class="node">
<title>5</title>
<ellipse fill="none" stroke="black" cx="137" cy="-291" rx="27" ry="18"/>
<text text-anchor="middle" x="137" y="-287.3" font-family="Times,serif" font-size="14.00">5</text>
</g>
<!-- 4&#45;&gt;5 -->
<g id="edge9" class="edge">
<title>4&#45;&gt;5</title>
<path fill="none" stroke="black" d="M137,-363.84C137,-351.48 137,-334.54 137,-320.21"/>
<polygon fill="black" stroke="black" points="140.5,-320.41 137,-310.41 133.5,-320.41 140.5,-320.41"/>
<text text-anchor="start" x="141" y="-335" font-family="Courier New" font-weight="bold" font-size="10.00" fill="blue">ASSIGN(WPARM,10)</text>
</g>
<!-- 32 -->
<g id="node3" class="node">
<title>32</title>
<ellipse fill="none" stroke="black" cx="419" cy="-473" rx="27" ry="18"/>
<text text-anchor="middle" x="419" y="-469.3" font-family="Times,serif" font-size="14.00">32</text>
</g>
<!-- 33 -->
<g id="node4" class="node">
<title>33</title>
<ellipse fill="none" stroke="black" cx="419" cy="-382" rx="27" ry="18"/>
<text text-anchor="middle" x="419" y="-378.3" font-family="Times,serif" font-size="14.00">33</text>
</g>
<!-- 32&#45;&gt;33 -->
<g id="edge2" class="edge">
<title>32&#45;&gt;33</title>
<path fill="none" stroke="black" d="M419,-454.84C419,-442.48 419,-425.54 419,-411.21"/>
<polygon fill="black" stroke="black" points="422.5,-411.41 419,-401.41 415.5,-411.41 422.5,-411.41"/>
<text text-anchor="start" x="423" y="-426" font-family="Courier New" font-weight="bold" font-size="10.00" fill="blue">ASSIGN(WSPRITE,0x0279)</text>
</g>
<!-- 34 -->
<g id="node5" class="node">
<title>34</title>
<ellipse fill="none" stroke="black" cx="419" cy="-291" rx="27" ry="18"/>
<text text-anchor="middle" x="419" y="-287.3" font-family="Times,serif" font-size="14.00">34</text>
</g>
<!-- 33&#45;&gt;34 -->
<g id="edge3" class="edge">
<title>33&#45;&gt;34</title>
<path fill="none" stroke="black" d="M419,-363.84C419,-351.48 419,-334.54 419,-320.21"/>
<polygon fill="black" stroke="black" points="422.5,-320.41 419,-310.41 415.5,-320.41 422.5,-320.41"/>
<text text-anchor="start" x="423" y="-335" font-family="Courier New" font-weight="bold" font-size="10.00" fill="blue">ASSIGN(WPARM,10)</text>
</g>
<!-- 40 -->
<g id="node6" class="node">
<title>40</title>
<ellipse fill="none" stroke="black" cx="309" cy="-200" rx="27" ry="18"/>
<text text-anchor="middle" x="309" y="-196.3" font-family="Times,serif" font-size="14.00">40</text>
</g>
<!-- 34&#45;&gt;40 -->
<g id="edge4" class="edge">
<title>34&#45;&gt;40</title>
<path fill="none" stroke="black" d="M392.32,-286.63C371.26,-282.59 342.59,-273.84 325,-255 318.41,-247.94 314.52,-238.28 312.23,-229.09"/>
<polygon fill="black" stroke="black" points="315.48,-228.46 310.16,-219.3 308.61,-229.78 315.48,-228.46"/>
<text text-anchor="start" x="329" y="-244" font-family="Courier New" font-weight="bold" font-size="10.00" fill="blue">LTEi(WPARM,0)</text>
</g>
<!-- 35 -->
<g id="node7" class="node">
<title>35</title>
<ellipse fill="none" stroke="black" cx="415" cy="-200" rx="27" ry="18"/>
<text text-anchor="middle" x="415" y="-196.3" font-family="Times,serif" font-size="14.00">35</text>
</g>
<!-- 34&#45;&gt;35 -->
<g id="edge5" class="edge">
<title>34&#45;&gt;35</title>
<path fill="none" stroke="black" d="M418.23,-272.84C417.67,-260.48 416.91,-243.54 416.27,-229.21"/>
<polygon fill="black" stroke="black" points="419.73,-229.24 415.78,-219.41 412.74,-229.56 419.73,-229.24"/>
<text text-anchor="start" x="421" y="-244" font-family="Courier New" font-weight="bold" font-size="10.00" fill="blue">SHOW(WSPRITE,0)</text>
</g>
<!-- 36 -->
<g id="node8" class="node">
<title>36</title>
<ellipse fill="none" stroke="black" cx="415" cy="-109" rx="27" ry="18"/>
<text text-anchor="middle" x="415" y="-105.3" font-family="Times,serif" font-size="14.00">36</text>
</g>
<!-- 35&#45;&gt;36 -->
<g id="edge6" class="edge">
<title>35&#45;&gt;36</title>
<path fill="none" stroke="black" d="M413.81,-181.56C413.48,-175.96 413.16,-169.72 413,-164 412.76,-155.56 412.76,-153.44 413,-145 413.06,-142.86 413.14,-140.64 413.24,-138.41"/>
<polygon fill="black" stroke="black" points="416.79,-138.61 413.81,-128.44 409.8,-138.24 416.79,-138.61"/>
<text text-anchor="start" x="417" y="-153" font-family="Courier New" font-weight="bold" font-size="10.00" fill="blue">EMTIME(0,1000/1)</text>
</g>
<!-- 37 -->
<g id="node9" class="node">
<title>37</title>
<ellipse fill="none" stroke="black" cx="482" cy="-18" rx="27" ry="18"/>
<text text-anchor="middle" x="482" y="-14.3" font-family="Times,serif" font-size="14.00">37</text>
</g>
<!-- 36&#45;&gt;37 -->
<g id="edge7" class="edge">
<title>36&#45;&gt;37</title>
<path fill="none" stroke="black" d="M415.5,-90.58C416.58,-79.27 419.5,-64.7 427,-54 432.81,-45.72 441.26,-38.95 449.81,-33.65"/>
<polygon fill="black" stroke="black" points="451.35,-36.24 458.36,-28.29 447.93,-30.14 451.35,-36.24"/>
<text text-anchor="start" x="431" y="-62" font-family="Courier New" font-weight="bold" font-size="10.00" fill="blue">SUBI(WSPRITE,1)</text>
</g>
<!-- 37&#45;&gt;34 -->
<g id="edge8" class="edge">
<title>37&#45;&gt;34</title>
<path fill="none" stroke="black" d="M502.67,-29.8C511.59,-35.66 521.08,-43.8 526,-54 564.83,-134.5 573.02,-183.05 520,-255 505.5,-274.68 479.17,-283.38 457.03,-287.18"/>
<polygon fill="black" stroke="black" points="456.66,-283.84 447.25,-288.72 457.64,-290.77 456.66,-283.84"/>
<text text-anchor="start" x="561" y="-153" font-family="Courier New" font-weight="bold" font-size="10.00" fill="blue">SUBI(WPARM,1)</text>
</g>
<!-- 20 -->
<g id="node11" class="node">
<title>20</title>
<ellipse fill="none" stroke="black" cx="27" cy="-200" rx="27" ry="18"/>
<text text-anchor="middle" x="27" y="-196.3" font-family="Times,serif" font-size="14.00">20</text>
</g>
<!-- 5&#45;&gt;20 -->
<g id="edge10" class="edge">
<title>5&#45;&gt;20</title>
<path fill="none" stroke="black" d="M110.68,-286.47C89.89,-282.34 61.55,-273.54 44,-255 37.25,-247.87 33.18,-238.08 30.72,-228.79"/>
<polygon fill="black" stroke="black" points="34,-228.38 28.52,-219.31 27.15,-229.82 34,-228.38"/>
<text text-anchor="start" x="48" y="-244" font-family="Courier New" font-weight="bold" font-size="10.00" fill="blue">LTEi(WPARM,0)</text>
</g>
<!-- 6 -->
<g id="node12" class="node">
<title>6</title>
<ellipse fill="none" stroke="black" cx="133" cy="-200" rx="27" ry="18"/>
<text text-anchor="middle" x="133" y="-196.3" font-family="Times,serif" font-size="14.00">6</text>
</g>
<!-- 5&#45;&gt;6 -->
<g id="edge11" class="edge">
<title>5&#45;&gt;6</title>
<path fill="none" stroke="black" d="M136.23,-272.84C135.67,-260.48 134.91,-243.54 134.27,-229.21"/>
<polygon fill="black" stroke="black" points="137.73,-229.24 133.78,-219.41 130.74,-229.56 137.73,-229.24"/>
<text text-anchor="start" x="140" y="-244" font-family="Courier New" font-weight="bold" font-size="10.00" fill="blue">SHOW(WSPRITE,0)</text>
</g>
<!-- 7 -->
<g id="node13" class="node">
<title>7</title>
<ellipse fill="none" stroke="black" cx="130" cy="-109" rx="27" ry="18"/>
<text text-anchor="middle" x="130" y="-105.3" font-family="Times,serif" font-size="14.00">7</text>
</g>
<!-- 6&#45;&gt;7 -->
<g id="edge12" class="edge">
<title>6&#45;&gt;7</title>
<path fill="none" stroke="black" d="M129.49,-181.98C128.47,-176.29 127.5,-169.9 127,-164 126.28,-155.51 126.44,-146.25 126.96,-137.84"/>
<polygon fill="black" stroke="black" points="130.52,-138.29 127.83,-128.04 123.54,-137.73 130.52,-138.29"/>
<text text-anchor="start" x="131" y="-153" font-family="Courier New" font-weight="bold" font-size="10.00" fill="blue">EMTIME(0,1000/1)</text>
</g>
<!-- 8 -->
<g id="node14" class="node">
<title>8</title>
<ellipse fill="none" stroke="black" cx="197" cy="-18" rx="27" ry="18"/>
<text text-anchor="middle" x="197" y="-14.3" font-family="Times,serif" font-size="14.00">8</text>
</g>
<!-- 7&#45;&gt;8 -->
<g id="edge13" class="edge">
<title>7&#45;&gt;8</title>
<path fill="none" stroke="black" d="M130.1,-90.57C130.94,-79.26 133.58,-64.69 141,-54 146.95,-45.42 155.75,-38.52 164.63,-33.18"/>
<polygon fill="black" stroke="black" points="166.04,-35.86 173.15,-28 162.69,-29.71 166.04,-35.86"/>
<text text-anchor="start" x="145" y="-62" font-family="Courier New" font-weight="bold" font-size="10.00" fill="blue">ADDI(WSPRITE,1)</text>
</g>
<!-- 8&#45;&gt;5 -->
<g id="edge14" class="edge">
<title>8&#45;&gt;5</title>
<path fill="none" stroke="black" d="M217.21,-29.91C225.93,-35.78 235.21,-43.92 240,-54 278.36,-134.68 291.12,-182.44 239,-255 224.45,-275.25 197.43,-283.91 174.85,-287.55"/>
<polygon fill="black" stroke="black" points="174.65,-284.18 165.2,-288.96 175.57,-291.12 174.65,-284.18"/>
<text text-anchor="start" x="277" y="-153" font-family="Courier New" font-weight="bold" font-size="10.00" fill="blue">SUBI(WPARM,1)</text>
</g>
</g>
</svg>
