<?xml version="1.0" encoding="UTF-8" standalone="no"?>
<!DOCTYPE svg PUBLIC "-//W3C//DTD SVG 1.1//EN"
 "http://www.w3.org/Graphics/SVG/1.1/DTD/svg11.dtd">
<!-- Generated by graphviz version 10.0.1 (20240210.2158)
 -->
<!-- Title: Automaton Pages: 1 -->
<svg width="946pt" height="490pt"
 viewBox="0.00 0.00 946.48 489.75" xmlns="http://www.w3.org/2000/svg" xmlns:xlink="http://www.w3.org/1999/xlink">
<g id="graph0" class="graph" transform="scale(1 1) rotate(0) translate(4 485.75)">
<title>Automaton</title>
<polygon fill="white" stroke="none" points="-4,4 -4,-485.75 942.48,-485.75 942.48,4 -4,4"/>
<!-- filename -->
<g id="node1" class="node">
<title>filename</title>
<polygon fill="none" stroke="black" points="288.48,-415 288.48,-468.5 514.48,-468.5 514.48,-415 288.48,-415"/>
<polygon fill="none" stroke="black" points="299.48,-442.75 299.48,-461.5 503.48,-461.5 503.48,-442.75 299.48,-442.75"/>
<text text-anchor="start" x="302.48" y="-450" font-family="Courier New" font-weight="bold" font-size="10.00">CHAR_DROPTARGET::M_CHARACTER_DROP</text>
<polygon fill="none" stroke="black" points="299.48,-422 299.48,-440.75 503.48,-440.75 503.48,-422 299.48,-422"/>
<text text-anchor="start" x="356.48" y="-428.25" font-family="Courier New" font-size="10.00" fill="brown">start state = 0</text>
<polygon fill="none" stroke="black" points="296.48,-419 296.48,-464.5 506.48,-464.5 506.48,-419 296.48,-419"/>
</g>
<!-- 0 -->
<g id="node2" class="node">
<title>0</title>
<polyline fill="none" stroke="darkred" stroke-width="3" points="551.86,-430 567.11,-430"/>
<text text-anchor="start" x="555.36" y="-437.7" font-family="Courier New" font-weight="bold" font-size="14.00">0</text>
<path fill="none" stroke="darkred" stroke-width="3" d="M555.28,-425C555.28,-425 563.69,-425 563.69,-425 567.9,-425 572.11,-429.21 572.11,-433.42 572.11,-433.42 572.11,-450.08 572.11,-450.08 572.11,-454.29 567.9,-458.5 563.69,-458.5 563.69,-458.5 555.28,-458.5 555.28,-458.5 551.07,-458.5 546.86,-454.29 546.86,-450.08 546.86,-450.08 546.86,-433.42 546.86,-433.42 546.86,-429.21 551.07,-425 555.28,-425"/>
</g>
<!-- postProcessObject -->
<g id="node3" class="node">
<title>postProcessObject</title>
<polyline fill="none" stroke="darkred" points="440.36,-137.75 586.61,-137.75"/>
<text text-anchor="start" x="443.36" y="-144.95" font-family="Courier New" font-weight="bold" font-size="14.00">postProcessObject</text>
<path fill="none" stroke="darkred" d="M446.86,-134.75C446.86,-134.75 580.11,-134.75 580.11,-134.75 584.86,-134.75 589.61,-139.5 589.61,-144.25 589.61,-144.25 589.61,-153.75 589.61,-153.75 589.61,-158.5 584.86,-163.25 580.11,-163.25 580.11,-163.25 446.86,-163.25 446.86,-163.25 442.11,-163.25 437.36,-158.5 437.36,-153.75 437.36,-153.75 437.36,-144.25 437.36,-144.25 437.36,-139.5 442.11,-134.75 446.86,-134.75"/>
</g>
<!-- 0&#45;&gt;postProcessObject -->
<g id="edge1" class="edge">
<title>0&#45;&gt;postProcessObject</title>
<path fill="none" stroke="black" d="M545.34,-419.66C539.47,-412.67 532.02,-405.68 523.48,-401.75 475.21,-379.52 82.35,-422.03 45.48,-383.75 -15.71,-320.2 -14.51,-249.93 45.48,-185.25 70.24,-158.56 288.55,-151.95 418.08,-150.4"/>
<polygon fill="black" stroke="black" points="418.08,-153.9 428.04,-150.29 418.01,-146.9 418.08,-153.9"/>
<polygon fill="none" stroke="black" points="48.48,-362 48.48,-380.75 534.48,-380.75 534.48,-362 48.48,-362"/>
<text text-anchor="start" x="264.48" y="-369.25" font-family="Courier New" font-weight="bold" font-size="10.00" fill="orange">DROP(0,0)</text>
<polygon fill="none" stroke="black" points="48.48,-188.25 48.48,-360 534.48,-360 534.48,-188.25 48.48,-188.25"/>
<text text-anchor="start" x="51.48" y="-347.5" font-family="Courier New" font-size="10.00" fill="blue"> &#160;&#160;&#160;SHOW(WOBJECT);</text>
<text text-anchor="start" x="51.48" y="-334.75" font-family="Courier New" font-size="10.00" fill="blue"> &#160;&#160;&#160;REF_MACHINE(MEFPAN_VIEWCAP);</text>
<text text-anchor="start" x="51.48" y="-322" font-family="Courier New" font-size="10.00" fill="blue"> &#160;&#160;&#160;MOV(BPARM,R_BPARM);</text>
<text text-anchor="start" x="51.48" y="-309.25" font-family="Courier New" font-size="10.00" fill="blue"> &#160;&#160;&#160;if(BPARM == 1){ &#160;</text>
<text text-anchor="start" x="51.48" y="-296.5" font-family="Courier New" font-size="10.00" fill="blue"> &#160;&#160;&#160;&#160;&#160;&#160;&#160;WRITE(&quot;MEFLIN INSPECTION&quot;);</text>
<text text-anchor="start" x="51.48" y="-283.75" font-family="Courier New" font-size="10.00" fill="blue"> &#160;&#160;&#160;&#160;&#160;&#160;&#160;REF_MACHINE(MEFCURRENT); //Who is it?</text>
<text text-anchor="start" x="51.48" y="-271" font-family="Courier New" font-size="10.00" fill="blue"> &#160;&#160;&#160;&#160;&#160;&#160;&#160;MOV(WPARM,R_WPARM);</text>
<text text-anchor="start" x="51.48" y="-258.25" font-family="Courier New" font-size="10.00" fill="blue"> &#160;&#160;&#160;&#160;&#160;&#160;&#160;SIGNAL(WPARM,SIG_DROP); //so the meflin mef_talk can look at the wobject</text>
<text text-anchor="start" x="51.48" y="-245.5" font-family="Courier New" font-size="10.00" fill="blue"> &#160;&#160;&#160;&#160;&#160;&#160;&#160;SHOW();</text>
<text text-anchor="start" x="51.48" y="-232.75" font-family="Courier New" font-size="10.00" fill="blue"> &#160;&#160;&#160;}</text>
<text text-anchor="start" x="51.48" y="-220" font-family="Courier New" font-size="10.00" fill="blue"> &#160;&#160;&#160;if(BPARM == 0){ </text>
<text text-anchor="start" x="51.48" y="-207.25" font-family="Courier New" font-size="10.00" fill="blue"> &#160;&#160;&#160;&#160;&#160;&#160;&#160;SIGNAL(SOD_SPELL,SIG_DROP);</text>
<text text-anchor="start" x="51.48" y="-194.5" font-family="Courier New" font-size="10.00" fill="blue"> &#160;&#160;&#160;}</text>
<polygon fill="none" stroke="black" points="45.48,-185.25 45.48,-383.75 537.48,-383.75 537.48,-185.25 45.48,-185.25"/>
</g>
<!-- postProcessObject&#45;&gt;0 -->
<g id="edge4" class="edge">
<title>postProcessObject&#45;&gt;0</title>
<path fill="none" stroke="black" d="M527.6,-166.96C531.46,-172.48 535.2,-178.83 537.48,-185.25 551.83,-225.57 557.04,-349.43 558.74,-408.61"/>
<polygon fill="black" stroke="black" points="555.23,-408.46 559,-418.36 562.23,-408.27 555.23,-408.46"/>
<text text-anchor="start" x="561.48" y="-282.38" font-family="Courier New" font-weight="bold" font-size="10.00" fill="blue">Z_EPSILON(,)</text>
</g>
<!-- clear -->
<g id="node4" class="node">
<title>clear</title>
<polyline fill="none" stroke="darkred" points="559.86,-7 607.11,-7"/>
<text text-anchor="start" x="562.86" y="-14.2" font-family="Courier New" font-weight="bold" font-size="14.00">clear</text>
<path fill="none" stroke="darkred" d="M566.36,-4C566.36,-4 600.61,-4 600.61,-4 605.36,-4 610.11,-8.75 610.11,-13.5 610.11,-13.5 610.11,-23 610.11,-23 610.11,-27.75 605.36,-32.5 600.61,-32.5 600.61,-32.5 566.36,-32.5 566.36,-32.5 561.61,-32.5 556.86,-27.75 556.86,-23 556.86,-23 556.86,-13.5 556.86,-13.5 556.86,-8.75 561.61,-4 566.36,-4"/>
</g>
<!-- postProcessObject&#45;&gt;clear -->
<g id="edge3" class="edge">
<title>postProcessObject&#45;&gt;clear</title>
<path fill="none" stroke="black" d="M508.75,-131.02C504.23,-111.1 500.04,-77.82 514.48,-54.5 520.22,-45.25 529.21,-38.32 538.84,-33.18"/>
<polygon fill="black" stroke="black" points="540.04,-36.48 547.63,-29.08 537.08,-30.14 540.04,-36.48"/>
<polygon fill="none" stroke="black" points="517.48,-91 517.48,-109.75 637.48,-109.75 637.48,-91 517.48,-91"/>
<text text-anchor="start" x="556.48" y="-98.25" font-family="Courier New" font-weight="bold" font-size="10.00" fill="orange">GRAB(,)</text>
<polygon fill="none" stroke="black" points="517.48,-57.5 517.48,-89 637.48,-89 637.48,-57.5 517.48,-57.5"/>
<text text-anchor="start" x="520.48" y="-76.5" font-family="Courier New" font-size="10.00" fill="blue"> &#160;&#160;&#160;CLEAR(WOBJECT);</text>
<text text-anchor="start" x="520.48" y="-63.75" font-family="Courier New" font-size="10.00" fill="blue"> &#160;&#160;&#160;SHOW();</text>
<polygon fill="none" stroke="black" points="514.48,-54.5 514.48,-112.75 640.48,-112.75 640.48,-54.5 514.48,-54.5"/>
</g>
<!-- clear&#45;&gt;0 -->
<g id="edge2" class="edge">
<title>clear&#45;&gt;0</title>
<path fill="none" stroke="black" d="M617.87,-32.95C626.83,-38.28 635.39,-45.35 640.48,-54.5 711.73,-182.32 722.52,-262.58 640.48,-383.75 628.41,-401.59 613.23,-389.53 595.48,-401.75 591.36,-404.59 587.36,-407.98 583.63,-411.56"/>
<polygon fill="black" stroke="black" points="581.39,-408.84 576.97,-418.47 586.43,-413.7 581.39,-408.84"/>
<text text-anchor="start" x="692.48" y="-146.88" font-family="Courier New" font-weight="bold" font-size="10.00" fill="blue">Z_EPSILON(,)</text>
</g>
<!-- status -->
<g id="node5" class="node">
<title>status</title>
<polygon fill="none" stroke="black" points="604.48,-402.25 604.48,-481.25 938.48,-481.25 938.48,-402.25 604.48,-402.25"/>
<polygon fill="none" stroke="black" points="615.48,-455.5 615.48,-474.25 927.48,-474.25 927.48,-455.5 615.48,-455.5"/>
<text text-anchor="start" x="726.48" y="-462.75" font-family="Courier New" font-weight="bold" font-size="10.00">CHAR_DROPTARGET</text>
<polygon fill="none" stroke="black" points="615.48,-409.25 615.48,-453.5 927.48,-453.5 927.48,-409.25 615.48,-409.25"/>
<text text-anchor="start" x="618.48" y="-441" font-family="Courier New" font-size="10.00" fill="green">VIEW::IDV_OTHERID @pos(left:0, top:0)</text>
<text text-anchor="start" x="618.48" y="-428.25" font-family="Courier New" font-size="10.00" fill="green">CHAR_DROPTARGET::M_CHARACTER_DROP(&#39;&#39;,&#39;&#39;,&#39;&#39;,&#39;&#39;)</text>
<text text-anchor="start" x="618.48" y="-415.5" font-family="Courier New" font-size="10.00" fill="green">{state:&#39;0&#39;: bParm:0 wObject:IDD_BOMB2 wSprite:BOMB2</text>
<polygon fill="none" stroke="black" points="612.48,-406.25 612.48,-477.25 930.48,-477.25 930.48,-406.25 612.48,-406.25"/>
</g>
</g>
</svg>
