<?xml version="1.0" encoding="UTF-8" standalone="no"?>
<!DOCTYPE svg PUBLIC "-//W3C//DTD SVG 1.1//EN"
 "http://www.w3.org/Graphics/SVG/1.1/DTD/svg11.dtd">
<!-- Generated by graphviz version 8.0.1 (20230327.1645)
 -->
<!-- Pages: 1 -->
<svg width="1818pt" height="539pt"
 viewBox="0.00 0.00 1818.02 539.00" xmlns="http://www.w3.org/2000/svg" xmlns:xlink="http://www.w3.org/1999/xlink">
<g id="graph0" class="graph" transform="scale(1 1) rotate(0) translate(4 535)">
<polygon fill="white" stroke="none" points="-4,4 -4,-535 1814.02,-535 1814.02,4 -4,4"/>
<!-- 0 -->
<g id="node1" class="node">
<title>0</title>
<ellipse fill="none" stroke="black" cx="999.02" cy="-513" rx="27" ry="18"/>
<text text-anchor="middle" x="999.02" y="-509.3" font-family="Times,serif" font-size="14.00">0</text>
</g>
<!-- 10 -->
<g id="node2" class="node">
<title>10</title>
<ellipse fill="none" stroke="black" cx="244.02" cy="-358.5" rx="27" ry="18"/>
<text text-anchor="middle" x="244.02" y="-354.8" font-family="Times,serif" font-size="14.00">10</text>
</g>
<!-- 0&#45;&gt;10 -->
<g id="edge1" class="edge">
<title>0&#45;&gt;10</title>
<path fill="none" stroke="black" d="M971.89,-511.85C874.32,-511.05 545.12,-506.2 509.02,-477 481.68,-454.88 513.25,-424.43 487.02,-401 457.27,-374.43 342.02,-364.55 281.54,-361.14"/>
<polygon fill="black" stroke="black" points="282.09,-357.61 271.92,-360.58 281.72,-364.6 282.09,-357.61"/>
<text text-anchor="start" x="513.02" y="-437.5" font-family="Courier New" font-weight="bold" font-size="10.00" fill="orange">DRAG(,IDD_SCOOPE)</text>
</g>
<!-- 22 -->
<g id="node3" class="node">
<title>22</title>
<ellipse fill="none" stroke="black" cx="795.02" cy="-358.5" rx="27" ry="18"/>
<text text-anchor="middle" x="795.02" y="-354.8" font-family="Times,serif" font-size="14.00">22</text>
</g>
<!-- 0&#45;&gt;22 -->
<g id="edge2" class="edge">
<title>0&#45;&gt;22</title>
<path fill="none" stroke="black" d="M971.65,-511.66C943.5,-509.82 900.18,-502.62 874.02,-477 848.81,-452.31 871.34,-429.86 851.02,-401 844.16,-391.25 834.28,-382.86 824.73,-376.23"/>
<polygon fill="black" stroke="black" points="827.08,-372.93 816.78,-370.42 823.26,-378.8 827.08,-372.93"/>
<text text-anchor="start" x="878.02" y="-437.5" font-family="Courier New" font-weight="bold" font-size="10.00" fill="orange">DRAG(,IDD_SCOOPF)</text>
</g>
<!-- 5 -->
<g id="node4" class="node">
<title>5</title>
<ellipse fill="none" stroke="black" cx="1158.02" cy="-358.5" rx="27" ry="18"/>
<text text-anchor="middle" x="1158.02" y="-354.8" font-family="Times,serif" font-size="14.00">5</text>
</g>
<!-- 0&#45;&gt;5 -->
<g id="edge3" class="edge">
<title>0&#45;&gt;5</title>
<path fill="none" stroke="black" d="M1026.42,-511.7C1112.75,-510.47 1374.82,-504.5 1400.02,-477 1422.84,-452.1 1421.79,-426.82 1400.02,-401 1374.35,-370.55 1257.21,-362.44 1195.82,-360.28"/>
<polygon fill="black" stroke="black" points="1196.14,-356.76 1186.04,-359.95 1195.92,-363.76 1196.14,-356.76"/>
<polygon fill="none" stroke="black" points="1419.02,-439 1419.02,-456 1516.02,-456 1516.02,-439 1419.02,-439"/>
<text text-anchor="start" x="1422.02" y="-446" font-family="Courier New" font-weight="bold" font-size="10.00" fill="orange">WAIT(,SIG_INC1)</text>
<polygon fill="none" stroke="black" points="1419.02,-422 1419.02,-437 1516.02,-437 1516.02,-422 1419.02,-422"/>
<text text-anchor="start" x="1435.52" y="-427.6" font-family="Times,serif" font-size="8.00" fill="blue">ADDI(WPARM,1);</text>
<polygon fill="none" stroke="black" points="1416.02,-419 1416.02,-459 1519.02,-459 1519.02,-419 1416.02,-419"/>
</g>
<!-- 0&#45;&gt;5 -->
<g id="edge4" class="edge">
<title>0&#45;&gt;5</title>
<path fill="none" stroke="black" d="M1004.43,-494.92C1006.22,-489.23 1008.22,-482.84 1010.02,-477 1020.42,-443.28 1007.15,-425 1033.02,-401 1060.06,-375.92 1079.44,-395.8 1114.02,-383 1118.94,-381.18 1123.99,-378.9 1128.84,-376.49"/>
<polygon fill="black" stroke="black" points="1130.19,-379.21 1137.4,-371.45 1126.93,-373.02 1130.19,-379.21"/>
<polygon fill="none" stroke="black" points="1036.02,-439 1036.02,-456 1133.02,-456 1133.02,-439 1036.02,-439"/>
<text text-anchor="start" x="1039.02" y="-446" font-family="Courier New" font-weight="bold" font-size="10.00" fill="orange">WAIT(,SIG_DEC1)</text>
<polygon fill="none" stroke="black" points="1036.02,-422 1036.02,-437 1133.02,-437 1133.02,-422 1036.02,-422"/>
<text text-anchor="start" x="1053.52" y="-427.6" font-family="Times,serif" font-size="8.00" fill="blue">SUBI(WPARM,1);</text>
<polygon fill="none" stroke="black" points="1033.02,-419 1033.02,-459 1136.02,-459 1136.02,-419 1033.02,-419"/>
</g>
<!-- 0&#45;&gt;5 -->
<g id="edge5" class="edge">
<title>0&#45;&gt;5</title>
<path fill="none" stroke="black" d="M1025.56,-508.63C1061.02,-503.58 1121.12,-492.9 1136.02,-477 1147.85,-464.38 1153.6,-418.37 1156.18,-387.81"/>
<polygon fill="black" stroke="black" points="1159.73,-388.19 1157.01,-377.95 1152.75,-387.65 1159.73,-388.19"/>
<polygon fill="none" stroke="black" points="1157.02,-439 1157.02,-456 1260.02,-456 1260.02,-439 1157.02,-439"/>
<text text-anchor="start" x="1160.02" y="-446" font-family="Courier New" font-weight="bold" font-size="10.00" fill="orange">WAIT(,SIG_INC10)</text>
<polygon fill="none" stroke="black" points="1157.02,-422 1157.02,-437 1260.02,-437 1260.02,-422 1157.02,-422"/>
<text text-anchor="start" x="1174.52" y="-427.6" font-family="Times,serif" font-size="8.00" fill="blue">ADDI(WPARM,10);</text>
<polygon fill="none" stroke="black" points="1154.02,-419 1154.02,-459 1263.02,-459 1263.02,-419 1154.02,-419"/>
</g>
<!-- 0&#45;&gt;5 -->
<g id="edge6" class="edge">
<title>0&#45;&gt;5</title>
<path fill="none" stroke="black" d="M1026.51,-512.75C1088.44,-513.8 1235.91,-512.44 1267.02,-477 1289.31,-451.62 1286.19,-428.81 1267.02,-401 1251,-377.76 1220.12,-367.53 1195.3,-363.02"/>
<polygon fill="black" stroke="black" points="1196.17,-359.46 1185.75,-361.38 1195.09,-366.38 1196.17,-359.46"/>
<polygon fill="none" stroke="black" points="1285.02,-439 1285.02,-456 1388.02,-456 1388.02,-439 1285.02,-439"/>
<text text-anchor="start" x="1288.02" y="-446" font-family="Courier New" font-weight="bold" font-size="10.00" fill="orange">WAIT(,SIG_DEC10)</text>
<polygon fill="none" stroke="black" points="1285.02,-422 1285.02,-437 1388.02,-437 1388.02,-422 1285.02,-422"/>
<text text-anchor="start" x="1303.52" y="-427.6" font-family="Times,serif" font-size="8.00" fill="blue">SUBI(WPARM,10);</text>
<polygon fill="none" stroke="black" points="1282.02,-419 1282.02,-459 1391.02,-459 1391.02,-419 1282.02,-419"/>
</g>
<!-- 10&#45;&gt;0 -->
<g id="edge7" class="edge">
<title>10&#45;&gt;0</title>
<path fill="none" stroke="black" d="M217.02,-360.28C162.48,-362.5 42.23,-370.77 17.02,-401 -4.61,-426.94 -6.43,-452.69 17.02,-477 50.35,-511.53 784.04,-512.4 960.91,-512.1"/>
<polygon fill="black" stroke="black" points="960.75,-515.6 970.74,-512.08 960.74,-508.6 960.75,-515.6"/>
<text text-anchor="start" x="21.02" y="-437.5" font-family="Courier New" font-weight="bold" font-size="10.00" fill="blue">EQUALi(BPARM,)</text>
</g>
<!-- 10&#45;&gt;0 -->
<g id="edge8" class="edge">
<title>10&#45;&gt;0</title>
<path fill="none" stroke="black" d="M217.31,-361.16C190.94,-364.39 151.9,-373.78 133.02,-401 113.77,-428.75 109.62,-452.64 133.02,-477 162.06,-507.24 797.07,-511.35 960.79,-511.91"/>
<polygon fill="black" stroke="black" points="960.74,-515.42 970.75,-511.95 960.76,-508.42 960.74,-515.42"/>
<text text-anchor="start" x="137.02" y="-437.5" font-family="Courier New" font-weight="bold" font-size="10.00" fill="blue">NOTSTATE(M02_KEYED,WIP_S02_LOCK)</text>
</g>
<!-- 10&#45;&gt;0 -->
<g id="edge9" class="edge">
<title>10&#45;&gt;0</title>
<path fill="none" stroke="black" d="M269.47,-364.84C289.86,-370.44 317.67,-381.26 334.02,-401 356.23,-427.81 326.17,-454.84 353.02,-477 376.56,-496.43 826.05,-508.1 961.02,-511.18"/>
<polygon fill="black" stroke="black" points="960.93,-514.7 971,-511.43 961.08,-507.7 960.93,-514.7"/>
<polygon fill="none" stroke="black" points="356.02,-457 356.02,-474 480.02,-474 480.02,-457 356.02,-457"/>
<text text-anchor="start" x="381.52" y="-464" font-family="Courier New" font-weight="bold" font-size="10.00" fill="blue">Z_EPSILON(,)</text>
<polygon fill="none" stroke="black" points="356.02,-404 356.02,-455 480.02,-455 480.02,-404 356.02,-404"/>
<text text-anchor="start" x="359.02" y="-445.6" font-family="Times,serif" font-size="8.00" fill="blue"> &#160;&#160;&#160;SUBI(BPARM,1);</text>
<text text-anchor="start" x="359.02" y="-436.6" font-family="Times,serif" font-size="8.00" fill="blue"> &#160;&#160;&#160;PLAYWAVE(SOUND_SLURP);</text>
<text text-anchor="start" x="359.02" y="-427.6" font-family="Times,serif" font-size="8.00" fill="blue"> &#160;&#160;&#160;HANDOFF(0,IDD_SCOOPF);</text>
<text text-anchor="start" x="359.02" y="-418.6" font-family="Times,serif" font-size="8.00" fill="blue"> &#160;&#160;&#160;SIGNAL(WIP_DISP10,0);</text>
<text text-anchor="start" x="359.02" y="-409.6" font-family="Times,serif" font-size="8.00" fill="blue"> &#160;&#160;&#160;SIGNAL(WIP_DISP01,0);</text>
<polygon fill="none" stroke="black" points="353.02,-401 353.02,-477 483.02,-477 483.02,-401 353.02,-401"/>
</g>
<!-- 22&#45;&gt;0 -->
<g id="edge11" class="edge">
<title>22&#45;&gt;0</title>
<path fill="none" stroke="black" d="M768.51,-362.72C728.47,-368.19 655.58,-380.72 640.02,-401 619.46,-427.8 617.33,-451.98 640.02,-477 661.28,-500.44 872.8,-508.68 960.86,-511.12"/>
<polygon fill="black" stroke="black" points="960.61,-514.64 970.7,-511.4 960.8,-507.64 960.61,-514.64"/>
<text text-anchor="start" x="644.02" y="-437.5" font-family="Courier New" font-weight="bold" font-size="10.00" fill="blue">NOTSTATE(M02_LOCKED,WIP_S02_LOCK)</text>
</g>
<!-- 24 -->
<g id="node5" class="node">
<title>24</title>
<ellipse fill="none" stroke="black" cx="859.02" cy="-211" rx="27" ry="18"/>
<text text-anchor="middle" x="859.02" y="-207.3" font-family="Times,serif" font-size="14.00">24</text>
</g>
<!-- 22&#45;&gt;24 -->
<g id="edge10" class="edge">
<title>22&#45;&gt;24</title>
<path fill="none" stroke="black" d="M771.72,-348.88C757.47,-342.26 740.41,-331.57 732.02,-316 719.8,-293.31 717.22,-279.1 732.02,-258 751.96,-229.57 791.33,-218.64 820.97,-214.47"/>
<polygon fill="black" stroke="black" points="821.28,-217.84 830.8,-213.19 820.46,-210.89 821.28,-217.84"/>
<text text-anchor="start" x="736.02" y="-285.5" font-family="Courier New" font-weight="bold" font-size="10.00" fill="blue">GTE(BPARM,WPARM)</text>
</g>
<!-- 22&#45;&gt;24 -->
<g id="edge12" class="edge">
<title>22&#45;&gt;24</title>
<path fill="none" stroke="black" d="M812.57,-344.31C821.21,-336.92 831.03,-326.98 837.02,-316 849.92,-292.39 855.26,-261.94 857.47,-240.1"/>
<polygon fill="black" stroke="black" points="861.03,-240.5 858.38,-230.25 854.06,-239.92 861.03,-240.5"/>
<polygon fill="none" stroke="black" points="858.02,-296 858.02,-313 977.02,-313 977.02,-296 858.02,-296"/>
<text text-anchor="start" x="881.02" y="-303" font-family="Courier New" font-weight="bold" font-size="10.00" fill="blue">Z_EPSILON(,)</text>
<polygon fill="none" stroke="black" points="858.02,-261 858.02,-294 977.02,-294 977.02,-261 858.02,-261"/>
<text text-anchor="start" x="861.02" y="-284.6" font-family="Times,serif" font-size="8.00" fill="blue"> &#160;&#160;&#160;ADDI(BPARM,1);</text>
<text text-anchor="start" x="861.02" y="-275.6" font-family="Times,serif" font-size="8.00" fill="blue"> &#160;&#160;&#160;PLAYWAVE(SOUND_SPIT);</text>
<text text-anchor="start" x="861.02" y="-266.6" font-family="Times,serif" font-size="8.00" fill="blue"> &#160;&#160;&#160;HANDOFF(0,IDD_SCOOPE);</text>
<polygon fill="none" stroke="black" points="855.02,-258 855.02,-316 980.02,-316 980.02,-258 855.02,-258"/>
</g>
<!-- 8 -->
<g id="node8" class="node">
<title>8</title>
<ellipse fill="none" stroke="black" cx="1046.02" cy="-211" rx="27" ry="18"/>
<text text-anchor="middle" x="1046.02" y="-207.3" font-family="Times,serif" font-size="14.00">8</text>
</g>
<!-- 5&#45;&gt;8 -->
<g id="edge17" class="edge">
<title>5&#45;&gt;8</title>
<path fill="none" stroke="black" d="M1158.48,-340.17C1158.16,-318.72 1154.63,-282.08 1136.02,-258 1122.35,-240.31 1099.99,-228.83 1080.99,-221.77"/>
<polygon fill="black" stroke="black" points="1082.44,-218.22 1071.85,-218.29 1080.17,-224.85 1082.44,-218.22"/>
<text text-anchor="start" x="1160.02" y="-285.5" font-family="Courier New" font-weight="bold" font-size="10.00" fill="blue">LTEi(WPARM,99)</text>
</g>
<!-- 5&#45;&gt;8 -->
<g id="edge18" class="edge">
<title>5&#45;&gt;8</title>
<path fill="none" stroke="black" d="M1138.35,-345.68C1130.92,-341.57 1122.26,-337.19 1114.02,-334 1083.66,-322.25 1063.01,-341.69 1043.02,-316 1026.24,-294.44 1030.34,-262.05 1036.5,-239.16"/>
<polygon fill="black" stroke="black" points="1040.09,-240.35 1039.61,-229.77 1033.39,-238.35 1040.09,-240.35"/>
<polygon fill="none" stroke="black" points="1046.02,-287 1046.02,-304 1129.02,-304 1129.02,-287 1046.02,-287"/>
<text text-anchor="start" x="1051.02" y="-294" font-family="Courier New" font-weight="bold" font-size="10.00" fill="blue">Z_EPSILON(,)</text>
<polygon fill="none" stroke="black" points="1046.02,-270 1046.02,-285 1129.02,-285 1129.02,-270 1046.02,-270"/>
<text text-anchor="start" x="1049.02" y="-275.6" font-family="Times,serif" font-size="8.00" fill="blue">ASSIGN(WPARM,99);</text>
<polygon fill="none" stroke="black" points="1043.02,-267 1043.02,-307 1132.02,-307 1132.02,-267 1043.02,-267"/>
</g>
<!-- 25 -->
<g id="node6" class="node">
<title>25</title>
<ellipse fill="none" stroke="black" cx="1198.02" cy="-109" rx="27" ry="18"/>
<text text-anchor="middle" x="1198.02" y="-105.3" font-family="Times,serif" font-size="14.00">25</text>
</g>
<!-- 24&#45;&gt;25 -->
<g id="edge13" class="edge">
<title>24&#45;&gt;25</title>
<path fill="none" stroke="black" d="M883.4,-202.81C942.77,-185.29 1095,-140.39 1163.6,-120.15"/>
<polygon fill="black" stroke="black" points="1164.26,-123.31 1172.86,-117.13 1162.28,-116.6 1164.26,-123.31"/>
<text text-anchor="start" x="1082.02" y="-153" font-family="Courier New" font-weight="bold" font-size="10.00" fill="blue">SIGNAL(WIP_DISP10,)</text>
</g>
<!-- 26 -->
<g id="node7" class="node">
<title>26</title>
<ellipse fill="none" stroke="black" cx="1540.02" cy="-18" rx="27" ry="18"/>
<text text-anchor="middle" x="1540.02" y="-14.3" font-family="Times,serif" font-size="14.00">26</text>
</g>
<!-- 25&#45;&gt;26 -->
<g id="edge14" class="edge">
<title>25&#45;&gt;26</title>
<path fill="none" stroke="black" d="M1222.94,-101.37C1261.5,-91.13 1338.01,-70.87 1403.02,-54 1437.63,-45.02 1477.21,-34.93 1504.9,-27.9"/>
<polygon fill="black" stroke="black" points="1505.43,-31.12 1514.26,-25.27 1503.7,-24.33 1505.43,-31.12"/>
<text text-anchor="start" x="1407.02" y="-62" font-family="Courier New" font-weight="bold" font-size="10.00" fill="blue">SIGNAL(WIP_DISP01,)</text>
</g>
<!-- 26&#45;&gt;0 -->
<g id="edge15" class="edge">
<title>26&#45;&gt;0</title>
<path fill="none" stroke="black" d="M1540.02,-36.39C1540.02,-54.34 1540.02,-83.12 1540.02,-108 1540.02,-359.5 1540.02,-359.5 1540.02,-359.5 1540.02,-412.27 1561.74,-441.15 1523.02,-477 1487.57,-509.82 1151.66,-512.29 1037.09,-512.16"/>
<polygon fill="black" stroke="black" points="1037.41,-508.66 1027.4,-512.14 1037.39,-515.66 1037.41,-508.66"/>
<text text-anchor="start" x="1544.02" y="-209.5" font-family="Courier New" font-weight="bold" font-size="10.00" fill="blue">LT(BPARM,WPARM)</text>
</g>
<!-- 26&#45;&gt;0 -->
<g id="edge16" class="edge">
<title>26&#45;&gt;0</title>
<path fill="none" stroke="black" d="M1566.05,-23.9C1605.28,-32.97 1675.02,-56.35 1675.02,-108 1675.02,-359.5 1675.02,-359.5 1675.02,-359.5 1675.02,-436.4 1618.69,-446.69 1548.02,-477 1501.41,-496.99 1154.14,-507.9 1037.27,-511.04"/>
<polygon fill="black" stroke="black" points="1037.29,-507.57 1027.38,-511.33 1037.47,-514.56 1037.29,-507.57"/>
<polygon fill="none" stroke="black" points="1678.02,-220 1678.02,-237 1807.02,-237 1807.02,-220 1678.02,-220"/>
<text text-anchor="start" x="1706.02" y="-227" font-family="Courier New" font-weight="bold" font-size="10.00" fill="blue">Z_EPSILON(,)</text>
<polygon fill="none" stroke="black" points="1678.02,-185 1678.02,-218 1807.02,-218 1807.02,-185 1678.02,-185"/>
<text text-anchor="start" x="1681.02" y="-208.6" font-family="Times,serif" font-size="8.00" fill="blue"> &#160;&#160;&#160;MOV(WTEMP1,WTHIS);</text>
<text text-anchor="start" x="1681.02" y="-199.6" font-family="Times,serif" font-size="8.00" fill="blue"> &#160;&#160;&#160;ADDI(WTEMP1,2);</text>
<text text-anchor="start" x="1681.02" y="-190.6" font-family="Times,serif" font-size="8.00" fill="blue"> &#160;&#160;&#160;SIGNAL(WTEMP1,SIG_OPEN);</text>
<polygon fill="none" stroke="black" points="1675.02,-182 1675.02,-240 1810.02,-240 1810.02,-182 1675.02,-182"/>
</g>
<!-- 8&#45;&gt;0 -->
<g id="edge19" class="edge">
<title>8&#45;&gt;0</title>
<path fill="none" stroke="black" d="M1038.41,-228.34C1034.59,-237.01 1030.13,-247.93 1027.02,-258 1002.58,-337.13 998.89,-435.92 998.69,-483.62"/>
<polygon fill="black" stroke="black" points="995.19,-483.61 998.7,-493.6 1002.19,-483.6 995.19,-483.61"/>
<polygon fill="none" stroke="black" points="1012.02,-363 1012.02,-380 1117.02,-380 1117.02,-363 1012.02,-363"/>
<text text-anchor="start" x="1028.02" y="-370" font-family="Courier New" font-weight="bold" font-size="10.00" fill="blue">Z_EPSILON(,)</text>
<polygon fill="none" stroke="black" points="1012.02,-337 1012.02,-361 1117.02,-361 1117.02,-337 1012.02,-337"/>
<text text-anchor="start" x="1015.02" y="-351.6" font-family="Times,serif" font-size="8.00" fill="blue"> &#160;&#160;&#160;SIGNAL(WIP_DISP10,0);</text>
<text text-anchor="start" x="1015.02" y="-342.6" font-family="Times,serif" font-size="8.00" fill="blue"> &#160;&#160;&#160;SIGNAL(WIP_DISP01,0);</text>
<polygon fill="none" stroke="black" points="1009.02,-334 1009.02,-383 1120.02,-383 1120.02,-334 1009.02,-334"/>
</g>
</g>
</svg>
