<?xml version="1.0" encoding="UTF-8" standalone="no"?>
<!DOCTYPE svg PUBLIC "-//W3C//DTD SVG 1.1//EN"
 "http://www.w3.org/Graphics/SVG/1.1/DTD/svg11.dtd">
<!-- Generated by graphviz version 8.0.1 (20230327.1645)
 -->
<!-- Pages: 1 -->
<svg width="520pt" height="156pt"
 viewBox="0.00 0.00 520.22 156.00" xmlns="http://www.w3.org/2000/svg" xmlns:xlink="http://www.w3.org/1999/xlink">
<g id="graph0" class="graph" transform="scale(1 1) rotate(0) translate(4 152)">
<polygon fill="white" stroke="none" points="-4,4 -4,-152 516.22,-152 516.22,4 -4,4"/>
<!-- 0 -->
<g id="node1" class="node">
<title>0</title>
<ellipse fill="none" stroke="black" cx="150.22" cy="-130" rx="27" ry="18"/>
<text text-anchor="middle" x="150.22" y="-126.3" font-family="Times,serif" font-size="14.00">0</text>
</g>
<!-- 1 -->
<g id="node2" class="node">
<title>1</title>
<ellipse fill="none" stroke="black" cx="150.22" cy="-18" rx="27" ry="18"/>
<text text-anchor="middle" x="150.22" y="-14.3" font-family="Times,serif" font-size="14.00">1</text>
</g>
<!-- 0&#45;&gt;1 -->
<g id="edge1" class="edge">
<title>0&#45;&gt;1</title>
<path fill="none" stroke="black" d="M123.53,-126.3C86.44,-121.93 22.28,-111.94 8.22,-94 -2.74,-80.01 -2.74,-67.99 8.22,-54 21.01,-37.67 75.31,-27.93 112.93,-23.02"/>
<polygon fill="black" stroke="black" points="113.03,-26.41 122.53,-21.7 112.17,-19.46 113.03,-26.41"/>
<polygon fill="none" stroke="black" points="11.22,-74 11.22,-91 125.22,-91 125.22,-74 11.22,-74"/>
<text text-anchor="start" x="43.72" y="-81" font-family="Courier New" font-weight="bold" font-size="10.00" fill="orange">CLICK(,)</text>
<polygon fill="none" stroke="black" points="11.22,-57 11.22,-72 125.22,-72 125.22,-57 11.22,-57"/>
<text text-anchor="start" x="14.22" y="-62.6" font-family="Times,serif" font-size="8.00" fill="blue">PLAYWAVE(SOUND_CLICK);</text>
<polygon fill="none" stroke="black" points="8.22,-54 8.22,-94 128.22,-94 128.22,-54 8.22,-54"/>
</g>
<!-- 1&#45;&gt;0 -->
<g id="edge2" class="edge">
<title>1&#45;&gt;0</title>
<path fill="none" stroke="black" d="M150.22,-36.43C150.22,-53.77 150.22,-80.66 150.22,-101"/>
<polygon fill="black" stroke="black" points="146.72,-100.81 150.22,-110.81 153.72,-100.81 146.72,-100.81"/>
<text text-anchor="start" x="154.22" y="-72.5" font-family="Courier New" font-weight="bold" font-size="10.00" fill="blue">IFSTATE(M02_LOCKED,WIP_S02_LOCK)</text>
</g>
<!-- 1&#45;&gt;0 -->
<g id="edge3" class="edge">
<title>1&#45;&gt;0</title>
<path fill="none" stroke="black" d="M177.27,-19.55C227.06,-21.21 330.16,-27.79 352.22,-54 363.67,-67.6 363.67,-80.4 352.22,-94 331.67,-118.42 240.78,-125.8 188.19,-128.03"/>
<polygon fill="black" stroke="black" points="188.13,-124.57 178.27,-128.45 188.4,-131.57 188.13,-124.57"/>
<polygon fill="none" stroke="black" points="363.22,-74 363.22,-91 509.22,-91 509.22,-74 363.22,-74"/>
<text text-anchor="start" x="399.72" y="-81" font-family="Courier New" font-weight="bold" font-size="10.00" fill="blue">Z_EPSILON(,)</text>
<polygon fill="none" stroke="black" points="363.22,-57 363.22,-72 509.22,-72 509.22,-57 363.22,-57"/>
<text text-anchor="start" x="366.22" y="-62.6" font-family="Times,serif" font-size="8.00" fill="blue">SIGNAL(WIP_S02_VIAL, SIG_DEC10);</text>
<polygon fill="none" stroke="black" points="360.22,-54 360.22,-94 512.22,-94 512.22,-54 360.22,-54"/>
</g>
</g>
</svg>
