<?xml version="1.0" encoding="UTF-8" standalone="no"?>
<!DOCTYPE svg PUBLIC "-//W3C//DTD SVG 1.1//EN"
 "http://www.w3.org/Graphics/SVG/1.1/DTD/svg11.dtd">
<!-- Generated by graphviz version 8.0.1 (20230327.1645)
 -->
<!-- Pages: 1 -->
<svg width="897pt" height="380pt"
 viewBox="0.00 0.00 896.89 380.00" xmlns="http://www.w3.org/2000/svg" xmlns:xlink="http://www.w3.org/1999/xlink">
<g id="graph0" class="graph" transform="scale(1 1) rotate(0) translate(4 376)">
<polygon fill="white" stroke="none" points="-4,4 -4,-376 892.89,-376 892.89,4 -4,4"/>
<!-- 0 -->
<g id="node1" class="node">
<title>0</title>
<ellipse fill="none" stroke="black" cx="335.89" cy="-354" rx="27" ry="18"/>
<text text-anchor="middle" x="335.89" y="-350.3" font-family="Times,serif" font-size="14.00">0</text>
</g>
<!-- 10 -->
<g id="node2" class="node">
<title>10</title>
<ellipse fill="none" stroke="black" cx="310.89" cy="-242" rx="27" ry="18"/>
<text text-anchor="middle" x="310.89" y="-238.3" font-family="Times,serif" font-size="14.00">10</text>
</g>
<!-- 0&#45;&gt;10 -->
<g id="edge1" class="edge">
<title>0&#45;&gt;10</title>
<path fill="none" stroke="black" d="M308.62,-352.13C233.68,-349.45 28.81,-340.16 8.89,-318 -2.99,-304.78 -2.93,-291.27 8.89,-278 26.19,-258.58 195.8,-248.32 272.99,-244.62"/>
<polygon fill="black" stroke="black" points="272.85,-248.09 282.68,-244.13 272.53,-241.1 272.85,-248.09"/>
<polygon fill="none" stroke="black" points="11.89,-298 11.89,-315 201.89,-315 201.89,-298 11.89,-298"/>
<text text-anchor="start" x="61.39" y="-305" font-family="Courier New" font-weight="bold" font-size="10.00" fill="orange">WAIT(,SIG_INC1)</text>
<polygon fill="none" stroke="black" points="11.89,-281 11.89,-296 201.89,-296 201.89,-281 11.89,-281"/>
<text text-anchor="start" x="14.89" y="-286.6" font-family="Times,serif" font-size="8.00" fill="blue">REF_MACHINE(WIP1);MOV(BFRAME,R_WPARM);</text>
<polygon fill="none" stroke="black" points="8.89,-278 8.89,-318 204.89,-318 204.89,-278 8.89,-278"/>
</g>
<!-- 0&#45;&gt;10 -->
<g id="edge2" class="edge">
<title>0&#45;&gt;10</title>
<path fill="none" stroke="black" d="M308.58,-352.61C283.06,-350.62 246.21,-343.19 227.89,-318 217.44,-303.62 218.06,-292.81 227.89,-278 238.21,-262.46 256.92,-253.8 273.97,-248.99"/>
<polygon fill="black" stroke="black" points="274.41,-252.24 283.28,-246.46 272.74,-245.44 274.41,-252.24"/>
<polygon fill="none" stroke="black" points="230.89,-298 230.89,-315 420.89,-315 420.89,-298 230.89,-298"/>
<text text-anchor="start" x="280.39" y="-305" font-family="Courier New" font-weight="bold" font-size="10.00" fill="orange">WAIT(,SIG_DEC1)</text>
<polygon fill="none" stroke="black" points="230.89,-281 230.89,-296 420.89,-296 420.89,-281 230.89,-281"/>
<text text-anchor="start" x="233.89" y="-286.6" font-family="Times,serif" font-size="8.00" fill="blue">REF_MACHINE(WIP1);MOV(BFRAME,R_WPARM);</text>
<polygon fill="none" stroke="black" points="227.89,-278 227.89,-318 423.89,-318 423.89,-278 227.89,-278"/>
</g>
<!-- 0&#45;&gt;10 -->
<g id="edge3" class="edge">
<title>0&#45;&gt;10</title>
<path fill="none" stroke="black" d="M362.79,-350.25C383.32,-346.57 410.32,-338 423.89,-318 433.88,-303.29 434.44,-292.31 423.89,-278 406.8,-254.82 374.52,-246.53 348.83,-243.78"/>
<polygon fill="black" stroke="black" points="349.17,-240.21 338.92,-242.89 348.61,-247.19 349.17,-240.21"/>
<polygon fill="none" stroke="black" points="433.89,-298 433.89,-315 701.89,-315 701.89,-298 433.89,-298"/>
<text text-anchor="start" x="522.39" y="-305" font-family="Courier New" font-weight="bold" font-size="10.00" fill="orange">WAIT(,SIG_SHOW)</text>
<polygon fill="none" stroke="black" points="433.89,-281 433.89,-296 701.89,-296 701.89,-281 433.89,-281"/>
<text text-anchor="start" x="436.89" y="-286.6" font-family="Times,serif" font-size="8.00" fill="blue">ASSIGN(BFRAME,6);REF_MACHINE(WIP1);MOV(BFRAME,R_WPARM);</text>
<polygon fill="none" stroke="black" points="430.89,-278 430.89,-318 704.89,-318 704.89,-278 430.89,-278"/>
</g>
<!-- 11 -->
<g id="node3" class="node">
<title>11</title>
<ellipse fill="none" stroke="black" cx="562.89" cy="-130" rx="27" ry="18"/>
<text text-anchor="middle" x="562.89" y="-126.3" font-family="Times,serif" font-size="14.00">11</text>
</g>
<!-- 10&#45;&gt;11 -->
<g id="edge4" class="edge">
<title>10&#45;&gt;11</title>
<path fill="none" stroke="black" d="M333.26,-231.24C378,-211.71 478.67,-167.77 530.58,-145.11"/>
<polygon fill="black" stroke="black" points="531.82,-147.95 539.58,-140.74 529.02,-141.53 531.82,-147.95"/>
<polygon fill="none" stroke="black" points="483.89,-186 483.89,-203 627.89,-203 627.89,-186 483.89,-186"/>
<text text-anchor="start" x="501.39" y="-193" font-family="Courier New" font-weight="bold" font-size="10.00" fill="blue">MOV(WTEMP1,BFRAME)</text>
<polygon fill="none" stroke="black" points="483.89,-169 483.89,-184 627.89,-184 627.89,-169 483.89,-169"/>
<text text-anchor="start" x="486.89" y="-174.6" font-family="Times,serif" font-size="8.00" fill="blue"> MAPi(WTEMP1,S06_COMPONENTB);</text>
<polygon fill="none" stroke="black" points="480.89,-166 480.89,-206 630.89,-206 630.89,-166 480.89,-166"/>
</g>
<!-- 12 -->
<g id="node4" class="node">
<title>12</title>
<ellipse fill="none" stroke="black" cx="648.89" cy="-18" rx="27" ry="18"/>
<text text-anchor="middle" x="648.89" y="-14.3" font-family="Times,serif" font-size="14.00">12</text>
</g>
<!-- 11&#45;&gt;12 -->
<g id="edge5" class="edge">
<title>11&#45;&gt;12</title>
<path fill="none" stroke="black" d="M558.14,-111.92C554.66,-95.6 552.33,-71.02 563.89,-54 574.66,-38.15 594.03,-29.47 611.56,-24.72"/>
<polygon fill="black" stroke="black" points="612.21,-27.93 621.15,-22.24 610.61,-21.11 612.21,-27.93"/>
<polygon fill="none" stroke="black" points="566.89,-74 566.89,-91 717.89,-91 717.89,-74 566.89,-74"/>
<text text-anchor="start" x="587.89" y="-81" font-family="Courier New" font-weight="bold" font-size="10.00" fill="blue">MOV(WTEMP2,WTEMP1)</text>
<polygon fill="none" stroke="black" points="566.89,-57 566.89,-72 717.89,-72 717.89,-57 566.89,-57"/>
<text text-anchor="start" x="569.89" y="-62.6" font-family="Times,serif" font-size="8.00" fill="blue">MAPi(WTEMP2,S06_CHEMFILMSTRIP);</text>
<polygon fill="none" stroke="black" points="563.89,-54 563.89,-94 720.89,-94 720.89,-54 563.89,-54"/>
</g>
<!-- 12&#45;&gt;0 -->
<g id="edge6" class="edge">
<title>12&#45;&gt;0</title>
<path fill="none" stroke="black" d="M674.56,-24.19C690.88,-28.97 710.79,-37.86 720.89,-54 783.2,-153.57 790.27,-233.3 708.89,-318 685.99,-341.84 464.22,-349.89 373.89,-352.19"/>
<polygon fill="black" stroke="black" points="373.96,-348.71 364.05,-352.46 374.13,-355.71 373.96,-348.71"/>
<polygon fill="none" stroke="black" points="770.89,-186 770.89,-203 885.89,-203 885.89,-186 770.89,-186"/>
<text text-anchor="start" x="773.89" y="-193" font-family="Courier New" font-weight="bold" font-size="10.00" fill="blue">MOV(BFRAME,WTEMP2)</text>
<polygon fill="none" stroke="black" points="770.89,-169 770.89,-184 885.89,-184 885.89,-169 770.89,-169"/>
<text text-anchor="start" x="786.39" y="-174.6" font-family="Times,serif" font-size="8.00" fill="blue">SHOW(0,IDS_CHEMS);</text>
<polygon fill="none" stroke="black" points="767.89,-166 767.89,-206 888.89,-206 888.89,-166 767.89,-166"/>
</g>
</g>
</svg>
