<?xml version="1.0" encoding="UTF-8" standalone="no"?>
<!DOCTYPE svg PUBLIC "-//W3C//DTD SVG 1.1//EN"
 "http://www.w3.org/Graphics/SVG/1.1/DTD/svg11.dtd">
<!-- Generated by graphviz version 8.0.1 (20230327.1645)
 -->
<!-- Pages: 1 -->
<svg width="269pt" height="590pt"
 viewBox="0.00 0.00 269.00 590.00" xmlns="http://www.w3.org/2000/svg" xmlns:xlink="http://www.w3.org/1999/xlink">
<g id="graph0" class="graph" transform="scale(1 1) rotate(0) translate(4 586)">
<polygon fill="white" stroke="none" points="-4,4 -4,-586 265,-586 265,4 -4,4"/>
<!-- 0 -->
<g id="node1" class="node">
<title>0</title>
<ellipse fill="none" stroke="black" cx="132" cy="-564" rx="27" ry="18"/>
<text text-anchor="middle" x="132" y="-560.3" font-family="Times,serif" font-size="14.00">0</text>
</g>
<!-- 1 -->
<g id="node2" class="node">
<title>1</title>
<ellipse fill="none" stroke="black" cx="66" cy="-473" rx="27" ry="18"/>
<text text-anchor="middle" x="66" y="-469.3" font-family="Times,serif" font-size="14.00">1</text>
</g>
<!-- 0&#45;&gt;1 -->
<g id="edge1" class="edge">
<title>0&#45;&gt;1</title>
<path fill="none" stroke="black" d="M120.5,-547.5C110.44,-533.93 95.65,-513.98 84.01,-498.29"/>
<polygon fill="black" stroke="black" points="86.35,-496.57 77.59,-490.62 80.73,-500.74 86.35,-496.57"/>
<text text-anchor="start" x="109" y="-517" font-family="Courier New" font-weight="bold" font-size="10.00" fill="orange">WAIT(0,0)</text>
</g>
<!-- 2 -->
<g id="node3" class="node">
<title>2</title>
<ellipse fill="none" stroke="black" cx="39" cy="-382" rx="27" ry="18"/>
<text text-anchor="middle" x="39" y="-378.3" font-family="Times,serif" font-size="14.00">2</text>
</g>
<!-- 1&#45;&gt;2 -->
<g id="edge2" class="edge">
<title>1&#45;&gt;2</title>
<path fill="none" stroke="black" d="M60.79,-454.84C56.98,-442.28 51.74,-424.98 47.34,-410.5"/>
<polygon fill="black" stroke="black" points="50.44,-409.66 44.19,-401.11 43.74,-411.69 50.44,-409.66"/>
<text text-anchor="start" x="59" y="-426" font-family="Courier New" font-weight="bold" font-size="10.00" fill="blue">MOV(BFRAME,WTEMP1)</text>
</g>
<!-- 3 -->
<g id="node4" class="node">
<title>3</title>
<ellipse fill="none" stroke="black" cx="27" cy="-291" rx="27" ry="18"/>
<text text-anchor="middle" x="27" y="-287.3" font-family="Times,serif" font-size="14.00">3</text>
</g>
<!-- 2&#45;&gt;3 -->
<g id="edge3" class="edge">
<title>2&#45;&gt;3</title>
<path fill="none" stroke="black" d="M24.73,-366.2C20.04,-360.38 15.42,-353.33 13,-346 10.06,-337.11 11.34,-327.23 14.07,-318.38"/>
<polygon fill="black" stroke="black" points="17.64,-319.82 17.93,-309.23 11.1,-317.33 17.64,-319.82"/>
<text text-anchor="start" x="17" y="-335" font-family="Courier New" font-weight="bold" font-size="10.00" fill="blue">MAPi(BFRAME,TEMPLATE_CHEM2)</text>
</g>
<!-- 4 -->
<g id="node5" class="node">
<title>4</title>
<ellipse fill="none" stroke="black" cx="74" cy="-200" rx="27" ry="18"/>
<text text-anchor="middle" x="74" y="-196.3" font-family="Times,serif" font-size="14.00">4</text>
</g>
<!-- 3&#45;&gt;4 -->
<g id="edge4" class="edge">
<title>3&#45;&gt;4</title>
<path fill="none" stroke="black" d="M35.62,-273.68C42.53,-260.59 52.36,-241.97 60.35,-226.85"/>
<polygon fill="black" stroke="black" points="63.7,-229 65.27,-218.52 57.51,-225.73 63.7,-229"/>
<text text-anchor="start" x="59" y="-244" font-family="Courier New" font-weight="bold" font-size="10.00" fill="blue">SHOW(0,IDS_CHEMS)</text>
</g>
<!-- 5 -->
<g id="node6" class="node">
<title>5</title>
<ellipse fill="none" stroke="black" cx="87" cy="-109" rx="27" ry="18"/>
<text text-anchor="middle" x="87" y="-105.3" font-family="Times,serif" font-size="14.00">5</text>
</g>
<!-- 4&#45;&gt;5 -->
<g id="edge5" class="edge">
<title>4&#45;&gt;5</title>
<path fill="none" stroke="black" d="M76.51,-181.84C78.31,-169.48 80.79,-152.54 82.88,-138.21"/>
<polygon fill="black" stroke="black" points="86.47,-138.81 84.46,-128.41 79.55,-137.8 86.47,-138.81"/>
<text text-anchor="start" x="86" y="-153" font-family="Courier New" font-weight="bold" font-size="10.00" fill="orange">WAIT(0,0)</text>
</g>
<!-- 6 -->
<g id="node7" class="node">
<title>6</title>
<ellipse fill="none" stroke="black" cx="143" cy="-18" rx="27" ry="18"/>
<text text-anchor="middle" x="143" y="-14.3" font-family="Times,serif" font-size="14.00">6</text>
</g>
<!-- 5&#45;&gt;6 -->
<g id="edge6" class="edge">
<title>5&#45;&gt;6</title>
<path fill="none" stroke="black" d="M84.58,-90.82C83.85,-79.6 84.58,-65.06 91,-54 95.75,-45.82 103.28,-39.15 111.14,-33.92"/>
<polygon fill="black" stroke="black" points="112.57,-36.55 119.39,-28.43 109,-30.53 112.57,-36.55"/>
<text text-anchor="start" x="95" y="-62" font-family="Courier New" font-weight="bold" font-size="10.00" fill="blue">CLEAR(BFRAME,)</text>
</g>
<!-- 6&#45;&gt;0 -->
<g id="edge7" class="edge">
<title>6&#45;&gt;0</title>
<path fill="none" stroke="black" d="M162.05,-31.33C169.9,-37.3 178.44,-45.11 184,-54 197.15,-75.02 198,-83.21 198,-108 198,-474 198,-474 198,-474 198,-502.03 176.62,-526.98 158.2,-543.28"/>
<polygon fill="black" stroke="black" points="156.44,-541.03 151.03,-550.14 160.94,-546.39 156.44,-541.03"/>
<text text-anchor="start" x="202" y="-289.5" font-family="Courier New" font-weight="bold" font-size="10.00" fill="blue">SHOW(0,0)</text>
</g>
</g>
</svg>
