<?xml version="1.0" encoding="UTF-8" standalone="no"?>
<!DOCTYPE svg PUBLIC "-//W3C//DTD SVG 1.1//EN"
 "http://www.w3.org/Graphics/SVG/1.1/DTD/svg11.dtd">
<!-- Generated by graphviz version 8.0.1 (20230327.1645)
 -->
<!-- Pages: 1 -->
<svg width="351pt" height="475pt"
 viewBox="0.00 0.00 351.00 475.00" xmlns="http://www.w3.org/2000/svg" xmlns:xlink="http://www.w3.org/1999/xlink">
<g id="graph0" class="graph" transform="scale(1 1) rotate(0) translate(4 471)">
<polygon fill="white" stroke="none" points="-4,4 -4,-471 347,-471 347,4 -4,4"/>
<!-- 0 -->
<g id="node1" class="node">
<title>0</title>
<ellipse fill="none" stroke="black" cx="120" cy="-449" rx="27" ry="18"/>
<text text-anchor="middle" x="120" y="-445.3" font-family="Times,serif" font-size="14.00">0</text>
</g>
<!-- 5 -->
<g id="node2" class="node">
<title>5</title>
<ellipse fill="none" stroke="black" cx="38" cy="-358" rx="27" ry="18"/>
<text text-anchor="middle" x="38" y="-354.3" font-family="Times,serif" font-size="14.00">5</text>
</g>
<!-- 0&#45;&gt;5 -->
<g id="edge1" class="edge">
<title>0&#45;&gt;5</title>
<path fill="none" stroke="black" d="M106.46,-433.3C93.52,-419.26 73.83,-397.89 58.88,-381.67"/>
<polygon fill="black" stroke="black" points="61.91,-379.7 52.56,-374.72 56.76,-384.44 61.91,-379.7"/>
<text text-anchor="start" x="91" y="-402" font-family="Courier New" font-weight="bold" font-size="10.00" fill="orange">WAIT(,SIG_EJECT)</text>
</g>
<!-- 7 -->
<g id="node5" class="node">
<title>7</title>
<ellipse fill="none" stroke="black" cx="27" cy="-244" rx="27" ry="18"/>
<text text-anchor="middle" x="27" y="-240.3" font-family="Times,serif" font-size="14.00">7</text>
</g>
<!-- 5&#45;&gt;7 -->
<g id="edge4" class="edge">
<title>5&#45;&gt;7</title>
<path fill="none" stroke="black" d="M26.77,-341.38C23.24,-335.58 19.8,-328.76 18,-322 13.73,-305.93 15.68,-287.45 18.84,-272.61"/>
<polygon fill="black" stroke="black" points="22.43,-273.63 21.4,-263.08 15.63,-271.97 22.43,-273.63"/>
<polygon fill="none" stroke="black" points="21,-302 21,-319 205,-319 205,-302 21,-302"/>
<text text-anchor="start" x="55.5" y="-309" font-family="Courier New" font-weight="bold" font-size="10.00" fill="blue">SHOW(0,IDS_CARDANI)</text>
<polygon fill="none" stroke="black" points="21,-285 21,-300 205,-300 205,-285 21,-285"/>
<text text-anchor="start" x="24" y="-290.6" font-family="Times,serif" font-size="8.00" fill="blue">ANIMATE(0);PLAYWAVE(SOUND_CARDEJECT);</text>
<polygon fill="none" stroke="black" points="18,-282 18,-322 208,-322 208,-282 18,-282"/>
</g>
<!-- 11 -->
<g id="node3" class="node">
<title>11</title>
<ellipse fill="none" stroke="black" cx="57" cy="-130" rx="27" ry="18"/>
<text text-anchor="middle" x="57" y="-126.3" font-family="Times,serif" font-size="14.00">11</text>
</g>
<!-- 20 -->
<g id="node4" class="node">
<title>20</title>
<ellipse fill="none" stroke="black" cx="140" cy="-18" rx="27" ry="18"/>
<text text-anchor="middle" x="140" y="-14.3" font-family="Times,serif" font-size="14.00">20</text>
</g>
<!-- 11&#45;&gt;20 -->
<g id="edge2" class="edge">
<title>11&#45;&gt;20</title>
<path fill="none" stroke="black" d="M53.17,-111.9C50.52,-95.56 49.31,-70.96 61,-54 70.75,-39.85 87.6,-31.36 103.23,-26.29"/>
<polygon fill="black" stroke="black" points="104.1,-29.4 112.76,-23.3 102.19,-22.66 104.1,-29.4"/>
<polygon fill="none" stroke="black" points="64,-74 64,-91 205,-91 205,-74 64,-74"/>
<text text-anchor="start" x="74" y="-81" font-family="Courier New" font-weight="bold" font-size="10.00" fill="blue">MOV(WOBJECT,R_WPARM)</text>
<polygon fill="none" stroke="black" points="64,-57 64,-72 205,-72 205,-57 64,-57"/>
<text text-anchor="start" x="67" y="-62.6" font-family="Times,serif" font-size="8.00" fill="blue">MAPi(WOBJECT,S06_CARD_INDEX);</text>
<polygon fill="none" stroke="black" points="61,-54 61,-94 208,-94 208,-54 61,-54"/>
</g>
<!-- 20&#45;&gt;0 -->
<g id="edge3" class="edge">
<title>20&#45;&gt;0</title>
<path fill="none" stroke="black" d="M164.71,-25.67C179.51,-30.94 197.45,-39.84 208,-54 228.25,-81.2 222,-95.09 222,-129 222,-359 222,-359 222,-359 222,-385.64 215,-394.33 196,-413 184.58,-424.23 168.9,-432.27 154.75,-437.8"/>
<polygon fill="black" stroke="black" points="154.02,-434.7 145.8,-441.39 156.39,-441.29 154.02,-434.7"/>
<polygon fill="none" stroke="black" points="225,-244 225,-261 340,-261 340,-244 225,-244"/>
<text text-anchor="start" x="240" y="-251" font-family="Courier New" font-weight="bold" font-size="10.00" fill="orange">GRAB(WOBJECT,)</text>
<polygon fill="none" stroke="black" points="225,-227 225,-242 340,-242 340,-227 225,-227"/>
<text text-anchor="start" x="228" y="-232.6" font-family="Times,serif" font-size="8.00" fill="blue">CLEAR(WSPRITE); SHOW(0);</text>
<polygon fill="none" stroke="black" points="222,-224 222,-264 343,-264 343,-224 222,-224"/>
</g>
<!-- 7&#45;&gt;11 -->
<g id="edge5" class="edge">
<title>7&#45;&gt;11</title>
<path fill="none" stroke="black" d="M31.56,-225.99C36.34,-208.15 43.92,-179.82 49.57,-158.73"/>
<polygon fill="black" stroke="black" points="53.19,-159.74 52.4,-149.17 46.43,-157.92 53.19,-159.74"/>
<polygon fill="none" stroke="black" points="51,-186 51,-203 196,-203 196,-186 51,-186"/>
<text text-anchor="start" x="54" y="-193" font-family="Courier New" font-weight="bold" font-size="10.00" fill="blue">MOV(WOBJECT,IDD_CARD01)</text>
<polygon fill="none" stroke="black" points="51,-169 51,-184 196,-184 196,-169 51,-169"/>
<text text-anchor="start" x="81" y="-174.6" font-family="Times,serif" font-size="8.00" fill="blue">REF_MACHINE(WIP1);</text>
<polygon fill="none" stroke="black" points="48,-166 48,-206 199,-206 199,-166 48,-166"/>
</g>
</g>
</svg>
