<?xml version="1.0" encoding="UTF-8" standalone="no"?>
<!DOCTYPE svg PUBLIC "-//W3C//DTD SVG 1.1//EN"
 "http://www.w3.org/Graphics/SVG/1.1/DTD/svg11.dtd">
<!-- Generated by graphviz version 8.0.1 (20230327.1645)
 -->
<!-- Pages: 1 -->
<svg width="368pt" height="489pt"
 viewBox="0.00 0.00 368.00 489.00" xmlns="http://www.w3.org/2000/svg" xmlns:xlink="http://www.w3.org/1999/xlink">
<g id="graph0" class="graph" transform="scale(1 1) rotate(0) translate(4 485)">
<polygon fill="white" stroke="none" points="-4,4 -4,-485 364,-485 364,4 -4,4"/>
<!-- 0 -->
<g id="node1" class="node">
<title>0</title>
<ellipse fill="none" stroke="black" cx="113" cy="-463" rx="27" ry="18"/>
<text text-anchor="middle" x="113" y="-459.3" font-family="Times,serif" font-size="14.00">0</text>
</g>
<!-- 10 -->
<g id="node2" class="node">
<title>10</title>
<ellipse fill="none" stroke="black" cx="113" cy="-372" rx="27" ry="18"/>
<text text-anchor="middle" x="113" y="-368.3" font-family="Times,serif" font-size="14.00">10</text>
</g>
<!-- 0&#45;&gt;10 -->
<g id="edge1" class="edge">
<title>0&#45;&gt;10</title>
<path fill="none" stroke="black" d="M113,-444.84C113,-432.48 113,-415.54 113,-401.21"/>
<polygon fill="black" stroke="black" points="116.5,-401.41 113,-391.41 109.5,-401.41 116.5,-401.41"/>
<text text-anchor="start" x="117" y="-416" font-family="Courier New" font-weight="bold" font-size="10.00" fill="blue">C_ACCEPT(0,IDC_CARD)</text>
</g>
<!-- 20 -->
<g id="node3" class="node">
<title>20</title>
<ellipse fill="none" stroke="black" cx="27" cy="-168" rx="27" ry="18"/>
<text text-anchor="middle" x="27" y="-164.3" font-family="Times,serif" font-size="14.00">20</text>
</g>
<!-- 10&#45;&gt;20 -->
<g id="edge2" class="edge">
<title>10&#45;&gt;20</title>
<path fill="none" stroke="black" d="M86.62,-367.87C66.84,-363.99 41.02,-355.32 28,-336 -0.22,-294.13 9.49,-231.94 18.59,-196.46"/>
<polygon fill="black" stroke="black" points="22.2,-197.5 21.47,-186.93 15.45,-195.65 22.2,-197.5"/>
<polygon fill="none" stroke="black" points="31,-316 31,-333 182,-333 182,-316 31,-316"/>
<text text-anchor="start" x="79" y="-323" font-family="Courier New" font-weight="bold" font-size="10.00" fill="orange">DROP(0,0)</text>
<polygon fill="none" stroke="black" points="31,-227 31,-314 182,-314 182,-227 31,-227"/>
<text text-anchor="start" x="34" y="-304.6" font-family="Times,serif" font-size="8.00" fill="blue"> &#160;&#160;&#160;SHOW(0,IDS_CARDANI);</text>
<text text-anchor="start" x="34" y="-295.6" font-family="Times,serif" font-size="8.00" fill="blue"> &#160;&#160;&#160;ANIMATE(0,V_REVERSE);</text>
<text text-anchor="start" x="34" y="-286.6" font-family="Times,serif" font-size="8.00" fill="blue"> &#160;&#160;&#160;PLAYWAVE(0,SOUND_CARDEJECT);</text>
<text text-anchor="start" x="34" y="-277.6" font-family="Times,serif" font-size="8.00" fill="blue"> &#160;&#160;&#160;MOV(WPARM,WOBJECT);</text>
<text text-anchor="start" x="34" y="-268.6" font-family="Times,serif" font-size="8.00" fill="blue"> &#160;&#160;&#160;SUBI(WPARM,IDD_TEMPLATE01);</text>
<text text-anchor="start" x="34" y="-259.6" font-family="Times,serif" font-size="8.00" fill="blue"> &#160;&#160;&#160;SIGNAL(WIP1);</text>
<text text-anchor="start" x="34" y="-250.6" font-family="Times,serif" font-size="8.00" fill="blue"> &#160;&#160;&#160;SIGNAL(WIP2, SIG_SET);</text>
<text text-anchor="start" x="34" y="-241.6" font-family="Times,serif" font-size="8.00" fill="blue"> &#160;&#160;&#160;SIGNAL(WIP3, SIG_SET);</text>
<text text-anchor="start" x="34" y="-232.6" font-family="Times,serif" font-size="8.00" fill="blue"> &#160;&#160;&#160;</text>
<polygon fill="none" stroke="black" points="28,-224 28,-336 185,-336 185,-224 28,-224"/>
</g>
<!-- 30 -->
<g id="node4" class="node">
<title>30</title>
<ellipse fill="none" stroke="black" cx="113" cy="-18" rx="27" ry="18"/>
<text text-anchor="middle" x="113" y="-14.3" font-family="Times,serif" font-size="14.00">30</text>
</g>
<!-- 20&#45;&gt;30 -->
<g id="edge3" class="edge">
<title>20&#45;&gt;30</title>
<path fill="none" stroke="black" d="M21.77,-149.98C15.6,-126.26 8.44,-82.93 28,-54 38.73,-38.12 58.1,-29.44 75.64,-24.7"/>
<polygon fill="black" stroke="black" points="76.29,-27.91 85.23,-22.22 74.69,-21.09 76.29,-27.91"/>
<polygon fill="none" stroke="black" points="31,-92 31,-109 182,-109 182,-92 31,-92"/>
<text text-anchor="start" x="82" y="-99" font-family="Courier New" font-weight="bold" font-size="10.00" fill="orange">CLICK(,)</text>
<polygon fill="none" stroke="black" points="31,-57 31,-90 182,-90 182,-57 31,-57"/>
<text text-anchor="start" x="34" y="-80.6" font-family="Times,serif" font-size="8.00" fill="blue"> &#160;&#160;&#160;SHOW(0,IDS_CARDANI);</text>
<text text-anchor="start" x="34" y="-71.6" font-family="Times,serif" font-size="8.00" fill="blue"> &#160;&#160;&#160;ANIMATE();</text>
<text text-anchor="start" x="34" y="-62.6" font-family="Times,serif" font-size="8.00" fill="blue"> &#160;&#160;&#160;PLAYWAVE(0,SOUND_CARDEJECT);</text>
<polygon fill="none" stroke="black" points="28,-54 28,-112 185,-112 185,-54 28,-54"/>
</g>
<!-- 30&#45;&gt;10 -->
<g id="edge4" class="edge">
<title>30&#45;&gt;10</title>
<path fill="none" stroke="black" d="M138.66,-24.19C154.99,-28.97 174.9,-37.86 185,-54 251.49,-160.25 251.49,-229.75 185,-336 176.95,-348.86 162.67,-357.12 148.94,-362.36"/>
<polygon fill="black" stroke="black" points="148.03,-359.31 139.66,-365.81 150.26,-365.95 148.03,-359.31"/>
<polygon fill="none" stroke="black" points="237,-186 237,-203 357,-203 357,-186 237,-186"/>
<text text-anchor="start" x="269.5" y="-193" font-family="Courier New" font-weight="bold" font-size="10.00" fill="orange">GRAB(0,0)</text>
<polygon fill="none" stroke="black" points="237,-133 237,-184 357,-184 357,-133 237,-133"/>
<text text-anchor="start" x="240" y="-174.6" font-family="Times,serif" font-size="8.00" fill="blue"> &#160;&#160;&#160;CLEAR(WOBJECT);</text>
<text text-anchor="start" x="240" y="-165.6" font-family="Times,serif" font-size="8.00" fill="blue"> &#160;&#160;&#160;CLEAR(WPARM);</text>
<text text-anchor="start" x="240" y="-156.6" font-family="Times,serif" font-size="8.00" fill="blue"> &#160;&#160;&#160;SHOW();</text>
<text text-anchor="start" x="240" y="-147.6" font-family="Times,serif" font-size="8.00" fill="blue"> &#160;&#160;&#160;SIGNAL(WIP2,SIG_CLEAR);</text>
<text text-anchor="start" x="240" y="-138.6" font-family="Times,serif" font-size="8.00" fill="blue"> &#160;&#160;&#160;SIGNAL(WIP3,SIG_CLEAR);</text>
<polygon fill="none" stroke="black" points="234,-130 234,-206 360,-206 360,-130 234,-130"/>
</g>
</g>
</svg>
