<?xml version="1.0" encoding="UTF-8" standalone="no"?>
<!DOCTYPE svg PUBLIC "-//W3C//DTD SVG 1.1//EN"
 "http://www.w3.org/Graphics/SVG/1.1/DTD/svg11.dtd">
<!-- Generated by graphviz version 8.0.1 (20230327.1645)
 -->
<!-- Pages: 1 -->
<svg width="309pt" height="954pt"
 viewBox="0.00 0.00 309.00 954.00" xmlns="http://www.w3.org/2000/svg" xmlns:xlink="http://www.w3.org/1999/xlink">
<g id="graph0" class="graph" transform="scale(1 1) rotate(0) translate(4 950)">
<polygon fill="white" stroke="none" points="-4,4 -4,-950 305,-950 305,4 -4,4"/>
<!-- 0 -->
<g id="node1" class="node">
<title>0</title>
<ellipse fill="none" stroke="black" cx="148" cy="-928" rx="27" ry="18"/>
<text text-anchor="middle" x="148" y="-924.3" font-family="Times,serif" font-size="14.00">0</text>
</g>
<!-- 10 -->
<g id="node2" class="node">
<title>10</title>
<ellipse fill="none" stroke="black" cx="148" cy="-837" rx="27" ry="18"/>
<text text-anchor="middle" x="148" y="-833.3" font-family="Times,serif" font-size="14.00">10</text>
</g>
<!-- 0&#45;&gt;10 -->
<g id="edge1" class="edge">
<title>0&#45;&gt;10</title>
<path fill="none" stroke="black" d="M148,-909.84C148,-897.48 148,-880.54 148,-866.21"/>
<polygon fill="black" stroke="black" points="151.5,-866.41 148,-856.41 144.5,-866.41 151.5,-866.41"/>
<text text-anchor="start" x="152" y="-881" font-family="Courier New" font-weight="bold" font-size="10.00" fill="blue">C_ACCEPT(0,IDC_TEMPLATE)</text>
</g>
<!-- 11 -->
<g id="node3" class="node">
<title>11</title>
<ellipse fill="none" stroke="black" cx="83" cy="-746" rx="27" ry="18"/>
<text text-anchor="middle" x="83" y="-742.3" font-family="Times,serif" font-size="14.00">11</text>
</g>
<!-- 10&#45;&gt;11 -->
<g id="edge2" class="edge">
<title>10&#45;&gt;11</title>
<path fill="none" stroke="black" d="M136.68,-820.5C126.77,-806.93 112.2,-786.98 100.74,-771.29"/>
<polygon fill="black" stroke="black" points="103.13,-769.63 94.41,-763.62 97.48,-773.76 103.13,-769.63"/>
<text text-anchor="start" x="126" y="-790" font-family="Courier New" font-weight="bold" font-size="10.00" fill="orange">DROP(0,0)</text>
</g>
<!-- 12 -->
<g id="node4" class="node">
<title>12</title>
<ellipse fill="none" stroke="black" cx="58" cy="-655" rx="27" ry="18"/>
<text text-anchor="middle" x="58" y="-651.3" font-family="Times,serif" font-size="14.00">12</text>
</g>
<!-- 11&#45;&gt;12 -->
<g id="edge3" class="edge">
<title>11&#45;&gt;12</title>
<path fill="none" stroke="black" d="M78.18,-727.84C74.65,-715.28 69.79,-697.98 65.73,-683.5"/>
<polygon fill="black" stroke="black" points="68.88,-682.79 62.81,-674.11 62.14,-684.68 68.88,-682.79"/>
<text text-anchor="start" x="77" y="-699" font-family="Courier New" font-weight="bold" font-size="10.00" fill="blue">SHOW(0,IDS_TMORPH)</text>
</g>
<!-- 13 -->
<g id="node5" class="node">
<title>13</title>
<ellipse fill="none" stroke="black" cx="33" cy="-564" rx="27" ry="18"/>
<text text-anchor="middle" x="33" y="-560.3" font-family="Times,serif" font-size="14.00">13</text>
</g>
<!-- 12&#45;&gt;13 -->
<g id="edge4" class="edge">
<title>12&#45;&gt;13</title>
<path fill="none" stroke="black" d="M45.49,-638.91C41.37,-633.06 37.26,-626.06 35,-619 32.41,-610.89 31.4,-601.74 31.19,-593.32"/>
<polygon fill="black" stroke="black" points="34.69,-593.47 31.3,-583.43 27.7,-593.39 34.69,-593.47"/>
<text text-anchor="start" x="39" y="-608" font-family="Courier New" font-weight="bold" font-size="10.00" fill="blue">ANIMATE(0,V_LOOP|V_REWIND)</text>
</g>
<!-- 14 -->
<g id="node6" class="node">
<title>14</title>
<ellipse fill="none" stroke="black" cx="27" cy="-473" rx="27" ry="18"/>
<text text-anchor="middle" x="27" y="-469.3" font-family="Times,serif" font-size="14.00">14</text>
</g>
<!-- 13&#45;&gt;14 -->
<g id="edge5" class="edge">
<title>13&#45;&gt;14</title>
<path fill="none" stroke="black" d="M31.84,-545.84C31.01,-533.48 29.87,-516.54 28.9,-502.21"/>
<polygon fill="black" stroke="black" points="32.34,-502.15 28.17,-492.41 25.35,-502.62 32.34,-502.15"/>
<text text-anchor="start" x="35" y="-517" font-family="Courier New" font-weight="bold" font-size="10.00" fill="blue">MOV(WPARM,WOBJECT)</text>
</g>
<!-- 15 -->
<g id="node7" class="node">
<title>15</title>
<ellipse fill="none" stroke="black" cx="28" cy="-382" rx="27" ry="18"/>
<text text-anchor="middle" x="28" y="-378.3" font-family="Times,serif" font-size="14.00">15</text>
</g>
<!-- 14&#45;&gt;15 -->
<g id="edge6" class="edge">
<title>14&#45;&gt;15</title>
<path fill="none" stroke="black" d="M26.88,-454.97C26.83,-444.34 26.82,-430.37 27,-418 27.03,-415.86 27.07,-413.64 27.12,-411.41"/>
<polygon fill="black" stroke="black" points="30.64,-411.53 27.4,-401.44 23.65,-411.35 30.64,-411.53"/>
<text text-anchor="start" x="31" y="-426" font-family="Courier New" font-weight="bold" font-size="10.00" fill="blue">SUBI(WPARM,IDD_TEMPLATE01)</text>
</g>
<!-- 16 -->
<g id="node8" class="node">
<title>16</title>
<ellipse fill="none" stroke="black" cx="83" cy="-291" rx="27" ry="18"/>
<text text-anchor="middle" x="83" y="-287.3" font-family="Times,serif" font-size="14.00">16</text>
</g>
<!-- 15&#45;&gt;16 -->
<g id="edge7" class="edge">
<title>15&#45;&gt;16</title>
<path fill="none" stroke="black" d="M37.83,-365.09C46.07,-351.76 57.98,-332.49 67.5,-317.08"/>
<polygon fill="black" stroke="black" points="70.79,-319.42 73.07,-309.07 64.83,-315.74 70.79,-319.42"/>
<text text-anchor="start" x="65" y="-335" font-family="Courier New" font-weight="bold" font-size="10.00" fill="blue">SIGNAL(WIP1,)</text>
</g>
<!-- 17 -->
<g id="node9" class="node">
<title>17</title>
<ellipse fill="none" stroke="black" cx="97" cy="-200" rx="27" ry="18"/>
<text text-anchor="middle" x="97" y="-196.3" font-family="Times,serif" font-size="14.00">17</text>
</g>
<!-- 16&#45;&gt;17 -->
<g id="edge8" class="edge">
<title>16&#45;&gt;17</title>
<path fill="none" stroke="black" d="M85.7,-272.84C87.66,-260.4 90.34,-243.32 92.61,-228.93"/>
<polygon fill="black" stroke="black" points="96.21,-229.53 94.31,-219.11 89.3,-228.44 96.21,-229.53"/>
<text text-anchor="start" x="96" y="-244" font-family="Courier New" font-weight="bold" font-size="10.00" fill="orange">GRAB(0,0)</text>
</g>
<!-- 18 -->
<g id="node10" class="node">
<title>18</title>
<ellipse fill="none" stroke="black" cx="103" cy="-109" rx="27" ry="18"/>
<text text-anchor="middle" x="103" y="-105.3" font-family="Times,serif" font-size="14.00">18</text>
</g>
<!-- 17&#45;&gt;18 -->
<g id="edge9" class="edge">
<title>17&#45;&gt;18</title>
<path fill="none" stroke="black" d="M98.16,-181.84C98.99,-169.48 100.13,-152.54 101.1,-138.21"/>
<polygon fill="black" stroke="black" points="104.65,-138.62 101.83,-128.41 97.66,-138.15 104.65,-138.62"/>
<text text-anchor="start" x="105" y="-153" font-family="Courier New" font-weight="bold" font-size="10.00" fill="blue">CLEAR(WOBJECT,)</text>
</g>
<!-- 19 -->
<g id="node11" class="node">
<title>19</title>
<ellipse fill="none" stroke="black" cx="160" cy="-18" rx="27" ry="18"/>
<text text-anchor="middle" x="160" y="-14.3" font-family="Times,serif" font-size="14.00">19</text>
</g>
<!-- 18&#45;&gt;19 -->
<g id="edge10" class="edge">
<title>18&#45;&gt;19</title>
<path fill="none" stroke="black" d="M103.03,-90.54C103.79,-79.35 106.2,-64.93 113,-54 117.36,-46.99 123.68,-40.91 130.28,-35.88"/>
<polygon fill="black" stroke="black" points="132.04,-38.22 138.28,-29.66 128.06,-32.46 132.04,-38.22"/>
<text text-anchor="start" x="117" y="-62" font-family="Courier New" font-weight="bold" font-size="10.00" fill="blue">CLEAR(WPARM,)</text>
</g>
<!-- 19&#45;&gt;10 -->
<g id="edge11" class="edge">
<title>19&#45;&gt;10</title>
<path fill="none" stroke="black" d="M178.58,-31.42C186.24,-37.41 194.57,-45.2 200,-54 213.02,-75.1 214,-83.21 214,-108 214,-747 214,-747 214,-747 214,-775.03 192.62,-799.98 174.2,-816.28"/>
<polygon fill="black" stroke="black" points="172.44,-814.03 167.03,-823.14 176.94,-819.39 172.44,-814.03"/>
<text text-anchor="start" x="218" y="-426" font-family="Courier New" font-weight="bold" font-size="10.00" fill="blue">SHOW(0,0)</text>
</g>
</g>
</svg>
