<?xml version="1.0" encoding="UTF-8" standalone="no"?>
<!DOCTYPE svg PUBLIC "-//W3C//DTD SVG 1.1//EN"
 "http://www.w3.org/Graphics/SVG/1.1/DTD/svg11.dtd">
<!-- Generated by graphviz version 8.0.1 (20230327.1645)
 -->
<!-- Pages: 1 -->
<svg width="506pt" height="274pt"
 viewBox="0.00 0.00 506.10 274.00" xmlns="http://www.w3.org/2000/svg" xmlns:xlink="http://www.w3.org/1999/xlink">
<g id="graph0" class="graph" transform="scale(1 1) rotate(0) translate(4 270)">
<polygon fill="white" stroke="none" points="-4,4 -4,-270 502.1,-270 502.1,4 -4,4"/>
<!-- 0 -->
<g id="node1" class="node">
<title>0</title>
<ellipse fill="none" stroke="black" cx="183.1" cy="-248" rx="27" ry="18"/>
<text text-anchor="middle" x="183.1" y="-244.3" font-family="Times,serif" font-size="14.00">0</text>
</g>
<!-- 1 -->
<g id="node2" class="node">
<title>1</title>
<ellipse fill="none" stroke="black" cx="183.1" cy="-157" rx="27" ry="18"/>
<text text-anchor="middle" x="183.1" y="-153.3" font-family="Times,serif" font-size="14.00">1</text>
</g>
<!-- 0&#45;&gt;1 -->
<g id="edge1" class="edge">
<title>0&#45;&gt;1</title>
<path fill="none" stroke="black" d="M183.1,-229.84C183.1,-217.48 183.1,-200.54 183.1,-186.21"/>
<polygon fill="black" stroke="black" points="186.6,-186.41 183.1,-176.41 179.6,-186.41 186.6,-186.41"/>
<text text-anchor="start" x="187.1" y="-201" font-family="Courier New" font-weight="bold" font-size="10.00" fill="blue">SHOW(0,IDS_FLOPN1)</text>
</g>
<!-- 30 -->
<g id="node3" class="node">
<title>30</title>
<ellipse fill="none" stroke="black" cx="183.1" cy="-18" rx="27" ry="18"/>
<text text-anchor="middle" x="183.1" y="-14.3" font-family="Times,serif" font-size="14.00">30</text>
</g>
<!-- 1&#45;&gt;30 -->
<g id="edge2" class="edge">
<title>1&#45;&gt;30</title>
<path fill="none" stroke="black" d="M156.05,-154.43C112.94,-151.29 31.69,-142.61 14.1,-121 -4.7,-97.91 -4.7,-77.09 14.1,-54 30.32,-34.08 100.63,-25.14 145.29,-21.41"/>
<polygon fill="black" stroke="black" points="145.35,-24.84 155.05,-20.57 144.81,-17.86 145.35,-24.84"/>
<polygon fill="none" stroke="black" points="17.1,-96.5 17.1,-113.5 158.1,-113.5 158.1,-96.5 17.1,-96.5"/>
<text text-anchor="start" x="42.1" y="-103.5" font-family="Courier New" font-weight="bold" font-size="10.00" fill="orange">WAIT(,SIG_OPEN)</text>
<polygon fill="none" stroke="black" points="17.1,-61.5 17.1,-94.5 158.1,-94.5 158.1,-61.5 17.1,-61.5"/>
<text text-anchor="start" x="20.1" y="-85.1" font-family="Times,serif" font-size="8.00" fill="blue"> &#160;&#160;&#160;PLAYWAVE(SOUND_BUZZFUZZ);</text>
<text text-anchor="start" x="20.1" y="-76.1" font-family="Times,serif" font-size="8.00" fill="blue"> &#160;&#160;&#160;SHOW(0,IDS_FLOPN1);</text>
<text text-anchor="start" x="20.1" y="-67.1" font-family="Times,serif" font-size="8.00" fill="blue"> &#160;&#160;&#160;ANIMATE();</text>
<polygon fill="none" stroke="black" points="14.1,-58.5 14.1,-116.5 161.1,-116.5 161.1,-58.5 14.1,-58.5"/>
</g>
<!-- 30&#45;&gt;1 -->
<g id="edge3" class="edge">
<title>30&#45;&gt;1</title>
<path fill="none" stroke="black" d="M183.1,-36.21C183.1,-59.2 183.1,-100.21 183.1,-127.76"/>
<polygon fill="black" stroke="black" points="179.6,-127.65 183.1,-137.65 186.6,-127.65 179.6,-127.65"/>
<polygon fill="none" stroke="black" points="186.1,-101 186.1,-118 334.1,-118 334.1,-101 186.1,-101"/>
<text text-anchor="start" x="214.6" y="-108" font-family="Courier New" font-weight="bold" font-size="10.00" fill="orange">GRAB(,IDD_SEED)</text>
<polygon fill="none" stroke="black" points="186.1,-57 186.1,-99 334.1,-99 334.1,-57 186.1,-57"/>
<text text-anchor="start" x="189.1" y="-89.6" font-family="Times,serif" font-size="8.00" fill="blue"> &#160;&#160;&#160;PLAYWAVE(SOUND_BUZZFUZZ);</text>
<text text-anchor="start" x="189.1" y="-80.6" font-family="Times,serif" font-size="8.00" fill="blue"> &#160;&#160;&#160;SHOW(0,IDS_FLOPN1);</text>
<text text-anchor="start" x="189.1" y="-71.6" font-family="Times,serif" font-size="8.00" fill="blue"> &#160;&#160;&#160;ANIMATE(0,V_REVERSE);</text>
<text text-anchor="start" x="189.1" y="-62.6" font-family="Times,serif" font-size="8.00" fill="blue"> &#160;&#160;&#160;SIGNALi(SIG_CLOSE,S10_DRYPIT);</text>
<polygon fill="none" stroke="black" points="183.1,-54 183.1,-121 337.1,-121 337.1,-54 183.1,-54"/>
</g>
<!-- 30&#45;&gt;1 -->
<g id="edge4" class="edge">
<title>30&#45;&gt;1</title>
<path fill="none" stroke="black" d="M209.88,-21.11C249.91,-24.87 322.34,-34.28 338.1,-54 356.69,-77.26 356.69,-97.74 338.1,-121 323.66,-139.06 261.67,-148.48 220.6,-152.82"/>
<polygon fill="black" stroke="black" points="220.48,-149.42 210.88,-153.89 221.18,-156.38 220.48,-149.42"/>
<polygon fill="none" stroke="black" points="354.1,-96.5 354.1,-113.5 495.1,-113.5 495.1,-96.5 354.1,-96.5"/>
<text text-anchor="start" x="376.1" y="-103.5" font-family="Courier New" font-weight="bold" font-size="10.00" fill="orange">WAIT(,SIG_CLOSE)</text>
<polygon fill="none" stroke="black" points="354.1,-61.5 354.1,-94.5 495.1,-94.5 495.1,-61.5 354.1,-61.5"/>
<text text-anchor="start" x="357.1" y="-85.1" font-family="Times,serif" font-size="8.00" fill="blue"> &#160;&#160;&#160;PLAYWAVE(SOUND_BUZZFUZZ);</text>
<text text-anchor="start" x="357.1" y="-76.1" font-family="Times,serif" font-size="8.00" fill="blue"> &#160;&#160;&#160;SHOW(0,IDS_FLOPN1);</text>
<text text-anchor="start" x="357.1" y="-67.1" font-family="Times,serif" font-size="8.00" fill="blue"> &#160;&#160;&#160;ANIMATE(0,V_REVERSE);</text>
<polygon fill="none" stroke="black" points="351.1,-58.5 351.1,-116.5 498.1,-116.5 498.1,-58.5 351.1,-58.5"/>
</g>
</g>
</svg>
