<?xml version="1.0" encoding="UTF-8" standalone="no"?>
<!DOCTYPE svg PUBLIC "-//W3C//DTD SVG 1.1//EN"
 "http://www.w3.org/Graphics/SVG/1.1/DTD/svg11.dtd">
<!-- Generated by graphviz version 8.0.1 (20230327.1645)
 -->
<!-- Pages: 1 -->
<svg width="318pt" height="681pt"
 viewBox="0.00 0.00 318.44 681.00" xmlns="http://www.w3.org/2000/svg" xmlns:xlink="http://www.w3.org/1999/xlink">
<g id="graph0" class="graph" transform="scale(1 1) rotate(0) translate(4 677)">
<polygon fill="white" stroke="none" points="-4,4 -4,-677 314.44,-677 314.44,4 -4,4"/>
<!-- 0 -->
<g id="node1" class="node">
<title>0</title>
<ellipse fill="none" stroke="black" cx="193.44" cy="-655" rx="27" ry="18"/>
<text text-anchor="middle" x="193.44" y="-651.3" font-family="Times,serif" font-size="14.00">0</text>
</g>
<!-- 1 -->
<g id="node2" class="node">
<title>1</title>
<ellipse fill="none" stroke="black" cx="124.44" cy="-564" rx="27" ry="18"/>
<text text-anchor="middle" x="124.44" y="-560.3" font-family="Times,serif" font-size="14.00">1</text>
</g>
<!-- 0&#45;&gt;1 -->
<g id="edge1" class="edge">
<title>0&#45;&gt;1</title>
<path fill="none" stroke="black" d="M181.42,-638.5C170.83,-624.84 155.24,-604.73 143.05,-589"/>
<polygon fill="black" stroke="black" points="145.21,-587.08 136.32,-581.32 139.68,-591.37 145.21,-587.08"/>
<text text-anchor="start" x="168.44" y="-608" font-family="Courier New" font-weight="bold" font-size="10.00" fill="orange">WAIT(0,0)</text>
</g>
<!-- 2 -->
<g id="node3" class="node">
<title>2</title>
<ellipse fill="none" stroke="black" cx="106.44" cy="-473" rx="27" ry="18"/>
<text text-anchor="middle" x="106.44" y="-469.3" font-family="Times,serif" font-size="14.00">2</text>
</g>
<!-- 1&#45;&gt;2 -->
<g id="edge2" class="edge">
<title>1&#45;&gt;2</title>
<path fill="none" stroke="black" d="M116.67,-546.6C114.27,-540.84 111.88,-534.25 110.44,-528 108.52,-519.69 107.46,-510.48 106.89,-502.06"/>
<polygon fill="black" stroke="black" points="110.34,-502.05 106.38,-492.23 103.35,-502.38 110.34,-502.05"/>
<text text-anchor="start" x="114.44" y="-517" font-family="Courier New" font-weight="bold" font-size="10.00" fill="blue">SHOW(0,IDS_SPIRIT0)</text>
</g>
<!-- 3 -->
<g id="node4" class="node">
<title>3</title>
<ellipse fill="none" stroke="black" cx="101.44" cy="-382" rx="27" ry="18"/>
<text text-anchor="middle" x="101.44" y="-378.3" font-family="Times,serif" font-size="14.00">3</text>
</g>
<!-- 2&#45;&gt;3 -->
<g id="edge3" class="edge">
<title>2&#45;&gt;3</title>
<path fill="none" stroke="black" d="M105.48,-454.84C104.78,-442.48 103.83,-425.54 103.02,-411.21"/>
<polygon fill="black" stroke="black" points="106.47,-411.2 102.42,-401.41 99.48,-411.59 106.47,-411.2"/>
<text text-anchor="start" x="107.44" y="-426" font-family="Courier New" font-weight="bold" font-size="10.00" fill="blue">ANIMATE(0,0)</text>
</g>
<!-- 4 -->
<g id="node5" class="node">
<title>4</title>
<ellipse fill="none" stroke="black" cx="101.44" cy="-291" rx="27" ry="18"/>
<text text-anchor="middle" x="101.44" y="-287.3" font-family="Times,serif" font-size="14.00">4</text>
</g>
<!-- 3&#45;&gt;4 -->
<g id="edge4" class="edge">
<title>3&#45;&gt;4</title>
<path fill="none" stroke="black" d="M74.61,-379.45C51.75,-376.54 20.18,-368.42 4.44,-346 -13.45,-320.52 29.85,-305.7 64.24,-298.23"/>
<polygon fill="black" stroke="black" points="64.9,-301.46 74.01,-296.05 63.52,-294.6 64.9,-301.46"/>
<text text-anchor="start" x="8.44" y="-335" font-family="Courier New" font-weight="bold" font-size="10.00" fill="blue">ESTIME(0,4)</text>
</g>
<!-- 3&#45;&gt;4 -->
<g id="edge5" class="edge">
<title>3&#45;&gt;4</title>
<path fill="none" stroke="black" d="M101.44,-363.84C101.44,-351.48 101.44,-334.54 101.44,-320.21"/>
<polygon fill="black" stroke="black" points="104.94,-320.41 101.44,-310.41 97.94,-320.41 104.94,-320.41"/>
<text text-anchor="start" x="105.44" y="-335" font-family="Courier New" font-weight="bold" font-size="10.00" fill="orange">GRAB(0,IDD_SPRINGS)</text>
</g>
<!-- 5 -->
<g id="node6" class="node">
<title>5</title>
<ellipse fill="none" stroke="black" cx="133.44" cy="-200" rx="27" ry="18"/>
<text text-anchor="middle" x="133.44" y="-196.3" font-family="Times,serif" font-size="14.00">5</text>
</g>
<!-- 4&#45;&gt;5 -->
<g id="edge6" class="edge">
<title>4&#45;&gt;5</title>
<path fill="none" stroke="black" d="M107.46,-273.26C112.03,-260.54 118.42,-242.77 123.72,-228.04"/>
<polygon fill="black" stroke="black" points="127.25,-229.56 127.34,-218.97 120.66,-227.19 127.25,-229.56"/>
<text text-anchor="start" x="123.44" y="-244" font-family="Courier New" font-weight="bold" font-size="10.00" fill="blue">CLEAR(WOBJECT,)</text>
</g>
<!-- 6 -->
<g id="node7" class="node">
<title>6</title>
<ellipse fill="none" stroke="black" cx="133.44" cy="-109" rx="27" ry="18"/>
<text text-anchor="middle" x="133.44" y="-105.3" font-family="Times,serif" font-size="14.00">6</text>
</g>
<!-- 5&#45;&gt;6 -->
<g id="edge7" class="edge">
<title>5&#45;&gt;6</title>
<path fill="none" stroke="black" d="M133.44,-181.84C133.44,-169.48 133.44,-152.54 133.44,-138.21"/>
<polygon fill="black" stroke="black" points="136.94,-138.41 133.44,-128.41 129.94,-138.41 136.94,-138.41"/>
<text text-anchor="start" x="137.44" y="-153" font-family="Courier New" font-weight="bold" font-size="10.00" fill="blue">CLEAR(WPARM,)</text>
</g>
<!-- 7 -->
<g id="node8" class="node">
<title>7</title>
<ellipse fill="none" stroke="black" cx="190.44" cy="-18" rx="27" ry="18"/>
<text text-anchor="middle" x="190.44" y="-14.3" font-family="Times,serif" font-size="14.00">7</text>
</g>
<!-- 6&#45;&gt;7 -->
<g id="edge8" class="edge">
<title>6&#45;&gt;7</title>
<path fill="none" stroke="black" d="M129.75,-90.84C128.26,-79.64 128.15,-65.1 134.44,-54 139.63,-44.84 148.29,-37.75 157.28,-32.42"/>
<polygon fill="black" stroke="black" points="158.78,-35.07 166,-27.32 155.52,-28.87 158.78,-35.07"/>
<text text-anchor="start" x="138.44" y="-62" font-family="Courier New" font-weight="bold" font-size="10.00" fill="blue">CLEAR(WSPRITE,)</text>
</g>
<!-- 7&#45;&gt;0 -->
<g id="edge9" class="edge">
<title>7&#45;&gt;0</title>
<path fill="none" stroke="black" d="M209.98,-30.84C218.34,-36.81 227.51,-44.77 233.44,-54 246.83,-74.87 247.44,-83.21 247.44,-108 247.44,-565 247.44,-565 247.44,-565 247.44,-590.03 244.68,-597.76 231.44,-619 228.18,-624.23 223.93,-629.18 219.45,-633.62"/>
<polygon fill="black" stroke="black" points="217.37,-630.69 212.33,-640 222.08,-635.87 217.37,-630.69"/>
<text text-anchor="start" x="251.44" y="-335" font-family="Courier New" font-weight="bold" font-size="10.00" fill="blue">SHOW(0,0)</text>
</g>
</g>
</svg>
