<?xml version="1.0" encoding="UTF-8" standalone="no"?>
<!DOCTYPE svg PUBLIC "-//W3C//DTD SVG 1.1//EN"
 "http://www.w3.org/Graphics/SVG/1.1/DTD/svg11.dtd">
<!-- Generated by graphviz version 8.0.1 (20230327.1645)
 -->
<!-- Pages: 1 -->
<svg width="243pt" height="499pt"
 viewBox="0.00 0.00 243.00 499.00" xmlns="http://www.w3.org/2000/svg" xmlns:xlink="http://www.w3.org/1999/xlink">
<g id="graph0" class="graph" transform="scale(1 1) rotate(0) translate(4 495)">
<polygon fill="white" stroke="none" points="-4,4 -4,-495 239,-495 239,4 -4,4"/>
<!-- 0 -->
<g id="node1" class="node">
<title>0</title>
<ellipse fill="none" stroke="black" cx="100" cy="-473" rx="27" ry="18"/>
<text text-anchor="middle" x="100" y="-469.3" font-family="Times,serif" font-size="14.00">0</text>
</g>
<!-- 1 -->
<g id="node2" class="node">
<title>1</title>
<ellipse fill="none" stroke="black" cx="32" cy="-382" rx="27" ry="18"/>
<text text-anchor="middle" x="32" y="-378.3" font-family="Times,serif" font-size="14.00">1</text>
</g>
<!-- 0&#45;&gt;1 -->
<g id="edge1" class="edge">
<title>0&#45;&gt;1</title>
<path fill="none" stroke="black" d="M77.88,-462.07C67.12,-456.2 54.85,-447.79 47,-437 41.53,-429.48 38.05,-420.04 35.84,-411.17"/>
<polygon fill="black" stroke="black" points="39.08,-410.53 33.67,-401.42 32.22,-411.91 39.08,-410.53"/>
<text text-anchor="start" x="51" y="-426" font-family="Courier New" font-weight="bold" font-size="10.00" fill="orange">DROP(0,IDD_BUCKF)</text>
</g>
<!-- 2 -->
<g id="node3" class="node">
<title>2</title>
<ellipse fill="none" stroke="black" cx="27" cy="-291" rx="27" ry="18"/>
<text text-anchor="middle" x="27" y="-287.3" font-family="Times,serif" font-size="14.00">2</text>
</g>
<!-- 1&#45;&gt;2 -->
<g id="edge2" class="edge">
<title>1&#45;&gt;2</title>
<path fill="none" stroke="black" d="M30.34,-363.57C29.85,-357.96 29.35,-351.72 29,-346 28.48,-337.5 28.08,-328.24 27.77,-319.83"/>
<polygon fill="black" stroke="black" points="31.24,-319.92 27.42,-310.03 24.25,-320.14 31.24,-319.92"/>
<text text-anchor="start" x="33" y="-335" font-family="Courier New" font-weight="bold" font-size="10.00" fill="blue">HANDOFF(0,IDD_BUCKE)</text>
</g>
<!-- 3 -->
<g id="node4" class="node">
<title>3</title>
<ellipse fill="none" stroke="black" cx="37" cy="-200" rx="27" ry="18"/>
<text text-anchor="middle" x="37" y="-196.3" font-family="Times,serif" font-size="14.00">3</text>
</g>
<!-- 2&#45;&gt;3 -->
<g id="edge3" class="edge">
<title>2&#45;&gt;3</title>
<path fill="none" stroke="black" d="M25.79,-272.89C25.34,-262.23 25.28,-248.26 27,-236 27.35,-233.47 27.85,-230.86 28.43,-228.26"/>
<polygon fill="black" stroke="black" points="32,-229.45 31.15,-218.89 25.23,-227.67 32,-229.45"/>
<text text-anchor="start" x="31" y="-244" font-family="Courier New" font-weight="bold" font-size="10.00" fill="blue">SHOW(0,IDS_VESTH2O)</text>
</g>
<!-- 4 -->
<g id="node5" class="node">
<title>4</title>
<ellipse fill="none" stroke="black" cx="76" cy="-109" rx="27" ry="18"/>
<text text-anchor="middle" x="76" y="-105.3" font-family="Times,serif" font-size="14.00">4</text>
</g>
<!-- 3&#45;&gt;4 -->
<g id="edge4" class="edge">
<title>3&#45;&gt;4</title>
<path fill="none" stroke="black" d="M44.34,-182.26C50,-169.33 57.95,-151.2 64.46,-136.33"/>
<polygon fill="black" stroke="black" points="67.89,-138.23 68.7,-127.67 61.48,-135.42 67.89,-138.23"/>
<text text-anchor="start" x="64" y="-153" font-family="Courier New" font-weight="bold" font-size="10.00" fill="blue">SIGNAL(WIP1,)</text>
</g>
<!-- 5 -->
<g id="node6" class="node">
<title>5</title>
<ellipse fill="none" stroke="black" cx="127" cy="-18" rx="27" ry="18"/>
<text text-anchor="middle" x="127" y="-14.3" font-family="Times,serif" font-size="14.00">5</text>
</g>
<!-- 4&#45;&gt;5 -->
<g id="edge5" class="edge">
<title>4&#45;&gt;5</title>
<path fill="none" stroke="black" d="M80.03,-91.17C83.13,-80.11 88.06,-65.6 95,-54 97.66,-49.55 100.95,-45.18 104.39,-41.11"/>
<polygon fill="black" stroke="black" points="106.4,-44.01 110.53,-34.26 101.22,-39.3 106.4,-44.01"/>
<text text-anchor="start" x="99" y="-62" font-family="Courier New" font-weight="bold" font-size="10.00" fill="orange">WAIT(0,0)</text>
</g>
<!-- 5&#45;&gt;0 -->
<g id="edge6" class="edge">
<title>5&#45;&gt;0</title>
<path fill="none" stroke="black" d="M142.29,-33.15C147.95,-39.1 153.96,-46.41 158,-54 169.65,-75.88 172,-83.21 172,-108 172,-383 172,-383 172,-383 172,-407.79 172.82,-417.12 158,-437 151.48,-445.75 142.07,-452.75 132.71,-458.13"/>
<polygon fill="black" stroke="black" points="131.36,-455.41 124.12,-463.14 134.6,-461.61 131.36,-455.41"/>
<text text-anchor="start" x="176" y="-244" font-family="Courier New" font-weight="bold" font-size="10.00" fill="blue">SHOW(0,0)</text>
</g>
</g>
</svg>
