<?xml version="1.0" encoding="UTF-8" standalone="no"?>
<!DOCTYPE svg PUBLIC "-//W3C//DTD SVG 1.1//EN"
 "http://www.w3.org/Graphics/SVG/1.1/DTD/svg11.dtd">
<!-- Generated by graphviz version 8.0.1 (20230327.1645)
 -->
<!-- Pages: 1 -->
<svg width="640pt" height="422pt"
 viewBox="0.00 0.00 640.00 422.00" xmlns="http://www.w3.org/2000/svg" xmlns:xlink="http://www.w3.org/1999/xlink">
<g id="graph0" class="graph" transform="scale(1 1) rotate(0) translate(4 418)">
<polygon fill="white" stroke="none" points="-4,4 -4,-418 636,-418 636,4 -4,4"/>
<!-- 0 -->
<g id="node1" class="node">
<title>0</title>
<ellipse fill="none" stroke="black" cx="300" cy="-396" rx="27" ry="18"/>
<text text-anchor="middle" x="300" y="-392.3" font-family="Times,serif" font-size="14.00">0</text>
</g>
<!-- 11 -->
<g id="node2" class="node">
<title>11</title>
<ellipse fill="none" stroke="black" cx="197" cy="-305" rx="27" ry="18"/>
<text text-anchor="middle" x="197" y="-301.3" font-family="Times,serif" font-size="14.00">11</text>
</g>
<!-- 0&#45;&gt;11 -->
<g id="edge1" class="edge">
<title>0&#45;&gt;11</title>
<path fill="none" stroke="black" d="M280.07,-383.43C269.77,-377.06 257.26,-368.7 247,-360 236.15,-350.79 225.28,-339.38 216.46,-329.41"/>
<polygon fill="black" stroke="black" points="218.47,-327.4 209.28,-322.13 213.18,-331.98 218.47,-327.4"/>
<text text-anchor="start" x="251" y="-349" font-family="Courier New" font-weight="bold" font-size="10.00" fill="orange">GRAB(0,0)</text>
</g>
<!-- 1 -->
<g id="node3" class="node">
<title>1</title>
<ellipse fill="none" stroke="black" cx="27" cy="-305" rx="27" ry="18"/>
<text text-anchor="middle" x="27" y="-301.3" font-family="Times,serif" font-size="14.00">1</text>
</g>
<!-- 0&#45;&gt;1 -->
<g id="edge2" class="edge">
<title>0&#45;&gt;1</title>
<path fill="none" stroke="black" d="M273.22,-392.23C238.28,-388.03 175.63,-378.51 125,-360 99.99,-350.85 73.66,-336.02 54.6,-324.21"/>
<polygon fill="black" stroke="black" points="56.66,-320.74 46.34,-318.35 52.92,-326.66 56.66,-320.74"/>
<text text-anchor="start" x="129" y="-349" font-family="Courier New" font-weight="bold" font-size="10.00" fill="orange">WAIT(,SIG_SHOW)</text>
</g>
<!-- 12 -->
<g id="node5" class="node">
<title>12</title>
<ellipse fill="none" stroke="black" cx="265" cy="-148" rx="27" ry="18"/>
<text text-anchor="middle" x="265" y="-144.3" font-family="Times,serif" font-size="14.00">12</text>
</g>
<!-- 11&#45;&gt;12 -->
<g id="edge4" class="edge">
<title>11&#45;&gt;12</title>
<path fill="none" stroke="black" d="M188.67,-287.7C177.37,-263.06 160.87,-215.84 182,-184 192.31,-168.46 211.03,-159.8 228.08,-154.99"/>
<polygon fill="black" stroke="black" points="228.51,-158.24 237.39,-152.46 226.84,-151.44 228.51,-158.24"/>
<polygon fill="none" stroke="black" points="185,-249 185,-266 307,-266 307,-249 185,-249"/>
<text text-anchor="start" x="200.5" y="-256" font-family="Courier New" font-weight="bold" font-size="10.00" fill="blue">CLEAR(WOBJECT,)</text>
<polygon fill="none" stroke="black" points="185,-187 185,-247 307,-247 307,-187 185,-187"/>
<text text-anchor="start" x="188" y="-237.6" font-family="Times,serif" font-size="8.00" fill="blue"> &#160;&#160;&#160;&#160;&#160;&#160;&#160;CLEAR(WOBJECT);</text>
<text text-anchor="start" x="188" y="-228.6" font-family="Times,serif" font-size="8.00" fill="blue"> &#160;&#160;&#160;&#160;&#160;&#160;&#160;CLEAR(WPARM);</text>
<text text-anchor="start" x="188" y="-219.6" font-family="Times,serif" font-size="8.00" fill="blue"> &#160;&#160;&#160;&#160;&#160;&#160;&#160;SHOW();</text>
<text text-anchor="start" x="188" y="-210.6" font-family="Times,serif" font-size="8.00" fill="blue"> &#160;&#160;&#160;&#160;&#160;&#160;&#160;SIGNAL(WIP3,SIG_HIDE);</text>
<text text-anchor="start" x="188" y="-201.6" font-family="Times,serif" font-size="8.00" fill="blue"> &#160;&#160;&#160;&#160;&#160;&#160;&#160;SIGNAL(WIP4,SIG_HIDE);</text>
<text text-anchor="start" x="188" y="-192.6" font-family="Times,serif" font-size="8.00" fill="blue"> &#160;&#160;&#160;&#160;&#160;&#160;&#160;</text>
<polygon fill="none" stroke="black" points="182,-184 182,-269 310,-269 310,-184 182,-184"/>
</g>
<!-- 3 -->
<g id="node4" class="node">
<title>3</title>
<ellipse fill="none" stroke="black" cx="76" cy="-148" rx="27" ry="18"/>
<text text-anchor="middle" x="76" y="-144.3" font-family="Times,serif" font-size="14.00">3</text>
</g>
<!-- 1&#45;&gt;3 -->
<g id="edge3" class="edge">
<title>1&#45;&gt;3</title>
<path fill="none" stroke="black" d="M20.2,-287.21C11.47,-262.77 -0.49,-216.75 18,-184 23.46,-174.32 32.8,-167.02 42.4,-161.66"/>
<polygon fill="black" stroke="black" points="43.55,-164.5 50.96,-156.93 40.44,-158.23 43.55,-164.5"/>
<text text-anchor="start" x="22" y="-225" font-family="Courier New" font-weight="bold" font-size="10.00" fill="blue">SIGNAL(WIP1,SIG_CLOSE)</text>
</g>
<!-- 4 -->
<g id="node6" class="node">
<title>4</title>
<ellipse fill="none" stroke="black" cx="311" cy="-18" rx="27" ry="18"/>
<text text-anchor="middle" x="311" y="-14.3" font-family="Times,serif" font-size="14.00">4</text>
</g>
<!-- 3&#45;&gt;4 -->
<g id="edge6" class="edge">
<title>3&#45;&gt;4</title>
<path fill="none" stroke="black" d="M96.44,-135.86C137.94,-113.26 232.21,-61.92 280.8,-35.45"/>
<polygon fill="black" stroke="black" points="282.33,-38.06 289.44,-30.2 278.98,-31.91 282.33,-38.06"/>
<polygon fill="none" stroke="black" points="245,-92 245,-109 397,-109 397,-92 245,-92"/>
<text text-anchor="start" x="266.5" y="-99" font-family="Courier New" font-weight="bold" font-size="10.00" fill="blue">REF_MACHINE(WIP2,)</text>
<polygon fill="none" stroke="black" points="245,-57 245,-90 397,-90 397,-57 245,-57"/>
<text text-anchor="start" x="248" y="-80.6" font-family="Times,serif" font-size="8.00" fill="blue"> &#160;&#160;&#160;&#160;&#160;&#160;&#160;MOV(WPARM,R_WPARM);</text>
<text text-anchor="start" x="248" y="-71.6" font-family="Times,serif" font-size="8.00" fill="blue"> &#160;&#160;&#160;&#160;&#160;&#160;&#160;MAPi(WPARM,S12_SCROLLL_MK);</text>
<text text-anchor="start" x="248" y="-62.6" font-family="Times,serif" font-size="8.00" fill="blue"> &#160;&#160;&#160;&#160;&#160;&#160;&#160;MOV(WOBJECT,WPARM); </text>
<polygon fill="none" stroke="black" points="242,-54 242,-112 400,-112 400,-54 242,-54"/>
</g>
<!-- 12&#45;&gt;0 -->
<g id="edge5" class="edge">
<title>12&#45;&gt;0</title>
<path fill="none" stroke="black" d="M286.13,-159.7C295.24,-165.53 304.96,-173.69 310,-184 339.37,-244.05 321.84,-325.57 309.32,-367.53"/>
<polygon fill="black" stroke="black" points="305.68,-366.44 306.04,-377.03 312.36,-368.53 305.68,-366.44"/>
<text text-anchor="start" x="328" y="-303.5" font-family="Courier New" font-weight="bold" font-size="10.00" fill="blue">SIGNAL(WIP1,SIG_SHOW)</text>
</g>
<!-- 4&#45;&gt;0 -->
<g id="edge7" class="edge">
<title>4&#45;&gt;0</title>
<path fill="none" stroke="black" d="M337.6,-22.27C358.56,-26.24 386.98,-34.96 404,-54 622.84,-298.82 508.15,-253.7 463,-323 435.29,-365.53 376.15,-383.12 337.24,-390.27"/>
<polygon fill="black" stroke="black" points="337.13,-386.91 327.85,-392.02 338.29,-393.81 337.13,-386.91"/>
<text text-anchor="start" x="537" y="-225" font-family="Courier New" font-weight="bold" font-size="10.00" fill="blue">ASHOW(WOBJECT,)</text>
</g>
</g>
</svg>
