<?xml version="1.0" encoding="UTF-8" standalone="no"?>
<!DOCTYPE svg PUBLIC "-//W3C//DTD SVG 1.1//EN"
 "http://www.w3.org/Graphics/SVG/1.1/DTD/svg11.dtd">
<!-- Generated by graphviz version 8.0.1 (20230327.1645)
 -->
<!-- Pages: 1 -->
<svg width="1325pt" height="377pt"
 viewBox="0.00 0.00 1325.16 377.00" xmlns="http://www.w3.org/2000/svg" xmlns:xlink="http://www.w3.org/1999/xlink">
<g id="graph0" class="graph" transform="scale(1 1) rotate(0) translate(4 373)">
<polygon fill="white" stroke="none" points="-4,4 -4,-373 1321.16,-373 1321.16,4 -4,4"/>
<!-- 0 -->
<g id="node1" class="node">
<title>0</title>
<ellipse fill="none" stroke="black" cx="495.16" cy="-351" rx="27" ry="18"/>
<text text-anchor="middle" x="495.16" y="-347.3" font-family="Times,serif" font-size="14.00">0</text>
</g>
<!-- 9 -->
<g id="node2" class="node">
<title>9</title>
<ellipse fill="none" stroke="black" cx="74.16" cy="-239" rx="27" ry="18"/>
<text text-anchor="middle" x="74.16" y="-235.3" font-family="Times,serif" font-size="14.00">9</text>
</g>
<!-- 0&#45;&gt;9 -->
<g id="edge1" class="edge">
<title>0&#45;&gt;9</title>
<path fill="none" stroke="black" d="M467.69,-350.48C393.76,-351.28 192.51,-350.09 138.16,-315 120.93,-303.88 128.26,-290.78 115.16,-275 110.69,-269.61 105.33,-264.39 99.98,-259.68"/>
<polygon fill="black" stroke="black" points="102.64,-256.51 92.72,-252.78 98.15,-261.88 102.64,-256.51"/>
<text text-anchor="start" x="142.16" y="-293.5" font-family="Courier New" font-weight="bold" font-size="10.00" fill="orange">DROP(0,0)</text>
</g>
<!-- 11 -->
<g id="node3" class="node">
<title>11</title>
<ellipse fill="none" stroke="black" cx="288.16" cy="-239" rx="27" ry="18"/>
<text text-anchor="middle" x="288.16" y="-235.3" font-family="Times,serif" font-size="14.00">11</text>
</g>
<!-- 0&#45;&gt;11 -->
<g id="edge2" class="edge">
<title>0&#45;&gt;11</title>
<path fill="none" stroke="black" d="M468.01,-349.52C417.45,-347.98 311.93,-341.6 289.16,-315 278.26,-302.26 278.07,-283.37 280.58,-267.73"/>
<polygon fill="black" stroke="black" points="284.19,-268.55 282.76,-258.05 277.33,-267.15 284.19,-268.55"/>
<polygon fill="none" stroke="black" points="292.16,-295 292.16,-312 369.16,-312 369.16,-295 292.16,-295"/>
<text text-anchor="start" x="303.16" y="-302" font-family="Courier New" font-weight="bold" font-size="10.00" fill="orange">GRAB(0,0)</text>
<polygon fill="none" stroke="black" points="292.16,-278 292.16,-293 369.16,-293 369.16,-278 292.16,-278"/>
<text text-anchor="start" x="295.16" y="-283.6" font-family="Times,serif" font-size="8.00" fill="blue">ASSIGN(BPARM,0);</text>
<polygon fill="none" stroke="black" points="289.16,-275 289.16,-315 372.16,-315 372.16,-275 289.16,-275"/>
</g>
<!-- 5 -->
<g id="node4" class="node">
<title>5</title>
<ellipse fill="none" stroke="black" cx="636.16" cy="-239" rx="27" ry="18"/>
<text text-anchor="middle" x="636.16" y="-235.3" font-family="Times,serif" font-size="14.00">5</text>
</g>
<!-- 0&#45;&gt;5 -->
<g id="edge3" class="edge">
<title>0&#45;&gt;5</title>
<path fill="none" stroke="black" d="M522.04,-349.25C548.91,-347.05 589.66,-339.52 614.16,-315 626.51,-302.64 632,-283.74 634.41,-268.01"/>
<polygon fill="black" stroke="black" points="637.99,-268.59 635.68,-258.25 631.03,-267.78 637.99,-268.59"/>
<polygon fill="none" stroke="black" points="635.16,-295 635.16,-312 905.16,-312 905.16,-295 635.16,-295"/>
<text text-anchor="start" x="724.66" y="-302" font-family="Courier New" font-weight="bold" font-size="10.00" fill="orange">WAIT(,SIG_SHOW)</text>
<polygon fill="none" stroke="black" points="635.16,-278 635.16,-293 905.16,-293 905.16,-278 635.16,-278"/>
<text text-anchor="start" x="638.16" y="-283.6" font-family="Times,serif" font-size="8.00" fill="blue">REF_MACHINE(WIP1);MOV(BFRAME,R_WPARM);MAP(BFRAME,WIP2);</text>
<polygon fill="none" stroke="black" points="632.16,-275 632.16,-315 908.16,-315 908.16,-275 632.16,-275"/>
</g>
<!-- 20 -->
<g id="node5" class="node">
<title>20</title>
<ellipse fill="none" stroke="black" cx="399.16" cy="-239" rx="27" ry="18"/>
<text text-anchor="middle" x="399.16" y="-235.3" font-family="Times,serif" font-size="14.00">20</text>
</g>
<!-- 0&#45;&gt;20 -->
<g id="edge4" class="edge">
<title>0&#45;&gt;20</title>
<path fill="none" stroke="black" d="M468.13,-350.11C441.42,-348.6 401.78,-341.62 382.16,-315 371.64,-300.72 376.62,-281.05 383.85,-265.44"/>
<polygon fill="black" stroke="black" points="387.31,-267.36 388.78,-256.87 381.09,-264.15 387.31,-267.36"/>
<text text-anchor="start" x="386.16" y="-293.5" font-family="Courier New" font-weight="bold" font-size="10.00" fill="orange">WAIT(,SIG_HIDE)</text>
</g>
<!-- 30 -->
<g id="node6" class="node">
<title>30</title>
<ellipse fill="none" stroke="black" cx="853.16" cy="-239" rx="27" ry="18"/>
<text text-anchor="middle" x="853.16" y="-235.3" font-family="Times,serif" font-size="14.00">30</text>
</g>
<!-- 0&#45;&gt;30 -->
<g id="edge5" class="edge">
<title>0&#45;&gt;30</title>
<path fill="none" stroke="black" d="M522.41,-349.8C610.85,-348.87 885.79,-343.68 912.16,-315 924.2,-301.91 920.96,-290.45 912.16,-275 906.55,-265.14 896.94,-257.77 887.1,-252.41"/>
<polygon fill="black" stroke="black" points="888.83,-248.88 878.31,-247.69 885.8,-255.19 888.83,-248.88"/>
<text text-anchor="start" x="923.16" y="-293.5" font-family="Courier New" font-weight="bold" font-size="10.00" fill="orange">WAIT(,SIG_CLOSE)</text>
</g>
<!-- 9&#45;&gt;0 -->
<g id="edge17" class="edge">
<title>9&#45;&gt;0</title>
<path fill="none" stroke="black" d="M49.25,-246.24C34.52,-251.35 17.06,-260.22 8.16,-275 -1,-290.23 -3.95,-301.99 8.16,-315 38.53,-347.62 347.67,-350.27 457.06,-350.17"/>
<polygon fill="black" stroke="black" points="456.91,-353.67 466.9,-350.15 456.89,-346.67 456.91,-353.67"/>
<polygon fill="none" stroke="black" points="11.16,-295 11.16,-312 108.16,-312 108.16,-295 11.16,-295"/>
<text text-anchor="start" x="14.16" y="-302" font-family="Courier New" font-weight="bold" font-size="10.00" fill="blue">SHOW(WOBJECT,0)</text>
<polygon fill="none" stroke="black" points="11.16,-278 11.16,-293 108.16,-293 108.16,-278 11.16,-278"/>
<text text-anchor="start" x="24.16" y="-283.6" font-family="Times,serif" font-size="8.00" fill="blue">ASSIGN(BPARM,1);</text>
<polygon fill="none" stroke="black" points="8.16,-275 8.16,-315 111.16,-315 111.16,-275 8.16,-275"/>
</g>
<!-- 12 -->
<g id="node7" class="node">
<title>12</title>
<ellipse fill="none" stroke="black" cx="290.16" cy="-109" rx="27" ry="18"/>
<text text-anchor="middle" x="290.16" y="-105.3" font-family="Times,serif" font-size="14.00">12</text>
</g>
<!-- 11&#45;&gt;12 -->
<g id="edge6" class="edge">
<title>11&#45;&gt;12</title>
<path fill="none" stroke="black" d="M288.43,-220.74C288.76,-199.55 289.33,-163.34 289.72,-138.12"/>
<polygon fill="black" stroke="black" points="293.23,-138.45 289.89,-128.4 286.24,-138.34 293.23,-138.45"/>
<text text-anchor="start" x="294.16" y="-172.5" font-family="Courier New" font-weight="bold" font-size="10.00" fill="blue">CLEAR(BFRAME,)</text>
</g>
<!-- 5&#45;&gt;0 -->
<g id="edge14" class="edge">
<title>5&#45;&gt;0</title>
<path fill="none" stroke="black" d="M611.72,-247.42C579.53,-257.24 526.81,-273.48 525.16,-275 521.37,-278.52 511.99,-302.88 504.72,-322.9"/>
<polygon fill="black" stroke="black" points="501.13,-321.53 501.05,-332.12 507.72,-323.89 501.13,-321.53"/>
<polygon fill="none" stroke="black" points="528.16,-295 528.16,-312 607.16,-312 607.16,-295 528.16,-295"/>
<text text-anchor="start" x="531.16" y="-302" font-family="Courier New" font-weight="bold" font-size="10.00" fill="blue">Z_EPSILON(,)</text>
<polygon fill="none" stroke="black" points="528.16,-278 528.16,-293 607.16,-293 607.16,-278 528.16,-278"/>
<text text-anchor="start" x="532.16" y="-283.6" font-family="Times,serif" font-size="8.00" fill="blue">ASSIGN(WPARM,0)</text>
<polygon fill="none" stroke="black" points="525.16,-275 525.16,-315 610.16,-315 610.16,-275 525.16,-275"/>
</g>
<!-- 6 -->
<g id="node11" class="node">
<title>6</title>
<ellipse fill="none" stroke="black" cx="709.16" cy="-109" rx="27" ry="18"/>
<text text-anchor="middle" x="709.16" y="-105.3" font-family="Times,serif" font-size="14.00">6</text>
</g>
<!-- 5&#45;&gt;6 -->
<g id="edge13" class="edge">
<title>5&#45;&gt;6</title>
<path fill="none" stroke="black" d="M640.35,-220.8C645.64,-201.27 656.05,-169.01 672.16,-145 675.55,-139.95 679.79,-135.09 684.17,-130.68"/>
<polygon fill="black" stroke="black" points="686.17,-133.68 691.08,-124.29 681.38,-128.56 686.17,-133.68"/>
<polygon fill="none" stroke="black" points="675.16,-174 675.16,-191 754.16,-191 754.16,-174 675.16,-174"/>
<text text-anchor="start" x="678.16" y="-181" font-family="Courier New" font-weight="bold" font-size="10.00" fill="blue">GT(BFRAME,0)</text>
<polygon fill="none" stroke="black" points="675.16,-157 675.16,-172 754.16,-172 754.16,-157 675.16,-157"/>
<text text-anchor="start" x="678.16" y="-162.6" font-family="Times,serif" font-size="8.00" fill="blue">ASSIGN(WPARM,1);</text>
<polygon fill="none" stroke="black" points="672.16,-154 672.16,-194 757.16,-194 757.16,-154 672.16,-154"/>
</g>
<!-- 21 -->
<g id="node9" class="node">
<title>21</title>
<ellipse fill="none" stroke="black" cx="456.16" cy="-109" rx="27" ry="18"/>
<text text-anchor="middle" x="456.16" y="-105.3" font-family="Times,serif" font-size="14.00">21</text>
</g>
<!-- 20&#45;&gt;21 -->
<g id="edge9" class="edge">
<title>20&#45;&gt;21</title>
<path fill="none" stroke="black" d="M399.55,-220.78C400.67,-201.24 404.63,-168.96 418.16,-145 421.19,-139.63 425.34,-134.62 429.78,-130.16"/>
<polygon fill="black" stroke="black" points="431.86,-133.1 436.91,-123.78 427.16,-127.91 431.86,-133.1"/>
<text text-anchor="start" x="422.16" y="-172.5" font-family="Courier New" font-weight="bold" font-size="10.00" fill="blue">SHOW(0,0)</text>
</g>
<!-- 31 -->
<g id="node10" class="node">
<title>31</title>
<ellipse fill="none" stroke="black" cx="914.16" cy="-109" rx="27" ry="18"/>
<text text-anchor="middle" x="914.16" y="-105.3" font-family="Times,serif" font-size="14.00">31</text>
</g>
<!-- 30&#45;&gt;31 -->
<g id="edge11" class="edge">
<title>30&#45;&gt;31</title>
<path fill="none" stroke="black" d="M826.71,-234.08C808.27,-229.81 784.95,-221.02 773.16,-203 759.05,-181.43 757.28,-165.3 773.16,-145 785.82,-128.82 839.47,-119.06 876.82,-114.1"/>
<polygon fill="black" stroke="black" points="876.86,-117.49 886.34,-112.77 875.98,-110.55 876.86,-117.49"/>
<polygon fill="none" stroke="black" points="776.16,-174 776.16,-191 1038.16,-191 1038.16,-174 776.16,-174"/>
<text text-anchor="start" x="855.66" y="-181" font-family="Courier New" font-weight="bold" font-size="10.00" fill="blue">ASSIGN(WOBJECT,0)</text>
<polygon fill="none" stroke="black" points="776.16,-157 776.16,-172 1038.16,-172 1038.16,-157 776.16,-157"/>
<text text-anchor="start" x="779.16" y="-162.6" font-family="Times,serif" font-size="8.00" fill="blue">CLEAR(WOBJECT);ASHOW(); ASSIGN(BPARM,0); ASSIGN(WPARM,0);</text>
<polygon fill="none" stroke="black" points="773.16,-154 773.16,-194 1041.16,-194 1041.16,-154 773.16,-154"/>
</g>
<!-- 13 -->
<g id="node8" class="node">
<title>13</title>
<ellipse fill="none" stroke="black" cx="226.16" cy="-18" rx="27" ry="18"/>
<text text-anchor="middle" x="226.16" y="-14.3" font-family="Times,serif" font-size="14.00">13</text>
</g>
<!-- 12&#45;&gt;13 -->
<g id="edge7" class="edge">
<title>12&#45;&gt;13</title>
<path fill="none" stroke="black" d="M279.01,-92.5C269.26,-78.93 254.91,-58.98 243.63,-43.29"/>
<polygon fill="black" stroke="black" points="246.08,-41.7 237.4,-35.62 240.39,-45.79 246.08,-41.7"/>
<text text-anchor="start" x="268.16" y="-62" font-family="Courier New" font-weight="bold" font-size="10.00" fill="blue">CLEAR(WOBJECT,)</text>
</g>
<!-- 13&#45;&gt;0 -->
<g id="edge8" class="edge">
<title>13&#45;&gt;0</title>
<path fill="none" stroke="black" d="M222.31,-36.01C211.52,-88.57 187.33,-248.86 276.16,-315 304.19,-335.87 402.55,-344.74 457.43,-348.13"/>
<polygon fill="black" stroke="black" points="456.93,-351.67 467.12,-348.76 457.34,-344.68 456.93,-351.67"/>
<text text-anchor="start" x="220.16" y="-172.5" font-family="Courier New" font-weight="bold" font-size="10.00" fill="blue">SHOW(0,0)</text>
</g>
<!-- 21&#45;&gt;0 -->
<g id="edge10" class="edge">
<title>21&#45;&gt;0</title>
<path fill="none" stroke="black" d="M469.63,-124.97C474.1,-130.82 478.59,-137.83 481.16,-145 502.69,-205.06 500.97,-281.25 497.98,-321.73"/>
<polygon fill="black" stroke="black" points="494.42,-321.36 497.08,-331.62 501.39,-321.94 494.42,-321.36"/>
<text text-anchor="start" x="504.16" y="-237.5" font-family="Courier New" font-weight="bold" font-size="10.00" fill="blue">Z_EPSILON(,)</text>
</g>
<!-- 31&#45;&gt;0 -->
<g id="edge12" class="edge">
<title>31&#45;&gt;0</title>
<path fill="none" stroke="black" d="M940.62,-113.51C974.14,-118.57 1029.04,-129.08 1041.16,-145 1064.12,-175.14 1055.61,-288.89 1028.16,-315 992.48,-348.94 649.02,-350.65 533.13,-350.25"/>
<polygon fill="black" stroke="black" points="533.34,-346.75 523.33,-350.21 533.31,-353.75 533.34,-346.75"/>
<text text-anchor="start" x="1057.16" y="-237.5" font-family="Courier New" font-weight="bold" font-size="10.00" fill="blue">Z_EPSILON(,)</text>
</g>
<!-- 7 -->
<g id="node12" class="node">
<title>7</title>
<ellipse fill="none" stroke="black" cx="1105.16" cy="-18" rx="27" ry="18"/>
<text text-anchor="middle" x="1105.16" y="-14.3" font-family="Times,serif" font-size="14.00">7</text>
</g>
<!-- 6&#45;&gt;7 -->
<g id="edge15" class="edge">
<title>6&#45;&gt;7</title>
<path fill="none" stroke="black" d="M734.54,-102.3C802.77,-86.96 990.34,-44.81 1069.34,-27.05"/>
<polygon fill="black" stroke="black" points="1069.76,-30.32 1078.74,-24.71 1068.22,-23.49 1069.76,-30.32"/>
<text text-anchor="start" x="946.16" y="-62" font-family="Courier New" font-weight="bold" font-size="10.00" fill="blue">SHOW(WIP3,)</text>
</g>
<!-- 7&#45;&gt;0 -->
<g id="edge16" class="edge">
<title>7&#45;&gt;0</title>
<path fill="none" stroke="black" d="M1113.81,-35.48C1133.74,-75.91 1178.22,-182.16 1138.16,-257 1116.23,-297.97 1095.2,-300.14 1051.16,-315 954.91,-347.48 642.25,-350.22 533.14,-350.16"/>
<polygon fill="black" stroke="black" points="533.35,-346.66 523.34,-350.15 533.34,-353.66 533.35,-346.66"/>
<polygon fill="none" stroke="black" points="1157.16,-183 1157.16,-200 1314.16,-200 1314.16,-183 1157.16,-183"/>
<text text-anchor="start" x="1199.16" y="-190" font-family="Courier New" font-weight="bold" font-size="10.00" fill="blue">Z_EPSILON(,)</text>
<polygon fill="none" stroke="black" points="1157.16,-148 1157.16,-181 1314.16,-181 1314.16,-148 1157.16,-148"/>
<text text-anchor="start" x="1160.16" y="-171.6" font-family="Times,serif" font-size="8.00" fill="blue"> &#160;&#160;&#160;&#160;&#160;&#160;&#160;MOV(WOBJECT,BFRAME);</text>
<text text-anchor="start" x="1160.16" y="-162.6" font-family="Times,serif" font-size="8.00" fill="blue"> &#160;&#160;&#160;&#160;&#160;&#160;&#160;MAPi(WOBJECT,S12_NATURE_REP);</text>
<text text-anchor="start" x="1160.16" y="-153.6" font-family="Times,serif" font-size="8.00" fill="blue"> &#160;&#160;&#160;&#160;&#160;&#160;&#160;C_ACCEPT(WOBJECT);</text>
<polygon fill="none" stroke="black" points="1154.16,-145 1154.16,-203 1317.16,-203 1317.16,-145 1154.16,-145"/>
</g>
</g>
</svg>
