<?xml version="1.0" encoding="UTF-8" standalone="no"?>
<!DOCTYPE svg PUBLIC "-//W3C//DTD SVG 1.1//EN"
 "http://www.w3.org/Graphics/SVG/1.1/DTD/svg11.dtd">
<!-- Generated by graphviz version 8.0.1 (20230327.1645)
 -->
<!-- Pages: 1 -->
<svg width="576pt" height="226pt"
 viewBox="0.00 0.00 576.21 226.00" xmlns="http://www.w3.org/2000/svg" xmlns:xlink="http://www.w3.org/1999/xlink">
<g id="graph0" class="graph" transform="scale(1 1) rotate(0) translate(4 222)">
<polygon fill="white" stroke="none" points="-4,4 -4,-222 572.21,-222 572.21,4 -4,4"/>
<!-- 0 -->
<g id="node1" class="node">
<title>0</title>
<ellipse fill="none" stroke="black" cx="220.21" cy="-200" rx="27" ry="18"/>
<text text-anchor="middle" x="220.21" y="-196.3" font-family="Times,serif" font-size="14.00">0</text>
</g>
<!-- 1 -->
<g id="node2" class="node">
<title>1</title>
<ellipse fill="none" stroke="black" cx="178.21" cy="-109" rx="27" ry="18"/>
<text text-anchor="middle" x="178.21" y="-105.3" font-family="Times,serif" font-size="14.00">1</text>
</g>
<!-- 0&#45;&gt;1 -->
<g id="edge1" class="edge">
<title>0&#45;&gt;1</title>
<path fill="none" stroke="black" d="M194.9,-193.29C179.37,-188.34 160.7,-179.45 151.21,-164 145.08,-154.02 149.45,-142.45 156.32,-132.6"/>
<polygon fill="black" stroke="black" points="159.59,-135.11 163.1,-125.12 154.12,-130.74 159.59,-135.11"/>
<text text-anchor="start" x="155.21" y="-153" font-family="Courier New" font-weight="bold" font-size="10.00" fill="orange">DRAG(0,IDD_SCOOPE)</text>
</g>
<!-- 3 -->
<g id="node3" class="node">
<title>3</title>
<ellipse fill="none" stroke="black" cx="284.21" cy="-109" rx="27" ry="18"/>
<text text-anchor="middle" x="284.21" y="-105.3" font-family="Times,serif" font-size="14.00">3</text>
</g>
<!-- 0&#45;&gt;3 -->
<g id="edge2" class="edge">
<title>0&#45;&gt;3</title>
<path fill="none" stroke="black" d="M240.9,-188.12C250.45,-182.16 261.19,-173.94 268.21,-164 273.6,-156.36 277.2,-146.89 279.59,-138.03"/>
<polygon fill="black" stroke="black" points="283.22,-138.84 282.01,-128.31 276.39,-137.29 283.22,-138.84"/>
<text text-anchor="start" x="280.21" y="-153" font-family="Courier New" font-weight="bold" font-size="10.00" fill="orange">DRAG(0,IDD_SCOOPF)</text>
</g>
<!-- 2 -->
<g id="node4" class="node">
<title>2</title>
<ellipse fill="none" stroke="black" cx="56.21" cy="-18" rx="27" ry="18"/>
<text text-anchor="middle" x="56.21" y="-14.3" font-family="Times,serif" font-size="14.00">2</text>
</g>
<!-- 1&#45;&gt;2 -->
<g id="edge3" class="edge">
<title>1&#45;&gt;2</title>
<path fill="none" stroke="black" d="M158.51,-96.21C147.87,-89.65 134.61,-81.18 123.21,-73 108.61,-62.52 92.95,-49.98 80.44,-39.61"/>
<polygon fill="black" stroke="black" points="83.25,-36.57 73.33,-32.84 78.76,-41.94 83.25,-36.57"/>
<text text-anchor="start" x="127.21" y="-62" font-family="Courier New" font-weight="bold" font-size="10.00" fill="blue">PLAYWAVE(0,SOUND_SLURP)</text>
</g>
<!-- 4 -->
<g id="node5" class="node">
<title>4</title>
<ellipse fill="none" stroke="black" cx="356.21" cy="-18" rx="27" ry="18"/>
<text text-anchor="middle" x="356.21" y="-14.3" font-family="Times,serif" font-size="14.00">4</text>
</g>
<!-- 3&#45;&gt;4 -->
<g id="edge5" class="edge">
<title>3&#45;&gt;4</title>
<path fill="none" stroke="black" d="M277.52,-91.12C274.18,-79.76 272.18,-64.92 279.21,-54 288.25,-39.96 304.46,-31.48 319.68,-26.4"/>
<polygon fill="black" stroke="black" points="320.35,-29.56 328.96,-23.4 318.38,-22.84 320.35,-29.56"/>
<text text-anchor="start" x="283.21" y="-62" font-family="Courier New" font-weight="bold" font-size="10.00" fill="blue">PLAYWAVE(0,SOUND_SPIT)</text>
</g>
<!-- 2&#45;&gt;0 -->
<g id="edge4" class="edge">
<title>2&#45;&gt;0</title>
<path fill="none" stroke="black" d="M40.82,-33.22C19.35,-54.81 -14.64,-96.55 7.21,-127 47.11,-182.61 132.28,-195.82 181.98,-198.62"/>
<polygon fill="black" stroke="black" points="181.77,-202.16 191.92,-199.1 182.08,-195.17 181.77,-202.16"/>
<text text-anchor="start" x="11.21" y="-107.5" font-family="Courier New" font-weight="bold" font-size="10.00" fill="blue">HANDOFF(0,IDD_SCOOPF)</text>
</g>
<!-- 4&#45;&gt;0 -->
<g id="edge6" class="edge">
<title>4&#45;&gt;0</title>
<path fill="none" stroke="black" d="M381.03,-25.68C395.19,-30.9 411.75,-39.73 420.21,-54 445.68,-96.96 433.44,-129.62 397.21,-164 377.58,-182.63 303.84,-192.05 257.96,-196.21"/>
<polygon fill="black" stroke="black" points="257.89,-192.79 248.22,-197.14 258.49,-199.77 257.89,-192.79"/>
<text text-anchor="start" x="437.21" y="-107.5" font-family="Courier New" font-weight="bold" font-size="10.00" fill="blue">HANDOFF(0,IDD_SCOOPE)</text>
</g>
</g>
</svg>
