<?xml version="1.0" encoding="UTF-8" standalone="no"?>
<!DOCTYPE svg PUBLIC "-//W3C//DTD SVG 1.1//EN"
 "http://www.w3.org/Graphics/SVG/1.1/DTD/svg11.dtd">
<!-- Generated by graphviz version 8.0.1 (20230327.1645)
 -->
<!-- Pages: 1 -->
<svg width="697pt" height="226pt"
 viewBox="0.00 0.00 696.53 226.00" xmlns="http://www.w3.org/2000/svg" xmlns:xlink="http://www.w3.org/1999/xlink">
<g id="graph0" class="graph" transform="scale(1 1) rotate(0) translate(4 222)">
<polygon fill="white" stroke="none" points="-4,4 -4,-222 692.53,-222 692.53,4 -4,4"/>
<!-- 0 -->
<g id="node1" class="node">
<title>0</title>
<ellipse fill="none" stroke="black" cx="258.53" cy="-200" rx="27" ry="18"/>
<text text-anchor="middle" x="258.53" y="-196.3" font-family="Times,serif" font-size="14.00">0</text>
</g>
<!-- 30 -->
<g id="node2" class="node">
<title>30</title>
<ellipse fill="none" stroke="black" cx="65.53" cy="-109" rx="27" ry="18"/>
<text text-anchor="middle" x="65.53" y="-105.3" font-family="Times,serif" font-size="14.00">30</text>
</g>
<!-- 0&#45;&gt;30 -->
<g id="edge1" class="edge">
<title>0&#45;&gt;30</title>
<path fill="none" stroke="black" d="M231.14,-199.53C171.67,-200.03 33.71,-197.47 4.53,-164 -8.79,-148.72 11.92,-133.63 32.73,-123.3"/>
<polygon fill="black" stroke="black" points="33.9,-126.15 41.5,-118.77 30.95,-119.8 33.9,-126.15"/>
<text text-anchor="start" x="8.53" y="-153" font-family="Courier New" font-weight="bold" font-size="10.00" fill="orange">CLICK(0,0)</text>
</g>
<!-- 10 -->
<g id="node3" class="node">
<title>10</title>
<ellipse fill="none" stroke="black" cx="512.53" cy="-109" rx="27" ry="18"/>
<text text-anchor="middle" x="512.53" y="-105.3" font-family="Times,serif" font-size="14.00">10</text>
</g>
<!-- 0&#45;&gt;10 -->
<g id="edge2" class="edge">
<title>0&#45;&gt;10</title>
<path fill="none" stroke="black" d="M282.68,-191.42C322.36,-178.84 403.75,-152.48 471.53,-127 474.28,-125.97 477.11,-124.87 479.95,-123.74"/>
<polygon fill="black" stroke="black" points="481.14,-126.63 489.08,-119.63 478.5,-120.15 481.14,-126.63"/>
<text text-anchor="start" x="422.53" y="-153" font-family="Courier New" font-weight="bold" font-size="10.00" fill="orange">DRAG(0,IDD_SCOOPF)</text>
</g>
<!-- 20 -->
<g id="node4" class="node">
<title>20</title>
<ellipse fill="none" stroke="black" cx="425.53" cy="-18" rx="27" ry="18"/>
<text text-anchor="middle" x="425.53" y="-14.3" font-family="Times,serif" font-size="14.00">20</text>
</g>
<!-- 0&#45;&gt;20 -->
<g id="edge3" class="edge">
<title>0&#45;&gt;20</title>
<path fill="none" stroke="black" d="M285.82,-199.4C348.94,-199.73 502.47,-197.04 539.53,-164 576.75,-130.82 592.08,-93.4 561.53,-54 549.52,-38.5 498.91,-28.66 462.94,-23.49"/>
<polygon fill="black" stroke="black" points="463.7,-19.92 453.31,-22.03 462.75,-26.86 463.7,-19.92"/>
<text text-anchor="start" x="581.53" y="-107.5" font-family="Courier New" font-weight="bold" font-size="10.00" fill="orange">DRAGFOCUS(0,TRUE)</text>
</g>
<!-- 30&#45;&gt;0 -->
<g id="edge7" class="edge">
<title>30&#45;&gt;0</title>
<path fill="none" stroke="black" d="M71.03,-126.94C75.84,-139.1 84.05,-154.88 96.53,-164 132.79,-190.51 185.07,-197.7 220.35,-199.28"/>
<polygon fill="black" stroke="black" points="220.06,-202.8 230.16,-199.61 220.27,-195.81 220.06,-202.8"/>
<text text-anchor="start" x="100.53" y="-153" font-family="Courier New" font-weight="bold" font-size="10.00" fill="blue">Z_EPSILON(,)</text>
</g>
<!-- 70 -->
<g id="node5" class="node">
<title>70</title>
<ellipse fill="none" stroke="black" cx="128.53" cy="-18" rx="27" ry="18"/>
<text text-anchor="middle" x="128.53" y="-14.3" font-family="Times,serif" font-size="14.00">70</text>
</g>
<!-- 30&#45;&gt;70 -->
<g id="edge6" class="edge">
<title>30&#45;&gt;70</title>
<path fill="none" stroke="black" d="M61.68,-90.75C60.13,-79.51 60,-64.95 66.53,-54 72.78,-43.51 83.44,-35.91 94.17,-30.52"/>
<polygon fill="black" stroke="black" points="95.21,-33.45 102.93,-26.18 92.37,-27.05 95.21,-33.45"/>
<text text-anchor="start" x="70.53" y="-62" font-family="Courier New" font-weight="bold" font-size="10.00" fill="blue">EQUALi(LWEALTH,0)</text>
</g>
<!-- 10&#45;&gt;20 -->
<g id="edge4" class="edge">
<title>10&#45;&gt;20</title>
<path fill="none" stroke="black" d="M490,-98.6C484,-96.11 477.53,-93.44 471.53,-91 451.58,-82.87 438.77,-90.72 426.53,-73 421.36,-65.51 419.97,-55.94 420.23,-46.95"/>
<polygon fill="black" stroke="black" points="423.8,-47.35 421.29,-37.06 416.84,-46.67 423.8,-47.35"/>
<text text-anchor="start" x="430.53" y="-62" font-family="Courier New" font-weight="bold" font-size="10.00" fill="blue">HANDOFF(0,IDD_SCOOPE)</text>
</g>
<!-- 20&#45;&gt;0 -->
<g id="edge5" class="edge">
<title>20&#45;&gt;0</title>
<path fill="none" stroke="black" d="M407.05,-31.47C387.93,-44.88 357.81,-67.45 335.53,-91 311.02,-116.91 287.99,-151 273.61,-173.88"/>
<polygon fill="black" stroke="black" points="270.29,-171.61 268,-181.95 276.24,-175.29 270.29,-171.61"/>
<text text-anchor="start" x="339.53" y="-107.5" font-family="Courier New" font-weight="bold" font-size="10.00" fill="blue">PLAYWAVE(0,SOUND_SPIT)</text>
</g>
<!-- 70&#45;&gt;0 -->
<g id="edge8" class="edge">
<title>70&#45;&gt;0</title>
<path fill="none" stroke="black" d="M149.32,-30.04C158.98,-36.04 169.98,-44.24 177.53,-54 198.79,-81.49 188.86,-96.51 205.53,-127 214.94,-144.2 227.97,-161.96 238.75,-175.54"/>
<polygon fill="black" stroke="black" points="236.44,-177.24 245.46,-182.81 241.88,-172.83 236.44,-177.24"/>
<text text-anchor="start" x="209.53" y="-107.5" font-family="Courier New" font-weight="bold" font-size="10.00" fill="blue">LOADVIEW(WIP1,)</text>
</g>
</g>
</svg>
