<?xml version="1.0" encoding="UTF-8" standalone="no"?>
<!DOCTYPE svg PUBLIC "-//W3C//DTD SVG 1.1//EN"
 "http://www.w3.org/Graphics/SVG/1.1/DTD/svg11.dtd">
<!-- Generated by graphviz version 8.0.1 (20230327.1645)
 -->
<!-- Pages: 1 -->
<svg width="399pt" height="408pt"
 viewBox="0.00 0.00 399.00 408.00" xmlns="http://www.w3.org/2000/svg" xmlns:xlink="http://www.w3.org/1999/xlink">
<g id="graph0" class="graph" transform="scale(1 1) rotate(0) translate(4 404)">
<polygon fill="white" stroke="none" points="-4,4 -4,-404 395,-404 395,4 -4,4"/>
<!-- 0 -->
<g id="node1" class="node">
<title>0</title>
<ellipse fill="none" stroke="black" cx="120" cy="-382" rx="27" ry="18"/>
<text text-anchor="middle" x="120" y="-378.3" font-family="Times,serif" font-size="14.00">0</text>
</g>
<!-- 1 -->
<g id="node2" class="node">
<title>1</title>
<ellipse fill="none" stroke="black" cx="120" cy="-291" rx="27" ry="18"/>
<text text-anchor="middle" x="120" y="-287.3" font-family="Times,serif" font-size="14.00">1</text>
</g>
<!-- 0&#45;&gt;1 -->
<g id="edge1" class="edge">
<title>0&#45;&gt;1</title>
<path fill="none" stroke="black" d="M120,-363.84C120,-351.48 120,-334.54 120,-320.21"/>
<polygon fill="black" stroke="black" points="123.5,-320.41 120,-310.41 116.5,-320.41 123.5,-320.41"/>
<text text-anchor="start" x="124" y="-335" font-family="Courier New" font-weight="bold" font-size="10.00" fill="blue">MOV(WSPRITE,WIP1)</text>
</g>
<!-- 2 -->
<g id="node3" class="node">
<title>2</title>
<ellipse fill="none" stroke="black" cx="42" cy="-200" rx="27" ry="18"/>
<text text-anchor="middle" x="42" y="-196.3" font-family="Times,serif" font-size="14.00">2</text>
</g>
<!-- 1&#45;&gt;2 -->
<g id="edge2" class="edge">
<title>1&#45;&gt;2</title>
<path fill="none" stroke="black" d="M98.59,-279.5C88.02,-273.49 75.7,-265.12 67,-255 60.25,-247.15 54.95,-237.16 51,-227.92"/>
<polygon fill="black" stroke="black" points="54.01,-227 47.11,-218.95 47.49,-229.54 54.01,-227"/>
<text text-anchor="start" x="71" y="-244" font-family="Courier New" font-weight="bold" font-size="10.00" fill="blue">ASHOW(WSPRITE,V_LOOP)</text>
</g>
<!-- 3 -->
<g id="node4" class="node">
<title>3</title>
<ellipse fill="none" stroke="black" cx="27" cy="-109" rx="27" ry="18"/>
<text text-anchor="middle" x="27" y="-105.3" font-family="Times,serif" font-size="14.00">3</text>
</g>
<!-- 2&#45;&gt;3 -->
<g id="edge3" class="edge">
<title>2&#45;&gt;3</title>
<path fill="none" stroke="black" d="M39.11,-181.84C37.01,-169.4 34.13,-152.32 31.71,-137.93"/>
<polygon fill="black" stroke="black" points="35,-137.39 29.88,-128.11 28.09,-138.55 35,-137.39"/>
<text text-anchor="start" x="40" y="-153" font-family="Courier New" font-weight="bold" font-size="10.00" fill="orange">CLICK(0,0)</text>
</g>
<!-- 4 -->
<g id="node5" class="node">
<title>4</title>
<ellipse fill="none" stroke="black" cx="120" cy="-18" rx="27" ry="18"/>
<text text-anchor="middle" x="120" y="-14.3" font-family="Times,serif" font-size="14.00">4</text>
</g>
<!-- 3&#45;&gt;4 -->
<g id="edge4" class="edge">
<title>3&#45;&gt;4</title>
<path fill="none" stroke="black" d="M21.4,-90.93C18.75,-79.48 17.6,-64.62 25,-54 37.95,-35.42 61.93,-26.68 82.56,-22.58"/>
<polygon fill="black" stroke="black" points="82.98,-25.89 92.27,-20.79 81.83,-18.98 82.98,-25.89"/>
<text text-anchor="start" x="29" y="-62" font-family="Courier New" font-weight="bold" font-size="10.00" fill="blue">SIGNALi(SIG_OPEN,S01_NATURE)</text>
</g>
<!-- 4&#45;&gt;1 -->
<g id="edge5" class="edge">
<title>4&#45;&gt;1</title>
<path fill="none" stroke="black" d="M146.3,-22.56C165.31,-26.65 189.72,-35.4 202,-54 251.23,-128.54 251.23,-180.46 202,-255 191.83,-270.4 173.34,-279.05 156.49,-283.89"/>
<polygon fill="black" stroke="black" points="156.15,-280.62 147.3,-286.44 157.85,-287.41 156.15,-280.62"/>
<text text-anchor="start" x="242" y="-153" font-family="Courier New" font-weight="bold" font-size="10.00" fill="blue">LOADVIEW(0,IDV_GRNDCNT1)</text>
</g>
</g>
</svg>
