<?xml version="1.0" encoding="UTF-8" standalone="no"?>
<!DOCTYPE svg PUBLIC "-//W3C//DTD SVG 1.1//EN"
 "http://www.w3.org/Graphics/SVG/1.1/DTD/svg11.dtd">
<!-- Generated by graphviz version 8.0.1 (20230327.1645)
 -->
<!-- Pages: 1 -->
<svg width="506pt" height="863pt"
 viewBox="0.00 0.00 506.00 863.00" xmlns="http://www.w3.org/2000/svg" xmlns:xlink="http://www.w3.org/1999/xlink">
<g id="graph0" class="graph" transform="scale(1 1) rotate(0) translate(4 859)">
<polygon fill="white" stroke="none" points="-4,4 -4,-859 502,-859 502,4 -4,4"/>
<!-- 0 -->
<g id="node1" class="node">
<title>0</title>
<ellipse fill="none" stroke="black" cx="344" cy="-837" rx="27" ry="18"/>
<text text-anchor="middle" x="344" y="-833.3" font-family="Times,serif" font-size="14.00">0</text>
</g>
<!-- 1 -->
<g id="node2" class="node">
<title>1</title>
<ellipse fill="none" stroke="black" cx="200" cy="-746" rx="27" ry="18"/>
<text text-anchor="middle" x="200" y="-742.3" font-family="Times,serif" font-size="14.00">1</text>
</g>
<!-- 0&#45;&gt;1 -->
<g id="edge1" class="edge">
<title>0&#45;&gt;1</title>
<path fill="none" stroke="black" d="M317.16,-833.29C279.87,-828.91 215.33,-818.91 201,-801 195.21,-793.76 193.74,-784.07 194.12,-774.89"/>
<polygon fill="black" stroke="black" points="197.69,-775.48 195.33,-765.15 190.74,-774.69 197.69,-775.48"/>
<text text-anchor="start" x="205" y="-790" font-family="Courier New" font-weight="bold" font-size="10.00" fill="blue">C_ACCEPT(0,IDC_POLE)</text>
</g>
<!-- 2 -->
<g id="node3" class="node">
<title>2</title>
<ellipse fill="none" stroke="black" cx="200" cy="-655" rx="27" ry="18"/>
<text text-anchor="middle" x="200" y="-651.3" font-family="Times,serif" font-size="14.00">2</text>
</g>
<!-- 1&#45;&gt;2 -->
<g id="edge2" class="edge">
<title>1&#45;&gt;2</title>
<path fill="none" stroke="black" d="M200,-727.84C200,-715.48 200,-698.54 200,-684.21"/>
<polygon fill="black" stroke="black" points="203.5,-684.41 200,-674.41 196.5,-684.41 203.5,-684.41"/>
<text text-anchor="start" x="204" y="-699" font-family="Courier New" font-weight="bold" font-size="10.00" fill="blue">SHOW(0,0)</text>
</g>
<!-- 3 -->
<g id="node4" class="node">
<title>3</title>
<ellipse fill="none" stroke="black" cx="200" cy="-564" rx="27" ry="18"/>
<text text-anchor="middle" x="200" y="-560.3" font-family="Times,serif" font-size="14.00">3</text>
</g>
<!-- 2&#45;&gt;3 -->
<g id="edge3" class="edge">
<title>2&#45;&gt;3</title>
<path fill="none" stroke="black" d="M200,-636.84C200,-624.48 200,-607.54 200,-593.21"/>
<polygon fill="black" stroke="black" points="203.5,-593.41 200,-583.41 196.5,-593.41 203.5,-593.41"/>
<text text-anchor="start" x="204" y="-608" font-family="Courier New" font-weight="bold" font-size="10.00" fill="orange">DROP(0,0)</text>
</g>
<!-- 8 -->
<g id="node5" class="node">
<title>8</title>
<ellipse fill="none" stroke="black" cx="226" cy="-109" rx="27" ry="18"/>
<text text-anchor="middle" x="226" y="-105.3" font-family="Times,serif" font-size="14.00">8</text>
</g>
<!-- 3&#45;&gt;8 -->
<g id="edge4" class="edge">
<title>3&#45;&gt;8</title>
<path fill="none" stroke="black" d="M172.61,-562.91C117.84,-561.15 0,-548.68 0,-474 0,-474 0,-474 0,-199 0,-158.74 125.74,-129.02 189.64,-116.52"/>
<polygon fill="black" stroke="black" points="189.91,-119.84 199.07,-114.52 188.6,-112.97 189.91,-119.84"/>
<text text-anchor="start" x="4" y="-335" font-family="Courier New" font-weight="bold" font-size="10.00" fill="blue">IS_A(WOBJECT,ISA_BAITEDPOLE)</text>
</g>
<!-- 4 -->
<g id="node6" class="node">
<title>4</title>
<ellipse fill="none" stroke="black" cx="200" cy="-473" rx="27" ry="18"/>
<text text-anchor="middle" x="200" y="-469.3" font-family="Times,serif" font-size="14.00">4</text>
</g>
<!-- 3&#45;&gt;4 -->
<g id="edge5" class="edge">
<title>3&#45;&gt;4</title>
<path fill="none" stroke="black" d="M200,-545.84C200,-533.48 200,-516.54 200,-502.21"/>
<polygon fill="black" stroke="black" points="203.5,-502.41 200,-492.41 196.5,-502.41 203.5,-502.41"/>
<text text-anchor="start" x="204" y="-517" font-family="Courier New" font-weight="bold" font-size="10.00" fill="blue">SHOW(0,IDS_POLE1LOL)</text>
</g>
<!-- 9 -->
<g id="node10" class="node">
<title>9</title>
<ellipse fill="none" stroke="black" cx="318" cy="-18" rx="27" ry="18"/>
<text text-anchor="middle" x="318" y="-14.3" font-family="Times,serif" font-size="14.00">9</text>
</g>
<!-- 8&#45;&gt;9 -->
<g id="edge11" class="edge">
<title>8&#45;&gt;9</title>
<path fill="none" stroke="black" d="M240.78,-93.7C255.54,-79.43 278.4,-57.31 295.43,-40.84"/>
<polygon fill="black" stroke="black" points="297.5,-43.73 302.26,-34.26 292.63,-38.7 297.5,-43.73"/>
<text text-anchor="start" x="285" y="-62" font-family="Courier New" font-weight="bold" font-size="10.00" fill="blue">SHOW(0,IDS_POLE1B)</text>
</g>
<!-- 5 -->
<g id="node7" class="node">
<title>5</title>
<ellipse fill="none" stroke="black" cx="200" cy="-382" rx="27" ry="18"/>
<text text-anchor="middle" x="200" y="-378.3" font-family="Times,serif" font-size="14.00">5</text>
</g>
<!-- 4&#45;&gt;5 -->
<g id="edge6" class="edge">
<title>4&#45;&gt;5</title>
<path fill="none" stroke="black" d="M200,-454.84C200,-442.48 200,-425.54 200,-411.21"/>
<polygon fill="black" stroke="black" points="203.5,-411.41 200,-401.41 196.5,-411.41 203.5,-411.41"/>
<text text-anchor="start" x="204" y="-426" font-family="Courier New" font-weight="bold" font-size="10.00" fill="blue">MOV(WPARM,WOBJECT)</text>
</g>
<!-- 6 -->
<g id="node8" class="node">
<title>6</title>
<ellipse fill="none" stroke="black" cx="226" cy="-291" rx="27" ry="18"/>
<text text-anchor="middle" x="226" y="-287.3" font-family="Times,serif" font-size="14.00">6</text>
</g>
<!-- 5&#45;&gt;6 -->
<g id="edge7" class="edge">
<title>5&#45;&gt;6</title>
<path fill="none" stroke="black" d="M197.78,-364.02C196.97,-353.17 197.05,-338.93 201,-327 202.27,-323.16 204.12,-319.37 206.25,-315.8"/>
<polygon fill="black" stroke="black" points="209.58,-318.14 212.34,-307.91 203.8,-314.18 209.58,-318.14"/>
<text text-anchor="start" x="205" y="-335" font-family="Courier New" font-weight="bold" font-size="10.00" fill="blue">C_ACCEPT(0,ISA_BAIT)</text>
</g>
<!-- 6&#45;&gt;0 -->
<g id="edge9" class="edge">
<title>6&#45;&gt;0</title>
<path fill="none" stroke="black" d="M252.85,-294.02C276.43,-297.23 310,-305.53 330,-327 346.9,-345.14 344,-356.21 344,-381 344,-747 344,-747 344,-747 344,-767.41 344,-790.45 344,-807.97"/>
<polygon fill="black" stroke="black" points="340.5,-807.61 344,-817.61 347.5,-807.61 340.5,-807.61"/>
<text text-anchor="start" x="348" y="-562.5" font-family="Courier New" font-weight="bold" font-size="10.00" fill="orange">GRAB(0,0)</text>
</g>
<!-- 7 -->
<g id="node9" class="node">
<title>7</title>
<ellipse fill="none" stroke="black" cx="226" cy="-200" rx="27" ry="18"/>
<text text-anchor="middle" x="226" y="-196.3" font-family="Times,serif" font-size="14.00">7</text>
</g>
<!-- 6&#45;&gt;7 -->
<g id="edge8" class="edge">
<title>6&#45;&gt;7</title>
<path fill="none" stroke="black" d="M226,-272.84C226,-260.48 226,-243.54 226,-229.21"/>
<polygon fill="black" stroke="black" points="229.5,-229.41 226,-219.41 222.5,-229.41 229.5,-229.41"/>
<text text-anchor="start" x="230" y="-244" font-family="Courier New" font-weight="bold" font-size="10.00" fill="orange">DROP(0,0)</text>
</g>
<!-- 7&#45;&gt;8 -->
<g id="edge10" class="edge">
<title>7&#45;&gt;8</title>
<path fill="none" stroke="black" d="M226,-181.84C226,-169.48 226,-152.54 226,-138.21"/>
<polygon fill="black" stroke="black" points="229.5,-138.41 226,-128.41 222.5,-138.41 229.5,-138.41"/>
<text text-anchor="start" x="230" y="-153" font-family="Courier New" font-weight="bold" font-size="10.00" fill="blue">MIX(WPARM,WOBJECT)</text>
</g>
<!-- 9&#45;&gt;0 -->
<g id="edge12" class="edge">
<title>9&#45;&gt;0</title>
<path fill="none" stroke="black" d="M342.81,-25.73C377.16,-36.72 435,-62.06 435,-108 435,-747 435,-747 435,-747 435,-781.1 401.95,-806.42 375.68,-821.16"/>
<polygon fill="black" stroke="black" points="374.22,-818.51 367.03,-826.29 377.5,-824.69 374.22,-818.51"/>
<text text-anchor="start" x="439" y="-426" font-family="Courier New" font-weight="bold" font-size="10.00" fill="orange">GRAB(0,0)</text>
</g>
</g>
</svg>
