<?xml version="1.0" encoding="UTF-8" standalone="no"?>
<!DOCTYPE svg PUBLIC "-//W3C//DTD SVG 1.1//EN"
 "http://www.w3.org/Graphics/SVG/1.1/DTD/svg11.dtd">
<!-- Generated by graphviz version 8.0.1 (20230327.1645)
 -->
<!-- Pages: 1 -->
<svg width="745pt" height="408pt"
 viewBox="0.00 0.00 745.00 408.00" xmlns="http://www.w3.org/2000/svg" xmlns:xlink="http://www.w3.org/1999/xlink">
<g id="graph0" class="graph" transform="scale(1 1) rotate(0) translate(4 404)">
<polygon fill="white" stroke="none" points="-4,4 -4,-404 741,-404 741,4 -4,4"/>
<!-- 0 -->
<g id="node1" class="node">
<title>0</title>
<ellipse fill="none" stroke="black" cx="336" cy="-382" rx="27" ry="18"/>
<text text-anchor="middle" x="336" y="-378.3" font-family="Times,serif" font-size="14.00">0</text>
</g>
<!-- 1 -->
<g id="node2" class="node">
<title>1</title>
<ellipse fill="none" stroke="black" cx="34" cy="-291" rx="27" ry="18"/>
<text text-anchor="middle" x="34" y="-287.3" font-family="Times,serif" font-size="14.00">1</text>
</g>
<!-- 0&#45;&gt;1 -->
<g id="edge1" class="edge">
<title>0&#45;&gt;1</title>
<path fill="none" stroke="black" d="M308.91,-380.56C265.9,-379.04 180.03,-372.59 113,-346 93.05,-338.09 73.12,-324.41 58.26,-312.8"/>
<polygon fill="black" stroke="black" points="60.7,-309.46 50.72,-305.91 56.31,-314.91 60.7,-309.46"/>
<text text-anchor="start" x="117" y="-335" font-family="Courier New" font-weight="bold" font-size="10.00" fill="orange">CLICK(0,0)</text>
</g>
<!-- 10 -->
<g id="node3" class="node">
<title>10</title>
<ellipse fill="none" stroke="black" cx="518" cy="-291" rx="27" ry="18"/>
<text text-anchor="middle" x="518" y="-287.3" font-family="Times,serif" font-size="14.00">10</text>
</g>
<!-- 0&#45;&gt;10 -->
<g id="edge2" class="edge">
<title>0&#45;&gt;10</title>
<path fill="none" stroke="black" d="M357.23,-370.62C389.2,-354.98 449.88,-325.31 486.86,-307.23"/>
<polygon fill="black" stroke="black" points="488.17,-309.99 495.62,-302.46 485.1,-303.7 488.17,-309.99"/>
<text text-anchor="start" x="447" y="-335" font-family="Courier New" font-weight="bold" font-size="10.00" fill="orange">DRAGFOCUS(0,TRUE)</text>
</g>
<!-- 20 -->
<g id="node4" class="node">
<title>20</title>
<ellipse fill="none" stroke="black" cx="196" cy="-109" rx="27" ry="18"/>
<text text-anchor="middle" x="196" y="-105.3" font-family="Times,serif" font-size="14.00">20</text>
</g>
<!-- 0&#45;&gt;20 -->
<g id="edge3" class="edge">
<title>0&#45;&gt;20</title>
<path fill="none" stroke="black" d="M316.91,-369.09C287.34,-349.46 231.35,-307.2 207,-255 189.4,-217.26 189.91,-167.97 192.5,-137.67"/>
<polygon fill="black" stroke="black" points="196.05,-138.35 193.57,-128.05 189.09,-137.65 196.05,-138.35"/>
<text text-anchor="start" x="211" y="-244" font-family="Courier New" font-weight="bold" font-size="10.00" fill="orange">DRAGFOCUS(0,FALSE)</text>
</g>
<!-- 2 -->
<g id="node5" class="node">
<title>2</title>
<ellipse fill="none" stroke="black" cx="27" cy="-200" rx="27" ry="18"/>
<text text-anchor="middle" x="27" y="-196.3" font-family="Times,serif" font-size="14.00">2</text>
</g>
<!-- 1&#45;&gt;2 -->
<g id="edge4" class="edge">
<title>1&#45;&gt;2</title>
<path fill="none" stroke="black" d="M20.27,-275.12C15.77,-269.28 11.32,-262.25 9,-255 6.01,-245.67 8.04,-235.46 11.65,-226.46"/>
<polygon fill="black" stroke="black" points="15.22,-228.09 16.4,-217.56 8.91,-225.06 15.22,-228.09"/>
<text text-anchor="start" x="13" y="-244" font-family="Courier New" font-weight="bold" font-size="10.00" fill="blue">PLAYWAVE(0,SOUND_BTNPRESS)</text>
</g>
<!-- 11 -->
<g id="node6" class="node">
<title>11</title>
<ellipse fill="none" stroke="black" cx="473" cy="-200" rx="27" ry="18"/>
<text text-anchor="middle" x="473" y="-196.3" font-family="Times,serif" font-size="14.00">11</text>
</g>
<!-- 10&#45;&gt;11 -->
<g id="edge5" class="edge">
<title>10&#45;&gt;11</title>
<path fill="none" stroke="black" d="M512.07,-273.08C508.05,-262.24 502.31,-248.01 496,-236 494.22,-232.62 492.2,-229.14 490.12,-225.76"/>
<polygon fill="black" stroke="black" points="492.58,-224.13 484.21,-217.63 486.7,-227.93 492.58,-224.13"/>
<text text-anchor="start" x="508" y="-244" font-family="Courier New" font-weight="bold" font-size="10.00" fill="blue">MOV(WSPRITE,WIP2)</text>
</g>
<!-- 21 -->
<g id="node8" class="node">
<title>21</title>
<ellipse fill="none" stroke="black" cx="420" cy="-18" rx="27" ry="18"/>
<text text-anchor="middle" x="420" y="-14.3" font-family="Times,serif" font-size="14.00">21</text>
</g>
<!-- 20&#45;&gt;21 -->
<g id="edge9" class="edge">
<title>20&#45;&gt;21</title>
<path fill="none" stroke="black" d="M218.71,-98.98C258.54,-83.15 341.12,-50.34 387.17,-32.04"/>
<polygon fill="black" stroke="black" points="388.23,-34.99 396.23,-28.05 385.64,-28.49 388.23,-34.99"/>
<text text-anchor="start" x="332" y="-62" font-family="Courier New" font-weight="bold" font-size="10.00" fill="blue">MOV(WSPRITE,WIP3)</text>
</g>
<!-- 2&#45;&gt;20 -->
<g id="edge8" class="edge">
<title>2&#45;&gt;20</title>
<path fill="none" stroke="black" d="M39.3,-183.71C49.76,-171.63 65.79,-155.17 83,-145 106.55,-131.08 136.19,-122.17 159.2,-116.83"/>
<polygon fill="black" stroke="black" points="159.89,-120.04 168.91,-114.48 158.39,-113.2 159.89,-120.04"/>
<text text-anchor="start" x="87" y="-153" font-family="Courier New" font-weight="bold" font-size="10.00" fill="blue">LOADVIEW(WIP1,)</text>
</g>
<!-- 12 -->
<g id="node7" class="node">
<title>12</title>
<ellipse fill="none" stroke="black" cx="427" cy="-109" rx="27" ry="18"/>
<text text-anchor="middle" x="427" y="-105.3" font-family="Times,serif" font-size="14.00">12</text>
</g>
<!-- 11&#45;&gt;12 -->
<g id="edge6" class="edge">
<title>11&#45;&gt;12</title>
<path fill="none" stroke="black" d="M464.56,-182.68C457.86,-169.71 448.36,-151.32 440.59,-136.29"/>
<polygon fill="black" stroke="black" points="443.24,-134.8 435.54,-127.52 437.02,-138.01 443.24,-134.8"/>
<text text-anchor="start" x="458" y="-153" font-family="Courier New" font-weight="bold" font-size="10.00" fill="blue">SHOW(WSPRITE,)</text>
</g>
<!-- 12&#45;&gt;0 -->
<g id="edge7" class="edge">
<title>12&#45;&gt;0</title>
<path fill="none" stroke="black" d="M411.53,-124.04C389.11,-145.54 348.56,-189.12 333,-236 319.99,-275.2 324.88,-323.7 330.08,-353.49"/>
<polygon fill="black" stroke="black" points="326.76,-353.75 332.05,-362.93 333.64,-352.45 326.76,-353.75"/>
<text text-anchor="start" x="337" y="-244" font-family="Courier New" font-weight="bold" font-size="10.00" fill="blue">PLAYWAVE(0,SOUND_BTNDRAG)</text>
</g>
<!-- 21&#45;&gt;0 -->
<g id="edge10" class="edge">
<title>21&#45;&gt;0</title>
<path fill="none" stroke="black" d="M446.13,-23.65C505.22,-34.91 644,-65.84 644,-108 644,-292 644,-292 644,-292 644,-347.62 456.29,-370.64 373.95,-378.06"/>
<polygon fill="black" stroke="black" points="373.72,-374.65 364.06,-379.01 374.33,-381.63 373.72,-374.65"/>
<text text-anchor="start" x="648" y="-198.5" font-family="Courier New" font-weight="bold" font-size="10.00" fill="blue">SHOW(WSPRITE,)</text>
</g>
</g>
</svg>
