<?xml version="1.0" encoding="UTF-8" standalone="no"?>
<!DOCTYPE svg PUBLIC "-//W3C//DTD SVG 1.1//EN"
 "http://www.w3.org/Graphics/SVG/1.1/DTD/svg11.dtd">
<!-- Generated by graphviz version 8.0.1 (20230327.1645)
 -->
<!-- Pages: 1 -->
<svg width="344pt" height="4321pt"
 viewBox="0.00 0.00 344.00 4321.00" xmlns="http://www.w3.org/2000/svg" xmlns:xlink="http://www.w3.org/1999/xlink">
<g id="graph0" class="graph" transform="scale(1 1) rotate(0) translate(4 4317)">
<polygon fill="white" stroke="none" points="-4,4 -4,-4317 340,-4317 340,4 -4,4"/>
<!-- 0 -->
<g id="node1" class="node">
<title>0</title>
<ellipse fill="none" stroke="black" cx="150" cy="-4295" rx="27" ry="18"/>
<text text-anchor="middle" x="150" y="-4291.3" font-family="Times,serif" font-size="14.00">0</text>
</g>
<!-- 1 -->
<g id="node2" class="node">
<title>1</title>
<ellipse fill="none" stroke="black" cx="150" cy="-4204" rx="27" ry="18"/>
<text text-anchor="middle" x="150" y="-4200.3" font-family="Times,serif" font-size="14.00">1</text>
</g>
<!-- 0&#45;&gt;1 -->
<g id="edge1" class="edge">
<title>0&#45;&gt;1</title>
<path fill="none" stroke="black" d="M150,-4276.84C150,-4264.48 150,-4247.54 150,-4233.21"/>
<polygon fill="black" stroke="black" points="153.5,-4233.41 150,-4223.41 146.5,-4233.41 153.5,-4233.41"/>
<text text-anchor="start" x="154" y="-4248" font-family="Courier New" font-weight="bold" font-size="10.00" fill="blue">SHOW(WIP1,)</text>
</g>
<!-- 150 -->
<g id="node3" class="node">
<title>150</title>
<ellipse fill="none" stroke="black" cx="80" cy="-4113" rx="27" ry="18"/>
<text text-anchor="middle" x="80" y="-4109.3" font-family="Times,serif" font-size="14.00">150</text>
</g>
<!-- 1&#45;&gt;150 -->
<g id="edge2" class="edge">
<title>1&#45;&gt;150</title>
<path fill="none" stroke="black" d="M137.81,-4187.5C126.97,-4173.71 110.96,-4153.36 98.53,-4137.56"/>
<polygon fill="black" stroke="black" points="100.99,-4136.02 92.05,-4130.32 95.48,-4140.35 100.99,-4136.02"/>
<text text-anchor="start" x="126" y="-4157" font-family="Courier New" font-weight="bold" font-size="10.00" fill="orange">CLICK(0,0)</text>
</g>
<!-- 101 -->
<g id="node4" class="node">
<title>101</title>
<ellipse fill="none" stroke="black" cx="43" cy="-4022" rx="27" ry="18"/>
<text text-anchor="middle" x="43" y="-4018.3" font-family="Times,serif" font-size="14.00">101</text>
</g>
<!-- 150&#45;&gt;101 -->
<g id="edge48" class="edge">
<title>150&#45;&gt;101</title>
<path fill="none" stroke="black" d="M68.68,-4096.16C64.89,-4090.34 60.9,-4083.56 58,-4077 54.29,-4068.61 51.29,-4059.09 48.96,-4050.39"/>
<polygon fill="black" stroke="black" points="52.18,-4049.84 46.38,-4040.98 45.39,-4051.53 52.18,-4049.84"/>
<text text-anchor="start" x="62" y="-4066" font-family="Courier New" font-weight="bold" font-size="10.00" fill="blue">SIGNALi(SIG_NULL,S00_CLEAR)</text>
</g>
<!-- 102 -->
<g id="node5" class="node">
<title>102</title>
<ellipse fill="none" stroke="black" cx="38" cy="-3931" rx="27" ry="18"/>
<text text-anchor="middle" x="38" y="-3927.3" font-family="Times,serif" font-size="14.00">102</text>
</g>
<!-- 101&#45;&gt;102 -->
<g id="edge3" class="edge">
<title>101&#45;&gt;102</title>
<path fill="none" stroke="black" d="M42.04,-4003.84C41.34,-3991.48 40.39,-3974.54 39.58,-3960.21"/>
<polygon fill="black" stroke="black" points="43.03,-3960.2 38.98,-3950.41 36.04,-3960.59 43.03,-3960.2"/>
<text text-anchor="start" x="45" y="-3975" font-family="Courier New" font-weight="bold" font-size="10.00" fill="blue">ASSIGN(WTEMP1,IDD_WPAWN)</text>
</g>
<!-- 103 -->
<g id="node6" class="node">
<title>103</title>
<ellipse fill="none" stroke="black" cx="32" cy="-3840" rx="27" ry="18"/>
<text text-anchor="middle" x="32" y="-3836.3" font-family="Times,serif" font-size="14.00">103</text>
</g>
<!-- 102&#45;&gt;103 -->
<g id="edge4" class="edge">
<title>102&#45;&gt;103</title>
<path fill="none" stroke="black" d="M35.74,-3912.58C35.09,-3906.97 34.43,-3900.73 34,-3895 33.36,-3886.51 32.92,-3877.25 32.62,-3868.84"/>
<polygon fill="black" stroke="black" points="36.1,-3868.93 32.3,-3859.04 29.1,-3869.14 36.1,-3868.93"/>
<text text-anchor="start" x="38" y="-3884" font-family="Courier New" font-weight="bold" font-size="10.00" fill="blue">SIGNALi(SIG_SET,S00_SQUARE00+8)</text>
</g>
<!-- 104 -->
<g id="node7" class="node">
<title>104</title>
<ellipse fill="none" stroke="black" cx="29" cy="-3749" rx="27" ry="18"/>
<text text-anchor="middle" x="29" y="-3745.3" font-family="Times,serif" font-size="14.00">104</text>
</g>
<!-- 103&#45;&gt;104 -->
<g id="edge5" class="edge">
<title>103&#45;&gt;104</title>
<path fill="none" stroke="black" d="M31.42,-3821.84C31.01,-3809.48 30.43,-3792.54 29.95,-3778.21"/>
<polygon fill="black" stroke="black" points="33.42,-3778.29 29.59,-3768.41 26.43,-3778.52 33.42,-3778.29"/>
<text text-anchor="start" x="35" y="-3793" font-family="Courier New" font-weight="bold" font-size="10.00" fill="blue">SIGNALi(SIG_SET,S00_SQUARE00+9)</text>
</g>
<!-- 105 -->
<g id="node8" class="node">
<title>105</title>
<ellipse fill="none" stroke="black" cx="27" cy="-3658" rx="27" ry="18"/>
<text text-anchor="middle" x="27" y="-3654.3" font-family="Times,serif" font-size="14.00">105</text>
</g>
<!-- 104&#45;&gt;105 -->
<g id="edge6" class="edge">
<title>104&#45;&gt;105</title>
<path fill="none" stroke="black" d="M28.47,-3730.55C28.31,-3724.95 28.13,-3718.71 28,-3713 27.8,-3704.49 27.62,-3695.23 27.46,-3686.82"/>
<polygon fill="black" stroke="black" points="30.95,-3686.96 27.27,-3677.03 23.95,-3687.09 30.95,-3686.96"/>
<text text-anchor="start" x="32" y="-3702" font-family="Courier New" font-weight="bold" font-size="10.00" fill="blue">SIGNALi(SIG_SET,S00_SQUARE00+10)</text>
</g>
<!-- 106 -->
<g id="node9" class="node">
<title>106</title>
<ellipse fill="none" stroke="black" cx="27" cy="-3567" rx="27" ry="18"/>
<text text-anchor="middle" x="27" y="-3563.3" font-family="Times,serif" font-size="14.00">106</text>
</g>
<!-- 105&#45;&gt;106 -->
<g id="edge7" class="edge">
<title>105&#45;&gt;106</title>
<path fill="none" stroke="black" d="M27,-3639.84C27,-3627.48 27,-3610.54 27,-3596.21"/>
<polygon fill="black" stroke="black" points="30.5,-3596.41 27,-3586.41 23.5,-3596.41 30.5,-3596.41"/>
<text text-anchor="start" x="31" y="-3611" font-family="Courier New" font-weight="bold" font-size="10.00" fill="blue">SIGNALi(SIG_SET,S00_SQUARE00+11)</text>
</g>
<!-- 107 -->
<g id="node10" class="node">
<title>107</title>
<ellipse fill="none" stroke="black" cx="27" cy="-3476" rx="27" ry="18"/>
<text text-anchor="middle" x="27" y="-3472.3" font-family="Times,serif" font-size="14.00">107</text>
</g>
<!-- 106&#45;&gt;107 -->
<g id="edge8" class="edge">
<title>106&#45;&gt;107</title>
<path fill="none" stroke="black" d="M27,-3548.84C27,-3536.48 27,-3519.54 27,-3505.21"/>
<polygon fill="black" stroke="black" points="30.5,-3505.41 27,-3495.41 23.5,-3505.41 30.5,-3505.41"/>
<text text-anchor="start" x="31" y="-3520" font-family="Courier New" font-weight="bold" font-size="10.00" fill="blue">SIGNALi(SIG_SET,S00_SQUARE00+12)</text>
</g>
<!-- 108 -->
<g id="node11" class="node">
<title>108</title>
<ellipse fill="none" stroke="black" cx="27" cy="-3385" rx="27" ry="18"/>
<text text-anchor="middle" x="27" y="-3381.3" font-family="Times,serif" font-size="14.00">108</text>
</g>
<!-- 107&#45;&gt;108 -->
<g id="edge9" class="edge">
<title>107&#45;&gt;108</title>
<path fill="none" stroke="black" d="M27,-3457.84C27,-3445.48 27,-3428.54 27,-3414.21"/>
<polygon fill="black" stroke="black" points="30.5,-3414.41 27,-3404.41 23.5,-3414.41 30.5,-3414.41"/>
<text text-anchor="start" x="31" y="-3429" font-family="Courier New" font-weight="bold" font-size="10.00" fill="blue">SIGNALi(SIG_SET,S00_SQUARE00+13)</text>
</g>
<!-- 109 -->
<g id="node12" class="node">
<title>109</title>
<ellipse fill="none" stroke="black" cx="27" cy="-3294" rx="27" ry="18"/>
<text text-anchor="middle" x="27" y="-3290.3" font-family="Times,serif" font-size="14.00">109</text>
</g>
<!-- 108&#45;&gt;109 -->
<g id="edge10" class="edge">
<title>108&#45;&gt;109</title>
<path fill="none" stroke="black" d="M27,-3366.84C27,-3354.48 27,-3337.54 27,-3323.21"/>
<polygon fill="black" stroke="black" points="30.5,-3323.41 27,-3313.41 23.5,-3323.41 30.5,-3323.41"/>
<text text-anchor="start" x="31" y="-3338" font-family="Courier New" font-weight="bold" font-size="10.00" fill="blue">SIGNALi(SIG_SET,S00_SQUARE00+14)</text>
</g>
<!-- 110 -->
<g id="node13" class="node">
<title>110</title>
<ellipse fill="none" stroke="black" cx="30" cy="-3203" rx="27" ry="18"/>
<text text-anchor="middle" x="30" y="-3199.3" font-family="Times,serif" font-size="14.00">110</text>
</g>
<!-- 109&#45;&gt;110 -->
<g id="edge11" class="edge">
<title>109&#45;&gt;110</title>
<path fill="none" stroke="black" d="M27.15,-3275.97C27.28,-3265.34 27.53,-3251.37 28,-3239 28.08,-3236.86 28.18,-3234.64 28.28,-3232.41"/>
<polygon fill="black" stroke="black" points="31.83,-3232.61 28.87,-3222.44 24.84,-3232.24 31.83,-3232.61"/>
<text text-anchor="start" x="32" y="-3247" font-family="Courier New" font-weight="bold" font-size="10.00" fill="blue">SIGNALi(SIG_SET,S00_SQUARE00+15)</text>
</g>
<!-- 111 -->
<g id="node14" class="node">
<title>111</title>
<ellipse fill="none" stroke="black" cx="32" cy="-3112" rx="27" ry="18"/>
<text text-anchor="middle" x="32" y="-3108.3" font-family="Times,serif" font-size="14.00">111</text>
</g>
<!-- 110&#45;&gt;111 -->
<g id="edge12" class="edge">
<title>110&#45;&gt;111</title>
<path fill="none" stroke="black" d="M30.39,-3184.84C30.66,-3172.48 31.04,-3155.54 31.37,-3141.21"/>
<polygon fill="black" stroke="black" points="34.88,-3141.49 31.61,-3131.41 27.88,-3141.33 34.88,-3141.49"/>
<text text-anchor="start" x="36" y="-3156" font-family="Courier New" font-weight="bold" font-size="10.00" fill="blue">ASSIGN(WTEMP1,IDD_WROOK)</text>
</g>
<!-- 112 -->
<g id="node15" class="node">
<title>112</title>
<ellipse fill="none" stroke="black" cx="33" cy="-3021" rx="27" ry="18"/>
<text text-anchor="middle" x="33" y="-3017.3" font-family="Times,serif" font-size="14.00">112</text>
</g>
<!-- 111&#45;&gt;112 -->
<g id="edge13" class="edge">
<title>111&#45;&gt;112</title>
<path fill="none" stroke="black" d="M32.19,-3093.84C32.33,-3081.48 32.52,-3064.54 32.68,-3050.21"/>
<polygon fill="black" stroke="black" points="36.19,-3050.45 32.8,-3040.41 29.19,-3050.37 36.19,-3050.45"/>
<text text-anchor="start" x="37" y="-3065" font-family="Courier New" font-weight="bold" font-size="10.00" fill="blue">SIGNALi(SIG_SET,S00_SQUARE00+0)</text>
</g>
<!-- 113 -->
<g id="node16" class="node">
<title>113</title>
<ellipse fill="none" stroke="black" cx="33" cy="-2930" rx="27" ry="18"/>
<text text-anchor="middle" x="33" y="-2926.3" font-family="Times,serif" font-size="14.00">113</text>
</g>
<!-- 112&#45;&gt;113 -->
<g id="edge14" class="edge">
<title>112&#45;&gt;113</title>
<path fill="none" stroke="black" d="M33,-3002.84C33,-2990.48 33,-2973.54 33,-2959.21"/>
<polygon fill="black" stroke="black" points="36.5,-2959.41 33,-2949.41 29.5,-2959.41 36.5,-2959.41"/>
<text text-anchor="start" x="37" y="-2974" font-family="Courier New" font-weight="bold" font-size="10.00" fill="blue">SIGNALi(SIG_SET,S00_SQUARE00+7)</text>
</g>
<!-- 114 -->
<g id="node17" class="node">
<title>114</title>
<ellipse fill="none" stroke="black" cx="33" cy="-2839" rx="27" ry="18"/>
<text text-anchor="middle" x="33" y="-2835.3" font-family="Times,serif" font-size="14.00">114</text>
</g>
<!-- 113&#45;&gt;114 -->
<g id="edge15" class="edge">
<title>113&#45;&gt;114</title>
<path fill="none" stroke="black" d="M33,-2911.84C33,-2899.48 33,-2882.54 33,-2868.21"/>
<polygon fill="black" stroke="black" points="36.5,-2868.41 33,-2858.41 29.5,-2868.41 36.5,-2868.41"/>
<text text-anchor="start" x="37" y="-2883" font-family="Courier New" font-weight="bold" font-size="10.00" fill="blue">ASSIGN(WTEMP1,IDD_WKNIGHT)</text>
</g>
<!-- 115 -->
<g id="node18" class="node">
<title>115</title>
<ellipse fill="none" stroke="black" cx="33" cy="-2748" rx="27" ry="18"/>
<text text-anchor="middle" x="33" y="-2744.3" font-family="Times,serif" font-size="14.00">115</text>
</g>
<!-- 114&#45;&gt;115 -->
<g id="edge16" class="edge">
<title>114&#45;&gt;115</title>
<path fill="none" stroke="black" d="M33,-2820.84C33,-2808.48 33,-2791.54 33,-2777.21"/>
<polygon fill="black" stroke="black" points="36.5,-2777.41 33,-2767.41 29.5,-2777.41 36.5,-2777.41"/>
<text text-anchor="start" x="37" y="-2792" font-family="Courier New" font-weight="bold" font-size="10.00" fill="blue">SIGNALi(SIG_SET,S00_SQUARE00+1)</text>
</g>
<!-- 116 -->
<g id="node19" class="node">
<title>116</title>
<ellipse fill="none" stroke="black" cx="33" cy="-2657" rx="27" ry="18"/>
<text text-anchor="middle" x="33" y="-2653.3" font-family="Times,serif" font-size="14.00">116</text>
</g>
<!-- 115&#45;&gt;116 -->
<g id="edge17" class="edge">
<title>115&#45;&gt;116</title>
<path fill="none" stroke="black" d="M33,-2729.84C33,-2717.48 33,-2700.54 33,-2686.21"/>
<polygon fill="black" stroke="black" points="36.5,-2686.41 33,-2676.41 29.5,-2686.41 36.5,-2686.41"/>
<text text-anchor="start" x="37" y="-2701" font-family="Courier New" font-weight="bold" font-size="10.00" fill="blue">SIGNALi(SIG_SET,S00_SQUARE00+6)</text>
</g>
<!-- 117 -->
<g id="node20" class="node">
<title>117</title>
<ellipse fill="none" stroke="black" cx="33" cy="-2566" rx="27" ry="18"/>
<text text-anchor="middle" x="33" y="-2562.3" font-family="Times,serif" font-size="14.00">117</text>
</g>
<!-- 116&#45;&gt;117 -->
<g id="edge18" class="edge">
<title>116&#45;&gt;117</title>
<path fill="none" stroke="black" d="M33,-2638.84C33,-2626.48 33,-2609.54 33,-2595.21"/>
<polygon fill="black" stroke="black" points="36.5,-2595.41 33,-2585.41 29.5,-2595.41 36.5,-2595.41"/>
<text text-anchor="start" x="37" y="-2610" font-family="Courier New" font-weight="bold" font-size="10.00" fill="blue">ASSIGN(WTEMP1,IDD_WBISHOP)</text>
</g>
<!-- 118 -->
<g id="node21" class="node">
<title>118</title>
<ellipse fill="none" stroke="black" cx="33" cy="-2475" rx="27" ry="18"/>
<text text-anchor="middle" x="33" y="-2471.3" font-family="Times,serif" font-size="14.00">118</text>
</g>
<!-- 117&#45;&gt;118 -->
<g id="edge19" class="edge">
<title>117&#45;&gt;118</title>
<path fill="none" stroke="black" d="M33,-2547.84C33,-2535.48 33,-2518.54 33,-2504.21"/>
<polygon fill="black" stroke="black" points="36.5,-2504.41 33,-2494.41 29.5,-2504.41 36.5,-2504.41"/>
<text text-anchor="start" x="37" y="-2519" font-family="Courier New" font-weight="bold" font-size="10.00" fill="blue">SIGNALi(SIG_SET,S00_SQUARE00+2)</text>
</g>
<!-- 119 -->
<g id="node22" class="node">
<title>119</title>
<ellipse fill="none" stroke="black" cx="33" cy="-2384" rx="27" ry="18"/>
<text text-anchor="middle" x="33" y="-2380.3" font-family="Times,serif" font-size="14.00">119</text>
</g>
<!-- 118&#45;&gt;119 -->
<g id="edge20" class="edge">
<title>118&#45;&gt;119</title>
<path fill="none" stroke="black" d="M33,-2456.84C33,-2444.48 33,-2427.54 33,-2413.21"/>
<polygon fill="black" stroke="black" points="36.5,-2413.41 33,-2403.41 29.5,-2413.41 36.5,-2413.41"/>
<text text-anchor="start" x="37" y="-2428" font-family="Courier New" font-weight="bold" font-size="10.00" fill="blue">SIGNALi(SIG_SET,S00_SQUARE00+5)</text>
</g>
<!-- 120 -->
<g id="node23" class="node">
<title>120</title>
<ellipse fill="none" stroke="black" cx="33" cy="-2293" rx="27" ry="18"/>
<text text-anchor="middle" x="33" y="-2289.3" font-family="Times,serif" font-size="14.00">120</text>
</g>
<!-- 119&#45;&gt;120 -->
<g id="edge21" class="edge">
<title>119&#45;&gt;120</title>
<path fill="none" stroke="black" d="M33,-2365.84C33,-2353.48 33,-2336.54 33,-2322.21"/>
<polygon fill="black" stroke="black" points="36.5,-2322.41 33,-2312.41 29.5,-2322.41 36.5,-2322.41"/>
<text text-anchor="start" x="37" y="-2337" font-family="Courier New" font-weight="bold" font-size="10.00" fill="blue">ASSIGN(WTEMP1,IDD_WQUEEN)</text>
</g>
<!-- 121 -->
<g id="node24" class="node">
<title>121</title>
<ellipse fill="none" stroke="black" cx="33" cy="-2202" rx="27" ry="18"/>
<text text-anchor="middle" x="33" y="-2198.3" font-family="Times,serif" font-size="14.00">121</text>
</g>
<!-- 120&#45;&gt;121 -->
<g id="edge22" class="edge">
<title>120&#45;&gt;121</title>
<path fill="none" stroke="black" d="M33,-2274.84C33,-2262.48 33,-2245.54 33,-2231.21"/>
<polygon fill="black" stroke="black" points="36.5,-2231.41 33,-2221.41 29.5,-2231.41 36.5,-2231.41"/>
<text text-anchor="start" x="37" y="-2246" font-family="Courier New" font-weight="bold" font-size="10.00" fill="blue">SIGNALi(SIG_SET,S00_SQUARE00+3)</text>
</g>
<!-- 122 -->
<g id="node25" class="node">
<title>122</title>
<ellipse fill="none" stroke="black" cx="33" cy="-2111" rx="27" ry="18"/>
<text text-anchor="middle" x="33" y="-2107.3" font-family="Times,serif" font-size="14.00">122</text>
</g>
<!-- 121&#45;&gt;122 -->
<g id="edge23" class="edge">
<title>121&#45;&gt;122</title>
<path fill="none" stroke="black" d="M33,-2183.84C33,-2171.48 33,-2154.54 33,-2140.21"/>
<polygon fill="black" stroke="black" points="36.5,-2140.41 33,-2130.41 29.5,-2140.41 36.5,-2140.41"/>
<text text-anchor="start" x="37" y="-2155" font-family="Courier New" font-weight="bold" font-size="10.00" fill="blue">ASSIGN(WTEMP1,IDD_WKING)</text>
</g>
<!-- 124 -->
<g id="node26" class="node">
<title>124</title>
<ellipse fill="none" stroke="black" cx="33" cy="-2020" rx="27" ry="18"/>
<text text-anchor="middle" x="33" y="-2016.3" font-family="Times,serif" font-size="14.00">124</text>
</g>
<!-- 122&#45;&gt;124 -->
<g id="edge24" class="edge">
<title>122&#45;&gt;124</title>
<path fill="none" stroke="black" d="M33,-2092.84C33,-2080.48 33,-2063.54 33,-2049.21"/>
<polygon fill="black" stroke="black" points="36.5,-2049.41 33,-2039.41 29.5,-2049.41 36.5,-2049.41"/>
<text text-anchor="start" x="37" y="-2064" font-family="Courier New" font-weight="bold" font-size="10.00" fill="blue">SIGNALi(SIG_SET,S00_SQUARE00+4)</text>
</g>
<!-- 125 -->
<g id="node27" class="node">
<title>125</title>
<ellipse fill="none" stroke="black" cx="33" cy="-1929" rx="27" ry="18"/>
<text text-anchor="middle" x="33" y="-1925.3" font-family="Times,serif" font-size="14.00">125</text>
</g>
<!-- 124&#45;&gt;125 -->
<g id="edge25" class="edge">
<title>124&#45;&gt;125</title>
<path fill="none" stroke="black" d="M33,-2001.84C33,-1989.48 33,-1972.54 33,-1958.21"/>
<polygon fill="black" stroke="black" points="36.5,-1958.41 33,-1948.41 29.5,-1958.41 36.5,-1958.41"/>
<text text-anchor="start" x="37" y="-1973" font-family="Courier New" font-weight="bold" font-size="10.00" fill="blue">ASSIGN(WTEMP1,IDD_BPAWN)</text>
</g>
<!-- 126 -->
<g id="node28" class="node">
<title>126</title>
<ellipse fill="none" stroke="black" cx="33" cy="-1838" rx="27" ry="18"/>
<text text-anchor="middle" x="33" y="-1834.3" font-family="Times,serif" font-size="14.00">126</text>
</g>
<!-- 125&#45;&gt;126 -->
<g id="edge26" class="edge">
<title>125&#45;&gt;126</title>
<path fill="none" stroke="black" d="M33,-1910.84C33,-1898.48 33,-1881.54 33,-1867.21"/>
<polygon fill="black" stroke="black" points="36.5,-1867.41 33,-1857.41 29.5,-1867.41 36.5,-1867.41"/>
<text text-anchor="start" x="37" y="-1882" font-family="Courier New" font-weight="bold" font-size="10.00" fill="blue">SIGNALi(SIG_SET,S00_SQUARE48)</text>
</g>
<!-- 127 -->
<g id="node29" class="node">
<title>127</title>
<ellipse fill="none" stroke="black" cx="33" cy="-1747" rx="27" ry="18"/>
<text text-anchor="middle" x="33" y="-1743.3" font-family="Times,serif" font-size="14.00">127</text>
</g>
<!-- 126&#45;&gt;127 -->
<g id="edge27" class="edge">
<title>126&#45;&gt;127</title>
<path fill="none" stroke="black" d="M33,-1819.84C33,-1807.48 33,-1790.54 33,-1776.21"/>
<polygon fill="black" stroke="black" points="36.5,-1776.41 33,-1766.41 29.5,-1776.41 36.5,-1776.41"/>
<text text-anchor="start" x="37" y="-1791" font-family="Courier New" font-weight="bold" font-size="10.00" fill="blue">SIGNALi(SIG_SET,S00_SQUARE48+1)</text>
</g>
<!-- 128 -->
<g id="node30" class="node">
<title>128</title>
<ellipse fill="none" stroke="black" cx="33" cy="-1656" rx="27" ry="18"/>
<text text-anchor="middle" x="33" y="-1652.3" font-family="Times,serif" font-size="14.00">128</text>
</g>
<!-- 127&#45;&gt;128 -->
<g id="edge28" class="edge">
<title>127&#45;&gt;128</title>
<path fill="none" stroke="black" d="M33,-1728.84C33,-1716.48 33,-1699.54 33,-1685.21"/>
<polygon fill="black" stroke="black" points="36.5,-1685.41 33,-1675.41 29.5,-1685.41 36.5,-1685.41"/>
<text text-anchor="start" x="37" y="-1700" font-family="Courier New" font-weight="bold" font-size="10.00" fill="blue">SIGNALi(SIG_SET,S00_SQUARE48+2)</text>
</g>
<!-- 129 -->
<g id="node31" class="node">
<title>129</title>
<ellipse fill="none" stroke="black" cx="33" cy="-1565" rx="27" ry="18"/>
<text text-anchor="middle" x="33" y="-1561.3" font-family="Times,serif" font-size="14.00">129</text>
</g>
<!-- 128&#45;&gt;129 -->
<g id="edge29" class="edge">
<title>128&#45;&gt;129</title>
<path fill="none" stroke="black" d="M33,-1637.84C33,-1625.48 33,-1608.54 33,-1594.21"/>
<polygon fill="black" stroke="black" points="36.5,-1594.41 33,-1584.41 29.5,-1594.41 36.5,-1594.41"/>
<text text-anchor="start" x="37" y="-1609" font-family="Courier New" font-weight="bold" font-size="10.00" fill="blue">SIGNALi(SIG_SET,S00_SQUARE48+3)</text>
</g>
<!-- 130 -->
<g id="node32" class="node">
<title>130</title>
<ellipse fill="none" stroke="black" cx="33" cy="-1474" rx="27" ry="18"/>
<text text-anchor="middle" x="33" y="-1470.3" font-family="Times,serif" font-size="14.00">130</text>
</g>
<!-- 129&#45;&gt;130 -->
<g id="edge30" class="edge">
<title>129&#45;&gt;130</title>
<path fill="none" stroke="black" d="M33,-1546.84C33,-1534.48 33,-1517.54 33,-1503.21"/>
<polygon fill="black" stroke="black" points="36.5,-1503.41 33,-1493.41 29.5,-1503.41 36.5,-1503.41"/>
<text text-anchor="start" x="37" y="-1518" font-family="Courier New" font-weight="bold" font-size="10.00" fill="blue">SIGNALi(SIG_SET,S00_SQUARE48+4)</text>
</g>
<!-- 131 -->
<g id="node33" class="node">
<title>131</title>
<ellipse fill="none" stroke="black" cx="33" cy="-1383" rx="27" ry="18"/>
<text text-anchor="middle" x="33" y="-1379.3" font-family="Times,serif" font-size="14.00">131</text>
</g>
<!-- 130&#45;&gt;131 -->
<g id="edge31" class="edge">
<title>130&#45;&gt;131</title>
<path fill="none" stroke="black" d="M33,-1455.84C33,-1443.48 33,-1426.54 33,-1412.21"/>
<polygon fill="black" stroke="black" points="36.5,-1412.41 33,-1402.41 29.5,-1412.41 36.5,-1412.41"/>
<text text-anchor="start" x="37" y="-1427" font-family="Courier New" font-weight="bold" font-size="10.00" fill="blue">SIGNALi(SIG_SET,S00_SQUARE48+5)</text>
</g>
<!-- 132 -->
<g id="node34" class="node">
<title>132</title>
<ellipse fill="none" stroke="black" cx="33" cy="-1292" rx="27" ry="18"/>
<text text-anchor="middle" x="33" y="-1288.3" font-family="Times,serif" font-size="14.00">132</text>
</g>
<!-- 131&#45;&gt;132 -->
<g id="edge32" class="edge">
<title>131&#45;&gt;132</title>
<path fill="none" stroke="black" d="M33,-1364.84C33,-1352.48 33,-1335.54 33,-1321.21"/>
<polygon fill="black" stroke="black" points="36.5,-1321.41 33,-1311.41 29.5,-1321.41 36.5,-1321.41"/>
<text text-anchor="start" x="37" y="-1336" font-family="Courier New" font-weight="bold" font-size="10.00" fill="blue">SIGNALi(SIG_SET,S00_SQUARE48+6)</text>
</g>
<!-- 133 -->
<g id="node35" class="node">
<title>133</title>
<ellipse fill="none" stroke="black" cx="33" cy="-1201" rx="27" ry="18"/>
<text text-anchor="middle" x="33" y="-1197.3" font-family="Times,serif" font-size="14.00">133</text>
</g>
<!-- 132&#45;&gt;133 -->
<g id="edge33" class="edge">
<title>132&#45;&gt;133</title>
<path fill="none" stroke="black" d="M33,-1273.84C33,-1261.48 33,-1244.54 33,-1230.21"/>
<polygon fill="black" stroke="black" points="36.5,-1230.41 33,-1220.41 29.5,-1230.41 36.5,-1230.41"/>
<text text-anchor="start" x="37" y="-1245" font-family="Courier New" font-weight="bold" font-size="10.00" fill="blue">SIGNALi(SIG_SET,S00_SQUARE48+7)</text>
</g>
<!-- 134 -->
<g id="node36" class="node">
<title>134</title>
<ellipse fill="none" stroke="black" cx="33" cy="-1110" rx="27" ry="18"/>
<text text-anchor="middle" x="33" y="-1106.3" font-family="Times,serif" font-size="14.00">134</text>
</g>
<!-- 133&#45;&gt;134 -->
<g id="edge34" class="edge">
<title>133&#45;&gt;134</title>
<path fill="none" stroke="black" d="M33,-1182.84C33,-1170.48 33,-1153.54 33,-1139.21"/>
<polygon fill="black" stroke="black" points="36.5,-1139.41 33,-1129.41 29.5,-1139.41 36.5,-1139.41"/>
<text text-anchor="start" x="37" y="-1154" font-family="Courier New" font-weight="bold" font-size="10.00" fill="blue">ASSIGN(WTEMP1,IDD_BROOK)</text>
</g>
<!-- 135 -->
<g id="node37" class="node">
<title>135</title>
<ellipse fill="none" stroke="black" cx="33" cy="-1019" rx="27" ry="18"/>
<text text-anchor="middle" x="33" y="-1015.3" font-family="Times,serif" font-size="14.00">135</text>
</g>
<!-- 134&#45;&gt;135 -->
<g id="edge35" class="edge">
<title>134&#45;&gt;135</title>
<path fill="none" stroke="black" d="M33,-1091.84C33,-1079.48 33,-1062.54 33,-1048.21"/>
<polygon fill="black" stroke="black" points="36.5,-1048.41 33,-1038.41 29.5,-1048.41 36.5,-1048.41"/>
<text text-anchor="start" x="37" y="-1063" font-family="Courier New" font-weight="bold" font-size="10.00" fill="blue">SIGNALi(SIG_SET,S00_SQUARE56+0)</text>
</g>
<!-- 136 -->
<g id="node38" class="node">
<title>136</title>
<ellipse fill="none" stroke="black" cx="33" cy="-928" rx="27" ry="18"/>
<text text-anchor="middle" x="33" y="-924.3" font-family="Times,serif" font-size="14.00">136</text>
</g>
<!-- 135&#45;&gt;136 -->
<g id="edge36" class="edge">
<title>135&#45;&gt;136</title>
<path fill="none" stroke="black" d="M33,-1000.84C33,-988.48 33,-971.54 33,-957.21"/>
<polygon fill="black" stroke="black" points="36.5,-957.41 33,-947.41 29.5,-957.41 36.5,-957.41"/>
<text text-anchor="start" x="37" y="-972" font-family="Courier New" font-weight="bold" font-size="10.00" fill="blue">SIGNALi(SIG_SET,S00_SQUARE56+7)</text>
</g>
<!-- 137 -->
<g id="node39" class="node">
<title>137</title>
<ellipse fill="none" stroke="black" cx="33" cy="-837" rx="27" ry="18"/>
<text text-anchor="middle" x="33" y="-833.3" font-family="Times,serif" font-size="14.00">137</text>
</g>
<!-- 136&#45;&gt;137 -->
<g id="edge37" class="edge">
<title>136&#45;&gt;137</title>
<path fill="none" stroke="black" d="M33,-909.84C33,-897.48 33,-880.54 33,-866.21"/>
<polygon fill="black" stroke="black" points="36.5,-866.41 33,-856.41 29.5,-866.41 36.5,-866.41"/>
<text text-anchor="start" x="37" y="-881" font-family="Courier New" font-weight="bold" font-size="10.00" fill="blue">ASSIGN(WTEMP1,IDD_BKNIGHT)</text>
</g>
<!-- 138 -->
<g id="node40" class="node">
<title>138</title>
<ellipse fill="none" stroke="black" cx="33" cy="-746" rx="27" ry="18"/>
<text text-anchor="middle" x="33" y="-742.3" font-family="Times,serif" font-size="14.00">138</text>
</g>
<!-- 137&#45;&gt;138 -->
<g id="edge38" class="edge">
<title>137&#45;&gt;138</title>
<path fill="none" stroke="black" d="M33,-818.84C33,-806.48 33,-789.54 33,-775.21"/>
<polygon fill="black" stroke="black" points="36.5,-775.41 33,-765.41 29.5,-775.41 36.5,-775.41"/>
<text text-anchor="start" x="37" y="-790" font-family="Courier New" font-weight="bold" font-size="10.00" fill="blue">SIGNALi(SIG_SET,S00_SQUARE56+1)</text>
</g>
<!-- 139 -->
<g id="node41" class="node">
<title>139</title>
<ellipse fill="none" stroke="black" cx="33" cy="-655" rx="27" ry="18"/>
<text text-anchor="middle" x="33" y="-651.3" font-family="Times,serif" font-size="14.00">139</text>
</g>
<!-- 138&#45;&gt;139 -->
<g id="edge39" class="edge">
<title>138&#45;&gt;139</title>
<path fill="none" stroke="black" d="M33,-727.84C33,-715.48 33,-698.54 33,-684.21"/>
<polygon fill="black" stroke="black" points="36.5,-684.41 33,-674.41 29.5,-684.41 36.5,-684.41"/>
<text text-anchor="start" x="37" y="-699" font-family="Courier New" font-weight="bold" font-size="10.00" fill="blue">SIGNALi(SIG_SET,S00_SQUARE56+6)</text>
</g>
<!-- 140 -->
<g id="node42" class="node">
<title>140</title>
<ellipse fill="none" stroke="black" cx="33" cy="-564" rx="27" ry="18"/>
<text text-anchor="middle" x="33" y="-560.3" font-family="Times,serif" font-size="14.00">140</text>
</g>
<!-- 139&#45;&gt;140 -->
<g id="edge40" class="edge">
<title>139&#45;&gt;140</title>
<path fill="none" stroke="black" d="M33,-636.84C33,-624.48 33,-607.54 33,-593.21"/>
<polygon fill="black" stroke="black" points="36.5,-593.41 33,-583.41 29.5,-593.41 36.5,-593.41"/>
<text text-anchor="start" x="37" y="-608" font-family="Courier New" font-weight="bold" font-size="10.00" fill="blue">ASSIGN(WTEMP1,IDD_BBISHOP)</text>
</g>
<!-- 141 -->
<g id="node43" class="node">
<title>141</title>
<ellipse fill="none" stroke="black" cx="33" cy="-473" rx="27" ry="18"/>
<text text-anchor="middle" x="33" y="-469.3" font-family="Times,serif" font-size="14.00">141</text>
</g>
<!-- 140&#45;&gt;141 -->
<g id="edge41" class="edge">
<title>140&#45;&gt;141</title>
<path fill="none" stroke="black" d="M33,-545.84C33,-533.48 33,-516.54 33,-502.21"/>
<polygon fill="black" stroke="black" points="36.5,-502.41 33,-492.41 29.5,-502.41 36.5,-502.41"/>
<text text-anchor="start" x="37" y="-517" font-family="Courier New" font-weight="bold" font-size="10.00" fill="blue">SIGNALi(SIG_SET,S00_SQUARE56+2)</text>
</g>
<!-- 142 -->
<g id="node44" class="node">
<title>142</title>
<ellipse fill="none" stroke="black" cx="33" cy="-382" rx="27" ry="18"/>
<text text-anchor="middle" x="33" y="-378.3" font-family="Times,serif" font-size="14.00">142</text>
</g>
<!-- 141&#45;&gt;142 -->
<g id="edge42" class="edge">
<title>141&#45;&gt;142</title>
<path fill="none" stroke="black" d="M33,-454.84C33,-442.48 33,-425.54 33,-411.21"/>
<polygon fill="black" stroke="black" points="36.5,-411.41 33,-401.41 29.5,-411.41 36.5,-411.41"/>
<text text-anchor="start" x="37" y="-426" font-family="Courier New" font-weight="bold" font-size="10.00" fill="blue">SIGNALi(SIG_SET,S00_SQUARE56+5)</text>
</g>
<!-- 143 -->
<g id="node45" class="node">
<title>143</title>
<ellipse fill="none" stroke="black" cx="33" cy="-291" rx="27" ry="18"/>
<text text-anchor="middle" x="33" y="-287.3" font-family="Times,serif" font-size="14.00">143</text>
</g>
<!-- 142&#45;&gt;143 -->
<g id="edge43" class="edge">
<title>142&#45;&gt;143</title>
<path fill="none" stroke="black" d="M33,-363.84C33,-351.48 33,-334.54 33,-320.21"/>
<polygon fill="black" stroke="black" points="36.5,-320.41 33,-310.41 29.5,-320.41 36.5,-320.41"/>
<text text-anchor="start" x="37" y="-335" font-family="Courier New" font-weight="bold" font-size="10.00" fill="blue">ASSIGN(WTEMP1,IDD_BQUEEN)</text>
</g>
<!-- 144 -->
<g id="node46" class="node">
<title>144</title>
<ellipse fill="none" stroke="black" cx="33" cy="-200" rx="27" ry="18"/>
<text text-anchor="middle" x="33" y="-196.3" font-family="Times,serif" font-size="14.00">144</text>
</g>
<!-- 143&#45;&gt;144 -->
<g id="edge44" class="edge">
<title>143&#45;&gt;144</title>
<path fill="none" stroke="black" d="M33,-272.84C33,-260.48 33,-243.54 33,-229.21"/>
<polygon fill="black" stroke="black" points="36.5,-229.41 33,-219.41 29.5,-229.41 36.5,-229.41"/>
<text text-anchor="start" x="37" y="-244" font-family="Courier New" font-weight="bold" font-size="10.00" fill="blue">SIGNALi(SIG_SET,S00_SQUARE56+3)</text>
</g>
<!-- 145 -->
<g id="node47" class="node">
<title>145</title>
<ellipse fill="none" stroke="black" cx="33" cy="-109" rx="27" ry="18"/>
<text text-anchor="middle" x="33" y="-105.3" font-family="Times,serif" font-size="14.00">145</text>
</g>
<!-- 144&#45;&gt;145 -->
<g id="edge45" class="edge">
<title>144&#45;&gt;145</title>
<path fill="none" stroke="black" d="M33,-181.84C33,-169.48 33,-152.54 33,-138.21"/>
<polygon fill="black" stroke="black" points="36.5,-138.41 33,-128.41 29.5,-138.41 36.5,-138.41"/>
<text text-anchor="start" x="37" y="-153" font-family="Courier New" font-weight="bold" font-size="10.00" fill="blue">ASSIGN(WTEMP1,IDD_BKING)</text>
</g>
<!-- 146 -->
<g id="node48" class="node">
<title>146</title>
<ellipse fill="none" stroke="black" cx="138" cy="-18" rx="27" ry="18"/>
<text text-anchor="middle" x="138" y="-14.3" font-family="Times,serif" font-size="14.00">146</text>
</g>
<!-- 145&#45;&gt;146 -->
<g id="edge46" class="edge">
<title>145&#45;&gt;146</title>
<path fill="none" stroke="black" d="M28.57,-90.81C26.66,-79.31 26.35,-64.44 34,-54 49.09,-33.4 76.9,-24.78 99.97,-21.24"/>
<polygon fill="black" stroke="black" points="100.34,-24.59 109.83,-19.88 99.47,-17.64 100.34,-24.59"/>
<text text-anchor="start" x="38" y="-62" font-family="Courier New" font-weight="bold" font-size="10.00" fill="blue">SIGNALi(SIG_SET,S00_SQUARE56+4)</text>
</g>
<!-- 146&#45;&gt;1 -->
<g id="edge47" class="edge">
<title>146&#45;&gt;1</title>
<path fill="none" stroke="black" d="M164.43,-22.54C184.89,-26.65 212.43,-35.44 229,-54 245.51,-72.5 243,-83.21 243,-108 243,-4114 243,-4114 243,-4114 243,-4148.63 208.92,-4173.95 182.02,-4188.54"/>
<polygon fill="black" stroke="black" points="180.81,-4185.74 173.51,-4193.42 184.01,-4191.97 180.81,-4185.74"/>
<text text-anchor="start" x="247" y="-2109.5" font-family="Courier New" font-weight="bold" font-size="10.00" fill="blue">CLEAR(WTEMP1,)</text>
</g>
</g>
</svg>
