<?xml version="1.0" encoding="UTF-8" standalone="no"?>
<!DOCTYPE svg PUBLIC "-//W3C//DTD SVG 1.1//EN"
 "http://www.w3.org/Graphics/SVG/1.1/DTD/svg11.dtd">
<!-- Generated by graphviz version 8.0.1 (20230327.1645)
 -->
<!-- Pages: 1 -->
<svg width="807pt" height="358pt"
 viewBox="0.00 0.00 806.95 358.00" xmlns="http://www.w3.org/2000/svg" xmlns:xlink="http://www.w3.org/1999/xlink">
<g id="graph0" class="graph" transform="scale(1 1) rotate(0) translate(4 354)">
<polygon fill="white" stroke="none" points="-4,4 -4,-354 802.95,-354 802.95,4 -4,4"/>
<!-- 0 -->
<g id="node1" class="node">
<title>0</title>
<ellipse fill="none" stroke="black" cx="416.95" cy="-332" rx="27" ry="18"/>
<text text-anchor="middle" x="416.95" y="-328.3" font-family="Times,serif" font-size="14.00">0</text>
</g>
<!-- 100 -->
<g id="node2" class="node">
<title>100</title>
<ellipse fill="none" stroke="black" cx="300.95" cy="-220" rx="27" ry="18"/>
<text text-anchor="middle" x="300.95" y="-216.3" font-family="Times,serif" font-size="14.00">100</text>
</g>
<!-- 0&#45;&gt;100 -->
<g id="edge1" class="edge">
<title>0&#45;&gt;100</title>
<path fill="none" stroke="black" d="M389.68,-330.75C302.49,-329.65 34.67,-324.02 8.95,-296 -3.07,-282.9 -2.85,-269.3 8.95,-256 25.55,-237.29 187.8,-226.72 263.01,-222.79"/>
<polygon fill="black" stroke="black" points="263.07,-226.24 272.88,-222.23 262.71,-219.25 263.07,-226.24"/>
<polygon fill="none" stroke="black" points="11.95,-276 11.95,-293 275.95,-293 275.95,-276 11.95,-276"/>
<text text-anchor="start" x="116.45" y="-283" font-family="Courier New" font-weight="bold" font-size="10.00" fill="orange">DROP(0,0)</text>
<polygon fill="none" stroke="black" points="11.95,-259 11.95,-274 275.95,-274 275.95,-259 11.95,-259"/>
<text text-anchor="start" x="14.95" y="-264.6" font-family="Times,serif" font-size="8.00" fill="blue">PLAYWAVE(SOUND_POPUP);ASHOW(WOBJECT);CLEAR(WVIEWID);</text>
<polygon fill="none" stroke="black" points="8.95,-256 8.95,-296 278.95,-296 278.95,-256 8.95,-256"/>
</g>
<!-- 10 -->
<g id="node3" class="node">
<title>10</title>
<ellipse fill="none" stroke="black" cx="459.95" cy="-220" rx="27" ry="18"/>
<text text-anchor="middle" x="459.95" y="-216.3" font-family="Times,serif" font-size="14.00">10</text>
</g>
<!-- 0&#45;&gt;10 -->
<g id="edge2" class="edge">
<title>0&#45;&gt;10</title>
<path fill="none" stroke="black" d="M413.24,-313.7C410.73,-297.87 409.26,-274.22 417.95,-256 421,-249.59 425.86,-243.94 431.2,-239.15"/>
<polygon fill="black" stroke="black" points="433.14,-241.29 438.81,-232.34 428.8,-235.8 433.14,-241.29"/>
<text text-anchor="start" x="421.95" y="-274.5" font-family="Courier New" font-weight="bold" font-size="10.00" fill="orange">GRAB(0,0)</text>
</g>
<!-- 100&#45;&gt;0 -->
<g id="edge5" class="edge">
<title>100&#45;&gt;0</title>
<path fill="none" stroke="black" d="M299.25,-238.26C298.58,-254.97 300.29,-280.03 313.95,-296 330.12,-314.91 356.92,-323.63 379.13,-327.63"/>
<polygon fill="black" stroke="black" points="378.51,-331.23 388.92,-329.29 379.57,-324.31 378.51,-331.23"/>
<text text-anchor="start" x="317.95" y="-274.5" font-family="Courier New" font-weight="bold" font-size="10.00" fill="blue">Z_EPSILON(0,0)</text>
</g>
<!-- 120 -->
<g id="node4" class="node">
<title>120</title>
<ellipse fill="none" stroke="black" cx="469.95" cy="-18" rx="27" ry="18"/>
<text text-anchor="middle" x="469.95" y="-14.3" font-family="Times,serif" font-size="14.00">120</text>
</g>
<!-- 100&#45;&gt;120 -->
<g id="edge4" class="edge">
<title>100&#45;&gt;120</title>
<path fill="none" stroke="black" d="M313.65,-203.97C342.89,-169.36 415.13,-83.87 450.2,-42.36"/>
<polygon fill="black" stroke="black" points="453.32,-45.1 457.1,-35.21 447.97,-40.59 453.32,-45.1"/>
<polygon fill="none" stroke="black" points="439.95,-164 439.95,-181 593.95,-181 593.95,-164 439.95,-164"/>
<text text-anchor="start" x="444.45" y="-171" font-family="Courier New" font-weight="bold" font-size="10.00" fill="blue">IS_A(WOBJECT,IDC_SCROLL)</text>
<polygon fill="none" stroke="black" points="439.95,-57 439.95,-162 593.95,-162 593.95,-57 439.95,-57"/>
<text text-anchor="start" x="442.95" y="-152.6" font-family="Times,serif" font-size="8.00" fill="blue">MOV(WPARM,WOBJECT);</text>
<text text-anchor="start" x="442.95" y="-143.6" font-family="Times,serif" font-size="8.00" fill="blue"> &#160;&#160;&#160;&#160;&#160;&#160;&#160;MAPi(WPARM,S12_SCROLL);</text>
<text text-anchor="start" x="442.95" y="-134.6" font-family="Times,serif" font-size="8.00" fill="blue"> &#160;&#160;&#160;&#160;&#160;&#160;&#160;MOV(WVIEWID,LVIEW);</text>
<text text-anchor="start" x="442.95" y="-125.6" font-family="Times,serif" font-size="8.00" fill="blue"> &#160;&#160;&#160;&#160;&#160;&#160;&#160;SIGNALi(SIG_SHOW,S12_SHIELD);</text>
<text text-anchor="start" x="442.95" y="-116.6" font-family="Times,serif" font-size="8.00" fill="blue"> &#160;&#160;&#160;&#160;&#160;&#160;&#160;SIGNALi(SIG_SHOW,S12_WORD);</text>
<text text-anchor="start" x="442.95" y="-107.6" font-family="Times,serif" font-size="8.00" fill="blue"> &#160;&#160;&#160;&#160;&#160;&#160;&#160;SIGNALi(SIG_SHOW,S12_ING1);</text>
<text text-anchor="start" x="442.95" y="-98.6" font-family="Times,serif" font-size="8.00" fill="blue"> &#160;&#160;&#160;&#160;&#160;&#160;&#160;SIGNALi(SIG_SHOW,S12_ING2);</text>
<text text-anchor="start" x="442.95" y="-89.6" font-family="Times,serif" font-size="8.00" fill="blue"> &#160;&#160;&#160;&#160;&#160;&#160;&#160;SIGNALi(SIG_SHOW,S12_ING3);</text>
<text text-anchor="start" x="442.95" y="-80.6" font-family="Times,serif" font-size="8.00" fill="blue"> &#160;&#160;&#160;&#160;&#160;&#160;&#160;SIGNALi(SIG_SHOW,S12_ING4);</text>
<text text-anchor="start" x="442.95" y="-71.6" font-family="Times,serif" font-size="8.00" fill="blue"> &#160;&#160;&#160;&#160;&#160;&#160;&#160;SIGNALi(SIG_SHOW,S12_NYST);</text>
<text text-anchor="start" x="442.95" y="-62.6" font-family="Times,serif" font-size="8.00" fill="blue"> &#160;&#160;&#160;&#160;&#160;&#160;</text>
<polygon fill="none" stroke="black" points="436.95,-54 436.95,-184 596.95,-184 596.95,-54 436.95,-54"/>
</g>
<!-- 10&#45;&gt;0 -->
<g id="edge3" class="edge">
<title>10&#45;&gt;0</title>
<path fill="none" stroke="black" d="M471.73,-236.54C475.44,-242.34 479.06,-249.17 480.95,-256 485.69,-273.13 490.01,-280.71 480.95,-296 474.4,-307.04 463.01,-314.82 451.64,-320.2"/>
<polygon fill="black" stroke="black" points="450.65,-317.24 442.77,-324.32 453.35,-323.69 450.65,-317.24"/>
<polygon fill="none" stroke="black" points="488.95,-276 488.95,-293 604.95,-293 604.95,-276 488.95,-276"/>
<text text-anchor="start" x="492.45" y="-283" font-family="Courier New" font-weight="bold" font-size="10.00" fill="blue">LOADVIEW(WVIEWID,)</text>
<polygon fill="none" stroke="black" points="488.95,-259 488.95,-274 604.95,-274 604.95,-259 488.95,-259"/>
<text text-anchor="start" x="491.95" y="-264.6" font-family="Times,serif" font-size="8.00" fill="blue">CLEAR(WVIEWID);SHOW(0);</text>
<polygon fill="none" stroke="black" points="485.95,-256 485.95,-296 607.95,-296 607.95,-256 485.95,-256"/>
</g>
<!-- 120&#45;&gt;0 -->
<g id="edge6" class="edge">
<title>120&#45;&gt;0</title>
<path fill="none" stroke="black" d="M496.5,-22.41C530.87,-27.41 587.89,-37.92 600.95,-54 687.21,-160.22 630.55,-273.76 611.95,-296 592.35,-319.42 506.12,-327.19 455.12,-329.75"/>
<polygon fill="black" stroke="black" points="455.03,-326.3 445.2,-330.25 455.35,-333.29 455.03,-326.3"/>
<text text-anchor="start" x="649.95" y="-218.5" font-family="Courier New" font-weight="bold" font-size="10.00" fill="blue">LOADVIEW(0,IDV_SPELLPAN)</text>
</g>
</g>
</svg>
