<?xml version="1.0" encoding="UTF-8" standalone="no"?>
<!DOCTYPE svg PUBLIC "-//W3C//DTD SVG 1.1//EN"
 "http://www.w3.org/Graphics/SVG/1.1/DTD/svg11.dtd">
<!-- Generated by graphviz version 8.0.1 (20230327.1645)
 -->
<!-- Pages: 1 -->
<svg width="1747pt" height="1227pt"
 viewBox="0.00 0.00 1747.00 1227.00" xmlns="http://www.w3.org/2000/svg" xmlns:xlink="http://www.w3.org/1999/xlink">
<g id="graph0" class="graph" transform="scale(1 1) rotate(0) translate(4 1223)">
<polygon fill="white" stroke="none" points="-4,4 -4,-1223 1743,-1223 1743,4 -4,4"/>
<!-- 0 -->
<g id="node1" class="node">
<title>0</title>
<ellipse fill="none" stroke="black" cx="1339" cy="-1201" rx="27" ry="18"/>
<text text-anchor="middle" x="1339" y="-1197.3" font-family="Times,serif" font-size="14.00">0</text>
</g>
<!-- 100 -->
<g id="node2" class="node">
<title>100</title>
<ellipse fill="none" stroke="black" cx="407" cy="-1110" rx="27" ry="18"/>
<text text-anchor="middle" x="407" y="-1106.3" font-family="Times,serif" font-size="14.00">100</text>
</g>
<!-- 0&#45;&gt;100 -->
<g id="edge1" class="edge">
<title>0&#45;&gt;100</title>
<path fill="none" stroke="black" d="M1312.11,-1197.43C1179.77,-1184.79 597.82,-1129.22 444.26,-1114.56"/>
<polygon fill="black" stroke="black" points="444.84,-1111 434.55,-1113.54 444.17,-1117.97 444.84,-1111"/>
<text text-anchor="start" x="960" y="-1154" font-family="Courier New" font-weight="bold" font-size="10.00" fill="orange">DROP(0,0)</text>
</g>
<!-- 101 -->
<g id="node8" class="node">
<title>101</title>
<ellipse fill="none" stroke="black" cx="407" cy="-1019" rx="27" ry="18"/>
<text text-anchor="middle" x="407" y="-1015.3" font-family="Times,serif" font-size="14.00">101</text>
</g>
<!-- 100&#45;&gt;101 -->
<g id="edge5" class="edge">
<title>100&#45;&gt;101</title>
<path fill="none" stroke="black" d="M382.77,-1101.54C369.69,-1096.14 354.69,-1087.39 347,-1074 342.79,-1066.68 342.79,-1062.32 347,-1055 352.83,-1044.86 362.85,-1037.37 373.06,-1031.99"/>
<polygon fill="black" stroke="black" points="374.19,-1034.86 381.77,-1027.46 371.22,-1028.52 374.19,-1034.86"/>
<text text-anchor="start" x="351" y="-1063" font-family="Courier New" font-weight="bold" font-size="10.00" fill="blue">CLEAR(WVIEWID,)</text>
</g>
<!-- 100&#45;&gt;101 -->
<g id="edge6" class="edge">
<title>100&#45;&gt;101</title>
<path fill="none" stroke="black" d="M426.2,-1097.07C433.86,-1091.17 441.85,-1083.31 446,-1074 449.44,-1066.29 449.44,-1062.71 446,-1055 443.34,-1049.04 439.11,-1043.67 434.39,-1039.03"/>
<polygon fill="black" stroke="black" points="437.05,-1035.83 427.2,-1031.93 432.46,-1041.12 437.05,-1035.83"/>
<text text-anchor="start" x="452" y="-1063" font-family="Courier New" font-weight="bold" font-size="10.00" fill="blue">CLEAR(WVIEWID,)</text>
</g>
<!-- 100&#45;&gt;101 -->
<g id="edge7" class="edge">
<title>100&#45;&gt;101</title>
<path fill="none" stroke="black" d="M433.76,-1106.39C471.31,-1102.11 536.69,-1092.2 551,-1074 580.75,-1036.16 497.19,-1024.83 445.16,-1021.45"/>
<polygon fill="black" stroke="black" points="445.45,-1017.9 435.27,-1020.82 445.05,-1024.89 445.45,-1017.9"/>
<text text-anchor="start" x="561" y="-1063" font-family="Courier New" font-weight="bold" font-size="10.00" fill="blue">CLEAR(WVIEWID,)</text>
</g>
<!-- 100&#45;&gt;101 -->
<g id="edge8" class="edge">
<title>100&#45;&gt;101</title>
<path fill="none" stroke="black" d="M379.92,-1107.35C337.22,-1104.12 257.32,-1095.33 240,-1074 204.18,-1029.89 309.16,-1021.39 368.82,-1020.03"/>
<polygon fill="black" stroke="black" points="368.8,-1023.51 378.74,-1019.84 368.68,-1016.51 368.8,-1023.51"/>
<text text-anchor="start" x="244" y="-1063" font-family="Courier New" font-weight="bold" font-size="10.00" fill="blue">CLEAR(WVIEWID,)</text>
</g>
<!-- 1 -->
<g id="node3" class="node">
<title>1</title>
<ellipse fill="none" stroke="black" cx="511" cy="-655" rx="27" ry="18"/>
<text text-anchor="middle" x="511" y="-651.3" font-family="Times,serif" font-size="14.00">1</text>
</g>
<!-- 2 -->
<g id="node4" class="node">
<title>2</title>
<ellipse fill="none" stroke="black" cx="571" cy="-564" rx="27" ry="18"/>
<text text-anchor="middle" x="571" y="-560.3" font-family="Times,serif" font-size="14.00">2</text>
</g>
<!-- 1&#45;&gt;2 -->
<g id="edge2" class="edge">
<title>1&#45;&gt;2</title>
<path fill="none" stroke="black" d="M521.73,-638.09C530.77,-624.67 543.87,-605.25 554.29,-589.79"/>
<polygon fill="black" stroke="black" points="557.68,-592.02 560.37,-581.77 551.87,-588.11 557.68,-592.02"/>
<text text-anchor="start" x="550" y="-608" font-family="Courier New" font-weight="bold" font-size="10.00" fill="blue">SPELL_ME(WOBJECT,SIG_OBJECT)</text>
</g>
<!-- 3 -->
<g id="node14" class="node">
<title>3</title>
<ellipse fill="none" stroke="black" cx="595" cy="-473" rx="27" ry="18"/>
<text text-anchor="middle" x="595" y="-469.3" font-family="Times,serif" font-size="14.00">3</text>
</g>
<!-- 2&#45;&gt;3 -->
<g id="edge34" class="edge">
<title>2&#45;&gt;3</title>
<path fill="none" stroke="black" d="M568.9,-545.59C568.19,-534.81 568.34,-520.82 572,-509 573.13,-505.35 574.77,-501.72 576.65,-498.26"/>
<polygon fill="black" stroke="black" points="580.07,-500.4 582.42,-490.07 574.14,-496.67 580.07,-500.4"/>
<text text-anchor="start" x="576" y="-517" font-family="Courier New" font-weight="bold" font-size="10.00" fill="blue">PLAYWAVE(0,SOUND_POPUP)</text>
</g>
<!-- 10 -->
<g id="node5" class="node">
<title>10</title>
<ellipse fill="none" stroke="black" cx="939" cy="-291" rx="27" ry="18"/>
<text text-anchor="middle" x="939" y="-287.3" font-family="Times,serif" font-size="14.00">10</text>
</g>
<!-- 12 -->
<g id="node6" class="node">
<title>12</title>
<ellipse fill="none" stroke="black" cx="1071" cy="-109" rx="27" ry="18"/>
<text text-anchor="middle" x="1071" y="-105.3" font-family="Times,serif" font-size="14.00">12</text>
</g>
<!-- 10&#45;&gt;12 -->
<g id="edge3" class="edge">
<title>10&#45;&gt;12</title>
<path fill="none" stroke="black" d="M966.39,-290.1C993.83,-288.59 1035.05,-281.63 1057,-255 1084.08,-222.15 1081.6,-169.81 1076.73,-137.81"/>
<polygon fill="black" stroke="black" points="1080.01,-137.28 1074.87,-128.02 1073.12,-138.47 1080.01,-137.28"/>
<text text-anchor="start" x="1083" y="-198.5" font-family="Courier New" font-weight="bold" font-size="10.00" fill="blue">EQUALi(WVIEWID,0)</text>
</g>
<!-- 11 -->
<g id="node7" class="node">
<title>11</title>
<ellipse fill="none" stroke="black" cx="944" cy="-200" rx="27" ry="18"/>
<text text-anchor="middle" x="944" y="-196.3" font-family="Times,serif" font-size="14.00">11</text>
</g>
<!-- 10&#45;&gt;11 -->
<g id="edge4" class="edge">
<title>10&#45;&gt;11</title>
<path fill="none" stroke="black" d="M938.9,-272.96C938.94,-262.32 939.18,-248.35 940,-236 940.15,-233.76 940.34,-231.44 940.55,-229.11"/>
<polygon fill="black" stroke="black" points="944.11,-229.73 941.68,-219.42 937.15,-228.99 944.11,-229.73"/>
<text text-anchor="start" x="944" y="-244" font-family="Courier New" font-weight="bold" font-size="10.00" fill="blue">LOADVIEW(WVIEWID,)</text>
</g>
<!-- 13 -->
<g id="node11" class="node">
<title>13</title>
<ellipse fill="none" stroke="black" cx="1344" cy="-18" rx="27" ry="18"/>
<text text-anchor="middle" x="1344" y="-14.3" font-family="Times,serif" font-size="14.00">13</text>
</g>
<!-- 12&#45;&gt;13 -->
<g id="edge20" class="edge">
<title>12&#45;&gt;13</title>
<path fill="none" stroke="black" d="M1094.75,-100.26C1143.25,-84.44 1253.84,-48.39 1309.97,-30.09"/>
<polygon fill="black" stroke="black" points="1310.69,-33.22 1319.11,-26.79 1308.52,-26.56 1310.69,-33.22"/>
<text text-anchor="start" x="1235" y="-62" font-family="Courier New" font-weight="bold" font-size="10.00" fill="blue">SHOW(0,0)</text>
</g>
<!-- 11&#45;&gt;12 -->
<g id="edge19" class="edge">
<title>11&#45;&gt;12</title>
<path fill="none" stroke="black" d="M944.28,-181.57C945.38,-169.82 948.71,-154.74 958,-145 977.43,-124.64 1008.43,-116.05 1033.05,-112.46"/>
<polygon fill="black" stroke="black" points="1033.35,-115.83 1042.85,-111.14 1032.5,-108.88 1033.35,-115.83"/>
<text text-anchor="start" x="962" y="-153" font-family="Courier New" font-weight="bold" font-size="10.00" fill="blue">CLEAR(WVIEWID,)</text>
</g>
<!-- 101&#45;&gt;1 -->
<g id="edge14" class="edge">
<title>101&#45;&gt;1</title>
<path fill="none" stroke="black" d="M380.06,-1016.21C303.64,-1010.4 91,-988.85 91,-929 91,-929 91,-929 91,-745 91,-667.32 369.43,-657.13 472.89,-656.03"/>
<polygon fill="black" stroke="black" points="472.8,-659.52 482.77,-655.94 472.74,-652.52 472.8,-659.52"/>
<text text-anchor="start" x="95" y="-835.5" font-family="Courier New" font-weight="bold" font-size="10.00" fill="blue">Z_EPSILON(0,0)</text>
</g>
<!-- 101&#45;&gt;1 -->
<g id="edge15" class="edge">
<title>101&#45;&gt;1</title>
<path fill="none" stroke="black" d="M379.81,-1017.17C327.94,-1013.97 220,-998.93 220,-929 220,-929 220,-929 220,-745 220,-692.63 394.52,-668 473.26,-659.55"/>
<polygon fill="black" stroke="black" points="473.56,-662.93 483.15,-658.42 472.84,-655.97 473.56,-662.93"/>
<text text-anchor="start" x="224" y="-835.5" font-family="Courier New" font-weight="bold" font-size="10.00" fill="blue">Z_EPSILON(0,0)</text>
</g>
<!-- 101&#45;&gt;1 -->
<g id="edge16" class="edge">
<title>101&#45;&gt;1</title>
<path fill="none" stroke="black" d="M387.45,-1006.56C378.78,-1000.57 369.17,-992.49 363,-983 349.49,-962.21 349,-953.79 349,-929 349,-929 349,-929 349,-745 349,-688.44 425.81,-667.57 473.65,-660.06"/>
<polygon fill="black" stroke="black" points="473.85,-663.42 483.25,-658.54 472.85,-656.5 473.85,-663.42"/>
<text text-anchor="start" x="353" y="-835.5" font-family="Courier New" font-weight="bold" font-size="10.00" fill="blue">Z_EPSILON(0,0)</text>
</g>
<!-- 101&#45;&gt;1 -->
<g id="edge17" class="edge">
<title>101&#45;&gt;1</title>
<path fill="none" stroke="black" d="M400.02,-1001.43C396.41,-990.73 393.26,-976.53 396,-964 407.37,-911.93 426.58,-904.64 446,-855 452.4,-838.64 486.2,-733.51 502.37,-683.01"/>
<polygon fill="black" stroke="black" points="505.91,-684.42 505.62,-673.83 499.24,-682.29 505.91,-684.42"/>
<text text-anchor="start" x="462" y="-835.5" font-family="Courier New" font-weight="bold" font-size="10.00" fill="blue">Z_EPSILON(0,0)</text>
</g>
<!-- 102 -->
<g id="node9" class="node">
<title>102</title>
<ellipse fill="none" stroke="black" cx="1189" cy="-928" rx="27" ry="18"/>
<text text-anchor="middle" x="1189" y="-924.3" font-family="Times,serif" font-size="14.00">102</text>
</g>
<!-- 101&#45;&gt;102 -->
<g id="edge9" class="edge">
<title>101&#45;&gt;102</title>
<path fill="none" stroke="black" d="M434.42,-1018.05C543.96,-1018.02 950.25,-1015.66 1074,-983 1092.26,-978.18 1094.96,-972.13 1112,-964 1126.82,-956.93 1143.39,-949.35 1157.35,-943.07"/>
<polygon fill="black" stroke="black" points="1158.3,-946.03 1165.99,-938.74 1155.44,-939.64 1158.3,-946.03"/>
<text text-anchor="start" x="1116" y="-972" font-family="Courier New" font-weight="bold" font-size="10.00" fill="blue">IS_A(WOBJECT,IDC_BOMB)</text>
</g>
<!-- 120 -->
<g id="node10" class="node">
<title>120</title>
<ellipse fill="none" stroke="black" cx="680" cy="-928" rx="27" ry="18"/>
<text text-anchor="middle" x="680" y="-924.3" font-family="Times,serif" font-size="14.00">120</text>
</g>
<!-- 101&#45;&gt;120 -->
<g id="edge10" class="edge">
<title>101&#45;&gt;120</title>
<path fill="none" stroke="black" d="M434.28,-1018.23C534.77,-1018.8 880.18,-1018.17 913,-983 918.76,-976.83 918.51,-970.4 913,-964 888.3,-935.32 777.54,-929.81 718.06,-928.97"/>
<polygon fill="black" stroke="black" points="718.27,-925.46 708.23,-928.85 718.2,-932.46 718.27,-925.46"/>
<text text-anchor="start" x="921" y="-972" font-family="Courier New" font-weight="bold" font-size="10.00" fill="blue">IS_A(WOBJECT,IDC_SCROLL)</text>
</g>
<!-- 101&#45;&gt;120 -->
<g id="edge11" class="edge">
<title>101&#45;&gt;120</title>
<path fill="none" stroke="black" d="M402.03,-1000.81C399.76,-989.01 399.24,-973.78 408,-964 423.38,-946.83 571.12,-935.61 642.18,-931.16"/>
<polygon fill="black" stroke="black" points="642.13,-934.61 651.9,-930.51 641.7,-927.62 642.13,-934.61"/>
<text text-anchor="start" x="412" y="-972" font-family="Courier New" font-weight="bold" font-size="10.00" fill="blue">IS_A(WOBJECT,IDC_SCROLL)</text>
</g>
<!-- 101&#45;&gt;120 -->
<g id="edge12" class="edge">
<title>101&#45;&gt;120</title>
<path fill="none" stroke="black" d="M433.86,-1015.7C465.62,-1012.15 519.42,-1003.44 561,-983 572.9,-977.15 572.49,-970.59 584,-964 603.05,-953.09 626.1,-944.56 644.85,-938.64"/>
<polygon fill="black" stroke="black" points="645.77,-941.72 654.32,-935.47 643.74,-935.02 645.77,-941.72"/>
<text text-anchor="start" x="588" y="-972" font-family="Courier New" font-weight="bold" font-size="10.00" fill="blue">IS_A(WOBJECT,IDC_SCROLL)</text>
</g>
<!-- 101&#45;&gt;120 -->
<g id="edge13" class="edge">
<title>101&#45;&gt;120</title>
<path fill="none" stroke="black" d="M434.25,-1017.16C509.66,-1014.55 716.87,-1005.38 737,-983 749.79,-968.78 731.44,-953.93 712.24,-943.41"/>
<polygon fill="black" stroke="black" points="714.08,-939.91 703.59,-938.47 710.9,-946.14 714.08,-939.91"/>
<text text-anchor="start" x="745" y="-972" font-family="Courier New" font-weight="bold" font-size="10.00" fill="blue">IS_A(WOBJECT,IDC_SCROLL)</text>
</g>
<!-- 102&#45;&gt;0 -->
<g id="edge18" class="edge">
<title>102&#45;&gt;0</title>
<path fill="none" stroke="black" d="M1213.47,-936.23C1227.31,-941.63 1243.66,-950.44 1253,-964 1280.98,-1004.64 1252.28,-1027.23 1268,-1074 1280.64,-1111.61 1304.73,-1150.8 1321.32,-1175.29"/>
<polygon fill="black" stroke="black" points="1318.92,-1176.98 1327.48,-1183.22 1324.68,-1173 1318.92,-1176.98"/>
<text text-anchor="start" x="1272" y="-1063" font-family="Courier New" font-weight="bold" font-size="10.00" fill="blue">SPELL_ME(0,SIG_BOMB)</text>
</g>
<!-- 121 -->
<g id="node12" class="node">
<title>121</title>
<ellipse fill="none" stroke="black" cx="720" cy="-837" rx="27" ry="18"/>
<text text-anchor="middle" x="720" y="-833.3" font-family="Times,serif" font-size="14.00">121</text>
</g>
<!-- 120&#45;&gt;121 -->
<g id="edge21" class="edge">
<title>120&#45;&gt;121</title>
<path fill="none" stroke="black" d="M702.54,-917.66C713.22,-911.95 724.95,-903.5 731,-892 735.42,-883.6 734.77,-873.61 732.3,-864.51"/>
<polygon fill="black" stroke="black" points="735.37,-863.69 728.78,-855.4 728.76,-865.99 735.37,-863.69"/>
<text text-anchor="start" x="738" y="-881" font-family="Courier New" font-weight="bold" font-size="10.00" fill="blue">MOV(WTEMP1,WOBJECT)</text>
</g>
<!-- 120&#45;&gt;121 -->
<g id="edge22" class="edge">
<title>120&#45;&gt;121</title>
<path fill="none" stroke="black" d="M707.11,-925.84C752.74,-923.25 841.8,-915.27 861,-892 891,-855.65 809.3,-843.72 758.01,-839.84"/>
<polygon fill="black" stroke="black" points="758.48,-836.3 748.26,-839.11 758,-843.28 758.48,-836.3"/>
<text text-anchor="start" x="871" y="-881" font-family="Courier New" font-weight="bold" font-size="10.00" fill="blue">MOV(WTEMP1,WOBJECT)</text>
</g>
<!-- 120&#45;&gt;121 -->
<g id="edge23" class="edge">
<title>120&#45;&gt;121</title>
<path fill="none" stroke="black" d="M652.9,-926.83C600.04,-925.86 486.24,-920.44 462,-892 456.52,-885.57 456.44,-879.36 462,-873 465.61,-868.87 612.08,-850.88 682.69,-842.42"/>
<polygon fill="black" stroke="black" points="682.82,-845.81 692.34,-841.15 681.99,-838.86 682.82,-845.81"/>
<text text-anchor="start" x="466" y="-881" font-family="Courier New" font-weight="bold" font-size="10.00" fill="blue">MOV(WTEMP1,WOBJECT)</text>
</g>
<!-- 120&#45;&gt;121 -->
<g id="edge24" class="edge">
<title>120&#45;&gt;121</title>
<path fill="none" stroke="black" d="M654.97,-920.44C626.95,-911.85 587.5,-895.22 604,-873 621.73,-849.14 655.23,-840.95 681.69,-838.41"/>
<polygon fill="black" stroke="black" points="681.81,-841.84 691.53,-837.64 681.31,-834.86 681.81,-841.84"/>
<text text-anchor="start" x="608" y="-881" font-family="Courier New" font-weight="bold" font-size="10.00" fill="blue">MOV(WTEMP1,WOBJECT)</text>
</g>
<!-- 13&#45;&gt;0 -->
<g id="edge33" class="edge">
<title>13&#45;&gt;0</title>
<path fill="none" stroke="black" d="M1370.13,-23.65C1429.22,-34.91 1568,-65.84 1568,-108 1568,-1111 1568,-1111 1568,-1111 1568,-1151.72 1440.59,-1181.21 1375.84,-1193.57"/>
<polygon fill="black" stroke="black" points="1375.46,-1190.27 1366.27,-1195.54 1376.74,-1197.15 1375.46,-1190.27"/>
<text text-anchor="start" x="1572" y="-608" font-family="Courier New" font-weight="bold" font-size="10.00" fill="blue">SPELL_ME(WOBJECT,SIG_CLEAR)</text>
</g>
<!-- 122 -->
<g id="node13" class="node">
<title>122</title>
<ellipse fill="none" stroke="black" cx="760" cy="-746" rx="27" ry="18"/>
<text text-anchor="middle" x="760" y="-742.3" font-family="Times,serif" font-size="14.00">122</text>
</g>
<!-- 121&#45;&gt;122 -->
<g id="edge25" class="edge">
<title>121&#45;&gt;122</title>
<path fill="none" stroke="black" d="M746.89,-833.25C767.43,-829.57 794.43,-821 808,-801 817.16,-787.5 804.63,-773.79 790.09,-763.56"/>
<polygon fill="black" stroke="black" points="792.25,-760.14 781.94,-757.67 788.46,-766.03 792.25,-760.14"/>
<text text-anchor="start" x="815" y="-790" font-family="Courier New" font-weight="bold" font-size="10.00" fill="blue">MOV(WVIEWID,LVIEW)</text>
</g>
<!-- 121&#45;&gt;122 -->
<g id="edge26" class="edge">
<title>121&#45;&gt;122</title>
<path fill="none" stroke="black" d="M747.16,-835.69C798.91,-834.46 908.59,-828.59 932,-801 970.03,-756.18 859.69,-748.06 798.2,-746.91"/>
<polygon fill="black" stroke="black" points="798.38,-743.4 788.34,-746.77 798.29,-750.4 798.38,-743.4"/>
<text text-anchor="start" x="943" y="-790" font-family="Courier New" font-weight="bold" font-size="10.00" fill="blue">MOV(WVIEWID,LVIEW)</text>
</g>
<!-- 121&#45;&gt;122 -->
<g id="edge27" class="edge">
<title>121&#45;&gt;122</title>
<path fill="none" stroke="black" d="M692.95,-834.43C649.84,-831.29 568.59,-822.61 551,-801 545.67,-794.45 545.54,-788.45 551,-782 572.47,-756.64 667.71,-749.64 721.92,-747.72"/>
<polygon fill="black" stroke="black" points="721.94,-751.19 731.82,-747.38 721.72,-744.19 721.94,-751.19"/>
<text text-anchor="start" x="555" y="-790" font-family="Courier New" font-weight="bold" font-size="10.00" fill="blue">MOV(WVIEWID,LVIEW)</text>
</g>
<!-- 121&#45;&gt;122 -->
<g id="edge28" class="edge">
<title>121&#45;&gt;122</title>
<path fill="none" stroke="black" d="M702.71,-822.62C690.72,-811.66 678.34,-795.76 687,-782 695.32,-768.79 710.15,-760.46 724.29,-755.25"/>
<polygon fill="black" stroke="black" points="724.92,-758.4 733.36,-751.99 722.76,-751.74 724.92,-758.4"/>
<text text-anchor="start" x="691" y="-790" font-family="Courier New" font-weight="bold" font-size="10.00" fill="blue">MOV(WVIEWID,LVIEW)</text>
</g>
<!-- 122&#45;&gt;1 -->
<g id="edge29" class="edge">
<title>122&#45;&gt;1</title>
<path fill="none" stroke="black" d="M785.14,-738.81C815.67,-730.15 860.78,-712.99 841,-691 821.77,-669.63 631.9,-660.3 549.18,-657.24"/>
<polygon fill="black" stroke="black" points="549.37,-653.7 539.25,-656.84 549.12,-660.7 549.37,-653.7"/>
<text text-anchor="start" x="849" y="-699" font-family="Courier New" font-weight="bold" font-size="10.00" fill="blue">LOADVIEW(0,IDV_PARCHPAN)</text>
</g>
<!-- 122&#45;&gt;1 -->
<g id="edge30" class="edge">
<title>122&#45;&gt;1</title>
<path fill="none" stroke="black" d="M787.4,-745.32C844.77,-745.33 974.49,-741.77 1002,-710 1007.53,-703.62 1007.75,-697.18 1002,-691 971.34,-658.08 658.98,-655.64 549.04,-655.8"/>
<polygon fill="black" stroke="black" points="549.14,-652.31 539.15,-655.83 549.15,-659.31 549.14,-652.31"/>
<text text-anchor="start" x="1010" y="-699" font-family="Courier New" font-weight="bold" font-size="10.00" fill="blue">LOADVIEW(0,IDV_SPELLPAN)</text>
</g>
<!-- 122&#45;&gt;1 -->
<g id="edge31" class="edge">
<title>122&#45;&gt;1</title>
<path fill="none" stroke="black" d="M732.86,-745.39C674.63,-745.58 540.68,-742.4 512,-710 505.81,-703.01 504.29,-693.29 504.73,-684.03"/>
<polygon fill="black" stroke="black" points="508.32,-684.51 506.07,-674.16 501.37,-683.66 508.32,-684.51"/>
<text text-anchor="start" x="516" y="-699" font-family="Courier New" font-weight="bold" font-size="10.00" fill="blue">LOADVIEW(0,IDV_SPELLPAN)</text>
</g>
<!-- 122&#45;&gt;1 -->
<g id="edge32" class="edge">
<title>122&#45;&gt;1</title>
<path fill="none" stroke="black" d="M736.59,-736.72C720.95,-730.6 700.33,-721.38 684,-710 674.2,-703.17 675.45,-696.77 665,-691 628.71,-670.97 581.58,-662.39 549.06,-658.72"/>
<polygon fill="black" stroke="black" points="549.52,-655.15 539.21,-657.62 548.81,-662.11 549.52,-655.15"/>
<text text-anchor="start" x="688" y="-699" font-family="Courier New" font-weight="bold" font-size="10.00" fill="blue">LOADVIEW(0,IDV_SPELLPAN)</text>
</g>
<!-- 4 -->
<g id="node18" class="node">
<title>4</title>
<ellipse fill="none" stroke="black" cx="733" cy="-382" rx="27" ry="18"/>
<text text-anchor="middle" x="733" y="-378.3" font-family="Times,serif" font-size="14.00">4</text>
</g>
<!-- 3&#45;&gt;4 -->
<g id="edge38" class="edge">
<title>3&#45;&gt;4</title>
<path fill="none" stroke="black" d="M598.97,-454.91C602.57,-443 609.04,-427.59 620,-418 640.95,-399.67 671.39,-390.94 695.4,-386.78"/>
<polygon fill="black" stroke="black" points="695.9,-390.09 705.26,-385.13 694.85,-383.17 695.9,-390.09"/>
<text text-anchor="start" x="624" y="-426" font-family="Courier New" font-weight="bold" font-size="10.00" fill="blue">ASHOW(WOBJECT,)</text>
</g>
<!-- 20 -->
<g id="node15" class="node">
<title>20</title>
<ellipse fill="none" stroke="black" cx="1288" cy="-291" rx="27" ry="18"/>
<text text-anchor="middle" x="1288" y="-287.3" font-family="Times,serif" font-size="14.00">20</text>
</g>
<!-- 21 -->
<g id="node16" class="node">
<title>21</title>
<ellipse fill="none" stroke="black" cx="1306" cy="-200" rx="27" ry="18"/>
<text text-anchor="middle" x="1306" y="-196.3" font-family="Times,serif" font-size="14.00">21</text>
</g>
<!-- 20&#45;&gt;21 -->
<g id="edge35" class="edge">
<title>20&#45;&gt;21</title>
<path fill="none" stroke="black" d="M1290.97,-272.94C1292.87,-262.3 1295.45,-248.32 1298,-236 1298.49,-233.62 1299.02,-231.15 1299.56,-228.68"/>
<polygon fill="black" stroke="black" points="1303.17,-229.58 1301.95,-219.06 1296.34,-228.05 1303.17,-229.58"/>
<text text-anchor="start" x="1302" y="-244" font-family="Courier New" font-weight="bold" font-size="10.00" fill="blue">CLEAR(WOBJECT,)</text>
</g>
<!-- 22 -->
<g id="node17" class="node">
<title>22</title>
<ellipse fill="none" stroke="black" cx="1363" cy="-109" rx="27" ry="18"/>
<text text-anchor="middle" x="1363" y="-105.3" font-family="Times,serif" font-size="14.00">22</text>
</g>
<!-- 21&#45;&gt;22 -->
<g id="edge36" class="edge">
<title>21&#45;&gt;22</title>
<path fill="none" stroke="black" d="M1313.46,-182.42C1318.66,-171.46 1326.07,-156.97 1334,-145 1336.6,-141.08 1339.56,-137.08 1342.57,-133.26"/>
<polygon fill="black" stroke="black" points="1345.9,-135.73 1349.56,-125.79 1340.5,-131.28 1345.9,-135.73"/>
<text text-anchor="start" x="1338" y="-153" font-family="Courier New" font-weight="bold" font-size="10.00" fill="blue">SHOW(0,0)</text>
</g>
<!-- 22&#45;&gt;0 -->
<g id="edge37" class="edge">
<title>22&#45;&gt;0</title>
<path fill="none" stroke="black" d="M1379.46,-123.57C1385.76,-129.55 1392.52,-137.03 1397,-145 1409.15,-166.61 1411,-174.21 1411,-199 1411,-1111 1411,-1111 1411,-1111 1411,-1140.43 1386.91,-1165.59 1366.6,-1181.58"/>
<polygon fill="black" stroke="black" points="1364.84,-1179.27 1358.92,-1188.06 1369.02,-1184.88 1364.84,-1179.27"/>
<text text-anchor="start" x="1415" y="-653.5" font-family="Courier New" font-weight="bold" font-size="10.00" fill="blue">VIDEO(0,IDS_SMBURST)</text>
</g>
<!-- 4&#45;&gt;100 -->
<g id="edge39" class="edge">
<title>4&#45;&gt;100</title>
<path fill="none" stroke="black" d="M705.6,-383.39C572.53,-385.63 0,-399.49 0,-472 0,-1020 0,-1020 0,-1020 0,-1095.04 267.4,-1106.91 368.71,-1108.71"/>
<polygon fill="black" stroke="black" points="368.61,-1112.22 378.66,-1108.87 368.72,-1105.22 368.61,-1112.22"/>
<text text-anchor="start" x="4" y="-744.5" font-family="Courier New" font-weight="bold" font-size="10.00" fill="orange">DROP(0,0)</text>
</g>
<!-- 4&#45;&gt;2 -->
<g id="edge42" class="edge">
<title>4&#45;&gt;2</title>
<path fill="none" stroke="black" d="M737.08,-400.2C743.08,-430.11 750.43,-491.98 719,-528 704.71,-544.38 647.59,-554.17 608.64,-559.07"/>
<polygon fill="black" stroke="black" points="608.45,-555.68 598.94,-560.35 609.28,-562.63 608.45,-555.68"/>
<text text-anchor="start" x="746" y="-471.5" font-family="Courier New" font-weight="bold" font-size="10.00" fill="orange">WAIT(0,0)</text>
</g>
<!-- 4&#45;&gt;10 -->
<g id="edge40" class="edge">
<title>4&#45;&gt;10</title>
<path fill="none" stroke="black" d="M755.44,-371.31C791.97,-355.52 864.44,-324.21 906.57,-306.01"/>
<polygon fill="black" stroke="black" points="907.8,-308.86 915.59,-301.68 905.02,-302.44 907.8,-308.86"/>
<text text-anchor="start" x="858" y="-335" font-family="Courier New" font-weight="bold" font-size="10.00" fill="orange">GRAB(0,0)</text>
</g>
<!-- 4&#45;&gt;20 -->
<g id="edge41" class="edge">
<title>4&#45;&gt;20</title>
<path fill="none" stroke="black" d="M759.02,-376.83C848.87,-362.42 1146.23,-314.74 1251.04,-297.93"/>
<polygon fill="black" stroke="black" points="1251.39,-301.26 1260.71,-296.22 1250.28,-294.34 1251.39,-301.26"/>
<text text-anchor="start" x="1064" y="-335" font-family="Courier New" font-weight="bold" font-size="10.00" fill="orange">WAIT(0,SIG_BURST)</text>
</g>
</g>
</svg>
