<?xml version="1.0" encoding="UTF-8" standalone="no"?>
<!DOCTYPE svg PUBLIC "-//W3C//DTD SVG 1.1//EN"
 "http://www.w3.org/Graphics/SVG/1.1/DTD/svg11.dtd">
<!-- Generated by graphviz version 8.0.1 (20230327.1645)
 -->
<!-- Pages: 1 -->
<svg width="263pt" height="590pt"
 viewBox="0.00 0.00 263.00 590.00" xmlns="http://www.w3.org/2000/svg" xmlns:xlink="http://www.w3.org/1999/xlink">
<g id="graph0" class="graph" transform="scale(1 1) rotate(0) translate(4 586)">
<polygon fill="white" stroke="none" points="-4,4 -4,-586 259,-586 259,4 -4,4"/>
<!-- 0 -->
<g id="node1" class="node">
<title>0</title>
<ellipse fill="none" stroke="black" cx="126" cy="-564" rx="27" ry="18"/>
<text text-anchor="middle" x="126" y="-560.3" font-family="Times,serif" font-size="14.00">0</text>
</g>
<!-- 10 -->
<g id="node2" class="node">
<title>10</title>
<ellipse fill="none" stroke="black" cx="126" cy="-473" rx="27" ry="18"/>
<text text-anchor="middle" x="126" y="-469.3" font-family="Times,serif" font-size="14.00">10</text>
</g>
<!-- 0&#45;&gt;10 -->
<g id="edge1" class="edge">
<title>0&#45;&gt;10</title>
<path fill="none" stroke="black" d="M126,-545.84C126,-533.48 126,-516.54 126,-502.21"/>
<polygon fill="black" stroke="black" points="129.5,-502.41 126,-492.41 122.5,-502.41 129.5,-502.41"/>
<text text-anchor="start" x="130" y="-517" font-family="Courier New" font-weight="bold" font-size="10.00" fill="blue">O_ACCEPT(0,IDD_ROCK)</text>
</g>
<!-- 30 -->
<g id="node3" class="node">
<title>30</title>
<ellipse fill="none" stroke="black" cx="64" cy="-382" rx="27" ry="18"/>
<text text-anchor="middle" x="64" y="-378.3" font-family="Times,serif" font-size="14.00">30</text>
</g>
<!-- 10&#45;&gt;30 -->
<g id="edge2" class="edge">
<title>10&#45;&gt;30</title>
<path fill="none" stroke="black" d="M114.92,-456.09C105.57,-442.67 92.04,-423.25 81.27,-407.79"/>
<polygon fill="black" stroke="black" points="83.58,-405.98 74.99,-399.77 77.83,-409.98 83.58,-405.98"/>
<text text-anchor="start" x="105" y="-426" font-family="Courier New" font-weight="bold" font-size="10.00" fill="orange">DROP(0,0)</text>
</g>
<!-- 40 -->
<g id="node4" class="node">
<title>40</title>
<ellipse fill="none" stroke="black" cx="41" cy="-291" rx="27" ry="18"/>
<text text-anchor="middle" x="41" y="-287.3" font-family="Times,serif" font-size="14.00">40</text>
</g>
<!-- 30&#45;&gt;40 -->
<g id="edge3" class="edge">
<title>30&#45;&gt;40</title>
<path fill="none" stroke="black" d="M59.57,-363.84C56.32,-351.28 51.85,-333.98 48.11,-319.5"/>
<polygon fill="black" stroke="black" points="51.31,-318.91 45.42,-310.11 44.53,-320.67 51.31,-318.91"/>
<text text-anchor="start" x="59" y="-335" font-family="Courier New" font-weight="bold" font-size="10.00" fill="blue">SHOW(WOBJECT,)</text>
</g>
<!-- 50 -->
<g id="node5" class="node">
<title>50</title>
<ellipse fill="none" stroke="black" cx="27" cy="-200" rx="27" ry="18"/>
<text text-anchor="middle" x="27" y="-196.3" font-family="Times,serif" font-size="14.00">50</text>
</g>
<!-- 40&#45;&gt;50 -->
<g id="edge4" class="edge">
<title>40&#45;&gt;50</title>
<path fill="none" stroke="black" d="M25.2,-276.23C19.59,-270.32 13.94,-262.96 11,-255 7.64,-245.9 9.28,-235.75 12.56,-226.72"/>
<polygon fill="black" stroke="black" points="16.11,-228.34 16.95,-217.78 9.71,-225.51 16.11,-228.34"/>
<text text-anchor="start" x="15" y="-244" font-family="Courier New" font-weight="bold" font-size="10.00" fill="blue">PLAYWAVE(0,SOUND_CLICK)</text>
</g>
<!-- 60 -->
<g id="node6" class="node">
<title>60</title>
<ellipse fill="none" stroke="black" cx="84" cy="-109" rx="27" ry="18"/>
<text text-anchor="middle" x="84" y="-105.3" font-family="Times,serif" font-size="14.00">60</text>
</g>
<!-- 50&#45;&gt;60 -->
<g id="edge5" class="edge">
<title>50&#45;&gt;60</title>
<path fill="none" stroke="black" d="M37.19,-183.09C45.73,-169.76 58.07,-150.49 67.94,-135.08"/>
<polygon fill="black" stroke="black" points="71.26,-137.38 73.71,-127.07 65.36,-133.61 71.26,-137.38"/>
<text text-anchor="start" x="65" y="-153" font-family="Courier New" font-weight="bold" font-size="10.00" fill="blue">SIGNAL(WIP2,)</text>
</g>
<!-- 70 -->
<g id="node7" class="node">
<title>70</title>
<ellipse fill="none" stroke="black" cx="135" cy="-18" rx="27" ry="18"/>
<text text-anchor="middle" x="135" y="-14.3" font-family="Times,serif" font-size="14.00">70</text>
</g>
<!-- 60&#45;&gt;70 -->
<g id="edge6" class="edge">
<title>60&#45;&gt;70</title>
<path fill="none" stroke="black" d="M88.03,-91.17C91.13,-80.11 96.06,-65.6 103,-54 105.66,-49.55 108.95,-45.18 112.39,-41.11"/>
<polygon fill="black" stroke="black" points="114.4,-44.01 118.53,-34.26 109.22,-39.3 114.4,-44.01"/>
<text text-anchor="start" x="107" y="-62" font-family="Courier New" font-weight="bold" font-size="10.00" fill="orange">GRAB(0,0)</text>
</g>
<!-- 70&#45;&gt;10 -->
<g id="edge7" class="edge">
<title>70&#45;&gt;10</title>
<path fill="none" stroke="black" d="M150.29,-33.15C155.95,-39.1 161.96,-46.41 166,-54 177.65,-75.88 180,-83.21 180,-108 180,-383 180,-383 180,-383 180,-407.79 179.02,-415.9 166,-437 162.52,-442.63 157.85,-447.86 152.93,-452.46"/>
<polygon fill="black" stroke="black" points="150.92,-450.43 145.58,-459.58 155.46,-455.76 150.92,-450.43"/>
<text text-anchor="start" x="184" y="-244" font-family="Courier New" font-weight="bold" font-size="10.00" fill="blue">SHOW(0,0)</text>
</g>
</g>
</svg>
