<?xml version="1.0" encoding="UTF-8" standalone="no"?>
<!DOCTYPE svg PUBLIC "-//W3C//DTD SVG 1.1//EN"
 "http://www.w3.org/Graphics/SVG/1.1/DTD/svg11.dtd">
<!-- Generated by graphviz version 8.0.1 (20230327.1645)
 -->
<!-- Pages: 1 -->
<svg width="335pt" height="317pt"
 viewBox="0.00 0.00 335.00 317.00" xmlns="http://www.w3.org/2000/svg" xmlns:xlink="http://www.w3.org/1999/xlink">
<g id="graph0" class="graph" transform="scale(1 1) rotate(0) translate(4 313)">
<polygon fill="white" stroke="none" points="-4,4 -4,-313 331,-313 331,4 -4,4"/>
<!-- 0 -->
<g id="node1" class="node">
<title>0</title>
<ellipse fill="none" stroke="black" cx="89" cy="-291" rx="27" ry="18"/>
<text text-anchor="middle" x="89" y="-287.3" font-family="Times,serif" font-size="14.00">0</text>
</g>
<!-- 1 -->
<g id="node2" class="node">
<title>1</title>
<ellipse fill="none" stroke="black" cx="89" cy="-200" rx="27" ry="18"/>
<text text-anchor="middle" x="89" y="-196.3" font-family="Times,serif" font-size="14.00">1</text>
</g>
<!-- 0&#45;&gt;1 -->
<g id="edge1" class="edge">
<title>0&#45;&gt;1</title>
<path fill="none" stroke="black" d="M89,-272.84C89,-260.48 89,-243.54 89,-229.21"/>
<polygon fill="black" stroke="black" points="92.5,-229.41 89,-219.41 85.5,-229.41 92.5,-229.41"/>
<text text-anchor="start" x="93" y="-244" font-family="Courier New" font-weight="bold" font-size="10.00" fill="blue">SHOW(0,IDS_BTN_MAP)</text>
</g>
<!-- 2 -->
<g id="node3" class="node">
<title>2</title>
<ellipse fill="none" stroke="black" cx="27" cy="-109" rx="27" ry="18"/>
<text text-anchor="middle" x="27" y="-105.3" font-family="Times,serif" font-size="14.00">2</text>
</g>
<!-- 1&#45;&gt;2 -->
<g id="edge2" class="edge">
<title>1&#45;&gt;2</title>
<path fill="none" stroke="black" d="M77.92,-183.09C68.57,-169.67 55.04,-150.25 44.27,-134.79"/>
<polygon fill="black" stroke="black" points="46.58,-132.98 37.99,-126.77 40.83,-136.98 46.58,-132.98"/>
<text text-anchor="start" x="68" y="-153" font-family="Courier New" font-weight="bold" font-size="10.00" fill="orange">CLICK(0,0)</text>
</g>
<!-- 3 -->
<g id="node4" class="node">
<title>3</title>
<ellipse fill="none" stroke="black" cx="89" cy="-18" rx="27" ry="18"/>
<text text-anchor="middle" x="89" y="-14.3" font-family="Times,serif" font-size="14.00">3</text>
</g>
<!-- 2&#45;&gt;3 -->
<g id="edge3" class="edge">
<title>2&#45;&gt;3</title>
<path fill="none" stroke="black" d="M14.9,-92.4C7.7,-81.07 1.32,-65.74 9,-54 18.67,-39.22 36.1,-30.65 52.23,-25.69"/>
<polygon fill="black" stroke="black" points="52.79,-28.89 61.55,-22.92 50.98,-22.13 52.79,-28.89"/>
<text text-anchor="start" x="13" y="-62" font-family="Courier New" font-weight="bold" font-size="10.00" fill="blue">PLAYWAVE(0,SOUND_POPUP)</text>
</g>
<!-- 3&#45;&gt;1 -->
<g id="edge4" class="edge">
<title>3&#45;&gt;1</title>
<path fill="none" stroke="black" d="M114.27,-25.14C129.23,-30.21 146.96,-39.07 156,-54 181.71,-96.43 163.91,-122.32 137,-164 132.36,-171.19 125.68,-177.39 118.78,-182.5"/>
<polygon fill="black" stroke="black" points="117.4,-179.88 111.05,-188.37 121.3,-185.69 117.4,-179.88"/>
<text text-anchor="start" x="172" y="-107.5" font-family="Courier New" font-weight="bold" font-size="10.00" fill="blue">LOADVIEW(0,IDV_CONTINENT)</text>
</g>
</g>
</svg>
