<?xml version="1.0" encoding="UTF-8" standalone="no"?>
<!DOCTYPE svg PUBLIC "-//W3C//DTD SVG 1.1//EN"
 "http://www.w3.org/Graphics/SVG/1.1/DTD/svg11.dtd">
<!-- Generated by graphviz version 8.0.1 (20230327.1645)
 -->
<!-- Pages: 1 -->
<svg width="253pt" height="1045pt"
 viewBox="0.00 0.00 253.00 1045.00" xmlns="http://www.w3.org/2000/svg" xmlns:xlink="http://www.w3.org/1999/xlink">
<g id="graph0" class="graph" transform="scale(1 1) rotate(0) translate(4 1041)">
<polygon fill="white" stroke="none" points="-4,4 -4,-1041 249,-1041 249,4 -4,4"/>
<!-- 0 -->
<g id="node1" class="node">
<title>0</title>
<ellipse fill="none" stroke="black" cx="89" cy="-1019" rx="27" ry="18"/>
<text text-anchor="middle" x="89" y="-1015.3" font-family="Times,serif" font-size="14.00">0</text>
</g>
<!-- 1 -->
<g id="node2" class="node">
<title>1</title>
<ellipse fill="none" stroke="black" cx="29" cy="-928" rx="27" ry="18"/>
<text text-anchor="middle" x="29" y="-924.3" font-family="Times,serif" font-size="14.00">1</text>
</g>
<!-- 0&#45;&gt;1 -->
<g id="edge1" class="edge">
<title>0&#45;&gt;1</title>
<path fill="none" stroke="black" d="M67.23,-1007.77C57.1,-1001.91 45.82,-993.6 39,-983 34.07,-975.33 31.43,-965.86 30.05,-957"/>
<polygon fill="black" stroke="black" points="33.45,-956.86 28.91,-947.28 26.49,-957.6 33.45,-956.86"/>
<text text-anchor="start" x="43" y="-972" font-family="Courier New" font-weight="bold" font-size="10.00" fill="orange">WAIT(,SIG_PLAY)</text>
</g>
<!-- 2 -->
<g id="node3" class="node">
<title>2</title>
<ellipse fill="none" stroke="black" cx="27" cy="-837" rx="27" ry="18"/>
<text text-anchor="middle" x="27" y="-833.3" font-family="Times,serif" font-size="14.00">2</text>
</g>
<!-- 1&#45;&gt;2 -->
<g id="edge2" class="edge">
<title>1&#45;&gt;2</title>
<path fill="none" stroke="black" d="M27.81,-909.56C27.48,-903.96 27.16,-897.72 27,-892 26.76,-883.5 26.69,-874.23 26.7,-865.82"/>
<polygon fill="black" stroke="black" points="30.2,-866.05 26.75,-856.03 23.2,-866.01 30.2,-866.05"/>
<text text-anchor="start" x="31" y="-881" font-family="Courier New" font-weight="bold" font-size="10.00" fill="blue">MOV(WSPRITE,WIP1)</text>
</g>
<!-- 3 -->
<g id="node8" class="node">
<title>3</title>
<ellipse fill="none" stroke="black" cx="31" cy="-746" rx="27" ry="18"/>
<text text-anchor="middle" x="31" y="-742.3" font-family="Times,serif" font-size="14.00">3</text>
</g>
<!-- 2&#45;&gt;3 -->
<g id="edge7" class="edge">
<title>2&#45;&gt;3</title>
<path fill="none" stroke="black" d="M27.77,-818.84C28.33,-806.48 29.09,-789.54 29.73,-775.21"/>
<polygon fill="black" stroke="black" points="33.26,-775.56 30.22,-765.41 26.27,-775.24 33.26,-775.56"/>
<text text-anchor="start" x="34" y="-790" font-family="Courier New" font-weight="bold" font-size="10.00" fill="blue">ASHOW(WSPRITE,)</text>
</g>
<!-- 10 -->
<g id="node4" class="node">
<title>10</title>
<ellipse fill="none" stroke="black" cx="32" cy="-291" rx="27" ry="18"/>
<text text-anchor="middle" x="32" y="-287.3" font-family="Times,serif" font-size="14.00">10</text>
</g>
<!-- 11 -->
<g id="node5" class="node">
<title>11</title>
<ellipse fill="none" stroke="black" cx="35" cy="-200" rx="27" ry="18"/>
<text text-anchor="middle" x="35" y="-196.3" font-family="Times,serif" font-size="14.00">11</text>
</g>
<!-- 10&#45;&gt;11 -->
<g id="edge3" class="edge">
<title>10&#45;&gt;11</title>
<path fill="none" stroke="black" d="M32.15,-272.97C32.28,-262.34 32.53,-248.37 33,-236 33.08,-233.86 33.18,-231.64 33.28,-229.41"/>
<polygon fill="black" stroke="black" points="36.83,-229.61 33.87,-219.44 29.84,-229.24 36.83,-229.61"/>
<text text-anchor="start" x="37" y="-244" font-family="Courier New" font-weight="bold" font-size="10.00" fill="orange">WAIT(,SIG_CLOSE)</text>
</g>
<!-- 14 -->
<g id="node6" class="node">
<title>14</title>
<ellipse fill="none" stroke="black" cx="53" cy="-109" rx="27" ry="18"/>
<text text-anchor="middle" x="53" y="-105.3" font-family="Times,serif" font-size="14.00">14</text>
</g>
<!-- 11&#45;&gt;14 -->
<g id="edge4" class="edge">
<title>11&#45;&gt;14</title>
<path fill="none" stroke="black" d="M37.97,-181.94C39.87,-171.3 42.45,-157.32 45,-145 45.49,-142.62 46.02,-140.15 46.56,-137.68"/>
<polygon fill="black" stroke="black" points="50.17,-138.58 48.95,-128.06 43.34,-137.05 50.17,-138.58"/>
<text text-anchor="start" x="49" y="-153" font-family="Courier New" font-weight="bold" font-size="10.00" fill="blue">CLEAR(BFRAME,)</text>
</g>
<!-- 15 -->
<g id="node7" class="node">
<title>15</title>
<ellipse fill="none" stroke="black" cx="107" cy="-18" rx="27" ry="18"/>
<text text-anchor="middle" x="107" y="-14.3" font-family="Times,serif" font-size="14.00">15</text>
</g>
<!-- 14&#45;&gt;15 -->
<g id="edge5" class="edge">
<title>14&#45;&gt;15</title>
<path fill="none" stroke="black" d="M60.67,-91.56C65.96,-80.66 73.39,-66.18 81,-54 83.28,-50.35 85.83,-46.59 88.42,-42.96"/>
<polygon fill="black" stroke="black" points="91.68,-45.43 94.8,-35.3 86.05,-41.28 91.68,-45.43"/>
<text text-anchor="start" x="85" y="-62" font-family="Courier New" font-weight="bold" font-size="10.00" fill="blue">SHOW(0,)</text>
</g>
<!-- 15&#45;&gt;0 -->
<g id="edge6" class="edge">
<title>15&#45;&gt;0</title>
<path fill="none" stroke="black" d="M122.29,-33.15C127.95,-39.1 133.96,-46.41 138,-54 149.65,-75.88 152,-83.21 152,-108 152,-929 152,-929 152,-929 152,-953.79 152.04,-962.57 138,-983 133.09,-990.15 126.21,-996.34 119.16,-1001.44"/>
<polygon fill="black" stroke="black" points="117.69,-998.88 111.27,-1007.32 121.55,-1004.72 117.69,-998.88"/>
<text text-anchor="start" x="156" y="-517" font-family="Courier New" font-weight="bold" font-size="10.00" fill="blue">Z_EPSILON(0,0)</text>
</g>
<!-- 4 -->
<g id="node9" class="node">
<title>4</title>
<ellipse fill="none" stroke="black" cx="32" cy="-655" rx="27" ry="18"/>
<text text-anchor="middle" x="32" y="-651.3" font-family="Times,serif" font-size="14.00">4</text>
</g>
<!-- 3&#45;&gt;4 -->
<g id="edge8" class="edge">
<title>3&#45;&gt;4</title>
<path fill="none" stroke="black" d="M31.19,-727.84C31.33,-715.48 31.52,-698.54 31.68,-684.21"/>
<polygon fill="black" stroke="black" points="35.19,-684.45 31.8,-674.41 28.19,-684.37 35.19,-684.45"/>
<text text-anchor="start" x="36" y="-699" font-family="Courier New" font-weight="bold" font-size="10.00" fill="blue">PLAYWAVE(WIP3,)</text>
</g>
<!-- 7 -->
<g id="node10" class="node">
<title>7</title>
<ellipse fill="none" stroke="black" cx="32" cy="-564" rx="27" ry="18"/>
<text text-anchor="middle" x="32" y="-560.3" font-family="Times,serif" font-size="14.00">7</text>
</g>
<!-- 4&#45;&gt;7 -->
<g id="edge9" class="edge">
<title>4&#45;&gt;7</title>
<path fill="none" stroke="black" d="M32,-636.84C32,-624.48 32,-607.54 32,-593.21"/>
<polygon fill="black" stroke="black" points="35.5,-593.41 32,-583.41 28.5,-593.41 35.5,-593.41"/>
<text text-anchor="start" x="36" y="-608" font-family="Courier New" font-weight="bold" font-size="10.00" fill="blue">ESTIME(WIP2,)</text>
</g>
<!-- 8 -->
<g id="node11" class="node">
<title>8</title>
<ellipse fill="none" stroke="black" cx="32" cy="-473" rx="27" ry="18"/>
<text text-anchor="middle" x="32" y="-469.3" font-family="Times,serif" font-size="14.00">8</text>
</g>
<!-- 7&#45;&gt;8 -->
<g id="edge10" class="edge">
<title>7&#45;&gt;8</title>
<path fill="none" stroke="black" d="M32,-545.84C32,-533.48 32,-516.54 32,-502.21"/>
<polygon fill="black" stroke="black" points="35.5,-502.41 32,-492.41 28.5,-502.41 35.5,-502.41"/>
<text text-anchor="start" x="36" y="-517" font-family="Courier New" font-weight="bold" font-size="10.00" fill="blue">MOV(BFRAME,0)</text>
</g>
<!-- 9 -->
<g id="node12" class="node">
<title>9</title>
<ellipse fill="none" stroke="black" cx="32" cy="-382" rx="27" ry="18"/>
<text text-anchor="middle" x="32" y="-378.3" font-family="Times,serif" font-size="14.00">9</text>
</g>
<!-- 8&#45;&gt;9 -->
<g id="edge11" class="edge">
<title>8&#45;&gt;9</title>
<path fill="none" stroke="black" d="M32,-454.84C32,-442.48 32,-425.54 32,-411.21"/>
<polygon fill="black" stroke="black" points="35.5,-411.41 32,-401.41 28.5,-411.41 35.5,-411.41"/>
<text text-anchor="start" x="36" y="-426" font-family="Courier New" font-weight="bold" font-size="10.00" fill="blue">SHOW(WIP4,)</text>
</g>
<!-- 9&#45;&gt;10 -->
<g id="edge12" class="edge">
<title>9&#45;&gt;10</title>
<path fill="none" stroke="black" d="M32,-363.84C32,-351.48 32,-334.54 32,-320.21"/>
<polygon fill="black" stroke="black" points="35.5,-320.41 32,-310.41 28.5,-320.41 35.5,-320.41"/>
<text text-anchor="start" x="36" y="-335" font-family="Courier New" font-weight="bold" font-size="10.00" fill="blue">ANIMATE(0,0)</text>
</g>
</g>
</svg>
