<?xml version="1.0" encoding="UTF-8" standalone="no"?>
<!DOCTYPE svg PUBLIC "-//W3C//DTD SVG 1.1//EN"
 "http://www.w3.org/Graphics/SVG/1.1/DTD/svg11.dtd">
<!-- Generated by graphviz version 8.0.1 (20230327.1645)
 -->
<!-- Pages: 1 -->
<svg width="211pt" height="590pt"
 viewBox="0.00 0.00 211.00 590.00" xmlns="http://www.w3.org/2000/svg" xmlns:xlink="http://www.w3.org/1999/xlink">
<g id="graph0" class="graph" transform="scale(1 1) rotate(0) translate(4 586)">
<polygon fill="white" stroke="none" points="-4,4 -4,-586 207,-586 207,4 -4,4"/>
<!-- 0 -->
<g id="node1" class="node">
<title>0</title>
<ellipse fill="none" stroke="black" cx="89" cy="-564" rx="27" ry="18"/>
<text text-anchor="middle" x="89" y="-560.3" font-family="Times,serif" font-size="14.00">0</text>
</g>
<!-- 1 -->
<g id="node2" class="node">
<title>1</title>
<ellipse fill="none" stroke="black" cx="31" cy="-473" rx="27" ry="18"/>
<text text-anchor="middle" x="31" y="-469.3" font-family="Times,serif" font-size="14.00">1</text>
</g>
<!-- 0&#45;&gt;1 -->
<g id="edge1" class="edge">
<title>0&#45;&gt;1</title>
<path fill="none" stroke="black" d="M67.06,-552.87C56.9,-547.04 45.63,-538.73 39,-528 34.24,-520.29 31.91,-510.81 30.88,-501.95"/>
<polygon fill="black" stroke="black" points="34.32,-501.99 30.16,-492.24 27.33,-502.46 34.32,-501.99"/>
<text text-anchor="start" x="43" y="-517" font-family="Courier New" font-weight="bold" font-size="10.00" fill="orange">WAIT(,SIG_SHOW)</text>
</g>
<!-- 2 -->
<g id="node3" class="node">
<title>2</title>
<ellipse fill="none" stroke="black" cx="27" cy="-382" rx="27" ry="18"/>
<text text-anchor="middle" x="27" y="-378.3" font-family="Times,serif" font-size="14.00">2</text>
</g>
<!-- 1&#45;&gt;2 -->
<g id="edge2" class="edge">
<title>1&#45;&gt;2</title>
<path fill="none" stroke="black" d="M30.23,-454.84C29.67,-442.48 28.91,-425.54 28.27,-411.21"/>
<polygon fill="black" stroke="black" points="31.73,-411.24 27.78,-401.41 24.74,-411.56 31.73,-411.24"/>
<text text-anchor="start" x="34" y="-426" font-family="Courier New" font-weight="bold" font-size="10.00" fill="blue">RAND(8,0)</text>
</g>
<!-- 3 -->
<g id="node4" class="node">
<title>3</title>
<ellipse fill="none" stroke="black" cx="27" cy="-291" rx="27" ry="18"/>
<text text-anchor="middle" x="27" y="-287.3" font-family="Times,serif" font-size="14.00">3</text>
</g>
<!-- 2&#45;&gt;3 -->
<g id="edge3" class="edge">
<title>2&#45;&gt;3</title>
<path fill="none" stroke="black" d="M27,-363.84C27,-351.48 27,-334.54 27,-320.21"/>
<polygon fill="black" stroke="black" points="30.5,-320.41 27,-310.41 23.5,-320.41 30.5,-320.41"/>
<text text-anchor="start" x="31" y="-335" font-family="Courier New" font-weight="bold" font-size="10.00" fill="blue">MOV(BFRAME,WRAND)</text>
</g>
<!-- 4 -->
<g id="node5" class="node">
<title>4</title>
<ellipse fill="none" stroke="black" cx="36" cy="-200" rx="27" ry="18"/>
<text text-anchor="middle" x="36" y="-196.3" font-family="Times,serif" font-size="14.00">4</text>
</g>
<!-- 3&#45;&gt;4 -->
<g id="edge4" class="edge">
<title>3&#45;&gt;4</title>
<path fill="none" stroke="black" d="M28.74,-272.84C29.98,-260.48 31.7,-243.54 33.15,-229.21"/>
<polygon fill="black" stroke="black" points="36.72,-229.71 34.24,-219.41 29.75,-229.01 36.72,-229.71"/>
<text text-anchor="start" x="37" y="-244" font-family="Courier New" font-weight="bold" font-size="10.00" fill="blue">SHOW(WIP1,)</text>
</g>
<!-- 5 -->
<g id="node6" class="node">
<title>5</title>
<ellipse fill="none" stroke="black" cx="38" cy="-109" rx="27" ry="18"/>
<text text-anchor="middle" x="38" y="-105.3" font-family="Times,serif" font-size="14.00">5</text>
</g>
<!-- 4&#45;&gt;5 -->
<g id="edge5" class="edge">
<title>4&#45;&gt;5</title>
<path fill="none" stroke="black" d="M36.39,-181.84C36.66,-169.48 37.04,-152.54 37.37,-138.21"/>
<polygon fill="black" stroke="black" points="40.88,-138.49 37.61,-128.41 33.88,-138.33 40.88,-138.49"/>
<text text-anchor="start" x="42" y="-153" font-family="Courier New" font-weight="bold" font-size="10.00" fill="orange">WAIT(,SIG_HIDE)</text>
</g>
<!-- 6 -->
<g id="node7" class="node">
<title>6</title>
<ellipse fill="none" stroke="black" cx="95" cy="-18" rx="27" ry="18"/>
<text text-anchor="middle" x="95" y="-14.3" font-family="Times,serif" font-size="14.00">6</text>
</g>
<!-- 5&#45;&gt;6 -->
<g id="edge6" class="edge">
<title>5&#45;&gt;6</title>
<path fill="none" stroke="black" d="M34.31,-90.84C32.83,-79.64 32.72,-65.1 39,-54 44.19,-44.84 52.85,-37.75 61.84,-32.42"/>
<polygon fill="black" stroke="black" points="63.34,-35.07 70.56,-27.32 60.08,-28.87 63.34,-35.07"/>
<text text-anchor="start" x="43" y="-62" font-family="Courier New" font-weight="bold" font-size="10.00" fill="blue">CLEAR(WSPRITE,)</text>
</g>
<!-- 6&#45;&gt;0 -->
<g id="edge7" class="edge">
<title>6&#45;&gt;0</title>
<path fill="none" stroke="black" d="M114.54,-30.84C122.9,-36.81 132.07,-44.77 138,-54 151.39,-74.87 152,-83.21 152,-108 152,-474 152,-474 152,-474 152,-498.79 152.04,-507.57 138,-528 133.09,-535.15 126.21,-541.34 119.16,-546.44"/>
<polygon fill="black" stroke="black" points="117.69,-543.88 111.27,-552.32 121.55,-549.72 117.69,-543.88"/>
<text text-anchor="start" x="156" y="-289.5" font-family="Courier New" font-weight="bold" font-size="10.00" fill="blue">SHOW(,)</text>
</g>
</g>
</svg>
