<?xml version="1.0" encoding="UTF-8" standalone="no"?>
<!DOCTYPE svg PUBLIC "-//W3C//DTD SVG 1.1//EN"
 "http://www.w3.org/Graphics/SVG/1.1/DTD/svg11.dtd">
<!-- Generated by graphviz version 8.0.1 (20230327.1645)
 -->
<!-- Pages: 1 -->
<svg width="320pt" height="681pt"
 viewBox="0.00 0.00 320.00 681.00" xmlns="http://www.w3.org/2000/svg" xmlns:xlink="http://www.w3.org/1999/xlink">
<g id="graph0" class="graph" transform="scale(1 1) rotate(0) translate(4 677)">
<polygon fill="white" stroke="none" points="-4,4 -4,-677 316,-677 316,4 -4,4"/>
<!-- 0 -->
<g id="node1" class="node">
<title>0</title>
<ellipse fill="none" stroke="black" cx="135" cy="-655" rx="27" ry="18"/>
<text text-anchor="middle" x="135" y="-651.3" font-family="Times,serif" font-size="14.00">0</text>
</g>
<!-- 1 -->
<g id="node2" class="node">
<title>1</title>
<ellipse fill="none" stroke="black" cx="135" cy="-564" rx="27" ry="18"/>
<text text-anchor="middle" x="135" y="-560.3" font-family="Times,serif" font-size="14.00">1</text>
</g>
<!-- 0&#45;&gt;1 -->
<g id="edge1" class="edge">
<title>0&#45;&gt;1</title>
<path fill="none" stroke="black" d="M135,-636.84C135,-624.48 135,-607.54 135,-593.21"/>
<polygon fill="black" stroke="black" points="138.5,-593.41 135,-583.41 131.5,-593.41 138.5,-593.41"/>
<text text-anchor="start" x="139" y="-608" font-family="Courier New" font-weight="bold" font-size="10.00" fill="orange">WAIT(0,SIG_OPEN)</text>
</g>
<!-- 2 -->
<g id="node3" class="node">
<title>2</title>
<ellipse fill="none" stroke="black" cx="63" cy="-473" rx="27" ry="18"/>
<text text-anchor="middle" x="63" y="-469.3" font-family="Times,serif" font-size="14.00">2</text>
</g>
<!-- 1&#45;&gt;2 -->
<g id="edge2" class="edge">
<title>1&#45;&gt;2</title>
<path fill="none" stroke="black" d="M122.79,-547.9C111.68,-534.18 95.11,-513.7 82.23,-497.78"/>
<polygon fill="black" stroke="black" points="84.53,-496.04 75.52,-490.47 79.08,-500.45 84.53,-496.04"/>
<text text-anchor="start" x="110" y="-517" font-family="Courier New" font-weight="bold" font-size="10.00" fill="blue">ESTIME(,4)</text>
</g>
<!-- 3 -->
<g id="node4" class="node">
<title>3</title>
<ellipse fill="none" stroke="black" cx="32" cy="-382" rx="27" ry="18"/>
<text text-anchor="middle" x="32" y="-378.3" font-family="Times,serif" font-size="14.00">3</text>
</g>
<!-- 2&#45;&gt;3 -->
<g id="edge3" class="edge">
<title>2&#45;&gt;3</title>
<path fill="none" stroke="black" d="M47.56,-457.75C42.26,-451.88 36.93,-444.67 34,-437 30.88,-428.83 29.77,-419.46 29.62,-410.84"/>
<polygon fill="black" stroke="black" points="33.13,-411.18 29.88,-401.1 26.14,-411.01 33.13,-411.18"/>
<text text-anchor="start" x="38" y="-426" font-family="Courier New" font-weight="bold" font-size="10.00" fill="blue">SIGNALi(SIG_OPEN,S03_BIRDSFWD)</text>
</g>
<!-- 4 -->
<g id="node5" class="node">
<title>4</title>
<ellipse fill="none" stroke="black" cx="28" cy="-291" rx="27" ry="18"/>
<text text-anchor="middle" x="28" y="-287.3" font-family="Times,serif" font-size="14.00">4</text>
</g>
<!-- 3&#45;&gt;4 -->
<g id="edge4" class="edge">
<title>3&#45;&gt;4</title>
<path fill="none" stroke="black" d="M31.23,-363.84C30.67,-351.48 29.91,-334.54 29.27,-320.21"/>
<polygon fill="black" stroke="black" points="32.73,-320.24 28.78,-310.41 25.74,-320.56 32.73,-320.24"/>
<text text-anchor="start" x="35" y="-335" font-family="Courier New" font-weight="bold" font-size="10.00" fill="blue">ESTIME(10,10)</text>
</g>
<!-- 5 -->
<g id="node6" class="node">
<title>5</title>
<ellipse fill="none" stroke="black" cx="27" cy="-200" rx="27" ry="18"/>
<text text-anchor="middle" x="27" y="-196.3" font-family="Times,serif" font-size="14.00">5</text>
</g>
<!-- 4&#45;&gt;5 -->
<g id="edge5" class="edge">
<title>4&#45;&gt;5</title>
<path fill="none" stroke="black" d="M27.81,-272.84C27.67,-260.48 27.48,-243.54 27.32,-229.21"/>
<polygon fill="black" stroke="black" points="30.81,-229.37 27.2,-219.41 23.81,-229.45 30.81,-229.37"/>
<text text-anchor="start" x="32" y="-244" font-family="Courier New" font-weight="bold" font-size="10.00" fill="blue">SIGNALi(SIG_OPEN,S03_BIRDSBKWD)</text>
</g>
<!-- 6 -->
<g id="node7" class="node">
<title>6</title>
<ellipse fill="none" stroke="black" cx="27" cy="-109" rx="27" ry="18"/>
<text text-anchor="middle" x="27" y="-105.3" font-family="Times,serif" font-size="14.00">6</text>
</g>
<!-- 5&#45;&gt;6 -->
<g id="edge6" class="edge">
<title>5&#45;&gt;6</title>
<path fill="none" stroke="black" d="M27,-181.84C27,-169.48 27,-152.54 27,-138.21"/>
<polygon fill="black" stroke="black" points="30.5,-138.41 27,-128.41 23.5,-138.41 30.5,-138.41"/>
<text text-anchor="start" x="31" y="-153" font-family="Courier New" font-weight="bold" font-size="10.00" fill="blue">SIGNALi(SIG_OPEN,S12_BUTTERFLY)</text>
</g>
<!-- 7 -->
<g id="node8" class="node">
<title>7</title>
<ellipse fill="none" stroke="black" cx="132" cy="-18" rx="27" ry="18"/>
<text text-anchor="middle" x="132" y="-14.3" font-family="Times,serif" font-size="14.00">7</text>
</g>
<!-- 6&#45;&gt;7 -->
<g id="edge7" class="edge">
<title>6&#45;&gt;7</title>
<path fill="none" stroke="black" d="M22.57,-90.81C20.66,-79.31 20.35,-64.44 28,-54 43.09,-33.4 70.9,-24.78 93.97,-21.24"/>
<polygon fill="black" stroke="black" points="94.34,-24.59 103.83,-19.88 93.47,-17.64 94.34,-24.59"/>
<text text-anchor="start" x="32" y="-62" font-family="Courier New" font-weight="bold" font-size="10.00" fill="blue">SIGNALi(SIG_RIPEN,S16_GOPABUSH)</text>
</g>
<!-- 7&#45;&gt;1 -->
<g id="edge8" class="edge">
<title>7&#45;&gt;1</title>
<path fill="none" stroke="black" d="M158.43,-22.54C178.89,-26.65 206.43,-35.44 223,-54 239.51,-72.5 237,-83.21 237,-108 237,-474 237,-474 237,-474 237,-511.11 198.2,-536.29 168.46,-550.15"/>
<polygon fill="black" stroke="black" points="167.14,-547.35 159.4,-554.58 169.96,-553.76 167.14,-547.35"/>
<text text-anchor="start" x="241" y="-289.5" font-family="Courier New" font-weight="bold" font-size="10.00" fill="blue">ESTIME(,20)</text>
</g>
</g>
</svg>
