<?xml version="1.0" encoding="UTF-8" standalone="no"?>
<!DOCTYPE svg PUBLIC "-//W3C//DTD SVG 1.1//EN"
 "http://www.w3.org/Graphics/SVG/1.1/DTD/svg11.dtd">
<!-- Generated by graphviz version 8.0.1 (20230327.1645)
 -->
<!-- Pages: 1 -->
<svg width="204pt" height="135pt"
 viewBox="0.00 0.00 203.69 135.00" xmlns="http://www.w3.org/2000/svg" xmlns:xlink="http://www.w3.org/1999/xlink">
<g id="graph0" class="graph" transform="scale(1 1) rotate(0) translate(4 131)">
<polygon fill="white" stroke="none" points="-4,4 -4,-131 199.69,-131 199.69,4 -4,4"/>
<!-- 0 -->
<g id="node1" class="node">
<title>0</title>
<ellipse fill="none" stroke="black" cx="44.69" cy="-109" rx="27" ry="18"/>
<text text-anchor="middle" x="44.69" y="-105.3" font-family="Times,serif" font-size="14.00">0</text>
</g>
<!-- 1 -->
<g id="node2" class="node">
<title>1</title>
<ellipse fill="none" stroke="black" cx="44.69" cy="-18" rx="27" ry="18"/>
<text text-anchor="middle" x="44.69" y="-14.3" font-family="Times,serif" font-size="14.00">1</text>
</g>
<!-- 0&#45;&gt;1 -->
<g id="edge1" class="edge">
<title>0&#45;&gt;1</title>
<path fill="none" stroke="black" d="M24.49,-96.69C16.11,-90.81 7.28,-82.8 2.69,-73 -0.9,-65.35 -0.9,-61.65 2.69,-54 5.7,-47.57 10.54,-41.91 15.88,-37.12"/>
<polygon fill="black" stroke="black" points="17.81,-39.26 23.49,-30.31 13.47,-33.76 17.81,-39.26"/>
<text text-anchor="start" x="6.69" y="-62" font-family="Courier New" font-weight="bold" font-size="10.00" fill="orange">DROP(0,0)</text>
</g>
<!-- 1&#45;&gt;0 -->
<g id="edge2" class="edge">
<title>1&#45;&gt;0</title>
<path fill="none" stroke="black" d="M56.47,-34.54C60.18,-40.34 63.79,-47.17 65.69,-54 67.94,-62.14 67.94,-64.86 65.69,-73 64.74,-76.41 63.36,-79.83 61.76,-83.12"/>
<polygon fill="black" stroke="black" points="58.35,-81.03 56.47,-91.46 64.44,-84.48 58.35,-81.03"/>
<text text-anchor="start" x="70.69" y="-62" font-family="Courier New" font-weight="bold" font-size="10.00" fill="blue">VIDEO(0,IDS_SMBURST)</text>
</g>
</g>
</svg>
