<?xml version="1.0" encoding="UTF-8" standalone="no"?>
<!DOCTYPE svg PUBLIC "-//W3C//DTD SVG 1.1//EN"
 "http://www.w3.org/Graphics/SVG/1.1/DTD/svg11.dtd">
<!-- Generated by graphviz version 8.0.1 (20230327.1645)
 -->
<!-- Pages: 1 -->
<svg width="274pt" height="499pt"
 viewBox="0.00 0.00 274.00 499.00" xmlns="http://www.w3.org/2000/svg" xmlns:xlink="http://www.w3.org/1999/xlink">
<g id="graph0" class="graph" transform="scale(1 1) rotate(0) translate(4 495)">
<polygon fill="white" stroke="none" points="-4,4 -4,-495 270,-495 270,4 -4,4"/>
<!-- 0 -->
<g id="node1" class="node">
<title>0</title>
<ellipse fill="none" stroke="black" cx="91" cy="-473" rx="27" ry="18"/>
<text text-anchor="middle" x="91" y="-469.3" font-family="Times,serif" font-size="14.00">0</text>
</g>
<!-- 1 -->
<g id="node2" class="node">
<title>1</title>
<ellipse fill="none" stroke="black" cx="27" cy="-382" rx="27" ry="18"/>
<text text-anchor="middle" x="27" y="-378.3" font-family="Times,serif" font-size="14.00">1</text>
</g>
<!-- 0&#45;&gt;1 -->
<g id="edge1" class="edge">
<title>0&#45;&gt;1</title>
<path fill="none" stroke="black" d="M66.65,-464.48C53.45,-459.05 38.2,-450.3 30,-437 25.29,-429.36 23.68,-419.89 23.51,-411.03"/>
<polygon fill="black" stroke="black" points="27.03,-411.44 23.94,-401.31 20.04,-411.16 27.03,-411.44"/>
<text text-anchor="start" x="34" y="-426" font-family="Courier New" font-weight="bold" font-size="10.00" fill="blue">MOV(WSPRITE,WIP2)</text>
</g>
<!-- 2 -->
<g id="node3" class="node">
<title>2</title>
<ellipse fill="none" stroke="black" cx="27" cy="-291" rx="27" ry="18"/>
<text text-anchor="middle" x="27" y="-287.3" font-family="Times,serif" font-size="14.00">2</text>
</g>
<!-- 1&#45;&gt;2 -->
<g id="edge2" class="edge">
<title>1&#45;&gt;2</title>
<path fill="none" stroke="black" d="M27,-363.84C27,-351.48 27,-334.54 27,-320.21"/>
<polygon fill="black" stroke="black" points="30.5,-320.41 27,-310.41 23.5,-320.41 30.5,-320.41"/>
<text text-anchor="start" x="31" y="-335" font-family="Courier New" font-weight="bold" font-size="10.00" fill="blue">SHOW(WSPRITE,0)</text>
</g>
<!-- 3 -->
<g id="node5" class="node">
<title>3</title>
<ellipse fill="none" stroke="black" cx="28" cy="-200" rx="27" ry="18"/>
<text text-anchor="middle" x="28" y="-196.3" font-family="Times,serif" font-size="14.00">3</text>
</g>
<!-- 2&#45;&gt;3 -->
<g id="edge4" class="edge">
<title>2&#45;&gt;3</title>
<path fill="none" stroke="black" d="M27.19,-272.84C27.33,-260.48 27.52,-243.54 27.68,-229.21"/>
<polygon fill="black" stroke="black" points="31.19,-229.45 27.8,-219.41 24.19,-229.37 31.19,-229.45"/>
<text text-anchor="start" x="32" y="-244" font-family="Courier New" font-weight="bold" font-size="10.00" fill="orange">WAIT(0,SIG_OPEN)</text>
</g>
<!-- 10 -->
<g id="node4" class="node">
<title>10</title>
<ellipse fill="none" stroke="black" cx="95" cy="-18" rx="27" ry="18"/>
<text text-anchor="middle" x="95" y="-14.3" font-family="Times,serif" font-size="14.00">10</text>
</g>
<!-- 10&#45;&gt;0 -->
<g id="edge3" class="edge">
<title>10&#45;&gt;0</title>
<path fill="none" stroke="black" d="M115.44,-30.26C124.5,-36.21 134.55,-44.31 141,-54 154.73,-74.64 155,-83.21 155,-108 155,-383 155,-383 155,-383 155,-407.79 155.14,-416.63 141,-437 135.94,-444.28 128.85,-450.54 121.59,-455.67"/>
<polygon fill="black" stroke="black" points="119.97,-453.2 113.45,-461.56 123.76,-459.09 119.97,-453.2"/>
<text text-anchor="start" x="159" y="-244" font-family="Courier New" font-weight="bold" font-size="10.00" fill="orange">WAIT(0,SIG_CLOSE)</text>
</g>
<!-- 5 -->
<g id="node6" class="node">
<title>5</title>
<ellipse fill="none" stroke="black" cx="32" cy="-109" rx="27" ry="18"/>
<text text-anchor="middle" x="32" y="-105.3" font-family="Times,serif" font-size="14.00">5</text>
</g>
<!-- 3&#45;&gt;5 -->
<g id="edge5" class="edge">
<title>3&#45;&gt;5</title>
<path fill="none" stroke="black" d="M28.54,-181.97C28.9,-171.34 29.42,-157.37 30,-145 30.1,-142.86 30.21,-140.64 30.33,-138.41"/>
<polygon fill="black" stroke="black" points="33.88,-138.62 30.93,-128.44 26.89,-138.23 33.88,-138.62"/>
<text text-anchor="start" x="34" y="-153" font-family="Courier New" font-weight="bold" font-size="10.00" fill="blue">MOV(WSPRITE,WIP1)</text>
</g>
<!-- 5&#45;&gt;10 -->
<g id="edge6" class="edge">
<title>5&#45;&gt;10</title>
<path fill="none" stroke="black" d="M31.81,-90.65C32.46,-79.37 34.84,-64.81 42,-54 47.34,-45.94 55.24,-39.29 63.32,-34.04"/>
<polygon fill="black" stroke="black" points="64.89,-36.59 71.75,-28.51 61.35,-30.55 64.89,-36.59"/>
<text text-anchor="start" x="46" y="-62" font-family="Courier New" font-weight="bold" font-size="10.00" fill="blue">SHOW(WSPRITE,0)</text>
</g>
</g>
</svg>
