<?xml version="1.0" encoding="UTF-8" standalone="no"?>
<!DOCTYPE svg PUBLIC "-//W3C//DTD SVG 1.1//EN"
 "http://www.w3.org/Graphics/SVG/1.1/DTD/svg11.dtd">
<!-- Generated by graphviz version 8.0.1 (20230327.1645)
 -->
<!-- Pages: 1 -->
<svg width="238pt" height="226pt"
 viewBox="0.00 0.00 238.00 226.00" xmlns="http://www.w3.org/2000/svg" xmlns:xlink="http://www.w3.org/1999/xlink">
<g id="graph0" class="graph" transform="scale(1 1) rotate(0) translate(4 222)">
<polygon fill="white" stroke="none" points="-4,4 -4,-222 234,-222 234,4 -4,4"/>
<!-- 0 -->
<g id="node1" class="node">
<title>0</title>
<ellipse fill="none" stroke="black" cx="87" cy="-200" rx="27" ry="18"/>
<text text-anchor="middle" x="87" y="-196.3" font-family="Times,serif" font-size="14.00">0</text>
</g>
<!-- 1 -->
<g id="node2" class="node">
<title>1</title>
<ellipse fill="none" stroke="black" cx="27" cy="-109" rx="27" ry="18"/>
<text text-anchor="middle" x="27" y="-105.3" font-family="Times,serif" font-size="14.00">1</text>
</g>
<!-- 0&#45;&gt;1 -->
<g id="edge1" class="edge">
<title>0&#45;&gt;1</title>
<path fill="none" stroke="black" d="M62.95,-191.25C50.19,-185.79 35.61,-177.07 28,-164 23.49,-156.25 22.21,-146.76 22.38,-137.9"/>
<polygon fill="black" stroke="black" points="25.92,-138.45 23.23,-128.21 18.95,-137.9 25.92,-138.45"/>
<text text-anchor="start" x="32" y="-153" font-family="Courier New" font-weight="bold" font-size="10.00" fill="orange">WAIT(0,SIG_OPEN)</text>
</g>
<!-- 2 -->
<g id="node3" class="node">
<title>2</title>
<ellipse fill="none" stroke="black" cx="87" cy="-18" rx="27" ry="18"/>
<text text-anchor="middle" x="87" y="-14.3" font-family="Times,serif" font-size="14.00">2</text>
</g>
<!-- 1&#45;&gt;2 -->
<g id="edge2" class="edge">
<title>1&#45;&gt;2</title>
<path fill="none" stroke="black" d="M23.23,-90.79C21.71,-79.57 21.59,-65.02 28,-54 33.7,-44.19 43.33,-36.84 53.17,-31.47"/>
<polygon fill="black" stroke="black" points="54.47,-34.25 61.95,-26.75 51.42,-27.95 54.47,-34.25"/>
<text text-anchor="start" x="32" y="-62" font-family="Courier New" font-weight="bold" font-size="10.00" fill="blue">SHOW(0,IDS_BFLY)</text>
</g>
<!-- 2&#45;&gt;0 -->
<g id="edge3" class="edge">
<title>2&#45;&gt;0</title>
<path fill="none" stroke="black" d="M108.11,-29.3C117.56,-35.13 127.74,-43.39 133,-54 154.71,-97.8 154.71,-120.2 133,-164 129.38,-171.29 123.44,-177.48 117.01,-182.53"/>
<polygon fill="black" stroke="black" points="115.33,-180.13 109.11,-188.7 119.32,-185.88 115.33,-180.13"/>
<text text-anchor="start" x="153" y="-107.5" font-family="Courier New" font-weight="bold" font-size="10.00" fill="blue">ANIMATE(0,0)</text>
</g>
</g>
</svg>
