<?xml version="1.0" encoding="UTF-8" standalone="no"?>
<!DOCTYPE svg PUBLIC "-//W3C//DTD SVG 1.1//EN"
 "http://www.w3.org/Graphics/SVG/1.1/DTD/svg11.dtd">
<!-- Generated by graphviz version 8.0.1 (20230327.1645)
 -->
<!-- Pages: 1 -->
<svg width="1845pt" height="661pt"
 viewBox="0.00 0.00 1844.60 661.00" xmlns="http://www.w3.org/2000/svg" xmlns:xlink="http://www.w3.org/1999/xlink">
<g id="graph0" class="graph" transform="scale(1 1) rotate(0) translate(4 657)">
<polygon fill="white" stroke="none" points="-4,4 -4,-657 1840.6,-657 1840.6,4 -4,4"/>
<!-- 0 -->
<g id="node1" class="node">
<title>0</title>
<ellipse fill="none" stroke="black" cx="975.6" cy="-635" rx="27" ry="18"/>
<text text-anchor="middle" x="975.6" y="-631.3" font-family="Times,serif" font-size="14.00">0</text>
</g>
<!-- 1 -->
<g id="node2" class="node">
<title>1</title>
<ellipse fill="none" stroke="black" cx="975.6" cy="-544" rx="27" ry="18"/>
<text text-anchor="middle" x="975.6" y="-540.3" font-family="Times,serif" font-size="14.00">1</text>
</g>
<!-- 0&#45;&gt;1 -->
<g id="edge1" class="edge">
<title>0&#45;&gt;1</title>
<path fill="none" stroke="black" d="M975.6,-616.84C975.6,-604.48 975.6,-587.54 975.6,-573.21"/>
<polygon fill="black" stroke="black" points="979.1,-573.41 975.6,-563.41 972.1,-573.41 979.1,-573.41"/>
<text text-anchor="start" x="979.6" y="-588" font-family="Courier New" font-weight="bold" font-size="10.00" fill="blue">SHOW(0,0)</text>
</g>
<!-- 10 -->
<g id="node3" class="node">
<title>10</title>
<ellipse fill="none" stroke="black" cx="849.6" cy="-337" rx="27" ry="18"/>
<text text-anchor="middle" x="849.6" y="-333.3" font-family="Times,serif" font-size="14.00">10</text>
</g>
<!-- 1&#45;&gt;10 -->
<g id="edge2" class="edge">
<title>1&#45;&gt;10</title>
<path fill="none" stroke="black" d="M950.06,-537.51C918.42,-529.19 865.85,-510.02 842.6,-471 823.38,-438.73 831.37,-393.87 839.78,-365.38"/>
<polygon fill="black" stroke="black" points="843.39,-366.56 843.08,-355.97 836.72,-364.44 843.39,-366.56"/>
<polygon fill="none" stroke="black" points="845.6,-451 845.6,-468 1329.6,-468 1329.6,-451 845.6,-451"/>
<text text-anchor="start" x="1045.1" y="-458" font-family="Courier New" font-weight="bold" font-size="10.00" fill="blue">LTEi(WPARM,20)</text>
<polygon fill="none" stroke="black" points="845.6,-434 845.6,-449 1329.6,-449 1329.6,-434 845.6,-434"/>
<text text-anchor="start" x="848.6" y="-439.6" font-family="Times,serif" font-size="8.00" fill="blue">ASSIGN(LWEALTH,19);ASSIGN(WPARM,MAX_VIAL_STORAGE);MOV(BPARM,LWEALTH);SIGNALi(SIG_SHOW,S1_VIALMETER);</text>
<polygon fill="none" stroke="black" points="842.6,-431 842.6,-471 1332.6,-471 1332.6,-431 842.6,-431"/>
</g>
<!-- 2 -->
<g id="node4" class="node">
<title>2</title>
<ellipse fill="none" stroke="black" cx="1368.6" cy="-451" rx="27" ry="18"/>
<text text-anchor="middle" x="1368.6" y="-447.3" font-family="Times,serif" font-size="14.00">2</text>
</g>
<!-- 1&#45;&gt;2 -->
<g id="edge3" class="edge">
<title>1&#45;&gt;2</title>
<path fill="none" stroke="black" d="M1002.2,-539.71C1061.65,-531.89 1209.39,-509.89 1327.6,-471 1330.96,-469.9 1334.4,-468.59 1337.79,-467.2"/>
<polygon fill="black" stroke="black" points="1338.97,-470.06 1346.7,-462.82 1336.14,-463.66 1338.97,-470.06"/>
<text text-anchor="start" x="1265.6" y="-497" font-family="Courier New" font-weight="bold" font-size="10.00" fill="blue">Z_EPSILON(,)</text>
</g>
<!-- 10&#45;&gt;10 -->
<g id="edge6" class="edge">
<title>10&#45;&gt;10</title>
<path fill="none" stroke="black" d="M875.95,-342.23C886.13,-342.46 894.6,-340.72 894.6,-337 894.6,-334.73 891.46,-333.2 886.7,-332.4"/>
<polygon fill="black" stroke="black" points="887.14,-328.86 876.95,-331.77 886.73,-335.85 887.14,-328.86"/>
<text text-anchor="start" x="898.6" y="-335.5" font-family="Courier New" font-weight="bold" font-size="10.00" fill="orange">DROP(0,IDD_SCOOPE)</text>
</g>
<!-- 10&#45;&gt;10 -->
<g id="edge10" class="edge">
<title>10&#45;&gt;10</title>
<path fill="none" stroke="black" d="M875.06,-343.8C922.07,-350.42 1011.6,-348.16 1011.6,-337 1011.6,-326.65 934.54,-323.95 885.87,-328.9"/>
<polygon fill="black" stroke="black" points="885.58,-325.54 876.06,-330.2 886.41,-332.49 885.58,-325.54"/>
<text text-anchor="start" x="1015.6" y="-335.5" font-family="Courier New" font-weight="bold" font-size="10.00" fill="orange">GRAB(0,IDD_SCOOPE)</text>
</g>
<!-- 12 -->
<g id="node5" class="node">
<title>12</title>
<ellipse fill="none" stroke="black" cx="168.6" cy="-223" rx="27" ry="18"/>
<text text-anchor="middle" x="168.6" y="-219.3" font-family="Times,serif" font-size="14.00">12</text>
</g>
<!-- 10&#45;&gt;12 -->
<g id="edge4" class="edge">
<title>10&#45;&gt;12</title>
<path fill="none" stroke="black" d="M822.3,-336.18C705.84,-336.75 254.14,-336.6 202.6,-301 186.43,-289.83 177.86,-269.13 173.38,-252.01"/>
<polygon fill="black" stroke="black" points="176.6,-251.39 170.98,-242.41 169.77,-252.93 176.6,-251.39"/>
<text text-anchor="start" x="206.6" y="-279.5" font-family="Courier New" font-weight="bold" font-size="10.00" fill="orange">DRAG(0,IDD_SCOOPE)</text>
</g>
<!-- 16 -->
<g id="node6" class="node">
<title>16</title>
<ellipse fill="none" stroke="black" cx="463.6" cy="-223" rx="27" ry="18"/>
<text text-anchor="middle" x="463.6" y="-219.3" font-family="Times,serif" font-size="14.00">16</text>
</g>
<!-- 10&#45;&gt;16 -->
<g id="edge5" class="edge">
<title>10&#45;&gt;16</title>
<path fill="none" stroke="black" d="M822.43,-335.44C739.94,-333.46 496.47,-325.59 471.6,-301 458.95,-288.48 457.24,-268.31 458.55,-251.75"/>
<polygon fill="black" stroke="black" points="462.12,-252.35 459.83,-242 455.17,-251.52 462.12,-252.35"/>
<text text-anchor="start" x="475.6" y="-279.5" font-family="Courier New" font-weight="bold" font-size="10.00" fill="orange">DRAG(0,IDD_SCOOPF)</text>
</g>
<!-- 19 -->
<g id="node7" class="node">
<title>19</title>
<ellipse fill="none" stroke="black" cx="1645.6" cy="-223" rx="27" ry="18"/>
<text text-anchor="middle" x="1645.6" y="-219.3" font-family="Times,serif" font-size="14.00">19</text>
</g>
<!-- 10&#45;&gt;19 -->
<g id="edge7" class="edge">
<title>10&#45;&gt;19</title>
<path fill="none" stroke="black" d="M877.02,-335.85C997.29,-335.05 1474.73,-330.03 1534.6,-301 1555.86,-290.69 1550.83,-275.34 1569.6,-261 1573.58,-257.96 1594.92,-247.65 1613.97,-238.68"/>
<polygon fill="black" stroke="black" points="1615.34,-241.43 1622.91,-234.02 1612.37,-235.09 1615.34,-241.43"/>
<text text-anchor="start" x="1573.6" y="-279.5" font-family="Courier New" font-weight="bold" font-size="10.00" fill="orange">DROP(0,IDD_SCOOPF)</text>
</g>
<!-- 30 -->
<g id="node8" class="node">
<title>30</title>
<ellipse fill="none" stroke="black" cx="726.6" cy="-223" rx="27" ry="18"/>
<text text-anchor="middle" x="726.6" y="-219.3" font-family="Times,serif" font-size="14.00">30</text>
</g>
<!-- 10&#45;&gt;30 -->
<g id="edge8" class="edge">
<title>10&#45;&gt;30</title>
<path fill="none" stroke="black" d="M848.87,-318.64C847.26,-301.87 842.35,-276.75 827.6,-261 810.97,-243.24 785.11,-233.97 763.72,-229.16"/>
<polygon fill="black" stroke="black" points="764.5,-225.54 754.01,-227.02 763.13,-232.41 764.5,-225.54"/>
<text text-anchor="start" x="850.6" y="-279.5" font-family="Courier New" font-weight="bold" font-size="10.00" fill="orange">DROP(0,IDD_VIAL1)</text>
</g>
<!-- 40 -->
<g id="node9" class="node">
<title>40</title>
<ellipse fill="none" stroke="black" cx="1106.6" cy="-223" rx="27" ry="18"/>
<text text-anchor="middle" x="1106.6" y="-219.3" font-family="Times,serif" font-size="14.00">40</text>
</g>
<!-- 10&#45;&gt;40 -->
<g id="edge9" class="edge">
<title>10&#45;&gt;40</title>
<path fill="none" stroke="black" d="M876.85,-335.4C956.62,-333.36 1185.47,-325.4 1207.6,-301 1219.55,-287.83 1217.78,-275.57 1207.6,-261 1193.36,-240.61 1166.59,-231.42 1144.19,-227.3"/>
<polygon fill="black" stroke="black" points="1145.04,-223.73 1134.62,-225.65 1143.96,-230.65 1145.04,-223.73"/>
<text text-anchor="start" x="1219.6" y="-279.5" font-family="Courier New" font-weight="bold" font-size="10.00" fill="orange">DROP(0,IDD_VIAL2)</text>
</g>
<!-- 2&#45;&gt;10 -->
<g id="edge21" class="edge">
<title>2&#45;&gt;10</title>
<path fill="none" stroke="black" d="M1347.71,-439.14C1341.38,-436.17 1334.32,-433.17 1327.6,-431 1168.01,-379.34 968.66,-351.89 887.05,-342.16"/>
<polygon fill="black" stroke="black" points="887.67,-338.59 877.33,-340.9 886.86,-345.54 887.67,-338.59"/>
<polygon fill="none" stroke="black" points="1266.6,-393 1266.6,-410 1417.6,-410 1417.6,-393 1266.6,-393"/>
<text text-anchor="start" x="1287.6" y="-400" font-family="Courier New" font-weight="bold" font-size="10.00" fill="blue">MOV(BPARM,LWEALTH)</text>
<polygon fill="none" stroke="black" points="1266.6,-376 1266.6,-391 1417.6,-391 1417.6,-376 1266.6,-376"/>
<text text-anchor="start" x="1269.6" y="-381.6" font-family="Times,serif" font-size="8.00" fill="blue">SIGNALi(SIG_SHOW,S1_VIALMETER);</text>
<polygon fill="none" stroke="black" points="1263.6,-373 1263.6,-413 1420.6,-413 1420.6,-373 1263.6,-373"/>
</g>
<!-- 12&#45;&gt;10 -->
<g id="edge11" class="edge">
<title>12&#45;&gt;10</title>
<path fill="none" stroke="black" d="M141.49,-224.99C116.15,-227.54 79.62,-235.71 61.6,-261 51.29,-275.48 49.31,-288.15 61.6,-301 87.81,-328.39 658.37,-334.58 811.87,-335.76"/>
<polygon fill="black" stroke="black" points="811.56,-339.26 821.59,-335.84 811.62,-332.26 811.56,-339.26"/>
<text text-anchor="start" x="65.6" y="-279.5" font-family="Courier New" font-weight="bold" font-size="10.00" fill="blue">EQUALi(LWEALTH,0)</text>
</g>
<!-- 13 -->
<g id="node10" class="node">
<title>13</title>
<ellipse fill="none" stroke="black" cx="148.6" cy="-109" rx="27" ry="18"/>
<text text-anchor="middle" x="148.6" y="-105.3" font-family="Times,serif" font-size="14.00">13</text>
</g>
<!-- 12&#45;&gt;13 -->
<g id="edge12" class="edge">
<title>12&#45;&gt;13</title>
<path fill="none" stroke="black" d="M165.56,-204.99C162.38,-187.15 157.32,-158.82 153.55,-137.73"/>
<polygon fill="black" stroke="black" points="156.87,-137.4 151.67,-128.17 149.98,-138.63 156.87,-137.4"/>
<polygon fill="none" stroke="black" points="164.6,-165 164.6,-182 408.6,-182 408.6,-165 164.6,-165"/>
<text text-anchor="start" x="241.1" y="-172" font-family="Courier New" font-weight="bold" font-size="10.00" fill="blue">SUBI(LWEALTH,1)</text>
<polygon fill="none" stroke="black" points="164.6,-148 164.6,-163 408.6,-163 408.6,-148 164.6,-148"/>
<text text-anchor="start" x="167.6" y="-153.6" font-family="Times,serif" font-size="8.00" fill="blue">MOV(BPARM,LWEALTH);SIGNALi(SIG_SHOW,S1_VIALMETER);</text>
<polygon fill="none" stroke="black" points="161.6,-145 161.6,-185 411.6,-185 411.6,-145 161.6,-145"/>
</g>
<!-- 16&#45;&gt;10 -->
<g id="edge16" class="edge">
<title>16&#45;&gt;10</title>
<path fill="none" stroke="black" d="M436.99,-227.65C402.23,-233.02 344.29,-244.26 331.6,-261 320.86,-275.17 319.46,-288.01 331.6,-301 364.18,-335.86 697.2,-337 811.41,-336.35"/>
<polygon fill="black" stroke="black" points="811.4,-339.84 821.38,-336.28 811.36,-332.84 811.4,-339.84"/>
<text text-anchor="start" x="335.6" y="-279.5" font-family="Courier New" font-weight="bold" font-size="10.00" fill="blue">GTEi(LWEALTH,WPARM)</text>
</g>
<!-- 17 -->
<g id="node12" class="node">
<title>17</title>
<ellipse fill="none" stroke="black" cx="688.6" cy="-109" rx="27" ry="18"/>
<text text-anchor="middle" x="688.6" y="-105.3" font-family="Times,serif" font-size="14.00">17</text>
</g>
<!-- 16&#45;&gt;17 -->
<g id="edge15" class="edge">
<title>16&#45;&gt;17</title>
<path fill="none" stroke="black" d="M484.77,-211.46C524.64,-191.62 611.02,-148.62 657.5,-125.48"/>
<polygon fill="black" stroke="black" points="658.93,-128.18 666.33,-120.59 655.81,-121.91 658.93,-128.18"/>
<polygon fill="none" stroke="black" points="619.6,-165 619.6,-182 863.6,-182 863.6,-165 619.6,-165"/>
<text text-anchor="start" x="696.1" y="-172" font-family="Courier New" font-weight="bold" font-size="10.00" fill="blue">ADDI(LWEALTH,1)</text>
<polygon fill="none" stroke="black" points="619.6,-148 619.6,-163 863.6,-163 863.6,-148 619.6,-148"/>
<text text-anchor="start" x="622.6" y="-153.6" font-family="Times,serif" font-size="8.00" fill="blue">MOV(BPARM,LWEALTH);SIGNALi(SIG_SHOW,S1_VIALMETER);</text>
<polygon fill="none" stroke="black" points="616.6,-145 616.6,-185 866.6,-185 866.6,-145 616.6,-145"/>
</g>
<!-- 19&#45;&gt;10 -->
<g id="edge19" class="edge">
<title>19&#45;&gt;10</title>
<path fill="none" stroke="black" d="M1625.26,-235.1C1618.83,-238.15 1611.57,-241.13 1604.6,-243 1519.69,-265.82 1486.73,-222.67 1407.6,-261 1385.53,-271.69 1391.8,-290.58 1369.6,-301 1326.35,-321.32 1000.4,-331.94 887.76,-335.03"/>
<polygon fill="black" stroke="black" points="887.83,-331.55 877.93,-335.32 888.02,-338.55 887.83,-331.55"/>
<text text-anchor="start" x="1411.6" y="-279.5" font-family="Courier New" font-weight="bold" font-size="10.00" fill="blue">GTEi(LWEALTH,WPARM)</text>
</g>
<!-- 20 -->
<g id="node14" class="node">
<title>20</title>
<ellipse fill="none" stroke="black" cx="1412.6" cy="-109" rx="27" ry="18"/>
<text text-anchor="middle" x="1412.6" y="-105.3" font-family="Times,serif" font-size="14.00">20</text>
</g>
<!-- 19&#45;&gt;20 -->
<g id="edge20" class="edge">
<title>19&#45;&gt;20</title>
<path fill="none" stroke="black" d="M1624.1,-211.66C1582.75,-191.79 1491.98,-148.16 1443.91,-125.05"/>
<polygon fill="black" stroke="black" points="1445.58,-121.49 1435.05,-120.31 1442.55,-127.8 1445.58,-121.49"/>
<text text-anchor="start" x="1566.6" y="-163.5" font-family="Courier New" font-weight="bold" font-size="10.00" fill="blue">Z_EPSILON(,)</text>
</g>
<!-- 30&#45;&gt;10 -->
<g id="edge23" class="edge">
<title>30&#45;&gt;10</title>
<path fill="none" stroke="black" d="M699.24,-223.27C669.53,-224.14 623.28,-230.7 600.6,-261 589.95,-275.23 588.94,-287.58 600.6,-301 627.48,-331.92 748.84,-336.32 811.66,-336.46"/>
<polygon fill="black" stroke="black" points="811.31,-339.96 821.3,-336.44 811.3,-332.96 811.31,-339.96"/>
<polygon fill="none" stroke="black" points="603.6,-281 603.6,-298 820.6,-298 820.6,-281 603.6,-281"/>
<text text-anchor="start" x="630.6" y="-288" font-family="Courier New" font-weight="bold" font-size="10.00" fill="blue">MOV(WPARM,MAX_VIAL_STORAGE)</text>
<polygon fill="none" stroke="black" points="603.6,-264 603.6,-279 820.6,-279 820.6,-264 603.6,-264"/>
<text text-anchor="start" x="606.6" y="-269.6" font-family="Times,serif" font-size="8.00" fill="blue">ADDi(WPARM,20);SIGNALi(SIG_SHOW,S1_VIALMETER);</text>
<polygon fill="none" stroke="black" points="600.6,-261 600.6,-301 823.6,-301 823.6,-261 600.6,-261"/>
</g>
<!-- 40&#45;&gt;10 -->
<g id="edge24" class="edge">
<title>40&#45;&gt;10</title>
<path fill="none" stroke="black" d="M1079.48,-225.6C1051.69,-228.58 1008.7,-237.02 980.6,-261 965.63,-273.78 976.46,-288.09 961.6,-301 940.89,-318.99 910.97,-327.74 887.27,-331.99"/>
<polygon fill="black" stroke="black" points="886.87,-328.67 877.54,-333.69 887.96,-335.58 886.87,-328.67"/>
<polygon fill="none" stroke="black" points="983.6,-281 983.6,-298 1200.6,-298 1200.6,-281 983.6,-281"/>
<text text-anchor="start" x="1010.6" y="-288" font-family="Courier New" font-weight="bold" font-size="10.00" fill="blue">MOV(WPARM,MAX_VIAL_STORAGE)</text>
<polygon fill="none" stroke="black" points="983.6,-264 983.6,-279 1200.6,-279 1200.6,-264 983.6,-264"/>
<text text-anchor="start" x="986.6" y="-269.6" font-family="Times,serif" font-size="8.00" fill="blue">ADDi(WPARM,60);SIGNALi(SIG_SHOW,S1_VIALMETER);</text>
<polygon fill="none" stroke="black" points="980.6,-261 980.6,-301 1203.6,-301 1203.6,-261 980.6,-261"/>
</g>
<!-- 14 -->
<g id="node11" class="node">
<title>14</title>
<ellipse fill="none" stroke="black" cx="30.6" cy="-18" rx="27" ry="18"/>
<text text-anchor="middle" x="30.6" y="-14.3" font-family="Times,serif" font-size="14.00">14</text>
</g>
<!-- 13&#45;&gt;14 -->
<g id="edge13" class="edge">
<title>13&#45;&gt;14</title>
<path fill="none" stroke="black" d="M131.19,-94.87C111.58,-80.08 79.5,-55.88 56.85,-38.8"/>
<polygon fill="black" stroke="black" points="59.18,-35.41 49.08,-32.19 54.96,-41 59.18,-35.41"/>
<text text-anchor="start" x="104.6" y="-62" font-family="Courier New" font-weight="bold" font-size="10.00" fill="blue">PLAYWAVE(0,SOUND_SLURP)</text>
</g>
<!-- 14&#45;&gt;10 -->
<g id="edge14" class="edge">
<title>14&#45;&gt;10</title>
<path fill="none" stroke="black" d="M24.74,-35.77C8.32,-86.15 -31.83,-236.66 49.6,-301 79.8,-324.86 656.43,-333.63 811.49,-335.56"/>
<polygon fill="black" stroke="black" points="811.28,-339.07 821.32,-335.7 811.36,-332.07 811.28,-339.07"/>
<text text-anchor="start" x="5.6" y="-163.5" font-family="Courier New" font-weight="bold" font-size="10.00" fill="blue">HANDOFF(0,IDD_SCOOPF)</text>
</g>
<!-- 18 -->
<g id="node13" class="node">
<title>18</title>
<ellipse fill="none" stroke="black" cx="1590.6" cy="-18" rx="27" ry="18"/>
<text text-anchor="middle" x="1590.6" y="-14.3" font-family="Times,serif" font-size="14.00">18</text>
</g>
<!-- 17&#45;&gt;18 -->
<g id="edge17" class="edge">
<title>17&#45;&gt;18</title>
<path fill="none" stroke="black" d="M715.11,-105.38C843.71,-92.7 1402.59,-37.55 1553.13,-22.7"/>
<polygon fill="black" stroke="black" points="1553.05,-26.12 1562.66,-21.66 1552.36,-19.16 1553.05,-26.12"/>
<text text-anchor="start" x="1223.6" y="-62" font-family="Courier New" font-weight="bold" font-size="10.00" fill="blue">PLAYWAVE(0,SOUND_SPIT)</text>
</g>
<!-- 18&#45;&gt;10 -->
<g id="edge18" class="edge">
<title>18&#45;&gt;10</title>
<path fill="none" stroke="black" d="M1604.56,-33.79C1646.31,-79.74 1762.67,-221.68 1686.6,-301 1658.61,-330.18 1047.48,-335.08 887.6,-335.86"/>
<polygon fill="black" stroke="black" points="887.87,-332.36 877.88,-335.91 887.9,-339.36 887.87,-332.36"/>
<text text-anchor="start" x="1705.6" y="-163.5" font-family="Courier New" font-weight="bold" font-size="10.00" fill="blue">HANDOFF(0,IDD_SCOOPE)</text>
</g>
<!-- 20&#45;&gt;10 -->
<g id="edge22" class="edge">
<title>20&#45;&gt;10</title>
<path fill="none" stroke="black" d="M1402.04,-125.88C1390.39,-143.94 1371.7,-174.62 1359.6,-203 1341.79,-244.79 1365.98,-272.51 1330.6,-301 1296.43,-328.52 995.74,-334.44 887.89,-335.68"/>
<polygon fill="black" stroke="black" points="887.85,-332.19 877.89,-335.8 887.93,-339.19 887.85,-332.19"/>
<polygon fill="none" stroke="black" points="1362.6,-223 1362.6,-240 1606.6,-240 1606.6,-223 1362.6,-223"/>
<text text-anchor="start" x="1439.1" y="-230" font-family="Courier New" font-weight="bold" font-size="10.00" fill="blue">ADDi(LWEALTH,1)</text>
<polygon fill="none" stroke="black" points="1362.6,-206 1362.6,-221 1606.6,-221 1606.6,-206 1362.6,-206"/>
<text text-anchor="start" x="1365.6" y="-211.6" font-family="Times,serif" font-size="8.00" fill="blue">MOV(BPARM,LWEALTH);SIGNALi(SIG_SHOW,S1_VIALMETER);</text>
<polygon fill="none" stroke="black" points="1359.6,-203 1359.6,-243 1609.6,-243 1609.6,-203 1359.6,-203"/>
</g>
</g>
</svg>
