<?xml version="1.0" encoding="UTF-8" standalone="no"?>
<!DOCTYPE svg PUBLIC "-//W3C//DTD SVG 1.1//EN"
 "http://www.w3.org/Graphics/SVG/1.1/DTD/svg11.dtd">
<!-- Generated by graphviz version 8.0.1 (20230327.1645)
 -->
<!-- Title: Automaton Pages: 1 -->
<svg width="7720pt" height="195pt"
 viewBox="0.00 0.00 7720.45 195.00" xmlns="http://www.w3.org/2000/svg" xmlns:xlink="http://www.w3.org/1999/xlink">
<g id="graph0" class="graph" transform="scale(1 1) rotate(0) translate(4 191)">
<title>Automaton</title>
<polygon fill="white" stroke="none" points="-4,4 -4,-191 7716.45,-191 7716.45,4 -4,4"/>
<!-- filename -->
<g id="node1" class="node">
<title>filename</title>
<polygon fill="none" stroke="black" points="3631.95,-125.5 3631.95,-175.5 3804.95,-175.5 3804.95,-125.5 3631.95,-125.5"/>
<polygon fill="none" stroke="black" points="3642.95,-151.5 3642.95,-168.5 3793.95,-168.5 3793.95,-151.5 3642.95,-151.5"/>
<text text-anchor="start" x="3645.95" y="-158.5" font-family="Courier New" font-weight="bold" font-size="10.00">MEFCURRENT::M_MEFCURRENT</text>
<polygon fill="none" stroke="black" points="3642.95,-132.5 3642.95,-149.5 3793.95,-149.5 3793.95,-132.5 3642.95,-132.5"/>
<text text-anchor="start" x="3672.95" y="-138.5" font-family="Courier New" font-size="10.00" fill="brown">start state = 0</text>
<polygon fill="none" stroke="black" points="3639.95,-129.5 3639.95,-171.5 3796.95,-171.5 3796.95,-129.5 3639.95,-129.5"/>
</g>
<!-- 0 -->
<g id="node2" class="node">
<title>0</title>
<polyline fill="none" stroke="darkred" points="3842.95,-140 3857.95,-140"/>
<text text-anchor="start" x="3845.95" y="-147.8" font-family="Courier New" font-weight="bold" font-size="14.00">0</text>
<path fill="none" stroke="darkred" d="M3846.95,-137C3846.95,-137 3853.95,-137 3853.95,-137 3857.45,-137 3860.95,-140.5 3860.95,-144 3860.95,-144 3860.95,-157 3860.95,-157 3860.95,-160.5 3857.45,-164 3853.95,-164 3853.95,-164 3846.95,-164 3846.95,-164 3843.45,-164 3839.95,-160.5 3839.95,-157 3839.95,-157 3839.95,-144 3839.95,-144 3839.95,-140.5 3843.45,-137 3846.95,-137"/>
</g>
<!-- quest1 -->
<g id="node3" class="node">
<title>quest1</title>
<polyline fill="none" stroke="darkred" points="151.45,-7.5 207.45,-7.5"/>
<text text-anchor="start" x="154.45" y="-15.3" font-family="Courier New" font-weight="bold" font-size="14.00">quest1</text>
<path fill="none" stroke="darkred" d="M157.45,-4.5C157.45,-4.5 201.45,-4.5 201.45,-4.5 205.95,-4.5 210.45,-9 210.45,-13.5 210.45,-13.5 210.45,-22.5 210.45,-22.5 210.45,-27 205.95,-31.5 201.45,-31.5 201.45,-31.5 157.45,-31.5 157.45,-31.5 152.95,-31.5 148.45,-27 148.45,-22.5 148.45,-22.5 148.45,-13.5 148.45,-13.5 148.45,-9 152.95,-4.5 157.45,-4.5"/>
</g>
<!-- 0&#45;&gt;quest1 -->
<g id="edge1" class="edge">
<title>0&#45;&gt;quest1</title>
<path fill="none" stroke="black" d="M3837.94,-132.74C3831.51,-125.53 3823.02,-117.88 3813.45,-114 3764.47,-94.17 46.72,-133.45 9.45,-96 -3.72,-82.77 -2.35,-68.47 9.45,-54 24.44,-35.6 85.34,-26.6 129.98,-22.39"/>
<polygon fill="black" stroke="black" points="130,-25.81 139.66,-21.44 129.39,-18.84 130,-25.81"/>
<polygon fill="none" stroke="black" points="12.45,-76 12.45,-93 325.45,-93 325.45,-76 12.45,-76"/>
<text text-anchor="start" x="129.45" y="-83" font-family="Courier New" font-weight="bold" font-size="10.00" fill="orange">WAIT(,SIG_Q1)</text>
<polygon fill="none" stroke="black" points="12.45,-57 12.45,-74 325.45,-74 325.45,-57 12.45,-57"/>
<text text-anchor="start" x="15.45" y="-63" font-family="Courier New" font-size="10.00" fill="blue">ASSIGN(BPARM,S33_NEELP);ASSIGN(WPARM,S33_NEELP_Q1);</text>
<polygon fill="none" stroke="black" points="9.45,-54 9.45,-96 328.45,-96 328.45,-54 9.45,-54"/>
</g>
<!-- quest1p -->
<g id="node4" class="node">
<title>quest1p</title>
<polyline fill="none" stroke="darkred" points="581.45,-7.5 645.45,-7.5"/>
<text text-anchor="start" x="584.45" y="-15.3" font-family="Courier New" font-weight="bold" font-size="14.00">quest1p</text>
<path fill="none" stroke="darkred" d="M587.45,-4.5C587.45,-4.5 639.45,-4.5 639.45,-4.5 643.95,-4.5 648.45,-9 648.45,-13.5 648.45,-13.5 648.45,-22.5 648.45,-22.5 648.45,-27 643.95,-31.5 639.45,-31.5 639.45,-31.5 587.45,-31.5 587.45,-31.5 582.95,-31.5 578.45,-27 578.45,-22.5 578.45,-22.5 578.45,-13.5 578.45,-13.5 578.45,-9 582.95,-4.5 587.45,-4.5"/>
</g>
<!-- 0&#45;&gt;quest1p -->
<g id="edge2" class="edge">
<title>0&#45;&gt;quest1p</title>
<path fill="none" stroke="black" d="M3837.94,-132.74C3831.51,-125.53 3823.02,-117.88 3813.45,-114 3770.22,-96.48 488.34,-129.07 455.45,-96 442.28,-82.77 443.76,-68.56 455.45,-54 468.46,-37.79 519.19,-28.63 559.71,-23.78"/>
<polygon fill="black" stroke="black" points="560.01,-27.16 569.56,-22.55 559.23,-20.2 560.01,-27.16"/>
<polygon fill="none" stroke="black" points="458.45,-76 458.45,-93 747.45,-93 747.45,-76 458.45,-76"/>
<text text-anchor="start" x="560.45" y="-83" font-family="Courier New" font-weight="bold" font-size="10.00" fill="orange">WAIT(,SIG_Q1P)</text>
<polygon fill="none" stroke="black" points="458.45,-57 458.45,-74 747.45,-74 747.45,-57 458.45,-57"/>
<text text-anchor="start" x="461.45" y="-63" font-family="Courier New" font-size="10.00" fill="blue">ASSIGN(BPARM,S33_NEELP);ASSIGN(WPARM,NEELP_I1);</text>
<polygon fill="none" stroke="black" points="455.45,-54 455.45,-96 750.45,-96 750.45,-54 455.45,-54"/>
</g>
<!-- quest2 -->
<g id="node5" class="node">
<title>quest2</title>
<polyline fill="none" stroke="darkred" points="1019.45,-7.5 1075.45,-7.5"/>
<text text-anchor="start" x="1022.45" y="-15.3" font-family="Courier New" font-weight="bold" font-size="14.00">quest2</text>
<path fill="none" stroke="darkred" d="M1025.45,-4.5C1025.45,-4.5 1069.45,-4.5 1069.45,-4.5 1073.95,-4.5 1078.45,-9 1078.45,-13.5 1078.45,-13.5 1078.45,-22.5 1078.45,-22.5 1078.45,-27 1073.95,-31.5 1069.45,-31.5 1069.45,-31.5 1025.45,-31.5 1025.45,-31.5 1020.95,-31.5 1016.45,-27 1016.45,-22.5 1016.45,-22.5 1016.45,-13.5 1016.45,-13.5 1016.45,-9 1020.95,-4.5 1025.45,-4.5"/>
</g>
<!-- 0&#45;&gt;quest2 -->
<g id="edge3" class="edge">
<title>0&#45;&gt;quest2</title>
<path fill="none" stroke="black" d="M3837.94,-132.74C3831.51,-125.54 3823.02,-117.88 3813.45,-114 3775.66,-98.67 906.19,-124.92 877.45,-96 864.29,-82.76 865.65,-68.47 877.45,-54 892.44,-35.6 953.34,-26.6 997.98,-22.39"/>
<polygon fill="black" stroke="black" points="998,-25.81 1007.66,-21.44 997.39,-18.84 998,-25.81"/>
<polygon fill="none" stroke="black" points="880.45,-76 880.45,-93 1193.45,-93 1193.45,-76 880.45,-76"/>
<text text-anchor="start" x="997.45" y="-83" font-family="Courier New" font-weight="bold" font-size="10.00" fill="orange">WAIT(,SIG_Q2)</text>
<polygon fill="none" stroke="black" points="880.45,-57 880.45,-74 1193.45,-74 1193.45,-57 880.45,-57"/>
<text text-anchor="start" x="883.45" y="-63" font-family="Courier New" font-size="10.00" fill="blue">ASSIGN(BPARM,S11_NEELP);ASSIGN(WPARM,S11_NEELP_Q2);</text>
<polygon fill="none" stroke="black" points="877.45,-54 877.45,-96 1196.45,-96 1196.45,-54 877.45,-54"/>
</g>
<!-- quest2p -->
<g id="node6" class="node">
<title>quest2p</title>
<polyline fill="none" stroke="darkred" points="1446.45,-7.5 1510.45,-7.5"/>
<text text-anchor="start" x="1449.45" y="-15.3" font-family="Courier New" font-weight="bold" font-size="14.00">quest2p</text>
<path fill="none" stroke="darkred" d="M1452.45,-4.5C1452.45,-4.5 1504.45,-4.5 1504.45,-4.5 1508.95,-4.5 1513.45,-9 1513.45,-13.5 1513.45,-13.5 1513.45,-22.5 1513.45,-22.5 1513.45,-27 1508.95,-31.5 1504.45,-31.5 1504.45,-31.5 1452.45,-31.5 1452.45,-31.5 1447.95,-31.5 1443.45,-27 1443.45,-22.5 1443.45,-22.5 1443.45,-13.5 1443.45,-13.5 1443.45,-9 1447.95,-4.5 1452.45,-4.5"/>
</g>
<!-- 0&#45;&gt;quest2p -->
<g id="edge4" class="edge">
<title>0&#45;&gt;quest2p</title>
<path fill="none" stroke="black" d="M3837.94,-132.75C3831.51,-125.54 3823.01,-117.89 3813.45,-114 3781.41,-100.98 1347.81,-120.54 1323.45,-96 1310.3,-82.75 1311.79,-68.58 1323.45,-54 1336.08,-38.19 1385.14,-29.01 1424.72,-24.05"/>
<polygon fill="black" stroke="black" points="1425.08,-27.41 1434.6,-22.76 1424.26,-20.46 1425.08,-27.41"/>
<polygon fill="none" stroke="black" points="1326.45,-76 1326.45,-93 1615.45,-93 1615.45,-76 1326.45,-76"/>
<text text-anchor="start" x="1428.45" y="-83" font-family="Courier New" font-weight="bold" font-size="10.00" fill="orange">WAIT(,SIG_Q2P)</text>
<polygon fill="none" stroke="black" points="1326.45,-57 1326.45,-74 1615.45,-74 1615.45,-57 1326.45,-57"/>
<text text-anchor="start" x="1329.45" y="-63" font-family="Courier New" font-size="10.00" fill="blue">ASSIGN(BPARM,S11_NEELP);ASSIGN(WPARM,NEELP_I2);</text>
<polygon fill="none" stroke="black" points="1323.45,-54 1323.45,-96 1618.45,-96 1618.45,-54 1323.45,-54"/>
</g>
<!-- quest3 -->
<g id="node7" class="node">
<title>quest3</title>
<polyline fill="none" stroke="darkred" points="2376.45,-7.5 2432.45,-7.5"/>
<text text-anchor="start" x="2379.45" y="-15.3" font-family="Courier New" font-weight="bold" font-size="14.00">quest3</text>
<path fill="none" stroke="darkred" d="M2382.45,-4.5C2382.45,-4.5 2426.45,-4.5 2426.45,-4.5 2430.95,-4.5 2435.45,-9 2435.45,-13.5 2435.45,-13.5 2435.45,-22.5 2435.45,-22.5 2435.45,-27 2430.95,-31.5 2426.45,-31.5 2426.45,-31.5 2382.45,-31.5 2382.45,-31.5 2377.95,-31.5 2373.45,-27 2373.45,-22.5 2373.45,-22.5 2373.45,-13.5 2373.45,-13.5 2373.45,-9 2377.95,-4.5 2382.45,-4.5"/>
</g>
<!-- 0&#45;&gt;quest3 -->
<g id="edge5" class="edge">
<title>0&#45;&gt;quest3</title>
<path fill="none" stroke="black" d="M3837.93,-132.76C3831.5,-125.56 3823.01,-117.9 3813.45,-114 3768.44,-95.63 2097.64,-130.55 2063.45,-96 2050.32,-82.73 2050.94,-67.86 2063.45,-54 2082.59,-32.8 2264.81,-23.71 2354.74,-20.49"/>
<polygon fill="black" stroke="black" points="2354.62,-23.96 2364.5,-20.12 2354.38,-16.97 2354.62,-23.96"/>
<polygon fill="none" stroke="black" points="2066.45,-76 2066.45,-93 2379.45,-93 2379.45,-76 2066.45,-76"/>
<text text-anchor="start" x="2183.45" y="-83" font-family="Courier New" font-weight="bold" font-size="10.00" fill="orange">WAIT(,SIG_Q3)</text>
<polygon fill="none" stroke="black" points="2066.45,-57 2066.45,-74 2379.45,-74 2379.45,-57 2066.45,-57"/>
<text text-anchor="start" x="2069.45" y="-63" font-family="Courier New" font-size="10.00" fill="blue">ASSIGN(BPARM,S00_NEELP);ASSIGN(WPARM,S00_NEELP_Q3);</text>
<polygon fill="none" stroke="black" points="2063.45,-54 2063.45,-96 2382.45,-96 2382.45,-54 2063.45,-54"/>
</g>
<!-- quest3p -->
<g id="node8" class="node">
<title>quest3p</title>
<ellipse fill="none" stroke="black" cx="1744.45" cy="-18" rx="48.19" ry="18"/>
<text text-anchor="middle" x="1744.45" y="-14.3" font-family="Courier New" font-size="14.00">quest3p</text>
</g>
<!-- 0&#45;&gt;quest3p -->
<g id="edge6" class="edge">
<title>0&#45;&gt;quest3p</title>
<path fill="none" stroke="black" d="M3837.93,-132.76C3831.5,-125.55 3823.01,-117.89 3813.45,-114 3760.5,-92.44 1798.47,-133.65 1755.45,-96 1741.99,-84.22 1739.51,-64.02 1740.25,-47.27"/>
<polygon fill="black" stroke="black" points="1743.82,-47.63 1741.19,-37.36 1736.85,-47.03 1743.82,-47.63"/>
<polygon fill="none" stroke="black" points="1758.45,-76 1758.45,-93 2047.45,-93 2047.45,-76 1758.45,-76"/>
<text text-anchor="start" x="1860.45" y="-83" font-family="Courier New" font-weight="bold" font-size="10.00" fill="orange">WAIT(,SIG_Q3P)</text>
<polygon fill="none" stroke="black" points="1758.45,-57 1758.45,-74 2047.45,-74 2047.45,-57 1758.45,-57"/>
<text text-anchor="start" x="1761.45" y="-63" font-family="Courier New" font-size="10.00" fill="blue">ASSIGN(BPARM,S00_NEELP);ASSIGN(WPARM,NEELP_I3);</text>
<polygon fill="none" stroke="black" points="1755.45,-54 1755.45,-96 2050.45,-96 2050.45,-54 1755.45,-54"/>
</g>
<!-- quest4 -->
<g id="node9" class="node">
<title>quest4</title>
<polyline fill="none" stroke="darkred" points="2755.45,-7.5 2811.45,-7.5"/>
<text text-anchor="start" x="2758.45" y="-15.3" font-family="Courier New" font-weight="bold" font-size="14.00">quest4</text>
<path fill="none" stroke="darkred" d="M2761.45,-4.5C2761.45,-4.5 2805.45,-4.5 2805.45,-4.5 2809.95,-4.5 2814.45,-9 2814.45,-13.5 2814.45,-13.5 2814.45,-22.5 2814.45,-22.5 2814.45,-27 2809.95,-31.5 2805.45,-31.5 2805.45,-31.5 2761.45,-31.5 2761.45,-31.5 2756.95,-31.5 2752.45,-27 2752.45,-22.5 2752.45,-22.5 2752.45,-13.5 2752.45,-13.5 2752.45,-9 2756.95,-4.5 2761.45,-4.5"/>
</g>
<!-- 0&#45;&gt;quest4 -->
<g id="edge7" class="edge">
<title>0&#45;&gt;quest4</title>
<path fill="none" stroke="black" d="M3837.92,-132.78C3831.49,-125.58 3823,-117.92 3813.45,-114 3782.61,-101.33 2636.84,-119.75 2613.45,-96 2600.35,-82.7 2601.65,-68.47 2613.45,-54 2628.44,-35.6 2689.34,-26.6 2733.98,-22.39"/>
<polygon fill="black" stroke="black" points="2734,-25.81 2743.66,-21.44 2733.39,-18.84 2734,-25.81"/>
<polygon fill="none" stroke="black" points="2616.45,-76 2616.45,-93 2929.45,-93 2929.45,-76 2616.45,-76"/>
<text text-anchor="start" x="2733.45" y="-83" font-family="Courier New" font-weight="bold" font-size="10.00" fill="orange">WAIT(,SIG_Q4)</text>
<polygon fill="none" stroke="black" points="2616.45,-57 2616.45,-74 2929.45,-74 2929.45,-57 2616.45,-57"/>
<text text-anchor="start" x="2619.45" y="-63" font-family="Courier New" font-size="10.00" fill="blue">ASSIGN(BPARM,S24_RATHE);ASSIGN(WPARM,S24_RATHE_Q1);</text>
<polygon fill="none" stroke="black" points="2613.45,-54 2613.45,-96 2932.45,-96 2932.45,-54 2613.45,-54"/>
</g>
<!-- quest4p -->
<g id="node10" class="node">
<title>quest4p</title>
<polyline fill="none" stroke="darkred" points="3185.45,-7.5 3249.45,-7.5"/>
<text text-anchor="start" x="3188.45" y="-15.3" font-family="Courier New" font-weight="bold" font-size="14.00">quest4p</text>
<path fill="none" stroke="darkred" d="M3191.45,-4.5C3191.45,-4.5 3243.45,-4.5 3243.45,-4.5 3247.95,-4.5 3252.45,-9 3252.45,-13.5 3252.45,-13.5 3252.45,-22.5 3252.45,-22.5 3252.45,-27 3247.95,-31.5 3243.45,-31.5 3243.45,-31.5 3191.45,-31.5 3191.45,-31.5 3186.95,-31.5 3182.45,-27 3182.45,-22.5 3182.45,-22.5 3182.45,-13.5 3182.45,-13.5 3182.45,-9 3186.95,-4.5 3191.45,-4.5"/>
</g>
<!-- 0&#45;&gt;quest4p -->
<g id="edge8" class="edge">
<title>0&#45;&gt;quest4p</title>
<path fill="none" stroke="black" d="M3837.91,-132.82C3831.47,-125.63 3822.98,-117.97 3813.45,-114 3774.76,-97.9 3088.72,-125.98 3059.45,-96 3046.41,-82.64 3047.76,-68.56 3059.45,-54 3072.46,-37.79 3123.19,-28.63 3163.71,-23.78"/>
<polygon fill="black" stroke="black" points="3164.01,-27.16 3173.56,-22.55 3163.23,-20.2 3164.01,-27.16"/>
<polygon fill="none" stroke="black" points="3062.45,-76 3062.45,-93 3351.45,-93 3351.45,-76 3062.45,-76"/>
<text text-anchor="start" x="3164.45" y="-83" font-family="Courier New" font-weight="bold" font-size="10.00" fill="orange">WAIT(,SIG_Q4P)</text>
<polygon fill="none" stroke="black" points="3062.45,-57 3062.45,-74 3351.45,-74 3351.45,-57 3062.45,-57"/>
<text text-anchor="start" x="3065.45" y="-63" font-family="Courier New" font-size="10.00" fill="blue">ASSIGN(BPARM,S24_RATHE);ASSIGN(WPARM,RATHE_I1);</text>
<polygon fill="none" stroke="black" points="3059.45,-54 3059.45,-96 3354.45,-96 3354.45,-54 3059.45,-54"/>
</g>
<!-- quest5 -->
<g id="node11" class="node">
<title>quest5</title>
<polyline fill="none" stroke="darkred" points="3611.45,-7.5 3667.45,-7.5"/>
<text text-anchor="start" x="3614.45" y="-15.3" font-family="Courier New" font-weight="bold" font-size="14.00">quest5</text>
<path fill="none" stroke="darkred" d="M3617.45,-4.5C3617.45,-4.5 3661.45,-4.5 3661.45,-4.5 3665.95,-4.5 3670.45,-9 3670.45,-13.5 3670.45,-13.5 3670.45,-22.5 3670.45,-22.5 3670.45,-27 3665.95,-31.5 3661.45,-31.5 3661.45,-31.5 3617.45,-31.5 3617.45,-31.5 3612.95,-31.5 3608.45,-27 3608.45,-22.5 3608.45,-22.5 3608.45,-13.5 3608.45,-13.5 3608.45,-9 3612.95,-4.5 3617.45,-4.5"/>
</g>
<!-- 0&#45;&gt;quest5 -->
<g id="edge9" class="edge">
<title>0&#45;&gt;quest5</title>
<path fill="none" stroke="black" d="M3837.52,-132.58C3831.11,-125.52 3822.76,-118.04 3813.45,-114 3779.56,-99.29 3506.85,-122.82 3481.45,-96 3468.61,-82.45 3469.76,-68.56 3481.45,-54 3494.93,-37.21 3548.92,-27.97 3590.07,-23.27"/>
<polygon fill="black" stroke="black" points="3590.19,-26.67 3599.76,-22.12 3589.44,-19.71 3590.19,-26.67"/>
<polygon fill="none" stroke="black" points="3484.45,-76 3484.45,-93 3773.45,-93 3773.45,-76 3484.45,-76"/>
<text text-anchor="start" x="3589.45" y="-83" font-family="Courier New" font-weight="bold" font-size="10.00" fill="orange">WAIT(,SIG_Q5)</text>
<polygon fill="none" stroke="black" points="3484.45,-57 3484.45,-74 3773.45,-74 3773.45,-57 3484.45,-57"/>
<text text-anchor="start" x="3487.45" y="-63" font-family="Courier New" font-size="10.00" fill="blue">ASSIGN(BPARM,S24_RATHE);ASSIGN(WPARM,RATHE_Q2);</text>
<polygon fill="none" stroke="black" points="3481.45,-54 3481.45,-96 3776.45,-96 3776.45,-54 3481.45,-54"/>
</g>
<!-- quest5p -->
<g id="node12" class="node">
<title>quest5p</title>
<polyline fill="none" stroke="darkred" points="4029.45,-7.5 4093.45,-7.5"/>
<text text-anchor="start" x="4032.45" y="-15.3" font-family="Courier New" font-weight="bold" font-size="14.00">quest5p</text>
<path fill="none" stroke="darkred" d="M4035.45,-4.5C4035.45,-4.5 4087.45,-4.5 4087.45,-4.5 4091.95,-4.5 4096.45,-9 4096.45,-13.5 4096.45,-13.5 4096.45,-22.5 4096.45,-22.5 4096.45,-27 4091.95,-31.5 4087.45,-31.5 4087.45,-31.5 4035.45,-31.5 4035.45,-31.5 4030.95,-31.5 4026.45,-27 4026.45,-22.5 4026.45,-22.5 4026.45,-13.5 4026.45,-13.5 4026.45,-9 4030.95,-4.5 4035.45,-4.5"/>
</g>
<!-- 0&#45;&gt;quest5p -->
<g id="edge10" class="edge">
<title>0&#45;&gt;quest5p</title>
<path fill="none" stroke="black" d="M3859.95,-132.66C3865.87,-122.13 3873.63,-108.29 3880.45,-96 3890.76,-77.38 3886.43,-66.78 3903.45,-54 3933.32,-31.57 3974.79,-23 4007.75,-19.94"/>
<polygon fill="black" stroke="black" points="4007.87,-23.37 4017.57,-19.1 4007.33,-16.39 4007.87,-23.37"/>
<polygon fill="none" stroke="black" points="3906.45,-76 3906.45,-93 4195.45,-93 4195.45,-76 3906.45,-76"/>
<text text-anchor="start" x="4008.45" y="-83" font-family="Courier New" font-weight="bold" font-size="10.00" fill="orange">WAIT(,SIG_Q5P)</text>
<polygon fill="none" stroke="black" points="3906.45,-57 3906.45,-74 4195.45,-74 4195.45,-57 3906.45,-57"/>
<text text-anchor="start" x="3909.45" y="-63" font-family="Courier New" font-size="10.00" fill="blue">ASSIGN(BPARM,S24_RATHE);ASSIGN(WPARM,RATHE_I2);</text>
<polygon fill="none" stroke="black" points="3903.45,-54 3903.45,-96 4198.45,-96 4198.45,-54 3903.45,-54"/>
</g>
<!-- quest6 -->
<g id="node13" class="node">
<title>quest6</title>
<polyline fill="none" stroke="darkred" points="4467.45,-7.5 4523.45,-7.5"/>
<text text-anchor="start" x="4470.45" y="-15.3" font-family="Courier New" font-weight="bold" font-size="14.00">quest6</text>
<path fill="none" stroke="darkred" d="M4473.45,-4.5C4473.45,-4.5 4517.45,-4.5 4517.45,-4.5 4521.95,-4.5 4526.45,-9 4526.45,-13.5 4526.45,-13.5 4526.45,-22.5 4526.45,-22.5 4526.45,-27 4521.95,-31.5 4517.45,-31.5 4517.45,-31.5 4473.45,-31.5 4473.45,-31.5 4468.95,-31.5 4464.45,-27 4464.45,-22.5 4464.45,-22.5 4464.45,-13.5 4464.45,-13.5 4464.45,-9 4468.95,-4.5 4473.45,-4.5"/>
</g>
<!-- 0&#45;&gt;quest6 -->
<g id="edge11" class="edge">
<title>0&#45;&gt;quest6</title>
<path fill="none" stroke="black" d="M3862.92,-132.54C3869.13,-125.48 3877.27,-118 3886.45,-114 3969.43,-77.8 4213.23,-137.96 4293.45,-96 4314.24,-85.12 4305.58,-66.49 4325.45,-54 4361.62,-31.25 4409.89,-22.96 4445.75,-20.1"/>
<polygon fill="black" stroke="black" points="4445.72,-23.54 4455.46,-19.37 4445.24,-16.56 4445.72,-23.54"/>
<polygon fill="none" stroke="black" points="4328.45,-76 4328.45,-93 4641.45,-93 4641.45,-76 4328.45,-76"/>
<text text-anchor="start" x="4445.45" y="-83" font-family="Courier New" font-weight="bold" font-size="10.00" fill="orange">WAIT(,SIG_Q6)</text>
<polygon fill="none" stroke="black" points="4328.45,-57 4328.45,-74 4641.45,-74 4641.45,-57 4328.45,-57"/>
<text text-anchor="start" x="4331.45" y="-63" font-family="Courier New" font-size="10.00" fill="blue">ASSIGN(BPARM,S10_THAOR);ASSIGN(WPARM,S10_THAOR_Q1);</text>
<polygon fill="none" stroke="black" points="4325.45,-54 4325.45,-96 4644.45,-96 4644.45,-54 4325.45,-54"/>
</g>
<!-- quest6p -->
<g id="node14" class="node">
<title>quest6p</title>
<polyline fill="none" stroke="darkred" points="4897.45,-7.5 4961.45,-7.5"/>
<text text-anchor="start" x="4900.45" y="-15.3" font-family="Courier New" font-weight="bold" font-size="14.00">quest6p</text>
<path fill="none" stroke="darkred" d="M4903.45,-4.5C4903.45,-4.5 4955.45,-4.5 4955.45,-4.5 4959.95,-4.5 4964.45,-9 4964.45,-13.5 4964.45,-13.5 4964.45,-22.5 4964.45,-22.5 4964.45,-27 4959.95,-31.5 4955.45,-31.5 4955.45,-31.5 4903.45,-31.5 4903.45,-31.5 4898.95,-31.5 4894.45,-27 4894.45,-22.5 4894.45,-22.5 4894.45,-13.5 4894.45,-13.5 4894.45,-9 4898.95,-4.5 4903.45,-4.5"/>
</g>
<!-- 0&#45;&gt;quest6p -->
<g id="edge12" class="edge">
<title>0&#45;&gt;quest6p</title>
<path fill="none" stroke="black" d="M3862.56,-132.82C3868.8,-125.62 3877.07,-117.96 3886.45,-114 3973.77,-77.11 4654.94,-138.97 4739.45,-96 4760.36,-85.36 4751.67,-66.64 4771.45,-54 4802.6,-34.08 4843.49,-25.39 4875.86,-21.65"/>
<polygon fill="black" stroke="black" points="4875.9,-25.06 4885.49,-20.56 4875.18,-18.1 4875.9,-25.06"/>
<polygon fill="none" stroke="black" points="4774.45,-76 4774.45,-93 5063.45,-93 5063.45,-76 4774.45,-76"/>
<text text-anchor="start" x="4876.45" y="-83" font-family="Courier New" font-weight="bold" font-size="10.00" fill="orange">WAIT(,SIG_Q6P)</text>
<polygon fill="none" stroke="black" points="4774.45,-57 4774.45,-74 5063.45,-74 5063.45,-57 4774.45,-57"/>
<text text-anchor="start" x="4777.45" y="-63" font-family="Courier New" font-size="10.00" fill="blue">ASSIGN(BPARM,S10_THAOR);ASSIGN(WPARM,THAOR_I1);</text>
<polygon fill="none" stroke="black" points="4771.45,-54 4771.45,-96 5066.45,-96 5066.45,-54 4771.45,-54"/>
</g>
<!-- quest7 -->
<g id="node15" class="node">
<title>quest7</title>
<polyline fill="none" stroke="darkred" points="5323.45,-7.5 5379.45,-7.5"/>
<text text-anchor="start" x="5326.45" y="-15.3" font-family="Courier New" font-weight="bold" font-size="14.00">quest7</text>
<path fill="none" stroke="darkred" d="M5329.45,-4.5C5329.45,-4.5 5373.45,-4.5 5373.45,-4.5 5377.95,-4.5 5382.45,-9 5382.45,-13.5 5382.45,-13.5 5382.45,-22.5 5382.45,-22.5 5382.45,-27 5377.95,-31.5 5373.45,-31.5 5373.45,-31.5 5329.45,-31.5 5329.45,-31.5 5324.95,-31.5 5320.45,-27 5320.45,-22.5 5320.45,-22.5 5320.45,-13.5 5320.45,-13.5 5320.45,-9 5324.95,-4.5 5329.45,-4.5"/>
</g>
<!-- 0&#45;&gt;quest7 -->
<g id="edge13" class="edge">
<title>0&#45;&gt;quest7</title>
<path fill="none" stroke="black" d="M3862.54,-132.79C3868.78,-125.59 3877.05,-117.93 3886.45,-114 3951.8,-86.66 5098.19,-127.89 5161.45,-96 5182.4,-85.44 5173.67,-66.64 5193.45,-54 5225.88,-33.26 5268.85,-24.7 5301.8,-21.22"/>
<polygon fill="black" stroke="black" points="5301.92,-24.63 5311.55,-20.22 5301.27,-17.66 5301.92,-24.63"/>
<polygon fill="none" stroke="black" points="5196.45,-76 5196.45,-93 5485.45,-93 5485.45,-76 5196.45,-76"/>
<text text-anchor="start" x="5301.45" y="-83" font-family="Courier New" font-weight="bold" font-size="10.00" fill="orange">WAIT(,SIG_Q7)</text>
<polygon fill="none" stroke="black" points="5196.45,-57 5196.45,-74 5485.45,-74 5485.45,-57 5196.45,-57"/>
<text text-anchor="start" x="5199.45" y="-63" font-family="Courier New" font-size="10.00" fill="blue">ASSIGN(BPARM,S10_THAOR);ASSIGN(WPARM,THAOR_Q2);</text>
<polygon fill="none" stroke="black" points="5193.45,-54 5193.45,-96 5488.45,-96 5488.45,-54 5193.45,-54"/>
</g>
<!-- quest7p -->
<g id="node16" class="node">
<title>quest7p</title>
<polyline fill="none" stroke="darkred" points="5741.45,-7.5 5805.45,-7.5"/>
<text text-anchor="start" x="5744.45" y="-15.3" font-family="Courier New" font-weight="bold" font-size="14.00">quest7p</text>
<path fill="none" stroke="darkred" d="M5747.45,-4.5C5747.45,-4.5 5799.45,-4.5 5799.45,-4.5 5803.95,-4.5 5808.45,-9 5808.45,-13.5 5808.45,-13.5 5808.45,-22.5 5808.45,-22.5 5808.45,-27 5803.95,-31.5 5799.45,-31.5 5799.45,-31.5 5747.45,-31.5 5747.45,-31.5 5742.95,-31.5 5738.45,-27 5738.45,-22.5 5738.45,-22.5 5738.45,-13.5 5738.45,-13.5 5738.45,-9 5742.95,-4.5 5747.45,-4.5"/>
</g>
<!-- 0&#45;&gt;quest7p -->
<g id="edge14" class="edge">
<title>0&#45;&gt;quest7p</title>
<path fill="none" stroke="black" d="M3862.54,-132.77C3868.77,-125.57 3877.05,-117.91 3886.45,-114 3973.49,-77.76 5499.18,-138.29 5583.45,-96 5604.42,-85.47 5595.67,-66.64 5615.45,-54 5646.6,-34.08 5687.49,-25.39 5719.86,-21.65"/>
<polygon fill="black" stroke="black" points="5719.9,-25.06 5729.49,-20.56 5719.18,-18.1 5719.9,-25.06"/>
<polygon fill="none" stroke="black" points="5618.45,-76 5618.45,-93 5907.45,-93 5907.45,-76 5618.45,-76"/>
<text text-anchor="start" x="5720.45" y="-83" font-family="Courier New" font-weight="bold" font-size="10.00" fill="orange">WAIT(,SIG_Q7P)</text>
<polygon fill="none" stroke="black" points="5618.45,-57 5618.45,-74 5907.45,-74 5907.45,-57 5618.45,-57"/>
<text text-anchor="start" x="5621.45" y="-63" font-family="Courier New" font-size="10.00" fill="blue">ASSIGN(BPARM,S10_THAOR);ASSIGN(WPARM,THAOR_I2);</text>
<polygon fill="none" stroke="black" points="5615.45,-54 5615.45,-96 5910.45,-96 5910.45,-54 5615.45,-54"/>
</g>
<!-- quest8 -->
<g id="node17" class="node">
<title>quest8</title>
<polyline fill="none" stroke="darkred" points="6179.45,-7.5 6235.45,-7.5"/>
<text text-anchor="start" x="6182.45" y="-15.3" font-family="Courier New" font-weight="bold" font-size="14.00">quest8</text>
<path fill="none" stroke="darkred" d="M6185.45,-4.5C6185.45,-4.5 6229.45,-4.5 6229.45,-4.5 6233.95,-4.5 6238.45,-9 6238.45,-13.5 6238.45,-13.5 6238.45,-22.5 6238.45,-22.5 6238.45,-27 6233.95,-31.5 6229.45,-31.5 6229.45,-31.5 6185.45,-31.5 6185.45,-31.5 6180.95,-31.5 6176.45,-27 6176.45,-22.5 6176.45,-22.5 6176.45,-13.5 6176.45,-13.5 6176.45,-9 6180.95,-4.5 6185.45,-4.5"/>
</g>
<!-- 0&#45;&gt;quest8 -->
<g id="edge15" class="edge">
<title>0&#45;&gt;quest8</title>
<path fill="none" stroke="black" d="M3862.53,-132.76C3868.77,-125.56 3877.04,-117.9 3886.45,-114 3940.81,-91.43 5952.81,-122.35 6005.45,-96 6026.43,-85.5 6017.58,-66.49 6037.45,-54 6073.62,-31.25 6121.89,-22.96 6157.75,-20.1"/>
<polygon fill="black" stroke="black" points="6157.72,-23.54 6167.46,-19.37 6157.24,-16.56 6157.72,-23.54"/>
<polygon fill="none" stroke="black" points="6040.45,-76 6040.45,-93 6353.45,-93 6353.45,-76 6040.45,-76"/>
<text text-anchor="start" x="6157.45" y="-83" font-family="Courier New" font-weight="bold" font-size="10.00" fill="orange">WAIT(,SIG_Q8)</text>
<polygon fill="none" stroke="black" points="6040.45,-57 6040.45,-74 6353.45,-74 6353.45,-57 6040.45,-57"/>
<text text-anchor="start" x="6043.45" y="-63" font-family="Courier New" font-size="10.00" fill="blue">ASSIGN(BPARM,S16_PERST);ASSIGN(WPARM,S16_PERST_Q1);</text>
<polygon fill="none" stroke="black" points="6037.45,-54 6037.45,-96 6356.45,-96 6356.45,-54 6037.45,-54"/>
</g>
<!-- quest8p -->
<g id="node18" class="node">
<title>quest8p</title>
<polyline fill="none" stroke="darkred" points="6609.45,-7.5 6673.45,-7.5"/>
<text text-anchor="start" x="6612.45" y="-15.3" font-family="Courier New" font-weight="bold" font-size="14.00">quest8p</text>
<path fill="none" stroke="darkred" d="M6615.45,-4.5C6615.45,-4.5 6667.45,-4.5 6667.45,-4.5 6671.95,-4.5 6676.45,-9 6676.45,-13.5 6676.45,-13.5 6676.45,-22.5 6676.45,-22.5 6676.45,-27 6671.95,-31.5 6667.45,-31.5 6667.45,-31.5 6615.45,-31.5 6615.45,-31.5 6610.95,-31.5 6606.45,-27 6606.45,-22.5 6606.45,-22.5 6606.45,-13.5 6606.45,-13.5 6606.45,-9 6610.95,-4.5 6615.45,-4.5"/>
</g>
<!-- 0&#45;&gt;quest8p -->
<g id="edge16" class="edge">
<title>0&#45;&gt;quest8p</title>
<path fill="none" stroke="black" d="M3862.53,-132.76C3868.77,-125.55 3877.04,-117.9 3886.45,-114 3952.27,-86.73 6387.71,-127.85 6451.45,-96 6472.44,-85.51 6463.67,-66.64 6483.45,-54 6514.6,-34.08 6555.49,-25.39 6587.86,-21.65"/>
<polygon fill="black" stroke="black" points="6587.9,-25.06 6597.49,-20.56 6587.18,-18.1 6587.9,-25.06"/>
<polygon fill="none" stroke="black" points="6486.45,-76 6486.45,-93 6775.45,-93 6775.45,-76 6486.45,-76"/>
<text text-anchor="start" x="6588.45" y="-83" font-family="Courier New" font-weight="bold" font-size="10.00" fill="orange">WAIT(,SIG_Q8P)</text>
<polygon fill="none" stroke="black" points="6486.45,-57 6486.45,-74 6775.45,-74 6775.45,-57 6486.45,-57"/>
<text text-anchor="start" x="6489.45" y="-63" font-family="Courier New" font-size="10.00" fill="blue">ASSIGN(BPARM,S16_PERST);ASSIGN(WPARM,PERST_I1);</text>
<polygon fill="none" stroke="black" points="6483.45,-54 6483.45,-96 6778.45,-96 6778.45,-54 6483.45,-54"/>
</g>
<!-- quest9 -->
<g id="node19" class="node">
<title>quest9</title>
<polyline fill="none" stroke="darkred" points="7035.45,-7.5 7091.45,-7.5"/>
<text text-anchor="start" x="7038.45" y="-15.3" font-family="Courier New" font-weight="bold" font-size="14.00">quest9</text>
<path fill="none" stroke="darkred" d="M7041.45,-4.5C7041.45,-4.5 7085.45,-4.5 7085.45,-4.5 7089.95,-4.5 7094.45,-9 7094.45,-13.5 7094.45,-13.5 7094.45,-22.5 7094.45,-22.5 7094.45,-27 7089.95,-31.5 7085.45,-31.5 7085.45,-31.5 7041.45,-31.5 7041.45,-31.5 7036.95,-31.5 7032.45,-27 7032.45,-22.5 7032.45,-22.5 7032.45,-13.5 7032.45,-13.5 7032.45,-9 7036.95,-4.5 7041.45,-4.5"/>
</g>
<!-- 0&#45;&gt;quest9 -->
<g id="edge17" class="edge">
<title>0&#45;&gt;quest9</title>
<path fill="none" stroke="black" d="M3862.53,-132.75C3868.76,-125.55 3877.04,-117.89 3886.45,-114 3963.12,-82.28 6799.2,-133.05 6873.45,-96 6894.44,-85.52 6885.67,-66.64 6905.45,-54 6937.88,-33.26 6980.85,-24.7 7013.8,-21.22"/>
<polygon fill="black" stroke="black" points="7013.92,-24.63 7023.55,-20.22 7013.27,-17.66 7013.92,-24.63"/>
<polygon fill="none" stroke="black" points="6908.45,-76 6908.45,-93 7197.45,-93 7197.45,-76 6908.45,-76"/>
<text text-anchor="start" x="7013.45" y="-83" font-family="Courier New" font-weight="bold" font-size="10.00" fill="orange">WAIT(,SIG_Q9)</text>
<polygon fill="none" stroke="black" points="6908.45,-57 6908.45,-74 7197.45,-74 7197.45,-57 6908.45,-57"/>
<text text-anchor="start" x="6911.45" y="-63" font-family="Courier New" font-size="10.00" fill="blue">ASSIGN(BPARM,S16_PERST);ASSIGN(WPARM,PERST_Q2);</text>
<polygon fill="none" stroke="black" points="6905.45,-54 6905.45,-96 7200.45,-96 7200.45,-54 6905.45,-54"/>
</g>
<!-- quest9p -->
<g id="node20" class="node">
<title>quest9p</title>
<polyline fill="none" stroke="darkred" points="7453.45,-7.5 7517.45,-7.5"/>
<text text-anchor="start" x="7456.45" y="-15.3" font-family="Courier New" font-weight="bold" font-size="14.00">quest9p</text>
<path fill="none" stroke="darkred" d="M7459.45,-4.5C7459.45,-4.5 7511.45,-4.5 7511.45,-4.5 7515.95,-4.5 7520.45,-9 7520.45,-13.5 7520.45,-13.5 7520.45,-22.5 7520.45,-22.5 7520.45,-27 7515.95,-31.5 7511.45,-31.5 7511.45,-31.5 7459.45,-31.5 7459.45,-31.5 7454.95,-31.5 7450.45,-27 7450.45,-22.5 7450.45,-22.5 7450.45,-13.5 7450.45,-13.5 7450.45,-9 7454.95,-4.5 7459.45,-4.5"/>
</g>
<!-- 0&#45;&gt;quest9p -->
<g id="edge18" class="edge">
<title>0&#45;&gt;quest9p</title>
<path fill="none" stroke="black" d="M3862.53,-132.75C3868.76,-125.54 3877.04,-117.89 3886.45,-114 3973.97,-77.84 7210.7,-138.25 7295.45,-96 7316.45,-85.53 7307.67,-66.64 7327.45,-54 7358.6,-34.08 7399.49,-25.39 7431.86,-21.65"/>
<polygon fill="black" stroke="black" points="7431.9,-25.06 7441.49,-20.56 7431.18,-18.1 7431.9,-25.06"/>
<polygon fill="none" stroke="black" points="7330.45,-76 7330.45,-93 7619.45,-93 7619.45,-76 7330.45,-76"/>
<text text-anchor="start" x="7432.45" y="-83" font-family="Courier New" font-weight="bold" font-size="10.00" fill="orange">WAIT(,SIG_Q9P)</text>
<polygon fill="none" stroke="black" points="7330.45,-57 7330.45,-74 7619.45,-74 7619.45,-57 7330.45,-57"/>
<text text-anchor="start" x="7333.45" y="-63" font-family="Courier New" font-size="10.00" fill="blue">ASSIGN(BPARM,S16_PERST);ASSIGN(WPARM,PERST_I2);</text>
<polygon fill="none" stroke="black" points="7327.45,-54 7327.45,-96 7622.45,-96 7622.45,-54 7327.45,-54"/>
</g>
<!-- quest1&#45;&gt;0 -->
<g id="edge19" class="edge">
<title>quest1&#45;&gt;0</title>
<path fill="none" stroke="black" d="M218.28,-21.07C250.07,-24.35 295.07,-32.71 328.45,-54 348.46,-66.77 340.12,-85.57 361.45,-96 447.58,-138.14 3724.57,-77.99 3813.45,-114 3819.58,-116.48 3825.27,-120.52 3830.25,-124.99"/>
<polygon fill="black" stroke="black" points="3827.41,-127.1 3836.94,-131.74 3832.38,-122.18 3827.41,-127.1"/>
<text text-anchor="start" x="365.45" y="-73.5" font-family="Courier New" font-weight="bold" font-size="10.00" fill="blue">Z_EPSILON(,)</text>
</g>
<!-- quest1p&#45;&gt;0 -->
<g id="edge20" class="edge">
<title>quest1p&#45;&gt;0</title>
<path fill="none" stroke="black" d="M656.16,-22.71C684.74,-26.84 722.17,-35.57 750.45,-54 770.34,-66.96 762.13,-85.56 783.45,-96 859.04,-133.02 3735.45,-82.36 3813.45,-114 3819.58,-116.49 3825.27,-120.52 3830.25,-124.99"/>
<polygon fill="black" stroke="black" points="3827.41,-127.11 3836.94,-131.74 3832.38,-122.18 3827.41,-127.11"/>
<text text-anchor="start" x="787.45" y="-73.5" font-family="Courier New" font-weight="bold" font-size="10.00" fill="blue">Z_EPSILON(,)</text>
</g>
<!-- quest2&#45;&gt;0 -->
<g id="edge21" class="edge">
<title>quest2&#45;&gt;0</title>
<path fill="none" stroke="black" d="M1086.28,-21.07C1118.07,-24.35 1163.07,-32.71 1196.45,-54 1216.46,-66.77 1208.13,-85.55 1229.45,-96 1293.89,-127.6 3746.94,-86.99 3813.45,-114 3819.58,-116.49 3825.26,-120.53 3830.25,-125"/>
<polygon fill="black" stroke="black" points="3827.41,-127.11 3836.94,-131.75 3832.38,-122.18 3827.41,-127.11"/>
<text text-anchor="start" x="1233.45" y="-73.5" font-family="Courier New" font-weight="bold" font-size="10.00" fill="blue">Z_EPSILON(,)</text>
</g>
<!-- quest2p&#45;&gt;0 -->
<g id="edge22" class="edge">
<title>quest2p&#45;&gt;0</title>
<path fill="none" stroke="black" d="M1521.44,-23C1550.54,-27.26 1588.91,-36.02 1618.45,-54 1639.7,-66.93 1632.82,-85.66 1655.45,-96 1764.5,-145.81 3702.4,-68.8 3813.45,-114 3819.57,-116.49 3825.26,-120.53 3830.25,-125.01"/>
<polygon fill="black" stroke="black" points="3827.41,-127.12 3836.93,-131.75 3832.38,-122.19 3827.41,-127.12"/>
<text text-anchor="start" x="1659.45" y="-73.5" font-family="Courier New" font-weight="bold" font-size="10.00" fill="blue">Z_EPSILON(,)</text>
</g>
<!-- quest3&#45;&gt;0 -->
<g id="edge23" class="edge">
<title>quest3&#45;&gt;0</title>
<path fill="none" stroke="black" d="M2398.73,-35.68C2393.89,-53.26 2389.94,-80.5 2405.45,-96 2433.11,-123.66 3777.25,-99.17 3813.45,-114 3819.57,-116.51 3825.25,-120.55 3830.24,-125.03"/>
<polygon fill="black" stroke="black" points="3827.4,-127.14 3836.93,-131.77 3832.37,-122.21 3827.4,-127.14"/>
<text text-anchor="start" x="2409.45" y="-73.5" font-family="Courier New" font-weight="bold" font-size="10.00" fill="blue">Z_EPSILON(,)</text>
</g>
<!-- quest3&#45;&gt;0 -->
<g id="edge24" class="edge">
<title>quest3&#45;&gt;0</title>
<path fill="none" stroke="black" d="M2443.33,-31C2457.74,-36.59 2473.67,-44.21 2486.45,-54 2505.29,-68.44 2498.17,-85.47 2519.45,-96 2583.89,-127.88 3746.93,-86.71 3813.45,-114 3819.57,-116.51 3825.25,-120.56 3830.24,-125.03"/>
<polygon fill="black" stroke="black" points="3827.4,-127.14 3836.92,-131.78 3832.37,-122.21 3827.4,-127.14"/>
<text text-anchor="start" x="2523.45" y="-73.5" font-family="Courier New" font-weight="bold" font-size="10.00" fill="blue">Z_EPSILON(,)</text>
</g>
<!-- quest4&#45;&gt;0 -->
<g id="edge25" class="edge">
<title>quest4&#45;&gt;0</title>
<path fill="none" stroke="black" d="M2822.28,-21.07C2854.07,-24.35 2899.07,-32.71 2932.45,-54 2952.46,-66.77 2944.21,-85.4 2965.45,-96 3049.77,-138.09 3726.39,-77.91 3813.45,-114 3819.56,-116.53 3825.24,-120.59 3830.22,-125.07"/>
<polygon fill="black" stroke="black" points="3827.38,-127.18 3836.91,-131.81 3832.35,-122.25 3827.38,-127.18"/>
<text text-anchor="start" x="2969.45" y="-73.5" font-family="Courier New" font-weight="bold" font-size="10.00" fill="blue">Z_EPSILON(,)</text>
</g>
<!-- quest4p&#45;&gt;0 -->
<g id="edge26" class="edge">
<title>quest4p&#45;&gt;0</title>
<path fill="none" stroke="black" d="M3260.16,-22.71C3288.74,-26.84 3326.17,-35.57 3354.45,-54 3374.34,-66.96 3366.32,-85.17 3387.45,-96 3471.77,-139.21 3726.3,-76.8 3813.45,-114 3819.43,-116.55 3825,-120.54 3829.93,-124.93"/>
<polygon fill="black" stroke="black" points="3826.99,-126.94 3836.54,-131.53 3831.93,-121.99 3826.99,-126.94"/>
<text text-anchor="start" x="3391.45" y="-73.5" font-family="Courier New" font-weight="bold" font-size="10.00" fill="blue">Z_EPSILON(,)</text>
</g>
<!-- quest5&#45;&gt;0 -->
<g id="edge27" class="edge">
<title>quest5&#45;&gt;0</title>
<path fill="none" stroke="black" d="M3678.38,-20.07C3708.29,-22.82 3748.99,-30.96 3776.45,-54 3792.14,-67.17 3783.68,-79.23 3795.45,-96 3796.7,-97.79 3811.13,-111.8 3824.89,-125.04"/>
<polygon fill="black" stroke="black" points="3822.17,-127.24 3831.81,-131.65 3827.02,-122.19 3822.17,-127.24"/>
<text text-anchor="start" x="3799.45" y="-73.5" font-family="Courier New" font-weight="bold" font-size="10.00" fill="blue">Z_EPSILON(,)</text>
</g>
<!-- quest5p&#45;&gt;0 -->
<g id="edge28" class="edge">
<title>quest5p&#45;&gt;0</title>
<path fill="none" stroke="black" d="M4104.19,-24.18C4139.94,-29.5 4186.89,-39.12 4198.45,-54 4209.9,-68.74 4211.26,-82.43 4198.45,-96 4174.61,-121.25 3918.18,-99.9 3886.45,-114 3880.59,-116.6 3875.14,-120.61 3870.35,-125.01"/>
<polygon fill="black" stroke="black" points="3868.42,-122 3863.95,-131.6 3873.43,-126.88 3868.42,-122"/>
<text text-anchor="start" x="4212.45" y="-73.5" font-family="Courier New" font-weight="bold" font-size="10.00" fill="blue">Z_EPSILON(,)</text>
</g>
<!-- quest6&#45;&gt;0 -->
<g id="edge29" class="edge">
<title>quest6&#45;&gt;0</title>
<path fill="none" stroke="black" d="M4534.1,-22.69C4573.57,-27.36 4630.92,-36.92 4644.45,-54 4656.04,-68.63 4657.49,-82.64 4644.45,-96 4615.02,-126.14 3925.23,-97.55 3886.45,-114 3880.44,-116.55 3874.89,-120.61 3870.03,-125.09"/>
<polygon fill="black" stroke="black" points="3867.99,-122.2 3863.56,-131.83 3873.02,-127.06 3867.99,-122.2"/>
<text text-anchor="start" x="4658.45" y="-73.5" font-family="Courier New" font-weight="bold" font-size="10.00" fill="blue">Z_EPSILON(,)</text>
</g>
<!-- quest6p&#45;&gt;0 -->
<g id="edge30" class="edge">
<title>quest6p&#45;&gt;0</title>
<path fill="none" stroke="black" d="M4972.19,-24.18C5007.94,-29.5 5054.89,-39.12 5066.45,-54 5077.9,-68.74 5079.54,-82.7 5066.45,-96 5043.44,-119.36 3916.68,-101.33 3886.45,-114 3880.43,-116.52 3874.87,-120.57 3870.02,-125.05"/>
<polygon fill="black" stroke="black" points="3867.97,-122.17 3863.54,-131.79 3873.01,-127.03 3867.97,-122.17"/>
<text text-anchor="start" x="5080.45" y="-73.5" font-family="Courier New" font-weight="bold" font-size="10.00" fill="blue">Z_EPSILON(,)</text>
</g>
<!-- quest7&#45;&gt;0 -->
<g id="edge31" class="edge">
<title>quest7&#45;&gt;0</title>
<path fill="none" stroke="black" d="M5390.39,-23.63C5426.53,-28.82 5476.48,-38.59 5488.45,-54 5499.9,-68.74 5501.57,-82.73 5488.45,-96 5457.16,-127.64 3927.53,-96.88 3886.45,-114 3880.43,-116.51 3874.87,-120.55 3870.01,-125.03"/>
<polygon fill="black" stroke="black" points="3867.96,-122.15 3863.54,-131.78 3873,-127.01 3867.96,-122.15"/>
<text text-anchor="start" x="5502.45" y="-73.5" font-family="Courier New" font-weight="bold" font-size="10.00" fill="blue">Z_EPSILON(,)</text>
</g>
<!-- quest7p&#45;&gt;0 -->
<g id="edge32" class="edge">
<title>quest7p&#45;&gt;0</title>
<path fill="none" stroke="black" d="M5816.19,-24.18C5851.94,-29.5 5898.89,-39.12 5910.45,-54 5921.9,-68.74 5923.59,-82.74 5910.45,-96 5870.87,-135.93 3938.37,-92.43 3886.45,-114 3880.42,-116.5 3874.86,-120.54 3870,-125.02"/>
<polygon fill="black" stroke="black" points="3867.96,-122.14 3863.53,-131.77 3872.99,-127 3867.96,-122.14"/>
<text text-anchor="start" x="5924.45" y="-73.5" font-family="Courier New" font-weight="bold" font-size="10.00" fill="blue">Z_EPSILON(,)</text>
</g>
<!-- quest8&#45;&gt;0 -->
<g id="edge33" class="edge">
<title>quest8&#45;&gt;0</title>
<path fill="none" stroke="black" d="M6246.1,-22.69C6285.57,-27.36 6342.92,-36.92 6356.45,-54 6368.04,-68.63 6369.6,-82.75 6356.45,-96 6332.28,-120.35 3918.14,-100.87 3886.45,-114 3880.42,-116.5 3874.86,-120.54 3870,-125.01"/>
<polygon fill="black" stroke="black" points="3867.95,-122.13 3863.53,-131.76 3872.99,-126.99 3867.95,-122.13"/>
<text text-anchor="start" x="6370.45" y="-73.5" font-family="Courier New" font-weight="bold" font-size="10.00" fill="blue">Z_EPSILON(,)</text>
</g>
<!-- quest8p&#45;&gt;0 -->
<g id="edge34" class="edge">
<title>quest8p&#45;&gt;0</title>
<path fill="none" stroke="black" d="M6684.19,-24.18C6719.94,-29.5 6766.89,-39.12 6778.45,-54 6789.9,-68.74 6791.6,-82.76 6778.45,-96 6750.13,-124.49 3923.56,-98.64 3886.45,-114 3880.42,-116.49 3874.86,-120.53 3870,-125.01"/>
<polygon fill="black" stroke="black" points="3867.95,-122.13 3863.53,-131.75 3872.99,-126.98 3867.95,-122.13"/>
<text text-anchor="start" x="6792.45" y="-73.5" font-family="Courier New" font-weight="bold" font-size="10.00" fill="blue">Z_EPSILON(,)</text>
</g>
<!-- quest9&#45;&gt;0 -->
<g id="edge35" class="edge">
<title>quest9&#45;&gt;0</title>
<path fill="none" stroke="black" d="M7102.39,-23.63C7138.53,-28.82 7188.48,-38.59 7200.45,-54 7211.9,-68.74 7213.61,-82.76 7200.45,-96 7167.99,-128.64 3928.99,-96.42 3886.45,-114 3880.42,-116.49 3874.86,-120.53 3870,-125"/>
<polygon fill="black" stroke="black" points="3867.95,-122.12 3863.53,-131.75 3872.99,-126.98 3867.95,-122.12"/>
<text text-anchor="start" x="7214.45" y="-73.5" font-family="Courier New" font-weight="bold" font-size="10.00" fill="blue">Z_EPSILON(,)</text>
</g>
<!-- quest9p&#45;&gt;0 -->
<g id="edge36" class="edge">
<title>quest9p&#45;&gt;0</title>
<path fill="none" stroke="black" d="M7528.19,-24.18C7563.94,-29.5 7610.89,-39.12 7622.45,-54 7633.9,-68.74 7635.61,-82.77 7622.45,-96 7585.84,-132.78 3934.41,-94.19 3886.45,-114 3880.42,-116.49 3874.86,-120.53 3870,-125"/>
<polygon fill="black" stroke="black" points="3867.95,-122.12 3863.53,-131.75 3872.99,-126.98 3867.95,-122.12"/>
<text text-anchor="start" x="7635.45" y="-73.5" font-family="Courier New" font-weight="bold" font-size="10.00" fill="blue">Z_EPSILON(,)</text>
</g>
<!-- status -->
<g id="node21" class="node">
<title>status</title>
<polygon fill="none" stroke="black" points="3895.95,-114.5 3895.95,-186.5 4146.95,-186.5 4146.95,-114.5 3895.95,-114.5"/>
<polygon fill="none" stroke="black" points="3906.95,-162.5 3906.95,-179.5 4135.95,-179.5 4135.95,-162.5 3906.95,-162.5"/>
<text text-anchor="start" x="3990.95" y="-169.5" font-family="Courier New" font-weight="bold" font-size="10.00">MEFCURRENT</text>
<polygon fill="none" stroke="black" points="3906.95,-121.5 3906.95,-160.5 4135.95,-160.5 4135.95,-121.5 3906.95,-121.5"/>
<text text-anchor="start" x="3909.95" y="-149.5" font-family="Courier New" font-size="10.00" fill="green">VIEW::IDV_MEFPAN @pos(left:0, top:0)</text>
<text text-anchor="start" x="3909.95" y="-138.5" font-family="Courier New" font-size="10.00" fill="green">MEFCURRENT::M_MEFCURRENT(&#39;&#39;,&#39;&#39;,&#39;&#39;,&#39;&#39;)</text>
<text text-anchor="start" x="3909.95" y="-127.5" font-family="Courier New" font-size="10.00" fill="green">{state:&#39;quest3p&#39;: wParm:NEELP_I3</text>
<polygon fill="none" stroke="black" points="3903.95,-118.5 3903.95,-182.5 4138.95,-182.5 4138.95,-118.5 3903.95,-118.5"/>
</g>
</g>
</svg>
