<?xml version="1.0" encoding="UTF-8" standalone="no"?>
<!DOCTYPE svg PUBLIC "-//W3C//DTD SVG 1.1//EN"
 "http://www.w3.org/Graphics/SVG/1.1/DTD/svg11.dtd">
<!-- Generated by graphviz version 8.0.1 (20230327.1645)
 -->
<!-- Title: Automaton Pages: 1 -->
<svg width="529pt" height="404pt"
 viewBox="0.00 0.00 529.00 404.00" xmlns="http://www.w3.org/2000/svg" xmlns:xlink="http://www.w3.org/1999/xlink">
<g id="graph0" class="graph" transform="scale(1 1) rotate(0) translate(4 400)">
<title>Automaton</title>
<polygon fill="white" stroke="none" points="-4,4 -4,-400 525,-400 525,4 -4,4"/>
<!-- filename -->
<g id="node1" class="node">
<title>filename</title>
<polygon fill="none" stroke="black" points="0,-334.5 0,-384.5 161,-384.5 161,-334.5 0,-334.5"/>
<polygon fill="none" stroke="black" points="11,-360.5 11,-377.5 150,-377.5 150,-360.5 11,-360.5"/>
<text text-anchor="start" x="14" y="-367.5" font-family="Courier New" font-weight="bold" font-size="10.00">MEFPAN_OK::M_MEFPAN_OK</text>
<polygon fill="none" stroke="black" points="11,-341.5 11,-358.5 150,-358.5 150,-341.5 11,-341.5"/>
<text text-anchor="start" x="35" y="-347.5" font-family="Courier New" font-size="10.00" fill="brown">start state = 0</text>
<polygon fill="none" stroke="black" points="8,-338.5 8,-380.5 153,-380.5 153,-338.5 8,-338.5"/>
</g>
<!-- 0 -->
<g id="node2" class="node">
<title>0</title>
<polyline fill="none" stroke="darkred" points="199,-349 214,-349"/>
<text text-anchor="start" x="202" y="-356.8" font-family="Courier New" font-weight="bold" font-size="14.00">0</text>
<path fill="none" stroke="darkred" d="M203,-346C203,-346 210,-346 210,-346 213.5,-346 217,-349.5 217,-353 217,-353 217,-366 217,-366 217,-369.5 213.5,-373 210,-373 210,-373 203,-373 203,-373 199.5,-373 196,-369.5 196,-366 196,-366 196,-353 196,-353 196,-349.5 199.5,-346 203,-346"/>
</g>
<!-- 1 -->
<g id="node3" class="node">
<title>1</title>
<polyline fill="none" stroke="darkred" stroke-width="3" points="198.5,-212.5 214.5,-212.5"/>
<text text-anchor="start" x="202" y="-220.8" font-family="Courier New" font-weight="bold" font-size="14.00">1</text>
<path fill="none" stroke="darkred" stroke-width="3" d="M202.17,-207.5C202.17,-207.5 210.83,-207.5 210.83,-207.5 215.17,-207.5 219.5,-211.83 219.5,-216.17 219.5,-216.17 219.5,-230.83 219.5,-230.83 219.5,-235.17 215.17,-239.5 210.83,-239.5 210.83,-239.5 202.17,-239.5 202.17,-239.5 197.83,-239.5 193.5,-235.17 193.5,-230.83 193.5,-230.83 193.5,-216.17 193.5,-216.17 193.5,-211.83 197.83,-207.5 202.17,-207.5"/>
</g>
<!-- 0&#45;&gt;1 -->
<g id="edge1" class="edge">
<title>0&#45;&gt;1</title>
<path fill="none" stroke="black" d="M206.5,-341.53C206.5,-319.96 206.5,-282.32 206.5,-255.56"/>
<polygon fill="black" stroke="black" points="210,-255.83 206.5,-245.83 203,-255.83 210,-255.83"/>
<polygon fill="none" stroke="black" points="209.5,-285 209.5,-302 324.5,-302 324.5,-285 209.5,-285"/>
<text text-anchor="start" x="212.5" y="-292" font-family="Courier New" font-weight="bold" font-size="10.00" fill="blue">SHOW(0,IDS_BTN_OK)</text>
<polygon fill="none" stroke="black" points="209.5,-266 209.5,-283 324.5,-283 324.5,-266 209.5,-266"/>
<text text-anchor="start" x="215.5" y="-272" font-family="Courier New" font-size="10.00" fill="blue"> &#160;&#160;&#160;CLEAR(WPARM);</text>
<polygon fill="none" stroke="black" points="206.5,-263 206.5,-305 327.5,-305 327.5,-263 206.5,-263"/>
</g>
<!-- 2 -->
<g id="node4" class="node">
<title>2</title>
<polyline fill="none" stroke="darkred" points="199,-7.5 214,-7.5"/>
<text text-anchor="start" x="202" y="-15.3" font-family="Courier New" font-weight="bold" font-size="14.00">2</text>
<path fill="none" stroke="darkred" d="M203,-4.5C203,-4.5 210,-4.5 210,-4.5 213.5,-4.5 217,-8 217,-11.5 217,-11.5 217,-24.5 217,-24.5 217,-28 213.5,-31.5 210,-31.5 210,-31.5 203,-31.5 203,-31.5 199.5,-31.5 196,-28 196,-24.5 196,-24.5 196,-11.5 196,-11.5 196,-8 199.5,-4.5 203,-4.5"/>
</g>
<!-- 1&#45;&gt;2 -->
<g id="edge2" class="edge">
<title>1&#45;&gt;2</title>
<path fill="none" stroke="black" d="M179.58,-219.15C142.19,-213.87 77.54,-202.32 63.5,-184 28.35,-138.14 27.83,-99.45 63.5,-54 76.39,-37.58 131.07,-27.86 168.95,-22.98"/>
<polygon fill="black" stroke="black" points="169.12,-26.36 178.62,-21.67 168.27,-19.41 169.12,-26.36"/>
<polygon fill="none" stroke="black" points="66.5,-164 66.5,-181 325.5,-181 325.5,-164 66.5,-164"/>
<text text-anchor="start" x="165.5" y="-171" font-family="Courier New" font-weight="bold" font-size="10.00" fill="orange">CLICK(0,0)</text>
<polygon fill="none" stroke="black" points="66.5,-57 66.5,-162 325.5,-162 325.5,-57 66.5,-57"/>
<text text-anchor="start" x="69.5" y="-151" font-family="Courier New" font-size="10.00" fill="blue"> &#160;&#160;&#160;REF_MACHINE(MEFCURRENT);</text>
<text text-anchor="start" x="69.5" y="-140" font-family="Courier New" font-size="10.00" fill="blue"> &#160;&#160;&#160;PLAYWAVE(SOUND_POPUP);</text>
<text text-anchor="start" x="69.5" y="-129" font-family="Courier New" font-size="10.00" fill="blue"> &#160;&#160;&#160;SIGNAL(R_WPARM,SIG_CLOSE);</text>
<text text-anchor="start" x="69.5" y="-118" font-family="Courier New" font-size="10.00" fill="blue"> &#160;&#160;&#160;SIGNAL(MEFPAN_VIEWCAP,SIG_VIEWRETURN);</text>
<text text-anchor="start" x="69.5" y="-107" font-family="Courier New" font-size="10.00" fill="blue"> &#160;&#160;&#160;SIGNAL(SOD_ID,SIG_SHOW);</text>
<text text-anchor="start" x="69.5" y="-96" font-family="Courier New" font-size="10.00" fill="blue"> &#160;&#160;&#160;SIGNAL(MEFPAN_WAITER,SIG_RESET);</text>
<text text-anchor="start" x="69.5" y="-85" font-family="Courier New" font-size="10.00" fill="blue"> &#160;&#160;&#160;SIGNAL(MEFPAN_PRIZE_A,SIG_RESET);</text>
<text text-anchor="start" x="69.5" y="-74" font-family="Courier New" font-size="10.00" fill="blue"> &#160;&#160;&#160;SIGNAL(MEFPAN_PRIZE_B,SIG_RESET);</text>
<text text-anchor="start" x="69.5" y="-63" font-family="Courier New" font-size="10.00" fill="blue"> &#160;&#160;&#160;SIGNAL(MEFPAN_PRIZE_C,SIG_RESET);</text>
<polygon fill="none" stroke="black" points="63.5,-54 63.5,-184 328.5,-184 328.5,-54 63.5,-54"/>
</g>
<!-- 2&#45;&gt;1 -->
<g id="edge3" class="edge">
<title>2&#45;&gt;1</title>
<path fill="none" stroke="black" d="M233.49,-18.12C262.26,-18.82 306.62,-24.96 328.5,-54 363.27,-100.15 362.66,-137.4 328.5,-184 309.32,-210.17 272.29,-219.01 244.04,-221.78"/>
<polygon fill="black" stroke="black" points="244.02,-218.34 234.31,-222.58 244.55,-225.32 244.02,-218.34"/>
<text text-anchor="start" x="357.5" y="-117.5" font-family="Courier New" font-weight="bold" font-size="10.00" fill="blue">Z_EPSILON(,)</text>
</g>
<!-- status -->
<g id="node5" class="node">
<title>status</title>
<polygon fill="none" stroke="black" points="252,-323.5 252,-395.5 521,-395.5 521,-323.5 252,-323.5"/>
<polygon fill="none" stroke="black" points="263,-371.5 263,-388.5 510,-388.5 510,-371.5 263,-371.5"/>
<text text-anchor="start" x="359" y="-378.5" font-family="Courier New" font-weight="bold" font-size="10.00">MEFPAN_OK</text>
<polygon fill="none" stroke="black" points="263,-330.5 263,-369.5 510,-369.5 510,-330.5 263,-330.5"/>
<text text-anchor="start" x="266" y="-358.5" font-family="Courier New" font-size="10.00" fill="green">VIEW::IDV_MEFPAN @pos(left:490, top:215)</text>
<text text-anchor="start" x="266" y="-347.5" font-family="Courier New" font-size="10.00" fill="green">MEFPAN_OK::M_MEFPAN_OK(&#39;&#39;,&#39;&#39;,&#39;&#39;,&#39;&#39;)</text>
<text text-anchor="start" x="266" y="-336.5" font-family="Courier New" font-size="10.00" fill="green">{state:&#39;1&#39;: wParm:0 wSprite:IDS_BTN_OK</text>
<polygon fill="none" stroke="black" points="260,-327.5 260,-391.5 513,-391.5 513,-327.5 260,-327.5"/>
</g>
</g>
</svg>
