<?xml version="1.0" encoding="UTF-8" standalone="no"?>
<!DOCTYPE svg PUBLIC "-//W3C//DTD SVG 1.1//EN"
 "http://www.w3.org/Graphics/SVG/1.1/DTD/svg11.dtd">
<!-- Generated by graphviz version 8.0.1 (20230327.1645)
 -->
<!-- Title: Automaton Pages: 1 -->
<svg width="553pt" height="360pt"
 viewBox="0.00 0.00 553.00 360.00" xmlns="http://www.w3.org/2000/svg" xmlns:xlink="http://www.w3.org/1999/xlink">
<g id="graph0" class="graph" transform="scale(1 1) rotate(0) translate(4 356)">
<title>Automaton</title>
<polygon fill="white" stroke="none" points="-4,4 -4,-356 549,-356 549,4 -4,4"/>
<!-- filename -->
<g id="node1" class="node">
<title>filename</title>
<polygon fill="none" stroke="black" points="0,-290.5 0,-340.5 161,-340.5 161,-290.5 0,-290.5"/>
<polygon fill="none" stroke="black" points="11,-316.5 11,-333.5 150,-333.5 150,-316.5 11,-316.5"/>
<text text-anchor="start" x="14" y="-323.5" font-family="Courier New" font-weight="bold" font-size="10.00">MEFPAN_OK::M_MEFPAN_OK</text>
<polygon fill="none" stroke="black" points="11,-297.5 11,-314.5 150,-314.5 150,-297.5 11,-297.5"/>
<text text-anchor="start" x="35" y="-303.5" font-family="Courier New" font-size="10.00" fill="brown">start state = 0</text>
<polygon fill="none" stroke="black" points="8,-294.5 8,-336.5 153,-336.5 153,-294.5 8,-294.5"/>
</g>
<!-- 0 -->
<g id="node2" class="node">
<title>0</title>
<polyline fill="none" stroke="darkred" points="199,-305 214,-305"/>
<text text-anchor="start" x="202" y="-312.8" font-family="Courier New" font-weight="bold" font-size="14.00">0</text>
<path fill="none" stroke="darkred" d="M203,-302C203,-302 210,-302 210,-302 213.5,-302 217,-305.5 217,-309 217,-309 217,-322 217,-322 217,-325.5 213.5,-329 210,-329 210,-329 203,-329 203,-329 199.5,-329 196,-325.5 196,-322 196,-322 196,-309 196,-309 196,-305.5 199.5,-302 203,-302"/>
</g>
<!-- 1 -->
<g id="node3" class="node">
<title>1</title>
<polyline fill="none" stroke="darkred" stroke-width="3" points="103.5,-157.5 119.5,-157.5"/>
<text text-anchor="start" x="107" y="-165.8" font-family="Courier New" font-weight="bold" font-size="14.00">1</text>
<path fill="none" stroke="darkred" stroke-width="3" d="M107.17,-152.5C107.17,-152.5 115.83,-152.5 115.83,-152.5 120.17,-152.5 124.5,-156.83 124.5,-161.17 124.5,-161.17 124.5,-175.83 124.5,-175.83 124.5,-180.17 120.17,-184.5 115.83,-184.5 115.83,-184.5 107.17,-184.5 107.17,-184.5 102.83,-184.5 98.5,-180.17 98.5,-175.83 98.5,-175.83 98.5,-161.17 98.5,-161.17 98.5,-156.83 102.83,-152.5 107.17,-152.5"/>
</g>
<!-- 0&#45;&gt;1 -->
<g id="edge1" class="edge">
<title>0&#45;&gt;1</title>
<path fill="none" stroke="black" d="M192.41,-297.79C186.02,-291.12 177.99,-283.88 169.5,-279 144.25,-264.49 124.04,-284.25 106.5,-261 93.63,-243.93 95.65,-219.57 100.47,-200.28"/>
<polygon fill="black" stroke="black" points="104.06,-201.46 103.45,-190.88 97.33,-199.53 104.06,-201.46"/>
<polygon fill="none" stroke="black" points="109.5,-241 109.5,-258 290.5,-258 290.5,-241 109.5,-241"/>
<text text-anchor="start" x="145.5" y="-248" font-family="Courier New" font-weight="bold" font-size="10.00" fill="blue">SHOW(0,IDS_BTN_OK)</text>
<polygon fill="none" stroke="black" points="109.5,-211 109.5,-239 290.5,-239 290.5,-211 109.5,-211"/>
<text text-anchor="start" x="112.5" y="-228" font-family="Courier New" font-size="10.00" fill="blue"> &#160;&#160;&#160;//GET THE ACTIVE MEFLIN</text>
<text text-anchor="start" x="112.5" y="-217" font-family="Courier New" font-size="10.00" fill="blue"> &#160;&#160;&#160;&#160;REF_MACHINE(MEFCURRENT);</text>
<polygon fill="none" stroke="black" points="106.5,-208 106.5,-261 293.5,-261 293.5,-208 106.5,-208"/>
</g>
<!-- 2 -->
<g id="node4" class="node">
<title>2</title>
<polyline fill="none" stroke="darkred" points="202,-7.5 217,-7.5"/>
<text text-anchor="start" x="205" y="-15.3" font-family="Courier New" font-weight="bold" font-size="14.00">2</text>
<path fill="none" stroke="darkred" d="M206,-4.5C206,-4.5 213,-4.5 213,-4.5 216.5,-4.5 220,-8 220,-11.5 220,-11.5 220,-24.5 220,-24.5 220,-28 216.5,-31.5 213,-31.5 213,-31.5 206,-31.5 206,-31.5 202.5,-31.5 199,-28 199,-24.5 199,-24.5 199,-11.5 199,-11.5 199,-8 202.5,-4.5 206,-4.5"/>
</g>
<!-- 1&#45;&gt;2 -->
<g id="edge2" class="edge">
<title>1&#45;&gt;2</title>
<path fill="none" stroke="black" d="M106.7,-147.28C102.12,-122.72 98.54,-81.23 118.5,-54 131.02,-36.92 153.05,-28.17 172.29,-23.7"/>
<polygon fill="black" stroke="black" points="172.79,-26.96 181.91,-21.57 171.42,-20.1 172.79,-26.96"/>
<polygon fill="none" stroke="black" points="121.5,-109 121.5,-126 290.5,-126 290.5,-109 121.5,-109"/>
<text text-anchor="start" x="175.5" y="-116" font-family="Courier New" font-weight="bold" font-size="10.00" fill="orange">CLICK(0,0)</text>
<polygon fill="none" stroke="black" points="121.5,-57 121.5,-107 290.5,-107 290.5,-57 121.5,-57"/>
<text text-anchor="start" x="124.5" y="-96" font-family="Courier New" font-size="10.00" fill="blue"> &#160;&#160;&#160;PLAYWAVE(SOUND_POPUP); </text>
<text text-anchor="start" x="124.5" y="-85" font-family="Courier New" font-size="10.00" fill="blue"> &#160;&#160;&#160;SIGNAL(WIP1,SIG_CLOSE);</text>
<text text-anchor="start" x="124.5" y="-74" font-family="Courier New" font-size="10.00" fill="blue"> &#160;&#160;&#160;REF_MACHINE(WIP1);</text>
<text text-anchor="start" x="124.5" y="-63" font-family="Courier New" font-size="10.00" fill="blue"> &#160;&#160;&#160;MOV(WPARM,R_WPARM);</text>
<polygon fill="none" stroke="black" points="118.5,-54 118.5,-129 293.5,-129 293.5,-54 118.5,-54"/>
</g>
<!-- 2&#45;&gt;0 -->
<g id="edge3" class="edge">
<title>2&#45;&gt;0</title>
<path fill="none" stroke="black" d="M236.42,-22.37C255.88,-26.36 280.88,-35.07 293.5,-54 344.53,-130.55 346.64,-185.9 293.5,-261 279.62,-280.62 262.88,-266.26 242.5,-279 237.48,-282.14 232.6,-286.09 228.14,-290.21"/>
<polygon fill="black" stroke="black" points="226.26,-287.14 221.63,-296.66 231.19,-292.11 226.26,-287.14"/>
<polygon fill="none" stroke="black" points="335.5,-169.5 335.5,-186.5 480.5,-186.5 480.5,-169.5 335.5,-169.5"/>
<text text-anchor="start" x="353.5" y="-176.5" font-family="Courier New" font-weight="bold" font-size="10.00" fill="blue">LOADVIEW(WVIEWID,)</text>
<polygon fill="none" stroke="black" points="335.5,-150.5 335.5,-167.5 480.5,-167.5 480.5,-150.5 335.5,-150.5"/>
<text text-anchor="start" x="338.5" y="-156.5" font-family="Courier New" font-size="10.00" fill="blue">CLEAR(WVIEWID);SHOW(0);</text>
<polygon fill="none" stroke="black" points="332.5,-147.5 332.5,-189.5 483.5,-189.5 483.5,-147.5 332.5,-147.5"/>
</g>
<!-- status -->
<g id="node5" class="node">
<title>status</title>
<polygon fill="none" stroke="black" points="252,-279.5 252,-351.5 545,-351.5 545,-279.5 252,-279.5"/>
<polygon fill="none" stroke="black" points="263,-327.5 263,-344.5 534,-344.5 534,-327.5 263,-327.5"/>
<text text-anchor="start" x="371" y="-334.5" font-family="Courier New" font-weight="bold" font-size="10.00">MEFPAN_OK</text>
<polygon fill="none" stroke="black" points="263,-286.5 263,-325.5 534,-325.5 534,-286.5 263,-286.5"/>
<text text-anchor="start" x="266" y="-314.5" font-family="Courier New" font-size="10.00" fill="green">VIEW::IDV_MEFPAN @pos(left:490, top:215)</text>
<text text-anchor="start" x="266" y="-303.5" font-family="Courier New" font-size="10.00" fill="green">MEFPAN_OK::M_MEFPAN_OK(&#39;&#39;,&#39;&#39;,&#39;&#39;,&#39;&#39;)</text>
<text text-anchor="start" x="266" y="-292.5" font-family="Courier New" font-size="10.00" fill="green">{state:&#39;1&#39;: wParm:R_WPARM wSprite:IDS_BTN_OK</text>
<polygon fill="none" stroke="black" points="260,-283.5 260,-347.5 537,-347.5 537,-283.5 260,-283.5"/>
</g>
</g>
</svg>
