<?xml version="1.0" encoding="UTF-8" standalone="no"?>
<!DOCTYPE svg PUBLIC "-//W3C//DTD SVG 1.1//EN"
 "http://www.w3.org/Graphics/SVG/1.1/DTD/svg11.dtd">
<!-- Generated by graphviz version 8.0.1 (20230327.1645)
 -->
<!-- Title: Automaton Pages: 1 -->
<svg width="4665pt" height="463pt"
 viewBox="0.00 0.00 4665.10 463.00" xmlns="http://www.w3.org/2000/svg" xmlns:xlink="http://www.w3.org/1999/xlink">
<g id="graph0" class="graph" transform="scale(1 1) rotate(0) translate(4 459)">
<title>Automaton</title>
<polygon fill="white" stroke="none" points="-4,4 -4,-459 4661.1,-459 4661.1,4 -4,4"/>
<!-- filename -->
<g id="node1" class="node">
<title>filename</title>
<polygon fill="none" stroke="black" points="2590.6,-393.5 2590.6,-443.5 2799.6,-443.5 2799.6,-393.5 2590.6,-393.5"/>
<polygon fill="none" stroke="black" points="2601.6,-419.5 2601.6,-436.5 2788.6,-436.5 2788.6,-419.5 2601.6,-419.5"/>
<text text-anchor="start" x="2604.6" y="-426.5" font-family="Courier New" font-weight="bold" font-size="10.00">MEFPAN_WAITER::M_MEFPAN_WAITER</text>
<polygon fill="none" stroke="black" points="2601.6,-400.5 2601.6,-417.5 2788.6,-417.5 2788.6,-400.5 2601.6,-400.5"/>
<text text-anchor="start" x="2649.6" y="-406.5" font-family="Courier New" font-size="10.00" fill="brown">start state = 0</text>
<polygon fill="none" stroke="black" points="2598.6,-397.5 2598.6,-439.5 2791.6,-439.5 2791.6,-397.5 2598.6,-397.5"/>
</g>
<!-- 0 -->
<g id="node2" class="node">
<title>0</title>
<polyline fill="none" stroke="darkred" points="2837.6,-408 2852.6,-408"/>
<text text-anchor="start" x="2840.6" y="-415.8" font-family="Courier New" font-weight="bold" font-size="14.00">0</text>
<path fill="none" stroke="darkred" d="M2841.6,-405C2841.6,-405 2848.6,-405 2848.6,-405 2852.1,-405 2855.6,-408.5 2855.6,-412 2855.6,-412 2855.6,-425 2855.6,-425 2855.6,-428.5 2852.1,-432 2848.6,-432 2848.6,-432 2841.6,-432 2841.6,-432 2838.1,-432 2834.6,-428.5 2834.6,-425 2834.6,-425 2834.6,-412 2834.6,-412 2834.6,-408.5 2838.1,-405 2841.6,-405"/>
</g>
<!-- setup -->
<g id="node3" class="node">
<title>setup</title>
<polyline fill="none" stroke="darkred" points="2821.1,-253.5 2869.1,-253.5"/>
<text text-anchor="start" x="2824.1" y="-261.3" font-family="Courier New" font-weight="bold" font-size="14.00">setup</text>
<path fill="none" stroke="darkred" d="M2827.1,-250.5C2827.1,-250.5 2863.1,-250.5 2863.1,-250.5 2867.6,-250.5 2872.1,-255 2872.1,-259.5 2872.1,-259.5 2872.1,-268.5 2872.1,-268.5 2872.1,-273 2867.6,-277.5 2863.1,-277.5 2863.1,-277.5 2827.1,-277.5 2827.1,-277.5 2822.6,-277.5 2818.1,-273 2818.1,-268.5 2818.1,-268.5 2818.1,-259.5 2818.1,-259.5 2818.1,-255 2822.6,-250.5 2827.1,-250.5"/>
</g>
<!-- 0&#45;&gt;setup -->
<g id="edge1" class="edge">
<title>0&#45;&gt;setup</title>
<path fill="none" stroke="black" d="M2845.1,-400.6C2845.1,-374.49 2845.1,-324.09 2845.1,-292.63"/>
<polygon fill="black" stroke="black" points="2848.6,-292.98 2845.1,-282.98 2841.6,-292.98 2848.6,-292.98"/>
<polygon fill="none" stroke="black" points="2848.1,-344 2848.1,-361 3227.1,-361 3227.1,-344 2848.1,-344"/>
<text text-anchor="start" x="3001.1" y="-351" font-family="Courier New" font-weight="bold" font-size="10.00" fill="blue">Z_EPSILON(,)</text>
<polygon fill="none" stroke="black" points="2848.1,-303 2848.1,-342 3227.1,-342 3227.1,-303 2848.1,-303"/>
<text text-anchor="start" x="2851.1" y="-331" font-family="Courier New" font-size="10.00" fill="blue"> &#160;&#160;&#160;REF_MACHINE(MEFCURRENT); //what mef are we hittin up</text>
<text text-anchor="start" x="2851.1" y="-320" font-family="Courier New" font-size="10.00" fill="blue"> &#160;&#160;// MOV(WTEMP1,R_WTEMP1); //what approach machine we can ref</text>
<text text-anchor="start" x="2851.1" y="-309" font-family="Courier New" font-size="10.00" fill="blue"> &#160;&#160;&#160;&#160;ASSIGN(WTEMP1,1); //what approach machine we can ref</text>
<polygon fill="none" stroke="black" points="2845.1,-300 2845.1,-364 3230.1,-364 3230.1,-300 2845.1,-300"/>
</g>
<!-- setNeelp -->
<g id="node4" class="node">
<title>setNeelp</title>
<polyline fill="none" stroke="darkred" stroke-width="3" points="1085.1,-135.5 1159.1,-135.5"/>
<text text-anchor="start" x="1088.6" y="-143.8" font-family="Courier New" font-weight="bold" font-size="14.00">setNeelp</text>
<path fill="none" stroke="darkred" stroke-width="3" d="M1090.76,-130.5C1090.76,-130.5 1153.43,-130.5 1153.43,-130.5 1158.76,-130.5 1164.1,-135.83 1164.1,-141.17 1164.1,-141.17 1164.1,-151.83 1164.1,-151.83 1164.1,-157.17 1158.76,-162.5 1153.43,-162.5 1153.43,-162.5 1090.76,-162.5 1090.76,-162.5 1085.43,-162.5 1080.1,-157.17 1080.1,-151.83 1080.1,-151.83 1080.1,-141.17 1080.1,-141.17 1080.1,-135.83 1085.43,-130.5 1090.76,-130.5"/>
</g>
<!-- setup&#45;&gt;setNeelp -->
<g id="edge20" class="edge">
<title>setup&#45;&gt;setNeelp</title>
<path fill="none" stroke="black" d="M2810.29,-260.67C2596.67,-246.35 1463.07,-170.36 1184.14,-151.66"/>
<polygon fill="black" stroke="black" points="1184.63,-148.12 1174.42,-150.94 1184.17,-155.1 1184.63,-148.12"/>
<polygon fill="none" stroke="black" points="2291.1,-208 2291.1,-225 2448.1,-225 2448.1,-208 2291.1,-208"/>
<text text-anchor="start" x="2324.1" y="-215" font-family="Courier New" font-weight="bold" font-size="10.00" fill="blue">EQUAL(WTEMP1,1)</text>
<polygon fill="none" stroke="black" points="2291.1,-189 2291.1,-206 2448.1,-206 2448.1,-189 2291.1,-189"/>
<text text-anchor="start" x="2294.1" y="-195" font-family="Courier New" font-size="10.00" fill="blue"> &#160;WRITE(&quot;WHAT THE HELL&quot;);</text>
<polygon fill="none" stroke="black" points="2288.1,-186 2288.1,-228 2451.1,-228 2451.1,-186 2288.1,-186"/>
</g>
<!-- setPerst -->
<g id="node11" class="node">
<title>setPerst</title>
<polyline fill="none" stroke="darkred" points="2273.6,-136 2346.6,-136"/>
<text text-anchor="start" x="2276.6" y="-143.8" font-family="Courier New" font-weight="bold" font-size="14.00">setPerst</text>
<path fill="none" stroke="darkred" d="M2279.6,-133C2279.6,-133 2340.6,-133 2340.6,-133 2345.1,-133 2349.6,-137.5 2349.6,-142 2349.6,-142 2349.6,-151 2349.6,-151 2349.6,-155.5 2345.1,-160 2340.6,-160 2340.6,-160 2279.6,-160 2279.6,-160 2275.1,-160 2270.6,-155.5 2270.6,-151 2270.6,-151 2270.6,-142 2270.6,-142 2270.6,-137.5 2275.1,-133 2279.6,-133"/>
</g>
<!-- setup&#45;&gt;setPerst -->
<g id="edge23" class="edge">
<title>setup&#45;&gt;setPerst</title>
<path fill="none" stroke="black" d="M2810.41,-255.51C2720.55,-236.11 2479.47,-184.07 2368.04,-160.01"/>
<polygon fill="black" stroke="black" points="2368.87,-156.39 2358.35,-157.7 2367.39,-163.23 2368.87,-156.39"/>
<text text-anchor="start" x="2676.1" y="-205.5" font-family="Courier New" font-weight="bold" font-size="10.00" fill="blue">EQUAL(WTEMP1,S16_PERST)</text>
</g>
<!-- setRathe -->
<g id="node16" class="node">
<title>setRathe</title>
<polyline fill="none" stroke="darkred" points="2987.6,-136 3060.6,-136"/>
<text text-anchor="start" x="2990.6" y="-143.8" font-family="Courier New" font-weight="bold" font-size="14.00">setRathe</text>
<path fill="none" stroke="darkred" d="M2993.6,-133C2993.6,-133 3054.6,-133 3054.6,-133 3059.1,-133 3063.6,-137.5 3063.6,-142 3063.6,-142 3063.6,-151 3063.6,-151 3063.6,-155.5 3059.1,-160 3054.6,-160 3054.6,-160 2993.6,-160 2993.6,-160 2989.1,-160 2984.6,-155.5 2984.6,-151 2984.6,-151 2984.6,-142 2984.6,-142 2984.6,-137.5 2989.1,-133 2993.6,-133"/>
</g>
<!-- setup&#45;&gt;setRathe -->
<g id="edge21" class="edge">
<title>setup&#45;&gt;setRathe</title>
<path fill="none" stroke="black" d="M2871.12,-246.21C2902.28,-226.1 2954.57,-192.36 2989.2,-170.02"/>
<polygon fill="black" stroke="black" points="2990.53,-172.68 2997.04,-164.31 2986.74,-166.8 2990.53,-172.68"/>
<text text-anchor="start" x="2965.1" y="-205.5" font-family="Courier New" font-weight="bold" font-size="10.00" fill="blue">EQUAL(WTEMP1,S24_RATHE)</text>
</g>
<!-- setThaor -->
<g id="node21" class="node">
<title>setThaor</title>
<polyline fill="none" stroke="darkred" points="3935.6,-136 4008.6,-136"/>
<text text-anchor="start" x="3938.6" y="-143.8" font-family="Courier New" font-weight="bold" font-size="14.00">setThaor</text>
<path fill="none" stroke="darkred" d="M3941.6,-133C3941.6,-133 4002.6,-133 4002.6,-133 4007.1,-133 4011.6,-137.5 4011.6,-142 4011.6,-142 4011.6,-151 4011.6,-151 4011.6,-155.5 4007.1,-160 4002.6,-160 4002.6,-160 3941.6,-160 3941.6,-160 3937.1,-160 3932.6,-155.5 3932.6,-151 3932.6,-151 3932.6,-142 3932.6,-142 3932.6,-137.5 3937.1,-133 3941.6,-133"/>
</g>
<!-- setup&#45;&gt;setThaor -->
<g id="edge22" class="edge">
<title>setup&#45;&gt;setThaor</title>
<path fill="none" stroke="black" d="M2880.06,-259.42C3041.04,-242.92 3711.6,-174.2 3914,-153.45"/>
<polygon fill="black" stroke="black" points="3914.1,-156.86 3923.69,-152.36 3913.39,-149.9 3914.1,-156.86"/>
<text text-anchor="start" x="3580.1" y="-205.5" font-family="Courier New" font-weight="bold" font-size="10.00" fill="blue">EQUAL(WTEMP1,S10_THAOR)</text>
</g>
<!-- neelpQ1 -->
<g id="node5" class="node">
<title>neelpQ1</title>
<ellipse fill="none" stroke="black" cx="48.1" cy="-18" rx="48.19" ry="18"/>
<text text-anchor="middle" x="48.1" y="-14.3" font-family="Courier New" font-size="14.00">neelpQ1</text>
</g>
<!-- setNeelp&#45;&gt;neelpQ1 -->
<g id="edge2" class="edge">
<title>setNeelp&#45;&gt;neelpQ1</title>
<path fill="none" stroke="black" d="M1070.74,-145.39C864.22,-144.72 103.65,-140.01 65.1,-107 48.3,-92.62 44.91,-67.08 45.22,-47.21"/>
<polygon fill="black" stroke="black" points="48.76,-47.46 45.76,-37.3 41.77,-47.11 48.76,-47.46"/>
<polygon fill="none" stroke="black" points="68.1,-87 68.1,-104 645.1,-104 645.1,-87 68.1,-87"/>
<text text-anchor="start" x="311.1" y="-94" font-family="Courier New" font-weight="bold" font-size="10.00" fill="orange">WAIT(0,SIG_Q1S)</text>
<polygon fill="none" stroke="black" points="68.1,-57 68.1,-85 645.1,-85 645.1,-57 68.1,-57"/>
<text text-anchor="start" x="71.1" y="-74" font-family="Courier New" font-size="10.00" fill="blue"> &#160;&#160;&#160;REF_MACHINE(WTEMP1);</text>
<text text-anchor="start" x="71.1" y="-63" font-family="Courier New" font-size="10.00" fill="blue"> &#160;&#160;&#160;SETTEXT(ID_MEFTEXT,R_WTEMP1); //WTEMP1 FOR Started/PRIMARY AND WTEMP3 FOR Pending/INQUIRIES</text>
<polygon fill="none" stroke="black" points="65.1,-54 65.1,-107 648.1,-107 648.1,-54 65.1,-54"/>
</g>
<!-- neelpQ1p -->
<g id="node6" class="node">
<title>neelpQ1p</title>
<ellipse fill="none" stroke="black" cx="654.1" cy="-18" rx="53.89" ry="18"/>
<text text-anchor="middle" x="654.1" y="-14.3" font-family="Courier New" font-size="14.00">neelpQ1p</text>
</g>
<!-- setNeelp&#45;&gt;neelpQ1p -->
<g id="edge3" class="edge">
<title>setNeelp&#45;&gt;neelpQ1p</title>
<path fill="none" stroke="black" d="M1070.7,-144.51C958.92,-141.88 701.35,-133.03 672.1,-107 655.54,-92.27 651.82,-66.77 651.78,-47.01"/>
<polygon fill="black" stroke="black" points="655.31,-47.26 652.12,-37.15 648.31,-47.04 655.31,-47.26"/>
<polygon fill="none" stroke="black" points="675.1,-87 675.1,-104 880.1,-104 880.1,-87 675.1,-87"/>
<text text-anchor="start" x="732.1" y="-94" font-family="Courier New" font-weight="bold" font-size="10.00" fill="orange">WAIT(0,SIG_Q1P)</text>
<polygon fill="none" stroke="black" points="675.1,-57 675.1,-85 880.1,-85 880.1,-57 675.1,-57"/>
<text text-anchor="start" x="678.1" y="-74" font-family="Courier New" font-size="10.00" fill="blue"> &#160;&#160;&#160;REF_MACHINE(WTEMP1);</text>
<text text-anchor="start" x="678.1" y="-63" font-family="Courier New" font-size="10.00" fill="blue"> &#160;&#160;&#160;SETTEXT(ID_MEFTEXT,R_WTEMP3);</text>
<polygon fill="none" stroke="black" points="672.1,-54 672.1,-107 883.1,-107 883.1,-54 672.1,-54"/>
</g>
<!-- neelpQ2 -->
<g id="node7" class="node">
<title>neelpQ2</title>
<ellipse fill="none" stroke="black" cx="888.1" cy="-18" rx="48.19" ry="18"/>
<text text-anchor="middle" x="888.1" y="-14.3" font-family="Courier New" font-size="14.00">neelpQ2</text>
</g>
<!-- setNeelp&#45;&gt;neelpQ2 -->
<g id="edge4" class="edge">
<title>setNeelp&#45;&gt;neelpQ2</title>
<path fill="none" stroke="black" d="M1070.72,-142.77C1014.68,-138.7 929.91,-129.02 907.1,-107 891.28,-91.74 887.11,-66.69 886.56,-47.22"/>
<polygon fill="black" stroke="black" points="890.06,-47.24 886.6,-37.23 883.06,-47.21 890.06,-47.24"/>
<polygon fill="none" stroke="black" points="910.1,-87 910.1,-104 1115.1,-104 1115.1,-87 910.1,-87"/>
<text text-anchor="start" x="967.1" y="-94" font-family="Courier New" font-weight="bold" font-size="10.00" fill="orange">WAIT(0,SIG_Q1S)</text>
<polygon fill="none" stroke="black" points="910.1,-57 910.1,-85 1115.1,-85 1115.1,-57 910.1,-57"/>
<text text-anchor="start" x="913.1" y="-74" font-family="Courier New" font-size="10.00" fill="blue"> &#160;&#160;&#160;REF_MACHINE(WTEMP1);</text>
<text text-anchor="start" x="913.1" y="-63" font-family="Courier New" font-size="10.00" fill="blue"> &#160;&#160;&#160;SETTEXT(ID_MEFTEXT,R_WTEMP1);</text>
<polygon fill="none" stroke="black" points="907.1,-54 907.1,-107 1118.1,-107 1118.1,-54 907.1,-54"/>
</g>
<!-- neelpQ2p -->
<g id="node8" class="node">
<title>neelpQ2p</title>
<ellipse fill="none" stroke="black" cx="1122.1" cy="-18" rx="53.89" ry="18"/>
<text text-anchor="middle" x="1122.1" y="-14.3" font-family="Courier New" font-size="14.00">neelpQ2p</text>
</g>
<!-- setNeelp&#45;&gt;neelpQ2p -->
<g id="edge5" class="edge">
<title>setNeelp&#45;&gt;neelpQ2p</title>
<path fill="none" stroke="black" d="M1122.1,-125.18C1122.1,-104.05 1122.1,-70.82 1122.1,-47.17"/>
<polygon fill="black" stroke="black" points="1125.6,-47.42 1122.1,-37.42 1118.6,-47.42 1125.6,-47.42"/>
<polygon fill="none" stroke="black" points="1125.1,-87 1125.1,-104 1336.1,-104 1336.1,-87 1125.1,-87"/>
<text text-anchor="start" x="1185.1" y="-94" font-family="Courier New" font-weight="bold" font-size="10.00" fill="orange">WAIT(0,SIG_Q2P)</text>
<polygon fill="none" stroke="black" points="1125.1,-57 1125.1,-85 1336.1,-85 1336.1,-57 1125.1,-57"/>
<text text-anchor="start" x="1128.1" y="-74" font-family="Courier New" font-size="10.00" fill="blue"> &#160;&#160;&#160;REF_MACHINE(WTEMP1);</text>
<text text-anchor="start" x="1128.1" y="-63" font-family="Courier New" font-size="10.00" fill="blue"> &#160;&#160;&#160;SETTEXT(ID_MEFTEXT,R_WTEMP3); </text>
<polygon fill="none" stroke="black" points="1122.1,-54 1122.1,-107 1339.1,-107 1339.1,-54 1122.1,-54"/>
</g>
<!-- neelpQ3 -->
<g id="node9" class="node">
<title>neelpQ3</title>
<ellipse fill="none" stroke="black" cx="1362.1" cy="-18" rx="48.19" ry="18"/>
<text text-anchor="middle" x="1362.1" y="-14.3" font-family="Courier New" font-size="14.00">neelpQ3</text>
</g>
<!-- setNeelp&#45;&gt;neelpQ3 -->
<g id="edge6" class="edge">
<title>setNeelp&#45;&gt;neelpQ3</title>
<path fill="none" stroke="black" d="M1173.55,-142.76C1230.23,-138.69 1316.52,-128.98 1340.1,-107 1356.37,-91.83 1361.38,-66.6 1362.61,-47.04"/>
<polygon fill="black" stroke="black" points="1366.13,-47.4 1362.95,-37.29 1359.13,-47.18 1366.13,-47.4"/>
<polygon fill="none" stroke="black" points="1365.1,-87 1365.1,-104 1570.1,-104 1570.1,-87 1365.1,-87"/>
<text text-anchor="start" x="1422.1" y="-94" font-family="Courier New" font-weight="bold" font-size="10.00" fill="orange">WAIT(0,SIG_Q2S)</text>
<polygon fill="none" stroke="black" points="1365.1,-57 1365.1,-85 1570.1,-85 1570.1,-57 1365.1,-57"/>
<text text-anchor="start" x="1368.1" y="-74" font-family="Courier New" font-size="10.00" fill="blue"> &#160;&#160;&#160;REF_MACHINE(WTEMP1);</text>
<text text-anchor="start" x="1368.1" y="-63" font-family="Courier New" font-size="10.00" fill="blue"> &#160;&#160;&#160;SETTEXT(ID_MEFTEXT,R_WTEMP1);</text>
<polygon fill="none" stroke="black" points="1362.1,-54 1362.1,-107 1573.1,-107 1573.1,-54 1362.1,-54"/>
</g>
<!-- neelpQ3p -->
<g id="node10" class="node">
<title>neelpQ3p</title>
<ellipse fill="none" stroke="black" cx="1596.1" cy="-18" rx="53.89" ry="18"/>
<text text-anchor="middle" x="1596.1" y="-14.3" font-family="Courier New" font-size="14.00">neelpQ3p</text>
</g>
<!-- setNeelp&#45;&gt;neelpQ3p -->
<g id="edge7" class="edge">
<title>setNeelp&#45;&gt;neelpQ3p</title>
<path fill="none" stroke="black" d="M1173.22,-144.44C1285.1,-141.67 1544.11,-132.53 1574.1,-107 1591.13,-92.49 1596.04,-66.97 1597.02,-47.14"/>
<polygon fill="black" stroke="black" points="1600.54,-47.3 1597.22,-37.24 1593.54,-47.18 1600.54,-47.3"/>
<polygon fill="none" stroke="black" points="1600.1,-87 1600.1,-104 1811.1,-104 1811.1,-87 1600.1,-87"/>
<text text-anchor="start" x="1660.1" y="-94" font-family="Courier New" font-weight="bold" font-size="10.00" fill="orange">WAIT(0,SIG_Q1P)</text>
<polygon fill="none" stroke="black" points="1600.1,-57 1600.1,-85 1811.1,-85 1811.1,-57 1600.1,-57"/>
<text text-anchor="start" x="1603.1" y="-74" font-family="Courier New" font-size="10.00" fill="blue"> &#160;&#160;&#160;REF_MACHINE(WTEMP1);</text>
<text text-anchor="start" x="1603.1" y="-63" font-family="Courier New" font-size="10.00" fill="blue"> &#160;&#160;&#160;SETTEXT(ID_MEFTEXT,R_WTEMP3); </text>
<polygon fill="none" stroke="black" points="1597.1,-54 1597.1,-107 1814.1,-107 1814.1,-54 1597.1,-54"/>
</g>
<!-- perstQ1 -->
<g id="node12" class="node">
<title>perstQ1</title>
<ellipse fill="none" stroke="black" cx="1836.1" cy="-18" rx="48.19" ry="18"/>
<text text-anchor="middle" x="1836.1" y="-14.3" font-family="Courier New" font-size="14.00">perstQ1</text>
</g>
<!-- setPerst&#45;&gt;perstQ1 -->
<g id="edge8" class="edge">
<title>setPerst&#45;&gt;perstQ1</title>
<path fill="none" stroke="black" d="M2262.61,-144.66C2151.98,-142.26 1884.16,-133.72 1854.1,-107 1837.53,-92.28 1833.81,-66.78 1833.78,-47.01"/>
<polygon fill="black" stroke="black" points="1837.3,-47.26 1834.12,-37.16 1830.31,-47.04 1837.3,-47.26"/>
<polygon fill="none" stroke="black" points="1857.1,-87 1857.1,-104 2068.1,-104 2068.1,-87 1857.1,-87"/>
<text text-anchor="start" x="1917.1" y="-94" font-family="Courier New" font-weight="bold" font-size="10.00" fill="orange">WAIT(0,SIG_Q1S)</text>
<polygon fill="none" stroke="black" points="1857.1,-57 1857.1,-85 2068.1,-85 2068.1,-57 1857.1,-57"/>
<text text-anchor="start" x="1860.1" y="-74" font-family="Courier New" font-size="10.00" fill="blue"> &#160;&#160;&#160;REF_MACHINE(WTEMP1);</text>
<text text-anchor="start" x="1860.1" y="-63" font-family="Courier New" font-size="10.00" fill="blue"> &#160;&#160;&#160;SETTEXT(ID_MEFTEXT,R_WTEMP1); </text>
<polygon fill="none" stroke="black" points="1854.1,-54 1854.1,-107 2071.1,-107 2071.1,-54 1854.1,-54"/>
</g>
<!-- perstQ1p -->
<g id="node13" class="node">
<title>perstQ1p</title>
<ellipse fill="none" stroke="black" cx="2076.1" cy="-18" rx="53.89" ry="18"/>
<text text-anchor="middle" x="2076.1" y="-14.3" font-family="Courier New" font-size="14.00">perstQ1p</text>
</g>
<!-- setPerst&#45;&gt;perstQ1p -->
<g id="edge9" class="edge">
<title>setPerst&#45;&gt;perstQ1p</title>
<path fill="none" stroke="black" d="M2262.93,-143.07C2207.03,-139.19 2118.49,-129.58 2095.1,-107 2079.28,-91.74 2075.11,-66.69 2074.56,-47.22"/>
<polygon fill="black" stroke="black" points="2078.06,-47.24 2074.6,-37.23 2071.06,-47.21 2078.06,-47.24"/>
<polygon fill="none" stroke="black" points="2098.1,-87 2098.1,-104 2303.1,-104 2303.1,-87 2098.1,-87"/>
<text text-anchor="start" x="2155.1" y="-94" font-family="Courier New" font-weight="bold" font-size="10.00" fill="orange">WAIT(0,SIG_Q1P)</text>
<polygon fill="none" stroke="black" points="2098.1,-57 2098.1,-85 2303.1,-85 2303.1,-57 2098.1,-57"/>
<text text-anchor="start" x="2101.1" y="-74" font-family="Courier New" font-size="10.00" fill="blue"> &#160;&#160;&#160;REF_MACHINE(WTEMP1);</text>
<text text-anchor="start" x="2101.1" y="-63" font-family="Courier New" font-size="10.00" fill="blue"> &#160;&#160;&#160;SETTEXT(ID_MEFTEXT,R_WTEMP3);</text>
<polygon fill="none" stroke="black" points="2095.1,-54 2095.1,-107 2306.1,-107 2306.1,-54 2095.1,-54"/>
</g>
<!-- perstQ2 -->
<g id="node14" class="node">
<title>perstQ2</title>
<ellipse fill="none" stroke="black" cx="2310.1" cy="-18" rx="48.19" ry="18"/>
<text text-anchor="middle" x="2310.1" y="-14.3" font-family="Courier New" font-size="14.00">perstQ2</text>
</g>
<!-- setPerst&#45;&gt;perstQ2 -->
<g id="edge10" class="edge">
<title>setPerst&#45;&gt;perstQ2</title>
<path fill="none" stroke="black" d="M2310.1,-128.7C2310.1,-107.93 2310.1,-72.26 2310.1,-47.25"/>
<polygon fill="black" stroke="black" points="2313.6,-47.27 2310.1,-37.27 2306.6,-47.27 2313.6,-47.27"/>
<polygon fill="none" stroke="black" points="2313.1,-87 2313.1,-104 2524.1,-104 2524.1,-87 2313.1,-87"/>
<text text-anchor="start" x="2373.1" y="-94" font-family="Courier New" font-weight="bold" font-size="10.00" fill="orange">WAIT(0,SIG_Q2S)</text>
<polygon fill="none" stroke="black" points="2313.1,-57 2313.1,-85 2524.1,-85 2524.1,-57 2313.1,-57"/>
<text text-anchor="start" x="2316.1" y="-74" font-family="Courier New" font-size="10.00" fill="blue"> &#160;&#160;&#160;REF_MACHINE(WTEMP1);</text>
<text text-anchor="start" x="2316.1" y="-63" font-family="Courier New" font-size="10.00" fill="blue"> &#160;&#160;&#160;SETTEXT(ID_MEFTEXT,R_WTEMP1); </text>
<polygon fill="none" stroke="black" points="2310.1,-54 2310.1,-107 2527.1,-107 2527.1,-54 2310.1,-54"/>
</g>
<!-- perstQ2p -->
<g id="node15" class="node">
<title>perstQ2p</title>
<ellipse fill="none" stroke="black" cx="2550.1" cy="-18" rx="53.89" ry="18"/>
<text text-anchor="middle" x="2550.1" y="-14.3" font-family="Courier New" font-size="14.00">perstQ2p</text>
</g>
<!-- setPerst&#45;&gt;perstQ2p -->
<g id="edge11" class="edge">
<title>setPerst&#45;&gt;perstQ2p</title>
<path fill="none" stroke="black" d="M2357.3,-143.06C2413.82,-139.17 2503.92,-129.54 2528.1,-107 2544.37,-91.83 2549.38,-66.6 2550.61,-47.04"/>
<polygon fill="black" stroke="black" points="2554.13,-47.4 2550.95,-37.29 2547.13,-47.18 2554.13,-47.4"/>
<polygon fill="none" stroke="black" points="2553.1,-87 2553.1,-104 2758.1,-104 2758.1,-87 2553.1,-87"/>
<text text-anchor="start" x="2610.1" y="-94" font-family="Courier New" font-weight="bold" font-size="10.00" fill="orange">WAIT(0,SIG_Q2P)</text>
<polygon fill="none" stroke="black" points="2553.1,-57 2553.1,-85 2758.1,-85 2758.1,-57 2553.1,-57"/>
<text text-anchor="start" x="2556.1" y="-74" font-family="Courier New" font-size="10.00" fill="blue"> &#160;&#160;&#160;REF_MACHINE(WTEMP1);</text>
<text text-anchor="start" x="2556.1" y="-63" font-family="Courier New" font-size="10.00" fill="blue"> &#160;&#160;&#160;SETTEXT(ID_MEFTEXT,R_WTEMP3);</text>
<polygon fill="none" stroke="black" points="2550.1,-54 2550.1,-107 2761.1,-107 2761.1,-54 2550.1,-54"/>
</g>
<!-- ratheQ1 -->
<g id="node17" class="node">
<title>ratheQ1</title>
<ellipse fill="none" stroke="black" cx="2784.1" cy="-18" rx="48.19" ry="18"/>
<text text-anchor="middle" x="2784.1" y="-14.3" font-family="Courier New" font-size="14.00">ratheQ1</text>
</g>
<!-- setRathe&#45;&gt;ratheQ1 -->
<g id="edge12" class="edge">
<title>setRathe&#45;&gt;ratheQ1</title>
<path fill="none" stroke="black" d="M2976.63,-143.31C2919.24,-139.66 2827.32,-130.27 2803.1,-107 2787.25,-91.77 2783.08,-66.73 2782.54,-47.24"/>
<polygon fill="black" stroke="black" points="2786.04,-47.26 2782.59,-37.24 2779.04,-47.23 2786.04,-47.26"/>
<polygon fill="none" stroke="black" points="2806.1,-87 2806.1,-104 3017.1,-104 3017.1,-87 2806.1,-87"/>
<text text-anchor="start" x="2866.1" y="-94" font-family="Courier New" font-weight="bold" font-size="10.00" fill="orange">WAIT(0,SIG_Q1S)</text>
<polygon fill="none" stroke="black" points="2806.1,-57 2806.1,-85 3017.1,-85 3017.1,-57 2806.1,-57"/>
<text text-anchor="start" x="2809.1" y="-74" font-family="Courier New" font-size="10.00" fill="blue"> &#160;&#160;&#160;REF_MACHINE(WTEMP1);</text>
<text text-anchor="start" x="2809.1" y="-63" font-family="Courier New" font-size="10.00" fill="blue"> &#160;&#160;&#160;SETTEXT(ID_MEFTEXT,R_WTEMP1); </text>
<polygon fill="none" stroke="black" points="2803.1,-54 2803.1,-107 3020.1,-107 3020.1,-54 2803.1,-54"/>
</g>
<!-- ratheQ1p -->
<g id="node18" class="node">
<title>ratheQ1p</title>
<ellipse fill="none" stroke="black" cx="3024.1" cy="-18" rx="53.89" ry="18"/>
<text text-anchor="middle" x="3024.1" y="-14.3" font-family="Courier New" font-size="14.00">ratheQ1p</text>
</g>
<!-- setRathe&#45;&gt;ratheQ1p -->
<g id="edge13" class="edge">
<title>setRathe&#45;&gt;ratheQ1p</title>
<path fill="none" stroke="black" d="M3024.1,-128.7C3024.1,-107.93 3024.1,-72.26 3024.1,-47.25"/>
<polygon fill="black" stroke="black" points="3027.6,-47.27 3024.1,-37.27 3020.6,-47.27 3027.6,-47.27"/>
<polygon fill="none" stroke="black" points="3027.1,-87 3027.1,-104 3232.1,-104 3232.1,-87 3027.1,-87"/>
<text text-anchor="start" x="3084.1" y="-94" font-family="Courier New" font-weight="bold" font-size="10.00" fill="orange">WAIT(0,SIG_Q1P)</text>
<polygon fill="none" stroke="black" points="3027.1,-57 3027.1,-85 3232.1,-85 3232.1,-57 3027.1,-57"/>
<text text-anchor="start" x="3030.1" y="-74" font-family="Courier New" font-size="10.00" fill="blue"> &#160;&#160;&#160;REF_MACHINE(WTEMP1);</text>
<text text-anchor="start" x="3030.1" y="-63" font-family="Courier New" font-size="10.00" fill="blue"> &#160;&#160;&#160;SETTEXT(ID_MEFTEXT,R_WTEMP3);</text>
<polygon fill="none" stroke="black" points="3024.1,-54 3024.1,-107 3235.1,-107 3235.1,-54 3024.1,-54"/>
</g>
<!-- ratheQ2 -->
<g id="node19" class="node">
<title>ratheQ2</title>
<ellipse fill="none" stroke="black" cx="3258.1" cy="-18" rx="48.19" ry="18"/>
<text text-anchor="middle" x="3258.1" y="-14.3" font-family="Courier New" font-size="14.00">ratheQ2</text>
</g>
<!-- setRathe&#45;&gt;ratheQ2 -->
<g id="edge14" class="edge">
<title>setRathe&#45;&gt;ratheQ2</title>
<path fill="none" stroke="black" d="M3071.45,-142.78C3126.51,-138.64 3212.82,-128.8 3236.1,-107 3252.33,-91.79 3257.35,-66.57 3258.58,-47.02"/>
<polygon fill="black" stroke="black" points="3262.11,-47.39 3258.93,-37.28 3255.11,-47.16 3262.11,-47.39"/>
<polygon fill="none" stroke="black" points="3261.1,-87 3261.1,-104 3472.1,-104 3472.1,-87 3261.1,-87"/>
<text text-anchor="start" x="3321.1" y="-94" font-family="Courier New" font-weight="bold" font-size="10.00" fill="orange">WAIT(0,SIG_Q2S)</text>
<polygon fill="none" stroke="black" points="3261.1,-57 3261.1,-85 3472.1,-85 3472.1,-57 3261.1,-57"/>
<text text-anchor="start" x="3264.1" y="-74" font-family="Courier New" font-size="10.00" fill="blue"> &#160;&#160;&#160;REF_MACHINE(WTEMP1);</text>
<text text-anchor="start" x="3264.1" y="-63" font-family="Courier New" font-size="10.00" fill="blue"> &#160;&#160;&#160;SETTEXT(ID_MEFTEXT,R_WTEMP1); </text>
<polygon fill="none" stroke="black" points="3258.1,-54 3258.1,-107 3475.1,-107 3475.1,-54 3258.1,-54"/>
</g>
<!-- ratheQ2p -->
<g id="node20" class="node">
<title>ratheQ2p</title>
<ellipse fill="none" stroke="black" cx="3498.1" cy="-18" rx="53.89" ry="18"/>
<text text-anchor="middle" x="3498.1" y="-14.3" font-family="Courier New" font-size="14.00">ratheQ2p</text>
</g>
<!-- setRathe&#45;&gt;ratheQ2p -->
<g id="edge15" class="edge">
<title>setRathe&#45;&gt;ratheQ2p</title>
<path fill="none" stroke="black" d="M3071.5,-144.54C3181.24,-141.87 3445.78,-132.82 3476.1,-107 3493.13,-92.49 3498.04,-66.97 3499.02,-47.14"/>
<polygon fill="black" stroke="black" points="3502.54,-47.3 3499.22,-37.24 3495.54,-47.18 3502.54,-47.3"/>
<polygon fill="none" stroke="black" points="3502.1,-87 3502.1,-104 3707.1,-104 3707.1,-87 3502.1,-87"/>
<text text-anchor="start" x="3559.1" y="-94" font-family="Courier New" font-weight="bold" font-size="10.00" fill="orange">WAIT(0,SIG_Q2P)</text>
<polygon fill="none" stroke="black" points="3502.1,-57 3502.1,-85 3707.1,-85 3707.1,-57 3502.1,-57"/>
<text text-anchor="start" x="3505.1" y="-74" font-family="Courier New" font-size="10.00" fill="blue"> &#160;&#160;&#160;REF_MACHINE(WTEMP1);</text>
<text text-anchor="start" x="3505.1" y="-63" font-family="Courier New" font-size="10.00" fill="blue"> &#160;&#160;&#160;SETTEXT(ID_MEFTEXT,R_WTEMP3);</text>
<polygon fill="none" stroke="black" points="3499.1,-54 3499.1,-107 3710.1,-107 3710.1,-54 3499.1,-54"/>
</g>
<!-- thaorQ1 -->
<g id="node22" class="node">
<title>thaorQ1</title>
<ellipse fill="none" stroke="black" cx="3732.1" cy="-18" rx="48.19" ry="18"/>
<text text-anchor="middle" x="3732.1" y="-14.3" font-family="Courier New" font-size="14.00">thaorQ1</text>
</g>
<!-- setThaor&#45;&gt;thaorQ1 -->
<g id="edge16" class="edge">
<title>setThaor&#45;&gt;thaorQ1</title>
<path fill="none" stroke="black" d="M3924.63,-143.31C3867.24,-139.66 3775.32,-130.27 3751.1,-107 3735.25,-91.77 3731.08,-66.73 3730.54,-47.24"/>
<polygon fill="black" stroke="black" points="3734.04,-47.26 3730.59,-37.24 3727.04,-47.23 3734.04,-47.26"/>
<polygon fill="none" stroke="black" points="3754.1,-87 3754.1,-104 3965.1,-104 3965.1,-87 3754.1,-87"/>
<text text-anchor="start" x="3814.1" y="-94" font-family="Courier New" font-weight="bold" font-size="10.00" fill="orange">WAIT(0,SIG_Q1S)</text>
<polygon fill="none" stroke="black" points="3754.1,-57 3754.1,-85 3965.1,-85 3965.1,-57 3754.1,-57"/>
<text text-anchor="start" x="3757.1" y="-74" font-family="Courier New" font-size="10.00" fill="blue"> &#160;&#160;&#160;REF_MACHINE(WTEMP1);</text>
<text text-anchor="start" x="3757.1" y="-63" font-family="Courier New" font-size="10.00" fill="blue"> &#160;&#160;&#160;SETTEXT(ID_MEFTEXT,R_WTEMP1); </text>
<polygon fill="none" stroke="black" points="3751.1,-54 3751.1,-107 3968.1,-107 3968.1,-54 3751.1,-54"/>
</g>
<!-- thaorQ1p -->
<g id="node23" class="node">
<title>thaorQ1p</title>
<ellipse fill="none" stroke="black" cx="3972.1" cy="-18" rx="53.89" ry="18"/>
<text text-anchor="middle" x="3972.1" y="-14.3" font-family="Courier New" font-size="14.00">thaorQ1p</text>
</g>
<!-- setThaor&#45;&gt;thaorQ1p -->
<g id="edge17" class="edge">
<title>setThaor&#45;&gt;thaorQ1p</title>
<path fill="none" stroke="black" d="M3972.1,-128.7C3972.1,-107.93 3972.1,-72.26 3972.1,-47.25"/>
<polygon fill="black" stroke="black" points="3975.6,-47.27 3972.1,-37.27 3968.6,-47.27 3975.6,-47.27"/>
<polygon fill="none" stroke="black" points="3975.1,-87 3975.1,-104 4180.1,-104 4180.1,-87 3975.1,-87"/>
<text text-anchor="start" x="4032.1" y="-94" font-family="Courier New" font-weight="bold" font-size="10.00" fill="orange">WAIT(0,SIG_Q1P)</text>
<polygon fill="none" stroke="black" points="3975.1,-57 3975.1,-85 4180.1,-85 4180.1,-57 3975.1,-57"/>
<text text-anchor="start" x="3978.1" y="-74" font-family="Courier New" font-size="10.00" fill="blue"> &#160;&#160;&#160;REF_MACHINE(WTEMP1);</text>
<text text-anchor="start" x="3978.1" y="-63" font-family="Courier New" font-size="10.00" fill="blue"> &#160;&#160;&#160;SETTEXT(ID_MEFTEXT,R_WTEMP3);</text>
<polygon fill="none" stroke="black" points="3972.1,-54 3972.1,-107 4183.1,-107 4183.1,-54 3972.1,-54"/>
</g>
<!-- thaorQ2 -->
<g id="node24" class="node">
<title>thaorQ2</title>
<ellipse fill="none" stroke="black" cx="4206.1" cy="-18" rx="48.19" ry="18"/>
<text text-anchor="middle" x="4206.1" y="-14.3" font-family="Courier New" font-size="14.00">thaorQ2</text>
</g>
<!-- setThaor&#45;&gt;thaorQ2 -->
<g id="edge18" class="edge">
<title>setThaor&#45;&gt;thaorQ2</title>
<path fill="none" stroke="black" d="M4019.45,-142.78C4074.51,-138.64 4160.82,-128.8 4184.1,-107 4200.33,-91.79 4205.35,-66.57 4206.58,-47.02"/>
<polygon fill="black" stroke="black" points="4210.11,-47.39 4206.93,-37.28 4203.11,-47.16 4210.11,-47.39"/>
<polygon fill="none" stroke="black" points="4209.1,-87 4209.1,-104 4420.1,-104 4420.1,-87 4209.1,-87"/>
<text text-anchor="start" x="4269.1" y="-94" font-family="Courier New" font-weight="bold" font-size="10.00" fill="orange">WAIT(0,SIG_Q2S)</text>
<polygon fill="none" stroke="black" points="4209.1,-57 4209.1,-85 4420.1,-85 4420.1,-57 4209.1,-57"/>
<text text-anchor="start" x="4212.1" y="-74" font-family="Courier New" font-size="10.00" fill="blue"> &#160;&#160;&#160;REF_MACHINE(WTEMP1);</text>
<text text-anchor="start" x="4212.1" y="-63" font-family="Courier New" font-size="10.00" fill="blue"> &#160;&#160;&#160;SETTEXT(ID_MEFTEXT,R_WTEMP1); </text>
<polygon fill="none" stroke="black" points="4206.1,-54 4206.1,-107 4423.1,-107 4423.1,-54 4206.1,-54"/>
</g>
<!-- thaorQ2p -->
<g id="node25" class="node">
<title>thaorQ2p</title>
<ellipse fill="none" stroke="black" cx="4446.1" cy="-18" rx="53.89" ry="18"/>
<text text-anchor="middle" x="4446.1" y="-14.3" font-family="Courier New" font-size="14.00">thaorQ2p</text>
</g>
<!-- setThaor&#45;&gt;thaorQ2p -->
<g id="edge19" class="edge">
<title>setThaor&#45;&gt;thaorQ2p</title>
<path fill="none" stroke="black" d="M4019.5,-144.54C4129.24,-141.87 4393.78,-132.82 4424.1,-107 4441.13,-92.49 4446.04,-66.97 4447.02,-47.14"/>
<polygon fill="black" stroke="black" points="4450.54,-47.3 4447.22,-37.24 4443.54,-47.18 4450.54,-47.3"/>
<polygon fill="none" stroke="black" points="4449.1,-87 4449.1,-104 4654.1,-104 4654.1,-87 4449.1,-87"/>
<text text-anchor="start" x="4506.1" y="-94" font-family="Courier New" font-weight="bold" font-size="10.00" fill="orange">WAIT(0,SIG_Q2P)</text>
<polygon fill="none" stroke="black" points="4449.1,-57 4449.1,-85 4654.1,-85 4654.1,-57 4449.1,-57"/>
<text text-anchor="start" x="4452.1" y="-74" font-family="Courier New" font-size="10.00" fill="blue"> &#160;&#160;&#160;REF_MACHINE(WTEMP1);</text>
<text text-anchor="start" x="4452.1" y="-63" font-family="Courier New" font-size="10.00" fill="blue"> &#160;&#160;&#160;SETTEXT(ID_MEFTEXT,R_WTEMP3);</text>
<polygon fill="none" stroke="black" points="4446.1,-54 4446.1,-107 4657.1,-107 4657.1,-54 4446.1,-54"/>
</g>
<!-- status -->
<g id="node26" class="node">
<title>status</title>
<polygon fill="none" stroke="black" points="2890.6,-382.5 2890.6,-454.5 3177.6,-454.5 3177.6,-382.5 2890.6,-382.5"/>
<polygon fill="none" stroke="black" points="2901.6,-430.5 2901.6,-447.5 3166.6,-447.5 3166.6,-430.5 2901.6,-430.5"/>
<text text-anchor="start" x="2994.6" y="-437.5" font-family="Courier New" font-weight="bold" font-size="10.00">MEFPAN_WAITER</text>
<polygon fill="none" stroke="black" points="2901.6,-389.5 2901.6,-428.5 3166.6,-428.5 3166.6,-389.5 2901.6,-389.5"/>
<text text-anchor="start" x="2904.6" y="-417.5" font-family="Courier New" font-size="10.00" fill="green">VIEW::IDV_MEFPAN @pos(left:10, top:20)</text>
<text text-anchor="start" x="2904.6" y="-406.5" font-family="Courier New" font-size="10.00" fill="green">MEFPAN_WAITER::M_MEFPAN_WAITER(&#39;&#39;,&#39;&#39;,&#39;&#39;,&#39;&#39;)</text>
<text text-anchor="start" x="2904.6" y="-395.5" font-family="Courier New" font-size="10.00" fill="green">{state:&#39;setNeelp&#39;:</text>
<polygon fill="none" stroke="black" points="2898.6,-386.5 2898.6,-450.5 3169.6,-450.5 3169.6,-386.5 2898.6,-386.5"/>
</g>
</g>
</svg>
