<?xml version="1.0" encoding="UTF-8" standalone="no"?>
<!DOCTYPE svg PUBLIC "-//W3C//DTD SVG 1.1//EN"
 "http://www.w3.org/Graphics/SVG/1.1/DTD/svg11.dtd">
<!-- Generated by graphviz version 8.0.1 (20230327.1645)
 -->
<!-- Title: Automaton Pages: 1 -->
<svg width="529pt" height="393pt"
 viewBox="0.00 0.00 529.00 393.00" xmlns="http://www.w3.org/2000/svg" xmlns:xlink="http://www.w3.org/1999/xlink">
<g id="graph0" class="graph" transform="scale(1 1) rotate(0) translate(4 389)">
<title>Automaton</title>
<polygon fill="white" stroke="none" points="-4,4 -4,-389 525,-389 525,4 -4,4"/>
<!-- filename -->
<g id="node1" class="node">
<title>filename</title>
<polygon fill="none" stroke="black" points="0,-323.5 0,-373.5 161,-373.5 161,-323.5 0,-323.5"/>
<polygon fill="none" stroke="black" points="11,-349.5 11,-366.5 150,-366.5 150,-349.5 11,-349.5"/>
<text text-anchor="start" x="14" y="-356.5" font-family="Courier New" font-weight="bold" font-size="10.00">MEFPAN_OK::M_MEFPAN_OK</text>
<polygon fill="none" stroke="black" points="11,-330.5 11,-347.5 150,-347.5 150,-330.5 11,-330.5"/>
<text text-anchor="start" x="35" y="-336.5" font-family="Courier New" font-size="10.00" fill="brown">start state = 0</text>
<polygon fill="none" stroke="black" points="8,-327.5 8,-369.5 153,-369.5 153,-327.5 8,-327.5"/>
</g>
<!-- 0 -->
<g id="node2" class="node">
<title>0</title>
<polyline fill="none" stroke="darkred" points="199,-338 214,-338"/>
<text text-anchor="start" x="202" y="-345.8" font-family="Courier New" font-weight="bold" font-size="14.00">0</text>
<path fill="none" stroke="darkred" d="M203,-335C203,-335 210,-335 210,-335 213.5,-335 217,-338.5 217,-342 217,-342 217,-355 217,-355 217,-358.5 213.5,-362 210,-362 210,-362 203,-362 203,-362 199.5,-362 196,-358.5 196,-355 196,-355 196,-342 196,-342 196,-338.5 199.5,-335 203,-335"/>
</g>
<!-- 1 -->
<g id="node3" class="node">
<title>1</title>
<polyline fill="none" stroke="darkred" stroke-width="3" points="198.5,-201.5 214.5,-201.5"/>
<text text-anchor="start" x="202" y="-209.8" font-family="Courier New" font-weight="bold" font-size="14.00">1</text>
<path fill="none" stroke="darkred" stroke-width="3" d="M202.17,-196.5C202.17,-196.5 210.83,-196.5 210.83,-196.5 215.17,-196.5 219.5,-200.83 219.5,-205.17 219.5,-205.17 219.5,-219.83 219.5,-219.83 219.5,-224.17 215.17,-228.5 210.83,-228.5 210.83,-228.5 202.17,-228.5 202.17,-228.5 197.83,-228.5 193.5,-224.17 193.5,-219.83 193.5,-219.83 193.5,-205.17 193.5,-205.17 193.5,-200.83 197.83,-196.5 202.17,-196.5"/>
</g>
<!-- 0&#45;&gt;1 -->
<g id="edge1" class="edge">
<title>0&#45;&gt;1</title>
<path fill="none" stroke="black" d="M206.5,-330.53C206.5,-308.96 206.5,-271.32 206.5,-244.56"/>
<polygon fill="black" stroke="black" points="210,-244.83 206.5,-234.83 203,-244.83 210,-244.83"/>
<polygon fill="none" stroke="black" points="209.5,-274 209.5,-291 324.5,-291 324.5,-274 209.5,-274"/>
<text text-anchor="start" x="212.5" y="-281" font-family="Courier New" font-weight="bold" font-size="10.00" fill="blue">SHOW(0,IDS_BTN_OK)</text>
<polygon fill="none" stroke="black" points="209.5,-255 209.5,-272 324.5,-272 324.5,-255 209.5,-255"/>
<text text-anchor="start" x="215.5" y="-261" font-family="Courier New" font-size="10.00" fill="blue"> &#160;&#160;&#160;CLEAR(WPARM);</text>
<polygon fill="none" stroke="black" points="206.5,-252 206.5,-294 327.5,-294 327.5,-252 206.5,-252"/>
</g>
<!-- 2 -->
<g id="node4" class="node">
<title>2</title>
<polyline fill="none" stroke="darkred" points="199,-7.5 214,-7.5"/>
<text text-anchor="start" x="202" y="-15.3" font-family="Courier New" font-weight="bold" font-size="14.00">2</text>
<path fill="none" stroke="darkred" d="M203,-4.5C203,-4.5 210,-4.5 210,-4.5 213.5,-4.5 217,-8 217,-11.5 217,-11.5 217,-24.5 217,-24.5 217,-28 213.5,-31.5 210,-31.5 210,-31.5 203,-31.5 203,-31.5 199.5,-31.5 196,-28 196,-24.5 196,-24.5 196,-11.5 196,-11.5 196,-8 199.5,-4.5 203,-4.5"/>
</g>
<!-- 1&#45;&gt;2 -->
<g id="edge2" class="edge">
<title>1&#45;&gt;2</title>
<path fill="none" stroke="black" d="M179.58,-208.15C142.19,-202.87 77.54,-191.32 63.5,-173 31.33,-131.02 30.85,-95.61 63.5,-54 76.39,-37.58 131.07,-27.86 168.95,-22.98"/>
<polygon fill="black" stroke="black" points="169.12,-26.36 178.62,-21.67 168.27,-19.41 169.12,-26.36"/>
<polygon fill="none" stroke="black" points="66.5,-153 66.5,-170 325.5,-170 325.5,-153 66.5,-153"/>
<text text-anchor="start" x="165.5" y="-160" font-family="Courier New" font-weight="bold" font-size="10.00" fill="orange">CLICK(0,0)</text>
<polygon fill="none" stroke="black" points="66.5,-57 66.5,-151 325.5,-151 325.5,-57 66.5,-57"/>
<text text-anchor="start" x="69.5" y="-140" font-family="Courier New" font-size="10.00" fill="blue"> &#160;&#160;&#160;REF_MACHINE(MEFCURRENT);</text>
<text text-anchor="start" x="69.5" y="-129" font-family="Courier New" font-size="10.00" fill="blue"> &#160;&#160;&#160;PLAYWAVE(SOUND_POPUP);</text>
<text text-anchor="start" x="69.5" y="-118" font-family="Courier New" font-size="10.00" fill="blue"> &#160;&#160;&#160;SIGNAL(R_WPARM,SIG_CLOSE);</text>
<text text-anchor="start" x="69.5" y="-107" font-family="Courier New" font-size="10.00" fill="blue"> &#160;&#160;&#160;SIGNAL(MEFPAN_VIEWCAP,SIG_VIEWRETURN);</text>
<text text-anchor="start" x="69.5" y="-96" font-family="Courier New" font-size="10.00" fill="blue"> &#160;&#160;&#160;SIGNAL(MEFPAN_WAITER,SIG_RESET);</text>
<text text-anchor="start" x="69.5" y="-85" font-family="Courier New" font-size="10.00" fill="blue"> &#160;&#160;&#160;SIGNAL(MEFPAN_PRIZE_A,SIG_RESET);</text>
<text text-anchor="start" x="69.5" y="-74" font-family="Courier New" font-size="10.00" fill="blue"> &#160;&#160;&#160;SIGNAL(MEFPAN_PRIZE_B,SIG_RESET);</text>
<text text-anchor="start" x="69.5" y="-63" font-family="Courier New" font-size="10.00" fill="blue"> &#160;&#160;&#160;SIGNAL(MEFPAN_PRIZE_C,SIG_RESET);</text>
<polygon fill="none" stroke="black" points="63.5,-54 63.5,-173 328.5,-173 328.5,-54 63.5,-54"/>
</g>
<!-- 2&#45;&gt;1 -->
<g id="edge3" class="edge">
<title>2&#45;&gt;1</title>
<path fill="none" stroke="black" d="M233.49,-18.12C262.26,-18.82 306.62,-24.96 328.5,-54 360.33,-96.24 359.77,-130.34 328.5,-173 309.32,-199.17 272.29,-208.01 244.04,-210.78"/>
<polygon fill="black" stroke="black" points="244.02,-207.34 234.31,-211.58 244.55,-214.32 244.02,-207.34"/>
<text text-anchor="start" x="355.5" y="-112" font-family="Courier New" font-weight="bold" font-size="10.00" fill="blue">Z_EPSILON(,)</text>
</g>
<!-- status -->
<g id="node5" class="node">
<title>status</title>
<polygon fill="none" stroke="black" points="252,-312.5 252,-384.5 521,-384.5 521,-312.5 252,-312.5"/>
<polygon fill="none" stroke="black" points="263,-360.5 263,-377.5 510,-377.5 510,-360.5 263,-360.5"/>
<text text-anchor="start" x="359" y="-367.5" font-family="Courier New" font-weight="bold" font-size="10.00">MEFPAN_OK</text>
<polygon fill="none" stroke="black" points="263,-319.5 263,-358.5 510,-358.5 510,-319.5 263,-319.5"/>
<text text-anchor="start" x="266" y="-347.5" font-family="Courier New" font-size="10.00" fill="green">VIEW::IDV_MEFPAN @pos(left:490, top:215)</text>
<text text-anchor="start" x="266" y="-336.5" font-family="Courier New" font-size="10.00" fill="green">MEFPAN_OK::M_MEFPAN_OK(&#39;&#39;,&#39;&#39;,&#39;&#39;,&#39;&#39;)</text>
<text text-anchor="start" x="266" y="-325.5" font-family="Courier New" font-size="10.00" fill="green">{state:&#39;1&#39;: wSprite:IDS_BTN_OK</text>
<polygon fill="none" stroke="black" points="260,-316.5 260,-380.5 513,-380.5 513,-316.5 260,-316.5"/>
</g>
</g>
</svg>
