<?xml version="1.0" encoding="UTF-8" standalone="no"?>
<!DOCTYPE svg PUBLIC "-//W3C//DTD SVG 1.1//EN"
 "http://www.w3.org/Graphics/SVG/1.1/DTD/svg11.dtd">
<!-- Generated by graphviz version 8.0.1 (20230327.1645)
 -->
<!-- Title: Automaton Pages: 1 -->
<svg width="683pt" height="417pt"
 viewBox="0.00 0.00 682.86 417.00" xmlns="http://www.w3.org/2000/svg" xmlns:xlink="http://www.w3.org/1999/xlink">
<g id="graph0" class="graph" transform="scale(1 1) rotate(0) translate(4 413)">
<title>Automaton</title>
<polygon fill="white" stroke="none" points="-4,4 -4,-413 678.86,-413 678.86,4 -4,4"/>
<!-- filename -->
<g id="node1" class="node">
<title>filename</title>
<polygon fill="none" stroke="black" points="81.86,-347.5 81.86,-397.5 290.86,-397.5 290.86,-347.5 81.86,-347.5"/>
<polygon fill="none" stroke="black" points="92.86,-373.5 92.86,-390.5 279.86,-390.5 279.86,-373.5 92.86,-373.5"/>
<text text-anchor="start" x="95.86" y="-380.5" font-family="Courier New" font-weight="bold" font-size="10.00">MEFPAN_PRIZE_A::M_MEFPAN_PRIZE</text>
<polygon fill="none" stroke="black" points="92.86,-354.5 92.86,-371.5 279.86,-371.5 279.86,-354.5 92.86,-354.5"/>
<text text-anchor="start" x="140.86" y="-360.5" font-family="Courier New" font-size="10.00" fill="brown">start state = 0</text>
<polygon fill="none" stroke="black" points="89.86,-351.5 89.86,-393.5 282.86,-393.5 282.86,-351.5 89.86,-351.5"/>
</g>
<!-- 0 -->
<g id="node2" class="node">
<title>0</title>
<polyline fill="none" stroke="darkred" points="328.86,-362 343.86,-362"/>
<text text-anchor="start" x="331.86" y="-369.8" font-family="Courier New" font-weight="bold" font-size="14.00">0</text>
<path fill="none" stroke="darkred" d="M332.86,-359C332.86,-359 339.86,-359 339.86,-359 343.36,-359 346.86,-362.5 346.86,-366 346.86,-366 346.86,-379 346.86,-379 346.86,-382.5 343.36,-386 339.86,-386 339.86,-386 332.86,-386 332.86,-386 329.36,-386 325.86,-382.5 325.86,-379 325.86,-379 325.86,-366 325.86,-366 325.86,-362.5 329.36,-359 332.86,-359"/>
</g>
<!-- setup -->
<g id="node3" class="node">
<title>setup</title>
<polyline fill="none" stroke="darkred" stroke-width="3" points="44.86,-248.5 93.86,-248.5"/>
<text text-anchor="start" x="48.36" y="-256.8" font-family="Courier New" font-weight="bold" font-size="14.00">setup</text>
<path fill="none" stroke="darkred" stroke-width="3" d="M50.53,-243.5C50.53,-243.5 88.19,-243.5 88.19,-243.5 93.53,-243.5 98.86,-248.83 98.86,-254.17 98.86,-254.17 98.86,-264.83 98.86,-264.83 98.86,-270.17 93.53,-275.5 88.19,-275.5 88.19,-275.5 50.53,-275.5 50.53,-275.5 45.19,-275.5 39.86,-270.17 39.86,-264.83 39.86,-264.83 39.86,-254.17 39.86,-254.17 39.86,-248.83 45.19,-243.5 50.53,-243.5"/>
</g>
<!-- 0&#45;&gt;setup -->
<g id="edge1" class="edge">
<title>0&#45;&gt;setup</title>
<path fill="none" stroke="black" d="M321.86,-354.52C315.52,-347.96 307.64,-340.88 299.36,-336 276.11,-322.29 267.05,-326.28 241.36,-318 199.81,-304.61 152.81,-288.86 118.45,-277.23"/>
<polygon fill="black" stroke="black" points="119.81,-273.65 109.22,-273.76 117.57,-280.28 119.81,-273.65"/>
<text text-anchor="start" x="245.36" y="-307" font-family="Courier New" font-weight="bold" font-size="10.00" fill="blue">Z_EPSILON(,)</text>
</g>
<!-- pickPrize -->
<g id="node4" class="node">
<title>pickPrize</title>
<polyline fill="none" stroke="darkred" points="76.86,-98.5 157.86,-98.5"/>
<text text-anchor="start" x="79.86" y="-106.3" font-family="Courier New" font-weight="bold" font-size="14.00">pickPrize</text>
<path fill="none" stroke="darkred" d="M82.86,-95.5C82.86,-95.5 151.86,-95.5 151.86,-95.5 156.36,-95.5 160.86,-100 160.86,-104.5 160.86,-104.5 160.86,-113.5 160.86,-113.5 160.86,-118 156.36,-122.5 151.86,-122.5 151.86,-122.5 82.86,-122.5 82.86,-122.5 78.36,-122.5 73.86,-118 73.86,-113.5 73.86,-113.5 73.86,-104.5 73.86,-104.5 73.86,-100 78.36,-95.5 82.86,-95.5"/>
</g>
<!-- setup&#45;&gt;pickPrize -->
<g id="edge3" class="edge">
<title>setup&#45;&gt;pickPrize</title>
<path fill="none" stroke="black" d="M30.57,-239.29C23.65,-234.03 17.37,-227.62 13.36,-220 -2.16,-190.5 -6.09,-172.07 13.36,-145 23.44,-130.97 39.43,-122.49 55.87,-117.39"/>
<polygon fill="black" stroke="black" points="56.38,-120.6 65.12,-114.62 54.56,-113.85 56.38,-120.6"/>
<polygon fill="none" stroke="black" points="16.36,-200 16.36,-217 311.36,-217 311.36,-200 16.36,-200"/>
<text text-anchor="start" x="100.36" y="-207" font-family="Courier New" font-weight="bold" font-size="10.00" fill="orange">WAIT(0,SIG_SHOWPRIZE)</text>
<polygon fill="none" stroke="black" points="16.36,-148 16.36,-198 311.36,-198 311.36,-148 16.36,-148"/>
<text text-anchor="start" x="19.36" y="-187" font-family="Courier New" font-size="10.00" fill="blue"> &#160;&#160;&#160;REF_MACHINE(MEFCURRENT);</text>
<text text-anchor="start" x="19.36" y="-176" font-family="Courier New" font-size="10.00" fill="blue"> &#160;&#160;&#160;REF_MACHINE(R_WPARM); </text>
<text text-anchor="start" x="19.36" y="-165" font-family="Courier New" font-size="10.00" fill="blue"> &#160;&#160;&#160;MOV(WPARM,R_WPARM); // Should be the cacheid</text>
<text text-anchor="start" x="19.36" y="-154" font-family="Courier New" font-size="10.00" fill="blue"> &#160;&#160;&#160;mefPrize(WPARM,WIP1,?WOBJECT);</text>
<polygon fill="none" stroke="black" points="13.36,-145 13.36,-220 314.36,-220 314.36,-145 13.36,-145"/>
</g>
<!-- showPrize -->
<g id="node5" class="node">
<title>showPrize</title>
<polyline fill="none" stroke="darkred" points="295.86,-7.5 376.86,-7.5"/>
<text text-anchor="start" x="298.86" y="-15.3" font-family="Courier New" font-weight="bold" font-size="14.00">showPrize</text>
<path fill="none" stroke="darkred" d="M301.86,-4.5C301.86,-4.5 370.86,-4.5 370.86,-4.5 375.36,-4.5 379.86,-9 379.86,-13.5 379.86,-13.5 379.86,-22.5 379.86,-22.5 379.86,-27 375.36,-31.5 370.86,-31.5 370.86,-31.5 301.86,-31.5 301.86,-31.5 297.36,-31.5 292.86,-27 292.86,-22.5 292.86,-22.5 292.86,-13.5 292.86,-13.5 292.86,-9 297.36,-4.5 301.86,-4.5"/>
</g>
<!-- pickPrize&#45;&gt;showPrize -->
<g id="edge2" class="edge">
<title>pickPrize&#45;&gt;showPrize</title>
<path fill="none" stroke="black" d="M146.88,-91.24C167.8,-79.79 196.76,-64.8 223.36,-54 239.75,-47.34 257.9,-41.21 274.77,-35.99"/>
<polygon fill="black" stroke="black" points="275.53,-39.11 284.08,-32.86 273.5,-32.41 275.53,-39.11"/>
<text text-anchor="start" x="227.36" y="-62" font-family="Courier New" font-weight="bold" font-size="10.00" fill="blue">ASHOW(WOBJECT,)</text>
</g>
<!-- showPrize&#45;&gt;0 -->
<g id="edge4" class="edge">
<title>showPrize&#45;&gt;0</title>
<path fill="none" stroke="black" d="M336.36,-35.9C336.36,-92.31 336.36,-274.41 336.36,-344.06"/>
<polygon fill="black" stroke="black" points="332.86,-343.97 336.36,-353.97 339.86,-343.97 332.86,-343.97"/>
<polygon fill="none" stroke="black" points="339.36,-183.5 339.36,-200.5 418.36,-200.5 418.36,-183.5 339.36,-183.5"/>
<text text-anchor="start" x="357.36" y="-190.5" font-family="Courier New" font-weight="bold" font-size="10.00" fill="orange">GRAB(,)</text>
<polygon fill="none" stroke="black" points="339.36,-164.5 339.36,-181.5 418.36,-181.5 418.36,-164.5 339.36,-164.5"/>
<text text-anchor="start" x="342.36" y="-170.5" font-family="Courier New" font-size="10.00" fill="blue"> &#160;&#160;&#160;SHOW(0);</text>
<polygon fill="none" stroke="black" points="336.36,-161.5 336.36,-203.5 421.36,-203.5 421.36,-161.5 336.36,-161.5"/>
</g>
<!-- showPrize&#45;&gt;0 -->
<g id="edge5" class="edge">
<title>showPrize&#45;&gt;0</title>
<path fill="none" stroke="black" d="M352.99,-35.95C373.92,-58.58 408.76,-100.97 422.36,-145 445.36,-219.51 389.94,-304.89 357.62,-346.32"/>
<polygon fill="black" stroke="black" points="354.43,-343.71 350.92,-353.71 359.9,-348.08 354.43,-343.71"/>
<polygon fill="none" stroke="black" points="431.36,-183.5 431.36,-200.5 540.36,-200.5 540.36,-183.5 431.36,-183.5"/>
<text text-anchor="start" x="434.36" y="-190.5" font-family="Courier New" font-weight="bold" font-size="10.00" fill="orange">WAIT(0,SIG_RESET)</text>
<polygon fill="none" stroke="black" points="431.36,-164.5 431.36,-181.5 540.36,-181.5 540.36,-164.5 431.36,-164.5"/>
<text text-anchor="start" x="449.36" y="-170.5" font-family="Courier New" font-size="10.00" fill="blue"> &#160;&#160;&#160;SHOW(0);</text>
<polygon fill="none" stroke="black" points="428.36,-161.5 428.36,-203.5 543.36,-203.5 543.36,-161.5 428.36,-161.5"/>
</g>
<!-- status -->
<g id="node6" class="node">
<title>status</title>
<polygon fill="none" stroke="black" points="381.86,-336.5 381.86,-408.5 674.86,-408.5 674.86,-336.5 381.86,-336.5"/>
<polygon fill="none" stroke="black" points="392.86,-384.5 392.86,-401.5 663.86,-401.5 663.86,-384.5 392.86,-384.5"/>
<text text-anchor="start" x="485.86" y="-391.5" font-family="Courier New" font-weight="bold" font-size="10.00">MEFPAN_PRIZE_A</text>
<polygon fill="none" stroke="black" points="392.86,-343.5 392.86,-382.5 663.86,-382.5 663.86,-343.5 392.86,-343.5"/>
<text text-anchor="start" x="395.86" y="-371.5" font-family="Courier New" font-size="10.00" fill="green">VIEW::IDV_MEFPAN @pos(left:545, top:75)</text>
<text text-anchor="start" x="395.86" y="-360.5" font-family="Courier New" font-size="10.00" fill="green">MEFPAN_PRIZE_A::M_MEFPAN_PRIZE(&#39;a&#39;,&#39;&#39;,&#39;&#39;,&#39;&#39;)</text>
<text text-anchor="start" x="395.86" y="-349.5" font-family="Courier New" font-size="10.00" fill="green">{state:&#39;setup&#39;: wParm:8</text>
<polygon fill="none" stroke="black" points="389.86,-340.5 389.86,-404.5 666.86,-404.5 666.86,-340.5 389.86,-340.5"/>
</g>
</g>
</svg>
