<?xml version="1.0" encoding="UTF-8" standalone="no"?>
<!DOCTYPE svg PUBLIC "-//W3C//DTD SVG 1.1//EN"
 "http://www.w3.org/Graphics/SVG/1.1/DTD/svg11.dtd">
<!-- Generated by graphviz version 8.0.1 (20230327.1645)
 -->
<!-- Title: Automaton Pages: 1 -->
<svg width="797pt" height="417pt"
 viewBox="0.00 0.00 797.06 417.00" xmlns="http://www.w3.org/2000/svg" xmlns:xlink="http://www.w3.org/1999/xlink">
<g id="graph0" class="graph" transform="scale(1 1) rotate(0) translate(4 413)">
<title>Automaton</title>
<polygon fill="white" stroke="none" points="-4,4 -4,-413 793.06,-413 793.06,4 -4,4"/>
<!-- filename -->
<g id="node1" class="node">
<title>filename</title>
<polygon fill="none" stroke="black" points="82.06,-347.5 82.06,-397.5 291.06,-397.5 291.06,-347.5 82.06,-347.5"/>
<polygon fill="none" stroke="black" points="93.06,-373.5 93.06,-390.5 280.06,-390.5 280.06,-373.5 93.06,-373.5"/>
<text text-anchor="start" x="96.06" y="-380.5" font-family="Courier New" font-weight="bold" font-size="10.00">MEFPAN_PRIZE_B::M_MEFPAN_PRIZE</text>
<polygon fill="none" stroke="black" points="93.06,-354.5 93.06,-371.5 280.06,-371.5 280.06,-354.5 93.06,-354.5"/>
<text text-anchor="start" x="141.06" y="-360.5" font-family="Courier New" font-size="10.00" fill="brown">start state = 0</text>
<polygon fill="none" stroke="black" points="90.06,-351.5 90.06,-393.5 283.06,-393.5 283.06,-351.5 90.06,-351.5"/>
</g>
<!-- 0 -->
<g id="node2" class="node">
<title>0</title>
<polyline fill="none" stroke="darkred" points="329.06,-362 344.06,-362"/>
<text text-anchor="start" x="332.06" y="-369.8" font-family="Courier New" font-weight="bold" font-size="14.00">0</text>
<path fill="none" stroke="darkred" d="M333.06,-359C333.06,-359 340.06,-359 340.06,-359 343.56,-359 347.06,-362.5 347.06,-366 347.06,-366 347.06,-379 347.06,-379 347.06,-382.5 343.56,-386 340.06,-386 340.06,-386 333.06,-386 333.06,-386 329.56,-386 326.06,-382.5 326.06,-379 326.06,-379 326.06,-366 326.06,-366 326.06,-362.5 329.56,-359 333.06,-359"/>
</g>
<!-- setup -->
<g id="node3" class="node">
<title>setup</title>
<polyline fill="none" stroke="darkred" points="45.56,-252.5 93.56,-252.5"/>
<text text-anchor="start" x="48.56" y="-260.3" font-family="Courier New" font-weight="bold" font-size="14.00">setup</text>
<path fill="none" stroke="darkred" d="M51.56,-249.5C51.56,-249.5 87.56,-249.5 87.56,-249.5 92.06,-249.5 96.56,-254 96.56,-258.5 96.56,-258.5 96.56,-267.5 96.56,-267.5 96.56,-272 92.06,-276.5 87.56,-276.5 87.56,-276.5 51.56,-276.5 51.56,-276.5 47.06,-276.5 42.56,-272 42.56,-267.5 42.56,-267.5 42.56,-258.5 42.56,-258.5 42.56,-254 47.06,-249.5 51.56,-249.5"/>
</g>
<!-- 0&#45;&gt;setup -->
<g id="edge1" class="edge">
<title>0&#45;&gt;setup</title>
<path fill="none" stroke="black" d="M322.06,-354.52C315.72,-347.96 307.84,-340.88 299.56,-336 276.31,-322.29 267.32,-326.04 241.56,-318 198.51,-304.56 149.43,-289.14 114.75,-278.23"/>
<polygon fill="black" stroke="black" points="116.06,-274.66 105.47,-275 113.96,-281.34 116.06,-274.66"/>
<text text-anchor="start" x="245.56" y="-307" font-family="Courier New" font-weight="bold" font-size="10.00" fill="blue">Z_EPSILON(,)</text>
</g>
<!-- pickPrize -->
<g id="node4" class="node">
<title>pickPrize</title>
<polyline fill="none" stroke="darkred" points="77.06,-105.5 158.06,-105.5"/>
<text text-anchor="start" x="80.06" y="-113.3" font-family="Courier New" font-weight="bold" font-size="14.00">pickPrize</text>
<path fill="none" stroke="darkred" d="M83.06,-102.5C83.06,-102.5 152.06,-102.5 152.06,-102.5 156.56,-102.5 161.06,-107 161.06,-111.5 161.06,-111.5 161.06,-120.5 161.06,-120.5 161.06,-125 156.56,-129.5 152.06,-129.5 152.06,-129.5 83.06,-129.5 83.06,-129.5 78.56,-129.5 74.06,-125 74.06,-120.5 74.06,-120.5 74.06,-111.5 74.06,-111.5 74.06,-107 78.56,-102.5 83.06,-102.5"/>
</g>
<!-- setup&#45;&gt;pickPrize -->
<g id="edge3" class="edge">
<title>setup&#45;&gt;pickPrize</title>
<path fill="none" stroke="black" d="M34.6,-247.6C26.23,-242.4 18.34,-235.62 13.56,-227 -2.6,-197.85 -5.89,-179.07 13.56,-152 23.64,-137.97 39.63,-129.49 56.07,-124.39"/>
<polygon fill="black" stroke="black" points="56.58,-127.6 65.32,-121.62 54.76,-120.85 56.58,-127.6"/>
<polygon fill="none" stroke="black" points="16.56,-207 16.56,-224 311.56,-224 311.56,-207 16.56,-207"/>
<text text-anchor="start" x="100.56" y="-214" font-family="Courier New" font-weight="bold" font-size="10.00" fill="orange">WAIT(0,SIG_SHOWPRIZE)</text>
<polygon fill="none" stroke="black" points="16.56,-155 16.56,-205 311.56,-205 311.56,-155 16.56,-155"/>
<text text-anchor="start" x="19.56" y="-194" font-family="Courier New" font-size="10.00" fill="blue"> &#160;&#160;&#160;REF_MACHINE(MEFCURRENT);</text>
<text text-anchor="start" x="19.56" y="-183" font-family="Courier New" font-size="10.00" fill="blue"> &#160;&#160;&#160;REF_MACHINE(R_WPARM); </text>
<text text-anchor="start" x="19.56" y="-172" font-family="Courier New" font-size="10.00" fill="blue"> &#160;&#160;&#160;MOV(WPARM,R_WPARM); // Should be the cacheid</text>
<text text-anchor="start" x="19.56" y="-161" font-family="Courier New" font-size="10.00" fill="blue"> &#160;&#160;&#160;mefPrize(WPARM,WIP1,?WOBJECT);</text>
<polygon fill="none" stroke="black" points="13.56,-152 13.56,-227 314.56,-227 314.56,-152 13.56,-152"/>
</g>
<!-- showPrize -->
<g id="node5" class="node">
<title>showPrize</title>
<polyline fill="none" stroke="darkred" stroke-width="3" points="295.56,-10.5 377.56,-10.5"/>
<text text-anchor="start" x="299.06" y="-18.8" font-family="Courier New" font-weight="bold" font-size="14.00">showPrize</text>
<path fill="none" stroke="darkred" stroke-width="3" d="M301.23,-5.5C301.23,-5.5 371.89,-5.5 371.89,-5.5 377.23,-5.5 382.56,-10.83 382.56,-16.17 382.56,-16.17 382.56,-26.83 382.56,-26.83 382.56,-32.17 377.23,-37.5 371.89,-37.5 371.89,-37.5 301.23,-37.5 301.23,-37.5 295.89,-37.5 290.56,-32.17 290.56,-26.83 290.56,-26.83 290.56,-16.17 290.56,-16.17 290.56,-10.83 295.89,-5.5 301.23,-5.5"/>
</g>
<!-- pickPrize&#45;&gt;showPrize -->
<g id="edge2" class="edge">
<title>pickPrize&#45;&gt;showPrize</title>
<path fill="none" stroke="black" d="M147.63,-98.23C168.55,-86.92 197.31,-72.09 223.56,-61 238.67,-54.61 255.24,-48.5 270.93,-43.09"/>
<polygon fill="black" stroke="black" points="271.73,-46.17 280.08,-39.65 269.48,-39.55 271.73,-46.17"/>
<text text-anchor="start" x="227.56" y="-69" font-family="Courier New" font-weight="bold" font-size="10.00" fill="blue">ASHOW(WOBJECT,)</text>
</g>
<!-- showPrize&#45;&gt;0 -->
<g id="edge4" class="edge">
<title>showPrize&#45;&gt;0</title>
<path fill="none" stroke="black" d="M336.56,-42.56C336.56,-101.8 336.56,-276.11 336.56,-344"/>
<polygon fill="black" stroke="black" points="333.06,-343.67 336.56,-353.67 340.06,-343.67 333.06,-343.67"/>
<polygon fill="none" stroke="black" points="339.56,-190.5 339.56,-207.5 418.56,-207.5 418.56,-190.5 339.56,-190.5"/>
<text text-anchor="start" x="357.56" y="-197.5" font-family="Courier New" font-weight="bold" font-size="10.00" fill="orange">GRAB(,)</text>
<polygon fill="none" stroke="black" points="339.56,-171.5 339.56,-188.5 418.56,-188.5 418.56,-171.5 339.56,-171.5"/>
<text text-anchor="start" x="342.56" y="-177.5" font-family="Courier New" font-size="10.00" fill="blue"> &#160;&#160;&#160;SHOW(0);</text>
<polygon fill="none" stroke="black" points="336.56,-168.5 336.56,-210.5 421.56,-210.5 421.56,-168.5 336.56,-168.5"/>
</g>
<!-- showPrize&#45;&gt;0 -->
<g id="edge5" class="edge">
<title>showPrize&#45;&gt;0</title>
<path fill="none" stroke="black" d="M355.79,-42.93C376.91,-66.89 409.54,-108.85 422.56,-152 432.19,-183.91 431.4,-194.86 422.56,-227 409.97,-272.77 378.67,-318.7 357.52,-346.12"/>
<polygon fill="black" stroke="black" points="354.21,-343.66 350.77,-353.68 359.71,-347.99 354.21,-343.66"/>
<polygon fill="none" stroke="black" points="432.56,-190.5 432.56,-207.5 541.56,-207.5 541.56,-190.5 432.56,-190.5"/>
<text text-anchor="start" x="435.56" y="-197.5" font-family="Courier New" font-weight="bold" font-size="10.00" fill="orange">WAIT(0,SIG_RESET)</text>
<polygon fill="none" stroke="black" points="432.56,-171.5 432.56,-188.5 541.56,-188.5 541.56,-171.5 432.56,-171.5"/>
<text text-anchor="start" x="450.56" y="-177.5" font-family="Courier New" font-size="10.00" fill="blue"> &#160;&#160;&#160;SHOW(0);</text>
<polygon fill="none" stroke="black" points="429.56,-168.5 429.56,-210.5 544.56,-210.5 544.56,-168.5 429.56,-168.5"/>
</g>
<!-- status -->
<g id="node6" class="node">
<title>status</title>
<polygon fill="none" stroke="black" points="382.06,-336.5 382.06,-408.5 789.06,-408.5 789.06,-336.5 382.06,-336.5"/>
<polygon fill="none" stroke="black" points="393.06,-384.5 393.06,-401.5 778.06,-401.5 778.06,-384.5 393.06,-384.5"/>
<text text-anchor="start" x="543.06" y="-391.5" font-family="Courier New" font-weight="bold" font-size="10.00">MEFPAN_PRIZE_B</text>
<polygon fill="none" stroke="black" points="393.06,-343.5 393.06,-382.5 778.06,-382.5 778.06,-343.5 393.06,-343.5"/>
<text text-anchor="start" x="396.06" y="-371.5" font-family="Courier New" font-size="10.00" fill="green">VIEW::IDV_MEFPAN @pos(left:545, top:144)</text>
<text text-anchor="start" x="396.06" y="-360.5" font-family="Courier New" font-size="10.00" fill="green">MEFPAN_PRIZE_B::M_MEFPAN_PRIZE(&#39;b&#39;,&#39;&#39;,&#39;&#39;,&#39;&#39;)</text>
<text text-anchor="start" x="396.06" y="-349.5" font-family="Courier New" font-size="10.00" fill="green">{state:&#39;showPrize&#39;: wParm:8 wObject:IDD_BLINDNESS wSprite:blind</text>
<polygon fill="none" stroke="black" points="390.06,-340.5 390.06,-404.5 781.06,-404.5 781.06,-340.5 390.06,-340.5"/>
</g>
</g>
</svg>
