<?xml version="1.0" encoding="UTF-8" standalone="no"?>
<!DOCTYPE svg PUBLIC "-//W3C//DTD SVG 1.1//EN"
 "http://www.w3.org/Graphics/SVG/1.1/DTD/svg11.dtd">
<!-- Generated by graphviz version 8.0.1 (20230327.1645)
 -->
<!-- Title: Automaton Pages: 1 -->
<svg width="2680pt" height="481pt"
 viewBox="0.00 0.00 2680.25 481.00" xmlns="http://www.w3.org/2000/svg" xmlns:xlink="http://www.w3.org/1999/xlink">
<g id="graph0" class="graph" transform="scale(1 1) rotate(0) translate(4 477)">
<title>Automaton</title>
<polygon fill="white" stroke="none" points="-4,4 -4,-477 2676.25,-477 2676.25,4 -4,4"/>
<!-- filename -->
<g id="node1" class="node">
<title>filename</title>
<polygon fill="none" stroke="black" points="1537.75,-384 1537.75,-434 1746.75,-434 1746.75,-384 1537.75,-384"/>
<polygon fill="none" stroke="black" points="1548.75,-410 1548.75,-427 1735.75,-427 1735.75,-410 1548.75,-410"/>
<text text-anchor="start" x="1551.75" y="-417" font-family="Courier New" font-weight="bold" font-size="10.00">MEFPAN_WAITER::M_MEFPAN_WAITER</text>
<polygon fill="none" stroke="black" points="1548.75,-391 1548.75,-408 1735.75,-408 1735.75,-391 1548.75,-391"/>
<text text-anchor="start" x="1596.75" y="-397" font-family="Courier New" font-size="10.00" fill="brown">start state = 0</text>
<polygon fill="none" stroke="black" points="1545.75,-388 1545.75,-430 1738.75,-430 1738.75,-388 1545.75,-388"/>
</g>
<!-- 0 -->
<g id="node2" class="node">
<title>0</title>
<polyline fill="none" stroke="darkred" points="1784.75,-398.5 1799.75,-398.5"/>
<text text-anchor="start" x="1787.75" y="-406.3" font-family="Courier New" font-weight="bold" font-size="14.00">0</text>
<path fill="none" stroke="darkred" d="M1788.75,-395.5C1788.75,-395.5 1795.75,-395.5 1795.75,-395.5 1799.25,-395.5 1802.75,-399 1802.75,-402.5 1802.75,-402.5 1802.75,-415.5 1802.75,-415.5 1802.75,-419 1799.25,-422.5 1795.75,-422.5 1795.75,-422.5 1788.75,-422.5 1788.75,-422.5 1785.25,-422.5 1781.75,-419 1781.75,-415.5 1781.75,-415.5 1781.75,-402.5 1781.75,-402.5 1781.75,-399 1785.25,-395.5 1788.75,-395.5"/>
</g>
<!-- waiting -->
<g id="node3" class="node">
<title>waiting</title>
<polyline fill="none" stroke="darkred" stroke-width="3" points="1759.75,-201.5 1824.75,-201.5"/>
<text text-anchor="start" x="1763.25" y="-209.8" font-family="Courier New" font-weight="bold" font-size="14.00">waiting</text>
<path fill="none" stroke="darkred" stroke-width="3" d="M1765.42,-196.5C1765.42,-196.5 1819.08,-196.5 1819.08,-196.5 1824.42,-196.5 1829.75,-201.83 1829.75,-207.17 1829.75,-207.17 1829.75,-217.83 1829.75,-217.83 1829.75,-223.17 1824.42,-228.5 1819.08,-228.5 1819.08,-228.5 1765.42,-228.5 1765.42,-228.5 1760.08,-228.5 1754.75,-223.17 1754.75,-217.83 1754.75,-217.83 1754.75,-207.17 1754.75,-207.17 1754.75,-201.83 1760.08,-196.5 1765.42,-196.5"/>
</g>
<!-- 0&#45;&gt;waiting -->
<g id="edge1" class="edge">
<title>0&#45;&gt;waiting</title>
<path fill="none" stroke="black" d="M1787.09,-391.07C1781.66,-376.33 1771.58,-355.71 1755.25,-345 1727.54,-326.83 1629.22,-351.8 1607.25,-327 1585.15,-302.05 1586.22,-277.86 1607.25,-252 1623.17,-232.42 1686.79,-222.47 1735.01,-217.64"/>
<polygon fill="black" stroke="black" points="1735.03,-221.06 1744.66,-216.64 1734.37,-214.09 1735.03,-221.06"/>
<polygon fill="none" stroke="black" points="1610.25,-307 1610.25,-324 1953.25,-324 1953.25,-307 1610.25,-307"/>
<text text-anchor="start" x="1745.25" y="-314" font-family="Courier New" font-weight="bold" font-size="10.00" fill="blue">Z_EPSILON(,)</text>
<polygon fill="none" stroke="black" points="1610.25,-255 1610.25,-305 1953.25,-305 1953.25,-255 1610.25,-255"/>
<text text-anchor="start" x="1613.25" y="-294" font-family="Courier New" font-size="10.00" fill="blue"> &#160;&#160;&#160;REF_MACHINE(MEFCURRENT); //what mef are we hittin up</text>
<text text-anchor="start" x="1613.25" y="-283" font-family="Courier New" font-size="10.00" fill="blue"> &#160;&#160;&#160;&#160;PLAYWAVE(SOUND_POPUP);</text>
<text text-anchor="start" x="1613.25" y="-272" font-family="Courier New" font-size="10.00" fill="blue"> &#160;&#160;&#160;&#160;CLEAR(WPARM);</text>
<text text-anchor="start" x="1613.25" y="-261" font-family="Courier New" font-size="10.00" fill="blue"> </text>
<polygon fill="none" stroke="black" points="1607.25,-252 1607.25,-327 1956.25,-327 1956.25,-252 1607.25,-252"/>
</g>
<!-- waiting&#45;&gt;0 -->
<g id="edge8" class="edge">
<title>waiting&#45;&gt;0</title>
<path fill="none" stroke="black" d="M1839.23,-218.09C1882.42,-223.4 1941.85,-233.83 1956.25,-252 1976.95,-278.13 1973.84,-298.69 1956.25,-327 1928.73,-371.28 1869.06,-392.08 1829.79,-401.3"/>
<polygon fill="black" stroke="black" points="1829.07,-398.1 1820.05,-403.66 1830.57,-404.94 1829.07,-398.1"/>
<polygon fill="none" stroke="black" points="1974.25,-290.5 1974.25,-307.5 2065.25,-307.5 2065.25,-290.5 1974.25,-290.5"/>
<text text-anchor="start" x="1977.25" y="-297.5" font-family="Courier New" font-weight="bold" font-size="10.00" fill="orange">GRAB(WOBJECT,)</text>
<polygon fill="none" stroke="black" points="1974.25,-271.5 1974.25,-288.5 2065.25,-288.5 2065.25,-271.5 1974.25,-271.5"/>
<text text-anchor="start" x="1995.25" y="-277.5" font-family="Courier New" font-size="10.00" fill="blue">SHOW(0);</text>
<polygon fill="none" stroke="black" points="1971.25,-268.5 1971.25,-310.5 2068.25,-310.5 2068.25,-268.5 1971.25,-268.5"/>
</g>
<!-- Q1P -->
<g id="node4" class="node">
<title>Q1P</title>
<polyline fill="none" stroke="darkred" points="374.75,-7.5 405.75,-7.5"/>
<text text-anchor="start" x="377.75" y="-15.3" font-family="Courier New" font-weight="bold" font-size="14.00">Q1P</text>
<path fill="none" stroke="darkred" d="M380.75,-4.5C380.75,-4.5 399.75,-4.5 399.75,-4.5 404.25,-4.5 408.75,-9 408.75,-13.5 408.75,-13.5 408.75,-22.5 408.75,-22.5 408.75,-27 404.25,-31.5 399.75,-31.5 399.75,-31.5 380.75,-31.5 380.75,-31.5 376.25,-31.5 371.75,-27 371.75,-22.5 371.75,-22.5 371.75,-13.5 371.75,-13.5 371.75,-9 376.25,-4.5 380.75,-4.5"/>
</g>
<!-- waiting&#45;&gt;Q1P -->
<g id="edge10" class="edge">
<title>waiting&#45;&gt;Q1P</title>
<path fill="none" stroke="black" d="M1745.48,-211.37C1468.87,-210.52 58.18,-204.61 27.25,-173 -9.74,-135.2 -8.31,-93.15 27.25,-54 48.84,-30.23 264.15,-22.15 352.61,-19.83"/>
<polygon fill="black" stroke="black" points="352.57,-23.3 362.48,-19.55 352.4,-16.3 352.57,-23.3"/>
<polygon fill="none" stroke="black" points="30.25,-136.5 30.25,-153.5 721.25,-153.5 721.25,-136.5 30.25,-136.5"/>
<text text-anchor="start" x="330.25" y="-143.5" font-family="Courier New" font-weight="bold" font-size="10.00" fill="orange">WAIT(0,SIG_Q1P)</text>
<polygon fill="none" stroke="black" points="30.25,-73.5 30.25,-134.5 721.25,-134.5 721.25,-73.5 30.25,-73.5"/>
<text text-anchor="start" x="33.25" y="-123.5" font-family="Courier New" font-size="10.00" fill="blue"> &#160;&#160;&#160;if(R_BPARM == S33_NEELP){mefQuest(&quot;1&quot;,?BPARM,?WPARM,?WOBJECT,?WTEMP1,?WTEMP3);SETTEXT(ID_MEFTEXT,WTEMP3);}</text>
<text text-anchor="start" x="33.25" y="-112.5" font-family="Courier New" font-size="10.00" fill="blue"> &#160;&#160;&#160;&#160;if(R_BPARM == S24_RATHE){mefQuest(&quot;4&quot;,?BPARM,?WPARM,?WOBJECT,?WTEMP1,?WTEMP3);SETTEXT(ID_MEFTEXT,WTEMP3);}</text>
<text text-anchor="start" x="33.25" y="-101.5" font-family="Courier New" font-size="10.00" fill="blue"> &#160;&#160;&#160;&#160;&#160;if(R_BPARM == S10_THAOR){mefQuest(&quot;6&quot;,?BPARM,?WPARM,?WOBJECT,?WTEMP1,?WTEMP3);SETTEXT(ID_MEFTEXT,WTEMP3);}</text>
<text text-anchor="start" x="33.25" y="-90.5" font-family="Courier New" font-size="10.00" fill="blue"> &#160;&#160;&#160;&#160;&#160;&#160;&#160;if(R_BPARM == S16_PERST){mefQuest(&quot;8&quot;,?BPARM,?WPARM,?WOBJECT,?WTEMP1,?WTEMP3);SETTEXT(ID_MEFTEXT,WTEMP3);}</text>
<text text-anchor="start" x="33.25" y="-79.5" font-family="Courier New" font-size="10.00" fill="blue"> &#160;</text>
<polygon fill="none" stroke="black" points="27.25,-70.5 27.25,-156.5 724.25,-156.5 724.25,-70.5 27.25,-70.5"/>
</g>
<!-- Q1S -->
<g id="node5" class="node">
<title>Q1S</title>
<polyline fill="none" stroke="darkred" points="1195.75,-7.5 1226.75,-7.5"/>
<text text-anchor="start" x="1198.75" y="-15.3" font-family="Courier New" font-weight="bold" font-size="14.00">Q1S</text>
<path fill="none" stroke="darkred" d="M1201.75,-4.5C1201.75,-4.5 1220.75,-4.5 1220.75,-4.5 1225.25,-4.5 1229.75,-9 1229.75,-13.5 1229.75,-13.5 1229.75,-22.5 1229.75,-22.5 1229.75,-27 1225.25,-31.5 1220.75,-31.5 1220.75,-31.5 1201.75,-31.5 1201.75,-31.5 1197.25,-31.5 1192.75,-27 1192.75,-22.5 1192.75,-22.5 1192.75,-13.5 1192.75,-13.5 1192.75,-9 1197.25,-4.5 1201.75,-4.5"/>
</g>
<!-- waiting&#45;&gt;Q1S -->
<g id="edge9" class="edge">
<title>waiting&#45;&gt;Q1S</title>
<path fill="none" stroke="black" d="M1745.42,-211.36C1559.55,-210.59 882.49,-205.55 851.25,-173 832.94,-153.92 833.48,-73.58 851.25,-54 872.63,-30.44 1085.68,-22.25 1173.61,-19.86"/>
<polygon fill="black" stroke="black" points="1173.52,-23.34 1183.42,-19.58 1173.33,-16.34 1173.52,-23.34"/>
<polygon fill="none" stroke="black" points="854.25,-153 854.25,-170 1539.25,-170 1539.25,-153 854.25,-153"/>
<text text-anchor="start" x="1151.25" y="-160" font-family="Courier New" font-weight="bold" font-size="10.00" fill="orange">WAIT(0,SIG_Q1S)</text>
<polygon fill="none" stroke="black" points="854.25,-57 854.25,-151 1539.25,-151 1539.25,-57 854.25,-57"/>
<text text-anchor="start" x="857.25" y="-140" font-family="Courier New" font-size="10.00" fill="blue"> &#160;&#160;</text>
<text text-anchor="start" x="857.25" y="-129" font-family="Courier New" font-size="10.00" fill="blue"> &#160;&#160;&#160;if(R_BPARM == S33_NEELP){mefQuest(&quot;1&quot;,?BPARM,?WPARM,?WOBJECT,?WTEMP1,?WTEMP3);SETTEXT(ID_MEFTEXT,WPARM);}</text>
<text text-anchor="start" x="857.25" y="-118" font-family="Courier New" font-size="10.00" fill="blue"> &#160;&#160;&#160;&#160;if(R_BPARM == S24_RATHE){mefQuest(&quot;4&quot;,?BPARM,?WPARM,?WOBJECT,?WTEMP1,?WTEMP3);SETTEXT(ID_MEFTEXT,WPARM);}</text>
<text text-anchor="start" x="857.25" y="-107" font-family="Courier New" font-size="10.00" fill="blue"> &#160;&#160;&#160;&#160;&#160;if(R_BPARM == S10_THAOR){mefQuest(&quot;6&quot;,?BPARM,?WPARM,?WOBJECT,?WTEMP1,?WTEMP3);SETTEXT(ID_MEFTEXT,WPARM);}</text>
<text text-anchor="start" x="857.25" y="-96" font-family="Courier New" font-size="10.00" fill="blue"> &#160;&#160;&#160;&#160;&#160;&#160;&#160;if(R_BPARM == S16_PERST){mefQuest(&quot;8&quot;,?BPARM,?WPARM,?WOBJECT,?WTEMP1,?WTEMP3);SETTEXT(ID_MEFTEXT,WPARM);}</text>
<text text-anchor="start" x="857.25" y="-85" font-family="Courier New" font-size="10.00" fill="blue"> &#160;&#160;&#160;&#160;&#160;&#160;</text>
<text text-anchor="start" x="857.25" y="-74" font-family="Courier New" font-size="10.00" fill="blue"> &#160;&#160;&#160;&#160;&#160;&#160;&#160;//Add any objects being offered here</text>
<text text-anchor="start" x="857.25" y="-63" font-family="Courier New" font-size="10.00" fill="blue"> &#160;&#160;&#160;&#160;&#160;&#160;&#160;SHOW(WOBJECT);</text>
<polygon fill="none" stroke="black" points="851.25,-54 851.25,-173 1542.25,-173 1542.25,-54 851.25,-54"/>
</g>
<!-- Q2P -->
<g id="node6" class="node">
<title>Q2P</title>
<polyline fill="none" stroke="darkred" points="1776.75,-7.5 1807.75,-7.5"/>
<text text-anchor="start" x="1779.75" y="-15.3" font-family="Courier New" font-weight="bold" font-size="14.00">Q2P</text>
<path fill="none" stroke="darkred" d="M1782.75,-4.5C1782.75,-4.5 1801.75,-4.5 1801.75,-4.5 1806.25,-4.5 1810.75,-9 1810.75,-13.5 1810.75,-13.5 1810.75,-22.5 1810.75,-22.5 1810.75,-27 1806.25,-31.5 1801.75,-31.5 1801.75,-31.5 1782.75,-31.5 1782.75,-31.5 1778.25,-31.5 1773.75,-27 1773.75,-22.5 1773.75,-22.5 1773.75,-13.5 1773.75,-13.5 1773.75,-9 1778.25,-4.5 1782.75,-4.5"/>
</g>
<!-- waiting&#45;&gt;Q2P -->
<g id="edge12" class="edge">
<title>waiting&#45;&gt;Q2P</title>
<path fill="none" stroke="black" d="M1745.33,-209.82C1718.41,-206.15 1686.61,-196.62 1669.25,-173 1653.59,-151.69 1653.31,-75.1 1669.25,-54 1679.65,-40.23 1722.76,-30.28 1755.03,-24.59"/>
<polygon fill="black" stroke="black" points="1755.22,-27.93 1764.49,-22.82 1754.05,-21.03 1755.22,-27.93"/>
<polygon fill="none" stroke="black" points="1672.25,-120 1672.25,-137 1883.25,-137 1883.25,-120 1672.25,-120"/>
<text text-anchor="start" x="1732.25" y="-127" font-family="Courier New" font-weight="bold" font-size="10.00" fill="orange">WAIT(0,SIG_Q2P)</text>
<polygon fill="none" stroke="black" points="1672.25,-90 1672.25,-118 1883.25,-118 1883.25,-90 1672.25,-90"/>
<text text-anchor="start" x="1675.25" y="-107" font-family="Courier New" font-size="10.00" fill="blue"> &#160;&#160;&#160;REF_MACHINE(WTEMP1);</text>
<text text-anchor="start" x="1675.25" y="-96" font-family="Courier New" font-size="10.00" fill="blue"> &#160;&#160;&#160;SETTEXT(ID_MEFTEXT,R_WTEMP3); </text>
<polygon fill="none" stroke="black" points="1669.25,-87 1669.25,-140 1886.25,-140 1886.25,-87 1669.25,-87"/>
</g>
<!-- Q2S -->
<g id="node7" class="node">
<title>Q2S</title>
<polyline fill="none" stroke="darkred" points="2117.75,-7.5 2148.75,-7.5"/>
<text text-anchor="start" x="2120.75" y="-15.3" font-family="Courier New" font-weight="bold" font-size="14.00">Q2S</text>
<path fill="none" stroke="darkred" d="M2123.75,-4.5C2123.75,-4.5 2142.75,-4.5 2142.75,-4.5 2147.25,-4.5 2151.75,-9 2151.75,-13.5 2151.75,-13.5 2151.75,-22.5 2151.75,-22.5 2151.75,-27 2147.25,-31.5 2142.75,-31.5 2142.75,-31.5 2123.75,-31.5 2123.75,-31.5 2119.25,-31.5 2114.75,-27 2114.75,-22.5 2114.75,-22.5 2114.75,-13.5 2114.75,-13.5 2114.75,-9 2119.25,-4.5 2123.75,-4.5"/>
</g>
<!-- waiting&#45;&gt;Q2S -->
<g id="edge11" class="edge">
<title>waiting&#45;&gt;Q2S</title>
<path fill="none" stroke="black" d="M1839.1,-208.68C1891.94,-204.49 1973.24,-194.65 1994.25,-173 2031.55,-134.56 1977.83,-94.17 2013.25,-54 2033.75,-30.75 2068.73,-22.55 2095.64,-19.84"/>
<polygon fill="black" stroke="black" points="2095.56,-23.28 2105.25,-19.01 2095.01,-16.3 2095.56,-23.28"/>
<polygon fill="none" stroke="black" points="2016.25,-120 2016.25,-137 2221.25,-137 2221.25,-120 2016.25,-120"/>
<text text-anchor="start" x="2073.25" y="-127" font-family="Courier New" font-weight="bold" font-size="10.00" fill="orange">WAIT(0,SIG_Q2S)</text>
<polygon fill="none" stroke="black" points="2016.25,-90 2016.25,-118 2221.25,-118 2221.25,-90 2016.25,-90"/>
<text text-anchor="start" x="2019.25" y="-107" font-family="Courier New" font-size="10.00" fill="blue"> &#160;&#160;&#160;REF_MACHINE(WTEMP1);</text>
<text text-anchor="start" x="2019.25" y="-96" font-family="Courier New" font-size="10.00" fill="blue"> &#160;&#160;&#160;SETTEXT(ID_MEFTEXT,R_WTEMP1);</text>
<polygon fill="none" stroke="black" points="2013.25,-87 2013.25,-140 2224.25,-140 2224.25,-87 2013.25,-87"/>
</g>
<!-- Q3S -->
<g id="node8" class="node">
<title>Q3S</title>
<polyline fill="none" stroke="darkred" points="2455.75,-7.5 2486.75,-7.5"/>
<text text-anchor="start" x="2458.75" y="-15.3" font-family="Courier New" font-weight="bold" font-size="14.00">Q3S</text>
<path fill="none" stroke="darkred" d="M2461.75,-4.5C2461.75,-4.5 2480.75,-4.5 2480.75,-4.5 2485.25,-4.5 2489.75,-9 2489.75,-13.5 2489.75,-13.5 2489.75,-22.5 2489.75,-22.5 2489.75,-27 2485.25,-31.5 2480.75,-31.5 2480.75,-31.5 2461.75,-31.5 2461.75,-31.5 2457.25,-31.5 2452.75,-27 2452.75,-22.5 2452.75,-22.5 2452.75,-13.5 2452.75,-13.5 2452.75,-9 2457.25,-4.5 2461.75,-4.5"/>
</g>
<!-- waiting&#45;&gt;Q3S -->
<g id="edge13" class="edge">
<title>waiting&#45;&gt;Q3S</title>
<path fill="none" stroke="black" d="M1838.81,-207.26C1887.71,-202.89 1966.85,-196.01 2035.25,-191 2067.45,-188.64 2300.74,-194.02 2325.25,-173 2366.35,-137.76 2314.31,-93.57 2351.25,-54 2372.24,-31.51 2406.78,-23.2 2433.42,-20.26"/>
<polygon fill="black" stroke="black" points="2433.64,-23.66 2443.3,-19.3 2433.03,-16.69 2433.64,-23.66"/>
<polygon fill="none" stroke="black" points="2354.25,-120 2354.25,-137 2559.25,-137 2559.25,-120 2354.25,-120"/>
<text text-anchor="start" x="2411.25" y="-127" font-family="Courier New" font-weight="bold" font-size="10.00" fill="orange">WAIT(0,SIG_Q3S)</text>
<polygon fill="none" stroke="black" points="2354.25,-90 2354.25,-118 2559.25,-118 2559.25,-90 2354.25,-90"/>
<text text-anchor="start" x="2357.25" y="-107" font-family="Courier New" font-size="10.00" fill="blue"> &#160;&#160;&#160;REF_MACHINE(WTEMP1);</text>
<text text-anchor="start" x="2357.25" y="-96" font-family="Courier New" font-size="10.00" fill="blue"> &#160;&#160;&#160;SETTEXT(ID_MEFTEXT,R_WTEMP1);</text>
<polygon fill="none" stroke="black" points="2351.25,-87 2351.25,-140 2562.25,-140 2562.25,-87 2351.25,-87"/>
</g>
<!-- Q1P&#45;&gt;waiting -->
<g id="edge2" class="edge">
<title>Q1P&#45;&gt;waiting</title>
<path fill="none" stroke="black" d="M417.11,-19.99C493.04,-23.02 705.27,-33.29 728.25,-54 768.4,-90.18 711.93,-138.17 753.25,-173 790.96,-204.79 1521.79,-210.36 1734.58,-211.31"/>
<polygon fill="black" stroke="black" points="1734.49,-214.81 1744.5,-211.36 1734.52,-207.81 1734.49,-214.81"/>
<text text-anchor="start" x="757.25" y="-112" font-family="Courier New" font-weight="bold" font-size="10.00" fill="blue">Z_EPSILON(,)</text>
</g>
<!-- Q1S&#45;&gt;waiting -->
<g id="edge3" class="edge">
<title>Q1S&#45;&gt;waiting</title>
<path fill="none" stroke="black" d="M1238.13,-20.03C1313.57,-23.17 1523.34,-33.67 1546.25,-54 1586.81,-90 1533.97,-135.6 1573.25,-173 1595.97,-194.63 1678.11,-204.31 1735.07,-208.5"/>
<polygon fill="black" stroke="black" points="1734.52,-212.04 1744.74,-209.24 1735.01,-205.06 1734.52,-212.04"/>
<text text-anchor="start" x="1577.25" y="-112" font-family="Courier New" font-weight="bold" font-size="10.00" fill="blue">Z_EPSILON(,)</text>
</g>
<!-- Q2P&#45;&gt;waiting -->
<g id="edge4" class="edge">
<title>Q2P&#45;&gt;waiting</title>
<path fill="none" stroke="black" d="M1818.89,-20.41C1842.01,-23.21 1874.22,-31.26 1890.25,-54 1920.72,-97.23 1920.04,-129.3 1890.25,-173 1880.75,-186.94 1865.36,-195.83 1849.57,-201.51"/>
<polygon fill="black" stroke="black" points="1848.67,-198.44 1840.19,-204.79 1850.78,-205.11 1848.67,-198.44"/>
<text text-anchor="start" x="1917.25" y="-112" font-family="Courier New" font-weight="bold" font-size="10.00" fill="blue">Z_EPSILON(,)</text>
</g>
<!-- Q2S&#45;&gt;waiting -->
<g id="edge5" class="edge">
<title>Q2S&#45;&gt;waiting</title>
<path fill="none" stroke="black" d="M2159.98,-20.79C2182.34,-23.86 2212.97,-32.08 2228.25,-54 2243.37,-75.69 2246.11,-153.5 2228.25,-173 2226.67,-174.73 1967.81,-196.72 1849.75,-206.67"/>
<polygon fill="black" stroke="black" points="1849.79,-203.24 1840.12,-207.57 1850.38,-210.21 1849.79,-203.24"/>
<text text-anchor="start" x="2244.25" y="-112" font-family="Courier New" font-weight="bold" font-size="10.00" fill="blue">Z_EPSILON(,)</text>
</g>
<!-- Q3S&#45;&gt;waiting -->
<g id="edge6" class="edge">
<title>Q3S&#45;&gt;waiting</title>
<path fill="none" stroke="black" d="M2497.98,-20.79C2520.34,-23.86 2550.97,-32.08 2566.25,-54 2596.5,-97.38 2603.01,-134.97 2566.25,-173 2545.73,-194.22 2064.72,-189.26 2035.25,-191 1971.79,-194.75 1899.18,-201.15 1849.98,-205.81"/>
<polygon fill="black" stroke="black" points="1849.86,-202.4 1840.24,-206.83 1850.52,-209.37 1849.86,-202.4"/>
<text text-anchor="start" x="2595.25" y="-112" font-family="Courier New" font-weight="bold" font-size="10.00" fill="blue">Z_EPSILON(,)</text>
</g>
<!-- setNeelp -->
<g id="node9" class="node">
<title>setNeelp</title>
<polyline fill="none" stroke="darkred" points="2061.75,-398.5 2134.75,-398.5"/>
<text text-anchor="start" x="2064.75" y="-406.3" font-family="Courier New" font-weight="bold" font-size="14.00">setNeelp</text>
<path fill="none" stroke="darkred" d="M2067.75,-395.5C2067.75,-395.5 2128.75,-395.5 2128.75,-395.5 2133.25,-395.5 2137.75,-400 2137.75,-404.5 2137.75,-404.5 2137.75,-413.5 2137.75,-413.5 2137.75,-418 2133.25,-422.5 2128.75,-422.5 2128.75,-422.5 2067.75,-422.5 2067.75,-422.5 2063.25,-422.5 2058.75,-418 2058.75,-413.5 2058.75,-413.5 2058.75,-404.5 2058.75,-404.5 2058.75,-400 2063.25,-395.5 2067.75,-395.5"/>
</g>
<!-- neelpQ3p -->
<g id="node10" class="node">
<title>neelpQ3p</title>
<ellipse fill="none" stroke="black" cx="2098.25" cy="-212.5" rx="53.89" ry="18"/>
<text text-anchor="middle" x="2098.25" y="-208.8" font-family="Courier New" font-size="14.00">neelpQ3p</text>
</g>
<!-- setNeelp&#45;&gt;neelpQ3p -->
<g id="edge7" class="edge">
<title>setNeelp&#45;&gt;neelpQ3p</title>
<path fill="none" stroke="black" d="M2098.25,-391.08C2098.25,-357.61 2098.25,-282.66 2098.25,-241.64"/>
<polygon fill="black" stroke="black" points="2101.75,-241.8 2098.25,-231.8 2094.75,-241.8 2101.75,-241.8"/>
<polygon fill="none" stroke="black" points="2101.25,-296 2101.25,-313 2312.25,-313 2312.25,-296 2101.25,-296"/>
<text text-anchor="start" x="2161.25" y="-303" font-family="Courier New" font-weight="bold" font-size="10.00" fill="orange">WAIT(0,SIG_Q1P)</text>
<polygon fill="none" stroke="black" points="2101.25,-266 2101.25,-294 2312.25,-294 2312.25,-266 2101.25,-266"/>
<text text-anchor="start" x="2104.25" y="-283" font-family="Courier New" font-size="10.00" fill="blue"> &#160;&#160;&#160;REF_MACHINE(WTEMP1);</text>
<text text-anchor="start" x="2104.25" y="-272" font-family="Courier New" font-size="10.00" fill="blue"> &#160;&#160;&#160;SETTEXT(ID_MEFTEXT,R_WTEMP3); </text>
<polygon fill="none" stroke="black" points="2098.25,-263 2098.25,-316 2315.25,-316 2315.25,-263 2098.25,-263"/>
</g>
<!-- status -->
<g id="node11" class="node">
<title>status</title>
<polygon fill="none" stroke="black" points="2163.75,-345.5 2163.75,-472.5 2468.75,-472.5 2468.75,-345.5 2163.75,-345.5"/>
<polygon fill="none" stroke="black" points="2174.75,-448.5 2174.75,-465.5 2457.75,-465.5 2457.75,-448.5 2174.75,-448.5"/>
<text text-anchor="start" x="2276.75" y="-455.5" font-family="Courier New" font-weight="bold" font-size="10.00">MEFPAN_WAITER</text>
<polygon fill="none" stroke="black" points="2174.75,-352.5 2174.75,-446.5 2457.75,-446.5 2457.75,-352.5 2174.75,-352.5"/>
<text text-anchor="start" x="2177.75" y="-435.5" font-family="Courier New" font-size="10.00" fill="green">VIEW::IDV_MEFPAN @pos(left:276, top:236)</text>
<text text-anchor="start" x="2177.75" y="-424.5" font-family="Courier New" font-size="10.00" fill="green">MEFPAN_WAITER::M_MEFPAN_WAITER(&#39;&#39;,&#39;&#39;,&#39;&#39;,&#39;&#39;)</text>
<text text-anchor="start" x="2177.75" y="-413.5" font-family="Courier New" font-size="10.00" fill="green">{state:&#39;waiting&#39;: wParm:</text>
<text text-anchor="start" x="2177.75" y="-402.5" font-family="Courier New" font-size="10.00" fill="green"> &#160;&#160;&#160;Neelp graciously beckons you to find the</text>
<text text-anchor="start" x="2177.75" y="-391.5" font-family="Courier New" font-size="10.00" fill="green"> &#160;&#160;&#160;Sacred Amulet which he thinks he has lost</text>
<text text-anchor="start" x="2177.75" y="-380.5" font-family="Courier New" font-size="10.00" fill="green"> &#160;&#160;&#160;somewhere in the Western area of Azaria.</text>
<text text-anchor="start" x="2177.75" y="-369.5" font-family="Courier New" font-size="10.00" fill="green"> &#160;&#160;&#160;If you return the Amulet he will certainly</text>
<text text-anchor="start" x="2177.75" y="-358.5" font-family="Courier New" font-size="10.00" fill="green"> &#160;&#160;&#160;reward you with Gopa.&quot;</text>
<polygon fill="none" stroke="black" points="2171.75,-349.5 2171.75,-468.5 2460.75,-468.5 2460.75,-349.5 2171.75,-349.5"/>
</g>
</g>
</svg>
