<?xml version="1.0" encoding="UTF-8" standalone="no"?>
<!DOCTYPE svg PUBLIC "-//W3C//DTD SVG 1.1//EN"
 "http://www.w3.org/Graphics/SVG/1.1/DTD/svg11.dtd">
<!-- Generated by graphviz version 10.0.1 (20240210.2158)
 -->
<!-- Title: Automaton Pages: 1 -->
<svg width="532pt" height="935pt"
 viewBox="0.00 0.00 532.00 934.75" xmlns="http://www.w3.org/2000/svg" xmlns:xlink="http://www.w3.org/1999/xlink">
<g id="graph0" class="graph" transform="scale(1 1) rotate(0) translate(4 930.75)">
<title>Automaton</title>
<polygon fill="white" stroke="none" points="-4,4 -4,-930.75 528,-930.75 528,4 -4,4"/>
<!-- filename -->
<g id="node1" class="node">
<title>filename</title>
<polygon fill="none" stroke="black" points="0,-860 0,-913.5 178,-913.5 178,-860 0,-860"/>
<polygon fill="none" stroke="black" points="11,-887.75 11,-906.5 167,-906.5 167,-887.75 11,-887.75"/>
<text text-anchor="start" x="14" y="-895" font-family="Courier New" font-weight="bold" font-size="10.00">NEELP_COORD::MEFLIN_COORD</text>
<polygon fill="none" stroke="black" points="11,-867 11,-885.75 167,-885.75 167,-867 11,-867"/>
<text text-anchor="start" x="44" y="-873.25" font-family="Courier New" font-size="10.00" fill="brown">start state = 0</text>
<polygon fill="none" stroke="black" points="8,-864 8,-909.5 170,-909.5 170,-864 8,-864"/>
</g>
<!-- 0 -->
<g id="node2" class="node">
<title>0</title>
<polyline fill="none" stroke="darkred" points="215.88,-875.5 230.12,-875.5"/>
<text text-anchor="start" x="218.88" y="-882.7" font-family="Courier New" font-weight="bold" font-size="14.00">0</text>
<path fill="none" stroke="darkred" d="M219.62,-872.5C219.62,-872.5 226.38,-872.5 226.38,-872.5 229.75,-872.5 233.12,-875.88 233.12,-879.25 233.12,-879.25 233.12,-894.25 233.12,-894.25 233.12,-897.62 229.75,-901 226.38,-901 226.38,-901 219.62,-901 219.62,-901 216.25,-901 212.88,-897.62 212.88,-894.25 212.88,-894.25 212.88,-879.25 212.88,-879.25 212.88,-875.88 216.25,-872.5 219.62,-872.5"/>
</g>
<!-- Q1Started -->
<g id="node3" class="node">
<title>Q1Started</title>
<polyline fill="none" stroke="darkred" points="182.88,-760.5 263.12,-760.5"/>
<text text-anchor="start" x="185.88" y="-767.7" font-family="Courier New" font-weight="bold" font-size="14.00">Q1Started</text>
<path fill="none" stroke="darkred" d="M189.38,-757.5C189.38,-757.5 256.62,-757.5 256.62,-757.5 261.38,-757.5 266.12,-762.25 266.12,-767 266.12,-767 266.12,-776.5 266.12,-776.5 266.12,-781.25 261.38,-786 256.62,-786 256.62,-786 189.38,-786 189.38,-786 184.62,-786 179.88,-781.25 179.88,-776.5 179.88,-776.5 179.88,-767 179.88,-767 179.88,-762.25 184.62,-757.5 189.38,-757.5"/>
</g>
<!-- 0&#45;&gt;Q1Started -->
<g id="edge1" class="edge">
<title>0&#45;&gt;Q1Started</title>
<path fill="none" stroke="black" d="M223,-868.59C223,-850.65 223,-822.2 223,-800.95"/>
<polygon fill="black" stroke="black" points="226.5,-801.22 223,-791.22 219.5,-801.22 226.5,-801.22"/>
<text text-anchor="start" x="227" y="-816.25" font-family="Courier New" font-weight="bold" font-size="10.00" fill="orange">WAIT(,SIG_Q1_START)</text>
</g>
<!-- Q1Pending -->
<g id="node4" class="node">
<title>Q1Pending</title>
<polyline fill="none" stroke="darkred" points="182.88,-667.25 263.12,-667.25"/>
<text text-anchor="start" x="185.88" y="-674.45" font-family="Courier New" font-weight="bold" font-size="14.00">Q1Pending</text>
<path fill="none" stroke="darkred" d="M189.38,-664.25C189.38,-664.25 256.62,-664.25 256.62,-664.25 261.38,-664.25 266.12,-669 266.12,-673.75 266.12,-673.75 266.12,-683.25 266.12,-683.25 266.12,-688 261.38,-692.75 256.62,-692.75 256.62,-692.75 189.38,-692.75 189.38,-692.75 184.62,-692.75 179.88,-688 179.88,-683.25 179.88,-683.25 179.88,-673.75 179.88,-673.75 179.88,-669 184.62,-664.25 189.38,-664.25"/>
</g>
<!-- Q1Started&#45;&gt;Q1Pending -->
<g id="edge4" class="edge">
<title>Q1Started&#45;&gt;Q1Pending</title>
<path fill="none" stroke="black" d="M223,-753.59C223,-740.71 223,-722.81 223,-707.82"/>
<polygon fill="black" stroke="black" points="226.5,-708.1 223,-698.1 219.5,-708.1 226.5,-708.1"/>
<text text-anchor="start" x="227" y="-723" font-family="Courier New" font-weight="bold" font-size="10.00" fill="orange">WAIT(,SIG_Q1_GIVEN)</text>
</g>
<!-- Q1Solved -->
<g id="node5" class="node">
<title>Q1Solved</title>
<polyline fill="none" stroke="darkred" stroke-width="3" points="186.5,-569.5 259.5,-569.5"/>
<text text-anchor="start" x="190" y="-577.2" font-family="Courier New" font-weight="bold" font-size="14.00">Q1Solved</text>
<path fill="none" stroke="darkred" stroke-width="3" d="M192.67,-564.5C192.67,-564.5 253.33,-564.5 253.33,-564.5 258.92,-564.5 264.5,-570.08 264.5,-575.67 264.5,-575.67 264.5,-586.83 264.5,-586.83 264.5,-592.42 258.92,-598 253.33,-598 253.33,-598 192.67,-598 192.67,-598 187.08,-598 181.5,-592.42 181.5,-586.83 181.5,-586.83 181.5,-575.67 181.5,-575.67 181.5,-570.08 187.08,-564.5 192.67,-564.5"/>
</g>
<!-- Q1Pending&#45;&gt;Q1Solved -->
<g id="edge2" class="edge">
<title>Q1Pending&#45;&gt;Q1Solved</title>
<path fill="none" stroke="black" d="M223,-660.47C223,-647.76 223,-630.02 223,-614.64"/>
<polygon fill="black" stroke="black" points="226.5,-614.98 223,-604.98 219.5,-614.98 226.5,-614.98"/>
<text text-anchor="start" x="227" y="-629.75" font-family="Courier New" font-weight="bold" font-size="10.00" fill="orange">WAIT(,SIG_Q1_SOLVED)</text>
</g>
<!-- Q2Started -->
<g id="node6" class="node">
<title>Q2Started</title>
<polyline fill="none" stroke="darkred" points="182.88,-472.75 263.12,-472.75"/>
<text text-anchor="start" x="185.88" y="-479.95" font-family="Courier New" font-weight="bold" font-size="14.00">Q2Started</text>
<path fill="none" stroke="darkred" d="M189.38,-469.75C189.38,-469.75 256.62,-469.75 256.62,-469.75 261.38,-469.75 266.12,-474.5 266.12,-479.25 266.12,-479.25 266.12,-488.75 266.12,-488.75 266.12,-493.5 261.38,-498.25 256.62,-498.25 256.62,-498.25 189.38,-498.25 189.38,-498.25 184.62,-498.25 179.88,-493.5 179.88,-488.75 179.88,-488.75 179.88,-479.25 179.88,-479.25 179.88,-474.5 184.62,-469.75 189.38,-469.75"/>
</g>
<!-- Q1Solved&#45;&gt;Q2Started -->
<g id="edge3" class="edge">
<title>Q1Solved&#45;&gt;Q2Started</title>
<path fill="none" stroke="black" d="M223,-559.11C223,-545.67 223,-528.09 223,-513.43"/>
<polygon fill="black" stroke="black" points="226.5,-513.47 223,-503.47 219.5,-513.47 226.5,-513.47"/>
<text text-anchor="start" x="227" y="-528.5" font-family="Courier New" font-weight="bold" font-size="10.00" fill="orange">WAIT(,SIG_Q2_START)</text>
</g>
<!-- Q2Pending -->
<g id="node7" class="node">
<title>Q2Pending</title>
<polyline fill="none" stroke="darkred" points="182.88,-379.5 263.12,-379.5"/>
<text text-anchor="start" x="185.88" y="-386.7" font-family="Courier New" font-weight="bold" font-size="14.00">Q2Pending</text>
<path fill="none" stroke="darkred" d="M189.38,-376.5C189.38,-376.5 256.62,-376.5 256.62,-376.5 261.38,-376.5 266.12,-381.25 266.12,-386 266.12,-386 266.12,-395.5 266.12,-395.5 266.12,-400.25 261.38,-405 256.62,-405 256.62,-405 189.38,-405 189.38,-405 184.62,-405 179.88,-400.25 179.88,-395.5 179.88,-395.5 179.88,-386 179.88,-386 179.88,-381.25 184.62,-376.5 189.38,-376.5"/>
</g>
<!-- Q2Started&#45;&gt;Q2Pending -->
<g id="edge7" class="edge">
<title>Q2Started&#45;&gt;Q2Pending</title>
<path fill="none" stroke="black" d="M223,-465.84C223,-452.96 223,-435.06 223,-420.07"/>
<polygon fill="black" stroke="black" points="226.5,-420.35 223,-410.35 219.5,-420.35 226.5,-420.35"/>
<text text-anchor="start" x="227" y="-435.25" font-family="Courier New" font-weight="bold" font-size="10.00" fill="orange">WAIT(,SIG_Q2_GIVEN)</text>
</g>
<!-- Q2Solved -->
<g id="node8" class="node">
<title>Q2Solved</title>
<polyline fill="none" stroke="darkred" points="187,-286.25 259,-286.25"/>
<text text-anchor="start" x="190" y="-293.45" font-family="Courier New" font-weight="bold" font-size="14.00">Q2Solved</text>
<path fill="none" stroke="darkred" d="M193.5,-283.25C193.5,-283.25 252.5,-283.25 252.5,-283.25 257.25,-283.25 262,-288 262,-292.75 262,-292.75 262,-302.25 262,-302.25 262,-307 257.25,-311.75 252.5,-311.75 252.5,-311.75 193.5,-311.75 193.5,-311.75 188.75,-311.75 184,-307 184,-302.25 184,-302.25 184,-292.75 184,-292.75 184,-288 188.75,-283.25 193.5,-283.25"/>
</g>
<!-- Q2Pending&#45;&gt;Q2Solved -->
<g id="edge5" class="edge">
<title>Q2Pending&#45;&gt;Q2Solved</title>
<path fill="none" stroke="black" d="M223,-372.59C223,-359.71 223,-341.81 223,-326.82"/>
<polygon fill="black" stroke="black" points="226.5,-327.1 223,-317.1 219.5,-327.1 226.5,-327.1"/>
<text text-anchor="start" x="227" y="-342" font-family="Courier New" font-weight="bold" font-size="10.00" fill="orange">WAIT(,SIG_Q2_SOLVED)</text>
</g>
<!-- Q3Started -->
<g id="node9" class="node">
<title>Q3Started</title>
<polyline fill="none" stroke="darkred" points="182.88,-193 263.12,-193"/>
<text text-anchor="start" x="185.88" y="-200.2" font-family="Courier New" font-weight="bold" font-size="14.00">Q3Started</text>
<path fill="none" stroke="darkred" d="M189.38,-190C189.38,-190 256.62,-190 256.62,-190 261.38,-190 266.12,-194.75 266.12,-199.5 266.12,-199.5 266.12,-209 266.12,-209 266.12,-213.75 261.38,-218.5 256.62,-218.5 256.62,-218.5 189.38,-218.5 189.38,-218.5 184.62,-218.5 179.88,-213.75 179.88,-209 179.88,-209 179.88,-199.5 179.88,-199.5 179.88,-194.75 184.62,-190 189.38,-190"/>
</g>
<!-- Q2Solved&#45;&gt;Q3Started -->
<g id="edge6" class="edge">
<title>Q2Solved&#45;&gt;Q3Started</title>
<path fill="none" stroke="black" d="M223,-279.34C223,-266.46 223,-248.56 223,-233.57"/>
<polygon fill="black" stroke="black" points="226.5,-233.85 223,-223.85 219.5,-233.85 226.5,-233.85"/>
<text text-anchor="start" x="227" y="-248.75" font-family="Courier New" font-weight="bold" font-size="10.00" fill="orange">WAIT(,SIG_Q3_START)</text>
</g>
<!-- Q3Pending -->
<g id="node10" class="node">
<title>Q3Pending</title>
<polyline fill="none" stroke="darkred" points="182.88,-99.75 263.12,-99.75"/>
<text text-anchor="start" x="185.88" y="-106.95" font-family="Courier New" font-weight="bold" font-size="14.00">Q3Pending</text>
<path fill="none" stroke="darkred" d="M189.38,-96.75C189.38,-96.75 256.62,-96.75 256.62,-96.75 261.38,-96.75 266.12,-101.5 266.12,-106.25 266.12,-106.25 266.12,-115.75 266.12,-115.75 266.12,-120.5 261.38,-125.25 256.62,-125.25 256.62,-125.25 189.38,-125.25 189.38,-125.25 184.62,-125.25 179.88,-120.5 179.88,-115.75 179.88,-115.75 179.88,-106.25 179.88,-106.25 179.88,-101.5 184.62,-96.75 189.38,-96.75"/>
</g>
<!-- Q3Started&#45;&gt;Q3Pending -->
<g id="edge9" class="edge">
<title>Q3Started&#45;&gt;Q3Pending</title>
<path fill="none" stroke="black" d="M223,-186.09C223,-173.21 223,-155.31 223,-140.32"/>
<polygon fill="black" stroke="black" points="226.5,-140.6 223,-130.6 219.5,-140.6 226.5,-140.6"/>
<text text-anchor="start" x="227" y="-155.5" font-family="Courier New" font-weight="bold" font-size="10.00" fill="orange">WAIT(,SIG_Q3_GIVEN)</text>
</g>
<!-- Q3Solved -->
<g id="node11" class="node">
<title>Q3Solved</title>
<ellipse fill="none" stroke="black" cx="223" cy="-18" rx="55.96" ry="18"/>
<text text-anchor="middle" x="223" y="-12.95" font-family="Courier New" font-size="14.00">Q3Solved</text>
</g>
<!-- Q3Pending&#45;&gt;Q3Solved -->
<g id="edge8" class="edge">
<title>Q3Pending&#45;&gt;Q3Solved</title>
<path fill="none" stroke="black" d="M223,-92.88C223,-80.13 223,-62.42 223,-47.53"/>
<polygon fill="black" stroke="black" points="226.5,-47.86 223,-37.86 219.5,-47.86 226.5,-47.86"/>
<text text-anchor="start" x="227" y="-62.25" font-family="Courier New" font-weight="bold" font-size="10.00" fill="orange">WAIT(,SIG_Q3_SOLVED)</text>
</g>
<!-- status -->
<g id="node12" class="node">
<title>status</title>
<polygon fill="none" stroke="black" points="268,-847.25 268,-926.25 524,-926.25 524,-847.25 268,-847.25"/>
<polygon fill="none" stroke="black" points="279,-900.5 279,-919.25 513,-919.25 513,-900.5 279,-900.5"/>
<text text-anchor="start" x="363" y="-907.75" font-family="Courier New" font-weight="bold" font-size="10.00">NEELP_COORD</text>
<polygon fill="none" stroke="black" points="279,-854.25 279,-898.5 513,-898.5 513,-854.25 279,-854.25"/>
<text text-anchor="start" x="282" y="-886" font-family="Courier New" font-size="10.00" fill="green">VIEW::IDV_OTHERID @pos(left:0, top:0)</text>
<text text-anchor="start" x="282" y="-873.25" font-family="Courier New" font-size="10.00" fill="green">NEELP_COORD::MEFLIN_COORD(&#39;&#39;,&#39;&#39;,&#39;&#39;,&#39;&#39;)</text>
<text text-anchor="start" x="282" y="-860.5" font-family="Courier New" font-size="10.00" fill="green">{state:&#39;Q1Solved&#39;:</text>
<polygon fill="none" stroke="black" points="276,-851.25 276,-922.25 516,-922.25 516,-851.25 276,-851.25"/>
</g>
</g>
</svg>
