<?xml version="1.0" encoding="UTF-8" standalone="no"?>
<!DOCTYPE svg PUBLIC "-//W3C//DTD SVG 1.1//EN"
 "http://www.w3.org/Graphics/SVG/1.1/DTD/svg11.dtd">
<!-- Generated by graphviz version 8.0.1 (20230327.1645)
 -->
<!-- Title: Automaton Pages: 1 -->
<svg width="818pt" height="81pt"
 viewBox="0.00 0.00 818.00 81.00" xmlns="http://www.w3.org/2000/svg" xmlns:xlink="http://www.w3.org/1999/xlink">
<g id="graph0" class="graph" transform="scale(1 1) rotate(0) translate(4 77)">
<title>Automaton</title>
<polygon fill="white" stroke="none" points="-4,4 -4,-77 814,-77 814,4 -4,4"/>
<!-- filename -->
<g id="node1" class="node">
<title>filename</title>
<polygon fill="none" stroke="black" points="0,-11.5 0,-61.5 185,-61.5 185,-11.5 0,-11.5"/>
<polygon fill="none" stroke="black" points="11,-37.5 11,-54.5 174,-54.5 174,-37.5 11,-37.5"/>
<text text-anchor="start" x="14" y="-44.5" font-family="Courier New" font-weight="bold" font-size="10.00">S00_HIDEFINDER::M_HIDELIST</text>
<polygon fill="none" stroke="black" points="11,-18.5 11,-35.5 174,-35.5 174,-18.5 11,-18.5"/>
<text text-anchor="start" x="47" y="-24.5" font-family="Courier New" font-size="10.00" fill="brown">start state = 0</text>
<polygon fill="none" stroke="black" points="8,-15.5 8,-57.5 177,-57.5 177,-15.5 8,-15.5"/>
</g>
<!-- 0 -->
<g id="node2" class="node">
<title>0</title>
<polyline fill="none" stroke="darkred" stroke-width="3" points="222.5,-25.5 238.5,-25.5"/>
<text text-anchor="start" x="226" y="-33.8" font-family="Courier New" font-weight="bold" font-size="14.00">0</text>
<path fill="none" stroke="darkred" stroke-width="3" d="M226.17,-20.5C226.17,-20.5 234.83,-20.5 234.83,-20.5 239.17,-20.5 243.5,-24.83 243.5,-29.17 243.5,-29.17 243.5,-43.83 243.5,-43.83 243.5,-48.17 239.17,-52.5 234.83,-52.5 234.83,-52.5 226.17,-52.5 226.17,-52.5 221.83,-52.5 217.5,-48.17 217.5,-43.83 217.5,-43.83 217.5,-29.17 217.5,-29.17 217.5,-24.83 221.83,-20.5 226.17,-20.5"/>
</g>
<!-- 0&#45;&gt;0 -->
<g id="edge1" class="edge">
<title>0&#45;&gt;0</title>
<path fill="none" stroke="black" d="M257.29,-44.54C267.28,-44.81 275.5,-42.13 275.5,-36.5 275.5,-33.16 272.6,-30.86 268.16,-29.59"/>
<polygon fill="black" stroke="black" points="268.6,-26.02 258.29,-28.46 267.88,-32.98 268.6,-26.02"/>
<polygon fill="none" stroke="black" points="278.5,-37.5 278.5,-54.5 447.5,-54.5 447.5,-37.5 278.5,-37.5"/>
<text text-anchor="start" x="338.5" y="-44.5" font-family="Courier New" font-weight="bold" font-size="10.00" fill="orange">CLICK(,)</text>
<polygon fill="none" stroke="black" points="278.5,-18.5 278.5,-35.5 447.5,-35.5 447.5,-18.5 278.5,-18.5"/>
<text text-anchor="start" x="281.5" y="-24.5" font-family="Courier New" font-size="10.00" fill="blue"> &#160;&#160;&#160;SIGNAL(WIP1,SIG_CHECK);</text>
<polygon fill="none" stroke="black" points="275.5,-15.5 275.5,-57.5 450.5,-57.5 450.5,-15.5 275.5,-15.5"/>
</g>
<!-- status -->
<g id="node3" class="node">
<title>status</title>
<polygon fill="none" stroke="black" points="469,-0.5 469,-72.5 810,-72.5 810,-0.5 469,-0.5"/>
<polygon fill="none" stroke="black" points="480,-48.5 480,-65.5 799,-65.5 799,-48.5 480,-48.5"/>
<text text-anchor="start" x="597" y="-55.5" font-family="Courier New" font-weight="bold" font-size="10.00">S00_HIDEFINDER</text>
<polygon fill="none" stroke="black" points="480,-7.5 480,-46.5 799,-46.5 799,-7.5 480,-7.5"/>
<text text-anchor="start" x="483" y="-35.5" font-family="Courier New" font-size="10.00" fill="green">VIEW::IDV_SCN10PT1 @pos(left:268, top:128)</text>
<text text-anchor="start" x="483" y="-24.5" font-family="Courier New" font-size="10.00" fill="green">S00_HIDEFINDER::M_HIDELIST(&#39;S00_HIDECHECK&#39;,&#39;&#39;,&#39;&#39;,&#39;&#39;)</text>
<text text-anchor="start" x="483" y="-13.5" font-family="Courier New" font-size="10.00" fill="green">{&#39;0&#39;:</text>
<polygon fill="none" stroke="black" points="477,-4.5 477,-68.5 802,-68.5 802,-4.5 477,-4.5"/>
</g>
</g>
</svg>
