<?xml version="1.0" encoding="UTF-8" standalone="no"?>
<!DOCTYPE svg PUBLIC "-//W3C//DTD SVG 1.1//EN"
 "http://www.w3.org/Graphics/SVG/1.1/DTD/svg11.dtd">
<!-- Generated by graphviz version 10.0.1 (20240210.2158)
 -->
<!-- Title: Automaton Pages: 1 -->
<svg width="892pt" height="1785pt"
 viewBox="0.00 0.00 891.75 1784.50" xmlns="http://www.w3.org/2000/svg" xmlns:xlink="http://www.w3.org/1999/xlink">
<g id="graph0" class="graph" transform="scale(1 1) rotate(0) translate(4 1780.5)">
<title>Automaton</title>
<polygon fill="white" stroke="none" points="-4,4 -4,-1780.5 887.75,-1780.5 887.75,4 -4,4"/>
<!-- filename -->
<g id="node1" class="node">
<title>filename</title>
<polygon fill="none" stroke="black" points="71.75,-1709.75 71.75,-1763.25 249.75,-1763.25 249.75,-1709.75 71.75,-1709.75"/>
<polygon fill="none" stroke="black" points="82.75,-1737.5 82.75,-1756.25 238.75,-1756.25 238.75,-1737.5 82.75,-1737.5"/>
<text text-anchor="start" x="85.75" y="-1744.75" font-family="Courier New" font-weight="bold" font-size="10.00">S00_HIDDEN_23::M_DIGGABLE</text>
<polygon fill="none" stroke="black" points="82.75,-1716.75 82.75,-1735.5 238.75,-1735.5 238.75,-1716.75 82.75,-1716.75"/>
<text text-anchor="start" x="115.75" y="-1723" font-family="Courier New" font-size="10.00" fill="brown">start state = 0</text>
<polygon fill="none" stroke="black" points="79.75,-1713.75 79.75,-1759.25 241.75,-1759.25 241.75,-1713.75 79.75,-1713.75"/>
</g>
<!-- 0 -->
<g id="node2" class="node">
<title>0</title>
<polyline fill="none" stroke="darkred" points="287.62,-1725.25 301.88,-1725.25"/>
<text text-anchor="start" x="290.62" y="-1732.45" font-family="Courier New" font-weight="bold" font-size="14.00">0</text>
<path fill="none" stroke="darkred" d="M291.38,-1722.25C291.38,-1722.25 298.12,-1722.25 298.12,-1722.25 301.5,-1722.25 304.88,-1725.62 304.88,-1729 304.88,-1729 304.88,-1744 304.88,-1744 304.88,-1747.38 301.5,-1750.75 298.12,-1750.75 298.12,-1750.75 291.38,-1750.75 291.38,-1750.75 288,-1750.75 284.62,-1747.38 284.62,-1744 284.62,-1744 284.62,-1729 284.62,-1729 284.62,-1725.62 288,-1722.25 291.38,-1722.25"/>
</g>
<!-- fixinToHideItem -->
<g id="node3" class="node">
<title>fixinToHideItem</title>
<polyline fill="none" stroke="darkred" points="41.88,-1572.75 171.62,-1572.75"/>
<text text-anchor="start" x="44.88" y="-1579.95" font-family="Courier New" font-weight="bold" font-size="14.00">fixinToHideItem</text>
<path fill="none" stroke="darkred" d="M48.38,-1569.75C48.38,-1569.75 165.12,-1569.75 165.12,-1569.75 169.88,-1569.75 174.62,-1574.5 174.62,-1579.25 174.62,-1579.25 174.62,-1588.75 174.62,-1588.75 174.62,-1593.5 169.88,-1598.25 165.12,-1598.25 165.12,-1598.25 48.38,-1598.25 48.38,-1598.25 43.62,-1598.25 38.88,-1593.5 38.88,-1588.75 38.88,-1588.75 38.88,-1579.25 38.88,-1579.25 38.88,-1574.5 43.62,-1569.75 48.38,-1569.75"/>
</g>
<!-- 0&#45;&gt;fixinToHideItem -->
<g id="edge1" class="edge">
<title>0&#45;&gt;fixinToHideItem</title>
<path fill="none" stroke="black" d="M281.65,-1718.52C275.31,-1711.09 267.24,-1702.68 258.75,-1696.5 243.31,-1685.27 235.91,-1688.67 219.75,-1678.5 187.74,-1658.35 154.84,-1630.11 132.85,-1609.94"/>
<polygon fill="black" stroke="black" points="135.23,-1607.38 125.52,-1603.14 130.47,-1612.51 135.23,-1607.38"/>
<polygon fill="none" stroke="black" points="222.75,-1656.75 222.75,-1675.5 390.75,-1675.5 390.75,-1656.75 222.75,-1656.75"/>
<text text-anchor="start" x="261.75" y="-1664" font-family="Courier New" font-weight="bold" font-size="10.00" fill="orange">WAIT(,SIG_OPEN)</text>
<polygon fill="none" stroke="black" points="222.75,-1623.25 222.75,-1654.75 390.75,-1654.75 390.75,-1623.25 222.75,-1623.25"/>
<text text-anchor="start" x="225.75" y="-1642.25" font-family="Courier New" font-size="10.00" fill="blue"> &#160;&#160;&#160;REF_MACHINE(S00_HIDER);</text>
<text text-anchor="start" x="225.75" y="-1629.5" font-family="Courier New" font-size="10.00" fill="blue"> &#160;&#160;&#160;MOV(WOBJECT,R_WPARM);</text>
<polygon fill="none" stroke="black" points="219.75,-1620.25 219.75,-1678.5 393.75,-1678.5 393.75,-1620.25 219.75,-1620.25"/>
</g>
<!-- determinedItem -->
<g id="node6" class="node">
<title>determinedItem</title>
<polyline fill="none" stroke="darkred" points="11,-1442 132.5,-1442"/>
<text text-anchor="start" x="14" y="-1449.2" font-family="Courier New" font-weight="bold" font-size="14.00">determinedItem</text>
<path fill="none" stroke="darkred" d="M17.5,-1439C17.5,-1439 126,-1439 126,-1439 130.75,-1439 135.5,-1443.75 135.5,-1448.5 135.5,-1448.5 135.5,-1458 135.5,-1458 135.5,-1462.75 130.75,-1467.5 126,-1467.5 126,-1467.5 17.5,-1467.5 17.5,-1467.5 12.75,-1467.5 8,-1462.75 8,-1458 8,-1458 8,-1448.5 8,-1448.5 8,-1443.75 12.75,-1439 17.5,-1439"/>
</g>
<!-- fixinToHideItem&#45;&gt;determinedItem -->
<g id="edge6" class="edge">
<title>fixinToHideItem&#45;&gt;determinedItem</title>
<path fill="none" stroke="black" d="M83.06,-1565.92C77.68,-1560.75 72.69,-1554.6 69.75,-1547.75 60.95,-1527.21 62.19,-1501.73 65.22,-1482.55"/>
<polygon fill="black" stroke="black" points="68.66,-1483.22 67.04,-1472.75 61.77,-1481.94 68.66,-1483.22"/>
<polygon fill="none" stroke="black" points="72.75,-1526 72.75,-1544.75 390.75,-1544.75 390.75,-1526 72.75,-1526"/>
<text text-anchor="start" x="141.75" y="-1533.25" font-family="Courier New" font-weight="bold" font-size="10.00" fill="blue">REF_MACHINE(S16_POTTERYCHECK,)</text>
<polygon fill="none" stroke="black" points="72.75,-1492.5 72.75,-1524 390.75,-1524 390.75,-1492.5 72.75,-1492.5"/>
<text text-anchor="start" x="75.75" y="-1511.5" font-family="Courier New" font-size="10.00" fill="blue"> &#160;&#160;&#160;if(R_BPARM &gt; 0){ MAPi(WOBJECT,S00_HIDDENSPELL);}</text>
<text text-anchor="start" x="75.75" y="-1498.75" font-family="Courier New" font-size="10.00" fill="blue"> &#160;&#160;&#160;if(R_BPARM == 0){ MAPi(WOBJECT,S00_HIDDENITEM);}</text>
<polygon fill="none" stroke="black" points="69.75,-1489.5 69.75,-1547.75 393.75,-1547.75 393.75,-1489.5 69.75,-1489.5"/>
</g>
<!-- coverActive -->
<g id="node4" class="node">
<title>coverActive</title>
<polyline fill="none" stroke="darkred" points="38.38,-1324 135.12,-1324"/>
<text text-anchor="start" x="41.38" y="-1331.2" font-family="Courier New" font-weight="bold" font-size="14.00">coverActive</text>
<path fill="none" stroke="darkred" d="M44.88,-1321C44.88,-1321 128.62,-1321 128.62,-1321 133.38,-1321 138.12,-1325.75 138.12,-1330.5 138.12,-1330.5 138.12,-1340 138.12,-1340 138.12,-1344.75 133.38,-1349.5 128.62,-1349.5 128.62,-1349.5 44.88,-1349.5 44.88,-1349.5 40.12,-1349.5 35.38,-1344.75 35.38,-1340 35.38,-1340 35.38,-1330.5 35.38,-1330.5 35.38,-1325.75 40.12,-1321 44.88,-1321"/>
</g>
<!-- firstWhack -->
<g id="node5" class="node">
<title>firstWhack</title>
<polyline fill="none" stroke="darkred" stroke-width="3" points="105,-1226.25 194.5,-1226.25"/>
<text text-anchor="start" x="108.5" y="-1233.95" font-family="Courier New" font-weight="bold" font-size="14.00">firstWhack</text>
<path fill="none" stroke="darkred" stroke-width="3" d="M111.17,-1221.25C111.17,-1221.25 188.33,-1221.25 188.33,-1221.25 193.92,-1221.25 199.5,-1226.83 199.5,-1232.42 199.5,-1232.42 199.5,-1243.58 199.5,-1243.58 199.5,-1249.17 193.92,-1254.75 188.33,-1254.75 188.33,-1254.75 111.17,-1254.75 111.17,-1254.75 105.58,-1254.75 100,-1249.17 100,-1243.58 100,-1243.58 100,-1232.42 100,-1232.42 100,-1226.83 105.58,-1221.25 111.17,-1221.25"/>
</g>
<!-- coverActive&#45;&gt;firstWhack -->
<g id="edge2" class="edge">
<title>coverActive&#45;&gt;firstWhack</title>
<path fill="none" stroke="black" d="M98.01,-1317.22C106.75,-1304.02 119.08,-1285.37 129.52,-1269.59"/>
<polygon fill="black" stroke="black" points="132.29,-1271.75 134.88,-1261.48 126.45,-1267.89 132.29,-1271.75"/>
<text text-anchor="start" x="126.75" y="-1286.5" font-family="Courier New" font-weight="bold" font-size="10.00" fill="blue">Z_EPSILON(,)</text>
</g>
<!-- secondWhack -->
<g id="node9" class="node">
<title>secondWhack</title>
<polyline fill="none" stroke="darkred" points="103.38,-921.75 200.12,-921.75"/>
<text text-anchor="start" x="106.38" y="-928.95" font-family="Courier New" font-weight="bold" font-size="14.00">secondWhack</text>
<path fill="none" stroke="darkred" d="M109.88,-918.75C109.88,-918.75 193.62,-918.75 193.62,-918.75 198.38,-918.75 203.12,-923.5 203.12,-928.25 203.12,-928.25 203.12,-937.75 203.12,-937.75 203.12,-942.5 198.38,-947.25 193.62,-947.25 193.62,-947.25 109.88,-947.25 109.88,-947.25 105.12,-947.25 100.38,-942.5 100.38,-937.75 100.38,-937.75 100.38,-928.25 100.38,-928.25 100.38,-923.5 105.12,-918.75 109.88,-918.75"/>
</g>
<!-- firstWhack&#45;&gt;secondWhack -->
<g id="edge5" class="edge">
<title>firstWhack&#45;&gt;secondWhack</title>
<path fill="none" stroke="black" d="M149.89,-1216.17C150.24,-1163.14 151.16,-1022.91 151.56,-962.43"/>
<polygon fill="black" stroke="black" points="155.06,-962.65 151.63,-952.63 148.06,-962.61 155.06,-962.65"/>
<polygon fill="none" stroke="black" points="154.75,-1176 154.75,-1194.75 388.75,-1194.75 388.75,-1176 154.75,-1176"/>
<text text-anchor="start" x="238.75" y="-1183.25" font-family="Courier New" font-weight="bold" font-size="10.00" fill="orange">DRAG(WIP3,)</text>
<polygon fill="none" stroke="black" points="154.75,-976.75 154.75,-1174 388.75,-1174 388.75,-976.75 154.75,-976.75"/>
<text text-anchor="start" x="157.75" y="-1161.5" font-family="Courier New" font-size="10.00" fill="blue"> &#160;&#160;&#160;&#160;&#160;&#160;&#160;if(WIP3 == ISA_TOOL_DIGGER){</text>
<text text-anchor="start" x="157.75" y="-1148.75" font-family="Courier New" font-size="10.00" fill="blue"> &#160;&#160;&#160;&#160;&#160;&#160;&#160;&#160;&#160;&#160;&#160;SHOW(0,IDS_SANDPILE1);</text>
<text text-anchor="start" x="157.75" y="-1136" font-family="Courier New" font-size="10.00" fill="blue"> &#160;&#160;&#160;&#160;&#160;&#160;&#160;&#160;&#160;&#160;&#160;ANIMATE();</text>
<text text-anchor="start" x="157.75" y="-1123.25" font-family="Courier New" font-size="10.00" fill="blue"> &#160;&#160;&#160;&#160;&#160;&#160;&#160;&#160;&#160;&#160;&#160;PLAYWAVE(SOUND_DIG);</text>
<text text-anchor="start" x="157.75" y="-1110.5" font-family="Courier New" font-size="10.00" fill="blue"> &#160;&#160;&#160;&#160;&#160;&#160;&#160;&#160;} &#160;&#160;</text>
<text text-anchor="start" x="157.75" y="-1097.75" font-family="Courier New" font-size="10.00" fill="blue"> &#160;&#160;&#160;&#160;&#160;&#160;&#160;&#160;if(WIP3 == ISA_TOOL_STRIKER){</text>
<text text-anchor="start" x="157.75" y="-1085" font-family="Courier New" font-size="10.00" fill="blue"> &#160;&#160;&#160;&#160;&#160;&#160;&#160;&#160;&#160;&#160;&#160;SHOW(0,IDS_SANDSTRIKE);</text>
<text text-anchor="start" x="157.75" y="-1072.25" font-family="Courier New" font-size="10.00" fill="blue"> &#160;&#160;&#160;&#160;&#160;&#160;&#160;&#160;&#160;&#160;&#160;ANIMATE();</text>
<text text-anchor="start" x="157.75" y="-1059.5" font-family="Courier New" font-size="10.00" fill="blue"> &#160;&#160;&#160;&#160;&#160;&#160;&#160;&#160;&#160;&#160;&#160;PLAYWAVE(SOUND_DIG);</text>
<text text-anchor="start" x="157.75" y="-1046.75" font-family="Courier New" font-size="10.00" fill="blue"> &#160;&#160;&#160;&#160;&#160;&#160;&#160;&#160;} &#160;&#160;</text>
<text text-anchor="start" x="157.75" y="-1034" font-family="Courier New" font-size="10.00" fill="blue"> &#160;&#160;&#160;&#160;&#160;&#160;&#160;&#160;&#160;if(WIP3 == ISA_TOOL_PRYER){</text>
<text text-anchor="start" x="157.75" y="-1021.25" font-family="Courier New" font-size="10.00" fill="blue"> &#160;&#160;&#160;&#160;&#160;&#160;&#160;&#160;&#160;&#160;&#160;SHOW(0,IDS_SANDWOBBLE);</text>
<text text-anchor="start" x="157.75" y="-1008.5" font-family="Courier New" font-size="10.00" fill="blue"> &#160;&#160;&#160;&#160;&#160;&#160;&#160;&#160;&#160;&#160;&#160;ANIMATE();</text>
<text text-anchor="start" x="157.75" y="-995.75" font-family="Courier New" font-size="10.00" fill="blue"> &#160;&#160;&#160;&#160;&#160;&#160;&#160;&#160;&#160;&#160;&#160;PLAYWAVE(SOUND_THUMP);</text>
<text text-anchor="start" x="157.75" y="-983" font-family="Courier New" font-size="10.00" fill="blue"> &#160;&#160;&#160;&#160;&#160;&#160;&#160;&#160;} &#160;&#160;</text>
<polygon fill="none" stroke="black" points="151.75,-973.75 151.75,-1197.75 391.75,-1197.75 391.75,-973.75 151.75,-973.75"/>
</g>
<!-- determinedItem&#45;&gt;coverActive -->
<g id="edge3" class="edge">
<title>determinedItem&#45;&gt;coverActive</title>
<path fill="none" stroke="black" d="M73.96,-1435.13C76.36,-1416.63 80.21,-1386.83 83.06,-1364.77"/>
<polygon fill="black" stroke="black" points="86.52,-1365.3 84.33,-1354.94 79.58,-1364.41 86.52,-1365.3"/>
<polygon fill="none" stroke="black" points="85.75,-1395.25 85.75,-1414 223.75,-1414 223.75,-1395.25 85.75,-1395.25"/>
<text text-anchor="start" x="103.75" y="-1402.5" font-family="Courier New" font-weight="bold" font-size="10.00" fill="blue">MOV(WSPRITE,WIP2)</text>
<polygon fill="none" stroke="black" points="85.75,-1374.5 85.75,-1393.25 223.75,-1393.25 223.75,-1374.5 85.75,-1374.5"/>
<text text-anchor="start" x="88.75" y="-1380.75" font-family="Courier New" font-size="10.00" fill="blue"> &#160;&#160;&#160;&#160;&#160;&#160;&#160;SHOW(WSPRITE);</text>
<polygon fill="none" stroke="black" points="82.75,-1371.5 82.75,-1417 226.75,-1417 226.75,-1371.5 82.75,-1371.5"/>
</g>
<!-- displayItem -->
<g id="node7" class="node">
<title>displayItem</title>
<polyline fill="none" stroke="darkred" points="208.38,-100.25 305.12,-100.25"/>
<text text-anchor="start" x="211.38" y="-107.45" font-family="Courier New" font-weight="bold" font-size="14.00">displayItem</text>
<path fill="none" stroke="darkred" d="M214.88,-97.25C214.88,-97.25 298.62,-97.25 298.62,-97.25 303.38,-97.25 308.12,-102 308.12,-106.75 308.12,-106.75 308.12,-116.25 308.12,-116.25 308.12,-121 303.38,-125.75 298.62,-125.75 298.62,-125.75 214.88,-125.75 214.88,-125.75 210.12,-125.75 205.38,-121 205.38,-116.25 205.38,-116.25 205.38,-106.75 205.38,-106.75 205.38,-102 210.12,-97.25 214.88,-97.25"/>
</g>
<!-- itemGrabbed -->
<g id="node8" class="node">
<title>itemGrabbed</title>
<polyline fill="none" stroke="darkred" points="283.38,-7 380.12,-7"/>
<text text-anchor="start" x="286.38" y="-14.2" font-family="Courier New" font-weight="bold" font-size="14.00">itemGrabbed</text>
<path fill="none" stroke="darkred" d="M289.88,-4C289.88,-4 373.62,-4 373.62,-4 378.38,-4 383.12,-8.75 383.12,-13.5 383.12,-13.5 383.12,-23 383.12,-23 383.12,-27.75 378.38,-32.5 373.62,-32.5 373.62,-32.5 289.88,-32.5 289.88,-32.5 285.12,-32.5 280.38,-27.75 280.38,-23 280.38,-23 280.38,-13.5 280.38,-13.5 280.38,-8.75 285.12,-4 289.88,-4"/>
</g>
<!-- displayItem&#45;&gt;itemGrabbed -->
<g id="edge4" class="edge">
<title>displayItem&#45;&gt;itemGrabbed</title>
<path fill="none" stroke="black" d="M270.86,-93.34C282.07,-79.7 297.92,-60.41 310.64,-44.94"/>
<polygon fill="black" stroke="black" points="313.1,-47.45 316.75,-37.51 307.69,-43.01 313.1,-47.45"/>
<text text-anchor="start" x="305.75" y="-62.75" font-family="Courier New" font-weight="bold" font-size="10.00" fill="orange">GRAB(,)</text>
</g>
<!-- itemGrabbed&#45;&gt;0 -->
<g id="edge8" class="edge">
<title>itemGrabbed&#45;&gt;0</title>
<path fill="none" stroke="black" d="M358.76,-36.36C380.6,-52.52 407.75,-78.96 407.75,-110.5 407.75,-1585 407.75,-1585 407.75,-1585 407.75,-1627.02 421.47,-1646.93 393.75,-1678.5 374.54,-1700.38 355.55,-1681.23 330.75,-1696.5 324.92,-1700.09 319.44,-1704.88 314.6,-1709.88"/>
<polygon fill="black" stroke="black" points="312.15,-1707.37 308.11,-1717.16 317.38,-1712.02 312.15,-1707.37"/>
<polygon fill="none" stroke="black" points="410.75,-934 410.75,-952.75 488.75,-952.75 488.75,-934 410.75,-934"/>
<text text-anchor="start" x="413.75" y="-941.25" font-family="Courier New" font-weight="bold" font-size="10.00" fill="blue">Z_EPSILON(,)</text>
<polygon fill="none" stroke="black" points="410.75,-913.25 410.75,-932 488.75,-932 488.75,-913.25 410.75,-913.25"/>
<text text-anchor="start" x="428.75" y="-919.5" font-family="Courier New" font-size="10.00" fill="blue">SHOW();</text>
<polygon fill="none" stroke="black" points="407.75,-910.25 407.75,-955.75 491.75,-955.75 491.75,-910.25 407.75,-910.25"/>
</g>
<!-- thirdWhack -->
<g id="node12" class="node">
<title>thirdWhack</title>
<polyline fill="none" stroke="darkred" points="108.5,-620.75 197,-620.75"/>
<text text-anchor="start" x="111.5" y="-627.95" font-family="Courier New" font-weight="bold" font-size="14.00">thirdWhack</text>
<path fill="none" stroke="darkred" d="M115,-617.75C115,-617.75 190.5,-617.75 190.5,-617.75 195.25,-617.75 200,-622.5 200,-627.25 200,-627.25 200,-636.75 200,-636.75 200,-641.5 195.25,-646.25 190.5,-646.25 190.5,-646.25 115,-646.25 115,-646.25 110.25,-646.25 105.5,-641.5 105.5,-636.75 105.5,-636.75 105.5,-627.25 105.5,-627.25 105.5,-622.5 110.25,-617.75 115,-617.75"/>
</g>
<!-- secondWhack&#45;&gt;thirdWhack -->
<g id="edge10" class="edge">
<title>secondWhack&#45;&gt;thirdWhack</title>
<path fill="none" stroke="black" d="M151.81,-915.07C151.97,-865.95 152.45,-723.01 152.65,-661.59"/>
<polygon fill="black" stroke="black" points="156.15,-661.64 152.69,-651.63 149.15,-661.62 156.15,-661.64"/>
<polygon fill="none" stroke="black" points="155.75,-870.5 155.75,-889.25 389.75,-889.25 389.75,-870.5 155.75,-870.5"/>
<text text-anchor="start" x="239.75" y="-877.75" font-family="Courier New" font-weight="bold" font-size="10.00" fill="orange">DRAG(WIP3,)</text>
<polygon fill="none" stroke="black" points="155.75,-671.25 155.75,-868.5 389.75,-868.5 389.75,-671.25 155.75,-671.25"/>
<text text-anchor="start" x="158.75" y="-856" font-family="Courier New" font-size="10.00" fill="blue"> &#160;&#160;&#160;&#160;&#160;&#160;&#160;if(WIP3 == ISA_TOOL_DIGGER){</text>
<text text-anchor="start" x="158.75" y="-843.25" font-family="Courier New" font-size="10.00" fill="blue"> &#160;&#160;&#160;&#160;&#160;&#160;&#160;&#160;&#160;&#160;&#160;SHOW(0,IDS_SANDPILE2);</text>
<text text-anchor="start" x="158.75" y="-830.5" font-family="Courier New" font-size="10.00" fill="blue"> &#160;&#160;&#160;&#160;&#160;&#160;&#160;&#160;&#160;&#160;&#160;ANIMATE();</text>
<text text-anchor="start" x="158.75" y="-817.75" font-family="Courier New" font-size="10.00" fill="blue"> &#160;&#160;&#160;&#160;&#160;&#160;&#160;&#160;&#160;&#160;&#160;PLAYWAVE(SOUND_DIG);</text>
<text text-anchor="start" x="158.75" y="-805" font-family="Courier New" font-size="10.00" fill="blue"> &#160;&#160;&#160;&#160;&#160;&#160;&#160;&#160;} &#160;&#160;</text>
<text text-anchor="start" x="158.75" y="-792.25" font-family="Courier New" font-size="10.00" fill="blue"> &#160;&#160;&#160;&#160;&#160;&#160;&#160;&#160;if(WIP3 == ISA_TOOL_STRIKER){</text>
<text text-anchor="start" x="158.75" y="-779.5" font-family="Courier New" font-size="10.00" fill="blue"> &#160;&#160;&#160;&#160;&#160;&#160;&#160;&#160;&#160;&#160;&#160;SHOW(0,IDS_SANDSTRIKE);</text>
<text text-anchor="start" x="158.75" y="-766.75" font-family="Courier New" font-size="10.00" fill="blue"> &#160;&#160;&#160;&#160;&#160;&#160;&#160;&#160;&#160;&#160;&#160;ANIMATE();</text>
<text text-anchor="start" x="158.75" y="-754" font-family="Courier New" font-size="10.00" fill="blue"> &#160;&#160;&#160;&#160;&#160;&#160;&#160;&#160;&#160;&#160;&#160;PLAYWAVE(SOUND_DIG);</text>
<text text-anchor="start" x="158.75" y="-741.25" font-family="Courier New" font-size="10.00" fill="blue"> &#160;&#160;&#160;&#160;&#160;&#160;&#160;&#160;} &#160;&#160;</text>
<text text-anchor="start" x="158.75" y="-728.5" font-family="Courier New" font-size="10.00" fill="blue"> &#160;&#160;&#160;&#160;&#160;&#160;&#160;&#160;&#160;&#160;if(WIP3 == ISA_TOOL_PRYER){</text>
<text text-anchor="start" x="158.75" y="-715.75" font-family="Courier New" font-size="10.00" fill="blue"> &#160;&#160;&#160;&#160;&#160;&#160;&#160;&#160;&#160;&#160;&#160;SHOW(0,IDS_SANDFLIP);</text>
<text text-anchor="start" x="158.75" y="-703" font-family="Courier New" font-size="10.00" fill="blue"> &#160;&#160;&#160;&#160;&#160;&#160;&#160;&#160;&#160;&#160;&#160;ANIMATE();</text>
<text text-anchor="start" x="158.75" y="-690.25" font-family="Courier New" font-size="10.00" fill="blue"> &#160;&#160;&#160;&#160;&#160;&#160;&#160;&#160;&#160;&#160;&#160;PLAYWAVE(SOUND_THUMP);</text>
<text text-anchor="start" x="158.75" y="-677.5" font-family="Courier New" font-size="10.00" fill="blue"> &#160;&#160;&#160;&#160;&#160;&#160;&#160;&#160;} &#160;&#160;</text>
<polygon fill="none" stroke="black" points="152.75,-668.25 152.75,-892.25 392.75,-892.25 392.75,-668.25 152.75,-668.25"/>
</g>
<!-- fourthWhack -->
<g id="node10" class="node">
<title>fourthWhack</title>
<polyline fill="none" stroke="darkred" points="109.38,-324.25 206.12,-324.25"/>
<text text-anchor="start" x="112.38" y="-331.45" font-family="Courier New" font-weight="bold" font-size="14.00">fourthWhack</text>
<path fill="none" stroke="darkred" d="M115.88,-321.25C115.88,-321.25 199.62,-321.25 199.62,-321.25 204.38,-321.25 209.12,-326 209.12,-330.75 209.12,-330.75 209.12,-340.25 209.12,-340.25 209.12,-345 204.38,-349.75 199.62,-349.75 199.62,-349.75 115.88,-349.75 115.88,-349.75 111.12,-349.75 106.38,-345 106.38,-340.25 106.38,-340.25 106.38,-330.75 106.38,-330.75 106.38,-326 111.12,-321.25 115.88,-321.25"/>
</g>
<!-- moveMe -->
<g id="node11" class="node">
<title>moveMe</title>
<polyline fill="none" stroke="darkred" points="161,-231 216.5,-231"/>
<text text-anchor="start" x="164" y="-238.2" font-family="Courier New" font-weight="bold" font-size="14.00">moveMe</text>
<path fill="none" stroke="darkred" d="M167.5,-228C167.5,-228 210,-228 210,-228 214.75,-228 219.5,-232.75 219.5,-237.5 219.5,-237.5 219.5,-247 219.5,-247 219.5,-251.75 214.75,-256.5 210,-256.5 210,-256.5 167.5,-256.5 167.5,-256.5 162.75,-256.5 158,-251.75 158,-247 158,-247 158,-237.5 158,-237.5 158,-232.75 162.75,-228 167.5,-228"/>
</g>
<!-- fourthWhack&#45;&gt;moveMe -->
<g id="edge7" class="edge">
<title>fourthWhack&#45;&gt;moveMe</title>
<path fill="none" stroke="black" d="M163.58,-317.34C168,-304.34 174.16,-286.2 179.28,-271.13"/>
<polygon fill="black" stroke="black" points="182.56,-272.36 182.46,-261.77 175.93,-270.11 182.56,-272.36"/>
<text text-anchor="start" x="180.75" y="-286.75" font-family="Courier New" font-weight="bold" font-size="10.00" fill="orange">DRAG(WIP3,)</text>
</g>
<!-- moveMe&#45;&gt;displayItem -->
<g id="edge9" class="edge">
<title>moveMe&#45;&gt;displayItem</title>
<path fill="none" stroke="black" d="M185.56,-224.27C182.75,-204.33 181.12,-171.05 195.75,-147.75 198.42,-143.5 201.8,-139.7 205.6,-136.33"/>
<polygon fill="black" stroke="black" points="207.41,-139.35 213.25,-130.51 203.17,-133.78 207.41,-139.35"/>
<polygon fill="none" stroke="black" points="198.75,-184.25 198.75,-203 390.75,-203 390.75,-184.25 198.75,-184.25"/>
<text text-anchor="start" x="237.75" y="-191.5" font-family="Courier New" font-weight="bold" font-size="10.00" fill="blue">SET_YOFFSET(ADD,50)</text>
<polygon fill="none" stroke="black" points="198.75,-150.75 198.75,-182.25 390.75,-182.25 390.75,-150.75 198.75,-150.75"/>
<text text-anchor="start" x="201.75" y="-169.75" font-family="Courier New" font-size="10.00" fill="blue"> &#160;&#160;&#160;&#160;&#160;&#160;&#160;PLAYWAVE(SOUND_CHIMES);</text>
<text text-anchor="start" x="201.75" y="-157" font-family="Courier New" font-size="10.00" fill="blue"> &#160;&#160;&#160;&#160;&#160;&#160;&#160;SHOW(WOBJECT);</text>
<polygon fill="none" stroke="black" points="195.75,-147.75 195.75,-206 393.75,-206 393.75,-147.75 195.75,-147.75"/>
</g>
<!-- thirdWhack&#45;&gt;fourthWhack -->
<g id="edge11" class="edge">
<title>thirdWhack&#45;&gt;fourthWhack</title>
<path fill="none" stroke="black" d="M152.17,-613.99C150.91,-572.53 148.41,-462.96 153.75,-371.75 153.88,-369.54 154.05,-367.25 154.25,-364.95"/>
<polygon fill="black" stroke="black" points="157.71,-365.49 155.26,-355.19 150.75,-364.77 157.71,-365.49"/>
<polygon fill="none" stroke="black" points="156.75,-574 156.75,-592.75 390.75,-592.75 390.75,-574 156.75,-574"/>
<text text-anchor="start" x="240.75" y="-581.25" font-family="Courier New" font-weight="bold" font-size="10.00" fill="orange">DRAG(WIP3,)</text>
<polygon fill="none" stroke="black" points="156.75,-374.75 156.75,-572 390.75,-572 390.75,-374.75 156.75,-374.75"/>
<text text-anchor="start" x="159.75" y="-559.5" font-family="Courier New" font-size="10.00" fill="blue"> &#160;&#160;&#160;&#160;&#160;&#160;&#160;if(WIP3 == ISA_TOOL_DIGGER){</text>
<text text-anchor="start" x="159.75" y="-546.75" font-family="Courier New" font-size="10.00" fill="blue"> &#160;&#160;&#160;&#160;&#160;&#160;&#160;&#160;&#160;&#160;&#160;SHOW(0,IDS_SANDPILE3);</text>
<text text-anchor="start" x="159.75" y="-534" font-family="Courier New" font-size="10.00" fill="blue"> &#160;&#160;&#160;&#160;&#160;&#160;&#160;&#160;&#160;&#160;&#160;ANIMATE();</text>
<text text-anchor="start" x="159.75" y="-521.25" font-family="Courier New" font-size="10.00" fill="blue"> &#160;&#160;&#160;&#160;&#160;&#160;&#160;&#160;&#160;&#160;&#160;PLAYWAVE(SOUND_DIG);</text>
<text text-anchor="start" x="159.75" y="-508.5" font-family="Courier New" font-size="10.00" fill="blue"> &#160;&#160;&#160;&#160;&#160;&#160;&#160;&#160;} &#160;&#160;</text>
<text text-anchor="start" x="159.75" y="-495.75" font-family="Courier New" font-size="10.00" fill="blue"> &#160;&#160;&#160;&#160;&#160;&#160;&#160;&#160;if(WIP3 == ISA_TOOL_STRIKER){</text>
<text text-anchor="start" x="159.75" y="-483" font-family="Courier New" font-size="10.00" fill="blue"> &#160;&#160;&#160;&#160;&#160;&#160;&#160;&#160;&#160;&#160;&#160;SHOW(0,IDS_SANDSTRIKE);</text>
<text text-anchor="start" x="159.75" y="-470.25" font-family="Courier New" font-size="10.00" fill="blue"> &#160;&#160;&#160;&#160;&#160;&#160;&#160;&#160;&#160;&#160;&#160;ANIMATE();</text>
<text text-anchor="start" x="159.75" y="-457.5" font-family="Courier New" font-size="10.00" fill="blue"> &#160;&#160;&#160;&#160;&#160;&#160;&#160;&#160;&#160;&#160;&#160;PLAYWAVE(SOUND_DIG);</text>
<text text-anchor="start" x="159.75" y="-444.75" font-family="Courier New" font-size="10.00" fill="blue"> &#160;&#160;&#160;&#160;&#160;&#160;&#160;&#160;} &#160;&#160;</text>
<text text-anchor="start" x="159.75" y="-432" font-family="Courier New" font-size="10.00" fill="blue"> &#160;&#160;&#160;&#160;&#160;&#160;&#160;&#160;&#160;&#160;if(WIP3 == ISA_TOOL_PRYER){</text>
<text text-anchor="start" x="159.75" y="-419.25" font-family="Courier New" font-size="10.00" fill="blue"> &#160;&#160;&#160;&#160;&#160;&#160;&#160;&#160;&#160;&#160;&#160;SHOW(0,IDS_SANDFLIP);</text>
<text text-anchor="start" x="159.75" y="-406.5" font-family="Courier New" font-size="10.00" fill="blue"> &#160;&#160;&#160;&#160;&#160;&#160;&#160;&#160;&#160;&#160;&#160;ANIMATE();</text>
<text text-anchor="start" x="159.75" y="-393.75" font-family="Courier New" font-size="10.00" fill="blue"> &#160;&#160;&#160;&#160;&#160;&#160;&#160;&#160;&#160;&#160;&#160;PLAYWAVE(SOUND_THUMP);</text>
<text text-anchor="start" x="159.75" y="-381" font-family="Courier New" font-size="10.00" fill="blue"> &#160;&#160;&#160;&#160;&#160;&#160;&#160;&#160;} &#160;&#160;</text>
<polygon fill="none" stroke="black" points="153.75,-371.75 153.75,-595.75 393.75,-595.75 393.75,-371.75 153.75,-371.75"/>
</g>
<!-- status -->
<g id="node13" class="node">
<title>status</title>
<polygon fill="none" stroke="black" points="339.75,-1697 339.75,-1776 883.75,-1776 883.75,-1697 339.75,-1697"/>
<polygon fill="none" stroke="black" points="350.75,-1750.25 350.75,-1769 872.75,-1769 872.75,-1750.25 350.75,-1750.25"/>
<text text-anchor="start" x="572.75" y="-1757.5" font-family="Courier New" font-weight="bold" font-size="10.00">S00_HIDDEN_23</text>
<polygon fill="none" stroke="black" points="350.75,-1704 350.75,-1748.25 872.75,-1748.25 872.75,-1704 350.75,-1704"/>
<text text-anchor="start" x="353.75" y="-1735.75" font-family="Courier New" font-size="10.00" fill="green">VIEW::IDV_PATH2 @pos(left:693, top:208)</text>
<text text-anchor="start" x="353.75" y="-1723" font-family="Courier New" font-size="10.00" fill="green">S00_HIDDEN_23::M_DIGGABLE(&#39;IDV_CU_GRASSPATCH1&#39;,&#39;IDS_SANDDIRTGRS&#39;,&#39;ISA_TOOL_DIGGER&#39;,&#39;&#39;)</text>
<text text-anchor="start" x="353.75" y="-1710.25" font-family="Courier New" font-size="10.00" fill="green">{state:&#39;firstWhack&#39;: wObject:IDD_POTTALIS5 wSprite:IDS_SANDDIRTGRS</text>
<polygon fill="none" stroke="black" points="347.75,-1701 347.75,-1772 875.75,-1772 875.75,-1701 347.75,-1701"/>
</g>
</g>
</svg>
