<?xml version="1.0" encoding="UTF-8" standalone="no"?>
<!DOCTYPE svg PUBLIC "-//W3C//DTD SVG 1.1//EN"
 "http://www.w3.org/Graphics/SVG/1.1/DTD/svg11.dtd">
<!-- Generated by graphviz version 8.0.1 (20230327.1645)
 -->
<!-- Title: Automaton Pages: 1 -->
<svg width="883pt" height="1905pt"
 viewBox="0.00 0.00 883.00 1905.00" xmlns="http://www.w3.org/2000/svg" xmlns:xlink="http://www.w3.org/1999/xlink">
<g id="graph0" class="graph" transform="scale(1 1) rotate(0) translate(4 1901)">
<title>Automaton</title>
<polygon fill="white" stroke="none" points="-4,4 -4,-1901 879,-1901 879,4 -4,4"/>
<!-- filename -->
<g id="node1" class="node">
<title>filename</title>
<polygon fill="none" stroke="black" points="0,-1835.5 0,-1885.5 167,-1885.5 167,-1835.5 0,-1835.5"/>
<polygon fill="none" stroke="black" points="11,-1861.5 11,-1878.5 156,-1878.5 156,-1861.5 11,-1861.5"/>
<text text-anchor="start" x="14" y="-1868.5" font-family="Courier New" font-weight="bold" font-size="10.00">S00_CITYGOPA::M_NEWGOPA</text>
<polygon fill="none" stroke="black" points="11,-1842.5 11,-1859.5 156,-1859.5 156,-1842.5 11,-1842.5"/>
<text text-anchor="start" x="38" y="-1848.5" font-family="Courier New" font-size="10.00" fill="brown">start state = 0</text>
<polygon fill="none" stroke="black" points="8,-1839.5 8,-1881.5 159,-1881.5 159,-1839.5 8,-1839.5"/>
</g>
<!-- 0 -->
<g id="node2" class="node">
<title>0</title>
<polyline fill="none" stroke="darkred" points="205,-1850 220,-1850"/>
<text text-anchor="start" x="208" y="-1857.8" font-family="Courier New" font-weight="bold" font-size="14.00">0</text>
<path fill="none" stroke="darkred" d="M209,-1847C209,-1847 216,-1847 216,-1847 219.5,-1847 223,-1850.5 223,-1854 223,-1854 223,-1867 223,-1867 223,-1870.5 219.5,-1874 216,-1874 216,-1874 209,-1874 209,-1874 205.5,-1874 202,-1870.5 202,-1867 202,-1867 202,-1854 202,-1854 202,-1850.5 205.5,-1847 209,-1847"/>
</g>
<!-- setup -->
<g id="node3" class="node">
<title>setup</title>
<polyline fill="none" stroke="darkred" points="188.5,-1740.5 236.5,-1740.5"/>
<text text-anchor="start" x="191.5" y="-1748.3" font-family="Courier New" font-weight="bold" font-size="14.00">setup</text>
<path fill="none" stroke="darkred" d="M194.5,-1737.5C194.5,-1737.5 230.5,-1737.5 230.5,-1737.5 235,-1737.5 239.5,-1742 239.5,-1746.5 239.5,-1746.5 239.5,-1755.5 239.5,-1755.5 239.5,-1760 235,-1764.5 230.5,-1764.5 230.5,-1764.5 194.5,-1764.5 194.5,-1764.5 190,-1764.5 185.5,-1760 185.5,-1755.5 185.5,-1755.5 185.5,-1746.5 185.5,-1746.5 185.5,-1742 190,-1737.5 194.5,-1737.5"/>
</g>
<!-- 0&#45;&gt;setup -->
<g id="edge1" class="edge">
<title>0&#45;&gt;setup</title>
<path fill="none" stroke="black" d="M212.5,-1842.7C212.5,-1825.82 212.5,-1799.51 212.5,-1779.57"/>
<polygon fill="black" stroke="black" points="216,-1779.68 212.5,-1769.68 209,-1779.68 216,-1779.68"/>
<text text-anchor="start" x="216.5" y="-1795" font-family="Courier New" font-weight="bold" font-size="10.00" fill="blue">C_ACCEPT(WIP1,)</text>
</g>
<!-- digging -->
<g id="node6" class="node">
<title>digging</title>
<polyline fill="none" stroke="darkred" points="180.5,-1582.5 244.5,-1582.5"/>
<text text-anchor="start" x="183.5" y="-1590.3" font-family="Courier New" font-weight="bold" font-size="14.00">digging</text>
<path fill="none" stroke="darkred" d="M186.5,-1579.5C186.5,-1579.5 238.5,-1579.5 238.5,-1579.5 243,-1579.5 247.5,-1584 247.5,-1588.5 247.5,-1588.5 247.5,-1597.5 247.5,-1597.5 247.5,-1602 243,-1606.5 238.5,-1606.5 238.5,-1606.5 186.5,-1606.5 186.5,-1606.5 182,-1606.5 177.5,-1602 177.5,-1597.5 177.5,-1597.5 177.5,-1588.5 177.5,-1588.5 177.5,-1584 182,-1579.5 186.5,-1579.5"/>
</g>
<!-- setup&#45;&gt;digging -->
<g id="edge13" class="edge">
<title>setup&#45;&gt;digging</title>
<path fill="none" stroke="black" d="M212.5,-1733.01C212.5,-1706.28 212.5,-1654.15 212.5,-1621.88"/>
<polygon fill="black" stroke="black" points="216,-1621.97 212.5,-1611.97 209,-1621.97 216,-1621.97"/>
<polygon fill="none" stroke="black" points="215.5,-1695 215.5,-1712 444.5,-1712 444.5,-1695 215.5,-1695"/>
<text text-anchor="start" x="308.5" y="-1702" font-family="Courier New" font-weight="bold" font-size="10.00" fill="orange">DRAG(,)</text>
<polygon fill="none" stroke="black" points="215.5,-1632 215.5,-1693 444.5,-1693 444.5,-1632 215.5,-1632"/>
<text text-anchor="start" x="218.5" y="-1682" font-family="Courier New" font-size="10.00" fill="blue"> &#160;&#160;&#160;if(WIP1 == ISA_TOOL_DIGGER){</text>
<text text-anchor="start" x="218.5" y="-1671" font-family="Courier New" font-size="10.00" fill="blue"> &#160;&#160;&#160;&#160;&#160;&#160;&#160;&#160;&#160;&#160;&#160;SHOW(0,IDS_SANDPILEGOPA);</text>
<text text-anchor="start" x="218.5" y="-1660" font-family="Courier New" font-size="10.00" fill="blue"> &#160;&#160;&#160;&#160;&#160;&#160;&#160;&#160;&#160;&#160;&#160;PLAYWAVE(SOUND_DIG);</text>
<text text-anchor="start" x="218.5" y="-1649" font-family="Courier New" font-size="10.00" fill="blue"> &#160;&#160;&#160;&#160;&#160;&#160;&#160;&#160;&#160;&#160;&#160;ANIMATE();</text>
<text text-anchor="start" x="218.5" y="-1638" font-family="Courier New" font-size="10.00" fill="blue"> &#160;&#160;&#160;&#160;&#160;&#160;&#160;&#160;} &#160;&#160;</text>
<polygon fill="none" stroke="black" points="212.5,-1629 212.5,-1715 447.5,-1715 447.5,-1629 212.5,-1629"/>
</g>
<!-- blueBerry -->
<g id="node4" class="node">
<title>blueBerry</title>
<polyline fill="none" stroke="darkred" points="23,-7.5 104,-7.5"/>
<text text-anchor="start" x="26" y="-15.3" font-family="Courier New" font-weight="bold" font-size="14.00">blueBerry</text>
<path fill="none" stroke="darkred" d="M29,-4.5C29,-4.5 98,-4.5 98,-4.5 102.5,-4.5 107,-9 107,-13.5 107,-13.5 107,-22.5 107,-22.5 107,-27 102.5,-31.5 98,-31.5 98,-31.5 29,-31.5 29,-31.5 24.5,-31.5 20,-27 20,-22.5 20,-22.5 20,-13.5 20,-13.5 20,-9 24.5,-4.5 29,-4.5"/>
</g>
<!-- immaturePlant -->
<g id="node5" class="node">
<title>immaturePlant</title>
<polyline fill="none" stroke="darkred" stroke-width="3" points="155,-501.5 270,-501.5"/>
<text text-anchor="start" x="158.5" y="-509.8" font-family="Courier New" font-weight="bold" font-size="14.00">immaturePlant</text>
<path fill="none" stroke="darkred" stroke-width="3" d="M160.67,-496.5C160.67,-496.5 264.33,-496.5 264.33,-496.5 269.67,-496.5 275,-501.83 275,-507.17 275,-507.17 275,-517.83 275,-517.83 275,-523.17 269.67,-528.5 264.33,-528.5 264.33,-528.5 160.67,-528.5 160.67,-528.5 155.33,-528.5 150,-523.17 150,-517.83 150,-517.83 150,-507.17 150,-507.17 150,-501.83 155.33,-496.5 160.67,-496.5"/>
</g>
<!-- blueBerry&#45;&gt;immaturePlant -->
<g id="edge2" class="edge">
<title>blueBerry&#45;&gt;immaturePlant</title>
<path fill="none" stroke="black" d="M56.92,-35.72C32.7,-100.27 -44.65,-336.38 61.5,-473 70.63,-484.75 99.81,-493.51 130.11,-499.69"/>
<polygon fill="black" stroke="black" points="129.36,-503.3 139.84,-501.76 130.69,-496.43 129.36,-503.3"/>
<polygon fill="none" stroke="black" points="15.5,-261.5 15.5,-278.5 208.5,-278.5 208.5,-261.5 15.5,-261.5"/>
<text text-anchor="start" x="87.5" y="-268.5" font-family="Courier New" font-weight="bold" font-size="10.00" fill="orange">GRAB(0,)</text>
<polygon fill="none" stroke="black" points="15.5,-231.5 15.5,-259.5 208.5,-259.5 208.5,-231.5 15.5,-231.5"/>
<text text-anchor="start" x="18.5" y="-248.5" font-family="Courier New" font-size="10.00" fill="blue"> &#160;&#160;&#160;&#160;&#160;&#160;&#160;&#160;&#160;&#160;&#160;MOV(BFRAME,0);</text>
<text text-anchor="start" x="18.5" y="-237.5" font-family="Courier New" font-size="10.00" fill="blue"> &#160;&#160;&#160;&#160;&#160;&#160;&#160;&#160;&#160;&#160;&#160;SHOW(0,IDS_GPANIM);</text>
<polygon fill="none" stroke="black" points="12.5,-228.5 12.5,-281.5 211.5,-281.5 211.5,-228.5 12.5,-228.5"/>
</g>
<!-- greenBerry -->
<g id="node12" class="node">
<title>greenBerry</title>
<polyline fill="none" stroke="darkred" points="241,-332 330,-332"/>
<text text-anchor="start" x="244" y="-339.8" font-family="Courier New" font-weight="bold" font-size="14.00">greenBerry</text>
<path fill="none" stroke="darkred" d="M247,-329C247,-329 324,-329 324,-329 328.5,-329 333,-333.5 333,-338 333,-338 333,-347 333,-347 333,-351.5 328.5,-356 324,-356 324,-356 247,-356 247,-356 242.5,-356 238,-351.5 238,-347 238,-347 238,-338 238,-338 238,-333.5 242.5,-329 247,-329"/>
</g>
<!-- immaturePlant&#45;&gt;greenBerry -->
<g id="edge9" class="edge">
<title>immaturePlant&#45;&gt;greenBerry</title>
<path fill="none" stroke="black" d="M140.58,-499.09C112.83,-492.7 85.76,-483.94 77.5,-473 54.48,-442.49 53.4,-416.66 77.5,-387 95.18,-365.24 165.22,-353.98 219.19,-348.43"/>
<polygon fill="black" stroke="black" points="219.48,-351.82 229.09,-347.36 218.8,-344.85 219.48,-351.82"/>
<polygon fill="none" stroke="black" points="80.5,-453 80.5,-470 315.5,-470 315.5,-453 80.5,-453"/>
<text text-anchor="start" x="146.5" y="-460" font-family="Courier New" font-weight="bold" font-size="10.00" fill="orange">DRAG(0,IDD_BUCKF)</text>
<polygon fill="none" stroke="black" points="80.5,-390 80.5,-451 315.5,-451 315.5,-390 80.5,-390"/>
<text text-anchor="start" x="83.5" y="-440" font-family="Courier New" font-size="10.00" fill="blue"> &#160;&#160;&#160;&#160;&#160;&#160;&#160;&#160;&#160;&#160;&#160;HANDOFF(IDD_BUCKE);</text>
<text text-anchor="start" x="83.5" y="-429" font-family="Courier New" font-size="10.00" fill="blue"> &#160;&#160;&#160;&#160;&#160;&#160;&#160;&#160;&#160;&#160;&#160;PLAYWAVE(SOUND_SPLASH);</text>
<text text-anchor="start" x="83.5" y="-418" font-family="Courier New" font-size="10.00" fill="blue"> &#160;&#160;&#160;&#160;&#160;&#160;&#160;&#160;&#160;&#160;&#160;MOV(BFRAME,1);</text>
<text text-anchor="start" x="83.5" y="-407" font-family="Courier New" font-size="10.00" fill="blue"> &#160;&#160;&#160;&#160;&#160;&#160;&#160;&#160;&#160;&#160;&#160;ASSIGN(WOBJECT,IDD_GOPAG);</text>
<text text-anchor="start" x="83.5" y="-396" font-family="Courier New" font-size="10.00" fill="blue"> &#160;&#160;&#160;&#160;&#160;&#160;&#160;&#160;&#160;&#160;&#160;SHOW(0,IDS_GPANIM);</text>
<polygon fill="none" stroke="black" points="77.5,-387 77.5,-473 318.5,-473 318.5,-387 77.5,-387"/>
</g>
<!-- holeDug -->
<g id="node7" class="node">
<title>holeDug</title>
<polyline fill="none" stroke="darkred" points="180.5,-1468.5 244.5,-1468.5"/>
<text text-anchor="start" x="183.5" y="-1476.3" font-family="Courier New" font-weight="bold" font-size="14.00">holeDug</text>
<path fill="none" stroke="darkred" d="M186.5,-1465.5C186.5,-1465.5 238.5,-1465.5 238.5,-1465.5 243,-1465.5 247.5,-1470 247.5,-1474.5 247.5,-1474.5 247.5,-1483.5 247.5,-1483.5 247.5,-1488 243,-1492.5 238.5,-1492.5 238.5,-1492.5 186.5,-1492.5 186.5,-1492.5 182,-1492.5 177.5,-1488 177.5,-1483.5 177.5,-1483.5 177.5,-1474.5 177.5,-1474.5 177.5,-1470 182,-1465.5 186.5,-1465.5"/>
</g>
<!-- digging&#45;&gt;holeDug -->
<g id="edge3" class="edge">
<title>digging&#45;&gt;holeDug</title>
<path fill="none" stroke="black" d="M212.5,-1575.47C212.5,-1557.71 212.5,-1529.16 212.5,-1507.91"/>
<polygon fill="black" stroke="black" points="216,-1507.96 212.5,-1497.96 209,-1507.96 216,-1507.96"/>
<polygon fill="none" stroke="black" points="215.5,-1537 215.5,-1554 432.5,-1554 432.5,-1537 215.5,-1537"/>
<text text-anchor="start" x="293.5" y="-1544" font-family="Courier New" font-weight="bold" font-size="10.00" fill="blue">ESTIME(,3)</text>
<polygon fill="none" stroke="black" points="215.5,-1518 215.5,-1535 432.5,-1535 432.5,-1518 215.5,-1518"/>
<text text-anchor="start" x="218.5" y="-1524" font-family="Courier New" font-size="10.00" fill="blue"> &#160;&#160;&#160;&#160;&#160;&#160;&#160;&#160;&#160;&#160;&#160;O_ACCEPT(IDD_GOPASEED);</text>
<polygon fill="none" stroke="black" points="212.5,-1515 212.5,-1557 435.5,-1557 435.5,-1515 212.5,-1515"/>
</g>
<!-- firstPlanted -->
<g id="node8" class="node">
<title>firstPlanted</title>
<polyline fill="none" stroke="darkred" points="159.5,-1343.5 265.5,-1343.5"/>
<text text-anchor="start" x="162.5" y="-1351.3" font-family="Courier New" font-weight="bold" font-size="14.00">firstPlanted</text>
<path fill="none" stroke="darkred" d="M165.5,-1340.5C165.5,-1340.5 259.5,-1340.5 259.5,-1340.5 264,-1340.5 268.5,-1345 268.5,-1349.5 268.5,-1349.5 268.5,-1358.5 268.5,-1358.5 268.5,-1363 264,-1367.5 259.5,-1367.5 259.5,-1367.5 165.5,-1367.5 165.5,-1367.5 161,-1367.5 156.5,-1363 156.5,-1358.5 156.5,-1358.5 156.5,-1349.5 156.5,-1349.5 156.5,-1345 161,-1340.5 165.5,-1340.5"/>
</g>
<!-- holeDug&#45;&gt;firstPlanted -->
<g id="edge8" class="edge">
<title>holeDug&#45;&gt;firstPlanted</title>
<path fill="none" stroke="black" d="M212.5,-1461.16C212.5,-1440.91 212.5,-1406.67 212.5,-1382.56"/>
<polygon fill="black" stroke="black" points="216,-1382.64 212.5,-1372.64 209,-1382.64 216,-1382.64"/>
<polygon fill="none" stroke="black" points="215.5,-1423 215.5,-1440 420.5,-1440 420.5,-1423 215.5,-1423"/>
<text text-anchor="start" x="260.5" y="-1430" font-family="Courier New" font-weight="bold" font-size="10.00" fill="orange">DROP(,IDD_GOPASEED)</text>
<polygon fill="none" stroke="black" points="215.5,-1393 215.5,-1421 420.5,-1421 420.5,-1393 215.5,-1393"/>
<text text-anchor="start" x="218.5" y="-1410" font-family="Courier New" font-size="10.00" fill="blue"> &#160;&#160;&#160;&#160;&#160;&#160;&#160;&#160;&#160;&#160;&#160;PLAYWAVE(SOUND_SUCK);</text>
<text text-anchor="start" x="218.5" y="-1399" font-family="Courier New" font-size="10.00" fill="blue"> &#160;&#160;&#160;&#160;&#160;&#160;&#160;&#160;&#160;&#160;&#160;SHOW();</text>
<polygon fill="none" stroke="black" points="212.5,-1390 212.5,-1443 423.5,-1443 423.5,-1390 212.5,-1390"/>
</g>
<!-- needsWater -->
<g id="node9" class="node">
<title>needsWater</title>
<polyline fill="none" stroke="darkred" points="168,-1207.5 257,-1207.5"/>
<text text-anchor="start" x="171" y="-1215.3" font-family="Courier New" font-weight="bold" font-size="14.00">needsWater</text>
<path fill="none" stroke="darkred" d="M174,-1204.5C174,-1204.5 251,-1204.5 251,-1204.5 255.5,-1204.5 260,-1209 260,-1213.5 260,-1213.5 260,-1222.5 260,-1222.5 260,-1227 255.5,-1231.5 251,-1231.5 251,-1231.5 174,-1231.5 174,-1231.5 169.5,-1231.5 165,-1227 165,-1222.5 165,-1222.5 165,-1213.5 165,-1213.5 165,-1209 169.5,-1204.5 174,-1204.5"/>
</g>
<!-- firstPlanted&#45;&gt;needsWater -->
<g id="edge4" class="edge">
<title>firstPlanted&#45;&gt;needsWater</title>
<path fill="none" stroke="black" d="M212.5,-1336.03C212.5,-1313.58 212.5,-1273.71 212.5,-1246.82"/>
<polygon fill="black" stroke="black" points="216,-1246.83 212.5,-1236.83 209,-1246.83 216,-1246.83"/>
<polygon fill="none" stroke="black" points="215.5,-1298 215.5,-1315 432.5,-1315 432.5,-1298 215.5,-1298"/>
<text text-anchor="start" x="293.5" y="-1305" font-family="Courier New" font-weight="bold" font-size="10.00" fill="blue">ESTIME(,1)</text>
<polygon fill="none" stroke="black" points="215.5,-1257 215.5,-1296 432.5,-1296 432.5,-1257 215.5,-1257"/>
<text text-anchor="start" x="218.5" y="-1285" font-family="Courier New" font-size="10.00" fill="blue"> &#160;&#160;&#160;&#160;&#160;&#160;&#160;&#160;&#160;&#160;&#160;MOV(BFRAME,3);</text>
<text text-anchor="start" x="218.5" y="-1274" font-family="Courier New" font-size="10.00" fill="blue"> &#160;&#160;&#160;&#160;&#160;&#160;&#160;&#160;&#160;&#160;&#160;SHOW(0,IDS_GPDIRTANIM);</text>
<text text-anchor="start" x="218.5" y="-1263" font-family="Courier New" font-size="10.00" fill="blue"> &#160;&#160;&#160;&#160;&#160;&#160;&#160;&#160;&#160;&#160;&#160;&#160;O_ACCEPT(IDD_BUCKF);</text>
<polygon fill="none" stroke="black" points="212.5,-1254 212.5,-1318 435.5,-1318 435.5,-1254 212.5,-1254"/>
</g>
<!-- watered -->
<g id="node14" class="node">
<title>watered</title>
<polyline fill="none" stroke="darkred" points="180.5,-1060.5 244.5,-1060.5"/>
<text text-anchor="start" x="183.5" y="-1068.3" font-family="Courier New" font-weight="bold" font-size="14.00">watered</text>
<path fill="none" stroke="darkred" d="M186.5,-1057.5C186.5,-1057.5 238.5,-1057.5 238.5,-1057.5 243,-1057.5 247.5,-1062 247.5,-1066.5 247.5,-1066.5 247.5,-1075.5 247.5,-1075.5 247.5,-1080 243,-1084.5 238.5,-1084.5 238.5,-1084.5 186.5,-1084.5 186.5,-1084.5 182,-1084.5 177.5,-1080 177.5,-1075.5 177.5,-1075.5 177.5,-1066.5 177.5,-1066.5 177.5,-1062 182,-1057.5 186.5,-1057.5"/>
</g>
<!-- needsWater&#45;&gt;watered -->
<g id="edge10" class="edge">
<title>needsWater&#45;&gt;watered</title>
<path fill="none" stroke="black" d="M212.5,-1200.08C212.5,-1175.42 212.5,-1129.3 212.5,-1099.66"/>
<polygon fill="black" stroke="black" points="216,-1099.81 212.5,-1089.81 209,-1099.81 216,-1099.81"/>
<polygon fill="none" stroke="black" points="215.5,-1162 215.5,-1179 432.5,-1179 432.5,-1162 215.5,-1162"/>
<text text-anchor="start" x="272.5" y="-1169" font-family="Courier New" font-weight="bold" font-size="10.00" fill="orange">DRAG(0,IDD_BUCKF)</text>
<polygon fill="none" stroke="black" points="215.5,-1110 215.5,-1160 432.5,-1160 432.5,-1110 215.5,-1110"/>
<text text-anchor="start" x="218.5" y="-1149" font-family="Courier New" font-size="10.00" fill="blue"> &#160;&#160;&#160;&#160;&#160;&#160;&#160;&#160;&#160;&#160;&#160;HANDOFF(IDD_BUCKE);</text>
<text text-anchor="start" x="218.5" y="-1138" font-family="Courier New" font-size="10.00" fill="blue"> &#160;&#160;&#160;&#160;&#160;&#160;&#160;&#160;&#160;&#160;&#160;MOV(BFRAME,1);</text>
<text text-anchor="start" x="218.5" y="-1127" font-family="Courier New" font-size="10.00" fill="blue"> &#160;&#160;&#160;&#160;&#160;&#160;&#160;&#160;&#160;&#160;&#160;SHOW(0,IDS_GPDIRTANIM);</text>
<text text-anchor="start" x="218.5" y="-1116" font-family="Courier New" font-size="10.00" fill="blue"> &#160;&#160;&#160;&#160;&#160;&#160;&#160;&#160;&#160;&#160;&#160;PLAYWAVE(SOUND_SPLASH);</text>
<polygon fill="none" stroke="black" points="212.5,-1107 212.5,-1182 435.5,-1182 435.5,-1107 212.5,-1107"/>
</g>
<!-- freshSprout -->
<g id="node10" class="node">
<title>freshSprout</title>
<polyline fill="none" stroke="darkred" points="164,-913.5 261,-913.5"/>
<text text-anchor="start" x="167" y="-921.3" font-family="Courier New" font-weight="bold" font-size="14.00">freshSprout</text>
<path fill="none" stroke="darkred" d="M170,-910.5C170,-910.5 255,-910.5 255,-910.5 259.5,-910.5 264,-915 264,-919.5 264,-919.5 264,-928.5 264,-928.5 264,-933 259.5,-937.5 255,-937.5 255,-937.5 170,-937.5 170,-937.5 165.5,-937.5 161,-933 161,-928.5 161,-928.5 161,-919.5 161,-919.5 161,-915 165.5,-910.5 170,-910.5"/>
</g>
<!-- sproutedNeedsWater -->
<g id="node11" class="node">
<title>sproutedNeedsWater</title>
<polyline fill="none" stroke="darkred" points="16,-788.5 171,-788.5"/>
<text text-anchor="start" x="19" y="-796.3" font-family="Courier New" font-weight="bold" font-size="14.00">sproutedNeedsWater</text>
<path fill="none" stroke="darkred" d="M22,-785.5C22,-785.5 165,-785.5 165,-785.5 169.5,-785.5 174,-790 174,-794.5 174,-794.5 174,-803.5 174,-803.5 174,-808 169.5,-812.5 165,-812.5 165,-812.5 22,-812.5 22,-812.5 17.5,-812.5 13,-808 13,-803.5 13,-803.5 13,-794.5 13,-794.5 13,-790 17.5,-785.5 22,-785.5"/>
</g>
<!-- freshSprout&#45;&gt;sproutedNeedsWater -->
<g id="edge5" class="edge">
<title>freshSprout&#45;&gt;sproutedNeedsWater</title>
<path fill="none" stroke="black" d="M153.12,-919.77C131.16,-915.35 108.28,-906.24 94.5,-888 81.63,-870.96 82.51,-846.29 85.97,-827.41"/>
<polygon fill="black" stroke="black" points="89.58,-828.3 88.29,-817.79 82.74,-826.81 89.58,-828.3"/>
<polygon fill="none" stroke="black" points="97.5,-868 97.5,-885 314.5,-885 314.5,-868 97.5,-868"/>
<text text-anchor="start" x="175.5" y="-875" font-family="Courier New" font-weight="bold" font-size="10.00" fill="blue">ESTIME(,5)</text>
<polygon fill="none" stroke="black" points="97.5,-838 97.5,-866 314.5,-866 314.5,-838 97.5,-838"/>
<text text-anchor="start" x="100.5" y="-855" font-family="Courier New" font-size="10.00" fill="blue"> &#160;&#160;&#160;&#160;&#160;&#160;&#160;&#160;&#160;&#160;&#160;MOV(BFRAME,2);</text>
<text text-anchor="start" x="100.5" y="-844" font-family="Courier New" font-size="10.00" fill="blue"> &#160;&#160;&#160;&#160;&#160;&#160;&#160;&#160;&#160;&#160;&#160;SHOW(0,IDS_GPDIRTANIM);</text>
<polygon fill="none" stroke="black" points="94.5,-835 94.5,-888 317.5,-888 317.5,-835 94.5,-835"/>
</g>
<!-- sproutWatered -->
<g id="node15" class="node">
<title>sproutWatered</title>
<polyline fill="none" stroke="darkred" points="155.5,-630.5 269.5,-630.5"/>
<text text-anchor="start" x="158.5" y="-638.3" font-family="Courier New" font-weight="bold" font-size="14.00">sproutWatered</text>
<path fill="none" stroke="darkred" d="M161.5,-627.5C161.5,-627.5 263.5,-627.5 263.5,-627.5 268,-627.5 272.5,-632 272.5,-636.5 272.5,-636.5 272.5,-645.5 272.5,-645.5 272.5,-650 268,-654.5 263.5,-654.5 263.5,-654.5 161.5,-654.5 161.5,-654.5 157,-654.5 152.5,-650 152.5,-645.5 152.5,-645.5 152.5,-636.5 152.5,-636.5 152.5,-632 157,-627.5 161.5,-627.5"/>
</g>
<!-- sproutedNeedsWater&#45;&gt;sproutWatered -->
<g id="edge16" class="edge">
<title>sproutedNeedsWater&#45;&gt;sproutWatered</title>
<path fill="none" stroke="black" d="M87.94,-781.17C80.7,-755.82 71.5,-707.54 94.5,-677 104.36,-663.91 118.9,-655.52 134.44,-650.19"/>
<polygon fill="black" stroke="black" points="135.17,-653.32 143.75,-647.11 133.17,-646.62 135.17,-653.32"/>
<polygon fill="none" stroke="black" points="97.5,-743 97.5,-760 314.5,-760 314.5,-743 97.5,-743"/>
<text text-anchor="start" x="154.5" y="-750" font-family="Courier New" font-weight="bold" font-size="10.00" fill="orange">DRAG(0,IDD_BUCKF)</text>
<polygon fill="none" stroke="black" points="97.5,-680 97.5,-741 314.5,-741 314.5,-680 97.5,-680"/>
<text text-anchor="start" x="100.5" y="-730" font-family="Courier New" font-size="10.00" fill="blue"> &#160;&#160;&#160;&#160;&#160;&#160;&#160;&#160;&#160;&#160;&#160;HANDOFF(IDD_BUCKE);</text>
<text text-anchor="start" x="100.5" y="-719" font-family="Courier New" font-size="10.00" fill="blue"> &#160;&#160;&#160;&#160;&#160;&#160;&#160;&#160;&#160;&#160;&#160;MOV(BFRAME,0);</text>
<text text-anchor="start" x="100.5" y="-708" font-family="Courier New" font-size="10.00" fill="blue"> &#160;&#160;&#160;&#160;&#160;&#160;&#160;&#160;&#160;&#160;&#160;SHOW(0,IDS_GPDIRTANIM);</text>
<text text-anchor="start" x="100.5" y="-697" font-family="Courier New" font-size="10.00" fill="blue"> &#160;&#160;&#160;&#160;&#160;&#160;&#160;&#160;&#160;&#160;&#160;PLAYWAVE(SOUND_SPLASH);</text>
<text text-anchor="start" x="100.5" y="-686" font-family="Courier New" font-size="10.00" fill="blue"> &#160;&#160;&#160;&#160;&#160;&#160;&#160;&#160;&#160;&#160;&#160;BPARM = BPARM + 1;</text>
<polygon fill="none" stroke="black" points="94.5,-677 94.5,-763 317.5,-763 317.5,-677 94.5,-677"/>
</g>
<!-- greenBerry&#45;&gt;immaturePlant -->
<g id="edge7" class="edge">
<title>greenBerry&#45;&gt;immaturePlant</title>
<path fill="none" stroke="black" d="M304.59,-360.23C311.64,-367.64 318.8,-376.95 322.5,-387 335.69,-422.87 344.62,-441.83 322.5,-473 315.35,-483.08 305.34,-490.55 294.25,-496.07"/>
<polygon fill="black" stroke="black" points="293.03,-493.22 285.27,-500.43 295.84,-499.63 293.03,-493.22"/>
<polygon fill="none" stroke="black" points="338.5,-436.5 338.5,-453.5 531.5,-453.5 531.5,-436.5 338.5,-436.5"/>
<text text-anchor="start" x="410.5" y="-443.5" font-family="Courier New" font-weight="bold" font-size="10.00" fill="orange">GRAB(0,)</text>
<polygon fill="none" stroke="black" points="338.5,-406.5 338.5,-434.5 531.5,-434.5 531.5,-406.5 338.5,-406.5"/>
<text text-anchor="start" x="341.5" y="-423.5" font-family="Courier New" font-size="10.00" fill="blue"> &#160;&#160;&#160;&#160;&#160;&#160;&#160;&#160;&#160;&#160;&#160;MOV(BFRAME,0);</text>
<text text-anchor="start" x="341.5" y="-412.5" font-family="Courier New" font-size="10.00" fill="blue"> &#160;&#160;&#160;&#160;&#160;&#160;&#160;&#160;&#160;&#160;&#160;SHOW(0,IDS_GPANIM);</text>
<polygon fill="none" stroke="black" points="335.5,-403.5 335.5,-456.5 534.5,-456.5 534.5,-403.5 335.5,-403.5"/>
</g>
<!-- redBerry -->
<g id="node13" class="node">
<title>redBerry</title>
<polyline fill="none" stroke="darkred" points="249,-165.5 322,-165.5"/>
<text text-anchor="start" x="252" y="-173.3" font-family="Courier New" font-weight="bold" font-size="14.00">redBerry</text>
<path fill="none" stroke="darkred" d="M255,-162.5C255,-162.5 316,-162.5 316,-162.5 320.5,-162.5 325,-167 325,-171.5 325,-171.5 325,-180.5 325,-180.5 325,-185 320.5,-189.5 316,-189.5 316,-189.5 255,-189.5 255,-189.5 250.5,-189.5 246,-185 246,-180.5 246,-180.5 246,-171.5 246,-171.5 246,-167 250.5,-162.5 255,-162.5"/>
</g>
<!-- greenBerry&#45;&gt;redBerry -->
<g id="edge6" class="edge">
<title>greenBerry&#45;&gt;redBerry</title>
<path fill="none" stroke="black" d="M285.5,-324.52C285.5,-296.05 285.5,-238.47 285.5,-204.27"/>
<polygon fill="black" stroke="black" points="289,-204.65 285.5,-194.65 282,-204.65 289,-204.65"/>
<polygon fill="none" stroke="black" points="288.5,-278 288.5,-295 523.5,-295 523.5,-278 288.5,-278"/>
<text text-anchor="start" x="351.5" y="-285" font-family="Courier New" font-weight="bold" font-size="10.00" fill="orange">DRAG(0,IDD_SCOOPF)</text>
<polygon fill="none" stroke="black" points="288.5,-215 288.5,-276 523.5,-276 523.5,-215 288.5,-215"/>
<text text-anchor="start" x="291.5" y="-265" font-family="Courier New" font-size="10.00" fill="blue"> &#160;&#160;&#160;&#160;&#160;&#160;&#160;&#160;&#160;&#160;&#160;HANDOFF(IDD_SCOOPE);</text>
<text text-anchor="start" x="291.5" y="-254" font-family="Courier New" font-size="10.00" fill="blue"> &#160;&#160;&#160;&#160;&#160;&#160;&#160;&#160;&#160;&#160;&#160;PLAYWAVE(SOUND_SPIT);</text>
<text text-anchor="start" x="291.5" y="-243" font-family="Courier New" font-size="10.00" fill="blue"> &#160;&#160;&#160;&#160;&#160;&#160;&#160;&#160;&#160;&#160;&#160;MOV(BFRAME,2);</text>
<text text-anchor="start" x="291.5" y="-232" font-family="Courier New" font-size="10.00" fill="blue"> &#160;&#160;&#160;&#160;&#160;&#160;&#160;&#160;&#160;&#160;&#160;ASSIGN(WOBJECT,IDD_GOPAR);</text>
<text text-anchor="start" x="291.5" y="-221" font-family="Courier New" font-size="10.00" fill="blue"> &#160;&#160;&#160;&#160;&#160;&#160;&#160;&#160;&#160;&#160;&#160;SHOW(0,IDS_GPANIM);</text>
<polygon fill="none" stroke="black" points="285.5,-212 285.5,-298 526.5,-298 526.5,-212 285.5,-212"/>
</g>
<!-- redBerry&#45;&gt;blueBerry -->
<g id="edge11" class="edge">
<title>redBerry&#45;&gt;blueBerry</title>
<path fill="none" stroke="black" d="M261.32,-158.01C221.37,-129.93 141.52,-73.83 96.45,-42.15"/>
<polygon fill="black" stroke="black" points="98.84,-38.86 88.65,-35.97 94.82,-44.58 98.84,-38.86"/>
<polygon fill="none" stroke="black" points="235.5,-120 235.5,-137 470.5,-137 470.5,-120 235.5,-120"/>
<text text-anchor="start" x="298.5" y="-127" font-family="Courier New" font-weight="bold" font-size="10.00" fill="orange">DRAG(0,IDD_SCOOPF)</text>
<polygon fill="none" stroke="black" points="235.5,-57 235.5,-118 470.5,-118 470.5,-57 235.5,-57"/>
<text text-anchor="start" x="238.5" y="-107" font-family="Courier New" font-size="10.00" fill="blue"> &#160;&#160;&#160;&#160;&#160;&#160;&#160;&#160;&#160;&#160;&#160;HANDOFF(IDD_SCOOPE);</text>
<text text-anchor="start" x="238.5" y="-96" font-family="Courier New" font-size="10.00" fill="blue"> &#160;&#160;&#160;&#160;&#160;&#160;&#160;&#160;&#160;&#160;&#160;PLAYWAVE(SOUND_SPIT);</text>
<text text-anchor="start" x="238.5" y="-85" font-family="Courier New" font-size="10.00" fill="blue"> &#160;&#160;&#160;&#160;&#160;&#160;&#160;&#160;&#160;&#160;&#160;MOV(BFRAME,3);</text>
<text text-anchor="start" x="238.5" y="-74" font-family="Courier New" font-size="10.00" fill="blue"> &#160;&#160;&#160;&#160;&#160;&#160;&#160;&#160;&#160;&#160;&#160;ASSIGN(WOBJECT,IDD_GOPAB);</text>
<text text-anchor="start" x="238.5" y="-63" font-family="Courier New" font-size="10.00" fill="blue"> &#160;&#160;&#160;&#160;&#160;&#160;&#160;&#160;&#160;&#160;&#160;SHOW(0,IDS_GPANIM);</text>
<polygon fill="none" stroke="black" points="232.5,-54 232.5,-140 473.5,-140 473.5,-54 232.5,-54"/>
</g>
<!-- redBerry&#45;&gt;immaturePlant -->
<g id="edge12" class="edge">
<title>redBerry&#45;&gt;immaturePlant</title>
<path fill="none" stroke="black" d="M332.98,-176.89C396.69,-177.84 504.83,-183.73 530.5,-212 578.43,-264.78 568.12,-439.67 538.5,-473 522.56,-490.93 386.52,-501.93 295.29,-507.36"/>
<polygon fill="black" stroke="black" points="295.17,-503.92 285.39,-508 295.58,-510.91 295.17,-503.92"/>
<polygon fill="none" stroke="black" points="566.5,-349 566.5,-366 759.5,-366 759.5,-349 566.5,-349"/>
<text text-anchor="start" x="638.5" y="-356" font-family="Courier New" font-weight="bold" font-size="10.00" fill="orange">GRAB(0,)</text>
<polygon fill="none" stroke="black" points="566.5,-319 566.5,-347 759.5,-347 759.5,-319 566.5,-319"/>
<text text-anchor="start" x="569.5" y="-336" font-family="Courier New" font-size="10.00" fill="blue"> &#160;&#160;&#160;&#160;&#160;&#160;&#160;&#160;&#160;&#160;&#160;MOV(BFRAME,0);</text>
<text text-anchor="start" x="569.5" y="-325" font-family="Courier New" font-size="10.00" fill="blue"> &#160;&#160;&#160;&#160;&#160;&#160;&#160;&#160;&#160;&#160;&#160;SHOW(0,IDS_GPANIM);</text>
<polygon fill="none" stroke="black" points="563.5,-316 563.5,-369 762.5,-369 762.5,-316 563.5,-316"/>
</g>
<!-- watered&#45;&gt;freshSprout -->
<g id="edge17" class="edge">
<title>watered&#45;&gt;freshSprout</title>
<path fill="none" stroke="black" d="M212.5,-1053.08C212.5,-1028.42 212.5,-982.3 212.5,-952.66"/>
<polygon fill="black" stroke="black" points="216,-952.81 212.5,-942.81 209,-952.81 216,-952.81"/>
<polygon fill="none" stroke="black" points="215.5,-1015 215.5,-1032 432.5,-1032 432.5,-1015 215.5,-1015"/>
<text text-anchor="start" x="293.5" y="-1022" font-family="Courier New" font-weight="bold" font-size="10.00" fill="blue">ESTIME(,5)</text>
<polygon fill="none" stroke="black" points="215.5,-963 215.5,-1013 432.5,-1013 432.5,-963 215.5,-963"/>
<text text-anchor="start" x="218.5" y="-1002" font-family="Courier New" font-size="10.00" fill="blue"> &#160;&#160;&#160;&#160;&#160;&#160;&#160;&#160;&#160;&#160;&#160;MOV(BFRAME,0);</text>
<text text-anchor="start" x="218.5" y="-991" font-family="Courier New" font-size="10.00" fill="blue"> &#160;&#160;&#160;&#160;&#160;&#160;&#160;&#160;&#160;&#160;&#160;&#160;PLAYWAVE(SOUND_HURT);</text>
<text text-anchor="start" x="218.5" y="-980" font-family="Courier New" font-size="10.00" fill="blue"> &#160;&#160;&#160;&#160;&#160;&#160;&#160;&#160;&#160;&#160;&#160;SHOW(0,IDS_GPDIRTANIM);</text>
<text text-anchor="start" x="218.5" y="-969" font-family="Courier New" font-size="10.00" fill="blue"> &#160;&#160;&#160;&#160;&#160;&#160;&#160;&#160;&#160;&#160;&#160;BPARM = 0;</text>
<polygon fill="none" stroke="black" points="212.5,-960 212.5,-1035 435.5,-1035 435.5,-960 212.5,-960"/>
</g>
<!-- sproutWatered&#45;&gt;immaturePlant -->
<g id="edge14" class="edge">
<title>sproutWatered&#45;&gt;immaturePlant</title>
<path fill="none" stroke="black" d="M212.5,-623.2C212.5,-603.15 212.5,-569.23 212.5,-544.4"/>
<polygon fill="black" stroke="black" points="216,-544.71 212.5,-534.71 209,-544.71 216,-544.71"/>
<polygon fill="none" stroke="black" points="215.5,-585 215.5,-602 408.5,-602 408.5,-585 215.5,-585"/>
<text text-anchor="start" x="266.5" y="-592" font-family="Courier New" font-weight="bold" font-size="10.00" fill="blue">EQUALi(BPARM,6)</text>
<polygon fill="none" stroke="black" points="215.5,-555 215.5,-583 408.5,-583 408.5,-555 215.5,-555"/>
<text text-anchor="start" x="218.5" y="-572" font-family="Courier New" font-size="10.00" fill="blue"> &#160;&#160;&#160;&#160;&#160;&#160;&#160;&#160;&#160;&#160;&#160;MOV(BFRAME,0);</text>
<text text-anchor="start" x="218.5" y="-561" font-family="Courier New" font-size="10.00" fill="blue"> &#160;&#160;&#160;&#160;&#160;&#160;&#160;&#160;&#160;&#160;&#160;SHOW(0,IDS_GPANIM);</text>
<polygon fill="none" stroke="black" points="212.5,-552 212.5,-605 411.5,-605 411.5,-552 212.5,-552"/>
</g>
<!-- sproutWatered&#45;&gt;freshSprout -->
<g id="edge15" class="edge">
<title>sproutWatered&#45;&gt;freshSprout</title>
<path fill="none" stroke="black" d="M280.4,-651.2C294.89,-656.44 308.51,-664.53 317.5,-677 372.33,-753.08 372.33,-811.92 317.5,-888 308.87,-899.98 295.95,-907.92 282.11,-913.17"/>
<polygon fill="black" stroke="black" points="281.31,-910.08 272.91,-916.53 283.51,-916.72 281.31,-910.08"/>
<text text-anchor="start" x="362.5" y="-797.5" font-family="Courier New" font-weight="bold" font-size="10.00" fill="blue">Z_EPSILON(,)</text>
</g>
<!-- status -->
<g id="node16" class="node">
<title>status</title>
<polygon fill="none" stroke="black" points="258,-1824.5 258,-1896.5 875,-1896.5 875,-1824.5 258,-1824.5"/>
<polygon fill="none" stroke="black" points="269,-1872.5 269,-1889.5 864,-1889.5 864,-1872.5 269,-1872.5"/>
<text text-anchor="start" x="530" y="-1879.5" font-family="Courier New" font-weight="bold" font-size="10.00">S00_CITYGOPA</text>
<polygon fill="none" stroke="black" points="269,-1831.5 269,-1870.5 864,-1870.5 864,-1831.5 269,-1831.5"/>
<text text-anchor="start" x="272" y="-1859.5" font-family="Courier New" font-size="10.00" fill="green">VIEW::IDV_CHS1 @pos(left:2957, top:186)</text>
<text text-anchor="start" x="272" y="-1848.5" font-family="Courier New" font-size="10.00" fill="green">S00_CITYGOPA::M_NEWGOPA(&#39;ISA_TOOL_DIGGER&#39;,&#39;&#39;,&#39;&#39;,&#39;&#39;)</text>
<text text-anchor="start" x="272" y="-1837.5" font-family="Courier New" font-size="10.00" fill="green">{state:&#39;immaturePlant&#39;: bParm:6 wObject:IDD_GOPASEED wSprite:IDS_GPANIM bFrame:0 wAccept:IDD_BUCKF</text>
<polygon fill="none" stroke="black" points="266,-1828.5 266,-1892.5 867,-1892.5 867,-1828.5 266,-1828.5"/>
</g>
</g>
</svg>
