<?xml version="1.0" encoding="UTF-8" standalone="no"?>
<!DOCTYPE svg PUBLIC "-//W3C//DTD SVG 1.1//EN"
 "http://www.w3.org/Graphics/SVG/1.1/DTD/svg11.dtd">
<!-- Generated by graphviz version 8.0.1 (20230327.1645)
 -->
<!-- Title: Automaton Pages: 1 -->
<svg width="1020pt" height="810pt"
 viewBox="0.00 0.00 1020.29 810.00" xmlns="http://www.w3.org/2000/svg" xmlns:xlink="http://www.w3.org/1999/xlink">
<g id="graph0" class="graph" transform="scale(1 1) rotate(0) translate(4 806)">
<title>Automaton</title>
<polygon fill="white" stroke="none" points="-4,4 -4,-806 1016.29,-806 1016.29,4 -4,4"/>
<!-- filename -->
<g id="node1" class="node">
<title>filename</title>
<polygon fill="none" stroke="black" points="305.29,-740.5 305.29,-790.5 502.29,-790.5 502.29,-740.5 305.29,-740.5"/>
<polygon fill="none" stroke="black" points="316.29,-766.5 316.29,-783.5 491.29,-783.5 491.29,-766.5 316.29,-766.5"/>
<text text-anchor="start" x="319.29" y="-773.5" font-family="Courier New" font-weight="bold" font-size="10.00">S00_SQUARE00+0*8+3::M_SQUARE</text>
<polygon fill="none" stroke="black" points="316.29,-747.5 316.29,-764.5 491.29,-764.5 491.29,-747.5 316.29,-747.5"/>
<text text-anchor="start" x="358.29" y="-753.5" font-family="Courier New" font-size="10.00" fill="brown">start state = 0</text>
<polygon fill="none" stroke="black" points="313.29,-744.5 313.29,-786.5 494.29,-786.5 494.29,-744.5 313.29,-744.5"/>
</g>
<!-- 0 -->
<g id="node2" class="node">
<title>0</title>
<polyline fill="none" stroke="darkred" points="540.29,-755 555.29,-755"/>
<text text-anchor="start" x="543.29" y="-762.8" font-family="Courier New" font-weight="bold" font-size="14.00">0</text>
<path fill="none" stroke="darkred" d="M544.29,-752C544.29,-752 551.29,-752 551.29,-752 554.79,-752 558.29,-755.5 558.29,-759 558.29,-759 558.29,-772 558.29,-772 558.29,-775.5 554.79,-779 551.29,-779 551.29,-779 544.29,-779 544.29,-779 540.79,-779 537.29,-775.5 537.29,-772 537.29,-772 537.29,-759 537.29,-759 537.29,-755.5 540.79,-752 544.29,-752"/>
</g>
<!-- 1 -->
<g id="node3" class="node">
<title>1</title>
<polyline fill="none" stroke="darkred" points="540.29,-645.5 555.29,-645.5"/>
<text text-anchor="start" x="543.29" y="-653.3" font-family="Courier New" font-weight="bold" font-size="14.00">1</text>
<path fill="none" stroke="darkred" d="M544.29,-642.5C544.29,-642.5 551.29,-642.5 551.29,-642.5 554.79,-642.5 558.29,-646 558.29,-649.5 558.29,-649.5 558.29,-662.5 558.29,-662.5 558.29,-666 554.79,-669.5 551.29,-669.5 551.29,-669.5 544.29,-669.5 544.29,-669.5 540.79,-669.5 537.29,-666 537.29,-662.5 537.29,-662.5 537.29,-649.5 537.29,-649.5 537.29,-646 540.79,-642.5 544.29,-642.5"/>
</g>
<!-- 0&#45;&gt;1 -->
<g id="edge1" class="edge">
<title>0&#45;&gt;1</title>
<path fill="none" stroke="black" d="M547.79,-747.7C547.79,-730.82 547.79,-704.51 547.79,-684.57"/>
<polygon fill="black" stroke="black" points="551.29,-684.68 547.79,-674.68 544.29,-684.68 551.29,-684.68"/>
<text text-anchor="start" x="551.79" y="-700" font-family="Courier New" font-weight="bold" font-size="10.00" fill="blue">C_ACCEPT(0,IDC_TOKEN)</text>
</g>
<!-- 5 -->
<g id="node4" class="node">
<title>5</title>
<polyline fill="none" stroke="darkred" points="392.29,-509.5 407.29,-509.5"/>
<text text-anchor="start" x="395.29" y="-517.3" font-family="Courier New" font-weight="bold" font-size="14.00">5</text>
<path fill="none" stroke="darkred" d="M396.29,-506.5C396.29,-506.5 403.29,-506.5 403.29,-506.5 406.79,-506.5 410.29,-510 410.29,-513.5 410.29,-513.5 410.29,-526.5 410.29,-526.5 410.29,-530 406.79,-533.5 403.29,-533.5 403.29,-533.5 396.29,-533.5 396.29,-533.5 392.79,-533.5 389.29,-530 389.29,-526.5 389.29,-526.5 389.29,-513.5 389.29,-513.5 389.29,-510 392.79,-506.5 396.29,-506.5"/>
</g>
<!-- 1&#45;&gt;5 -->
<g id="edge2" class="edge">
<title>1&#45;&gt;5</title>
<path fill="none" stroke="black" d="M520.96,-653.98C494.6,-651.55 454.93,-643.83 430.79,-620 411.69,-601.14 404.32,-570.69 401.5,-548.54"/>
<polygon fill="black" stroke="black" points="404.9,-548.4 400.4,-538.81 397.94,-549.12 404.9,-548.4"/>
<polygon fill="none" stroke="black" points="433.79,-600 433.79,-617 530.79,-617 530.79,-600 433.79,-600"/>
<text text-anchor="start" x="445.79" y="-607" font-family="Courier New" font-weight="bold" font-size="10.00" fill="blue">Z_EPSILON(,)</text>
<polygon fill="none" stroke="black" points="433.79,-559 433.79,-598 530.79,-598 530.79,-559 433.79,-559"/>
<text text-anchor="start" x="436.79" y="-587" font-family="Courier New" font-size="10.00" fill="blue">CLEAR(WOBJECT);</text>
<text text-anchor="start" x="436.79" y="-576" font-family="Courier New" font-size="10.00" fill="blue">CLEAR(WPARM);</text>
<text text-anchor="start" x="436.79" y="-565" font-family="Courier New" font-size="10.00" fill="blue">SHOW();</text>
<polygon fill="none" stroke="black" points="430.79,-556 430.79,-620 533.79,-620 533.79,-556 430.79,-556"/>
</g>
<!-- 10 -->
<g id="node5" class="node">
<title>10</title>
<polyline fill="none" stroke="darkred" points="345.29,-395.5 368.29,-395.5"/>
<text text-anchor="start" x="348.29" y="-403.3" font-family="Courier New" font-weight="bold" font-size="14.00">10</text>
<path fill="none" stroke="darkred" d="M351.29,-392.5C351.29,-392.5 362.29,-392.5 362.29,-392.5 366.79,-392.5 371.29,-397 371.29,-401.5 371.29,-401.5 371.29,-410.5 371.29,-410.5 371.29,-415 366.79,-419.5 362.29,-419.5 362.29,-419.5 351.29,-419.5 351.29,-419.5 346.79,-419.5 342.29,-415 342.29,-410.5 342.29,-410.5 342.29,-401.5 342.29,-401.5 342.29,-397 346.79,-392.5 351.29,-392.5"/>
</g>
<!-- 5&#45;&gt;10 -->
<g id="edge11" class="edge">
<title>5&#45;&gt;10</title>
<path fill="none" stroke="black" d="M372.97,-515.81C353.23,-511.9 327.67,-503.23 314.79,-484 304.4,-468.49 306.87,-458.9 314.79,-442 316.64,-438.05 319.18,-434.39 322.1,-431.05"/>
<polygon fill="black" stroke="black" points="324.24,-433.87 328.97,-424.39 319.36,-428.85 324.24,-433.87"/>
<text text-anchor="start" x="318.79" y="-461.5" font-family="Courier New" font-weight="bold" font-size="10.00" fill="orange">DROP(0,0)</text>
</g>
<!-- 5&#45;&gt;10 -->
<g id="edge12" class="edge">
<title>5&#45;&gt;10</title>
<path fill="none" stroke="black" d="M396.29,-502.04C392.7,-486.14 386.42,-461.9 377.79,-442 376.55,-439.14 375.11,-436.22 373.58,-433.36"/>
<polygon fill="black" stroke="black" points="376.21,-431.9 368.19,-424.97 370.14,-435.38 376.21,-431.9"/>
<polygon fill="none" stroke="black" points="393.79,-464 393.79,-481 520.79,-481 520.79,-464 393.79,-464"/>
<text text-anchor="start" x="411.79" y="-471" font-family="Courier New" font-weight="bold" font-size="10.00" fill="orange">WAIT(0,SIG_SET)</text>
<polygon fill="none" stroke="black" points="393.79,-445 393.79,-462 520.79,-462 520.79,-445 393.79,-445"/>
<text text-anchor="start" x="396.79" y="-451" font-family="Courier New" font-size="10.00" fill="blue">MOV(WOBJECT,WTEMP1);</text>
<polygon fill="none" stroke="black" points="390.79,-442 390.79,-484 523.79,-484 523.79,-442 390.79,-442"/>
</g>
<!-- 40 -->
<g id="node6" class="node">
<title>40</title>
<polyline fill="none" stroke="darkred" points="222.29,-259.5 245.29,-259.5"/>
<text text-anchor="start" x="225.29" y="-267.3" font-family="Courier New" font-weight="bold" font-size="14.00">40</text>
<path fill="none" stroke="darkred" d="M228.29,-256.5C228.29,-256.5 239.29,-256.5 239.29,-256.5 243.79,-256.5 248.29,-261 248.29,-265.5 248.29,-265.5 248.29,-274.5 248.29,-274.5 248.29,-279 243.79,-283.5 239.29,-283.5 239.29,-283.5 228.29,-283.5 228.29,-283.5 223.79,-283.5 219.29,-279 219.29,-274.5 219.29,-274.5 219.29,-265.5 219.29,-265.5 219.29,-261 223.79,-256.5 228.29,-256.5"/>
</g>
<!-- 10&#45;&gt;40 -->
<g id="edge3" class="edge">
<title>10&#45;&gt;40</title>
<path fill="none" stroke="black" d="M329.91,-400.03C311.11,-395.26 286.63,-386.3 270.79,-370 251.85,-350.5 242.44,-320.41 237.87,-298.52"/>
<polygon fill="black" stroke="black" points="241.17,-298.11 235.9,-288.92 234.29,-299.39 241.17,-298.11"/>
<polygon fill="none" stroke="black" points="273.79,-350 273.79,-367 412.79,-367 412.79,-350 273.79,-350"/>
<text text-anchor="start" x="300.79" y="-357" font-family="Courier New" font-weight="bold" font-size="10.00" fill="blue">SHOW(WOBJECT,)</text>
<polygon fill="none" stroke="black" points="273.79,-309 273.79,-348 412.79,-348 412.79,-309 273.79,-309"/>
<text text-anchor="start" x="276.79" y="-337" font-family="Courier New" font-size="10.00" fill="blue">ANIMATE(V_LOOP);</text>
<text text-anchor="start" x="276.79" y="-326" font-family="Courier New" font-size="10.00" fill="blue">PLAYWAVE(SOUND_CLICK);</text>
<text text-anchor="start" x="276.79" y="-315" font-family="Courier New" font-size="10.00" fill="blue">MOV(WPARM,WOBJECT);</text>
<polygon fill="none" stroke="black" points="270.79,-306 270.79,-370 415.79,-370 415.79,-306 270.79,-306"/>
</g>
<!-- 110 -->
<g id="node7" class="node">
<title>110</title>
<polyline fill="none" stroke="darkred" stroke-width="3" points="315.79,-10.5 347.79,-10.5"/>
<text text-anchor="start" x="319.29" y="-18.8" font-family="Courier New" font-weight="bold" font-size="14.00">110</text>
<path fill="none" stroke="darkred" stroke-width="3" d="M321.46,-5.5C321.46,-5.5 342.12,-5.5 342.12,-5.5 347.46,-5.5 352.79,-10.83 352.79,-16.17 352.79,-16.17 352.79,-26.83 352.79,-26.83 352.79,-32.17 347.46,-37.5 342.12,-37.5 342.12,-37.5 321.46,-37.5 321.46,-37.5 316.12,-37.5 310.79,-32.17 310.79,-26.83 310.79,-26.83 310.79,-16.17 310.79,-16.17 310.79,-10.83 316.12,-5.5 321.46,-5.5"/>
</g>
<!-- 40&#45;&gt;110 -->
<g id="edge8" class="edge">
<title>40&#45;&gt;110</title>
<path fill="none" stroke="black" d="M207.13,-265.11C159.13,-256.5 59.21,-230.93 16.79,-163 -7.36,-124.32 -5.33,-92.34 27.79,-61 64.78,-26.01 216.43,-21.82 290.58,-21.93"/>
<polygon fill="black" stroke="black" points="290.34,-25.44 300.36,-21.98 290.38,-18.44 290.34,-25.44"/>
<polygon fill="none" stroke="black" points="19.79,-143 19.79,-160 194.79,-160 194.79,-143 19.79,-143"/>
<text text-anchor="start" x="70.79" y="-150" font-family="Courier New" font-weight="bold" font-size="10.00" fill="blue">Z_EPSILON(,)</text>
<polygon fill="none" stroke="black" points="19.79,-124 19.79,-141 194.79,-141 194.79,-124 19.79,-124"/>
<text text-anchor="start" x="22.79" y="-130" font-family="Courier New" font-size="10.00" fill="blue">ASSIGN(WPARM, IDD_REVERSIB);</text>
<polygon fill="none" stroke="black" points="16.79,-121 16.79,-163 197.79,-163 197.79,-121 16.79,-121"/>
</g>
<!-- 47 -->
<g id="node8" class="node">
<title>47</title>
<polyline fill="none" stroke="darkred" points="222.29,-131.5 245.29,-131.5"/>
<text text-anchor="start" x="225.29" y="-139.3" font-family="Courier New" font-weight="bold" font-size="14.00">47</text>
<path fill="none" stroke="darkred" d="M228.29,-128.5C228.29,-128.5 239.29,-128.5 239.29,-128.5 243.79,-128.5 248.29,-133 248.29,-137.5 248.29,-137.5 248.29,-146.5 248.29,-146.5 248.29,-151 243.79,-155.5 239.29,-155.5 239.29,-155.5 228.29,-155.5 228.29,-155.5 223.79,-155.5 219.29,-151 219.29,-146.5 219.29,-146.5 219.29,-137.5 219.29,-137.5 219.29,-133 223.79,-128.5 228.29,-128.5"/>
</g>
<!-- 40&#45;&gt;47 -->
<g id="edge7" class="edge">
<title>40&#45;&gt;47</title>
<path fill="none" stroke="black" d="M233.79,-252.01C233.79,-231.13 233.79,-195.44 233.79,-170.6"/>
<polygon fill="black" stroke="black" points="237.29,-170.72 233.79,-160.72 230.29,-170.72 237.29,-170.72"/>
<text text-anchor="start" x="237.79" y="-206" font-family="Courier New" font-weight="bold" font-size="10.00" fill="blue">NEQUALi(WPARM,IDD_REVERSIA)</text>
</g>
<!-- 110&#45;&gt;1 -->
<g id="edge5" class="edge">
<title>110&#45;&gt;1</title>
<path fill="none" stroke="black" d="M362.28,-25.22C421.82,-32.37 547.79,-57.38 547.79,-141 547.79,-521 547.79,-521 547.79,-521 547.79,-557.68 547.79,-600.01 547.79,-627.11"/>
<polygon fill="black" stroke="black" points="544.29,-627.08 547.79,-637.08 551.29,-627.08 544.29,-627.08"/>
<text text-anchor="start" x="551.79" y="-336.5" font-family="Courier New" font-weight="bold" font-size="10.00" fill="orange">GRAB(WPARM,)</text>
</g>
<!-- 110&#45;&gt;1 -->
<g id="edge6" class="edge">
<title>110&#45;&gt;1</title>
<path fill="none" stroke="black" d="M362.01,-24.72C401.75,-28.46 473.18,-37.98 529.79,-61 589.86,-85.42 651.79,-76.16 651.79,-141 651.79,-521 651.79,-521 651.79,-521 651.79,-567.5 612.22,-607.62 581.9,-631.54"/>
<polygon fill="black" stroke="black" points="580.07,-629.29 574.23,-638.14 584.31,-634.86 580.07,-629.29"/>
<text text-anchor="start" x="655.79" y="-336.5" font-family="Courier New" font-weight="bold" font-size="10.00" fill="orange">WAIT(0,SIG_CLEAR)</text>
</g>
<!-- 110&#45;&gt;10 -->
<g id="edge4" class="edge">
<title>110&#45;&gt;10</title>
<path fill="none" stroke="black" d="M362.09,-27.84C381.04,-32.92 404.01,-42.64 415.79,-61 434.33,-89.9 432.78,-340.17 415.79,-370 410.68,-378.97 402.27,-385.88 393.38,-391.09"/>
<polygon fill="black" stroke="black" points="391.96,-388.4 384.68,-396.1 395.17,-394.62 391.96,-388.4"/>
<polygon fill="none" stroke="black" points="431.79,-214 431.79,-231 528.79,-231 528.79,-214 431.79,-214"/>
<text text-anchor="start" x="458.79" y="-221" font-family="Courier New" font-weight="bold" font-size="10.00" fill="orange">DROP(,)</text>
<polygon fill="none" stroke="black" points="431.79,-184 431.79,-212 528.79,-212 528.79,-184 431.79,-184"/>
<text text-anchor="start" x="434.79" y="-201" font-family="Courier New" font-size="10.00" fill="blue">HANDOFF(WPARM);</text>
<text text-anchor="start" x="434.79" y="-190" font-family="Courier New" font-size="10.00" fill="blue">CLEAR(WPARM);</text>
<polygon fill="none" stroke="black" points="428.79,-181 428.79,-234 531.79,-234 531.79,-181 428.79,-181"/>
</g>
<!-- 47&#45;&gt;110 -->
<g id="edge9" class="edge">
<title>47&#45;&gt;110</title>
<path fill="none" stroke="black" d="M207.19,-126.75C202.18,-124.53 196.91,-122.48 191.79,-121 159.33,-111.61 63.23,-128.27 40.79,-103 28.4,-89.04 28.49,-75.04 40.79,-61 72.75,-24.53 218.03,-21.01 290.47,-21.6"/>
<polygon fill="black" stroke="black" points="290.4,-25.11 300.44,-21.73 290.48,-18.11 290.4,-25.11"/>
<text text-anchor="start" x="44.79" y="-80.5" font-family="Courier New" font-weight="bold" font-size="10.00" fill="blue">NEQUALi(WPARM,IDD_REVERSIB)</text>
</g>
<!-- 47&#45;&gt;110 -->
<g id="edge10" class="edge">
<title>47&#45;&gt;110</title>
<path fill="none" stroke="black" d="M228.94,-124.06C225.02,-106.65 222.04,-79.54 234.79,-61 247.42,-42.65 270.28,-33.05 290.64,-28.02"/>
<polygon fill="black" stroke="black" points="291.26,-31.25 300.3,-25.73 289.78,-24.41 291.26,-31.25"/>
<polygon fill="none" stroke="black" points="237.79,-83 237.79,-100 412.79,-100 412.79,-83 237.79,-83"/>
<text text-anchor="start" x="288.79" y="-90" font-family="Courier New" font-weight="bold" font-size="10.00" fill="blue">Z_EPSILON(,)</text>
<polygon fill="none" stroke="black" points="237.79,-64 237.79,-81 412.79,-81 412.79,-64 237.79,-64"/>
<text text-anchor="start" x="240.79" y="-70" font-family="Courier New" font-size="10.00" fill="blue">ASSIGN(WPARM, IDD_REVERSIA);</text>
<polygon fill="none" stroke="black" points="234.79,-61 234.79,-103 415.79,-103 415.79,-61 234.79,-61"/>
</g>
<!-- status -->
<g id="node9" class="node">
<title>status</title>
<polygon fill="none" stroke="black" points="593.29,-729.5 593.29,-801.5 1012.29,-801.5 1012.29,-729.5 593.29,-729.5"/>
<polygon fill="none" stroke="black" points="604.29,-777.5 604.29,-794.5 1001.29,-794.5 1001.29,-777.5 604.29,-777.5"/>
<text text-anchor="start" x="748.29" y="-784.5" font-family="Courier New" font-weight="bold" font-size="10.00">S00_SQUARE00+0*8+3</text>
<polygon fill="none" stroke="black" points="604.29,-736.5 604.29,-775.5 1001.29,-775.5 1001.29,-736.5 604.29,-736.5"/>
<text text-anchor="start" x="607.29" y="-764.5" font-family="Courier New" font-size="10.00" fill="green">VIEW::IDV_BOARD @pos(left:620, top:115)</text>
<text text-anchor="start" x="607.29" y="-753.5" font-family="Courier New" font-size="10.00" fill="green">S00_SQUARE00+0*8+3::M_SQUARE(&#39;&#39;,&#39;&#39;,&#39;&#39;,&#39;&#39;)</text>
<text text-anchor="start" x="607.29" y="-742.5" font-family="Courier New" font-size="10.00" fill="green">{&#39;110&#39;: wParm:IDD_REVERSIB wObject:IDD_REVERSIB wAccept:IDC_TOKEN</text>
<polygon fill="none" stroke="black" points="601.29,-733.5 601.29,-797.5 1004.29,-797.5 1004.29,-733.5 601.29,-733.5"/>
</g>
</g>
</svg>
