<?xml version="1.0" encoding="UTF-8" standalone="no"?>
<!DOCTYPE svg PUBLIC "-//W3C//DTD SVG 1.1//EN"
 "http://www.w3.org/Graphics/SVG/1.1/DTD/svg11.dtd">
<!-- Generated by graphviz version 10.0.1 (20240210.2158)
 -->
<!-- Title: Automaton Pages: 1 -->
<svg width="825pt" height="1989pt"
 viewBox="0.00 0.00 825.25 1988.75" xmlns="http://www.w3.org/2000/svg" xmlns:xlink="http://www.w3.org/1999/xlink">
<g id="graph0" class="graph" transform="scale(1 1) rotate(0) translate(4 1984.75)">
<title>Automaton</title>
<polygon fill="white" stroke="none" points="-4,4 -4,-1984.75 821.25,-1984.75 821.25,4 -4,4"/>
<!-- filename -->
<g id="node1" class="node">
<title>filename</title>
<polygon fill="none" stroke="black" points="5.25,-1914 5.25,-1967.5 165.25,-1967.5 165.25,-1914 5.25,-1914"/>
<polygon fill="none" stroke="black" points="16.25,-1941.75 16.25,-1960.5 154.25,-1960.5 154.25,-1941.75 16.25,-1941.75"/>
<text text-anchor="start" x="19.25" y="-1949" font-family="Courier New" font-weight="bold" font-size="10.00">S00_VILGOPA::M_NEWGOPA</text>
<polygon fill="none" stroke="black" points="16.25,-1921 16.25,-1939.75 154.25,-1939.75 154.25,-1921 16.25,-1921"/>
<text text-anchor="start" x="40.25" y="-1927.25" font-family="Courier New" font-size="10.00" fill="brown">start state = 0</text>
<polygon fill="none" stroke="black" points="13.25,-1918 13.25,-1963.5 157.25,-1963.5 157.25,-1918 13.25,-1918"/>
</g>
<!-- 0 -->
<g id="node2" class="node">
<title>0</title>
<polyline fill="none" stroke="darkred" points="203.12,-1929.5 217.38,-1929.5"/>
<text text-anchor="start" x="206.12" y="-1936.7" font-family="Courier New" font-weight="bold" font-size="14.00">0</text>
<path fill="none" stroke="darkred" d="M206.88,-1926.5C206.88,-1926.5 213.62,-1926.5 213.62,-1926.5 217,-1926.5 220.38,-1929.88 220.38,-1933.25 220.38,-1933.25 220.38,-1948.25 220.38,-1948.25 220.38,-1951.62 217,-1955 213.62,-1955 213.62,-1955 206.88,-1955 206.88,-1955 203.5,-1955 200.12,-1951.62 200.12,-1948.25 200.12,-1948.25 200.12,-1933.25 200.12,-1933.25 200.12,-1929.88 203.5,-1926.5 206.88,-1926.5"/>
</g>
<!-- setup -->
<g id="node3" class="node">
<title>setup</title>
<polyline fill="none" stroke="darkred" points="186.62,-1814.5 233.88,-1814.5"/>
<text text-anchor="start" x="189.62" y="-1821.7" font-family="Courier New" font-weight="bold" font-size="14.00">setup</text>
<path fill="none" stroke="darkred" d="M193.12,-1811.5C193.12,-1811.5 227.38,-1811.5 227.38,-1811.5 232.12,-1811.5 236.88,-1816.25 236.88,-1821 236.88,-1821 236.88,-1830.5 236.88,-1830.5 236.88,-1835.25 232.12,-1840 227.38,-1840 227.38,-1840 193.12,-1840 193.12,-1840 188.38,-1840 183.62,-1835.25 183.62,-1830.5 183.62,-1830.5 183.62,-1821 183.62,-1821 183.62,-1816.25 188.38,-1811.5 193.12,-1811.5"/>
</g>
<!-- 0&#45;&gt;setup -->
<g id="edge1" class="edge">
<title>0&#45;&gt;setup</title>
<path fill="none" stroke="black" d="M210.25,-1922.59C210.25,-1904.65 210.25,-1876.2 210.25,-1854.95"/>
<polygon fill="black" stroke="black" points="213.75,-1855.22 210.25,-1845.22 206.75,-1855.22 213.75,-1855.22"/>
<text text-anchor="start" x="214.25" y="-1870.25" font-family="Courier New" font-weight="bold" font-size="10.00" fill="blue">Z_EPSILON(,)</text>
</g>
<!-- digging -->
<g id="node6" class="node">
<title>digging</title>
<polyline fill="none" stroke="darkred" points="178.38,-1645.5 242.12,-1645.5"/>
<text text-anchor="start" x="181.38" y="-1652.7" font-family="Courier New" font-weight="bold" font-size="14.00">digging</text>
<path fill="none" stroke="darkred" d="M184.88,-1642.5C184.88,-1642.5 235.62,-1642.5 235.62,-1642.5 240.38,-1642.5 245.12,-1647.25 245.12,-1652 245.12,-1652 245.12,-1661.5 245.12,-1661.5 245.12,-1666.25 240.38,-1671 235.62,-1671 235.62,-1671 184.88,-1671 184.88,-1671 180.12,-1671 175.38,-1666.25 175.38,-1661.5 175.38,-1661.5 175.38,-1652 175.38,-1652 175.38,-1647.25 180.12,-1642.5 184.88,-1642.5"/>
</g>
<!-- setup&#45;&gt;digging -->
<g id="edge13" class="edge">
<title>setup&#45;&gt;digging</title>
<path fill="none" stroke="black" d="M210.25,-1807.51C210.25,-1778.73 210.25,-1720.66 210.25,-1685.89"/>
<polygon fill="black" stroke="black" points="213.75,-1686.16 210.25,-1676.16 206.75,-1686.16 213.75,-1686.16"/>
<polygon fill="none" stroke="black" points="213.25,-1767.75 213.25,-1786.5 441.25,-1786.5 441.25,-1767.75 213.25,-1767.75"/>
<text text-anchor="start" x="294.25" y="-1775" font-family="Courier New" font-weight="bold" font-size="10.00" fill="orange">DRAG(WIP1,)</text>
<polygon fill="none" stroke="black" points="213.25,-1696 213.25,-1765.75 441.25,-1765.75 441.25,-1696 213.25,-1696"/>
<text text-anchor="start" x="216.25" y="-1753.25" font-family="Courier New" font-size="10.00" fill="blue"> &#160;&#160;&#160;if(WIP1 == ISA_TOOL_DIGGER){</text>
<text text-anchor="start" x="216.25" y="-1740.5" font-family="Courier New" font-size="10.00" fill="blue"> &#160;&#160;&#160;&#160;&#160;&#160;&#160;&#160;&#160;&#160;&#160;SHOW(0,IDS_SANDPILEGOPA);</text>
<text text-anchor="start" x="216.25" y="-1727.75" font-family="Courier New" font-size="10.00" fill="blue"> &#160;&#160;&#160;&#160;&#160;&#160;&#160;&#160;&#160;&#160;&#160;PLAYWAVE(SOUND_DIG);</text>
<text text-anchor="start" x="216.25" y="-1715" font-family="Courier New" font-size="10.00" fill="blue"> &#160;&#160;&#160;&#160;&#160;&#160;&#160;&#160;&#160;&#160;&#160;ANIMATE();</text>
<text text-anchor="start" x="216.25" y="-1702.25" font-family="Courier New" font-size="10.00" fill="blue"> &#160;&#160;&#160;&#160;&#160;&#160;&#160;&#160;} &#160;&#160;</text>
<polygon fill="none" stroke="black" points="210.25,-1693 210.25,-1789.5 444.25,-1789.5 444.25,-1693 210.25,-1693"/>
</g>
<!-- blueBerry -->
<g id="node4" class="node">
<title>blueBerry</title>
<polyline fill="none" stroke="darkred" points="22.12,-7 102.38,-7"/>
<text text-anchor="start" x="25.12" y="-14.2" font-family="Courier New" font-weight="bold" font-size="14.00">blueBerry</text>
<path fill="none" stroke="darkred" d="M28.62,-4C28.62,-4 95.88,-4 95.88,-4 100.62,-4 105.38,-8.75 105.38,-13.5 105.38,-13.5 105.38,-23 105.38,-23 105.38,-27.75 100.62,-32.5 95.88,-32.5 95.88,-32.5 28.62,-32.5 28.62,-32.5 23.88,-32.5 19.12,-27.75 19.12,-23 19.12,-23 19.12,-13.5 19.12,-13.5 19.12,-8.75 23.88,-4 28.62,-4"/>
</g>
<!-- immaturePlant -->
<g id="node5" class="node">
<title>immaturePlant</title>
<polyline fill="none" stroke="darkred" points="153.62,-535.75 266.88,-535.75"/>
<text text-anchor="start" x="156.62" y="-542.95" font-family="Courier New" font-weight="bold" font-size="14.00">immaturePlant</text>
<path fill="none" stroke="darkred" d="M160.12,-532.75C160.12,-532.75 260.38,-532.75 260.38,-532.75 265.12,-532.75 269.88,-537.5 269.88,-542.25 269.88,-542.25 269.88,-551.75 269.88,-551.75 269.88,-556.5 265.12,-561.25 260.38,-561.25 260.38,-561.25 160.12,-561.25 160.12,-561.25 155.38,-561.25 150.62,-556.5 150.62,-551.75 150.62,-551.75 150.62,-542.25 150.62,-542.25 150.62,-537.5 155.38,-532.75 160.12,-532.75"/>
</g>
<!-- blueBerry&#45;&gt;immaturePlant -->
<g id="edge2" class="edge">
<title>blueBerry&#45;&gt;immaturePlant</title>
<path fill="none" stroke="black" d="M55.57,-36.47C30.15,-105.17 -53.4,-363.12 63.25,-510.75 72.38,-522.3 101.75,-530.5 131.87,-536.07"/>
<polygon fill="black" stroke="black" points="131.01,-539.47 141.47,-537.74 132.22,-532.57 131.01,-539.47"/>
<polygon fill="none" stroke="black" points="12.25,-279.12 12.25,-297.88 204.25,-297.88 204.25,-279.12 12.25,-279.12"/>
<text text-anchor="start" x="84.25" y="-286.38" font-family="Courier New" font-weight="bold" font-size="10.00" fill="orange">GRAB(0,)</text>
<polygon fill="none" stroke="black" points="12.25,-245.62 12.25,-277.12 204.25,-277.12 204.25,-245.62 12.25,-245.62"/>
<text text-anchor="start" x="15.25" y="-264.62" font-family="Courier New" font-size="10.00" fill="blue"> &#160;&#160;&#160;&#160;&#160;&#160;&#160;&#160;&#160;&#160;&#160;MOV(BFRAME,0);</text>
<text text-anchor="start" x="15.25" y="-251.88" font-family="Courier New" font-size="10.00" fill="blue"> &#160;&#160;&#160;&#160;&#160;&#160;&#160;&#160;&#160;&#160;&#160;SHOW(0,IDS_GPANIM);</text>
<polygon fill="none" stroke="black" points="9.25,-242.62 9.25,-300.88 207.25,-300.88 207.25,-242.62 9.25,-242.62"/>
</g>
<!-- greenBerry -->
<g id="node12" class="node">
<title>greenBerry</title>
<polyline fill="none" stroke="darkred" points="239,-355.88 327.5,-355.88"/>
<text text-anchor="start" x="242" y="-363.07" font-family="Courier New" font-weight="bold" font-size="14.00">greenBerry</text>
<path fill="none" stroke="darkred" d="M245.5,-352.88C245.5,-352.88 321,-352.88 321,-352.88 325.75,-352.88 330.5,-357.62 330.5,-362.38 330.5,-362.38 330.5,-371.88 330.5,-371.88 330.5,-376.62 325.75,-381.38 321,-381.38 321,-381.38 245.5,-381.38 245.5,-381.38 240.75,-381.38 236,-376.62 236,-371.88 236,-371.88 236,-362.38 236,-362.38 236,-357.62 240.75,-352.88 245.5,-352.88"/>
</g>
<!-- immaturePlant&#45;&gt;greenBerry -->
<g id="edge9" class="edge">
<title>immaturePlant&#45;&gt;greenBerry</title>
<path fill="none" stroke="black" d="M142.97,-536.11C114.06,-530.36 84.92,-521.99 76.25,-510.75 63.16,-493.77 62.84,-430.98 76.25,-414.25 93.72,-392.46 163.18,-380.3 216.88,-374"/>
<polygon fill="black" stroke="black" points="217.02,-377.51 226.57,-372.92 216.24,-370.55 217.02,-377.51"/>
<polygon fill="none" stroke="black" points="79.25,-489 79.25,-507.75 313.25,-507.75 313.25,-489 79.25,-489"/>
<text text-anchor="start" x="148.25" y="-496.25" font-family="Courier New" font-weight="bold" font-size="10.00" fill="orange">DRAG(IDD_BUCKF,)</text>
<polygon fill="none" stroke="black" points="79.25,-417.25 79.25,-487 313.25,-487 313.25,-417.25 79.25,-417.25"/>
<text text-anchor="start" x="82.25" y="-474.5" font-family="Courier New" font-size="10.00" fill="blue"> &#160;&#160;&#160;&#160;&#160;&#160;&#160;&#160;&#160;&#160;&#160;HANDOFF(IDD_BUCKE);</text>
<text text-anchor="start" x="82.25" y="-461.75" font-family="Courier New" font-size="10.00" fill="blue"> &#160;&#160;&#160;&#160;&#160;&#160;&#160;&#160;&#160;&#160;&#160;PLAYWAVE(SOUND_SPLASH);</text>
<text text-anchor="start" x="82.25" y="-449" font-family="Courier New" font-size="10.00" fill="blue"> &#160;&#160;&#160;&#160;&#160;&#160;&#160;&#160;&#160;&#160;&#160;MOV(BFRAME,1);</text>
<text text-anchor="start" x="82.25" y="-436.25" font-family="Courier New" font-size="10.00" fill="blue"> &#160;&#160;&#160;&#160;&#160;&#160;&#160;&#160;&#160;&#160;&#160;ASSIGN(WOBJECT,IDD_GOPAG);</text>
<text text-anchor="start" x="82.25" y="-423.5" font-family="Courier New" font-size="10.00" fill="blue"> &#160;&#160;&#160;&#160;&#160;&#160;&#160;&#160;&#160;&#160;&#160;SHOW(0,IDS_GPANIM);</text>
<polygon fill="none" stroke="black" points="76.25,-414.25 76.25,-510.75 316.25,-510.75 316.25,-414.25 76.25,-414.25"/>
</g>
<!-- holeDug -->
<g id="node7" class="node">
<title>holeDug</title>
<polyline fill="none" stroke="darkred" points="178.38,-1548.25 242.12,-1548.25"/>
<text text-anchor="start" x="181.38" y="-1555.45" font-family="Courier New" font-weight="bold" font-size="14.00">holeDug</text>
<path fill="none" stroke="darkred" d="M184.88,-1545.25C184.88,-1545.25 235.62,-1545.25 235.62,-1545.25 240.38,-1545.25 245.12,-1550 245.12,-1554.75 245.12,-1554.75 245.12,-1564.25 245.12,-1564.25 245.12,-1569 240.38,-1573.75 235.62,-1573.75 235.62,-1573.75 184.88,-1573.75 184.88,-1573.75 180.12,-1573.75 175.38,-1569 175.38,-1564.25 175.38,-1564.25 175.38,-1554.75 175.38,-1554.75 175.38,-1550 180.12,-1545.25 184.88,-1545.25"/>
</g>
<!-- digging&#45;&gt;holeDug -->
<g id="edge3" class="edge">
<title>digging&#45;&gt;holeDug</title>
<path fill="none" stroke="black" d="M210.25,-1638.72C210.25,-1624.86 210.25,-1604.99 210.25,-1588.75"/>
<polygon fill="black" stroke="black" points="213.75,-1589.22 210.25,-1579.22 206.75,-1589.22 213.75,-1589.22"/>
<polygon fill="none" stroke="black" points="213.25,-1598.75 213.25,-1617.5 279.25,-1617.5 279.25,-1598.75 213.25,-1598.75"/>
<text text-anchor="start" x="216.25" y="-1606" font-family="Courier New" font-weight="bold" font-size="10.00" fill="blue">ESTIME(,3)</text>
<polygon fill="none" stroke="black" points="210.25,-1595.75 210.25,-1620.5 282.25,-1620.5 282.25,-1595.75 210.25,-1595.75"/>
</g>
<!-- firstPlanted -->
<g id="node8" class="node">
<title>firstPlanted</title>
<polyline fill="none" stroke="darkred" points="157.75,-1417.5 262.75,-1417.5"/>
<text text-anchor="start" x="160.75" y="-1424.7" font-family="Courier New" font-weight="bold" font-size="14.00">firstPlanted</text>
<path fill="none" stroke="darkred" d="M164.25,-1414.5C164.25,-1414.5 256.25,-1414.5 256.25,-1414.5 261,-1414.5 265.75,-1419.25 265.75,-1424 265.75,-1424 265.75,-1433.5 265.75,-1433.5 265.75,-1438.25 261,-1443 256.25,-1443 256.25,-1443 164.25,-1443 164.25,-1443 159.5,-1443 154.75,-1438.25 154.75,-1433.5 154.75,-1433.5 154.75,-1424 154.75,-1424 154.75,-1419.25 159.5,-1414.5 164.25,-1414.5"/>
</g>
<!-- holeDug&#45;&gt;firstPlanted -->
<g id="edge8" class="edge">
<title>holeDug&#45;&gt;firstPlanted</title>
<path fill="none" stroke="black" d="M210.25,-1541.4C210.25,-1520.24 210.25,-1483.89 210.25,-1458.43"/>
<polygon fill="black" stroke="black" points="213.75,-1458.43 210.25,-1448.43 206.75,-1458.43 213.75,-1458.43"/>
<polygon fill="none" stroke="black" points="213.25,-1501.5 213.25,-1520.25 417.25,-1520.25 417.25,-1501.5 213.25,-1501.5"/>
<text text-anchor="start" x="258.25" y="-1508.75" font-family="Courier New" font-weight="bold" font-size="10.00" fill="orange">DROP(IDD_GOPASEED,)</text>
<polygon fill="none" stroke="black" points="213.25,-1468 213.25,-1499.5 417.25,-1499.5 417.25,-1468 213.25,-1468"/>
<text text-anchor="start" x="216.25" y="-1487" font-family="Courier New" font-size="10.00" fill="blue"> &#160;&#160;&#160;&#160;&#160;&#160;&#160;&#160;&#160;&#160;&#160;PLAYWAVE(SOUND_SUCK);</text>
<text text-anchor="start" x="216.25" y="-1474.25" font-family="Courier New" font-size="10.00" fill="blue"> &#160;&#160;&#160;&#160;&#160;&#160;&#160;&#160;&#160;&#160;&#160;SHOW();</text>
<polygon fill="none" stroke="black" points="210.25,-1465 210.25,-1523.25 420.25,-1523.25 420.25,-1465 210.25,-1465"/>
</g>
<!-- needsWater -->
<g id="node9" class="node">
<title>needsWater</title>
<polyline fill="none" stroke="darkred" points="166,-1286.75 254.5,-1286.75"/>
<text text-anchor="start" x="169" y="-1293.95" font-family="Courier New" font-weight="bold" font-size="14.00">needsWater</text>
<path fill="none" stroke="darkred" d="M172.5,-1283.75C172.5,-1283.75 248,-1283.75 248,-1283.75 252.75,-1283.75 257.5,-1288.5 257.5,-1293.25 257.5,-1293.25 257.5,-1302.75 257.5,-1302.75 257.5,-1307.5 252.75,-1312.25 248,-1312.25 248,-1312.25 172.5,-1312.25 172.5,-1312.25 167.75,-1312.25 163,-1307.5 163,-1302.75 163,-1302.75 163,-1293.25 163,-1293.25 163,-1288.5 167.75,-1283.75 172.5,-1283.75"/>
</g>
<!-- firstPlanted&#45;&gt;needsWater -->
<g id="edge4" class="edge">
<title>firstPlanted&#45;&gt;needsWater</title>
<path fill="none" stroke="black" d="M210.25,-1410.65C210.25,-1389.49 210.25,-1353.14 210.25,-1327.68"/>
<polygon fill="black" stroke="black" points="213.75,-1327.68 210.25,-1317.68 206.75,-1327.68 213.75,-1327.68"/>
<polygon fill="none" stroke="black" points="213.25,-1370.75 213.25,-1389.5 429.25,-1389.5 429.25,-1370.75 213.25,-1370.75"/>
<text text-anchor="start" x="291.25" y="-1378" font-family="Courier New" font-weight="bold" font-size="10.00" fill="blue">ESTIME(,1)</text>
<polygon fill="none" stroke="black" points="213.25,-1337.25 213.25,-1368.75 429.25,-1368.75 429.25,-1337.25 213.25,-1337.25"/>
<text text-anchor="start" x="216.25" y="-1356.25" font-family="Courier New" font-size="10.00" fill="blue"> &#160;&#160;&#160;&#160;&#160;&#160;&#160;&#160;&#160;&#160;&#160;MOV(BFRAME,3);</text>
<text text-anchor="start" x="216.25" y="-1343.5" font-family="Courier New" font-size="10.00" fill="blue"> &#160;&#160;&#160;&#160;&#160;&#160;&#160;&#160;&#160;&#160;&#160;SHOW(0,IDS_GPDIRTANIM);</text>
<polygon fill="none" stroke="black" points="210.25,-1334.25 210.25,-1392.5 432.25,-1392.5 432.25,-1334.25 210.25,-1334.25"/>
</g>
<!-- watered -->
<g id="node14" class="node">
<title>watered</title>
<polyline fill="none" stroke="darkred" points="178.38,-1130.5 242.12,-1130.5"/>
<text text-anchor="start" x="181.38" y="-1137.7" font-family="Courier New" font-weight="bold" font-size="14.00">watered</text>
<path fill="none" stroke="darkred" d="M184.88,-1127.5C184.88,-1127.5 235.62,-1127.5 235.62,-1127.5 240.38,-1127.5 245.12,-1132.25 245.12,-1137 245.12,-1137 245.12,-1146.5 245.12,-1146.5 245.12,-1151.25 240.38,-1156 235.62,-1156 235.62,-1156 184.88,-1156 184.88,-1156 180.12,-1156 175.38,-1151.25 175.38,-1146.5 175.38,-1146.5 175.38,-1137 175.38,-1137 175.38,-1132.25 180.12,-1127.5 184.88,-1127.5"/>
</g>
<!-- needsWater&#45;&gt;watered -->
<g id="edge10" class="edge">
<title>needsWater&#45;&gt;watered</title>
<path fill="none" stroke="black" d="M210.25,-1279.9C210.25,-1253.61 210.25,-1202.96 210.25,-1171.12"/>
<polygon fill="black" stroke="black" points="213.75,-1171.44 210.25,-1161.44 206.75,-1171.44 213.75,-1171.44"/>
<polygon fill="none" stroke="black" points="213.25,-1240 213.25,-1258.75 429.25,-1258.75 429.25,-1240 213.25,-1240"/>
<text text-anchor="start" x="273.25" y="-1247.25" font-family="Courier New" font-weight="bold" font-size="10.00" fill="orange">DRAG(IDD_BUCKF,)</text>
<polygon fill="none" stroke="black" points="213.25,-1181 213.25,-1238 429.25,-1238 429.25,-1181 213.25,-1181"/>
<text text-anchor="start" x="216.25" y="-1225.5" font-family="Courier New" font-size="10.00" fill="blue"> &#160;&#160;&#160;&#160;&#160;&#160;&#160;&#160;&#160;&#160;&#160;HANDOFF(IDD_BUCKE);</text>
<text text-anchor="start" x="216.25" y="-1212.75" font-family="Courier New" font-size="10.00" fill="blue"> &#160;&#160;&#160;&#160;&#160;&#160;&#160;&#160;&#160;&#160;&#160;MOV(BFRAME,1);</text>
<text text-anchor="start" x="216.25" y="-1200" font-family="Courier New" font-size="10.00" fill="blue"> &#160;&#160;&#160;&#160;&#160;&#160;&#160;&#160;&#160;&#160;&#160;SHOW(0,IDS_GPDIRTANIM);</text>
<text text-anchor="start" x="216.25" y="-1187.25" font-family="Courier New" font-size="10.00" fill="blue"> &#160;&#160;&#160;&#160;&#160;&#160;&#160;&#160;&#160;&#160;&#160;PLAYWAVE(SOUND_SPLASH);</text>
<polygon fill="none" stroke="black" points="210.25,-1178 210.25,-1261.75 432.25,-1261.75 432.25,-1178 210.25,-1178"/>
</g>
<!-- freshSprout -->
<g id="node10" class="node">
<title>freshSprout</title>
<polyline fill="none" stroke="darkred" points="161.88,-974.25 258.62,-974.25"/>
<text text-anchor="start" x="164.88" y="-981.45" font-family="Courier New" font-weight="bold" font-size="14.00">freshSprout</text>
<path fill="none" stroke="darkred" d="M168.38,-971.25C168.38,-971.25 252.12,-971.25 252.12,-971.25 256.88,-971.25 261.62,-976 261.62,-980.75 261.62,-980.75 261.62,-990.25 261.62,-990.25 261.62,-995 256.88,-999.75 252.12,-999.75 252.12,-999.75 168.38,-999.75 168.38,-999.75 163.62,-999.75 158.88,-995 158.88,-990.25 158.88,-990.25 158.88,-980.75 158.88,-980.75 158.88,-976 163.62,-971.25 168.38,-971.25"/>
</g>
<!-- sproutedNeedsWater -->
<g id="node11" class="node">
<title>sproutedNeedsWater</title>
<polyline fill="none" stroke="darkred" stroke-width="3" points="14.5,-839 170,-839"/>
<text text-anchor="start" x="18" y="-846.7" font-family="Courier New" font-weight="bold" font-size="14.00">sproutedNeedsWater</text>
<path fill="none" stroke="darkred" stroke-width="3" d="M20.67,-834C20.67,-834 163.83,-834 163.83,-834 169.42,-834 175,-839.58 175,-845.17 175,-845.17 175,-856.33 175,-856.33 175,-861.92 169.42,-867.5 163.83,-867.5 163.83,-867.5 20.67,-867.5 20.67,-867.5 15.08,-867.5 9.5,-861.92 9.5,-856.33 9.5,-856.33 9.5,-845.17 9.5,-845.17 9.5,-839.58 15.08,-834 20.67,-834"/>
</g>
<!-- freshSprout&#45;&gt;sproutedNeedsWater -->
<g id="edge5" class="edge">
<title>freshSprout&#45;&gt;sproutedNeedsWater</title>
<path fill="none" stroke="black" d="M151.03,-980.96C129.35,-976.45 106.82,-967.32 93.25,-949.25 79.42,-930.83 80.01,-904.45 83.59,-883.78"/>
<polygon fill="black" stroke="black" points="86.99,-884.65 85.59,-874.15 80.13,-883.23 86.99,-884.65"/>
<polygon fill="none" stroke="black" points="96.25,-927.5 96.25,-946.25 312.25,-946.25 312.25,-927.5 96.25,-927.5"/>
<text text-anchor="start" x="174.25" y="-934.75" font-family="Courier New" font-weight="bold" font-size="10.00" fill="blue">ESTIME(,5)</text>
<polygon fill="none" stroke="black" points="96.25,-894 96.25,-925.5 312.25,-925.5 312.25,-894 96.25,-894"/>
<text text-anchor="start" x="99.25" y="-913" font-family="Courier New" font-size="10.00" fill="blue"> &#160;&#160;&#160;&#160;&#160;&#160;&#160;&#160;&#160;&#160;&#160;MOV(BFRAME,2);</text>
<text text-anchor="start" x="99.25" y="-900.25" font-family="Courier New" font-size="10.00" fill="blue"> &#160;&#160;&#160;&#160;&#160;&#160;&#160;&#160;&#160;&#160;&#160;SHOW(0,IDS_GPDIRTANIM);</text>
<polygon fill="none" stroke="black" points="93.25,-891 93.25,-949.25 315.25,-949.25 315.25,-891 93.25,-891"/>
</g>
<!-- sproutWatered -->
<g id="node15" class="node">
<title>sproutWatered</title>
<polyline fill="none" stroke="darkred" points="153.62,-666.5 266.88,-666.5"/>
<text text-anchor="start" x="156.62" y="-673.7" font-family="Courier New" font-weight="bold" font-size="14.00">sproutWatered</text>
<path fill="none" stroke="darkred" d="M160.12,-663.5C160.12,-663.5 260.38,-663.5 260.38,-663.5 265.12,-663.5 269.88,-668.25 269.88,-673 269.88,-673 269.88,-682.5 269.88,-682.5 269.88,-687.25 265.12,-692 260.38,-692 260.38,-692 160.12,-692 160.12,-692 155.38,-692 150.62,-687.25 150.62,-682.5 150.62,-682.5 150.62,-673 150.62,-673 150.62,-668.25 155.38,-663.5 160.12,-663.5"/>
</g>
<!-- sproutedNeedsWater&#45;&gt;sproutWatered -->
<g id="edge16" class="edge">
<title>sproutedNeedsWater&#45;&gt;sproutWatered</title>
<path fill="none" stroke="black" d="M85.47,-828.97C77.44,-800.09 68.1,-747.58 93.25,-714 102.86,-701.17 116.99,-692.84 132.13,-687.48"/>
<polygon fill="black" stroke="black" points="132.76,-690.95 141.29,-684.66 130.7,-684.25 132.76,-690.95"/>
<polygon fill="none" stroke="black" points="96.25,-788.75 96.25,-807.5 312.25,-807.5 312.25,-788.75 96.25,-788.75"/>
<text text-anchor="start" x="156.25" y="-796" font-family="Courier New" font-weight="bold" font-size="10.00" fill="orange">DRAG(IDD_BUCKF,)</text>
<polygon fill="none" stroke="black" points="96.25,-717 96.25,-786.75 312.25,-786.75 312.25,-717 96.25,-717"/>
<text text-anchor="start" x="99.25" y="-774.25" font-family="Courier New" font-size="10.00" fill="blue"> &#160;&#160;&#160;&#160;&#160;&#160;&#160;&#160;&#160;&#160;&#160;HANDOFF(IDD_BUCKE);</text>
<text text-anchor="start" x="99.25" y="-761.5" font-family="Courier New" font-size="10.00" fill="blue"> &#160;&#160;&#160;&#160;&#160;&#160;&#160;&#160;&#160;&#160;&#160;MOV(BFRAME,0);</text>
<text text-anchor="start" x="99.25" y="-748.75" font-family="Courier New" font-size="10.00" fill="blue"> &#160;&#160;&#160;&#160;&#160;&#160;&#160;&#160;&#160;&#160;&#160;SHOW(0,IDS_GPDIRTANIM);</text>
<text text-anchor="start" x="99.25" y="-736" font-family="Courier New" font-size="10.00" fill="blue"> &#160;&#160;&#160;&#160;&#160;&#160;&#160;&#160;&#160;&#160;&#160;PLAYWAVE(SOUND_SPLASH);</text>
<text text-anchor="start" x="99.25" y="-723.25" font-family="Courier New" font-size="10.00" fill="blue"> &#160;&#160;&#160;&#160;&#160;&#160;&#160;&#160;&#160;&#160;&#160;BPARM = BPARM + 1;</text>
<polygon fill="none" stroke="black" points="93.25,-714 93.25,-810.5 315.25,-810.5 315.25,-714 93.25,-714"/>
</g>
<!-- greenBerry&#45;&gt;immaturePlant -->
<g id="edge7" class="edge">
<title>greenBerry&#45;&gt;immaturePlant</title>
<path fill="none" stroke="black" d="M301.58,-385.19C308.88,-393.22 316.44,-403.4 320.25,-414.25 334.47,-454.71 345.53,-476.1 320.25,-510.75 312.26,-521.7 300.83,-529.32 288.32,-534.61"/>
<polygon fill="black" stroke="black" points="287.22,-531.29 279.04,-538.01 289.63,-537.86 287.22,-531.29"/>
<polygon fill="none" stroke="black" points="338.25,-469.88 338.25,-488.62 530.25,-488.62 530.25,-469.88 338.25,-469.88"/>
<text text-anchor="start" x="410.25" y="-477.12" font-family="Courier New" font-weight="bold" font-size="10.00" fill="orange">GRAB(0,)</text>
<polygon fill="none" stroke="black" points="338.25,-436.38 338.25,-467.88 530.25,-467.88 530.25,-436.38 338.25,-436.38"/>
<text text-anchor="start" x="341.25" y="-455.38" font-family="Courier New" font-size="10.00" fill="blue"> &#160;&#160;&#160;&#160;&#160;&#160;&#160;&#160;&#160;&#160;&#160;MOV(BFRAME,0);</text>
<text text-anchor="start" x="341.25" y="-442.62" font-family="Courier New" font-size="10.00" fill="blue"> &#160;&#160;&#160;&#160;&#160;&#160;&#160;&#160;&#160;&#160;&#160;SHOW(0,IDS_GPANIM);</text>
<polygon fill="none" stroke="black" points="335.25,-433.38 335.25,-491.62 533.25,-491.62 533.25,-433.38 335.25,-433.38"/>
</g>
<!-- redBerry -->
<g id="node13" class="node">
<title>redBerry</title>
<polyline fill="none" stroke="darkred" points="247.25,-176 319.25,-176"/>
<text text-anchor="start" x="250.25" y="-183.2" font-family="Courier New" font-weight="bold" font-size="14.00">redBerry</text>
<path fill="none" stroke="darkred" d="M253.75,-173C253.75,-173 312.75,-173 312.75,-173 317.5,-173 322.25,-177.75 322.25,-182.5 322.25,-182.5 322.25,-192 322.25,-192 322.25,-196.75 317.5,-201.5 312.75,-201.5 312.75,-201.5 253.75,-201.5 253.75,-201.5 249,-201.5 244.25,-196.75 244.25,-192 244.25,-192 244.25,-182.5 244.25,-182.5 244.25,-177.75 249,-173 253.75,-173"/>
</g>
<!-- greenBerry&#45;&gt;redBerry -->
<g id="edge6" class="edge">
<title>greenBerry&#45;&gt;redBerry</title>
<path fill="none" stroke="black" d="M283.25,-349.07C283.25,-318.39 283.25,-253.63 283.25,-216.32"/>
<polygon fill="black" stroke="black" points="286.75,-216.77 283.25,-206.77 279.75,-216.77 286.75,-216.77"/>
<polygon fill="none" stroke="black" points="286.25,-298.25 286.25,-317 520.25,-317 520.25,-298.25 286.25,-298.25"/>
<text text-anchor="start" x="352.25" y="-305.5" font-family="Courier New" font-weight="bold" font-size="10.00" fill="orange">DRAG(IDD_SCOOPF,)</text>
<polygon fill="none" stroke="black" points="286.25,-226.5 286.25,-296.25 520.25,-296.25 520.25,-226.5 286.25,-226.5"/>
<text text-anchor="start" x="289.25" y="-283.75" font-family="Courier New" font-size="10.00" fill="blue"> &#160;&#160;&#160;&#160;&#160;&#160;&#160;&#160;&#160;&#160;&#160;HANDOFF(IDD_SCOOPE);</text>
<text text-anchor="start" x="289.25" y="-271" font-family="Courier New" font-size="10.00" fill="blue"> &#160;&#160;&#160;&#160;&#160;&#160;&#160;&#160;&#160;&#160;&#160;PLAYWAVE(SOUND_SPIT);</text>
<text text-anchor="start" x="289.25" y="-258.25" font-family="Courier New" font-size="10.00" fill="blue"> &#160;&#160;&#160;&#160;&#160;&#160;&#160;&#160;&#160;&#160;&#160;MOV(BFRAME,2);</text>
<text text-anchor="start" x="289.25" y="-245.5" font-family="Courier New" font-size="10.00" fill="blue"> &#160;&#160;&#160;&#160;&#160;&#160;&#160;&#160;&#160;&#160;&#160;ASSIGN(WOBJECT,IDD_GOPAR);</text>
<text text-anchor="start" x="289.25" y="-232.75" font-family="Courier New" font-size="10.00" fill="blue"> &#160;&#160;&#160;&#160;&#160;&#160;&#160;&#160;&#160;&#160;&#160;SHOW(0,IDS_GPANIM);</text>
<polygon fill="none" stroke="black" points="283.25,-223.5 283.25,-320 523.25,-320 523.25,-223.5 283.25,-223.5"/>
</g>
<!-- redBerry&#45;&gt;blueBerry -->
<g id="edge11" class="edge">
<title>redBerry&#45;&gt;blueBerry</title>
<path fill="none" stroke="black" d="M260.43,-169.01C220.79,-139.05 139.14,-77.35 93.99,-43.24"/>
<polygon fill="black" stroke="black" points="96.24,-40.55 86.15,-37.31 92.02,-46.13 96.24,-40.55"/>
<polygon fill="none" stroke="black" points="238.25,-129.25 238.25,-148 472.25,-148 472.25,-129.25 238.25,-129.25"/>
<text text-anchor="start" x="304.25" y="-136.5" font-family="Courier New" font-weight="bold" font-size="10.00" fill="orange">DRAG(IDD_SCOOPF,)</text>
<polygon fill="none" stroke="black" points="238.25,-57.5 238.25,-127.25 472.25,-127.25 472.25,-57.5 238.25,-57.5"/>
<text text-anchor="start" x="241.25" y="-114.75" font-family="Courier New" font-size="10.00" fill="blue"> &#160;&#160;&#160;&#160;&#160;&#160;&#160;&#160;&#160;&#160;&#160;HANDOFF(IDD_SCOOPE);</text>
<text text-anchor="start" x="241.25" y="-102" font-family="Courier New" font-size="10.00" fill="blue"> &#160;&#160;&#160;&#160;&#160;&#160;&#160;&#160;&#160;&#160;&#160;PLAYWAVE(SOUND_SPIT);</text>
<text text-anchor="start" x="241.25" y="-89.25" font-family="Courier New" font-size="10.00" fill="blue"> &#160;&#160;&#160;&#160;&#160;&#160;&#160;&#160;&#160;&#160;&#160;MOV(BFRAME,3);</text>
<text text-anchor="start" x="241.25" y="-76.5" font-family="Courier New" font-size="10.00" fill="blue"> &#160;&#160;&#160;&#160;&#160;&#160;&#160;&#160;&#160;&#160;&#160;ASSIGN(WOBJECT,IDD_GOPAB);</text>
<text text-anchor="start" x="241.25" y="-63.75" font-family="Courier New" font-size="10.00" fill="blue"> &#160;&#160;&#160;&#160;&#160;&#160;&#160;&#160;&#160;&#160;&#160;SHOW(0,IDS_GPANIM);</text>
<polygon fill="none" stroke="black" points="235.25,-54.5 235.25,-151 475.25,-151 475.25,-54.5 235.25,-54.5"/>
</g>
<!-- redBerry&#45;&gt;immaturePlant -->
<g id="edge12" class="edge">
<title>redBerry&#45;&gt;immaturePlant</title>
<path fill="none" stroke="black" d="M330.25,-188.24C393.64,-189.31 501.57,-195.37 527.25,-223.5 576.23,-277.16 569.87,-474.43 537.25,-510.75 520.95,-528.91 380.62,-538.53 289.16,-542.92"/>
<polygon fill="black" stroke="black" points="289.05,-539.43 279.22,-543.39 289.38,-546.42 289.05,-539.43"/>
<polygon fill="none" stroke="black" points="565.25,-374.5 565.25,-393.25 757.25,-393.25 757.25,-374.5 565.25,-374.5"/>
<text text-anchor="start" x="637.25" y="-381.75" font-family="Courier New" font-weight="bold" font-size="10.00" fill="orange">GRAB(0,)</text>
<polygon fill="none" stroke="black" points="565.25,-341 565.25,-372.5 757.25,-372.5 757.25,-341 565.25,-341"/>
<text text-anchor="start" x="568.25" y="-360" font-family="Courier New" font-size="10.00" fill="blue"> &#160;&#160;&#160;&#160;&#160;&#160;&#160;&#160;&#160;&#160;&#160;MOV(BFRAME,0);</text>
<text text-anchor="start" x="568.25" y="-347.25" font-family="Courier New" font-size="10.00" fill="blue"> &#160;&#160;&#160;&#160;&#160;&#160;&#160;&#160;&#160;&#160;&#160;SHOW(0,IDS_GPANIM);</text>
<polygon fill="none" stroke="black" points="562.25,-338 562.25,-396.25 760.25,-396.25 760.25,-338 562.25,-338"/>
</g>
<!-- watered&#45;&gt;freshSprout -->
<g id="edge17" class="edge">
<title>watered&#45;&gt;freshSprout</title>
<path fill="none" stroke="black" d="M210.25,-1123.65C210.25,-1097.36 210.25,-1046.71 210.25,-1014.87"/>
<polygon fill="black" stroke="black" points="213.75,-1015.19 210.25,-1005.19 206.75,-1015.19 213.75,-1015.19"/>
<polygon fill="none" stroke="black" points="213.25,-1083.75 213.25,-1102.5 429.25,-1102.5 429.25,-1083.75 213.25,-1083.75"/>
<text text-anchor="start" x="291.25" y="-1091" font-family="Courier New" font-weight="bold" font-size="10.00" fill="blue">ESTIME(,5)</text>
<polygon fill="none" stroke="black" points="213.25,-1024.75 213.25,-1081.75 429.25,-1081.75 429.25,-1024.75 213.25,-1024.75"/>
<text text-anchor="start" x="216.25" y="-1069.25" font-family="Courier New" font-size="10.00" fill="blue"> &#160;&#160;&#160;&#160;&#160;&#160;&#160;&#160;&#160;&#160;&#160;MOV(BFRAME,0);</text>
<text text-anchor="start" x="216.25" y="-1056.5" font-family="Courier New" font-size="10.00" fill="blue"> &#160;&#160;&#160;&#160;&#160;&#160;&#160;&#160;&#160;&#160;&#160;PLAYWAVE(SOUND_HURT);</text>
<text text-anchor="start" x="216.25" y="-1043.75" font-family="Courier New" font-size="10.00" fill="blue"> &#160;&#160;&#160;&#160;&#160;&#160;&#160;&#160;&#160;&#160;&#160;SHOW(0,IDS_GPDIRTANIM);</text>
<text text-anchor="start" x="216.25" y="-1031" font-family="Courier New" font-size="10.00" fill="blue"> &#160;&#160;&#160;&#160;&#160;&#160;&#160;&#160;&#160;&#160;&#160;BPARM = 0;</text>
<polygon fill="none" stroke="black" points="210.25,-1021.75 210.25,-1105.5 432.25,-1105.5 432.25,-1021.75 210.25,-1021.75"/>
</g>
<!-- sproutWatered&#45;&gt;immaturePlant -->
<g id="edge14" class="edge">
<title>sproutWatered&#45;&gt;immaturePlant</title>
<path fill="none" stroke="black" d="M210.25,-659.65C210.25,-638.49 210.25,-602.14 210.25,-576.68"/>
<polygon fill="black" stroke="black" points="213.75,-576.68 210.25,-566.68 206.75,-576.68 213.75,-576.68"/>
<polygon fill="none" stroke="black" points="213.25,-619.75 213.25,-638.5 405.25,-638.5 405.25,-619.75 213.25,-619.75"/>
<text text-anchor="start" x="264.25" y="-627" font-family="Courier New" font-weight="bold" font-size="10.00" fill="blue">EQUALi(BPARM,6)</text>
<polygon fill="none" stroke="black" points="213.25,-586.25 213.25,-617.75 405.25,-617.75 405.25,-586.25 213.25,-586.25"/>
<text text-anchor="start" x="216.25" y="-605.25" font-family="Courier New" font-size="10.00" fill="blue"> &#160;&#160;&#160;&#160;&#160;&#160;&#160;&#160;&#160;&#160;&#160;MOV(BFRAME,0);</text>
<text text-anchor="start" x="216.25" y="-592.5" font-family="Courier New" font-size="10.00" fill="blue"> &#160;&#160;&#160;&#160;&#160;&#160;&#160;&#160;&#160;&#160;&#160;SHOW(0,IDS_GPANIM);</text>
<polygon fill="none" stroke="black" points="210.25,-583.25 210.25,-641.5 408.25,-641.5 408.25,-583.25 210.25,-583.25"/>
</g>
<!-- sproutWatered&#45;&gt;freshSprout -->
<g id="edge15" class="edge">
<title>sproutWatered&#45;&gt;freshSprout</title>
<path fill="none" stroke="black" d="M277.62,-687.92C292.31,-693.18 306.16,-701.35 315.25,-714 376.29,-798.89 376.29,-864.36 315.25,-949.25 306.66,-961.19 293.83,-969.15 280.06,-974.43"/>
<polygon fill="black" stroke="black" points="279.22,-971.02 270.83,-977.49 281.43,-977.66 279.22,-971.02"/>
<text text-anchor="start" x="364.25" y="-848.62" font-family="Courier New" font-weight="bold" font-size="10.00" fill="blue">Z_EPSILON(,)</text>
</g>
<!-- status -->
<g id="node16" class="node">
<title>status</title>
<polygon fill="none" stroke="black" points="255.25,-1901.25 255.25,-1980.25 817.25,-1980.25 817.25,-1901.25 255.25,-1901.25"/>
<polygon fill="none" stroke="black" points="266.25,-1954.5 266.25,-1973.25 806.25,-1973.25 806.25,-1954.5 266.25,-1954.5"/>
<text text-anchor="start" x="503.25" y="-1961.75" font-family="Courier New" font-weight="bold" font-size="10.00">S00_VILGOPA</text>
<polygon fill="none" stroke="black" points="266.25,-1908.25 266.25,-1952.5 806.25,-1952.5 806.25,-1908.25 266.25,-1908.25"/>
<text text-anchor="start" x="269.25" y="-1940" font-family="Courier New" font-size="10.00" fill="green">VIEW::IDV_VHS1 @pos(left:2546, top:181)</text>
<text text-anchor="start" x="269.25" y="-1927.25" font-family="Courier New" font-size="10.00" fill="green">S00_VILGOPA::M_NEWGOPA(&#39;ISA_TOOL_DIGGER&#39;,&#39;&#39;,&#39;&#39;,&#39;&#39;)</text>
<text text-anchor="start" x="269.25" y="-1914.5" font-family="Courier New" font-size="10.00" fill="green">{state:&#39;sproutedNeedsWater&#39;: bParm:5 wObject:IDD_GOPASEED wSprite:IDS_GPDIRTANIM bFrame:2</text>
<polygon fill="none" stroke="black" points="263.25,-1905.25 263.25,-1976.25 809.25,-1976.25 809.25,-1905.25 263.25,-1905.25"/>
</g>
</g>
</svg>
