<?xml version="1.0" encoding="UTF-8" standalone="no"?>
<!DOCTYPE svg PUBLIC "-//W3C//DTD SVG 1.1//EN"
 "http://www.w3.org/Graphics/SVG/1.1/DTD/svg11.dtd">
<!-- Generated by graphviz version 10.0.1 (20240210.2158)
 -->
<!-- Title: Automaton Pages: 1 -->
<svg width="814pt" height="88pt"
 viewBox="0.00 0.00 814.00 88.00" xmlns="http://www.w3.org/2000/svg" xmlns:xlink="http://www.w3.org/1999/xlink">
<g id="graph0" class="graph" transform="scale(1 1) rotate(0) translate(4 84)">
<title>Automaton</title>
<polygon fill="white" stroke="none" points="-4,4 -4,-84 810,-84 810,4 -4,4"/>
<!-- filename -->
<g id="node1" class="node">
<title>filename</title>
<polygon fill="none" stroke="black" points="0,-13.25 0,-66.75 184,-66.75 184,-13.25 0,-13.25"/>
<polygon fill="none" stroke="black" points="11,-41 11,-59.75 173,-59.75 173,-41 11,-41"/>
<text text-anchor="start" x="14" y="-48.25" font-family="Courier New" font-weight="bold" font-size="10.00">S00_HIDEFINDER::M_HIDELIST</text>
<polygon fill="none" stroke="black" points="11,-20.25 11,-39 173,-39 173,-20.25 11,-20.25"/>
<text text-anchor="start" x="47" y="-26.5" font-family="Courier New" font-size="10.00" fill="brown">start state = 0</text>
<polygon fill="none" stroke="black" points="8,-17.25 8,-62.75 176,-62.75 176,-17.25 8,-17.25"/>
</g>
<!-- 0 -->
<g id="node2" class="node">
<title>0</title>
<polyline fill="none" stroke="darkred" stroke-width="3" points="221.38,-28.25 236.62,-28.25"/>
<text text-anchor="start" x="224.88" y="-35.95" font-family="Courier New" font-weight="bold" font-size="14.00">0</text>
<path fill="none" stroke="darkred" stroke-width="3" d="M224.79,-23.25C224.79,-23.25 233.21,-23.25 233.21,-23.25 237.42,-23.25 241.62,-27.46 241.62,-31.67 241.62,-31.67 241.62,-48.33 241.62,-48.33 241.62,-52.54 237.42,-56.75 233.21,-56.75 233.21,-56.75 224.79,-56.75 224.79,-56.75 220.58,-56.75 216.38,-52.54 216.38,-48.33 216.38,-48.33 216.38,-31.67 216.38,-31.67 216.38,-27.46 220.58,-23.25 224.79,-23.25"/>
</g>
<!-- 0&#45;&gt;0 -->
<g id="edge1" class="edge">
<title>0&#45;&gt;0</title>
<path fill="none" stroke="black" d="M255.79,-48.33C265.78,-48.6 274,-45.82 274,-40 274,-36.63 271.25,-34.29 267.01,-32.96"/>
<polygon fill="black" stroke="black" points="267.63,-29.51 257.3,-31.85 266.84,-36.46 267.63,-29.51"/>
<polygon fill="none" stroke="black" points="277,-41 277,-59.75 445,-59.75 445,-41 277,-41"/>
<text text-anchor="start" x="337" y="-48.25" font-family="Courier New" font-weight="bold" font-size="10.00" fill="orange">CLICK(,)</text>
<polygon fill="none" stroke="black" points="277,-20.25 277,-39 445,-39 445,-20.25 277,-20.25"/>
<text text-anchor="start" x="280" y="-26.5" font-family="Courier New" font-size="10.00" fill="blue"> &#160;&#160;&#160;SIGNAL(WIP1,SIG_CHECK);</text>
<polygon fill="none" stroke="black" points="274,-17.25 274,-62.75 448,-62.75 448,-17.25 274,-17.25"/>
</g>
<!-- status -->
<g id="node3" class="node">
<title>status</title>
<polygon fill="none" stroke="black" points="466,-0.5 466,-79.5 806,-79.5 806,-0.5 466,-0.5"/>
<polygon fill="none" stroke="black" points="477,-53.75 477,-72.5 795,-72.5 795,-53.75 477,-53.75"/>
<text text-anchor="start" x="594" y="-61" font-family="Courier New" font-weight="bold" font-size="10.00">S00_HIDEFINDER</text>
<polygon fill="none" stroke="black" points="477,-7.5 477,-51.75 795,-51.75 795,-7.5 477,-7.5"/>
<text text-anchor="start" x="480" y="-39.25" font-family="Courier New" font-size="10.00" fill="green">VIEW::IDV_SCN10PT1 @pos(left:268, top:128)</text>
<text text-anchor="start" x="480" y="-26.5" font-family="Courier New" font-size="10.00" fill="green">S00_HIDEFINDER::M_HIDELIST(&#39;S00_HIDECHECK&#39;,&#39;&#39;,&#39;&#39;,&#39;&#39;)</text>
<text text-anchor="start" x="480" y="-13.75" font-family="Courier New" font-size="10.00" fill="green">{state:&#39;0&#39;:</text>
<polygon fill="none" stroke="black" points="474,-4.5 474,-75.5 798,-75.5 798,-4.5 474,-4.5"/>
</g>
</g>
</svg>
