<?xml version="1.0" encoding="UTF-8" standalone="no"?>
<!DOCTYPE svg PUBLIC "-//W3C//DTD SVG 1.1//EN"
 "http://www.w3.org/Graphics/SVG/1.1/DTD/svg11.dtd">
<!-- Generated by graphviz version 8.0.1 (20230327.1645)
 -->
<!-- Title: Automaton Pages: 1 -->
<svg width="872pt" height="634pt"
 viewBox="0.00 0.00 871.67 634.00" xmlns="http://www.w3.org/2000/svg" xmlns:xlink="http://www.w3.org/1999/xlink">
<g id="graph0" class="graph" transform="scale(1 1) rotate(0) translate(4 630)">
<title>Automaton</title>
<polygon fill="white" stroke="none" points="-4,4 -4,-630 867.67,-630 867.67,4 -4,4"/>
<!-- filename -->
<g id="node1" class="node">
<title>filename</title>
<polygon fill="none" stroke="black" points="120.67,-564.5 120.67,-614.5 341.67,-614.5 341.67,-564.5 120.67,-564.5"/>
<polygon fill="none" stroke="black" points="131.67,-590.5 131.67,-607.5 330.67,-607.5 330.67,-590.5 131.67,-590.5"/>
<text text-anchor="start" x="134.67" y="-597.5" font-family="Courier New" font-weight="bold" font-size="10.00">S03_SPEAKERSTANDc::M_ORIESPEAKER</text>
<polygon fill="none" stroke="black" points="131.67,-571.5 131.67,-588.5 330.67,-588.5 330.67,-571.5 131.67,-571.5"/>
<text text-anchor="start" x="185.67" y="-577.5" font-family="Courier New" font-size="10.00" fill="brown">start state = 0</text>
<polygon fill="none" stroke="black" points="128.67,-568.5 128.67,-610.5 333.67,-610.5 333.67,-568.5 128.67,-568.5"/>
</g>
<!-- 0 -->
<g id="node2" class="node">
<title>0</title>
<polyline fill="none" stroke="darkred" points="379.67,-579 394.67,-579"/>
<text text-anchor="start" x="382.67" y="-586.8" font-family="Courier New" font-weight="bold" font-size="14.00">0</text>
<path fill="none" stroke="darkred" d="M383.67,-576C383.67,-576 390.67,-576 390.67,-576 394.17,-576 397.67,-579.5 397.67,-583 397.67,-583 397.67,-596 397.67,-596 397.67,-599.5 394.17,-603 390.67,-603 390.67,-603 383.67,-603 383.67,-603 380.17,-603 376.67,-599.5 376.67,-596 376.67,-596 376.67,-583 376.67,-583 376.67,-579.5 380.17,-576 383.67,-576"/>
</g>
<!-- 1 -->
<g id="node3" class="node">
<title>1</title>
<polyline fill="none" stroke="darkred" points="379.67,-469.5 394.67,-469.5"/>
<text text-anchor="start" x="382.67" y="-477.3" font-family="Courier New" font-weight="bold" font-size="14.00">1</text>
<path fill="none" stroke="darkred" d="M383.67,-466.5C383.67,-466.5 390.67,-466.5 390.67,-466.5 394.17,-466.5 397.67,-470 397.67,-473.5 397.67,-473.5 397.67,-486.5 397.67,-486.5 397.67,-490 394.17,-493.5 390.67,-493.5 390.67,-493.5 383.67,-493.5 383.67,-493.5 380.17,-493.5 376.67,-490 376.67,-486.5 376.67,-486.5 376.67,-473.5 376.67,-473.5 376.67,-470 380.17,-466.5 383.67,-466.5"/>
</g>
<!-- 0&#45;&gt;1 -->
<g id="edge1" class="edge">
<title>0&#45;&gt;1</title>
<path fill="none" stroke="black" d="M387.17,-571.7C387.17,-554.82 387.17,-528.51 387.17,-508.57"/>
<polygon fill="black" stroke="black" points="390.67,-508.68 387.17,-498.68 383.67,-508.68 390.67,-508.68"/>
<text text-anchor="start" x="391.17" y="-524" font-family="Courier New" font-weight="bold" font-size="10.00" fill="blue">O_ACCEPT(0,IDD_SPEAKER)</text>
</g>
<!-- 2 -->
<g id="node4" class="node">
<title>2</title>
<polyline fill="none" stroke="darkred" points="264.67,-378.5 279.67,-378.5"/>
<text text-anchor="start" x="267.67" y="-386.3" font-family="Courier New" font-weight="bold" font-size="14.00">2</text>
<path fill="none" stroke="darkred" d="M268.67,-375.5C268.67,-375.5 275.67,-375.5 275.67,-375.5 279.17,-375.5 282.67,-379 282.67,-382.5 282.67,-382.5 282.67,-395.5 282.67,-395.5 282.67,-399 279.17,-402.5 275.67,-402.5 275.67,-402.5 268.67,-402.5 268.67,-402.5 265.17,-402.5 261.67,-399 261.67,-395.5 261.67,-395.5 261.67,-382.5 261.67,-382.5 261.67,-379 265.17,-375.5 268.67,-375.5"/>
</g>
<!-- 1&#45;&gt;2 -->
<g id="edge2" class="edge">
<title>1&#45;&gt;2</title>
<path fill="none" stroke="black" d="M365.27,-462.05C347.53,-448.32 322.33,-428.81 302.62,-413.56"/>
<polygon fill="black" stroke="black" points="305.05,-410.24 294.99,-406.89 300.76,-415.77 305.05,-410.24"/>
<text text-anchor="start" x="343.17" y="-433" font-family="Courier New" font-weight="bold" font-size="10.00" fill="orange">DROP(0,0)</text>
</g>
<!-- 3 -->
<g id="node5" class="node">
<title>3</title>
<polyline fill="none" stroke="darkred" points="255.67,-287.5 270.67,-287.5"/>
<text text-anchor="start" x="258.67" y="-295.3" font-family="Courier New" font-weight="bold" font-size="14.00">3</text>
<path fill="none" stroke="darkred" d="M259.67,-284.5C259.67,-284.5 266.67,-284.5 266.67,-284.5 270.17,-284.5 273.67,-288 273.67,-291.5 273.67,-291.5 273.67,-304.5 273.67,-304.5 273.67,-308 270.17,-311.5 266.67,-311.5 266.67,-311.5 259.67,-311.5 259.67,-311.5 256.17,-311.5 252.67,-308 252.67,-304.5 252.67,-304.5 252.67,-291.5 252.67,-291.5 252.67,-288 256.17,-284.5 259.67,-284.5"/>
</g>
<!-- 2&#45;&gt;3 -->
<g id="edge3" class="edge">
<title>2&#45;&gt;3</title>
<path fill="none" stroke="black" d="M245.61,-388.74C184.23,-389.82 35.44,-388.62 4.17,-353 -1.4,-346.65 -1.38,-340.36 4.17,-334 32.48,-301.61 160.95,-298 225.67,-298.31"/>
<polygon fill="black" stroke="black" points="225.57,-301.81 235.6,-298.4 225.63,-294.81 225.57,-301.81"/>
<text text-anchor="start" x="8.17" y="-342" font-family="Courier New" font-weight="bold" font-size="10.00" fill="blue">ASSIGN(WOBJECT,IDD_SPEAKER)</text>
</g>
<!-- 2&#45;&gt;3 -->
<g id="edge4" class="edge">
<title>2&#45;&gt;3</title>
<path fill="none" stroke="black" d="M245.46,-382.9C228.75,-378.19 208.52,-369.33 198.17,-353 187.52,-336.17 206.45,-322 226.58,-312.41"/>
<polygon fill="black" stroke="black" points="227.69,-315.3 235.44,-308.07 224.88,-308.89 227.69,-315.3"/>
<text text-anchor="start" x="202.17" y="-342" font-family="Courier New" font-weight="bold" font-size="10.00" fill="blue">ASSIGN(WOBJECT,IDD_SPEAKER)</text>
</g>
<!-- 2&#45;&gt;3 -->
<g id="edge5" class="edge">
<title>2&#45;&gt;3</title>
<path fill="none" stroke="black" d="M299,-383.82C334.22,-377.14 389.33,-361.88 369.17,-334 353.69,-312.58 324.61,-304.05 300.83,-300.75"/>
<polygon fill="black" stroke="black" points="301.32,-297.18 291,-299.55 300.55,-304.13 301.32,-297.18"/>
<text text-anchor="start" x="377.17" y="-342" font-family="Courier New" font-weight="bold" font-size="10.00" fill="blue">ASSIGN(WOBJECT,IDD_SPEAKER)</text>
</g>
<!-- 4 -->
<g id="node6" class="node">
<title>4</title>
<polyline fill="none" stroke="darkred" points="454.67,-196.5 469.67,-196.5"/>
<text text-anchor="start" x="457.67" y="-204.3" font-family="Courier New" font-weight="bold" font-size="14.00">4</text>
<path fill="none" stroke="darkred" d="M458.67,-193.5C458.67,-193.5 465.67,-193.5 465.67,-193.5 469.17,-193.5 472.67,-197 472.67,-200.5 472.67,-200.5 472.67,-213.5 472.67,-213.5 472.67,-217 469.17,-220.5 465.67,-220.5 465.67,-220.5 458.67,-220.5 458.67,-220.5 455.17,-220.5 451.67,-217 451.67,-213.5 451.67,-213.5 451.67,-200.5 451.67,-200.5 451.67,-197 455.17,-193.5 458.67,-193.5"/>
</g>
<!-- 3&#45;&gt;4 -->
<g id="edge6" class="edge">
<title>3&#45;&gt;4</title>
<path fill="none" stroke="black" d="M290.01,-285C324.98,-269.36 386.26,-241.95 425.49,-224.41"/>
<polygon fill="black" stroke="black" points="426.75,-227.23 434.44,-219.95 423.89,-220.84 426.75,-227.23"/>
<text text-anchor="start" x="384.17" y="-251" font-family="Courier New" font-weight="bold" font-size="10.00" fill="blue">SHOW(WOBJECT,)</text>
</g>
<!-- 5 -->
<g id="node7" class="node">
<title>5</title>
<polyline fill="none" stroke="darkred" stroke-width="3" points="464.17,-101.5 480.17,-101.5"/>
<text text-anchor="start" x="467.67" y="-109.8" font-family="Courier New" font-weight="bold" font-size="14.00">5</text>
<path fill="none" stroke="darkred" stroke-width="3" d="M467.84,-96.5C467.84,-96.5 476.51,-96.5 476.51,-96.5 480.84,-96.5 485.17,-100.83 485.17,-105.17 485.17,-105.17 485.17,-119.83 485.17,-119.83 485.17,-124.17 480.84,-128.5 476.51,-128.5 476.51,-128.5 467.84,-128.5 467.84,-128.5 463.51,-128.5 459.17,-124.17 459.17,-119.83 459.17,-119.83 459.17,-105.17 459.17,-105.17 459.17,-100.83 463.51,-96.5 467.84,-96.5"/>
</g>
<!-- 4&#45;&gt;5 -->
<g id="edge7" class="edge">
<title>4&#45;&gt;5</title>
<path fill="none" stroke="black" d="M462.07,-189.4C462.18,-178.69 462.66,-164.48 464.17,-152 464.47,-149.58 464.84,-147.08 465.25,-144.58"/>
<polygon fill="black" stroke="black" points="468.88,-145.25 467.3,-134.77 462,-143.95 468.88,-145.25"/>
<text text-anchor="start" x="468.17" y="-160" font-family="Courier New" font-weight="bold" font-size="10.00" fill="blue">PLAYWAVE(WIP3,)</text>
</g>
<!-- 6 -->
<g id="node8" class="node">
<title>6</title>
<polyline fill="none" stroke="darkred" points="521.67,-7.5 536.67,-7.5"/>
<text text-anchor="start" x="524.67" y="-15.3" font-family="Courier New" font-weight="bold" font-size="14.00">6</text>
<path fill="none" stroke="darkred" d="M525.67,-4.5C525.67,-4.5 532.67,-4.5 532.67,-4.5 536.17,-4.5 539.67,-8 539.67,-11.5 539.67,-11.5 539.67,-24.5 539.67,-24.5 539.67,-28 536.17,-31.5 532.67,-31.5 532.67,-31.5 525.67,-31.5 525.67,-31.5 522.17,-31.5 518.67,-28 518.67,-24.5 518.67,-24.5 518.67,-11.5 518.67,-11.5 518.67,-8 522.17,-4.5 525.67,-4.5"/>
</g>
<!-- 5&#45;&gt;6 -->
<g id="edge8" class="edge">
<title>5&#45;&gt;6</title>
<path fill="none" stroke="black" d="M480.64,-91.17C485.69,-79.87 492.6,-65.76 500.17,-54 502.25,-50.79 504.57,-47.53 506.99,-44.37"/>
<polygon fill="black" stroke="black" points="510.32,-46.81 513.86,-36.82 504.87,-42.42 510.32,-46.81"/>
<text text-anchor="start" x="504.17" y="-62" font-family="Courier New" font-weight="bold" font-size="10.00" fill="orange">GRAB(0,0)</text>
</g>
<!-- 6&#45;&gt;1 -->
<g id="edge9" class="edge">
<title>6&#45;&gt;1</title>
<path fill="none" stroke="black" d="M548.87,-35.65C554.19,-41.02 559.49,-47.33 563.17,-54 575.9,-77.02 577.17,-85.2 577.17,-111.5 577.17,-390 577.17,-390 577.17,-390 577.17,-456.62 480.19,-473.48 424.8,-477.67"/>
<polygon fill="black" stroke="black" points="424.75,-474.23 414.99,-478.37 425.2,-481.22 424.75,-474.23"/>
<text text-anchor="start" x="581.17" y="-251" font-family="Courier New" font-weight="bold" font-size="10.00" fill="blue">SHOW(0,0)</text>
</g>
<!-- status -->
<g id="node9" class="node">
<title>status</title>
<polygon fill="none" stroke="black" points="432.67,-553.5 432.67,-625.5 863.67,-625.5 863.67,-553.5 432.67,-553.5"/>
<polygon fill="none" stroke="black" points="443.67,-601.5 443.67,-618.5 852.67,-618.5 852.67,-601.5 443.67,-601.5"/>
<text text-anchor="start" x="596.67" y="-608.5" font-family="Courier New" font-weight="bold" font-size="10.00">S03_SPEAKERSTANDc</text>
<polygon fill="none" stroke="black" points="443.67,-560.5 443.67,-599.5 852.67,-599.5 852.67,-560.5 443.67,-560.5"/>
<text text-anchor="start" x="446.67" y="-588.5" font-family="Courier New" font-size="10.00" fill="green">VIEW::IDV_ORIE @pos(left:1881, top:170)</text>
<text text-anchor="start" x="446.67" y="-577.5" font-family="Courier New" font-size="10.00" fill="green">S03_SPEAKERSTANDc::M_ORIESPEAKER(&#39;&#39;,&#39;&#39;,&#39;SOUND_ORIE3&#39;,&#39;&#39;)</text>
<text text-anchor="start" x="446.67" y="-566.5" font-family="Courier New" font-size="10.00" fill="green">{state:&#39;5&#39;: wObject:IDD_SPEAKER wSprite:SPEAKER wAccept:IDD_SPEAKER</text>
<polygon fill="none" stroke="black" points="440.67,-557.5 440.67,-621.5 855.67,-621.5 855.67,-557.5 440.67,-557.5"/>
</g>
</g>
</svg>
