<?xml version="1.0" encoding="UTF-8" standalone="no"?>
<!DOCTYPE svg PUBLIC "-//W3C//DTD SVG 1.1//EN"
 "http://www.w3.org/Graphics/SVG/1.1/DTD/svg11.dtd">
<!-- Generated by graphviz version 8.0.1 (20230327.1645)
 -->
<!-- Title: Automaton Pages: 1 -->
<svg width="1112pt" height="323pt"
 viewBox="0.00 0.00 1111.54 323.00" xmlns="http://www.w3.org/2000/svg" xmlns:xlink="http://www.w3.org/1999/xlink">
<g id="graph0" class="graph" transform="scale(1 1) rotate(0) translate(4 319)">
<title>Automaton</title>
<polygon fill="white" stroke="none" points="-4,4 -4,-319 1107.54,-319 1107.54,4 -4,4"/>
<!-- filename -->
<g id="node1" class="node">
<title>filename</title>
<polygon fill="none" stroke="black" points="126.04,-249.5 126.04,-299.5 359.04,-299.5 359.04,-249.5 126.04,-249.5"/>
<polygon fill="none" stroke="black" points="137.04,-275.5 137.04,-292.5 348.04,-292.5 348.04,-275.5 137.04,-275.5"/>
<text text-anchor="start" x="140.04" y="-282.5" font-family="Courier New" font-weight="bold" font-size="10.00">S06_CYCLE_COMP3_2::M06_CYCLE_COMP3</text>
<polygon fill="none" stroke="black" points="137.04,-256.5 137.04,-273.5 348.04,-273.5 348.04,-256.5 137.04,-256.5"/>
<text text-anchor="start" x="197.04" y="-262.5" font-family="Courier New" font-size="10.00" fill="brown">start state = 0</text>
<polygon fill="none" stroke="black" points="134.04,-253.5 134.04,-295.5 351.04,-295.5 351.04,-253.5 134.04,-253.5"/>
</g>
<!-- 0 -->
<g id="node2" class="node">
<title>0</title>
<polyline fill="none" stroke="darkred" stroke-width="3" points="396.54,-263.5 412.54,-263.5"/>
<text text-anchor="start" x="400.04" y="-271.8" font-family="Courier New" font-weight="bold" font-size="14.00">0</text>
<path fill="none" stroke="darkred" stroke-width="3" d="M400.2,-258.5C400.2,-258.5 408.87,-258.5 408.87,-258.5 413.2,-258.5 417.54,-262.83 417.54,-267.17 417.54,-267.17 417.54,-281.83 417.54,-281.83 417.54,-286.17 413.2,-290.5 408.87,-290.5 408.87,-290.5 400.2,-290.5 400.2,-290.5 395.87,-290.5 391.54,-286.17 391.54,-281.83 391.54,-281.83 391.54,-267.17 391.54,-267.17 391.54,-262.83 395.87,-258.5 400.2,-258.5"/>
</g>
<!-- 10 -->
<g id="node3" class="node">
<title>10</title>
<polyline fill="none" stroke="darkred" points="366.04,-124.5 389.04,-124.5"/>
<text text-anchor="start" x="369.04" y="-132.3" font-family="Courier New" font-weight="bold" font-size="14.00">10</text>
<path fill="none" stroke="darkred" d="M372.04,-121.5C372.04,-121.5 383.04,-121.5 383.04,-121.5 387.54,-121.5 392.04,-126 392.04,-130.5 392.04,-130.5 392.04,-139.5 392.04,-139.5 392.04,-144 387.54,-148.5 383.04,-148.5 383.04,-148.5 372.04,-148.5 372.04,-148.5 367.54,-148.5 363.04,-144 363.04,-139.5 363.04,-139.5 363.04,-130.5 363.04,-130.5 363.04,-126 367.54,-121.5 372.04,-121.5"/>
</g>
<!-- 0&#45;&gt;10 -->
<g id="edge1" class="edge">
<title>0&#45;&gt;10</title>
<path fill="none" stroke="black" d="M390.62,-253.02C384.47,-245.68 376.57,-238.19 367.54,-234 331.4,-217.25 36.98,-244.86 9.54,-216 -3.33,-202.47 -2.97,-187.86 9.54,-174 31.4,-149.76 250.63,-140.05 339.96,-137.09"/>
<polygon fill="black" stroke="black" points="339.8,-140.56 349.68,-136.74 339.57,-133.56 339.8,-140.56"/>
<polygon fill="none" stroke="black" points="12.54,-196 12.54,-213 247.54,-213 247.54,-196 12.54,-196"/>
<text text-anchor="start" x="84.54" y="-203" font-family="Courier New" font-weight="bold" font-size="10.00" fill="orange">WAIT(,SIG_INC1)</text>
<polygon fill="none" stroke="black" points="12.54,-177 12.54,-194 247.54,-194 247.54,-177 12.54,-177"/>
<text text-anchor="start" x="15.54" y="-183" font-family="Courier New" font-size="10.00" fill="blue">REF_MACHINE(WIP1);MOV(BFRAME,R_WPARM);</text>
<polygon fill="none" stroke="black" points="9.54,-174 9.54,-216 250.54,-216 250.54,-174 9.54,-174"/>
</g>
<!-- 0&#45;&gt;10 -->
<g id="edge2" class="edge">
<title>0&#45;&gt;10</title>
<path fill="none" stroke="black" d="M389.94,-253.25C383.81,-246.12 376.09,-238.72 367.54,-234 330.28,-213.47 300.64,-248.78 273.54,-216 261.64,-201.61 262.84,-189.3 273.54,-174 288.47,-152.65 316.74,-143.25 340.04,-139.14"/>
<polygon fill="black" stroke="black" points="340.29,-142.49 349.66,-137.56 339.26,-135.57 340.29,-142.49"/>
<polygon fill="none" stroke="black" points="276.54,-196 276.54,-213 511.54,-213 511.54,-196 276.54,-196"/>
<text text-anchor="start" x="348.54" y="-203" font-family="Courier New" font-weight="bold" font-size="10.00" fill="orange">WAIT(,SIG_DEC1)</text>
<polygon fill="none" stroke="black" points="276.54,-177 276.54,-194 511.54,-194 511.54,-177 276.54,-177"/>
<text text-anchor="start" x="279.54" y="-183" font-family="Courier New" font-size="10.00" fill="blue">REF_MACHINE(WIP1);MOV(BFRAME,R_WPARM);</text>
<polygon fill="none" stroke="black" points="273.54,-174 273.54,-216 514.54,-216 514.54,-174 273.54,-174"/>
</g>
<!-- 0&#45;&gt;10 -->
<g id="edge3" class="edge">
<title>0&#45;&gt;10</title>
<path fill="none" stroke="black" d="M419.62,-253.07C425.71,-246.1 433.27,-238.84 441.54,-234 470.37,-217.11 493.93,-242.31 514.54,-216 526.05,-201.31 525.83,-188.86 514.54,-174 502.49,-158.15 451.22,-147.19 414.95,-141.25"/>
<polygon fill="black" stroke="black" points="415.66,-137.66 405.24,-139.56 414.57,-144.57 415.66,-137.66"/>
<polygon fill="none" stroke="black" points="525.54,-196 525.54,-213 862.54,-213 862.54,-196 525.54,-196"/>
<text text-anchor="start" x="648.54" y="-203" font-family="Courier New" font-weight="bold" font-size="10.00" fill="orange">WAIT(,SIG_SHOW)</text>
<polygon fill="none" stroke="black" points="525.54,-177 525.54,-194 862.54,-194 862.54,-177 525.54,-177"/>
<text text-anchor="start" x="528.54" y="-183" font-family="Courier New" font-size="10.00" fill="blue">ASSIGN(BFRAME,6);REF_MACHINE(WIP1);MOV(BFRAME,R_WPARM);</text>
<polygon fill="none" stroke="black" points="522.54,-174 522.54,-216 865.54,-216 865.54,-174 522.54,-174"/>
</g>
<!-- 11 -->
<g id="node4" class="node">
<title>11</title>
<polyline fill="none" stroke="darkred" points="572.04,-7.5 595.04,-7.5"/>
<text text-anchor="start" x="575.04" y="-15.3" font-family="Courier New" font-weight="bold" font-size="14.00">11</text>
<path fill="none" stroke="darkred" d="M578.04,-4.5C578.04,-4.5 589.04,-4.5 589.04,-4.5 593.54,-4.5 598.04,-9 598.04,-13.5 598.04,-13.5 598.04,-22.5 598.04,-22.5 598.04,-27 593.54,-31.5 589.04,-31.5 589.04,-31.5 578.04,-31.5 578.04,-31.5 573.54,-31.5 569.04,-27 569.04,-22.5 569.04,-22.5 569.04,-13.5 569.04,-13.5 569.04,-9 573.54,-4.5 578.04,-4.5"/>
</g>
<!-- 10&#45;&gt;11 -->
<g id="edge4" class="edge">
<title>10&#45;&gt;11</title>
<path fill="none" stroke="black" d="M404.47,-118.97C440.94,-98.6 506.16,-62.19 547.02,-39.39"/>
<polygon fill="black" stroke="black" points="548.57,-41.97 555.6,-34.04 545.16,-35.86 548.57,-41.97"/>
<polygon fill="none" stroke="black" points="519.54,-76 519.54,-93 700.54,-93 700.54,-76 519.54,-76"/>
<text text-anchor="start" x="555.54" y="-83" font-family="Courier New" font-weight="bold" font-size="10.00" fill="blue">MOV(WTEMP1,BFRAME)</text>
<polygon fill="none" stroke="black" points="519.54,-57 519.54,-74 700.54,-74 700.54,-57 519.54,-57"/>
<text text-anchor="start" x="522.54" y="-63" font-family="Courier New" font-size="10.00" fill="blue"> MAPi(WTEMP1,S06_COMPONENTC);</text>
<polygon fill="none" stroke="black" points="516.54,-54 516.54,-96 703.54,-96 703.54,-54 516.54,-54"/>
</g>
<!-- 11&#45;&gt;0 -->
<g id="edge5" class="edge">
<title>11&#45;&gt;0</title>
<path fill="none" stroke="black" d="M610.4,-25.42C697.16,-47.25 959.15,-122.54 869.54,-216 836.59,-250.36 484.8,-214.16 441.54,-234 435.63,-236.71 430.21,-240.84 425.45,-245.43"/>
<polygon fill="black" stroke="black" points="423.3,-242.68 419.09,-252.4 428.44,-247.43 423.3,-242.68"/>
<polygon fill="none" stroke="black" points="883.54,-136 883.54,-153 1100.54,-153 1100.54,-136 883.54,-136"/>
<text text-anchor="start" x="937.54" y="-143" font-family="Courier New" font-weight="bold" font-size="10.00" fill="blue">MOV(BFRAME,WTEMP1)</text>
<polygon fill="none" stroke="black" points="883.54,-117 883.54,-134 1100.54,-134 1100.54,-117 883.54,-117"/>
<text text-anchor="start" x="886.54" y="-123" font-family="Courier New" font-size="10.00" fill="blue">SUBI(BFRAME,1);SHOW(0,IDS_VIALCNT);</text>
<polygon fill="none" stroke="black" points="880.54,-114 880.54,-156 1103.54,-156 1103.54,-114 880.54,-114"/>
</g>
<!-- status -->
<g id="node5" class="node">
<title>status</title>
<polygon fill="none" stroke="black" points="450.04,-234.5 450.04,-314.5 869.04,-314.5 869.04,-234.5 450.04,-234.5"/>
<polygon fill="none" stroke="black" points="461.04,-290.5 461.04,-307.5 858.04,-307.5 858.04,-290.5 461.04,-290.5"/>
<text text-anchor="start" x="608.04" y="-297.5" font-family="Courier New" font-weight="bold" font-size="10.00">S06_CYCLE_COMP3_2</text>
<polygon fill="none" stroke="black" points="461.04,-260.5 461.04,-288.5 858.04,-288.5 858.04,-260.5 461.04,-260.5"/>
<text text-anchor="start" x="464.04" y="-277.5" font-family="Courier New" font-size="10.00" fill="green">S06_CYCLE_COMP3_2::M06_CYCLE_COMP3(&#39;S06_CYCLE_VIEWER_2&#39;,&#39;&#39;,&#39;&#39;,&#39;&#39;)</text>
<text text-anchor="start" x="464.04" y="-266.5" font-family="Courier New" font-size="10.00" fill="green">{&#39;0&#39;: wSprite:VIALCNT bFrame:1}</text>
<polygon fill="none" stroke="black" points="461.04,-241.5 461.04,-258.5 858.04,-258.5 858.04,-241.5 461.04,-241.5"/>
<text text-anchor="start" x="656.04" y="-247.5" font-family="Courier New" font-size="10.00" fill="blue">_</text>
<polygon fill="none" stroke="black" points="458.04,-238.5 458.04,-310.5 861.04,-310.5 861.04,-238.5 458.04,-238.5"/>
</g>
</g>
</svg>
