<?xml version="1.0" encoding="UTF-8" standalone="no"?>
<!DOCTYPE svg PUBLIC "-//W3C//DTD SVG 1.1//EN"
 "http://www.w3.org/Graphics/SVG/1.1/DTD/svg11.dtd">
<!-- Generated by graphviz version 8.0.1 (20230327.1645)
 -->
<!-- Title: Automaton Pages: 1 -->
<svg width="1141pt" height="203pt"
 viewBox="0.00 0.00 1140.63 203.00" xmlns="http://www.w3.org/2000/svg" xmlns:xlink="http://www.w3.org/1999/xlink">
<g id="graph0" class="graph" transform="scale(1 1) rotate(0) translate(4 199)">
<title>Automaton</title>
<polygon fill="white" stroke="none" points="-4,4 -4,-199 1136.63,-199 1136.63,4 -4,4"/>
<!-- filename -->
<g id="node1" class="node">
<title>filename</title>
<polygon fill="none" stroke="black" points="162.13,-129.5 162.13,-179.5 455.13,-179.5 455.13,-129.5 162.13,-129.5"/>
<polygon fill="none" stroke="black" points="173.13,-155.5 173.13,-172.5 444.13,-172.5 444.13,-155.5 173.13,-155.5"/>
<text text-anchor="start" x="176.13" y="-162.5" font-family="Courier New" font-weight="bold" font-size="10.00">S06_CYCLE_TEMPL_ANIM_2::M06_CYCLE_TEMPL_ANIM</text>
<polygon fill="none" stroke="black" points="173.13,-136.5 173.13,-153.5 444.13,-153.5 444.13,-136.5 173.13,-136.5"/>
<text text-anchor="start" x="263.13" y="-142.5" font-family="Courier New" font-size="10.00" fill="brown">start state = 0</text>
<polygon fill="none" stroke="black" points="170.13,-133.5 170.13,-175.5 447.13,-175.5 447.13,-133.5 170.13,-133.5"/>
</g>
<!-- 0 -->
<g id="node2" class="node">
<title>0</title>
<polyline fill="none" stroke="darkred" stroke-width="3" points="492.63,-143.5 508.63,-143.5"/>
<text text-anchor="start" x="496.13" y="-151.8" font-family="Courier New" font-weight="bold" font-size="14.00">0</text>
<path fill="none" stroke="darkred" stroke-width="3" d="M496.3,-138.5C496.3,-138.5 504.97,-138.5 504.97,-138.5 509.3,-138.5 513.63,-142.83 513.63,-147.17 513.63,-147.17 513.63,-161.83 513.63,-161.83 513.63,-166.17 509.3,-170.5 504.97,-170.5 504.97,-170.5 496.3,-170.5 496.3,-170.5 491.97,-170.5 487.63,-166.17 487.63,-161.83 487.63,-161.83 487.63,-147.17 487.63,-147.17 487.63,-142.83 491.97,-138.5 496.3,-138.5"/>
</g>
<!-- 1 -->
<g id="node3" class="node">
<title>1</title>
<polyline fill="none" stroke="darkred" points="493.13,-7.5 508.13,-7.5"/>
<text text-anchor="start" x="496.13" y="-15.3" font-family="Courier New" font-weight="bold" font-size="14.00">1</text>
<path fill="none" stroke="darkred" d="M497.13,-4.5C497.13,-4.5 504.13,-4.5 504.13,-4.5 507.63,-4.5 511.13,-8 511.13,-11.5 511.13,-11.5 511.13,-24.5 511.13,-24.5 511.13,-28 507.63,-31.5 504.13,-31.5 504.13,-31.5 497.13,-31.5 497.13,-31.5 493.63,-31.5 490.13,-28 490.13,-24.5 490.13,-24.5 490.13,-11.5 490.13,-11.5 490.13,-8 493.63,-4.5 497.13,-4.5"/>
</g>
<!-- 0&#45;&gt;1 -->
<g id="edge1" class="edge">
<title>0&#45;&gt;1</title>
<path fill="none" stroke="black" d="M487.09,-133.39C480.89,-125.91 472.86,-118.22 463.63,-114 417.72,-93.01 44.62,-132.4 9.63,-96 -3.3,-82.54 -3.09,-67.66 9.63,-54 40.33,-21.04 353.37,-18.63 462.98,-18.81"/>
<polygon fill="black" stroke="black" points="462.82,-22.31 472.83,-18.83 462.84,-15.31 462.82,-22.31"/>
<polygon fill="none" stroke="black" points="12.63,-76 12.63,-93 475.63,-93 475.63,-76 12.63,-76"/>
<text text-anchor="start" x="198.63" y="-83" font-family="Courier New" font-weight="bold" font-size="10.00" fill="orange">WAIT(,SIG_INC1)</text>
<polygon fill="none" stroke="black" points="12.63,-57 12.63,-74 475.63,-74 475.63,-57 12.63,-57"/>
<text text-anchor="start" x="15.63" y="-63" font-family="Courier New" font-size="10.00" fill="blue">SHOW(0,IDS_MACHANI);ANIMATE();PLAYWAVE(SOUND_RATCHET);SIGNAL(WIP1,SIG_INC1);</text>
<polygon fill="none" stroke="black" points="9.63,-54 9.63,-96 478.63,-96 478.63,-54 9.63,-54"/>
</g>
<!-- 0&#45;&gt;1 -->
<g id="edge2" class="edge">
<title>0&#45;&gt;1</title>
<path fill="none" stroke="black" d="M500.63,-133.07C500.63,-110 500.63,-72.34 500.63,-46.65"/>
<polygon fill="black" stroke="black" points="504.13,-46.79 500.63,-36.79 497.13,-46.79 504.13,-46.79"/>
<polygon fill="none" stroke="black" points="503.63,-76 503.63,-93 1038.63,-93 1038.63,-76 503.63,-76"/>
<text text-anchor="start" x="725.63" y="-83" font-family="Courier New" font-weight="bold" font-size="10.00" fill="orange">WAIT(,SIG_DEC1)</text>
<polygon fill="none" stroke="black" points="503.63,-57 503.63,-74 1038.63,-74 1038.63,-57 503.63,-57"/>
<text text-anchor="start" x="506.63" y="-63" font-family="Courier New" font-size="10.00" fill="blue">SHOW(0,IDS_MACHANI);ANIMATE(0,V_REVERSE);PLAYWAVE(SOUND_RATCHET); SIGNAL(WIP1,SIG_DEC1);</text>
<polygon fill="none" stroke="black" points="500.63,-54 500.63,-96 1041.63,-96 1041.63,-54 500.63,-54"/>
</g>
<!-- 1&#45;&gt;0 -->
<g id="edge3" class="edge">
<title>1&#45;&gt;0</title>
<path fill="none" stroke="black" d="M527.31,-18.64C631.53,-17.51 1007.12,-16.12 1042.63,-54 1055.4,-67.62 1055.6,-82.57 1042.63,-96 1003.65,-136.4 588.74,-90.76 537.63,-114 531.72,-116.69 526.3,-120.81 521.53,-125.4"/>
<polygon fill="black" stroke="black" points="519.38,-122.65 515.17,-132.37 524.53,-127.4 519.38,-122.65"/>
<text text-anchor="start" x="1055.63" y="-73.5" font-family="Courier New" font-weight="bold" font-size="10.00" fill="blue">Z_EPSILON(,)</text>
</g>
<!-- status -->
<g id="node4" class="node">
<title>status</title>
<polygon fill="none" stroke="black" points="546.13,-114.5 546.13,-194.5 1025.13,-194.5 1025.13,-114.5 546.13,-114.5"/>
<polygon fill="none" stroke="black" points="557.13,-170.5 557.13,-187.5 1014.13,-187.5 1014.13,-170.5 557.13,-170.5"/>
<text text-anchor="start" x="719.13" y="-177.5" font-family="Courier New" font-weight="bold" font-size="10.00">S06_CYCLE_TEMPL_ANIM_2</text>
<polygon fill="none" stroke="black" points="557.13,-140.5 557.13,-168.5 1014.13,-168.5 1014.13,-140.5 557.13,-140.5"/>
<text text-anchor="start" x="560.13" y="-157.5" font-family="Courier New" font-size="10.00" fill="green">S06_CYCLE_TEMPL_ANIM_2::M06_CYCLE_TEMPL_ANIM(&#39;S06_CYCLE_VIEWER_2&#39;,&#39;&#39;,&#39;&#39;,&#39;&#39;)</text>
<text text-anchor="start" x="560.13" y="-146.5" font-family="Courier New" font-size="10.00" fill="green">{&#39;0&#39;: wSprite:MACHANI bFrame:10}</text>
<polygon fill="none" stroke="black" points="557.13,-121.5 557.13,-138.5 1014.13,-138.5 1014.13,-121.5 557.13,-121.5"/>
<text text-anchor="start" x="782.13" y="-127.5" font-family="Courier New" font-size="10.00" fill="blue">_</text>
<polygon fill="none" stroke="black" points="554.13,-118.5 554.13,-190.5 1017.13,-190.5 1017.13,-118.5 554.13,-118.5"/>
</g>
</g>
</svg>
