<?xml version="1.0" encoding="UTF-8" standalone="no"?>
<!DOCTYPE svg PUBLIC "-//W3C//DTD SVG 1.1//EN"
 "http://www.w3.org/Graphics/SVG/1.1/DTD/svg11.dtd">
<!-- Generated by graphviz version 8.0.1 (20230327.1645)
 -->
<!-- Title: Automaton Pages: 1 -->
<svg width="1057pt" height="431pt"
 viewBox="0.00 0.00 1057.50 431.00" xmlns="http://www.w3.org/2000/svg" xmlns:xlink="http://www.w3.org/1999/xlink">
<g id="graph0" class="graph" transform="scale(1 1) rotate(0) translate(4 427)">
<title>Automaton</title>
<polygon fill="white" stroke="none" points="-4,4 -4,-427 1053.5,-427 1053.5,4 -4,4"/>
<!-- filename -->
<g id="node1" class="node">
<title>filename</title>
<polygon fill="none" stroke="black" points="126,-357.5 126,-407.5 359,-407.5 359,-357.5 126,-357.5"/>
<polygon fill="none" stroke="black" points="137,-383.5 137,-400.5 348,-400.5 348,-383.5 137,-383.5"/>
<text text-anchor="start" x="140" y="-390.5" font-family="Courier New" font-weight="bold" font-size="10.00">S06_CYCLE_COMP2_2::M06_CYCLE_COMP2</text>
<polygon fill="none" stroke="black" points="137,-364.5 137,-381.5 348,-381.5 348,-364.5 137,-364.5"/>
<text text-anchor="start" x="197" y="-370.5" font-family="Courier New" font-size="10.00" fill="brown">start state = 0</text>
<polygon fill="none" stroke="black" points="134,-361.5 134,-403.5 351,-403.5 351,-361.5 134,-361.5"/>
</g>
<!-- 0 -->
<g id="node2" class="node">
<title>0</title>
<polyline fill="none" stroke="darkred" stroke-width="3" points="396.5,-371.5 412.5,-371.5"/>
<text text-anchor="start" x="400" y="-379.8" font-family="Courier New" font-weight="bold" font-size="14.00">0</text>
<path fill="none" stroke="darkred" stroke-width="3" d="M400.16,-366.5C400.16,-366.5 408.83,-366.5 408.83,-366.5 413.16,-366.5 417.5,-370.83 417.5,-375.17 417.5,-375.17 417.5,-389.83 417.5,-389.83 417.5,-394.17 413.16,-398.5 408.83,-398.5 408.83,-398.5 400.16,-398.5 400.16,-398.5 395.83,-398.5 391.5,-394.17 391.5,-389.83 391.5,-389.83 391.5,-375.17 391.5,-375.17 391.5,-370.83 395.83,-366.5 400.16,-366.5"/>
</g>
<!-- 10 -->
<g id="node3" class="node">
<title>10</title>
<polyline fill="none" stroke="darkred" points="286,-235.5 309,-235.5"/>
<text text-anchor="start" x="289" y="-243.3" font-family="Courier New" font-weight="bold" font-size="14.00">10</text>
<path fill="none" stroke="darkred" d="M292,-232.5C292,-232.5 303,-232.5 303,-232.5 307.5,-232.5 312,-237 312,-241.5 312,-241.5 312,-250.5 312,-250.5 312,-255 307.5,-259.5 303,-259.5 303,-259.5 292,-259.5 292,-259.5 287.5,-259.5 283,-255 283,-250.5 283,-250.5 283,-241.5 283,-241.5 283,-237 287.5,-232.5 292,-232.5"/>
</g>
<!-- 0&#45;&gt;10 -->
<g id="edge1" class="edge">
<title>0&#45;&gt;10</title>
<path fill="none" stroke="black" d="M391.06,-361.03C385.09,-353.69 377.39,-346.2 368.5,-342 332.38,-324.96 37.02,-352.94 9.5,-324 -3.37,-310.47 -2.88,-295.97 9.5,-282 25.84,-263.55 185.5,-252.86 259.81,-248.84"/>
<polygon fill="black" stroke="black" points="259.75,-252.3 269.55,-248.27 259.38,-245.31 259.75,-252.3"/>
<polygon fill="none" stroke="black" points="12.5,-304 12.5,-321 247.5,-321 247.5,-304 12.5,-304"/>
<text text-anchor="start" x="84.5" y="-311" font-family="Courier New" font-weight="bold" font-size="10.00" fill="orange">WAIT(,SIG_INC1)</text>
<polygon fill="none" stroke="black" points="12.5,-285 12.5,-302 247.5,-302 247.5,-285 12.5,-285"/>
<text text-anchor="start" x="15.5" y="-291" font-family="Courier New" font-size="10.00" fill="blue">REF_MACHINE(WIP1);MOV(BFRAME,R_WPARM);</text>
<polygon fill="none" stroke="black" points="9.5,-282 9.5,-324 250.5,-324 250.5,-282 9.5,-282"/>
</g>
<!-- 0&#45;&gt;10 -->
<g id="edge2" class="edge">
<title>0&#45;&gt;10</title>
<path fill="none" stroke="black" d="M390.4,-361.24C384.44,-354.11 376.92,-346.71 368.5,-342 330.98,-321.04 300.91,-357.09 273.5,-324 261.47,-309.49 268.73,-288.95 278.31,-272.74"/>
<polygon fill="black" stroke="black" points="281.62,-275.07 284.09,-264.77 275.73,-271.28 281.62,-275.07"/>
<polygon fill="none" stroke="black" points="276.5,-304 276.5,-321 511.5,-321 511.5,-304 276.5,-304"/>
<text text-anchor="start" x="348.5" y="-311" font-family="Courier New" font-weight="bold" font-size="10.00" fill="orange">WAIT(,SIG_DEC1)</text>
<polygon fill="none" stroke="black" points="276.5,-285 276.5,-302 511.5,-302 511.5,-285 276.5,-285"/>
<text text-anchor="start" x="279.5" y="-291" font-family="Courier New" font-size="10.00" fill="blue">REF_MACHINE(WIP1);MOV(BFRAME,R_WPARM);</text>
<polygon fill="none" stroke="black" points="273.5,-282 273.5,-324 514.5,-324 514.5,-282 273.5,-282"/>
</g>
<!-- 0&#45;&gt;10 -->
<g id="edge3" class="edge">
<title>0&#45;&gt;10</title>
<path fill="none" stroke="black" d="M419.58,-361.07C425.67,-354.1 433.23,-346.84 441.5,-342 470.33,-325.11 493.89,-350.31 514.5,-324 526.01,-309.31 526.6,-296.21 514.5,-282 491.93,-255.5 391.33,-248.99 335.37,-247.44"/>
<polygon fill="black" stroke="black" points="335.56,-243.92 325.48,-247.19 335.39,-250.92 335.56,-243.92"/>
<polygon fill="none" stroke="black" points="525.5,-304 525.5,-321 862.5,-321 862.5,-304 525.5,-304"/>
<text text-anchor="start" x="648.5" y="-311" font-family="Courier New" font-weight="bold" font-size="10.00" fill="orange">WAIT(,SIG_SHOW)</text>
<polygon fill="none" stroke="black" points="525.5,-285 525.5,-302 862.5,-302 862.5,-285 525.5,-285"/>
<text text-anchor="start" x="528.5" y="-291" font-family="Courier New" font-size="10.00" fill="blue">ASSIGN(BFRAME,6);REF_MACHINE(WIP1);MOV(BFRAME,R_WPARM);</text>
<polygon fill="none" stroke="black" points="522.5,-282 522.5,-324 865.5,-324 865.5,-282 522.5,-282"/>
</g>
<!-- 11 -->
<g id="node4" class="node">
<title>11</title>
<polyline fill="none" stroke="darkred" points="516,-121.5 539,-121.5"/>
<text text-anchor="start" x="519" y="-129.3" font-family="Courier New" font-weight="bold" font-size="14.00">11</text>
<path fill="none" stroke="darkred" d="M522,-118.5C522,-118.5 533,-118.5 533,-118.5 537.5,-118.5 542,-123 542,-127.5 542,-127.5 542,-136.5 542,-136.5 542,-141 537.5,-145.5 533,-145.5 533,-145.5 522,-145.5 522,-145.5 517.5,-145.5 513,-141 513,-136.5 513,-136.5 513,-127.5 513,-127.5 513,-123 517.5,-118.5 522,-118.5"/>
</g>
<!-- 10&#45;&gt;11 -->
<g id="edge4" class="edge">
<title>10&#45;&gt;11</title>
<path fill="none" stroke="black" d="M324.33,-231.93C365.62,-211.83 444.8,-173.27 491.18,-150.68"/>
<polygon fill="black" stroke="black" points="492.37,-153.51 499.83,-145.98 489.31,-147.22 492.37,-153.51"/>
<polygon fill="none" stroke="black" points="455.5,-190 455.5,-207 636.5,-207 636.5,-190 455.5,-190"/>
<text text-anchor="start" x="491.5" y="-197" font-family="Courier New" font-weight="bold" font-size="10.00" fill="blue">MOV(WTEMP1,BFRAME)</text>
<polygon fill="none" stroke="black" points="455.5,-171 455.5,-188 636.5,-188 636.5,-171 455.5,-171"/>
<text text-anchor="start" x="458.5" y="-177" font-family="Courier New" font-size="10.00" fill="blue"> MAPi(WTEMP1,S06_COMPONENTB);</text>
<polygon fill="none" stroke="black" points="452.5,-168 452.5,-210 639.5,-210 639.5,-168 452.5,-168"/>
</g>
<!-- 12 -->
<g id="node5" class="node">
<title>12</title>
<polyline fill="none" stroke="darkred" points="725,-7.5 748,-7.5"/>
<text text-anchor="start" x="728" y="-15.3" font-family="Courier New" font-weight="bold" font-size="14.00">12</text>
<path fill="none" stroke="darkred" d="M731,-4.5C731,-4.5 742,-4.5 742,-4.5 746.5,-4.5 751,-9 751,-13.5 751,-13.5 751,-22.5 751,-22.5 751,-27 746.5,-31.5 742,-31.5 742,-31.5 731,-31.5 731,-31.5 726.5,-31.5 722,-27 722,-22.5 722,-22.5 722,-13.5 722,-13.5 722,-9 726.5,-4.5 731,-4.5"/>
</g>
<!-- 11&#45;&gt;12 -->
<g id="edge5" class="edge">
<title>11&#45;&gt;12</title>
<path fill="none" stroke="black" d="M554.39,-116.59C591.54,-96.68 658.68,-60.7 700.23,-38.43"/>
<polygon fill="black" stroke="black" points="701.54,-41.17 708.7,-33.36 698.24,-35 701.54,-41.17"/>
<polygon fill="none" stroke="black" points="671.5,-76 671.5,-93 864.5,-93 864.5,-76 671.5,-76"/>
<text text-anchor="start" x="713.5" y="-83" font-family="Courier New" font-weight="bold" font-size="10.00" fill="blue">MOV(WTEMP2,WTEMP1)</text>
<polygon fill="none" stroke="black" points="671.5,-57 671.5,-74 864.5,-74 864.5,-57 671.5,-57"/>
<text text-anchor="start" x="674.5" y="-63" font-family="Courier New" font-size="10.00" fill="blue">MAPi(WTEMP2,S06_CHEMFILMSTRIP);</text>
<polygon fill="none" stroke="black" points="668.5,-54 668.5,-96 867.5,-96 867.5,-54 668.5,-54"/>
</g>
<!-- 12&#45;&gt;0 -->
<g id="edge6" class="edge">
<title>12&#45;&gt;0</title>
<path fill="none" stroke="black" d="M763.38,-22.1C798.87,-26.81 858.38,-37.05 871.5,-54 944.94,-148.91 952.93,-237.75 869.5,-324 836.4,-358.21 484.76,-322.16 441.5,-342 435.59,-344.71 430.17,-348.84 425.41,-353.43"/>
<polygon fill="black" stroke="black" points="423.26,-350.68 419.05,-360.4 428.4,-355.43 423.26,-350.68"/>
<polygon fill="none" stroke="black" points="931.5,-190 931.5,-207 1046.5,-207 1046.5,-190 931.5,-190"/>
<text text-anchor="start" x="934.5" y="-197" font-family="Courier New" font-weight="bold" font-size="10.00" fill="blue">MOV(BFRAME,WTEMP2)</text>
<polygon fill="none" stroke="black" points="931.5,-171 931.5,-188 1046.5,-188 1046.5,-171 931.5,-171"/>
<text text-anchor="start" x="934.5" y="-177" font-family="Courier New" font-size="10.00" fill="blue">SHOW(0,IDS_CHEMS);</text>
<polygon fill="none" stroke="black" points="928.5,-168 928.5,-210 1049.5,-210 1049.5,-168 928.5,-168"/>
</g>
<!-- status -->
<g id="node6" class="node">
<title>status</title>
<polygon fill="none" stroke="black" points="450,-342.5 450,-422.5 869,-422.5 869,-342.5 450,-342.5"/>
<polygon fill="none" stroke="black" points="461,-398.5 461,-415.5 858,-415.5 858,-398.5 461,-398.5"/>
<text text-anchor="start" x="608" y="-405.5" font-family="Courier New" font-weight="bold" font-size="10.00">S06_CYCLE_COMP2_2</text>
<polygon fill="none" stroke="black" points="461,-368.5 461,-396.5 858,-396.5 858,-368.5 461,-368.5"/>
<text text-anchor="start" x="464" y="-385.5" font-family="Courier New" font-size="10.00" fill="green">S06_CYCLE_COMP2_2::M06_CYCLE_COMP2(&#39;S06_CYCLE_VIEWER_2&#39;,&#39;&#39;,&#39;&#39;,&#39;&#39;)</text>
<text text-anchor="start" x="464" y="-374.5" font-family="Courier New" font-size="10.00" fill="green">{&#39;0&#39;: wSprite:chems bFrame:3}</text>
<polygon fill="none" stroke="black" points="461,-349.5 461,-366.5 858,-366.5 858,-349.5 461,-349.5"/>
<text text-anchor="start" x="656" y="-355.5" font-family="Courier New" font-size="10.00" fill="blue">_</text>
<polygon fill="none" stroke="black" points="458,-346.5 458,-418.5 861,-418.5 861,-346.5 458,-346.5"/>
</g>
</g>
</svg>
