<?xml version="1.0" encoding="UTF-8" standalone="no"?>
<!DOCTYPE svg PUBLIC "-//W3C//DTD SVG 1.1//EN"
 "http://www.w3.org/Graphics/SVG/1.1/DTD/svg11.dtd">
<!-- Generated by graphviz version 8.0.1 (20230327.1645)
 -->
<!-- Title: Automaton Pages: 1 -->
<svg width="1955pt" height="535pt"
 viewBox="0.00 0.00 1955.43 535.00" xmlns="http://www.w3.org/2000/svg" xmlns:xlink="http://www.w3.org/1999/xlink">
<g id="graph0" class="graph" transform="scale(1 1) rotate(0) translate(4 531)">
<title>Automaton</title>
<polygon fill="white" stroke="none" points="-4,4 -4,-531 1951.43,-531 1951.43,4 -4,4"/>
<!-- filename -->
<g id="node1" class="node">
<title>filename</title>
<polygon fill="none" stroke="black" points="556.93,-461.5 556.93,-511.5 789.93,-511.5 789.93,-461.5 556.93,-461.5"/>
<polygon fill="none" stroke="black" points="567.93,-487.5 567.93,-504.5 778.93,-504.5 778.93,-487.5 567.93,-487.5"/>
<text text-anchor="start" x="570.93" y="-494.5" font-family="Courier New" font-weight="bold" font-size="10.00">S06_CYCLE_VIEWER_2::M06_CYCLE_VIEW</text>
<polygon fill="none" stroke="black" points="567.93,-468.5 567.93,-485.5 778.93,-485.5 778.93,-468.5 567.93,-468.5"/>
<text text-anchor="start" x="627.93" y="-474.5" font-family="Courier New" font-size="10.00" fill="brown">start state = 0</text>
<polygon fill="none" stroke="black" points="564.93,-465.5 564.93,-507.5 781.93,-507.5 781.93,-465.5 564.93,-465.5"/>
</g>
<!-- 0 -->
<g id="node2" class="node">
<title>0</title>
<polyline fill="none" stroke="darkred" points="827.93,-476 842.93,-476"/>
<text text-anchor="start" x="830.93" y="-483.8" font-family="Courier New" font-weight="bold" font-size="14.00">0</text>
<path fill="none" stroke="darkred" d="M831.93,-473C831.93,-473 838.93,-473 838.93,-473 842.43,-473 845.93,-476.5 845.93,-480 845.93,-480 845.93,-493 845.93,-493 845.93,-496.5 842.43,-500 838.93,-500 838.93,-500 831.93,-500 831.93,-500 828.43,-500 824.93,-496.5 824.93,-493 824.93,-493 824.93,-480 824.93,-480 824.93,-476.5 828.43,-473 831.93,-473"/>
</g>
<!-- 1 -->
<g id="node3" class="node">
<title>1</title>
<polyline fill="none" stroke="darkred" points="827.93,-362.5 842.93,-362.5"/>
<text text-anchor="start" x="830.93" y="-370.3" font-family="Courier New" font-weight="bold" font-size="14.00">1</text>
<path fill="none" stroke="darkred" d="M831.93,-359.5C831.93,-359.5 838.93,-359.5 838.93,-359.5 842.43,-359.5 845.93,-363 845.93,-366.5 845.93,-366.5 845.93,-379.5 845.93,-379.5 845.93,-383 842.43,-386.5 838.93,-386.5 838.93,-386.5 831.93,-386.5 831.93,-386.5 828.43,-386.5 824.93,-383 824.93,-379.5 824.93,-379.5 824.93,-366.5 824.93,-366.5 824.93,-363 828.43,-359.5 831.93,-359.5"/>
</g>
<!-- 0&#45;&gt;1 -->
<g id="edge1" class="edge">
<title>0&#45;&gt;1</title>
<path fill="none" stroke="black" d="M835.43,-468.57C835.43,-450.78 835.43,-422.53 835.43,-401.54"/>
<polygon fill="black" stroke="black" points="838.93,-401.73 835.43,-391.73 831.93,-401.73 838.93,-401.73"/>
<text text-anchor="start" x="839.43" y="-417" font-family="Courier New" font-weight="bold" font-size="10.00" fill="blue">ASSIGN(WPARM,0)</text>
</g>
<!-- 2 -->
<g id="node4" class="node">
<title>2</title>
<polyline fill="none" stroke="darkred" stroke-width="3" points="827.43,-244.5 843.43,-244.5"/>
<text text-anchor="start" x="830.93" y="-252.8" font-family="Courier New" font-weight="bold" font-size="14.00">2</text>
<path fill="none" stroke="darkred" stroke-width="3" d="M831.1,-239.5C831.1,-239.5 839.76,-239.5 839.76,-239.5 844.1,-239.5 848.43,-243.83 848.43,-248.17 848.43,-248.17 848.43,-262.83 848.43,-262.83 848.43,-267.17 844.1,-271.5 839.76,-271.5 839.76,-271.5 831.1,-271.5 831.1,-271.5 826.76,-271.5 822.43,-267.17 822.43,-262.83 822.43,-262.83 822.43,-248.17 822.43,-248.17 822.43,-243.83 826.76,-239.5 831.1,-239.5"/>
</g>
<!-- 1&#45;&gt;2 -->
<g id="edge2" class="edge">
<title>1&#45;&gt;2</title>
<path fill="none" stroke="black" d="M835.43,-355.45C835.43,-337.82 835.43,-309.49 835.43,-287.65"/>
<polygon fill="black" stroke="black" points="838.93,-287.91 835.43,-277.91 831.93,-287.91 838.93,-287.91"/>
<polygon fill="none" stroke="black" points="838.43,-317 838.43,-334 1517.43,-334 1517.43,-317 838.43,-317"/>
<text text-anchor="start" x="1123.43" y="-324" font-family="Courier New" font-weight="bold" font-size="10.00" fill="blue">MOV(WOBJECT,WPARM)</text>
<polygon fill="none" stroke="black" points="838.43,-298 838.43,-315 1517.43,-315 1517.43,-298 838.43,-298"/>
<text text-anchor="start" x="841.43" y="-304" font-family="Courier New" font-size="10.00" fill="blue">MAPi(WOBJECT,S06_MAN_OBJECTS);ASHOW(WOBJECT); SIGNAL(WIP1,SIG_DEC1);SIGNAL(WIP2,SIG_DEC1);SIGNAL(WIP3,SIG_DEC1);</text>
<polygon fill="none" stroke="black" points="835.43,-295 835.43,-337 1520.43,-337 1520.43,-295 835.43,-295"/>
</g>
<!-- 10 -->
<g id="node5" class="node">
<title>10</title>
<polyline fill="none" stroke="darkred" points="434.93,-124.5 457.93,-124.5"/>
<text text-anchor="start" x="437.93" y="-132.3" font-family="Courier New" font-weight="bold" font-size="14.00">10</text>
<path fill="none" stroke="darkred" d="M440.93,-121.5C440.93,-121.5 451.93,-121.5 451.93,-121.5 456.43,-121.5 460.93,-126 460.93,-130.5 460.93,-130.5 460.93,-139.5 460.93,-139.5 460.93,-144 456.43,-148.5 451.93,-148.5 451.93,-148.5 440.93,-148.5 440.93,-148.5 436.43,-148.5 431.93,-144 431.93,-139.5 431.93,-139.5 431.93,-130.5 431.93,-130.5 431.93,-126 436.43,-121.5 440.93,-121.5"/>
</g>
<!-- 2&#45;&gt;10 -->
<g id="edge6" class="edge">
<title>2&#45;&gt;10</title>
<path fill="none" stroke="black" d="M808.63,-253.9C724.22,-251.76 467.95,-243.04 443.43,-216 430.67,-201.93 432.39,-180.09 436.76,-162.78"/>
<polygon fill="black" stroke="black" points="440.26,-164.28 439.72,-153.7 433.55,-162.31 440.26,-164.28"/>
<polygon fill="none" stroke="black" points="446.43,-196 446.43,-213 543.43,-213 543.43,-196 446.43,-196"/>
<text text-anchor="start" x="449.43" y="-203" font-family="Courier New" font-weight="bold" font-size="10.00" fill="orange">WAIT(,SIG_INC1)</text>
<polygon fill="none" stroke="black" points="446.43,-177 446.43,-194 543.43,-194 543.43,-177 446.43,-177"/>
<text text-anchor="start" x="449.43" y="-183" font-family="Courier New" font-size="10.00" fill="blue"> ADDI(WPARM,1);</text>
<polygon fill="none" stroke="black" points="443.43,-174 443.43,-216 546.43,-216 546.43,-174 443.43,-174"/>
</g>
<!-- 20 -->
<g id="node7" class="node">
<title>20</title>
<polyline fill="none" stroke="darkred" points="933.93,-124.5 956.93,-124.5"/>
<text text-anchor="start" x="936.93" y="-132.3" font-family="Courier New" font-weight="bold" font-size="14.00">20</text>
<path fill="none" stroke="darkred" d="M939.93,-121.5C939.93,-121.5 950.93,-121.5 950.93,-121.5 955.43,-121.5 959.93,-126 959.93,-130.5 959.93,-130.5 959.93,-139.5 959.93,-139.5 959.93,-144 955.43,-148.5 950.93,-148.5 950.93,-148.5 939.93,-148.5 939.93,-148.5 935.43,-148.5 930.93,-144 930.93,-139.5 930.93,-139.5 930.93,-130.5 930.93,-130.5 930.93,-126 935.43,-121.5 939.93,-121.5"/>
</g>
<!-- 2&#45;&gt;20 -->
<g id="edge7" class="edge">
<title>2&#45;&gt;20</title>
<path fill="none" stroke="black" d="M834.76,-234.2C835.25,-216.28 838.79,-190.5 853.43,-174 869.38,-156.02 882.26,-165.28 904.43,-156 905.89,-155.39 907.37,-154.75 908.87,-154.09"/>
<polygon fill="black" stroke="black" points="910.1,-156.92 917.73,-149.57 907.18,-150.56 910.1,-156.92"/>
<polygon fill="none" stroke="black" points="856.43,-196 856.43,-213 953.43,-213 953.43,-196 856.43,-196"/>
<text text-anchor="start" x="859.43" y="-203" font-family="Courier New" font-weight="bold" font-size="10.00" fill="orange">WAIT(,SIG_DEC1)</text>
<polygon fill="none" stroke="black" points="856.43,-177 856.43,-194 953.43,-194 953.43,-177 856.43,-177"/>
<text text-anchor="start" x="859.43" y="-183" font-family="Courier New" font-size="10.00" fill="blue"> SUBI(WPARM,1);</text>
<polygon fill="none" stroke="black" points="853.43,-174 853.43,-216 956.43,-216 956.43,-174 853.43,-174"/>
</g>
<!-- 30 -->
<g id="node8" class="node">
<title>30</title>
<polyline fill="none" stroke="darkred" points="1434.93,-124.5 1457.93,-124.5"/>
<text text-anchor="start" x="1437.93" y="-132.3" font-family="Courier New" font-weight="bold" font-size="14.00">30</text>
<path fill="none" stroke="darkred" d="M1440.93,-121.5C1440.93,-121.5 1451.93,-121.5 1451.93,-121.5 1456.43,-121.5 1460.93,-126 1460.93,-130.5 1460.93,-130.5 1460.93,-139.5 1460.93,-139.5 1460.93,-144 1456.43,-148.5 1451.93,-148.5 1451.93,-148.5 1440.93,-148.5 1440.93,-148.5 1436.43,-148.5 1431.93,-144 1431.93,-139.5 1431.93,-139.5 1431.93,-130.5 1431.93,-130.5 1431.93,-126 1436.43,-121.5 1440.93,-121.5"/>
</g>
<!-- 2&#45;&gt;30 -->
<g id="edge8" class="edge">
<title>2&#45;&gt;30</title>
<path fill="none" stroke="black" d="M862.37,-250.71C907.15,-244.31 999.66,-230.6 1077.43,-216 1199.49,-193.08 1342.98,-160.27 1409.33,-144.76"/>
<polygon fill="black" stroke="black" points="1409.74,-148.03 1418.68,-142.34 1408.15,-141.21 1409.74,-148.03"/>
<polygon fill="none" stroke="black" points="1282.43,-196 1282.43,-213 1397.43,-213 1397.43,-196 1282.43,-196"/>
<text text-anchor="start" x="1294.43" y="-203" font-family="Courier New" font-weight="bold" font-size="10.00" fill="orange">WAIT(,SIG_SHOW)</text>
<polygon fill="none" stroke="black" points="1282.43,-177 1282.43,-194 1397.43,-194 1397.43,-177 1282.43,-177"/>
<text text-anchor="start" x="1285.43" y="-183" font-family="Courier New" font-size="10.00" fill="blue">REF_MACHINE(WIP4);</text>
<polygon fill="none" stroke="black" points="1279.43,-174 1279.43,-216 1400.43,-216 1400.43,-174 1279.43,-174"/>
</g>
<!-- 10&#45;&gt;2 -->
<g id="edge3" class="edge">
<title>10&#45;&gt;2</title>
<path fill="none" stroke="black" d="M473.01,-140.29C495.76,-145.13 528.27,-154.95 550.43,-174 566.57,-187.87 555.96,-203.85 573.43,-216 609.03,-240.77 734.47,-249.94 797.98,-253.05"/>
<polygon fill="black" stroke="black" points="797.57,-256.58 807.72,-253.55 797.89,-249.59 797.57,-256.58"/>
<polygon fill="none" stroke="black" points="576.43,-196 576.43,-213 685.43,-213 685.43,-196 576.43,-196"/>
<text text-anchor="start" x="588.43" y="-203" font-family="Courier New" font-weight="bold" font-size="10.00" fill="blue">GTEi(WPARM,24)</text>
<polygon fill="none" stroke="black" points="576.43,-177 576.43,-194 685.43,-194 685.43,-177 576.43,-177"/>
<text text-anchor="start" x="579.43" y="-183" font-family="Courier New" font-size="10.00" fill="blue">ASSIGN(WPARM,24);</text>
<polygon fill="none" stroke="black" points="573.43,-174 573.43,-216 688.43,-216 688.43,-174 573.43,-174"/>
</g>
<!-- 11 -->
<g id="node6" class="node">
<title>11</title>
<polyline fill="none" stroke="darkred" points="343.93,-7.5 366.93,-7.5"/>
<text text-anchor="start" x="346.93" y="-15.3" font-family="Courier New" font-weight="bold" font-size="14.00">11</text>
<path fill="none" stroke="darkred" d="M349.93,-4.5C349.93,-4.5 360.93,-4.5 360.93,-4.5 365.43,-4.5 369.93,-9 369.93,-13.5 369.93,-13.5 369.93,-22.5 369.93,-22.5 369.93,-27 365.43,-31.5 360.93,-31.5 360.93,-31.5 349.93,-31.5 349.93,-31.5 345.43,-31.5 340.93,-27 340.93,-22.5 340.93,-22.5 340.93,-13.5 340.93,-13.5 340.93,-9 345.43,-4.5 349.93,-4.5"/>
</g>
<!-- 10&#45;&gt;11 -->
<g id="edge4" class="edge">
<title>10&#45;&gt;11</title>
<path fill="none" stroke="black" d="M419.48,-133.72C328.55,-132.51 37.19,-126.28 9.43,-96 -3.18,-82.24 -3.09,-67.85 9.43,-54 29.82,-31.44 232.39,-22.71 317.78,-20.02"/>
<polygon fill="black" stroke="black" points="317.66,-23.49 327.55,-19.69 317.44,-16.5 317.66,-23.49"/>
<polygon fill="none" stroke="black" points="12.43,-76 12.43,-93 685.43,-93 685.43,-76 12.43,-76"/>
<text text-anchor="start" x="294.43" y="-83" font-family="Courier New" font-weight="bold" font-size="10.00" fill="blue">MOV(WOBJECT,WPARM)</text>
<polygon fill="none" stroke="black" points="12.43,-57 12.43,-74 685.43,-74 685.43,-57 12.43,-57"/>
<text text-anchor="start" x="15.43" y="-63" font-family="Courier New" font-size="10.00" fill="blue">MAPi(WOBJECT,S06_MAN_OBJECTS);ASHOW(WOBJECT);SIGNAL(WIP1,SIG_INC1);SIGNAL(WIP2,SIG_INC1);SIGNAL(WIP3,SIG_INC1);</text>
<polygon fill="none" stroke="black" points="9.43,-54 9.43,-96 688.43,-96 688.43,-54 9.43,-54"/>
</g>
<!-- 11&#45;&gt;2 -->
<g id="edge5" class="edge">
<title>11&#45;&gt;2</title>
<path fill="none" stroke="black" d="M382.37,-18.67C452.48,-18.3 638.57,-20.58 688.43,-54 731.21,-82.68 713.38,-114.17 743.43,-156 761.95,-181.78 786.66,-207.89 805.82,-226.74"/>
<polygon fill="black" stroke="black" points="803.04,-228.9 812.65,-233.36 807.92,-223.88 803.04,-228.9"/>
<text text-anchor="start" x="747.43" y="-133.5" font-family="Courier New" font-weight="bold" font-size="10.00" fill="blue">Z_EPSILON(,)</text>
</g>
<!-- 20&#45;&gt;2 -->
<g id="edge9" class="edge">
<title>20&#45;&gt;2</title>
<path fill="none" stroke="black" d="M954.07,-152.7C961.77,-170.16 969.92,-197.55 956.43,-216 937.48,-241.92 900.92,-250.81 872.92,-253.65"/>
<polygon fill="black" stroke="black" points="872.98,-250.22 863.29,-254.49 873.53,-257.2 872.98,-250.22"/>
<polygon fill="none" stroke="black" points="967.43,-196 967.43,-213 1070.43,-213 1070.43,-196 967.43,-196"/>
<text text-anchor="start" x="982.43" y="-203" font-family="Courier New" font-weight="bold" font-size="10.00" fill="blue">LTi(WPARM,0)</text>
<polygon fill="none" stroke="black" points="967.43,-177 967.43,-194 1070.43,-194 1070.43,-177 967.43,-177"/>
<text text-anchor="start" x="970.43" y="-183" font-family="Courier New" font-size="10.00" fill="blue">ASSIGN(WPARM,0);</text>
<polygon fill="none" stroke="black" points="964.43,-174 964.43,-216 1073.43,-216 1073.43,-174 964.43,-174"/>
</g>
<!-- 21 -->
<g id="node9" class="node">
<title>21</title>
<polyline fill="none" stroke="darkred" points="823.93,-7.5 846.93,-7.5"/>
<text text-anchor="start" x="826.93" y="-15.3" font-family="Courier New" font-weight="bold" font-size="14.00">21</text>
<path fill="none" stroke="darkred" d="M829.93,-4.5C829.93,-4.5 840.93,-4.5 840.93,-4.5 845.43,-4.5 849.93,-9 849.93,-13.5 849.93,-13.5 849.93,-22.5 849.93,-22.5 849.93,-27 845.43,-31.5 840.93,-31.5 840.93,-31.5 829.93,-31.5 829.93,-31.5 825.43,-31.5 820.93,-27 820.93,-22.5 820.93,-22.5 820.93,-13.5 820.93,-13.5 820.93,-9 825.43,-4.5 829.93,-4.5"/>
</g>
<!-- 20&#45;&gt;21 -->
<g id="edge10" class="edge">
<title>20&#45;&gt;21</title>
<path fill="none" stroke="black" d="M918.73,-120.43C914.01,-118.19 909.11,-115.96 904.43,-114 882.26,-104.72 869.47,-113.9 853.43,-96 841.37,-82.54 836.96,-62.57 835.51,-46.33"/>
<polygon fill="black" stroke="black" points="838.98,-46.61 834.93,-36.82 831.99,-47 838.98,-46.61"/>
<polygon fill="none" stroke="black" points="856.43,-76 856.43,-93 1535.43,-93 1535.43,-76 856.43,-76"/>
<text text-anchor="start" x="1141.43" y="-83" font-family="Courier New" font-weight="bold" font-size="10.00" fill="blue">MOV(WOBJECT,WPARM)</text>
<polygon fill="none" stroke="black" points="856.43,-57 856.43,-74 1535.43,-74 1535.43,-57 856.43,-57"/>
<text text-anchor="start" x="859.43" y="-63" font-family="Courier New" font-size="10.00" fill="blue">MAPi(WOBJECT,S06_MAN_OBJECTS);ASHOW(WOBJECT); SIGNAL(WIP1,SIG_DEC1);SIGNAL(WIP2,SIG_DEC1);SIGNAL(WIP3,SIG_DEC1);</text>
<polygon fill="none" stroke="black" points="853.43,-54 853.43,-96 1538.43,-96 1538.43,-54 853.43,-54"/>
</g>
<!-- 31 -->
<g id="node10" class="node">
<title>31</title>
<polyline fill="none" stroke="darkred" points="1614.93,-7.5 1637.93,-7.5"/>
<text text-anchor="start" x="1617.93" y="-15.3" font-family="Courier New" font-weight="bold" font-size="14.00">31</text>
<path fill="none" stroke="darkred" d="M1620.93,-4.5C1620.93,-4.5 1631.93,-4.5 1631.93,-4.5 1636.43,-4.5 1640.93,-9 1640.93,-13.5 1640.93,-13.5 1640.93,-22.5 1640.93,-22.5 1640.93,-27 1636.43,-31.5 1631.93,-31.5 1631.93,-31.5 1620.93,-31.5 1620.93,-31.5 1616.43,-31.5 1611.93,-27 1611.93,-22.5 1611.93,-22.5 1611.93,-13.5 1611.93,-13.5 1611.93,-9 1616.43,-4.5 1620.93,-4.5"/>
</g>
<!-- 30&#45;&gt;31 -->
<g id="edge12" class="edge">
<title>30&#45;&gt;31</title>
<path fill="none" stroke="black" d="M1473.21,-128.08C1493.11,-122.56 1519.9,-112.61 1538.43,-96 1554.28,-81.8 1546.33,-69 1561.43,-54 1569.48,-46.01 1579.73,-39.36 1589.7,-34.08"/>
<polygon fill="black" stroke="black" points="1591.06,-36.82 1598.49,-29.26 1587.97,-30.54 1591.06,-36.82"/>
<text text-anchor="start" x="1565.43" y="-73.5" font-family="Courier New" font-weight="bold" font-size="10.00" fill="blue">MOV(WPARM,R_WPARM)</text>
</g>
<!-- 21&#45;&gt;2 -->
<g id="edge11" class="edge">
<title>21&#45;&gt;2</title>
<path fill="none" stroke="black" d="M833.82,-35.8C832.08,-54.77 829.44,-86.57 828.43,-114 827.05,-151.54 829.85,-194.69 832.31,-223.15"/>
<polygon fill="black" stroke="black" points="828.91,-223.39 833.3,-233.03 835.88,-222.76 828.91,-223.39"/>
<text text-anchor="start" x="832.43" y="-133.5" font-family="Courier New" font-weight="bold" font-size="10.00" fill="blue">Z_EPSILON(,)</text>
</g>
<!-- 31&#45;&gt;2 -->
<g id="edge13" class="edge">
<title>31&#45;&gt;2</title>
<path fill="none" stroke="black" d="M1653.21,-30.32C1662.98,-35.92 1672.96,-43.72 1678.43,-54 1687.2,-70.48 1688.64,-80.38 1678.43,-96 1605.68,-207.28 1533.56,-184.38 1404.43,-216 1303.19,-240.79 983.59,-250.85 873.3,-253.63"/>
<polygon fill="black" stroke="black" points="873.3,-250.16 863.39,-253.9 873.47,-257.16 873.3,-250.16"/>
<polygon fill="none" stroke="black" points="1667.43,-136 1667.43,-153 1944.43,-153 1944.43,-136 1667.43,-136"/>
<text text-anchor="start" x="1745.43" y="-143" font-family="Courier New" font-weight="bold" font-size="10.00" fill="blue">MOV(WOBJECT,R_WPARM)</text>
<polygon fill="none" stroke="black" points="1667.43,-117 1667.43,-134 1944.43,-134 1944.43,-117 1667.43,-117"/>
<text text-anchor="start" x="1670.43" y="-123" font-family="Courier New" font-size="10.00" fill="blue">MAPi(WOBJECT,S06_MAN_OBJECTS);ASHOW(WOBJECT);</text>
<polygon fill="none" stroke="black" points="1664.43,-114 1664.43,-156 1947.43,-156 1947.43,-114 1664.43,-114"/>
</g>
<!-- status -->
<g id="node11" class="node">
<title>status</title>
<polygon fill="none" stroke="black" points="880.93,-446.5 880.93,-526.5 1629.93,-526.5 1629.93,-446.5 880.93,-446.5"/>
<polygon fill="none" stroke="black" points="891.93,-502.5 891.93,-519.5 1618.93,-519.5 1618.93,-502.5 891.93,-502.5"/>
<text text-anchor="start" x="1200.93" y="-509.5" font-family="Courier New" font-weight="bold" font-size="10.00">S06_CYCLE_VIEWER_2</text>
<polygon fill="none" stroke="black" points="891.93,-472.5 891.93,-500.5 1618.93,-500.5 1618.93,-472.5 891.93,-472.5"/>
<text text-anchor="start" x="894.93" y="-489.5" font-family="Courier New" font-size="10.00" fill="green">S06_CYCLE_VIEWER_2::M06_CYCLE_VIEW(&#39;S06_CYCLE_COMP1_2&#39;,&#39;S06_CYCLE_COMP2_2&#39;,&#39;S06_CYCLE_COMP3_2&#39;,&#39;S06_TEMPL_EJECT_ANIM_2&#39;)</text>
<text text-anchor="start" x="894.93" y="-478.5" font-family="Courier New" font-size="10.00" fill="green">{&#39;2&#39;: wParm:2 wObject:IDD_VIAL1 wSprite:VIAL1}</text>
<polygon fill="none" stroke="black" points="891.93,-453.5 891.93,-470.5 1618.93,-470.5 1618.93,-453.5 891.93,-453.5"/>
<text text-anchor="start" x="1251.93" y="-459.5" font-family="Courier New" font-size="10.00" fill="blue">_</text>
<polygon fill="none" stroke="black" points="888.93,-450.5 888.93,-522.5 1621.93,-522.5 1621.93,-450.5 888.93,-450.5"/>
</g>
</g>
</svg>
