<?xml version="1.0" encoding="UTF-8" standalone="no"?>
<!DOCTYPE svg PUBLIC "-//W3C//DTD SVG 1.1//EN"
 "http://www.w3.org/Graphics/SVG/1.1/DTD/svg11.dtd">
<!-- Generated by graphviz version 8.0.1 (20230327.1645)
 -->
<!-- Title: Automaton Pages: 1 -->
<svg width="883pt" height="582pt"
 viewBox="0.00 0.00 883.00 582.00" xmlns="http://www.w3.org/2000/svg" xmlns:xlink="http://www.w3.org/1999/xlink">
<g id="graph0" class="graph" transform="scale(1 1) rotate(0) translate(4 578)">
<title>Automaton</title>
<polygon fill="white" stroke="none" points="-4,4 -4,-578 879,-578 879,4 -4,4"/>
<!-- filename -->
<g id="node1" class="node">
<title>filename</title>
<polygon fill="none" stroke="black" points="0,-512.5 0,-562.5 197,-562.5 197,-512.5 0,-512.5"/>
<polygon fill="none" stroke="black" points="11,-538.5 11,-555.5 186,-555.5 186,-538.5 11,-538.5"/>
<text text-anchor="start" x="14" y="-545.5" font-family="Courier New" font-weight="bold" font-size="10.00">S08_CARDHOLD_4::M08_CARDHOLD</text>
<polygon fill="none" stroke="black" points="11,-519.5 11,-536.5 186,-536.5 186,-519.5 11,-519.5"/>
<text text-anchor="start" x="53" y="-525.5" font-family="Courier New" font-size="10.00" fill="brown">start state = 0</text>
<polygon fill="none" stroke="black" points="8,-516.5 8,-558.5 189,-558.5 189,-516.5 8,-516.5"/>
</g>
<!-- 0 -->
<g id="node2" class="node">
<title>0</title>
<polyline fill="none" stroke="darkred" points="235,-527 250,-527"/>
<text text-anchor="start" x="238" y="-534.8" font-family="Courier New" font-weight="bold" font-size="14.00">0</text>
<path fill="none" stroke="darkred" d="M239,-524C239,-524 246,-524 246,-524 249.5,-524 253,-527.5 253,-531 253,-531 253,-544 253,-544 253,-547.5 249.5,-551 246,-551 246,-551 239,-551 239,-551 235.5,-551 232,-547.5 232,-544 232,-544 232,-531 232,-531 232,-527.5 235.5,-524 239,-524"/>
</g>
<!-- 10 -->
<g id="node3" class="node">
<title>10</title>
<polyline fill="none" stroke="darkred" points="231,-417.5 254,-417.5"/>
<text text-anchor="start" x="234" y="-425.3" font-family="Courier New" font-weight="bold" font-size="14.00">10</text>
<path fill="none" stroke="darkred" d="M237,-414.5C237,-414.5 248,-414.5 248,-414.5 252.5,-414.5 257,-419 257,-423.5 257,-423.5 257,-432.5 257,-432.5 257,-437 252.5,-441.5 248,-441.5 248,-441.5 237,-441.5 237,-441.5 232.5,-441.5 228,-437 228,-432.5 228,-432.5 228,-423.5 228,-423.5 228,-419 232.5,-414.5 237,-414.5"/>
</g>
<!-- 0&#45;&gt;10 -->
<g id="edge1" class="edge">
<title>0&#45;&gt;10</title>
<path fill="none" stroke="black" d="M242.5,-519.7C242.5,-502.82 242.5,-476.51 242.5,-456.57"/>
<polygon fill="black" stroke="black" points="246,-456.68 242.5,-446.68 239,-456.68 246,-456.68"/>
<text text-anchor="start" x="246.5" y="-472" font-family="Courier New" font-weight="bold" font-size="10.00" fill="blue">C_ACCEPT(0,IDC_CARD)</text>
</g>
<!-- 20 -->
<g id="node4" class="node">
<title>20</title>
<polyline fill="none" stroke="darkred" stroke-width="3" points="120.5,-173.5 144.5,-173.5"/>
<text text-anchor="start" x="124" y="-181.8" font-family="Courier New" font-weight="bold" font-size="14.00">20</text>
<path fill="none" stroke="darkred" stroke-width="3" d="M126.17,-168.5C126.17,-168.5 138.83,-168.5 138.83,-168.5 144.17,-168.5 149.5,-173.83 149.5,-179.17 149.5,-179.17 149.5,-189.83 149.5,-189.83 149.5,-195.17 144.17,-200.5 138.83,-200.5 138.83,-200.5 126.17,-200.5 126.17,-200.5 120.83,-200.5 115.5,-195.17 115.5,-189.83 115.5,-189.83 115.5,-179.17 115.5,-179.17 115.5,-173.83 120.83,-168.5 126.17,-168.5"/>
</g>
<!-- 10&#45;&gt;20 -->
<g id="edge2" class="edge">
<title>10&#45;&gt;20</title>
<path fill="none" stroke="black" d="M215.94,-426.75C190.18,-424.91 152.3,-417.65 133.5,-392 95.58,-340.26 110.18,-259.97 122.41,-216.31"/>
<polygon fill="black" stroke="black" points="126.04,-217.37 125.51,-206.79 119.32,-215.39 126.04,-217.37"/>
<polygon fill="none" stroke="black" points="136.5,-372 136.5,-389 335.5,-389 335.5,-372 136.5,-372"/>
<text text-anchor="start" x="208.5" y="-379" font-family="Courier New" font-weight="bold" font-size="10.00" fill="orange">DROP(0,0)</text>
<polygon fill="none" stroke="black" points="136.5,-254 136.5,-370 335.5,-370 335.5,-254 136.5,-254"/>
<text text-anchor="start" x="139.5" y="-359" font-family="Courier New" font-size="10.00" fill="blue"> &#160;&#160;&#160;SHOW(0,IDS_CARDANI);</text>
<text text-anchor="start" x="139.5" y="-348" font-family="Courier New" font-size="10.00" fill="blue"> &#160;&#160;&#160;ANIMATE(0,V_REVERSE);</text>
<text text-anchor="start" x="139.5" y="-337" font-family="Courier New" font-size="10.00" fill="blue"> &#160;&#160;&#160;PLAYWAVE(0,SOUND_CARDEJECT);</text>
<text text-anchor="start" x="139.5" y="-326" font-family="Courier New" font-size="10.00" fill="blue"> &#160;&#160;&#160;MOV(WPARM,WOBJECT);</text>
<text text-anchor="start" x="139.5" y="-315" font-family="Courier New" font-size="10.00" fill="blue"> &#160;&#160;&#160;SUBI(WPARM,IDD_TEMPLATE01);</text>
<text text-anchor="start" x="139.5" y="-304" font-family="Courier New" font-size="10.00" fill="blue"> &#160;&#160;&#160;SIGNAL(WIP1);</text>
<text text-anchor="start" x="139.5" y="-293" font-family="Courier New" font-size="10.00" fill="blue"> &#160;&#160;&#160;SIGNAL(WIP2, SIG_SET);</text>
<text text-anchor="start" x="139.5" y="-282" font-family="Courier New" font-size="10.00" fill="blue"> &#160;&#160;&#160;SIGNAL(WIP3, SIG_SET);</text>
<text text-anchor="start" x="139.5" y="-271" font-family="Courier New" font-size="10.00" fill="blue"> &#160;&#160;&#160;SIGNAL(WIP4, SIG_SET);</text>
<text text-anchor="start" x="139.5" y="-260" font-family="Courier New" font-size="10.00" fill="blue"> &#160;&#160;&#160;</text>
<polygon fill="none" stroke="black" points="133.5,-251 133.5,-392 338.5,-392 338.5,-251 133.5,-251"/>
</g>
<!-- 30 -->
<g id="node5" class="node">
<title>30</title>
<polyline fill="none" stroke="darkred" points="231,-7.5 254,-7.5"/>
<text text-anchor="start" x="234" y="-15.3" font-family="Courier New" font-weight="bold" font-size="14.00">30</text>
<path fill="none" stroke="darkred" d="M237,-4.5C237,-4.5 248,-4.5 248,-4.5 252.5,-4.5 257,-9 257,-13.5 257,-13.5 257,-22.5 257,-22.5 257,-27 252.5,-31.5 248,-31.5 248,-31.5 237,-31.5 237,-31.5 232.5,-31.5 228,-27 228,-22.5 228,-22.5 228,-13.5 228,-13.5 228,-9 232.5,-4.5 237,-4.5"/>
</g>
<!-- 20&#45;&gt;30 -->
<g id="edge3" class="edge">
<title>20&#45;&gt;30</title>
<path fill="none" stroke="black" d="M125.99,-163.27C118.47,-135.7 109.93,-86.06 133.5,-54 149.83,-31.78 180.48,-23.37 205.13,-20.32"/>
<polygon fill="black" stroke="black" points="205.34,-23.72 214.96,-19.26 204.67,-16.75 205.34,-23.72"/>
<polygon fill="none" stroke="black" points="136.5,-98 136.5,-115 335.5,-115 335.5,-98 136.5,-98"/>
<text text-anchor="start" x="211.5" y="-105" font-family="Courier New" font-weight="bold" font-size="10.00" fill="orange">CLICK(,)</text>
<polygon fill="none" stroke="black" points="136.5,-57 136.5,-96 335.5,-96 335.5,-57 136.5,-57"/>
<text text-anchor="start" x="139.5" y="-85" font-family="Courier New" font-size="10.00" fill="blue"> &#160;&#160;&#160;SHOW(0,IDS_CARDANI);</text>
<text text-anchor="start" x="139.5" y="-74" font-family="Courier New" font-size="10.00" fill="blue"> &#160;&#160;&#160;ANIMATE();</text>
<text text-anchor="start" x="139.5" y="-63" font-family="Courier New" font-size="10.00" fill="blue"> &#160;&#160;&#160;PLAYWAVE(0,SOUND_CARDEJECT);</text>
<polygon fill="none" stroke="black" points="133.5,-54 133.5,-118 338.5,-118 338.5,-54 133.5,-54"/>
</g>
<!-- 30&#45;&gt;10 -->
<g id="edge4" class="edge">
<title>30&#45;&gt;10</title>
<path fill="none" stroke="black" d="M269.06,-20.64C291.69,-23.6 322.94,-31.76 338.5,-54 424.63,-177.08 424.63,-268.92 338.5,-392 325.31,-410.85 300.84,-419.58 279.92,-423.61"/>
<polygon fill="black" stroke="black" points="279.38,-420.32 270.06,-425.36 280.49,-427.23 279.38,-420.32"/>
<polygon fill="none" stroke="black" points="405.5,-213 405.5,-230 574.5,-230 574.5,-213 405.5,-213"/>
<text text-anchor="start" x="462.5" y="-220" font-family="Courier New" font-weight="bold" font-size="10.00" fill="orange">GRAB(0,0)</text>
<polygon fill="none" stroke="black" points="405.5,-139 405.5,-211 574.5,-211 574.5,-139 405.5,-139"/>
<text text-anchor="start" x="408.5" y="-200" font-family="Courier New" font-size="10.00" fill="blue"> &#160;&#160;&#160;CLEAR(WOBJECT);</text>
<text text-anchor="start" x="408.5" y="-189" font-family="Courier New" font-size="10.00" fill="blue"> &#160;&#160;&#160;CLEAR(WPARM);</text>
<text text-anchor="start" x="408.5" y="-178" font-family="Courier New" font-size="10.00" fill="blue"> &#160;&#160;&#160;SHOW();</text>
<text text-anchor="start" x="408.5" y="-167" font-family="Courier New" font-size="10.00" fill="blue"> &#160;&#160;&#160;SIGNAL(WIP2,SIG_CLEAR);</text>
<text text-anchor="start" x="408.5" y="-156" font-family="Courier New" font-size="10.00" fill="blue"> &#160;&#160;&#160;SIGNAL(WIP3,SIG_CLEAR);</text>
<text text-anchor="start" x="408.5" y="-145" font-family="Courier New" font-size="10.00" fill="blue"> &#160;&#160;&#160;SIGNAL(WIP4,SIG_CLEAR);</text>
<polygon fill="none" stroke="black" points="402.5,-136 402.5,-233 577.5,-233 577.5,-136 402.5,-136"/>
</g>
<!-- status -->
<g id="node6" class="node">
<title>status</title>
<polygon fill="none" stroke="black" points="288,-501.5 288,-573.5 875,-573.5 875,-501.5 288,-501.5"/>
<polygon fill="none" stroke="black" points="299,-549.5 299,-566.5 864,-566.5 864,-549.5 299,-549.5"/>
<text text-anchor="start" x="539" y="-556.5" font-family="Courier New" font-weight="bold" font-size="10.00">S08_CARDHOLD_4</text>
<polygon fill="none" stroke="black" points="299,-508.5 299,-547.5 864,-547.5 864,-508.5 299,-508.5"/>
<text text-anchor="start" x="302" y="-536.5" font-family="Courier New" font-size="10.00" fill="green">VIEW::IDV_MANREP4 @pos(left:188, top:174)</text>
<text text-anchor="start" x="302" y="-525.5" font-family="Courier New" font-size="10.00" fill="green">S08_CARDHOLD_4::M08_CARDHOLD(&#39;S08_HOPPER_4&#39;,&#39;S08_CHEMIND1_4&#39;,&#39;S08_CHEMIND2_4&#39;,&#39;S08_PLAQUE_4&#39;)</text>
<text text-anchor="start" x="302" y="-514.5" font-family="Courier New" font-size="10.00" fill="green">{state:&#39;20&#39;: wParm:&#45;1535 wObject:IDD_CARD01 wSprite:IDS_CARDANI bFrame:0 wAccept:IDC_CARD</text>
<polygon fill="none" stroke="black" points="296,-505.5 296,-569.5 867,-569.5 867,-505.5 296,-505.5"/>
</g>
</g>
</svg>
