<?xml version="1.0" encoding="UTF-8" standalone="no"?>
<!DOCTYPE svg PUBLIC "-//W3C//DTD SVG 1.1//EN"
 "http://www.w3.org/Graphics/SVG/1.1/DTD/svg11.dtd">
<!-- Generated by graphviz version 8.0.1 (20230327.1645)
 -->
<!-- Title: Automaton Pages: 1 -->
<svg width="929pt" height="228pt"
 viewBox="0.00 0.00 929.04 228.00" xmlns="http://www.w3.org/2000/svg" xmlns:xlink="http://www.w3.org/1999/xlink">
<g id="graph0" class="graph" transform="scale(1 1) rotate(0) translate(4 224)">
<title>Automaton</title>
<polygon fill="white" stroke="none" points="-4,4 -4,-224 925.04,-224 925.04,4 -4,4"/>
<!-- filename -->
<g id="node1" class="node">
<title>filename</title>
<polygon fill="none" stroke="black" points="15.04,-158.5 15.04,-208.5 188.04,-208.5 188.04,-158.5 15.04,-158.5"/>
<polygon fill="none" stroke="black" points="26.04,-184.5 26.04,-201.5 177.04,-201.5 177.04,-184.5 26.04,-184.5"/>
<text text-anchor="start" x="29.04" y="-191.5" font-family="Courier New" font-weight="bold" font-size="10.00">S08_HOPPER_1::M08_HOPPER</text>
<polygon fill="none" stroke="black" points="26.04,-165.5 26.04,-182.5 177.04,-182.5 177.04,-165.5 26.04,-165.5"/>
<text text-anchor="start" x="56.04" y="-171.5" font-family="Courier New" font-size="10.00" fill="brown">start state = 0</text>
<polygon fill="none" stroke="black" points="23.04,-162.5 23.04,-204.5 180.04,-204.5 180.04,-162.5 23.04,-162.5"/>
</g>
<!-- 0 -->
<g id="node2" class="node">
<title>0</title>
<polyline fill="none" stroke="darkred" stroke-width="3" points="225.54,-172.5 241.54,-172.5"/>
<text text-anchor="start" x="229.04" y="-180.8" font-family="Courier New" font-weight="bold" font-size="14.00">0</text>
<path fill="none" stroke="darkred" stroke-width="3" d="M229.21,-167.5C229.21,-167.5 237.87,-167.5 237.87,-167.5 242.21,-167.5 246.54,-171.83 246.54,-176.17 246.54,-176.17 246.54,-190.83 246.54,-190.83 246.54,-195.17 242.21,-199.5 237.87,-199.5 237.87,-199.5 229.21,-199.5 229.21,-199.5 224.87,-199.5 220.54,-195.17 220.54,-190.83 220.54,-190.83 220.54,-176.17 220.54,-176.17 220.54,-171.83 224.87,-167.5 229.21,-167.5"/>
</g>
<!-- 0&#45;&gt;0 -->
<g id="edge1" class="edge">
<title>0&#45;&gt;0</title>
<path fill="none" stroke="black" d="M260.33,-200.71C270.32,-201.28 278.54,-195.54 278.54,-183.5 278.54,-176.16 275.49,-171.17 270.84,-168.51"/>
<polygon fill="black" stroke="black" points="271.84,-164.93 261.33,-166.29 270.39,-171.78 271.84,-164.93"/>
<polygon fill="none" stroke="black" points="281.54,-195.5 281.54,-212.5 450.54,-212.5 450.54,-195.5 281.54,-195.5"/>
<text text-anchor="start" x="311.54" y="-202.5" font-family="Courier New" font-weight="bold" font-size="10.00" fill="orange">DRAG(0,IDD_SCOOPF)</text>
<polygon fill="none" stroke="black" points="281.54,-154.5 281.54,-193.5 450.54,-193.5 450.54,-154.5 281.54,-154.5"/>
<text text-anchor="start" x="284.54" y="-182.5" font-family="Courier New" font-size="10.00" fill="blue"> &#160;&#160;&#160;HANDOFF(0,IDD_SCOOPE);</text>
<text text-anchor="start" x="284.54" y="-171.5" font-family="Courier New" font-size="10.00" fill="blue"> &#160;&#160;&#160;PLAYWAVE(0,SOUND_SPIT);</text>
<text text-anchor="start" x="284.54" y="-160.5" font-family="Courier New" font-size="10.00" fill="blue"> &#160;&#160;&#160;ADDI(BPARM,1);</text>
<polygon fill="none" stroke="black" points="278.54,-151.5 278.54,-215.5 453.54,-215.5 453.54,-151.5 278.54,-151.5"/>
</g>
<!-- 10 -->
<g id="node3" class="node">
<title>10</title>
<polyline fill="none" stroke="darkred" points="222.04,-7.5 245.04,-7.5"/>
<text text-anchor="start" x="225.04" y="-15.3" font-family="Courier New" font-weight="bold" font-size="14.00">10</text>
<path fill="none" stroke="darkred" d="M228.04,-4.5C228.04,-4.5 239.04,-4.5 239.04,-4.5 243.54,-4.5 248.04,-9 248.04,-13.5 248.04,-13.5 248.04,-22.5 248.04,-22.5 248.04,-27 243.54,-31.5 239.04,-31.5 239.04,-31.5 228.04,-31.5 228.04,-31.5 223.54,-31.5 219.04,-27 219.04,-22.5 219.04,-22.5 219.04,-13.5 219.04,-13.5 219.04,-9 223.54,-4.5 228.04,-4.5"/>
</g>
<!-- 0&#45;&gt;10 -->
<g id="edge2" class="edge">
<title>0&#45;&gt;10</title>
<path fill="none" stroke="black" d="M216.97,-162.05C211.14,-156.22 204.14,-150.51 196.54,-147 160.04,-130.16 43.51,-158.81 16.54,-129 -5.83,-104.28 -5.07,-79.38 16.54,-54 39.11,-27.5 139.71,-20.99 195.67,-19.44"/>
<polygon fill="black" stroke="black" points="195.64,-22.92 205.56,-19.19 195.48,-15.92 195.64,-22.92"/>
<text text-anchor="start" x="20.54" y="-90" font-family="Courier New" font-weight="bold" font-size="10.00" fill="orange">DRAG(0,IDD_SCOOPE)</text>
</g>
<!-- 0&#45;&gt;10 -->
<g id="edge3" class="edge">
<title>0&#45;&gt;10</title>
<path fill="none" stroke="black" d="M215.04,-162.36C209.43,-156.95 203.03,-151.38 196.54,-147 180.38,-136.09 167.12,-145.37 156.54,-129 138.44,-101.01 138.49,-82.03 156.54,-54 165.52,-40.06 181.56,-31.6 196.69,-26.51"/>
<polygon fill="black" stroke="black" points="197.31,-29.68 205.91,-23.5 195.33,-22.97 197.31,-29.68"/>
<polygon fill="none" stroke="black" points="159.54,-92.5 159.54,-109.5 286.54,-109.5 286.54,-92.5 159.54,-92.5"/>
<text text-anchor="start" x="174.54" y="-99.5" font-family="Courier New" font-weight="bold" font-size="10.00" fill="orange">WAIT(,SIG_CLEAR)</text>
<polygon fill="none" stroke="black" points="159.54,-73.5 159.54,-90.5 286.54,-90.5 286.54,-73.5 159.54,-73.5"/>
<text text-anchor="start" x="162.54" y="-79.5" font-family="Courier New" font-size="10.00" fill="blue"> &#160;&#160;&#160;ASSIGN(BPARM,0);</text>
<polygon fill="none" stroke="black" points="156.54,-70.5 156.54,-112.5 289.54,-112.5 289.54,-70.5 156.54,-70.5"/>
</g>
<!-- 10&#45;&gt;0 -->
<g id="edge4" class="edge">
<title>10&#45;&gt;0</title>
<path fill="none" stroke="black" d="M260.27,-28.81C271.41,-34.38 283.2,-42.57 289.54,-54 305.7,-83.15 302.65,-98.35 289.54,-129 284.93,-139.77 276.97,-149.41 268.48,-157.44"/>
<polygon fill="black" stroke="black" points="266.48,-155.41 261.26,-164.63 271.09,-160.68 266.48,-155.41"/>
<text text-anchor="start" x="304.54" y="-90" font-family="Courier New" font-weight="bold" font-size="10.00" fill="blue">LTEi(BPARM,0)</text>
</g>
<!-- 10&#45;&gt;0 -->
<g id="edge5" class="edge">
<title>10&#45;&gt;0</title>
<path fill="none" stroke="black" d="M260.5,-20.99C301.22,-24.63 375.4,-33.9 391.54,-54 412.41,-79.99 410.97,-101.91 391.54,-129 364.2,-167.13 308.18,-178.42 270.74,-181.58"/>
<polygon fill="black" stroke="black" points="270.98,-178.12 261.24,-182.29 271.45,-185.11 270.98,-178.12"/>
<polygon fill="none" stroke="black" points="409.54,-109 409.54,-126 584.54,-126 584.54,-109 409.54,-109"/>
<text text-anchor="start" x="460.54" y="-116" font-family="Courier New" font-weight="bold" font-size="10.00" fill="blue">Z_EPSILON(,)</text>
<polygon fill="none" stroke="black" points="409.54,-57 409.54,-107 584.54,-107 584.54,-57 409.54,-57"/>
<text text-anchor="start" x="412.54" y="-96" font-family="Courier New" font-size="10.00" fill="blue"> &#160;&#160;&#160;HANDOFF(0,IDD_SCOOPF);</text>
<text text-anchor="start" x="412.54" y="-85" font-family="Courier New" font-size="10.00" fill="blue"> &#160;&#160;&#160;PLAYWAVE(0,SOUND_SLURP);</text>
<text text-anchor="start" x="412.54" y="-74" font-family="Courier New" font-size="10.00" fill="blue"> &#160;&#160;&#160;SUBI(BPARM,1);</text>
<text text-anchor="start" x="412.54" y="-63" font-family="Courier New" font-size="10.00" fill="blue"> &#160;&#160;&#160;</text>
<polygon fill="none" stroke="black" points="406.54,-54 406.54,-129 587.54,-129 587.54,-54 406.54,-54"/>
</g>
<!-- status -->
<g id="node4" class="node">
<title>status</title>
<polygon fill="none" stroke="black" points="472.04,-147.5 472.04,-219.5 921.04,-219.5 921.04,-147.5 472.04,-147.5"/>
<polygon fill="none" stroke="black" points="483.04,-195.5 483.04,-212.5 910.04,-212.5 910.04,-195.5 483.04,-195.5"/>
<text text-anchor="start" x="660.04" y="-202.5" font-family="Courier New" font-weight="bold" font-size="10.00">S08_HOPPER_1</text>
<polygon fill="none" stroke="black" points="483.04,-154.5 483.04,-193.5 910.04,-193.5 910.04,-154.5 483.04,-154.5"/>
<text text-anchor="start" x="486.04" y="-182.5" font-family="Courier New" font-size="10.00" fill="green">VIEW::IDV_MANREP1 @pos(left:167, top:247)</text>
<text text-anchor="start" x="486.04" y="-171.5" font-family="Courier New" font-size="10.00" fill="green">S08_HOPPER_1::M08_HOPPER(&#39;S08_CARDHOLD_1&#39;,&#39;S08_BIN_1&#39;,&#39;S08_BEEM_1&#39;,&#39;&#39;)</text>
<text text-anchor="start" x="486.04" y="-160.5" font-family="Courier New" font-size="10.00" fill="green">{state:&#39;0&#39;: bParm:1</text>
<polygon fill="none" stroke="black" points="480.04,-151.5 480.04,-215.5 913.04,-215.5 913.04,-151.5 480.04,-151.5"/>
</g>
</g>
</svg>
