<?xml version="1.0" encoding="UTF-8" standalone="no"?>
<!DOCTYPE svg PUBLIC "-//W3C//DTD SVG 1.1//EN"
 "http://www.w3.org/Graphics/SVG/1.1/DTD/svg11.dtd">
<!-- Generated by graphviz version 8.0.1 (20230327.1645)
 -->
<!-- Title: Automaton Pages: 1 -->
<svg width="1369pt" height="371pt"
 viewBox="0.00 0.00 1368.61 371.00" xmlns="http://www.w3.org/2000/svg" xmlns:xlink="http://www.w3.org/1999/xlink">
<g id="graph0" class="graph" transform="scale(1 1) rotate(0) translate(4 367)">
<title>Automaton</title>
<polygon fill="white" stroke="none" points="-4,4 -4,-367 1364.61,-367 1364.61,4 -4,4"/>
<!-- filename -->
<g id="node1" class="node">
<title>filename</title>
<polygon fill="none" stroke="black" points="566.11,-301.5 566.11,-351.5 709.11,-351.5 709.11,-301.5 566.11,-301.5"/>
<polygon fill="none" stroke="black" points="577.11,-327.5 577.11,-344.5 698.11,-344.5 698.11,-327.5 577.11,-327.5"/>
<text text-anchor="start" x="580.11" y="-334.5" font-family="Courier New" font-weight="bold" font-size="10.00">S0_ALARM_3::M_ALARM</text>
<polygon fill="none" stroke="black" points="577.11,-308.5 577.11,-325.5 698.11,-325.5 698.11,-308.5 577.11,-308.5"/>
<text text-anchor="start" x="592.11" y="-314.5" font-family="Courier New" font-size="10.00" fill="brown">start state = 0</text>
<polygon fill="none" stroke="black" points="574.11,-305.5 574.11,-347.5 701.11,-347.5 701.11,-305.5 574.11,-305.5"/>
</g>
<!-- 0 -->
<g id="node2" class="node">
<title>0</title>
<polyline fill="none" stroke="darkred" points="747.11,-316 762.11,-316"/>
<text text-anchor="start" x="750.11" y="-323.8" font-family="Courier New" font-weight="bold" font-size="14.00">0</text>
<path fill="none" stroke="darkred" d="M751.11,-313C751.11,-313 758.11,-313 758.11,-313 761.61,-313 765.11,-316.5 765.11,-320 765.11,-320 765.11,-333 765.11,-333 765.11,-336.5 761.61,-340 758.11,-340 758.11,-340 751.11,-340 751.11,-340 747.61,-340 744.11,-336.5 744.11,-333 744.11,-333 744.11,-320 744.11,-320 744.11,-316.5 747.61,-313 751.11,-313"/>
</g>
<!-- ready -->
<g id="node3" class="node">
<title>ready</title>
<polyline fill="none" stroke="darkred" stroke-width="3" points="368.11,-179.5 417.11,-179.5"/>
<text text-anchor="start" x="371.61" y="-187.8" font-family="Courier New" font-weight="bold" font-size="14.00">ready</text>
<path fill="none" stroke="darkred" stroke-width="3" d="M373.78,-174.5C373.78,-174.5 411.45,-174.5 411.45,-174.5 416.78,-174.5 422.11,-179.83 422.11,-185.17 422.11,-185.17 422.11,-195.83 422.11,-195.83 422.11,-201.17 416.78,-206.5 411.45,-206.5 411.45,-206.5 373.78,-206.5 373.78,-206.5 368.45,-206.5 363.11,-201.17 363.11,-195.83 363.11,-195.83 363.11,-185.17 363.11,-185.17 363.11,-179.83 368.45,-174.5 373.78,-174.5"/>
</g>
<!-- 0&#45;&gt;ready -->
<g id="edge1" class="edge">
<title>0&#45;&gt;ready</title>
<path fill="none" stroke="black" d="M742.07,-308.83C735.64,-301.64 727.14,-293.97 717.61,-290 681.3,-274.86 37.08,-300.17 9.61,-272 -3.42,-258.63 -2.91,-243.84 9.61,-230 31.57,-205.72 244.31,-196.05 342.9,-192.85"/>
<polygon fill="black" stroke="black" points="342.89,-196.32 352.77,-192.51 342.67,-189.33 342.89,-196.32"/>
<polygon fill="none" stroke="black" points="12.61,-252 12.61,-269 283.61,-269 283.61,-252 12.61,-252"/>
<text text-anchor="start" x="84.61" y="-259" font-family="Courier New" font-weight="bold" font-size="10.00" fill="blue">O_ACCEPT(0,IDD_ALARM)</text>
<polygon fill="none" stroke="black" points="12.61,-233 12.61,-250 283.61,-250 283.61,-233 12.61,-233"/>
<text text-anchor="start" x="15.61" y="-239" font-family="Courier New" font-size="10.00" fill="blue"> &#160;&#160;&#160;ASSIGN(WVIEWID,0); //WILL BE LVIEW VALUE</text>
<polygon fill="none" stroke="black" points="9.61,-230 9.61,-272 286.61,-272 286.61,-230 9.61,-230"/>
</g>
<!-- 0&#45;&gt;ready -->
<g id="edge2" class="edge">
<title>0&#45;&gt;ready</title>
<path fill="none" stroke="black" d="M741.7,-308.54C735.3,-301.47 726.94,-293.99 717.61,-290 675.9,-272.15 340.99,-304.79 309.61,-272 296.71,-258.51 299.57,-245.73 309.61,-230 317.45,-217.73 330.31,-209.31 343.59,-203.56"/>
<polygon fill="black" stroke="black" points="344.68,-206.51 352.76,-199.66 342.17,-199.97 344.68,-206.51"/>
<polygon fill="none" stroke="black" points="312.61,-252 312.61,-269 583.61,-269 583.61,-252 312.61,-252"/>
<text text-anchor="start" x="384.61" y="-259" font-family="Courier New" font-weight="bold" font-size="10.00" fill="blue">O_ACCEPT(0,IDD_ALARM)</text>
<polygon fill="none" stroke="black" points="312.61,-233 312.61,-250 583.61,-250 583.61,-233 312.61,-233"/>
<text text-anchor="start" x="315.61" y="-239" font-family="Courier New" font-size="10.00" fill="blue"> &#160;&#160;&#160;ASSIGN(WVIEWID,0); //WILL BE LVIEW VALUE</text>
<polygon fill="none" stroke="black" points="309.61,-230 309.61,-272 586.61,-272 586.61,-230 309.61,-230"/>
</g>
<!-- 0&#45;&gt;ready -->
<g id="edge3" class="edge">
<title>0&#45;&gt;ready</title>
<path fill="none" stroke="black" d="M741.12,-308.68C734.72,-301.82 726.53,-294.47 717.61,-290 674.12,-268.18 649.29,-300.17 609.61,-272 592.26,-259.68 603.77,-242.59 586.61,-230 564.09,-213.48 491.84,-202.41 442.16,-196.53"/>
<polygon fill="black" stroke="black" points="442.65,-192.95 432.31,-195.29 441.85,-199.9 442.65,-192.95"/>
<polygon fill="none" stroke="black" points="612.61,-252 612.61,-269 883.61,-269 883.61,-252 612.61,-252"/>
<text text-anchor="start" x="684.61" y="-259" font-family="Courier New" font-weight="bold" font-size="10.00" fill="blue">O_ACCEPT(0,IDD_ALARM)</text>
<polygon fill="none" stroke="black" points="612.61,-233 612.61,-250 883.61,-250 883.61,-233 612.61,-233"/>
<text text-anchor="start" x="615.61" y="-239" font-family="Courier New" font-size="10.00" fill="blue"> &#160;&#160;&#160;ASSIGN(WVIEWID,0); //WILL BE LVIEW VALUE</text>
<polygon fill="none" stroke="black" points="609.61,-230 609.61,-272 886.61,-272 886.61,-230 609.61,-230"/>
</g>
<!-- alarmDropped -->
<g id="node4" class="node">
<title>alarmDropped</title>
<polyline fill="none" stroke="darkred" points="743.61,-7.5 849.61,-7.5"/>
<text text-anchor="start" x="746.61" y="-15.3" font-family="Courier New" font-weight="bold" font-size="14.00">alarmDropped</text>
<path fill="none" stroke="darkred" d="M749.61,-4.5C749.61,-4.5 843.61,-4.5 843.61,-4.5 848.11,-4.5 852.61,-9 852.61,-13.5 852.61,-13.5 852.61,-22.5 852.61,-22.5 852.61,-27 848.11,-31.5 843.61,-31.5 843.61,-31.5 749.61,-31.5 749.61,-31.5 745.11,-31.5 740.61,-27 740.61,-22.5 740.61,-22.5 740.61,-13.5 740.61,-13.5 740.61,-9 745.11,-4.5 749.61,-4.5"/>
</g>
<!-- ready&#45;&gt;alarmDropped -->
<g id="edge7" class="edge">
<title>ready&#45;&gt;alarmDropped</title>
<path fill="none" stroke="black" d="M353.87,-189.74C323.41,-187.62 282.71,-179.18 261.61,-151 235.78,-116.48 232.14,-85.46 261.61,-54 292.41,-21.12 582.55,-17.95 722.2,-18.36"/>
<polygon fill="black" stroke="black" points="721.79,-21.87 731.8,-18.4 721.81,-14.87 721.79,-21.87"/>
<polygon fill="none" stroke="black" points="264.61,-131 264.61,-148 451.61,-148 451.61,-131 264.61,-131"/>
<text text-anchor="start" x="306.61" y="-138" font-family="Courier New" font-weight="bold" font-size="10.00" fill="orange">DROP(0,IDD_ALARM)</text>
<polygon fill="none" stroke="black" points="264.61,-57 264.61,-129 451.61,-129 451.61,-57 264.61,-57"/>
<text text-anchor="start" x="267.61" y="-118" font-family="Courier New" font-size="10.00" fill="blue"> &#160;&#160;&#160;MOV(WVIEWID,LVIEW);</text>
<text text-anchor="start" x="267.61" y="-107" font-family="Courier New" font-size="10.00" fill="blue"> &#160;&#160;&#160;MOV(WSPRITE,IDS_ALARMRED);</text>
<text text-anchor="start" x="267.61" y="-96" font-family="Courier New" font-size="10.00" fill="blue"> &#160;&#160;&#160;SHOW(WSPRITE);</text>
<text text-anchor="start" x="267.61" y="-85" font-family="Courier New" font-size="10.00" fill="blue"> &#160;&#160;&#160;ANIMATE();</text>
<text text-anchor="start" x="267.61" y="-74" font-family="Courier New" font-size="10.00" fill="blue"> &#160;&#160;&#160;MOV(WSPRITE,IDS_ALARMGRN);</text>
<text text-anchor="start" x="267.61" y="-63" font-family="Courier New" font-size="10.00" fill="blue"> &#160;&#160;&#160;SHOW(WSPRITE);</text>
<polygon fill="none" stroke="black" points="261.61,-54 261.61,-151 454.61,-151 454.61,-54 261.61,-54"/>
</g>
<!-- ready&#45;&gt;alarmDropped -->
<g id="edge8" class="edge">
<title>ready&#45;&gt;alarmDropped</title>
<path fill="none" stroke="black" d="M431.51,-171.8C440.21,-166.24 448.62,-159.33 454.61,-151 480.5,-115.04 444.41,-83.34 477.61,-54 495.58,-38.13 633.51,-27.78 722.03,-22.7"/>
<polygon fill="black" stroke="black" points="722.05,-26.15 731.83,-22.09 721.65,-19.16 722.05,-26.15"/>
<polygon fill="none" stroke="black" points="480.61,-131 480.61,-148 667.61,-148 667.61,-131 480.61,-131"/>
<text text-anchor="start" x="522.61" y="-138" font-family="Courier New" font-weight="bold" font-size="10.00" fill="orange">DROP(0,IDD_ALARM)</text>
<polygon fill="none" stroke="black" points="480.61,-57 480.61,-129 667.61,-129 667.61,-57 480.61,-57"/>
<text text-anchor="start" x="483.61" y="-118" font-family="Courier New" font-size="10.00" fill="blue"> &#160;&#160;&#160;MOV(WVIEWID,LVIEW);</text>
<text text-anchor="start" x="483.61" y="-107" font-family="Courier New" font-size="10.00" fill="blue"> &#160;&#160;&#160;MOV(WSPRITE,IDS_ALARMRED);</text>
<text text-anchor="start" x="483.61" y="-96" font-family="Courier New" font-size="10.00" fill="blue"> &#160;&#160;&#160;SHOW(WSPRITE);</text>
<text text-anchor="start" x="483.61" y="-85" font-family="Courier New" font-size="10.00" fill="blue"> &#160;&#160;&#160;ANIMATE();</text>
<text text-anchor="start" x="483.61" y="-74" font-family="Courier New" font-size="10.00" fill="blue"> &#160;&#160;&#160;MOV(WSPRITE,IDS_ALARMGRN);</text>
<text text-anchor="start" x="483.61" y="-63" font-family="Courier New" font-size="10.00" fill="blue"> &#160;&#160;&#160;SHOW(WSPRITE);</text>
<polygon fill="none" stroke="black" points="477.61,-54 477.61,-151 670.61,-151 670.61,-54 477.61,-54"/>
</g>
<!-- ready&#45;&gt;alarmDropped -->
<g id="edge9" class="edge">
<title>ready&#45;&gt;alarmDropped</title>
<path fill="none" stroke="black" d="M431.42,-189.36C499.46,-188.28 636.32,-182.18 670.61,-151 703.4,-121.2 663.8,-86.78 693.61,-54 701.54,-45.28 711.73,-38.73 722.59,-33.82"/>
<polygon fill="black" stroke="black" points="723.75,-36.72 731.72,-29.74 721.14,-30.23 723.75,-36.72"/>
<polygon fill="none" stroke="black" points="696.61,-131 696.61,-148 883.61,-148 883.61,-131 696.61,-131"/>
<text text-anchor="start" x="738.61" y="-138" font-family="Courier New" font-weight="bold" font-size="10.00" fill="orange">DROP(0,IDD_ALARM)</text>
<polygon fill="none" stroke="black" points="696.61,-57 696.61,-129 883.61,-129 883.61,-57 696.61,-57"/>
<text text-anchor="start" x="699.61" y="-118" font-family="Courier New" font-size="10.00" fill="blue"> &#160;&#160;&#160;MOV(WVIEWID,LVIEW);</text>
<text text-anchor="start" x="699.61" y="-107" font-family="Courier New" font-size="10.00" fill="blue"> &#160;&#160;&#160;MOV(WSPRITE,IDS_ALARMRED);</text>
<text text-anchor="start" x="699.61" y="-96" font-family="Courier New" font-size="10.00" fill="blue"> &#160;&#160;&#160;SHOW(WSPRITE);</text>
<text text-anchor="start" x="699.61" y="-85" font-family="Courier New" font-size="10.00" fill="blue"> &#160;&#160;&#160;ANIMATE();</text>
<text text-anchor="start" x="699.61" y="-74" font-family="Courier New" font-size="10.00" fill="blue"> &#160;&#160;&#160;MOV(WSPRITE,IDS_ALARMGRN);</text>
<text text-anchor="start" x="699.61" y="-63" font-family="Courier New" font-size="10.00" fill="blue"> &#160;&#160;&#160;SHOW(WSPRITE);</text>
<polygon fill="none" stroke="black" points="693.61,-54 693.61,-151 886.61,-151 886.61,-54 693.61,-54"/>
</g>
<!-- alarmDropped&#45;&gt;0 -->
<g id="edge4" class="edge">
<title>alarmDropped&#45;&gt;0</title>
<path fill="none" stroke="black" d="M860.52,-32.68C870.81,-37.71 880.18,-44.59 886.61,-54 913.97,-93.98 917.55,-234.72 886.61,-272 858.89,-305.4 829.08,-269.88 790.61,-290 785.17,-292.85 780.01,-296.79 775.39,-301.02"/>
<polygon fill="black" stroke="black" points="773.26,-298.2 768.7,-307.76 778.23,-303.13 773.26,-298.2"/>
<polygon fill="none" stroke="black" points="910.61,-191.5 910.61,-208.5 1043.61,-208.5 1043.61,-191.5 910.61,-191.5"/>
<text text-anchor="start" x="949.61" y="-198.5" font-family="Courier New" font-weight="bold" font-size="10.00" fill="orange">CLICK(0,)</text>
<polygon fill="none" stroke="black" points="910.61,-172.5 910.61,-189.5 1043.61,-189.5 1043.61,-172.5 910.61,-172.5"/>
<text text-anchor="start" x="913.61" y="-178.5" font-family="Courier New" font-size="10.00" fill="blue"> &#160;&#160;LOADVIEW(WVIEWID);</text>
<polygon fill="none" stroke="black" points="907.61,-169.5 907.61,-211.5 1046.61,-211.5 1046.61,-169.5 907.61,-169.5"/>
</g>
<!-- alarmDropped&#45;&gt;0 -->
<g id="edge5" class="edge">
<title>alarmDropped&#45;&gt;0</title>
<path fill="none" stroke="black" d="M858.58,-35.94C950.65,-64.35 1107.01,-126.95 1050.61,-212 1012.75,-269.1 974.54,-253.36 908.61,-272 857.56,-286.44 838.03,-266.22 790.61,-290 785.12,-292.75 779.94,-296.66 775.31,-300.87"/>
<polygon fill="black" stroke="black" points="773.19,-298.06 768.63,-307.62 778.16,-302.99 773.19,-298.06"/>
<polygon fill="none" stroke="black" points="1064.61,-191.5 1064.61,-208.5 1197.61,-208.5 1197.61,-191.5 1064.61,-191.5"/>
<text text-anchor="start" x="1103.61" y="-198.5" font-family="Courier New" font-weight="bold" font-size="10.00" fill="orange">CLICK(0,)</text>
<polygon fill="none" stroke="black" points="1064.61,-172.5 1064.61,-189.5 1197.61,-189.5 1197.61,-172.5 1064.61,-172.5"/>
<text text-anchor="start" x="1067.61" y="-178.5" font-family="Courier New" font-size="10.00" fill="blue"> &#160;&#160;LOADVIEW(WVIEWID);</text>
<polygon fill="none" stroke="black" points="1061.61,-169.5 1061.61,-211.5 1200.61,-211.5 1200.61,-169.5 1061.61,-169.5"/>
</g>
<!-- alarmDropped&#45;&gt;0 -->
<g id="edge6" class="edge">
<title>alarmDropped&#45;&gt;0</title>
<path fill="none" stroke="black" d="M860.55,-24.81C997.55,-39.75 1299.61,-87.48 1204.61,-212 1143.4,-292.24 1084.91,-253.96 985.61,-272 899.98,-287.56 869.54,-253.3 790.61,-290 784.8,-292.7 779.38,-296.75 774.59,-301.16"/>
<polygon fill="black" stroke="black" points="772.66,-298.14 768.18,-307.74 777.67,-303.04 772.66,-298.14"/>
<polygon fill="none" stroke="black" points="1224.61,-191.5 1224.61,-208.5 1357.61,-208.5 1357.61,-191.5 1224.61,-191.5"/>
<text text-anchor="start" x="1263.61" y="-198.5" font-family="Courier New" font-weight="bold" font-size="10.00" fill="orange">CLICK(0,)</text>
<polygon fill="none" stroke="black" points="1224.61,-172.5 1224.61,-189.5 1357.61,-189.5 1357.61,-172.5 1224.61,-172.5"/>
<text text-anchor="start" x="1227.61" y="-178.5" font-family="Courier New" font-size="10.00" fill="blue"> &#160;&#160;LOADVIEW(WVIEWID);</text>
<polygon fill="none" stroke="black" points="1221.61,-169.5 1221.61,-211.5 1360.61,-211.5 1360.61,-169.5 1221.61,-169.5"/>
</g>
<!-- status -->
<g id="node5" class="node">
<title>status</title>
<polygon fill="none" stroke="black" points="800.11,-290.5 800.11,-362.5 1189.11,-362.5 1189.11,-290.5 800.11,-290.5"/>
<polygon fill="none" stroke="black" points="811.11,-338.5 811.11,-355.5 1178.11,-355.5 1178.11,-338.5 811.11,-338.5"/>
<text text-anchor="start" x="964.11" y="-345.5" font-family="Courier New" font-weight="bold" font-size="10.00">S0_ALARM_3</text>
<polygon fill="none" stroke="black" points="811.11,-297.5 811.11,-336.5 1178.11,-336.5 1178.11,-297.5 811.11,-297.5"/>
<text text-anchor="start" x="814.11" y="-325.5" font-family="Courier New" font-size="10.00" fill="green">VIEW::IDV_MAIN_PANEL @pos(left:271, top:69)</text>
<text text-anchor="start" x="814.11" y="-314.5" font-family="Courier New" font-size="10.00" fill="green">S0_ALARM_3::M_ALARM(&#39;&#39;,&#39;&#39;,&#39;&#39;,&#39;&#39;)</text>
<text text-anchor="start" x="814.11" y="-303.5" font-family="Courier New" font-size="10.00" fill="green">{&#39;ready&#39;: wObject:IDD_ALARM wSprite:ALMGRN wAccept:IDD_ALARM</text>
<polygon fill="none" stroke="black" points="808.11,-294.5 808.11,-358.5 1181.11,-358.5 1181.11,-294.5 808.11,-294.5"/>
</g>
</g>
</svg>
