<?xml version="1.0" encoding="UTF-8" standalone="no"?>
<!DOCTYPE svg PUBLIC "-//W3C//DTD SVG 1.1//EN"
 "http://www.w3.org/Graphics/SVG/1.1/DTD/svg11.dtd">
<!-- Generated by graphviz version 8.0.1 (20230327.1645)
 -->
<!-- Title: Automaton Pages: 1 -->
<svg width="673pt" height="469pt"
 viewBox="0.00 0.00 673.00 469.00" xmlns="http://www.w3.org/2000/svg" xmlns:xlink="http://www.w3.org/1999/xlink">
<g id="graph0" class="graph" transform="scale(1 1) rotate(0) translate(4 465)">
<title>Automaton</title>
<polygon fill="white" stroke="none" points="-4,4 -4,-465 669,-465 669,4 -4,4"/>
<!-- filename -->
<g id="node1" class="node">
<title>filename</title>
<polygon fill="none" stroke="black" points="0,-399.5 0,-449.5 143,-449.5 143,-399.5 0,-399.5"/>
<polygon fill="none" stroke="black" points="11,-425.5 11,-442.5 132,-442.5 132,-425.5 11,-425.5"/>
<text text-anchor="start" x="14" y="-432.5" font-family="Courier New" font-weight="bold" font-size="10.00">S0_ALARM_7::M_ALARM</text>
<polygon fill="none" stroke="black" points="11,-406.5 11,-423.5 132,-423.5 132,-406.5 11,-406.5"/>
<text text-anchor="start" x="26" y="-412.5" font-family="Courier New" font-size="10.00" fill="brown">start state = 0</text>
<polygon fill="none" stroke="black" points="8,-403.5 8,-445.5 135,-445.5 135,-403.5 8,-403.5"/>
</g>
<!-- 0 -->
<g id="node2" class="node">
<title>0</title>
<polyline fill="none" stroke="darkred" points="181,-414 196,-414"/>
<text text-anchor="start" x="184" y="-421.8" font-family="Courier New" font-weight="bold" font-size="14.00">0</text>
<path fill="none" stroke="darkred" d="M185,-411C185,-411 192,-411 192,-411 195.5,-411 199,-414.5 199,-418 199,-418 199,-431 199,-431 199,-434.5 195.5,-438 192,-438 192,-438 185,-438 185,-438 181.5,-438 178,-434.5 178,-431 178,-431 178,-418 178,-418 178,-414.5 181.5,-411 185,-411"/>
</g>
<!-- ready -->
<g id="node3" class="node">
<title>ready</title>
<polyline fill="none" stroke="darkred" points="60.5,-273 108.5,-273"/>
<text text-anchor="start" x="63.5" y="-280.8" font-family="Courier New" font-weight="bold" font-size="14.00">ready</text>
<path fill="none" stroke="darkred" d="M66.5,-270C66.5,-270 102.5,-270 102.5,-270 107,-270 111.5,-274.5 111.5,-279 111.5,-279 111.5,-288 111.5,-288 111.5,-292.5 107,-297 102.5,-297 102.5,-297 66.5,-297 66.5,-297 62,-297 57.5,-292.5 57.5,-288 57.5,-288 57.5,-279 57.5,-279 57.5,-274.5 62,-270 66.5,-270"/>
</g>
<!-- 0&#45;&gt;ready -->
<g id="edge1" class="edge">
<title>0&#45;&gt;ready</title>
<path fill="none" stroke="black" d="M175.01,-406.68C168.61,-399.82 160.41,-392.47 151.5,-388 108,-366.18 74.95,-407.13 43.5,-370 31.43,-355.76 36.61,-345.35 43.5,-328 46.23,-321.13 50.61,-314.72 55.52,-309.04"/>
<polygon fill="black" stroke="black" points="57.56,-311.92 61.95,-302.27 52.5,-307.08 57.56,-311.92"/>
<polygon fill="none" stroke="black" points="46.5,-350 46.5,-367 317.5,-367 317.5,-350 46.5,-350"/>
<text text-anchor="start" x="118.5" y="-357" font-family="Courier New" font-weight="bold" font-size="10.00" fill="blue">O_ACCEPT(0,IDD_ALARM)</text>
<polygon fill="none" stroke="black" points="46.5,-331 46.5,-348 317.5,-348 317.5,-331 46.5,-331"/>
<text text-anchor="start" x="49.5" y="-337" font-family="Courier New" font-size="10.00" fill="blue"> &#160;&#160;&#160;ASSIGN(WVIEWID,0); //WILL BE LVIEW VALUE</text>
<polygon fill="none" stroke="black" points="43.5,-328 43.5,-370 320.5,-370 320.5,-328 43.5,-328"/>
</g>
<!-- alarmPresent -->
<g id="node4" class="node">
<title>alarmPresent</title>
<polyline fill="none" stroke="darkred" stroke-width="3" points="156,-124.5 263,-124.5"/>
<text text-anchor="start" x="159.5" y="-132.8" font-family="Courier New" font-weight="bold" font-size="14.00">alarmPresent</text>
<path fill="none" stroke="darkred" stroke-width="3" d="M161.67,-119.5C161.67,-119.5 257.33,-119.5 257.33,-119.5 262.67,-119.5 268,-124.83 268,-130.17 268,-130.17 268,-140.83 268,-140.83 268,-146.17 262.67,-151.5 257.33,-151.5 257.33,-151.5 161.67,-151.5 161.67,-151.5 156.33,-151.5 151,-146.17 151,-140.83 151,-140.83 151,-130.17 151,-130.17 151,-124.83 156.33,-119.5 161.67,-119.5"/>
</g>
<!-- ready&#45;&gt;alarmPresent -->
<g id="edge5" class="edge">
<title>ready&#45;&gt;alarmPresent</title>
<path fill="none" stroke="black" d="M87.28,-265.5C91.88,-242.36 103.09,-200.88 127.5,-175 131.86,-170.38 136.88,-166.26 142.24,-162.6"/>
<polygon fill="black" stroke="black" points="143.87,-165.09 150.55,-156.86 140.2,-159.13 143.87,-165.09"/>
<polygon fill="none" stroke="black" points="130.5,-219 130.5,-236 317.5,-236 317.5,-219 130.5,-219"/>
<text text-anchor="start" x="172.5" y="-226" font-family="Courier New" font-weight="bold" font-size="10.00" fill="orange">DROP(0,IDD_ALARM)</text>
<polygon fill="none" stroke="black" points="130.5,-178 130.5,-217 317.5,-217 317.5,-178 130.5,-178"/>
<text text-anchor="start" x="133.5" y="-206" font-family="Courier New" font-size="10.00" fill="blue"> &#160;&#160;&#160;MOV(WVIEWID,LVIEW);</text>
<text text-anchor="start" x="133.5" y="-195" font-family="Courier New" font-size="10.00" fill="blue"> &#160;&#160;&#160;MOV(WSPRITE,IDS_ALARMGRN);</text>
<text text-anchor="start" x="133.5" y="-184" font-family="Courier New" font-size="10.00" fill="blue"> &#160;&#160;&#160;SHOW(WSPRITE);</text>
<polygon fill="none" stroke="black" points="127.5,-175 127.5,-239 320.5,-239 320.5,-175 127.5,-175"/>
</g>
<!-- alarmPresent&#45;&gt;0 -->
<g id="edge3" class="edge">
<title>alarmPresent&#45;&gt;0</title>
<path fill="none" stroke="black" d="M277.3,-145.78C294.1,-151.46 310.21,-160.54 320.5,-175 370.75,-245.61 375.85,-303.31 320.5,-370 292.78,-403.4 262.97,-367.88 224.5,-388 219.06,-390.85 213.9,-394.79 209.27,-399.02"/>
<polygon fill="black" stroke="black" points="207.15,-396.2 202.59,-405.76 212.12,-401.13 207.15,-396.2"/>
<polygon fill="none" stroke="black" points="362.5,-290 362.5,-307 507.5,-307 507.5,-290 362.5,-290"/>
<text text-anchor="start" x="413.5" y="-297" font-family="Courier New" font-weight="bold" font-size="10.00" fill="orange">GRAB(,)</text>
<polygon fill="none" stroke="black" points="362.5,-260 362.5,-288 507.5,-288 507.5,-260 362.5,-260"/>
<text text-anchor="start" x="365.5" y="-277" font-family="Courier New" font-size="10.00" fill="blue"> &#160;&#160;&#160;HANDOFF(IDD_ALARM);</text>
<text text-anchor="start" x="365.5" y="-266" font-family="Courier New" font-size="10.00" fill="blue"> &#160;&#160;&#160;SHOW();</text>
<polygon fill="none" stroke="black" points="359.5,-257 359.5,-310 510.5,-310 510.5,-257 359.5,-257"/>
</g>
<!-- jump -->
<g id="node5" class="node">
<title>jump</title>
<polyline fill="none" stroke="darkred" points="189.5,-7.5 229.5,-7.5"/>
<text text-anchor="start" x="192.5" y="-15.3" font-family="Courier New" font-weight="bold" font-size="14.00">jump</text>
<path fill="none" stroke="darkred" d="M195.5,-4.5C195.5,-4.5 223.5,-4.5 223.5,-4.5 228,-4.5 232.5,-9 232.5,-13.5 232.5,-13.5 232.5,-22.5 232.5,-22.5 232.5,-27 228,-31.5 223.5,-31.5 223.5,-31.5 195.5,-31.5 195.5,-31.5 191,-31.5 186.5,-27 186.5,-22.5 186.5,-22.5 186.5,-13.5 186.5,-13.5 186.5,-9 191,-4.5 195.5,-4.5"/>
</g>
<!-- alarmPresent&#45;&gt;jump -->
<g id="edge2" class="edge">
<title>alarmPresent&#45;&gt;jump</title>
<path fill="none" stroke="black" d="M147.72,-114.1C140.51,-109.26 134.09,-103.31 129.5,-96 119.57,-80.2 119.28,-69.62 129.5,-54 138.33,-40.5 153.65,-32.17 168.53,-27.05"/>
<polygon fill="black" stroke="black" points="169.11,-30.23 177.68,-24 167.1,-23.53 169.11,-30.23"/>
<polygon fill="none" stroke="black" points="132.5,-76 132.5,-93 265.5,-93 265.5,-76 132.5,-76"/>
<text text-anchor="start" x="171.5" y="-83" font-family="Courier New" font-weight="bold" font-size="10.00" fill="orange">CLICK(0,)</text>
<polygon fill="none" stroke="black" points="132.5,-57 132.5,-74 265.5,-74 265.5,-57 132.5,-57"/>
<text text-anchor="start" x="135.5" y="-63" font-family="Courier New" font-size="10.00" fill="blue"> &#160;&#160;LOADVIEW(WVIEWID);</text>
<polygon fill="none" stroke="black" points="129.5,-54 129.5,-96 268.5,-96 268.5,-54 129.5,-54"/>
</g>
<!-- jump&#45;&gt;alarmPresent -->
<g id="edge4" class="edge">
<title>jump&#45;&gt;alarmPresent</title>
<path fill="none" stroke="black" d="M240.41,-29.82C251.27,-35.29 262.31,-43.13 268.5,-54 277.74,-70.22 277.39,-79.59 268.5,-96 266.34,-99.99 263.56,-103.64 260.4,-106.95"/>
<polygon fill="black" stroke="black" points="258.53,-103.82 253.41,-113.09 263.19,-109.04 258.53,-103.82"/>
<polygon fill="none" stroke="black" points="278.5,-66.5 278.5,-83.5 363.5,-83.5 363.5,-66.5 278.5,-66.5"/>
<text text-anchor="start" x="281.5" y="-73.5" font-family="Courier New" font-weight="bold" font-size="10.00" fill="blue">Z_EPSILON(0,)</text>
<polygon fill="none" stroke="black" points="275.5,-63.5 275.5,-86.5 366.5,-86.5 366.5,-63.5 275.5,-63.5"/>
</g>
<!-- status -->
<g id="node6" class="node">
<title>status</title>
<polygon fill="none" stroke="black" points="234,-388.5 234,-460.5 665,-460.5 665,-388.5 234,-388.5"/>
<polygon fill="none" stroke="black" points="245,-436.5 245,-453.5 654,-453.5 654,-436.5 245,-436.5"/>
<text text-anchor="start" x="419" y="-443.5" font-family="Courier New" font-weight="bold" font-size="10.00">S0_ALARM_7</text>
<polygon fill="none" stroke="black" points="245,-395.5 245,-434.5 654,-434.5 654,-395.5 245,-395.5"/>
<text text-anchor="start" x="248" y="-423.5" font-family="Courier New" font-size="10.00" fill="green">VIEW::IDV_MAIN_PANEL @pos(left:391, top:69)</text>
<text text-anchor="start" x="248" y="-412.5" font-family="Courier New" font-size="10.00" fill="green">S0_ALARM_7::M_ALARM(&#39;&#39;,&#39;&#39;,&#39;&#39;,&#39;&#39;)</text>
<text text-anchor="start" x="248" y="-401.5" font-family="Courier New" font-size="10.00" fill="green">{&#39;alarmPresent&#39;: wObject:IDD_ALARM wSprite:ALMGRN wAccept:IDD_ALARM</text>
<polygon fill="none" stroke="black" points="242,-392.5 242,-456.5 657,-456.5 657,-392.5 242,-392.5"/>
</g>
</g>
</svg>
