<?xml version="1.0" encoding="UTF-8" standalone="no"?>
<!DOCTYPE svg PUBLIC "-//W3C//DTD SVG 1.1//EN"
 "http://www.w3.org/Graphics/SVG/1.1/DTD/svg11.dtd">
<!-- Generated by graphviz version 8.0.1 (20230327.1645)
 -->
<!-- Title: Automaton Pages: 1 -->
<svg width="649pt" height="543pt"
 viewBox="0.00 0.00 649.00 543.00" xmlns="http://www.w3.org/2000/svg" xmlns:xlink="http://www.w3.org/1999/xlink">
<g id="graph0" class="graph" transform="scale(1 1) rotate(0) translate(4 539)">
<title>Automaton</title>
<polygon fill="white" stroke="none" points="-4,4 -4,-539 645,-539 645,4 -4,4"/>
<!-- filename -->
<g id="node1" class="node">
<title>filename</title>
<polygon fill="none" stroke="black" points="0,-473.5 0,-523.5 143,-523.5 143,-473.5 0,-473.5"/>
<polygon fill="none" stroke="black" points="11,-499.5 11,-516.5 132,-516.5 132,-499.5 11,-499.5"/>
<text text-anchor="start" x="14" y="-506.5" font-family="Courier New" font-weight="bold" font-size="10.00">S0_ALARM_4::M_ALARM</text>
<polygon fill="none" stroke="black" points="11,-480.5 11,-497.5 132,-497.5 132,-480.5 11,-480.5"/>
<text text-anchor="start" x="26" y="-486.5" font-family="Courier New" font-size="10.00" fill="brown">start state = 0</text>
<polygon fill="none" stroke="black" points="8,-477.5 8,-519.5 135,-519.5 135,-477.5 8,-477.5"/>
</g>
<!-- 0 -->
<g id="node2" class="node">
<title>0</title>
<polyline fill="none" stroke="darkred" points="181,-488 196,-488"/>
<text text-anchor="start" x="184" y="-495.8" font-family="Courier New" font-weight="bold" font-size="14.00">0</text>
<path fill="none" stroke="darkred" d="M185,-485C185,-485 192,-485 192,-485 195.5,-485 199,-488.5 199,-492 199,-492 199,-505 199,-505 199,-508.5 195.5,-512 192,-512 192,-512 185,-512 185,-512 181.5,-512 178,-508.5 178,-505 178,-505 178,-492 178,-492 178,-488.5 181.5,-485 185,-485"/>
</g>
<!-- ready -->
<g id="node3" class="node">
<title>ready</title>
<polyline fill="none" stroke="darkred" points="60.5,-355.5 108.5,-355.5"/>
<text text-anchor="start" x="63.5" y="-363.3" font-family="Courier New" font-weight="bold" font-size="14.00">ready</text>
<path fill="none" stroke="darkred" d="M66.5,-352.5C66.5,-352.5 102.5,-352.5 102.5,-352.5 107,-352.5 111.5,-357 111.5,-361.5 111.5,-361.5 111.5,-370.5 111.5,-370.5 111.5,-375 107,-379.5 102.5,-379.5 102.5,-379.5 66.5,-379.5 66.5,-379.5 62,-379.5 57.5,-375 57.5,-370.5 57.5,-370.5 57.5,-361.5 57.5,-361.5 57.5,-357 62,-352.5 66.5,-352.5"/>
</g>
<!-- 0&#45;&gt;ready -->
<g id="edge1" class="edge">
<title>0&#45;&gt;ready</title>
<path fill="none" stroke="black" d="M175.01,-480.68C168.61,-473.82 160.41,-466.47 151.5,-462 108,-440.18 74.95,-481.13 43.5,-444 31.43,-429.76 35.68,-418.95 43.5,-402 45.21,-398.3 47.52,-394.84 50.18,-391.66"/>
<polygon fill="black" stroke="black" points="52.34,-394.44 56.88,-384.87 47.36,-389.52 52.34,-394.44"/>
<polygon fill="none" stroke="black" points="46.5,-424 46.5,-441 317.5,-441 317.5,-424 46.5,-424"/>
<text text-anchor="start" x="118.5" y="-431" font-family="Courier New" font-weight="bold" font-size="10.00" fill="blue">O_ACCEPT(0,IDD_ALARM)</text>
<polygon fill="none" stroke="black" points="46.5,-405 46.5,-422 317.5,-422 317.5,-405 46.5,-405"/>
<text text-anchor="start" x="49.5" y="-411" font-family="Courier New" font-size="10.00" fill="blue"> &#160;&#160;&#160;ASSIGN(WVIEWID,0); //WILL BE LVIEW VALUE</text>
<polygon fill="none" stroke="black" points="43.5,-402 43.5,-444 320.5,-444 320.5,-402 43.5,-402"/>
</g>
<!-- alarmDropped -->
<g id="node4" class="node">
<title>alarmDropped</title>
<polyline fill="none" stroke="darkred" points="79.5,-219.5 185.5,-219.5"/>
<text text-anchor="start" x="82.5" y="-227.3" font-family="Courier New" font-weight="bold" font-size="14.00">alarmDropped</text>
<path fill="none" stroke="darkred" d="M85.5,-216.5C85.5,-216.5 179.5,-216.5 179.5,-216.5 184,-216.5 188.5,-221 188.5,-225.5 188.5,-225.5 188.5,-234.5 188.5,-234.5 188.5,-239 184,-243.5 179.5,-243.5 179.5,-243.5 85.5,-243.5 85.5,-243.5 81,-243.5 76.5,-239 76.5,-234.5 76.5,-234.5 76.5,-225.5 76.5,-225.5 76.5,-221 81,-216.5 85.5,-216.5"/>
</g>
<!-- ready&#45;&gt;alarmDropped -->
<g id="edge3" class="edge">
<title>ready&#45;&gt;alarmDropped</title>
<path fill="none" stroke="black" d="M90.58,-348.03C98.69,-325.37 113.16,-284.99 122.79,-258.1"/>
<polygon fill="black" stroke="black" points="126.39,-259.43 126.47,-248.83 119.8,-257.07 126.39,-259.43"/>
<polygon fill="none" stroke="black" points="123.5,-310 123.5,-327 310.5,-327 310.5,-310 123.5,-310"/>
<text text-anchor="start" x="165.5" y="-317" font-family="Courier New" font-weight="bold" font-size="10.00" fill="orange">DROP(0,IDD_ALARM)</text>
<polygon fill="none" stroke="black" points="123.5,-269 123.5,-308 310.5,-308 310.5,-269 123.5,-269"/>
<text text-anchor="start" x="126.5" y="-297" font-family="Courier New" font-size="10.00" fill="blue"> &#160;&#160;&#160;MOV(WVIEWID,LVIEW);</text>
<text text-anchor="start" x="126.5" y="-286" font-family="Courier New" font-size="10.00" fill="blue"> &#160;&#160;&#160;MOV(WSPRITE,IDS_ALARMGRN);</text>
<text text-anchor="start" x="126.5" y="-275" font-family="Courier New" font-size="10.00" fill="blue"> &#160;&#160;&#160;SHOW(WSPRITE);</text>
<polygon fill="none" stroke="black" points="120.5,-266 120.5,-330 313.5,-330 313.5,-266 120.5,-266"/>
</g>
<!-- watching -->
<g id="node5" class="node">
<title>watching</title>
<polyline fill="none" stroke="darkred" stroke-width="3" points="168.5,-101.5 242.5,-101.5"/>
<text text-anchor="start" x="172" y="-109.8" font-family="Courier New" font-weight="bold" font-size="14.00">watching</text>
<path fill="none" stroke="darkred" stroke-width="3" d="M174.17,-96.5C174.17,-96.5 236.83,-96.5 236.83,-96.5 242.17,-96.5 247.5,-101.83 247.5,-107.17 247.5,-107.17 247.5,-117.83 247.5,-117.83 247.5,-123.17 242.17,-128.5 236.83,-128.5 236.83,-128.5 174.17,-128.5 174.17,-128.5 168.83,-128.5 163.5,-123.17 163.5,-117.83 163.5,-117.83 163.5,-107.17 163.5,-107.17 163.5,-101.83 168.83,-96.5 174.17,-96.5"/>
</g>
<!-- alarmDropped&#45;&gt;watching -->
<g id="edge2" class="edge">
<title>alarmDropped&#45;&gt;watching</title>
<path fill="none" stroke="black" d="M142.96,-212.45C154.36,-194.41 172.84,-165.18 186.76,-143.16"/>
<polygon fill="black" stroke="black" points="190.21,-145.24 192.6,-134.91 184.3,-141.5 190.21,-145.24"/>
<polygon fill="none" stroke="black" points="183.5,-174 183.5,-191 316.5,-191 316.5,-174 183.5,-174"/>
<text text-anchor="start" x="222.5" y="-181" font-family="Courier New" font-weight="bold" font-size="10.00" fill="orange">CLICK(0,)</text>
<polygon fill="none" stroke="black" points="183.5,-155 183.5,-172 316.5,-172 316.5,-155 183.5,-155"/>
<text text-anchor="start" x="186.5" y="-161" font-family="Courier New" font-size="10.00" fill="blue"> &#160;&#160;LOADVIEW(WVIEWID);</text>
<polygon fill="none" stroke="black" points="180.5,-152 180.5,-194 319.5,-194 319.5,-152 180.5,-152"/>
</g>
<!-- reset -->
<g id="node6" class="node">
<title>reset</title>
<polyline fill="none" stroke="darkred" points="246.5,-7.5 294.5,-7.5"/>
<text text-anchor="start" x="249.5" y="-15.3" font-family="Courier New" font-weight="bold" font-size="14.00">reset</text>
<path fill="none" stroke="darkred" d="M252.5,-4.5C252.5,-4.5 288.5,-4.5 288.5,-4.5 293,-4.5 297.5,-9 297.5,-13.5 297.5,-13.5 297.5,-22.5 297.5,-22.5 297.5,-27 293,-31.5 288.5,-31.5 288.5,-31.5 252.5,-31.5 252.5,-31.5 248,-31.5 243.5,-27 243.5,-22.5 243.5,-22.5 243.5,-13.5 243.5,-13.5 243.5,-9 248,-4.5 252.5,-4.5"/>
</g>
<!-- watching&#45;&gt;reset -->
<g id="edge5" class="edge">
<title>watching&#45;&gt;reset</title>
<path fill="none" stroke="black" d="M219.6,-91.43C229.25,-77.7 242.12,-59.38 252.51,-44.6"/>
<polygon fill="black" stroke="black" points="255.72,-47.13 258.6,-36.93 249.99,-43.1 255.72,-47.13"/>
<text text-anchor="start" x="250.5" y="-62" font-family="Courier New" font-weight="bold" font-size="10.00" fill="orange">GRAB(0,)</text>
</g>
<!-- reset&#45;&gt;0 -->
<g id="edge4" class="edge">
<title>reset&#45;&gt;0</title>
<path fill="none" stroke="black" d="M291.46,-35.72C310.12,-52.64 334.5,-80.65 334.5,-111.5 334.5,-367 334.5,-367 334.5,-367 334.5,-401.78 345.03,-419.34 320.5,-444 289.89,-474.78 262.97,-441.88 224.5,-462 219.06,-464.85 213.9,-468.79 209.27,-473.02"/>
<polygon fill="black" stroke="black" points="207.15,-470.2 202.59,-479.76 212.12,-475.13 207.15,-470.2"/>
<text text-anchor="start" x="338.5" y="-228.5" font-family="Courier New" font-weight="bold" font-size="10.00" fill="blue">Z_EPSILON(,)</text>
</g>
<!-- status -->
<g id="node7" class="node">
<title>status</title>
<polygon fill="none" stroke="black" points="234,-462.5 234,-534.5 641,-534.5 641,-462.5 234,-462.5"/>
<polygon fill="none" stroke="black" points="245,-510.5 245,-527.5 630,-527.5 630,-510.5 245,-510.5"/>
<text text-anchor="start" x="407" y="-517.5" font-family="Courier New" font-weight="bold" font-size="10.00">S0_ALARM_4</text>
<polygon fill="none" stroke="black" points="245,-469.5 245,-508.5 630,-508.5 630,-469.5 245,-469.5"/>
<text text-anchor="start" x="248" y="-497.5" font-family="Courier New" font-size="10.00" fill="green">VIEW::IDV_MAIN_PANEL @pos(left:301, top:69)</text>
<text text-anchor="start" x="248" y="-486.5" font-family="Courier New" font-size="10.00" fill="green">S0_ALARM_4::M_ALARM(&#39;&#39;,&#39;&#39;,&#39;&#39;,&#39;&#39;)</text>
<text text-anchor="start" x="248" y="-475.5" font-family="Courier New" font-size="10.00" fill="green">{&#39;watching&#39;: wObject:IDD_ALARM wSprite:ALMGRN wAccept:IDD_ALARM</text>
<polygon fill="none" stroke="black" points="242,-466.5 242,-530.5 633,-530.5 633,-466.5 242,-466.5"/>
</g>
</g>
</svg>
