<?xml version="1.0" encoding="UTF-8" standalone="no"?>
<!DOCTYPE svg PUBLIC "-//W3C//DTD SVG 1.1//EN"
 "http://www.w3.org/Graphics/SVG/1.1/DTD/svg11.dtd">
<!-- Generated by graphviz version 8.0.1 (20230327.1645)
 -->
<!-- Title: Automaton Pages: 1 -->
<svg width="707pt" height="734pt"
 viewBox="0.00 0.00 707.37 734.00" xmlns="http://www.w3.org/2000/svg" xmlns:xlink="http://www.w3.org/1999/xlink">
<g id="graph0" class="graph" transform="scale(1 1) rotate(0) translate(4 730)">
<title>Automaton</title>
<polygon fill="white" stroke="none" points="-4,4 -4,-730 703.37,-730 703.37,4 -4,4"/>
<!-- filename -->
<g id="node1" class="node">
<title>filename</title>
<polygon fill="none" stroke="black" points="124.37,-664.5 124.37,-714.5 273.37,-714.5 273.37,-664.5 124.37,-664.5"/>
<polygon fill="none" stroke="black" points="135.37,-690.5 135.37,-707.5 262.37,-707.5 262.37,-690.5 135.37,-690.5"/>
<text text-anchor="start" x="138.37" y="-697.5" font-family="Courier New" font-weight="bold" font-size="10.00">S11_GRILL::M11_GRILL</text>
<polygon fill="none" stroke="black" points="135.37,-671.5 135.37,-688.5 262.37,-688.5 262.37,-671.5 135.37,-671.5"/>
<text text-anchor="start" x="153.37" y="-677.5" font-family="Courier New" font-size="10.00" fill="brown">start state = 0</text>
<polygon fill="none" stroke="black" points="132.37,-668.5 132.37,-710.5 265.37,-710.5 265.37,-668.5 132.37,-668.5"/>
</g>
<!-- 0 -->
<g id="node2" class="node">
<title>0</title>
<polyline fill="none" stroke="darkred" points="311.37,-679 326.37,-679"/>
<text text-anchor="start" x="314.37" y="-686.8" font-family="Courier New" font-weight="bold" font-size="14.00">0</text>
<path fill="none" stroke="darkred" d="M315.37,-676C315.37,-676 322.37,-676 322.37,-676 325.87,-676 329.37,-679.5 329.37,-683 329.37,-683 329.37,-696 329.37,-696 329.37,-699.5 325.87,-703 322.37,-703 322.37,-703 315.37,-703 315.37,-703 311.87,-703 308.37,-699.5 308.37,-696 308.37,-696 308.37,-683 308.37,-683 308.37,-679.5 311.87,-676 315.37,-676"/>
</g>
<!-- emptyGrill -->
<g id="node3" class="node">
<title>emptyGrill</title>
<polyline fill="none" stroke="darkred" points="274.37,-535.5 363.37,-535.5"/>
<text text-anchor="start" x="277.37" y="-543.3" font-family="Courier New" font-weight="bold" font-size="14.00">emptyGrill</text>
<path fill="none" stroke="darkred" d="M280.37,-532.5C280.37,-532.5 357.37,-532.5 357.37,-532.5 361.87,-532.5 366.37,-537 366.37,-541.5 366.37,-541.5 366.37,-550.5 366.37,-550.5 366.37,-555 361.87,-559.5 357.37,-559.5 357.37,-559.5 280.37,-559.5 280.37,-559.5 275.87,-559.5 271.37,-555 271.37,-550.5 271.37,-550.5 271.37,-541.5 271.37,-541.5 271.37,-537 275.87,-532.5 280.37,-532.5"/>
</g>
<!-- 0&#45;&gt;emptyGrill -->
<g id="edge1" class="edge">
<title>0&#45;&gt;emptyGrill</title>
<path fill="none" stroke="black" d="M318.87,-671.71C318.87,-647.78 318.87,-603.56 318.87,-574.72"/>
<polygon fill="black" stroke="black" points="322.37,-574.77 318.87,-564.77 315.37,-574.77 322.37,-574.77"/>
<polygon fill="none" stroke="black" points="321.87,-615 321.87,-632 460.87,-632 460.87,-615 321.87,-615"/>
<text text-anchor="start" x="330.87" y="-622" font-family="Courier New" font-weight="bold" font-size="10.00" fill="blue">C_ACCEPT(0,IDC_FISH)</text>
<polygon fill="none" stroke="black" points="321.87,-585 321.87,-613 460.87,-613 460.87,-585 321.87,-585"/>
<text text-anchor="start" x="324.87" y="-602" font-family="Courier New" font-size="10.00" fill="blue"> &#160;&#160;&#160;REF_MACHINE(WIP1);</text>
<text text-anchor="start" x="324.87" y="-591" font-family="Courier New" font-size="10.00" fill="blue"> </text>
<polygon fill="none" stroke="black" points="318.87,-582 318.87,-635 463.87,-635 463.87,-582 318.87,-582"/>
</g>
<!-- fishOnGrill -->
<g id="node7" class="node">
<title>fishOnGrill</title>
<polyline fill="none" stroke="darkred" stroke-width="3" points="101.87,-395.5 199.87,-395.5"/>
<text text-anchor="start" x="105.37" y="-403.8" font-family="Courier New" font-weight="bold" font-size="14.00">fishOnGrill</text>
<path fill="none" stroke="darkred" stroke-width="3" d="M107.53,-390.5C107.53,-390.5 194.2,-390.5 194.2,-390.5 199.53,-390.5 204.87,-395.83 204.87,-401.17 204.87,-401.17 204.87,-411.83 204.87,-411.83 204.87,-417.17 199.53,-422.5 194.2,-422.5 194.2,-422.5 107.53,-422.5 107.53,-422.5 102.2,-422.5 96.87,-417.17 96.87,-411.83 96.87,-411.83 96.87,-401.17 96.87,-401.17 96.87,-395.83 102.2,-390.5 107.53,-390.5"/>
</g>
<!-- emptyGrill&#45;&gt;fishOnGrill -->
<g id="edge5" class="edge">
<title>emptyGrill&#45;&gt;fishOnGrill</title>
<path fill="none" stroke="black" d="M263.5,-540.76C220.51,-536.18 165.91,-527.12 151.87,-510 135.74,-490.34 137.3,-460.7 141.83,-438.35"/>
<polygon fill="black" stroke="black" points="145.45,-439.25 144.31,-428.72 138.63,-437.66 145.45,-439.25"/>
<polygon fill="none" stroke="black" points="154.87,-490 154.87,-507 293.87,-507 293.87,-490 154.87,-490"/>
<text text-anchor="start" x="196.87" y="-497" font-family="Courier New" font-weight="bold" font-size="10.00" fill="orange">DROP(0,0)</text>
<polygon fill="none" stroke="black" points="154.87,-449 154.87,-488 293.87,-488 293.87,-449 154.87,-449"/>
<text text-anchor="start" x="157.87" y="-477" font-family="Courier New" font-size="10.00" fill="blue"> &#160;&#160;&#160;SHOW(WOBJECT);</text>
<text text-anchor="start" x="157.87" y="-466" font-family="Courier New" font-size="10.00" fill="blue"> &#160;&#160;&#160;ANIMATE(0,V_LOOP);</text>
<text text-anchor="start" x="157.87" y="-455" font-family="Courier New" font-size="10.00" fill="blue"> </text>
<polygon fill="none" stroke="black" points="151.87,-446 151.87,-510 296.87,-510 296.87,-446 151.87,-446"/>
</g>
<!-- burned -->
<g id="node4" class="node">
<title>burned</title>
<polyline fill="none" stroke="darkred" points="231.87,-98.5 287.87,-98.5"/>
<text text-anchor="start" x="234.87" y="-106.3" font-family="Courier New" font-weight="bold" font-size="14.00">burned</text>
<path fill="none" stroke="darkred" d="M237.87,-95.5C237.87,-95.5 281.87,-95.5 281.87,-95.5 286.37,-95.5 290.87,-100 290.87,-104.5 290.87,-104.5 290.87,-113.5 290.87,-113.5 290.87,-118 286.37,-122.5 281.87,-122.5 281.87,-122.5 237.87,-122.5 237.87,-122.5 233.37,-122.5 228.87,-118 228.87,-113.5 228.87,-113.5 228.87,-104.5 228.87,-104.5 228.87,-100 233.37,-95.5 237.87,-95.5"/>
</g>
<!-- takenAsh -->
<g id="node5" class="node">
<title>takenAsh</title>
<polyline fill="none" stroke="darkred" points="321.37,-7.5 394.37,-7.5"/>
<text text-anchor="start" x="324.37" y="-15.3" font-family="Courier New" font-weight="bold" font-size="14.00">takenAsh</text>
<path fill="none" stroke="darkred" d="M327.37,-4.5C327.37,-4.5 388.37,-4.5 388.37,-4.5 392.87,-4.5 397.37,-9 397.37,-13.5 397.37,-13.5 397.37,-22.5 397.37,-22.5 397.37,-27 392.87,-31.5 388.37,-31.5 388.37,-31.5 327.37,-31.5 327.37,-31.5 322.87,-31.5 318.37,-27 318.37,-22.5 318.37,-22.5 318.37,-13.5 318.37,-13.5 318.37,-9 322.87,-4.5 327.37,-4.5"/>
</g>
<!-- burned&#45;&gt;takenAsh -->
<g id="edge2" class="edge">
<title>burned&#45;&gt;takenAsh</title>
<path fill="none" stroke="black" d="M278.3,-91.26C293.26,-77.67 314.55,-58.34 331.35,-43.08"/>
<polygon fill="black" stroke="black" points="333.13,-46.28 338.18,-36.97 328.43,-41.1 333.13,-46.28"/>
<text text-anchor="start" x="320.87" y="-62" font-family="Courier New" font-weight="bold" font-size="10.00" fill="orange">GRAB(0,0)</text>
</g>
<!-- takenAsh&#45;&gt;emptyGrill -->
<g id="edge9" class="edge">
<title>takenAsh&#45;&gt;emptyGrill</title>
<path fill="none" stroke="black" d="M381.65,-35.87C401.26,-51.93 425.87,-78.05 425.87,-108 425.87,-407.5 425.87,-407.5 425.87,-407.5 425.87,-454.29 432.04,-474.24 401.87,-510 396.81,-516 390.54,-520.99 383.73,-525.14"/>
<polygon fill="black" stroke="black" points="382.32,-522.46 375.18,-530.29 385.65,-528.62 382.32,-522.46"/>
<text text-anchor="start" x="429.87" y="-276.5" font-family="Courier New" font-weight="bold" font-size="10.00" fill="blue">SHOW(0,0)</text>
</g>
<!-- burning -->
<g id="node6" class="node">
<title>burning</title>
<polyline fill="none" stroke="darkred" points="128.87,-267.5 192.87,-267.5"/>
<text text-anchor="start" x="131.87" y="-275.3" font-family="Courier New" font-weight="bold" font-size="14.00">burning</text>
<path fill="none" stroke="darkred" d="M134.87,-264.5C134.87,-264.5 186.87,-264.5 186.87,-264.5 191.37,-264.5 195.87,-269 195.87,-273.5 195.87,-273.5 195.87,-282.5 195.87,-282.5 195.87,-287 191.37,-291.5 186.87,-291.5 186.87,-291.5 134.87,-291.5 134.87,-291.5 130.37,-291.5 125.87,-287 125.87,-282.5 125.87,-282.5 125.87,-273.5 125.87,-273.5 125.87,-269 130.37,-264.5 134.87,-264.5"/>
</g>
<!-- burning&#45;&gt;burned -->
<g id="edge3" class="edge">
<title>burning&#45;&gt;burned</title>
<path fill="none" stroke="black" d="M168.45,-260.12C180.31,-234.4 204.61,-184.24 230.87,-145 233,-141.82 235.36,-138.59 237.79,-135.44"/>
<polygon fill="black" stroke="black" points="241.12,-137.88 244.68,-127.9 235.68,-133.48 241.12,-137.88"/>
<polygon fill="none" stroke="black" points="233.87,-222 233.87,-239 408.87,-239 408.87,-222 233.87,-222"/>
<text text-anchor="start" x="248.87" y="-229" font-family="Courier New" font-weight="bold" font-size="10.00" fill="blue">ESTIME(0,FISH_BURN_TIME)</text>
<polygon fill="none" stroke="black" points="233.87,-148 233.87,-220 408.87,-220 408.87,-148 233.87,-148"/>
<text text-anchor="start" x="236.87" y="-209" font-family="Courier New" font-size="10.00" fill="blue"> &#160;&#160;&#160;MAP_OBJ(0,OP_BURN);</text>
<text text-anchor="start" x="236.87" y="-198" font-family="Courier New" font-size="10.00" fill="blue"> &#160;&#160;&#160;SHOW(IDS_FISHASH);</text>
<text text-anchor="start" x="236.87" y="-187" font-family="Courier New" font-size="10.00" fill="blue"> &#160;&#160;&#160;PLAYWAVE(SOUND_FIRE); </text>
<text text-anchor="start" x="236.87" y="-176" font-family="Courier New" font-size="10.00" fill="blue"> &#160;&#160;&#160;//Cast off soul</text>
<text text-anchor="start" x="236.87" y="-165" font-family="Courier New" font-size="10.00" fill="blue"> &#160;&#160;&#160;SIGNAL(WIP2,SIG_BURNED);</text>
<text text-anchor="start" x="236.87" y="-154" font-family="Courier New" font-size="10.00" fill="blue"> </text>
<polygon fill="none" stroke="black" points="230.87,-145 230.87,-242 411.87,-242 411.87,-145 230.87,-145"/>
</g>
<!-- burning&#45;&gt;fishOnGrill -->
<g id="edge4" class="edge">
<title>burning&#45;&gt;fishOnGrill</title>
<path fill="none" stroke="black" d="M203.75,-288.71C216.97,-293.94 230.08,-301.9 237.87,-314 250.62,-333.8 250.72,-347.26 237.87,-367 233.93,-373.05 228.81,-378.15 223.01,-382.45"/>
<polygon fill="black" stroke="black" points="221.61,-379.84 215.11,-388.21 225.41,-385.72 221.61,-379.84"/>
<polygon fill="none" stroke="black" points="249.87,-347 249.87,-364 394.87,-364 394.87,-347 249.87,-347"/>
<text text-anchor="start" x="252.87" y="-354" font-family="Courier New" font-weight="bold" font-size="10.00" fill="orange">WAIT(,SIG_EXTINGUISHED)</text>
<polygon fill="none" stroke="black" points="249.87,-317 249.87,-345 394.87,-345 394.87,-317 249.87,-317"/>
<text text-anchor="start" x="270.87" y="-334" font-family="Courier New" font-size="10.00" fill="blue"> &#160;&#160;CLEAR(DETIME);</text>
<text text-anchor="start" x="270.87" y="-323" font-family="Courier New" font-size="10.00" fill="blue"> </text>
<polygon fill="none" stroke="black" points="246.87,-314 246.87,-367 397.87,-367 397.87,-314 246.87,-314"/>
</g>
<!-- fishOnGrill&#45;&gt;emptyGrill -->
<g id="edge7" class="edge">
<title>fishOnGrill&#45;&gt;emptyGrill</title>
<path fill="none" stroke="black" d="M214.08,-409.62C243.01,-413.87 275.52,-423.8 296.87,-446 315.05,-464.91 319.52,-495.35 320.08,-517.49"/>
<polygon fill="black" stroke="black" points="316.58,-517.2 320.07,-527.21 323.58,-517.21 316.58,-517.2"/>
<polygon fill="none" stroke="black" points="321.87,-484.5 321.87,-501.5 394.87,-501.5 394.87,-484.5 321.87,-484.5"/>
<text text-anchor="start" x="330.87" y="-491.5" font-family="Courier New" font-weight="bold" font-size="10.00" fill="orange">GRAB(0,0)</text>
<polygon fill="none" stroke="black" points="321.87,-454.5 321.87,-482.5 394.87,-482.5 394.87,-454.5 321.87,-454.5"/>
<text text-anchor="start" x="324.87" y="-471.5" font-family="Courier New" font-size="10.00" fill="blue"> &#160;&#160;&#160;SHOW();</text>
<text text-anchor="start" x="324.87" y="-460.5" font-family="Courier New" font-size="10.00" fill="blue"> </text>
<polygon fill="none" stroke="black" points="318.87,-451.5 318.87,-504.5 397.87,-504.5 397.87,-451.5 318.87,-451.5"/>
</g>
<!-- fishOnGrill&#45;&gt;burning -->
<g id="edge6" class="edge">
<title>fishOnGrill&#45;&gt;burning</title>
<path fill="none" stroke="black" d="M87.44,-395.72C55.1,-389.31 20.57,-379.73 10.87,-367 -3.41,-348.27 -3.77,-332.45 10.87,-314 22.91,-298.83 69.36,-289.62 107.42,-284.48"/>
<polygon fill="black" stroke="black" points="107.43,-287.88 116.9,-283.14 106.54,-280.94 107.43,-287.88"/>
<text text-anchor="start" x="14.87" y="-339" font-family="Courier New" font-weight="bold" font-size="10.00" fill="blue">EQUAL(R_BPARM,1)</text>
</g>
<!-- fishOnGrill&#45;&gt;burning -->
<g id="edge8" class="edge">
<title>fishOnGrill&#45;&gt;burning</title>
<path fill="none" stroke="black" d="M140.68,-385.19C138.29,-379.45 136.09,-373.1 134.87,-367 130.26,-343.9 127.47,-336.36 134.87,-314 135.9,-310.87 137.34,-307.79 139.01,-304.83"/>
<polygon fill="black" stroke="black" points="142.33,-307.17 144.95,-296.91 136.5,-303.29 142.33,-307.17"/>
<text text-anchor="start" x="138.87" y="-339" font-family="Courier New" font-weight="bold" font-size="10.00" fill="orange">WAIT(,SIG_FIRE)</text>
</g>
<!-- status -->
<g id="node8" class="node">
<title>status</title>
<polygon fill="none" stroke="black" points="364.37,-653.5 364.37,-725.5 699.37,-725.5 699.37,-653.5 364.37,-653.5"/>
<polygon fill="none" stroke="black" points="375.37,-701.5 375.37,-718.5 688.37,-718.5 688.37,-701.5 375.37,-701.5"/>
<text text-anchor="start" x="504.37" y="-708.5" font-family="Courier New" font-weight="bold" font-size="10.00">S11_GRILL</text>
<polygon fill="none" stroke="black" points="375.37,-660.5 375.37,-699.5 688.37,-699.5 688.37,-660.5 375.37,-660.5"/>
<text text-anchor="start" x="378.37" y="-688.5" font-family="Courier New" font-size="10.00" fill="green">VIEW::IDV_FALTAR @pos(left:145, top:100)</text>
<text text-anchor="start" x="378.37" y="-677.5" font-family="Courier New" font-size="10.00" fill="green">S11_GRILL::M11_GRILL(&#39;S11_FIRE&#39;,&#39;S11_ASCENT&#39;,&#39;&#39;,&#39;&#39;)</text>
<text text-anchor="start" x="378.37" y="-666.5" font-family="Courier New" font-size="10.00" fill="green">{&#39;fishOnGrill&#39;: wObject:IDD_FISH4 wAccept:IDC_FISH</text>
<polygon fill="none" stroke="black" points="372.37,-657.5 372.37,-721.5 691.37,-721.5 691.37,-657.5 372.37,-657.5"/>
</g>
</g>
</svg>
