<?xml version="1.0" encoding="UTF-8" standalone="no"?>
<!DOCTYPE svg PUBLIC "-//W3C//DTD SVG 1.1//EN"
 "http://www.w3.org/Graphics/SVG/1.1/DTD/svg11.dtd">
<!-- Generated by graphviz version 8.0.1 (20230327.1645)
 -->
<!-- Title: Automaton Pages: 1 -->
<svg width="2213pt" height="180pt"
 viewBox="0.00 0.00 2213.41 180.00" xmlns="http://www.w3.org/2000/svg" xmlns:xlink="http://www.w3.org/1999/xlink">
<g id="graph0" class="graph" transform="scale(1 1) rotate(0) translate(4 176)">
<title>Automaton</title>
<polygon fill="white" stroke="none" points="-4,4 -4,-176 2209.41,-176 2209.41,4 -4,4"/>
<!-- filename -->
<g id="node1" class="node">
<title>filename</title>
<polygon fill="none" stroke="black" points="566.91,-106.5 566.91,-156.5 739.91,-156.5 739.91,-106.5 566.91,-106.5"/>
<polygon fill="none" stroke="black" points="577.91,-132.5 577.91,-149.5 728.91,-149.5 728.91,-132.5 577.91,-132.5"/>
<text text-anchor="start" x="580.91" y="-139.5" font-family="Courier New" font-weight="bold" font-size="10.00">S11_LUNCH::M_LUNCHPORTAL</text>
<polygon fill="none" stroke="black" points="577.91,-113.5 577.91,-130.5 728.91,-130.5 728.91,-113.5 577.91,-113.5"/>
<text text-anchor="start" x="607.91" y="-119.5" font-family="Courier New" font-size="10.00" fill="brown">start state = 0</text>
<polygon fill="none" stroke="black" points="574.91,-110.5 574.91,-152.5 731.91,-152.5 731.91,-110.5 574.91,-110.5"/>
</g>
<!-- 0 -->
<g id="node2" class="node">
<title>0</title>
<polyline fill="none" stroke="darkred" stroke-width="3" points="777.41,-120.5 793.41,-120.5"/>
<text text-anchor="start" x="780.91" y="-128.8" font-family="Courier New" font-weight="bold" font-size="14.00">0</text>
<path fill="none" stroke="darkred" stroke-width="3" d="M781.07,-115.5C781.07,-115.5 789.74,-115.5 789.74,-115.5 794.07,-115.5 798.41,-119.83 798.41,-124.17 798.41,-124.17 798.41,-138.83 798.41,-138.83 798.41,-143.17 794.07,-147.5 789.74,-147.5 789.74,-147.5 781.07,-147.5 781.07,-147.5 776.74,-147.5 772.41,-143.17 772.41,-138.83 772.41,-138.83 772.41,-124.17 772.41,-124.17 772.41,-119.83 776.74,-115.5 781.07,-115.5"/>
</g>
<!-- 1 -->
<g id="node3" class="node">
<title>1</title>
<polyline fill="none" stroke="darkred" points="777.91,-7.5 792.91,-7.5"/>
<text text-anchor="start" x="780.91" y="-15.3" font-family="Courier New" font-weight="bold" font-size="14.00">1</text>
<path fill="none" stroke="darkred" d="M781.91,-4.5C781.91,-4.5 788.91,-4.5 788.91,-4.5 792.41,-4.5 795.91,-8 795.91,-11.5 795.91,-11.5 795.91,-24.5 795.91,-24.5 795.91,-28 792.41,-31.5 788.91,-31.5 788.91,-31.5 781.91,-31.5 781.91,-31.5 778.41,-31.5 774.91,-28 774.91,-24.5 774.91,-24.5 774.91,-11.5 774.91,-11.5 774.91,-8 778.41,-4.5 781.91,-4.5"/>
</g>
<!-- 0&#45;&gt;1 -->
<g id="edge1" class="edge">
<title>0&#45;&gt;1</title>
<path fill="none" stroke="black" d="M771.89,-110.32C765.7,-102.83 757.67,-95.15 748.41,-91 710.68,-74.1 33.29,-102.59 4.41,-73 -1.49,-66.96 -1.43,-60.1 4.41,-54 30.37,-26.84 595.87,-20.48 748.01,-19.26"/>
<polygon fill="black" stroke="black" points="747.66,-22.75 757.64,-19.17 747.61,-15.75 747.66,-22.75"/>
<text text-anchor="start" x="8.41" y="-62" font-family="Courier New" font-weight="bold" font-size="10.00" fill="orange">CLICK(0,0)</text>
</g>
<!-- 0&#45;&gt;1 -->
<g id="edge2" class="edge">
<title>0&#45;&gt;1</title>
<path fill="none" stroke="black" d="M771.89,-110.33C765.69,-102.84 757.66,-95.16 748.41,-91 715.36,-76.13 121.67,-98.97 96.41,-73 90.52,-66.95 90.59,-60.12 96.41,-54 119,-30.23 607.47,-21.51 747.94,-19.49"/>
<polygon fill="black" stroke="black" points="747.62,-22.98 757.57,-19.34 747.52,-15.98 747.62,-22.98"/>
<text text-anchor="start" x="100.41" y="-62" font-family="Courier New" font-weight="bold" font-size="10.00" fill="orange">CLICK(0,0)</text>
</g>
<!-- 0&#45;&gt;1 -->
<g id="edge3" class="edge">
<title>0&#45;&gt;1</title>
<path fill="none" stroke="black" d="M771.88,-110.36C765.68,-102.87 757.65,-95.19 748.41,-91 720.05,-78.16 210.06,-95.36 188.41,-73 182.53,-66.93 182.61,-60.14 188.41,-54 207.64,-33.61 619.36,-22.71 747.61,-19.8"/>
<polygon fill="black" stroke="black" points="747.51,-23.28 757.43,-19.56 747.36,-16.29 747.51,-23.28"/>
<text text-anchor="start" x="192.41" y="-62" font-family="Courier New" font-weight="bold" font-size="10.00" fill="orange">CLICK(0,0)</text>
</g>
<!-- 0&#45;&gt;1 -->
<g id="edge4" class="edge">
<title>0&#45;&gt;1</title>
<path fill="none" stroke="black" d="M771.86,-110.38C765.67,-102.9 757.64,-95.21 748.41,-91 653.51,-47.68 209.24,-130.28 280.41,-54 312.11,-20.03 636.08,-18.3 747.79,-18.73"/>
<polygon fill="black" stroke="black" points="747.51,-22.23 757.53,-18.78 747.54,-15.23 747.51,-22.23"/>
<text text-anchor="start" x="284.41" y="-62" font-family="Courier New" font-weight="bold" font-size="10.00" fill="orange">CLICK(0,0)</text>
</g>
<!-- 0&#45;&gt;1 -->
<g id="edge5" class="edge">
<title>0&#45;&gt;1</title>
<path fill="none" stroke="black" d="M771.5,-110.01C765.35,-102.67 757.45,-95.18 748.41,-91 672.2,-55.77 315.6,-115.82 372.41,-54 397.52,-26.67 650.44,-20.66 747.64,-19.35"/>
<polygon fill="black" stroke="black" points="747.47,-22.84 757.43,-19.22 747.38,-15.85 747.47,-22.84"/>
<text text-anchor="start" x="376.41" y="-62" font-family="Courier New" font-weight="bold" font-size="10.00" fill="orange">CLICK(0,0)</text>
</g>
<!-- 0&#45;&gt;1 -->
<g id="edge6" class="edge">
<title>0&#45;&gt;1</title>
<path fill="none" stroke="black" d="M771.46,-110.08C765.31,-102.75 757.42,-95.25 748.41,-91 719.81,-77.51 486.05,-96.05 464.41,-73 458.63,-66.84 458.77,-60.29 464.41,-54 483.06,-33.2 667.36,-23.57 747.98,-20.33"/>
<polygon fill="black" stroke="black" points="747.78,-23.8 757.64,-19.91 747.51,-16.8 747.78,-23.8"/>
<text text-anchor="start" x="468.41" y="-62" font-family="Courier New" font-weight="bold" font-size="10.00" fill="orange">CLICK(0,0)</text>
</g>
<!-- 0&#45;&gt;1 -->
<g id="edge7" class="edge">
<title>0&#45;&gt;1</title>
<path fill="none" stroke="black" d="M771.4,-110.22C765.23,-102.91 757.35,-95.38 748.41,-91 670.38,-52.75 499.79,-119.93 556.41,-54 580.66,-25.77 689.53,-20.06 748,-19.07"/>
<polygon fill="black" stroke="black" points="747.68,-22.56 757.64,-18.93 747.59,-15.56 747.68,-22.56"/>
<text text-anchor="start" x="560.41" y="-62" font-family="Courier New" font-weight="bold" font-size="10.00" fill="orange">CLICK(0,0)</text>
</g>
<!-- 0&#45;&gt;1 -->
<g id="edge8" class="edge">
<title>0&#45;&gt;1</title>
<path fill="none" stroke="black" d="M770.85,-110.2C764.71,-103.06 756.99,-95.67 748.41,-91 706.78,-68.36 619.34,-91.43 648.41,-54 660.52,-38.41 711.5,-28.59 747.72,-23.45"/>
<polygon fill="black" stroke="black" points="747.99,-26.81 757.43,-22 747.05,-19.87 747.99,-26.81"/>
<text text-anchor="start" x="652.41" y="-62" font-family="Courier New" font-weight="bold" font-size="10.00" fill="orange">CLICK(0,0)</text>
</g>
<!-- 0&#45;&gt;1 -->
<g id="edge9" class="edge">
<title>0&#45;&gt;1</title>
<path fill="none" stroke="black" d="M764.05,-110.19C754.89,-100.01 745.2,-86.9 740.41,-73 737.66,-65.02 736.7,-61.59 740.41,-54 742.85,-49.02 746.37,-44.54 750.4,-40.58"/>
<polygon fill="black" stroke="black" points="752.24,-42.76 757.59,-33.62 747.7,-37.42 752.24,-42.76"/>
<text text-anchor="start" x="744.41" y="-62" font-family="Courier New" font-weight="bold" font-size="10.00" fill="orange">CLICK(0,0)</text>
</g>
<!-- 1&#45;&gt;0 -->
<g id="edge10" class="edge">
<title>1&#45;&gt;0</title>
<path fill="none" stroke="black" d="M799.87,-35.72C803.74,-41.18 807.4,-47.53 809.41,-54 814.15,-69.3 809.78,-86.3 803.53,-100.38"/>
<polygon fill="black" stroke="black" points="800.04,-98.54 798.75,-109.06 806.32,-101.64 800.04,-98.54"/>
<text text-anchor="start" x="815.41" y="-62" font-family="Courier New" font-weight="bold" font-size="10.00" fill="blue">LOADVIEW(0,IDV_LUNCHCU)</text>
</g>
<!-- 1&#45;&gt;0 -->
<g id="edge11" class="edge">
<title>1&#45;&gt;0</title>
<path fill="none" stroke="black" d="M812.28,-20.28C857.02,-23.04 943.72,-31.25 962.41,-54 1003.54,-104.06 878.89,-61.12 821.41,-91 815.82,-93.91 810.66,-98.05 806.1,-102.57"/>
<polygon fill="black" stroke="black" points="804.14,-99.62 800.01,-109.38 809.33,-104.32 804.14,-99.62"/>
<text text-anchor="start" x="974.41" y="-62" font-family="Courier New" font-weight="bold" font-size="10.00" fill="blue">LOADVIEW(0,IDV_LUNCHCU)</text>
</g>
<!-- 1&#45;&gt;0 -->
<g id="edge12" class="edge">
<title>1&#45;&gt;0</title>
<path fill="none" stroke="black" d="M812.33,-19.78C888.41,-22.25 1100.82,-31.15 1121.41,-54 1127.06,-60.27 1127.2,-66.85 1121.41,-73 1098.51,-97.31 851.54,-76.6 821.41,-91 815.72,-93.72 810.52,-97.77 805.95,-102.26"/>
<polygon fill="black" stroke="black" points="803.99,-99.32 799.86,-109.08 809.17,-104.02 803.99,-99.32"/>
<text text-anchor="start" x="1129.41" y="-62" font-family="Courier New" font-weight="bold" font-size="10.00" fill="blue">LOADVIEW(0,IDV_LUNCHCU)</text>
</g>
<!-- 1&#45;&gt;0 -->
<g id="edge13" class="edge">
<title>1&#45;&gt;0</title>
<path fill="none" stroke="black" d="M812.22,-18.83C910.17,-18.5 1244.63,-19.88 1276.41,-54 1345.54,-128.24 913.38,-48.19 821.41,-91 815.59,-93.71 810.28,-97.84 805.64,-102.42"/>
<polygon fill="black" stroke="black" points="803.56,-99.62 799.48,-109.4 808.77,-104.3 803.56,-99.62"/>
<text text-anchor="start" x="1287.41" y="-62" font-family="Courier New" font-weight="bold" font-size="10.00" fill="blue">LOADVIEW(0,IDV_LUNCHCU)</text>
</g>
<!-- 1&#45;&gt;0 -->
<g id="edge14" class="edge">
<title>1&#45;&gt;0</title>
<path fill="none" stroke="black" d="M812.28,-19.43C932.08,-21.47 1412.68,-31.07 1434.41,-54 1440.22,-60.13 1440.29,-66.94 1434.41,-73 1410.67,-97.44 852.37,-76.78 821.41,-91 815.57,-93.68 810.26,-97.8 805.62,-102.38"/>
<polygon fill="black" stroke="black" points="803.54,-99.57 799.46,-109.35 808.75,-104.25 803.54,-99.57"/>
<text text-anchor="start" x="1442.41" y="-62" font-family="Courier New" font-weight="bold" font-size="10.00" fill="blue">LOADVIEW(0,IDV_LUNCHCU)</text>
</g>
<!-- 1&#45;&gt;0 -->
<g id="edge15" class="edge">
<title>1&#45;&gt;0</title>
<path fill="none" stroke="black" d="M812.06,-19.14C948.34,-19.97 1561.93,-25.3 1589.41,-54 1595.25,-60.1 1595.31,-66.96 1589.41,-73 1559.59,-103.53 860.24,-73.3 821.41,-91 815.57,-93.66 810.25,-97.77 805.61,-102.35"/>
<polygon fill="black" stroke="black" points="803.52,-99.55 799.45,-109.33 808.73,-104.22 803.52,-99.55"/>
<text text-anchor="start" x="1597.41" y="-62" font-family="Courier New" font-weight="bold" font-size="10.00" fill="blue">LOADVIEW(0,IDV_LUNCHCU)</text>
</g>
<!-- 1&#45;&gt;0 -->
<g id="edge16" class="edge">
<title>1&#45;&gt;0</title>
<path fill="none" stroke="black" d="M812.29,-18.94C964.37,-18.75 1711.18,-19.54 1744.41,-54 1750.27,-60.08 1750.32,-66.97 1744.41,-73 1708.5,-109.62 868.12,-69.82 821.41,-91 815.56,-93.65 810.25,-97.75 805.6,-102.33"/>
<polygon fill="black" stroke="black" points="803.52,-99.53 799.44,-109.31 808.73,-104.2 803.52,-99.53"/>
<text text-anchor="start" x="1752.41" y="-62" font-family="Courier New" font-weight="bold" font-size="10.00" fill="blue">LOADVIEW(0,IDV_LUNCHCU)</text>
</g>
<!-- 1&#45;&gt;0 -->
<g id="edge17" class="edge">
<title>1&#45;&gt;0</title>
<path fill="none" stroke="black" d="M812.18,-18.8C978.12,-17.69 1860.38,-13.72 1899.41,-54 1905.28,-60.06 1905.33,-66.98 1899.41,-73 1878.41,-94.35 848.7,-78.67 821.41,-91 815.56,-93.64 810.24,-97.74 805.59,-102.32"/>
<polygon fill="black" stroke="black" points="803.51,-99.51 799.44,-109.29 808.72,-104.19 803.51,-99.51"/>
<text text-anchor="start" x="1907.41" y="-62" font-family="Courier New" font-weight="bold" font-size="10.00" fill="blue">LOADVIEW(0,IDV_LUNCHCU)</text>
</g>
<!-- 1&#45;&gt;0 -->
<g id="edge18" class="edge">
<title>1&#45;&gt;0</title>
<path fill="none" stroke="black" d="M812.28,-19.23C993.62,-20.82 2031.97,-30.93 2054.41,-54 2060.3,-60.05 2060.34,-66.99 2054.41,-73 2030.36,-97.4 852.64,-76.93 821.41,-91 815.55,-93.64 810.24,-97.73 805.59,-102.31"/>
<polygon fill="black" stroke="black" points="803.51,-99.5 799.43,-109.28 808.72,-104.18 803.51,-99.5"/>
<text text-anchor="start" x="2062.41" y="-62" font-family="Courier New" font-weight="bold" font-size="10.00" fill="blue">LOADVIEW(0,IDV_LUNCHCU)</text>
</g>
<!-- status -->
<g id="node4" class="node">
<title>status</title>
<polygon fill="none" stroke="black" points="830.91,-91.5 830.91,-171.5 1225.91,-171.5 1225.91,-91.5 830.91,-91.5"/>
<polygon fill="none" stroke="black" points="841.91,-147.5 841.91,-164.5 1214.91,-164.5 1214.91,-147.5 841.91,-147.5"/>
<text text-anchor="start" x="1000.91" y="-154.5" font-family="Courier New" font-weight="bold" font-size="10.00">S11_LUNCH</text>
<polygon fill="none" stroke="black" points="841.91,-117.5 841.91,-145.5 1214.91,-145.5 1214.91,-117.5 841.91,-117.5"/>
<text text-anchor="start" x="844.91" y="-134.5" font-family="Courier New" font-size="10.00" fill="green">S11_LUNCH::M_LUNCHPORTAL(&#39;IDV_LUNCHCU&#39;,&#39;IDV_LUNCHCU&#39;,&#39;60&#39;,&#39;&#39;)</text>
<text text-anchor="start" x="844.91" y="-123.5" font-family="Courier New" font-size="10.00" fill="green">{&#39;0&#39;:}</text>
<polygon fill="none" stroke="black" points="841.91,-98.5 841.91,-115.5 1214.91,-115.5 1214.91,-98.5 841.91,-98.5"/>
<text text-anchor="start" x="1024.91" y="-104.5" font-family="Courier New" font-size="10.00" fill="blue">_</text>
<polygon fill="none" stroke="black" points="838.91,-95.5 838.91,-167.5 1217.91,-167.5 1217.91,-95.5 838.91,-95.5"/>
</g>
</g>
</svg>
