<?xml version="1.0" encoding="UTF-8" standalone="no"?>
<!DOCTYPE svg PUBLIC "-//W3C//DTD SVG 1.1//EN"
 "http://www.w3.org/Graphics/SVG/1.1/DTD/svg11.dtd">
<!-- Generated by graphviz version 8.0.1 (20230327.1645)
 -->
<!-- Title: Automaton Pages: 1 -->
<svg width="523pt" height="246pt"
 viewBox="0.00 0.00 523.00 246.00" xmlns="http://www.w3.org/2000/svg" xmlns:xlink="http://www.w3.org/1999/xlink">
<g id="graph0" class="graph" transform="scale(1 1) rotate(0) translate(4 242)">
<title>Automaton</title>
<polygon fill="white" stroke="none" points="-4,4 -4,-242 519,-242 519,4 -4,4"/>
<!-- filename -->
<g id="node1" class="node">
<title>filename</title>
<polygon fill="none" stroke="black" points="0,-176.5 0,-226.5 161,-226.5 161,-176.5 0,-176.5"/>
<polygon fill="none" stroke="black" points="11,-202.5 11,-219.5 150,-219.5 150,-202.5 11,-202.5"/>
<text text-anchor="start" x="14" y="-209.5" font-family="Courier New" font-weight="bold" font-size="10.00">S11_ASCENT::M11_ASCENT</text>
<polygon fill="none" stroke="black" points="11,-183.5 11,-200.5 150,-200.5 150,-183.5 11,-183.5"/>
<text text-anchor="start" x="35" y="-189.5" font-family="Courier New" font-size="10.00" fill="brown">start state = 0</text>
<polygon fill="none" stroke="black" points="8,-180.5 8,-222.5 153,-222.5 153,-180.5 8,-180.5"/>
</g>
<!-- 0 -->
<g id="node2" class="node">
<title>0</title>
<polyline fill="none" stroke="darkred" points="199,-191 214,-191"/>
<text text-anchor="start" x="202" y="-198.8" font-family="Courier New" font-weight="bold" font-size="14.00">0</text>
<path fill="none" stroke="darkred" d="M203,-188C203,-188 210,-188 210,-188 213.5,-188 217,-191.5 217,-195 217,-195 217,-208 217,-208 217,-211.5 213.5,-215 210,-215 210,-215 203,-215 203,-215 199.5,-215 196,-211.5 196,-208 196,-208 196,-195 196,-195 196,-191.5 199.5,-188 203,-188"/>
</g>
<!-- 3 -->
<g id="node3" class="node">
<title>3</title>
<polyline fill="none" stroke="darkred" stroke-width="3" points="198.5,-10.5 214.5,-10.5"/>
<text text-anchor="start" x="202" y="-18.8" font-family="Courier New" font-weight="bold" font-size="14.00">3</text>
<path fill="none" stroke="darkred" stroke-width="3" d="M202.17,-5.5C202.17,-5.5 210.83,-5.5 210.83,-5.5 215.17,-5.5 219.5,-9.83 219.5,-14.17 219.5,-14.17 219.5,-28.83 219.5,-28.83 219.5,-33.17 215.17,-37.5 210.83,-37.5 210.83,-37.5 202.17,-37.5 202.17,-37.5 197.83,-37.5 193.5,-33.17 193.5,-28.83 193.5,-28.83 193.5,-14.17 193.5,-14.17 193.5,-9.83 197.83,-5.5 202.17,-5.5"/>
</g>
<!-- 0&#45;&gt;3 -->
<g id="edge1" class="edge">
<title>0&#45;&gt;3</title>
<path fill="none" stroke="black" d="M191.4,-183.55C185.09,-177.15 177.39,-170.18 169.5,-165 152.18,-153.64 137.98,-164.25 126.5,-147 105.32,-115.18 106.16,-93.36 126.5,-61 135.99,-45.91 153.23,-36.59 169.29,-30.92"/>
<polygon fill="black" stroke="black" points="170.08,-34.02 178.57,-27.69 167.99,-27.34 170.08,-34.02"/>
<polygon fill="none" stroke="black" points="129.5,-121.5 129.5,-138.5 262.5,-138.5 262.5,-121.5 129.5,-121.5"/>
<text text-anchor="start" x="141.5" y="-128.5" font-family="Courier New" font-weight="bold" font-size="10.00" fill="orange">WAIT(0,SIG_BURNED)</text>
<polygon fill="none" stroke="black" points="129.5,-69.5 129.5,-119.5 262.5,-119.5 262.5,-69.5 129.5,-69.5"/>
<text text-anchor="start" x="132.5" y="-108.5" font-family="Courier New" font-size="10.00" fill="blue"> &#160;&#160;SHOW(IDS_SPIRIT0);</text>
<text text-anchor="start" x="132.5" y="-97.5" font-family="Courier New" font-size="10.00" fill="blue"> &#160;&#160;ANIMATE();</text>
<text text-anchor="start" x="132.5" y="-86.5" font-family="Courier New" font-size="10.00" fill="blue"> &#160;&#160;ESTIME(4);</text>
<text text-anchor="start" x="132.5" y="-75.5" font-family="Courier New" font-size="10.00" fill="blue"> </text>
<polygon fill="none" stroke="black" points="126.5,-66.5 126.5,-141.5 265.5,-141.5 265.5,-66.5 126.5,-66.5"/>
</g>
<!-- 3&#45;&gt;0 -->
<g id="edge2" class="edge">
<title>3&#45;&gt;0</title>
<path fill="none" stroke="black" d="M233.46,-32.94C245.56,-39.14 258.63,-48.31 265.5,-61 283.7,-94.61 281.87,-112.46 265.5,-147 260.09,-158.42 252.95,-156.62 243.5,-165 239.54,-168.51 235.43,-172.3 231.45,-176.05"/>
<polygon fill="black" stroke="black" points="229.36,-173.16 224.55,-182.6 234.2,-178.22 229.36,-173.16"/>
<polygon fill="none" stroke="black" points="280.5,-127 280.5,-144 401.5,-144 401.5,-127 280.5,-127"/>
<text text-anchor="start" x="283.5" y="-134" font-family="Courier New" font-weight="bold" font-size="10.00" fill="orange">GRAB(0,IDD_SPRINGS)</text>
<polygon fill="none" stroke="black" points="280.5,-64 280.5,-125 401.5,-125 401.5,-64 280.5,-64"/>
<text text-anchor="start" x="286.5" y="-114" font-family="Courier New" font-size="10.00" fill="blue"> &#160;&#160;CLEAR(WOBJECT);</text>
<text text-anchor="start" x="286.5" y="-103" font-family="Courier New" font-size="10.00" fill="blue"> &#160;&#160;CLEAR(WPARM);</text>
<text text-anchor="start" x="286.5" y="-92" font-family="Courier New" font-size="10.00" fill="blue"> &#160;&#160;CLEAR(WSPRITE);</text>
<text text-anchor="start" x="286.5" y="-81" font-family="Courier New" font-size="10.00" fill="blue"> &#160;&#160;SHOW();</text>
<text text-anchor="start" x="286.5" y="-70" font-family="Courier New" font-size="10.00" fill="blue"> </text>
<polygon fill="none" stroke="black" points="277.5,-61 277.5,-147 404.5,-147 404.5,-61 277.5,-61"/>
</g>
<!-- status -->
<g id="node4" class="node">
<title>status</title>
<polygon fill="none" stroke="black" points="252,-165.5 252,-237.5 515,-237.5 515,-165.5 252,-165.5"/>
<polygon fill="none" stroke="black" points="263,-213.5 263,-230.5 504,-230.5 504,-213.5 263,-213.5"/>
<text text-anchor="start" x="353" y="-220.5" font-family="Courier New" font-weight="bold" font-size="10.00">S11_ASCENT</text>
<polygon fill="none" stroke="black" points="263,-172.5 263,-211.5 504,-211.5 504,-172.5 263,-172.5"/>
<text text-anchor="start" x="266" y="-200.5" font-family="Courier New" font-size="10.00" fill="green">VIEW::IDV_FALTAR @pos(left:175, top:40)</text>
<text text-anchor="start" x="266" y="-189.5" font-family="Courier New" font-size="10.00" fill="green">S11_ASCENT::M11_ASCENT(&#39;&#39;,&#39;&#39;,&#39;&#39;,&#39;&#39;)</text>
<text text-anchor="start" x="266" y="-178.5" font-family="Courier New" font-size="10.00" fill="green">{&#39;3&#39;: bFrame:28</text>
<polygon fill="none" stroke="black" points="260,-169.5 260,-233.5 507,-233.5 507,-169.5 260,-169.5"/>
</g>
</g>
</svg>
