<?xml version="1.0" encoding="UTF-8" standalone="no"?>
<!DOCTYPE svg PUBLIC "-//W3C//DTD SVG 1.1//EN"
 "http://www.w3.org/Graphics/SVG/1.1/DTD/svg11.dtd">
<!-- Generated by graphviz version 8.0.1 (20230327.1645)
 -->
<!-- Title: Automaton Pages: 1 -->
<svg width="589pt" height="278pt"
 viewBox="0.00 0.00 589.00 278.00" xmlns="http://www.w3.org/2000/svg" xmlns:xlink="http://www.w3.org/1999/xlink">
<g id="graph0" class="graph" transform="scale(1 1) rotate(0) translate(4 274)">
<title>Automaton</title>
<polygon fill="white" stroke="none" points="-4,4 -4,-274 585,-274 585,4 -4,4"/>
<!-- filename -->
<g id="node1" class="node">
<title>filename</title>
<polygon fill="none" stroke="black" points="0,-204.5 0,-254.5 161,-254.5 161,-204.5 0,-204.5"/>
<polygon fill="none" stroke="black" points="11,-230.5 11,-247.5 150,-247.5 150,-230.5 11,-230.5"/>
<text text-anchor="start" x="14" y="-237.5" font-family="Courier New" font-weight="bold" font-size="10.00">S11_LUNCHCRUMBS::M_BIN</text>
<polygon fill="none" stroke="black" points="11,-211.5 11,-228.5 150,-228.5 150,-211.5 11,-211.5"/>
<text text-anchor="start" x="35" y="-217.5" font-family="Courier New" font-size="10.00" fill="brown">start state = 0</text>
<polygon fill="none" stroke="black" points="8,-208.5 8,-250.5 153,-250.5 153,-208.5 8,-208.5"/>
</g>
<!-- 0 -->
<g id="node2" class="node">
<title>0</title>
<polyline fill="none" stroke="darkred" points="199,-219 214,-219"/>
<text text-anchor="start" x="202" y="-226.8" font-family="Courier New" font-weight="bold" font-size="14.00">0</text>
<path fill="none" stroke="darkred" d="M203,-216C203,-216 210,-216 210,-216 213.5,-216 217,-219.5 217,-223 217,-223 217,-236 217,-236 217,-239.5 213.5,-243 210,-243 210,-243 203,-243 203,-243 199.5,-243 196,-239.5 196,-236 196,-236 196,-223 196,-223 196,-219.5 199.5,-216 203,-216"/>
</g>
<!-- 1 -->
<g id="node3" class="node">
<title>1</title>
<polyline fill="none" stroke="darkred" points="199,-105.5 214,-105.5"/>
<text text-anchor="start" x="202" y="-113.3" font-family="Courier New" font-weight="bold" font-size="14.00">1</text>
<path fill="none" stroke="darkred" d="M203,-102.5C203,-102.5 210,-102.5 210,-102.5 213.5,-102.5 217,-106 217,-109.5 217,-109.5 217,-122.5 217,-122.5 217,-126 213.5,-129.5 210,-129.5 210,-129.5 203,-129.5 203,-129.5 199.5,-129.5 196,-126 196,-122.5 196,-122.5 196,-109.5 196,-109.5 196,-106 199.5,-102.5 203,-102.5"/>
</g>
<!-- 0&#45;&gt;1 -->
<g id="edge1" class="edge">
<title>0&#45;&gt;1</title>
<path fill="none" stroke="black" d="M206.5,-211.57C206.5,-193.78 206.5,-165.53 206.5,-144.54"/>
<polygon fill="black" stroke="black" points="210,-144.73 206.5,-134.73 203,-144.73 210,-144.73"/>
<text text-anchor="start" x="210.5" y="-160" font-family="Courier New" font-weight="bold" font-size="10.00" fill="blue">O_ACCEPT(WIP1,)</text>
</g>
<!-- 10 -->
<g id="node4" class="node">
<title>10</title>
<polyline fill="none" stroke="darkred" stroke-width="3" points="194.5,-10.5 218.5,-10.5"/>
<text text-anchor="start" x="198" y="-18.8" font-family="Courier New" font-weight="bold" font-size="14.00">10</text>
<path fill="none" stroke="darkred" stroke-width="3" d="M200.17,-5.5C200.17,-5.5 212.83,-5.5 212.83,-5.5 218.17,-5.5 223.5,-10.83 223.5,-16.17 223.5,-16.17 223.5,-26.83 223.5,-26.83 223.5,-32.17 218.17,-37.5 212.83,-37.5 212.83,-37.5 200.17,-37.5 200.17,-37.5 194.83,-37.5 189.5,-32.17 189.5,-26.83 189.5,-26.83 189.5,-16.17 189.5,-16.17 189.5,-10.83 194.83,-5.5 200.17,-5.5"/>
</g>
<!-- 1&#45;&gt;10 -->
<g id="edge2" class="edge">
<title>1&#45;&gt;10</title>
<path fill="none" stroke="black" d="M206.5,-98.03C206.5,-85.65 206.5,-68.5 206.5,-53.68"/>
<polygon fill="black" stroke="black" points="210,-53.91 206.5,-43.91 203,-53.91 210,-53.91"/>
<text text-anchor="start" x="210.5" y="-69" font-family="Courier New" font-weight="bold" font-size="10.00" fill="blue">SHOW(WIP2,)</text>
</g>
<!-- 10&#45;&gt;10 -->
<g id="edge3" class="edge">
<title>10&#45;&gt;10</title>
<path fill="none" stroke="black" d="M233.29,-26.08C243.28,-26.23 251.5,-24.71 251.5,-21.5 251.5,-19.6 248.6,-18.28 244.16,-17.56"/>
<polygon fill="black" stroke="black" points="244.49,-14.02 234.29,-16.92 244.07,-21.01 244.49,-14.02"/>
<text text-anchor="start" x="255.5" y="-20" font-family="Courier New" font-weight="bold" font-size="10.00" fill="orange">DROP(0,0)</text>
</g>
<!-- 10&#45;&gt;10 -->
<g id="edge4" class="edge">
<title>10&#45;&gt;10</title>
<path fill="none" stroke="black" d="M233.28,-28.53C266.58,-32.94 314.5,-30.59 314.5,-21.5 314.5,-13.33 275.82,-10.61 243.81,-13.34"/>
<polygon fill="black" stroke="black" points="243.85,-9.92 234.28,-14.47 244.6,-16.88 243.85,-9.92"/>
<text text-anchor="start" x="318.5" y="-20" font-family="Courier New" font-weight="bold" font-size="10.00" fill="orange">GRAB(WIP1,)</text>
</g>
<!-- status -->
<g id="node5" class="node">
<title>status</title>
<polygon fill="none" stroke="black" points="252,-189.5 252,-269.5 581,-269.5 581,-189.5 252,-189.5"/>
<polygon fill="none" stroke="black" points="263,-245.5 263,-262.5 570,-262.5 570,-245.5 263,-245.5"/>
<text text-anchor="start" x="371" y="-252.5" font-family="Courier New" font-weight="bold" font-size="10.00">S11_LUNCHCRUMBS</text>
<polygon fill="none" stroke="black" points="263,-215.5 263,-243.5 570,-243.5 570,-215.5 263,-215.5"/>
<text text-anchor="start" x="266" y="-232.5" font-family="Courier New" font-size="10.00" fill="green">S11_LUNCHCRUMBS::M_BIN(&#39;IDD_LUNCHCRUMBS&#39;,&#39;&#39;,&#39;&#39;,&#39;&#39;)</text>
<text text-anchor="start" x="266" y="-221.5" font-family="Courier New" font-size="10.00" fill="green">{&#39;10&#39;: wAccept:IDD_LUNCHCRUMBS}</text>
<polygon fill="none" stroke="black" points="263,-196.5 263,-213.5 570,-213.5 570,-196.5 263,-196.5"/>
<text text-anchor="start" x="413" y="-202.5" font-family="Courier New" font-size="10.00" fill="blue">_</text>
<polygon fill="none" stroke="black" points="260,-193.5 260,-265.5 573,-265.5 573,-193.5 260,-193.5"/>
</g>
</g>
</svg>
