<?xml version="1.0" encoding="UTF-8" standalone="no"?>
<!DOCTYPE svg PUBLIC "-//W3C//DTD SVG 1.1//EN"
 "http://www.w3.org/Graphics/SVG/1.1/DTD/svg11.dtd">
<!-- Generated by graphviz version 8.0.1 (20230327.1645)
 -->
<!-- Title: Automaton Pages: 1 -->
<svg width="2267pt" height="149pt"
 viewBox="0.00 0.00 2267.00 149.00" xmlns="http://www.w3.org/2000/svg" xmlns:xlink="http://www.w3.org/1999/xlink">
<g id="graph0" class="graph" transform="scale(1 1) rotate(0) translate(4 145)">
<title>Automaton</title>
<polygon fill="white" stroke="none" points="-4,4 -4,-145 2263,-145 2263,4 -4,4"/>
<!-- filename -->
<g id="node1" class="node">
<title>filename</title>
<polygon fill="none" stroke="black" points="0,-3 0,-138 365,-138 365,-3 0,-3"/>
<polygon fill="none" stroke="black" points="11,-114 11,-131 354,-131 354,-114 11,-114"/>
<text text-anchor="start" x="59" y="-121" font-family="Courier New" font-weight="bold" font-size="10.00">S12_SHELF_1_INGREDIENTS_MGR::M12_xING_MGR</text>
<polygon fill="none" stroke="black" points="11,-29 11,-112 354,-112 354,-29 11,-29"/>
<text text-anchor="start" x="14" y="-101" font-family="Courier New" font-size="10.00" fill="green">used in the temple to hold ingredients for spell making.</text>
<text text-anchor="start" x="14" y="-90" font-family="Courier New" font-size="10.00" fill="green">WIP1: The scroll holder</text>
<text text-anchor="start" x="14" y="-79" font-family="Courier New" font-size="10.00" fill="green">WIP2: The scroll map</text>
<text text-anchor="start" x="14" y="-68" font-family="Courier New" font-size="10.00" fill="green">SIG_SHOW: A scroll was dropped</text>
<text text-anchor="start" x="14" y="-57" font-family="Courier New" font-size="10.00" fill="green">SIG_HIDE: The scroll was grabbed</text>
<text text-anchor="start" x="14" y="-46" font-family="Courier New" font-size="10.00" fill="green">SIG_CLOSE: The spell is cast</text>
<text text-anchor="start" x="14" y="-35" font-family="Courier New" font-size="10.00" fill="green">SIG_CHECK: Check spell ingredients</text>
<polygon fill="none" stroke="black" points="11,-10 11,-27 354,-27 354,-10 11,-10"/>
<text text-anchor="start" x="137" y="-16" font-family="Courier New" font-size="10.00" fill="brown">start state = 0</text>
<polygon fill="none" stroke="black" points="8,-7 8,-134 357,-134 357,-7 8,-7"/>
</g>
<!-- 0 -->
<g id="node2" class="node">
<title>0</title>
<polyline fill="none" stroke="darkred" stroke-width="3" points="402.5,-59.5 418.5,-59.5"/>
<text text-anchor="start" x="406" y="-67.8" font-family="Courier New" font-weight="bold" font-size="14.00">0</text>
<path fill="none" stroke="darkred" stroke-width="3" d="M406.17,-54.5C406.17,-54.5 414.83,-54.5 414.83,-54.5 419.17,-54.5 423.5,-58.83 423.5,-63.17 423.5,-63.17 423.5,-77.83 423.5,-77.83 423.5,-82.17 419.17,-86.5 414.83,-86.5 414.83,-86.5 406.17,-86.5 406.17,-86.5 401.83,-86.5 397.5,-82.17 397.5,-77.83 397.5,-77.83 397.5,-63.17 397.5,-63.17 397.5,-58.83 401.83,-54.5 406.17,-54.5"/>
</g>
<!-- 0&#45;&gt;0 -->
<g id="edge1" class="edge">
<title>0&#45;&gt;0</title>
<path fill="none" stroke="black" d="M437.29,-72.51C447.28,-72.58 455.5,-71.91 455.5,-70.5 455.5,-69.66 452.6,-69.09 448.16,-68.77"/>
<polygon fill="black" stroke="black" points="448.38,-65.25 438.29,-68.49 448.2,-72.25 448.38,-65.25"/>
<polygon fill="none" stroke="black" points="458.5,-88 458.5,-105 663.5,-105 663.5,-88 458.5,-88"/>
<text text-anchor="start" x="512.5" y="-95" font-family="Courier New" font-weight="bold" font-size="10.00" fill="orange">WAIT(0,SIG_SHOW)</text>
<polygon fill="none" stroke="black" points="458.5,-36 458.5,-86 663.5,-86 663.5,-36 458.5,-36"/>
<text text-anchor="start" x="461.5" y="-75" font-family="Courier New" font-size="10.00" fill="blue"> &#160;&#160;&#160;&#160;&#160;&#160;&#160;SIGNAL(WIP1,SIG_SHOW);</text>
<text text-anchor="start" x="461.5" y="-64" font-family="Courier New" font-size="10.00" fill="blue"> &#160;&#160;&#160;&#160;&#160;&#160;&#160;SIGNAL(WIP2,SIG_SHOW); &#160;&#160;</text>
<text text-anchor="start" x="461.5" y="-53" font-family="Courier New" font-size="10.00" fill="blue"> &#160;&#160;&#160;&#160;&#160;&#160;&#160;SIGNAL(WIP3,SIG_SHOW);</text>
<text text-anchor="start" x="461.5" y="-42" font-family="Courier New" font-size="10.00" fill="blue"> &#160;&#160;&#160;&#160;&#160;&#160;&#160;SIGNAL(WIP4,SIG_SHOW);</text>
<polygon fill="none" stroke="black" points="455.5,-33 455.5,-108 666.5,-108 666.5,-33 455.5,-33"/>
</g>
<!-- 0&#45;&gt;0 -->
<g id="edge2" class="edge">
<title>0&#45;&gt;0</title>
<path fill="none" stroke="black" d="M437.07,-72.75C503.82,-75.72 666.5,-74.97 666.5,-70.5 666.5,-66.25 519.92,-65.36 447.94,-67.82"/>
<polygon fill="black" stroke="black" points="447.92,-64.36 438.07,-68.25 448.2,-71.35 447.92,-64.36"/>
<polygon fill="none" stroke="black" points="669.5,-88 669.5,-105 874.5,-105 874.5,-88 669.5,-88"/>
<text text-anchor="start" x="723.5" y="-95" font-family="Courier New" font-weight="bold" font-size="10.00" fill="orange">WAIT(0,SIG_HIDE)</text>
<polygon fill="none" stroke="black" points="669.5,-36 669.5,-86 874.5,-86 874.5,-36 669.5,-36"/>
<text text-anchor="start" x="672.5" y="-75" font-family="Courier New" font-size="10.00" fill="blue"> &#160;&#160;&#160;&#160;&#160;&#160;&#160;SIGNAL(WIP1,SIG_HIDE);</text>
<text text-anchor="start" x="672.5" y="-64" font-family="Courier New" font-size="10.00" fill="blue"> &#160;&#160;&#160;&#160;&#160;&#160;&#160;SIGNAL(WIP2,SIG_HIDE); &#160;&#160;</text>
<text text-anchor="start" x="672.5" y="-53" font-family="Courier New" font-size="10.00" fill="blue"> &#160;&#160;&#160;&#160;&#160;&#160;&#160;SIGNAL(WIP3,SIG_HIDE);</text>
<text text-anchor="start" x="672.5" y="-42" font-family="Courier New" font-size="10.00" fill="blue"> &#160;&#160;&#160;&#160;&#160;&#160;&#160;SIGNAL(WIP4,SIG_HIDE);</text>
<polygon fill="none" stroke="black" points="666.5,-33 666.5,-108 877.5,-108 877.5,-33 666.5,-33"/>
</g>
<!-- 0&#45;&gt;0 -->
<g id="edge3" class="edge">
<title>0&#45;&gt;0</title>
<path fill="none" stroke="black" d="M437.3,-73.09C538.37,-78.44 877.5,-77.58 877.5,-70.5 877.5,-63.66 560.51,-62.62 448.13,-67.4"/>
<polygon fill="black" stroke="black" points="448.12,-63.94 438.3,-67.91 448.45,-70.93 448.12,-63.94"/>
<polygon fill="none" stroke="black" points="880.5,-99 880.5,-116 1091.5,-116 1091.5,-99 880.5,-99"/>
<text text-anchor="start" x="937.5" y="-106" font-family="Courier New" font-weight="bold" font-size="10.00" fill="orange">WAIT(,SIG_CLOSE)</text>
<polygon fill="none" stroke="black" points="880.5,-25 880.5,-97 1091.5,-97 1091.5,-25 880.5,-25"/>
<text text-anchor="start" x="883.5" y="-86" font-family="Courier New" font-size="10.00" fill="blue"> &#160;&#160;&#160;&#160;&#160;&#160;&#160;SIGNAL(WIP1,SIG_CLOSE);</text>
<text text-anchor="start" x="883.5" y="-75" font-family="Courier New" font-size="10.00" fill="blue"> &#160;&#160;&#160;&#160;&#160;&#160;&#160;SIGNAL(WIP2,SIG_CLOSE); &#160;&#160;</text>
<text text-anchor="start" x="883.5" y="-64" font-family="Courier New" font-size="10.00" fill="blue"> &#160;&#160;&#160;&#160;&#160;&#160;&#160;SIGNAL(WIP3,SIG_CLOSE);</text>
<text text-anchor="start" x="883.5" y="-53" font-family="Courier New" font-size="10.00" fill="blue"> &#160;&#160;&#160;&#160;&#160;&#160;&#160;SIGNAL(WIP4,SIG_CLOSE);</text>
<text text-anchor="start" x="883.5" y="-42" font-family="Courier New" font-size="10.00" fill="blue"> &#160;&#160;&#160;&#160;&#160;&#160;&#160;ASSIGN(BPARM,0);</text>
<text text-anchor="start" x="883.5" y="-31" font-family="Courier New" font-size="10.00" fill="blue"> &#160;&#160;&#160;&#160;&#160;&#160;&#160;ASSIGN(WPARM,0);</text>
<polygon fill="none" stroke="black" points="877.5,-22 877.5,-119 1094.5,-119 1094.5,-22 877.5,-22"/>
</g>
<!-- 0&#45;&gt;0 -->
<g id="edge4" class="edge">
<title>0&#45;&gt;0</title>
<path fill="none" stroke="black" d="M437.08,-73.37C565.59,-81.15 1094.5,-80.19 1094.5,-70.5 1094.5,-61.07 593.11,-59.91 448.07,-67.04"/>
<polygon fill="black" stroke="black" points="447.88,-63.6 438.08,-67.63 448.26,-70.58 447.88,-63.6"/>
<polygon fill="none" stroke="black" points="1097.5,-121 1097.5,-138 1446.5,-138 1446.5,-121 1097.5,-121"/>
<text text-anchor="start" x="1220.5" y="-128" font-family="Courier New" font-weight="bold" font-size="10.00" fill="orange">WAIT(0,SIG_CHECK)</text>
<polygon fill="none" stroke="black" points="1097.5,-3 1097.5,-119 1446.5,-119 1446.5,-3 1097.5,-3"/>
<text text-anchor="start" x="1100.5" y="-108" font-family="Courier New" font-size="10.00" fill="blue">BPARM=0;</text>
<text text-anchor="start" x="1100.5" y="-97" font-family="Courier New" font-size="10.00" fill="blue">// check all the machines for ready or idle ...</text>
<text text-anchor="start" x="1100.5" y="-86" font-family="Courier New" font-size="10.00" fill="blue">if ( &#160;(IFSTATE(&#39;ready&#39;, WIP1) \|\| IFSTATE(&#39;0&#39;, WIP1))</text>
<text text-anchor="start" x="1100.5" y="-75" font-family="Courier New" font-size="10.00" fill="blue"> &#160;&#160;&amp;&amp; (IFSTATE(&#39;ready&#39;, WIP2) \|\| IFSTATE(&#39;0&#39;, WIP2))</text>
<text text-anchor="start" x="1100.5" y="-64" font-family="Courier New" font-size="10.00" fill="blue"> &#160;&#160;&amp;&amp; (IFSTATE(&#39;ready&#39;, WIP3) \|\| IFSTATE(&#39;0&#39;, WIP3))</text>
<text text-anchor="start" x="1100.5" y="-53" font-family="Courier New" font-size="10.00" fill="blue"> &#160;&#160;&amp;&amp; (IFSTATE(&#39;ready&#39;, WIP4) \|\| IFSTATE(&#39;0&#39;, WIP4))) {</text>
<text text-anchor="start" x="1100.5" y="-42" font-family="Courier New" font-size="10.00" fill="blue"> &#160;&#160;&#160;&#160;&#160;&#160;&#160;WRITE(&#39;winner winner chicken dinner&#39;);</text>
<text text-anchor="start" x="1100.5" y="-31" font-family="Courier New" font-size="10.00" fill="blue"> &#160;&#160;&#160;&#160;&#160;&#160;&#160;BPARM=1;</text>
<text text-anchor="start" x="1100.5" y="-20" font-family="Courier New" font-size="10.00" fill="blue"> &#160;&#160;&#160;&#160;&#160;&#160;&#160;WPARM=1;</text>
<text text-anchor="start" x="1100.5" y="-9" font-family="Courier New" font-size="10.00" fill="blue">}</text>
<polygon fill="none" stroke="black" points="1094.5,0 1094.5,-141 1449.5,-141 1449.5,0 1094.5,0"/>
</g>
<!-- status -->
<g id="node3" class="node">
<title>status</title>
<polygon fill="none" stroke="black" points="1522,-30.5 1522,-110.5 2259,-110.5 2259,-30.5 1522,-30.5"/>
<polygon fill="none" stroke="black" points="1533,-86.5 1533,-103.5 2248,-103.5 2248,-86.5 1533,-86.5"/>
<text text-anchor="start" x="1809" y="-93.5" font-family="Courier New" font-weight="bold" font-size="10.00">S12_SHELF_1_INGREDIENTS_MGR</text>
<polygon fill="none" stroke="black" points="1533,-56.5 1533,-84.5 2248,-84.5 2248,-56.5 1533,-56.5"/>
<text text-anchor="start" x="1536" y="-73.5" font-family="Courier New" font-size="10.00" fill="green">S12_SHELF_1_INGREDIENTS_MGR::M12_xING_MGR(&#39;S12_SHELF_1_ING1&#39;,&#39;S12_SHELF_1_ING2&#39;,&#39;S12_SHELF_1_ING3&#39;,&#39;S12_SHELF_1_ING4&#39;)</text>
<text text-anchor="start" x="1536" y="-62.5" font-family="Courier New" font-size="10.00" fill="green">{&#39;0&#39;:}</text>
<polygon fill="none" stroke="black" points="1533,-37.5 1533,-54.5 2248,-54.5 2248,-37.5 1533,-37.5"/>
<text text-anchor="start" x="1887" y="-43.5" font-family="Courier New" font-size="10.00" fill="blue">_</text>
<polygon fill="none" stroke="black" points="1530,-34.5 1530,-106.5 2251,-106.5 2251,-34.5 1530,-34.5"/>
</g>
</g>
</svg>
