<?xml version="1.0" encoding="UTF-8" standalone="no"?>
<!DOCTYPE svg PUBLIC "-//W3C//DTD SVG 1.1//EN"
 "http://www.w3.org/Graphics/SVG/1.1/DTD/svg11.dtd">
<!-- Generated by graphviz version 10.0.1 (20240210.2158)
 -->
<!-- Title: Automaton Pages: 1 -->
<svg width="748pt" height="1113pt"
 viewBox="0.00 0.00 748.00 1113.25" xmlns="http://www.w3.org/2000/svg" xmlns:xlink="http://www.w3.org/1999/xlink">
<g id="graph0" class="graph" transform="scale(1 1) rotate(0) translate(4 1109.25)">
<title>Automaton</title>
<polygon fill="white" stroke="none" points="-4,4 -4,-1109.25 744,-1109.25 744,4 -4,4"/>
<!-- filename -->
<g id="node1" class="node">
<title>filename</title>
<polygon fill="none" stroke="black" points="0,-1038.5 0,-1092 190,-1092 190,-1038.5 0,-1038.5"/>
<polygon fill="none" stroke="black" points="11,-1066.25 11,-1085 179,-1085 179,-1066.25 11,-1066.25"/>
<text text-anchor="start" x="14" y="-1073.5" font-family="Courier New" font-weight="bold" font-size="10.00">S12_ASHSHELF1::M12_ASHSHELF</text>
<polygon fill="none" stroke="black" points="11,-1045.5 11,-1064.25 179,-1064.25 179,-1045.5 11,-1045.5"/>
<text text-anchor="start" x="50" y="-1051.75" font-family="Courier New" font-size="10.00" fill="brown">start state = 0</text>
<polygon fill="none" stroke="black" points="8,-1042.5 8,-1088 182,-1088 182,-1042.5 8,-1042.5"/>
</g>
<!-- 0 -->
<g id="node2" class="node">
<title>0</title>
<polyline fill="none" stroke="darkred" points="227.88,-1054 242.12,-1054"/>
<text text-anchor="start" x="230.88" y="-1061.2" font-family="Courier New" font-weight="bold" font-size="14.00">0</text>
<path fill="none" stroke="darkred" d="M231.62,-1051C231.62,-1051 238.38,-1051 238.38,-1051 241.75,-1051 245.12,-1054.38 245.12,-1057.75 245.12,-1057.75 245.12,-1072.75 245.12,-1072.75 245.12,-1076.12 241.75,-1079.5 238.38,-1079.5 238.38,-1079.5 231.62,-1079.5 231.62,-1079.5 228.25,-1079.5 224.88,-1076.12 224.88,-1072.75 224.88,-1072.75 224.88,-1057.75 224.88,-1057.75 224.88,-1054.38 228.25,-1051 231.62,-1051"/>
</g>
<!-- 11 -->
<g id="node3" class="node">
<title>11</title>
<polyline fill="none" stroke="darkred" points="223.75,-939 246.25,-939"/>
<text text-anchor="start" x="226.75" y="-946.2" font-family="Courier New" font-weight="bold" font-size="14.00">11</text>
<path fill="none" stroke="darkred" d="M230.25,-936C230.25,-936 239.75,-936 239.75,-936 244.5,-936 249.25,-940.75 249.25,-945.5 249.25,-945.5 249.25,-955 249.25,-955 249.25,-959.75 244.5,-964.5 239.75,-964.5 239.75,-964.5 230.25,-964.5 230.25,-964.5 225.5,-964.5 220.75,-959.75 220.75,-955 220.75,-955 220.75,-945.5 220.75,-945.5 220.75,-940.75 225.5,-936 230.25,-936"/>
</g>
<!-- 0&#45;&gt;11 -->
<g id="edge1" class="edge">
<title>0&#45;&gt;11</title>
<path fill="none" stroke="black" d="M235,-1047.09C235,-1029.15 235,-1000.7 235,-979.45"/>
<polygon fill="black" stroke="black" points="238.5,-979.72 235,-969.72 231.5,-979.72 238.5,-979.72"/>
<text text-anchor="start" x="239" y="-994.75" font-family="Courier New" font-weight="bold" font-size="10.00" fill="orange">DROP(IDC_FISHASH,0)</text>
</g>
<!-- 12 -->
<g id="node4" class="node">
<title>12</title>
<polyline fill="none" stroke="darkred" points="223.75,-845.75 246.25,-845.75"/>
<text text-anchor="start" x="226.75" y="-852.95" font-family="Courier New" font-weight="bold" font-size="14.00">12</text>
<path fill="none" stroke="darkred" d="M230.25,-842.75C230.25,-842.75 239.75,-842.75 239.75,-842.75 244.5,-842.75 249.25,-847.5 249.25,-852.25 249.25,-852.25 249.25,-861.75 249.25,-861.75 249.25,-866.5 244.5,-871.25 239.75,-871.25 239.75,-871.25 230.25,-871.25 230.25,-871.25 225.5,-871.25 220.75,-866.5 220.75,-861.75 220.75,-861.75 220.75,-852.25 220.75,-852.25 220.75,-847.5 225.5,-842.75 230.25,-842.75"/>
</g>
<!-- 11&#45;&gt;12 -->
<g id="edge2" class="edge">
<title>11&#45;&gt;12</title>
<path fill="none" stroke="black" d="M235,-932.09C235,-919.21 235,-901.31 235,-886.32"/>
<polygon fill="black" stroke="black" points="238.5,-886.6 235,-876.6 231.5,-886.6 238.5,-886.6"/>
<text text-anchor="start" x="239" y="-901.5" font-family="Courier New" font-weight="bold" font-size="10.00" fill="blue">SHOW(WOBJECT,)</text>
</g>
<!-- 13 -->
<g id="node11" class="node">
<title>13</title>
<polyline fill="none" stroke="darkred" points="223.75,-752.5 246.25,-752.5"/>
<text text-anchor="start" x="226.75" y="-759.7" font-family="Courier New" font-weight="bold" font-size="14.00">13</text>
<path fill="none" stroke="darkred" d="M230.25,-749.5C230.25,-749.5 239.75,-749.5 239.75,-749.5 244.5,-749.5 249.25,-754.25 249.25,-759 249.25,-759 249.25,-768.5 249.25,-768.5 249.25,-773.25 244.5,-778 239.75,-778 239.75,-778 230.25,-778 230.25,-778 225.5,-778 220.75,-773.25 220.75,-768.5 220.75,-768.5 220.75,-759 220.75,-759 220.75,-754.25 225.5,-749.5 230.25,-749.5"/>
</g>
<!-- 12&#45;&gt;13 -->
<g id="edge8" class="edge">
<title>12&#45;&gt;13</title>
<path fill="none" stroke="black" d="M235,-838.84C235,-825.96 235,-808.06 235,-793.07"/>
<polygon fill="black" stroke="black" points="238.5,-793.35 235,-783.35 231.5,-793.35 238.5,-793.35"/>
<text text-anchor="start" x="239" y="-808.25" font-family="Courier New" font-weight="bold" font-size="10.00" fill="blue">SIGNAL(WIP1,)</text>
</g>
<!-- 115 -->
<g id="node5" class="node">
<title>115</title>
<polyline fill="none" stroke="darkred" points="282.62,-472.75 313.38,-472.75"/>
<text text-anchor="start" x="285.62" y="-479.95" font-family="Courier New" font-weight="bold" font-size="14.00">115</text>
<path fill="none" stroke="darkred" d="M289.12,-469.75C289.12,-469.75 306.88,-469.75 306.88,-469.75 311.62,-469.75 316.38,-474.5 316.38,-479.25 316.38,-479.25 316.38,-488.75 316.38,-488.75 316.38,-493.5 311.62,-498.25 306.88,-498.25 306.88,-498.25 289.12,-498.25 289.12,-498.25 284.38,-498.25 279.62,-493.5 279.62,-488.75 279.62,-488.75 279.62,-479.25 279.62,-479.25 279.62,-474.5 284.38,-469.75 289.12,-469.75"/>
</g>
<!-- 116 -->
<g id="node6" class="node">
<title>116</title>
<polyline fill="none" stroke="darkred" points="267.62,-379.5 298.38,-379.5"/>
<text text-anchor="start" x="270.62" y="-386.7" font-family="Courier New" font-weight="bold" font-size="14.00">116</text>
<path fill="none" stroke="darkred" d="M274.12,-376.5C274.12,-376.5 291.88,-376.5 291.88,-376.5 296.62,-376.5 301.38,-381.25 301.38,-386 301.38,-386 301.38,-395.5 301.38,-395.5 301.38,-400.25 296.62,-405 291.88,-405 291.88,-405 274.12,-405 274.12,-405 269.38,-405 264.62,-400.25 264.62,-395.5 264.62,-395.5 264.62,-386 264.62,-386 264.62,-381.25 269.38,-376.5 274.12,-376.5"/>
</g>
<!-- 115&#45;&gt;116 -->
<g id="edge3" class="edge">
<title>115&#45;&gt;116</title>
<path fill="none" stroke="black" d="M295.18,-465.84C293.06,-452.96 290.12,-435.06 287.66,-420.07"/>
<polygon fill="black" stroke="black" points="291.13,-419.63 286.05,-410.33 284.22,-420.77 291.13,-419.63"/>
<text text-anchor="start" x="295" y="-435.25" font-family="Courier New" font-weight="bold" font-size="10.00" fill="blue">ASHOW(WOBJECT,)</text>
</g>
<!-- 117 -->
<g id="node7" class="node">
<title>117</title>
<polyline fill="none" stroke="darkred" points="252.62,-286.25 283.38,-286.25"/>
<text text-anchor="start" x="255.62" y="-293.45" font-family="Courier New" font-weight="bold" font-size="14.00">117</text>
<path fill="none" stroke="darkred" d="M259.12,-283.25C259.12,-283.25 276.88,-283.25 276.88,-283.25 281.62,-283.25 286.38,-288 286.38,-292.75 286.38,-292.75 286.38,-302.25 286.38,-302.25 286.38,-307 281.62,-311.75 276.88,-311.75 276.88,-311.75 259.12,-311.75 259.12,-311.75 254.38,-311.75 249.62,-307 249.62,-302.25 249.62,-302.25 249.62,-292.75 249.62,-292.75 249.62,-288 254.38,-283.25 259.12,-283.25"/>
</g>
<!-- 116&#45;&gt;117 -->
<g id="edge4" class="edge">
<title>116&#45;&gt;117</title>
<path fill="none" stroke="black" d="M280.18,-372.59C278.06,-359.71 275.12,-341.81 272.66,-326.82"/>
<polygon fill="black" stroke="black" points="276.13,-326.38 271.05,-317.08 269.22,-327.52 276.13,-326.38"/>
<text text-anchor="start" x="280" y="-342" font-family="Courier New" font-weight="bold" font-size="10.00" fill="blue">SIGNAL(WIP2,)</text>
</g>
<!-- 118 -->
<g id="node8" class="node">
<title>118</title>
<polyline fill="none" stroke="darkred" points="252.62,-193 283.38,-193"/>
<text text-anchor="start" x="255.62" y="-200.2" font-family="Courier New" font-weight="bold" font-size="14.00">118</text>
<path fill="none" stroke="darkred" d="M259.12,-190C259.12,-190 276.88,-190 276.88,-190 281.62,-190 286.38,-194.75 286.38,-199.5 286.38,-199.5 286.38,-209 286.38,-209 286.38,-213.75 281.62,-218.5 276.88,-218.5 276.88,-218.5 259.12,-218.5 259.12,-218.5 254.38,-218.5 249.62,-213.75 249.62,-209 249.62,-209 249.62,-199.5 249.62,-199.5 249.62,-194.75 254.38,-190 259.12,-190"/>
</g>
<!-- 117&#45;&gt;118 -->
<g id="edge5" class="edge">
<title>117&#45;&gt;118</title>
<path fill="none" stroke="black" d="M268,-279.34C268,-266.46 268,-248.56 268,-233.57"/>
<polygon fill="black" stroke="black" points="271.5,-233.85 268,-223.85 264.5,-233.85 271.5,-233.85"/>
<text text-anchor="start" x="272" y="-248.75" font-family="Courier New" font-weight="bold" font-size="10.00" fill="blue">SIGNAL(WIP3,)</text>
</g>
<!-- 119 -->
<g id="node9" class="node">
<title>119</title>
<polyline fill="none" stroke="darkred" points="213.62,-99.75 244.38,-99.75"/>
<text text-anchor="start" x="216.62" y="-106.95" font-family="Courier New" font-weight="bold" font-size="14.00">119</text>
<path fill="none" stroke="darkred" d="M220.12,-96.75C220.12,-96.75 237.88,-96.75 237.88,-96.75 242.62,-96.75 247.38,-101.5 247.38,-106.25 247.38,-106.25 247.38,-115.75 247.38,-115.75 247.38,-120.5 242.62,-125.25 237.88,-125.25 237.88,-125.25 220.12,-125.25 220.12,-125.25 215.38,-125.25 210.62,-120.5 210.62,-115.75 210.62,-115.75 210.62,-106.25 210.62,-106.25 210.62,-101.5 215.38,-96.75 220.12,-96.75"/>
</g>
<!-- 118&#45;&gt;119 -->
<g id="edge6" class="edge">
<title>118&#45;&gt;119</title>
<path fill="none" stroke="black" d="M260.66,-186.09C255.05,-172.96 247.21,-154.6 240.73,-139.44"/>
<polygon fill="black" stroke="black" points="244.05,-138.3 236.9,-130.48 237.61,-141.05 244.05,-138.3"/>
<text text-anchor="start" x="255" y="-155.5" font-family="Courier New" font-weight="bold" font-size="10.00" fill="orange">GRAB(0,0)</text>
</g>
<!-- 10 -->
<g id="node10" class="node">
<title>10</title>
<ellipse fill="none" stroke="black" cx="229" cy="-18" rx="27" ry="18"/>
<text text-anchor="middle" x="229" y="-12.95" font-family="Courier New" font-size="14.00">10</text>
</g>
<!-- 119&#45;&gt;10 -->
<g id="edge7" class="edge">
<title>119&#45;&gt;10</title>
<path fill="none" stroke="black" d="M229,-92.88C229,-80.13 229,-62.42 229,-47.53"/>
<polygon fill="black" stroke="black" points="232.5,-47.86 229,-37.86 225.5,-47.86 232.5,-47.86"/>
<text text-anchor="start" x="233" y="-62.25" font-family="Courier New" font-weight="bold" font-size="10.00" fill="blue">SHOW(0,0)</text>
</g>
<!-- 13&#45;&gt;119 -->
<g id="edge9" class="edge">
<title>13&#45;&gt;119</title>
<path fill="none" stroke="black" d="M228.28,-745.55C221.81,-727.43 213,-697.9 213,-671.5 213,-671.5 213,-671.5 213,-203.25 213,-181.85 217.32,-158.04 221.48,-140.11"/>
<polygon fill="black" stroke="black" points="224.86,-141.01 223.84,-130.47 218.06,-139.35 224.86,-141.01"/>
<text text-anchor="start" x="217" y="-435.25" font-family="Courier New" font-weight="bold" font-size="10.00" fill="orange">GRAB(0,0)</text>
</g>
<!-- 14 -->
<g id="node12" class="node">
<title>14</title>
<polyline fill="none" stroke="darkred" points="256.75,-659.25 279.25,-659.25"/>
<text text-anchor="start" x="259.75" y="-666.45" font-family="Courier New" font-weight="bold" font-size="14.00">14</text>
<path fill="none" stroke="darkred" d="M263.25,-656.25C263.25,-656.25 272.75,-656.25 272.75,-656.25 277.5,-656.25 282.25,-661 282.25,-665.75 282.25,-665.75 282.25,-675.25 282.25,-675.25 282.25,-680 277.5,-684.75 272.75,-684.75 272.75,-684.75 263.25,-684.75 263.25,-684.75 258.5,-684.75 253.75,-680 253.75,-675.25 253.75,-675.25 253.75,-665.75 253.75,-665.75 253.75,-661 258.5,-656.25 263.25,-656.25"/>
</g>
<!-- 13&#45;&gt;14 -->
<g id="edge10" class="edge">
<title>13&#45;&gt;14</title>
<path fill="none" stroke="black" d="M241.21,-745.59C245.91,-732.59 252.47,-714.45 257.92,-699.38"/>
<polygon fill="black" stroke="black" points="261.2,-700.6 261.31,-690.01 254.61,-698.22 261.2,-700.6"/>
<text text-anchor="start" x="258" y="-715" font-family="Courier New" font-weight="bold" font-size="10.00" fill="orange">WAIT(0,0)</text>
</g>
<!-- 15 -->
<g id="node13" class="node">
<title>15</title>
<polyline fill="none" stroke="darkred" points="256.75,-566 279.25,-566"/>
<text text-anchor="start" x="259.75" y="-573.2" font-family="Courier New" font-weight="bold" font-size="14.00">15</text>
<path fill="none" stroke="darkred" d="M263.25,-563C263.25,-563 272.75,-563 272.75,-563 277.5,-563 282.25,-567.75 282.25,-572.5 282.25,-572.5 282.25,-582 282.25,-582 282.25,-586.75 277.5,-591.5 272.75,-591.5 272.75,-591.5 263.25,-591.5 263.25,-591.5 258.5,-591.5 253.75,-586.75 253.75,-582 253.75,-582 253.75,-572.5 253.75,-572.5 253.75,-567.75 258.5,-563 263.25,-563"/>
</g>
<!-- 14&#45;&gt;15 -->
<g id="edge11" class="edge">
<title>14&#45;&gt;15</title>
<path fill="none" stroke="black" d="M268,-652.34C268,-639.46 268,-621.56 268,-606.57"/>
<polygon fill="black" stroke="black" points="271.5,-606.85 268,-596.85 264.5,-606.85 271.5,-606.85"/>
<text text-anchor="start" x="272" y="-621.75" font-family="Courier New" font-weight="bold" font-size="10.00" fill="blue">ADDI(WOBJECT,IDD_SPELL01&#45;IDD_FISHASH1)</text>
</g>
<!-- 15&#45;&gt;115 -->
<g id="edge12" class="edge">
<title>15&#45;&gt;115</title>
<path fill="none" stroke="black" d="M260.01,-559.44C255.73,-547.97 252.39,-532.67 258,-520.25 259.61,-516.68 261.78,-513.33 264.28,-510.23"/>
<polygon fill="black" stroke="black" points="266.59,-512.87 270.97,-503.22 261.53,-508.04 266.59,-512.87"/>
<text text-anchor="start" x="262" y="-528.5" font-family="Courier New" font-weight="bold" font-size="10.00" fill="blue">ADDI(WOBJECT,IDD_SPELx01&#45;IDD_SPELL01)</text>
</g>
<!-- 15&#45;&gt;115 -->
<g id="edge13" class="edge">
<title>15&#45;&gt;115</title>
<path fill="none" stroke="black" d="M294.94,-576.1C348.1,-575.16 463.47,-569.77 488,-541 530.72,-490.88 403.21,-484.41 336.24,-484.33"/>
<polygon fill="black" stroke="black" points="336.38,-480.83 326.4,-484.37 336.41,-487.83 336.38,-480.83"/>
<text text-anchor="start" x="500" y="-528.5" font-family="Courier New" font-weight="bold" font-size="10.00" fill="blue">NOTSTATE(M12_SPRING_PRESENT,WIP3)</text>
</g>
<!-- status -->
<g id="node14" class="node">
<title>status</title>
<polygon fill="none" stroke="black" points="280,-1025.75 280,-1104.75 740,-1104.75 740,-1025.75 280,-1025.75"/>
<polygon fill="none" stroke="black" points="291,-1079 291,-1097.75 729,-1097.75 729,-1079 291,-1079"/>
<text text-anchor="start" x="471" y="-1086.25" font-family="Courier New" font-weight="bold" font-size="10.00">S12_ASHSHELF1</text>
<polygon fill="none" stroke="black" points="291,-1032.75 291,-1077 729,-1077 729,-1032.75 291,-1032.75"/>
<text text-anchor="start" x="294" y="-1064.5" font-family="Courier New" font-size="10.00" fill="green">VIEW::IDV_VESTPAN1 @pos(left:95, top:140)</text>
<text text-anchor="start" x="294" y="-1051.75" font-family="Courier New" font-size="10.00" fill="green">S12_ASHSHELF1::M12_ASHSHELF(&#39;S12_CANDLE1&#39;,&#39;S12_WATER1&#39;,&#39;S12_SPRING1&#39;,&#39;&#39;)</text>
<text text-anchor="start" x="294" y="-1039" font-family="Courier New" font-size="10.00" fill="green">{state:&#39;10&#39;:</text>
<polygon fill="none" stroke="black" points="288,-1029.75 288,-1100.75 732,-1100.75 732,-1029.75 288,-1029.75"/>
</g>
</g>
</svg>
