<?xml version="1.0" encoding="UTF-8" standalone="no"?>
<!DOCTYPE svg PUBLIC "-//W3C//DTD SVG 1.1//EN"
 "http://www.w3.org/Graphics/SVG/1.1/DTD/svg11.dtd">
<!-- Generated by graphviz version 8.0.1 (20230327.1645)
 -->
<!-- Title: Automaton Pages: 1 -->
<svg width="785pt" height="195pt"
 viewBox="0.00 0.00 784.50 195.00" xmlns="http://www.w3.org/2000/svg" xmlns:xlink="http://www.w3.org/1999/xlink">
<g id="graph0" class="graph" transform="scale(1 1) rotate(0) translate(4 191)">
<title>Automaton</title>
<polygon fill="white" stroke="none" points="-4,4 -4,-191 780.5,-191 780.5,4 -4,4"/>
<!-- filename -->
<g id="node1" class="node">
<title>filename</title>
<polygon fill="none" stroke="black" points="0,-125.5 0,-175.5 161,-175.5 161,-125.5 0,-125.5"/>
<polygon fill="none" stroke="black" points="11,-151.5 11,-168.5 150,-168.5 150,-151.5 11,-151.5"/>
<text text-anchor="start" x="14" y="-158.5" font-family="Courier New" font-weight="bold" font-size="10.00">S12_ING1::M12_ING_NATA</text>
<polygon fill="none" stroke="black" points="11,-132.5 11,-149.5 150,-149.5 150,-132.5 11,-132.5"/>
<text text-anchor="start" x="35" y="-138.5" font-family="Courier New" font-size="10.00" fill="brown">start state = 0</text>
<polygon fill="none" stroke="black" points="8,-129.5 8,-171.5 153,-171.5 153,-129.5 8,-129.5"/>
</g>
<!-- 0 -->
<g id="node2" class="node">
<title>0</title>
<polyline fill="none" stroke="darkred" stroke-width="3" points="198.5,-139.5 214.5,-139.5"/>
<text text-anchor="start" x="202" y="-147.8" font-family="Courier New" font-weight="bold" font-size="14.00">0</text>
<path fill="none" stroke="darkred" stroke-width="3" d="M202.17,-134.5C202.17,-134.5 210.83,-134.5 210.83,-134.5 215.17,-134.5 219.5,-138.83 219.5,-143.17 219.5,-143.17 219.5,-157.83 219.5,-157.83 219.5,-162.17 215.17,-166.5 210.83,-166.5 210.83,-166.5 202.17,-166.5 202.17,-166.5 197.83,-166.5 193.5,-162.17 193.5,-157.83 193.5,-157.83 193.5,-143.17 193.5,-143.17 193.5,-138.83 197.83,-134.5 202.17,-134.5"/>
</g>
<!-- 1 -->
<g id="node3" class="node">
<title>1</title>
<polyline fill="none" stroke="darkred" points="199,-7.5 214,-7.5"/>
<text text-anchor="start" x="202" y="-15.3" font-family="Courier New" font-weight="bold" font-size="14.00">1</text>
<path fill="none" stroke="darkred" d="M203,-4.5C203,-4.5 210,-4.5 210,-4.5 213.5,-4.5 217,-8 217,-11.5 217,-11.5 217,-24.5 217,-24.5 217,-28 213.5,-31.5 210,-31.5 210,-31.5 203,-31.5 203,-31.5 199.5,-31.5 196,-28 196,-24.5 196,-24.5 196,-11.5 196,-11.5 196,-8 199.5,-4.5 203,-4.5"/>
</g>
<!-- 0&#45;&gt;1 -->
<g id="edge1" class="edge">
<title>0&#45;&gt;1</title>
<path fill="none" stroke="black" d="M186.68,-129.37C181.26,-124.18 175.29,-118.73 169.5,-114 158.62,-105.11 150.02,-108.45 143.5,-96 134.84,-79.47 134.03,-70.09 143.5,-54 149.46,-43.87 159.54,-36.46 169.9,-31.14"/>
<polygon fill="black" stroke="black" points="171.13,-33.97 178.8,-26.65 168.25,-27.59 171.13,-33.97"/>
<text text-anchor="start" x="147.5" y="-73.5" font-family="Courier New" font-weight="bold" font-size="10.00" fill="orange">WAIT(0,SIG_SHOW)</text>
</g>
<!-- 1&#45;&gt;0 -->
<g id="edge2" class="edge">
<title>1&#45;&gt;0</title>
<path fill="none" stroke="black" d="M233.32,-35.39C239.43,-40.53 245.12,-46.78 248.5,-54 256.42,-70.9 254.6,-78.36 248.5,-96 245.45,-104.82 240.28,-113.3 234.59,-120.8"/>
<polygon fill="black" stroke="black" points="231.4,-118.17 227.76,-128.12 236.81,-122.61 231.4,-118.17"/>
<polygon fill="none" stroke="black" points="256.5,-76 256.5,-93 773.5,-93 773.5,-76 256.5,-76"/>
<text text-anchor="start" x="457.5" y="-83" font-family="Courier New" font-weight="bold" font-size="10.00" fill="blue">REF_MACHINE(WIP1,0)</text>
<polygon fill="none" stroke="black" points="256.5,-57 256.5,-74 773.5,-74 773.5,-57 256.5,-57"/>
<text text-anchor="start" x="259.5" y="-63" font-family="Courier New" font-size="10.00" fill="blue">CLEAR(BFRAME);MOV(WPARM,R_WPARM);MOV(BFRAME,WPARM);MAPi(BFRAME,S12_ING_A);SHOW(WIP4);</text>
<polygon fill="none" stroke="black" points="253.5,-54 253.5,-96 776.5,-96 776.5,-54 253.5,-54"/>
</g>
<!-- status -->
<g id="node4" class="node">
<title>status</title>
<polygon fill="none" stroke="black" points="252,-114.5 252,-186.5 683,-186.5 683,-114.5 252,-114.5"/>
<polygon fill="none" stroke="black" points="263,-162.5 263,-179.5 672,-179.5 672,-162.5 263,-162.5"/>
<text text-anchor="start" x="443" y="-169.5" font-family="Courier New" font-weight="bold" font-size="10.00">S12_ING1</text>
<polygon fill="none" stroke="black" points="263,-121.5 263,-160.5 672,-160.5 672,-121.5 263,-121.5"/>
<text text-anchor="start" x="266" y="-149.5" font-family="Courier New" font-size="10.00" fill="green">VIEW::IDV_SPELLPAN @pos(left:213, top:105)</text>
<text text-anchor="start" x="266" y="-138.5" font-family="Courier New" font-size="10.00" fill="green">S12_ING1::M12_ING_NATA(&#39;SMP_EYEINFO&#39;,&#39;S12_ING_A&#39;,&#39;&#39;,&#39;IDS_PLNTSCRL&#39;)</text>
<text text-anchor="start" x="266" y="-127.5" font-family="Courier New" font-size="10.00" fill="green">{state:&#39;0&#39;: wParm:2 wSprite:IDS_PLNTSCRL bFrame:13</text>
<polygon fill="none" stroke="black" points="260,-118.5 260,-182.5 675,-182.5 675,-118.5 260,-118.5"/>
</g>
</g>
</svg>
