<?xml version="1.0" encoding="UTF-8" standalone="no"?>
<!DOCTYPE svg PUBLIC "-//W3C//DTD SVG 1.1//EN"
 "http://www.w3.org/Graphics/SVG/1.1/DTD/svg11.dtd">
<!-- Generated by graphviz version 10.0.1 (20240210.2158)
 -->
<!-- Title: Automaton Pages: 1 -->
<svg width="772pt" height="565pt"
 viewBox="0.00 0.00 771.68 564.75" xmlns="http://www.w3.org/2000/svg" xmlns:xlink="http://www.w3.org/1999/xlink">
<g id="graph0" class="graph" transform="scale(1 1) rotate(0) translate(4 560.75)">
<title>Automaton</title>
<polygon fill="white" stroke="none" points="-4,4 -4,-560.75 767.68,-560.75 767.68,4 -4,4"/>
<!-- filename -->
<g id="node1" class="node">
<title>filename</title>
<polygon fill="none" stroke="black" points="113.68,-490 113.68,-543.5 285.68,-543.5 285.68,-490 113.68,-490"/>
<polygon fill="none" stroke="black" points="124.68,-517.75 124.68,-536.5 274.68,-536.5 274.68,-517.75 124.68,-517.75"/>
<text text-anchor="start" x="127.68" y="-525" font-family="Courier New" font-weight="bold" font-size="10.00">S12_CANDLE2::M12_CANDLE2</text>
<polygon fill="none" stroke="black" points="124.68,-497 124.68,-515.75 274.68,-515.75 274.68,-497 124.68,-497"/>
<text text-anchor="start" x="154.68" y="-503.25" font-family="Courier New" font-size="10.00" fill="brown">start state = 0</text>
<polygon fill="none" stroke="black" points="121.68,-494 121.68,-539.5 277.68,-539.5 277.68,-494 121.68,-494"/>
</g>
<!-- 0 -->
<g id="node2" class="node">
<title>0</title>
<polyline fill="none" stroke="darkred" points="323.55,-505.5 337.8,-505.5"/>
<text text-anchor="start" x="326.55" y="-512.7" font-family="Courier New" font-weight="bold" font-size="14.00">0</text>
<path fill="none" stroke="darkred" d="M327.3,-502.5C327.3,-502.5 334.05,-502.5 334.05,-502.5 337.43,-502.5 340.8,-505.88 340.8,-509.25 340.8,-509.25 340.8,-524.25 340.8,-524.25 340.8,-527.62 337.43,-531 334.05,-531 334.05,-531 327.3,-531 327.3,-531 323.93,-531 320.55,-527.62 320.55,-524.25 320.55,-524.25 320.55,-509.25 320.55,-509.25 320.55,-505.88 323.93,-502.5 327.3,-502.5"/>
</g>
<!-- lit -->
<g id="node3" class="node">
<title>lit</title>
<polyline fill="none" stroke="darkred" points="73.3,-365.75 104.05,-365.75"/>
<text text-anchor="start" x="76.3" y="-372.95" font-family="Courier New" font-weight="bold" font-size="14.00">lit</text>
<path fill="none" stroke="darkred" d="M79.8,-362.75C79.8,-362.75 97.55,-362.75 97.55,-362.75 102.3,-362.75 107.05,-367.5 107.05,-372.25 107.05,-372.25 107.05,-381.75 107.05,-381.75 107.05,-386.5 102.3,-391.25 97.55,-391.25 97.55,-391.25 79.8,-391.25 79.8,-391.25 75.05,-391.25 70.3,-386.5 70.3,-381.75 70.3,-381.75 70.3,-372.25 70.3,-372.25 70.3,-367.5 75.05,-362.75 79.8,-362.75"/>
</g>
<!-- 0&#45;&gt;lit -->
<g id="edge1" class="edge">
<title>0&#45;&gt;lit</title>
<path fill="none" stroke="black" d="M317.54,-498.82C311.19,-491.41 303.13,-482.99 294.68,-476.75 241.12,-437.19 169.21,-407.05 126.06,-390.98"/>
<polygon fill="black" stroke="black" points="127.49,-387.78 116.9,-387.63 125.08,-394.35 127.49,-387.78"/>
<polygon fill="none" stroke="black" points="267.68,-437 267.68,-455.75 405.68,-455.75 405.68,-437 267.68,-437"/>
<text text-anchor="start" x="285.68" y="-444.25" font-family="Courier New" font-weight="bold" font-size="10.00" fill="orange">DRAG(0,IDD_MATCH)</text>
<polygon fill="none" stroke="black" points="267.68,-416.25 267.68,-435 405.68,-435 405.68,-416.25 267.68,-416.25"/>
<text text-anchor="start" x="270.68" y="-422.5" font-family="Courier New" font-size="10.00" fill="blue"> &#160;&#160;&#160;SHOW(IDD_VESTCAN);</text>
<polygon fill="none" stroke="black" points="264.68,-413.25 264.68,-458.75 408.68,-458.75 408.68,-413.25 264.68,-413.25"/>
</g>
<!-- ritualChecked -->
<g id="node4" class="node">
<title>ritualChecked</title>
<polyline fill="none" stroke="darkred" stroke-width="3" points="84.55,-154 198.8,-154"/>
<text text-anchor="start" x="88.05" y="-161.7" font-family="Courier New" font-weight="bold" font-size="14.00">ritualChecked</text>
<path fill="none" stroke="darkred" stroke-width="3" d="M90.72,-149C90.72,-149 192.64,-149 192.64,-149 198.22,-149 203.8,-154.58 203.8,-160.17 203.8,-160.17 203.8,-171.33 203.8,-171.33 203.8,-176.92 198.22,-182.5 192.64,-182.5 192.64,-182.5 90.72,-182.5 90.72,-182.5 85.14,-182.5 79.55,-176.92 79.55,-171.33 79.55,-171.33 79.55,-160.17 79.55,-160.17 79.55,-154.58 85.14,-149 90.72,-149"/>
</g>
<!-- lit&#45;&gt;ritualChecked -->
<g id="edge2" class="edge">
<title>lit&#45;&gt;ritualChecked</title>
<path fill="none" stroke="black" d="M61.89,-368.48C48.19,-363.13 32.75,-354.4 24.68,-340.75 -5.79,-289.19 -10.29,-254.62 24.68,-206 33.35,-193.94 45.91,-185.54 59.61,-179.69"/>
<polygon fill="black" stroke="black" points="60.71,-183.01 68.85,-176.23 58.25,-176.46 60.71,-183.01"/>
<polygon fill="none" stroke="black" points="27.68,-319 27.68,-337.75 417.68,-337.75 417.68,-319 27.68,-319"/>
<text text-anchor="start" x="177.68" y="-326.25" font-family="Courier New" font-weight="bold" font-size="10.00" fill="blue">ASSIGN(BPARM,0)</text>
<polygon fill="none" stroke="black" points="27.68,-209 27.68,-317 417.68,-317 417.68,-209 27.68,-209"/>
<text text-anchor="start" x="30.68" y="-304.5" font-family="Courier New" font-size="10.00" fill="blue"> &#160;//need 2 things in place </text>
<text text-anchor="start" x="30.68" y="-291.75" font-family="Courier New" font-size="10.00" fill="blue"> &#160;REF_MACHINE(S12_ASHSHELF2);</text>
<text text-anchor="start" x="30.68" y="-279" font-family="Courier New" font-size="10.00" fill="blue"> &#160;if(R_WOBJECT &gt; 0){ADDI(BPARM,1);}</text>
<text text-anchor="start" x="30.68" y="-266.25" font-family="Courier New" font-size="10.00" fill="blue"> &#160;</text>
<text text-anchor="start" x="30.68" y="-253.5" font-family="Courier New" font-size="10.00" fill="blue"> &#160;&#160;REF_MACHINE(S12_WATER1);</text>
<text text-anchor="start" x="30.68" y="-240.75" font-family="Courier New" font-size="10.00" fill="blue"> &#160;if(IFSTATE(nystromAdded,S12_WATER2)){ADDI(BPARM,1);}</text>
<text text-anchor="start" x="30.68" y="-228" font-family="Courier New" font-size="10.00" fill="blue"> &#160;if(GTE(BPARM,2)){SIGNAL(WIP3,SIG_SHOW);SIGNAL(WIP2,SIG_HIDE);}</text>
<text text-anchor="start" x="30.68" y="-215.25" font-family="Courier New" font-size="10.00" fill="blue"> &#160;</text>
<polygon fill="none" stroke="black" points="24.68,-206 24.68,-340.75 420.68,-340.75 420.68,-206 24.68,-206"/>
</g>
<!-- snuffed -->
<g id="node5" class="node">
<title>snuffed</title>
<polyline fill="none" stroke="darkred" points="259.8,-7 323.55,-7"/>
<text text-anchor="start" x="262.8" y="-14.2" font-family="Courier New" font-weight="bold" font-size="14.00">snuffed</text>
<path fill="none" stroke="darkred" d="M266.3,-4C266.3,-4 317.05,-4 317.05,-4 321.8,-4 326.55,-8.75 326.55,-13.5 326.55,-13.5 326.55,-23 326.55,-23 326.55,-27.75 321.8,-32.5 317.05,-32.5 317.05,-32.5 266.3,-32.5 266.3,-32.5 261.55,-32.5 256.8,-27.75 256.8,-23 256.8,-23 256.8,-13.5 256.8,-13.5 256.8,-8.75 261.55,-4 266.3,-4"/>
</g>
<!-- ritualChecked&#45;&gt;snuffed -->
<g id="edge3" class="edge">
<title>ritualChecked&#45;&gt;snuffed</title>
<path fill="none" stroke="black" d="M163.49,-143.59C190.71,-117.19 237.17,-72.12 266.06,-44.11"/>
<polygon fill="black" stroke="black" points="268.23,-46.87 272.97,-37.4 263.36,-41.85 268.23,-46.87"/>
<polygon fill="none" stroke="black" points="254.68,-103.75 254.68,-122.5 416.68,-122.5 416.68,-103.75 254.68,-103.75"/>
<text text-anchor="start" x="311.68" y="-111" font-family="Courier New" font-weight="bold" font-size="10.00" fill="orange">CLICK(,)</text>
<polygon fill="none" stroke="black" points="254.68,-57.5 254.68,-101.75 416.68,-101.75 416.68,-57.5 254.68,-57.5"/>
<text text-anchor="start" x="257.68" y="-89.25" font-family="Courier New" font-size="10.00" fill="blue"> &#160;&#160;&#160;SHOW();</text>
<text text-anchor="start" x="257.68" y="-76.5" font-family="Courier New" font-size="10.00" fill="blue"> &#160;&#160;&#160;SIGNAL(WIP1,SIG_HIDE);</text>
<text text-anchor="start" x="257.68" y="-63.75" font-family="Courier New" font-size="10.00" fill="blue"> &#160;&#160;&#160;</text>
<polygon fill="none" stroke="black" points="251.68,-54.5 251.68,-125.5 419.68,-125.5 419.68,-54.5 251.68,-54.5"/>
</g>
<!-- snuffed&#45;&gt;0 -->
<g id="edge4" class="edge">
<title>snuffed&#45;&gt;0</title>
<path fill="none" stroke="black" d="M334.24,-24.95C368.52,-30.52 412.74,-40.25 423.68,-54.5 533.15,-197.05 518.97,-313.81 412.68,-458.75 399.7,-476.45 384.81,-464.37 366.68,-476.75 361.12,-480.55 355.81,-485.35 351.05,-490.28"/>
<polygon fill="black" stroke="black" points="348.72,-487.63 344.63,-497.41 353.92,-492.32 348.72,-487.63"/>
<text text-anchor="start" x="502.68" y="-271.25" font-family="Courier New" font-weight="bold" font-size="10.00" fill="blue">Z_EPSILON(,)</text>
</g>
<!-- status -->
<g id="node6" class="node">
<title>status</title>
<polygon fill="none" stroke="black" points="375.68,-477.25 375.68,-556.25 763.68,-556.25 763.68,-477.25 375.68,-477.25"/>
<polygon fill="none" stroke="black" points="386.68,-530.5 386.68,-549.25 752.68,-549.25 752.68,-530.5 386.68,-530.5"/>
<text text-anchor="start" x="536.68" y="-537.75" font-family="Courier New" font-weight="bold" font-size="10.00">S12_CANDLE2</text>
<polygon fill="none" stroke="black" points="386.68,-484.25 386.68,-528.5 752.68,-528.5 752.68,-484.25 386.68,-484.25"/>
<text text-anchor="start" x="389.68" y="-516" font-family="Courier New" font-size="10.00" fill="green">VIEW::IDV_VESTPAN2 @pos(left:501, top:137)</text>
<text text-anchor="start" x="389.68" y="-503.25" font-family="Courier New" font-size="10.00" fill="green">S12_CANDLE2::M12_CANDLE2(&#39;S12_WATER2&#39;,&#39;S12_ASHSHELF2&#39;,&#39;&#39;,&#39;&#39;)</text>
<text text-anchor="start" x="389.68" y="-490.5" font-family="Courier New" font-size="10.00" fill="green">{state:&#39;ritualChecked&#39;: bParm:2 wSprite:VESTCAN</text>
<polygon fill="none" stroke="black" points="383.68,-481.25 383.68,-552.25 755.68,-552.25 755.68,-481.25 383.68,-481.25"/>
</g>
</g>
</svg>
