<?xml version="1.0" encoding="UTF-8" standalone="no"?>
<!DOCTYPE svg PUBLIC "-//W3C//DTD SVG 1.1//EN"
 "http://www.w3.org/Graphics/SVG/1.1/DTD/svg11.dtd">
<!-- Generated by graphviz version 10.0.1 (20240210.2158)
 -->
<!-- Title: Automaton Pages: 1 -->
<svg width="712pt" height="332pt"
 viewBox="0.00 0.00 712.00 332.00" xmlns="http://www.w3.org/2000/svg" xmlns:xlink="http://www.w3.org/1999/xlink">
<g id="graph0" class="graph" transform="scale(1 1) rotate(0) translate(4 328)">
<title>Automaton</title>
<polygon fill="white" stroke="none" points="-4,4 -4,-328 708,-328 708,4 -4,4"/>
<!-- filename -->
<g id="node1" class="node">
<title>filename</title>
<polygon fill="none" stroke="black" points="0,-257.25 0,-310.75 178,-310.75 178,-257.25 0,-257.25"/>
<polygon fill="none" stroke="black" points="11,-285 11,-303.75 167,-303.75 167,-285 11,-285"/>
<text text-anchor="start" x="14" y="-292.25" font-family="Courier New" font-weight="bold" font-size="10.00">S12_ASHSHELF1A::M12_SHELF</text>
<polygon fill="none" stroke="black" points="11,-264.25 11,-283 167,-283 167,-264.25 11,-264.25"/>
<text text-anchor="start" x="44" y="-270.5" font-family="Courier New" font-size="10.00" fill="brown">start state = 0</text>
<polygon fill="none" stroke="black" points="8,-261.25 8,-306.75 170,-306.75 170,-261.25 8,-261.25"/>
</g>
<!-- 0 -->
<g id="node2" class="node">
<title>0</title>
<polyline fill="none" stroke="darkred" points="215.88,-272.75 230.12,-272.75"/>
<text text-anchor="start" x="218.88" y="-279.95" font-family="Courier New" font-weight="bold" font-size="14.00">0</text>
<path fill="none" stroke="darkred" d="M219.62,-269.75C219.62,-269.75 226.38,-269.75 226.38,-269.75 229.75,-269.75 233.12,-273.12 233.12,-276.5 233.12,-276.5 233.12,-291.5 233.12,-291.5 233.12,-294.88 229.75,-298.25 226.38,-298.25 226.38,-298.25 219.62,-298.25 219.62,-298.25 216.25,-298.25 212.88,-294.88 212.88,-291.5 212.88,-291.5 212.88,-276.5 212.88,-276.5 212.88,-273.12 216.25,-269.75 219.62,-269.75"/>
</g>
<!-- holding -->
<g id="node3" class="node">
<title>holding</title>
<polyline fill="none" stroke="darkred" stroke-width="3" points="144.62,-128.5 209.38,-128.5"/>
<text text-anchor="start" x="148.12" y="-136.2" font-family="Courier New" font-weight="bold" font-size="14.00">holding</text>
<path fill="none" stroke="darkred" stroke-width="3" d="M150.79,-123.5C150.79,-123.5 203.21,-123.5 203.21,-123.5 208.79,-123.5 214.38,-129.08 214.38,-134.67 214.38,-134.67 214.38,-145.83 214.38,-145.83 214.38,-151.42 208.79,-157 203.21,-157 203.21,-157 150.79,-157 150.79,-157 145.21,-157 139.62,-151.42 139.62,-145.83 139.62,-145.83 139.62,-134.67 139.62,-134.67 139.62,-129.08 145.21,-123.5 150.79,-123.5"/>
</g>
<!-- 0&#45;&gt;holding -->
<g id="edge1" class="edge">
<title>0&#45;&gt;holding</title>
<path fill="none" stroke="black" d="M209.24,-266.04C202.9,-258.79 195.01,-250.51 187,-244 174.94,-234.19 164.66,-239.53 157,-226 147.77,-209.7 152.16,-189.34 159.14,-172.65"/>
<polygon fill="black" stroke="black" points="162.28,-174.21 163.35,-163.67 155.94,-171.24 162.28,-174.21"/>
<polygon fill="none" stroke="black" points="160,-204.25 160,-223 274,-223 274,-204.25 160,-204.25"/>
<text text-anchor="start" x="184" y="-211.5" font-family="Courier New" font-weight="bold" font-size="10.00" fill="orange">DROP(WIP3,)</text>
<polygon fill="none" stroke="black" points="160,-183.5 160,-202.25 274,-202.25 274,-183.5 160,-183.5"/>
<text text-anchor="start" x="163" y="-189.75" font-family="Courier New" font-size="10.00" fill="blue"> &#160;&#160;&#160;SHOW(WOBJECT);</text>
<polygon fill="none" stroke="black" points="157,-180.5 157,-226 277,-226 277,-180.5 157,-180.5"/>
</g>
<!-- empty -->
<g id="node4" class="node">
<title>empty</title>
<polyline fill="none" stroke="darkred" points="210.38,-7 257.62,-7"/>
<text text-anchor="start" x="213.38" y="-14.2" font-family="Courier New" font-weight="bold" font-size="14.00">empty</text>
<path fill="none" stroke="darkred" d="M216.88,-4C216.88,-4 251.12,-4 251.12,-4 255.88,-4 260.62,-8.75 260.62,-13.5 260.62,-13.5 260.62,-23 260.62,-23 260.62,-27.75 255.88,-32.5 251.12,-32.5 251.12,-32.5 216.88,-32.5 216.88,-32.5 212.12,-32.5 207.38,-27.75 207.38,-23 207.38,-23 207.38,-13.5 207.38,-13.5 207.38,-8.75 212.12,-4 216.88,-4"/>
</g>
<!-- holding&#45;&gt;empty -->
<g id="edge3" class="edge">
<title>holding&#45;&gt;empty</title>
<path fill="none" stroke="black" d="M179.33,-118.24C182.02,-100.35 187.64,-74.44 199,-54.5 200.94,-51.1 203.29,-47.8 205.84,-44.67"/>
<polygon fill="black" stroke="black" points="208.25,-47.22 212.4,-37.47 203.08,-42.5 208.25,-47.22"/>
<polygon fill="none" stroke="black" points="202,-78.25 202,-97 274,-97 274,-78.25 202,-78.25"/>
<text text-anchor="start" x="217" y="-85.5" font-family="Courier New" font-weight="bold" font-size="10.00" fill="orange">GRAB(,)</text>
<polygon fill="none" stroke="black" points="202,-57.5 202,-76.25 274,-76.25 274,-57.5 202,-57.5"/>
<text text-anchor="start" x="205" y="-63.75" font-family="Courier New" font-size="10.00" fill="blue"> &#160;&#160;&#160;SHOW();</text>
<polygon fill="none" stroke="black" points="199,-54.5 199,-100 277,-100 277,-54.5 199,-54.5"/>
</g>
<!-- empty&#45;&gt;0 -->
<g id="edge2" class="edge">
<title>empty&#45;&gt;0</title>
<path fill="none" stroke="black" d="M262.34,-36.43C268.26,-41.46 273.7,-47.52 277,-54.5 309.61,-123.4 306.17,-155.58 277,-226 272.67,-236.45 266.84,-235.84 259,-244 254.88,-248.29 250.54,-252.9 246.36,-257.39"/>
<polygon fill="black" stroke="black" points="243.86,-254.94 239.65,-264.66 249.01,-259.69 243.86,-254.94"/>
<text text-anchor="start" x="304" y="-138.12" font-family="Courier New" font-weight="bold" font-size="10.00" fill="blue">Z_EPSILON(,)</text>
</g>
<!-- status -->
<g id="node5" class="node">
<title>status</title>
<polygon fill="none" stroke="black" points="268,-244.5 268,-323.5 704,-323.5 704,-244.5 268,-244.5"/>
<polygon fill="none" stroke="black" points="279,-297.75 279,-316.5 693,-316.5 693,-297.75 279,-297.75"/>
<text text-anchor="start" x="444" y="-305" font-family="Courier New" font-weight="bold" font-size="10.00">S12_ASHSHELF1A</text>
<polygon fill="none" stroke="black" points="279,-251.5 279,-295.75 693,-295.75 693,-251.5 279,-251.5"/>
<text text-anchor="start" x="282" y="-283.25" font-family="Courier New" font-size="10.00" fill="green">VIEW::IDV_VESTPAN1 @pos(left:85, top:130)</text>
<text text-anchor="start" x="282" y="-270.5" font-family="Courier New" font-size="10.00" fill="green">S12_ASHSHELF1A::M12_SHELF(&#39;S12_CANDLE1&#39;,&#39;S12_WATER1&#39;,&#39;IDD_DEATH&#39;,&#39;&#39;)</text>
<text text-anchor="start" x="282" y="-257.75" font-family="Courier New" font-size="10.00" fill="green">{state:&#39;holding&#39;: wObject:IDD_DEATH wSprite:skull</text>
<polygon fill="none" stroke="black" points="276,-248.5 276,-319.5 696,-319.5 696,-248.5 276,-248.5"/>
</g>
</g>
</svg>
