<?xml version="1.0" encoding="UTF-8" standalone="no"?>
<!DOCTYPE svg PUBLIC "-//W3C//DTD SVG 1.1//EN"
 "http://www.w3.org/Graphics/SVG/1.1/DTD/svg11.dtd">
<!-- Generated by graphviz version 8.0.1 (20230327.1645)
 -->
<!-- Title: Automaton Pages: 1 -->
<svg width="640pt" height="407pt"
 viewBox="0.00 0.00 640.44 407.00" xmlns="http://www.w3.org/2000/svg" xmlns:xlink="http://www.w3.org/1999/xlink">
<g id="graph0" class="graph" transform="scale(1 1) rotate(0) translate(4 403)">
<title>Automaton</title>
<polygon fill="white" stroke="none" points="-4,4 -4,-403 636.44,-403 636.44,4 -4,4"/>
<!-- filename -->
<g id="node1" class="node">
<title>filename</title>
<polygon fill="none" stroke="black" points="3.44,-337.5 3.44,-387.5 194.44,-387.5 194.44,-337.5 3.44,-337.5"/>
<polygon fill="none" stroke="black" points="14.44,-363.5 14.44,-380.5 183.44,-380.5 183.44,-363.5 14.44,-363.5"/>
<text text-anchor="start" x="17.44" y="-370.5" font-family="Courier New" font-weight="bold" font-size="10.00">S16_BLOBFILL5::M16_BLOBDROP</text>
<polygon fill="none" stroke="black" points="14.44,-344.5 14.44,-361.5 183.44,-361.5 183.44,-344.5 14.44,-344.5"/>
<text text-anchor="start" x="53.44" y="-350.5" font-family="Courier New" font-size="10.00" fill="brown">start state = 0</text>
<polygon fill="none" stroke="black" points="11.44,-341.5 11.44,-383.5 186.44,-383.5 186.44,-341.5 11.44,-341.5"/>
</g>
<!-- 0 -->
<g id="node2" class="node">
<title>0</title>
<polyline fill="none" stroke="darkred" points="232.44,-352 247.44,-352"/>
<text text-anchor="start" x="235.44" y="-359.8" font-family="Courier New" font-weight="bold" font-size="14.00">0</text>
<path fill="none" stroke="darkred" d="M236.44,-349C236.44,-349 243.44,-349 243.44,-349 246.94,-349 250.44,-352.5 250.44,-356 250.44,-356 250.44,-369 250.44,-369 250.44,-372.5 246.94,-376 243.44,-376 243.44,-376 236.44,-376 236.44,-376 232.94,-376 229.44,-372.5 229.44,-369 229.44,-369 229.44,-356 229.44,-356 229.44,-352.5 232.94,-349 236.44,-349"/>
</g>
<!-- 2 -->
<g id="node3" class="node">
<title>2</title>
<polyline fill="none" stroke="darkred" stroke-width="3" points="120.94,-215.5 136.94,-215.5"/>
<text text-anchor="start" x="124.44" y="-223.8" font-family="Courier New" font-weight="bold" font-size="14.00">2</text>
<path fill="none" stroke="darkred" stroke-width="3" d="M124.61,-210.5C124.61,-210.5 133.27,-210.5 133.27,-210.5 137.61,-210.5 141.94,-214.83 141.94,-219.17 141.94,-219.17 141.94,-233.83 141.94,-233.83 141.94,-238.17 137.61,-242.5 133.27,-242.5 133.27,-242.5 124.61,-242.5 124.61,-242.5 120.27,-242.5 115.94,-238.17 115.94,-233.83 115.94,-233.83 115.94,-219.17 115.94,-219.17 115.94,-214.83 120.27,-210.5 124.61,-210.5"/>
</g>
<!-- 0&#45;&gt;2 -->
<g id="edge1" class="edge">
<title>0&#45;&gt;2</title>
<path fill="none" stroke="black" d="M227.37,-344.74C221.15,-337.72 213.01,-330.22 203.94,-326 164.48,-307.65 38.26,-340.15 8.94,-308 -3.64,-294.21 -2.06,-281.08 8.94,-266 27.58,-240.44 63.44,-231.47 91.13,-228.51"/>
<polygon fill="black" stroke="black" points="91.36,-231.92 101.04,-227.59 90.78,-224.94 91.36,-231.92"/>
<text text-anchor="start" x="12.94" y="-285.5" font-family="Courier New" font-weight="bold" font-size="10.00" fill="blue">O_ACCEPT(0,IDD_BLOBBALL)</text>
</g>
<!-- 2&#45;&gt;0 -->
<g id="edge3" class="edge">
<title>2&#45;&gt;0</title>
<path fill="none" stroke="black" d="M147.57,-247.65C152.5,-253.38 157.64,-259.77 161.94,-266 174.04,-283.51 171.95,-291.14 184.94,-308 192.04,-317.21 195.58,-317.92 203.94,-326 207.69,-329.62 211.63,-333.47 215.48,-337.25"/>
<polygon fill="black" stroke="black" points="212.58,-339.29 222.16,-343.81 217.49,-334.3 212.58,-339.29"/>
<polygon fill="none" stroke="black" points="187.94,-288 187.94,-305 278.94,-305 278.94,-288 187.94,-288"/>
<text text-anchor="start" x="190.94" y="-295" font-family="Courier New" font-weight="bold" font-size="10.00" fill="orange">GRAB(WOBJECT,)</text>
<polygon fill="none" stroke="black" points="187.94,-269 187.94,-286 278.94,-286 278.94,-269 187.94,-269"/>
<text text-anchor="start" x="211.94" y="-275" font-family="Courier New" font-size="10.00" fill="blue">SHOW();</text>
<polygon fill="none" stroke="black" points="184.94,-266 184.94,-308 281.94,-308 281.94,-266 184.94,-266"/>
</g>
<!-- 3 -->
<g id="node4" class="node">
<title>3</title>
<polyline fill="none" stroke="darkred" points="133.44,-98.5 148.44,-98.5"/>
<text text-anchor="start" x="136.44" y="-106.3" font-family="Courier New" font-weight="bold" font-size="14.00">3</text>
<path fill="none" stroke="darkred" d="M137.44,-95.5C137.44,-95.5 144.44,-95.5 144.44,-95.5 147.94,-95.5 151.44,-99 151.44,-102.5 151.44,-102.5 151.44,-115.5 151.44,-115.5 151.44,-119 147.94,-122.5 144.44,-122.5 144.44,-122.5 137.44,-122.5 137.44,-122.5 133.94,-122.5 130.44,-119 130.44,-115.5 130.44,-115.5 130.44,-102.5 130.44,-102.5 130.44,-99 133.94,-95.5 137.44,-95.5"/>
</g>
<!-- 2&#45;&gt;3 -->
<g id="edge2" class="edge">
<title>2&#45;&gt;3</title>
<path fill="none" stroke="black" d="M102.07,-207.02C95.96,-201.37 90.29,-194.61 86.94,-187 79.42,-169.91 78.03,-161.4 86.94,-145 91.07,-137.41 97.63,-131.21 104.78,-126.25"/>
<polygon fill="black" stroke="black" points="106.29,-128.82 113.01,-120.63 102.65,-122.84 106.29,-128.82"/>
<text text-anchor="start" x="90.94" y="-164.5" font-family="Courier New" font-weight="bold" font-size="10.00" fill="orange">DROP(0,0)</text>
</g>
<!-- 5 -->
<g id="node5" class="node">
<title>5</title>
<polyline fill="none" stroke="darkred" points="212.44,-98.5 227.44,-98.5"/>
<text text-anchor="start" x="215.44" y="-106.3" font-family="Courier New" font-weight="bold" font-size="14.00">5</text>
<path fill="none" stroke="darkred" d="M216.44,-95.5C216.44,-95.5 223.44,-95.5 223.44,-95.5 226.94,-95.5 230.44,-99 230.44,-102.5 230.44,-102.5 230.44,-115.5 230.44,-115.5 230.44,-119 226.94,-122.5 223.44,-122.5 223.44,-122.5 216.44,-122.5 216.44,-122.5 212.94,-122.5 209.44,-119 209.44,-115.5 209.44,-115.5 209.44,-102.5 209.44,-102.5 209.44,-99 212.94,-95.5 216.44,-95.5"/>
</g>
<!-- 2&#45;&gt;5 -->
<g id="edge4" class="edge">
<title>2&#45;&gt;5</title>
<path fill="none" stroke="black" d="M139.95,-205.29C152.89,-181.55 172.66,-145.32 172.94,-145 176.52,-140.88 180.66,-136.95 184.97,-133.32"/>
<polygon fill="black" stroke="black" points="186.68,-135.64 192.37,-126.71 182.35,-130.14 186.68,-135.64"/>
<polygon fill="none" stroke="black" points="175.94,-167 175.94,-184 278.94,-184 278.94,-167 175.94,-167"/>
<text text-anchor="start" x="178.94" y="-174" font-family="Courier New" font-weight="bold" font-size="10.00" fill="orange">WAIT(,SIG_RESET)</text>
<polygon fill="none" stroke="black" points="175.94,-148 175.94,-165 278.94,-165 278.94,-148 175.94,-148"/>
<text text-anchor="start" x="205.94" y="-154" font-family="Courier New" font-size="10.00" fill="blue">SHOW();</text>
<polygon fill="none" stroke="black" points="172.94,-145 172.94,-187 281.94,-187 281.94,-145 172.94,-145"/>
</g>
<!-- 4 -->
<g id="node6" class="node">
<title>4</title>
<polyline fill="none" stroke="darkred" points="245.44,-7.5 260.44,-7.5"/>
<text text-anchor="start" x="248.44" y="-15.3" font-family="Courier New" font-weight="bold" font-size="14.00">4</text>
<path fill="none" stroke="darkred" d="M249.44,-4.5C249.44,-4.5 256.44,-4.5 256.44,-4.5 259.94,-4.5 263.44,-8 263.44,-11.5 263.44,-11.5 263.44,-24.5 263.44,-24.5 263.44,-28 259.94,-31.5 256.44,-31.5 256.44,-31.5 249.44,-31.5 249.44,-31.5 245.94,-31.5 242.44,-28 242.44,-24.5 242.44,-24.5 242.44,-11.5 242.44,-11.5 242.44,-8 245.94,-4.5 249.44,-4.5"/>
</g>
<!-- 3&#45;&gt;4 -->
<g id="edge5" class="edge">
<title>3&#45;&gt;4</title>
<path fill="none" stroke="black" d="M162.27,-91.05C179.55,-77.32 204.1,-57.81 223.29,-42.56"/>
<polygon fill="black" stroke="black" points="225.04,-44.85 230.69,-35.89 220.68,-39.37 225.04,-44.85"/>
<text text-anchor="start" x="210.94" y="-62" font-family="Courier New" font-weight="bold" font-size="10.00" fill="blue">MOV(WSPRITE,WIP1)</text>
</g>
<!-- 5&#45;&gt;0 -->
<g id="edge7" class="edge">
<title>5&#45;&gt;0</title>
<path fill="none" stroke="black" d="M246.87,-118.03C259.9,-123.42 274.34,-131.98 281.94,-145 318.47,-207.56 305.61,-239.53 281.94,-308 278.39,-318.27 271.96,-328.07 265.19,-336.41"/>
<polygon fill="black" stroke="black" points="262.04,-333.7 258.11,-343.53 267.32,-338.3 262.04,-333.7"/>
<text text-anchor="start" x="307.94" y="-225" font-family="Courier New" font-weight="bold" font-size="10.00" fill="blue">Z_EPSILON(,)</text>
</g>
<!-- 4&#45;&gt;0 -->
<g id="edge6" class="edge">
<title>4&#45;&gt;0</title>
<path fill="none" stroke="black" d="M279.91,-27.69C293.92,-33.33 310.47,-41.92 321.94,-54 354.82,-88.63 422.77,-183.21 388.94,-248 360.86,-301.77 323.86,-287.55 276.94,-326 272.66,-329.51 268.28,-333.4 264.09,-337.29"/>
<polygon fill="black" stroke="black" points="262.19,-334.23 257.38,-343.66 267.02,-339.29 262.19,-334.23"/>
<text text-anchor="start" x="398.94" y="-164.5" font-family="Courier New" font-weight="bold" font-size="10.00" fill="blue">SHOW(WSPRITE,)</text>
</g>
<!-- status -->
<g id="node7" class="node">
<title>status</title>
<polygon fill="none" stroke="black" points="285.44,-326.5 285.44,-398.5 632.44,-398.5 632.44,-326.5 285.44,-326.5"/>
<polygon fill="none" stroke="black" points="296.44,-374.5 296.44,-391.5 621.44,-391.5 621.44,-374.5 296.44,-374.5"/>
<text text-anchor="start" x="419.44" y="-381.5" font-family="Courier New" font-weight="bold" font-size="10.00">S16_BLOBFILL5</text>
<polygon fill="none" stroke="black" points="296.44,-333.5 296.44,-372.5 621.44,-372.5 621.44,-333.5 296.44,-333.5"/>
<text text-anchor="start" x="299.44" y="-361.5" font-family="Courier New" font-size="10.00" fill="green">VIEW::IDV_TRAYR @pos(left:263, top:119)</text>
<text text-anchor="start" x="299.44" y="-350.5" font-family="Courier New" font-size="10.00" fill="green">S16_BLOBFILL5::M16_BLOBDROP(&#39;IDS_BLOBFILL5&#39;,&#39;&#39;,&#39;&#39;,&#39;&#39;)</text>
<text text-anchor="start" x="299.44" y="-339.5" font-family="Courier New" font-size="10.00" fill="green">{state:&#39;2&#39;: wObject:IDD_BLOBBALL wAccept:IDD_BLOBBALL</text>
<polygon fill="none" stroke="black" points="293.44,-330.5 293.44,-394.5 624.44,-394.5 624.44,-330.5 293.44,-330.5"/>
</g>
</g>
</svg>
