<?xml version="1.0" encoding="UTF-8" standalone="no"?>
<!DOCTYPE svg PUBLIC "-//W3C//DTD SVG 1.1//EN"
 "http://www.w3.org/Graphics/SVG/1.1/DTD/svg11.dtd">
<!-- Generated by graphviz version 8.0.1 (20230327.1645)
 -->
<!-- Title: Automaton Pages: 1 -->
<svg width="775pt" height="432pt"
 viewBox="0.00 0.00 775.00 432.00" xmlns="http://www.w3.org/2000/svg" xmlns:xlink="http://www.w3.org/1999/xlink">
<g id="graph0" class="graph" transform="scale(1 1) rotate(0) translate(4 428)">
<title>Automaton</title>
<polygon fill="white" stroke="none" points="-4,4 -4,-428 771,-428 771,4 -4,4"/>
<!-- filename -->
<g id="node1" class="node">
<title>filename</title>
<polygon fill="none" stroke="black" points="0,-368 0,-418 203,-418 203,-368 0,-368"/>
<polygon fill="none" stroke="black" points="11,-394 11,-411 192,-411 192,-394 11,-394"/>
<text text-anchor="start" x="14" y="-401" font-family="Courier New" font-weight="bold" font-size="10.00">S16_DICE_COMBO1::M16_COMBINER</text>
<polygon fill="none" stroke="black" points="11,-375 11,-392 192,-392 192,-375 11,-375"/>
<text text-anchor="start" x="56" y="-381" font-family="Courier New" font-size="10.00" fill="brown">start state = 0</text>
<polygon fill="none" stroke="black" points="8,-372 8,-414 195,-414 195,-372 8,-372"/>
</g>
<!-- 0 -->
<g id="node2" class="node">
<title>0</title>
<polyline fill="none" stroke="darkred" points="241,-382.5 256,-382.5"/>
<text text-anchor="start" x="244" y="-390.3" font-family="Courier New" font-weight="bold" font-size="14.00">0</text>
<path fill="none" stroke="darkred" d="M245,-379.5C245,-379.5 252,-379.5 252,-379.5 255.5,-379.5 259,-383 259,-386.5 259,-386.5 259,-399.5 259,-399.5 259,-403 255.5,-406.5 252,-406.5 252,-406.5 245,-406.5 245,-406.5 241.5,-406.5 238,-403 238,-399.5 238,-399.5 238,-386.5 238,-386.5 238,-383 241.5,-379.5 245,-379.5"/>
</g>
<!-- ready -->
<g id="node3" class="node">
<title>ready</title>
<polyline fill="none" stroke="darkred" points="84.5,-241.5 132.5,-241.5"/>
<text text-anchor="start" x="87.5" y="-249.3" font-family="Courier New" font-weight="bold" font-size="14.00">ready</text>
<path fill="none" stroke="darkred" d="M90.5,-238.5C90.5,-238.5 126.5,-238.5 126.5,-238.5 131,-238.5 135.5,-243 135.5,-247.5 135.5,-247.5 135.5,-256.5 135.5,-256.5 135.5,-261 131,-265.5 126.5,-265.5 126.5,-265.5 90.5,-265.5 90.5,-265.5 86,-265.5 81.5,-261 81.5,-256.5 81.5,-256.5 81.5,-247.5 81.5,-247.5 81.5,-243 86,-238.5 90.5,-238.5"/>
</g>
<!-- 0&#45;&gt;ready -->
<g id="edge1" class="edge">
<title>0&#45;&gt;ready</title>
<path fill="none" stroke="black" d="M228.93,-375.28C223.41,-370.8 217.33,-366.08 211.5,-362 198.76,-353.08 193.21,-354.22 181.5,-344 159.47,-324.77 139.07,-298.29 125.47,-278.85"/>
<polygon fill="black" stroke="black" points="127.9,-277.21 119.36,-270.93 122.13,-281.16 127.9,-277.21"/>
<polygon fill="none" stroke="black" points="184.5,-324 184.5,-341 323.5,-341 323.5,-324 184.5,-324"/>
<text text-anchor="start" x="193.5" y="-331" font-family="Courier New" font-weight="bold" font-size="10.00" fill="blue">O_ACCEPT(0,IDD_DICE)</text>
<polygon fill="none" stroke="black" points="184.5,-294 184.5,-322 323.5,-322 323.5,-294 184.5,-294"/>
<text text-anchor="start" x="187.5" y="-311" font-family="Courier New" font-size="10.00" fill="blue"> &#160;&#160;&#160;ASSIGN(WPARM,0);</text>
<text text-anchor="start" x="187.5" y="-300" font-family="Courier New" font-size="10.00" fill="blue"> &#160;&#160;&#160;REF_MACHINE(WIP3);</text>
<polygon fill="none" stroke="black" points="181.5,-291 181.5,-344 326.5,-344 326.5,-291 181.5,-291"/>
</g>
<!-- holding -->
<g id="node4" class="node">
<title>holding</title>
<polyline fill="none" stroke="darkred" stroke-width="3" points="180,-10.5 245,-10.5"/>
<text text-anchor="start" x="183.5" y="-18.8" font-family="Courier New" font-weight="bold" font-size="14.00">holding</text>
<path fill="none" stroke="darkred" stroke-width="3" d="M185.67,-5.5C185.67,-5.5 239.33,-5.5 239.33,-5.5 244.67,-5.5 250,-10.83 250,-16.17 250,-16.17 250,-26.83 250,-26.83 250,-32.17 244.67,-37.5 239.33,-37.5 239.33,-37.5 185.67,-37.5 185.67,-37.5 180.33,-37.5 175,-32.17 175,-26.83 175,-26.83 175,-16.17 175,-16.17 175,-10.83 180.33,-5.5 185.67,-5.5"/>
</g>
<!-- ready&#45;&gt;holding -->
<g id="edge3" class="edge">
<title>ready&#45;&gt;holding</title>
<path fill="none" stroke="black" d="M95.6,-234.14C91.54,-227.85 87.57,-220.43 85.5,-213 67.34,-147.93 45.25,-115.26 85.5,-61 101.53,-39.38 129.38,-29.48 154.92,-25.1"/>
<polygon fill="black" stroke="black" points="155.28,-28.44 164.68,-23.54 154.28,-21.51 155.28,-28.44"/>
<polygon fill="none" stroke="black" points="88.5,-193 88.5,-210 323.5,-210 323.5,-193 88.5,-193"/>
<text text-anchor="start" x="178.5" y="-200" font-family="Courier New" font-weight="bold" font-size="10.00" fill="orange">DROP(0,0)</text>
<polygon fill="none" stroke="black" points="88.5,-64 88.5,-191 323.5,-191 323.5,-64 88.5,-64"/>
<text text-anchor="start" x="91.5" y="-180" font-family="Courier New" font-size="10.00" fill="blue"> &#160;&#160;&#160;&#160;&#160;&#160;&#160;if(R_WPARM == 1){</text>
<text text-anchor="start" x="91.5" y="-169" font-family="Courier New" font-size="10.00" fill="blue"> &#160;&#160;&#160;&#160;&#160;&#160;&#160;&#160;&#160;&#160;&#160;ASSIGN(WPARM,2);</text>
<text text-anchor="start" x="91.5" y="-158" font-family="Courier New" font-size="10.00" fill="blue"> &#160;&#160;&#160;&#160;&#160;&#160;&#160;&#160;&#160;&#160;&#160;ASSIGN(WOBJECT,IDD_SHAKE);</text>
<text text-anchor="start" x="91.5" y="-147" font-family="Courier New" font-size="10.00" fill="blue"> &#160;&#160;&#160;&#160;&#160;&#160;&#160;&#160;&#160;&#160;&#160;SHOW(WOBJECT);</text>
<text text-anchor="start" x="91.5" y="-136" font-family="Courier New" font-size="10.00" fill="blue"> &#160;&#160;&#160;&#160;&#160;&#160;&#160;}</text>
<text text-anchor="start" x="91.5" y="-125" font-family="Courier New" font-size="10.00" fill="blue"> &#160;&#160;&#160;&#160;&#160;&#160;&#160;if(R_WPARM == 0){</text>
<text text-anchor="start" x="91.5" y="-114" font-family="Courier New" font-size="10.00" fill="blue"> &#160;&#160;&#160;&#160;&#160;&#160;&#160;&#160;&#160;&#160;&#160;ASSIGN(WOBJECT,WIP1);</text>
<text text-anchor="start" x="91.5" y="-103" font-family="Courier New" font-size="10.00" fill="blue"> &#160;&#160;&#160;&#160;&#160;&#160;&#160;&#160;&#160;&#160;&#160;ASSIGN(WPARM,1);</text>
<text text-anchor="start" x="91.5" y="-92" font-family="Courier New" font-size="10.00" fill="blue"> &#160;&#160;&#160;&#160;&#160;&#160;&#160;&#160;&#160;&#160;&#160;SHOW(WOBJECT);</text>
<text text-anchor="start" x="91.5" y="-81" font-family="Courier New" font-size="10.00" fill="blue"> &#160;&#160;&#160;&#160;&#160;&#160;&#160;&#160;</text>
<text text-anchor="start" x="91.5" y="-70" font-family="Courier New" font-size="10.00" fill="blue"> &#160;&#160;&#160;&#160;&#160;&#160;&#160;} &#160;&#160;&#160;</text>
<polygon fill="none" stroke="black" points="85.5,-61 85.5,-213 326.5,-213 326.5,-61 85.5,-61"/>
</g>
<!-- holding&#45;&gt;0 -->
<g id="edge2" class="edge">
<title>holding&#45;&gt;0</title>
<path fill="none" stroke="black" d="M259.25,-25.71C283.52,-30.03 311.21,-39.7 326.5,-61 399.84,-163.18 395.74,-239 326.5,-344 315.32,-360.95 301.82,-351.39 284.5,-362 281.45,-363.87 278.38,-365.98 275.4,-368.2"/>
<polygon fill="black" stroke="black" points="273.44,-366.08 267.78,-375.03 277.79,-371.56 273.44,-366.08"/>
<polygon fill="none" stroke="black" points="379.5,-253 379.5,-270 470.5,-270 470.5,-253 379.5,-253"/>
<text text-anchor="start" x="382.5" y="-260" font-family="Courier New" font-weight="bold" font-size="10.00" fill="orange">GRAB(,WOBJECT)</text>
<polygon fill="none" stroke="black" points="379.5,-234 379.5,-251 470.5,-251 470.5,-234 379.5,-234"/>
<text text-anchor="start" x="403.5" y="-240" font-family="Courier New" font-size="10.00" fill="blue">SHOW();</text>
<polygon fill="none" stroke="black" points="376.5,-231 376.5,-273 473.5,-273 473.5,-231 376.5,-231"/>
</g>
<!-- status -->
<g id="node5" class="node">
<title>status</title>
<polygon fill="none" stroke="black" points="294,-362.5 294,-423.5 767,-423.5 767,-362.5 294,-362.5"/>
<polygon fill="none" stroke="black" points="305,-399.5 305,-416.5 756,-416.5 756,-399.5 305,-399.5"/>
<text text-anchor="start" x="485" y="-406.5" font-family="Courier New" font-weight="bold" font-size="10.00">S16_DICE_COMBO1</text>
<polygon fill="none" stroke="black" points="305,-369.5 305,-397.5 756,-397.5 756,-369.5 305,-369.5"/>
<text text-anchor="start" x="308" y="-386.5" font-family="Courier New" font-size="10.00" fill="green">S16_DICE_COMBO1::M16_COMBINER(&#39;IDD_DICE&#39;,&#39;IDD_SHAKE&#39;,&#39;S16_DICE_COMBO2&#39;,&#39;&#39;)</text>
<text text-anchor="start" x="308" y="-375.5" font-family="Courier New" font-size="10.00" fill="green">{&#39;holding&#39;: wParm:1 wObject:IDD_DICE wSprite:die wAccept:IDD_DICE}</text>
<polygon fill="none" stroke="black" points="302,-366.5 302,-419.5 759,-419.5 759,-366.5 302,-366.5"/>
</g>
</g>
</svg>
