<?xml version="1.0" encoding="UTF-8" standalone="no"?>
<!DOCTYPE svg PUBLIC "-//W3C//DTD SVG 1.1//EN"
 "http://www.w3.org/Graphics/SVG/1.1/DTD/svg11.dtd">
<!-- Generated by graphviz version 8.0.1 (20230327.1645)
 -->
<!-- Title: Automaton Pages: 1 -->
<svg width="775pt" height="426pt"
 viewBox="0.00 0.00 775.00 426.00" xmlns="http://www.w3.org/2000/svg" xmlns:xlink="http://www.w3.org/1999/xlink">
<g id="graph0" class="graph" transform="scale(1 1) rotate(0) translate(4 422)">
<title>Automaton</title>
<polygon fill="white" stroke="none" points="-4,4 -4,-422 771,-422 771,4 -4,4"/>
<!-- filename -->
<g id="node1" class="node">
<title>filename</title>
<polygon fill="none" stroke="black" points="0,-362 0,-412 203,-412 203,-362 0,-362"/>
<polygon fill="none" stroke="black" points="11,-388 11,-405 192,-405 192,-388 11,-388"/>
<text text-anchor="start" x="14" y="-395" font-family="Courier New" font-weight="bold" font-size="10.00">S16_DICE_COMBO2::M16_COMBINER</text>
<polygon fill="none" stroke="black" points="11,-369 11,-386 192,-386 192,-369 11,-369"/>
<text text-anchor="start" x="56" y="-375" font-family="Courier New" font-size="10.00" fill="brown">start state = 0</text>
<polygon fill="none" stroke="black" points="8,-366 8,-408 195,-408 195,-366 8,-366"/>
</g>
<!-- 0 -->
<g id="node2" class="node">
<title>0</title>
<polyline fill="none" stroke="darkred" points="241,-376.5 256,-376.5"/>
<text text-anchor="start" x="244" y="-384.3" font-family="Courier New" font-weight="bold" font-size="14.00">0</text>
<path fill="none" stroke="darkred" d="M245,-373.5C245,-373.5 252,-373.5 252,-373.5 255.5,-373.5 259,-377 259,-380.5 259,-380.5 259,-393.5 259,-393.5 259,-397 255.5,-400.5 252,-400.5 252,-400.5 245,-400.5 245,-400.5 241.5,-400.5 238,-397 238,-393.5 238,-393.5 238,-380.5 238,-380.5 238,-377 241.5,-373.5 245,-373.5"/>
</g>
<!-- ready -->
<g id="node3" class="node">
<title>ready</title>
<polyline fill="none" stroke="darkred" stroke-width="3" points="84,-234.5 133,-234.5"/>
<text text-anchor="start" x="87.5" y="-242.8" font-family="Courier New" font-weight="bold" font-size="14.00">ready</text>
<path fill="none" stroke="darkred" stroke-width="3" d="M89.67,-229.5C89.67,-229.5 127.33,-229.5 127.33,-229.5 132.67,-229.5 138,-234.83 138,-240.17 138,-240.17 138,-250.83 138,-250.83 138,-256.17 132.67,-261.5 127.33,-261.5 127.33,-261.5 89.67,-261.5 89.67,-261.5 84.33,-261.5 79,-256.17 79,-250.83 79,-250.83 79,-240.17 79,-240.17 79,-234.83 84.33,-229.5 89.67,-229.5"/>
</g>
<!-- 0&#45;&gt;ready -->
<g id="edge1" class="edge">
<title>0&#45;&gt;ready</title>
<path fill="none" stroke="black" d="M228.93,-369.28C223.41,-364.8 217.33,-360.08 211.5,-356 198.76,-347.08 193.2,-348.24 181.5,-338 160.6,-319.71 141.22,-294.88 127.68,-275.7"/>
<polygon fill="black" stroke="black" points="130.09,-274.03 121.53,-267.79 124.33,-278.01 130.09,-274.03"/>
<polygon fill="none" stroke="black" points="184.5,-318 184.5,-335 323.5,-335 323.5,-318 184.5,-318"/>
<text text-anchor="start" x="193.5" y="-325" font-family="Courier New" font-weight="bold" font-size="10.00" fill="blue">O_ACCEPT(0,IDD_DICE)</text>
<polygon fill="none" stroke="black" points="184.5,-288 184.5,-316 323.5,-316 323.5,-288 184.5,-288"/>
<text text-anchor="start" x="187.5" y="-305" font-family="Courier New" font-size="10.00" fill="blue"> &#160;&#160;&#160;ASSIGN(WPARM,0);</text>
<text text-anchor="start" x="187.5" y="-294" font-family="Courier New" font-size="10.00" fill="blue"> &#160;&#160;&#160;REF_MACHINE(WIP3);</text>
<polygon fill="none" stroke="black" points="181.5,-285 181.5,-338 326.5,-338 326.5,-285 181.5,-285"/>
</g>
<!-- holding -->
<g id="node4" class="node">
<title>holding</title>
<polyline fill="none" stroke="darkred" points="180.5,-7.5 244.5,-7.5"/>
<text text-anchor="start" x="183.5" y="-15.3" font-family="Courier New" font-weight="bold" font-size="14.00">holding</text>
<path fill="none" stroke="darkred" d="M186.5,-4.5C186.5,-4.5 238.5,-4.5 238.5,-4.5 243,-4.5 247.5,-9 247.5,-13.5 247.5,-13.5 247.5,-22.5 247.5,-22.5 247.5,-27 243,-31.5 238.5,-31.5 238.5,-31.5 186.5,-31.5 186.5,-31.5 182,-31.5 177.5,-27 177.5,-22.5 177.5,-22.5 177.5,-13.5 177.5,-13.5 177.5,-9 182,-4.5 186.5,-4.5"/>
</g>
<!-- ready&#45;&gt;holding -->
<g id="edge3" class="edge">
<title>ready&#45;&gt;holding</title>
<path fill="none" stroke="black" d="M93.66,-224.25C90.31,-218.62 87.24,-212.3 85.5,-206 67.53,-140.88 44.57,-107.74 85.5,-54 94.7,-41.92 128.55,-32.95 158.99,-27.12"/>
<polygon fill="black" stroke="black" points="159.36,-30.43 168.57,-25.19 158.1,-23.54 159.36,-30.43"/>
<polygon fill="none" stroke="black" points="88.5,-186 88.5,-203 323.5,-203 323.5,-186 88.5,-186"/>
<text text-anchor="start" x="178.5" y="-193" font-family="Courier New" font-weight="bold" font-size="10.00" fill="orange">DROP(0,0)</text>
<polygon fill="none" stroke="black" points="88.5,-57 88.5,-184 323.5,-184 323.5,-57 88.5,-57"/>
<text text-anchor="start" x="91.5" y="-173" font-family="Courier New" font-size="10.00" fill="blue"> &#160;&#160;&#160;&#160;&#160;&#160;&#160;if(R_WPARM == 1){</text>
<text text-anchor="start" x="91.5" y="-162" font-family="Courier New" font-size="10.00" fill="blue"> &#160;&#160;&#160;&#160;&#160;&#160;&#160;&#160;&#160;&#160;&#160;ASSIGN(WPARM,2);</text>
<text text-anchor="start" x="91.5" y="-151" font-family="Courier New" font-size="10.00" fill="blue"> &#160;&#160;&#160;&#160;&#160;&#160;&#160;&#160;&#160;&#160;&#160;ASSIGN(WOBJECT,IDD_SHAKE);</text>
<text text-anchor="start" x="91.5" y="-140" font-family="Courier New" font-size="10.00" fill="blue"> &#160;&#160;&#160;&#160;&#160;&#160;&#160;&#160;&#160;&#160;&#160;SHOW(WOBJECT);</text>
<text text-anchor="start" x="91.5" y="-129" font-family="Courier New" font-size="10.00" fill="blue"> &#160;&#160;&#160;&#160;&#160;&#160;&#160;}</text>
<text text-anchor="start" x="91.5" y="-118" font-family="Courier New" font-size="10.00" fill="blue"> &#160;&#160;&#160;&#160;&#160;&#160;&#160;if(R_WPARM == 0){</text>
<text text-anchor="start" x="91.5" y="-107" font-family="Courier New" font-size="10.00" fill="blue"> &#160;&#160;&#160;&#160;&#160;&#160;&#160;&#160;&#160;&#160;&#160;ASSIGN(WOBJECT,WIP1);</text>
<text text-anchor="start" x="91.5" y="-96" font-family="Courier New" font-size="10.00" fill="blue"> &#160;&#160;&#160;&#160;&#160;&#160;&#160;&#160;&#160;&#160;&#160;ASSIGN(WPARM,1);</text>
<text text-anchor="start" x="91.5" y="-85" font-family="Courier New" font-size="10.00" fill="blue"> &#160;&#160;&#160;&#160;&#160;&#160;&#160;&#160;&#160;&#160;&#160;SHOW(WOBJECT);</text>
<text text-anchor="start" x="91.5" y="-74" font-family="Courier New" font-size="10.00" fill="blue"> &#160;&#160;&#160;&#160;&#160;&#160;&#160;&#160;</text>
<text text-anchor="start" x="91.5" y="-63" font-family="Courier New" font-size="10.00" fill="blue"> &#160;&#160;&#160;&#160;&#160;&#160;&#160;} &#160;&#160;&#160;</text>
<polygon fill="none" stroke="black" points="85.5,-54 85.5,-206 326.5,-206 326.5,-54 85.5,-54"/>
</g>
<!-- holding&#45;&gt;0 -->
<g id="edge2" class="edge">
<title>holding&#45;&gt;0</title>
<path fill="none" stroke="black" d="M255.4,-20.21C280.46,-23.4 310.26,-32.02 326.5,-54 401.52,-155.51 395.98,-232.62 326.5,-338 315.32,-354.95 301.82,-345.39 284.5,-356 281.45,-357.87 278.38,-359.98 275.4,-362.2"/>
<polygon fill="black" stroke="black" points="273.44,-360.08 267.78,-369.03 277.79,-365.56 273.44,-360.08"/>
<polygon fill="none" stroke="black" points="380.5,-246.5 380.5,-263.5 471.5,-263.5 471.5,-246.5 380.5,-246.5"/>
<text text-anchor="start" x="383.5" y="-253.5" font-family="Courier New" font-weight="bold" font-size="10.00" fill="orange">GRAB(,WOBJECT)</text>
<polygon fill="none" stroke="black" points="380.5,-227.5 380.5,-244.5 471.5,-244.5 471.5,-227.5 380.5,-227.5"/>
<text text-anchor="start" x="404.5" y="-233.5" font-family="Courier New" font-size="10.00" fill="blue">SHOW();</text>
<polygon fill="none" stroke="black" points="377.5,-224.5 377.5,-266.5 474.5,-266.5 474.5,-224.5 377.5,-224.5"/>
</g>
<!-- status -->
<g id="node5" class="node">
<title>status</title>
<polygon fill="none" stroke="black" points="294,-356.5 294,-417.5 767,-417.5 767,-356.5 294,-356.5"/>
<polygon fill="none" stroke="black" points="305,-393.5 305,-410.5 756,-410.5 756,-393.5 305,-393.5"/>
<text text-anchor="start" x="485" y="-400.5" font-family="Courier New" font-weight="bold" font-size="10.00">S16_DICE_COMBO2</text>
<polygon fill="none" stroke="black" points="305,-363.5 305,-391.5 756,-391.5 756,-363.5 305,-363.5"/>
<text text-anchor="start" x="308" y="-380.5" font-family="Courier New" font-size="10.00" fill="green">S16_DICE_COMBO2::M16_COMBINER(&#39;IDD_DICE&#39;,&#39;IDD_SHAKE&#39;,&#39;S16_DICE_COMBO1&#39;,&#39;&#39;)</text>
<text text-anchor="start" x="308" y="-369.5" font-family="Courier New" font-size="10.00" fill="green">{&#39;ready&#39;: wObject:IDD_DICE wAccept:IDD_DICE}</text>
<polygon fill="none" stroke="black" points="302,-360.5 302,-413.5 759,-413.5 759,-360.5 302,-360.5"/>
</g>
</g>
</svg>
