<?xml version="1.0" encoding="UTF-8" standalone="no"?>
<!DOCTYPE svg PUBLIC "-//W3C//DTD SVG 1.1//EN"
 "http://www.w3.org/Graphics/SVG/1.1/DTD/svg11.dtd">
<!-- Generated by graphviz version 8.0.1 (20230327.1645)
 -->
<!-- Title: Automaton Pages: 1 -->
<svg width="613pt" height="278pt"
 viewBox="0.00 0.00 613.00 278.00" xmlns="http://www.w3.org/2000/svg" xmlns:xlink="http://www.w3.org/1999/xlink">
<g id="graph0" class="graph" transform="scale(1 1) rotate(0) translate(4 274)">
<title>Automaton</title>
<polygon fill="white" stroke="none" points="-4,4 -4,-274 609,-274 609,4 -4,4"/>
<!-- filename -->
<g id="node1" class="node">
<title>filename</title>
<polygon fill="none" stroke="black" points="0,-204.5 0,-254.5 173,-254.5 173,-204.5 0,-204.5"/>
<polygon fill="none" stroke="black" points="11,-230.5 11,-247.5 162,-247.5 162,-230.5 11,-230.5"/>
<text text-anchor="start" x="14" y="-237.5" font-family="Courier New" font-weight="bold" font-size="10.00">S16_PERST_alt1::M_ANIBIN</text>
<polygon fill="none" stroke="black" points="11,-211.5 11,-228.5 162,-228.5 162,-211.5 11,-211.5"/>
<text text-anchor="start" x="41" y="-217.5" font-family="Courier New" font-size="10.00" fill="brown">start state = 0</text>
<polygon fill="none" stroke="black" points="8,-208.5 8,-250.5 165,-250.5 165,-208.5 8,-208.5"/>
</g>
<!-- 0 -->
<g id="node2" class="node">
<title>0</title>
<polyline fill="none" stroke="darkred" points="211,-219 226,-219"/>
<text text-anchor="start" x="214" y="-226.8" font-family="Courier New" font-weight="bold" font-size="14.00">0</text>
<path fill="none" stroke="darkred" d="M215,-216C215,-216 222,-216 222,-216 225.5,-216 229,-219.5 229,-223 229,-223 229,-236 229,-236 229,-239.5 225.5,-243 222,-243 222,-243 215,-243 215,-243 211.5,-243 208,-239.5 208,-236 208,-236 208,-223 208,-223 208,-219.5 211.5,-216 215,-216"/>
</g>
<!-- 1 -->
<g id="node3" class="node">
<title>1</title>
<polyline fill="none" stroke="darkred" points="211,-105.5 226,-105.5"/>
<text text-anchor="start" x="214" y="-113.3" font-family="Courier New" font-weight="bold" font-size="14.00">1</text>
<path fill="none" stroke="darkred" d="M215,-102.5C215,-102.5 222,-102.5 222,-102.5 225.5,-102.5 229,-106 229,-109.5 229,-109.5 229,-122.5 229,-122.5 229,-126 225.5,-129.5 222,-129.5 222,-129.5 215,-129.5 215,-129.5 211.5,-129.5 208,-126 208,-122.5 208,-122.5 208,-109.5 208,-109.5 208,-106 211.5,-102.5 215,-102.5"/>
</g>
<!-- 0&#45;&gt;1 -->
<g id="edge1" class="edge">
<title>0&#45;&gt;1</title>
<path fill="none" stroke="black" d="M218.5,-211.57C218.5,-193.78 218.5,-165.53 218.5,-144.54"/>
<polygon fill="black" stroke="black" points="222,-144.73 218.5,-134.73 215,-144.73 222,-144.73"/>
<text text-anchor="start" x="222.5" y="-160" font-family="Courier New" font-weight="bold" font-size="10.00" fill="blue">MOV(WSPRITE,WIP1)</text>
</g>
<!-- 2 -->
<g id="node4" class="node">
<title>2</title>
<polyline fill="none" stroke="darkred" stroke-width="3" points="210.5,-10.5 226.5,-10.5"/>
<text text-anchor="start" x="214" y="-18.8" font-family="Courier New" font-weight="bold" font-size="14.00">2</text>
<path fill="none" stroke="darkred" stroke-width="3" d="M214.17,-5.5C214.17,-5.5 222.83,-5.5 222.83,-5.5 227.17,-5.5 231.5,-9.83 231.5,-14.17 231.5,-14.17 231.5,-28.83 231.5,-28.83 231.5,-33.17 227.17,-37.5 222.83,-37.5 222.83,-37.5 214.17,-37.5 214.17,-37.5 209.83,-37.5 205.5,-33.17 205.5,-28.83 205.5,-28.83 205.5,-14.17 205.5,-14.17 205.5,-9.83 209.83,-5.5 214.17,-5.5"/>
</g>
<!-- 1&#45;&gt;2 -->
<g id="edge2" class="edge">
<title>1&#45;&gt;2</title>
<path fill="none" stroke="black" d="M218.5,-98.03C218.5,-85.65 218.5,-68.5 218.5,-53.68"/>
<polygon fill="black" stroke="black" points="222,-53.91 218.5,-43.91 215,-53.91 222,-53.91"/>
<text text-anchor="start" x="222.5" y="-69" font-family="Courier New" font-weight="bold" font-size="10.00" fill="blue">ASHOW(WSPRITE,V_LOOP)</text>
</g>
<!-- 2&#45;&gt;2 -->
<g id="edge3" class="edge">
<title>2&#45;&gt;2</title>
<path fill="none" stroke="black" d="M245.29,-30.67C255.28,-30.97 263.5,-27.91 263.5,-21.5 263.5,-17.69 260.6,-15.07 256.16,-13.63"/>
<polygon fill="black" stroke="black" points="256.64,-10.04 246.29,-12.33 255.81,-16.99 256.64,-10.04"/>
<text text-anchor="start" x="267.5" y="-20" font-family="Courier New" font-weight="bold" font-size="10.00" fill="orange">GRAB(WIP2,)</text>
</g>
<!-- status -->
<g id="node5" class="node">
<title>status</title>
<polygon fill="none" stroke="black" points="264,-189.5 264,-269.5 605,-269.5 605,-189.5 264,-189.5"/>
<polygon fill="none" stroke="black" points="275,-245.5 275,-262.5 594,-262.5 594,-245.5 275,-245.5"/>
<text text-anchor="start" x="392" y="-252.5" font-family="Courier New" font-weight="bold" font-size="10.00">S16_PERST_alt1</text>
<polygon fill="none" stroke="black" points="275,-215.5 275,-243.5 594,-243.5 594,-215.5 275,-215.5"/>
<text text-anchor="start" x="278" y="-232.5" font-family="Courier New" font-size="10.00" fill="green">S16_PERST_alt1::M_ANIBIN(&#39;IDS_M2FIDDLEsm1&#39;,&#39;&#39;,&#39;&#39;,&#39;&#39;)</text>
<text text-anchor="start" x="278" y="-221.5" font-family="Courier New" font-size="10.00" fill="green">{&#39;2&#39;: wSprite:M2FIDDLEsm1}</text>
<polygon fill="none" stroke="black" points="275,-196.5 275,-213.5 594,-213.5 594,-196.5 275,-196.5"/>
<text text-anchor="start" x="431" y="-202.5" font-family="Courier New" font-size="10.00" fill="blue">_</text>
<polygon fill="none" stroke="black" points="272,-193.5 272,-265.5 597,-265.5 597,-193.5 272,-193.5"/>
</g>
</g>
</svg>
