<?xml version="1.0" encoding="UTF-8" standalone="no"?>
<!DOCTYPE svg PUBLIC "-//W3C//DTD SVG 1.1//EN"
 "http://www.w3.org/Graphics/SVG/1.1/DTD/svg11.dtd">
<!-- Generated by graphviz version 8.0.1 (20230327.1645)
 -->
<!-- Title: Automaton Pages: 1 -->
<svg width="751pt" height="261pt"
 viewBox="0.00 0.00 751.00 261.00" xmlns="http://www.w3.org/2000/svg" xmlns:xlink="http://www.w3.org/1999/xlink">
<g id="graph0" class="graph" transform="scale(1 1) rotate(0) translate(4 257)">
<title>Automaton</title>
<polygon fill="white" stroke="none" points="-4,4 -4,-257 747,-257 747,4 -4,4"/>
<!-- filename -->
<g id="node1" class="node">
<title>filename</title>
<polygon fill="none" stroke="black" points="0,-191.5 0,-241.5 185,-241.5 185,-191.5 0,-191.5"/>
<polygon fill="none" stroke="black" points="11,-217.5 11,-234.5 174,-234.5 174,-217.5 11,-217.5"/>
<text text-anchor="start" x="14" y="-224.5" font-family="Courier New" font-weight="bold" font-size="10.00">S16_PICK_GRAB::M16_PAYGRAB</text>
<polygon fill="none" stroke="black" points="11,-198.5 11,-215.5 174,-215.5 174,-198.5 11,-198.5"/>
<text text-anchor="start" x="47" y="-204.5" font-family="Courier New" font-size="10.00" fill="brown">start state = 0</text>
<polygon fill="none" stroke="black" points="8,-195.5 8,-237.5 177,-237.5 177,-195.5 8,-195.5"/>
</g>
<!-- 0 -->
<g id="node2" class="node">
<title>0</title>
<polyline fill="none" stroke="darkred" stroke-width="3" points="222.5,-205.5 238.5,-205.5"/>
<text text-anchor="start" x="226" y="-213.8" font-family="Courier New" font-weight="bold" font-size="14.00">0</text>
<path fill="none" stroke="darkred" stroke-width="3" d="M226.17,-200.5C226.17,-200.5 234.83,-200.5 234.83,-200.5 239.17,-200.5 243.5,-204.83 243.5,-209.17 243.5,-209.17 243.5,-223.83 243.5,-223.83 243.5,-228.17 239.17,-232.5 234.83,-232.5 234.83,-232.5 226.17,-232.5 226.17,-232.5 221.83,-232.5 217.5,-228.17 217.5,-223.83 217.5,-223.83 217.5,-209.17 217.5,-209.17 217.5,-204.83 221.83,-200.5 226.17,-200.5"/>
</g>
<!-- open_bin -->
<g id="node3" class="node">
<title>open_bin</title>
<polyline fill="none" stroke="darkred" points="194,-7.5 267,-7.5"/>
<text text-anchor="start" x="197" y="-15.3" font-family="Courier New" font-weight="bold" font-size="14.00">open_bin</text>
<path fill="none" stroke="darkred" d="M200,-4.5C200,-4.5 261,-4.5 261,-4.5 265.5,-4.5 270,-9 270,-13.5 270,-13.5 270,-22.5 270,-22.5 270,-27 265.5,-31.5 261,-31.5 261,-31.5 200,-31.5 200,-31.5 195.5,-31.5 191,-27 191,-22.5 191,-22.5 191,-13.5 191,-13.5 191,-9 195.5,-4.5 200,-4.5"/>
</g>
<!-- 0&#45;&gt;open_bin -->
<g id="edge1" class="edge">
<title>0&#45;&gt;open_bin</title>
<path fill="none" stroke="black" d="M213.78,-195.37C207.95,-189.55 200.97,-183.76 193.5,-180 150.82,-158.51 118.33,-198.51 87.5,-162 56.53,-125.33 57.87,-91.76 87.5,-54 98.22,-40.33 137.88,-31.31 172.72,-25.86"/>
<polygon fill="black" stroke="black" points="172.96,-29.21 182.34,-24.28 171.93,-22.29 172.96,-29.21"/>
<polygon fill="none" stroke="black" points="90.5,-109 90.5,-126 205.5,-126 205.5,-109 90.5,-109"/>
<text text-anchor="start" x="99.5" y="-116" font-family="Courier New" font-weight="bold" font-size="10.00" fill="orange">WAIT(0,SIG_OPEN)</text>
<polygon fill="none" stroke="black" points="90.5,-90 90.5,-107 205.5,-107 205.5,-90 90.5,-90"/>
<text text-anchor="start" x="93.5" y="-96" font-family="Courier New" font-size="10.00" fill="blue">REF_MACHINE(WIP2);</text>
<polygon fill="none" stroke="black" points="87.5,-87 87.5,-129 208.5,-129 208.5,-87 87.5,-87"/>
</g>
<!-- open_bin&#45;&gt;0 -->
<g id="edge2" class="edge">
<title>open_bin&#45;&gt;0</title>
<path fill="none" stroke="black" d="M230.5,-35.78C230.5,-68.69 230.5,-142.12 230.5,-184.22"/>
<polygon fill="black" stroke="black" points="227,-184.21 230.5,-194.21 234,-184.21 227,-184.21"/>
<polygon fill="none" stroke="black" points="233.5,-142 233.5,-159 438.5,-159 438.5,-142 233.5,-142"/>
<text text-anchor="start" x="302.5" y="-149" font-family="Courier New" font-weight="bold" font-size="10.00" fill="orange">GRAB(WIP1,)</text>
<polygon fill="none" stroke="black" points="233.5,-57 233.5,-140 438.5,-140 438.5,-57 233.5,-57"/>
<text text-anchor="start" x="236.5" y="-129" font-family="Courier New" font-size="10.00" fill="blue"> &#160;&#160;&#160;if(R_WPARM != R_BPARM){</text>
<text text-anchor="start" x="236.5" y="-118" font-family="Courier New" font-size="10.00" fill="blue"> &#160;&#160;&#160;&#160;&#160;&#160;&#160;ADDI(LKARMA,1);</text>
<text text-anchor="start" x="236.5" y="-107" font-family="Courier New" font-size="10.00" fill="blue"> &#160;&#160;&#160;&#160;&#160;&#160;&#160;SIGNAL(SID_HALO,SIG_ADD);</text>
<text text-anchor="start" x="236.5" y="-96" font-family="Courier New" font-size="10.00" fill="blue"> &#160;&#160;&#160;&#160;&#160;&#160;&#160;PLAYWAVE(0,SOUND_CLUNK);</text>
<text text-anchor="start" x="236.5" y="-85" font-family="Courier New" font-size="10.00" fill="blue"> &#160;&#160;&#160;}</text>
<text text-anchor="start" x="236.5" y="-74" font-family="Courier New" font-size="10.00" fill="blue"> &#160;&#160;&#160;SIGNAL(WIP3,SIG_OFF);</text>
<text text-anchor="start" x="236.5" y="-63" font-family="Courier New" font-size="10.00" fill="blue"> &#160;&#160;&#160;SIGNAL(WIP2,SIG_OFF);</text>
<polygon fill="none" stroke="black" points="230.5,-54 230.5,-162 441.5,-162 441.5,-54 230.5,-54"/>
</g>
<!-- open_bin&#45;&gt;0 -->
<g id="edge3" class="edge">
<title>open_bin&#45;&gt;0</title>
<path fill="none" stroke="black" d="M277.78,-19.95C333.69,-22.19 421.81,-29.61 442.5,-54 473.55,-90.6 474.66,-126.36 442.5,-162 416.31,-191.02 302.98,-163.57 267.5,-180 263.11,-182.03 258.92,-184.8 255.03,-187.9"/>
<polygon fill="black" stroke="black" points="253.17,-184.78 248.08,-194.07 257.85,-189.98 253.17,-184.78"/>
<text text-anchor="start" x="469.5" y="-106.5" font-family="Courier New" font-weight="bold" font-size="10.00" fill="orange">WAIT(0,SIG_CLOSE)</text>
</g>
<!-- status -->
<g id="node4" class="node">
<title>status</title>
<polygon fill="none" stroke="black" points="276,-180.5 276,-252.5 743,-252.5 743,-180.5 276,-180.5"/>
<polygon fill="none" stroke="black" points="287,-228.5 287,-245.5 732,-245.5 732,-228.5 287,-228.5"/>
<text text-anchor="start" x="470" y="-235.5" font-family="Courier New" font-weight="bold" font-size="10.00">S16_PICK_GRAB</text>
<polygon fill="none" stroke="black" points="287,-187.5 287,-226.5 732,-226.5 732,-187.5 287,-187.5"/>
<text text-anchor="start" x="290" y="-215.5" font-family="Courier New" font-size="10.00" fill="green">VIEW::IDV_PICK0000 @pos(left:20, top:72)</text>
<text text-anchor="start" x="290" y="-204.5" font-family="Courier New" font-size="10.00" fill="green">S16_PICK_GRAB::M16_PAYGRAB(&#39;IDD_PICK&#39;,&#39;S16_PICK_PAY&#39;,&#39;S16_PICK_STAMP&#39;,&#39;&#39;)</text>
<text text-anchor="start" x="290" y="-193.5" font-family="Courier New" font-size="10.00" fill="green">{state:&#39;0&#39;:</text>
<polygon fill="none" stroke="black" points="284,-184.5 284,-248.5 735,-248.5 735,-184.5 284,-184.5"/>
</g>
</g>
</svg>
