<?xml version="1.0" encoding="UTF-8" standalone="no"?>
<!DOCTYPE svg PUBLIC "-//W3C//DTD SVG 1.1//EN"
 "http://www.w3.org/Graphics/SVG/1.1/DTD/svg11.dtd">
<!-- Generated by graphviz version 8.0.1 (20230327.1645)
 -->
<!-- Title: Automaton Pages: 1 -->
<svg width="751pt" height="495pt"
 viewBox="0.00 0.00 751.00 495.00" xmlns="http://www.w3.org/2000/svg" xmlns:xlink="http://www.w3.org/1999/xlink">
<g id="graph0" class="graph" transform="scale(1 1) rotate(0) translate(4 491)">
<title>Automaton</title>
<polygon fill="white" stroke="none" points="-4,4 -4,-491 747,-491 747,4 -4,4"/>
<!-- filename -->
<g id="node1" class="node">
<title>filename</title>
<polygon fill="none" stroke="black" points="0,-425.5 0,-475.5 191,-475.5 191,-425.5 0,-425.5"/>
<polygon fill="none" stroke="black" points="11,-451.5 11,-468.5 180,-468.5 180,-451.5 11,-451.5"/>
<text text-anchor="start" x="14" y="-458.5" font-family="Courier New" font-weight="bold" font-size="10.00">S16_SHOV_PAY::M16_PAYBUCKET</text>
<polygon fill="none" stroke="black" points="11,-432.5 11,-449.5 180,-449.5 180,-432.5 11,-432.5"/>
<text text-anchor="start" x="50" y="-438.5" font-family="Courier New" font-size="10.00" fill="brown">start state = 0</text>
<polygon fill="none" stroke="black" points="8,-429.5 8,-471.5 183,-471.5 183,-429.5 8,-429.5"/>
</g>
<!-- 0 -->
<g id="node2" class="node">
<title>0</title>
<polyline fill="none" stroke="darkred" points="229,-440 244,-440"/>
<text text-anchor="start" x="232" y="-447.8" font-family="Courier New" font-weight="bold" font-size="14.00">0</text>
<path fill="none" stroke="darkred" d="M233,-437C233,-437 240,-437 240,-437 243.5,-437 247,-440.5 247,-444 247,-444 247,-457 247,-457 247,-460.5 243.5,-464 240,-464 240,-464 233,-464 233,-464 229.5,-464 226,-460.5 226,-457 226,-457 226,-444 226,-444 226,-440.5 229.5,-437 233,-437"/>
</g>
<!-- accept_pay -->
<g id="node3" class="node">
<title>accept_pay</title>
<polyline fill="none" stroke="darkred" stroke-width="3" points="100.5,-237.5 190.5,-237.5"/>
<text text-anchor="start" x="104" y="-245.8" font-family="Courier New" font-weight="bold" font-size="14.00">accept_pay</text>
<path fill="none" stroke="darkred" stroke-width="3" d="M106.17,-232.5C106.17,-232.5 184.83,-232.5 184.83,-232.5 190.17,-232.5 195.5,-237.83 195.5,-243.17 195.5,-243.17 195.5,-253.83 195.5,-253.83 195.5,-259.17 190.17,-264.5 184.83,-264.5 184.83,-264.5 106.17,-264.5 106.17,-264.5 100.83,-264.5 95.5,-259.17 95.5,-253.83 95.5,-253.83 95.5,-243.17 95.5,-243.17 95.5,-237.83 100.83,-232.5 106.17,-232.5"/>
</g>
<!-- 0&#45;&gt;accept_pay -->
<g id="edge1" class="edge">
<title>0&#45;&gt;accept_pay</title>
<path fill="none" stroke="black" d="M223.47,-432.79C217.05,-425.78 208.71,-418.27 199.5,-414 164.64,-397.82 53.22,-424.55 27.5,-396 -4.63,-360.34 -0.69,-326.85 27.5,-288 38.98,-272.18 57.14,-262.74 75.8,-257.14"/>
<polygon fill="black" stroke="black" points="76.4,-260.34 85.18,-254.41 74.62,-253.57 76.4,-260.34"/>
<polygon fill="none" stroke="black" points="30.5,-376 30.5,-393 211.5,-393 211.5,-376 30.5,-376"/>
<text text-anchor="start" x="78.5" y="-383" font-family="Courier New" font-weight="bold" font-size="10.00" fill="orange">WAIT(0,SIG_ON)</text>
<polygon fill="none" stroke="black" points="30.5,-291 30.5,-374 211.5,-374 211.5,-291 30.5,-291"/>
<text text-anchor="start" x="33.5" y="-363" font-family="Courier New" font-size="10.00" fill="blue"> &#160;&#160;&#160;ASSIGN(WSPRITE,WIP1);</text>
<text text-anchor="start" x="33.5" y="-352" font-family="Courier New" font-size="10.00" fill="blue"> &#160;&#160;&#160;ASHOW(WSPRITE);</text>
<text text-anchor="start" x="33.5" y="-341" font-family="Courier New" font-size="10.00" fill="blue"> &#160;&#160;&#160;/* BPARM = what you payed</text>
<text text-anchor="start" x="33.5" y="-330" font-family="Courier New" font-size="10.00" fill="blue"> &#160;&#160;&#160;WPARM = Total owed </text>
<text text-anchor="start" x="33.5" y="-319" font-family="Courier New" font-size="10.00" fill="blue"> &#160;&#160;&#160;*/</text>
<text text-anchor="start" x="33.5" y="-308" font-family="Courier New" font-size="10.00" fill="blue"> &#160;&#160;&#160;ASSIGN(BPARM,0); </text>
<text text-anchor="start" x="33.5" y="-297" font-family="Courier New" font-size="10.00" fill="blue"> &#160;&#160;&#160;ASSIGN(WPARM,WIP2);</text>
<polygon fill="none" stroke="black" points="27.5,-288 27.5,-396 214.5,-396 214.5,-288 27.5,-288"/>
</g>
<!-- accept_pay&#45;&gt;0 -->
<g id="edge3" class="edge">
<title>accept_pay&#45;&gt;0</title>
<path fill="none" stroke="black" d="M195.72,-269.98C202.98,-274.9 209.63,-280.86 214.5,-288 228.94,-309.17 233.96,-381.23 235.66,-421.57"/>
<polygon fill="black" stroke="black" points="232.2,-421.64 236.07,-431.51 239.19,-421.38 232.2,-421.64"/>
<polygon fill="none" stroke="black" points="236.5,-354 236.5,-371 363.5,-371 363.5,-354 236.5,-354"/>
<text text-anchor="start" x="239.5" y="-361" font-family="Courier New" font-weight="bold" font-size="10.00" fill="orange">WAIT(SIGNAL,SIG_OFF)</text>
<polygon fill="none" stroke="black" points="236.5,-313 236.5,-352 363.5,-352 363.5,-313 236.5,-313"/>
<text text-anchor="start" x="242.5" y="-341" font-family="Courier New" font-size="10.00" fill="blue"> &#160;&#160;&#160;CLEAR(WSPRITE);</text>
<text text-anchor="start" x="242.5" y="-330" font-family="Courier New" font-size="10.00" fill="blue"> &#160;&#160;&#160;SHOW();</text>
<text text-anchor="start" x="242.5" y="-319" font-family="Courier New" font-size="10.00" fill="blue"> &#160;&#160;&#160;</text>
<polygon fill="none" stroke="black" points="233.5,-310 233.5,-374 366.5,-374 366.5,-310 233.5,-310"/>
</g>
<!-- check_scoop -->
<g id="node4" class="node">
<title>check_scoop</title>
<polyline fill="none" stroke="darkred" points="204,-98.5 301,-98.5"/>
<text text-anchor="start" x="207" y="-106.3" font-family="Courier New" font-weight="bold" font-size="14.00">check_scoop</text>
<path fill="none" stroke="darkred" d="M210,-95.5C210,-95.5 295,-95.5 295,-95.5 299.5,-95.5 304,-100 304,-104.5 304,-104.5 304,-113.5 304,-113.5 304,-118 299.5,-122.5 295,-122.5 295,-122.5 210,-122.5 210,-122.5 205.5,-122.5 201,-118 201,-113.5 201,-113.5 201,-104.5 201,-104.5 201,-100 205.5,-95.5 210,-95.5"/>
</g>
<!-- accept_pay&#45;&gt;check_scoop -->
<g id="edge2" class="edge">
<title>accept_pay&#45;&gt;check_scoop</title>
<path fill="none" stroke="black" d="M87.5,-227.15C80.35,-222.28 73.99,-216.31 69.5,-209 54.61,-184.76 51.37,-166.92 69.5,-145 83.91,-127.58 137.15,-118.74 182.52,-114.32"/>
<polygon fill="black" stroke="black" points="182.61,-117.73 192.25,-113.34 181.97,-110.76 182.61,-117.73"/>
<polygon fill="none" stroke="black" points="72.5,-189 72.5,-206 241.5,-206 241.5,-189 72.5,-189"/>
<text text-anchor="start" x="105.5" y="-196" font-family="Courier New" font-weight="bold" font-size="10.00" fill="orange">DRAG(IDD_SCOOPF,)</text>
<polygon fill="none" stroke="black" points="72.5,-148 72.5,-187 241.5,-187 241.5,-148 72.5,-148"/>
<text text-anchor="start" x="75.5" y="-176" font-family="Courier New" font-size="10.00" fill="blue"> &#160;&#160;&#160;HANDOFF(0,IDD_SCOOPE);</text>
<text text-anchor="start" x="75.5" y="-165" font-family="Courier New" font-size="10.00" fill="blue"> &#160;&#160;&#160;PLAYWAVE(0,SOUND_SPIT);</text>
<text text-anchor="start" x="75.5" y="-154" font-family="Courier New" font-size="10.00" fill="blue"> &#160;&#160;&#160;ADDI(BPARM,1); </text>
<polygon fill="none" stroke="black" points="69.5,-145 69.5,-209 244.5,-209 244.5,-145 69.5,-145"/>
</g>
<!-- check_scoop&#45;&gt;accept_pay -->
<g id="edge5" class="edge">
<title>check_scoop&#45;&gt;accept_pay</title>
<path fill="none" stroke="black" d="M256.14,-126.93C259.71,-148.28 262.32,-185.08 244.5,-209 236.93,-219.17 226.28,-226.65 214.76,-232.16"/>
<polygon fill="black" stroke="black" points="213.76,-229.2 205.92,-236.33 216.49,-235.65 213.76,-229.2"/>
<text text-anchor="start" x="262.5" y="-175.5" font-family="Courier New" font-weight="bold" font-size="10.00" fill="blue">Z_EPSILON(,)</text>
</g>
<!-- paid_in_full -->
<g id="node5" class="node">
<title>paid_in_full</title>
<polyline fill="none" stroke="darkred" points="265.5,-7.5 371.5,-7.5"/>
<text text-anchor="start" x="268.5" y="-15.3" font-family="Courier New" font-weight="bold" font-size="14.00">paid_in_full</text>
<path fill="none" stroke="darkred" d="M271.5,-4.5C271.5,-4.5 365.5,-4.5 365.5,-4.5 370,-4.5 374.5,-9 374.5,-13.5 374.5,-13.5 374.5,-22.5 374.5,-22.5 374.5,-27 370,-31.5 365.5,-31.5 365.5,-31.5 271.5,-31.5 271.5,-31.5 267,-31.5 262.5,-27 262.5,-22.5 262.5,-22.5 262.5,-13.5 262.5,-13.5 262.5,-9 267,-4.5 271.5,-4.5"/>
</g>
<!-- check_scoop&#45;&gt;paid_in_full -->
<g id="edge4" class="edge">
<title>check_scoop&#45;&gt;paid_in_full</title>
<path fill="none" stroke="black" d="M248.65,-91.2C247,-79.88 246.76,-65.05 253.5,-54 256.19,-49.58 259.66,-45.69 263.58,-42.26"/>
<polygon fill="black" stroke="black" points="265.23,-44.64 271.16,-35.87 261.05,-39.03 265.23,-44.64"/>
<text text-anchor="start" x="257.5" y="-62" font-family="Courier New" font-weight="bold" font-size="10.00" fill="blue">EQUAL(BPARM,WPARM)</text>
</g>
<!-- paid_in_full&#45;&gt;0 -->
<g id="edge6" class="edge">
<title>paid_in_full&#45;&gt;0</title>
<path fill="none" stroke="black" d="M353.97,-35.94C360.61,-40.81 366.66,-46.8 370.5,-54 441.93,-188.17 467.68,-279.13 370.5,-396 342.47,-429.71 312.51,-393.98 273.5,-414 267.82,-416.92 262.41,-420.99 257.58,-425.33"/>
<polygon fill="black" stroke="black" points="255.7,-422.25 251.03,-431.76 260.61,-427.24 255.7,-422.25"/>
<polygon fill="none" stroke="black" points="433.5,-183.5 433.5,-200.5 608.5,-200.5 608.5,-183.5 433.5,-183.5"/>
<text text-anchor="start" x="484.5" y="-190.5" font-family="Courier New" font-weight="bold" font-size="10.00" fill="blue">Z_EPSILON(,)</text>
<polygon fill="none" stroke="black" points="433.5,-153.5 433.5,-181.5 608.5,-181.5 608.5,-153.5 433.5,-153.5"/>
<text text-anchor="start" x="436.5" y="-170.5" font-family="Courier New" font-size="10.00" fill="blue"> &#160;&#160;&#160;PLAYWAVE(0,SOUND_LEVER);</text>
<text text-anchor="start" x="436.5" y="-159.5" font-family="Courier New" font-size="10.00" fill="blue"> &#160;&#160;&#160;ASHOW();</text>
<polygon fill="none" stroke="black" points="430.5,-150.5 430.5,-203.5 611.5,-203.5 611.5,-150.5 430.5,-150.5"/>
</g>
<!-- status -->
<g id="node6" class="node">
<title>status</title>
<polygon fill="none" stroke="black" points="282,-414.5 282,-486.5 743,-486.5 743,-414.5 282,-414.5"/>
<polygon fill="none" stroke="black" points="293,-462.5 293,-479.5 732,-479.5 732,-462.5 293,-462.5"/>
<text text-anchor="start" x="476" y="-469.5" font-family="Courier New" font-weight="bold" font-size="10.00">S16_SHOV_PAY</text>
<polygon fill="none" stroke="black" points="293,-421.5 293,-460.5 732,-460.5 732,-421.5 293,-421.5"/>
<text text-anchor="start" x="296" y="-449.5" font-family="Courier New" font-size="10.00" fill="green">VIEW::IDV_SHOV0000 @pos(left:324, top:185)</text>
<text text-anchor="start" x="296" y="-438.5" font-family="Courier New" font-size="10.00" fill="green">S16_SHOV_PAY::M16_PAYBUCKET(&#39;IDS_NYBUCKET_GLOW&#39;,&#39;8&#39;,&#39;S16_SHOV_STAMP&#39;,&#39;&#39;)</text>
<text text-anchor="start" x="296" y="-427.5" font-family="Courier New" font-size="10.00" fill="green">{&#39;accept_pay&#39;: wParm:8 wSprite:NYBUCKET_GLOW</text>
<polygon fill="none" stroke="black" points="290,-418.5 290,-482.5 735,-482.5 735,-418.5 290,-418.5"/>
</g>
</g>
</svg>
