<?xml version="1.0" encoding="UTF-8" standalone="no"?>
<!DOCTYPE svg PUBLIC "-//W3C//DTD SVG 1.1//EN"
 "http://www.w3.org/Graphics/SVG/1.1/DTD/svg11.dtd">
<!-- Generated by graphviz version 8.0.1 (20230327.1645)
 -->
<!-- Title: Automaton Pages: 1 -->
<svg width="1658pt" height="384pt"
 viewBox="0.00 0.00 1658.07 384.00" xmlns="http://www.w3.org/2000/svg" xmlns:xlink="http://www.w3.org/1999/xlink">
<g id="graph0" class="graph" transform="scale(1 1) rotate(0) translate(4 380)">
<title>Automaton</title>
<polygon fill="white" stroke="none" points="-4,4 -4,-380 1654.07,-380 1654.07,4 -4,4"/>
<!-- filename -->
<g id="node1" class="node">
<title>filename</title>
<polygon fill="none" stroke="black" points="883.07,-314.5 883.07,-364.5 1080.07,-364.5 1080.07,-314.5 883.07,-314.5"/>
<polygon fill="none" stroke="black" points="894.07,-340.5 894.07,-357.5 1069.07,-357.5 1069.07,-340.5 894.07,-340.5"/>
<text text-anchor="start" x="897.07" y="-347.5" font-family="Courier New" font-weight="bold" font-size="10.00">S16_DICE_STAMP::M16_PAYSTAMP</text>
<polygon fill="none" stroke="black" points="894.07,-321.5 894.07,-338.5 1069.07,-338.5 1069.07,-321.5 894.07,-321.5"/>
<text text-anchor="start" x="936.07" y="-327.5" font-family="Courier New" font-size="10.00" fill="brown">start state = 0</text>
<polygon fill="none" stroke="black" points="891.07,-318.5 891.07,-360.5 1072.07,-360.5 1072.07,-318.5 891.07,-318.5"/>
</g>
<!-- 0 -->
<g id="node2" class="node">
<title>0</title>
<polyline fill="none" stroke="darkred" points="1118.07,-329 1133.07,-329"/>
<text text-anchor="start" x="1121.07" y="-336.8" font-family="Courier New" font-weight="bold" font-size="14.00">0</text>
<path fill="none" stroke="darkred" d="M1122.07,-326C1122.07,-326 1129.07,-326 1129.07,-326 1132.57,-326 1136.07,-329.5 1136.07,-333 1136.07,-333 1136.07,-346 1136.07,-346 1136.07,-349.5 1132.57,-353 1129.07,-353 1129.07,-353 1122.07,-353 1122.07,-353 1118.57,-353 1115.07,-349.5 1115.07,-346 1115.07,-346 1115.07,-333 1115.07,-333 1115.07,-329.5 1118.57,-326 1122.07,-326"/>
</g>
<!-- startframe -->
<g id="node3" class="node">
<title>startframe</title>
<polyline fill="none" stroke="darkred" points="857.07,-219.5 946.07,-219.5"/>
<text text-anchor="start" x="860.07" y="-227.3" font-family="Courier New" font-weight="bold" font-size="14.00">startframe</text>
<path fill="none" stroke="darkred" d="M863.07,-216.5C863.07,-216.5 940.07,-216.5 940.07,-216.5 944.57,-216.5 949.07,-221 949.07,-225.5 949.07,-225.5 949.07,-234.5 949.07,-234.5 949.07,-239 944.57,-243.5 940.07,-243.5 940.07,-243.5 863.07,-243.5 863.07,-243.5 858.57,-243.5 854.07,-239 854.07,-234.5 854.07,-234.5 854.07,-225.5 854.07,-225.5 854.07,-221 858.57,-216.5 863.07,-216.5"/>
</g>
<!-- 0&#45;&gt;startframe -->
<g id="edge1" class="edge">
<title>0&#45;&gt;startframe</title>
<path fill="none" stroke="black" d="M1111.38,-321.77C1105.2,-315.25 1097.54,-308.13 1089.57,-303 1051.97,-278.79 1004.98,-260.79 967.39,-248.84"/>
<polygon fill="black" stroke="black" points="968.64,-245.26 958.05,-245.64 966.57,-251.94 968.64,-245.26"/>
<text text-anchor="start" x="1059.57" y="-274" font-family="Courier New" font-weight="bold" font-size="10.00" fill="blue">ASSIGN(BFRAME,1)</text>
</g>
<!-- waiting -->
<g id="node5" class="node">
<title>waiting</title>
<polyline fill="none" stroke="darkred" points="540.57,-128.5 604.57,-128.5"/>
<text text-anchor="start" x="543.57" y="-136.3" font-family="Courier New" font-weight="bold" font-size="14.00">waiting</text>
<path fill="none" stroke="darkred" d="M546.57,-125.5C546.57,-125.5 598.57,-125.5 598.57,-125.5 603.07,-125.5 607.57,-130 607.57,-134.5 607.57,-134.5 607.57,-143.5 607.57,-143.5 607.57,-148 603.07,-152.5 598.57,-152.5 598.57,-152.5 546.57,-152.5 546.57,-152.5 542.07,-152.5 537.57,-148 537.57,-143.5 537.57,-143.5 537.57,-134.5 537.57,-134.5 537.57,-130 542.07,-125.5 546.57,-125.5"/>
</g>
<!-- startframe&#45;&gt;waiting -->
<g id="edge4" class="edge">
<title>startframe&#45;&gt;waiting</title>
<path fill="none" stroke="black" d="M846.14,-214C784.72,-197.39 686.39,-170.79 625.86,-154.41"/>
<polygon fill="black" stroke="black" points="626.95,-150.81 616.38,-151.58 625.12,-157.57 626.95,-150.81"/>
<text text-anchor="start" x="769.57" y="-183" font-family="Courier New" font-weight="bold" font-size="10.00" fill="blue">SHOW(WIP1,)</text>
</g>
<!-- readyToPay -->
<g id="node4" class="node">
<title>readyToPay</title>
<polyline fill="none" stroke="darkred" stroke-width="3" points="527.57,-10.5 617.57,-10.5"/>
<text text-anchor="start" x="531.07" y="-18.8" font-family="Courier New" font-weight="bold" font-size="14.00">readyToPay</text>
<path fill="none" stroke="darkred" stroke-width="3" d="M533.24,-5.5C533.24,-5.5 611.91,-5.5 611.91,-5.5 617.24,-5.5 622.57,-10.83 622.57,-16.17 622.57,-16.17 622.57,-26.83 622.57,-26.83 622.57,-32.17 617.24,-37.5 611.91,-37.5 611.91,-37.5 533.24,-37.5 533.24,-37.5 527.91,-37.5 522.57,-32.17 522.57,-26.83 522.57,-26.83 522.57,-16.17 522.57,-16.17 522.57,-10.83 527.91,-5.5 533.24,-5.5"/>
</g>
<!-- readyToPay&#45;&gt;0 -->
<g id="edge3" class="edge">
<title>readyToPay&#45;&gt;0</title>
<path fill="none" stroke="black" d="M631.86,-23.94C785.35,-27.94 1185.12,-40.32 1204.57,-61 1272.39,-133.08 1188.48,-259.18 1146.64,-312.99"/>
<polygon fill="black" stroke="black" points="1143.3,-310.57 1139.84,-320.58 1148.79,-314.92 1143.3,-310.57"/>
<text text-anchor="start" x="1226.57" y="-183" font-family="Courier New" font-weight="bold" font-size="10.00" fill="orange">WAIT(0,SIG_OFF)</text>
</g>
<!-- readyToPay&#45;&gt;waiting -->
<g id="edge2" class="edge">
<title>readyToPay&#45;&gt;waiting</title>
<path fill="none" stroke="black" d="M572.57,-42.91C572.57,-61.7 572.57,-89.72 572.57,-110.48"/>
<polygon fill="black" stroke="black" points="569.07,-110.45 572.57,-120.45 576.07,-110.45 569.07,-110.45"/>
<polygon fill="none" stroke="black" points="575.57,-83 575.57,-100 1200.57,-100 1200.57,-83 575.57,-83"/>
<text text-anchor="start" x="863.57" y="-90" font-family="Courier New" font-weight="bold" font-size="10.00" fill="orange">CLICK(,)</text>
<polygon fill="none" stroke="black" points="575.57,-64 575.57,-81 1200.57,-81 1200.57,-64 575.57,-64"/>
<text text-anchor="start" x="578.57" y="-70" font-family="Courier New" font-size="10.00" fill="blue">SHOW(WSPRITE);ANIMATE(0,V_REVERSE);SIGNAL(WIP2,SIG_OFF);SIGNAL(WIP3,SIG_CLOSE);PLAYWAVE(0,SOUND_CHAIN);</text>
<polygon fill="none" stroke="black" points="572.57,-61 572.57,-103 1203.57,-103 1203.57,-61 572.57,-61"/>
</g>
<!-- waiting&#45;&gt;readyToPay -->
<g id="edge5" class="edge">
<title>waiting&#45;&gt;readyToPay</title>
<path fill="none" stroke="black" d="M529.97,-136.93C401.78,-133.5 27.35,-121.91 9.57,-103 -3.21,-89.4 -3.17,-74.64 9.57,-61 42.55,-25.69 358.91,-21.94 502.41,-22.07"/>
<polygon fill="black" stroke="black" points="502.26,-25.57 512.27,-22.09 502.27,-18.57 502.26,-25.57"/>
<polygon fill="none" stroke="black" points="12.57,-83 12.57,-100 565.57,-100 565.57,-83 12.57,-83"/>
<text text-anchor="start" x="264.57" y="-90" font-family="Courier New" font-weight="bold" font-size="10.00" fill="orange">CLICK(,)</text>
<polygon fill="none" stroke="black" points="12.57,-64 12.57,-81 565.57,-81 565.57,-64 12.57,-64"/>
<text text-anchor="start" x="15.57" y="-70" font-family="Courier New" font-size="10.00" fill="blue">SHOW(WSPRITE);ANIMATE(); SIGNAL(WIP2,SIG_ON);SIGNAL(WIP3,SIG_OPEN);PLAYWAVE(0,SOUND_CHAIN);</text>
<polygon fill="none" stroke="black" points="9.57,-61 9.57,-103 568.57,-103 568.57,-61 9.57,-61"/>
</g>
<!-- status -->
<g id="node6" class="node">
<title>status</title>
<polygon fill="none" stroke="black" points="1171.07,-303.5 1171.07,-375.5 1650.07,-375.5 1650.07,-303.5 1171.07,-303.5"/>
<polygon fill="none" stroke="black" points="1182.07,-351.5 1182.07,-368.5 1639.07,-368.5 1639.07,-351.5 1182.07,-351.5"/>
<text text-anchor="start" x="1368.07" y="-358.5" font-family="Courier New" font-weight="bold" font-size="10.00">S16_DICE_STAMP</text>
<polygon fill="none" stroke="black" points="1182.07,-310.5 1182.07,-349.5 1639.07,-349.5 1639.07,-310.5 1182.07,-310.5"/>
<text text-anchor="start" x="1185.07" y="-338.5" font-family="Courier New" font-size="10.00" fill="green">VIEW::IDV_DICE0000 @pos(left:160, top:0)</text>
<text text-anchor="start" x="1185.07" y="-327.5" font-family="Courier New" font-size="10.00" fill="green">S16_DICE_STAMP::M16_PAYSTAMP(&#39;IDS_STAMP&#39;,&#39;S16_DICE_PAY&#39;,&#39;S16_DICE_GRAB&#39;,&#39;&#39;)</text>
<text text-anchor="start" x="1185.07" y="-316.5" font-family="Courier New" font-size="10.00" fill="green">{&#39;readyToPay&#39;: bFrame:49</text>
<polygon fill="none" stroke="black" points="1179.07,-307.5 1179.07,-371.5 1642.07,-371.5 1642.07,-307.5 1179.07,-307.5"/>
</g>
</g>
</svg>
