<?xml version="1.0" encoding="UTF-8" standalone="no"?>
<!DOCTYPE svg PUBLIC "-//W3C//DTD SVG 1.1//EN"
 "http://www.w3.org/Graphics/SVG/1.1/DTD/svg11.dtd">
<!-- Generated by graphviz version 8.0.1 (20230327.1645)
 -->
<!-- Title: Automaton Pages: 1 -->
<svg width="721pt" height="852pt"
 viewBox="0.00 0.00 721.00 852.00" xmlns="http://www.w3.org/2000/svg" xmlns:xlink="http://www.w3.org/1999/xlink">
<g id="graph0" class="graph" transform="scale(1 1) rotate(0) translate(4 848)">
<title>Automaton</title>
<polygon fill="white" stroke="none" points="-4,4 -4,-848 717,-848 717,4 -4,4"/>
<!-- filename -->
<g id="node1" class="node">
<title>filename</title>
<polygon fill="none" stroke="black" points="0,-778.5 0,-828.5 203,-828.5 203,-778.5 0,-778.5"/>
<polygon fill="none" stroke="black" points="11,-804.5 11,-821.5 192,-821.5 192,-804.5 11,-804.5"/>
<text text-anchor="start" x="14" y="-811.5" font-family="Courier New" font-weight="bold" font-size="10.00">S16_DICEROLL_R1::M16_DICEROLL</text>
<polygon fill="none" stroke="black" points="11,-785.5 11,-802.5 192,-802.5 192,-785.5 11,-785.5"/>
<text text-anchor="start" x="56" y="-791.5" font-family="Courier New" font-size="10.00" fill="brown">start state = 0</text>
<polygon fill="none" stroke="black" points="8,-782.5 8,-824.5 195,-824.5 195,-782.5 8,-782.5"/>
</g>
<!-- 0 -->
<g id="node2" class="node">
<title>0</title>
<polyline fill="none" stroke="darkred" points="241,-793 256,-793"/>
<text text-anchor="start" x="244" y="-800.8" font-family="Courier New" font-weight="bold" font-size="14.00">0</text>
<path fill="none" stroke="darkred" d="M245,-790C245,-790 252,-790 252,-790 255.5,-790 259,-793.5 259,-797 259,-797 259,-810 259,-810 259,-813.5 255.5,-817 252,-817 252,-817 245,-817 245,-817 241.5,-817 238,-813.5 238,-810 238,-810 238,-797 238,-797 238,-793.5 241.5,-790 245,-790"/>
</g>
<!-- 2 -->
<g id="node3" class="node">
<title>2</title>
<polyline fill="none" stroke="darkred" points="63,-656.5 78,-656.5"/>
<text text-anchor="start" x="66" y="-664.3" font-family="Courier New" font-weight="bold" font-size="14.00">2</text>
<path fill="none" stroke="darkred" d="M67,-653.5C67,-653.5 74,-653.5 74,-653.5 77.5,-653.5 81,-657 81,-660.5 81,-660.5 81,-673.5 81,-673.5 81,-677 77.5,-680.5 74,-680.5 74,-680.5 67,-680.5 67,-680.5 63.5,-680.5 60,-677 60,-673.5 60,-673.5 60,-660.5 60,-660.5 60,-657 63.5,-653.5 67,-653.5"/>
</g>
<!-- 0&#45;&gt;2 -->
<g id="edge1" class="edge">
<title>0&#45;&gt;2</title>
<path fill="none" stroke="black" d="M237.09,-785.65C230.59,-777.44 221.7,-768.22 211.5,-763 183.58,-748.71 92.37,-768.42 71.5,-745 59.79,-731.86 59.86,-711.88 62.69,-695.56"/>
<polygon fill="black" stroke="black" points="66.28,-696.5 64.98,-685.98 59.44,-695.02 66.28,-696.5"/>
<polygon fill="none" stroke="black" points="74.5,-725 74.5,-742 231.5,-742 231.5,-725 74.5,-725"/>
<text text-anchor="start" x="104.5" y="-732" font-family="Courier New" font-weight="bold" font-size="10.00" fill="orange">WAIT(0,SIG_SHOW)</text>
<polygon fill="none" stroke="black" points="74.5,-706 74.5,-723 231.5,-723 231.5,-706 74.5,-706"/>
<text text-anchor="start" x="77.5" y="-712" font-family="Courier New" font-size="10.00" fill="blue">PLAYWAVE(SOUND_DICEROLL);</text>
<polygon fill="none" stroke="black" points="71.5,-703 71.5,-745 234.5,-745 234.5,-703 71.5,-703"/>
</g>
<!-- 4 -->
<g id="node4" class="node">
<title>4</title>
<polyline fill="none" stroke="darkred" points="63,-565.5 78,-565.5"/>
<text text-anchor="start" x="66" y="-573.3" font-family="Courier New" font-weight="bold" font-size="14.00">4</text>
<path fill="none" stroke="darkred" d="M67,-562.5C67,-562.5 74,-562.5 74,-562.5 77.5,-562.5 81,-566 81,-569.5 81,-569.5 81,-582.5 81,-582.5 81,-586 77.5,-589.5 74,-589.5 74,-589.5 67,-589.5 67,-589.5 63.5,-589.5 60,-586 60,-582.5 60,-582.5 60,-569.5 60,-569.5 60,-566 63.5,-562.5 67,-562.5"/>
</g>
<!-- 2&#45;&gt;4 -->
<g id="edge2" class="edge">
<title>2&#45;&gt;4</title>
<path fill="none" stroke="black" d="M70.5,-649.26C70.5,-636.78 70.5,-619.46 70.5,-604.9"/>
<polygon fill="black" stroke="black" points="74,-604.97 70.5,-594.97 67,-604.97 74,-604.97"/>
<text text-anchor="start" x="74.5" y="-620" font-family="Courier New" font-weight="bold" font-size="10.00" fill="blue">MOV(WSPRITE,WIP1)</text>
</g>
<!-- 5 -->
<g id="node5" class="node">
<title>5</title>
<polyline fill="none" stroke="darkred" points="62,-455 77,-455"/>
<text text-anchor="start" x="65" y="-462.8" font-family="Courier New" font-weight="bold" font-size="14.00">5</text>
<path fill="none" stroke="darkred" d="M66,-452C66,-452 73,-452 73,-452 76.5,-452 80,-455.5 80,-459 80,-459 80,-472 80,-472 80,-475.5 76.5,-479 73,-479 73,-479 66,-479 66,-479 62.5,-479 59,-475.5 59,-472 59,-472 59,-459 59,-459 59,-455.5 62.5,-452 66,-452"/>
</g>
<!-- 4&#45;&gt;5 -->
<g id="edge3" class="edge">
<title>4&#45;&gt;5</title>
<path fill="none" stroke="black" d="M70.34,-558.05C70.19,-541.01 69.94,-514.45 69.76,-494.32"/>
<polygon fill="black" stroke="black" points="73.25,-494.3 69.66,-484.33 66.25,-494.37 73.25,-494.3"/>
<text text-anchor="start" x="74.5" y="-529" font-family="Courier New" font-weight="bold" font-size="10.00" fill="blue">ASHOW(WSPRITE,V_LOOP)</text>
</g>
<!-- 6 -->
<g id="node6" class="node">
<title>6</title>
<polyline fill="none" stroke="darkred" points="56,-321.5 71,-321.5"/>
<text text-anchor="start" x="59" y="-329.3" font-family="Courier New" font-weight="bold" font-size="14.00">6</text>
<path fill="none" stroke="darkred" d="M60,-318.5C60,-318.5 67,-318.5 67,-318.5 70.5,-318.5 74,-322 74,-325.5 74,-325.5 74,-338.5 74,-338.5 74,-342 70.5,-345.5 67,-345.5 67,-345.5 60,-345.5 60,-345.5 56.5,-345.5 53,-342 53,-338.5 53,-338.5 53,-325.5 53,-325.5 53,-322 56.5,-318.5 60,-318.5"/>
</g>
<!-- 5&#45;&gt;6 -->
<g id="edge4" class="edge">
<title>5&#45;&gt;6</title>
<path fill="none" stroke="black" d="M68.73,-447.58C67.72,-425.58 65.96,-386.89 64.76,-360.61"/>
<polygon fill="black" stroke="black" points="68.22,-360.69 64.27,-350.86 61.23,-361.01 68.22,-360.69"/>
<text text-anchor="start" x="71.5" y="-387.5" font-family="Courier New" font-weight="bold" font-size="10.00" fill="blue">ESTIME(,2)</text>
</g>
<!-- 7 -->
<g id="node7" class="node">
<title>7</title>
<polyline fill="none" stroke="darkred" points="34,-230.5 49,-230.5"/>
<text text-anchor="start" x="37" y="-238.3" font-family="Courier New" font-weight="bold" font-size="14.00">7</text>
<path fill="none" stroke="darkred" d="M38,-227.5C38,-227.5 45,-227.5 45,-227.5 48.5,-227.5 52,-231 52,-234.5 52,-234.5 52,-247.5 52,-247.5 52,-251 48.5,-254.5 45,-254.5 45,-254.5 38,-254.5 38,-254.5 34.5,-254.5 31,-251 31,-247.5 31,-247.5 31,-234.5 31,-234.5 31,-231 34.5,-227.5 38,-227.5"/>
</g>
<!-- 6&#45;&gt;7 -->
<g id="edge5" class="edge">
<title>6&#45;&gt;7</title>
<path fill="none" stroke="black" d="M59.36,-314.26C56.25,-301.66 51.91,-284.12 48.29,-269.47"/>
<polygon fill="black" stroke="black" points="51.49,-268.84 45.69,-259.97 44.7,-270.52 51.49,-268.84"/>
<text text-anchor="start" x="58.5" y="-285" font-family="Courier New" font-weight="bold" font-size="10.00" fill="blue">RAND(6,1)</text>
</g>
<!-- 8 -->
<g id="node8" class="node">
<title>8</title>
<polyline fill="none" stroke="darkred" stroke-width="3" points="240.5,-101.5 256.5,-101.5"/>
<text text-anchor="start" x="244" y="-109.8" font-family="Courier New" font-weight="bold" font-size="14.00">8</text>
<path fill="none" stroke="darkred" stroke-width="3" d="M244.17,-96.5C244.17,-96.5 252.83,-96.5 252.83,-96.5 257.17,-96.5 261.5,-100.83 261.5,-105.17 261.5,-105.17 261.5,-119.83 261.5,-119.83 261.5,-124.17 257.17,-128.5 252.83,-128.5 252.83,-128.5 244.17,-128.5 244.17,-128.5 239.83,-128.5 235.5,-124.17 235.5,-119.83 235.5,-119.83 235.5,-105.17 235.5,-105.17 235.5,-100.83 239.83,-96.5 244.17,-96.5"/>
</g>
<!-- 7&#45;&gt;8 -->
<g id="edge6" class="edge">
<title>7&#45;&gt;8</title>
<path fill="none" stroke="black" d="M35.78,-223.3C30.28,-203.85 25,-171.86 41.5,-152 62.6,-126.61 157,-117.88 210.74,-114.94"/>
<polygon fill="black" stroke="black" points="210.74,-118.4 220.55,-114.4 210.39,-111.41 210.74,-118.4"/>
<polygon fill="none" stroke="black" points="44.5,-185 44.5,-202 231.5,-202 231.5,-185 44.5,-185"/>
<text text-anchor="start" x="86.5" y="-192" font-family="Courier New" font-weight="bold" font-size="10.00" fill="blue">MOV(BFRAME,WRAND)</text>
<polygon fill="none" stroke="black" points="44.5,-155 44.5,-183 231.5,-183 231.5,-155 44.5,-155"/>
<text text-anchor="start" x="47.5" y="-172" font-family="Courier New" font-size="10.00" fill="blue"> &#160;&#160;&#160;MAPi(BFRAME,S16_DICE_MAP);</text>
<text text-anchor="start" x="47.5" y="-161" font-family="Courier New" font-size="10.00" fill="blue"> &#160;&#160;&#160;SHOW(BFRAME);</text>
<polygon fill="none" stroke="black" points="41.5,-152 41.5,-205 234.5,-205 234.5,-152 41.5,-152"/>
</g>
<!-- 8&#45;&gt;0 -->
<g id="edge7" class="edge">
<title>8&#45;&gt;0</title>
<path fill="none" stroke="black" d="M248.5,-133.66C248.5,-158.62 248.5,-202.45 248.5,-240 248.5,-668 248.5,-668 248.5,-668 248.5,-704.98 248.5,-747.68 248.5,-774.87"/>
<polygon fill="black" stroke="black" points="245,-774.51 248.5,-784.51 252,-774.51 245,-774.51"/>
<polygon fill="none" stroke="black" points="251.5,-483 251.5,-500 420.5,-500 420.5,-483 251.5,-483"/>
<text text-anchor="start" x="287.5" y="-490" font-family="Courier New" font-weight="bold" font-size="10.00" fill="orange">GRAB(,IDD_SHAKE)</text>
<polygon fill="none" stroke="black" points="251.5,-431 251.5,-481 420.5,-481 420.5,-431 251.5,-431"/>
<text text-anchor="start" x="254.5" y="-470" font-family="Courier New" font-size="10.00" fill="blue"> </text>
<text text-anchor="start" x="254.5" y="-459" font-family="Courier New" font-size="10.00" fill="blue"> &#160;&#160;&#160;SIGNAL(WIP2,SIG_HIDE); </text>
<text text-anchor="start" x="254.5" y="-448" font-family="Courier New" font-size="10.00" fill="blue"> &#160;&#160;&#160;CLEAR(WOBJECT);</text>
<text text-anchor="start" x="254.5" y="-437" font-family="Courier New" font-size="10.00" fill="blue"> &#160;&#160;&#160;SHOW();</text>
<polygon fill="none" stroke="black" points="248.5,-428 248.5,-503 423.5,-503 423.5,-428 248.5,-428"/>
</g>
<!-- 9 -->
<g id="node9" class="node">
<title>9</title>
<polyline fill="none" stroke="darkred" points="343,-7.5 358,-7.5"/>
<text text-anchor="start" x="346" y="-15.3" font-family="Courier New" font-weight="bold" font-size="14.00">9</text>
<path fill="none" stroke="darkred" d="M347,-4.5C347,-4.5 354,-4.5 354,-4.5 357.5,-4.5 361,-8 361,-11.5 361,-11.5 361,-24.5 361,-24.5 361,-28 357.5,-31.5 354,-31.5 354,-31.5 347,-31.5 347,-31.5 343.5,-31.5 340,-28 340,-24.5 340,-24.5 340,-11.5 340,-11.5 340,-8 343.5,-4.5 347,-4.5"/>
</g>
<!-- 8&#45;&gt;9 -->
<g id="edge8" class="edge">
<title>8&#45;&gt;9</title>
<path fill="none" stroke="black" d="M270.88,-91.2C286.61,-76.94 307.7,-57.82 324.22,-42.83"/>
<polygon fill="black" stroke="black" points="325.86,-46.16 330.92,-36.85 321.16,-40.97 325.86,-46.16"/>
<text text-anchor="start" x="315.5" y="-62" font-family="Courier New" font-weight="bold" font-size="10.00" fill="orange">WAIT(0,SIG_HIDE)</text>
</g>
<!-- 9&#45;&gt;0 -->
<g id="edge9" class="edge">
<title>9&#45;&gt;0</title>
<path fill="none" stroke="black" d="M377.49,-27.97C391.6,-33.69 408.4,-42.27 420.5,-54 441.34,-74.21 451.5,-82.47 451.5,-111.5 451.5,-668 451.5,-668 451.5,-668 451.5,-753.01 352.19,-710.28 285.5,-763 279.99,-767.36 274.53,-772.54 269.58,-777.7"/>
<polygon fill="black" stroke="black" points="267.46,-774.92 263.27,-784.65 272.61,-779.66 267.46,-774.92"/>
<polygon fill="none" stroke="black" points="454.5,-390 454.5,-407 551.5,-407 551.5,-390 454.5,-390"/>
<text text-anchor="start" x="457.5" y="-397" font-family="Courier New" font-weight="bold" font-size="10.00" fill="blue">CLEAR(,WOBJECT)</text>
<polygon fill="none" stroke="black" points="454.5,-371 454.5,-388 551.5,-388 551.5,-371 454.5,-371"/>
<text text-anchor="start" x="478.5" y="-377" font-family="Courier New" font-size="10.00" fill="blue">SHOW(); </text>
<polygon fill="none" stroke="black" points="451.5,-368 451.5,-410 554.5,-410 554.5,-368 451.5,-368"/>
</g>
<!-- status -->
<g id="node10" class="node">
<title>status</title>
<polygon fill="none" stroke="black" points="294,-763.5 294,-843.5 713,-843.5 713,-763.5 294,-763.5"/>
<polygon fill="none" stroke="black" points="305,-819.5 305,-836.5 702,-836.5 702,-819.5 305,-819.5"/>
<text text-anchor="start" x="458" y="-826.5" font-family="Courier New" font-weight="bold" font-size="10.00">S16_DICEROLL_R1</text>
<polygon fill="none" stroke="black" points="305,-789.5 305,-817.5 702,-817.5 702,-789.5 305,-789.5"/>
<text text-anchor="start" x="308" y="-806.5" font-family="Courier New" font-size="10.00" fill="green">S16_DICEROLL_R1::M16_DICEROLL(&#39;IDS_DICE&#39;,&#39;S16_DICEROLL_R2&#39;,&#39;&#39;,&#39;&#39;)</text>
<text text-anchor="start" x="308" y="-795.5" font-family="Courier New" font-size="10.00" fill="green">{&#39;8&#39;: wSprite:dice_5 bFrame:262344}</text>
<polygon fill="none" stroke="black" points="305,-770.5 305,-787.5 702,-787.5 702,-770.5 305,-770.5"/>
<text text-anchor="start" x="500" y="-776.5" font-family="Courier New" font-size="10.00" fill="blue">_</text>
<polygon fill="none" stroke="black" points="302,-767.5 302,-839.5 705,-839.5 705,-767.5 302,-767.5"/>
</g>
</g>
</svg>
