<?xml version="1.0" encoding="UTF-8" standalone="no"?>
<!DOCTYPE svg PUBLIC "-//W3C//DTD SVG 1.1//EN"
 "http://www.w3.org/Graphics/SVG/1.1/DTD/svg11.dtd">
<!-- Generated by graphviz version 8.0.1 (20230327.1645)
 -->
<!-- Title: Automaton Pages: 1 -->
<svg width="823pt" height="261pt"
 viewBox="0.00 0.00 823.00 261.00" xmlns="http://www.w3.org/2000/svg" xmlns:xlink="http://www.w3.org/1999/xlink">
<g id="graph0" class="graph" transform="scale(1 1) rotate(0) translate(4 257)">
<title>Automaton</title>
<polygon fill="white" stroke="none" points="-4,4 -4,-257 819,-257 819,4 -4,4"/>
<!-- filename -->
<g id="node1" class="node">
<title>filename</title>
<polygon fill="none" stroke="black" points="0,-191.5 0,-241.5 203,-241.5 203,-191.5 0,-191.5"/>
<polygon fill="none" stroke="black" points="11,-217.5 11,-234.5 192,-234.5 192,-217.5 11,-217.5"/>
<text text-anchor="start" x="14" y="-224.5" font-family="Courier New" font-weight="bold" font-size="10.00">S16_DICEBUY_GRAB::M16_PAYGRAB</text>
<polygon fill="none" stroke="black" points="11,-198.5 11,-215.5 192,-215.5 192,-198.5 11,-198.5"/>
<text text-anchor="start" x="56" y="-204.5" font-family="Courier New" font-size="10.00" fill="brown">start state = 0</text>
<polygon fill="none" stroke="black" points="8,-195.5 8,-237.5 195,-237.5 195,-195.5 8,-195.5"/>
</g>
<!-- 0 -->
<g id="node2" class="node">
<title>0</title>
<polyline fill="none" stroke="darkred" stroke-width="3" points="240.5,-205.5 256.5,-205.5"/>
<text text-anchor="start" x="244" y="-213.8" font-family="Courier New" font-weight="bold" font-size="14.00">0</text>
<path fill="none" stroke="darkred" stroke-width="3" d="M244.17,-200.5C244.17,-200.5 252.83,-200.5 252.83,-200.5 257.17,-200.5 261.5,-204.83 261.5,-209.17 261.5,-209.17 261.5,-223.83 261.5,-223.83 261.5,-228.17 257.17,-232.5 252.83,-232.5 252.83,-232.5 244.17,-232.5 244.17,-232.5 239.83,-232.5 235.5,-228.17 235.5,-223.83 235.5,-223.83 235.5,-209.17 235.5,-209.17 235.5,-204.83 239.83,-200.5 244.17,-200.5"/>
</g>
<!-- open_bin -->
<g id="node3" class="node">
<title>open_bin</title>
<polyline fill="none" stroke="darkred" points="212,-7.5 285,-7.5"/>
<text text-anchor="start" x="215" y="-15.3" font-family="Courier New" font-weight="bold" font-size="14.00">open_bin</text>
<path fill="none" stroke="darkred" d="M218,-4.5C218,-4.5 279,-4.5 279,-4.5 283.5,-4.5 288,-9 288,-13.5 288,-13.5 288,-22.5 288,-22.5 288,-27 283.5,-31.5 279,-31.5 279,-31.5 218,-31.5 218,-31.5 213.5,-31.5 209,-27 209,-22.5 209,-22.5 209,-13.5 209,-13.5 209,-9 213.5,-4.5 218,-4.5"/>
</g>
<!-- 0&#45;&gt;open_bin -->
<g id="edge1" class="edge">
<title>0&#45;&gt;open_bin</title>
<path fill="none" stroke="black" d="M231.78,-195.37C225.95,-189.55 218.97,-183.76 211.5,-180 168.82,-158.51 136.33,-198.51 105.5,-162 74.53,-125.33 75.87,-91.76 105.5,-54 116.22,-40.33 155.88,-31.31 190.72,-25.86"/>
<polygon fill="black" stroke="black" points="190.96,-29.21 200.34,-24.28 189.93,-22.29 190.96,-29.21"/>
<polygon fill="none" stroke="black" points="108.5,-109 108.5,-126 223.5,-126 223.5,-109 108.5,-109"/>
<text text-anchor="start" x="117.5" y="-116" font-family="Courier New" font-weight="bold" font-size="10.00" fill="orange">WAIT(0,SIG_OPEN)</text>
<polygon fill="none" stroke="black" points="108.5,-90 108.5,-107 223.5,-107 223.5,-90 108.5,-90"/>
<text text-anchor="start" x="111.5" y="-96" font-family="Courier New" font-size="10.00" fill="blue">REF_MACHINE(WIP2);</text>
<polygon fill="none" stroke="black" points="105.5,-87 105.5,-129 226.5,-129 226.5,-87 105.5,-87"/>
</g>
<!-- open_bin&#45;&gt;0 -->
<g id="edge2" class="edge">
<title>open_bin&#45;&gt;0</title>
<path fill="none" stroke="black" d="M248.5,-35.78C248.5,-68.69 248.5,-142.12 248.5,-184.22"/>
<polygon fill="black" stroke="black" points="245,-184.21 248.5,-194.21 252,-184.21 245,-184.21"/>
<polygon fill="none" stroke="black" points="251.5,-142 251.5,-159 456.5,-159 456.5,-142 251.5,-142"/>
<text text-anchor="start" x="320.5" y="-149" font-family="Courier New" font-weight="bold" font-size="10.00" fill="orange">GRAB(WIP1,)</text>
<polygon fill="none" stroke="black" points="251.5,-57 251.5,-140 456.5,-140 456.5,-57 251.5,-57"/>
<text text-anchor="start" x="254.5" y="-129" font-family="Courier New" font-size="10.00" fill="blue"> &#160;&#160;&#160;if(R_WPARM != R_BPARM){</text>
<text text-anchor="start" x="254.5" y="-118" font-family="Courier New" font-size="10.00" fill="blue"> &#160;&#160;&#160;&#160;&#160;&#160;&#160;ADDI(LKARMA,1);</text>
<text text-anchor="start" x="254.5" y="-107" font-family="Courier New" font-size="10.00" fill="blue"> &#160;&#160;&#160;&#160;&#160;&#160;&#160;SIGNAL(SID_HALO,SIG_ADD);</text>
<text text-anchor="start" x="254.5" y="-96" font-family="Courier New" font-size="10.00" fill="blue"> &#160;&#160;&#160;&#160;&#160;&#160;&#160;PLAYWAVE(0,SOUND_CLUNK);</text>
<text text-anchor="start" x="254.5" y="-85" font-family="Courier New" font-size="10.00" fill="blue"> &#160;&#160;&#160;}</text>
<text text-anchor="start" x="254.5" y="-74" font-family="Courier New" font-size="10.00" fill="blue"> &#160;&#160;&#160;SIGNAL(WIP3,SIG_OFF);</text>
<text text-anchor="start" x="254.5" y="-63" font-family="Courier New" font-size="10.00" fill="blue"> &#160;&#160;&#160;SIGNAL(WIP2,SIG_OFF);</text>
<polygon fill="none" stroke="black" points="248.5,-54 248.5,-162 459.5,-162 459.5,-54 248.5,-54"/>
</g>
<!-- open_bin&#45;&gt;0 -->
<g id="edge3" class="edge">
<title>open_bin&#45;&gt;0</title>
<path fill="none" stroke="black" d="M295.78,-19.95C351.69,-22.19 439.81,-29.61 460.5,-54 491.55,-90.6 492.67,-126.37 460.5,-162 434.15,-191.18 320.07,-163.25 284.5,-180 280.3,-181.98 276.3,-184.65 272.6,-187.65"/>
<polygon fill="black" stroke="black" points="270.53,-184.72 265.54,-194.07 275.27,-189.87 270.53,-184.72"/>
<text text-anchor="start" x="487.5" y="-106.5" font-family="Courier New" font-weight="bold" font-size="10.00" fill="orange">WAIT(0,SIG_CLOSE)</text>
</g>
<!-- status -->
<g id="node4" class="node">
<title>status</title>
<polygon fill="none" stroke="black" points="294,-180.5 294,-252.5 815,-252.5 815,-180.5 294,-180.5"/>
<polygon fill="none" stroke="black" points="305,-228.5 305,-245.5 804,-245.5 804,-228.5 305,-228.5"/>
<text text-anchor="start" x="506" y="-235.5" font-family="Courier New" font-weight="bold" font-size="10.00">S16_DICEBUY_GRAB</text>
<polygon fill="none" stroke="black" points="305,-187.5 305,-226.5 804,-226.5 804,-187.5 305,-187.5"/>
<text text-anchor="start" x="308" y="-215.5" font-family="Courier New" font-size="10.00" fill="green">VIEW::IDV_DICE0000 @pos(left:20, top:72)</text>
<text text-anchor="start" x="308" y="-204.5" font-family="Courier New" font-size="10.00" fill="green">S16_DICEBUY_GRAB::M16_PAYGRAB(&#39;IDD_DICE&#39;,&#39;S16_DICEBUY_PAY&#39;,&#39;S16_DICEBUY_STAMP&#39;,&#39;&#39;)</text>
<text text-anchor="start" x="308" y="-193.5" font-family="Courier New" font-size="10.00" fill="green">{&#39;0&#39;:</text>
<polygon fill="none" stroke="black" points="302,-184.5 302,-248.5 807,-248.5 807,-184.5 302,-184.5"/>
</g>
</g>
</svg>
