<?xml version="1.0" encoding="UTF-8" standalone="no"?>
<!DOCTYPE svg PUBLIC "-//W3C//DTD SVG 1.1//EN"
 "http://www.w3.org/Graphics/SVG/1.1/DTD/svg11.dtd">
<!-- Generated by graphviz version 8.0.1 (20230327.1645)
 -->
<!-- Title: Automaton Pages: 1 -->
<svg width="877pt" height="528pt"
 viewBox="0.00 0.00 877.00 528.00" xmlns="http://www.w3.org/2000/svg" xmlns:xlink="http://www.w3.org/1999/xlink">
<g id="graph0" class="graph" transform="scale(1 1) rotate(0) translate(4 524)">
<title>Automaton</title>
<polygon fill="white" stroke="none" points="-4,4 -4,-524 873,-524 873,4 -4,4"/>
<!-- filename -->
<g id="node1" class="node">
<title>filename</title>
<polygon fill="none" stroke="black" points="0,-454.5 0,-504.5 227,-504.5 227,-454.5 0,-454.5"/>
<polygon fill="none" stroke="black" points="11,-480.5 11,-497.5 216,-497.5 216,-480.5 11,-480.5"/>
<text text-anchor="start" x="14" y="-487.5" font-family="Courier New" font-weight="bold" font-size="10.00">S16_POTTERYDROP6::M16_POTTERYDROP</text>
<polygon fill="none" stroke="black" points="11,-461.5 11,-478.5 216,-478.5 216,-461.5 11,-461.5"/>
<text text-anchor="start" x="68" y="-467.5" font-family="Courier New" font-size="10.00" fill="brown">start state = 0</text>
<polygon fill="none" stroke="black" points="8,-458.5 8,-500.5 219,-500.5 219,-458.5 8,-458.5"/>
</g>
<!-- 0 -->
<g id="node2" class="node">
<title>0</title>
<polyline fill="none" stroke="darkred" points="265,-469 280,-469"/>
<text text-anchor="start" x="268" y="-476.8" font-family="Courier New" font-weight="bold" font-size="14.00">0</text>
<path fill="none" stroke="darkred" d="M269,-466C269,-466 276,-466 276,-466 279.5,-466 283,-469.5 283,-473 283,-473 283,-486 283,-486 283,-489.5 279.5,-493 276,-493 276,-493 269,-493 269,-493 265.5,-493 262,-489.5 262,-486 262,-486 262,-473 262,-473 262,-469.5 265.5,-466 269,-466"/>
</g>
<!-- waitForDrop -->
<g id="node3" class="node">
<title>waitForDrop</title>
<polyline fill="none" stroke="darkred" stroke-width="3" points="223.5,-351.5 321.5,-351.5"/>
<text text-anchor="start" x="227" y="-359.8" font-family="Courier New" font-weight="bold" font-size="14.00">waitForDrop</text>
<path fill="none" stroke="darkred" stroke-width="3" d="M229.17,-346.5C229.17,-346.5 315.83,-346.5 315.83,-346.5 321.17,-346.5 326.5,-351.83 326.5,-357.17 326.5,-357.17 326.5,-367.83 326.5,-367.83 326.5,-373.17 321.17,-378.5 315.83,-378.5 315.83,-378.5 229.17,-378.5 229.17,-378.5 223.83,-378.5 218.5,-373.17 218.5,-367.83 218.5,-367.83 218.5,-357.17 218.5,-357.17 218.5,-351.83 223.83,-346.5 229.17,-346.5"/>
</g>
<!-- 0&#45;&gt;waitForDrop -->
<g id="edge1" class="edge">
<title>0&#45;&gt;waitForDrop</title>
<path fill="none" stroke="black" d="M272.5,-461.53C272.5,-443.95 272.5,-416.08 272.5,-394.54"/>
<polygon fill="black" stroke="black" points="276,-394.64 272.5,-384.64 269,-394.64 276,-394.64"/>
<text text-anchor="start" x="276.5" y="-410" font-family="Courier New" font-weight="bold" font-size="10.00" fill="blue">ACCEPT(WIP2,)</text>
</g>
<!-- containTalisman -->
<g id="node4" class="node">
<title>containTalisman</title>
<polyline fill="none" stroke="darkred" points="105.5,-212.5 235.5,-212.5"/>
<text text-anchor="start" x="108.5" y="-220.3" font-family="Courier New" font-weight="bold" font-size="14.00">containTalisman</text>
<path fill="none" stroke="darkred" d="M111.5,-209.5C111.5,-209.5 229.5,-209.5 229.5,-209.5 234,-209.5 238.5,-214 238.5,-218.5 238.5,-218.5 238.5,-227.5 238.5,-227.5 238.5,-232 234,-236.5 229.5,-236.5 229.5,-236.5 111.5,-236.5 111.5,-236.5 107,-236.5 102.5,-232 102.5,-227.5 102.5,-227.5 102.5,-218.5 102.5,-218.5 102.5,-214 107,-209.5 111.5,-209.5"/>
</g>
<!-- waitForDrop&#45;&gt;containTalisman -->
<g id="edge4" class="edge">
<title>waitForDrop&#45;&gt;containTalisman</title>
<path fill="none" stroke="black" d="M209.4,-342.29C200.64,-337.24 192.58,-330.91 186.5,-323 170.95,-302.75 167.96,-273.22 168.25,-251.68"/>
<polygon fill="black" stroke="black" points="171.78,-252.07 168.67,-241.94 164.78,-251.8 171.78,-252.07"/>
<polygon fill="none" stroke="black" points="189.5,-303 189.5,-320 352.5,-320 352.5,-303 189.5,-303"/>
<text text-anchor="start" x="243.5" y="-310" font-family="Courier New" font-weight="bold" font-size="10.00" fill="orange">DROP(0,0)</text>
<polygon fill="none" stroke="black" points="189.5,-262 189.5,-301 352.5,-301 352.5,-262 189.5,-262"/>
<text text-anchor="start" x="192.5" y="-290" font-family="Courier New" font-size="10.00" fill="blue"> &#160;&#160;&#160;ASSIGN(WPARM,1);</text>
<text text-anchor="start" x="192.5" y="-279" font-family="Courier New" font-size="10.00" fill="blue"> &#160;&#160;&#160;PLAYWAVE(SOUND_CLINK);</text>
<text text-anchor="start" x="192.5" y="-268" font-family="Courier New" font-size="10.00" fill="blue"> &#160;&#160;&#160;</text>
<polygon fill="none" stroke="black" points="186.5,-259 186.5,-323 355.5,-323 355.5,-259 186.5,-259"/>
</g>
<!-- showSparkle -->
<g id="node5" class="node">
<title>showSparkle</title>
<polyline fill="none" stroke="darkred" points="147,-98.5 244,-98.5"/>
<text text-anchor="start" x="150" y="-106.3" font-family="Courier New" font-weight="bold" font-size="14.00">showSparkle</text>
<path fill="none" stroke="darkred" d="M153,-95.5C153,-95.5 238,-95.5 238,-95.5 242.5,-95.5 247,-100 247,-104.5 247,-104.5 247,-113.5 247,-113.5 247,-118 242.5,-122.5 238,-122.5 238,-122.5 153,-122.5 153,-122.5 148.5,-122.5 144,-118 144,-113.5 144,-113.5 144,-104.5 144,-104.5 144,-100 148.5,-95.5 153,-95.5"/>
</g>
<!-- containTalisman&#45;&gt;showSparkle -->
<g id="edge2" class="edge">
<title>containTalisman&#45;&gt;showSparkle</title>
<path fill="none" stroke="black" d="M165.97,-205.23C162.49,-189.25 159.37,-164.77 166.5,-145 167.64,-141.84 169.21,-138.75 171.02,-135.82"/>
<polygon fill="black" stroke="black" points="174.39,-138.14 177.47,-128 168.74,-134.01 174.39,-138.14"/>
<polygon fill="none" stroke="black" points="169.5,-167 169.5,-184 344.5,-184 344.5,-167 169.5,-167"/>
<text text-anchor="start" x="220.5" y="-174" font-family="Courier New" font-weight="bold" font-size="10.00" fill="blue">Z_EPSILON(,)</text>
<polygon fill="none" stroke="black" points="169.5,-148 169.5,-165 344.5,-165 344.5,-148 169.5,-148"/>
<text text-anchor="start" x="172.5" y="-154" font-family="Courier New" font-size="10.00" fill="blue"> &#160;&#160;&#160;SIGNAL(WIP3,SIG_CHECK); </text>
<polygon fill="none" stroke="black" points="166.5,-145 166.5,-187 347.5,-187 347.5,-145 166.5,-145"/>
</g>
<!-- waitForReset -->
<g id="node6" class="node">
<title>waitForReset</title>
<polyline fill="none" stroke="darkred" points="229.5,-7.5 335.5,-7.5"/>
<text text-anchor="start" x="232.5" y="-15.3" font-family="Courier New" font-weight="bold" font-size="14.00">waitForReset</text>
<path fill="none" stroke="darkred" d="M235.5,-4.5C235.5,-4.5 329.5,-4.5 329.5,-4.5 334,-4.5 338.5,-9 338.5,-13.5 338.5,-13.5 338.5,-22.5 338.5,-22.5 338.5,-27 334,-31.5 329.5,-31.5 329.5,-31.5 235.5,-31.5 235.5,-31.5 231,-31.5 226.5,-27 226.5,-22.5 226.5,-22.5 226.5,-13.5 226.5,-13.5 226.5,-9 231,-4.5 235.5,-4.5"/>
</g>
<!-- showSparkle&#45;&gt;waitForReset -->
<g id="edge3" class="edge">
<title>showSparkle&#45;&gt;waitForReset</title>
<path fill="none" stroke="black" d="M202.59,-91.01C207.95,-79.6 216.15,-64.74 226.5,-54 230.63,-49.72 235.38,-45.73 240.34,-42.1"/>
<polygon fill="black" stroke="black" points="242.08,-44.47 248.39,-35.96 238.15,-38.68 242.08,-44.47"/>
<text text-anchor="start" x="230.5" y="-62" font-family="Courier New" font-weight="bold" font-size="10.00" fill="blue">ASHOW(0,IDS_SPARKLE)</text>
</g>
<!-- waitForReset&#45;&gt;waitForDrop -->
<g id="edge5" class="edge">
<title>waitForReset&#45;&gt;waitForDrop</title>
<path fill="none" stroke="black" d="M336.37,-35.91C343.97,-40.58 350.78,-46.51 355.5,-54 419.19,-155.18 419.84,-222.23 355.5,-323 352.48,-327.73 348.71,-331.89 344.46,-335.55"/>
<polygon fill="black" stroke="black" points="342.72,-333.22 336.75,-341.97 346.88,-338.85 342.72,-333.22"/>
<polygon fill="none" stroke="black" points="405.5,-167 405.5,-184 556.5,-184 556.5,-167 405.5,-167"/>
<text text-anchor="start" x="429.5" y="-174" font-family="Courier New" font-weight="bold" font-size="10.00" fill="orange">WAIT(0,SIG_RESET)</text>
<polygon fill="none" stroke="black" points="405.5,-148 405.5,-165 556.5,-165 556.5,-148 405.5,-148"/>
<text text-anchor="start" x="408.5" y="-154" font-family="Courier New" font-size="10.00" fill="blue">ASHOW();ASSIGN(WPARM,0);</text>
<polygon fill="none" stroke="black" points="402.5,-145 402.5,-187 559.5,-187 559.5,-145 402.5,-145"/>
</g>
<!-- status -->
<g id="node7" class="node">
<title>status</title>
<polygon fill="none" stroke="black" points="318,-439.5 318,-519.5 869,-519.5 869,-439.5 318,-439.5"/>
<polygon fill="none" stroke="black" points="329,-495.5 329,-512.5 858,-512.5 858,-495.5 329,-495.5"/>
<text text-anchor="start" x="545" y="-502.5" font-family="Courier New" font-weight="bold" font-size="10.00">S16_POTTERYDROP6</text>
<polygon fill="none" stroke="black" points="329,-465.5 329,-493.5 858,-493.5 858,-465.5 329,-465.5"/>
<text text-anchor="start" x="332" y="-482.5" font-family="Courier New" font-size="10.00" fill="green">S16_POTTERYDROP6::M16_POTTERYDROP(&#39;IDS_POTTERY6&#39;,&#39;IDD_POTTALIS6&#39;,&#39;S16_POTTERYCHECK&#39;,&#39;&#39;)</text>
<text text-anchor="start" x="332" y="-471.5" font-family="Courier New" font-size="10.00" fill="green">{&#39;waitForDrop&#39;: wObject:IDD_POTTALIS6 wAccept:IDD_POTTALIS6}</text>
<polygon fill="none" stroke="black" points="329,-446.5 329,-463.5 858,-463.5 858,-446.5 329,-446.5"/>
<text text-anchor="start" x="590" y="-452.5" font-family="Courier New" font-size="10.00" fill="blue">_</text>
<polygon fill="none" stroke="black" points="326,-443.5 326,-515.5 861,-515.5 861,-443.5 326,-443.5"/>
</g>
</g>
</svg>
