<?xml version="1.0" encoding="UTF-8" standalone="no"?>
<!DOCTYPE svg PUBLIC "-//W3C//DTD SVG 1.1//EN"
 "http://www.w3.org/Graphics/SVG/1.1/DTD/svg11.dtd">
<!-- Generated by graphviz version 8.0.1 (20230327.1645)
 -->
<!-- Title: Automaton Pages: 1 -->
<svg width="751pt" height="324pt"
 viewBox="0.00 0.00 751.00 324.00" xmlns="http://www.w3.org/2000/svg" xmlns:xlink="http://www.w3.org/1999/xlink">
<g id="graph0" class="graph" transform="scale(1 1) rotate(0) translate(4 320)">
<title>Automaton</title>
<polygon fill="white" stroke="none" points="-4,4 -4,-320 747,-320 747,4 -4,4"/>
<!-- filename -->
<g id="node1" class="node">
<title>filename</title>
<polygon fill="none" stroke="black" points="0,-250.5 0,-300.5 197,-300.5 197,-250.5 0,-250.5"/>
<polygon fill="none" stroke="black" points="11,-276.5 11,-293.5 186,-293.5 186,-276.5 11,-276.5"/>
<text text-anchor="start" x="14" y="-283.5" font-family="Courier New" font-weight="bold" font-size="10.00">S16_DICEDROP_R::M16_DICEDROP</text>
<polygon fill="none" stroke="black" points="11,-257.5 11,-274.5 186,-274.5 186,-257.5 11,-257.5"/>
<text text-anchor="start" x="53" y="-263.5" font-family="Courier New" font-size="10.00" fill="brown">start state = 0</text>
<polygon fill="none" stroke="black" points="8,-254.5 8,-296.5 189,-296.5 189,-254.5 8,-254.5"/>
</g>
<!-- 0 -->
<g id="node2" class="node">
<title>0</title>
<polyline fill="none" stroke="darkred" points="235,-265 250,-265"/>
<text text-anchor="start" x="238" y="-272.8" font-family="Courier New" font-weight="bold" font-size="14.00">0</text>
<path fill="none" stroke="darkred" d="M239,-262C239,-262 246,-262 246,-262 249.5,-262 253,-265.5 253,-269 253,-269 253,-282 253,-282 253,-285.5 249.5,-289 246,-289 246,-289 239,-289 239,-289 235.5,-289 232,-285.5 232,-282 232,-282 232,-269 232,-269 232,-265.5 235.5,-262 239,-262"/>
</g>
<!-- 2 -->
<g id="node3" class="node">
<title>2</title>
<polyline fill="none" stroke="darkred" stroke-width="3" points="234.5,-124.5 250.5,-124.5"/>
<text text-anchor="start" x="238" y="-132.8" font-family="Courier New" font-weight="bold" font-size="14.00">2</text>
<path fill="none" stroke="darkred" stroke-width="3" d="M238.17,-119.5C238.17,-119.5 246.83,-119.5 246.83,-119.5 251.17,-119.5 255.5,-123.83 255.5,-128.17 255.5,-128.17 255.5,-142.83 255.5,-142.83 255.5,-147.17 251.17,-151.5 246.83,-151.5 246.83,-151.5 238.17,-151.5 238.17,-151.5 233.83,-151.5 229.5,-147.17 229.5,-142.83 229.5,-142.83 229.5,-128.17 229.5,-128.17 229.5,-123.83 233.83,-119.5 238.17,-119.5"/>
</g>
<!-- 0&#45;&gt;2 -->
<g id="edge1" class="edge">
<title>0&#45;&gt;2</title>
<path fill="none" stroke="black" d="M231.04,-257.74C224.53,-249.55 215.65,-240.33 205.5,-235 157.75,-209.93 120.69,-257.86 85.5,-217 73.32,-202.86 73.98,-189.69 85.5,-175 100.06,-156.44 163.18,-145.66 204.82,-140.44"/>
<polygon fill="black" stroke="black" points="205.17,-143.8 214.68,-139.14 204.34,-136.85 205.17,-143.8"/>
<text text-anchor="start" x="89.5" y="-194.5" font-family="Courier New" font-weight="bold" font-size="10.00" fill="blue">O_ACCEPT(0,IDD_SHAKE)</text>
</g>
<!-- 2&#45;&gt;0 -->
<g id="edge2" class="edge">
<title>2&#45;&gt;0</title>
<path fill="none" stroke="black" d="M242.5,-156.7C242.5,-180.46 242.5,-220.04 242.5,-246.69"/>
<polygon fill="black" stroke="black" points="239,-246.58 242.5,-256.58 246,-246.58 239,-246.58"/>
<polygon fill="none" stroke="black" points="245.5,-197 245.5,-214 408.5,-214 408.5,-197 245.5,-197"/>
<text text-anchor="start" x="299.5" y="-204" font-family="Courier New" font-weight="bold" font-size="10.00" fill="orange">DRAG(0,0)</text>
<polygon fill="none" stroke="black" points="245.5,-178 245.5,-195 408.5,-195 408.5,-178 245.5,-178"/>
<text text-anchor="start" x="248.5" y="-184" font-family="Courier New" font-size="10.00" fill="blue">PLAYWAVE(SOUND_DICESHAKE);</text>
<polygon fill="none" stroke="black" points="242.5,-175 242.5,-217 411.5,-217 411.5,-175 242.5,-175"/>
</g>
<!-- 3 -->
<g id="node4" class="node">
<title>3</title>
<polyline fill="none" stroke="darkred" points="327,-7.5 342,-7.5"/>
<text text-anchor="start" x="330" y="-15.3" font-family="Courier New" font-weight="bold" font-size="14.00">3</text>
<path fill="none" stroke="darkred" d="M331,-4.5C331,-4.5 338,-4.5 338,-4.5 341.5,-4.5 345,-8 345,-11.5 345,-11.5 345,-24.5 345,-24.5 345,-28 341.5,-31.5 338,-31.5 338,-31.5 331,-31.5 331,-31.5 327.5,-31.5 324,-28 324,-24.5 324,-24.5 324,-11.5 324,-11.5 324,-8 327.5,-4.5 331,-4.5"/>
</g>
<!-- 2&#45;&gt;3 -->
<g id="edge3" class="edge">
<title>2&#45;&gt;3</title>
<path fill="none" stroke="black" d="M244.42,-114.24C247.03,-96.59 253.16,-71.19 267.5,-54 275.48,-44.43 286.76,-37.15 297.79,-31.77"/>
<polygon fill="black" stroke="black" points="299.02,-34.61 306.74,-27.35 296.18,-28.21 299.02,-34.61"/>
<polygon fill="none" stroke="black" points="270.5,-76 270.5,-93 409.5,-93 409.5,-76 270.5,-76"/>
<text text-anchor="start" x="312.5" y="-83" font-family="Courier New" font-weight="bold" font-size="10.00" fill="orange">DROP(0,0)</text>
<polygon fill="none" stroke="black" points="270.5,-57 270.5,-74 409.5,-74 409.5,-57 270.5,-57"/>
<text text-anchor="start" x="273.5" y="-63" font-family="Courier New" font-size="10.00" fill="blue">SIGNAL(WIP1,SIG_SHOW);</text>
<polygon fill="none" stroke="black" points="267.5,-54 267.5,-96 412.5,-96 412.5,-54 267.5,-54"/>
</g>
<!-- 3&#45;&gt;0 -->
<g id="edge4" class="edge">
<title>3&#45;&gt;0</title>
<path fill="none" stroke="black" d="M361.46,-23.4C379.26,-27.85 401.29,-36.68 412.5,-54 451.87,-114.81 460.19,-162.47 412.5,-217 392.72,-239.62 305.11,-221.06 278.5,-235 271.76,-238.53 265.65,-243.85 260.45,-249.45"/>
<polygon fill="black" stroke="black" points="257.28,-246.78 253.52,-256.68 262.64,-251.28 257.28,-246.78"/>
<polygon fill="none" stroke="black" points="447.5,-136.5 447.5,-153.5 586.5,-153.5 586.5,-136.5 447.5,-136.5"/>
<text text-anchor="start" x="483.5" y="-143.5" font-family="Courier New" font-weight="bold" font-size="10.00" fill="blue">ESTIME(,.5)</text>
<polygon fill="none" stroke="black" points="447.5,-117.5 447.5,-134.5 586.5,-134.5 586.5,-117.5 447.5,-117.5"/>
<text text-anchor="start" x="450.5" y="-123.5" font-family="Courier New" font-size="10.00" fill="blue">SIGNAL(WIP2,SIG_SHOW);</text>
<polygon fill="none" stroke="black" points="444.5,-114.5 444.5,-156.5 589.5,-156.5 589.5,-114.5 444.5,-114.5"/>
</g>
<!-- status -->
<g id="node5" class="node">
<title>status</title>
<polygon fill="none" stroke="black" points="288,-235.5 288,-315.5 743,-315.5 743,-235.5 288,-235.5"/>
<polygon fill="none" stroke="black" points="299,-291.5 299,-308.5 732,-308.5 732,-291.5 299,-291.5"/>
<text text-anchor="start" x="473" y="-298.5" font-family="Courier New" font-weight="bold" font-size="10.00">S16_DICEDROP_R</text>
<polygon fill="none" stroke="black" points="299,-261.5 299,-289.5 732,-289.5 732,-261.5 299,-261.5"/>
<text text-anchor="start" x="302" y="-278.5" font-family="Courier New" font-size="10.00" fill="green">S16_DICEDROP_R::M16_DICEDROP(&#39;S16_DICEROLL_R1&#39;,&#39;S16_DICEROLL_R2&#39;,&#39;&#39;,&#39;&#39;)</text>
<text text-anchor="start" x="302" y="-267.5" font-family="Courier New" font-size="10.00" fill="green">{&#39;2&#39;: wObject:IDD_SHAKE wAccept:IDD_SHAKE}</text>
<polygon fill="none" stroke="black" points="299,-242.5 299,-259.5 732,-259.5 732,-242.5 299,-242.5"/>
<text text-anchor="start" x="512" y="-248.5" font-family="Courier New" font-size="10.00" fill="blue">_</text>
<polygon fill="none" stroke="black" points="296,-239.5 296,-311.5 735,-311.5 735,-239.5 296,-239.5"/>
</g>
</g>
</svg>
