<?xml version="1.0" encoding="UTF-8" standalone="no"?>
<!DOCTYPE svg PUBLIC "-//W3C//DTD SVG 1.1//EN"
 "http://www.w3.org/Graphics/SVG/1.1/DTD/svg11.dtd">
<!-- Generated by graphviz version 8.0.1 (20230327.1645)
 -->
<!-- Title: Automaton Pages: 1 -->
<svg width="751pt" height="495pt"
 viewBox="0.00 0.00 751.00 495.00" xmlns="http://www.w3.org/2000/svg" xmlns:xlink="http://www.w3.org/1999/xlink">
<g id="graph0" class="graph" transform="scale(1 1) rotate(0) translate(4 491)">
<title>Automaton</title>
<polygon fill="white" stroke="none" points="-4,4 -4,-491 747,-491 747,4 -4,4"/>
<!-- filename -->
<g id="node1" class="node">
<title>filename</title>
<polygon fill="none" stroke="black" points="0,-425.5 0,-475.5 191,-475.5 191,-425.5 0,-425.5"/>
<polygon fill="none" stroke="black" points="11,-451.5 11,-468.5 180,-468.5 180,-451.5 11,-451.5"/>
<text text-anchor="start" x="14" y="-458.5" font-family="Courier New" font-weight="bold" font-size="10.00">S16_CROW_PAY::M16_PAYBUCKET</text>
<polygon fill="none" stroke="black" points="11,-432.5 11,-449.5 180,-449.5 180,-432.5 11,-432.5"/>
<text text-anchor="start" x="50" y="-438.5" font-family="Courier New" font-size="10.00" fill="brown">start state = 0</text>
<polygon fill="none" stroke="black" points="8,-429.5 8,-471.5 183,-471.5 183,-429.5 8,-429.5"/>
</g>
<!-- 0 -->
<g id="node2" class="node">
<title>0</title>
<polyline fill="none" stroke="darkred" points="229,-440 244,-440"/>
<text text-anchor="start" x="232" y="-447.8" font-family="Courier New" font-weight="bold" font-size="14.00">0</text>
<path fill="none" stroke="darkred" d="M233,-437C233,-437 240,-437 240,-437 243.5,-437 247,-440.5 247,-444 247,-444 247,-457 247,-457 247,-460.5 243.5,-464 240,-464 240,-464 233,-464 233,-464 229.5,-464 226,-460.5 226,-457 226,-457 226,-444 226,-444 226,-440.5 229.5,-437 233,-437"/>
</g>
<!-- accept_pay -->
<g id="node3" class="node">
<title>accept_pay</title>
<polyline fill="none" stroke="darkred" stroke-width="3" points="97.5,-237.5 187.5,-237.5"/>
<text text-anchor="start" x="101" y="-245.8" font-family="Courier New" font-weight="bold" font-size="14.00">accept_pay</text>
<path fill="none" stroke="darkred" stroke-width="3" d="M103.17,-232.5C103.17,-232.5 181.83,-232.5 181.83,-232.5 187.17,-232.5 192.5,-237.83 192.5,-243.17 192.5,-243.17 192.5,-253.83 192.5,-253.83 192.5,-259.17 187.17,-264.5 181.83,-264.5 181.83,-264.5 103.17,-264.5 103.17,-264.5 97.83,-264.5 92.5,-259.17 92.5,-253.83 92.5,-253.83 92.5,-243.17 92.5,-243.17 92.5,-237.83 97.83,-232.5 103.17,-232.5"/>
</g>
<!-- 0&#45;&gt;accept_pay -->
<g id="edge1" class="edge">
<title>0&#45;&gt;accept_pay</title>
<path fill="none" stroke="black" d="M223.47,-432.79C217.05,-425.78 208.71,-418.27 199.5,-414 164.64,-397.82 53.22,-424.55 27.5,-396 -4.63,-360.34 -0.54,-326.96 27.5,-288 38.3,-273 55.21,-263.76 72.77,-258.09"/>
<polygon fill="black" stroke="black" points="73.48,-261.25 82.15,-255.16 71.57,-254.51 73.48,-261.25"/>
<polygon fill="none" stroke="black" points="30.5,-376 30.5,-393 211.5,-393 211.5,-376 30.5,-376"/>
<text text-anchor="start" x="78.5" y="-383" font-family="Courier New" font-weight="bold" font-size="10.00" fill="orange">WAIT(0,SIG_ON)</text>
<polygon fill="none" stroke="black" points="30.5,-291 30.5,-374 211.5,-374 211.5,-291 30.5,-291"/>
<text text-anchor="start" x="33.5" y="-363" font-family="Courier New" font-size="10.00" fill="blue"> &#160;&#160;&#160;ASSIGN(WSPRITE,WIP1);</text>
<text text-anchor="start" x="33.5" y="-352" font-family="Courier New" font-size="10.00" fill="blue"> &#160;&#160;&#160;ASHOW(WSPRITE);</text>
<text text-anchor="start" x="33.5" y="-341" font-family="Courier New" font-size="10.00" fill="blue"> &#160;&#160;&#160;/* BPARM = what you payed</text>
<text text-anchor="start" x="33.5" y="-330" font-family="Courier New" font-size="10.00" fill="blue"> &#160;&#160;&#160;WPARM = Total owed </text>
<text text-anchor="start" x="33.5" y="-319" font-family="Courier New" font-size="10.00" fill="blue"> &#160;&#160;&#160;*/</text>
<text text-anchor="start" x="33.5" y="-308" font-family="Courier New" font-size="10.00" fill="blue"> &#160;&#160;&#160;ASSIGN(BPARM,0); </text>
<text text-anchor="start" x="33.5" y="-297" font-family="Courier New" font-size="10.00" fill="blue"> &#160;&#160;&#160;ASSIGN(WPARM,WIP2);</text>
<polygon fill="none" stroke="black" points="27.5,-288 27.5,-396 214.5,-396 214.5,-288 27.5,-288"/>
</g>
<!-- accept_pay&#45;&gt;0 -->
<g id="edge3" class="edge">
<title>accept_pay&#45;&gt;0</title>
<path fill="none" stroke="black" d="M195.23,-269.89C202.67,-274.81 209.48,-280.78 214.5,-288 229.17,-309.09 234.1,-381.51 235.72,-421.84"/>
<polygon fill="black" stroke="black" points="232.26,-421.89 236.11,-431.76 239.25,-421.64 232.26,-421.89"/>
<polygon fill="none" stroke="black" points="236.5,-354 236.5,-371 357.5,-371 357.5,-354 236.5,-354"/>
<text text-anchor="start" x="251.5" y="-361" font-family="Courier New" font-weight="bold" font-size="10.00" fill="orange">WAIT(0,SIG_OFF)</text>
<polygon fill="none" stroke="black" points="236.5,-313 236.5,-352 357.5,-352 357.5,-313 236.5,-313"/>
<text text-anchor="start" x="239.5" y="-341" font-family="Courier New" font-size="10.00" fill="blue"> &#160;&#160;&#160;CLEAR(WSPRITE);</text>
<text text-anchor="start" x="239.5" y="-330" font-family="Courier New" font-size="10.00" fill="blue"> &#160;&#160;&#160;SHOW();</text>
<text text-anchor="start" x="239.5" y="-319" font-family="Courier New" font-size="10.00" fill="blue"> &#160;&#160;&#160;</text>
<polygon fill="none" stroke="black" points="233.5,-310 233.5,-374 360.5,-374 360.5,-310 233.5,-310"/>
</g>
<!-- check_scoop -->
<g id="node4" class="node">
<title>check_scoop</title>
<polyline fill="none" stroke="darkred" points="198,-98.5 295,-98.5"/>
<text text-anchor="start" x="201" y="-106.3" font-family="Courier New" font-weight="bold" font-size="14.00">check_scoop</text>
<path fill="none" stroke="darkred" d="M204,-95.5C204,-95.5 289,-95.5 289,-95.5 293.5,-95.5 298,-100 298,-104.5 298,-104.5 298,-113.5 298,-113.5 298,-118 293.5,-122.5 289,-122.5 289,-122.5 204,-122.5 204,-122.5 199.5,-122.5 195,-118 195,-113.5 195,-113.5 195,-104.5 195,-104.5 195,-100 199.5,-95.5 204,-95.5"/>
</g>
<!-- accept_pay&#45;&gt;check_scoop -->
<g id="edge2" class="edge">
<title>accept_pay&#45;&gt;check_scoop</title>
<path fill="none" stroke="black" d="M83.02,-228C75.27,-223 68.35,-216.76 63.5,-209 48.42,-184.88 45.37,-166.92 63.5,-145 77.91,-127.58 131.15,-118.74 176.52,-114.32"/>
<polygon fill="black" stroke="black" points="176.61,-117.73 186.25,-113.34 175.97,-110.76 176.61,-117.73"/>
<polygon fill="none" stroke="black" points="66.5,-189 66.5,-206 235.5,-206 235.5,-189 66.5,-189"/>
<text text-anchor="start" x="99.5" y="-196" font-family="Courier New" font-weight="bold" font-size="10.00" fill="orange">DRAG(IDD_SCOOPF,)</text>
<polygon fill="none" stroke="black" points="66.5,-148 66.5,-187 235.5,-187 235.5,-148 66.5,-148"/>
<text text-anchor="start" x="69.5" y="-176" font-family="Courier New" font-size="10.00" fill="blue"> &#160;&#160;&#160;HANDOFF(0,IDD_SCOOPE);</text>
<text text-anchor="start" x="69.5" y="-165" font-family="Courier New" font-size="10.00" fill="blue"> &#160;&#160;&#160;PLAYWAVE(0,SOUND_SPIT);</text>
<text text-anchor="start" x="69.5" y="-154" font-family="Courier New" font-size="10.00" fill="blue"> &#160;&#160;&#160;ADDI(BPARM,1); </text>
<polygon fill="none" stroke="black" points="63.5,-145 63.5,-209 238.5,-209 238.5,-145 63.5,-145"/>
</g>
<!-- check_scoop&#45;&gt;accept_pay -->
<g id="edge5" class="edge">
<title>check_scoop&#45;&gt;accept_pay</title>
<path fill="none" stroke="black" d="M250.1,-126.9C253.63,-148.22 256.2,-184.98 238.5,-209 231.61,-218.35 222.07,-225.44 211.66,-230.8"/>
<polygon fill="black" stroke="black" points="210.55,-227.92 202.91,-235.26 213.46,-234.29 210.55,-227.92"/>
<text text-anchor="start" x="256.5" y="-175.5" font-family="Courier New" font-weight="bold" font-size="10.00" fill="blue">Z_EPSILON(,)</text>
</g>
<!-- paid_in_full -->
<g id="node5" class="node">
<title>paid_in_full</title>
<polyline fill="none" stroke="darkred" points="259.5,-7.5 365.5,-7.5"/>
<text text-anchor="start" x="262.5" y="-15.3" font-family="Courier New" font-weight="bold" font-size="14.00">paid_in_full</text>
<path fill="none" stroke="darkred" d="M265.5,-4.5C265.5,-4.5 359.5,-4.5 359.5,-4.5 364,-4.5 368.5,-9 368.5,-13.5 368.5,-13.5 368.5,-22.5 368.5,-22.5 368.5,-27 364,-31.5 359.5,-31.5 359.5,-31.5 265.5,-31.5 265.5,-31.5 261,-31.5 256.5,-27 256.5,-22.5 256.5,-22.5 256.5,-13.5 256.5,-13.5 256.5,-9 261,-4.5 265.5,-4.5"/>
</g>
<!-- check_scoop&#45;&gt;paid_in_full -->
<g id="edge4" class="edge">
<title>check_scoop&#45;&gt;paid_in_full</title>
<path fill="none" stroke="black" d="M242.65,-91.2C241,-79.88 240.76,-65.05 247.5,-54 250.19,-49.58 253.66,-45.69 257.58,-42.26"/>
<polygon fill="black" stroke="black" points="259.23,-44.64 265.16,-35.87 255.05,-39.03 259.23,-44.64"/>
<text text-anchor="start" x="251.5" y="-62" font-family="Courier New" font-weight="bold" font-size="10.00" fill="blue">EQUAL(BPARM,WPARM)</text>
</g>
<!-- paid_in_full&#45;&gt;0 -->
<g id="edge6" class="edge">
<title>paid_in_full&#45;&gt;0</title>
<path fill="none" stroke="black" d="M347.97,-35.94C354.61,-40.81 360.66,-46.8 364.5,-54 435.93,-188.17 460.99,-278.55 364.5,-396 338.33,-427.86 310.07,-394.96 273.5,-414 267.83,-416.95 262.44,-421.03 257.61,-425.39"/>
<polygon fill="black" stroke="black" points="255.73,-422.3 251.06,-431.81 260.64,-427.29 255.73,-422.3"/>
<polygon fill="none" stroke="black" points="427.5,-183.5 427.5,-200.5 602.5,-200.5 602.5,-183.5 427.5,-183.5"/>
<text text-anchor="start" x="478.5" y="-190.5" font-family="Courier New" font-weight="bold" font-size="10.00" fill="blue">Z_EPSILON(,)</text>
<polygon fill="none" stroke="black" points="427.5,-153.5 427.5,-181.5 602.5,-181.5 602.5,-153.5 427.5,-153.5"/>
<text text-anchor="start" x="430.5" y="-170.5" font-family="Courier New" font-size="10.00" fill="blue"> &#160;&#160;&#160;PLAYWAVE(0,SOUND_LEVER);</text>
<text text-anchor="start" x="430.5" y="-159.5" font-family="Courier New" font-size="10.00" fill="blue"> &#160;&#160;&#160;ASHOW();</text>
<polygon fill="none" stroke="black" points="424.5,-150.5 424.5,-203.5 605.5,-203.5 605.5,-150.5 424.5,-150.5"/>
</g>
<!-- status -->
<g id="node6" class="node">
<title>status</title>
<polygon fill="none" stroke="black" points="282,-414.5 282,-486.5 743,-486.5 743,-414.5 282,-414.5"/>
<polygon fill="none" stroke="black" points="293,-462.5 293,-479.5 732,-479.5 732,-462.5 293,-462.5"/>
<text text-anchor="start" x="476" y="-469.5" font-family="Courier New" font-weight="bold" font-size="10.00">S16_CROW_PAY</text>
<polygon fill="none" stroke="black" points="293,-421.5 293,-460.5 732,-460.5 732,-421.5 293,-421.5"/>
<text text-anchor="start" x="296" y="-449.5" font-family="Courier New" font-size="10.00" fill="green">VIEW::IDV_CROW0000 @pos(left:324, top:185)</text>
<text text-anchor="start" x="296" y="-438.5" font-family="Courier New" font-size="10.00" fill="green">S16_CROW_PAY::M16_PAYBUCKET(&#39;IDS_NYBUCKET_GLOW&#39;,&#39;9&#39;,&#39;S16_CROW_STAMP&#39;,&#39;&#39;)</text>
<text text-anchor="start" x="296" y="-427.5" font-family="Courier New" font-size="10.00" fill="green">{&#39;accept_pay&#39;: wParm:9 wSprite:NYBUCKET_GLOW</text>
<polygon fill="none" stroke="black" points="290,-418.5 290,-482.5 735,-482.5 735,-418.5 290,-418.5"/>
</g>
</g>
</svg>
