<?xml version="1.0" encoding="UTF-8" standalone="no"?>
<!DOCTYPE svg PUBLIC "-//W3C//DTD SVG 1.1//EN"
 "http://www.w3.org/Graphics/SVG/1.1/DTD/svg11.dtd">
<!-- Generated by graphviz version 8.0.1 (20230327.1645)
 -->
<!-- Title: Automaton Pages: 1 -->
<svg width="559pt" height="354pt"
 viewBox="0.00 0.00 559.00 354.00" xmlns="http://www.w3.org/2000/svg" xmlns:xlink="http://www.w3.org/1999/xlink">
<g id="graph0" class="graph" transform="scale(1 1) rotate(0) translate(4 350)">
<title>Automaton</title>
<polygon fill="white" stroke="none" points="-4,4 -4,-350 555,-350 555,4 -4,4"/>
<!-- filename -->
<g id="node1" class="node">
<title>filename</title>
<polygon fill="none" stroke="black" points="0,-284.5 0,-334.5 191,-334.5 191,-284.5 0,-284.5"/>
<polygon fill="none" stroke="black" points="11,-310.5 11,-327.5 180,-327.5 180,-310.5 11,-310.5"/>
<text text-anchor="start" x="14" y="-317.5" font-family="Courier New" font-weight="bold" font-size="10.00">S17_eLOCKBURN::M17_LOCKBURN</text>
<polygon fill="none" stroke="black" points="11,-291.5 11,-308.5 180,-308.5 180,-291.5 11,-291.5"/>
<text text-anchor="start" x="50" y="-297.5" font-family="Courier New" font-size="10.00" fill="brown">start state = 0</text>
<polygon fill="none" stroke="black" points="8,-288.5 8,-330.5 183,-330.5 183,-288.5 8,-288.5"/>
</g>
<!-- 0 -->
<g id="node2" class="node">
<title>0</title>
<polyline fill="none" stroke="darkred" stroke-width="3" points="228.5,-298.5 244.5,-298.5"/>
<text text-anchor="start" x="232" y="-306.8" font-family="Courier New" font-weight="bold" font-size="14.00">0</text>
<path fill="none" stroke="darkred" stroke-width="3" d="M232.17,-293.5C232.17,-293.5 240.83,-293.5 240.83,-293.5 245.17,-293.5 249.5,-297.83 249.5,-302.17 249.5,-302.17 249.5,-316.83 249.5,-316.83 249.5,-321.17 245.17,-325.5 240.83,-325.5 240.83,-325.5 232.17,-325.5 232.17,-325.5 227.83,-325.5 223.5,-321.17 223.5,-316.83 223.5,-316.83 223.5,-302.17 223.5,-302.17 223.5,-297.83 227.83,-293.5 232.17,-293.5"/>
</g>
<!-- 1 -->
<g id="node3" class="node">
<title>1</title>
<polyline fill="none" stroke="darkred" points="149,-189.5 164,-189.5"/>
<text text-anchor="start" x="152" y="-197.3" font-family="Courier New" font-weight="bold" font-size="14.00">1</text>
<path fill="none" stroke="darkred" d="M153,-186.5C153,-186.5 160,-186.5 160,-186.5 163.5,-186.5 167,-190 167,-193.5 167,-193.5 167,-206.5 167,-206.5 167,-210 163.5,-213.5 160,-213.5 160,-213.5 153,-213.5 153,-213.5 149.5,-213.5 146,-210 146,-206.5 146,-206.5 146,-193.5 146,-193.5 146,-190 149.5,-186.5 153,-186.5"/>
</g>
<!-- 0&#45;&gt;1 -->
<g id="edge1" class="edge">
<title>0&#45;&gt;1</title>
<path fill="none" stroke="black" d="M215.23,-288.16C200.36,-273.87 182.9,-256.97 181.5,-255 175.66,-246.76 170.64,-236.94 166.66,-227.95"/>
<polygon fill="black" stroke="black" points="169.55,-226.8 162.48,-218.91 163.09,-229.49 169.55,-226.8"/>
<text text-anchor="start" x="185.5" y="-244" font-family="Courier New" font-weight="bold" font-size="10.00" fill="orange">WAIT(0,SIG_BURN)</text>
</g>
<!-- 2 -->
<g id="node4" class="node">
<title>2</title>
<polyline fill="none" stroke="darkred" points="125,-98.5 140,-98.5"/>
<text text-anchor="start" x="128" y="-106.3" font-family="Courier New" font-weight="bold" font-size="14.00">2</text>
<path fill="none" stroke="darkred" d="M129,-95.5C129,-95.5 136,-95.5 136,-95.5 139.5,-95.5 143,-99 143,-102.5 143,-102.5 143,-115.5 143,-115.5 143,-119 139.5,-122.5 136,-122.5 136,-122.5 129,-122.5 129,-122.5 125.5,-122.5 122,-119 122,-115.5 122,-115.5 122,-102.5 122,-102.5 122,-99 125.5,-95.5 129,-95.5"/>
</g>
<!-- 1&#45;&gt;2 -->
<g id="edge2" class="edge">
<title>1&#45;&gt;2</title>
<path fill="none" stroke="black" d="M151.99,-182.26C148.59,-169.66 143.86,-152.12 139.91,-137.47"/>
<polygon fill="black" stroke="black" points="143.06,-136.71 137.08,-127.97 136.3,-138.53 143.06,-136.71"/>
<text text-anchor="start" x="151.5" y="-153" font-family="Courier New" font-weight="bold" font-size="10.00" fill="blue">SHOW(0,IDS_MINEBLOW)</text>
</g>
<!-- 3 -->
<g id="node5" class="node">
<title>3</title>
<polyline fill="none" stroke="darkred" points="206,-7.5 221,-7.5"/>
<text text-anchor="start" x="209" y="-15.3" font-family="Courier New" font-weight="bold" font-size="14.00">3</text>
<path fill="none" stroke="darkred" d="M210,-4.5C210,-4.5 217,-4.5 217,-4.5 220.5,-4.5 224,-8 224,-11.5 224,-11.5 224,-24.5 224,-24.5 224,-28 220.5,-31.5 217,-31.5 217,-31.5 210,-31.5 210,-31.5 206.5,-31.5 203,-28 203,-24.5 203,-24.5 203,-11.5 203,-11.5 203,-8 206.5,-4.5 210,-4.5"/>
</g>
<!-- 2&#45;&gt;3 -->
<g id="edge3" class="edge">
<title>2&#45;&gt;3</title>
<path fill="none" stroke="black" d="M125.67,-91.03C122.27,-79.63 120.25,-64.78 127.5,-54 138.43,-37.75 158.35,-29.04 176.27,-24.38"/>
<polygon fill="black" stroke="black" points="176.8,-27.62 185.79,-22.02 175.26,-20.79 176.8,-27.62"/>
<text text-anchor="start" x="131.5" y="-62" font-family="Courier New" font-weight="bold" font-size="10.00" fill="blue">PLAYWAVE(0,SOUND_EXPLODE)</text>
</g>
<!-- 3&#45;&gt;0 -->
<g id="edge4" class="edge">
<title>3&#45;&gt;0</title>
<path fill="none" stroke="black" d="M240.23,-24.3C256.64,-29.09 276.39,-37.94 286.5,-54 334.09,-129.6 319.29,-171.9 286.5,-255 285.17,-258.36 275.15,-269.3 264.43,-280.42"/>
<polygon fill="black" stroke="black" points="262.46,-277.45 257.99,-287.05 267.47,-282.33 262.46,-277.45"/>
<text text-anchor="start" x="320.5" y="-153" font-family="Courier New" font-weight="bold" font-size="10.00" fill="blue">VIDEO(0,IDS_EXPLODE1)</text>
</g>
<!-- status -->
<g id="node6" class="node">
<title>status</title>
<polygon fill="none" stroke="black" points="282,-273.5 282,-345.5 551,-345.5 551,-273.5 282,-273.5"/>
<polygon fill="none" stroke="black" points="293,-321.5 293,-338.5 540,-338.5 540,-321.5 293,-321.5"/>
<text text-anchor="start" x="377" y="-328.5" font-family="Courier New" font-weight="bold" font-size="10.00">S17_eLOCKBURN</text>
<polygon fill="none" stroke="black" points="293,-280.5 293,-319.5 540,-319.5 540,-280.5 293,-280.5"/>
<text text-anchor="start" x="296" y="-308.5" font-family="Courier New" font-size="10.00" fill="green">VIEW::IDV_eMINEPAN</text>
<text text-anchor="start" x="296" y="-297.5" font-family="Courier New" font-size="10.00" fill="green">S17_eLOCKBURN::M17_LOCKBURN(&#39;&#39;,&#39;&#39;,&#39;&#39;,&#39;&#39;)</text>
<text text-anchor="start" x="296" y="-286.5" font-family="Courier New" font-size="10.00" fill="green">{&#39;0&#39;: wSprite:MINEBLOW</text>
<polygon fill="none" stroke="black" points="290,-277.5 290,-341.5 543,-341.5 543,-277.5 290,-277.5"/>
</g>
</g>
</svg>
