<?xml version="1.0" encoding="UTF-8" standalone="no"?>
<!DOCTYPE svg PUBLIC "-//W3C//DTD SVG 1.1//EN"
 "http://www.w3.org/Graphics/SVG/1.1/DTD/svg11.dtd">
<!-- Generated by graphviz version 8.0.1 (20230327.1645)
 -->
<!-- Title: Automaton Pages: 1 -->
<svg width="822pt" height="536pt"
 viewBox="0.00 0.00 821.50 536.00" xmlns="http://www.w3.org/2000/svg" xmlns:xlink="http://www.w3.org/1999/xlink">
<g id="graph0" class="graph" transform="scale(1 1) rotate(0) translate(4 532)">
<title>Automaton</title>
<polygon fill="white" stroke="none" points="-4,4 -4,-532 817.5,-532 817.5,4 -4,4"/>
<!-- filename -->
<g id="node1" class="node">
<title>filename</title>
<polygon fill="none" stroke="black" points="0,-466.5 0,-516.5 179,-516.5 179,-466.5 0,-466.5"/>
<polygon fill="none" stroke="black" points="11,-492.5 11,-509.5 168,-509.5 168,-492.5 11,-492.5"/>
<text text-anchor="start" x="14" y="-499.5" font-family="Courier New" font-weight="bold" font-size="10.00">S17_eDOORWAY::M17_DOORWAY</text>
<polygon fill="none" stroke="black" points="11,-473.5 11,-490.5 168,-490.5 168,-473.5 11,-473.5"/>
<text text-anchor="start" x="44" y="-479.5" font-family="Courier New" font-size="10.00" fill="brown">start state = 0</text>
<polygon fill="none" stroke="black" points="8,-470.5 8,-512.5 171,-512.5 171,-470.5 8,-470.5"/>
</g>
<!-- 0 -->
<g id="node2" class="node">
<title>0</title>
<polyline fill="none" stroke="darkred" stroke-width="3" points="216.5,-480.5 232.5,-480.5"/>
<text text-anchor="start" x="220" y="-488.8" font-family="Courier New" font-weight="bold" font-size="14.00">0</text>
<path fill="none" stroke="darkred" stroke-width="3" d="M220.17,-475.5C220.17,-475.5 228.83,-475.5 228.83,-475.5 233.17,-475.5 237.5,-479.83 237.5,-484.17 237.5,-484.17 237.5,-498.83 237.5,-498.83 237.5,-503.17 233.17,-507.5 228.83,-507.5 228.83,-507.5 220.17,-507.5 220.17,-507.5 215.83,-507.5 211.5,-503.17 211.5,-498.83 211.5,-498.83 211.5,-484.17 211.5,-484.17 211.5,-479.83 215.83,-475.5 220.17,-475.5"/>
</g>
<!-- 50 -->
<g id="node3" class="node">
<title>50</title>
<polyline fill="none" stroke="darkred" points="110,-371.5 133,-371.5"/>
<text text-anchor="start" x="113" y="-379.3" font-family="Courier New" font-weight="bold" font-size="14.00">50</text>
<path fill="none" stroke="darkred" d="M116,-368.5C116,-368.5 127,-368.5 127,-368.5 131.5,-368.5 136,-373 136,-377.5 136,-377.5 136,-386.5 136,-386.5 136,-391 131.5,-395.5 127,-395.5 127,-395.5 116,-395.5 116,-395.5 111.5,-395.5 107,-391 107,-386.5 107,-386.5 107,-377.5 107,-377.5 107,-373 111.5,-368.5 116,-368.5"/>
</g>
<!-- 0&#45;&gt;50 -->
<g id="edge1" class="edge">
<title>0&#45;&gt;50</title>
<path fill="none" stroke="black" d="M207.8,-470.33C201.97,-464.51 194.99,-458.74 187.5,-455 142.78,-432.69 108.89,-475.06 76.5,-437 67.72,-426.68 75.02,-415.15 86.11,-405.41"/>
<polygon fill="black" stroke="black" points="87.98,-407.6 93.68,-398.67 83.65,-402.1 87.98,-407.6"/>
<text text-anchor="start" x="80.5" y="-426" font-family="Courier New" font-weight="bold" font-size="10.00" fill="orange">CLICK(0,0)</text>
</g>
<!-- 1 -->
<g id="node4" class="node">
<title>1</title>
<polyline fill="none" stroke="darkred" points="510,-371.5 525,-371.5"/>
<text text-anchor="start" x="513" y="-379.3" font-family="Courier New" font-weight="bold" font-size="14.00">1</text>
<path fill="none" stroke="darkred" d="M514,-368.5C514,-368.5 521,-368.5 521,-368.5 524.5,-368.5 528,-372 528,-375.5 528,-375.5 528,-388.5 528,-388.5 528,-392 524.5,-395.5 521,-395.5 521,-395.5 514,-395.5 514,-395.5 510.5,-395.5 507,-392 507,-388.5 507,-388.5 507,-375.5 507,-375.5 507,-372 510.5,-368.5 514,-368.5"/>
</g>
<!-- 0&#45;&gt;1 -->
<g id="edge2" class="edge">
<title>0&#45;&gt;1</title>
<path fill="none" stroke="black" d="M241.66,-470.08C247.19,-464.53 253.67,-458.96 260.5,-455 331.63,-413.73 427.66,-395.08 479.87,-387.52"/>
<polygon fill="black" stroke="black" points="480.2,-390.87 489.63,-386.03 479.25,-383.93 480.2,-390.87"/>
<text text-anchor="start" x="344.5" y="-426" font-family="Courier New" font-weight="bold" font-size="10.00" fill="orange">WAIT(0,SIG_CLOSE)</text>
</g>
<!-- 50&#45;&gt;0 -->
<g id="edge7" class="edge">
<title>50&#45;&gt;0</title>
<path fill="none" stroke="black" d="M135.5,-399.91C144.64,-410.75 156.97,-424.98 168.5,-437 176.55,-445.4 179.08,-446.97 187.5,-455 190.16,-457.53 192.92,-460.17 195.68,-462.82"/>
<polygon fill="black" stroke="black" points="192.75,-464.81 202.39,-469.2 197.59,-459.76 192.75,-464.81"/>
<text text-anchor="start" x="172.5" y="-426" font-family="Courier New" font-weight="bold" font-size="10.00" fill="blue">LOADVIEW(WIP1,)</text>
</g>
<!-- 2 -->
<g id="node5" class="node">
<title>2</title>
<polyline fill="none" stroke="darkred" points="435,-280.5 450,-280.5"/>
<text text-anchor="start" x="438" y="-288.3" font-family="Courier New" font-weight="bold" font-size="14.00">2</text>
<path fill="none" stroke="darkred" d="M439,-277.5C439,-277.5 446,-277.5 446,-277.5 449.5,-277.5 453,-281 453,-284.5 453,-284.5 453,-297.5 453,-297.5 453,-301 449.5,-304.5 446,-304.5 446,-304.5 439,-304.5 439,-304.5 435.5,-304.5 432,-301 432,-297.5 432,-297.5 432,-284.5 432,-284.5 432,-281 435.5,-277.5 439,-277.5"/>
</g>
<!-- 1&#45;&gt;2 -->
<g id="edge3" class="edge">
<title>1&#45;&gt;2</title>
<path fill="none" stroke="black" d="M490.78,-373.22C476.93,-367.81 460.97,-359.16 451.5,-346 445.97,-338.32 443.38,-328.45 442.28,-319.26"/>
<polygon fill="black" stroke="black" points="445.73,-319.31 441.58,-309.56 438.74,-319.77 445.73,-319.31"/>
<text text-anchor="start" x="455.5" y="-335" font-family="Courier New" font-weight="bold" font-size="10.00" fill="blue">SIGNAL(WIP2,SIG_ON)</text>
</g>
<!-- 3 -->
<g id="node6" class="node">
<title>3</title>
<polyline fill="none" stroke="darkred" points="291,-189.5 306,-189.5"/>
<text text-anchor="start" x="294" y="-197.3" font-family="Courier New" font-weight="bold" font-size="14.00">3</text>
<path fill="none" stroke="darkred" d="M295,-186.5C295,-186.5 302,-186.5 302,-186.5 305.5,-186.5 309,-190 309,-193.5 309,-193.5 309,-206.5 309,-206.5 309,-210 305.5,-213.5 302,-213.5 302,-213.5 295,-213.5 295,-213.5 291.5,-213.5 288,-210 288,-206.5 288,-206.5 288,-193.5 288,-193.5 288,-190 291.5,-186.5 295,-186.5"/>
</g>
<!-- 2&#45;&gt;3 -->
<g id="edge4" class="edge">
<title>2&#45;&gt;3</title>
<path fill="none" stroke="black" d="M415.95,-286.62C392.31,-282.49 357.81,-273.6 333.5,-255 324.05,-247.77 316.41,-237.21 310.7,-227.34"/>
<polygon fill="black" stroke="black" points="313.44,-226.03 305.65,-218.85 307.26,-229.32 313.44,-226.03"/>
<text text-anchor="start" x="337.5" y="-244" font-family="Courier New" font-weight="bold" font-size="10.00" fill="orange">WAIT(0,SIG_OPEN)</text>
</g>
<!-- 70 -->
<g id="node7" class="node">
<title>70</title>
<polyline fill="none" stroke="darkred" points="431,-189.5 454,-189.5"/>
<text text-anchor="start" x="434" y="-197.3" font-family="Courier New" font-weight="bold" font-size="14.00">70</text>
<path fill="none" stroke="darkred" d="M437,-186.5C437,-186.5 448,-186.5 448,-186.5 452.5,-186.5 457,-191 457,-195.5 457,-195.5 457,-204.5 457,-204.5 457,-209 452.5,-213.5 448,-213.5 448,-213.5 437,-213.5 437,-213.5 432.5,-213.5 428,-209 428,-204.5 428,-204.5 428,-195.5 428,-195.5 428,-191 432.5,-186.5 437,-186.5"/>
</g>
<!-- 2&#45;&gt;70 -->
<g id="edge5" class="edge">
<title>2&#45;&gt;70</title>
<path fill="none" stroke="black" d="M442.5,-273.26C442.5,-260.78 442.5,-243.46 442.5,-228.9"/>
<polygon fill="black" stroke="black" points="446,-228.97 442.5,-218.97 439,-228.97 446,-228.97"/>
<text text-anchor="start" x="446.5" y="-244" font-family="Courier New" font-weight="bold" font-size="10.00" fill="orange">WAIT(0,SIG_ENTER_1)</text>
</g>
<!-- 3&#45;&gt;0 -->
<g id="edge6" class="edge">
<title>3&#45;&gt;0</title>
<path fill="none" stroke="black" d="M299.32,-217.83C300.64,-257.68 300.3,-360.24 267.5,-437 263.76,-445.74 258.18,-454.23 252.26,-461.78"/>
<polygon fill="black" stroke="black" points="248.99,-459.24 245.26,-469.16 254.36,-463.73 248.99,-459.24"/>
<text text-anchor="start" x="299.5" y="-335" font-family="Courier New" font-weight="bold" font-size="10.00" fill="blue">SIGNAL(WIP2,SIG_OFF)</text>
</g>
<!-- 71 -->
<g id="node8" class="node">
<title>71</title>
<polyline fill="none" stroke="darkred" points="577,-98.5 600,-98.5"/>
<text text-anchor="start" x="580" y="-106.3" font-family="Courier New" font-weight="bold" font-size="14.00">71</text>
<path fill="none" stroke="darkred" d="M583,-95.5C583,-95.5 594,-95.5 594,-95.5 598.5,-95.5 603,-100 603,-104.5 603,-104.5 603,-113.5 603,-113.5 603,-118 598.5,-122.5 594,-122.5 594,-122.5 583,-122.5 583,-122.5 578.5,-122.5 574,-118 574,-113.5 574,-113.5 574,-104.5 574,-104.5 574,-100 578.5,-95.5 583,-95.5"/>
</g>
<!-- 70&#45;&gt;71 -->
<g id="edge8" class="edge">
<title>70&#45;&gt;71</title>
<path fill="none" stroke="black" d="M438.62,-182.01C436.99,-170.31 437.1,-155.11 445.5,-145 458.84,-128.94 513.39,-119.12 551.12,-114.12"/>
<polygon fill="black" stroke="black" points="551.27,-117.51 560.75,-112.78 550.39,-110.56 551.27,-117.51"/>
<text text-anchor="start" x="449.5" y="-153" font-family="Courier New" font-weight="bold" font-size="10.00" fill="blue">SIGNAL(WIP2,SIG_OFF)</text>
</g>
<!-- 71&#45;&gt;1 -->
<g id="edge10" class="edge">
<title>71&#45;&gt;1</title>
<path fill="none" stroke="black" d="M588.39,-126.86C587.94,-177.74 585.68,-327.34 574.5,-346 569.61,-354.16 562.01,-360.69 553.94,-365.78"/>
<polygon fill="black" stroke="black" points="552.4,-363.19 545.38,-371.12 555.82,-369.3 552.4,-363.19"/>
<text text-anchor="start" x="590.5" y="-244" font-family="Courier New" font-weight="bold" font-size="10.00" fill="orange">WAIT(0,SIG_CLOSE)</text>
</g>
<!-- 72 -->
<g id="node9" class="node">
<title>72</title>
<polyline fill="none" stroke="darkred" points="640,-7.5 663,-7.5"/>
<text text-anchor="start" x="643" y="-15.3" font-family="Courier New" font-weight="bold" font-size="14.00">72</text>
<path fill="none" stroke="darkred" d="M646,-4.5C646,-4.5 657,-4.5 657,-4.5 661.5,-4.5 666,-9 666,-13.5 666,-13.5 666,-22.5 666,-22.5 666,-27 661.5,-31.5 657,-31.5 657,-31.5 646,-31.5 646,-31.5 641.5,-31.5 637,-27 637,-22.5 637,-22.5 637,-13.5 637,-13.5 637,-9 641.5,-4.5 646,-4.5"/>
</g>
<!-- 71&#45;&gt;72 -->
<g id="edge9" class="edge">
<title>71&#45;&gt;72</title>
<path fill="none" stroke="black" d="M600.35,-91.26C609.62,-78.17 622.67,-59.73 633.26,-44.76"/>
<polygon fill="black" stroke="black" points="636.57,-47.15 639.49,-36.97 630.85,-43.11 636.57,-47.15"/>
<text text-anchor="start" x="629.5" y="-62" font-family="Courier New" font-weight="bold" font-size="10.00" fill="orange">CLICK(0,0)</text>
</g>
<!-- 72&#45;&gt;1 -->
<g id="edge11" class="edge">
<title>72&#45;&gt;1</title>
<path fill="none" stroke="black" d="M678.06,-34.24C685.57,-39.65 693.14,-46.32 698.5,-54 712.83,-74.53 714.5,-82.97 714.5,-108 714.5,-292 714.5,-292 714.5,-292 714.5,-361.14 612.49,-376.86 555.28,-380.24"/>
<polygon fill="black" stroke="black" points="555.3,-376.78 545.48,-380.76 555.64,-383.77 555.3,-376.78"/>
<text text-anchor="start" x="718.5" y="-198.5" font-family="Courier New" font-weight="bold" font-size="10.00" fill="blue">LOADVIEW(WIP1,)</text>
</g>
<!-- status -->
<g id="node10" class="node">
<title>status</title>
<polygon fill="none" stroke="black" points="270,-455.5 270,-527.5 671,-527.5 671,-455.5 270,-455.5"/>
<polygon fill="none" stroke="black" points="281,-503.5 281,-520.5 660,-520.5 660,-503.5 281,-503.5"/>
<text text-anchor="start" x="434" y="-510.5" font-family="Courier New" font-weight="bold" font-size="10.00">S17_eDOORWAY</text>
<polygon fill="none" stroke="black" points="281,-462.5 281,-501.5 660,-501.5 660,-462.5 281,-462.5"/>
<text text-anchor="start" x="284" y="-490.5" font-family="Courier New" font-size="10.00" fill="green">VIEW::IDV_eMINEPAN</text>
<text text-anchor="start" x="284" y="-479.5" font-family="Courier New" font-size="10.00" fill="green">S17_eDOORWAY::M17_DOORWAY(&#39;IDV_eCV1aPAN&#39;,&#39;S17_eFFIELD1&#39;,&#39;&#39;,&#39;&#39;)</text>
<text text-anchor="start" x="284" y="-468.5" font-family="Courier New" font-size="10.00" fill="green">{&#39;0&#39;:</text>
<polygon fill="none" stroke="black" points="278,-459.5 278,-523.5 663,-523.5 663,-459.5 278,-459.5"/>
</g>
</g>
</svg>
