<?xml version="1.0" encoding="UTF-8" standalone="no"?>
<!DOCTYPE svg PUBLIC "-//W3C//DTD SVG 1.1//EN"
 "http://www.w3.org/Graphics/SVG/1.1/DTD/svg11.dtd">
<!-- Generated by graphviz version 8.0.1 (20230327.1645)
 -->
<!-- Title: Automaton Pages: 1 -->
<svg width="610pt" height="286pt"
 viewBox="0.00 0.00 610.21 286.00" xmlns="http://www.w3.org/2000/svg" xmlns:xlink="http://www.w3.org/1999/xlink">
<g id="graph0" class="graph" transform="scale(1 1) rotate(0) translate(4 282)">
<title>Automaton</title>
<polygon fill="white" stroke="none" points="-4,4 -4,-282 606.21,-282 606.21,4 -4,4"/>
<!-- filename -->
<g id="node1" class="node">
<title>filename</title>
<polygon fill="none" stroke="black" points="26.71,-216.5 26.71,-266.5 169.71,-266.5 169.71,-216.5 26.71,-216.5"/>
<polygon fill="none" stroke="black" points="37.71,-242.5 37.71,-259.5 158.71,-259.5 158.71,-242.5 37.71,-242.5"/>
<text text-anchor="start" x="40.71" y="-249.5" font-family="Courier New" font-weight="bold" font-size="10.00">S17_eMINE::M17_MINE</text>
<polygon fill="none" stroke="black" points="37.71,-223.5 37.71,-240.5 158.71,-240.5 158.71,-223.5 37.71,-223.5"/>
<text text-anchor="start" x="52.71" y="-229.5" font-family="Courier New" font-size="10.00" fill="brown">start state = 0</text>
<polygon fill="none" stroke="black" points="34.71,-220.5 34.71,-262.5 161.71,-262.5 161.71,-220.5 34.71,-220.5"/>
</g>
<!-- 0 -->
<g id="node2" class="node">
<title>0</title>
<polyline fill="none" stroke="darkred" stroke-width="3" points="207.21,-230.5 223.21,-230.5"/>
<text text-anchor="start" x="210.71" y="-238.8" font-family="Courier New" font-weight="bold" font-size="14.00">0</text>
<path fill="none" stroke="darkred" stroke-width="3" d="M210.88,-225.5C210.88,-225.5 219.54,-225.5 219.54,-225.5 223.88,-225.5 228.21,-229.83 228.21,-234.17 228.21,-234.17 228.21,-248.83 228.21,-248.83 228.21,-253.17 223.88,-257.5 219.54,-257.5 219.54,-257.5 210.88,-257.5 210.88,-257.5 206.54,-257.5 202.21,-253.17 202.21,-248.83 202.21,-248.83 202.21,-234.17 202.21,-234.17 202.21,-229.83 206.54,-225.5 210.88,-225.5"/>
</g>
<!-- 1 -->
<g id="node3" class="node">
<title>1</title>
<polyline fill="none" stroke="darkred" points="168.71,-98.5 183.71,-98.5"/>
<text text-anchor="start" x="171.71" y="-106.3" font-family="Courier New" font-weight="bold" font-size="14.00">1</text>
<path fill="none" stroke="darkred" d="M172.71,-95.5C172.71,-95.5 179.71,-95.5 179.71,-95.5 183.21,-95.5 186.71,-99 186.71,-102.5 186.71,-102.5 186.71,-115.5 186.71,-115.5 186.71,-119 183.21,-122.5 179.71,-122.5 179.71,-122.5 172.71,-122.5 172.71,-122.5 169.21,-122.5 165.71,-119 165.71,-115.5 165.71,-115.5 165.71,-102.5 165.71,-102.5 165.71,-99 169.21,-95.5 172.71,-95.5"/>
</g>
<!-- 0&#45;&gt;1 -->
<g id="edge1" class="edge">
<title>0&#45;&gt;1</title>
<path fill="none" stroke="black" d="M197.49,-220.09C191.8,-214.55 185.16,-208.98 178.21,-205 152.56,-190.33 132.05,-210.55 114.21,-187 102.94,-172.12 104.8,-161.12 114.21,-145 117.4,-139.54 127.95,-132.85 139.46,-126.79"/>
<polygon fill="black" stroke="black" points="140.85,-129.5 148.22,-121.88 137.71,-123.25 140.85,-129.5"/>
<polygon fill="none" stroke="black" points="117.21,-167 117.21,-184 292.21,-184 292.21,-167 117.21,-167"/>
<text text-anchor="start" x="150.21" y="-174" font-family="Courier New" font-weight="bold" font-size="10.00" fill="orange">DRAG(0,IDD_SCOOPE)</text>
<polygon fill="none" stroke="black" points="117.21,-148 117.21,-165 292.21,-165 292.21,-148 117.21,-148"/>
<text text-anchor="start" x="120.21" y="-154" font-family="Courier New" font-size="10.00" fill="blue"> &#160;&#160;&#160;SIGNAL(WIP1,SIG_START); </text>
<polygon fill="none" stroke="black" points="114.21,-145 114.21,-187 295.21,-187 295.21,-145 114.21,-145"/>
</g>
<!-- 3 -->
<g id="node4" class="node">
<title>3</title>
<polyline fill="none" stroke="darkred" points="303.71,-98.5 318.71,-98.5"/>
<text text-anchor="start" x="306.71" y="-106.3" font-family="Courier New" font-weight="bold" font-size="14.00">3</text>
<path fill="none" stroke="darkred" d="M307.71,-95.5C307.71,-95.5 314.71,-95.5 314.71,-95.5 318.21,-95.5 321.71,-99 321.71,-102.5 321.71,-102.5 321.71,-115.5 321.71,-115.5 321.71,-119 318.21,-122.5 314.71,-122.5 314.71,-122.5 307.71,-122.5 307.71,-122.5 304.21,-122.5 300.71,-119 300.71,-115.5 300.71,-115.5 300.71,-102.5 300.71,-102.5 300.71,-99 304.21,-95.5 307.71,-95.5"/>
</g>
<!-- 0&#45;&gt;3 -->
<g id="edge2" class="edge">
<title>0&#45;&gt;3</title>
<path fill="none" stroke="black" d="M233.04,-220.2C238.49,-214.78 244.76,-209.25 251.21,-205 268.84,-193.36 281.7,-203.25 295.21,-187 306.52,-173.4 310.48,-153.84 311.63,-137.84"/>
<polygon fill="black" stroke="black" points="315.16,-138.08 312.04,-127.96 308.17,-137.82 315.16,-138.08"/>
<text text-anchor="start" x="315.21" y="-164.5" font-family="Courier New" font-weight="bold" font-size="10.00" fill="orange">DRAG(0,IDD_SCOOPF)</text>
</g>
<!-- 2 -->
<g id="node5" class="node">
<title>2</title>
<polyline fill="none" stroke="darkred" points="75.71,-7.5 90.71,-7.5"/>
<text text-anchor="start" x="78.71" y="-15.3" font-family="Courier New" font-weight="bold" font-size="14.00">2</text>
<path fill="none" stroke="darkred" d="M79.71,-4.5C79.71,-4.5 86.71,-4.5 86.71,-4.5 90.21,-4.5 93.71,-8 93.71,-11.5 93.71,-11.5 93.71,-24.5 93.71,-24.5 93.71,-28 90.21,-31.5 86.71,-31.5 86.71,-31.5 79.71,-31.5 79.71,-31.5 76.21,-31.5 72.71,-28 72.71,-24.5 72.71,-24.5 72.71,-11.5 72.71,-11.5 72.71,-8 76.21,-4.5 79.71,-4.5"/>
</g>
<!-- 1&#45;&gt;2 -->
<g id="edge3" class="edge">
<title>1&#45;&gt;2</title>
<path fill="none" stroke="black" d="M158.72,-91.26C144.65,-77.8 124.68,-58.69 108.81,-43.5"/>
<polygon fill="black" stroke="black" points="111.58,-41.35 101.94,-36.97 106.74,-46.41 111.58,-41.35"/>
<text text-anchor="start" x="142.21" y="-62" font-family="Courier New" font-weight="bold" font-size="10.00" fill="blue">PLAYWAVE(0,SOUND_SLURP)</text>
</g>
<!-- 4 -->
<g id="node6" class="node">
<title>4</title>
<polyline fill="none" stroke="darkred" points="375.71,-7.5 390.71,-7.5"/>
<text text-anchor="start" x="378.71" y="-15.3" font-family="Courier New" font-weight="bold" font-size="14.00">4</text>
<path fill="none" stroke="darkred" d="M379.71,-4.5C379.71,-4.5 386.71,-4.5 386.71,-4.5 390.21,-4.5 393.71,-8 393.71,-11.5 393.71,-11.5 393.71,-24.5 393.71,-24.5 393.71,-28 390.21,-31.5 386.71,-31.5 386.71,-31.5 379.71,-31.5 379.71,-31.5 376.21,-31.5 372.71,-28 372.71,-24.5 372.71,-24.5 372.71,-11.5 372.71,-11.5 372.71,-8 376.21,-4.5 379.71,-4.5"/>
</g>
<!-- 3&#45;&gt;4 -->
<g id="edge5" class="edge">
<title>3&#45;&gt;4</title>
<path fill="none" stroke="black" d="M304.52,-91.12C301.18,-79.76 299.17,-64.92 306.21,-54 315.19,-40.06 331.23,-31.6 346.36,-26.51"/>
<polygon fill="black" stroke="black" points="346.98,-29.68 355.58,-23.5 345,-22.97 346.98,-29.68"/>
<text text-anchor="start" x="310.21" y="-62" font-family="Courier New" font-weight="bold" font-size="10.00" fill="blue">PLAYWAVE(0,SOUND_SPIT)</text>
</g>
<!-- 2&#45;&gt;0 -->
<g id="edge4" class="edge">
<title>2&#45;&gt;0</title>
<path fill="none" stroke="black" d="M56.47,-35.58C26.93,-56.11 -14.07,-92.6 5.21,-127 30.17,-171.55 56.02,-167.47 103.21,-187 134.88,-200.11 148.13,-188.56 178.21,-205 182.25,-207.21 186.17,-209.98 189.85,-212.98"/>
<polygon fill="black" stroke="black" points="187.19,-215.2 196.96,-219.29 191.88,-210 187.19,-215.2"/>
<text text-anchor="start" x="9.21" y="-107.5" font-family="Courier New" font-weight="bold" font-size="10.00" fill="blue">HANDOFF(0,IDD_SCOOPF)</text>
</g>
<!-- 4&#45;&gt;0 -->
<g id="edge6" class="edge">
<title>4&#45;&gt;0</title>
<path fill="none" stroke="black" d="M409.99,-26.42C423.69,-31.72 439.14,-40.38 447.21,-54 477.55,-105.17 474.93,-145.61 432.21,-187 403.18,-215.13 287.8,-187.83 251.21,-205 247.01,-206.97 243.01,-209.64 239.3,-212.64"/>
<polygon fill="black" stroke="black" points="237.23,-209.71 232.24,-219.06 241.97,-214.86 237.23,-209.71"/>
<text text-anchor="start" x="471.21" y="-107.5" font-family="Courier New" font-weight="bold" font-size="10.00" fill="blue">HANDOFF(0,IDD_SCOOPE)</text>
</g>
<!-- status -->
<g id="node7" class="node">
<title>status</title>
<polygon fill="none" stroke="black" points="260.71,-205.5 260.71,-277.5 559.71,-277.5 559.71,-205.5 260.71,-205.5"/>
<polygon fill="none" stroke="black" points="271.71,-253.5 271.71,-270.5 548.71,-270.5 548.71,-253.5 271.71,-253.5"/>
<text text-anchor="start" x="382.71" y="-260.5" font-family="Courier New" font-weight="bold" font-size="10.00">S17_eMINE</text>
<polygon fill="none" stroke="black" points="271.71,-212.5 271.71,-251.5 548.71,-251.5 548.71,-212.5 271.71,-212.5"/>
<text text-anchor="start" x="274.71" y="-240.5" font-family="Courier New" font-size="10.00" fill="green">VIEW::IDV_eCV1bPAN @pos(left:2739, top:119)</text>
<text text-anchor="start" x="274.71" y="-229.5" font-family="Courier New" font-size="10.00" fill="green">S17_eMINE::M17_MINE(&#39;S17_eFOULWIND&#39;,&#39;&#39;,&#39;&#39;,&#39;&#39;)</text>
<text text-anchor="start" x="274.71" y="-218.5" font-family="Courier New" font-size="10.00" fill="green">{state:&#39;0&#39;:</text>
<polygon fill="none" stroke="black" points="268.71,-209.5 268.71,-273.5 551.71,-273.5 551.71,-209.5 268.71,-209.5"/>
</g>
</g>
</svg>
