<?xml version="1.0" encoding="UTF-8" standalone="no"?>
<!DOCTYPE svg PUBLIC "-//W3C//DTD SVG 1.1//EN"
 "http://www.w3.org/Graphics/SVG/1.1/DTD/svg11.dtd">
<!-- Generated by graphviz version 8.0.1 (20230327.1645)
 -->
<!-- Title: Automaton Pages: 1 -->
<svg width="577pt" height="263pt"
 viewBox="0.00 0.00 577.31 263.00" xmlns="http://www.w3.org/2000/svg" xmlns:xlink="http://www.w3.org/1999/xlink">
<g id="graph0" class="graph" transform="scale(1 1) rotate(0) translate(4 259)">
<title>Automaton</title>
<polygon fill="white" stroke="none" points="-4,4 -4,-259 573.31,-259 573.31,4 -4,4"/>
<!-- filename -->
<g id="node1" class="node">
<title>filename</title>
<polygon fill="none" stroke="black" points="31.81,-193.5 31.81,-243.5 174.81,-243.5 174.81,-193.5 31.81,-193.5"/>
<polygon fill="none" stroke="black" points="42.81,-219.5 42.81,-236.5 163.81,-236.5 163.81,-219.5 42.81,-219.5"/>
<text text-anchor="start" x="45.81" y="-226.5" font-family="Courier New" font-weight="bold" font-size="10.00">S17_aMINE::M17_MINE</text>
<polygon fill="none" stroke="black" points="42.81,-200.5 42.81,-217.5 163.81,-217.5 163.81,-200.5 42.81,-200.5"/>
<text text-anchor="start" x="57.81" y="-206.5" font-family="Courier New" font-size="10.00" fill="brown">start state = 0</text>
<polygon fill="none" stroke="black" points="39.81,-197.5 39.81,-239.5 166.81,-239.5 166.81,-197.5 39.81,-197.5"/>
</g>
<!-- 0 -->
<g id="node2" class="node">
<title>0</title>
<polyline fill="none" stroke="darkred" stroke-width="3" points="212.31,-207.5 228.31,-207.5"/>
<text text-anchor="start" x="215.81" y="-215.8" font-family="Courier New" font-weight="bold" font-size="14.00">0</text>
<path fill="none" stroke="darkred" stroke-width="3" d="M215.97,-202.5C215.97,-202.5 224.64,-202.5 224.64,-202.5 228.97,-202.5 233.31,-206.83 233.31,-211.17 233.31,-211.17 233.31,-225.83 233.31,-225.83 233.31,-230.17 228.97,-234.5 224.64,-234.5 224.64,-234.5 215.97,-234.5 215.97,-234.5 211.64,-234.5 207.31,-230.17 207.31,-225.83 207.31,-225.83 207.31,-211.17 207.31,-211.17 207.31,-206.83 211.64,-202.5 215.97,-202.5"/>
</g>
<!-- 1 -->
<g id="node3" class="node">
<title>1</title>
<polyline fill="none" stroke="darkred" points="170.81,-98.5 185.81,-98.5"/>
<text text-anchor="start" x="173.81" y="-106.3" font-family="Courier New" font-weight="bold" font-size="14.00">1</text>
<path fill="none" stroke="darkred" d="M174.81,-95.5C174.81,-95.5 181.81,-95.5 181.81,-95.5 185.31,-95.5 188.81,-99 188.81,-102.5 188.81,-102.5 188.81,-115.5 188.81,-115.5 188.81,-119 185.31,-122.5 181.81,-122.5 181.81,-122.5 174.81,-122.5 174.81,-122.5 171.31,-122.5 167.81,-119 167.81,-115.5 167.81,-115.5 167.81,-102.5 167.81,-102.5 167.81,-99 171.31,-95.5 174.81,-95.5"/>
</g>
<!-- 0&#45;&gt;1 -->
<g id="edge1" class="edge">
<title>0&#45;&gt;1</title>
<path fill="none" stroke="black" d="M201.16,-197.36C195.65,-192.07 189.46,-186.56 183.31,-182 170.21,-172.27 159.55,-178.09 151.31,-164 145.99,-154.91 149.01,-144.63 154.64,-135.5"/>
<polygon fill="black" stroke="black" points="157.88,-137.99 160.93,-127.84 152.22,-133.88 157.88,-137.99"/>
<text text-anchor="start" x="155.31" y="-153" font-family="Courier New" font-weight="bold" font-size="10.00" fill="orange">DRAG(0,IDD_SCOOPE)</text>
</g>
<!-- 3 -->
<g id="node4" class="node">
<title>3</title>
<polyline fill="none" stroke="darkred" points="276.81,-98.5 291.81,-98.5"/>
<text text-anchor="start" x="279.81" y="-106.3" font-family="Courier New" font-weight="bold" font-size="14.00">3</text>
<path fill="none" stroke="darkred" d="M280.81,-95.5C280.81,-95.5 287.81,-95.5 287.81,-95.5 291.31,-95.5 294.81,-99 294.81,-102.5 294.81,-102.5 294.81,-115.5 294.81,-115.5 294.81,-119 291.31,-122.5 287.81,-122.5 287.81,-122.5 280.81,-122.5 280.81,-122.5 277.31,-122.5 273.81,-119 273.81,-115.5 273.81,-115.5 273.81,-102.5 273.81,-102.5 273.81,-99 277.31,-95.5 280.81,-95.5"/>
</g>
<!-- 0&#45;&gt;3 -->
<g id="edge2" class="edge">
<title>0&#45;&gt;3</title>
<path fill="none" stroke="black" d="M242.56,-197.09C251.63,-187.75 261.55,-176.09 268.31,-164 272.87,-155.84 276.26,-146.24 278.71,-137.42"/>
<polygon fill="black" stroke="black" points="282.33,-138.37 281.33,-127.82 275.53,-136.69 282.33,-138.37"/>
<text text-anchor="start" x="280.31" y="-153" font-family="Courier New" font-weight="bold" font-size="10.00" fill="orange">DRAG(0,IDD_SCOOPF)</text>
</g>
<!-- 2 -->
<g id="node5" class="node">
<title>2</title>
<polyline fill="none" stroke="darkred" points="48.81,-7.5 63.81,-7.5"/>
<text text-anchor="start" x="51.81" y="-15.3" font-family="Courier New" font-weight="bold" font-size="14.00">2</text>
<path fill="none" stroke="darkred" d="M52.81,-4.5C52.81,-4.5 59.81,-4.5 59.81,-4.5 63.31,-4.5 66.81,-8 66.81,-11.5 66.81,-11.5 66.81,-24.5 66.81,-24.5 66.81,-28 63.31,-31.5 59.81,-31.5 59.81,-31.5 52.81,-31.5 52.81,-31.5 49.31,-31.5 45.81,-28 45.81,-24.5 45.81,-24.5 45.81,-11.5 45.81,-11.5 45.81,-8 49.31,-4.5 52.81,-4.5"/>
</g>
<!-- 1&#45;&gt;2 -->
<g id="edge3" class="edge">
<title>1&#45;&gt;2</title>
<path fill="none" stroke="black" d="M151.32,-91.23C142.59,-85.61 132.93,-79.19 124.31,-73 111.01,-63.44 96.75,-52.27 84.74,-42.58"/>
<polygon fill="black" stroke="black" points="87.41,-39.42 77.45,-35.83 82.99,-44.85 87.41,-39.42"/>
<text text-anchor="start" x="128.31" y="-62" font-family="Courier New" font-weight="bold" font-size="10.00" fill="blue">PLAYWAVE(0,SOUND_SLURP)</text>
</g>
<!-- 4 -->
<g id="node6" class="node">
<title>4</title>
<polyline fill="none" stroke="darkred" points="348.81,-7.5 363.81,-7.5"/>
<text text-anchor="start" x="351.81" y="-15.3" font-family="Courier New" font-weight="bold" font-size="14.00">4</text>
<path fill="none" stroke="darkred" d="M352.81,-4.5C352.81,-4.5 359.81,-4.5 359.81,-4.5 363.31,-4.5 366.81,-8 366.81,-11.5 366.81,-11.5 366.81,-24.5 366.81,-24.5 366.81,-28 363.31,-31.5 359.81,-31.5 359.81,-31.5 352.81,-31.5 352.81,-31.5 349.31,-31.5 345.81,-28 345.81,-24.5 345.81,-24.5 345.81,-11.5 345.81,-11.5 345.81,-8 349.31,-4.5 352.81,-4.5"/>
</g>
<!-- 3&#45;&gt;4 -->
<g id="edge5" class="edge">
<title>3&#45;&gt;4</title>
<path fill="none" stroke="black" d="M277.62,-91.12C274.28,-79.76 272.27,-64.92 279.31,-54 288.29,-40.06 304.33,-31.6 319.46,-26.51"/>
<polygon fill="black" stroke="black" points="320.08,-29.68 328.68,-23.5 318.1,-22.97 320.08,-29.68"/>
<text text-anchor="start" x="283.31" y="-62" font-family="Courier New" font-weight="bold" font-size="10.00" fill="blue">PLAYWAVE(0,SOUND_SPIT)</text>
</g>
<!-- 2&#45;&gt;0 -->
<g id="edge4" class="edge">
<title>2&#45;&gt;0</title>
<path fill="none" stroke="black" d="M38.29,-35.88C16.7,-58.16 -14.03,-97.97 7.31,-127 55.85,-193.03 112.76,-140.3 183.31,-182 187.19,-184.29 190.98,-187.07 194.57,-190.04"/>
<polygon fill="black" stroke="black" points="191.75,-192.11 201.51,-196.22 196.44,-186.92 191.75,-192.11"/>
<text text-anchor="start" x="11.31" y="-107.5" font-family="Courier New" font-weight="bold" font-size="10.00" fill="blue">HANDOFF(0,IDD_SCOOPF)</text>
</g>
<!-- 4&#45;&gt;0 -->
<g id="edge6" class="edge">
<title>4&#45;&gt;0</title>
<path fill="none" stroke="black" d="M383.09,-26.42C396.79,-31.72 412.23,-40.38 420.31,-54 445.78,-96.96 434.69,-130.88 397.31,-164 350.03,-205.9 313.12,-154.37 256.31,-182 252.13,-184.03 248.15,-186.74 244.45,-189.75"/>
<polygon fill="black" stroke="black" points="242.38,-186.83 237.4,-196.18 247.12,-191.97 242.38,-186.83"/>
<text text-anchor="start" x="438.31" y="-107.5" font-family="Courier New" font-weight="bold" font-size="10.00" fill="blue">HANDOFF(0,IDD_SCOOPE)</text>
</g>
<!-- status -->
<g id="node7" class="node">
<title>status</title>
<polygon fill="none" stroke="black" points="265.81,-182.5 265.81,-254.5 552.81,-254.5 552.81,-182.5 265.81,-182.5"/>
<polygon fill="none" stroke="black" points="276.81,-230.5 276.81,-247.5 541.81,-247.5 541.81,-230.5 276.81,-230.5"/>
<text text-anchor="start" x="381.81" y="-237.5" font-family="Courier New" font-weight="bold" font-size="10.00">S17_aMINE</text>
<polygon fill="none" stroke="black" points="276.81,-189.5 276.81,-228.5 541.81,-228.5 541.81,-189.5 276.81,-189.5"/>
<text text-anchor="start" x="279.81" y="-217.5" font-family="Courier New" font-size="10.00" fill="green">VIEW::IDV_aCV1bPAN @pos(left:2900, top:200)</text>
<text text-anchor="start" x="279.81" y="-206.5" font-family="Courier New" font-size="10.00" fill="green">S17_aMINE::M17_MINE(&#39;&#39;,&#39;&#39;,&#39;&#39;,&#39;&#39;)</text>
<text text-anchor="start" x="279.81" y="-195.5" font-family="Courier New" font-size="10.00" fill="green">{state:&#39;0&#39;:</text>
<polygon fill="none" stroke="black" points="273.81,-186.5 273.81,-250.5 544.81,-250.5 544.81,-186.5 273.81,-186.5"/>
</g>
</g>
</svg>
