<?xml version="1.0" encoding="UTF-8" standalone="no"?>
<!DOCTYPE svg PUBLIC "-//W3C//DTD SVG 1.1//EN"
 "http://www.w3.org/Graphics/SVG/1.1/DTD/svg11.dtd">
<!-- Generated by graphviz version 8.0.1 (20230327.1645)
 -->
<!-- Title: Automaton Pages: 1 -->
<svg width="1156pt" height="587pt"
 viewBox="0.00 0.00 1156.00 587.00" xmlns="http://www.w3.org/2000/svg" xmlns:xlink="http://www.w3.org/1999/xlink">
<g id="graph0" class="graph" transform="scale(1 1) rotate(0) translate(4 583)">
<title>Automaton</title>
<polygon fill="white" stroke="none" points="-4,4 -4,-583 1152,-583 1152,4 -4,4"/>
<!-- filename -->
<g id="node1" class="node">
<title>filename</title>
<polygon fill="none" stroke="black" points="61.5,-517.5 61.5,-567.5 240.5,-567.5 240.5,-517.5 61.5,-517.5"/>
<polygon fill="none" stroke="black" points="72.5,-543.5 72.5,-560.5 229.5,-560.5 229.5,-543.5 72.5,-543.5"/>
<text text-anchor="start" x="75.5" y="-550.5" font-family="Courier New" font-weight="bold" font-size="10.00">S17_eDOORWAY::M17_DOORWAY</text>
<polygon fill="none" stroke="black" points="72.5,-524.5 72.5,-541.5 229.5,-541.5 229.5,-524.5 72.5,-524.5"/>
<text text-anchor="start" x="105.5" y="-530.5" font-family="Courier New" font-size="10.00" fill="brown">start state = 0</text>
<polygon fill="none" stroke="black" points="69.5,-521.5 69.5,-563.5 232.5,-563.5 232.5,-521.5 69.5,-521.5"/>
</g>
<!-- 0 -->
<g id="node2" class="node">
<title>0</title>
<polyline fill="none" stroke="darkred" stroke-width="3" points="278,-531.5 294,-531.5"/>
<text text-anchor="start" x="281.5" y="-539.8" font-family="Courier New" font-weight="bold" font-size="14.00">0</text>
<path fill="none" stroke="darkred" stroke-width="3" d="M281.67,-526.5C281.67,-526.5 290.33,-526.5 290.33,-526.5 294.67,-526.5 299,-530.83 299,-535.17 299,-535.17 299,-549.83 299,-549.83 299,-554.17 294.67,-558.5 290.33,-558.5 290.33,-558.5 281.67,-558.5 281.67,-558.5 277.33,-558.5 273,-554.17 273,-549.83 273,-549.83 273,-535.17 273,-535.17 273,-530.83 277.33,-526.5 281.67,-526.5"/>
</g>
<!-- caveNoLockEntry -->
<g id="node3" class="node">
<title>caveNoLockEntry</title>
<polyline fill="none" stroke="darkred" points="11,-388.5 141,-388.5"/>
<text text-anchor="start" x="14" y="-396.3" font-family="Courier New" font-weight="bold" font-size="14.00">caveNoLockEntry</text>
<path fill="none" stroke="darkred" d="M17,-385.5C17,-385.5 135,-385.5 135,-385.5 139.5,-385.5 144,-390 144,-394.5 144,-394.5 144,-403.5 144,-403.5 144,-408 139.5,-412.5 135,-412.5 135,-412.5 17,-412.5 17,-412.5 12.5,-412.5 8,-408 8,-403.5 8,-403.5 8,-394.5 8,-394.5 8,-390 12.5,-385.5 17,-385.5"/>
</g>
<!-- 0&#45;&gt;caveNoLockEntry -->
<g id="edge1" class="edge">
<title>0&#45;&gt;caveNoLockEntry</title>
<path fill="none" stroke="black" d="M269.84,-521.35C263.94,-515.38 256.79,-509.51 249,-506 204.69,-486.02 63.93,-523.76 31,-488 15.04,-470.67 20.65,-456.16 31,-435 32.9,-431.11 35.47,-427.53 38.42,-424.26"/>
<polygon fill="black" stroke="black" points="40.47,-427.19 45.37,-417.8 35.68,-422.09 40.47,-427.19"/>
<text text-anchor="start" x="35" y="-460" font-family="Courier New" font-weight="bold" font-size="10.00" fill="orange">CLICK(0,0)</text>
</g>
<!-- Lock -->
<g id="node4" class="node">
<title>Lock</title>
<polyline fill="none" stroke="darkred" points="666,-388.5 706,-388.5"/>
<text text-anchor="start" x="669" y="-396.3" font-family="Courier New" font-weight="bold" font-size="14.00">Lock</text>
<path fill="none" stroke="darkred" d="M672,-385.5C672,-385.5 700,-385.5 700,-385.5 704.5,-385.5 709,-390 709,-394.5 709,-394.5 709,-403.5 709,-403.5 709,-408 704.5,-412.5 700,-412.5 700,-412.5 672,-412.5 672,-412.5 667.5,-412.5 663,-408 663,-403.5 663,-403.5 663,-394.5 663,-394.5 663,-390 667.5,-385.5 672,-385.5"/>
</g>
<!-- 0&#45;&gt;Lock -->
<g id="edge2" class="edge">
<title>0&#45;&gt;Lock</title>
<path fill="none" stroke="black" d="M302.09,-521.18C307.75,-515.35 314.58,-509.61 322,-506 379.22,-478.2 402.39,-503.85 464,-488 529.56,-471.14 601.8,-439.99 645.53,-419.63"/>
<polygon fill="black" stroke="black" points="646.65,-422.5 654.21,-415.09 643.68,-416.17 646.65,-422.5"/>
<text text-anchor="start" x="613" y="-460" font-family="Courier New" font-weight="bold" font-size="10.00" fill="orange">WAIT(0,SIG_CLOSE)</text>
</g>
<!-- caveNoLockEntry&#45;&gt;0 -->
<g id="edge5" class="edge">
<title>caveNoLockEntry&#45;&gt;0</title>
<path fill="none" stroke="black" d="M88.39,-416.67C92.35,-422.34 96.58,-428.81 100,-435 112.43,-457.47 102.58,-472.43 123,-488 167.98,-522.31 198.14,-481.23 249,-506 253.35,-508.12 257.52,-510.94 261.39,-514.06"/>
<polygon fill="black" stroke="black" points="258.57,-516.14 268.34,-520.25 263.27,-510.95 258.57,-516.14"/>
<polygon fill="none" stroke="black" points="126,-468 126,-485 433,-485 433,-468 126,-468"/>
<text text-anchor="start" x="234" y="-475" font-family="Courier New" font-weight="bold" font-size="10.00" fill="blue">LOADVIEW(WIP1,)</text>
<polygon fill="none" stroke="black" points="126,-438 126,-466 433,-466 433,-438 126,-438"/>
<text text-anchor="start" x="129" y="-455" font-family="Courier New" font-size="10.00" fill="blue"> &#160;&#160;&#160;WRITE(&quot;No Lock entry &#45; SIGNAL THE FOUL WIND&quot;);</text>
<text text-anchor="start" x="129" y="-444" font-family="Courier New" font-size="10.00" fill="blue"> &#160;&#160;&#160;SIGNAL(WIP3,SIG_START);</text>
<polygon fill="none" stroke="black" points="123,-435 123,-488 436,-488 436,-435 123,-435"/>
</g>
<!-- forcefieldUp -->
<g id="node5" class="node">
<title>forcefieldUp</title>
<polyline fill="none" stroke="darkred" points="558,-297.5 664,-297.5"/>
<text text-anchor="start" x="561" y="-305.3" font-family="Courier New" font-weight="bold" font-size="14.00">forcefieldUp</text>
<path fill="none" stroke="darkred" d="M564,-294.5C564,-294.5 658,-294.5 658,-294.5 662.5,-294.5 667,-299 667,-303.5 667,-303.5 667,-312.5 667,-312.5 667,-317 662.5,-321.5 658,-321.5 658,-321.5 564,-321.5 564,-321.5 559.5,-321.5 555,-317 555,-312.5 555,-312.5 555,-303.5 555,-303.5 555,-299 559.5,-294.5 564,-294.5"/>
</g>
<!-- Lock&#45;&gt;forcefieldUp -->
<g id="edge3" class="edge">
<title>Lock&#45;&gt;forcefieldUp</title>
<path fill="none" stroke="black" d="M655.24,-388.57C642.43,-383.11 628.57,-374.89 620,-363 614.47,-355.32 611.88,-345.45 610.78,-336.26"/>
<polygon fill="black" stroke="black" points="614.23,-336.31 610.08,-326.56 607.24,-336.77 614.23,-336.31"/>
<text text-anchor="start" x="624" y="-352" font-family="Courier New" font-weight="bold" font-size="10.00" fill="blue">SIGNAL(WIP2,SIG_ON)</text>
</g>
<!-- LockBombed -->
<g id="node6" class="node">
<title>LockBombed</title>
<polyline fill="none" stroke="darkred" points="422.5,-198 511.5,-198"/>
<text text-anchor="start" x="425.5" y="-205.8" font-family="Courier New" font-weight="bold" font-size="14.00">LockBombed</text>
<path fill="none" stroke="darkred" d="M428.5,-195C428.5,-195 505.5,-195 505.5,-195 510,-195 514.5,-199.5 514.5,-204 514.5,-204 514.5,-213 514.5,-213 514.5,-217.5 510,-222 505.5,-222 505.5,-222 428.5,-222 428.5,-222 424,-222 419.5,-217.5 419.5,-213 419.5,-213 419.5,-204 419.5,-204 419.5,-199.5 424,-195 428.5,-195"/>
</g>
<!-- forcefieldUp&#45;&gt;LockBombed -->
<g id="edge6" class="edge">
<title>forcefieldUp&#45;&gt;LockBombed</title>
<path fill="none" stroke="black" d="M547.01,-295.15C531.1,-289.97 514.92,-282.57 502,-272 490.64,-262.71 482.32,-248.71 476.65,-236.32"/>
<polygon fill="black" stroke="black" points="479.59,-235.29 472.5,-227.42 473.14,-237.99 479.59,-235.29"/>
<text text-anchor="start" x="506" y="-261" font-family="Courier New" font-weight="bold" font-size="10.00" fill="orange">WAIT(0,SIG_OPEN)</text>
</g>
<!-- keyUsed -->
<g id="node7" class="node">
<title>keyUsed</title>
<polyline fill="none" stroke="darkred" points="579,-198 643,-198"/>
<text text-anchor="start" x="582" y="-205.8" font-family="Courier New" font-weight="bold" font-size="14.00">keyUsed</text>
<path fill="none" stroke="darkred" d="M585,-195C585,-195 637,-195 637,-195 641.5,-195 646,-199.5 646,-204 646,-204 646,-213 646,-213 646,-217.5 641.5,-222 637,-222 637,-222 585,-222 585,-222 580.5,-222 576,-217.5 576,-213 576,-213 576,-204 576,-204 576,-199.5 580.5,-195 585,-195"/>
</g>
<!-- forcefieldUp&#45;&gt;keyUsed -->
<g id="edge7" class="edge">
<title>forcefieldUp&#45;&gt;keyUsed</title>
<path fill="none" stroke="black" d="M611,-290.02C611,-275.48 611,-254.26 611,-237.25"/>
<polygon fill="black" stroke="black" points="614.5,-237.29 611,-227.29 607.5,-237.29 614.5,-237.29"/>
<text text-anchor="start" x="615" y="-261" font-family="Courier New" font-weight="bold" font-size="10.00" fill="orange">WAIT(0,SIG_ENTER_1)</text>
</g>
<!-- LockBombed&#45;&gt;0 -->
<g id="edge4" class="edge">
<title>LockBombed&#45;&gt;0</title>
<path fill="none" stroke="black" d="M467.67,-226.49C469.46,-281.04 471.96,-450.36 436,-488 400.57,-525.09 367.79,-482.88 322,-506 317.86,-508.09 313.89,-510.83 310.2,-513.87"/>
<polygon fill="black" stroke="black" points="308.12,-510.95 303.15,-520.31 312.87,-516.09 308.12,-510.95"/>
<text text-anchor="start" x="471" y="-352" font-family="Courier New" font-weight="bold" font-size="10.00" fill="blue">SIGNAL(WIP2,SIG_OFF)</text>
</g>
<!-- tempOpen -->
<g id="node8" class="node">
<title>tempOpen</title>
<polyline fill="none" stroke="darkred" points="720.5,-98.5 793.5,-98.5"/>
<text text-anchor="start" x="723.5" y="-106.3" font-family="Courier New" font-weight="bold" font-size="14.00">tempOpen</text>
<path fill="none" stroke="darkred" d="M726.5,-95.5C726.5,-95.5 787.5,-95.5 787.5,-95.5 792,-95.5 796.5,-100 796.5,-104.5 796.5,-104.5 796.5,-113.5 796.5,-113.5 796.5,-118 792,-122.5 787.5,-122.5 787.5,-122.5 726.5,-122.5 726.5,-122.5 722,-122.5 717.5,-118 717.5,-113.5 717.5,-113.5 717.5,-104.5 717.5,-104.5 717.5,-100 722,-95.5 726.5,-95.5"/>
</g>
<!-- keyUsed&#45;&gt;tempOpen -->
<g id="edge8" class="edge">
<title>keyUsed&#45;&gt;tempOpen</title>
<path fill="none" stroke="black" d="M606.79,-190.69C604.39,-176.87 603.64,-157.57 614,-145 625.01,-131.64 664.42,-122.62 699.09,-117.08"/>
<polygon fill="black" stroke="black" points="699.29,-120.44 708.65,-115.48 698.24,-113.52 699.29,-120.44"/>
<text text-anchor="start" x="618" y="-153" font-family="Courier New" font-weight="bold" font-size="10.00" fill="blue">SIGNAL(WIP2,SIG_OFF)</text>
</g>
<!-- tempOpen&#45;&gt;Lock -->
<g id="edge11" class="edge">
<title>tempOpen&#45;&gt;Lock</title>
<path fill="none" stroke="black" d="M756.96,-126.94C756.73,-180.33 755.03,-342.83 743,-363 738.87,-369.93 732.79,-375.67 726.11,-380.36"/>
<polygon fill="black" stroke="black" points="724.45,-377.89 717.78,-386.12 728.13,-383.85 724.45,-377.89"/>
<text text-anchor="start" x="759" y="-261" font-family="Courier New" font-weight="bold" font-size="10.00" fill="orange">WAIT(0,SIG_CLOSE)</text>
</g>
<!-- letInOne -->
<g id="node9" class="node">
<title>letInOne</title>
<polyline fill="none" stroke="darkred" points="783.5,-7.5 856.5,-7.5"/>
<text text-anchor="start" x="786.5" y="-15.3" font-family="Courier New" font-weight="bold" font-size="14.00">letInOne</text>
<path fill="none" stroke="darkred" d="M789.5,-4.5C789.5,-4.5 850.5,-4.5 850.5,-4.5 855,-4.5 859.5,-9 859.5,-13.5 859.5,-13.5 859.5,-22.5 859.5,-22.5 859.5,-27 855,-31.5 850.5,-31.5 850.5,-31.5 789.5,-31.5 789.5,-31.5 785,-31.5 780.5,-27 780.5,-22.5 780.5,-22.5 780.5,-13.5 780.5,-13.5 780.5,-9 785,-4.5 789.5,-4.5"/>
</g>
<!-- tempOpen&#45;&gt;letInOne -->
<g id="edge10" class="edge">
<title>tempOpen&#45;&gt;letInOne</title>
<path fill="none" stroke="black" d="M768.85,-91.26C778.12,-78.17 791.17,-59.73 801.76,-44.76"/>
<polygon fill="black" stroke="black" points="805.07,-47.15 807.99,-36.97 799.35,-43.11 805.07,-47.15"/>
<text text-anchor="start" x="798" y="-62" font-family="Courier New" font-weight="bold" font-size="10.00" fill="orange">CLICK(0,0)</text>
</g>
<!-- letInOne&#45;&gt;Lock -->
<g id="edge9" class="edge">
<title>letInOne&#45;&gt;Lock</title>
<path fill="none" stroke="black" d="M848.52,-35.68C855.37,-40.82 862.11,-46.99 867,-54 881.33,-74.53 883,-82.97 883,-108 883,-309 883,-309 883,-309 883,-376.69 785.2,-393.18 727.42,-397.01"/>
<polygon fill="black" stroke="black" points="727.57,-393.55 717.78,-397.6 727.96,-400.54 727.57,-393.55"/>
<polygon fill="none" stroke="black" points="886,-215 886,-232 1145,-232 1145,-215 886,-215"/>
<text text-anchor="start" x="970" y="-222" font-family="Courier New" font-weight="bold" font-size="10.00" fill="blue">LOADVIEW(WIP1,)</text>
<polygon fill="none" stroke="black" points="886,-185 886,-213 1145,-213 1145,-185 886,-185"/>
<text text-anchor="start" x="889" y="-202" font-family="Courier New" font-size="10.00" fill="blue"> &#160;&#160;WRITE(&quot;unlocked SIGNAL THE FOUL WIND&quot;);</text>
<text text-anchor="start" x="889" y="-191" font-family="Courier New" font-size="10.00" fill="blue"> &#160;&#160;SIGNAL(WIP3,SIG_START);</text>
<polygon fill="none" stroke="black" points="883,-182 883,-235 1148,-235 1148,-182 883,-182"/>
</g>
<!-- status -->
<g id="node10" class="node">
<title>status</title>
<polygon fill="none" stroke="black" points="331.5,-506.5 331.5,-578.5 810.5,-578.5 810.5,-506.5 331.5,-506.5"/>
<polygon fill="none" stroke="black" points="342.5,-554.5 342.5,-571.5 799.5,-571.5 799.5,-554.5 342.5,-554.5"/>
<text text-anchor="start" x="534.5" y="-561.5" font-family="Courier New" font-weight="bold" font-size="10.00">S17_eDOORWAY</text>
<polygon fill="none" stroke="black" points="342.5,-513.5 342.5,-552.5 799.5,-552.5 799.5,-513.5 342.5,-513.5"/>
<text text-anchor="start" x="345.5" y="-541.5" font-family="Courier New" font-size="10.00" fill="green">VIEW::IDV_eMINEPAN @pos(left:280, top:75)</text>
<text text-anchor="start" x="345.5" y="-530.5" font-family="Courier New" font-size="10.00" fill="green">S17_eDOORWAY::M17_DOORWAY(&#39;IDV_eCV1aPAN&#39;,&#39;S17_eFFIELD1&#39;,&#39;S17_eFOULWIND&#39;,&#39;&#39;)</text>
<text text-anchor="start" x="345.5" y="-519.5" font-family="Courier New" font-size="10.00" fill="green">{state:&#39;0&#39;:</text>
<polygon fill="none" stroke="black" points="339.5,-510.5 339.5,-574.5 802.5,-574.5 802.5,-510.5 339.5,-510.5"/>
</g>
</g>
</svg>
