<?xml version="1.0" encoding="UTF-8" standalone="no"?>
<!DOCTYPE svg PUBLIC "-//W3C//DTD SVG 1.1//EN"
 "http://www.w3.org/Graphics/SVG/1.1/DTD/svg11.dtd">
<!-- Generated by graphviz version 8.0.1 (20230327.1645)
 -->
<!-- Title: Automaton Pages: 1 -->
<svg width="1049pt" height="319pt"
 viewBox="0.00 0.00 1049.48 319.00" xmlns="http://www.w3.org/2000/svg" xmlns:xlink="http://www.w3.org/1999/xlink">
<g id="graph0" class="graph" transform="scale(1 1) rotate(0) translate(4 315)">
<title>Automaton</title>
<polygon fill="white" stroke="none" points="-4,4 -4,-315 1045.48,-315 1045.48,4 -4,4"/>
<!-- filename -->
<g id="node1" class="node">
<title>filename</title>
<polygon fill="none" stroke="black" points="346.48,-249.5 346.48,-299.5 537.48,-299.5 537.48,-249.5 346.48,-249.5"/>
<polygon fill="none" stroke="black" points="357.48,-275.5 357.48,-292.5 526.48,-292.5 526.48,-275.5 357.48,-275.5"/>
<text text-anchor="start" x="360.48" y="-282.5" font-family="Courier New" font-weight="bold" font-size="10.00">S17_aFOULWIND::M17_FOULWIND</text>
<polygon fill="none" stroke="black" points="357.48,-256.5 357.48,-273.5 526.48,-273.5 526.48,-256.5 357.48,-256.5"/>
<text text-anchor="start" x="396.48" y="-262.5" font-family="Courier New" font-size="10.00" fill="brown">start state = 0</text>
<polygon fill="none" stroke="black" points="354.48,-253.5 354.48,-295.5 529.48,-295.5 529.48,-253.5 354.48,-253.5"/>
</g>
<!-- 0 -->
<g id="node2" class="node">
<title>0</title>
<polyline fill="none" stroke="darkred" stroke-width="3" points="574.98,-263.5 590.98,-263.5"/>
<text text-anchor="start" x="578.48" y="-271.8" font-family="Courier New" font-weight="bold" font-size="14.00">0</text>
<path fill="none" stroke="darkred" stroke-width="3" d="M578.64,-258.5C578.64,-258.5 587.31,-258.5 587.31,-258.5 591.64,-258.5 595.98,-262.83 595.98,-267.17 595.98,-267.17 595.98,-281.83 595.98,-281.83 595.98,-286.17 591.64,-290.5 587.31,-290.5 587.31,-290.5 578.64,-290.5 578.64,-290.5 574.31,-290.5 569.98,-286.17 569.98,-281.83 569.98,-281.83 569.98,-267.17 569.98,-267.17 569.98,-262.83 574.31,-258.5 578.64,-258.5"/>
</g>
<!-- loopTop -->
<g id="node3" class="node">
<title>loopTop</title>
<polyline fill="none" stroke="darkred" points="413.98,-154.5 477.98,-154.5"/>
<text text-anchor="start" x="416.98" y="-162.3" font-family="Courier New" font-weight="bold" font-size="14.00">loopTop</text>
<path fill="none" stroke="darkred" d="M419.98,-151.5C419.98,-151.5 471.98,-151.5 471.98,-151.5 476.48,-151.5 480.98,-156 480.98,-160.5 480.98,-160.5 480.98,-169.5 480.98,-169.5 480.98,-174 476.48,-178.5 471.98,-178.5 471.98,-178.5 419.98,-178.5 419.98,-178.5 415.48,-178.5 410.98,-174 410.98,-169.5 410.98,-169.5 410.98,-160.5 410.98,-160.5 410.98,-156 415.48,-151.5 419.98,-151.5"/>
</g>
<!-- 0&#45;&gt;loopTop -->
<g id="edge1" class="edge">
<title>0&#45;&gt;loopTop</title>
<path fill="none" stroke="black" d="M562.71,-253.07C557.4,-247.99 551.59,-242.67 545.98,-238 524.97,-220.51 500.02,-202.54 480.3,-188.93"/>
<polygon fill="black" stroke="black" points="482.59,-185.57 472.36,-182.81 478.64,-191.35 482.59,-185.57"/>
<text text-anchor="start" x="526.98" y="-209" font-family="Courier New" font-weight="bold" font-size="10.00" fill="orange">WAIT(0,SIG_START)</text>
</g>
<!-- bottomOfLoop -->
<g id="node4" class="node">
<title>bottomOfLoop</title>
<polyline fill="none" stroke="darkred" points="426.98,-7.5 532.98,-7.5"/>
<text text-anchor="start" x="429.98" y="-15.3" font-family="Courier New" font-weight="bold" font-size="14.00">bottomOfLoop</text>
<path fill="none" stroke="darkred" d="M432.98,-4.5C432.98,-4.5 526.98,-4.5 526.98,-4.5 531.48,-4.5 535.98,-9 535.98,-13.5 535.98,-13.5 535.98,-22.5 535.98,-22.5 535.98,-27 531.48,-31.5 526.98,-31.5 526.98,-31.5 432.98,-31.5 432.98,-31.5 428.48,-31.5 423.98,-27 423.98,-22.5 423.98,-22.5 423.98,-13.5 423.98,-13.5 423.98,-9 428.48,-4.5 432.98,-4.5"/>
</g>
<!-- loopTop&#45;&gt;bottomOfLoop -->
<g id="edge5" class="edge">
<title>loopTop&#45;&gt;bottomOfLoop</title>
<path fill="none" stroke="black" d="M403.26,-163.72C299.89,-162.61 42.8,-157.02 16.98,-129 -5.62,-104.49 -5.69,-78.44 16.98,-54 42.78,-26.17 281.16,-20.35 405.41,-19.21"/>
<polygon fill="black" stroke="black" points="405.37,-22.7 415.34,-19.12 405.31,-15.7 405.37,-22.7"/>
<polygon fill="none" stroke="black" points="19.98,-109 19.98,-126 392.98,-126 392.98,-109 19.98,-109"/>
<text text-anchor="start" x="172.98" y="-116" font-family="Courier New" font-weight="bold" font-size="10.00" fill="blue">ESTIME(0,5)</text>
<polygon fill="none" stroke="black" points="19.98,-57 19.98,-107 392.98,-107 392.98,-57 19.98,-57"/>
<text text-anchor="start" x="22.98" y="-96" font-family="Courier New" font-size="10.00" fill="blue"> &#160;&#160;&#160;//TODO need to look for protection spell nybreath and fan</text>
<text text-anchor="start" x="22.98" y="-85" font-family="Courier New" font-size="10.00" fill="blue"> &#160;&#160;&#160;PLAYWAVE(SOUND_BURBLE);</text>
<text text-anchor="start" x="22.98" y="-74" font-family="Courier New" font-size="10.00" fill="blue"> &#160;&#160;&#160;SIGNAL(SID_DEC_ENERGY,SIG_DEC);</text>
<text text-anchor="start" x="22.98" y="-63" font-family="Courier New" font-size="10.00" fill="blue"> &#160;&#160;&#160;WRITE(&quot;I PAIN YOU!&quot;);</text>
<polygon fill="none" stroke="black" points="16.98,-54 16.98,-129 395.98,-129 395.98,-54 16.98,-54"/>
</g>
<!-- bottomOfLoop&#45;&gt;0 -->
<g id="edge4" class="edge">
<title>bottomOfLoop&#45;&gt;0</title>
<path fill="none" stroke="black" d="M543.62,-22.8C589.92,-27.05 647.02,-35.89 661.98,-54 709.45,-111.47 675.57,-155.63 637.98,-220 637.46,-220.88 624.77,-233.25 611.71,-245.86"/>
<polygon fill="black" stroke="black" points="609.83,-242.78 605.06,-252.24 614.69,-247.81 609.83,-242.78"/>
<text text-anchor="start" x="680.98" y="-163.5" font-family="Courier New" font-weight="bold" font-size="10.00" fill="blue">Z_EPSILON(,)</text>
</g>
<!-- bottomOfLoop&#45;&gt;loopTop -->
<g id="edge2" class="edge">
<title>bottomOfLoop&#45;&gt;loopTop</title>
<path fill="none" stroke="black" d="M429.69,-35.95C422.24,-40.64 415.54,-46.56 410.98,-54 393.53,-82.41 398.22,-98.2 410.98,-129 412.43,-132.52 414.44,-135.87 416.75,-139.01"/>
<polygon fill="black" stroke="black" points="414.71,-140.99 423.91,-146.23 419.99,-136.39 414.71,-140.99"/>
<text text-anchor="start" x="414.98" y="-90" font-family="Courier New" font-weight="bold" font-size="10.00" fill="blue">EQUALi(LVIEW,WIP1)</text>
</g>
<!-- bottomOfLoop&#45;&gt;loopTop -->
<g id="edge3" class="edge">
<title>bottomOfLoop&#45;&gt;loopTop</title>
<path fill="none" stroke="black" d="M512.03,-35.83C518.45,-40.78 524.33,-46.83 527.98,-54 543.08,-83.71 546.35,-101.19 527.98,-129 521.05,-139.49 510.26,-146.85 498.77,-152"/>
<polygon fill="black" stroke="black" points="497.6,-149.09 489.56,-155.99 500.15,-155.61 497.6,-149.09"/>
<text text-anchor="start" x="544.98" y="-90" font-family="Courier New" font-weight="bold" font-size="10.00" fill="blue">EQUALi(LVIEW,WIP2)</text>
</g>
<!-- status -->
<g id="node5" class="node">
<title>status</title>
<polygon fill="none" stroke="black" points="628.48,-238.5 628.48,-310.5 1041.48,-310.5 1041.48,-238.5 628.48,-238.5"/>
<polygon fill="none" stroke="black" points="639.48,-286.5 639.48,-303.5 1030.48,-303.5 1030.48,-286.5 639.48,-286.5"/>
<text text-anchor="start" x="795.48" y="-293.5" font-family="Courier New" font-weight="bold" font-size="10.00">S17_aFOULWIND</text>
<polygon fill="none" stroke="black" points="639.48,-245.5 639.48,-284.5 1030.48,-284.5 1030.48,-245.5 639.48,-245.5"/>
<text text-anchor="start" x="642.48" y="-273.5" font-family="Courier New" font-size="10.00" fill="green">VIEW::IDV_aCV1bPAN @pos(left:0, top:0)</text>
<text text-anchor="start" x="642.48" y="-262.5" font-family="Courier New" font-size="10.00" fill="green">S17_aFOULWIND::M17_FOULWIND(&#39;IDV_aCV1bPAN&#39;,&#39;IDV_aCV1aPAN&#39;,&#39;&#39;,&#39;&#39;)</text>
<text text-anchor="start" x="642.48" y="-251.5" font-family="Courier New" font-size="10.00" fill="green">{state:&#39;0&#39;:</text>
<polygon fill="none" stroke="black" points="636.48,-242.5 636.48,-306.5 1033.48,-306.5 1033.48,-242.5 636.48,-242.5"/>
</g>
</g>
</svg>
