<?xml version="1.0" encoding="UTF-8" standalone="no"?>
<!DOCTYPE svg PUBLIC "-//W3C//DTD SVG 1.1//EN"
 "http://www.w3.org/Graphics/SVG/1.1/DTD/svg11.dtd">
<!-- Generated by graphviz version 8.0.1 (20230327.1645)
 -->
<!-- Title: Automaton Pages: 1 -->
<svg width="631pt" height="343pt"
 viewBox="0.00 0.00 631.00 343.00" xmlns="http://www.w3.org/2000/svg" xmlns:xlink="http://www.w3.org/1999/xlink">
<g id="graph0" class="graph" transform="scale(1 1) rotate(0) translate(4 339)">
<title>Automaton</title>
<polygon fill="white" stroke="none" points="-4,4 -4,-339 627,-339 627,4 -4,4"/>
<!-- filename -->
<g id="node1" class="node">
<title>filename</title>
<polygon fill="none" stroke="black" points="0,-279 0,-329 191,-329 191,-279 0,-279"/>
<polygon fill="none" stroke="black" points="11,-305 11,-322 180,-322 180,-305 11,-305"/>
<text text-anchor="start" x="14" y="-312" font-family="Courier New" font-weight="bold" font-size="10.00">S17_aFOULWIND::M17_FOULWIND</text>
<polygon fill="none" stroke="black" points="11,-286 11,-303 180,-303 180,-286 11,-286"/>
<text text-anchor="start" x="50" y="-292" font-family="Courier New" font-size="10.00" fill="brown">start state = 0</text>
<polygon fill="none" stroke="black" points="8,-283 8,-325 183,-325 183,-283 8,-283"/>
</g>
<!-- 0 -->
<g id="node2" class="node">
<title>0</title>
<polyline fill="none" stroke="darkred" stroke-width="3" points="228.5,-293 244.5,-293"/>
<text text-anchor="start" x="232" y="-301.3" font-family="Courier New" font-weight="bold" font-size="14.00">0</text>
<path fill="none" stroke="darkred" stroke-width="3" d="M232.17,-288C232.17,-288 240.83,-288 240.83,-288 245.17,-288 249.5,-292.33 249.5,-296.67 249.5,-296.67 249.5,-311.33 249.5,-311.33 249.5,-315.67 245.17,-320 240.83,-320 240.83,-320 232.17,-320 232.17,-320 227.83,-320 223.5,-315.67 223.5,-311.33 223.5,-311.33 223.5,-296.67 223.5,-296.67 223.5,-292.33 227.83,-288 232.17,-288"/>
</g>
<!-- 1 -->
<g id="node3" class="node">
<title>1</title>
<polyline fill="none" stroke="darkred" points="78,-189.5 93,-189.5"/>
<text text-anchor="start" x="81" y="-197.3" font-family="Courier New" font-weight="bold" font-size="14.00">1</text>
<path fill="none" stroke="darkred" d="M82,-186.5C82,-186.5 89,-186.5 89,-186.5 92.5,-186.5 96,-190 96,-193.5 96,-193.5 96,-206.5 96,-206.5 96,-210 92.5,-213.5 89,-213.5 89,-213.5 82,-213.5 82,-213.5 78.5,-213.5 75,-210 75,-206.5 75,-206.5 75,-193.5 75,-193.5 75,-190 78.5,-186.5 82,-186.5"/>
</g>
<!-- 0&#45;&gt;1 -->
<g id="edge1" class="edge">
<title>0&#45;&gt;1</title>
<path fill="none" stroke="black" d="M213.29,-282.68C208.86,-279.24 204.15,-275.86 199.5,-273 182.9,-262.78 176.35,-264.8 159.5,-255 144.08,-246.04 127.98,-234.57 114.74,-224.5"/>
<polygon fill="black" stroke="black" points="117.13,-221.16 107.08,-217.81 112.85,-226.7 117.13,-221.16"/>
<text text-anchor="start" x="163.5" y="-244" font-family="Courier New" font-weight="bold" font-size="10.00" fill="orange">WAIT(0,0)</text>
</g>
<!-- 2 -->
<g id="node4" class="node">
<title>2</title>
<polyline fill="none" stroke="darkred" points="96,-98.5 111,-98.5"/>
<text text-anchor="start" x="99" y="-106.3" font-family="Courier New" font-weight="bold" font-size="14.00">2</text>
<path fill="none" stroke="darkred" d="M100,-95.5C100,-95.5 107,-95.5 107,-95.5 110.5,-95.5 114,-99 114,-102.5 114,-102.5 114,-115.5 114,-115.5 114,-119 110.5,-122.5 107,-122.5 107,-122.5 100,-122.5 100,-122.5 96.5,-122.5 93,-119 93,-115.5 93,-115.5 93,-102.5 93,-102.5 93,-99 96.5,-95.5 100,-95.5"/>
</g>
<!-- 1&#45;&gt;2 -->
<g id="edge2" class="edge">
<title>1&#45;&gt;2</title>
<path fill="none" stroke="black" d="M70.37,-182.38C62.52,-171.66 55.67,-157.45 61.5,-145 63.35,-141.05 65.89,-137.39 68.81,-134.05"/>
<polygon fill="black" stroke="black" points="70.95,-136.87 75.68,-127.39 66.07,-131.85 70.95,-136.87"/>
<text text-anchor="start" x="65.5" y="-153" font-family="Courier New" font-weight="bold" font-size="10.00" fill="blue">PLAYWAVE(0,SOUND_BURBLE)</text>
</g>
<!-- 4 -->
<g id="node5" class="node">
<title>4</title>
<polyline fill="none" stroke="darkred" points="229,-7.5 244,-7.5"/>
<text text-anchor="start" x="232" y="-15.3" font-family="Courier New" font-weight="bold" font-size="14.00">4</text>
<path fill="none" stroke="darkred" d="M233,-4.5C233,-4.5 240,-4.5 240,-4.5 243.5,-4.5 247,-8 247,-11.5 247,-11.5 247,-24.5 247,-24.5 247,-28 243.5,-31.5 240,-31.5 240,-31.5 233,-31.5 233,-31.5 229.5,-31.5 226,-28 226,-24.5 226,-24.5 226,-11.5 226,-11.5 226,-8 229.5,-4.5 233,-4.5"/>
</g>
<!-- 2&#45;&gt;4 -->
<g id="edge3" class="edge">
<title>2&#45;&gt;4</title>
<path fill="none" stroke="black" d="M113.82,-91.19C121.78,-79.42 133.73,-64.06 147.5,-54 163.04,-42.65 182.76,-34.4 199.69,-28.77"/>
<polygon fill="black" stroke="black" points="200.31,-31.93 208.8,-25.6 198.21,-25.25 200.31,-31.93"/>
<text text-anchor="start" x="151.5" y="-62" font-family="Courier New" font-weight="bold" font-size="10.00" fill="blue">ESTIME(0,5)</text>
</g>
<!-- 4&#45;&gt;0 -->
<g id="edge4" class="edge">
<title>4&#45;&gt;0</title>
<path fill="none" stroke="black" d="M236.5,-35.94C236.5,-82.34 236.5,-211.98 236.5,-271.9"/>
<polygon fill="black" stroke="black" points="233,-271.58 236.5,-281.58 240,-271.58 233,-271.58"/>
<text text-anchor="start" x="240.5" y="-153" font-family="Courier New" font-weight="bold" font-size="10.00" fill="blue">NEQUALi(LVIEW,WIP1)</text>
</g>
<!-- 4&#45;&gt;0 -->
<g id="edge5" class="edge">
<title>4&#45;&gt;0</title>
<path fill="none" stroke="black" d="M263.48,-32.31C306.23,-55.43 382.56,-106.12 360.5,-164 350.72,-189.67 299.31,-242.48 265.83,-275.11"/>
<polygon fill="black" stroke="black" points="263.91,-272.07 259.16,-281.54 268.78,-277.1 263.91,-272.07"/>
<text text-anchor="start" x="368.5" y="-153" font-family="Courier New" font-weight="bold" font-size="10.00" fill="blue">SIGNALi(0,SID_DEC_ENERGY)</text>
</g>
<!-- status -->
<g id="node6" class="node">
<title>status</title>
<polygon fill="none" stroke="black" points="282,-273.5 282,-334.5 623,-334.5 623,-273.5 282,-273.5"/>
<polygon fill="none" stroke="black" points="293,-310.5 293,-327.5 612,-327.5 612,-310.5 293,-310.5"/>
<text text-anchor="start" x="413" y="-317.5" font-family="Courier New" font-weight="bold" font-size="10.00">S17_aFOULWIND</text>
<polygon fill="none" stroke="black" points="293,-280.5 293,-308.5 612,-308.5 612,-280.5 293,-280.5"/>
<text text-anchor="start" x="296" y="-297.5" font-family="Courier New" font-size="10.00" fill="green">S17_aFOULWIND::M17_FOULWIND(&#39;IDV_aCV1bPAN&#39;,&#39;&#39;,&#39;&#39;,&#39;&#39;)</text>
<text text-anchor="start" x="296" y="-286.5" font-family="Courier New" font-size="10.00" fill="green">{&#39;0&#39;:}</text>
<polygon fill="none" stroke="black" points="290,-277.5 290,-330.5 615,-330.5 615,-277.5 290,-277.5"/>
</g>
</g>
</svg>
