<?xml version="1.0" encoding="UTF-8" standalone="no"?>
<!DOCTYPE svg PUBLIC "-//W3C//DTD SVG 1.1//EN"
 "http://www.w3.org/Graphics/SVG/1.1/DTD/svg11.dtd">
<!-- Generated by graphviz version 8.0.1 (20230327.1645)
 -->
<!-- Title: Automaton Pages: 1 -->
<svg width="589pt" height="261pt"
 viewBox="0.00 0.00 589.00 261.00" xmlns="http://www.w3.org/2000/svg" xmlns:xlink="http://www.w3.org/1999/xlink">
<g id="graph0" class="graph" transform="scale(1 1) rotate(0) translate(4 257)">
<title>Automaton</title>
<polygon fill="white" stroke="none" points="-4,4 -4,-257 585,-257 585,4 -4,4"/>
<!-- filename -->
<g id="node1" class="node">
<title>filename</title>
<polygon fill="none" stroke="black" points="0,-191.5 0,-241.5 173,-241.5 173,-191.5 0,-191.5"/>
<polygon fill="none" stroke="black" points="11,-217.5 11,-234.5 162,-234.5 162,-217.5 11,-217.5"/>
<text text-anchor="start" x="14" y="-224.5" font-family="Courier New" font-weight="bold" font-size="10.00">S19_RACEGATE::M_RACEGATE</text>
<polygon fill="none" stroke="black" points="11,-198.5 11,-215.5 162,-215.5 162,-198.5 11,-198.5"/>
<text text-anchor="start" x="41" y="-204.5" font-family="Courier New" font-size="10.00" fill="brown">start state = 0</text>
<polygon fill="none" stroke="black" points="8,-195.5 8,-237.5 165,-237.5 165,-195.5 8,-195.5"/>
</g>
<!-- 0 -->
<g id="node2" class="node">
<title>0</title>
<polyline fill="none" stroke="darkred" stroke-width="3" points="210.5,-205.5 226.5,-205.5"/>
<text text-anchor="start" x="214" y="-213.8" font-family="Courier New" font-weight="bold" font-size="14.00">0</text>
<path fill="none" stroke="darkred" stroke-width="3" d="M214.17,-200.5C214.17,-200.5 222.83,-200.5 222.83,-200.5 227.17,-200.5 231.5,-204.83 231.5,-209.17 231.5,-209.17 231.5,-223.83 231.5,-223.83 231.5,-228.17 227.17,-232.5 222.83,-232.5 222.83,-232.5 214.17,-232.5 214.17,-232.5 209.83,-232.5 205.5,-228.17 205.5,-223.83 205.5,-223.83 205.5,-209.17 205.5,-209.17 205.5,-204.83 209.83,-200.5 214.17,-200.5"/>
</g>
<!-- 1 -->
<g id="node3" class="node">
<title>1</title>
<polyline fill="none" stroke="darkred" points="211,-7.5 226,-7.5"/>
<text text-anchor="start" x="214" y="-15.3" font-family="Courier New" font-weight="bold" font-size="14.00">1</text>
<path fill="none" stroke="darkred" d="M215,-4.5C215,-4.5 222,-4.5 222,-4.5 225.5,-4.5 229,-8 229,-11.5 229,-11.5 229,-24.5 229,-24.5 229,-28 225.5,-31.5 222,-31.5 222,-31.5 215,-31.5 215,-31.5 211.5,-31.5 208,-28 208,-24.5 208,-24.5 208,-11.5 208,-11.5 208,-8 211.5,-4.5 215,-4.5"/>
</g>
<!-- 0&#45;&gt;1 -->
<g id="edge1" class="edge">
<title>0&#45;&gt;1</title>
<path fill="none" stroke="black" d="M201.36,-195.09C195.6,-189.4 188.78,-183.76 181.5,-180 143.71,-160.47 114.6,-194.78 87.5,-162 56.92,-125 58.27,-92.07 87.5,-54 98.85,-39.22 146.29,-29.33 180.82,-23.94"/>
<polygon fill="black" stroke="black" points="181.14,-27.28 190.52,-22.35 180.11,-20.36 181.14,-27.28"/>
<polygon fill="none" stroke="black" points="90.5,-142 90.5,-159 325.5,-159 325.5,-142 90.5,-142"/>
<text text-anchor="start" x="180.5" y="-149" font-family="Courier New" font-weight="bold" font-size="10.00" fill="orange">CLICK(0,)</text>
<polygon fill="none" stroke="black" points="90.5,-57 90.5,-140 325.5,-140 325.5,-57 90.5,-57"/>
<text text-anchor="start" x="93.5" y="-129" font-family="Courier New" font-size="10.00" fill="blue"> &#160;&#160;&#160;REF_MACHINE(S19_COVER1);</text>
<text text-anchor="start" x="93.5" y="-118" font-family="Courier New" font-size="10.00" fill="blue"> &#160;&#160;&#160;if( (IFSTATE(done,S19_COVER1)) </text>
<text text-anchor="start" x="93.5" y="-107" font-family="Courier New" font-size="10.00" fill="blue"> &#160;&#160;&#160;&#160;&amp;&amp; ( IFSTATE(done,S19_COVER2)) </text>
<text text-anchor="start" x="93.5" y="-96" font-family="Courier New" font-size="10.00" fill="blue"> &#160;&#160;&#160;&#160;&amp;&amp; ( IFSTATE(done,S19_COVER3)) ){</text>
<text text-anchor="start" x="93.5" y="-85" font-family="Courier New" font-size="10.00" fill="blue"> &#160;&#160;&#160;&#160;&#160;&#160;&#160;LOADVIEW(WIP1);</text>
<text text-anchor="start" x="93.5" y="-74" font-family="Courier New" font-size="10.00" fill="blue"> &#160;&#160;&#160;&#160;&#160;&#160;&#160;//signal continent activation</text>
<text text-anchor="start" x="93.5" y="-63" font-family="Courier New" font-size="10.00" fill="blue"> &#160;&#160;&#160;&#160;}</text>
<polygon fill="none" stroke="black" points="87.5,-54 87.5,-162 328.5,-162 328.5,-54 87.5,-54"/>
</g>
<!-- 1&#45;&gt;0 -->
<g id="edge2" class="edge">
<title>1&#45;&gt;0</title>
<path fill="none" stroke="black" d="M245.32,-19.15C271.34,-20.92 309.57,-28.12 328.5,-54 356.83,-92.75 358.1,-124.21 328.5,-162 307.89,-188.31 284.77,-163.88 255.5,-180 251.46,-182.22 247.55,-185 243.87,-188.01"/>
<polygon fill="black" stroke="black" points="241.84,-185.02 236.77,-194.32 246.53,-190.22 241.84,-185.02"/>
<text text-anchor="start" x="353.5" y="-106.5" font-family="Courier New" font-weight="bold" font-size="10.00" fill="blue">Z_EPSILON(0,)</text>
</g>
<!-- status -->
<g id="node4" class="node">
<title>status</title>
<polygon fill="none" stroke="black" points="264,-180.5 264,-252.5 581,-252.5 581,-180.5 264,-180.5"/>
<polygon fill="none" stroke="black" points="275,-228.5 275,-245.5 570,-245.5 570,-228.5 275,-228.5"/>
<text text-anchor="start" x="386" y="-235.5" font-family="Courier New" font-weight="bold" font-size="10.00">S19_RACEGATE</text>
<polygon fill="none" stroke="black" points="275,-187.5 275,-226.5 570,-226.5 570,-187.5 275,-187.5"/>
<text text-anchor="start" x="278" y="-215.5" font-family="Courier New" font-size="10.00" fill="green">VIEW::IDV_NAT1D @pos(left:2710, top:112)</text>
<text text-anchor="start" x="278" y="-204.5" font-family="Courier New" font-size="10.00" fill="green">S19_RACEGATE::M_RACEGATE(&#39;IDV_RACEPAN&#39;,&#39;&#39;,&#39;&#39;,&#39;&#39;)</text>
<text text-anchor="start" x="278" y="-193.5" font-family="Courier New" font-size="10.00" fill="green">{state:&#39;0&#39;:</text>
<polygon fill="none" stroke="black" points="272,-184.5 272,-248.5 573,-248.5 573,-184.5 272,-184.5"/>
</g>
</g>
</svg>
