<?xml version="1.0" encoding="UTF-8" standalone="no"?>
<!DOCTYPE svg PUBLIC "-//W3C//DTD SVG 1.1//EN"
 "http://www.w3.org/Graphics/SVG/1.1/DTD/svg11.dtd">
<!-- Generated by graphviz version 8.0.1 (20230327.1645)
 -->
<!-- Title: Automaton Pages: 1 -->
<svg width="793pt" height="440pt"
 viewBox="0.00 0.00 793.00 440.00" xmlns="http://www.w3.org/2000/svg" xmlns:xlink="http://www.w3.org/1999/xlink">
<g id="graph0" class="graph" transform="scale(1 1) rotate(0) translate(4 436)">
<title>Automaton</title>
<polygon fill="white" stroke="none" points="-4,4 -4,-436 789,-436 789,4 -4,4"/>
<!-- filename -->
<g id="node1" class="node">
<title>filename</title>
<polygon fill="none" stroke="black" points="0,-370.5 0,-420.5 227,-420.5 227,-370.5 0,-370.5"/>
<polygon fill="none" stroke="black" points="11,-396.5 11,-413.5 216,-413.5 216,-396.5 11,-396.5"/>
<text text-anchor="start" x="14" y="-403.5" font-family="Courier New" font-weight="bold" font-size="10.00">S19_SPINNER_BOTTOM_PICK::M19_PICK</text>
<polygon fill="none" stroke="black" points="11,-377.5 11,-394.5 216,-394.5 216,-377.5 11,-377.5"/>
<text text-anchor="start" x="68" y="-383.5" font-family="Courier New" font-size="10.00" fill="brown">start state = 0</text>
<polygon fill="none" stroke="black" points="8,-374.5 8,-416.5 219,-416.5 219,-374.5 8,-374.5"/>
</g>
<!-- 0 -->
<g id="node2" class="node">
<title>0</title>
<polyline fill="none" stroke="darkred" points="265,-385 280,-385"/>
<text text-anchor="start" x="268" y="-392.8" font-family="Courier New" font-weight="bold" font-size="14.00">0</text>
<path fill="none" stroke="darkred" d="M269,-382C269,-382 276,-382 276,-382 279.5,-382 283,-385.5 283,-389 283,-389 283,-402 283,-402 283,-405.5 279.5,-409 276,-409 276,-409 269,-409 269,-409 265.5,-409 262,-405.5 262,-402 262,-402 262,-389 262,-389 262,-385.5 265.5,-382 269,-382"/>
</g>
<!-- setup -->
<g id="node3" class="node">
<title>setup</title>
<polyline fill="none" stroke="darkred" points="170.5,-252.5 218.5,-252.5"/>
<text text-anchor="start" x="173.5" y="-260.3" font-family="Courier New" font-weight="bold" font-size="14.00">setup</text>
<path fill="none" stroke="darkred" d="M176.5,-249.5C176.5,-249.5 212.5,-249.5 212.5,-249.5 217,-249.5 221.5,-254 221.5,-258.5 221.5,-258.5 221.5,-267.5 221.5,-267.5 221.5,-272 217,-276.5 212.5,-276.5 212.5,-276.5 176.5,-276.5 176.5,-276.5 172,-276.5 167.5,-272 167.5,-267.5 167.5,-267.5 167.5,-258.5 167.5,-258.5 167.5,-254 172,-249.5 176.5,-249.5"/>
</g>
<!-- 0&#45;&gt;setup -->
<g id="edge1" class="edge">
<title>0&#45;&gt;setup</title>
<path fill="none" stroke="black" d="M257.28,-377.74C250.95,-371.36 243.27,-364.36 235.5,-359 220.11,-348.39 207.8,-356.59 197.5,-341 188.01,-326.63 187.3,-307.24 188.95,-291.51"/>
<polygon fill="black" stroke="black" points="192.53,-292.22 190.47,-281.83 185.6,-291.23 192.53,-292.22"/>
<polygon fill="none" stroke="black" points="200.5,-321 200.5,-338 333.5,-338 333.5,-321 200.5,-321"/>
<text text-anchor="start" x="215.5" y="-328" font-family="Courier New" font-weight="bold" font-size="10.00" fill="blue">MOV(WSPRITE,WIP1)</text>
<polygon fill="none" stroke="black" points="200.5,-302 200.5,-319 333.5,-319 333.5,-302 200.5,-302"/>
<text text-anchor="start" x="203.5" y="-308" font-family="Courier New" font-size="10.00" fill="blue"> &#160;&#160;&#160;ASSIGN(WTEMP1,0);</text>
<polygon fill="none" stroke="black" points="197.5,-299 197.5,-341 336.5,-341 336.5,-299 197.5,-299"/>
</g>
<!-- randomGenned -->
<g id="node5" class="node">
<title>randomGenned</title>
<polyline fill="none" stroke="darkred" points="132.5,-161.5 238.5,-161.5"/>
<text text-anchor="start" x="135.5" y="-169.3" font-family="Courier New" font-weight="bold" font-size="14.00">randomGenned</text>
<path fill="none" stroke="darkred" d="M138.5,-158.5C138.5,-158.5 232.5,-158.5 232.5,-158.5 237,-158.5 241.5,-163 241.5,-167.5 241.5,-167.5 241.5,-176.5 241.5,-176.5 241.5,-181 237,-185.5 232.5,-185.5 232.5,-185.5 138.5,-185.5 138.5,-185.5 134,-185.5 129.5,-181 129.5,-176.5 129.5,-176.5 129.5,-167.5 129.5,-167.5 129.5,-163 134,-158.5 138.5,-158.5"/>
</g>
<!-- setup&#45;&gt;randomGenned -->
<g id="edge4" class="edge">
<title>setup&#45;&gt;randomGenned</title>
<path fill="none" stroke="black" d="M192.81,-245.26C191.55,-232.78 189.79,-215.46 188.32,-200.9"/>
<polygon fill="black" stroke="black" points="191.7,-200.56 187.22,-190.97 184.74,-201.27 191.7,-200.56"/>
<text text-anchor="start" x="195.5" y="-216" font-family="Courier New" font-weight="bold" font-size="10.00" fill="blue">RAND(8,1)</text>
</g>
<!-- frameMapped -->
<g id="node4" class="node">
<title>frameMapped</title>
<polyline fill="none" stroke="darkred" stroke-width="3" points="218.5,-10.5 316.5,-10.5"/>
<text text-anchor="start" x="222" y="-18.8" font-family="Courier New" font-weight="bold" font-size="14.00">frameMapped</text>
<path fill="none" stroke="darkred" stroke-width="3" d="M224.17,-5.5C224.17,-5.5 310.83,-5.5 310.83,-5.5 316.17,-5.5 321.5,-10.83 321.5,-16.17 321.5,-16.17 321.5,-26.83 321.5,-26.83 321.5,-32.17 316.17,-37.5 310.83,-37.5 310.83,-37.5 224.17,-37.5 224.17,-37.5 218.83,-37.5 213.5,-32.17 213.5,-26.83 213.5,-26.83 213.5,-16.17 213.5,-16.17 213.5,-10.83 218.83,-5.5 224.17,-5.5"/>
</g>
<!-- frameMapped&#45;&gt;0 -->
<g id="edge2" class="edge">
<title>frameMapped&#45;&gt;0</title>
<path fill="none" stroke="black" d="M319.24,-42.92C326.13,-47.82 332.26,-53.78 336.5,-61 399.51,-168.31 396.13,-231.77 336.5,-341 329.41,-353.98 320.05,-349.76 308.5,-359 304.16,-362.48 299.76,-366.41 295.6,-370.35"/>
<polygon fill="black" stroke="black" points="293.65,-367.34 288.96,-376.85 298.55,-372.34 293.65,-367.34"/>
<text text-anchor="start" x="385.5" y="-216" font-family="Courier New" font-weight="bold" font-size="10.00" fill="orange">WAIT(0,SIG_SPIN)</text>
</g>
<!-- randomGenned&#45;&gt;frameMapped -->
<g id="edge3" class="edge">
<title>randomGenned&#45;&gt;frameMapped</title>
<path fill="none" stroke="black" d="M180.32,-154.19C174.31,-131.19 167.38,-89.53 185.5,-61 188.3,-56.59 191.76,-52.67 195.66,-49.19"/>
<polygon fill="black" stroke="black" points="197.38,-51.52 203.2,-42.67 193.13,-45.96 197.38,-51.52"/>
<polygon fill="none" stroke="black" points="188.5,-116 188.5,-133 333.5,-133 333.5,-116 188.5,-116"/>
<text text-anchor="start" x="209.5" y="-123" font-family="Courier New" font-weight="bold" font-size="10.00" fill="blue">MOV(WTEMP1,WRAND)</text>
<polygon fill="none" stroke="black" points="188.5,-64 188.5,-114 333.5,-114 333.5,-64 188.5,-64"/>
<text text-anchor="start" x="191.5" y="-103" font-family="Courier New" font-size="10.00" fill="blue"> &#160;&#160;&#160;MAPi(WTEMP1,WIP3);</text>
<text text-anchor="start" x="191.5" y="-92" font-family="Courier New" font-size="10.00" fill="blue"> &#160;&#160;&#160;MOV(BFRAME,WTEMP1);</text>
<text text-anchor="start" x="191.5" y="-81" font-family="Courier New" font-size="10.00" fill="blue"> &#160;&#160;&#160;SHOW(WSPRITE);</text>
<text text-anchor="start" x="191.5" y="-70" font-family="Courier New" font-size="10.00" fill="blue"> &#160;&#160;&#160;MOV(WPARM,WTEMP1);</text>
<polygon fill="none" stroke="black" points="185.5,-61 185.5,-136 336.5,-136 336.5,-61 185.5,-61"/>
</g>
<!-- status -->
<g id="node6" class="node">
<title>status</title>
<polygon fill="none" stroke="black" points="318,-359.5 318,-431.5 785,-431.5 785,-359.5 318,-359.5"/>
<polygon fill="none" stroke="black" points="329,-407.5 329,-424.5 774,-424.5 774,-407.5 329,-407.5"/>
<text text-anchor="start" x="482" y="-414.5" font-family="Courier New" font-weight="bold" font-size="10.00">S19_SPINNER_BOTTOM_PICK</text>
<polygon fill="none" stroke="black" points="329,-366.5 329,-405.5 774,-405.5 774,-366.5 329,-366.5"/>
<text text-anchor="start" x="332" y="-394.5" font-family="Courier New" font-size="10.00" fill="green">VIEW::IDV_RACEPAN @pos(left:435, top:0)</text>
<text text-anchor="start" x="332" y="-383.5" font-family="Courier New" font-size="10.00" fill="green">S19_SPINNER_BOTTOM_PICK::M19_PICK(&#39;IDS_BOTSPIN&#39;,&#39;8&#39;,&#39;S19_BOTSPIN_MAP&#39;,&#39;&#39;)</text>
<text text-anchor="start" x="332" y="-372.5" font-family="Courier New" font-size="10.00" fill="green">{&#39;frameMapped&#39;: wParm:2 wSprite:bspin bFrame:2</text>
<polygon fill="none" stroke="black" points="326,-363.5 326,-427.5 777,-427.5 777,-363.5 326,-363.5"/>
</g>
</g>
</svg>
