<?xml version="1.0" encoding="UTF-8" standalone="no"?>
<!DOCTYPE svg PUBLIC "-//W3C//DTD SVG 1.1//EN"
 "http://www.w3.org/Graphics/SVG/1.1/DTD/svg11.dtd">
<!-- Generated by graphviz version 8.0.1 (20230327.1645)
 -->
<!-- Title: Automaton Pages: 1 -->
<svg width="667pt" height="499pt"
 viewBox="0.00 0.00 667.00 499.00" xmlns="http://www.w3.org/2000/svg" xmlns:xlink="http://www.w3.org/1999/xlink">
<g id="graph0" class="graph" transform="scale(1 1) rotate(0) translate(4 495)">
<title>Automaton</title>
<polygon fill="white" stroke="none" points="-4,4 -4,-495 663,-495 663,4 -4,4"/>
<!-- filename -->
<g id="node1" class="node">
<title>filename</title>
<polygon fill="none" stroke="black" points="0,-429.5 0,-479.5 191,-479.5 191,-429.5 0,-429.5"/>
<polygon fill="none" stroke="black" points="11,-455.5 11,-472.5 180,-472.5 180,-455.5 11,-455.5"/>
<text text-anchor="start" x="14" y="-462.5" font-family="Courier New" font-weight="bold" font-size="10.00">S19_PAYRESET::M19_PAYBUCKET</text>
<polygon fill="none" stroke="black" points="11,-436.5 11,-453.5 180,-453.5 180,-436.5 11,-436.5"/>
<text text-anchor="start" x="50" y="-442.5" font-family="Courier New" font-size="10.00" fill="brown">start state = 0</text>
<polygon fill="none" stroke="black" points="8,-433.5 8,-475.5 183,-475.5 183,-433.5 8,-433.5"/>
</g>
<!-- 0 -->
<g id="node2" class="node">
<title>0</title>
<polyline fill="none" stroke="darkred" stroke-width="3" points="228.5,-443.5 244.5,-443.5"/>
<text text-anchor="start" x="232" y="-451.8" font-family="Courier New" font-weight="bold" font-size="14.00">0</text>
<path fill="none" stroke="darkred" stroke-width="3" d="M232.17,-438.5C232.17,-438.5 240.83,-438.5 240.83,-438.5 245.17,-438.5 249.5,-442.83 249.5,-447.17 249.5,-447.17 249.5,-461.83 249.5,-461.83 249.5,-466.17 245.17,-470.5 240.83,-470.5 240.83,-470.5 232.17,-470.5 232.17,-470.5 227.83,-470.5 223.5,-466.17 223.5,-461.83 223.5,-461.83 223.5,-447.17 223.5,-447.17 223.5,-442.83 227.83,-438.5 232.17,-438.5"/>
</g>
<!-- accept_pay -->
<g id="node3" class="node">
<title>accept_pay</title>
<polyline fill="none" stroke="darkred" points="98,-245.5 187,-245.5"/>
<text text-anchor="start" x="101" y="-253.3" font-family="Courier New" font-weight="bold" font-size="14.00">accept_pay</text>
<path fill="none" stroke="darkred" d="M104,-242.5C104,-242.5 181,-242.5 181,-242.5 185.5,-242.5 190,-247 190,-251.5 190,-251.5 190,-260.5 190,-260.5 190,-265 185.5,-269.5 181,-269.5 181,-269.5 104,-269.5 104,-269.5 99.5,-269.5 95,-265 95,-260.5 95,-260.5 95,-251.5 95,-251.5 95,-247 99.5,-242.5 104,-242.5"/>
</g>
<!-- 0&#45;&gt;accept_pay -->
<g id="edge1" class="edge">
<title>0&#45;&gt;accept_pay</title>
<path fill="none" stroke="black" d="M219.92,-433.08C214.1,-427.24 207.09,-421.52 199.5,-418 164.64,-401.82 53.22,-428.55 27.5,-400 -4.63,-364.34 -1.08,-330.57 27.5,-292 39.19,-276.22 57.82,-267.32 76.71,-262.36"/>
<polygon fill="black" stroke="black" points="77.2,-265.61 86.18,-259.99 75.66,-258.78 77.2,-265.61"/>
<polygon fill="none" stroke="black" points="30.5,-380 30.5,-397 211.5,-397 211.5,-380 30.5,-380"/>
<text text-anchor="start" x="78.5" y="-387" font-family="Courier New" font-weight="bold" font-size="10.00" fill="orange">WAIT(0,SIG_ON)</text>
<polygon fill="none" stroke="black" points="30.5,-295 30.5,-378 211.5,-378 211.5,-295 30.5,-295"/>
<text text-anchor="start" x="33.5" y="-367" font-family="Courier New" font-size="10.00" fill="blue"> &#160;&#160;&#160;ASSIGN(WSPRITE,WIP1);</text>
<text text-anchor="start" x="33.5" y="-356" font-family="Courier New" font-size="10.00" fill="blue"> &#160;&#160;&#160;ASHOW(WSPRITE);</text>
<text text-anchor="start" x="33.5" y="-345" font-family="Courier New" font-size="10.00" fill="blue"> &#160;&#160;&#160;/* BPARM = what you payed</text>
<text text-anchor="start" x="33.5" y="-334" font-family="Courier New" font-size="10.00" fill="blue"> &#160;&#160;&#160;WPARM = Total owed </text>
<text text-anchor="start" x="33.5" y="-323" font-family="Courier New" font-size="10.00" fill="blue"> &#160;&#160;&#160;*/</text>
<text text-anchor="start" x="33.5" y="-312" font-family="Courier New" font-size="10.00" fill="blue"> &#160;&#160;&#160;ASSIGN(BPARM,0); </text>
<text text-anchor="start" x="33.5" y="-301" font-family="Courier New" font-size="10.00" fill="blue"> &#160;&#160;&#160;ASSIGN(WPARM,WIP2);</text>
<polygon fill="none" stroke="black" points="27.5,-292 27.5,-400 214.5,-400 214.5,-292 27.5,-292"/>
</g>
<!-- accept_pay&#45;&gt;0 -->
<g id="edge3" class="edge">
<title>accept_pay&#45;&gt;0</title>
<path fill="none" stroke="black" d="M193.72,-273.94C201.73,-278.65 209.12,-284.57 214.5,-292 229.15,-312.22 234.06,-381.32 235.69,-422.3"/>
<polygon fill="black" stroke="black" points="232.23,-422.42 236.08,-432.29 239.22,-422.17 232.23,-422.42"/>
<polygon fill="none" stroke="black" points="236.5,-358 236.5,-375 357.5,-375 357.5,-358 236.5,-358"/>
<text text-anchor="start" x="251.5" y="-365" font-family="Courier New" font-weight="bold" font-size="10.00" fill="orange">WAIT(0,SIG_OFF)</text>
<polygon fill="none" stroke="black" points="236.5,-317 236.5,-356 357.5,-356 357.5,-317 236.5,-317"/>
<text text-anchor="start" x="239.5" y="-345" font-family="Courier New" font-size="10.00" fill="blue"> &#160;&#160;&#160;CLEAR(WSPRITE);</text>
<text text-anchor="start" x="239.5" y="-334" font-family="Courier New" font-size="10.00" fill="blue"> &#160;&#160;&#160;SHOW();</text>
<text text-anchor="start" x="239.5" y="-323" font-family="Courier New" font-size="10.00" fill="blue"> &#160;&#160;&#160;</text>
<polygon fill="none" stroke="black" points="233.5,-314 233.5,-378 360.5,-378 360.5,-314 233.5,-314"/>
</g>
<!-- check_scoop -->
<g id="node4" class="node">
<title>check_scoop</title>
<polyline fill="none" stroke="darkred" points="198,-98.5 295,-98.5"/>
<text text-anchor="start" x="201" y="-106.3" font-family="Courier New" font-weight="bold" font-size="14.00">check_scoop</text>
<path fill="none" stroke="darkred" d="M204,-95.5C204,-95.5 289,-95.5 289,-95.5 293.5,-95.5 298,-100 298,-104.5 298,-104.5 298,-113.5 298,-113.5 298,-118 293.5,-122.5 289,-122.5 289,-122.5 204,-122.5 204,-122.5 199.5,-122.5 195,-118 195,-113.5 195,-113.5 195,-104.5 195,-104.5 195,-100 199.5,-95.5 204,-95.5"/>
</g>
<!-- accept_pay&#45;&gt;check_scoop -->
<g id="edge2" class="edge">
<title>accept_pay&#45;&gt;check_scoop</title>
<path fill="none" stroke="black" d="M87.06,-240.36C77.73,-235.41 69.23,-228.8 63.5,-220 45.32,-192.06 42.26,-170.69 63.5,-145 77.91,-127.58 131.15,-118.74 176.52,-114.32"/>
<polygon fill="black" stroke="black" points="176.61,-117.73 186.25,-113.34 175.97,-110.76 176.61,-117.73"/>
<polygon fill="none" stroke="black" points="66.5,-194.5 66.5,-211.5 235.5,-211.5 235.5,-194.5 66.5,-194.5"/>
<text text-anchor="start" x="99.5" y="-201.5" font-family="Courier New" font-weight="bold" font-size="10.00" fill="orange">DRAG(IDD_SCOOPF,)</text>
<polygon fill="none" stroke="black" points="66.5,-153.5 66.5,-192.5 235.5,-192.5 235.5,-153.5 66.5,-153.5"/>
<text text-anchor="start" x="69.5" y="-181.5" font-family="Courier New" font-size="10.00" fill="blue"> &#160;&#160;&#160;HANDOFF(0,IDD_SCOOPE);</text>
<text text-anchor="start" x="69.5" y="-170.5" font-family="Courier New" font-size="10.00" fill="blue"> &#160;&#160;&#160;PLAYWAVE(0,SOUND_SPIT);</text>
<text text-anchor="start" x="69.5" y="-159.5" font-family="Courier New" font-size="10.00" fill="blue"> &#160;&#160;&#160;ADDI(BPARM,1); </text>
<polygon fill="none" stroke="black" points="63.5,-150.5 63.5,-214.5 238.5,-214.5 238.5,-150.5 63.5,-150.5"/>
</g>
<!-- check_scoop&#45;&gt;accept_pay -->
<g id="edge5" class="edge">
<title>check_scoop&#45;&gt;accept_pay</title>
<path fill="none" stroke="black" d="M250.45,-126.84C254.89,-150.25 259.04,-192.8 238.5,-220 230.77,-230.23 219.76,-237.47 207.93,-242.6"/>
<polygon fill="black" stroke="black" points="206.96,-239.61 198.85,-246.43 209.45,-246.15 206.96,-239.61"/>
<text text-anchor="start" x="257.5" y="-181" font-family="Courier New" font-weight="bold" font-size="10.00" fill="blue">Z_EPSILON(,)</text>
</g>
<!-- paid_in_full -->
<g id="node5" class="node">
<title>paid_in_full</title>
<polyline fill="none" stroke="darkred" points="259.5,-7.5 365.5,-7.5"/>
<text text-anchor="start" x="262.5" y="-15.3" font-family="Courier New" font-weight="bold" font-size="14.00">paid_in_full</text>
<path fill="none" stroke="darkred" d="M265.5,-4.5C265.5,-4.5 359.5,-4.5 359.5,-4.5 364,-4.5 368.5,-9 368.5,-13.5 368.5,-13.5 368.5,-22.5 368.5,-22.5 368.5,-27 364,-31.5 359.5,-31.5 359.5,-31.5 265.5,-31.5 265.5,-31.5 261,-31.5 256.5,-27 256.5,-22.5 256.5,-22.5 256.5,-13.5 256.5,-13.5 256.5,-9 261,-4.5 265.5,-4.5"/>
</g>
<!-- check_scoop&#45;&gt;paid_in_full -->
<g id="edge4" class="edge">
<title>check_scoop&#45;&gt;paid_in_full</title>
<path fill="none" stroke="black" d="M242.65,-91.2C241,-79.88 240.76,-65.05 247.5,-54 250.19,-49.58 253.66,-45.69 257.58,-42.26"/>
<polygon fill="black" stroke="black" points="259.23,-44.64 265.16,-35.87 255.05,-39.03 259.23,-44.64"/>
<text text-anchor="start" x="251.5" y="-62" font-family="Courier New" font-weight="bold" font-size="10.00" fill="blue">EQUAL(BPARM,WPARM)</text>
</g>
<!-- paid_in_full&#45;&gt;0 -->
<g id="edge6" class="edge">
<title>paid_in_full&#45;&gt;0</title>
<path fill="none" stroke="black" d="M347.97,-35.94C354.61,-40.81 360.66,-46.8 364.5,-54 436.76,-189.74 462.12,-281.18 364.5,-400 338.33,-431.86 310.07,-398.96 273.5,-418 269.41,-420.13 265.47,-422.85 261.77,-425.83"/>
<polygon fill="black" stroke="black" points="259.76,-422.83 254.65,-432.12 264.43,-428.04 259.76,-422.83"/>
<polygon fill="none" stroke="black" points="429.5,-200 429.5,-217 610.5,-217 610.5,-200 429.5,-200"/>
<text text-anchor="start" x="483.5" y="-207" font-family="Courier New" font-weight="bold" font-size="10.00" fill="blue">Z_EPSILON(,)</text>
<polygon fill="none" stroke="black" points="429.5,-148 429.5,-198 610.5,-198 610.5,-148 429.5,-148"/>
<text text-anchor="start" x="432.5" y="-187" font-family="Courier New" font-size="10.00" fill="blue"> &#160;&#160;&#160;PLAYWAVE(0,SOUND_LEVER);</text>
<text text-anchor="start" x="432.5" y="-176" font-family="Courier New" font-size="10.00" fill="blue"> &#160;&#160;&#160;SIGNAL(sq_0_t,SIG_RESET);</text>
<text text-anchor="start" x="432.5" y="-165" font-family="Courier New" font-size="10.00" fill="blue"> &#160;&#160;&#160;SIGNAL(sq_0_b,SIG_RESET);</text>
<text text-anchor="start" x="432.5" y="-154" font-family="Courier New" font-size="10.00" fill="blue"> &#160;&#160;&#160;ASHOW();</text>
<polygon fill="none" stroke="black" points="426.5,-145 426.5,-220 613.5,-220 613.5,-145 426.5,-145"/>
</g>
<!-- status -->
<g id="node6" class="node">
<title>status</title>
<polygon fill="none" stroke="black" points="282,-418.5 282,-490.5 659,-490.5 659,-418.5 282,-418.5"/>
<polygon fill="none" stroke="black" points="293,-466.5 293,-483.5 648,-483.5 648,-466.5 293,-466.5"/>
<text text-anchor="start" x="434" y="-473.5" font-family="Courier New" font-weight="bold" font-size="10.00">S19_PAYRESET</text>
<polygon fill="none" stroke="black" points="293,-425.5 293,-464.5 648,-464.5 648,-425.5 293,-425.5"/>
<text text-anchor="start" x="296" y="-453.5" font-family="Courier New" font-size="10.00" fill="green">VIEW::IDV_RACEPAN @pos(left:254, top:260)</text>
<text text-anchor="start" x="296" y="-442.5" font-family="Courier New" font-size="10.00" fill="green">S19_PAYRESET::M19_PAYBUCKET(&#39;IDS_NYBUCKET_GLOW&#39;,&#39;2&#39;,&#39;&#39;,&#39;&#39;)</text>
<text text-anchor="start" x="296" y="-431.5" font-family="Courier New" font-size="10.00" fill="green">{&#39;0&#39;:</text>
<polygon fill="none" stroke="black" points="290,-422.5 290,-486.5 651,-486.5 651,-422.5 290,-422.5"/>
</g>
</g>
</svg>
