<?xml version="1.0" encoding="UTF-8" standalone="no"?>
<!DOCTYPE svg PUBLIC "-//W3C//DTD SVG 1.1//EN"
 "http://www.w3.org/Graphics/SVG/1.1/DTD/svg11.dtd">
<!-- Generated by graphviz version 8.0.1 (20230327.1645)
 -->
<!-- Title: Automaton Pages: 1 -->
<svg width="697pt" height="496pt"
 viewBox="0.00 0.00 697.00 496.00" xmlns="http://www.w3.org/2000/svg" xmlns:xlink="http://www.w3.org/1999/xlink">
<g id="graph0" class="graph" transform="scale(1 1) rotate(0) translate(4 492)">
<title>Automaton</title>
<polygon fill="white" stroke="none" points="-4,4 -4,-492 693,-492 693,4 -4,4"/>
<!-- filename -->
<g id="node1" class="node">
<title>filename</title>
<polygon fill="none" stroke="black" points="0,-426.5 0,-476.5 227,-476.5 227,-426.5 0,-426.5"/>
<polygon fill="none" stroke="black" points="11,-452.5 11,-469.5 216,-469.5 216,-452.5 11,-452.5"/>
<text text-anchor="start" x="14" y="-459.5" font-family="Courier New" font-weight="bold" font-size="10.00">S19_SPINNER_BOTTOM_SPIN::M19_SPIN</text>
<polygon fill="none" stroke="black" points="11,-433.5 11,-450.5 216,-450.5 216,-433.5 11,-433.5"/>
<text text-anchor="start" x="68" y="-439.5" font-family="Courier New" font-size="10.00" fill="brown">start state = 0</text>
<polygon fill="none" stroke="black" points="8,-430.5 8,-472.5 219,-472.5 219,-430.5 8,-430.5"/>
</g>
<!-- 0 -->
<g id="node2" class="node">
<title>0</title>
<polyline fill="none" stroke="darkred" stroke-width="3" points="264.5,-440.5 280.5,-440.5"/>
<text text-anchor="start" x="268" y="-448.8" font-family="Courier New" font-weight="bold" font-size="14.00">0</text>
<path fill="none" stroke="darkred" stroke-width="3" d="M268.17,-435.5C268.17,-435.5 276.83,-435.5 276.83,-435.5 281.17,-435.5 285.5,-439.83 285.5,-444.17 285.5,-444.17 285.5,-458.83 285.5,-458.83 285.5,-463.17 281.17,-467.5 276.83,-467.5 276.83,-467.5 268.17,-467.5 268.17,-467.5 263.83,-467.5 259.5,-463.17 259.5,-458.83 259.5,-458.83 259.5,-444.17 259.5,-444.17 259.5,-439.83 263.83,-435.5 268.17,-435.5"/>
</g>
<!-- 1 -->
<g id="node3" class="node">
<title>1</title>
<polyline fill="none" stroke="darkred" points="199,-308.5 214,-308.5"/>
<text text-anchor="start" x="202" y="-316.3" font-family="Courier New" font-weight="bold" font-size="14.00">1</text>
<path fill="none" stroke="darkred" d="M203,-305.5C203,-305.5 210,-305.5 210,-305.5 213.5,-305.5 217,-309 217,-312.5 217,-312.5 217,-325.5 217,-325.5 217,-329 213.5,-332.5 210,-332.5 210,-332.5 203,-332.5 203,-332.5 199.5,-332.5 196,-329 196,-325.5 196,-325.5 196,-312.5 196,-312.5 196,-309 199.5,-305.5 203,-305.5"/>
</g>
<!-- 0&#45;&gt;1 -->
<g id="edge1" class="edge">
<title>0&#45;&gt;1</title>
<path fill="none" stroke="black" d="M253.59,-430.03C248.08,-424.74 241.82,-419.31 235.5,-415 219.73,-404.24 206.79,-413.08 196.5,-397 187.06,-382.24 189.78,-362.61 194.75,-346.87"/>
<polygon fill="black" stroke="black" points="198.32,-348.29 198.43,-337.7 191.74,-345.91 198.32,-348.29"/>
<polygon fill="none" stroke="black" points="199.5,-377 199.5,-394 332.5,-394 332.5,-377 199.5,-377"/>
<text text-anchor="start" x="217.5" y="-384" font-family="Courier New" font-weight="bold" font-size="10.00" fill="orange">WAIT(0,SIG_SPIN)</text>
<polygon fill="none" stroke="black" points="199.5,-358 199.5,-375 332.5,-375 332.5,-358 199.5,-358"/>
<text text-anchor="start" x="202.5" y="-364" font-family="Courier New" font-size="10.00" fill="blue">PLAYWAVE(SOUND_SPIN);</text>
<polygon fill="none" stroke="black" points="196.5,-355 196.5,-397 335.5,-397 335.5,-355 196.5,-355"/>
</g>
<!-- 2 -->
<g id="node4" class="node">
<title>2</title>
<polyline fill="none" stroke="darkred" points="207,-203.5 222,-203.5"/>
<text text-anchor="start" x="210" y="-211.3" font-family="Courier New" font-weight="bold" font-size="14.00">2</text>
<path fill="none" stroke="darkred" d="M211,-200.5C211,-200.5 218,-200.5 218,-200.5 221.5,-200.5 225,-204 225,-207.5 225,-207.5 225,-220.5 225,-220.5 225,-224 221.5,-227.5 218,-227.5 218,-227.5 211,-227.5 211,-227.5 207.5,-227.5 204,-224 204,-220.5 204,-220.5 204,-207.5 204,-207.5 204,-204 207.5,-200.5 211,-200.5"/>
</g>
<!-- 1&#45;&gt;2 -->
<g id="edge2" class="edge">
<title>1&#45;&gt;2</title>
<path fill="none" stroke="black" d="M207.79,-301.45C209.01,-285.63 210.89,-261.47 212.35,-242.71"/>
<polygon fill="black" stroke="black" points="215.91,-243.09 213.19,-232.85 208.93,-242.55 215.91,-243.09"/>
<text text-anchor="start" x="214.5" y="-272" font-family="Courier New" font-weight="bold" font-size="10.00" fill="blue">ASHOW(WIP1,V_LOOP)</text>
</g>
<!-- 3 -->
<g id="node5" class="node">
<title>3</title>
<polyline fill="none" stroke="darkred" points="220,-98.5 235,-98.5"/>
<text text-anchor="start" x="223" y="-106.3" font-family="Courier New" font-weight="bold" font-size="14.00">3</text>
<path fill="none" stroke="darkred" d="M224,-95.5C224,-95.5 231,-95.5 231,-95.5 234.5,-95.5 238,-99 238,-102.5 238,-102.5 238,-115.5 238,-115.5 238,-119 234.5,-122.5 231,-122.5 231,-122.5 224,-122.5 224,-122.5 220.5,-122.5 217,-119 217,-115.5 217,-115.5 217,-102.5 217,-102.5 217,-99 220.5,-95.5 224,-95.5"/>
</g>
<!-- 2&#45;&gt;3 -->
<g id="edge3" class="edge">
<title>2&#45;&gt;3</title>
<path fill="none" stroke="black" d="M216.59,-196.45C218.59,-180.63 221.63,-156.47 224,-137.71"/>
<polygon fill="black" stroke="black" points="227.59,-138.21 225.37,-127.85 220.65,-137.33 227.59,-138.21"/>
<text text-anchor="start" x="227.5" y="-153" font-family="Courier New" font-weight="bold" font-size="10.00" fill="blue">ESTIME(,4)</text>
</g>
<!-- reveal -->
<g id="node6" class="node">
<title>reveal</title>
<polyline fill="none" stroke="darkred" points="260.5,-7.5 316.5,-7.5"/>
<text text-anchor="start" x="263.5" y="-15.3" font-family="Courier New" font-weight="bold" font-size="14.00">reveal</text>
<path fill="none" stroke="darkred" d="M266.5,-4.5C266.5,-4.5 310.5,-4.5 310.5,-4.5 315,-4.5 319.5,-9 319.5,-13.5 319.5,-13.5 319.5,-22.5 319.5,-22.5 319.5,-27 315,-31.5 310.5,-31.5 310.5,-31.5 266.5,-31.5 266.5,-31.5 262,-31.5 257.5,-27 257.5,-22.5 257.5,-22.5 257.5,-13.5 257.5,-13.5 257.5,-9 262,-4.5 266.5,-4.5"/>
</g>
<!-- 3&#45;&gt;reveal -->
<g id="edge4" class="edge">
<title>3&#45;&gt;reveal</title>
<path fill="none" stroke="black" d="M226.95,-91.19C227.34,-79.86 229.4,-65.03 236.5,-54 239.16,-49.87 242.49,-46.11 246.18,-42.72"/>
<polygon fill="black" stroke="black" points="248.1,-44.87 253.7,-35.88 243.71,-39.41 248.1,-44.87"/>
<text text-anchor="start" x="240.5" y="-62" font-family="Courier New" font-weight="bold" font-size="10.00" fill="blue">CLEAR(WSPRITE,)</text>
</g>
<!-- reveal&#45;&gt;0 -->
<g id="edge5" class="edge">
<title>reveal&#45;&gt;0</title>
<path fill="none" stroke="black" d="M317.67,-35.93C324.35,-41 330.84,-47.08 335.5,-54 349.34,-74.57 349.5,-83.21 349.5,-108 349.5,-320 349.5,-320 349.5,-320 349.5,-354.78 354.6,-367.93 335.5,-397 327.58,-409.05 319.69,-405.9 308.5,-415 305.46,-417.47 302.39,-420.16 299.39,-422.92"/>
<polygon fill="black" stroke="black" points="297.5,-419.83 292.67,-429.26 302.33,-424.9 297.5,-419.83"/>
<polygon fill="none" stroke="black" points="352.5,-226 352.5,-243 617.5,-243 617.5,-226 352.5,-226"/>
<text text-anchor="start" x="457.5" y="-233" font-family="Courier New" font-weight="bold" font-size="10.00" fill="blue">SHOW(0,0)</text>
<polygon fill="none" stroke="black" points="352.5,-185 352.5,-224 617.5,-224 617.5,-185 352.5,-185"/>
<text text-anchor="start" x="355.5" y="-213" font-family="Courier New" font-size="10.00" fill="blue"> &#160;&#160;&#160;if(WIP1 == IDS_BOTSPIN){</text>
<text text-anchor="start" x="355.5" y="-202" font-family="Courier New" font-size="10.00" fill="blue"> &#160;&#160;&#160;&#160;&#160;&#160;&#160;SIGNALi(SIG_START,S19_SPELLCASTER);</text>
<text text-anchor="start" x="355.5" y="-191" font-family="Courier New" font-size="10.00" fill="blue"> &#160;&#160;&#160;}</text>
<polygon fill="none" stroke="black" points="349.5,-182 349.5,-246 620.5,-246 620.5,-182 349.5,-182"/>
</g>
<!-- status -->
<g id="node7" class="node">
<title>status</title>
<polygon fill="none" stroke="black" points="318,-415.5 318,-487.5 689,-487.5 689,-415.5 318,-415.5"/>
<polygon fill="none" stroke="black" points="329,-463.5 329,-480.5 678,-480.5 678,-463.5 329,-463.5"/>
<text text-anchor="start" x="434" y="-470.5" font-family="Courier New" font-weight="bold" font-size="10.00">S19_SPINNER_BOTTOM_SPIN</text>
<polygon fill="none" stroke="black" points="329,-422.5 329,-461.5 678,-461.5 678,-422.5 329,-422.5"/>
<text text-anchor="start" x="332" y="-450.5" font-family="Courier New" font-size="10.00" fill="green">VIEW::IDV_RACEPAN @pos(left:435, top:0)</text>
<text text-anchor="start" x="332" y="-439.5" font-family="Courier New" font-size="10.00" fill="green">S19_SPINNER_BOTTOM_SPIN::M19_SPIN(&#39;IDS_BOTSPIN&#39;,&#39;&#39;,&#39;&#39;,&#39;&#39;)</text>
<text text-anchor="start" x="332" y="-428.5" font-family="Courier New" font-size="10.00" fill="green">{&#39;0&#39;:</text>
<polygon fill="none" stroke="black" points="326,-419.5 326,-483.5 681,-483.5 681,-419.5 326,-419.5"/>
</g>
</g>
</svg>
