<?xml version="1.0" encoding="UTF-8" standalone="no"?>
<!DOCTYPE svg PUBLIC "-//W3C//DTD SVG 1.1//EN"
 "http://www.w3.org/Graphics/SVG/1.1/DTD/svg11.dtd">
<!-- Generated by graphviz version 8.0.1 (20230327.1645)
 -->
<!-- Title: Automaton Pages: 1 -->
<svg width="1774pt" height="884pt"
 viewBox="0.00 0.00 1773.71 884.00" xmlns="http://www.w3.org/2000/svg" xmlns:xlink="http://www.w3.org/1999/xlink">
<g id="graph0" class="graph" transform="scale(1 1) rotate(0) translate(4 880)">
<title>Automaton</title>
<polygon fill="white" stroke="none" points="-4,4 -4,-880 1769.71,-880 1769.71,4 -4,4"/>
<!-- filename -->
<g id="node1" class="node">
<title>filename</title>
<polygon fill="none" stroke="black" points="740.71,-814.5 740.71,-864.5 961.71,-864.5 961.71,-814.5 740.71,-814.5"/>
<polygon fill="none" stroke="black" points="751.71,-840.5 751.71,-857.5 950.71,-857.5 950.71,-840.5 751.71,-840.5"/>
<text text-anchor="start" x="754.71" y="-847.5" font-family="Courier New" font-weight="bold" font-size="10.00">S19_SPELLCASTER::M19_SPELLCASTER</text>
<polygon fill="none" stroke="black" points="751.71,-821.5 751.71,-838.5 950.71,-838.5 950.71,-821.5 751.71,-821.5"/>
<text text-anchor="start" x="805.71" y="-827.5" font-family="Courier New" font-size="10.00" fill="brown">start state = 0</text>
<polygon fill="none" stroke="black" points="748.71,-818.5 748.71,-860.5 953.71,-860.5 953.71,-818.5 748.71,-818.5"/>
</g>
<!-- 0 -->
<g id="node2" class="node">
<title>0</title>
<polyline fill="none" stroke="darkred" stroke-width="3" points="999.21,-828.5 1015.21,-828.5"/>
<text text-anchor="start" x="1002.71" y="-836.8" font-family="Courier New" font-weight="bold" font-size="14.00">0</text>
<path fill="none" stroke="darkred" stroke-width="3" d="M1002.87,-823.5C1002.87,-823.5 1011.54,-823.5 1011.54,-823.5 1015.87,-823.5 1020.21,-827.83 1020.21,-832.17 1020.21,-832.17 1020.21,-846.83 1020.21,-846.83 1020.21,-851.17 1015.87,-855.5 1011.54,-855.5 1011.54,-855.5 1002.87,-855.5 1002.87,-855.5 998.54,-855.5 994.21,-851.17 994.21,-846.83 994.21,-846.83 994.21,-832.17 994.21,-832.17 994.21,-827.83 998.54,-823.5 1002.87,-823.5"/>
</g>
<!-- collectingColor -->
<g id="node3" class="node">
<title>collectingColor</title>
<polyline fill="none" stroke="darkred" points="603.21,-719.5 733.21,-719.5"/>
<text text-anchor="start" x="606.21" y="-727.3" font-family="Courier New" font-weight="bold" font-size="14.00">collectingColor</text>
<path fill="none" stroke="darkred" d="M609.21,-716.5C609.21,-716.5 727.21,-716.5 727.21,-716.5 731.71,-716.5 736.21,-721 736.21,-725.5 736.21,-725.5 736.21,-734.5 736.21,-734.5 736.21,-739 731.71,-743.5 727.21,-743.5 727.21,-743.5 609.21,-743.5 609.21,-743.5 604.71,-743.5 600.21,-739 600.21,-734.5 600.21,-734.5 600.21,-725.5 600.21,-725.5 600.21,-721 604.71,-716.5 609.21,-716.5"/>
</g>
<!-- 0&#45;&gt;collectingColor -->
<g id="edge1" class="edge">
<title>0&#45;&gt;collectingColor</title>
<path fill="none" stroke="black" d="M991.13,-818.16C985.46,-812.33 978.63,-806.59 971.21,-803 912.35,-774.53 888.91,-799.71 825.21,-785 789.25,-776.7 749.99,-763.19 719.73,-751.77"/>
<polygon fill="black" stroke="black" points="721.42,-748.28 710.82,-747.98 718.92,-754.82 721.42,-748.28"/>
<text text-anchor="start" x="829.21" y="-774" font-family="Courier New" font-weight="bold" font-size="10.00" fill="orange">WAIT(0,SIG_START)</text>
</g>
<!-- collectingEvent -->
<g id="node6" class="node">
<title>collectingEvent</title>
<polyline fill="none" stroke="darkred" points="502.21,-561.5 632.21,-561.5"/>
<text text-anchor="start" x="505.21" y="-569.3" font-family="Courier New" font-weight="bold" font-size="14.00">collectingEvent</text>
<path fill="none" stroke="darkred" d="M508.21,-558.5C508.21,-558.5 626.21,-558.5 626.21,-558.5 630.71,-558.5 635.21,-563 635.21,-567.5 635.21,-567.5 635.21,-576.5 635.21,-576.5 635.21,-581 630.71,-585.5 626.21,-585.5 626.21,-585.5 508.21,-585.5 508.21,-585.5 503.71,-585.5 499.21,-581 499.21,-576.5 499.21,-576.5 499.21,-567.5 499.21,-567.5 499.21,-563 503.71,-558.5 508.21,-558.5"/>
</g>
<!-- collectingColor&#45;&gt;collectingEvent -->
<g id="edge4" class="edge">
<title>collectingColor&#45;&gt;collectingEvent</title>
<path fill="none" stroke="black" d="M637.5,-712.14C630.15,-707.04 622.82,-700.93 617.21,-694 594.55,-666.02 580.79,-626.35 573.59,-600.16"/>
<polygon fill="black" stroke="black" points="576.81,-599.63 570.9,-590.84 570.04,-601.4 576.81,-599.63"/>
<polygon fill="none" stroke="black" points="620.21,-674 620.21,-691 933.21,-691 933.21,-674 620.21,-674"/>
<text text-anchor="start" x="722.21" y="-681" font-family="Courier New" font-weight="bold" font-size="10.00" fill="blue">REF_MACHINE(WIP1,)</text>
<polygon fill="none" stroke="black" points="620.21,-611 620.21,-672 933.21,-672 933.21,-611 620.21,-611"/>
<text text-anchor="start" x="623.21" y="-661" font-family="Courier New" font-size="10.00" fill="blue"> &#160;&#160;&#160;//Top spinner frame</text>
<text text-anchor="start" x="623.21" y="-650" font-family="Courier New" font-size="10.00" fill="blue"> &#160;&#160;&#160;WTEMP1=R_WPARM;</text>
<text text-anchor="start" x="623.21" y="-639" font-family="Courier New" font-size="10.00" fill="blue"> &#160;&#160;&#160;MOV(WPARM,WTEMP1);</text>
<text text-anchor="start" x="623.21" y="-628" font-family="Courier New" font-size="10.00" fill="blue"> &#160;&#160;&#160;//color to attack violet,green, or brown square</text>
<text text-anchor="start" x="623.21" y="-617" font-family="Courier New" font-size="10.00" fill="blue"> &#160;&#160;&#160;MAPi(WPARM,WIP3);</text>
<polygon fill="none" stroke="black" points="617.21,-608 617.21,-694 936.21,-694 936.21,-608 617.21,-608"/>
</g>
<!-- castspell -->
<g id="node4" class="node">
<title>castspell</title>
<polyline fill="none" stroke="darkred" points="641.71,-245.5 722.71,-245.5"/>
<text text-anchor="start" x="644.71" y="-253.3" font-family="Courier New" font-weight="bold" font-size="14.00">castspell</text>
<path fill="none" stroke="darkred" d="M647.71,-242.5C647.71,-242.5 716.71,-242.5 716.71,-242.5 721.21,-242.5 725.71,-247 725.71,-251.5 725.71,-251.5 725.71,-260.5 725.71,-260.5 725.71,-265 721.21,-269.5 716.71,-269.5 716.71,-269.5 647.71,-269.5 647.71,-269.5 643.21,-269.5 638.71,-265 638.71,-260.5 638.71,-260.5 638.71,-251.5 638.71,-251.5 638.71,-247 643.21,-242.5 647.71,-242.5"/>
</g>
<!-- castspell&#45;&gt;0 -->
<g id="edge3" class="edge">
<title>castspell&#45;&gt;0</title>
<path fill="none" stroke="black" d="M733.65,-256.92C799.65,-257.99 908.89,-264.08 936.21,-292 974.07,-330.69 950.21,-358.86 950.21,-413 950.21,-731 950.21,-731 950.21,-731 950.21,-760.26 966.89,-789.32 982.21,-809.84"/>
<polygon fill="black" stroke="black" points="979.95,-811.63 988.86,-817.36 985.46,-807.32 979.95,-811.63"/>
<text text-anchor="start" x="954.21" y="-570.5" font-family="Courier New" font-weight="bold" font-size="10.00" fill="blue">Z_EPSILON(0,)</text>
</g>
<!-- pickspell -->
<g id="node5" class="node">
<title>pickspell</title>
<polyline fill="none" stroke="darkred" points="641.71,-154.5 722.71,-154.5"/>
<text text-anchor="start" x="644.71" y="-162.3" font-family="Courier New" font-weight="bold" font-size="14.00">pickspell</text>
<path fill="none" stroke="darkred" d="M647.71,-151.5C647.71,-151.5 716.71,-151.5 716.71,-151.5 721.21,-151.5 725.71,-156 725.71,-160.5 725.71,-160.5 725.71,-169.5 725.71,-169.5 725.71,-174 721.21,-178.5 716.71,-178.5 716.71,-178.5 647.71,-178.5 647.71,-178.5 643.21,-178.5 638.71,-174 638.71,-169.5 638.71,-169.5 638.71,-160.5 638.71,-160.5 638.71,-156 643.21,-151.5 647.71,-151.5"/>
</g>
<!-- castspell&#45;&gt;pickspell -->
<g id="edge2" class="edge">
<title>castspell&#45;&gt;pickspell</title>
<path fill="none" stroke="black" d="M682.21,-238.26C682.21,-225.78 682.21,-208.46 682.21,-193.9"/>
<polygon fill="black" stroke="black" points="685.71,-193.97 682.21,-183.97 678.71,-193.97 685.71,-193.97"/>
<text text-anchor="start" x="686.21" y="-209" font-family="Courier New" font-weight="bold" font-size="10.00" fill="blue">EQUAL(WTEMP1,WPARM)</text>
</g>
<!-- pickspell&#45;&gt;0 -->
<g id="edge14" class="edge">
<title>pickspell&#45;&gt;0</title>
<path fill="none" stroke="black" d="M733.46,-167.27C837.83,-171.26 1065.21,-187.67 1065.21,-255 1065.21,-731 1065.21,-731 1065.21,-731 1065.21,-760.19 1048.44,-789.06 1032.94,-809.53"/>
<polygon fill="black" stroke="black" points="1029.67,-807.02 1026.2,-817.03 1035.15,-811.37 1029.67,-807.02"/>
<text text-anchor="start" x="1069.21" y="-491.5" font-family="Courier New" font-weight="bold" font-size="10.00" fill="blue">Z_EPSILON(,)</text>
</g>
<!-- done -->
<g id="node8" class="node">
<title>done</title>
<polyline fill="none" stroke="darkred" points="662.21,-7.5 702.21,-7.5"/>
<text text-anchor="start" x="665.21" y="-15.3" font-family="Courier New" font-weight="bold" font-size="14.00">done</text>
<path fill="none" stroke="darkred" d="M668.21,-4.5C668.21,-4.5 696.21,-4.5 696.21,-4.5 700.71,-4.5 705.21,-9 705.21,-13.5 705.21,-13.5 705.21,-22.5 705.21,-22.5 705.21,-27 700.71,-31.5 696.21,-31.5 696.21,-31.5 668.21,-31.5 668.21,-31.5 663.71,-31.5 659.21,-27 659.21,-22.5 659.21,-22.5 659.21,-13.5 659.21,-13.5 659.21,-9 663.71,-4.5 668.21,-4.5"/>
</g>
<!-- pickspell&#45;&gt;done -->
<g id="edge8" class="edge">
<title>pickspell&#45;&gt;done</title>
<path fill="none" stroke="black" d="M630.82,-163.2C478.42,-160.6 38.24,-151.17 17.21,-129 -5.74,-104.82 -5.74,-78.18 17.21,-54 38.71,-31.34 497.97,-21.99 640.44,-19.63"/>
<polygon fill="black" stroke="black" points="640.36,-23.12 650.3,-19.46 640.25,-16.12 640.36,-23.12"/>
<polygon fill="none" stroke="black" points="20.21,-109 20.21,-126 213.21,-126 213.21,-109 20.21,-109"/>
<text text-anchor="start" x="59.21" y="-116" font-family="Courier New" font-weight="bold" font-size="10.00" fill="blue">EQUALi(BPARM,bomb1)</text>
<polygon fill="none" stroke="black" points="20.21,-57 20.21,-107 213.21,-107 213.21,-57 20.21,-57"/>
<text text-anchor="start" x="23.21" y="-96" font-family="Courier New" font-size="10.00" fill="blue"> &#160;&#160;&#160;WRITE(someone is bomb1ed!);</text>
<text text-anchor="start" x="23.21" y="-85" font-family="Courier New" font-size="10.00" fill="blue"> &#160;&#160;&#160;SIGNAL(SID_ID,SIG_BOMB);</text>
<text text-anchor="start" x="23.21" y="-74" font-family="Courier New" font-size="10.00" fill="blue"> &#160;&#160;&#160;SUBI(LENERGY,1);</text>
<text text-anchor="start" x="23.21" y="-63" font-family="Courier New" font-size="10.00" fill="blue"> &#160;&#160;&#160;SIGNAL(SID_AURA,SIG_SUB);</text>
<polygon fill="none" stroke="black" points="17.21,-54 17.21,-129 216.21,-129 216.21,-54 17.21,-54"/>
</g>
<!-- pickspell&#45;&gt;done -->
<g id="edge9" class="edge">
<title>pickspell&#45;&gt;done</title>
<path fill="none" stroke="black" d="M630.81,-163.77C519.77,-162.73 265.32,-157.26 239.21,-129 216.58,-104.52 216.58,-78.48 239.21,-54 266.11,-24.89 535.31,-19.96 640.45,-19.15"/>
<polygon fill="black" stroke="black" points="640.29,-22.64 650.27,-19.08 640.25,-15.64 640.29,-22.64"/>
<polygon fill="none" stroke="black" points="242.21,-109 242.21,-126 435.21,-126 435.21,-109 242.21,-109"/>
<text text-anchor="start" x="281.21" y="-116" font-family="Courier New" font-weight="bold" font-size="10.00" fill="blue">EQUALi(BPARM,bomb2)</text>
<polygon fill="none" stroke="black" points="242.21,-57 242.21,-107 435.21,-107 435.21,-57 242.21,-57"/>
<text text-anchor="start" x="245.21" y="-96" font-family="Courier New" font-size="10.00" fill="blue"> &#160;&#160;&#160;WRITE(someone is bomb2ed!);</text>
<text text-anchor="start" x="245.21" y="-85" font-family="Courier New" font-size="10.00" fill="blue"> &#160;&#160;&#160;SIGNAL(SID_ID,SIG_BOMB);</text>
<text text-anchor="start" x="245.21" y="-74" font-family="Courier New" font-size="10.00" fill="blue"> &#160;&#160;&#160;SUBI(LENERGY,2);</text>
<text text-anchor="start" x="245.21" y="-63" font-family="Courier New" font-size="10.00" fill="blue"> &#160;&#160;&#160;SIGNAL(SID_AURA,SIG_SUB);</text>
<polygon fill="none" stroke="black" points="239.21,-54 239.21,-129 438.21,-129 438.21,-54 239.21,-54"/>
</g>
<!-- pickspell&#45;&gt;done -->
<g id="edge10" class="edge">
<title>pickspell&#45;&gt;done</title>
<path fill="none" stroke="black" d="M630.89,-163.29C572.54,-161.26 482.59,-154.03 461.21,-129 439.56,-103.65 439.56,-79.35 461.21,-54 483.79,-27.55 582.91,-20.98 640.44,-19.42"/>
<polygon fill="black" stroke="black" points="640.44,-22.9 650.36,-19.17 640.28,-15.9 640.44,-22.9"/>
<polygon fill="none" stroke="black" points="464.21,-109 464.21,-126 657.21,-126 657.21,-109 464.21,-109"/>
<text text-anchor="start" x="503.21" y="-116" font-family="Courier New" font-weight="bold" font-size="10.00" fill="blue">EQUALi(BPARM,bomb3)</text>
<polygon fill="none" stroke="black" points="464.21,-57 464.21,-107 657.21,-107 657.21,-57 464.21,-57"/>
<text text-anchor="start" x="467.21" y="-96" font-family="Courier New" font-size="10.00" fill="blue"> &#160;&#160;&#160;WRITE(someone is bomb3ed!);</text>
<text text-anchor="start" x="467.21" y="-85" font-family="Courier New" font-size="10.00" fill="blue"> &#160;&#160;&#160;SIGNAL(SID_ID,SIG_BOMB);</text>
<text text-anchor="start" x="467.21" y="-74" font-family="Courier New" font-size="10.00" fill="blue"> &#160;&#160;&#160;SUBI(LENERGY,3);</text>
<text text-anchor="start" x="467.21" y="-63" font-family="Courier New" font-size="10.00" fill="blue"> &#160;&#160;&#160;SIGNAL(SID_AURA,SIG_SUB);</text>
<polygon fill="none" stroke="black" points="461.21,-54 461.21,-129 660.21,-129 660.21,-54 461.21,-54"/>
</g>
<!-- pickspell&#45;&gt;done -->
<g id="edge11" class="edge">
<title>pickspell&#45;&gt;done</title>
<path fill="none" stroke="black" d="M682.21,-147.08C682.21,-122.42 682.21,-76.3 682.21,-46.66"/>
<polygon fill="black" stroke="black" points="685.71,-46.81 682.21,-36.81 678.71,-46.81 685.71,-46.81"/>
<polygon fill="none" stroke="black" points="685.21,-103.5 685.21,-120.5 914.21,-120.5 914.21,-103.5 685.21,-103.5"/>
<text text-anchor="start" x="739.21" y="-110.5" font-family="Courier New" font-weight="bold" font-size="10.00" fill="blue">EQUALi(BPARM,wealth)</text>
<polygon fill="none" stroke="black" points="685.21,-62.5 685.21,-101.5 914.21,-101.5 914.21,-62.5 685.21,-62.5"/>
<text text-anchor="start" x="688.21" y="-90.5" font-family="Courier New" font-size="10.00" fill="blue"> &#160;&#160;&#160;WRITE(someone is given nystrom!);</text>
<text text-anchor="start" x="688.21" y="-79.5" font-family="Courier New" font-size="10.00" fill="blue"> &#160;&#160;&#160;SIGNAL(SID_ID,SIG_HAPPY);</text>
<text text-anchor="start" x="688.21" y="-68.5" font-family="Courier New" font-size="10.00" fill="blue"> &#160;&#160;&#160;ADDI(LWEALTH,10);</text>
<polygon fill="none" stroke="black" points="682.21,-59.5 682.21,-123.5 917.21,-123.5 917.21,-59.5 682.21,-59.5"/>
</g>
<!-- pickspell&#45;&gt;done -->
<g id="edge12" class="edge">
<title>pickspell&#45;&gt;done</title>
<path fill="none" stroke="black" d="M733.7,-163.89C795.83,-162.54 894.87,-156.05 918.21,-129 939.98,-103.76 939.98,-79.24 918.21,-54 893.56,-25.43 784.5,-19.8 723.63,-18.93"/>
<polygon fill="black" stroke="black" points="723.89,-15.42 713.86,-18.81 723.82,-22.42 723.89,-15.42"/>
<polygon fill="none" stroke="black" points="938.21,-98 938.21,-115 1137.21,-115 1137.21,-98 938.21,-98"/>
<text text-anchor="start" x="977.21" y="-105" font-family="Courier New" font-weight="bold" font-size="10.00" fill="blue">EQUALi(BPARM,banish)</text>
<polygon fill="none" stroke="black" points="938.21,-68 938.21,-96 1137.21,-96 1137.21,-68 938.21,-68"/>
<text text-anchor="start" x="941.21" y="-85" font-family="Courier New" font-size="10.00" fill="blue"> &#160;&#160;&#160;WRITE(someone is banished!);</text>
<text text-anchor="start" x="941.21" y="-74" font-family="Courier New" font-size="10.00" fill="blue"> &#160;&#160;&#160;LOADVIEW(0,IDV_BANISH);</text>
<polygon fill="none" stroke="black" points="935.21,-65 935.21,-118 1140.21,-118 1140.21,-65 935.21,-65"/>
</g>
<!-- pickspell&#45;&gt;done -->
<g id="edge13" class="edge">
<title>pickspell&#45;&gt;done</title>
<path fill="none" stroke="black" d="M733.64,-163.95C848.26,-163.3 1116.76,-158.6 1144.21,-129 1166.87,-104.56 1166.87,-78.44 1144.21,-54 1115.95,-23.52 832.17,-19.44 723.89,-19"/>
<polygon fill="black" stroke="black" points="724.08,-15.5 714.07,-18.97 724.06,-22.5 724.08,-15.5"/>
<polygon fill="none" stroke="black" points="1163.21,-103.5 1163.21,-120.5 1380.21,-120.5 1380.21,-103.5 1163.21,-103.5"/>
<text text-anchor="start" x="1217.21" y="-110.5" font-family="Courier New" font-weight="bold" font-size="10.00" fill="blue">EQUALi(BPARM,gopa)</text>
<polygon fill="none" stroke="black" points="1163.21,-62.5 1163.21,-101.5 1380.21,-101.5 1380.21,-62.5 1163.21,-62.5"/>
<text text-anchor="start" x="1166.21" y="-90.5" font-family="Courier New" font-size="10.00" fill="blue"> &#160;&#160;&#160;&#160;WRITE(someone is given gopa!);</text>
<text text-anchor="start" x="1166.21" y="-79.5" font-family="Courier New" font-size="10.00" fill="blue"> &#160;&#160;&#160;ADDI(LENERGY,5);</text>
<text text-anchor="start" x="1166.21" y="-68.5" font-family="Courier New" font-size="10.00" fill="blue"> &#160;&#160;&#160;SIGNAL(SID_AURA,SIG_ADD);</text>
<polygon fill="none" stroke="black" points="1160.21,-59.5 1160.21,-123.5 1383.21,-123.5 1383.21,-59.5 1160.21,-59.5"/>
</g>
<!-- findVictimOne -->
<g id="node7" class="node">
<title>findVictimOne</title>
<polyline fill="none" stroke="darkred" points="312.21,-403.5 426.21,-403.5"/>
<text text-anchor="start" x="315.21" y="-411.3" font-family="Courier New" font-weight="bold" font-size="14.00">findVictimOne</text>
<path fill="none" stroke="darkred" d="M318.21,-400.5C318.21,-400.5 420.21,-400.5 420.21,-400.5 424.71,-400.5 429.21,-405 429.21,-409.5 429.21,-409.5 429.21,-418.5 429.21,-418.5 429.21,-423 424.71,-427.5 420.21,-427.5 420.21,-427.5 318.21,-427.5 318.21,-427.5 313.71,-427.5 309.21,-423 309.21,-418.5 309.21,-418.5 309.21,-409.5 309.21,-409.5 309.21,-405 313.71,-400.5 318.21,-400.5"/>
</g>
<!-- collectingEvent&#45;&gt;findVictimOne -->
<g id="edge5" class="edge">
<title>collectingEvent&#45;&gt;findVictimOne</title>
<path fill="none" stroke="black" d="M545.64,-554.01C510.23,-526.11 439.69,-470.53 399.35,-438.75"/>
<polygon fill="black" stroke="black" points="401.77,-435.41 391.75,-431.97 397.44,-440.91 401.77,-435.41"/>
<polygon fill="none" stroke="black" points="523.21,-516 523.21,-533 698.21,-533 698.21,-516 523.21,-516"/>
<text text-anchor="start" x="556.21" y="-523" font-family="Courier New" font-weight="bold" font-size="10.00" fill="blue">REF_MACHINE(WIP2,)</text>
<polygon fill="none" stroke="black" points="523.21,-453 523.21,-514 698.21,-514 698.21,-453 523.21,-453"/>
<text text-anchor="start" x="526.21" y="-503" font-family="Courier New" font-size="10.00" fill="blue"> &#160;&#160;&#160;//Bottom spinner frame</text>
<text text-anchor="start" x="526.21" y="-492" font-family="Courier New" font-size="10.00" fill="blue"> &#160;&#160;&#160;WTEMP2=R_WPARM;</text>
<text text-anchor="start" x="526.21" y="-481" font-family="Courier New" font-size="10.00" fill="blue"> &#160;&#160;&#160;MOV(BPARM,WTEMP2);</text>
<text text-anchor="start" x="526.21" y="-470" font-family="Courier New" font-size="10.00" fill="blue"> &#160;&#160;&#160;//event or spell to cast</text>
<text text-anchor="start" x="526.21" y="-459" font-family="Courier New" font-size="10.00" fill="blue"> &#160;&#160;&#160;MAPi(BPARM,WIP4);</text>
<polygon fill="none" stroke="black" points="520.21,-450 520.21,-536 701.21,-536 701.21,-450 520.21,-450"/>
</g>
<!-- findVictimOne&#45;&gt;castspell -->
<g id="edge7" class="edge">
<title>findVictimOne&#45;&gt;castspell</title>
<path fill="none" stroke="black" d="M359.72,-396.13C346.6,-370.28 327.28,-320.83 353.21,-292 370.67,-272.58 529.44,-263.08 619.88,-259.22"/>
<polygon fill="black" stroke="black" points="619.98,-262.67 629.82,-258.76 619.69,-255.68 619.98,-262.67"/>
<polygon fill="none" stroke="black" points="356.21,-358 356.21,-375 933.21,-375 933.21,-358 356.21,-358"/>
<text text-anchor="start" x="548.21" y="-365" font-family="Courier New" font-weight="bold" font-size="10.00" fill="blue">REF_MACHINE(0,S19_PLAYERWATCHER)</text>
<polygon fill="none" stroke="black" points="356.21,-295 356.21,-356 933.21,-356 933.21,-295 356.21,-295"/>
<text text-anchor="start" x="359.21" y="-345" font-family="Courier New" font-size="10.00" fill="blue"> &#160;&#160;&#160;//R_WPARM is the squre theyre on,</text>
<text text-anchor="start" x="359.21" y="-334" font-family="Courier New" font-size="10.00" fill="blue"> &#160;&#160;&#160;//R_BPARM is either player object like IDD_PLAYER_B or W</text>
<text text-anchor="start" x="359.21" y="-323" font-family="Courier New" font-size="10.00" fill="blue"> &#160;&#160;&#160;//map the square theyre on to a color , then if it matches WPARM execute the event in BPARM</text>
<text text-anchor="start" x="359.21" y="-312" font-family="Courier New" font-size="10.00" fill="blue"> &#160;&#160;&#160;MOV(WTEMP1,R_WPARM);</text>
<text text-anchor="start" x="359.21" y="-301" font-family="Courier New" font-size="10.00" fill="blue"> &#160;&#160;&#160;MAPi(WTEMP1,S19_SQUARE_MAP);</text>
<polygon fill="none" stroke="black" points="353.21,-292 353.21,-378 936.21,-378 936.21,-292 353.21,-292"/>
</g>
<!-- done&#45;&gt;0 -->
<g id="edge6" class="edge">
<title>done&#45;&gt;0</title>
<path fill="none" stroke="black" d="M713.06,-19.47C845.66,-21.6 1361.63,-31.36 1387.21,-54 1424.35,-86.89 1406.21,-114.39 1406.21,-164 1406.21,-731 1406.21,-731 1406.21,-731 1406.21,-813.02 1116.94,-765.09 1044.21,-803 1040.12,-805.13 1036.18,-807.85 1032.48,-810.83"/>
<polygon fill="black" stroke="black" points="1030.47,-807.83 1025.36,-817.12 1035.14,-813.04 1030.47,-807.83"/>
<text text-anchor="start" x="1410.21" y="-412.5" font-family="Courier New" font-weight="bold" font-size="10.00" fill="blue">Z_EPSILON(,)</text>
</g>
<!-- status -->
<g id="node9" class="node">
<title>status</title>
<polygon fill="none" stroke="black" points="1052.71,-803.5 1052.71,-875.5 1765.71,-875.5 1765.71,-803.5 1052.71,-803.5"/>
<polygon fill="none" stroke="black" points="1063.71,-851.5 1063.71,-868.5 1754.71,-868.5 1754.71,-851.5 1063.71,-851.5"/>
<text text-anchor="start" x="1363.71" y="-858.5" font-family="Courier New" font-weight="bold" font-size="10.00">S19_SPELLCASTER</text>
<polygon fill="none" stroke="black" points="1063.71,-810.5 1063.71,-849.5 1754.71,-849.5 1754.71,-810.5 1063.71,-810.5"/>
<text text-anchor="start" x="1066.71" y="-838.5" font-family="Courier New" font-size="10.00" fill="green">VIEW::IDV_RACEPAN @pos(left:8, top:150)</text>
<text text-anchor="start" x="1066.71" y="-827.5" font-family="Courier New" font-size="10.00" fill="green">S19_SPELLCASTER::M19_SPELLCASTER(&#39;S19_SPINNER_TOP_PICK&#39;,&#39;S19_SPINNER_BOTTOM_PICK&#39;,&#39;S19_COLOR_MAP&#39;,&#39;S19_EVENT_MAP&#39;)</text>
<text text-anchor="start" x="1066.71" y="-816.5" font-family="Courier New" font-size="10.00" fill="green">{state:&#39;0&#39;: bParm:banish wParm:VIOLET_SQUARE</text>
<polygon fill="none" stroke="black" points="1060.71,-807.5 1060.71,-871.5 1757.71,-871.5 1757.71,-807.5 1060.71,-807.5"/>
</g>
</g>
</svg>
