<?xml version="1.0" encoding="UTF-8" standalone="no"?>
<!DOCTYPE svg PUBLIC "-//W3C//DTD SVG 1.1//EN"
 "http://www.w3.org/Graphics/SVG/1.1/DTD/svg11.dtd">
<!-- Generated by graphviz version 8.0.1 (20230327.1645)
 -->
<!-- Title: Automaton Pages: 1 -->
<svg width="1104pt" height="317pt"
 viewBox="0.00 0.00 1103.50 317.00" xmlns="http://www.w3.org/2000/svg" xmlns:xlink="http://www.w3.org/1999/xlink">
<g id="graph0" class="graph" transform="scale(1 1) rotate(0) translate(4 313)">
<title>Automaton</title>
<polygon fill="white" stroke="none" points="-4,4 -4,-313 1099.5,-313 1099.5,4 -4,4"/>
<!-- filename -->
<g id="node1" class="node">
<title>filename</title>
<polygon fill="none" stroke="black" points="0,-243.5 0,-293.5 179,-293.5 179,-243.5 0,-243.5"/>
<polygon fill="none" stroke="black" points="11,-269.5 11,-286.5 168,-286.5 168,-269.5 11,-269.5"/>
<text text-anchor="start" x="14" y="-276.5" font-family="Courier New" font-weight="bold" font-size="10.00">S1_VIALMETER::M_VIALMETER</text>
<polygon fill="none" stroke="black" points="11,-250.5 11,-267.5 168,-267.5 168,-250.5 11,-250.5"/>
<text text-anchor="start" x="44" y="-256.5" font-family="Courier New" font-size="10.00" fill="brown">start state = 0</text>
<polygon fill="none" stroke="black" points="8,-247.5 8,-289.5 171,-289.5 171,-247.5 8,-247.5"/>
</g>
<!-- 0 -->
<g id="node2" class="node">
<title>0</title>
<polyline fill="none" stroke="darkred" stroke-width="3" points="216.5,-257.5 232.5,-257.5"/>
<text text-anchor="start" x="220" y="-265.8" font-family="Courier New" font-weight="bold" font-size="14.00">0</text>
<path fill="none" stroke="darkred" stroke-width="3" d="M220.17,-252.5C220.17,-252.5 228.83,-252.5 228.83,-252.5 233.17,-252.5 237.5,-256.83 237.5,-261.17 237.5,-261.17 237.5,-275.83 237.5,-275.83 237.5,-280.17 233.17,-284.5 228.83,-284.5 228.83,-284.5 220.17,-284.5 220.17,-284.5 215.83,-284.5 211.5,-280.17 211.5,-275.83 211.5,-275.83 211.5,-261.17 211.5,-261.17 211.5,-256.83 215.83,-252.5 220.17,-252.5"/>
</g>
<!-- 5 -->
<g id="node3" class="node">
<title>5</title>
<polyline fill="none" stroke="darkred" points="321,-121.5 336,-121.5"/>
<text text-anchor="start" x="324" y="-129.3" font-family="Courier New" font-weight="bold" font-size="14.00">5</text>
<path fill="none" stroke="darkred" d="M325,-118.5C325,-118.5 332,-118.5 332,-118.5 335.5,-118.5 339,-122 339,-125.5 339,-125.5 339,-138.5 339,-138.5 339,-142 335.5,-145.5 332,-145.5 332,-145.5 325,-145.5 325,-145.5 321.5,-145.5 318,-142 318,-138.5 318,-138.5 318,-125.5 318,-125.5 318,-122 321.5,-118.5 325,-118.5"/>
</g>
<!-- 0&#45;&gt;5 -->
<g id="edge1" class="edge">
<title>0&#45;&gt;5</title>
<path fill="none" stroke="black" d="M240.33,-247.28C246.4,-240.49 253.74,-233.3 261.5,-228 279.29,-215.85 292.07,-225.99 306.5,-210 318.76,-196.42 324.23,-176.44 326.65,-160.25"/>
<polygon fill="black" stroke="black" points="330.19,-161.1 327.88,-150.76 323.24,-160.28 330.19,-161.1"/>
<polygon fill="none" stroke="black" points="327.5,-190 327.5,-207 670.5,-207 670.5,-190 327.5,-190"/>
<text text-anchor="start" x="450.5" y="-197" font-family="Courier New" font-weight="bold" font-size="10.00" fill="orange">WAIT(0,SIG_SHOW)</text>
<polygon fill="none" stroke="black" points="327.5,-171 327.5,-188 670.5,-188 670.5,-171 327.5,-171"/>
<text text-anchor="start" x="330.5" y="-177" font-family="Courier New" font-size="10.00" fill="blue">REF_MACHINE(WIP1);MOV(BPARM,R_BPARM);MOV(WPARM,R_WPARM);</text>
<polygon fill="none" stroke="black" points="324.5,-168 324.5,-210 673.5,-210 673.5,-168 324.5,-168"/>
</g>
<!-- 5&#45;&gt;0 -->
<g id="edge8" class="edge">
<title>5&#45;&gt;0</title>
<path fill="none" stroke="black" d="M301.91,-133.43C276.6,-135.43 239.74,-142.84 221.5,-168 207.33,-187.54 209.52,-215.37 214.43,-236.63"/>
<polygon fill="black" stroke="black" points="211.24,-237.29 217.17,-246.08 218.01,-235.51 211.24,-237.29"/>
<text text-anchor="start" x="225.5" y="-187.5" font-family="Courier New" font-weight="bold" font-size="10.00" fill="blue">Z_EPSILON(,)</text>
</g>
<!-- 10 -->
<g id="node4" class="node">
<title>10</title>
<polyline fill="none" stroke="darkred" points="43,-7.5 66,-7.5"/>
<text text-anchor="start" x="46" y="-15.3" font-family="Courier New" font-weight="bold" font-size="14.00">10</text>
<path fill="none" stroke="darkred" d="M49,-4.5C49,-4.5 60,-4.5 60,-4.5 64.5,-4.5 69,-9 69,-13.5 69,-13.5 69,-22.5 69,-22.5 69,-27 64.5,-31.5 60,-31.5 60,-31.5 49,-31.5 49,-31.5 44.5,-31.5 40,-27 40,-22.5 40,-22.5 40,-13.5 40,-13.5 40,-9 44.5,-4.5 49,-4.5"/>
</g>
<!-- 5&#45;&gt;10 -->
<g id="edge5" class="edge">
<title>5&#45;&gt;10</title>
<path fill="none" stroke="black" d="M301.83,-128.5C254.13,-123.69 156.41,-112.15 126.5,-96 103.87,-83.78 84.4,-61.78 71.43,-44.41"/>
<polygon fill="black" stroke="black" points="73.93,-42.91 65.25,-36.83 68.25,-46.99 73.93,-42.91"/>
<polygon fill="none" stroke="black" points="129.5,-76 129.5,-93 394.5,-93 394.5,-76 129.5,-76"/>
<text text-anchor="start" x="207.5" y="-83" font-family="Courier New" font-weight="bold" font-size="10.00" fill="blue">EQUALi(R_WPARM,20)</text>
<polygon fill="none" stroke="black" points="129.5,-57 129.5,-74 394.5,-74 394.5,-57 129.5,-57"/>
<text text-anchor="start" x="132.5" y="-63" font-family="Courier New" font-size="10.00" fill="blue">MULI(BPARM,2);MOV(BFRAME,BPARM);SHOW(WIP2);</text>
<polygon fill="none" stroke="black" points="126.5,-54 126.5,-96 397.5,-96 397.5,-54 126.5,-54"/>
</g>
<!-- 20 -->
<g id="node5" class="node">
<title>20</title>
<polyline fill="none" stroke="darkred" points="870,-7.5 893,-7.5"/>
<text text-anchor="start" x="873" y="-15.3" font-family="Courier New" font-weight="bold" font-size="14.00">20</text>
<path fill="none" stroke="darkred" d="M876,-4.5C876,-4.5 887,-4.5 887,-4.5 891.5,-4.5 896,-9 896,-13.5 896,-13.5 896,-22.5 896,-22.5 896,-27 891.5,-31.5 887,-31.5 887,-31.5 876,-31.5 876,-31.5 871.5,-31.5 867,-27 867,-22.5 867,-22.5 867,-13.5 867,-13.5 867,-9 871.5,-4.5 876,-4.5"/>
</g>
<!-- 5&#45;&gt;20 -->
<g id="edge6" class="edge">
<title>5&#45;&gt;20</title>
<path fill="none" stroke="black" d="M355.26,-130.95C427.8,-130.41 626.59,-126.15 683.5,-96 704.97,-84.63 697.71,-66.57 718.5,-54 757.17,-30.62 809.29,-22.74 844.07,-20.15"/>
<polygon fill="black" stroke="black" points="843.96,-23.6 853.72,-19.48 843.52,-16.62 843.96,-23.6"/>
<polygon fill="none" stroke="black" points="721.5,-76 721.5,-93 1028.5,-93 1028.5,-76 721.5,-76"/>
<text text-anchor="start" x="820.5" y="-83" font-family="Courier New" font-weight="bold" font-size="10.00" fill="blue">EQUALi(R_WPARM,40)</text>
<polygon fill="none" stroke="black" points="721.5,-57 721.5,-74 1028.5,-74 1028.5,-57 721.5,-57"/>
<text text-anchor="start" x="724.5" y="-63" font-family="Courier New" font-size="10.00" fill="blue">ASSIGN(WSPRITE,WIP2);MOV(BFRAME,BPARM);SHOW(WIP2);</text>
<polygon fill="none" stroke="black" points="718.5,-54 718.5,-96 1031.5,-96 1031.5,-54 718.5,-54"/>
</g>
<!-- 30 -->
<g id="node6" class="node">
<title>30</title>
<polyline fill="none" stroke="darkred" points="264,-7.5 287,-7.5"/>
<text text-anchor="start" x="267" y="-15.3" font-family="Courier New" font-weight="bold" font-size="14.00">30</text>
<path fill="none" stroke="darkred" d="M270,-4.5C270,-4.5 281,-4.5 281,-4.5 285.5,-4.5 290,-9 290,-13.5 290,-13.5 290,-22.5 290,-22.5 290,-27 285.5,-31.5 281,-31.5 281,-31.5 270,-31.5 270,-31.5 265.5,-31.5 261,-27 261,-22.5 261,-22.5 261,-13.5 261,-13.5 261,-9 265.5,-4.5 270,-4.5"/>
</g>
<!-- 5&#45;&gt;30 -->
<g id="edge7" class="edge">
<title>5&#45;&gt;30</title>
<path fill="none" stroke="black" d="M355.23,-125.7C371.64,-120.91 391.39,-112.06 401.5,-96 411.44,-80.2 412.8,-68.86 401.5,-54 390.76,-39.87 346.15,-29.95 313.04,-24.36"/>
<polygon fill="black" stroke="black" points="313.75,-20.77 303.32,-22.63 312.64,-27.68 313.75,-20.77"/>
<polygon fill="none" stroke="black" points="411.5,-76 411.5,-93 676.5,-93 676.5,-76 411.5,-76"/>
<text text-anchor="start" x="489.5" y="-83" font-family="Courier New" font-weight="bold" font-size="10.00" fill="blue">EQUALi(R_WPARM,80)</text>
<polygon fill="none" stroke="black" points="411.5,-57 411.5,-74 676.5,-74 676.5,-57 411.5,-57"/>
<text text-anchor="start" x="414.5" y="-63" font-family="Courier New" font-size="10.00" fill="blue">DIVI(BPARM,2);MOV(BFRAME,BPARM);SHOW(WIP2);</text>
<polygon fill="none" stroke="black" points="408.5,-54 408.5,-96 679.5,-96 679.5,-54 408.5,-54"/>
</g>
<!-- 10&#45;&gt;0 -->
<g id="edge2" class="edge">
<title>10&#45;&gt;0</title>
<path fill="none" stroke="black" d="M45.35,-35.59C32.26,-61.78 12.01,-113.47 33.5,-150 61.35,-197.33 91.82,-186.61 141.5,-210 161.36,-219.35 169.33,-215.69 187.5,-228 192.36,-231.29 197.05,-235.33 201.37,-239.56"/>
<polygon fill="black" stroke="black" points="198.26,-241.42 207.69,-246.24 203.33,-236.59 198.26,-241.42"/>
<text text-anchor="start" x="37.5" y="-130.5" font-family="Courier New" font-weight="bold" font-size="10.00" fill="blue">Z_EPSILON(,)</text>
</g>
<!-- 20&#45;&gt;0 -->
<g id="edge3" class="edge">
<title>20&#45;&gt;0</title>
<path fill="none" stroke="black" d="M908.38,-21.34C947.32,-25.34 1016.42,-34.99 1031.5,-54 1043.1,-68.62 1042.49,-80.91 1031.5,-96 934.17,-229.6 840.2,-180.83 677.5,-210 631.96,-218.16 303.54,-208.69 261.5,-228 255.59,-230.71 250.18,-234.85 245.42,-239.43"/>
<polygon fill="black" stroke="black" points="243.27,-236.68 239.05,-246.41 248.41,-241.43 243.27,-236.68"/>
<text text-anchor="start" x="1018.5" y="-130.5" font-family="Courier New" font-weight="bold" font-size="10.00" fill="blue">Z_EPSILON(,)</text>
</g>
<!-- 30&#45;&gt;0 -->
<g id="edge4" class="edge">
<title>30&#45;&gt;0</title>
<path fill="none" stroke="black" d="M248.74,-20.7C206.55,-24 127.6,-32.9 110.5,-54 98.75,-68.5 105.1,-78.13 110.5,-96 127.53,-152.39 169.87,-207.24 197.88,-239.17"/>
<polygon fill="black" stroke="black" points="194.74,-241.04 204.02,-246.17 199.97,-236.38 194.74,-241.04"/>
<text text-anchor="start" x="137.5" y="-130.5" font-family="Courier New" font-weight="bold" font-size="10.00" fill="blue">Z_EPSILON(,)</text>
</g>
<!-- status -->
<g id="node7" class="node">
<title>status</title>
<polygon fill="none" stroke="black" points="270,-228.5 270,-308.5 647,-308.5 647,-228.5 270,-228.5"/>
<polygon fill="none" stroke="black" points="281,-284.5 281,-301.5 636,-301.5 636,-284.5 281,-284.5"/>
<text text-anchor="start" x="422" y="-291.5" font-family="Courier New" font-weight="bold" font-size="10.00">S1_VIALMETER</text>
<polygon fill="none" stroke="black" points="281,-254.5 281,-282.5 636,-282.5 636,-254.5 281,-254.5"/>
<text text-anchor="start" x="284" y="-271.5" font-family="Courier New" font-size="10.00" fill="green">S1_VIALMETER::M_VIALMETER(&#39;SMP_VIAL&#39;,&#39;IDS_NYSMETER&#39;,&#39;&#39;,&#39;&#39;)</text>
<text text-anchor="start" x="284" y="-260.5" font-family="Courier New" font-size="10.00" fill="green">{&#39;0&#39;: bParm:18 wParm:20 wSprite:NYSMETER bFrame:18}</text>
<polygon fill="none" stroke="black" points="281,-235.5 281,-252.5 636,-252.5 636,-235.5 281,-235.5"/>
<text text-anchor="start" x="455" y="-241.5" font-family="Courier New" font-size="10.00" fill="blue">_</text>
<polygon fill="none" stroke="black" points="278,-232.5 278,-304.5 639,-304.5 639,-232.5 278,-232.5"/>
</g>
</g>
</svg>
