<?xml version="1.0" encoding="UTF-8" standalone="no"?>
<!DOCTYPE svg PUBLIC "-//W3C//DTD SVG 1.1//EN"
 "http://www.w3.org/Graphics/SVG/1.1/DTD/svg11.dtd">
<!-- Generated by graphviz version 8.0.1 (20230327.1645)
 -->
<!-- Title: Automaton Pages: 1 -->
<svg width="523pt" height="270pt"
 viewBox="0.00 0.00 523.00 270.00" xmlns="http://www.w3.org/2000/svg" xmlns:xlink="http://www.w3.org/1999/xlink">
<g id="graph0" class="graph" transform="scale(1 1) rotate(0) translate(4 266)">
<title>Automaton</title>
<polygon fill="white" stroke="none" points="-4,4 -4,-266 519,-266 519,4 -4,4"/>
<!-- filename -->
<g id="node1" class="node">
<title>filename</title>
<polygon fill="none" stroke="black" points="0,-200.5 0,-250.5 131,-250.5 131,-200.5 0,-200.5"/>
<polygon fill="none" stroke="black" points="11,-226.5 11,-243.5 120,-243.5 120,-226.5 11,-226.5"/>
<text text-anchor="start" x="14" y="-233.5" font-family="Courier New" font-weight="bold" font-size="10.00">S21_MAPBIN::M_BIN</text>
<polygon fill="none" stroke="black" points="11,-207.5 11,-224.5 120,-224.5 120,-207.5 11,-207.5"/>
<text text-anchor="start" x="20" y="-213.5" font-family="Courier New" font-size="10.00" fill="brown">start state = 0</text>
<polygon fill="none" stroke="black" points="8,-204.5 8,-246.5 123,-246.5 123,-204.5 8,-204.5"/>
</g>
<!-- 0 -->
<g id="node2" class="node">
<title>0</title>
<polyline fill="none" stroke="darkred" points="169,-215 184,-215"/>
<text text-anchor="start" x="172" y="-222.8" font-family="Courier New" font-weight="bold" font-size="14.00">0</text>
<path fill="none" stroke="darkred" d="M173,-212C173,-212 180,-212 180,-212 183.5,-212 187,-215.5 187,-219 187,-219 187,-232 187,-232 187,-235.5 183.5,-239 180,-239 180,-239 173,-239 173,-239 169.5,-239 166,-235.5 166,-232 166,-232 166,-219 166,-219 166,-215.5 169.5,-212 173,-212"/>
</g>
<!-- 1 -->
<g id="node3" class="node">
<title>1</title>
<polyline fill="none" stroke="darkred" points="169,-105.5 184,-105.5"/>
<text text-anchor="start" x="172" y="-113.3" font-family="Courier New" font-weight="bold" font-size="14.00">1</text>
<path fill="none" stroke="darkred" d="M173,-102.5C173,-102.5 180,-102.5 180,-102.5 183.5,-102.5 187,-106 187,-109.5 187,-109.5 187,-122.5 187,-122.5 187,-126 183.5,-129.5 180,-129.5 180,-129.5 173,-129.5 173,-129.5 169.5,-129.5 166,-126 166,-122.5 166,-122.5 166,-109.5 166,-109.5 166,-106 169.5,-102.5 173,-102.5"/>
</g>
<!-- 0&#45;&gt;1 -->
<g id="edge1" class="edge">
<title>0&#45;&gt;1</title>
<path fill="none" stroke="black" d="M176.5,-207.7C176.5,-190.82 176.5,-164.51 176.5,-144.57"/>
<polygon fill="black" stroke="black" points="180,-144.68 176.5,-134.68 173,-144.68 180,-144.68"/>
<text text-anchor="start" x="180.5" y="-160" font-family="Courier New" font-weight="bold" font-size="10.00" fill="blue">O_ACCEPT(WIP1,)</text>
</g>
<!-- 10 -->
<g id="node4" class="node">
<title>10</title>
<polyline fill="none" stroke="darkred" stroke-width="3" points="164.5,-10.5 188.5,-10.5"/>
<text text-anchor="start" x="168" y="-18.8" font-family="Courier New" font-weight="bold" font-size="14.00">10</text>
<path fill="none" stroke="darkred" stroke-width="3" d="M170.17,-5.5C170.17,-5.5 182.83,-5.5 182.83,-5.5 188.17,-5.5 193.5,-10.83 193.5,-16.17 193.5,-16.17 193.5,-26.83 193.5,-26.83 193.5,-32.17 188.17,-37.5 182.83,-37.5 182.83,-37.5 170.17,-37.5 170.17,-37.5 164.83,-37.5 159.5,-32.17 159.5,-26.83 159.5,-26.83 159.5,-16.17 159.5,-16.17 159.5,-10.83 164.83,-5.5 170.17,-5.5"/>
</g>
<!-- 1&#45;&gt;10 -->
<g id="edge2" class="edge">
<title>1&#45;&gt;10</title>
<path fill="none" stroke="black" d="M176.5,-98.03C176.5,-85.65 176.5,-68.5 176.5,-53.68"/>
<polygon fill="black" stroke="black" points="180,-53.91 176.5,-43.91 173,-53.91 180,-53.91"/>
<text text-anchor="start" x="180.5" y="-69" font-family="Courier New" font-weight="bold" font-size="10.00" fill="blue">SHOW(WIP2,)</text>
</g>
<!-- 10&#45;&gt;10 -->
<g id="edge3" class="edge">
<title>10&#45;&gt;10</title>
<path fill="none" stroke="black" d="M203.29,-26.08C213.28,-26.23 221.5,-24.71 221.5,-21.5 221.5,-19.6 218.6,-18.28 214.16,-17.56"/>
<polygon fill="black" stroke="black" points="214.49,-14.02 204.29,-16.92 214.07,-21.01 214.49,-14.02"/>
<text text-anchor="start" x="225.5" y="-20" font-family="Courier New" font-weight="bold" font-size="10.00" fill="orange">DROP(0,0)</text>
</g>
<!-- 10&#45;&gt;10 -->
<g id="edge4" class="edge">
<title>10&#45;&gt;10</title>
<path fill="none" stroke="black" d="M203.28,-28.53C236.58,-32.94 284.5,-30.59 284.5,-21.5 284.5,-13.33 245.82,-10.61 213.81,-13.34"/>
<polygon fill="black" stroke="black" points="213.85,-9.92 204.28,-14.47 214.6,-16.88 213.85,-9.92"/>
<text text-anchor="start" x="288.5" y="-20" font-family="Courier New" font-weight="bold" font-size="10.00" fill="orange">GRAB(WIP1,)</text>
</g>
<!-- status -->
<g id="node5" class="node">
<title>status</title>
<polygon fill="none" stroke="black" points="222,-189.5 222,-261.5 515,-261.5 515,-189.5 222,-189.5"/>
<polygon fill="none" stroke="black" points="233,-237.5 233,-254.5 504,-254.5 504,-237.5 233,-237.5"/>
<text text-anchor="start" x="338" y="-244.5" font-family="Courier New" font-weight="bold" font-size="10.00">S21_MAPBIN</text>
<polygon fill="none" stroke="black" points="233,-196.5 233,-235.5 504,-235.5 504,-196.5 233,-196.5"/>
<text text-anchor="start" x="236" y="-224.5" font-family="Courier New" font-size="10.00" fill="green">VIEW::IDV_MAPROOM @pos(left:2708, top:7)</text>
<text text-anchor="start" x="236" y="-213.5" font-family="Courier New" font-size="10.00" fill="green">S21_MAPBIN::M_BIN(&#39;IDD_MAPBTN&#39;,&#39;&#39;,&#39;60&#39;,&#39;&#39;)</text>
<text text-anchor="start" x="236" y="-202.5" font-family="Courier New" font-size="10.00" fill="green">{&#39;10&#39;: wObject:IDD_MAPBTN wAccept:IDD_MAPBTN</text>
<polygon fill="none" stroke="black" points="230,-193.5 230,-257.5 507,-257.5 507,-193.5 230,-193.5"/>
</g>
</g>
</svg>
