<?xml version="1.0" encoding="UTF-8" standalone="no"?>
<!DOCTYPE svg PUBLIC "-//W3C//DTD SVG 1.1//EN"
 "http://www.w3.org/Graphics/SVG/1.1/DTD/svg11.dtd">
<!-- Generated by graphviz version 8.0.1 (20230327.1645)
 -->
<!-- Title: Automaton Pages: 1 -->
<svg width="775pt" height="1264pt"
 viewBox="0.00 0.00 775.00 1264.00" xmlns="http://www.w3.org/2000/svg" xmlns:xlink="http://www.w3.org/1999/xlink">
<g id="graph0" class="graph" transform="scale(1 1) rotate(0) translate(4 1260)">
<title>Automaton</title>
<polygon fill="white" stroke="none" points="-4,4 -4,-1260 771,-1260 771,4 -4,4"/>
<!-- filename -->
<g id="node1" class="node">
<title>filename</title>
<polygon fill="none" stroke="black" points="0,-1194.5 0,-1244.5 191,-1244.5 191,-1194.5 0,-1194.5"/>
<polygon fill="none" stroke="black" points="11,-1220.5 11,-1237.5 180,-1237.5 180,-1220.5 11,-1220.5"/>
<text text-anchor="start" x="14" y="-1227.5" font-family="Courier New" font-weight="bold" font-size="10.00">S24_EYEPLATE1::M24_EYEPLATE</text>
<polygon fill="none" stroke="black" points="11,-1201.5 11,-1218.5 180,-1218.5 180,-1201.5 11,-1201.5"/>
<text text-anchor="start" x="50" y="-1207.5" font-family="Courier New" font-size="10.00" fill="brown">start state = 0</text>
<polygon fill="none" stroke="black" points="8,-1198.5 8,-1240.5 183,-1240.5 183,-1198.5 8,-1198.5"/>
</g>
<!-- 0 -->
<g id="node2" class="node">
<title>0</title>
<polyline fill="none" stroke="darkred" stroke-width="3" points="228.5,-1208.5 244.5,-1208.5"/>
<text text-anchor="start" x="232" y="-1216.8" font-family="Courier New" font-weight="bold" font-size="14.00">0</text>
<path fill="none" stroke="darkred" stroke-width="3" d="M232.17,-1203.5C232.17,-1203.5 240.83,-1203.5 240.83,-1203.5 245.17,-1203.5 249.5,-1207.83 249.5,-1212.17 249.5,-1212.17 249.5,-1226.83 249.5,-1226.83 249.5,-1231.17 245.17,-1235.5 240.83,-1235.5 240.83,-1235.5 232.17,-1235.5 232.17,-1235.5 227.83,-1235.5 223.5,-1231.17 223.5,-1226.83 223.5,-1226.83 223.5,-1212.17 223.5,-1212.17 223.5,-1207.83 227.83,-1203.5 232.17,-1203.5"/>
</g>
<!-- 1 -->
<g id="node3" class="node">
<title>1</title>
<polyline fill="none" stroke="darkred" points="153,-1099.5 168,-1099.5"/>
<text text-anchor="start" x="156" y="-1107.3" font-family="Courier New" font-weight="bold" font-size="14.00">1</text>
<path fill="none" stroke="darkred" d="M157,-1096.5C157,-1096.5 164,-1096.5 164,-1096.5 167.5,-1096.5 171,-1100 171,-1103.5 171,-1103.5 171,-1116.5 171,-1116.5 171,-1120 167.5,-1123.5 164,-1123.5 164,-1123.5 157,-1123.5 157,-1123.5 153.5,-1123.5 150,-1120 150,-1116.5 150,-1116.5 150,-1103.5 150,-1103.5 150,-1100 153.5,-1096.5 157,-1096.5"/>
</g>
<!-- 0&#45;&gt;1 -->
<g id="edge1" class="edge">
<title>0&#45;&gt;1</title>
<path fill="none" stroke="black" d="M216.84,-1198.17C211.42,-1192.98 205.41,-1187.59 199.5,-1183 187.52,-1173.7 179.06,-1177.53 170.5,-1165 165.28,-1157.36 162.58,-1147.75 161.24,-1138.77"/>
<polygon fill="black" stroke="black" points="164.64,-1138.53 160.19,-1128.92 157.67,-1139.21 164.64,-1138.53"/>
<text text-anchor="start" x="174.5" y="-1154" font-family="Courier New" font-weight="bold" font-size="10.00" fill="orange">DROP(0,IDD_EYEFUSE)</text>
</g>
<!-- 2 -->
<g id="node4" class="node">
<title>2</title>
<polyline fill="none" stroke="darkred" points="150,-1008.5 165,-1008.5"/>
<text text-anchor="start" x="153" y="-1016.3" font-family="Courier New" font-weight="bold" font-size="14.00">2</text>
<path fill="none" stroke="darkred" d="M154,-1005.5C154,-1005.5 161,-1005.5 161,-1005.5 164.5,-1005.5 168,-1009 168,-1012.5 168,-1012.5 168,-1025.5 168,-1025.5 168,-1029 164.5,-1032.5 161,-1032.5 161,-1032.5 154,-1032.5 154,-1032.5 150.5,-1032.5 147,-1029 147,-1025.5 147,-1025.5 147,-1012.5 147,-1012.5 147,-1009 150.5,-1005.5 154,-1005.5"/>
</g>
<!-- 1&#45;&gt;2 -->
<g id="edge2" class="edge">
<title>1&#45;&gt;2</title>
<path fill="none" stroke="black" d="M159.41,-1092.27C159.07,-1086.49 158.73,-1079.96 158.5,-1074 158.17,-1065.37 157.95,-1055.96 157.8,-1047.44"/>
<polygon fill="black" stroke="black" points="161.29,-1047.5 157.64,-1037.55 154.29,-1047.6 161.29,-1047.5"/>
<text text-anchor="start" x="162.5" y="-1063" font-family="Courier New" font-weight="bold" font-size="10.00" fill="blue">SIGNALi(0,S24_BIGEYE)</text>
</g>
<!-- 3 -->
<g id="node5" class="node">
<title>3</title>
<polyline fill="none" stroke="darkred" points="150,-917.5 165,-917.5"/>
<text text-anchor="start" x="153" y="-925.3" font-family="Courier New" font-weight="bold" font-size="14.00">3</text>
<path fill="none" stroke="darkred" d="M154,-914.5C154,-914.5 161,-914.5 161,-914.5 164.5,-914.5 168,-918 168,-921.5 168,-921.5 168,-934.5 168,-934.5 168,-938 164.5,-941.5 161,-941.5 161,-941.5 154,-941.5 154,-941.5 150.5,-941.5 147,-938 147,-934.5 147,-934.5 147,-921.5 147,-921.5 147,-918 150.5,-914.5 154,-914.5"/>
</g>
<!-- 2&#45;&gt;3 -->
<g id="edge3" class="edge">
<title>2&#45;&gt;3</title>
<path fill="none" stroke="black" d="M157.5,-1001.26C157.5,-988.78 157.5,-971.46 157.5,-956.9"/>
<polygon fill="black" stroke="black" points="161,-956.97 157.5,-946.97 154,-956.97 161,-956.97"/>
<text text-anchor="start" x="161.5" y="-972" font-family="Courier New" font-weight="bold" font-size="10.00" fill="blue">C_ACCEPT(0,IDC_BOMB)</text>
</g>
<!-- 4 -->
<g id="node6" class="node">
<title>4</title>
<polyline fill="none" stroke="darkred" points="150,-826.5 165,-826.5"/>
<text text-anchor="start" x="153" y="-834.3" font-family="Courier New" font-weight="bold" font-size="14.00">4</text>
<path fill="none" stroke="darkred" d="M154,-823.5C154,-823.5 161,-823.5 161,-823.5 164.5,-823.5 168,-827 168,-830.5 168,-830.5 168,-843.5 168,-843.5 168,-847 164.5,-850.5 161,-850.5 161,-850.5 154,-850.5 154,-850.5 150.5,-850.5 147,-847 147,-843.5 147,-843.5 147,-830.5 147,-830.5 147,-827 150.5,-823.5 154,-823.5"/>
</g>
<!-- 3&#45;&gt;4 -->
<g id="edge4" class="edge">
<title>3&#45;&gt;4</title>
<path fill="none" stroke="black" d="M157.5,-910.26C157.5,-897.78 157.5,-880.46 157.5,-865.9"/>
<polygon fill="black" stroke="black" points="161,-865.97 157.5,-855.97 154,-865.97 161,-865.97"/>
<text text-anchor="start" x="161.5" y="-881" font-family="Courier New" font-weight="bold" font-size="10.00" fill="blue">ASHOW(0,IDS_EYEPLATE)</text>
</g>
<!-- 5 -->
<g id="node7" class="node">
<title>5</title>
<polyline fill="none" stroke="darkred" points="150,-735.5 165,-735.5"/>
<text text-anchor="start" x="153" y="-743.3" font-family="Courier New" font-weight="bold" font-size="14.00">5</text>
<path fill="none" stroke="darkred" d="M154,-732.5C154,-732.5 161,-732.5 161,-732.5 164.5,-732.5 168,-736 168,-739.5 168,-739.5 168,-752.5 168,-752.5 168,-756 164.5,-759.5 161,-759.5 161,-759.5 154,-759.5 154,-759.5 150.5,-759.5 147,-756 147,-752.5 147,-752.5 147,-739.5 147,-739.5 147,-736 150.5,-732.5 154,-732.5"/>
</g>
<!-- 4&#45;&gt;5 -->
<g id="edge5" class="edge">
<title>4&#45;&gt;5</title>
<path fill="none" stroke="black" d="M157.5,-819.26C157.5,-806.78 157.5,-789.46 157.5,-774.9"/>
<polygon fill="black" stroke="black" points="161,-774.97 157.5,-764.97 154,-774.97 161,-774.97"/>
<text text-anchor="start" x="161.5" y="-790" font-family="Courier New" font-weight="bold" font-size="10.00" fill="blue">SIGNAL(WIP1,SIG_SHOW)</text>
</g>
<!-- 6 -->
<g id="node8" class="node">
<title>6</title>
<polyline fill="none" stroke="darkred" points="150,-644.5 165,-644.5"/>
<text text-anchor="start" x="153" y="-652.3" font-family="Courier New" font-weight="bold" font-size="14.00">6</text>
<path fill="none" stroke="darkred" d="M154,-641.5C154,-641.5 161,-641.5 161,-641.5 164.5,-641.5 168,-645 168,-648.5 168,-648.5 168,-661.5 168,-661.5 168,-665 164.5,-668.5 161,-668.5 161,-668.5 154,-668.5 154,-668.5 150.5,-668.5 147,-665 147,-661.5 147,-661.5 147,-648.5 147,-648.5 147,-645 150.5,-641.5 154,-641.5"/>
</g>
<!-- 5&#45;&gt;6 -->
<g id="edge6" class="edge">
<title>5&#45;&gt;6</title>
<path fill="none" stroke="black" d="M157.5,-728.26C157.5,-715.78 157.5,-698.46 157.5,-683.9"/>
<polygon fill="black" stroke="black" points="161,-683.97 157.5,-673.97 154,-683.97 161,-683.97"/>
<text text-anchor="start" x="161.5" y="-699" font-family="Courier New" font-weight="bold" font-size="10.00" fill="blue">SIGNAL(WIP2,SIG_SHOW)</text>
</g>
<!-- 50 -->
<g id="node9" class="node">
<title>50</title>
<polyline fill="none" stroke="darkred" points="146,-553.5 169,-553.5"/>
<text text-anchor="start" x="149" y="-561.3" font-family="Courier New" font-weight="bold" font-size="14.00">50</text>
<path fill="none" stroke="darkred" d="M152,-550.5C152,-550.5 163,-550.5 163,-550.5 167.5,-550.5 172,-555 172,-559.5 172,-559.5 172,-568.5 172,-568.5 172,-573 167.5,-577.5 163,-577.5 163,-577.5 152,-577.5 152,-577.5 147.5,-577.5 143,-573 143,-568.5 143,-568.5 143,-559.5 143,-559.5 143,-555 147.5,-550.5 152,-550.5"/>
</g>
<!-- 6&#45;&gt;50 -->
<g id="edge14" class="edge">
<title>6&#45;&gt;50</title>
<path fill="none" stroke="black" d="M157.5,-637.26C157.5,-624.78 157.5,-607.46 157.5,-592.9"/>
<polygon fill="black" stroke="black" points="161,-592.97 157.5,-582.97 154,-592.97 161,-592.97"/>
<text text-anchor="start" x="161.5" y="-608" font-family="Courier New" font-weight="bold" font-size="10.00" fill="orange">DROP(0,0)</text>
</g>
<!-- 51 -->
<g id="node10" class="node">
<title>51</title>
<polyline fill="none" stroke="darkred" points="128,-462.5 151,-462.5"/>
<text text-anchor="start" x="131" y="-470.3" font-family="Courier New" font-weight="bold" font-size="14.00">51</text>
<path fill="none" stroke="darkred" d="M134,-459.5C134,-459.5 145,-459.5 145,-459.5 149.5,-459.5 154,-464 154,-468.5 154,-468.5 154,-477.5 154,-477.5 154,-482 149.5,-486.5 145,-486.5 145,-486.5 134,-486.5 134,-486.5 129.5,-486.5 125,-482 125,-477.5 125,-477.5 125,-468.5 125,-468.5 125,-464 129.5,-459.5 134,-459.5"/>
</g>
<!-- 50&#45;&gt;51 -->
<g id="edge7" class="edge">
<title>50&#45;&gt;51</title>
<path fill="none" stroke="black" d="M154.11,-546.26C151.57,-533.66 148.02,-516.12 145.06,-501.47"/>
<polygon fill="black" stroke="black" points="148.34,-501.08 142.93,-491.97 141.48,-502.46 148.34,-501.08"/>
<text text-anchor="start" x="154.5" y="-517" font-family="Courier New" font-weight="bold" font-size="10.00" fill="blue">VIDEO(0,IDS_EXPLODE1)</text>
</g>
<!-- 52 -->
<g id="node11" class="node">
<title>52</title>
<polyline fill="none" stroke="darkred" points="122,-371.5 145,-371.5"/>
<text text-anchor="start" x="125" y="-379.3" font-family="Courier New" font-weight="bold" font-size="14.00">52</text>
<path fill="none" stroke="darkred" d="M128,-368.5C128,-368.5 139,-368.5 139,-368.5 143.5,-368.5 148,-373 148,-377.5 148,-377.5 148,-386.5 148,-386.5 148,-391 143.5,-395.5 139,-395.5 139,-395.5 128,-395.5 128,-395.5 123.5,-395.5 119,-391 119,-386.5 119,-386.5 119,-377.5 119,-377.5 119,-373 123.5,-368.5 128,-368.5"/>
</g>
<!-- 51&#45;&gt;52 -->
<g id="edge8" class="edge">
<title>51&#45;&gt;52</title>
<path fill="none" stroke="black" d="M136.69,-455.31C135.83,-449.53 134.98,-443 134.5,-437 133.81,-428.39 133.48,-418.98 133.35,-410.47"/>
<polygon fill="black" stroke="black" points="136.85,-410.55 133.28,-400.57 129.85,-410.59 136.85,-410.55"/>
<text text-anchor="start" x="138.5" y="-426" font-family="Courier New" font-weight="bold" font-size="10.00" fill="blue">PLAYWAVE(0,SOUND_EXPLODE)</text>
</g>
<!-- 53 -->
<g id="node12" class="node">
<title>53</title>
<polyline fill="none" stroke="darkred" points="122,-280.5 145,-280.5"/>
<text text-anchor="start" x="125" y="-288.3" font-family="Courier New" font-weight="bold" font-size="14.00">53</text>
<path fill="none" stroke="darkred" d="M128,-277.5C128,-277.5 139,-277.5 139,-277.5 143.5,-277.5 148,-282 148,-286.5 148,-286.5 148,-295.5 148,-295.5 148,-300 143.5,-304.5 139,-304.5 139,-304.5 128,-304.5 128,-304.5 123.5,-304.5 119,-300 119,-295.5 119,-295.5 119,-286.5 119,-286.5 119,-282 123.5,-277.5 128,-277.5"/>
</g>
<!-- 52&#45;&gt;53 -->
<g id="edge9" class="edge">
<title>52&#45;&gt;53</title>
<path fill="none" stroke="black" d="M133.5,-364.26C133.5,-351.78 133.5,-334.46 133.5,-319.9"/>
<polygon fill="black" stroke="black" points="137,-319.97 133.5,-309.97 130,-319.97 137,-319.97"/>
<text text-anchor="start" x="137.5" y="-335" font-family="Courier New" font-weight="bold" font-size="10.00" fill="blue">SHOW(0,0)</text>
</g>
<!-- 54 -->
<g id="node13" class="node">
<title>54</title>
<polyline fill="none" stroke="darkred" points="123,-189.5 146,-189.5"/>
<text text-anchor="start" x="126" y="-197.3" font-family="Courier New" font-weight="bold" font-size="14.00">54</text>
<path fill="none" stroke="darkred" d="M129,-186.5C129,-186.5 140,-186.5 140,-186.5 144.5,-186.5 149,-191 149,-195.5 149,-195.5 149,-204.5 149,-204.5 149,-209 144.5,-213.5 140,-213.5 140,-213.5 129,-213.5 129,-213.5 124.5,-213.5 120,-209 120,-204.5 120,-204.5 120,-195.5 120,-195.5 120,-191 124.5,-186.5 129,-186.5"/>
</g>
<!-- 53&#45;&gt;54 -->
<g id="edge10" class="edge">
<title>53&#45;&gt;54</title>
<path fill="none" stroke="black" d="M133.69,-273.26C133.83,-260.78 134.02,-243.46 134.19,-228.9"/>
<polygon fill="black" stroke="black" points="137.7,-229.01 134.31,-218.97 130.7,-228.93 137.7,-229.01"/>
<text text-anchor="start" x="138.5" y="-244" font-family="Courier New" font-weight="bold" font-size="10.00" fill="blue">SIGNAL(WIP1,SIG_HIDE)</text>
</g>
<!-- 55 -->
<g id="node14" class="node">
<title>55</title>
<polyline fill="none" stroke="darkred" points="127,-98.5 150,-98.5"/>
<text text-anchor="start" x="130" y="-106.3" font-family="Courier New" font-weight="bold" font-size="14.00">55</text>
<path fill="none" stroke="darkred" d="M133,-95.5C133,-95.5 144,-95.5 144,-95.5 148.5,-95.5 153,-100 153,-104.5 153,-104.5 153,-113.5 153,-113.5 153,-118 148.5,-122.5 144,-122.5 144,-122.5 133,-122.5 133,-122.5 128.5,-122.5 124,-118 124,-113.5 124,-113.5 124,-104.5 124,-104.5 124,-100 128.5,-95.5 133,-95.5"/>
</g>
<!-- 54&#45;&gt;55 -->
<g id="edge11" class="edge">
<title>54&#45;&gt;55</title>
<path fill="none" stroke="black" d="M135.25,-182.26C135.81,-169.78 136.59,-152.46 137.25,-137.9"/>
<polygon fill="black" stroke="black" points="140.78,-138.11 137.74,-127.97 133.79,-137.8 140.78,-138.11"/>
<text text-anchor="start" x="141.5" y="-153" font-family="Courier New" font-weight="bold" font-size="10.00" fill="blue">SIGNAL(WIP2,SIG_HIDE)</text>
</g>
<!-- 56 -->
<g id="node15" class="node">
<title>56</title>
<polyline fill="none" stroke="darkred" points="220,-7.5 243,-7.5"/>
<text text-anchor="start" x="223" y="-15.3" font-family="Courier New" font-weight="bold" font-size="14.00">56</text>
<path fill="none" stroke="darkred" d="M226,-4.5C226,-4.5 237,-4.5 237,-4.5 241.5,-4.5 246,-9 246,-13.5 246,-13.5 246,-22.5 246,-22.5 246,-27 241.5,-31.5 237,-31.5 237,-31.5 226,-31.5 226,-31.5 221.5,-31.5 217,-27 217,-22.5 217,-22.5 217,-13.5 217,-13.5 217,-9 221.5,-4.5 226,-4.5"/>
</g>
<!-- 55&#45;&gt;56 -->
<g id="edge12" class="edge">
<title>55&#45;&gt;56</title>
<path fill="none" stroke="black" d="M136.9,-91.22C136.7,-79.62 138.33,-64.45 146.5,-54 158.14,-39.11 177.2,-30.51 194.33,-25.56"/>
<polygon fill="black" stroke="black" points="194.83,-28.79 203.65,-22.93 193.1,-22.01 194.83,-28.79"/>
<text text-anchor="start" x="150.5" y="-62" font-family="Courier New" font-weight="bold" font-size="10.00" fill="blue">O_ACCEPT(0,IDD_EYEFUSE)</text>
</g>
<!-- 56&#45;&gt;0 -->
<g id="edge13" class="edge">
<title>56&#45;&gt;0</title>
<path fill="none" stroke="black" d="M258.38,-28.47C270.74,-34.1 284.61,-42.44 293.5,-54 308.61,-73.66 307.5,-83.21 307.5,-108 307.5,-1111 307.5,-1111 307.5,-1111 307.5,-1135.79 306.63,-1143.97 293.5,-1165 286.99,-1175.43 281.55,-1174.68 272.5,-1183 269.77,-1185.51 266.96,-1188.16 264.17,-1190.84"/>
<polygon fill="black" stroke="black" points="262.17,-1187.87 257.44,-1197.35 267.05,-1192.89 262.17,-1187.87"/>
<text text-anchor="start" x="311.5" y="-608" font-family="Courier New" font-weight="bold" font-size="10.00" fill="blue">SIGNALi(SIG_BOMB,S24_BIGEYE)</text>
</g>
<!-- status -->
<g id="node16" class="node">
<title>status</title>
<polygon fill="none" stroke="black" points="282,-1183.5 282,-1255.5 767,-1255.5 767,-1183.5 282,-1183.5"/>
<polygon fill="none" stroke="black" points="293,-1231.5 293,-1248.5 756,-1248.5 756,-1231.5 293,-1231.5"/>
<text text-anchor="start" x="485" y="-1238.5" font-family="Courier New" font-weight="bold" font-size="10.00">S24_EYEPLATE1</text>
<polygon fill="none" stroke="black" points="293,-1190.5 293,-1229.5 756,-1229.5 756,-1190.5 293,-1190.5"/>
<text text-anchor="start" x="296" y="-1218.5" font-family="Courier New" font-size="10.00" fill="green">VIEW::IDV_EYEC1P @pos(left:200, top:28)</text>
<text text-anchor="start" x="296" y="-1207.5" font-family="Courier New" font-size="10.00" fill="green">S24_EYEPLATE1::M24_EYEPLATE(&#39;S24_ALTa_EYEPLATE1&#39;,&#39;S24_ALTb_EYEPLATE1&#39;,&#39;&#39;,&#39;&#39;)</text>
<text text-anchor="start" x="296" y="-1196.5" font-family="Courier New" font-size="10.00" fill="green">{state:&#39;0&#39;:</text>
<polygon fill="none" stroke="black" points="290,-1187.5 290,-1251.5 759,-1251.5 759,-1187.5 290,-1187.5"/>
</g>
</g>
</svg>
