<?xml version="1.0" encoding="UTF-8" standalone="no"?>
<!DOCTYPE svg PUBLIC "-//W3C//DTD SVG 1.1//EN"
 "http://www.w3.org/Graphics/SVG/1.1/DTD/svg11.dtd">
<!-- Generated by graphviz version 8.0.1 (20230327.1645)
 -->
<!-- Title: Automaton Pages: 1 -->
<svg width="3147pt" height="172pt"
 viewBox="0.00 0.00 3147.44 172.00" xmlns="http://www.w3.org/2000/svg" xmlns:xlink="http://www.w3.org/1999/xlink">
<g id="graph0" class="graph" transform="scale(1 1) rotate(0) translate(4 168)">
<title>Automaton</title>
<polygon fill="white" stroke="none" points="-4,4 -4,-168 3143.44,-168 3143.44,4 -4,4"/>
<!-- filename -->
<g id="node1" class="node">
<title>filename</title>
<polygon fill="none" stroke="black" points="1216.94,-102.5 1216.94,-152.5 1383.94,-152.5 1383.94,-102.5 1216.94,-102.5"/>
<polygon fill="none" stroke="black" points="1227.94,-128.5 1227.94,-145.5 1372.94,-145.5 1372.94,-128.5 1227.94,-128.5"/>
<text text-anchor="start" x="1230.94" y="-135.5" font-family="Courier New" font-weight="bold" font-size="10.00">S25_EXIT1::M25_EXITDOOR</text>
<polygon fill="none" stroke="black" points="1227.94,-109.5 1227.94,-126.5 1372.94,-126.5 1372.94,-109.5 1227.94,-109.5"/>
<text text-anchor="start" x="1254.94" y="-115.5" font-family="Courier New" font-size="10.00" fill="brown">start state = 0</text>
<polygon fill="none" stroke="black" points="1224.94,-106.5 1224.94,-148.5 1375.94,-148.5 1375.94,-106.5 1224.94,-106.5"/>
</g>
<!-- 0 -->
<g id="node2" class="node">
<title>0</title>
<polyline fill="none" stroke="darkred" stroke-width="3" points="1421.44,-116.5 1437.44,-116.5"/>
<text text-anchor="start" x="1424.94" y="-124.8" font-family="Courier New" font-weight="bold" font-size="14.00">0</text>
<path fill="none" stroke="darkred" stroke-width="3" d="M1425.11,-111.5C1425.11,-111.5 1433.77,-111.5 1433.77,-111.5 1438.11,-111.5 1442.44,-115.83 1442.44,-120.17 1442.44,-120.17 1442.44,-134.83 1442.44,-134.83 1442.44,-139.17 1438.11,-143.5 1433.77,-143.5 1433.77,-143.5 1425.11,-143.5 1425.11,-143.5 1420.77,-143.5 1416.44,-139.17 1416.44,-134.83 1416.44,-134.83 1416.44,-120.17 1416.44,-120.17 1416.44,-115.83 1420.77,-111.5 1425.11,-111.5"/>
</g>
<!-- 1 -->
<g id="node3" class="node">
<title>1</title>
<polyline fill="none" stroke="darkred" points="1421.94,-7.5 1436.94,-7.5"/>
<text text-anchor="start" x="1424.94" y="-15.3" font-family="Courier New" font-weight="bold" font-size="14.00">1</text>
<path fill="none" stroke="darkred" d="M1425.94,-4.5C1425.94,-4.5 1432.94,-4.5 1432.94,-4.5 1436.44,-4.5 1439.94,-8 1439.94,-11.5 1439.94,-11.5 1439.94,-24.5 1439.94,-24.5 1439.94,-28 1436.44,-31.5 1432.94,-31.5 1432.94,-31.5 1425.94,-31.5 1425.94,-31.5 1422.44,-31.5 1418.94,-28 1418.94,-24.5 1418.94,-24.5 1418.94,-11.5 1418.94,-11.5 1418.94,-8 1422.44,-4.5 1425.94,-4.5"/>
</g>
<!-- 0&#45;&gt;1 -->
<g id="edge1" class="edge">
<title>0&#45;&gt;1</title>
<path fill="none" stroke="black" d="M1413.41,-106.03C1407.53,-100.04 1400.35,-94.24 1392.44,-91 1356.76,-76.38 31.53,-100.44 4.44,-73 -1.49,-66.99 -1.46,-60.04 4.44,-54 29.38,-28.44 1168.21,-20.52 1391.64,-19.21"/>
<polygon fill="black" stroke="black" points="1391.47,-22.7 1401.45,-19.14 1391.43,-15.7 1391.47,-22.7"/>
<text text-anchor="start" x="8.44" y="-62" font-family="Courier New" font-weight="bold" font-size="10.00" fill="orange">CLICK(0,0)</text>
</g>
<!-- 0&#45;&gt;1 -->
<g id="edge2" class="edge">
<title>0&#45;&gt;1</title>
<path fill="none" stroke="black" d="M1413.41,-106.03C1407.53,-100.05 1400.35,-94.24 1392.44,-91 1359.13,-77.34 121.72,-98.63 96.44,-73 90.51,-66.99 90.55,-60.05 96.44,-54 119.66,-30.16 1177.31,-20.9 1391.75,-19.27"/>
<polygon fill="black" stroke="black" points="1391.75,-22.76 1401.72,-19.19 1391.7,-15.76 1391.75,-22.76"/>
<text text-anchor="start" x="100.44" y="-62" font-family="Courier New" font-weight="bold" font-size="10.00" fill="orange">CLICK(0,0)</text>
</g>
<!-- 0&#45;&gt;1 -->
<g id="edge3" class="edge">
<title>0&#45;&gt;1</title>
<path fill="none" stroke="black" d="M1413.41,-106.04C1407.52,-100.05 1400.35,-94.25 1392.44,-91 1361.5,-78.29 211.91,-96.83 188.44,-73 182.51,-66.98 182.55,-60.05 188.44,-54 209.95,-31.88 1186.39,-21.32 1391.78,-19.35"/>
<polygon fill="black" stroke="black" points="1391.62,-22.84 1401.59,-19.24 1391.55,-15.84 1391.62,-22.84"/>
<text text-anchor="start" x="192.44" y="-62" font-family="Courier New" font-weight="bold" font-size="10.00" fill="orange">CLICK(0,0)</text>
</g>
<!-- 0&#45;&gt;1 -->
<g id="edge4" class="edge">
<title>0&#45;&gt;1</title>
<path fill="none" stroke="black" d="M1413.41,-106.04C1407.52,-100.06 1400.34,-94.25 1392.44,-91 1363.87,-79.24 302.11,-95.02 280.44,-73 274.52,-66.98 274.56,-60.06 280.44,-54 300.24,-33.59 1195.85,-21.78 1391.82,-19.43"/>
<polygon fill="black" stroke="black" points="1391.72,-22.92 1401.68,-19.3 1391.64,-15.92 1391.72,-22.92"/>
<text text-anchor="start" x="284.44" y="-62" font-family="Courier New" font-weight="bold" font-size="10.00" fill="orange">CLICK(0,0)</text>
</g>
<!-- 0&#45;&gt;1 -->
<g id="edge5" class="edge">
<title>0&#45;&gt;1</title>
<path fill="none" stroke="black" d="M1413.41,-106.05C1407.52,-100.07 1400.34,-94.26 1392.44,-91 1340.05,-69.39 412.16,-113.43 372.44,-73 366.52,-66.98 366.57,-60.07 372.44,-54 408.57,-16.66 1207.39,-17.99 1391.73,-18.8"/>
<polygon fill="black" stroke="black" points="1391.47,-22.3 1401.49,-18.85 1391.5,-15.3 1391.47,-22.3"/>
<text text-anchor="start" x="376.44" y="-62" font-family="Courier New" font-weight="bold" font-size="10.00" fill="orange">CLICK(0,0)</text>
</g>
<!-- 0&#45;&gt;1 -->
<g id="edge6" class="edge">
<title>0&#45;&gt;1</title>
<path fill="none" stroke="black" d="M1413.4,-106.06C1407.52,-100.07 1400.34,-94.27 1392.44,-91 1344.79,-71.3 500.55,-109.81 464.44,-73 458.53,-66.97 458.58,-60.08 464.44,-54 497.16,-20.07 1217.46,-18.74 1391.73,-18.92"/>
<polygon fill="black" stroke="black" points="1391.63,-22.42 1401.64,-18.94 1391.64,-15.42 1391.63,-22.42"/>
<text text-anchor="start" x="468.44" y="-62" font-family="Courier New" font-weight="bold" font-size="10.00" fill="orange">CLICK(0,0)</text>
</g>
<!-- 0&#45;&gt;1 -->
<g id="edge7" class="edge">
<title>0&#45;&gt;1</title>
<path fill="none" stroke="black" d="M1413.4,-106.07C1407.51,-100.08 1400.33,-94.27 1392.44,-91 1349.53,-73.2 588.93,-106.2 556.44,-73 550.53,-66.96 550.59,-60.09 556.44,-54 585.78,-23.46 1228.66,-19.57 1391.98,-19.07"/>
<polygon fill="black" stroke="black" points="1391.9,-22.57 1401.89,-19.04 1391.88,-15.57 1391.9,-22.57"/>
<text text-anchor="start" x="560.44" y="-62" font-family="Courier New" font-weight="bold" font-size="10.00" fill="orange">CLICK(0,0)</text>
</g>
<!-- 0&#45;&gt;1 -->
<g id="edge8" class="edge">
<title>0&#45;&gt;1</title>
<path fill="none" stroke="black" d="M1413.39,-106.08C1407.51,-100.1 1400.33,-94.28 1392.44,-91 1354.27,-75.11 677.32,-102.59 648.44,-73 642.54,-66.96 642.6,-60.1 648.44,-54 674.41,-26.84 1239.91,-20.48 1392.04,-19.26"/>
<polygon fill="black" stroke="black" points="1391.7,-22.75 1401.67,-19.17 1391.64,-15.75 1391.7,-22.75"/>
<text text-anchor="start" x="652.44" y="-62" font-family="Courier New" font-weight="bold" font-size="10.00" fill="orange">CLICK(0,0)</text>
</g>
<!-- 0&#45;&gt;1 -->
<g id="edge9" class="edge">
<title>0&#45;&gt;1</title>
<path fill="none" stroke="black" d="M1413.39,-106.1C1407.5,-100.11 1400.32,-94.3 1392.44,-91 1359.01,-77.02 765.71,-98.97 740.44,-73 734.55,-66.95 734.62,-60.12 740.44,-54 763.04,-30.23 1251.5,-21.51 1391.97,-19.49"/>
<polygon fill="black" stroke="black" points="1391.65,-22.98 1401.6,-19.34 1391.55,-15.98 1391.65,-22.98"/>
<text text-anchor="start" x="744.44" y="-62" font-family="Courier New" font-weight="bold" font-size="10.00" fill="orange">CLICK(0,0)</text>
</g>
<!-- 0&#45;&gt;1 -->
<g id="edge10" class="edge">
<title>0&#45;&gt;1</title>
<path fill="none" stroke="black" d="M1413.38,-106.12C1407.49,-100.14 1400.32,-94.32 1392.44,-91 1363.75,-78.92 854.09,-95.36 832.44,-73 826.57,-66.93 826.65,-60.14 832.44,-54 851.67,-33.61 1263.39,-22.71 1391.65,-19.8"/>
<polygon fill="black" stroke="black" points="1391.55,-23.28 1401.46,-19.56 1391.39,-16.29 1391.55,-23.28"/>
<text text-anchor="start" x="836.44" y="-62" font-family="Courier New" font-weight="bold" font-size="10.00" fill="orange">CLICK(0,0)</text>
</g>
<!-- 0&#45;&gt;1 -->
<g id="edge11" class="edge">
<title>0&#45;&gt;1</title>
<path fill="none" stroke="black" d="M1413.37,-106.15C1407.48,-100.17 1400.31,-94.34 1392.44,-91 1296.42,-50.22 853.27,-130.28 924.44,-54 956.14,-20.03 1280.11,-18.3 1391.82,-18.73"/>
<polygon fill="black" stroke="black" points="1391.54,-22.23 1401.56,-18.78 1391.57,-15.23 1391.54,-22.23"/>
<text text-anchor="start" x="928.44" y="-62" font-family="Courier New" font-weight="bold" font-size="10.00" fill="orange">CLICK(0,0)</text>
</g>
<!-- 0&#45;&gt;1 -->
<g id="edge12" class="edge">
<title>0&#45;&gt;1</title>
<path fill="none" stroke="black" d="M1413.35,-106.19C1407.46,-100.21 1400.29,-94.38 1392.44,-91 1315.32,-57.82 959.63,-115.82 1016.44,-54 1041.55,-26.67 1294.47,-20.66 1391.67,-19.35"/>
<polygon fill="black" stroke="black" points="1391.5,-22.84 1401.46,-19.22 1391.41,-15.85 1391.5,-22.84"/>
<text text-anchor="start" x="1020.44" y="-62" font-family="Courier New" font-weight="bold" font-size="10.00" fill="orange">CLICK(0,0)</text>
</g>
<!-- 0&#45;&gt;1 -->
<g id="edge13" class="edge">
<title>0&#45;&gt;1</title>
<path fill="none" stroke="black" d="M1413.32,-106.26C1407.42,-100.29 1400.26,-94.44 1392.44,-91 1363.49,-78.28 1130.08,-96.05 1108.44,-73 1102.66,-66.84 1102.8,-60.29 1108.44,-54 1127.1,-33.2 1311.39,-23.57 1392.01,-20.33"/>
<polygon fill="black" stroke="black" points="1391.81,-23.8 1401.67,-19.91 1391.54,-16.8 1391.81,-23.8"/>
<text text-anchor="start" x="1112.44" y="-62" font-family="Courier New" font-weight="bold" font-size="10.00" fill="orange">CLICK(0,0)</text>
</g>
<!-- 0&#45;&gt;1 -->
<g id="edge14" class="edge">
<title>0&#45;&gt;1</title>
<path fill="none" stroke="black" d="M1412.88,-106.03C1407.06,-100.19 1400.05,-94.48 1392.44,-91 1313.42,-54.84 1143.82,-119.93 1200.44,-54 1224.69,-25.77 1333.56,-20.06 1392.03,-19.07"/>
<polygon fill="black" stroke="black" points="1391.72,-22.56 1401.67,-18.93 1391.62,-15.56 1391.72,-22.56"/>
<text text-anchor="start" x="1204.44" y="-62" font-family="Courier New" font-weight="bold" font-size="10.00" fill="orange">CLICK(0,0)</text>
</g>
<!-- 0&#45;&gt;1 -->
<g id="edge15" class="edge">
<title>0&#45;&gt;1</title>
<path fill="none" stroke="black" d="M1412.33,-106.04C1406.57,-100.35 1399.74,-94.72 1392.44,-91 1350.22,-69.48 1263.37,-91.43 1292.44,-54 1304.55,-38.41 1355.53,-28.59 1391.76,-23.45"/>
<polygon fill="black" stroke="black" points="1392.02,-26.81 1401.46,-22 1391.09,-19.87 1392.02,-26.81"/>
<text text-anchor="start" x="1296.44" y="-62" font-family="Courier New" font-weight="bold" font-size="10.00" fill="orange">CLICK(0,0)</text>
</g>
<!-- 0&#45;&gt;1 -->
<g id="edge16" class="edge">
<title>0&#45;&gt;1</title>
<path fill="none" stroke="black" d="M1406.45,-106.13C1397.8,-96.97 1388.97,-85.43 1384.44,-73 1381.55,-65.07 1380.73,-61.59 1384.44,-54 1386.88,-49.02 1390.41,-44.54 1394.43,-40.58"/>
<polygon fill="black" stroke="black" points="1396.27,-42.76 1401.62,-33.62 1391.74,-37.42 1396.27,-42.76"/>
<text text-anchor="start" x="1388.44" y="-62" font-family="Courier New" font-weight="bold" font-size="10.00" fill="orange">CLICK(0,0)</text>
</g>
<!-- 0&#45;&gt;1 -->
<g id="edge17" class="edge">
<title>0&#45;&gt;1</title>
<path fill="none" stroke="black" d="M1443.14,-106.25C1451.24,-91.75 1458.94,-71.73 1453.44,-54 1452.5,-50.97 1451.2,-47.96 1449.68,-45.06"/>
<polygon fill="black" stroke="black" points="1452.13,-43.38 1443.9,-36.72 1446.18,-47.06 1452.13,-43.38"/>
<text text-anchor="start" x="1459.44" y="-62" font-family="Courier New" font-weight="bold" font-size="10.00" fill="orange">CLICK(0,0)</text>
</g>
<!-- 1&#45;&gt;0 -->
<g id="edge18" class="edge">
<title>1&#45;&gt;0</title>
<path fill="none" stroke="black" d="M1456.35,-20.32C1479.7,-23.07 1512.23,-31.08 1528.44,-54 1533.32,-60.89 1533.53,-66.26 1528.44,-73 1510.9,-96.25 1490.59,-76.32 1465.44,-91 1461.71,-93.18 1458.08,-95.83 1454.66,-98.69"/>
<polygon fill="black" stroke="black" points="1452.6,-95.75 1447.61,-105.1 1457.34,-100.9 1452.6,-95.75"/>
<text text-anchor="start" x="1535.44" y="-62" font-family="Courier New" font-weight="bold" font-size="10.00" fill="blue">LOADVIEW(WIP1,)</text>
</g>
<!-- 1&#45;&gt;0 -->
<g id="edge19" class="edge">
<title>1&#45;&gt;0</title>
<path fill="none" stroke="black" d="M1456.1,-19.47C1506.32,-20.97 1611.91,-27.3 1634.44,-54 1684.02,-112.77 1534.93,-58.09 1465.44,-91 1461.25,-92.99 1457.25,-95.67 1453.55,-98.67"/>
<polygon fill="black" stroke="black" points="1451.47,-95.74 1446.48,-105.09 1456.21,-100.89 1451.47,-95.74"/>
<text text-anchor="start" x="1647.44" y="-62" font-family="Courier New" font-weight="bold" font-size="10.00" fill="blue">LOADVIEW(WIP1,)</text>
</g>
<!-- 1&#45;&gt;0 -->
<g id="edge20" class="edge">
<title>1&#45;&gt;0</title>
<path fill="none" stroke="black" d="M1456.41,-19.96C1529.49,-22.83 1727.21,-32.53 1746.44,-54 1752.07,-60.29 1752.22,-66.84 1746.44,-73 1725.04,-95.82 1493.99,-78.21 1465.44,-91 1460.99,-92.99 1456.78,-95.79 1452.92,-98.95"/>
<polygon fill="black" stroke="black" points="1450.98,-95.9 1446.04,-105.27 1455.75,-101.03 1450.98,-95.9"/>
<text text-anchor="start" x="1754.44" y="-62" font-family="Courier New" font-weight="bold" font-size="10.00" fill="blue">LOADVIEW(WIP1,)</text>
</g>
<!-- 1&#45;&gt;0 -->
<g id="edge21" class="edge">
<title>1&#45;&gt;0</title>
<path fill="none" stroke="black" d="M1456.2,-19.16C1545.11,-19.95 1826.52,-24.76 1853.44,-54 1912.11,-117.71 1544.79,-56.29 1465.44,-91 1460.98,-92.95 1456.76,-95.73 1452.88,-98.88"/>
<polygon fill="black" stroke="black" points="1450.95,-95.82 1446,-105.19 1455.71,-100.95 1450.95,-95.82"/>
<text text-anchor="start" x="1863.44" y="-62" font-family="Courier New" font-weight="bold" font-size="10.00" fill="blue">LOADVIEW(WIP1,)</text>
</g>
<!-- 1&#45;&gt;0 -->
<g id="edge22" class="edge">
<title>1&#45;&gt;0</title>
<path fill="none" stroke="black" d="M1456.38,-18.67C1559.84,-17.68 1927.62,-16.81 1962.44,-54 2038.14,-134.84 1567.13,-47.13 1465.44,-91 1460.97,-92.93 1456.74,-95.69 1452.87,-98.83"/>
<polygon fill="black" stroke="black" points="1450.94,-95.78 1445.98,-105.14 1455.7,-100.91 1450.94,-95.78"/>
<text text-anchor="start" x="1974.44" y="-62" font-family="Courier New" font-weight="bold" font-size="10.00" fill="blue">LOADVIEW(WIP1,)</text>
</g>
<!-- 1&#45;&gt;0 -->
<g id="edge23" class="edge">
<title>1&#45;&gt;0</title>
<path fill="none" stroke="black" d="M1456.1,-19.44C1574.99,-21.51 2051.88,-31.24 2073.44,-54 2079.25,-60.13 2079.32,-66.94 2073.44,-73 2049.9,-97.25 1496.51,-77.72 1465.44,-91 1460.96,-92.92 1456.73,-95.67 1452.85,-98.81"/>
<polygon fill="black" stroke="black" points="1450.93,-95.75 1445.97,-105.11 1455.68,-100.88 1450.93,-95.75"/>
<text text-anchor="start" x="2081.44" y="-62" font-family="Courier New" font-weight="bold" font-size="10.00" fill="blue">LOADVIEW(WIP1,)</text>
</g>
<!-- 1&#45;&gt;0 -->
<g id="edge24" class="edge">
<title>1&#45;&gt;0</title>
<path fill="none" stroke="black" d="M1456.04,-19.22C1586.67,-20.44 2154.93,-27.27 2180.44,-54 2186.27,-60.11 2186.34,-66.95 2180.44,-73 2152.7,-101.45 1502.01,-75.46 1465.44,-91 1460.96,-92.91 1456.73,-95.65 1452.85,-98.79"/>
<polygon fill="black" stroke="black" points="1450.92,-95.73 1445.96,-105.09 1455.68,-100.87 1450.92,-95.73"/>
<text text-anchor="start" x="2188.44" y="-62" font-family="Courier New" font-weight="bold" font-size="10.00" fill="blue">LOADVIEW(WIP1,)</text>
</g>
<!-- 1&#45;&gt;0 -->
<g id="edge25" class="edge">
<title>1&#45;&gt;0</title>
<path fill="none" stroke="black" d="M1456,-19.06C1597.54,-19.52 2257.95,-23.28 2287.44,-54 2293.29,-60.09 2293.35,-66.96 2287.44,-73 2255.5,-105.65 1507.51,-73.21 1465.44,-91 1460.95,-92.9 1456.72,-95.64 1452.84,-98.77"/>
<polygon fill="black" stroke="black" points="1450.91,-95.72 1445.96,-105.08 1455.67,-100.85 1450.91,-95.72"/>
<text text-anchor="start" x="2295.44" y="-62" font-family="Courier New" font-weight="bold" font-size="10.00" fill="blue">LOADVIEW(WIP1,)</text>
</g>
<!-- 1&#45;&gt;0 -->
<g id="edge26" class="edge">
<title>1&#45;&gt;0</title>
<path fill="none" stroke="black" d="M1456.25,-18.94C1608.71,-18.7 2360.98,-19.31 2394.44,-54 2400.3,-60.08 2400.35,-66.97 2394.44,-73 2358.29,-109.85 1513.01,-70.95 1465.44,-91 1460.95,-92.89 1456.72,-95.63 1452.84,-98.76"/>
<polygon fill="black" stroke="black" points="1450.91,-95.71 1445.95,-105.07 1455.67,-100.84 1450.91,-95.71"/>
<text text-anchor="start" x="2402.44" y="-62" font-family="Courier New" font-weight="bold" font-size="10.00" fill="blue">LOADVIEW(WIP1,)</text>
</g>
<!-- 1&#45;&gt;0 -->
<g id="edge27" class="edge">
<title>1&#45;&gt;0</title>
<path fill="none" stroke="black" d="M1456.25,-18.84C1618.55,-17.96 2463.99,-15.3 2501.44,-54 2507.31,-60.07 2507.36,-66.98 2501.44,-73 2461.09,-114.06 1518.51,-68.7 1465.44,-91 1460.95,-92.89 1456.71,-95.63 1452.83,-98.76"/>
<polygon fill="black" stroke="black" points="1450.91,-95.7 1445.95,-105.06 1455.66,-100.83 1450.91,-95.7"/>
<text text-anchor="start" x="2509.44" y="-62" font-family="Courier New" font-weight="bold" font-size="10.00" fill="blue">LOADVIEW(WIP1,)</text>
</g>
<!-- 1&#45;&gt;0 -->
<g id="edge28" class="edge">
<title>1&#45;&gt;0</title>
<path fill="none" stroke="black" d="M1456.33,-19.28C1630.1,-21.19 2587.69,-32.63 2608.44,-54 2614.32,-60.06 2614.36,-66.98 2608.44,-73 2586.16,-95.63 1494.72,-78.72 1465.44,-91 1460.95,-92.88 1456.71,-95.62 1452.83,-98.75"/>
<polygon fill="black" stroke="black" points="1450.9,-95.69 1445.94,-105.05 1455.66,-100.83 1450.9,-95.69"/>
<text text-anchor="start" x="2616.44" y="-62" font-family="Courier New" font-weight="bold" font-size="10.00" fill="blue">LOADVIEW(WIP1,)</text>
</g>
<!-- 1&#45;&gt;0 -->
<g id="edge29" class="edge">
<title>1&#45;&gt;0</title>
<path fill="none" stroke="black" d="M1456.38,-19.22C1639.31,-20.75 2692.68,-30.62 2715.44,-54 2721.33,-60.05 2721.37,-66.99 2715.44,-73 2691.06,-97.73 1497.47,-77.59 1465.44,-91 1460.95,-92.88 1456.71,-95.61 1452.83,-98.74"/>
<polygon fill="black" stroke="black" points="1450.9,-95.68 1445.94,-105.05 1455.66,-100.82 1450.9,-95.68"/>
<text text-anchor="start" x="2723.44" y="-62" font-family="Courier New" font-weight="bold" font-size="10.00" fill="blue">LOADVIEW(WIP1,)</text>
</g>
<!-- 1&#45;&gt;0 -->
<g id="edge30" class="edge">
<title>1&#45;&gt;0</title>
<path fill="none" stroke="black" d="M1456.44,-19.16C1648.21,-20.36 2797.67,-28.6 2822.44,-54 2828.34,-60.05 2828.37,-66.99 2822.44,-73 2795.96,-99.83 1500.22,-76.46 1465.44,-91 1460.95,-92.88 1456.71,-95.61 1452.83,-98.74"/>
<polygon fill="black" stroke="black" points="1450.9,-95.68 1445.94,-105.04 1455.65,-100.82 1450.9,-95.68"/>
<text text-anchor="start" x="2830.44" y="-62" font-family="Courier New" font-weight="bold" font-size="10.00" fill="blue">LOADVIEW(WIP1,)</text>
</g>
<!-- 1&#45;&gt;0 -->
<g id="edge31" class="edge">
<title>1&#45;&gt;0</title>
<path fill="none" stroke="black" d="M1456.24,-19.11C1655.77,-19.99 2902.65,-26.57 2929.44,-54 2935.34,-60.04 2935.37,-66.99 2929.44,-73 2900.86,-101.93 1502.97,-75.34 1465.44,-91 1460.94,-92.88 1456.71,-95.61 1452.82,-98.73"/>
<polygon fill="black" stroke="black" points="1450.9,-95.67 1445.94,-105.04 1455.65,-100.81 1450.9,-95.67"/>
<text text-anchor="start" x="2937.44" y="-62" font-family="Courier New" font-weight="bold" font-size="10.00" fill="blue">LOADVIEW(WIP1,)</text>
</g>
<!-- 1&#45;&gt;0 -->
<g id="edge32" class="edge">
<title>1&#45;&gt;0</title>
<path fill="none" stroke="black" d="M1456.14,-19.07C1663.38,-19.65 3007.62,-24.55 3036.44,-54 3042.35,-60.04 3042.38,-66.99 3036.44,-73 3005.76,-104.04 1505.72,-74.21 1465.44,-91 1460.94,-92.87 1456.7,-95.6 1452.82,-98.73"/>
<polygon fill="black" stroke="black" points="1450.9,-95.67 1445.94,-105.03 1455.65,-100.81 1450.9,-95.67"/>
<text text-anchor="start" x="3044.44" y="-62" font-family="Courier New" font-weight="bold" font-size="10.00" fill="blue">LOADVIEW(WIP1,)</text>
</g>
<!-- status -->
<g id="node4" class="node">
<title>status</title>
<polygon fill="none" stroke="black" points="1474.94,-91.5 1474.94,-163.5 1785.94,-163.5 1785.94,-91.5 1474.94,-91.5"/>
<polygon fill="none" stroke="black" points="1485.94,-139.5 1485.94,-156.5 1774.94,-156.5 1774.94,-139.5 1485.94,-139.5"/>
<text text-anchor="start" x="1602.94" y="-146.5" font-family="Courier New" font-weight="bold" font-size="10.00">S25_EXIT1</text>
<polygon fill="none" stroke="black" points="1485.94,-98.5 1485.94,-137.5 1774.94,-137.5 1774.94,-98.5 1485.94,-98.5"/>
<text text-anchor="start" x="1488.94" y="-126.5" font-family="Courier New" font-size="10.00" fill="green">VIEW::IDV_HIDDENR1</text>
<text text-anchor="start" x="1488.94" y="-115.5" font-family="Courier New" font-size="10.00" fill="green">S25_EXIT1::M25_EXITDOOR(&#39;IDV_WALL1IN&#39;,&#39;&#39;,&#39;&#39;,&#39;&#39;)</text>
<text text-anchor="start" x="1488.94" y="-104.5" font-family="Courier New" font-size="10.00" fill="green">{&#39;0&#39;:</text>
<polygon fill="none" stroke="black" points="1482.94,-95.5 1482.94,-159.5 1777.94,-159.5 1777.94,-95.5 1482.94,-95.5"/>
</g>
</g>
</svg>
