<?xml version="1.0" encoding="UTF-8" standalone="no"?>
<!DOCTYPE svg PUBLIC "-//W3C//DTD SVG 1.1//EN"
 "http://www.w3.org/Graphics/SVG/1.1/DTD/svg11.dtd">
<!-- Generated by graphviz version 8.0.1 (20230327.1645)
 -->
<!-- Title: Automaton Pages: 1 -->
<svg width="735pt" height="873pt"
 viewBox="0.00 0.00 734.50 873.00" xmlns="http://www.w3.org/2000/svg" xmlns:xlink="http://www.w3.org/1999/xlink">
<g id="graph0" class="graph" transform="scale(1 1) rotate(0) translate(4 869)">
<title>Automaton</title>
<polygon fill="white" stroke="none" points="-4,4 -4,-869 730.5,-869 730.5,4 -4,4"/>
<!-- filename -->
<g id="node1" class="node">
<title>filename</title>
<polygon fill="none" stroke="black" points="91.5,-803.5 91.5,-853.5 264.5,-853.5 264.5,-803.5 91.5,-803.5"/>
<polygon fill="none" stroke="black" points="102.5,-829.5 102.5,-846.5 253.5,-846.5 253.5,-829.5 102.5,-829.5"/>
<text text-anchor="start" x="105.5" y="-836.5" font-family="Courier New" font-weight="bold" font-size="10.00">S25_SCATTER::M25_SCATTER</text>
<polygon fill="none" stroke="black" points="102.5,-810.5 102.5,-827.5 253.5,-827.5 253.5,-810.5 102.5,-810.5"/>
<text text-anchor="start" x="132.5" y="-816.5" font-family="Courier New" font-size="10.00" fill="brown">start state = 0</text>
<polygon fill="none" stroke="black" points="99.5,-807.5 99.5,-849.5 256.5,-849.5 256.5,-807.5 99.5,-807.5"/>
</g>
<!-- 0 -->
<g id="node2" class="node">
<title>0</title>
<polyline fill="none" stroke="darkred" points="302.5,-818 317.5,-818"/>
<text text-anchor="start" x="305.5" y="-825.8" font-family="Courier New" font-weight="bold" font-size="14.00">0</text>
<path fill="none" stroke="darkred" d="M306.5,-815C306.5,-815 313.5,-815 313.5,-815 317,-815 320.5,-818.5 320.5,-822 320.5,-822 320.5,-835 320.5,-835 320.5,-838.5 317,-842 313.5,-842 313.5,-842 306.5,-842 306.5,-842 303,-842 299.5,-838.5 299.5,-835 299.5,-835 299.5,-822 299.5,-822 299.5,-818.5 303,-815 306.5,-815"/>
</g>
<!-- notscattered -->
<g id="node3" class="node">
<title>notscattered</title>
<polyline fill="none" stroke="darkred" points="257,-674.5 363,-674.5"/>
<text text-anchor="start" x="260" y="-682.3" font-family="Courier New" font-weight="bold" font-size="14.00">notscattered</text>
<path fill="none" stroke="darkred" d="M263,-671.5C263,-671.5 357,-671.5 357,-671.5 361.5,-671.5 366,-676 366,-680.5 366,-680.5 366,-689.5 366,-689.5 366,-694 361.5,-698.5 357,-698.5 357,-698.5 263,-698.5 263,-698.5 258.5,-698.5 254,-694 254,-689.5 254,-689.5 254,-680.5 254,-680.5 254,-676 258.5,-671.5 263,-671.5"/>
</g>
<!-- 0&#45;&gt;notscattered -->
<g id="edge1" class="edge">
<title>0&#45;&gt;notscattered</title>
<path fill="none" stroke="black" d="M310,-810.71C310,-786.78 310,-742.56 310,-713.72"/>
<polygon fill="black" stroke="black" points="313.5,-713.77 310,-703.77 306.5,-713.77 313.5,-713.77"/>
<polygon fill="none" stroke="black" points="313,-754 313,-771 512,-771 512,-754 313,-754"/>
<text text-anchor="start" x="373" y="-761" font-family="Courier New" font-weight="bold" font-size="10.00" fill="blue">MOV(BFRAME,0)</text>
<polygon fill="none" stroke="black" points="313,-724 313,-752 512,-752 512,-724 313,-724"/>
<text text-anchor="start" x="316" y="-741" font-family="Courier New" font-size="10.00" fill="blue"> &#160;&#160;&#160;ASSIGN(WSPRITE,IDS_SCATTER);</text>
<text text-anchor="start" x="316" y="-730" font-family="Courier New" font-size="10.00" fill="blue"> &#160;&#160;&#160;SHOW(WSPRITE);</text>
<polygon fill="none" stroke="black" points="310,-721 310,-774 515,-774 515,-721 310,-721"/>
</g>
<!-- axed -->
<g id="node8" class="node">
<title>axed</title>
<polyline fill="none" stroke="darkred" points="232,-583.5 272,-583.5"/>
<text text-anchor="start" x="235" y="-591.3" font-family="Courier New" font-weight="bold" font-size="14.00">axed</text>
<path fill="none" stroke="darkred" d="M238,-580.5C238,-580.5 266,-580.5 266,-580.5 270.5,-580.5 275,-585 275,-589.5 275,-589.5 275,-598.5 275,-598.5 275,-603 270.5,-607.5 266,-607.5 266,-607.5 238,-607.5 238,-607.5 233.5,-607.5 229,-603 229,-598.5 229,-598.5 229,-589.5 229,-589.5 229,-585 233.5,-580.5 238,-580.5"/>
</g>
<!-- notscattered&#45;&gt;axed -->
<g id="edge10" class="edge">
<title>notscattered&#45;&gt;axed</title>
<path fill="none" stroke="black" d="M305.1,-667.05C301.42,-655.94 295.7,-641.42 288,-630 285.6,-626.44 282.79,-622.96 279.83,-619.65"/>
<polygon fill="black" stroke="black" points="282.73,-617.59 273.25,-612.86 277.71,-622.47 282.73,-617.59"/>
<text text-anchor="start" x="301" y="-638" font-family="Courier New" font-weight="bold" font-size="10.00" fill="orange">DRAG(0,IDD_PICK)</text>
</g>
<!-- notscattered&#45;&gt;axed -->
<g id="edge11" class="edge">
<title>notscattered&#45;&gt;axed</title>
<path fill="none" stroke="black" d="M246.07,-676.15C212.85,-670.62 177.1,-661.87 167,-649 151.04,-628.67 181.87,-613.81 210.76,-604.88"/>
<polygon fill="black" stroke="black" points="211.59,-608 220.23,-601.86 209.65,-601.27 211.59,-608"/>
<text text-anchor="start" x="171" y="-638" font-family="Courier New" font-weight="bold" font-size="10.00" fill="orange">DRAG(0,IDD_SHOVEL)</text>
</g>
<!-- bombed -->
<g id="node10" class="node">
<title>bombed</title>
<polyline fill="none" stroke="darkred" points="11,-583.5 67,-583.5"/>
<text text-anchor="start" x="14" y="-591.3" font-family="Courier New" font-weight="bold" font-size="14.00">bombed</text>
<path fill="none" stroke="darkred" d="M17,-580.5C17,-580.5 61,-580.5 61,-580.5 65.5,-580.5 70,-585 70,-589.5 70,-589.5 70,-598.5 70,-598.5 70,-603 65.5,-607.5 61,-607.5 61,-607.5 17,-607.5 17,-607.5 12.5,-607.5 8,-603 8,-598.5 8,-598.5 8,-589.5 8,-589.5 8,-585 12.5,-580.5 17,-580.5"/>
</g>
<!-- notscattered&#45;&gt;bombed -->
<g id="edge12" class="edge">
<title>notscattered&#45;&gt;bombed</title>
<path fill="none" stroke="black" d="M246.06,-684.03C177.35,-682.62 74.31,-675.91 47,-649 40.11,-642.21 37.44,-632.25 36.73,-622.73"/>
<polygon fill="black" stroke="black" points="40.22,-622.94 36.64,-612.97 33.22,-623 40.22,-622.94"/>
<text text-anchor="start" x="51" y="-638" font-family="Courier New" font-weight="bold" font-size="10.00" fill="orange">DROP(IDD_BOMB2,0)</text>
</g>
<!-- advanceFrame -->
<g id="node4" class="node">
<title>advanceFrame</title>
<polyline fill="none" stroke="darkred" points="312,-356.5 418,-356.5"/>
<text text-anchor="start" x="315" y="-364.3" font-family="Courier New" font-weight="bold" font-size="14.00">advanceFrame</text>
<path fill="none" stroke="darkred" d="M318,-353.5C318,-353.5 412,-353.5 412,-353.5 416.5,-353.5 421,-358 421,-362.5 421,-362.5 421,-371.5 421,-371.5 421,-376 416.5,-380.5 412,-380.5 412,-380.5 318,-380.5 318,-380.5 313.5,-380.5 309,-376 309,-371.5 309,-371.5 309,-362.5 309,-362.5 309,-358 313.5,-353.5 318,-353.5"/>
</g>
<!-- checkIfComplete -->
<g id="node5" class="node">
<title>checkIfComplete</title>
<polyline fill="none" stroke="darkred" points="391,-242.5 521,-242.5"/>
<text text-anchor="start" x="394" y="-250.3" font-family="Courier New" font-weight="bold" font-size="14.00">checkIfComplete</text>
<path fill="none" stroke="darkred" d="M397,-239.5C397,-239.5 515,-239.5 515,-239.5 519.5,-239.5 524,-244 524,-248.5 524,-248.5 524,-257.5 524,-257.5 524,-262 519.5,-266.5 515,-266.5 515,-266.5 397,-266.5 397,-266.5 392.5,-266.5 388,-262 388,-257.5 388,-257.5 388,-248.5 388,-248.5 388,-244 392.5,-239.5 397,-239.5"/>
</g>
<!-- advanceFrame&#45;&gt;checkIfComplete -->
<g id="edge2" class="edge">
<title>advanceFrame&#45;&gt;checkIfComplete</title>
<path fill="none" stroke="black" d="M367.3,-349.24C370.37,-332.36 377.24,-306.39 392,-289 395.84,-284.47 400.42,-280.43 405.34,-276.85"/>
<polygon fill="black" stroke="black" points="407.02,-279.28 413.48,-270.89 403.19,-273.42 407.02,-279.28"/>
<polygon fill="none" stroke="black" points="395,-311 395,-328 522,-328 522,-311 395,-311"/>
<text text-anchor="start" x="416" y="-318" font-family="Courier New" font-weight="bold" font-size="10.00" fill="blue">ADDI(BFRAME,1)</text>
<polygon fill="none" stroke="black" points="395,-292 395,-309 522,-309 522,-292 395,-292"/>
<text text-anchor="start" x="398" y="-298" font-family="Courier New" font-size="10.00" fill="blue"> &#160;&#160;&#160;ASSIGN(BPARM,0);</text>
<polygon fill="none" stroke="black" points="392,-289 392,-331 525,-331 525,-289 392,-289"/>
</g>
<!-- checkIfComplete&#45;&gt;notscattered -->
<g id="edge9" class="edge">
<title>checkIfComplete&#45;&gt;notscattered</title>
<path fill="none" stroke="black" d="M503.8,-270.85C511.89,-275.6 519.46,-281.57 525,-289 545.79,-316.89 539,-331.22 539,-366 539,-595 539,-595 539,-595 539,-628.81 451.19,-654.87 384.33,-669.82"/>
<polygon fill="black" stroke="black" points="383.81,-666.57 374.79,-672.12 385.31,-673.41 383.81,-666.57"/>
<text text-anchor="start" x="543" y="-456.5" font-family="Courier New" font-weight="bold" font-size="10.00" fill="blue">Z_EPSILON(,)</text>
</g>
<!-- scattered -->
<g id="node7" class="node">
<title>scattered</title>
<polyline fill="none" stroke="darkred" stroke-width="3" points="415,-124.5 497,-124.5"/>
<text text-anchor="start" x="418.5" y="-132.8" font-family="Courier New" font-weight="bold" font-size="14.00">scattered</text>
<path fill="none" stroke="darkred" stroke-width="3" d="M420.67,-119.5C420.67,-119.5 491.33,-119.5 491.33,-119.5 496.67,-119.5 502,-124.83 502,-130.17 502,-130.17 502,-140.83 502,-140.83 502,-146.17 496.67,-151.5 491.33,-151.5 491.33,-151.5 420.67,-151.5 420.67,-151.5 415.33,-151.5 410,-146.17 410,-140.83 410,-140.83 410,-130.17 410,-130.17 410,-124.83 415.33,-119.5 420.67,-119.5"/>
</g>
<!-- checkIfComplete&#45;&gt;scattered -->
<g id="edge8" class="edge">
<title>checkIfComplete&#45;&gt;scattered</title>
<path fill="none" stroke="black" d="M456,-235.45C456,-217.82 456,-189.49 456,-167.65"/>
<polygon fill="black" stroke="black" points="459.5,-167.91 456,-157.91 452.5,-167.91 459.5,-167.91"/>
<polygon fill="none" stroke="black" points="459,-197 459,-214 670,-214 670,-197 459,-197"/>
<text text-anchor="start" x="519" y="-204" font-family="Courier New" font-weight="bold" font-size="10.00" fill="blue">GTEi(BFRAME,10)</text>
<polygon fill="none" stroke="black" points="459,-178 459,-195 670,-195 670,-178 459,-178"/>
<text text-anchor="start" x="462" y="-184" font-family="Courier New" font-size="10.00" fill="blue"> &#160;&#160;&#160;SIGNAL(SIG_OPEN,S25_SCAT_ALT);</text>
<polygon fill="none" stroke="black" points="456,-175 456,-217 673,-217 673,-175 456,-175"/>
</g>
<!-- allowAccess -->
<g id="node6" class="node">
<title>allowAccess</title>
<polyline fill="none" stroke="darkred" points="407.5,-7.5 504.5,-7.5"/>
<text text-anchor="start" x="410.5" y="-15.3" font-family="Courier New" font-weight="bold" font-size="14.00">allowAccess</text>
<path fill="none" stroke="darkred" d="M413.5,-4.5C413.5,-4.5 498.5,-4.5 498.5,-4.5 503,-4.5 507.5,-9 507.5,-13.5 507.5,-13.5 507.5,-22.5 507.5,-22.5 507.5,-27 503,-31.5 498.5,-31.5 498.5,-31.5 413.5,-31.5 413.5,-31.5 409,-31.5 404.5,-27 404.5,-22.5 404.5,-22.5 404.5,-13.5 404.5,-13.5 404.5,-9 409,-4.5 413.5,-4.5"/>
</g>
<!-- allowAccess&#45;&gt;scattered -->
<g id="edge3" class="edge">
<title>allowAccess&#45;&gt;scattered</title>
<path fill="none" stroke="black" d="M510.59,-35.79C518.3,-40.47 525.21,-46.44 530,-54 539.99,-69.77 539.69,-80.04 530,-96 527.28,-100.48 523.85,-104.47 519.96,-108.01"/>
<polygon fill="black" stroke="black" points="518.16,-105.75 512.42,-114.66 522.46,-111.28 518.16,-105.75"/>
<polygon fill="none" stroke="black" points="540,-76 540,-93 703,-93 703,-76 540,-76"/>
<text text-anchor="start" x="597" y="-83" font-family="Courier New" font-weight="bold" font-size="10.00" fill="orange">CLICK(,)</text>
<polygon fill="none" stroke="black" points="540,-57 540,-74 703,-74 703,-57 540,-57"/>
<text text-anchor="start" x="543" y="-63" font-family="Courier New" font-size="10.00" fill="blue"> &#160;&#160;&#160;LOADVIEW(IDV_WALL1EN);</text>
<polygon fill="none" stroke="black" points="537,-54 537,-96 706,-96 706,-54 537,-54"/>
</g>
<!-- scattered&#45;&gt;allowAccess -->
<g id="edge13" class="edge">
<title>scattered&#45;&gt;allowAccess</title>
<path fill="none" stroke="black" d="M400.56,-125.48C383.76,-119.87 367.1,-110.76 357,-96 346.46,-80.59 346.22,-69.24 357,-54 364.32,-43.65 374.96,-36.34 386.59,-31.18"/>
<polygon fill="black" stroke="black" points="387.47,-34.21 395.54,-27.34 384.95,-27.68 387.47,-34.21"/>
<polygon fill="none" stroke="black" points="360,-76 360,-93 523,-93 523,-76 360,-76"/>
<text text-anchor="start" x="417" y="-83" font-family="Courier New" font-weight="bold" font-size="10.00" fill="orange">CLICK(,)</text>
<polygon fill="none" stroke="black" points="360,-57 360,-74 523,-74 523,-57 360,-57"/>
<text text-anchor="start" x="363" y="-63" font-family="Courier New" font-size="10.00" fill="blue"> &#160;&#160;&#160;LOADVIEW(IDV_WALL1EN);</text>
<polygon fill="none" stroke="black" points="357,-54 357,-96 526,-96 526,-54 357,-54"/>
</g>
<!-- checkDamage -->
<g id="node9" class="node">
<title>checkDamage</title>
<polyline fill="none" stroke="darkred" points="212.5,-447.5 309.5,-447.5"/>
<text text-anchor="start" x="215.5" y="-455.3" font-family="Courier New" font-weight="bold" font-size="14.00">checkDamage</text>
<path fill="none" stroke="darkred" d="M218.5,-444.5C218.5,-444.5 303.5,-444.5 303.5,-444.5 308,-444.5 312.5,-449 312.5,-453.5 312.5,-453.5 312.5,-462.5 312.5,-462.5 312.5,-467 308,-471.5 303.5,-471.5 303.5,-471.5 218.5,-471.5 218.5,-471.5 214,-471.5 209.5,-467 209.5,-462.5 209.5,-462.5 209.5,-453.5 209.5,-453.5 209.5,-449 214,-444.5 218.5,-444.5"/>
</g>
<!-- axed&#45;&gt;checkDamage -->
<g id="edge4" class="edge">
<title>axed&#45;&gt;checkDamage</title>
<path fill="none" stroke="black" d="M251.07,-576.11C250.24,-556.35 249.62,-522.68 253,-494 253.28,-491.59 253.67,-489.09 254.11,-486.61"/>
<polygon fill="black" stroke="black" points="257.72,-487.47 256.35,-476.96 250.87,-486.03 257.72,-487.47"/>
<polygon fill="none" stroke="black" points="256,-527 256,-544 413,-544 413,-527 256,-527"/>
<text text-anchor="start" x="259" y="-534" font-family="Courier New" font-weight="bold" font-size="10.00" fill="blue">PLAYWAVE(0,SOUND_PICKAXE)</text>
<polygon fill="none" stroke="black" points="256,-508 256,-525 413,-525 413,-508 256,-508"/>
<text text-anchor="start" x="274" y="-514" font-family="Courier New" font-size="10.00" fill="blue"> &#160;&#160;&#160;&#160;&#160;ADDI(BPARM,1);</text>
<polygon fill="none" stroke="black" points="253,-505 253,-547 416,-547 416,-505 253,-505"/>
</g>
<!-- checkDamage&#45;&gt;notscattered -->
<g id="edge7" class="edge">
<title>checkDamage&#45;&gt;notscattered</title>
<path fill="none" stroke="black" d="M320.21,-464.76C358.72,-469.86 403.94,-478.92 416,-494 459.1,-547.92 448.61,-594.69 406,-649 400.03,-656.61 392.26,-662.56 383.71,-667.22"/>
<polygon fill="black" stroke="black" points="382.31,-664.49 374.79,-671.95 385.32,-670.8 382.31,-664.49"/>
<text text-anchor="start" x="446" y="-592.5" font-family="Courier New" font-weight="bold" font-size="10.00" fill="blue">Z_EPSILON(,)</text>
</g>
<!-- checkDamage&#45;&gt;advanceFrame -->
<g id="edge6" class="edge">
<title>checkDamage&#45;&gt;advanceFrame</title>
<path fill="none" stroke="black" d="M280.56,-440.26C296.44,-426.67 319.04,-407.34 336.86,-392.08"/>
<polygon fill="black" stroke="black" points="338.85,-394.13 344.17,-384.97 334.3,-388.81 338.85,-394.13"/>
<text text-anchor="start" x="326" y="-411" font-family="Courier New" font-weight="bold" font-size="10.00" fill="blue">GTEi(BPARM,20)</text>
</g>
<!-- bombed&#45;&gt;checkDamage -->
<g id="edge5" class="edge">
<title>bombed&#45;&gt;checkDamage</title>
<path fill="none" stroke="black" d="M38.3,-576.25C38.35,-554.05 42.02,-515.21 65,-494 83.18,-477.22 142.33,-468.26 190.94,-463.62"/>
<polygon fill="black" stroke="black" points="191.12,-467.03 200.76,-462.64 190.49,-460.06 191.12,-467.03"/>
<polygon fill="none" stroke="black" points="68,-538 68,-555 243,-555 243,-538 68,-538"/>
<text text-anchor="start" x="92" y="-545" font-family="Courier New" font-weight="bold" font-size="10.00" fill="blue">VIDEO(0,IDS_EXPLODE1)</text>
<polygon fill="none" stroke="black" points="68,-497 68,-536 243,-536 243,-497 68,-497"/>
<text text-anchor="start" x="71" y="-525" font-family="Courier New" font-size="10.00" fill="blue"> &#160;&#160;&#160;//add damage</text>
<text text-anchor="start" x="71" y="-514" font-family="Courier New" font-size="10.00" fill="blue"> &#160;&#160;&#160;PLAYWAVE(SOUND_EXPLODE);</text>
<text text-anchor="start" x="71" y="-503" font-family="Courier New" font-size="10.00" fill="blue"> &#160;&#160;&#160;ADDI(BPARM,20);</text>
<polygon fill="none" stroke="black" points="65,-494 65,-558 246,-558 246,-494 65,-494"/>
</g>
<!-- status -->
<g id="node11" class="node">
<title>status</title>
<polygon fill="none" stroke="black" points="355.5,-792.5 355.5,-864.5 726.5,-864.5 726.5,-792.5 355.5,-792.5"/>
<polygon fill="none" stroke="black" points="366.5,-840.5 366.5,-857.5 715.5,-857.5 715.5,-840.5 366.5,-840.5"/>
<text text-anchor="start" x="507.5" y="-847.5" font-family="Courier New" font-weight="bold" font-size="10.00">S25_SCATTER</text>
<polygon fill="none" stroke="black" points="366.5,-799.5 366.5,-838.5 715.5,-838.5 715.5,-799.5 366.5,-799.5"/>
<text text-anchor="start" x="369.5" y="-827.5" font-family="Courier New" font-size="10.00" fill="green">VIEW::IDV_W4LOCK @pos(left:25, top:75)</text>
<text text-anchor="start" x="369.5" y="-816.5" font-family="Courier New" font-size="10.00" fill="green">S25_SCATTER::M25_SCATTER(&#39;&#39;,&#39;&#39;,&#39;&#39;,&#39;&#39;)</text>
<text text-anchor="start" x="369.5" y="-805.5" font-family="Courier New" font-size="10.00" fill="green">{&#39;scattered&#39;: wObject:IDD_BOMB2 wSprite:SCATTER bFrame:10</text>
<polygon fill="none" stroke="black" points="363.5,-796.5 363.5,-860.5 718.5,-860.5 718.5,-796.5 363.5,-796.5"/>
</g>
</g>
</svg>
