<?xml version="1.0" encoding="UTF-8" standalone="no"?>
<!DOCTYPE svg PUBLIC "-//W3C//DTD SVG 1.1//EN"
 "http://www.w3.org/Graphics/SVG/1.1/DTD/svg11.dtd">
<!-- Generated by graphviz version 10.0.1 (20240210.2158)
 -->
<!-- Title: Automaton Pages: 1 -->
<svg width="840pt" height="1029pt"
 viewBox="0.00 0.00 840.25 1028.50" xmlns="http://www.w3.org/2000/svg" xmlns:xlink="http://www.w3.org/1999/xlink">
<g id="graph0" class="graph" transform="scale(1 1) rotate(0) translate(4 1024.5)">
<title>Automaton</title>
<polygon fill="white" stroke="none" points="-4,4 -4,-1024.5 836.25,-1024.5 836.25,4 -4,4"/>
<!-- filename -->
<g id="node1" class="node">
<title>filename</title>
<polygon fill="none" stroke="black" points="320.25,-953.75 320.25,-1007.25 480.25,-1007.25 480.25,-953.75 320.25,-953.75"/>
<polygon fill="none" stroke="black" points="331.25,-981.5 331.25,-1000.25 469.25,-1000.25 469.25,-981.5 331.25,-981.5"/>
<text text-anchor="start" x="334.25" y="-988.75" font-family="Courier New" font-weight="bold" font-size="10.00">S25_RUMBLE::M25_RUMBLE</text>
<polygon fill="none" stroke="black" points="331.25,-960.75 331.25,-979.5 469.25,-979.5 469.25,-960.75 331.25,-960.75"/>
<text text-anchor="start" x="355.25" y="-967" font-family="Courier New" font-size="10.00" fill="brown">start state = 0</text>
<polygon fill="none" stroke="black" points="328.25,-957.75 328.25,-1003.25 472.25,-1003.25 472.25,-957.75 328.25,-957.75"/>
</g>
<!-- 0 -->
<g id="node2" class="node">
<title>0</title>
<polyline fill="none" stroke="darkred" points="518.12,-969.25 532.38,-969.25"/>
<text text-anchor="start" x="521.12" y="-976.45" font-family="Courier New" font-weight="bold" font-size="14.00">0</text>
<path fill="none" stroke="darkred" d="M521.88,-966.25C521.88,-966.25 528.62,-966.25 528.62,-966.25 532,-966.25 535.38,-969.62 535.38,-973 535.38,-973 535.38,-988 535.38,-988 535.38,-991.38 532,-994.75 528.62,-994.75 528.62,-994.75 521.88,-994.75 521.88,-994.75 518.5,-994.75 515.12,-991.38 515.12,-988 515.12,-988 515.12,-973 515.12,-973 515.12,-969.62 518.5,-966.25 521.88,-966.25"/>
</g>
<!-- 1 -->
<g id="node3" class="node">
<title>1</title>
<polyline fill="none" stroke="darkred" points="421.12,-854.25 435.38,-854.25"/>
<text text-anchor="start" x="424.12" y="-861.45" font-family="Courier New" font-weight="bold" font-size="14.00">1</text>
<path fill="none" stroke="darkred" d="M424.88,-851.25C424.88,-851.25 431.62,-851.25 431.62,-851.25 435,-851.25 438.38,-854.62 438.38,-858 438.38,-858 438.38,-873 438.38,-873 438.38,-876.38 435,-879.75 431.62,-879.75 431.62,-879.75 424.88,-879.75 424.88,-879.75 421.5,-879.75 418.12,-876.38 418.12,-873 418.12,-873 418.12,-858 418.12,-858 418.12,-854.62 421.5,-851.25 424.88,-851.25"/>
</g>
<!-- 0&#45;&gt;1 -->
<g id="edge1" class="edge">
<title>0&#45;&gt;1</title>
<path fill="none" stroke="black" d="M509.66,-962.46C499.46,-951.22 485.92,-936.11 474.25,-922.5 465.87,-912.73 456.84,-901.82 449.02,-892.25"/>
<polygon fill="black" stroke="black" points="451.94,-890.29 442.91,-884.74 446.51,-894.7 451.94,-890.29"/>
<text text-anchor="start" x="478.25" y="-910" font-family="Courier New" font-weight="bold" font-size="10.00" fill="blue">ASSIGN(BFRAME,1)</text>
</g>
<!-- 2 -->
<g id="node4" class="node">
<title>2</title>
<polyline fill="none" stroke="darkred" points="388.12,-761 402.38,-761"/>
<text text-anchor="start" x="391.12" y="-768.2" font-family="Courier New" font-weight="bold" font-size="14.00">2</text>
<path fill="none" stroke="darkred" d="M391.88,-758C391.88,-758 398.62,-758 398.62,-758 402,-758 405.38,-761.38 405.38,-764.75 405.38,-764.75 405.38,-779.75 405.38,-779.75 405.38,-783.12 402,-786.5 398.62,-786.5 398.62,-786.5 391.88,-786.5 391.88,-786.5 388.5,-786.5 385.12,-783.12 385.12,-779.75 385.12,-779.75 385.12,-764.75 385.12,-764.75 385.12,-761.38 388.5,-758 391.88,-758"/>
</g>
<!-- 1&#45;&gt;2 -->
<g id="edge2" class="edge">
<title>1&#45;&gt;2</title>
<path fill="none" stroke="black" d="M421.24,-847.36C418.95,-841.62 416.43,-835.18 414.25,-829.25 410.91,-820.17 407.45,-810.19 404.42,-801.2"/>
<polygon fill="black" stroke="black" points="407.81,-800.3 401.32,-791.92 401.17,-802.52 407.81,-800.3"/>
<text text-anchor="start" x="418.25" y="-816.75" font-family="Courier New" font-weight="bold" font-size="10.00" fill="blue">ASSIGN(WSPRITE,IDS_RUMBLE)</text>
</g>
<!-- steady -->
<g id="node5" class="node">
<title>steady</title>
<polyline fill="none" stroke="darkred" points="336.5,-667.75 392,-667.75"/>
<text text-anchor="start" x="339.5" y="-674.95" font-family="Courier New" font-weight="bold" font-size="14.00">steady</text>
<path fill="none" stroke="darkred" d="M343,-664.75C343,-664.75 385.5,-664.75 385.5,-664.75 390.25,-664.75 395,-669.5 395,-674.25 395,-674.25 395,-683.75 395,-683.75 395,-688.5 390.25,-693.25 385.5,-693.25 385.5,-693.25 343,-693.25 343,-693.25 338.25,-693.25 333.5,-688.5 333.5,-683.75 333.5,-683.75 333.5,-674.25 333.5,-674.25 333.5,-669.5 338.25,-664.75 343,-664.75"/>
</g>
<!-- 2&#45;&gt;steady -->
<g id="edge3" class="edge">
<title>2&#45;&gt;steady</title>
<path fill="none" stroke="black" d="M389.42,-754.09C385,-741.09 378.84,-722.95 373.72,-707.88"/>
<polygon fill="black" stroke="black" points="377.07,-706.86 370.54,-698.52 370.44,-709.11 377.07,-706.86"/>
<text text-anchor="start" x="387.25" y="-723.5" font-family="Courier New" font-weight="bold" font-size="10.00" fill="blue">SHOW(WSPRITE,)</text>
</g>
<!-- majorForce -->
<g id="node12" class="node">
<title>majorForce</title>
<polyline fill="none" stroke="darkred" points="11,-574.5 99.5,-574.5"/>
<text text-anchor="start" x="14" y="-581.7" font-family="Courier New" font-weight="bold" font-size="14.00">majorForce</text>
<path fill="none" stroke="darkred" d="M17.5,-571.5C17.5,-571.5 93,-571.5 93,-571.5 97.75,-571.5 102.5,-576.25 102.5,-581 102.5,-581 102.5,-590.5 102.5,-590.5 102.5,-595.25 97.75,-600 93,-600 93,-600 17.5,-600 17.5,-600 12.75,-600 8,-595.25 8,-590.5 8,-590.5 8,-581 8,-581 8,-576.25 12.75,-571.5 17.5,-571.5"/>
</g>
<!-- steady&#45;&gt;majorForce -->
<g id="edge14" class="edge">
<title>steady&#45;&gt;majorForce</title>
<path fill="none" stroke="black" d="M325.59,-676.93C239.43,-674.16 37.62,-665.3 17.25,-642.75 8.67,-633.26 14.27,-621.71 23.53,-611.57"/>
<polygon fill="black" stroke="black" points="25.71,-614.33 30.46,-604.86 20.84,-609.3 25.71,-614.33"/>
<text text-anchor="start" x="21.25" y="-630.25" font-family="Courier New" font-weight="bold" font-size="10.00" fill="orange">DROP(IDD_TELEKINESIS, IDD_STRENGTH,)</text>
</g>
<!-- minorForce -->
<g id="node13" class="node">
<title>minorForce</title>
<polyline fill="none" stroke="darkred" points="199,-574.5 287.5,-574.5"/>
<text text-anchor="start" x="202" y="-581.7" font-family="Courier New" font-weight="bold" font-size="14.00">minorForce</text>
<path fill="none" stroke="darkred" d="M205.5,-571.5C205.5,-571.5 281,-571.5 281,-571.5 285.75,-571.5 290.5,-576.25 290.5,-581 290.5,-581 290.5,-590.5 290.5,-590.5 290.5,-595.25 285.75,-600 281,-600 281,-600 205.5,-600 205.5,-600 200.75,-600 196,-595.25 196,-590.5 196,-590.5 196,-581 196,-581 196,-576.25 200.75,-571.5 205.5,-571.5"/>
</g>
<!-- steady&#45;&gt;minorForce -->
<g id="edge15" class="edge">
<title>steady&#45;&gt;minorForce</title>
<path fill="none" stroke="black" d="M325.55,-675.33C301.64,-671.6 272.18,-662.9 254.25,-642.75 247.6,-635.28 244.48,-624.99 243.15,-615.27"/>
<polygon fill="black" stroke="black" points="246.65,-615.14 242.4,-605.43 239.67,-615.67 246.65,-615.14"/>
<text text-anchor="start" x="258.25" y="-630.25" font-family="Courier New" font-weight="bold" font-size="10.00" fill="orange">WAIT(0,SIG_PRY)</text>
</g>
<!-- reinitialized -->
<g id="node14" class="node">
<title>reinitialized</title>
<polyline fill="none" stroke="darkred" points="381.62,-574.5 494.88,-574.5"/>
<text text-anchor="start" x="384.62" y="-581.7" font-family="Courier New" font-weight="bold" font-size="14.00">reinitialized</text>
<path fill="none" stroke="darkred" d="M388.12,-571.5C388.12,-571.5 488.38,-571.5 488.38,-571.5 493.12,-571.5 497.88,-576.25 497.88,-581 497.88,-581 497.88,-590.5 497.88,-590.5 497.88,-595.25 493.12,-600 488.38,-600 488.38,-600 388.12,-600 388.12,-600 383.38,-600 378.62,-595.25 378.62,-590.5 378.62,-590.5 378.62,-581 378.62,-581 378.62,-576.25 383.38,-571.5 388.12,-571.5"/>
</g>
<!-- steady&#45;&gt;reinitialized -->
<g id="edge16" class="edge">
<title>steady&#45;&gt;reinitialized</title>
<path fill="none" stroke="black" d="M358.42,-660.99C355.47,-649.14 353.89,-633.47 361.25,-622 364.05,-617.64 367.54,-613.81 371.48,-610.45"/>
<polygon fill="black" stroke="black" points="373.41,-613.37 379.49,-604.7 369.32,-607.69 373.41,-613.37"/>
<text text-anchor="start" x="365.25" y="-630.25" font-family="Courier New" font-weight="bold" font-size="10.00" fill="orange">WAIT(0,SIG_INIT)</text>
</g>
<!-- 61 -->
<g id="node6" class="node">
<title>61</title>
<polyline fill="none" stroke="darkred" points="232,-294.75 254.5,-294.75"/>
<text text-anchor="start" x="235" y="-301.95" font-family="Courier New" font-weight="bold" font-size="14.00">61</text>
<path fill="none" stroke="darkred" d="M238.5,-291.75C238.5,-291.75 248,-291.75 248,-291.75 252.75,-291.75 257.5,-296.5 257.5,-301.25 257.5,-301.25 257.5,-310.75 257.5,-310.75 257.5,-315.5 252.75,-320.25 248,-320.25 248,-320.25 238.5,-320.25 238.5,-320.25 233.75,-320.25 229,-315.5 229,-310.75 229,-310.75 229,-301.25 229,-301.25 229,-296.5 233.75,-291.75 238.5,-291.75"/>
</g>
<!-- 62 -->
<g id="node7" class="node">
<title>62</title>
<polyline fill="none" stroke="darkred" points="232,-201.5 254.5,-201.5"/>
<text text-anchor="start" x="235" y="-208.7" font-family="Courier New" font-weight="bold" font-size="14.00">62</text>
<path fill="none" stroke="darkred" d="M238.5,-198.5C238.5,-198.5 248,-198.5 248,-198.5 252.75,-198.5 257.5,-203.25 257.5,-208 257.5,-208 257.5,-217.5 257.5,-217.5 257.5,-222.25 252.75,-227 248,-227 248,-227 238.5,-227 238.5,-227 233.75,-227 229,-222.25 229,-217.5 229,-217.5 229,-208 229,-208 229,-203.25 233.75,-198.5 238.5,-198.5"/>
</g>
<!-- 61&#45;&gt;62 -->
<g id="edge4" class="edge">
<title>61&#45;&gt;62</title>
<path fill="none" stroke="black" d="M243.25,-287.84C243.25,-274.96 243.25,-257.06 243.25,-242.07"/>
<polygon fill="black" stroke="black" points="246.75,-242.35 243.25,-232.35 239.75,-242.35 246.75,-242.35"/>
<text text-anchor="start" x="247.25" y="-257.25" font-family="Courier New" font-weight="bold" font-size="10.00" fill="blue">SHOW(WSPRITE,)</text>
</g>
<!-- 70 -->
<g id="node8" class="node">
<title>70</title>
<polyline fill="none" stroke="darkred" stroke-width="3" points="231.5,-103.75 255,-103.75"/>
<text text-anchor="start" x="235" y="-111.45" font-family="Courier New" font-weight="bold" font-size="14.00">70</text>
<path fill="none" stroke="darkred" stroke-width="3" d="M237.67,-98.75C237.67,-98.75 248.83,-98.75 248.83,-98.75 254.42,-98.75 260,-104.33 260,-109.92 260,-109.92 260,-121.08 260,-121.08 260,-126.67 254.42,-132.25 248.83,-132.25 248.83,-132.25 237.67,-132.25 237.67,-132.25 232.08,-132.25 226.5,-126.67 226.5,-121.08 226.5,-121.08 226.5,-109.92 226.5,-109.92 226.5,-104.33 232.08,-98.75 237.67,-98.75"/>
</g>
<!-- 62&#45;&gt;70 -->
<g id="edge5" class="edge">
<title>62&#45;&gt;70</title>
<path fill="none" stroke="black" d="M243.25,-194.72C243.25,-182.01 243.25,-164.27 243.25,-148.89"/>
<polygon fill="black" stroke="black" points="246.75,-149.23 243.25,-139.23 239.75,-149.23 246.75,-149.23"/>
<text text-anchor="start" x="247.25" y="-164" font-family="Courier New" font-weight="bold" font-size="10.00" fill="blue">SIGNALi(SIG_OPEN,S25_ROLL)</text>
</g>
<!-- 71 -->
<g id="node9" class="node">
<title>71</title>
<polyline fill="none" stroke="darkred" points="232,-7 254.5,-7"/>
<text text-anchor="start" x="235" y="-14.2" font-family="Courier New" font-weight="bold" font-size="14.00">71</text>
<path fill="none" stroke="darkred" d="M238.5,-4C238.5,-4 248,-4 248,-4 252.75,-4 257.5,-8.75 257.5,-13.5 257.5,-13.5 257.5,-23 257.5,-23 257.5,-27.75 252.75,-32.5 248,-32.5 248,-32.5 238.5,-32.5 238.5,-32.5 233.75,-32.5 229,-27.75 229,-23 229,-23 229,-13.5 229,-13.5 229,-8.75 233.75,-4 238.5,-4"/>
</g>
<!-- 70&#45;&gt;71 -->
<g id="edge6" class="edge">
<title>70&#45;&gt;71</title>
<path fill="none" stroke="black" d="M216.49,-97C209.57,-91 203.02,-83.66 199.25,-75.25 195.48,-66.83 195.26,-62.81 199.25,-54.5 201.45,-49.91 204.58,-45.73 208.16,-41.98"/>
<polygon fill="black" stroke="black" points="210.3,-44.76 215.42,-35.49 205.64,-39.54 210.3,-44.76"/>
<text text-anchor="start" x="203.25" y="-62.75" font-family="Courier New" font-weight="bold" font-size="10.00" fill="orange">CLICK(0,0)</text>
</g>
<!-- 71&#45;&gt;70 -->
<g id="edge7" class="edge">
<title>71&#45;&gt;70</title>
<path fill="none" stroke="black" d="M257.96,-36.46C261.74,-41.88 265.29,-48.13 267.25,-54.5 269.97,-63.31 269.75,-66.37 267.25,-75.25 266.47,-78.01 265.44,-80.76 264.25,-83.46"/>
<polygon fill="black" stroke="black" points="261.24,-81.67 259.68,-92.15 267.43,-84.92 261.24,-81.67"/>
<text text-anchor="start" x="273.25" y="-62.75" font-family="Courier New" font-weight="bold" font-size="10.00" fill="blue">LOADVIEW(0,IDV_WALL2EN)</text>
</g>
<!-- forceCheck -->
<g id="node10" class="node">
<title>forceCheck</title>
<polyline fill="none" stroke="darkred" points="199,-481.25 287.5,-481.25"/>
<text text-anchor="start" x="202" y="-488.45" font-family="Courier New" font-weight="bold" font-size="14.00">forceCheck</text>
<path fill="none" stroke="darkred" d="M205.5,-478.25C205.5,-478.25 281,-478.25 281,-478.25 285.75,-478.25 290.5,-483 290.5,-487.75 290.5,-487.75 290.5,-497.25 290.5,-497.25 290.5,-502 285.75,-506.75 281,-506.75 281,-506.75 205.5,-506.75 205.5,-506.75 200.75,-506.75 196,-502 196,-497.25 196,-497.25 196,-487.75 196,-487.75 196,-483 200.75,-478.25 205.5,-478.25"/>
</g>
<!-- forceCheck&#45;&gt;0 -->
<g id="edge9" class="edge">
<title>forceCheck&#45;&gt;0</title>
<path fill="none" stroke="black" d="M298.17,-496.51C396.45,-503.42 592.25,-524.71 592.25,-584.75 592.25,-866.5 592.25,-866.5 592.25,-866.5 592.25,-892.15 590.57,-900 578.25,-922.5 572.97,-932.15 568.76,-932.46 561.25,-940.5 557.19,-944.85 552.88,-949.49 548.72,-953.99"/>
<polygon fill="black" stroke="black" points="546.22,-951.54 542.01,-961.26 551.36,-956.29 546.22,-951.54"/>
<text text-anchor="start" x="596.25" y="-723.5" font-family="Courier New" font-weight="bold" font-size="10.00" fill="blue">VIDEO(0,IDS_RUMBLE)</text>
</g>
<!-- startOpen -->
<g id="node11" class="node">
<title>startOpen</title>
<polyline fill="none" stroke="darkred" points="203.12,-388 283.38,-388"/>
<text text-anchor="start" x="206.12" y="-395.2" font-family="Courier New" font-weight="bold" font-size="14.00">startOpen</text>
<path fill="none" stroke="darkred" d="M209.62,-385C209.62,-385 276.88,-385 276.88,-385 281.62,-385 286.38,-389.75 286.38,-394.5 286.38,-394.5 286.38,-404 286.38,-404 286.38,-408.75 281.62,-413.5 276.88,-413.5 276.88,-413.5 209.62,-413.5 209.62,-413.5 204.88,-413.5 200.12,-408.75 200.12,-404 200.12,-404 200.12,-394.5 200.12,-394.5 200.12,-389.75 204.88,-385 209.62,-385"/>
</g>
<!-- forceCheck&#45;&gt;startOpen -->
<g id="edge8" class="edge">
<title>forceCheck&#45;&gt;startOpen</title>
<path fill="none" stroke="black" d="M243.25,-474.34C243.25,-461.46 243.25,-443.56 243.25,-428.57"/>
<polygon fill="black" stroke="black" points="246.75,-428.85 243.25,-418.85 239.75,-428.85 246.75,-428.85"/>
<text text-anchor="start" x="247.25" y="-443.75" font-family="Courier New" font-weight="bold" font-size="10.00" fill="blue">GTi(BPARM,5)</text>
</g>
<!-- startOpen&#45;&gt;61 -->
<g id="edge13" class="edge">
<title>startOpen&#45;&gt;61</title>
<path fill="none" stroke="black" d="M243.25,-381.09C243.25,-368.21 243.25,-350.31 243.25,-335.32"/>
<polygon fill="black" stroke="black" points="246.75,-335.6 243.25,-325.6 239.75,-335.6 246.75,-335.6"/>
<text text-anchor="start" x="247.25" y="-350.5" font-family="Courier New" font-weight="bold" font-size="10.00" fill="blue">ASSIGN(WSPRITE,0)</text>
</g>
<!-- majorForce&#45;&gt;forceCheck -->
<g id="edge10" class="edge">
<title>majorForce&#45;&gt;forceCheck</title>
<path fill="none" stroke="black" d="M82.55,-567.72C101.9,-556 128.68,-540.5 153.25,-528.75 163.35,-523.92 174.31,-519.21 184.98,-514.88"/>
<polygon fill="black" stroke="black" points="186.11,-518.2 194.11,-511.26 183.53,-511.7 186.11,-518.2"/>
<text text-anchor="start" x="157.25" y="-537" font-family="Courier New" font-weight="bold" font-size="10.00" fill="blue">ADDI(BPARM,5)</text>
</g>
<!-- minorForce&#45;&gt;forceCheck -->
<g id="edge11" class="edge">
<title>minorForce&#45;&gt;forceCheck</title>
<path fill="none" stroke="black" d="M243.25,-567.59C243.25,-554.71 243.25,-536.81 243.25,-521.82"/>
<polygon fill="black" stroke="black" points="246.75,-522.1 243.25,-512.1 239.75,-522.1 246.75,-522.1"/>
<text text-anchor="start" x="247.25" y="-537" font-family="Courier New" font-weight="bold" font-size="10.00" fill="blue">ADDI(BPARM,1)</text>
</g>
<!-- reinitialized&#45;&gt;steady -->
<g id="edge12" class="edge">
<title>reinitialized&#45;&gt;steady</title>
<path fill="none" stroke="black" d="M457.64,-603.54C468.5,-615 478.2,-630.3 469.25,-642.75 456.56,-660.4 434.59,-669.34 414.03,-673.81"/>
<polygon fill="black" stroke="black" points="413.51,-670.35 404.3,-675.59 414.77,-677.23 413.51,-670.35"/>
<text text-anchor="start" x="476.25" y="-630.25" font-family="Courier New" font-weight="bold" font-size="10.00" fill="blue">CLEAR(BPARM,)</text>
</g>
<!-- status -->
<g id="node15" class="node">
<title>status</title>
<polygon fill="none" stroke="black" points="570.25,-941 570.25,-1020 832.25,-1020 832.25,-941 570.25,-941"/>
<polygon fill="none" stroke="black" points="581.25,-994.25 581.25,-1013 821.25,-1013 821.25,-994.25 581.25,-994.25"/>
<text text-anchor="start" x="671.25" y="-1001.5" font-family="Courier New" font-weight="bold" font-size="10.00">S25_RUMBLE</text>
<polygon fill="none" stroke="black" points="581.25,-948 581.25,-992.25 821.25,-992.25 821.25,-948 581.25,-948"/>
<text text-anchor="start" x="584.25" y="-979.75" font-family="Courier New" font-size="10.00" fill="green">VIEW::IDV_W4LOCK @pos(left:374, top:96)</text>
<text text-anchor="start" x="584.25" y="-967" font-family="Courier New" font-size="10.00" fill="green">S25_RUMBLE::M25_RUMBLE(&#39;&#39;,&#39;&#39;,&#39;&#39;,&#39;&#39;)</text>
<text text-anchor="start" x="584.25" y="-954.25" font-family="Courier New" font-size="10.00" fill="green">{state:&#39;70&#39;: bParm:6 bFrame:1</text>
<polygon fill="none" stroke="black" points="578.25,-945 578.25,-1016 824.25,-1016 824.25,-945 578.25,-945"/>
</g>
</g>
</svg>
