<?xml version="1.0" encoding="UTF-8" standalone="no"?>
<!DOCTYPE svg PUBLIC "-//W3C//DTD SVG 1.1//EN"
 "http://www.w3.org/Graphics/SVG/1.1/DTD/svg11.dtd">
<!-- Generated by graphviz version 8.0.1 (20230327.1645)
 -->
<!-- Title: Automaton Pages: 1 -->
<svg width="571pt" height="646pt"
 viewBox="0.00 0.00 571.00 646.00" xmlns="http://www.w3.org/2000/svg" xmlns:xlink="http://www.w3.org/1999/xlink">
<g id="graph0" class="graph" transform="scale(1 1) rotate(0) translate(4 642)">
<title>Automaton</title>
<polygon fill="white" stroke="none" points="-4,4 -4,-642 567,-642 567,4 -4,4"/>
<!-- filename -->
<g id="node1" class="node">
<title>filename</title>
<polygon fill="none" stroke="black" points="0,-582 0,-632 167,-632 167,-582 0,-582"/>
<polygon fill="none" stroke="black" points="11,-608 11,-625 156,-625 156,-608 11,-608"/>
<text text-anchor="start" x="14" y="-615" font-family="Courier New" font-weight="bold" font-size="10.00">S27_MEMSTONE6::M_MEMORY</text>
<polygon fill="none" stroke="black" points="11,-589 11,-606 156,-606 156,-589 11,-589"/>
<text text-anchor="start" x="38" y="-595" font-family="Courier New" font-size="10.00" fill="brown">start state = 0</text>
<polygon fill="none" stroke="black" points="8,-586 8,-628 159,-628 159,-586 8,-586"/>
</g>
<!-- 0 -->
<g id="node2" class="node">
<title>0</title>
<polyline fill="none" stroke="darkred" points="205,-596.5 220,-596.5"/>
<text text-anchor="start" x="208" y="-604.3" font-family="Courier New" font-weight="bold" font-size="14.00">0</text>
<path fill="none" stroke="darkred" d="M209,-593.5C209,-593.5 216,-593.5 216,-593.5 219.5,-593.5 223,-597 223,-600.5 223,-600.5 223,-613.5 223,-613.5 223,-617 219.5,-620.5 216,-620.5 216,-620.5 209,-620.5 209,-620.5 205.5,-620.5 202,-617 202,-613.5 202,-613.5 202,-600.5 202,-600.5 202,-597 205.5,-593.5 209,-593.5"/>
</g>
<!-- 1 -->
<g id="node3" class="node">
<title>1</title>
<polyline fill="none" stroke="darkred" points="147,-492.5 162,-492.5"/>
<text text-anchor="start" x="150" y="-500.3" font-family="Courier New" font-weight="bold" font-size="14.00">1</text>
<path fill="none" stroke="darkred" d="M151,-489.5C151,-489.5 158,-489.5 158,-489.5 161.5,-489.5 165,-493 165,-496.5 165,-496.5 165,-509.5 165,-509.5 165,-513 161.5,-516.5 158,-516.5 158,-516.5 151,-516.5 151,-516.5 147.5,-516.5 144,-513 144,-509.5 144,-509.5 144,-496.5 144,-496.5 144,-493 147.5,-489.5 151,-489.5"/>
</g>
<!-- 0&#45;&gt;1 -->
<g id="edge1" class="edge">
<title>0&#45;&gt;1</title>
<path fill="none" stroke="black" d="M191.58,-589.08C176.89,-576.98 159.52,-562.13 157.5,-558 153.6,-550.02 152.18,-540.57 151.93,-531.82"/>
<polygon fill="black" stroke="black" points="155.44,-531.98 152.17,-521.91 148.45,-531.83 155.44,-531.98"/>
<text text-anchor="start" x="161.5" y="-547" font-family="Courier New" font-weight="bold" font-size="10.00" fill="orange">WAIT(,SIG_SHOW)</text>
</g>
<!-- 2 -->
<g id="node4" class="node">
<title>2</title>
<polyline fill="none" stroke="darkred" points="138,-401.5 153,-401.5"/>
<text text-anchor="start" x="141" y="-409.3" font-family="Courier New" font-weight="bold" font-size="14.00">2</text>
<path fill="none" stroke="darkred" d="M142,-398.5C142,-398.5 149,-398.5 149,-398.5 152.5,-398.5 156,-402 156,-405.5 156,-405.5 156,-418.5 156,-418.5 156,-422 152.5,-425.5 149,-425.5 149,-425.5 142,-425.5 142,-425.5 138.5,-425.5 135,-422 135,-418.5 135,-418.5 135,-405.5 135,-405.5 135,-402 138.5,-398.5 142,-398.5"/>
</g>
<!-- 1&#45;&gt;2 -->
<g id="edge2" class="edge">
<title>1&#45;&gt;2</title>
<path fill="none" stroke="black" d="M152.81,-485.26C151.55,-472.78 149.79,-455.46 148.32,-440.9"/>
<polygon fill="black" stroke="black" points="151.7,-440.56 147.22,-430.97 144.74,-441.27 151.7,-440.56"/>
<text text-anchor="start" x="155.5" y="-456" font-family="Courier New" font-weight="bold" font-size="10.00" fill="blue">RAND(8,0)</text>
</g>
<!-- 3 -->
<g id="node5" class="node">
<title>3</title>
<polyline fill="none" stroke="darkred" points="58,-310.5 73,-310.5"/>
<text text-anchor="start" x="61" y="-318.3" font-family="Courier New" font-weight="bold" font-size="14.00">3</text>
<path fill="none" stroke="darkred" d="M62,-307.5C62,-307.5 69,-307.5 69,-307.5 72.5,-307.5 76,-311 76,-314.5 76,-314.5 76,-327.5 76,-327.5 76,-331 72.5,-334.5 69,-334.5 69,-334.5 62,-334.5 62,-334.5 58.5,-334.5 55,-331 55,-327.5 55,-327.5 55,-314.5 55,-314.5 55,-311 58.5,-307.5 62,-307.5"/>
</g>
<!-- 2&#45;&gt;3 -->
<g id="edge3" class="edge">
<title>2&#45;&gt;3</title>
<path fill="none" stroke="black" d="M130.45,-394.26C118.46,-380.92 101.49,-362.04 87.9,-346.92"/>
<polygon fill="black" stroke="black" points="91.04,-345.07 81.75,-339.97 85.83,-349.74 91.04,-345.07"/>
<text text-anchor="start" x="117.5" y="-365" font-family="Courier New" font-weight="bold" font-size="10.00" fill="blue">MOV(BFRAME,WRAND)</text>
</g>
<!-- 4 -->
<g id="node6" class="node">
<title>4</title>
<polyline fill="none" stroke="darkred" stroke-width="3" points="89.5,-192.5 105.5,-192.5"/>
<text text-anchor="start" x="93" y="-200.8" font-family="Courier New" font-weight="bold" font-size="14.00">4</text>
<path fill="none" stroke="darkred" stroke-width="3" d="M93.17,-187.5C93.17,-187.5 101.83,-187.5 101.83,-187.5 106.17,-187.5 110.5,-191.83 110.5,-196.17 110.5,-196.17 110.5,-210.83 110.5,-210.83 110.5,-215.17 106.17,-219.5 101.83,-219.5 101.83,-219.5 93.17,-219.5 93.17,-219.5 88.83,-219.5 84.5,-215.17 84.5,-210.83 84.5,-210.83 84.5,-196.17 84.5,-196.17 84.5,-191.83 88.83,-187.5 93.17,-187.5"/>
</g>
<!-- 3&#45;&gt;4 -->
<g id="edge4" class="edge">
<title>3&#45;&gt;4</title>
<path fill="none" stroke="black" d="M49.58,-303.09C45.49,-297.71 41.64,-291.47 39.5,-285 33.64,-267.28 30.68,-259.45 39.5,-243 44.41,-233.85 52.56,-226.5 61.22,-220.78"/>
<polygon fill="black" stroke="black" points="62.84,-223.3 69.68,-215.2 59.29,-217.27 62.84,-223.3"/>
<polygon fill="none" stroke="black" points="42.5,-265 42.5,-282 253.5,-282 253.5,-265 42.5,-265"/>
<text text-anchor="start" x="114.5" y="-272" font-family="Courier New" font-weight="bold" font-size="10.00" fill="blue">SHOW(WIP1,)</text>
<polygon fill="none" stroke="black" points="42.5,-246 42.5,-263 253.5,-263 253.5,-246 42.5,-246"/>
<text text-anchor="start" x="45.5" y="-252" font-family="Courier New" font-size="10.00" fill="blue">MOV(BPARM,BFRAME);ASSIGN(WPARM,1);</text>
<polygon fill="none" stroke="black" points="39.5,-243 39.5,-285 256.5,-285 256.5,-243 39.5,-243"/>
</g>
<!-- 5 -->
<g id="node7" class="node">
<title>5</title>
<polyline fill="none" stroke="darkred" points="120,-98.5 135,-98.5"/>
<text text-anchor="start" x="123" y="-106.3" font-family="Courier New" font-weight="bold" font-size="14.00">5</text>
<path fill="none" stroke="darkred" d="M124,-95.5C124,-95.5 131,-95.5 131,-95.5 134.5,-95.5 138,-99 138,-102.5 138,-102.5 138,-115.5 138,-115.5 138,-119 134.5,-122.5 131,-122.5 131,-122.5 124,-122.5 124,-122.5 120.5,-122.5 117,-119 117,-115.5 117,-115.5 117,-102.5 117,-102.5 117,-99 120.5,-95.5 124,-95.5"/>
</g>
<!-- 4&#45;&gt;5 -->
<g id="edge5" class="edge">
<title>4&#45;&gt;5</title>
<path fill="none" stroke="black" d="M104.01,-182.43C108.29,-169.22 113.96,-151.76 118.65,-137.29"/>
<polygon fill="black" stroke="black" points="122.25,-138.52 122.01,-127.93 115.59,-136.36 122.25,-138.52"/>
<text text-anchor="start" x="120.5" y="-153" font-family="Courier New" font-weight="bold" font-size="10.00" fill="orange">WAIT(,SIG_HIDE)</text>
</g>
<!-- 6 -->
<g id="node8" class="node">
<title>6</title>
<polyline fill="none" stroke="darkred" points="192,-7.5 207,-7.5"/>
<text text-anchor="start" x="195" y="-15.3" font-family="Courier New" font-weight="bold" font-size="14.00">6</text>
<path fill="none" stroke="darkred" d="M196,-4.5C196,-4.5 203,-4.5 203,-4.5 206.5,-4.5 210,-8 210,-11.5 210,-11.5 210,-24.5 210,-24.5 210,-28 206.5,-31.5 203,-31.5 203,-31.5 196,-31.5 196,-31.5 192.5,-31.5 189,-28 189,-24.5 189,-24.5 189,-11.5 189,-11.5 189,-8 192.5,-4.5 196,-4.5"/>
</g>
<!-- 5&#45;&gt;6 -->
<g id="edge6" class="edge">
<title>5&#45;&gt;6</title>
<path fill="none" stroke="black" d="M134.73,-91.42C140.08,-80.2 148.06,-65.4 157.5,-54 160.73,-50.09 164.45,-46.29 168.3,-42.72"/>
<polygon fill="black" stroke="black" points="170.05,-44.97 175.3,-35.76 165.46,-39.69 170.05,-44.97"/>
<text text-anchor="start" x="161.5" y="-62" font-family="Courier New" font-weight="bold" font-size="10.00" fill="blue">CLEAR(WSPRITE,)</text>
</g>
<!-- 6&#45;&gt;0 -->
<g id="edge7" class="edge">
<title>6&#45;&gt;0</title>
<path fill="none" stroke="black" d="M226.27,-29.99C237.1,-35.68 248.83,-43.64 256.5,-54 271.24,-73.93 270.5,-83.21 270.5,-108 270.5,-504 270.5,-504 270.5,-504 270.5,-528.79 268.34,-536.22 256.5,-558 251.92,-566.42 245.55,-574.53 239.07,-581.62"/>
<polygon fill="black" stroke="black" points="236.96,-578.79 232.52,-588.41 241.99,-583.66 236.96,-578.79"/>
<text text-anchor="start" x="274.5" y="-319.5" font-family="Courier New" font-weight="bold" font-size="10.00" fill="blue">SHOW(,)</text>
</g>
<!-- status -->
<g id="node9" class="node">
<title>status</title>
<polygon fill="none" stroke="black" points="258,-576.5 258,-637.5 563,-637.5 563,-576.5 258,-576.5"/>
<polygon fill="none" stroke="black" points="269,-613.5 269,-630.5 552,-630.5 552,-613.5 269,-613.5"/>
<text text-anchor="start" x="371" y="-620.5" font-family="Courier New" font-weight="bold" font-size="10.00">S27_MEMSTONE6</text>
<polygon fill="none" stroke="black" points="269,-583.5 269,-611.5 552,-611.5 552,-583.5 269,-583.5"/>
<text text-anchor="start" x="272" y="-600.5" font-family="Courier New" font-size="10.00" fill="green">S27_MEMSTONE6::M_MEMORY(&#39;IDS_MOON6&#39;,&#39;8&#39;,&#39;&#39;,&#39;&#39;)</text>
<text text-anchor="start" x="272" y="-589.5" font-family="Courier New" font-size="10.00" fill="green">{&#39;4&#39;: bParm:7 wParm:1 wSprite:m6 bFrame:7}</text>
<polygon fill="none" stroke="black" points="266,-580.5 266,-633.5 555,-633.5 555,-580.5 266,-580.5"/>
</g>
</g>
</svg>
