<?xml version="1.0" encoding="UTF-8" standalone="no"?>
<!DOCTYPE svg PUBLIC "-//W3C//DTD SVG 1.1//EN"
 "http://www.w3.org/Graphics/SVG/1.1/DTD/svg11.dtd">
<!-- Generated by graphviz version 8.0.1 (20230327.1645)
 -->
<!-- Title: Automaton Pages: 1 -->
<svg width="1168pt" height="2001pt"
 viewBox="0.00 0.00 1167.50 2001.00" xmlns="http://www.w3.org/2000/svg" xmlns:xlink="http://www.w3.org/1999/xlink">
<g id="graph0" class="graph" transform="scale(1 1) rotate(0) translate(4 1997)">
<title>Automaton</title>
<polygon fill="white" stroke="none" points="-4,4 -4,-1997 1163.5,-1997 1163.5,4 -4,4"/>
<!-- filename -->
<g id="node1" class="node">
<title>filename</title>
<polygon fill="none" stroke="black" points="284.5,-1931.5 284.5,-1981.5 445.5,-1981.5 445.5,-1931.5 284.5,-1931.5"/>
<polygon fill="none" stroke="black" points="295.5,-1957.5 295.5,-1974.5 434.5,-1974.5 434.5,-1957.5 295.5,-1957.5"/>
<text text-anchor="start" x="298.5" y="-1964.5" font-family="Courier New" font-weight="bold" font-size="10.00">S28_KAMDOOR::M_KAMDOOR</text>
<polygon fill="none" stroke="black" points="295.5,-1938.5 295.5,-1955.5 434.5,-1955.5 434.5,-1938.5 295.5,-1938.5"/>
<text text-anchor="start" x="319.5" y="-1944.5" font-family="Courier New" font-size="10.00" fill="brown">start state = 0</text>
<polygon fill="none" stroke="black" points="292.5,-1935.5 292.5,-1977.5 437.5,-1977.5 437.5,-1935.5 292.5,-1935.5"/>
</g>
<!-- 0 -->
<g id="node2" class="node">
<title>0</title>
<polyline fill="none" stroke="darkred" points="483.5,-1946 498.5,-1946"/>
<text text-anchor="start" x="486.5" y="-1953.8" font-family="Courier New" font-weight="bold" font-size="14.00">0</text>
<path fill="none" stroke="darkred" d="M487.5,-1943C487.5,-1943 494.5,-1943 494.5,-1943 498,-1943 501.5,-1946.5 501.5,-1950 501.5,-1950 501.5,-1963 501.5,-1963 501.5,-1966.5 498,-1970 494.5,-1970 494.5,-1970 487.5,-1970 487.5,-1970 484,-1970 480.5,-1966.5 480.5,-1963 480.5,-1963 480.5,-1950 480.5,-1950 480.5,-1946.5 484,-1943 487.5,-1943"/>
</g>
<!-- startChecking -->
<g id="node3" class="node">
<title>startChecking</title>
<polyline fill="none" stroke="darkred" points="11,-1736.5 125,-1736.5"/>
<text text-anchor="start" x="14" y="-1744.3" font-family="Courier New" font-weight="bold" font-size="14.00">startChecking</text>
<path fill="none" stroke="darkred" d="M17,-1733.5C17,-1733.5 119,-1733.5 119,-1733.5 123.5,-1733.5 128,-1738 128,-1742.5 128,-1742.5 128,-1751.5 128,-1751.5 128,-1756 123.5,-1760.5 119,-1760.5 119,-1760.5 17,-1760.5 17,-1760.5 12.5,-1760.5 8,-1756 8,-1751.5 8,-1751.5 8,-1742.5 8,-1742.5 8,-1738 12.5,-1733.5 17,-1733.5"/>
</g>
<!-- 0&#45;&gt;startChecking -->
<g id="edge1" class="edge">
<title>0&#45;&gt;startChecking</title>
<path fill="none" stroke="black" d="M478.08,-1938.55C471.68,-1931.48 463.32,-1924 454,-1920 414.55,-1903.06 97.64,-1933.06 68,-1902 35.85,-1868.32 47.44,-1809.19 58.14,-1774.83"/>
<polygon fill="black" stroke="black" points="61.71,-1776.2 61.53,-1765.61 55.06,-1774 61.71,-1776.2"/>
<polygon fill="none" stroke="black" points="71,-1882 71,-1899 474,-1899 474,-1882 71,-1882"/>
<text text-anchor="start" x="224" y="-1889" font-family="Courier New" font-weight="bold" font-size="10.00" fill="orange">WAIT(,SIG_CHECK)</text>
<polygon fill="none" stroke="black" points="71,-1786 71,-1880 474,-1880 474,-1786 71,-1786"/>
<text text-anchor="start" x="74" y="-1869" font-family="Courier New" font-size="10.00" fill="blue">/*</text>
<text text-anchor="start" x="74" y="-1858" font-family="Courier New" font-size="10.00" fill="blue"> &#160;&#160;&#160;Each change in moon disk rotation checks to see </text>
<text text-anchor="start" x="74" y="-1847" font-family="Courier New" font-size="10.00" fill="blue"> &#160;&#160;&#160;which frame matches are present across all paired moons/disks.</text>
<text text-anchor="start" x="74" y="-1836" font-family="Courier New" font-size="10.00" fill="blue"> &#160;&#160;&#160;it checks to see if the moons are showing</text>
<text text-anchor="start" x="74" y="-1825" font-family="Courier New" font-size="10.00" fill="blue"> &#160;&#160;&#160;at all first (MEMSTONE(X)&#45; R_WPARM), then </text>
<text text-anchor="start" x="74" y="-1814" font-family="Courier New" font-size="10.00" fill="blue"> &#160;&#160;&#160;counts matches in WPARM up to the 7 required</text>
<text text-anchor="start" x="74" y="-1803" font-family="Courier New" font-size="10.00" fill="blue">*/</text>
<text text-anchor="start" x="74" y="-1792" font-family="Courier New" font-size="10.00" fill="blue">ASSIGN(WPARM,0);</text>
<polygon fill="none" stroke="black" points="68,-1783 68,-1902 477,-1902 477,-1783 68,-1783"/>
</g>
<!-- sevenChecked -->
<g id="node10" class="node">
<title>sevenChecked</title>
<polyline fill="none" stroke="darkred" points="18,-1545.5 124,-1545.5"/>
<text text-anchor="start" x="21" y="-1553.3" font-family="Courier New" font-weight="bold" font-size="14.00">sevenChecked</text>
<path fill="none" stroke="darkred" d="M24,-1542.5C24,-1542.5 118,-1542.5 118,-1542.5 122.5,-1542.5 127,-1547 127,-1551.5 127,-1551.5 127,-1560.5 127,-1560.5 127,-1565 122.5,-1569.5 118,-1569.5 118,-1569.5 24,-1569.5 24,-1569.5 19.5,-1569.5 15,-1565 15,-1560.5 15,-1560.5 15,-1551.5 15,-1551.5 15,-1547 19.5,-1542.5 24,-1542.5"/>
</g>
<!-- startChecking&#45;&gt;sevenChecked -->
<g id="edge10" class="edge">
<title>startChecking&#45;&gt;sevenChecked</title>
<path fill="none" stroke="black" d="M68.27,-1729.23C68.78,-1696.58 69.93,-1624.24 70.56,-1584.48"/>
<polygon fill="black" stroke="black" points="74.08,-1584.79 70.73,-1574.73 67.08,-1584.68 74.08,-1584.79"/>
<polygon fill="none" stroke="black" points="74,-1691 74,-1708 333,-1708 333,-1691 74,-1691"/>
<text text-anchor="start" x="167" y="-1698" font-family="Courier New" font-weight="bold" font-size="10.00" fill="blue">Z_EPSILON(,)</text>
<polygon fill="none" stroke="black" points="74,-1595 74,-1689 333,-1689 333,-1595 74,-1595"/>
<text text-anchor="start" x="77" y="-1678" font-family="Courier New" font-size="10.00" fill="blue"> &#160;&#160;&#160;REF_MACHINE(0,S27_MEMSTONE7);</text>
<text text-anchor="start" x="77" y="-1667" font-family="Courier New" font-size="10.00" fill="blue"> &#160;&#160;&#160;MOV(WTEMP1,R_BPARM);</text>
<text text-anchor="start" x="77" y="-1656" font-family="Courier New" font-size="10.00" fill="blue"> &#160;&#160;&#160;&#160;if (R_WPARM &gt; 0) { </text>
<text text-anchor="start" x="77" y="-1645" font-family="Courier New" font-size="10.00" fill="blue"> &#160;&#160;&#160;&#160;&#160;&#160;&#160;REF_MACHINE(0,S28_DISK7);</text>
<text text-anchor="start" x="77" y="-1634" font-family="Courier New" font-size="10.00" fill="blue"> &#160;&#160;&#160;&#160;&#160;&#160;&#160;MOV(WTEMP2,R_BPARM);</text>
<text text-anchor="start" x="77" y="-1623" font-family="Courier New" font-size="10.00" fill="blue"> &#160;&#160;&#160;&#160;&#160;&#160;&#160;&#160;&#160;&#160;&#160;&#160;if (WTEMP1 == (WTEMP2 &#45; 1)) {</text>
<text text-anchor="start" x="77" y="-1612" font-family="Courier New" font-size="10.00" fill="blue"> &#160;&#160;&#160;&#160;&#160;&#160;&#160;&#160;&#160;&#160;&#160;&#160;&#160;&#160;&#160;ADD(WPARM,1);</text>
<text text-anchor="start" x="77" y="-1601" font-family="Courier New" font-size="10.00" fill="blue"> &#160;&#160;&#160;&#160;&#160;&#160;&#160;&#160;&#160;&#160;&#160;}}</text>
<polygon fill="none" stroke="black" points="71,-1592 71,-1711 336,-1711 336,-1592 71,-1592"/>
</g>
<!-- allowEntry -->
<g id="node4" class="node">
<title>allowEntry</title>
<polyline fill="none" stroke="darkred" stroke-width="3" points="448,-10.5 538,-10.5"/>
<text text-anchor="start" x="451.5" y="-18.8" font-family="Courier New" font-weight="bold" font-size="14.00">allowEntry</text>
<path fill="none" stroke="darkred" stroke-width="3" d="M453.67,-5.5C453.67,-5.5 532.33,-5.5 532.33,-5.5 537.67,-5.5 543,-10.83 543,-16.17 543,-16.17 543,-26.83 543,-26.83 543,-32.17 537.67,-37.5 532.33,-37.5 532.33,-37.5 453.67,-37.5 453.67,-37.5 448.33,-37.5 443,-32.17 443,-26.83 443,-26.83 443,-16.17 443,-16.17 443,-10.83 448.33,-5.5 453.67,-5.5"/>
</g>
<!-- allowEntry&#45;&gt;0 -->
<g id="edge2" class="edge">
<title>allowEntry&#45;&gt;0</title>
<path fill="none" stroke="black" d="M552.4,-36.32C565.25,-41.97 577.51,-49.89 586,-61 615.92,-100.16 600,-121.72 600,-171 600,-1748 600,-1748 600,-1748 600,-1820.9 546.63,-1893.38 514.58,-1930.33"/>
<polygon fill="black" stroke="black" points="512.34,-1927.71 508.32,-1937.51 517.57,-1932.36 512.34,-1927.71"/>
<polygon fill="none" stroke="black" points="603,-888.5 603,-905.5 766,-905.5 766,-888.5 603,-888.5"/>
<text text-anchor="start" x="660" y="-895.5" font-family="Courier New" font-weight="bold" font-size="10.00" fill="orange">CLICK(,)</text>
<polygon fill="none" stroke="black" points="603,-869.5 603,-886.5 766,-886.5 766,-869.5 603,-869.5"/>
<text text-anchor="start" x="606" y="-875.5" font-family="Courier New" font-size="10.00" fill="blue"> &#160;&#160;&#160;LOADVIEW(IDV_KAMIOZA);</text>
<polygon fill="none" stroke="black" points="600,-866.5 600,-908.5 769,-908.5 769,-866.5 600,-866.5"/>
</g>
<!-- fiveChecked -->
<g id="node5" class="node">
<title>fiveChecked</title>
<polyline fill="none" stroke="darkred" points="89.5,-1163.5 186.5,-1163.5"/>
<text text-anchor="start" x="92.5" y="-1171.3" font-family="Courier New" font-weight="bold" font-size="14.00">fiveChecked</text>
<path fill="none" stroke="darkred" d="M95.5,-1160.5C95.5,-1160.5 180.5,-1160.5 180.5,-1160.5 185,-1160.5 189.5,-1165 189.5,-1169.5 189.5,-1169.5 189.5,-1178.5 189.5,-1178.5 189.5,-1183 185,-1187.5 180.5,-1187.5 180.5,-1187.5 95.5,-1187.5 95.5,-1187.5 91,-1187.5 86.5,-1183 86.5,-1178.5 86.5,-1178.5 86.5,-1169.5 86.5,-1169.5 86.5,-1165 91,-1160.5 95.5,-1160.5"/>
</g>
<!-- fourChecked -->
<g id="node6" class="node">
<title>fourChecked</title>
<polyline fill="none" stroke="darkred" points="161.5,-972.5 258.5,-972.5"/>
<text text-anchor="start" x="164.5" y="-980.3" font-family="Courier New" font-weight="bold" font-size="14.00">fourChecked</text>
<path fill="none" stroke="darkred" d="M167.5,-969.5C167.5,-969.5 252.5,-969.5 252.5,-969.5 257,-969.5 261.5,-974 261.5,-978.5 261.5,-978.5 261.5,-987.5 261.5,-987.5 261.5,-992 257,-996.5 252.5,-996.5 252.5,-996.5 167.5,-996.5 167.5,-996.5 163,-996.5 158.5,-992 158.5,-987.5 158.5,-987.5 158.5,-978.5 158.5,-978.5 158.5,-974 163,-969.5 167.5,-969.5"/>
</g>
<!-- fiveChecked&#45;&gt;fourChecked -->
<g id="edge3" class="edge">
<title>fiveChecked&#45;&gt;fourChecked</title>
<path fill="none" stroke="black" d="M144.39,-1156.23C156.88,-1123.44 184.62,-1050.62 199.72,-1010.97"/>
<polygon fill="black" stroke="black" points="203.34,-1012.33 203.62,-1001.73 196.79,-1009.83 203.34,-1012.33"/>
<polygon fill="none" stroke="black" points="200,-1118 200,-1135 459,-1135 459,-1118 200,-1118"/>
<text text-anchor="start" x="293" y="-1125" font-family="Courier New" font-weight="bold" font-size="10.00" fill="blue">Z_EPSILON(,)</text>
<polygon fill="none" stroke="black" points="200,-1022 200,-1116 459,-1116 459,-1022 200,-1022"/>
<text text-anchor="start" x="203" y="-1105" font-family="Courier New" font-size="10.00" fill="blue"> &#160;&#160;&#160;REF_MACHINE(0,S27_MEMSTONE4);</text>
<text text-anchor="start" x="203" y="-1094" font-family="Courier New" font-size="10.00" fill="blue"> &#160;&#160;&#160;MOV(WTEMP1,R_BPARM);</text>
<text text-anchor="start" x="203" y="-1083" font-family="Courier New" font-size="10.00" fill="blue"> &#160;&#160;&#160;&#160;if (R_WPARM &gt; 0) { </text>
<text text-anchor="start" x="203" y="-1072" font-family="Courier New" font-size="10.00" fill="blue"> &#160;&#160;&#160;&#160;&#160;&#160;&#160;REF_MACHINE(0,S28_DISK4);</text>
<text text-anchor="start" x="203" y="-1061" font-family="Courier New" font-size="10.00" fill="blue"> &#160;&#160;&#160;&#160;&#160;&#160;&#160;MOV(WTEMP2,R_BPARM);</text>
<text text-anchor="start" x="203" y="-1050" font-family="Courier New" font-size="10.00" fill="blue"> &#160;&#160;&#160;&#160;&#160;&#160;&#160;&#160;&#160;&#160;&#160;&#160;if (WTEMP1 == (WTEMP2 &#45; 1)) {</text>
<text text-anchor="start" x="203" y="-1039" font-family="Courier New" font-size="10.00" fill="blue"> &#160;&#160;&#160;&#160;&#160;&#160;&#160;&#160;&#160;&#160;&#160;&#160;&#160;&#160;&#160;ADD(WPARM,1);</text>
<text text-anchor="start" x="203" y="-1028" font-family="Courier New" font-size="10.00" fill="blue"> &#160;&#160;&#160;&#160;&#160;&#160;&#160;&#160;&#160;&#160;&#160;}}</text>
<polygon fill="none" stroke="black" points="197,-1019 197,-1138 462,-1138 462,-1019 197,-1019"/>
</g>
<!-- threeChecked -->
<g id="node7" class="node">
<title>threeChecked</title>
<polyline fill="none" stroke="darkred" points="158,-781.5 264,-781.5"/>
<text text-anchor="start" x="161" y="-789.3" font-family="Courier New" font-weight="bold" font-size="14.00">threeChecked</text>
<path fill="none" stroke="darkred" d="M164,-778.5C164,-778.5 258,-778.5 258,-778.5 262.5,-778.5 267,-783 267,-787.5 267,-787.5 267,-796.5 267,-796.5 267,-801 262.5,-805.5 258,-805.5 258,-805.5 164,-805.5 164,-805.5 159.5,-805.5 155,-801 155,-796.5 155,-796.5 155,-787.5 155,-787.5 155,-783 159.5,-778.5 164,-778.5"/>
</g>
<!-- fourChecked&#45;&gt;threeChecked -->
<g id="edge4" class="edge">
<title>fourChecked&#45;&gt;threeChecked</title>
<path fill="none" stroke="black" d="M210.09,-965.23C210.26,-932.58 210.64,-860.24 210.85,-820.48"/>
<polygon fill="black" stroke="black" points="214.36,-820.75 210.91,-810.73 207.36,-820.72 214.36,-820.75"/>
<polygon fill="none" stroke="black" points="214,-927 214,-944 473,-944 473,-927 214,-927"/>
<text text-anchor="start" x="307" y="-934" font-family="Courier New" font-weight="bold" font-size="10.00" fill="blue">Z_EPSILON(,)</text>
<polygon fill="none" stroke="black" points="214,-831 214,-925 473,-925 473,-831 214,-831"/>
<text text-anchor="start" x="217" y="-914" font-family="Courier New" font-size="10.00" fill="blue"> &#160;&#160;&#160;REF_MACHINE(0,S27_MEMSTONE3);</text>
<text text-anchor="start" x="217" y="-903" font-family="Courier New" font-size="10.00" fill="blue"> &#160;&#160;&#160;MOV(WTEMP1,R_BPARM);</text>
<text text-anchor="start" x="217" y="-892" font-family="Courier New" font-size="10.00" fill="blue"> &#160;&#160;&#160;&#160;if (R_WPARM &gt; 0) { </text>
<text text-anchor="start" x="217" y="-881" font-family="Courier New" font-size="10.00" fill="blue"> &#160;&#160;&#160;&#160;&#160;&#160;&#160;REF_MACHINE(0,S28_DISK3);</text>
<text text-anchor="start" x="217" y="-870" font-family="Courier New" font-size="10.00" fill="blue"> &#160;&#160;&#160;&#160;&#160;&#160;&#160;MOV(WTEMP2,R_BPARM);</text>
<text text-anchor="start" x="217" y="-859" font-family="Courier New" font-size="10.00" fill="blue"> &#160;&#160;&#160;&#160;&#160;&#160;&#160;&#160;&#160;&#160;&#160;&#160;if (WTEMP1 == (WTEMP2 &#45; 1)) {</text>
<text text-anchor="start" x="217" y="-848" font-family="Courier New" font-size="10.00" fill="blue"> &#160;&#160;&#160;&#160;&#160;&#160;&#160;&#160;&#160;&#160;&#160;&#160;&#160;&#160;&#160;ADD(WPARM,1);</text>
<text text-anchor="start" x="217" y="-837" font-family="Courier New" font-size="10.00" fill="blue"> &#160;&#160;&#160;&#160;&#160;&#160;&#160;&#160;&#160;&#160;&#160;}}</text>
<polygon fill="none" stroke="black" points="211,-828 211,-947 476,-947 476,-828 211,-828"/>
</g>
<!-- twoChecked -->
<g id="node13" class="node">
<title>twoChecked</title>
<polyline fill="none" stroke="darkred" points="170.5,-590.5 259.5,-590.5"/>
<text text-anchor="start" x="173.5" y="-598.3" font-family="Courier New" font-weight="bold" font-size="14.00">twoChecked</text>
<path fill="none" stroke="darkred" d="M176.5,-587.5C176.5,-587.5 253.5,-587.5 253.5,-587.5 258,-587.5 262.5,-592 262.5,-596.5 262.5,-596.5 262.5,-605.5 262.5,-605.5 262.5,-610 258,-614.5 253.5,-614.5 253.5,-614.5 176.5,-614.5 176.5,-614.5 172,-614.5 167.5,-610 167.5,-605.5 167.5,-605.5 167.5,-596.5 167.5,-596.5 167.5,-592 172,-587.5 176.5,-587.5"/>
</g>
<!-- threeChecked&#45;&gt;twoChecked -->
<g id="edge12" class="edge">
<title>threeChecked&#45;&gt;twoChecked</title>
<path fill="none" stroke="black" d="M211.35,-774.23C212.05,-741.58 213.58,-669.24 214.42,-629.48"/>
<polygon fill="black" stroke="black" points="217.93,-629.81 214.65,-619.73 210.93,-629.66 217.93,-629.81"/>
<polygon fill="none" stroke="black" points="218,-736 218,-753 471,-753 471,-736 218,-736"/>
<text text-anchor="start" x="308" y="-743" font-family="Courier New" font-weight="bold" font-size="10.00" fill="blue">Z_EPSILON(,)</text>
<polygon fill="none" stroke="black" points="218,-640 218,-734 471,-734 471,-640 218,-640"/>
<text text-anchor="start" x="221" y="-723" font-family="Courier New" font-size="10.00" fill="blue"> &#160;&#160;&#160;REF_MACHINE(0,S27_MEMSTONE2);</text>
<text text-anchor="start" x="221" y="-712" font-family="Courier New" font-size="10.00" fill="blue"> &#160;&#160;&#160;MOV(WTEMP1,R_BPARM);</text>
<text text-anchor="start" x="221" y="-701" font-family="Courier New" font-size="10.00" fill="blue"> &#160;&#160;&#160;&#160;if (R_WPARM &gt; 0) { </text>
<text text-anchor="start" x="221" y="-690" font-family="Courier New" font-size="10.00" fill="blue"> &#160;&#160;&#160;&#160;&#160;&#160;&#160;REF_MACHINE(0,S28_DISK2);</text>
<text text-anchor="start" x="221" y="-679" font-family="Courier New" font-size="10.00" fill="blue"> &#160;&#160;&#160;&#160;&#160;&#160;&#160;MOV(WTEMP2,R_BPARM);</text>
<text text-anchor="start" x="221" y="-668" font-family="Courier New" font-size="10.00" fill="blue"> &#160;&#160;&#160;&#160;&#160;&#160;&#160;&#160;&#160;&#160;&#160;if (WTEMP1 == (WTEMP2 &#45; 1)) {</text>
<text text-anchor="start" x="221" y="-657" font-family="Courier New" font-size="10.00" fill="blue"> &#160;&#160;&#160;&#160;&#160;&#160;&#160;&#160;&#160;&#160;&#160;&#160;&#160;&#160;&#160;ADD(WPARM,1);</text>
<text text-anchor="start" x="221" y="-646" font-family="Courier New" font-size="10.00" fill="blue"> &#160;&#160;&#160;&#160;&#160;&#160;&#160;&#160;&#160;&#160;&#160;}}</text>
<polygon fill="none" stroke="black" points="215,-637 215,-756 474,-756 474,-637 215,-637"/>
</g>
<!-- oneChecked -->
<g id="node8" class="node">
<title>oneChecked</title>
<polyline fill="none" stroke="darkred" points="311.5,-399.5 400.5,-399.5"/>
<text text-anchor="start" x="314.5" y="-407.3" font-family="Courier New" font-weight="bold" font-size="14.00">oneChecked</text>
<path fill="none" stroke="darkred" d="M317.5,-396.5C317.5,-396.5 394.5,-396.5 394.5,-396.5 399,-396.5 403.5,-401 403.5,-405.5 403.5,-405.5 403.5,-414.5 403.5,-414.5 403.5,-419 399,-423.5 394.5,-423.5 394.5,-423.5 317.5,-423.5 317.5,-423.5 313,-423.5 308.5,-419 308.5,-414.5 308.5,-414.5 308.5,-405.5 308.5,-405.5 308.5,-401 313,-396.5 317.5,-396.5"/>
</g>
<!-- oneChecked&#45;&gt;0 -->
<g id="edge6" class="edge">
<title>oneChecked&#45;&gt;0</title>
<path fill="none" stroke="black" d="M411.43,-413.56C435.18,-417.65 461.06,-426.69 477,-446 520.74,-499.01 491,-531.27 491,-600 491,-1748 491,-1748 491,-1748 491,-1812.29 491,-1887.78 491,-1927.62"/>
<polygon fill="black" stroke="black" points="487.5,-1927.55 491,-1937.55 494.5,-1927.55 487.5,-1927.55"/>
<text text-anchor="start" x="495" y="-1172.5" font-family="Courier New" font-weight="bold" font-size="10.00" fill="blue">Z_EPSILON(,)</text>
</g>
<!-- success -->
<g id="node9" class="node">
<title>success</title>
<polyline fill="none" stroke="darkred" points="324,-308.5 388,-308.5"/>
<text text-anchor="start" x="327" y="-316.3" font-family="Courier New" font-weight="bold" font-size="14.00">success</text>
<path fill="none" stroke="darkred" d="M330,-305.5C330,-305.5 382,-305.5 382,-305.5 386.5,-305.5 391,-310 391,-314.5 391,-314.5 391,-323.5 391,-323.5 391,-328 386.5,-332.5 382,-332.5 382,-332.5 330,-332.5 330,-332.5 325.5,-332.5 321,-328 321,-323.5 321,-323.5 321,-314.5 321,-314.5 321,-310 325.5,-305.5 330,-305.5"/>
</g>
<!-- oneChecked&#45;&gt;success -->
<g id="edge5" class="edge">
<title>oneChecked&#45;&gt;success</title>
<path fill="none" stroke="black" d="M356,-392.26C356,-379.78 356,-362.46 356,-347.9"/>
<polygon fill="black" stroke="black" points="359.5,-347.97 356,-337.97 352.5,-347.97 359.5,-347.97"/>
<text text-anchor="start" x="360" y="-363" font-family="Courier New" font-weight="bold" font-size="10.00" fill="blue">EQUAL(WPARM,7)</text>
</g>
<!-- showDoors -->
<g id="node12" class="node">
<title>showDoors</title>
<polyline fill="none" stroke="darkred" points="330.5,-161.5 411.5,-161.5"/>
<text text-anchor="start" x="333.5" y="-169.3" font-family="Courier New" font-weight="bold" font-size="14.00">showDoors</text>
<path fill="none" stroke="darkred" d="M336.5,-158.5C336.5,-158.5 405.5,-158.5 405.5,-158.5 410,-158.5 414.5,-163 414.5,-167.5 414.5,-167.5 414.5,-176.5 414.5,-176.5 414.5,-181 410,-185.5 405.5,-185.5 405.5,-185.5 336.5,-185.5 336.5,-185.5 332,-185.5 327.5,-181 327.5,-176.5 327.5,-176.5 327.5,-167.5 327.5,-167.5 327.5,-163 332,-158.5 336.5,-158.5"/>
</g>
<!-- success&#45;&gt;showDoors -->
<g id="edge11" class="edge">
<title>success&#45;&gt;showDoors</title>
<path fill="none" stroke="black" d="M354.23,-301.03C352.4,-279.25 350.6,-240.41 357,-208 357.53,-205.3 358.27,-202.55 359.12,-199.83"/>
<polygon fill="black" stroke="black" points="362.68,-201.3 362.85,-190.7 356.11,-198.88 362.68,-201.3"/>
<polygon fill="none" stroke="black" points="360,-263 360,-280 583,-280 583,-263 360,-263"/>
<text text-anchor="start" x="432" y="-270" font-family="Courier New" font-weight="bold" font-size="10.00" fill="blue">Z_EPSILON(0,)</text>
<polygon fill="none" stroke="black" points="360,-211 360,-261 583,-261 583,-211 360,-211"/>
<text text-anchor="start" x="363" y="-250" font-family="Courier New" font-size="10.00" fill="blue"> &#160;&#160;&#160;PLAYWAVE(SOUND_CHIMES);</text>
<text text-anchor="start" x="363" y="-239" font-family="Courier New" font-size="10.00" fill="blue"> &#160;&#160;&#160;SHOW(IDS_KAMDOOR);</text>
<text text-anchor="start" x="363" y="-228" font-family="Courier New" font-size="10.00" fill="blue"> &#160;&#160;&#160;ANIMATE();</text>
<text text-anchor="start" x="363" y="-217" font-family="Courier New" font-size="10.00" fill="blue"> &#160;&#160;&#160;//show alt views and allow entry</text>
<polygon fill="none" stroke="black" points="357,-208 357,-283 586,-283 586,-208 357,-208"/>
</g>
<!-- sixChecked -->
<g id="node11" class="node">
<title>sixChecked</title>
<polyline fill="none" stroke="darkred" points="39.5,-1354.5 128.5,-1354.5"/>
<text text-anchor="start" x="42.5" y="-1362.3" font-family="Courier New" font-weight="bold" font-size="14.00">sixChecked</text>
<path fill="none" stroke="darkred" d="M45.5,-1351.5C45.5,-1351.5 122.5,-1351.5 122.5,-1351.5 127,-1351.5 131.5,-1356 131.5,-1360.5 131.5,-1360.5 131.5,-1369.5 131.5,-1369.5 131.5,-1374 127,-1378.5 122.5,-1378.5 122.5,-1378.5 45.5,-1378.5 45.5,-1378.5 41,-1378.5 36.5,-1374 36.5,-1369.5 36.5,-1369.5 36.5,-1360.5 36.5,-1360.5 36.5,-1356 41,-1351.5 45.5,-1351.5"/>
</g>
<!-- sevenChecked&#45;&gt;sixChecked -->
<g id="edge7" class="edge">
<title>sevenChecked&#45;&gt;sixChecked</title>
<path fill="none" stroke="black" d="M72.15,-1538.23C74.4,-1505.58 79.38,-1433.24 82.11,-1393.48"/>
<polygon fill="black" stroke="black" points="85.65,-1393.95 82.85,-1383.73 78.67,-1393.47 85.65,-1393.95"/>
<polygon fill="none" stroke="black" points="85,-1500 85,-1517 344,-1517 344,-1500 85,-1500"/>
<text text-anchor="start" x="178" y="-1507" font-family="Courier New" font-weight="bold" font-size="10.00" fill="blue">Z_EPSILON(,)</text>
<polygon fill="none" stroke="black" points="85,-1404 85,-1498 344,-1498 344,-1404 85,-1404"/>
<text text-anchor="start" x="88" y="-1487" font-family="Courier New" font-size="10.00" fill="blue"> &#160;&#160;&#160;REF_MACHINE(0,S27_MEMSTONE6);</text>
<text text-anchor="start" x="88" y="-1476" font-family="Courier New" font-size="10.00" fill="blue"> &#160;&#160;&#160;MOV(WTEMP1,R_BPARM);</text>
<text text-anchor="start" x="88" y="-1465" font-family="Courier New" font-size="10.00" fill="blue"> &#160;&#160;&#160;&#160;if (R_WPARM &gt; 0) { </text>
<text text-anchor="start" x="88" y="-1454" font-family="Courier New" font-size="10.00" fill="blue"> &#160;&#160;&#160;&#160;&#160;&#160;&#160;REF_MACHINE(0,S28_DISK6);</text>
<text text-anchor="start" x="88" y="-1443" font-family="Courier New" font-size="10.00" fill="blue"> &#160;&#160;&#160;&#160;&#160;&#160;&#160;MOV(WTEMP2,R_BPARM);</text>
<text text-anchor="start" x="88" y="-1432" font-family="Courier New" font-size="10.00" fill="blue"> &#160;&#160;&#160;&#160;&#160;&#160;&#160;&#160;&#160;&#160;&#160;&#160;if (WTEMP1 == (WTEMP2 &#45; 1)) {</text>
<text text-anchor="start" x="88" y="-1421" font-family="Courier New" font-size="10.00" fill="blue"> &#160;&#160;&#160;&#160;&#160;&#160;&#160;&#160;&#160;&#160;&#160;&#160;&#160;&#160;&#160;ADD(WPARM,1);</text>
<text text-anchor="start" x="88" y="-1410" font-family="Courier New" font-size="10.00" fill="blue"> &#160;&#160;&#160;&#160;&#160;&#160;&#160;&#160;&#160;&#160;&#160;}}</text>
<polygon fill="none" stroke="black" points="82,-1401 82,-1520 347,-1520 347,-1401 82,-1401"/>
</g>
<!-- sixChecked&#45;&gt;fiveChecked -->
<g id="edge9" class="edge">
<title>sixChecked&#45;&gt;fiveChecked</title>
<path fill="none" stroke="black" d="M88.79,-1347.23C98.14,-1314.51 118.88,-1241.93 130.22,-1202.23"/>
<polygon fill="black" stroke="black" points="133.84,-1203.31 133.22,-1192.73 127.11,-1201.39 133.84,-1203.31"/>
<polygon fill="none" stroke="black" points="131,-1309 131,-1326 390,-1326 390,-1309 131,-1309"/>
<text text-anchor="start" x="224" y="-1316" font-family="Courier New" font-weight="bold" font-size="10.00" fill="blue">Z_EPSILON(,)</text>
<polygon fill="none" stroke="black" points="131,-1213 131,-1307 390,-1307 390,-1213 131,-1213"/>
<text text-anchor="start" x="134" y="-1296" font-family="Courier New" font-size="10.00" fill="blue"> &#160;&#160;&#160;REF_MACHINE(0,S27_MEMSTONE5);</text>
<text text-anchor="start" x="134" y="-1285" font-family="Courier New" font-size="10.00" fill="blue"> &#160;&#160;&#160;MOV(WTEMP1,R_BPARM);</text>
<text text-anchor="start" x="134" y="-1274" font-family="Courier New" font-size="10.00" fill="blue"> &#160;&#160;&#160;&#160;if (R_WPARM &gt; 0) { </text>
<text text-anchor="start" x="134" y="-1263" font-family="Courier New" font-size="10.00" fill="blue"> &#160;&#160;&#160;&#160;&#160;&#160;&#160;REF_MACHINE(0,S28_DISK5);</text>
<text text-anchor="start" x="134" y="-1252" font-family="Courier New" font-size="10.00" fill="blue"> &#160;&#160;&#160;&#160;&#160;&#160;&#160;MOV(WTEMP2,R_BPARM);</text>
<text text-anchor="start" x="134" y="-1241" font-family="Courier New" font-size="10.00" fill="blue"> &#160;&#160;&#160;&#160;&#160;&#160;&#160;&#160;&#160;&#160;&#160;&#160;if (WTEMP1 == (WTEMP2 &#45; 1)) {</text>
<text text-anchor="start" x="134" y="-1230" font-family="Courier New" font-size="10.00" fill="blue"> &#160;&#160;&#160;&#160;&#160;&#160;&#160;&#160;&#160;&#160;&#160;&#160;&#160;&#160;&#160;ADD(WPARM,1);</text>
<text text-anchor="start" x="134" y="-1219" font-family="Courier New" font-size="10.00" fill="blue"> &#160;&#160;&#160;&#160;&#160;&#160;&#160;&#160;&#160;&#160;&#160;}}</text>
<polygon fill="none" stroke="black" points="128,-1210 128,-1329 393,-1329 393,-1210 128,-1210"/>
</g>
<!-- showDoors&#45;&gt;allowEntry -->
<g id="edge8" class="edge">
<title>showDoors&#45;&gt;allowEntry</title>
<path fill="none" stroke="black" d="M374.22,-154.1C379.47,-130.62 391.91,-87.98 417,-61 421.26,-56.42 426.18,-52.3 431.44,-48.62"/>
<polygon fill="black" stroke="black" points="432.98,-51.15 439.53,-42.83 429.22,-45.25 432.98,-51.15"/>
<polygon fill="none" stroke="black" points="420,-116 420,-133 583,-133 583,-116 420,-116"/>
<text text-anchor="start" x="465" y="-123" font-family="Courier New" font-weight="bold" font-size="10.00" fill="blue">Z_EPSILON(,)</text>
<polygon fill="none" stroke="black" points="420,-64 420,-114 583,-114 583,-64 420,-64"/>
<text text-anchor="start" x="423" y="-103" font-family="Courier New" font-size="10.00" fill="blue"> &#160;&#160;&#160;SIGNAL(WIP1,SIG_SHOW);</text>
<text text-anchor="start" x="423" y="-92" font-family="Courier New" font-size="10.00" fill="blue"> &#160;&#160;&#160;SIGNAL(WIP2,SIG_SHOW);</text>
<text text-anchor="start" x="423" y="-81" font-family="Courier New" font-size="10.00" fill="blue"> &#160;&#160;&#160;SIGNAL(WIP3,SIG_SHOW);</text>
<text text-anchor="start" x="423" y="-70" font-family="Courier New" font-size="10.00" fill="blue"> &#160;&#160;&#160;SIGNAL(WIP4,SIG_SHOW);</text>
<polygon fill="none" stroke="black" points="417,-61 417,-136 586,-136 586,-61 417,-61"/>
</g>
<!-- twoChecked&#45;&gt;oneChecked -->
<g id="edge13" class="edge">
<title>twoChecked&#45;&gt;oneChecked</title>
<path fill="none" stroke="black" d="M209.48,-583.48C200.35,-552.73 186.08,-486.21 218,-446 227.38,-434.18 259.21,-425.67 289.94,-420.01"/>
<polygon fill="black" stroke="black" points="290.47,-423.29 299.72,-418.12 289.27,-416.4 290.47,-423.29"/>
<polygon fill="none" stroke="black" points="221,-545 221,-562 474,-562 474,-545 221,-545"/>
<text text-anchor="start" x="311" y="-552" font-family="Courier New" font-weight="bold" font-size="10.00" fill="blue">Z_EPSILON(,)</text>
<polygon fill="none" stroke="black" points="221,-449 221,-543 474,-543 474,-449 221,-449"/>
<text text-anchor="start" x="224" y="-532" font-family="Courier New" font-size="10.00" fill="blue"> &#160;&#160;&#160;REF_MACHINE(0,S27_MEMSTONE1);</text>
<text text-anchor="start" x="224" y="-521" font-family="Courier New" font-size="10.00" fill="blue"> &#160;&#160;&#160;MOV(WTEMP1,R_BPARM);</text>
<text text-anchor="start" x="224" y="-510" font-family="Courier New" font-size="10.00" fill="blue"> &#160;&#160;&#160;&#160;if (R_WPARM &gt; 0) { </text>
<text text-anchor="start" x="224" y="-499" font-family="Courier New" font-size="10.00" fill="blue"> &#160;&#160;&#160;&#160;&#160;&#160;&#160;REF_MACHINE(0,S28_DISK1);</text>
<text text-anchor="start" x="224" y="-488" font-family="Courier New" font-size="10.00" fill="blue"> &#160;&#160;&#160;&#160;&#160;&#160;&#160;MOV(WTEMP2,R_BPARM);</text>
<text text-anchor="start" x="224" y="-477" font-family="Courier New" font-size="10.00" fill="blue"> &#160;&#160;&#160;&#160;&#160;&#160;&#160;&#160;&#160;&#160;&#160;if (WTEMP1 == (WTEMP2 &#45; 1)) {</text>
<text text-anchor="start" x="224" y="-466" font-family="Courier New" font-size="10.00" fill="blue"> &#160;&#160;&#160;&#160;&#160;&#160;&#160;&#160;&#160;&#160;&#160;&#160;&#160;&#160;&#160;ADD(WPARM,1);</text>
<text text-anchor="start" x="224" y="-455" font-family="Courier New" font-size="10.00" fill="blue"> &#160;&#160;&#160;&#160;&#160;&#160;&#160;&#160;&#160;&#160;&#160;}}</text>
<polygon fill="none" stroke="black" points="218,-446 218,-565 477,-565 477,-446 218,-446"/>
</g>
<!-- status -->
<g id="node14" class="node">
<title>status</title>
<polygon fill="none" stroke="black" points="536.5,-1920.5 536.5,-1992.5 1159.5,-1992.5 1159.5,-1920.5 536.5,-1920.5"/>
<polygon fill="none" stroke="black" points="547.5,-1968.5 547.5,-1985.5 1148.5,-1985.5 1148.5,-1968.5 547.5,-1968.5"/>
<text text-anchor="start" x="814.5" y="-1975.5" font-family="Courier New" font-weight="bold" font-size="10.00">S28_KAMDOOR</text>
<polygon fill="none" stroke="black" points="547.5,-1927.5 547.5,-1966.5 1148.5,-1966.5 1148.5,-1927.5 547.5,-1927.5"/>
<text text-anchor="start" x="550.5" y="-1955.5" font-family="Courier New" font-size="10.00" fill="green">VIEW::IDV_MOON5 @pos(left:1491, top:120)</text>
<text text-anchor="start" x="550.5" y="-1944.5" font-family="Courier New" font-size="10.00" fill="green">S28_KAMDOOR::M_KAMDOOR(&#39;S28_KAMDOOR_alt1&#39;,&#39;S28_KAMDOOR_alt2&#39;,&#39;S28_KAMDOOR_alt3&#39;,&#39;S28_KAMDOOR_alt4&#39;)</text>
<text text-anchor="start" x="550.5" y="-1933.5" font-family="Courier New" font-size="10.00" fill="green">{&#39;allowEntry&#39;: wParm:7 bFrame:6</text>
<polygon fill="none" stroke="black" points="544.5,-1924.5 544.5,-1988.5 1151.5,-1988.5 1151.5,-1924.5 544.5,-1924.5"/>
</g>
</g>
</svg>
