<?xml version="1.0" encoding="UTF-8" standalone="no"?>
<!DOCTYPE svg PUBLIC "-//W3C//DTD SVG 1.1//EN"
 "http://www.w3.org/Graphics/SVG/1.1/DTD/svg11.dtd">
<!-- Generated by graphviz version 8.0.1 (20230327.1645)
 -->
<!-- Title: Automaton Pages: 1 -->
<svg width="776pt" height="379pt"
 viewBox="0.00 0.00 775.50 379.00" xmlns="http://www.w3.org/2000/svg" xmlns:xlink="http://www.w3.org/1999/xlink">
<g id="graph0" class="graph" transform="scale(1 1) rotate(0) translate(4 375)">
<title>Automaton</title>
<polygon fill="white" stroke="none" points="-4,4 -4,-375 771.5,-375 771.5,4 -4,4"/>
<!-- filename -->
<g id="node1" class="node">
<title>filename</title>
<polygon fill="none" stroke="black" points="0,-315 0,-365 155,-365 155,-315 0,-315"/>
<polygon fill="none" stroke="black" points="11,-341 11,-358 144,-358 144,-341 11,-341"/>
<text text-anchor="start" x="14" y="-348" font-family="Courier New" font-weight="bold" font-size="10.00">S28_DISK3::M_DISKSPIN</text>
<polygon fill="none" stroke="black" points="11,-322 11,-339 144,-339 144,-322 11,-322"/>
<text text-anchor="start" x="32" y="-328" font-family="Courier New" font-size="10.00" fill="brown">start state = 0</text>
<polygon fill="none" stroke="black" points="8,-319 8,-361 147,-361 147,-319 8,-319"/>
</g>
<!-- 0 -->
<g id="node2" class="node">
<title>0</title>
<polyline fill="none" stroke="darkred" points="193,-329.5 208,-329.5"/>
<text text-anchor="start" x="196" y="-337.3" font-family="Courier New" font-weight="bold" font-size="14.00">0</text>
<path fill="none" stroke="darkred" d="M197,-326.5C197,-326.5 204,-326.5 204,-326.5 207.5,-326.5 211,-330 211,-333.5 211,-333.5 211,-346.5 211,-346.5 211,-350 207.5,-353.5 204,-353.5 204,-353.5 197,-353.5 197,-353.5 193.5,-353.5 190,-350 190,-346.5 190,-346.5 190,-333.5 190,-333.5 190,-330 193.5,-326.5 197,-326.5"/>
</g>
<!-- 5 -->
<g id="node3" class="node">
<title>5</title>
<polyline fill="none" stroke="darkred" points="120,-222.5 135,-222.5"/>
<text text-anchor="start" x="123" y="-230.3" font-family="Courier New" font-weight="bold" font-size="14.00">5</text>
<path fill="none" stroke="darkred" d="M124,-219.5C124,-219.5 131,-219.5 131,-219.5 134.5,-219.5 138,-223 138,-226.5 138,-226.5 138,-239.5 138,-239.5 138,-243 134.5,-246.5 131,-246.5 131,-246.5 124,-246.5 124,-246.5 120.5,-246.5 117,-243 117,-239.5 117,-239.5 117,-226.5 117,-226.5 117,-223 120.5,-219.5 124,-219.5"/>
</g>
<!-- 0&#45;&gt;5 -->
<g id="edge1" class="edge">
<title>0&#45;&gt;5</title>
<path fill="none" stroke="black" d="M182.49,-322.3C173.67,-313.53 163.29,-302.28 155.5,-291 149.03,-281.64 143.23,-270.57 138.61,-260.69"/>
<polygon fill="black" stroke="black" points="141.52,-259.63 134.24,-251.94 135.13,-262.49 141.52,-259.63"/>
<text text-anchor="start" x="159.5" y="-280" font-family="Courier New" font-weight="bold" font-size="10.00" fill="blue">MOV(BFRAME,0)</text>
</g>
<!-- 10 -->
<g id="node4" class="node">
<title>10</title>
<polyline fill="none" stroke="darkred" points="176,-128.5 199,-128.5"/>
<text text-anchor="start" x="179" y="-136.3" font-family="Courier New" font-weight="bold" font-size="14.00">10</text>
<path fill="none" stroke="darkred" d="M182,-125.5C182,-125.5 193,-125.5 193,-125.5 197.5,-125.5 202,-130 202,-134.5 202,-134.5 202,-143.5 202,-143.5 202,-148 197.5,-152.5 193,-152.5 193,-152.5 182,-152.5 182,-152.5 177.5,-152.5 173,-148 173,-143.5 173,-143.5 173,-134.5 173,-134.5 173,-130 177.5,-125.5 182,-125.5"/>
</g>
<!-- 5&#45;&gt;10 -->
<g id="edge5" class="edge">
<title>5&#45;&gt;10</title>
<path fill="none" stroke="black" d="M119.67,-215.11C115.33,-203.1 112.16,-187.03 119.5,-175 126.52,-163.49 138.68,-155.6 150.78,-150.28"/>
<polygon fill="black" stroke="black" points="151.77,-153.26 159.83,-146.38 149.24,-146.73 151.77,-153.26"/>
<text text-anchor="start" x="123.5" y="-183" font-family="Courier New" font-weight="bold" font-size="10.00" fill="blue">SHOW(,IDS_MOONSPIN)</text>
</g>
<!-- 10&#45;&gt;0 -->
<g id="edge3" class="edge">
<title>10&#45;&gt;0</title>
<path fill="none" stroke="black" d="M214.34,-150.22C225.11,-155.8 236.4,-163.89 242.5,-175 267.31,-220.19 260.63,-242.74 242.5,-291 239.25,-299.64 233.67,-307.75 227.61,-314.75"/>
<polygon fill="black" stroke="black" points="225.69,-311.74 221.39,-321.42 230.79,-316.53 225.69,-311.74"/>
<polygon fill="none" stroke="black" points="261.5,-234 261.5,-251 352.5,-251 352.5,-234 261.5,-234"/>
<text text-anchor="start" x="270.5" y="-241" font-family="Courier New" font-weight="bold" font-size="10.00" fill="blue">Z_EPSILON(,)</text>
<polygon fill="none" stroke="black" points="261.5,-215 261.5,-232 352.5,-232 352.5,-215 261.5,-215"/>
<text text-anchor="start" x="264.5" y="-221" font-family="Courier New" font-size="10.00" fill="blue">ADD(BFRAME,1);</text>
<polygon fill="none" stroke="black" points="258.5,-212 258.5,-254 355.5,-254 355.5,-212 258.5,-212"/>
</g>
<!-- 20 -->
<g id="node5" class="node">
<title>20</title>
<polyline fill="none" stroke="darkred" stroke-width="3" points="175.5,-10.5 199.5,-10.5"/>
<text text-anchor="start" x="179" y="-18.8" font-family="Courier New" font-weight="bold" font-size="14.00">20</text>
<path fill="none" stroke="darkred" stroke-width="3" d="M181.17,-5.5C181.17,-5.5 193.83,-5.5 193.83,-5.5 199.17,-5.5 204.5,-10.83 204.5,-16.17 204.5,-16.17 204.5,-26.83 204.5,-26.83 204.5,-32.17 199.17,-37.5 193.83,-37.5 193.83,-37.5 181.17,-37.5 181.17,-37.5 175.83,-37.5 170.5,-32.17 170.5,-26.83 170.5,-26.83 170.5,-16.17 170.5,-16.17 170.5,-10.83 175.83,-5.5 181.17,-5.5"/>
</g>
<!-- 10&#45;&gt;20 -->
<g id="edge2" class="edge">
<title>10&#45;&gt;20</title>
<path fill="none" stroke="black" d="M160.57,-127.37C150.16,-121.78 139.37,-113.8 133.5,-103 124.59,-86.6 124.95,-77.59 133.5,-61 137.67,-52.91 144.41,-46.14 151.74,-40.65"/>
<polygon fill="black" stroke="black" points="153.14,-43.27 159.5,-34.8 149.24,-37.45 153.14,-43.27"/>
<text text-anchor="start" x="137.5" y="-80.5" font-family="Courier New" font-weight="bold" font-size="10.00" fill="blue">LTE(BFRAME,7)</text>
</g>
<!-- 20&#45;&gt;10 -->
<g id="edge4" class="edge">
<title>20&#45;&gt;10</title>
<path fill="none" stroke="black" d="M209.38,-42.7C213.92,-48.16 218.06,-54.39 220.5,-61 226.98,-78.51 227.39,-85.65 220.5,-103 219.17,-106.34 217.36,-109.54 215.27,-112.56"/>
<polygon fill="black" stroke="black" points="211.96,-110.08 208.32,-120.03 217.37,-114.52 211.96,-110.08"/>
<polygon fill="none" stroke="black" points="229.5,-83 229.5,-100 764.5,-100 764.5,-83 229.5,-83"/>
<text text-anchor="start" x="472.5" y="-90" font-family="Courier New" font-weight="bold" font-size="10.00" fill="orange">CLICK(,)</text>
<polygon fill="none" stroke="black" points="229.5,-64 229.5,-81 764.5,-81 764.5,-64 229.5,-64"/>
<text text-anchor="start" x="232.5" y="-70" font-family="Courier New" font-size="10.00" fill="blue">PLAYWAVE(SOUND_STONERUB);ADD(BFRAME,1);MOV(BPARM,BFRAME);SIGNALi(SIG_CHECK,S28_KAMDOOR);</text>
<polygon fill="none" stroke="black" points="226.5,-61 226.5,-103 767.5,-103 767.5,-61 226.5,-61"/>
</g>
<!-- status -->
<g id="node6" class="node">
<title>status</title>
<polygon fill="none" stroke="black" points="246,-309.5 246,-370.5 557,-370.5 557,-309.5 246,-309.5"/>
<polygon fill="none" stroke="black" points="257,-346.5 257,-363.5 546,-363.5 546,-346.5 257,-346.5"/>
<text text-anchor="start" x="374" y="-353.5" font-family="Courier New" font-weight="bold" font-size="10.00">S28_DISK3</text>
<polygon fill="none" stroke="black" points="257,-316.5 257,-344.5 546,-344.5 546,-316.5 257,-316.5"/>
<text text-anchor="start" x="260" y="-333.5" font-family="Courier New" font-size="10.00" fill="green">S28_DISK3::M_DISKSPIN(&#39;S27_MEMSTONE3&#39;,&#39;&#39;,&#39;&#39;,&#39;&#39;)</text>
<text text-anchor="start" x="260" y="-322.5" font-family="Courier New" font-size="10.00" fill="green">{&#39;20&#39;: bParm:4 wSprite:moonspin bFrame:4}</text>
<polygon fill="none" stroke="black" points="254,-313.5 254,-366.5 549,-366.5 549,-313.5 254,-313.5"/>
</g>
</g>
</svg>
