<?xml version="1.0" encoding="UTF-8" standalone="no"?>
<!DOCTYPE svg PUBLIC "-//W3C//DTD SVG 1.1//EN"
 "http://www.w3.org/Graphics/SVG/1.1/DTD/svg11.dtd">
<!-- Generated by graphviz version 8.0.1 (20230327.1645)
 -->
<!-- Title: Automaton Pages: 1 -->
<svg width="703pt" height="320pt"
 viewBox="0.00 0.00 703.00 320.00" xmlns="http://www.w3.org/2000/svg" xmlns:xlink="http://www.w3.org/1999/xlink">
<g id="graph0" class="graph" transform="scale(1 1) rotate(0) translate(4 316)">
<title>Automaton</title>
<polygon fill="white" stroke="none" points="-4,4 -4,-316 699,-316 699,4 -4,4"/>
<!-- filename -->
<g id="node1" class="node">
<title>filename</title>
<polygon fill="none" stroke="black" points="0,-250.5 0,-300.5 215,-300.5 215,-250.5 0,-250.5"/>
<polygon fill="none" stroke="black" points="11,-276.5 11,-293.5 204,-293.5 204,-276.5 11,-276.5"/>
<text text-anchor="start" x="14" y="-283.5" font-family="Courier New" font-weight="bold" font-size="10.00">S28_KAMDOOR_alt3::M_KAMDOOR_alt</text>
<polygon fill="none" stroke="black" points="11,-257.5 11,-274.5 204,-274.5 204,-257.5 11,-257.5"/>
<text text-anchor="start" x="62" y="-263.5" font-family="Courier New" font-size="10.00" fill="brown">start state = 0</text>
<polygon fill="none" stroke="black" points="8,-254.5 8,-296.5 207,-296.5 207,-254.5 8,-254.5"/>
</g>
<!-- 0 -->
<g id="node2" class="node">
<title>0</title>
<polyline fill="none" stroke="darkred" stroke-width="3" points="252.5,-264.5 268.5,-264.5"/>
<text text-anchor="start" x="256" y="-272.8" font-family="Courier New" font-weight="bold" font-size="14.00">0</text>
<path fill="none" stroke="darkred" stroke-width="3" d="M256.17,-259.5C256.17,-259.5 264.83,-259.5 264.83,-259.5 269.17,-259.5 273.5,-263.83 273.5,-268.17 273.5,-268.17 273.5,-282.83 273.5,-282.83 273.5,-287.17 269.17,-291.5 264.83,-291.5 264.83,-291.5 256.17,-291.5 256.17,-291.5 251.83,-291.5 247.5,-287.17 247.5,-282.83 247.5,-282.83 247.5,-268.17 247.5,-268.17 247.5,-263.83 251.83,-259.5 256.17,-259.5"/>
</g>
<!-- altViewShown -->
<g id="node3" class="node">
<title>altViewShown</title>
<polyline fill="none" stroke="darkred" points="207.5,-121.5 313.5,-121.5"/>
<text text-anchor="start" x="210.5" y="-129.3" font-family="Courier New" font-weight="bold" font-size="14.00">altViewShown</text>
<path fill="none" stroke="darkred" d="M213.5,-118.5C213.5,-118.5 307.5,-118.5 307.5,-118.5 312,-118.5 316.5,-123 316.5,-127.5 316.5,-127.5 316.5,-136.5 316.5,-136.5 316.5,-141 312,-145.5 307.5,-145.5 307.5,-145.5 213.5,-145.5 213.5,-145.5 209,-145.5 204.5,-141 204.5,-136.5 204.5,-136.5 204.5,-127.5 204.5,-127.5 204.5,-123 209,-118.5 213.5,-118.5"/>
</g>
<!-- 0&#45;&gt;altViewShown -->
<g id="edge1" class="edge">
<title>0&#45;&gt;altViewShown</title>
<path fill="none" stroke="black" d="M240.79,-254.23C235.37,-249.05 229.37,-243.63 223.5,-239 211.89,-229.84 202.59,-233.98 195.5,-221 184.21,-200.33 183.42,-188.22 195.5,-168 198.15,-163.56 201.59,-159.65 205.49,-156.21"/>
<polygon fill="black" stroke="black" points="207.14,-158.59 213.05,-149.8 202.95,-152.99 207.14,-158.59"/>
<polygon fill="none" stroke="black" points="198.5,-201 198.5,-218 301.5,-218 301.5,-201 198.5,-201"/>
<text text-anchor="start" x="204.5" y="-208" font-family="Courier New" font-weight="bold" font-size="10.00" fill="orange">WAIT(,SIG_SHOW)</text>
<polygon fill="none" stroke="black" points="198.5,-171 198.5,-199 301.5,-199 301.5,-171 198.5,-171"/>
<text text-anchor="start" x="201.5" y="-188" font-family="Courier New" font-size="10.00" fill="blue"> &#160;&#160;&#160;&#160;SHOW(WIP1);</text>
<text text-anchor="start" x="201.5" y="-177" font-family="Courier New" font-size="10.00" fill="blue"> &#160;&#160;&#160;&#160;ANIMATE();</text>
<polygon fill="none" stroke="black" points="195.5,-168 195.5,-221 304.5,-221 304.5,-168 195.5,-168"/>
</g>
<!-- altViewShown&#45;&gt;0 -->
<g id="edge3" class="edge">
<title>altViewShown&#45;&gt;0</title>
<path fill="none" stroke="black" d="M289.48,-149.91C295.54,-154.91 301.11,-160.97 304.5,-168 314.73,-189.22 312.45,-198.83 304.5,-221 301.32,-229.87 295.97,-238.32 290.07,-245.78"/>
<polygon fill="black" stroke="black" points="286.83,-243.17 282.99,-253.04 292.15,-247.73 286.83,-243.17"/>
<polygon fill="none" stroke="black" points="314.5,-195.5 314.5,-212.5 411.5,-212.5 411.5,-195.5 314.5,-195.5"/>
<text text-anchor="start" x="317.5" y="-202.5" font-family="Courier New" font-weight="bold" font-size="10.00" fill="orange">WAIT(,SIG_HIDE)</text>
<polygon fill="none" stroke="black" points="314.5,-176.5 314.5,-193.5 411.5,-193.5 411.5,-176.5 314.5,-176.5"/>
<text text-anchor="start" x="326.5" y="-182.5" font-family="Courier New" font-size="10.00" fill="blue"> &#160;&#160;&#160;&#160;SHOW();</text>
<polygon fill="none" stroke="black" points="311.5,-173.5 311.5,-215.5 414.5,-215.5 414.5,-173.5 311.5,-173.5"/>
</g>
<!-- zoomed -->
<g id="node4" class="node">
<title>zoomed</title>
<polyline fill="none" stroke="darkred" points="232.5,-7.5 288.5,-7.5"/>
<text text-anchor="start" x="235.5" y="-15.3" font-family="Courier New" font-weight="bold" font-size="14.00">zoomed</text>
<path fill="none" stroke="darkred" d="M238.5,-4.5C238.5,-4.5 282.5,-4.5 282.5,-4.5 287,-4.5 291.5,-9 291.5,-13.5 291.5,-13.5 291.5,-22.5 291.5,-22.5 291.5,-27 287,-31.5 282.5,-31.5 282.5,-31.5 238.5,-31.5 238.5,-31.5 234,-31.5 229.5,-27 229.5,-22.5 229.5,-22.5 229.5,-13.5 229.5,-13.5 229.5,-9 234,-4.5 238.5,-4.5"/>
</g>
<!-- altViewShown&#45;&gt;zoomed -->
<g id="edge2" class="edge">
<title>altViewShown&#45;&gt;zoomed</title>
<path fill="none" stroke="black" d="M196.59,-118.23C185.53,-113.13 175.39,-105.99 168.5,-96 157.9,-80.63 157.9,-69.37 168.5,-54 178.46,-39.55 195.23,-31.06 211.75,-26.08"/>
<polygon fill="black" stroke="black" points="212.15,-29.33 220.94,-23.41 210.38,-22.56 212.15,-29.33"/>
<polygon fill="none" stroke="black" points="171.5,-76 171.5,-93 328.5,-93 328.5,-76 171.5,-76"/>
<text text-anchor="start" x="225.5" y="-83" font-family="Courier New" font-weight="bold" font-size="10.00" fill="orange">CLICK(,)</text>
<polygon fill="none" stroke="black" points="171.5,-57 171.5,-74 328.5,-74 328.5,-57 171.5,-57"/>
<text text-anchor="start" x="174.5" y="-63" font-family="Courier New" font-size="10.00" fill="blue"> &#160;&#160;&#160;&#160;LOADVIEW(IDV_MOON5);</text>
<polygon fill="none" stroke="black" points="168.5,-54 168.5,-96 331.5,-96 331.5,-54 168.5,-54"/>
</g>
<!-- zoomed&#45;&gt;altViewShown -->
<g id="edge4" class="edge">
<title>zoomed&#45;&gt;altViewShown</title>
<path fill="none" stroke="black" d="M299.38,-29.15C311.82,-34.44 324.24,-42.33 331.5,-54 341.36,-69.85 341.36,-80.15 331.5,-96 328.74,-100.43 325.24,-104.32 321.27,-107.73"/>
<polygon fill="black" stroke="black" points="319.59,-105.36 313.57,-114.07 323.71,-111.01 319.59,-105.36"/>
<text text-anchor="start" x="343.5" y="-73.5" font-family="Courier New" font-weight="bold" font-size="10.00" fill="blue">Z_EPSILON(,)</text>
</g>
<!-- status -->
<g id="node5" class="node">
<title>status</title>
<polygon fill="none" stroke="black" points="306,-239.5 306,-311.5 695,-311.5 695,-239.5 306,-239.5"/>
<polygon fill="none" stroke="black" points="317,-287.5 317,-304.5 684,-304.5 684,-287.5 317,-287.5"/>
<text text-anchor="start" x="452" y="-294.5" font-family="Courier New" font-weight="bold" font-size="10.00">S28_KAMDOOR_alt3</text>
<polygon fill="none" stroke="black" points="317,-246.5 317,-285.5 684,-285.5 684,-246.5 317,-246.5"/>
<text text-anchor="start" x="320" y="-274.5" font-family="Courier New" font-size="10.00" fill="green">VIEW::IDV_MOON3 @pos(left:1554, top:142)</text>
<text text-anchor="start" x="320" y="-263.5" font-family="Courier New" font-size="10.00" fill="green">S28_KAMDOOR_alt3::M_KAMDOOR_alt(&#39;IDS_KAMDOOR_ALT3&#39;,&#39;&#39;,&#39;&#39;,&#39;&#39;)</text>
<text text-anchor="start" x="320" y="-252.5" font-family="Courier New" font-size="10.00" fill="green">{&#39;0&#39;:</text>
<polygon fill="none" stroke="black" points="314,-243.5 314,-307.5 687,-307.5 687,-243.5 314,-243.5"/>
</g>
</g>
</svg>
