<?xml version="1.0" encoding="UTF-8" standalone="no"?>
<!DOCTYPE svg PUBLIC "-//W3C//DTD SVG 1.1//EN"
 "http://www.w3.org/Graphics/SVG/1.1/DTD/svg11.dtd">
<!-- Generated by graphviz version 10.0.1 (20240210.2158)
 -->
<!-- Title: Automaton Pages: 1 -->
<svg width="729pt" height="693pt"
 viewBox="0.00 0.00 729.40 693.00" xmlns="http://www.w3.org/2000/svg" xmlns:xlink="http://www.w3.org/1999/xlink">
<g id="graph0" class="graph" transform="scale(1 1) rotate(0) translate(4 689)">
<title>Automaton</title>
<polygon fill="white" stroke="none" points="-4,4 -4,-689 725.4,-689 725.4,4 -4,4"/>
<!-- filename -->
<g id="node1" class="node">
<title>filename</title>
<polygon fill="none" stroke="black" points="143.4,-618.25 143.4,-671.75 267.4,-671.75 267.4,-618.25 143.4,-618.25"/>
<polygon fill="none" stroke="black" points="154.4,-646 154.4,-664.75 256.4,-664.75 256.4,-646 154.4,-646"/>
<text text-anchor="start" x="157.4" y="-653.25" font-family="Courier New" font-weight="bold" font-size="10.00">SID_AURA::M_AURA</text>
<polygon fill="none" stroke="black" points="154.4,-625.25 154.4,-644 256.4,-644 256.4,-625.25 154.4,-625.25"/>
<text text-anchor="start" x="160.4" y="-631.5" font-family="Courier New" font-size="10.00" fill="brown">start state = 0</text>
<polygon fill="none" stroke="black" points="151.4,-622.25 151.4,-667.75 259.4,-667.75 259.4,-622.25 151.4,-622.25"/>
</g>
<!-- 0 -->
<g id="node2" class="node">
<title>0</title>
<polyline fill="none" stroke="darkred" points="305.28,-633.75 319.53,-633.75"/>
<text text-anchor="start" x="308.28" y="-640.95" font-family="Courier New" font-weight="bold" font-size="14.00">0</text>
<path fill="none" stroke="darkred" d="M309.03,-630.75C309.03,-630.75 315.78,-630.75 315.78,-630.75 319.15,-630.75 322.53,-634.12 322.53,-637.5 322.53,-637.5 322.53,-652.5 322.53,-652.5 322.53,-655.88 319.15,-659.25 315.78,-659.25 315.78,-659.25 309.03,-659.25 309.03,-659.25 305.65,-659.25 302.28,-655.88 302.28,-652.5 302.28,-652.5 302.28,-637.5 302.28,-637.5 302.28,-634.12 305.65,-630.75 309.03,-630.75"/>
</g>
<!-- energyBoost -->
<g id="node3" class="node">
<title>energyBoost</title>
<polyline fill="none" stroke="darkred" points="264.03,-518.75 360.78,-518.75"/>
<text text-anchor="start" x="267.03" y="-525.95" font-family="Courier New" font-weight="bold" font-size="14.00">energyBoost</text>
<path fill="none" stroke="darkred" d="M270.53,-515.75C270.53,-515.75 354.28,-515.75 354.28,-515.75 359.03,-515.75 363.78,-520.5 363.78,-525.25 363.78,-525.25 363.78,-534.75 363.78,-534.75 363.78,-539.5 359.03,-544.25 354.28,-544.25 354.28,-544.25 270.53,-544.25 270.53,-544.25 265.78,-544.25 261.03,-539.5 261.03,-534.75 261.03,-534.75 261.03,-525.25 261.03,-525.25 261.03,-520.5 265.78,-515.75 270.53,-515.75"/>
</g>
<!-- 0&#45;&gt;energyBoost -->
<g id="edge1" class="edge">
<title>0&#45;&gt;energyBoost</title>
<path fill="none" stroke="black" d="M312.4,-626.84C312.4,-608.9 312.4,-580.45 312.4,-559.2"/>
<polygon fill="black" stroke="black" points="315.9,-559.47 312.4,-549.47 308.9,-559.47 315.9,-559.47"/>
<text text-anchor="start" x="316.4" y="-574.5" font-family="Courier New" font-weight="bold" font-size="10.00" fill="blue">Z_EPSILON(0,0)</text>
</g>
<!-- 1 -->
<g id="node4" class="node">
<title>1</title>
<polyline fill="none" stroke="darkred" stroke-width="3" points="304.78,-294.25 320.03,-294.25"/>
<text text-anchor="start" x="308.28" y="-301.95" font-family="Courier New" font-weight="bold" font-size="14.00">1</text>
<path fill="none" stroke="darkred" stroke-width="3" d="M308.2,-289.25C308.2,-289.25 316.61,-289.25 316.61,-289.25 320.82,-289.25 325.03,-293.46 325.03,-297.67 325.03,-297.67 325.03,-314.33 325.03,-314.33 325.03,-318.54 320.82,-322.75 316.61,-322.75 316.61,-322.75 308.2,-322.75 308.2,-322.75 303.99,-322.75 299.78,-318.54 299.78,-314.33 299.78,-314.33 299.78,-297.67 299.78,-297.67 299.78,-293.46 303.99,-289.25 308.2,-289.25"/>
</g>
<!-- energyBoost&#45;&gt;1 -->
<g id="edge5" class="edge">
<title>energyBoost&#45;&gt;1</title>
<path fill="none" stroke="black" d="M253.29,-525.67C175.47,-520.67 46.76,-510.03 32.4,-493.75 -10.96,-444.59 -10.61,-395.72 32.4,-346.25 63.31,-310.71 205.21,-306.4 274.34,-306.47"/>
<polygon fill="black" stroke="black" points="274.04,-309.96 284.06,-306.51 274.08,-302.96 274.04,-309.96"/>
<polygon fill="none" stroke="black" points="35.4,-472 35.4,-490.75 305.4,-490.75 305.4,-472 35.4,-472"/>
<text text-anchor="start" x="128.4" y="-479.25" font-family="Courier New" font-weight="bold" font-size="10.00" fill="blue">ASSIGN(WPARM,)</text>
<polygon fill="none" stroke="black" points="35.4,-349.25 35.4,-470 305.4,-470 305.4,-349.25 35.4,-349.25"/>
<text text-anchor="start" x="38.4" y="-457.5" font-family="Courier New" font-size="10.00" fill="blue"> &#160;&#160;&#160;&#160;&#160;&#160;if(LENERGY &gt; (MAX_AURAS &#45; 1)){</text>
<text text-anchor="start" x="38.4" y="-444.75" font-family="Courier New" font-size="10.00" fill="blue"> &#160;&#160;&#160;&#160;&#160;&#160;&#160;&#160;&#160;&#160;&#160;&#160;ASSIGN(LENERGY,(MAX_AURAS &#45;1));</text>
<text text-anchor="start" x="38.4" y="-432" font-family="Courier New" font-size="10.00" fill="blue"> &#160;&#160;&#160;&#160;&#160;&#160;}</text>
<text text-anchor="start" x="38.4" y="-419.25" font-family="Courier New" font-size="10.00" fill="blue"> &#160;&#160;&#160;&#160;&#160;&#160;&#160;ASSIGN(BPARM,LENERGY);</text>
<text text-anchor="start" x="38.4" y="-406.5" font-family="Courier New" font-size="10.00" fill="blue"> &#160;&#160;&#160;&#160;&#160;&#160;&#160;MOV(WSPRITE,BPARM);</text>
<text text-anchor="start" x="38.4" y="-393.75" font-family="Courier New" font-size="10.00" fill="blue"> &#160;&#160;&#160;&#160;&#160;&#160;&#160;MAPi(WSPRITE,S00_AURA_MAP);</text>
<text text-anchor="start" x="38.4" y="-381" font-family="Courier New" font-size="10.00" fill="blue"> &#160;&#160;&#160;&#160;&#160;&#160;&#160;SHOW(WSPRITE);</text>
<text text-anchor="start" x="38.4" y="-368.25" font-family="Courier New" font-size="10.00" fill="blue"> &#160;&#160;&#160;&#160;&#160;&#160;&#160;ANIMATE(WPARM);</text>
<text text-anchor="start" x="38.4" y="-355.5" font-family="Courier New" font-size="10.00" fill="blue"> &#160;&#160;&#160;&#160;&#160;&#160;&#160;SIGNALi(0,SID_ID);</text>
<polygon fill="none" stroke="black" points="32.4,-346.25 32.4,-493.75 308.4,-493.75 308.4,-346.25 32.4,-346.25"/>
</g>
<!-- 1&#45;&gt;energyBoost -->
<g id="edge2" class="edge">
<title>1&#45;&gt;energyBoost</title>
<path fill="none" stroke="black" d="M312.4,-327.93C312.4,-367.97 312.4,-455.41 312.4,-500.64"/>
<polygon fill="black" stroke="black" points="308.9,-500.44 312.4,-510.44 315.9,-500.44 308.9,-500.44"/>
<text text-anchor="start" x="316.4" y="-417.88" font-family="Courier New" font-weight="bold" font-size="10.00" fill="orange">WAIT(0,SIG_ADD)</text>
</g>
<!-- 1&#45;&gt;energyBoost -->
<g id="edge4" class="edge">
<title>1&#45;&gt;energyBoost</title>
<path fill="none" stroke="black" d="M338.95,-309.44C362.4,-313.16 395.3,-322.54 411.4,-346.25 448.24,-400.48 449.19,-440.18 411.4,-493.75 404.2,-503.97 393.76,-511.24 382.33,-516.41"/>
<polygon fill="black" stroke="black" points="381.07,-513.14 373.03,-520.04 383.62,-519.66 381.07,-513.14"/>
<text text-anchor="start" x="442.4" y="-417.88" font-family="Courier New" font-weight="bold" font-size="10.00" fill="orange">WAIT(0,0)</text>
</g>
<!-- energyDrain -->
<g id="node5" class="node">
<title>energyDrain</title>
<polyline fill="none" stroke="darkred" points="264.03,-7 360.78,-7"/>
<text text-anchor="start" x="267.03" y="-14.2" font-family="Courier New" font-weight="bold" font-size="14.00">energyDrain</text>
<path fill="none" stroke="darkred" d="M270.53,-4C270.53,-4 354.28,-4 354.28,-4 359.03,-4 363.78,-8.75 363.78,-13.5 363.78,-13.5 363.78,-23 363.78,-23 363.78,-27.75 359.03,-32.5 354.28,-32.5 354.28,-32.5 270.53,-32.5 270.53,-32.5 265.78,-32.5 261.03,-27.75 261.03,-23 261.03,-23 261.03,-13.5 261.03,-13.5 261.03,-8.75 265.78,-4 270.53,-4"/>
</g>
<!-- 1&#45;&gt;energyDrain -->
<g id="edge3" class="edge">
<title>1&#45;&gt;energyDrain</title>
<path fill="none" stroke="black" d="M285.43,-294.23C273.33,-287.88 260.26,-278.55 253.4,-265.75 209.06,-182.99 207.07,-136.16 253.4,-54.5 255.76,-50.36 258.81,-46.65 262.29,-43.34"/>
<polygon fill="black" stroke="black" points="264.25,-46.25 269.87,-37.27 259.87,-40.79 264.25,-46.25"/>
<text text-anchor="start" x="257.4" y="-158" font-family="Courier New" font-weight="bold" font-size="10.00" fill="orange">WAIT(0,SIG_SUB)</text>
</g>
<!-- energyDrain&#45;&gt;1 -->
<g id="edge6" class="edge">
<title>energyDrain&#45;&gt;1</title>
<path fill="none" stroke="black" d="M337.75,-36.49C343.27,-41.59 348.37,-47.66 351.4,-54.5 389.51,-140.31 387.19,-178.95 351.4,-265.75 350.06,-269.02 348.29,-272.16 346.25,-275.14"/>
<polygon fill="black" stroke="black" points="343.53,-272.94 339.96,-282.91 348.97,-277.34 343.53,-272.94"/>
<polygon fill="none" stroke="black" points="381.4,-244 381.4,-262.75 609.4,-262.75 609.4,-244 381.4,-244"/>
<text text-anchor="start" x="426.4" y="-251.25" font-family="Courier New" font-weight="bold" font-size="10.00" fill="blue">ASSIGN(WPARM,V_REVERSE)</text>
<polygon fill="none" stroke="black" points="381.4,-57.5 381.4,-242 609.4,-242 609.4,-57.5 381.4,-57.5"/>
<text text-anchor="start" x="384.4" y="-229.5" font-family="Courier New" font-size="10.00" fill="blue"> &#160;&#160;&#160;&#160;&#160;&#160;&#160;if(LENERGY &lt;= 1){</text>
<text text-anchor="start" x="384.4" y="-216.75" font-family="Courier New" font-size="10.00" fill="blue"> &#160;&#160;&#160;&#160;&#160;&#160;&#160;&#160;&#160;&#160;&#160;&#160;ASSIGN(LENERGY,1);</text>
<text text-anchor="start" x="384.4" y="-204" font-family="Courier New" font-size="10.00" fill="blue"> &#160;&#160;&#160;&#160;&#160;&#160;} &#160;&#160;&#160;&#160;&#160;</text>
<text text-anchor="start" x="384.4" y="-191.25" font-family="Courier New" font-size="10.00" fill="blue"> &#160;&#160;&#160;&#160;&#160;&#160;ASSIGN(BPARM,LENERGY);</text>
<text text-anchor="start" x="384.4" y="-178.5" font-family="Courier New" font-size="10.00" fill="blue"> &#160;&#160;&#160;&#160;&#160;&#160;&#160;MOV(WSPRITE,BPARM);</text>
<text text-anchor="start" x="384.4" y="-165.75" font-family="Courier New" font-size="10.00" fill="blue"> &#160;&#160;&#160;&#160;&#160;&#160;&#160;MAPi(WSPRITE,S00_AURA_MAP);</text>
<text text-anchor="start" x="384.4" y="-153" font-family="Courier New" font-size="10.00" fill="blue"> &#160;&#160;&#160;&#160;&#160;&#160;&#160;SHOW(WSPRITE);</text>
<text text-anchor="start" x="384.4" y="-140.25" font-family="Courier New" font-size="10.00" fill="blue"> &#160;&#160;&#160;&#160;&#160;&#160;&#160;ANIMATE(WPARM);</text>
<text text-anchor="start" x="384.4" y="-127.5" font-family="Courier New" font-size="10.00" fill="blue"> &#160;&#160;&#160;&#160;&#160;&#160;// SIGNALi(0,SID_ID);</text>
<text text-anchor="start" x="384.4" y="-114.75" font-family="Courier New" font-size="10.00" fill="blue"> &#160;&#160;&#160;&#160;&#160;&#160;&#160;</text>
<text text-anchor="start" x="384.4" y="-102" font-family="Courier New" font-size="10.00" fill="blue"> &#160;&#160;&#160;&#160;&#160;&#160;&#160;if(LENERGY &lt;= 1){</text>
<text text-anchor="start" x="384.4" y="-89.25" font-family="Courier New" font-size="10.00" fill="blue"> &#160;&#160;&#160;&#160;&#160;&#160;&#160;&#160;&#160;&#160;&#160;&#160;ASSIGN(LENERGY,1);</text>
<text text-anchor="start" x="384.4" y="-76.5" font-family="Courier New" font-size="10.00" fill="blue"> &#160;&#160;&#160;&#160;&#160;&#160;&#160;&#160;&#160;&#160;&#160;&#160;SIGNAL(SID_ID,SIG_DEAD);</text>
<text text-anchor="start" x="384.4" y="-63.75" font-family="Courier New" font-size="10.00" fill="blue"> &#160;&#160;&#160;&#160;&#160;&#160;} &#160;&#160;</text>
<polygon fill="none" stroke="black" points="378.4,-54.5 378.4,-265.75 612.4,-265.75 612.4,-54.5 378.4,-54.5"/>
</g>
<!-- status -->
<g id="node6" class="node">
<title>status</title>
<polygon fill="none" stroke="black" points="357.4,-605.5 357.4,-684.5 721.4,-684.5 721.4,-605.5 357.4,-605.5"/>
<polygon fill="none" stroke="black" points="368.4,-658.75 368.4,-677.5 710.4,-677.5 710.4,-658.75 368.4,-658.75"/>
<text text-anchor="start" x="515.4" y="-666" font-family="Courier New" font-weight="bold" font-size="10.00">SID_AURA</text>
<polygon fill="none" stroke="black" points="368.4,-612.5 368.4,-656.75 710.4,-656.75 710.4,-612.5 368.4,-612.5"/>
<text text-anchor="start" x="371.4" y="-644.25" font-family="Courier New" font-size="10.00" fill="green">VIEW::IDV_ID @pos(left:0, top:0)</text>
<text text-anchor="start" x="371.4" y="-631.5" font-family="Courier New" font-size="10.00" fill="green">SID_AURA::M_AURA(&#39;&#39;,&#39;&#39;,&#39;&#39;,&#39;&#39;)</text>
<text text-anchor="start" x="371.4" y="-618.75" font-family="Courier New" font-size="10.00" fill="green">{state:&#39;1&#39;: bParm:20 wParm:0 wSprite:IDS_AURA20 bFrame:7</text>
<polygon fill="none" stroke="black" points="365.4,-609.5 365.4,-680.5 713.4,-680.5 713.4,-609.5 365.4,-609.5"/>
</g>
</g>
</svg>
