<?xml version="1.0" encoding="UTF-8" standalone="no"?>
<!DOCTYPE svg PUBLIC "-//W3C//DTD SVG 1.1//EN"
 "http://www.w3.org/Graphics/SVG/1.1/DTD/svg11.dtd">
<!-- Generated by graphviz version 8.0.1 (20230327.1645)
 -->
<!-- Title: Automaton Pages: 1 -->
<svg width="598pt" height="594pt"
 viewBox="0.00 0.00 597.59 594.00" xmlns="http://www.w3.org/2000/svg" xmlns:xlink="http://www.w3.org/1999/xlink">
<g id="graph0" class="graph" transform="scale(1 1) rotate(0) translate(4 590)">
<title>Automaton</title>
<polygon fill="white" stroke="none" points="-4,4 -4,-590 593.59,-590 593.59,4 -4,4"/>
<!-- filename -->
<g id="node1" class="node">
<title>filename</title>
<polygon fill="none" stroke="black" points="139.09,-524.5 139.09,-574.5 264.09,-574.5 264.09,-524.5 139.09,-524.5"/>
<polygon fill="none" stroke="black" points="150.09,-550.5 150.09,-567.5 253.09,-567.5 253.09,-550.5 150.09,-550.5"/>
<text text-anchor="start" x="153.09" y="-557.5" font-family="Courier New" font-weight="bold" font-size="10.00">SID_AURA::M_AURA</text>
<polygon fill="none" stroke="black" points="150.09,-531.5 150.09,-548.5 253.09,-548.5 253.09,-531.5 150.09,-531.5"/>
<text text-anchor="start" x="156.09" y="-537.5" font-family="Courier New" font-size="10.00" fill="brown">start state = 0</text>
<polygon fill="none" stroke="black" points="147.09,-528.5 147.09,-570.5 256.09,-570.5 256.09,-528.5 147.09,-528.5"/>
</g>
<!-- 0 -->
<g id="node2" class="node">
<title>0</title>
<polyline fill="none" stroke="darkred" points="302.09,-539 317.09,-539"/>
<text text-anchor="start" x="305.09" y="-546.8" font-family="Courier New" font-weight="bold" font-size="14.00">0</text>
<path fill="none" stroke="darkred" d="M306.09,-536C306.09,-536 313.09,-536 313.09,-536 316.59,-536 320.09,-539.5 320.09,-543 320.09,-543 320.09,-556 320.09,-556 320.09,-559.5 316.59,-563 313.09,-563 313.09,-563 306.09,-563 306.09,-563 302.59,-563 299.09,-559.5 299.09,-556 299.09,-556 299.09,-543 299.09,-543 299.09,-539.5 302.59,-536 306.09,-536"/>
</g>
<!-- energyBoost -->
<g id="node3" class="node">
<title>energyBoost</title>
<polyline fill="none" stroke="darkred" points="261.09,-429.5 358.09,-429.5"/>
<text text-anchor="start" x="264.09" y="-437.3" font-family="Courier New" font-weight="bold" font-size="14.00">energyBoost</text>
<path fill="none" stroke="darkred" d="M267.09,-426.5C267.09,-426.5 352.09,-426.5 352.09,-426.5 356.59,-426.5 361.09,-431 361.09,-435.5 361.09,-435.5 361.09,-444.5 361.09,-444.5 361.09,-449 356.59,-453.5 352.09,-453.5 352.09,-453.5 267.09,-453.5 267.09,-453.5 262.59,-453.5 258.09,-449 258.09,-444.5 258.09,-444.5 258.09,-435.5 258.09,-435.5 258.09,-431 262.59,-426.5 267.09,-426.5"/>
</g>
<!-- 0&#45;&gt;energyBoost -->
<g id="edge1" class="edge">
<title>0&#45;&gt;energyBoost</title>
<path fill="none" stroke="black" d="M309.59,-531.7C309.59,-514.82 309.59,-488.51 309.59,-468.57"/>
<polygon fill="black" stroke="black" points="313.09,-468.68 309.59,-458.68 306.09,-468.68 313.09,-468.68"/>
<text text-anchor="start" x="313.59" y="-484" font-family="Courier New" font-weight="bold" font-size="10.00" fill="blue">Z_EPSILON(0,0)</text>
</g>
<!-- 1 -->
<g id="node4" class="node">
<title>1</title>
<polyline fill="none" stroke="darkred" stroke-width="3" points="301.59,-223.5 317.59,-223.5"/>
<text text-anchor="start" x="305.09" y="-231.8" font-family="Courier New" font-weight="bold" font-size="14.00">1</text>
<path fill="none" stroke="darkred" stroke-width="3" d="M305.26,-218.5C305.26,-218.5 313.93,-218.5 313.93,-218.5 318.26,-218.5 322.59,-222.83 322.59,-227.17 322.59,-227.17 322.59,-241.83 322.59,-241.83 322.59,-246.17 318.26,-250.5 313.93,-250.5 313.93,-250.5 305.26,-250.5 305.26,-250.5 300.93,-250.5 296.59,-246.17 296.59,-241.83 296.59,-241.83 296.59,-227.17 296.59,-227.17 296.59,-222.83 300.93,-218.5 305.26,-218.5"/>
</g>
<!-- energyBoost&#45;&gt;1 -->
<g id="edge5" class="edge">
<title>energyBoost&#45;&gt;1</title>
<path fill="none" stroke="black" d="M250.28,-435.74C172.18,-430.82 43.01,-420.33 28.59,-404 -9.65,-360.69 -9.39,-317.54 28.59,-274 59.72,-238.32 202.63,-234.52 271.83,-234.84"/>
<polygon fill="black" stroke="black" points="271.65,-238.34 281.67,-234.92 271.7,-231.34 271.65,-238.34"/>
<polygon fill="none" stroke="black" points="31.59,-384 31.59,-401 302.59,-401 302.59,-384 31.59,-384"/>
<text text-anchor="start" x="124.59" y="-391" font-family="Courier New" font-weight="bold" font-size="10.00" fill="blue">ASSIGN(WPARM,)</text>
<polygon fill="none" stroke="black" points="31.59,-277 31.59,-382 302.59,-382 302.59,-277 31.59,-277"/>
<text text-anchor="start" x="34.59" y="-371" font-family="Courier New" font-size="10.00" fill="blue"> &#160;&#160;&#160;&#160;&#160;&#160;if(LENERGY &gt; (MAX_AURAS &#45; 1)){</text>
<text text-anchor="start" x="34.59" y="-360" font-family="Courier New" font-size="10.00" fill="blue"> &#160;&#160;&#160;&#160;&#160;&#160;&#160;&#160;&#160;&#160;&#160;&#160;ASSIGN(LENERGY,(MAX_AURAS &#45;1));</text>
<text text-anchor="start" x="34.59" y="-349" font-family="Courier New" font-size="10.00" fill="blue"> &#160;&#160;&#160;&#160;&#160;&#160;}</text>
<text text-anchor="start" x="34.59" y="-338" font-family="Courier New" font-size="10.00" fill="blue"> &#160;&#160;&#160;&#160;&#160;&#160;&#160;ASSIGN(BPARM,LENERGY);</text>
<text text-anchor="start" x="34.59" y="-327" font-family="Courier New" font-size="10.00" fill="blue"> &#160;&#160;&#160;&#160;&#160;&#160;&#160;MOV(WSPRITE,BPARM);</text>
<text text-anchor="start" x="34.59" y="-316" font-family="Courier New" font-size="10.00" fill="blue"> &#160;&#160;&#160;&#160;&#160;&#160;&#160;MAPi(WSPRITE,S00_AURA_MAP);</text>
<text text-anchor="start" x="34.59" y="-305" font-family="Courier New" font-size="10.00" fill="blue"> &#160;&#160;&#160;&#160;&#160;&#160;&#160;SHOW(WSPRITE);</text>
<text text-anchor="start" x="34.59" y="-294" font-family="Courier New" font-size="10.00" fill="blue"> &#160;&#160;&#160;&#160;&#160;&#160;&#160;ANIMATE(WPARM);</text>
<text text-anchor="start" x="34.59" y="-283" font-family="Courier New" font-size="10.00" fill="blue"> &#160;&#160;&#160;&#160;&#160;&#160;&#160;SIGNALi(0,SID_ID);</text>
<polygon fill="none" stroke="black" points="28.59,-274 28.59,-404 305.59,-404 305.59,-274 28.59,-274"/>
</g>
<!-- 1&#45;&gt;energyBoost -->
<g id="edge2" class="edge">
<title>1&#45;&gt;energyBoost</title>
<path fill="none" stroke="black" d="M309.59,-255.96C309.59,-292.75 309.59,-370.05 309.59,-411.45"/>
<polygon fill="black" stroke="black" points="306.09,-411.35 309.59,-421.35 313.09,-411.35 306.09,-411.35"/>
<text text-anchor="start" x="313.59" y="-337.5" font-family="Courier New" font-weight="bold" font-size="10.00" fill="orange">WAIT(0,SIG_ADD)</text>
</g>
<!-- 1&#45;&gt;energyBoost -->
<g id="edge4" class="edge">
<title>1&#45;&gt;energyBoost</title>
<path fill="none" stroke="black" d="M336.39,-237.65C360.06,-241.13 393.27,-250.23 409.59,-274 442.3,-321.63 443.03,-356.88 409.59,-404 402.07,-414.61 391.07,-422.02 379.1,-427.21"/>
<polygon fill="black" stroke="black" points="377.99,-424.26 369.86,-431.05 380.45,-430.81 377.99,-424.26"/>
<text text-anchor="start" x="437.59" y="-337.5" font-family="Courier New" font-weight="bold" font-size="10.00" fill="orange">WAIT(0,0)</text>
</g>
<!-- energyDrain -->
<g id="node5" class="node">
<title>energyDrain</title>
<polyline fill="none" stroke="darkred" points="261.09,-7.5 358.09,-7.5"/>
<text text-anchor="start" x="264.09" y="-15.3" font-family="Courier New" font-weight="bold" font-size="14.00">energyDrain</text>
<path fill="none" stroke="darkred" d="M267.09,-4.5C267.09,-4.5 352.09,-4.5 352.09,-4.5 356.59,-4.5 361.09,-9 361.09,-13.5 361.09,-13.5 361.09,-22.5 361.09,-22.5 361.09,-27 356.59,-31.5 352.09,-31.5 352.09,-31.5 267.09,-31.5 267.09,-31.5 262.59,-31.5 258.09,-27 258.09,-22.5 258.09,-22.5 258.09,-13.5 258.09,-13.5 258.09,-9 262.59,-4.5 267.09,-4.5"/>
</g>
<!-- 1&#45;&gt;energyDrain -->
<g id="edge3" class="edge">
<title>1&#45;&gt;energyDrain</title>
<path fill="none" stroke="black" d="M282.82,-223.48C270.34,-217.31 256.72,-208.03 249.59,-195 219.54,-140.01 218.38,-108.34 249.59,-54 252.02,-49.77 255.19,-46 258.79,-42.65"/>
<polygon fill="black" stroke="black" points="260.56,-44.92 266.26,-35.99 256.23,-39.42 260.56,-44.92"/>
<text text-anchor="start" x="253.59" y="-123" font-family="Courier New" font-weight="bold" font-size="10.00" fill="orange">WAIT(0,SIG_SUB)</text>
</g>
<!-- energyDrain&#45;&gt;1 -->
<g id="edge6" class="edge">
<title>energyDrain&#45;&gt;1</title>
<path fill="none" stroke="black" d="M334.54,-35.72C340.21,-40.85 345.48,-47.02 348.59,-54 374.13,-111.23 372.76,-137.18 348.59,-195 347.16,-198.44 345.24,-201.73 343.04,-204.83"/>
<polygon fill="black" stroke="black" points="339.9,-202.14 336.19,-212.06 345.28,-206.61 339.9,-202.14"/>
<polygon fill="none" stroke="black" points="369.59,-175 369.59,-192 586.59,-192 586.59,-175 369.59,-175"/>
<text text-anchor="start" x="408.59" y="-182" font-family="Courier New" font-weight="bold" font-size="10.00" fill="blue">ASSIGN(WPARM,V_REVERSE)</text>
<polygon fill="none" stroke="black" points="369.59,-57 369.59,-173 586.59,-173 586.59,-57 369.59,-57"/>
<text text-anchor="start" x="372.59" y="-162" font-family="Courier New" font-size="10.00" fill="blue"> &#160;&#160;&#160;&#160;&#160;&#160;&#160;if(LENERGY &lt;= 0){</text>
<text text-anchor="start" x="372.59" y="-151" font-family="Courier New" font-size="10.00" fill="blue"> &#160;&#160;&#160;&#160;&#160;&#160;&#160;&#160;&#160;&#160;&#160;&#160;ASSIGN(LENERGY,1);</text>
<text text-anchor="start" x="372.59" y="-140" font-family="Courier New" font-size="10.00" fill="blue"> &#160;&#160;&#160;&#160;&#160;&#160;&#160;&#160;&#160;&#160;&#160;&#160;//Maybe death</text>
<text text-anchor="start" x="372.59" y="-129" font-family="Courier New" font-size="10.00" fill="blue"> &#160;&#160;&#160;&#160;&#160;&#160;} &#160;&#160;&#160;&#160;&#160;</text>
<text text-anchor="start" x="372.59" y="-118" font-family="Courier New" font-size="10.00" fill="blue"> &#160;&#160;&#160;&#160;&#160;&#160;ASSIGN(BPARM,LENERGY);</text>
<text text-anchor="start" x="372.59" y="-107" font-family="Courier New" font-size="10.00" fill="blue"> &#160;&#160;&#160;&#160;&#160;&#160;&#160;MOV(WSPRITE,BPARM);</text>
<text text-anchor="start" x="372.59" y="-96" font-family="Courier New" font-size="10.00" fill="blue"> &#160;&#160;&#160;&#160;&#160;&#160;&#160;MAPi(WSPRITE,S00_AURA_MAP);</text>
<text text-anchor="start" x="372.59" y="-85" font-family="Courier New" font-size="10.00" fill="blue"> &#160;&#160;&#160;&#160;&#160;&#160;&#160;SHOW(WSPRITE);</text>
<text text-anchor="start" x="372.59" y="-74" font-family="Courier New" font-size="10.00" fill="blue"> &#160;&#160;&#160;&#160;&#160;&#160;&#160;ANIMATE(WPARM);</text>
<text text-anchor="start" x="372.59" y="-63" font-family="Courier New" font-size="10.00" fill="blue"> &#160;&#160;&#160;&#160;&#160;&#160;&#160;SIGNALi(0,SID_ID);</text>
<polygon fill="none" stroke="black" points="366.59,-54 366.59,-195 589.59,-195 589.59,-54 366.59,-54"/>
</g>
<!-- status -->
<g id="node6" class="node">
<title>status</title>
<polygon fill="none" stroke="black" points="355.09,-513.5 355.09,-585.5 576.09,-585.5 576.09,-513.5 355.09,-513.5"/>
<polygon fill="none" stroke="black" points="366.09,-561.5 366.09,-578.5 565.09,-578.5 565.09,-561.5 366.09,-561.5"/>
<text text-anchor="start" x="441.09" y="-568.5" font-family="Courier New" font-weight="bold" font-size="10.00">SID_AURA</text>
<polygon fill="none" stroke="black" points="366.09,-520.5 366.09,-559.5 565.09,-559.5 565.09,-520.5 366.09,-520.5"/>
<text text-anchor="start" x="369.09" y="-548.5" font-family="Courier New" font-size="10.00" fill="green">VIEW::IDV_ID @pos(left:0, top:0)</text>
<text text-anchor="start" x="369.09" y="-537.5" font-family="Courier New" font-size="10.00" fill="green">SID_AURA::M_AURA(&#39;&#39;,&#39;&#39;,&#39;&#39;,&#39;&#39;)</text>
<text text-anchor="start" x="369.09" y="-526.5" font-family="Courier New" font-size="10.00" fill="green">{&#39;1&#39;: bParm:4 bFrame:4</text>
<polygon fill="none" stroke="black" points="363.09,-517.5 363.09,-581.5 568.09,-581.5 568.09,-517.5 363.09,-517.5"/>
</g>
</g>
</svg>
