<?xml version="1.0" encoding="UTF-8" standalone="no"?>
<!DOCTYPE svg PUBLIC "-//W3C//DTD SVG 1.1//EN"
 "http://www.w3.org/Graphics/SVG/1.1/DTD/svg11.dtd">
<!-- Generated by graphviz version 8.0.1 (20230327.1645)
 -->
<!-- Title: Automaton Pages: 1 -->
<svg width="764pt" height="461pt"
 viewBox="0.00 0.00 764.39 461.00" xmlns="http://www.w3.org/2000/svg" xmlns:xlink="http://www.w3.org/1999/xlink">
<g id="graph0" class="graph" transform="scale(1 1) rotate(0) translate(4 457)">
<title>Automaton</title>
<polygon fill="white" stroke="none" points="-4,4 -4,-457 760.39,-457 760.39,4 -4,4"/>
<!-- filename -->
<g id="node1" class="node">
<title>filename</title>
<polygon fill="none" stroke="black" points="143.89,-391.5 143.89,-441.5 268.89,-441.5 268.89,-391.5 143.89,-391.5"/>
<polygon fill="none" stroke="black" points="154.89,-417.5 154.89,-434.5 257.89,-434.5 257.89,-417.5 154.89,-417.5"/>
<text text-anchor="start" x="157.89" y="-424.5" font-family="Courier New" font-weight="bold" font-size="10.00">SID_HALO::M_HALO</text>
<polygon fill="none" stroke="black" points="154.89,-398.5 154.89,-415.5 257.89,-415.5 257.89,-398.5 154.89,-398.5"/>
<text text-anchor="start" x="160.89" y="-404.5" font-family="Courier New" font-size="10.00" fill="brown">start state = 0</text>
<polygon fill="none" stroke="black" points="151.89,-395.5 151.89,-437.5 260.89,-437.5 260.89,-395.5 151.89,-395.5"/>
</g>
<!-- 0 -->
<g id="node2" class="node">
<title>0</title>
<polyline fill="none" stroke="darkred" points="306.89,-406 321.89,-406"/>
<text text-anchor="start" x="309.89" y="-413.8" font-family="Courier New" font-weight="bold" font-size="14.00">0</text>
<path fill="none" stroke="darkred" d="M310.89,-403C310.89,-403 317.89,-403 317.89,-403 321.39,-403 324.89,-406.5 324.89,-410 324.89,-410 324.89,-423 324.89,-423 324.89,-426.5 321.39,-430 317.89,-430 317.89,-430 310.89,-430 310.89,-430 307.39,-430 303.89,-426.5 303.89,-423 303.89,-423 303.89,-410 303.89,-410 303.89,-406.5 307.39,-403 310.89,-403"/>
</g>
<!-- karmaBoost -->
<g id="node3" class="node">
<title>karmaBoost</title>
<polyline fill="none" stroke="darkred" points="269.89,-296.5 358.89,-296.5"/>
<text text-anchor="start" x="272.89" y="-304.3" font-family="Courier New" font-weight="bold" font-size="14.00">karmaBoost</text>
<path fill="none" stroke="darkred" d="M275.89,-293.5C275.89,-293.5 352.89,-293.5 352.89,-293.5 357.39,-293.5 361.89,-298 361.89,-302.5 361.89,-302.5 361.89,-311.5 361.89,-311.5 361.89,-316 357.39,-320.5 352.89,-320.5 352.89,-320.5 275.89,-320.5 275.89,-320.5 271.39,-320.5 266.89,-316 266.89,-311.5 266.89,-311.5 266.89,-302.5 266.89,-302.5 266.89,-298 271.39,-293.5 275.89,-293.5"/>
</g>
<!-- 0&#45;&gt;karmaBoost -->
<g id="edge1" class="edge">
<title>0&#45;&gt;karmaBoost</title>
<path fill="none" stroke="black" d="M314.39,-398.7C314.39,-381.82 314.39,-355.51 314.39,-335.57"/>
<polygon fill="black" stroke="black" points="317.89,-335.68 314.39,-325.68 310.89,-335.68 317.89,-335.68"/>
<text text-anchor="start" x="318.39" y="-351" font-family="Courier New" font-weight="bold" font-size="10.00" fill="blue">Z_EPSILON(0,0)</text>
</g>
<!-- 1 -->
<g id="node4" class="node">
<title>1</title>
<polyline fill="none" stroke="darkred" stroke-width="3" points="367.39,-101.5 383.39,-101.5"/>
<text text-anchor="start" x="370.89" y="-109.8" font-family="Courier New" font-weight="bold" font-size="14.00">1</text>
<path fill="none" stroke="darkred" stroke-width="3" d="M371.06,-96.5C371.06,-96.5 379.72,-96.5 379.72,-96.5 384.06,-96.5 388.39,-100.83 388.39,-105.17 388.39,-105.17 388.39,-119.83 388.39,-119.83 388.39,-124.17 384.06,-128.5 379.72,-128.5 379.72,-128.5 371.06,-128.5 371.06,-128.5 366.72,-128.5 362.39,-124.17 362.39,-119.83 362.39,-119.83 362.39,-105.17 362.39,-105.17 362.39,-100.83 366.72,-96.5 371.06,-96.5"/>
</g>
<!-- karmaBoost&#45;&gt;1 -->
<g id="edge6" class="edge">
<title>karmaBoost&#45;&gt;1</title>
<path fill="none" stroke="black" d="M258.94,-303.16C179.6,-298.52 41.52,-288.08 26.39,-271 -8.68,-231.41 -8.9,-191.4 26.39,-152 46.9,-129.1 251.73,-118.39 337.71,-114.87"/>
<polygon fill="black" stroke="black" points="337.69,-118.34 347.54,-114.44 337.41,-111.34 337.69,-118.34"/>
<polygon fill="none" stroke="black" points="29.39,-251 29.39,-268 294.39,-268 294.39,-251 29.39,-251"/>
<text text-anchor="start" x="119.39" y="-258" font-family="Courier New" font-weight="bold" font-size="10.00" fill="blue">ASSIGN(WPARM,)</text>
<polygon fill="none" stroke="black" points="29.39,-155 29.39,-249 294.39,-249 294.39,-155 29.39,-155"/>
<text text-anchor="start" x="32.39" y="-238" font-family="Courier New" font-size="10.00" fill="blue"> &#160;&#160;&#160;&#160;&#160;&#160;if(LKARMA &gt; (MAX_KARMA &#45; 1)){</text>
<text text-anchor="start" x="32.39" y="-227" font-family="Courier New" font-size="10.00" fill="blue"> &#160;&#160;&#160;&#160;&#160;&#160;&#160;&#160;&#160;&#160;&#160;&#160;ASSIGN(LKARMA,(MAX_KARMA &#45;1));</text>
<text text-anchor="start" x="32.39" y="-216" font-family="Courier New" font-size="10.00" fill="blue"> &#160;&#160;&#160;&#160;&#160;&#160;}</text>
<text text-anchor="start" x="32.39" y="-205" font-family="Courier New" font-size="10.00" fill="blue"> &#160;&#160;&#160;&#160;&#160;&#160;&#160;ASSIGN(BPARM,LKARMA);</text>
<text text-anchor="start" x="32.39" y="-194" font-family="Courier New" font-size="10.00" fill="blue"> &#160;&#160;&#160;&#160;&#160;&#160;&#160;MOV(WSPRITE,BPARM);</text>
<text text-anchor="start" x="32.39" y="-183" font-family="Courier New" font-size="10.00" fill="blue"> &#160;&#160;&#160;&#160;&#160;&#160;&#160;MAPi(WSPRITE,S00_KARMA_MAP);</text>
<text text-anchor="start" x="32.39" y="-172" font-family="Courier New" font-size="10.00" fill="blue"> &#160;&#160;&#160;&#160;&#160;&#160;&#160;ASHOW(WSPRITE);</text>
<text text-anchor="start" x="32.39" y="-161" font-family="Courier New" font-size="10.00" fill="blue"> &#160;&#160;&#160;&#160;&#160;&#160;&#160;SIGNALi(0,SID_ID);</text>
<polygon fill="none" stroke="black" points="26.39,-152 26.39,-271 297.39,-271 297.39,-152 26.39,-152"/>
</g>
<!-- 1&#45;&gt;karmaBoost -->
<g id="edge2" class="edge">
<title>1&#45;&gt;karmaBoost</title>
<path fill="none" stroke="black" d="M348.65,-123.54C336.19,-129.72 322.56,-138.99 315.39,-152 293.47,-191.8 300.22,-246.64 307.23,-279"/>
<polygon fill="black" stroke="black" points="303.98,-279.5 309.67,-288.44 310.8,-277.91 303.98,-279.5"/>
<text text-anchor="start" x="319.39" y="-210" font-family="Courier New" font-weight="bold" font-size="10.00" fill="orange">WAIT(0,SIG_ADD)</text>
</g>
<!-- 1&#45;&gt;karmaBoost -->
<g id="edge4" class="edge">
<title>1&#45;&gt;karmaBoost</title>
<path fill="none" stroke="black" d="M401.98,-133.94C407.03,-139.23 411.6,-145.33 414.39,-152 434.79,-200.8 444.99,-227.86 414.39,-271 406.08,-282.72 393.53,-290.54 380.11,-295.76"/>
<polygon fill="black" stroke="black" points="379.08,-292.75 370.73,-299.26 381.32,-299.38 379.08,-292.75"/>
<text text-anchor="start" x="437.39" y="-210" font-family="Courier New" font-weight="bold" font-size="10.00" fill="orange">WAIT(0,0)</text>
</g>
<!-- karmaDrain -->
<g id="node5" class="node">
<title>karmaDrain</title>
<ellipse fill="none" stroke="black" cx="375.39" cy="-18" rx="64.19" ry="18"/>
<text text-anchor="middle" x="375.39" y="-14.3" font-family="Courier New" font-size="14.00">karmaDrain</text>
</g>
<!-- 1&#45;&gt;karmaDrain -->
<g id="edge3" class="edge">
<title>1&#45;&gt;karmaDrain</title>
<path fill="none" stroke="black" d="M375.39,-91.43C375.39,-78.43 375.39,-61.32 375.39,-47"/>
<polygon fill="black" stroke="black" points="378.89,-47.23 375.39,-37.23 371.89,-47.23 378.89,-47.23"/>
<text text-anchor="start" x="379.39" y="-62" font-family="Courier New" font-weight="bold" font-size="10.00" fill="orange">WAIT(0,SIG_SUB)</text>
</g>
<!-- energyDrain -->
<g id="node6" class="node">
<title>energyDrain</title>
<polyline fill="none" stroke="darkred" points="473.89,-296.5 570.89,-296.5"/>
<text text-anchor="start" x="476.89" y="-304.3" font-family="Courier New" font-weight="bold" font-size="14.00">energyDrain</text>
<path fill="none" stroke="darkred" d="M479.89,-293.5C479.89,-293.5 564.89,-293.5 564.89,-293.5 569.39,-293.5 573.89,-298 573.89,-302.5 573.89,-302.5 573.89,-311.5 573.89,-311.5 573.89,-316 569.39,-320.5 564.89,-320.5 564.89,-320.5 479.89,-320.5 479.89,-320.5 475.39,-320.5 470.89,-316 470.89,-311.5 470.89,-311.5 470.89,-302.5 470.89,-302.5 470.89,-298 475.39,-293.5 479.89,-293.5"/>
</g>
<!-- energyDrain&#45;&gt;1 -->
<g id="edge5" class="edge">
<title>energyDrain&#45;&gt;1</title>
<path fill="none" stroke="black" d="M525.27,-289.33C529.61,-258.34 534.07,-191.43 500.39,-152 478.91,-126.85 441.4,-117.86 413.06,-114.78"/>
<polygon fill="black" stroke="black" points="413.59,-111.22 403.32,-113.84 412.98,-118.19 413.59,-111.22"/>
<polygon fill="none" stroke="black" points="530.39,-251 530.39,-268 753.39,-268 753.39,-251 530.39,-251"/>
<text text-anchor="start" x="599.39" y="-258" font-family="Courier New" font-weight="bold" font-size="10.00" fill="blue">ASSIGN(WPARM,)</text>
<polygon fill="none" stroke="black" points="530.39,-155 530.39,-249 753.39,-249 753.39,-155 530.39,-155"/>
<text text-anchor="start" x="533.39" y="-238" font-family="Courier New" font-size="10.00" fill="blue"> &#160;&#160;&#160;&#160;&#160;&#160;&#160;if(LKARMA &lt;= 0){</text>
<text text-anchor="start" x="533.39" y="-227" font-family="Courier New" font-size="10.00" fill="blue"> &#160;&#160;&#160;&#160;&#160;&#160;&#160;&#160;&#160;&#160;&#160;&#160;ASSIGN(LKARMA,1);</text>
<text text-anchor="start" x="533.39" y="-216" font-family="Courier New" font-size="10.00" fill="blue"> &#160;&#160;&#160;&#160;&#160;&#160;} &#160;&#160;&#160;&#160;&#160;</text>
<text text-anchor="start" x="533.39" y="-205" font-family="Courier New" font-size="10.00" fill="blue"> &#160;&#160;&#160;&#160;&#160;&#160;&#160;ASSIGN(BPARM,LKARMA);</text>
<text text-anchor="start" x="533.39" y="-194" font-family="Courier New" font-size="10.00" fill="blue"> &#160;&#160;&#160;&#160;&#160;&#160;&#160;MOV(WSPRITE,BPARM);</text>
<text text-anchor="start" x="533.39" y="-183" font-family="Courier New" font-size="10.00" fill="blue"> &#160;&#160;&#160;&#160;&#160;&#160;&#160;MAPi(WSPRITE,S00_KARMA_MAP);</text>
<text text-anchor="start" x="533.39" y="-172" font-family="Courier New" font-size="10.00" fill="blue"> &#160;&#160;&#160;&#160;&#160;&#160;&#160;ASHOW(WSPRITE);</text>
<text text-anchor="start" x="533.39" y="-161" font-family="Courier New" font-size="10.00" fill="blue"> &#160;&#160;&#160;&#160;&#160;&#160;&#160;SIGNALi(0,SID_ID);</text>
<polygon fill="none" stroke="black" points="527.39,-152 527.39,-271 756.39,-271 756.39,-152 527.39,-152"/>
</g>
<!-- status -->
<g id="node7" class="node">
<title>status</title>
<polygon fill="none" stroke="black" points="359.89,-380.5 359.89,-452.5 586.89,-452.5 586.89,-380.5 359.89,-380.5"/>
<polygon fill="none" stroke="black" points="370.89,-428.5 370.89,-445.5 575.89,-445.5 575.89,-428.5 370.89,-428.5"/>
<text text-anchor="start" x="448.89" y="-435.5" font-family="Courier New" font-weight="bold" font-size="10.00">SID_HALO</text>
<polygon fill="none" stroke="black" points="370.89,-387.5 370.89,-426.5 575.89,-426.5 575.89,-387.5 370.89,-387.5"/>
<text text-anchor="start" x="373.89" y="-415.5" font-family="Courier New" font-size="10.00" fill="green">VIEW::IDV_ID @pos(left:30, top:0)</text>
<text text-anchor="start" x="373.89" y="-404.5" font-family="Courier New" font-size="10.00" fill="green">SID_HALO::M_HALO(&#39;&#39;,&#39;&#39;,&#39;&#39;,&#39;&#39;)</text>
<text text-anchor="start" x="373.89" y="-393.5" font-family="Courier New" font-size="10.00" fill="green">{&#39;1&#39;: wSprite:HALA</text>
<polygon fill="none" stroke="black" points="367.89,-384.5 367.89,-448.5 578.89,-448.5 578.89,-384.5 367.89,-384.5"/>
</g>
</g>
</svg>
