<?xml version="1.0" encoding="UTF-8" standalone="no"?>
<!DOCTYPE svg PUBLIC "-//W3C//DTD SVG 1.1//EN"
 "http://www.w3.org/Graphics/SVG/1.1/DTD/svg11.dtd">
<!-- Generated by graphviz version 8.0.1 (20230327.1645)
 -->
<!-- Title: Automaton Pages: 1 -->
<svg width="1848pt" height="941pt"
 viewBox="0.00 0.00 1848.00 941.00" xmlns="http://www.w3.org/2000/svg" xmlns:xlink="http://www.w3.org/1999/xlink">
<g id="graph0" class="graph" transform="scale(1 1) rotate(0) translate(4 937)">
<title>Automaton</title>
<polygon fill="white" stroke="none" points="-4,4 -4,-937 1844,-937 1844,4 -4,4"/>
<!-- filename -->
<g id="node1" class="node">
<title>filename</title>
<polygon fill="none" stroke="black" points="626.5,-871.5 626.5,-921.5 745.5,-921.5 745.5,-871.5 626.5,-871.5"/>
<polygon fill="none" stroke="black" points="637.5,-897.5 637.5,-914.5 734.5,-914.5 734.5,-897.5 637.5,-897.5"/>
<text text-anchor="start" x="649.5" y="-904.5" font-family="Courier New" font-weight="bold" font-size="10.00">SID_ID::M_ID</text>
<polygon fill="none" stroke="black" points="637.5,-878.5 637.5,-895.5 734.5,-895.5 734.5,-878.5 637.5,-878.5"/>
<text text-anchor="start" x="640.5" y="-884.5" font-family="Courier New" font-size="10.00" fill="brown">start state = 0</text>
<polygon fill="none" stroke="black" points="634.5,-875.5 634.5,-917.5 737.5,-917.5 737.5,-875.5 634.5,-875.5"/>
</g>
<!-- 0 -->
<g id="node2" class="node">
<title>0</title>
<polyline fill="none" stroke="darkred" points="783.5,-886 798.5,-886"/>
<text text-anchor="start" x="786.5" y="-893.8" font-family="Courier New" font-weight="bold" font-size="14.00">0</text>
<path fill="none" stroke="darkred" d="M787.5,-883C787.5,-883 794.5,-883 794.5,-883 798,-883 801.5,-886.5 801.5,-890 801.5,-890 801.5,-903 801.5,-903 801.5,-906.5 798,-910 794.5,-910 794.5,-910 787.5,-910 787.5,-910 784,-910 780.5,-906.5 780.5,-903 780.5,-903 780.5,-890 780.5,-890 780.5,-886.5 784,-883 787.5,-883"/>
</g>
<!-- setId -->
<g id="node3" class="node">
<title>setId</title>
<polyline fill="none" stroke="darkred" points="767,-665.5 815,-665.5"/>
<text text-anchor="start" x="770" y="-673.3" font-family="Courier New" font-weight="bold" font-size="14.00">setId</text>
<path fill="none" stroke="darkred" d="M773,-662.5C773,-662.5 809,-662.5 809,-662.5 813.5,-662.5 818,-667 818,-671.5 818,-671.5 818,-680.5 818,-680.5 818,-685 813.5,-689.5 809,-689.5 809,-689.5 773,-689.5 773,-689.5 768.5,-689.5 764,-685 764,-680.5 764,-680.5 764,-671.5 764,-671.5 764,-667 768.5,-662.5 773,-662.5"/>
</g>
<!-- 0&#45;&gt;setId -->
<g id="edge1" class="edge">
<title>0&#45;&gt;setId</title>
<path fill="none" stroke="black" d="M791,-878.72C791,-841.3 791,-750.74 791,-704.77"/>
<polygon fill="black" stroke="black" points="794.5,-704.84 791,-694.84 787.5,-704.84 794.5,-704.84"/>
<polygon fill="none" stroke="black" points="794,-822 794,-839 1035,-839 1035,-822 794,-822"/>
<text text-anchor="start" x="872" y="-829" font-family="Courier New" font-weight="bold" font-size="10.00" fill="blue">EQUALi(LSEX,1)</text>
<polygon fill="none" stroke="black" points="794,-715 794,-820 1035,-820 1035,-715 794,-715"/>
<text text-anchor="start" x="797" y="-809" font-family="Courier New" font-size="10.00" fill="blue"> &#160;&#160;&#160;if(LWISDOM &gt;= 30){</text>
<text text-anchor="start" x="797" y="-798" font-family="Courier New" font-size="10.00" fill="blue"> &#160;&#160;&#160;&#160;&#160;&#160;ASSIGN(WPARM,F3);</text>
<text text-anchor="start" x="797" y="-787" font-family="Courier New" font-size="10.00" fill="blue"> &#160;&#160;&#160;}</text>
<text text-anchor="start" x="797" y="-776" font-family="Courier New" font-size="10.00" fill="blue"> &#160;&#160;&#160;&#160;if(LWISDOM &gt;= 20 &amp;&amp; LWISDOM &lt; 31){</text>
<text text-anchor="start" x="797" y="-765" font-family="Courier New" font-size="10.00" fill="blue"> &#160;&#160;&#160;&#160;&#160;&#160;&#160;ASSIGN(WPARM,F2);</text>
<text text-anchor="start" x="797" y="-754" font-family="Courier New" font-size="10.00" fill="blue"> &#160;&#160;&#160;}</text>
<text text-anchor="start" x="797" y="-743" font-family="Courier New" font-size="10.00" fill="blue"> &#160;&#160;&#160;if(LWISDOM &lt; 20){</text>
<text text-anchor="start" x="797" y="-732" font-family="Courier New" font-size="10.00" fill="blue"> &#160;&#160;&#160;&#160;&#160;&#160;ASSIGN(WPARM,F1);</text>
<text text-anchor="start" x="797" y="-721" font-family="Courier New" font-size="10.00" fill="blue"> &#160;&#160;&#160;}</text>
<polygon fill="none" stroke="black" points="791,-712 791,-842 1038,-842 1038,-712 791,-712"/>
</g>
<!-- 0&#45;&gt;setId -->
<g id="edge2" class="edge">
<title>0&#45;&gt;setId</title>
<path fill="none" stroke="black" d="M778.45,-878.72C772.22,-871.69 764.09,-864.19 755,-860 712.67,-840.48 577.52,-876.35 546,-842 506.94,-799.43 508.14,-755.65 546,-712 571.3,-682.83 681.81,-677.37 745.43,-676.7"/>
<polygon fill="black" stroke="black" points="745.38,-680.2 755.36,-676.63 745.33,-673.2 745.38,-680.2"/>
<polygon fill="none" stroke="black" points="549,-822 549,-839 784,-839 784,-822 549,-822"/>
<text text-anchor="start" x="621" y="-829" font-family="Courier New" font-weight="bold" font-size="10.00" fill="blue">NEQUALi(LSEX,1)</text>
<polygon fill="none" stroke="black" points="549,-715 549,-820 784,-820 784,-715 549,-715"/>
<text text-anchor="start" x="552" y="-809" font-family="Courier New" font-size="10.00" fill="blue"> &#160;&#160;&#160;if(LWISDOM &gt;= 30){</text>
<text text-anchor="start" x="552" y="-798" font-family="Courier New" font-size="10.00" fill="blue"> &#160;&#160;&#160;&#160;&#160;&#160;ASSIGN(WPARM,M3);</text>
<text text-anchor="start" x="552" y="-787" font-family="Courier New" font-size="10.00" fill="blue"> &#160;&#160;&#160;}</text>
<text text-anchor="start" x="552" y="-776" font-family="Courier New" font-size="10.00" fill="blue"> &#160;&#160;&#160;if(LWISDOM &gt;= 20 &amp;&amp; LWISDOM &lt; 31){</text>
<text text-anchor="start" x="552" y="-765" font-family="Courier New" font-size="10.00" fill="blue"> &#160;&#160;&#160;&#160;&#160;&#160;&#160;ASSIGN(WPARM,M2);</text>
<text text-anchor="start" x="552" y="-754" font-family="Courier New" font-size="10.00" fill="blue"> &#160;&#160;&#160;}</text>
<text text-anchor="start" x="552" y="-743" font-family="Courier New" font-size="10.00" fill="blue"> &#160;&#160;&#160;if(LWISDOM &lt; 20){</text>
<text text-anchor="start" x="552" y="-732" font-family="Courier New" font-size="10.00" fill="blue"> &#160;&#160;&#160;&#160;&#160;&#160;ASSIGN(WPARM,M1);</text>
<text text-anchor="start" x="552" y="-721" font-family="Courier New" font-size="10.00" fill="blue"> &#160;&#160;&#160;}</text>
<polygon fill="none" stroke="black" points="546,-712 546,-842 787,-842 787,-712 546,-712"/>
</g>
<!-- sitting -->
<g id="node20" class="node">
<title>sitting</title>
<polyline fill="none" stroke="darkred" stroke-width="3" points="889.5,-525.5 954.5,-525.5"/>
<text text-anchor="start" x="893" y="-533.8" font-family="Courier New" font-weight="bold" font-size="14.00">sitting</text>
<path fill="none" stroke="darkred" stroke-width="3" d="M895.17,-520.5C895.17,-520.5 948.83,-520.5 948.83,-520.5 954.17,-520.5 959.5,-525.83 959.5,-531.17 959.5,-531.17 959.5,-541.83 959.5,-541.83 959.5,-547.17 954.17,-552.5 948.83,-552.5 948.83,-552.5 895.17,-552.5 895.17,-552.5 889.83,-552.5 884.5,-547.17 884.5,-541.83 884.5,-541.83 884.5,-531.17 884.5,-531.17 884.5,-525.83 889.83,-520.5 895.17,-520.5"/>
</g>
<!-- setId&#45;&gt;sitting -->
<g id="edge19" class="edge">
<title>setId&#45;&gt;sitting</title>
<path fill="none" stroke="black" d="M807.06,-658.14C829.08,-635.03 868.9,-593.24 895.4,-565.42"/>
<polygon fill="black" stroke="black" points="897.46,-568.28 901.83,-558.62 892.4,-563.45 897.46,-568.28"/>
<polygon fill="none" stroke="black" points="886,-620 886,-637 1031,-637 1031,-620 886,-620"/>
<text text-anchor="start" x="895" y="-627" font-family="Courier New" font-weight="bold" font-size="10.00" fill="blue">ASSIGN(WSPRITE,happy)</text>
<polygon fill="none" stroke="black" points="886,-579 886,-618 1031,-618 1031,-579 886,-579"/>
<text text-anchor="start" x="889" y="-607" font-family="Courier New" font-size="10.00" fill="blue"> &#160;&#160;&#160;MAP(WSPRITE,WPARM);</text>
<text text-anchor="start" x="889" y="-596" font-family="Courier New" font-size="10.00" fill="blue"> &#160;&#160;&#160;ASSIGN(BFRAME,0);</text>
<text text-anchor="start" x="889" y="-585" font-family="Courier New" font-size="10.00" fill="blue"> &#160;&#160;&#160;SHOW(WSPRITE);</text>
<polygon fill="none" stroke="black" points="883,-576 883,-640 1034,-640 1034,-576 883,-576"/>
</g>
<!-- 100 -->
<g id="node4" class="node">
<title>100</title>
<polyline fill="none" stroke="darkred" points="138.5,-390 169.5,-390"/>
<text text-anchor="start" x="141.5" y="-397.8" font-family="Courier New" font-weight="bold" font-size="14.00">100</text>
<path fill="none" stroke="darkred" d="M144.5,-387C144.5,-387 163.5,-387 163.5,-387 168,-387 172.5,-391.5 172.5,-396 172.5,-396 172.5,-405 172.5,-405 172.5,-409.5 168,-414 163.5,-414 163.5,-414 144.5,-414 144.5,-414 140,-414 135.5,-409.5 135.5,-405 135.5,-405 135.5,-396 135.5,-396 135.5,-391.5 140,-387 144.5,-387"/>
</g>
<!-- empty -->
<g id="node5" class="node">
<title>empty</title>
<polyline fill="none" stroke="darkred" points="336,-220.5 384,-220.5"/>
<text text-anchor="start" x="339" y="-228.3" font-family="Courier New" font-weight="bold" font-size="14.00">empty</text>
<path fill="none" stroke="darkred" d="M342,-217.5C342,-217.5 378,-217.5 378,-217.5 382.5,-217.5 387,-222 387,-226.5 387,-226.5 387,-235.5 387,-235.5 387,-240 382.5,-244.5 378,-244.5 378,-244.5 342,-244.5 342,-244.5 337.5,-244.5 333,-240 333,-235.5 333,-235.5 333,-226.5 333,-226.5 333,-222 337.5,-217.5 342,-217.5"/>
</g>
<!-- 100&#45;&gt;empty -->
<g id="edge3" class="edge">
<title>100&#45;&gt;empty</title>
<path fill="none" stroke="black" d="M144.63,-382.55C131.98,-357.11 113.74,-309.04 139,-281 164.72,-252.45 274.7,-275.61 311,-263 317.09,-260.88 323.2,-257.89 328.94,-254.58"/>
<polygon fill="black" stroke="black" points="330.54,-257.08 337.18,-248.83 326.84,-251.14 330.54,-257.08"/>
<polygon fill="none" stroke="black" points="142,-303 142,-320 311,-320 311,-303 142,-303"/>
<text text-anchor="start" x="199" y="-310" font-family="Courier New" font-weight="bold" font-size="10.00" fill="blue">SHOW(0,0)</text>
<polygon fill="none" stroke="black" points="142,-284 142,-301 311,-301 311,-284 142,-284"/>
<text text-anchor="start" x="145" y="-290" font-family="Courier New" font-size="10.00" fill="blue"> &#160;&#160;&#160;SIGNAL(WIP4,SIG_CLEAR);</text>
<polygon fill="none" stroke="black" points="139,-281 139,-323 314,-323 314,-281 139,-281"/>
</g>
<!-- empty&#45;&gt;sitting -->
<g id="edge15" class="edge">
<title>empty&#45;&gt;sitting</title>
<path fill="none" stroke="black" d="M352.97,-248.74C337.03,-289.62 303.18,-395.87 352,-460 382.8,-500.45 725.58,-524.34 864.27,-532.4"/>
<polygon fill="black" stroke="black" points="863.9,-535.94 874.08,-533.02 864.3,-528.96 863.9,-535.94"/>
<text text-anchor="start" x="356" y="-399" font-family="Courier New" font-weight="bold" font-size="10.00" fill="orange">WAIT(,SIG_SHOW)</text>
</g>
<!-- 20 -->
<g id="node6" class="node">
<title>20</title>
<polyline fill="none" stroke="darkred" points="702.5,-291.5 725.5,-291.5"/>
<text text-anchor="start" x="705.5" y="-299.3" font-family="Courier New" font-weight="bold" font-size="14.00">20</text>
<path fill="none" stroke="darkred" d="M708.5,-288.5C708.5,-288.5 719.5,-288.5 719.5,-288.5 724,-288.5 728.5,-293 728.5,-297.5 728.5,-297.5 728.5,-306.5 728.5,-306.5 728.5,-311 724,-315.5 719.5,-315.5 719.5,-315.5 708.5,-315.5 708.5,-315.5 704,-315.5 699.5,-311 699.5,-306.5 699.5,-306.5 699.5,-297.5 699.5,-297.5 699.5,-293 704,-288.5 708.5,-288.5"/>
</g>
<!-- playForward -->
<g id="node7" class="node">
<title>playForward</title>
<polyline fill="none" stroke="darkred" points="1091.5,-7.5 1188.5,-7.5"/>
<text text-anchor="start" x="1094.5" y="-15.3" font-family="Courier New" font-weight="bold" font-size="14.00">playForward</text>
<path fill="none" stroke="darkred" d="M1097.5,-4.5C1097.5,-4.5 1182.5,-4.5 1182.5,-4.5 1187,-4.5 1191.5,-9 1191.5,-13.5 1191.5,-13.5 1191.5,-22.5 1191.5,-22.5 1191.5,-27 1187,-31.5 1182.5,-31.5 1182.5,-31.5 1097.5,-31.5 1097.5,-31.5 1093,-31.5 1088.5,-27 1088.5,-22.5 1088.5,-22.5 1088.5,-13.5 1088.5,-13.5 1088.5,-9 1093,-4.5 1097.5,-4.5"/>
</g>
<!-- 20&#45;&gt;playForward -->
<g id="edge4" class="edge">
<title>20&#45;&gt;playForward</title>
<path fill="none" stroke="black" d="M711.97,-284.06C709.18,-252.57 707.98,-184.64 743,-145 826.42,-50.58 980.18,-26.32 1069.9,-20.45"/>
<polygon fill="black" stroke="black" points="1070.01,-23.9 1079.78,-19.81 1069.59,-16.91 1070.01,-23.9"/>
<text text-anchor="start" x="747" y="-161.5" font-family="Courier New" font-weight="bold" font-size="10.00" fill="blue">ASSIGN(WSPRITE,happy)</text>
</g>
<!-- playForward&#45;&gt;sitting -->
<g id="edge17" class="edge">
<title>playForward&#45;&gt;sitting</title>
<path fill="none" stroke="black" d="M1080.71,-20.49C846.71,-26.77 0,-53.25 0,-108 0,-401.5 0,-401.5 0,-401.5 0,-492.46 93.31,-472.85 181,-497 309.28,-532.32 713.05,-535.71 864.16,-535.7"/>
<polygon fill="black" stroke="black" points="864.02,-539.2 874.02,-535.69 864.02,-532.2 864.02,-539.2"/>
<polygon fill="none" stroke="black" points="3,-243 3,-260 304,-260 304,-243 3,-243"/>
<text text-anchor="start" x="105" y="-250" font-family="Courier New" font-weight="bold" font-size="10.00" fill="blue">ASSIGN(BFRAME,0)</text>
<polygon fill="none" stroke="black" points="3,-202 3,-241 304,-241 304,-202 3,-202"/>
<text text-anchor="start" x="6" y="-230" font-family="Courier New" font-size="10.00" fill="blue"> &#160;&#160;&#160;MAP(WSPRITE,WPARM);</text>
<text text-anchor="start" x="6" y="-219" font-family="Courier New" font-size="10.00" fill="blue"> &#160;&#160;&#160;SHOW(WSPRITE);</text>
<text text-anchor="start" x="6" y="-208" font-family="Courier New" font-size="10.00" fill="blue"> &#160;&#160;&#160;ANIMATE(0,V_REWIND); //PLAY FORWARD THEN BACK</text>
<polygon fill="none" stroke="black" points="0,-199 0,-263 307,-263 307,-199 0,-199"/>
</g>
<!-- 21 -->
<g id="node8" class="node">
<title>21</title>
<polyline fill="none" stroke="darkred" points="1212.5,-98.5 1235.5,-98.5"/>
<text text-anchor="start" x="1215.5" y="-106.3" font-family="Courier New" font-weight="bold" font-size="14.00">21</text>
<path fill="none" stroke="darkred" d="M1218.5,-95.5C1218.5,-95.5 1229.5,-95.5 1229.5,-95.5 1234,-95.5 1238.5,-100 1238.5,-104.5 1238.5,-104.5 1238.5,-113.5 1238.5,-113.5 1238.5,-118 1234,-122.5 1229.5,-122.5 1229.5,-122.5 1218.5,-122.5 1218.5,-122.5 1214,-122.5 1209.5,-118 1209.5,-113.5 1209.5,-113.5 1209.5,-104.5 1209.5,-104.5 1209.5,-100 1214,-95.5 1218.5,-95.5"/>
</g>
<!-- 21&#45;&gt;playForward -->
<g id="edge5" class="edge">
<title>21&#45;&gt;playForward</title>
<path fill="none" stroke="black" d="M1208.2,-91.26C1195.61,-77.92 1177.79,-59.04 1163.52,-43.92"/>
<polygon fill="black" stroke="black" points="1166.42,-41.84 1157.01,-36.97 1161.33,-46.64 1166.42,-41.84"/>
<text text-anchor="start" x="1193" y="-62" font-family="Courier New" font-weight="bold" font-size="10.00" fill="blue">ASSIGN(WSPRITE,hurt)</text>
</g>
<!-- 22 -->
<g id="node9" class="node">
<title>22</title>
<polyline fill="none" stroke="darkred" points="647.5,-390 670.5,-390"/>
<text text-anchor="start" x="650.5" y="-397.8" font-family="Courier New" font-weight="bold" font-size="14.00">22</text>
<path fill="none" stroke="darkred" d="M653.5,-387C653.5,-387 664.5,-387 664.5,-387 669,-387 673.5,-391.5 673.5,-396 673.5,-396 673.5,-405 673.5,-405 673.5,-409.5 669,-414 664.5,-414 664.5,-414 653.5,-414 653.5,-414 649,-414 644.5,-409.5 644.5,-405 644.5,-405 644.5,-396 644.5,-396 644.5,-391.5 649,-387 653.5,-387"/>
</g>
<!-- playOnce -->
<g id="node10" class="node">
<title>playOnce</title>
<polyline fill="none" stroke="darkred" points="457.5,-220.5 530.5,-220.5"/>
<text text-anchor="start" x="460.5" y="-228.3" font-family="Courier New" font-weight="bold" font-size="14.00">playOnce</text>
<path fill="none" stroke="darkred" d="M463.5,-217.5C463.5,-217.5 524.5,-217.5 524.5,-217.5 529,-217.5 533.5,-222 533.5,-226.5 533.5,-226.5 533.5,-235.5 533.5,-235.5 533.5,-240 529,-244.5 524.5,-244.5 524.5,-244.5 463.5,-244.5 463.5,-244.5 459,-244.5 454.5,-240 454.5,-235.5 454.5,-235.5 454.5,-226.5 454.5,-226.5 454.5,-222 459,-217.5 463.5,-217.5"/>
</g>
<!-- 22&#45;&gt;playOnce -->
<g id="edge6" class="edge">
<title>22&#45;&gt;playOnce</title>
<path fill="none" stroke="black" d="M651.31,-382.64C644.42,-369.39 633.07,-351.48 618,-341 591.97,-322.91 574.4,-341.96 549,-323 527.33,-306.83 512.45,-279.37 503.69,-258.84"/>
<polygon fill="black" stroke="black" points="506.64,-257.8 499.66,-249.83 500.15,-260.41 506.64,-257.8"/>
<text text-anchor="start" x="553" y="-300.5" font-family="Courier New" font-weight="bold" font-size="10.00" fill="blue">ASSIGN(WSPRITE,kiss)</text>
</g>
<!-- playOnce&#45;&gt;sitting -->
<g id="edge18" class="edge">
<title>playOnce&#45;&gt;sitting</title>
<path fill="none" stroke="black" d="M486.25,-248.79C469.18,-288.45 432.85,-389.86 472,-460 509.69,-527.53 751.65,-535.97 864.37,-536.17"/>
<polygon fill="black" stroke="black" points="864.19,-539.67 874.19,-536.17 864.19,-532.67 864.19,-539.67"/>
<polygon fill="none" stroke="black" points="475,-412.5 475,-429.5 620,-429.5 620,-412.5 475,-412.5"/>
<text text-anchor="start" x="499" y="-419.5" font-family="Courier New" font-weight="bold" font-size="10.00" fill="blue">ASSIGN(BFRAME,0)</text>
<polygon fill="none" stroke="black" points="475,-371.5 475,-410.5 620,-410.5 620,-371.5 475,-371.5"/>
<text text-anchor="start" x="478" y="-399.5" font-family="Courier New" font-size="10.00" fill="blue"> &#160;&#160;&#160;MAP(WSPRITE,WPARM);</text>
<text text-anchor="start" x="478" y="-388.5" font-family="Courier New" font-size="10.00" fill="blue"> &#160;&#160;&#160;SHOW(0,WSPRITE);</text>
<text text-anchor="start" x="478" y="-377.5" font-family="Courier New" font-size="10.00" fill="blue"> &#160;&#160;&#160;ANIMATE(0,0);</text>
<polygon fill="none" stroke="black" points="472,-368.5 472,-432.5 623,-432.5 623,-368.5 472,-368.5"/>
</g>
<!-- 23 -->
<g id="node11" class="node">
<title>23</title>
<polyline fill="none" stroke="darkred" points="761.5,-291.5 784.5,-291.5"/>
<text text-anchor="start" x="764.5" y="-299.3" font-family="Courier New" font-weight="bold" font-size="14.00">23</text>
<path fill="none" stroke="darkred" d="M767.5,-288.5C767.5,-288.5 778.5,-288.5 778.5,-288.5 783,-288.5 787.5,-293 787.5,-297.5 787.5,-297.5 787.5,-306.5 787.5,-306.5 787.5,-311 783,-315.5 778.5,-315.5 778.5,-315.5 767.5,-315.5 767.5,-315.5 763,-315.5 758.5,-311 758.5,-306.5 758.5,-306.5 758.5,-297.5 758.5,-297.5 758.5,-293 763,-288.5 767.5,-288.5"/>
</g>
<!-- 23&#45;&gt;playForward -->
<g id="edge7" class="edge">
<title>23&#45;&gt;playForward</title>
<path fill="none" stroke="black" d="M786.67,-284.15C811.67,-253.98 867.34,-189.7 923,-145 983.5,-96.41 1004.35,-92 1072,-54 1079.74,-49.65 1088.07,-45.19 1096.16,-40.97"/>
<polygon fill="black" stroke="black" points="1097.57,-43.66 1104.84,-35.97 1094.35,-37.45 1097.57,-43.66"/>
<text text-anchor="start" x="927" y="-161.5" font-family="Courier New" font-weight="bold" font-size="10.00" fill="blue">ASSIGN(WSPRITE,mad)</text>
</g>
<!-- 24 -->
<g id="node12" class="node">
<title>24</title>
<polyline fill="none" stroke="darkred" points="1070.5,-152.5 1093.5,-152.5"/>
<text text-anchor="start" x="1073.5" y="-160.3" font-family="Courier New" font-weight="bold" font-size="14.00">24</text>
<path fill="none" stroke="darkred" d="M1076.5,-149.5C1076.5,-149.5 1087.5,-149.5 1087.5,-149.5 1092,-149.5 1096.5,-154 1096.5,-158.5 1096.5,-158.5 1096.5,-167.5 1096.5,-167.5 1096.5,-172 1092,-176.5 1087.5,-176.5 1087.5,-176.5 1076.5,-176.5 1076.5,-176.5 1072,-176.5 1067.5,-172 1067.5,-167.5 1067.5,-167.5 1067.5,-158.5 1067.5,-158.5 1067.5,-154 1072,-149.5 1076.5,-149.5"/>
</g>
<!-- 24&#45;&gt;playForward -->
<g id="edge8" class="edge">
<title>24&#45;&gt;playForward</title>
<path fill="none" stroke="black" d="M1072.12,-145.14C1064.86,-130.43 1057.45,-108.72 1065,-91 1073.3,-71.53 1089.74,-54.78 1105.11,-42.36"/>
<polygon fill="black" stroke="black" points="1106.7,-44.78 1112.49,-35.91 1102.43,-39.24 1106.7,-44.78"/>
<text text-anchor="start" x="1069" y="-107.5" font-family="Courier New" font-weight="bold" font-size="10.00" fill="blue">ASSIGN(WSPRITE,sad)</text>
</g>
<!-- 25 -->
<g id="node13" class="node">
<title>25</title>
<polyline fill="none" stroke="darkred" points="1474.5,-291.5 1497.5,-291.5"/>
<text text-anchor="start" x="1477.5" y="-299.3" font-family="Courier New" font-weight="bold" font-size="14.00">25</text>
<path fill="none" stroke="darkred" d="M1480.5,-288.5C1480.5,-288.5 1491.5,-288.5 1491.5,-288.5 1496,-288.5 1500.5,-293 1500.5,-297.5 1500.5,-297.5 1500.5,-306.5 1500.5,-306.5 1500.5,-311 1496,-315.5 1491.5,-315.5 1491.5,-315.5 1480.5,-315.5 1480.5,-315.5 1476,-315.5 1471.5,-311 1471.5,-306.5 1471.5,-306.5 1471.5,-297.5 1471.5,-297.5 1471.5,-293 1476,-288.5 1480.5,-288.5"/>
</g>
<!-- 25&#45;&gt;playForward -->
<g id="edge9" class="edge">
<title>25&#45;&gt;playForward</title>
<path fill="none" stroke="black" d="M1472.93,-284.05C1455.66,-261.27 1424.77,-219.23 1402,-181 1367.86,-123.69 1377.75,-90.63 1322,-54 1289.1,-32.38 1246.08,-23.43 1210.13,-19.98"/>
<polygon fill="black" stroke="black" points="1210.47,-16.41 1200.21,-19.08 1209.89,-23.39 1210.47,-16.41"/>
<text text-anchor="start" x="1406" y="-161.5" font-family="Courier New" font-weight="bold" font-size="10.00" fill="blue">ASSIGN(WSPRITE,surprised)</text>
</g>
<!-- 26 -->
<g id="node14" class="node">
<title>26</title>
<polyline fill="none" stroke="darkred" points="1585.5,-152.5 1608.5,-152.5"/>
<text text-anchor="start" x="1588.5" y="-160.3" font-family="Courier New" font-weight="bold" font-size="14.00">26</text>
<path fill="none" stroke="darkred" d="M1591.5,-149.5C1591.5,-149.5 1602.5,-149.5 1602.5,-149.5 1607,-149.5 1611.5,-154 1611.5,-158.5 1611.5,-158.5 1611.5,-167.5 1611.5,-167.5 1611.5,-172 1607,-176.5 1602.5,-176.5 1602.5,-176.5 1591.5,-176.5 1591.5,-176.5 1587,-176.5 1582.5,-172 1582.5,-167.5 1582.5,-167.5 1582.5,-158.5 1582.5,-158.5 1582.5,-154 1587,-149.5 1591.5,-149.5"/>
</g>
<!-- 26&#45;&gt;playForward -->
<g id="edge10" class="edge">
<title>26&#45;&gt;playForward</title>
<path fill="none" stroke="black" d="M1570.04,-146.98C1568.68,-146.3 1567.33,-145.63 1566,-145 1546.93,-135.91 1540.49,-137.22 1522,-127 1473.2,-100.04 1471.92,-74.3 1420,-54 1382.97,-39.52 1280.33,-29.33 1210.17,-23.81"/>
<polygon fill="black" stroke="black" points="1210.44,-20.25 1200.21,-22.97 1209.91,-27.23 1210.44,-20.25"/>
<text text-anchor="start" x="1526" y="-107.5" font-family="Courier New" font-weight="bold" font-size="10.00" fill="blue">ASSIGN(WSPRITE,stress)</text>
</g>
<!-- 27 -->
<g id="node15" class="node">
<title>27</title>
<polyline fill="none" stroke="darkred" points="1687.5,-98.5 1710.5,-98.5"/>
<text text-anchor="start" x="1690.5" y="-106.3" font-family="Courier New" font-weight="bold" font-size="14.00">27</text>
<path fill="none" stroke="darkred" d="M1693.5,-95.5C1693.5,-95.5 1704.5,-95.5 1704.5,-95.5 1709,-95.5 1713.5,-100 1713.5,-104.5 1713.5,-104.5 1713.5,-113.5 1713.5,-113.5 1713.5,-118 1709,-122.5 1704.5,-122.5 1704.5,-122.5 1693.5,-122.5 1693.5,-122.5 1689,-122.5 1684.5,-118 1684.5,-113.5 1684.5,-113.5 1684.5,-104.5 1684.5,-104.5 1684.5,-100 1689,-95.5 1693.5,-95.5"/>
</g>
<!-- 27&#45;&gt;playForward -->
<g id="edge11" class="edge">
<title>27&#45;&gt;playForward</title>
<path fill="none" stroke="black" d="M1672.02,-98.75C1635.19,-86.52 1566.91,-65.19 1507,-54 1404.61,-34.88 1284.08,-25.92 1209.86,-21.94"/>
<polygon fill="black" stroke="black" points="1210.42,-18.41 1200.25,-21.38 1210.05,-25.4 1210.42,-18.41"/>
<text text-anchor="start" x="1590" y="-62" font-family="Courier New" font-weight="bold" font-size="10.00" fill="blue">ASSIGN(WSPRITE,wave)</text>
</g>
<!-- 30 -->
<g id="node16" class="node">
<title>30</title>
<polyline fill="none" stroke="darkred" points="1047.5,-390 1070.5,-390"/>
<text text-anchor="start" x="1050.5" y="-397.8" font-family="Courier New" font-weight="bold" font-size="14.00">30</text>
<path fill="none" stroke="darkred" d="M1053.5,-387C1053.5,-387 1064.5,-387 1064.5,-387 1069,-387 1073.5,-391.5 1073.5,-396 1073.5,-396 1073.5,-405 1073.5,-405 1073.5,-409.5 1069,-414 1064.5,-414 1064.5,-414 1053.5,-414 1053.5,-414 1049,-414 1044.5,-409.5 1044.5,-405 1044.5,-405 1044.5,-396 1044.5,-396 1044.5,-391.5 1049,-387 1053.5,-387"/>
</g>
<!-- playDead -->
<g id="node17" class="node">
<title>playDead</title>
<polyline fill="none" stroke="darkred" points="930.5,-220.5 1003.5,-220.5"/>
<text text-anchor="start" x="933.5" y="-228.3" font-family="Courier New" font-weight="bold" font-size="14.00">playDead</text>
<path fill="none" stroke="darkred" d="M936.5,-217.5C936.5,-217.5 997.5,-217.5 997.5,-217.5 1002,-217.5 1006.5,-222 1006.5,-226.5 1006.5,-226.5 1006.5,-235.5 1006.5,-235.5 1006.5,-240 1002,-244.5 997.5,-244.5 997.5,-244.5 936.5,-244.5 936.5,-244.5 932,-244.5 927.5,-240 927.5,-235.5 927.5,-235.5 927.5,-226.5 927.5,-226.5 927.5,-222 932,-217.5 936.5,-217.5"/>
</g>
<!-- 30&#45;&gt;playDead -->
<g id="edge12" class="edge">
<title>30&#45;&gt;playDead</title>
<path fill="none" stroke="black" d="M1050.34,-382.55C1043.12,-369.77 1031.8,-352.53 1018,-341 1003.35,-328.76 990.32,-338.37 979,-323 965.71,-304.96 963.4,-279.28 964.02,-259.8"/>
<polygon fill="black" stroke="black" points="967.57,-260.07 964.68,-249.87 960.58,-259.64 967.57,-260.07"/>
<text text-anchor="start" x="983" y="-300.5" font-family="Courier New" font-weight="bold" font-size="10.00" fill="blue">ASSIGN(WSPRITE,dead)</text>
</g>
<!-- playDead&#45;&gt;sitting -->
<g id="edge16" class="edge">
<title>playDead&#45;&gt;sitting</title>
<path fill="none" stroke="black" d="M928.48,-248.93C893.98,-266.43 845.61,-297.36 824,-341 800.53,-388.4 790.75,-418.87 824,-460 848,-489.69 880.63,-451.38 908,-478 915.12,-484.92 918.86,-494.81 920.75,-504.44"/>
<polygon fill="black" stroke="black" points="917.38,-504.6 922.19,-514.03 924.31,-503.65 917.38,-504.6"/>
<polygon fill="none" stroke="black" points="827,-440 827,-457 1020,-457 1020,-440 827,-440"/>
<text text-anchor="start" x="875" y="-447" font-family="Courier New" font-weight="bold" font-size="10.00" fill="blue">ASSIGN(BFRAME,0)</text>
<polygon fill="none" stroke="black" points="827,-344 827,-438 1020,-438 1020,-344 827,-344"/>
<text text-anchor="start" x="830" y="-427" font-family="Courier New" font-size="10.00" fill="blue"> &#160;&#160;&#160;MAP(WSPRITE,WPARM);</text>
<text text-anchor="start" x="830" y="-416" font-family="Courier New" font-size="10.00" fill="blue"> &#160;&#160;&#160;SHOW(0,WSPRITE);</text>
<text text-anchor="start" x="830" y="-405" font-family="Courier New" font-size="10.00" fill="blue"> &#160;&#160;&#160;VIDEO(0,WSPRITE);</text>
<text text-anchor="start" x="830" y="-394" font-family="Courier New" font-size="10.00" fill="blue"> &#160;&#160;&#160;ANIMATE(0,0);</text>
<text text-anchor="start" x="830" y="-383" font-family="Courier New" font-size="10.00" fill="blue"> &#160;&#160;&#160;ASSIGN(LENERGY,1);</text>
<text text-anchor="start" x="830" y="-372" font-family="Courier New" font-size="10.00" fill="blue"> &#160;&#160;&#160;ASSIGN(LWEALTH,0);</text>
<text text-anchor="start" x="830" y="-361" font-family="Courier New" font-size="10.00" fill="blue"> &#160;&#160;&#160;SIGNAL(SMP_VIAL,SIG_DRAIN);</text>
<text text-anchor="start" x="830" y="-350" font-family="Courier New" font-size="10.00" fill="blue"> &#160;&#160;&#160;LOADVIEW(IDV_VIL8);</text>
<polygon fill="none" stroke="black" points="824,-341 824,-460 1023,-460 1023,-341 824,-341"/>
</g>
<!-- 50 -->
<g id="node18" class="node">
<title>50</title>
<polyline fill="none" stroke="darkred" points="1302.5,-390 1325.5,-390"/>
<text text-anchor="start" x="1305.5" y="-397.8" font-family="Courier New" font-weight="bold" font-size="14.00">50</text>
<path fill="none" stroke="darkred" d="M1308.5,-387C1308.5,-387 1319.5,-387 1319.5,-387 1324,-387 1328.5,-391.5 1328.5,-396 1328.5,-396 1328.5,-405 1328.5,-405 1328.5,-409.5 1324,-414 1319.5,-414 1319.5,-414 1308.5,-414 1308.5,-414 1304,-414 1299.5,-409.5 1299.5,-405 1299.5,-405 1299.5,-396 1299.5,-396 1299.5,-391.5 1304,-387 1308.5,-387"/>
</g>
<!-- 51 -->
<g id="node19" class="node">
<title>51</title>
<polyline fill="none" stroke="darkred" points="1271.5,-220.5 1294.5,-220.5"/>
<text text-anchor="start" x="1274.5" y="-228.3" font-family="Courier New" font-weight="bold" font-size="14.00">51</text>
<path fill="none" stroke="darkred" d="M1277.5,-217.5C1277.5,-217.5 1288.5,-217.5 1288.5,-217.5 1293,-217.5 1297.5,-222 1297.5,-226.5 1297.5,-226.5 1297.5,-235.5 1297.5,-235.5 1297.5,-240 1293,-244.5 1288.5,-244.5 1288.5,-244.5 1277.5,-244.5 1277.5,-244.5 1273,-244.5 1268.5,-240 1268.5,-235.5 1268.5,-235.5 1268.5,-226.5 1268.5,-226.5 1268.5,-222 1273,-217.5 1277.5,-217.5"/>
</g>
<!-- 50&#45;&gt;51 -->
<g id="edge13" class="edge">
<title>50&#45;&gt;51</title>
<path fill="none" stroke="black" d="M1312.34,-382.89C1309.87,-359.85 1304.68,-316.98 1297,-281 1295.47,-273.85 1293.47,-266.2 1291.46,-259.13"/>
<polygon fill="black" stroke="black" points="1294.55,-258.24 1288.36,-249.64 1287.84,-260.22 1294.55,-258.24"/>
<text text-anchor="start" x="1308" y="-300.5" font-family="Courier New" font-weight="bold" font-size="10.00" fill="blue">VIDEO(0,IDS_EXPLODE1)</text>
</g>
<!-- 51&#45;&gt;21 -->
<g id="edge14" class="edge">
<title>51&#45;&gt;21</title>
<path fill="none" stroke="black" d="M1256.1,-214.68C1244.27,-206.38 1231.59,-194.94 1225,-181 1218.7,-167.68 1218.07,-151.32 1219.18,-137.66"/>
<polygon fill="black" stroke="black" points="1222.75,-138.29 1220.44,-127.95 1215.8,-137.47 1222.75,-138.29"/>
<text text-anchor="start" x="1229" y="-161.5" font-family="Courier New" font-weight="bold" font-size="10.00" fill="blue">PLAYWAVE(0,SOUND_EXPLODE)</text>
</g>
<!-- sitting&#45;&gt;0 -->
<g id="edge31" class="edge">
<title>sitting&#45;&gt;0</title>
<path fill="none" stroke="black" d="M968.9,-540.42C993.7,-544.64 1022.21,-554.29 1038,-576 1039.44,-577.98 1042.06,-838.67 1039,-842 1007.17,-876.66 870.87,-840.6 828,-860 822.08,-862.68 816.52,-866.72 811.61,-871.13"/>
<polygon fill="black" stroke="black" points="809.61,-868.18 804.99,-877.71 814.54,-873.14 809.61,-868.18"/>
<text text-anchor="start" x="1044" y="-674.5" font-family="Courier New" font-weight="bold" font-size="10.00" fill="orange">WAIT(0,0)</text>
</g>
<!-- sitting&#45;&gt;100 -->
<g id="edge30" class="edge">
<title>sitting&#45;&gt;100</title>
<path fill="none" stroke="black" d="M875.09,-535.67C724.39,-535.84 259.15,-533.4 203,-497 179.46,-481.74 166.66,-451.4 160.11,-428.99"/>
<polygon fill="black" stroke="black" points="163.25,-428.19 157.3,-419.42 156.49,-429.99 163.25,-428.19"/>
<text text-anchor="start" x="207" y="-486" font-family="Courier New" font-weight="bold" font-size="10.00" fill="orange">WAIT(0,SIG_CLEAR)</text>
</g>
<!-- sitting&#45;&gt;20 -->
<g id="edge20" class="edge">
<title>sitting&#45;&gt;20</title>
<path fill="none" stroke="black" d="M875.21,-535.01C811.83,-533.25 703.72,-525.95 679,-497 673.52,-490.58 676,-485.89 679,-478 682.8,-468 690.6,-469.76 695,-460 713.99,-417.87 716.22,-363.26 715.52,-330.8"/>
<polygon fill="black" stroke="black" points="718.99,-330.79 715.16,-320.91 712,-331.02 718.99,-330.79"/>
<text text-anchor="start" x="683" y="-486" font-family="Courier New" font-weight="bold" font-size="10.00" fill="orange">WAIT(0,SIG_HAPPY)</text>
</g>
<!-- sitting&#45;&gt;21 -->
<g id="edge21" class="edge">
<title>sitting&#45;&gt;21</title>
<path fill="none" stroke="black" d="M968.92,-531.17C1046.52,-522.88 1195.92,-501.77 1225,-460 1255.22,-416.6 1253.05,-385.84 1225,-341 1215.3,-325.5 1197.7,-338.5 1188,-323 1178.1,-307.17 1186.24,-299.58 1188,-281 1193.8,-219.74 1199.75,-204.87 1214,-145 1214.6,-142.46 1215.28,-139.82 1215.97,-137.2"/>
<polygon fill="black" stroke="black" points="1219.6,-138.23 1218.91,-127.65 1212.86,-136.35 1219.6,-138.23"/>
<text text-anchor="start" x="1192" y="-300.5" font-family="Courier New" font-weight="bold" font-size="10.00" fill="orange">WAIT(0,SIG_HURT)</text>
</g>
<!-- sitting&#45;&gt;22 -->
<g id="edge22" class="edge">
<title>sitting&#45;&gt;22</title>
<path fill="none" stroke="black" d="M875.23,-534.13C779.56,-530.85 568.62,-520.96 547,-497 508.33,-454.15 571.76,-491.9 618,-460 629.69,-451.94 639.12,-439.39 645.98,-427.98"/>
<polygon fill="black" stroke="black" points="649.51,-429.82 651.33,-419.39 643.4,-426.41 649.51,-429.82"/>
<text text-anchor="start" x="551" y="-486" font-family="Courier New" font-weight="bold" font-size="10.00" fill="orange">WAIT(0,SIG_KISS)</text>
</g>
<!-- sitting&#45;&gt;23 -->
<g id="edge23" class="edge">
<title>sitting&#45;&gt;23</title>
<path fill="none" stroke="black" d="M875.12,-528.6C852.81,-523.23 827.12,-513.73 809,-497 762.77,-454.32 764.35,-373.03 768.93,-330.49"/>
<polygon fill="black" stroke="black" points="772.49,-331.18 770.23,-320.83 765.54,-330.33 772.49,-331.18"/>
<text text-anchor="start" x="813" y="-486" font-family="Courier New" font-weight="bold" font-size="10.00" fill="orange">WAIT(0,SIG_MAD)</text>
</g>
<!-- sitting&#45;&gt;24 -->
<g id="edge24" class="edge">
<title>sitting&#45;&gt;24</title>
<path fill="none" stroke="black" d="M968.57,-532.35C1017.53,-527.95 1089.81,-518.01 1107,-497 1137.39,-459.85 1113.24,-328.71 1108,-281 1104.59,-249.89 1096.21,-214.96 1089.88,-191.43"/>
<polygon fill="black" stroke="black" points="1093,-190.57 1086.97,-181.86 1086.25,-192.43 1093,-190.57"/>
<text text-anchor="start" x="1126" y="-399" font-family="Courier New" font-weight="bold" font-size="10.00" fill="orange">WAIT(0,SIG_SAD)</text>
</g>
<!-- sitting&#45;&gt;25 -->
<g id="edge25" class="edge">
<title>sitting&#45;&gt;25</title>
<path fill="none" stroke="black" d="M968.85,-534.2C1080.16,-530.76 1353.79,-520.04 1388,-497 1445.89,-458.01 1471.29,-374.08 1480.92,-330.51"/>
<polygon fill="black" stroke="black" points="1484.53,-331.36 1483.14,-320.86 1477.68,-329.94 1484.53,-331.36"/>
<text text-anchor="start" x="1414" y="-486" font-family="Courier New" font-weight="bold" font-size="10.00" fill="orange">WAIT(0,SIG_SURPRISED)</text>
</g>
<!-- sitting&#45;&gt;26 -->
<g id="edge26" class="edge">
<title>sitting&#45;&gt;26</title>
<path fill="none" stroke="black" d="M968.66,-535.93C1106.29,-536.73 1503.68,-535.66 1546,-497 1551.68,-491.81 1582.54,-269.71 1593.3,-191.17"/>
<polygon fill="black" stroke="black" points="1596.85,-192.05 1594.74,-181.67 1589.91,-191.1 1596.85,-192.05"/>
<text text-anchor="start" x="1576" y="-399" font-family="Courier New" font-weight="bold" font-size="10.00" fill="orange">WAIT(0,SIG_STRESS)</text>
</g>
<!-- sitting&#45;&gt;27 -->
<g id="edge27" class="edge">
<title>sitting&#45;&gt;27</title>
<path fill="none" stroke="black" d="M968.94,-534.75C1129.11,-531.69 1646.72,-517.39 1691,-460 1765.96,-362.85 1727.67,-201.27 1708.13,-137.29"/>
<polygon fill="black" stroke="black" points="1711.18,-136.34 1704.84,-127.86 1704.51,-138.45 1711.18,-136.34"/>
<text text-anchor="start" x="1739" y="-300.5" font-family="Courier New" font-weight="bold" font-size="10.00" fill="orange">WAIT(0,SIG_WAVE)</text>
</g>
<!-- sitting&#45;&gt;30 -->
<g id="edge28" class="edge">
<title>sitting&#45;&gt;30</title>
<path fill="none" stroke="black" d="M952.44,-515.09C972.32,-500.94 998.18,-480.94 1018,-460 1027.27,-450.21 1036.06,-438.18 1043.11,-427.58"/>
<polygon fill="black" stroke="black" points="1046.58,-429.66 1049.05,-419.36 1040.69,-425.87 1046.58,-429.66"/>
<text text-anchor="start" x="1002" y="-486" font-family="Courier New" font-weight="bold" font-size="10.00" fill="orange">WAIT(0,SIG_DEAD)</text>
</g>
<!-- sitting&#45;&gt;50 -->
<g id="edge29" class="edge">
<title>sitting&#45;&gt;50</title>
<path fill="none" stroke="black" d="M968.81,-535.31C1050.12,-534.16 1213.28,-527.93 1260,-497 1284.02,-481.1 1298.51,-450.65 1306.34,-428.4"/>
<polygon fill="black" stroke="black" points="1309.88,-429.82 1309.66,-419.23 1303.23,-427.65 1309.88,-429.82"/>
<text text-anchor="start" x="1283" y="-486" font-family="Courier New" font-weight="bold" font-size="10.00" fill="orange">WAIT(0,SIG_BOMB)</text>
</g>
<!-- status -->
<g id="node21" class="node">
<title>status</title>
<polygon fill="none" stroke="black" points="836.5,-860.5 836.5,-932.5 1207.5,-932.5 1207.5,-860.5 836.5,-860.5"/>
<polygon fill="none" stroke="black" points="847.5,-908.5 847.5,-925.5 1196.5,-925.5 1196.5,-908.5 847.5,-908.5"/>
<text text-anchor="start" x="1003.5" y="-915.5" font-family="Courier New" font-weight="bold" font-size="10.00">SID_ID</text>
<polygon fill="none" stroke="black" points="847.5,-867.5 847.5,-906.5 1196.5,-906.5 1196.5,-867.5 847.5,-867.5"/>
<text text-anchor="start" x="850.5" y="-895.5" font-family="Courier New" font-size="10.00" fill="green">VIEW::IDV_ID @pos(left:0, top:0)</text>
<text text-anchor="start" x="850.5" y="-884.5" font-family="Courier New" font-size="10.00" fill="green">SID_ID::M_ID(&#39;LWISDOM&#39;,&#39;LSEX&#39;,&#39;0&#39;,&#39;SID_AURA&#39;)</text>
<text text-anchor="start" x="850.5" y="-873.5" font-family="Courier New" font-size="10.00" fill="green">{state:&#39;sitting&#39;: wParm:F1 wSprite:IDS_FID1HAPPY bFrame:0</text>
<polygon fill="none" stroke="black" points="844.5,-864.5 844.5,-928.5 1199.5,-928.5 1199.5,-864.5 844.5,-864.5"/>
</g>
</g>
</svg>
