<?xml version="1.0" encoding="UTF-8" standalone="no"?>
<!DOCTYPE svg PUBLIC "-//W3C//DTD SVG 1.1//EN"
 "http://www.w3.org/Graphics/SVG/1.1/DTD/svg11.dtd">
<!-- Generated by graphviz version 8.0.1 (20230327.1645)
 -->
<!-- Title: Automaton Pages: 1 -->
<svg width="716pt" height="638pt"
 viewBox="0.00 0.00 716.09 638.00" xmlns="http://www.w3.org/2000/svg" xmlns:xlink="http://www.w3.org/1999/xlink">
<g id="graph0" class="graph" transform="scale(1 1) rotate(0) translate(4 634)">
<title>Automaton</title>
<polygon fill="white" stroke="none" points="-4,4 -4,-634 712.09,-634 712.09,4 -4,4"/>
<!-- filename -->
<g id="node1" class="node">
<title>filename</title>
<polygon fill="none" stroke="black" points="139.09,-568.5 139.09,-618.5 264.09,-618.5 264.09,-568.5 139.09,-568.5"/>
<polygon fill="none" stroke="black" points="150.09,-594.5 150.09,-611.5 253.09,-611.5 253.09,-594.5 150.09,-594.5"/>
<text text-anchor="start" x="153.09" y="-601.5" font-family="Courier New" font-weight="bold" font-size="10.00">SID_AURA::M_AURA</text>
<polygon fill="none" stroke="black" points="150.09,-575.5 150.09,-592.5 253.09,-592.5 253.09,-575.5 150.09,-575.5"/>
<text text-anchor="start" x="156.09" y="-581.5" font-family="Courier New" font-size="10.00" fill="brown">start state = 0</text>
<polygon fill="none" stroke="black" points="147.09,-572.5 147.09,-614.5 256.09,-614.5 256.09,-572.5 147.09,-572.5"/>
</g>
<!-- 0 -->
<g id="node2" class="node">
<title>0</title>
<polyline fill="none" stroke="darkred" points="302.09,-583 317.09,-583"/>
<text text-anchor="start" x="305.09" y="-590.8" font-family="Courier New" font-weight="bold" font-size="14.00">0</text>
<path fill="none" stroke="darkred" d="M306.09,-580C306.09,-580 313.09,-580 313.09,-580 316.59,-580 320.09,-583.5 320.09,-587 320.09,-587 320.09,-600 320.09,-600 320.09,-603.5 316.59,-607 313.09,-607 313.09,-607 306.09,-607 306.09,-607 302.59,-607 299.09,-603.5 299.09,-600 299.09,-600 299.09,-587 299.09,-587 299.09,-583.5 302.59,-580 306.09,-580"/>
</g>
<!-- energyBoost -->
<g id="node3" class="node">
<title>energyBoost</title>
<polyline fill="none" stroke="darkred" points="261.09,-473.5 358.09,-473.5"/>
<text text-anchor="start" x="264.09" y="-481.3" font-family="Courier New" font-weight="bold" font-size="14.00">energyBoost</text>
<path fill="none" stroke="darkred" d="M267.09,-470.5C267.09,-470.5 352.09,-470.5 352.09,-470.5 356.59,-470.5 361.09,-475 361.09,-479.5 361.09,-479.5 361.09,-488.5 361.09,-488.5 361.09,-493 356.59,-497.5 352.09,-497.5 352.09,-497.5 267.09,-497.5 267.09,-497.5 262.59,-497.5 258.09,-493 258.09,-488.5 258.09,-488.5 258.09,-479.5 258.09,-479.5 258.09,-475 262.59,-470.5 267.09,-470.5"/>
</g>
<!-- 0&#45;&gt;energyBoost -->
<g id="edge1" class="edge">
<title>0&#45;&gt;energyBoost</title>
<path fill="none" stroke="black" d="M309.59,-575.7C309.59,-558.82 309.59,-532.51 309.59,-512.57"/>
<polygon fill="black" stroke="black" points="313.09,-512.68 309.59,-502.68 306.09,-512.68 313.09,-512.68"/>
<text text-anchor="start" x="313.59" y="-528" font-family="Courier New" font-weight="bold" font-size="10.00" fill="blue">Z_EPSILON(0,0)</text>
</g>
<!-- 1 -->
<g id="node4" class="node">
<title>1</title>
<polyline fill="none" stroke="darkred" stroke-width="3" points="301.59,-267.5 317.59,-267.5"/>
<text text-anchor="start" x="305.09" y="-275.8" font-family="Courier New" font-weight="bold" font-size="14.00">1</text>
<path fill="none" stroke="darkred" stroke-width="3" d="M305.26,-262.5C305.26,-262.5 313.93,-262.5 313.93,-262.5 318.26,-262.5 322.59,-266.83 322.59,-271.17 322.59,-271.17 322.59,-285.83 322.59,-285.83 322.59,-290.17 318.26,-294.5 313.93,-294.5 313.93,-294.5 305.26,-294.5 305.26,-294.5 300.93,-294.5 296.59,-290.17 296.59,-285.83 296.59,-285.83 296.59,-271.17 296.59,-271.17 296.59,-266.83 300.93,-262.5 305.26,-262.5"/>
</g>
<!-- energyBoost&#45;&gt;1 -->
<g id="edge5" class="edge">
<title>energyBoost&#45;&gt;1</title>
<path fill="none" stroke="black" d="M250.28,-479.74C172.18,-474.82 43.01,-464.33 28.59,-448 -9.65,-404.69 -9.39,-361.54 28.59,-318 59.72,-282.32 202.63,-278.52 271.83,-278.84"/>
<polygon fill="black" stroke="black" points="271.65,-282.34 281.67,-278.92 271.7,-275.34 271.65,-282.34"/>
<polygon fill="none" stroke="black" points="31.59,-428 31.59,-445 302.59,-445 302.59,-428 31.59,-428"/>
<text text-anchor="start" x="124.59" y="-435" font-family="Courier New" font-weight="bold" font-size="10.00" fill="blue">ASSIGN(WPARM,)</text>
<polygon fill="none" stroke="black" points="31.59,-321 31.59,-426 302.59,-426 302.59,-321 31.59,-321"/>
<text text-anchor="start" x="34.59" y="-415" font-family="Courier New" font-size="10.00" fill="blue"> &#160;&#160;&#160;&#160;&#160;&#160;if(LENERGY &gt; (MAX_AURAS &#45; 1)){</text>
<text text-anchor="start" x="34.59" y="-404" font-family="Courier New" font-size="10.00" fill="blue"> &#160;&#160;&#160;&#160;&#160;&#160;&#160;&#160;&#160;&#160;&#160;&#160;ASSIGN(LENERGY,(MAX_AURAS &#45;1));</text>
<text text-anchor="start" x="34.59" y="-393" font-family="Courier New" font-size="10.00" fill="blue"> &#160;&#160;&#160;&#160;&#160;&#160;}</text>
<text text-anchor="start" x="34.59" y="-382" font-family="Courier New" font-size="10.00" fill="blue"> &#160;&#160;&#160;&#160;&#160;&#160;&#160;ASSIGN(BPARM,LENERGY);</text>
<text text-anchor="start" x="34.59" y="-371" font-family="Courier New" font-size="10.00" fill="blue"> &#160;&#160;&#160;&#160;&#160;&#160;&#160;MOV(WSPRITE,BPARM);</text>
<text text-anchor="start" x="34.59" y="-360" font-family="Courier New" font-size="10.00" fill="blue"> &#160;&#160;&#160;&#160;&#160;&#160;&#160;MAPi(WSPRITE,S00_AURA_MAP);</text>
<text text-anchor="start" x="34.59" y="-349" font-family="Courier New" font-size="10.00" fill="blue"> &#160;&#160;&#160;&#160;&#160;&#160;&#160;SHOW(WSPRITE);</text>
<text text-anchor="start" x="34.59" y="-338" font-family="Courier New" font-size="10.00" fill="blue"> &#160;&#160;&#160;&#160;&#160;&#160;&#160;ANIMATE(WPARM);</text>
<text text-anchor="start" x="34.59" y="-327" font-family="Courier New" font-size="10.00" fill="blue"> &#160;&#160;&#160;&#160;&#160;&#160;&#160;SIGNALi(0,SID_ID);</text>
<polygon fill="none" stroke="black" points="28.59,-318 28.59,-448 305.59,-448 305.59,-318 28.59,-318"/>
</g>
<!-- 1&#45;&gt;energyBoost -->
<g id="edge2" class="edge">
<title>1&#45;&gt;energyBoost</title>
<path fill="none" stroke="black" d="M309.59,-299.96C309.59,-336.75 309.59,-414.05 309.59,-455.45"/>
<polygon fill="black" stroke="black" points="306.09,-455.35 309.59,-465.35 313.09,-455.35 306.09,-455.35"/>
<text text-anchor="start" x="313.59" y="-381.5" font-family="Courier New" font-weight="bold" font-size="10.00" fill="orange">WAIT(0,SIG_ADD)</text>
</g>
<!-- 1&#45;&gt;energyBoost -->
<g id="edge4" class="edge">
<title>1&#45;&gt;energyBoost</title>
<path fill="none" stroke="black" d="M336.39,-281.65C360.06,-285.13 393.27,-294.23 409.59,-318 442.3,-365.63 443.03,-400.88 409.59,-448 402.07,-458.61 391.07,-466.02 379.1,-471.21"/>
<polygon fill="black" stroke="black" points="377.99,-468.26 369.86,-475.05 380.45,-474.81 377.99,-468.26"/>
<text text-anchor="start" x="437.59" y="-381.5" font-family="Courier New" font-weight="bold" font-size="10.00" fill="orange">WAIT(0,0)</text>
</g>
<!-- energyDrain -->
<g id="node5" class="node">
<title>energyDrain</title>
<polyline fill="none" stroke="darkred" points="261.09,-7.5 358.09,-7.5"/>
<text text-anchor="start" x="264.09" y="-15.3" font-family="Courier New" font-weight="bold" font-size="14.00">energyDrain</text>
<path fill="none" stroke="darkred" d="M267.09,-4.5C267.09,-4.5 352.09,-4.5 352.09,-4.5 356.59,-4.5 361.09,-9 361.09,-13.5 361.09,-13.5 361.09,-22.5 361.09,-22.5 361.09,-27 356.59,-31.5 352.09,-31.5 352.09,-31.5 267.09,-31.5 267.09,-31.5 262.59,-31.5 258.09,-27 258.09,-22.5 258.09,-22.5 258.09,-13.5 258.09,-13.5 258.09,-9 262.59,-4.5 267.09,-4.5"/>
</g>
<!-- 1&#45;&gt;energyDrain -->
<g id="edge3" class="edge">
<title>1&#45;&gt;energyDrain</title>
<path fill="none" stroke="black" d="M282.82,-267.48C270.34,-261.31 256.72,-252.03 249.59,-239 210.16,-166.85 208.64,-125.3 249.59,-54 252.02,-49.77 255.19,-46 258.79,-42.65"/>
<polygon fill="black" stroke="black" points="260.56,-44.92 266.26,-35.99 256.23,-39.42 260.56,-44.92"/>
<text text-anchor="start" x="253.59" y="-145" font-family="Courier New" font-weight="bold" font-size="10.00" fill="orange">WAIT(0,SIG_SUB)</text>
</g>
<!-- energyDrain&#45;&gt;1 -->
<g id="edge6" class="edge">
<title>energyDrain&#45;&gt;1</title>
<path fill="none" stroke="black" d="M334.54,-35.72C340.21,-40.85 345.48,-47.02 348.59,-54 382.1,-129.09 380.3,-163.14 348.59,-239 347.16,-242.44 345.24,-245.73 343.04,-248.83"/>
<polygon fill="black" stroke="black" points="339.9,-246.14 336.19,-256.06 345.28,-250.61 339.9,-246.14"/>
<polygon fill="none" stroke="black" points="375.59,-219 375.59,-236 604.59,-236 604.59,-219 375.59,-219"/>
<text text-anchor="start" x="420.59" y="-226" font-family="Courier New" font-weight="bold" font-size="10.00" fill="blue">ASSIGN(WPARM,V_REVERSE)</text>
<polygon fill="none" stroke="black" points="375.59,-57 375.59,-217 604.59,-217 604.59,-57 375.59,-57"/>
<text text-anchor="start" x="378.59" y="-206" font-family="Courier New" font-size="10.00" fill="blue"> &#160;&#160;&#160;&#160;&#160;&#160;&#160;if(LENERGY &lt;= 1){</text>
<text text-anchor="start" x="378.59" y="-195" font-family="Courier New" font-size="10.00" fill="blue"> &#160;&#160;&#160;&#160;&#160;&#160;&#160;&#160;&#160;&#160;&#160;&#160;ASSIGN(LENERGY,1);</text>
<text text-anchor="start" x="378.59" y="-184" font-family="Courier New" font-size="10.00" fill="blue"> &#160;&#160;&#160;&#160;&#160;&#160;} &#160;&#160;&#160;&#160;&#160;</text>
<text text-anchor="start" x="378.59" y="-173" font-family="Courier New" font-size="10.00" fill="blue"> &#160;&#160;&#160;&#160;&#160;&#160;ASSIGN(BPARM,LENERGY);</text>
<text text-anchor="start" x="378.59" y="-162" font-family="Courier New" font-size="10.00" fill="blue"> &#160;&#160;&#160;&#160;&#160;&#160;&#160;MOV(WSPRITE,BPARM);</text>
<text text-anchor="start" x="378.59" y="-151" font-family="Courier New" font-size="10.00" fill="blue"> &#160;&#160;&#160;&#160;&#160;&#160;&#160;MAPi(WSPRITE,S00_AURA_MAP);</text>
<text text-anchor="start" x="378.59" y="-140" font-family="Courier New" font-size="10.00" fill="blue"> &#160;&#160;&#160;&#160;&#160;&#160;&#160;SHOW(WSPRITE);</text>
<text text-anchor="start" x="378.59" y="-129" font-family="Courier New" font-size="10.00" fill="blue"> &#160;&#160;&#160;&#160;&#160;&#160;&#160;ANIMATE(WPARM);</text>
<text text-anchor="start" x="378.59" y="-118" font-family="Courier New" font-size="10.00" fill="blue"> &#160;&#160;&#160;&#160;&#160;&#160;// SIGNALi(0,SID_ID);</text>
<text text-anchor="start" x="378.59" y="-107" font-family="Courier New" font-size="10.00" fill="blue"> &#160;&#160;&#160;&#160;&#160;&#160;&#160;</text>
<text text-anchor="start" x="378.59" y="-96" font-family="Courier New" font-size="10.00" fill="blue"> &#160;&#160;&#160;&#160;&#160;&#160;&#160;if(LENERGY &lt;= 1){</text>
<text text-anchor="start" x="378.59" y="-85" font-family="Courier New" font-size="10.00" fill="blue"> &#160;&#160;&#160;&#160;&#160;&#160;&#160;&#160;&#160;&#160;&#160;&#160;ASSIGN(LENERGY,1);</text>
<text text-anchor="start" x="378.59" y="-74" font-family="Courier New" font-size="10.00" fill="blue"> &#160;&#160;&#160;&#160;&#160;&#160;&#160;&#160;&#160;&#160;&#160;&#160;SIGNAL(SID_ID,SIG_DEAD);</text>
<text text-anchor="start" x="378.59" y="-63" font-family="Courier New" font-size="10.00" fill="blue"> &#160;&#160;&#160;&#160;&#160;&#160;} &#160;&#160;</text>
<polygon fill="none" stroke="black" points="372.59,-54 372.59,-239 607.59,-239 607.59,-54 372.59,-54"/>
</g>
<!-- status -->
<g id="node6" class="node">
<title>status</title>
<polygon fill="none" stroke="black" points="355.09,-557.5 355.09,-629.5 708.09,-629.5 708.09,-557.5 355.09,-557.5"/>
<polygon fill="none" stroke="black" points="366.09,-605.5 366.09,-622.5 697.09,-622.5 697.09,-605.5 366.09,-605.5"/>
<text text-anchor="start" x="507.09" y="-612.5" font-family="Courier New" font-weight="bold" font-size="10.00">SID_AURA</text>
<polygon fill="none" stroke="black" points="366.09,-564.5 366.09,-603.5 697.09,-603.5 697.09,-564.5 366.09,-564.5"/>
<text text-anchor="start" x="369.09" y="-592.5" font-family="Courier New" font-size="10.00" fill="green">VIEW::IDV_ID @pos(left:0, top:0)</text>
<text text-anchor="start" x="369.09" y="-581.5" font-family="Courier New" font-size="10.00" fill="green">SID_AURA::M_AURA(&#39;&#39;,&#39;&#39;,&#39;&#39;,&#39;&#39;)</text>
<text text-anchor="start" x="369.09" y="-570.5" font-family="Courier New" font-size="10.00" fill="green">{state:&#39;1&#39;: bParm:2 wParm:0 wSprite:IDS_AURA2 bFrame:4</text>
<polygon fill="none" stroke="black" points="363.09,-561.5 363.09,-625.5 700.09,-625.5 700.09,-561.5 363.09,-561.5"/>
</g>
</g>
</svg>
