<?xml version="1.0" encoding="UTF-8" standalone="no"?>
<!DOCTYPE svg PUBLIC "-//W3C//DTD SVG 1.1//EN"
 "http://www.w3.org/Graphics/SVG/1.1/DTD/svg11.dtd">
<!-- Generated by graphviz version 10.0.1 (20240210.2158)
 -->
<!-- Title: Automaton Pages: 1 -->
<svg width="1074pt" height="512pt"
 viewBox="0.00 0.00 1074.31 511.50" xmlns="http://www.w3.org/2000/svg" xmlns:xlink="http://www.w3.org/1999/xlink">
<g id="graph0" class="graph" transform="scale(1 1) rotate(0) translate(4 507.5)">
<title>Automaton</title>
<polygon fill="white" stroke="none" points="-4,4 -4,-507.5 1070.31,-507.5 1070.31,4 -4,4"/>
<!-- filename -->
<g id="node1" class="node">
<title>filename</title>
<polygon fill="none" stroke="black" points="119.31,-436.75 119.31,-490.25 267.31,-490.25 267.31,-436.75 119.31,-436.75"/>
<polygon fill="none" stroke="black" points="130.31,-464.5 130.31,-483.25 256.31,-483.25 256.31,-464.5 130.31,-464.5"/>
<text text-anchor="start" x="133.31" y="-471.75" font-family="Courier New" font-weight="bold" font-size="10.00">SID_SPELL::M_IDSPELL</text>
<polygon fill="none" stroke="black" points="130.31,-443.75 130.31,-462.5 256.31,-462.5 256.31,-443.75 130.31,-443.75"/>
<text text-anchor="start" x="148.31" y="-450" font-family="Courier New" font-size="10.00" fill="brown">start state = 0</text>
<polygon fill="none" stroke="black" points="127.31,-440.75 127.31,-486.25 259.31,-486.25 259.31,-440.75 127.31,-440.75"/>
</g>
<!-- 0 -->
<g id="node2" class="node">
<title>0</title>
<polyline fill="none" stroke="darkred" stroke-width="3" points="304.68,-451.75 319.93,-451.75"/>
<text text-anchor="start" x="308.18" y="-459.45" font-family="Courier New" font-weight="bold" font-size="14.00">0</text>
<path fill="none" stroke="darkred" stroke-width="3" d="M308.1,-446.75C308.1,-446.75 316.51,-446.75 316.51,-446.75 320.72,-446.75 324.93,-450.96 324.93,-455.17 324.93,-455.17 324.93,-471.83 324.93,-471.83 324.93,-476.04 320.72,-480.25 316.51,-480.25 316.51,-480.25 308.1,-480.25 308.1,-480.25 303.89,-480.25 299.68,-476.04 299.68,-471.83 299.68,-471.83 299.68,-455.17 299.68,-455.17 299.68,-450.96 303.89,-446.75 308.1,-446.75"/>
</g>
<!-- 0&#45;&gt;0 -->
<g id="edge2" class="edge">
<title>0&#45;&gt;0</title>
<path fill="none" stroke="black" d="M339.1,-479.8C349.09,-480.33 357.31,-474.9 357.31,-463.5 357.31,-456.91 354.56,-452.31 350.31,-449.71"/>
<polygon fill="black" stroke="black" points="351.1,-446.3 340.58,-447.53 349.57,-453.13 351.1,-446.3"/>
<polygon fill="none" stroke="black" points="360.31,-464.5 360.31,-483.25 468.31,-483.25 468.31,-464.5 360.31,-464.5"/>
<text text-anchor="start" x="363.31" y="-471.75" font-family="Courier New" font-weight="bold" font-size="10.00" fill="orange">WAIT(0,SIG_CLEAR)</text>
<polygon fill="none" stroke="black" points="360.31,-443.75 360.31,-462.5 468.31,-462.5 468.31,-443.75 360.31,-443.75"/>
<text text-anchor="start" x="381.31" y="-450" font-family="Courier New" font-size="10.00" fill="blue"> &#160;&#160;&#160;SHOW();</text>
<polygon fill="none" stroke="black" points="357.31,-440.75 357.31,-486.25 471.31,-486.25 471.31,-440.75 357.31,-440.75"/>
</g>
<!-- checkObject -->
<g id="node3" class="node">
<title>checkObject</title>
<polyline fill="none" stroke="darkred" points="711.93,-212.38 808.68,-212.38"/>
<text text-anchor="start" x="714.93" y="-219.57" font-family="Courier New" font-weight="bold" font-size="14.00">checkObject</text>
<path fill="none" stroke="darkred" d="M718.43,-209.38C718.43,-209.38 802.18,-209.38 802.18,-209.38 806.93,-209.38 811.68,-214.12 811.68,-218.88 811.68,-218.88 811.68,-228.38 811.68,-228.38 811.68,-233.12 806.93,-237.88 802.18,-237.88 802.18,-237.88 718.43,-237.88 718.43,-237.88 713.68,-237.88 708.93,-233.12 708.93,-228.38 708.93,-228.38 708.93,-218.88 708.93,-218.88 708.93,-214.12 713.68,-209.38 718.43,-209.38"/>
</g>
<!-- 0&#45;&gt;checkObject -->
<g id="edge1" class="edge">
<title>0&#45;&gt;checkObject</title>
<path fill="none" stroke="black" d="M339.23,-455.25C415.26,-434.43 629.76,-373.14 687.31,-329.25 714.34,-308.64 735.2,-275.13 747.57,-251.6"/>
<polygon fill="black" stroke="black" points="750.57,-253.43 751.96,-242.92 744.32,-250.26 750.57,-253.43"/>
<polygon fill="none" stroke="black" points="655.31,-383.75 655.31,-402.5 853.31,-402.5 853.31,-383.75 655.31,-383.75"/>
<text text-anchor="start" x="733.31" y="-391" font-family="Courier New" font-weight="bold" font-size="10.00" fill="orange">DROP(,)</text>
<polygon fill="none" stroke="black" points="655.31,-350.25 655.31,-381.75 853.31,-381.75 853.31,-350.25 655.31,-350.25"/>
<text text-anchor="start" x="658.31" y="-369.25" font-family="Courier New" font-size="10.00" fill="blue"> &#160;&#160;&#160;CLEAR(WVIEWID);</text>
<text text-anchor="start" x="658.31" y="-356.5" font-family="Courier New" font-size="10.00" fill="blue"> &#160;&#160;&#160;WRITE(&quot;Item Dropped on ID&quot;);</text>
<polygon fill="none" stroke="black" points="652.31,-347.25 652.31,-405.5 856.31,-405.5 856.31,-347.25 652.31,-347.25"/>
</g>
<!-- itsAbomb -->
<g id="node4" class="node">
<title>itsAbomb</title>
<polyline fill="none" stroke="darkred" points="76.31,-7 148.31,-7"/>
<text text-anchor="start" x="79.31" y="-14.2" font-family="Courier New" font-weight="bold" font-size="14.00">itsAbomb</text>
<path fill="none" stroke="darkred" d="M82.81,-4C82.81,-4 141.81,-4 141.81,-4 146.56,-4 151.31,-8.75 151.31,-13.5 151.31,-13.5 151.31,-23 151.31,-23 151.31,-27.75 146.56,-32.5 141.81,-32.5 141.81,-32.5 82.81,-32.5 82.81,-32.5 78.06,-32.5 73.31,-27.75 73.31,-23 73.31,-23 73.31,-13.5 73.31,-13.5 73.31,-8.75 78.06,-4 82.81,-4"/>
</g>
<!-- checkObject&#45;&gt;itsAbomb -->
<g id="edge3" class="edge">
<title>checkObject&#45;&gt;itsAbomb</title>
<path fill="none" stroke="black" d="M754.06,-205.51C744.14,-181.12 722.25,-137.19 687.31,-118 646.46,-95.57 313.33,-111.99 268.31,-100 223.5,-88.07 176.89,-61.82 146.42,-42.48"/>
<polygon fill="black" stroke="black" points="148.69,-39.78 138.39,-37.29 144.89,-45.66 148.69,-39.78"/>
<text text-anchor="start" x="272.31" y="-75.12" font-family="Courier New" font-weight="bold" font-size="10.00" fill="blue">IS_A(WOBJECT,IDC_BOMB)</text>
</g>
<!-- itsAspell -->
<g id="node5" class="node">
<title>itsAspell</title>
<polyline fill="none" stroke="darkred" points="382.18,-7 462.43,-7"/>
<text text-anchor="start" x="385.18" y="-14.2" font-family="Courier New" font-weight="bold" font-size="14.00">itsAspell</text>
<path fill="none" stroke="darkred" d="M388.68,-4C388.68,-4 455.93,-4 455.93,-4 460.68,-4 465.43,-8.75 465.43,-13.5 465.43,-13.5 465.43,-23 465.43,-23 465.43,-27.75 460.68,-32.5 455.93,-32.5 455.93,-32.5 388.68,-32.5 388.68,-32.5 383.93,-32.5 379.18,-27.75 379.18,-23 379.18,-23 379.18,-13.5 379.18,-13.5 379.18,-8.75 383.93,-4 388.68,-4"/>
</g>
<!-- checkObject&#45;&gt;itsAspell -->
<g id="edge4" class="edge">
<title>checkObject&#45;&gt;itsAspell</title>
<path fill="none" stroke="black" d="M754,-205.63C744,-181.38 722,-137.63 687.31,-118 636.12,-89.05 463.71,-142.72 423.31,-100 410.27,-86.21 410.73,-64.43 414.07,-46.96"/>
<polygon fill="black" stroke="black" points="417.37,-48.24 416.23,-37.71 410.55,-46.66 417.37,-48.24"/>
<text text-anchor="start" x="427.31" y="-75.12" font-family="Courier New" font-weight="bold" font-size="10.00" fill="blue">IS_A(WOBJECT,IDC_SPELL)</text>
</g>
<!-- checkObject&#45;&gt;itsAspell -->
<g id="edge5" class="edge">
<title>checkObject&#45;&gt;itsAspell</title>
<path fill="none" stroke="black" d="M753.3,-205.41C742.71,-181.72 720.32,-139.55 687.31,-118 652.78,-95.46 629.97,-123.8 596.31,-100 577.1,-86.43 588.23,-68.45 569.31,-54.5 544.98,-36.57 512.8,-27.64 484.76,-23.24"/>
<polygon fill="black" stroke="black" points="485.31,-19.78 474.93,-21.87 484.35,-26.71 485.31,-19.78"/>
<text text-anchor="start" x="600.31" y="-75.12" font-family="Courier New" font-weight="bold" font-size="10.00" fill="blue">IS_A(WOBJECT,IDD_GVIAL)</text>
</g>
<!-- nothingImportant -->
<g id="node6" class="node">
<title>nothingImportant</title>
<polyline fill="none" stroke="darkred" points="758.31,-7 896.31,-7"/>
<text text-anchor="start" x="761.31" y="-14.2" font-family="Courier New" font-weight="bold" font-size="14.00">nothingImportant</text>
<path fill="none" stroke="darkred" d="M764.81,-4C764.81,-4 889.81,-4 889.81,-4 894.56,-4 899.31,-8.75 899.31,-13.5 899.31,-13.5 899.31,-23 899.31,-23 899.31,-27.75 894.56,-32.5 889.81,-32.5 889.81,-32.5 764.81,-32.5 764.81,-32.5 760.06,-32.5 755.31,-27.75 755.31,-23 755.31,-23 755.31,-13.5 755.31,-13.5 755.31,-8.75 760.06,-4 764.81,-4"/>
</g>
<!-- checkObject&#45;&gt;nothingImportant -->
<g id="edge6" class="edge">
<title>checkObject&#45;&gt;nothingImportant</title>
<path fill="none" stroke="black" d="M755.17,-205.85C746.41,-173.8 732.19,-102.73 761.31,-54.5 763.84,-50.31 767.05,-46.59 770.7,-43.29"/>
<polygon fill="black" stroke="black" points="772.8,-46.08 778.65,-37.25 768.57,-40.51 772.8,-46.08"/>
<polygon fill="none" stroke="black" points="764.31,-78.25 764.31,-97 878.31,-97 878.31,-78.25 764.31,-78.25"/>
<text text-anchor="start" x="779.31" y="-85.5" font-family="Courier New" font-weight="bold" font-size="10.00" fill="blue">Z_EPSILON(0,0)</text>
<polygon fill="none" stroke="black" points="764.31,-57.5 764.31,-76.25 878.31,-76.25 878.31,-57.5 764.31,-57.5"/>
<text text-anchor="start" x="767.31" y="-63.75" font-family="Courier New" font-size="10.00" fill="blue"> &#160;&#160;&#160;SHOW(WOBJECT);</text>
<polygon fill="none" stroke="black" points="761.31,-54.5 761.31,-100 881.31,-100 881.31,-54.5 761.31,-54.5"/>
</g>
<!-- itsAbomb&#45;&gt;0 -->
<g id="edge7" class="edge">
<title>itsAbomb&#45;&gt;0</title>
<path fill="none" stroke="black" d="M91.72,-36.4C71.91,-54.37 43.25,-84.59 31.31,-118 -0.31,-206.4 -19,-249.97 31.31,-329.25 73.94,-396.44 117.94,-379.96 193.31,-405.5 229.05,-417.61 243.54,-404.76 276.31,-423.5 280.96,-426.16 285.36,-429.63 289.38,-433.4"/>
<polygon fill="black" stroke="black" points="286.55,-435.51 296,-440.3 291.6,-430.66 286.55,-435.51"/>
<polygon fill="none" stroke="black" points="34.31,-224.62 34.31,-243.38 160.31,-243.38 160.31,-224.62 34.31,-224.62"/>
<text text-anchor="start" x="37.31" y="-231.88" font-family="Courier New" font-weight="bold" font-size="10.00" fill="blue">SPELL_ME(0,SIG_BOMB)</text>
<polygon fill="none" stroke="black" points="34.31,-203.88 34.31,-222.62 160.31,-222.62 160.31,-203.88 34.31,-203.88"/>
<text text-anchor="start" x="37.31" y="-210.12" font-family="Courier New" font-size="10.00" fill="blue">WRITE(&quot;ITS A BOMB&quot;);</text>
<polygon fill="none" stroke="black" points="31.31,-200.88 31.31,-246.38 163.31,-246.38 163.31,-200.88 31.31,-200.88"/>
</g>
<!-- itsAspell&#45;&gt;0 -->
<g id="edge8" class="edge">
<title>itsAspell&#45;&gt;0</title>
<path fill="none" stroke="black" d="M371.33,-19.98C311.3,-22.01 216.74,-29.26 193.31,-54.5 151.76,-99.25 165.91,-272.44 188.31,-329.25 209.33,-382.57 237.31,-381.5 276.31,-423.5 279.17,-426.59 282.16,-429.81 285.14,-433.03"/>
<polygon fill="black" stroke="black" points="282.51,-435.35 291.87,-440.32 287.65,-430.6 282.51,-435.35"/>
<polygon fill="none" stroke="black" points="191.31,-307.5 191.31,-326.25 689.31,-326.25 689.31,-307.5 191.31,-307.5"/>
<text text-anchor="start" x="404.31" y="-314.75" font-family="Courier New" font-weight="bold" font-size="10.00" fill="blue">Z_EPSILON(,)</text>
<polygon fill="none" stroke="black" points="191.31,-121 191.31,-305.5 689.31,-305.5 689.31,-121 191.31,-121"/>
<text text-anchor="start" x="194.31" y="-293" font-family="Courier New" font-size="10.00" fill="blue"> &#160;&#160;&#160;if(WOBJECT == IDD_PROTECT){SHOW();SIGNAL(PROTECT_ACTIVE,SIG_SPELLME);}</text>
<text text-anchor="start" x="194.31" y="-280.25" font-family="Courier New" font-size="10.00" fill="blue"> &#160;&#160;&#160;if(WOBJECT == IDD_NYBREATH){SHOW();SIGNAL(NYBREATH_ACTIVE,SIG_SPELLME);}</text>
<text text-anchor="start" x="194.31" y="-267.5" font-family="Courier New" font-size="10.00" fill="blue"> &#160;&#160;&#160;if(WOBJECT == IDD_WETBREATH){SHOW();SIGNAL(WETBREATH_ACTIVE,SIG_SPELLME);}</text>
<text text-anchor="start" x="194.31" y="-254.75" font-family="Courier New" font-size="10.00" fill="blue"> &#160;&#160;&#160;if(WOBJECT == IDD_TELEKINESIS){SHOW();SIGNAL(TELEKINESIS_ACTIVE,SIG_SPELLME);}</text>
<text text-anchor="start" x="194.31" y="-242" font-family="Courier New" font-size="10.00" fill="blue"> &#160;&#160;&#160;if(WOBJECT == IDD_INVISIBLE){SHOW();SIGNAL(INVISIBLE_ACTIVE,SIG_SPELLME);}</text>
<text text-anchor="start" x="194.31" y="-229.25" font-family="Courier New" font-size="10.00" fill="blue"> &#160;&#160;&#160;if(WOBJECT == IDD_ENCHANT){SHOW(WOBJECT);SIGNAL(ENCHANT_ACTIVE,SIG_SPELLME);}</text>
<text text-anchor="start" x="194.31" y="-216.5" font-family="Courier New" font-size="10.00" fill="blue"> &#160;&#160;&#160;if(WOBJECT == IDD_HOLDING){SHOW(WOBJECT);SIGNAL(HOLDING_ACTIVE,SIG_SPELLME);}</text>
<text text-anchor="start" x="194.31" y="-203.75" font-family="Courier New" font-size="10.00" fill="blue"> &#160;&#160;&#160;if(WOBJECT == IDD_STALKER){SHOW(WOBJECT);SIGNAL(STALKING_ACTIVE,SIG_SPELLME);}</text>
<text text-anchor="start" x="194.31" y="-191" font-family="Courier New" font-size="10.00" fill="blue"> &#160;&#160;&#160;if(WOBJECT == IDD_TRANSFER){SHOW();SIGNAL(TRANSFER_ACTIVE,SIG_SPELLME);}</text>
<text text-anchor="start" x="194.31" y="-178.25" font-family="Courier New" font-size="10.00" fill="blue"> &#160;&#160;&#160;if(WOBJECT == IDD_DEATH){SHOW();SIGNAL(DEATH_ACTIVE,SIG_SPELLME);}</text>
<text text-anchor="start" x="194.31" y="-165.5" font-family="Courier New" font-size="10.00" fill="blue"> &#160;&#160;&#160;if(WOBJECT == IDD_BANISHMENT){SHOW();SIGNAL(BANISHMENT_ACTIVE,SIG_SPELLME);}</text>
<text text-anchor="start" x="194.31" y="-152.75" font-family="Courier New" font-size="10.00" fill="blue"> &#160;&#160;&#160;if(WOBJECT == IDD_BLINDNESS){SHOW();SIGNAL(BLINDNESS_ACTIVE,SIG_SPELLME);}</text>
<text text-anchor="start" x="194.31" y="-140" font-family="Courier New" font-size="10.00" fill="blue"> &#160;&#160;&#160;if(WOBJECT == IDD_HALUCINATE){SHOW();SIGNAL(HALUCINATE_ACTIVE,SIG_SPELLME);}</text>
<text text-anchor="start" x="194.31" y="-127.25" font-family="Courier New" font-size="10.00" fill="blue"> &#160;&#160;&#160;if(WOBJECT == IDD_GVIAL){SHOW();SIGNAL(GOPA_ACTIVE,SIG_SPELLME);}</text>
<polygon fill="none" stroke="black" points="188.31,-118 188.31,-329.25 692.31,-329.25 692.31,-118 188.31,-118"/>
</g>
<!-- nothingImportant&#45;&gt;0 -->
<g id="edge9" class="edge">
<title>nothingImportant&#45;&gt;0</title>
<path fill="none" stroke="black" d="M864.4,-36.32C871.18,-41.2 877.36,-47.21 881.31,-54.5 955.71,-191.93 971.98,-296.18 860.31,-405.5 830.1,-435.07 522.17,-417.7 480.31,-423.5 434.87,-429.8 383.66,-442.52 349.85,-451.73"/>
<polygon fill="black" stroke="black" points="349.25,-448.26 340.54,-454.3 351.11,-455.01 349.25,-448.26"/>
<polygon fill="none" stroke="black" points="943.31,-231 943.31,-249.75 1063.31,-249.75 1063.31,-231 943.31,-231"/>
<text text-anchor="start" x="982.31" y="-238.25" font-family="Courier New" font-weight="bold" font-size="10.00" fill="orange">GRAB(,)</text>
<polygon fill="none" stroke="black" points="943.31,-197.5 943.31,-229 1063.31,-229 1063.31,-197.5 943.31,-197.5"/>
<text text-anchor="start" x="946.31" y="-216.5" font-family="Courier New" font-size="10.00" fill="blue"> &#160;&#160;&#160;CLEAR(WOBJECT);</text>
<text text-anchor="start" x="946.31" y="-203.75" font-family="Courier New" font-size="10.00" fill="blue"> &#160;&#160;&#160;SHOW();</text>
<polygon fill="none" stroke="black" points="940.31,-194.5 940.31,-252.75 1066.31,-252.75 1066.31,-194.5 940.31,-194.5"/>
</g>
<!-- status -->
<g id="node7" class="node">
<title>status</title>
<polygon fill="none" stroke="black" points="489.31,-424 489.31,-503 721.31,-503 721.31,-424 489.31,-424"/>
<polygon fill="none" stroke="black" points="500.31,-477.25 500.31,-496 710.31,-496 710.31,-477.25 500.31,-477.25"/>
<text text-anchor="start" x="578.31" y="-484.5" font-family="Courier New" font-weight="bold" font-size="10.00">SID_SPELL</text>
<polygon fill="none" stroke="black" points="500.31,-431 500.31,-475.25 710.31,-475.25 710.31,-431 500.31,-431"/>
<text text-anchor="start" x="503.31" y="-462.75" font-family="Courier New" font-size="10.00" fill="green">VIEW::IDV_ID @pos(left:10, top:50)</text>
<text text-anchor="start" x="503.31" y="-450" font-family="Courier New" font-size="10.00" fill="green">SID_SPELL::M_IDSPELL(&#39;&#39;,&#39;&#39;,&#39;&#39;,&#39;&#39;)</text>
<text text-anchor="start" x="503.31" y="-437.25" font-family="Courier New" font-size="10.00" fill="green">{state:&#39;0&#39;:</text>
<polygon fill="none" stroke="black" points="497.31,-428 497.31,-499 713.31,-499 713.31,-428 497.31,-428"/>
</g>
</g>
</svg>
