<?xml version="1.0" encoding="UTF-8" standalone="no"?>
<!DOCTYPE svg PUBLIC "-//W3C//DTD SVG 1.1//EN"
 "http://www.w3.org/Graphics/SVG/1.1/DTD/svg11.dtd">
<!-- Generated by graphviz version 8.0.1 (20230327.1645)
 -->
<!-- Title: Automaton Pages: 1 -->
<svg width="523pt" height="271pt"
 viewBox="0.00 0.00 523.00 271.00" xmlns="http://www.w3.org/2000/svg" xmlns:xlink="http://www.w3.org/1999/xlink">
<g id="graph0" class="graph" transform="scale(1 1) rotate(0) translate(4 267)">
<title>Automaton</title>
<polygon fill="white" stroke="none" points="-4,4 -4,-267 519,-267 519,4 -4,4"/>
<!-- filename -->
<g id="node1" class="node">
<title>filename</title>
<polygon fill="none" stroke="black" points="0,-197.5 0,-247.5 173,-247.5 173,-197.5 0,-197.5"/>
<polygon fill="none" stroke="black" points="11,-223.5 11,-240.5 162,-240.5 162,-223.5 11,-223.5"/>
<text text-anchor="start" x="14" y="-230.5" font-family="Courier New" font-weight="bold" font-size="10.00">SMP_INV_LEFT::M_INV_LEFT</text>
<polygon fill="none" stroke="black" points="11,-204.5 11,-221.5 162,-221.5 162,-204.5 11,-204.5"/>
<text text-anchor="start" x="41" y="-210.5" font-family="Courier New" font-size="10.00" fill="brown">start state = 0</text>
<polygon fill="none" stroke="black" points="8,-201.5 8,-243.5 165,-243.5 165,-201.5 8,-201.5"/>
</g>
<!-- 0 -->
<g id="node2" class="node">
<title>0</title>
<polyline fill="none" stroke="darkred" stroke-width="3" points="210.5,-211.5 226.5,-211.5"/>
<text text-anchor="start" x="214" y="-219.8" font-family="Courier New" font-weight="bold" font-size="14.00">0</text>
<path fill="none" stroke="darkred" stroke-width="3" d="M214.17,-206.5C214.17,-206.5 222.83,-206.5 222.83,-206.5 227.17,-206.5 231.5,-210.83 231.5,-215.17 231.5,-215.17 231.5,-229.83 231.5,-229.83 231.5,-234.17 227.17,-238.5 222.83,-238.5 222.83,-238.5 214.17,-238.5 214.17,-238.5 209.83,-238.5 205.5,-234.17 205.5,-229.83 205.5,-229.83 205.5,-215.17 205.5,-215.17 205.5,-210.83 209.83,-206.5 214.17,-206.5"/>
</g>
<!-- 1 -->
<g id="node3" class="node">
<title>1</title>
<polyline fill="none" stroke="darkred" points="87,-98.5 102,-98.5"/>
<text text-anchor="start" x="90" y="-106.3" font-family="Courier New" font-weight="bold" font-size="14.00">1</text>
<path fill="none" stroke="darkred" d="M91,-95.5C91,-95.5 98,-95.5 98,-95.5 101.5,-95.5 105,-99 105,-102.5 105,-102.5 105,-115.5 105,-115.5 105,-119 101.5,-122.5 98,-122.5 98,-122.5 91,-122.5 91,-122.5 87.5,-122.5 84,-119 84,-115.5 84,-115.5 84,-102.5 84,-102.5 84,-99 87.5,-95.5 91,-95.5"/>
</g>
<!-- 0&#45;&gt;1 -->
<g id="edge1" class="edge">
<title>0&#45;&gt;1</title>
<path fill="none" stroke="black" d="M200.53,-201.34C194.63,-194.98 187.93,-188.05 181.5,-182 163.38,-164.96 141.85,-147.12 124.74,-133.47"/>
<polygon fill="black" stroke="black" points="127.25,-130.2 117.24,-126.73 122.9,-135.68 127.25,-130.2"/>
<text text-anchor="start" x="165.5" y="-153" font-family="Courier New" font-weight="bold" font-size="10.00" fill="orange">CLICK(0,0)</text>
</g>
<!-- 2 -->
<g id="node4" class="node">
<title>2</title>
<polyline fill="none" stroke="darkred" points="162,-7.5 177,-7.5"/>
<text text-anchor="start" x="165" y="-15.3" font-family="Courier New" font-weight="bold" font-size="14.00">2</text>
<path fill="none" stroke="darkred" d="M166,-4.5C166,-4.5 173,-4.5 173,-4.5 176.5,-4.5 180,-8 180,-11.5 180,-11.5 180,-24.5 180,-24.5 180,-28 176.5,-31.5 173,-31.5 173,-31.5 166,-31.5 166,-31.5 162.5,-31.5 159,-28 159,-24.5 159,-24.5 159,-11.5 159,-11.5 159,-8 162.5,-4.5 166,-4.5"/>
</g>
<!-- 1&#45;&gt;2 -->
<g id="edge2" class="edge">
<title>1&#45;&gt;2</title>
<path fill="none" stroke="black" d="M74.26,-91.44C63.38,-80.49 53.8,-66 62.5,-54 78.32,-32.18 108.14,-23.71 132.29,-20.54"/>
<polygon fill="black" stroke="black" points="132.33,-23.95 141.91,-19.43 131.6,-16.99 132.33,-23.95"/>
<text text-anchor="start" x="66.5" y="-62" font-family="Courier New" font-weight="bold" font-size="10.00" fill="blue">SENDKEYI(KEY_LEFT,IDV_INVENTORY)</text>
</g>
<!-- 2&#45;&gt;0 -->
<g id="edge3" class="edge">
<title>2&#45;&gt;0</title>
<path fill="none" stroke="black" d="M196.4,-20.94C218.49,-24.11 248.5,-32.4 263.5,-54 292.83,-96.22 263.02,-156.63 239.91,-192.19"/>
<polygon fill="black" stroke="black" points="236.6,-189.84 233.92,-200.09 242.41,-193.75 236.6,-189.84"/>
<text text-anchor="start" x="280.5" y="-107.5" font-family="Courier New" font-weight="bold" font-size="10.00" fill="blue">PLAYWAVE(0,SOUND_CLICK)</text>
</g>
<!-- status -->
<g id="node5" class="node">
<title>status</title>
<polygon fill="none" stroke="black" points="264,-182.5 264,-262.5 515,-262.5 515,-182.5 264,-182.5"/>
<polygon fill="none" stroke="black" points="275,-238.5 275,-255.5 504,-255.5 504,-238.5 275,-238.5"/>
<text text-anchor="start" x="353" y="-245.5" font-family="Courier New" font-weight="bold" font-size="10.00">SMP_INV_LEFT</text>
<polygon fill="none" stroke="black" points="275,-208.5 275,-236.5 504,-236.5 504,-208.5 275,-208.5"/>
<text text-anchor="start" x="278" y="-225.5" font-family="Courier New" font-size="10.00" fill="green">SMP_INV_LEFT::M_INV_LEFT(&#39;&#39;,&#39;&#39;,&#39;&#39;,&#39;&#39;)</text>
<text text-anchor="start" x="278" y="-214.5" font-family="Courier New" font-size="10.00" fill="green">{&#39;0&#39;:}</text>
<polygon fill="none" stroke="black" points="275,-189.5 275,-206.5 504,-206.5 504,-189.5 275,-189.5"/>
<text text-anchor="start" x="386" y="-195.5" font-family="Courier New" font-size="10.00" fill="blue">_</text>
<polygon fill="none" stroke="black" points="272,-186.5 272,-258.5 507,-258.5 507,-186.5 272,-186.5"/>
</g>
</g>
</svg>
