<?xml version="1.0" encoding="UTF-8" standalone="no"?>
<!DOCTYPE svg PUBLIC "-//W3C//DTD SVG 1.1//EN"
 "http://www.w3.org/Graphics/SVG/1.1/DTD/svg11.dtd">
<!-- Generated by graphviz version 8.0.1 (20230327.1645)
 -->
<!-- Title: Automaton Pages: 1 -->
<svg width="2010pt" height="715pt"
 viewBox="0.00 0.00 2009.80 715.00" xmlns="http://www.w3.org/2000/svg" xmlns:xlink="http://www.w3.org/1999/xlink">
<g id="graph0" class="graph" transform="scale(1 1) rotate(0) translate(4 711)">
<title>Automaton</title>
<polygon fill="white" stroke="none" points="-4,4 -4,-711 2005.8,-711 2005.8,4 -4,4"/>
<!-- filename -->
<g id="node1" class="node">
<title>filename</title>
<polygon fill="none" stroke="black" points="1462.8,-645.5 1462.8,-695.5 1587.8,-695.5 1587.8,-645.5 1462.8,-645.5"/>
<polygon fill="none" stroke="black" points="1473.8,-671.5 1473.8,-688.5 1576.8,-688.5 1576.8,-671.5 1473.8,-671.5"/>
<text text-anchor="start" x="1476.8" y="-678.5" font-family="Courier New" font-weight="bold" font-size="10.00">SMP_VIAL::M_VIAL</text>
<polygon fill="none" stroke="black" points="1473.8,-652.5 1473.8,-669.5 1576.8,-669.5 1576.8,-652.5 1473.8,-652.5"/>
<text text-anchor="start" x="1479.8" y="-658.5" font-family="Courier New" font-size="10.00" fill="brown">start state = 0</text>
<polygon fill="none" stroke="black" points="1470.8,-649.5 1470.8,-691.5 1579.8,-691.5 1579.8,-649.5 1470.8,-649.5"/>
</g>
<!-- 0 -->
<g id="node2" class="node">
<title>0</title>
<polyline fill="none" stroke="darkred" points="1625.8,-660 1640.8,-660"/>
<text text-anchor="start" x="1628.8" y="-667.8" font-family="Courier New" font-weight="bold" font-size="14.00">0</text>
<path fill="none" stroke="darkred" d="M1629.8,-657C1629.8,-657 1636.8,-657 1636.8,-657 1640.3,-657 1643.8,-660.5 1643.8,-664 1643.8,-664 1643.8,-677 1643.8,-677 1643.8,-680.5 1640.3,-684 1636.8,-684 1636.8,-684 1629.8,-684 1629.8,-684 1626.3,-684 1622.8,-680.5 1622.8,-677 1622.8,-677 1622.8,-664 1622.8,-664 1622.8,-660.5 1626.3,-657 1629.8,-657"/>
</g>
<!-- 1 -->
<g id="node3" class="node">
<title>1</title>
<polyline fill="none" stroke="darkred" points="1516.8,-550.5 1531.8,-550.5"/>
<text text-anchor="start" x="1519.8" y="-558.3" font-family="Courier New" font-weight="bold" font-size="14.00">1</text>
<path fill="none" stroke="darkred" d="M1520.8,-547.5C1520.8,-547.5 1527.8,-547.5 1527.8,-547.5 1531.3,-547.5 1534.8,-551 1534.8,-554.5 1534.8,-554.5 1534.8,-567.5 1534.8,-567.5 1534.8,-571 1531.3,-574.5 1527.8,-574.5 1527.8,-574.5 1520.8,-574.5 1520.8,-574.5 1517.3,-574.5 1513.8,-571 1513.8,-567.5 1513.8,-567.5 1513.8,-554.5 1513.8,-554.5 1513.8,-551 1517.3,-547.5 1520.8,-547.5"/>
</g>
<!-- 0&#45;&gt;1 -->
<g id="edge1" class="edge">
<title>0&#45;&gt;1</title>
<path fill="none" stroke="black" d="M1618.64,-652.6C1612.5,-646.21 1605,-639.22 1597.3,-634 1580.83,-622.83 1571.2,-629.19 1556.3,-616 1547.82,-608.49 1540.96,-598.18 1535.79,-588.58"/>
<polygon fill="black" stroke="black" points="1538.6,-587.38 1531.02,-579.98 1532.33,-590.5 1538.6,-587.38"/>
<text text-anchor="start" x="1560.3" y="-605" font-family="Courier New" font-weight="bold" font-size="10.00" fill="blue">SHOW(0,0)</text>
</g>
<!-- 10 -->
<g id="node4" class="node">
<title>10</title>
<polyline fill="none" stroke="darkred" stroke-width="3" points="854.3,-335.5 878.3,-335.5"/>
<text text-anchor="start" x="857.8" y="-343.8" font-family="Courier New" font-weight="bold" font-size="14.00">10</text>
<path fill="none" stroke="darkred" stroke-width="3" d="M859.97,-330.5C859.97,-330.5 872.63,-330.5 872.63,-330.5 877.97,-330.5 883.3,-335.83 883.3,-341.17 883.3,-341.17 883.3,-351.83 883.3,-351.83 883.3,-357.17 877.97,-362.5 872.63,-362.5 872.63,-362.5 859.97,-362.5 859.97,-362.5 854.63,-362.5 849.3,-357.17 849.3,-351.83 849.3,-351.83 849.3,-341.17 849.3,-341.17 849.3,-335.83 854.63,-330.5 859.97,-330.5"/>
</g>
<!-- 1&#45;&gt;10 -->
<g id="edge2" class="edge">
<title>1&#45;&gt;10</title>
<path fill="none" stroke="black" d="M1497.69,-559.03C1381.08,-554.51 919.04,-533.82 875.3,-488 847.82,-459.22 851.65,-410.22 858.09,-378.36"/>
<polygon fill="black" stroke="black" points="861.66,-379.39 860.42,-368.87 854.83,-377.87 861.66,-379.39"/>
<polygon fill="none" stroke="black" points="878.3,-468 878.3,-485 1485.3,-485 1485.3,-468 878.3,-468"/>
<text text-anchor="start" x="1139.3" y="-475" font-family="Courier New" font-weight="bold" font-size="10.00" fill="blue">LTEi(WPARM,20)</text>
<polygon fill="none" stroke="black" points="878.3,-449 878.3,-466 1485.3,-466 1485.3,-449 878.3,-449"/>
<text text-anchor="start" x="881.3" y="-455" font-family="Courier New" font-size="10.00" fill="blue">ASSIGN(LWEALTH,10);ASSIGN(WPARM,MAX_VIAL_STORAGE);MOV(BPARM,LWEALTH);SIGNALi(SIG_SHOW,S1_VIALMETER);</text>
<polygon fill="none" stroke="black" points="875.3,-446 875.3,-488 1488.3,-488 1488.3,-446 875.3,-446"/>
</g>
<!-- 2 -->
<g id="node5" class="node">
<title>2</title>
<polyline fill="none" stroke="darkred" points="1516.8,-456.5 1531.8,-456.5"/>
<text text-anchor="start" x="1519.8" y="-464.3" font-family="Courier New" font-weight="bold" font-size="14.00">2</text>
<path fill="none" stroke="darkred" d="M1520.8,-453.5C1520.8,-453.5 1527.8,-453.5 1527.8,-453.5 1531.3,-453.5 1534.8,-457 1534.8,-460.5 1534.8,-460.5 1534.8,-473.5 1534.8,-473.5 1534.8,-477 1531.3,-480.5 1527.8,-480.5 1527.8,-480.5 1520.8,-480.5 1520.8,-480.5 1517.3,-480.5 1513.8,-477 1513.8,-473.5 1513.8,-473.5 1513.8,-460.5 1513.8,-460.5 1513.8,-457 1517.3,-453.5 1520.8,-453.5"/>
</g>
<!-- 1&#45;&gt;2 -->
<g id="edge3" class="edge">
<title>1&#45;&gt;2</title>
<path fill="none" stroke="black" d="M1524.3,-543.13C1524.3,-529.77 1524.3,-510.84 1524.3,-495.33"/>
<polygon fill="black" stroke="black" points="1527.8,-495.77 1524.3,-485.77 1520.8,-495.77 1527.8,-495.77"/>
<text text-anchor="start" x="1528.3" y="-514" font-family="Courier New" font-weight="bold" font-size="10.00" fill="blue">Z_EPSILON(,)</text>
</g>
<!-- 10&#45;&gt;10 -->
<g id="edge6" class="edge">
<title>10&#45;&gt;10</title>
<path fill="none" stroke="black" d="M893.09,-352.16C903.08,-352.34 911.3,-350.46 911.3,-346.5 911.3,-344.15 908.4,-342.53 903.96,-341.64"/>
<polygon fill="black" stroke="black" points="904.32,-338.08 894.09,-340.84 903.81,-345.07 904.32,-338.08"/>
<text text-anchor="start" x="915.3" y="-345" font-family="Courier New" font-weight="bold" font-size="10.00" fill="orange">DROP(0,IDD_SCOOPE)</text>
</g>
<!-- 10&#45;&gt;10 -->
<g id="edge10" class="edge">
<title>10&#45;&gt;10</title>
<path fill="none" stroke="black" d="M893.16,-354.05C940.51,-360.95 1028.3,-358.43 1028.3,-346.5 1028.3,-335.43 952.74,-332.46 904.01,-337.6"/>
<polygon fill="black" stroke="black" points="903.65,-334.24 894.16,-338.95 904.51,-341.19 903.65,-334.24"/>
<text text-anchor="start" x="1032.3" y="-345" font-family="Courier New" font-weight="bold" font-size="10.00" fill="orange">GRAB(0,IDD_SCOOPE)</text>
</g>
<!-- 12 -->
<g id="node6" class="node">
<title>12</title>
<polyline fill="none" stroke="darkred" points="907.8,-215.5 930.8,-215.5"/>
<text text-anchor="start" x="910.8" y="-223.3" font-family="Courier New" font-weight="bold" font-size="14.00">12</text>
<path fill="none" stroke="darkred" d="M913.8,-212.5C913.8,-212.5 924.8,-212.5 924.8,-212.5 929.3,-212.5 933.8,-217 933.8,-221.5 933.8,-221.5 933.8,-230.5 933.8,-230.5 933.8,-235 929.3,-239.5 924.8,-239.5 924.8,-239.5 913.8,-239.5 913.8,-239.5 909.3,-239.5 904.8,-235 904.8,-230.5 904.8,-230.5 904.8,-221.5 904.8,-221.5 904.8,-217 909.3,-212.5 913.8,-212.5"/>
</g>
<!-- 10&#45;&gt;12 -->
<g id="edge4" class="edge">
<title>10&#45;&gt;12</title>
<path fill="none" stroke="black" d="M873.62,-325.02C879.7,-308.56 888.85,-284.99 898.3,-265 900.13,-261.12 902.19,-257.1 904.27,-253.17"/>
<polygon fill="black" stroke="black" points="907.68,-255.24 909.42,-244.79 901.55,-251.87 907.68,-255.24"/>
<text text-anchor="start" x="902.3" y="-284.5" font-family="Courier New" font-weight="bold" font-size="10.00" fill="orange">DRAG(0,IDD_SCOOPE)</text>
</g>
<!-- 16 -->
<g id="node7" class="node">
<title>16</title>
<polyline fill="none" stroke="darkred" points="79.8,-215.5 102.8,-215.5"/>
<text text-anchor="start" x="82.8" y="-223.3" font-family="Courier New" font-weight="bold" font-size="14.00">16</text>
<path fill="none" stroke="darkred" d="M85.8,-212.5C85.8,-212.5 96.8,-212.5 96.8,-212.5 101.3,-212.5 105.8,-217 105.8,-221.5 105.8,-221.5 105.8,-230.5 105.8,-230.5 105.8,-235 101.3,-239.5 96.8,-239.5 96.8,-239.5 85.8,-239.5 85.8,-239.5 81.3,-239.5 76.8,-235 76.8,-230.5 76.8,-230.5 76.8,-221.5 76.8,-221.5 76.8,-217 81.3,-212.5 85.8,-212.5"/>
</g>
<!-- 10&#45;&gt;16 -->
<g id="edge5" class="edge">
<title>10&#45;&gt;16</title>
<path fill="none" stroke="black" d="M839.33,-345.18C705.58,-343.48 118.76,-334.46 92.3,-307 79.26,-293.46 79.73,-271.88 83.07,-254.54"/>
<polygon fill="black" stroke="black" points="86.69,-255.42 85.56,-244.88 79.87,-253.82 86.69,-255.42"/>
<polygon fill="none" stroke="black" points="95.3,-287 95.3,-304 210.3,-304 210.3,-287 95.3,-287"/>
<text text-anchor="start" x="98.3" y="-294" font-family="Courier New" font-weight="bold" font-size="10.00" fill="orange">DRAG(0,IDD_SCOOPF)</text>
<polygon fill="none" stroke="black" points="95.3,-268 95.3,-285 210.3,-285 210.3,-268 95.3,-268"/>
<text text-anchor="start" x="110.3" y="-274" font-family="Courier New" font-size="10.00" fill="blue">ADDI(BPARM,1);</text>
<polygon fill="none" stroke="black" points="92.3,-265 92.3,-307 213.3,-307 213.3,-265 92.3,-265"/>
</g>
<!-- 19 -->
<g id="node8" class="node">
<title>19</title>
<polyline fill="none" stroke="darkred" points="415.8,-215.5 438.8,-215.5"/>
<text text-anchor="start" x="418.8" y="-223.3" font-family="Courier New" font-weight="bold" font-size="14.00">19</text>
<path fill="none" stroke="darkred" d="M421.8,-212.5C421.8,-212.5 432.8,-212.5 432.8,-212.5 437.3,-212.5 441.8,-217 441.8,-221.5 441.8,-221.5 441.8,-230.5 441.8,-230.5 441.8,-235 437.3,-239.5 432.8,-239.5 432.8,-239.5 421.8,-239.5 421.8,-239.5 417.3,-239.5 412.8,-235 412.8,-230.5 412.8,-230.5 412.8,-221.5 412.8,-221.5 412.8,-217 417.3,-212.5 421.8,-212.5"/>
</g>
<!-- 10&#45;&gt;19 -->
<g id="edge7" class="edge">
<title>10&#45;&gt;19</title>
<path fill="none" stroke="black" d="M839.4,-345.89C763.46,-346.52 549.26,-344.82 492.3,-307 474.57,-295.23 482.49,-281.71 469.3,-265 465.57,-260.27 461.22,-255.63 456.76,-251.31"/>
<polygon fill="black" stroke="black" points="459.45,-249.11 449.72,-244.91 454.71,-254.26 459.45,-249.11"/>
<text text-anchor="start" x="496.3" y="-284.5" font-family="Courier New" font-weight="bold" font-size="10.00" fill="orange">DROP(0,IDD_SCOOPF)</text>
</g>
<!-- 40 -->
<g id="node9" class="node">
<title>40</title>
<polyline fill="none" stroke="darkred" points="1514.8,-215.5 1537.8,-215.5"/>
<text text-anchor="start" x="1517.8" y="-223.3" font-family="Courier New" font-weight="bold" font-size="14.00">40</text>
<path fill="none" stroke="darkred" d="M1520.8,-212.5C1520.8,-212.5 1531.8,-212.5 1531.8,-212.5 1536.3,-212.5 1540.8,-217 1540.8,-221.5 1540.8,-221.5 1540.8,-230.5 1540.8,-230.5 1540.8,-235 1536.3,-239.5 1531.8,-239.5 1531.8,-239.5 1520.8,-239.5 1520.8,-239.5 1516.3,-239.5 1511.8,-235 1511.8,-230.5 1511.8,-230.5 1511.8,-221.5 1511.8,-221.5 1511.8,-217 1516.3,-212.5 1520.8,-212.5"/>
</g>
<!-- 10&#45;&gt;40 -->
<g id="edge8" class="edge">
<title>10&#45;&gt;40</title>
<path fill="none" stroke="black" d="M893.29,-344.84C989.61,-342.3 1312.74,-331.96 1351.3,-307 1369.17,-295.43 1357.45,-278 1374.3,-265 1407.38,-239.46 1455.5,-230.89 1488.69,-228.12"/>
<polygon fill="black" stroke="black" points="1488.6,-231.57 1498.33,-227.39 1488.12,-224.58 1488.6,-231.57"/>
<text text-anchor="start" x="1378.3" y="-284.5" font-family="Courier New" font-weight="bold" font-size="10.00" fill="orange">DROP(0,IDD_VIAL1)</text>
</g>
<!-- 50 -->
<g id="node10" class="node">
<title>50</title>
<polyline fill="none" stroke="darkred" points="1602.8,-215.5 1625.8,-215.5"/>
<text text-anchor="start" x="1605.8" y="-223.3" font-family="Courier New" font-weight="bold" font-size="14.00">50</text>
<path fill="none" stroke="darkred" d="M1608.8,-212.5C1608.8,-212.5 1619.8,-212.5 1619.8,-212.5 1624.3,-212.5 1628.8,-217 1628.8,-221.5 1628.8,-221.5 1628.8,-230.5 1628.8,-230.5 1628.8,-235 1624.3,-239.5 1619.8,-239.5 1619.8,-239.5 1608.8,-239.5 1608.8,-239.5 1604.3,-239.5 1599.8,-235 1599.8,-230.5 1599.8,-230.5 1599.8,-221.5 1599.8,-221.5 1599.8,-217 1604.3,-212.5 1608.8,-212.5"/>
</g>
<!-- 10&#45;&gt;50 -->
<g id="edge9" class="edge">
<title>10&#45;&gt;50</title>
<path fill="none" stroke="black" d="M893.24,-345.56C997.27,-345.55 1372.58,-342.93 1485.3,-307 1523.09,-294.95 1561.04,-269.42 1585.89,-250.42"/>
<polygon fill="black" stroke="black" points="1587.7,-252.66 1593.43,-243.75 1583.4,-247.15 1587.7,-252.66"/>
<text text-anchor="start" x="1568.3" y="-284.5" font-family="Courier New" font-weight="bold" font-size="10.00" fill="orange">DROP(0,IDD_VIAL2)</text>
</g>
<!-- 2&#45;&gt;10 -->
<g id="edge21" class="edge">
<title>2&#45;&gt;10</title>
<path fill="none" stroke="black" d="M1497.42,-451.5C1492.8,-449.42 1487.98,-447.48 1483.3,-446 1373.32,-411.24 1020.26,-366.26 903.89,-352.02"/>
<polygon fill="black" stroke="black" points="904.42,-348.44 894.07,-350.71 903.58,-355.39 904.42,-348.44"/>
<polygon fill="none" stroke="black" points="1412.3,-408 1412.3,-425 1605.3,-425 1605.3,-408 1412.3,-408"/>
<text text-anchor="start" x="1454.3" y="-415" font-family="Courier New" font-weight="bold" font-size="10.00" fill="blue">MOV(BPARM,LWEALTH)</text>
<polygon fill="none" stroke="black" points="1412.3,-389 1412.3,-406 1605.3,-406 1605.3,-389 1412.3,-389"/>
<text text-anchor="start" x="1415.3" y="-395" font-family="Courier New" font-size="10.00" fill="blue">SIGNALi(SIG_SHOW,S1_VIALMETER);</text>
<polygon fill="none" stroke="black" points="1409.3,-386 1409.3,-428 1608.3,-428 1608.3,-386 1409.3,-386"/>
</g>
<!-- 12&#45;&gt;10 -->
<g id="edge11" class="edge">
<title>12&#45;&gt;10</title>
<path fill="none" stroke="black" d="M945.93,-229.49C968.6,-233.17 999.88,-242.32 1015.3,-265 1025.79,-280.44 1026.73,-292.24 1015.3,-307 1001.76,-324.48 943.42,-335.46 903.89,-341.03"/>
<polygon fill="black" stroke="black" points="903.48,-337.68 894.04,-342.49 904.42,-344.62 903.48,-337.68"/>
<text text-anchor="start" x="1028.3" y="-284.5" font-family="Courier New" font-weight="bold" font-size="10.00" fill="blue">EQUALi(LWEALTH,0)</text>
</g>
<!-- 13 -->
<g id="node11" class="node">
<title>13</title>
<polyline fill="none" stroke="darkred" points="968.8,-98.5 991.8,-98.5"/>
<text text-anchor="start" x="971.8" y="-106.3" font-family="Courier New" font-weight="bold" font-size="14.00">13</text>
<path fill="none" stroke="darkred" d="M974.8,-95.5C974.8,-95.5 985.8,-95.5 985.8,-95.5 990.3,-95.5 994.8,-100 994.8,-104.5 994.8,-104.5 994.8,-113.5 994.8,-113.5 994.8,-118 990.3,-122.5 985.8,-122.5 985.8,-122.5 974.8,-122.5 974.8,-122.5 970.3,-122.5 965.8,-118 965.8,-113.5 965.8,-113.5 965.8,-104.5 965.8,-104.5 965.8,-100 970.3,-95.5 974.8,-95.5"/>
</g>
<!-- 12&#45;&gt;13 -->
<g id="edge12" class="edge">
<title>12&#45;&gt;13</title>
<path fill="none" stroke="black" d="M912.97,-208.06C907.71,-190.89 902.75,-164.2 914.3,-145 920.87,-134.08 932.11,-126.39 943.48,-121.06"/>
<polygon fill="black" stroke="black" points="944.48,-124.01 952.38,-116.95 941.8,-117.55 944.48,-124.01"/>
<polygon fill="none" stroke="black" points="917.3,-167 917.3,-184 1320.3,-184 1320.3,-167 917.3,-167"/>
<text text-anchor="start" x="1082.3" y="-174" font-family="Courier New" font-weight="bold" font-size="10.00" fill="blue">Z_EPSILON(,)</text>
<polygon fill="none" stroke="black" points="917.3,-148 917.3,-165 1320.3,-165 1320.3,-148 917.3,-148"/>
<text text-anchor="start" x="920.3" y="-154" font-family="Courier New" font-size="10.00" fill="blue">SUBI(LWEALTH,1);MOV(BPARM,LWEALTH);SIGNALi(SIG_SHOW,S1_VIALMETER);</text>
<polygon fill="none" stroke="black" points="914.3,-145 914.3,-187 1323.3,-187 1323.3,-145 914.3,-145"/>
</g>
<!-- 16&#45;&gt;10 -->
<g id="edge15" class="edge">
<title>16&#45;&gt;10</title>
<path fill="none" stroke="black" d="M118.26,-230.33C144.58,-234.67 184.72,-244.33 213.3,-265 231.89,-278.45 223.24,-295.88 243.3,-307 294.42,-335.33 701.83,-343.25 828.71,-345.05"/>
<polygon fill="black" stroke="black" points="828.37,-348.55 838.42,-345.19 828.46,-341.56 828.37,-348.55"/>
<text text-anchor="start" x="247.3" y="-284.5" font-family="Courier New" font-weight="bold" font-size="10.00" fill="blue">GTE(BPARM,WPARM)</text>
</g>
<!-- 17 -->
<g id="node13" class="node">
<title>17</title>
<polyline fill="none" stroke="darkred" points="163.8,-98.5 186.8,-98.5"/>
<text text-anchor="start" x="166.8" y="-106.3" font-family="Courier New" font-weight="bold" font-size="14.00">17</text>
<path fill="none" stroke="darkred" d="M169.8,-95.5C169.8,-95.5 180.8,-95.5 180.8,-95.5 185.3,-95.5 189.8,-100 189.8,-104.5 189.8,-104.5 189.8,-113.5 189.8,-113.5 189.8,-118 185.3,-122.5 180.8,-122.5 180.8,-122.5 169.8,-122.5 169.8,-122.5 165.3,-122.5 160.8,-118 160.8,-113.5 160.8,-113.5 160.8,-104.5 160.8,-104.5 160.8,-100 165.3,-95.5 169.8,-95.5"/>
</g>
<!-- 16&#45;&gt;17 -->
<g id="edge16" class="edge">
<title>16&#45;&gt;17</title>
<path fill="none" stroke="black" d="M64.62,-220.57C45.35,-215.83 20.63,-206.2 8.3,-187 -1.78,-171.29 -3.47,-159.49 8.3,-145 24.28,-125.33 93.5,-116.32 137.66,-112.5"/>
<polygon fill="black" stroke="black" points="137.88,-115.92 147.57,-111.62 137.32,-108.94 137.88,-115.92"/>
<polygon fill="none" stroke="black" points="11.3,-167 11.3,-184 414.3,-184 414.3,-167 11.3,-167"/>
<text text-anchor="start" x="176.3" y="-174" font-family="Courier New" font-weight="bold" font-size="10.00" fill="blue">Z_EPSILON(,)</text>
<polygon fill="none" stroke="black" points="11.3,-148 11.3,-165 414.3,-165 414.3,-148 11.3,-148"/>
<text text-anchor="start" x="14.3" y="-154" font-family="Courier New" font-size="10.00" fill="blue">ADDI(LWEALTH,1);MOV(BPARM,LWEALTH);SIGNALi(SIG_SHOW,S1_VIALMETER);</text>
<polygon fill="none" stroke="black" points="8.3,-145 8.3,-187 417.3,-187 417.3,-145 8.3,-145"/>
</g>
<!-- 19&#45;&gt;10 -->
<g id="edge19" class="edge">
<title>19&#45;&gt;10</title>
<path fill="none" stroke="black" d="M400.6,-234.77C385.93,-240.56 368.98,-250.09 360.3,-265 350.9,-281.13 347.61,-293.31 360.3,-307 391.96,-341.16 716.64,-345.16 828.6,-345.51"/>
<polygon fill="black" stroke="black" points="828.35,-349.01 838.36,-345.54 828.37,-342.01 828.35,-349.01"/>
<text text-anchor="start" x="364.3" y="-284.5" font-family="Courier New" font-weight="bold" font-size="10.00" fill="blue">GTE(BPARM,WPARM)</text>
</g>
<!-- 20 -->
<g id="node15" class="node">
<title>20</title>
<polyline fill="none" stroke="darkred" points="463.8,-98.5 486.8,-98.5"/>
<text text-anchor="start" x="466.8" y="-106.3" font-family="Courier New" font-weight="bold" font-size="14.00">20</text>
<path fill="none" stroke="darkred" d="M469.8,-95.5C469.8,-95.5 480.8,-95.5 480.8,-95.5 485.3,-95.5 489.8,-100 489.8,-104.5 489.8,-104.5 489.8,-113.5 489.8,-113.5 489.8,-118 485.3,-122.5 480.8,-122.5 480.8,-122.5 469.8,-122.5 469.8,-122.5 465.3,-122.5 460.8,-118 460.8,-113.5 460.8,-113.5 460.8,-104.5 460.8,-104.5 460.8,-100 465.3,-95.5 469.8,-95.5"/>
</g>
<!-- 19&#45;&gt;20 -->
<g id="edge20" class="edge">
<title>19&#45;&gt;20</title>
<path fill="none" stroke="black" d="M423.36,-208.04C420.34,-191.1 418.2,-164.8 428.3,-145 431.14,-139.43 435.33,-134.51 440.06,-130.26"/>
<polygon fill="black" stroke="black" points="441.67,-132.66 447.37,-123.73 437.34,-127.15 441.67,-132.66"/>
<text text-anchor="start" x="432.3" y="-164.5" font-family="Courier New" font-weight="bold" font-size="10.00" fill="blue">Z_EPSILON(,)</text>
</g>
<!-- 40&#45;&gt;0 -->
<g id="edge23" class="edge">
<title>40&#45;&gt;0</title>
<path fill="none" stroke="black" d="M1552.83,-237.12C1579.52,-247.4 1617.06,-262.21 1619.3,-265 1642.06,-293.29 1633.3,-309.19 1633.3,-345.5 1633.3,-562 1633.3,-562 1633.3,-562 1633.3,-589.21 1633.3,-620.29 1633.3,-642.02"/>
<polygon fill="black" stroke="black" points="1629.8,-641.74 1633.3,-651.74 1636.8,-641.74 1629.8,-641.74"/>
<text text-anchor="start" x="1637.3" y="-465.5" font-family="Courier New" font-weight="bold" font-size="10.00" fill="blue">ASSIGN(WPARM,40)</text>
</g>
<!-- 50&#45;&gt;0 -->
<g id="edge24" class="edge">
<title>50&#45;&gt;0</title>
<path fill="none" stroke="black" d="M1641.08,-233.57C1686.63,-246.54 1774.3,-280 1774.3,-345.5 1774.3,-562 1774.3,-562 1774.3,-562 1774.3,-618.22 1713.83,-598.43 1670.3,-634 1666.02,-637.5 1661.63,-641.4 1657.45,-645.28"/>
<polygon fill="black" stroke="black" points="1655.54,-642.22 1650.73,-651.65 1660.38,-647.28 1655.54,-642.22"/>
<text text-anchor="start" x="1778.3" y="-465.5" font-family="Courier New" font-weight="bold" font-size="10.00" fill="blue">ASSIGN(WPARM,80)</text>
</g>
<!-- 14 -->
<g id="node12" class="node">
<title>14</title>
<polyline fill="none" stroke="darkred" points="1218.8,-7.5 1241.8,-7.5"/>
<text text-anchor="start" x="1221.8" y="-15.3" font-family="Courier New" font-weight="bold" font-size="14.00">14</text>
<path fill="none" stroke="darkred" d="M1224.8,-4.5C1224.8,-4.5 1235.8,-4.5 1235.8,-4.5 1240.3,-4.5 1244.8,-9 1244.8,-13.5 1244.8,-13.5 1244.8,-22.5 1244.8,-22.5 1244.8,-27 1240.3,-31.5 1235.8,-31.5 1235.8,-31.5 1224.8,-31.5 1224.8,-31.5 1220.3,-31.5 1215.8,-27 1215.8,-22.5 1215.8,-22.5 1215.8,-13.5 1215.8,-13.5 1215.8,-9 1220.3,-4.5 1224.8,-4.5"/>
</g>
<!-- 13&#45;&gt;14 -->
<g id="edge13" class="edge">
<title>13&#45;&gt;14</title>
<path fill="none" stroke="black" d="M1007.05,-98.48C1051.86,-82.52 1142.16,-50.38 1193.11,-32.24"/>
<polygon fill="black" stroke="black" points="1194.11,-35.24 1202.36,-28.59 1191.77,-28.65 1194.11,-35.24"/>
<text text-anchor="start" x="1132.3" y="-62" font-family="Courier New" font-weight="bold" font-size="10.00" fill="blue">PLAYWAVE(0,SOUND_SLURP)</text>
</g>
<!-- 14&#45;&gt;10 -->
<g id="edge14" class="edge">
<title>14&#45;&gt;10</title>
<path fill="none" stroke="black" d="M1257.23,-34.63C1265.03,-40.06 1273.1,-46.65 1279.3,-54 1319.43,-101.6 1352.96,-132.25 1323.3,-187 1276.8,-272.85 1230.71,-272.7 1139.3,-307 1059.18,-337.07 957.82,-343.91 903.96,-345.31"/>
<polygon fill="black" stroke="black" points="904.14,-341.83 894.21,-345.53 904.28,-348.83 904.14,-341.83"/>
<text text-anchor="start" x="1339.3" y="-164.5" font-family="Courier New" font-weight="bold" font-size="10.00" fill="blue">HANDOFF(0,IDD_SCOOPF)</text>
</g>
<!-- 18 -->
<g id="node14" class="node">
<title>18</title>
<polyline fill="none" stroke="darkred" points="665.8,-7.5 688.8,-7.5"/>
<text text-anchor="start" x="668.8" y="-15.3" font-family="Courier New" font-weight="bold" font-size="14.00">18</text>
<path fill="none" stroke="darkred" d="M671.8,-4.5C671.8,-4.5 682.8,-4.5 682.8,-4.5 687.3,-4.5 691.8,-9 691.8,-13.5 691.8,-13.5 691.8,-22.5 691.8,-22.5 691.8,-27 687.3,-31.5 682.8,-31.5 682.8,-31.5 671.8,-31.5 671.8,-31.5 667.3,-31.5 662.8,-27 662.8,-22.5 662.8,-22.5 662.8,-13.5 662.8,-13.5 662.8,-9 667.3,-4.5 671.8,-4.5"/>
</g>
<!-- 17&#45;&gt;18 -->
<g id="edge17" class="edge">
<title>17&#45;&gt;18</title>
<path fill="none" stroke="black" d="M202.29,-103.21C286.23,-88.33 542.87,-42.83 639.75,-25.66"/>
<polygon fill="black" stroke="black" points="640.25,-28.95 649.48,-23.75 639.02,-22.05 640.25,-28.95"/>
<text text-anchor="start" x="475.3" y="-62" font-family="Courier New" font-weight="bold" font-size="10.00" fill="blue">PLAYWAVE(0,SOUND_SPIT)</text>
</g>
<!-- 18&#45;&gt;10 -->
<g id="edge18" class="edge">
<title>18&#45;&gt;10</title>
<path fill="none" stroke="black" d="M681.39,-35.92C690.61,-70.19 716.36,-147.9 768.3,-187 798.11,-209.44 825.31,-177.3 850.3,-205 876.88,-234.46 876.28,-282.74 872.22,-314.32"/>
<polygon fill="black" stroke="black" points="868.62,-313.73 870.61,-324.13 875.54,-314.76 868.62,-313.73"/>
<text text-anchor="start" x="772.3" y="-164.5" font-family="Courier New" font-weight="bold" font-size="10.00" fill="blue">HANDOFF(0,IDD_SCOOPE)</text>
</g>
<!-- 20&#45;&gt;10 -->
<g id="edge22" class="edge">
<title>20&#45;&gt;10</title>
<path fill="none" stroke="black" d="M494.87,-126.72C500.19,-132.09 505.52,-138.38 509.3,-145 532.63,-185.81 503.68,-214.14 537.3,-247 560.89,-270.05 577.55,-256.07 609.3,-265 688.13,-287.18 779.39,-316.69 829.18,-333.12"/>
<polygon fill="black" stroke="black" points="827.85,-336.7 838.44,-336.52 830.05,-330.05 827.85,-336.7"/>
<polygon fill="none" stroke="black" points="540.3,-227 540.3,-244 847.3,-244 847.3,-227 540.3,-227"/>
<text text-anchor="start" x="648.3" y="-234" font-family="Courier New" font-weight="bold" font-size="10.00" fill="blue">ADDi(LWEALTH,1)</text>
<polygon fill="none" stroke="black" points="540.3,-208 540.3,-225 847.3,-225 847.3,-208 540.3,-208"/>
<text text-anchor="start" x="543.3" y="-214" font-family="Courier New" font-size="10.00" fill="blue">MOV(BPARM,LWEALTH);SIGNALi(SIG_SHOW,S1_VIALMETER);</text>
<polygon fill="none" stroke="black" points="537.3,-205 537.3,-247 850.3,-247 850.3,-205 537.3,-205"/>
</g>
<!-- status -->
<g id="node16" class="node">
<title>status</title>
<polygon fill="none" stroke="black" points="1678.8,-634.5 1678.8,-706.5 2001.8,-706.5 2001.8,-634.5 1678.8,-634.5"/>
<polygon fill="none" stroke="black" points="1689.8,-682.5 1689.8,-699.5 1990.8,-699.5 1990.8,-682.5 1689.8,-682.5"/>
<text text-anchor="start" x="1815.8" y="-689.5" font-family="Courier New" font-weight="bold" font-size="10.00">SMP_VIAL</text>
<polygon fill="none" stroke="black" points="1689.8,-641.5 1689.8,-680.5 1990.8,-680.5 1990.8,-641.5 1689.8,-641.5"/>
<text text-anchor="start" x="1692.8" y="-669.5" font-family="Courier New" font-size="10.00" fill="green">VIEW::IDV_MAIN_PANEL @pos(left:222, top:12)</text>
<text text-anchor="start" x="1692.8" y="-658.5" font-family="Courier New" font-size="10.00" fill="green">SMP_VIAL::M_VIAL(&#39;&#39;,&#39;&#39;,&#39;&#39;,&#39;&#39;)</text>
<text text-anchor="start" x="1692.8" y="-647.5" font-family="Courier New" font-size="10.00" fill="green">{state:&#39;10&#39;: bParm:10 wParm:20 wObject:IDD_SCOOPE</text>
<polygon fill="none" stroke="black" points="1686.8,-638.5 1686.8,-702.5 1993.8,-702.5 1993.8,-638.5 1686.8,-638.5"/>
</g>
</g>
</svg>
