<?xml version="1.0" encoding="UTF-8" standalone="no"?>
<!DOCTYPE svg PUBLIC "-//W3C//DTD SVG 1.1//EN"
 "http://www.w3.org/Graphics/SVG/1.1/DTD/svg11.dtd">
<!-- Generated by graphviz version 8.0.1 (20230327.1645)
 -->
<!-- Title: Automaton Pages: 1 -->
<svg width="571pt" height="361pt"
 viewBox="0.00 0.00 571.00 361.00" xmlns="http://www.w3.org/2000/svg" xmlns:xlink="http://www.w3.org/1999/xlink">
<g id="graph0" class="graph" transform="scale(1 1) rotate(0) translate(4 357)">
<title>Automaton</title>
<polygon fill="white" stroke="none" points="-4,4 -4,-357 567,-357 567,4 -4,4"/>
<!-- filename -->
<g id="node1" class="node">
<title>filename</title>
<polygon fill="none" stroke="black" points="0,-291.5 0,-341.5 185,-341.5 185,-291.5 0,-291.5"/>
<polygon fill="none" stroke="black" points="11,-317.5 11,-334.5 174,-334.5 174,-317.5 11,-317.5"/>
<text text-anchor="start" x="14" y="-324.5" font-family="Courier New" font-weight="bold" font-size="10.00">SMP_MAPBUTTON::M_MAPBUTTON</text>
<polygon fill="none" stroke="black" points="11,-298.5 11,-315.5 174,-315.5 174,-298.5 11,-298.5"/>
<text text-anchor="start" x="47" y="-304.5" font-family="Courier New" font-size="10.00" fill="brown">start state = 0</text>
<polygon fill="none" stroke="black" points="8,-295.5 8,-337.5 177,-337.5 177,-295.5 8,-295.5"/>
</g>
<!-- 0 -->
<g id="node2" class="node">
<title>0</title>
<polyline fill="none" stroke="darkred" points="223,-306 238,-306"/>
<text text-anchor="start" x="226" y="-313.8" font-family="Courier New" font-weight="bold" font-size="14.00">0</text>
<path fill="none" stroke="darkred" d="M227,-303C227,-303 234,-303 234,-303 237.5,-303 241,-306.5 241,-310 241,-310 241,-323 241,-323 241,-326.5 237.5,-330 234,-330 234,-330 227,-330 227,-330 223.5,-330 220,-326.5 220,-323 220,-323 220,-310 220,-310 220,-306.5 223.5,-303 227,-303"/>
</g>
<!-- 1 -->
<g id="node3" class="node">
<title>1</title>
<polyline fill="none" stroke="darkred" stroke-width="3" points="222.5,-192.5 238.5,-192.5"/>
<text text-anchor="start" x="226" y="-200.8" font-family="Courier New" font-weight="bold" font-size="14.00">1</text>
<path fill="none" stroke="darkred" stroke-width="3" d="M226.17,-187.5C226.17,-187.5 234.83,-187.5 234.83,-187.5 239.17,-187.5 243.5,-191.83 243.5,-196.17 243.5,-196.17 243.5,-210.83 243.5,-210.83 243.5,-215.17 239.17,-219.5 234.83,-219.5 234.83,-219.5 226.17,-219.5 226.17,-219.5 221.83,-219.5 217.5,-215.17 217.5,-210.83 217.5,-210.83 217.5,-196.17 217.5,-196.17 217.5,-191.83 221.83,-187.5 226.17,-187.5"/>
</g>
<!-- 0&#45;&gt;1 -->
<g id="edge1" class="edge">
<title>0&#45;&gt;1</title>
<path fill="none" stroke="black" d="M230.5,-298.64C230.5,-282.04 230.5,-256.27 230.5,-235.89"/>
<polygon fill="black" stroke="black" points="234,-235.92 230.5,-225.92 227,-235.92 234,-235.92"/>
<text text-anchor="start" x="234.5" y="-251" font-family="Courier New" font-weight="bold" font-size="10.00" fill="blue">SHOW(0,IDS_BTN_MAP)</text>
</g>
<!-- 2 -->
<g id="node4" class="node">
<title>2</title>
<polyline fill="none" stroke="darkred" points="142,-98.5 157,-98.5"/>
<text text-anchor="start" x="145" y="-106.3" font-family="Courier New" font-weight="bold" font-size="14.00">2</text>
<path fill="none" stroke="darkred" d="M146,-95.5C146,-95.5 153,-95.5 153,-95.5 156.5,-95.5 160,-99 160,-102.5 160,-102.5 160,-115.5 160,-115.5 160,-119 156.5,-122.5 153,-122.5 153,-122.5 146,-122.5 146,-122.5 142.5,-122.5 139,-119 139,-115.5 139,-115.5 139,-102.5 139,-102.5 139,-99 142.5,-95.5 146,-95.5"/>
</g>
<!-- 1&#45;&gt;2 -->
<g id="edge2" class="edge">
<title>1&#45;&gt;2</title>
<path fill="none" stroke="black" d="M212.92,-182.43C200.79,-168.57 184.56,-150.04 171.56,-135.19"/>
<polygon fill="black" stroke="black" points="173.55,-133.15 164.33,-127.93 168.28,-137.76 173.55,-133.15"/>
<text text-anchor="start" x="199.5" y="-153" font-family="Courier New" font-weight="bold" font-size="10.00" fill="orange">CLICK(0,0)</text>
</g>
<!-- 3 -->
<g id="node5" class="node">
<title>3</title>
<polyline fill="none" stroke="darkred" points="203,-7.5 218,-7.5"/>
<text text-anchor="start" x="206" y="-15.3" font-family="Courier New" font-weight="bold" font-size="14.00">3</text>
<path fill="none" stroke="darkred" d="M207,-4.5C207,-4.5 214,-4.5 214,-4.5 217.5,-4.5 221,-8 221,-11.5 221,-11.5 221,-24.5 221,-24.5 221,-28 217.5,-31.5 214,-31.5 214,-31.5 207,-31.5 207,-31.5 203.5,-31.5 200,-28 200,-24.5 200,-24.5 200,-11.5 200,-11.5 200,-8 203.5,-4.5 207,-4.5"/>
</g>
<!-- 2&#45;&gt;3 -->
<g id="edge3" class="edge">
<title>2&#45;&gt;3</title>
<path fill="none" stroke="black" d="M136.33,-91.47C129.1,-80.27 122.99,-65.48 130.5,-54 140.1,-39.33 157.35,-30.77 173.39,-25.79"/>
<polygon fill="black" stroke="black" points="173.92,-29 182.66,-23.01 172.09,-22.25 173.92,-29"/>
<text text-anchor="start" x="134.5" y="-62" font-family="Courier New" font-weight="bold" font-size="10.00" fill="blue">PLAYWAVE(0,SOUND_POPUP)</text>
</g>
<!-- 3&#45;&gt;1 -->
<g id="edge4" class="edge">
<title>3&#45;&gt;1</title>
<path fill="none" stroke="black" d="M237.47,-25.72C252.05,-30.88 268.8,-39.63 277.5,-54 302.92,-95.95 289.34,-119.59 268.5,-164 266.9,-167.42 264.86,-170.71 262.56,-173.84"/>
<polygon fill="black" stroke="black" points="259.32,-171.26 255.55,-181.16 264.67,-175.77 259.32,-171.26"/>
<text text-anchor="start" x="294.5" y="-107.5" font-family="Courier New" font-weight="bold" font-size="10.00" fill="blue">LOADVIEW(0,IDV_CONTINENT)</text>
</g>
<!-- status -->
<g id="node6" class="node">
<title>status</title>
<polygon fill="none" stroke="black" points="276,-280.5 276,-352.5 563,-352.5 563,-280.5 276,-280.5"/>
<polygon fill="none" stroke="black" points="287,-328.5 287,-345.5 552,-345.5 552,-328.5 287,-328.5"/>
<text text-anchor="start" x="380" y="-335.5" font-family="Courier New" font-weight="bold" font-size="10.00">SMP_MAPBUTTON</text>
<polygon fill="none" stroke="black" points="287,-287.5 287,-326.5 552,-326.5 552,-287.5 287,-287.5"/>
<text text-anchor="start" x="290" y="-315.5" font-family="Courier New" font-size="10.00" fill="green">VIEW::IDV_MAIN_PANEL @pos(left:155, top:18)</text>
<text text-anchor="start" x="290" y="-304.5" font-family="Courier New" font-size="10.00" fill="green">SMP_MAPBUTTON::M_MAPBUTTON(&#39;&#39;,&#39;&#39;,&#39;&#39;,&#39;&#39;)</text>
<text text-anchor="start" x="290" y="-293.5" font-family="Courier New" font-size="10.00" fill="green">{state:&#39;1&#39;: wSprite:IDS_BTN_MAP</text>
<polygon fill="none" stroke="black" points="284,-284.5 284,-348.5 555,-348.5 555,-284.5 284,-284.5"/>
</g>
</g>
</svg>
