<?xml version="1.0" encoding="UTF-8" standalone="no"?>
<!DOCTYPE svg PUBLIC "-//W3C//DTD SVG 1.1//EN"
 "http://www.w3.org/Graphics/SVG/1.1/DTD/svg11.dtd">
<!-- Generated by graphviz version 8.0.1 (20230327.1645)
 -->
<!-- Title: Automaton Pages: 1 -->
<svg width="666pt" height="718pt"
 viewBox="0.00 0.00 666.03 718.00" xmlns="http://www.w3.org/2000/svg" xmlns:xlink="http://www.w3.org/1999/xlink">
<g id="graph0" class="graph" transform="scale(1 1) rotate(0) translate(4 714)">
<title>Automaton</title>
<polygon fill="white" stroke="none" points="-4,4 -4,-714 662.03,-714 662.03,4 -4,4"/>
<!-- filename -->
<g id="node1" class="node">
<title>filename</title>
<polygon fill="none" stroke="black" points="91.53,-648.5 91.53,-698.5 228.53,-698.5 228.53,-648.5 91.53,-648.5"/>
<polygon fill="none" stroke="black" points="102.53,-674.5 102.53,-691.5 217.53,-691.5 217.53,-674.5 102.53,-674.5"/>
<text text-anchor="start" x="105.53" y="-681.5" font-family="Courier New" font-weight="bold" font-size="10.00">SOD_AURA::M_O_AURA</text>
<polygon fill="none" stroke="black" points="102.53,-655.5 102.53,-672.5 217.53,-672.5 217.53,-655.5 102.53,-655.5"/>
<text text-anchor="start" x="114.53" y="-661.5" font-family="Courier New" font-size="10.00" fill="brown">start state = 0</text>
<polygon fill="none" stroke="black" points="99.53,-652.5 99.53,-694.5 220.53,-694.5 220.53,-652.5 99.53,-652.5"/>
</g>
<!-- 0 -->
<g id="node2" class="node">
<title>0</title>
<polyline fill="none" stroke="darkred" stroke-width="3" points="266.03,-662.5 282.03,-662.5"/>
<text text-anchor="start" x="269.53" y="-670.8" font-family="Courier New" font-weight="bold" font-size="14.00">0</text>
<path fill="none" stroke="darkred" stroke-width="3" d="M269.69,-657.5C269.69,-657.5 278.36,-657.5 278.36,-657.5 282.69,-657.5 287.03,-661.83 287.03,-666.17 287.03,-666.17 287.03,-680.83 287.03,-680.83 287.03,-685.17 282.69,-689.5 278.36,-689.5 278.36,-689.5 269.69,-689.5 269.69,-689.5 265.36,-689.5 261.03,-685.17 261.03,-680.83 261.03,-680.83 261.03,-666.17 261.03,-666.17 261.03,-661.83 265.36,-657.5 269.69,-657.5"/>
</g>
<!-- 2 -->
<g id="node3" class="node">
<title>2</title>
<polyline fill="none" stroke="darkred" points="101.53,-553.5 116.53,-553.5"/>
<text text-anchor="start" x="104.53" y="-561.3" font-family="Courier New" font-weight="bold" font-size="14.00">2</text>
<path fill="none" stroke="darkred" d="M105.53,-550.5C105.53,-550.5 112.53,-550.5 112.53,-550.5 116.03,-550.5 119.53,-554 119.53,-557.5 119.53,-557.5 119.53,-570.5 119.53,-570.5 119.53,-574 116.03,-577.5 112.53,-577.5 112.53,-577.5 105.53,-577.5 105.53,-577.5 102.03,-577.5 98.53,-574 98.53,-570.5 98.53,-570.5 98.53,-557.5 98.53,-557.5 98.53,-554 102.03,-550.5 105.53,-550.5"/>
</g>
<!-- 0&#45;&gt;2 -->
<g id="edge1" class="edge">
<title>0&#45;&gt;2</title>
<path fill="none" stroke="black" d="M257.87,-652.33C251.98,-646.36 244.83,-640.49 237.03,-637 190.04,-615.95 40.99,-656.8 6.03,-619 -16.85,-594.28 33.83,-578.84 71.91,-571.09"/>
<polygon fill="black" stroke="black" points="72.08,-574.43 81.24,-569.11 70.76,-567.56 72.08,-574.43"/>
<text text-anchor="start" x="10.03" y="-608" font-family="Courier New" font-weight="bold" font-size="10.00" fill="orange">WAIT(0,SIG_ADD)</text>
</g>
<!-- 0&#45;&gt;2 -->
<g id="edge4" class="edge">
<title>0&#45;&gt;2</title>
<path fill="none" stroke="black" d="M256.88,-652.1C251.12,-646.41 244.3,-640.77 237.03,-637 199.64,-617.64 178.93,-642.54 144.03,-619 134.02,-612.25 126.23,-601.59 120.57,-591.51"/>
<polygon fill="black" stroke="black" points="123.27,-590.11 115.6,-582.8 117.04,-593.3 123.27,-590.11"/>
<text text-anchor="start" x="148.03" y="-608" font-family="Courier New" font-weight="bold" font-size="10.00" fill="orange">WAIT(0,0)</text>
</g>
<!-- 3 -->
<g id="node4" class="node">
<title>3</title>
<polyline fill="none" stroke="darkred" points="214.53,-553.5 229.53,-553.5"/>
<text text-anchor="start" x="217.53" y="-561.3" font-family="Courier New" font-weight="bold" font-size="14.00">3</text>
<path fill="none" stroke="darkred" d="M218.53,-550.5C218.53,-550.5 225.53,-550.5 225.53,-550.5 229.03,-550.5 232.53,-554 232.53,-557.5 232.53,-557.5 232.53,-570.5 232.53,-570.5 232.53,-574 229.03,-577.5 225.53,-577.5 225.53,-577.5 218.53,-577.5 218.53,-577.5 215.03,-577.5 211.53,-574 211.53,-570.5 211.53,-570.5 211.53,-557.5 211.53,-557.5 211.53,-554 215.03,-550.5 218.53,-550.5"/>
</g>
<!-- 0&#45;&gt;3 -->
<g id="edge2" class="edge">
<title>0&#45;&gt;3</title>
<path fill="none" stroke="black" d="M253.63,-652.22C248.32,-647.14 242.54,-641.78 237.03,-637 227.22,-628.5 219.71,-630.67 214.03,-619 210.06,-610.85 210.17,-601.26 211.87,-592.43"/>
<polygon fill="black" stroke="black" points="215.5,-593.4 214.68,-582.83 208.73,-591.6 215.5,-593.4"/>
<text text-anchor="start" x="218.03" y="-608" font-family="Courier New" font-weight="bold" font-size="10.00" fill="orange">WAIT(0,SIG_SUB)</text>
</g>
<!-- 30 -->
<g id="node5" class="node">
<title>30</title>
<polyline fill="none" stroke="darkred" points="390.53,-553.5 413.53,-553.5"/>
<text text-anchor="start" x="393.53" y="-561.3" font-family="Courier New" font-weight="bold" font-size="14.00">30</text>
<path fill="none" stroke="darkred" d="M396.53,-550.5C396.53,-550.5 407.53,-550.5 407.53,-550.5 412.03,-550.5 416.53,-555 416.53,-559.5 416.53,-559.5 416.53,-568.5 416.53,-568.5 416.53,-573 412.03,-577.5 407.53,-577.5 407.53,-577.5 396.53,-577.5 396.53,-577.5 392.03,-577.5 387.53,-573 387.53,-568.5 387.53,-568.5 387.53,-559.5 387.53,-559.5 387.53,-555 392.03,-550.5 396.53,-550.5"/>
</g>
<!-- 0&#45;&gt;30 -->
<g id="edge3" class="edge">
<title>0&#45;&gt;30</title>
<path fill="none" stroke="black" d="M288.08,-652.22C299.64,-636.57 317.16,-615.12 336.03,-600 344.91,-592.88 355.46,-586.53 365.48,-581.26"/>
<polygon fill="black" stroke="black" points="366.89,-583.97 374.26,-576.36 363.75,-577.71 366.89,-583.97"/>
<text text-anchor="start" x="340.03" y="-608" font-family="Courier New" font-weight="bold" font-size="10.00" fill="orange">WAIT(0,SIG_CLEAR)</text>
</g>
<!-- 4 -->
<g id="node6" class="node">
<title>4</title>
<polyline fill="none" stroke="darkred" points="223.53,-462.5 238.53,-462.5"/>
<text text-anchor="start" x="226.53" y="-470.3" font-family="Courier New" font-weight="bold" font-size="14.00">4</text>
<path fill="none" stroke="darkred" d="M227.53,-459.5C227.53,-459.5 234.53,-459.5 234.53,-459.5 238.03,-459.5 241.53,-463 241.53,-466.5 241.53,-466.5 241.53,-479.5 241.53,-479.5 241.53,-483 238.03,-486.5 234.53,-486.5 234.53,-486.5 227.53,-486.5 227.53,-486.5 224.03,-486.5 220.53,-483 220.53,-479.5 220.53,-479.5 220.53,-466.5 220.53,-466.5 220.53,-463 224.03,-459.5 227.53,-459.5"/>
</g>
<!-- 2&#45;&gt;4 -->
<g id="edge5" class="edge">
<title>2&#45;&gt;4</title>
<path fill="none" stroke="black" d="M109.3,-546.12C110.37,-534.31 113.66,-518.94 123.03,-509 141.23,-489.68 170.17,-481 193.51,-477.11"/>
<polygon fill="black" stroke="black" points="193.71,-480.48 203.11,-475.6 192.72,-473.55 193.71,-480.48"/>
<text text-anchor="start" x="127.03" y="-517" font-family="Courier New" font-weight="bold" font-size="10.00" fill="blue">ASSIGN(WPARM,0)</text>
</g>
<!-- 3&#45;&gt;4 -->
<g id="edge6" class="edge">
<title>3&#45;&gt;4</title>
<path fill="none" stroke="black" d="M223.72,-546.26C224.98,-533.78 226.73,-516.46 228.21,-501.9"/>
<polygon fill="black" stroke="black" points="231.79,-502.27 229.31,-491.97 224.82,-501.56 231.79,-502.27"/>
<text text-anchor="start" x="232.03" y="-517" font-family="Courier New" font-weight="bold" font-size="10.00" fill="blue">ASSIGN(WPARM,V_REVERSE)</text>
</g>
<!-- 30&#45;&gt;0 -->
<g id="edge7" class="edge">
<title>30&#45;&gt;0</title>
<path fill="none" stroke="black" d="M428.97,-580.77C444.19,-591.64 458.13,-606.34 447.03,-619 426.78,-642.08 337.62,-623.52 310.03,-637 305.86,-639.04 301.87,-641.75 298.18,-644.77"/>
<polygon fill="black" stroke="black" points="296.1,-641.84 291.12,-651.2 300.85,-646.99 296.1,-641.84"/>
<text text-anchor="start" x="455.03" y="-608" font-family="Courier New" font-weight="bold" font-size="10.00" fill="blue">SHOW(0,0)</text>
</g>
<!-- 5 -->
<g id="node7" class="node">
<title>5</title>
<polyline fill="none" stroke="darkred" points="321.53,-371.5 336.53,-371.5"/>
<text text-anchor="start" x="324.53" y="-379.3" font-family="Courier New" font-weight="bold" font-size="14.00">5</text>
<path fill="none" stroke="darkred" d="M325.53,-368.5C325.53,-368.5 332.53,-368.5 332.53,-368.5 336.03,-368.5 339.53,-372 339.53,-375.5 339.53,-375.5 339.53,-388.5 339.53,-388.5 339.53,-392 336.03,-395.5 332.53,-395.5 332.53,-395.5 325.53,-395.5 325.53,-395.5 322.03,-395.5 318.53,-392 318.53,-388.5 318.53,-388.5 318.53,-375.5 318.53,-375.5 318.53,-372 322.03,-368.5 325.53,-368.5"/>
</g>
<!-- 4&#45;&gt;5 -->
<g id="edge8" class="edge">
<title>4&#45;&gt;5</title>
<path fill="none" stroke="black" d="M249.46,-455.26C264.42,-441.67 285.71,-422.34 302.51,-407.08"/>
<polygon fill="black" stroke="black" points="304.29,-410.28 309.34,-400.97 299.59,-405.1 304.29,-410.28"/>
<text text-anchor="start" x="293.03" y="-426" font-family="Courier New" font-weight="bold" font-size="10.00" fill="blue">MOV(WSPRITE,OENERGY)</text>
</g>
<!-- 6 -->
<g id="node8" class="node">
<title>6</title>
<polyline fill="none" stroke="darkred" points="371.53,-280.5 386.53,-280.5"/>
<text text-anchor="start" x="374.53" y="-288.3" font-family="Courier New" font-weight="bold" font-size="14.00">6</text>
<path fill="none" stroke="darkred" d="M375.53,-277.5C375.53,-277.5 382.53,-277.5 382.53,-277.5 386.03,-277.5 389.53,-281 389.53,-284.5 389.53,-284.5 389.53,-297.5 389.53,-297.5 389.53,-301 386.03,-304.5 382.53,-304.5 382.53,-304.5 375.53,-304.5 375.53,-304.5 372.03,-304.5 368.53,-301 368.53,-297.5 368.53,-297.5 368.53,-284.5 368.53,-284.5 368.53,-281 372.03,-277.5 375.53,-277.5"/>
</g>
<!-- 5&#45;&gt;6 -->
<g id="edge9" class="edge">
<title>5&#45;&gt;6</title>
<path fill="none" stroke="black" d="M338.43,-364.26C345.72,-351.29 355.95,-333.08 364.31,-318.19"/>
<polygon fill="black" stroke="black" points="367.65,-320.4 369.49,-309.97 361.55,-316.97 367.65,-320.4"/>
<text text-anchor="start" x="363.03" y="-335" font-family="Courier New" font-weight="bold" font-size="10.00" fill="blue">MODI(WSPRITE,MAX_AURAS)</text>
</g>
<!-- 7 -->
<g id="node9" class="node">
<title>7</title>
<polyline fill="none" stroke="darkred" points="380.53,-189.5 395.53,-189.5"/>
<text text-anchor="start" x="383.53" y="-197.3" font-family="Courier New" font-weight="bold" font-size="14.00">7</text>
<path fill="none" stroke="darkred" d="M384.53,-186.5C384.53,-186.5 391.53,-186.5 391.53,-186.5 395.03,-186.5 398.53,-190 398.53,-193.5 398.53,-193.5 398.53,-206.5 398.53,-206.5 398.53,-210 395.03,-213.5 391.53,-213.5 391.53,-213.5 384.53,-213.5 384.53,-213.5 381.03,-213.5 377.53,-210 377.53,-206.5 377.53,-206.5 377.53,-193.5 377.53,-193.5 377.53,-190 381.03,-186.5 384.53,-186.5"/>
</g>
<!-- 6&#45;&gt;7 -->
<g id="edge10" class="edge">
<title>6&#45;&gt;7</title>
<path fill="none" stroke="black" d="M380.72,-273.26C381.98,-260.78 383.73,-243.46 385.21,-228.9"/>
<polygon fill="black" stroke="black" points="388.79,-229.27 386.31,-218.97 381.82,-228.56 388.79,-229.27"/>
<text text-anchor="start" x="389.03" y="-244" font-family="Courier New" font-weight="bold" font-size="10.00" fill="blue">ADDI(WSPRITE,IDS_AURA1)</text>
</g>
<!-- 8 -->
<g id="node10" class="node">
<title>8</title>
<polyline fill="none" stroke="darkred" points="416.53,-98.5 431.53,-98.5"/>
<text text-anchor="start" x="419.53" y="-106.3" font-family="Courier New" font-weight="bold" font-size="14.00">8</text>
<path fill="none" stroke="darkred" d="M420.53,-95.5C420.53,-95.5 427.53,-95.5 427.53,-95.5 431.03,-95.5 434.53,-99 434.53,-102.5 434.53,-102.5 434.53,-115.5 434.53,-115.5 434.53,-119 431.03,-122.5 427.53,-122.5 427.53,-122.5 420.53,-122.5 420.53,-122.5 417.03,-122.5 413.53,-119 413.53,-115.5 413.53,-115.5 413.53,-102.5 413.53,-102.5 413.53,-99 417.03,-95.5 420.53,-95.5"/>
</g>
<!-- 7&#45;&gt;8 -->
<g id="edge11" class="edge">
<title>7&#45;&gt;8</title>
<path fill="none" stroke="black" d="M394.8,-182.26C399.94,-169.54 407.13,-151.77 413.09,-137.04"/>
<polygon fill="black" stroke="black" points="416.66,-138.55 417.16,-127.97 410.17,-135.93 416.66,-138.55"/>
<text text-anchor="start" x="413.03" y="-153" font-family="Courier New" font-weight="bold" font-size="10.00" fill="blue">SHOW(WSPRITE,)</text>
</g>
<!-- 9 -->
<g id="node11" class="node">
<title>9</title>
<polyline fill="none" stroke="darkred" points="479.53,-7.5 494.53,-7.5"/>
<text text-anchor="start" x="482.53" y="-15.3" font-family="Courier New" font-weight="bold" font-size="14.00">9</text>
<path fill="none" stroke="darkred" d="M483.53,-4.5C483.53,-4.5 490.53,-4.5 490.53,-4.5 494.03,-4.5 497.53,-8 497.53,-11.5 497.53,-11.5 497.53,-24.5 497.53,-24.5 497.53,-28 494.03,-31.5 490.53,-31.5 490.53,-31.5 483.53,-31.5 483.53,-31.5 480.03,-31.5 476.53,-28 476.53,-24.5 476.53,-24.5 476.53,-11.5 476.53,-11.5 476.53,-8 480.03,-4.5 483.53,-4.5"/>
</g>
<!-- 8&#45;&gt;9 -->
<g id="edge12" class="edge">
<title>8&#45;&gt;9</title>
<path fill="none" stroke="black" d="M423.81,-91.15C424.42,-79.8 426.76,-64.97 434.03,-54 438.42,-47.36 444.55,-41.69 451.09,-36.96"/>
<polygon fill="black" stroke="black" points="452.65,-39.47 459.14,-31.09 448.84,-33.6 452.65,-39.47"/>
<text text-anchor="start" x="438.03" y="-62" font-family="Courier New" font-weight="bold" font-size="10.00" fill="blue">ANIMATE(WPARM,)</text>
</g>
<!-- 9&#45;&gt;0 -->
<g id="edge13" class="edge">
<title>9&#45;&gt;0</title>
<path fill="none" stroke="black" d="M513.66,-34.58C520.85,-39.92 528.02,-46.48 533.03,-54 546.76,-74.64 547.03,-83.21 547.03,-108 547.03,-565 547.03,-565 547.03,-565 547.03,-675.09 409.98,-590.87 310.03,-637 305.6,-639.04 301.41,-641.87 297.54,-645.04"/>
<polygon fill="black" stroke="black" points="295.6,-641.99 290.67,-651.37 300.37,-647.12 295.6,-641.99"/>
<text text-anchor="start" x="551.03" y="-335" font-family="Courier New" font-weight="bold" font-size="10.00" fill="blue">SIGNALi(0,SOD_ID)</text>
</g>
<!-- status -->
<g id="node12" class="node">
<title>status</title>
<polygon fill="none" stroke="black" points="319.53,-637.5 319.53,-709.5 570.53,-709.5 570.53,-637.5 319.53,-637.5"/>
<polygon fill="none" stroke="black" points="330.53,-685.5 330.53,-702.5 559.53,-702.5 559.53,-685.5 330.53,-685.5"/>
<text text-anchor="start" x="420.53" y="-692.5" font-family="Courier New" font-weight="bold" font-size="10.00">SOD_AURA</text>
<polygon fill="none" stroke="black" points="330.53,-644.5 330.53,-683.5 559.53,-683.5 559.53,-644.5 330.53,-644.5"/>
<text text-anchor="start" x="333.53" y="-672.5" font-family="Courier New" font-size="10.00" fill="green">VIEW::IDV_OTHERID @pos(left:0, top:0)</text>
<text text-anchor="start" x="333.53" y="-661.5" font-family="Courier New" font-size="10.00" fill="green">SOD_AURA::M_O_AURA(&#39;&#39;,&#39;&#39;,&#39;&#39;,&#39;&#39;)</text>
<text text-anchor="start" x="333.53" y="-650.5" font-family="Courier New" font-size="10.00" fill="green">{&#39;0&#39;:</text>
<polygon fill="none" stroke="black" points="327.53,-641.5 327.53,-705.5 562.53,-705.5 562.53,-641.5 327.53,-641.5"/>
</g>
</g>
</svg>
