<?xml version="1.0" encoding="UTF-8" standalone="no"?>
<!DOCTYPE svg PUBLIC "-//W3C//DTD SVG 1.1//EN"
 "http://www.w3.org/Graphics/SVG/1.1/DTD/svg11.dtd">
<!-- Generated by graphviz version 10.0.1 (20240210.2158)
 -->
<!-- Title: Automaton Pages: 1 -->
<svg width="1007pt" height="710pt"
 viewBox="0.00 0.00 1006.59 709.75" xmlns="http://www.w3.org/2000/svg" xmlns:xlink="http://www.w3.org/1999/xlink">
<g id="graph0" class="graph" transform="scale(1 1) rotate(0) translate(4 705.75)">
<title>Automaton</title>
<polygon fill="white" stroke="none" points="-4,4 -4,-705.75 1002.59,-705.75 1002.59,4 -4,4"/>
<!-- filename -->
<g id="node1" class="node">
<title>filename</title>
<polygon fill="none" stroke="black" points="240.59,-635 240.59,-688.5 400.59,-688.5 400.59,-635 240.59,-635"/>
<polygon fill="none" stroke="black" points="251.59,-662.75 251.59,-681.5 389.59,-681.5 389.59,-662.75 251.59,-662.75"/>
<text text-anchor="start" x="254.59" y="-670" font-family="Courier New" font-weight="bold" font-size="10.00">SOD_SPELL::M_O_IDSPELL</text>
<polygon fill="none" stroke="black" points="251.59,-642 251.59,-660.75 389.59,-660.75 389.59,-642 251.59,-642"/>
<text text-anchor="start" x="275.59" y="-648.25" font-family="Courier New" font-size="10.00" fill="brown">start state = 0</text>
<polygon fill="none" stroke="black" points="248.59,-639 248.59,-684.5 392.59,-684.5 392.59,-639 248.59,-639"/>
</g>
<!-- 0 -->
<g id="node2" class="node">
<title>0</title>
<polyline fill="none" stroke="darkred" stroke-width="3" points="437.96,-650 453.21,-650"/>
<text text-anchor="start" x="441.46" y="-657.7" font-family="Courier New" font-weight="bold" font-size="14.00">0</text>
<path fill="none" stroke="darkred" stroke-width="3" d="M441.38,-645C441.38,-645 449.8,-645 449.8,-645 454.01,-645 458.21,-649.21 458.21,-653.42 458.21,-653.42 458.21,-670.08 458.21,-670.08 458.21,-674.29 454.01,-678.5 449.8,-678.5 449.8,-678.5 441.38,-678.5 441.38,-678.5 437.17,-678.5 432.96,-674.29 432.96,-670.08 432.96,-670.08 432.96,-653.42 432.96,-653.42 432.96,-649.21 437.17,-645 441.38,-645"/>
</g>
<!-- postProcessObject -->
<g id="node3" class="node">
<title>postProcessObject</title>
<polyline fill="none" stroke="darkred" points="611.46,-421.5 757.71,-421.5"/>
<text text-anchor="start" x="614.46" y="-428.7" font-family="Courier New" font-weight="bold" font-size="14.00">postProcessObject</text>
<path fill="none" stroke="darkred" d="M617.96,-418.5C617.96,-418.5 751.21,-418.5 751.21,-418.5 755.96,-418.5 760.71,-423.25 760.71,-428 760.71,-428 760.71,-437.5 760.71,-437.5 760.71,-442.25 755.96,-447 751.21,-447 751.21,-447 617.96,-447 617.96,-447 613.21,-447 608.46,-442.25 608.46,-437.5 608.46,-437.5 608.46,-428 608.46,-428 608.46,-423.25 613.21,-418.5 617.96,-418.5"/>
</g>
<!-- 0&#45;&gt;postProcessObject -->
<g id="edge1" class="edge">
<title>0&#45;&gt;postProcessObject</title>
<path fill="none" stroke="black" d="M431.35,-639.86C425.47,-632.9 418.04,-625.87 409.59,-621.75 365.5,-600.26 222.83,-639.82 189.59,-603.75 169.3,-581.73 169.18,-490.91 189.59,-469 216.2,-440.43 453.33,-434.64 589.5,-433.7"/>
<polygon fill="black" stroke="black" points="589.24,-437.21 599.22,-433.64 589.2,-430.21 589.24,-437.21"/>
<polygon fill="none" stroke="black" points="192.59,-582 192.59,-600.75 678.59,-600.75 678.59,-582 192.59,-582"/>
<text text-anchor="start" x="408.59" y="-589.25" font-family="Courier New" font-weight="bold" font-size="10.00" fill="orange">DROP(0,0)</text>
<polygon fill="none" stroke="black" points="192.59,-472 192.59,-580 678.59,-580 678.59,-472 192.59,-472"/>
<text text-anchor="start" x="195.59" y="-567.5" font-family="Courier New" font-size="10.00" fill="blue"> &#160;&#160;&#160;REF_MACHINE(MEFPAN_VIEWCAP);</text>
<text text-anchor="start" x="195.59" y="-554.75" font-family="Courier New" font-size="10.00" fill="blue"> &#160;&#160;&#160;MOV(BPARM,R_BPARM);</text>
<text text-anchor="start" x="195.59" y="-542" font-family="Courier New" font-size="10.00" fill="blue"> &#160;&#160;&#160;if(R_BPARM == 1){ &#160;//Theres a meflin up</text>
<text text-anchor="start" x="195.59" y="-529.25" font-family="Courier New" font-size="10.00" fill="blue"> &#160;&#160;&#160;&#160;&#160;&#160;&#160;REF_MACHINE(MEFCURRENT); //Who is it?</text>
<text text-anchor="start" x="195.59" y="-516.5" font-family="Courier New" font-size="10.00" fill="blue"> &#160;&#160;&#160;&#160;&#160;&#160;&#160;MOV(WPARM,R_WPARM);</text>
<text text-anchor="start" x="195.59" y="-503.75" font-family="Courier New" font-size="10.00" fill="blue"> &#160;&#160;&#160;&#160;&#160;&#160;&#160;SIGNAL(WPARM,SIG_DROP); //so the meflin mef_talk can look at the wobject</text>
<text text-anchor="start" x="195.59" y="-491" font-family="Courier New" font-size="10.00" fill="blue"> &#160;&#160;&#160;&#160;&#160;&#160;&#160;SHOW();</text>
<text text-anchor="start" x="195.59" y="-478.25" font-family="Courier New" font-size="10.00" fill="blue"> &#160;&#160;&#160;}</text>
<polygon fill="none" stroke="black" points="189.59,-469 189.59,-603.75 681.59,-603.75 681.59,-469 189.59,-469"/>
</g>
<!-- cleared -->
<g id="node4" class="node">
<title>cleared</title>
<ellipse fill="none" stroke="black" cx="887.59" cy="-432.75" rx="50.33" ry="18"/>
<text text-anchor="middle" x="887.59" y="-427.7" font-family="Courier New" font-size="14.00">cleared</text>
</g>
<!-- 0&#45;&gt;cleared -->
<g id="edge2" class="edge">
<title>0&#45;&gt;cleared</title>
<path fill="none" stroke="black" d="M459.76,-639.73C465.64,-632.75 473.08,-625.74 481.59,-621.75 550.48,-589.4 762.17,-648.69 823.59,-603.75 868.81,-570.66 882.09,-501.6 885.98,-462.45"/>
<polygon fill="black" stroke="black" points="889.46,-462.87 886.8,-452.61 882.48,-462.28 889.46,-462.87"/>
<polygon fill="none" stroke="black" points="887.59,-537.38 887.59,-556.12 995.59,-556.12 995.59,-537.38 887.59,-537.38"/>
<text text-anchor="start" x="890.59" y="-544.62" font-family="Courier New" font-weight="bold" font-size="10.00" fill="orange">WAIT(0,SIG_CLEAR)</text>
<polygon fill="none" stroke="black" points="887.59,-516.62 887.59,-535.38 995.59,-535.38 995.59,-516.62 887.59,-516.62"/>
<text text-anchor="start" x="908.59" y="-522.88" font-family="Courier New" font-size="10.00" fill="blue"> &#160;&#160;&#160;SHOW();</text>
<polygon fill="none" stroke="black" points="884.59,-513.62 884.59,-559.12 998.59,-559.12 998.59,-513.62 884.59,-513.62"/>
</g>
<!-- postProcessObject&#45;&gt;0 -->
<g id="edge10" class="edge">
<title>postProcessObject&#45;&gt;0</title>
<path fill="none" stroke="black" d="M690.84,-450.93C702.02,-485.03 720.8,-561.61 681.59,-603.75 651.19,-636.42 521.62,-602.04 481.59,-621.75 476.58,-624.22 471.93,-627.7 467.74,-631.58"/>
<polygon fill="black" stroke="black" points="465.23,-629.14 460.89,-638.8 470.31,-633.96 465.23,-629.14"/>
<text text-anchor="start" x="708.59" y="-534.25" font-family="Courier New" font-weight="bold" font-size="10.00" fill="blue">Z_EPSILON(,)</text>
</g>
<!-- checkObject -->
<g id="node6" class="node">
<title>checkObject</title>
<polyline fill="none" stroke="darkred" points="490.21,-125 586.96,-125"/>
<text text-anchor="start" x="493.21" y="-132.2" font-family="Courier New" font-weight="bold" font-size="14.00">checkObject</text>
<path fill="none" stroke="darkred" d="M496.71,-122C496.71,-122 580.46,-122 580.46,-122 585.21,-122 589.96,-126.75 589.96,-131.5 589.96,-131.5 589.96,-141 589.96,-141 589.96,-145.75 585.21,-150.5 580.46,-150.5 580.46,-150.5 496.71,-150.5 496.71,-150.5 491.96,-150.5 487.21,-145.75 487.21,-141 487.21,-141 487.21,-131.5 487.21,-131.5 487.21,-126.75 491.96,-122 496.71,-122"/>
</g>
<!-- postProcessObject&#45;&gt;checkObject -->
<g id="edge9" class="edge">
<title>postProcessObject&#45;&gt;checkObject</title>
<path fill="none" stroke="black" d="M684.25,-414.61C683.01,-359.78 677.96,-191.15 662.59,-172.5 649.26,-156.32 629.09,-147.27 608.86,-142.28"/>
<polygon fill="black" stroke="black" points="609.65,-138.87 599.14,-140.23 608.2,-145.72 609.65,-138.87"/>
<polygon fill="none" stroke="black" points="687.59,-275.12 687.59,-293.88 783.59,-293.88 783.59,-275.12 687.59,-275.12"/>
<text text-anchor="start" x="690.59" y="-282.38" font-family="Courier New" font-weight="bold" font-size="10.00" fill="blue">NEQUAL(BPARM,1)</text>
<polygon fill="none" stroke="black" points="684.59,-272.12 684.59,-296.88 786.59,-296.88 786.59,-272.12 684.59,-272.12"/>
</g>
<!-- benign -->
<g id="node5" class="node">
<title>benign</title>
<polyline fill="none" stroke="darkred" points="165.84,-7 221.34,-7"/>
<text text-anchor="start" x="168.84" y="-14.2" font-family="Courier New" font-weight="bold" font-size="14.00">benign</text>
<path fill="none" stroke="darkred" d="M172.34,-4C172.34,-4 214.84,-4 214.84,-4 219.59,-4 224.34,-8.75 224.34,-13.5 224.34,-13.5 224.34,-23 224.34,-23 224.34,-27.75 219.59,-32.5 214.84,-32.5 214.84,-32.5 172.34,-32.5 172.34,-32.5 167.59,-32.5 162.84,-27.75 162.84,-23 162.84,-23 162.84,-13.5 162.84,-13.5 162.84,-8.75 167.59,-4 172.34,-4"/>
</g>
<!-- benign&#45;&gt;0 -->
<g id="edge3" class="edge">
<title>benign&#45;&gt;0</title>
<path fill="none" stroke="black" d="M168.13,-36.39C133.39,-61.5 72.7,-111.93 48.59,-172.5 -23.54,-353.69 -27.85,-488.67 129.59,-603.75 179.93,-640.54 353.31,-594.92 409.59,-621.75 414.63,-624.15 419.3,-627.6 423.49,-631.46"/>
<polygon fill="black" stroke="black" points="420.92,-633.84 430.35,-638.68 426,-629.02 420.92,-633.84"/>
<polygon fill="none" stroke="black" points="51.59,-285.5 51.59,-304.25 123.59,-304.25 123.59,-285.5 51.59,-285.5"/>
<text text-anchor="start" x="60.59" y="-292.75" font-family="Courier New" font-weight="bold" font-size="10.00" fill="orange">GRAB(0,0)</text>
<polygon fill="none" stroke="black" points="51.59,-264.75 51.59,-283.5 123.59,-283.5 123.59,-264.75 51.59,-264.75"/>
<text text-anchor="start" x="54.59" y="-271" font-family="Courier New" font-size="10.00" fill="blue"> &#160;&#160;&#160;SHOW();</text>
<polygon fill="none" stroke="black" points="48.59,-261.75 48.59,-307.25 126.59,-307.25 126.59,-261.75 48.59,-261.75"/>
</g>
<!-- checkObject&#45;&gt;benign -->
<g id="edge6" class="edge">
<title>checkObject&#45;&gt;benign</title>
<path fill="none" stroke="black" d="M479.34,-135.06C428.88,-132.95 355.42,-125.21 296.59,-100 266.21,-86.98 237.09,-62.68 217.62,-44.13"/>
<polygon fill="black" stroke="black" points="220.31,-41.87 210.72,-37.38 215.42,-46.88 220.31,-41.87"/>
<polygon fill="none" stroke="black" points="299.59,-78.25 299.59,-97 413.59,-97 413.59,-78.25 299.59,-78.25"/>
<text text-anchor="start" x="314.59" y="-85.5" font-family="Courier New" font-weight="bold" font-size="10.00" fill="blue">Z_EPSILON(0,0)</text>
<polygon fill="none" stroke="black" points="299.59,-57.5 299.59,-76.25 413.59,-76.25 413.59,-57.5 299.59,-57.5"/>
<text text-anchor="start" x="302.59" y="-63.75" font-family="Courier New" font-size="10.00" fill="blue"> &#160;&#160;&#160;SHOW(WOBJECT);</text>
<polygon fill="none" stroke="black" points="296.59,-54.5 296.59,-100 416.59,-100 416.59,-54.5 296.59,-54.5"/>
</g>
<!-- itsAbomb -->
<g id="node7" class="node">
<title>itsAbomb</title>
<polyline fill="none" stroke="darkred" points="685.59,-7 757.59,-7"/>
<text text-anchor="start" x="688.59" y="-14.2" font-family="Courier New" font-weight="bold" font-size="14.00">itsAbomb</text>
<path fill="none" stroke="darkred" d="M692.09,-4C692.09,-4 751.09,-4 751.09,-4 755.84,-4 760.59,-8.75 760.59,-13.5 760.59,-13.5 760.59,-23 760.59,-23 760.59,-27.75 755.84,-32.5 751.09,-32.5 751.09,-32.5 692.09,-32.5 692.09,-32.5 687.34,-32.5 682.59,-27.75 682.59,-23 682.59,-23 682.59,-13.5 682.59,-13.5 682.59,-8.75 687.34,-4 692.09,-4"/>
</g>
<!-- checkObject&#45;&gt;itsAbomb -->
<g id="edge4" class="edge">
<title>checkObject&#45;&gt;itsAbomb</title>
<path fill="none" stroke="black" d="M580.58,-118.09C591.12,-112.96 602.12,-106.84 611.59,-100 634.39,-83.52 633.13,-71.44 655.59,-54.5 661.58,-49.98 668.23,-45.7 674.94,-41.79"/>
<polygon fill="black" stroke="black" points="676.37,-45 683.41,-37.07 672.97,-38.88 676.37,-45"/>
<text text-anchor="start" x="659.59" y="-75.12" font-family="Courier New" font-weight="bold" font-size="10.00" fill="blue">IS_A(WOBJECT,IDC_BOMB)</text>
</g>
<!-- itsAspell -->
<g id="node8" class="node">
<title>itsAspell</title>
<polyline fill="none" stroke="darkred" points="353.46,-7 433.71,-7"/>
<text text-anchor="start" x="356.46" y="-14.2" font-family="Courier New" font-weight="bold" font-size="14.00">itsAspell</text>
<path fill="none" stroke="darkred" d="M359.96,-4C359.96,-4 427.21,-4 427.21,-4 431.96,-4 436.71,-8.75 436.71,-13.5 436.71,-13.5 436.71,-23 436.71,-23 436.71,-27.75 431.96,-32.5 427.21,-32.5 427.21,-32.5 359.96,-32.5 359.96,-32.5 355.21,-32.5 350.46,-27.75 350.46,-23 350.46,-23 350.46,-13.5 350.46,-13.5 350.46,-8.75 355.21,-4 359.96,-4"/>
</g>
<!-- checkObject&#45;&gt;itsAspell -->
<g id="edge5" class="edge">
<title>checkObject&#45;&gt;itsAspell</title>
<path fill="none" stroke="black" d="M496.03,-118.16C485.6,-113.06 474.8,-106.95 465.59,-100 444.97,-84.44 425.72,-62.3 412.33,-45.13"/>
<polygon fill="black" stroke="black" points="415.27,-43.22 406.43,-37.38 409.7,-47.46 415.27,-43.22"/>
<text text-anchor="start" x="469.59" y="-75.12" font-family="Courier New" font-weight="bold" font-size="10.00" fill="blue">IS_A(WOBJECT,IDC_SPELL)</text>
</g>
<!-- itsAbomb&#45;&gt;0 -->
<g id="edge7" class="edge">
<title>itsAbomb&#45;&gt;0</title>
<path fill="none" stroke="black" d="M768.27,-31.92C779.05,-37.12 789.21,-44.39 795.59,-54.5 828.17,-106.11 830.77,-559.64 788.59,-603.75 764.97,-628.45 512.48,-607.13 481.59,-621.75 476.55,-624.14 471.87,-627.58 467.68,-631.44"/>
<polygon fill="black" stroke="black" points="465.17,-629 460.82,-638.66 470.24,-633.82 465.17,-629"/>
<text text-anchor="start" x="823.59" y="-282.38" font-family="Courier New" font-weight="bold" font-size="10.00" fill="blue">SPELL_ME(0,SIG_BOMB)</text>
</g>
<!-- itsAspell&#45;&gt;0 -->
<g id="edge8" class="edge">
<title>itsAspell&#45;&gt;0</title>
<path fill="none" stroke="black" d="M342.79,-20.43C307.65,-23.41 261.16,-31.84 226.59,-54.5 95.68,-140.29 132.09,-240.34 142.59,-396.5 148.83,-489.24 102.95,-540 170.59,-603.75 209.35,-640.28 361.64,-598.57 409.59,-621.75 414.61,-624.18 419.28,-627.64 423.47,-631.51"/>
<polygon fill="black" stroke="black" points="420.9,-633.89 430.32,-638.73 425.98,-629.07 420.9,-633.89"/>
<polygon fill="none" stroke="black" points="145.59,-374.75 145.59,-393.5 655.59,-393.5 655.59,-374.75 145.59,-374.75"/>
<text text-anchor="start" x="364.59" y="-382" font-family="Courier New" font-weight="bold" font-size="10.00" fill="blue">Z_EPSILON(,)</text>
<polygon fill="none" stroke="black" points="145.59,-175.5 145.59,-372.75 655.59,-372.75 655.59,-175.5 145.59,-175.5"/>
<text text-anchor="start" x="148.59" y="-360.25" font-family="Courier New" font-size="10.00" fill="blue"> &#160;&#160;&#160;&#160;&#160;&#160;&#160;SHOW();</text>
<text text-anchor="start" x="148.59" y="-347.5" font-family="Courier New" font-size="10.00" fill="blue"> &#160;&#160;&#160;&#160;&#160;&#160;&#160;if(WOBJECT == IDD_PROTECT){SHOW();SIGNAL(PROTECT_ACTIVE,SIG_START);}</text>
<text text-anchor="start" x="148.59" y="-334.75" font-family="Courier New" font-size="10.00" fill="blue"> &#160;&#160;&#160;&#160;&#160;&#160;&#160;if(WOBJECT == IDD_NYBREATH){SHOW();SIGNAL(NYBREATH_ACTIVE,SIG_START);}</text>
<text text-anchor="start" x="148.59" y="-322" font-family="Courier New" font-size="10.00" fill="blue"> &#160;&#160;&#160;&#160;&#160;&#160;&#160;if(WOBJECT == IDD_WETBREATH){SHOW();SIGNAL(WETBREATH_ACTIVE,SIG_START);}</text>
<text text-anchor="start" x="148.59" y="-309.25" font-family="Courier New" font-size="10.00" fill="blue"> &#160;&#160;&#160;&#160;&#160;&#160;&#160;if(WOBJECT == IDD_TELEKINESIS){SHOW();SIGNAL(TELEKINESIS_ACTIVE,SIG_START);}</text>
<text text-anchor="start" x="148.59" y="-296.5" font-family="Courier New" font-size="10.00" fill="blue"> &#160;&#160;&#160;&#160;&#160;&#160;&#160;if(WOBJECT == IDD_INVISIBLE){SHOW();SIGNAL(INVISIBLE_ACTIVE,SIG_START);}</text>
<text text-anchor="start" x="148.59" y="-283.75" font-family="Courier New" font-size="10.00" fill="blue"> &#160;&#160;&#160;&#160;&#160;&#160;&#160;if(WOBJECT == IDD_ENCHANT){SHOW(WOBJECT);SIGNAL(ENCHANT_ACTIVE,SIG_START);}</text>
<text text-anchor="start" x="148.59" y="-271" font-family="Courier New" font-size="10.00" fill="blue"> &#160;&#160;&#160;&#160;&#160;&#160;&#160;if(WOBJECT == IDD_HOLDING){SHOW(WOBJECT);SIGNAL(HOLDING_ACTIVE,SIG_START);}</text>
<text text-anchor="start" x="148.59" y="-258.25" font-family="Courier New" font-size="10.00" fill="blue"> &#160;&#160;&#160;&#160;&#160;&#160;&#160;if(WOBJECT == IDD_STALKER){SHOW(WOBJECT);SIGNAL(STALKING_ACTIVE,SIG_START);}</text>
<text text-anchor="start" x="148.59" y="-245.5" font-family="Courier New" font-size="10.00" fill="blue"> &#160;&#160;&#160;&#160;&#160;&#160;&#160;if(WOBJECT == IDD_TRANSFER){SHOW();SIGNAL(TRANSFER_ACTIVE,SIG_START);}</text>
<text text-anchor="start" x="148.59" y="-232.75" font-family="Courier New" font-size="10.00" fill="blue"> &#160;&#160;&#160;&#160;&#160;&#160;&#160;if(WOBJECT == IDD_DEATH){SHOW();SIGNAL(DEATH_ACTIVE,SIG_START);}</text>
<text text-anchor="start" x="148.59" y="-220" font-family="Courier New" font-size="10.00" fill="blue"> &#160;&#160;&#160;&#160;&#160;&#160;&#160;if(WOBJECT == IDD_BANISHMENT){SHOW();SIGNAL(BANISHMENT_ACTIVE,SIG_START);}</text>
<text text-anchor="start" x="148.59" y="-207.25" font-family="Courier New" font-size="10.00" fill="blue"> &#160;&#160;&#160;&#160;&#160;&#160;&#160;if(WOBJECT == IDD_BLINDNESS){SHOW();SIGNAL(BLINDNESS_ACTIVE,SIG_START);}</text>
<text text-anchor="start" x="148.59" y="-194.5" font-family="Courier New" font-size="10.00" fill="blue"> &#160;&#160;&#160;&#160;&#160;&#160;&#160;if(WOBJECT == IDD_HALUCINATE){SHOW();SIGNAL(HALUCINATE_ACTIVE,SIG_START);}</text>
<text text-anchor="start" x="148.59" y="-181.75" font-family="Courier New" font-size="10.00" fill="blue"> &#160;&#160;&#160;&#160;&#160;&#160;&#160;if(WOBJECT == IDD_GVIAL){SHOW();SIGNAL(GOPA_ACTIVE,SIG_START);}</text>
<polygon fill="none" stroke="black" points="142.59,-172.5 142.59,-396.5 658.59,-396.5 658.59,-172.5 142.59,-172.5"/>
</g>
<!-- status -->
<g id="node9" class="node">
<title>status</title>
<polygon fill="none" stroke="black" points="490.59,-622.25 490.59,-701.25 752.59,-701.25 752.59,-622.25 490.59,-622.25"/>
<polygon fill="none" stroke="black" points="501.59,-675.5 501.59,-694.25 741.59,-694.25 741.59,-675.5 501.59,-675.5"/>
<text text-anchor="start" x="594.59" y="-682.75" font-family="Courier New" font-weight="bold" font-size="10.00">SOD_SPELL</text>
<polygon fill="none" stroke="black" points="501.59,-629.25 501.59,-673.5 741.59,-673.5 741.59,-629.25 501.59,-629.25"/>
<text text-anchor="start" x="504.59" y="-661" font-family="Courier New" font-size="10.00" fill="green">VIEW::IDV_OTHERID @pos(left:10, top:50)</text>
<text text-anchor="start" x="504.59" y="-648.25" font-family="Courier New" font-size="10.00" fill="green">SOD_SPELL::M_O_IDSPELL(&#39;&#39;,&#39;&#39;,&#39;&#39;,&#39;&#39;)</text>
<text text-anchor="start" x="504.59" y="-635.5" font-family="Courier New" font-size="10.00" fill="green">{state:&#39;0&#39;:</text>
<polygon fill="none" stroke="black" points="498.59,-626.25 498.59,-697.25 744.59,-697.25 744.59,-626.25 498.59,-626.25"/>
</g>
</g>
</svg>
