<?xml version="1.0" encoding="UTF-8" standalone="no"?>
<!DOCTYPE svg PUBLIC "-//W3C//DTD SVG 1.1//EN"
 "http://www.w3.org/Graphics/SVG/1.1/DTD/svg11.dtd">
<!-- Generated by graphviz version 8.0.1 (20230327.1645)
 -->
<!-- Title: Automaton Pages: 1 -->
<svg width="761pt" height="250pt"
 viewBox="0.00 0.00 760.64 250.00" xmlns="http://www.w3.org/2000/svg" xmlns:xlink="http://www.w3.org/1999/xlink">
<g id="graph0" class="graph" transform="scale(1 1) rotate(0) translate(4 246)">
<title>Automaton</title>
<polygon fill="white" stroke="none" points="-4,4 -4,-246 756.64,-246 756.64,4 -4,4"/>
<!-- filename -->
<g id="node1" class="node">
<title>filename</title>
<polygon fill="none" stroke="black" points="72.14,-180.5 72.14,-230.5 233.14,-230.5 233.14,-180.5 72.14,-180.5"/>
<polygon fill="none" stroke="black" points="83.14,-206.5 83.14,-223.5 222.14,-223.5 222.14,-206.5 83.14,-206.5"/>
<text text-anchor="start" x="86.14" y="-213.5" font-family="Courier New" font-weight="bold" font-size="10.00">SOD_SPELL::M_O_IDSPELL</text>
<polygon fill="none" stroke="black" points="83.14,-187.5 83.14,-204.5 222.14,-204.5 222.14,-187.5 83.14,-187.5"/>
<text text-anchor="start" x="107.14" y="-193.5" font-family="Courier New" font-size="10.00" fill="brown">start state = 0</text>
<polygon fill="none" stroke="black" points="80.14,-184.5 80.14,-226.5 225.14,-226.5 225.14,-184.5 80.14,-184.5"/>
</g>
<!-- 0 -->
<g id="node2" class="node">
<title>0</title>
<polyline fill="none" stroke="darkred" stroke-width="3" points="270.64,-194.5 286.64,-194.5"/>
<text text-anchor="start" x="274.14" y="-202.8" font-family="Courier New" font-weight="bold" font-size="14.00">0</text>
<path fill="none" stroke="darkred" stroke-width="3" d="M274.31,-189.5C274.31,-189.5 282.98,-189.5 282.98,-189.5 287.31,-189.5 291.64,-193.83 291.64,-198.17 291.64,-198.17 291.64,-212.83 291.64,-212.83 291.64,-217.17 287.31,-221.5 282.98,-221.5 282.98,-221.5 274.31,-221.5 274.31,-221.5 269.98,-221.5 265.64,-217.17 265.64,-212.83 265.64,-212.83 265.64,-198.17 265.64,-198.17 265.64,-193.83 269.98,-189.5 274.31,-189.5"/>
</g>
<!-- 1 -->
<g id="node3" class="node">
<title>1</title>
<polyline fill="none" stroke="darkred" points="271.14,-7.5 286.14,-7.5"/>
<text text-anchor="start" x="274.14" y="-15.3" font-family="Courier New" font-weight="bold" font-size="14.00">1</text>
<path fill="none" stroke="darkred" d="M275.14,-4.5C275.14,-4.5 282.14,-4.5 282.14,-4.5 285.64,-4.5 289.14,-8 289.14,-11.5 289.14,-11.5 289.14,-24.5 289.14,-24.5 289.14,-28 285.64,-31.5 282.14,-31.5 282.14,-31.5 275.14,-31.5 275.14,-31.5 271.64,-31.5 268.14,-28 268.14,-24.5 268.14,-24.5 268.14,-11.5 268.14,-11.5 268.14,-8 271.64,-4.5 275.14,-4.5"/>
</g>
<!-- 0&#45;&gt;1 -->
<g id="edge1" class="edge">
<title>0&#45;&gt;1</title>
<path fill="none" stroke="black" d="M262.48,-184.35C256.59,-178.38 249.43,-172.51 241.64,-169 196.92,-148.86 54.88,-187.07 21.64,-151 -7.57,-119.3 -6.71,-86.48 21.64,-54 49.65,-21.92 176.56,-18.14 240.94,-18.35"/>
<polygon fill="black" stroke="black" points="240.8,-21.86 250.83,-18.43 240.85,-14.86 240.8,-21.86"/>
<polygon fill="none" stroke="black" points="24.64,-131 24.64,-148 511.64,-148 511.64,-131 24.64,-131"/>
<text text-anchor="start" x="240.64" y="-138" font-family="Courier New" font-weight="bold" font-size="10.00" fill="orange">DROP(0,0)</text>
<polygon fill="none" stroke="black" points="24.64,-57 24.64,-129 511.64,-129 511.64,-57 24.64,-57"/>
<text text-anchor="start" x="27.64" y="-118" font-family="Courier New" font-size="10.00" fill="blue"> &#160;&#160;&#160;REF_MACHINE(MEFPAN_VIEWCAP);</text>
<text text-anchor="start" x="27.64" y="-107" font-family="Courier New" font-size="10.00" fill="blue"> &#160;&#160;&#160;if(R_BPARM == 1){ &#160;//Theres a meflin up</text>
<text text-anchor="start" x="27.64" y="-96" font-family="Courier New" font-size="10.00" fill="blue"> &#160;&#160;&#160;&#160;&#160;&#160;&#160;REF_MACHINE(MEFCURRENT); //Who is it?</text>
<text text-anchor="start" x="27.64" y="-85" font-family="Courier New" font-size="10.00" fill="blue"> &#160;&#160;&#160;&#160;&#160;&#160;&#160;MOV(WPARM,R_WPARM);</text>
<text text-anchor="start" x="27.64" y="-74" font-family="Courier New" font-size="10.00" fill="blue"> &#160;&#160;&#160;&#160;&#160;&#160;&#160;SIGNAL(WPARM,SIG_DROP); //so the meflin mef_talk can look at the wobject</text>
<text text-anchor="start" x="27.64" y="-63" font-family="Courier New" font-size="10.00" fill="blue"> &#160;&#160;&#160;}</text>
<polygon fill="none" stroke="black" points="21.64,-54 21.64,-151 514.64,-151 514.64,-54 21.64,-54"/>
</g>
<!-- 1&#45;&gt;0 -->
<g id="edge2" class="edge">
<title>1&#45;&gt;0</title>
<path fill="none" stroke="black" d="M305.37,-18.79C361.33,-18.99 487.86,-22.95 514.64,-54 542.8,-86.64 543.72,-119.17 514.64,-151 484.69,-183.78 356.05,-150.59 315.64,-169 311.24,-171.01 307.04,-173.76 303.15,-176.85"/>
<polygon fill="black" stroke="black" points="301.29,-173.72 296.19,-183.01 305.97,-178.93 301.29,-173.72"/>
<polygon fill="none" stroke="black" points="538.64,-120 538.64,-137 749.64,-137 749.64,-120 538.64,-120"/>
<text text-anchor="start" x="607.64" y="-127" font-family="Courier New" font-weight="bold" font-size="10.00" fill="blue">Z_EPSILON(,)</text>
<polygon fill="none" stroke="black" points="538.64,-68 538.64,-118 749.64,-118 749.64,-68 538.64,-68"/>
<text text-anchor="start" x="541.64" y="-107" font-family="Courier New" font-size="10.00" fill="blue"> &#160;&#160;&#160;REF_MACHINE(MEFPAN_VIEWCAP);</text>
<text text-anchor="start" x="541.64" y="-96" font-family="Courier New" font-size="10.00" fill="blue"> &#160;&#160;&#160;if(R_BPARM == 0){ &#160;//no meflin</text>
<text text-anchor="start" x="541.64" y="-85" font-family="Courier New" font-size="10.00" fill="blue"> &#160;&#160;&#160;&#160;&#160;&#160;&#160;SPELL_YOU(WOBJECT);</text>
<text text-anchor="start" x="541.64" y="-74" font-family="Courier New" font-size="10.00" fill="blue"> &#160;&#160;&#160;}</text>
<polygon fill="none" stroke="black" points="535.64,-65 535.64,-140 752.64,-140 752.64,-65 535.64,-65"/>
</g>
<!-- status -->
<g id="node4" class="node">
<title>status</title>
<polygon fill="none" stroke="black" points="324.14,-169.5 324.14,-241.5 575.14,-241.5 575.14,-169.5 324.14,-169.5"/>
<polygon fill="none" stroke="black" points="335.14,-217.5 335.14,-234.5 564.14,-234.5 564.14,-217.5 335.14,-217.5"/>
<text text-anchor="start" x="422.14" y="-224.5" font-family="Courier New" font-weight="bold" font-size="10.00">SOD_SPELL</text>
<polygon fill="none" stroke="black" points="335.14,-176.5 335.14,-215.5 564.14,-215.5 564.14,-176.5 335.14,-176.5"/>
<text text-anchor="start" x="338.14" y="-204.5" font-family="Courier New" font-size="10.00" fill="green">VIEW::IDV_OTHERID @pos(left:0, top:0)</text>
<text text-anchor="start" x="338.14" y="-193.5" font-family="Courier New" font-size="10.00" fill="green">SOD_SPELL::M_O_IDSPELL(&#39;&#39;,&#39;&#39;,&#39;&#39;,&#39;&#39;)</text>
<text text-anchor="start" x="338.14" y="-182.5" font-family="Courier New" font-size="10.00" fill="green">{state:&#39;0&#39;:</text>
<polygon fill="none" stroke="black" points="332.14,-173.5 332.14,-237.5 567.14,-237.5 567.14,-173.5 332.14,-173.5"/>
</g>
</g>
</svg>
