<?xml version="1.0" encoding="UTF-8" standalone="no"?>
<!DOCTYPE svg PUBLIC "-//W3C//DTD SVG 1.1//EN"
 "http://www.w3.org/Graphics/SVG/1.1/DTD/svg11.dtd">
<!-- Generated by graphviz version 10.0.1 (20240210.2158)
 -->
<!-- Title: Automaton Pages: 1 -->
<svg width="1573pt" height="761pt"
 viewBox="0.00 0.00 1572.57 760.75" xmlns="http://www.w3.org/2000/svg" xmlns:xlink="http://www.w3.org/1999/xlink">
<g id="graph0" class="graph" transform="scale(1 1) rotate(0) translate(4 756.75)">
<title>Automaton</title>
<polygon fill="white" stroke="none" points="-4,4 -4,-756.75 1568.57,-756.75 1568.57,4 -4,4"/>
<!-- filename -->
<g id="node1" class="node">
<title>filename</title>
<polygon fill="none" stroke="black" points="30.57,-686 30.57,-739.5 190.57,-739.5 190.57,-686 30.57,-686"/>
<polygon fill="none" stroke="black" points="41.57,-713.75 41.57,-732.5 179.57,-732.5 179.57,-713.75 41.57,-713.75"/>
<text text-anchor="start" x="44.57" y="-721" font-family="Courier New" font-weight="bold" font-size="10.00">SOD_SPELL::M_O_IDSPELL</text>
<polygon fill="none" stroke="black" points="41.57,-693 41.57,-711.75 179.57,-711.75 179.57,-693 41.57,-693"/>
<text text-anchor="start" x="65.57" y="-699.25" font-family="Courier New" font-size="10.00" fill="brown">start state = 0</text>
<polygon fill="none" stroke="black" points="38.57,-690 38.57,-735.5 182.57,-735.5 182.57,-690 38.57,-690"/>
</g>
<!-- 0 -->
<g id="node2" class="node">
<title>0</title>
<polyline fill="none" stroke="darkred" stroke-width="3" points="227.94,-701 243.19,-701"/>
<text text-anchor="start" x="231.44" y="-708.7" font-family="Courier New" font-weight="bold" font-size="14.00">0</text>
<path fill="none" stroke="darkred" stroke-width="3" d="M231.36,-696C231.36,-696 239.77,-696 239.77,-696 243.98,-696 248.19,-700.21 248.19,-704.42 248.19,-704.42 248.19,-721.08 248.19,-721.08 248.19,-725.29 243.98,-729.5 239.77,-729.5 239.77,-729.5 231.36,-729.5 231.36,-729.5 227.15,-729.5 222.94,-725.29 222.94,-721.08 222.94,-721.08 222.94,-704.42 222.94,-704.42 222.94,-700.21 227.15,-696 231.36,-696"/>
</g>
<!-- postProcessObject -->
<g id="node3" class="node">
<title>postProcessObject</title>
<polyline fill="none" stroke="darkred" points="214.44,-421.5 360.69,-421.5"/>
<text text-anchor="start" x="217.44" y="-428.7" font-family="Courier New" font-weight="bold" font-size="14.00">postProcessObject</text>
<path fill="none" stroke="darkred" d="M220.94,-418.5C220.94,-418.5 354.19,-418.5 354.19,-418.5 358.94,-418.5 363.69,-423.25 363.69,-428 363.69,-428 363.69,-437.5 363.69,-437.5 363.69,-442.25 358.94,-447 354.19,-447 354.19,-447 220.94,-447 220.94,-447 216.19,-447 211.44,-442.25 211.44,-437.5 211.44,-437.5 211.44,-428 211.44,-428 211.44,-423.25 216.19,-418.5 220.94,-418.5"/>
</g>
<!-- 0&#45;&gt;postProcessObject -->
<g id="edge1" class="edge">
<title>0&#45;&gt;postProcessObject</title>
<path fill="none" stroke="black" d="M249.17,-690.67C255.21,-680.26 261.8,-667.28 265.57,-654.75 285.66,-587.87 288.33,-505 288.18,-462.25"/>
<polygon fill="black" stroke="black" points="291.68,-462.29 288.08,-452.32 284.68,-462.36 291.68,-462.29"/>
<polygon fill="none" stroke="black" points="291.57,-633 291.57,-651.75 777.57,-651.75 777.57,-633 291.57,-633"/>
<text text-anchor="start" x="489.57" y="-640.25" font-family="Courier New" font-weight="bold" font-size="10.00" fill="orange">WAIT(,SIG_DROP)</text>
<polygon fill="none" stroke="black" points="291.57,-472 291.57,-631 777.57,-631 777.57,-472 291.57,-472"/>
<text text-anchor="start" x="294.57" y="-618.5" font-family="Courier New" font-size="10.00" fill="blue"> &#160;&#160;&#160;REF_MACHINE(MEFPAN_VIEWCAP);</text>
<text text-anchor="start" x="294.57" y="-605.75" font-family="Courier New" font-size="10.00" fill="blue"> &#160;&#160;&#160;MOV(BPARM,R_BPARM);</text>
<text text-anchor="start" x="294.57" y="-593" font-family="Courier New" font-size="10.00" fill="blue"> &#160;&#160;&#160;if(R_BPARM == 1){ &#160;//Theres a meflin up</text>
<text text-anchor="start" x="294.57" y="-580.25" font-family="Courier New" font-size="10.00" fill="blue"> &#160;&#160;&#160;&#160;&#160;&#160;&#160;REF_MACHINE(MEFCURRENT); //Who is it?</text>
<text text-anchor="start" x="294.57" y="-567.5" font-family="Courier New" font-size="10.00" fill="blue"> &#160;&#160;&#160;&#160;&#160;&#160;&#160;MOV(WPARM,R_WPARM);</text>
<text text-anchor="start" x="294.57" y="-554.75" font-family="Courier New" font-size="10.00" fill="blue"> &#160;&#160;&#160;&#160;&#160;&#160;&#160;SIGNAL(WPARM,SIG_DROP); //so the meflin mef_talk can look at the wobject</text>
<text text-anchor="start" x="294.57" y="-542" font-family="Courier New" font-size="10.00" fill="blue"> &#160;&#160;&#160;&#160;&#160;&#160;&#160;SHOW();</text>
<text text-anchor="start" x="294.57" y="-529.25" font-family="Courier New" font-size="10.00" fill="blue"> &#160;&#160;&#160;}</text>
<text text-anchor="start" x="294.57" y="-516.5" font-family="Courier New" font-size="10.00" fill="blue"> &#160;&#160;if(R_BPARM == 0){ </text>
<text text-anchor="start" x="294.57" y="-503.75" font-family="Courier New" font-size="10.00" fill="blue"> &#160;&#160;&#160;&#160;&#160;&#160;&#160;REF_MACHINE(CHAR_DROPTARGET); </text>
<text text-anchor="start" x="294.57" y="-491" font-family="Courier New" font-size="10.00" fill="blue"> &#160;&#160;&#160;&#160;&#160;&#160;&#160;MOV(WOBJECT,R_WOBJECT);</text>
<text text-anchor="start" x="294.57" y="-478.25" font-family="Courier New" font-size="10.00" fill="blue"> &#160;&#160;&#160;} </text>
<polygon fill="none" stroke="black" points="288.57,-469 288.57,-654.75 780.57,-654.75 780.57,-469 288.57,-469"/>
</g>
<!-- cleared -->
<g id="node4" class="node">
<title>cleared</title>
<ellipse fill="none" stroke="black" cx="872.57" cy="-432.75" rx="50.33" ry="18"/>
<text text-anchor="middle" x="872.57" y="-427.7" font-family="Courier New" font-size="14.00">cleared</text>
</g>
<!-- 0&#45;&gt;cleared -->
<g id="edge2" class="edge">
<title>0&#45;&gt;cleared</title>
<path fill="none" stroke="black" d="M249.7,-690.64C255.57,-683.65 263.02,-676.66 271.57,-672.75 325.85,-647.89 761.45,-691.41 808.57,-654.75 867.86,-608.62 874.57,-511 873.96,-462.44"/>
<polygon fill="black" stroke="black" points="877.47,-462.63 873.72,-452.72 870.47,-462.81 877.47,-462.63"/>
<polygon fill="none" stroke="black" points="876.57,-562.88 876.57,-581.62 984.57,-581.62 984.57,-562.88 876.57,-562.88"/>
<text text-anchor="start" x="879.57" y="-570.12" font-family="Courier New" font-weight="bold" font-size="10.00" fill="orange">WAIT(0,SIG_CLEAR)</text>
<polygon fill="none" stroke="black" points="876.57,-542.12 876.57,-560.88 984.57,-560.88 984.57,-542.12 876.57,-542.12"/>
<text text-anchor="start" x="897.57" y="-548.38" font-family="Courier New" font-size="10.00" fill="blue"> &#160;&#160;&#160;SHOW();</text>
<polygon fill="none" stroke="black" points="873.57,-539.12 873.57,-584.62 987.57,-584.62 987.57,-539.12 873.57,-539.12"/>
</g>
<!-- postProcessObject&#45;&gt;0 -->
<g id="edge11" class="edge">
<title>postProcessObject&#45;&gt;0</title>
<path fill="none" stroke="black" d="M203.64,-449.93C195.04,-454.75 187.35,-460.98 181.57,-469 133.27,-535.96 149.97,-578.48 181.57,-654.75 185.9,-665.2 191.73,-664.59 199.57,-672.75 202.48,-675.79 205.51,-678.98 208.5,-682.18"/>
<polygon fill="black" stroke="black" points="205.89,-684.51 215.26,-689.45 211.01,-679.74 205.89,-684.51"/>
<text text-anchor="start" x="185.57" y="-559.75" font-family="Courier New" font-weight="bold" font-size="10.00" fill="blue">Z_EPSILON(,)</text>
</g>
<!-- checkObject -->
<g id="node6" class="node">
<title>checkObject</title>
<polyline fill="none" stroke="darkred" points="286.19,-125 382.94,-125"/>
<text text-anchor="start" x="289.19" y="-132.2" font-family="Courier New" font-weight="bold" font-size="14.00">checkObject</text>
<path fill="none" stroke="darkred" d="M292.69,-122C292.69,-122 376.44,-122 376.44,-122 381.19,-122 385.94,-126.75 385.94,-131.5 385.94,-131.5 385.94,-141 385.94,-141 385.94,-145.75 381.19,-150.5 376.44,-150.5 376.44,-150.5 292.69,-150.5 292.69,-150.5 287.94,-150.5 283.19,-145.75 283.19,-141 283.19,-141 283.19,-131.5 283.19,-131.5 283.19,-126.75 287.94,-122 292.69,-122"/>
</g>
<!-- postProcessObject&#45;&gt;checkObject -->
<g id="edge10" class="edge">
<title>postProcessObject&#45;&gt;checkObject</title>
<path fill="none" stroke="black" d="M302.54,-414.51C306.47,-409.08 310.25,-402.84 312.57,-396.5 341.76,-316.72 339.93,-214.25 336.91,-165.48"/>
<polygon fill="black" stroke="black" points="340.42,-165.53 336.24,-155.79 333.44,-166.01 340.42,-165.53"/>
<polygon fill="none" stroke="black" points="341.57,-275.12 341.57,-293.88 437.57,-293.88 437.57,-275.12 341.57,-275.12"/>
<text text-anchor="start" x="344.57" y="-282.38" font-family="Courier New" font-weight="bold" font-size="10.00" fill="blue">NEQUAL(BPARM,1)</text>
<polygon fill="none" stroke="black" points="338.57,-272.12 338.57,-296.88 440.57,-296.88 440.57,-272.12 338.57,-272.12"/>
</g>
<!-- benign -->
<g id="node5" class="node">
<title>benign</title>
<polyline fill="none" stroke="darkred" points="57.82,-7 113.32,-7"/>
<text text-anchor="start" x="60.82" y="-14.2" font-family="Courier New" font-weight="bold" font-size="14.00">benign</text>
<path fill="none" stroke="darkred" d="M64.32,-4C64.32,-4 106.82,-4 106.82,-4 111.57,-4 116.32,-8.75 116.32,-13.5 116.32,-13.5 116.32,-23 116.32,-23 116.32,-27.75 111.57,-32.5 106.82,-32.5 106.82,-32.5 64.32,-32.5 64.32,-32.5 59.57,-32.5 54.82,-27.75 54.82,-23 54.82,-23 54.82,-13.5 54.82,-13.5 54.82,-8.75 59.57,-4 64.32,-4"/>
</g>
<!-- benign&#45;&gt;0 -->
<g id="edge3" class="edge">
<title>benign&#45;&gt;0</title>
<path fill="none" stroke="black" d="M74.63,-36.29C57.78,-63.69 26.18,-119.81 14.57,-172.5 -6.86,-269.72 -2.05,-298.34 14.57,-396.5 34.85,-516.34 12.5,-575.4 104.57,-654.75 137.12,-682.81 161.98,-651.91 199.57,-672.75 204.26,-675.35 208.67,-678.78 212.7,-682.54"/>
<polygon fill="black" stroke="black" points="209.88,-684.65 219.33,-689.43 214.92,-679.8 209.88,-684.65"/>
<polygon fill="none" stroke="black" points="17.57,-285.5 17.57,-304.25 101.57,-304.25 101.57,-285.5 17.57,-285.5"/>
<text text-anchor="start" x="20.57" y="-292.75" font-family="Courier New" font-weight="bold" font-size="10.00" fill="blue">Z_EPSILON(,0)</text>
<polygon fill="none" stroke="black" points="17.57,-264.75 17.57,-283.5 101.57,-283.5 101.57,-264.75 17.57,-264.75"/>
<text text-anchor="start" x="38.57" y="-271" font-family="Courier New" font-size="10.00" fill="blue">SHOW();</text>
<polygon fill="none" stroke="black" points="14.57,-261.75 14.57,-307.25 104.57,-307.25 104.57,-261.75 14.57,-261.75"/>
</g>
<!-- checkObject&#45;&gt;benign -->
<g id="edge7" class="edge">
<title>checkObject&#45;&gt;benign</title>
<path fill="none" stroke="black" d="M275.55,-133.29C238.9,-129.82 192.01,-121.13 155.57,-100 133.09,-86.96 114.25,-64.02 101.8,-45.91"/>
<polygon fill="black" stroke="black" points="104.82,-44.13 96.39,-37.71 98.97,-47.98 104.82,-44.13"/>
<polygon fill="none" stroke="black" points="158.57,-78.25 158.57,-97 272.57,-97 272.57,-78.25 158.57,-78.25"/>
<text text-anchor="start" x="173.57" y="-85.5" font-family="Courier New" font-weight="bold" font-size="10.00" fill="blue">Z_EPSILON(0,0)</text>
<polygon fill="none" stroke="black" points="158.57,-57.5 158.57,-76.25 272.57,-76.25 272.57,-57.5 158.57,-57.5"/>
<text text-anchor="start" x="161.57" y="-63.75" font-family="Courier New" font-size="10.00" fill="blue"> &#160;&#160;&#160;SHOW(WOBJECT);</text>
<polygon fill="none" stroke="black" points="155.57,-54.5 155.57,-100 275.57,-100 275.57,-54.5 155.57,-54.5"/>
</g>
<!-- itsAbomb -->
<g id="node7" class="node">
<title>itsAbomb</title>
<polyline fill="none" stroke="darkred" points="209.57,-7 281.57,-7"/>
<text text-anchor="start" x="212.57" y="-14.2" font-family="Courier New" font-weight="bold" font-size="14.00">itsAbomb</text>
<path fill="none" stroke="darkred" d="M216.07,-4C216.07,-4 275.07,-4 275.07,-4 279.82,-4 284.57,-8.75 284.57,-13.5 284.57,-13.5 284.57,-23 284.57,-23 284.57,-27.75 279.82,-32.5 275.07,-32.5 275.07,-32.5 216.07,-32.5 216.07,-32.5 211.32,-32.5 206.57,-27.75 206.57,-23 206.57,-23 206.57,-13.5 206.57,-13.5 206.57,-8.75 211.32,-4 216.07,-4"/>
</g>
<!-- checkObject&#45;&gt;itsAbomb -->
<g id="edge4" class="edge">
<title>checkObject&#45;&gt;itsAbomb</title>
<path fill="none" stroke="black" d="M317.3,-118.1C312.22,-112.58 306.88,-106.26 302.57,-100 289.72,-81.33 292.69,-72.97 279.57,-54.5 277.16,-51.11 274.43,-47.73 271.6,-44.48"/>
<polygon fill="black" stroke="black" points="274.37,-42.32 265,-37.37 269.23,-47.08 274.37,-42.32"/>
<text text-anchor="start" x="306.57" y="-75.12" font-family="Courier New" font-weight="bold" font-size="10.00" fill="blue">IS_A(WOBJECT,IDC_BOMB)</text>
</g>
<!-- itsAspell -->
<g id="node8" class="node">
<title>itsAspell</title>
<polyline fill="none" stroke="darkred" points="593.44,-7 673.69,-7"/>
<text text-anchor="start" x="596.44" y="-14.2" font-family="Courier New" font-weight="bold" font-size="14.00">itsAspell</text>
<path fill="none" stroke="darkred" d="M599.94,-4C599.94,-4 667.19,-4 667.19,-4 671.94,-4 676.69,-8.75 676.69,-13.5 676.69,-13.5 676.69,-23 676.69,-23 676.69,-27.75 671.94,-32.5 667.19,-32.5 667.19,-32.5 599.94,-32.5 599.94,-32.5 595.19,-32.5 590.44,-27.75 590.44,-23 590.44,-23 590.44,-13.5 590.44,-13.5 590.44,-8.75 595.19,-4 599.94,-4"/>
</g>
<!-- checkObject&#45;&gt;itsAspell -->
<g id="edge5" class="edge">
<title>checkObject&#45;&gt;itsAspell</title>
<path fill="none" stroke="black" d="M393.68,-135.2C465.21,-133.9 580.01,-127.43 611.57,-100 626.36,-87.14 631.67,-65.42 633.38,-47.74"/>
<polygon fill="black" stroke="black" points="636.87,-48.01 633.98,-37.82 629.89,-47.59 636.87,-48.01"/>
<text text-anchor="start" x="635.57" y="-75.12" font-family="Courier New" font-weight="bold" font-size="10.00" fill="blue">IS_A(WOBJECT,IDC_SPELL)</text>
</g>
<!-- checkObject&#45;&gt;itsAspell -->
<g id="edge6" class="edge">
<title>checkObject&#45;&gt;itsAspell</title>
<path fill="none" stroke="black" d="M393.77,-125.71C411.15,-120.49 429.09,-112.44 442.57,-100 458.67,-85.14 444.65,-68.43 461.57,-54.5 478.22,-40.79 529.03,-31.47 571.14,-25.87"/>
<polygon fill="black" stroke="black" points="571.49,-29.35 580.96,-24.61 570.6,-22.41 571.49,-29.35"/>
<text text-anchor="start" x="465.57" y="-75.12" font-family="Courier New" font-weight="bold" font-size="10.00" fill="blue">IS_A(WOBJECT,IDD_GVIAL)</text>
</g>
<!-- itsAbomb&#45;&gt;0 -->
<g id="edge8" class="edge">
<title>itsAbomb&#45;&gt;0</title>
<path fill="none" stroke="black" d="M198.62,-23.75C177.51,-28.23 154.12,-37.09 139.57,-54.5 105.58,-95.15 126.35,-119.65 122.57,-172.5 114.9,-279.54 81.18,-570.44 147.57,-654.75 162.7,-673.96 179.1,-659.36 199.57,-672.75 203.85,-675.55 207.96,-678.97 211.78,-682.61"/>
<polygon fill="black" stroke="black" points="209.13,-684.89 218.58,-689.67 214.17,-680.04 209.13,-684.89"/>
<polygon fill="none" stroke="black" points="125.57,-291.88 125.57,-310.62 305.57,-310.62 305.57,-291.88 125.57,-291.88"/>
<text text-anchor="start" x="152.57" y="-299.12" font-family="Courier New" font-weight="bold" font-size="10.00" fill="blue">SPELL_YOU(0,SIG_BOMB)</text>
<polygon fill="none" stroke="black" points="125.57,-258.38 125.57,-289.88 305.57,-289.88 305.57,-258.38 125.57,-258.38"/>
<text text-anchor="start" x="128.57" y="-277.38" font-family="Courier New" font-size="10.00" fill="blue"> &#160;&#160;&#160;ADDI(LKARMA,1); </text>
<text text-anchor="start" x="128.57" y="-264.62" font-family="Courier New" font-size="10.00" fill="blue"> &#160;&#160;&#160;SIGNAL(SID_HALO,SIG_ADD);</text>
<polygon fill="none" stroke="black" points="122.57,-255.38 122.57,-313.62 308.57,-313.62 308.57,-255.38 122.57,-255.38"/>
</g>
<!-- itsAspell&#45;&gt;0 -->
<g id="edge9" class="edge">
<title>itsAspell&#45;&gt;0</title>
<path fill="none" stroke="black" d="M684.33,-24.74C721.93,-29.98 768.62,-39.35 780.57,-54.5 801.21,-80.69 803.73,-630.76 780.57,-654.75 741.26,-695.47 323,-649.14 271.57,-672.75 266.49,-675.08 261.81,-678.49 257.61,-682.34"/>
<polygon fill="black" stroke="black" points="255.1,-679.89 250.75,-689.55 260.17,-684.72 255.1,-679.89"/>
<polygon fill="none" stroke="black" points="799.57,-374.75 799.57,-393.5 1561.57,-393.5 1561.57,-374.75 799.57,-374.75"/>
<text text-anchor="start" x="1144.57" y="-382" font-family="Courier New" font-weight="bold" font-size="10.00" fill="blue">Z_EPSILON(,)</text>
<polygon fill="none" stroke="black" points="799.57,-175.5 799.57,-372.75 1561.57,-372.75 1561.57,-175.5 799.57,-175.5"/>
<text text-anchor="start" x="802.57" y="-360.25" font-family="Courier New" font-size="10.00" fill="blue"> &#160;&#160;&#160;&#160;&#160;&#160;&#160;SHOW();</text>
<text text-anchor="start" x="802.57" y="-347.5" font-family="Courier New" font-size="10.00" fill="blue"> &#160;&#160;&#160;&#160;&#160;&#160;&#160;if(WOBJECT == IDD_PROTECT){SHOW();ADDI(LKARMA,2); SIGNAL(SID_HALO,SIG_ADD);SIGNAL(PROTECT_ACTIVE,SIG_SPELLYOU);}</text>
<text text-anchor="start" x="802.57" y="-334.75" font-family="Courier New" font-size="10.00" fill="blue"> &#160;&#160;&#160;&#160;&#160;&#160;&#160;if(WOBJECT == IDD_NYBREATH){SHOW();SIGNAL(NYBREATH_ACTIVE,SIG_SPELLYOU);}</text>
<text text-anchor="start" x="802.57" y="-322" font-family="Courier New" font-size="10.00" fill="blue"> &#160;&#160;&#160;&#160;&#160;&#160;&#160;if(WOBJECT == IDD_WETBREATH){SHOW();SIGNAL(WETBREATH_ACTIVE,SIG_SPELLYOU);}</text>
<text text-anchor="start" x="802.57" y="-309.25" font-family="Courier New" font-size="10.00" fill="blue"> &#160;&#160;&#160;&#160;&#160;&#160;&#160;if(WOBJECT == IDD_TELEKINESIS){SHOW();SIGNAL(TELEKINESIS_ACTIVE,SIG_SPELLYOU);}</text>
<text text-anchor="start" x="802.57" y="-296.5" font-family="Courier New" font-size="10.00" fill="blue"> &#160;&#160;&#160;&#160;&#160;&#160;&#160;if(WOBJECT == IDD_INVISIBLE){SHOW();SIGNAL(INVISIBLE_ACTIVE,SIG_SPELLYOU);}</text>
<text text-anchor="start" x="802.57" y="-283.75" font-family="Courier New" font-size="10.00" fill="blue"> &#160;&#160;&#160;&#160;&#160;&#160;&#160;if(WOBJECT == IDD_ENCHANT){SHOW(WOBJECT);SIGNAL(ENCHANT_ACTIVE,SIG_SPELLYOU);}</text>
<text text-anchor="start" x="802.57" y="-271" font-family="Courier New" font-size="10.00" fill="blue"> &#160;&#160;&#160;&#160;&#160;&#160;&#160;if(WOBJECT == IDD_HOLDING){SHOW(WOBJECT);SIGNAL(HOLDING_ACTIVE,SIG_SPELLYOU);}</text>
<text text-anchor="start" x="802.57" y="-258.25" font-family="Courier New" font-size="10.00" fill="blue"> &#160;&#160;&#160;&#160;&#160;&#160;&#160;if(WOBJECT == IDD_STALKER){SHOW(WOBJECT);SIGNAL(STALKING_ACTIVE,SIG_SPELLYOU);}</text>
<text text-anchor="start" x="802.57" y="-245.5" font-family="Courier New" font-size="10.00" fill="blue"> &#160;&#160;&#160;&#160;&#160;&#160;&#160;if(WOBJECT == IDD_TRANSFER){SHOW();SIGNAL(TRANSFER_ACTIVE,SIG_SPELLYOU);}</text>
<text text-anchor="start" x="802.57" y="-232.75" font-family="Courier New" font-size="10.00" fill="blue"> &#160;&#160;&#160;&#160;&#160;&#160;&#160;if(WOBJECT == IDD_DEATH){SHOW();ADDI(LKARMA,4); SIGNAL(SID_HALO,SIG_ADD);SIGNAL(DEATH_ACTIVE,SIG_SPELLYOU);}</text>
<text text-anchor="start" x="802.57" y="-220" font-family="Courier New" font-size="10.00" fill="blue"> &#160;&#160;&#160;&#160;&#160;&#160;&#160;if(WOBJECT == IDD_BANISHMENT){SHOW();ADDI(LKARMA,2); SIGNAL(SID_HALO,SIG_ADD);SIGNAL(BANISHMENT_ACTIVE,SIG_SPELLYOU);}</text>
<text text-anchor="start" x="802.57" y="-207.25" font-family="Courier New" font-size="10.00" fill="blue"> &#160;&#160;&#160;&#160;&#160;&#160;&#160;if(WOBJECT == IDD_BLINDNESS){SHOW();ADDI(LKARMA,2); SIGNAL(SID_HALO,SIG_ADD);SIGNAL(BLINDNESS_ACTIVE,SIG_SPELLYOU);}</text>
<text text-anchor="start" x="802.57" y="-194.5" font-family="Courier New" font-size="10.00" fill="blue"> &#160;&#160;&#160;&#160;&#160;&#160;&#160;if(WOBJECT == IDD_HALUCINATE){SHOW();SIGNAL(HALUCINATE_ACTIVE,SIG_SPELLYOU);}</text>
<text text-anchor="start" x="802.57" y="-181.75" font-family="Courier New" font-size="10.00" fill="blue"> &#160;&#160;&#160;&#160;&#160;&#160;&#160;if(WOBJECT == IDD_GVIAL){SHOW();SUBI(LKARMA,2); SIGNAL(SID_HALO,SIG_ADD);SIGNAL(GOPA_ACTIVE,SIG_SPELLYOU);}</text>
<polygon fill="none" stroke="black" points="796.57,-172.5 796.57,-396.5 1564.57,-396.5 1564.57,-172.5 796.57,-172.5"/>
</g>
<!-- status -->
<g id="node9" class="node">
<title>status</title>
<polygon fill="none" stroke="black" points="280.57,-673.25 280.57,-752.25 530.57,-752.25 530.57,-673.25 280.57,-673.25"/>
<polygon fill="none" stroke="black" points="291.57,-726.5 291.57,-745.25 519.57,-745.25 519.57,-726.5 291.57,-726.5"/>
<text text-anchor="start" x="378.57" y="-733.75" font-family="Courier New" font-weight="bold" font-size="10.00">SOD_SPELL</text>
<polygon fill="none" stroke="black" points="291.57,-680.25 291.57,-724.5 519.57,-724.5 519.57,-680.25 291.57,-680.25"/>
<text text-anchor="start" x="294.57" y="-712" font-family="Courier New" font-size="10.00" fill="green">VIEW::IDV_OTHERID @pos(left:0, top:0)</text>
<text text-anchor="start" x="294.57" y="-699.25" font-family="Courier New" font-size="10.00" fill="green">SOD_SPELL::M_O_IDSPELL(&#39;&#39;,&#39;&#39;,&#39;&#39;,&#39;&#39;)</text>
<text text-anchor="start" x="294.57" y="-686.5" font-family="Courier New" font-size="10.00" fill="green">{state:&#39;0&#39;: bParm:0 wObject:IDD_BOMB2</text>
<polygon fill="none" stroke="black" points="288.57,-677.25 288.57,-748.25 522.57,-748.25 522.57,-677.25 288.57,-677.25"/>
</g>
</g>
</svg>
