<?xml version="1.0" encoding="UTF-8" standalone="no"?>
<!DOCTYPE svg PUBLIC "-//W3C//DTD SVG 1.1//EN"
 "http://www.w3.org/Graphics/SVG/1.1/DTD/svg11.dtd">
<!-- Generated by graphviz version 8.0.1 (20230327.1645)
 -->
<!-- Title: Automaton Pages: 1 -->
<svg width="649pt" height="377pt"
 viewBox="0.00 0.00 649.00 377.00" xmlns="http://www.w3.org/2000/svg" xmlns:xlink="http://www.w3.org/1999/xlink">
<g id="graph0" class="graph" transform="scale(1 1) rotate(0) translate(4 373)">
<title>Automaton</title>
<polygon fill="white" stroke="none" points="-4,4 -4,-373 645,-373 645,4 -4,4"/>
<!-- filename -->
<g id="node1" class="node">
<title>filename</title>
<polygon fill="none" stroke="black" points="0,-307.5 0,-357.5 155,-357.5 155,-307.5 0,-307.5"/>
<polygon fill="none" stroke="black" points="11,-333.5 11,-350.5 144,-350.5 144,-333.5 11,-333.5"/>
<text text-anchor="start" x="14" y="-340.5" font-family="Courier New" font-weight="bold" font-size="10.00">spinner_top::M19_SPIN</text>
<polygon fill="none" stroke="black" points="11,-314.5 11,-331.5 144,-331.5 144,-314.5 11,-314.5"/>
<text text-anchor="start" x="32" y="-320.5" font-family="Courier New" font-size="10.00" fill="brown">start state = 0</text>
<polygon fill="none" stroke="black" points="8,-311.5 8,-353.5 147,-353.5 147,-311.5 8,-311.5"/>
</g>
<!-- 0 -->
<g id="node2" class="node">
<title>0</title>
<polyline fill="none" stroke="darkred" stroke-width="3" points="192.5,-321.5 208.5,-321.5"/>
<text text-anchor="start" x="196" y="-329.8" font-family="Courier New" font-weight="bold" font-size="14.00">0</text>
<path fill="none" stroke="darkred" stroke-width="3" d="M196.17,-316.5C196.17,-316.5 204.83,-316.5 204.83,-316.5 209.17,-316.5 213.5,-320.83 213.5,-325.17 213.5,-325.17 213.5,-339.83 213.5,-339.83 213.5,-344.17 209.17,-348.5 204.83,-348.5 204.83,-348.5 196.17,-348.5 196.17,-348.5 191.83,-348.5 187.5,-344.17 187.5,-339.83 187.5,-339.83 187.5,-325.17 187.5,-325.17 187.5,-320.83 191.83,-316.5 196.17,-316.5"/>
</g>
<!-- 1 -->
<g id="node3" class="node">
<title>1</title>
<polyline fill="none" stroke="darkred" points="121,-212.5 136,-212.5"/>
<text text-anchor="start" x="124" y="-220.3" font-family="Courier New" font-weight="bold" font-size="14.00">1</text>
<path fill="none" stroke="darkred" d="M125,-209.5C125,-209.5 132,-209.5 132,-209.5 135.5,-209.5 139,-213 139,-216.5 139,-216.5 139,-229.5 139,-229.5 139,-233 135.5,-236.5 132,-236.5 132,-236.5 125,-236.5 125,-236.5 121.5,-236.5 118,-233 118,-229.5 118,-229.5 118,-216.5 118,-216.5 118,-213 121.5,-209.5 125,-209.5"/>
</g>
<!-- 0&#45;&gt;1 -->
<g id="edge1" class="edge">
<title>0&#45;&gt;1</title>
<path fill="none" stroke="black" d="M179.39,-311.2C174.2,-306.22 168.65,-300.91 163.5,-296 155.08,-287.97 150.58,-287.92 144.5,-278 139.48,-269.82 135.96,-259.98 133.53,-250.95"/>
<polygon fill="black" stroke="black" points="136.77,-250.44 131.07,-241.51 129.95,-252.05 136.77,-250.44"/>
<text text-anchor="start" x="148.5" y="-267" font-family="Courier New" font-weight="bold" font-size="10.00" fill="orange">WAIT(0,SIG_SPIN)</text>
</g>
<!-- 2 -->
<g id="node4" class="node">
<title>2</title>
<polyline fill="none" stroke="darkred" points="144,-98.5 159,-98.5"/>
<text text-anchor="start" x="147" y="-106.3" font-family="Courier New" font-weight="bold" font-size="14.00">2</text>
<path fill="none" stroke="darkred" d="M148,-95.5C148,-95.5 155,-95.5 155,-95.5 158.5,-95.5 162,-99 162,-102.5 162,-102.5 162,-115.5 162,-115.5 162,-119 158.5,-122.5 155,-122.5 155,-122.5 148,-122.5 148,-122.5 144.5,-122.5 141,-119 141,-115.5 141,-115.5 141,-102.5 141,-102.5 141,-99 144.5,-95.5 148,-95.5"/>
</g>
<!-- 1&#45;&gt;2 -->
<g id="edge2" class="edge">
<title>1&#45;&gt;2</title>
<path fill="none" stroke="black" d="M124.13,-205.28C120.76,-189.35 117.72,-164.89 124.5,-145 125.58,-141.83 127.07,-138.73 128.81,-135.76"/>
<polygon fill="black" stroke="black" points="132.18,-138.04 134.98,-127.82 126.42,-134.06 132.18,-138.04"/>
<text text-anchor="start" x="128.5" y="-164.5" font-family="Courier New" font-weight="bold" font-size="10.00" fill="blue">ASHOW(WIP1,V_LOOP)</text>
</g>
<!-- 3 -->
<g id="node5" class="node">
<title>3</title>
<polyline fill="none" stroke="darkred" points="200,-7.5 215,-7.5"/>
<text text-anchor="start" x="203" y="-15.3" font-family="Courier New" font-weight="bold" font-size="14.00">3</text>
<path fill="none" stroke="darkred" d="M204,-4.5C204,-4.5 211,-4.5 211,-4.5 214.5,-4.5 218,-8 218,-11.5 218,-11.5 218,-24.5 218,-24.5 218,-28 214.5,-31.5 211,-31.5 211,-31.5 204,-31.5 204,-31.5 200.5,-31.5 197,-28 197,-24.5 197,-24.5 197,-11.5 197,-11.5 197,-8 200.5,-4.5 204,-4.5"/>
</g>
<!-- 2&#45;&gt;3 -->
<g id="edge3" class="edge">
<title>2&#45;&gt;3</title>
<path fill="none" stroke="black" d="M159.7,-91.05C165.16,-80.2 172.75,-65.97 180.5,-54 182.57,-50.81 184.84,-47.55 187.17,-44.36"/>
<polygon fill="black" stroke="black" points="190.49,-46.77 193.74,-36.68 184.91,-42.54 190.49,-46.77"/>
<text text-anchor="start" x="184.5" y="-62" font-family="Courier New" font-weight="bold" font-size="10.00" fill="blue">ESTIME(,3)</text>
</g>
<!-- 3&#45;&gt;0 -->
<g id="edge4" class="edge">
<title>3&#45;&gt;0</title>
<path fill="none" stroke="black" d="M234.32,-35.39C240.43,-40.53 246.12,-46.78 249.5,-54 291.73,-144.16 285.57,-185.21 249.5,-278 247.14,-284.07 238.7,-293.96 229.47,-303.59"/>
<polygon fill="black" stroke="black" points="227.52,-300.61 223,-310.19 232.51,-305.51 227.52,-300.61"/>
<polygon fill="none" stroke="black" points="281.5,-167 281.5,-184 378.5,-184 378.5,-167 281.5,-167"/>
<text text-anchor="start" x="284.5" y="-174" font-family="Courier New" font-weight="bold" font-size="10.00" fill="blue">CLEAR(WSPRITE,)</text>
<polygon fill="none" stroke="black" points="281.5,-148 281.5,-165 378.5,-165 378.5,-148 281.5,-148"/>
<text text-anchor="start" x="296.5" y="-154" font-family="Courier New" font-size="10.00" fill="blue"> &#160;&#160;&#160;SHOW();</text>
<polygon fill="none" stroke="black" points="278.5,-145 278.5,-187 381.5,-187 381.5,-145 278.5,-145"/>
</g>
<!-- status -->
<g id="node6" class="node">
<title>status</title>
<polygon fill="none" stroke="black" points="246,-296.5 246,-368.5 641,-368.5 641,-296.5 246,-296.5"/>
<polygon fill="none" stroke="black" points="257,-344.5 257,-361.5 630,-361.5 630,-344.5 257,-344.5"/>
<text text-anchor="start" x="410" y="-351.5" font-family="Courier New" font-weight="bold" font-size="10.00">spinner_top</text>
<polygon fill="none" stroke="black" points="257,-303.5 257,-342.5 630,-342.5 630,-303.5 257,-303.5"/>
<text text-anchor="start" x="260" y="-331.5" font-family="Courier New" font-size="10.00" fill="green">VIEW::IDV_RACEPAN @pos(left:435, top:0)</text>
<text text-anchor="start" x="260" y="-320.5" font-family="Courier New" font-size="10.00" fill="green">spinner_top::M19_SPIN(&#39;IDS_TOPSPIN&#39;,&#39;3&#39;,&#39;S19_TOPSPIN_MAP&#39;,&#39;&#39;)</text>
<text text-anchor="start" x="260" y="-309.5" font-family="Courier New" font-size="10.00" fill="green">{&#39;0&#39;:</text>
<polygon fill="none" stroke="black" points="254,-300.5 254,-364.5 633,-364.5 633,-300.5 254,-300.5"/>
</g>
</g>
</svg>
