<?xml version="1.0" encoding="UTF-8" standalone="no"?>
<!DOCTYPE svg PUBLIC "-//W3C//DTD SVG 1.1//EN"
 "http://www.w3.org/Graphics/SVG/1.1/DTD/svg11.dtd">
<!-- Generated by graphviz version 8.0.1 (20230327.1645)
 -->
<!-- Title: Automaton Pages: 1 -->
<svg width="523pt" height="418pt"
 viewBox="0.00 0.00 523.00 418.00" xmlns="http://www.w3.org/2000/svg" xmlns:xlink="http://www.w3.org/1999/xlink">
<g id="graph0" class="graph" transform="scale(1 1) rotate(0) translate(4 414)">
<title>Automaton</title>
<polygon fill="white" stroke="none" points="-4,4 -4,-414 519,-414 519,4 -4,4"/>
<!-- filename -->
<g id="node1" class="node">
<title>filename</title>
<polygon fill="none" stroke="black" points="0,-348.5 0,-398.5 137,-398.5 137,-348.5 0,-348.5"/>
<polygon fill="none" stroke="black" points="11,-374.5 11,-391.5 126,-391.5 126,-374.5 11,-374.5"/>
<text text-anchor="start" x="14" y="-381.5" font-family="Courier New" font-weight="bold" font-size="10.00">sq_0_b::M19_HOLDER</text>
<polygon fill="none" stroke="black" points="11,-355.5 11,-372.5 126,-372.5 126,-355.5 11,-355.5"/>
<text text-anchor="start" x="23" y="-361.5" font-family="Courier New" font-size="10.00" fill="brown">start state = 0</text>
<polygon fill="none" stroke="black" points="8,-352.5 8,-394.5 129,-394.5 129,-352.5 8,-352.5"/>
</g>
<!-- 0 -->
<g id="node2" class="node">
<title>0</title>
<polyline fill="none" stroke="darkred" points="175,-363 190,-363"/>
<text text-anchor="start" x="178" y="-370.8" font-family="Courier New" font-weight="bold" font-size="14.00">0</text>
<path fill="none" stroke="darkred" d="M179,-360C179,-360 186,-360 186,-360 189.5,-360 193,-363.5 193,-367 193,-367 193,-380 193,-380 193,-383.5 189.5,-387 186,-387 186,-387 179,-387 179,-387 175.5,-387 172,-383.5 172,-380 172,-380 172,-367 172,-367 172,-363.5 175.5,-360 179,-360"/>
</g>
<!-- present -->
<g id="node3" class="node">
<title>present</title>
<polyline fill="none" stroke="darkred" points="12.5,-219.5 76.5,-219.5"/>
<text text-anchor="start" x="15.5" y="-227.3" font-family="Courier New" font-weight="bold" font-size="14.00">present</text>
<path fill="none" stroke="darkred" d="M18.5,-216.5C18.5,-216.5 70.5,-216.5 70.5,-216.5 75,-216.5 79.5,-221 79.5,-225.5 79.5,-225.5 79.5,-234.5 79.5,-234.5 79.5,-239 75,-243.5 70.5,-243.5 70.5,-243.5 18.5,-243.5 18.5,-243.5 14,-243.5 9.5,-239 9.5,-234.5 9.5,-234.5 9.5,-225.5 9.5,-225.5 9.5,-221 14,-216.5 18.5,-216.5"/>
</g>
<!-- 0&#45;&gt;present -->
<g id="edge1" class="edge">
<title>0&#45;&gt;present</title>
<path fill="none" stroke="black" d="M169.05,-355.6C162.65,-348.73 154.45,-341.39 145.5,-337 96.28,-312.88 59.32,-360.49 23.5,-319 8.82,-301.99 17.1,-276.51 27.27,-257.34"/>
<polygon fill="black" stroke="black" points="30.71,-259.38 32.65,-248.97 24.64,-255.9 30.71,-259.38"/>
<polygon fill="none" stroke="black" points="26.5,-299 26.5,-316 165.5,-316 165.5,-299 26.5,-299"/>
<text text-anchor="start" x="56.5" y="-306" font-family="Courier New" font-weight="bold" font-size="10.00" fill="blue">ACCEPT(,WIP2)</text>
<polygon fill="none" stroke="black" points="26.5,-269 26.5,-297 165.5,-297 165.5,-269 26.5,-269"/>
<text text-anchor="start" x="29.5" y="-286" font-family="Courier New" font-size="10.00" fill="blue"> &#160;&#160;&#160;MOV(WOBJECT,WIP2);</text>
<text text-anchor="start" x="29.5" y="-275" font-family="Courier New" font-size="10.00" fill="blue"> &#160;&#160;&#160;SHOW(WOBJECT);</text>
<polygon fill="none" stroke="black" points="23.5,-266 23.5,-319 168.5,-319 168.5,-266 23.5,-266"/>
</g>
<!-- empty -->
<g id="node4" class="node">
<title>empty</title>
<polyline fill="none" stroke="darkred" stroke-width="3" points="117,-101.5 166,-101.5"/>
<text text-anchor="start" x="120.5" y="-109.8" font-family="Courier New" font-weight="bold" font-size="14.00">empty</text>
<path fill="none" stroke="darkred" stroke-width="3" d="M122.67,-96.5C122.67,-96.5 160.33,-96.5 160.33,-96.5 165.67,-96.5 171,-101.83 171,-107.17 171,-107.17 171,-117.83 171,-117.83 171,-123.17 165.67,-128.5 160.33,-128.5 160.33,-128.5 122.67,-128.5 122.67,-128.5 117.33,-128.5 112,-123.17 112,-117.83 112,-117.83 112,-107.17 112,-107.17 112,-101.83 117.33,-96.5 122.67,-96.5"/>
</g>
<!-- present&#45;&gt;empty -->
<g id="edge4" class="edge">
<title>present&#45;&gt;empty</title>
<path fill="none" stroke="black" d="M58.4,-212.45C73.75,-194.17 98.76,-164.39 117.34,-142.27"/>
<polygon fill="black" stroke="black" points="120.61,-144.82 124.36,-134.91 115.25,-140.32 120.61,-144.82"/>
<polygon fill="none" stroke="black" points="110.5,-174 110.5,-191 159.5,-191 159.5,-174 110.5,-174"/>
<text text-anchor="start" x="113.5" y="-181" font-family="Courier New" font-weight="bold" font-size="10.00" fill="orange">GRAB(,)</text>
<polygon fill="none" stroke="black" points="110.5,-155 110.5,-172 159.5,-172 159.5,-155 110.5,-155"/>
<text text-anchor="start" x="113.5" y="-161" font-family="Courier New" font-size="10.00" fill="blue">SHOW();</text>
<polygon fill="none" stroke="black" points="107.5,-152 107.5,-194 162.5,-194 162.5,-152 107.5,-152"/>
</g>
<!-- empty&#45;&gt;0 -->
<g id="edge2" class="edge">
<title>empty&#45;&gt;0</title>
<path fill="none" stroke="black" d="M157.3,-133.69C160.94,-139.33 164.37,-145.65 166.5,-152 188.79,-218.35 187.45,-302.06 184.82,-344.73"/>
<polygon fill="black" stroke="black" points="181.27,-344.41 184.07,-354.63 188.25,-344.89 181.27,-344.41"/>
<text text-anchor="start" x="187.5" y="-228.5" font-family="Courier New" font-weight="bold" font-size="10.00" fill="orange">DROP(,)</text>
</g>
<!-- resetting -->
<g id="node5" class="node">
<title>resetting</title>
<polyline fill="none" stroke="darkred" points="161,-7.5 242,-7.5"/>
<text text-anchor="start" x="164" y="-15.3" font-family="Courier New" font-weight="bold" font-size="14.00">resetting</text>
<path fill="none" stroke="darkred" d="M167,-4.5C167,-4.5 236,-4.5 236,-4.5 240.5,-4.5 245,-9 245,-13.5 245,-13.5 245,-22.5 245,-22.5 245,-27 240.5,-31.5 236,-31.5 236,-31.5 167,-31.5 167,-31.5 162.5,-31.5 158,-27 158,-22.5 158,-22.5 158,-13.5 158,-13.5 158,-9 162.5,-4.5 167,-4.5"/>
</g>
<!-- empty&#45;&gt;resetting -->
<g id="edge3" class="edge">
<title>empty&#45;&gt;resetting</title>
<path fill="none" stroke="black" d="M137.18,-91.04C135.83,-79.42 136.08,-65.05 142.5,-54 144.96,-49.77 148.14,-46 151.76,-42.65"/>
<polygon fill="black" stroke="black" points="153.56,-44.9 159.25,-35.96 149.23,-39.4 153.56,-44.9"/>
<text text-anchor="start" x="146.5" y="-62" font-family="Courier New" font-weight="bold" font-size="10.00" fill="orange">WAIT(,SIG_RESET)</text>
</g>
<!-- resetting&#45;&gt;0 -->
<g id="edge5" class="edge">
<title>resetting&#45;&gt;0</title>
<path fill="none" stroke="black" d="M231.78,-35.68C238.11,-40.69 243.93,-46.81 247.5,-54 285.83,-131.34 258.77,-164.1 238.5,-248 229.89,-283.64 211.24,-321.66 197.83,-346.18"/>
<polygon fill="black" stroke="black" points="194.44,-344.07 192.62,-354.5 200.55,-347.48 194.44,-344.07"/>
<text text-anchor="start" x="267.5" y="-171.5" font-family="Courier New" font-weight="bold" font-size="10.00" fill="blue">Z_EPSILON(,)</text>
</g>
<!-- status -->
<g id="node6" class="node">
<title>status</title>
<polygon fill="none" stroke="black" points="228,-337.5 228,-409.5 515,-409.5 515,-337.5 228,-337.5"/>
<polygon fill="none" stroke="black" points="239,-385.5 239,-402.5 504,-402.5 504,-385.5 239,-385.5"/>
<text text-anchor="start" x="353" y="-392.5" font-family="Courier New" font-weight="bold" font-size="10.00">sq_0_b</text>
<polygon fill="none" stroke="black" points="239,-344.5 239,-383.5 504,-383.5 504,-344.5 239,-344.5"/>
<text text-anchor="start" x="242" y="-372.5" font-family="Courier New" font-size="10.00" fill="green">VIEW::IDV_RACEPAN @pos(left:264, top:237)</text>
<text text-anchor="start" x="242" y="-361.5" font-family="Courier New" font-size="10.00" fill="green">sq_0_b::M19_HOLDER(&#39;&#39;,&#39;IDD_PLAYER_B&#39;,&#39;&#39;,&#39;&#39;)</text>
<text text-anchor="start" x="242" y="-350.5" font-family="Courier New" font-size="10.00" fill="green">{state:&#39;empty&#39;: wAccept:IDD_PLAYER_B</text>
<polygon fill="none" stroke="black" points="236,-341.5 236,-405.5 507,-405.5 507,-341.5 236,-341.5"/>
</g>
</g>
</svg>
