<?xml version="1.0" encoding="UTF-8" standalone="no"?>
<!DOCTYPE svg PUBLIC "-//W3C//DTD SVG 1.1//EN"
 "http://www.w3.org/Graphics/SVG/1.1/DTD/svg11.dtd">
<!-- Generated by graphviz version 8.0.1 (20230327.1645)
 -->
<!-- Title: Automaton Pages: 1 -->
<svg width="762pt" height="338pt"
 viewBox="0.00 0.00 762.19 338.00" xmlns="http://www.w3.org/2000/svg" xmlns:xlink="http://www.w3.org/1999/xlink">
<g id="graph0" class="graph" transform="scale(1 1) rotate(0) translate(4 334)">
<title>Automaton</title>
<polygon fill="white" stroke="none" points="-4,4 -4,-334 758.19,-334 758.19,4 -4,4"/>
<!-- filename -->
<g id="node1" class="node">
<title>filename</title>
<polygon fill="none" stroke="black" points="179.19,-268.5 179.19,-318.5 322.19,-318.5 322.19,-268.5 179.19,-268.5"/>
<polygon fill="none" stroke="black" points="190.19,-294.5 190.19,-311.5 311.19,-311.5 311.19,-294.5 190.19,-294.5"/>
<text text-anchor="start" x="193.19" y="-301.5" font-family="Courier New" font-weight="bold" font-size="10.00">sq_16_t::M19_SQUARE</text>
<polygon fill="none" stroke="black" points="190.19,-275.5 190.19,-292.5 311.19,-292.5 311.19,-275.5 190.19,-275.5"/>
<text text-anchor="start" x="205.19" y="-281.5" font-family="Courier New" font-size="10.00" fill="brown">start state = 0</text>
<polygon fill="none" stroke="black" points="187.19,-272.5 187.19,-314.5 314.19,-314.5 314.19,-272.5 187.19,-272.5"/>
</g>
<!-- 0 -->
<g id="node2" class="node">
<title>0</title>
<polyline fill="none" stroke="darkred" points="360.19,-283 375.19,-283"/>
<text text-anchor="start" x="363.19" y="-290.8" font-family="Courier New" font-weight="bold" font-size="14.00">0</text>
<path fill="none" stroke="darkred" d="M364.19,-280C364.19,-280 371.19,-280 371.19,-280 374.69,-280 378.19,-283.5 378.19,-287 378.19,-287 378.19,-300 378.19,-300 378.19,-303.5 374.69,-307 371.19,-307 371.19,-307 364.19,-307 364.19,-307 360.69,-307 357.19,-303.5 357.19,-300 357.19,-300 357.19,-287 357.19,-287 357.19,-283.5 360.69,-280 364.19,-280"/>
</g>
<!-- squareempty -->
<g id="node3" class="node">
<title>squareempty</title>
<polyline fill="none" stroke="darkred" stroke-width="3" points="219.69,-146.5 317.69,-146.5"/>
<text text-anchor="start" x="223.19" y="-154.8" font-family="Courier New" font-weight="bold" font-size="14.00">squareempty</text>
<path fill="none" stroke="darkred" stroke-width="3" d="M225.36,-141.5C225.36,-141.5 312.03,-141.5 312.03,-141.5 317.36,-141.5 322.69,-146.83 322.69,-152.17 322.69,-152.17 322.69,-162.83 322.69,-162.83 322.69,-168.17 317.36,-173.5 312.03,-173.5 312.03,-173.5 225.36,-173.5 225.36,-173.5 220.03,-173.5 214.69,-168.17 214.69,-162.83 214.69,-162.83 214.69,-152.17 214.69,-152.17 214.69,-146.83 220.03,-141.5 225.36,-141.5"/>
</g>
<!-- 0&#45;&gt;squareempty -->
<g id="edge1" class="edge">
<title>0&#45;&gt;squareempty</title>
<path fill="none" stroke="black" d="M354.12,-275.67C347.93,-268.98 340.1,-261.76 331.69,-257 303.74,-241.18 281.38,-264.39 261.69,-239 250.91,-225.09 252.38,-205.47 256.68,-189.08"/>
<polygon fill="black" stroke="black" points="260.23,-190.46 259.82,-179.87 253.54,-188.4 260.23,-190.46"/>
<polygon fill="none" stroke="black" points="264.69,-219 264.69,-236 457.69,-236 457.69,-219 264.69,-219"/>
<text text-anchor="start" x="288.69" y="-226" font-family="Courier New" font-weight="bold" font-size="10.00" fill="blue">C_ACCEPT(,ISA_PLAYTOKEN)</text>
<polygon fill="none" stroke="black" points="264.69,-200 264.69,-217 457.69,-217 457.69,-200 264.69,-200"/>
<text text-anchor="start" x="267.69" y="-206" font-family="Courier New" font-size="10.00" fill="blue">ASSIGN(BPARM,0);CLEAR(WOBJECT);</text>
<polygon fill="none" stroke="black" points="261.69,-197 261.69,-239 460.69,-239 460.69,-197 261.69,-197"/>
</g>
<!-- resetting -->
<g id="node4" class="node">
<title>resetting</title>
<polyline fill="none" stroke="darkred" points="373.19,-7.5 454.19,-7.5"/>
<text text-anchor="start" x="376.19" y="-15.3" font-family="Courier New" font-weight="bold" font-size="14.00">resetting</text>
<path fill="none" stroke="darkred" d="M379.19,-4.5C379.19,-4.5 448.19,-4.5 448.19,-4.5 452.69,-4.5 457.19,-9 457.19,-13.5 457.19,-13.5 457.19,-22.5 457.19,-22.5 457.19,-27 452.69,-31.5 448.19,-31.5 448.19,-31.5 379.19,-31.5 379.19,-31.5 374.69,-31.5 370.19,-27 370.19,-22.5 370.19,-22.5 370.19,-13.5 370.19,-13.5 370.19,-9 374.69,-4.5 379.19,-4.5"/>
</g>
<!-- squareempty&#45;&gt;resetting -->
<g id="edge4" class="edge">
<title>squareempty&#45;&gt;resetting</title>
<path fill="none" stroke="black" d="M307.92,-136.2C315.5,-131.01 322.88,-124.91 328.69,-118 348.58,-94.38 335.49,-77.34 355.69,-54 359.49,-49.61 363.99,-45.61 368.76,-42.02"/>
<polygon fill="black" stroke="black" points="370.3,-44.52 376.58,-35.98 366.35,-38.74 370.3,-44.52"/>
<text text-anchor="start" x="359.69" y="-84.5" font-family="Courier New" font-weight="bold" font-size="10.00" fill="orange">WAIT(,SIG_RESET)</text>
</g>
<!-- squareholding -->
<g id="node5" class="node">
<title>squareholding</title>
<polyline fill="none" stroke="darkred" points="117.69,-7.5 231.69,-7.5"/>
<text text-anchor="start" x="120.69" y="-15.3" font-family="Courier New" font-weight="bold" font-size="14.00">squareholding</text>
<path fill="none" stroke="darkred" d="M123.69,-4.5C123.69,-4.5 225.69,-4.5 225.69,-4.5 230.19,-4.5 234.69,-9 234.69,-13.5 234.69,-13.5 234.69,-22.5 234.69,-22.5 234.69,-27 230.19,-31.5 225.69,-31.5 225.69,-31.5 123.69,-31.5 123.69,-31.5 119.19,-31.5 114.69,-27 114.69,-22.5 114.69,-22.5 114.69,-13.5 114.69,-13.5 114.69,-9 119.19,-4.5 123.69,-4.5"/>
</g>
<!-- squareempty&#45;&gt;squareholding -->
<g id="edge3" class="edge">
<title>squareempty&#45;&gt;squareholding</title>
<path fill="none" stroke="black" d="M205.29,-156.02C137.96,-154 37.93,-146.17 13.69,-118 -4.86,-96.44 -4.16,-76.15 13.69,-54 24.52,-40.57 60.87,-32.03 96.3,-26.75"/>
<polygon fill="black" stroke="black" points="96.33,-30.14 105.74,-25.28 95.35,-23.2 96.33,-30.14"/>
<polygon fill="none" stroke="black" points="16.69,-98 16.69,-115 245.69,-115 245.69,-98 16.69,-98"/>
<text text-anchor="start" x="109.69" y="-105" font-family="Courier New" font-weight="bold" font-size="10.00" fill="orange">DROP(,)</text>
<polygon fill="none" stroke="black" points="16.69,-57 16.69,-96 245.69,-96 245.69,-57 16.69,-57"/>
<text text-anchor="start" x="19.69" y="-85" font-family="Courier New" font-size="10.00" fill="blue"> &#160;&#160;&#160;SHOW(WOBJECT);</text>
<text text-anchor="start" x="19.69" y="-74" font-family="Courier New" font-size="10.00" fill="blue"> &#160;&#160;&#160;MOV(BPARM,WOBJECT);</text>
<text text-anchor="start" x="19.69" y="-63" font-family="Courier New" font-size="10.00" fill="blue"> &#160;&#160;&#160;SIGNALi(WIP2,S19_PLAYERWATCHER); </text>
<polygon fill="none" stroke="black" points="13.69,-54 13.69,-118 248.69,-118 248.69,-54 13.69,-54"/>
</g>
<!-- resetting&#45;&gt;0 -->
<g id="edge2" class="edge">
<title>resetting&#45;&gt;0</title>
<path fill="none" stroke="black" d="M445.1,-35.95C451.38,-40.89 457.13,-46.91 460.69,-54 497.59,-127.48 509.13,-172.56 460.69,-239 445.29,-260.13 427.15,-243.61 404.69,-257 399.53,-260.08 394.52,-264 389.94,-268.11"/>
<polygon fill="black" stroke="black" points="387.98,-265.1 383.22,-274.56 392.84,-270.14 387.98,-265.1"/>
<text text-anchor="start" x="496.69" y="-156" font-family="Courier New" font-weight="bold" font-size="10.00" fill="blue">Z_EPSILON(,)</text>
</g>
<!-- squareholding&#45;&gt;squareempty -->
<g id="edge5" class="edge">
<title>squareholding&#45;&gt;squareempty</title>
<path fill="none" stroke="black" d="M226.96,-35.98C235.23,-40.68 242.94,-46.59 248.69,-54 264.43,-74.23 268.88,-103.38 269.72,-125.42"/>
<polygon fill="black" stroke="black" points="266.23,-125.26 269.87,-135.21 273.23,-125.16 266.23,-125.26"/>
<polygon fill="none" stroke="black" points="272.69,-87 272.69,-104 321.69,-104 321.69,-87 272.69,-87"/>
<text text-anchor="start" x="275.69" y="-94" font-family="Courier New" font-weight="bold" font-size="10.00" fill="orange">GRAB(,)</text>
<polygon fill="none" stroke="black" points="272.69,-68 272.69,-85 321.69,-85 321.69,-68 272.69,-68"/>
<text text-anchor="start" x="275.69" y="-74" font-family="Courier New" font-size="10.00" fill="blue">SHOW();</text>
<polygon fill="none" stroke="black" points="269.69,-65 269.69,-107 324.69,-107 324.69,-65 269.69,-65"/>
</g>
<!-- status -->
<g id="node6" class="node">
<title>status</title>
<polygon fill="none" stroke="black" points="413.19,-257.5 413.19,-329.5 754.19,-329.5 754.19,-257.5 413.19,-257.5"/>
<polygon fill="none" stroke="black" points="424.19,-305.5 424.19,-322.5 743.19,-322.5 743.19,-305.5 424.19,-305.5"/>
<text text-anchor="start" x="562.19" y="-312.5" font-family="Courier New" font-weight="bold" font-size="10.00">sq_16_t</text>
<polygon fill="none" stroke="black" points="424.19,-264.5 424.19,-303.5 743.19,-303.5 743.19,-264.5 424.19,-264.5"/>
<text text-anchor="start" x="427.19" y="-292.5" font-family="Courier New" font-size="10.00" fill="green">VIEW::IDV_RACEPAN @pos(left:316, top:159)</text>
<text text-anchor="start" x="427.19" y="-281.5" font-family="Courier New" font-size="10.00" fill="green">sq_16_t::M19_SQUARE(&#39;VIOLET_SQUARE&#39;,&#39;SIG_16T&#39;,&#39;&#39;,&#39;&#39;)</text>
<text text-anchor="start" x="427.19" y="-270.5" font-family="Courier New" font-size="10.00" fill="green">{&#39;squareempty&#39;:</text>
<polygon fill="none" stroke="black" points="421.19,-261.5 421.19,-325.5 746.19,-325.5 746.19,-261.5 421.19,-261.5"/>
</g>
</g>
</svg>
