<?xml version="1.0" encoding="UTF-8" standalone="no"?>
<!DOCTYPE svg PUBLIC "-//W3C//DTD SVG 1.1//EN"
 "http://www.w3.org/Graphics/SVG/1.1/DTD/svg11.dtd">
<!-- Generated by graphviz version 8.0.1 (20230327.1645)
 -->
<!-- Title: Automaton Pages: 1 -->
<svg width="707pt" height="293pt"
 viewBox="0.00 0.00 706.86 293.00" xmlns="http://www.w3.org/2000/svg" xmlns:xlink="http://www.w3.org/1999/xlink">
<g id="graph0" class="graph" transform="scale(1 1) rotate(0) translate(4 289)">
<title>Automaton</title>
<polygon fill="white" stroke="none" points="-4,4 -4,-289 702.86,-289 702.86,4 -4,4"/>
<!-- filename -->
<g id="node1" class="node">
<title>filename</title>
<polygon fill="none" stroke="black" points="75.86,-223.5 75.86,-273.5 218.86,-273.5 218.86,-223.5 75.86,-223.5"/>
<polygon fill="none" stroke="black" points="86.86,-249.5 86.86,-266.5 207.86,-266.5 207.86,-249.5 86.86,-249.5"/>
<text text-anchor="start" x="89.86" y="-256.5" font-family="Courier New" font-weight="bold" font-size="10.00">sq_14_t::M19_SQUARE</text>
<polygon fill="none" stroke="black" points="86.86,-230.5 86.86,-247.5 207.86,-247.5 207.86,-230.5 86.86,-230.5"/>
<text text-anchor="start" x="101.86" y="-236.5" font-family="Courier New" font-size="10.00" fill="brown">start state = 0</text>
<polygon fill="none" stroke="black" points="83.86,-227.5 83.86,-269.5 210.86,-269.5 210.86,-227.5 83.86,-227.5"/>
</g>
<!-- 0 -->
<g id="node2" class="node">
<title>0</title>
<polyline fill="none" stroke="darkred" points="256.86,-238 271.86,-238"/>
<text text-anchor="start" x="259.86" y="-245.8" font-family="Courier New" font-weight="bold" font-size="14.00">0</text>
<path fill="none" stroke="darkred" d="M260.86,-235C260.86,-235 267.86,-235 267.86,-235 271.36,-235 274.86,-238.5 274.86,-242 274.86,-242 274.86,-255 274.86,-255 274.86,-258.5 271.36,-262 267.86,-262 267.86,-262 260.86,-262 260.86,-262 257.36,-262 253.86,-258.5 253.86,-255 253.86,-255 253.86,-242 253.86,-242 253.86,-238.5 257.36,-235 260.86,-235"/>
</g>
<!-- squareempty -->
<g id="node3" class="node">
<title>squareempty</title>
<polyline fill="none" stroke="darkred" points="115.86,-128.5 212.86,-128.5"/>
<text text-anchor="start" x="118.86" y="-136.3" font-family="Courier New" font-weight="bold" font-size="14.00">squareempty</text>
<path fill="none" stroke="darkred" d="M121.86,-125.5C121.86,-125.5 206.86,-125.5 206.86,-125.5 211.36,-125.5 215.86,-130 215.86,-134.5 215.86,-134.5 215.86,-143.5 215.86,-143.5 215.86,-148 211.36,-152.5 206.86,-152.5 206.86,-152.5 121.86,-152.5 121.86,-152.5 117.36,-152.5 112.86,-148 112.86,-143.5 112.86,-143.5 112.86,-134.5 112.86,-134.5 112.86,-130 117.36,-125.5 121.86,-125.5"/>
</g>
<!-- 0&#45;&gt;squareempty -->
<g id="edge1" class="edge">
<title>0&#45;&gt;squareempty</title>
<path fill="none" stroke="black" d="M249.67,-230.63C243.53,-224.25 236.04,-217.26 228.36,-212 212.28,-200.98 202.12,-207.82 188.36,-194 181,-186.6 175.7,-176.56 171.99,-167.14"/>
<polygon fill="black" stroke="black" points="175.03,-166.24 168.44,-157.94 168.42,-168.54 175.03,-166.24"/>
<text text-anchor="start" x="192.36" y="-183" font-family="Courier New" font-weight="bold" font-size="10.00" fill="blue">C_ACCEPT(,ISA_PLAYTOKEN)</text>
</g>
<!-- resetting -->
<g id="node4" class="node">
<title>resetting</title>
<polyline fill="none" stroke="darkred" points="247.86,-11 328.86,-11"/>
<text text-anchor="start" x="250.86" y="-18.8" font-family="Courier New" font-weight="bold" font-size="14.00">resetting</text>
<path fill="none" stroke="darkred" d="M253.86,-8C253.86,-8 322.86,-8 322.86,-8 327.36,-8 331.86,-12.5 331.86,-17 331.86,-17 331.86,-26 331.86,-26 331.86,-30.5 327.36,-35 322.86,-35 322.86,-35 253.86,-35 253.86,-35 249.36,-35 244.86,-30.5 244.86,-26 244.86,-26 244.86,-17 244.86,-17 244.86,-12.5 249.36,-8 253.86,-8"/>
</g>
<!-- squareempty&#45;&gt;resetting -->
<g id="edge4" class="edge">
<title>squareempty&#45;&gt;resetting</title>
<path fill="none" stroke="black" d="M192.59,-121.09C199.91,-115.88 207.4,-109.72 213.36,-103 227.49,-87.08 222.37,-77.04 236.36,-61 241.08,-55.6 246.67,-50.49 252.42,-45.88"/>
<polygon fill="black" stroke="black" points="254,-48.32 259.85,-39.49 249.77,-42.74 254,-48.32"/>
<text text-anchor="start" x="240.36" y="-80.5" font-family="Courier New" font-weight="bold" font-size="10.00" fill="orange">WAIT(,SIG_RESET)</text>
</g>
<!-- squareholding -->
<g id="node5" class="node">
<title>squareholding</title>
<polyline fill="none" stroke="darkred" stroke-width="3" points="45.86,-10.5 160.86,-10.5"/>
<text text-anchor="start" x="49.36" y="-18.8" font-family="Courier New" font-weight="bold" font-size="14.00">squareholding</text>
<path fill="none" stroke="darkred" stroke-width="3" d="M51.53,-5.5C51.53,-5.5 155.2,-5.5 155.2,-5.5 160.53,-5.5 165.86,-10.83 165.86,-16.17 165.86,-16.17 165.86,-26.83 165.86,-26.83 165.86,-32.17 160.53,-37.5 155.2,-37.5 155.2,-37.5 51.53,-37.5 51.53,-37.5 46.2,-37.5 40.86,-32.17 40.86,-26.83 40.86,-26.83 40.86,-16.17 40.86,-16.17 40.86,-10.83 46.2,-5.5 51.53,-5.5"/>
</g>
<!-- squareempty&#45;&gt;squareholding -->
<g id="edge3" class="edge">
<title>squareempty&#45;&gt;squareholding</title>
<path fill="none" stroke="black" d="M105.19,-132.35C66.35,-127.28 20.55,-118.22 8.36,-103 -3.3,-88.43 -2.07,-76.48 8.36,-61 12.21,-55.29 17.07,-50.42 22.55,-46.27"/>
<polygon fill="black" stroke="black" points="24.15,-48.75 30.6,-40.34 20.32,-42.9 24.15,-48.75"/>
<polygon fill="none" stroke="black" points="11.36,-83 11.36,-100 132.36,-100 132.36,-83 11.36,-83"/>
<text text-anchor="start" x="50.36" y="-90" font-family="Courier New" font-weight="bold" font-size="10.00" fill="orange">DROP(,)</text>
<polygon fill="none" stroke="black" points="11.36,-64 11.36,-81 132.36,-81 132.36,-64 11.36,-64"/>
<text text-anchor="start" x="14.36" y="-70" font-family="Courier New" font-size="10.00" fill="blue"> &#160;&#160;&#160;SHOW(WOBJECT); </text>
<polygon fill="none" stroke="black" points="8.36,-61 8.36,-103 135.36,-103 135.36,-61 8.36,-61"/>
</g>
<!-- resetting&#45;&gt;0 -->
<g id="edge2" class="edge">
<title>resetting&#45;&gt;0</title>
<path fill="none" stroke="black" d="M321.56,-39.36C329.48,-45.08 336.92,-52.29 341.36,-61 368.2,-113.67 373.46,-144.36 341.36,-194 330.78,-210.37 317.52,-201.09 301.36,-212 296.47,-215.3 291.64,-219.27 287.16,-223.34"/>
<polygon fill="black" stroke="black" points="285.32,-220.21 280.53,-229.66 290.17,-225.26 285.32,-220.21"/>
<text text-anchor="start" x="367.36" y="-137.5" font-family="Courier New" font-weight="bold" font-size="10.00" fill="blue">Z_EPSILON(,)</text>
</g>
<!-- squareholding&#45;&gt;squareempty -->
<g id="edge5" class="edge">
<title>squareholding&#45;&gt;squareempty</title>
<path fill="none" stroke="black" d="M122.32,-42.74C126.99,-48.37 131.69,-54.69 135.36,-61 144.44,-76.6 151.62,-95.56 156.56,-110.76"/>
<polygon fill="black" stroke="black" points="153.46,-111.55 159.77,-120.06 160.14,-109.47 153.46,-111.55"/>
<polygon fill="none" stroke="black" points="157.36,-83 157.36,-100 206.36,-100 206.36,-83 157.36,-83"/>
<text text-anchor="start" x="160.36" y="-90" font-family="Courier New" font-weight="bold" font-size="10.00" fill="orange">GRAB(,)</text>
<polygon fill="none" stroke="black" points="157.36,-64 157.36,-81 206.36,-81 206.36,-64 157.36,-64"/>
<text text-anchor="start" x="160.36" y="-70" font-family="Courier New" font-size="10.00" fill="blue">SHOW();</text>
<polygon fill="none" stroke="black" points="154.36,-61 154.36,-103 209.36,-103 209.36,-61 154.36,-61"/>
</g>
<!-- status -->
<g id="node6" class="node">
<title>status</title>
<polygon fill="none" stroke="black" points="309.86,-212.5 309.86,-284.5 698.86,-284.5 698.86,-212.5 309.86,-212.5"/>
<polygon fill="none" stroke="black" points="320.86,-260.5 320.86,-277.5 687.86,-277.5 687.86,-260.5 320.86,-260.5"/>
<text text-anchor="start" x="482.86" y="-267.5" font-family="Courier New" font-weight="bold" font-size="10.00">sq_14_t</text>
<polygon fill="none" stroke="black" points="320.86,-219.5 320.86,-258.5 687.86,-258.5 687.86,-219.5 320.86,-219.5"/>
<text text-anchor="start" x="323.86" y="-247.5" font-family="Courier New" font-size="10.00" fill="green">VIEW::IDV_RACEPAN @pos(left:263, top:176)</text>
<text text-anchor="start" x="323.86" y="-236.5" font-family="Courier New" font-size="10.00" fill="green">sq_14_t::M19_SQUARE(&#39;&#39;,&#39;&#39;,&#39;&#39;,&#39;&#39;)</text>
<text text-anchor="start" x="323.86" y="-225.5" font-family="Courier New" font-size="10.00" fill="green">{&#39;squareholding&#39;: wObject:IDD_PLAYER_W wAccept:ISA_PLAYTOKEN</text>
<polygon fill="none" stroke="black" points="317.86,-216.5 317.86,-280.5 690.86,-280.5 690.86,-216.5 317.86,-216.5"/>
</g>
</g>
</svg>
