<?xml version="1.0" encoding="UTF-8" standalone="no"?>
<!DOCTYPE svg PUBLIC "-//W3C//DTD SVG 1.1//EN"
 "http://www.w3.org/Graphics/SVG/1.1/DTD/svg11.dtd">
<!-- Generated by graphviz version 8.0.1 (20230327.1645)
 -->
<!-- Title: Automaton Pages: 1 -->
<svg width="593pt" height="293pt"
 viewBox="0.00 0.00 592.88 293.00" xmlns="http://www.w3.org/2000/svg" xmlns:xlink="http://www.w3.org/1999/xlink">
<g id="graph0" class="graph" transform="scale(1 1) rotate(0) translate(4 289)">
<title>Automaton</title>
<polygon fill="white" stroke="none" points="-4,4 -4,-289 588.88,-289 588.88,4 -4,4"/>
<!-- filename -->
<g id="node1" class="node">
<title>filename</title>
<polygon fill="none" stroke="black" points="75.88,-223.5 75.88,-273.5 218.88,-273.5 218.88,-223.5 75.88,-223.5"/>
<polygon fill="none" stroke="black" points="86.88,-249.5 86.88,-266.5 207.88,-266.5 207.88,-249.5 86.88,-249.5"/>
<text text-anchor="start" x="89.88" y="-256.5" font-family="Courier New" font-weight="bold" font-size="10.00">sq_13_t::M19_SQUARE</text>
<polygon fill="none" stroke="black" points="86.88,-230.5 86.88,-247.5 207.88,-247.5 207.88,-230.5 86.88,-230.5"/>
<text text-anchor="start" x="101.88" y="-236.5" font-family="Courier New" font-size="10.00" fill="brown">start state = 0</text>
<polygon fill="none" stroke="black" points="83.88,-227.5 83.88,-269.5 210.88,-269.5 210.88,-227.5 83.88,-227.5"/>
</g>
<!-- 0 -->
<g id="node2" class="node">
<title>0</title>
<polyline fill="none" stroke="darkred" points="256.88,-238 271.88,-238"/>
<text text-anchor="start" x="259.88" y="-245.8" font-family="Courier New" font-weight="bold" font-size="14.00">0</text>
<path fill="none" stroke="darkred" d="M260.88,-235C260.88,-235 267.88,-235 267.88,-235 271.38,-235 274.88,-238.5 274.88,-242 274.88,-242 274.88,-255 274.88,-255 274.88,-258.5 271.38,-262 267.88,-262 267.88,-262 260.88,-262 260.88,-262 257.38,-262 253.88,-258.5 253.88,-255 253.88,-255 253.88,-242 253.88,-242 253.88,-238.5 257.38,-235 260.88,-235"/>
</g>
<!-- squareempty -->
<g id="node3" class="node">
<title>squareempty</title>
<polyline fill="none" stroke="darkred" stroke-width="3" points="115.38,-124.5 213.38,-124.5"/>
<text text-anchor="start" x="118.88" y="-132.8" font-family="Courier New" font-weight="bold" font-size="14.00">squareempty</text>
<path fill="none" stroke="darkred" stroke-width="3" d="M121.05,-119.5C121.05,-119.5 207.71,-119.5 207.71,-119.5 213.05,-119.5 218.38,-124.83 218.38,-130.17 218.38,-130.17 218.38,-140.83 218.38,-140.83 218.38,-146.17 213.05,-151.5 207.71,-151.5 207.71,-151.5 121.05,-151.5 121.05,-151.5 115.71,-151.5 110.38,-146.17 110.38,-140.83 110.38,-140.83 110.38,-130.17 110.38,-130.17 110.38,-124.83 115.71,-119.5 121.05,-119.5"/>
</g>
<!-- 0&#45;&gt;squareempty -->
<g id="edge1" class="edge">
<title>0&#45;&gt;squareempty</title>
<path fill="none" stroke="black" d="M249.69,-230.63C243.55,-224.25 236.06,-217.26 228.38,-212 212.3,-200.98 201.97,-207.97 188.38,-194 181.2,-186.62 176.04,-176.78 172.39,-167.33"/>
<polygon fill="black" stroke="black" points="175.41,-166.33 168.89,-157.97 168.78,-168.57 175.41,-166.33"/>
<text text-anchor="start" x="192.38" y="-183" font-family="Courier New" font-weight="bold" font-size="10.00" fill="blue">C_ACCEPT(,ISA_PLAYTOKEN)</text>
</g>
<!-- resetting -->
<g id="node4" class="node">
<title>resetting</title>
<polyline fill="none" stroke="darkred" points="246.88,-7.5 327.88,-7.5"/>
<text text-anchor="start" x="249.88" y="-15.3" font-family="Courier New" font-weight="bold" font-size="14.00">resetting</text>
<path fill="none" stroke="darkred" d="M252.88,-4.5C252.88,-4.5 321.88,-4.5 321.88,-4.5 326.38,-4.5 330.88,-9 330.88,-13.5 330.88,-13.5 330.88,-22.5 330.88,-22.5 330.88,-27 326.38,-31.5 321.88,-31.5 321.88,-31.5 252.88,-31.5 252.88,-31.5 248.38,-31.5 243.88,-27 243.88,-22.5 243.88,-22.5 243.88,-13.5 243.88,-13.5 243.88,-9 248.38,-4.5 252.88,-4.5"/>
</g>
<!-- squareempty&#45;&gt;resetting -->
<g id="edge4" class="edge">
<title>squareempty&#45;&gt;resetting</title>
<path fill="none" stroke="black" d="M193.38,-114.14C200.06,-108.69 206.83,-102.5 212.38,-96 226.34,-79.65 221.82,-69.81 236.38,-54 240.15,-49.91 244.48,-46.04 248.99,-42.47"/>
<polygon fill="black" stroke="black" points="250.81,-44.74 256.79,-36 246.66,-39.1 250.81,-44.74"/>
<text text-anchor="start" x="240.38" y="-73.5" font-family="Courier New" font-weight="bold" font-size="10.00" fill="orange">WAIT(,SIG_RESET)</text>
</g>
<!-- squareholding -->
<g id="node5" class="node">
<title>squareholding</title>
<polyline fill="none" stroke="darkred" points="47.38,-7.5 161.38,-7.5"/>
<text text-anchor="start" x="50.38" y="-15.3" font-family="Courier New" font-weight="bold" font-size="14.00">squareholding</text>
<path fill="none" stroke="darkred" d="M53.38,-4.5C53.38,-4.5 155.38,-4.5 155.38,-4.5 159.88,-4.5 164.38,-9 164.38,-13.5 164.38,-13.5 164.38,-22.5 164.38,-22.5 164.38,-27 159.88,-31.5 155.38,-31.5 155.38,-31.5 53.38,-31.5 53.38,-31.5 48.88,-31.5 44.38,-27 44.38,-22.5 44.38,-22.5 44.38,-13.5 44.38,-13.5 44.38,-9 48.88,-4.5 53.38,-4.5"/>
</g>
<!-- squareempty&#45;&gt;squareholding -->
<g id="edge3" class="edge">
<title>squareempty&#45;&gt;squareholding</title>
<path fill="none" stroke="black" d="M100.97,-126.83C63.05,-120.79 20.03,-110.88 8.38,-96 -3.13,-81.3 -2.32,-69.29 8.38,-54 13.31,-46.95 19.83,-41.31 27.14,-36.81"/>
<polygon fill="black" stroke="black" points="28.59,-39.47 35.78,-31.69 25.3,-33.29 28.59,-39.47"/>
<polygon fill="none" stroke="black" points="11.38,-76 11.38,-93 132.38,-93 132.38,-76 11.38,-76"/>
<text text-anchor="start" x="50.38" y="-83" font-family="Courier New" font-weight="bold" font-size="10.00" fill="orange">DROP(,)</text>
<polygon fill="none" stroke="black" points="11.38,-57 11.38,-74 132.38,-74 132.38,-57 11.38,-57"/>
<text text-anchor="start" x="14.38" y="-63" font-family="Courier New" font-size="10.00" fill="blue"> &#160;&#160;&#160;SHOW(WOBJECT); </text>
<polygon fill="none" stroke="black" points="8.38,-54 8.38,-96 135.38,-96 135.38,-54 8.38,-54"/>
</g>
<!-- resetting&#45;&gt;0 -->
<g id="edge2" class="edge">
<title>resetting&#45;&gt;0</title>
<path fill="none" stroke="black" d="M324.47,-35.9C331.25,-40.75 337.43,-46.74 341.38,-54 371.09,-108.67 375.17,-141.75 341.38,-194 330.8,-210.37 317.54,-201.09 301.38,-212 296.49,-215.3 291.66,-219.27 287.17,-223.34"/>
<polygon fill="black" stroke="black" points="285.34,-220.21 280.55,-229.66 290.19,-225.26 285.34,-220.21"/>
<text text-anchor="start" x="368.38" y="-134" font-family="Courier New" font-weight="bold" font-size="10.00" fill="blue">Z_EPSILON(,)</text>
</g>
<!-- squareholding&#45;&gt;squareempty -->
<g id="edge5" class="edge">
<title>squareholding&#45;&gt;squareempty</title>
<path fill="none" stroke="black" d="M121.56,-35.78C126.5,-41.25 131.57,-47.58 135.38,-54 144.55,-69.47 151.54,-88.31 156.35,-103.87"/>
<polygon fill="black" stroke="black" points="153.16,-104.43 159.33,-113.04 159.88,-102.46 153.16,-104.43"/>
<polygon fill="none" stroke="black" points="156.38,-76 156.38,-93 205.38,-93 205.38,-76 156.38,-76"/>
<text text-anchor="start" x="159.38" y="-83" font-family="Courier New" font-weight="bold" font-size="10.00" fill="orange">GRAB(,)</text>
<polygon fill="none" stroke="black" points="156.38,-57 156.38,-74 205.38,-74 205.38,-57 156.38,-57"/>
<text text-anchor="start" x="159.38" y="-63" font-family="Courier New" font-size="10.00" fill="blue">SHOW();</text>
<polygon fill="none" stroke="black" points="153.38,-54 153.38,-96 208.38,-96 208.38,-54 153.38,-54"/>
</g>
<!-- status -->
<g id="node6" class="node">
<title>status</title>
<polygon fill="none" stroke="black" points="309.88,-212.5 309.88,-284.5 584.88,-284.5 584.88,-212.5 309.88,-212.5"/>
<polygon fill="none" stroke="black" points="320.88,-260.5 320.88,-277.5 573.88,-277.5 573.88,-260.5 320.88,-260.5"/>
<text text-anchor="start" x="425.88" y="-267.5" font-family="Courier New" font-weight="bold" font-size="10.00">sq_13_t</text>
<polygon fill="none" stroke="black" points="320.88,-219.5 320.88,-258.5 573.88,-258.5 573.88,-219.5 320.88,-219.5"/>
<text text-anchor="start" x="323.88" y="-247.5" font-family="Courier New" font-size="10.00" fill="green">VIEW::IDV_RACEPAN @pos(left:263, top:176)</text>
<text text-anchor="start" x="323.88" y="-236.5" font-family="Courier New" font-size="10.00" fill="green">sq_13_t::M19_SQUARE(&#39;&#39;,&#39;&#39;,&#39;&#39;,&#39;&#39;)</text>
<text text-anchor="start" x="323.88" y="-225.5" font-family="Courier New" font-size="10.00" fill="green">{&#39;squareempty&#39;: wAccept:ISA_PLAYTOKEN</text>
<polygon fill="none" stroke="black" points="317.88,-216.5 317.88,-280.5 576.88,-280.5 576.88,-216.5 317.88,-216.5"/>
</g>
</g>
</svg>
