<?xml version="1.0" encoding="UTF-8" standalone="no"?>
<!DOCTYPE svg PUBLIC "-//W3C//DTD SVG 1.1//EN"
 "http://www.w3.org/Graphics/SVG/1.1/DTD/svg11.dtd">
<!-- Generated by graphviz version 8.0.1 (20230327.1645)
 -->
<!-- Title: Automaton Pages: 1 -->
<svg width="820pt" height="315pt"
 viewBox="0.00 0.00 820.18 315.00" xmlns="http://www.w3.org/2000/svg" xmlns:xlink="http://www.w3.org/1999/xlink">
<g id="graph0" class="graph" transform="scale(1 1) rotate(0) translate(4 311)">
<title>Automaton</title>
<polygon fill="white" stroke="none" points="-4,4 -4,-311 816.18,-311 816.18,4 -4,4"/>
<!-- filename -->
<g id="node1" class="node">
<title>filename</title>
<polygon fill="none" stroke="black" points="195.18,-245.5 195.18,-295.5 332.18,-295.5 332.18,-245.5 195.18,-245.5"/>
<polygon fill="none" stroke="black" points="206.18,-271.5 206.18,-288.5 321.18,-288.5 321.18,-271.5 206.18,-271.5"/>
<text text-anchor="start" x="209.18" y="-278.5" font-family="Courier New" font-weight="bold" font-size="10.00">sq_9_b::M19_SQUARE</text>
<polygon fill="none" stroke="black" points="206.18,-252.5 206.18,-269.5 321.18,-269.5 321.18,-252.5 206.18,-252.5"/>
<text text-anchor="start" x="218.18" y="-258.5" font-family="Courier New" font-size="10.00" fill="brown">start state = 0</text>
<polygon fill="none" stroke="black" points="203.18,-249.5 203.18,-291.5 324.18,-291.5 324.18,-249.5 203.18,-249.5"/>
</g>
<!-- 0 -->
<g id="node2" class="node">
<title>0</title>
<polyline fill="none" stroke="darkred" points="370.18,-260 385.18,-260"/>
<text text-anchor="start" x="373.18" y="-267.8" font-family="Courier New" font-weight="bold" font-size="14.00">0</text>
<path fill="none" stroke="darkred" d="M374.18,-257C374.18,-257 381.18,-257 381.18,-257 384.68,-257 388.18,-260.5 388.18,-264 388.18,-264 388.18,-277 388.18,-277 388.18,-280.5 384.68,-284 381.18,-284 381.18,-284 374.18,-284 374.18,-284 370.68,-284 367.18,-280.5 367.18,-277 367.18,-277 367.18,-264 367.18,-264 367.18,-260.5 370.68,-257 374.18,-257"/>
</g>
<!-- squareempty -->
<g id="node3" class="node">
<title>squareempty</title>
<polyline fill="none" stroke="darkred" points="229.18,-150.5 326.18,-150.5"/>
<text text-anchor="start" x="232.18" y="-158.3" font-family="Courier New" font-weight="bold" font-size="14.00">squareempty</text>
<path fill="none" stroke="darkred" d="M235.18,-147.5C235.18,-147.5 320.18,-147.5 320.18,-147.5 324.68,-147.5 329.18,-152 329.18,-156.5 329.18,-156.5 329.18,-165.5 329.18,-165.5 329.18,-170 324.68,-174.5 320.18,-174.5 320.18,-174.5 235.18,-174.5 235.18,-174.5 230.68,-174.5 226.18,-170 226.18,-165.5 226.18,-165.5 226.18,-156.5 226.18,-156.5 226.18,-152 230.68,-147.5 235.18,-147.5"/>
</g>
<!-- 0&#45;&gt;squareempty -->
<g id="edge1" class="edge">
<title>0&#45;&gt;squareempty</title>
<path fill="none" stroke="black" d="M362.99,-252.63C356.85,-246.25 349.36,-239.26 341.68,-234 325.6,-222.98 315.43,-229.82 301.68,-216 294.32,-208.6 289.02,-198.56 285.3,-189.14"/>
<polygon fill="black" stroke="black" points="288.35,-188.24 281.76,-179.94 281.74,-190.54 288.35,-188.24"/>
<text text-anchor="start" x="305.68" y="-205" font-family="Courier New" font-weight="bold" font-size="10.00" fill="blue">C_ACCEPT(,ISA_PLAYTOKEN)</text>
</g>
<!-- resetting -->
<g id="node4" class="node">
<title>resetting</title>
<polyline fill="none" stroke="darkred" points="368.18,-11 449.18,-11"/>
<text text-anchor="start" x="371.18" y="-18.8" font-family="Courier New" font-weight="bold" font-size="14.00">resetting</text>
<path fill="none" stroke="darkred" d="M374.18,-8C374.18,-8 443.18,-8 443.18,-8 447.68,-8 452.18,-12.5 452.18,-17 452.18,-17 452.18,-26 452.18,-26 452.18,-30.5 447.68,-35 443.18,-35 443.18,-35 374.18,-35 374.18,-35 369.68,-35 365.18,-30.5 365.18,-26 365.18,-26 365.18,-17 365.18,-17 365.18,-12.5 369.68,-8 374.18,-8"/>
</g>
<!-- squareempty&#45;&gt;resetting -->
<g id="edge4" class="edge">
<title>squareempty&#45;&gt;resetting</title>
<path fill="none" stroke="black" d="M307.4,-143.13C314.45,-138.03 321.45,-131.92 326.68,-125 344.92,-100.9 330.94,-84.71 349.68,-61 354.22,-55.26 359.85,-50.1 365.83,-45.57"/>
<polygon fill="black" stroke="black" points="367.52,-47.96 373.73,-39.37 363.53,-42.21 367.52,-47.96"/>
<text text-anchor="start" x="353.68" y="-91.5" font-family="Courier New" font-weight="bold" font-size="10.00" fill="orange">WAIT(,SIG_RESET)</text>
</g>
<!-- squareholding -->
<g id="node5" class="node">
<title>squareholding</title>
<polyline fill="none" stroke="darkred" stroke-width="3" points="112.18,-10.5 227.18,-10.5"/>
<text text-anchor="start" x="115.68" y="-18.8" font-family="Courier New" font-weight="bold" font-size="14.00">squareholding</text>
<path fill="none" stroke="darkred" stroke-width="3" d="M117.85,-5.5C117.85,-5.5 221.52,-5.5 221.52,-5.5 226.85,-5.5 232.18,-10.83 232.18,-16.17 232.18,-16.17 232.18,-26.83 232.18,-26.83 232.18,-32.17 226.85,-37.5 221.52,-37.5 221.52,-37.5 117.85,-37.5 117.85,-37.5 112.52,-37.5 107.18,-32.17 107.18,-26.83 107.18,-26.83 107.18,-16.17 107.18,-16.17 107.18,-10.83 112.52,-5.5 117.85,-5.5"/>
</g>
<!-- squareempty&#45;&gt;squareholding -->
<g id="edge3" class="edge">
<title>squareempty&#45;&gt;squareholding</title>
<path fill="none" stroke="black" d="M218.31,-160.82C148.77,-160.36 39.73,-154.73 13.68,-125 -5.06,-103.61 -3.86,-83.39 13.68,-61 23.42,-48.56 55.07,-39.6 87.34,-33.46"/>
<polygon fill="black" stroke="black" points="87.59,-36.79 96.81,-31.57 86.35,-29.91 87.59,-36.79"/>
<polygon fill="none" stroke="black" points="16.68,-105 16.68,-122 245.68,-122 245.68,-105 16.68,-105"/>
<text text-anchor="start" x="109.68" y="-112" font-family="Courier New" font-weight="bold" font-size="10.00" fill="orange">DROP(,)</text>
<polygon fill="none" stroke="black" points="16.68,-64 16.68,-103 245.68,-103 245.68,-64 16.68,-64"/>
<text text-anchor="start" x="19.68" y="-92" font-family="Courier New" font-size="10.00" fill="blue"> &#160;&#160;&#160;SHOW(WOBJECT);</text>
<text text-anchor="start" x="19.68" y="-81" font-family="Courier New" font-size="10.00" fill="blue"> &#160;&#160;&#160;MOV(BPARM,WOBJECT);</text>
<text text-anchor="start" x="19.68" y="-70" font-family="Courier New" font-size="10.00" fill="blue"> &#160;&#160;&#160;SIGNALi(WIP2,S19_PLAYERWATCHER); </text>
<polygon fill="none" stroke="black" points="13.68,-61 13.68,-125 248.68,-125 248.68,-61 13.68,-61"/>
</g>
<!-- resetting&#45;&gt;0 -->
<g id="edge2" class="edge">
<title>resetting&#45;&gt;0</title>
<path fill="none" stroke="black" d="M436.62,-39.36C443.85,-45.23 450.72,-52.51 454.68,-61 483.83,-123.42 492.09,-158.15 454.68,-216 444.1,-232.37 430.84,-223.09 414.68,-234 409.79,-237.3 404.96,-241.27 400.47,-245.34"/>
<polygon fill="black" stroke="black" points="398.64,-242.21 393.85,-251.66 403.49,-247.26 398.64,-242.21"/>
<text text-anchor="start" x="483.68" y="-159.5" font-family="Courier New" font-weight="bold" font-size="10.00" fill="blue">Z_EPSILON(,)</text>
</g>
<!-- squareholding&#45;&gt;squareempty -->
<g id="edge5" class="edge">
<title>squareholding&#45;&gt;squareempty</title>
<path fill="none" stroke="black" d="M226.51,-42.87C234.8,-47.79 242.58,-53.77 248.68,-61 257.84,-71.85 266.78,-107.23 272.25,-132.6"/>
<polygon fill="black" stroke="black" points="268.98,-133.02 274.45,-142.09 275.83,-131.58 268.98,-133.02"/>
<polygon fill="none" stroke="black" points="272.68,-94 272.68,-111 321.68,-111 321.68,-94 272.68,-94"/>
<text text-anchor="start" x="275.68" y="-101" font-family="Courier New" font-weight="bold" font-size="10.00" fill="orange">GRAB(,)</text>
<polygon fill="none" stroke="black" points="272.68,-75 272.68,-92 321.68,-92 321.68,-75 272.68,-75"/>
<text text-anchor="start" x="275.68" y="-81" font-family="Courier New" font-size="10.00" fill="blue">SHOW();</text>
<polygon fill="none" stroke="black" points="269.68,-72 269.68,-114 324.68,-114 324.68,-72 269.68,-72"/>
</g>
<!-- status -->
<g id="node6" class="node">
<title>status</title>
<polygon fill="none" stroke="black" points="423.18,-234.5 423.18,-306.5 812.18,-306.5 812.18,-234.5 423.18,-234.5"/>
<polygon fill="none" stroke="black" points="434.18,-282.5 434.18,-299.5 801.18,-299.5 801.18,-282.5 434.18,-282.5"/>
<text text-anchor="start" x="599.18" y="-289.5" font-family="Courier New" font-weight="bold" font-size="10.00">sq_9_b</text>
<polygon fill="none" stroke="black" points="434.18,-241.5 434.18,-280.5 801.18,-280.5 801.18,-241.5 434.18,-241.5"/>
<text text-anchor="start" x="437.18" y="-269.5" font-family="Courier New" font-size="10.00" fill="green">VIEW::IDV_RACEPAN @pos(left:155, top:196)</text>
<text text-anchor="start" x="437.18" y="-258.5" font-family="Courier New" font-size="10.00" fill="green">sq_9_b::M19_SQUARE(&#39;&#39;,&#39;SIG_9B&#39;,&#39;&#39;,&#39;&#39;)</text>
<text text-anchor="start" x="437.18" y="-247.5" font-family="Courier New" font-size="10.00" fill="green">{&#39;squareholding&#39;: wObject:IDD_PLAYER_B wAccept:ISA_PLAYTOKEN</text>
<polygon fill="none" stroke="black" points="431.18,-238.5 431.18,-302.5 804.18,-302.5 804.18,-238.5 431.18,-238.5"/>
</g>
</g>
</svg>
