<?xml version="1.0" encoding="UTF-8" standalone="no"?>
<!DOCTYPE svg PUBLIC "-//W3C//DTD SVG 1.1//EN"
 "http://www.w3.org/Graphics/SVG/1.1/DTD/svg11.dtd">
<!-- Generated by graphviz version 8.0.1 (20230327.1645)
 -->
<!-- Title: Automaton Pages: 1 -->
<svg width="829pt" height="418pt"
 viewBox="0.00 0.00 829.00 418.00" xmlns="http://www.w3.org/2000/svg" xmlns:xlink="http://www.w3.org/1999/xlink">
<g id="graph0" class="graph" transform="scale(1 1) rotate(0) translate(4 414)">
<title>Automaton</title>
<polygon fill="white" stroke="none" points="-4,4 -4,-414 825,-414 825,4 -4,4"/>
<!-- filename -->
<g id="node1" class="node">
<title>filename</title>
<polygon fill="none" stroke="black" points="0,-348.5 0,-398.5 233,-398.5 233,-348.5 0,-348.5"/>
<polygon fill="none" stroke="black" points="11,-374.5 11,-391.5 222,-391.5 222,-374.5 11,-374.5"/>
<text text-anchor="start" x="14" y="-381.5" font-family="Courier New" font-weight="bold" font-size="10.00">TELEKINESIS_ACTIVE::M_DEFENSESPELL</text>
<polygon fill="none" stroke="black" points="11,-355.5 11,-372.5 222,-372.5 222,-355.5 11,-355.5"/>
<text text-anchor="start" x="71" y="-361.5" font-family="Courier New" font-size="10.00" fill="brown">start state = 0</text>
<polygon fill="none" stroke="black" points="8,-352.5 8,-394.5 225,-394.5 225,-352.5 8,-352.5"/>
</g>
<!-- 0 -->
<g id="node2" class="node">
<title>0</title>
<polyline fill="none" stroke="darkred" points="271,-363 286,-363"/>
<text text-anchor="start" x="274" y="-370.8" font-family="Courier New" font-weight="bold" font-size="14.00">0</text>
<path fill="none" stroke="darkred" d="M275,-360C275,-360 282,-360 282,-360 285.5,-360 289,-363.5 289,-367 289,-367 289,-380 289,-380 289,-383.5 285.5,-387 282,-387 282,-387 275,-387 275,-387 271.5,-387 268,-383.5 268,-380 268,-380 268,-367 268,-367 268,-363.5 271.5,-360 275,-360"/>
</g>
<!-- turntOn -->
<g id="node3" class="node">
<title>turntOn</title>
<polyline fill="none" stroke="darkred" points="159.5,-219.5 223.5,-219.5"/>
<text text-anchor="start" x="162.5" y="-227.3" font-family="Courier New" font-weight="bold" font-size="14.00">turntOn</text>
<path fill="none" stroke="darkred" d="M165.5,-216.5C165.5,-216.5 217.5,-216.5 217.5,-216.5 222,-216.5 226.5,-221 226.5,-225.5 226.5,-225.5 226.5,-234.5 226.5,-234.5 226.5,-239 222,-243.5 217.5,-243.5 217.5,-243.5 165.5,-243.5 165.5,-243.5 161,-243.5 156.5,-239 156.5,-234.5 156.5,-234.5 156.5,-225.5 156.5,-225.5 156.5,-221 161,-216.5 165.5,-216.5"/>
</g>
<!-- 0&#45;&gt;turntOn -->
<g id="edge1" class="edge">
<title>0&#45;&gt;turntOn</title>
<path fill="none" stroke="black" d="M263.99,-355.54C257.65,-348.99 249.77,-341.9 241.5,-337 218.65,-323.45 200.2,-340.43 184.5,-319 171.78,-301.64 175.12,-276.84 180.73,-257.99"/>
<polygon fill="black" stroke="black" points="184.33,-259.28 184.19,-248.68 177.69,-257.05 184.33,-259.28"/>
<polygon fill="none" stroke="black" points="187.5,-299 187.5,-316 356.5,-316 356.5,-299 187.5,-299"/>
<text text-anchor="start" x="220.5" y="-306" font-family="Courier New" font-weight="bold" font-size="10.00" fill="orange">WAIT(0,SIG_START)</text>
<polygon fill="none" stroke="black" points="187.5,-269 187.5,-297 356.5,-297 356.5,-269 187.5,-269"/>
<text text-anchor="start" x="190.5" y="-286" font-family="Courier New" font-size="10.00" fill="blue"> &#160;&#160;&#160;SHOW(WIP1);</text>
<text text-anchor="start" x="190.5" y="-275" font-family="Courier New" font-size="10.00" fill="blue"> &#160;&#160;&#160;SIGNAL(WIP2,SIG_START);</text>
<polygon fill="none" stroke="black" points="184.5,-266 184.5,-319 359.5,-319 359.5,-266 184.5,-266"/>
</g>
<!-- active -->
<g id="node4" class="node">
<title>active</title>
<polyline fill="none" stroke="darkred" stroke-width="3" points="212,-124.5 269,-124.5"/>
<text text-anchor="start" x="215.5" y="-132.8" font-family="Courier New" font-weight="bold" font-size="14.00">active</text>
<path fill="none" stroke="darkred" stroke-width="3" d="M217.67,-119.5C217.67,-119.5 263.33,-119.5 263.33,-119.5 268.67,-119.5 274,-124.83 274,-130.17 274,-130.17 274,-140.83 274,-140.83 274,-146.17 268.67,-151.5 263.33,-151.5 263.33,-151.5 217.67,-151.5 217.67,-151.5 212.33,-151.5 207,-146.17 207,-140.83 207,-140.83 207,-130.17 207,-130.17 207,-124.83 212.33,-119.5 217.67,-119.5"/>
</g>
<!-- turntOn&#45;&gt;active -->
<g id="edge4" class="edge">
<title>turntOn&#45;&gt;active</title>
<path fill="none" stroke="black" d="M200.49,-212.03C207.24,-199.28 216.67,-181.49 224.67,-166.38"/>
<polygon fill="black" stroke="black" points="228.1,-168.39 229.69,-157.91 221.91,-165.11 228.1,-168.39"/>
<text text-anchor="start" x="223.5" y="-183" font-family="Courier New" font-weight="bold" font-size="10.00" fill="blue">Z_EPSILON(,)</text>
</g>
<!-- ended -->
<g id="node5" class="node">
<title>ended</title>
<polyline fill="none" stroke="darkred" points="283.5,-7.5 331.5,-7.5"/>
<text text-anchor="start" x="286.5" y="-15.3" font-family="Courier New" font-weight="bold" font-size="14.00">ended</text>
<path fill="none" stroke="darkred" d="M289.5,-4.5C289.5,-4.5 325.5,-4.5 325.5,-4.5 330,-4.5 334.5,-9 334.5,-13.5 334.5,-13.5 334.5,-22.5 334.5,-22.5 334.5,-27 330,-31.5 325.5,-31.5 325.5,-31.5 289.5,-31.5 289.5,-31.5 285,-31.5 280.5,-27 280.5,-22.5 280.5,-22.5 280.5,-13.5 280.5,-13.5 280.5,-9 285,-4.5 289.5,-4.5"/>
</g>
<!-- active&#45;&gt;ended -->
<g id="edge2" class="edge">
<title>active&#45;&gt;ended</title>
<path fill="none" stroke="black" d="M238.36,-114.01C237.58,-96.68 238.99,-71.88 250.5,-54 253.96,-48.62 258.57,-43.93 263.68,-39.89"/>
<polygon fill="black" stroke="black" points="265.4,-42.27 271.63,-33.69 261.41,-36.51 265.4,-42.27"/>
<polygon fill="none" stroke="black" points="253.5,-76 253.5,-93 356.5,-93 356.5,-76 253.5,-76"/>
<text text-anchor="start" x="256.5" y="-83" font-family="Courier New" font-weight="bold" font-size="10.00" fill="orange">WAIT(0,SIG_STOP)</text>
<polygon fill="none" stroke="black" points="253.5,-57 253.5,-74 356.5,-74 356.5,-57 253.5,-57"/>
<text text-anchor="start" x="271.5" y="-63" font-family="Courier New" font-size="10.00" fill="blue"> &#160;&#160;&#160;SHOW();</text>
<polygon fill="none" stroke="black" points="250.5,-54 250.5,-96 359.5,-96 359.5,-54 250.5,-54"/>
</g>
<!-- ended&#45;&gt;0 -->
<g id="edge3" class="edge">
<title>ended&#45;&gt;0</title>
<path fill="none" stroke="black" d="M342.44,-35.56C349.29,-40.49 355.56,-46.6 359.5,-54 414.84,-157.96 425.53,-221.47 359.5,-319 347.42,-336.84 332.52,-325.21 314.5,-337 309.54,-340.24 304.7,-344.25 300.25,-348.38"/>
<polygon fill="black" stroke="black" points="298.37,-345.3 293.73,-354.83 303.3,-350.28 298.37,-345.3"/>
<text text-anchor="start" x="408.5" y="-183" font-family="Courier New" font-weight="bold" font-size="10.00" fill="blue">Z_EPSILON(,)</text>
</g>
<!-- status -->
<g id="node6" class="node">
<title>status</title>
<polygon fill="none" stroke="black" points="324,-337.5 324,-409.5 821,-409.5 821,-337.5 324,-337.5"/>
<polygon fill="none" stroke="black" points="335,-385.5 335,-402.5 810,-402.5 810,-385.5 335,-385.5"/>
<text text-anchor="start" x="518" y="-392.5" font-family="Courier New" font-weight="bold" font-size="10.00">TELEKINESIS_ACTIVE</text>
<polygon fill="none" stroke="black" points="335,-344.5 335,-383.5 810,-383.5 810,-344.5 335,-344.5"/>
<text text-anchor="start" x="338" y="-372.5" font-family="Courier New" font-size="10.00" fill="green">VIEW::IDV_MAIN_PANEL @pos(left:169, top:59)</text>
<text text-anchor="start" x="338" y="-361.5" font-family="Courier New" font-size="10.00" fill="green">TELEKINESIS_ACTIVE::M_DEFENSESPELL(&#39;IDS_BRAIN_TINY&#39;,&#39;TELEKINESIS_TIMER&#39;,&#39;&#39;,&#39;&#39;)</text>
<text text-anchor="start" x="338" y="-350.5" font-family="Courier New" font-size="10.00" fill="green">{state:&#39;active&#39;: wSprite:IDS_BRAIN_TINY</text>
<polygon fill="none" stroke="black" points="332,-341.5 332,-405.5 813,-405.5 813,-341.5 332,-341.5"/>
</g>
</g>
</svg>
