<?xml version="1.0" encoding="UTF-8" standalone="no"?>
<!DOCTYPE svg PUBLIC "-//W3C//DTD SVG 1.1//EN"
 "http://www.w3.org/Graphics/SVG/1.1/DTD/svg11.dtd">
<!-- Generated by graphviz version 8.0.1 (20230327.1645)
 -->
<!-- Title: Automaton Pages: 1 -->
<svg width="535pt" height="907pt"
 viewBox="0.00 0.00 535.00 907.00" xmlns="http://www.w3.org/2000/svg" xmlns:xlink="http://www.w3.org/1999/xlink">
<g id="graph0" class="graph" transform="scale(1 1) rotate(0) translate(4 903)">
<title>Automaton</title>
<polygon fill="white" stroke="none" points="-4,4 -4,-903 531,-903 531,4 -4,4"/>
<!-- filename -->
<g id="node1" class="node">
<title>filename</title>
<polygon fill="none" stroke="black" points="0,-837.5 0,-887.5 179,-887.5 179,-837.5 0,-837.5"/>
<polygon fill="none" stroke="black" points="11,-863.5 11,-880.5 168,-880.5 168,-863.5 11,-863.5"/>
<text text-anchor="start" x="14" y="-870.5" font-family="Courier New" font-weight="bold" font-size="10.00">THAOR_COORD::MEFLIN_COORD</text>
<polygon fill="none" stroke="black" points="11,-844.5 11,-861.5 168,-861.5 168,-844.5 11,-844.5"/>
<text text-anchor="start" x="44" y="-850.5" font-family="Courier New" font-size="10.00" fill="brown">start state = 0</text>
<polygon fill="none" stroke="black" points="8,-841.5 8,-883.5 171,-883.5 171,-841.5 8,-841.5"/>
</g>
<!-- 0 -->
<g id="node2" class="node">
<title>0</title>
<polyline fill="none" stroke="darkred" points="217,-852 232,-852"/>
<text text-anchor="start" x="220" y="-859.8" font-family="Courier New" font-weight="bold" font-size="14.00">0</text>
<path fill="none" stroke="darkred" d="M221,-849C221,-849 228,-849 228,-849 231.5,-849 235,-852.5 235,-856 235,-856 235,-869 235,-869 235,-872.5 231.5,-876 228,-876 228,-876 221,-876 221,-876 217.5,-876 214,-872.5 214,-869 214,-869 214,-856 214,-856 214,-852.5 217.5,-849 221,-849"/>
</g>
<!-- Q1Started -->
<g id="node3" class="node">
<title>Q1Started</title>
<polyline fill="none" stroke="darkred" points="184,-742.5 265,-742.5"/>
<text text-anchor="start" x="187" y="-750.3" font-family="Courier New" font-weight="bold" font-size="14.00">Q1Started</text>
<path fill="none" stroke="darkred" d="M190,-739.5C190,-739.5 259,-739.5 259,-739.5 263.5,-739.5 268,-744 268,-748.5 268,-748.5 268,-757.5 268,-757.5 268,-762 263.5,-766.5 259,-766.5 259,-766.5 190,-766.5 190,-766.5 185.5,-766.5 181,-762 181,-757.5 181,-757.5 181,-748.5 181,-748.5 181,-744 185.5,-739.5 190,-739.5"/>
</g>
<!-- 0&#45;&gt;Q1Started -->
<g id="edge1" class="edge">
<title>0&#45;&gt;Q1Started</title>
<path fill="none" stroke="black" d="M224.5,-844.7C224.5,-827.82 224.5,-801.51 224.5,-781.57"/>
<polygon fill="black" stroke="black" points="228,-781.68 224.5,-771.68 221,-781.68 228,-781.68"/>
<text text-anchor="start" x="228.5" y="-797" font-family="Courier New" font-weight="bold" font-size="10.00" fill="orange">WAIT(,SIG_Q1_START)</text>
</g>
<!-- Q1Pending -->
<g id="node4" class="node">
<title>Q1Pending</title>
<polyline fill="none" stroke="darkred" stroke-width="3" points="183.5,-647.5 265.5,-647.5"/>
<text text-anchor="start" x="187" y="-655.8" font-family="Courier New" font-weight="bold" font-size="14.00">Q1Pending</text>
<path fill="none" stroke="darkred" stroke-width="3" d="M189.17,-642.5C189.17,-642.5 259.83,-642.5 259.83,-642.5 265.17,-642.5 270.5,-647.83 270.5,-653.17 270.5,-653.17 270.5,-663.83 270.5,-663.83 270.5,-669.17 265.17,-674.5 259.83,-674.5 259.83,-674.5 189.17,-674.5 189.17,-674.5 183.83,-674.5 178.5,-669.17 178.5,-663.83 178.5,-663.83 178.5,-653.17 178.5,-653.17 178.5,-647.83 183.83,-642.5 189.17,-642.5"/>
</g>
<!-- Q1Started&#45;&gt;Q1Pending -->
<g id="edge4" class="edge">
<title>Q1Started&#45;&gt;Q1Pending</title>
<path fill="none" stroke="black" d="M224.5,-735.03C224.5,-722.65 224.5,-705.5 224.5,-690.68"/>
<polygon fill="black" stroke="black" points="228,-690.91 224.5,-680.91 221,-690.91 228,-690.91"/>
<text text-anchor="start" x="228.5" y="-706" font-family="Courier New" font-weight="bold" font-size="10.00" fill="orange">WAIT(,SIG_Q1_GIVEN)</text>
</g>
<!-- Q1Solved -->
<g id="node5" class="node">
<title>Q1Solved</title>
<polyline fill="none" stroke="darkred" points="188,-553.5 261,-553.5"/>
<text text-anchor="start" x="191" y="-561.3" font-family="Courier New" font-weight="bold" font-size="14.00">Q1Solved</text>
<path fill="none" stroke="darkred" d="M194,-550.5C194,-550.5 255,-550.5 255,-550.5 259.5,-550.5 264,-555 264,-559.5 264,-559.5 264,-568.5 264,-568.5 264,-573 259.5,-577.5 255,-577.5 255,-577.5 194,-577.5 194,-577.5 189.5,-577.5 185,-573 185,-568.5 185,-568.5 185,-559.5 185,-559.5 185,-555 189.5,-550.5 194,-550.5"/>
</g>
<!-- Q1Pending&#45;&gt;Q1Solved -->
<g id="edge2" class="edge">
<title>Q1Pending&#45;&gt;Q1Solved</title>
<path fill="none" stroke="black" d="M224.5,-637.43C224.5,-624.35 224.5,-607.1 224.5,-592.72"/>
<polygon fill="black" stroke="black" points="228,-592.93 224.5,-582.93 221,-592.93 228,-592.93"/>
<text text-anchor="start" x="228.5" y="-608" font-family="Courier New" font-weight="bold" font-size="10.00" fill="orange">WAIT(,SIG_Q1_SOLVED)</text>
</g>
<!-- Q2Started -->
<g id="node6" class="node">
<title>Q2Started</title>
<polyline fill="none" stroke="darkred" points="184,-462.5 265,-462.5"/>
<text text-anchor="start" x="187" y="-470.3" font-family="Courier New" font-weight="bold" font-size="14.00">Q2Started</text>
<path fill="none" stroke="darkred" d="M190,-459.5C190,-459.5 259,-459.5 259,-459.5 263.5,-459.5 268,-464 268,-468.5 268,-468.5 268,-477.5 268,-477.5 268,-482 263.5,-486.5 259,-486.5 259,-486.5 190,-486.5 190,-486.5 185.5,-486.5 181,-482 181,-477.5 181,-477.5 181,-468.5 181,-468.5 181,-464 185.5,-459.5 190,-459.5"/>
</g>
<!-- Q1Solved&#45;&gt;Q2Started -->
<g id="edge3" class="edge">
<title>Q1Solved&#45;&gt;Q2Started</title>
<path fill="none" stroke="black" d="M224.5,-546.26C224.5,-533.78 224.5,-516.46 224.5,-501.9"/>
<polygon fill="black" stroke="black" points="228,-501.97 224.5,-491.97 221,-501.97 228,-501.97"/>
<text text-anchor="start" x="228.5" y="-517" font-family="Courier New" font-weight="bold" font-size="10.00" fill="orange">WAIT(,SIG_Q2_START)</text>
</g>
<!-- Q2Pending -->
<g id="node7" class="node">
<title>Q2Pending</title>
<polyline fill="none" stroke="darkred" points="184,-371.5 265,-371.5"/>
<text text-anchor="start" x="187" y="-379.3" font-family="Courier New" font-weight="bold" font-size="14.00">Q2Pending</text>
<path fill="none" stroke="darkred" d="M190,-368.5C190,-368.5 259,-368.5 259,-368.5 263.5,-368.5 268,-373 268,-377.5 268,-377.5 268,-386.5 268,-386.5 268,-391 263.5,-395.5 259,-395.5 259,-395.5 190,-395.5 190,-395.5 185.5,-395.5 181,-391 181,-386.5 181,-386.5 181,-377.5 181,-377.5 181,-373 185.5,-368.5 190,-368.5"/>
</g>
<!-- Q2Started&#45;&gt;Q2Pending -->
<g id="edge7" class="edge">
<title>Q2Started&#45;&gt;Q2Pending</title>
<path fill="none" stroke="black" d="M224.5,-455.26C224.5,-442.78 224.5,-425.46 224.5,-410.9"/>
<polygon fill="black" stroke="black" points="228,-410.97 224.5,-400.97 221,-410.97 228,-410.97"/>
<text text-anchor="start" x="228.5" y="-426" font-family="Courier New" font-weight="bold" font-size="10.00" fill="orange">WAIT(,SIG_Q2_GIVEN)</text>
</g>
<!-- Q2Solved -->
<g id="node8" class="node">
<title>Q2Solved</title>
<polyline fill="none" stroke="darkred" points="188,-280.5 261,-280.5"/>
<text text-anchor="start" x="191" y="-288.3" font-family="Courier New" font-weight="bold" font-size="14.00">Q2Solved</text>
<path fill="none" stroke="darkred" d="M194,-277.5C194,-277.5 255,-277.5 255,-277.5 259.5,-277.5 264,-282 264,-286.5 264,-286.5 264,-295.5 264,-295.5 264,-300 259.5,-304.5 255,-304.5 255,-304.5 194,-304.5 194,-304.5 189.5,-304.5 185,-300 185,-295.5 185,-295.5 185,-286.5 185,-286.5 185,-282 189.5,-277.5 194,-277.5"/>
</g>
<!-- Q2Pending&#45;&gt;Q2Solved -->
<g id="edge5" class="edge">
<title>Q2Pending&#45;&gt;Q2Solved</title>
<path fill="none" stroke="black" d="M224.5,-364.26C224.5,-351.78 224.5,-334.46 224.5,-319.9"/>
<polygon fill="black" stroke="black" points="228,-319.97 224.5,-309.97 221,-319.97 228,-319.97"/>
<text text-anchor="start" x="228.5" y="-335" font-family="Courier New" font-weight="bold" font-size="10.00" fill="orange">WAIT(,SIG_Q2_SOLVED)</text>
</g>
<!-- Q3Started -->
<g id="node9" class="node">
<title>Q3Started</title>
<polyline fill="none" stroke="darkred" points="184,-189.5 265,-189.5"/>
<text text-anchor="start" x="187" y="-197.3" font-family="Courier New" font-weight="bold" font-size="14.00">Q3Started</text>
<path fill="none" stroke="darkred" d="M190,-186.5C190,-186.5 259,-186.5 259,-186.5 263.5,-186.5 268,-191 268,-195.5 268,-195.5 268,-204.5 268,-204.5 268,-209 263.5,-213.5 259,-213.5 259,-213.5 190,-213.5 190,-213.5 185.5,-213.5 181,-209 181,-204.5 181,-204.5 181,-195.5 181,-195.5 181,-191 185.5,-186.5 190,-186.5"/>
</g>
<!-- Q2Solved&#45;&gt;Q3Started -->
<g id="edge6" class="edge">
<title>Q2Solved&#45;&gt;Q3Started</title>
<path fill="none" stroke="black" d="M224.5,-273.26C224.5,-260.78 224.5,-243.46 224.5,-228.9"/>
<polygon fill="black" stroke="black" points="228,-228.97 224.5,-218.97 221,-228.97 228,-228.97"/>
<text text-anchor="start" x="228.5" y="-244" font-family="Courier New" font-weight="bold" font-size="10.00" fill="orange">WAIT(,SIG_Q3_START)</text>
</g>
<!-- Q3Pending -->
<g id="node10" class="node">
<title>Q3Pending</title>
<polyline fill="none" stroke="darkred" points="184,-98.5 265,-98.5"/>
<text text-anchor="start" x="187" y="-106.3" font-family="Courier New" font-weight="bold" font-size="14.00">Q3Pending</text>
<path fill="none" stroke="darkred" d="M190,-95.5C190,-95.5 259,-95.5 259,-95.5 263.5,-95.5 268,-100 268,-104.5 268,-104.5 268,-113.5 268,-113.5 268,-118 263.5,-122.5 259,-122.5 259,-122.5 190,-122.5 190,-122.5 185.5,-122.5 181,-118 181,-113.5 181,-113.5 181,-104.5 181,-104.5 181,-100 185.5,-95.5 190,-95.5"/>
</g>
<!-- Q3Started&#45;&gt;Q3Pending -->
<g id="edge9" class="edge">
<title>Q3Started&#45;&gt;Q3Pending</title>
<path fill="none" stroke="black" d="M224.5,-182.26C224.5,-169.78 224.5,-152.46 224.5,-137.9"/>
<polygon fill="black" stroke="black" points="228,-137.97 224.5,-127.97 221,-137.97 228,-137.97"/>
<text text-anchor="start" x="228.5" y="-153" font-family="Courier New" font-weight="bold" font-size="10.00" fill="orange">WAIT(,SIG_Q3_GIVEN)</text>
</g>
<!-- Q3Solved -->
<g id="node11" class="node">
<title>Q3Solved</title>
<ellipse fill="none" stroke="black" cx="224.5" cy="-18" rx="53.89" ry="18"/>
<text text-anchor="middle" x="224.5" y="-14.3" font-family="Courier New" font-size="14.00">Q3Solved</text>
</g>
<!-- Q3Pending&#45;&gt;Q3Solved -->
<g id="edge8" class="edge">
<title>Q3Pending&#45;&gt;Q3Solved</title>
<path fill="none" stroke="black" d="M224.5,-91.26C224.5,-78.86 224.5,-61.68 224.5,-47.18"/>
<polygon fill="black" stroke="black" points="228,-47.27 224.5,-37.27 221,-47.27 228,-47.27"/>
<text text-anchor="start" x="228.5" y="-62" font-family="Courier New" font-weight="bold" font-size="10.00" fill="orange">WAIT(,SIG_Q3_SOLVED)</text>
</g>
<!-- status -->
<g id="node12" class="node">
<title>status</title>
<polygon fill="none" stroke="black" points="270,-826.5 270,-898.5 527,-898.5 527,-826.5 270,-826.5"/>
<polygon fill="none" stroke="black" points="281,-874.5 281,-891.5 516,-891.5 516,-874.5 281,-874.5"/>
<text text-anchor="start" x="365" y="-881.5" font-family="Courier New" font-weight="bold" font-size="10.00">THAOR_COORD</text>
<polygon fill="none" stroke="black" points="281,-833.5 281,-872.5 516,-872.5 516,-833.5 281,-833.5"/>
<text text-anchor="start" x="284" y="-861.5" font-family="Courier New" font-size="10.00" fill="green">VIEW::IDV_OTHERID @pos(left:2, top:2)</text>
<text text-anchor="start" x="284" y="-850.5" font-family="Courier New" font-size="10.00" fill="green">THAOR_COORD::MEFLIN_COORD(&#39;&#39;,&#39;&#39;,&#39;&#39;,&#39;&#39;)</text>
<text text-anchor="start" x="284" y="-839.5" font-family="Courier New" font-size="10.00" fill="green">{state:&#39;Q1Pending&#39;:</text>
<polygon fill="none" stroke="black" points="278,-830.5 278,-894.5 519,-894.5 519,-830.5 278,-830.5"/>
</g>
</g>
</svg>
